<svg xmlns="http://www.w3.org/2000/svg" width="1000" height="988" viewBox="0 0 1000 988"><g id="Artboard"><rect id="Tint" width="1000" height="988" fill="#58595b"/></g><g id="Outline"><g id="燕石博物誌"><path id="燕石" d="M447.852,456.407c-.01-.3-.01-.77-.01-1.052,0-.124,0-.294,0-.414.01-.036.022-.074.034-.112a7.051,7.051,0,0,0,.365-2.088,4.5,4.5,0,0,0-4.6-4.6h-.2a3.8,3.8,0,0,0-.44.025c-1.556.172-16.46.88-26.906.88H383.116c-10.535,0-24.885-.444-26.663-.745a4.138,4.138,0,0,0-.684-.059h-.4a4.65,4.65,0,0,0-4.8,4.7,7.057,7.057,0,0,0,.365,2.088c.02.066.041.131.057.192a3.022,3.022,0,0,1,.081.636,5.116,5.116,0,0,1-.106.836,8.063,8.063,0,0,0-.3,1.979,4.6,4.6,0,0,0,4.8,4.7h.3a3.909,3.909,0,0,0,.54-.037c1.531-.207,13.2-.425,23.87-.461a88.968,88.968,0,0,1-31.956,40.19,3.954,3.954,0,0,0-.485.41,84.518,84.518,0,0,0,.774-11.022c0-.035,0-.069,0-.1,0-3.006-2.8-5.106-6.815-5.106h-.045c6.86-5.418,6.86-7.451,6.86-8.668a5.078,5.078,0,0,0-3.557-4.772,10.691,10.691,0,0,1-4.091-2.6,5.182,5.182,0,0,0-4.094-2.162,4.919,4.919,0,0,0-4.5,3.369,34.869,34.869,0,0,1-1.75,3.512c.083-1.837.177-3.58.254-4.478a7.541,7.541,0,0,0,.14-1.519,4.747,4.747,0,0,0-4.8-5.006,6.113,6.113,0,0,0-1.64.259l-.236.062c-.052.013-.105.027-.156.043a16.336,16.336,0,0,1-3.91.641l-.054-.008c-.155-.024-.384-.059-.66-.079,0-.119,0-.231,0-.336v-.725h2.233c4.341,0,17.47.31,19.086.48a3.92,3.92,0,0,0,.419.022h.2a4.553,4.553,0,0,0,4.805-4.6,5.842,5.842,0,0,0-.484-2.276,1.591,1.591,0,0,1-.019-.238,3.245,3.245,0,0,1,.081-.538c.006-.015.025-.066.042-.116a5.827,5.827,0,0,0,.38-1.96,4.5,4.5,0,0,0-4.6-4.6h-.3a3.922,3.922,0,0,0-.658.055c-1.563.237-14.564.749-19.048.749h-2.084c.047-2.069.127-4.344.243-5.969.006-.1.01-.19.01-.286v-.4c0-3.439-2.387-5-4.6-5a6.3,6.3,0,0,0-2.35.493,33.815,33.815,0,0,1-5.09.512,7.8,7.8,0,0,0-2.887.368,4.634,4.634,0,0,0-3.023,4.537,4.991,4.991,0,0,0,.115,1.044c0,.026,0,.053.008.079.1.922.141,2.8.162,4.629h-8.217c.049-2.018.13-4.064.236-5.445.008-.1.012-.2.012-.307v-.4a4.749,4.749,0,0,0-4.7-5.106,5.947,5.947,0,0,0-2.177.464,30.673,30.673,0,0,1-4.76.541,7,7,0,0,0-3.246.53,4.724,4.724,0,0,0-2.665,4.576v.5a4.093,4.093,0,0,0,.025.442c.09.814.134,2.517.156,4.2h-1.811c-4.719,0-17.315-.33-19.121-.644-.052-.009-.105-.017-.157-.024a4.933,4.933,0,0,0-1.131-.136,4.5,4.5,0,0,0-4.6,4.6,7.022,7.022,0,0,0,.366,2.089c.02.066.041.131.056.191a2.265,2.265,0,0,1,.081.438,1.856,1.856,0,0,1-.052.409,6.379,6.379,0,0,0-.35,2,4.552,4.552,0,0,0,4.7,4.6h.4a3.924,3.924,0,0,0,.541-.037c1.7-.232,14.214-.465,19.165-.465h1.932v.738a6.814,6.814,0,0,0-.728.182c-.048.014-.1.031-.163.046s-.149.04-.223.063a17.568,17.568,0,0,1-4.236.722l-.03,0a5.6,5.6,0,0,0-.975-.094h-.6a4.787,4.787,0,0,0-5.106,5v.3a3.92,3.92,0,0,0,.031.5c.147,1.179.214,2.674.245,4.251h-.5c-3.234,0-9.044-.457-10.343-.626a4.393,4.393,0,0,0-1.219-.178,4.454,4.454,0,0,0-4.5,4.6,8.412,8.412,0,0,0,.318,2.067c.017.066.036.135.056.2a1.717,1.717,0,0,1,.028.246,2.181,2.181,0,0,1-.081.537l-.051.194a6.758,6.758,0,0,0-.27,1.781,4.6,4.6,0,0,0,4.7,4.7h.2a3.936,3.936,0,0,0,.5-.031c1.326-.166,7.209-.572,10.663-.572h.524v4.569a75.181,75.181,0,0,1-13.147,2.839l-.108.014a4.708,4.708,0,0,0-4.44,4.664,5.476,5.476,0,0,0,1.043,3.077,21.281,21.281,0,0,1,2.105,5.281c.012.044.024.088.038.132.848,2.825,2.441,4.257,4.735,4.257.928,0,1.662,0,6.882-3.152.688-.416,1.629-1,2.733-1.7-.034.638-.071,1.141-.111,1.462a3.9,3.9,0,0,0-.031.5v.3a5.423,5.423,0,0,0,.433,2.166A31.463,31.463,0,0,1,251.4,525.11a5.228,5.228,0,0,0-3.783,4.846c0,1.879,1,3.459,2.985,4.7l.106.064a14.545,14.545,0,0,1,4.663,4.456,5.277,5.277,0,0,0,4.892,3.429c1.189,0,3.971,0,10.052-9.227,2.14-3.249,5.973-9.714,7.68-16.632.091-.009.183-.019.274-.033a3.739,3.739,0,0,0,.1.374,43.181,43.181,0,0,1,1.825,12.469,34.3,34.3,0,0,1-.539,6.122c-.019.106-.034.214-.045.321a5.5,5.5,0,0,0-.12,1.1,4.65,4.65,0,0,0,4.7,4.8,6.745,6.745,0,0,0,3.028-.79,24.575,24.575,0,0,1,6.994-2.243c3.939-.33,5.339-2.942,5.339-5.089,0-1.69-2.6-11.215-8.066-19.121.784,0,1.6,0,2.457,0h3.452a4.631,4.631,0,0,0-.112,1.027v.2a4,4,0,0,0,.486,1.911c3.262,6,5.259,12.96,5.345,18.633.018,5.32,4.224,5.474,4.7,5.474a6.265,6.265,0,0,0,3.526-1.174,24.621,24.621,0,0,1,6.622-2.849c.052-.012.1-.025.154-.039,4.022-1.1,4.456-3.908,4.456-5.065,0-2.242-2.183-6.5-6.489-12.671-1.571-2.25-2.916-4-4.076-5.361a4.674,4.674,0,0,0,3.975-4.143,10.619,10.619,0,0,0,2.718,2.637,5.169,5.169,0,0,0-1.313,3.351,4.674,4.674,0,0,0,1.241,3.093c5.513,6.276,9.768,13.169,11.392,18.457,1.1,3.772,3.98,4.066,4.839,4.066a6.051,6.051,0,0,0,4.338-2.078l.074-.076c1.625-1.715,3.384-3.454,5.452-4.238l.068-.027c3.324-1.33,3.821-3.654,3.821-4.921,0-1.516,0-3.4-10.253-12.142-1.37-1.168-2.6-2.177-3.7-3.047,6.853-.7,10.236-3.345,11.958-7.849.751,2.757,3.762,6.428,6.734,6.428,1.2,0,1.747,0,9.283-5.066.971-.653,2.608-1.766,4.44-3.059l-.128,14.143c0,6.083-.182,13.828-.426,15.142a3.92,3.92,0,0,0-.077.779v.4a4.842,4.842,0,0,0,5.006,5.006,8.166,8.166,0,0,0,2.014-.3,14.575,14.575,0,0,1,2.812-.2,13.576,13.576,0,0,1,2.816.224,5.546,5.546,0,0,0,1.809.279,4.894,4.894,0,0,0,4.905-5.206v-4.245h35.277c-.043,1.465-.106,2.467-.158,2.876a6.6,6.6,0,0,0-.189,1.669,4.8,4.8,0,0,0,4.905,4.906,6.713,6.713,0,0,0,1.577-.211c.093-.021.2-.045.313-.068.091-.018.18-.039.269-.064a13.119,13.119,0,0,1,3.17-.261,16.033,16.033,0,0,1,2.821.2,7.675,7.675,0,0,0,1.9.2,4.8,4.8,0,0,0,4.905-4.906,6.889,6.889,0,0,0-.183-1.748c-.088-.8-.219-3.809-.219-14.639V498.286c0-3.358.1-7.96.2-11.031,0-.043,0-.086,0-.129v-.6c0-4.963-4.222-5.106-4.7-5.106a7.843,7.843,0,0,0-1.689.154,139.711,139.711,0,0,1-15.6.55H391.287a110.01,110.01,0,0,0,10.477-19.247h14.429c10.653,0,25.059.314,26.748.483.132.013.265.02.4.02h.2a4.6,4.6,0,0,0,4.7-4.7A7.058,7.058,0,0,0,447.852,456.407ZM336.123,491.334h0c-.449,3.441-.873,6.691-1.541,7.8-.243.4-1.622.485-2.737.485-.674,0-1.17-.028-1.53-.063v-4.934c2.161-1.139,4.125-2.32,5.83-3.429C336.137,491.237,336.13,491.286,336.123,491.334Zm-42.3-25.9v-.646h8.288v.646Zm5.271,23.081v13.415h-2.757V488.512Zm86.732,30,.074-22.664h35.245v22.664Z" fill="#fff"/><path id="博" d="M550.692,510.531a8.093,8.093,0,0,0,.3-1.99,4.454,4.454,0,0,0-4.5-4.6,4.2,4.2,0,0,0-1.407.243c-.327.041-.969.094-2.016.151a5.072,5.072,0,0,0,2.5-4.538v-.3c0-.1,0-.205-.012-.307-.093-1.209-.19-3.832-.19-6.127V475.665c0-2.62.109-4.909.2-6.748,0-.063,0-.126,0-.19v-.6a5.712,5.712,0,0,0-.457-2.339c.061,0,.121,0,.177,0h.2a4.552,4.552,0,0,0,4.805-4.6,5.735,5.735,0,0,0-.4-2.069c0-.12,0-.248,0-.345,0-.179,0-.427,0-.6a7.1,7.1,0,0,0,.3-1.918,4.4,4.4,0,0,0-4.5-4.5h-.3a4.132,4.132,0,0,0-.5.031c-.167.02-.541.046-1.051.077a4.261,4.261,0,0,0,.32-1.637c0-4.266-5.192-5.475-9.363-6.447a112.315,112.315,0,0,0-11.157-1.949,3.892,3.892,0,0,0-.471-.028,4.426,4.426,0,0,0-2.377.68,4.443,4.443,0,0,0-3.856-2.188,6.242,6.242,0,0,0-2.028.392,19.434,19.434,0,0,1-4.709.513h-.9c-4.924,0-5.307,3.754-5.307,4.9v.5c0,.111,0,.222.014.333.112,1.339.157,3.433.175,5.52h-3.428c-5.339,0-16.376-.435-17.774-.655l-.021,0a4.363,4.363,0,0,0-1.106-.146,4.639,4.639,0,0,0-4.683,3.528c.061-3.653.166-7.208.322-8.918.011-.121.016-.242.016-.363v-.6c0-3.577-2.49-5.206-4.8-5.206a6.321,6.321,0,0,0-2.071.407l-.116.04a14.561,14.561,0,0,1-4.65.659h-1.608a4.646,4.646,0,0,0-5.006,4.8,4.991,4.991,0,0,0,.115,1.044c.008.089.019.178.032.267.169,1.1.255,3.751.255,15.178v4.017a62.476,62.476,0,0,1-6.293-.559,3.976,3.976,0,0,0-.443-.085,4.92,4.92,0,0,0-1.128-.135,4.5,4.5,0,0,0-4.6,4.6,7.014,7.014,0,0,0,.366,2.088c.02.067.041.131.056.192a3.117,3.117,0,0,1,.081.536,3.058,3.058,0,0,1-.062.55,7.235,7.235,0,0,0-.34,2.063,4.6,4.6,0,0,0,4.8,4.6h.3a3.988,3.988,0,0,0,.785-.078c.727-.134,3.654-.279,6.475-.36v34.442c0,4.764-.2,17.4-.4,21.941,0,.059,0,.118,0,.177,0,.038-.016.161-.028.251a7.438,7.438,0,0,0-.072.956,4.7,4.7,0,0,0,4.8,4.906,6.713,6.713,0,0,0,1.577-.211c.085-.019.178-.041.283-.062a16.459,16.459,0,0,1,2.664-.331,7.567,7.567,0,0,1,1.63.155,8.389,8.389,0,0,0,2.492.449c2.314,0,4.805-1.661,4.805-5.308v-.5c0-.089,0-.178-.009-.266-.244-3.656-.285-13.313-.292-19.28a4.763,4.763,0,0,0,3.037,1.025,4.395,4.395,0,0,0,1.1-.143c.543-.055,2.4-.124,4.809-.191a4.42,4.42,0,0,0-.053.658,4.325,4.325,0,0,0,1.272,3.13,4.007,4.007,0,0,0,.822.632,36.475,36.475,0,0,1,11.793,10.938c.018.029.037.057.056.086a5.4,5.4,0,0,0,4.535,2.786,4.555,4.555,0,0,0,.623-.043,4.5,4.5,0,0,0,2.126,2.142A35.024,35.024,0,0,0,522.157,542c9.367,0,14.959-4.84,14.959-12.948v-.6c0-.051,0-.1,0-.154-.1-2.537-.1-5.576-.1-7.587v-2.853c4.446.107,8.051.238,8.641.3a3.841,3.841,0,0,0,.429.023h.3a4.454,4.454,0,0,0,4.6-4.5,7.177,7.177,0,0,0-.319-1.994,3.3,3.3,0,0,1-.083-.619c0-.044.045-.242.075-.387Zm-29.561-18.257v-1.751h7.181v1.751Zm0-14.477v-1.35h7.181v1.35Zm-16.948-1.35v1.35h-6.077v-1.35Zm0,14.076v1.751h-6.077v-1.751Zm5.729,27.145h9.855v8.769a3.3,3.3,0,0,1-.15,1.148,3.674,3.674,0,0,1-1.381.181,18.806,18.806,0,0,1-4.415-.647,5.269,5.269,0,0,0,1.277-3.4C515.1,521.361,513.722,519.606,509.912,517.668Zm-32.818-55.174c0-1.534.011-3.386.035-5.3a6.507,6.507,0,0,0,.51,1.5,4.516,4.516,0,0,1-.062.522,6.312,6.312,0,0,0-.339,1.965,4.541,4.541,0,0,0,4.512,4.6l0,0a4.2,4.2,0,0,0-.741.2c-.609.111-2.1.281-3.912.424Zm0,42.443V479.978c1.886.1,3.515.236,4.266.334v13.047a52.217,52.217,0,0,1-.367,5.906,3.9,3.9,0,0,0-.035.529v.2a4.99,4.99,0,0,0,2.451,4.385c-.978-.048-1.695-.1-2.036-.152-.1-.022-.207-.04-.311-.054a4.933,4.933,0,0,0-1.131-.136A4.7,4.7,0,0,0,477.094,504.937Z" fill="#fff"/><path id="物" d="M642.7,456.583h-.6a4.075,4.075,0,0,0-.541.037,108.422,108.422,0,0,1-13.737.868H608.337c1.469-4.379,3.073-9.672,3.073-11.584A4.791,4.791,0,0,0,606.3,441h-.2c-.47,0-.912.028-1.339.056-.354.022-.688.044-.974.044a22.561,22.561,0,0,1-4.973-.506,6.335,6.335,0,0,0-2.367-.5c-2.314,0-4.805,1.66-4.805,5.307a83.515,83.515,0,0,1-2.145,15.785,5,5,0,0,0-.892-.079h-.2a4,4,0,0,0-.656.054c-.608.1-2.2.277-4.088.424.028-3.818.217-13.03.391-15.725.006-.086.008-.172.008-.258V445c0-4.11-2.956-5.207-4.7-5.207a6.249,6.249,0,0,0-2.037.4,20.534,20.534,0,0,1-5.2.71h-1.307a4.644,4.644,0,0,0-4.9,4.9v.5a3.759,3.759,0,0,0,.022.411c.018.175.035.381.052.615h-.4a3.97,3.97,0,0,0-.566.041,29.528,29.528,0,0,1-3.957.362,8.521,8.521,0,0,1-1.724-.18,6.518,6.518,0,0,0-1.8-.223,4.553,4.553,0,0,0-4.6,4.8v.4c0,.1,0,.2.012.307.089,1.154.089,2.5.089,3.916,0,9.114-1.572,23.152-4.486,31.215a3.991,3.991,0,0,0-.239,1.36v.1c0,4,5.022,5.609,7.117,5.609,3.394,0,5.235-3.271,7.848-10.144,1.035-2.723,2.133-5.974,3.032-8.942v17.146c-4.8,1.412-9.525,2.6-13.823,3.458-4.067.713-4.274,3.984-4.274,4.636a6.1,6.1,0,0,0,1.069,3.16,4.133,4.133,0,0,0,.294.426,21.27,21.27,0,0,1,3.134,5.924c.843,2.81,2.47,4.243,4.831,4.243.913,0,3.2-.639,8.769-3.279v3.4c0,4.238-.305,17.933-.4,21.507v.049c-.006.055-.014.108-.021.16a7.28,7.28,0,0,0-.08,1.006,4.7,4.7,0,0,0,4.8,4.9,6.825,6.825,0,0,0,1.579-.209c.092-.022.195-.045.312-.069a14.065,14.065,0,0,1,2.634-.324,7.964,7.964,0,0,1,1.744.182c.1.026.207.047.312.065l.338.058a10.136,10.136,0,0,0,1.728.2c.481,0,4.7-.144,4.7-5.107v-.6c0-.069,0-.137,0-.205-.174-3.383-.277-15.227-.294-20.361a6.727,6.727,0,0,0,3.94,1.643,4.324,4.324,0,0,0,2.889-1.049c11.151-8.978,17.681-17.954,21.97-28.225-3.986,17.015-11.789,28.96-24.747,38.789a4.371,4.371,0,0,0-1.9,3.778c0,3.248,3.515,6.815,6.715,6.815a4.5,4.5,0,0,0,2.686-.809,87.76,87.76,0,0,0,9.315-6.574,7.355,7.355,0,0,0-.116,1.272A5.25,5.25,0,0,0,606.7,536.3a3.92,3.92,0,0,0,.347.207,35.63,35.63,0,0,0,16.752,4.386c13.055,0,20.242-7.477,21.972-22.857.907-8.265,1.432-18.682,1.432-47.5,0-1.175.023-2.447.047-3.793.026-1.477.054-3,.054-4.552C647.3,457.13,644.084,456.583,642.7,456.583Zm-52.145,41.475a65.715,65.715,0,0,1-6.894,8.44v-4.129c1.443-.873,3.434-2.1,5.377-3.337Q589.845,498.518,590.555,498.058Zm-5.314-22.824c-.5,1.232-1.027,2.421-1.58,3.545v-3.645C584.214,475.167,584.748,475.2,585.241,475.234Zm9.5,9.734c.462-.632.938-1.31,1.42-2.021.941-1.389,2.08-3.168,3.312-5.3a71.769,71.769,0,0,1-3.083,9.513A7.671,7.671,0,0,0,594.736,484.968Zm16.555,39.519a66.554,66.554,0,0,0,12.425-18.14,87.453,87.453,0,0,0,5.763-17.224c-.246,16.239-1.128,25.873-2.82,31.406-1.593,5.21-3.295,5.728-7.084,5.728a23.541,23.541,0,0,1-7.516-1.582A3.987,3.987,0,0,0,611.291,524.487Z" fill="#fff"/><path id="誌" d="M746.447,508.086c-1.68-3.086-3.341-5.9-4.678-7.926-2.263-3.429-3.855-5.171-6.276-5.171a9.321,9.321,0,0,0-5.01,1.785,70.928,70.928,0,0,0-8.285-5.346h3.945c4.769,0,15.142.4,16.87.5q.111.006.222.006h.1a4.651,4.651,0,0,0,4.8-4.7,6.256,6.256,0,0,0-.4-2.154v-.159c0-.272,0-.8.015-1.073a7.958,7.958,0,0,0,.287-1.943,4.506,4.506,0,0,0-4.5-4.7h-.2a4.086,4.086,0,0,0-.5.031c-1.412.176-11.107.728-16.115.771v-7.983h1.429c5.1,0,15.671.315,17.026.475a4.049,4.049,0,0,0,.467.027h.1a4.647,4.647,0,0,0,4.8-4.8,7.388,7.388,0,0,0-.387-2.211,1.143,1.143,0,0,1-.016-.2,4.229,4.229,0,0,1,.045-.6c.013-.046.026-.091.037-.137a8.385,8.385,0,0,0,.321-2.076,4.6,4.6,0,0,0-4.7-4.7h-.2a4.05,4.05,0,0,0-.737.068c-1.343.223-11.65.736-16.856.736H726.73c.028-3.786.149-8.094.352-9.865a9.209,9.209,0,0,0,.146-1.819,4.55,4.55,0,0,0-4.7-4.7,5.884,5.884,0,0,0-1.8.254,19.147,19.147,0,0,1-4.832.551h-1.609a4.976,4.976,0,0,0-5.306,5.206v.4c0,.111,0,.222.013.333.159,1.906.254,6.608.28,9.642-5.715,0-14.385-.342-15.783-.619q-.11-.022-.219-.039a4.352,4.352,0,0,0-1.1-.146,4.878,4.878,0,0,0-2.607.726,4.767,4.767,0,0,0,1.48-3.563,6.254,6.254,0,0,0-.4-2.149c0-.118,0-.252,0-.364,0-.139,0-.345,0-.493a7.327,7.327,0,0,0,.3-2.02,4.553,4.553,0,0,0-4.6-4.7h-.2a4.008,4.008,0,0,0-.9.1,83.1,83.1,0,0,1-9.355.7h-7.139a65.765,65.765,0,0,1-8.835-.6c-.1-.024-.208-.044-.314-.06a4.356,4.356,0,0,0-1.106-.147,4.6,4.6,0,0,0-4.7,4.7,7.021,7.021,0,0,0,.366,2.088c.02.066.041.131.056.191.025.1.056.223.075.309-.019.156-.074.434-.117.647-.023.115-.041.23-.054.347l0,.021a6.042,6.042,0,0,0-.22,1.524,4.6,4.6,0,0,0,2.112,3.943c-.621-.049-1.091-.1-1.339-.141-.055-.009-.111-.018-.167-.025a4.923,4.923,0,0,0-1.13-.136,4.552,4.552,0,0,0-4.6,4.7,7.044,7.044,0,0,0,.365,2.087c.02.067.041.131.057.192s.043.161.068.239a.65.65,0,0,1,.012.1,3.964,3.964,0,0,1-.07.457,6.417,6.417,0,0,0-.432,2.155,4.65,4.65,0,0,0,4.8,4.7h.4a3.955,3.955,0,0,0,.565-.04c.081-.011.2-.024.348-.037a4.648,4.648,0,0,0-1.6,3.618,7.5,7.5,0,0,0,.194,1.6l.016.072a3.99,3.99,0,0,0,.11.7c.033.133.054.233.066.3-.01.046-.023.1-.036.151a7.461,7.461,0,0,0-.35,2.2,4.539,4.539,0,0,0,2.135,3.954,4.484,4.484,0,0,0-2.034,3.888,7.982,7.982,0,0,0,.362,2.162l.025.091c.014.14.014.389.014.562,0,.062,0,.123,0,.183a7.949,7.949,0,0,0-.3,2.029,4.6,4.6,0,0,0,4.7,4.7h.4a4.12,4.12,0,0,0,.566-.04c1.124-.161,6.281-.462,8.986-.462h8.143c3.074,0,8.6.3,9.827.467a4.063,4.063,0,0,0,.529.035h.1a4.647,4.647,0,0,0,4.8-4.8,7.066,7.066,0,0,0-.286-1.885,4.957,4.957,0,0,0,3.324,1.159h.3a4.08,4.08,0,0,0,.468-.027c.929-.11,5.573-.277,9.874-.381a4.881,4.881,0,0,0-.467,1.938,4.327,4.327,0,0,0,1.272,3.03,4.16,4.16,0,0,0,.42.365c.078.058.155.117.232.176-.185-.018-.4-.031-.639-.031h-.5a6.21,6.21,0,0,0-2.493.478,8.793,8.793,0,0,0-4.946-1.181c-4.713,0-5.4,3.061-5.494,4.1h0a44.585,44.585,0,0,1-1.251,7.678c.016-1.585.059-3.1.177-4.533.007-.076.011-.152.013-.228l.01-.066a6.625,6.625,0,0,0,.092-1.042,4.5,4.5,0,0,0-4.7-4.7h-.7a3.993,3.993,0,0,0-.513.033,81.506,81.506,0,0,1-9.642.369h-7.641c-3.279,0-7,0-9.668-.191-.1-.007-.19-.01-.286-.01h-.6a4.741,4.741,0,0,0-5,4.9v.3c0,.133.007.266.02.4.181,1.812.181,5.607.181,7.646v11.863c0,3.756-.2,11.609-.3,13.473,0,.067,0,.134,0,.2v.3c0,3.439,2.386,5.006,4.6,5.006a6.912,6.912,0,0,0,2.356-.46,11.316,11.316,0,0,1,1.967-.144,10.828,10.828,0,0,1,2.459.2,5.9,5.9,0,0,0,1.964.3c1.08,0,4.6-.4,4.6-5.608,0-.459-.016-1.131-.036-1.933h3.457c-.01.251-.024.464-.04.629-.011.113-.018.226-.02.34,0,.054-.013.107-.02.159a7.258,7.258,0,0,0-.081,1.006,4.7,4.7,0,0,0,4.7,4.9,6.626,6.626,0,0,0,1.785-.271l.191-.049a9.529,9.529,0,0,1,2.046-.183,22.362,22.362,0,0,1,2.616.156,11.057,11.057,0,0,0,1.908.146,4.5,4.5,0,0,0,4.6-4.8,5.513,5.513,0,0,0-.108-1.04l0-.049c-.016-.223-.032-.551-.049-.959a5.123,5.123,0,0,0,3.9,2.026c2.352,0,4.013-1.508,5.425-5.24a11.253,11.253,0,0,0,3.312,6.179c2.724,2.513,6.786,3.585,13.582,3.585,9.2,0,14.879-1.406,17.824-8.325a4.737,4.737,0,0,0,3.793,1.891,5.63,5.63,0,0,0,3.931-1.771l.063-.064c2.694-2.811,4.691-4.145,5.388-4.363a5.05,5.05,0,0,0,3.968-4.94C752.865,520.97,750.706,515.912,746.447,508.086Zm-72.161,3.047v10h-3.764v-10Zm42.888.927c0-1.008.026-2.365.065-3.752a30.7,30.7,0,0,1,1.782,3.176c.053.11.111.217.173.321a4.951,4.951,0,0,0,4.335,2.747,4.485,4.485,0,0,0,2.7-.873,4.609,4.609,0,0,0-.542,1.693h0c-.57,5.56-1.506,7.507-2.191,8.162-.624.6-2.118.713-4.487.713a17.808,17.808,0,0,1-1.831-.077Zm13.895-.682a6.36,6.36,0,0,0-3.432.832q.168-.242.327-.505c.053-.088.1-.178.148-.27a22.484,22.484,0,0,1,2.351-3.856c.421,1.24.816,2.514,1.183,3.809C731.457,511.381,731.265,511.378,731.069,511.378Zm-51.92-40.522c-1.16.063-2.251.1-3.075.1h-7.942c-1.155,0-2.536-.048-3.861-.122.659-.013,1.255-.021,1.75-.021h10.254C677.087,470.817,678.079,470.831,679.149,470.856Zm-10.515-13.712h7.239c1.175,0,2.691.06,4.183.143-1.437.061-2.778.1-3.781.1H666.021c-.658,0-1.45-.013-2.308-.035C665.455,457.237,667.352,457.144,668.634,457.144ZM689.4,483.779a4.635,4.635,0,0,0,.484-.372c.048.2.1.377.143.54.012.043.024.085.034.126s0,.12.006.2A4.263,4.263,0,0,0,689.4,483.779Zm1.828-5.463a6.238,6.238,0,0,0-.2-.6v-.04c0-.216,0-.553.009-.748a8.36,8.36,0,0,0,.293-2.067,4.544,4.544,0,0,0-1.572-3.55,4.772,4.772,0,0,0,2.4-.8c.067,0,.134,0,.2,0h.3a3.966,3.966,0,0,0,.7-.061c1.348-.212,10.487-.441,15.893-.441h.021v7.97c-5.08-.068-12.263-.35-13.551-.6-.087-.019-.172-.035-.257-.048a4.355,4.355,0,0,0-1.093-.143A4.778,4.778,0,0,0,691.229,478.316Z" fill="#fff"/></g></g><g id="Text"><path d="M346.885,417.746l2.6.021,2.267-.021,2.919-.042v.315l-1.89,2.52q-.41.567-1.008,1.448c-.4.567-.735,1.092-1.028,1.533l-2.121,3.3-2.2,3.675h.4c1.869,0,3.444-.063,4.7-.189a7.26,7.26,0,0,0,2.352-.462,1.873,1.873,0,0,0,.693-.714l.189-.588.168-.609h.5l-.21,1.7-.147,1.7-1.869-.042-5.1-.042-2.478.042-2.561.126v-.336l1.722-2.394,1.595-2.268,1.449-2.141,2.016-3,1.868-2.876-2.309.063-2.415.105a6.049,6.049,0,0,0-1.239.126l-.482.105-.378.189c-.189.084-.4.525-.588,1.3l-.105.42h-.462l.273-1.869.147-1.134Z" fill="#000000"/><path d="M357.008,417.662l2.708.042h1.071l1.533-.042v.483l-1.533.231-.1,2.415-.042,2.54.021,1.89.126,1.679a3.509,3.509,0,0,0,.5,1.785,3.44,3.44,0,0,0,1.26,1.281,3.8,3.8,0,0,0,2.057.609,4.1,4.1,0,0,0,3.8-2.247v-.189l.042-3.632-.021-1.827-.021-1.638-.063-1.595-.042-1.071-1.512-.231v-.483l1.575.042h1.05l2.813-.042.063.483-1.722.231-.126,2.373-.021,2.729.021,1.89.021,1.847.063,1.89.084,1.47,1.785.231v.483l-1.134-.021-.672-.021-1.217.021-1.029.063v-1.68a8,8,0,0,1-5.165,1.89,4.266,4.266,0,0,1-3.633-1.512,4.729,4.729,0,0,1-.714-1.722,15.015,15.015,0,0,1-.209-2.939v-1.029l.021-1.407-.042-2.246-.084-2.31-1.7-.231v-.483Z" fill="#000000"/><path d="M373.556,430.806l1.217-.168.273-.063.126-.147.1-.819.084-2.037.042-3.212.042-3.024-.021-1.511-.063-1.491-.546-.084-.881-.084v-.483l.881.021h1.659l.756-.021,1.47,1.848,1.511,1.826,1.512,1.827c1.7,1.995,3.3,3.737,4.619,5.165l-.063-2.33-.147-3.57v-.588l-.063-1.448-.21-1.7a.393.393,0,0,0-.168-.294l-.273-.105-1.343-.168v-.462l2.33.042h.9l1.407-.042v.462l-1.155.168-.252.063-.147.147a2.84,2.84,0,0,0-.126.672l-.042,1.239-.063,3.863v2.309l.021,1.218.021,1.323v.672a5.426,5.426,0,0,0,.042.672l.084.882-1.113-.042-2.036-2.52-1.848-2.247-1.68-1.952q-2.329-2.678-4.346-4.724l.21,7.033.021.924.021.819.021.567.168,1.029a.5.5,0,0,0,.126.294l.315.105,1.2.147v.483l-.882-.021-1.449-.021-1.406.021-.861.021Z" fill="#000000"/><path d="M391.279,420.686l.315-1.3a6.151,6.151,0,0,0,.126-1.323l1.029-.357,1.007-.42a10.427,10.427,0,0,1-2.771,5.4l-.735.147A8.42,8.42,0,0,0,391.279,420.686Z" fill="#000000"/><path d="M407.029,429.945l.21-1.365h.483v.084a2.743,2.743,0,0,0,.462,1.806,2.236,2.236,0,0,0,1.658.5,2.045,2.045,0,0,0,2.268-2.058c0-.777-.672-1.428-2-1.974l-.63-.252c-1.427-.5-2.267-1.469-2.267-2.414,0-1.743,1.511-2.919,3.842-2.919h.777l.8.1.525.063.525.126-.315,1.134-.168,1.071h-.5l-.147-.84a1.393,1.393,0,0,0-.63-.756,2.472,2.472,0,0,0-1.2-.336,1.626,1.626,0,0,0-1.2.42,1.4,1.4,0,0,0-.483,1.092,1.361,1.361,0,0,0,.4,1.008,3.5,3.5,0,0,0,.651.42,14.8,14.8,0,0,0,1.533.63c1.512.525,2.373,1.259,2.373,2.666a2.9,2.9,0,0,1-1.365,2.478,6.064,6.064,0,0,1-3.549.945h-.566l-.8-.105-.42-.042-.567-.147Z" fill="#000000"/><path d="M423.241,417.725h2.036l1.218-.021,1.638,3.989.9,2.142,1.217,2.624L431.471,429l1.911-3.884,1.533-3.213c.86-1.952,1.469-3.359,1.784-4.22l2.226.042h.777l.777-.021v.441l-1.071.105c-.336,0-.5.231-.5.756l.021,1.407.1,2.414.21,4.052.063,1.638.105,1.2a1.067,1.067,0,0,0,.357.735,5.491,5.491,0,0,0,1.448.336v.5l-1.049-.021-1.638-.021-1.617.021-.966.021-.021-.5,1.26-.21.021-1.407.021-.945-.063-2.33-.042-1.827v-1.05l-.084-.672-.231-2.624-2.477,5.228-2.814,6.383h-1.386L426.978,424q-1.134-2.583-2.016-4.346l-.084.042-.147,4.325-.042,1.449-.042,1.2-.209,3.759,1.616.357v.5l-1.134-.042-1.112-.021-1.071.021-1.008.042v-.5l1.323-.252c.1-.042.231-.567.4-1.575l.063-.693.294-2.855a16.4,16.4,0,0,0,.126-1.89l.063-.966.042-1.344.042-1.259-.021-.609-.021-.987-1.638-.168.021-.483Z" fill="#000000"/><path d="M443.757,421.483h.735l1.218-.042-.1.9-.021.756-.042,2.751a17.223,17.223,0,0,0,.126,2.666,3.145,3.145,0,0,0,.483,1.113,2.747,2.747,0,0,0,2.183.966,3.123,3.123,0,0,0,.756-.105l.525-.189.441-.252a2.442,2.442,0,0,0,.609-.525,2.952,2.952,0,0,0,.147-.987v-4.157l.021-.714a2.726,2.726,0,0,0-.147-1.134c-.042-.168-.21-.294-.525-.378l-1.071-.252v-.462h.189l1.89.042h.777l.987-.042-.084.756-.042.945-.042,2.6v3.548a2.531,2.531,0,0,0,.126.945.8.8,0,0,0,.525.336l1.049.231v.483l-.735-.021-1.217-.021-1.176.021-.693.021.021-.294v-.546l-1.092.42-1.008.336-.923.168-.924.063a4.353,4.353,0,0,1-1.68-.315,2.382,2.382,0,0,1-1.365-2.037,18.3,18.3,0,0,1-.105-2.016v-4.031c0-.651-.126-.8-.609-.9l-1.133-.231v-.462Z" fill="#000000"/><path d="M456.063,429.945l.21-1.365h.483v.084a2.743,2.743,0,0,0,.462,1.806,2.239,2.239,0,0,0,1.659.5,2.045,2.045,0,0,0,2.268-2.058c0-.777-.672-1.428-2-1.974l-.63-.252c-1.428-.5-2.268-1.469-2.268-2.414,0-1.743,1.512-2.919,3.843-2.919h.777l.8.1.525.063.525.126-.315,1.134-.168,1.071h-.5l-.147-.84a1.4,1.4,0,0,0-.629-.756,2.472,2.472,0,0,0-1.2-.336,1.626,1.626,0,0,0-1.2.42,1.4,1.4,0,0,0-.483,1.092,1.361,1.361,0,0,0,.4,1.008,3.5,3.5,0,0,0,.651.42,14.8,14.8,0,0,0,1.533.63c1.511.525,2.372,1.259,2.372,2.666a2.9,2.9,0,0,1-1.365,2.478,6.058,6.058,0,0,1-3.548.945h-.567l-.8-.105-.42-.042-.566-.147Z" fill="#000000"/><path d="M464.568,430.827l.966-.189a1.177,1.177,0,0,0,.441-.147.7.7,0,0,0,.168-.231l.063-.84.021-1.974-.021-3.3v-1.029a1.316,1.316,0,0,0-.042-.336c0-.357-.273-.588-.693-.672l-.987-.189v-.483l1.134.042h1.47l1.218-.042-.126,2.184-.021,3,.021,2.562.042,1.071.189.231.4.147,1.007.189v.462l-.944-.021-1.617-.021-1.638.021-1.05.021Zm2.52-14.362a1.171,1.171,0,0,1,.861.336,1.266,1.266,0,0,1,.336.84,1.122,1.122,0,0,1-1.239,1.134,1.245,1.245,0,0,1-1.092-.609,1.886,1.886,0,0,1-.105-.546A1.149,1.149,0,0,1,467.088,416.465Z" fill="#000000"/><path d="M478.763,430.218l-.987.588-.966.42a6.1,6.1,0,0,1-1.932.315c-2.771,0-4.157-1.638-4.157-4.893a5.282,5.282,0,0,1,1.428-3.863,5.03,5.03,0,0,1,3.758-1.449,10.2,10.2,0,0,1,1.344.126l1.05.189.735.147-.63,2.6h-.441v-.168a2.3,2.3,0,0,0-.672-1.68,2.779,2.779,0,0,0-1.827-.609c-1.763,0-2.561,1.218-2.561,4.1s1.239,4.6,3.191,4.6c.588,0,.861.021,2.667-.924Z" fill="#000000"/><path d="M497.977,417.452l.462.126-.378,1.7-.231,1.491h-.462l-.105-1.029c-.042-.4-.441-.8-1.176-1.2a4.9,4.9,0,0,0-2.351-.609,4.593,4.593,0,0,0-3.695,1.617,6.33,6.33,0,0,0-1.365,4.22,7.507,7.507,0,0,0,1.616,5.018,5.387,5.387,0,0,0,4.284,1.869,5.584,5.584,0,0,0,3.506-1.155l.231.462a8.255,8.255,0,0,1-5,1.6,6.84,6.84,0,0,1-5-1.827,6.649,6.649,0,0,1-1.869-4.955,7.146,7.146,0,0,1,2.142-5.417,8.113,8.113,0,0,1,5.837-2.058,10.623,10.623,0,0,1,1.469.126l.735.105,1.092.231Z" fill="#000000"/><path d="M499.827,426.669a4.959,4.959,0,0,1,1.574-3.821,6.015,6.015,0,0,1,4.263-1.47c3.024,0,4.619,1.617,4.619,4.536a5.4,5.4,0,0,1-1.658,4.052,5.933,5.933,0,0,1-4.305,1.6C501.549,431.562,499.827,429.714,499.827,426.669Zm3,2.856A2.677,2.677,0,0,0,505.16,431c1.848,0,3.024-1.617,3.024-4.221a6.114,6.114,0,0,0-.9-3.506,2.63,2.63,0,0,0-2.246-1.365c-1.785,0-3.087,1.449-3.087,3.7A7.658,7.658,0,0,0,502.829,429.525Z" fill="#000000"/><path d="M512.112,416.444H513.2l1.3-.021.756-.021-.126,4.116-.042,4.976.021,3.254.063,1.512.189.231.4.147,1.007.189v.462l-.945-.021-1.6-.021-1.658.021-1.05.021v-.462l.966-.189c.483-.084.546-.147.63-.462a7.312,7.312,0,0,0,.064-1.281l.02-2.939-.02-5.669v-1.512a5.177,5.177,0,0,0-.064-1.029c0-.42-.126-.483-.692-.672l-1.008-.189v-.462Z" fill="#000000"/><path d="M518.286,416.444h1.092l1.3-.021.756-.021-.126,4.116-.042,4.976.021,3.254.063,1.512.189.231.4.147,1.008.189v.462l-.945-.021-1.6-.021-1.658.021-1.05.021v-.462l.966-.189c.482-.084.546-.147.63-.462a7.355,7.355,0,0,0,.063-1.281l.021-2.939-.021-5.669v-1.512a5.2,5.2,0,0,0-.063-1.029c0-.42-.126-.483-.692-.672l-1.008-.189v-.462Z" fill="#000000"/><path d="M532.271,430.218a7.069,7.069,0,0,1-3.948,1.386c-2.54,0-4.031-1.848-4.031-4.893,0-3.338,1.827-5.333,4.935-5.333a2.951,2.951,0,0,1,1.931.462,3.461,3.461,0,0,1,.693.693,2.7,2.7,0,0,1,.587,1.764l-6,1.827a5.323,5.323,0,0,0,1.259,3.611,2.692,2.692,0,0,0,2.226.924c.756-.042.966.063,2.288-.945Zm-2-6.257a1.968,1.968,0,0,0-.566-1.344,1.833,1.833,0,0,0-1.344-.588c-1.2,0-2.037,1.05-2.037,2.814l.064.441c.02.063.1.126.252.168h.084l3.043-.966C530.129,424.339,530.275,424.213,530.275,423.961Z" fill="#000000"/><path d="M541.656,430.218l-.986.588-.966.42a6.1,6.1,0,0,1-1.932.315c-2.771,0-4.157-1.638-4.157-4.893a5.282,5.282,0,0,1,1.428-3.863,5.03,5.03,0,0,1,3.758-1.449,10.2,10.2,0,0,1,1.344.126l1.05.189.735.147-.63,2.6h-.441v-.168a2.3,2.3,0,0,0-.671-1.68,2.782,2.782,0,0,0-1.828-.609c-1.763,0-2.561,1.218-2.561,4.1s1.238,4.6,3.191,4.6c.588,0,.862.021,2.666-.924Z" fill="#000000"/><path d="M548.944,431.058l-.692.189-.735.126-.714.042a2.015,2.015,0,0,1-1.869-.945,7.573,7.573,0,0,1-.567-3.507l.022-1.133.02-1.512v-.756l-.042-1.281-1.3-.21-.272-.042v-.462l1.6-.084-.043-.986-.041-1.533,1.8-1.47.4.042-.148,1.806-.062,1.512.021.335v.315l3.842.042v.4l-3.842.483v.315l-.043,2.415a14.7,14.7,0,0,0,.42,4.325,1.576,1.576,0,0,0,1.575,1.092l.484-.042.377-.126.357-.147.063.546Z" fill="#000000"/><path d="M550.961,430.827l.966-.189a1.171,1.171,0,0,0,.44-.147.684.684,0,0,0,.168-.231l.064-.84.02-1.974-.02-3.3v-1.029a1.316,1.316,0,0,0-.042-.336c0-.357-.274-.588-.694-.672l-.986-.189v-.483l1.134.042h1.469l1.218-.042-.126,2.184-.021,3,.021,2.562.042,1.071.189.231.4.147,1.008.189v.462l-.944-.021-1.618-.021-1.637.021-1.05.021Zm2.519-14.362a1.175,1.175,0,0,1,.862.336,1.271,1.271,0,0,1,.336.84,1.123,1.123,0,0,1-1.24,1.134,1.243,1.243,0,0,1-1.091-.609,1.886,1.886,0,0,1-.105-.546A1.148,1.148,0,0,1,553.48,416.465Z" fill="#000000"/><path d="M557.135,426.669a4.957,4.957,0,0,1,1.575-3.821,6.014,6.014,0,0,1,4.263-1.47c3.023,0,4.619,1.617,4.619,4.536a5.4,5.4,0,0,1-1.659,4.052,5.931,5.931,0,0,1-4.3,1.6C558.857,431.562,557.135,429.714,557.135,426.669Zm3,2.856a2.675,2.675,0,0,0,2.331,1.47c1.847,0,3.023-1.617,3.023-4.221a6.13,6.13,0,0,0-.9-3.506,2.632,2.632,0,0,0-2.247-1.365c-1.784,0-3.086,1.449-3.086,3.7A7.658,7.658,0,0,0,560.138,429.525Z" fill="#000000"/><path d="M568.832,430.827l1.05-.21a.876.876,0,0,0,.546-.378,3.5,3.5,0,0,0,.126-1.176l-.021-.756v-.966l-.021-1.805-.022-1.848v-.483a1.26,1.26,0,0,0-.168-.8.819.819,0,0,0-.524-.273l-1.028-.231v-.462h.1l1.848.042h.735l1.133-.042-.041.609-.022.63v.42a6.015,6.015,0,0,1,4.094-1.722c1.932,0,2.856.882,2.856,2.814l-.041,1.239-.043,2.393V429.9c0,.441.105.567.609.735l1.092.189.021.462-.967-.021-1.616-.021-1.637.021-1.05.021v-.462l.987-.189c.252-.021.566-.21.588-.357l.062-1.2.022-2.667c0-3.023-.672-4.073-2.268-4.073a3.572,3.572,0,0,0-2.079.84c-.588.5-.735.882-.735,1.974v2.5l-.021.987v.735a2.661,2.661,0,0,0,.126.966,1.234,1.234,0,0,0,.5.294l1.03.189v.462l-.946-.021-1.6-.021-1.638.021-1.05.021Z" fill="#000000"/><path d="M591.531,429.4l-1.2-2.982-.692-1.637-1.114-2.541-1.322-.273v-.5l1.574.063h2.33l1.324-.042v.483l-1.47.252a5.888,5.888,0,0,0,.294,1.05l.546,1.6.714,1.889,1.091,2.667,1.911-4.01c.483-1.05.9-2.121,1.281-3.213l-1.156-.273.043-.441.629.021h1.807l1.2-.063-.042.483-1.07.147-.987,1.764-1.408,2.687-1.826,3.7-.525,1.05-1.2.084Z" fill="#000000"/><path d="M599.891,426.669a4.957,4.957,0,0,1,1.575-3.821,6.012,6.012,0,0,1,4.263-1.47c3.023,0,4.619,1.617,4.619,4.536a5.4,5.4,0,0,1-1.66,4.052,5.928,5.928,0,0,1-4.3,1.6C601.613,431.562,599.891,429.714,599.891,426.669Zm3,2.856a2.675,2.675,0,0,0,2.331,1.47c1.847,0,3.023-1.617,3.023-4.221a6.13,6.13,0,0,0-.9-3.506A2.632,2.632,0,0,0,605.1,421.9c-1.785,0-3.086,1.449-3.086,3.7A7.658,7.658,0,0,0,602.894,429.525Z" fill="#000000"/><path d="M612.176,416.444h1.092l1.3-.021.756-.021-.126,4.116-.042,4.976.021,3.254.063,1.512.189.231.4.147,1.008.189v.462l-.944-.021-1.6-.021-1.659.021-1.05.021v-.462l.966-.189c.483-.084.546-.147.63-.462a7.4,7.4,0,0,0,.062-1.281l.022-2.939-.022-5.669v-1.512a5.231,5.231,0,0,0-.062-1.029c0-.42-.126-.483-.694-.672l-1.008-.189v-.462Z" fill="#000000"/><path d="M619.211,430.218a1.113,1.113,0,0,1,1.2-1.155,1.166,1.166,0,1,1-1.2,1.155Z" fill="#000000"/><path d="M625.8,421.063a3.4,3.4,0,0,1,1.3-2.687,5.141,5.141,0,0,1,3.4-1.113,3.579,3.579,0,0,1,2.435.84,2.668,2.668,0,0,1,.988,2.142c0,1.427-.84,2.624-2.541,3.464a3.562,3.562,0,0,1,2.078.84,3.8,3.8,0,0,1,.777,1.155,3.258,3.258,0,0,1,.21,1.238,4.253,4.253,0,0,1-1.512,3.3,5.532,5.532,0,0,1-3.842,1.344c-2.456,0-4.073-1.344-4.073-3.507,0-1.764,1.049-3.149,3.212-3.926A3.012,3.012,0,0,1,625.8,421.063Zm6.487,6.908c0-2.162-1.112-3.464-2.812-3.464-1.576,0-2.541,1.155-2.541,2.939a3.776,3.776,0,0,0,.818,2.457,2.718,2.718,0,0,0,2.037.966A2.629,2.629,0,0,0,632.291,427.971Zm-.692-5.291a3.7,3.7,0,0,0,.588-2.12,3.087,3.087,0,0,0-.63-1.974,2.146,2.146,0,0,0-1.68-.756,2.1,2.1,0,0,0-1.617.693,2.713,2.713,0,0,0-.588,1.848,3.541,3.541,0,0,0,.693,2.2,2.115,2.115,0,0,0,1.7.9A1.9,1.9,0,0,0,631.6,422.68Z" fill="#000000"/><path d="M278.257,511.657c0,.7-.1,1.107-.7,1.107a4.3,4.3,0,0,0-.5-.1,11.965,11.965,0,0,0-3.62-.4,12.132,12.132,0,0,0-3.016.3,2.487,2.487,0,0,1-.8.1c-.6,0-.9-.3-.9-1.006v-.3c.2-1.608.3-6.032.3-9.651-6.132,4.525-13.17,8.546-13.774,8.546-.4,0-.6-.4-.9-1.407a24.761,24.761,0,0,0-2.615-6.435,1.816,1.816,0,0,1-.4-.905c0-.4.3-.6,1.006-.7a80.075,80.075,0,0,0,16.689-3.921V485.417h-4.524c-3.519,0-9.551.4-11.16.6h-.2a.635.635,0,0,1-.7-.7,4.456,4.456,0,0,1,.2-1,6.063,6.063,0,0,0,.2-1.508,5.226,5.226,0,0,0-.2-1.408,5.216,5.216,0,0,1-.2-1.106c0-.3.1-.6.5-.6.1,0,.3.1.4.1,1.207.2,7.742.7,11.16.7h4.524a79.261,79.261,0,0,0-.3-8.747v-.3c0-.7.2-1,1.106-1h.6c.2,0,.5.1.9.1a21.176,21.176,0,0,0,5.53-.9,3.708,3.708,0,0,1,.9-.2c.6,0,.7.4.7,1.106v.6a109.783,109.783,0,0,0-.5,12.266v15.282c0,3.821.2,10.456.3,12.467Zm-4.122,4.022c-2.614,10.758-11.864,22.924-13.875,22.924-.5,0-.9-.3-1.306-1.207a18.2,18.2,0,0,0-6.234-6.133c-.8-.5-1.106-.906-1.106-1.307,0-.5.6-.9,1.206-1.106,7.34-3.017,13.774-9.049,16.69-14.579.1-.3.5-.4.905-.4,1.408,0,3.72,1.207,3.72,1.709Zm67.06-54.392c-1.91-.2-15.282-.5-19.5-.5h-6.233v4.725c0,1.809.1,6.032.2,7.339v.5c0,.8-.3,1.207-1.709,1.207-2.112-.2-6.837-.2-8.546-.2H289.92c-1.71,0-4.524,0-7.339.1h-.6c-1.106,0-1.508-.2-1.508-.905v-.4c.1-1.408.3-5.53.3-7.742v-4.624h-5.932c-3.922,0-17.494.2-19.706.5h-.4c-.5,0-.7-.2-.7-.6a2.923,2.923,0,0,1,.2-.905,6.063,6.063,0,0,0,.2-1.508,5.918,5.918,0,0,0-.2-1.408,6.113,6.113,0,0,1-.3-1.307.53.53,0,0,1,.6-.6c.2,0,.4.1.6.1,2.312.4,15.784.7,19.806.7h5.832c0-2.01,0-6.836-.2-8.646v-.5c0-1.106.4-1.106,1.911-1.106a33.674,33.674,0,0,0,5.932-.7,3.3,3.3,0,0,1,1-.3c.5,0,.7.4.7,1.106v.4c-.2,2.614-.3,7.139-.3,9.752h16.288v-.1c0-2.212,0-7.038-.2-8.948,0-.3-.1-.5-.1-.7,0-.9.5-.9,1.91-.9a33.95,33.95,0,0,0,6.334-.7,3.054,3.054,0,0,1,1.106-.3c.5,0,.6.4.6,1v.4c-.2,2.815-.3,7.541-.3,10.054v.2h6.133c4.323,0,17.9-.5,19.706-.8h.3a.533.533,0,0,1,.6.6,6.137,6.137,0,0,1-.3,1.106,6.809,6.809,0,0,0-.2,1.508,6.079,6.079,0,0,0,.2,1.509,2.247,2.247,0,0,1,.3,1.005c0,.4-.2.6-.805.6Zm-59.017,54.492c0-.8,2.112-1.407,3.318-1.407.5,0,.905.1,1,.3,6.334,7.741,9.049,18.5,9.049,19.1s-.4,1-1.709,1.106A27.969,27.969,0,0,0,285.5,537.5a3.022,3.022,0,0,1-1.307.4c-.5,0-.7-.3-.7-.8,0-.2.1-.5.1-.7a38.446,38.446,0,0,0,.6-6.837,47.123,47.123,0,0,0-2.011-13.674Zm28.152-4.925c-2.011-.1-5.53-.2-8.848-.2h-7.541c-3.016,0-5.529,0-8.445.1h-.6c-.9,0-1.408-.2-1.408-.805v-.3c.2-1.306.4-5.428.4-7.64V487.729c0-1.81-.1-5.329-.3-6.836,0-.2-.1-.4-.1-.6,0-.6.3-.8.9-.8h.5c1.709.1,4.625.2,8.747.2h7.842a84.094,84.094,0,0,0,9.149-.4h.3c.9,0,1.106.3,1.106,1v.5c-.2,2.413-.3,4.826-.3,6.736v14.78c0,1.809.2,5.831.3,6.936v.5c0,.805-.2,1.107-1.308,1.107Zm-4.223-50.069H289.819v8.646h16.288Zm-3.017,23.727H292.333v21.415H303.09Zm-1.809,31.167c0-.8,2.513-1.709,3.72-1.709,2.714,0,13.573,16.186,13.573,18.8,0,.5-.4.905-1.509,1.207a28.29,28.29,0,0,0-7.942,3.418,2.373,2.373,0,0,1-1.307.5c-.6,0-.7-.6-.7-1.507-.1-7.038-2.715-14.781-5.831-20.511ZM317.568,482.3c0-1.81,0-9.049-.3-10.959v-.5c0-.7.3-1,1.407-1h.4c.3,0,.6.1,1,.1a19.974,19.974,0,0,0,5.127-.805,5.147,5.147,0,0,1,.9-.2c.6,0,.8.4.8,1.006a3.471,3.471,0,0,1-.1.9c-.2,2.011-.5,9.552-.5,11.261v5.932a47.6,47.6,0,0,0,9.652-14.076c.2-.5.5-.9.8-.9s.6.2,1.006.7a14.594,14.594,0,0,0,5.831,3.821,1.139,1.139,0,0,1,.9,1c0,1.508-8.345,8.848-18.2,13.573v7.44c0,2.614.3,4.021,5.53,4.021,6.635,0,7.038-2.513,8.244-11.762,0-.4.7-.6,1.609-.6,1.206,0,2.815.4,2.815,1.106-.4,15.684-1.508,19.5-13.874,19.5-7.24,0-13.071-1-13.071-10.154Zm25.739,49.767c-2.916,1.106-5.128,3.318-6.938,5.228-.7.7-1.106.905-1.508.905-.5,0-.8-.5-1-1.207-2.212-7.238-7.842-14.98-12.266-20.007a.755.755,0,0,1-.2-.4c0-1.006,2.312-2.413,3.418-2.413,2.816,0,19.807,14.679,19.807,16.689C344.614,531.263,344.312,531.665,343.307,532.067Z" fill="#000000"/><path d="M381.809,528.146v8.245c0,.7-.2,1.206-.905,1.206a1.49,1.49,0,0,1-.6-.1,16.489,16.489,0,0,0-4.021-.4,18.355,18.355,0,0,0-3.72.3,5.227,5.227,0,0,1-1.106.2c-.7,0-1.006-.3-1.006-1.006v-.4c.4-2.01.5-12.266.5-15.885l.2-22.219c-5.529,4.524-17.192,12.165-17.8,12.165-.8,0-2.915-2.715-2.915-3.619,0-.2,0-.2.1-.3a93.027,93.027,0,0,0,35.39-47.455h-2.815c-9.552,0-25.136.2-27.347.5h-.3c-.7,0-.8-.3-.8-.7a5.164,5.164,0,0,1,.2-1.106,8.9,8.9,0,0,0,.2-1.709,7.014,7.014,0,0,0-.2-1.608,6.135,6.135,0,0,1-.3-1.308c0-.4.2-.7.8-.7h.4c2.312.4,17.695.8,27.347.8h32.977c10.456,0,25.537-.7,27.346-.905h.2a.529.529,0,0,1,.6.6,6.1,6.1,0,0,1-.3,1.307,4.944,4.944,0,0,0-.1,1.307,10.477,10.477,0,0,0,.1,2.011,3.456,3.456,0,0,1,.3,1.307.635.635,0,0,1-.7.7h-.2c-2.011-.2-16.891-.5-27.146-.5H399.1c-4.424,10.858-9.552,19.706-15.886,27.247h35.189a139.725,139.725,0,0,0,16.287-.6,3.8,3.8,0,0,1,1.006-.1c.6,0,.7.2.7,1.106v.6c-.1,3.117-.2,7.742-.2,11.16V520.1c0,3.719,0,14.076.3,15.483a2.769,2.769,0,0,1,.1.9.8.8,0,0,1-.905.906,3.761,3.761,0,0,1-1.006-.1,19.115,19.115,0,0,0-3.719-.3,17.687,17.687,0,0,0-4.223.4,6.618,6.618,0,0,1-1.106.2.8.8,0,0,1-.905-.906,2.479,2.479,0,0,1,.1-.8,66.672,66.672,0,0,0,.3-7.742Zm43.332-36.294H381.909l-.1,30.664h43.332Z" fill="#000000"/><path d="M473.4,537.295c0,.905-.2,1.308-.805,1.308a5.051,5.051,0,0,1-1.407-.3,11.221,11.221,0,0,0-2.715-.3,19.815,19.815,0,0,0-3.418.4,6.537,6.537,0,0,1-1.106.2c-.6,0-.8-.3-.8-.906,0-.3.1-.7.1-1.207.2-4.523.4-17.292.4-22.118V475.866h-.2c-2.916,0-9.551.2-11.059.5h-.3c-.6,0-.8-.3-.8-.6a3.546,3.546,0,0,1,.2-1,7.038,7.038,0,0,0,.2-1.609,6.868,6.868,0,0,0-.2-1.508,6.113,6.113,0,0,1-.3-1.307.53.53,0,0,1,.6-.6c.2,0,.4.1.6.1a83.787,83.787,0,0,0,11.159.8h.1v-8.143c0-12.467-.1-14.478-.3-15.785,0-.3-.1-.5-.1-.7,0-.7.3-.8,1.006-.8h1.608a18.719,18.719,0,0,0,6.033-.905,3.082,3.082,0,0,1,.8-.2c.6,0,.8.4.8,1.206v.6c-.3,3.318-.4,12.266-.4,16.59v8.143a67.141,67.141,0,0,0,9.049-.8c.1,0,.2-.1.3-.1.4,0,.5.3.5.6a6.232,6.232,0,0,1-.3,1.106,8.165,8.165,0,0,0-.2,1.809,4.648,4.648,0,0,0,.2,1.408,2.26,2.26,0,0,1,.3,1.006.635.635,0,0,1-.7.7h-.2a83.141,83.141,0,0,0-8.948-.5v38.305c0,5.227,0,18.1.3,22.621Zm59.72-8.244c0,8.244-7.64,8.948-10.959,8.948a30.924,30.924,0,0,1-13.171-3.318c-.3-.1-.4-.5-.4-1,0-1.308.9-3.419,1.81-3.419h.1a24.063,24.063,0,0,0,7.741,1.509c3.218,0,5.531-1.207,5.531-5.329V513.668H501.346c-4.726,0-19.3.3-20.712.5a4.382,4.382,0,0,0-.5.1c-.6,0-.7-.3-.7-.7a2.505,2.505,0,0,1,.1-.8,3.442,3.442,0,0,0,.2-1.509,2.98,2.98,0,0,0-.2-1.407,7.473,7.473,0,0,1-.2-1.206c0-.4.1-.6.6-.6.2,0,.4.1.6.1,1.709.4,16.187.6,20.812.6h22.421c0-1.509-.1-3.016-.2-4.222v-.5c0-.7.3-.805,1-.805h1.409a22.408,22.408,0,0,0,5.629-.8,5.166,5.166,0,0,1,.905-.2c.5,0,.7.3.7.9v.3c-.1,1.709-.2,3.52-.2,5.229,5.63-.1,12.266-.3,13.171-.6.1,0,.2-.1.3-.1.4,0,.5.3.5.6a5.145,5.145,0,0,1-.2,1.105,6.771,6.771,0,0,0-.2,1.409,7.79,7.79,0,0,0,.2,1.608,3.56,3.56,0,0,1,.2,1c0,.3-.1.5-.6.5h-.3c-.9-.1-7.44-.3-13.07-.4v6.937c0,2.011,0,5.127.1,7.741Zm8.446-29.257c0,1.105-.5,1.307-2.011,1.307-1.81,0-8.043-.1-10.657-.1H497.022c-8.244,0-9.048,0-10.154.1h-.5c-.905,0-1.407-.3-1.407-1.106v-.2a56.355,56.355,0,0,0,.4-6.435v-18.3a59.688,59.688,0,0,0-.3-6.133v-.5c0-.7.3-.9,1-.9h.5c1.81.1,6.636.2,10.255.2h11.362v-6.435h-7.541c-4.826,0-16.79.3-18.3.5h-.4c-.5,0-.7-.2-.7-.6a2.917,2.917,0,0,1,.2-.905,7.791,7.791,0,0,0,.2-1.609,4.442,4.442,0,0,0-.2-1.307,2.981,2.981,0,0,1-.4-1.106c0-.3.2-.6.8-.6a4.362,4.362,0,0,0,.5.1c1.91.3,13.573.7,18.4.7h7.441c0-3.016,0-7.44-.2-9.853v-.5c0-.9.3-.9,1.307-.9h.9a22.821,22.821,0,0,0,5.932-.7,3.1,3.1,0,0,1,.8-.2q.6,0,.6,1.206v.5c-.2,2.916-.4,7.339-.4,10.456h9.551c1.508,0,3.921,0,6.535-.1a33.277,33.277,0,0,0-11.662-7.239c-.1,0-.1-.1-.1-.3,0-.7.9-3.016,1.709-3.016,5.932.7,16.991,2.815,16.991,4.424,0,.2-.2.4-.5.7a14.555,14.555,0,0,0-3.719,5.328c4.423-.2,8.646-.4,9.45-.5h.3c.4,0,.5.2.5.5a3.562,3.562,0,0,1-.2,1.006,6.236,6.236,0,0,0-.1,1.507,5.787,5.787,0,0,0,.1,1.408,2.237,2.237,0,0,1,.3,1.006c0,.4-.2.6-.805.6h-.2c-1.609-.2-13.975-.5-18.5-.5h-9.651v6.435h11.662a86.477,86.477,0,0,0,11.562-.6h.4c.6,0,.8.2.8,1v.6c-.1,2.111-.2,4.323-.2,6.938v17.393c0,2.413.1,5.128.2,6.434Zm-38.306,31.368A40.634,40.634,0,0,0,490.085,518.9a.369.369,0,0,1-.1-.3c0-.906,1.407-3.017,2.212-3.017.5,0,18.9,5.43,18.9,8.144a1.547,1.547,0,0,1-.6,1.106,17.7,17.7,0,0,0-4.927,6.133c-.4.8-.8,1.206-1.1,1.206C504.061,532.167,503.658,531.766,503.256,531.162Zm4.927-58.715H494.106v9.35h14.077Zm0,14.076H494.106v9.751h14.077Zm24.129-14.076H517.131v9.35h15.181Zm0,14.076H517.131v9.751h15.181Z" fill="#000000"/><path d="M579.963,537.5c0,.9-.1,1.107-.7,1.107a11.44,11.44,0,0,1-1.407-.2,11.834,11.834,0,0,0-2.715-.3,17.712,17.712,0,0,0-3.418.4,6.5,6.5,0,0,1-1.107.2c-.6,0-.8-.3-.8-.9,0-.3.1-.7.1-1.107.1-3.719.4-17.393.4-21.615v-9.853c-3.519,1.809-11.663,5.731-12.769,5.731-.5,0-.7-.4-1-1.408a24.978,24.978,0,0,0-3.821-7.238,3.128,3.128,0,0,1-.5-1.107c0-.5.4-.6,1-.7a173.329,173.329,0,0,0,17.092-4.424V470.939h-6.737c-1.709,6.636-6.334,20.108-8.143,20.108-1.106,0-3.117-1.005-3.117-1.609v-.1c3.016-8.345,4.725-22.722,4.725-32.575,0-1.508,0-2.916-.1-4.223v-.4c0-.6.2-.8.6-.8a2.493,2.493,0,0,1,.8.1,12.475,12.475,0,0,0,2.715.3,32.751,32.751,0,0,0,4.523-.4h.4c.7,0,.906.4.906,1.006a121.127,121.127,0,0,1-2.112,13.473h5.53v-3.419c0-3.117-.1-13.171-.4-16.086v-.5c0-.7.2-.9.9-.9h1.307a24.188,24.188,0,0,0,6.435-.9,3.123,3.123,0,0,1,.8-.2c.6,0,.7.4.7,1.207v.6c-.2,3.117-.4,13.774-.4,16.79v3.419a86.6,86.6,0,0,0,8.747-.7h.2a.533.533,0,0,1,.6.6,5.273,5.273,0,0,1-.3,1.206,4.348,4.348,0,0,0-.2,1.207,4.672,4.672,0,0,0,.2,1.407,6.137,6.137,0,0,1,.3,1.307c0,.3-.2.6-.7.6h-.2c-1.308-.1-5.43-.4-8.647-.5v21.817c4.122-1.508,8.043-3.217,11.863-5.027h.1c.7,0,1.81,2.212,1.81,3.117,0,1.006-12.87,8.747-13.774,9.25v14.88c0,3.619.1,18,.3,21.917Zm30.765-9.049a27.1,27.1,0,0,0,8.847,1.81c10.456,0,13.976-5.63,13.976-51.576,0-3.921-.1-8.044-.1-12.468h-4.524c-2.816,28.855-8.747,51.075-35.993,67.765-.1.1-.2.1-.4.1-1.006,0-2.715-1.81-2.715-2.815,0-.2,0-.4.2-.5,21.415-16.187,27.95-37.1,29.458-64.547h-4.826c-4.022,21.014-9.853,34.084-26.744,47.656a.367.367,0,0,1-.3.1c-.8,0-2.816-1.709-2.816-2.715a.763.763,0,0,1,.2-.4c12.668-12.568,18.1-25.638,20.712-44.641h-4.927c-5.228,11.965-11.762,20.008-12.466,20.008-.906,0-3.118-1.206-3.118-1.91,0-.1.1-.1.1-.2,6.837-11.06,10.255-30.263,10.355-38.708,0-.8.2-1.307.805-1.307a3.053,3.053,0,0,1,1.107.3,25.363,25.363,0,0,0,6.233.7c.8,0,1.608-.1,2.313-.1h.2c.9,0,1.106.3,1.106.9,0,1.509-2.413,9.451-4.725,15.584h25.134a113.3,113.3,0,0,0,14.278-.9h.6c.5,0,.6.2.6,1.609,0,2.916-.1,5.831-.1,8.345,0,28.251-.5,38.808-1.407,47.052-1.81,16.087-9.652,19.3-18,19.3a31.676,31.676,0,0,1-14.88-3.921,1.237,1.237,0,0,1-.5-1c0-1.408,1.106-3.52,2.111-3.52Z" fill="#000000"/><path d="M689.346,467.319c-1.61-.2-9.351-.5-13.071-.5H666.021c-3.017,0-10.659.3-12.066.5h-.4c-.6,0-.8-.3-.8-.7a4.514,4.514,0,0,1,.3-1.106,7.81,7.81,0,0,0,.2-1.508,4.484,4.484,0,0,0-.2-1.307,6.127,6.127,0,0,1-.3-1.307c0-.4.1-.7.6-.7.2,0,.4.1.6.1,1.709.3,9.049.6,12.066.6h10.254c3.62,0,11.663-.5,13.171-.7h.2c.4,0,.6.3.6.7a5.238,5.238,0,0,1-.2,1.106,5.718,5.718,0,0,0-.1,1.407,6.184,6.184,0,0,0,.1,1.508,3.6,3.6,0,0,1,.2,1.006c0,.5-.2.9-.8.9Zm-1.91,58.314c.1,3.72.2,8.345.3,9.752,0,.3.1.6.1.8,0,.7-.2.8-.6.8a7.253,7.253,0,0,1-1.307-.1,25.85,25.85,0,0,0-3.217-.2,13.3,13.3,0,0,0-3.017.3,4.4,4.4,0,0,1-1,.2c-.5,0-.7-.4-.7-.9,0-.3.1-.7.1-1.106.1-1,.1-2.916.1-5.028H666.623c0,2.413.1,4.826.1,5.933,0,1.407-.2,1.608-.6,1.608a1.973,1.973,0,0,1-.7-.1,16.835,16.835,0,0,0-6.837-.1,3.483,3.483,0,0,1-1.206.3c-.4,0-.6-.2-.6-1.006v-.3c.1-2.011.3-9.953.3-13.673V510.954c0-2.212,0-6.033-.2-8.044v-.3c0-.7.3-.9,1-.9h.6c2.816.2,6.636.2,9.954.2h7.641a84.947,84.947,0,0,0,10.155-.4h.7c.5,0,.7.1.7.7,0,.3-.1.6-.1,1-.2,2.413-.2,4.927-.2,7.642v13.169l.3-.3c4.926-4.926,8.245-13.673,8.948-23.024,0-.3.7-.4,1.509-.4,1.306,0,2.915.3,2.915.8v1.307c0,16.79-3.82,29.759-5.429,29.759-.3,0-.6-.3-1.006-.8a18.938,18.938,0,0,0-6.736-5.429Zm-1.006-45.042c-1.508-.2-7.139-.5-10.255-.5h-8.144c-2.815,0-8.144.3-9.552.5h-.3c-.7,0-.9-.3-.9-.7a3.634,3.634,0,0,1,.2-1.106,5.07,5.07,0,0,0,.2-1.206,5.906,5.906,0,0,0-.2-1.307c0-.4-.2-.9-.2-1.408,0-.4.1-.7.7-.7a4.3,4.3,0,0,0,.5.1,64.522,64.522,0,0,0,9.653.7h7.942c3.016,0,9.15-.5,10.456-.7h.2c.5,0,.6.2.6.6a5.061,5.061,0,0,1-.2,1.206,7.128,7.128,0,0,0-.1,1.609,3.755,3.755,0,0,0,.1,1.106,2.293,2.293,0,0,1,.3,1.106c0,.4-.2.7-.805.7Zm.2,12.869c-1.508-.2-7.239-.5-10.356-.5h-8.143c-2.816,0-8.145.3-9.552.5h-.4a.635.635,0,0,1-.7-.7,4.264,4.264,0,0,1,.2-1.106,3.788,3.788,0,0,0,.1-1.106,7.157,7.157,0,0,0-.1-1.407,7.014,7.014,0,0,1-.3-1.408c0-.4.1-.6.6-.6a1.269,1.269,0,0,1,.6.1,64.5,64.5,0,0,0,9.651.7h7.944a87.258,87.258,0,0,0,10.556-.8h.2c.5,0,.6.2.6.6a5.026,5.026,0,0,1-.2,1.207,6.809,6.809,0,0,0-.2,1.508,3.735,3.735,0,0,0,.2,1.206,3.558,3.558,0,0,1,.2,1.006c0,.5-.2.8-.8.8Zm-.6-39.713c-1.507-.2-7.038-.6-10.154-.6h-7.239c-2.815,0-8.144.4-9.551.6h-.4c-.6,0-.805-.3-.805-.7,0-.3.2-.8.2-1.106a7.724,7.724,0,0,0,.2-1.508,5.036,5.036,0,0,0-.2-1.207,6.179,6.179,0,0,1-.3-1.306.636.636,0,0,1,.7-.7,4.369,4.369,0,0,0,.5.1,67.049,67.049,0,0,0,9.752.7h7.139a81.589,81.589,0,0,0,10.255-.805h.2c.5,0,.6.3.6.7a3.6,3.6,0,0,1-.2,1.105,5.787,5.787,0,0,0-.1,1.408,5.364,5.364,0,0,0,.1,1.407,2.615,2.615,0,0,1,.3,1.106c0,.5-.2.805-.8.805Zm-7.741,53.386H666.522v18h11.764Zm64.949-19.2c-1.81-.1-12.266-.5-17.092-.5h-14.88c-4.122,0-14.679.3-16.388.5h-.3c-.7,0-.8-.2-.8-.6a5.208,5.208,0,0,1,.2-1.106,7.156,7.156,0,0,0,.1-1.508,6.692,6.692,0,0,0-.1-1.508,7.069,7.069,0,0,1-.3-1.408c0-.3.1-.6.7-.6a4.407,4.407,0,0,0,.5.1c1.81.4,12.165.705,16.488.705h1.91V466.013h-4.021c-4.725,0-14.88.2-16.589.5h-.3c-.6,0-.8-.3-.8-.7a3.56,3.56,0,0,1,.2-1.006,8.252,8.252,0,0,0,.1-1.609,5.835,5.835,0,0,0-.1-1.407,7,7,0,0,1-.3-1.408c0-.3.1-.6.7-.6a4.407,4.407,0,0,0,.5.1c1.91.4,11.663.7,16.69.7h3.92V458.07c0-2.715-.1-9.049-.3-11.462v-.4c0-.905.3-1.206,1.306-1.206h1.609a22.926,22.926,0,0,0,5.931-.7,1.957,1.957,0,0,1,.7-.1c.6,0,.7.3.7.7a5.283,5.283,0,0,1-.1,1.206c-.3,2.414-.4,8.647-.4,12.065v2.413h5.329c5.026,0,15.985-.5,17.593-.8h.2a.635.635,0,0,1,.7.7,5.216,5.216,0,0,1-.2,1.106,6.532,6.532,0,0,0-.2,1.709,4.648,4.648,0,0,0,.2,1.408,3.581,3.581,0,0,1,.2,1c0,.5-.2.8-.8.8h-.1c-1.709-.2-12.668-.5-17.493-.5h-5.429V482h3.418c4.926,0,15.584-.6,17.192-.805h.2c.4,0,.5.3.5.7a5.216,5.216,0,0,1-.2,1.106,9.771,9.771,0,0,0-.1,1.91,3.787,3.787,0,0,0,.1,1.207,2.622,2.622,0,0,1,.3,1.106c0,.4-.2.7-.8.7Zm-38.708,24.029c0-2.915,0-8.244-.2-9.551,0-.2-.1-.4-.1-.6,0-.6.4-.805,1.306-.805h.5c.4,0,.7.1,1.106.1a13.843,13.843,0,0,0,4.524-.8,5.164,5.164,0,0,1,1.106-.2c.6,0,.8.4.8,1.105v.5c-.2,1.407-.4,7.641-.4,10.356v12.165c0,2.815.5,4.021,5.831,4.021,6.334,0,9.45-.7,10.657-12.467,0-.3.6-.4,1.407-.4,1.409,0,3.419.4,3.419,1a69.836,69.836,0,0,1-1.307,10.657c-1.609,7.54-4.324,9.651-15.283,9.651-11.159,0-13.371-2.915-13.371-11.461Zm4.223-18.5c0-.7,1.91-2.815,2.714-2.815,0,0,10.256,4.122,17.8,10.254.4.3.7.6.7,1.006a2.078,2.078,0,0,1-.905,1.407c-1.307,1.006-2.916,3.118-4.525,6.334-.3.5-.6.906-1,.906-.3,0-.6-.3-.9-.805a46.5,46.5,0,0,0-13.773-16.086A.348.348,0,0,1,708.75,493.46Zm23.426,7.339c0-.6,2.111-1.81,3.317-1.81,2.011,0,13.372,21.315,13.372,24.13,0,.6-.4.9-1.106,1.106-2.011.6-4.825,3.016-7.138,5.429a1.748,1.748,0,0,1-1.106.6q-.755,0-.9-1.206a83.213,83.213,0,0,0-6.434-28.152Z" fill="#000000"/><g id="Dr.Latency_s_Freak_Report" data-name="Dr.Latency’s Freak Report"><path d="M320.737,558.383a11.277,11.277,0,0,1-1.294,5.925,8.618,8.618,0,0,1-1.6,1.939,10.409,10.409,0,0,1-2.243,1.544l-1.544.845a8.362,8.362,0,0,1-3.867,1.055l-.448.027h-.489l-2.269-.079-2.653-.185-2.19-.133-.568.027-.805.026-.9-.58V551.719a4.307,4.307,0,0,0-.079-.95.8.8,0,0,0-.337-.429,2.985,2.985,0,0,0-.9-.258q-.713-.105-1.465-.185l1.465-1.293q.777.132,1.214.159t1.055.026a12.117,12.117,0,0,0,3.972-.646h5.859a12.783,12.783,0,0,1,3.893.567,10.255,10.255,0,0,1,3.272,1.86,8.611,8.611,0,0,1,2.164,3.246,12.637,12.637,0,0,1,.568,2.085A15.208,15.208,0,0,1,320.737,558.383Zm-3.365.594a12.877,12.877,0,0,0-.555-4.026,7.667,7.667,0,0,0-1.57-2.6,6.559,6.559,0,0,0-2.4-1.4,10.824,10.824,0,0,0-3.128-.422h-6.6v16.152l8.155.462.766.026a5.567,5.567,0,0,0,2.3-.409,2.941,2.941,0,0,0,.885-.462,3.149,3.149,0,0,0,.712-.7,4.491,4.491,0,0,0,.581-1.056,11.913,11.913,0,0,0,.462-1.425,18.074,18.074,0,0,0,.29-1.9A21.691,21.691,0,0,0,317.372,558.977Z" fill="#000000"/><path d="M336.765,569.005q-.726.2-1.32.33a4.954,4.954,0,0,1-.95.132,3.265,3.265,0,0,1-2.244-.977,10,10,0,0,1-.95-.976q-.474-.567-.989-1.267l-1.6-2.349q-.541-.9-.818-1a2.064,2.064,0,0,0-.627-.132c-.242-.018-.582-.027-1.022-.027l-.885.027c-.088,0-.132-.035-.132-.106v-.079c.036-.114.08-.233.132-.356l.132,5a1.422,1.422,0,0,0,.106.62.577.577,0,0,1,.33.184,1.787,1.787,0,0,0,.435.053,9.353,9.353,0,0,0,.937.026l-1.135,1.333c-.4-.087-.728-.149-1-.184a5.3,5.3,0,0,0-.653-.053,5.152,5.152,0,0,0-1.042.132l-.661-.237-.079-4.065-.132-4.645-.079-3.682a1.706,1.706,0,0,0-.138-.877.587.587,0,0,0-.429-.2q-.33-.026-.977-.026l.977-1.359,1.6.2a3.991,3.991,0,0,0,1.016-.119A7.392,7.392,0,0,0,325.68,554h2.191a7.819,7.819,0,0,1,3.655.713,2.92,2.92,0,0,1,1.161,1.187,4.218,4.218,0,0,1,.409,1.967,3.669,3.669,0,0,1-.713,2.217,5.071,5.071,0,0,1-1.4,1.438q-.278.212-.488.343c-.071.079-.132.146-.185.2v-.3l.488.541.831,1.055a26.444,26.444,0,0,0,2.164,3.075,4.181,4.181,0,0,0,1.623,1.464l.186.053.105-.053a8.227,8.227,0,0,1,1.056-.052Zm-6.242-10.081q0-2.917-2.837-2.917l-2.375.053v4.671a17.793,17.793,0,0,0,3.022.171Q330.521,560.9,330.523,558.924Z" fill="#000000"/><path d="M341.642,568.768a11.072,11.072,0,0,0-3.84,1.319,13.392,13.392,0,0,0-.106-1.86,18.388,18.388,0,0,0-.554-1.954l1.267-.184a.979.979,0,0,0,.277-.079c.052-.018.123-.044.211-.079l.646-.3q.225-.1.528-.264c.176-.1.511-.317,1-.66a17.752,17.752,0,0,0,.106,2.243A8.869,8.869,0,0,0,341.642,568.768Z" fill="#000000"/><path d="M359.174,564.308l-1.043,5.159H344.4l-.489-17.379a3.417,3.417,0,0,0-.462-2.111,2.27,2.27,0,0,0-.435-.29q-.264-.145-1.029-.462l.607-1.214a10.169,10.169,0,0,0,1.623.184,4.653,4.653,0,0,0,1.108-.132,7.441,7.441,0,0,0,1.214-.382l.726.33.027,6.835.171,6.347.237,5.753a27.415,27.415,0,0,0,4.434.409,15.91,15.91,0,0,0,2.561-.2,18.841,18.841,0,0,0,2.414-.527l.159-.106.184-.435.251-.673Z" fill="#000000"/><path d="M375.822,568.253l-.291,1.293q-.488-.08-1.082-.158-.62-.053-.9-.053-.237,0-.594.026c-.255.018-.581.053-.976.106l-3.352-6.03h-4.513l-1.861,4.407-.026.211.053.145c.088,0,.216-.009.383-.026h1.147l-1.016,1.372q-.594,0-1.649-.053-1.082-.026-1.346-.026l-.554-.766,1.24-2.045.871-1.676.831-1.834.9-2.084a18.076,18.076,0,0,0,1.544-5.384l-.172-.239-.7-1.134,3.418-.225a59.65,59.65,0,0,0,3.615,7.958l1.491,2.718a13.285,13.285,0,0,0,.673,1.227c.2.343.409.673.621.99a4.151,4.151,0,0,0,.976,1.055c.017,0,.1.009.237.027Q375.017,568.108,375.822,568.253Zm-8.129-6.44-1.847-3.721-1.214,3.721Z" fill="#000000"/><path d="M391.15,554.978a3.473,3.473,0,0,0-.514,1.108,5.044,5.044,0,0,0-.172,1.438l-1.227-.435a2.888,2.888,0,0,1,.027-.488.383.383,0,0,1,.105-.185l-4.79-.026.158,10.161a5.95,5.95,0,0,0,.053.864,1.166,1.166,0,0,0,.251.587.749.749,0,0,0,.316.251,11.27,11.27,0,0,0,1.082.369l-.937,1.017q-.3-.093-.791-.2a6.538,6.538,0,0,0-.977-.079,6.43,6.43,0,0,0-1.068.106l-.541-.541q0-.818.026-2.811t.026-2.322l-.052-3.062L382.1,558.3l-.039-1.94h-.238l-1.24-.026a20.669,20.669,0,0,0-2.6.132l-.369.423a2.285,2.285,0,0,1-.278.382,3.618,3.618,0,0,1-.488.356l-.739-.62a6.944,6.944,0,0,0,.634-2.679q1.293,0,2.916.026,1.6.054,3.536.08,1.677,0,2.574-.027,4.459-.132,4.921-.132Z" fill="#000000"/><path d="M403.444,566.432l-.858,2.718-2.032.027-2.507.026-3.009-.053-.369.027-.462.052-1.148.159.026-1.953v-2.4q0-1.32-.079-3.536t-.079-3.088q0-2.4-.356-2.652l-1.161-.014V554.3h2.7a8.062,8.062,0,0,0,1.794-.251l6.084-.079.342.739-.461,1.266c-.036.159-.062.306-.08.443s-.026.429-.026.878h-1.187l-.185-.806-.053-.224-.053-.052a3.556,3.556,0,0,0-1.029-.159q-.845-.054-1.979-.053l-1.623.026h-.383l.119,4.131,6.426-.158q-.317.975-.5,1.623a7.372,7.372,0,0,0-.231,1.135l-1.266.316-.027-.936a.2.2,0,0,1,.027-.08c.017,0,.052.036.105.106l-1.544-.079-2.138-.053h-.7l.132,5.054,4.579.053a4.131,4.131,0,0,0,1.4-.251,1.214,1.214,0,0,0,.131-.053.835.835,0,0,0,.08-.106.87.87,0,0,1,.092-.184q.369-.793.568-1.28Z" fill="#000000"/><path d="M419.775,554l-.131,2.93.052,6.044.053,4.354-.541,3.141q-2.19-1.9-3.7-3.273-1.821-1.649-3.114-2.942-.726-.714-2.455-2.521-2.085-2.164-2.547-2.652l.054,6.849a6.041,6.041,0,0,0,.079,1.042q.092.462.25,1.029l.132.172.08.026.646.238v1.385q-.448-.184-.884-.323a2.761,2.761,0,0,0-.845-.139l-.831.027-.567-.383.132-3.325.052-3.7q0-1.173-.026-2.084t-.053-1.755a6.477,6.477,0,0,0-.079-1.083,4.167,4.167,0,0,0-.3-.843,1.689,1.689,0,0,1-.184-.291,1.262,1.262,0,0,0-.264-.2c-.132-.035-.277-.07-.435-.106q-.278-.026-1.043-.026l.792-1.161a18.15,18.15,0,0,0,2.837-.185q.792,1,1.564,1.92t1.444,1.7l2.917,3.194,3.048,2.916,2.191,2-.515-9.382a1.565,1.565,0,0,0-.264-.951l-.158-.105a.863.863,0,0,0-.3-.079q-.211-.027-.9-.027l.739-1.213h.778l.383.026a2.01,2.01,0,0,0,.541-.053,2.2,2.2,0,0,0,.514-.2Z" fill="#000000"/><path d="M436.371,565.706,435.209,567c-.255.256-.506.484-.752.687s-.453.334-.594.421a10.154,10.154,0,0,1-2.111,1.043,8.334,8.334,0,0,1-2.7.422,10.842,10.842,0,0,1-2.111-.184,8.131,8.131,0,0,1-1.835-.541,5.339,5.339,0,0,1-2.4-1.7,5.142,5.142,0,0,1-.7-1.135,5.645,5.645,0,0,1-.435-1.307,10.017,10.017,0,0,1-.3-1.425,12.592,12.592,0,0,1-.105-1.7,7.3,7.3,0,0,1,.158-1.517,7.579,7.579,0,0,1,.436-1.426,5.261,5.261,0,0,1,1.953-2.362l.62-.449a10.332,10.332,0,0,1,5.648-1.57l3,.2a2.58,2.58,0,0,1,1.438.647q.621.592.832.593l-.08-.277a5.729,5.729,0,0,0-.673,2.191l-1.358,1.478V557.9a2.984,2.984,0,0,0-.053-.648.574.574,0,0,0-.133-.29,1.14,1.14,0,0,0-.646-.3c-.343-.07-.651-.132-.924-.184a13.4,13.4,0,0,0-2.837-.29,9.731,9.731,0,0,0-2.111.211,4.072,4.072,0,0,0-.726.211,3.251,3.251,0,0,0-.62.409,3.063,3.063,0,0,0-.95,1.557,9.454,9.454,0,0,0-.343,2.758,7.189,7.189,0,0,0,.778,3.682,3.954,3.954,0,0,0,2.111,1.781,9.62,9.62,0,0,0,3.432.567,5.731,5.731,0,0,0,1-.066,5.11,5.11,0,0,0,.832-.158,7.8,7.8,0,0,0,.976-.317c.291-.105.5-.184.62-.237a4.884,4.884,0,0,0,.845-.541l.594-.541Z" fill="#000000"/><path d="M451.461,554.226a6.108,6.108,0,0,1-.409,1.372l-.91,2.006a12.534,12.534,0,0,1-.686,1.24q-.344.594-.37.647l-1.57,2.349-1.439,1.781v3.55a2.281,2.281,0,0,0,.225.884c.017.079.094.128.231.145a8.634,8.634,0,0,0,.877.027l-.3,1.438q-.672-.171-1.161-.251a5.093,5.093,0,0,0-.778-.079l-1.412.132-.33-.62v-4.9q-.567-1.029-1.4-2.3-.62-.976-1.557-2.323l-1.082-1.623c-.132-.22-.279-.441-.442-.666l-.455-.627a3.819,3.819,0,0,0-.33-.356,7.451,7.451,0,0,0-.647-.647l-.184-.105-.212-.027-1.082-.026.423-1.254a15.44,15.44,0,0,0,3.325-.29q1.7,2.192,3.009,4.1.779,1.186,1.346,2.164.672,1.134,1.24,2.191l.95-1.294q.41-.567.832-1.253.355-.567.686-1.135a7.371,7.371,0,0,0,.989-3.022l-.026-.158c-.159-.053-.282-.092-.37-.119h-.686l.2-1.4q.621.105,1,.132c.246.035.4.053.449.053a7.954,7.954,0,0,0,1.6-.238Z" fill="#000000"/><path d="M457.817,550.359a3.09,3.09,0,0,1-.7,1.808,22.582,22.582,0,0,1-1.676,1.887l-2.4,2.706-1.557-1.082q.724-.621,1.108-1.01a10.285,10.285,0,0,0,.9-1.089,3.475,3.475,0,0,0,.818-2.138,1.206,1.206,0,0,0-.04-.435l-.211-.33a2.89,2.89,0,0,1-.185-.317q-.079-.132-.409-.818a4.843,4.843,0,0,0,.97-.079,3.285,3.285,0,0,0,.891-.369,2.362,2.362,0,0,0,.541-.489,8.447,8.447,0,0,0,.607-1.055,13.153,13.153,0,0,1,1.082,1.649A2.976,2.976,0,0,1,457.817,550.359Z" fill="#000000"/><path d="M469.978,564.36a4.157,4.157,0,0,1-1.861,3.326l-.263.184a1.328,1.328,0,0,1-.2.185,5.953,5.953,0,0,1-.567.409,6.21,6.21,0,0,1-.541.356,7.117,7.117,0,0,1-.832.357c-.149.052-.384.123-.7.211a3.967,3.967,0,0,1-1.05.132,20.468,20.468,0,0,1-2.626-.211q-.647-.106-1.24-.211a11.45,11.45,0,0,1-1.148-.278l-.369-.593q.21-1,.343-1.9.145-.857.33-2.348l1.029,1.675q0,.871.409,1t.917.271a9.833,9.833,0,0,0,1,.218q.461.078,1.154.158a10.922,10.922,0,0,0,1.194.079q2.508,0,2.508-1.992a2.336,2.336,0,0,0-.779-1.98,3.878,3.878,0,0,0-1.188-.481,7.39,7.39,0,0,0-1.807-.192,8.4,8.4,0,0,1-1.98-.224,7.024,7.024,0,0,1-1.649-.594,3.267,3.267,0,0,1-1.623-3.181,3.312,3.312,0,0,1,.092-.87,3.212,3.212,0,0,1,.264-.779,4.1,4.1,0,0,1,1.148-1.214l1.043-.9a6.391,6.391,0,0,1,.738-.462,4.71,4.71,0,0,1,.831-.238,8.777,8.777,0,0,1,1.6-.105q1.186,0,1.543.026a12.268,12.268,0,0,0,1.32.158,4.665,4.665,0,0,1,1.623.872,1.839,1.839,0,0,0,1.056.382l-.647-.607a11.07,11.07,0,0,0-.383,2.731l-1,.832-.369-1.346c-.079-.273-.128-.426-.145-.461a.661.661,0,0,0-.185-.08c-.105-.034-.2-.071-.29-.106-.115-.017-.335-.053-.66-.1s-.655-.106-.99-.158a10.813,10.813,0,0,0-1.491-.08,5.249,5.249,0,0,0-2.059.343,1.041,1.041,0,0,0-.514,1.056,2.322,2.322,0,0,0,.844,1.967,5.833,5.833,0,0,0,3.128.646,6.4,6.4,0,0,1,3.523,1A3.5,3.5,0,0,1,469.978,564.36Z" fill="#000000"/><path d="M538.634,548.815a6.369,6.369,0,0,0-.62,1.413,6.231,6.231,0,0,0-.172,1.623l-1.214.184a7.347,7.347,0,0,1-.264-.95l-.105-.343a.37.37,0,0,0-.172-.093l-1.754-.052-3.3-.053-1.675-.026v6.056l8.5-.079a18,18,0,0,0-.725,2.072,9.325,9.325,0,0,0-.329,1.492l-1.082.646q-.171-.462-.251-.752a1.99,1.99,0,0,1-.079-.462l-.079-.356-.106-.027q-.355-.053-.739-.079T533.3,559l-2.613-.079H529.5l.312,5.463.081,1.649.159,1.267a1.593,1.593,0,0,0,.3.541,2.3,2.3,0,0,0,.532.158,7.138,7.138,0,0,0,1.068.053l-.515,1.716a14.749,14.749,0,0,0-1.544-.489,6.1,6.1,0,0,0-1.156-.132,6.526,6.526,0,0,0-.907.079q-.538.08-1.565.317l.053-8.379-.027-4.052q0-.672-.053-1.886-.08-1.2-.079-1.492a10.954,10.954,0,0,0-.079-1.359c-.062-.4-.145-.87-.25-1.425q-.054-.251-.106-.567c-.053-.2-.124-.322-.211-.357l-1.36-.29.185-1.491,1.62.106q.975,0,2.6-.159l1.912-.158,7.571-.079Z" fill="#000000"/><path d="M554.2,569.005q-.726.2-1.319.33a4.964,4.964,0,0,1-.95.132,3.26,3.26,0,0,1-2.243-.977,9.781,9.781,0,0,1-.951-.976q-.476-.567-.99-1.267l-1.6-2.349q-.54-.9-.818-1a2.064,2.064,0,0,0-.626-.132q-.363-.027-1.023-.027l-.884.027c-.088,0-.132-.035-.132-.106v-.079a3.5,3.5,0,0,1,.132-.356l.132,5a1.439,1.439,0,0,0,.1.62.57.57,0,0,1,.33.184,1.8,1.8,0,0,0,.436.053,9.328,9.328,0,0,0,.936.026L543.6,569.44c-.4-.087-.728-.149-1-.184a5.286,5.286,0,0,0-.653-.053,5.16,5.16,0,0,0-1.042.132l-.66-.237-.079-4.065-.132-4.645-.079-3.682a1.692,1.692,0,0,0-.139-.877.585.585,0,0,0-.428-.2q-.33-.026-.977-.026l.977-1.359,1.6.2a3.986,3.986,0,0,0,1.016-.119,7.327,7.327,0,0,0,1.108-.317h2.191a7.819,7.819,0,0,1,3.655.713,2.916,2.916,0,0,1,1.162,1.187,4.206,4.206,0,0,1,.408,1.967,3.668,3.668,0,0,1-.712,2.217,5.075,5.075,0,0,1-1.4,1.438q-.277.212-.488.343c-.071.079-.132.146-.185.2v-.3l.488.541.832,1.055a26.323,26.323,0,0,0,2.164,3.075,4.181,4.181,0,0,0,1.623,1.464l.185.053.106-.053a8.2,8.2,0,0,1,1.055-.052Zm-6.242-10.081q0-2.917-2.837-2.917l-2.375.053v4.671a17.793,17.793,0,0,0,3.022.171Q547.96,560.9,547.958,558.924Z" fill="#000000"/><path d="M566.718,566.432l-.859,2.718-2.032.027-2.507.026-3.008-.053-.37.027-.462.052-1.148.159.026-1.953v-2.4q0-1.32-.079-3.536t-.079-3.088q0-2.4-.356-2.652l-1.161-.014V554.3h2.705a8.07,8.07,0,0,0,1.795-.251l6.083-.079.343.739-.462,1.266c-.035.159-.061.306-.079.443s-.026.429-.026.878h-1.188l-.185-.806-.053-.224-.053-.052a3.549,3.549,0,0,0-1.029-.159q-.843-.054-1.979-.053l-1.623.026h-.383l.119,4.131,6.427-.158q-.318.975-.5,1.623a7.155,7.155,0,0,0-.232,1.135l-1.266.316-.027-.936a.2.2,0,0,1,.027-.08c.017,0,.052.036.105.106l-1.544-.079-2.138-.053h-.7l.132,5.054,4.579.053a4.132,4.132,0,0,0,1.4-.251,1.214,1.214,0,0,0,.131-.053.764.764,0,0,0,.079-.106.921.921,0,0,1,.092-.184q.369-.793.568-1.28Z" fill="#000000"/><path d="M583.59,568.253l-.29,1.293q-.489-.08-1.082-.158-.621-.053-.9-.053-.237,0-.593.026c-.256.018-.581.053-.977.106l-3.352-6.03h-4.513l-1.861,4.407-.026.211.053.145c.088,0,.216-.009.383-.026h1.148l-1.017,1.372q-.593,0-1.649-.053-1.083-.026-1.346-.026l-.554-.766,1.24-2.045.871-1.676.832-1.834.9-2.084a18.044,18.044,0,0,0,1.544-5.384l-.17-.239-.7-1.134,3.417-.225a59.775,59.775,0,0,0,3.616,7.958l1.492,2.718a12.828,12.828,0,0,0,.673,1.227q.3.515.62.99a4.17,4.17,0,0,0,.976,1.055c.018,0,.1.009.238.027Q582.785,568.108,583.59,568.253Zm-8.129-6.44-1.848-3.721-1.214,3.721Z" fill="#000000"/><path d="M590.183,568l-1.425,1.359c-.422-.088-.757-.149-1-.184-.273-.035-.444-.053-.515-.053a7.444,7.444,0,0,0-1.386.29l-.593-.409V557.062c0-.43-.009-.745-.027-.943a.732.732,0,0,0-.158-.441.62.62,0,0,0-.27-.133,6.335,6.335,0,0,0-.785-.026l.158-1.267h.541a14.576,14.576,0,0,0,2.678-.2l.489.514v12.787a.453.453,0,0,0,.231.462,1.765,1.765,0,0,0,.613.132A12.241,12.241,0,0,0,590.183,568Zm9.541-.237-.858,1.464-1.148.264a5.616,5.616,0,0,1-1.161.146,2.492,2.492,0,0,1-1.94-.713l-1.756-1.834-2.494-2.573-2.4-2.375-1.109-.594,1.954-1.6h.541a1.667,1.667,0,0,0,.237-.185c.272-.2.5-.373.673-.515a8.068,8.068,0,0,0,.924-.765,7.972,7.972,0,0,0,.672-.673l.78-.726a5.269,5.269,0,0,0,.764-.924,1.433,1.433,0,0,0,.16-.7l-.054.026-.726-.567L593.3,554l.99.119a2.763,2.763,0,0,0,.712-.093,4.846,4.846,0,0,0,.779-.211h1.411q-.843,1.294-1.332,1.98c-.326.449-.6.813-.832,1.1a12.112,12.112,0,0,1-.949,1q-.7.672-1.083,1.029a16.213,16.213,0,0,1-2.6,1.952l6.7,6.717a1.594,1.594,0,0,0,.567.383l.462.052Z" fill="#000000"/><path d="M630.182,568.979a8.765,8.765,0,0,1-2.969.66,4.639,4.639,0,0,1-3.114-1.333,17.63,17.63,0,0,1-2.758-3.273q-.648-.924-1.24-1.807-.807-1.215-1.03-1.544a4.4,4.4,0,0,0-1.266-1.492,5.312,5.312,0,0,0-1.967-.29l-1.98.106.3,6.545a2.239,2.239,0,0,0,.317,1.161,4.779,4.779,0,0,0,.435.237,2.989,2.989,0,0,0,.567.132,7.05,7.05,0,0,0,.753.026l-.212.383a1.357,1.357,0,0,0-.9.489,1.194,1.194,0,0,1-.831.435.508.508,0,0,1-.158-.026,5.806,5.806,0,0,0-1.109-.185,3.159,3.159,0,0,0-.6.053q-.272.053-.917.237l-.752-.29-.093-1.979v-2.217q0-1.465-.053-4.1-.078-2.625-.079-3.3l-.263-6.057a7.065,7.065,0,0,0-.053-.977,1.337,1.337,0,0,0-.232-.534.968.968,0,0,0-.481-.3,12.24,12.24,0,0,0-1.24-.172l.976-1.319a12.417,12.417,0,0,0,2.085.211c.281,0,.559-.009.831-.026a8.591,8.591,0,0,0,.977-.132,8.2,8.2,0,0,0,1.372-.436l1.359-.053h1.782a14.845,14.845,0,0,1,3.616.383,5.776,5.776,0,0,1,1.438.568,4.969,4.969,0,0,1,1.135.976,5.373,5.373,0,0,1,.845,1.451,6.18,6.18,0,0,1,.29,1.954,5.29,5.29,0,0,1-.62,2.48,8.675,8.675,0,0,1-.621.977,6.748,6.748,0,0,1-.739.779,7.314,7.314,0,0,1-.725.626q-.332.245-.752.509l-.541.3.752.859q.408.435.666.745a3.692,3.692,0,0,1,.442.667q.54.857,1.108,1.7.542.831.977,1.4.7.978.884,1.228.435.54.95,1.082a5.259,5.259,0,0,0,1.6,1.293,1.2,1.2,0,0,0,.409.1l.316-.052a2.656,2.656,0,0,1,.673-.079h.436Zm-8.406-14.265q0-4.539-4.354-4.539l-3.643.053v7.178a7.143,7.143,0,0,0,1.65.2q1.214.053,3,.052a8.839,8.839,0,0,0,1.7-.132,2.436,2.436,0,0,0,1.161-.818,1.956,1.956,0,0,0,.383-.831A5.355,5.355,0,0,0,621.776,554.714Z" fill="#000000"/><path d="M642.674,566.432l-.859,2.718-2.032.027-2.507.026-3.008-.053-.37.027-.461.052-1.149.159.026-1.953v-2.4q0-1.32-.079-3.536t-.079-3.088q0-2.4-.356-2.652l-1.161-.014V554.3h2.705a8.07,8.07,0,0,0,1.795-.251l6.083-.079.343.739-.461,1.266c-.036.159-.062.306-.08.443s-.026.429-.026.878H639.81l-.185-.806-.053-.224-.052-.052a3.565,3.565,0,0,0-1.03-.159q-.843-.054-1.979-.053l-1.623.026h-.383l.119,4.131,6.427-.158q-.318.975-.5,1.623a7.269,7.269,0,0,0-.232,1.135l-1.266.316-.027-.936a.2.2,0,0,1,.027-.08c.017,0,.052.036.105.106l-1.544-.079-2.138-.053h-.7l.132,5.054,4.579.053a4.132,4.132,0,0,0,1.4-.251,1.214,1.214,0,0,0,.131-.053.835.835,0,0,0,.08-.106.86.86,0,0,1,.091-.184q.369-.793.568-1.28Z" fill="#000000"/><path d="M654.875,558.383a4.117,4.117,0,0,1-1.729,3.167l-.818.62a3.952,3.952,0,0,1-1.676.976,8.283,8.283,0,0,1-.884.132,11.544,11.544,0,0,1-1.162.053l-1.359-.079.079,4a.959.959,0,0,0,.225.646l.184.053q.027,0,.357.027c.193.017.506.026.936.026l-.752,1.307a8.659,8.659,0,0,0-.91-.132q-.382-.027-.95-.027-.132,0-.462.027t-.871.105l-.594-.3.172-1.492.079-1.451q0-1-.052-2.863-.079-1.848-.08-2.336l-.224-4.236a1.423,1.423,0,0,0-.264-.871q-.052-.078-.33-.132c-.176-.035-.339-.061-.488-.079v-1.162h1.412a10.347,10.347,0,0,0,1.834-.17q.951-.132,1.728-.186c.5-.034.991-.053,1.465-.053a5.938,5.938,0,0,1,3.564.977A3.9,3.9,0,0,1,654.875,558.383Zm-2.521.488q0-2.916-2.785-2.917l-2.507-.053.132,5.319a7.052,7.052,0,0,0,2.191.277,6.256,6.256,0,0,0,.7-.027,8.172,8.172,0,0,1,.95-.2,1.654,1.654,0,0,0,.9-.672A2.83,2.83,0,0,0,652.354,558.871Z" fill="#000000"/><path d="M671.522,561.813q0,4.382-2.968,6.057l-1.082.634a7.433,7.433,0,0,1-3.748,1.135,11.106,11.106,0,0,1-4.223-.687,5.19,5.19,0,0,1-2.461-1.755,7.12,7.12,0,0,1-1.115-2.52q-.132-.751-.237-1.6a11.014,11.014,0,0,1-.132-1.728l-.04-.726q0-3.22,1.715-4.328l2.626-1.637a4.852,4.852,0,0,1,.858-.356,3.673,3.673,0,0,1,.924-.106q.885-.079,2.652-.079a12.116,12.116,0,0,1,2.561.237,6.681,6.681,0,0,1,1.952.832,5.172,5.172,0,0,1,2.151,2.758,10.519,10.519,0,0,1,.409,1.762A13.68,13.68,0,0,1,671.522,561.813ZM668.989,563c0-.483-.018-.975-.052-1.472s-.074-.915-.113-1.253a5.3,5.3,0,0,0-.165-.864,6.634,6.634,0,0,0-.514-1.109,3.821,3.821,0,0,0-1.755-1.485,10.771,10.771,0,0,0-6.585-.138,2.282,2.282,0,0,0-1.307,1.162,6.512,6.512,0,0,0-.488,2.758,11.261,11.261,0,0,0,.462,3.4,4.391,4.391,0,0,0,1.7,2.4,6.011,6.011,0,0,0,3.655.95,8.891,8.891,0,0,0,3.484-.514,2.16,2.16,0,0,0,1.339-1.109,4.841,4.841,0,0,0,.311-1.886Z" fill="#000000"/><path d="M687.63,569.005q-.726.2-1.319.33a4.972,4.972,0,0,1-.951.132,3.26,3.26,0,0,1-2.243-.977,9.89,9.89,0,0,1-.95-.976q-.476-.567-.99-1.267l-1.6-2.349q-.54-.9-.818-1a2.064,2.064,0,0,0-.626-.132q-.363-.027-1.024-.027l-.883.027c-.088,0-.132-.035-.132-.106v-.079a3.5,3.5,0,0,1,.132-.356l.131,5a1.437,1.437,0,0,0,.106.62.573.573,0,0,1,.33.184,1.8,1.8,0,0,0,.435.053,9.353,9.353,0,0,0,.937.026l-1.135,1.333c-.395-.087-.727-.149-1-.184a5.286,5.286,0,0,0-.653-.053,5.16,5.16,0,0,0-1.042.132l-.66-.237-.079-4.065-.132-4.645-.079-3.682a1.692,1.692,0,0,0-.139-.877.585.585,0,0,0-.429-.2c-.22-.017-.546-.026-.976-.026l.976-1.359,1.6.2a3.986,3.986,0,0,0,1.016-.119,7.327,7.327,0,0,0,1.108-.317h2.19a7.821,7.821,0,0,1,3.656.713,2.916,2.916,0,0,1,1.162,1.187,4.218,4.218,0,0,1,.408,1.967,3.668,3.668,0,0,1-.712,2.217,5.075,5.075,0,0,1-1.4,1.438q-.278.212-.489.343c-.07.079-.132.146-.184.2v-.3l.488.541.832,1.055a26.2,26.2,0,0,0,2.164,3.075,4.181,4.181,0,0,0,1.623,1.464l.185.053.1-.053a8.227,8.227,0,0,1,1.056-.052Zm-6.242-10.081q0-2.917-2.837-2.917l-2.375.053v4.671a17.787,17.787,0,0,0,3.021.171Q681.389,560.9,681.388,558.924Z" fill="#000000"/><path d="M703.209,554.978a3.455,3.455,0,0,0-.515,1.108,5.044,5.044,0,0,0-.172,1.438l-1.227-.435a3.037,3.037,0,0,1,.026-.488.393.393,0,0,1,.106-.185l-4.79-.026.159,10.161a5.679,5.679,0,0,0,.053.864,1.156,1.156,0,0,0,.25.587.74.74,0,0,0,.317.251,11.061,11.061,0,0,0,1.082.369l-.937,1.017c-.2-.062-.466-.128-.792-.2a6.525,6.525,0,0,0-.976-.079,6.431,6.431,0,0,0-1.069.106l-.541-.541q0-.818.026-2.811t.026-2.322l-.052-3.062-.027-2.428-.04-1.94h-.237l-1.24-.026a20.68,20.68,0,0,0-2.6.132l-.369.423a2.294,2.294,0,0,1-.277.382,3.723,3.723,0,0,1-.489.356l-.739-.62a6.944,6.944,0,0,0,.634-2.679q1.293,0,2.916.026,1.6.054,3.537.08,1.674,0,2.573-.027,4.459-.132,4.922-.132Z" fill="#000000"/></g><g id="上海_アリス幻樂団" data-name="上海■アリス幻樂団"><path d="M950.646,926.026c0-.309.478-1.037.853-1.037a1.3,1.3,0,0,1,.238.062,3.722,3.722,0,0,1,.579-.077,1.337,1.337,0,0,1,.24.046c.272.062,1.022.124,1.022.511a.294.294,0,0,1-.1.217c-.341.263-.8.325-1.16.558-.375.248-.528.619-.851.882a.4.4,0,0,1-.188.078c-.494-.186-.631-.294-.631-.836Zm14.693.264-6.545-.372a1.06,1.06,0,0,1-.443.062,4.126,4.126,0,0,1-.835-.139,14.471,14.471,0,0,0-1.825.077c-.306.031-.6.186-.9.186-.222,0-.562-.17-.562-.4a.7.7,0,0,1,.17-.542,10.865,10.865,0,0,1,1.892-.867c1.193-.635,1.108-2.369,1.142-3.469.017-.543.205-1.085.205-1.627v-3.019a12.229,12.229,0,0,0-.324-2.215v-.031a.787.787,0,0,1,.665-.682c.375,0,.818.078.9.449a2.783,2.783,0,0,1,.137.651.3.3,0,0,1-.069.2,2.388,2.388,0,0,0-.273,1.177,1.542,1.542,0,0,0,.512,1.13,2.04,2.04,0,0,0,.92.542c.409,0,.818-.078,1.227-.078a7.814,7.814,0,0,1,2.079.248.557.557,0,0,1,.409.511c0,1.038-3.016.666-3.63.837-.392.108-1.278,1.362-1.449,1.734a2.708,2.708,0,0,0-.238,1.364,3.484,3.484,0,0,0,1.227,2.493,1,1,0,0,0,.63.2c.119,0,.256-.016.427-.016.238,0,.46.094.7.094,1.04,0,2.063-.14,3.1-.14.511,0,1.942.093,1.942.712a1.151,1.151,0,0,1-1.073.93Z" fill="#000000"/><path d="M951.481,935.77c-.357,0-.937-.2-.937-.589a1.535,1.535,0,0,1,.273-.743,1.065,1.065,0,0,1,.886-.558c.631-.016,1.262-.062,1.892-.062a.427.427,0,0,1,.426.4C954.021,934.825,952.062,935.77,951.481,935.77Zm1.841,3.7c-.272.527-.7.991-.92,1.534a4.322,4.322,0,0,1-.494,1.13c-.1.124-.187.124-.342.124-.494,0-.783-.743-.783-1.131,0-.588,2.164-3.1,2.829-3.1.17,0,.222.186.222.31a.308.308,0,0,1-.034.17Zm.768-8.348c-.052,0-.1-.03-.154-.03-.665-.109-2.318.093-2.318-.868,0-.651.733-.868,1.329-.868a.644.644,0,0,1,.409.171c.222.2,1.142,1.146,1.142,1.378C954.5,931.046,954.209,931.123,954.09,931.123Zm9.834,4.136c.068-.248-.069-1.255.358-1.255.648,0,.63,1.564.7,1.982.206.2,1.756-.015,1.756,1.054a.63.63,0,0,1-.6.6,2.126,2.126,0,0,1-.307-.078,7.384,7.384,0,0,0-1.006-.062c-.2.248-.187,1.069-.238,1.394a10.792,10.792,0,0,1-.784,2.819,1.7,1.7,0,0,1-1.109.557c-.46,0-1.073-.248-1.635-.248-.819,0-1.62.217-2.438.217a8.4,8.4,0,0,1-2.506-.278,1.627,1.627,0,0,1-.494-1.131c0-.325.1-1.348.6-1.348.546,0,.58.868.681,1.208a4.5,4.5,0,0,0,.461.047,2.346,2.346,0,0,0,1.755-1.409c.069-.264-.034-1.022.409-1.022.273,0,.325.386.325.727,0,.171-.018.325-.018.4a1.362,1.362,0,0,0,1.381,1.363c.887,0,1.891-.573,1.891-1.455,0-.124-.034-.264-.034-.388,0-.217.069-.418.069-.635,0-.914-.954-1.3-1.824-1.3a1.908,1.908,0,0,0-1.227.573c0,.108-.119.31-.256.31a.32.32,0,0,1-.222-.124c-.375-.449-.357-.372-.851-.635a.278.278,0,0,0-.154-.031c-2.42,0-1.38,1.069-2.4,1.812a.265.265,0,0,1-.153.062c-.239,0-.307-.418-.307-.589a.816.816,0,0,1,.221-.634c-.068-.186-.238-.434-.477-.434-.29,0-.562.14-.852.14-.222,0-.733-.171-.733-.419v-.046l.119-.558c.069-.325.614-.372,1.04-.372h.29c.306-.2.766-.108,1-.418.341-.433.426-2.246,1.142-2.246.153,0,.239.341.239.449,0,.388-.273.79-.273,1.224.153.3-.051.465.29.9.341.032.665.077,1.006.077a7.383,7.383,0,0,0,.835-.077c.153-.386.443-.712.631-1.084l-.307-.914c-.393-.4-1.278-.278-1.278-.991a.418.418,0,0,1,.2-.387,6.109,6.109,0,0,1,2.01-.449c.512,0,1.006.062,1.518.062a1.836,1.836,0,0,1,1.4.589c.1.092.238.2.238.356,0,.2-.494.572-.7.572a12.962,12.962,0,0,0-1.347-.278c-.563,0-1.125.232-1.142.806a1.436,1.436,0,0,1-.051.463l-.136.357c.085.7.869.883,1.516.883.392,0,.785-.062,1.176-.077Zm-.2-5.994c.391,0,1.431.171,1.431.634,0,.605-.937.745-1.449.745a8.129,8.129,0,0,1-2.2-.341c-.478.108-1.024-.032-1.483.185a.7.7,0,0,1-.324.093h-.034l-.477-.077-.955.2c-.1.016-1.875,2.215-2.983,2.215a.7.7,0,0,1-.664-.619c0-1.488,2.692-.914,3-3.068a3.309,3.309,0,0,1-.272-.743c0-.262.784-.727,1.056-.727a1.17,1.17,0,0,1,.887.82,2.028,2.028,0,0,1-.1.465c.035.232-.034.465.188.619l4.261-.4Z" fill="#000000"/><path d="M965.321,948.1a1.186,1.186,0,0,0-.034.263c0,.14.018.294.018.465a1.364,1.364,0,0,1-.256.913.522.522,0,0,0-.051.28,12.928,12.928,0,0,0,.494,2.477,2.294,2.294,0,0,1,.034.465,10.347,10.347,0,0,1-.255,2.524.487.487,0,0,0-.052.2c0,.216.136.4.136.666a.672.672,0,0,1-.016.17c-.1.45-.359.6-.58.6a.283.283,0,0,1-.119-.015,21.48,21.48,0,0,0-2.574-.279,1.135,1.135,0,0,0-.29.031,8.309,8.309,0,0,1-1.636.186A1.551,1.551,0,0,1,959.7,957a4.574,4.574,0,0,0-.75-.232c-.681,0-1.21.248-1.721.248A1.033,1.033,0,0,1,957,957a8.577,8.577,0,0,0-1.415-.123c-.886,0-1.363.154-1.687.154a.66.66,0,0,1-.171-.015,1.449,1.449,0,0,0-.375-.046c-.375,0-.784.077-1.022.077h-.119c-.307-.047-.614-.124-.614-.511a8.184,8.184,0,0,1,.051-1.208,1.2,1.2,0,0,0,.017-.124c0-.31-.119-1.007-.119-1.162v-.016c.085-.386.256-.355.256-.82v-.062c-.018-.511-.24-1.27-.24-1.518v-.093c0-.341-.067-1.734-.067-2.4a1.577,1.577,0,0,1,.017-.357,8.365,8.365,0,0,0,.238-1.285,1.142,1.142,0,0,0,.017-.248c0-.511-.136-1.161-.136-1.393v-.109c0-.171-.051-.418-.051-.62a.312.312,0,0,1,.034-.186,1.163,1.163,0,0,1,.733-.356c.136,0,1.261-.093,2.215-.093a4.452,4.452,0,0,1,1.3.124,1.45,1.45,0,0,0,.563.124,1.481,1.481,0,0,0,.528-.124,11.906,11.906,0,0,1,1.363-.263h.051c.205.046,3.256.124,3.9.31a1.3,1.3,0,0,0,.324.046c.409,0,.63-.278,1.345-.31h.086c.46,0,1.142.217,1.16.6.016.248.085.527.085.93a4.223,4.223,0,0,1-.154,1.1c0,.032-.017.062-.017.093,0,.295.221.806.221.96Z" fill="#000000"/><path d="M937.74,915.835a4.036,4.036,0,0,1-.852.217,4.7,4.7,0,0,0-.665.217,3.742,3.742,0,0,0-.426.078c-.359.154-.307.262-.784.262-.29,0-.7-.17-.733-.463a4.593,4.593,0,0,1-.034-.481c0-.434.9-1.255,1.414-1.255a.82.82,0,0,1,.188.031,3.429,3.429,0,0,0,.8.063c.188,0,.393.03.581.03.169,0,.34-.061.511-.061.221,0,1.057.34,1.057.6C938.8,915.355,938,915.727,937.74,915.835Zm1.585,9.34c-.171.138-.273.341-.461.464a9.759,9.759,0,0,1-1.789.882,2.079,2.079,0,0,1-.7.109c-.835,0-.767-.371-1.414-.651a.544.544,0,0,1-.358-.479c0-.4.75-.666,1.108-.774a.637.637,0,0,1,.17-.032c.085,0,.171.016.256.016a.5.5,0,0,0,.153-.016c.256-.061.443-.263.7-.34a7.716,7.716,0,0,0,1.67-.682,3.788,3.788,0,0,0,1.517-1.285c.2-.341.427-1.069.937-1.069.256,0,.256.2.256.371a2.555,2.555,0,0,1-.068.635,4.021,4.021,0,0,1-1.432,2.51C939.717,924.973,939.5,925.035,939.325,925.175Zm1.176-9.68c-.426,0-1.363-.016-1.363-.527,0-.527.869-.619,1.278-.666.119-.016.409-.217.63-.263a9.711,9.711,0,0,1,1.892-.232c.205,0,.41.015.614.015.171,0,.341.046.511.046.12,0,.426-.154.614-.17a6.363,6.363,0,0,1,.766-.047,3.826,3.826,0,0,1,1.33.187,3.184,3.184,0,0,1,.529.387c.46.34,1.244.588,1.244,1.223a2.414,2.414,0,0,1-1.143,1.7,4.99,4.99,0,0,1-.613.264,9.008,9.008,0,0,1-.8.573c-.341.155-.7.279-1.056.4-.563.2-1.109.4-1.654.62-.136.061-.29.093-.426.154-.409.187-.511.65-.614,1.007-.119.433-.341.341-.613.573a.508.508,0,0,1-.307.093c-.528,0-.58-.743-.58-1.084,0-.124.086-.248.086-.372a5.255,5.255,0,0,0-.154-.883c-.085-.511-.119-.558-.682-.619a.314.314,0,0,1-.289-.31.714.714,0,0,1,.46-.666c.17-.092.238-.248.478-.248.17,0,.323.062.494.062.442,0,.954.636,1.158.961a.438.438,0,0,0,.393.232.708.708,0,0,0,.357-.094,4.332,4.332,0,0,0,.87-.433,5.465,5.465,0,0,1,.63-.434c.153-.093.393-.108.528-.2.1-.077.137-.2.24-.278a2.743,2.743,0,0,0,.954-1.023c0-.263-.733-.433-.954-.433-.41,0-.836.124-1.262.124-.153,0-.307-.063-.46-.063-.238,0-.478.109-.716.109-.085,0-.153-.016-.238-.016-.7,0-1.364.326-2.063.326Z" fill="#000000"/><path d="M938.132,937.287a.273.273,0,0,1-.222-.108,3.634,3.634,0,0,1-.8-2.6,2.507,2.507,0,0,1,.1-.7,3.841,3.841,0,0,0,.187-1.317c0-.758-.1-1.517-.1-2.276,0-.372-.119-.743-.119-1.131a.7.7,0,0,1,.783-.666c.869,0,1.3.961,1.3,1.627,0,.356-.2.527-.307.867a6.511,6.511,0,0,0-.239,1.983c0,.371-.034.759-.034,1.13,0,.3.239.728.239,1.022a3.985,3.985,0,0,1-.58,2.06A.368.368,0,0,1,938.132,937.287Zm4.687,3.826c-.239.155-.392.356-.648.495a6.052,6.052,0,0,1-.75.28,6.18,6.18,0,0,1-1.892.5c-.409,0-1.585-.294-1.585-.775a1.03,1.03,0,0,1,.665-.774c.255-.062.545-.03.8-.093a10.136,10.136,0,0,0,.972-.387c.153-.046.306-.031.46-.093a9.334,9.334,0,0,0,2.437-1.518,3.656,3.656,0,0,0,.511-.743,3.493,3.493,0,0,0,.631-1.982c0-.357-.034-.713-.034-1.069a14.9,14.9,0,0,1,.085-1.518c.034-.247,0-.511.051-.759.035-.123.136-.2.17-.325.086-.247.137-.573.5-.573a.268.268,0,0,1,.187.062,1.227,1.227,0,0,1,.529,1.1c0,.169-.017.356-.017.557a3.99,3.99,0,0,0,.034.449,1.793,1.793,0,0,1,.051.294c0,.171-.085.372-.085.605,0,.6.187,1.177.187,1.781,0,.371-.306.743-.426,1.084a4.97,4.97,0,0,1-.273.852,4.727,4.727,0,0,1-2.556,2.555Zm1.568-11.384a3.411,3.411,0,0,1-.358-1.208c0-.386.972-.557,1.295-.557.359,0,.58.015.75.309.119.2.324.156.324.481a3.969,3.969,0,0,1-.733,1.719c-.085.139-.136.279-.222.419-.034.061-.153.061-.221.061-.085,0-.392-.061-.426-.124C944.506,930.488,944.558,930.117,944.387,929.729Z" fill="#000000"/><path d="M943.007,944.166a3.059,3.059,0,0,1,.545-.062,4,4,0,0,1,.75.092,1.841,1.841,0,0,1,.579.295c.171.093.392.139.562.233.119.077.682.479.7.6a1.633,1.633,0,0,1,.016.279c0,1.1-1.192,1.626-1.841,2.338-.119.14-.476.419-.51.574a1.633,1.633,0,0,1-.154.48c-.136.278-.546.682-.546.991,0,.294.427.759.427,1.177a.449.449,0,0,1-.052.217.573.573,0,0,1,.035.171.161.161,0,0,1-.154.17c-.341,0-.6-.264-.9-.264-.068,0-.188.094-.307.094-.034,0-.068,0-.085-.032a.94.94,0,0,0-.2-.015.837.837,0,0,0-.681.4c-.188.248-.41.5-.614.744-.119.139-.358.17-.477.326-.137.169-.2.34-.392.557-.086.109-.171.217-.273.325a9.383,9.383,0,0,1-1.244.992,3,3,0,0,1-.818.371c-.086.031-.187.031-.273.062-.136.046-.358.371-.545.464a2.239,2.239,0,0,1-.835.232.424.424,0,0,1-.137-.015c-.46-.155-1.244-.123-1.516-.527-.1-.138-.29-.325-.29-.5a.41.41,0,0,1,.187-.309c.051-.047.972-.264,1.125-.325.222-.079.682-.388.784-.419a13.8,13.8,0,0,0,4.023-2.571c.255-.232.425-.527.664-.774a7.772,7.772,0,0,0,.784-.682,10.777,10.777,0,0,0,.869-1.285c.256-.5.648-.465.887-.774.136-.171.119-.341.2-.512a6.63,6.63,0,0,1,.614-.9,1.053,1.053,0,0,0,.255-.573c0-.356-.426-.419-.732-.419-.171,0-.359.016-.529.016-.205,0-.392-.046-.6-.046-.239,0-.426.154-.631.154a.662.662,0,0,1-.665-.634.356.356,0,0,1,.324-.387Zm-4.619.7c.562,0,1.073-.185,1.635-.185.188,0,.581.031.581.278,0,.311-.512.682-.785.821-.256.124-.426.31-.7.418a6.561,6.561,0,0,0-.972.558.928.928,0,0,0-.306.171,2.547,2.547,0,0,1-.988.185.482.482,0,0,1-.154-.015c-.272-.109-.6-.124-.6-.465,0-.387.1-.357.34-.7a1.021,1.021,0,0,0,.085-.248c.119-.31.341-.79.75-.822Zm5.965,7.884a1.978,1.978,0,0,1-.273-.232,1.3,1.3,0,0,1-.238-.589c0-.17.136-.248.306-.248.29,0,.563.248.819.356.153.063.323.031.476.093a3.231,3.231,0,0,1,.529.248,6.326,6.326,0,0,1,1.5.867,4.125,4.125,0,0,1,.631.775c.187.356.443.5.443.929,0,.341-.137.883-.614.883a2.693,2.693,0,0,1-1.5-.883c-.1-.124-.137-.279-.24-.4-.2-.278-.494-.526-.732-.789-.256-.279-.6-.465-.869-.729Z" fill="#000000"/><path d="M918.475,924.416a29.992,29.992,0,0,1,3.34-.542c.358,0,.716.077,1.074.077a2.563,2.563,0,0,0,.34-.077.558.558,0,0,0,.1-.2c0-.853-1.022-1.627-1.022-2.091,0-.217.357-.279.544-.279a3.1,3.1,0,0,1,.972.325.569.569,0,0,1,.239.341c.1.4.614,1.425.614,1.7a.533.533,0,0,1-.034.154c-.256.729-.154.7-.835,1.162-.478.341-.7.913-1.6.913-.409,0-.784-.216-1.193-.216a8.206,8.206,0,0,0-2.284.4,2.628,2.628,0,0,1-.665.232,3.484,3.484,0,0,1-1.056-.171c-.222-.077-.341-.712-.426-.928a1.127,1.127,0,0,1-.086-.4,12.061,12.061,0,0,1,1.228-2.926,10.979,10.979,0,0,0,.869-1.394,1.62,1.62,0,0,0-.409-.636,6,6,0,0,0-.682-.216,1.779,1.779,0,0,1-.613-1.27.578.578,0,0,1,.068-.295c.188-.355,1.227-1.223,1.585-1.657.357-.418.835-1.317,1.295-1.564.068-.325.034-.961.409-1.084a1.115,1.115,0,0,1,.392-.108c.409,0,1.534.34,1.534.789a2.691,2.691,0,0,1-.784,1.1,6.183,6.183,0,0,0-.937.387c-.392.294-1.824,1.8-1.824,2.215,0,.046.017.077.017.124.17.109.154.2.239.356a5.62,5.62,0,0,0,.647.589.878.878,0,0,0,.359.046h.187c.255,0,.46-.232.767-.232.324,0,.409.17.409.434a1.826,1.826,0,0,1-.205.464,4.638,4.638,0,0,1-.682.992c-.8.882-2.607,1.951-2.607,3.2,0,.047.034.108.034.155a.405.405,0,0,0,.256.062c.1,0,.222-.015.306-.015Zm2.846-5.7c0-.512,1.329-2.339,1.908-2.355.274.217,1.041.666,1.041,1.007a.77.77,0,0,1-.171.573,2.714,2.714,0,0,1-.852.356c-.119.031-.2.14-.307.186a9.731,9.731,0,0,1-1.3.527.336.336,0,0,1-.256-.156A.144.144,0,0,1,921.321,918.717Zm7.636-3.176c-.768,0-1.534.155-2.3.155a3.043,3.043,0,0,0-1.278.4c-.937,0-1.107-.31-1.107-1.177,0-.558.63-.449,1.04-.558a3.035,3.035,0,0,1,.357-.077l2.131-.14h.085a5.377,5.377,0,0,1,.7.078c1.227.124,2.079-.046,2.676,1.162a.58.58,0,0,1,.051.154c0,.248-.41.326-.631.326-.426,0-.511-.326-.954-.326Zm1.363,3.64c0-.123-.05-.247-.05-.371v-1.6c0-.233.135-1.037.476-1.053.324.17.58,1.239.58,1.58,0,.511-.1,1.037-.1,1.548,0,.2.068.388.068.589,0,.264-.086.542-.086.806,0,.449.052.914.052,1.362,0,.264-.052.512-.052.774,0,.187.12.372.12.558,0,.356-.256.65-.29.991-.171,1.317-1.04,1.8-2.165,2.463a.806.806,0,0,1-.426.077c-.665,0-1.977-.4-1.977-1.145a.473.473,0,0,1,.187-.311,1.188,1.188,0,0,1,.938-.278c.136,0,.256.047.392.047,1.074-.651,1.125.123,1.96-1.379.119-.217.29-.883.375-.991Z" fill="#000000"/><path d="M917.4,939.068c-.545,0-.75-.743-.75-1.13a.584.584,0,0,1,.58-.511,5.292,5.292,0,0,1,1.194.263c.153.046.187.217.187.341A2.712,2.712,0,0,1,917.4,939.068Zm12.989-1.626c.409,0,1.039.032,1.039.387,0,.744-.989,1.115-1.67,1.115-.546,0-2.369-.356-3.017-.465a3,3,0,0,0-.443-.138.283.283,0,0,0-.188.077.523.523,0,0,0,.154.372c.119.139.306.217.425.356a3.765,3.765,0,0,1,.581.9c0,.016-.035.078-.035.093a.481.481,0,0,1-.375.155c-.7,0-1.4-.6-2.028-.852a.658.658,0,0,0-.085.357c0,.108.017.231.017.355,0,.372-.154,2.355-.665,2.355-.562,0-.5-2.184-.511-2.587l-.375-.356c-.273.217-.665.233-.938.434-.425.294-.579.852-1,1.161a7.13,7.13,0,0,1-3.545,1.224c-.325,0-.819-.2-.819-.542a.783.783,0,0,1,.494-.635c.308-.124.649-.078.955-.171.46-.139.92-.278,1.364-.433.187-.062.391-.078.579-.155a4.378,4.378,0,0,0,1.125-.991,1.791,1.791,0,0,0,.477-1.038,2.557,2.557,0,0,1-.954.2,2.745,2.745,0,0,1-.375-.061c-.426-.079-1.091-.063-1.091-.62a.443.443,0,0,1,.341-.372,14.227,14.227,0,0,1,3.341-.464.88.88,0,0,0,.375-.62c0-.588-.512-.666-.9-.976a3.49,3.49,0,0,1-.512-1.61c0-.31.051-.6.068-.915s.035-2.183.529-2.183c.426,0,.426,1.038,1.159,1.038.034,0,.085-.016.119-.016a.421.421,0,0,1,.323-.092c.171,0,.359.03.478.03.631,0,.733-.7,1.022-.7.494,0,.512,1.052.6,1.362a.987.987,0,0,1,.051.31c0,.155-.068.326-.068.48,0,.2.085.4.085.6a2.883,2.883,0,0,1-.1.527c-.17.821-.511.713-1.073,1.192a2.746,2.746,0,0,0-.615.945c.034.247.188.635.529.635,1.364,0,2.727.217,4.09.341.069,0,.137.016.206.016.22,0,.425-.032.647-.032Zm-13.142-2.973c0-.775.9-1.007,1.228-1.626-.682-.867-1.245-.063-1.245-1.8a.748.748,0,0,1,.154-.418l1.516-1.7a.441.441,0,0,1,.325-.14,6.09,6.09,0,0,1,1.141.264c.171.047.222.185.307.309,0,.047.017.079.017.124a.291.291,0,0,1-.1.217c-.631.527-1.108-.046-1.96,1.007-.137.17-.29.294-.29.526a.678.678,0,0,0,.068.264c.478.124.512.481,1.143.481.238-.109.255-.341.255-.605v-.17c0-.31.034-.573.461-.573h.561c.393,0,.649.79.649,1.068,0,.357-.29.9-.75.9-.58.82-1.79,1.022-2.3,1.874.1.232.323.262.562.262a3.013,3.013,0,0,0,1.227-.278c0-.155-.017-.278-.017-.4,0-.341.085-.542.682-.542.272,0,.7.727.7.944a.385.385,0,0,1-.051.2c-.409.914-.665.822-1.6,1.084a5.158,5.158,0,0,1-1.023.325,4.282,4.282,0,0,1-.443-.061c-1.158-.108-1.21-.388-1.21-1.239Zm8.761-4.538c0,.279-.2.325-.46.325-.2,0-.409-.109-.579-.109-.512,0-1.024.093-1.534.093-.222,0-.41-.17-.648-.17-.052,0-.153,0-.153-.062,0-1.1,1.414-.279,1.414-1.518a.318.318,0,0,1,.341-.356.358.358,0,0,1,.187.047c.409.216.512.294.512.6,0,.063-.018.155-.018.248C925.411,929.249,926.008,929.5,926.008,929.931Zm-.631,3.748c0-.465-.238-1.131-.852-1.131-.715,0-1.5.295-1.5,1.054,0,.743.12,1.145,1.023,1.145.409,0,1.176-.124,1.3-.542a1.038,1.038,0,0,0,.033-.309Zm4.824.387c0-.3-.29-.557-.29-.805,0-.31.359-.388.631-.388.6,0,1.091,1.286,1.091,1.735a.525.525,0,0,1-.171.4,8.658,8.658,0,0,1-2.642.883c-.716,0-1.55-.062-1.55-.9a5.8,5.8,0,0,1,.954-2.586c-.273-.279-.7-.542-.7-.945a2.537,2.537,0,0,1,1.312-2.276,1.666,1.666,0,0,1,1.125-.45.357.357,0,0,1,.205.372c0,.868-1.6.511-1.6,1.6a.258.258,0,0,0,.154.264c.136.061.273.093.409.154.238.124.426.356.716.4.971-.232.205-1.456.955-1.456.426,0,.716.527.716.852,0,.6-1.262,1.688-1.841,1.688a.99.99,0,0,1-.359-.124c-.613.14-.852.992-1.141,1.441.119.5,1.006.5,1.431.5a1,1,0,0,0,.563-.186A.513.513,0,0,0,930.2,934.066Zm.256,8.364c-.562,0-2.4-1.286-2.4-1.8a.279.279,0,0,1,.255-.264,9.331,9.331,0,0,1,3.29.806.937.937,0,0,1,.34.573c0,.31-.733.712-1.04.712a.414.414,0,0,1-.238-.046A.882.882,0,0,1,930.457,942.43Z" fill="#000000"/><path d="M930.082,953.4c.033-.542.188-1.069.188-1.611,0-.728-.069-2.571-.717-3.051-.1-.078-.188-.108-.188-.248,0-.124.069-.325.239-.325.358-.512.1-1.673.614-1.673.272,0,.426.294.546.465a3.031,3.031,0,0,1,.409.651,5.561,5.561,0,0,1,.323,1.966c0,.5.119.992.119,1.487,0,1.1-.221,2.2-.221,3.284,0,.108.068.217.068.341a1.234,1.234,0,0,1-.034.247c-.222,1.007-.289.542-.869,1.162a5.208,5.208,0,0,0-.444.851c-.323.527-.92.418-1.466.527a4.241,4.241,0,0,1-.766.093c-1.6,0-3.17-.294-4.773-.294-.34,0-.664.124-.988.124-.119,0-.256-.032-.375-.032a11.063,11.063,0,0,0-2.676.31.762.762,0,0,1-.187.031c-.034,0-.085-.015-.119-.015-1.466-.263-1.807-2.06-1.807-3.175,0-.481.051-.945.067-1.425a16.654,16.654,0,0,1,.29-3.563,1.106,1.106,0,0,1-.05-.4,21.162,21.162,0,0,1,.476-2.091c.052-.139.239-.465.427-.465.357,0,.426.326.426.589,0,.217-.051.418-.069.635l-.357,7.326c.187.263.341.821.767.821,1.38,0,2.761-.294,4.141-.294h1.79q1.3,0,2.608.046c.409.015.818.108,1.227.108a1.955,1.955,0,0,0,1.244-.418Zm-3.018-5.544c.546.092,1.706.108,2.1.449a2.188,2.188,0,0,1-.034.34c-.1.588-1.926.062-2.25.961a1.671,1.671,0,0,0-.067.572c0,.449-.222.76-.222,1.115,0,.187.051.357.051.542,0,1.193-1.006,2.851-2.472,2.851-.647,0-1.414-.2-1.414-.914a.514.514,0,0,1,.238-.511,2.2,2.2,0,0,1,.563-.124,3.771,3.771,0,0,0,1.5-.775c.51-.449.528-1.084.835-1.627A2.124,2.124,0,0,0,924,949.292a1.08,1.08,0,0,1-.921-.93c0-.79,1.518,0,2.165-1.1a4.588,4.588,0,0,0,.358-.806c0-1.021-.375-.65-1.023-1.037l-4.4.108a2.371,2.371,0,0,1-1.023.263c-.256,0-.8-.046-.8-.371,0-.527,1.313-.976,1.773-1.084.392-.094.784-.047,1.176-.109a11.351,11.351,0,0,1,1.925-.186c.137,0,.256.031.393.031,1.773.077,3.682-.108,5.352.558a.714.714,0,0,1,.358.6c0,.187-.528.542-.716.542-.512,0-1.006-.185-1.5-.185-.546,0-.477.9-.546,1.223Zm-5.879.123c.391,0,.766.046,1.159.046.2,0,.443.156.443.357,0,.588-2.437.883-2.949,1.053-.068.015-.068.031-.136.031a.3.3,0,0,1-.187-.093.678.678,0,0,1-.035-.185.393.393,0,0,1,.017-.14,1.543,1.543,0,0,1-.017-.279c0-.775.989-.79,1.636-.79Zm-.955,4.987c-.443,0-.648-.449-.648-.79,0-1.068,1.415-1.5,2.369-1.672.034,0,.069-.016.1-.016a.362.362,0,0,1,.341.387c0,.65-.9,1.054-1.33,1.472C920.81,952.575,920.656,952.962,920.23,952.962Z" fill="#000000"/></g></g></svg>
