<svg xmlns="http://www.w3.org/2000/svg" width="1000" height="988" viewBox="0 0 1000 988"><g id="Artboard"><rect id="Tint" width="1000" height="988" fill="#58595b"/></g><g id="Overlap"><g id="幺樂団の歴史"><path id="幺" d="M451.51,451.144q-1.024-1.965-1.879-1.965a2.372,2.372,0,0,0-1.879.684,2.648,2.648,0,0,0-.512,1.451,3.251,3.251,0,0,0,.6,1.708,65.934,65.934,0,0,1,4.783,8.882q-.173,1.024-1.538,1.2-6.234.427-15.2.427-11.1,0-14.006-.256c-.627-.114-.939-.228-.939-.342a3.4,3.4,0,0,1,.769-2.221q12.468-13.151,24.68-25.449a3.8,3.8,0,0,0,1.452-3.074,2.313,2.313,0,0,0-.6-1.708,1.969,1.969,0,0,0-1.366-.684,4.013,4.013,0,0,0-2.477.769q-6.148,6.492-12.81,13.323a4.395,4.395,0,0,0-1.025-1.2A34.9,34.9,0,0,0,422.3,438.5q-3.5-1.538-3.5-1.879a2.933,2.933,0,0,1,1.622-2.476,81.9,81.9,0,0,0,14.263-14.177,8.426,8.426,0,0,0,2.22-5.209q0-2.818-2.306-2.818a3.533,3.533,0,0,0-2.818,1.879,75.656,75.656,0,0,1-12.725,15.543,27.764,27.764,0,0,1-6.234,5.209,3.954,3.954,0,0,0-1.879,2.989,2.689,2.689,0,0,0,2.477,2.818q4.354,1.2,12.98,6.234a12.525,12.525,0,0,0,1.2.513q-7,7.173-14.347,14.6a7.3,7.3,0,0,0-1.623,4.27q0,2.307,3.758,2.306a49.266,49.266,0,0,1,5.551-.342q7.6.344,14.6.342,8.112,0,15.713-.342a16.6,16.6,0,0,1,3.416.342q3.5,0,3.5-2.989a9.8,9.8,0,0,0-1.366-4.441Q453.9,454.987,451.51,451.144Z"/><g id="樂"><path d="M491.994,426.036a28.682,28.682,0,0,1,6.832,3.245q-3.246,3.33-6.661,6.747a3.234,3.234,0,0,0-.769,1.879q0,1.792,2.819,1.793a26.017,26.017,0,0,1,4.1-.342,15.687,15.687,0,0,0,3.245.342,43.342,43.342,0,0,0,5.551-.342,8.114,8.114,0,0,1,2.391.342,2.152,2.152,0,0,0,2.477-2.391,4.791,4.791,0,0,0-.6-2.05q-1.2-2.562-2.05-4.355-.427-.769-.768-.769a2.222,2.222,0,0,0-1.623.512,1.775,1.775,0,0,0-.512,1.111,2.454,2.454,0,0,0,.086.6,21,21,0,0,1,.939,2.477q-.086.941-.6,1.025a27.5,27.5,0,0,1-5.295.427,7.094,7.094,0,0,1-2.476-.256.912.912,0,0,1-.171-.513,1.16,1.16,0,0,1,.341-.854q4.782-5.208,9.394-10.162a1.621,1.621,0,0,0,.6-1.281,1.848,1.848,0,0,0-.513-1.367,1.8,1.8,0,0,0-1.28-.6,1.968,1.968,0,0,0-1.11.342q-2.305,2.391-4.953,5.039a11.271,11.271,0,0,0-2.563-1.794c-.8-.512-1.2-.824-1.2-.939a1.241,1.241,0,0,1,.6-1.025,35.91,35.91,0,0,0,6.234-6.234,3.306,3.306,0,0,0,1.024-2.221q0-2.475-2.134-2.476a1.9,1.9,0,0,0-1.453.854,36.888,36.888,0,0,1-6.831,7.771,12.145,12.145,0,0,1-3.331,2.562,1.868,1.868,0,0,0-.939,1.452A1.352,1.352,0,0,0,491.994,426.036Z"/><path d="M516.675,441.066a9.47,9.47,0,0,1,2.221-.768,29.456,29.456,0,0,1,5.038-.256,39.576,39.576,0,0,1,6.832.683q1.964,0,1.964-2.477v-7.173q0-4.014.171-7.6a14.761,14.761,0,0,1,.427-3.672l.171-.6a1.888,1.888,0,0,0-2.135-2.135,11.086,11.086,0,0,1-2.733.427,11.3,11.3,0,0,0-2.819-.427h-1.537q.683-1.109,1.965-3.758a3.31,3.31,0,0,0,.427-1.366q0-2.39-2.733-2.391a2.152,2.152,0,0,0-2.477,2.391,17.733,17.733,0,0,1-.769,5.124q-1.023-.084-1.708-.171a16.441,16.441,0,0,0-2.305-.171q-2.049,0-2.05,2.135a82.063,82.063,0,0,1,.769,10.248,73.85,73.85,0,0,1-.769,9.821Q514.625,441.067,516.675,441.066Zm2.818-19.129q0-1.452,1.281-1.452a56.573,56.573,0,0,1,7.174.342c.454,0,.683.256.683.768v5.38h-8.2a7.39,7.39,0,0,0-1.025.086Q519.492,424.585,519.493,421.937Zm-.171,8.71a1.587,1.587,0,0,0,.513.086,50.012,50.012,0,0,1,8.8-.6v6.149a.906.906,0,0,1-1.025,1.025,22.664,22.664,0,0,0-3.672-.342,12.491,12.491,0,0,0-3.16.342q-1.623,0-1.623-1.367Q519.322,433.467,519.322,430.647Z"/><path d="M536.744,425.951a35.871,35.871,0,0,1,6.832,2.988l.085.086q-3.415,3.417-7.088,7a3.232,3.232,0,0,0-.768,1.879q0,1.792,2.732,1.793a27.207,27.207,0,0,1,4.1-.342,14.91,14.91,0,0,0,3.074.342,50.353,50.353,0,0,0,5.893-.342,7.819,7.819,0,0,1,2.3.342q2.478,0,2.477-2.391a4.777,4.777,0,0,0-.6-2.05q-1.367-2.562-2.391-4.355-.429-.769-.768-.769a2.411,2.411,0,0,0-1.623.512,1.772,1.772,0,0,0-.513,1.111,1.372,1.372,0,0,0,.171.6,20.352,20.352,0,0,1,1.281,2.477q-.086.941-.6,1.025a31.446,31.446,0,0,1-5.637.427,5.6,5.6,0,0,1-2.221-.256.918.918,0,0,1-.17-.513,1.164,1.164,0,0,1,.341-.854q4.953-5.208,9.651-10.162a1.623,1.623,0,0,0,.6-1.281,2.067,2.067,0,0,0-.427-1.367,1.728,1.728,0,0,0-1.195-.6,2.1,2.1,0,0,0-1.2.342q-2.307,2.391-4.868,4.868a14.387,14.387,0,0,0-2.648-1.708q-1.281-.683-1.281-.854a1.241,1.241,0,0,1,.6-1.025,39.3,39.3,0,0,0,5.465-6.234,3.639,3.639,0,0,0,.855-2.221q0-2.475-2.136-2.476a1.631,1.631,0,0,0-1.28.854,39,39,0,0,1-6.32,7.771,12.177,12.177,0,0,1-3.075,2.562,1.868,1.868,0,0,0-.939,1.452Q535.463,425.7,536.744,425.951Z"/><path d="M524.343,472.053c1.548-.422,2.324-2.235,2.324-5.452l-.427-13.493q0-1.281.085-2.818a97.778,97.778,0,0,1,13.493,1.11,69.41,69.41,0,0,1,15.714,4.014,10.382,10.382,0,0,0,3.245.6q1.365,0,2.733-2.135a10.328,10.328,0,0,0,1.367-5.038q0-.6-.769-.6a49.766,49.766,0,0,1-5.124.256,126.311,126.311,0,0,1-14.176-1.025,159.371,159.371,0,0,0-16.141-1.622v-.427q0-3.414-2.733-3.416-2.819,0-2.818,3.416v.427q-9.736.257-32.111,4.014a4.1,4.1,0,0,0-2.733,1.281,3.548,3.548,0,0,0-1.366,2.476q.257,2.562,3.074,2.733a9.054,9.054,0,0,0,2.9-.854,66.03,66.03,0,0,1,13.066-3.587,92.54,92.54,0,0,1,17.422-1.622q.084,1.367.085,2.818,0,4.868-.341,13.493a10.436,10.436,0,0,0,.65,4.217,3.716,3.716,0,0,1,2.577,1.235Z"/><path d="M512.319,459.427q0-.937-1.024-.939a25.741,25.741,0,0,1-9.224,2.306,22.182,22.182,0,0,1-3.159-.342q-.94,0-.94,1.452a8.1,8.1,0,0,0,1.281,4.526,3.5,3.5,0,0,0,2.818,1.537q2.733,0,6.406-3.757Q512.319,460.709,512.319,459.427Z"/><path d="M544.345,461.477a46.5,46.5,0,0,1-7-3.16,1.557,1.557,0,0,0-.427-.171.994.994,0,0,0-1.11,1.025,1.653,1.653,0,0,0,.341.854,67.219,67.219,0,0,0,5.893,7.345,1.617,1.617,0,0,0,1.281.6q1.876,0,5.124-1.964a3.745,3.745,0,0,0,1.708-2.818.83.83,0,0,0-.939-.939A19.3,19.3,0,0,1,544.345,461.477Z"/></g><g id="団"><path d="M581.41,470.7q5.293-.512,8.967-.683,4.44-.257,20.753-.256,12.98,0,29.377.6,2.391,0,2.391-3.075-.342-13.578-.341-21.435,0-10.162.341-19.3a70.652,70.652,0,0,1,.769-9.479q.256-1.451.256-1.623,0-3.159-2.818-3.159a11.231,11.231,0,0,1-3.416.683q-12.726-.341-22.034-.342H588.242a17.19,17.19,0,0,1-3.929-.341,10.622,10.622,0,0,0-2.561-.342,2.491,2.491,0,0,0-2.818,2.818q.683,16.482.683,28.268,0,10.676-.683,24.936Q578.934,470.7,581.41,470.7Zm3.758-51.838q0-1.793,1.622-1.793,32.709,0,49.96.427,1.281,0,1.28,1.025-.341,13.92-.341,45.689,0,1.454-1.281,1.452-13.922-.34-25.278-.342-14.092,0-24.681.342-1.965,0-1.965-2.135Q585.166,442.518,585.168,418.862Z"/><path d="M605.92,440.725q-11.958,5.722-11.956,6.49-.941.684-.94,3.075,0,1.708,3.075,1.708,1.281,0,10.248-8.54a3.388,3.388,0,0,0,.683-1.794Q607.03,440.725,605.92,440.725Z"/><path d="M591.658,434.491a11.064,11.064,0,0,0,3.331-.684q4.269-1.281,15.457-1.281a53.1,53.1,0,0,1,7.516.513q.339,5.039.341,10.333a36.316,36.316,0,0,1-.512,7.515,4.377,4.377,0,0,1-2.306,2.819q-1.538,1.2-6.832,1.708-1.281.255-1.281,1.281a4.291,4.291,0,0,0,1.537,3.33,4.649,4.649,0,0,0,3.16,1.2,13.622,13.622,0,0,0,5.807-1.452q4.781-2.133,4.782-10.163,0-5.635-.171-15.628a10.742,10.742,0,0,1,1.623.513,11.67,11.67,0,0,0,3.672,1.024q1.878,0,3.929-2.562a7.745,7.745,0,0,0,1.879-4.526q0-.768-.94-.768a14.744,14.744,0,0,0-2.647.6,18.862,18.862,0,0,1-3.587.513,24.437,24.437,0,0,1-2.647-.171,12.286,12.286,0,0,1-1.367-.086q.084-1.792.256-3.757a8.228,8.228,0,0,0,.342-1.879,2.416,2.416,0,0,0-2.732-2.733q-2.649,0-2.648,3.416,0,1.281.085,4.612-4.611-.17-7.259-.171a134.327,134.327,0,0,0-16.14,1.11,3.971,3.971,0,0,0-1.623-.341,2.935,2.935,0,0,0-2.135,1.11,4.422,4.422,0,0,0-.94,2.647Q589.608,434.491,591.658,434.491Z"/></g><path id="の" d="M679.454,461.306q3.075,0,7.942-5.978,8.113-10.248,12.981-32.879.257,0,1.281-.085h1.366q12.639,0,17.678,8.54a15.483,15.483,0,0,1,2.477,8.027A16.477,16.477,0,0,1,720.1,448.5a23,23,0,0,1-7.258,6.747,35.932,35.932,0,0,1-12.64,3.928q-2.649.429-4.185.6-1.965.429-1.963,1.195,0,2.05,2.39,3.929a7.417,7.417,0,0,0,4.527,1.794q3.671,0,10.334-3.16,16.737-7.857,16.738-22.973a20.05,20.05,0,0,0-8.284-16.909q-7.6-5.637-18.447-5.637-17.594,0-26.217,10.163a23.406,23.406,0,0,0-5.551,15.116,28.088,28.088,0,0,0,2.39,11.016Q674.757,461.307,679.454,461.306Zm-.768-30.4q5.207-5.978,16.482-8.028-3.93,18.959-10.59,28.011-2.9,3.674-5.124,3.673-2.478,0-4.355-4.868a22.545,22.545,0,0,1-1.367-7.174Q673.732,436.968,678.686,430.9Z"/><g id="歴"><path d="M747.433,458.146q2.732,2.307,4.953,2.306,1.452,0,4.014-2.818a34.376,34.376,0,0,0,5.978-11.444,43.358,43.358,0,0,0,1.452-9.138,5.622,5.622,0,0,0,.854,1.025,4.7,4.7,0,0,0,3.416,1.965,3.7,3.7,0,0,0,.854-.257,23.271,23.271,0,0,0,5.465-3.16,35.959,35.959,0,0,0,3.075-2.9q-.173,2.478-.257,5.636,0,4.784,2.05,4.783,2.819,0,2.818-4.783l-.255-6.319a29.4,29.4,0,0,1,3.756,2.135,2.1,2.1,0,0,0,.94.341q2.05,0,2.05-1.708,0-.768-3.075-2.818a24.9,24.9,0,0,0-3.416-1.879,1.427,1.427,0,0,0-.426.086v-1.879q1.109.086,2.05.085,2.475.257,3.074.257a3.583,3.583,0,0,0,2.647-1.025,3.654,3.654,0,0,0,.769-2.391c-.058-.455-.371-.684-.94-.684h-7.344c.055-.4.113-.825.17-1.281q0-3.074-2.476-3.074-2.393,0-2.392,3.074a10.341,10.341,0,0,0,.086,1.281h-6.832a4.93,4.93,0,0,0-2.647.6,2.754,2.754,0,0,0-1.111,1.879,2.3,2.3,0,0,0,2.306,2.391,6.906,6.906,0,0,0,1.794-.512,33.568,33.568,0,0,1,6.746-.6v1.537a2.453,2.453,0,0,1-.342.256,19.287,19.287,0,0,1-4.013,3.16,14.82,14.82,0,0,1-4.953,1.793,24.32,24.32,0,0,1-3.331.428,1.788,1.788,0,0,0-.939.256q.084-1.878.085-4.014L764,419.289v-1.452q1.109-.084,4.27-.512,6.149-.6,19.983-.6,9.138,0,16.824.256,7.429.855,9.48.854a4.066,4.066,0,0,0,3.074-1.366,5.123,5.123,0,0,0,1.025-3.16q-.086-.682-1.452-.683H765.281a7.511,7.511,0,0,0-1.622.171,3.747,3.747,0,0,0-2.733-.854q-2.478,0-2.477,2.818.683,8.8.684,13.92a48.506,48.506,0,0,1-1.708,14.006q-1.966,6.321-5.551,8.711a10.491,10.491,0,0,1-4.7,1.879,1.674,1.674,0,0,0-1.623,1.793Q745.554,456.525,747.433,458.146Z"/><path d="M805.505,429.537v-1.11a11.536,11.536,0,0,1,.086-1.452q2.562,0,4.867.171a20.652,20.652,0,0,0,2.989.513,3.645,3.645,0,0,0,2.819-1.111,3.963,3.963,0,0,0,.939-2.647q-.087-.682-1.024-.683H805.847a5.656,5.656,0,0,1,.086-.94q0-3.074-2.307-3.074-2.476,0-2.477,3.074a5.745,5.745,0,0,0,.086.94h-4.441a4.941,4.941,0,0,0-2.648.6,2.545,2.545,0,0,0-1.109,1.879A2.195,2.195,0,0,0,795.343,428a9.046,9.046,0,0,0,1.879-.427,26.822,26.822,0,0,1,4.184-.512v2.476c-.057.058-.143.143-.257.256a14.6,14.6,0,0,1-3.587,3.929,14.034,14.034,0,0,1-4.354,2.306,14.943,14.943,0,0,1-2.989.6q-1.454.087-1.623.94a3.98,3.98,0,0,0,1.452,2.562,4.709,4.709,0,0,0,3.33,1.879,1.968,1.968,0,0,0,.768-.256,15.1,15.1,0,0,0,4.784-3.587,18.721,18.721,0,0,0,2.39-2.733q-.086,1.623-.171,3.5,0,4.869,2.136,4.868,2.646,0,2.648-4.868l-.257-5.722q.768.513,1.794,1.2a106.741,106.741,0,0,1,8.112,7.6,4.749,4.749,0,0,0,3.075,1.11,8.386,8.386,0,0,0,4.7-1.537q2.476-1.452,2.476-2.989,0-1.024-1.451-1.025a29.663,29.663,0,0,1-3.843-.513q-2.563-.681-12.81-6.49A6.284,6.284,0,0,0,805.505,429.537Z"/><path d="M764.529,469.5c.035.07.068.141.1.214a5.432,5.432,0,0,1,.341,1.171,102.756,102.756,0,0,1,10.9-3.006,92.054,92.054,0,0,1,14.091-.939,97.48,97.48,0,0,1,11.785.6,64.414,64.414,0,0,1,13.579,3.33,8.441,8.441,0,0,0,3.672.854q1.2,0,2.563-2.306a9.65,9.65,0,0,0,1.195-4.44q0-1.11-.342-1.111a21.914,21.914,0,0,1-3.757.342q-6.149,0-12.9-.513-6.663-.6-12.3-.683l.171-7.344h.085a7.03,7.03,0,0,0,1.452-.427,30.489,30.489,0,0,1,6.661-.513q2.475,0,4.611.086,2.051.257,2.563.256a3.583,3.583,0,0,0,2.647-1.025,4.121,4.121,0,0,0,.769-2.391q-.087-.682-.94-.683H795a8.554,8.554,0,0,0-1.195.085l.171-4.184a2.417,2.417,0,0,0-2.734-2.733,2.038,2.038,0,0,0-2.306,2.306l.342,16.482q-4.1.086-10.931.683a14.906,14.906,0,0,0,.341-3.5,86.8,86.8,0,0,0-.341-10.248q-.173-2.307-2.733-2.306-2.819,0-2.818,2.306a39.963,39.963,0,0,1,1.11,8.2,31.081,31.081,0,0,1-.427,5.124,4.8,4.8,0,0,0,.085.94q-4.953.684-11.358,1.537a4.621,4.621,0,0,0-2.732,1.2c-.094.082-.162.168-.246.251a6.459,6.459,0,0,1,1.265-.137A4.5,4.5,0,0,1,764.529,469.5Z"/></g><path id="史" d="M893.052,467.7a7.146,7.146,0,0,1,3.023-.726,4.455,4.455,0,0,1,3.853,2.192,3.992,3.992,0,0,1,.277.56,5,5,0,0,1,.28,1.012c.269.085.523.162.744.222a18.978,18.978,0,0,0,5.124.768,5.778,5.778,0,0,0,3.586-1.537q2.9-2.818,2.9-5.209a.982.982,0,0,0-1.11-1.111,72.215,72.215,0,0,1-13.664-2.049,218.872,218.872,0,0,1-24.68-7.857,37.206,37.206,0,0,0,2.39-12.212q8.112.086,17.935.939,2.305,0,2.306-2.989-.343-3.5-.342-5.551a60.185,60.185,0,0,1,.342-6.661,9.808,9.808,0,0,1,.768-3.331,2.671,2.671,0,0,0,.256-.6q0-2.732-2.648-2.732a10.75,10.75,0,0,1-3.416.768q-8.113-.341-14-.342h-.769q.086-4.012.086-7.942,0-2.305-2.733-2.306a2.164,2.164,0,0,0-2.477,2.306v7.942H859.468a12.948,12.948,0,0,1-3.843-.426,10.265,10.265,0,0,0-2.647-.342q-2.649,0-2.648,2.733a61.179,61.179,0,0,1,.684,8.283,68.565,68.565,0,0,1-.684,8.882,2.039,2.039,0,0,0,2.306,2.306,46.026,46.026,0,0,1,5.978-.683q2.733-.34,12.383-.342-.087,2.819-.256,4.7a25.5,25.5,0,0,1-1.794,5.893q-7.857-2.988-18.019-6.234a16.9,16.9,0,0,0-4.014-.94q-2.049.173-2.135,2.477,0,1.88,2.135,2.306a66.32,66.32,0,0,1,10.419,2.561q3.671,1.283,9.138,3.673a16.335,16.335,0,0,1-7.943,6.32q-4.784,2.135-17.762,2.134-1.71.257-1.708,1.452,0,2.9,1.2,4.014a6.016,6.016,0,0,0,3.929,1.025,38.833,38.833,0,0,0,11.956-2.221,26.183,26.183,0,0,0,13.835-8.8q.6-.768,1.28-1.793,4.611,1.965,10.419,4.611,6.66,3.018,11.207,4.939l.051-.026Zm-16.846-42.259q8.112.087,13.664.256,1.452,0,1.452.94-.342,3.073-.342,9.991,0,1.281-1.451,1.282-7.26-.257-13.579-.342Q876.12,431.5,876.206,425.438Zm-5.124,12.127q-7.516,0-13.236.342-2.136,0-2.136-1.623a61.248,61.248,0,0,0,.684-9.309q0-1.62,1.793-1.622h12.895Z"/></g><g id="_4" data-name="4"><path d="M888.415,475.959l-.071-.105a4,4,0,0,1-.676-2.226,4.989,4.989,0,0,1,1.2-3.213q-3.711-1.6-8.525-3.784h-11.3a31.825,31.825,0,0,1-11.733,6.017,47.191,47.191,0,0,1-10.362,2.261l-.688.953-.43,1.259a2.274,2.274,0,0,0,.3,1.888l2.061.209h1.468a84.315,84.315,0,0,1,10.638-.838h29.917l0-.953A4,4,0,0,1,888.415,475.959Z"/><path d="M887.1,429.62c-.773-.019-1.589-.037-2.425-.054l-3.424,4.1q2.544.058,5.21.14l.542-.647C887.026,431.845,887.058,430.662,887.1,429.62Z"/><path d="M954.285,438.94c-1.678,0-4.931,7.763-9.72,23.077l-1.649,4.614H921.1l11.281-64.193c.553-3.147,1.143-6.5,1.979-10.069s1.637-6.923,2.327-9.651l2.793-11.118a5.936,5.936,0,0,0-.188-2.517,1.571,1.571,0,0,0-1.531-.839l-2.035.839-2.257,2.1-38.186,45.7a6.388,6.388,0,0,1,3.877,1.756l20.923-25.007-12.524,65.884c1.543.2,2.965.316,4.256.358a4.938,4.938,0,0,1,5.031,5.11c0,2.707-1.385,5.425-4.117,8.078q-.122.12-.255.228a9.647,9.647,0,0,1-6.118,2.44,22.718,22.718,0,0,1-5.767-.807l-.018,3.462h3.359L900.9,494.319a5.5,5.5,0,0,1,4.48-1.127l0-.028a3.984,3.984,0,0,1,.437-1.272l.21-.385c.053-.1.111-.194.172-.287l11.262-17.067a4.069,4.069,0,0,1,.365-.472l.314-.349a4.013,4.013,0,0,1,1.346-.979l.314-.14a4.008,4.008,0,0,1,1.629-.346,4.325,4.325,0,0,1,3.42,1.661,4.644,4.644,0,0,1,.926,2.345,4,4,0,0,1,.027.854l-.125,1.653h15.8l-.385,11.747.422,3.567a2.331,2.331,0,0,0,1.322.839l1.332-.42.787-2.1,1.057-8.392,1.533-11.119a184.375,184.375,0,0,1,4.836-20.349l2.966-10.908.047-1.469C955.434,439.569,955.088,439.15,954.285,438.94Z"/><path d="M913.757,504.27a4,4,0,0,1-2.041-1.094,4.407,4.407,0,0,1-.956-4.874l-.221.029a4.271,4.271,0,0,1-.452.031c.015.17.026.342.026.517a5.778,5.778,0,0,1-1.585,4.045,5.615,5.615,0,0,1-4.163,1.773,5.691,5.691,0,0,1-3.137-.921,3.994,3.994,0,0,1-1.322.506l-.384.071a4,4,0,0,1-.535.048l-.716,3.768c-2.517,0-6.12.209-10.6.629-9.169.839-17.151,2.1-17.631,4.825a2.191,2.191,0,0,0,.581,1.469l2.024.419,2.974-.21a242.685,242.685,0,0,1,28.58-1.468,197.453,197.453,0,0,1,25.966,1.468l3.109.21,2.173-.419.887-1.469c.258-1.469-1.026-2.518-3.643-3.146a72.242,72.242,0,0,0-18.932-2.1l.7-4c-.118-.013-.238-.012-.355-.035Z"/></g></g><g id="Outline"><path id="上海_アリス幻樂団" data-name="上海■アリス幻樂団" d="M94.51,927.94c.032-.043.063-.086.093-.13a5.188,5.188,0,0,0,.885-2.5,6.754,6.754,0,0,0,.869-3.068,3.987,3.987,0,0,0-.785-2.558,7.021,7.021,0,0,0,.492-2.393,3.992,3.992,0,0,0-2.657-3.918,5.056,5.056,0,0,0,1.845-1.87,7.482,7.482,0,0,0,.99-3.259,4,4,0,0,0-2.011-3.768,5.5,5.5,0,0,0,.216-1.53,4.479,4.479,0,0,0-2.388-4.076,3.894,3.894,0,0,0-.565-.24,5.888,5.888,0,0,0-1.7-.283,4.724,4.724,0,0,0-1.8-2.327,5.326,5.326,0,0,0-3.088-.961,4.967,4.967,0,0,0-5,4.968l.031,3.561a18.214,18.214,0,0,0-2.618.62,5.308,5.308,0,0,0-.611.231,4.834,4.834,0,0,0,1.229-3.207,4.672,4.672,0,0,0-2.922-4.3,9.618,9.618,0,0,0-2.9-.633c-1.665-.159-3.688-.24-6.019-.24a22.791,22.791,0,0,0-3.5.269,5.258,5.258,0,0,0-1.948.719,4.653,4.653,0,0,0-2.416-1.306c-.1-.022-.2-.04-.307-.053a30.376,30.376,0,0,0-3.817-.137,29.258,29.258,0,0,0-3.376.1,4.933,4.933,0,0,0-2.612-.717,6,6,0,0,0-4.363,2.362l-.052.06L41.135,900.4a5.464,5.464,0,0,0-1.6,3.633,4.365,4.365,0,0,0,.558,2.113,5.3,5.3,0,0,0-.5,2.233A4.657,4.657,0,0,0,43.858,913a6.765,6.765,0,0,0-1.207,1.077l-1.566,1.738a4.8,4.8,0,0,0-1.431,3.274,4.217,4.217,0,0,0,.221,1.328,4.27,4.27,0,0,0-.1.913,4.522,4.522,0,0,0,.1.949,5.272,5.272,0,0,0-.161,1.308,4.584,4.584,0,0,0,1.292,3.17l.046.049a4.6,4.6,0,0,0,2.048,3.4,4.523,4.523,0,0,0-2.939,4.238q0,.135.009.27l.618,9.167c0,.061.01.123.017.184a4.359,4.359,0,0,0,4.329,4.073,5.583,5.583,0,0,0,1.29-.17c1.045-.1,2.53-.153,4.42-.153,2.366,0,3.621.072,4.268.137a7.606,7.606,0,0,0,1.2.117,4.338,4.338,0,0,0,3.435-1.7,4.884,4.884,0,0,0,2.755.85,8.767,8.767,0,0,0,5.086-1.793l.105.1.038.036q.4.381.612.572a4.927,4.927,0,0,0,6.923.389,3.986,3.986,0,0,0,3.78,2.748H90.91a4,4,0,0,0,4-4V932.149a3.978,3.978,0,0,0-1.533-3.127A4.778,4.778,0,0,0,94.51,927.94Zm-19.467,4.209v2.221a4.664,4.664,0,0,0-2.572-3.1,9.279,9.279,0,0,0-4.247-.691l-.324,0a8.91,8.91,0,0,0,4.769-2.258,9.368,9.368,0,0,0,2.26-3.45h0a4.419,4.419,0,0,0-.2,1.294,5.02,5.02,0,0,0,1.3,3.373A3.962,3.962,0,0,0,75.043,932.149ZM59.075,912.012a5.124,5.124,0,0,0,3.081,1.6,4.624,4.624,0,0,0-1.664,1.624,5,5,0,0,0-.681-1.328c-.025-.034-.05-.068-.076-.1a4.51,4.51,0,0,0-1.355-1.167c.207-.168.415-.347.621-.55Zm-.933,18.005a5.231,5.231,0,0,0,.427-.321,3.889,3.889,0,0,0,.475-.51,6.83,6.83,0,0,0,.961-1.777,4.97,4.97,0,0,0,3.432,3.065,6.538,6.538,0,0,0,1.093.206l-.324.006c-.1,0-.2.006-.294.011l-.133,0a5.116,5.116,0,0,0-3.181,1.063A4.427,4.427,0,0,0,58.142,930.017Zm16.913-17.579a5.08,5.08,0,0,0,1.239.976c-.093.081-.195.146-.283.234-.073.072-.142.146-.209.223a5.215,5.215,0,0,0-.7,1.07,5,5,0,0,0-1.395-1.269c-.034-.021-.069-.041-.1-.061a5.77,5.77,0,0,0-5.76.077,5.025,5.025,0,0,0-1.6-.627,9.393,9.393,0,0,0,3.884-2.6,7.8,7.8,0,0,0,1.182-1.652,6.511,6.511,0,0,0,2.891-1.907,5.411,5.411,0,0,0-.473,2.223A4.839,4.839,0,0,0,75.055,912.438Zm-.044,24.941-.212-.06a4.534,4.534,0,0,0,.244-.756v.827Z" fill="#fff"/></g><g id="Text"><path d="M427.617,394.66v-.012c-.008-.092-.015-.165-.023-.219a.839.839,0,0,0-.046-.207,3.74,3.74,0,0,0-.184-.392.663.663,0,0,1-.1-.15.5.5,0,0,1-.046-.069,2.048,2.048,0,0,1-.127-.242.2.2,0,0,1-.011-.15.136.136,0,0,1,.069-.115.368.368,0,0,1,.184-.069.479.479,0,0,1,.173.023,6.6,6.6,0,0,1,.691.254q.346.207.622.38a.607.607,0,0,1,.116.161.652.652,0,0,1,.034.208c.016.184.027.372.035.564v.277q-.012.195-.012.288l.761-.3a.287.287,0,0,1,.127-.035.653.653,0,0,1,.138.023q.312.128.645.289a4.578,4.578,0,0,1,.553.415c.016.015.023.026.023.034v.058a.064.064,0,0,1-.023.046l-.011.011a.086.086,0,0,1-.034.012l-2.155.472c-.008.116-.012.25-.012.4v.633c0,.054,0,.139.012.254,0,.177,0,.311.011.4a2.978,2.978,0,0,0,.023.381,2.771,2.771,0,0,1,.311.127c.061.022.162.061.3.115l.277.126c.1.047.2.092.311.138a1.09,1.09,0,0,0,.38.173,1.384,1.384,0,0,0,.392.115.36.36,0,0,1,.138.047.559.559,0,0,1,.057.035.322.322,0,0,0,.07.034,3.188,3.188,0,0,1,.507.53,3.248,3.248,0,0,1,.311.668.338.338,0,0,1,0,.173.542.542,0,0,1-.1.116l-.23.172a.276.276,0,0,1-.173.035.176.176,0,0,1-.161-.1,6.26,6.26,0,0,0-1.072-.9,5.8,5.8,0,0,0-1.268-.634,1.415,1.415,0,0,1-.08.692,1.62,1.62,0,0,1-.369.611,3.393,3.393,0,0,1-1.049.507,3.792,3.792,0,0,1-1.152.161.527.527,0,0,1-.185-.035.293.293,0,0,1-.161-.126,3.76,3.76,0,0,0-.311-.38q-.15-.115-.369-.3a2.17,2.17,0,0,1-.484-.346,1.577,1.577,0,0,1-.323-.484,2.342,2.342,0,0,1,.461-.7,2.372,2.372,0,0,1,.68-.437,4.053,4.053,0,0,1,1.038-.3,6.1,6.1,0,0,1,1.083-.023Zm-1.5,5.116a1.936,1.936,0,0,1,.346.184.229.229,0,0,0,.184.081.282.282,0,0,0,.2-.023,2.555,2.555,0,0,0,.4-.185,2.591,2.591,0,0,0,.356-.241.478.478,0,0,0,.185-.242.57.57,0,0,0,.092-.266,4.125,4.125,0,0,0-1.106.082,3.4,3.4,0,0,0-1.014.426C425.916,399.668,426.035,399.73,426.119,399.776Z" fill="#000000"/><path d="M438.068,396.757a.45.45,0,0,0,.2-.058,3.2,3.2,0,0,0,.553-.253,5.383,5.383,0,0,0,.518-.334,3.889,3.889,0,0,1,.519-.3,3.36,3.36,0,0,1,.564-.185,2.335,2.335,0,0,1,.4-.034,3.106,3.106,0,0,1,.4.092,1.753,1.753,0,0,1,.45.277,2.264,2.264,0,0,1,.38.38,4.646,4.646,0,0,1,.23.45,2.659,2.659,0,0,1,.139.5,4.221,4.221,0,0,1-.024,1.164,4.9,4.9,0,0,1-.345,1.118,4.5,4.5,0,0,1-.38.622,2.4,2.4,0,0,1-.508.53,2.258,2.258,0,0,1-.576.369,3.053,3.053,0,0,1-.645.219,2.723,2.723,0,0,1-.277.069c-.1.023-.188.042-.265.058-.207.038-.395.068-.564.092-.092.015-.2.03-.323.046-.077.007-.184.019-.323.034-.1.008-.173.016-.218.023-.093.008-.173.015-.243.023a12.516,12.516,0,0,0,1.43-.887,12.219,12.219,0,0,0,1.325-1.06,3.04,3.04,0,0,0,.4-.484,2,2,0,0,0,.276-.565c.016-.054.039-.145.07-.276v-.277l-.047-1.463a.051.051,0,0,1-.011-.035.17.17,0,0,1-.046-.034h-.046a.111.111,0,0,0-.035.023c-.092.061-.222.146-.391.253l-.265.2c-.216.138-.442.281-.68.426a.532.532,0,0,1-.162.047.341.341,0,0,1-.2.011,4.813,4.813,0,0,1-.991-.265.591.591,0,0,1-.311-.2.754.754,0,0,1-.207-.334A.8.8,0,0,0,438.068,396.757Zm1.74-2.616a1.263,1.263,0,0,1,.115-.127c.038-.061.069-.107.092-.138a.063.063,0,0,0,.012-.046.178.178,0,0,0-.012-.046l-.011-.012a4.213,4.213,0,0,1-.565-.541l-.011-.012c-.216-.23-.4-.434-.542-.611.108.008.226.016.357.023l.358.035c.1.008.214.023.345.046l.334.069a1.057,1.057,0,0,1,.3.1c.03.015.073.039.127.069a1.261,1.261,0,0,0,.115.092c.131.108.222.189.277.243a3.1,3.1,0,0,1,.23.3.462.462,0,0,1,.058.162.332.332,0,0,1-.058.172.391.391,0,0,1-.069.116l-.058.057a.151.151,0,0,0-.035.023.246.246,0,0,1-.161.069.254.254,0,0,1-.173-.011.382.382,0,0,1-.172-.035.648.648,0,0,1-.162-.023,2.927,2.927,0,0,0-.3.011.928.928,0,0,0-.265.1q-.1.069-.15.093l-.069.034-.081.046A2.9,2.9,0,0,1,439.808,394.141Z" fill="#000000"/><path d="M517.992,399.415A5.54,5.54,0,0,1,517,401a.577.577,0,0,1-.426.142.508.508,0,0,1-.318-.1,2.052,2.052,0,0,1-.756-.933,2.167,2.167,0,0,1-.118-.33,2.129,2.129,0,0,1-.095-.591v-.272l-.814,1.3a.337.337,0,0,1-.308.154c-.165,0-.307-.143-.413-.437a1.729,1.729,0,0,1-.13-.662.275.275,0,0,1,.06-.189s.5-.709,1.5-2.126a.671.671,0,0,1-.743-.094l-.922-.922c-.012,0-.024-.011-.024-.035a.2.2,0,0,1,.024-.059l.023-.012q.072,0,.744-.035c.2-.048.5-.118.886-.2.189-.024.484-.059.886-.13.141-.283.3-.567.461-.862a3.255,3.255,0,0,0,.378-.9c0-.047-.024-.129-.047-.259-.025-.013-.025-.059-.025-.142s.036-.118.118-.165l.083.011c.568.5.851.909.851,1.264a1.25,1.25,0,0,1-.26.567c-.13.177-.26.342-.378.508a2.265,2.265,0,0,1,1.216,2.114A4.717,4.717,0,0,1,517.992,399.415Zm-.744-2.929a.6.6,0,0,0-.048-.059,1.177,1.177,0,0,0-.26-.024c-.023,0-.093.012-.211.024l-1.076,1.865a1.828,1.828,0,0,0,.543,1.371.109.109,0,0,0,.083.035.133.133,0,0,0,.1-.035,3.093,3.093,0,0,0,.7-1.146,4.092,4.092,0,0,0,.237-1.334A4.672,4.672,0,0,0,517.248,396.486ZM521.122,399q-.639,0-.992-.814c-.166-.449-.331-.886-.484-1.335-.095-.165-.213-.354-.367-.591q-.354-.513-.389-.567a.366.366,0,0,1-.083-.212.089.089,0,0,1,.023-.071,1.088,1.088,0,0,1,.449.094,5.145,5.145,0,0,1,1.063.815,7.182,7.182,0,0,1,.886,1.028,1.844,1.844,0,0,1,.224.933C521.452,398.765,521.334,399,521.122,399Zm-.484-3.626c-.107,0-.331-.188-.662-.566a1.377,1.377,0,0,1-.26-.272,2.316,2.316,0,0,1-.248-.319v-.047c.024,0,.036-.012.048-.012a1.382,1.382,0,0,1,1.405.9.1.1,0,0,0,.012.059v.059C520.933,395.316,520.826,395.375,520.638,395.375Zm.661-.885a.947.947,0,0,1-.555-.343,2.728,2.728,0,0,1-.473-.52v-.058c.012-.012.024-.024.036-.024a2.179,2.179,0,0,1,.815.236c.365.166.555.331.555.5C521.677,394.419,521.547,394.49,521.3,394.49Z" fill="#000000"/><path d="M528.688,394.925a16.246,16.246,0,0,1,2.04-1.429l-.092-.173a.148.148,0,0,1-.012-.127c.008-.038.038-.065.093-.08a.648.648,0,0,1,.149-.012l.139.069a3.328,3.328,0,0,1,.472.507,2.323,2.323,0,0,1,.345.588.306.306,0,0,1,0,.207.262.262,0,0,1-.115.15,16.546,16.546,0,0,0-2.154,1.233,16.235,16.235,0,0,0-1.89,1.567c.146.093.3.189.461.288s.342.219.519.334l.518.335q.449.31.726.518c.268.184.51.362.725.53a2.22,2.22,0,0,1,.566.646,2.7,2.7,0,0,1,.288.818v.092a.223.223,0,0,1-.081.081.49.49,0,0,1-.2.092.527.527,0,0,1-.252-.012c-.078-.022-.147-.046-.208-.069a1.367,1.367,0,0,1-.219-.069.625.625,0,0,1-.219-.127,1.091,1.091,0,0,1-.161-.173,14.377,14.377,0,0,0-1.464-1.625,14.538,14.538,0,0,0-1.717-1.359.414.414,0,0,1-.081-.081.144.144,0,0,1-.046-.1,1.345,1.345,0,0,1-.034-.289,1.587,1.587,0,0,1,0-.276.378.378,0,0,1,.034-.162,1.128,1.128,0,0,1,.081-.138A17.021,17.021,0,0,1,528.688,394.925Z" fill="#000000"/><path d="M601.752,394.176a1.9,1.9,0,0,0,.058-.426,1.8,1.8,0,0,0-.036-.4l-.091-.4a.046.046,0,0,1-.012-.035.142.142,0,0,1,.034-.023.033.033,0,0,1,.024-.011h.034l.4.334a3.5,3.5,0,0,1,.335.415.934.934,0,0,1,.161.38,1.511,1.511,0,0,1,.012.4.725.725,0,0,0-.024.115c-.015.054-.027.093-.034.116-.023.069-.051.138-.081.207a3.159,3.159,0,0,1,.692.058,2.2,2.2,0,0,1,.633.253.909.909,0,0,1,.219.184,1.491,1.491,0,0,1,.1.265.351.351,0,0,1-.046.15.279.279,0,0,1-.138.093l-1.891.391-2.062,4.887a.272.272,0,0,1-.173.172.288.288,0,0,1-.253,0,.455.455,0,0,1-.242-.2.49.49,0,0,1-.093-.3c0-.039,0-.1-.011-.173s-.015-.123-.023-.162a1.576,1.576,0,0,1-.023-.173c-.015-.068-.027-.126-.035-.172a.213.213,0,0,1,.024-.2.279.279,0,0,1,.173-.138l1.486-3.342a1.815,1.815,0,0,1-1.464-.968.359.359,0,0,0,.2.081.319.319,0,0,0,.207,0l1.6-.438Zm.887,5.681a.832.832,0,0,0,.6.219h.749a4.348,4.348,0,0,0,.761-.1h.149c.024,0,.066,0,.127.011a.084.084,0,0,0,.035.012,2.564,2.564,0,0,0,.265.081c.084.015.173.034.265.057.077.031.181.07.311.116a.962.962,0,0,0,.219.08,1.983,1.983,0,0,1,.173.173.619.619,0,0,1,.08.219v.242a1.69,1.69,0,0,1-.08.207.243.243,0,0,1-.139.139.385.385,0,0,1-.149.08.2.2,0,0,1-.046.012q-.381.034-.8.035a3.742,3.742,0,0,1-.4-.023c-.092-.008-.235-.024-.426-.047a4.6,4.6,0,0,1-.784-.219,2.571,2.571,0,0,1-.737-.392,1.233,1.233,0,0,1-.461-.622,1.34,1.34,0,0,1-.08-.749A.839.839,0,0,0,602.639,399.857Zm-.161-2.812a.742.742,0,0,1,.2-.115,4.957,4.957,0,0,1,.714-.254c.169-.038.3-.065.381-.08.129-.031.256-.058.379-.081a1.547,1.547,0,0,0,.185-.046,1.208,1.208,0,0,0,.23-.069.372.372,0,0,1,.162-.046.429.429,0,0,1,.172.034l.7.323a.616.616,0,0,1,.218.173.5.5,0,0,1,.035.276.412.412,0,0,1-.023.127.065.065,0,0,0-.012.046.731.731,0,0,1-.046.081,3.94,3.94,0,0,0-1.694.265,4.46,4.46,0,0,0-1.452.933c.1-.184.2-.353.3-.507.046-.077.127-.192.242-.346a1.542,1.542,0,0,0,.1-.138,4.033,4.033,0,0,1-.46-.184.452.452,0,0,1-.1-.058,2.393,2.393,0,0,1-.357-.161A.562.562,0,0,1,602.478,397.045Zm2.074-3.411c.138.062.238.1.3.127s.149.073.264.127a1.2,1.2,0,0,1,.139.069c.03.023.065.05.1.081s.078.065.092.08a.469.469,0,0,1,.139.2.505.505,0,0,1,.034.15.033.033,0,0,1,.012.023c.023.076.038.131.046.161a.138.138,0,0,1-.035.081l-.023.034a.289.289,0,0,1-.034.047.143.143,0,0,1-.1.034.115.115,0,0,1-.081-.023.485.485,0,0,1-.2-.15.333.333,0,0,1-.15-.2c-.031-.053-.08-.134-.15-.242-.015-.023-.043-.057-.081-.1a1.052,1.052,0,0,0-.1-.091,1.525,1.525,0,0,1-.15-.22.989.989,0,0,1-.127-.218A.453.453,0,0,0,604.552,393.634Zm.9-.322a2.077,2.077,0,0,0,.22.08c.06.023.161.066.3.127a2.3,2.3,0,0,1,.242.081.219.219,0,0,1,.058.046.176.176,0,0,1,.023.069v.2a.044.044,0,0,1-.012.034c-.008.077-.011.131-.011.161a.209.209,0,0,1-.116.127.239.239,0,0,1-.2.012.357.357,0,0,1-.139-.1.27.27,0,0,1-.1-.15.741.741,0,0,0-.115-.207.9.9,0,0,0-.151-.161.684.684,0,0,1-.173-.208,1.833,1.833,0,0,1-.161-.219A3.333,3.333,0,0,0,605.45,393.312Z" fill="#000000"/><path d="M614.588,393.392a2.233,2.233,0,0,1,.368.669,1.226,1.226,0,0,1,.035.3.677.677,0,0,1-.081.3q-.357.564-.68,1.129-.15.288-.311.565c-.107.2-.215.4-.322.587a2.211,2.211,0,0,1,.264-.115l.1-.034a.915.915,0,0,1,.15-.046,2.168,2.168,0,0,1,.277-.012,1.277,1.277,0,0,1,.23.035.037.037,0,0,0,.024.011,2.6,2.6,0,0,1,.31.173c.016.015.042.038.081.069.076.069.134.119.173.15a1.549,1.549,0,0,1,.357.518,2.076,2.076,0,0,1,.116.622v.012a2.368,2.368,0,0,0-.024.254c-.015.108-.027.184-.034.23a3.7,3.7,0,0,0-.047.611,5.436,5.436,0,0,0,.035.6.063.063,0,0,0,.058.069.139.139,0,0,0,.1.035,1.053,1.053,0,0,0,.3-.023.61.61,0,0,0,.311-.127,3.628,3.628,0,0,0,.277-.242,1.679,1.679,0,0,0,.253-.265,9.721,9.721,0,0,0,.91-1.544,10.541,10.541,0,0,0,.646-1.706,7.19,7.19,0,0,1,.173,1.2,6.374,6.374,0,0,1-.058,1.187,3.2,3.2,0,0,1-.207.726,2.248,2.248,0,0,1-.173.357c-.039.077-.1.188-.185.334a2.4,2.4,0,0,1-.46.611,3.183,3.183,0,0,1-.611.5,1.717,1.717,0,0,1-.876.253,1.182,1.182,0,0,1-.576-.138,1.511,1.511,0,0,1-.5-.358,1.779,1.779,0,0,1-.276-.438,1.314,1.314,0,0,1-.127-.5c-.008-.154-.011-.307-.011-.461,0-.131.007-.28.022-.449a7.014,7.014,0,0,1,.093-.911,2.6,2.6,0,0,0,.023-.3,1.317,1.317,0,0,0-.023-.288v-.012a.178.178,0,0,1-.012-.046.2.2,0,0,1-.035-.046.512.512,0,0,0-.1-.081.418.418,0,0,0-.046-.034.427.427,0,0,1-.058-.024h-.057a.1.1,0,0,0-.035.012h-.011a7.666,7.666,0,0,0-.992.841,6.717,6.717,0,0,0-.806,1q-.128.173-.288.426c-.085.154-.169.308-.254.461-.038.054-.076.111-.115.173q-.322.541-.645,1.1a1.538,1.538,0,0,1-.645-.588,1.491,1.491,0,0,1-.266-.83.791.791,0,0,1,.035-.265c.015-.061.038-.138.069-.23a.148.148,0,0,1,.069-.092.228.228,0,0,1,.1-.047.225.225,0,0,0,.116-.046.261.261,0,0,0,.068-.08c.123-.231.258-.48.4-.749.139-.238.278-.48.415-.726s.288-.488.427-.726q.241-.4.449-.738a2.123,2.123,0,0,0,.127-.219c.108-.168.215-.338.322-.507.116-.2.215-.38.3-.541.115-.192.231-.407.346-.646q.15-.276.346-.656a.817.817,0,0,0,.069-.266,1.334,1.334,0,0,0,0-.253l-.023-.173v-.023l.011-.012.012-.011h.034A2.9,2.9,0,0,1,614.588,393.392Z" fill="#000000"/><path d="M515.779,494.228l-.63,2.063-.8,2.973c.7,0,1.258.035,1.643.07.315.034.8.14,1.434.279.559.14.84.316.84.525l-.071.245-.454.07-1.539-.141a17.4,17.4,0,0,0-2.413-.139H512.7a14.383,14.383,0,0,0-1.643.139l-1.538.141-.385-.07a.6.6,0,0,1-.106-.245c0-.175.21-.35.63-.49a21.157,21.157,0,0,1,2.658-.384l1.4-2.868,1.574-3.637,5.176-12.94-.945-2.133-.874-1.679,2.8-1.224c.1.384.209.8.315,1.224.21.734.489,1.608.839,2.588.455,1.224.875,2.273,1.224,3.147q.263.682.945,2.2l3.917,9.443,1.4,3.323,1.294,2.553c.525.07,1.05.139,1.5.174.875.106,1.784.315,1.784.7a.491.491,0,0,1-.14.245l-.42.07-.7-.07q-2.151-.21-4.093-.21-1.782,0-3.881.21l-.77.07-.419-.07a.609.609,0,0,1-.105-.245c0-.175.28-.35.8-.525a6.281,6.281,0,0,1,.8-.139,14.817,14.817,0,0,1,2.308-.21c-.175-.77-.385-1.469-.595-2.1-.21-.594-.524-1.469-.979-2.553l-.07-.244-.839-1.959h-9.129Zm9.583-2.588L520.955,480.9l-4.2,10.737Z" fill="#000000"/><path d="M538.936,497.445l.14,1.748c.454.106.909.175,1.363.281.42.1.665.174.77.21.385.1.56.245.56.42a.5.5,0,0,1-.14.244l-.42.07-1.224-.106-2.169-.1-2.168.1-1.224.106-.419-.07a.435.435,0,0,1-.14-.244c0-.175.175-.316.559-.42a2.507,2.507,0,0,1,.525-.14c.839-.176,1.363-.315,1.609-.351l.1-1.783.07-1.469-.1-21.158v-.7a2.119,2.119,0,0,0-.175-.629.52.52,0,0,0-.49-.28c-.454,0-1.294.629-1.609.629l-.209-.07-.071-.105a1.029,1.029,0,0,1,.28-.664,5.386,5.386,0,0,1,.945-.7l1.853-.945a3.258,3.258,0,0,1,1.329-.349.49.49,0,0,1,.419.279,2.022,2.022,0,0,1,.141.944l-.141,23.747Zm3.043-3.742.629.8a8.99,8.99,0,0,0,3.183-1.573,2.646,2.646,0,0,0,1.084-2.029,1.693,1.693,0,0,0-.63-1.364,2.929,2.929,0,0,0-1.783-.489,6.935,6.935,0,0,0-2.693.629l-1.574.63-.175-.07c-.035-.035-.035-.1-.07-.21a.408.408,0,0,1,.245-.385l1.084-.665a18.422,18.422,0,0,1,2.378-.909,10.252,10.252,0,0,1,2.029-.28,3.928,3.928,0,0,1,2.518.7,2.285,2.285,0,0,1,.944,1.959c0,1.783-1.749,3.147-5.911,4.686.805.909,1.259,1.4,1.329,1.5a20.539,20.539,0,0,0,1.749,1.749q1.206,1.048,1.679,1.048a1.2,1.2,0,0,0,.8-.454,2.181,2.181,0,0,1,.42-.315,2.265,2.265,0,0,1,.21-.14l.175.071.07.21c0,.279-.245.664-.77,1.188a2.434,2.434,0,0,1-1.539.7c-1.678,0-4.127-1.853-8.044-6.19Z" fill="#000000"/><path d="M552.193,489.086l-1.678-.349c-.315-.175-.454-.315-.454-.42a.484.484,0,0,1,.139-.245l.419-.07.98.07,1.678.105,1.714-.105.98-.07.42.07a.443.443,0,0,1,.139.245c0,.14-.139.28-.455.42l-1.469.385,3.6,9.582a33.991,33.991,0,0,0,1.924-4.756,23.932,23.932,0,0,0,1.153-4.862,3.792,3.792,0,0,1-.734-.174,2.272,2.272,0,0,1-.735-.245c-.21-.1-.314-.21-.314-.35l.1-.245.42-.07.91.07,1.364.07,1.4-.07.875-.07.419.07a.438.438,0,0,1,.141.245c0,.105-.141.245-.42.385l-1.5.384c-.63,1.574-1.049,2.623-1.259,3.218-.455,1.084-.84,2.029-1.224,2.833-.385.84-.7,1.609-1.014,2.343-.385.735-.63,1.224-.77,1.469l-2.378,4.616-.07.14c-1.574,2.973-2.833,4.441-3.847,4.441a1.584,1.584,0,0,1-1.154-.489,1.663,1.663,0,0,1-.455-1.223,1.92,1.92,0,0,1,.42-1.294,1.427,1.427,0,0,1,1.049-.455,1.29,1.29,0,0,1,.91.245,1.836,1.836,0,0,1,.419.734c.665-.28,1.679-1.714,3.113-4.476Z" fill="#000000"/><path d="M570.767,498.354a2.189,2.189,0,0,0,1.923.839,4.914,4.914,0,0,0,.8-.069,6.771,6.771,0,0,0,1.015-.28,12.7,12.7,0,0,0,2.378-1.049v-5.806l-.035-1.364-.175-1.259-1.923.105h-.21a.5.5,0,0,1-.315-.07l-.105-.21c0-.244.279-.384.874-.489l.8-.14a17.032,17.032,0,0,0,1.924-.6l1.013-.419a1.087,1.087,0,0,1,.281.244,1.744,1.744,0,0,1,.069.525v8.463l.07,1.4a4.534,4.534,0,0,0,.175,1.049l1.749.209h.175c.385.036.6.175.6.35a.338.338,0,0,1-.246.35,2.532,2.532,0,0,1-.874.105h-.525a11.715,11.715,0,0,0-1.294.035c-.244.034-.629.07-1.154.14l-.454.035c-.106,0-.175-.07-.281-.21a.88.88,0,0,1-.139-.595v-1.119c-3.077,1.575-4.722,2.168-5.736,2.168a2.818,2.818,0,0,1-2.448-.978,6.633,6.633,0,0,1-.734-3.568v-5.106a2.606,2.606,0,0,1-.071-.42l-.139-1.259-1.924.105h-.21a.493.493,0,0,1-.314-.07l-.105-.21c0-.244.279-.384.874-.489l.8-.14c.385-.105.664-.175.874-.245a7.055,7.055,0,0,0,1.014-.35l1.049-.419c.28.175.35.314.35.769v7.45A4.628,4.628,0,0,0,570.767,498.354Z" fill="#000000"/><path d="M588.187,475.9a1.573,1.573,0,0,1,.455,1.294,3.245,3.245,0,0,1-.35,1.469,11.266,11.266,0,0,1-1.154,2.1c-.175.28-.42.594-.665.944-.28.385-.525.665-.7.875a2.371,2.371,0,0,1-.769.664l-.175-.1-.069-.21.839-1.818a7.413,7.413,0,0,0,.909-3.113,1.133,1.133,0,0,0-.315-.839.88.88,0,0,0-.769-.28h-.489l-.21-.035-.071-.245q0-.263.735-.734a2.723,2.723,0,0,1,1.434-.42A1.841,1.841,0,0,1,588.187,475.9Z" fill="#000000"/><path d="M592.77,500.838l-.246.594a.426.426,0,0,1-.314.14l-.175-.07-.07-.245.175-1.049a8.692,8.692,0,0,0,.174-1.889l-.1-1.4-.07-.98.07-.314a.53.53,0,0,1,.21-.141c.244,0,.419.6.524,1.749l.07.735a7.634,7.634,0,0,0,1.924.979,5.953,5.953,0,0,0,2.133.385c1.819,0,3.042-.734,3.042-1.994,0-.909-.874-1.5-2.588-1.748l-1.188-.175a6.7,6.7,0,0,1-3.358-1.259,3.09,3.09,0,0,1-.944-2.449,3.593,3.593,0,0,1,1.259-2.832,4.631,4.631,0,0,1,3.253-1.085h.664a7.593,7.593,0,0,1,.944.105,8.906,8.906,0,0,1,1.819.525l.139-.455a1.858,1.858,0,0,1,.21-.594.434.434,0,0,1,.281-.175l.174.07.105.245-.175.944-.1,1.749.069,1.644v.209a.7.7,0,0,1-.069.315l-.21.1c-.21,0-.35-.455-.456-1.364l-.1-.735a8.731,8.731,0,0,0-.944-.664c-.385-.21-.735-.384-1.049-.525a5.676,5.676,0,0,0-2.134-.419,2.8,2.8,0,0,0-1.853.594,1.791,1.791,0,0,0-.735,1.469c0,.874.8,1.4,2.448,1.609l1.539.28c2.973.454,4.126,1.539,4.126,3.5a3.994,3.994,0,0,1-1.468,3.182,5.445,5.445,0,0,1-3.777,1.294l-1.294-.1-1.749-.35Z" fill="#000000"/><path d="M613.337,476.182l.105-.245.419-.105,1.539.175a22.416,22.416,0,0,0,2.729.139h1.608c.49-.069.839-.1,1.049-.139l1.539-.175.42.105.105.245c0,.174-.245.349-.7.489a6.518,6.518,0,0,1-.944.175c-1.014.175-1.573.245-1.608.245l-.455,13.184-.036.665v.63c0,3.077.491,5.245,1.469,6.539s2.658,1.959,5.071,1.959a8.456,8.456,0,0,0,4.267-1.014,6.27,6.27,0,0,0,2.589-2.867,11.726,11.726,0,0,0,.7-2.8c.069-.559.14-1.224.175-1.958s.07-1.609.07-2.588v-3.5c0-.664,0-1.189-.035-1.608-.105-1.644-.141-2.553-.141-2.693,0-.56,0-1.015-.034-1.364s-.175-1.224-.42-2.588c-2.762-.28-3.463-.525-3.463-.909l.106-.245a1.086,1.086,0,0,1,.42-.105l1.259.14,2.413.105,2.378-.105,1.294-.14a.462.462,0,0,1,.349.105c.106.035.141.1.141.245s-.141.279-.455.419c-.385.105-1.119.28-2.274.49a31.394,31.394,0,0,0-.384,3.5q-.105,1.941-.105,3.567v.385l-.035.875-.175,3.846-.07.875a25.158,25.158,0,0,1-.279,3.917,10.664,10.664,0,0,1-.84,2.693,6.747,6.747,0,0,1-3.007,3.077,10.556,10.556,0,0,1-4.9,1.049,9.9,9.9,0,0,1-4.547-.978,6.6,6.6,0,0,1-2.937-2.659,8.117,8.117,0,0,1-.8-2.553,33.991,33.991,0,0,1-.279-5.211v-12.38C614.106,476.811,613.337,476.566,613.337,476.182Z" fill="#000000"/><path d="M644.713,497.515l.176,1.714c.524.105.978.174,1.363.245.385.1.7.174.944.245.245.1.35.21.35.385l-.105.244-.42.07-1.223-.106-2.169-.1-2.2.1-1.19.106-.454-.07a.605.605,0,0,1-.1-.244c0-.175.175-.316.558-.42a14.556,14.556,0,0,1,2.134-.455l.105-1.574v-5.666l-.035-1.364a4.923,4.923,0,0,0-.035-.7,5.493,5.493,0,0,0-.105-.56l-1.958.105h-.175a.74.74,0,0,1-.35-.07l-.07-.21c0-.21.315-.384.909-.489l.805-.14c.314-.07.6-.14.839-.21.21-.07.559-.21,1.014-.385l1.015-.419a2.3,2.3,0,0,1,.315.21c.035.034.035.1.035.209V490.1c.454-.245,1.013-.525,1.714-.84a22.109,22.109,0,0,1,2.2-.979,7.507,7.507,0,0,1,2.168-.49,2.918,2.918,0,0,1,2.518.98,6.474,6.474,0,0,1,.7,3.5v3.672l.036,1.749.1,1.539a18.248,18.248,0,0,1,2.168.455c.315.1.49.245.49.42l-.105.244-.419.07-1.225-.106-2.168-.1-2.2.1-1.189.106-.42-.07a.442.442,0,0,1-.14-.244c0-.175.14-.316.385-.385s.63-.175,1.154-.281.909-.209,1.155-.245l.1-1.713.07-1.539v-3.287a4.483,4.483,0,0,0-.594-2.588,2.31,2.31,0,0,0-1.924-.8,5.84,5.84,0,0,0-2.029.42,15.52,15.52,0,0,0-2.552,1.154v5.106Z" fill="#000000"/><path d="M659.824,489.366l-1.433.071-.735.139v-1.294l.874.175,1.294.035h.77l-.071-7.309v-.21h2.484l-.279,4.2-.106,3.323H664.3l1.784-.035,1.294-.175-.035,1.294-1.05-.139-1.993-.071h-1.679l-.175,5.561v.594a4.98,4.98,0,0,0,.49,2.624,1.61,1.61,0,0,0,1.574.769,3.034,3.034,0,0,0,1.888-.665l.98-.664.209.105.105.245c0,.384-.489.944-1.5,1.678a6.109,6.109,0,0,1-1.468.805,4.413,4.413,0,0,1-1.5.279,2.572,2.572,0,0,1-2.238-.978,6.155,6.155,0,0,1-.665-3.288v-.664l.209-6.4Z" fill="#000000"/><path d="M681.2,498.669a7.969,7.969,0,0,1-5.631,2.1,6.175,6.175,0,0,1-4.372-1.539,5.346,5.346,0,0,1-1.643-4.092,6.788,6.788,0,0,1,2.308-5.316,8.511,8.511,0,0,1,5.841-2.063,5.646,5.646,0,0,1,4.232,1.574,5.968,5.968,0,0,1,1.539,4.266A6.62,6.62,0,0,1,681.2,498.669Zm-.174-4.336a7.234,7.234,0,0,0-1.12-4.3,3.618,3.618,0,0,0-3.113-1.5,4.383,4.383,0,0,0-3.532,1.5,5.9,5.9,0,0,0-1.328,3.987,6.734,6.734,0,0,0,1.259,4.336,3.883,3.883,0,0,0,3.251,1.575C679.377,499.929,681.021,497.8,681.021,494.333Z" fill="#000000"/><path d="M690.676,498.354a2.192,2.192,0,0,0,1.924.839,4.911,4.911,0,0,0,.8-.069,6.8,6.8,0,0,0,1.015-.28A12.669,12.669,0,0,0,696.8,497.8v-5.806l-.035-1.364-.175-1.259-1.923.105h-.21a.5.5,0,0,1-.315-.07l-.105-.21c0-.244.279-.384.874-.489l.8-.14a16.97,16.97,0,0,0,1.924-.6l1.013-.419a1.069,1.069,0,0,1,.281.244,1.712,1.712,0,0,1,.069.525v8.463l.07,1.4a4.534,4.534,0,0,0,.175,1.049l1.749.209h.175c.385.036.594.175.594.35a.337.337,0,0,1-.244.35,2.542,2.542,0,0,1-.875.105h-.525a11.715,11.715,0,0,0-1.294.035c-.244.034-.629.07-1.154.14l-.454.035c-.106,0-.175-.07-.28-.21a.874.874,0,0,1-.14-.595v-1.119c-3.077,1.575-4.722,2.168-5.735,2.168a2.821,2.821,0,0,1-2.449-.978,6.633,6.633,0,0,1-.734-3.568v-5.106a2.585,2.585,0,0,1-.07-.42l-.14-1.259-1.924.105h-.209a.5.5,0,0,1-.315-.07l-.105-.21c0-.244.28-.384.874-.489l.8-.14c.385-.105.664-.175.874-.245a7.057,7.057,0,0,0,1.015-.35l1.048-.419c.281.175.35.314.35.769v7.45A4.628,4.628,0,0,0,690.676,498.354Z" fill="#000000"/><path d="M711.488,489.156a5.14,5.14,0,0,0-2.133-.489,3.324,3.324,0,0,0-3.5,2.518,4.58,4.58,0,0,0-.314,1.749,6.265,6.265,0,0,0,1.5,4.3,4.548,4.548,0,0,0,3.637,1.784,4.471,4.471,0,0,0,1.678-.315,4.076,4.076,0,0,0,1.365-1.084l.384-.455c.21-.314.385-.489.525-.489l.175.07.07.209a1.438,1.438,0,0,1-.14.525,4.989,4.989,0,0,1-.35.629c-.14.175-.245.35-.315.455a5.592,5.592,0,0,1-4.651,2.133,5.517,5.517,0,0,1-4.127-1.748,6.019,6.019,0,0,1-1.679-4.337,6.763,6.763,0,0,1,1.889-4.826,6.085,6.085,0,0,1,4.651-1.994,11.477,11.477,0,0,1,2.623.35,7.541,7.541,0,0,1,.874.28l.035-.245c.175-.839.385-1.259.56-1.259l.21.105.07.175-.035.525a18.6,18.6,0,0,0-.21,2.728v.734c0,.21.07.734.175,1.539l.035.349a.5.5,0,0,1-.07.315l-.21.105c-.175,0-.315-.21-.419-.595a15.55,15.55,0,0,1-.316-2.273A7.3,7.3,0,0,0,711.488,489.156Z" fill="#000000"/><path d="M719.185,473.454a.576.576,0,0,0-.525-.28c-.524,0-1.329.629-1.643.629l-.175-.07-.071-.105a1.025,1.025,0,0,1,.281-.664,5.369,5.369,0,0,1,.944-.7l1.854-.945a3.25,3.25,0,0,1,1.329-.349.456.456,0,0,1,.419.244,3.135,3.135,0,0,1,.105.979L721.6,490.1c.455-.245,1.224-.6,2.238-1.084.735-.35,1.26-.595,1.644-.735a8.194,8.194,0,0,1,2.2-.49,2.975,2.975,0,0,1,2.483.945,6.451,6.451,0,0,1,.7,3.532v3.672l.035,1.749.105,1.539c.524.105.979.174,1.364.245.734.174,1.329.245,1.329.63a.5.5,0,0,1-.14.244l-.419.07-1.225-.106-2.168-.1-2.169.1-1.224.106-.419-.07a.442.442,0,0,1-.14-.244c0-.385.524-.42,1.539-.666.524-.1.909-.209,1.154-.245l.14-1.748.035-1.5v-3.287a4.528,4.528,0,0,0-.6-2.623,2.245,2.245,0,0,0-1.923-.77,6,6,0,0,0-2.029.42,14.637,14.637,0,0,0-2.518,1.154v5.106l.035,1.574.14,1.678c.455.106.874.175,1.329.281.419.1.665.174.769.21.385.1.56.245.56.42a.5.5,0,0,1-.14.244l-.385.07-1.223-.106-2.169-.1-2.168.1-1.225.106-.419-.07a.442.442,0,0,1-.14-.244c0-.175.175-.316.559-.42a19.356,19.356,0,0,1,2.1-.491l.105-1.783.07-1.469-.105-21.158A5.275,5.275,0,0,0,719.185,473.454Z" fill="#000000"/><path d="M738.912,497.48a4.291,4.291,0,0,0,3.428,1.539,3.654,3.654,0,0,0,3.008-1.4l.593-.7a1.889,1.889,0,0,1,.455-.455c.036-.035.071-.035.105-.07l.175.07.07.175a1.644,1.644,0,0,1-.245.7,5.775,5.775,0,0,1-.629.979,6.379,6.379,0,0,1-2.169,1.749,5.765,5.765,0,0,1-2.588.629,5.4,5.4,0,0,1-4.2-1.748,6.475,6.475,0,0,1-1.574-4.547,6.726,6.726,0,0,1,1.749-4.791,6.055,6.055,0,0,1,4.616-1.853,5.272,5.272,0,0,1,3.847,1.364,5.421,5.421,0,0,1,1.364,3.951v.455h-9.338A5.806,5.806,0,0,0,738.912,497.48Zm.7-4.651,2.694-.07a9.223,9.223,0,0,0,.979-.07,11.278,11.278,0,0,0,1.224-.175,4.664,4.664,0,0,0-.874-3.008,2.888,2.888,0,0,0-2.344-1.084,3.278,3.278,0,0,0-2.588,1.154,5.133,5.133,0,0,0-.769,1.434,4.957,4.957,0,0,0-.315,1.819Z" fill="#000000"/><path d="M758.4,473.488a.47.47,0,0,0-.491-.314,1.677,1.677,0,0,0-.874.314,1.819,1.819,0,0,1-.734.315l-.21-.034-.105-.141a1.048,1.048,0,0,1,.315-.664,3.513,3.513,0,0,1,.979-.7,11.832,11.832,0,0,1,1.889-.945,3.006,3.006,0,0,1,1.329-.349.514.514,0,0,1,.454.314,2.259,2.259,0,0,1,.14.909l-.244,24.9a5.944,5.944,0,0,0,.1,1.433.579.579,0,0,0,.56.245,1.68,1.68,0,0,0,1.189-.629c.244-.246.419-.385.49-.455a2.02,2.02,0,0,1,.28-.14l.175.07.069.21c0,.419-.489,1.014-1.469,1.748a4.534,4.534,0,0,1-2.553,1.119,1.15,1.15,0,0,1-.839-.279,1.461,1.461,0,0,1-.21-.874l.035-1.085a6.92,6.92,0,0,1-4.931,2.238,4.091,4.091,0,0,1-3.288-1.573,6.355,6.355,0,0,1-1.329-4.2,8.214,8.214,0,0,1,1.539-5.176,4.965,4.965,0,0,1,4.127-1.959,5.421,5.421,0,0,1,1.889.35,11.33,11.33,0,0,1,1.993,1.085l-.1-14.444A3.555,3.555,0,0,0,758.4,473.488Zm-1.575,15.529a3.8,3.8,0,0,0-1.783-.49,2.75,2.75,0,0,0-2.483,1.5,7.47,7.47,0,0,0-.945,3.987,7.566,7.566,0,0,0,.91,4.056,2.919,2.919,0,0,0,2.623,1.435,3.172,3.172,0,0,0,1.818-.525,5.366,5.366,0,0,0,1.714-1.644v-6.784A7.051,7.051,0,0,0,756.821,489.017Z" fill="#000000"/><path d="M776.971,501.048c-.071.279-.141.454-.245.489l-.246.105c-.1-.036-.174-.036-.209-.07l-.07-.21.07-.734a29.626,29.626,0,0,0,.455-5.281v-1.434c-.036-.315-.071-.559-.071-.735l-.1-1.294.07-.454a.262.262,0,0,1,.244-.175c.281,0,.6,1.4.98,4.231l.1.875a16.21,16.21,0,0,0,3.673,2.378,8.35,8.35,0,0,0,3.532.77,6.66,6.66,0,0,0,4.546-1.644,5.105,5.105,0,0,0,1.855-3.917,4.6,4.6,0,0,0-.281-1.539,2.348,2.348,0,0,0-.909-1.014c-.944-.665-2.833-1.189-5.6-1.574l-1.575-.245a8.348,8.348,0,0,1-4.791-1.993,5.4,5.4,0,0,1-1.643-4.162,7.619,7.619,0,0,1,2.343-5.771,8.28,8.28,0,0,1,5.945-2.2,11.659,11.659,0,0,1,2.938.385,15.96,15.96,0,0,1,3.007,1.049l.6-1.714c.1-.384.28-.56.49-.594l.21.07.034.245q-.051.576-.1.839a25.178,25.178,0,0,0-.56,5.316l.035,1.049.035.7a.968.968,0,0,1-.105.454.438.438,0,0,1-.245.14q-.734,0-.734-3.672v-.14a10.748,10.748,0,0,0-3.008-2.064,9.149,9.149,0,0,0-3.567-.7,6.685,6.685,0,0,0-4.511,1.574,4.831,4.831,0,0,0-1.854,3.777,3.155,3.155,0,0,0,1.189,2.658c.8.6,2.693,1.119,5.666,1.643l1.223.21a16.743,16.743,0,0,1,4.3,1.119,3.585,3.585,0,0,1,1.853,1.749,6.269,6.269,0,0,1,.7,2.938,7.751,7.751,0,0,1-2.554,5.98,9.114,9.114,0,0,1-6.4,2.379,13.645,13.645,0,0,1-2.973-.385,17.046,17.046,0,0,1-3.183-1.085Z" fill="#000000"/><path d="M804.708,489.156a5.141,5.141,0,0,0-2.134-.489,3.324,3.324,0,0,0-3.5,2.518,4.58,4.58,0,0,0-.314,1.749,6.265,6.265,0,0,0,1.5,4.3,4.547,4.547,0,0,0,3.636,1.784,4.472,4.472,0,0,0,1.679-.315,4.073,4.073,0,0,0,1.364-1.084l.385-.455c.21-.314.385-.489.524-.489l.175.07.071.209a1.46,1.46,0,0,1-.14.525,5.117,5.117,0,0,1-.35.629c-.14.175-.245.35-.315.455a5.592,5.592,0,0,1-4.651,2.133,5.517,5.517,0,0,1-4.127-1.748,6.015,6.015,0,0,1-1.679-4.337,6.763,6.763,0,0,1,1.889-4.826,6.083,6.083,0,0,1,4.651-1.994,11.477,11.477,0,0,1,2.623.35,7.48,7.48,0,0,1,.874.28l.035-.245c.175-.839.385-1.259.56-1.259l.21.105.07.175-.035.525a18.6,18.6,0,0,0-.21,2.728v.734c0,.21.07.734.175,1.539l.035.349a.5.5,0,0,1-.07.315l-.21.105c-.175,0-.315-.21-.419-.595a15.55,15.55,0,0,1-.316-2.273A7.283,7.283,0,0,0,804.708,489.156Z" fill="#000000"/><path d="M822.407,498.669a7.969,7.969,0,0,1-5.631,2.1,6.175,6.175,0,0,1-4.372-1.539,5.346,5.346,0,0,1-1.643-4.092,6.788,6.788,0,0,1,2.308-5.316,8.511,8.511,0,0,1,5.841-2.063,5.646,5.646,0,0,1,4.232,1.574,5.968,5.968,0,0,1,1.539,4.266A6.62,6.62,0,0,1,822.407,498.669Zm-.175-4.336a7.234,7.234,0,0,0-1.119-4.3,3.618,3.618,0,0,0-3.113-1.5,4.382,4.382,0,0,0-3.532,1.5,5.9,5.9,0,0,0-1.329,3.987,6.739,6.739,0,0,0,1.259,4.336,3.886,3.886,0,0,0,3.252,1.575C820.589,499.929,822.232,497.8,822.232,494.333Z" fill="#000000"/><path d="M829.579,497.69l.035-1.749v-3.952l-.035-1.364-.14-1.259-2.028.105h-.175a.735.735,0,0,1-.349-.07l-.071-.21c0-.21.315-.384.91-.489l.8-.14a12.884,12.884,0,0,0,1.714-.525l1.014-.384a.337.337,0,0,1,.315.209,3.554,3.554,0,0,1,.175,1.015l.035,3.392a11.377,11.377,0,0,1,1.993-3.392,2.913,2.913,0,0,1,2.2-1.085,2,2,0,0,1,1.259.385,1.474,1.474,0,0,1,.455,1.119,1.549,1.549,0,0,1-.384,1.05,1.313,1.313,0,0,1-1.015.454,1.579,1.579,0,0,1-.979-.384,2,2,0,0,0-.839-.455c-.664,0-1.294.629-1.819,1.889a11.645,11.645,0,0,0-.84,4.721v2.658c.56,0,1.085.035,1.61.07.978.139,2.413.349,2.413.805a.5.5,0,0,1-.141.244l-.384.07-.525-.035c-1.329-.1-2.482-.175-3.462-.175-.6,0-1.154,0-1.749.035s-1.224.069-1.818.14l-.454.035-.455-.07a.6.6,0,0,1-.106-.244c0-.141.176-.281.525-.42a16.007,16.007,0,0,1,2.239-.455Z" fill="#000000"/><path d="M842.452,497.48a4.291,4.291,0,0,0,3.428,1.539,3.653,3.653,0,0,0,3.008-1.4l.593-.7a1.876,1.876,0,0,1,.456-.455c.035-.035.07-.035.1-.07l.176.07.069.175a1.63,1.63,0,0,1-.245.7,5.838,5.838,0,0,1-.629.979,6.379,6.379,0,0,1-2.169,1.749,5.765,5.765,0,0,1-2.588.629,5.4,5.4,0,0,1-4.2-1.748,6.475,6.475,0,0,1-1.574-4.547,6.726,6.726,0,0,1,1.749-4.791,6.055,6.055,0,0,1,4.616-1.853,5.276,5.276,0,0,1,3.848,1.364,5.425,5.425,0,0,1,1.363,3.951v.455h-9.338A5.806,5.806,0,0,0,842.452,497.48Zm.7-4.651,2.694-.07a9.223,9.223,0,0,0,.979-.07,11.278,11.278,0,0,0,1.224-.175,4.664,4.664,0,0,0-.874-3.008,2.888,2.888,0,0,0-2.344-1.084,3.278,3.278,0,0,0-2.588,1.154,5.133,5.133,0,0,0-.769,1.434,4.978,4.978,0,0,0-.315,1.819Z" fill="#000000"/><path d="M871.2,488.912a2.66,2.66,0,0,1-.7-.21c-.175-.105-.28-.21-.28-.385l.07-.245.42-.07.874.07,1.364.07,1.4-.07.909-.07.385.07a.441.441,0,0,1,.14.245c0,.105-.14.245-.42.385l-1.469.384-1.888,3.848-.874,1.783-2.623,5.561-.141.28c-.175.384-.35.594-.524.594-.21,0-.42-.28-.664-.8l-4.862-11.262-1.609-.349c-.315-.14-.454-.28-.489-.42a.491.491,0,0,1,.139-.245l.42-.07.98.07,1.714.105,1.678-.105.979-.07.42.07.07.245c0,.175-.141.315-.42.42l-1.364.385,3.848,9.3,2.063-5.317.7-1.958.525-2.064A6.091,6.091,0,0,1,871.2,488.912Z" fill="#000000"/><path d="M887.679,498.669a7.97,7.97,0,0,1-5.631,2.1,6.173,6.173,0,0,1-4.372-1.539,5.346,5.346,0,0,1-1.644-4.092,6.788,6.788,0,0,1,2.309-5.316,8.511,8.511,0,0,1,5.841-2.063,5.644,5.644,0,0,1,4.231,1.574,5.963,5.963,0,0,1,1.539,4.266A6.619,6.619,0,0,1,887.679,498.669Zm-.175-4.336a7.241,7.241,0,0,0-1.119-4.3,3.62,3.62,0,0,0-3.114-1.5,4.383,4.383,0,0,0-3.532,1.5,5.9,5.9,0,0,0-1.329,3.987,6.734,6.734,0,0,0,1.26,4.336,3.886,3.886,0,0,0,3.252,1.575C885.86,499.929,887.5,497.8,887.5,494.333Z" fill="#000000"/><path d="M896.564,495.032l.14,4.2a17.271,17.271,0,0,1,2.1.419c.314.1.49.281.524.456a.489.489,0,0,1-.139.244l-.385.07-1.224-.106-2.169-.1-2.168.1-1.224.106-.419-.07a.435.435,0,0,1-.14-.244c0-.281.314-.456,2.657-.911l.106-2.937.069-3.5-.1-17.976a5.259,5.259,0,0,0-.106-1.329.573.573,0,0,0-.524-.28c-.525,0-1.329.629-1.644.629l-.175-.07-.07-.105a1.024,1.024,0,0,1,.28-.664,5.386,5.386,0,0,1,.945-.7l1.853-.945a3.258,3.258,0,0,1,1.329-.349.455.455,0,0,1,.419.244,3.128,3.128,0,0,1,.106.979l-.106,20.565Z" fill="#000000"/><path d="M903.106,500.173a1.687,1.687,0,0,1-.525-1.294,1.863,1.863,0,0,1,1.784-1.783,1.759,1.759,0,0,1,1.748,1.783,1.8,1.8,0,0,1-.489,1.294,1.774,1.774,0,0,1-2.518,0Z" fill="#000000"/><path d="M913.11,494.228h-1.364a13.49,13.49,0,0,0-1.748.14h-.245l-.35-.035a.428.428,0,0,1-.1-.315l.034-.21.21-.385,11.262-17.067.314-.349.315-.14a.318.318,0,0,1,.28.14,1.073,1.073,0,0,1,.1.419l-.139,1.854c-.035.454-.07,1.014-.105,1.609s-.035,1.154-.035,1.678v10.7h3.637l.14-.769c.35-2.553.664-3.847.945-3.847.139.035.209.1.209.139l.035.245-.175,1.819a28.453,28.453,0,0,0-.21,3.393l.07,1.853.071,1.4-.071.35-.21.07a.5.5,0,0,1-.245-.141l-.174-.593-.28-1.959h-3.742v5a12.817,12.817,0,0,1,3.218.349c.454.106.7.28.7.526l-.105.244-.35.07-.524-.035a33.91,33.91,0,0,0-4.372-.245,39.32,39.32,0,0,0-4.721.245l-.489.035-.351-.07a.442.442,0,0,1-.14-.244c0-.456,1.294-.666,2.8-.805.735-.07,1.329-.106,1.749-.106l.07-4.965Zm6.12-14.129-8.043,12.17h7.869Z" fill="#000000"/><g id="上海_アリス幻樂団-2" data-name="上海■アリス幻樂団"><path d="M84.907,899.063a1.33,1.33,0,0,1,.818.254.78.78,0,0,1,.355.714l-.062,2.309h3.195a3.786,3.786,0,0,1,1,.084q.231.12.231.526a1.435,1.435,0,0,1-.2.747.66.66,0,0,1-.54.272q-.263,0-1.08-.051c-.515-.011-.982-.017-1.4-.017q-.493,0-1.282.017l-.091,3.311a54.424,54.424,0,0,1,6.4.729,3.494,3.494,0,0,1-.463,1.545.792.792,0,0,1-.664.492,4.93,4.93,0,0,1-1.188-.255,19.58,19.58,0,0,0-5.216-.746,15.253,15.253,0,0,0-5.093.815,3.376,3.376,0,0,1-1.034.254.813.813,0,0,1-.586-.323.911.911,0,0,1-.278-.61.978.978,0,0,1,.741-1.087,20.117,20.117,0,0,1,5.494-.814l-.063-7.2a.873.873,0,0,1,.279-.679A.9.9,0,0,1,84.907,899.063Z" fill="#000000"/><path d="M78.363,920.58l2.593.067c.288.091.433.233.433.425q0,.441-.88.8a17.279,17.279,0,0,1-2.1.628.818.818,0,0,1-.478-.271.772.772,0,0,1-.247-.543,1.656,1.656,0,0,1,.2-.765Q78.117,920.58,78.363,920.58Zm1.112-4.414q.4,0,1.142.764c.792.8,1.188,1.3,1.188,1.477a.371.371,0,0,1-.416.424,2.226,2.226,0,0,1-.618-.118,7.521,7.521,0,0,0-1.466-.2q-.773-.086-.772-1.239a1.162,1.162,0,0,1,.293-.781A.94.94,0,0,1,79.475,916.166Zm1.095,7.69a.229.229,0,0,1,.263.254q0,.306-.231,2.327a.731.731,0,0,1-.834.729,1.113,1.113,0,0,1-.725-.237,1.03,1.03,0,0,1-.309-.764,1.166,1.166,0,0,1,.232-.544l1.265-1.544C80.364,923.93,80.478,923.856,80.57,923.856Zm3.72-4.77a1,1,0,0,1,.6.17.2.2,0,0,1,.077.051q1-.068,2.577-.068,2.5,0,3.163.084.309.036.309.255a2.083,2.083,0,0,1-.123.374,11.257,11.257,0,0,0-.463,1.952c.606.045,1.25.1,1.928.169a2.732,2.732,0,0,1-.354,1.274c-.175.3-.36.441-.556.441a3.03,3.03,0,0,1-.91-.237c-.134-.034-.263-.069-.387-.1q-.045.255-.077.527t-.107.526c.472.034.9.062,1.28.085.175.034.263.1.263.2a1.293,1.293,0,0,1-.2.747.655.655,0,0,1-.541.288c-.185,0-.561-.022-1.126-.068a3.915,3.915,0,0,1-.495,1.07q-.37.627-.848.628a1.323,1.323,0,0,1-1.126-.815,2.777,2.777,0,0,0,.694-.985q-1.575-.051-3.827-.051a3.068,3.068,0,0,0-1.173.17,1.083,1.083,0,0,1-.386.12.589.589,0,0,1-.432-.188.49.49,0,0,1-.185-.424,1.95,1.95,0,0,1,.154-.56c.144-.442.288-.888.432-1.341-.134.034-.263.062-.386.085a3.722,3.722,0,0,1-.941.186.5.5,0,0,1-.37-.237.54.54,0,0,1-.186-.374.617.617,0,0,1,.494-.679,14.066,14.066,0,0,1,1.836-.39q.357-1.155.71-2.394A.621.621,0,0,1,84.29,919.086Zm-.387-3.107a2.2,2.2,0,0,1,1,.2.576.576,0,0,1,.293.474,1.143,1.143,0,0,1-.108.425q1.019-.1,2.794-.1a41.41,41.41,0,0,1,4.181.153,2.7,2.7,0,0,1-.277,1.205.437.437,0,0,1-.4.289q-.325,0-1.327-.068-1.606-.153-2.655-.153a20.365,20.365,0,0,0-2.469.136,6.315,6.315,0,0,1-.834.085.251.251,0,0,1-.092-.018.716.716,0,0,0-.123.136,2.982,2.982,0,0,1-1.96,1.239c-.279,0-.417-.1-.417-.288a.615.615,0,0,1,.2-.356,8.827,8.827,0,0,0,1.389-1.766,2.227,2.227,0,0,0,.385-1.053.991.991,0,0,0-.2-.492A2.98,2.98,0,0,1,83.9,915.979Zm1.513,8.42.309-1.409c-.545.023-1.071.063-1.575.119l-.37,1.222c0,.046.129.068.386.068Zm-.88-2.58q.68-.051,1.467-.068l.293-1.29c-.5.012-.962.028-1.374.051Zm3.735,2.631a.136.136,0,0,0,.015-.051q.186-.694.34-1.273a12,12,0,0,0-1.667-.152l-.309,1.442Q87.516,924.416,88.271,924.45Zm-.741-3.989-.308,1.29c.535,0,1.111.018,1.728.051a7.584,7.584,0,0,0,.2-1.155Q89.15,920.479,87.53,920.461Z" fill="#000000"/><path d="M90.91,945.271H79.043V932.149H90.91Z" fill="#000000"/><path d="M68.3,903.6a12.131,12.131,0,0,1-.155,2.308,3.732,3.732,0,0,1-.971,1.867,5.426,5.426,0,0,1-2.33,1.545,5.087,5.087,0,0,1-1.776.373q-1.279,0-1.28-1.069a2.846,2.846,0,0,1,1.065-2.41q.138.61.925.611a2.054,2.054,0,0,0,2.161-1.46,4.275,4.275,0,0,0,.2-1.069v-.765q0-.865.957-.865a1.828,1.828,0,0,1,.848.136A.839.839,0,0,1,68.3,903.6Zm5.633-2.36a.9.9,0,0,1-.325.7,6.961,6.961,0,0,0-.663.492,1.566,1.566,0,0,0-.509.425q-1.713,2.122-2.3,2.122-.711,0-.71-.646a6.3,6.3,0,0,1,.586-1.357,1.246,1.246,0,0,0,.108-.391q0-.441-.417-.441c-.03,0-.35-.011-.956-.034s-.983-.051-1.127-.051a14.861,14.861,0,0,0-2.947.289q-1.435.271-1.529.271a.914.914,0,0,1-.57-.22,1.088,1.088,0,0,1-.355-.816,1.126,1.126,0,0,1,.988-1.29,18.691,18.691,0,0,1,2.886-.221q3.332,0,5.632.221a6.469,6.469,0,0,1,1.7.323C73.764,900.755,73.934,900.965,73.934,901.236Z" fill="#000000"/><path d="M72.036,917.728q0,.306-.154,2.461-.279,3.633-1.945,5.211a5.788,5.788,0,0,1-4.105,1.342,5.113,5.113,0,0,1-1.311-.119q-.819-.219-.819-.917a3.106,3.106,0,0,1,1.42-2.24,1.535,1.535,0,0,0,1.436.577,2.647,2.647,0,0,0,1.79-.815,4.761,4.761,0,0,0,1.265-3.582v-1.052c.01-.452.015-.719.015-.8q0-.917,1.22-.917a1.523,1.523,0,0,1,.771.2A.748.748,0,0,1,72.036,917.728ZM66,917.644q0,.2-.016,1.459-.015,1.274-.015,1.714,0,1.749-1.189,1.749-.925,0-.926-1.239,0-.221-.045-1.613t-.032-1.918q0-.882,1.158-.883C65.646,916.913,66,917.156,66,917.644Z" fill="#000000"/><path d="M73.394,942.69q-.743,1.069-1.435,1.07a1.424,1.424,0,0,1-.864-.527q-.186-.168-.618-.577-.4-.39-.7-.644a14.514,14.514,0,0,0-2.469-1.647q-2.731,2.853-4.814,2.852-.819,0-.818-1.07a4.425,4.425,0,0,1,.88-2.172.809.809,0,0,0,.648.288,3.2,3.2,0,0,0,1.5-.526,7.2,7.2,0,0,0,1.559-1.121,12.076,12.076,0,0,0,.988-1.12,1.906,1.906,0,0,0,.416-.729c0-.182-.148-.273-.447-.273a18.271,18.271,0,0,0-2.685.17q-1.082.137-.988.136a.732.732,0,0,1-.479-.221,1.071,1.071,0,0,1-.339-.865.914.914,0,0,1,1.049-1.019l1.744-.034q1.806-.085,2.7-.085a6.593,6.593,0,0,1,2.5.289.657.657,0,0,1,.463.612.685.685,0,0,1-.262.508,3.723,3.723,0,0,0-.494.476q-.48.611-1.806,2.41a11.027,11.027,0,0,0,3.056,1.63q.663.255,2.006.662c.092.023.21.057.355.1h.016A2.818,2.818,0,0,1,73.394,942.69Z" fill="#000000"/><path d="M48.114,898.944a.819.819,0,0,1,.663.255,1.1,1.1,0,0,1,.247.679,1.8,1.8,0,0,1-.571,1.154l-1.867,1.749c-.268.294-.4.481-.4.56,0,.17.174.356.524.56l.694.306q.957-.916,1.867-1.834a1.292,1.292,0,0,1,.819-.509.79.79,0,0,1,.493.221.845.845,0,0,1,.247.577,2.124,2.124,0,0,1-.71,1.46l-2.932,2.868,2.392.085c.082,0,.123-.061.123-.186a2.581,2.581,0,0,1-.617-.951q0-.476.433-.475.4,0,1.635,1.223,1.018.966,1.019,1.493,0,.747-.556.747a3.89,3.89,0,0,1-.648-.119,15.587,15.587,0,0,0-1.913-.085H47a9,9,0,0,0-2.006.17,1.726,1.726,0,0,1-.463.17q-.942,0-.941-.679a1.888,1.888,0,0,1,.74-1.341q.881-.782,1.713-1.545a11.082,11.082,0,0,0-1.82-.883q-.695-.237-.7-.577,0-.322.617-1l2.608-3.089Q47.637,898.944,48.114,898.944Zm5.988.612a32.39,32.39,0,0,1,3.287.1c.319.069.478.193.478.374a.872.872,0,0,1-.108.305,2.1,2.1,0,0,0-.216.968l-.093,4.872a4.575,4.575,0,0,1-1.25,3.055,2.987,2.987,0,0,1-2.1.985,1.118,1.118,0,0,1-.849-.442,4.173,4.173,0,0,1-.756-1.663,5.28,5.28,0,0,0,2.484-.933,2.648,2.648,0,0,0,.849-2.173v-3.481c0-.146-.088-.22-.263-.22q-2.236,0-3.595.135a4.825,4.825,0,0,1-.972.154c-.154,0-.309-.108-.463-.323a1.11,1.11,0,0,1-.216-.713q0-.7.849-.916A25.956,25.956,0,0,1,54.1,899.556Z" fill="#000000"/><path d="M46.432,916.166a.562.562,0,0,1,.494.221.84.84,0,0,1,.185.526.8.8,0,0,1-.294.543l-.971.832c-.145.148-.216.237-.216.272s.077.09.231.135l.278.069.664-.662a.8.8,0,0,1,.509-.29c.319,0,.478.2.478.6a.742.742,0,0,1-.324.594l-1.652,1.443c0,.045.047.068.139.068h1.1c.093,0,.139-.023.139-.068a2.554,2.554,0,0,1-.2-.611c0-.17.109-.255.325-.255q.261,0,.787.628a1.741,1.741,0,0,1,.447.866c0,.363-.164.543-.493.543a2.138,2.138,0,0,1-.417-.067H46.309a12.238,12.238,0,0,0-1.775.1,1.238,1.238,0,0,1-.371.1.417.417,0,0,1-.386-.424c0-.147.155-.356.463-.629l.85-.882a7.454,7.454,0,0,0-1.066-.459c-.247-.067-.37-.158-.37-.271s.123-.3.37-.561l1.59-1.764Q46.154,916.166,46.432,916.166Zm4.444-.322a2.372,2.372,0,0,1,.911.119.286.286,0,0,1,.216.271,1.348,1.348,0,0,1-.154.56,10.567,10.567,0,0,1,1.635.17c.155.034.232.113.232.238q-.078.408-.185,1.205l.169-.186,1.574-1.648c.35-.361.618-.543.8-.543a.586.586,0,0,1,.494.221.889.889,0,0,1,.185.526.771.771,0,0,1-.324.51l-1.065.746c-.144.125-.216.2-.216.238,0,.057.062.119.185.187l.294.152.556-.526a.82.82,0,0,1,.508-.272c.329,0,.494.2.494.6a.676.676,0,0,1-.355.56l-1.682,1.358q0,.051.123.051h.973c.134,0,.2-.017.2-.051a2.256,2.256,0,0,1-.2-.56c0-.169.107-.254.324-.254.175,0,.421.2.741.61a1.536,1.536,0,0,1,.432.816c0,.362-.144.542-.432.542H55.553a10.711,10.711,0,0,0-1.652.1,1.1,1.1,0,0,1-.37.1.438.438,0,0,1-.294-.154.377.377,0,0,1-.107-.255.494.494,0,0,1-.217.052,1.462,1.462,0,0,1-.246-.052q-.448-.049-1.235-.067l.092.051a1.152,1.152,0,0,1,.4.7q2.407.085,6,.543a2.989,2.989,0,0,1-.432,1.409c-.176.328-.386.492-.633.492a4.37,4.37,0,0,1-1.142-.271,17.974,17.974,0,0,0-3.812-.713l-.03,1.935a3.022,3.022,0,0,1-.324,1.51.84.84,0,0,1-.787.527,1.1,1.1,0,0,1-.8-.339q-.324-.255-.324-1.563V923.4a18.466,18.466,0,0,0-4.229.628,4.117,4.117,0,0,1-1.08.221.592.592,0,0,1-.416-.237.606.606,0,0,1-.2-.425.754.754,0,0,1,.555-.831,19.6,19.6,0,0,1,5.386-.781,1.1,1.1,0,0,1,.309-.645,1.33,1.33,0,0,1,.154-.119,7.242,7.242,0,0,0-1.018.119.6.6,0,0,1-.2.085c-.2,0-.314-.182-.355-.544l-.324-3.463a.4.4,0,0,1,.294-.407,10.436,10.436,0,0,1,1.187-.17,1.809,1.809,0,0,0,.14-.526.568.568,0,0,0-.2-.323A6.053,6.053,0,0,1,50.876,915.844Zm-2.947,8.487c.082,0,.124.046.124.136a2.441,2.441,0,0,1-.741,1.494,2.615,2.615,0,0,1-1.745,1q-.555,0-.554-.866a1.57,1.57,0,0,1,.261-1.019c.021.091.119.136.293.136a3.254,3.254,0,0,0,1.791-.679A1.327,1.327,0,0,1,47.929,924.331Zm1.991-5.721a7.242,7.242,0,0,1,.91-.05q.555,0,1.127.05l.046-.593c0-.057-.036-.1-.108-.12a5.377,5.377,0,0,0-1.126-.085,2.473,2.473,0,0,0-.742.1q-.123.034-.123.1Zm.231,1.579a4.062,4.062,0,0,1,.71-.068,5.035,5.035,0,0,1,.818.068c.113,0,.179-.068.2-.2l.03-.492c-.381-.034-.74-.051-1.08-.051s-.633.012-.88.035l.016.644C49.966,920.167,50.027,920.189,50.151,920.189Zm3.148.663.263-.29.987-.933a6.635,6.635,0,0,0-.91-.56.79.79,0,0,1-.17-.1Q53.391,919.765,53.3,920.852Zm.417,3.547a1.89,1.89,0,0,1,.818.272,7.8,7.8,0,0,0,1.913.814,3.225,3.225,0,0,1-.555,1.24,1.085,1.085,0,0,1-.741.3q-.37,0-.834-.559a3.912,3.912,0,0,1-.786-1.868C53.531,924.467,53.593,924.4,53.716,924.4Z" fill="#000000"/><path d="M50.876,933.49a38.916,38.916,0,0,1,5.957.306q.54.085.54.373-.309,2.327-.679,9.285c-.02.408-.149.611-.385.611a6.057,6.057,0,0,1-.679-.085q-1.56-.168-4.784-.169a48.581,48.581,0,0,0-5.109.2,3.241,3.241,0,0,1-.6.119c-.2,0-.315-.176-.355-.527l-.618-9.167q0-.492.726-.611A52.855,52.855,0,0,1,50.876,933.49Zm-4.506,8.759q1.266-.033,2.5-.051a.681.681,0,0,1-.139-.17,2.229,2.229,0,0,1-.324-1.272,4.754,4.754,0,0,0,2.176-.391.894.894,0,0,0,.479-.763v-1.919a16.033,16.033,0,0,0-3.025.305,8.5,8.5,0,0,1-.926.119.567.567,0,0,1-.432-.2.9.9,0,0,1-.17-.543.736.736,0,0,1,.417-.7,18.172,18.172,0,0,1,4.136-.254V935.6a.781.781,0,0,1,.138-.476h-.324q-2.315,0-4.3.188-.757.067-.757.2l.372,6.6C46.186,942.2,46.247,942.249,46.37,942.249Zm3.473-4.091q.415,0,.416.492,0,.136-.37.543a4.683,4.683,0,0,1-1.189.849,2.549,2.549,0,0,1-1.033.289.422.422,0,0,1-.479-.476,1.939,1.939,0,0,1,.355-1,.251.251,0,0,0,.247.119,2.225,2.225,0,0,0,.818-.187,3.738,3.738,0,0,0,.926-.526A.507.507,0,0,1,49.843,938.158Zm2.638-3.039a.46.46,0,0,1,.078.255,4.531,4.531,0,0,0-.062.611v.442q1.171.051,2.453.186a2.754,2.754,0,0,1-.293,1.274.536.536,0,0,1-.447.22,4.672,4.672,0,0,1-.8-.119c-.329-.079-.633-.141-.91-.186v1.986a2.2,2.2,0,0,1-.88,1.918,4.467,4.467,0,0,1-.941.476H54.95c.124,0,.191-.1.2-.289l.355-6.451c0-.09-.134-.153-.4-.186Q54.195,935.154,52.481,935.119Z" fill="#000000"/></g><path d="M173.7,945.788q.377,0,.376,1.367c0,.2-.217.387-.649.546q-1.47.274-2.767.547-.513,7.686-.649,10.521,3.415-.341,6.354-.581a7.389,7.389,0,0,1,1.981-.239,8.483,8.483,0,0,0,.649,1.4,6,6,0,0,1,.717,1.981q-.1.649-.41.717a7.992,7.992,0,0,1-1.469-.478,7.83,7.83,0,0,0-2.493-.478q-4.715,0-12.674.649a63.6,63.6,0,0,0-10.452,1.537q-.479,0-1.059-2.6l.683-.274h1.093q3.45-.375,6.661-.648-.069-3.245-.1-9.941-1.5.274-3.177.616c-.273,0-.535-.32-.786-.957a3.543,3.543,0,0,1-.307-1.4c0-.25.193-.376.581-.376q.99-.068,3.689-.342,0-1.98-.034-4.167,0-.409.717-.41,1.912,0,1.913.684-.1,1.059-.137,2.9v.752q2.562-.307,6.012-.683.069-2.358.1-5.022,0-.581.991-.581,2.424,0,2.425.854a10.788,10.788,0,0,0-.581,3.109q-.069.648-.1,1.3Q172.2,945.959,173.7,945.788ZM161.234,962.7q.581,0,.58.274-1.912,2.357-2.561,3.347a7.685,7.685,0,0,1-.957,1.606,4.006,4.006,0,0,0-.717,1.332q-.137.581-.547.581-.648,0-1.434-1.162-1.163-1.23-1.162-1.708c0-.182.171-.319.513-.409a8.178,8.178,0,0,0,1.708-1.026A34.451,34.451,0,0,1,161.234,962.7Zm.58-3.142q2.973-.273,5.671-.547.238-3.45.444-10.281-2.049.306-3.757.477-1.026.069-2.255.239,0,1.162-.034,2.221,1.5-.205,4.577-.718.375,0,.376,1.366,0,.309-.649.547a16.852,16.852,0,0,1-2.733.547,11.44,11.44,0,0,0-1.571.274q-.035.956-.034,1.775,1.469-.17,4.611-.648.375,0,.376,1.366c0,.205-.216.388-.649.547a23.166,23.166,0,0,1-2.665.614,12.516,12.516,0,0,0-1.708.308Zm6.832,2.9a25.976,25.976,0,0,1,3.826,1.3,15.625,15.625,0,0,0,1.879.683q.444.342.444,2.528a4.407,4.407,0,0,1-.546,1.913q-.41.957-.82.957-.376,0-.854-.82a28.689,28.689,0,0,0-3.758-5.193q-.684-.544-.751-.853Q168.066,962.458,168.646,962.458Z" fill="#000000"/><path d="M207.9,955.217q0,2.425-2.46,6.7-.615,1.059-.649,1.093a5.788,5.788,0,0,0-.171.819,1.355,1.355,0,0,1-.922,1.128,23.982,23.982,0,0,1-8.847,2.015q-.513.035-.513-.17t.444-.41a22.358,22.358,0,0,0,5.466-3.519,18.68,18.68,0,0,0,3.587-4.44,10.42,10.42,0,0,0,1.5-5.022,5.1,5.1,0,0,0-2.22-4.475,7.916,7.916,0,0,0-4.577-1.264,8.942,8.942,0,0,0-1.81.137q.409.41,1.263,1.263c.251.229.376.422.376.581q0,.205-.547.752-.308.342-1.673,2.357-2.666,3.621-7.686,11.2a.9.9,0,0,1-.786.513c-.341,0-.638-.3-.888-.889q-.957-2.22-2.528-6.148a8.1,8.1,0,0,1-.444-2.562,6.955,6.955,0,0,1,1.811-4.611,12.966,12.966,0,0,1,5.465-3.553,17.491,17.491,0,0,1,6.524-1.264q4.886,0,7.55,2.562A9.4,9.4,0,0,1,207.9,955.217Zm-12.537-7.277a16.6,16.6,0,0,0-8.608,4.27,3.474,3.474,0,0,0-1.367,2.631,3.1,3.1,0,0,0,.24,1.195,4.73,4.73,0,0,0,1.5,2.05,1.717,1.717,0,0,0,1.025.478q.376,0,1.025-.752a31.515,31.515,0,0,0,3.655-5.089A26.406,26.406,0,0,0,195.359,947.94Z" fill="#000000"/><path d="M214.761,950.435a5.963,5.963,0,0,1,1.264.272c.16-.045.33-.091.513-.137a52.491,52.491,0,0,1,9.7-1.878,55.687,55.687,0,0,1,7.515-.615,10.4,10.4,0,0,1,5.192.99c.729.434,1.093.843,1.093,1.231a.683.683,0,0,1-.2.409,4.428,4.428,0,0,0-.922,2.289q-1.4,6.969-2.6,8.677a25.042,25.042,0,0,0-1.23,2.732c-.114.616-.376.922-.786.922a2.6,2.6,0,0,1-.99-.306,14.966,14.966,0,0,0-2.835-1.743,11.478,11.478,0,0,1-1.2-.786l-.478-.034q-1.093,0-4.851.308a19.806,19.806,0,0,0-4.338.853.1.1,0,0,1,.034.069q0,.41-1.5.512-1.094,0-2.767-4.1a26.749,26.749,0,0,1-1.605-9.019C213.771,950.65,214.1,950.435,214.761,950.435Zm3.519,10.247a34.765,34.765,0,0,0,3.655-.41q1.81-.239,4.065-.478a18.113,18.113,0,0,0,2.869-.308,5.716,5.716,0,0,1,1.162-.171q.546,0,1.161,2.016h.1q1.5,0,2.46-2.323a17.967,17.967,0,0,0,1.776-6.8q-.069-1.911-3.416-1.912-.819,0-1.844.068a3.141,3.141,0,0,1-.273.99q-.206,2.153-.205,3.04a.725.725,0,0,0,.819.821,2.418,2.418,0,0,0,1.2-.41,1.389,1.389,0,0,1,.854-.411,1.431,1.431,0,0,1,.717.376q.65.582.649.957a.974.974,0,0,1-.717.957,8.439,8.439,0,0,1-3.45.545,2.439,2.439,0,0,1-1.879-.819,3.784,3.784,0,0,1-.546-2.186q0-1.094.1-2.562.035-.513.068-1.025-1.161.136-2.493.341a.545.545,0,0,1-.137.342,27.927,27.927,0,0,0-1.025,3.792l.1.649a4.52,4.52,0,0,1-1.777,1.879,7.116,7.116,0,0,1-2.733.957c-.272,0-.409-.091-.409-.274a18.424,18.424,0,0,0,1.639-1.434,3.849,3.849,0,0,0,1.162-1.879,12.787,12.787,0,0,0,.2-2.563,2.544,2.544,0,0,0-.1-.648,27.76,27.76,0,0,0-4.645,1.81,21.242,21.242,0,0,0-.2,2.562A12.976,12.976,0,0,0,218.28,960.682Z" fill="#000000"/><path d="M278.469,946.2q-1.094,0-4.168.24-.034,1.094-.034,2.049a31.117,31.117,0,0,1,3.484-.273,8.082,8.082,0,0,1,3.655.785c.661.388.991.774.991,1.162a3.329,3.329,0,0,1-.273,1.366,25.629,25.629,0,0,0-1.605,4.748q-.342,1.4-.854,1.4a4.944,4.944,0,0,1-.991-.205,3.2,3.2,0,0,0-1.3-.376,27.341,27.341,0,0,0-2.971.2,10.071,10.071,0,0,0,2.05,2.015,31.172,31.172,0,0,0,9.735,5.6q1.707.614,1.708,1.229,0,.685-2.187.684a13.251,13.251,0,0,1-2.425-.342,12.284,12.284,0,0,0-3.552-.581c-.593,0-.922-.25-.991-.751a3.214,3.214,0,0,0-1.2-2.186,5.736,5.736,0,0,1-2.015-1.537,15.741,15.741,0,0,0-1.571-1.3q-.171,5.02-.171,7.651c0,.479.011.922.034,1.332a8.741,8.741,0,0,1,.137,1.4q-.069.409-1.093.41-1.607,0-1.777-.581a1,1,0,0,1,.205-.615,4.642,4.642,0,0,0,.069-.888l.034-9.018a53.965,53.965,0,0,0-5.534,4.543,2.047,2.047,0,0,0-.786,1.059q-.136.308-1.332.82a12.313,12.313,0,0,1-4.407.717q-.955,0-.956-.409a24.012,24.012,0,0,0,6.661-4.1,30.677,30.677,0,0,0,4.919-4.646,7.071,7.071,0,0,0-1.64.411,1.752,1.752,0,0,1-.819.239q-.308,0-1.059-1.3a24.035,24.035,0,0,1-1.879-4.68,11.484,11.484,0,0,1-.444-2.048c0-.274.261-.411.786-.411q3.792-.683,6.558-1.128v-2.117a27.222,27.222,0,0,0-5.055,1.3q-.376,0-.957-.82a5.658,5.658,0,0,1-.683-1.469q0-.442.717-.58a27.625,27.625,0,0,0,4.543-.581c.456-.045.934-.1,1.435-.171l.034-3.04a2.43,2.43,0,0,0-.273-1.093.553.553,0,0,1,.273-.41,2.231,2.231,0,0,1,1.367-.308,5.065,5.065,0,0,1,1.537.308q.615.342.615.547a5.692,5.692,0,0,1-.171,1.059,12.625,12.625,0,0,0-.41,2.527,1.9,1.9,0,0,0,.376-.034,17.356,17.356,0,0,0,3.347-.444,5.72,5.72,0,0,1,1.367-.239q.615,0,1.366,2.6-.069.409-.649.41Zm-9.975,9.975a12.4,12.4,0,0,0,1.811-.205q.546-.067,1.127-.137v-1.81q-.855.137-1.845.375-.376,0-.649-.682a3.124,3.124,0,0,1-.17-.991c0-.182.125-.274.375-.274q.58-.033,2.289-.239l.034-1.674q-1.2.171-2.562.342-1.4.274-1.4.649a23.376,23.376,0,0,0,.307,2.972Q268.153,956.173,268.494,956.173Zm5.7-6.012q-.035.854-.034,1.708,1.126-.171,2.493-.342c.2,0,.308.445.308,1.332,0,.183-.239.33-.717.445q-1.2.239-2.153.41c-.023.614-.034,1.207-.034,1.775q1.845-.2,3.45-.272.376,0,.752-1.947a17.224,17.224,0,0,0,.341-3.109q0-.307-.854-.307A30.739,30.739,0,0,0,274.2,950.161Z" fill="#000000"/><path d="M318.606,952.312q-2.187,0-9.189.513,1.025,1.162,1.025,1.571v.035a22.471,22.471,0,0,0,3.518,2.255q1.674.817,1.674,1.776a4.549,4.549,0,0,1-.342,1.264A10.784,10.784,0,0,0,314.2,961.4q-1.23,2.016-2.186,3.86-.069.1-2.562,3.553-.888,1.4-1.332,1.4-.342,0-1.2-1.059a18.5,18.5,0,0,1-3.587-4.508c0-.3.217-.445.65-.445a10.815,10.815,0,0,0,2.766,1.5q1.265,0,3.211-3.245a9.677,9.677,0,0,0,1.674-4q0-.821-3.006-2.358a33.505,33.505,0,0,0-5.089,5.944,5.474,5.474,0,0,0-1.162,3.041,9.274,9.274,0,0,1-3.04,1.434,18.335,18.335,0,0,1-2.6.308q-1.23,0-1.23-.547,0-.41,1.64-1.537a29.616,29.616,0,0,0,6.49-6.251,15.826,15.826,0,0,0,2.8-5.363,48.22,48.22,0,0,0-9.12,1.81q-.445,0-1.059-.991a6.227,6.227,0,0,1-.752-1.64q0-.375.854-.511a48.92,48.92,0,0,0,7.686-1.06q3.621-.477,8.1-1.127a26.757,26.757,0,0,0,5.67-.752,7.824,7.824,0,0,1,2.289-.511q.853,0,1.947,3.723-.137.511-.956.512Zm-11.341-10.9q.477,0,1.059,1.059a4.7,4.7,0,0,0,1.093,1.947,4.663,4.663,0,0,1,1.435,2.562.9.9,0,0,1-.376.82,2.938,2.938,0,0,1-1.264.273,3.819,3.819,0,0,1-2.254-.854q-.89-.648-.889-1.161a11.084,11.084,0,0,1,.547-3.757Q307.095,941.416,307.265,941.416Z" fill="#000000"/><path d="M334.729,956.583a.245.245,0,0,1,.137.239,1.152,1.152,0,0,1-.171.409,10.191,10.191,0,0,0-1.025,3.963c0,.274-.149.41-.444.41a4.087,4.087,0,0,1-1.81-.581c-.525-.318-.786-.569-.786-.751q0-.41,3.553-3.381A.958.958,0,0,1,334.729,956.583Zm12.878-2.357q5.6,0,7.447,1.844a6.035,6.035,0,0,1,1.3,2.529q0,.715-.82.716c-.182,0-.5-.022-.956-.068q-.788-.1-1.777-.137a19.806,19.806,0,0,1-3.006-.341q0-.238.615-.444,1.81-.546,1.81-1.5,0-.786-4.611-.786a33.248,33.248,0,0,0-4.714.376,2.9,2.9,0,0,1,.717,1.264.307.307,0,0,1-.205.273,7.674,7.674,0,0,0-.888,1.059,23.586,23.586,0,0,0,2.733-.342,16.329,16.329,0,0,1,2.459-.2,2.5,2.5,0,0,1,1.094.477q.683.582.683,1.026,0,.1-.239.375a14.771,14.771,0,0,0-2.6,2.87,22.082,22.082,0,0,1-4.338,4.1,8.281,8.281,0,0,0-1.81,1.913,2.407,2.407,0,0,1-1.4,1.024,26.82,26.82,0,0,1-5.431.684q-.752,0-.82-.274c0-.136.171-.364.513-.682q6.148-2.393,8.334-4.442a2.516,2.516,0,0,1-.649-.341,26.514,26.514,0,0,0-2.322-1.673q-.206-.137-.342-.24a11.3,11.3,0,0,1-.956.615,5.755,5.755,0,0,1-1.708.888q-.719,0-.718-.444a17.509,17.509,0,0,1,2.357-2.323,17.434,17.434,0,0,0,3.45-5.26,16.644,16.644,0,0,0-3.962.99,2.061,2.061,0,0,1-.615.444q-.444,0-.786-.717a2.13,2.13,0,0,1-.273-.888q0-.478,1.093-.684A52.745,52.745,0,0,1,347.607,954.226Zm4.372-8.881q-1.3,0-4.543.238a5.928,5.928,0,0,1-1.161,1.913.233.233,0,0,0-.1.1,24.5,24.5,0,0,1,2.528-.171,7.542,7.542,0,0,1,3.279.683c.638.388.957.751.957,1.093a1.135,1.135,0,0,1-.273.718,11.012,11.012,0,0,0-1.572,2.6q-.308.786-.751.786a4.817,4.817,0,0,1-.82-.137,2.021,2.021,0,0,0-.957-.308,58.7,58.7,0,0,0-7.31.684,10.4,10.4,0,0,0-2.732.648,1.489,1.489,0,0,1-.923.342c-.16,0-.432-.262-.82-.785a13.7,13.7,0,0,1-1.537-2.8,4.25,4.25,0,0,1-.375-1.229c0-.25.238-.376.717-.376q5.6-1.094,9.018-1.571.035-.24.239-1.059a6.719,6.719,0,0,0,.307-.957q-.853.069-1.81.171-.991.1-1.879.205.205.821.513,1.81,0,.205-.923.274-.648,0-1.537-1.776a31.052,31.052,0,0,0-4.919,1.263q-.308,0-.854-.785a4.693,4.693,0,0,1-.649-1.265c0-.226.24-.375.718-.443a42.153,42.153,0,0,0,5.021-.547,11.129,11.129,0,0,1-.376-2.835q0-.546.786-.547a6.456,6.456,0,0,1,1.435.342q.854.376.922.717a6.519,6.519,0,0,0-.41,1.845v.136q2.084-.307,4.475-.614.273-1.469.547-3.382.169-.717.717-.718a3.922,3.922,0,0,1,1.469.479q.955.479.956.751a.65.65,0,0,1-.239.513,11.756,11.756,0,0,0-.991,2.152,21.6,21.6,0,0,0,3.212-.513,6.453,6.453,0,0,1,1.878-.376q.513,0,1.23,2.6c-.046.183-.285.273-.717.273Zm-13.527,7.241a11.427,11.427,0,0,0,1.982-.274,4.5,4.5,0,0,1,.443-.1,5.352,5.352,0,0,0-.614-2.493c-.3.068-.6.125-.923.171q-1.469.273-1.468.682a7.006,7.006,0,0,0,.2,1.3Q338.246,952.586,338.452,952.586Zm1.674,9.258q.65.271,1.776.887a5.541,5.541,0,0,1,1.537,1.025q2.254-2.391,2.255-3.211c-.046-.182-.239-.273-.581-.273q-3.041.478-4,.512C340.8,961.148,340.468,961.5,340.126,961.844Zm1.981-12.4a10.122,10.122,0,0,0,.376,2.529q.992-.137,1.879-.274l.307-2.6Q343.508,949.273,342.107,949.443Zm4.372-.512a19.7,19.7,0,0,0-.238,2.528q1.092-.136,2.049-.239.376,0,.717-.82a3.466,3.466,0,0,0,.342-1.333q0-.272-.786-.272T346.479,948.931Z" fill="#000000"/><path d="M367.112,947.7a2.662,2.662,0,0,1,.956.342,1.431,1.431,0,0,1,.274-.1,17.86,17.86,0,0,1,3.86-1.605,8.253,8.253,0,0,1,2.425.376q.955.409.956.853a6.218,6.218,0,0,1-.341.889q-.615,1.265-.752,14.313-.1,2.7-1.059,2.7a2.577,2.577,0,0,1-.922-.478,11.1,11.1,0,0,1-2.664-2.528.542.542,0,0,1,.444-.137q1.468.274,1.639.274.206,0,.308-1.2.033-.785.034-2.425a41.6,41.6,0,0,0-4.748,3.86c-.137.137-.273.285-.41.444q-.342.682-.786.683a5.625,5.625,0,0,1-1.708-1.127q-.923-.615-.922-.786a1.651,1.651,0,0,1,.273-.854,8.877,8.877,0,0,0,2.255-.99,4.7,4.7,0,0,0,.478-.273v-.1q0-7.242-.137-11.17C366.634,948.021,366.815,947.7,367.112,947.7Zm1.639,11.273q1.845-.888,3.416-1.537a.291.291,0,0,0,.137-.035q0-2.971.034-7.685,0-1.639-.99-1.64a4.445,4.445,0,0,0-2.323,1.23q-.034.307-.1.717-.1,1.264-.171,2.6.888-.17,2.733-.546.308,0,.308,1.366,0,.205-.718.375a4,4,0,0,1-1.332.923,3.81,3.81,0,0,0-1.059.717q-.034.959-.034,1.947,0,.48.068,1.3A1.449,1.449,0,0,1,368.751,958.974Zm19.3-13.049q.444.1.923,2.152-.034.206-.513.274-2.118.615-3.791.956a7.973,7.973,0,0,0-.068.991,12.007,12.007,0,0,0,.068,1.332c.022.182.045.342.068.478q3.177-.478,5.807-.922a2.855,2.855,0,0,1,1.162-.24,9.212,9.212,0,0,0,.614,1.264,4.853,4.853,0,0,1,.649,1.742c-.068.434-.2.672-.409.718a7.044,7.044,0,0,1-1.332-.41,6.7,6.7,0,0,0-2.255-.445c-.5,0-1.071.024-1.708.069a.371.371,0,0,1,.068.205,3.226,3.226,0,0,1-.376,1.332c-.045.342-.08.673-.1.991a8.05,8.05,0,0,0,1.674-.342,3.652,3.652,0,0,1,1.3-.341q.546,0,1.366,2.6c-.046.3-.273.444-.683.444l-1.81-.17q-.582,0-1.879.1.033,7.96.444,9.6a7.007,7.007,0,0,1,.2,1.537c0,.455-.263.683-.786.683a7.319,7.319,0,0,1-2.528-.649,9.874,9.874,0,0,1-2.766-1.708,9.734,9.734,0,0,0-1.913-1.5q-.89-.751-.889-1.2a.121.121,0,0,1,.137-.137,1.23,1.23,0,0,1,.786.444,6.87,6.87,0,0,0,3.757,1.06q1.059,0,1.059-1.128v-6.8c-.388.024-.808.058-1.264.1a34.672,34.672,0,0,0-3.484.615,3.139,3.139,0,0,1,.376.1,3.379,3.379,0,0,1,1.639,1.092.868.868,0,0,1,.171.513q-.478,2.493-1.674,2.493c-.136,0-.251-.181-.341-.546a14.15,14.15,0,0,0-1.435-3.313h-.034a4.566,4.566,0,0,0-.888.307q-.308,0-.752-.717a5.136,5.136,0,0,1-.478-1.23q0-.273.546-.376a25.715,25.715,0,0,0,4.236-.649q1.572-.273,3.382-.58v-.274a6.116,6.116,0,0,0-.307-1.947c-.069-.113-.126-.216-.171-.308q-1.025.138-2.084.308a22.749,22.749,0,0,0-6.046,1.537q-.444,0-.922-2.459l.649-.137h.991q2.9-.479,5.5-.888a1.349,1.349,0,0,1,.171-.308,4.714,4.714,0,0,0,.068-.888l.034-1.639a4.3,4.3,0,0,1-.512.034,11.027,11.027,0,0,0-2.8.547q-.342,0-.547-1.3-.1-.75-.137-1.059a.381.381,0,0,1,.376-.376,34.824,34.824,0,0,0,3.656-.307l.067-4.646a1.864,1.864,0,0,0-.272-.922.739.739,0,0,1,.307-.512,2.35,2.35,0,0,1,1.469-.342,5.785,5.785,0,0,1,1.64.308q.683.444.683.683c0,.046-.092.149-.274.308a2.387,2.387,0,0,0-.615,1.366q-.238,1.88-.375,3.279a15.629,15.629,0,0,0,1.981-.512A6.052,6.052,0,0,1,388.051,945.925Z" fill="#000000"/><path d="M404.312,949.854a.661.661,0,0,1,.1.444,1.349,1.349,0,0,1-.137.409,13,13,0,0,0-.82,4.1c0,.273-.217.41-.649.41a4.825,4.825,0,0,1-2.255-.718q-.889-.615-.888-.922,0-.376,4-3.348A1.146,1.146,0,0,1,404.312,949.854Zm14.21,7.822q.546,0,.547,2.015,0,.513-1.128.854-1.845.274-3.348.444a4.354,4.354,0,0,1-.034.547q-.1,3.314-.137,4.748,3.417-.34,6.184-.547a4.987,4.987,0,0,1,1.332-.171,6.552,6.552,0,0,0,.648,1.469,6.637,6.637,0,0,1,.718,2.118.8.8,0,0,1-.547.684,9.264,9.264,0,0,1-1.5-.444,7.362,7.362,0,0,0-2.6-.547q-2.837,0-7.617.376a44.652,44.652,0,0,0-6.355.752q-.477,0-1.059-2.631l.684-.274h1.093q3.075-.271,5.841-.511-.069-1.777-.1-5.227-1.467.136-3.312.444-.446,0-.821-.957a4.552,4.552,0,0,1-.239-1.366c0-.273.183-.41.547-.41Q408.991,958.94,418.522,957.676Zm.649-10.965q4.576,0,6.08,2.869a14.053,14.053,0,0,1,1.059,4q0,.512-.819.512-.24,0-.889-.068a11.9,11.9,0,0,0-1.674-.171,12.6,12.6,0,0,1-2.185-.273,1.194,1.194,0,0,1,.511.819,1.138,1.138,0,0,1-.716,1.093,7.444,7.444,0,0,1-3.553.684,2.159,2.159,0,0,1-1.811-.99,5.116,5.116,0,0,1-.478-2.46q0-1.024.034-2.425a12.013,12.013,0,0,0,.068-1.333q-.956.138-1.981.307-.717.1-1.3.206a10.757,10.757,0,0,1-.273,1.058,12.082,12.082,0,0,0-.546,3.041,1.312,1.312,0,0,0,.273.614,1.148,1.148,0,0,1,.17.616q0,.615-1.707,1.4a9.541,9.541,0,0,1-3.519,1.332c-.341,0-.512-.1-.512-.308q0-.238,1.058-1.332a9.864,9.864,0,0,0,2.187-2.9,12.606,12.606,0,0,0,.513-3.04,12.589,12.589,0,0,0-2.289.717,2.542,2.542,0,0,1-.683.547q-.445,0-.786-.751a2.638,2.638,0,0,1-.274-1.026q0-.512,1.23-.785A58.2,58.2,0,0,1,419.171,946.711Zm-6.115-7.106c.274.046.444.331.513.855a4.527,4.527,0,0,0,1.434,2.7,2.263,2.263,0,0,1,1.059,1.913q0,.718-1.127.717a6.891,6.891,0,0,1-3.04-.888,1.44,1.44,0,0,1-.888-1.195,7.275,7.275,0,0,1,.854-2.631Q412.544,939.607,413.056,939.605Zm4.373,9.122a4.068,4.068,0,0,1-.307,1.2q-.242,2.085-.24,2.937,0,.957.785.956a2.018,2.018,0,0,0,1.163-.443q.41-.513.751-.513a1.178,1.178,0,0,1,.649.274,1.427,1.427,0,0,1,.513-.615,3.678,3.678,0,0,0,1.878-3.177q0-.683-3.45-.683C418.625,948.658,418.043,948.681,417.429,948.727Z" fill="#000000"/><path d="M473.893,953.167q-3.175,3.177-9.052,3.177a39.705,39.705,0,0,1-6.524-.855,35.987,35.987,0,0,0-5.056-.682,13.424,13.424,0,0,0-6.934,1.639l-1.537-.786a12.093,12.093,0,0,1,8.471-3.074,32.311,32.311,0,0,1,5.978.718,44.739,44.739,0,0,0,6.081.819,13.112,13.112,0,0,0,7.1-1.708Z" fill="#000000"/><path d="M508.838,949.332a6.6,6.6,0,0,1-2.254,5.09,8.277,8.277,0,0,1-5.67,1.981,9.305,9.305,0,0,1-2.049-.239,7.456,7.456,0,0,0-.581-1.127l.376-.376a8.89,8.89,0,0,0,1.263.137,6.182,6.182,0,0,0,3.962-1.2,3.776,3.776,0,0,0,1.367-3.076q0-2.937-1.845-3.893a9.445,9.445,0,0,0-4-.581,15.755,15.755,0,0,0-2.767.205l-.068,1.024q0,.036-.1,4.885-.035,1.674-.034,2.562,0,2.085.1,6.046l.068,2.87a3.928,3.928,0,0,0,.171,1.5q.17.307.853.41a13.581,13.581,0,0,0,1.845.1q.342.036,1.161.1v1.366q-2.662-.136-5.089-.137-1.606,0-2.8.034l-3.417.1v-1.366l1.094-.1a3.908,3.908,0,0,0,1.742-.41,1.911,1.911,0,0,0,.649-1.64l.1-3.279q.034-1.092.035-4,0-7.379-.24-9.6-.069-.717-2.39-.923c-.183-.022-.513-.056-.992-.1v-1.366l2.871.1c.614.024,1.217.034,1.809.034q1.949,0,3.861-.068l1.878-.068q.957-.034,1.571-.034a11.256,11.256,0,0,1,5.466.991A4.382,4.382,0,0,1,508.838,949.332Z" fill="#000000"/><path d="M529.846,967.1q-1.639-.1-3.45-.1-1.4,0-2.767.1l-.205-.273a55.541,55.541,0,0,0,.342-6.252,18.637,18.637,0,0,0-.376-4.714,2.08,2.08,0,0,0-1.264-1.161,4.676,4.676,0,0,0-2.05-.478q-4,0-4,4.031,0,6.729.239,7.036t3.177.445V967.1q-1.538-.1-4.577-.1-2.8,0-5.022.1v-1.366a8.466,8.466,0,0,0,3.006-.376,3.325,3.325,0,0,0,.274-1.81l.034-7.276q0-2.768-.1-8.609-.034-1.5-.307-1.742a8.584,8.584,0,0,0-2.9-.341v-1.162a15.577,15.577,0,0,0,5.807-1.366c.205-.045.318-.068.342-.068.159,0,.239.1.239.307v.137q-.035.137-.1,3.313-.069,2.7-.069,5.91v1.5l2.938-1.776.547-.443a4.1,4.1,0,0,1,2.561-.616q2.666,0,3.621,1.23a6.38,6.38,0,0,1,.99,4.031q0-.2-.034,2.05l-.034,3.688a19.3,19.3,0,0,0,.1,2.7.66.66,0,0,0,.478.546,20.233,20.233,0,0,0,2.562.171Z" fill="#000000"/><path d="M546.414,967.1l-1.81-.069q-.993-.033-1.469-.034-.513,0-1.742.1l-.171-.205.034-.683q0-.239.137-1.5l-4.988,2.527a9.561,9.561,0,0,1-1.674.171q-3.791,0-3.792-4a4.034,4.034,0,0,1,2.734-4.168,78.145,78.145,0,0,1,7.72-1.537q.1-2.287-.752-3.108a4.709,4.709,0,0,0-2.7-.922,7.259,7.259,0,0,0-3.518.614l-.717,1.64-1.2-.308v-.2a3.718,3.718,0,0,0,.034-.512v-.2a3.587,3.587,0,0,1-.034-.512v-.649l.718-.41a26.667,26.667,0,0,1,2.561-1.332,7.857,7.857,0,0,1,2.8-.479,6.487,6.487,0,0,1,4.406,1.3,4.819,4.819,0,0,1,1.3,3.758q0,.853-.034,1.845l-.069,1.913q-.033.99-.034,2.425a16.212,16.212,0,0,0,.1,2.426.666.666,0,0,0,.512.545,2.444,2.444,0,0,0,.649.137c.205,0,.535.024.991.069Zm-5.021-4.065V959.1q-2.46.444-5.807,1.263a2.319,2.319,0,0,0-1.674,2.289q0,2.016,2.186,2.016a9.188,9.188,0,0,0,2.6-.581A13.506,13.506,0,0,0,541.393,963.03Z" fill="#000000"/><path d="M567.046,967.1l-.922-.034-2.357-.069c-.069,0-.354.012-.854.034-.478.024-.843.035-1.094.035-.386,0-.728.011-1.024.034l-.2-.239a41.231,41.231,0,0,0,.444-6.286,21.41,21.41,0,0,0-.307-4.577,2.035,2.035,0,0,0-1.264-1.264,4.694,4.694,0,0,0-2.118-.512,4.978,4.978,0,0,0-2.767.82,2.206,2.206,0,0,0-1.229,1.913,4.542,4.542,0,0,0,.034.683v3.553q0,3.928.272,4.167a9.712,9.712,0,0,0,3.041.376V967.1l-1.2-.1h-5.465l-2.767.1v-1.366a9.9,9.9,0,0,0,2.836-.308c.158-.113.25-.66.272-1.64l.068-4.953a22.81,22.81,0,0,0-.2-4.645,1.618,1.618,0,0,0-1.025-.205q-1.4,0-1.947-.035v-1.229a17.22,17.22,0,0,0,5.636-1.332l.274-.069q.239,0,.239.376v.376a1.907,1.907,0,0,0-.034.375l-.034,1.026v.682l3.347-2.083a4.681,4.681,0,0,1,2.869-.752,4.187,4.187,0,0,1,3.314,1.4,5.964,5.964,0,0,1,1.161,4.1q0,.035-.034,1.5l-.068,4.133a13.824,13.824,0,0,0,.136,2.563c.069.318.319.5.752.546q.58.069,2.22.171Z" fill="#000000"/><path d="M579.446,952.68q-.035.2-.136.581-.172.615-.376,1.571h-.684q-.444,0-1.229-.068c-.525-.023-.922-.035-1.2-.035a16.471,16.471,0,0,0-1.879.1v1.708c-.023.479-.034.854-.034,1.127a55.9,55.9,0,0,0,.171,5.7q.206,1.47,2.356,1.469a7.9,7.9,0,0,0,1.879-.479l.274.65q-.923.99-2.016,2.219a15.348,15.348,0,0,1-2.083.171,3.859,3.859,0,0,1-2.562-.99,3.748,3.748,0,0,1-.991-2.869q0-.308.069-2.836l.068-2.527q.034-1.264.034-2.8v-.547l-.717-.034-2.255.034v-.786l2.972-1.366v-.991l-.068-1.639q-.035-.855-.034-1.537v-.445a5.593,5.593,0,0,1-.034-.581,5.129,5.129,0,0,0,1.5-.682,11.437,11.437,0,0,1,1.468-.821l.479.342q-.343,2.665-.479,6.354,1.024.1,2.084.1c.114,0,.284-.011.512-.034.251-.022.433-.034.547-.034q.513-.035,1.366-.034Z" fill="#000000"/><path d="M596.56,967.1l-1.811-.069q-.992-.033-1.469-.034-.513,0-1.742.1l-.171-.205.034-.683q0-.239.137-1.5l-4.987,2.527a9.58,9.58,0,0,1-1.674.171q-3.79,0-3.792-4a4.033,4.033,0,0,1,2.733-4.168,78.216,78.216,0,0,1,7.72-1.537q.1-2.287-.752-3.108a4.705,4.705,0,0,0-2.7-.922,7.265,7.265,0,0,0-3.519.614l-.716,1.64-1.2-.308v-.2a3.567,3.567,0,0,0,.034-.512v-.2a3.739,3.739,0,0,1-.034-.512v-.649l.718-.41a26.648,26.648,0,0,1,2.562-1.332,7.852,7.852,0,0,1,2.8-.479,6.492,6.492,0,0,1,4.407,1.3,4.819,4.819,0,0,1,1.3,3.758q0,.853-.034,1.845l-.068,1.913q-.035.99-.034,2.425a16.418,16.418,0,0,0,.1,2.426.665.665,0,0,0,.513.545,2.436,2.436,0,0,0,.648.137c.205,0,.536.024.992.069Zm-5.022-4.065V959.1q-2.46.444-5.807,1.263a2.318,2.318,0,0,0-1.673,2.289q0,2.016,2.185,2.016a9.193,9.193,0,0,0,2.6-.581A13.494,13.494,0,0,0,591.538,963.03Z" fill="#000000"/><path d="M610.019,962.381a4.2,4.2,0,0,1-2.084,3.45,9.222,9.222,0,0,1-5.466,1.571,17.613,17.613,0,0,1-4.988-.853l-.239-.274a25.075,25.075,0,0,0,.239-3.655v-.785h1.469a5.587,5.587,0,0,0,.41,2.6,4.7,4.7,0,0,0,3.621,1.4,5.056,5.056,0,0,0,2.63-.614,1.929,1.929,0,0,0,1.026-1.742,2.588,2.588,0,0,0-.752-2.016,7.262,7.262,0,0,0-2.733-1.094q-2.528-.613-2.8-.717A5.124,5.124,0,0,1,598.78,959a3.037,3.037,0,0,1-1.469-2.561,4.454,4.454,0,0,1,1.844-3.792,8.462,8.462,0,0,1,5.09-1.333,13.365,13.365,0,0,1,4.748.787,26.964,26.964,0,0,0-.342,3.312l-.033.786h-1.3a4.517,4.517,0,0,0-.785-2.664,3.683,3.683,0,0,0-2.6-.649,4.334,4.334,0,0,0-2.391.615,1.743,1.743,0,0,0-.957,1.537,2.241,2.241,0,0,0,.991,2.117,10.718,10.718,0,0,0,3.45.923q.717.137,1.2.205Q610.018,959,610.019,962.381Z" fill="#000000"/><path d="M641.205,967.1l-.922-.034-1.2-.137-1.06.068-2.084.034-.956.069-.171-.341a51.4,51.4,0,0,0,.445-6.764,18.327,18.327,0,0,0-.342-4.373,1.969,1.969,0,0,0-1.23-1.127,4.959,4.959,0,0,0-2.049-.444,4.253,4.253,0,0,0-2.63.82,2.372,2.372,0,0,0-1.128,2.084v2.425l.068,4.406a4.9,4.9,0,0,0,.171,1.436c.068.181.3.3.684.341q.067,0,2.356.171V967.1l-.99-.034q-2.939-.1-3.382-.1-2.664,0-3.724.068l-1.092.069v-1.366l1.673-.069q.924-.033,1.127-.682a22.315,22.315,0,0,0,.171-3.758,28.2,28.2,0,0,0-.307-5.74q-.548-1.434-3.245-1.434a4.343,4.343,0,0,0-2.459.752,2.238,2.238,0,0,0-1.23,1.879,4.151,4.151,0,0,0,.034.58q.034.273.034,4.475a13.851,13.851,0,0,0,.2,3.586,8.84,8.84,0,0,0,2.733.411V967.1q-1.641-.1-3.519-.1-1.3,0-2.937.034l-2.631.069v-1.366q2.631-.034,2.9-.376t.273-4.133q0-4.68-.1-6.354a.922.922,0,0,0-.272-.718,2.932,2.932,0,0,0-1.026-.17q-.614,0-1.776-.035v-1.229a21.229,21.229,0,0,0,5.09-1.127l.581-.239a.743.743,0,0,1,.239-.035q.239,0,.239.411c0,.319-.011.591-.034.819a6.078,6.078,0,0,0-.034.854v.546l3.484-1.98a4.479,4.479,0,0,1,2.7-.65,3.954,3.954,0,0,1,2.561.684,5.281,5.281,0,0,1,1.3,2.117l3.587-2.151a3.761,3.761,0,0,1,2.426-.65,4.277,4.277,0,0,1,3.484,1.64,5.7,5.7,0,0,1,.956,3.69c0,.251-.011.694-.034,1.332q-.069,1.879-.068,4.03,0,2.971.307,3.348a7.659,7.659,0,0,0,2.8.376Z" fill="#000000"/><path d="M657.875,967.1l-1.811-.069q-.991-.033-1.468-.034-.513,0-1.742.1l-.171-.205.034-.683q0-.239.137-1.5l-4.988,2.527a9.561,9.561,0,0,1-1.674.171q-3.791,0-3.792-4a4.034,4.034,0,0,1,2.734-4.168,78.074,78.074,0,0,1,7.72-1.537q.1-2.287-.752-3.108a4.712,4.712,0,0,0-2.7-.922,7.259,7.259,0,0,0-3.518.614l-.717,1.64-1.2-.308v-.2a3.718,3.718,0,0,0,.034-.512v-.2a3.587,3.587,0,0,1-.034-.512v-.649l.717-.41a26.648,26.648,0,0,1,2.562-1.332,7.857,7.857,0,0,1,2.8-.479,6.489,6.489,0,0,1,4.406,1.3,4.819,4.819,0,0,1,1.3,3.758q0,.853-.034,1.845l-.069,1.913q-.033.99-.034,2.425a16.212,16.212,0,0,0,.1,2.426.664.664,0,0,0,.512.545,2.444,2.444,0,0,0,.649.137c.205,0,.535.024.991.069Zm-5.021-4.065V959.1q-2.46.444-5.807,1.263a2.319,2.319,0,0,0-1.674,2.289q0,2.016,2.186,2.016a9.188,9.188,0,0,0,2.6-.581A13.53,13.53,0,0,0,652.854,963.03Z" fill="#000000"/><path d="M677.551,952.782a12.57,12.57,0,0,0-.821,1.264,3.307,3.307,0,0,0-.306.581h-2.87a4.557,4.557,0,0,1,.239,1.366,3.8,3.8,0,0,1-2.016,3.621,12.361,12.361,0,0,1-5.465.922q-.684,0-1.4-.068-1.23.649-1.23,1.23,0,.888,1.981.854l3.108-.034h.65c.318.023.592.034.819.034h1.742a4.682,4.682,0,0,1,3.485,1.127,4.282,4.282,0,0,1,1.093,3.109,4.648,4.648,0,0,1-2.8,4.543,17.43,17.43,0,0,1-7.276,1.161q-7.755,0-7.754-4.235a3,3,0,0,1,.581-1.947,4.462,4.462,0,0,1,1.434-1.026l1.674-.922q-2.288-.169-2.289-1.4a1.873,1.873,0,0,1,1.094-1.606q.546-.273,1.434-.786a4.534,4.534,0,0,0,.547-.341,4.666,4.666,0,0,1-2.289-.82,3.284,3.284,0,0,1-1.435-2.766,4.45,4.45,0,0,1,2.084-3.963,9.9,9.9,0,0,1,5.6-1.367,9.06,9.06,0,0,1,5.158,1.3h2.323q1.2,0,2.562-.136Zm-3.621,15.167q0-2.323-1.264-2.971a7.289,7.289,0,0,0-2.8-.479l-1.776-.034h-3.758a5.938,5.938,0,0,0-2.05,1.161,3.074,3.074,0,0,0-.717,2.152q0,3.11,5.465,3.109Q673.929,970.887,673.93,967.949Zm-3.177-11.717a3.176,3.176,0,0,0-.956-2.6,4.823,4.823,0,0,0-3.075-.752,4.673,4.673,0,0,0-3.075.888,2.758,2.758,0,0,0-1.024,2.22v.239q0,2.837,4.2,2.835a4.783,4.783,0,0,0,2.8-.785A2.292,2.292,0,0,0,670.753,956.232Z" fill="#000000"/><path d="M695.45,958.965a8.451,8.451,0,0,1-2.254,6.252,8.581,8.581,0,0,1-6.285,2.185q-8.131,0-8.13-8.13,0-7.958,8.471-7.959,4.2,0,6.218,1.879Q695.45,955.037,695.45,958.965Zm-3.382,1.333q0-7.413-5.089-7.413a4.415,4.415,0,0,0-3.245,1.332,5.664,5.664,0,0,0-1.469,4.134,9.518,9.518,0,0,0,1.367,5.567,4.365,4.365,0,0,0,3.757,1.913,4.275,4.275,0,0,0,3.313-1.537A5.711,5.711,0,0,0,692.068,960.3Z" fill="#000000"/><path d="M709.593,951.519a3.3,3.3,0,0,1-.1.716c0,.411-.011.877-.034,1.4l-.1,2.322-.752.205a2.272,2.272,0,0,0-2.084-1.127q-3.417,0-3.484,3.211L703,960.264l.034,3.346a4.244,4.244,0,0,0,.17,1.538,1.039,1.039,0,0,0,.786.41,24.985,24.985,0,0,0,2.733.171V967.1l-.956-.034-1.913-.035q-1.947-.033-2.29-.034c-.09,0-.74.012-1.946.034l-2.836.069v-1.366l1.811-.035q1.161-.033,1.3-.853a53.6,53.6,0,0,0,.171-5.637q0-4.576-.273-4.919a10.135,10.135,0,0,0-3.007-.342v-1.229l.855-.1a18.069,18.069,0,0,0,4.884-1.229.561.561,0,0,1,.24-.069c.159,0,.239.149.239.445,0,.251-.012.648-.034,1.195-.024.525-.034.922-.034,1.2v1.128q.784-.684,2.185-2.015l.445-.513a4.293,4.293,0,0,1,1.3-1.127,3.47,3.47,0,0,1,1.606-.308A3.381,3.381,0,0,1,709.593,951.519Z" fill="#000000"/><path d="M720.455,967.1l-.717-.034-4.065-.069q.137,0-1.912.034l-2.939.069v-1.366q1.163-.034,2.631-.1a.722.722,0,0,0,.614-.614,33.274,33.274,0,0,0,.205-4.953q0-.888-.068-2.734-.033-.956-.034-1.98a1.669,1.669,0,0,0-.239-1.094,1.968,1.968,0,0,0-1.127-.239q-1.4-.034-1.982-.069v-1.229a19.36,19.36,0,0,0,6.081-1.4l.409.342q-.135,1.914-.17,3.757-.069,3.246-.068,5.295,0,4.374.341,4.68a16.152,16.152,0,0,0,3.04.342Zm-2.561-21.008a2.593,2.593,0,0,1-.65,1.81,2.169,2.169,0,0,1-3.313-.034,2.651,2.651,0,0,1,0-3.552,2.075,2.075,0,0,1,1.639-.751,2.111,2.111,0,0,1,1.674.751A2.549,2.549,0,0,1,717.894,946.087Z" fill="#000000"/><path d="M737.433,967.1l-1.811-.069q-.991-.033-1.469-.034c-.341,0-.923.034-1.742.1l-.171-.205.034-.683q0-.239.137-1.5l-4.987,2.527a9.57,9.57,0,0,1-1.674.171q-3.791,0-3.792-4a4.033,4.033,0,0,1,2.733-4.168,78.216,78.216,0,0,1,7.72-1.537q.1-2.287-.752-3.108a4.705,4.705,0,0,0-2.7-.922,7.265,7.265,0,0,0-3.519.614l-.716,1.64-1.2-.308v-.2a3.567,3.567,0,0,0,.034-.512v-.2a3.739,3.739,0,0,1-.034-.512v-.649l.718-.41a26.648,26.648,0,0,1,2.562-1.332,7.852,7.852,0,0,1,2.8-.479,6.492,6.492,0,0,1,4.407,1.3,4.819,4.819,0,0,1,1.3,3.758q0,.853-.034,1.845l-.068,1.913q-.034.99-.034,2.425a16.418,16.418,0,0,0,.1,2.426.665.665,0,0,0,.513.545,2.436,2.436,0,0,0,.648.137c.2,0,.536.024.992.069Zm-5.022-4.065V959.1q-2.46.444-5.807,1.263a2.318,2.318,0,0,0-1.673,2.289q0,2.016,2.185,2.016a9.186,9.186,0,0,0,2.6-.581A13.494,13.494,0,0,0,732.411,963.03Z" fill="#000000"/><path d="M765.955,958.965a8.451,8.451,0,0,1-2.254,6.252,8.581,8.581,0,0,1-6.285,2.185q-8.132,0-8.13-8.13,0-7.958,8.471-7.959,4.2,0,6.218,1.879Q765.955,955.037,765.955,958.965Zm-3.382,1.333q0-7.413-5.089-7.413a4.415,4.415,0,0,0-3.245,1.332,5.664,5.664,0,0,0-1.469,4.134,9.518,9.518,0,0,0,1.367,5.567,4.365,4.365,0,0,0,3.757,1.913,4.276,4.276,0,0,0,3.313-1.537A5.711,5.711,0,0,0,762.573,960.3Z" fill="#000000"/><path d="M780.2,943.252l-.1.615-.137,1.264-.205,1.434-.034.717-.684.1a4.38,4.38,0,0,0-2.9-1.332,2.372,2.372,0,0,0-2.153.854q-.682,1.126-.682,4.68v1.127h2.459a16.038,16.038,0,0,0,2.9-.239l.2.239a9.026,9.026,0,0,0-.443,1.981H773.3v.751q0,.991.034,2.87,0,2.186.034,5.09a4.539,4.539,0,0,0,.238,1.674,1.2,1.2,0,0,0,.957.478q.719.1,2.938.171V967.1l-.819-.034q-1.608-.068-3.724-.069-3.108,0-5.056.069l-.99.034v-1.366q.786-.034,1.878-.069c.684-.022,1.116-.147,1.3-.376a4.531,4.531,0,0,0,.272-1.912l.069-2.255q.033-1.128.034-2.527v-3.279l-.034-.616-.785.034q-.855,0-2.733.1v-.854l2.357-.786a.834.834,0,0,0,.273-.1q.41-.206.684-.376l.034-.41v-1.093q0-3.348,1.537-4.646l1.366-1.161q1.845-1.572,2.254-1.844a5.4,5.4,0,0,1,2.733-.684A6.55,6.55,0,0,1,780.2,943.252Z" fill="#000000"/><path d="M818.971,954.285a11.872,11.872,0,0,1-4,9.258,14.853,14.853,0,0,1-10.248,3.552q-1.5,0-4.3-.069-1.4-.033-2.151-.034-2.6,0-3.656.069l-1.058.068v-.854l.546-.171a11.674,11.674,0,0,0,1.844-.786q.1-1.2.205-5.054l.035-5.979q0-4.405-.206-7.446a1.027,1.027,0,0,0-.205-.65,9.292,9.292,0,0,0-2.254-.341q-.308-.034-.786-.1l-.273-.034v-1.366l1.162.034,1.264.068.99-.034,10.761-.068q6.147-.068,9.017,2.289A9.429,9.429,0,0,1,818.971,954.285Zm-3.86.82q0-4.644-2.391-6.9-2.393-2.22-8.54-2.118-1.126,0-3.621.1l-.751.069v1.058l-.137,9.087.137,8.711a22.7,22.7,0,0,0,3.621.239,21.823,21.823,0,0,0,5.977-.649,7.3,7.3,0,0,0,4.032-3.348A11.731,11.731,0,0,0,815.111,955.105Z" fill="#000000"/><path d="M830.379,967.1l-.717-.034-4.065-.069q.137,0-1.912.034l-2.939.069v-1.366q1.163-.034,2.631-.1a.722.722,0,0,0,.614-.614,33.274,33.274,0,0,0,.205-4.953q0-.888-.068-2.734-.035-.956-.034-1.98a1.661,1.661,0,0,0-.24-1.094,1.962,1.962,0,0,0-1.126-.239q-1.4-.034-1.982-.069v-1.229a19.36,19.36,0,0,0,6.081-1.4l.409.342q-.135,1.914-.171,3.757-.068,3.246-.067,5.295,0,4.374.341,4.68a16.152,16.152,0,0,0,3.04.342Zm-2.562-21.008a2.593,2.593,0,0,1-.649,1.81,2.17,2.17,0,0,1-3.314-.034,2.653,2.653,0,0,1,0-3.552,2.078,2.078,0,0,1,1.64-.751,2.112,2.112,0,0,1,1.674.751A2.549,2.549,0,0,1,827.817,946.087Z" fill="#000000"/><path d="M861.465,967.1l-.922-.034-1.2-.137-1.06.068-2.084.034-.956.069-.171-.341a51.4,51.4,0,0,0,.444-6.764,18.343,18.343,0,0,0-.341-4.373,1.969,1.969,0,0,0-1.23-1.127,4.964,4.964,0,0,0-2.05-.444,4.252,4.252,0,0,0-2.629.82,2.372,2.372,0,0,0-1.128,2.084v2.425l.068,4.406a4.86,4.86,0,0,0,.171,1.436c.068.181.3.3.683.341q.067,0,2.357.171V967.1l-.99-.034q-2.939-.1-3.382-.1-2.665,0-3.724.068l-1.093.069v-1.366l1.674-.069q.923-.033,1.127-.682a22.433,22.433,0,0,0,.171-3.758,28.08,28.08,0,0,0-.308-5.74q-.546-1.434-3.245-1.434a4.345,4.345,0,0,0-2.459.752,2.239,2.239,0,0,0-1.229,1.879,4.151,4.151,0,0,0,.034.58q.034.273.034,4.475a13.935,13.935,0,0,0,.2,3.586,8.858,8.858,0,0,0,2.734.411V967.1q-1.641-.1-3.519-.1-1.3,0-2.937.034l-2.631.069v-1.366q2.631-.034,2.9-.376t.273-4.133q0-4.68-.1-6.354a.922.922,0,0,0-.272-.718,2.932,2.932,0,0,0-1.026-.17q-.614,0-1.776-.035v-1.229a21.229,21.229,0,0,0,5.09-1.127l.581-.239a.743.743,0,0,1,.239-.035q.239,0,.239.411c0,.319-.011.591-.034.819a6.078,6.078,0,0,0-.034.854v.546l3.484-1.98a4.478,4.478,0,0,1,2.7-.65,3.955,3.955,0,0,1,2.562.684,5.281,5.281,0,0,1,1.3,2.117l3.587-2.151a3.761,3.761,0,0,1,2.426-.65,4.277,4.277,0,0,1,3.484,1.64,5.7,5.7,0,0,1,.956,3.69c0,.251-.012.694-.034,1.332q-.069,1.879-.069,4.03,0,2.971.308,3.348a7.653,7.653,0,0,0,2.8.376Z" fill="#000000"/><path d="M867.75,966.173a2.561,2.561,0,0,1-4.372,1.776,2.484,2.484,0,0,1-.718-1.776,2.586,2.586,0,0,1,.752-1.845,2.488,2.488,0,0,1,1.776-.718,2.584,2.584,0,0,1,1.845.752A2.53,2.53,0,0,1,867.75,966.173Z" fill="#000000"/><path d="M896.2,954.285a11.872,11.872,0,0,1-4,9.258A14.853,14.853,0,0,1,881.96,967.1q-1.5,0-4.305-.069-1.4-.033-2.151-.034-2.6,0-3.655.069l-1.059.068v-.854l.546-.171a11.654,11.654,0,0,0,1.845-.786q.1-1.2.2-5.054l.034-5.979q0-4.405-.2-7.446a1.039,1.039,0,0,0-.205-.65,9.316,9.316,0,0,0-2.254-.341c-.2-.023-.468-.057-.786-.1l-.274-.034v-1.366l1.162.034,1.264.068.99-.034,10.761-.068q6.148-.068,9.018,2.289A9.428,9.428,0,0,1,896.2,954.285Zm-3.859.82q0-4.644-2.392-6.9-2.393-2.22-8.54-2.118-1.126,0-3.621.1l-.751.069v1.058L876.9,956.4l.137,8.711a22.7,22.7,0,0,0,3.621.239,21.831,21.831,0,0,0,5.978-.649,7.3,7.3,0,0,0,4.031-3.348A11.732,11.732,0,0,0,892.345,955.105Z" fill="#000000"/><path d="M910.791,951.519a3.3,3.3,0,0,1-.1.716c0,.411-.011.877-.034,1.4l-.1,2.322-.752.205a2.272,2.272,0,0,0-2.084-1.127q-3.417,0-3.484,3.211l-.034,2.016.034,3.346a4.244,4.244,0,0,0,.17,1.538,1.041,1.041,0,0,0,.786.41,25.006,25.006,0,0,0,2.733.171V967.1l-.956-.034-1.913-.035q-1.947-.033-2.289-.034-.136,0-1.947.034l-2.836.069v-1.366l1.811-.035q1.161-.033,1.3-.853a53.6,53.6,0,0,0,.171-5.637q0-4.576-.273-4.919a10.135,10.135,0,0,0-3.007-.342v-1.229l.855-.1a18.086,18.086,0,0,0,4.885-1.229.561.561,0,0,1,.239-.069c.159,0,.239.149.239.445,0,.251-.011.648-.034,1.195-.023.525-.034.922-.034,1.2v1.128q.785-.684,2.185-2.015l.445-.513a4.284,4.284,0,0,1,1.3-1.127,3.463,3.463,0,0,1,1.605-.308A3.381,3.381,0,0,1,910.791,951.519Z" fill="#000000"/><path d="M926.845,957.6a11.635,11.635,0,0,1-.069,1.229l-2.048.547h-1.811l-1.605.034-1.094-.034h-5.09a5.98,5.98,0,0,0,1.6,4.065,7.439,7.439,0,0,0,9.19.512l.513.444q-.206.377-.411.821l-.376.751a10.682,10.682,0,0,1-5.6,1.434,8.263,8.263,0,0,1-5.943-2.049,7.61,7.61,0,0,1-2.084-5.739,9.19,9.19,0,0,1,1.025-4.679,4.434,4.434,0,0,1,1.434-1.4,17.463,17.463,0,0,1,3.246-1.742,6.941,6.941,0,0,1,2.664-.479,6.474,6.474,0,0,1,4.782,1.674A6.161,6.161,0,0,1,926.845,957.6Zm-3.109.068v-.785a3.6,3.6,0,0,0-1.229-2.87,4.558,4.558,0,0,0-3.006-.991q-4.134,0-4.475,4.646,1.707.138,4.475.137Q922.233,957.8,923.736,957.667Z" fill="#000000"/><path d="M944.027,967.1l-1.81-.069q-.991-.033-1.469-.034-.513,0-1.742.1l-.171-.205.034-.683q0-.239.137-1.5l-4.987,2.527a9.58,9.58,0,0,1-1.674.171q-3.792,0-3.792-4a4.033,4.033,0,0,1,2.733-4.168,78.216,78.216,0,0,1,7.72-1.537q.1-2.287-.752-3.108a4.708,4.708,0,0,0-2.7-.922,7.261,7.261,0,0,0-3.519.614l-.717,1.64-1.2-.308v-.2a3.718,3.718,0,0,0,.034-.512v-.2a3.739,3.739,0,0,1-.034-.512v-.649l.718-.41a26.667,26.667,0,0,1,2.561-1.332,7.861,7.861,0,0,1,2.8-.479,6.487,6.487,0,0,1,4.406,1.3,4.815,4.815,0,0,1,1.3,3.758q0,.853-.034,1.845l-.068,1.913q-.034.99-.035,2.425a16.359,16.359,0,0,0,.1,2.426.665.665,0,0,0,.513.545,2.428,2.428,0,0,0,.648.137c.205,0,.535.024.991.069Zm-5.021-4.065V959.1q-2.46.444-5.807,1.263a2.319,2.319,0,0,0-1.674,2.289q0,2.016,2.186,2.016a9.193,9.193,0,0,0,2.6-.581A13.518,13.518,0,0,0,939.006,963.03Z" fill="#000000"/><path d="M974.463,967.1l-.922-.034-1.2-.137-1.06.068-2.084.034-.956.069-.171-.341a51.4,51.4,0,0,0,.445-6.764,18.327,18.327,0,0,0-.342-4.373,1.969,1.969,0,0,0-1.23-1.127,4.964,4.964,0,0,0-2.05-.444,4.252,4.252,0,0,0-2.629.82,2.372,2.372,0,0,0-1.128,2.084v2.425l.068,4.406a4.86,4.86,0,0,0,.171,1.436c.068.181.3.3.683.341q.067,0,2.357.171V967.1l-.99-.034q-2.938-.1-3.382-.1-2.666,0-3.724.068l-1.093.069v-1.366l1.674-.069q.924-.033,1.127-.682a22.433,22.433,0,0,0,.171-3.758,28.2,28.2,0,0,0-.307-5.74q-.548-1.434-3.246-1.434a4.345,4.345,0,0,0-2.459.752,2.239,2.239,0,0,0-1.229,1.879,4.151,4.151,0,0,0,.034.58q.035.273.034,4.475a13.935,13.935,0,0,0,.2,3.586,8.858,8.858,0,0,0,2.734.411V967.1q-1.641-.1-3.519-.1-1.3,0-2.937.034l-2.631.069v-1.366q2.631-.034,2.9-.376t.273-4.133q0-4.68-.1-6.354a.922.922,0,0,0-.272-.718,2.932,2.932,0,0,0-1.026-.17q-.614,0-1.776-.035v-1.229a21.229,21.229,0,0,0,5.09-1.127l.581-.239a.743.743,0,0,1,.239-.035q.239,0,.239.411c0,.319-.011.591-.034.819a6.078,6.078,0,0,0-.034.854v.546l3.484-1.98a4.479,4.479,0,0,1,2.7-.65,3.954,3.954,0,0,1,2.561.684,5.281,5.281,0,0,1,1.3,2.117l3.587-2.151a3.761,3.761,0,0,1,2.426-.65,4.277,4.277,0,0,1,3.484,1.64,5.7,5.7,0,0,1,.956,3.69c0,.251-.012.694-.034,1.332q-.069,1.879-.069,4.03,0,2.971.308,3.348a7.653,7.653,0,0,0,2.8.376Z" fill="#000000"/></g></svg>
