<svg xmlns="http://www.w3.org/2000/svg" width="1000" height="988" viewBox="0 0 1000 988"><g id="Artboard"><rect id="Tint" width="1000" height="988" fill="#58595b"/></g><g id="Outline"><g id="東方心綺楼"><path id="東" d="M436.75,188.412c2.819,0,13.151-2.163,25.357-7.374a119.482,119.482,0,0,0,32.437-20.33c-.286,7.828-.692,15.818-1.214,23.86,0,.086-.008.173-.008.259v.553c0,4.874,3.219,8.149,8.01,8.149,4.889,0,9.946-3.41,9.946-9.117v-.138c0-.043,0-.086,0-.129-.3-9.278-.592-19.034-.786-28.9a123.52,123.52,0,0,0,21.88,19.629c7.4,5.224,17.214,10.775,20.82,10.775a5.42,5.42,0,0,0,4.189-1.972c1.533-1.358,6.541-3.039,9.264-3.953,4.626-1.552,7.419-2.489,7.419-5.819,0-1.156-.456-3.91-4.679-4.513-22.252-3.115-40.807-14.152-52.805-25.23h10.1a7.4,7.4,0,0,0,7.707,6.915c5.016,0,9.255-3.922,9.255-8.564v-.138c0-.089,0-.177-.009-.266-.531-7.965-1.1-19.053-1.1-26.286,0-.812.038-1.562.075-2.287.031-.616.061-1.2.064-1.77.007-.17.016-.314.024-.436l.012-.006c.319-.165.68-.352,1.087-.578,1.682-.917,5.238-2.856,5.238-6.678,0-1.089,0-3.639-6.576-8.154-2.178-1.5-6.266-4-9.179-4-2.606,0-4.143,1.421-6.48,4.425H510.433l.172-5.69h46.042c5.56,0,7.043-3.557,7.043-5.66,0-.944,0-3.454-5.644-8.785-1.518-1.434-5.417-4.881-9.161-6.264a5.682,5.682,0,0,0-2.332-.429c-3.8,0-5.745,2.646-10.7,9.681H511.105l.028-.467c.066-1.424.135-2.238.195-2.7.411-.23.966-.542,1.626-.982l.076-.052c1.172-.821,3.918-2.744,3.918-6.042,0-4.451-5.043-6.308-10.492-7.652a62.06,62.06,0,0,0-9.134-1.6,4.183,4.183,0,0,0-4.277,4.276,6.341,6.341,0,0,0,.264,1.841,97.912,97.912,0,0,1,1.138,13.382h-4.04c-8.057,0-30.443-.551-44.481-2.186a4,4,0,0,0-4.463,3.973v.138c0,3.843,5.562,11.053,10.5,11.053h.139c.134,0,.268-.007.4-.02,3.161-.32,6.728-.576,10.415-.78a4.469,4.469,0,0,0-1.265,3.161,4.56,4.56,0,0,0,.15,1.135,3.984,3.984,0,0,0,.091.594c.433,1.878,1.557,9.427,1.557,21.643,0,10.641-.313,19.719-.955,27.754-.009.106-.013.212-.013.319v.414c0,4.31,3.123,7.319,7.6,7.319,4.517,0,9.393-3.115,9.393-8.148,0-.034,0-.069,0-.1l-.033-1.291h8.628c-16.595,18.071-36.589,29.587-50.7,34.543l-.11.041c-2.482.954-5.331,2.43-5.331,5.393C431.92,184.31,431.975,188.412,436.75,188.412Zm58.369-63.337V132.7H479.312c-.014-1.4-.032-2.806-.05-4.184q-.022-1.766-.042-3.443Zm-15.911-11.457c.015-1.4.048-2.649.118-3.772l.006-.128c.011-.389.036-1.2.075-1.821l.173-.108h15.539v5.829ZM494.9,96.332H480a90.705,90.705,0,0,0-10.567-5.276c7.919-.311,15.634-.415,20.423-.415h4.931Zm15.3,28.743h16.7c-.031,2.48-.086,5.018-.15,7.627H510.288c-.014-1.336-.031-2.664-.048-3.97C510.224,127.526,510.208,126.3,510.2,125.075Zm0-11.457c.013-1.03.028-2.055.043-3.064.013-.913.027-1.839.039-2.765H526.8c.079,1.712.108,3.675.118,5.829Z" fill="#fff"/><path id="方" d="M438.41,320.381c-6.075,2.43-6.075,5.155-6.075,6.05a4.459,4.459,0,0,0,4.692,4.415,17.51,17.51,0,0,0,5.225-1.157,87.6,87.6,0,0,0,35.941-20.807,4.055,4.055,0,0,0-.083.816c0,2.728,1.612,3.737,8.395,7.982,3.079,1.927,9.426,5.9,10.66,7.423.012.025.024.051.037.076a7.752,7.752,0,0,0,5.319,3.845,19.278,19.278,0,0,0,2.959.163c12.249,0,22.827-7.107,29.023-19.5,4.455-8.785,7.435-22.645,8.847-41.174a7.121,7.121,0,0,1,.327-2.012,3.294,3.294,0,0,1,.766-.386c4.942-2.036,5.971-4.872,5.971-6.9,0-3.133-2.415-5.888-7.831-8.932-1-.562-6.086-3.365-8.062-3.365-2.071,0-2.583.511-6.562,4.49l-.072.073H506.75c.522-2.917.973-5.911,1.443-9.109l.01-.073c.108-.841.207-1.411.287-1.792.235-.078.5-.175.778-.3a8.7,8.7,0,0,0,4.586-3.825h44.73c5.559,0,7.042-3.558,7.042-5.66,0-1.162,0-4.251-7.37-10.386-3.094-2.575-7.348-5.645-10.044-5.645-2.093,0-3.877,1.262-6.818,4.824a61.365,61.365,0,0,0-3.97,5.41H510.4c.089-2.36.225-4.735.313-6.07.13-1.515.239-2.375.325-2.859A19.336,19.336,0,0,0,513,214.9c2.637-1.6,4.088-3.738,4.088-6.018,0-4.691-5.564-6.483-11.577-7.721a86.354,86.354,0,0,0-9.294-1.4,4.047,4.047,0,0,0-4.138,4.138,6.625,6.625,0,0,0,.28,2.032c.977,4.165,1.1,11.733,1.1,17.882v1.117h-3.468c-7.06,0-30.411-.377-44.615-2.047a3.867,3.867,0,0,0-.468-.028,4,4,0,0,0-4,4c0,3.475,5.2,11.053,10.361,11.053h.138c.135,0,.269-.007.4-.02,11.718-1.185,29.078-1.5,37.489-1.5h1.8c-.16,6.983-2.327,23.155-9.709,39.845C471.9,297.705,457.435,312.557,438.41,320.381Zm88.033-57.3C524.525,310.4,510.726,310.4,504.789,310.4c-5.168,0-11.171-1.757-16.978-3.457-.919-.269-1.83-.536-2.729-.793a8.215,8.215,0,0,0-2.7-.452h-.276a4,4,0,0,0-.9.1q1.148-1.233,2.251-2.517c9.267-10.781,16.209-24.293,20.66-40.2Z" fill="#fff"/><g id="心"><path d="M485.278,353.427c6.781,3.781,13.841,8.052,19.091,14.966l.036.047c3.855,4.926,7.676,5.96,10.2,5.96,4.957,0,8.84-4.187,8.84-9.532,0-15.341-28.333-20.456-35.944-20.456-3.443,0-5.245,2.29-5.245,4.553a5.233,5.233,0,0,0,2.91,4.4C485.2,353.385,485.241,353.406,485.278,353.427Z" fill="#fff"/><path d="M444.633,442.715c11.794,0,22.946-17.4,22.946-35.806a43.126,43.126,0,0,0-.463-6.32c-.278-1.789-.93-5.978-4.782-5.978-.863,0-3.742.323-4.82,4.441-3.7,12.159-8.361,19.2-16.057,24.3-4.131,2.754-6.494,6.538-6.494,10.388C434.963,438.771,439.21,442.715,444.633,442.715Z" fill="#fff"/><path d="M474.929,444.938v.968c0,7.952,2.852,13.655,8.477,16.952,4.462,2.615,10.673,3.782,20.138,3.782,4.6,0,10.072-.269,15.3-.56,16.091-1.038,23.277-7.823,23.277-14.089a9.556,9.556,0,0,0-4.542-7.761c-.858-2-1.633-8.618-2.016-11.886-.227-1.939-.424-3.614-.633-4.906-.235-1.452-.859-5.307-4.554-5.307-1.154,0-3.887.493-4.5,5.035-1.9,10.278-3.342,17.23-5.852,20.1-1.876,2.144-5.11,2.8-13.843,2.8-14.392,0-14.392-.941-14.392-7.063,0-27.082.33-45.526.955-53.337l.03-.341a27.306,27.306,0,0,1,.363-3.083,7.116,7.116,0,0,1,.728-.443l.057-.032c1.345-.769,4.92-2.812,4.92-6.516,0-4.543-5.146-6.625-10.179-8.063a50.825,50.825,0,0,0-9.725-1.883,4.459,4.459,0,0,0-4.692,4.415,6.9,6.9,0,0,0,.3,1.862c.023.086.048.177.073.273,1.007,4.978,1.007,10.905,1.007,25.108,0,7.756-.262,30.3-.69,43.85C474.93,444.854,474.929,444.9,474.929,444.938Z" fill="#fff"/><path d="M559.552,433.312c5.2,0,9.117-4.514,9.117-10.5,0-17.5-32.862-31.105-41.2-31.105a4.165,4.165,0,0,0-4.278,4.138c0,2.563,2.047,3.841,3.541,4.775,9.616,6.029,17.236,14.316,21.452,23.333C551.923,432.093,556.912,433.312,559.552,433.312Z" fill="#fff"/></g><path id="綺" d="M552.072,544.452c0-.029,0-.058,0-.087,0-.544,0-1.1.008-1.552l.082-.037a6.724,6.724,0,0,0,3.082-2.431H565.5c5.341,0,6.766-3.384,6.766-5.383,0-6.982-12.8-13.3-12.933-13.357a4,4,0,0,0-1.122-.3,5.4,5.4,0,0,0-1.285-.163,3.91,3.91,0,0,0-.751.074c-.744-7.575-9.73-12.028-18.223-14.478h17.868c4.578,0,6.627-2.912,6.627-5.8,0-6.8-12.206-12.376-12.329-12.425a4.024,4.024,0,0,0-1.035-.262,5.387,5.387,0,0,0-1.284-.163c-2.661,0-4.706,2.2-6.519,4.584-.71.933-1.419,1.963-1.924,2.745h-9.019q.093-.962.157-1.974c.023-.389.046-.708.07-.968.133-.05.273-.1.417-.167l.08-.036c2.854-1.3,4.558-3.589,4.558-6.13,0-5.284-6.953-6.837-9.921-7.5a59.574,59.574,0,0,0-7.769-1.2,4.048,4.048,0,0,0-4.139,4.139v.553a4.047,4.047,0,0,0,.05.631,31.772,31.772,0,0,1,.641,6.006c0,1.539-.056,4.082-.233,6.421-8.281-.256-15.738-.817-22.208-1.673a4,4,0,0,0-4.365,2.846q-.21-.114-.427-.23c-1.879-1.005-6.437-3.342-8.179-3.342-1.416,0-3.863.594-4.345,4.571l-.03.246c-.665,4.017-3.389,10.068-6.846,16.485a14.951,14.951,0,0,0-4.425-5.143,168.167,168.167,0,0,0,10.131-15.842c.019-.031.036-.06.053-.086l.175-.031c6.436-1.07,6.936-5.089,6.936-6.3,0-3.391-3.305-5.592-8.639-8.042-1.537-.706-6.692-3.01-8.5-3.01a4.29,4.29,0,0,0-4.277,4.691v1.521c0,3.828-3.271,14.215-6.212,22.057a30.89,30.89,0,0,0-7.627-1.3,4.477,4.477,0,0,0-4.83,4.415c0,2.113,1.531,3.633,2.684,4.594l.324.268c3.043,2.511,6.492,5.356,8.928,10,1.774,3.369,4.393,5.441,7.293,5.813-1.82,2.9-3.594,5.615-5.177,7.965h-1.616a78.443,78.443,0,0,1-9.163-.52c-.088-.012-.177-.02-.266-.026a5.483,5.483,0,0,0-1.22-.146,4.281,4.281,0,0,0-4.276,4.277c0,.394,0,1.594,2.866,7.142,1.724,3.338,3.384,5.834,5.46,6.858a6.147,6.147,0,0,0-1,3.7c0,10.9-5.244,28.912-8.864,36.558a7.9,7.9,0,0,0-.955,3.546,4.3,4.3,0,0,0,4.277,4.415c1.463,0,3.673,0,9.789-9.8a130.469,130.469,0,0,0,11.1-22.937l.024-.065.108-.305c.025-.071.052-.146.079-.221.271-.066.532-.137.781-.212-.189,10.667-.61,20.982-1.258,30.8-.006.087-.009.175-.009.263v.553c0,5.5,3.865,8.011,7.457,8.011a9.176,9.176,0,0,0,9.255-8.84v-.277c0-.033,0-.066,0-.1-.216-8.836-.445-21.691-.523-32.408a75.8,75.8,0,0,1,4.392,12.571c1.408,6.022,5.285,8.17,8.45,8.17a7.66,7.66,0,0,0,5.369-2.286,6.929,6.929,0,0,0,6.386,3.807,8.2,8.2,0,0,0,8.564-8.149c0-1.144-.031-2.275-.064-3.467h6.63a7.073,7.073,0,0,0,7.135,6.638,8.149,8.149,0,0,0,8.424-8.426v-.276c0-.1,0-.2-.011-.3q-.11-1.47-.218-2.859c-.322-4.18-.6-7.791-.6-10.255a24.918,24.918,0,0,1,.094-2.7c.073-.069.2-.18.416-.349.145-.109.3-.219.471-.334,1.4-.975,4-2.789,4-6.022,0-2.558-1.79-4.979-5.8-7.851-3.225-2.308-5.643-3.479-7.184-3.479a5.374,5.374,0,0,0-3.78,1.437,16.151,16.151,0,0,0-2.775,3.542h-6.841a71.811,71.811,0,0,0-6.477-4c7.207-.681,16.043-1,22.5-1H535.93c.218,5.026.4,15.075.4,27.668,0,7.947,0,15.453-.261,18.461,0,.03,0,.059-.007.089-.119,1.852-.169,2.619-4.167,2.619-2.775,0-6.671-.555-13.028-1.855l-.142-.026c-.279-.047-.523-.094-.732-.134a8.19,8.19,0,0,0-1.587-.2,4.3,4.3,0,0,0-4.415,4.276c0,2.739,1.817,3.748,6.673,6.443,2.415,1.34,8.071,4.48,9.044,5.826l.028.045a6.933,6.933,0,0,0,6.1,3.441c5.8,0,18.521-4.594,18.521-18.244v-.968a4.1,4.1,0,0,0-.025-.443c-.087-.785-.667-8.5-.667-19.471,0-6.009.171-13.142.308-18.873C552.006,547.373,552.042,545.84,552.072,544.452Zm-42.454,16.232c0-1.582,0-3.088.082-3.745h6.78c.05,2.376.066,5.205.071,8.042h-6.907C509.618,563.331,509.618,561.837,509.618,560.684Zm32.576-31.8h-15.97c-3.964,0-10.767-.173-18-.5a34.074,34.074,0,0,0,16.167-13.459c5.459,3.026,11,6.627,14.673,10.991A17.015,17.015,0,0,0,542.194,528.888Zm-66.084,5.406c-2.2.184-4.523.353-6.852.51,1.362-1.626,2.744-3.32,4.114-5.031.167.288.352.581.553.883C474.559,531.638,475.324,532.88,476.11,534.294Zm18.3-27.091a6.334,6.334,0,0,0,2.908.781h.138a4.052,4.052,0,0,0,.426-.022c5.073-.544,9.552-.783,13.608-.924-2.814,6.273-8.773,12.448-23.554,16.293a8.494,8.494,0,0,0-4.044,2.105,22.749,22.749,0,0,0-5.136-2.552c3.688-4.811,6.912-9.2,8.9-11.93.207-.265.343-.425.43-.521C491.738,510.005,493.536,508.592,494.414,507.2Zm-17.563,41.9a6.478,6.478,0,0,0,3.285-3.877l.068-.02c1.4,5.667,5.117,7.722,8.267,7.722a7.99,7.99,0,0,0,5.9-2.64c.42,3.91.609,7.743.609,8.873,0,2.909-.025,5.522-.114,8.354a38.356,38.356,0,0,0-6.085-7.023c-.08-.074-8.063-7.405-11.789-7.405-.092,0-.182,0-.272.008C476.737,551.27,476.773,549.91,476.851,549.1ZM452.7,552.066c.046-.034.089-.065.126-.09,1.68-.361,4.21-.982,7.121-1.7l1.9-.466c.054,1.8.081,3.431.081,4.922q0,.357,0,.713c-1.06-.542-2.195-1.023-3.323-1.464A55.475,55.475,0,0,0,452.7,552.066Z" fill="#fff"/><path id="楼" d="M570.844,673.57l-.223-.054c-.116-.029-.232-.053-.35-.072-14.37-2.269-27.519-10.069-36.083-18.047H560.52c4.578,0,6.627-2.911,6.627-5.8,0-4.987-8.691-11.458-12.724-13.138a5.357,5.357,0,0,0,1.661-3.872c0-2.033-1.072-4.257-6.3-8.5-5.7-4.628-7.243-4.628-8.069-4.628-2.916,0-3.992,2.461-4.37,3.395-.087.192-.175.391-.267.6a22.209,22.209,0,0,1-2.322,4.28,95.027,95.027,0,0,1-6.577,8.083c.063-1.7.143-3.327.242-4.915.022-.312.042-.569.061-.78.267-.107.569-.233.907-.385.1-.046.2-.1.3-.152,2.649-1.472,3.993-3.346,3.993-5.57,0-4.72-6.218-6.226-9.558-7.034a58.269,58.269,0,0,0-7.856-1.392,4.24,4.24,0,0,0-4.553,4.277,5.522,5.522,0,0,0,.359,2.025c.749,2.786,1.184,12.586,1.28,22.178q-1.78-.015-3.544-.054a9.018,9.018,0,0,0,2.99-6.725c0-9.452-13.092-13.237-21.344-13.4h-.08a16.252,16.252,0,0,0-2.165.088,4.362,4.362,0,0,0-4.047,4.327c0,2.215,1.481,3.273,3.195,4.5.035.025.071.049.107.073a27.044,27.044,0,0,1,7.149,7.865,12.637,12.637,0,0,0,1.982,2.695q-5.7-.423-11.1-1.122a4,4,0,0,0-3.116.93,15.4,15.4,0,0,0-2.228-1.5,5.021,5.021,0,0,0-2.775-.712c-2.088,0-3.727,1.192-5.64,3.767.059-5.506.183-9.9.367-12.939a14.885,14.885,0,0,1,.161-1.553l.131-.067c.3-.151.619-.317.973-.516,2.928-1.6,4.412-3.618,4.412-5.988,0-5.152-6.869-6.843-9.8-7.566a53.146,53.146,0,0,0-8.442-1.412,4.182,4.182,0,0,0-4.276,4.276,7.118,7.118,0,0,0,.236,1.877c.749,4.47,1.181,16.635,1.268,27.836-3.89-.219-9-.68-16-1.724a4.05,4.05,0,0,0-.59-.044,4,4,0,0,0-4,4c0,1.734,1.016,3.883,3.02,6.388,3.047,3.81,5.176,4.25,6.512,4.25h.138a3.92,3.92,0,0,0,.5-.031c4.79-.6,7.579-.921,9.992-1.079-1.061,4.846-3.955,12.055-8.071,19.945-4.894,9.381-10.66,18.12-14.349,21.746-1.9,1.9-3.132,3.275-3.132,5.2a4.165,4.165,0,0,0,4.277,4.139c4.083,0,11.963-7.363,12.848-8.2a71.92,71.92,0,0,0,8.489-9.683c-.293,15.591-.705,31.359-1.133,42.917,0,.049,0,.1,0,.148V737c0,5.884,4.08,8.563,7.872,8.563h.064a6.11,6.11,0,0,0,.764.244,13.9,13.9,0,0,0,3.321.309h1.106c.05,0,.1,0,.151,0,20.2-.766,45.105-1.712,60.5-17.8a50.26,50.26,0,0,1,15.153,12.383l.057.071c3.128,3.851,6.2,4.659,8.221,4.659a8.587,8.587,0,0,0,8.287-8.84c0-8.589-11.783-16.111-23.393-20.623a60.142,60.142,0,0,0,2.9-7.968c.128-.421.242-.812.347-1.174.135-.462.292-1,.42-1.374a7,7,0,0,0,3.783-2.476h15.816c5.341,0,6.766-3.471,6.766-5.522,0-1.045,0-4.226-6.415-9.46a37.076,37.076,0,0,0-3.11-2.29c1.226-.808,5.614-1.955,7.758-2.515,1.394-.364,2.6-.679,3.556-.986,1.028-.33,4.158-1.334,4.158-4.524A4.181,4.181,0,0,0,570.844,673.57ZM520.8,689.792a7.129,7.129,0,0,1,.744-.19c4.461-.956,6.055-3.719,6.055-5.984a5.153,5.153,0,0,0-1.46-3.612,7.574,7.574,0,0,0,2.7-5.93v-.138q0-.071,0-.141l-.218-6.164c6.57,7.878,14.081,14.3,19.667,17.589a25.641,25.641,0,0,0-2.017,2.017,45.29,45.29,0,0,0-3.516,4.411H522.49c-.705,0-1.573-.02-2.571-.045A10,10,0,0,1,520.8,689.792Zm-8.252-15.576c0,.046,0,.092,0,.138v.385a18.194,18.194,0,0,0-2.639-.376c-1,0-4.276.379-4.276,5.245a43.859,43.859,0,0,1-2.131,11.674c-7.326-.256-14.757-.7-20.9-1.242A85.046,85.046,0,0,0,512.705,669.6ZM482.8,704.49h.138a4,4,0,0,0,.424-.022c4.672-.5,10.2-.774,15.81-1a133.933,133.933,0,0,1-7.615,15.673,7.743,7.743,0,0,0-1.279,4.3c0,3.841,3.253,6.628,7.734,6.628,6.043,0,7.988-2.915,10.655-9.234,2.3.4,4.47.879,6.528,1.427-10.05,8.639-26.007,11.766-41.547,13.314-.326-11.615-.591-25.755-.758-39.778C474.278,699.641,478.639,704.49,482.8,704.49Zm-6.114-23.2q-1.965,1.083-3.919,1.979c-.02-2.559-.035-5.086-.047-7.565.508.773,1.007,1.586,1.491,2.432l.025.044A13.348,13.348,0,0,0,476.687,681.29ZM491,656.575a4.836,4.836,0,0,0,.791.067h.138a4.125,4.125,0,0,0,.416-.022c4.938-.516,9.091-.85,13.036-1.037a111.963,111.963,0,0,1-16.147,16.967c-1.359-7.447-9.536-10.866-16.538-11.68v-.5h12.18C488.136,660.375,490.206,658.667,491,656.575Zm24.739,46.509c1.052-.016,2.032-.039,2.946-.061,1.254-.029,2.337-.054,3.253-.054h3.829a41.881,41.881,0,0,1-2.593,8.6c-3.517-.687-6.882-1.2-10.151-1.53C513.956,707.7,514.881,705.349,515.738,703.084ZM537.7,644.078c4.225-2.605,7.917-5.1,8.817-5.735.144-.1.269-.194.386-.279l.226.023c.091.017.18.032.268.046a56.2,56.2,0,0,0-5.085,5.945Z" fill="#fff"/></g></g><g id="Text"><path d="M570.062,173.9c0,1.106-12.169,3.6-15.627,7.053a1.463,1.463,0,0,1-1.245.691c-3.18,0-30.562-13.967-46.88-38.444.138,14.1.553,28.211.968,41.072v.138c0,3.872-3.872,5.117-5.946,5.117-2.213,0-4.01-1.106-4.01-4.149v-.553c.691-10.648,1.244-22.265,1.521-34.019-23.51,26-57.944,33.6-62.093,33.6-.553,0-.83,0-.83-.276s.969-.969,2.767-1.66c18.116-6.361,41.348-21.435,58.082-42.317H475.333l.139,5.394c0,2.489-2.9,4.148-5.393,4.148-1.937,0-3.6-.968-3.6-3.319v-.414c.829-10.372.968-20.744.968-28.073,0-13-1.245-20.744-1.659-22.542a4.883,4.883,0,0,0-.139-.83c0-.276.139-.415.277-.415,1.382,0,10.51,4.564,12.722,6.085l.277.139h20.052l-.276-13.691h-8.851c-7.744,0-25.445.276-37.753,1.521h-.139c-2.489,0-6.5-5.117-6.5-7.053v-.138c14.244,1.659,36.923,2.213,44.944,2.213h8.159c-.138-5.532-.415-13.968-1.383-18.393a2.437,2.437,0,0,1-.138-.83c0-.276.138-.276.277-.276.968,0,15.626,2.212,15.626,5.255,0,.968-.83,1.8-2.213,2.766-2.9,1.936-3.319.829-3.6,6.776l-.277,4.7h29.594a2.872,2.872,0,0,0,2.352-1.245c5.254-7.468,6.222-8.436,7.744-8.436a1.745,1.745,0,0,1,.829.139c4.7,1.659,12.308,9.127,12.308,11.339,0,.83-.691,1.66-3.043,1.66H506.725l-.415,13.691h21.3a2.028,2.028,0,0,0,1.8-.83c2.628-3.457,3.181-3.6,3.872-3.6,2.766,0,11.755,6.085,11.755,8.159,0,1.383-1.659,2.352-3.18,3.181-2.49,1.383-3.042,1.107-3.181,4.425,0,1.107-.139,2.49-.139,4.149,0,7.191.554,18.255,1.107,26.552v.138c0,2.49-2.49,4.564-5.255,4.564a3.44,3.44,0,0,1-3.734-3.595v-3.32H507.14c11.755,13.691,34.019,29.318,61.677,33.19C569.785,173.487,570.062,173.625,570.062,173.9Zm-70.943-70.113H478.514l-.968.553c-1.936,1.245-2.074.692-2.213,5.255-.138,2.213-.138,4.841-.138,8.021h23.924Zm0,17.286H475.2c0,4.841.138,10.372.138,15.627h23.786Zm31.53-15.765a1.8,1.8,0,0,0-1.8-1.521H506.31c0,4.425-.138,9.127-.138,13.829h24.754C530.926,112.778,530.926,108.491,530.649,105.31Zm-24.477,15.765c0,5.117.138,10.372.138,15.627h24.339c.138-5.393.277-10.648.277-15.627Z" fill="#000000"/><path d="M561.626,230.734c0,.83-.691,1.66-3.042,1.66H509.076c.968.415,1.383.968,1.383,1.521,0,.968-1.106,1.936-2.766,2.627-1.936.83-2.766-.138-3.458,5.255-.691,4.7-1.382,9.266-2.35,13.691h26.552a2.618,2.618,0,0,0,2.35-1.244c3.319-3.319,3.319-3.319,3.734-3.319s11.893,4.84,11.893,8.3c0,1.107-1.106,2.213-3.457,3.181-2.766,1.106-3.319,2.489-3.6,5.808-1.106,14.52-3.457,29.871-8.435,39.689-5.117,10.234-13.968,17.287-25.446,17.287a14.952,14.952,0,0,1-2.489-.139,3.819,3.819,0,0,1-2.212-1.659c-1.245-3.319-18.669-12.446-18.669-13.691h.276a4.248,4.248,0,0,1,1.521.277c6.777,1.936,14.244,4.425,20.882,4.425,9.127,0,24.063-2.628,25.722-53.1,0-1.382-.139-2.212-2.074-2.212H501.056c-8.16,31.945-26.829,56.7-60.018,66.794a15.2,15.2,0,0,1-4.011.968c-.415,0-.692-.138-.692-.415,0-.414,1.522-1.521,3.6-2.351,46.742-19.222,55.178-74.538,55.178-88.506,0-.968-.138-2.074-.138-3.18H489.3c-7.606,0-25.584.276-37.892,1.521h-.138c-2.627,0-6.361-5.394-6.361-7.053,14.1,1.659,37.2,2.075,45.082,2.075h7.468V223.82c0-6.638-.138-14.382-1.245-18.946a2.7,2.7,0,0,1-.138-.968c0-.138,0-.138.138-.138s16.871,1.8,16.871,5.116c0,.83-.829,1.8-2.212,2.628-3.181,2.074-3.6.553-4.149,7.053-.138,2.074-.415,7.053-.415,10.372h31.669a2.766,2.766,0,0,0,2.35-1.107c1.937-3.181,6.5-9.127,7.883-9.127C550.286,218.7,561.626,227.277,561.626,230.734Z" fill="#000000"/><path d="M463.579,406.909c0,16.871-9.957,31.806-18.946,31.806-3.319,0-5.67-2.212-5.67-4.978,0-2.213,1.383-4.84,4.7-7.053,9.818-6.5,14.382-15.627,17.7-26.552.277-1.106.692-1.521.968-1.521C462.887,398.611,463.579,402.76,463.579,406.909Zm74.538,45.082c0,4.426-6.638,9.266-19.5,10.1-4.978.277-10.511.554-15.074.554-15.488,0-24.615-3.043-24.615-16.734v-.968c.415-13.137.692-35.678.692-43.976,0-14.659,0-20.6-1.107-26a7.037,7.037,0,0,1-.277-1.244c0-.277.277-.415.692-.415,1.8,0,15.9,2.628,15.9,5.946,0,.969-.969,1.937-2.905,3.043-2.765,1.521-2.765,2.351-3.18,7.053-.83,10.371-.968,35.817-.968,53.656,0,9.819,3.6,11.063,18.392,11.063,17.839,0,19.223-2.35,23.647-26.274.139-1.107.415-1.66.553-1.66,1.107,0,1.66,19.5,4.565,21.159A5.815,5.815,0,0,1,538.117,451.991Zm-18.67-87.123c0,3.181-2.074,5.532-4.84,5.532-2.074,0-4.563-1.245-7.052-4.425-5.67-7.468-13.138-12.032-20.328-16.042-.692-.415-.969-.691-.969-.968s.415-.553,1.245-.553C494.833,348.412,519.447,353.39,519.447,364.868Zm45.222,57.944c0,3.734-2.213,6.5-5.117,6.5-2.49,0-5.394-1.937-7.744-7.053-4.979-10.649-13.691-19.222-22.956-25.031-1.107-.691-1.661-1.106-1.661-1.383,0-.138.139-.138.278-.138C534.937,395.707,564.669,408.707,564.669,422.812Z" fill="#000000"/><path d="M463.3,561.929c0,.967-.968,1.8-3.319,2.35-2.074.415-2.212,1.107-2.9,3.042-7.191,19.084-15.765,30.148-17.148,30.148-.138,0-.277-.138-.277-.415a4.176,4.176,0,0,1,.554-1.8c3.872-8.158,9.265-26.69,9.265-38.306,0-1.383.277-1.383.277-1.383C451.409,555.567,463.3,559.162,463.3,561.929Zm29.733-18.808c0,3.457-2.213,5.808-4.564,5.808-1.936,0-3.872-1.659-4.564-5.532a21.4,21.4,0,0,0-.829-3.18l-8.16,2.35c.831.415,1.383.83,1.383,1.383s-.552,1.245-1.659,1.8c-1.936.969-1.936.969-1.936,13.138,0,11.34.276,28.212.553,39.551v.277a5.181,5.181,0,0,1-5.255,4.84c-1.8,0-3.457-1.107-3.457-4.011v-.553c.968-14.659,1.383-29.594,1.383-44.253,0-3.457-.138-7.052-.277-9.957-5.808,1.383-11.2,2.766-13.829,3.32-1.383.276-2.213,1.659-3.18,1.659-2.213,0-6.5-10.372-6.5-10.51a.3.3,0,0,1,.276-.277c.277,0,.554.138.968.138a81.8,81.8,0,0,0,9.681.554H456.8c4.84-7.054,20.051-30.286,21.849-41.487.139-1.107.139-1.383.415-1.383.554,0,12.17,5.116,12.17,7.605,0,.968-1.107,1.8-3.734,2.075-1.383.138-2.074.83-3.043,2.074-7.329,10.1-17.562,23.51-24.615,30.839,7.329-.415,16.18-.968,22.4-1.659a62.321,62.321,0,0,0-4.978-9.266,4.27,4.27,0,0,1-.83-1.659.3.3,0,0,1,.276-.277C479.344,526.526,493.035,535.1,493.035,543.121ZM476.716,486.7c0,.968-1.106,1.937-3.6,2.351a3.529,3.529,0,0,0-3.042,2.075,171.4,171.4,0,0,1-12.447,18.945c1.107.554,7.329,3.6,7.329,8.713,0,2.9-1.8,4.978-4.148,4.978-1.521,0-3.319-1.106-4.7-3.734-2.9-5.531-7.053-8.85-10.234-11.478-.829-.692-1.244-1.244-1.244-1.521s.277-.415.83-.415a30.629,30.629,0,0,1,9.956,2.351c2.905-7.191,7.883-21.573,7.883-27.105v-1.521c0-.553,0-.691.277-.691C464.27,479.646,476.716,484.348,476.716,486.7ZM494,576.726c0,3.457-2.212,5.946-4.425,5.946-1.8,0-3.734-1.522-4.563-5.117-1.66-6.5-4.426-13.828-7.468-18.531a4.279,4.279,0,0,1-.83-1.659.3.3,0,0,1,.277-.277C478.514,557.088,494,567.46,494,576.726Zm64.443-75.784c0,.968-.552,1.8-2.627,1.8h-30.7a30.832,30.832,0,0,1-1.8,5.394c7.744.276,28.9,4.84,28.9,14.105,0,2.627-1.8,4.7-4.15,4.7-1.8,0-3.872-1.105-5.946-3.594-5.116-6.085-13.275-10.649-19.36-13.829-6.777,14.658-21.435,17.7-33.466,19.36a6.172,6.172,0,0,1-1.521.139q-1.245,0-1.245-.415c0-.415,1.106-1.107,2.351-1.383,18.669-4.841,25.583-13.692,28.211-24.34-5.394.139-11.893.277-19.637,1.106h-.138c-2.213,0-5.809-4.978-5.809-6.5a244.213,244.213,0,0,0,26.275,1.8,71.715,71.715,0,0,0,.691-10.511,35.619,35.619,0,0,0-.691-6.637v-.553c0-.139,0-.139.139-.139s13.69,1.383,13.69,4.7c0,.829-.691,1.8-2.213,2.489-1.935.829-2.627-.278-2.9,4.563-.138,2.213-.414,4.287-.691,6.223h14.659a2.594,2.594,0,0,0,1.8-1.107c.137-.276,3.872-6.222,5.531-6.222.276,0,.554.137.83.137C549.318,492.507,558.445,497.347,558.445,500.942Zm9.819,34.02c0,.691-.692,1.383-2.766,1.383H550.84q1.243.414,1.244,1.244c0,.554-.553,1.106-1.522,1.521-2.489,1.107-2.489.968-2.489,5.255-.137,6.362-.414,15.766-.414,23.51,0,10.648.553,18.669.692,19.914v.968c0,10.786-10.234,14.244-14.521,14.244a2.94,2.94,0,0,1-2.767-1.66c-2.211-3.457-15.073-9.127-15.073-10.1,0-.139.139-.276.415-.276s.83.137,1.659.276c6.085,1.244,10.511,1.936,13.83,1.936,5.808,0,7.882-2.075,8.159-6.362.276-3.18.276-10.648.276-18.807,0-15.489-.276-29.318-.691-31.668H525.809c-8.712,0-21.435.552-29.317,1.8h-.138c-2.213,0-6.224-5.394-6.224-6.915,12.031,1.106,29.041,1.66,36.094,1.66H549.18a2.6,2.6,0,0,0,1.8-1.107c1.66-2.765,4.84-6.637,5.946-6.637.277,0,.554.137.83.137C558.722,525.7,568.264,531.228,568.264,534.962ZM532.17,551.7c0,1.383-1.8,2.351-2.9,3.181-1.937,1.52-2.076,2.212-2.076,6.223,0,3.18.415,7.882.83,13.414v.276a4.2,4.2,0,0,1-4.424,4.426c-1.66,0-3.181-1.107-3.181-3.6v-.139l.138-2.9h-14.8c0,2.627.139,5.116.139,7.467a4.22,4.22,0,0,1-4.564,4.149,3.01,3.01,0,0,1-3.181-3.319v-.415c.692-9.4.83-14.521.83-21.3A109.559,109.559,0,0,0,497.6,544.5a3.122,3.122,0,0,1-.138-.968c0-.139,0-.277.138-.277,1.8,0,10.372,5.532,10.787,5.947l.276.138h9.266a2.138,2.138,0,0,0,1.659-1.107,13.925,13.925,0,0,1,2.489-3.457,1.364,1.364,0,0,1,1.107-.415C524.149,544.365,532.17,549.206,532.17,551.7Zm-11.754,2.9a1.506,1.506,0,0,0-1.521-1.66H508.246l-.691.553c-1.937,1.522-1.937,2.075-1.937,7.192,0,2.074,0,5.117.139,8.3h14.8C520.554,564,520.554,558.333,520.416,554.6Z" fill="#000000"/><path d="M564.392,697.447c0,.83-.692,1.522-2.766,1.522H541.574a1.6,1.6,0,0,1,1.107,1.245c0,.553-.692,1.1-2.213,1.52-1.937.554-2.074,1.937-3.042,5.118a49.936,49.936,0,0,1-4.7,11.339c13.966,4.564,25.03,12.169,25.03,18.393,0,2.627-1.936,4.84-4.287,4.84-1.521,0-3.319-.968-5.116-3.181-4.288-5.531-10.925-10.786-19.223-14.935-13.829,16.872-37.891,17.978-59.741,18.807h-1.106c-2.213,0-3.043-.276-3.043-.691a3.049,3.049,0,0,1-1.106.138c-2.074,0-3.872-1.382-3.872-4.563v-.277c.553-14.935,1.106-37.753,1.383-58.22-8.989,19.775-23.786,29.041-25.584,29.041-.139,0-.277,0-.277-.139,0-.276.692-1.106,1.936-2.35,8.159-8.021,24.063-36.648,24.063-47.987v-.692c-4.426,0-7.191.277-14.935,1.245h-.138c-1.66,0-5.532-5.117-5.532-6.638a163.865,163.865,0,0,0,20.605,1.936c0-11.755-.415-27.52-1.383-32.913a3.119,3.119,0,0,1-.138-.968c0-.276.138-.276.276-.276.968,0,14.244,1.8,14.244,4.978,0,.829-.829,1.659-2.351,2.49-2.212,1.244-3.042.967-3.319,5.392-.276,4.564-.415,12.031-.415,21.3h2.628a2.369,2.369,0,0,0,1.659-1.106c1.8-3.042,4.149-6.777,5.394-6.777a1.031,1.031,0,0,1,.691.139c3.734,1.8,8.3,8.159,8.3,9.4,0,.829-.553,1.8-2.49,1.8H468.7v8.3h.692c6.085,0,16.042,2.628,16.042,10.1,0,2.627-1.522,4.7-3.6,4.7-1.245,0-2.766-.968-4.148-3.319-2.213-3.872-5.532-8.436-8.99-10.648,0,22.817.415,51.167.969,70.666a5.225,5.225,0,0,1-1.8,4.011c.276,0,.553-.139.829-.139,22.265-1.8,43.008-5.808,53.8-19.637a76.189,76.189,0,0,0-16.318-4.01c-3.319,8.159-4.011,9.68-8.159,9.68-1.936,0-3.734-.83-3.734-2.628a3.737,3.737,0,0,1,.692-2.213,137.846,137.846,0,0,0,10.094-21.988c-7.467.277-15.626.554-22.126,1.245H482.8c-2.489,0-6.361-4.978-6.361-6.915v-.137c8.3.967,20.052,1.659,29.87,1.935l.968-2.766a47.732,47.732,0,0,0,2.351-13c0-1.245.139-1.245.276-1.245.692,0,13.692,2.352,13.692,5.255,0,.83-.969,1.66-2.9,2.075-3.18.692-3.457,1.383-6.5,9.819,3.457,0,6.362.138,8.3.138h21.158a2.569,2.569,0,0,0,2.075-1.245c1.521-2.35,5.531-7.191,6.915-7.191C555.127,687.214,564.392,694.129,564.392,697.447Zm5.947-19.775c0,.969-12.031,2.766-14.383,5.255a1.918,1.918,0,0,1-1.383.691c-3.457,0-20.467-12.169-30.424-29.179l.692,19.5v.138c0,3.6-4.425,4.426-4.84,4.426-1.8,0-3.457-1.106-3.457-3.872v-.276l.553-16.042c-19.361,25.584-42.87,30.423-44.668,30.423-.414,0-.553,0-.553-.138,0-.277.83-.968,2.489-1.659,12.723-5.808,26.967-17.839,39-35.541a194.158,194.158,0,0,0-21.434,1.245h-.138c-2.074,0-5.808-4.84-5.808-6.362a233.618,233.618,0,0,0,29.456,1.8h1.935c0-1.245,0-22.541-1.521-27.519a1.512,1.512,0,0,1-.138-.692c0-.277.138-.277.553-.277.553,0,13.414,1.936,13.414,4.426,0,.691-.692,1.382-1.936,2.074-2.766,1.244-3.043.553-3.319,4.563-.277,4.426-.415,9.266-.415,15.212A122.886,122.886,0,0,0,537.979,630.1a29.26,29.26,0,0,0,3.042-5.67c.277-.692.415-.969.691-.969.969,0,10.372,6.915,10.372,9.128,0,.968-.968,1.659-2.766,1.659a6.7,6.7,0,0,1-1.659-.139c-.415,0-.83-.137-1.106-.137-.969,0-1.383.415-2.352,1.106-3.318,2.351-15.488,10.233-20.19,11.754l.138,1.245H543.51c.83,0,1.245-.554,1.66-1.106a49.736,49.736,0,0,1,5.67-6.638,1.256,1.256,0,0,1,.968-.415c.276,0,.552.139.83.139,3.872,1.382,10.509,7.329,10.509,9.542,0,.967-.553,1.8-2.627,1.8h-35.4c8.713,11.478,26.137,23.094,44.53,26C570.2,677.534,570.339,677.534,570.339,677.672ZM508.8,637.291a4.929,4.929,0,0,1-4.84,4.979c-1.659,0-3.457-.968-4.84-3.458a31.024,31.024,0,0,0-8.435-9.265c-.968-.692-1.521-1.107-1.521-1.244,0-.415.829-.415,2.212-.415C498.29,628.026,508.8,631.068,508.8,637.291Zm13.138,61.678c-2.212,0-5.255.138-8.989.138-1.66,4.564-3.734,9.68-5.67,14.521a105.889,105.889,0,0,1,18.117,2.489,41.691,41.691,0,0,0,4.839-17.148Z" fill="#000000"/><path d="M273.106,821.777v1.869h-14.39v-1.869l4.847-.909V791.382l-4.847-.909V788.6h14.39v1.869l-4.847.909V803.9h19.692V791.382l-4.847-.909V788.6h14.39v1.869l-4.848.909v29.486l4.848.909v1.869H283.1v-1.869l4.847-.909V806.226H268.259v14.642Z" fill="#000000"/><path d="M312.338,824.353a10.562,10.562,0,0,1-8.331-3.383c-2.02-2.222-3.029-5.3-3.029-9.291,0-8.078,4.393-12.724,12.219-12.724a10.288,10.288,0,0,1,8.078,3.484c2.07,2.272,3.08,5.352,3.08,9.24C324.355,819.556,319.861,824.353,312.338,824.353Zm5.655-4.09c1.161-1.768,1.717-4.292,1.717-7.473q0-6.135-1.818-9.24a6.029,6.029,0,0,0-5.5-3.08,5.8,5.8,0,0,0-5.05,2.474,11.733,11.733,0,0,0-1.817,7.018c0,4.04.656,7.17,1.969,9.442a5.993,5.993,0,0,0,5.5,3.383A5.742,5.742,0,0,0,317.993,820.263Z" fill="#000000"/><path d="M340.008,831.724v1.716H326.325v-1.716l4.493-.706V802.642l-3.988-.607v-1.212a37.521,37.521,0,0,0,4.645-.908,33.591,33.591,0,0,0,3.585-1.061v4.191c1.009-.808,1.666-1.363,2.02-1.666a18.375,18.375,0,0,1,2.423-1.616,7.057,7.057,0,0,1,2.828-.706,8.439,8.439,0,0,1,6.765,3.18,12.644,12.644,0,0,1,2.676,8.281,15.568,15.568,0,0,1-.959,5.6,13.078,13.078,0,0,1-3.08,4.7,10.063,10.063,0,0,1-7.119,2.979,13.1,13.1,0,0,1-2.626-.3,26.8,26.8,0,0,1-2.928-1.06v8.584Zm-1.868-10.4a7.407,7.407,0,0,0,3.382.808c3.686,0,6.161-3.383,6.161-8.785a14.246,14.246,0,0,0-1.97-7.979,6.526,6.526,0,0,0-8.078-2.373,13.449,13.449,0,0,0-2.575,1.616V819.1A12.488,12.488,0,0,0,338.14,821.323Z" fill="#000000"/><path d="M375.6,819.1c-.354.454-.858,1.009-1.464,1.666l-2.929,2.878-2.171.555-2.121.152c-3.736,0-6.614-1.112-8.583-3.283-2.02-2.171-3.03-5.3-3.03-9.341,0-3.988.96-7.068,2.828-9.34a9.605,9.605,0,0,1,7.876-3.383,11.057,11.057,0,0,1,6.817,2.07,6.437,6.437,0,0,1,2.676,5.2l-.1,1.061-.3,1.312H359.093v1.01c0,3.636.707,6.16,2.373,8.382a7.939,7.939,0,0,0,6.564,3.029,8.25,8.25,0,0,0,4.292-1.11,11.443,11.443,0,0,0,3.534-3.333l.959,1.01C376.361,818.192,375.957,818.646,375.6,819.1Zm-4.09-11.967a7.132,7.132,0,0,0-1.565-4.8,5.5,5.5,0,0,0-4.343-1.817,5.78,5.78,0,0,0-4.291,1.666,8.478,8.478,0,0,0-2.121,4.948Z" fill="#000000"/><path d="M378.784,787.746v-1.363l4.342-.859,3.838-1.009v36.808l4.191.555v1.768H378.481v-1.768l4.292-.555v-32.97Z" fill="#000000"/><path d="M414.078,819.1c-.354.454-.859,1.009-1.465,1.666l-2.928,2.878-2.171.555-2.121.152c-3.736,0-6.615-1.112-8.583-3.283-2.02-2.171-3.03-5.3-3.03-9.341,0-3.988.959-7.068,2.827-9.34a9.609,9.609,0,0,1,7.877-3.383,11.054,11.054,0,0,1,6.816,2.07,6.438,6.438,0,0,1,2.677,5.2l-.1,1.061-.3,1.312h-16v1.01c0,3.636.706,6.16,2.373,8.382a7.939,7.939,0,0,0,6.564,3.029,8.246,8.246,0,0,0,4.291-1.11,11.445,11.445,0,0,0,3.535-3.333l.959,1.01C414.835,818.192,414.431,818.646,414.078,819.1Zm-4.09-11.967a7.127,7.127,0,0,0-1.566-4.8,5.493,5.493,0,0,0-4.342-1.817,5.779,5.779,0,0,0-4.291,1.666,8.478,8.478,0,0,0-2.121,4.948Z" fill="#000000"/><path d="M418.621,819.505l-.4-3.888h1.616a7.575,7.575,0,0,0,.555,2.929,7.752,7.752,0,0,0,1.465,2.373,6.908,6.908,0,0,0,8.633.656,3.808,3.808,0,0,0,1.465-3.13,4.36,4.36,0,0,0-.96-2.828,6.552,6.552,0,0,0-3.079-1.868l-1.263-.4c-3.08-.909-5.049-1.717-5.907-2.475a7.3,7.3,0,0,1-1.515-2.019,6.661,6.661,0,0,1-.5-2.676,6.789,6.789,0,0,1,2.222-5.2,8.386,8.386,0,0,1,5.857-1.969,13.362,13.362,0,0,1,3.433.454,16.771,16.771,0,0,1,3.433,1.717l.051,2.626.2,2.878H432.2a6.552,6.552,0,0,0-1.464-4.545,5.583,5.583,0,0,0-7.321-.555,3.642,3.642,0,0,0-1.313,2.776q0,2.879,5.6,4.7l1.111.353a11.685,11.685,0,0,1,5.15,2.827,5.6,5.6,0,0,1,1.566,4.191c0,4.645-3.636,7.928-9.291,7.928a14.666,14.666,0,0,1-3.989-.5,10.768,10.768,0,0,1-3.484-1.414Z" fill="#000000"/><path d="M440.585,819.505l-.4-3.888H441.8a7.575,7.575,0,0,0,.555,2.929,7.768,7.768,0,0,0,1.464,2.373,6.91,6.91,0,0,0,8.634.656,3.808,3.808,0,0,0,1.465-3.13,4.36,4.36,0,0,0-.96-2.828,6.551,6.551,0,0,0-3.08-1.868l-1.262-.4c-3.08-.909-5.049-1.717-5.907-2.475a7.281,7.281,0,0,1-1.515-2.019,6.644,6.644,0,0,1-.5-2.676,6.789,6.789,0,0,1,2.222-5.2,8.386,8.386,0,0,1,5.857-1.969,13.362,13.362,0,0,1,3.433.454,16.771,16.771,0,0,1,3.433,1.717l.051,2.626.2,2.878h-1.717a6.552,6.552,0,0,0-1.464-4.545,5.583,5.583,0,0,0-7.321-.555,3.639,3.639,0,0,0-1.313,2.776q0,2.879,5.6,4.7l1.111.353a11.685,11.685,0,0,1,5.15,2.827,5.6,5.6,0,0,1,1.566,4.191c0,4.645-3.636,7.928-9.291,7.928a14.656,14.656,0,0,1-3.989-.5,10.768,10.768,0,0,1-3.484-1.414Z" fill="#000000"/><path d="M475.272,821.777l4.444-.959,2.878-29.436-5.4-.909V788.6h10.351l11.36,26.357L509.909,788.6H520.26v1.869l-5,.909,2.927,29.436,4.5.959v1.869H508.7v-1.869l4.9-.959L510.818,793l-12.925,30.4-12.926-29.74-2.626,27.165,4.595.959v1.869H475.272Z" fill="#000000"/><path d="M539.547,820.565l-1.161.808c-2.878,1.97-5.1,2.929-6.564,2.929a6.668,6.668,0,0,1-4.343-1.364,4.953,4.953,0,0,1-1.564-3.836,4.841,4.841,0,0,1,1.313-3.535,13.4,13.4,0,0,1,4.8-2.626l2.121-.656a23.591,23.591,0,0,0,5.4-2.019v-3.99a6.184,6.184,0,0,0-.858-3.534,3.259,3.259,0,0,0-2.676-1.161,3.783,3.783,0,0,0-2.979,1.262,4.835,4.835,0,0,0-1.212,3.433v.454l.1.708a6.994,6.994,0,0,0-.908.1,11.255,11.255,0,0,0-1.112.252,9.174,9.174,0,0,0-2.019.5l-.051-.555v-.858l.051-1.314.151-1.312a63.466,63.466,0,0,1,6.665-4.09,8.286,8.286,0,0,1,3.534-1.212,4.692,4.692,0,0,1,4.039,1.919,10.158,10.158,0,0,1,1.364,5.807v13.582l4.342.5v1.312l-3.989,1.01-4.443,1.161Zm0-8.886-2.322.96c-4.7,1.868-7.019,3.685-7.019,5.5a3.164,3.164,0,0,0,.96,2.474,4.589,4.589,0,0,0,2.827.859,6.089,6.089,0,0,0,2.424-.607,16.531,16.531,0,0,0,3.13-1.868Z" fill="#000000"/><path d="M551.514,819.505l-.4-3.888h1.616a7.575,7.575,0,0,0,.555,2.929,7.768,7.768,0,0,0,1.464,2.373,6.911,6.911,0,0,0,8.635.656,3.81,3.81,0,0,0,1.464-3.13,4.365,4.365,0,0,0-.959-2.828,6.556,6.556,0,0,0-3.08-1.868l-1.263-.4c-3.08-.909-5.049-1.717-5.907-2.475a7.262,7.262,0,0,1-1.515-2.019,6.661,6.661,0,0,1-.5-2.676,6.789,6.789,0,0,1,2.222-5.2,8.386,8.386,0,0,1,5.856-1.969,13.364,13.364,0,0,1,3.434.454,16.8,16.8,0,0,1,3.434,1.717l.05,2.626.2,2.878H565.1a6.548,6.548,0,0,0-1.465-4.545,5.583,5.583,0,0,0-7.321-.555A3.639,3.639,0,0,0,555,804.357q0,2.879,5.6,4.7l1.111.353a11.681,11.681,0,0,1,5.149,2.827,5.6,5.6,0,0,1,1.566,4.191c0,4.645-3.636,7.928-9.29,7.928a14.669,14.669,0,0,1-3.99-.5,10.762,10.762,0,0,1-3.483-1.414Z" fill="#000000"/><path d="M593.422,800.268l-.05,1.868v28.882l4.493.706v1.716H584.132v-1.716l5-.706V807.337c0-4.646-1.666-6.716-5.452-6.716a6.477,6.477,0,0,0-5.3,2.424,10.724,10.724,0,0,0-1.97,6.816c0,6.868,3.333,11.007,8.584,11.007a3.788,3.788,0,0,0,1.313-.252l1.616-.455.454,1.111-5.807,2.778a10.091,10.091,0,0,1-4.14-.809,8.645,8.645,0,0,1-3.181-2.322c-1.767-2.07-2.625-4.847-2.625-8.331a14.4,14.4,0,0,1,3.332-9.795,10.892,10.892,0,0,1,8.583-3.838,9.421,9.421,0,0,1,3.232.5,7.84,7.84,0,0,1,2.828,1.414l1.261-1.061,1.314-1.161.353.051Z" fill="#000000"/><path d="M621.9,820.161l4.291.556v1.262L621.8,823.04l-4.141,1.262V820.01l-6.361,3.938-.5.051-1.414.051c-2.625,0-4.544-.657-5.7-2.02-1.161-1.313-1.768-3.535-1.768-6.665v-13.43l-4.493-.607v-1.666h8.735v15.1c0,2.272.4,3.938,1.161,4.9a5.055,5.055,0,0,0,3.989,1.414,9.134,9.134,0,0,0,1.11-.1c.758-.051,2.071-.5,5.251-2.273V801.935l-4.139-.607v-1.666H621.9Z" fill="#000000"/><path d="M648.912,819.1c-.353.454-.858,1.009-1.464,1.666l-2.928,2.878-2.171.555-2.121.152c-3.737,0-6.615-1.112-8.583-3.283-2.02-2.171-3.03-5.3-3.03-9.341,0-3.988.959-7.068,2.827-9.34a9.61,9.61,0,0,1,7.877-3.383,11.059,11.059,0,0,1,6.817,2.07,6.44,6.44,0,0,1,2.676,5.2l-.1,1.061-.3,1.312H632.4v1.01c0,3.636.707,6.16,2.373,8.382a7.942,7.942,0,0,0,6.565,3.029,8.252,8.252,0,0,0,4.292-1.11,11.454,11.454,0,0,0,3.534-3.333l.959,1.01C649.67,818.192,649.266,818.646,648.912,819.1Zm-4.09-11.967a7.136,7.136,0,0,0-1.564-4.8,5.5,5.5,0,0,0-4.343-1.817,5.781,5.781,0,0,0-4.292,1.666,8.483,8.483,0,0,0-2.12,4.948Z" fill="#000000"/><path d="M660.525,821.323l4.8.555v1.768h-13.33v-1.768l4.292-.555V803.045l-4.292-.556v-1.211l4.191-1.01,4.342-1.364v6.716a30.5,30.5,0,0,1,3.332-5.15,3.711,3.711,0,0,1,2.626-1.464h.606a2.757,2.757,0,0,1,.858.2,7.051,7.051,0,0,0,1.01.3,4.524,4.524,0,0,1,.707.353l-.556,1.868-.6,2.373a13.049,13.049,0,0,0-1.666-.858,4.748,4.748,0,0,0-1.566-.3c-1.262,0-2.373.757-3.332,2.323a10.625,10.625,0,0,0-1.414,5.706Z" fill="#000000"/><path d="M685.417,820.565l-1.161.808c-2.878,1.97-5.1,2.929-6.564,2.929a6.663,6.663,0,0,1-4.342-1.364,4.95,4.95,0,0,1-1.565-3.836,4.841,4.841,0,0,1,1.313-3.535,13.4,13.4,0,0,1,4.8-2.626l2.12-.656a23.591,23.591,0,0,0,5.4-2.019v-3.99a6.192,6.192,0,0,0-.857-3.534,3.263,3.263,0,0,0-2.677-1.161,3.783,3.783,0,0,0-2.979,1.262,4.835,4.835,0,0,0-1.212,3.433v.454l.1.708a6.994,6.994,0,0,0-.908.1,11.255,11.255,0,0,0-1.112.252,9.174,9.174,0,0,0-2.019.5l-.051-.555v-.858l.051-1.314.151-1.312a63.466,63.466,0,0,1,6.665-4.09,8.286,8.286,0,0,1,3.534-1.212,4.7,4.7,0,0,1,4.04,1.919,10.166,10.166,0,0,1,1.363,5.807v13.582l4.343.5v1.312l-3.99,1.01-4.443,1.161Zm0-8.886-2.322.96c-4.7,1.868-7.019,3.685-7.019,5.5a3.164,3.164,0,0,0,.96,2.474,4.589,4.589,0,0,0,2.827.859,6.089,6.089,0,0,0,2.424-.607,16.531,16.531,0,0,0,3.13-1.868Z" fill="#000000"/><path d="M709.047,823.292a7.18,7.18,0,0,1-3.485.909,7.717,7.717,0,0,1-6.512-3.636q-2.575-3.56-2.575-9.391a12.39,12.39,0,0,1,3.129-8.886,10.954,10.954,0,0,1,8.332-3.231,9.648,9.648,0,0,1,2.828.352,6.482,6.482,0,0,1,2.322,1.011V788.353l-3.939-.607v-1.363l4.242-.859,4.04-1.009-.051,1.666-.051,1.465v32.717l3.687.556v1.312l-3.838,1.01-4.09,1.363v-4.543A19.14,19.14,0,0,1,709.047,823.292Zm2.474-20.8a5.358,5.358,0,0,0-4.342-1.817,5.632,5.632,0,0,0-4.848,2.424,11.57,11.57,0,0,0-1.767,6.765,14.344,14.344,0,0,0,2.071,8.029,6.067,6.067,0,0,0,5.2,3.13,5.417,5.417,0,0,0,2.575-.657,9.729,9.729,0,0,0,2.676-1.968V807.64A7.4,7.4,0,0,0,711.521,802.489Z" fill="#000000"/><path d="M743.937,819.1c-.354.454-.859,1.009-1.464,1.666l-2.929,2.878-2.171.555-2.121.152c-3.736,0-6.614-1.112-8.583-3.283-2.02-2.171-3.029-5.3-3.029-9.341,0-3.988.959-7.068,2.827-9.34a9.607,9.607,0,0,1,7.877-3.383,11.056,11.056,0,0,1,6.816,2.07,6.437,6.437,0,0,1,2.676,5.2l-.1,1.061-.3,1.312H727.426v1.01c0,3.636.707,6.16,2.373,8.382a7.939,7.939,0,0,0,6.564,3.029,8.247,8.247,0,0,0,4.292-1.11,11.454,11.454,0,0,0,3.534-3.333l.959,1.01C744.694,818.192,744.29,818.646,743.937,819.1Zm-4.09-11.967a7.132,7.132,0,0,0-1.565-4.8,5.5,5.5,0,0,0-4.343-1.817,5.784,5.784,0,0,0-4.292,1.666,8.483,8.483,0,0,0-2.12,4.948Z" fill="#000000"/><path d="M294.637,873.027c-.251,0-.393-.036-.393-.25,0-.286.178-.322.321-.357,2.217-.322,3.575-.716,3.575-1.717V849.646c0-.429-.179-.644-.607-.644a7.656,7.656,0,0,0-2.431.751.216.216,0,0,1-.144.036c-.214,0-.393-.25-.393-.5a.416.416,0,0,1,.286-.392c2.5-.93,4.612-1.967,6.686-2.9a.217.217,0,0,1,.143-.035c.178,0,.321.142.321.465V870.7c0,1.5,1.4,1.466,3.468,1.717.251.035.322.071.322.357,0,.214-.036.25-.357.25Z" fill="#000000"/><path d="M323.272,873.528c-5.648,0-8.83-2.646-8.83-5.578,0-1,.393-2.18,1.787-2.18,3.79,0,.43,6.4,6.936,6.4a5.392,5.392,0,0,0,5.613-5.72c0-4.612-2.717-7.043-8.223-7.114-.5,0-.786-.107-.786-.608,0-.429.214-.537.929-.573,4.326-.142,7.365-1.358,7.365-5.648a5.082,5.082,0,0,0-5.255-5.149c-2.395,0-4.147.895-4.147,2.075,0,1.143.608,1.644.608,2.395,0,1.144-.716,1.823-2,1.823a1.948,1.948,0,0,1-2.073-2.145c0-2.967,3.468-5.541,8.008-5.541,5.327,0,8.294,2.788,8.294,6.363,0,3.861-2.538,6.042-6.149,6.292-.393.036-.608.072-.608.108q0,.106.644.107a7.264,7.264,0,0,1,7.186,6.972C332.568,870.954,328.85,873.528,323.272,873.528Z" fill="#000000"/><path d="M339.9,870.775a2.343,2.343,0,1,1,2.359,2.431A2.484,2.484,0,0,1,339.9,870.775Z" fill="#000000"/><path d="M355.625,849.718l-1,8.58v.071c0,.071.036.179.107.179a.256.256,0,0,0,.215-.143c1-1.144,3.4-2,5.72-2,5.685,0,9.546,3.111,9.546,8.4s-3.4,8.723-9.439,8.723c-5.505,0-8.687-2.789-8.687-5.613a1.882,1.882,0,0,1,1.752-2.109c3.9,0,.393,6.292,6.792,6.292,3.361,0,5.864-2.324,5.864-6.615,0-4.4-2.861-7.435-6.578-7.435a6.909,6.909,0,0,0-5.828,2.609,1.1,1.1,0,0,1-.787.429.537.537,0,0,1-.322-.071.543.543,0,0,1-.25-.5c0-.179.072-.394.072-.573l1.5-13.263c0-.108.072-.215.394-.215h12.012a3.529,3.529,0,0,0,1.573-.286,2.127,2.127,0,0,1,.5-.179c.107,0,.143.072.143.179a.883.883,0,0,1-.036.286c-.143.608-.5,2.181-.68,3.039-.035.179-.106.215-.178.215Z" fill="#000000"/><path d="M376.789,856.225h-2.574c-.322,0-.5-.108-.572-.537,0-.072-.036-.107-.036-.179,0-.214.143-.393.572-.429,2.467-.107,4.541-2.5,5.077-5.112a.542.542,0,0,1,.608-.429c.322,0,.393.321.393.571V854.9h3.718c.322,0,.429.108.429.608s-.107.716-.429.716h-3.718v13.012c0,1.717.894,2.539,2.181,2.539a3.945,3.945,0,0,0,2.467-.822c.142-.107.214-.179.322-.179.071,0,.106.036.178.072a.3.3,0,0,1,.107.214.745.745,0,0,1-.179.393,4.819,4.819,0,0,1-4.218,1.967c-2.681,0-4.326-1.287-4.326-4.148Z" fill="#000000"/><path d="M400.742,873.027c-.215,0-.322-.071-.322-.286s.072-.286.286-.321c1.752-.144,1.931-.93,1.931-2v-8.76c0-3.682-1.931-5.22-3.647-5.22a6.544,6.544,0,0,0-5.077,2.54v11.44c0,1.144.179,1.858,1.931,2,.214.035.393.106.393.321s-.107.286-.321.286h-7.473c-.321,0-.321-.071-.321-.286s.071-.286.286-.321c1.823-.144,2.073-.93,2.073-2v-21.38c0-.93-.107-1.037-1.966-1.037a.368.368,0,0,1-.393-.357.338.338,0,0,1,.286-.322,33.8,33.8,0,0,0,5.183-1.358h.072c.179,0,.25.142.25.392V857.3a8.755,8.755,0,0,1,6.042-2.789c3.969,0,6.221,2.61,6.221,7.008v8.9c0,1.072.25,1.823,2.074,2,.178,0,.286.106.286.321s-.108.286-.322.286Z" fill="#000000"/><path d="M431.665,873.027c-.215,0-.322-.071-.322-.286s.072-.286.286-.321c2.074-.215,3.11-.716,3.11-1.788V847.644a26.762,26.762,0,0,0-4.4.214c-2.11.644-3.5,3.433-4.648,5.864-.107.178-.143.286-.358.286h-.107a.272.272,0,0,1-.214-.286v-.108a48.721,48.721,0,0,0,1.072-7.043c0-.25.108-.428.322-.428h.036c4.576,0,6.864.321,10.225.321,3.5,0,5.648-.321,10.225-.321h.035c.143,0,.215.107.286.25,0,.071.036.107.036.178a53.946,53.946,0,0,0,1.037,7.043.216.216,0,0,1,.036.144.263.263,0,0,1-.215.25H448c-.214,0-.286-.108-.357-.286-1.145-2.431-2.539-5.184-4.648-5.864a21.394,21.394,0,0,0-4.076-.214h-.393v22.988c0,1.072,1.144,1.573,3.218,1.788a.342.342,0,0,1,.285.321c0,.215-.107.286-.322.286Z" fill="#000000"/><path d="M451.613,863.982c0-5.72,3.825-9.474,9.3-9.474,5.506,0,9.331,3.754,9.331,9.474s-3.825,9.439-9.331,9.439C455.545,873.421,451.613,869.7,451.613,863.982Zm14.944,1.18c0-5.9-2.753-9.224-6.15-9.224-3.11,0-5.076,2.252-5.076,6.721,0,5.613,2.181,9.331,6.185,9.331C464.626,871.99,466.557,869.56,466.557,865.162Z" fill="#000000"/><path d="M493.941,871.025c.143,0,.25.143.25.322a.313.313,0,0,1-.179.322,34.826,34.826,0,0,1-5.434,1.716h-.071c-.143,0-.251-.108-.251-.394,0-.822-.071-2.359-.071-2.359a8.689,8.689,0,0,1-6.042,2.789c-4.076,0-6.149-2.4-6.149-6.793v-9.116c0-1.074-.25-1.86-2.074-2-.179,0-.286-.107-.286-.321s.107-.287.322-.287h4.862c.358,0,.572.037.572.644v10.939c0,3.683,1.966,4.863,3.825,4.863a6.391,6.391,0,0,0,4.97-2.431v-11.4c0-1.074-.357-1.86-2.181-2-.214-.035-.286-.107-.286-.321s0-.287.322-.287h5.148c.357,0,.465.072.465.644v14.837c0,.607.143.858.715.858a7.794,7.794,0,0,0,1.5-.215Z" fill="#000000"/><path d="M509.851,873.027c-.215,0-.323-.071-.323-.286s.072-.286.286-.321c1.752-.144,1.931-.93,1.931-2v-8.76c0-3.682-1.931-5.22-3.646-5.22a6.543,6.543,0,0,0-5.078,2.54v11.44c0,1.144.179,1.858,1.931,2,.215.035.394.106.394.321s-.108.286-.323.286h-7.472c-.322,0-.322-.071-.322-.286s.072-.286.286-.321c1.823-.144,2.074-.93,2.074-2v-21.38c0-.93-.107-1.037-1.966-1.037a.369.369,0,0,1-.394-.357.338.338,0,0,1,.286-.322,33.819,33.819,0,0,0,5.185-1.358h.071c.179,0,.25.142.25.392V857.3a8.757,8.757,0,0,1,6.042-2.789c3.969,0,6.221,2.61,6.221,7.008v8.9c0,1.072.25,1.823,2.074,2,.179,0,.286.106.286.321s-.107.286-.322.286Z" fill="#000000"/><path d="M521.146,863.982c0-5.72,3.826-9.474,9.3-9.474,5.506,0,9.331,3.754,9.331,9.474s-3.825,9.439-9.331,9.439C525.079,873.421,521.146,869.7,521.146,863.982Zm14.945,1.18c0-5.9-2.753-9.224-6.15-9.224-3.11,0-5.076,2.252-5.076,6.721,0,5.613,2.181,9.331,6.185,9.331C534.16,871.99,536.091,869.56,536.091,865.162Z" fill="#000000"/><path d="M563.476,871.025a.289.289,0,0,1,.25.322.313.313,0,0,1-.179.322,34.894,34.894,0,0,1-5.434,1.716h-.072c-.143,0-.25-.108-.25-.394,0-.822-.071-2.359-.071-2.359a8.689,8.689,0,0,1-6.042,2.789c-4.076,0-6.15-2.4-6.15-6.793v-9.116c0-1.074-.25-1.86-2.073-2-.179,0-.286-.107-.286-.321s.107-.287.321-.287h4.863c.357,0,.572.037.572.644v10.939c0,3.683,1.967,4.863,3.825,4.863a6.391,6.391,0,0,0,4.97-2.431v-11.4c0-1.074-.358-1.86-2.181-2-.215-.035-.286-.107-.286-.321s0-.287.321-.287h5.149c.357,0,.465.072.465.644v14.837c0,.607.142.858.714.858a7.784,7.784,0,0,0,1.5-.215Z" fill="#000000"/><path d="M580.92,873.027c-.214,0-.321-.071-.321-.286s.071-.286.286-.321c2-.215,2.574-.716,2.574-1.681v-21.88c0-1.072-.68-1.573-2.574-1.787-.179,0-.286-.036-.286-.322,0-.25.107-.286.321-.286,5.006,0,8.616-.143,12.477-.143h.179c5.863,0,9.224,3.253,9.224,7.9,0,5.363-3.217,8.4-9.366,8.4a26.116,26.116,0,0,1-6.257-.787v8.9c0,.965.966,1.43,3.11,1.681a.313.313,0,0,1,.286.321c0,.215-.107.286-.321.286Zm6.257-13.335c0,.787,2.753,1.609,5.934,1.609,3.468,0,6.042-2.682,6.042-6.972,0-4.146-2.788-6.792-7.043-6.792a38.561,38.561,0,0,0-4.933.25Z" fill="#000000"/><path d="M606.445,873.027c-.322,0-.322-.071-.322-.286s.072-.286.286-.321c1.823-.144,2.074-.93,2.074-2V857.654c0-1.037-.322-1.144-1.966-1.144a.369.369,0,0,1-.394-.358.377.377,0,0,1,.286-.357c1.752-.321,3.79-.857,5.185-1.251h.106c.179,0,.215.143.215.394v2.5a6.98,6.98,0,0,1,5.648-2.931,3.337,3.337,0,0,1,3.612,3.039c0,1.358-.5,1.931-1.43,1.931-3.075,0-.393-3.218-3.647-3.218a4.51,4.51,0,0,0-4.183,3.932v10.226c0,1.072.286,1.858,2.073,2,.179,0,.286.106.286.321s-.107.286-.321.286Z" fill="#000000"/><path d="M623.748,863.982c0-5.72,3.825-9.474,9.3-9.474,5.506,0,9.331,3.754,9.331,9.474s-3.825,9.439-9.331,9.439C627.681,873.421,623.748,869.7,623.748,863.982Zm14.944,1.18c0-5.9-2.753-9.224-6.149-9.224-3.11,0-5.076,2.252-5.076,6.721,0,5.613,2.18,9.331,6.184,9.331C636.762,871.99,638.692,869.56,638.692,865.162Z" fill="#000000"/><path d="M649.487,857.583c0-1.037-.107-1.037-1.966-1.037a.348.348,0,0,1-.393-.358.307.307,0,0,1,.286-.321,42.24,42.24,0,0,0,5.291-1.359h.071c.108,0,.144.143.144.393v18.341c0,4.826-1.645,6.757-5.112,6.757-2.861,0-4.4-1.573-4.4-3,0-1.323.608-1.823,1.466-1.823a1.5,1.5,0,0,1,1.68,1.644c0,1.073.215,1.931,1.287,1.931,1.323,0,1.644-1.788,1.644-5.506ZM648.7,848.4a2.418,2.418,0,0,1,2.36-2.431,2.468,2.468,0,0,1,2.359,2.431,2.5,2.5,0,0,1-2.359,2.466A2.449,2.449,0,0,1,648.7,848.4Z" fill="#000000"/><path d="M662.215,864.912c.536,4.648,3.36,6.792,6.506,6.792a6.643,6.643,0,0,0,5.613-2.788.39.39,0,0,1,.322-.144.423.423,0,0,1,.286.073.5.5,0,0,1,.179.357.214.214,0,0,1-.036.143c-1.18,2.645-3.647,4.076-7.187,4.076-5.755,0-9.223-3.825-9.223-9.475,0-5.827,3.719-9.438,8.831-9.438a7.961,7.961,0,0,1,8.044,8.366c0,.715-.071.93-.429.965Zm9.8-2.395c.214,0,.214-.144.214-.394,0-2.932-1.609-6.328-5.077-6.328-3,0-5.041,2.324-5.041,7.043v.751Z" fill="#000000"/><path d="M688.956,873.421c-5.828,0-9.475-3.825-9.475-9.475,0-5.827,4.077-9.438,9.189-9.438,4.611,0,7.329,2.718,7.329,4.97,0,1.287-.608,1.93-1.645,1.93a1.807,1.807,0,0,1-1.966-1.716c0-2.539-1.824-3.825-4.112-3.825-2.824,0-5,2.181-5,6.971,0,6.114,3.218,8.76,6.507,8.76a5.721,5.721,0,0,0,5.255-3.039.348.348,0,0,1,.322-.144.43.43,0,0,1,.287.072.573.573,0,0,1,.178.393.453.453,0,0,1-.036.215A7.134,7.134,0,0,1,688.956,873.421Z" fill="#000000"/><path d="M701.682,856.225h-2.575c-.321,0-.5-.108-.572-.537,0-.072-.035-.107-.035-.179,0-.214.143-.393.571-.429,2.468-.107,4.541-2.5,5.077-5.112a.542.542,0,0,1,.608-.429c.322,0,.393.321.393.571V854.9h3.718c.322,0,.43.108.43.608s-.108.716-.43.716h-3.718v13.012c0,1.717.894,2.539,2.181,2.539a3.945,3.945,0,0,0,2.467-.822c.143-.107.215-.179.322-.179.071,0,.108.036.179.072a.308.308,0,0,1,.107.214.758.758,0,0,1-.178.393,4.824,4.824,0,0,1-4.219,1.967c-2.682,0-4.326-1.287-4.326-4.148Z" fill="#000000"/><path d="M318.32,954.865c-1.386-2.369-2.93-2.878-4.176-2.878-3.7,0-3.878,4.563-3.878,5.739,0,3.141,1.421,5.966,4.545,5.966,1.526,0,2.825-.842,3.807-2.895l.491.3a5.745,5.745,0,0,1-5.281,3.79c-3.106,0-5.37-2.456-5.37-6.177,0-3.7,2.264-7.282,5.493-7.282a6.028,6.028,0,0,1,1.421.176,4.115,4.115,0,0,0,.912.193,3.091,3.091,0,0,0,1.246-.369l1.281,3.229Z" fill="#000000"/><path d="M327.951,960.393c0,3.141-2.229,4.492-3.844,4.492-1.631,0-3.842-1.351-3.842-4.492,0-3.106,2.193-4.475,3.842-4.475S327.951,957.287,327.951,960.393Zm-6.055,0c0,1.807.6,3.948,2.211,3.948,1.633,0,2.212-2.158,2.212-3.948s-.6-3.931-2.212-3.931C322.476,956.462,321.9,958.621,321.9,960.393Z" fill="#000000"/><path d="M328.773,956.778l2.826-.947v1.351a3.494,3.494,0,0,1,2.562-1.264c2.052,0,3.422,2.177,3.422,4.562,0,3.089-2.247,4.4-3.616,4.4a3.322,3.322,0,0,1-2.368-1.123v2.3a.817.817,0,0,0,.824.79h.509v.561h-4.088v-.561h.473a.922.922,0,0,0,.895-.808v-8.3c0-.421-.175-.755-.667-.755a4.146,4.146,0,0,0-.684.123Zm2.826,6.3a2.481,2.481,0,0,0,1.93.912c2.387,0,2.4-3.053,2.4-3.649,0-.492-.053-3.545-2.351-3.545a2.651,2.651,0,0,0-1.983,1.035Z" fill="#000000"/><path d="M344.09,962.587l1.772-4.476a1.628,1.628,0,0,0,.14-.6.712.712,0,0,0-.736-.7h-.579v-.561h3.421v.561c-.649,0-1.14.018-1.614,1.229l-2.65,6.686c-.666,1.667-1.7,2.684-3.035,2.684-.913,0-1.369-.544-1.369-1.07a1.064,1.064,0,0,1,1.018-1.071,1.189,1.189,0,0,1,.824.4c.439.438.474.491.667.491.527,0,1.106-1.035,1.211-1.281l.193-.491-2.931-6.756c-.193-.421-.491-.825-.964-.825h-.369v-.561h3.878v.561h-.544a.539.539,0,0,0-.527.58,1.283,1.283,0,0,0,.176.526Z" fill="#000000"/><path d="M349.176,956.778l2.931-.947v2.386c1.386-2.158,2.561-2.3,2.948-2.3a1.091,1.091,0,0,1,1.105,1.07,1.056,1.056,0,0,1-1,1.089,1,1,0,0,1-.789-.457c-.211-.227-.334-.28-.457-.28-1.035,0-1.807,2.14-1.807,2.632v3.071a.959.959,0,0,0,.842.947h.807v.562h-4.668v-.562h.685a1.139,1.139,0,0,0,.948-1.017V957.8a.656.656,0,0,0-.667-.737,2.343,2.343,0,0,0-.772.175Z" fill="#000000"/><path d="M356.965,956.62l2.773-.824v7.335c0,.456.228.859.72.859h.508v.562h-3.895v-.562h.491c.579,0,.737-.526.737-.929v-5.406c0-.456-.158-.754-.614-.754a2.533,2.533,0,0,0-.614.105Zm3.194-4.071a1.141,1.141,0,1,1-1.14-1.123A1.123,1.123,0,0,1,360.159,952.549Z" fill="#000000"/><path d="M364.755,962.534a.336.336,0,0,0,.228.333,17.882,17.882,0,0,0,2.474.368c.86.088,3.4.369,3.4,1.931,0,1.737-2.65,2.246-4.58,2.246-1.842,0-3.843-.456-3.843-1.579,0-1.193,1.773-1.457,2.791-1.614-.948-.264-1.72-.475-1.72-1.246,0-.738.842-1.088,1.421-1.246a2.9,2.9,0,0,1-1.772-2.615,3.429,3.429,0,0,1,3.439-3.194,3.355,3.355,0,0,1,2.229.843,2.368,2.368,0,0,1,1.807-1.071,1.022,1.022,0,0,1,1.035,1.018.923.923,0,0,1-.912.947.769.769,0,0,1-.631-.4.579.579,0,0,0-.457-.333.622.622,0,0,0-.456.227,2.78,2.78,0,0,1,.754,1.9,3.139,3.139,0,0,1-3.386,3.018,3.811,3.811,0,0,1-1.159-.158A.692.692,0,0,0,364.755,962.534Zm1.93,1.93c-1.527,0-2.615.456-2.615,1.228,0,.93,1.685,1.159,2.492,1.159.86,0,2.667-.264,2.667-1.3C369.229,964.534,367.194,964.464,366.685,964.464Zm-1.877-5.457c0,1.3.649,2.561,1.754,2.561,1.158,0,1.772-1.315,1.772-2.561,0-1.264-.649-2.545-1.772-2.545C365.421,956.462,364.808,957.778,364.808,959.007Z" fill="#000000"/><path d="M374.825,951.426v5.914a3.648,3.648,0,0,1,2.9-1.422A2.234,2.234,0,0,1,380,958.287v4.948a.756.756,0,0,0,.737.755h.456v.562h-3.755v-.562h.4a.867.867,0,0,0,.772-.877v-4.458a1.714,1.714,0,0,0-1.667-1.859,2.64,2.64,0,0,0-2.123,1.246V963.2a.772.772,0,0,0,.719.79H376v.562h-3.755v-.562h.474a.766.766,0,0,0,.719-.807v-10.02c0-.263-.052-.842-.579-.842a3.264,3.264,0,0,0-.649.106l-.07-.4Z" fill="#000000"/><path d="M385.017,962.042c0,.737.106,1.843,1.141,1.843a2.078,2.078,0,0,0,1.474-.842l.351.421c-.948,1.088-1.545,1.421-2.369,1.421-1.895,0-1.983-1.807-1.983-2.877v-5.2h-1.386v-.561c2.158-.123,2.246-2.193,2.281-2.948h.491v2.948h2.738v.561h-2.738Z" fill="#000000"/><path d="M394.56,964.078a17.341,17.341,0,0,1,2.843-4.334c2.246-2.7,3.018-3.633,3.018-5.4a2.171,2.171,0,0,0-2.053-2.369c-.86,0-1.843.439-1.843,1.351,0,.282.071.368.334.738a1.39,1.39,0,0,1,.281.806,1.059,1.059,0,0,1-1.036,1.088,1.209,1.209,0,0,1-1.158-1.28,3.572,3.572,0,0,1,3.7-3.247,3.41,3.41,0,0,1,3.667,3.334c0,1.913-1.228,2.93-3.264,4.6a13.259,13.259,0,0,0-3.228,3.581h3.334A2.91,2.91,0,0,0,402,960.779l.386.14-.859,3.633H394.56Z" fill="#000000"/><path d="M411.193,958.146c0,3.827-1.614,6.739-3.948,6.739-2.4,0-3.948-3-3.948-6.739,0-3.842,1.632-6.72,3.948-6.72C409.632,951.426,411.193,954.409,411.193,958.146Zm-5.948,0c0,2.334.175,6.177,2,6.177,1.79,0,2-3.719,2-6.177,0-2.3-.176-6.159-2-6.159C405.438,951.987,405.245,955.726,405.245,958.146Z" fill="#000000"/><path d="M413.139,963.99h1.018a1,1,0,0,0,1-1.105v-9.143a.84.84,0,0,0-.772-.894h-1.351v-.509a8.59,8.59,0,0,0,3.194-.685c.069-.035.508-.228.543-.228.088,0,.1.07.1.176V962.92a1.1,1.1,0,0,0,1.176,1.07h.843v.562h-5.756Z" fill="#000000"/><path d="M428.632,961.007a4.008,4.008,0,0,1-4.176,3.878c-2.264,0-3.528-1.579-3.528-2.667a1.109,1.109,0,0,1,1.088-1.106,1.02,1.02,0,0,1,.983,1.141,1.643,1.643,0,0,1-.105.649,1.179,1.179,0,0,0-.123.474c0,.737.859.895,1.386.895,1.772,0,2.527-1.509,2.527-3.036,0-2.123-1.351-3.281-2.509-3.281-.088,0-.527.088-.632.088-.228,0-.386-.088-.386-.352a.391.391,0,0,1,.4-.42c.087,0,.543.087.631.087,1.228,0,2.176-1.035,2.176-2.772,0-1.422-.7-2.563-1.912-2.563-.79,0-1.264.457-1.264,1.036,0,.158.175.878.175,1.036a.943.943,0,0,1-.982.965,1.021,1.021,0,0,1-1.035-1.018c0-1.158,1.21-2.615,3.421-2.615a3.158,3.158,0,0,1,3.475,3.018c0,.877-.492,2.405-2.826,3.159C426.421,957.937,428.632,958.726,428.632,961.007Z" fill="#000000"/><path d="M451.334,955.427H444.42v1.6h2.738l.456-.544a.4.4,0,0,1,.281-.174.416.416,0,0,1,.246.122l.842.649c.088.088.211.194.211.334,0,.228-.369.474-.562.614-.017.246-.017.562-.017,1.018,0,.491.087,3,.087,3.07a.893.893,0,0,1-.947.843c-.544,0-.562-.228-.579-.421h-6.967a.983.983,0,0,1-.947.684.539.539,0,0,1-.615-.6c0-.175.053-.947.071-1.105.035-.789.053-2.246.053-3.018a9.949,9.949,0,0,0-.194-2.387l1.72.912H443v-1.6h-4.914a8.8,8.8,0,0,0-1.9.123l-.281-.65c1.053.088,2.3.106,2.492.106h2.421v-2.194h-1.667a8.668,8.668,0,0,0-1.895.124l-.3-.65c1.07.088,2.316.106,2.509.106h1.351a6.026,6.026,0,0,0-.35-2.44l2.123.562c.07.035.245.07.245.246,0,.139-.175.3-.561.456v1.176h2.825a6.484,6.484,0,0,0-.334-2.44l2.159.6a.173.173,0,0,1,.14.176c0,.087-.052.139-.508.561v1.106H448.3l.6-.913c.052-.088.157-.228.263-.228a.706.706,0,0,1,.333.192l.86.913c.123.123.175.175.175.263,0,.158-.158.193-.28.193h-3.685v2.194h2.807l.544-.965c.07-.123.14-.229.281-.229a.508.508,0,0,1,.316.194l.912.965c.088.088.176.193.176.263C451.6,955.392,451.44,955.427,451.334,955.427Zm-9.458,8.861a12.867,12.867,0,0,1-5.773,1.492l-.018-.088A16.984,16.984,0,0,0,440.4,963.5a2.623,2.623,0,0,0,.72-.878l1.421,1.141a.374.374,0,0,1,.123.263C442.666,964.341,442.262,964.306,441.876,964.288ZM443,957.445h-2.756v2.088H443Zm0,2.509h-2.756v2.158H443Zm2.105-7.142H442.28v2.194h2.843C445.123,954.269,445.105,953.146,445.105,952.812Zm2.071,4.633H444.42v2.088h2.756Zm0,2.509H444.42v2.158h2.756Zm2.333,5.9c-.3,0-.4-.071-1.228-.755a12.651,12.651,0,0,0-3.106-1.825v-.088c3.966-.193,5.124,1.211,5.124,1.807A.766.766,0,0,1,449.509,965.851Z" fill="#000000"/><path d="M468.194,960.218a7.034,7.034,0,0,1-5.159-3.072c-1.632.4-7,1.247-8.581,1.44-.087.175-.281.544-.456.544-.158,0-.3-.158-.369-.352l-.579-1.772a7.277,7.277,0,0,0,2.9.211,49.37,49.37,0,0,0-.228-6.651l1.807.773c.544-.053,2.966-.317,3.457-.387s3.351-.579,4.264-1.264l1.334,1.3a.268.268,0,0,1,.07.194.335.335,0,0,1-.3.28,1.728,1.728,0,0,1-.544-.122c-.562.069-1.492.175-3.089.333a13.176,13.176,0,0,0,.334,2.246H466.6l.719-.808c.088-.1.159-.227.264-.227a.545.545,0,0,1,.333.192l.895.808a.376.376,0,0,1,.176.28c0,.158-.141.176-.264.176h-5.562c.983,3.159,3.439,4.212,4.089,4.212a.638.638,0,0,0,.7-.44c.422-.789.527-1.017.86-1.754l.106.018a17.175,17.175,0,0,0,.192,2.4c.036.071.264.352.3.422a.8.8,0,0,1,.053.193C469.458,959.445,469.458,960.218,468.194,960.218Zm-3.124.386c.035,1.158.123,3.65.123,4.667a.89.89,0,0,1-.93.825c-.526,0-.509-.474-.491-1.053h-6.054c.018.281.053.965-.912.965-.6,0-.6-.439-.6-.666,0-.667.07-3.651.07-4.265a13.7,13.7,0,0,0-.14-2.422l1.772.931h5.668l.4-.456c.088-.106.264-.3.369-.3a.365.365,0,0,1,.228.123l.667.614c.334.3.351.4.351.562C465.6,960.375,465.229,960.533,465.07,960.6Zm-3.684-8.827c-.545.035-1.246.053-1.913.053-.7,0-1.4-.018-2.106-.035v2.123h4.317A11.071,11.071,0,0,1,461.386,951.777Zm.4,2.562h-4.422v2.825c.175-.018,4.879-.3,5.457-.333A9.143,9.143,0,0,1,461.789,954.339Zm1.983,5.668h-6.054v1.983h6.054Zm0,2.4h-6.054v2.211h6.054Z" fill="#000000"/><path d="M482.263,954.865c-.193.088-.35.176-.561.79-2.176,6.563-6.142,8.247-8.7,8.967l-.052-.158a16.635,16.635,0,0,0,7.7-10.388c-.737-.035-6.335.65-7.44,1.228-.281.158-.334.193-.439.193a2.377,2.377,0,0,1-1.544-2.228,1.909,1.909,0,0,1,.193-.755c.158.158.754.895.913,1.018a1.451,1.451,0,0,0,.894.228,65.245,65.245,0,0,0,7.212-.72,5.234,5.234,0,0,1,.825-.491,6.422,6.422,0,0,1,1.316,1.123.768.768,0,0,1,.281.579C482.86,954.585,482.737,954.655,482.263,954.865Z" fill="#000000"/><path d="M496.386,955.217a31.382,31.382,0,0,0-.737,3.053c-.053.228-.544,2.386-.544,2.421,0,.106.035.123.4.369.369.228.544.351.544.631,0,.351-.263.527-.614.527-.158,0-.228-.018-.859-.088a13.282,13.282,0,0,0-1.79-.053,31.4,31.4,0,0,0-4.457.211c0,.176-.018,1-.544,1-.667,0-1.053-1.333-1.053-1.965,0-.105.053-.614.053-.632a36.879,36.879,0,0,0-.6-6.212c-.211-.684-.562-.86-1.211-1.105a1.882,1.882,0,0,1,.948-.316c.509,0,.754.158,1.684.719a.791.791,0,0,0,.456.159,2.774,2.774,0,0,0,.492-.071c.421-.088,5.773-.368,6.3-.6.123-.053.562-.439.684-.439a4.984,4.984,0,0,1,1.667,1.6C497.21,954.62,496.474,955.076,496.386,955.217Zm-2.053-.843a38.724,38.724,0,0,0-4.878.421c-.106.017-.667.123-.808.123a6.845,6.845,0,0,1-.859-.245c-.053,0-.053.069-.053.1,0,.246.21,2.721.228,3.247a26.953,26.953,0,0,0,.245,3.194,2.972,2.972,0,0,0,.791,0c1.631-.123,3.263-.246,4.895-.317.053-.35.106-.648.474-3.228.14-.947.263-2.79.263-2.931A.351.351,0,0,0,494.333,954.374Z" fill="#000000"/><path d="M503.6,955.217c-.3,0-.527-.246-1.123-.843a8.949,8.949,0,0,0-2.93-2.141,6.858,6.858,0,0,1,.859-.052c.6,0,3.878.246,3.878,2.193A.791.791,0,0,1,503.6,955.217Zm1.579,5.843c-.65.508-1.7,1.263-2.3,1.807-.1.088-.509.562-.613.614a.48.48,0,0,1-.246.071c-.632,0-1.878-1.6-1.878-2.457a3.679,3.679,0,0,1,.123-.824c.562.947,1.088,1.193,1.386,1.193.492,0,3.422-2.142,4.053-2.633a37.19,37.19,0,0,0,5.492-5.212l.071.035C510.982,954.777,509.228,957.9,505.174,961.06Z" fill="#000000"/><path d="M525.351,956.831c-.018,0-2.7-.3-3.212-.3s-.789.018-2.211.123c.755.579.825.632.825.755a3.982,3.982,0,0,1-.352.667c-.139.333-.648,1.807-.789,2.106-1.4,3.14-3.334,4.474-4.966,4.913l-.087-.071a12.755,12.755,0,0,0,4.211-7.317,1.064,1.064,0,0,0-.3-.877,14.3,14.3,0,0,0-3.422.824,1.847,1.847,0,0,1-.65.158,2.586,2.586,0,0,1-1.614-2.017,1.869,1.869,0,0,1,.141-.685c.491.685.789,1.141,1.7,1.141.035,0,.088-.018.123-.018.6-.088,3.72-.421,4.334-.491,1.281-.158,3.632-.422,3.86-.491a8.215,8.215,0,0,1,.877-.229c.246,0,2.124.333,2.124,1.229A.513.513,0,0,1,525.351,956.831Zm-3.861-3.492a37.056,37.056,0,0,0-4.633.438H516.7a1.578,1.578,0,0,1-1.387-1.473,2.708,2.708,0,0,1,.071-.439,2.35,2.35,0,0,0,1.948.7,15.849,15.849,0,0,0,2.983-.4,10.716,10.716,0,0,1,1.193-.3c.264,0,1.51.245,1.51.86C523.017,953.286,522.385,953.321,521.49,953.339Z" fill="#000000"/><path d="M527.05,961.007c3.018-1.842,6.949-6.195,6.949-6.984,0-.281-.246-.438-.79-.79a1.972,1.972,0,0,1,.526-.087,2.512,2.512,0,0,1,2.054,1.369c0,.175-.141.245-.439.4a27.05,27.05,0,0,0-2.579,2.527c.526.3.667.439.667.6,0,.087-.088.456-.106.544a19.078,19.078,0,0,0-.088,1.93c0,.579.07,3.58.07,3.738,0,.227,0,.859-.579.859-.508,0-.772-.842-.772-1.07,0-.141.123-.772.141-.9.035-.438.14-2.21.14-3.614a3.556,3.556,0,0,0-.158-1.473,15.235,15.235,0,0,1-4.983,3.123Z" fill="#000000"/><path d="M549.525,954.515a2.051,2.051,0,0,0-.526.211c-1.263.806-1.491.947-3.632,2.246-1.158,4.386-2.054,6.6-4.948,8.053l-.053-.105a15.231,15.231,0,0,0,3.509-8.212c0-.649-.263-.755-1.28-1.105a2.285,2.285,0,0,1,1.052-.333c.474,0,1.562.3,1.755.7a.713.713,0,0,1,.071.386c1.736-1.545,2.456-2.527,2.456-2.79,0-.07-.018-.123-.193-.123-.105,0-5.352.456-7.054,1.123a6.663,6.663,0,0,1-.86.333,3.376,3.376,0,0,1-1-.579c-.666-.6-.7-.7-.7-1.14a2.264,2.264,0,0,1,.14-.9,1.977,1.977,0,0,0,1.79,1c.737,0,6.668-.684,8-.877.14-.035.719-.246.843-.246a4.722,4.722,0,0,1,1.841,1.825C550.736,954.269,550.684,954.286,549.525,954.515Z" fill="#000000"/><path d="M564.911,957.831h-.648c-.878,0-1.036,1-1.106,1.439a5.974,5.974,0,0,1-1.492,3.562,2.291,2.291,0,0,0,1.737,1.018,2.017,2.017,0,0,0,1.492-.789l.386.4a3.543,3.543,0,0,1-2.737,1.369,2.884,2.884,0,0,1-2.106-.983,7.067,7.067,0,0,1-3.7,1.035c-2.386,0-4.194-1.527-4.194-3.246,0-.685.229-2.439,3.545-4.159a7.041,7.041,0,0,1-.824-2.842,3.074,3.074,0,0,1,3.263-3.212,2.357,2.357,0,0,1,2.667,2.369c0,1.931-1.754,2.772-3.246,3.439a38.6,38.6,0,0,0,3.317,5.177,4.811,4.811,0,0,0,1.228-3.141c0-1.228-.737-1.439-1.088-1.439h-.561v-.561h4.07Zm-8.6.123a3.41,3.41,0,0,0-1.948,2.913,3.192,3.192,0,0,0,3.177,3.211,4.7,4.7,0,0,0,2.421-.632A30.585,30.585,0,0,1,556.313,957.954Zm3.632-4.142a1.634,1.634,0,0,0-1.579-1.79,1.563,1.563,0,0,0-1.649,1.685,8.475,8.475,0,0,0,1,3.054C559.1,955.988,559.945,955.041,559.945,953.812Z" fill="#000000"/><path d="M582.4,964.569H569.014a8.8,8.8,0,0,0-1.895.123l-.281-.649c1.053.088,2.3.105,2.492.105h3.755c.018-.561.035-1.351.035-2.895,0-1.72-.035-8.581-.123-9.669a5.352,5.352,0,0,0-.245-1.281l2.176.667c.193.052.28.105.28.281,0,.157-.052.263-.562.614-.035.509-.052.86-.052,1.965v2.352h2.983l.843-1.176c.14-.211.21-.211.28-.211.106,0,.246.123.317.176l1.333,1.175c.105.088.175.159.175.263,0,.158-.158.194-.281.194h-5.65c0,.614,0,7.176.017,7.545h4.95l.964-1.193c.159-.193.176-.228.263-.228.106,0,.264.14.316.193l1.386,1.193c.106.088.176.158.176.263C582.666,964.534,582.508,964.569,582.4,964.569Z" fill="#000000"/><path d="M584.522,954.638c1.194.21,2.79.491,2.79,1.806a.943.943,0,0,1-.841.9c-.475,0-.65-.4-.9-1.018a4.816,4.816,0,0,0-1.123-1.6Zm4.37-.667c-.667,3.123-.737,3.474-1.615,6.773a9.765,9.765,0,0,0-.262,1.176c0,.351.614,2.228.614,2.649a1.027,1.027,0,0,1-.983,1.141c-.948,0-.948-1.018-.948-1.3s.141-1.491.141-1.737a2.145,2.145,0,0,0-1.088-1.947v-.106a1.807,1.807,0,0,0,1.123-.246c.509-.368,2.86-6.369,2.878-6.4Zm-2.9-3.738c.614.158,2.668.649,2.668,2.141a.839.839,0,0,1-.843.789c-.6,0-.771-.561-.912-.982a6.162,6.162,0,0,0-.982-1.843Zm6.7.527a.238.238,0,0,1,.141.227c0,.159-.053.176-.527.334-.192.368-.35.666-.631,1.158h5.194l.685-.913c.105-.14.158-.227.262-.227a.631.631,0,0,1,.334.192l1.018.913c.088.087.176.158.176.281,0,.175-.176.175-.282.175h-7.65a12.966,12.966,0,0,1-2.808,2.931l-.088-.07c.141-.194,2.493-3.966,2.527-5.844Zm3.353,4.211.631-.632c.105-.106.123-.106.193-.106.105,0,.141.036.264.141l.824.685a.334.334,0,0,1,.123.211c0,.139-.123.262-.562.561-.017.578-.035,1.192-.087,2.544h.614l.579-.825c.123-.175.211-.21.28-.21.088,0,.158.053.317.176l1.017.824a.4.4,0,0,1,.176.264c0,.174-.158.192-.264.192H597.42c-.018.509-.07,1.667-.3,3.615h.544l.684-.878c.123-.157.175-.21.281-.21a.686.686,0,0,1,.315.175l1,.878a.379.379,0,0,1,.175.263c0,.175-.175.193-.28.193h-2.773c-.193,1.193-.526,3.176-2.755,3.158A2.716,2.716,0,0,0,593,963.973l.053-.123a5.526,5.526,0,0,0,1.684.246c.492,0,.72-.035.948-1.264h-4.72c-.141.86-.211,1.316-1.07,1.316a.564.564,0,0,1-.6-.508,8.815,8.815,0,0,1,.227-1.053c.317-1.3.509-2.492.7-3.791a10.349,10.349,0,0,0-1.387.1l-.3-.631c.438.035.842.07,1.737.087.035-.3.316-2.193.316-3.123a4.7,4.7,0,0,0-.106-1.053l1.44.79Zm-4.545,3.825c-.281,2.281-.317,2.545-.475,3.615h1.633c.157-1.017.386-2.684.474-3.615Zm.4-3.4c-.105.948-.281,2.334-.35,2.983h1.631c.053-.632.158-2.264.193-2.983Zm3.825,7.019c.159-1.228.246-2.51.317-3.615h-1.633c-.105.878-.263,2.369-.474,3.615Zm-1.052-7.019c-.071,1.334-.159,2.246-.229,2.983h1.6c.016-.421.087-2.51.1-2.983Z" fill="#000000"/><path d="M613.174,954.515a2.042,2.042,0,0,0-.527.211c-1.262.806-1.491.947-3.631,2.246-1.159,4.386-2.054,6.6-4.949,8.053l-.052-.105a15.235,15.235,0,0,0,3.508-8.212c0-.649-.262-.755-1.28-1.105a2.292,2.292,0,0,1,1.053-.333c.474,0,1.561.3,1.755.7a.71.71,0,0,1,.07.386c1.736-1.545,2.456-2.527,2.456-2.79,0-.07-.017-.123-.192-.123-.106,0-5.353.456-7.055,1.123a6.651,6.651,0,0,1-.859.333,3.376,3.376,0,0,1-1-.579c-.666-.6-.7-.7-.7-1.14a2.288,2.288,0,0,1,.139-.9,1.979,1.979,0,0,0,1.79,1c.738,0,6.668-.684,8-.877.141-.035.72-.246.843-.246a4.718,4.718,0,0,1,1.842,1.825C614.385,954.269,614.332,954.286,613.174,954.515Z" fill="#000000"/><path d="M618.979,953.339a4.194,4.194,0,0,0-.281,1.982c0,.44.071,2.369.071,2.774,0,.262,0,1.438-.65,1.438a1.4,1.4,0,0,1-.965-1.491c0-.158.088-.772.122-1.105.053-.562.071-1.755.071-2.651,0-1.28,0-1.632-1.474-1.982a2.275,2.275,0,0,1,1.106-.421c.491,0,2.14.561,2.14,1.053A.856.856,0,0,1,618.979,953.339Zm5.949-.07c-.088.684-.035,1.79-.053,2.474-.07,3.246-.3,5.457-2.141,7.422a5.837,5.837,0,0,1-3.351,1.9l-.053-.123a8.2,8.2,0,0,0,3.737-5.282,31.6,31.6,0,0,0,.386-5.264c0-2.44-.087-2.492-1.7-2.826a1.939,1.939,0,0,1,1.334-.508c.878,0,2.158.526,2.158.947C625.243,952.2,624.945,953.075,624.928,953.269Z" fill="#000000"/><path d="M639.594,963.99c-.474,0-.737-.456-.912-.737a14.488,14.488,0,0,0-3.563-4.475c-2.684,3.195-5.351,4.9-7.826,5.335v-.14c4.194-1.949,8.528-7.827,9.107-10.319a32.365,32.365,0,0,0-4.492,1.106c-.509.263-.579.281-.72.281a2.216,2.216,0,0,1-1.368-1.931,1.432,1.432,0,0,1,.159-.771c.718.93.859,1.123,1.438,1.123.421,0,4.264-.334,4.983-.79a4.027,4.027,0,0,1,.826-.562,4.751,4.751,0,0,1,1.6,1.579c0,.194-.123.247-.684.457-.159.07-.229.193-.492.666a21,21,0,0,1-2.263,3.633c2.14.895,4.895,3,4.895,4.58C640.278,963.446,640.12,963.99,639.594,963.99Z" fill="#000000"/><path d="M650.576,964.288c-.7,0-.79-.35-1.089-1.754a3.186,3.186,0,0,0-.139-.51c-2.563,1.176-4.247,1.79-5.283,2.16-.315.438-.35.508-.526.508-.193,0-.263-.14-.386-.438l-.807-1.825a4.091,4.091,0,0,0,.965.088c.263,0,.474-.018.877-.053,3.037-4.826,4.211-6.686,4.475-8.493l1.9,1.246a.309.309,0,0,1,.192.28c0,.316-.509.386-.649.4a78.15,78.15,0,0,1-5.282,6.476,39.139,39.139,0,0,0,4.369-.772,7.577,7.577,0,0,0-1-1.791l.106-.157c.789.456,3.158,1.877,3.158,3.667A.871.871,0,0,1,650.576,964.288Zm-2.7-12.845a31.046,31.046,0,0,1-2.755,3.651,2.641,2.641,0,0,1,1.579,2.14.867.867,0,0,1-.824.861c-.649,0-.912-.632-1.193-1.3a5.377,5.377,0,0,0-1.615-2.246l.088-.123a4.085,4.085,0,0,1,1.579.456,14.667,14.667,0,0,0,1.632-5.264l1.931,1c.192.106.333.193.333.333C648.628,951.163,648.242,951.3,647.873,951.443ZM657.6,952.8c.035.438.07,1.421.07,3.018,0,.684,0,6.177-.755,7.949a3.478,3.478,0,0,1-3.088,2.106,3.034,3.034,0,0,0-1.51-2.141v-.158a13.579,13.579,0,0,0,1.861.228c.334,0,1.228,0,1.526-1.421a51.524,51.524,0,0,0,.492-7.194,25.138,25.138,0,0,0-.158-3.124h-4.492a8.8,8.8,0,0,0-1.9.123l-.281-.65c1.053.106,2.3.106,2.491.106h4.037l.6-.6a.521.521,0,0,1,.264-.123.55.55,0,0,1,.315.123l.895.7a.5.5,0,0,1,.228.368C658.191,952.339,657.963,952.531,657.6,952.8Z" fill="#000000"/><path d="M668.979,952.356l.386-.491c.141-.193.176-.211.246-.211a.674.674,0,0,1,.3.141l.755.526a.363.363,0,0,1,.176.263c0,.158-.053.193-.491.562,0,.21.017,1.737.087,4.106a8,8,0,0,0,1.21.193c1.861-3.369,1.984-3.6,2.141-4.983l1.72,1.175a.323.323,0,0,1,.176.281c0,.28-.281.315-.825.368a38.639,38.639,0,0,1-2.86,3.177c.562.017,1.439,0,2.07-.035a4.493,4.493,0,0,0-.6-1.176l.035-.07c.912.385,2.211.912,2.211,2.035a.779.779,0,0,1-.79.843c-.562,0-.614-.317-.789-1.282-.317.141-1.913.755-2.282.895-.123.246-.263.457-.385.457a.432.432,0,0,1-.369-.281l-.667-1.439a4.945,4.945,0,0,1-.018.772.916.916,0,0,1-.842.422c-.544,0-.526-.264-.509-.7h-1.79v.4l1.878.632a.328.328,0,0,1,.245.3c0,.194-.174.334-.421.544-.017.246-.017.317-.035.773h4.3l.65-1.088c.052-.088.14-.229.263-.229.106,0,.245.123.333.194l1.176,1.088c.106.105.176.158.176.263,0,.175-.176.193-.281.193h-6.195a11.742,11.742,0,0,0,6.616,2.79v.088a3.464,3.464,0,0,0-1.684,1.6,12.48,12.48,0,0,1-5.37-4.386v1.351c0,.421.123,2.562.123,2.685,0,.473-.229.86-1.123.86-.176,0-.544-.053-.544-.457,0-.157.088-.895.105-1.07.035-.842.071-1.282.1-2.773a14.955,14.955,0,0,1-7.387,3.475l-.018-.088a20.736,20.736,0,0,0,5.914-4.071h-3.334a8.225,8.225,0,0,0-1.9.123l-.3-.65c.824.071,1.667.106,2.51.106h4.492a4.431,4.431,0,0,0-.334-2.141,1.026,1.026,0,0,1-.93.439c-.263,0-.421-.071-.421-.474,0-.579.123-3.439.123-4.089a21.58,21.58,0,0,0-.158-2.737l1.246.7a5.276,5.276,0,0,0,.474-2.334l1.684.877a.326.326,0,0,1,.211.264c0,.263-.474.333-.807.385-.246.229-.422.369-1.123.913Zm-3.333,1.281a.362.362,0,0,1,.193.316c0,.28-.334.333-.579.386a40.1,40.1,0,0,1-2.948,3.211c.614-.018,1.263-.018,1.86-.052a3.233,3.233,0,0,0-.492-1.264l.035-.052c1.211.421,2.036,1.334,2.036,2.123a.783.783,0,0,1-.755.807c-.614,0-.684-.508-.772-1.3-.386.211-2.106.965-2.456,1.124-.176.385-.211.543-.439.543s-.334-.228-.387-.368l-.6-1.719a4.978,4.978,0,0,0,1.545.157c.456-.754,1.193-2.053,1.315-2.3a.6.6,0,0,1-.474.21c-.315,0-.526-.158-.771-.736a3.562,3.562,0,0,0-1.158-1.738v-.07a4.868,4.868,0,0,1,1.421.315c.737-1.667.964-2.14.912-3.4l1.825,1.053a.3.3,0,0,1,.123.264c0,.262-.351.28-.614.3a16.2,16.2,0,0,1-1.949,1.931c.334.193,1.037.614.949,1.368a4.623,4.623,0,0,0,.649-2.035Zm1.631-.86v1.983h1.808v-1.983Zm1.808,2.4h-1.808v2.3h1.808Zm1.649-2.246a3.909,3.909,0,0,1,.983.28,7.651,7.651,0,0,0,.965-3.141l1.7,1.123a.345.345,0,0,1,.158.263c0,.246-.245.264-.649.3-.825.736-.948.824-1.913,1.579a1.544,1.544,0,0,1,.948,1.316.756.756,0,0,1-.72.807c-.579,0-.7-.474-.895-1.211a3.145,3.145,0,0,0-.579-1.228Z" fill="#000000"/><path d="M690.769,951.233l.614-.439c.14-.105.246-.228.369-.228.105,0,.21.123.28.176l.878.684c.07.053.193.176.193.281,0,.228-.6.6-.719.667-.088,3.439.192,8.967.192,12.424a.942.942,0,0,1-1.017.965c-.632,0-.632-.439-.632-.79v-.3H680.5c.035.4.035.456,0,.561a1.028,1.028,0,0,1-.966.65.654.654,0,0,1-.736-.738c0-.087.139-2.334.157-2.544.105-2.106.158-4.211.158-6.861a30.944,30.944,0,0,0-.315-5.545l2.017,1.035Zm-10.265.421v12.6h10.423v-12.6Zm7.879,3.79.683-.841c.088-.106.194-.229.282-.229.105,0,.211.105.315.193l.931.842c.123.106.175.158.175.264,0,.158-.158.192-.263.192h-2.545c.018.475.088,4.791.088,5.195,0,1.193-.123,2.474-2.07,2.667a3.35,3.35,0,0,0-1.544-1.983v-.123a16.791,16.791,0,0,0,1.737.123c.386,0,.421-.123.421-.438v-5.441h-3.58a10.636,10.636,0,0,0-1.895.106l-.281-.632c.825.07,1.649.1,2.492.1h3.264v-1.632a5.882,5.882,0,0,0-.317-1.947l1.861.579c.281.087.334.228.334.368,0,.246-.3.369-.51.421v2.211Zm-5.651,1.528c.7.315,2.527,1.157,2.527,2.614a.876.876,0,0,1-.877.947c-.72,0-.808-.684-.878-1.263a7.444,7.444,0,0,0-.824-2.229Z" fill="#000000"/></g></svg>
