<svg xmlns="http://www.w3.org/2000/svg" width="1000" height="710" viewBox="0 0 1000 710"><g id="Artboard"><rect id="Page" width="1000" height="710" fill="#fff"/></g><g id="Text"><path d="M889.305,85.311a10.267,10.267,0,0,1,5.268,2.272q2.994,2.067,3,3.409,0,1.653-2.892,1.653l-7.644,1.342q-.207,1.758-.309,3.616-.1,2.376-.207,4.647a35.033,35.033,0,0,1,7.747-2.582q12.394,0,12.808,7.954a30.737,30.737,0,0,1-2.066,10.122,22.09,22.09,0,0,1-5.474,8.16,5.774,5.774,0,0,1-7.747,1.343,21.167,21.167,0,0,1-2.479.723,78.005,78.005,0,0,0,24.067,17.663q12.086,5.682,15.7,8.573,3.1,2.583,3.1,2.892,0,2.169-4.958,2.17a39.357,39.357,0,0,1-21.588-6.714Q896.43,146.77,886,133.135q.205,9.915,1.136,29.748-.1,8.158-1.963,8.263-2.687,0-5.887-4.028-2.788-4.237-2.789-6.2,0-1.239.413-1.239a5.146,5.146,0,0,0,2.376.826q.516-.1.516-2.789V132.412a66.9,66.9,0,0,1-11.259,12.7q-7.335,7.025-12.808,9.4a13.674,13.674,0,0,1-5.681,1.859q-1.756,0-1.756-.826,0-1.239,1.859-1.756a41.9,41.9,0,0,0,12.7-8.78,79.314,79.314,0,0,0,12.5-15.183,6.631,6.631,0,0,1-2.065-.724q-1.239-.93-1.343-1.342c0-.551.619-.894,1.86-1.034a28.6,28.6,0,0,0,5.99-1.652V120.74a7.353,7.353,0,0,0-.826.206,18.449,18.449,0,0,1-4.235.723q-2.789,0-2.789-1.652,0-.827,1.343-1.55,3.924-1.961,6.507-3.2v-4.854a28.191,28.191,0,0,1-7.437,2.479q-3.719,0-4.132-1.55.311-.93,2.686-1.446a40.916,40.916,0,0,0,6.714-3.409,11.7,11.7,0,0,1,2.272-1.136q0-5.679.1-8.78a9.66,9.66,0,0,1,.1-1.549l-8.573,1.343a8.94,8.94,0,0,1-3.719-.62,1.538,1.538,0,0,1-.826-1.343q0-.825,1.033-1.136a75.025,75.025,0,0,0,12.291-4.338q.311-7.334.311-13.118l-.827-4.132q0-.825,3.2-.929a4.981,4.981,0,0,1,3.512,1.342,7.906,7.906,0,0,1,2.376,5.682,39.541,39.541,0,0,1-.93,7.023,3.04,3.04,0,0,0-.1.723A7.214,7.214,0,0,1,889.305,85.311ZM857.491,110a10.51,10.51,0,0,1,3.512.516q3.2,1.137,4.958,5.164a24.952,24.952,0,0,1,2.272,7.954q0,6.716-2.169,6.714a4.048,4.048,0,0,1-3.3-2.169q-1.447-2.065-3-9.916a11.477,11.477,0,0,0-2.789-4.752,3.4,3.4,0,0,1-1.24-2.169Q855.735,110,857.491,110Zm28.819-2.273q-.1,2.478-.1,4.855h.1q3.819,0,3.821,2.892,0,1.758-3,2.789l-1.033.413q-.1,2.169-.1,3.925a31.289,31.289,0,0,1,5.164-.62,8.907,8.907,0,0,1,1.137-1.136q4.852-4.751,4.854-13.221-.207-1.755-3.3-1.756A33.884,33.884,0,0,0,886.31,107.725Z" fill="#000000" stroke="#000000" stroke-linecap="round" stroke-linejoin="round" stroke-width="2"/><path d="M917.3,209.414a18.228,18.228,0,0,1,8.78,2.376q6.093,3.719,6.094,6.61,0,1.758-4.028,1.756-3.1,0-8.057-.31-7.336-.721-14.357-.929a55.873,55.873,0,0,0-10.33,1.136,7.809,7.809,0,0,1,.827,3.718,13.471,13.471,0,0,1-1.653,5.372q5.577,4.545,7.644,8.056a19.765,19.765,0,0,1,2.272,9.3,44.129,44.129,0,0,1-1.963,12.291q-2.788,9.506-7.334,13.634-3.1,2.892-5.061,2.893-2.788-.1-5.164-3.615A11.391,11.391,0,0,1,883,265.4q.1-1.135.93-1.136a11.652,11.652,0,0,0,4.028,1.136,4.22,4.22,0,0,0,3.306-1.756q2.169-2.271,3.718-8.78a42.583,42.583,0,0,0,1.24-8.366q0-5.37-4.649-12.4a151.908,151.908,0,0,1-18.8,22.517,56.439,56.439,0,0,1-18.592,11.775.366.366,0,0,1-.414-.413,175.6,175.6,0,0,0,31.608-38.424,35.656,35.656,0,0,0,3.306-7.747,106.049,106.049,0,0,0-19.626,9.606,19.632,19.632,0,0,1-11.156,3.822,25.072,25.072,0,0,1-9.5-1.757q-3.2-1.134-3.3-1.962,0-.825,1.342-.826,7.128-.31,29.646-10.329,10.431-4.856,17.56-5.991,8.467-1.652,14.874-3.306A27.571,27.571,0,0,1,917.3,209.414Zm-32.95-20.349a16.589,16.589,0,0,1,9.5,2.789q4.543,2.893,4.545,7.024,0,2.583-2.169,2.582-8.265,0-10.743.93a5.278,5.278,0,0,1-2.479.723V202.7q5.889-3,5.888-4.545,0-1.96-3.512-5.475-1.963-2.064-1.963-2.479Q883.417,189.066,884.347,189.065Z" fill="#000000" stroke="#000000" stroke-linecap="round" stroke-linejoin="round" stroke-width="2"/><path d="M860.28,298.088a13.186,13.186,0,0,1,7.333,2.789q4.339,2.788,4.339,8.47,0,3.927-7.23,14.564a53.8,53.8,0,0,1-5.578,7.024q3.719-.621,7.85-1.343,2.582-4.44,2.789-6.611,0-1.753.93-1.755,1.65,0,4.751,2.892a8.563,8.563,0,0,1,2.995,6.2,5.39,5.39,0,0,1-2.788,4.545q-3.513,2.893-10.433,11.672a42.566,42.566,0,0,1,4.235.723q5.99,1.448,8.676,3.615,2.79,2.171,2.893,4.235-.31,5.063-4.958,5.372-2.169,0-3.822-2.789-21.072,14.049-24.377,14.047-5.787,0-5.784-7.127a4.768,4.768,0,0,1,3.1-4.545q2.481-1.443,16.424-22.518-4.752,2.893-9.916,5.372a18.19,18.19,0,0,1-7.024,1.962q-4.442,0-4.545-5.887,0-1.239,4.339-4.958,16.213-16.01,16.216-26.856a26.781,26.781,0,0,0-1.549-7.437C859.144,298.64,859.521,298.088,860.28,298.088Zm7.747,53.608a39.927,39.927,0,0,0-3.512-3.305c-.276-.206-.413-.344-.413-.413q-3.1,3.927-6.611,8.781,0,1.342.826,1.343Q859.558,358.1,868.027,351.7Zm49.89-38.217q5.887,0,7.953,3.1,2.169,3.618,2.273,13.015a79.472,79.472,0,0,1-3.512,21.691q-4.133,15.084-12.4,24.791-4.133,5.368-6.92,5.474-2.378-.1-4.235-3.718a17.319,17.319,0,0,1-1.549-7.437q0-1.24.413-1.24l1.756.413q2.271,0,5.062-3.718,5.267-5.368,9.192-22,2.994-12.394,3-15.08a16.254,16.254,0,0,0-.619-5.268q-.723-1.86-3.615-1.859-7.853.1-15.7.929-2.378.31-3.616.413a10.592,10.592,0,0,1-5.371-1.755q-2.892-2.066-2.892-3.2,0-.514,1.652-.723Q906.554,313.48,917.917,313.479Z" fill="#000000" stroke="#000000" stroke-linecap="round" stroke-linejoin="round" stroke-width="2"/><path d="M868.44,416.82q.1-1.757.1-3.305a19.681,19.681,0,0,0-1.136-5.785,22.677,22.677,0,0,1-1.343-4.648q0-1.651,1.756-1.652a10.708,10.708,0,0,1,5.888,2.169q2.994,2.378,3.2,7.334a13.277,13.277,0,0,1-.723,3.924c-.07.346-.139.723-.207,1.136a7.325,7.325,0,0,1,1.962.93,4.722,4.722,0,0,1,2.687,3.513q0,2.065-1.343,2.582-2.169.309-4.855.826a68.752,68.752,0,0,0-.93,9.09q4.543-3.821,9.5-8.368v.414a42.6,42.6,0,0,1-9.5,14.358V449.46a36.844,36.844,0,0,1-.723,7.23q-.723,3.309-2.065,3.41-2.274-.1-3.719-2.893a16.181,16.181,0,0,1-1.343-5.784,24.532,24.532,0,0,1,.62-5.062,34.222,34.222,0,0,1-5.991,3.823q-4.338,2.581-7.437,2.582-3,0-3.2-4.545,0-4.029,5.061-10.123,4.854-5.474,10.123-11.982-8.781,2.169-20.142,5.578c-.276-.068-.413-.207-.413-.413q0-1.24,2.272-3,2.48-1.859,16.733-9.09Q866.476,417.647,868.44,416.82Zm-8.883,49.58q.825,0,2.789,2.169A11.046,11.046,0,0,1,864,474.25a31.053,31.053,0,0,1-4.028,14.668q-1.964,3.924-4.235,3.925-1.342,0-3-2.169a3.769,3.769,0,0,1-1.549-2.789,6.446,6.446,0,0,1,1.447-3.306q5.679-11.877,6.4-16.939Q859.04,466.4,859.557,466.4Zm8.263-34.6q-4.547,5.682-9.3,12.6,3.821-2.478,8.883-6.506Q867.613,435.207,867.82,431.8Zm5.268,35.016q3.2.105,7.747,4.545,12.291,12.394,21.588,12.395a19.037,19.037,0,0,0,8.78-2.169,2.742,2.742,0,0,0,1.962-2.789q0-3.51-10.846-14.357a17.061,17.061,0,0,1-7.333,1.549,7.462,7.462,0,0,1-5.681-2.066q-1.344-1.032-1.343-1.652v-.827l2.479.413q2.48,0,8.883-3.305,3.924-2.065,5.578-2.066,1.96,0,2.169,1.24a6.291,6.291,0,0,1-1.859,4.958,25.7,25.7,0,0,1,4.338,1.239q4.854,1.962,9.4,7.54,4.65,5.682,4.649,9.09,0,3.1-4.338,5.784a36.744,36.744,0,0,1-19.006,4.752q-6.3,0-12.4-4.958-7.849-6.2-15.493-18.9C872.365,466.952,872.605,466.813,873.088,466.813Zm16.217-48.753q1.03.1,2.169,2.065a10.339,10.339,0,0,1,.723,3.1,20.133,20.133,0,0,0,3-1.962,8.232,8.232,0,0,1,5.579-2.067q3.3,0,3.3,2.583,0,2.893-3.3,4.442a23,23,0,0,1-6.095,1.652,6.057,6.057,0,0,1-2.273-.413v7.23q1.861-.721,3.823-1.652a11.825,11.825,0,0,1,5.887-1.343q3.2,0,3.2,2.375,0,2.274-3.409,3.306a31.586,31.586,0,0,1-6.507,1.239,6.814,6.814,0,0,1-2.892-.619,45.922,45.922,0,0,0,.516,7.333,4.8,4.8,0,0,1,.414,1.963,2.7,2.7,0,0,1-.1.826q8.159-4.853,8.78-4.854a12.628,12.628,0,0,1,4.545.722V413.1q0-2.582-1.343-2.582a29.687,29.687,0,0,0-6.094,1.859,7.929,7.929,0,0,1-2.066.723q-2.377,0-2.479-1.343,0-.62,1.033-1.55,1.239-1.136,10.02-5.784a4.525,4.525,0,0,1,2.168-.826q1.86,0,4.649,2.169t2.788,4.338a56.382,56.382,0,0,1-.413,5.785q-.413,3.306-.516,29.024a8.517,8.517,0,0,1-1.24,4.648,3.429,3.429,0,0,1-2.789,1.447,3.646,3.646,0,0,1-2.686-1.654,1.256,1.256,0,0,0-.206-.309h-.413a72.172,72.172,0,0,0-12.6,1.756,14.337,14.337,0,0,1-2.48.516,2.606,2.606,0,0,1-1.549.517q-2.892,0-2.892-4.958.827-10.431,1.343-28.2A.554.554,0,0,1,889.305,418.06Zm27.269,34.706a29.8,29.8,0,0,1,10.535,2.376q6.4,2.478,6.4,4.545-.309,5.061-5.371,5.371-3.308,0-5.681-3.41-4.236-6.093-6.714-8.056A.729.729,0,0,1,916.574,452.766Z" fill="#000000" stroke="#000000" stroke-linecap="round" stroke-linejoin="round" stroke-width="2"/><path d="M859.867,513.55q1.341.1,2.788,2.376a9.857,9.857,0,0,1,1.033,4.648q0,9.4-9.5,22.311c0,.553.137.826.413.826q3.3,0,8.986-5.268a12.473,12.473,0,0,0,1.24-3.821c0-.894.275-1.343.826-1.343q1.136,0,3.305,2.066a6.515,6.515,0,0,1,2.17,4.648,4.048,4.048,0,0,1-2.17,3.3q-3.925,3.513-14.357,18.18,0,1.137.723,1.136,1.239,0,9.193-6.611a48.556,48.556,0,0,0,.31-5.371,1.1,1.1,0,0,1,1.239-1.239,6.307,6.307,0,0,1,3.512.826,3.544,3.544,0,0,1,1.55,3q0,5.682-2.789,15.494a54.617,54.617,0,0,1-21.691,29.025h-.31Q859.761,581,863.379,563.854q-13.119,9.606-15.494,9.6-4.132,0-4.132-5.061a3.774,3.774,0,0,1,2.376-3.615q1.549-1.03,9.193-12.808-5.992,3.718-9.813,3.718-3.1,0-3.408-4.545,0-5.06,10.019-16.629,7.746-9.708,7.747-17.664l-.31-3A.274.274,0,0,1,859.867,513.55Zm35.532,1.137q1.549,0,4.648,2.685,2.685,2.378,2.892,4.028a10.485,10.485,0,0,1-1.033,4.338,35.256,35.256,0,0,0-1.343,6.3q-2.788,16.734-3.408,18.18a4.3,4.3,0,0,1-2.892,1.343,3.474,3.474,0,0,1-1.549-.93,19.1,19.1,0,0,0-6.818,1.652,10.014,10.014,0,0,1-3.3.93,4.827,4.827,0,0,1-1.136-.1q-1.653,13.325-1.653,17.766a1.1,1.1,0,0,0,1.24,1.239,100.894,100.894,0,0,0,8.16-8.986A28.5,28.5,0,0,0,886,558.9c0-.275.1-.414.31-.414a19.614,19.614,0,0,1,7.849,2.375q4.65,2.17,4.649,4.339-.208,3.513-3.822,3.719-2.48,0-4.132-3c-.207-.344-.345-.584-.413-.723a45.458,45.458,0,0,1-7.127,13.738q-4.338,5.063-6.4,5.165a4.041,4.041,0,0,1-2.892-1.963,12.68,12.68,0,0,1-1.24-5.888,107.646,107.646,0,0,1,1.756-14.77q1.962-7.333,1.963-27.269a5.239,5.239,0,0,0-.93-3.513,7.386,7.386,0,0,1-1.239-1.962q0-1.239,2.169-1.24a9.037,9.037,0,0,1,4.545,1.24,6.665,6.665,0,0,1,2.375,5.061,3.04,3.04,0,0,0,1.033-.826q2.994-2.375,5.268-2.479a8.079,8.079,0,0,1,2.479.31.925.925,0,0,0,.1-.413q.72-5.37.722-6.611,0-1.96-1.342-1.963a11.973,11.973,0,0,0-3,.621,7.905,7.905,0,0,1-2.376.929q-5.578-.1-5.681-3.305,0-.62,1.549-1.343a59.211,59.211,0,0,1,9.09-3.2,25.943,25.943,0,0,0,3.1-.723A8.54,8.54,0,0,1,895.4,514.687Zm-12.188,22.93q-.414,4.443-1.446,12.5,1.134-.62,2.582-1.549a12.943,12.943,0,0,1,5.474-2.685,20.574,20.574,0,0,1,.517-3.513q.62-2.994,1.033-5.68a17.608,17.608,0,0,0-4.235.722q-1.344.31-2.376.517A3.871,3.871,0,0,1,883.211,537.617ZM923.6,518.405a5.927,5.927,0,0,1,3.924,1.962,3.953,3.953,0,0,1,1.86,3q0,2.377-5.784,13.634,6.509,10.641,6.507,20.659A22.417,22.417,0,0,1,927.42,568.5q-2.584,4.443-4.339,4.442-1.653,0-4.338-2.479-2.688-2.066-4.958-3.512a193.465,193.465,0,0,1-2.065,24.687q-1.346,8.676-2.687,8.676-.207,0-.929-4.958-.828-7.437-.827-30.161,0-2.891,1.343-30.161a14.592,14.592,0,0,0-.93-4.958q-4.028-.207-4.028-1.756,0-.93,1.137-1.24,2.582-.516,9.606-4.441Q920.912,518.406,923.6,518.405Zm-11.672,10.329q1.96,11.569,1.963,31.917V562.1q8.985-.412,10.018-1.963a23.656,23.656,0,0,0,.517-5.371,12.91,12.91,0,0,0-3.3-8.47q-3.408-4.75-3.409-8.884,0-1.548,4.545-10.329c0-.48-.276-.723-.826-.723Q919.466,526.358,911.926,528.734Z" fill="#000000" stroke="#000000" stroke-linecap="round" stroke-linejoin="round" stroke-width="2"/><g id="平成十年八月_第一版_第一刷" data-name="平成十年八月 第一版 第一刷"><path d="M806.117,255.822a3.881,3.881,0,0,1,1.288.237.753.753,0,0,1,.534.733q0,.753-.95.792a4.039,4.039,0,0,0-2.02.773q-.614.456-1.15.812a1.347,1.347,0,0,1,1.011.574,2.84,2.84,0,0,1,.416,1.565q0,.872-.019,1.882a9.588,9.588,0,0,0,.712-1.169,5.553,5.553,0,0,0,.792-2.456c0-.211.06-.317.179-.317a2.237,2.237,0,0,1,1.366.515,1.474,1.474,0,0,1,.694,1.129,1.862,1.862,0,0,1-.515,1.169,11.665,11.665,0,0,1-3.011,2.436q2.219-.158,2.773-.159a4.408,4.408,0,0,1,1.822.5q1.308.594,1.308.97,0,1.071-1.129,1.07a2.654,2.654,0,0,1-1.189-.456,7.253,7.253,0,0,0-3.249-.752h-.653q-.058,2.06-.2,4.516a13.7,13.7,0,0,1-.752,3.7c-.146.383-.291.574-.437.574q-.119,0-.158-.574-.058-.695-.079-8.082a8.671,8.671,0,0,0-.951.2,23.645,23.645,0,0,0-3.9,1.644,4.218,4.218,0,0,1-1.8.614,2.124,2.124,0,0,1-1.228-.4c-.185-.145-.277-.25-.277-.317a.193.193,0,0,1,.178-.2,5.405,5.405,0,0,0,2.218-.614,26.211,26.211,0,0,1,3.486-1.406,11.488,11.488,0,0,1,2.278-.634v-3.387a8.1,8.1,0,0,0-.3-1.743q-.91.594-1.7,1.01a.07.07,0,0,1-.079-.079,23.252,23.252,0,0,1,2.991-2.595,15.1,15.1,0,0,1-3.209.792,2.815,2.815,0,0,1-1.406-.356,1.232,1.232,0,0,1-.673-.852c0-.158.059-.237.178-.237a3.38,3.38,0,0,0,.951.158,8.656,8.656,0,0,0,2.951-.832A7.471,7.471,0,0,1,806.117,255.822Zm-7.071,6.041a3.605,3.605,0,0,1,1.724,1.01.629.629,0,0,0,.356.178q.138,0,.614-1.267c.066,0,.1.052.1.158a4.721,4.721,0,0,1-.832,2.832,1.518,1.518,0,0,1-1.168.733c-.146,0-.284-.165-.416-.5a4.507,4.507,0,0,1-.377-1.6,6.309,6.309,0,0,0-.218-1.387C798.828,261.916,798.9,261.863,799.046,261.863Z" fill="#000000"/><path d="M797.085,282.09q.613,0,1.288.952a2.73,2.73,0,0,1,.594,1.663,11.939,11.939,0,0,1-.911,4.12q-1.031,2.694-1.921,2.694c-.225,0-.337-.027-.337-.08a17.971,17.971,0,0,0,1.208-3.8,14.938,14.938,0,0,0,.3-2.932,10.238,10.238,0,0,0-.535-2.436C796.769,282.15,796.874,282.09,797.085,282.09Zm9.567-2.773q1.327.04,1.367.872,0,.2-.594.614a1.838,1.838,0,0,1-.318.258,7.008,7.008,0,0,0-1.247,1.069,2.014,2.014,0,0,1-.277.3q.554,1.467,1.208,2.912a4.62,4.62,0,0,0,.356-1.664.533.533,0,0,0-.1-.138.348.348,0,0,1-.059-.159c0-.158.152-.238.455-.238a1.171,1.171,0,0,1,.694.2c.224.146.337.285.337.416a7.357,7.357,0,0,1-.813,3.288q.951,1.745,2.061,3.407.791,1.248,1.129,1.248c.039,0,.086-.1.138-.3.039-.171.085-.773.139-1.8.026-.093.046-.139.059-.139q.138,0,.317.356a4.972,4.972,0,0,1,.475,2.179,5.108,5.108,0,0,1-.158,1.466c-.106.29-.238.436-.4.436a2.722,2.722,0,0,1-1.605-.971,17.374,17.374,0,0,1-2.872-4.654q-1.188,1.683-2.258,1.683a.981.981,0,0,1-.574-.178q-.159-.1-.159-.159a.623.623,0,0,1,.317-.555,4.394,4.394,0,0,0,1.9-2.4l.04-.06q-.694-1.642-1.327-3.466-.675.654-1.308,1.248.693.338.693,1.525a6.37,6.37,0,0,1-.653,2.635,6.145,6.145,0,0,1-1.922,2.278,1.731,1.731,0,0,1-.911.3q-.277,0-.594-.832a2.029,2.029,0,0,1-.2-.595c0-.079.112-.118.337-.118a1.5,1.5,0,0,0,.891-.3,3.922,3.922,0,0,0,1.228-1.584,3.8,3.8,0,0,0,.5-1.486c0-.25-.079-.376-.237-.376a2.55,2.55,0,0,0-.911.3c-.159.079-.291.139-.4.179q-.515.435-.97.792a1.122,1.122,0,0,1-.753.316q-.239,0-.376-.316a1.128,1.128,0,0,1-.258-.733q0-.416.951-.931a24.137,24.137,0,0,0,3.961-2.753,4.882,4.882,0,0,0,.6-.575c-.093-.29-.192-.581-.3-.871a6.532,6.532,0,0,1-3.7,1.426q-1.23-.06-1.347-1.109c0-.224.06-.337.178-.337a2.236,2.236,0,0,0,.951.258,9.56,9.56,0,0,0,3.406-1.05c.079-.04.153-.073.218-.1q-.435-1.386-.871-2.892a.851.851,0,0,0-.535-.634c-.225-.052-.336-.105-.336-.158q.118-.338.395-.337a2.261,2.261,0,0,1,1.07.3c.463.172.693.449.693.832a11.18,11.18,0,0,0,.416,2.515A6.9,6.9,0,0,1,806.652,279.317Zm-1.644,1.466c.04.119.073.225.1.317a.864.864,0,0,0,.08.159q.118-.2.2-.357c-.027-.092-.107-.138-.239-.138A.646.646,0,0,0,805.008,280.783Zm2.852-4.06a7.219,7.219,0,0,1,.991.119,4.089,4.089,0,0,1,1.585.634,1.1,1.1,0,0,1,.5.752q-.021.575-.535.614a.972.972,0,0,1-.792-.455,5.7,5.7,0,0,0-1.565-1.427c-.119-.079-.179-.138-.179-.178Z" fill="#000000"/><path d="M806.117,303.625a2.583,2.583,0,0,0-.337.021q-.078,2.772-.257,6.338a16.7,16.7,0,0,1-.851,4.3c-.186.448-.37.673-.555.673s-.284-.225-.337-.673q-.178-.852-.2-10.3-.693.159-1.446.4a45.018,45.018,0,0,1-6.08,1.605c-.476,0-.713-.08-.713-.238,0-.079.125-.139.376-.178q4.911-1.842,7.863-2.754v-3.149a13,13,0,0,0-.416-2.535c0-.224.218-.337.653-.337a1.733,1.733,0,0,1,1.545.773,4.088,4.088,0,0,1,.5,2.1q0,1.13-.04,2.516a8.666,8.666,0,0,1,1.863-.317,3.246,3.246,0,0,1,1.921.654q.871.633.871,1.108c-.039.384-.5.588-1.367.615a6.283,6.283,0,0,1-1.644-.337A4.661,4.661,0,0,0,806.117,303.625Z" fill="#000000"/><path d="M800.868,317.2q.337,0,1.07.772a2.532,2.532,0,0,1,.673,1.6,2.745,2.745,0,0,1-.455,1.346,3.378,3.378,0,0,0,1.8-.475,3.245,3.245,0,0,1,1.743-.534,1.321,1.321,0,0,1,.753.178,1,1,0,0,1,.357.772.807.807,0,0,1-.575.733,6.442,6.442,0,0,1-1.09.3,2.522,2.522,0,0,1,.179.931v.654h.237q.873,0,.873.633,0,.576-1.129.892-.021,1.446-.06,3.228a20.043,20.043,0,0,1,3.05-.336,5.823,5.823,0,0,1,2.08.316.894.894,0,0,1,.555.793q0,.792-.615.792a8.971,8.971,0,0,1-1.287-.257,17.713,17.713,0,0,0-2.159-.119c-.6,0-1.148.013-1.664.039q-.019.912-.079,1.882a22.354,22.354,0,0,1-.416,3.546c-.093.369-.178.554-.257.554q-.3,0-.377-.554-.118-.536-.158-5.348-1.228.119-2.317.316a17.428,17.428,0,0,0-4.219,1.665,2.019,2.019,0,0,1-1.09.356,1.055,1.055,0,0,1-.713-.376q-.317-.338-.317-.5c0-.131.112-.2.337-.2a6.333,6.333,0,0,0,2.3-.555,16.67,16.67,0,0,1,2.555-.91,6.041,6.041,0,0,0,.238-.951,5.76,5.76,0,0,0,.1-1.05,2.353,2.353,0,0,0-.613-1.03c0-.053.052-.079.158-.079a2,2,0,0,1,1.129.416q.534.337.534.693a3.244,3.244,0,0,1-.475,1.486,1.543,1.543,0,0,1-.138.237,6.7,6.7,0,0,1,.653-.158q.99-.237,1.882-.416-.021-1.465-.02-3.209a11.1,11.1,0,0,1-1.525.159,1.834,1.834,0,0,1-.911-.258c-.265-.2-.4-.349-.416-.455s.139-.192.416-.218a8.241,8.241,0,0,0,1.9-.614,3.642,3.642,0,0,1,.535-.2v-.872a5.63,5.63,0,0,0-.1-.891,5.366,5.366,0,0,1-1.882-.4.862.862,0,0,1-.118-.079c-.107.131-.2.257-.3.376a8.421,8.421,0,0,1-3.545,2.594.139.139,0,0,1-.158-.158,16.938,16.938,0,0,0,2.4-3.288,5.746,5.746,0,0,0,.773-2.733,2.291,2.291,0,0,0-.179-.872C800.789,317.257,800.815,317.2,800.868,317.2Z" fill="#000000"/><path d="M799.76,343.8a1.342,1.342,0,0,1,.969.435,1.659,1.659,0,0,1,.476,1.228,2.328,2.328,0,0,1-.772,1.446,13.824,13.824,0,0,1-2.3,2.278,10.414,10.414,0,0,1-1.961,1.327,2.183,2.183,0,0,1-.911.258c-.225,0-.336-.026-.336-.08a11.841,11.841,0,0,0,2.515-2.376,12.832,12.832,0,0,0,1.7-2.516,2.623,2.623,0,0,0,.4-1.208,1.488,1.488,0,0,0-.079-.475C799.462,343.91,799.562,343.8,799.76,343.8Zm1.663-2.3a2.946,2.946,0,0,1,1.565.772,23.4,23.4,0,0,1,3.426,3.269,10.841,10.841,0,0,0,4.438,3.169,4.593,4.593,0,0,1,2.178,1.307,1.788,1.788,0,0,1,.515,1.05q-.039.416-.792.416a5.592,5.592,0,0,1-2.892-.713,18.748,18.748,0,0,1-3.922-4.061,57.1,57.1,0,0,0-4.576-5.13C801.363,341.533,801.384,341.506,801.423,341.506Z" fill="#000000"/><path d="M801.047,360.625q.08,0,.376.337a1.813,1.813,0,0,1,.733,1.169c-.013.369-.027.706-.04,1.01a1.32,1.32,0,0,1,.119-.139,3.585,3.585,0,0,1,2.04-.792.976.976,0,0,1,1.05,1.109q0,.357-1.148,1.684a5.977,5.977,0,0,0-1.011,1.406.657.657,0,0,0,.2.515,7.253,7.253,0,0,0,1.169.059c.58.027.871.29.871.792a1.141,1.141,0,0,1-.416.734,16.078,16.078,0,0,1-2.377,1.663.9.9,0,0,1-.455.139.141.141,0,0,1-.159-.159,8.464,8.464,0,0,1,1.308-1.188c.29-.237.435-.4.435-.476,0-.144-.105-.23-.316-.257q-1.269-.078-1.565-.475a.739.739,0,0,1-.159-.357,20.912,20.912,0,0,1-.811,3.724,7.163,7.163,0,0,1-2.2,3.525,2.213,2.213,0,0,1-.97.4c-.118,0-.178-.026-.178-.079a12.267,12.267,0,0,0,2.416-4.655,46.332,46.332,0,0,0,1.011-9.349C800.968,360.737,800.994,360.625,801.047,360.625Zm.832,5.428a6.809,6.809,0,0,1,.713-.773q1.147-1.071,1.148-1.327,0-.376-.336-.377a4.05,4.05,0,0,0-1.347.4Q801.978,365.082,801.879,366.053Zm5.348-7.329q.376,0,1.009,1.049a2.845,2.845,0,0,1,.576,1.268,5.44,5.44,0,0,1-.278.693,9.507,9.507,0,0,0-.317,1.724q-.118,1.623-.119,4.278v5.982a3.231,3.231,0,0,1-.475,1.822,1,1,0,0,1-.812.555,1.854,1.854,0,0,1-1.387-.753,19.971,19.971,0,0,0-2.892-2.416c0-.053.06-.08.179-.08a14.863,14.863,0,0,0,2.99.872q.436,0,.437-.674,0-7.706.118-9.052a10.182,10.182,0,0,0,.179-1.366,3.186,3.186,0,0,0-.318-1.565,1.111,1.111,0,0,0-.971-.733,7.109,7.109,0,0,0-1.544.277,6.7,6.7,0,0,1-1.149.278c-.251,0-.376-.06-.376-.179,0-.079.171-.25.515-.515a6.07,6.07,0,0,1,1.743-.93A7.934,7.934,0,0,1,807.227,358.724Z" fill="#000000"/><path d="M806.435,404.131q.93,0,.93.872-.02.516-1.169,1.6a.624.624,0,0,1,.079.317c0,.224-.191.4-.574.535-.395.105-.785.2-1.168.3v.871a15.843,15.843,0,0,1,4.575-.831,5.622,5.622,0,0,1,2.1.3.972.972,0,0,1,.673.871q0,.613-1.8,2.08a5.826,5.826,0,0,1-2.14,1.327,1.2,1.2,0,0,1-.95-.654c-.224-.238-.337-.408-.337-.515,0-.065.092-.119.278-.158a4.369,4.369,0,0,0,2.1-.693q.871-.574.871-1.07a.374.374,0,0,0-.237-.377,2.767,2.767,0,0,0-1.011-.158,14.408,14.408,0,0,0-4.08.653l-.039.021v5.565a4.455,4.455,0,0,1-.3,1.863q-.237.534-.574.534-.435,0-1.287-1.743v-.079a.474.474,0,0,0,.337.217q.613,0,.613-.95V411.44a31.659,31.659,0,0,1-2.4,2.832,3.355,3.355,0,0,1-2.179,1.129c-.211,0-.316-.059-.316-.178a10.241,10.241,0,0,0,2.2-2.04,22.152,22.152,0,0,0,2.475-3.288,15.228,15.228,0,0,0-3.307,1.7,2.806,2.806,0,0,1-1.287.713q-.495,0-.495-.575a1.4,1.4,0,0,1,.356-.633,5,5,0,0,0,1.307-2.774c0-.171.27-.27.812-.3.4.014.608.165.634.455a4.576,4.576,0,0,1-1.01,1.8q1.724-.753,3.208-1.287v-1.011l-.218.04a9.88,9.88,0,0,1-1.366.139c-.356,0-.535-.1-.535-.3q0-.158.4-.317.99-.337,1.7-.555a1.187,1.187,0,0,0-.258-.792.286.286,0,0,1-.178-.2,6.6,6.6,0,0,1-1.367.2c-.409-.026-.647-.139-.713-.337,0-.105.179-.2.535-.277A20.515,20.515,0,0,1,806.435,404.131Zm-5.567-4.654a3.774,3.774,0,0,0,.535.4,1.089,1.089,0,0,1,.594.931,2.112,2.112,0,0,1-.336.95.789.789,0,0,1,.713.634l.95-.792v.079q-.553,1.129-1.029,2.12-.318.831-.872.831c-.3,0-.455-.244-.455-.732l.693-1.169a9.39,9.39,0,0,1-2.991,1.169q-.574,0-.574-.476c0-.132.158-.316.475-.555q2.118-2.157,2.119-3.129C800.69,399.562,800.75,399.477,800.868,399.477Zm2.714,6.337a1.1,1.1,0,0,1,.6.318,1.241,1.241,0,0,1,.277.5c.145-.04.27-.072.376-.1l1.03-1.267c0-.052-.053-.079-.159-.079Q804.474,405.577,803.582,405.814Zm2.357-7.368a1.6,1.6,0,0,1,.872.377.846.846,0,0,1,.416.733,4.123,4.123,0,0,1-.832,1.506,7.214,7.214,0,0,1,1.762-.337q.813,0,.813.5a1.412,1.412,0,0,1-1.129,1.248q-1.19.575-2.932,1.426v-.06q.93-.833,1.644-1.525h-1.07q-1.029,0-1.029-.792a2.058,2.058,0,0,1,.653-1.328A3.151,3.151,0,0,0,805.939,398.446Z" fill="#000000"/><path d="M804.117,428.578a14.38,14.38,0,0,0-2.991.277,10.205,10.205,0,0,0-2.119.594,3.009,3.009,0,0,1-1.367.318,3.394,3.394,0,0,1-1.407-.239c-.449-.184-.672-.422-.672-.713,0-.144.052-.217.158-.217a12.07,12.07,0,0,0,3.07-.455,20.965,20.965,0,0,1,4.674-.714q3.764-.316,4.536-.436a6.751,6.751,0,0,1,1.03-.079,3.966,3.966,0,0,1,2.179.634,2.117,2.117,0,0,1,1.148,1.683.7.7,0,0,1-.792.792,2.494,2.494,0,0,1-1.128-.435,12,12,0,0,0-2.556-.673A20.842,20.842,0,0,0,804.117,428.578Z" fill="#000000"/><path d="M795.561,443.933c.091,0,.263.125.514.376a3.27,3.27,0,0,1,.852,1.267,6.059,6.059,0,0,1,.138.872q.456-.217.873-.436a6.45,6.45,0,0,0,1.524-3.981q0-.416.377-.416a2.006,2.006,0,0,1,1.148.3,1.208,1.208,0,0,1,.436.99,2.9,2.9,0,0,1-.376,1.189,4.836,4.836,0,0,1-.911,1.03.49.49,0,0,1,.119-.02q1.029,0,1.029.793,0,.513-.911,1.465a20.648,20.648,0,0,1-1.763,1.723c.2-.105.423-.218.674-.337a1.139,1.139,0,0,1,.555-.237,1.163,1.163,0,0,1,.713.337.8.8,0,0,1,.416.613v5.626a1.057,1.057,0,0,1-.218.673.542.542,0,0,1-.416.2.583.583,0,0,1-.416-.258.757.757,0,0,1-.158-.455q-.139-3.584-.139-4.357c0-.423-.054-.634-.159-.634a9.273,9.273,0,0,0-1.822.515,3.009,3.009,0,0,1-.535.178,31.836,31.836,0,0,1-.376,3.784,5.368,5.368,0,0,1-.515,1.643.8.8,0,0,1-.574.376q-.376,0-.377-.792a2.422,2.422,0,0,1,.138-.95,6.242,6.242,0,0,0,.516-1.942,32.142,32.142,0,0,0,.218-3.981,26.565,26.565,0,0,0-.1-3.03,6.815,6.815,0,0,0-.5-1.426,2,2,0,0,1-.118-.614C795.422,443.959,795.468,443.933,795.561,443.933Zm1.584,5.7a8.953,8.953,0,0,0,1.109-1.466,4.73,4.73,0,0,0,.5-.832c0-.106-.026-.158-.079-.158a1.13,1.13,0,0,1-.653.3,3.391,3.391,0,0,1-.892-.1q.02.732.02,1.624Zm10-6.735c.422,0,.634.126.634.376q0,.931-1.466,1.407c-.422.106-.786.192-1.088.257q-.139.6-.456,1.763l.119-.119a2.909,2.909,0,0,1,1.762-.99q1.446,0,1.5,1.743a10.542,10.542,0,0,1-.93,4.18,13.688,13.688,0,0,0,3.05,1.822,15.511,15.511,0,0,1,2.595,1.05q.672.336.673.693,0,.654-1.248.653a5.661,5.661,0,0,1-2.476-.514,6.778,6.778,0,0,1-2.812-2.021c-.158-.158-.3-.317-.436-.475q-1.248,2.06-2.456,2.059a2.541,2.541,0,0,1-1.149-.2q-.058.257-.1.5a.674.674,0,0,1-.713.5q-.475-.06-.5-.713,1.941-6.456,2.832-9.785a4.893,4.893,0,0,1-.832.1,1.244,1.244,0,0,1-.653-.178c-.186-.119-.284-.211-.3-.277,0-.172.139-.285.416-.337a7.325,7.325,0,0,0,1.861-.871A3.652,3.652,0,0,1,807.147,442.9Zm-4.1,11.329a6.859,6.859,0,0,0,2.476-2.614q-.852-.891-1.585-1.564Q803.522,451.953,803.047,454.231Zm1.109-5.109q1.031.833,1.843,1.485a8.455,8.455,0,0,0,.732-3.209q0-.554-.237-.554-.258,0-1.011.713a2.064,2.064,0,0,1-.792.5.713.713,0,0,1-.257-.039Q804.275,448.547,804.156,449.122Z" fill="#000000"/><path d="M806.435,475.931q.93,0,.93.872-.02.514-1.169,1.6a.622.622,0,0,1,.079.317c0,.224-.191.4-.574.535-.395.1-.785.2-1.168.3v.871a15.843,15.843,0,0,1,4.575-.831,5.6,5.6,0,0,1,2.1.3.972.972,0,0,1,.673.871q0,.613-1.8,2.08a5.841,5.841,0,0,1-2.14,1.327,1.2,1.2,0,0,1-.95-.654c-.224-.238-.337-.409-.337-.515,0-.065.092-.119.278-.158a4.36,4.36,0,0,0,2.1-.694q.871-.573.871-1.069a.373.373,0,0,0-.237-.377,2.767,2.767,0,0,0-1.011-.158,14.408,14.408,0,0,0-4.08.653l-.039.021v5.565a4.45,4.45,0,0,1-.3,1.862q-.237.536-.574.535-.435,0-1.287-1.744v-.079a.473.473,0,0,0,.337.218q.613,0,.613-.95V483.24a31.659,31.659,0,0,1-2.4,2.832,3.355,3.355,0,0,1-2.179,1.129c-.211,0-.316-.059-.316-.179a10.189,10.189,0,0,0,2.2-2.04,22.048,22.048,0,0,0,2.475-3.288,15.317,15.317,0,0,0-3.307,1.7,2.8,2.8,0,0,1-1.287.713q-.495,0-.495-.574a1.409,1.409,0,0,1,.356-.634,4.991,4.991,0,0,0,1.307-2.773c0-.171.27-.271.812-.3.4.014.608.165.634.455a4.576,4.576,0,0,1-1.01,1.8q1.724-.753,3.208-1.287v-1.011l-.218.04a9.88,9.88,0,0,1-1.366.139c-.356,0-.535-.1-.535-.3,0-.106.132-.211.4-.318q.99-.336,1.7-.554a1.187,1.187,0,0,0-.258-.792.285.285,0,0,1-.178-.2,6.61,6.61,0,0,1-1.367.2q-.613-.041-.713-.337c0-.106.179-.2.535-.278A20.543,20.543,0,0,1,806.435,475.931Zm-5.567-4.655a3.713,3.713,0,0,0,.535.4,1.088,1.088,0,0,1,.594.931,2.112,2.112,0,0,1-.336.95.787.787,0,0,1,.713.634l.95-.792v.079q-.553,1.13-1.029,2.12c-.212.553-.5.831-.872.831-.3,0-.455-.244-.455-.733l.693-1.169a9.364,9.364,0,0,1-2.991,1.169q-.574,0-.574-.475,0-.2.475-.555,2.118-2.157,2.119-3.129C800.69,471.362,800.75,471.276,800.868,471.276Zm2.714,6.338a1.1,1.1,0,0,1,.6.318,1.241,1.241,0,0,1,.277.5c.145-.04.27-.073.376-.1l1.03-1.267c0-.052-.053-.08-.159-.08Q804.474,477.378,803.582,477.614Zm2.357-7.368a1.6,1.6,0,0,1,.872.377.845.845,0,0,1,.416.732,4.108,4.108,0,0,1-.832,1.506,7.263,7.263,0,0,1,1.762-.337q.813,0,.813.5a1.412,1.412,0,0,1-1.129,1.248q-1.19.573-2.932,1.425v-.059q.93-.832,1.644-1.526h-1.07q-1.029,0-1.029-.792a2.058,2.058,0,0,1,.653-1.327A3.151,3.151,0,0,0,805.939,470.246Z" fill="#000000"/><path d="M804.117,500.377a14.38,14.38,0,0,0-2.991.277,10.144,10.144,0,0,0-2.119.594,3.009,3.009,0,0,1-1.367.317,3.412,3.412,0,0,1-1.407-.238c-.449-.184-.672-.422-.672-.713,0-.144.052-.218.158-.218a12.026,12.026,0,0,0,3.07-.455,21.031,21.031,0,0,1,4.674-.713q3.764-.317,4.536-.436a6.751,6.751,0,0,1,1.03-.079,3.966,3.966,0,0,1,2.179.634,2.117,2.117,0,0,1,1.148,1.683.7.7,0,0,1-.792.792,2.494,2.494,0,0,1-1.128-.435,11.936,11.936,0,0,0-2.556-.673A20.842,20.842,0,0,0,804.117,500.377Z" fill="#000000"/><path d="M803.087,513.038a2.075,2.075,0,0,1,1.406.516,1.546,1.546,0,0,1,.574,1.069q0,.792-.416.931a5.818,5.818,0,0,0-1.366,1.287.431.431,0,0,1,.119.317q0,.6-1.03.911c-.106.027-.205.053-.3.079a1.221,1.221,0,0,1,.357.792,1.966,1.966,0,0,1,.593-.217q2.12,0,2.219,1.842a10.743,10.743,0,0,1-.258,2.179,5.4,5.4,0,0,1-.713,1.742q-.3.516-.614.516a.79.79,0,0,1-.792-.733,2.3,2.3,0,0,1,.218-.654,7.555,7.555,0,0,0,.5-3.05q-.039-.416-.634-.416a2.369,2.369,0,0,0-.5.119c.013.633.026,1.215.04,1.743q.019,1.327.039,5.605c-.053.568-.316.878-.792.931q-.516-.1-.535-1.089c0-.317.007-.607.02-.872q0-.553.02-3.248.019-1.446.039-2.614a1.863,1.863,0,0,1-.5.158q-.832,0-.95-.4c.039-.105.151-.177.337-.217a5.718,5.718,0,0,0,.831-.515,2.553,2.553,0,0,0,.277-.2v-.5a.948.948,0,0,0-.3-.694,4.134,4.134,0,0,1-.5.04.845.845,0,0,1-.2-.02,8.126,8.126,0,0,1-.534,1.347,14.877,14.877,0,0,1-.932,1.763.609.609,0,0,1,.119.039,1.577,1.577,0,0,1,.733,1.05,6.756,6.756,0,0,1,.317,1.684q0,1.287-.376,1.288c-.185,0-.356-.146-.516-.436a9.022,9.022,0,0,1-.416-2.02,2.268,2.268,0,0,0-.335-.852q-.359.553-.734,1.069a6.2,6.2,0,0,1-2,1.941,1.93,1.93,0,0,1-.852.3c-.106,0-.159-.034-.159-.1a17.9,17.9,0,0,0,2.14-2.614,14.527,14.527,0,0,0,1.624-3.407,8.714,8.714,0,0,0,.515-2.694,3.156,3.156,0,0,0-.139-.93c0-.159.046-.239.139-.239a1.455,1.455,0,0,1,.99.516,2.056,2.056,0,0,1,.516,1.327,6.208,6.208,0,0,0,.712-.356,2.089,2.089,0,0,1,.753-.3L803.087,515a.193.193,0,0,0-.218-.218,16.517,16.517,0,0,0-3.348.6,2.715,2.715,0,0,1-.475.118c-.237,0-.363-.059-.376-.178s.139-.277.416-.475a5.859,5.859,0,0,1,1.585-1.01A6.944,6.944,0,0,1,803.087,513.038Zm3.981,3.625q.159,0,.535,1.129a9.4,9.4,0,0,1,.5,2.853,2.084,2.084,0,0,1-.317,1.267.685.685,0,0,1-.554.317q-.693-.06-.733-.971a10.2,10.2,0,0,1,.218-1.881,18.028,18.028,0,0,0,.257-2.317C806.982,516.795,807.016,516.663,807.068,516.663Zm4.12-3.962a.937.937,0,0,1,.654.258,1.539,1.539,0,0,1,.455,1.109,5.328,5.328,0,0,1-.178,1.129q-.159.972-.238,2.159-.159,3.288-.158,5.17,0,1.368.257,5.566-.039,1.545-.416,1.564-.495,0-1.089-.772a2.65,2.65,0,0,1-.575-1.208c0-.146.027-.218.079-.218a1.23,1.23,0,0,0,.5.158c.052,0,.079-.151.079-.455q0-8.1.04-10.062.1-1.981.1-3.447l-.138-.772C810.554,512.774,810.766,512.715,811.188,512.7Z" fill="#000000"/></g><g id="_本ソフトウエアはフリーソフトウエアではありません_いわゆる海賊行為_二次配布_コピー_ネットワークヘの転載などの行為を禁じます" data-name="※本ソフトウエアはフリーソフトウエアではありません 　いわゆる海賊行為・二次配布・コピー・ネットワークヘの転載などの行為を禁じます"><path d="M783.484,256.252l-3.705,3.7,3.705,3.7-.27.27-3.705-3.705-3.7,3.705-.271-.27,3.705-3.7-3.705-3.7.271-.27,3.7,3.705,3.705-3.705Zm-6.174,3.7a.789.789,0,0,1-.232.579.841.841,0,0,1-1.235,0,.839.839,0,0,1,0-1.158.841.841,0,0,1,1.235,0A.786.786,0,0,1,777.31,259.957Zm2.2-2.2a.847.847,0,0,1-.617-.27.839.839,0,0,1,0-1.158.841.841,0,0,1,1.235,0,.841.841,0,0,1,0,1.158A.854.854,0,0,1,779.509,257.757Zm.618,5.827a.841.841,0,0,1-1.235,0,.837.837,0,0,1,0-1.157.841.841,0,0,1,1.235,0,.84.84,0,0,1,0,1.157Zm3.049-3.048a.842.842,0,0,1-1.236,0,.841.841,0,0,1,0-1.158.842.842,0,0,1,1.236,0,.841.841,0,0,1,0,1.158Z" fill="#000000"/><path d="M779.162,271.735h-1.814V271.5h1.814v-3.087a11.625,11.625,0,0,1-4.091,4.245c-.154.026-.193-.025-.116-.155a12.335,12.335,0,0,0,3.9-4.785h-3.59v-.231h3.9v-2.084l.655.115c.206.129.156.219-.154.271v1.7h2.857l.578-.579.733.54q.231.193,0,.27h-3.975a8.327,8.327,0,0,0,4.323,4.13,1.124,1.124,0,0,0-.695.5,8.753,8.753,0,0,1-3.821-4.554v3.7h.85l.5-.5.617.463q.231.195,0,.271h-1.969V273.9c-.334.309-.5.321-.5.039Z" fill="#000000"/><path d="M782.52,276.3c.334.258.5.463.5.618,0,.077-.065.115-.193.115s-.231.091-.308.271a9.37,9.37,0,0,1-5.867,5.75c-.154-.026-.168-.09-.039-.193a9.2,9.2,0,0,0,5.4-6.021.417.417,0,0,0,0-.424.633.633,0,0,0-.386-.27c-.1-.051-.1-.1,0-.155A1.3,1.3,0,0,1,782.52,276.3Zm-4.4,1.042a1.947,1.947,0,0,1,.54.965c0,.309-.091.463-.27.463q-.232,0-.386-.54a3,3,0,0,0-1.119-1.5c-.077-.052-.052-.09.077-.116A2.733,2.733,0,0,1,778.12,277.341Z" fill="#000000"/><path d="M777.966,287.186a2.042,2.042,0,0,0-.927.27.15.15,0,0,1-.154.115c-.077,0-.245-.115-.5-.347a.929.929,0,0,1-.347-.579c0-.128.051-.141.154-.039a.692.692,0,0,0,.657.27q.654,0,4.862-.462a.6.6,0,0,0,.463-.309,6.847,6.847,0,0,1,.771.54c.129.1.194.193.194.27,0,.1-.091.155-.271.155s-.3.052-.346.154a9.3,9.3,0,0,1-5.829,5.442c-.129,0-.154-.052-.077-.155a9.267,9.267,0,0,0,5.4-5.6q.115-.27-.155-.231Q781.053,286.761,777.966,287.186Z" fill="#000000"/><path d="M780.513,298.376a4.372,4.372,0,0,1,1.466.7q.579.463.579.772c0,.232-.09.347-.27.347-.1,0-.245-.115-.425-.347a4.932,4.932,0,0,0-2.586-1.544v4.284q0,.424-.192.424c-.154,0-.284-.115-.387-.347a1.163,1.163,0,0,1,.039-.772q.115-1.311.077-5.9a1.152,1.152,0,0,0-.116-.579.765.765,0,0,0-.54-.193c-.1-.051-.1-.1,0-.154a1.47,1.47,0,0,1,.734.038,2.694,2.694,0,0,1,.54.27c.154.1.231.207.231.309,0,.077-.052.129-.154.155a.182.182,0,0,0-.155.192,14.38,14.38,0,0,0-.077,2.123A8.331,8.331,0,0,1,780.513,298.376Z" fill="#000000"/><path d="M777.541,313.085c-.181.025-.219-.026-.116-.154a9.37,9.37,0,0,0,4.631-5.9c.078-.154.051-.244-.077-.27q-2.277.116-4.515.347v2.277c.051.438.013.656-.116.656a.333.333,0,0,1-.27-.154q-.231-.155-.116-.734v-1.814a1.634,1.634,0,0,0-.077-.578.367.367,0,0,0-.232-.193c-.231-.077-.193-.141.117-.193a.917.917,0,0,1,.694.347q1-.077,1.968-.154v-1.119a.717.717,0,0,0-.078-.386.556.556,0,0,0-.385-.193q-.309-.039-.077-.193a1.745,1.745,0,0,1,1.235.231.227.227,0,0,1,.115.193c0,.052-.064.091-.192.116-.1.052-.155.206-.155.463v.849q1.08-.037,2.084-.077a1.421,1.421,0,0,0,.347-.27q.348.309.579.54c.128.1.193.193.193.27q0,.078-.27.039c-.077,0-.141.052-.193.154A9.065,9.065,0,0,1,777.541,313.085Z" fill="#000000"/><path d="M779.2,317q.309.154.579.308c.18.1.271.193.271.271,0,.1-.077.167-.233.192q-.037,1.158-.077,2.277,1.969-.037,2.394-.038a1.062,1.062,0,0,0,.578-.232,1.849,1.849,0,0,1,.579.309c.206.154.309.284.309.386s-.09.129-.27.077a5.609,5.609,0,0,0-1.274-.154,20.4,20.4,0,0,0-5.248.309,1.163,1.163,0,0,0-.463.115.3.3,0,0,1-.271.116c-.077,0-.219-.09-.424-.27a1.446,1.446,0,0,1-.424-.579c0-.18.05-.206.154-.077a.939.939,0,0,0,.694.27,26.926,26.926,0,0,0,3.242-.193V318a1.72,1.72,0,0,0-.077-.54,1.069,1.069,0,0,0-.464-.425,12.041,12.041,0,0,0-1.7.27.651.651,0,0,1-.308.116c-.053,0-.181-.09-.387-.27a.834.834,0,0,1-.347-.579c.026-.128.064-.154.115-.077a.82.82,0,0,0,.734.347h.771q1.7-.153,3.667-.27.308-.115.5-.193a1.836,1.836,0,0,1,.541.309c.128.1.193.193.193.27s-.078.1-.232.077A13.277,13.277,0,0,0,779.2,317Z" fill="#000000"/><path d="M782.982,325.188q.348.348.348.463c0,.078-.064.116-.193.116a1.713,1.713,0,0,1-.309-.038q-.849.54-3.088,1.813a5.793,5.793,0,0,1-3.049,4.477c-.179.051-.244.013-.192-.116a5.579,5.579,0,0,0,2.624-4.283c.077-.541-.038-.849-.348-.927-.179-.051-.206-.1-.077-.154a1.291,1.291,0,0,1,.927.27.386.386,0,0,1,.154.386,13.531,13.531,0,0,0,2.509-1.852,35.4,35.4,0,0,0-4.014.386,6.467,6.467,0,0,0-1.5.347.523.523,0,0,1-.31.116q-.115,0-.463-.309a.934.934,0,0,1-.386-.617c0-.155.064-.193.194-.116q.231.385,1,.347a17.272,17.272,0,0,0,1.736-.154,32,32,0,0,1,3.551-.232,2.743,2.743,0,0,0,.5-.309Z" fill="#000000"/><path d="M777.039,335.663a1.315,1.315,0,0,0-.192.424,11.167,11.167,0,0,0-.773,3.4,2.066,2.066,0,0,0,.077.772c.052.078.1.065.155-.038q.425-1.08.887-2.007c.129-.025.167.013.117.116a12.246,12.246,0,0,0-.619,1.775,3.218,3.218,0,0,0-.115.733c0,.284.013.566.038.849q.039.385-.269.386-.194,0-.309-.347a7.112,7.112,0,0,1-.27-2.393,13.106,13.106,0,0,1,.54-3.319,2.263,2.263,0,0,0,.077-.617.626.626,0,0,0-.463-.579c-.129-.051-.129-.09,0-.116a1.022,1.022,0,0,1,.579.155,5.446,5.446,0,0,1,.54.5A.193.193,0,0,1,777.039,335.663Zm4.785,4.9a1.265,1.265,0,0,1-.54.888,1.788,1.788,0,0,1-1.042.27,1.69,1.69,0,0,1-1.234-.386.848.848,0,0,1-.271-.618.641.641,0,0,1,.309-.5,2.108,2.108,0,0,1,1.2-.271,5.193,5.193,0,0,1,1.158.116q0-2.16-.077-3.319a16.565,16.565,0,0,1-2.315.194.864.864,0,0,1-.579-.194,1.676,1.676,0,0,1-.54-.733c-.027-.128.012-.154.115-.077a1.227,1.227,0,0,0,1.042.656,17.722,17.722,0,0,0,2.238-.193c-.025-.643-.052-1.081-.077-1.312-.025-.283-.27-.437-.733-.463q-.348,0-.038-.155a1.213,1.213,0,0,1,.617-.077,1.6,1.6,0,0,1,.733.27q.155.117-.039.309a.608.608,0,0,0-.077.386c0,.284.013.605.039.965a6.327,6.327,0,0,0,1.273-.232.351.351,0,0,1,.386,0,1.581,1.581,0,0,1,.271.193c.077.1.038.168-.117.193q-.926.155-1.775.232.115,1.815.116,3.435.849.309,1.659.617a.347.347,0,0,1,.232.231.6.6,0,0,1,.039.348c-.052.154-.154.18-.309.077A9.186,9.186,0,0,0,781.824,340.564Zm-1.659-.347a1.491,1.491,0,0,0-1.042.27.369.369,0,0,0-.115.27.472.472,0,0,0,.115.347,1.355,1.355,0,0,0,1,.348,1.2,1.2,0,0,0,.849-.232,1.235,1.235,0,0,0,.385-.772A3.2,3.2,0,0,0,780.165,340.217Z" fill="#000000"/><path d="M777.966,345.811a2.042,2.042,0,0,0-.927.27.15.15,0,0,1-.154.115c-.077,0-.245-.115-.5-.347a.929.929,0,0,1-.347-.579c0-.128.051-.141.154-.039a.692.692,0,0,0,.657.27q.654,0,4.862-.462a.6.6,0,0,0,.463-.309,6.847,6.847,0,0,1,.771.54c.129.1.194.193.194.27,0,.1-.091.155-.271.155s-.3.052-.346.154a9.3,9.3,0,0,1-5.829,5.442c-.129,0-.154-.052-.077-.155a9.267,9.267,0,0,0,5.4-5.6q.115-.27-.155-.231Q781.053,345.386,777.966,345.811Z" fill="#000000"/><path d="M777.232,361.7c-.154-.052-.168-.129-.039-.231q3.512-1.389,3.474-4.283v-2.7a.989.989,0,0,0-.154-.463.707.707,0,0,0-.5-.192c-.052-.052-.038-.09.039-.117a2.022,2.022,0,0,1,1.119.155q.346.153.347.27c0,.129-.116.257-.347.386v2.664Q781.207,360.426,777.232,361.7Zm.463-7.332a.778.778,0,0,0-.463-.194c-.1-.05-.1-.1,0-.154a1.9,1.9,0,0,1,1.042.193c.205.078.309.167.309.27a.15.15,0,0,1-.116.154c-.077.027-.115.143-.115.348v2.972c.025.412-.052.617-.232.617-.077,0-.154-.063-.231-.192-.1-.154-.143-.271-.117-.348.026-.179.051-.4.078-.656v-2.585A.574.574,0,0,0,777.7,354.366Z" fill="#000000"/><path d="M779.7,369.756c.051.463.077.8.077,1a.723.723,0,0,1-.154.464.312.312,0,0,1-.231.154c-.1,0-.155-.091-.155-.271V364.2a.754.754,0,0,0-.154-.54.908.908,0,0,0-.387-.192c-.1-.052-.1-.1,0-.155a1.408,1.408,0,0,1,1.081.386c.18.18.205.309.077.386a.444.444,0,0,0-.154.309Z" fill="#000000"/><path d="M782.52,374.008c.334.258.5.463.5.617,0,.077-.065.116-.193.116s-.231.09-.308.27a9.37,9.37,0,0,1-5.867,5.751c-.154-.027-.168-.09-.039-.194a9.2,9.2,0,0,0,5.4-6.02.419.419,0,0,0,0-.425.628.628,0,0,0-.386-.269c-.1-.052-.1-.1,0-.155A1.3,1.3,0,0,1,782.52,374.008Zm-4.4,1.042a1.943,1.943,0,0,1,.54.965c0,.308-.091.463-.27.463q-.232,0-.386-.54a3,3,0,0,0-1.119-1.5c-.077-.052-.052-.09.077-.117A2.724,2.724,0,0,1,778.12,375.05Z" fill="#000000"/><path d="M777.966,384.894a2.055,2.055,0,0,0-.927.27.151.151,0,0,1-.154.116c-.077,0-.245-.116-.5-.347a.932.932,0,0,1-.347-.579c0-.128.051-.141.154-.039a.7.7,0,0,0,.657.27q.654,0,4.862-.463a.593.593,0,0,0,.463-.309,6.991,6.991,0,0,1,.771.541c.129.1.194.193.194.27,0,.1-.091.154-.271.154s-.3.052-.346.155a9.3,9.3,0,0,1-5.829,5.441c-.129,0-.154-.052-.077-.154a9.269,9.269,0,0,0,5.4-5.6q.115-.27-.155-.231Q781.053,384.47,777.966,384.894Z" fill="#000000"/><path d="M780.513,396.085a4.372,4.372,0,0,1,1.466.694q.579.465.579.773,0,.346-.27.346-.155,0-.425-.346a4.926,4.926,0,0,0-2.586-1.544v4.284c0,.282-.064.424-.192.424-.154,0-.284-.115-.387-.347a1.163,1.163,0,0,1,.039-.772q.115-1.311.077-5.9a1.154,1.154,0,0,0-.116-.579.765.765,0,0,0-.54-.192c-.1-.052-.1-.1,0-.154a1.47,1.47,0,0,1,.734.038,2.694,2.694,0,0,1,.54.27q.231.155.231.309c0,.077-.052.129-.154.154a.182.182,0,0,0-.155.192,14.389,14.389,0,0,0-.077,2.124A8.2,8.2,0,0,1,780.513,396.085Z" fill="#000000"/><path d="M777.541,410.794c-.181.025-.219-.026-.116-.154a9.37,9.37,0,0,0,4.631-5.9c.078-.155.051-.245-.077-.27q-2.277.115-4.515.347v2.277c.051.437.013.656-.116.656a.335.335,0,0,1-.27-.154q-.231-.154-.116-.734v-1.813a1.636,1.636,0,0,0-.077-.579.368.368,0,0,0-.232-.194c-.231-.077-.193-.14.117-.192a.914.914,0,0,1,.694.347q1-.076,1.968-.155v-1.119a.715.715,0,0,0-.078-.385.556.556,0,0,0-.385-.193c-.206-.025-.232-.09-.077-.193a1.745,1.745,0,0,1,1.235.231.229.229,0,0,1,.115.194c0,.051-.064.09-.192.115-.1.052-.155.206-.155.463v.849q1.08-.037,2.084-.077a1.447,1.447,0,0,0,.347-.27c.232.206.425.385.579.54.128.1.193.193.193.27q0,.078-.27.039c-.077,0-.141.052-.193.155A9.068,9.068,0,0,1,777.541,410.794Z" fill="#000000"/><path d="M779.2,414.708c.206.1.4.206.579.309s.271.193.271.27c0,.1-.077.168-.233.192q-.037,1.16-.077,2.278,1.969-.039,2.394-.038a1.056,1.056,0,0,0,.578-.233,1.854,1.854,0,0,1,.579.31q.309.231.309.386c0,.1-.09.129-.27.077a5.556,5.556,0,0,0-1.274-.155,20.446,20.446,0,0,0-5.248.309,1.18,1.18,0,0,0-.463.115.3.3,0,0,1-.271.117c-.077,0-.219-.09-.424-.271a1.443,1.443,0,0,1-.424-.578c0-.18.05-.206.154-.077a.942.942,0,0,0,.694.269,26.651,26.651,0,0,0,3.242-.192v-2.084a1.726,1.726,0,0,0-.077-.541,1.074,1.074,0,0,0-.464-.424,12.041,12.041,0,0,0-1.7.27.663.663,0,0,1-.308.116c-.053,0-.181-.09-.387-.271a.831.831,0,0,1-.347-.579c.026-.128.064-.154.115-.077a.819.819,0,0,0,.734.348h.771q1.7-.154,3.667-.271c.205-.077.372-.14.5-.192a1.856,1.856,0,0,1,.541.308c.128.1.193.194.193.271s-.078.1-.232.077A13.21,13.21,0,0,0,779.2,414.708Z" fill="#000000"/><path d="M782.982,422.9q.348.348.348.463c0,.078-.064.117-.193.117a1.642,1.642,0,0,1-.309-.039q-.849.54-3.088,1.813a5.8,5.8,0,0,1-3.049,4.478c-.179.05-.244.012-.192-.117a5.581,5.581,0,0,0,2.624-4.284c.077-.54-.038-.849-.348-.926-.179-.05-.206-.1-.077-.154a1.282,1.282,0,0,1,.927.271.383.383,0,0,1,.154.385,13.576,13.576,0,0,0,2.509-1.852,35.4,35.4,0,0,0-4.014.386,6.467,6.467,0,0,0-1.5.347.521.521,0,0,1-.31.115c-.077,0-.231-.1-.463-.308a.934.934,0,0,1-.386-.617c0-.155.064-.194.194-.117q.231.387,1,.348a17.272,17.272,0,0,0,1.736-.154,32,32,0,0,1,3.551-.232,2.859,2.859,0,0,0,.5-.308Z" fill="#000000"/><path d="M782.4,432.417a.374.374,0,0,1,.5,0c.283.206.438.322.463.347.129.13.1.219-.077.27a4.517,4.517,0,0,0-3.435.965,2.893,2.893,0,0,0-1,2.007,2.619,2.619,0,0,0,.771,1.93,2.694,2.694,0,0,0,1.853.848.617.617,0,0,1,.5.154.6.6,0,0,1,.155.348c0,.129-.1.193-.31.193a3.284,3.284,0,0,1-2.084-.81,3.113,3.113,0,0,1-1.2-2.547,3.4,3.4,0,0,1,1.506-2.663c.128-.1.128-.154,0-.154q-1.2.231-2.278.463a3.258,3.258,0,0,0-.925.308.812.812,0,0,1-.464.116A.889.889,0,0,1,776,434a.987.987,0,0,1-.463-.656c.051-.18.1-.193.154-.038q.193.346.811.308a5.866,5.866,0,0,0,1.042-.154q2.005-.346,4.014-.733A1.956,1.956,0,0,0,782.4,432.417Zm.309,3.28q-.231.078-.347-.193a2.49,2.49,0,0,0-1-1.08c-.051-.077-.038-.1.039-.077a2.613,2.613,0,0,1,1.158.5.939.939,0,0,1,.308.464C782.918,435.518,782.866,435.646,782.712,435.7Zm-.347-1.891c-.052-.077-.039-.1.038-.077a2.628,2.628,0,0,1,1.159.5.936.936,0,0,1,.308.463c.051.207,0,.335-.154.387s-.271-.013-.348-.193A2.494,2.494,0,0,0,782.365,433.806Z" fill="#000000"/><path d="M777.039,443.144a1.294,1.294,0,0,0-.192.423,11.172,11.172,0,0,0-.773,3.4,2.063,2.063,0,0,0,.077.771c.052.077.1.065.155-.038q.425-1.078.887-2.007c.129-.025.167.013.117.116a12.288,12.288,0,0,0-.619,1.775,3.226,3.226,0,0,0-.115.733q0,.426.038.85.039.385-.269.386-.194,0-.309-.348a7.105,7.105,0,0,1-.27-2.392,13.114,13.114,0,0,1,.54-3.32,2.263,2.263,0,0,0,.077-.617.626.626,0,0,0-.463-.579c-.129-.051-.129-.09,0-.115a1.022,1.022,0,0,1,.579.154,5.655,5.655,0,0,1,.54.5A.193.193,0,0,1,777.039,443.144Zm4.785,4.9a1.265,1.265,0,0,1-.54.888,1.788,1.788,0,0,1-1.042.27,1.685,1.685,0,0,1-1.234-.386.844.844,0,0,1-.271-.617.645.645,0,0,1,.309-.5,2.117,2.117,0,0,1,1.2-.27,5.193,5.193,0,0,1,1.158.116q0-2.16-.077-3.319a16.7,16.7,0,0,1-2.315.193.869.869,0,0,1-.579-.193,1.672,1.672,0,0,1-.54-.734c-.027-.128.012-.154.115-.077a1.225,1.225,0,0,0,1.042.656,17.685,17.685,0,0,0,2.238-.192c-.025-.644-.052-1.081-.077-1.313-.025-.283-.27-.437-.733-.462q-.348,0-.038-.155a1.213,1.213,0,0,1,.617-.077,1.588,1.588,0,0,1,.733.27q.155.115-.039.308a.612.612,0,0,0-.077.387c0,.283.013.6.039.965a6.2,6.2,0,0,0,1.273-.233.351.351,0,0,1,.386,0,1.573,1.573,0,0,1,.271.194c.077.1.038.168-.117.193q-.926.155-1.775.232.115,1.814.116,3.434.849.309,1.659.617a.346.346,0,0,1,.232.232.592.592,0,0,1,.039.347c-.052.155-.154.18-.309.078A9.206,9.206,0,0,0,781.824,448.044Zm-1.659-.347a1.491,1.491,0,0,0-1.042.27.371.371,0,0,0-.115.27.473.473,0,0,0,.115.348,1.359,1.359,0,0,0,1,.347,1.2,1.2,0,0,0,.849-.232,1.23,1.23,0,0,0,.385-.771A3.178,3.178,0,0,0,780.165,447.7Z" fill="#000000"/><path d="M778.506,453.1a3.677,3.677,0,0,0,1.544-.619,1.429,1.429,0,0,1,.54.117q.307.194-.271.385a8.9,8.9,0,0,1-1.852.425,12.319,12.319,0,0,0-.193,1.7,7.067,7.067,0,0,1,1.93-.463c.025-.257-.168-.412-.579-.463-.1-.051-.091-.1.038-.155q1.2.078,1.158.618a3.066,3.066,0,0,1,2.122.656,1.891,1.891,0,0,1,.579,1.39,2.1,2.1,0,0,1-.694,1.5,5.08,5.08,0,0,1-2.47,1.236q-.27,0-.039-.155a5.829,5.829,0,0,0,1.969-1.119,2.067,2.067,0,0,0,.694-1.466,1.623,1.623,0,0,0-.462-1.2,2.575,2.575,0,0,0-1.776-.579,14.034,14.034,0,0,1-.694,1.351,7.3,7.3,0,0,1-.965,1.312c.1.129.218.27.347.425a.219.219,0,0,1-.038.347q-.232.154-.463-.155c-.077-.1-.143-.192-.194-.269a5.524,5.524,0,0,1-1,.809,1.646,1.646,0,0,1-1,.271c-.514-.052-.8-.4-.848-1.042a2.38,2.38,0,0,1,.926-1.93,5.329,5.329,0,0,1,1.119-.771q0-.579.116-1.776-.541.078-1.042.117a.627.627,0,0,1-.541-.156,1.362,1.362,0,0,1-.386-.617c.026-.128.077-.14.155-.038a.8.8,0,0,0,.772.463,6.166,6.166,0,0,0,1.08-.077c.077-.515.129-.99.154-1.428.026-.231-.141-.387-.5-.464-.1,0-.1-.038,0-.115a2.063,2.063,0,0,1,.927.192c.309.156.361.348.154.579A4.923,4.923,0,0,0,778.506,453.1Zm-1.5,3.2a2.369,2.369,0,0,0-.656,1.621q0,.772.463.809a1.37,1.37,0,0,0,.887-.308,4.459,4.459,0,0,0,.849-.734,4.171,4.171,0,0,1-.617-2.122A3.747,3.747,0,0,0,777,456.3Zm1.273-.888a3.72,3.72,0,0,0,.618,1.93,7.925,7.925,0,0,0,.771-1.2,8.273,8.273,0,0,0,.5-1.235A6.231,6.231,0,0,0,778.274,455.413Z" fill="#000000"/><path d="M778.12,461.71a.349.349,0,0,1,0,.386,5.5,5.5,0,0,0-.387,1.544,4.893,4.893,0,0,0,0,1.5c.026.154.079.167.156.039a8.273,8.273,0,0,1,1.465-2.856,1.259,1.259,0,0,1,.888-.425.941.941,0,0,1,.7.27,3.218,3.218,0,0,1,.618,2.277,4.608,4.608,0,0,1-1.042,3.358,5.252,5.252,0,0,1-2.355,1.35c-.179,0-.206-.052-.077-.154a4.183,4.183,0,0,0,2.934-4.631,3.368,3.368,0,0,0-.425-2.123.486.486,0,0,0-.348-.154.864.864,0,0,0-.579.309,7.955,7.955,0,0,0-1.311,2.662,3.1,3.1,0,0,0-.194,1.042c0,.309-.1.464-.308.464q-.232,0-.348-.347a5.728,5.728,0,0,1-.231-1.776,13.828,13.828,0,0,1,.27-2.431.588.588,0,0,0-.309-.656c-.1-.077-.077-.116.078-.116A1.452,1.452,0,0,1,778.12,461.71Z" fill="#000000"/><path d="M779.9,472.717a9.9,9.9,0,0,0,1.5-.232,1.314,1.314,0,0,0,.54-.231.264.264,0,0,1,.348-.039,2.538,2.538,0,0,1,.309.231c.128.129.09.219-.117.271a16.954,16.954,0,0,1-2.585.386v1.7q.771-.078,1.2-.155a1.752,1.752,0,0,0,.694-.193.29.29,0,0,1,.348,0c.128.077.231.142.308.193.1.078.078.155-.077.232a1.651,1.651,0,0,1-.618.115c-.669.077-1.286.13-1.852.154v1.815a12.022,12.022,0,0,1,2.663.849.547.547,0,0,1,.347.54.182.182,0,0,1-.154.193c-.077.025-.193-.014-.348-.116a9.141,9.141,0,0,0-2.508-1.08,1.346,1.346,0,0,1-.27,1,1.924,1.924,0,0,1-1.467.463,1.882,1.882,0,0,1-1.388-.463.736.736,0,0,1-.233-.54.7.7,0,0,1,.31-.58,2.851,2.851,0,0,1,1.7-.385q.27,0,.927.039v-1.7q-.579.039-1.2.038a1.86,1.86,0,0,1-.964-.193,1.115,1.115,0,0,1-.386-1.081q.077-.153.192,0a1.042,1.042,0,0,0,.194.734,1.415,1.415,0,0,0,.964.231,8.441,8.441,0,0,0,1.2-.077v-1.7a16.6,16.6,0,0,1-1.7.077,4.405,4.405,0,0,1-1.119-.116,1.85,1.85,0,0,1-.965-.618q-.115-.231.117-.116a1.988,1.988,0,0,0,.809.463,6.152,6.152,0,0,0,1.275.077,11.217,11.217,0,0,0,1.582-.115v-.656a1.667,1.667,0,0,0-.117-.811.748.748,0,0,0-.656-.269c-.179.025-.192-.026-.038-.156a1.4,1.4,0,0,1,.5-.077,1.955,1.955,0,0,1,.926.31q.27.153,0,.386a.707.707,0,0,0-.193.579Zm-1.583,4.4a2.58,2.58,0,0,0-1.119.193.6.6,0,0,0-.385.541.573.573,0,0,0,.385.5,1.967,1.967,0,0,0,.888.193,1.559,1.559,0,0,0,1.081-.348,1.152,1.152,0,0,0,.27-.965A10.626,10.626,0,0,0,778.312,477.116Z" fill="#000000"/><path d="M782.712,483.455c-.644.026-1.157.052-1.543.077v1.428q0,1.313-.541,1.621c-.257.154-.373.129-.347-.077a.4.4,0,0,0-.231-.424q-.5-.309-1.119-.656-.195-.154.077-.116.616.231,1.2.463c.205.077.347,0,.424-.232a11.727,11.727,0,0,0,.077-1.93q-1.5.194-2.7.464v1.968a7.265,7.265,0,0,0,.116,1.119.793.793,0,0,0,.309.54,2.85,2.85,0,0,0,1.311.194,7.875,7.875,0,0,0,2.161-.232.636.636,0,0,1,.541,0,1.329,1.329,0,0,1,.27.27c.129.18.077.283-.154.309s-1.235.038-3.01.038a2.161,2.161,0,0,1-1.5-.385,3.452,3.452,0,0,1-.5-2.278V484.15q-.347.078-1.273.386a2.238,2.238,0,0,0-.463.193q-.156.115-.348-.078c-.386-.359-.566-.617-.54-.771q0-.27.154-.077a.757.757,0,0,0,.695.385,4.959,4.959,0,0,0,.771-.115q.54-.115,1-.232a9.739,9.739,0,0,0-.077-1.389.732.732,0,0,0-.734-.656q-.309,0,0-.154a2.02,2.02,0,0,1,1.351.347q.346.233.039.424a3.29,3.29,0,0,0-.116,1.313q1.506-.27,2.7-.425,0-1.467-.038-1.776-.039-.346-.656-.5-.271,0-.038-.154a2.01,2.01,0,0,1,1.35.347q.308.231,0,.386-.154.078-.154,1.66a8.008,8.008,0,0,0,1.929-.386.371.371,0,0,1,.424.038c.284.181.438.283.463.309.155.231.1.335-.154.308C783.266,483.481,782.892,483.455,782.712,483.455Z" fill="#000000"/><path d="M783.677,494.419c.077-.077.129-.065.154.038a5.8,5.8,0,0,1-1.466,2.856,2.323,2.323,0,0,1-1.66.772q-.965,0-1.08-.656a9.556,9.556,0,0,1-.116-1.621q0-.964-.734-.964a2.057,2.057,0,0,0-1.388.732,9.976,9.976,0,0,0-1.351,2.432c-.026.129-.091.193-.193.193-.181,0-.271-.168-.271-.5a.5.5,0,0,1,.156-.425,3,3,0,0,0,.423-.656q1.391-2.508,2.355-4.669a1.842,1.842,0,0,0,.115-.541.733.733,0,0,0-.578-.732c-.1-.077-.077-.116.077-.116a1.375,1.375,0,0,1,1.157.848c.077.207.052.31-.077.31q-.734,1.313-1.968,3.627a2.372,2.372,0,0,1,1.543-.734,1.059,1.059,0,0,1,1.2,1.2,9.23,9.23,0,0,0,.077,1.312.542.542,0,0,0,.578.54,2.39,2.39,0,0,0,1.621-.848A7.938,7.938,0,0,0,783.677,494.419Z" fill="#000000"/><path d="M762,267.875q0-.887-.54-1.119c-.1-.051-.091-.089.038-.115a1.677,1.677,0,0,1,.927.424q.385.309.115.618a15.007,15.007,0,0,0-.115,1.659,5.072,5.072,0,0,0,.425,2.47q.231.346.424,0,.656-1.119,1.427-2.432c.1-.128.156-.1.156.078q-.581,1.234-1.042,2.277a1.188,1.188,0,0,0-.156.887q.155.5-.269.348a2.028,2.028,0,0,1-1.081-1.235,4.569,4.569,0,0,1-.309-1.776Zm6.561.271a3.676,3.676,0,0,1,1.119,2.431c0,.283-.115.424-.347.424-.181,0-.284-.1-.309-.308a5.047,5.047,0,0,0-.579-1.853,5.159,5.159,0,0,0-1.235-1.5c-.077-.077-.052-.116.077-.116A4.7,4.7,0,0,1,768.558,268.146Z" fill="#000000"/><path d="M762.036,282.184c-.052.129-.116.193-.193.193-.155,0-.232-.218-.232-.656a.448.448,0,0,1,.271-.386,2.281,2.281,0,0,0,.617-.617q.616-.811,1.157-1.583V277.9c-.334.13-.655.258-.965.387a.471.471,0,0,1-.269.115.424.424,0,0,1-.271-.154q-.54-.309-.463-.733c.052-.1.1-.1.155,0a.572.572,0,0,0,.579.385,4.265,4.265,0,0,0,1.234-.27c0-.772-.012-1.337-.038-1.7a.647.647,0,0,0-.656-.5q-.309,0,0-.155a1.763,1.763,0,0,1,1.312.348q.232.231,0,.347-.27.231-.27,1.544a2.179,2.179,0,0,0,.386-.116,1.044,1.044,0,0,1,.347.231c.077.078.038.142-.116.193a2.579,2.579,0,0,0-.617.579v.618a6,6,0,0,1,3.434-1.39,2.5,2.5,0,0,1,1.853.695,1.778,1.778,0,0,1,.5,1.312,2.113,2.113,0,0,1-.656,1.544,5.875,5.875,0,0,1-3.474,1.389c-.1-.025-.1-.09,0-.193a5.284,5.284,0,0,0,2.857-1.273,2.184,2.184,0,0,0,.694-1.583,1.463,1.463,0,0,0-.425-1.08,2.035,2.035,0,0,0-1.5-.541,5.513,5.513,0,0,0-3.28,1.506q0,1,.116,2.161c.026.257.038.579.038.965a.85.85,0,0,1-.154.54c-.129.179-.245.27-.348.27-.129,0-.192-.1-.192-.309q0-.462-1-1.582C762.306,281.708,762.164,281.953,762.036,282.184Zm.5-.888c.31.335.605.631.888.888.1.077.167.052.193-.077a21.522,21.522,0,0,0,.038-2.393Q763.116,280.524,762.537,281.3Z" fill="#000000"/><path d="M766.667,287.417a4.344,4.344,0,0,0-3.628,4.091c0,.257-.064.386-.192.386a.633.633,0,0,1-.387-.232,2.981,2.981,0,0,1-.5-2.045,5.159,5.159,0,0,1,.115-1.081,7.956,7.956,0,0,0,.194-1.08.645.645,0,0,0-.348-.657c-.1-.051-.09-.09.039-.115a1.042,1.042,0,0,1,.926.617q.194.27-.038.425a3.836,3.836,0,0,0-.579,2.006,2.473,2.473,0,0,0,.192.965c.052.129.1.116.154-.038a4.848,4.848,0,0,1,4.053-3.512q0-1.158-.231-1.313a.869.869,0,0,0-.773-.038q-.231.117-.115-.077a1.276,1.276,0,0,1,.81-.309,1.59,1.59,0,0,1,.772.154q.424.232.077.464a5.343,5.343,0,0,0-.077,1.119,2.616,2.616,0,0,1,1.93.733,1.992,1.992,0,0,1,.579,1.467,2.049,2.049,0,0,1-.618,1.5,2.73,2.73,0,0,1-2.006.656,3.564,3.564,0,0,1-2.586,2.2c-.1-.052-.1-.1,0-.155a3.613,3.613,0,0,0,2.122-2.084,2.409,2.409,0,0,1-2.316-2.315c.052-.1.1-.1.155,0a2.349,2.349,0,0,0,2.238,1.968q.078-.927.077-1.968Q766.705,288.151,766.667,287.417Zm.425,3.743a2.038,2.038,0,0,0,1.5-.54,1.726,1.726,0,0,0,.5-1.273,1.881,1.881,0,0,0-.5-1.39,1.988,1.988,0,0,0-1.467-.579q.038.774.039,1.814Q767.169,290.428,767.092,291.16Z" fill="#000000"/><path d="M762.5,300.005q.27-.231,3.628-3.936c.077-.051.051-.09-.077-.116a12.157,12.157,0,0,0-1.853.463.948.948,0,0,1-.425.154,1.126,1.126,0,0,1-.385-.231,1.017,1.017,0,0,1-.425-.694c0-.129.052-.142.154-.04a.859.859,0,0,0,.773.348,2.836,2.836,0,0,0,.617-.038c.515-.078,1.015-.167,1.5-.27a1.364,1.364,0,0,0,.579-.232.224.224,0,0,1,.192-.116.689.689,0,0,1,.425.193c.129.1.193.193.193.27,0,.052-.116.116-.347.193a18.936,18.936,0,0,0-2.663,2.547c-.078.129-.038.154.116.077a4.639,4.639,0,0,1,1.659-.308,2.765,2.765,0,0,1,2.046.772,1.934,1.934,0,0,1,.54,1.427,2.246,2.246,0,0,1-.617,1.66,3.554,3.554,0,0,1-2.625.926,2.1,2.1,0,0,1-1.5-.425,1,1,0,0,1-.348-.694.734.734,0,0,1,.233-.54,1.1,1.1,0,0,1,.809-.27,1.662,1.662,0,0,1,1.2.54,1.785,1.785,0,0,1,.463.964,2.492,2.492,0,0,0,1.274-.694,1.9,1.9,0,0,0,.579-1.39,1.93,1.93,0,0,0-.541-1.427,2.349,2.349,0,0,0-1.736-.618,3.643,3.643,0,0,0-2.509,1.273,5.618,5.618,0,0,0-.811,1,.275.275,0,0,1-.269.154c-.1,0-.155-.116-.155-.347A.773.773,0,0,1,762.5,300.005Zm2.855,1.7a1,1,0,0,0-.733-.308q-.694,0-.694.54a.668.668,0,0,0,.231.463,2.408,2.408,0,0,0,1.582.347A1.538,1.538,0,0,0,765.354,301.7Z" fill="#000000"/><path d="M761.882,308.357c-.13,0-.245-.154-.348-.462a1.48,1.48,0,0,0-.656-.734c-.18-.128-.168-.193.039-.193q1.2.309,1.2,1.042C762.113,308.242,762.036,308.357,761.882,308.357Zm1.7-2.315-1.311,4.245a3.149,3.149,0,0,0,.038,1.466,3.522,3.522,0,0,1,.077.965c-.052.257-.18.386-.386.386a.34.34,0,0,1-.386-.424,7.133,7.133,0,0,0,.077-1.737.706.706,0,0,0-.385-.424l-.463-.078v-.154h.888l1.659-4.361C763.541,305.8,763.6,305.836,763.579,306.042Zm-.965-.193c-.129,0-.244-.1-.346-.308a1.648,1.648,0,0,0-.773-.734c-.18-.1-.167-.154.039-.154.874.154,1.313.45,1.313.888C762.847,305.747,762.77,305.849,762.614,305.849Zm.618,2.2a12.793,12.793,0,0,0,2.084-3.7l.618.309c.256.129.193.231-.194.308a5.677,5.677,0,0,1-.424.657h3.242l.5-.5.656.463q.231.194,0,.27H765.2a10.131,10.131,0,0,1-1.813,2.354C763.232,308.255,763.181,308.2,763.232,308.049Zm5.326,1.389q-.039,1.2-.155,2.084h.348l.5-.5.617.462q.231.194,0,.27H768.4a2.056,2.056,0,0,1-.424,1.159.9.9,0,0,1-.618.308c-.077,0-.129-.064-.154-.193.025-.154-.052-.245-.231-.27l-.5-.116c-.18-.077-.18-.129,0-.154h.541a2.469,2.469,0,0,0,.578-.039c.129-.052.219-.282.27-.695h-3.2l-.116.618c-.386.206-.565.206-.54,0l.463-2.933h-1.235v-.231h1.235l.308-2.432.464.309h2.817l.27-.309.463.309q.463.309-.115.463l-.077,1.66h.269l.5-.5.617.463q.232.194,0,.27Zm-2.585,2.084.231-2.084h-1.235l-.271,2.084Zm.269-2.315.154-1.892h-1.157l-.231,1.892Zm.463.231-.231,2.084H767.9q.117-.887.155-2.084Zm1.351-.231.078-1.892H766.9l-.193,1.892Z" fill="#000000"/><path d="M762.19,320.782l.58.308c.154.129.05.206-.31.232a6.94,6.94,0,0,1-1.466,1.544c-.129.051-.168.012-.116-.116A7.328,7.328,0,0,0,762.19,320.782Zm1.776-5.674v5.481c-.335.308-.5.322-.5.038v-.27h-1.582v.386q-.5.464-.5.039v-6.368l.579.347h1.389l.231-.308.541.385Q764.351,315.031,763.966,315.108Zm-2.084,1.467h1.582v-1.582h-1.582Zm0,1.659h1.582v-1.427h-1.582Zm0,1.891h1.582v-1.659h-1.582Zm2.585,2.123q0,.346-.27.347-.193,0-.231-.231a3,3,0,0,0-.927-1.428c-.1-.128-.064-.167.116-.116Q764.466,321.593,764.467,322.248Zm.733-.5v-2.625h-.926v-.231h.926v-1.93l.656.116q.309.194-.154.27v1.544h.386l.386-.386.541.424c.077.1.05.168-.078.193H765.7v2.586Q765.2,322.172,765.2,321.747Zm2.238-5.21a12.305,12.305,0,0,0,.541,3.473,9.34,9.34,0,0,0,.926-2.316l.7.348q.424.27-.27.27a8.315,8.315,0,0,1-1.119,2.238,3.682,3.682,0,0,0,.887,1.119c.179.129.322.052.424-.231l.309-.888q.154-.231.154.039l-.154,1.119a.582.582,0,0,0,.077.463.37.37,0,0,1,.116.27c0,.128-.116.193-.347.193a1.337,1.337,0,0,1-.926-.463,5.692,5.692,0,0,1-.888-1.158,8.657,8.657,0,0,1-2.817,2.084c-.154,0-.168-.064-.038-.193a8,8,0,0,0,2.624-2.393,10.9,10.9,0,0,1-.695-3.974H764.39v-.232h2.547V314.26l.656.115q.309.194-.155.271v1.659h1.236l.579-.579.732.541c.155.129.155.218,0,.27Zm.541-1.7q.927.348.926.811c0,.231-.091.347-.27.347-.077,0-.142-.09-.193-.27a1.77,1.77,0,0,0-.541-.772C767.772,314.852,767.8,314.813,767.979,314.838Z" fill="#000000"/><path d="M764,326.5a13.583,13.583,0,0,1-.926,1.2l.232.077c.205.129.154.219-.155.27v4.438q-.5.463-.5.039V328.16a7.458,7.458,0,0,1-1.659,1.312c-.129,0-.154-.051-.077-.154a12.072,12.072,0,0,0,2.895-3.474l.578.464Q764.584,326.617,764,326.5Zm-.348-1.852a11.483,11.483,0,0,1-2.547,2.045c-.179.078-.231.039-.154-.115a12.668,12.668,0,0,0,2.509-2.624l.463.424C764.184,324.609,764.094,324.7,763.656,324.648Zm4.323,2.586v4.4a.866.866,0,0,1-.27.695.993.993,0,0,1-.463.232c-.154.024-.231-.039-.231-.194a.274.274,0,0,0-.194-.27l-.694-.154c-.13-.051-.13-.1,0-.154h1a.308.308,0,0,0,.348-.348v-4.206h-3.2V327h4.592l.464-.463.617.424q.232.195,0,.271Zm-3.01-2.355h3.357l.425-.424.54.386q.231.194,0,.27h-4.322Z" fill="#000000"/><path d="M765.046,336.134h-3.318V335.9h3.434a15.459,15.459,0,0,0,1.08-2.2l.773.386c.154.154,0,.219-.464.193a15.886,15.886,0,0,1-.849,1.621h1.274l.308-.309.5.5q.231.194-.27.231l-.193,1h.578l.31-.309.54.54q.155.27-.309.231l-.193.965h.617l.31-.308.5.5q.193.195-.232.232-.269,2.586-1.08,3.126a1.189,1.189,0,0,1-.464.193c-.1.051-.192,0-.269-.154v-.194q-.078-.194-.888-.463c-.077-.1-.052-.154.077-.154l.965.193a.693.693,0,0,0,.463-.116q.54-.462.694-2.624h-5.6a8.182,8.182,0,0,1-2.239,1.582c-.129,0-.154-.051-.077-.154A11.344,11.344,0,0,0,765.046,336.134Zm-2.122,4.091a2.134,2.134,0,0,1-.116,1.274q-.387.693-.772.54c-.077-.026-.116-.116-.116-.27,0-.1.1-.219.309-.348a1.8,1.8,0,0,0,.541-1.2A.1.1,0,0,1,762.924,340.225Zm-.116-6.56a2.97,2.97,0,0,1,1.235.81,1.028,1.028,0,0,1,.269.694c0,.206-.089.309-.269.309-.13,0-.245-.154-.348-.463a2.721,2.721,0,0,0-.965-1.235C762.653,333.678,762.679,333.639,762.808,333.665Zm.771,5.093h4.168l.232-1.2h-3.358A8.678,8.678,0,0,1,763.579,338.758Zm.7,3.049q-.231,0-.231-.5a1.822,1.822,0,0,0-.231-1.274c-.027-.129.011-.155.115-.077a1.827,1.827,0,0,1,.694,1.466C764.621,341.678,764.506,341.807,764.274,341.807Zm1.312-5.673a10.547,10.547,0,0,1-.811,1.2h2.046l.232-1.2Zm-.54,3.782c-.129-.077-.115-.128.039-.154q1.156.5,1.157,1.235a.2.2,0,0,1-.231.232c-.129,0-.219-.09-.271-.271A2.079,2.079,0,0,0,765.046,339.916Zm1.2-.231c-.077-.1-.052-.155.077-.155q1.352.309,1.351.965c0,.232-.065.347-.192.347s-.232-.09-.309-.27A2.07,2.07,0,0,0,766.242,339.685Z" fill="#000000"/><path d="M766.4,347.9a.836.836,0,0,1-.231.617.9.9,0,0,1-.656.27.831.831,0,0,1-.617-.232.887.887,0,0,1-.271-.655.83.83,0,0,1,.233-.618.89.89,0,0,1,.655-.27.837.837,0,0,1,.618.231A.9.9,0,0,1,766.4,347.9Z" fill="#000000"/><path d="M761.38,360.6h7.14l.578-.579.733.54q.231.192,0,.27H761.38Zm.926-5.867h5.21l.579-.579.733.54q.231.195,0,.27h-6.522Z" fill="#000000"/><path d="M761.959,368.71q-.039-.154-.348-.231l-.463-.078v-.154h1.081l2.045-4.322c.128-.128.193-.115.193.039l-1.814,4.4a2.47,2.47,0,0,0-.077,1.389,3.285,3.285,0,0,1,.077.772q0,.464-.424.463-.464,0-.309-.81A3.146,3.146,0,0,0,761.959,368.71Zm-.618-4.669q-.193-.155.116-.116c1.028.308,1.544.76,1.544,1.35,0,.181-.1.271-.31.271q-.194,0-.346-.348A2.659,2.659,0,0,0,761.341,364.041Zm.695,7.834c-.181,0-.206-.052-.077-.154a4.93,4.93,0,0,0,4.014-5.133V365.7h-.734a8.8,8.8,0,0,1-1.775,2.509c-.154.077-.181.025-.077-.154a13,13,0,0,0,2.161-4.941l.694.232c.334.077.257.207-.231.386a16.5,16.5,0,0,1-.657,1.737h2.934l.424-.425.888.733c.129.129.089.206-.116.232a1.011,1.011,0,0,0-.733.154l-.927.927c-.129.077-.167.052-.115-.077l.656-1.313h-1.891v1.042a5.432,5.432,0,0,0,3.588,4.284.913.913,0,0,0-.771.54,6.235,6.235,0,0,1-2.855-4.207,4.8,4.8,0,0,1-1.313,3.011A5.831,5.831,0,0,1,762.036,371.875Z" fill="#000000"/><path d="M761.032,373.541h3.435l.5-.5.617.464q.231.194,0,.269h-1.659v1.738h.656l.231-.31.54.387c.155.129.1.219-.154.269v5.249q-.5.463-.5.039v-.386h-2.932v.5q-.5.462-.5.038v-6.175l.579.387h.656v-1.738h-1.467Zm2.47,2.2h-.578v.849a1.881,1.881,0,0,1-1.158,1.775v.579H764.7v-1.158h-.732a.409.409,0,0,1-.464-.463Zm-1,0h-.733v2.393q.655-.309.733-1.544Zm-.733,4.785H764.7v-1.35h-2.932Zm1.736-6.754h-.578v1.738h.578Zm1.2,3.628v-1.659h-.771v1.5a.136.136,0,0,0,.154.154Zm1.853,3.049a.137.137,0,0,0,.154.155h2.316c.256,0,.4-.09.424-.271l.232-1.2c.052-.051.09-.051.116,0v1.2a.277.277,0,0,0,.154.271q.27.115,0,.347a1.206,1.206,0,0,1-.694.115h-2.74a.409.409,0,0,1-.463-.462v-4.246l.578.348h2.123v-2.934h-2.586v-.231h2.47l.231-.309.541.386c.155.129.1.219-.154.271V377.4c-.335.309-.5.323-.5.038v-.5h-2.2Z" fill="#000000"/><path d="M760.8,388.869a10.448,10.448,0,0,0,3.357-4.245h-3.126v-.231h3.2a10.2,10.2,0,0,0,.619-1.815l.694.309q.346.155-.271.347a12.053,12.053,0,0,1-.5,1.159h3.705l.58-.58.694.541q.231.192,0,.27H764.66a9.676,9.676,0,0,1-.848,1.5l.192.27h1.736v-1.351l.656.116c.207.129.155.219-.154.271v.964h1.969l.231-.309.54.387c.155.128.1.218-.154.269v3.011a.818.818,0,0,1-.27.655.521.521,0,0,1-.386.155.136.136,0,0,1-.154-.155c0-.128-.078-.218-.232-.269l-.5-.117c-.1-.05-.1-.1,0-.154h.772a.238.238,0,0,0,.27-.269v-2.972h-2.084v4.4q-.5.464-.5.038v-4.437h-1.813v3.9q-.5.463-.5.039v-3.821a9.317,9.317,0,0,1-2.547,2.277C760.749,389.023,760.724,388.972,760.8,388.869Z" fill="#000000"/><path d="M766.4,396.749a.835.835,0,0,1-.231.618.9.9,0,0,1-.656.27.831.831,0,0,1-.617-.232.887.887,0,0,1-.271-.656.828.828,0,0,1,.233-.617.891.891,0,0,1,.655-.271.83.83,0,0,1,.618.233A.889.889,0,0,1,766.4,396.749Z" fill="#000000"/><path d="M768.48,408.024a.26.26,0,0,1,.117.232c0,.1-.077.129-.232.077a12.9,12.9,0,0,0-4.245.077,3.113,3.113,0,0,0-.81.194.336.336,0,0,1-.232.115c-.052,0-.141-.064-.27-.193q-.5-.5-.463-.81c0-.129.051-.142.154-.039a.705.705,0,0,0,.694.386c.566,0,.965-.012,1.2-.039q1.234-.115,3.048-.231.232-1.389.386-2.895l-3.472.271a2.091,2.091,0,0,0-.734.115c-.1.1-.18.154-.231.154a.557.557,0,0,1-.309-.154c-.387-.334-.566-.6-.541-.81,0-.128.052-.141.154-.038a.962.962,0,0,0,.619.347c.334,0,.719-.012,1.157-.039q1.158-.077,3.242-.154l.27-.271a4.929,4.929,0,0,1,.656.387.227.227,0,0,1,.116.192c0,.052-.064.091-.193.117s-.206.077-.232.154q-.231,1.274-.463,2.508A1.438,1.438,0,0,1,768.48,408.024Z" fill="#000000"/><path d="M766.821,414.747c.128-.129.051-.27-.231-.425-.077-.051-.052-.09.077-.116a1.6,1.6,0,0,1,.888.387c.257.206.385.346.385.424s-.1.1-.308.077c-.206.052-.4.1-.579.154a18.185,18.185,0,0,1-3.358.811V418.3a.546.546,0,0,0,.617.618h1.622a6.745,6.745,0,0,0,1.119-.193,3.076,3.076,0,0,1,.347-.155.853.853,0,0,1,.347.155c.18.1.271.218.271.347,0,.077-.078.116-.232.116-.154.026-.4.051-.733.077-.309.026-.669.051-1.08.077h-1.738q-1,0-1-.965V413.82q0-.386-.618-.5c-.154-.05-.154-.115,0-.192a1.719,1.719,0,0,1,.7.077,1.442,1.442,0,0,1,.656.348.314.314,0,0,1,.115.192c0,.052-.052.091-.154.116q-.193.039-.232.54v1.39A13.056,13.056,0,0,0,766.821,414.747Zm1.351-.772a1.029,1.029,0,1,1,.694.27A.938.938,0,0,1,768.172,413.975Zm1.2-.155a.744.744,0,0,0,0-1.08.748.748,0,0,0-1,0,.747.747,0,0,0,0,1.08.745.745,0,0,0,1,0Z" fill="#000000"/><path d="M765.7,428.381c.051.463.077.8.077,1a.723.723,0,0,1-.154.464.312.312,0,0,1-.231.154c-.1,0-.155-.091-.155-.271v-6.908a.754.754,0,0,0-.154-.54.908.908,0,0,0-.387-.192c-.1-.052-.1-.1,0-.155a1.408,1.408,0,0,1,1.081.386c.18.18.205.309.077.386a.444.444,0,0,0-.154.309Z" fill="#000000"/><path d="M766.4,435.832a.835.835,0,0,1-.231.618.9.9,0,0,1-.656.27.831.831,0,0,1-.617-.232.887.887,0,0,1-.271-.656.828.828,0,0,1,.233-.617.891.891,0,0,1,.655-.271.83.83,0,0,1,.618.233A.889.889,0,0,1,766.4,435.832Z" fill="#000000"/><path d="M765.432,445.218c-.026-.1-.129-.18-.309-.232-.154-.077-.142-.128.039-.154a1,1,0,0,1,.617.154,11.6,11.6,0,0,0,1.659-1.427c.052-.078.013-.117-.115-.117q-2.74.427-3.088.541a1.951,1.951,0,0,0-.617.232.227.227,0,0,1-.193.115c-.129,0-.334-.141-.617-.424a1.078,1.078,0,0,1-.271-.541c0-.128.052-.154.154-.077a.817.817,0,0,0,.811.386,8.116,8.116,0,0,0,1.352-.193q.885-.115,2.739-.385a1.334,1.334,0,0,0,.27-.271,3.254,3.254,0,0,1,.54.425c.18.154.271.257.271.309,0,.129-.065.18-.194.154a.78.78,0,0,0-.5.154A15.934,15.934,0,0,1,766.2,445.3q.308.155-.193.27v3.126a6.516,6.516,0,0,0,.077,1c.025.155-.052.232-.232.232a.35.35,0,0,1-.308-.193.776.776,0,0,1-.154-.308,2.176,2.176,0,0,0,.115-.5v-3.2a17.537,17.537,0,0,1-4.322,2.122c-.129-.026-.142-.077-.039-.154A20.319,20.319,0,0,0,765.432,445.218Zm-.849-4.129a3.242,3.242,0,0,1,1.39.694.884.884,0,0,1,.346.656c0,.361-.09.54-.269.54-.155,0-.284-.192-.387-.579a2.311,2.311,0,0,0-.424-.617,3.248,3.248,0,0,0-.772-.579C764.39,441.127,764.429,441.089,764.583,441.089Zm2.007,4.631a4.973,4.973,0,0,1,1.389.385,3.572,3.572,0,0,1,1,.657.972.972,0,0,1,.348.656.273.273,0,0,1-.309.309q-.117,0-.386-.386a5.314,5.314,0,0,0-2.045-1.506C766.486,445.784,766.486,445.745,766.59,445.72Z" fill="#000000"/><path d="M764.312,454.988a2.5,2.5,0,0,0-.269-.579,2.742,2.742,0,0,0-.733-.694c-.052-.051-.039-.09.038-.115a2.629,2.629,0,0,1,.7.308,2.869,2.869,0,0,1,.5.386.708.708,0,0,1,.27.579q-.039.309-.231.309A.275.275,0,0,1,764.312,454.988Zm4.593-1.813c.361.231.54.425.54.579,0,.052-.064.077-.192.077s-.232.09-.31.27a8.186,8.186,0,0,1-5.131,4.438c-.156,0-.181-.064-.079-.193a7.854,7.854,0,0,0,4.825-4.825c.051-.154-.052-.294-.309-.423-.1-.052-.077-.09.077-.117A1.3,1.3,0,0,1,768.905,453.175Zm-2.624,1.273a.272.272,0,0,1-.27-.193,3.348,3.348,0,0,0-.425-.772,3.714,3.714,0,0,0-.617-.462c-.077-.078-.065-.117.039-.117a2.4,2.4,0,0,1,.926.386,1.088,1.088,0,0,1,.579.888C766.513,454.358,766.436,454.448,766.281,454.448Z" fill="#000000"/><path d="M766.513,464.48a4.372,4.372,0,0,1,1.466.695q.579.463.579.772c0,.232-.09.347-.27.347-.1,0-.245-.115-.425-.347a4.932,4.932,0,0,0-2.586-1.544v4.285q0,.423-.192.423c-.154,0-.284-.115-.387-.346a1.166,1.166,0,0,1,.039-.773q.115-1.311.077-5.9a1.152,1.152,0,0,0-.116-.579.765.765,0,0,0-.54-.193c-.1-.051-.1-.1,0-.154a1.47,1.47,0,0,1,.734.038,2.643,2.643,0,0,1,.54.271c.154.1.231.206.231.308,0,.077-.052.129-.154.155a.181.181,0,0,0-.155.192,14.38,14.38,0,0,0-.077,2.123A8.331,8.331,0,0,1,766.513,464.48Z" fill="#000000"/><path d="M767.979,471.521c.309.206.566.385.772.54.1.077.154.141.154.193s-.051.09-.154.115c-.206.052-.309.116-.309.193a6.917,6.917,0,0,1-5.441,5.9c-.181,0-.207-.051-.077-.155q4.553-1.774,4.939-6.058a.1.1,0,0,0-.116-.116q-2.084.155-3.975.308a.509.509,0,0,1-.308-.115q-.039.694.038,2.816c0,.285-.052.425-.154.425-.077,0-.167-.063-.27-.192a.677.677,0,0,1-.193-.348,2.923,2.923,0,0,1,.077-.425v-1.89a.915.915,0,0,0-.192-.656.784.784,0,0,0-.464-.194c-.1-.051-.1-.1,0-.154a1.377,1.377,0,0,1,1.2.425q2.085-.154,4.245-.348A2.7,2.7,0,0,0,767.979,471.521Z" fill="#000000"/><path d="M765.7,487.006c.051.463.077.8.077,1a.723.723,0,0,1-.154.464.312.312,0,0,1-.231.154c-.1,0-.155-.091-.155-.271v-6.908a.754.754,0,0,0-.154-.54.908.908,0,0,0-.387-.192c-.1-.052-.1-.1,0-.155a1.408,1.408,0,0,1,1.081.386c.18.18.205.309.077.386a.444.444,0,0,0-.154.309Z" fill="#000000"/><path d="M765.2,492.08q.657,0,2.046-.115a3.319,3.319,0,0,0,.347-.309c.231.155.425.283.579.386.129.1.193.192.193.27s-.077.116-.231.116a.253.253,0,0,0-.31.193,9.83,9.83,0,0,1-5.518,5.634c-.155,0-.18-.052-.077-.154a10.136,10.136,0,0,0,5.055-5.828q-1.234.039-2.238.078a7.034,7.034,0,0,1-2.9,2.778c-.129,0-.154-.051-.077-.154a7.526,7.526,0,0,0,2.74-3.358.854.854,0,0,0,.078-.579.525.525,0,0,0-.348-.231c-.1-.051-.1-.1,0-.155q.231-.075.772.232.425.231.424.386c0,.077-.064.116-.192.116-.052,0-.091.052-.116.154Z" fill="#000000"/><path d="M762.074,504.5c.18-.154.386-.348.617-.579.644-.643,1.042-1.042,1.2-1.2a.748.748,0,0,1,.5-.27,1.32,1.32,0,0,1,.618.232q2.815,1.775,3.357,2.044t1.389.695a.473.473,0,0,1,.27.425c0,.154-.064.231-.193.231a1.192,1.192,0,0,1-.5-.154c-.207-.1-.733-.438-1.583-1q-1.156-.772-2.7-1.853a1.237,1.237,0,0,0-.656-.27c-.1,0-.284.141-.54.425q-.772.887-1.2,1.311c-.257.258-.385.439-.385.541s-.065.154-.194.154a1.5,1.5,0,0,1-.424-.116.945.945,0,0,1-.386-.269.885.885,0,0,1-.27-.5c.026-.129.064-.155.115-.077a.952.952,0,0,0,.579.347A.533.533,0,0,0,762.074,504.5Z" fill="#000000"/><path d="M765.779,511.723c.18.179.141.3-.116.346a17.19,17.19,0,0,1-1.891,4.053,2.04,2.04,0,0,1-.5.54q-.426.309-.58-.077a1.2,1.2,0,0,1-.732-.579,2.51,2.51,0,0,1-.309-1.274,3.394,3.394,0,0,1,.964-2.507,4.2,4.2,0,0,1,3.088-1.275,4.076,4.076,0,0,1,3.01,1.081,2.616,2.616,0,0,1,.772,1.93,2.688,2.688,0,0,1-.733,1.852,5.2,5.2,0,0,1-3.126,1.5c-.1-.051-.1-.1,0-.154a4.934,4.934,0,0,0,2.663-1.5,2.612,2.612,0,0,0,.617-1.737,2.432,2.432,0,0,0-.54-1.659,3.619,3.619,0,0,0-3.242-1.042A2.992,2.992,0,0,1,765.779,511.723Zm-.694.231a.607.607,0,0,0-.193-.694,3.138,3.138,0,0,0-1.776.926,3.221,3.221,0,0,0-1,2.354,2.241,2.241,0,0,0,.424,1.582.553.553,0,0,0,.387.192.637.637,0,0,0,.386-.231A14.217,14.217,0,0,0,765.085,511.954Z" fill="#000000"/><path d="M763.271,521.879h.964l.232-.309.541.386c.154.129.1.219-.154.271v2.624c-.335.308-.5.322-.5.038v-.155h-1.081v1.042h1.158l.5-.5.617.463q.231.193,0,.27h-2.277v1.93q-.5.462-.5.039v-1.969h-1.738v-.232h1.738v-1.042h-.965v.348q-.5.463-.5.038v-3.473l.579.232h.888v-1h-1.583v-.231h1.583v-1.389l.655.115c.206.129.154.219-.154.271v1h1.041l.5-.5.618.462q.231.194,0,.27h-2.161Zm-.5.231h-.965v1.042h.965Zm-.965,1.274V524.5h.965v-1.119Zm1.466-.232h1.081V522.11h-1.081Zm0,1.351h1.081v-1.119h-1.081Zm6.406,3.126c-.155,0-.244-.142-.27-.425l-.154-.655q-1.97.425-4.014.732-.155.773-.425.194l-.347-.657c.308,0,.721-.012,1.235-.038l.965-3.319h-1.2v-.232h3.28l.579-.579.732.541q.234.194,0,.27h-3.009l.231.116q.231.194-.154.27L765.9,526.78q1.7-.153,3.281-.425a5.275,5.275,0,0,0-1.042-1.621c-.078-.128-.039-.167.115-.115q1.737,1.273,1.736,2.393C769.985,527.423,769.883,527.629,769.677,527.629Zm-3.821-7.063h2.393l.579-.578.734.54q.231.194,0,.27h-3.706Z" fill="#000000"/><path d="M767.9,535.828a3.55,3.55,0,0,0,.85.926q.5.387.694-.038l.386-.85c.1-.128.154-.128.154,0l-.346,1.158a.568.568,0,0,0,.115.348.476.476,0,0,1,.116.27c0,.077-.1.116-.308.116a1.77,1.77,0,0,1-.927-.425,4.638,4.638,0,0,1-1.042-1.08,9,9,0,0,1-2.316,1.774q-.309.115-.115-.154a8.649,8.649,0,0,0,2.2-2.045,10.646,10.646,0,0,1-.733-3.9h-2.585v.886h1.119l.424-.423.541.385q.231.194,0,.271h-2.084v.655h1.2l.232-.309.54.386q.231.2-.155.271v1.659q-.5.463-.5.039V535.6h-1.311v.617h1.543l.425-.425.54.387q.231.193,0,.269h-2.508v1.39q-.5.463-.5.038v-1.428h-2.47v-.231h2.47V535.6h-1.273v.192c-.335.31-.5.322-.5.039v-2.392l.579.269h1.2v-.655h-2.354v-.233h2.354v-.886h-2.586V531.7h2.586v-.964h-1.813V530.5h1.813v-1.428l.656.116c.205.129.155.219-.154.27V530.5h.965l.5-.5.618.463q.231.193,0,.27h-2.084v.964h2.585v-2.547l.656.117c.206.128.154.218-.154.269V531.7h1.544l.579-.578.732.54q.232.193,0,.271H767.13a10.179,10.179,0,0,0,.54,3.395,9.735,9.735,0,0,0,.927-2.586l.733.348q.231.194-.309.231A9.5,9.5,0,0,1,767.9,535.828Zm-4.36-1.312v-.578h-1.273v.578Zm0,.231h-1.273v.618h1.273Zm.5-.809v.578h1.311v-.578Zm1.311.809h-1.311v.618h1.311Zm3.706-3.935c0,.154-.065.231-.194.231s-.257-.116-.386-.348a3.143,3.143,0,0,0-.733-.733c-.077-.077-.052-.115.077-.115a2.288,2.288,0,0,1,1,.463A.7.7,0,0,1,769.06,530.812Z" fill="#000000"/><path d="M764.158,541.544q-1.5,3.435-1.852,4.014c-.155.257-.3.322-.424.192a.574.574,0,0,1-.154-.309.62.62,0,0,1,.192-.54,3.32,3.32,0,0,0,.5-.656q.5-.848,1.311-2.624a7.119,7.119,0,0,0-1,.232c-.18.1-.322.1-.424,0-.334-.334-.489-.58-.463-.734,0-.128.052-.128.154,0a.658.658,0,0,0,.656.309,4.311,4.311,0,0,0,1.2-.155,6.274,6.274,0,0,0,.5-1.62q.038-.386-.5-.5c-.129-.051-.129-.1,0-.154a1.341,1.341,0,0,1,.694.115,1.475,1.475,0,0,1,.464.31c.154.154.14.283-.039.386a4.3,4.3,0,0,0-.7,1.388,2.5,2.5,0,0,0,.965-.424q.27-.192.463.116c.1.18.051.3-.154.347Q764.891,541.39,764.158,541.544Zm4.13.965a2.186,2.186,0,0,0-1.273.347.676.676,0,0,0-.233.656q.078,1.121.194,2.007a7.1,7.1,0,0,1,2.084.7c.1.077.14.244.116.5-.027.232-.155.27-.387.116a10.074,10.074,0,0,0-1.774-.926,1.355,1.355,0,0,1-.464,1.157,1.54,1.54,0,0,1-.965.271,1.354,1.354,0,0,1-1-.348.866.866,0,0,1,.115-1.35,1.982,1.982,0,0,1,1.081-.232c.232,0,.476.013.734.038q-.156-1.388-.155-1.89a1,1,0,0,1,.657-1,3.243,3.243,0,0,1,1.234-.27c.231,0,.3-.077.193-.231a3.75,3.75,0,0,0-1.737-1.235c-.1-.051-.09-.09.039-.116a4.181,4.181,0,0,1,2.354,1.158,1.2,1.2,0,0,1,.424.81q0,.309-.192.309a.263.263,0,0,1-.193-.077A1.182,1.182,0,0,0,768.288,542.509Zm-2.625,3.126a1.385,1.385,0,0,0-.809.193.59.59,0,0,0-.271.5.666.666,0,0,0,.154.425,1.07,1.07,0,0,0,.849.308.942.942,0,0,0,.541-.115,1.278,1.278,0,0,0,.386-1.158A2.5,2.5,0,0,0,765.663,545.635Z" fill="#000000"/><path d="M763.193,556.259a1.329,1.329,0,0,1-.423-.965,1.655,1.655,0,0,1,.617-1.2,7.359,7.359,0,0,1,1.544-1.081,2.3,2.3,0,0,1-.464-1.543,11.812,11.812,0,0,0-.077-1.969.548.548,0,0,0-.54-.386c-.1-.051-.1-.1,0-.154a1.57,1.57,0,0,1,1.2.347c.129.1.142.207.039.309a.672.672,0,0,0-.116.463v2.007c0,.437.064.708.193.81a20.973,20.973,0,0,1,2.238-.81c.205-.052.245-.18.116-.386a.849.849,0,0,0-.27-.231c-.1-.052-.091-.09.038-.117a.92.92,0,0,1,.7.348,1.045,1.045,0,0,1,.27.578c0,.13-.1.194-.309.194a13.065,13.065,0,0,0-2.932.926,5.282,5.282,0,0,0-1.583,1.08,1.163,1.163,0,0,0-.347.772q0,.812.965,1.081a7.893,7.893,0,0,0,1.7.115,5.613,5.613,0,0,0,1.583-.154c.282-.1.489-.1.617,0a.335.335,0,0,1,.155.27c0,.1-.077.167-.232.194a18.848,18.848,0,0,1-2.586.115A2.885,2.885,0,0,1,763.193,556.259Zm5.558-5.056c-.154.052-.271-.013-.348-.193a2.481,2.481,0,0,0-1-1.08c-.051-.077-.039-.1.038-.077a2.628,2.628,0,0,1,1.159.5.929.929,0,0,1,.308.463Q768.982,551.126,768.751,551.2Zm-.5-2.122c-.052-.078-.038-.1.039-.078a2.627,2.627,0,0,1,1.157.5.927.927,0,0,1,.309.463c.052.207,0,.335-.154.386s-.27-.012-.347-.193A2.507,2.507,0,0,0,768.249,549.081Z" fill="#000000"/><path d="M765.779,560.577q.27.27-.116.347a17.19,17.19,0,0,1-1.891,4.053,2.056,2.056,0,0,1-.5.54q-.426.309-.58-.078a1.188,1.188,0,0,1-.732-.579,2.506,2.506,0,0,1-.309-1.273,3.4,3.4,0,0,1,.964-2.508A4.2,4.2,0,0,1,765.7,559.8a4.072,4.072,0,0,1,3.01,1.081,2.614,2.614,0,0,1,.772,1.929,2.688,2.688,0,0,1-.733,1.853,5.21,5.21,0,0,1-3.126,1.5c-.1-.052-.1-.1,0-.154a4.946,4.946,0,0,0,2.663-1.5,2.617,2.617,0,0,0,.617-1.738,2.432,2.432,0,0,0-.54-1.659,3.622,3.622,0,0,0-3.242-1.042A2.992,2.992,0,0,1,765.779,560.577Zm-.694.232a.609.609,0,0,0-.193-.695,3.144,3.144,0,0,0-1.776.926,3.224,3.224,0,0,0-1,2.355,2.244,2.244,0,0,0,.424,1.582.557.557,0,0,0,.387.192.637.637,0,0,0,.386-.231A14.217,14.217,0,0,0,765.085,560.809Z" fill="#000000"/><path d="M764,570.771a13.6,13.6,0,0,1-.926,1.2l.232.077c.205.129.154.219-.155.269v4.439q-.5.462-.5.038v-4.36a7.453,7.453,0,0,1-1.659,1.311c-.129,0-.154-.051-.077-.154a12.081,12.081,0,0,0,2.895-3.473l.578.463C764.519,570.785,764.39,570.85,764,570.771Zm-.348-1.851a11.512,11.512,0,0,1-2.547,2.045c-.179.077-.231.039-.154-.115a12.647,12.647,0,0,0,2.509-2.625l.463.424Q764.313,569,763.656,568.92Zm4.323,2.585v4.4a.867.867,0,0,1-.27.7.991.991,0,0,1-.463.231c-.154.025-.231-.039-.231-.193a.274.274,0,0,0-.194-.27l-.694-.154c-.13-.052-.13-.1,0-.155h1a.308.308,0,0,0,.348-.347v-4.207h-3.2v-.232h4.592l.464-.462.617.424q.232.193,0,.27Zm-3.01-2.354h3.357l.425-.424.54.385q.231.193,0,.271h-4.322Z" fill="#000000"/><path d="M765.046,580.405h-3.318v-.231h3.434a15.459,15.459,0,0,0,1.08-2.2l.773.385c.154.156,0,.22-.464.194a15.781,15.781,0,0,1-.849,1.621h1.274l.308-.309.5.5c.154.13.064.207-.27.233l-.193,1h.578l.31-.309.54.54q.155.272-.309.231l-.193.965h.617l.31-.308.5.5q.193.194-.232.231-.269,2.586-1.08,3.126a1.172,1.172,0,0,1-.464.192c-.1.052-.192,0-.269-.154v-.192q-.078-.193-.888-.463c-.077-.1-.052-.155.077-.155l.965.193a.7.7,0,0,0,.463-.116q.54-.463.694-2.624h-5.6a8.182,8.182,0,0,1-2.239,1.582c-.129,0-.154-.051-.077-.155A11.333,11.333,0,0,0,765.046,580.405Zm-2.122,4.091a2.135,2.135,0,0,1-.116,1.274q-.387.693-.772.54c-.077-.026-.116-.116-.116-.27,0-.1.1-.219.309-.348a1.807,1.807,0,0,0,.541-1.2A.1.1,0,0,1,762.924,584.5Zm-.116-6.56a2.97,2.97,0,0,1,1.235.81,1.028,1.028,0,0,1,.269.694c0,.206-.089.309-.269.309-.13,0-.245-.154-.348-.463a2.721,2.721,0,0,0-.965-1.235C762.653,577.948,762.679,577.91,762.808,577.936Zm.771,5.093h4.168l.232-1.2h-3.358A8.678,8.678,0,0,1,763.579,583.029Zm.7,3.049q-.231,0-.231-.5a1.819,1.819,0,0,0-.231-1.273c-.027-.128.011-.155.115-.077a1.826,1.826,0,0,1,.694,1.466C764.621,585.949,764.506,586.078,764.274,586.078Zm1.312-5.673a10.637,10.637,0,0,1-.811,1.2h2.046l.232-1.2Zm-.54,3.783c-.129-.078-.115-.129.039-.155q1.156.5,1.157,1.235a.2.2,0,0,1-.231.231c-.129,0-.219-.09-.271-.27A2.072,2.072,0,0,0,765.046,584.188Zm1.2-.232c-.077-.1-.052-.154.077-.154q1.352.309,1.351.964c0,.232-.065.347-.192.347s-.232-.09-.309-.27A2.075,2.075,0,0,0,766.242,583.956Z" fill="#000000"/><path d="M769.33,591.1c.1.077.154.141.154.192,0,.077-.051.143-.154.193q-.849.272-3.357,1.39v1.62c0,.233-.1.348-.31.348-.1,0-.154-.077-.154-.232v-1.5a5.517,5.517,0,0,0-1.7,1.119.968.968,0,0,0-.348.656.63.63,0,0,0,.192.463,2.5,2.5,0,0,0,1.621.347,9.765,9.765,0,0,0,2.123-.193,1.178,1.178,0,0,1,.424-.116c.283,0,.425.13.425.387,0,.1-.077.167-.231.192a13.462,13.462,0,0,1-2.547.154,2.9,2.9,0,0,1-2.007-.5.917.917,0,0,1-.309-.655,1.37,1.37,0,0,1,.463-.965,7.69,7.69,0,0,1,1.891-1.273,1.224,1.224,0,0,0-.27-.888.693.693,0,0,0-.5-.154q-.964,0-2.315,1.659a.332.332,0,0,1-.232.115c-.128,0-.193-.115-.193-.346s.052-.374.154-.425a2.163,2.163,0,0,0,.619-.5,10.2,10.2,0,0,0,1.5-2.122q-.309.038-.887.077a4.567,4.567,0,0,1-.54.038c-.1,0-.245-.09-.425-.27a.585.585,0,0,1-.232-.462c.051-.1.1-.09.155.038a.992.992,0,0,0,.887.347,8.441,8.441,0,0,0,1.2-.077,2.8,2.8,0,0,0,.346-.927q.078-.539-.578-.655c-.18-.025-.193-.078-.039-.155a1.976,1.976,0,0,1,1.39.425c.128.1.115.218-.039.347a4.244,4.244,0,0,0-.655.965,6.488,6.488,0,0,0,1.388-.386.666.666,0,0,1,.309-.116.427.427,0,0,1,.27.154c.051.027.077.091.077.194,0,.077-.077.129-.231.154q-.926.154-1.969.309-.5.771-1.042,1.544c-.077.129-.052.167.077.115a2.459,2.459,0,0,1,1.042-.309,1.1,1.1,0,0,1,.811.271,1.311,1.311,0,0,1,.387.848q1.929-.926,2.469-1.235c.128-.051.155-.115.078-.192a1.735,1.735,0,0,0-.541-.232c-.155-.052-.155-.1,0-.154A2.42,2.42,0,0,1,769.33,591.1Z" fill="#000000"/><path d="M763.232,599.969a6.09,6.09,0,0,1-2.161,1.929c-.18.052-.218.013-.116-.116a7.051,7.051,0,0,0,2.161-2.585h-1.852v-.232h1.968v-1.543l.657.115c.205.129.154.219-.156.271v1.157h.541l.5-.5.619.463q.231.193,0,.27h-1.661v.617q1.467.31,1.467.734a.2.2,0,0,1-.231.231.424.424,0,0,1-.271-.154,3.358,3.358,0,0,0-.965-.656v1.736q-.5.463-.5.039Zm-2.006,6.213a6.755,6.755,0,0,0,2.2-2.045l.7.463q.231.309-.464.193a8.479,8.479,0,0,1-2.353,1.5C761.1,606.349,761.071,606.311,761.226,606.182Zm4.785-2.393V605.6a.818.818,0,0,1-.271.655.525.525,0,0,1-.386.154.137.137,0,0,1-.154-.154q0-.194-.231-.27l-.5-.116c-.1-.052-.1-.1,0-.154h.772a.239.239,0,0,0,.27-.271v-1.659h-4.168v-.231h7.487l.5-.5.617.464q.232.192,0,.269Zm-3.126-1.466h4.593l.5-.5.618.463q.231.193,0,.271h-5.712Zm4.824-3.126A7.114,7.114,0,0,0,770.1,601.2a1,1,0,0,0-.58.425,8.7,8.7,0,0,1-1.929-2.316v2.278q-.5.462-.5.038v-1.814a7.221,7.221,0,0,1-2.123,1.7c-.206.051-.245,0-.115-.155a7.991,7.991,0,0,0,2.122-2.161H765.74v-.232h1.352v-1.5l.655.116c.206.129.154.219-.154.27v1.119h1.158l.5-.5.617.463q.231.193,0,.27Zm1.7,6.792c-.1,0-.231-.091-.386-.27a5.467,5.467,0,0,0-1.891-1.274c-.154-.1-.142-.154.039-.154q2.508.657,2.508,1.351Q769.677,605.989,769.407,605.989Z" fill="#000000"/><path d="M763.656,610.173q0-.617.039-1.274t-.694-.694c-.154-.052-.168-.1-.039-.154a2.57,2.57,0,0,1,.425-.039,1.611,1.611,0,0,1,.965.385q.153.117,0,.348a1.525,1.525,0,0,0-.155.463,4.023,4.023,0,0,0-.077.85v3.511a1.142,1.142,0,0,0,1.389,1.351,4.049,4.049,0,0,0,1.969-.463,11.893,11.893,0,0,0,2.044-1.467c.1-.052.142-.025.117.077a7.748,7.748,0,0,1-2.084,1.814,4.247,4.247,0,0,1-2.123.5,1.8,1.8,0,0,1-1.389-.54,1.776,1.776,0,0,1-.387-1.236Zm3.359-.232c-.156.052-.271-.012-.348-.193a2.5,2.5,0,0,0-1-1.08c-.052-.077-.038-.1.039-.077a2.606,2.606,0,0,1,1.157.5.929.929,0,0,1,.31.463C767.22,609.762,767.169,609.891,767.015,609.941Zm-.271-1.967c-.052-.078-.039-.1.038-.078a2.636,2.636,0,0,1,1.158.5.934.934,0,0,1,.309.464c.052.206,0,.334-.154.386s-.271-.013-.348-.193A2.493,2.493,0,0,0,766.744,607.974Z" fill="#000000"/><path d="M765.9,619.279a9.909,9.909,0,0,0,1.5-.231,1.314,1.314,0,0,0,.54-.232.265.265,0,0,1,.348-.039,2.515,2.515,0,0,1,.309.232c.128.129.09.219-.117.27a16.708,16.708,0,0,1-2.585.386v1.7q.771-.077,1.2-.154a1.769,1.769,0,0,0,.694-.193.287.287,0,0,1,.348,0c.128.077.231.141.308.193.1.077.078.154-.077.231a1.665,1.665,0,0,1-.618.116c-.669.077-1.286.13-1.852.154v1.814a12.074,12.074,0,0,1,2.663.849.548.548,0,0,1,.347.54.182.182,0,0,1-.154.193c-.077.026-.193-.013-.348-.116a9.172,9.172,0,0,0-2.508-1.08,1.343,1.343,0,0,1-.27,1,1.92,1.92,0,0,1-1.467.464,1.878,1.878,0,0,1-1.388-.464.734.734,0,0,1-.233-.54.7.7,0,0,1,.31-.579,2.843,2.843,0,0,1,1.7-.386c.18,0,.489.014.927.039v-1.7q-.579.039-1.2.038a1.861,1.861,0,0,1-.964-.192,1.116,1.116,0,0,1-.386-1.081q.077-.155.192,0a1.039,1.039,0,0,0,.194.733,1.415,1.415,0,0,0,.964.232,8.433,8.433,0,0,0,1.2-.078v-1.7a16.316,16.316,0,0,1-1.7.077,4.405,4.405,0,0,1-1.119-.116,1.855,1.855,0,0,1-.965-.617c-.077-.154-.038-.194.117-.116a2.011,2.011,0,0,0,.809.463,6.228,6.228,0,0,0,1.275.077,11.074,11.074,0,0,0,1.582-.116V618.7a1.661,1.661,0,0,0-.117-.81.749.749,0,0,0-.656-.27c-.179.026-.192-.025-.038-.155a1.375,1.375,0,0,1,.5-.077,1.952,1.952,0,0,1,.926.309q.27.154,0,.386a.71.71,0,0,0-.193.579Zm-1.583,4.4a2.582,2.582,0,0,0-1.119.192.6.6,0,0,0-.385.541.573.573,0,0,0,.385.5,1.954,1.954,0,0,0,.888.193,1.564,1.564,0,0,0,1.081-.347,1.154,1.154,0,0,0,.27-.965A10.626,10.626,0,0,0,764.312,623.679Z" fill="#000000"/><path d="M766.127,629.066q1.736-.115,2.315-.193c.155-.025.412-.077.772-.154a.46.46,0,0,1,.386.116,1.733,1.733,0,0,1,.462.463c.052.154-.025.206-.231.154a8.357,8.357,0,0,0-1.968-.193q-.734,0-1.736.077V631a3.942,3.942,0,0,1,.115,1.08,3.662,3.662,0,0,1-2.122,3.512c-.129.025-.154-.013-.077-.115a5.745,5.745,0,0,0,.811-.734,3.544,3.544,0,0,0,.886-2.315.936.936,0,0,1-.809.463,1.069,1.069,0,0,1-.773-.348,1.1,1.1,0,0,1-.269-.81,1.264,1.264,0,0,1,.385-.926,1.049,1.049,0,0,1,.772-.309,1.231,1.231,0,0,1,.617.154v-1.273a22.994,22.994,0,0,0-3.049.617,3.7,3.7,0,0,0-.54.194.365.365,0,0,1-.424-.04,1.725,1.725,0,0,1-.618-.887c0-.128.052-.141.155-.038a.763.763,0,0,0,.733.347,10.792,10.792,0,0,0,1.659-.193q.888-.154,2.084-.271v-1.042q0-.885-.771-.964c-.1-.051-.1-.1,0-.155a1.483,1.483,0,0,1,1.042.194,1.123,1.123,0,0,1,.347.347q.155.193-.039.27A3.5,3.5,0,0,0,766.127,629.066Zm-1.7,1.93a1.1,1.1,0,0,0-.194.656,1.124,1.124,0,0,0,.309.887.53.53,0,0,0,.387.116.57.57,0,0,0,.423-.154,1.3,1.3,0,0,0,.348-.965q0-.847-.656-.848A.671.671,0,0,0,764.429,631Z" fill="#000000"/></g></g></svg>
