<svg xmlns="http://www.w3.org/2000/svg" width="1000" height="988" viewBox="0 0 1000 988"><g id="Artboard"><rect id="Tint" width="1000" height="988" fill="#58595b"/></g><g id="Outline"><path id="上海_アリス幻樂団" data-name="上海■アリス幻樂団" d="M981.132,954.65c-.016-.061-.034-.121-.053-.18-.053-.178-.143-.541-.214-.867a6.04,6.04,0,0,0,.211-1.622c0-.1,0-.205-.006-.3a4.212,4.212,0,0,0,.024-.431,4.52,4.52,0,0,0-.131-1.07,7.881,7.881,0,0,0,.079-1.113,8.4,8.4,0,0,0-.09-1.2l-.009-.065a4.337,4.337,0,0,0-1.212-2.665c.1-.312.187-.622.259-.915a4.615,4.615,0,0,0,2.528-4.113,4.8,4.8,0,0,0-2.338-4.12c-.05-.126-.1-.248-.158-.364a4.54,4.54,0,0,0,.9-2.706,4.243,4.243,0,0,0-.157-1.1,4.862,4.862,0,0,0,1.547-3.471,4.652,4.652,0,0,0-3.765-4.459,4.513,4.513,0,0,0-2.084-7.171,8.66,8.66,0,0,0-1.8-.376,6.875,6.875,0,0,0-.165-.685l-.014-.049a4.663,4.663,0,0,0-4.783-3.454,4.8,4.8,0,0,0-4.668,4.685,4.319,4.319,0,0,0,.063.736c.038.216.08.426.122.634a5.838,5.838,0,0,1,.14.892v2.963c-.01.075-.026.149-.039.223a8.984,8.984,0,0,0-.165,1.363l-.008.371,0,.083-.032,0-.009,0a4.443,4.443,0,0,0-1.095-.138c-.19,0-.367.01-.527.026-.1-.007-.194-.011-.3-.011a5.022,5.022,0,0,0-4.492,3.259,5.466,5.466,0,0,0-1.715-.262c-.121,0-.238.011-.356.017.08-.27.154-.548.217-.842.022-.1.042-.2.059-.3a4.457,4.457,0,0,0,.343-.5q.344-.128.694-.253c.378-.131.853-.295,1.362-.526a5.513,5.513,0,0,0,1.134-.7,4.842,4.842,0,0,0,1.031-.583,6.168,6.168,0,0,0,2.758-4.921,5.022,5.022,0,0,0-2.834-4.433l-.058-.035a5.36,5.36,0,0,0-1.236-.795l-.065-.029a7.281,7.281,0,0,0-2.929-.518,10.437,10.437,0,0,0-1.211.071,4.623,4.623,0,0,0-.587.1h-.106c-.052,0-.1,0-.157,0-.154-.006-.307-.011-.46-.011a13.684,13.684,0,0,0-2.7.314,5.181,5.181,0,0,0-1,.319q-.309.062-.588.141a4.7,4.7,0,0,0-.949-.1,4.88,4.88,0,0,0-.67.047c-.145-.009-.289-.015-.428-.015h-.084a4.467,4.467,0,0,0-.911-.094,5.3,5.3,0,0,0-2.8.9,6.784,6.784,0,0,0-3.486-1.034c-.112-.007-.229-.015-.351-.025l-.023,0a7.682,7.682,0,0,0-1.158-.1h-.086c-.088,0-.175,0-.262.009l-2.144.14c-.085.006-.169.014-.254.025a6.211,6.211,0,0,0-.685.131,5.971,5.971,0,0,0-.657.116,6.515,6.515,0,0,0-3.2-.9,4.792,4.792,0,0,0-1.818.37,4.365,4.365,0,0,0-2.664,2.868c-.208.265-.382.518-.532.735-.056.081-.108.16-.158.228-.107.114-.254.25-.4.391a8.049,8.049,0,0,0-1.651,1.953,4.561,4.561,0,0,0-.549,2.2,5.913,5.913,0,0,0,.732,2.757,9.78,9.78,0,0,0-1.126,3.73,5.072,5.072,0,0,0,.309,1.726l.008.027a5.642,5.642,0,0,0,1.083,2.139,4.762,4.762,0,0,0-.663,2.381,7.1,7.1,0,0,0,.249,1.95,4.831,4.831,0,0,0-.232,1.5v.3a7.06,7.06,0,0,0,.053.876,4.435,4.435,0,0,0-.653,2.321,5.549,5.549,0,0,0,.532,2.4,4.465,4.465,0,0,0-.274,1.53,4.4,4.4,0,0,0,1.4,3.193,5.005,5.005,0,0,0-.308.643c-.013.035-.025.069-.037.1a17.74,17.74,0,0,0-.692,3.393c0,.06,0,.138,0,.23a19.323,19.323,0,0,0-.229,3.061c0,.2-.007.392-.013.587,0,.123-.015.276-.024.428-.022.328-.046.7-.046,1.121,0,3.774,2.006,6.575,5.109,7.134.062.011.124.02.186.029a4.25,4.25,0,0,0,.643.05,4.559,4.559,0,0,0,1.082-.133l.077-.018a7.016,7.016,0,0,1,1.56-.192,5.077,5.077,0,0,0,.54.03,6.242,6.242,0,0,0,1.183-.122c.57.011,1.19.068,1.843.129.834.077,1.779.165,2.771.165a8.025,8.025,0,0,0,1.484-.158l.091-.009a5.206,5.206,0,0,0,3.744-1.908,7.713,7.713,0,0,0,1.233.3l.088.015a4.347,4.347,0,0,0,1.23.168,6.147,6.147,0,0,0,2.6-.64,4.676,4.676,0,0,0,.77-.482,6.3,6.3,0,0,0,1.526-.821c.113-.086.2-.151.3-.216a9.294,9.294,0,0,0,1.487-1.261c.042-.045.083-.09.122-.134l.13.1.047.036c.087.092.182.188.277.283l.02.02a4.746,4.746,0,0,0,.423.61,6.547,6.547,0,0,0,4.6,2.352,4.505,4.505,0,0,0,1.007-.119,4.75,4.75,0,0,0,2.694,1.305,4.033,4.033,0,0,0,.6.045h.12a7.476,7.476,0,0,0,.84-.056l.047,0a4.877,4.877,0,0,0,.692.046,6.772,6.772,0,0,0,1.054-.1,3.764,3.764,0,0,1,.644-.061,4.582,4.582,0,0,1,.722.064,5.056,5.056,0,0,0,.924.077,6.643,6.643,0,0,0,1.409-.163,5.485,5.485,0,0,0,1.524.194,13.186,13.186,0,0,0,2.156-.206c.425.033,1.17.125,1.517.18a4.271,4.271,0,0,0,.974.1,4.774,4.774,0,0,0,4.6-4.779,4.8,4.8,0,0,0-.038-.6,15.978,15.978,0,0,0,.21-2.817A5.572,5.572,0,0,0,981.132,954.65Zm-33.514-31.2-.158.049a5.236,5.236,0,0,0-.6.224c-.022,0-.045.011-.067.015.009-.063.019-.141.028-.218A5.5,5.5,0,0,0,947.618,923.45Z" fill="#fff"/></g><g id="Text"><path d="M348.541,859.994c-.485.116-.725.028-.758-.11-.05-.208.247-.5.82-.855,13.764-8.558,23.384-22.2,22.805-24.626-.315-1.314-2.488-1.526-4.331-1.891-.931-.217-1.845-.365-1.96-.85a3.57,3.57,0,0,1,2.406-2.184c2.215-.53,9.722,1.482,10.3,3.906.3,1.246-1.321,2.436-2.112,3.723C365.6,853.283,350.34,859.564,348.541,859.994Zm47.1-21.574a37.666,37.666,0,0,0-14.992-10.982c-1.2-.443-1.891-.866-1.957-1.142-.032-.139.09-.241.3-.291,3.115-.744,20.385,3.838,22.155,11.247.43,1.8-.275,3.139-1.452,3.42C398.584,840.937,397.123,840.334,395.64,838.42Zm.3-13.757c-2.551-2.1-5.406-3.026-7.241-4.271-.7-.491-1.01-.856-1.06-1.064s.072-.309.28-.359,8.126.619,10.349,2.576a4.159,4.159,0,0,1,1.259,1.894,1.661,1.661,0,0,1-1.094,2.165A2.986,2.986,0,0,1,395.939,824.663Zm4.576-5.046c-2.913-2.085-5.413-2.438-7.283-3.528-.756-.405-1.133-.755-1.2-1.032-.033-.139.072-.311.349-.376.07-.017,7.871.168,10.221,1.729a3.1,3.1,0,0,1,1.466,1.846,1.636,1.636,0,0,1-1.11,2.094A3.034,3.034,0,0,1,400.515,819.617Z" fill="#000000"/><path d="M426.083,836.854a1.544,1.544,0,0,0,1.649.776c2.285-.546,19.72-18.545,29.074-34.832a6.365,6.365,0,0,1,1.542-2.124.154.154,0,0,1,.172.105c.711,2.977-11.126,23.883-26.345,39.522-.819.854-1.051,3.252-2.713,3.648-1.315.315-6.806-1.226-7.121-2.542-.2-.831.52-1.807.215-4-.482-3.545-1.257-7.092-2-10.208-.546-2.285-1.1-4.276-1.512-5.713-1.5-5.056-3.907-4.409-8.168-4.781-.828-.1-1.155-.236-1.221-.514-.132-.553.971-2.06,2.426-2.408,3.184-.761,10.591.835,11.3,3.812a13.347,13.347,0,0,1-.033,3.228c-.136,3.107,1.973,12.849,2.585,15.41Z" fill="#000000"/><path d="M474.652,818.953a24.891,24.891,0,0,0-3.262-3.539c-3.454-3.127-3.454-3.127-3.5-3.335a.3.3,0,0,1,.263-.428c1.385-.331,9.6,2.828,10.416,6.22a2.149,2.149,0,0,1-1.2,2.629C476.6,820.682,475.536,820.205,474.652,818.953ZM472.7,840.5c-.554.133-.864.061-.913-.146-.067-.278.318-.809,1.327-1.49,11.548-8.029,19.324-26.939,18.5-30.4-.215-.9-.951-1.529-2.327-2.079-.172-.106-.311-.072-.481-.177-.6-.369-.618-.437-.668-.645-.181-.762,1.034-1.492,1.312-1.558,1.593-.381,6.419,2.052,6.948,4.268.05.208.133.553-.434,1.859a6.863,6.863,0,0,0-.513,1.222C489.3,831.26,476.162,839.669,472.7,840.5Zm8.9-25.839a37.821,37.821,0,0,0-4.852-6.525,1.631,1.631,0,0,1-.357-.573c-.05-.208-.013-.363.194-.413,1.246-.3,8.167,3.245,8.912,6.36.182.763.3,2.489-1.291,2.87C483.377,816.574,482.365,816.012,481.6,814.657Z" fill="#000000"/><path d="M518.567,806.7c.6,2.492,1.142,4.778,1.658,6.63.949,3.359,1.671,5.456,2.216,7.74,1.258,5.262.323,7.169-.786,7.435-.415.1-2.4.354-3.743-5.254-.612-2.562-.337-4.164-.764-6.258-1.476-7.4-4.581-21.008-6.533-29.177-.877-3.67-1.583-3.866-5.932-4-.294,0-1.105-.028-1.238-.582a3.293,3.293,0,0,1,2.6-2.89c.831-.2,7.891-.057,8.537,2.643.28,1.177-.22,2.76.069,4.888.256,1.987,1.028,5.828,1.914,10.154a1.4,1.4,0,0,1,.537-.2c.676-.234,1.438-.417,2.2-.6,7.962-1.9,13.147-.725,13.891,2.39a2.129,2.129,0,0,1-1.634,2.658,4.548,4.548,0,0,1-2.895-.478c-3.042-1.4-7.877-2.948-11.452-2.9a.9.9,0,0,1-.431.032C517.326,801.509,517.972,804.209,518.567,806.7Z" fill="#000000"/><path d="M572.034,771.017c1.8-.431,7.626.373,8.057,2.172.148.623-.187,1.363-1.076,2.234a6.247,6.247,0,0,0-2.144,3.587c-3.517,12.843-14.468,33.17-31.337,41.594a12.263,12.263,0,0,1-2.063.858c-.346.083-.571.063-.6-.074-.066-.278.6-.875,2.039-1.879,18.241-12.483,28.085-39.28,27.125-43.295-.165-.693-.63-.8-1.6-.569-3.74.893-11.895,4.745-16.426,7.218a10.535,10.535,0,0,1-2.34.926c-2.978.711-10.329-1.265-10.71-2.856-.05-.208-.21-1.489.413-1.637a2.228,2.228,0,0,1,1.122.1,23.357,23.357,0,0,0,9.893.05l.345-.083c3.742-1.186,11.583-4.816,16.575-6.595.537-.2,1.6-1.261,2.452-1.685Z" fill="#000000"/><path d="M601.4,804.764a3.845,3.845,0,0,1-.242-1.626l-.026-.725a6.782,6.782,0,0,0,.064-1.26c-.473-2.594-.967-4.965-1.529-7.318-.331-1.385-.731-2.754-1.079-4.208l-.165-.692c-7.021,12.583-15.545,18.865-17,19.212-.277.067-.363.014-.4-.125-.082-.345.514-1.22,1.526-2.194,7.985-7.618,16.488-25.018,15.992-27.1-.017-.069-.133-.554-1.353-1.067l-1.171-.307c-.62-.143-.91-.44-.992-.787-.1-.415.529-1.15,1.706-1.431,1.661-.4,6.19.789,6.637,2.658a2.194,2.194,0,0,1-.45,1.791l-.6,1.168c-.69,1.7-1.5,3.506-2.349,5.172l.069-.017a2.79,2.79,0,0,1,1.481,1.915,12.82,12.82,0,0,1,.209,1.487,42.966,42.966,0,0,0,1.014,5.466c.629,2.631,1.362,5.091,2.5,8.918a14.992,14.992,0,0,1,.467,1.645c.43,1.8.615,3.8-.977,4.185-1.384.33-2.057-1.264-3.217-4.281Z" fill="#000000"/><path d="M624.355,779.226c-.54-2.872-1.162-6.09-1.923-9.276a81.282,81.282,0,0,0-3-10.113c-.757-1.942-2.853-1.222-6.013-1.272-.587,0-.948.008-1.031-.338a2.958,2.958,0,0,1,2.533-2.873c2.353-.563,8.3.136,8.749,2,.149.623-.032,1.4.15,2.161.661,2.77,1.453,6.386,2.3,9.918.646,2.7,1.344,5.313,1.943,7.512.9,3.153.044,5.7-1.272,6.013-.762.182-1.685-.622-2.231-2.907Zm-3.346,27.951c-.207.05-.363.013-.379-.056-.049-.207.458-.841,1.729-1.95,9.549-8.429,14.557-21.775,13.045-32.392-.1-.709-.693-4.737-3.936-18.307-.463-1.939-.784-2.667-3.86-2.371-.571.063-1.037-.045-1.12-.391a3.366,3.366,0,0,1,2.5-2.72c2.076-.5,7.051,1.023,7.431,2.615.2.831-.381,1.775-.219,2.76.707,5.1,2.9,13.36,3.485,18.562,1.276,11.77-4.915,25.985-16.522,33.15A10.3,10.3,0,0,1,621.009,807.177Z" fill="#000000"/><path d="M685.725,745.678c-10.118,3.295-17.409,7.087-21.466,8.788a13.833,13.833,0,0,1-1.628.536c-3.877.927-12.071-1.507-12.469-3.169,0,0-.33-1.385.225-1.517a7.118,7.118,0,0,1,1.9.279,28.366,28.366,0,0,0,11.448-.174c3.877-.927,9.968-3.919,20.725-7.3a3.261,3.261,0,0,0,1.289-1.04,2.138,2.138,0,0,1,1.147-.713c2.284-.546,9.218,1.823,9.549,3.208.347,1.453-3.4,2.933-4.462,3.992a129.521,129.521,0,0,1-9.951,8.892,7.786,7.786,0,0,1-.236,1.155c-.989,8.726-8.052,28.783-24.876,39.537a13.417,13.417,0,0,1-3,1.523c-.208.049-.363.013-.38-.056-.066-.277.616-1.1,2.515-2.649,14.817-12.106,21.8-34.339,20.924-38.008-.48-2.008-3.531-.987-5.572-.646-.777.114-1.384.331-1.5-.153-.049-.208-.3-2.783,3.648-3.726,2.7-.645,7-.428,8.14.983.855-1.01,6.8-7.992,6.484-9.308-.15-.623-1.2-.737-2.1-.522Z" fill="#000000"/><path d="M716.861,746.012a1.941,1.941,0,0,1-1.215,2.466,2.868,2.868,0,0,1-2.577-1.029,19.061,19.061,0,0,0-6.678-3.76c-.238-.1-.363-.179-.374-.228-.024-.1.115-.188.366-.247C708.087,742.807,715.95,742.2,716.861,746.012Zm40.868,21.679c.1-.024.162.014.174.065.108.451-2.813,3.536-3.156,5.208a1.334,1.334,0,0,1-.762,1.03,125.564,125.564,0,0,1-12.95,3.944c-5.166,1.234-15.714,3.7-20.01-4.075-.808,1.944-3.14,5.948-4.771,8.883-.1.236.024,1.214-.477,1.334-.7.168-4.615-2.45-4.664-2.65-.023-.1.053-.225.292-.335,2.087-1.03,5.109-4.138,6.974-6.545.684-.906.385-2.161-1.438-9.785-.311-1.3-.625-2.4-.756-2.948a.557.557,0,0,0-.735-.408l-.891.267c-.839.254-2.94,1.232-3.881,1.511l-.05.011c-.8.192-2.675-1.429-2.842-2.132,1.715-.144,5.183-.5,6.337-.771l.15-.036.79-.242a1.141,1.141,0,0,0,.7-.643c.754-1.506,1-1.566,1.155-1.6.5-.12,4.521.722,4.809,1.926.131.552-.526,1.133-.979,1.454-.63.468-1.206.5-1.03,1.678.233,1.642.767,4.324,1.331,6.682.252,1.052.542,2.044.734,2.846a4.6,4.6,0,0,0,.61,1.445c2.64,3.506,7.858,3.372,14.881,1.694,6.471-1.547,14.631-4.451,19.893-7.512A2.5,2.5,0,0,1,757.729,767.691Zm-9.009-23.723c.071.3-.108.661-.91.852l-15.752,3.765c-1.906.455-7.462,1.836-10.726,3.041-.652.156-2.813-1.343-2.945-1.895a124.1,124.1,0,0,0,13.171-2.352l.151-.036-1.091-4.566a65.7,65.7,0,0,0-7.818,2.347l-.05.012c-.853.2-2.728-1.2-2.884-1.858a79.523,79.523,0,0,0,10.452-1.754l-.131-.551a25.559,25.559,0,0,0-1.93-5.85.912.912,0,0,1-.12-.29c-.025-.1.024-.111.075-.123.15-.036,5.32-.37,5.548.583.072.3-.156.674-.548,1.032-.91.855-1.168.439-.655,2.808.132.552.225,1.166.369,1.768l4.163-1a.955.955,0,0,0,.645-.631c.928-2.555,1.216-2.677,1.517-2.75.352-.084,4.369.972,4.705,2.376.071.3-.046.7-.849.892l-9.881,2.361,1.09,4.566,7.275-1.739a.882.882,0,0,0,.5-.544c.3-.974,1.269-2.9,1.67-3C744.369,741.3,748.468,742.914,748.72,743.968Zm4,19.192c.072.3-.071.6-.772.768l-12.691,3.033,1.229,4.479.012.049c.228.954-.717,1.657-1.42,1.824a1.231,1.231,0,0,1-1.641-.879l-.024-.1-.915-4.713a95.974,95.974,0,0,0-9.773,2.814l-.05.011c-.953.228-2.715-1.154-2.871-1.805a120.947,120.947,0,0,0,12.407-2.223c-.321-1.567-.644-3.135-.943-4.389a73.722,73.722,0,0,0-7.317,2.226l-.05.013c-.9.214-2.664-1.167-2.82-1.82a78.939,78.939,0,0,0,9.887-1.673c-.084-.351-.217-.691-.277-.941-.327-1.142-.6-2.295-.942-3.274-2.647.685-6.335,1.672-8.821,2.585l-.05.011c-.853.2-2.627-1.227-2.782-1.88a104.794,104.794,0,0,0,13.309-2.439l.653-.155a.185.185,0,0,1,.013-.162,16.362,16.362,0,0,0,.564-6.074c-.045-.413-.12-.5.031-.538.8-.191,4.893.951,5.085,1.754.072.3-.231.587-.883.742l-.551.132c-.4.1-.605.357-.922.8-.406.52-1.776,2.333-2.486,3.138l5.168-1.235a.949.949,0,0,0,.594-.619,4.805,4.805,0,0,1,1.566-2.548.56.56,0,0,1,.387.067c.337.079,3.744.8,4.08,2.206.072.3-.057.65-.76.818l-10.834,2.59.162.014c.488.042.686.207.734.408a.851.851,0,0,1-.346.771c-.568.507-.642.419-.442,1.7.1.4.165.916.308,1.517l3.111-.743c.251-.06.441-.371.594-.619a19.328,19.328,0,0,1,1.348-2.125.815.815,0,0,1,.365-.247c.4-.1,4.071.831,4.369,2.084.073.3-.055.65-.758.818l-8.729,2.086c.312,1.3.722,2.8,1.144,4.341l6.721-1.607a1.04,1.04,0,0,0,.645-.631c.322-.874,1.18-2.828,1.581-2.923C748.673,760.417,752.411,761.855,752.723,763.16Zm-20.162-10.029a1.777,1.777,0,0,1-1.073,2.165c-.552.132-1.25-.125-1.9-1.082a11.1,11.1,0,0,0-3.037-2.722c-.26-.2-.384-.279-.4-.33,0,0-.011-.049.491-.169C729.012,750.479,732.033,750.924,732.561,753.131Z" fill="#000000"/><path d="M775.241,766.383a7.618,7.618,0,0,1-1.065.317c-.6.144-.974.17-1.017-.011s.53-.7,2.064-1.444c17.123-8.467,22.044-18.643,20.309-25.9-1.934-8.1-12.363-11.946-19.26-10.3-6.777,1.619-11.582,7.777-13.721,13.678a9.552,9.552,0,0,0-.161,5.425c.831,3.48,3.333,7.319,5.252,6.86,3.119-.745,10.666-13.2,8.86-20.755-.431-1.8-1.262-2.362-1.77-2.367-.822.007-1.195-.221-1.252-.461-.085-.361.443-.8,1.1-.961,2.278-.544,3.772,1.19,4.432,3.95,2.436,10.195-8.2,25.1-12.161,26.045-1.26.3-2.437-.114-2.941-1.96a15.647,15.647,0,0,0-1.857-4.058,15.364,15.364,0,0,1-2-4.4,13.094,13.094,0,0,1,.864-8.321c3.31-7.638,8.945-12.979,15.782-14.613,8.875-2.121,20.67,2.668,22.892,11.964C801.667,747.768,794.983,759.065,775.241,766.383Z" fill="#000000"/><path d="M734.468,833.045a99.857,99.857,0,0,0-10.308,3.019,5,5,0,0,1-2.033-2.53,127.545,127.545,0,0,0,13.205-2.52,3.026,3.026,0,0,1-2.436-1.561c-1.658-2.619-1.487-4.564-4.875-6.453-.28-.171-.3-.246-.315-.32l-4.281,1.34a5.789,5.789,0,0,1-1.941-2.473,111.176,111.176,0,0,0,12.737-2.488l1.051-.251-.287-1.2a34.971,34.971,0,0,0-1.126-3.381,8.122,8.122,0,0,1-.548-1.3l-.037-.151a7.748,7.748,0,0,1-2.651,1.19l-.676.161c-1.5.358-2.96.231-3.489-.99l-10.36,2.475c3.229,13.512,7.792,31.942,8.169,33.519.794,2.984,2.39,9.665,2.515,10.19l.054.225c.771,3.227-3.565,4.343-4.766,4.63-2.252.538-4.591.384-5.057-1.569l-.035-.149c-.613-5.885-6.667-33.878-10.722-50.843a92.593,92.593,0,0,0-3.778-12.824c-.2-.507-.366-.865-.4-1.015-.054-.225,0-.318.229-.373,4.579-1.093,11.784.835,12.341,1.178l7.282-1.74a15.466,15.466,0,0,1,2.257-4.506.686.686,0,0,1,.357-.166c1.576-.377,8.571,2,9.056,4.025.214.9-.507,1.867-1.9,2.677.377,1.575,1.643,5.876,2.259,7.792.251,1.051.725,2.366.94,3.267a2.542,2.542,0,0,1-1.207,2.589l1.051-.251c3.153-.753,9.377-1.607,9.718-.18.125.525-.35,1.194-1.929,1.89.215.9.427,2.119.624,2.945l4.28-1.022a43.14,43.14,0,0,1,2.354-5.087.825.825,0,0,1,.472-.35c.9-.216,7.164,2.414,7.5,3.84.179.751-.893,1.245-1.418,1.371l-11.861,2.834c2.006-.24,8.538-.136,8.933,1.515.144.6-.65,1.267-2.208,1.718a50.745,50.745,0,0,1-5.593,6.814l5.7-1.364a57.7,57.7,0,0,1,2.657-5.158.581.581,0,0,1,.453-.426c1.05-.252,8.139,2.181,8.5,3.682.162.676-.91,1.17-1.437,1.295Zm-11.451-34.639-8.332,1.992a5.562,5.562,0,0,1-1.644,1.424c.086.694.388,2.287.907,4.465l10.361-2.475Zm1.7,7.132-10.361,2.476c.337,1.744.8,3.695,1.325,5.873l10.359-2.476c-.179-.751-.3-1.595-.517-2.495Zm18.792,23.521a48.542,48.542,0,0,0-.48-9.647,2.8,2.8,0,0,0-.182-.432l-.018-.076-9.759,2.332a37.635,37.635,0,0,0-4.918,1.335l.3-.071c2.478-.592,9.691-1.285,10.785,3.294a4.321,4.321,0,0,1-2.334,4.843ZM778.281,839.4c1.74,7.282-5.517,12.111-7.769,12.649a3.811,3.811,0,0,1-4.013-1.185c-1.683-2.057-3.309-2.224-6.226-2.478l.09.375c.485,2.027-2.675,3.416-4.252,3.793-1.426.342-3.129.192-3.469-1.234l-.337-1.745-10.735,2.565.5,2.1c.467,1.952-3.143,3.449-4.644,3.808-1.576.377-2.845.045-3.132-1.154l-.072-.3c-.236-2.643-1.593-10.65-2.4-14.028a48.5,48.5,0,0,0-1.846-6.066c-.089-.375-.218-.582-.254-.732-.018-.075-.036-.151.94-.383,2.212-.37,7.015.467,8.378.854.074-.018.093.057.168.039l9.383-2.243a17.068,17.068,0,0,1,1.77-2.883c.133-.11.19-.2.34-.239,1.05-.251,6.993.709,7.352,2.211a2.436,2.436,0,0,1-1.486,2.417l.234.977c.628,2.627,2.345,8.485,3.092,10.608l.6-.144c4.729-1.129,8.961-3.013,7.867-7.593l-8.2-34.3-10.66,2.548c-.241,1.643-2.536,2.669-4.788,3.207l-.3.072c-1.877.448-3.614.149-3.955-1.277l-.072-.3a83.839,83.839,0,0,0-2.359-12.529c-.452-1.558-.994-3.492-1.685-5.39-.254-.732-.512-1.147-.566-1.372s.022-.243.246-.3c3.678-.879,10.8.356,11.727.927l7.807-1.866A21.488,21.488,0,0,1,758,784.413c.264-.222.3-.391.6-.462,1.351-.323,9.129,2.341,9.542,4.069.215.9-.7,2.069-2.315,2.933.125.526.356,1.818.785,3.62,2.619,10.96,10.378,40.767,11.558,44.374Zm-29.259-3.561-10.509,2.512-.058.092c.194,1.144.607,2.871,1.056,4.748l10.66-2.548Zm1.579,6.6-10.735,2.566,1.292,5.406,10.735-2.566Zm6.045-52.07-8.933,2.135a5.262,5.262,0,0,1-1.38,1.2c.177,1.068.59,2.8,1.02,4.6l10.585-2.53Zm1.705,7.132-10.585,2.529c.268,1.125.445,2.2.642,3.021.215.9.56,2.009.757,2.835l10.584-2.531Z" fill="#000000"/><path d="M797.485,788.625c-3.077.735-16.814,4.019-22.168,5.854a5.8,5.8,0,0,1-2.032-2.531c7.03-1.124,25.364-5.427,25.364-5.427l3.679-.878a103.547,103.547,0,0,0-2.9-10.5c-.273-.808-.53-1.222-.584-1.447-.09-.376.512-.519,2.312-.949,3.453-.826,11.382-1.848,11.849.1.144.6-.428,1.532-2.329,2.541.191,1.461,1.282,6.359,1.641,7.861l13.286-3.175a66.771,66.771,0,0,1,3.651-8.967,1.026,1.026,0,0,1,.546-.368c2.177-.52,11.48,4.874,11.8,6.225.2.826-.726,1.285-1.251,1.41Zm44.246,27.754c1.973,8.256-6.035,13.265-8.211,13.785a3.185,3.185,0,0,1-3.709-1.574c-1.232-2.164-3.69-3.483-6.357-4.352-1.026-.31-1.53-.427-1.566-.578l.15-.036a9.99,9.99,0,0,1,1.293-.229c.6-.145,1.22-.213,1.82-.356a26.1,26.1,0,0,0,4.283-1.342c1.336-.715,3.208-2.511,2.651-4.839l-4.018-16.814c-.287-1.2-.72-2.685-1.1-3.943l-11.56,2.762,1.04,4.354c2.35,9.834,5.605,22.785,7.014,27.685.8,2.666,1.322,4.207,1.864,6.14.2.826.378,3.243-5.327,4.606-2.327.557-4.837.68-5.34-1.421l-.035-.151c-2.223-11.292-3.608-18.42-8.523-38.988l-8.408,2.009a8.6,8.6,0,0,1-1.754,1.293c.1.768.552,2.645,1.144,5.122,1.256,5.254,3.25,13.268,4.653,18.805.721,2.685,1.3,4.132,1.771,6.083l.018.076c.646,2.7-2.792,3.92-5.419,4.548-2.027.485-4.03.408-4.5-1.544l-.054-.226c-.787-5.286-4.54-22.323-5.366-25.775a92.586,92.586,0,0,0-2.748-9.5c-.2-.508-.329-.715-.382-.942-.018-.075-.054-.225,1.147-.512a32.211,32.211,0,0,1,11.059.453c.186.114.354.153.465.286l7.958-1.9a85.221,85.221,0,0,0-2.673-9.518c-.183-.433-.329-.716-.366-.865s.022-.245,1.073-.5c2.5-.516,11.74-2.01,12.223.015.145.6-.371,1.439-2.289,2.373.069.618.549,2.963,1.338,6.267l10.96-2.619c.349-1.2,1.541-4.178,2.216-4.339,2.1-.5,10.592,2.15,11.041,4.027.179.75-.467,1.7-2.464,2.97.14.918.391,1.969.678,3.17,1.076,4.5,2.884,10.738,4.218,15.657Z" fill="#000000"/><path d="M857.513,781.5c-2.384.649-5.125,1.463-8.508,2.589a4.32,4.32,0,0,1-1.939-2.473c2.942-.306,7.013-1.2,10.034-1.843-2.153-9.007-3.161-12.893-3.959-15.242-.273-.807-.531-1.221-.584-1.446-.108-.451,2.519-1.078,2.669-1.114,2.628-.628,9.167-1.16,9.579.567.143.6-.447,1.455-2.311,2.615.121.844,1.356,6.342,2.787,12.665l.527-.126c.466-1.7,1.122-5.266,1.942-6.812.1-.262.229-.371.379-.407.976-.234,7.261,3.818,7.71,5.695.179.751-.593,1.174-1.118,1.3l-9.027,2.077c1.5,6.623,3.226,13.829,4.123,17.583a92.274,92.274,0,0,0,8.248-4.669,17.5,17.5,0,0,1,2.694-1.676c.075-.018.075-.018.094.057.125.526-7.46,11.623-19.482,21.082a2.107,2.107,0,0,1,.236.657c.251,1.052-.038,1.835-.713,2-2.028.485-8.191-8.041-8.406-8.941-.107-.451.414-.258,1.411-.735,2.6-1.1,5.455-2.414,8.295-3.807Zm42.458,32.228a47.251,47.251,0,0,0,4.858-.924c5.179-1.238,8.087-3.677,5.57-17.2l-1.127.269a49.249,49.249,0,0,1-30.031,31.062c-.3.071-.469.032-.486-.042-.036-.151.36-.484,1.266-1.017,16.144-9.81,20.134-26.315,21-32.635.061-.411-.028-.786.161-.99l-7.207,1.722c.168.04,5.829,1.147,6.133,2.423.073.3-.156.672-.981.87a4.459,4.459,0,0,1-.918.14c-5.662,11.51-14.558,19.111-28.639,24.936a10.653,10.653,0,0,1-1.166.437c-.3.072-.543.05-.561-.025-.035-.15.418-.575,1.416-1.052,12.439-6.386,20.34-20.811,21-26.681l-.036-.151-.6.144c-7.652,10.477-20.149,16.957-20.374,17.009-.15.037-.168-.039-.187-.113s.211-.448.74-.891c8.334-7.626,14.676-17.95,15.2-23.074-3.885,1.008-8.879,2.361-11.811,3.379a4.938,4.938,0,0,1-1.938-2.472c4.311-.555,14.013-2.794,17.689-3.673l19.292-4.611c2.683-7.7,2.683-7.7,3.358-7.865,1.726-.412,8.928,3.818,9.412,5.846.179.75-.647.947-1.1,1.055l-29.426,7.033c4.094.528,4.481,1.15,4.571,1.525.161.676-.671,1.51-2.3,1.979l-1.582,2.679,16.89-4.036a12.934,12.934,0,0,1,1.888-3.387c.53-.444.418-.576.569-.612,2.551-.609,10.061,2.6,10.456,4.246.179.751-.317,1.662-2.089,2.879,1.891,10.9,4.134,21.945-7.374,26.918a5.95,5.95,0,0,1-1.109.344c-1.275.3-2.491.2-3.064-.537-1.628-1.833-3.761-3.783-7.145-4.006-.9-.1-1.421-.3-1.457-.445-.018-.076.189-.2.639-.313Zm-1.641-38.412-11.261,2.691c.381,1.258.578,2.084.65,2.385l.036.15c.52,2.177-2.171,3.533-4.705,4.219-2.028.484-3.766.185-4.178-1.541l-.054-.225c-.524-3.525-1.275-8.662-2.692-14.593-.521-2.176-.915-3.827-1.35-5.311a50.361,50.361,0,0,0-1.61-5.408c-.254-.733-.494-1.073-.548-1.3s0-.319.3-.391c2.476-.592,8.683.148,10.9.807a1.119,1.119,0,0,1,.372.228l8.558-2.045c.391-1.68,1.881-4.417,2.631-4.6,1.5-.36,8.871,1.925,9.32,3.8.215.9-.562,1.959-1.9,2.676l.43,1.8c1,4.2,2.991,11.188,3.464,12.5a32.677,32.677,0,0,1,1.087,3.55c.753,3.153-4.708,4.537-4.858,4.573-1.727.412-3.746.26-4.213-1.692Zm-4.559-18.748-9.534,2.279a5.356,5.356,0,0,1-1.4,1.127c.193,1.144.675,3.489,1.356,6.341l11.26-2.691Zm4.128,16.947c-.322-1.351-1.129-4.729-2.03-8.164l-11.261,2.691,1.58,6.605.469,1.633,11.26-2.69Zm4.188,18.519.243.022a26.737,26.737,0,0,1,7.749,1.878c-.268-1.126-.557-2.328-.786-3.622Z" fill="#000000"/><path d="M479.079,847.436v-1.423h4.6V861.33h1.85v1.4h-5.217v-1.4h1.66V847.436Z" fill="#000000"/><path d="M492.2,847.2a6.088,6.088,0,0,1,4.007-1.565,5.681,5.681,0,0,1,3.889,1.612,5.17,5.17,0,0,1,1.66,3.7v6.877a4.936,4.936,0,0,1-1.612,3.652,5.969,5.969,0,0,1-4.032,1.541,5.857,5.857,0,0,1-4.078-1.565,5.327,5.327,0,0,1-1.565-3.842v-6.781A4.907,4.907,0,0,1,492.2,847.2Zm1.043,1.091a3.505,3.505,0,0,0-1.162,2.489v7.09a3.7,3.7,0,0,0,1.162,2.609,4.123,4.123,0,0,0,5.739,0,3.464,3.464,0,0,0,1.162-2.466v-7.233a3.546,3.546,0,0,0-1.187-2.513,4.053,4.053,0,0,0-2.8-1.161A4.281,4.281,0,0,0,493.238,848.289Z" fill="#000000"/><path d="M505.523,847.2a6.093,6.093,0,0,1,4.008-1.565,5.679,5.679,0,0,1,3.889,1.612,5.17,5.17,0,0,1,1.66,3.7v6.877a4.936,4.936,0,0,1-1.612,3.652,5.968,5.968,0,0,1-4.031,1.541,5.862,5.862,0,0,1-4.08-1.565,5.331,5.331,0,0,1-1.564-3.842v-6.781A4.91,4.91,0,0,1,505.523,847.2Zm1.044,1.091a3.509,3.509,0,0,0-1.162,2.489v7.09a3.7,3.7,0,0,0,1.162,2.609,4.123,4.123,0,0,0,5.739,0,3.464,3.464,0,0,0,1.162-2.466v-7.233a3.553,3.553,0,0,0-1.186-2.513,4.057,4.057,0,0,0-2.8-1.161A4.281,4.281,0,0,0,506.567,848.289Z" fill="#000000"/><path d="M520.3,846.013v4.149h1.944v1.4H520.3v9.768h1.9v1.4h-3.462V851.562h-1.9v-1.4h1.9v-4.149Z" fill="#000000"/><path d="M527.746,861.33h1.9v1.4h-5.36v-1.4h1.9V847.436h-1.9v-1.423h3.462v6.022a4.135,4.135,0,0,1,3.937-2.157,4.929,4.929,0,0,1,3.7,1.518,4.552,4.552,0,0,1,1.375,3.01v6.924h1.9v1.4h-5.359v-1.4h1.9v-5.667c.024-2.632-.949-4.267-3.6-4.292-2.348,0-3.818,1.612-3.842,4.909Z" fill="#000000"/><path d="M558.577,857.655a5.284,5.284,0,0,1-1.233,3.509,4.657,4.657,0,0,1-3.7,1.565h-6.5v-1.446H549V847.436h-1.85v-1.423h6.166a4.63,4.63,0,0,1,3.913,6.52,3.981,3.981,0,0,1-1.209,1.234A4.053,4.053,0,0,1,558.577,857.655Zm-8.015-4.363h1.708c2.845-.071,3.77-1.3,3.7-2.94a2.44,2.44,0,0,0-1.115-2.182,4.026,4.026,0,0,0-2.158-.593h-2.134Zm0,1.541v6.4h2.277a4.6,4.6,0,0,0,3.2-.924,2.947,2.947,0,0,0,.877-2.229c.024-1.873-1.02-3.178-3.983-3.249Z" fill="#000000"/><path d="M566.5,861.33v1.4h-5.359v-1.4h1.9V847.436h-1.9v-1.423H564.6V861.33Z" fill="#000000"/><path d="M569.963,861.117a6.835,6.835,0,0,1-1.9-4.719,7,7,0,0,1,1.731-4.5,6.012,6.012,0,0,1,4.671-2.111,6.313,6.313,0,0,1,4.98,2.111v-1.8h3.462v1.423h-1.9v9.816h1.9v1.4H579.4v-1.778a6.567,6.567,0,0,1-4.742,2.111A6.452,6.452,0,0,1,569.963,861.117ZM578,860.05a5.239,5.239,0,0,0-.047-7.279,4.653,4.653,0,0,0-3.391-1.518,4.749,4.749,0,0,0-3.32,1.47,5,5,0,0,0-1.517,3.557,5.686,5.686,0,0,0,1.328,3.675,4.607,4.607,0,0,0,3.556,1.636A4.773,4.773,0,0,0,578,860.05Z" fill="#000000"/><path d="M587.656,860a4.427,4.427,0,0,0,3.415,1.588,5.054,5.054,0,0,0,3.059-1.02,3.481,3.481,0,0,0,1.3-1.8h1.9a7.416,7.416,0,0,1-2.11,2.963,5.936,5.936,0,0,1-3.866,1.329,6.566,6.566,0,0,1-4.908-2.087,6.961,6.961,0,0,1-1.73-4.577,6.733,6.733,0,0,1,1.848-4.5,6.514,6.514,0,0,1,4.885-2.111,4.745,4.745,0,0,1,3.842,1.566v-1.186h1.423v3.771h-1.234a4.715,4.715,0,0,0-4.267-2.633,4.648,4.648,0,0,0-3.51,1.565,5.151,5.151,0,0,0-1.328,3.486A5.8,5.8,0,0,0,587.656,860Z" fill="#000000"/><path d="M609.807,861.33h1.612v1.4h-5.5v-1.4h1.8l-5.454-5.358v5.358h1.612v1.4H598.8v-1.4h1.9V847.436h-1.9v-1.423h3.462v9.745l4.838-4.2h-1.755v-1.4h5.358v1.4h-1.564l-4.98,4.315Z" fill="#000000"/><path d="M629.634,860.737l5.786-14.724h4.41v1.423h-1.85v13.847h1.85v1.446h-5.406v-1.446h1.992v-13.8l-6.023,15.247h-1.518l-6.07-15.365v13.919h2.087v1.446h-5.36v-1.446h1.85V847.436h-1.85v-1.423h4.411Z" fill="#000000"/><path d="M643.724,861.117a6.835,6.835,0,0,1-1.9-4.719,6.991,6.991,0,0,1,1.731-4.5,6.01,6.01,0,0,1,4.671-2.111,6.313,6.313,0,0,1,4.98,2.111v-1.8h3.462v1.423h-1.9v9.816h1.9v1.4h-3.51v-1.778a6.567,6.567,0,0,1-4.742,2.111A6.452,6.452,0,0,1,643.724,861.117Zm8.038-1.067a5.239,5.239,0,0,0-.047-7.279,4.655,4.655,0,0,0-3.391-1.518,4.747,4.747,0,0,0-3.32,1.47,5.006,5.006,0,0,0-1.518,3.557,5.7,5.7,0,0,0,1.328,3.675,4.61,4.61,0,0,0,3.557,1.636A4.773,4.773,0,0,0,651.762,860.05Z" fill="#000000"/><path d="M663.314,852.723a6.213,6.213,0,0,0-1.233,3.367v5.24h1.9v1.4h-5.36v-1.4h1.9v-9.816h-1.9v-1.352h3.462v2.182a3.927,3.927,0,0,1,2.348-2.064,7.363,7.363,0,0,1,2.253-.379v3.984h-1.471v-2.063A2.439,2.439,0,0,0,663.314,852.723Z" fill="#000000"/><path d="M679.393,861.33h1.612v1.4h-5.5v-1.4h1.8l-5.454-5.358v5.358h1.612v1.4H668.39v-1.4h1.9V847.436h-1.9v-1.423h3.462v9.745l4.837-4.2h-1.754v-1.4h5.358v1.4h-1.564l-4.98,4.315Z" fill="#000000"/><path d="M693.457,852.083a6.471,6.471,0,0,1,1.637,3.794v1.091H683.807a4.572,4.572,0,0,0,1.351,3.224,4.933,4.933,0,0,0,3.439,1.4,4.635,4.635,0,0,0,4.315-2.774h1.8a6.51,6.51,0,0,1-10.836,2.205,6.684,6.684,0,0,1,.023-9.105,6.335,6.335,0,0,1,4.743-2.135A6.157,6.157,0,0,1,693.457,852.083Zm-.071,3.533a4.815,4.815,0,0,0-9.579,0Z" fill="#000000"/><path d="M700.124,846.013v4.149h1.944v1.4h-1.944v9.768h1.9v1.4h-3.462V851.562h-1.9v-1.4h1.9v-4.149Z" fill="#000000"/><g id="_18.5th_Touhou_Project_Shooting_Game_for_Windows" data-name="18.5th Touhou Project Shooting Game for Windows"><path d="M578.31,921.192h1.123v22.474H578.31Z" fill="#000000"/><path d="M591.5,926.329c0-3.434,1.895-5.137,5.715-5.137h4.88c3.788,0,5.682,1.7,5.682,5.137v1.862a4.288,4.288,0,0,1-.77,2.409,5.225,5.225,0,0,1-1.99,1.637,4.376,4.376,0,0,1,2.728,4.11v2.215c0,3.177-2.087,5.1-5.329,5.1h-5.555c-3.242,0-5.3-1.927-5.3-5.1v-2.215a4.812,4.812,0,0,1,.706-2.537,3.975,3.975,0,0,1,2.023-1.573,4.079,4.079,0,0,1-2.7-3.211l-.1-.835Zm5.458,5.33h5.361a5.917,5.917,0,0,0,2.858-.835,2.887,2.887,0,0,0,1.476-2.7V926.3a3.376,3.376,0,0,0-1.348-3.082,5.471,5.471,0,0,0-3.21-.9h-4.88a5.956,5.956,0,0,0-3.242.868,3.364,3.364,0,0,0-1.349,3.114v1.83a3.357,3.357,0,0,0,1.99,2.985A4.778,4.778,0,0,0,596.959,931.659Zm5.458,10.883a3.9,3.9,0,0,0,4.2-3.98v-2.215a4.83,4.83,0,0,0-.8-2.152c-.545-.93-1.765-1.413-3.659-1.413h-5.073c-1.894,0-3.082.45-3.627,1.317a4.67,4.67,0,0,0-.771,2.248v2.215l.193,1.059a3.751,3.751,0,0,0,3.98,2.921Z" fill="#000000"/><path d="M612.045,941.644a.979.979,0,0,1,1.092,1.123,1.308,1.308,0,0,1-.322.835,1.113,1.113,0,0,1-1.894-.835A1.087,1.087,0,0,1,612.045,941.644Z" fill="#000000"/><path d="M617.084,942.542h8.765c3.146,0,4.719-1.284,4.719-3.885V935.03a3.625,3.625,0,0,0-1.413-3.275,4.758,4.758,0,0,0-2.536-.931h-9.535v-9.632h14.64v1.124H618.208V929.7h8.347a4.8,4.8,0,0,1,3.724,1.541,5.376,5.376,0,0,1,1.412,3.789v3.659a4.106,4.106,0,0,1-.032.643q-.046.24-.577,2.312c-.353,1.348-2.022,2.022-5.041,2.022h-8.957Z" fill="#000000"/><path d="M637.05,921.192h1v5.491h4.816v1.027h-4.816v15.956h-1Z" fill="#000000"/><path d="M643.983,921.192h1v5.491h7.384c2.055,0,3.146.192,4.559,1.348q1.059.867,1.059,3.66v11.975h-1.027V931.755c0-2.793-1.156-4.045-4.014-4.045h-7.961v15.956h-1Z" fill="#000000"/><path d="M669.277,921.192H683.66v1.124h-6.645v21.35h-1.124v-21.35h-6.614Z" fill="#000000"/><path d="M685.905,931.691c0-2.054.354-2.632.739-3.178a7.176,7.176,0,0,1,1.124-1.124,4.922,4.922,0,0,1,3.114-.706h4.077q4.719,0,4.72,5.008v7.224c0,3.178-1.574,4.751-4.72,4.751h-4.077a8.3,8.3,0,0,1-3.4-.706c-1.06-.481-1.606-1.638-1.606-3.468l.032-.577Zm5.009,10.98H694.9a6.154,6.154,0,0,0,2.5-.546c.834-.354,1.252-1.316,1.252-2.825v-7.93q0-3.66-3.756-3.66h-3.981a6.1,6.1,0,0,0-2.761.61c-.835.385-1.253,1.412-1.253,3.05V939.2q0,2.842,2.409,3.371A8.5,8.5,0,0,0,690.914,942.671Z" fill="#000000"/><path d="M704.17,926.683h1v12.424q0,3.564,4.238,3.564H713.1c2.794,0,4.174-1.156,4.174-3.468v-12.52H718.3v12.424c0,1.863-.514,3.082-1.573,3.692a7.394,7.394,0,0,1-3.628.867H709.4a7.559,7.559,0,0,1-3.692-.867c-1.027-.577-1.541-1.8-1.541-3.692Z" fill="#000000"/><path d="M722.787,921.192h1v5.491h7.385c2.055,0,3.145.192,4.559,1.348q1.059.867,1.059,3.66v11.975h-1.027V931.755c0-2.793-1.156-4.045-4.014-4.045h-7.962v15.956h-1Z" fill="#000000"/><path d="M741.276,931.691c0-2.054.354-2.632.739-3.178a7.176,7.176,0,0,1,1.124-1.124,4.924,4.924,0,0,1,3.114-.706h4.077q4.72,0,4.72,5.008v7.224c0,3.178-1.573,4.751-4.72,4.751h-4.077a8.3,8.3,0,0,1-3.4-.706c-1.06-.481-1.606-1.638-1.606-3.468l.032-.577Zm5.009,10.98h3.981a6.162,6.162,0,0,0,2.5-.546c.833-.354,1.251-1.316,1.251-2.825v-7.93q0-3.66-3.756-3.66h-3.981a6.1,6.1,0,0,0-2.761.61c-.835.385-1.253,1.412-1.253,3.05V939.2q0,2.842,2.409,3.371A8.5,8.5,0,0,0,746.285,942.671Z" fill="#000000"/><path d="M759.541,926.683h.995v12.424q0,3.564,4.238,3.564h3.692c2.794,0,4.174-1.156,4.174-3.468v-12.52h1.027v12.424c0,1.863-.514,3.082-1.573,3.692a7.394,7.394,0,0,1-3.628.867h-3.692a7.559,7.559,0,0,1-3.692-.867c-1.027-.577-1.541-1.8-1.541-3.692Z" fill="#000000"/><path d="M787.211,921.192h10.948a5.045,5.045,0,0,1,3.948,1.446,5.165,5.165,0,0,1,.771.963,3.3,3.3,0,0,1,.546,1.894v3.916c0,3.436-1.958,5.33-5.394,5.33h-9.695v8.925h-1.124ZM802.3,929.38v-3.565a2.715,2.715,0,0,0-.931-2.342,5.571,5.571,0,0,0-1.669-.932,4.663,4.663,0,0,0-1.51-.225h-9.855v11.3h9.855C800.92,933.617,802.3,932.205,802.3,929.38Z" fill="#000000"/><path d="M806.374,931.5c0-2.889,1.349-4.494,4.045-4.783l.321-.032h1.445v1.027h-1.316l-.45.032c-2.023.193-3.05,1.445-3.05,3.756v12.168h-1.027Z" fill="#000000"/><path d="M814.206,931.691c0-2.054.354-2.632.738-3.178a7.222,7.222,0,0,1,1.124-1.124,4.927,4.927,0,0,1,3.115-.706h4.077q4.719,0,4.719,5.008v7.224c0,3.178-1.573,4.751-4.719,4.751h-4.077a8.306,8.306,0,0,1-3.4-.706c-1.059-.481-1.605-1.638-1.605-3.468l.032-.577Zm5.009,10.98h3.98a6.162,6.162,0,0,0,2.5-.546c.834-.354,1.252-1.316,1.252-2.825v-7.93q0-3.66-3.757-3.66h-3.98a6.1,6.1,0,0,0-2.761.61c-.835.385-1.253,1.412-1.253,3.05V939.2q0,2.842,2.408,3.371A8.514,8.514,0,0,0,819.215,942.671Z" fill="#000000"/><path d="M827.623,948.289h1.349a3.377,3.377,0,0,0,3.531-3.307v-18.3h1v17.946c0,1.991-.514,3.274-1.541,3.82a6.36,6.36,0,0,1-2.953.835h-1.381Zm4.72-24.816a.723.723,0,0,1,.578-.289.953.953,0,0,1,.931.93c0,.611-.29.932-.9.932s-.9-.321-.9-.964A1.028,1.028,0,0,1,832.343,923.473Z" fill="#000000"/><path d="M837.992,931.6c0-1.638.257-2.729.8-3.307a4.575,4.575,0,0,1,3.66-1.605,4,4,0,0,0,.706-.033l4.142.033c1.733,0,2.857.289,3.371.9a4.591,4.591,0,0,1,1.027,1.894,8.177,8.177,0,0,1,.289,2.343v.45l-13,5.682.065.738A4.389,4.389,0,0,0,840.239,942a3.942,3.942,0,0,0,2.762.674h8.989v1h-8.764c-2.987,0-5.266-1.541-5.266-4.4l.032-.45Zm12.971-.643c0-2.15-1.381-3.242-4.109-3.242h-3.436c-2.857,0-4.431.867-4.431,3.6v5.522l11.911-5.2Z" fill="#000000"/><path d="M855.551,931.338c0-3.114,1.509-4.655,4.527-4.655h6.581v1.027h-6.421c-2.471,0-3.692,1.156-3.692,3.468v7.705c0,2.856,1.734,3.788,4.078,3.788h6.132v1h-6.164a7.409,7.409,0,0,1-3.436-.8c-1.059-.546-1.6-1.83-1.6-3.852Z" fill="#000000"/><path d="M870.124,921.192h1v5.491h4.817v1.027h-4.817v15.956h-1Z" fill="#000000"/><path d="M603.512,955.656c0-2.1,1.408-3.243,3.509-3.243h5.834v.714H607c-1.856,0-2.774.836-2.774,2.509v1.1a2.254,2.254,0,0,0,.856,1.817,2.185,2.185,0,0,0,.979.468l1.1.041h2.2a3.388,3.388,0,0,1,2.244.613,3.213,3.213,0,0,1,.959,1.162,3.277,3.277,0,0,1,.245,1.326v1.429a2.969,2.969,0,0,1-1,2.366,3.2,3.2,0,0,1-1.081.592,5.019,5.019,0,0,1-1.387.142h-5.815v-.714h5.815a3.893,3.893,0,0,0,1.938-.469,1.943,1.943,0,0,0,.816-1.857v-1.407c0-1.612-.918-2.428-2.734-2.428h-2.182l-.613-.02q-3.06-.338-3.06-2.938Z" fill="#000000"/><path d="M615.14,952.413h.632V955.9h4.693a3.851,3.851,0,0,1,2.9.857,2.974,2.974,0,0,1,.674,2.326v7.609h-.653v-7.568c0-1.775-.735-2.571-2.55-2.571h-5.06v10.139h-.632Z" fill="#000000"/><path d="M626.89,959.084a2.933,2.933,0,0,1,.469-2.02,4.615,4.615,0,0,1,.714-.714,3.133,3.133,0,0,1,1.979-.449h2.592q3,0,3,3.183v4.59c0,2.019-1,3.019-3,3.019h-2.592a5.248,5.248,0,0,1-2.162-.449c-.673-.306-1.021-1.04-1.021-2.2l.021-.367Zm3.182,6.977H632.6a3.922,3.922,0,0,0,1.59-.347c.531-.225.8-.836.8-1.8V958.88a2.083,2.083,0,0,0-2.386-2.326h-2.531a3.9,3.9,0,0,0-1.754.387c-.53.246-.8.9-.8,1.939v4.977A1.91,1.91,0,0,0,629.053,966,5.432,5.432,0,0,0,630.072,966.061Z" fill="#000000"/><path d="M638.5,959.084a2.931,2.931,0,0,1,.47-2.02,4.569,4.569,0,0,1,.714-.714,3.127,3.127,0,0,1,1.978-.449h2.592q3,0,3,3.183v4.59c0,2.019-1,3.019-3,3.019h-2.592a5.248,5.248,0,0,1-2.162-.449c-.673-.306-1.02-1.04-1.02-2.2l.02-.367Zm3.183,6.977h2.53a3.926,3.926,0,0,0,1.591-.347c.53-.225.8-.836.8-1.8V958.88a2.083,2.083,0,0,0-2.387-2.326h-2.53a3.9,3.9,0,0,0-1.754.387c-.53.246-.8.9-.8,1.939v4.977A1.91,1.91,0,0,0,640.66,966,5.452,5.452,0,0,0,641.68,966.061Z" fill="#000000"/><path d="M650.1,952.413h.633V955.9H653.8v.653h-3.061v10.139H650.1Z" fill="#000000"/><path d="M654.45,953.861a.5.5,0,0,1,.388-.183.466.466,0,0,1,.388.2.575.575,0,0,1,.183.407.5.5,0,0,1-.571.571c-.367,0-.551-.2-.551-.611A.693.693,0,0,1,654.45,953.861Zm.1,2.04h.653v10.792h-.653Z" fill="#000000"/><path d="M658.039,958.614c0-1.815,1.041-2.713,3.122-2.713h2.55c2.06,0,3.08.9,3.08,2.713v8.079h-.632v-8.119q0-2.019-2.448-2.02h-2.55c-1.653,0-2.489.674-2.489,2.02v8.119h-.633Z" fill="#000000"/><path d="M669.646,969.631h5.734c1.652,0,2.468-.776,2.468-2.325v-.613h-4.957a8.161,8.161,0,0,1-1.306-.082,3.058,3.058,0,0,1-1.2-.652,2.88,2.88,0,0,1-.735-2.326V959c0-1.877.674-2.815,2.551-3.06l.51-.041h2.285a5.231,5.231,0,0,1,.979.062,3.151,3.151,0,0,1,1.9.877,3.025,3.025,0,0,1,.674,2.2v8.181a3.86,3.86,0,0,1-.449,2.3q-.673.735-3.183.735h-5.264Zm8.222-3.57v-6.916c0-1.795-.815-2.591-2.632-2.591h-2.467a2.847,2.847,0,0,0-1.9.55,2.512,2.512,0,0,0-.592,1.837v4.672c0,1.9.877,2.448,2.775,2.448Z" fill="#000000"/><path d="M687.149,955.555a2.9,2.9,0,0,1,.959-2.285,3.566,3.566,0,0,1,2.428-.857h6.243v.714h-6.161c-1.633,0-2.754.734-2.754,2.428v7.956c0,1.122.306,1.815.9,2.081a4.446,4.446,0,0,0,1.774.387h3.713a2.932,2.932,0,0,0,1.53-.53,2.061,2.061,0,0,0,.837-1.856v-4.325h.714v4.222a2.746,2.746,0,0,1-1.061,2.531,3.835,3.835,0,0,1-2.02.672h-3.733c-2.061,0-3.367-1.1-3.367-3.162Z" fill="#000000"/><path d="M700.186,962.327A2.63,2.63,0,0,1,703,959.492h5.427V958.8a2.017,2.017,0,0,0-2.3-2.244h-5.917V955.9h5.59c2.183,0,3.265,1,3.265,3.02v4.855c0,1.816-.939,2.917-2.754,2.917h-3.245a2.718,2.718,0,0,1-2.142-.837,2.859,2.859,0,0,1-.734-1.917Zm2.835,3.734h3.305a1.86,1.86,0,0,0,2.081-2.122v-3.815H702.96l-.347.041a1.924,1.924,0,0,0-1.8,2.143v1.59a2.009,2.009,0,0,0,1.857,2.123Z" fill="#000000"/><path d="M711.915,959.145q0-3.245,2.939-3.244h1.06a2.4,2.4,0,0,1,1.979.836,1.869,1.869,0,0,1,.327.532,2.378,2.378,0,0,1,.142-.266c.041-.062.2-.245.469-.592a2.1,2.1,0,0,1,1.693-.51h1.061q2.815,0,2.815,3.244v7.548h-.631v-7.854a1.988,1.988,0,0,0-2.224-2.285h-1.021c-1.53,0-2.019,1-2.019,2.611v7.528h-.652v-7.528c0-1.326-.348-2.265-1.1-2.448a3.614,3.614,0,0,0-.836-.163h-1.02a2.042,2.042,0,0,0-2.346,2.285v7.854h-.633Z" fill="#000000"/><path d="M727.256,959.022a2.718,2.718,0,0,1,2.836-3.121,2.679,2.679,0,0,0,.449-.02l2.632.02a2.829,2.829,0,0,1,2.141.572,2.925,2.925,0,0,1,.654,1.2,5.222,5.222,0,0,1,.183,1.489v.286l-8.262,3.611.041.469a2.787,2.787,0,0,0,.755,2.1,2.5,2.5,0,0,0,1.753.428h5.713v.632h-5.569c-1.9,0-3.347-.979-3.347-2.795l.021-.285Zm8.242-.408c0-1.366-.877-2.06-2.611-2.06H730.7c-1.815,0-2.815.55-2.815,2.285v3.509l7.568-3.3Z" fill="#000000"/><path d="M744.167,955.289a2.506,2.506,0,0,1,2.244-2.836l.449-.04h.9v.632h-.836a8.233,8.233,0,0,0-1.021.163c-.53.1-.877.633-1.06,1.612l-.041.408v.673h2.958v.653H744.8v10.139h-.633Z" fill="#000000"/><path d="M748.472,959.084a2.933,2.933,0,0,1,.469-2.02,4.615,4.615,0,0,1,.714-.714,3.133,3.133,0,0,1,1.979-.449h2.592q3,0,3,3.183v4.59c0,2.019-1,3.019-3,3.019h-2.592a5.248,5.248,0,0,1-2.162-.449c-.673-.306-1.021-1.04-1.021-2.2l.021-.367Zm3.182,6.977h2.531a3.922,3.922,0,0,0,1.59-.347c.531-.225.8-.836.8-1.8V958.88a2.083,2.083,0,0,0-2.386-2.326h-2.531a3.9,3.9,0,0,0-1.754.387c-.53.246-.8.9-.8,1.939v4.977A1.91,1.91,0,0,0,750.635,966,5.439,5.439,0,0,0,751.654,966.061Z" fill="#000000"/><path d="M760.1,958.961c0-1.836.857-2.856,2.57-3.039l.2-.021h.918v.653h-.836l-.286.02c-1.285.123-1.938.918-1.938,2.387v7.732h-.653Z" fill="#000000"/><path d="M770.422,952.413l3.468,13.138,3.3-12.587c.123-.47.327-.694.592-.694a.475.475,0,0,1,.388.265l.142.429,3.326,12.587,3.448-13.138h.755l-3.632,13.628c-.1.428-.224.795-.53.795-.184,0-.368-.021-.613-.734l-3.284-12.323L774.44,966.1c-.142.509-.346.754-.612.754-.122,0-.244-.081-.347-.264l-.183-.551-3.611-13.628Z" fill="#000000"/><path d="M787.5,953.861a.5.5,0,0,1,.388-.183.463.463,0,0,1,.387.2.572.572,0,0,1,.184.407.5.5,0,0,1-.571.571c-.367,0-.551-.2-.551-.611A.693.693,0,0,1,787.5,953.861Zm.1,2.04h.653v10.792H787.6Z" fill="#000000"/><path d="M791.086,958.614c0-1.815,1.041-2.713,3.122-2.713h2.55c2.06,0,3.08.9,3.08,2.713v8.079h-.632v-8.119q0-2.019-2.448-2.02h-2.55c-1.653,0-2.489.674-2.489,2.02v8.119h-.633Z" fill="#000000"/><path d="M802.693,959a3.059,3.059,0,0,1,.858-2.3,3.385,3.385,0,0,1,2.366-.8h5.121v-3.468h.632v11.241c0,2.019-1.122,3.019-3.346,3.019h-2.386c-1.306,0-2.123-.142-2.632-.9a2.808,2.808,0,0,1-.633-1.816l.02-.387Zm5.468,7.059.225-.02h.2c1.632-.164,2.448-.959,2.448-2.408v-7.059H805.9a3.2,3.2,0,0,0-1.794.53,2.2,2.2,0,0,0-.776,1.939v4.447a2.146,2.146,0,0,0,2.591,2.571Z" fill="#000000"/><path d="M814.525,959.084a2.931,2.931,0,0,1,.47-2.02,4.569,4.569,0,0,1,.714-.714,3.131,3.131,0,0,1,1.979-.449h2.59q3,0,3,3.183v4.59c0,2.019-1,3.019-3,3.019h-2.59a5.256,5.256,0,0,1-2.163-.449c-.672-.306-1.02-1.04-1.02-2.2l.02-.367Zm3.183,6.977h2.53a3.926,3.926,0,0,0,1.591-.347c.53-.225.8-.836.8-1.8V958.88a2.083,2.083,0,0,0-2.387-2.326h-2.53a3.9,3.9,0,0,0-1.754.387c-.53.246-.8.9-.8,1.939v4.977a1.91,1.91,0,0,0,1.53,2.143A5.452,5.452,0,0,0,817.708,966.061Z" fill="#000000"/><path d="M825.807,955.9l2.836,9.65,2.774-8.956c.184-.714.408-.694.51-.694a.319.319,0,0,1,.286.225l.183.469,2.734,8.956,2.836-9.65h.673l-3.121,10.629a.375.375,0,0,1-.347.265c-.184,0-.326-.143-.449-.448l-.1-.286-2.714-8.915-2.733,8.915c-.143.51-.347.754-.612.754-.1,0-.224-.081-.347-.264l-.163-.51-2.917-10.14Z" fill="#000000"/><path d="M839.943,958.288a2.158,2.158,0,0,1,.878-1.815,3.436,3.436,0,0,1,2.04-.572h5.2v.653h-5.181c-1.489,0-2.306.633-2.306,1.714v.673c0,1.449.857,1.917,2.428,1.917h2.57c1.613,0,2.428.858,2.428,2.591v.531a3.982,3.982,0,0,1-.469,1.857c-.306.571-1.02.856-2.163.856h-5.386v-.632h5.407a1.7,1.7,0,0,0,1.938-1.673l.021-.408-.041-.531a2.142,2.142,0,0,0-.51-1.529q-.276-.367-1.285-.367h-2.531c-2.019,0-3.04-.858-3.04-2.592Z" fill="#000000"/></g><g id="上海_アリス幻樂団-2" data-name="上海■アリス幻樂団"><path d="M962.327,929.021c0-.313.48-1.045.858-1.045a1.325,1.325,0,0,1,.24.062,3.743,3.743,0,0,1,.583-.078,1.273,1.273,0,0,1,.24.047c.274.062,1.028.125,1.028.514a.292.292,0,0,1-.1.218c-.343.266-.806.328-1.166.562-.378.25-.532.624-.858.889a.4.4,0,0,1-.189.078c-.5-.187-.634-.3-.634-.842Zm14.784.264-6.586-.374a1.056,1.056,0,0,1-.446.063,4.164,4.164,0,0,1-.841-.141,14.459,14.459,0,0,0-1.835.078c-.308.031-.6.188-.909.188-.223,0-.565-.172-.565-.407a.7.7,0,0,1,.171-.545,10.973,10.973,0,0,1,1.9-.874c1.2-.638,1.114-2.385,1.148-3.493.018-.546.206-1.091.206-1.636V919.1a12.315,12.315,0,0,0-.325-2.231v-.031a.794.794,0,0,1,.668-.686c.378,0,.824.077.909.452a2.777,2.777,0,0,1,.138.655.3.3,0,0,1-.068.2,2.411,2.411,0,0,0-.275,1.185,1.558,1.558,0,0,0,.514,1.138,2.047,2.047,0,0,0,.927.546c.411,0,.823-.078,1.234-.078a7.8,7.8,0,0,1,2.093.25.56.56,0,0,1,.411.515c0,1.044-3.035.67-3.652.841-.395.11-1.287,1.372-1.458,1.747a2.71,2.71,0,0,0-.241,1.372,3.511,3.511,0,0,0,1.235,2.511,1.013,1.013,0,0,0,.635.2c.12,0,.257-.014.428-.014.24,0,.463.092.7.092,1.047,0,2.076-.139,3.122-.139.515,0,1.956.093,1.956.717a1.16,1.16,0,0,1-1.082.935Z" fill="#000000"/><path d="M963.167,938.832c-.36,0-.943-.2-.943-.593a1.548,1.548,0,0,1,.274-.748,1.071,1.071,0,0,1,.893-.561c.633-.016,1.268-.063,1.9-.063a.43.43,0,0,1,.429.405C965.723,937.881,963.75,938.832,963.167,938.832Zm1.853,3.728c-.275.53-.7,1-.926,1.544a4.363,4.363,0,0,1-.5,1.137c-.1.125-.189.125-.343.125-.5,0-.789-.748-.789-1.138,0-.592,2.179-3.119,2.847-3.119.171,0,.223.187.223.312a.315.315,0,0,1-.034.172Zm.771-8.407c-.051,0-.1-.03-.154-.03-.669-.109-2.332.093-2.332-.874,0-.654.737-.873,1.338-.873a.642.642,0,0,1,.411.172c.222.2,1.149,1.153,1.149,1.388C966.2,934.076,965.911,934.153,965.791,934.153Zm9.9,4.164c.068-.249-.069-1.262.36-1.262.651,0,.634,1.575.7,2,.205.2,1.767-.016,1.767,1.06a.634.634,0,0,1-.6.608,2.491,2.491,0,0,1-.309-.077,7.3,7.3,0,0,0-1.011-.063c-.206.249-.19,1.075-.241,1.4a10.712,10.712,0,0,1-.789,2.838,1.708,1.708,0,0,1-1.115.562c-.463,0-1.08-.25-1.646-.25-.824,0-1.629.219-2.452.219a8.43,8.43,0,0,1-2.522-.281,1.636,1.636,0,0,1-.5-1.138c0-.328.1-1.357.6-1.357.548,0,.583.873.685,1.216a4.538,4.538,0,0,0,.463.047,2.367,2.367,0,0,0,1.767-1.419c.068-.266-.035-1.029.412-1.029.274,0,.325.389.325.733,0,.171-.017.327-.017.4a1.371,1.371,0,0,0,1.389,1.372c.893,0,1.9-.577,1.9-1.465,0-.125-.034-.266-.034-.39,0-.219.068-.421.068-.64,0-.92-.96-1.309-1.835-1.309a1.919,1.919,0,0,0-1.235.576c0,.109-.12.312-.257.312a.316.316,0,0,1-.223-.125c-.377-.452-.36-.374-.858-.639a.267.267,0,0,0-.154-.032c-2.436,0-1.389,1.077-2.418,1.826a.268.268,0,0,1-.154.062c-.241,0-.309-.422-.309-.593a.825.825,0,0,1,.223-.639c-.069-.188-.24-.437-.481-.437-.291,0-.565.141-.857.141-.223,0-.737-.172-.737-.421v-.047l.12-.561c.068-.329.617-.375,1.046-.375h.292c.308-.2.771-.109,1.011-.421.343-.437.429-2.261,1.15-2.261.154,0,.24.343.24.452,0,.39-.274.795-.274,1.232.154.3-.052.468.291.905.342.031.668.078,1.011.078a7.686,7.686,0,0,0,.841-.078c.154-.391.446-.718.635-1.092l-.309-.92c-.394-.4-1.287-.281-1.287-1a.422.422,0,0,1,.206-.39,6.138,6.138,0,0,1,2.025-.453c.513,0,1.011.063,1.526.063a1.85,1.85,0,0,1,1.406.593c.1.093.24.2.24.358,0,.2-.5.577-.7.577a12.935,12.935,0,0,0-1.355-.28c-.566,0-1.132.233-1.15.81a1.488,1.488,0,0,1-.05.468l-.138.359c.086.7.875.889,1.526.889.395,0,.789-.062,1.184-.078Zm-.207-6.035c.395,0,1.441.172,1.441.64,0,.608-.943.748-1.457.748a8.155,8.155,0,0,1-2.213-.343c-.481.11-1.029-.031-1.492.188a.712.712,0,0,1-.326.093H971.4l-.48-.078-.96.2c-.1.016-1.887,2.231-3,2.231a.7.7,0,0,1-.668-.624c0-1.5,2.709-.92,3.019-3.088a3.25,3.25,0,0,1-.275-.748c0-.266.788-.733,1.063-.733a1.177,1.177,0,0,1,.892.827,2.1,2.1,0,0,1-.1.467c.034.234-.034.468.189.624l4.287-.406Z" fill="#000000"/><path d="M977.094,951.248a1.091,1.091,0,0,0-.034.266c0,.139.016.3.016.467a1.38,1.38,0,0,1-.257.92.526.526,0,0,0-.051.281,12.912,12.912,0,0,0,.5,2.5,2.4,2.4,0,0,1,.034.468,10.419,10.419,0,0,1-.258,2.542.5.5,0,0,0-.051.2c0,.217.137.4.137.671a.638.638,0,0,1-.017.17c-.1.453-.36.609-.584.609a.275.275,0,0,1-.12-.016,21.687,21.687,0,0,0-2.589-.28,1.154,1.154,0,0,0-.292.031,8.4,8.4,0,0,1-1.646.187,1.575,1.575,0,0,1-.446-.047,4.507,4.507,0,0,0-.754-.234c-.687,0-1.218.249-1.733.249a1.12,1.12,0,0,1-.223-.015,8.593,8.593,0,0,0-1.423-.125c-.893,0-1.372.156-1.7.156a.624.624,0,0,1-.172-.016,1.47,1.47,0,0,0-.377-.046c-.377,0-.789.078-1.03.078h-.12c-.308-.047-.617-.125-.617-.515a8.136,8.136,0,0,1,.052-1.216,1.257,1.257,0,0,0,.016-.125c0-.312-.12-1.013-.12-1.17v-.015c.086-.39.258-.359.258-.826v-.063c-.017-.515-.24-1.278-.24-1.528v-.094c0-.343-.068-1.746-.068-2.417a1.668,1.668,0,0,1,.016-.358,8.181,8.181,0,0,0,.24-1.295,1.093,1.093,0,0,0,.018-.249c0-.515-.138-1.17-.138-1.4v-.109c0-.172-.05-.421-.05-.624a.312.312,0,0,1,.034-.187,1.161,1.161,0,0,1,.737-.359c.137,0,1.269-.094,2.229-.094a4.494,4.494,0,0,1,1.3.125,1.449,1.449,0,0,0,.566.125,1.486,1.486,0,0,0,.532-.125,11.955,11.955,0,0,1,1.372-.264h.051c.206.046,3.276.124,3.927.311a1.3,1.3,0,0,0,.327.047c.411,0,.634-.28,1.354-.312h.086c.463,0,1.149.218,1.166.608a9.015,9.015,0,0,1,.086.936,4.239,4.239,0,0,1-.154,1.107c0,.031-.017.062-.017.094,0,.3.223.811.223.966Z" fill="#000000"/><path d="M949.346,918.759a4.063,4.063,0,0,1-.858.219,4.627,4.627,0,0,0-.669.217,4.227,4.227,0,0,0-.428.078c-.361.157-.309.266-.789.266-.292,0-.7-.172-.738-.469a4.593,4.593,0,0,1-.034-.483c0-.437.908-1.263,1.423-1.263a.829.829,0,0,1,.189.031,3.485,3.485,0,0,0,.806.063c.189,0,.395.031.583.031.172,0,.343-.062.515-.062.222,0,1.063.342,1.063.608S949.6,918.649,949.346,918.759Zm1.594,9.4c-.17.141-.274.344-.462.468a9.961,9.961,0,0,1-1.8.89,2.158,2.158,0,0,1-.7.108c-.841,0-.772-.374-1.424-.654a.554.554,0,0,1-.361-.484c0-.406.755-.671,1.116-.78a.642.642,0,0,1,.172-.031c.085,0,.17.015.256.015a.544.544,0,0,0,.155-.015c.258-.063.446-.265.7-.343a7.749,7.749,0,0,0,1.68-.687,3.787,3.787,0,0,0,1.527-1.294c.206-.342.429-1.076.943-1.076.258,0,.258.2.258.374a2.7,2.7,0,0,1-.068.64,4.051,4.051,0,0,1-1.442,2.526C951.335,927.96,951.112,928.022,950.94,928.162Zm1.184-9.746c-.429,0-1.372-.016-1.372-.53,0-.531.875-.624,1.286-.671.12-.016.412-.218.635-.265a9.739,9.739,0,0,1,1.9-.234c.205,0,.411.015.617.015.171,0,.343.047.515.047.12,0,.429-.156.617-.172a6.448,6.448,0,0,1,.772-.046,3.855,3.855,0,0,1,1.338.187,3.282,3.282,0,0,1,.532.39c.463.343,1.252.592,1.252,1.232a2.432,2.432,0,0,1-1.15,1.715,5.218,5.218,0,0,1-.617.266,9.573,9.573,0,0,1-.807.577c-.342.155-.7.28-1.063.4-.565.2-1.114.4-1.663.624-.138.063-.292.094-.429.155-.412.188-.514.656-.618,1.014-.119.437-.343.344-.617.577a.508.508,0,0,1-.309.094c-.531,0-.583-.748-.583-1.092,0-.125.086-.249.086-.374a5.409,5.409,0,0,0-.154-.889c-.086-.514-.12-.561-.687-.624a.315.315,0,0,1-.291-.311.719.719,0,0,1,.463-.671c.172-.094.24-.25.481-.25.171,0,.325.062.5.062.446,0,.96.64,1.166.967a.437.437,0,0,0,.394.235.734.734,0,0,0,.361-.094,4.555,4.555,0,0,0,.875-.437,5.605,5.605,0,0,1,.633-.436c.156-.094.395-.11.533-.2.1-.078.136-.2.24-.281a2.752,2.752,0,0,0,.96-1.029c0-.265-.737-.436-.96-.436-.412,0-.841.125-1.27.125-.154,0-.308-.063-.462-.063-.241,0-.481.109-.721.109-.086,0-.154-.016-.24-.016-.7,0-1.372.328-2.076.328Z" fill="#000000"/><path d="M949.74,940.36a.273.273,0,0,1-.222-.108,3.654,3.654,0,0,1-.807-2.62,2.465,2.465,0,0,1,.1-.7A3.87,3.87,0,0,0,949,935.6c0-.763-.1-1.528-.1-2.292,0-.374-.12-.749-.12-1.138a.71.71,0,0,1,.789-.671c.875,0,1.3.967,1.3,1.638,0,.358-.206.53-.309.873a6.568,6.568,0,0,0-.24,2c0,.374-.034.764-.034,1.138,0,.3.24.733.24,1.03a4.016,4.016,0,0,1-.583,2.074A.37.37,0,0,1,949.74,940.36Zm4.717,3.853c-.24.155-.395.358-.652.5a6.406,6.406,0,0,1-.754.28,6.215,6.215,0,0,1-1.905.5c-.411,0-1.594-.3-1.594-.779a1.034,1.034,0,0,1,.669-.78c.257-.063.549-.032.8-.094a10.008,10.008,0,0,0,.978-.39c.154-.047.308-.031.463-.094a9.377,9.377,0,0,0,2.453-1.527,3.784,3.784,0,0,0,.515-.749,3.518,3.518,0,0,0,.633-2c0-.358-.034-.718-.034-1.076a14.791,14.791,0,0,1,.086-1.528c.034-.249,0-.515.052-.764.034-.125.137-.2.172-.328.085-.249.136-.576.5-.576a.275.275,0,0,1,.188.061,1.238,1.238,0,0,1,.532,1.108c0,.171-.017.358-.017.561a4.025,4.025,0,0,0,.034.452,1.712,1.712,0,0,1,.052.3c0,.171-.086.374-.086.607,0,.609.188,1.186.188,1.794,0,.374-.308.748-.428,1.092a5.041,5.041,0,0,1-.275.858,4.757,4.757,0,0,1-2.572,2.573Zm1.577-11.462a3.465,3.465,0,0,1-.359-1.217c0-.389.977-.561,1.3-.561.36,0,.583.015.754.312.121.2.327.155.327.484a4.018,4.018,0,0,1-.738,1.73c-.086.141-.137.281-.223.421-.035.062-.155.062-.223.062-.086,0-.395-.062-.429-.125C956.154,933.515,956.206,933.141,956.034,932.751Z" fill="#000000"/><path d="M954.646,947.287a3.093,3.093,0,0,1,.548-.062,3.967,3.967,0,0,1,.755.093,1.824,1.824,0,0,1,.583.3c.171.093.395.14.566.234.12.078.686.483.7.608a1.56,1.56,0,0,1,.017.28c0,1.108-1.2,1.638-1.852,2.356-.12.139-.481.421-.515.576a1.591,1.591,0,0,1-.154.484c-.137.281-.549.686-.549,1,0,.3.429.764.429,1.185a.468.468,0,0,1-.051.219.6.6,0,0,1,.034.171.162.162,0,0,1-.154.171c-.344,0-.6-.264-.909-.264-.069,0-.189.093-.309.093-.034,0-.069,0-.086-.032a.953.953,0,0,0-.206-.015.842.842,0,0,0-.685.406c-.19.249-.413.5-.619.748-.12.141-.359.172-.479.327-.138.172-.206.344-.395.562-.086.109-.172.218-.274.328a9.437,9.437,0,0,1-1.252,1,3,3,0,0,1-.823.374c-.086.031-.19.031-.275.062-.137.047-.36.374-.548.468a2.234,2.234,0,0,1-.841.234.4.4,0,0,1-.137-.016c-.464-.155-1.252-.124-1.527-.53-.1-.14-.291-.328-.291-.5a.419.419,0,0,1,.188-.313c.052-.047.978-.265,1.132-.327.224-.078.686-.39.789-.421a13.851,13.851,0,0,0,4.048-2.589c.257-.234.429-.53.669-.78a7.852,7.852,0,0,0,.789-.686,10.849,10.849,0,0,0,.874-1.295c.258-.5.652-.467.892-.779.137-.172.121-.343.206-.514a6.488,6.488,0,0,1,.618-.9,1.057,1.057,0,0,0,.257-.577c0-.358-.429-.421-.738-.421-.172,0-.36.016-.532.016-.205,0-.394-.047-.6-.047-.24,0-.428.155-.634.155a.666.666,0,0,1-.669-.638.357.357,0,0,1,.326-.39Zm-4.649.7c.566,0,1.081-.187,1.647-.187.189,0,.583.031.583.281,0,.312-.514.686-.789.826-.257.125-.428.312-.7.421a6.236,6.236,0,0,0-.977.562.966.966,0,0,0-.31.171,2.537,2.537,0,0,1-.994.187.45.45,0,0,1-.154-.016c-.275-.108-.6-.124-.6-.467,0-.39.1-.359.343-.7a1.081,1.081,0,0,0,.086-.25c.12-.311.343-.794.755-.826Zm6,7.938a1.875,1.875,0,0,1-.274-.235,1.288,1.288,0,0,1-.241-.591c0-.172.138-.25.31-.25.291,0,.565.25.822.358.155.062.326.031.481.094a3.152,3.152,0,0,1,.532.25,6.39,6.39,0,0,1,1.509.873,4.1,4.1,0,0,1,.634.779c.189.359.447.5.447.937,0,.342-.138.888-.618.888a2.718,2.718,0,0,1-1.509-.888c-.1-.125-.138-.282-.24-.407-.207-.28-.5-.53-.738-.795-.258-.281-.6-.467-.875-.733Z" fill="#000000"/><path d="M929.968,927.4a30.329,30.329,0,0,1,3.361-.545c.36,0,.72.078,1.08.078a2.78,2.78,0,0,0,.343-.078.566.566,0,0,0,.1-.2c0-.858-1.029-1.637-1.029-2.105,0-.219.361-.281.549-.281a3.1,3.1,0,0,1,.978.328.568.568,0,0,1,.24.343c.1.405.617,1.434.617,1.715a.521.521,0,0,1-.034.156c-.257.733-.155.7-.84,1.17-.481.342-.7.92-1.612.92-.412,0-.789-.218-1.2-.218a8.226,8.226,0,0,0-2.3.4,2.6,2.6,0,0,1-.669.233,3.56,3.56,0,0,1-1.064-.17c-.222-.079-.343-.718-.429-.937a1.153,1.153,0,0,1-.085-.4,12.154,12.154,0,0,1,1.235-2.948,10.982,10.982,0,0,0,.875-1.4,1.641,1.641,0,0,0-.412-.64,6.066,6.066,0,0,0-.686-.217,1.793,1.793,0,0,1-.618-1.28.586.586,0,0,1,.069-.3c.189-.359,1.235-1.233,1.595-1.669.36-.421.84-1.326,1.3-1.576.068-.327.034-.966.411-1.09a1.128,1.128,0,0,1,.395-.11c.411,0,1.543.343,1.543.795a2.721,2.721,0,0,1-.789,1.108,6.261,6.261,0,0,0-.943.389c-.395.3-1.835,1.81-1.835,2.231,0,.047.017.078.017.124.172.109.154.2.24.359a5.685,5.685,0,0,0,.651.593.891.891,0,0,0,.361.046h.188c.258,0,.464-.234.773-.234.325,0,.411.172.411.437a1.874,1.874,0,0,1-.206.468,4.632,4.632,0,0,1-.686,1c-.806.888-2.624,1.964-2.624,3.228,0,.047.034.109.034.155a.413.413,0,0,0,.258.063c.1,0,.223-.016.309-.016Zm2.864-5.738c0-.514,1.337-2.355,1.92-2.371.275.219,1.047.671,1.047,1.014a.782.782,0,0,1-.172.577,2.7,2.7,0,0,1-.857.358c-.121.032-.207.141-.309.188a9.777,9.777,0,0,1-1.3.53.341.341,0,0,1-.257-.156A.147.147,0,0,1,932.832,921.66Zm7.684-3.2c-.773,0-1.544.156-2.316.156a3.063,3.063,0,0,0-1.287.4c-.943,0-1.114-.312-1.114-1.185,0-.562.635-.452,1.046-.562a3.083,3.083,0,0,1,.36-.077l2.144-.14h.086a5.267,5.267,0,0,1,.7.078c1.235.124,2.092-.047,2.692,1.169a.531.531,0,0,1,.052.156c0,.249-.411.327-.635.327-.429,0-.515-.327-.96-.327Zm1.371,3.665c0-.125-.051-.25-.051-.375v-1.606c0-.234.137-1.044.48-1.06.326.171.583,1.247.583,1.591,0,.514-.1,1.044-.1,1.558,0,.2.069.391.069.593,0,.266-.086.546-.086.812,0,.452.051.92.051,1.372,0,.264-.051.514-.051.779,0,.187.12.375.12.562,0,.358-.257.655-.292,1-.171,1.326-1.045,1.809-2.177,2.479a.811.811,0,0,1-.429.078c-.669,0-1.99-.4-1.99-1.154a.474.474,0,0,1,.189-.312,1.2,1.2,0,0,1,.943-.28c.137,0,.257.046.394.046,1.081-.654,1.133.125,1.973-1.388.12-.217.292-.888.377-1Z" fill="#000000"/><path d="M928.887,942.153c-.549,0-.755-.748-.755-1.137a.587.587,0,0,1,.583-.515,5.3,5.3,0,0,1,1.2.265c.154.046.188.218.188.343A2.719,2.719,0,0,1,928.887,942.153Zm13.069-1.636c.411,0,1.046.031,1.046.389,0,.748-1,1.123-1.681,1.123-.549,0-2.383-.359-3.036-.467a2.863,2.863,0,0,0-.445-.141.286.286,0,0,0-.189.078.524.524,0,0,0,.155.374c.12.141.308.219.428.358a3.861,3.861,0,0,1,.583.9c0,.015-.034.078-.034.093a.482.482,0,0,1-.378.157c-.7,0-1.406-.609-2.041-.858a.665.665,0,0,0-.085.359c0,.109.017.234.017.358,0,.375-.154,2.371-.669,2.371-.565,0-.5-2.2-.515-2.6l-.377-.36c-.274.219-.669.235-.943.438-.429.3-.583.857-1.012,1.169a7.172,7.172,0,0,1-3.567,1.232c-.326,0-.823-.2-.823-.546a.787.787,0,0,1,.5-.639c.308-.125.652-.078.961-.172.463-.14.925-.28,1.372-.437.188-.061.394-.077.583-.155a4.453,4.453,0,0,0,1.132-1,1.808,1.808,0,0,0,.48-1.045,2.582,2.582,0,0,1-.961.2,2.941,2.941,0,0,1-.377-.061c-.429-.078-1.1-.063-1.1-.624a.444.444,0,0,1,.343-.374,14.25,14.25,0,0,1,3.362-.469.884.884,0,0,0,.378-.623c0-.593-.515-.671-.91-.983a3.524,3.524,0,0,1-.514-1.622c0-.311.051-.608.068-.92s.034-2.2.532-2.2c.429,0,.429,1.045,1.166,1.045.034,0,.086-.016.12-.016a.423.423,0,0,1,.326-.093c.171,0,.36.031.48.031.635,0,.737-.7,1.029-.7.5,0,.515,1.059.6,1.372a.993.993,0,0,1,.051.311c0,.157-.069.329-.069.484,0,.2.086.4.086.608a2.9,2.9,0,0,1-.1.53c-.172.827-.515.718-1.081,1.2a2.742,2.742,0,0,0-.617.951c.034.249.188.638.531.638,1.372,0,2.744.219,4.116.344.069,0,.138.016.206.016.223,0,.429-.031.651-.031Zm-13.224-3c0-.78.91-1.013,1.236-1.637-.687-.873-1.253-.063-1.253-1.809a.748.748,0,0,1,.155-.421l1.526-1.716a.441.441,0,0,1,.326-.14,6.111,6.111,0,0,1,1.149.265c.172.047.223.187.309.312,0,.047.017.078.017.125a.292.292,0,0,1-.1.218c-.635.53-1.115-.047-1.972,1.013-.138.172-.292.3-.292.531a.687.687,0,0,0,.068.265c.481.125.515.484,1.15.484.24-.11.257-.344.257-.609v-.172c0-.311.035-.576.464-.576h.565c.4,0,.652.8.652,1.075,0,.36-.292.906-.755.906-.583.826-1.8,1.028-2.315,1.886.1.234.326.265.565.265a3.036,3.036,0,0,0,1.236-.28c0-.156-.018-.281-.018-.4,0-.344.086-.546.687-.546.274,0,.7.732.7.951a.4.4,0,0,1-.052.2c-.411.921-.669.827-1.612,1.092a5.223,5.223,0,0,1-1.029.328,4.31,4.31,0,0,1-.446-.063c-1.166-.109-1.218-.39-1.218-1.248Zm8.816-4.569c0,.28-.206.327-.463.327-.206,0-.411-.109-.583-.109-.515,0-1.029.094-1.544.094-.223,0-.411-.171-.651-.171-.052,0-.155,0-.155-.063,0-1.107,1.424-.281,1.424-1.528a.32.32,0,0,1,.343-.358.371.371,0,0,1,.188.045c.412.219.515.3.515.609,0,.062-.018.156-.018.25C936.947,932.267,937.548,932.517,937.548,932.953Zm-.635,3.774c0-.468-.239-1.138-.857-1.138-.72,0-1.509.3-1.509,1.06,0,.748.12,1.154,1.029,1.154.411,0,1.183-.125,1.3-.546a1.028,1.028,0,0,0,.034-.312Zm4.855.39c0-.3-.292-.561-.292-.811,0-.312.36-.39.634-.39.6,0,1.1,1.294,1.1,1.746a.526.526,0,0,1-.172.406,8.709,8.709,0,0,1-2.658.889c-.721,0-1.561-.062-1.561-.9a5.859,5.859,0,0,1,.96-2.605c-.274-.281-.7-.546-.7-.951A2.558,2.558,0,0,1,940.4,932.2a1.679,1.679,0,0,1,1.131-.452.359.359,0,0,1,.2.375c0,.873-1.611.515-1.611,1.605a.258.258,0,0,0,.154.266c.137.063.275.094.412.155.24.125.428.36.72.407.978-.235.206-1.466.96-1.466.429,0,.721.53.721.857,0,.609-1.27,1.7-1.853,1.7a.984.984,0,0,1-.36-.125c-.617.14-.857,1-1.148,1.451.12.5,1.011.5,1.44.5a1.008,1.008,0,0,0,.565-.188A.494.494,0,0,0,941.768,937.117Zm.256,8.421c-.566,0-2.418-1.295-2.418-1.809a.281.281,0,0,1,.257-.265,9.421,9.421,0,0,1,3.311.81.945.945,0,0,1,.343.578c0,.311-.738.717-1.046.717a.416.416,0,0,1-.241-.047A.891.891,0,0,1,942.024,945.538Z" fill="#000000"/><path d="M941.647,956.581c.035-.545.189-1.075.189-1.621,0-.733-.068-2.589-.721-3.072-.1-.078-.188-.11-.188-.25,0-.124.068-.327.24-.327.36-.515.1-1.685.617-1.685.275,0,.429.3.549.469a3.026,3.026,0,0,1,.412.654,5.62,5.62,0,0,1,.325,1.98c0,.5.12,1,.12,1.5,0,1.107-.222,2.214-.222,3.306,0,.109.068.218.068.343a1.175,1.175,0,0,1-.034.249c-.223,1.014-.291.546-.875,1.17a5.194,5.194,0,0,0-.445.857c-.327.531-.927.421-1.476.531a4.422,4.422,0,0,1-.771.093c-1.613,0-3.191-.3-4.8-.3-.344,0-.669.124-1,.124-.12,0-.257-.031-.377-.031a11.113,11.113,0,0,0-2.694.313.82.82,0,0,1-.188.031c-.034,0-.086-.016-.12-.016-1.475-.265-1.818-2.074-1.818-3.2,0-.483.051-.951.069-1.434a16.738,16.738,0,0,1,.291-3.587,1.11,1.11,0,0,1-.051-.406c0-.2.395-1.855.479-2.105.052-.14.241-.468.429-.468.361,0,.43.328.43.593,0,.219-.052.421-.069.64l-.361,7.375c.19.265.344.827.773.827,1.388,0,2.778-.3,4.167-.3h1.8q1.313,0,2.625.047c.412.015.824.109,1.235.109a1.967,1.967,0,0,0,1.252-.422ZM938.611,951c.549.094,1.715.108,2.11.452a2.331,2.331,0,0,1-.034.343c-.1.593-1.938.062-2.264.967a1.653,1.653,0,0,0-.069.577c0,.452-.223.764-.223,1.123,0,.186.052.358.052.546,0,1.2-1.012,2.869-2.488,2.869-.651,0-1.423-.2-1.423-.92a.519.519,0,0,1,.241-.515,2.306,2.306,0,0,1,.565-.125,3.8,3.8,0,0,0,1.51-.779c.515-.452.531-1.092.84-1.638a2.138,2.138,0,0,0-1.9-1.45,1.086,1.086,0,0,1-.926-.935c0-.8,1.527,0,2.178-1.108a4.651,4.651,0,0,0,.361-.811c0-1.029-.378-.655-1.03-1.044l-4.424.108a2.394,2.394,0,0,1-1.03.266c-.257,0-.805-.047-.805-.374,0-.53,1.32-.983,1.783-1.092.394-.094.789-.047,1.183-.109a11.4,11.4,0,0,1,1.938-.188c.138,0,.258.031.394.031,1.785.078,3.706-.108,5.386.562a.72.72,0,0,1,.361.608c0,.188-.533.546-.721.546-.515,0-1.012-.187-1.509-.187-.549,0-.48.9-.549,1.232Zm-5.917.124c.4,0,.772.047,1.166.047.206,0,.447.156.447.359,0,.592-2.453.889-2.967,1.06-.069.015-.069.031-.138.031a.3.3,0,0,1-.188-.093.685.685,0,0,1-.035-.187A.4.4,0,0,1,931,952.2a1.549,1.549,0,0,1-.017-.28c0-.78,1-.8,1.647-.8Zm-.96,5.022c-.446,0-.652-.453-.652-.795,0-1.077,1.424-1.513,2.384-1.685.034,0,.069-.016.1-.016a.364.364,0,0,1,.343.391c0,.654-.909,1.06-1.338,1.481C932.317,955.755,932.163,956.145,931.734,956.145Z" fill="#000000"/></g></g></svg>
