<svg xmlns="http://www.w3.org/2000/svg" width="1000" height="988" viewBox="0 0 1000 988"><g id="Artboard"><rect id="Tint" width="1000" height="988" fill="#58595b"/></g><g id="Outline"><g id="Rendaino_yakou" data-name="Rendaino yakou"><path d="M486.7,161.346a2.148,2.148,0,0,1-.383-.035,2.876,2.876,0,0,1-2.373-2.987c0-.21.012-.512.039-.907.017-.272.028-.483.028-.62v-3.254q0-.44-.028-1.276a2.612,2.612,0,0,1-.952-2.061,2.74,2.74,0,0,1,2.237-2.833,19.771,19.771,0,0,1,3.308-.2,5.522,5.522,0,0,1,3.631,1.22,4.714,4.714,0,0,1,1.615,3.744,4.925,4.925,0,0,1-1.1,3.038l-.064.083c.144.164.457.533.467.544a2.8,2.8,0,0,1,.761.41,2.122,2.122,0,0,1,.8,2.195,3.682,3.682,0,0,1-1.532,2,3.823,3.823,0,0,1-2.244.945,2.434,2.434,0,0,1-2.075-1.184l-.034.045a2.85,2.85,0,0,1-1.51,1.058A2.163,2.163,0,0,1,486.7,161.346Z" transform="translate(0 0)" fill="#fff"/><path d="M488.571,149.293a3.449,3.449,0,0,1,2.275.73,2.636,2.636,0,0,1,.846,2.109,2.842,2.842,0,0,1-.664,1.743,1.97,1.97,0,0,1-1.56.913,1.625,1.625,0,0,1-.316-.033,19.946,19.946,0,0,1,2.308,2.374,1.564,1.564,0,0,0,.913.664.568.568,0,0,1,.232.116q-.066.284-.747.8a2.121,2.121,0,0,1-.962.515q-.3,0-.648-.913a10.836,10.836,0,0,0-1.428-2.723,3.831,3.831,0,0,0-.963-.7q-.6-.382-.6-.565c0-.143.127-.232.382-.265q.647-.066,1.3-.117a2.033,2.033,0,0,0,1.162-.531,1.961,1.961,0,0,0,.448-1.278q0-1.943-1.544-1.943a13.191,13.191,0,0,0-1.876.183v2.706q0,1.86.05,2.789.016.266.066,1.3c.033.521.05.946.05,1.278a.778.778,0,0,1-.2.482.743.743,0,0,1-.4.3q-.632-.115-.631-.9,0-.266.034-.763c.021-.343.033-.6.033-.764v-3.254c0-.332-.012-.824-.033-1.478s-.034-1.128-.034-1.461l-.4.117a.455.455,0,0,1-.515-.515q0-.648.515-.747a18.292,18.292,0,0,1,2.905-.166m0-4.25a21.556,21.556,0,0,0-3.651.232l-.06.011a4.85,4.85,0,0,0-3.959,4.92,4.774,4.774,0,0,0,.975,2.921c0,.16,0,.3,0,.416V156.8c0,.11-.011.277-.025.5-.028.405-.042.749-.042,1.029a4.982,4.982,0,0,0,4.115,5.077,4.206,4.206,0,0,0,.766.07,4.262,4.262,0,0,0,1.165-.163,4.9,4.9,0,0,0,.914-.362,4.5,4.5,0,0,0,2.122.525,6.856,6.856,0,0,0,5.844-4.577,4.251,4.251,0,0,0-1.324-4.173,6.716,6.716,0,0,0,.526-2.589,6.89,6.89,0,0,0-2.319-5.326l-.064-.054a7.693,7.693,0,0,0-4.988-1.709Z" transform="translate(0 0)" fill="#fff"/><path d="M497.791,161.346a5.056,5.056,0,0,1-4.186-1.935,6.406,6.406,0,0,1-1.243-4.025,6.234,6.234,0,0,1,1.222-3.832,4.88,4.88,0,0,1,4.024-2.012,4.656,4.656,0,0,1,3.667,1.7,5.323,5.323,0,0,1,1.3,3.543,3.349,3.349,0,0,1-.094.795,2.575,2.575,0,0,1,.41,1.446,4.992,4.992,0,0,1-.28,1.5,3.8,3.8,0,0,1-2.454,2.4A6.542,6.542,0,0,1,497.791,161.346Z" transform="translate(0 0)" fill="#fff"/><path d="M497.608,151.667a2.549,2.549,0,0,1,2.042.946,3.2,3.2,0,0,1,.8,2.175q0,.8-.747.8a1.414,1.414,0,0,1-.249-.033.946.946,0,0,0-.216-.033h-.664l-3.154.033v.083a3.68,3.68,0,0,0,.349,1.61,1.373,1.373,0,0,0,1.245.913,5.189,5.189,0,0,0,1.843-.365,4.4,4.4,0,0,0,1.543-.946.361.361,0,0,1,.233-.133c.088,0,.133.1.133.315a3.269,3.269,0,0,1-.183.864,1.768,1.768,0,0,1-1.179,1.045,4.416,4.416,0,0,1-1.61.283,2.98,2.98,0,0,1-2.507-1.113,4.327,4.327,0,0,1-.8-2.722,4.144,4.144,0,0,1,.8-2.557,2.777,2.777,0,0,1,2.324-1.162m-2.075,2.938h3.619a2.364,2.364,0,0,0-.464-1.344,1.427,1.427,0,0,0-1.212-.615,1.669,1.669,0,0,0-1.312.615,2.589,2.589,0,0,0-.631,1.344m2.075-7.188a7.017,7.017,0,0,0-5.713,2.848,8.99,8.99,0,0,0,.029,10.446,7.231,7.231,0,0,0,5.867,2.76,8.686,8.686,0,0,0,3.144-.569,5.894,5.894,0,0,0,3.695-3.72,7.045,7.045,0,0,0,.383-2.153,4.846,4.846,0,0,0-.333-1.8c.011-.145.017-.292.017-.441a7.447,7.447,0,0,0-1.82-4.941,6.813,6.813,0,0,0-5.269-2.43Z" transform="translate(0 0)" fill="#fff"/><path d="M508.405,161.346a2.1,2.1,0,0,1-.447-.048,2.709,2.709,0,0,1-1.851-1.431,2.63,2.63,0,0,1-4.99-1.31v-6.492A2.724,2.724,0,0,1,505,149.806a4.619,4.619,0,0,1,1.542-.264,4.343,4.343,0,0,1,3.29,1.518A6.171,6.171,0,0,1,511.1,155.4c0,.746.015,1.2.031,1.456.069.094.14.194.214.3a2.131,2.131,0,0,1,.214,2,3.454,3.454,0,0,1-1.18,1.393c-.037.029-.074.056-.112.082a3.77,3.77,0,0,1-1.51.686A2.12,2.12,0,0,1,508.405,161.346Zm-2.755-7.138Z" transform="translate(0 0)" fill="#fff"/><path d="M506.546,151.667a2.236,2.236,0,0,1,1.71.813,4.431,4.431,0,0,1,.714,2.922,9.465,9.465,0,0,0,.149,2.358,4.459,4.459,0,0,1,.465.6,1.76,1.76,0,0,1-.515.515,2.094,2.094,0,0,1-.664.349q-.615-.133-.614-1.461c0-.277.021-.686.066-1.229s.05-.946.05-1.212q0-2.855-1.594-2.855a1.863,1.863,0,0,0-1.593.946,3.641,3.641,0,0,0-.415,2.009q0,.432.049,1.278c.022.554.034.941.034,1.162q0,1.362-.615,1.362-.531,0-.531-.664v-6.492c0-.265.2-.4.614-.4.254,0,.41.166.465.5q.016.117.017.78a2.209,2.209,0,0,1,.93-.929,2.546,2.546,0,0,1,1.278-.349m0-4.25a6.715,6.715,0,0,0-1.461.159,4.776,4.776,0,0,0-1.229-.159,4.655,4.655,0,0,0-4.864,4.648v6.492a4.772,4.772,0,0,0,7.135,4.287,4.83,4.83,0,0,0,1.383.531,4.234,4.234,0,0,0,1.589.039,5.925,5.925,0,0,0,2.355-1.024c.076-.052.151-.106.225-.163a5.534,5.534,0,0,0,1.844-2.273,4.252,4.252,0,0,0-.3-3.786c0-.2-.007-.452-.007-.766a8.22,8.22,0,0,0-1.827-5.788,6.477,6.477,0,0,0-4.847-2.2Z" transform="translate(0 0)" fill="#fff"/><path d="M796.572,346.5a2.4,2.4,0,0,1-1.285-.377,4.081,4.081,0,0,1-1.7.377,4.72,4.72,0,0,1-3.99-2.1,6.316,6.316,0,0,1-1.107-3.73,6.616,6.616,0,0,1,1.125-3.848,4.841,4.841,0,0,1,3.984-2.127,2.721,2.721,0,0,1,5.433.215c0,.144-.011.389-.04.736-.015.173-.024.286-.026.352v3.444a15.443,15.443,0,0,0,.083,2.02,3.336,3.336,0,0,1,.417.62,2.123,2.123,0,0,1,.217,1.2,3.865,3.865,0,0,1-.777,1.8A2.8,2.8,0,0,1,796.572,346.5Z" transform="translate(0 0)" fill="#fff"/><path d="M796.323,334.309a.6.6,0,0,1,.4.183.54.54,0,0,1,.182.415q0,.166-.033.564-.033.382-.033.5v3.47a12.967,12.967,0,0,0,.166,2.64,1.362,1.362,0,0,0,.282.6,1.839,1.839,0,0,1,.282.366,1.977,1.977,0,0,1-.4.813c-.232.343-.432.515-.6.515q-.282,0-.5-.648a4.065,4.065,0,0,1-.2-.9,3.225,3.225,0,0,1-.963,1.046,2.21,2.21,0,0,1-1.328.5,2.577,2.577,0,0,1-2.241-1.179,4.241,4.241,0,0,1-.731-2.524,4.524,4.524,0,0,1,.747-2.639,2.744,2.744,0,0,1,2.358-1.212,3.636,3.636,0,0,1,1.992.647v-2.49q0-.663.614-.664m-2.706,9.131q1.461,0,2.142-1.992-.05-1.062-.05-2.54a3.1,3.1,0,0,0-2.092-.947,1.64,1.64,0,0,0-1.477.9,3.442,3.442,0,0,0-.449,1.776,3.865,3.865,0,0,0,.415,1.843,1.632,1.632,0,0,0,1.511.963m2.706-13.381a4.749,4.749,0,0,0-4.386,2.718,6.954,6.954,0,0,0-4.039,2.785l-.033.047a8.709,8.709,0,0,0-1.5,5.058,8.425,8.425,0,0,0,1.5,4.961,6.793,6.793,0,0,0,5.723,2.992,6.058,6.058,0,0,0,1.614-.221,4.471,4.471,0,0,0,1.374.221,4.9,4.9,0,0,0,4.09-2.342,5.933,5.933,0,0,0,1.13-2.76,4.248,4.248,0,0,0-.435-2.4,4.83,4.83,0,0,0-.245-.427c-.013-.266-.024-.666-.024-1.25v-3.39c0-.052.009-.121.017-.2.036-.443.049-.706.049-.937a4.758,4.758,0,0,0-1.563-3.55,4.844,4.844,0,0,0-3.268-1.3Z" transform="translate(0 0)" fill="#fff"/><path d="M805.36,346.5a2.583,2.583,0,0,1-1.316-.35,4.287,4.287,0,0,1-1.7.35,4.8,4.8,0,0,1-3.988-1.926,6.15,6.15,0,0,1-1.175-3.785,6.716,6.716,0,0,1,1.146-3.923,4.9,4.9,0,0,1,4.15-2.17,5.46,5.46,0,0,1,1.413.18,2.756,2.756,0,0,1,.994-.18,2.609,2.609,0,0,1,2.706,2.689q0,.368-.036,1.1c-.02.39-.03.674-.03.86a14.729,14.729,0,0,0,.108,2.112,2.124,2.124,0,0,1,.72,2.009,4.487,4.487,0,0,1-.584,1.489A2.747,2.747,0,0,1,805.36,346.5Z" transform="translate(0 0)" fill="#fff"/><path d="M804.879,336.816a.506.506,0,0,1,.581.564c0,.222-.012.554-.033,1s-.033.753-.033.963q0,3.055.514,3.47a3.505,3.505,0,0,1,.349.266,2.375,2.375,0,0,1-.316.78q-.3.514-.581.515-.6,0-.846-1.511a2.42,2.42,0,0,1-.864,1.1,2.305,2.305,0,0,1-1.311.415,2.7,2.7,0,0,1-2.291-1.079,4.065,4.065,0,0,1-.747-2.507,4.615,4.615,0,0,1,.763-2.706,2.757,2.757,0,0,1,2.408-1.262,2.727,2.727,0,0,1,1.842.614c.034-.409.221-.614.565-.614m-2.507,6.657q1.427,0,1.843-1.76a16.94,16.94,0,0,0,.166-2.805,2.489,2.489,0,0,0-1.909-.98q-2.043,0-2.042,2.939a3.377,3.377,0,0,0,.431,1.776,1.668,1.668,0,0,0,1.511.83m2.507-10.907a4.986,4.986,0,0,0-1.068.114,7.73,7.73,0,0,0-1.339-.114,6.975,6.975,0,0,0-5.915,3.112,8.761,8.761,0,0,0-1.506,5.106,8.226,8.226,0,0,0,1.6,5.057,6.943,6.943,0,0,0,5.691,2.779,6.456,6.456,0,0,0,1.633-.21,4.743,4.743,0,0,0,5.629-2.394,6.588,6.588,0,0,0,.835-2.171,4.252,4.252,0,0,0-.762-3.3c-.017-.283-.03-.676-.03-1.208,0-.161.01-.409.027-.742.027-.548.039-.949.039-1.217a4.717,4.717,0,0,0-4.831-4.814Zm-.18,7.968h0Z" transform="translate(0 0)" fill="#fff"/><path d="M811.675,346.478a2.765,2.765,0,0,1-2.789-2.988v-1.146c0-.156.011-.413.04-.769,0-.124.01-.275.01-.376,0-.294-.012-.734-.033-1.321-.012-.694-.017-1.172-.017-1.468v-1a3.011,3.011,0,0,0-.233-2.507,2.835,2.835,0,0,1,2.955-2.972,8.89,8.89,0,0,1,2.723,5.479v6.175a3.283,3.283,0,0,1-.314,1.394,2.147,2.147,0,0,1-.177.309A2.62,2.62,0,0,1,811.675,346.478Z" transform="translate(0 0)" fill="#fff"/><path d="M811.608,334.06a.836.836,0,0,1,.615.249.814.814,0,0,1,.232.6,1.035,1.035,0,0,1-.249.6.935.935,0,0,1-.6.249.887.887,0,0,1-.6-.249.92.92,0,0,1-.233-.6.741.741,0,0,1,.83-.847m0,2.739a.536.536,0,0,1,.6.615v6.175a1.175,1.175,0,0,1-.116.5.511.511,0,0,1-.415.266c-.444,0-.664-.288-.664-.863v-1.146c0-.121.01-.321.033-.6.011-.244.017-.426.017-.548q0-.465-.034-1.4-.017-.961-.016-1.394v-1a.536.536,0,0,1,.6-.615m0-6.989a4.977,4.977,0,0,0-5.08,5.1,5.059,5.059,0,0,0,.293,1.705,5.265,5.265,0,0,0-.06.8v1q0,.456.017,1.472l0,.069c.019.555.031.971.031,1.248,0,.068,0,.164-.01.286-.027.356-.04.631-.04.859v1.146a4.906,4.906,0,0,0,4.914,5.113,4.715,4.715,0,0,0,3.915-2.105,4.212,4.212,0,0,0,.354-.619,5.4,5.4,0,0,0,.512-2.29v-6.175a5.369,5.369,0,0,0-.059-.8,4.986,4.986,0,0,0,.308-1.707,5.072,5.072,0,0,0-5.1-5.1Z" transform="translate(0 0)" fill="#fff"/><path d="M672.66,511.625a2.149,2.149,0,0,1-.445-.047,2.705,2.705,0,0,1-1.853-1.432,2.63,2.63,0,0,1-4.99-1.31v-6.491a2.724,2.724,0,0,1,3.887-2.26,4.619,4.619,0,0,1,1.542-.264,4.343,4.343,0,0,1,3.29,1.518,6.171,6.171,0,0,1,1.259,4.343c0,.746.015,1.195.031,1.456.069.092.14.193.214.3a2.131,2.131,0,0,1,.215,1.993,3.454,3.454,0,0,1-1.181,1.4c-.036.027-.073.055-.11.08a3.78,3.78,0,0,1-1.52.689A2.142,2.142,0,0,1,672.66,511.625Zm-2.755-7.137Z" transform="translate(0 0)" fill="#fff"/><path d="M670.8,501.946a2.238,2.238,0,0,1,1.71.814,4.428,4.428,0,0,1,.714,2.922,9.406,9.406,0,0,0,.149,2.357,4.5,4.5,0,0,1,.465.6,1.761,1.761,0,0,1-.515.514,2.072,2.072,0,0,1-.664.349q-.615-.132-.614-1.461c0-.276.021-.685.066-1.228s.05-.947.05-1.212q0-2.856-1.594-2.856a1.865,1.865,0,0,0-1.593.946,3.641,3.641,0,0,0-.415,2.009q0,.432.049,1.279c.022.553.034.941.034,1.162q0,1.362-.615,1.361-.531,0-.531-.664v-6.491c0-.266.2-.4.614-.4.254,0,.41.166.465.5q.016.117.017.781a2.215,2.215,0,0,1,.929-.93,2.55,2.55,0,0,1,1.279-.349m0-4.25a6.77,6.77,0,0,0-1.461.159,4.776,4.776,0,0,0-1.229-.159,4.656,4.656,0,0,0-4.864,4.649v6.491a4.772,4.772,0,0,0,7.134,4.287,4.841,4.841,0,0,0,1.389.533,4.238,4.238,0,0,0,.89.094,4.183,4.183,0,0,0,.679-.055,5.885,5.885,0,0,0,2.373-1.028c.076-.051.149-.105.221-.161a5.517,5.517,0,0,0,1.847-2.279,4.25,4.25,0,0,0-.3-3.779c0-.2-.007-.453-.007-.766a8.221,8.221,0,0,0-1.827-5.789,6.477,6.477,0,0,0-4.847-2.2Z" transform="translate(0 0)" fill="#fff"/><path d="M679.373,511.625a4.862,4.862,0,0,1-4.112-2.187,6.524,6.524,0,0,1-1.134-3.839,5.9,5.9,0,0,1,1.438-4,5.051,5.051,0,0,1,3.991-1.773,3.772,3.772,0,0,1,2.966,1.146,3.52,3.52,0,0,1,.647.967A5.09,5.09,0,0,1,684.8,505.8a5.877,5.877,0,0,1-1.434,3.9A5.086,5.086,0,0,1,679.373,511.625Zm.031-6.343a1.758,1.758,0,0,0-.048.449,2.109,2.109,0,0,0,.028.359,2.416,2.416,0,0,0,.072-.624h0A1.76,1.76,0,0,0,679.4,505.282Z" transform="translate(0 0)" fill="#fff"/><path d="M679.556,501.946a1.789,1.789,0,0,1,1.378.432,1,1,0,0,1,.348.78,2.916,2.916,0,0,1,1.395,2.64,3.788,3.788,0,0,1-.93,2.523,2.984,2.984,0,0,1-2.374,1.179,2.708,2.708,0,0,1-2.357-1.262,4.44,4.44,0,0,1-.764-2.639,3.821,3.821,0,0,1,.913-2.607,2.96,2.96,0,0,1,2.391-1.046m-.266,6.674a1.955,1.955,0,0,0,1.76-1.062,3.929,3.929,0,0,0,.531-2.092,4.585,4.585,0,0,0-.647-1.959.133.133,0,0,0-.05.016,2.71,2.71,0,0,1-.631-.249,2.262,2.262,0,0,0-.9-.232,1.812,1.812,0,0,0-1.627.847,3.151,3.151,0,0,0-.5,1.842,3.645,3.645,0,0,0,.482,1.893,1.74,1.74,0,0,0,1.577,1m.266-10.924a7.233,7.233,0,0,0-5.618,2.53A8.075,8.075,0,0,0,672,505.6a8.629,8.629,0,0,0,1.525,5.067,6.927,6.927,0,0,0,5.846,3.084,7.256,7.256,0,0,0,5.643-2.712,8.027,8.027,0,0,0,1.911-5.24,7.171,7.171,0,0,0-2.038-5.163,5.944,5.944,0,0,0-.809-1.115,5.833,5.833,0,0,0-4.524-1.824Z" transform="translate(0 0)" fill="#fff"/><path d="M913.8,597.79a2.281,2.281,0,0,1-.33-.025,4.405,4.405,0,0,1-1.577-.626,2.83,2.83,0,0,1-1.6-2.4,2.613,2.613,0,0,1,1.821-2.4h0a2.124,2.124,0,0,0,.389-.414l-1.788-3.97a5.2,5.2,0,0,1-.553-2.085,2.639,2.639,0,0,1,5.083-1.013,2.665,2.665,0,0,1,2.471-1.643,2.5,2.5,0,0,1,2.59,2.523c0,.371,0,.459-.781,2.917-.472,1.474-1.006,2.932-1.589,4.338-1.336,3.217-2.3,4.46-3.7,4.753A2.12,2.12,0,0,1,913.8,597.79Z" transform="translate(0 0)" fill="#fff"/><path d="M917.713,585.339c.309,0,.465.133.465.4q0,.134-.681,2.275-.681,2.126-1.527,4.167-1.379,3.32-2.175,3.486a2.436,2.436,0,0,1-.814-.349c-.377-.232-.564-.426-.564-.581,0-.132.193-.288.581-.464a5.011,5.011,0,0,0,1.909-2.175l-2.258-5.014a3.491,3.491,0,0,1-.365-1.212q0-.531.581-.531.332,0,.614.8.183.5.515,1.527.548,1.494,1.411,3.5a17.224,17.224,0,0,0,1.677-5.047q.115-.78.631-.78m0-4.25a4.665,4.665,0,0,1-4.848,0,4.7,4.7,0,0,0-4.831,4.781,7.127,7.127,0,0,0,.727,2.927l1.1,2.448a4.491,4.491,0,0,0-1.7,3.49,4.814,4.814,0,0,0,2.584,4.2l.044.027a6.5,6.5,0,0,0,2.339.9,4.188,4.188,0,0,0,.661.052,4.274,4.274,0,0,0,.872-.09c2.759-.579,4.095-3.289,5.228-6.016.606-1.463,1.161-2.976,1.649-4.5.759-2.389.884-2.806.884-3.572a4.632,4.632,0,0,0-4.715-4.648Z" transform="translate(0 0)" fill="#fff"/><path d="M926.567,595.018a2.573,2.573,0,0,1-1.316-.351,4.275,4.275,0,0,1-1.7.351,4.8,4.8,0,0,1-3.988-1.926,6.148,6.148,0,0,1-1.175-3.785,6.713,6.713,0,0,1,1.146-3.922,4.894,4.894,0,0,1,4.15-2.171,5.417,5.417,0,0,1,1.413.18,2.735,2.735,0,0,1,.994-.18,2.609,2.609,0,0,1,2.706,2.689c0,.244-.012.612-.036,1.1-.02.389-.03.674-.03.859a14.752,14.752,0,0,0,.108,2.112h0a2.124,2.124,0,0,1,.719,2.008,4.5,4.5,0,0,1-.584,1.49A2.753,2.753,0,0,1,926.567,595.018Z" transform="translate(0 0)" fill="#fff"/><path d="M926.086,585.339a.506.506,0,0,1,.581.564c0,.222-.012.554-.033,1s-.033.753-.033.963q0,3.054.514,3.47a3.505,3.505,0,0,1,.349.266,2.375,2.375,0,0,1-.316.78q-.3.514-.581.515-.6,0-.846-1.511a2.425,2.425,0,0,1-.864,1.1,2.305,2.305,0,0,1-1.311.415,2.7,2.7,0,0,1-2.291-1.08,4.062,4.062,0,0,1-.747-2.506,4.615,4.615,0,0,1,.763-2.706,2.757,2.757,0,0,1,2.408-1.262,2.727,2.727,0,0,1,1.842.614c.034-.409.221-.614.565-.614M923.579,592q1.427,0,1.843-1.76a16.94,16.94,0,0,0,.166-2.8,2.486,2.486,0,0,0-1.909-.98q-2.043,0-2.042,2.939a3.377,3.377,0,0,0,.431,1.776,1.668,1.668,0,0,0,1.511.83m2.507-10.907a4.986,4.986,0,0,0-1.068.114,7.73,7.73,0,0,0-1.339-.114,6.975,6.975,0,0,0-5.915,3.112,8.761,8.761,0,0,0-1.506,5.106,8.221,8.221,0,0,0,1.6,5.056,6.942,6.942,0,0,0,5.691,2.78,6.456,6.456,0,0,0,1.633-.21,4.743,4.743,0,0,0,5.628-2.392,6.578,6.578,0,0,0,.836-2.171,4.252,4.252,0,0,0-.762-3.3c-.017-.283-.03-.676-.03-1.208,0-.161.01-.409.027-.742.027-.548.039-.949.039-1.217a4.717,4.717,0,0,0-4.831-4.814Zm-.18,7.967Z" transform="translate(0 0)" fill="#fff"/><path d="M793.623,783.533a2.6,2.6,0,0,1-2.123-1.244,2.573,2.573,0,0,1-2.227,1.244,2.74,2.74,0,0,1-2.739-2.922v-8.6a2.7,2.7,0,1,1,5.4-.033c0,.066,0,.145,0,.235a2.488,2.488,0,0,1,1.466-.485,2.718,2.718,0,0,1,2.629,2.237,2.138,2.138,0,0,1-.014,1.06,2.785,2.785,0,0,1-.934,1.416l-.735.577.127.135a6.02,6.02,0,0,0,.78.724,2.281,2.281,0,0,1,1.731,1.608,2.134,2.134,0,0,1,.038,1.038,3.9,3.9,0,0,1-1.093,1.79A3.246,3.246,0,0,1,793.623,783.533Z" transform="translate(0 0)" fill="#fff"/><path d="M789.207,771.348q.6,0,.6.631,0,.282-.05.9c-.023.4-.033.692-.033.88v3.27l3.27-2.938a.637.637,0,0,1,.4-.233c.276,0,.464.206.564.615a.659.659,0,0,1-.232.332l-2.69,2.108a8.82,8.82,0,0,1,1.876,1.694,4.025,4.025,0,0,0,1.81,1.344c.121.012.193.056.216.133a2.279,2.279,0,0,1-.565.78q-.531.549-.747.548t-.764-.946q-.78-1.395-1.1-1.826a2.6,2.6,0,0,0-1.461-1.146l-.581.432v.631c0,.232.016.576.049,1.029.022.432.034.764.034,1q0,.831-.532.83-.615,0-.614-.8v-8.6q0-.664.548-.664m0-4.25a4.75,4.75,0,0,0-4.8,4.914v8.6a4.849,4.849,0,0,0,4.864,5.047,4.773,4.773,0,0,0,2.215-.554,4.272,4.272,0,0,0,2.135.554,5.313,5.313,0,0,0,3.8-1.838l.049-.051a5.879,5.879,0,0,0,1.622-2.8,4.248,4.248,0,0,0-.076-2.077,4.388,4.388,0,0,0-1.433-2.17,4.8,4.8,0,0,0,.474-1.138,4.241,4.241,0,0,0,.028-2.12,4.853,4.853,0,0,0-4.6-3.859,4.741,4.741,0,0,0-4.276-2.507Z" transform="translate(0 0)" fill="#fff"/><path d="M800.535,783.533a4.862,4.862,0,0,1-4.112-2.187,6.524,6.524,0,0,1-1.134-3.839,5.892,5.892,0,0,1,1.439-4,5.051,5.051,0,0,1,3.99-1.773,3.776,3.776,0,0,1,2.967,1.146,3.537,3.537,0,0,1,.646.967,5.092,5.092,0,0,1,1.633,3.864,5.881,5.881,0,0,1-1.434,3.9A5.088,5.088,0,0,1,800.535,783.533Zm.031-6.343a1.769,1.769,0,0,0-.047.45,2.094,2.094,0,0,0,.027.358,2.416,2.416,0,0,0,.072-.624h0A1.76,1.76,0,0,0,800.566,777.19Z" transform="translate(0 0)" fill="#fff"/><path d="M800.718,773.854a1.789,1.789,0,0,1,1.378.432,1,1,0,0,1,.348.78,2.916,2.916,0,0,1,1.4,2.64,3.788,3.788,0,0,1-.93,2.523,2.981,2.981,0,0,1-2.374,1.179,2.708,2.708,0,0,1-2.357-1.262,4.44,4.44,0,0,1-.764-2.639,3.823,3.823,0,0,1,.913-2.607,2.96,2.96,0,0,1,2.391-1.046m-.266,6.674a1.955,1.955,0,0,0,1.76-1.062,3.926,3.926,0,0,0,.531-2.092,4.589,4.589,0,0,0-.647-1.959.122.122,0,0,0-.05.017,2.727,2.727,0,0,1-.631-.249,2.248,2.248,0,0,0-.9-.233,1.81,1.81,0,0,0-1.627.847,3.154,3.154,0,0,0-.5,1.843,3.643,3.643,0,0,0,.481,1.892,1.74,1.74,0,0,0,1.577,1m.266-10.924a7.23,7.23,0,0,0-5.617,2.53,8.073,8.073,0,0,0-1.937,5.373,8.629,8.629,0,0,0,1.525,5.067,6.927,6.927,0,0,0,5.846,3.084,7.256,7.256,0,0,0,5.643-2.712,8.027,8.027,0,0,0,1.911-5.24,7.171,7.171,0,0,0-2.038-5.163,5.907,5.907,0,0,0-.809-1.114,5.833,5.833,0,0,0-4.524-1.825Z" transform="translate(0 0)" fill="#fff"/><path d="M811.548,783.517a2.068,2.068,0,0,1-.333-.027,2.839,2.839,0,0,1-.909-.307,4.523,4.523,0,0,1-1.73.334,4.377,4.377,0,0,1-3.644-1.7,5.5,5.5,0,0,1-1.021-3.385V774.3a2.509,2.509,0,0,1,2.54-2.59,2.784,2.784,0,0,1,2.46,1.3,2.632,2.632,0,0,1,4.452-.143,2.87,2.87,0,0,1,.492,1.631c0,.282-.023.686-.077,1.211-.035.337-.055.578-.055.731v1.528c0,.14.006.258.011.356a2.363,2.363,0,0,1,.9,1.852,3.273,3.273,0,0,1-.8,1.985,3.429,3.429,0,0,1-1.814,1.3A2.137,2.137,0,0,1,811.548,783.517Z" transform="translate(0 0)" fill="#fff"/><path d="M811.216,773.838a.424.424,0,0,1,.382.216.745.745,0,0,1,.132.448q0,.348-.066,1c-.045.432-.066.747-.066.946v1.528a4.1,4.1,0,0,0,.2,1.51,1.365,1.365,0,0,0,.432.382c.187.112.282.216.282.316a1.329,1.329,0,0,1-.349.68,1.525,1.525,0,0,1-.614.532.8.8,0,0,1-.614-.565,2.261,2.261,0,0,1-.15-.863,2.42,2.42,0,0,1-2.208,1.428,2.319,2.319,0,0,1-1.959-.864,3.413,3.413,0,0,1-.581-2.091V774.3q0-.465.415-.465.714,0,.714.6c0,.166-.012.393-.033.68-.012.322-.017.548-.017.681v2.241q0,2.524,1.478,2.524a1.784,1.784,0,0,0,1.61-.93,3.615,3.615,0,0,0,.5-1.926v-3.337a.463.463,0,0,1,.515-.531m0-4.25a4.81,4.81,0,0,0-2.323.587,5.207,5.207,0,0,0-2.442-.587,4.64,4.64,0,0,0-4.665,4.715v4.134a7.564,7.564,0,0,0,1.425,4.633l.035.047a6.542,6.542,0,0,0,5.33,2.525,6.767,6.767,0,0,0,1.653-.2,4.853,4.853,0,0,0,.654.149,4.215,4.215,0,0,0,1.623-.057,5.391,5.391,0,0,0,2.932-1.964c.027-.032.053-.065.079-.1a5.387,5.387,0,0,0,1.244-3.29,4.508,4.508,0,0,0-.913-2.7v-1.033h0s0-.143.043-.507c.061-.6.089-1.054.089-1.436a4.987,4.987,0,0,0-.851-2.814,4.669,4.669,0,0,0-3.913-2.1Z" transform="translate(0 0)" fill="#fff"/></g></g><g id="Text"><g id="蓮台野夜行"><path d="M603.741,125.773a27.9,27.9,0,0,1-.434-4.559,5.876,5.876,0,0,1,1.954-4.126,8.084,8.084,0,0,1,5.211-1.736,9.357,9.357,0,0,1,5.645,1.736q2.819,1.523,2.822,4.126a15.19,15.19,0,0,1-.434,3.691q12.808,0,25.4-.869a34.47,34.47,0,0,1,8.25.869,6.321,6.321,0,0,1,3.257,4.125q0,4.558-7.165,4.559H617.637v7.817q16.283-1.085,28.008-1.086a17.766,17.766,0,0,1,8.033,1.954,5.433,5.433,0,0,1,3.257,4.994q0,1.74-3.039,3.691a14.3,14.3,0,0,0-3.257,3.474,37.643,37.643,0,0,0-1.52,8.684,48.993,48.993,0,0,0,.434,8.685,7.063,7.063,0,0,1-2.388,4.994,9.447,9.447,0,0,1-6.514,2.822h-5.862a27.87,27.87,0,0,0-6.73-.868h-9.988q0,3.476.217,7.6,9.333-.865,17.8-.869,13.458-.864,20.626,0t7.165,6.3q0,3.257-5.862,2.388-20.844.872-39.733,1.737.215,3.695.217,7.816,0,4.56-1.3,6.3,26.487,1.74,49.286,1.737a73.73,73.73,0,0,0,16.067-1.737,61.764,61.764,0,0,0,10.205-2.6h3.908q4.12,0,4.125,2.6,0,4.127-17.8,19.106-11.511,7.816-19.106,7.817t-17.369-4.56a92.5,92.5,0,0,0-13.028-4.125q-8.467-1.735-21.06-4.56-18.89-2.6-36.91-4.125-19.327-1.736-32.568-1.737-4.126,0-12.81,4.126-6.513,5.428-11.073,5.427-6.732-.864-8.684-10.422,1.955-7.815,6.73-10.421,6.513,0,12.159-5.211a41.793,41.793,0,0,0,10.421-9.553q3.909-5.424,7.817-5.428,7.6,0,7.6,4.56,0,3.257-8.033,6.947-6.732,5.862-6.947,8.685a3.3,3.3,0,0,1,1.954.869,27.683,27.683,0,0,0,6.731-.869q13.026,0,45.377,1.737,7.166.87,14.113,1.737v-.869a27.636,27.636,0,0,1-1.521-7.816V195.9q-20.409,1.955-34.521,3.691-7.166,1.74-8.033-4.559.432-5.863,8.684-6.731,14.331-.864,33.653-1.954v-6.731c-.434,0-.8.292-1.085.869a129.531,129.531,0,0,0-15.849.868,20.7,20.7,0,0,1-6.514,2.389q-7.6,0-7.6-6.079a22.193,22.193,0,0,0,1.519-7.6,24.84,24.84,0,0,0-2.388-10.421,11.2,11.2,0,0,0-3.691-3.691,6.125,6.125,0,0,1-2.388-3.257q0-3.69,3.474-6.948a9.052,9.052,0,0,1,6.947-3.474,34.933,34.933,0,0,1,6.949.869,17.718,17.718,0,0,0,7.816,0,92.161,92.161,0,0,0,12.158-.869q-.217-4.56-.434-7.816-14.548.87-22.581,1.737-6.95.651-9.335.651-5.649,0-5.645-3.257,0-2.818,3.69-5.427a34.9,34.9,0,0,1,10.205-1.52Q592.885,125.777,603.741,125.773Zm-54.5,38.213q3.258,0,3.257,3.257,0,2.823-4.776,5.427a65.764,65.764,0,0,1-8.685,6.08,13.336,13.336,0,0,1-7.816,2.6q-3.695,0-6.079-3.69a8.1,8.1,0,0,1-2.606-5.863,7.612,7.612,0,0,1,1.086-3.691q1.3-2.606,3.257-2.6a9.879,9.879,0,0,1,4.993,1.737A50.386,50.386,0,0,0,549.244,163.986Zm11.508-49.5q-17.373,1.74-28.66,2.6-7.6,0-7.6-6.3,1.084-3.257,5.211-5.862a87.658,87.658,0,0,1,12.376-.868h15.632q-.219-1.085-.434-2.823,1.516-7.816,8.25-8.685,7.6,1.74,7.6,6.3a5.529,5.529,0,0,1-1.3,2.388,7.1,7.1,0,0,0-.218,1.737q8.249,0,18.022-.869,16.5-.864,33-.868-.219-3.257-.651-5.863.865-4.559,7.6-6.079,3.471,0,4.56,1.52a3.384,3.384,0,0,1,2.171,3.474,33.424,33.424,0,0,1-1.52,6.08h18.889q13.891,0,13.895,5.427,0,5-5.861,4.994H633.7q-.217,2.825-.433,4.56-.438,4.126-6.3,4.993-3.909,0-3.909-4.993v-3.691q-15.418,0-34.086.868a157.828,157.828,0,0,1-17.8,1.086v3.473q-.22,6.083-4.343,6.08-3.694,0-4.994-6.08Q561.186,115.354,560.752,114.483Zm-24.1,14.547q3.69,0,6.731,4.559a52.579,52.579,0,0,0,6.731,4.126q3.039,2.605,3.039,4.559,0,1.74-2.387,1.737a65.034,65.034,0,0,0-10.205-.868h-9.553q-4.128,0-4.343-2.823a8.4,8.4,0,0,1,2.171-5.862Q533.176,129.033,536.651,129.03Zm69.478,27.791v-6.948q-7.383,1.089-15.415,2.823-5.429,0-5.428,3.257.432.87,1.086,2.6h1.736Q595.925,157.693,606.129,156.821Zm-18.021,11.29a15.051,15.051,0,0,1,.218,2.823q0,2.6,2.822,2.6a127.036,127.036,0,0,1,15.415-2.6q-.217-2.82-.216-6.08Q595.924,166.377,588.108,168.111Zm52.109-12.81q.432-1.734.868-3.474,0-2.818-4.776-2.822H617.637q0,3.695.217,6.948a59.813,59.813,0,0,1,8.9-.652q8.249-.864,12.375,0Zm-22.363,8.685v6.079h5.862a59.686,59.686,0,0,1,10.205.869q4.773,0,4.558-4.56a13.377,13.377,0,0,1,.435-3.257Q627.841,163.117,617.854,163.986Z" transform="translate(0 0)" fill="#231f20"/><path d="M714.683,290.512h25.792q22.806,0,25.793-1.493c.451,0,.678-.181.678-.543a24.514,24.514,0,0,0-3.394-5.43q-1.087-1.629-2.308-3.394a4.1,4.1,0,0,1-1.9-3.122q0-2.307,4.615-2.851,2.579,0,3.4,1.765,1.9,2.716,3.8,5.43a54.99,54.99,0,0,0,4.073,4.751q4.2,3.939,3.665,6.516a3.706,3.706,0,0,1-2.715,3.8h-4.615a102.021,102.021,0,0,1-10.725,1.086,157.55,157.55,0,0,1-20.77,1.222q-9.094,0-16.153-.679a131.558,131.558,0,0,1-13.3-.543,8.7,8.7,0,0,0-2.986.543h-1.357q-3.125,0-3.8-7.059a10.213,10.213,0,0,1,1.086-4.344,13.432,13.432,0,0,1,3.529-4.208,59.58,59.58,0,0,0,14.66-10.86q6.518-5.971,10.182-8.824a5.669,5.669,0,0,1,4.208-2.036q.948,0,3.258,2.036a5.149,5.149,0,0,1,1.629,3.394q-.681,2.58-6.923,5.973Q726.22,277.617,719.026,284q-5.16,5.024-5.158,5.566C713.868,289.833,714.14,290.151,714.683,290.512Zm48.869,51.177q-1.9-.54-4.615-1.086a33.1,33.1,0,0,0-5.566-.543q-9.91,0-21.041.543-11.81,1.089-16.29,1.086-2.172.545-3.529.95a4.609,4.609,0,0,1-3.122,0,6.884,6.884,0,0,1-4.344-4.344,5.492,5.492,0,0,1,.271-2.579q.542-1.085,1.358-2.715a9.378,9.378,0,0,0,1.357-4.344,57.914,57.914,0,0,0,0-9.774,10.662,10.662,0,0,0-.814-3.258,6.43,6.43,0,0,1-.407-1.764,11.919,11.919,0,0,1,2.307-3.666,4.059,4.059,0,0,1,3.937-1.221,11.711,11.711,0,0,1,2.986.543,8.455,8.455,0,0,0,4.751,0q16.423-.541,41.539-1.086a14.778,14.778,0,0,0,4.073-.543,10.8,10.8,0,0,1,2.851-.408,6.609,6.609,0,0,1,6.108,4.887,7.135,7.135,0,0,1-.271,2.58,17.617,17.617,0,0,0-1.9,4.344,87.431,87.431,0,0,0-.543,9.366,17.363,17.363,0,0,0,.136,2.172,9.134,9.134,0,0,1,.815,2.715,4.356,4.356,0,0,1-.679,3.123,4.131,4.131,0,0,1-1.629,2.307A8.748,8.748,0,0,1,763.552,341.689ZM721.2,315.625q-3.937,1.089-3.936,4.208a54.3,54.3,0,0,1-.543,10.453q-.545,3.8,1.9,3.8,19-.54,42.625-1.086,2.307,0,2.987-2.715.134-6.516.272-12.489.54-2.169-3.123-2.85-10.588,0-20.362.678Z" transform="translate(0 0)" fill="#231f20"/><path d="M709.708,445.436V428.544H704.62a46.891,46.891,0,0,0-10.378,2.443,24.07,24.07,0,0,1-7.326,1.628q-3.053,0-3.867-3.256a43.107,43.107,0,0,1,.61-6.512,66.513,66.513,0,0,0,.612-10.582,72.555,72.555,0,0,0-1.425-13.228,44.889,44.889,0,0,0-2.035-4.681,20.683,20.683,0,0,1-1.628-6.512,6.222,6.222,0,0,1,1.628-4.274,5.525,5.525,0,0,1,4.07-1.628h8.954q12.21-.81,21.571-.814,15.057,0,17.5-.61h4.071q2.031-.81,4.273-1.628a12.888,12.888,0,0,1,6.105,1.628q4.068,3.053,4.07,5.7a45.221,45.221,0,0,1-.814,9.768,61.116,61.116,0,0,0-2.442,8.141,97.634,97.634,0,0,0-1.831,17.094q-.206,7.326-5.9,8.14a19.955,19.955,0,0,1-6.715-1.832H720.29v2.646q-.205,8.142-.2,15.263a140.383,140.383,0,0,1,15.059-.814h8.75a7.472,7.472,0,0,1,3.46,5.087q0,4.884-7.733,4.884h-19.74v16.891q10.175-.811,20.35-1.628a48.79,48.79,0,0,1,9.769.814,7.557,7.557,0,0,1,4.069,5.9q0,4.885-8.547,4.885-16.689,0-31.746.814-16.484,1.631-24.828,2.441a39.029,39.029,0,0,1-7.936,1.425q-6.921,0-6.919-3.866,0-4.275,4.477-6.513a32.662,32.662,0,0,1,12.21-2.442q9.563-.81,18.926-1.831V455.407q-9.568.816-14.652,1.628a26.526,26.526,0,0,1-6.512,1.628q-6.1,0-6.106-4.07,0-3.458,4.071-5.7a37.882,37.882,0,0,1,10.785-1.628Q703.4,446.457,709.708,445.436Zm0-44.771V396.8a14.171,14.171,0,0,0-1.018-5.088q-.816-2.236-1.22-3.052a79.524,79.524,0,0,0-11.6.814q-2.242,0-2.442,3.052,0,3.464.2,9.972h.2Q700.551,401.481,709.708,400.665Zm-15.67,10.785q.2,4.074.407,8.954a4.376,4.376,0,0,0,2.035,1.629q6.51-.812,13.228-1.629V409.619Q700.75,410.435,694.038,411.45Zm26.862-3.459q-.2,5.9-.2,11.4h13.838a1.766,1.766,0,0,0,2.035-1.628q.612-3.862,1.221-10.582Q729.04,407.177,720.9,407.991Zm17.3-8.954q.2-3.864.407-8.954,0-1.422-4.68-2.239H721.511v.814q-.205,5.7-.407,11.193a37.367,37.367,0,0,0,7.733-.814Zm58.61-22.589A34.238,34.238,0,0,1,808,378.076q1.626.816,9.564.814a7.048,7.048,0,0,1,6.309,3.052q3.254,6.715,3.256,11.4,0,1.022-2.441,2.646a23.749,23.749,0,0,1-7.124.814q-3.462,1.632-7.936,3.867a63.182,63.182,0,0,1-9.361,6.512,33.4,33.4,0,0,1,5.087,3.256q3.254,1.832,2.849,5.088a28.59,28.59,0,0,1,6.513-.814q17.7.815,25.03,3.866,8.343,3.462,7.733,10.786-.814,5.495-2.645,6.308-1.63.816-3.256,1.832a13.836,13.836,0,0,0-4.273.814,86.7,86.7,0,0,1-18.723,6.309,80.2,80.2,0,0,1-12.21,3.459,117.717,117.717,0,0,1,.61,12.821q0,15.672-5.9,24.623-4.884,8.958-16.484,8.954a46.958,46.958,0,0,1-16.687-4.069q-9.158-3.459-9.158-7.327,0-3.458,4.273-3.459a38.769,38.769,0,0,0,17.1,3.459q14.242,0,14.448-27.676,0-13.02-1.22-18.926a46.439,46.439,0,0,0-1.425-5.494q-.814-1.628-1.831-3.46a2.774,2.774,0,0,0-2.035-.814,9.456,9.456,0,0,0-3.867.814,123.183,123.183,0,0,0-19.943,6.512q-8.142,4.274-10.582,4.274-3.463-.812-3.46-4.884.811-8.953,9.972-11.4,9.967-2.643,24.827-5.088,7.327-.811,14.042-1.424a54.183,54.183,0,0,0-6.309-3.256q-3.663-.812-7.123-1.832a21.444,21.444,0,0,0-5.9-.814q-4.884,0-4.884-3.867.81-5.9,7.122-6.715a18.71,18.71,0,0,1,5.7,1.628,27.3,27.3,0,0,1,6.309,2.645q3.663-3.458,8.751-8.14,5.7-4.273,5.7-6.512,0-2.442-11.6-3.256a50.644,50.644,0,0,0-13.432,1.628,61.145,61.145,0,0,0-11.8,4.68q-4.074,3.464-6.919,3.46-3.868,0-3.867-3.46.811-7.324,8.751-11.192,5.085-.81,11.6-2.442A77.905,77.905,0,0,1,796.808,376.448Zm8.343,64.307q4.068-1.627,10.99-4.274a27.928,27.928,0,0,0,8.75-3.866q3.864-2.442,3.867-5.088,0-3.052-14.449-3.866-8.347.815-16.688,1.424a33.113,33.113,0,0,1,4.885,8.344A22.258,22.258,0,0,1,805.151,440.755Z" transform="translate(0 0)" fill="#231f20"/><path d="M806.157,574.8a11.476,11.476,0,0,1,.325,3.907q-.816,23.447-.813,46.73,0,10.584-4.233,10.583a4.936,4.936,0,0,1-3.094-3.419,15.564,15.564,0,0,1-1.14-6.514q0-22.14-.977-40.216,0-2.114-.163-4.559-11.073,6.514-14.491,6.513t-3.419-7.164a30.534,30.534,0,0,1,1.14-7.164,2.934,2.934,0,0,1,2.605-1.954,11.421,11.421,0,0,1,3.908.651q4.884-.648,28.981-12.374,5.373-4.068,7.164-4.07a1.872,1.872,0,0,1,2.117,2.116q-.976,3.747-10.584,11.561A32.464,32.464,0,0,1,806.157,574.8Zm34.029-30.611q21.163-.648,43.472-.651,11.559,0,11.561,4.4,0,4.071-5.048,4.07H874.215q-17.1,0-41.03.651-28.818,1.3-43.8,2.443-6.19,0-6.188-5.21a8.624,8.624,0,0,1,4.4-4.4,74.2,74.2,0,0,1,9.769-.651q9.928,0,36.634-.652v-2.767q0-1.791-3.257-3.094a3.9,3.9,0,0,1-2.116-3.419q.813-4.4,6.35-5.048a18.543,18.543,0,0,1,7.652,1.954q4.068,2.442,4.071,4.559a4.322,4.322,0,0,1-3.094,4.4Q842.14,542.078,840.186,544.19ZM865.1,558.519q6.02,0,8.792,3.093,1.464,1.3,2.442,5.373a13.9,13.9,0,0,0,3.907,5.862q6.023,2.442,6.025,7.815-.489,3.1-5.862,4.559a52.157,52.157,0,0,0-9.443,5.048q-4.723,4.069-9.118,7.164,12.046,7.166,21,12.537,13.836,7.165,32.075,7.164,2.277,0,2.279,1.791a2.747,2.747,0,0,1-1.139,2.116q-3.42,3.095-14.329,8.467a33.051,33.051,0,0,1-6.512,2.442,15.978,15.978,0,0,1-4.4.652,15,15,0,0,1-5.047-1.791,60.921,60.921,0,0,1-6.187-5.373q-5.86-5.046-10.908-10.258-6.027-5.209-14.166-11.886a94.847,94.847,0,0,1-20.027,13.188q-7.815,4.56-13.513,4.559a8.787,8.787,0,0,1-6.839-3.419,10.356,10.356,0,0,1-2.443-6.513q.649-2.443,4.072-2.442a10.292,10.292,0,0,0,5.21,1.3,27.3,27.3,0,0,0,11.071-2.606,76.379,76.379,0,0,0,14.491-7.815,22.243,22.243,0,0,0,1.954-1.465,45.106,45.106,0,0,0-10.421-5.7A26,26,0,0,0,827,589.617h-2.442a5.5,5.5,0,0,1-2.443.652q-3.908-.649-3.908-3.746,0-5.861,7.164-7.815a67.9,67.9,0,0,0,29.471-12.374,23.938,23.938,0,0,0,6.024-5.861A6.3,6.3,0,0,1,865.1,558.519ZM842.3,582.453a12.865,12.865,0,0,0-4.071,1.954q5.534,2.77,12.049,5.862a28.408,28.408,0,0,0,5.21,3.419,16.538,16.538,0,0,0,4.4-3.419,4.025,4.025,0,0,1-.977-1.791,14.828,14.828,0,0,0-3.582-4.071,7.137,7.137,0,0,0-3.257-2.442,4.2,4.2,0,0,1-2.441-3.257Q845.882,580.662,842.3,582.453Zm22.795,4.07q7.487-5.861,7.489-9.28,0-1.954-3.582-5.048-2.931-3.418-5.373-3.419-.978,0-5.536,4.071a15.3,15.3,0,0,0-1.953,1.3h.488a5.722,5.722,0,0,1,2.116,1.791,48.552,48.552,0,0,1,3.908,6.025A15.089,15.089,0,0,1,865.1,586.523Z" transform="translate(0 0)" fill="#231f20"/><path d="M778.335,718.473a7.1,7.1,0,0,0,3.366-1.63q1.629-1.735,2.281-1.738,4.125.436,5.865,5.213.215,1.305-1.3,2.064a7.682,7.682,0,0,0-1.629,4.452q0,15.1-2.172,19.005a19.464,19.464,0,0,1-9.23,9.557q-6.084,3.583-11.295,3.583-2.826,0-2.932-3.583.758-3.91,2.389-5.539,1.629-1.735,2.28-1.737a10.453,10.453,0,0,0,5.974,0,9.2,9.2,0,0,0,6.95-5.756q2.388-4.778,2.389-16.4-.326-3.15-2.063-3.15-3.909,0-16.4,3.15-1.85,0-1.847-1.738a5.032,5.032,0,0,1,1.52-3.475q1.737-1.846,2.5-1.847a30.985,30.985,0,0,0,5.321.435A35.029,35.029,0,0,0,778.335,718.473Zm-7.928-20.744a40.833,40.833,0,0,1,4.779.435,38.53,38.53,0,0,0,7.276,1.194h4.126q2.172,0,2.173,1.3,0,1.848-5.322,3.475a29.226,29.226,0,0,1-10.425,1.846,6.659,6.659,0,0,1-4.67-1.412,2.973,2.973,0,0,1-1.629-2.5,5.468,5.468,0,0,1,1.3-3.475A4.844,4.844,0,0,1,770.407,697.729Zm49.2,24.653h-.761a35.664,35.664,0,0,0-16.724,4.018q-1.2.761-2.606,1.629a5.236,5.236,0,0,1-1.412.434q-2.282,0-2.281-2.932.653-5.212,4.779-7.058a62.746,62.746,0,0,0,6.407-.435,105.235,105.235,0,0,1,12.814-.761q11.946,0,25.2,1.2a64.685,64.685,0,0,0,11.185-1.2q2.5,0,2.5.761,0,1.3-2.281,3.584-1.954,1.629-4.452,3.909a6.959,6.959,0,0,1-4.67,2.064,13.331,13.331,0,0,1-4.778-1.629,32.317,32.317,0,0,0-11.837-3.15h-1.739c.072,0,.11.146.11.435a1.649,1.649,0,0,1-.435.977,1.567,1.567,0,0,0-.543,1.3q-.976,11.187-.977,30.734,0,6.625-3.15,6.624-3.367,0-3.366-6.624-.435-22.046-.434-28.67Q820.146,723.251,819.6,722.382Zm9.013-25.521a13.842,13.842,0,0,1,5.756.868,3.443,3.443,0,0,1,2.064,2.933q-.437,2.281-3.15,2.28-7.929-.432-16.833-.434-3.8.436-8.254.869a2.08,2.08,0,0,1-2.388-2.172,3.868,3.868,0,0,1,2.931-3.909Q817,696.863,828.616,696.861Z" transform="translate(0 0)" fill="#231f20"/></g><g id="Rendaino_yakou-2" data-name="Rendaino yakou"><path d="M492.605,157.909q-.066.284-.747.8a2.121,2.121,0,0,1-.962.515q-.3,0-.648-.913a10.836,10.836,0,0,0-1.428-2.723,3.831,3.831,0,0,0-.963-.7q-.6-.382-.6-.565c0-.143.127-.232.382-.265q.647-.066,1.3-.117a2.033,2.033,0,0,0,1.162-.531,1.961,1.961,0,0,0,.448-1.278q0-1.943-1.544-1.943a13.191,13.191,0,0,0-1.876.183v2.706q0,1.86.05,2.789.016.266.066,1.3c.033.521.05.946.05,1.278a.778.778,0,0,1-.2.482.743.743,0,0,1-.4.3q-.632-.115-.631-.9,0-.266.034-.763c.021-.343.033-.6.033-.764v-3.254c0-.332-.012-.824-.033-1.478s-.034-1.128-.034-1.461l-.4.117a.455.455,0,0,1-.515-.515q0-.648.515-.747a18.292,18.292,0,0,1,2.905-.166,3.449,3.449,0,0,1,2.275.73,2.636,2.636,0,0,1,.846,2.109,2.842,2.842,0,0,1-.664,1.743,1.97,1.97,0,0,1-1.56.913,1.625,1.625,0,0,1-.316-.033,19.946,19.946,0,0,1,2.308,2.374,1.564,1.564,0,0,0,.913.664A.568.568,0,0,1,492.605,157.909Z" transform="translate(0 0)" fill="#231f20" stroke="#231f20" stroke-linecap="round" stroke-linejoin="round" stroke-width="0.5"/><path d="M500.763,157.029a3.269,3.269,0,0,1-.183.864,1.768,1.768,0,0,1-1.179,1.045,4.416,4.416,0,0,1-1.61.283,2.98,2.98,0,0,1-2.507-1.113,4.327,4.327,0,0,1-.8-2.722,4.144,4.144,0,0,1,.8-2.557,2.777,2.777,0,0,1,2.324-1.162,2.549,2.549,0,0,1,2.042.946,3.2,3.2,0,0,1,.8,2.175q0,.8-.747.8a1.414,1.414,0,0,1-.249-.033.946.946,0,0,0-.216-.033h-.664l-3.154.033v.083a3.68,3.68,0,0,0,.349,1.61,1.373,1.373,0,0,0,1.245.913,5.189,5.189,0,0,0,1.843-.365,4.4,4.4,0,0,0,1.543-.946.361.361,0,0,1,.233-.133C500.718,156.714,500.763,156.819,500.763,157.029Zm-1.611-2.424a2.364,2.364,0,0,0-.464-1.344,1.427,1.427,0,0,0-1.212-.615,1.669,1.669,0,0,0-1.312.615,2.589,2.589,0,0,0-.631,1.344Z" transform="translate(0 0)" fill="#231f20" stroke="#231f20" stroke-linecap="round" stroke-linejoin="round" stroke-width="0.5"/><path d="M509.584,158.357a1.76,1.76,0,0,1-.515.515,2.094,2.094,0,0,1-.664.349q-.615-.133-.614-1.461c0-.277.021-.686.066-1.229s.05-.946.05-1.212q0-2.855-1.594-2.855a1.863,1.863,0,0,0-1.593.946,3.641,3.641,0,0,0-.415,2.009q0,.432.049,1.278c.022.554.034.941.034,1.162q0,1.362-.615,1.362-.531,0-.531-.664v-6.492c0-.265.2-.4.614-.4.254,0,.41.166.465.5q.016.117.017.78a2.209,2.209,0,0,1,.93-.929,2.546,2.546,0,0,1,1.278-.349,2.236,2.236,0,0,1,1.71.813,4.431,4.431,0,0,1,.714,2.922,9.465,9.465,0,0,0,.149,2.358A4.459,4.459,0,0,1,509.584,158.357Z" transform="translate(0 0)" fill="#231f20" stroke="#231f20" stroke-linecap="round" stroke-linejoin="round" stroke-width="0.5"/><path d="M797.568,343.042a1.977,1.977,0,0,1-.4.813c-.232.343-.432.515-.6.515q-.282,0-.5-.648a4.065,4.065,0,0,1-.2-.9,3.225,3.225,0,0,1-.963,1.046,2.21,2.21,0,0,1-1.328.5,2.577,2.577,0,0,1-2.241-1.179,4.241,4.241,0,0,1-.731-2.524,4.524,4.524,0,0,1,.747-2.639,2.744,2.744,0,0,1,2.358-1.212,3.636,3.636,0,0,1,1.992.647v-2.49q0-.663.614-.664a.6.6,0,0,1,.4.183.54.54,0,0,1,.182.415q0,.166-.033.564-.033.382-.033.5v3.47a12.967,12.967,0,0,0,.166,2.64,1.362,1.362,0,0,0,.282.6A1.839,1.839,0,0,1,797.568,343.042Zm-1.809-1.594q-.05-1.062-.05-2.54a3.1,3.1,0,0,0-2.092-.947,1.64,1.64,0,0,0-1.477.9,3.442,3.442,0,0,0-.449,1.776,3.865,3.865,0,0,0,.415,1.843,1.632,1.632,0,0,0,1.511.963Q795.078,343.44,795.759,341.448Z" transform="translate(0 0)" fill="#231f20" stroke="#231f20" stroke-linecap="round" stroke-linejoin="round" stroke-width="0.5"/><path d="M806.257,343.075a2.375,2.375,0,0,1-.316.78q-.3.514-.581.515-.6,0-.846-1.511a2.42,2.42,0,0,1-.864,1.1,2.305,2.305,0,0,1-1.311.415,2.7,2.7,0,0,1-2.291-1.079,4.065,4.065,0,0,1-.747-2.507,4.615,4.615,0,0,1,.763-2.706,2.757,2.757,0,0,1,2.408-1.262,2.727,2.727,0,0,1,1.842.614c.034-.409.221-.614.565-.614a.506.506,0,0,1,.581.564c0,.222-.012.554-.033,1s-.033.753-.033.963q0,3.055.514,3.47A3.505,3.505,0,0,1,806.257,343.075Zm-1.876-4.167a2.489,2.489,0,0,0-1.909-.98q-2.043,0-2.042,2.939a3.377,3.377,0,0,0,.431,1.776,1.668,1.668,0,0,0,1.511.83q1.427,0,1.843-1.76A16.94,16.94,0,0,0,804.381,338.908Z" transform="translate(0 0)" fill="#231f20" stroke="#231f20" stroke-linecap="round" stroke-linejoin="round" stroke-width="0.5"/><path d="M812.455,334.907a1.035,1.035,0,0,1-.249.6.935.935,0,0,1-.6.249.887.887,0,0,1-.6-.249.92.92,0,0,1-.233-.6.741.741,0,0,1,.83-.847.836.836,0,0,1,.615.249A.814.814,0,0,1,812.455,334.907Zm-.249,8.682a1.175,1.175,0,0,1-.116.5.511.511,0,0,1-.415.266c-.444,0-.664-.288-.664-.863v-1.146c0-.121.01-.321.033-.6.011-.244.017-.426.017-.548q0-.465-.034-1.4-.017-.961-.016-1.394v-1a.6.6,0,1,1,1.2,0v6.175Z" transform="translate(0 0)" fill="#231f20" stroke="#231f20" stroke-linecap="round" stroke-linejoin="round" stroke-width="0.5"/><path d="M673.839,508.637a1.761,1.761,0,0,1-.515.514,2.072,2.072,0,0,1-.664.349q-.615-.132-.614-1.461c0-.276.021-.685.066-1.228s.05-.947.05-1.212q0-2.856-1.594-2.856a1.865,1.865,0,0,0-1.593.946,3.641,3.641,0,0,0-.415,2.009q0,.432.049,1.279c.022.553.034.941.034,1.162q0,1.362-.615,1.361-.531,0-.531-.664v-6.491c0-.266.2-.4.614-.4.254,0,.41.166.465.5q.016.117.017.781a2.215,2.215,0,0,1,.929-.93,2.55,2.55,0,0,1,1.279-.349,2.238,2.238,0,0,1,1.71.814,4.428,4.428,0,0,1,.714,2.922,9.406,9.406,0,0,0,.149,2.357A4.5,4.5,0,0,1,673.839,508.637Z" transform="translate(0 0)" fill="#231f20" stroke="#231f20" stroke-linecap="round" stroke-linejoin="round" stroke-width="0.5"/><path d="M682.677,505.8a3.788,3.788,0,0,1-.93,2.523,2.984,2.984,0,0,1-2.374,1.179,2.708,2.708,0,0,1-2.357-1.262,4.44,4.44,0,0,1-.764-2.639,3.821,3.821,0,0,1,.913-2.607,2.96,2.96,0,0,1,2.391-1.046,1.789,1.789,0,0,1,1.378.432,1,1,0,0,1,.348.78A2.916,2.916,0,0,1,682.677,505.8Zm-1.1-.332a4.585,4.585,0,0,0-.647-1.959.133.133,0,0,0-.05.016,2.71,2.71,0,0,1-.631-.249,2.262,2.262,0,0,0-.9-.232,1.812,1.812,0,0,0-1.627.847,3.151,3.151,0,0,0-.5,1.842,3.645,3.645,0,0,0,.482,1.893,1.74,1.74,0,0,0,1.577,1,1.955,1.955,0,0,0,1.76-1.062A3.929,3.929,0,0,0,681.581,505.466Z" transform="translate(0 0)" fill="#231f20" stroke="#231f20" stroke-linecap="round" stroke-linejoin="round" stroke-width="0.5"/><path d="M918.178,585.737q0,.134-.681,2.275-.681,2.126-1.527,4.167-1.379,3.32-2.175,3.486a2.436,2.436,0,0,1-.814-.349c-.377-.232-.564-.426-.564-.581,0-.132.193-.288.581-.464a5.011,5.011,0,0,0,1.909-2.175l-2.258-5.014a3.491,3.491,0,0,1-.365-1.212q0-.531.581-.531.332,0,.614.8.183.5.515,1.527.548,1.494,1.411,3.5a17.224,17.224,0,0,0,1.677-5.047q.115-.78.631-.78C918.022,585.339,918.178,585.472,918.178,585.737Z" transform="translate(0 0)" fill="#231f20" stroke="#231f20" stroke-linecap="round" stroke-linejoin="round" stroke-width="0.5"/><path d="M927.464,591.6a2.375,2.375,0,0,1-.316.78q-.3.514-.581.515-.6,0-.846-1.511a2.425,2.425,0,0,1-.864,1.1,2.305,2.305,0,0,1-1.311.415,2.7,2.7,0,0,1-2.291-1.08,4.062,4.062,0,0,1-.747-2.506,4.615,4.615,0,0,1,.763-2.706,2.757,2.757,0,0,1,2.408-1.262,2.727,2.727,0,0,1,1.842.614c.034-.409.221-.614.565-.614a.506.506,0,0,1,.581.564c0,.222-.012.554-.033,1s-.033.753-.033.963q0,3.054.514,3.47A3.505,3.505,0,0,1,927.464,591.6Zm-1.876-4.167a2.486,2.486,0,0,0-1.909-.98q-2.043,0-2.042,2.939a3.377,3.377,0,0,0,.431,1.776,1.668,1.668,0,0,0,1.511.83q1.427,0,1.843-1.76A16.94,16.94,0,0,0,925.588,587.431Z" transform="translate(0 0)" fill="#231f20" stroke="#231f20" stroke-linecap="round" stroke-linejoin="round" stroke-width="0.5"/><path d="M794.935,780.08a2.279,2.279,0,0,1-.565.78q-.531.549-.747.548t-.764-.946q-.78-1.395-1.1-1.826a2.6,2.6,0,0,0-1.461-1.146l-.581.432v.631c0,.232.016.576.049,1.029.022.432.034.764.034,1q0,.831-.532.83-.615,0-.614-.8v-8.6q0-.664.548-.664.6,0,.6.631,0,.282-.05.9c-.023.4-.033.692-.033.88v3.27l3.27-2.938a.637.637,0,0,1,.4-.233c.276,0,.464.206.564.615a.659.659,0,0,1-.232.332l-2.69,2.108a8.82,8.82,0,0,1,1.876,1.694,4.025,4.025,0,0,0,1.81,1.344C794.84,779.959,794.912,780,794.935,780.08Z" transform="translate(0 0)" fill="#231f20" stroke="#231f20" stroke-linecap="round" stroke-linejoin="round" stroke-width="0.5"/><path d="M803.839,777.706a3.788,3.788,0,0,1-.93,2.523,2.981,2.981,0,0,1-2.374,1.179,2.708,2.708,0,0,1-2.357-1.262,4.44,4.44,0,0,1-.764-2.639,3.823,3.823,0,0,1,.913-2.607,2.96,2.96,0,0,1,2.391-1.046,1.789,1.789,0,0,1,1.378.432,1,1,0,0,1,.348.78A2.916,2.916,0,0,1,803.839,777.706Zm-1.1-.332a4.589,4.589,0,0,0-.647-1.959.122.122,0,0,0-.05.017,2.727,2.727,0,0,1-.631-.249,2.248,2.248,0,0,0-.9-.233,1.81,1.81,0,0,0-1.627.847,3.154,3.154,0,0,0-.5,1.843,3.643,3.643,0,0,0,.481,1.892,1.74,1.74,0,0,0,1.577,1,1.955,1.955,0,0,0,1.76-1.062A3.926,3.926,0,0,0,802.743,777.374Z" transform="translate(0 0)" fill="#231f20" stroke="#231f20" stroke-linecap="round" stroke-linejoin="round" stroke-width="0.5"/><path d="M812.511,780.18a1.329,1.329,0,0,1-.349.68,1.525,1.525,0,0,1-.614.532.8.8,0,0,1-.614-.565,2.261,2.261,0,0,1-.15-.863,2.42,2.42,0,0,1-2.208,1.428,2.319,2.319,0,0,1-1.959-.864,3.413,3.413,0,0,1-.581-2.091V774.3q0-.465.415-.465.714,0,.714.6c0,.166-.012.393-.033.68-.012.322-.017.548-.017.681v2.241q0,2.524,1.478,2.524a1.784,1.784,0,0,0,1.61-.93,3.615,3.615,0,0,0,.5-1.926v-3.337a.463.463,0,0,1,.515-.531.424.424,0,0,1,.382.216.745.745,0,0,1,.132.448q0,.348-.066,1c-.045.432-.066.747-.066.946v1.528a4.1,4.1,0,0,0,.2,1.51,1.365,1.365,0,0,0,.432.382C812.416,779.976,812.511,780.08,812.511,780.18Z" transform="translate(0 0)" fill="#231f20" stroke="#231f20" stroke-linecap="round" stroke-linejoin="round" stroke-width="0.5"/></g><path d="M501.594,674.024a13.759,13.759,0,0,1-7.163-1.642,8.034,8.034,0,0,1-3.875-6.194,8.261,8.261,0,0,1-.127-1.474c0-3.2,1.264-6.656,3.75-10.363a26.165,26.165,0,0,1,7.668-7.71A10.4,10.4,0,0,1,507.534,645c1.9,0,3.285.674,3.285,2.148a5.819,5.819,0,0,1-1.263,3.034c-.337-2.065-1.348-2.992-2.739-2.992a7.451,7.451,0,0,0-4.044,1.643,16.881,16.881,0,0,0-3.328,3.118c-2.275,2.906-3.708,4.845-4.3,5.772a13.014,13.014,0,0,0-2.232,6.7,6.766,6.766,0,0,0,3.2,5.982,12.376,12.376,0,0,0,6.951,1.855,12.543,12.543,0,0,0,5.9-1.307,2.7,2.7,0,0,0,1.727-2.4,4.533,4.533,0,0,0-1.769-3.2,7.913,7.913,0,0,0-3.538-2.107,2.825,2.825,0,0,0-.675-.042c-.379,0-1.39.085-1.77.085a1.688,1.688,0,0,1-.5-.043q-1.644-.315-2.023-1.01a16.807,16.807,0,0,1-.379-1.938c4.339,0,7.625.042,9.943.168a38.3,38.3,0,0,1,7.288,1.012c-.295,1.3-.464,2.021-.506,2.106a1.894,1.894,0,0,1-1.854.842c-.169,0-.927.042-1.137.042a4.383,4.383,0,0,0,.5-.126q1.137-.252,1.138-.379c0-.084-.59-.127-1.727-.127a9.68,9.68,0,0,0-1.559.085l-1.391.5c.506.885,1.012,1.727,1.517,2.612a6.6,6.6,0,0,1,.843,2.739c0,1.348-.885,2.317-2.949,2.949A30.924,30.924,0,0,1,501.594,674.024Z" transform="translate(0 0)" fill="#231f20"/><path d="M524.723,662.4a7.921,7.921,0,0,1,1.811-.926c.5.21,1.854.968,2.36,1.178.168-.126.5.085.968.675.463.674.758,1.053.8,1.1a33.584,33.584,0,0,1,3.581,5.94c.843-.211,1.307.969,1.77,1.77.506-.168.969.969,1.179,2.949-1.052-.211-2.359-1.138-3.834-2.865-1.263-1.559-2.527-3.075-3.749-4.634-1.39-1.643-2.528-2.443-3.412-2.443-1.011,0-1.854.8-2.654,2.864-.675,1.854-1.1,3.033-1.265,3.581a18.684,18.684,0,0,0-.5,2.317c-.5,0-.968,0-1.474-.042a5.148,5.148,0,0,0-.885.042,80.369,80.369,0,0,1-.8-12.175c0-2.065.042-4.718.084-7.962.085-3.244.127-5.014.127-5.351a6.921,6.921,0,0,1,2.7,3.918,19.915,19.915,0,0,1,.5,5.056c0,.885-.043,1.811-.043,2.7,0,1.264,0,2.107.043,2.527s.168,1.012.337,1.812C523.838,663.113,524.638,662.439,524.723,662.4Z" transform="translate(0 0)" fill="#231f20"/><path d="M557.584,668.675c0,2.822-1.77,4.55-5.772,5.223a11.147,11.147,0,0,1-2.149.169,13.9,13.9,0,0,1-8-2.444c-2.4-1.643-3.581-3.538-3.581-5.729,0-2.149,1.264-4.255,4.3-6.236a8.955,8.955,0,0,1,5.1-1.516,9.263,9.263,0,0,1,8.467,5.1A12.244,12.244,0,0,1,557.584,668.675Zm-16.136-4.719a1.911,1.911,0,0,0-.59,1.39,5.371,5.371,0,0,0,.253,1.432,6.047,6.047,0,0,0,3.076,3.918,10.2,10.2,0,0,0,5.055,1.222c2.191,0,4.508-.463,5.393-1.643a3.35,3.35,0,0,0,.716-2.106,8.214,8.214,0,0,0-1.18-3.75,11.3,11.3,0,0,0-3.117-3.159,8.269,8.269,0,0,0-4.508-1.981,1.991,1.991,0,0,0-2.023,1.644,2.53,2.53,0,0,1-.42,1.137Z" transform="translate(0 0)" fill="#231f20"/><path d="M563.945,664.63c-4.718-1.348-5.308-2.78-5.561-4.213,0-1.349,1.179-2.612,3.539-3.834a12.7,12.7,0,0,1,5.645-1.643,7.574,7.574,0,0,1,4.044,1.348c1.391.885,2.065,1.77,2.065,2.7,0,.8-.632,1.433-1.938,1.9-.675-2.486-2.149-3.539-4.129-3.539a9.2,9.2,0,0,0-5.982,2.949c1.18.547,2.949,1.222,5.266,2.021,2.7.885,4.507,1.56,5.477,1.939a18.178,18.178,0,0,1,4.676,2.527,4.533,4.533,0,0,1,1.9,3.16c0,1.222-.758,2.318-2.275,3.2a9.419,9.419,0,0,1-4.929,1.348,9.534,9.534,0,0,1-5.645-1.937c-1.981-1.391-2.865-2.907-2.7-4.551,3.2,1.054,6.4,2.064,9.606,3.118a8.994,8.994,0,0,0,3.454-.759,8.379,8.379,0,0,0-3.876-3.159,52.023,52.023,0,0,0-5.013-1.6C566.347,665.3,565.167,664.967,563.945,664.63Z" transform="translate(0 0)" fill="#231f20"/><path d="M587.327,652.749c.126-.252.759-.5,1.981-.8.168.969.337,1.98.546,2.949a2.812,2.812,0,0,0,1.855,1.854c.969.3,1.6.548,1.937.674a19.905,19.905,0,0,1,2.191,1.053c-2.4.21-4,.379-4.887.547-1.474.3-2.232,1.307-2.232,3.034-.043.589-.169,1.474-.337,2.612a19.218,19.218,0,0,0-.253,2.738c0,2.823,1.137,4.129,4.128,4.129a24.039,24.039,0,0,0,3.581-.758,7.92,7.92,0,0,1,1.727-.338,4.515,4.515,0,0,1,2.4.506,3.582,3.582,0,0,1-2.528,2.486,13.3,13.3,0,0,1-4.17.505c-.969,0-1.9-.042-2.781-.042-2.022,0-3.455-.589-4.34-1.811a7.563,7.563,0,0,1-1.1-4.382,21.214,21.214,0,0,1,.422-4.171c.084-.421.379-1.726.884-3.876a13.82,13.82,0,0,0-2.359-.379c-.969-.126-1.559-.168-1.811-.211-.969-.126-1.433-.294-1.475-.5a4.784,4.784,0,0,0-.295-1.263c1.77-.169,3.075-.338,3.876-.464q2.212-.38,2.654-1.9C587.074,654.224,587.2,653.466,587.327,652.749Z" transform="translate(0 0)" fill="#231f20"/><path d="M605.906,664.419c.379,3.75.589,6.109.589,7.036a17.725,17.725,0,0,1-.252,3.033,4.4,4.4,0,0,1-2.949-2.19,8.053,8.053,0,0,1-.632-3.539c0-1.307.084-2.655.126-4V664c-.042-.337-.084-.59-.084-.759-.548-4.8-1.138-9.141-1.769-13.059,2.106,0,3.5,1.179,4.17,3.581a26.035,26.035,0,0,1,.548,6.53A40.365,40.365,0,0,0,605.906,664.419Z" transform="translate(0 0)" fill="#231f20"/><path d="M619.05,668.085a3.059,3.059,0,0,0,.675-2.149,10.611,10.611,0,0,0-.169-1.685,10.6,10.6,0,0,1-.168-1.686,2.1,2.1,0,0,1,1.473-2.274c.422-.253,1.012.379,1.77,1.854a20.453,20.453,0,0,1,1.222,2.864,41.988,41.988,0,0,1,2.317,7.5c.127.717.422,2.106.843,4.129a37.412,37.412,0,0,1,.968,6.951,11.067,11.067,0,0,1-.589,3.918,14.412,14.412,0,0,1-2.781,5.224c-1.3,1.559-2.612,2.318-3.96,2.318-1.685,0-3.16-1.138-4.507-3.961a44.632,44.632,0,0,1-2.234-5.35,17.525,17.525,0,0,1-.927-5.435,9.772,9.772,0,0,1,.169-2.275c.337-1.853,1.643-3.455,3.876-4.76a21.918,21.918,0,0,1,6.235-2.318c-.379-.8-.8-1.558-1.18-2.359-2.063,1.264-3.285,1.98-3.665,2.191a8.818,8.818,0,0,1-4,1.18c-3.286.126-5.771-3.329-5.6-7.036a10.3,10.3,0,0,1,1.981-6.446c.168,2.57.337,4.676.5,6.235.338,2.991,1.727,4.466,4.171,4.466h.675A4.233,4.233,0,0,0,619.05,668.085Zm2.064,24.182c1.391,0,2.529-.969,3.413-2.95a13.349,13.349,0,0,0,1.095-5.349,29.467,29.467,0,0,0-1.18-8.3c-.463-1.559-1.01-2.148-1.853-2.148a9.676,9.676,0,0,0-2.907.968c-3.16,1.306-4.8,4.719-4.8,8.553,0,3.665,1.475,6.993,4.214,8.636A4.113,4.113,0,0,0,621.114,692.267Z" transform="translate(0 0)" fill="#231f20"/><path d="M651.363,644.239a5.613,5.613,0,0,1,3.328-.759c.464,0,1.222.043,2.36.085s1.769.084,1.895.084a61.325,61.325,0,0,0,6.531-.463c5.94-.716,9.605-1.053,11.08-1.053,1.179,0,1.98.042,2.443.084s1.138.127,1.938.253a4.823,4.823,0,0,1-2.4,2.19,8.24,8.24,0,0,1-3.16.506c-.59,0-1.517-.042-2.822-.168s-2.276-.169-2.908-.169c-1.1,0-2.907.084-5.434.3s-4.466.295-5.857.295c-2.653.211-4.338.632-4.97,1.222a3.867,3.867,0,0,0-.927,2.949,46.588,46.588,0,0,0,1.18,9.478A45.33,45.33,0,0,1,664,657.847a24.882,24.882,0,0,1,6.235.632,5.418,5.418,0,0,0-.042.927c0,.5,0,1.011.042,1.475a55.168,55.168,0,0,1-5.813-.506,48.187,48.187,0,0,0-6.068-.548,17.39,17.39,0,0,0-4.127.464c-1.517.379-1.9,1.643-1.9,3.707,0,1.138.085,2.275.127,3.412a17.013,17.013,0,0,0,.168,2.276c.127.884.211,1.432.211,1.6,0,1.349-.59,2.107-2.78,2.612a70.462,70.462,0,0,1-.422-8.8q0-2.718.127-6.447c.21-5.771.295-9.352.295-10.827C650.058,646.093,650.479,644.871,651.363,644.239Z" transform="translate(0 0)" fill="#231f20"/><path d="M680.222,672.045c1.306,0,3.033-.969,4.591-1.686.338-.126.633.253.843,1.1a14.743,14.743,0,0,1,.337,1.854,26.952,26.952,0,0,1-5.939.926c-2.529,0-4.34-.673-5.309-2.7a4.1,4.1,0,0,1-.422-1.937,8.947,8.947,0,0,1,1.518-4.593,13.944,13.944,0,0,1,3.033-3.538,5.64,5.64,0,0,1-.548,2.7,23.65,23.65,0,0,0-1.643,4.887,2.465,2.465,0,0,0,1.6,2.485A4.158,4.158,0,0,0,680.222,672.045Zm-.295-18.158c0-.8.843-1.433,1.348-1.938a4.12,4.12,0,0,1,1.137,2.107c0,.632-.758,1.094-2.316,1.474A7.4,7.4,0,0,1,679.927,653.887Z" transform="translate(0 0)" fill="#231f20"/><path d="M689.912,672.213a4.174,4.174,0,0,1-2.991-4.044,3.671,3.671,0,0,1,.042-.759c.3-2.485,2.359-4.381,6.235-5.687a28.532,28.532,0,0,1,9.184-1.432,10.053,10.053,0,0,1,4.213,1.137c1.812.884,2.739,1.811,2.739,2.865a2.668,2.668,0,0,1-1.012,1.895,11.2,11.2,0,0,1-7.2,2.487c-2.738,0-5.014-1.012-5.855-3.076a29.414,29.414,0,0,1,4.044.422,19.548,19.548,0,0,0,2.19.209,6.032,6.032,0,0,0,5.014-2.4c-.843-.421-1.685-.842-2.528-1.306a5.528,5.528,0,0,0-2.359-.5,6.886,6.886,0,0,0-1.012.042,26.153,26.153,0,0,0-4.8.758,10.342,10.342,0,0,0-4.086,2.191,3.907,3.907,0,0,0-1.686,2.7c0,1.138,1.012,2.065,3.075,2.781a19.574,19.574,0,0,0,5.1,1.053c4.424,0,8.553.253,13.608.464,2.528.084,4.508.126,5.983.126-2.234,1.811-5.688,2.528-9.9,2.528a53.618,53.618,0,0,1-6.741-.506c-2.822-.422-4.8-.716-5.9-.842A25.516,25.516,0,0,1,689.912,672.213Z" transform="translate(0 0)" fill="#231f20"/><path d="M723.742,664.419c.379,3.75.589,6.109.589,7.036a17.725,17.725,0,0,1-.252,3.033,4.393,4.393,0,0,1-2.949-2.19,8.053,8.053,0,0,1-.632-3.539c0-1.307.084-2.655.126-4V664c-.042-.337-.084-.59-.084-.759-.548-4.8-1.138-9.141-1.769-13.059,2.106,0,3.5,1.179,4.17,3.581a26.035,26.035,0,0,1,.548,6.53A40.365,40.365,0,0,0,723.742,664.419Z" transform="translate(0 0)" fill="#231f20"/><path d="M729.219,667.41c0,2.654,1.263,3.75,3.286,3.75a13.644,13.644,0,0,0,6.319-2.148,18.5,18.5,0,0,0,4.634-3.413c1.138-1.222,1.6-3.96,1.6-7.2a40.765,40.765,0,0,0-.38-5.6,21.287,21.287,0,0,0-1.011-3.329,12.014,12.014,0,0,1-.8-4.044,7.408,7.408,0,0,1,.211-2.4,4.166,4.166,0,0,1,2.149-.548,94.743,94.743,0,0,1,2.4,21.949,11.742,11.742,0,0,0,.927,4.424q2.022,5.055,2.022,6.825a5.266,5.266,0,0,1-3.749-2.4,18.818,18.818,0,0,1-2.191-4.677,51.14,51.14,0,0,0-5.856,2.823,14.356,14.356,0,0,1-6.235,2.065,6.223,6.223,0,0,1-5.1-2.529,5.43,5.43,0,0,1-1.432-3.581c0-1.979,1.179-3.749,3.539-5.392a11.726,11.726,0,0,1,6.656-2.275c2.233,0,3.792,1.053,3.792,3.2,0,.169-.042.464-.085.927a15.6,15.6,0,0,1-2.527-1.348,4.615,4.615,0,0,0-2.276-.842,4.135,4.135,0,0,0-1.726.421C731.156,662.944,729.219,665.178,729.219,667.41Z" transform="translate(0 0)" fill="#231f20"/><path d="M772.486,660.5a12.662,12.662,0,0,1,4.129-9.395,13.617,13.617,0,0,1,9.817-3.96h1.01c.295.042.506.084.632.084a5.085,5.085,0,0,1,3.075,1.348,3.335,3.335,0,0,1,.928,2.444,5.437,5.437,0,0,1-1.516,3.666,4.539,4.539,0,0,1-3.456,1.727,3.974,3.974,0,0,1-2.57-.885c3.371-1.516,5.183-2.738,5.183-4.129a1.955,1.955,0,0,0-.422-1.221,3.437,3.437,0,0,0-3.033-1.559c-2.065,0-4.381,1.053-6.951,3.2-2.486,2.065-3.876,3.876-4.255,5.478a9.773,9.773,0,0,0-.253,2.232,12.725,12.725,0,0,0,2.022,6.656,8.892,8.892,0,0,0,4.761,3.287l5.56,1.769c1.9.8,2.992,1.854,3.329,3.244-.716.042-1.264.084-1.643.084a17.708,17.708,0,0,1-10.28-3.244,13.159,13.159,0,0,1-5.9-8.679A11.05,11.05,0,0,1,772.486,660.5Z" transform="translate(0 0)" fill="#231f20"/><path d="M798.186,664.419c.378,3.75.588,6.109.588,7.036a17.725,17.725,0,0,1-.252,3.033,4.4,4.4,0,0,1-2.949-2.19,8.053,8.053,0,0,1-.632-3.539c0-1.307.084-2.655.126-4V664c-.042-.337-.084-.59-.084-.759-.547-4.8-1.137-9.141-1.769-13.059,2.106,0,3.5,1.179,4.171,3.581a26.035,26.035,0,0,1,.548,6.53A40.365,40.365,0,0,0,798.186,664.419Z" transform="translate(0 0)" fill="#231f20"/><path d="M813.394,665.178c.085-3.665.8-5.73,2.148-6.11a28.78,28.78,0,0,1,.759,3.286,30.886,30.886,0,0,0,1.053,4.045,7.16,7.16,0,0,0,3.286,3.287,4.915,4.915,0,0,1,2.612,3.623,8.623,8.623,0,0,1-4.129-1.433,8.453,8.453,0,0,0-3.623-1.433,3.173,3.173,0,0,0-1.727.506c-1.1.843-1.9,1.433-2.359,1.77a6.682,6.682,0,0,1-2.991,1.179,5.7,5.7,0,0,1-.927.042,5.965,5.965,0,0,1-4.719-2.232,7.739,7.739,0,0,1-1.9-5.1,5.316,5.316,0,0,1,3.37-5.139c0,.295-.042.883-.085,1.853s-.084,1.727-.084,2.317a10.46,10.46,0,0,0,.632,4.129,3.1,3.1,0,0,0,3.033,1.9,7.159,7.159,0,0,0,1.265-.127C811.835,670.991,813.31,668.843,813.394,665.178Z" transform="translate(0 0)" fill="#231f20"/><path d="M824.137,645.5q0-1.074,1.263-1.264c1.222-.126,2.107,1.18,2.57,3.96a33.783,33.783,0,0,1,.38,5.562,15.24,15.24,0,0,0,.631,3.876c.421.674,1.728,1.179,3.876,1.516A19.377,19.377,0,0,1,839.3,661.3c2.57,1.39,4.3,2.991,5.1,4.886a7.4,7.4,0,0,1,.59,2.655q0,2.843-3.286,4.171a19.679,19.679,0,0,1-7.33,1.137,28.75,28.75,0,0,1-9.563-1.432,17.326,17.326,0,0,0,1.6-7.92,47.118,47.118,0,0,0-.5-6.068c-.717-5.349-1.095-8.8-1.095-10.321C824.6,647.441,824.347,646.472,824.137,645.5Zm6.361,26.289a7.789,7.789,0,0,0,4.382.927,11.233,11.233,0,0,0,4.718-.927c1.727-.759,2.57-1.812,2.57-3.2v-.674c-.084-.253-.127-.421-.169-.506-.337-1.053-1.475-2.232-3.37-3.538a15.484,15.484,0,0,0-4.929-2.4,8.069,8.069,0,0,0-2.064-.295,2.357,2.357,0,0,0-2.276,1.221,7.349,7.349,0,0,0-.463,2.992c0,.841,0,1.726.042,2.611C828.939,669.812,829.444,671.076,830.5,671.792Z" transform="translate(0 0)" fill="#231f20"/><path d="M851.563,671.244a16.414,16.414,0,0,1-2.654-.3,4.858,4.858,0,0,1,1.1-2.612,8.793,8.793,0,0,1,2.486-1.559c-.295.127-.422.211-.422.337,0,.337,1.222.295,1.6.295C853.67,670.486,853.248,671.244,851.563,671.244Z" transform="translate(0 0)" fill="#231f20"/><path d="M560.675,911.18c1.546.084,2.782.14,3.71.14.9,0,1.574-.028,2-.056a14.742,14.742,0,0,0,1.968-.366,4.094,4.094,0,0,0,1.264-.618,2.781,2.781,0,0,1,1.377-.562c1.013,0,1.407.477,1.407,1.18a3.871,3.871,0,0,1-.76,1.968,7.7,7.7,0,0,1-1.321,1.6,49.6,49.6,0,0,1-4.553,3.738q-3.2,2.445-4.638,3.71a21.1,21.1,0,0,0-3.879,4.441,11.117,11.117,0,0,0,3.6.843c1.518.141,2.951.253,4.329.337.337.028.675.028,1.012.028.534,0,.983,0,1.348-.028a3.489,3.489,0,0,1,1.069.2,1.851,1.851,0,0,0,.5.113c.451,0,1.012-.31,1.771-1.462a4.943,4.943,0,0,1,1.013-1.237,8.311,8.311,0,0,1,1.039,3.317c0,.983-.533,1.574-1.8,1.574a8.9,8.9,0,0,1-1.208-.141c-1.856-.365-3.261-.589-4.244-.73a32.912,32.912,0,0,0-4.3-.31,22.025,22.025,0,0,0-3.345.253,17.925,17.925,0,0,1-4.216.759c-1.321,0-1.882-.7-1.882-1.377a1.687,1.687,0,0,1,.449-1.1,12.1,12.1,0,0,1,1.743-1.489c.955-.73,1.967-1.574,3.007-2.5s2.052-1.827,3.036-2.7c1.518-1.35,2.529-2.249,3.035-2.671l2.951-2.445a17.217,17.217,0,0,0,2.586-2.7,17.114,17.114,0,0,0-3.766-.366c-.787,0-1.771.029-2.923.113q-3.921.253-4.807.253a2.1,2.1,0,0,0-2.276,1.461,4.264,4.264,0,0,1-1.687,2.5,9.292,9.292,0,0,1-.9-3.428,2.215,2.215,0,0,1,2.5-2.53C555.7,910.9,557.611,910.982,560.675,911.18Z" transform="translate(0 0)" fill="#231f20"/><path d="M575.714,920.427c0-.816,0-1.434.028-1.856s.141-1.77.337-4.1a6.226,6.226,0,0,1,.113-1.546.958.958,0,0,1,.955-.816c.816,0,1.1.76,1.1,1.884,0,.871-.085,1.489-.169,2.474,0,.59-.028,1.208-.056,1.883-.084,1.715-.141,2.782-.141,3.26a13.69,13.69,0,0,0,.562,4.272c.422,1.321.9,1.715,1.6,1.715a3.742,3.742,0,0,0,1.63-.563c.506-.308.9-.534,1.152-.674a10.232,10.232,0,0,0,2.7-2.249,6.113,6.113,0,0,0,1.659-2.894,13.808,13.808,0,0,0,.084-1.519c0-.421-.028-1.124-.056-2.107s-.057-1.518-.057-1.546c0-.534,0-.646.029-1.181,0-.871.14-1.4.45-1.63a3.975,3.975,0,0,1,1.517-.337c.253,3.176.535,6.324.788,9.5a38.779,38.779,0,0,0,2.7,4.384,4.767,4.767,0,0,1,.955,2.643,5.072,5.072,0,0,1-.084.871,10.886,10.886,0,0,1-3.261-2.867,17.123,17.123,0,0,1-2.276-3.851c-2.024,1.968-3.655,3.457-4.919,4.5a5.957,5.957,0,0,1-3.373,1.658c-.984,0-1.742-.477-2.417-1.8A15.6,15.6,0,0,1,575.714,920.427Z" transform="translate(0 0)" fill="#231f20"/><path d="M608.235,925.4a9.862,9.862,0,0,0,3.289,1.743,3.406,3.406,0,0,0,.955.168,1.535,1.535,0,0,0,1.546-1.1,7.226,7.226,0,0,0,.337-2.5c0-.281,0-.7-.027-1.265-.028-.59-.028-.983-.028-1.236a35.13,35.13,0,0,0-.619-5.931c-.562-3.232-.872-5.228-.956-5.959a21.714,21.714,0,0,1-.646-3.4c0-.619.169-.928.534-.928a1.946,1.946,0,0,1,1.687,1.883,8.629,8.629,0,0,1-.253,1.546,5.546,5.546,0,0,0-.141.9,7.713,7.713,0,0,0,.31,1.771c.139.591.308,1.209.477,1.8a71.608,71.608,0,0,1,1.181,11.467,11.958,11.958,0,0,1-.338,3.345,2.28,2.28,0,0,1-2.248,1.856c-.112,0-.31-.029-.563-.057a12.576,12.576,0,0,1-5.171-2.276,23.02,23.02,0,0,1-4.216-4.1,49.546,49.546,0,0,1-3.288-4.694,19.789,19.789,0,0,0-.844,3.289,19.312,19.312,0,0,0-.337,3.428,9.763,9.763,0,0,0,.169,1.6,9.343,9.343,0,0,1,.168,1.292c0,.9-.394,1.4-1.94,1.855,0-1.1.057-2.838.2-5.227s.2-4.189.2-5.453c0-.253.057-.928.057-1.181,0-.534-.057-1.293-.141-2.333s-.141-1.8-.141-2.276a6.651,6.651,0,0,1,.225-2.108,13.921,13.921,0,0,1,2.979,3.4c.394.591,1.209,1.967,2.417,4.132a28.691,28.691,0,0,0,2.531,3.934A15.412,15.412,0,0,0,608.235,925.4Z" transform="translate(0 0)" fill="#231f20"/><path d="M622.6,914.271a1.351,1.351,0,0,0,.619-.984,1.405,1.405,0,0,0-.31-.759c-.562-.758-.843-1.18-.871-1.208a2.138,2.138,0,0,1-.112-.758,2.683,2.683,0,0,1,.7-1.856,2.147,2.147,0,0,1,1.631-.815c.843-.141,2.079,1.068,2.136,2.108a2.564,2.564,0,0,1-.337,1.04,8.085,8.085,0,0,0-.451,1.067,14.829,14.829,0,0,1-1.152,3.092,4.431,4.431,0,0,1-2.417,2.052,5.508,5.508,0,0,0-.45-.7,1.435,1.435,0,0,1-.337-.9C621.28,915.451,621.729,914.974,622.6,914.271Z" transform="translate(0 0)" fill="#231f20"/><path d="M630.528,923.715c-3.148-.9-3.542-1.855-3.711-2.811,0-.9.787-1.742,2.362-2.557a8.471,8.471,0,0,1,3.766-1.1,5.07,5.07,0,0,1,2.7.9c.927.591,1.377,1.181,1.377,1.8,0,.534-.422.956-1.293,1.266a2.732,2.732,0,0,0-2.754-2.361,6.145,6.145,0,0,0-3.992,1.967c.787.366,1.967.815,3.513,1.349,1.8.591,3.008,1.04,3.654,1.293a12.17,12.17,0,0,1,3.12,1.686,3.024,3.024,0,0,1,1.265,2.109,2.549,2.549,0,0,1-1.518,2.136,6.289,6.289,0,0,1-3.288.9A6.363,6.363,0,0,1,631.961,929c-1.32-.928-1.911-1.939-1.8-3.035,2.137.7,4.273,1.377,6.409,2.079a5.992,5.992,0,0,0,2.3-.506,5.6,5.6,0,0,0-2.586-2.107,35.006,35.006,0,0,0-3.345-1.069C632.13,924.165,631.343,923.939,630.528,923.715Z" transform="translate(0 0)" fill="#231f20"/><path d="M664.483,921.3a5.732,5.732,0,0,0,.955-.084c1.434-.2,2.7-1.181,3.852-2.9a19.961,19.961,0,0,0,2.107-4.637c.31-1.1.647-2.193.984-3.288a3.446,3.446,0,0,1,2.165-2.249,11.935,11.935,0,0,1,.28,2.642,28.14,28.14,0,0,1-.337,3.766,29.633,29.633,0,0,0-.422,3.682,24.161,24.161,0,0,0,.422,4.1c.141.815.31,1.6.45,2.417a31.716,31.716,0,0,0,1.714,4.1,6.409,6.409,0,0,1,.675,2.615,5.972,5.972,0,0,1-3.541-3.514,24.15,24.15,0,0,1-1.378-5.649,35.735,35.735,0,0,0-1.012-5.06,10.347,10.347,0,0,1-3.259,4.1,7.006,7.006,0,0,1-4.048,1.18,18.827,18.827,0,0,1-6.155-1.32,9.861,9.861,0,0,0-.535,3.6c0,.618.029,1.432.057,2.417.056.983.084,1.629.084,1.882-.675.141-1.35.253-2,.394a15.381,15.381,0,0,1-.338-3.261q0-1.179.084-2.36.253-3.585.254-3.879a13.013,13.013,0,0,0-.113-1.6q-.252-2.234-.253-2.866a3.684,3.684,0,0,1,1.546-3.43,15.429,15.429,0,0,1,.927,3.514c.478,2.614,1.491,4.189,3.035,4.778A9.8,9.8,0,0,0,664.483,921.3Zm7.252-3.935c.309,0,.478-.085.478-.281a1.071,1.071,0,0,0-.422-.618c.169-.141.337-.31.534-.479a1.148,1.148,0,0,1,.169-.14,8.971,8.971,0,0,0-.844.759c-.534.506-.787.787-.787.872.085,0,.085.027.534-.226C671.51,917.278,671.622,917.335,671.735,917.363Z" transform="translate(0 0)" fill="#231f20"/><path d="M686.409,924.08c.057-2.445.534-3.822,1.434-4.075a19.607,19.607,0,0,1,.506,2.192,20.517,20.517,0,0,0,.7,2.7,4.781,4.781,0,0,0,2.192,2.192,3.28,3.28,0,0,1,1.743,2.417,5.769,5.769,0,0,1-2.755-.955,5.628,5.628,0,0,0-2.417-.956,2.116,2.116,0,0,0-1.152.337c-.73.562-1.265.956-1.574,1.18a4.44,4.44,0,0,1-2,.787,3.668,3.668,0,0,1-.618.029,3.983,3.983,0,0,1-3.149-1.49,5.16,5.16,0,0,1-1.264-3.4,3.547,3.547,0,0,1,2.248-3.429c0,.2-.028.59-.056,1.237S680.2,924,680.2,924.39a6.974,6.974,0,0,0,.422,2.754,2.066,2.066,0,0,0,2.024,1.265,4.679,4.679,0,0,0,.843-.085C685.369,927.959,686.353,926.525,686.409,924.08Z" transform="translate(0 0)" fill="#231f20"/><path d="M697.12,923.715c-3.148-.9-3.542-1.855-3.711-2.811,0-.9.787-1.742,2.362-2.557a8.468,8.468,0,0,1,3.766-1.1,5.065,5.065,0,0,1,2.7.9c.928.591,1.377,1.181,1.377,1.8,0,.534-.422.956-1.293,1.266a2.731,2.731,0,0,0-2.754-2.361,6.145,6.145,0,0,0-3.991,1.967c.786.366,1.967.815,3.513,1.349,1.8.591,3.008,1.04,3.654,1.293a12.145,12.145,0,0,1,3.119,1.686,3.023,3.023,0,0,1,1.266,2.109,2.548,2.548,0,0,1-1.519,2.136,6.286,6.286,0,0,1-3.288.9A6.361,6.361,0,0,1,698.553,929c-1.321-.928-1.911-1.939-1.8-3.035,2.137.7,4.272,1.377,6.409,2.079a6,6,0,0,0,2.3-.506,5.6,5.6,0,0,0-2.586-2.107,35.006,35.006,0,0,0-3.345-1.069C698.722,924.165,697.935,923.939,697.12,923.715Z" transform="translate(0 0)" fill="#231f20"/><path d="M712.523,928.662a9.074,9.074,0,0,0,3.064-1.125c.225-.084.422.169.562.732a9.876,9.876,0,0,1,.225,1.236,17.985,17.985,0,0,1-3.963.618c-1.686,0-2.894-.449-3.541-1.8a2.73,2.73,0,0,1-.281-1.293,5.968,5.968,0,0,1,1.012-3.063,9.321,9.321,0,0,1,2.023-2.361,3.75,3.75,0,0,1-.365,1.8,15.786,15.786,0,0,0-1.1,3.26,1.645,1.645,0,0,0,1.067,1.658A2.767,2.767,0,0,0,712.523,928.662Zm-.2-12.114c0-.534.562-.956.9-1.293a2.751,2.751,0,0,1,.758,1.4c0,.422-.506.731-1.546.984A4.977,4.977,0,0,1,712.327,916.548Z" transform="translate(0 0)" fill="#231f20"/><path d="M716.966,926.244c0-1.265.815-2.557,2.445-3.822a8,8,0,0,1,4.919-1.94,3.241,3.241,0,0,1,3.345,2.305,9.224,9.224,0,0,0-.985.479,6.138,6.138,0,0,1-.589.308,2.571,2.571,0,0,0-2.474-1.546,5.037,5.037,0,0,0-3.092,1.153,3.132,3.132,0,0,0-1.489,2.333,1.247,1.247,0,0,0,.308.843,6.622,6.622,0,0,0,3.683,1.912,18.106,18.106,0,0,0,4.244.449c.365,0,1.208-.056,1.518-.056,1.04,0,1.63.309,2.052,1.63-1.659,0-3.457-.112-5.454-.31a34.522,34.522,0,0,1-5.255-.871C717.922,928.55,716.966,927.565,716.966,926.244Z" transform="translate(0 0)" fill="#231f20"/><path d="M745.412,920.961a8.448,8.448,0,0,1,2.755-6.269,9.086,9.086,0,0,1,6.549-2.641h.675c.2.028.337.055.421.055a3.4,3.4,0,0,1,2.051.9,2.226,2.226,0,0,1,.619,1.631,3.624,3.624,0,0,1-1.011,2.445,3.026,3.026,0,0,1-2.306,1.152,2.647,2.647,0,0,1-1.714-.59c2.248-1.012,3.457-1.827,3.457-2.754a1.3,1.3,0,0,0-.281-.816,2.3,2.3,0,0,0-2.023-1.04,7.58,7.58,0,0,0-4.638,2.137c-1.658,1.377-2.586,2.586-2.839,3.653a6.577,6.577,0,0,0-.169,1.49,8.489,8.489,0,0,0,1.35,4.441,5.926,5.926,0,0,0,3.175,2.192l3.71,1.181a3.332,3.332,0,0,1,2.221,2.164c-.477.028-.843.057-1.1.057a11.822,11.822,0,0,1-6.857-2.165,8.784,8.784,0,0,1-3.936-5.79A7.442,7.442,0,0,1,745.412,920.961Z" transform="translate(0 0)" fill="#231f20"/><path d="M772.172,926.413c0,1.883-1.181,3.035-3.851,3.485a7.437,7.437,0,0,1-1.433.113,9.272,9.272,0,0,1-5.34-1.63,4.624,4.624,0,0,1-2.39-3.822c0-1.434.844-2.839,2.867-4.161a5.978,5.978,0,0,1,3.4-1.011,6.183,6.183,0,0,1,5.649,3.4A8.164,8.164,0,0,1,772.172,926.413Zm-10.765-3.147a1.271,1.271,0,0,0-.393.926,3.539,3.539,0,0,0,.169.956,4.037,4.037,0,0,0,2.051,2.615,6.813,6.813,0,0,0,3.372.814c1.462,0,3.008-.308,3.6-1.1a2.23,2.23,0,0,0,.479-1.4,5.494,5.494,0,0,0-.787-2.5,7.555,7.555,0,0,0-2.081-2.107,5.512,5.512,0,0,0-3.007-1.321,1.326,1.326,0,0,0-1.349,1.1,1.7,1.7,0,0,1-.281.759Z" transform="translate(0 0)" fill="#231f20"/><path d="M776.192,923.574c.253,2.5.394,4.075.394,4.7a11.833,11.833,0,0,1-.169,2.023,2.931,2.931,0,0,1-1.967-1.462,5.372,5.372,0,0,1-.422-2.36c0-.872.056-1.772.084-2.671v-.506c-.028-.225-.055-.394-.055-.506-.366-3.2-.759-6.1-1.181-8.713,1.4,0,2.333.787,2.782,2.39a17.373,17.373,0,0,1,.365,4.356A27.128,27.128,0,0,0,776.192,923.574Z" transform="translate(0 0)" fill="#231f20"/><path d="M781.168,923.574c.253,2.5.394,4.075.394,4.7a11.833,11.833,0,0,1-.169,2.023,2.931,2.931,0,0,1-1.967-1.462,5.372,5.372,0,0,1-.422-2.36c0-.872.056-1.772.084-2.671v-.506c-.028-.225-.056-.394-.056-.506-.365-3.2-.759-6.1-1.18-8.713,1.4,0,2.333.787,2.782,2.39A17.373,17.373,0,0,1,781,920.82,27.128,27.128,0,0,0,781.168,923.574Z" transform="translate(0 0)" fill="#231f20"/><path d="M784.794,928.774a2.785,2.785,0,0,1-2-2.7,2.447,2.447,0,0,1,.028-.506c.2-1.658,1.574-2.924,4.159-3.8a19.057,19.057,0,0,1,6.128-.955,6.709,6.709,0,0,1,2.811.759c1.209.59,1.827,1.208,1.827,1.911a1.785,1.785,0,0,1-.675,1.265,7.475,7.475,0,0,1-4.806,1.658c-1.827,0-3.345-.675-3.907-2.052a19.451,19.451,0,0,1,2.7.282,12.935,12.935,0,0,0,1.46.14,4.025,4.025,0,0,0,3.345-1.6c-.561-.282-1.124-.562-1.686-.871a3.679,3.679,0,0,0-1.574-.337,4.754,4.754,0,0,0-.674.027,17.339,17.339,0,0,0-3.2.507A6.874,6.874,0,0,0,786,923.968a2.6,2.6,0,0,0-1.124,1.8c0,.758.675,1.377,2.052,1.855a13.046,13.046,0,0,0,3.4.7c2.952,0,5.706.169,9.079.31,1.687.055,3.007.084,3.991.084-1.49,1.209-3.795,1.686-6.605,1.686a35.727,35.727,0,0,1-4.5-.337c-1.883-.281-3.2-.478-3.935-.562A17.057,17.057,0,0,1,784.794,928.774Z" transform="translate(0 0)" fill="#231f20"/><path d="M803.993,926.244c0-1.265.816-2.557,2.445-3.822a8,8,0,0,1,4.919-1.94,3.24,3.24,0,0,1,3.345,2.305,9.145,9.145,0,0,0-.984.479,6.129,6.129,0,0,1-.59.308,2.571,2.571,0,0,0-2.474-1.546,5.037,5.037,0,0,0-3.092,1.153,3.132,3.132,0,0,0-1.489,2.333,1.248,1.248,0,0,0,.309.843,6.619,6.619,0,0,0,3.682,1.912,18.114,18.114,0,0,0,4.245.449c.365,0,1.208-.056,1.517-.056,1.04,0,1.63.309,2.052,1.63-1.658,0-3.457-.112-5.453-.31a34.558,34.558,0,0,1-5.256-.871C804.949,928.55,803.993,927.565,803.993,926.244Z" transform="translate(0 0)" fill="#231f20"/><path d="M823.107,915.789c.084-.169.506-.338,1.322-.534.112.646.224,1.321.365,1.968a1.876,1.876,0,0,0,1.236,1.236c.647.2,1.069.365,1.293.45a13.1,13.1,0,0,1,1.462.7c-1.6.141-2.67.253-3.261.366A1.8,1.8,0,0,0,824.035,922c-.028.394-.112.984-.224,1.743a12.642,12.642,0,0,0-.169,1.827c0,1.883.758,2.754,2.754,2.754a15.778,15.778,0,0,0,2.389-.506,5.3,5.3,0,0,1,1.153-.224,3.007,3.007,0,0,1,1.6.337,2.388,2.388,0,0,1-1.686,1.658,8.87,8.87,0,0,1-2.783.338c-.646,0-1.264-.029-1.854-.029a3.313,3.313,0,0,1-2.9-1.209,5.041,5.041,0,0,1-.73-2.922,14.141,14.141,0,0,1,.281-2.783c.056-.281.253-1.152.59-2.586a9.163,9.163,0,0,0-1.574-.252c-.647-.084-1.04-.113-1.208-.141-.647-.084-.956-.2-.985-.337a3.17,3.17,0,0,0-.2-.844c1.181-.112,2.052-.224,2.586-.308a1.958,1.958,0,0,0,1.77-1.266C822.938,916.772,823.023,916.267,823.107,915.789Z" transform="translate(0 0)" fill="#231f20"/><path d="M836.6,928.662a9.078,9.078,0,0,0,3.063-1.125c.226-.084.422.169.563.732a9.713,9.713,0,0,1,.224,1.236,17.976,17.976,0,0,1-3.963.618c-1.686,0-2.894-.449-3.541-1.8a2.73,2.73,0,0,1-.281-1.293,5.968,5.968,0,0,1,1.012-3.063,9.341,9.341,0,0,1,2.023-2.361,3.738,3.738,0,0,1-.365,1.8,15.786,15.786,0,0,0-1.1,3.26,1.646,1.646,0,0,0,1.068,1.658A2.764,2.764,0,0,0,836.6,928.662Zm-.2-12.114c0-.534.562-.956.9-1.293a2.747,2.747,0,0,1,.759,1.4c0,.422-.506.731-1.546.984A4.935,4.935,0,0,1,836.4,916.548Z" transform="translate(0 0)" fill="#231f20"/><path d="M854.027,926.413c0,1.883-1.18,3.035-3.85,3.485a7.448,7.448,0,0,1-1.434.113,9.277,9.277,0,0,1-5.34-1.63,4.625,4.625,0,0,1-2.389-3.822c0-1.434.843-2.839,2.867-4.161a5.977,5.977,0,0,1,3.4-1.011,6.183,6.183,0,0,1,5.65,3.4A8.174,8.174,0,0,1,854.027,926.413Zm-10.764-3.147a1.272,1.272,0,0,0-.394.926,3.578,3.578,0,0,0,.169.956,4.035,4.035,0,0,0,2.052,2.615,6.813,6.813,0,0,0,3.372.814c1.462,0,3.008-.308,3.6-1.1a2.235,2.235,0,0,0,.478-1.4,5.481,5.481,0,0,0-.787-2.5,7.549,7.549,0,0,0-2.08-2.107,5.514,5.514,0,0,0-3.008-1.321,1.327,1.327,0,0,0-1.349,1.1,1.686,1.686,0,0,1-.281.759Z" transform="translate(0 0)" fill="#231f20"/><path d="M864.794,925.177a8.5,8.5,0,0,0,.618,1.967c.112.225.394.7.815,1.461a6.207,6.207,0,0,1,.758,1.687,3.329,3.329,0,0,1-3.541-2.839q-1.011-4.341-1.6-5.059a2.46,2.46,0,0,0-1.772-1.124c-.674,0-1.264.5-1.8,1.49a7.62,7.62,0,0,0-.787,2.81,23.32,23.32,0,0,1-.365,2.98,2.7,2.7,0,0,1-2,1.742,14.543,14.543,0,0,1-.169-2.221,10.05,10.05,0,0,1,4.525-8.853c.984.365,1.715.646,2.221.844A4,4,0,0,1,863.838,922,13.284,13.284,0,0,1,864.794,925.177Z" transform="translate(0 0)" fill="#231f20"/><path d="M897.23,910.533a2.07,2.07,0,0,1,1.434-.9,1.032,1.032,0,0,1,.844.534,1.628,1.628,0,0,1,.393.9c0,.2-.2.421-.562.647a5.34,5.34,0,0,0-1.04.786,10.737,10.737,0,0,0-2,3.964,27.162,27.162,0,0,1-.985,3.2c-.281.759-1.011,2.445-2.164,5.087a27.161,27.161,0,0,1-1.546,3.063c-.73,1.209-1.377,1.8-1.967,1.8-.647,0-1.18-.59-1.63-2.08a51.352,51.352,0,0,0-2.024-5.2c-.591-1.321-1.377-3.036-2.361-5.088q-1.728-3.626-2.36-5.144a3.468,3.468,0,0,1,.7-.084c1.377,0,2.5,1.1,3.4,3.261a33.459,33.459,0,0,1,1.068,3.233,30.225,30.225,0,0,0,1.433,3.963,38.3,38.3,0,0,0,2.108,3.878,23.27,23.27,0,0,0,2.67-4.384,45.068,45.068,0,0,0,1.968-4.891l1.687-4.976A4.766,4.766,0,0,1,897.23,910.533Z" transform="translate(0 0)" fill="#231f20"/><path d="M911.482,926.413c0,1.883-1.18,3.035-3.85,3.485a7.448,7.448,0,0,1-1.434.113,9.277,9.277,0,0,1-5.34-1.63,4.625,4.625,0,0,1-2.389-3.822c0-1.434.843-2.839,2.867-4.161a5.977,5.977,0,0,1,3.4-1.011,6.183,6.183,0,0,1,5.65,3.4A8.174,8.174,0,0,1,911.482,926.413Zm-10.764-3.147a1.272,1.272,0,0,0-.394.926,3.578,3.578,0,0,0,.169.956,4.035,4.035,0,0,0,2.052,2.615,6.813,6.813,0,0,0,3.372.814c1.462,0,3.008-.308,3.6-1.1a2.235,2.235,0,0,0,.478-1.4,5.481,5.481,0,0,0-.787-2.5,7.549,7.549,0,0,0-2.08-2.107,5.514,5.514,0,0,0-3.008-1.321,1.325,1.325,0,0,0-1.348,1.1,1.684,1.684,0,0,1-.282.759Z" transform="translate(0 0)" fill="#231f20"/><path d="M915.5,923.574c.253,2.5.393,4.075.393,4.7a11.834,11.834,0,0,1-.168,2.023,2.929,2.929,0,0,1-1.967-1.462,5.357,5.357,0,0,1-.422-2.36c0-.872.056-1.772.084-2.671v-.506c-.028-.225-.056-.394-.056-.506-.365-3.2-.759-6.1-1.18-8.713,1.4,0,2.333.787,2.782,2.39a17.373,17.373,0,0,1,.365,4.356A27.128,27.128,0,0,0,915.5,923.574Z" transform="translate(0 0)" fill="#231f20"/><path d="M920.9,928.128a10.912,10.912,0,0,1-1.77-.2,3.241,3.241,0,0,1,.73-1.743,5.862,5.862,0,0,1,1.659-1.04c-.2.084-.282.141-.282.225,0,.225.816.2,1.069.2C922.306,927.622,922.024,928.128,920.9,928.128Z" transform="translate(0 0)" fill="#231f20"/><path d="M935.573,911.741c1.377.394,2.079,1.181,2.079,2.362a3.843,3.843,0,0,1-.084.758,6.7,6.7,0,0,1-2.023,2.98c-1.1,1.04-2.164,2.08-3.261,3.12-1.152,1.18-1.715,2.164-1.715,2.951s.367,1.4,1.462,2.052a9.383,9.383,0,0,0,4.807,1.293,27.808,27.808,0,0,0,2.978-.253,28.474,28.474,0,0,1,3.289-.253,3.6,3.6,0,0,1-2.135,1.883,9.368,9.368,0,0,1-3.318.506,14.747,14.747,0,0,1-3.653-.422,29.454,29.454,0,0,1-2.755-1.181,4.137,4.137,0,0,0-1.574-.449c-.084,0-.225.028-.421.056a3.211,3.211,0,0,0-1.434.843c-1.321,1.208-2.051,1.855-2.136,1.911a5.189,5.189,0,0,1-.084-.927c0-1.546.927-3.457,2.783-5.762,1.489-1.715,2.951-3.457,4.44-5.172q1.054-1.139,1.6-1.854a3.775,3.775,0,0,0,1.1-2.024.945.945,0,0,0-.394-.787,3.607,3.607,0,0,0-2.052-.506,4.4,4.4,0,0,0-2.755,1.012,24.818,24.818,0,0,0-2.248,2.192,1.63,1.63,0,0,1-.028-.422,4.063,4.063,0,0,1,1.405-3.035,4.54,4.54,0,0,1,3.176-1.321,3.445,3.445,0,0,1,.591.028Q934.94,911.572,935.573,911.741Z" transform="translate(0 0)" fill="#231f20"/></g></svg>
