<svg xmlns="http://www.w3.org/2000/svg" width="1000" height="988" viewBox="0 0 1000 988"><g id="Artboard"><rect id="Tint" width="1000" height="988" fill="#58595b"/></g><g id="Outline"><g id="_._th_Touhou_Project_水没した沈愁地獄_Copyright2021_黄昏フロンティア_上海アリス幻樂団" data-name="１７.５th Touhou Project ～ 水没した沈愁地獄 Copyright2021 黄昏フロンティア＆上海アリス幻樂団"><path id="_" data-name="１７" d="M93.2,70.312V67.718a4,4,0,0,0-4-4H72.673A4,4,0,0,0,69,66.144a3.972,3.972,0,0,0-1.265-1.788l-.432-.339a4,4,0,0,0-3.444-.734l-8.864,2.223a4,4,0,0,0-3.027,3.88V70.56a4,4,0,0,0,3.8,4v8.729c0,.869-.005,1.75-.014,2.656l-.861.053a4,4,0,0,0-3.758,3.992v.958a4,4,0,0,0,4,4H69.678a3.976,3.976,0,0,0,2.914-1.276l.277.249a4,4,0,0,0,2.676,1.027h5a4,4,0,0,0,3.689-2.454l8.648-20.63A4.009,4.009,0,0,0,93.2,70.312ZM72.673,76.135h6.72L72.616,87.276a3.985,3.985,0,0,0-2.692-1.283l-.8-.05c-.009-.907-.014-1.789-.014-2.659V73.912A3.986,3.986,0,0,0,72.673,76.135Z" fill="#fff"/><path id="_._th" data-name=".５th" d="M155.75,86.582c-.011-1.053-.018-2.109-.018-2.99V79.578c0-6.089-3.546-10.023-9.034-10.023a11.111,11.111,0,0,0-1.725.132l.072-3.9a4,4,0,0,0-1.836-3.439l-.432-.278a4.008,4.008,0,0,0-2.163-.635,3.94,3.94,0,0,0-.764.074l-6.825,1.327a3.991,3.991,0,0,0-3.1,2.946,3.978,3.978,0,0,0-2.215-.672h-3.186a3.987,3.987,0,0,0-2.638,1.008,4,4,0,0,0-3.661-2.4h-13.62a4,4,0,0,0-3.993,3.763l-.679,11.458a4,4,0,0,0,.678,2.476,6.31,6.31,0,0,0-1.377,1.195,6.9,6.9,0,0,0-3.739-1.1,6.95,6.95,0,1,0,5.455,11.276,12.341,12.341,0,0,0,8.226,2.716c4.921,0,8.438-1.535,10.7-3.8a7.456,7.456,0,0,0,1.078,1.393,8.777,8.777,0,0,0,6.5,2.378,10.2,10.2,0,0,0,4.623-1.005,3.958,3.958,0,0,0,1.862.48h8.925a4.013,4.013,0,0,0,.911-.1,4.026,4.026,0,0,0,.911.1h8.956a4,4,0,0,0,4-4v-.958A4,4,0,0,0,155.75,86.582Zm-23.707-2.99c0,.261,0,.547,0,.843-.087-.006-.172-.024-.259-.024-.046,0-.092,0-.138,0v-5.07c.137-.006.266-.037.4-.056Zm-22.723-.134c-.1-.177-.214-.347-.331-.51a.936.936,0,0,1,.187.042A1.517,1.517,0,0,1,109.32,83.458Z" fill="#fff"/><path id="Touhou" d="M246.33,93.374a13.058,13.058,0,0,0,7.313,2.094,12.5,12.5,0,0,0,9.607-4.1,8.016,8.016,0,0,0,1.253,1.678,8.547,8.547,0,0,0,6.341,2.422,9.89,9.89,0,0,0,3.695-.734,4,4,0,0,0,2.173.641c.078,0,.157,0,.236-.007l6.8-.4a4,4,0,0,0,3.763-3.993v-.927a4,4,0,0,0-1.945-3.433V79.133l.122-4.986a4,4,0,0,0-1.561-3.269l-.4-.308a4,4,0,0,0-3.075-.778l-6.7,1.081c-.113.018-.225.041-.335.069-.026-.022-.053-.043-.08-.064l-.4-.308a4,4,0,0,0-2.974-.793L263.3,70.7a3.966,3.966,0,0,0-2.205,1.072,13.033,13.033,0,0,0-7.449-2.22,12.529,12.529,0,0,0-9.732,4.3,8.381,8.381,0,0,0-7.686-4.3,11.131,11.131,0,0,0-1.725.132l.073-3.9a4,4,0,0,0-1.837-3.439l-.432-.278a4,4,0,0,0-2.163-.635,3.948,3.948,0,0,0-.764.074l-6.825,1.327a4,4,0,0,0-3.236,3.927v.8A3.985,3.985,0,0,0,220,69.788a3.892,3.892,0,0,0-.571-.047,4.023,4.023,0,0,0-.637.051l-6.7,1.081c-.114.018-.225.041-.335.068l-.08-.063-.4-.308a4,4,0,0,0-2.974-.793l-6.856.926a3.983,3.983,0,0,0-2.407,1.266,12.966,12.966,0,0,0-7.712-2.414,13.653,13.653,0,0,0-4.6.786l-.047-2.543a4,4,0,0,0-4-3.925H162.293a4,4,0,0,0-4,3.925l-.124,6.609a4,4,0,0,0,4,4.075h1.822a3.993,3.993,0,0,0,1.868-.463V80.1c0,2.017,0,3.965-.014,5.878a4,4,0,0,0-3.167,3.912v1.05a4,4,0,0,0,4,4h11.613a4,4,0,0,0,3.885-3.085,13.33,13.33,0,0,0,19.046-.82,8.061,8.061,0,0,0,1.425,2.008,8.545,8.545,0,0,0,6.34,2.422,9.89,9.89,0,0,0,3.695-.734,4,4,0,0,0,2.173.641c.078,0,.157,0,.236-.007l6.795-.4a3.008,3.008,0,0,1,1.584-.024H232.4a4.042,4.042,0,0,1,1.822,0h8.956A3.977,3.977,0,0,0,246.33,93.374ZM179.079,78.663v-.677c.058.032.121.056.181.085C179.2,78.267,179.133,78.462,179.079,78.663Z" fill="#fff"/><path id="Project" d="M293.418,94.943h11.458a4,4,0,0,0,4-4v-1.05a4,4,0,0,0-3.355-3.948c0-.128,0-.257,0-.385a14.109,14.109,0,0,0,7.247-2.626v.658c0,.814-.007,1.826-.018,2.849a4,4,0,0,0-2.144,3.544v.958a4,4,0,0,0,4,4h10.037a4,4,0,0,0,4-4v-.386a12.316,12.316,0,0,0,10.236,4.911,14.733,14.733,0,0,0,2.688-.243A6.6,6.6,0,0,0,341.2,96.8a4,4,0,0,0,.38,2.161c.636,1.309,2.692,4.353,8.046,4.353a10.826,10.826,0,0,0,8.213-3.593,11.61,11.61,0,0,0,3.133-7.389,12.888,12.888,0,0,0,8.727,3.138,11.479,11.479,0,0,0,8.712-3.754,12.41,12.41,0,0,0,9.138,3.754,11.55,11.55,0,0,0,8.582-3.388,7.358,7.358,0,0,0,.824,1.01,8.773,8.773,0,0,0,6.5,2.378,8.922,8.922,0,0,0,8.346-4.62,4,4,0,0,0-.755-4.856l-.525-.494a3.991,3.991,0,0,0-2.742-1.087c-.046,0-.092,0-.138,0v-5.07a4,4,0,0,0,3.829-4V74.081a4,4,0,0,0-3.78-4l.01-.785c0-.064,0-.129,0-.193a4,4,0,0,0-4-4h-3.185a4,4,0,0,0-3.8,2.764l-.809,2.49-.188.021a3.965,3.965,0,0,0-1.758.657,11.188,11.188,0,0,0-5.67-1.485,13.449,13.449,0,0,0-9.832,3.942,10.947,10.947,0,0,0-8.79-3.942,13.242,13.242,0,0,0-8.624,3.2,3.958,3.958,0,0,0-.76-1.439A6.441,6.441,0,0,0,361.19,68a6.657,6.657,0,0,0-13.312,0,6.44,6.44,0,0,0,1.038,3.534l-.152.04a3.974,3.974,0,0,0-1.585.841,12.862,12.862,0,0,0-8.3-2.856,13.047,13.047,0,0,0-7.154,2.033,6.908,6.908,0,0,0-5.106-2.033,7.59,7.59,0,0,0-3.268.752,4,4,0,0,0-3.406-.562l-3.895,1.131c-1.2-3.485-4.561-7-13.21-7h-9.42a4,4,0,0,0-4,4v1.05a4,4,0,0,0,2.85,3.832c.023,1.962.023,3.94.023,5.989V80.1c0,2.043,0,4.016-.022,5.958a4,4,0,0,0-2.851,3.832v1.05A4,4,0,0,0,293.418,94.943Zm97.429-10.359c-.553.691-.822.691-1.107.691-1.238,0-1.515-1.684-1.554-2.894A6.213,6.213,0,0,0,391.424,84,4,4,0,0,0,390.847,84.584Zm-65.094,1.558c-.009-.926-.015-1.821-.015-2.55V82.3c.128.033.267.051.4.075,0,.014,0,.027,0,.041a15.109,15.109,0,0,0,.564,4.151A4.019,4.019,0,0,0,325.753,86.142Z" fill="#fff"/><path id="_2" data-name="～" d="M638.5,840.3l.518.427a4,4,0,0,0,5.373-.258,4.191,4.191,0,0,1,3.233-1.3c1.257,0,3.481,1.156,4.551,1.712a18.832,18.832,0,0,0,8.119,2.431c3.253,0,7.9-1.162,11.559-6.7a4,4,0,0,0-.6-5.123l-.487-.457a4,4,0,0,0-5.566.089,4.368,4.368,0,0,1-3.262,1.387c-1.256,0-3.482-1.157-4.552-1.713a18.84,18.84,0,0,0-8.117-2.43c-4.618,0-8.49,2.208-11.511,6.563A4,4,0,0,0,638.5,840.3Z" fill="#fff"/><path id="水没" d="M681.455,844.065a4,4,0,0,0-.452,5.489l.244.3a4,4,0,0,0,4.849,1.1,25.7,25.7,0,0,0,3.221-1.837,3.993,3.993,0,0,0,1.22.433,6.186,6.186,0,0,1,.731.168c.031.179.069.459.1.887a4,4,0,0,0,3.986,3.667c.113,0,.225,0,.338-.014,5.209-.441,8.1-2.323,9.043-5.994q.961,1.038,2.067,2.017a4,4,0,0,0,6.487-1.848,2.015,2.015,0,0,1,.727-1.212,3.988,3.988,0,0,0,1.649-.756c-.052.429-.124.9-.226,1.4a4.009,4.009,0,0,0,.09,1.943,6,6,0,0,0,5.9,4.433,7.744,7.744,0,0,0,1.443-.134,4,4,0,0,0,1.862.147,36.124,36.124,0,0,0,10.426-3.187,29.145,29.145,0,0,0,6.117,2.939,4,4,0,0,0,5.215-2.735c.334-1.253.782-1.355.95-1.393a4,4,0,0,0,3.1-3.57l.03-.365a4,4,0,0,0-3.407-4.289q-.834-.122-1.605-.26c.149-.259.294-.52.435-.786a4.833,4.833,0,0,0,1.88-1.838,4,4,0,0,0,.233-3.58,5.992,5.992,0,0,0,1.93-4.441,5.613,5.613,0,0,0-1.114-3.535l-.045-1.716a4,4,0,0,0-4-3.9h-.142a4.084,4.084,0,0,0-.606-.606l-3.472-2.8a4,4,0,0,0-5.441.389l-.75.806-3.951-1.35a4,4,0,0,0-4.451,1.33,14.036,14.036,0,0,0-6.332-1.3h-.013a4,4,0,0,0-2.6.958l-.214.183a4.006,4.006,0,0,1-2.261,6.645l-.012.011-4.412-2.859a4,4,0,0,0-4.192-.1c.033-.145.055-.27.069-.369A4,4,0,0,0,702.542,818l-5.574-.548c-.13-.013-.261-.019-.391-.019a4,4,0,0,0-4,4V824.4a3.99,3.99,0,0,0-2.085,1.151l-.951.992h-4.629a4,4,0,0,0-3.808,5.226l.275.852a4,4,0,0,0,3.808,2.775h1.335A18.826,18.826,0,0,1,681.455,844.065Zm45.629-2.087a7.907,7.907,0,0,1,.188-1.023,23.994,23.994,0,0,0,.993,2.314c-.15.109-.3.216-.457.321-.177-.453-.36-.834-.51-1.147C727.226,842.292,727.133,842.1,727.084,841.978Zm-11.3-7.326a2.266,2.266,0,1,1-1.7,4.2,17.228,17.228,0,0,1-4.013-2.757c1.233-.807,2.314-1.58,3.165-2.217a4.876,4.876,0,0,0,1.84-.8A5.471,5.471,0,0,1,715.785,834.652Z" fill="#fff"/><path id="し" d="M778.141,836.085l-.457-.335a4,4,0,0,0-5.361.577c-2.282,2.581-6.1,4.527-8.882,4.527-.219,0-.4,0-.558-.014-.006-.138-.01-.3-.01-.493a41.248,41.248,0,0,1,1.323-9.006,2.71,2.71,0,0,1,.352-.7,6.415,6.415,0,0,0,1.1-3.425c0-4.086-5.552-8.081-9.7-8.081a9.716,9.716,0,0,0-4.376,1.213,4,4,0,0,0-2.213,3.579v.4a4,4,0,0,0,2.5,3.707l.181.074c0,.1,0,.206,0,.33,0,1-.111,2.708-.228,4.521-.164,2.534-.35,5.406-.35,7.875,0,7.692,4.205,12.284,11.248,12.284,9.054,0,14.627-6.423,16.823-12.434A4,4,0,0,0,778.141,836.085Z" fill="#fff"/><path id="た沈愁地獄" d="M944.779,841.927c-1.59-1.128-2.679-3.235-3.295-6.4a4.635,4.635,0,0,0,4.262-3.425,3.992,3.992,0,0,0-.335-2.936,5.754,5.754,0,0,0,.611-2.162c.175-2.195-.891-4.873-4.12-6.467A4,4,0,0,0,938.515,818l-5.3-.457c-.115-.01-.23-.015-.344-.015a4,4,0,0,0-2.7,1.053c-.053.049-.105.1-.155.15a4,4,0,0,0-2.562-.928,4.08,4.08,0,0,0-.468.027,4,4,0,0,0-2.742,1.586l-.418.563-.041-.02-4.6-2.193a9.018,9.018,0,0,1-5.773.676,4,4,0,0,0-2.356.768l-.335.244a4,4,0,0,0-.793,5.7,12.767,12.767,0,0,1,1.083,1.634,3.871,3.871,0,0,0-.369-.378l-3.533-2.954a4,4,0,0,0-1.483-.783c0-.031.01-.063.014-.094a4,4,0,0,0-3.583-4.544l-5.147-.488c-.126-.012-.252-.018-.377-.018a4,4,0,0,0-3.808,2.777l-1.758-.182-.013-.017a4,4,0,0,0-2.784-1.5l-5.238-.457c-.116-.01-.233-.015-.348-.015a4,4,0,0,0-4,4v3.444a3.975,3.975,0,0,0-.789-.875l-4.081-3.258a2.3,2.3,0,0,1-1.419-1.755,4,4,0,0,0-2.778-1.48l-5.361-.457c-.113-.01-.227-.015-.34-.015a4,4,0,0,0-3.469,2.009l-1.308-1.287a4,4,0,0,0-4.891-.562,40.232,40.232,0,0,1-8.976,3.594,4,4,0,0,0-2.638,2.243l-.783-.748a3.987,3.987,0,0,0-2.762-1.107,4.084,4.084,0,0,0-.723.065,4,4,0,0,0-3.622-3.884l-5.482-.519c-.126-.012-.252-.018-.377-.018a4,4,0,0,0-4,4v.041c-.053.006-.107.012-.16.02-1.358-1.894-4.018-3.544-8.795-3.544a6.1,6.1,0,0,1-4.784,7.571l-.213.153a4,4,0,0,0-.7,5.87,5.6,5.6,0,0,1,1.218,2.486,4,4,0,0,0,1.7,2.789c.058.04.116.079.175.117l0,.006a4,4,0,0,0-3.639,3.984v.548a4.082,4.082,0,0,0,.048.61,6.855,6.855,0,0,0-2.868-1.706,5.374,5.374,0,0,0,4.052-5.33,6.622,6.622,0,0,0-3.228-5.551,9.857,9.857,0,0,0-3.777-1.379c-.01-3.467-2.949-5.638-6.006-5.93-1.2-2.5-4.528-3.932-7.771-3.932a10.206,10.206,0,0,0-4.59,1.123,4,4,0,0,0-2.212,3.578v.335a.963.963,0,1,1-1.6.781,4,4,0,0,0-2.3.73l-.3.213a4,4,0,0,0-1.576,4.248c.947,3.758,2.589,5.957,5.269,6.885a35.568,35.568,0,0,1-2,4,9.882,9.882,0,0,1-.738,1.059,7.459,7.459,0,0,0-1.856,4.809c0,3.8,2.654,6.771,6.041,6.771a6.657,6.657,0,0,0,6.076-4.254q.108-.217.222-.463c1.72,2.607,4.955,4.534,10.271,4.534a22.316,22.316,0,0,0,5.476-.576c3.8-.908,5.163-3.561,5.163-5.739a6.063,6.063,0,0,0-.247-1.674,4.061,4.061,0,0,0,.714.459,16.708,16.708,0,0,1-.339,2.761,4,4,0,0,0,.062,1.861,6,6,0,0,0,5.9,4.523,7.586,7.586,0,0,0,1.737-.2,4,4,0,0,0,3.21-.235,30.966,30.966,0,0,0,5.5-3.667c1.158,2.118,3.407,3.157,6.786,3.157h2.254c3.781,0,6.132-.808,7.57-1.973a6.321,6.321,0,0,0,4.169,1.564,6.677,6.677,0,0,0,2.284-.4,7.165,7.165,0,0,0,.845-.359c1.979,1.628,4.763,1.628,6.153,1.628h3.472a21.576,21.576,0,0,0,7.031-.793,7.3,7.3,0,0,0,1.548-.755,6.694,6.694,0,0,0,2.36.441,6.086,6.086,0,0,0,5.4-3.2,3.985,3.985,0,0,0,4.9,1.755,5.346,5.346,0,0,0,2.5-2.009q.812-.609,1.587-1.219c1.456,5.2,6.976,5.2,9.247,5.2H900c3.415,0,8.478-.014,11.037-2.561a3.962,3.962,0,0,0,3.954,3.536,9.316,9.316,0,0,0,5.781-1.646,4.051,4.051,0,0,0,.859.092h.639a9.648,9.648,0,0,0,2.745-.4c.063.088.129.174.2.258l.335.4a4,4,0,0,0,5.2.792,21.881,21.881,0,0,0,3.942-3.18,12.506,12.506,0,0,0,.864,1.843A4,4,0,0,0,943,850.829c.025-.219.171-1.318.537-1.42a4,4,0,0,0,2.931-3.854v-.366A4,4,0,0,0,944.779,841.927Zm-33.932-5.884c-.039.081-.084.153-.124.232.007-.105.016-.2.022-.309C910.78,835.99,910.811,836.021,910.847,836.043ZM878.581,838.4v.321l-.252.059A3.848,3.848,0,0,0,878.581,838.4Zm-34.549-5.591a3.98,3.98,0,0,0,.891.506,11.247,11.247,0,0,1-1.881,2.935c-.071.077-.124.164-.187.245a3.977,3.977,0,0,0-1.585-.332h-.3a4,4,0,0,0-1.756.406v-.365c.058-.075.113-.152.167-.23,1.12-.78,2.452-1.822,3.543-2.715A5.207,5.207,0,0,0,844.032,832.81Z" fill="#fff"/><path id="Copyright2021_黄昏フロンティア_上海アリス幻樂団" data-name="Copyright2021 黄昏フロンティア＆上海アリス幻樂団" d="M765.733,919.9l-2.965-2.385a4,4,0,0,0-5.472.431l-.361.4H746.8l-2.857-1.132a4,4,0,0,0-3.721.41c-.082.056-.156.119-.233.18l-2.013-.938a4,4,0,0,0-3.494.057,3.935,3.935,0,0,0-.44.259,4,4,0,0,0-1.028-.266l-3.451-.417a3.876,3.876,0,0,0-.48-.029,4,4,0,0,0-2.7,1.045q-.066.06-.129.123l-2.3-.9a3.943,3.943,0,0,0-4.871,1.7h0a4,4,0,0,0-5.54.147l-.632.641h-4.94a3.943,3.943,0,0,0-.436-.2l-4.378-1.737a4,4,0,0,0-5.322,2.62c-.211.739-.452,1.558-.707,2.4a3.993,3.993,0,0,0-1.31.266,8.682,8.682,0,0,0-5.763-3.047,5.028,5.028,0,0,0-3.151,1.181c-1.241.253-3.108.575-4.322.694a4,4,0,0,0-4.477-.927l-.325.138a3.984,3.984,0,0,0-1.28.878,9.025,9.025,0,0,0-6.6-3.586,8.2,8.2,0,0,0-4.684,1.9,8.6,8.6,0,0,0-3.609-.972,8.071,8.071,0,0,0-3.547.927,6.257,6.257,0,0,0-3.239-1.112,6.034,6.034,0,0,0-2.5.587c-.058.025-.118.055-.187.081-2.044.286-7.29.887-9.765,1a4,4,0,0,0-3.805-.7l-.278.093c-.031.01-.06.026-.091.037-.484-.408-.849-.706-.882-.733a4,4,0,0,0-2.528-.9,4.068,4.068,0,0,0-.527.035,2.114,2.114,0,0,1-3.436,0l-4.332-1.482a4,4,0,0,0-4.366,1.221,12.185,12.185,0,0,0-3.945-1.189,3.879,3.879,0,0,0-.558-.04,4,4,0,0,0-2.123.61l-.186.117a4,4,0,0,0-1.413,5.258l-.185.116a1.859,1.859,0,0,1-3.13.57,4.05,4.05,0,0,0-.593.044,4.841,4.841,0,0,0,.5-1.578,4,4,0,0,0-3.6-4.517l-4.563-.417c-.122-.012-.244-.017-.365-.017a4,4,0,0,0-4,4v15.735h-2.665a3.978,3.978,0,0,0-1.569-.93c-.18-.182-.356-.359-.529-.535.237-.451.448-.9.643-1.37a4,4,0,0,0,3.064-3.889v-.742a4,4,0,0,0-4-4h-1.981c-.4-3.277-3.131-6.508-8.605-6.508a9.507,9.507,0,0,0-6.753,2.5,7.8,7.8,0,0,0-4.92-2.452,6.036,6.036,0,0,0-2.5.586c-.058.026-.119.056-.189.081-2.043.287-7.29.888-9.764,1a4,4,0,0,0-3.8-.7l-.278.093a4,4,0,0,0-2.663,3.036c-.011.061-.013.124-.023.184a7.327,7.327,0,0,0-3.2-.695,11.658,11.658,0,0,0-1.47.1,4,4,0,0,0-3.411,3.146,7.056,7.056,0,0,0-2.656-1.834c-.055-2.773-2.193-5.535-6.894-5.535a4.99,4.99,0,0,0-2.109.5,5.908,5.908,0,0,1-.7.271,13.2,13.2,0,0,1-3.4.614,4.139,4.139,0,0,1-.685-.031,3.991,3.991,0,0,0-4.61.463l-.186.162a3.983,3.983,0,0,0-1.232,2.006c-.132-.013-.263-.029-.394-.029a3.993,3.993,0,0,0-3.139,1.518,23.794,23.794,0,0,1-3.382,3.283c-.6-4.046-4.9-6.816-11.312-7.158-.072,0-.143-.006-.214-.006a4,4,0,0,0-3.471,2.013l-.186.325a3.879,3.879,0,0,0-.193.421,7.879,7.879,0,0,0-4.14-1.67,5.238,5.238,0,0,0-3.319,1.244c-.86.12-2.573.312-4.219.473a8.843,8.843,0,0,0-4.831-1.374,13.049,13.049,0,0,0-2,.167,3.965,3.965,0,0,0-.769.208,8.51,8.51,0,0,0-4.9-2.154,5.778,5.778,0,0,0-2.878.794,1.958,1.958,0,0,1-.179.093,64.61,64.61,0,0,1-7.055.723l-.143-.129a4,4,0,0,0-4.236-.731l-.266.111-2.54-2.629a4,4,0,0,0-4.259-.973,62.79,62.79,0,0,1-7.968,2.1l-2.69-.925a3.977,3.977,0,0,0-4.69,1.668c-.934-.723-1.791-1.352-1.845-1.391a21.5,21.5,0,0,0-3.491-1.27l-4.192-.324c-.1-.008-.206-.012-.308-.012a4,4,0,0,0-1.683.371c-.1-.015-.2-.027-.3-.035l-4.146-.324q-.158-.012-.312-.012a4,4,0,0,0-3.851,2.918h-.759a285.381,285.381,0,0,1-4.513,5,4,4,0,0,0-.653,3.507l.185.648a4,4,0,0,0,2.672,2.727v7.029q-.338.157-.672.295a3.981,3.981,0,0,0-2.236,2.371,4,4,0,0,0,.069-.687v-.718a4,4,0,0,0-3.148-3.909q0-.437,0-.863v-7.34l.091-3.727a4,4,0,0,0-1.637-3.326l-.348-.254a3.995,3.995,0,0,0-3.253-.671l-6.277,1.436a3.954,3.954,0,0,0-1.445.668,9.639,9.639,0,0,0-6.695-2.3,10.75,10.75,0,0,0-7.389,2.63,9.235,9.235,0,0,0-12.9-.008,9.462,9.462,0,0,0-7.041-2.622,10.959,10.959,0,0,0-6.968,2.264,3.984,3.984,0,0,0-3.218-1.639h-2.391a4,4,0,0,0-3.8,2.763l-.419,1.29a3.935,3.935,0,0,0-.767.285,7.971,7.971,0,0,0-3.9-1c-.092,0-.183,0-.273,0l.033-1.813a4,4,0,0,0-1.839-3.441l-.324-.208a4.007,4.007,0,0,0-2.923-.56l-5.119,1a4,4,0,0,0-3.237,3.927v.6a3.974,3.974,0,0,0,.186,1.184,11.4,11.4,0,0,0-4.06-.69,11.6,11.6,0,0,0-4.3.757,5.994,5.994,0,0,0,.079-.926,6,6,0,0,0-12.007,0c0,.061.015.118.017.179-.04,0-.076-.01-.116-.01a6.633,6.633,0,0,0-2.378.446,4,4,0,0,0-2.907-.264l-2.165.628a3.963,3.963,0,0,0-1.745-.416h-4.771a4.034,4.034,0,0,1-2.2,0h-7.064a3.981,3.981,0,0,0-1.546.311,8.719,8.719,0,0,0-3.41-.7,9.709,9.709,0,0,0-2.785.4,4,4,0,0,0-2.816-.21l-4.957,1.46c-.08.023-.153.061-.231.089a10.845,10.845,0,0,0-6.027-1.735,10.962,10.962,0,0,0-4.04.758l0-.075a4,4,0,0,0-2.061-3.587,13.289,13.289,0,0,0-6.849-1.821c-7.892,0-13.4,5.388-13.4,13.1,0,7.852,5.312,13.127,13.218,13.127a14.167,14.167,0,0,0,7.118-1.827,10.7,10.7,0,0,0,6.015,1.757,11.545,11.545,0,0,0,3.914-.666,3.971,3.971,0,0,0-.341,1.6v.671a4,4,0,0,0,4,4h7.112a3.991,3.991,0,0,0,3.856-2.992,6.66,6.66,0,0,0,5.894,3.27c1.361,0,6-.526,8.559-7.287l.1-.253a3.983,3.983,0,0,0,2.9,1.263H304.6a3.961,3.961,0,0,0,2.107-.614,3.961,3.961,0,0,0,2.107.614h3.78c.391,2.124,2.111,6,9.469,6,6.134,0,9.649-2.774,10.9-6H337.1a3.983,3.983,0,0,1,1.366,0h6.718a3.953,3.953,0,0,0,1.905-.5,8.416,8.416,0,0,0,3.978.9,8.964,8.964,0,0,0,3.31-.6,3.952,3.952,0,0,0,1.206.206h11.6a3.98,3.98,0,0,0,2.725-1.086,9.254,9.254,0,0,0,10.171-.088,3.988,3.988,0,0,0,2.83,1.174h11.6a3.738,3.738,0,0,1,2.662,0h10.308a3.987,3.987,0,0,0,3.775-2.731,3.962,3.962,0,0,0,.054,1.8l.069.255a4,4,0,0,0,3.857,2.95,4.193,4.193,0,0,0,.446-.024,35.584,35.584,0,0,0,9.625-2.387h.028a5.2,5.2,0,0,0,2.922-.851,6.637,6.637,0,0,1,1.428,1.191,4.107,4.107,0,0,0,.43.425,6.324,6.324,0,0,0,4.087,1.5,6.211,6.211,0,0,0,3.966-1.409,3.974,3.974,0,0,0,3.1,1.507h.487a8.544,8.544,0,0,0,5.132-1.69h1.947a4,4,0,0,0,3.182,1.575h.579c.214,0,4.486-.045,6.135-2.591a3.979,3.979,0,0,0,4.169,1.246A27.226,27.226,0,0,0,478.793,933.5c.064.83.1,1.5.1,1.763,0,.2-.02.434-.044.7-.032.359-.072.806-.072,1.311,0,3.061,2.315,6.339,5.761,6.339a5.176,5.176,0,0,0,4.192-1.994c1.5-.089,2.808-.137,3.776-.137.591,0,1.2.059,1.786.116.61.06,1.185.116,1.781.116a5.245,5.245,0,0,0,3.614-1.393,8.888,8.888,0,0,0,6.971,4.126,5.384,5.384,0,0,0,3.964-1.877c.051-.053.1-.111.162-.166a38.206,38.206,0,0,0,9.5-8.012,6.35,6.35,0,0,0,3.511,1.539,13.739,13.739,0,0,1-2.548,2.342,4,4,0,0,0-.884,5.667l.279.37a4,4,0,0,0,4.529,1.368,20.01,20.01,0,0,0,10.1-7.66,4,4,0,0,0,.4,1.02l.163.277a4,4,0,0,0,4.471,1.85,19.163,19.163,0,0,0,2.021-.658,5.629,5.629,0,0,0,5.67,5.1,5.277,5.277,0,0,0,4.612-2.685,4.009,4.009,0,0,0,.506.856l.277.347a4,4,0,0,0,4.644,1.207,24.166,24.166,0,0,0,13.029-12.784q.438-.2.844-.382a7.868,7.868,0,0,0-1,3.882c0,4.278,3.22,8.609,9.374,8.609a9.981,9.981,0,0,0,4.724-1.178,9.8,9.8,0,0,0,4.888,1.132,12.856,12.856,0,0,0,1.652-.1,3.975,3.975,0,0,0,2.239.7h21.171c.139,0,.271-.021.407-.031a5.355,5.355,0,0,0,3.438,1.235,6.117,6.117,0,0,0,4.942-2.409h.1a6.8,6.8,0,0,0,2.64-.507,4,4,0,0,0,3.858,2.938,8.391,8.391,0,0,0,6.194-2.152,6.6,6.6,0,0,0,.626-.71c.047.067.08.14.131.2l.279.348a4,4,0,0,0,4.639,1.2,24.161,24.161,0,0,0,13.028-12.784c.754-.336,1.442-.656,2.041-.94a5.48,5.48,0,0,0-.11,1.081,7.451,7.451,0,0,0,2.547,5.773,4,4,0,0,0-1.012,5.112l.209.37a3.995,3.995,0,0,0,4.432,1.919,19.089,19.089,0,0,0,8.6-4.273,4.1,4.1,0,0,0,.248.575l.233.417a4,4,0,0,0,4.542,1.913,29.728,29.728,0,0,0,10.609-5.35c.066.14.134.287.206.442.09.2.18.389.272.583l.022.046c1.725,3.522,4.457,4.048,5.933,4.048a5.694,5.694,0,0,0,1.575-.226,3.981,3.981,0,0,0,3.381,1.083,4.876,4.876,0,0,0,2.607-1.263q1.247-.556,2.346-1.079a6.093,6.093,0,0,0,3.8,1.383,5.534,5.534,0,0,0,.925-.077,4,4,0,0,0,3.658,2.38,9.137,9.137,0,0,0,4.961-1.344,3.975,3.975,0,0,0,3.086.48,36.787,36.787,0,0,0,4.477-1.432,4,4,0,0,0,3.62,2.3h.6c1.883,0,4.714-.534,6.116-2.283a18.123,18.123,0,0,0,2.355,1.013,7.965,7.965,0,0,1,4.939,1.316h.556a7.756,7.756,0,0,0,5.411-2.108h7.042a4,4,0,0,0,3.459,1.991h.534c1.348,0,6.454-.789,6.809-4.652.011-.122.017-.244.017-.366V925.574c.027-.034.054-.067.081-.1A4,4,0,0,0,765.733,919.9Zm-409.991,12.35-.481.49-.06.062v-.388a3.9,3.9,0,0,0,.476-.183C355.7,932.233,355.72,932.242,355.742,932.247Zm40.126,1.409c.239-.291.458-.593.666-.9v1.223A3.972,3.972,0,0,0,395.868,933.656Zm-147.971.451-.323,1.14a6.316,6.316,0,0,1-.747-3.617,8.024,8.024,0,0,1,.629-3.466l.283.983a2.524,2.524,0,0,1,.158,4.96Zm211.484,2.6a5.479,5.479,0,0,0,2.975-2.69,5.705,5.705,0,0,0,.527-1.718,5.372,5.372,0,0,0,1.184.137,5.275,5.275,0,0,0,1.96-.392,22.256,22.256,0,0,1-6.369,5.209c-.1.052-.183.125-.277.185ZM502.35,930c.129.2.265.4.412.622.118.175.289.428.52.715a4.048,4.048,0,0,0-.582-.042,3.983,3.983,0,0,0-1.777.427,5.4,5.4,0,0,0,1.209-2.052C502.2,929.77,502.273,929.877,502.35,930Zm140.04,3.039a3.953,3.953,0,0,0,.017-1.159c.018,0,.035,0,.053,0a5.14,5.14,0,0,0,.782-.059c-.258.476-.574,1.008-.936,1.562C642.336,933.266,642.368,933.153,642.39,933.034Zm-32.711,1.924v-.532h.885A3.95,3.95,0,0,0,609.679,934.958Zm66.7-3.059c.042-.62.094-1.652.148-2.717a7.806,7.806,0,0,0,3.367,3,29.694,29.694,0,0,1-4.161,3.372A16.094,16.094,0,0,0,676.377,931.9Zm33.8-.393a4.4,4.4,0,0,0,.418-.251c-.021.373-.044.74-.068,1.1-.188-.16-.388-.317-.6-.471C710.009,931.753,710.092,931.629,710.172,931.506Zm-15-.569c-.052-.033-.1-.071-.151-.1.026-.017.058-.041.084-.059C695.132,930.828,695.158,930.883,695.177,930.937ZM553.32,938.571c-.047-1.04-.105-2.4-.067-3.681.009-.054.021-.1.03-.149a6.392,6.392,0,0,0,.158-1.35,4.688,4.688,0,0,0-.046-.661,5.071,5.071,0,0,0,1.734-1.819,6.054,6.054,0,0,0,3.16.967,5.274,5.274,0,0,0,.783-.059,19.767,19.767,0,0,1-5.164,6.228A3.968,3.968,0,0,0,553.32,938.571Z" fill="#fff"/></g></g><g id="Text"><path d="M69.678,89.985v.958H55.131v-.958l4.571-.277c.031-2.131.062-4.324.062-6.424v-13l-3.8.278V69.386l8.864-2.223.432.339-.154,5.59V83.284c0,2.1.031,4.293.062,6.424Z" fill="#000000"/><path d="M89.2,67.718v2.594L80.548,90.943h-5l-.309-.278,11.273-18.53H72.673V67.718Z" fill="#000000"/><path d="M92.53,88.5a2.965,2.965,0,1,1,5.93,0,2.966,2.966,0,0,1-5.93,0Z" fill="#000000"/><path d="M105.563,78a12.434,12.434,0,0,1,5.034-1.019c6.3,0,8.462,3.182,8.462,6.949,0,4.262-3.274,7.567-9.883,7.567-4.354,0-7.165-2.008-7.381-5.528a2.272,2.272,0,0,1,2.131-1.513c1.39,0,2.255.8,2.409,2.686l.309,2.9a6.2,6.2,0,0,0,2.069.278c2.625,0,4.663-2.161,4.663-6.146,0-3.242-1.636-5.25-4.694-5.25a9.277,9.277,0,0,0-4.046.772l-.71-.525.679-11.458h13.62v4.293H105.964Z" fill="#000000"/><path d="M132.307,88.905a5.045,5.045,0,0,1-4.849,2.563c-3.15,0-4.849-1.421-4.817-4.849,0-1.173.03-2.069.03-3.366V75.347h-2.5v-.989l2.748-.309,1.606-4.941h3.181l-.061,4.973h3.829v1.266h-3.829V87.021c0,1.667.8,2.378,2.038,2.378a3.07,3.07,0,0,0,2.1-.988Z" fill="#000000"/><path d="M153.646,89.985v.958H144.69v-.958l1.977-.185c.031-1.791.062-4.416.062-6.208V79.145c0-2.409-.9-3.273-2.255-3.273a5.466,5.466,0,0,0-3.459,1.668v6.052c0,1.73.031,4.417.062,6.239l1.791.154v.958h-8.925v-.958l2.038-.185c.031-1.822.062-4.478.062-6.208V67.78l-2.254-.216v-.8l6.825-1.328.432.278-.092,4.972v5.991c1.853-2.192,3.428-3.119,5.744-3.119,3,0,5.034,1.822,5.034,6.023v4.014c0,1.823.031,4.448.062,6.239Z" fill="#000000"/><path d="M175.141,69.077c-.062,3.181-.062,6.393-.062,9.667v1.328c0,3.15,0,6.362.062,9.512l3.15.309v1.05H166.678v-1.05l3.12-.309c.061-3.088.061-6.27.061-9.481V78.744c0-3.243,0-6.486-.061-9.667h-4.262l-1.545,5.405h-1.822l.124-6.609h20.383l.124,6.609h-1.792l-1.574-5.405Z" fill="#000000"/><path d="M182.583,82.419a8.756,8.756,0,1,1,17.511,0c0,5.528-3.521,9.049-8.772,9.049C186.042,91.468,182.583,87.854,182.583,82.419Zm12.167.062c0-5.405-1.2-7.845-3.428-7.845s-3.459,2.44-3.459,7.845c0,5.373,1.236,7.906,3.459,7.906S194.75,87.854,194.75,82.481Z" fill="#000000"/><path d="M221.649,90.047v.927l-6.794.4-.155-3.088a7.6,7.6,0,0,1-5.713,3.181c-3.089,0-5.034-1.668-4.972-6.362l.123-9.173-2.161-.432v-.834l6.856-.926.4.308-.185,5.034v6.486c0,2.471.957,3.243,2.439,3.243a4.59,4.59,0,0,0,3.181-1.482l.124-11.428-2.069-.4v-.679l6.7-1.081.4.308-.123,5.034v10.81Z" fill="#000000"/><path d="M243.174,89.985v.958h-8.956v-.958l1.976-.185c.031-1.791.062-4.416.062-6.208V79.145c0-2.409-.9-3.273-2.255-3.273a5.468,5.468,0,0,0-3.459,1.668v6.052c0,1.73.031,4.417.062,6.239l1.792.154v.958H223.47v-.958l2.039-.185c.031-1.822.061-4.478.061-6.208V67.78l-2.254-.216v-.8l6.825-1.328.432.278-.092,4.972v5.991c1.853-2.192,3.428-3.119,5.744-3.119,3,0,5.034,1.822,5.034,6.023v4.014c0,1.823.031,4.448.062,6.239Z" fill="#000000"/><path d="M244.9,82.419a8.756,8.756,0,1,1,17.511,0c0,5.528-3.521,9.049-8.771,9.049C248.362,91.468,244.9,87.854,244.9,82.419Zm12.168.062c0-5.405-1.205-7.845-3.428-7.845s-3.459,2.44-3.459,7.845c0,5.373,1.235,7.906,3.459,7.906S257.071,87.854,257.071,82.481Z" fill="#000000"/><path d="M283.506,90.047v.927l-6.794.4-.154-3.088a7.6,7.6,0,0,1-5.714,3.181c-3.089,0-5.034-1.668-4.972-6.362L266,75.933l-2.162-.432v-.834l6.856-.926.4.308-.185,5.034v6.486c0,2.471.957,3.243,2.44,3.243a4.589,4.589,0,0,0,3.18-1.482L276.65,75.9l-2.069-.4v-.679l6.7-1.081.4.308-.123,5.034v10.81Z" fill="#000000"/><path d="M301.51,81.708c0,2.317,0,5.065.062,7.845l3.3.34v1.05H293.418v-1.05l2.78-.278c.093-3.119.093-6.3.093-9.512V78.744c0-3.212,0-6.393-.093-9.574l-2.78-.247v-1.05h9.42c7.011,0,9.821,2.5,9.821,6.856,0,3.86-2.625,6.979-9.975,6.979Zm.062-12.662c-.062,3.181-.062,6.424-.062,9.7v1.822h1.019c3.583,0,5.312-2.409,5.312-5.868,0-3.737-1.791-5.652-5.065-5.652Z" fill="#000000"/><path d="M321.738,78.312c.926-3.151,3.026-4.757,4.879-4.757a2.705,2.705,0,0,1,3,2.44c-.124,1.359-.741,2.5-2.285,2.5-1.174,0-1.915-.742-2.749-1.853l-.278-.371a8.865,8.865,0,0,0-2.563,4.756v2.563c0,1.7.031,4.293.061,6.116l2.842.277v.958H314.6v-.958l2.1-.216c.03-1.791.062-4.447.062-6.177V81.029c0-2.007-.032-3.027-.093-4.509l-2.317-.247v-.741l6.7-1.946.433.309Z" fill="#000000"/><path d="M330.137,82.419a8.756,8.756,0,1,1,17.511,0c0,5.528-3.521,9.049-8.771,9.049C333.6,91.468,330.137,87.854,330.137,82.419Zm12.168.062c0-5.405-1.2-7.845-3.428-7.845s-3.459,2.44-3.459,7.845c0,5.373,1.235,7.906,3.459,7.906S342.305,87.854,342.305,82.481Z" fill="#000000"/><path d="M357.221,73.9l-.093,4.941v9.852c0,4.695-.556,6.548-2.192,8.277a6.83,6.83,0,0,1-5.312,2.347c-2.657,0-3.923-1.019-4.448-2.1a2.626,2.626,0,0,1,2.625-2.347,3.011,3.011,0,0,1,2.9,1.884l.587,1.173a2.578,2.578,0,0,0,.525-.957c.556-1.606.34-5.188.34-9.08V81.276c0-2.007-.031-3.4-.124-4.849l-2.254-.247v-.741l7.072-1.853ZM351.878,68a2.661,2.661,0,1,1,2.656,2.5A2.535,2.535,0,0,1,351.878,68Z" fill="#000000"/><path d="M376.584,87.3a7.257,7.257,0,0,1-6.887,4.17c-5.1,0-8.864-3.243-8.864-9.018a8.587,8.587,0,0,1,8.833-8.895c4.633,0,7.134,3.119,7.134,7.042a6.933,6.933,0,0,1-.185,1.884h-10.5c.155,4.817,2.471,6.794,5.374,6.794A5.14,5.14,0,0,0,376,86.928Zm-6.27-5.929c1.452,0,1.823-.71,1.823-2.625,0-2.687-1.174-4.108-2.811-4.108-1.7,0-3.088,1.915-3.212,6.7Z" fill="#000000"/><path d="M389.8,74.7c-.309-.031-.587-.062-.865-.062-2.749,0-4.756,2.687-4.756,7.412,0,4.6,2.255,7.227,5.559,7.227a5.186,5.186,0,0,0,4.231-2.192l.618.4a7.431,7.431,0,0,1-7.042,3.984c-4.694,0-8.616-3.181-8.616-8.926s4.2-8.987,9.357-8.987c3.49,0,5.961,2.131,6.362,4.911a1.959,1.959,0,0,1-2.038,1.637c-1.3,0-2.378-.742-2.5-3.027Z" fill="#000000"/><path d="M408.3,88.905a5.043,5.043,0,0,1-4.849,2.563c-3.15,0-4.848-1.421-4.817-4.849,0-1.173.031-2.069.031-3.366V75.347h-2.5v-.989l2.749-.309,1.606-4.941h3.18l-.061,4.973h3.829v1.266h-3.829V87.021c0,1.667.8,2.378,2.038,2.378a3.07,3.07,0,0,0,2.1-.988Z" fill="#000000"/><path d="M647.625,835.169a8.182,8.182,0,0,0-6.062,2.468l-.517-.427c2.619-3.776,5.452-4.843,8.224-4.843a14.888,14.888,0,0,1,6.273,1.98c2.346,1.218,4.447,2.163,6.4,2.163a8.358,8.358,0,0,0,6.091-2.559l.488.457c-2.5,3.777-5.452,4.9-8.223,4.9a14.884,14.884,0,0,1-6.274-1.98C651.676,836.113,649.574,835.169,647.625,835.169Z" fill="#000000"/><path d="M712.993,829.565c-.152.3-.457.488-1.219.4a54.02,54.02,0,0,1-7.674,5.025,20.054,20.054,0,0,0,9.289,7.98l-.153.336a5.31,5.31,0,0,0-3.776,3.989c-4.568-4.051-7.157-8.894-8.376-18.913V845.22c0,3.015-.7,4.63-5.726,5.055a5.359,5.359,0,0,0-.944-3.167,4.843,4.843,0,0,0-3.167-1.492v-.4s3.838.244,4.629.244c.519,0,.7-.183.7-.549V831.941c-.152.031-.366.061-.609.091-1.4,6.061-4.569,11.94-11.6,15.32l-.244-.3c4.294-3.838,6.518-9.868,7.37-15.655h-6.3l-.275-.853h6.335l2.132-2.224,3.2,2.711v-9.593l5.573.547c-.06.427-.274.7-1.066.823v3.563a25.038,25.038,0,0,0,2.559,7.767,56.3,56.3,0,0,0,4.416-7.767Z" fill="#000000"/><path d="M717.263,828.9c9.168.152,6.183,7.279,2.436,4.933a10.884,10.884,0,0,0-2.649-4.751Zm10.6-2.772c-1.4,3.929-3.746,11.147-4.233,12.943a11.952,11.952,0,0,0-.549,3.138c.062,1.735,1.492,2.589,1.432,5.3a2.855,2.855,0,0,1-3.076,2.741,2.037,2.037,0,0,1-2.072-1.584c.64-3.167.519-6.091-.243-6.578a3.208,3.208,0,0,0-1.675-.518v-.548h1.462c.518,0,.67,0,1.035-.639.853-1.249.853-1.249,7.493-14.376Zm-8.132-4.051c9.5.031,6.791,7.31,2.863,5.116a14.111,14.111,0,0,0-3.076-4.933Zm24.7,14.68c-.214.365-.518.487-1.28.579a20.012,20.012,0,0,1-4.385,6.365,36.266,36.266,0,0,0,7.827,1.919l-.031.365c-2.01.457-3.32,1.98-3.928,4.264a22.14,22.14,0,0,1-7.157-3.929,29.7,29.7,0,0,1-11.361,3.991l-.152-.335a25.223,25.223,0,0,0,9.472-5.879,20.361,20.361,0,0,1-3.351-7.675h-2.71l-.274-.853h10.842l2.467-2.345h-.731c-2.832,0-3.167-.791-3.167-3.35v-5.543h-3.076v2.162c0,2.65-.762,6.7-7.554,8.772l-.152-.275c3.137-2.5,3.5-5.786,3.5-8.5v-4.66l4.813,1.645h2.1l2.01-2.162,3.472,2.8a1.32,1.32,0,0,1-.943.488v4.233c0,.335.09.427.456.427h1.493c.243,0,.365-.061.548-.335a24.5,24.5,0,0,0,1.4-3.32h.305l.091,3.472a1.573,1.573,0,0,1,1.066,1.675c0,1.584-1.462,2.467-4.691,2.467h-.883Zm-13.859-.335a12.655,12.655,0,0,0,4.691,5.513,19.793,19.793,0,0,0,2.863-5.513Z" fill="#000000"/><path d="M753.36,824.327v-.4a5.974,5.974,0,0,1,2.589-.792c2.375,0,5.7,2.62,5.7,4.081,0,.974-.945,1.584-1.341,3.2a46.231,46.231,0,0,0-1.431,9.929c0,3.258.822,4.507,4.568,4.507,4.021,0,8.863-2.466,11.878-5.877l.457.335c-1.858,5.085-6.365,9.806-13.066,9.806-4.386,0-7.248-2.345-7.248-8.284,0-4.172.578-9.837.578-12.4,0-1.674-.122-2.344-.7-2.923A4.809,4.809,0,0,0,753.36,824.327Z" fill="#000000"/><path d="M787.233,823.048a6.253,6.253,0,0,1,2.8-.7c2.254,0,4.234,1.066,4.234,1.98s-.67,1.4-1.493,3.959a14.466,14.466,0,0,0,2.8-1.218,5.936,5.936,0,0,1,1.524-.823c.882,0,2.71.488,2.71,1.981,0,1-.823,1.614-3.594,2.557-.975.335-2.71.823-4.477,1.219-.335,1.187-.7,2.5-1.1,3.746a107.055,107.055,0,0,1-3.991,11.086c-.608,1.219-1.127,2.041-2.5,2.041-1.157,0-2.041-1.249-2.041-2.771,0-1.554,1.006-2.072,2.041-3.838a42.653,42.653,0,0,0,3.533-7.828c.183-.517.366-1.157.548-1.827a17.05,17.05,0,0,1-1.979.153c-2.589,0-3.959-.519-4.934-4.386l.3-.214a6.109,6.109,0,0,0,3.747,1.4A17.416,17.416,0,0,0,789,829.23a25.878,25.878,0,0,0,.487-3.289,1.548,1.548,0,0,0-.517-1.523,4.857,4.857,0,0,0-1.737-1.035ZM793.69,839.8a5.99,5.99,0,0,0,.914,2.649c1.249,1.767,2.985,2.224,5.36,2.224a19.23,19.23,0,0,0,4.2-.579c1.462,0,3.2.639,3.2,2.284,0,.884-.731,1.523-2.132,1.858a18.054,18.054,0,0,1-4.507.457c-5.239,0-7.858-2.315-7.858-6.091a11.474,11.474,0,0,1,.456-2.8Zm.853-5.33a11.907,11.907,0,0,1,7.035-2.437,7.118,7.118,0,0,1,3.838.914,2.618,2.618,0,0,1,1.4,2.193c0,.974-.609,1.614-2.254,1.614-.518,0-1.279.03-2.071.092a18.018,18.018,0,0,0-3.9.67l-.213-.3a16.87,16.87,0,0,0,2.4-2.041c.122-.152.092-.3-.152-.4a9.092,9.092,0,0,0-2.588-.335,25.146,25.146,0,0,0-3.351.335Z" fill="#000000"/><path d="M813.371,828.865c8.894.4,5.574,7.248,1.949,4.751a9.489,9.489,0,0,0-2.162-4.6Zm9.32-2.1c-1.066,3.715-2.863,10.6-3.228,12.365a13.24,13.24,0,0,0-.427,3.015c.062,1.766,1.524,2.65,1.432,5.421a2.819,2.819,0,0,1-3.015,2.742,2.008,2.008,0,0,1-2.041-1.584c.64-3.137.548-6.153-.213-6.67a3.16,3.16,0,0,0-1.614-.488v-.548h1.4c.488,0,.64,0,.975-.639.731-1.189.731-1.189,6.274-13.736Zm-7.1-4.721c9.259-.122,6.517,7.035,2.649,4.873a12.384,12.384,0,0,0-2.862-4.69Zm25.8,23.056a1.645,1.645,0,0,1,1.187,1.7c0,1.706-1.492,2.558-5.634,2.558h-2.254c-3.076,0-3.715-.792-3.715-3.5V839.4c-1.676,4.142-4.751,7.918-10.448,10.934l-.335-.4c6.945-6.335,8.285-13.583,8.529-21.257h-2.467c.913,7.37-6.762,5.786-3.868,1.674a9.1,9.1,0,0,0,2.8-4.812h.305a16.129,16.129,0,0,1,.61,2.284h2.649c.03-2.07.03-4.172.03-6.3l5.483.519c-.061.456-.335.73-1.127.853-.031,1.644-.061,3.289-.122,4.933h3.99l1.979-1.949,3.381,3.228c-.244.275-.548.335-1.187.4-1.189,1-3.168,2.588-4.508,3.472l-.275-.153c.245-1.066.58-2.832.792-4.141h-4.2c-.09,1.461-.182,2.923-.395,4.384l3.594.3c-.031.4-.3.7-.975.792v10.568c0,.427.122.58.73.58h1.524c.517,0,.944,0,1.218-.031.335,0,.487-.092.7-.457a34.848,34.848,0,0,0,1.583-4.66h.3Z" fill="#000000"/><path d="M855.347,839.494c0,.213-1.248,1.035-3.229,1.035h-.73v-5.3a19.146,19.146,0,0,1-5.117,4.082l-.274-.366a19.3,19.3,0,0,0,4.233-9.35h-3.837l-.244-.853h5.239v-3.076c-1.706.092-3.473.122-5.148.092l-.06-.4a44.228,44.228,0,0,0,10.05-4.05l3.777,3.715a2.137,2.137,0,0,1-2.071-.06c-.761.152-1.645.273-2.589.365v3.411h.274l1.767-2.376s1.217,1,2.344,1.98a1.748,1.748,0,0,1,.245-.121,3.339,3.339,0,0,0,1.857-2.651h.4c1.371,3.259.7,5.665-.7,6.487a2.135,2.135,0,0,1-3.045-1.157,2.108,2.108,0,0,1,.061-1.309h-3.2v1.614c8.162.822,4.447,6.944,1.249,4.355a7.76,7.76,0,0,0-1.249-3.837Zm-3.868,2.071c1.523,3.869.091,6.548-1.858,7.218a2.246,2.246,0,1,1-1.37-4.233c1.31-.365,2.8-1.462,2.862-2.985Zm15.715,4.172c1.158.427,1.432.914,1.432,1.676,0,1.705-1.584,2.406-7.188,2.406h-3.472c-3.594,0-4.386-.639-4.386-3.32v-5.3l5.178.365c-.061.426-.335.67-.945.762v3.289c0,.365.092.457,1.006.457h3.137c.914,0,1.889,0,2.345-.031a1.118,1.118,0,0,0,.944-.365,13.175,13.175,0,0,0,1.554-2.924h.305Zm8.1-17.908c-.183.244-.609.4-1.218.152a43.507,43.507,0,0,1-4.63,3.046,9.067,9.067,0,0,0,5.726,4.934v.366c-2.01.548-3.167,2.04-3.411,4.6-2.467-1.767-3.472-5.7-3.929-10.934-.67,4.994-2.924,8.07-11.3,9.959l-.214-.4c8.194-3.472,7.492-8.467,7.492-17.817l5.361.457c-.061.456-.4.731-1.035.823,0,.913-.031,1.766-.031,2.588a18.892,18.892,0,0,0,.913,4.386c.854-1.888,1.8-4.2,2.194-5.422Zm-17.208,11.848c9.472-.243,7.1,7.127,3.228,5.086a12.269,12.269,0,0,0-3.441-4.9Zm8.863,1.736c11.026,1.1,8.01,9.472,3.777,6.762a15.529,15.529,0,0,0-3.991-6.579Z" fill="#000000"/><path d="M906.915,844.7c1.311.487,1.736,1,1.736,1.767,0,2.01-1.766,2.771-8.649,2.771h-3.99c-4.051,0-5.6-.639-5.6-4.051V833.707l-2.589.914-.548-.7,3.137-1.127v-.944a.95.95,0,0,1-.3.03h-3.412v8.681c1.158-.367,2.345-.762,3.472-1.189l.092.244a67.06,67.06,0,0,1-8.194,6.975,1.418,1.418,0,0,1-.822.944l-2.07-4.843c.792-.182,2.01-.487,3.411-.883V831.88h-2.65l-.243-.853h2.893v-8.893l5.238.457c-.06.427-.274.73-1.127.883v7.1l1.4-2.527s1.34,1.462,2.314,2.71v-6.67l5.3.549c-.061.4-.335.73-1.1.852V831.3l1.919-.7v-9.077l5.147.488c-.061.426-.274.731-1.1.853v6.3l1.614-.578.275-.092h-.031l2.1-1.979,3.533,2.954a1.881,1.881,0,0,1-1.188.548c-.091,8.132-.3,9.929-1.736,11.056a5.288,5.288,0,0,1-3.5,1.066,6.909,6.909,0,0,0-.3-2.741,2.356,2.356,0,0,0-.762-.883v3.99c0,.365-1.766,1.218-3.319,1.218h-.731V831.515l-1.919.7V844c0,.883.488,1.157,1.888,1.157h3.9c1.219,0,2.316-.03,2.956-.092a1.9,1.9,0,0,0,1.248-.456,19.445,19.445,0,0,0,1.888-4.02h.3Zm-6.335-14.619v7.857h.854a.877.877,0,0,0,.7-.243c.457-.457.579-2.528.639-8.406Z" fill="#000000"/><path d="M922.059,823.565c-.121.3-.426.518-1.158.457a28.892,28.892,0,0,1-2.527,3.564c1.645,2.984,2.1,6.426,2.223,10.324.152,4.173-.153,8.528-1.615,10.782-.7,1.1-2.04,1.523-3.989,1.523a5.42,5.42,0,0,0-.457-2.741,3.306,3.306,0,0,0-1.644-1v-.4s1.644.153,2.466.153a.807.807,0,0,0,.823-.367c.7-1.157.883-4.538.883-8.009v-.122a28.8,28.8,0,0,1-4.355,3.685l-.244-.244a28.343,28.343,0,0,0,4.2-9.654,15.3,15.3,0,0,0-.3-1.706,21.859,21.859,0,0,1-3.411,2.833l-.3-.275a28.5,28.5,0,0,0,2.894-5.33,16.4,16.4,0,0,0-2.467-4.354l.335-.245a16.371,16.371,0,0,1,2.985,2.467,33.85,33.85,0,0,0,1.066-3.533Zm6.274,1.858s1.949,1.614,3.076,2.711c-.06.335-.4.487-.822.487h-9.776l-.245-.852h6.061Zm8.649,6.122c.4,6.427,1.919,11.117,5.483,13.644v.366c-1.98.549-3.137,2.193-3.442,4.812-1.553-2.68-2.163-8.376-2.376-14.406-.639,6.122-2.5,10.843-8.04,14.376l-.335-.4a16.107,16.107,0,0,0,1.8-2.8,5.232,5.232,0,0,1-2.771.944h-.64v-1.736H925.2v1.279c0,.244-1.1,1.035-2.924,1.035h-.639V837.605l3.989,1.494h.732l1.674-1.737,3.351,2.528a2.029,2.029,0,0,1-1.1.579v6.274c2.072-4.233,2.528-9.2,2.619-15.2h-2.558l-.243-.853h2.8c.031-2.833-.03-5.878-.03-9.168l5.3.457c-.092.518-.427.792-1.127.884-.031,2.8-.031,5.391-.092,7.827h.183l1.706-2.345s1.918,1.614,3.045,2.711c-.091.335-.4.487-.823.487Zm-9.411-2.284s1.859,1.522,2.924,2.589c-.06.335-.365.487-.792.487H922l-.244-.853h4.2Zm0,3.716s1.859,1.522,2.924,2.588c-.06.335-.365.488-.792.488H922l-.244-.853h4.2Zm-5.7-8.924h3.9l1.676-2.254s1.858,1.554,2.954,2.619c-.061.335-.366.487-.792.487H922.12Zm4.782,21.441v-5.543H925.2v5.543Zm10.873-22.141c7.4,1.187,4.112,6.822,1.248,4.416a7.026,7.026,0,0,0-1.522-4.234Z" fill="#000000"/><path d="M253.2,939.366a10.036,10.036,0,0,1-5.258,1.367c-5.119,0-9.218-3.011-9.218-9.127,0-6.183,4.377-9.1,9.4-9.1a9.41,9.41,0,0,1,4.911,1.32l-.093,4.216h-1.366l-1.274-4.425a5.746,5.746,0,0,0-1.691-.231c-3.243,0-5.791,2.548-5.791,8.246,0,5.722,2.525,8.2,5.883,8.2a5.189,5.189,0,0,0,1.808-.3l1.227-4.331h1.366Z" fill="#000000"/><path d="M254.523,933.877a6.567,6.567,0,1,1,13.134,0c0,4.146-2.64,6.786-6.578,6.786C257.118,940.663,254.523,937.953,254.523,933.877Zm9.127.046c0-4.053-.9-5.883-2.571-5.883s-2.6,1.83-2.6,5.883c0,4.03.927,5.93,2.6,5.93S263.65,937.953,263.65,933.923Z" fill="#000000"/><path d="M273.911,928.966a5.159,5.159,0,0,1,3.984-1.737c2.825,0,5.072,2.363,5.072,6.648,0,4.216-2.571,6.786-5.629,6.786a4.289,4.289,0,0,1-3.4-1.6v1.367c0,1.389.023,3.15.046,4.957l1.784.209v.671h-7.112V945.6l1.553-.162c.023-1.831.046-3.591.046-5v-7.575c0-1.5-.023-2.293-.07-3.4l-1.714-.185v-.556l4.957-1.46.325.231Zm.092,9.473a2.793,2.793,0,0,0,1.923.58c1.806,0,3.08-1.25,3.08-5.119,0-3.776-1.111-5.073-2.942-5.073a2.722,2.722,0,0,0-2.061.811Z" fill="#000000"/><path d="M296.887,928.317l-1.552.209-5,13.319c-1.367,3.613-3.4,4.7-4.818,4.7-1.3,0-2.524-.765-2.571-1.807a1.862,1.862,0,0,1,1.992-1.482,2.752,2.752,0,0,1,2.177,1.273l.371.488a8.517,8.517,0,0,0,2.2-3.5l-5.49-13.064-1.343-.14v-.694h7.064v.694l-1.691.186,3.151,8.756,2.849-8.709-2.108-.233v-.694h4.771Z" fill="#000000"/><path d="M302.422,930.8c.695-2.362,2.27-3.567,3.66-3.567a2.029,2.029,0,0,1,2.247,1.83c-.093,1.019-.556,1.877-1.714,1.877-.88,0-1.436-.557-2.062-1.391l-.208-.277a6.643,6.643,0,0,0-1.923,3.567v1.922c0,1.274.023,3.22.047,4.586l2.131.209v.718h-7.528v-.718l1.575-.162c.023-1.344.046-3.336.046-4.633v-1.922c0-1.506-.023-2.271-.069-3.382l-1.737-.185v-.556l5.026-1.46.324.231Z" fill="#000000"/><path d="M315.578,939.552v.718h-6.764v-.718l1.529-.139c.023-1.367.047-3.359.047-4.656V932.9c0-1.482-.024-2.34-.07-3.521l-1.737-.185v-.556l5.3-1.39.324.231-.092,3.706v3.568c0,1.3.023,3.312.046,4.656Zm-5.4-16.492a2.008,2.008,0,1,1,1.992,1.876A1.915,1.915,0,0,1,310.181,923.06Z" fill="#000000"/><path d="M329.753,929.291l-2.8-.3a4.058,4.058,0,0,1,.787,2.526c0,2.431-1.737,4.354-5.35,4.354a7.235,7.235,0,0,1-2.826-.51,2.388,2.388,0,0,0-.394,1.321c0,.856.533,1.3,1.83,1.3H324.4c3.729,0,5.1,1.436,5.1,3.52,0,2.6-2.572,4.772-7.436,4.772-4.215,0-5.582-1.459-5.582-3.15,0-1.019.764-1.923,2.316-2.525a2.343,2.343,0,0,1-1.691-2.224c0-1.158.6-2.015,1.993-3.242a3.914,3.914,0,0,1-2.085-3.613c0-2.479,1.737-4.286,5.4-4.286a5.988,5.988,0,0,1,3.961,1.181l2.964-1.181.417.254Zm-7.759,11.789a9.414,9.414,0,0,1-2.757-.255,2.672,2.672,0,0,0-.579,1.784c0,1.691,1.274,2.641,3.382,2.641,3.058,0,4.54-.95,4.54-2.293a1.769,1.769,0,0,0-2.015-1.877Zm2.455-9.565c0-2.271-.764-3.591-2.038-3.591-1.3,0-2.038,1.344-2.038,3.591s.671,3.635,2.015,3.635C323.708,935.15,324.449,933.761,324.449,931.515Z" fill="#000000"/><path d="M345.179,939.552v.718h-6.718v-.718l1.483-.139c.023-1.344.046-3.312.046-4.656v-3.335c0-1.807-.672-2.456-1.691-2.456a4.105,4.105,0,0,0-2.594,1.251v4.54c0,1.3.023,3.312.046,4.679l1.344.116v.718H330.4v-.718l1.529-.139c.023-1.367.046-3.359.046-4.656V922.9l-1.691-.162v-.6l5.119-1,.324.208-.069,3.729v4.493c1.389-1.644,2.571-2.339,4.308-2.339,2.247,0,3.776,1.367,3.776,4.517v3.011c0,1.367.023,3.336.046,4.679Z" fill="#000000"/><path d="M354.7,938.741a3.781,3.781,0,0,1-3.636,1.922c-2.363,0-3.637-1.065-3.614-3.636,0-.881.024-1.552.024-2.525v-5.93H345.6v-.741l2.062-.231,1.2-3.706h2.386l-.046,3.729h2.872v.949H351.2v8.756c0,1.251.6,1.783,1.528,1.783a2.3,2.3,0,0,0,1.576-.741Z" fill="#000000"/><path d="M367.182,937.421v2.849h-11.6v-2.084c1.274-1.391,2.617-2.711,3.752-3.892,2.641-2.71,3.683-4.285,3.683-6.694,0-2.177-1.089-3.544-2.872-3.544a3.964,3.964,0,0,0-.881.092l-.509,2.293c-.255,1.576-1.02,1.947-1.737,1.947a1.624,1.624,0,0,1-1.506-.974c.208-2.686,2.826-4.145,5.93-4.145,3.66,0,5.351,1.921,5.351,4.54,0,2.408-1.97,4.516-6.393,7.412-.788.555-1.807,1.366-2.873,2.2Z" fill="#000000"/><path d="M380.963,931.978c0,6.045-2.849,8.685-6.045,8.685-3.22,0-6.022-2.64-6.022-8.685,0-6.069,2.8-8.709,6.022-8.709C378.114,923.269,380.963,925.909,380.963,931.978Zm-6.045,7.875c1.367,0,2.548-1.691,2.548-7.875,0-6.231-1.181-7.922-2.548-7.922s-2.5,1.668-2.5,7.922C372.417,938.186,373.551,939.853,374.918,939.853Z" fill="#000000"/><path d="M394.513,937.421v2.849h-11.6v-2.084c1.274-1.391,2.617-2.711,3.753-3.892,2.64-2.71,3.682-4.285,3.682-6.694,0-2.177-1.088-3.544-2.872-3.544a3.95,3.95,0,0,0-.88.092l-.509,2.293c-.255,1.576-1.02,1.947-1.738,1.947a1.622,1.622,0,0,1-1.5-.974c.208-2.686,2.826-4.145,5.93-4.145,3.659,0,5.35,1.921,5.35,4.54,0,2.408-1.969,4.516-6.393,7.412-.788.555-1.807,1.366-2.872,2.2Z" fill="#000000"/><path d="M407.483,939.552v.718H397.175v-.718l3.313-.417c.023-1.459.046-2.942.046-4.355V925.4l-2.733.255V924.8l6.277-1.436.347.254-.092,3.777v7.388c0,1.413.023,2.9.046,4.355Z" fill="#000000"/><path d="M415.172,942.285a23.383,23.383,0,0,0,7.412-4.888l3.567,2.456c-.232.254-.718.371-1.529.185a29.743,29.743,0,0,1-9.381,2.5Zm18.878-17.72s2.015,1.483,3.265,2.5c-.069.254-.347.371-.694.371H427.8v1.992h2.9l1.482-1.645,3.081,2.339a1.558,1.558,0,0,1-.926.487v6.578a6.3,6.3,0,0,1-2.827.718h-.579v-1.019h-9.241v.509c0,.325-1.483,1.042-2.872,1.042h-.487V928.086l3.544,1.344h2.64v-1.992H415.5l-.185-.649h5.93v-2.757h-4.425l-.185-.648h4.61v-2.918l4.146.324c-.047.324-.209.556-.857.648v1.946h3.15v-2.918l4.192.324c-.046.324-.185.556-.833.648v1.946h.579l1.691-2.084s1.9,1.389,3.057,2.362c-.07.255-.347.37-.672.37h-4.655v2.757h1.227Zm-12.369,5.513V932.7h2.825v-2.617Zm0,6.161h2.825v-2.895h-2.825Zm2.849-12.207v2.757h3.15v-2.757Zm2.64,14.061c13.805.231,8.292,6.092,5.536,3.752a12.61,12.61,0,0,0-5.605-3.5Zm.625-8.015V932.7h3.127v-2.617Zm3.127,6.161v-2.895H427.8v2.895Z" fill="#000000"/><path d="M456.215,924.194s1.784,1.368,2.872,2.294c-.069.254-.324.37-.648.37h-6.462a7.05,7.05,0,0,0,4.192,3.081c.417.116.672.07.857-.209a14.479,14.479,0,0,0,1.089-2.107l.231.046-.254,2.571c.81.7,1.065,1.251.695,1.969-.626,1.251-2.386,1-3.776.579l-.093-.023,1.367,1.019a1.426,1.426,0,0,1-.9.51v7.319a5.705,5.705,0,0,1-2.779.765h-.579V940.8h-7.459v.648c0,.324-1.436,1.042-2.8,1.042h-.487v-9.844l-1.413.463a1.033,1.033,0,0,1-.7.556l-1.621-3.566c.765-.024,1.946-.093,3.359-.186v-8.339l3.706,1.275a68.914,68.914,0,0,0,9.636-2.479l2.663,2.756c-.278.232-.834.232-1.575-.069-1.251.162-2.756.278-4.4.393a8.8,8.8,0,0,0,.695,2.757h3.011Zm-3.289,7.667a9.274,9.274,0,0,1-4.285-5h-4.447v2.849c1.691-.139,3.544-.277,5.42-.439l.023.277c-1.621.719-3.868,1.6-7.157,2.711l2.27.856h7.042Zm-4.516-5.651a12.179,12.179,0,0,1-.487-2.617c-1.251.046-2.5.093-3.729.093v2.524Zm3.613,7.551h-7.459v2.757h7.459Zm0,6.393v-2.988h-7.459v2.988Z" fill="#000000"/><path d="M463.743,924.982a63.97,63.97,0,0,0,8.5-.834c1.135-.254,1.413-.787,2.177-.787,1.274,0,4.031,2.455,4.031,3.381s-1.181,1.413-1.575,2.154a23.467,23.467,0,0,1-15.1,12.3l-.232-.417c6.162-3.289,10.956-9.5,11.929-14.407a.162.162,0,0,0-.162-.208,38.241,38.241,0,0,0-7.528,1.528c-.487.162-1.135.742-1.714.742-1.2,0-2.548-1.738-2.78-2.757a5.747,5.747,0,0,1-.092-1.76l.278-.116A3.368,3.368,0,0,0,463.743,924.982Z" fill="#000000"/><path d="M480.7,925.26a5.347,5.347,0,0,1,4.609,1.019,1.462,1.462,0,0,1,.324.371c2.155-.185,5.652-.556,6.648-.741,1.089-.185,1.413-1.112,2.178-1.112.949,0,3.891,2.27,3.891,3.474,0,.765-1.089,1.089-1.3,2.015-.3,1.413-.765,2.988-1.251,4.656.787.208,1.552.742,1.552,1.483a1.186,1.186,0,0,1-1.274,1.3c-.9,0-2.154-.232-3.567-.232-1.76,0-4.262.139-6.625.324v.232c0,.788-.324,1.575-1.343,1.575-.95,0-1.761-1.227-1.761-2.339,0-.672.116-1.274.116-2.015a70.141,70.141,0,0,0-.741-7.6c-.162-.834-.51-1.2-1.552-2.131Zm12.068,9.728a56.353,56.353,0,0,0,.857-6.717c0-.278-.093-.417-.371-.417a31.582,31.582,0,0,0-4.216.371,19.436,19.436,0,0,1-2.015.347,2.882,2.882,0,0,1-1.274-.439c.046,1.969.07,6,.093,7.527C487.808,935.452,490.61,935.15,492.765,934.988Z" fill="#000000"/><path d="M502.446,923.708c3.475.186,7.6,1.437,7.6,4.146a1.872,1.872,0,0,1-1.876,1.9,2.421,2.421,0,0,1-2.084-1.366,14.464,14.464,0,0,0-3.822-4.356Zm18.044,2.363.37.255a31.213,31.213,0,0,1-12.229,12.716c-.9.556-1.2,1.413-1.969,1.413a5.014,5.014,0,0,1-3.753-2.548,5.869,5.869,0,0,1-.51-2.432l.3-.185c.463.439,1.32,1.39,2.224,1.39C507.773,936.68,517.154,930.286,520.49,926.071Z" fill="#000000"/><path d="M521.879,928.062a2.7,2.7,0,0,0,1.852.858c1.552,0,8.826-1.089,11.373-1.413a13.186,13.186,0,0,0,2.248-.486c1.737,0,3.4.879,3.4,1.968,0,.95-.441,1.135-1.136,1.135-.579,0-1.9-.3-3.335-.3-1,0-2.247.093-3.544.209.973.6,1.529,1.112,1.529,1.691,0,.648-.625.972-1.3,2.339a15.726,15.726,0,0,1-9.126,7.852l-.279-.37c4.772-3.382,6.787-8.408,6.787-10.517a2.538,2.538,0,0,0-.116-.694,30.746,30.746,0,0,0-3.52.856,9.193,9.193,0,0,1-2.525.765,3.365,3.365,0,0,1-2.409-2.061,3.92,3.92,0,0,1-.139-1.738Zm3.058-5.118a4.974,4.974,0,0,0,2.663.556,16.85,16.85,0,0,0,4.563-.788c1.042-.324,1.39-.6,1.645-.6,1.806,0,2.895.556,2.895,1.645,0,.532-.209.88-.95,1.065a42.274,42.274,0,0,1-7.759,1.112c-1.6,0-2.386-.95-3.243-2.826Z" fill="#000000"/><path d="M547.265,926.3a5.04,5.04,0,0,1,1.945.046c1.2.324,2.5,1.482,2.5,2.27,0,.672-.533.672-1.02,1.135-.579.579-1.435,1.459-2.409,2.362.672.464,1.158.858,1.158,1.275,0,.37-.162.741-.184,1.32-.07,2.2.115,4.562.115,5.351a1.415,1.415,0,0,1-1.366,1.551c-1.2,0-1.737-.95-1.737-2.107,0-.348.092-.812.162-1.367a27.931,27.931,0,0,0,.255-4.123,3.829,3.829,0,0,0-.047-.533,22.528,22.528,0,0,1-7.342,3.822l-.162-.278c3.844-2.294,9.079-7.9,9.079-9.5,0-.347-.6-.764-1-.972Z" fill="#000000"/><path d="M555.672,923.407c.741.741,1.065.927,1.83.927,2.455,0,9.241-.811,11.048-1.065,1.019-.14,1.46-.626,2.108-.626,1.02,0,3.659,2.478,3.659,3.636,0,.95-1.459,1.02-2.038,1.3-1.042.51-2.71,1.3-4.54,2.062a.782.782,0,0,1-.022.6,20.257,20.257,0,0,1-11.189,11.4l-.277-.348c4.424-3.2,7.574-9.311,7.574-10.841,0-.741-.741-1.2-1.691-1.644l.023-.278a4.584,4.584,0,0,1,1.692-.324,6.808,6.808,0,0,1,2.894.625,10.937,10.937,0,0,0,2.526-3.2c.231-.486.069-.6-.372-.6a66.817,66.817,0,0,0-8.454,1.83c-.9.279-1.366,1.02-2.154,1.02-1,0-2.432-1.344-2.8-2.433a4.086,4.086,0,0,1-.092-1.945Z" fill="#000000"/><path d="M590.925,930.032a14.557,14.557,0,0,1-2.826,5.559c1.181,1.227,2.223,2.293,3.706,3.775l.741.093v.811a10,10,0,0,1-2.641.347,5.467,5.467,0,0,1-3.914-1.3c-.347-.3-.672-.6-1-.926a5.888,5.888,0,0,1-4.7,2.269c-3.637,0-5.374-2.153-5.374-4.609,0-1.9,1.136-3.474,4.216-4.725l-.37-.417a6.791,6.791,0,0,1-1.53-4.077c0-2.617,1.993-4.238,5.1-4.238,2.988,0,4.656,1.343,4.656,3.358,0,1.807-1.274,3.058-3.961,4.123.487.556,1.135,1.228,1.993,2.178,1.018,1.135,1.852,2.038,2.593,2.825a14.484,14.484,0,0,0,1.437-5.049l-2.178-.185v-.742h6.046v.742Zm-6.37,7.9c-.95-1.02-1.784-2.085-2.525-2.989-1.227-1.5-1.968-2.478-2.548-3.173a5.108,5.108,0,0,0-.857,2.849,3.58,3.58,0,0,0,3.776,3.845A4.2,4.2,0,0,0,584.555,937.931Zm-4.031-12.439a4.659,4.659,0,0,0,.951,2.71,13.473,13.473,0,0,0,1.134,1.413,6.316,6.316,0,0,0,1.39-3.961c0-1.506-.6-2.293-1.714-2.293C581.22,923.361,580.524,924.241,580.524,925.492Z" fill="#000000"/><path d="M612.164,938.093s2.178,1.644,3.5,2.756c-.069.255-.348.371-.7.371H593.8l-.185-.649h8.362V920.836l4.563.417c-.047.348-.209.579-.857.672v7.852h3.011l1.9-2.456s2.131,1.622,3.4,2.734c-.069.255-.324.371-.672.371h-7.643v10.145h4.54Z" fill="#000000"/><path d="M616.032,926.024c6.439.927,3.683,5.791,1.158,3.776a7.432,7.432,0,0,0-1.343-3.659Zm6.671-1.69c-.811,2.849-2.178,8.13-2.432,9.45a9.874,9.874,0,0,0-.325,2.293c.047,1.344,1.113,2.109,1.042,4.262a2.069,2.069,0,0,1-2.176,2.085,1.453,1.453,0,0,1-1.437-1.228c.486-2.478.395-4.818-.162-5.212a2.488,2.488,0,0,0-1.228-.393v-.417h1.043c.37,0,.463,0,.718-.486.51-.88.51-.88,4.586-10.447Zm-5.073-3.684c6.74.951,4.054,5.977,1.39,3.985a10.454,10.454,0,0,0-1.576-3.868Zm18.53,14.5s1.506,1.46,2.317,2.386c-.046.255-.3.371-.625.371H635.1c-.3,1.876-.718,2.918-1.344,3.521a4.465,4.465,0,0,1-3.4,1.019,2.637,2.637,0,0,0-.464-1.806,4.138,4.138,0,0,0-2.2-1.02v-.278c.972.07,2.385.163,2.919.163a1.136,1.136,0,0,0,.834-.278,2.528,2.528,0,0,0,.555-1.321H625.6c-.092.625-.208,1.2-.3,1.738-.718.417-1.483.509-3.2.138.44-2.154.879-4.655,1.273-7.088h-2.038l-.186-.648h2.317c.209-1.413.417-2.756.556-3.985a15.633,15.633,0,0,1-2.27,1.46l-.208-.162a25.212,25.212,0,0,0,3.659-8.918l4.332,1.483c-.116.3-.417.486-.974.463a15.887,15.887,0,0,1-1.065,1.853h5.768l1.529-2.131s1.76,1.436,2.779,2.409c-.069.254-.324.371-.672.371h-9.843a12.479,12.479,0,0,1-1.182,1.459l1.783.788h4.819l1.6-1.6,2.617,2.316a1.669,1.669,0,0,1-1.019.463c-.024,1.182-.07,2.271-.093,3.244l.857-1.39s1.321,1.3,2.015,2.154c-.046.255-.277.37-.6.37h-2.317q-.1,2.295-.278,3.892Zm-9.751-2.455c-.209,1.53-.464,3.127-.695,4.564h1.644c.209-1.251.441-2.9.626-4.564Zm.671-4.91c-.139,1.135-.347,2.641-.578,4.262h1.574c.162-1.506.324-3.034.441-4.262Zm5.05,9.474a39.99,39.99,0,0,0,.417-4.564h-1.668c-.162,1.668-.347,3.313-.509,4.564Zm-.811-9.474c-.092,1.251-.231,2.756-.37,4.262h1.645c.046-1.251.092-2.664.138-4.262Z" fill="#000000"/><path d="M639.842,923.407c.741.741,1.065.927,1.83.927,2.455,0,9.242-.811,11.049-1.065,1.019-.14,1.459-.626,2.107-.626,1.02,0,3.66,2.478,3.66,3.636,0,.95-1.459,1.02-2.038,1.3-1.043.51-2.71,1.3-4.54,2.062a.787.787,0,0,1-.023.6,20.255,20.255,0,0,1-11.188,11.4l-.278-.348c4.425-3.2,7.574-9.311,7.574-10.841,0-.741-.741-1.2-1.69-1.644l.023-.278a4.582,4.582,0,0,1,1.691-.324,6.809,6.809,0,0,1,2.895.625,10.893,10.893,0,0,0,2.524-3.2c.232-.486.07-.6-.37-.6a66.826,66.826,0,0,0-8.455,1.83c-.9.279-1.366,1.02-2.153,1.02-1,0-2.433-1.344-2.8-2.433a4.085,4.085,0,0,1-.093-1.945Z" fill="#000000"/><path d="M659.507,923.848V923.5a4.9,4.9,0,0,1,2.107-.672c1.113,0,3.614,1.32,3.614,2.293,0,.7-.6,1.089-.649,2.085-.069,1.019-.046,4.563-.046,6.462,0,1.391-.555,2.016-1.529,2.016-.9,0-1.829-1.367-1.829-2.989a15.937,15.937,0,0,0,.393-2.548c0-1.181,0-3.729-.139-4.724a1.141,1.141,0,0,0-.533-.858A7,7,0,0,0,659.507,923.848Zm2.9,18.135-.209-.37c4.332-2.409,6.718-5.42,7.112-9.914a60.456,60.456,0,0,0,.046-6.439c-.046-.625-.093-.833-.533-1.112a7.663,7.663,0,0,0-1.389-.625l-.024-.347a5.168,5.168,0,0,1,2.5-1.275c1.019,0,3.359,1.3,3.359,2.109,0,.648-.51.949-.556,1.644-.093,1.321-.232,4.61-.325,6C672.038,937.282,668.378,940.524,662.4,941.983Z" fill="#000000"/><path d="M679.681,924.148a3.044,3.044,0,0,0,2.131,1.3,43.424,43.424,0,0,0,6.6-.972c.625-.139,1.089-.95,1.645-.95,1.134,0,3.544,2.084,3.544,2.965,0,.764-1.275,1.2-1.53,1.552a53.5,53.5,0,0,1-3.265,4.54c3.775.949,7,3.011,7,5.859a1.835,1.835,0,0,1-1.783,1.831,2.623,2.623,0,0,1-2.34-1.807c-.834-1.76-1.506-3.567-3.636-5.1a26.451,26.451,0,0,1-12.114,7.274l-.233-.417c5.467-2.827,11.282-8.964,13.018-13.389.139-.37,0-.486-.255-.486a28,28,0,0,0-4.493,1.367c-.787.3-1.135.926-1.853.926-1.205,0-2.385-1.552-2.664-2.525a4.844,4.844,0,0,1-.093-1.83Z" fill="#000000"/><path d="M704.487,933.668c7.737,2.294,4.772,8.455,1.807,5.884a9.74,9.74,0,0,0-.394-2.27c-1.551.88-3.753,1.969-6.81,3.312a.95.95,0,0,1-.718.579l-1.482-3.845c.648-.046,1.668-.116,2.919-.209a74.465,74.465,0,0,0,4.631-11.164l4.147,1.691c-.116.278-.417.487-.973.416a57.184,57.184,0,0,1-6.856,8.965c1.459-.139,3.15-.3,4.91-.486a13.247,13.247,0,0,0-1.39-2.757Zm1.575-10.933c-.116.279-.44.464-.973.417a42.747,42.747,0,0,1-4.122,4.494c2.8,2.084.694,5.351-1.622,3.614a8.945,8.945,0,0,0-2.293-4.819l.185-.138a10.532,10.532,0,0,1,2.617.718c.58-1.807,1.275-4.077,1.831-6.023Zm13.18,1.251a1.706,1.706,0,0,1-1.089.487c-.278,11.673-.672,15.079-2.2,16.631a4.822,4.822,0,0,1-3.637,1.367,4.5,4.5,0,0,0-.393-2.364,3.1,3.1,0,0,0-1.923-1.18v-.255c.787.046,1.9.115,2.432.115a1.282,1.282,0,0,0,.88-.324c.973-.88,1.321-5.165,1.552-14.593h-8.315l-.209-.648h8.246l1.807-1.83Z" fill="#000000"/><path d="M732.7,935.267c2.038,1.528,5.582,2.455,8.709,2.71l-.022.278a3.882,3.882,0,0,0-2.526,3.173,11.1,11.1,0,0,1-6.833-6.069v6.324c0,.231-1.551.788-2.964.788h-.6v-4.795a25.645,25.645,0,0,1-9.08,4.053l-.139-.254a19.494,19.494,0,0,0,7.018-6.208h-6.717l-.186-.649h9.1v-2.293a4.206,4.206,0,0,1-1.344.255h-.371v-.95a1.41,1.41,0,0,1-2.548.579,8.059,8.059,0,0,0,0-1.506c-.694.557-1.621,1.275-2.848,2.178a.881.881,0,0,1-.625.556l-1.576-3.151c.533-.022,1.367-.069,2.386-.139.926-1.922,2.154-4.84,2.733-6.37l2.478,1.113v-2.6l2.317.927c.023-.811.046-1.946.023-2.756l3.451.417c-.069.393-.348.6-.857.648-.44.532-1.228,1.274-1.807,1.83h1.112l1.182-1.251,2.084,1.6a6.99,6.99,0,0,1,1.274.278c.3-1.181.6-2.686.765-3.5l3.381,1.575c-.092.232-.3.372-.9.3-.533.509-1.621,1.274-2.478,1.922a1.877,1.877,0,0,1,1.042,1.3c.3-.7.579-1.3.787-1.784l3.151,1.552c-.093.232-.348.371-.927.3-.579.672-1.459,1.575-2.408,2.5,5.7,1.622,2.825,5.93.625,3.846a6.451,6.451,0,0,0-.139-1.622q-.868.8-2.433,2.085a.882.882,0,0,1-.625.533l-1.482-2.85v1.275a4.024,4.024,0,0,1-2.247.718h-.463v-.858h-1.854v.464c0,.139-.324.37-.81.556l4.378.37c-.047.3-.209.557-.858.649v1.3H736.4l1.714-2.178s1.946,1.46,3.127,2.456c-.069.254-.324.371-.672.371Zm-6.74-13.458c-.069.232-.3.394-.9.347-.487.556-1.413,1.437-2.224,2.224,1.621,1.436-.371,3.591-2.107,2.154a5.128,5.128,0,0,0-1.02-3.081l.186-.115a6.6,6.6,0,0,1,1.991.486c.255-1.2.487-2.571.626-3.358Zm-1.876,8.13a7.572,7.572,0,0,0-.348-1.3c-.509.509-1.019,1-1.482,1.436C722.831,930.032,723.456,929.985,724.082,929.939Zm2.594-4.354c-.579.694-1.529,1.667-2.5,2.64,1.667.788,2.408,1.76,2.57,2.618v-5.258Zm2.64-1.575v2.918h1.854V924.01Zm1.854,6.624v-3.058h-1.854v3.058Zm2.71-.579c.324-.023.81-.046,1.343-.093.487-.926,1.019-2.038,1.506-3.1a1.612,1.612,0,0,1-2.039-.208,4.709,4.709,0,0,0-.648-2.385l-.162.046Zm3.845-1.714c-.556.533-1.112,1.065-1.645,1.552.672-.07,1.437-.139,2.178-.208A7.064,7.064,0,0,0,737.725,928.341Z" fill="#000000"/><path d="M763.226,923.014a1.577,1.577,0,0,1-.926.509v17.859a4.4,4.4,0,0,1-2.826,1.018h-.534v-1.991H745.761v.88c0,.417-1.321,1.228-2.733,1.228h-.556V920.929l3.567,1.413h12.67l1.552-1.714ZM758.94,939.76V928.248a.649.649,0,0,1-.486.162h-2.548v7.274c0,1.992-.486,3.057-3.868,3.358a3.21,3.21,0,0,0-.648-2.015,3.65,3.65,0,0,0-2.27-.95v-.324s2.8.185,3.335.185c.371,0,.486-.116.486-.417V928.41h-6.462l-.185-.648h6.647V924.01l3.776.324c-.046.348-.278.556-.811.625v2.757l1.135-1.83s1.182,1.158,1.9,2.014v-4.91H745.761v16.77Zm-11.349-10.7c6.509,1.691,3.265,6.625.764,4.239a8.107,8.107,0,0,0-.972-4.123Z" fill="#000000"/></g></svg>
