<svg xmlns="http://www.w3.org/2000/svg" width="1000" height="988" viewBox="0 0 1000 988"><g id="Artboard"><rect id="Page" width="1000" height="988" fill="#fff"/></g><g id="Text"><path d="M69.678,89.985v.958H55.131v-.958l4.571-.277c.031-2.131.062-4.324.062-6.424v-13l-3.8.278V69.386l8.864-2.223.432.339-.154,5.59V83.284c0,2.1.031,4.293.062,6.424Z" fill="#000000"/><path d="M89.2,67.718v2.594L80.548,90.943h-5l-.309-.278,11.273-18.53H72.673V67.718Z" fill="#000000"/><path d="M92.53,88.5a2.965,2.965,0,1,1,5.93,0,2.966,2.966,0,0,1-5.93,0Z" fill="#000000"/><path d="M105.563,78a12.434,12.434,0,0,1,5.034-1.019c6.3,0,8.462,3.182,8.462,6.949,0,4.262-3.274,7.567-9.883,7.567-4.354,0-7.165-2.008-7.381-5.528a2.272,2.272,0,0,1,2.131-1.513c1.39,0,2.255.8,2.409,2.686l.309,2.9a6.2,6.2,0,0,0,2.069.278c2.625,0,4.663-2.161,4.663-6.146,0-3.242-1.636-5.25-4.694-5.25a9.277,9.277,0,0,0-4.046.772l-.71-.525.679-11.458h13.62v4.293H105.964Z" fill="#000000"/><path d="M132.307,88.905a5.045,5.045,0,0,1-4.849,2.563c-3.15,0-4.849-1.421-4.817-4.849,0-1.173.03-2.069.03-3.366V75.347h-2.5v-.989l2.748-.309,1.606-4.941h3.181l-.061,4.973h3.829v1.266h-3.829V87.021c0,1.667.8,2.378,2.038,2.378a3.07,3.07,0,0,0,2.1-.988Z" fill="#000000"/><path d="M153.646,89.985v.958H144.69v-.958l1.977-.185c.031-1.791.062-4.416.062-6.208V79.145c0-2.409-.9-3.273-2.255-3.273a5.466,5.466,0,0,0-3.459,1.668v6.052c0,1.73.031,4.417.062,6.239l1.791.154v.958h-8.925v-.958l2.038-.185c.031-1.822.062-4.478.062-6.208V67.78l-2.254-.216v-.8l6.825-1.328.432.278-.092,4.972v5.991c1.853-2.192,3.428-3.119,5.744-3.119,3,0,5.034,1.822,5.034,6.023v4.014c0,1.823.031,4.448.062,6.239Z" fill="#000000"/><path d="M175.141,69.077c-.062,3.181-.062,6.393-.062,9.667v1.328c0,3.15,0,6.362.062,9.512l3.15.309v1.05H166.678v-1.05l3.12-.309c.061-3.088.061-6.27.061-9.481V78.744c0-3.243,0-6.486-.061-9.667h-4.262l-1.545,5.405h-1.822l.124-6.609h20.383l.124,6.609h-1.792l-1.574-5.405Z" fill="#000000"/><path d="M182.583,82.419a8.756,8.756,0,1,1,17.511,0c0,5.528-3.521,9.049-8.772,9.049C186.042,91.468,182.583,87.854,182.583,82.419Zm12.167.062c0-5.405-1.2-7.845-3.428-7.845s-3.459,2.44-3.459,7.845c0,5.373,1.236,7.906,3.459,7.906S194.75,87.854,194.75,82.481Z" fill="#000000"/><path d="M221.649,90.047v.927l-6.794.4-.155-3.088a7.6,7.6,0,0,1-5.713,3.181c-3.089,0-5.034-1.668-4.972-6.362l.123-9.173-2.161-.432v-.834l6.856-.926.4.308-.185,5.034v6.486c0,2.471.957,3.243,2.439,3.243a4.59,4.59,0,0,0,3.181-1.482l.124-11.428-2.069-.4v-.679l6.7-1.081.4.308-.123,5.034v10.81Z" fill="#000000"/><path d="M243.174,89.985v.958h-8.956v-.958l1.976-.185c.031-1.791.062-4.416.062-6.208V79.145c0-2.409-.9-3.273-2.255-3.273a5.468,5.468,0,0,0-3.459,1.668v6.052c0,1.73.031,4.417.062,6.239l1.792.154v.958H223.47v-.958l2.039-.185c.031-1.822.061-4.478.061-6.208V67.78l-2.254-.216v-.8l6.825-1.328.432.278-.092,4.972v5.991c1.853-2.192,3.428-3.119,5.744-3.119,3,0,5.034,1.822,5.034,6.023v4.014c0,1.823.031,4.448.062,6.239Z" fill="#000000"/><path d="M244.9,82.419a8.756,8.756,0,1,1,17.511,0c0,5.528-3.521,9.049-8.771,9.049C248.362,91.468,244.9,87.854,244.9,82.419Zm12.168.062c0-5.405-1.205-7.845-3.428-7.845s-3.459,2.44-3.459,7.845c0,5.373,1.235,7.906,3.459,7.906S257.071,87.854,257.071,82.481Z" fill="#000000"/><path d="M283.506,90.047v.927l-6.794.4-.154-3.088a7.6,7.6,0,0,1-5.714,3.181c-3.089,0-5.034-1.668-4.972-6.362L266,75.933l-2.162-.432v-.834l6.856-.926.4.308-.185,5.034v6.486c0,2.471.957,3.243,2.44,3.243a4.589,4.589,0,0,0,3.18-1.482L276.65,75.9l-2.069-.4v-.679l6.7-1.081.4.308-.123,5.034v10.81Z" fill="#000000"/><path d="M301.51,81.708c0,2.317,0,5.065.062,7.845l3.3.34v1.05H293.418v-1.05l2.78-.278c.093-3.119.093-6.3.093-9.512V78.744c0-3.212,0-6.393-.093-9.574l-2.78-.247v-1.05h9.42c7.011,0,9.821,2.5,9.821,6.856,0,3.86-2.625,6.979-9.975,6.979Zm.062-12.662c-.062,3.181-.062,6.424-.062,9.7v1.822h1.019c3.583,0,5.312-2.409,5.312-5.868,0-3.737-1.791-5.652-5.065-5.652Z" fill="#000000"/><path d="M321.738,78.312c.926-3.151,3.026-4.757,4.879-4.757a2.705,2.705,0,0,1,3,2.44c-.124,1.359-.741,2.5-2.285,2.5-1.174,0-1.915-.742-2.749-1.853l-.278-.371a8.865,8.865,0,0,0-2.563,4.756v2.563c0,1.7.031,4.293.061,6.116l2.842.277v.958H314.6v-.958l2.1-.216c.03-1.791.062-4.447.062-6.177V81.029c0-2.007-.032-3.027-.093-4.509l-2.317-.247v-.741l6.7-1.946.433.309Z" fill="#000000"/><path d="M330.137,82.419a8.756,8.756,0,1,1,17.511,0c0,5.528-3.521,9.049-8.771,9.049C333.6,91.468,330.137,87.854,330.137,82.419Zm12.168.062c0-5.405-1.2-7.845-3.428-7.845s-3.459,2.44-3.459,7.845c0,5.373,1.235,7.906,3.459,7.906S342.305,87.854,342.305,82.481Z" fill="#000000"/><path d="M357.221,73.9l-.093,4.941v9.852c0,4.695-.556,6.548-2.192,8.277a6.83,6.83,0,0,1-5.312,2.347c-2.657,0-3.923-1.019-4.448-2.1a2.626,2.626,0,0,1,2.625-2.347,3.011,3.011,0,0,1,2.9,1.884l.587,1.173a2.578,2.578,0,0,0,.525-.957c.556-1.606.34-5.188.34-9.08V81.276c0-2.007-.031-3.4-.124-4.849l-2.254-.247v-.741l7.072-1.853ZM351.878,68a2.661,2.661,0,1,1,2.656,2.5A2.535,2.535,0,0,1,351.878,68Z" fill="#000000"/><path d="M376.584,87.3a7.257,7.257,0,0,1-6.887,4.17c-5.1,0-8.864-3.243-8.864-9.018a8.587,8.587,0,0,1,8.833-8.895c4.633,0,7.134,3.119,7.134,7.042a6.933,6.933,0,0,1-.185,1.884h-10.5c.155,4.817,2.471,6.794,5.374,6.794A5.14,5.14,0,0,0,376,86.928Zm-6.27-5.929c1.452,0,1.823-.71,1.823-2.625,0-2.687-1.174-4.108-2.811-4.108-1.7,0-3.088,1.915-3.212,6.7Z" fill="#000000"/><path d="M389.8,74.7c-.309-.031-.587-.062-.865-.062-2.749,0-4.756,2.687-4.756,7.412,0,4.6,2.255,7.227,5.559,7.227a5.186,5.186,0,0,0,4.231-2.192l.618.4a7.431,7.431,0,0,1-7.042,3.984c-4.694,0-8.616-3.181-8.616-8.926s4.2-8.987,9.357-8.987c3.49,0,5.961,2.131,6.362,4.911a1.959,1.959,0,0,1-2.038,1.637c-1.3,0-2.378-.742-2.5-3.027Z" fill="#000000"/><path d="M408.3,88.905a5.043,5.043,0,0,1-4.849,2.563c-3.15,0-4.848-1.421-4.817-4.849,0-1.173.031-2.069.031-3.366V75.347h-2.5v-.989l2.749-.309,1.606-4.941h3.18l-.061,4.973h3.829v1.266h-3.829V87.021c0,1.667.8,2.378,2.038,2.378a3.07,3.07,0,0,0,2.1-.988Z" fill="#000000"/><path d="M647.625,835.169a8.182,8.182,0,0,0-6.062,2.468l-.517-.427c2.619-3.776,5.452-4.843,8.224-4.843a14.888,14.888,0,0,1,6.273,1.98c2.346,1.218,4.447,2.163,6.4,2.163a8.358,8.358,0,0,0,6.091-2.559l.488.457c-2.5,3.777-5.452,4.9-8.223,4.9a14.884,14.884,0,0,1-6.274-1.98C651.676,836.113,649.574,835.169,647.625,835.169Z" fill="#000000"/><path d="M712.993,829.565c-.152.3-.457.488-1.219.4a54.02,54.02,0,0,1-7.674,5.025,20.054,20.054,0,0,0,9.289,7.98l-.153.336a5.31,5.31,0,0,0-3.776,3.989c-4.568-4.051-7.157-8.894-8.376-18.913V845.22c0,3.015-.7,4.63-5.726,5.055a5.359,5.359,0,0,0-.944-3.167,4.843,4.843,0,0,0-3.167-1.492v-.4s3.838.244,4.629.244c.519,0,.7-.183.7-.549V831.941c-.152.031-.366.061-.609.091-1.4,6.061-4.569,11.94-11.6,15.32l-.244-.3c4.294-3.838,6.518-9.868,7.37-15.655h-6.3l-.275-.853h6.335l2.132-2.224,3.2,2.711v-9.593l5.573.547c-.06.427-.274.7-1.066.823v3.563a25.038,25.038,0,0,0,2.559,7.767,56.3,56.3,0,0,0,4.416-7.767Z" fill="#000000"/><path d="M717.263,828.9c9.168.152,6.183,7.279,2.436,4.933a10.884,10.884,0,0,0-2.649-4.751Zm10.6-2.772c-1.4,3.929-3.746,11.147-4.233,12.943a11.952,11.952,0,0,0-.549,3.138c.062,1.735,1.492,2.589,1.432,5.3a2.855,2.855,0,0,1-3.076,2.741,2.037,2.037,0,0,1-2.072-1.584c.64-3.167.519-6.091-.243-6.578a3.208,3.208,0,0,0-1.675-.518v-.548h1.462c.518,0,.67,0,1.035-.639.853-1.249.853-1.249,7.493-14.376Zm-8.132-4.051c9.5.031,6.791,7.31,2.863,5.116a14.111,14.111,0,0,0-3.076-4.933Zm24.7,14.68c-.214.365-.518.487-1.28.579a20.012,20.012,0,0,1-4.385,6.365,36.266,36.266,0,0,0,7.827,1.919l-.031.365c-2.01.457-3.32,1.98-3.928,4.264a22.14,22.14,0,0,1-7.157-3.929,29.7,29.7,0,0,1-11.361,3.991l-.152-.335a25.223,25.223,0,0,0,9.472-5.879,20.361,20.361,0,0,1-3.351-7.675h-2.71l-.274-.853h10.842l2.467-2.345h-.731c-2.832,0-3.167-.791-3.167-3.35v-5.543h-3.076v2.162c0,2.65-.762,6.7-7.554,8.772l-.152-.275c3.137-2.5,3.5-5.786,3.5-8.5v-4.66l4.813,1.645h2.1l2.01-2.162,3.472,2.8a1.32,1.32,0,0,1-.943.488v4.233c0,.335.09.427.456.427h1.493c.243,0,.365-.061.548-.335a24.5,24.5,0,0,0,1.4-3.32h.305l.091,3.472a1.573,1.573,0,0,1,1.066,1.675c0,1.584-1.462,2.467-4.691,2.467h-.883Zm-13.859-.335a12.655,12.655,0,0,0,4.691,5.513,19.793,19.793,0,0,0,2.863-5.513Z" fill="#000000"/><path d="M753.36,824.327v-.4a5.974,5.974,0,0,1,2.589-.792c2.375,0,5.7,2.62,5.7,4.081,0,.974-.945,1.584-1.341,3.2a46.231,46.231,0,0,0-1.431,9.929c0,3.258.822,4.507,4.568,4.507,4.021,0,8.863-2.466,11.878-5.877l.457.335c-1.858,5.085-6.365,9.806-13.066,9.806-4.386,0-7.248-2.345-7.248-8.284,0-4.172.578-9.837.578-12.4,0-1.674-.122-2.344-.7-2.923A4.809,4.809,0,0,0,753.36,824.327Z" fill="#000000"/><path d="M787.233,823.048a6.253,6.253,0,0,1,2.8-.7c2.254,0,4.234,1.066,4.234,1.98s-.67,1.4-1.493,3.959a14.466,14.466,0,0,0,2.8-1.218,5.936,5.936,0,0,1,1.524-.823c.882,0,2.71.488,2.71,1.981,0,1-.823,1.614-3.594,2.557-.975.335-2.71.823-4.477,1.219-.335,1.187-.7,2.5-1.1,3.746a107.055,107.055,0,0,1-3.991,11.086c-.608,1.219-1.127,2.041-2.5,2.041-1.157,0-2.041-1.249-2.041-2.771,0-1.554,1.006-2.072,2.041-3.838a42.653,42.653,0,0,0,3.533-7.828c.183-.517.366-1.157.548-1.827a17.05,17.05,0,0,1-1.979.153c-2.589,0-3.959-.519-4.934-4.386l.3-.214a6.109,6.109,0,0,0,3.747,1.4A17.416,17.416,0,0,0,789,829.23a25.878,25.878,0,0,0,.487-3.289,1.548,1.548,0,0,0-.517-1.523,4.857,4.857,0,0,0-1.737-1.035ZM793.69,839.8a5.99,5.99,0,0,0,.914,2.649c1.249,1.767,2.985,2.224,5.36,2.224a19.23,19.23,0,0,0,4.2-.579c1.462,0,3.2.639,3.2,2.284,0,.884-.731,1.523-2.132,1.858a18.054,18.054,0,0,1-4.507.457c-5.239,0-7.858-2.315-7.858-6.091a11.474,11.474,0,0,1,.456-2.8Zm.853-5.33a11.907,11.907,0,0,1,7.035-2.437,7.118,7.118,0,0,1,3.838.914,2.618,2.618,0,0,1,1.4,2.193c0,.974-.609,1.614-2.254,1.614-.518,0-1.279.03-2.071.092a18.018,18.018,0,0,0-3.9.67l-.213-.3a16.87,16.87,0,0,0,2.4-2.041c.122-.152.092-.3-.152-.4a9.092,9.092,0,0,0-2.588-.335,25.146,25.146,0,0,0-3.351.335Z" fill="#000000"/><path d="M813.371,828.865c8.894.4,5.574,7.248,1.949,4.751a9.489,9.489,0,0,0-2.162-4.6Zm9.32-2.1c-1.066,3.715-2.863,10.6-3.228,12.365a13.24,13.24,0,0,0-.427,3.015c.062,1.766,1.524,2.65,1.432,5.421a2.819,2.819,0,0,1-3.015,2.742,2.008,2.008,0,0,1-2.041-1.584c.64-3.137.548-6.153-.213-6.67a3.16,3.16,0,0,0-1.614-.488v-.548h1.4c.488,0,.64,0,.975-.639.731-1.189.731-1.189,6.274-13.736Zm-7.1-4.721c9.259-.122,6.517,7.035,2.649,4.873a12.384,12.384,0,0,0-2.862-4.69Zm25.8,23.056a1.645,1.645,0,0,1,1.187,1.7c0,1.706-1.492,2.558-5.634,2.558h-2.254c-3.076,0-3.715-.792-3.715-3.5V839.4c-1.676,4.142-4.751,7.918-10.448,10.934l-.335-.4c6.945-6.335,8.285-13.583,8.529-21.257h-2.467c.913,7.37-6.762,5.786-3.868,1.674a9.1,9.1,0,0,0,2.8-4.812h.305a16.129,16.129,0,0,1,.61,2.284h2.649c.03-2.07.03-4.172.03-6.3l5.483.519c-.061.456-.335.73-1.127.853-.031,1.644-.061,3.289-.122,4.933h3.99l1.979-1.949,3.381,3.228c-.244.275-.548.335-1.187.4-1.189,1-3.168,2.588-4.508,3.472l-.275-.153c.245-1.066.58-2.832.792-4.141h-4.2c-.09,1.461-.182,2.923-.395,4.384l3.594.3c-.031.4-.3.7-.975.792v10.568c0,.427.122.58.73.58h1.524c.517,0,.944,0,1.218-.031.335,0,.487-.092.7-.457a34.848,34.848,0,0,0,1.583-4.66h.3Z" fill="#000000"/><path d="M855.347,839.494c0,.213-1.248,1.035-3.229,1.035h-.73v-5.3a19.146,19.146,0,0,1-5.117,4.082l-.274-.366a19.3,19.3,0,0,0,4.233-9.35h-3.837l-.244-.853h5.239v-3.076c-1.706.092-3.473.122-5.148.092l-.06-.4a44.228,44.228,0,0,0,10.05-4.05l3.777,3.715a2.137,2.137,0,0,1-2.071-.06c-.761.152-1.645.273-2.589.365v3.411h.274l1.767-2.376s1.217,1,2.344,1.98a1.748,1.748,0,0,1,.245-.121,3.339,3.339,0,0,0,1.857-2.651h.4c1.371,3.259.7,5.665-.7,6.487a2.135,2.135,0,0,1-3.045-1.157,2.108,2.108,0,0,1,.061-1.309h-3.2v1.614c8.162.822,4.447,6.944,1.249,4.355a7.76,7.76,0,0,0-1.249-3.837Zm-3.868,2.071c1.523,3.869.091,6.548-1.858,7.218a2.246,2.246,0,1,1-1.37-4.233c1.31-.365,2.8-1.462,2.862-2.985Zm15.715,4.172c1.158.427,1.432.914,1.432,1.676,0,1.705-1.584,2.406-7.188,2.406h-3.472c-3.594,0-4.386-.639-4.386-3.32v-5.3l5.178.365c-.061.426-.335.67-.945.762v3.289c0,.365.092.457,1.006.457h3.137c.914,0,1.889,0,2.345-.031a1.118,1.118,0,0,0,.944-.365,13.175,13.175,0,0,0,1.554-2.924h.305Zm8.1-17.908c-.183.244-.609.4-1.218.152a43.507,43.507,0,0,1-4.63,3.046,9.067,9.067,0,0,0,5.726,4.934v.366c-2.01.548-3.167,2.04-3.411,4.6-2.467-1.767-3.472-5.7-3.929-10.934-.67,4.994-2.924,8.07-11.3,9.959l-.214-.4c8.194-3.472,7.492-8.467,7.492-17.817l5.361.457c-.061.456-.4.731-1.035.823,0,.913-.031,1.766-.031,2.588a18.892,18.892,0,0,0,.913,4.386c.854-1.888,1.8-4.2,2.194-5.422Zm-17.208,11.848c9.472-.243,7.1,7.127,3.228,5.086a12.269,12.269,0,0,0-3.441-4.9Zm8.863,1.736c11.026,1.1,8.01,9.472,3.777,6.762a15.529,15.529,0,0,0-3.991-6.579Z" fill="#000000"/><path d="M906.915,844.7c1.311.487,1.736,1,1.736,1.767,0,2.01-1.766,2.771-8.649,2.771h-3.99c-4.051,0-5.6-.639-5.6-4.051V833.707l-2.589.914-.548-.7,3.137-1.127v-.944a.95.95,0,0,1-.3.03h-3.412v8.681c1.158-.367,2.345-.762,3.472-1.189l.092.244a67.06,67.06,0,0,1-8.194,6.975,1.418,1.418,0,0,1-.822.944l-2.07-4.843c.792-.182,2.01-.487,3.411-.883V831.88h-2.65l-.243-.853h2.893v-8.893l5.238.457c-.06.427-.274.73-1.127.883v7.1l1.4-2.527s1.34,1.462,2.314,2.71v-6.67l5.3.549c-.061.4-.335.73-1.1.852V831.3l1.919-.7v-9.077l5.147.488c-.061.426-.274.731-1.1.853v6.3l1.614-.578.275-.092h-.031l2.1-1.979,3.533,2.954a1.881,1.881,0,0,1-1.188.548c-.091,8.132-.3,9.929-1.736,11.056a5.288,5.288,0,0,1-3.5,1.066,6.909,6.909,0,0,0-.3-2.741,2.356,2.356,0,0,0-.762-.883v3.99c0,.365-1.766,1.218-3.319,1.218h-.731V831.515l-1.919.7V844c0,.883.488,1.157,1.888,1.157h3.9c1.219,0,2.316-.03,2.956-.092a1.9,1.9,0,0,0,1.248-.456,19.445,19.445,0,0,0,1.888-4.02h.3Zm-6.335-14.619v7.857h.854a.877.877,0,0,0,.7-.243c.457-.457.579-2.528.639-8.406Z" fill="#000000"/><path d="M922.059,823.565c-.121.3-.426.518-1.158.457a28.892,28.892,0,0,1-2.527,3.564c1.645,2.984,2.1,6.426,2.223,10.324.152,4.173-.153,8.528-1.615,10.782-.7,1.1-2.04,1.523-3.989,1.523a5.42,5.42,0,0,0-.457-2.741,3.306,3.306,0,0,0-1.644-1v-.4s1.644.153,2.466.153a.807.807,0,0,0,.823-.367c.7-1.157.883-4.538.883-8.009v-.122a28.8,28.8,0,0,1-4.355,3.685l-.244-.244a28.343,28.343,0,0,0,4.2-9.654,15.3,15.3,0,0,0-.3-1.706,21.859,21.859,0,0,1-3.411,2.833l-.3-.275a28.5,28.5,0,0,0,2.894-5.33,16.4,16.4,0,0,0-2.467-4.354l.335-.245a16.371,16.371,0,0,1,2.985,2.467,33.85,33.85,0,0,0,1.066-3.533Zm6.274,1.858s1.949,1.614,3.076,2.711c-.06.335-.4.487-.822.487h-9.776l-.245-.852h6.061Zm8.649,6.122c.4,6.427,1.919,11.117,5.483,13.644v.366c-1.98.549-3.137,2.193-3.442,4.812-1.553-2.68-2.163-8.376-2.376-14.406-.639,6.122-2.5,10.843-8.04,14.376l-.335-.4a16.107,16.107,0,0,0,1.8-2.8,5.232,5.232,0,0,1-2.771.944h-.64v-1.736H925.2v1.279c0,.244-1.1,1.035-2.924,1.035h-.639V837.605l3.989,1.494h.732l1.674-1.737,3.351,2.528a2.029,2.029,0,0,1-1.1.579v6.274c2.072-4.233,2.528-9.2,2.619-15.2h-2.558l-.243-.853h2.8c.031-2.833-.03-5.878-.03-9.168l5.3.457c-.092.518-.427.792-1.127.884-.031,2.8-.031,5.391-.092,7.827h.183l1.706-2.345s1.918,1.614,3.045,2.711c-.091.335-.4.487-.823.487Zm-9.411-2.284s1.859,1.522,2.924,2.589c-.06.335-.365.487-.792.487H922l-.244-.853h4.2Zm0,3.716s1.859,1.522,2.924,2.588c-.06.335-.365.488-.792.488H922l-.244-.853h4.2Zm-5.7-8.924h3.9l1.676-2.254s1.858,1.554,2.954,2.619c-.061.335-.366.487-.792.487H922.12Zm4.782,21.441v-5.543H925.2v5.543Zm10.873-22.141c7.4,1.187,4.112,6.822,1.248,4.416a7.026,7.026,0,0,0-1.522-4.234Z" fill="#000000"/><path d="M253.2,939.366a10.036,10.036,0,0,1-5.258,1.367c-5.119,0-9.218-3.011-9.218-9.127,0-6.183,4.377-9.1,9.4-9.1a9.41,9.41,0,0,1,4.911,1.32l-.093,4.216h-1.366l-1.274-4.425a5.746,5.746,0,0,0-1.691-.231c-3.243,0-5.791,2.548-5.791,8.246,0,5.722,2.525,8.2,5.883,8.2a5.189,5.189,0,0,0,1.808-.3l1.227-4.331h1.366Z" fill="#000000"/><path d="M254.523,933.877a6.567,6.567,0,1,1,13.134,0c0,4.146-2.64,6.786-6.578,6.786C257.118,940.663,254.523,937.953,254.523,933.877Zm9.127.046c0-4.053-.9-5.883-2.571-5.883s-2.6,1.83-2.6,5.883c0,4.03.927,5.93,2.6,5.93S263.65,937.953,263.65,933.923Z" fill="#000000"/><path d="M273.911,928.966a5.159,5.159,0,0,1,3.984-1.737c2.825,0,5.072,2.363,5.072,6.648,0,4.216-2.571,6.786-5.629,6.786a4.289,4.289,0,0,1-3.4-1.6v1.367c0,1.389.023,3.15.046,4.957l1.784.209v.671h-7.112V945.6l1.553-.162c.023-1.831.046-3.591.046-5v-7.575c0-1.5-.023-2.293-.07-3.4l-1.714-.185v-.556l4.957-1.46.325.231Zm.092,9.473a2.793,2.793,0,0,0,1.923.58c1.806,0,3.08-1.25,3.08-5.119,0-3.776-1.111-5.073-2.942-5.073a2.722,2.722,0,0,0-2.061.811Z" fill="#000000"/><path d="M296.887,928.317l-1.552.209-5,13.319c-1.367,3.613-3.4,4.7-4.818,4.7-1.3,0-2.524-.765-2.571-1.807a1.862,1.862,0,0,1,1.992-1.482,2.752,2.752,0,0,1,2.177,1.273l.371.488a8.517,8.517,0,0,0,2.2-3.5l-5.49-13.064-1.343-.14v-.694h7.064v.694l-1.691.186,3.151,8.756,2.849-8.709-2.108-.233v-.694h4.771Z" fill="#000000"/><path d="M302.422,930.8c.695-2.362,2.27-3.567,3.66-3.567a2.029,2.029,0,0,1,2.247,1.83c-.093,1.019-.556,1.877-1.714,1.877-.88,0-1.436-.557-2.062-1.391l-.208-.277a6.643,6.643,0,0,0-1.923,3.567v1.922c0,1.274.023,3.22.047,4.586l2.131.209v.718h-7.528v-.718l1.575-.162c.023-1.344.046-3.336.046-4.633v-1.922c0-1.506-.023-2.271-.069-3.382l-1.737-.185v-.556l5.026-1.46.324.231Z" fill="#000000"/><path d="M315.578,939.552v.718h-6.764v-.718l1.529-.139c.023-1.367.047-3.359.047-4.656V932.9c0-1.482-.024-2.34-.07-3.521l-1.737-.185v-.556l5.3-1.39.324.231-.092,3.706v3.568c0,1.3.023,3.312.046,4.656Zm-5.4-16.492a2.008,2.008,0,1,1,1.992,1.876A1.915,1.915,0,0,1,310.181,923.06Z" fill="#000000"/><path d="M329.753,929.291l-2.8-.3a4.058,4.058,0,0,1,.787,2.526c0,2.431-1.737,4.354-5.35,4.354a7.235,7.235,0,0,1-2.826-.51,2.388,2.388,0,0,0-.394,1.321c0,.856.533,1.3,1.83,1.3H324.4c3.729,0,5.1,1.436,5.1,3.52,0,2.6-2.572,4.772-7.436,4.772-4.215,0-5.582-1.459-5.582-3.15,0-1.019.764-1.923,2.316-2.525a2.343,2.343,0,0,1-1.691-2.224c0-1.158.6-2.015,1.993-3.242a3.914,3.914,0,0,1-2.085-3.613c0-2.479,1.737-4.286,5.4-4.286a5.988,5.988,0,0,1,3.961,1.181l2.964-1.181.417.254Zm-7.759,11.789a9.414,9.414,0,0,1-2.757-.255,2.672,2.672,0,0,0-.579,1.784c0,1.691,1.274,2.641,3.382,2.641,3.058,0,4.54-.95,4.54-2.293a1.769,1.769,0,0,0-2.015-1.877Zm2.455-9.565c0-2.271-.764-3.591-2.038-3.591-1.3,0-2.038,1.344-2.038,3.591s.671,3.635,2.015,3.635C323.708,935.15,324.449,933.761,324.449,931.515Z" fill="#000000"/><path d="M345.179,939.552v.718h-6.718v-.718l1.483-.139c.023-1.344.046-3.312.046-4.656v-3.335c0-1.807-.672-2.456-1.691-2.456a4.105,4.105,0,0,0-2.594,1.251v4.54c0,1.3.023,3.312.046,4.679l1.344.116v.718H330.4v-.718l1.529-.139c.023-1.367.046-3.359.046-4.656V922.9l-1.691-.162v-.6l5.119-1,.324.208-.069,3.729v4.493c1.389-1.644,2.571-2.339,4.308-2.339,2.247,0,3.776,1.367,3.776,4.517v3.011c0,1.367.023,3.336.046,4.679Z" fill="#000000"/><path d="M354.7,938.741a3.781,3.781,0,0,1-3.636,1.922c-2.363,0-3.637-1.065-3.614-3.636,0-.881.024-1.552.024-2.525v-5.93H345.6v-.741l2.062-.231,1.2-3.706h2.386l-.046,3.729h2.872v.949H351.2v8.756c0,1.251.6,1.783,1.528,1.783a2.3,2.3,0,0,0,1.576-.741Z" fill="#000000"/><path d="M367.182,937.421v2.849h-11.6v-2.084c1.274-1.391,2.617-2.711,3.752-3.892,2.641-2.71,3.683-4.285,3.683-6.694,0-2.177-1.089-3.544-2.872-3.544a3.964,3.964,0,0,0-.881.092l-.509,2.293c-.255,1.576-1.02,1.947-1.737,1.947a1.624,1.624,0,0,1-1.506-.974c.208-2.686,2.826-4.145,5.93-4.145,3.66,0,5.351,1.921,5.351,4.54,0,2.408-1.97,4.516-6.393,7.412-.788.555-1.807,1.366-2.873,2.2Z" fill="#000000"/><path d="M380.963,931.978c0,6.045-2.849,8.685-6.045,8.685-3.22,0-6.022-2.64-6.022-8.685,0-6.069,2.8-8.709,6.022-8.709C378.114,923.269,380.963,925.909,380.963,931.978Zm-6.045,7.875c1.367,0,2.548-1.691,2.548-7.875,0-6.231-1.181-7.922-2.548-7.922s-2.5,1.668-2.5,7.922C372.417,938.186,373.551,939.853,374.918,939.853Z" fill="#000000"/><path d="M394.513,937.421v2.849h-11.6v-2.084c1.274-1.391,2.617-2.711,3.753-3.892,2.64-2.71,3.682-4.285,3.682-6.694,0-2.177-1.088-3.544-2.872-3.544a3.95,3.95,0,0,0-.88.092l-.509,2.293c-.255,1.576-1.02,1.947-1.738,1.947a1.622,1.622,0,0,1-1.5-.974c.208-2.686,2.826-4.145,5.93-4.145,3.659,0,5.35,1.921,5.35,4.54,0,2.408-1.969,4.516-6.393,7.412-.788.555-1.807,1.366-2.872,2.2Z" fill="#000000"/><path d="M407.483,939.552v.718H397.175v-.718l3.313-.417c.023-1.459.046-2.942.046-4.355V925.4l-2.733.255V924.8l6.277-1.436.347.254-.092,3.777v7.388c0,1.413.023,2.9.046,4.355Z" fill="#000000"/><path d="M415.172,942.285a23.383,23.383,0,0,0,7.412-4.888l3.567,2.456c-.232.254-.718.371-1.529.185a29.743,29.743,0,0,1-9.381,2.5Zm18.878-17.72s2.015,1.483,3.265,2.5c-.069.254-.347.371-.694.371H427.8v1.992h2.9l1.482-1.645,3.081,2.339a1.558,1.558,0,0,1-.926.487v6.578a6.3,6.3,0,0,1-2.827.718h-.579v-1.019h-9.241v.509c0,.325-1.483,1.042-2.872,1.042h-.487V928.086l3.544,1.344h2.64v-1.992H415.5l-.185-.649h5.93v-2.757h-4.425l-.185-.648h4.61v-2.918l4.146.324c-.047.324-.209.556-.857.648v1.946h3.15v-2.918l4.192.324c-.046.324-.185.556-.833.648v1.946h.579l1.691-2.084s1.9,1.389,3.057,2.362c-.07.255-.347.37-.672.37h-4.655v2.757h1.227Zm-12.369,5.513V932.7h2.825v-2.617Zm0,6.161h2.825v-2.895h-2.825Zm2.849-12.207v2.757h3.15v-2.757Zm2.64,14.061c13.805.231,8.292,6.092,5.536,3.752a12.61,12.61,0,0,0-5.605-3.5Zm.625-8.015V932.7h3.127v-2.617Zm3.127,6.161v-2.895H427.8v2.895Z" fill="#000000"/><path d="M456.215,924.194s1.784,1.368,2.872,2.294c-.069.254-.324.37-.648.37h-6.462a7.05,7.05,0,0,0,4.192,3.081c.417.116.672.07.857-.209a14.479,14.479,0,0,0,1.089-2.107l.231.046-.254,2.571c.81.7,1.065,1.251.695,1.969-.626,1.251-2.386,1-3.776.579l-.093-.023,1.367,1.019a1.426,1.426,0,0,1-.9.51v7.319a5.705,5.705,0,0,1-2.779.765h-.579V940.8h-7.459v.648c0,.324-1.436,1.042-2.8,1.042h-.487v-9.844l-1.413.463a1.033,1.033,0,0,1-.7.556l-1.621-3.566c.765-.024,1.946-.093,3.359-.186v-8.339l3.706,1.275a68.914,68.914,0,0,0,9.636-2.479l2.663,2.756c-.278.232-.834.232-1.575-.069-1.251.162-2.756.278-4.4.393a8.8,8.8,0,0,0,.695,2.757h3.011Zm-3.289,7.667a9.274,9.274,0,0,1-4.285-5h-4.447v2.849c1.691-.139,3.544-.277,5.42-.439l.023.277c-1.621.719-3.868,1.6-7.157,2.711l2.27.856h7.042Zm-4.516-5.651a12.179,12.179,0,0,1-.487-2.617c-1.251.046-2.5.093-3.729.093v2.524Zm3.613,7.551h-7.459v2.757h7.459Zm0,6.393v-2.988h-7.459v2.988Z" fill="#000000"/><path d="M463.743,924.982a63.97,63.97,0,0,0,8.5-.834c1.135-.254,1.413-.787,2.177-.787,1.274,0,4.031,2.455,4.031,3.381s-1.181,1.413-1.575,2.154a23.467,23.467,0,0,1-15.1,12.3l-.232-.417c6.162-3.289,10.956-9.5,11.929-14.407a.162.162,0,0,0-.162-.208,38.241,38.241,0,0,0-7.528,1.528c-.487.162-1.135.742-1.714.742-1.2,0-2.548-1.738-2.78-2.757a5.747,5.747,0,0,1-.092-1.76l.278-.116A3.368,3.368,0,0,0,463.743,924.982Z" fill="#000000"/><path d="M480.7,925.26a5.347,5.347,0,0,1,4.609,1.019,1.462,1.462,0,0,1,.324.371c2.155-.185,5.652-.556,6.648-.741,1.089-.185,1.413-1.112,2.178-1.112.949,0,3.891,2.27,3.891,3.474,0,.765-1.089,1.089-1.3,2.015-.3,1.413-.765,2.988-1.251,4.656.787.208,1.552.742,1.552,1.483a1.186,1.186,0,0,1-1.274,1.3c-.9,0-2.154-.232-3.567-.232-1.76,0-4.262.139-6.625.324v.232c0,.788-.324,1.575-1.343,1.575-.95,0-1.761-1.227-1.761-2.339,0-.672.116-1.274.116-2.015a70.141,70.141,0,0,0-.741-7.6c-.162-.834-.51-1.2-1.552-2.131Zm12.068,9.728a56.353,56.353,0,0,0,.857-6.717c0-.278-.093-.417-.371-.417a31.582,31.582,0,0,0-4.216.371,19.436,19.436,0,0,1-2.015.347,2.882,2.882,0,0,1-1.274-.439c.046,1.969.07,6,.093,7.527C487.808,935.452,490.61,935.15,492.765,934.988Z" fill="#000000"/><path d="M502.446,923.708c3.475.186,7.6,1.437,7.6,4.146a1.872,1.872,0,0,1-1.876,1.9,2.421,2.421,0,0,1-2.084-1.366,14.464,14.464,0,0,0-3.822-4.356Zm18.044,2.363.37.255a31.213,31.213,0,0,1-12.229,12.716c-.9.556-1.2,1.413-1.969,1.413a5.014,5.014,0,0,1-3.753-2.548,5.869,5.869,0,0,1-.51-2.432l.3-.185c.463.439,1.32,1.39,2.224,1.39C507.773,936.68,517.154,930.286,520.49,926.071Z" fill="#000000"/><path d="M521.879,928.062a2.7,2.7,0,0,0,1.852.858c1.552,0,8.826-1.089,11.373-1.413a13.186,13.186,0,0,0,2.248-.486c1.737,0,3.4.879,3.4,1.968,0,.95-.441,1.135-1.136,1.135-.579,0-1.9-.3-3.335-.3-1,0-2.247.093-3.544.209.973.6,1.529,1.112,1.529,1.691,0,.648-.625.972-1.3,2.339a15.726,15.726,0,0,1-9.126,7.852l-.279-.37c4.772-3.382,6.787-8.408,6.787-10.517a2.538,2.538,0,0,0-.116-.694,30.746,30.746,0,0,0-3.52.856,9.193,9.193,0,0,1-2.525.765,3.365,3.365,0,0,1-2.409-2.061,3.92,3.92,0,0,1-.139-1.738Zm3.058-5.118a4.974,4.974,0,0,0,2.663.556,16.85,16.85,0,0,0,4.563-.788c1.042-.324,1.39-.6,1.645-.6,1.806,0,2.895.556,2.895,1.645,0,.532-.209.88-.95,1.065a42.274,42.274,0,0,1-7.759,1.112c-1.6,0-2.386-.95-3.243-2.826Z" fill="#000000"/><path d="M547.265,926.3a5.04,5.04,0,0,1,1.945.046c1.2.324,2.5,1.482,2.5,2.27,0,.672-.533.672-1.02,1.135-.579.579-1.435,1.459-2.409,2.362.672.464,1.158.858,1.158,1.275,0,.37-.162.741-.184,1.32-.07,2.2.115,4.562.115,5.351a1.415,1.415,0,0,1-1.366,1.551c-1.2,0-1.737-.95-1.737-2.107,0-.348.092-.812.162-1.367a27.931,27.931,0,0,0,.255-4.123,3.829,3.829,0,0,0-.047-.533,22.528,22.528,0,0,1-7.342,3.822l-.162-.278c3.844-2.294,9.079-7.9,9.079-9.5,0-.347-.6-.764-1-.972Z" fill="#000000"/><path d="M555.672,923.407c.741.741,1.065.927,1.83.927,2.455,0,9.241-.811,11.048-1.065,1.019-.14,1.46-.626,2.108-.626,1.02,0,3.659,2.478,3.659,3.636,0,.95-1.459,1.02-2.038,1.3-1.042.51-2.71,1.3-4.54,2.062a.782.782,0,0,1-.022.6,20.257,20.257,0,0,1-11.189,11.4l-.277-.348c4.424-3.2,7.574-9.311,7.574-10.841,0-.741-.741-1.2-1.691-1.644l.023-.278a4.584,4.584,0,0,1,1.692-.324,6.808,6.808,0,0,1,2.894.625,10.937,10.937,0,0,0,2.526-3.2c.231-.486.069-.6-.372-.6a66.817,66.817,0,0,0-8.454,1.83c-.9.279-1.366,1.02-2.154,1.02-1,0-2.432-1.344-2.8-2.433a4.086,4.086,0,0,1-.092-1.945Z" fill="#000000"/><path d="M590.925,930.032a14.557,14.557,0,0,1-2.826,5.559c1.181,1.227,2.223,2.293,3.706,3.775l.741.093v.811a10,10,0,0,1-2.641.347,5.467,5.467,0,0,1-3.914-1.3c-.347-.3-.672-.6-1-.926a5.888,5.888,0,0,1-4.7,2.269c-3.637,0-5.374-2.153-5.374-4.609,0-1.9,1.136-3.474,4.216-4.725l-.37-.417a6.791,6.791,0,0,1-1.53-4.077c0-2.617,1.993-4.238,5.1-4.238,2.988,0,4.656,1.343,4.656,3.358,0,1.807-1.274,3.058-3.961,4.123.487.556,1.135,1.228,1.993,2.178,1.018,1.135,1.852,2.038,2.593,2.825a14.484,14.484,0,0,0,1.437-5.049l-2.178-.185v-.742h6.046v.742Zm-6.37,7.9c-.95-1.02-1.784-2.085-2.525-2.989-1.227-1.5-1.968-2.478-2.548-3.173a5.108,5.108,0,0,0-.857,2.849,3.58,3.58,0,0,0,3.776,3.845A4.2,4.2,0,0,0,584.555,937.931Zm-4.031-12.439a4.659,4.659,0,0,0,.951,2.71,13.473,13.473,0,0,0,1.134,1.413,6.316,6.316,0,0,0,1.39-3.961c0-1.506-.6-2.293-1.714-2.293C581.22,923.361,580.524,924.241,580.524,925.492Z" fill="#000000"/><path d="M612.164,938.093s2.178,1.644,3.5,2.756c-.069.255-.348.371-.7.371H593.8l-.185-.649h8.362V920.836l4.563.417c-.047.348-.209.579-.857.672v7.852h3.011l1.9-2.456s2.131,1.622,3.4,2.734c-.069.255-.324.371-.672.371h-7.643v10.145h4.54Z" fill="#000000"/><path d="M616.032,926.024c6.439.927,3.683,5.791,1.158,3.776a7.432,7.432,0,0,0-1.343-3.659Zm6.671-1.69c-.811,2.849-2.178,8.13-2.432,9.45a9.874,9.874,0,0,0-.325,2.293c.047,1.344,1.113,2.109,1.042,4.262a2.069,2.069,0,0,1-2.176,2.085,1.453,1.453,0,0,1-1.437-1.228c.486-2.478.395-4.818-.162-5.212a2.488,2.488,0,0,0-1.228-.393v-.417h1.043c.37,0,.463,0,.718-.486.51-.88.51-.88,4.586-10.447Zm-5.073-3.684c6.74.951,4.054,5.977,1.39,3.985a10.454,10.454,0,0,0-1.576-3.868Zm18.53,14.5s1.506,1.46,2.317,2.386c-.046.255-.3.371-.625.371H635.1c-.3,1.876-.718,2.918-1.344,3.521a4.465,4.465,0,0,1-3.4,1.019,2.637,2.637,0,0,0-.464-1.806,4.138,4.138,0,0,0-2.2-1.02v-.278c.972.07,2.385.163,2.919.163a1.136,1.136,0,0,0,.834-.278,2.528,2.528,0,0,0,.555-1.321H625.6c-.092.625-.208,1.2-.3,1.738-.718.417-1.483.509-3.2.138.44-2.154.879-4.655,1.273-7.088h-2.038l-.186-.648h2.317c.209-1.413.417-2.756.556-3.985a15.633,15.633,0,0,1-2.27,1.46l-.208-.162a25.212,25.212,0,0,0,3.659-8.918l4.332,1.483c-.116.3-.417.486-.974.463a15.887,15.887,0,0,1-1.065,1.853h5.768l1.529-2.131s1.76,1.436,2.779,2.409c-.069.254-.324.371-.672.371h-9.843a12.479,12.479,0,0,1-1.182,1.459l1.783.788h4.819l1.6-1.6,2.617,2.316a1.669,1.669,0,0,1-1.019.463c-.024,1.182-.07,2.271-.093,3.244l.857-1.39s1.321,1.3,2.015,2.154c-.046.255-.277.37-.6.37h-2.317q-.1,2.295-.278,3.892Zm-9.751-2.455c-.209,1.53-.464,3.127-.695,4.564h1.644c.209-1.251.441-2.9.626-4.564Zm.671-4.91c-.139,1.135-.347,2.641-.578,4.262h1.574c.162-1.506.324-3.034.441-4.262Zm5.05,9.474a39.99,39.99,0,0,0,.417-4.564h-1.668c-.162,1.668-.347,3.313-.509,4.564Zm-.811-9.474c-.092,1.251-.231,2.756-.37,4.262h1.645c.046-1.251.092-2.664.138-4.262Z" fill="#000000"/><path d="M639.842,923.407c.741.741,1.065.927,1.83.927,2.455,0,9.242-.811,11.049-1.065,1.019-.14,1.459-.626,2.107-.626,1.02,0,3.66,2.478,3.66,3.636,0,.95-1.459,1.02-2.038,1.3-1.043.51-2.71,1.3-4.54,2.062a.787.787,0,0,1-.023.6,20.255,20.255,0,0,1-11.188,11.4l-.278-.348c4.425-3.2,7.574-9.311,7.574-10.841,0-.741-.741-1.2-1.69-1.644l.023-.278a4.582,4.582,0,0,1,1.691-.324,6.809,6.809,0,0,1,2.895.625,10.893,10.893,0,0,0,2.524-3.2c.232-.486.07-.6-.37-.6a66.826,66.826,0,0,0-8.455,1.83c-.9.279-1.366,1.02-2.153,1.02-1,0-2.433-1.344-2.8-2.433a4.085,4.085,0,0,1-.093-1.945Z" fill="#000000"/><path d="M659.507,923.848V923.5a4.9,4.9,0,0,1,2.107-.672c1.113,0,3.614,1.32,3.614,2.293,0,.7-.6,1.089-.649,2.085-.069,1.019-.046,4.563-.046,6.462,0,1.391-.555,2.016-1.529,2.016-.9,0-1.829-1.367-1.829-2.989a15.937,15.937,0,0,0,.393-2.548c0-1.181,0-3.729-.139-4.724a1.141,1.141,0,0,0-.533-.858A7,7,0,0,0,659.507,923.848Zm2.9,18.135-.209-.37c4.332-2.409,6.718-5.42,7.112-9.914a60.456,60.456,0,0,0,.046-6.439c-.046-.625-.093-.833-.533-1.112a7.663,7.663,0,0,0-1.389-.625l-.024-.347a5.168,5.168,0,0,1,2.5-1.275c1.019,0,3.359,1.3,3.359,2.109,0,.648-.51.949-.556,1.644-.093,1.321-.232,4.61-.325,6C672.038,937.282,668.378,940.524,662.4,941.983Z" fill="#000000"/><path d="M679.681,924.148a3.044,3.044,0,0,0,2.131,1.3,43.424,43.424,0,0,0,6.6-.972c.625-.139,1.089-.95,1.645-.95,1.134,0,3.544,2.084,3.544,2.965,0,.764-1.275,1.2-1.53,1.552a53.5,53.5,0,0,1-3.265,4.54c3.775.949,7,3.011,7,5.859a1.835,1.835,0,0,1-1.783,1.831,2.623,2.623,0,0,1-2.34-1.807c-.834-1.76-1.506-3.567-3.636-5.1a26.451,26.451,0,0,1-12.114,7.274l-.233-.417c5.467-2.827,11.282-8.964,13.018-13.389.139-.37,0-.486-.255-.486a28,28,0,0,0-4.493,1.367c-.787.3-1.135.926-1.853.926-1.205,0-2.385-1.552-2.664-2.525a4.844,4.844,0,0,1-.093-1.83Z" fill="#000000"/><path d="M704.487,933.668c7.737,2.294,4.772,8.455,1.807,5.884a9.74,9.74,0,0,0-.394-2.27c-1.551.88-3.753,1.969-6.81,3.312a.95.95,0,0,1-.718.579l-1.482-3.845c.648-.046,1.668-.116,2.919-.209a74.465,74.465,0,0,0,4.631-11.164l4.147,1.691c-.116.278-.417.487-.973.416a57.184,57.184,0,0,1-6.856,8.965c1.459-.139,3.15-.3,4.91-.486a13.247,13.247,0,0,0-1.39-2.757Zm1.575-10.933c-.116.279-.44.464-.973.417a42.747,42.747,0,0,1-4.122,4.494c2.8,2.084.694,5.351-1.622,3.614a8.945,8.945,0,0,0-2.293-4.819l.185-.138a10.532,10.532,0,0,1,2.617.718c.58-1.807,1.275-4.077,1.831-6.023Zm13.18,1.251a1.706,1.706,0,0,1-1.089.487c-.278,11.673-.672,15.079-2.2,16.631a4.822,4.822,0,0,1-3.637,1.367,4.5,4.5,0,0,0-.393-2.364,3.1,3.1,0,0,0-1.923-1.18v-.255c.787.046,1.9.115,2.432.115a1.282,1.282,0,0,0,.88-.324c.973-.88,1.321-5.165,1.552-14.593h-8.315l-.209-.648h8.246l1.807-1.83Z" fill="#000000"/><path d="M732.7,935.267c2.038,1.528,5.582,2.455,8.709,2.71l-.022.278a3.882,3.882,0,0,0-2.526,3.173,11.1,11.1,0,0,1-6.833-6.069v6.324c0,.231-1.551.788-2.964.788h-.6v-4.795a25.645,25.645,0,0,1-9.08,4.053l-.139-.254a19.494,19.494,0,0,0,7.018-6.208h-6.717l-.186-.649h9.1v-2.293a4.206,4.206,0,0,1-1.344.255h-.371v-.95a1.41,1.41,0,0,1-2.548.579,8.059,8.059,0,0,0,0-1.506c-.694.557-1.621,1.275-2.848,2.178a.881.881,0,0,1-.625.556l-1.576-3.151c.533-.022,1.367-.069,2.386-.139.926-1.922,2.154-4.84,2.733-6.37l2.478,1.113v-2.6l2.317.927c.023-.811.046-1.946.023-2.756l3.451.417c-.069.393-.348.6-.857.648-.44.532-1.228,1.274-1.807,1.83h1.112l1.182-1.251,2.084,1.6a6.99,6.99,0,0,1,1.274.278c.3-1.181.6-2.686.765-3.5l3.381,1.575c-.092.232-.3.372-.9.3-.533.509-1.621,1.274-2.478,1.922a1.877,1.877,0,0,1,1.042,1.3c.3-.7.579-1.3.787-1.784l3.151,1.552c-.093.232-.348.371-.927.3-.579.672-1.459,1.575-2.408,2.5,5.7,1.622,2.825,5.93.625,3.846a6.451,6.451,0,0,0-.139-1.622q-.868.8-2.433,2.085a.882.882,0,0,1-.625.533l-1.482-2.85v1.275a4.024,4.024,0,0,1-2.247.718h-.463v-.858h-1.854v.464c0,.139-.324.37-.81.556l4.378.37c-.047.3-.209.557-.858.649v1.3H736.4l1.714-2.178s1.946,1.46,3.127,2.456c-.069.254-.324.371-.672.371Zm-6.74-13.458c-.069.232-.3.394-.9.347-.487.556-1.413,1.437-2.224,2.224,1.621,1.436-.371,3.591-2.107,2.154a5.128,5.128,0,0,0-1.02-3.081l.186-.115a6.6,6.6,0,0,1,1.991.486c.255-1.2.487-2.571.626-3.358Zm-1.876,8.13a7.572,7.572,0,0,0-.348-1.3c-.509.509-1.019,1-1.482,1.436C722.831,930.032,723.456,929.985,724.082,929.939Zm2.594-4.354c-.579.694-1.529,1.667-2.5,2.64,1.667.788,2.408,1.76,2.57,2.618v-5.258Zm2.64-1.575v2.918h1.854V924.01Zm1.854,6.624v-3.058h-1.854v3.058Zm2.71-.579c.324-.023.81-.046,1.343-.093.487-.926,1.019-2.038,1.506-3.1a1.612,1.612,0,0,1-2.039-.208,4.709,4.709,0,0,0-.648-2.385l-.162.046Zm3.845-1.714c-.556.533-1.112,1.065-1.645,1.552.672-.07,1.437-.139,2.178-.208A7.064,7.064,0,0,0,737.725,928.341Z" fill="#000000"/><path d="M763.226,923.014a1.577,1.577,0,0,1-.926.509v17.859a4.4,4.4,0,0,1-2.826,1.018h-.534v-1.991H745.761v.88c0,.417-1.321,1.228-2.733,1.228h-.556V920.929l3.567,1.413h12.67l1.552-1.714ZM758.94,939.76V928.248a.649.649,0,0,1-.486.162h-2.548v7.274c0,1.992-.486,3.057-3.868,3.358a3.21,3.21,0,0,0-.648-2.015,3.65,3.65,0,0,0-2.27-.95v-.324s2.8.185,3.335.185c.371,0,.486-.116.486-.417V928.41h-6.462l-.185-.648h6.647V924.01l3.776.324c-.046.348-.278.556-.811.625v2.757l1.135-1.83s1.182,1.158,1.9,2.014v-4.91H745.761v16.77Zm-11.349-10.7c6.509,1.691,3.265,6.625.764,4.239a8.107,8.107,0,0,0-.972-4.123Z" fill="#000000"/></g></svg>
