<svg xmlns="http://www.w3.org/2000/svg" width="1000" height="988" viewBox="0 0 1000 988"><g id="Artboard"><rect id="Tint" width="1000" height="988" fill="#58595b"/></g><g id="Outline"><path id="上海_アリス幻樂団" data-name="上海■アリス幻樂団" d="M944.259,930.725a4.832,4.832,0,0,0,1.085-2.372,6.1,6.1,0,0,0,.934-2.943,3.986,3.986,0,0,0-.644-2.4,6.51,6.51,0,0,0,.343-1.818,3.987,3.987,0,0,0-1.712-3.465,5.244,5.244,0,0,0,.707-.814,6.55,6.55,0,0,0,1.185-3.269,4,4,0,0,0-1.913-3.763,5.077,5.077,0,0,0,.069-.838,4.395,4.395,0,0,0-2.678-4.131,4.193,4.193,0,0,0-.476-.167,6.927,6.927,0,0,0-1.8-.219,4.659,4.659,0,0,0-1.923-2.049,5.609,5.609,0,0,0-2.825-.742,4.958,4.958,0,0,0-3.35,1.208,4.683,4.683,0,0,0-1.683,3.616l.025,2.427c-.318.044-.613.1-.912.151a4.632,4.632,0,0,0,.27-1.553,4.543,4.543,0,0,0-3.178-4.3,11.025,11.025,0,0,0-2.772-.495c-1.681-.133-3.738-.2-6.12-.2a27.106,27.106,0,0,0-3.486.221,5.446,5.446,0,0,0-1.168.294,4.874,4.874,0,0,0-1.97-.8c-.083-.014-.167-.026-.251-.036a37.372,37.372,0,0,0-3.825-.111,25.2,25.2,0,0,0-3.636.12,5.027,5.027,0,0,0-2.529-.639,6.135,6.135,0,0,0-4.137,1.937c-.02.018-.039.037-.058.056L893.2,906.21a5.14,5.14,0,0,0-1.887,3.761,4.251,4.251,0,0,0,.43,1.853,4.921,4.921,0,0,0-.367,1.844,4.475,4.475,0,0,0,3.142,4.278l-1.373,1.26a4.539,4.539,0,0,0-1.705,3.45,4.065,4.065,0,0,0,.184,1.2,4.405,4.405,0,0,0,.012,1.483,4.95,4.95,0,0,0-.133,1.145,4.461,4.461,0,0,0,1.454,3.265,4.65,4.65,0,0,0,1.091,2.138,4.455,4.455,0,0,0-2.084,3.715c0,.108,0,.216.013.324l.635,7.8c.007.082.016.165.028.246a4.353,4.353,0,0,0,4.325,3.877,5.958,5.958,0,0,0,1.2-.137c1.1-.091,2.673-.138,4.681-.138,2.5,0,3.819.065,4.5.123a8.747,8.747,0,0,0,1.127.094,4.3,4.3,0,0,0,2.87-1.076,5.008,5.008,0,0,0,1.855.353,9.882,9.882,0,0,0,5.284-1.69c.127.095.269.207.429.335l.042.033q.409.319.619.479a5.042,5.042,0,0,0,5.66.764,3.989,3.989,0,0,0,3.351,1.827H940.79a4,4,0,0,0,4-4V933.652a3.963,3.963,0,0,0-.928-2.533c.1-.1.211-.185.307-.291C944.2,930.794,944.23,930.76,944.259,930.725Zm-21.115,1.525a5.779,5.779,0,0,0-1.029-.3,7.595,7.595,0,0,0,2.349-1.883,4.809,4.809,0,0,0,.731,1.466,3.951,3.951,0,0,0-.574,1.639A4.88,4.88,0,0,0,923.144,932.25ZM911.18,931.6c.1-.117.194-.237.283-.363a4.757,4.757,0,0,0,1.053.936c-.108.041-.2.1-.309.145A4.327,4.327,0,0,0,911.18,931.6Zm13.357-14.122c-.054-.03-.1-.065-.157-.092l-.1-.047a5.813,5.813,0,0,0-2.5-.556,5.688,5.688,0,0,0-3.089.828c-.032-.02-.07-.034-.1-.054a9.3,9.3,0,0,0,2.1-1.441,7.328,7.328,0,0,0,1.246-1.433,5.028,5.028,0,0,0,1.3-.465c0,.03-.007.059-.007.09A4.617,4.617,0,0,0,924.537,917.474Z" fill="#fff"/></g><g id="Text"><g id="ようせいだいせんそう_妖精大戦争_東方三月精" data-name="ようせいだいせんそう 妖精大戦争 東方三月精"><g id="ようせいだいせんそう"><path d="M386.092,612.125h-2.079l-1.534-3.834a1.072,1.072,0,0,0-1.107-.716h-1.414v3a2.2,2.2,0,0,1-.427,1.4,1.357,1.357,0,0,1-1.124.546h-6.016a1.168,1.168,0,0,1-.835-.325,1.224,1.224,0,0,1-.324-.851V607.03a1.187,1.187,0,0,1,.324-.852,1.137,1.137,0,0,1,.835-.341h5.641v-8.418h1.926v3.271h5.811v1.79h-5.811v3.357h1.771a3.372,3.372,0,0,1,1.313.187,2.109,2.109,0,0,1,1.005,1.176Zm-8.06-4.55h-4.176a.686.686,0,0,0-.477.188.535.535,0,0,0-.221.443v1.942a.617.617,0,0,0,.221.5.723.723,0,0,0,.477.17h3.477a.837.837,0,0,0,.494-.17.64.64,0,0,0,.2-.5Z" fill="#000000"/><path d="M401.335,610.626a1.75,1.75,0,0,1-.477,1.3,1.787,1.787,0,0,1-1.3.46h-9.474v-1.738h8.18a.979.979,0,0,0,1.107-1.108v-4.959a.972.972,0,0,0-1.107-1.091H387.344v-1.738h12.218a1.783,1.783,0,0,1,1.3.461,1.691,1.691,0,0,1,.477,1.277Zm-.75-11.281H388.248V597.59h12.337Z" fill="#000000"/><path d="M503.986,612.518h-9.508a2.071,2.071,0,0,1-2.13-2.148v-7.31h-2.42V601.3h2.42v-3.886h1.977V601.3h6.084v-3.886h1.943V601.3h2.658v1.755h-2.658v3.271q0,1.824-1.756,1.824h-3.1l-.017-1.79h2.01q.921,0,.921-1.073V603.06h-6.084v6.424a1.231,1.231,0,0,0,.341.886,1.25,1.25,0,0,0,.92.375h8.4Z" fill="#000000"/><path d="M512.481,612.092h-3.595a2.5,2.5,0,0,1-1.874-.7,2.617,2.617,0,0,1-.665-1.909V598.271h1.96v10.446a1.514,1.514,0,0,0,.46,1.142,1.46,1.46,0,0,0,1.125.46h2.589Zm7.345-.018h-1.96V601.1a.964.964,0,0,0-1.09-1.091h-1.619v-1.738h2.931a1.766,1.766,0,0,1,1.278.46,1.727,1.727,0,0,1,.46,1.278Z" fill="#000000"/><path d="M623.208,597.419l-.478,2.3h4.176v1.738H622.39l-1.789,8.929a3.694,3.694,0,0,1-.7,1.772,2.573,2.573,0,0,1-1.636.375h-.937v-1.789a1.57,1.57,0,0,0,1.057-.29,2.049,2.049,0,0,0,.494-1.091l1.551-7.906h-3.1V599.72h3.459l.409-2.3Zm9,15.081h-6.834q-2.4,0-2.4-1.84,0-.495.323-2.726H625.2q-.273,1.686-.273,1.976a.717.717,0,0,0,.6.733,4.895,4.895,0,0,0,1.023.068h5.658Zm-.393-7.873H623.89v-1.789h7.923Zm-1.431-4.72-1.039.579-1.261-2.113.988-.579Zm1.994-.562-1.091.647-1.295-2.113,1.057-.528Z" fill="#000000"/><path d="M639.779,612.092h-3.6a2.5,2.5,0,0,1-1.874-.7,2.617,2.617,0,0,1-.665-1.909V598.271H635.6v10.446a1.517,1.517,0,0,0,.46,1.142,1.463,1.463,0,0,0,1.125.46h2.59Zm7.345-.018h-1.96V601.1a.964.964,0,0,0-1.09-1.091h-1.619v-1.738h2.931a1.766,1.766,0,0,1,1.278.46,1.727,1.727,0,0,1,.46,1.278Z" fill="#000000"/><path d="M749.857,612.518h-9.508a2.071,2.071,0,0,1-2.13-2.148v-7.31H735.8V601.3h2.42v-3.886H740.2V601.3h6.084v-3.886h1.943V601.3h2.658v1.755h-2.658v3.271q0,1.824-1.755,1.824h-3.1l-.017-1.79h2.011q.921,0,.92-1.073V603.06H740.2v6.424a1.235,1.235,0,0,0,.341.886,1.251,1.251,0,0,0,.92.375h8.4Z" fill="#000000"/><path d="M757.824,597.47l-1.482,5.88h2.351a1.857,1.857,0,0,1,2.2,2.214v4.193q0,.971.92.971h1.653a.859.859,0,0,0,.972-.971v-5.368h1.942v5.879a1.848,1.848,0,0,1-2.215,2.215h-3.017a1.847,1.847,0,0,1-2.214-2.215v-4.192q0-1.007-.955-1.006h-2.045l-1.329,5.249a3.859,3.859,0,0,1-.767,1.789,2.059,2.059,0,0,1-1.4.375h-.9v-1.738a1.173,1.173,0,0,0,.853-.307,2.033,2.033,0,0,0,.357-.869l3-12.1Z" fill="#000000"/><path d="M870.394,604.7h-6.97a1.458,1.458,0,0,0-1.023.393,5.365,5.365,0,0,0-.613.886q-.613,1.072-1.448,2.93a3.069,3.069,0,0,0-.324,1.091q0,.732,1.056.733h7.4V612.5h-7.907a6.5,6.5,0,0,1-1.909-.188,1.37,1.37,0,0,1-1-1.448,4.916,4.916,0,0,1,.7-2.317l2.113-3.852h-5.283v-1.67h6.834a1.4,1.4,0,0,0,1.244-.681l3.306-4.891h2.266l-3.783,5.572h5.351Zm-8.18-3.561h-1.84a3.419,3.419,0,0,1-1.466-.256,2.868,2.868,0,0,1-1.159-.988l-1.738-2.488h2.369l.988,1.346a1.9,1.9,0,0,0,1.67.7h1.176Z" fill="#000000"/><path d="M885.4,610.626a1.75,1.75,0,0,1-.477,1.3,1.785,1.785,0,0,1-1.3.46h-9.475v-1.738h8.18a.979.979,0,0,0,1.107-1.108v-4.959a.972.972,0,0,0-1.107-1.091H871.407v-1.738h12.219a1.781,1.781,0,0,1,1.3.461,1.691,1.691,0,0,1,.477,1.277Zm-.75-11.281H872.311V597.59h12.337Z" fill="#000000"/></g><path d="M339.022,619.435h11.25v9.375H366.8v-9.375h11.25v9.375H383.2v11.25h-5.157v37.617a13.392,13.392,0,0,1-1.054,4.8l-10.782,16.641,8.672,12.891a7.125,7.125,0,0,0,3.985,2.109H383.2V724.9h-9.961a7.491,7.491,0,0,1-6.446-3.047l-7.968-11.484-7.266,11.484a7.686,7.686,0,0,1-6.445,3.047h-11.25V714.122h5.625a7.132,7.132,0,0,0,3.984-2.109l7.969-12.422L340.077,683.3a11.9,11.9,0,0,1-1.055-4.688V640.06H333.4V628.81h5.625ZM366.8,640.06H350.272v33.75a14.035,14.035,0,0,0,1.875,4.57l6.562,9.726,6.329-10.078a12.412,12.412,0,0,0,1.757-4.57Zm63.75-21.094h11.719q-.469,9.26-3.281,13.008a8.836,8.836,0,0,1-7.5,3.4h-9.375V663.5H443.2v11.25H423.28l10.781,35.274q2.109,4.1,5.273,4.1h3.4V724.9H432.42q-6.8,0-9.961-11.015l-7.5-29.3-10.078,29.648Q401.718,724.9,394.8,724.9h-9.844V714.122h3.4q3.867,0,6.094-4.1l12.89-35.274H384.959V663.5h23.907V635.372H387.42V624.591H426.8Q429.372,624.591,430.545,618.966Z" fill="#000000"/><path d="M468.4,670.06,465.7,711.427q-.939,11.25-5.157,11.25h-7.968V713.3H454.8q1.639,0,2.11-6.094l2.109-37.148ZM502.264,653.3v3.281h22.851v-7.148H504.49V640.06h20.625V633.5H503.2v-9.375h21.914v-6.445h12.3v6.445h22.851V633.5H537.42v6.563h21.562v9.375H537.42v7.148h24.375v9.844H501.326v-2.461H483.045V726.9H472.264v-62.93H452.928V653.3h19.336V618.028h10.781V653.3Zm-48.4-32.344h9.843l1.524,11.484q.585,3.516,1.875,3.516h1.758v10.313h-6.914q-2.462,0-3.985-6.446Zm37.617.469h9.843l-4.57,18.515q-1.524,6.328-4.8,6.329h-5.625V635.958H488.2q1.054,0,1.523-3.4ZM486.8,670.06h9.375l2.227,40.312q.467,2.931,1.874,2.93h1.993v9.375h-7.148q-5.274,0-6.094-8.086Zm72.187,2.929v44.063q0,8.319-10.781,8.32H531.326v-8.32h13.945q2.462,0,2.461-1.992V711.9H517.264v15h-11.25V672.989Zm-41.718,16.289h30.468v-6.914H517.264Zm0,14.532h30.468v-6.446H517.264Z" fill="#000000"/><path d="M681.326,638.185v12.187H637.5l24.258,56.953q1.99,5.042,4.57,5.039H681.8v12.071H657.42q-3.635,0-6.211-5.86l-22.852-56.6-21.445,54.492q-3.635,7.967-8.2,7.969H573.865V712.364H589.8q3.867,0,8.32-11.133l19.8-50.859H574.334V638.185h46.523V618.966h14.414v19.219Z" fill="#000000"/><path d="M696.326,650.958h60.938V688.81q0,8.085-8.555,8.086h-15.82v8.32h28.125v10.43H732.889V726.9H721.17v-11.25H692.928v-10.43H721.17V696.9H696.326Zm-2.461-29.531h12.3l3.164,10.781q.585,2.7,2.93,2.7h2.226v9.844h-8.32q-5.51,0-7.149-5.625Zm13.711,47.695H721.17V660.8H707.576Zm13.594,16.524v-7.5H707.576v7.5Zm-6.211-64.219h12.305l2.695,10.781q.7,2.7,2.93,2.7h1.757v9.844H726.8q-5.51,0-7.149-5.625Zm17.93,39.375v8.32h13.125V660.8Zm9.843,24.844q3.281,0,3.282-2.813v-4.687H732.889v7.5Zm4.219-64.219h12.07L755.506,641q-.822,3.752-4.336,3.75h-15V634.9H743.2q1.054,0,1.289-1.757ZM801.8,642.052v10.312L780,653.536l3.984,40.2q5.039-1.287,5.039-3.515V660.8h9.961V696.9q0,5.625-10.781,7.148l-3.164.469.82,7.383q.468,3.164,2.344,3.164h13.125v9.375H782.107q-6.094,0-7.148-7.852l-.938-10.195-11.132,1.758-1.875-11.25,11.953-1.641L769.1,654.122l-8.555.469V644.278l7.617-.351-2.461-25.9h10.781l2.461,25.2ZM781.17,619.9h9.844l2.109,6.914a2.6,2.6,0,0,0,2.578,1.993h4.1V636.9h-9.258q-2.812,0-4.57-4.219Z" fill="#000000"/><path d="M834.959,618.5h15l-2.578,5.625H912.42v7.617l-13.945,17.7h16.171v21.211h9.024V681.9h-9.024v11.718q0,9.844-11.132,9.844H873.045v16.758q0,6.679-7.5,6.68h-27.3v-11.25H858.4q1.875,0,1.875-2.344v-9.844H819.959v-11.25h40.312V681.9h-45v-11.25h45V660.8H819.959V649.435h63.047l11.953-14.063H841.99l-1.172,2.578a10.177,10.177,0,0,1-9.961,6.328H817.264V633.146h7.851q3.281,0,4.8-3.516ZM873.045,660.8v9.844h29.062V660.8Zm0,21.094v10.312h26.133q2.928,0,2.929-2.461V681.9Z" fill="#000000"/><path d="M711.242,795.048h4.363l-1.808,6.761q-.708,2.318-3.537,2.319h-6.132v-3.459h4.717q.629,0,1.021-.9Zm27.79-24.724v3.616H723.781v2.831h13.4v13.678q0,3.027-3.184,3.027h-10.22V804.8h-4.206v-11.32H706.054V776.771h13.521V773.94H704.324v-3.616h15.251v-2.2h4.206v2.2Zm-28.772,13.05h9.315v-2.987H710.26Zm9.315,6.485v-3.105H710.26v3.105Zm4.206-9.472v2.987h9.158v-2.987ZM732,789.859q.943,0,.943-1.126v-1.979h-9.158v3.105Zm-3.931,5.189h4.521l1.572,4.717q.236.9.983.9h3.891v3.459h-6.093a2.489,2.489,0,0,1-2.672-1.887Z" fill="#000000"/><path d="M759.958,768.438h5.188v3.616h15.605v3.969H755.6l-.511,5.346h23.623v18.867q0,3.576-3.97,3.577H760.626v-3.891h12.539q1.14,0,1.14-.825V785.261H754.77l-1.141,13.8q-.432,4.911-2.476,4.913h-6.6v-3.735h3.616q1.021,0,1.14-3.42l1.847-20.793h-6.6v-3.969h15.408Z" fill="#000000"/><path d="M821.646,798.782v4.284h-36.2v-4.284Zm-1.1-27.947v4.206H786.427v-4.206Zm-.786,12.853v4.127h-32.9v-4.127Z" fill="#000000"/><path d="M840.671,769.734h18.71v30.188q0,3.615-3.735,3.616H842.872V799.45h11.32q.982,0,.983-.825v-5.307H832.5v6.6q-.039,3.537-3.144,3.616h-3.617V799.45h2.241q.313,0,.314-.825V769.734Zm-8.176,9.748h22.68v-5.856H832.5Zm0,9.906h22.68v-6.014H832.5Z" fill="#000000"/><path d="M871.3,785.575,870.4,799.45q-.313,3.774-1.729,3.774h-2.673v-3.145h.747q.549,0,.707-2.044l.708-12.46Zm11.359-5.621v1.1h7.665v-2.4h-6.918v-3.144h6.918v-2.2h-7.35v-3.145h7.35v-2.162h4.127v2.162h7.665v3.145h-7.665v2.2h7.233v3.144h-7.233v2.4h8.176v3.3H882.346v-.825h-6.132v21.108H872.6V783.531h-6.486v-3.577H872.6V768.123h3.616v11.831Zm-16.233-10.849h3.3l.51,3.853q.2,1.178.629,1.179h.59V777.6h-2.319q-.827,0-1.336-2.162Zm12.617.158h3.3l-1.534,6.211q-.51,2.121-1.611,2.122h-1.887v-3.459h.629q.355,0,.511-1.14Zm-1.572,16.312h3.144l.747,13.522q.157.982.629.982h.668v3.145h-2.4q-1.77,0-2.044-2.712Zm24.213.983v14.779q0,2.79-3.617,2.791h-5.66v-2.791h4.678q.825,0,.825-.668v-1.062h-10.22v5.032h-3.773V786.558Zm-13.994,5.463h10.22V789.7h-10.22Zm0,4.875h10.22v-2.163h-10.22Z" fill="#000000"/></g><g id="_12.8th_Touhou_Project_Shooting_Game_for_Windows_7_Vista_XP_2000" data-name="12.8th Touhou Project Shooting Game for Windows 7/Vista/XP/2000"><path d="M274.155,912.444h-.5c-.189.041-.315.063-.42.084a.789.789,0,0,1-.714-.735c.042-.483.273-.714.672-.714a3.281,3.281,0,0,1,.42.022c.189.02.378.062.567.084l.924.1a3.3,3.3,0,0,0,.818-.126l.672-.084c.441,0,.63.21.609.63l-.042.651v10.162q0,1.89,1.071,1.889l.4-.062.315-.042.315-.021c.462-.021.693.209.693.713a.844.844,0,0,1-.9.735,11.3,11.3,0,0,1-1.407-.126,11.034,11.034,0,0,0-1.386-.126,10.16,10.16,0,0,0-1.364.105l-1.344.105c-.693.063-1.029-.189-1.029-.734a.7.7,0,0,1,.777-.715l.945.084a.846.846,0,0,0,.966-.588,3.284,3.284,0,0,0,.147-1.217v-8.314Q275.352,912.444,274.155,912.444Z" fill="#000000"/><path d="M285.621,922.983a2.965,2.965,0,0,1,2.541-1.07,3.7,3.7,0,0,1,1.406.42,9.172,9.172,0,0,1,1.218.861,11.85,11.85,0,0,0,1.155.819,1.194,1.194,0,0,0,.42.168,1.487,1.487,0,0,0,.567.084l.525-.063a.784.784,0,0,0,.651-.5,1.621,1.621,0,0,0,.209-.84.991.991,0,0,0-.084-.483,1,1,0,0,1-.776.4.806.806,0,0,1-.651-.336.935.935,0,0,1-.252-.693,1.013,1.013,0,0,1,.378-.818,1.337,1.337,0,0,1,.882-.274,1.549,1.549,0,0,1,1.364.651,2.48,2.48,0,0,1,.441,1.511,3.023,3.023,0,0,1-1.427,2.709,2.763,2.763,0,0,1-1.512.442,3.45,3.45,0,0,1-1.848-.61l-1.848-1.2a3.45,3.45,0,0,0-1.847-.608,1.315,1.315,0,0,0-1.428.86c.609,0,.9.211.9.651q0,.945-1.071.945a1.378,1.378,0,0,1-1.281-.777,3.2,3.2,0,0,1-.357-1.553l.084-.735a4.814,4.814,0,0,1,3.045-3.822,21.281,21.281,0,0,1,2.393-.924c1.134-.377,1.869-.65,2.226-.8a2.381,2.381,0,0,0,1.6-2.289,2.617,2.617,0,0,0-1.6-2.457,4.307,4.307,0,0,0-1.932-.42,3.819,3.819,0,0,0-3,1.135,1.362,1.362,0,0,0-.441.84.406.406,0,0,0,.378.336c.525.062.777.377.777.965a1.1,1.1,0,0,1-.5.9,2.206,2.206,0,0,1-.987.42,1.328,1.328,0,0,1-1.176-.714,2.538,2.538,0,0,1-.378-1.386,4.113,4.113,0,0,1,3.024-3.547,7.3,7.3,0,0,1,2.435-.42c2.415,0,3.99.756,4.724,2.288a4.7,4.7,0,0,1,.483,2.057,3.623,3.623,0,0,1-.252,1.47,3.451,3.451,0,0,1-1.028,1.344,5.67,5.67,0,0,1-1.428.84l-2.982,1.007a8.366,8.366,0,0,0-2.918,1.576,2.078,2.078,0,0,0-.861,1.552Z" fill="#000000"/><path d="M299.858,923.026a1.354,1.354,0,0,1,.042,2.708,1.236,1.236,0,0,1-.986-.42,1.311,1.311,0,0,1-.4-.987A1.374,1.374,0,0,1,299.858,923.026Z" fill="#000000"/><path d="M306.075,916.16a3.5,3.5,0,0,1-.378-.924,2.915,2.915,0,0,1-.063-.672,3.516,3.516,0,0,1,2.162-3.191,5.618,5.618,0,0,1,2.667-.608c2.037,0,3.422.608,4.157,1.8a3.378,3.378,0,0,1,.525,1.848,3.085,3.085,0,0,1-2.226,2.982,4.5,4.5,0,0,1,2.793,2.205,3.247,3.247,0,0,1,.378,1.532,4.4,4.4,0,0,1-2.856,4.283,6.81,6.81,0,0,1-2.855.588c-2.373,0-4.073-.8-5.081-2.372a4.117,4.117,0,0,1-.693-2.2,3.9,3.9,0,0,1,.882-2.479,5.153,5.153,0,0,1,2.141-1.553A4.573,4.573,0,0,1,306.075,916.16Zm1.616,7.475a4.409,4.409,0,0,0,2.814.86,3.76,3.76,0,0,0,2.582-.9,3.092,3.092,0,0,0,1.113-2.457,2.419,2.419,0,0,0-.651-1.68,3.447,3.447,0,0,0-1.553-.965,6.41,6.41,0,0,0-1.974-.273,3.871,3.871,0,0,0-2.31.777,2.448,2.448,0,0,0-1.2,2.016A3.211,3.211,0,0,0,307.691,923.635Zm.756-7.517a3.816,3.816,0,0,0,1.974.462,3.4,3.4,0,0,0,1.953-.524,1.92,1.92,0,0,0,.923-1.68,1.725,1.725,0,0,0-.965-1.6,3.682,3.682,0,0,0-1.911-.463,3.974,3.974,0,0,0-1.407.252,1.991,1.991,0,0,0-1.554,1.891A1.813,1.813,0,0,0,308.447,916.118Z" fill="#000000"/><path d="M320.816,914.774h2.415c.567,0,.861.252.861.735,0,.525-.336.777-.987.777H320.9c-.231,0-.336.106-.336.294v5.459a3.663,3.663,0,0,0,.252,1.554,1.325,1.325,0,0,0,1.3.693,1.244,1.244,0,0,0,1.26-.693,3.886,3.886,0,0,0,.21-1.554v-.651c0-.777.273-1.155.8-1.155q.819,0,.819,1.2c0,1.952-.441,3.212-1.323,3.82a3.517,3.517,0,0,1-2.058.525c-1.91,0-2.855-1.175-2.855-3.527v-5.333c0-.42-.189-.63-.546-.63h-.441c-.651,0-.987-.252-.987-.734a.79.79,0,0,1,.777-.778h.861c.231,0,.336-.168.336-.482v-2.1a.914.914,0,0,1,.21-.63.939.939,0,0,1,.567-.231.889.889,0,0,1,.587.19.923.923,0,0,1,.231.628V914.5C320.564,914.69,320.648,914.774,320.816,914.774Z" fill="#000000"/><path d="M332.617,914.544a4.038,4.038,0,0,1,3.507,1.574,3.286,3.286,0,0,1,.566,1.974v4.975a2.225,2.225,0,0,0,.168,1.008.593.593,0,0,0,.483.295l.4-.063.294-.042.252-.022a.565.565,0,0,1,.693.588c0,.547-.294.819-.861.819l-.987-.084a10.927,10.927,0,0,0-1.3-.084l-1.029.084-1.029.084c-.651,0-.987-.252-.987-.776q0-.63.693-.631a2.086,2.086,0,0,1,.819.127.729.729,0,0,0,.651-.336,2.3,2.3,0,0,0,.147-1.008v-3.99c0-2.036-.819-3.064-2.436-3.064-2.162,0-3.233,1.07-3.233,3.232v3.906a3.618,3.618,0,0,0,.105.881.543.543,0,0,0,.546.379,2.319,2.319,0,0,1,.777-.127c.545,0,.818.19.818.588,0,.567-.294.861-.9.861l-1.113-.105-1.134-.105a6.83,6.83,0,0,0-1.008.105l-1.05.105c-.651,0-.965-.252-.965-.777a.606.606,0,0,1,.692-.672l.231.022.294.042.378.063a.65.65,0,0,0,.546-.252,1.91,1.91,0,0,0,.147-.883v-9.574c0-.924-.252-1.385-.735-1.385l-.861.125a.684.684,0,0,1-.692-.776.648.648,0,0,1,.251-.483,1.064,1.064,0,0,1,.609-.209,3.254,3.254,0,0,1,.735.1l.693.084.483-.084a2.869,2.869,0,0,1,.546-.1c.4,0,.609.272.609.818v4.137A3.542,3.542,0,0,1,332.617,914.544Z" fill="#000000"/><path d="M352.042,913.956c0-1.029-.734-1.555-2.2-1.555-1.2,0-1.743.568-1.68,1.68l.126,2.247a.936.936,0,0,1-.168.714.786.786,0,0,1-.651.23.6.6,0,0,1-.567-.293,1.894,1.894,0,0,1-.252-.839l.084-.715.063-.881-.042-1.051-.063-.8c0-.105-.021-.252-.042-.463a1.29,1.29,0,0,1,.273-.9.99.99,0,0,1,.819-.294c.609,0,1.491.042,2.667.126,1.2.084,2.078.126,2.666.126s1.239-.02,1.932-.063l3.149-.189c.714-.042,1.071.378,1.071,1.239a13.4,13.4,0,0,1-.168,2.184,8.948,8.948,0,0,1,.126,1.8q0,1.008-.819,1.007c-.441,0-.714-.356-.777-1.048l.105-.988.063-1.112c.063-1.113-.336-1.68-1.2-1.68H355.7a2.137,2.137,0,0,0-1.365.336,1.59,1.59,0,0,0-.483,1.3v8.482c0,1.176.378,1.764,1.155,1.764l.4-.041.462-.043a.7.7,0,0,1,.777.8c0,.461-.336.692-.987.692l-1.953-.21-.819-.042c-.063,0-.588.042-1.553.126l-1.281.126c-.567,0-.84-.252-.819-.776a.619.619,0,0,1,.735-.672l.735.041a1.136,1.136,0,0,0,.924-.314,3.392,3.392,0,0,0,.419-2.058Z" fill="#000000"/><path d="M360.8,917.315a4.688,4.688,0,0,1,2.708-2.519,5.153,5.153,0,0,1,1.764-.3,4.836,4.836,0,0,1,3.863,1.575,6,6,0,0,1,1.3,4.031c0,2.436-.861,4.179-2.583,5.207a4.819,4.819,0,0,1-2.5.693,5.17,5.17,0,0,1-2.6-.672,4.423,4.423,0,0,1-1.847-1.973,6.719,6.719,0,0,1-.651-3.107l.021-.715A5.677,5.677,0,0,1,360.8,917.315Zm6.11,6.824c1.2-.672,1.8-1.952,1.8-3.864,0-2.079-.609-3.443-1.8-4.051a3.19,3.19,0,0,0-1.386-.3,3.081,3.081,0,0,0-3.107,1.869,5.536,5.536,0,0,0-.462,2.309l.042.042a5.864,5.864,0,0,0,.692,2.982,2.714,2.714,0,0,0,2.5,1.448A3.445,3.445,0,0,0,366.91,924.139Z" fill="#000000"/><path d="M377.284,926.007a5.644,5.644,0,0,1-2.079-.357,3.1,3.1,0,0,1-2.079-3.171v-4.955q0-1.385-.692-1.384l-.462.062-.483.084-.273-.126a.568.568,0,0,1-.336-.188.593.593,0,0,1-.126-.42c0-.526.357-.778,1.071-.778a1.872,1.872,0,0,1,.609.147l.545.1c.315,0,1.008-.252,1.26-.252.441,0,.651.252.651.778l-.021,1.658-.084,2.9a4.355,4.355,0,0,1,.042.609v.819a3.3,3.3,0,0,0,.714,2.394,2.533,2.533,0,0,0,1.869.65,2.747,2.747,0,0,0,2.2-.9,3.533,3.533,0,0,0,.777-2.289l.1-3.653c.021-1.071-.252-1.6-.84-1.6l-.945.125a.8.8,0,0,1-.5-.209.691.691,0,0,1-.189-.547.563.563,0,0,1,.335-.525,1.049,1.049,0,0,1,.651-.21,2.734,2.734,0,0,1,.672.126l.588.126a3.383,3.383,0,0,0,.9-.189,2.087,2.087,0,0,1,.63-.147c.252,0,.378.19.357.546l-.084,2.9v4.808a3.361,3.361,0,0,0,.126,1.071.613.613,0,0,0,.546.357,2.568,2.568,0,0,1,.861-.127c.524,0,.776.232.776.672a.89.89,0,0,1-.944.777c-.252,0-.9-.21-1.155-.21a2.489,2.489,0,0,0-.672.105l-.567.105c-.336,0-.5-.336-.5-.986l.021-.3a3.7,3.7,0,0,1-2.288,1.471A4.1,4.1,0,0,1,377.284,926.007Z" fill="#000000"/><path d="M391.605,914.544a4.038,4.038,0,0,1,3.507,1.574,3.279,3.279,0,0,1,.567,1.974v4.975a2.225,2.225,0,0,0,.168,1.008.593.593,0,0,0,.483.295l.4-.063.293-.042.252-.022a.565.565,0,0,1,.693.588c0,.547-.294.819-.861.819l-.986-.084a10.939,10.939,0,0,0-1.3-.084l-1.029.084-1.029.084c-.651,0-.987-.252-.987-.776q0-.63.693-.631a2.086,2.086,0,0,1,.819.127.729.729,0,0,0,.651-.336,2.3,2.3,0,0,0,.147-1.008v-3.99c0-2.036-.819-3.064-2.436-3.064-2.162,0-3.233,1.07-3.233,3.232v3.906a3.618,3.618,0,0,0,.105.881.543.543,0,0,0,.546.379,2.319,2.319,0,0,1,.777-.127c.546,0,.819.19.819.588,0,.567-.294.861-.9.861l-1.113-.105-1.134-.105a6.83,6.83,0,0,0-1.008.105l-1.049.105c-.651,0-.966-.252-.966-.777a.607.607,0,0,1,.693-.672l.231.022.294.042.377.063a.65.65,0,0,0,.546-.252,1.91,1.91,0,0,0,.147-.883v-9.574c0-.924-.252-1.385-.734-1.385l-.861.125a.684.684,0,0,1-.693-.776.65.65,0,0,1,.252-.483,1.064,1.064,0,0,1,.609-.209,3.238,3.238,0,0,1,.734.1l.693.084.483-.084a2.869,2.869,0,0,1,.546-.1c.4,0,.609.272.609.818v4.137A3.543,3.543,0,0,1,391.605,914.544Z" fill="#000000"/><path d="M398.536,917.315a4.687,4.687,0,0,1,2.709-2.519,5.147,5.147,0,0,1,1.763-.3,4.838,4.838,0,0,1,3.864,1.575,6.005,6.005,0,0,1,1.3,4.031c0,2.436-.861,4.179-2.582,5.207a4.825,4.825,0,0,1-2.5.693,5.167,5.167,0,0,1-2.6-.672,4.42,4.42,0,0,1-1.848-1.973,6.719,6.719,0,0,1-.651-3.107l.021-.715A5.677,5.677,0,0,1,398.536,917.315Zm6.11,6.824c1.2-.672,1.806-1.952,1.806-3.864,0-2.079-.609-3.443-1.806-4.051a3.19,3.19,0,0,0-1.386-.3,3.083,3.083,0,0,0-3.107,1.869,5.536,5.536,0,0,0-.462,2.309l.042.042a5.854,5.854,0,0,0,.693,2.982,2.714,2.714,0,0,0,2.5,1.448A3.445,3.445,0,0,0,404.646,924.139Z" fill="#000000"/><path d="M415.02,926.007a5.644,5.644,0,0,1-2.079-.357,3.1,3.1,0,0,1-2.078-3.171v-4.955q0-1.385-.693-1.384l-.462.062-.483.084-.273-.126a.568.568,0,0,1-.336-.188.593.593,0,0,1-.126-.42c0-.526.357-.778,1.071-.778a1.872,1.872,0,0,1,.609.147l.546.1c.315,0,1.008-.252,1.26-.252.441,0,.65.252.65.778l-.021,1.658-.084,2.9a4.355,4.355,0,0,1,.042.609v.819a3.3,3.3,0,0,0,.714,2.394,2.533,2.533,0,0,0,1.869.65,2.748,2.748,0,0,0,2.2-.9,3.538,3.538,0,0,0,.776-2.289l.105-3.653c.021-1.071-.252-1.6-.839-1.6l-.945.125a.808.808,0,0,1-.5-.209.691.691,0,0,1-.189-.547.562.562,0,0,1,.336-.525,1.049,1.049,0,0,1,.651-.21,2.734,2.734,0,0,1,.672.126l.587.126a3.383,3.383,0,0,0,.9-.189,2.087,2.087,0,0,1,.63-.147c.252,0,.378.19.357.546l-.084,2.9v4.808a3.361,3.361,0,0,0,.126,1.071.613.613,0,0,0,.546.357,2.568,2.568,0,0,1,.861-.127c.525,0,.777.232.777.672a.89.89,0,0,1-.945.777c-.252,0-.9-.21-1.155-.21a2.489,2.489,0,0,0-.672.105l-.567.105c-.336,0-.5-.336-.5-.986l.021-.3a3.692,3.692,0,0,1-2.288,1.471A4.1,4.1,0,0,1,415.02,926.007Z" fill="#000000"/><path d="M432.85,914.124c0-1.176-.378-1.743-1.134-1.68l-.273.021-.672.1q-.693-.061-.693-.692c0-.567.336-.84,1.008-.84l1.344.126,1.574.126,1.806-.1c.189-.022.546-.064,1.05-.084.231-.022.588-.022,1.05-.022,3.464,0,5.207,1.365,5.207,4.115a3.627,3.627,0,0,1-1.638,3.254,6.729,6.729,0,0,1-3.695.883h-2.625q-.5,0-.5.566v2.31a5.193,5.193,0,0,0,.126,1.364.94.94,0,0,0,.945.8,4.889,4.889,0,0,1,1.113-.127c.441,0,.651.232.651.715,0,.545-.336.8-.987.734l-1.365-.105c-.126-.021-.357-.041-.714-.084a5.77,5.77,0,0,0-.714-.021c-.126,0-.608.042-1.427.126l-1.155.126c-.693,0-1.05-.272-1.05-.819q0-.63.693-.629h.483a1.27,1.27,0,0,1,.462.084.988.988,0,0,0,1.008-.672,4.74,4.74,0,0,0,.126-1.323Zm1.91,3.652a1.109,1.109,0,0,0,.672.127h2.226c1.658,0,2.729-.441,3.191-1.343a3.544,3.544,0,0,0,.336-1.66,2.061,2.061,0,0,0-1.386-2.057,7.809,7.809,0,0,0-2.666-.358H436.4a3.058,3.058,0,0,0-1.3.232.6.6,0,0,0-.357.42,2.448,2.448,0,0,0-.084.819v3.17A1.454,1.454,0,0,0,434.76,917.776Z" fill="#000000"/><path d="M452.357,917.231a1.214,1.214,0,0,0-.65-1.071,2.4,2.4,0,0,0-1.281-.356c-1.722,0-2.583,1.28-2.583,3.82v2.709a5.138,5.138,0,0,0,.147,1.6.537.537,0,0,0,.546.441,3.216,3.216,0,0,1,.945-.127.659.659,0,0,1,.735.715c.021.42-.483.734-.9.734l-.987-.105c-.315-.041-.567-.084-.756-.105h-.462a6.892,6.892,0,0,0-.986.105l-1.113.105q-1.071,0-1.071-.818c0-.357.42-.631.777-.631a2.4,2.4,0,0,1,.819.127.63.63,0,0,0,.63-.357,2.242,2.242,0,0,0,.084-.778v-5.711c0-.964-.231-1.427-.714-1.384l-.294.02-.315.042-.483.063c-.525,0-.777-.231-.777-.672a.872.872,0,0,1,.861-.819l.63.126a6.469,6.469,0,0,0,.672.126l.609-.1.587-.105c.378,0,.567.42.567,1.24a3.489,3.489,0,0,1,3-1.555,3.327,3.327,0,0,1,2.918,1.387,2.851,2.851,0,0,1,.483,1.595c0,1.2-.441,1.911-1.323,2.1l-.357.084a1.331,1.331,0,0,1-1.238-.987.925.925,0,0,1,.861-.945l.167.021.126.02A1.221,1.221,0,0,0,452.357,917.231Z" fill="#000000"/><path d="M455.193,917.315A4.687,4.687,0,0,1,457.9,914.8a5.153,5.153,0,0,1,1.764-.3,4.837,4.837,0,0,1,3.863,1.575,6,6,0,0,1,1.3,4.031c0,2.436-.861,4.179-2.583,5.207a4.825,4.825,0,0,1-2.5.693,5.17,5.17,0,0,1-2.6-.672,4.42,4.42,0,0,1-1.848-1.973,6.719,6.719,0,0,1-.651-3.107l.021-.715A5.677,5.677,0,0,1,455.193,917.315Zm6.11,6.824c1.2-.672,1.806-1.952,1.806-3.864,0-2.079-.609-3.443-1.806-4.051a3.19,3.19,0,0,0-1.386-.3,3.083,3.083,0,0,0-3.107,1.869,5.536,5.536,0,0,0-.462,2.309l.042.042a5.854,5.854,0,0,0,.693,2.982,2.714,2.714,0,0,0,2.5,1.448A3.444,3.444,0,0,0,461.3,924.139Z" fill="#000000"/><path d="M464.938,928.338a4.1,4.1,0,0,0,.713.1q2.079,0,2.079-2.96V917.86a9.728,9.728,0,0,0-.042-1.048c-.1-.42-.315-.631-.651-.631l-.462.043-.441.062a.594.594,0,0,1-.609-.42,1.508,1.508,0,0,1-.042-.357c0-.483.294-.735.861-.735a3.128,3.128,0,0,1,.735.126l.693.126,1.281-.21c.357,0,.5.189.483.588l-.168,2.646v7.432c0,2.814-1.26,4.22-3.8,4.22a3.78,3.78,0,0,1-1.973-.5,1.879,1.879,0,0,1-.987-1.658c0-.777.378-1.154,1.113-1.154a1.24,1.24,0,0,1,.672.23.869.869,0,0,1,.315.588,3.08,3.08,0,0,1-.336.818Q464.4,928.181,464.938,928.338Zm2.54-16.713a1.249,1.249,0,0,1,.8-.336,1.4,1.4,0,0,1,.84.315,1.066,1.066,0,0,1,.378.8,1.415,1.415,0,0,1-.294.9,1.1,1.1,0,0,1-.882.4,1.11,1.11,0,0,1-.819-.336,1.087,1.087,0,0,1-.378-.883A1.3,1.3,0,0,1,467.478,911.625Z" fill="#000000"/><path d="M473.379,920.947a3.485,3.485,0,0,0,.987,2.54,3.217,3.217,0,0,0,2.435,1.135,2.9,2.9,0,0,0,2.961-2.415.694.694,0,0,1,.735-.63.806.806,0,0,1,.587.21.911.911,0,0,1,.231.651,3,3,0,0,1-1.658,2.666,5.987,5.987,0,0,1-3.213.9,4.329,4.329,0,0,1-4.073-2.6,7.206,7.206,0,0,1-.693-3.3,6.279,6.279,0,0,1,.693-2.96,4.252,4.252,0,0,1,2.142-2.1,5.347,5.347,0,0,1,2.12-.547,4.852,4.852,0,0,1,4.892,5.039,1.708,1.708,0,0,1-.1.735c-.105.148-.315.21-.671.21H473.4Zm5.438-4.3a3.177,3.177,0,0,0-2.142-.715,2.932,2.932,0,0,0-2.561,1.407,2.779,2.779,0,0,0-.5,1.616H479.8A2.89,2.89,0,0,0,478.817,916.644Z" fill="#000000"/><path d="M489.148,916.286a3.854,3.854,0,0,0-1.658-.357,2.4,2.4,0,0,0-.672.105c-1.617.546-2.415,2.037-2.415,4.493a3.972,3.972,0,0,0,1.638,3.57,2.829,2.829,0,0,0,1.554.482,2.638,2.638,0,0,0,2.75-2.288,2.082,2.082,0,0,1,.294-.776.873.873,0,0,1,.777-.252c.357,0,.609.42.609.818a3.584,3.584,0,0,1-1.323,2.709,4.749,4.749,0,0,1-2.1,1.112,3.376,3.376,0,0,1-.714.1,4.769,4.769,0,0,1-4.556-2.54,6.191,6.191,0,0,1-.693-2.982,6.423,6.423,0,0,1,1.343-4.283,4.686,4.686,0,0,1,2.5-1.6,4.863,4.863,0,0,1,1.008-.105,4.377,4.377,0,0,1,3.632,1.555,2.893,2.893,0,0,1,.63,1.847,2.093,2.093,0,0,1-.315,1.176,1.178,1.178,0,0,1-1.05.588,1.687,1.687,0,0,1-.966-.3.937.937,0,0,1-.5-.818c0-.651.378-.987,1.155-.987A1.391,1.391,0,0,0,489.148,916.286Z" fill="#000000"/><path d="M495.869,914.774h2.415c.567,0,.861.252.861.735,0,.525-.336.777-.987.777h-2.205c-.231,0-.336.106-.336.294v5.459a3.663,3.663,0,0,0,.252,1.554,1.325,1.325,0,0,0,1.3.693,1.244,1.244,0,0,0,1.26-.693,3.886,3.886,0,0,0,.21-1.554v-.651c0-.777.273-1.155.8-1.155q.819,0,.819,1.2c0,1.952-.441,3.212-1.322,3.82a3.517,3.517,0,0,1-2.058.525c-1.911,0-2.856-1.175-2.856-3.527v-5.333c0-.42-.188-.63-.545-.63h-.441c-.651,0-.987-.252-.987-.734a.79.79,0,0,1,.777-.778h.861c.231,0,.335-.168.335-.482v-2.1a.914.914,0,0,1,.21-.63.939.939,0,0,1,.567-.231.893.893,0,0,1,.588.19.923.923,0,0,1,.231.628V914.5C495.617,914.69,495.7,914.774,495.869,914.774Z" fill="#000000"/><path d="M271.7,948.646a.788.788,0,0,1-.168.672.549.549,0,0,1-.483.189.7.7,0,0,1-.693-.315,2.131,2.131,0,0,1-.251-.9l.168-2.583-.084-.882-.126-.966c0-.776.293-1.155.86-1.155s.861.4.861,1.2v.567l.042.483.042.4.042.314a2.969,2.969,0,0,0,1.47,1.785,4.294,4.294,0,0,0,2.268.629,4.359,4.359,0,0,0,2.5-.8,2.4,2.4,0,0,0,1.029-2.121,2.326,2.326,0,0,0-1.932-2.33l-2.351-.441a6.4,6.4,0,0,1-3.78-1.806,3.029,3.029,0,0,1-.672-2.016,5.2,5.2,0,0,1,.819-2.477,4.412,4.412,0,0,1,2.562-1.638,6.254,6.254,0,0,1,1.533-.188c1.7,0,2.9.44,3.569,1.343,0-.755.21-1.134.609-1.134.567,0,.819.315.777.945l-.084,1.092-.105,1.07a6.425,6.425,0,0,1,.189,1.764q0,1.072-.819,1.071c-.567,0-.861-.294-.861-.9l.084-.861a2.665,2.665,0,0,0-.966-2.2,3.652,3.652,0,0,0-2.351-.715,3.1,3.1,0,0,0-2.646,1.156,2.743,2.743,0,0,0-.5,1.427c0,1.029.609,1.722,1.848,2.1a11.854,11.854,0,0,0,1.763.4c.189.021.483.063.924.125.063.022.378.084.945.211.273.063.525.147.777.231.147.062.42.189.8.378a3.307,3.307,0,0,1,1.68,3.171,4.14,4.14,0,0,1-2.5,3.967,5.98,5.98,0,0,1-2.667.609,5.337,5.337,0,0,1-4.115-1.553l-.042.041Z" fill="#000000"/><path d="M289.148,938.044a4.036,4.036,0,0,1,3.506,1.574,3.279,3.279,0,0,1,.567,1.974v4.975a2.225,2.225,0,0,0,.168,1.008.593.593,0,0,0,.483.295l.4-.063.294-.042.252-.022a.565.565,0,0,1,.693.588c0,.547-.294.819-.861.819l-.987-.084a10.939,10.939,0,0,0-1.3-.084l-1.028.084-1.029.084c-.651,0-.987-.252-.987-.776q0-.63.693-.631a2.086,2.086,0,0,1,.819.127.729.729,0,0,0,.651-.336,2.315,2.315,0,0,0,.146-1.008v-3.99c0-2.036-.818-3.064-2.435-3.064-2.163,0-3.233,1.07-3.233,3.232v3.906a3.618,3.618,0,0,0,.105.881.542.542,0,0,0,.545.379,2.319,2.319,0,0,1,.777-.127c.546,0,.819.19.819.588,0,.567-.294.861-.9.861l-1.112-.105-1.134-.105a6.83,6.83,0,0,0-1.008.105l-1.05.105c-.651,0-.966-.252-.966-.777a.607.607,0,0,1,.693-.672l.231.022.294.042.378.063a.65.65,0,0,0,.546-.252,1.91,1.91,0,0,0,.147-.883v-9.574c0-.924-.252-1.385-.735-1.385l-.861.125a.684.684,0,0,1-.693-.776.65.65,0,0,1,.252-.483,1.064,1.064,0,0,1,.609-.209,3.254,3.254,0,0,1,.735.1l.693.084.483-.084a2.869,2.869,0,0,1,.546-.1c.4,0,.609.272.609.818v4.137A3.541,3.541,0,0,1,289.148,938.044Z" fill="#000000"/><path d="M296.5,940.815a4.687,4.687,0,0,1,2.709-2.519,5.143,5.143,0,0,1,1.763-.3,4.834,4.834,0,0,1,3.863,1.575,6,6,0,0,1,1.3,4.031c0,2.436-.861,4.179-2.582,5.207a4.825,4.825,0,0,1-2.5.693,5.167,5.167,0,0,1-2.6-.672,4.42,4.42,0,0,1-1.848-1.973,6.719,6.719,0,0,1-.651-3.107l.021-.715A5.677,5.677,0,0,1,296.5,940.815Zm6.11,6.824c1.2-.672,1.806-1.952,1.806-3.864,0-2.079-.609-3.443-1.806-4.051a3.19,3.19,0,0,0-1.386-.3,3.082,3.082,0,0,0-3.107,1.869,5.536,5.536,0,0,0-.462,2.309l.042.042a5.854,5.854,0,0,0,.693,2.982,2.713,2.713,0,0,0,2.5,1.448A3.445,3.445,0,0,0,302.609,947.639Z" fill="#000000"/><path d="M307.965,940.815a4.688,4.688,0,0,1,2.708-2.519,5.153,5.153,0,0,1,1.764-.3,4.836,4.836,0,0,1,3.863,1.575,6,6,0,0,1,1.3,4.031c0,2.436-.861,4.179-2.582,5.207a4.825,4.825,0,0,1-2.5.693,5.17,5.17,0,0,1-2.6-.672,4.423,4.423,0,0,1-1.847-1.973,6.719,6.719,0,0,1-.651-3.107l.021-.715A5.677,5.677,0,0,1,307.965,940.815Zm6.11,6.824c1.2-.672,1.805-1.952,1.805-3.864,0-2.079-.609-3.443-1.805-4.051a3.19,3.19,0,0,0-1.386-.3,3.081,3.081,0,0,0-3.107,1.869,5.536,5.536,0,0,0-.462,2.309l.042.042a5.864,5.864,0,0,0,.692,2.982,2.714,2.714,0,0,0,2.5,1.448A3.445,3.445,0,0,0,314.075,947.639Z" fill="#000000"/><path d="M321.908,938.274h2.415c.567,0,.861.252.861.735,0,.525-.336.777-.987.777h-2.2c-.231,0-.336.106-.336.294v5.459a3.663,3.663,0,0,0,.252,1.554,1.325,1.325,0,0,0,1.3.693,1.244,1.244,0,0,0,1.26-.693,3.886,3.886,0,0,0,.21-1.554v-.651c0-.777.273-1.155.8-1.155q.818,0,.818,1.2c0,1.952-.441,3.212-1.322,3.82a3.517,3.517,0,0,1-2.058.525c-1.911,0-2.855-1.175-2.855-3.527v-5.333c0-.42-.189-.63-.546-.63h-.441c-.651,0-.987-.252-.987-.734a.79.79,0,0,1,.777-.778h.861c.231,0,.336-.168.336-.482v-2.1a.914.914,0,0,1,.21-.63.934.934,0,0,1,.566-.231.893.893,0,0,1,.588.19.923.923,0,0,1,.231.628V938C321.656,938.19,321.74,938.274,321.908,938.274Z" fill="#000000"/><path d="M329.09,940.1a.6.6,0,0,0-.651-.42l-.86.084a.711.711,0,0,1-.714-.84.766.766,0,0,1,.8-.651c.336,0,1.175.252,1.511.252l.525-.1.5-.105c.378,0,.567.294.567.9v7.789c0,.5.189.8.567.861l.735-.127c.525,0,.8.232.8.715s-.336.734-1.029.734l-1.974-.21a6.353,6.353,0,0,0-1.008.105l-1.049.105q-.945,0-.945-.818c0-.42.231-.631.714-.631a2.386,2.386,0,0,1,.818.127c.525,0,.777-.441.777-1.344v-5.543A2.737,2.737,0,0,0,329.09,940.1Zm.441-5.312a1.114,1.114,0,0,1,1.281,1.239,1.176,1.176,0,0,1-1.239,1.176,1.209,1.209,0,0,1-.042-2.415Z" fill="#000000"/><path d="M340.7,938a5.324,5.324,0,0,1,2.73.819q1.259.726,1.259,3.024v4.682c0,.861.21,1.323.609,1.385a3.426,3.426,0,0,1,.945-.125c.483,0,.735.231.735.672,0,.482-.315.734-.945.734l-1.05-.105-1.07-.105h-.693c-.231.042-.42.064-.546.084l-1.071.084c-.546.064-.819-.168-.819-.651s.231-.713.693-.713h.294a1.672,1.672,0,0,1,.441.084h.126l.084.041c.315,0,.5-.209.588-.65a8.07,8.07,0,0,0,.042-.987v-4.3a2.231,2.231,0,0,0-1.26-2.226,3.327,3.327,0,0,0-1.449-.315,2.711,2.711,0,0,0-2.519,1.323,4.524,4.524,0,0,0-.483,2.288v3.486c0,.9.294,1.344.9,1.344l.252-.043.356-.041c.483,0,.735.231.735.672,0,.482-.294.734-.9.734l-1.008-.105-1.071-.105a8.013,8.013,0,0,0-1.176.105l-1.113.105q-.882,0-.881-.818c0-.42.23-.631.713-.631a3.1,3.1,0,0,1,.9.168.575.575,0,0,0,.588-.545,4.109,4.109,0,0,0,.063-.924v-5.586c0-.818-.21-1.216-.651-1.216l-.861.125c-.525,0-.776-.231-.776-.672a.94.94,0,0,1,.188-.5.968.968,0,0,1,.546-.315c.231,0,.945.252,1.3.252l1.155-.21c.315,0,.483.252.483.736v.5A4.334,4.334,0,0,1,340.7,938Z" fill="#000000"/><path d="M347.906,946.567a1.948,1.948,0,0,1-.546-1.322,2.058,2.058,0,0,1,1.722-2.037,3.214,3.214,0,0,1-.567-1.8,3.025,3.025,0,0,1,.567-1.743A4.053,4.053,0,0,1,352.567,938a11.808,11.808,0,0,1,1.2.105,1.878,1.878,0,0,1,.714-1.574,2.724,2.724,0,0,1,1.7-.5,3.085,3.085,0,0,1,1.113.209,1.679,1.679,0,0,1,1.26,1.639.97.97,0,0,1-.294.8,2.422,2.422,0,0,1-.861.463.958.958,0,0,1-.819-.778.968.968,0,0,1,.5-.777,1.046,1.046,0,0,0-.9-.42,1.017,1.017,0,0,0-.819.379,1.457,1.457,0,0,0-.336,1.07,3.554,3.554,0,0,1,1.638,2.94,3.361,3.361,0,0,1-2.393,3.254,4.245,4.245,0,0,1-1.617.315c-.357-.042-.861-.126-1.554-.231l-.546-.209-.546-.19-.441-.062a.456.456,0,0,0-.44.209l-.21.777c0,.693.86,1.029,2.582,1.029a5.972,5.972,0,0,1,.651-.043h.294c2.372,0,3.989.568,4.829,1.68a2.776,2.776,0,0,1,.546,1.68,2.818,2.818,0,0,1-1.89,2.687,8.545,8.545,0,0,1-3.485.631,6.411,6.411,0,0,1-4.43-1.3,2.948,2.948,0,0,1-.9-1.972,2.376,2.376,0,0,1,2.016-2.415V947.3A2.418,2.418,0,0,1,347.906,946.567Zm.966,3.151c0,.776.524,1.364,1.595,1.742a5.269,5.269,0,0,0,1.806.273c2.54,0,3.821-.651,3.821-1.974,0-1.26-1.155-1.889-3.443-1.889C350.131,947.87,348.872,948.479,348.872,949.718Zm3.611-6.027a2.822,2.822,0,0,0,1.743-.524,1.9,1.9,0,0,0,.8-1.575,1.937,1.937,0,0,0-1.28-1.952,3.164,3.164,0,0,0-1.218-.252,2.45,2.45,0,0,0-1.6.545,1.912,1.912,0,0,0-.693,1.511A2.149,2.149,0,0,0,352.483,943.691Z" fill="#000000"/><path d="M378.165,948.017l.021.357c.042.692-.231,1.028-.819,1.028-.4,0-.63-.231-.735-.714l.084-1.259c-.84,1.385-2.394,2.078-4.64,2.078a5.138,5.138,0,0,1-4.221-2.246,8.483,8.483,0,0,1-1.6-5.291,10.23,10.23,0,0,1,.609-3.486,6.971,6.971,0,0,1,1.931-2.9,4.8,4.8,0,0,1,3-1.281l.945-.041a4.813,4.813,0,0,1,3.8,1.636l.042-.041v-.42c-.042-.127-.063-.211-.084-.273.042-.42.189-.672.462-.777h.252a.7.7,0,0,1,.777.819l-.021.692-.063.8-.084.84.042.336L378,939.64c.063.65-.21.986-.819.986-.567,0-.861-.294-.861-.9v-.631a3.032,3.032,0,0,0-1.848-2.96,4.294,4.294,0,0,0-1.889-.4,3.744,3.744,0,0,0-3.423,2.016,8.432,8.432,0,0,0-.966,4.3,8.161,8.161,0,0,0,.588,3.149,4.425,4.425,0,0,0,2.037,2.394,4.278,4.278,0,0,0,1.974.525,3.5,3.5,0,0,0,2.477-.967,3.4,3.4,0,0,0,.987-2.728l-.021-.568a.915.915,0,0,0-.987-.9l-.63.064-.441.063c-.525,0-.777-.273-.777-.819,0-.484.294-.714.861-.714l1.239.126q1.228.126,1.386.126l1.281-.147,1.385-.105a.762.762,0,0,1,.63.23.665.665,0,0,1,.231.484.715.715,0,0,1-.651.819,2.721,2.721,0,0,0-.777-.127q-.724,0-.818,1.071l-.063.84-.063.714.126,2.078Z" fill="#000000"/><path d="M383.857,940.521a.839.839,0,0,1,.357.8,1.07,1.07,0,0,1-1.155.987l-.252-.042a1.178,1.178,0,0,1-.756-.5,1.321,1.321,0,0,1-.315-.861,3.014,3.014,0,0,1,2.184-2.562,4.2,4.2,0,0,1,1.806-.357l.441.021c1.784.084,2.918.715,3.38,1.869a4.166,4.166,0,0,1,.357,2.058l-.126,4.387c-.021,1.051.231,1.66.777,1.848.525-.125.777-.629.777-1.512v-.734c0-.65.23-.986.671-.986.483,0,.735.23.735.692V947.6c-.126,1.217-.861,1.826-2.225,1.826a2.643,2.643,0,0,1-1.386-.377,1.4,1.4,0,0,1-.777-1.135,3.6,3.6,0,0,1-3.4,1.6,4.847,4.847,0,0,1-2.247-.525,2.612,2.612,0,0,1-1.512-1.637l-.189-.987a2.964,2.964,0,0,1,2.016-2.919,6.693,6.693,0,0,1,1.512-.356l1.805-.231a2.99,2.99,0,0,0,1.2-.316,1.323,1.323,0,0,0,.651-1.217,1.746,1.746,0,0,0-1.2-1.659,2.629,2.629,0,0,0-1.049-.231,3.406,3.406,0,0,0-1.848.483.717.717,0,0,0-.378.5Zm2.75,3.716-1.847.294a3.2,3.2,0,0,0-1.344.462,1.79,1.79,0,0,0-.651,1.238c0,1.24.735,1.848,2.226,1.848a4.617,4.617,0,0,0,1.847-.44,2.493,2.493,0,0,0,1.218-1.911c.021-.189.063-.609.084-1.217l.042-.946A2.858,2.858,0,0,1,386.607,944.237Z" fill="#000000"/><path d="M399.9,938.044a3.169,3.169,0,0,1,3.024,1.512,3.393,3.393,0,0,1,1.575-1.176,5.2,5.2,0,0,1,1.952-.379,3.545,3.545,0,0,1,3.339,1.659,4.066,4.066,0,0,1,.524,2.184v4.891c0,.715.231,1.092.693,1.135a3.128,3.128,0,0,1,.9-.127.585.585,0,0,1,.651.672c0,.525-.315.777-.945.777l-2.12-.21a6.83,6.83,0,0,0-1.008.105l-1.134.105c-.651,0-.987-.252-.987-.734a.641.641,0,0,1,.735-.715,1.978,1.978,0,0,1,.861.127c.483,0,.714-.379.714-1.135v-4.072c0-2.163-.819-3.234-2.478-3.234a2.232,2.232,0,0,0-1.994,1.008,3.952,3.952,0,0,0-.588,2.267v3.99c0,.777.231,1.176.672,1.176a4.707,4.707,0,0,1,.86-.084c.483,0,.735.209.735.629,0,.525-.315.777-.945.777l-1.049-.105-1.092-.105a7.174,7.174,0,0,0-1.071.105l-1.092.105c-.63,0-.945-.294-.945-.861.042-.4.294-.588.735-.588.525,0,.819.043.9.127.441-.043.651-.4.651-1.092v-4.934a2.117,2.117,0,0,0-2.373-2.415,2.285,2.285,0,0,0-2.078,1.092,4.3,4.3,0,0,0-.588,2.394v3.611c0,.861.21,1.323.609,1.385a2.327,2.327,0,0,1,.9-.168.713.713,0,0,1,.546.211.822.822,0,0,1,.189.545c0,.463-.336.693-1.008.693l-1.575-.21h-.483c.042,0-.336.042-1.113.126l-1.07.126c-.609,0-.924-.252-.924-.776a.641.641,0,0,1,.735-.715,2.4,2.4,0,0,1,.818.127.67.67,0,0,0,.693-.631,8.568,8.568,0,0,0,.042-1.049v-5.418a2.256,2.256,0,0,0-.126-.86.587.587,0,0,0-.567-.272,3.184,3.184,0,0,0-.9.146c-.441,0-.672-.252-.672-.777a.706.706,0,0,1,.231-.5.716.716,0,0,1,.525-.231c.188,0,.818.252,1.049.252l.714-.1.693-.105c.315,0,.483.42.483,1.24A3.529,3.529,0,0,1,399.9,938.044Z" fill="#000000"/><path d="M414.979,944.447a3.485,3.485,0,0,0,.987,2.54,3.219,3.219,0,0,0,2.435,1.135,2.9,2.9,0,0,0,2.961-2.415.694.694,0,0,1,.735-.63.81.81,0,0,1,.588.21.911.911,0,0,1,.231.651,3,3,0,0,1-1.659,2.666,5.987,5.987,0,0,1-3.213.9,4.329,4.329,0,0,1-4.073-2.6,7.206,7.206,0,0,1-.693-3.3,6.279,6.279,0,0,1,.693-2.96,4.252,4.252,0,0,1,2.142-2.1,5.351,5.351,0,0,1,2.12-.547,4.852,4.852,0,0,1,4.892,5.039,1.73,1.73,0,0,1-.1.735c-.105.148-.315.21-.672.21H415Zm5.438-4.3a3.177,3.177,0,0,0-2.142-.715,2.933,2.933,0,0,0-2.561,1.407,2.779,2.779,0,0,0-.5,1.616H421.4A2.89,2.89,0,0,0,420.417,940.144Z" fill="#000000"/><path d="M437.7,939.3c0,.524-.294.776-.9.776h-1.386c-.231,0-.357.1-.378.294v6.32c0,.651.252.987.777,1.049l.9-.041c.4-.021.609.189.609.629a.874.874,0,0,1-.231.651,1.2,1.2,0,0,1-.693.168l-.924-.084c-.609-.063-.966-.084-1.092-.084l-.8.042-1.091.042c-.945.021-1.428-.21-1.428-.735.042-.293.105-.482.21-.545a.592.592,0,0,1,.441-.147l.987.1a.724.724,0,0,0,.5-.252,1.386,1.386,0,0,0,.147-.8l.042-6.11c0-.336-.147-.5-.42-.5h-1.008c-.546,0-.819-.252-.819-.735,0-.545.252-.819.735-.819h1.134c.252,0,.378-.146.378-.462,0-2.54,1.2-3.8,3.569-3.8a4.057,4.057,0,0,1,1.952.44,1.749,1.749,0,0,1,1.008,1.6q0,.912-1.071,1.071a.971.971,0,0,1-.986-.9,2.043,2.043,0,0,1,.21-.568c-.168-.23-.525-.336-1.071-.336a1.7,1.7,0,0,0-1.512.756,2.883,2.883,0,0,0-.462,1.723c0,.314.063.461.21.482H436.8C437.406,938.526,437.7,938.778,437.7,939.3Z" fill="#000000"/><path d="M440.578,940.815a4.687,4.687,0,0,1,2.709-2.519,5.147,5.147,0,0,1,1.763-.3,4.838,4.838,0,0,1,3.864,1.575,6.005,6.005,0,0,1,1.3,4.031c0,2.436-.861,4.179-2.582,5.207a4.825,4.825,0,0,1-2.5.693,5.167,5.167,0,0,1-2.6-.672,4.42,4.42,0,0,1-1.848-1.973,6.719,6.719,0,0,1-.651-3.107l.021-.715A5.677,5.677,0,0,1,440.578,940.815Zm6.11,6.824c1.2-.672,1.806-1.952,1.806-3.864,0-2.079-.609-3.443-1.806-4.051a3.19,3.19,0,0,0-1.386-.3A3.083,3.083,0,0,0,442.2,941.3a5.536,5.536,0,0,0-.462,2.309l.042.042a5.854,5.854,0,0,0,.693,2.982,2.714,2.714,0,0,0,2.5,1.448A3.445,3.445,0,0,0,446.688,947.639Z" fill="#000000"/><path d="M459.812,940.731a1.212,1.212,0,0,0-.65-1.071,2.4,2.4,0,0,0-1.281-.356c-1.722,0-2.583,1.28-2.583,3.82v2.709a5.138,5.138,0,0,0,.147,1.6.537.537,0,0,0,.546.441,3.216,3.216,0,0,1,.945-.127.659.659,0,0,1,.735.715c.021.42-.483.734-.9.734l-.987-.105c-.315-.041-.567-.084-.756-.105h-.462a6.919,6.919,0,0,0-.986.105l-1.113.105q-1.071,0-1.071-.818c0-.357.42-.631.777-.631a2.4,2.4,0,0,1,.819.127.63.63,0,0,0,.63-.357,2.242,2.242,0,0,0,.084-.778v-5.711c0-.964-.231-1.427-.714-1.384l-.294.02-.315.042-.483.063c-.525,0-.777-.231-.777-.672a.872.872,0,0,1,.861-.819l.63.126a6.469,6.469,0,0,0,.672.126l.609-.1.587-.105c.378,0,.567.42.567,1.24a3.489,3.489,0,0,1,3-1.555,3.327,3.327,0,0,1,2.918,1.387,2.851,2.851,0,0,1,.483,1.595c0,1.2-.441,1.911-1.323,2.1l-.356.084a1.331,1.331,0,0,1-1.239-.987.925.925,0,0,1,.861-.945l.168.021.126.02A1.22,1.22,0,0,0,459.812,940.731Z" fill="#000000"/><path d="M476.99,948c-.189.9-.588,1.365-1.218,1.365a1.233,1.233,0,0,1-1.364-.986l-2.751-11.569a1.053,1.053,0,0,0-1.176-.82l-.713.084a.723.723,0,0,1-.819-.818c0-.482.4-.714,1.2-.714a12.033,12.033,0,0,1,1.385.105l1.113.147,1.512-.1c.147-.022.42-.043.819-.084a5.469,5.469,0,0,1,.671-.022c.735,0,1.092.252,1.092.756,0,.482-.294.734-.9.734l-.566-.062-.441-.063h-.378c-.567,0-.861.273-.861.819l.084.336,1.973,9.91,2.2-11.065c.189-1.007.63-1.511,1.281-1.511.966,0,1.533.4,1.68,1.216l2.12,11.57,2.058-10.372c.021-.651-.294-.966-.945-.9l-1.239.084a.912.912,0,0,1-.588-.168.669.669,0,0,1-.189-.525c0-.5.378-.756,1.113-.756.063,0,.525.042,1.344.126l1.239.126a9.7,9.7,0,0,0,1.3-.126,10.268,10.268,0,0,1,1.323-.126c.714,0,1.071.274,1.071.8a.571.571,0,0,1-.21.5,1.5,1.5,0,0,1-.567.147l-.651-.043a.929.929,0,0,0-1.071.778l-2.666,11.359c-.189.86-.651,1.28-1.365,1.28a1.194,1.194,0,0,1-.966-.546,2.48,2.48,0,0,1-.462-1.07l-2.141-11.317Z" fill="#000000"/><path d="M491.775,940.1a.6.6,0,0,0-.65-.42l-.861.084a.711.711,0,0,1-.714-.84.766.766,0,0,1,.8-.651c.336,0,1.175.252,1.511.252l.525-.1.5-.105c.378,0,.567.294.567.9v7.789c0,.5.189.8.567.861l.735-.127c.525,0,.8.232.8.715s-.336.734-1.029.734l-1.974-.21a6.353,6.353,0,0,0-1.008.105l-1.049.105q-.945,0-.945-.818c0-.42.231-.631.714-.631a2.4,2.4,0,0,1,.819.127c.524,0,.776-.441.776-1.344v-5.543A2.737,2.737,0,0,0,491.775,940.1Zm.441-5.312a1.114,1.114,0,0,1,1.281,1.239,1.176,1.176,0,0,1-1.239,1.176,1.209,1.209,0,0,1-.042-2.415Z" fill="#000000"/><path d="M503.177,938a5.321,5.321,0,0,1,2.729.819q1.26.726,1.26,3.024v4.682c0,.861.21,1.323.609,1.385a3.426,3.426,0,0,1,.945-.125c.483,0,.735.231.735.672,0,.482-.315.734-.945.734l-1.05-.105-1.07-.105H505.7c-.23.042-.42.064-.546.084l-1.07.084c-.546.064-.819-.168-.819-.651s.231-.713.693-.713h.294a1.66,1.66,0,0,1,.44.084h.126l.084.041c.316,0,.5-.209.588-.65a7.858,7.858,0,0,0,.042-.987v-4.3a2.231,2.231,0,0,0-1.259-2.226,3.327,3.327,0,0,0-1.449-.315,2.711,2.711,0,0,0-2.519,1.323,4.524,4.524,0,0,0-.483,2.288v3.486c0,.9.294,1.344.9,1.344l.252-.043.356-.041c.483,0,.735.231.735.672,0,.482-.293.734-.9.734l-1.007-.105-1.071-.105a8.013,8.013,0,0,0-1.176.105l-1.113.105q-.88,0-.881-.818c0-.42.231-.631.713-.631a3.1,3.1,0,0,1,.9.168.575.575,0,0,0,.588-.545,4.109,4.109,0,0,0,.063-.924v-5.586c0-.818-.21-1.216-.651-1.216l-.861.125c-.524,0-.776-.231-.776-.672a.943.943,0,0,1,.189-.5.969.969,0,0,1,.545-.315c.231,0,.945.252,1.3.252l1.155-.21c.315,0,.483.252.483.736v.5A4.334,4.334,0,0,1,503.177,938Z" fill="#000000"/><path d="M517.876,937.2c.021-.715-.084-1.155-.294-1.344a.433.433,0,0,0-.314-.084,2.267,2.267,0,0,0-.862.125c-.546,0-.818-.252-.818-.734a.744.744,0,0,1,.734-.734h.442a2.592,2.592,0,0,1,.378.1l.65.084.126.042.546-.126c.336-.063.546-.1.609-.1.294,0,.441.293.441.86v11.19c0,.924.21,1.408.609,1.471a.522.522,0,0,1,.168-.021c.1-.042.188-.084.252-.106l.44-.084c.526,0,.778.232.778.715s-.21.734-.652.734l-.671-.105c-.4-.063-.63-.105-.672-.105a1.787,1.787,0,0,0-.546.105l-.525.105a.615.615,0,0,1-.546-.23,1.865,1.865,0,0,1-.189-.631L518,948a3.828,3.828,0,0,1-3.4,1.512,4.478,4.478,0,0,1-2.414-.693,5.066,5.066,0,0,1-2.164-3.233,5.955,5.955,0,0,1-.188-1.512v-.252l-.022-.252a3.591,3.591,0,0,1-.02-.419,5.7,5.7,0,0,1,.776-2.793A4.26,4.26,0,0,1,514.517,938a5.078,5.078,0,0,1,1.911.336,2.289,2.289,0,0,1,1.406,1.219Zm-5.605,9.427a2.978,2.978,0,0,0,5.059.084,6.742,6.742,0,0,0,.546-3.024c0-2.835-1.07-4.262-3.191-4.262a2.771,2.771,0,0,0-1.554.483,3.923,3.923,0,0,0-1.49,2.456,4.769,4.769,0,0,0-.126,1.113.405.405,0,0,1,.042.21A5.586,5.586,0,0,0,512.271,946.631Z" fill="#000000"/><path d="M522.645,940.815a4.681,4.681,0,0,1,2.709-2.519,5.143,5.143,0,0,1,1.763-.3,4.837,4.837,0,0,1,3.863,1.575,6,6,0,0,1,1.3,4.031c0,2.436-.86,4.179-2.582,5.207a4.825,4.825,0,0,1-2.5.693,5.161,5.161,0,0,1-2.6-.672,4.414,4.414,0,0,1-1.848-1.973,6.719,6.719,0,0,1-.651-3.107l.021-.715A5.677,5.677,0,0,1,522.645,940.815Zm6.109,6.824c1.2-.672,1.807-1.952,1.807-3.864,0-2.079-.61-3.443-1.807-4.051a3.185,3.185,0,0,0-1.385-.3,3.081,3.081,0,0,0-3.107,1.869,5.521,5.521,0,0,0-.463,2.309l.043.042a5.854,5.854,0,0,0,.692,2.982,2.715,2.715,0,0,0,2.5,1.448A3.444,3.444,0,0,0,528.754,947.639Z" fill="#000000"/><path d="M538.457,949.423c-.693,0-1.2-.525-1.471-1.553l-1.972-7.454a1.8,1.8,0,0,0-.211-.608c-.063-.106-.209-.168-.441-.168l-.21.02-.23.042-.336.063a.992.992,0,0,1-.567-.252.648.648,0,0,1-.252-.545c0-.442.378-.652,1.112-.652.147,0,.567.042,1.26.105l.945.1,2.184-.21c.545,0,.818.21.818.652,0,.545-.293.818-.86.818a3.433,3.433,0,0,0-.9-.146c-.4,0-.608.23-.608.692l.042.252.021.188,1.68,7.1,1.764-7.916c.252-1.154.756-1.722,1.49-1.722a1.258,1.258,0,0,1,1.07.5,3.375,3.375,0,0,1,.4,1.176l1.679,7.958,1.68-6.887.084-.693c0-.441-.188-.65-.567-.65l-.588.062-.4.063c-.525,0-.777-.273-.777-.84,0-.4.379-.609,1.113-.609a7.406,7.406,0,0,1,1.176.105l1.029.1a7.107,7.107,0,0,0,1.029-.1l.944-.147c.651,0,.987.231.987.694a.758.758,0,0,1-.672.8l-.378-.063-.482-.062c-.357,0-.672.524-.945,1.552l-1.785,6.678a2.892,2.892,0,0,1-.483,1.133,1.25,1.25,0,0,1-1.008.42,1.144,1.144,0,0,1-1.007-.5,5.692,5.692,0,0,1-.546-1.574l-1.554-7.433-1.722,7.727C539.717,948.835,539.213,949.423,538.457,949.423Z" fill="#000000"/><path d="M557.8,938.526c0-.441.252-.65.776-.65.441,0,.63.252.609.776l-.041.652-.064.608.021.21.084,1.406c.021.588-.189.883-.651.883a.594.594,0,0,1-.566-.295,1.767,1.767,0,0,1-.19-.8,1.752,1.752,0,0,0-.105-.693c-.021-.147-.147-.294-.4-.482a2.675,2.675,0,0,0-1.931-.715,2.358,2.358,0,0,0-2.016.967,1.561,1.561,0,0,0-.378.964,1.289,1.289,0,0,0,.84,1.135,7.294,7.294,0,0,0,1.848.461c1.2.19,1.889.315,2.036.336a3.512,3.512,0,0,1,1.512.861c.42.274.63.882.63,1.869a3.146,3.146,0,0,1-2.247,3.065,5.8,5.8,0,0,1-2.141.42,4.439,4.439,0,0,1-3.045-1.049l.063.4q0,.819-.755.819c-.525,0-.777-.4-.777-1.176l.147-.924.062-.65-.084-.567-.125-.777a.266.266,0,0,0-.043-.168c0-.546.252-.818.736-.818a.571.571,0,0,1,.587.336,5.884,5.884,0,0,1,.168.986,2.981,2.981,0,0,0,.189.924,3.554,3.554,0,0,0,2.247,1.134,5.646,5.646,0,0,0,.9.1,5.3,5.3,0,0,0,1.721-.5,1.43,1.43,0,0,0,.672-1.3,1.518,1.518,0,0,0-1.28-1.533,11.909,11.909,0,0,0-1.176-.23l-1.2-.168A4.29,4.29,0,0,1,551.729,943a2.106,2.106,0,0,1-.5-1.575l.042-.525a2.636,2.636,0,0,1,.8-1.638,3.81,3.81,0,0,1,1.575-.965,5.294,5.294,0,0,1,1.659-.3,3.706,3.706,0,0,1,2.54.735Z" fill="#000000"/><path d="M577.494,938.19a3.922,3.922,0,0,1-2.624-1.007,3.582,3.582,0,0,0-2.2-1.03c-.819,0-1.239.631-1.239,1.891a5.88,5.88,0,0,0,.126,1.008,5.661,5.661,0,0,1,.126.986.792.792,0,0,1-.9.9c-.524,0-.776-.272-.776-.818a7.65,7.65,0,0,1,.105-1.218l.1-1.28-.1-1.239-.105-.966c0-.777.272-1.154.819-1.154.4,0,.567.293.525.86l-.064.735.043.021a2.26,2.26,0,0,1,1.994-1.448,2.8,2.8,0,0,1,1.218.252,6.145,6.145,0,0,1,.777.44,6.987,6.987,0,0,1,.587.42c.211.147.61.42,1.176.819a3.352,3.352,0,0,0,.967.4.863.863,0,0,1,.293.042,1.717,1.717,0,0,0,.8-.232.73.73,0,0,0,.336-.461c-.61,0-.946-.252-1.03-.777a1.107,1.107,0,0,1,1.155-1.029,1.187,1.187,0,0,1,1.071.672,2.924,2.924,0,0,1,.294,1.323,4.563,4.563,0,0,1-.441,2.057,6.669,6.669,0,0,1-1.281,1.659l-1.7,1.659a7.241,7.241,0,0,0-1.911,5.438v.84c0,1.008-.378,1.512-1.112,1.512q-1.073,0-1.072-1.827a9.435,9.435,0,0,1,1.617-5.585,9.3,9.3,0,0,1,1.427-1.575l1.387-1.218.566-.525a7.96,7.96,0,0,0,.63-.608,1.029,1.029,0,0,0,.273-.547l-.041-.041A2.154,2.154,0,0,1,577.494,938.19Z" fill="#000000"/><path d="M590.031,933.193l.5-.042c.274-.021.4.063.4.252v.126l-6.424,16.693a.491.491,0,0,1-.5.314h-.652c-.231,0-.377-.084-.419-.23l.042-.084,6.572-16.861C589.569,933.277,589.717,933.214,590.031,933.193Z" fill="#000000"/><path d="M603.344,937.708a3.223,3.223,0,0,0,.168-.861c0-.63-.293-.924-.9-.862l-.986.084a.772.772,0,0,1-.861-.776c0-.483.357-.714,1.07-.714a3.7,3.7,0,0,1,.525.022c.126.02.358.041.694.084l1.2.1.944-.084c.631-.063,1.008-.084,1.156-.084.692,0,1.028.273,1.028.8,0,.357-.209.588-.629.65-.063-.062-.252-.084-.567-.084-.273,0-.441.19-.525.568l-4.074,11.778a2.5,2.5,0,0,0-.146.336.973.973,0,0,1-.336.42,1.107,1.107,0,0,1-.819.273,1.318,1.318,0,0,1-1.407-.9l-4.095-11.485a1.47,1.47,0,0,0-.482-.8.763.763,0,0,0-.672-.231l-.314.021-.358.042-.462.062a.694.694,0,0,1-.315-1.3,2.058,2.058,0,0,1,.924-.19,10.8,10.8,0,0,1,1.449.106l1.386.1,1.049-.1,1.323-.148c.819,0,1.239.273,1.239.8,0,.42-.294.672-.86.734a5.468,5.468,0,0,0-1.03-.084.75.75,0,0,0-.818.736l.084.378,3.359,10.246Z" fill="#000000"/><path d="M610.045,940.1a.6.6,0,0,0-.651-.42l-.861.084a.712.712,0,0,1-.715-.84.767.767,0,0,1,.8-.651c.336,0,1.176.252,1.512.252l.524-.1.5-.105c.378,0,.568.294.568.9v7.789c0,.5.188.8.566.861l.734-.127c.526,0,.8.232.8.715s-.336.734-1.029.734l-1.974-.21a6.364,6.364,0,0,0-1.008.105l-1.049.105q-.945,0-.946-.818c0-.42.232-.631.715-.631a2.4,2.4,0,0,1,.819.127c.525,0,.777-.441.777-1.344v-5.543A2.767,2.767,0,0,0,610.045,940.1Zm.44-5.312a1.114,1.114,0,0,1,1.281,1.239,1.176,1.176,0,0,1-1.239,1.176,1.209,1.209,0,0,1-.042-2.415Z" fill="#000000"/><path d="M621.867,938.526c0-.441.252-.65.777-.65.44,0,.629.252.608.776l-.041.652-.064.608.021.21.084,1.406c.021.588-.189.883-.65.883a.6.6,0,0,1-.567-.295,1.768,1.768,0,0,1-.189-.8,1.745,1.745,0,0,0-.106-.693c-.02-.147-.146-.294-.4-.482a2.677,2.677,0,0,0-1.932-.715,2.355,2.355,0,0,0-2.015.967,1.561,1.561,0,0,0-.378.964,1.287,1.287,0,0,0,.839,1.135,7.307,7.307,0,0,0,1.848.461c1.2.19,1.89.315,2.036.336a3.5,3.5,0,0,1,1.512.861c.42.274.631.882.631,1.869a3.148,3.148,0,0,1-2.247,3.065,5.806,5.806,0,0,1-2.142.42,4.441,4.441,0,0,1-3.045-1.049l.064.4q0,.819-.756.819c-.525,0-.777-.4-.777-1.176l.147-.924.062-.65-.084-.567-.125-.777a.274.274,0,0,0-.042-.168c0-.546.251-.818.735-.818a.572.572,0,0,1,.588.336,6.107,6.107,0,0,1,.168.986,2.988,2.988,0,0,0,.188.924,3.554,3.554,0,0,0,2.247,1.134,5.657,5.657,0,0,0,.9.1,5.3,5.3,0,0,0,1.72-.5,1.428,1.428,0,0,0,.672-1.3,1.518,1.518,0,0,0-1.28-1.533,11.909,11.909,0,0,0-1.176-.23l-1.2-.168A4.293,4.293,0,0,1,615.8,943a2.106,2.106,0,0,1-.5-1.575l.042-.525a2.632,2.632,0,0,1,.8-1.638,3.807,3.807,0,0,1,1.574-.965,5.3,5.3,0,0,1,1.659-.3,3.7,3.7,0,0,1,2.54.735Z" fill="#000000"/><path d="M628.377,938.274h2.414c.567,0,.861.252.861.735,0,.525-.336.777-.986.777h-2.205c-.231,0-.336.106-.336.294v5.459a3.663,3.663,0,0,0,.252,1.554,1.324,1.324,0,0,0,1.3.693,1.241,1.241,0,0,0,1.259-.693,3.867,3.867,0,0,0,.21-1.554v-.651c0-.777.274-1.155.8-1.155q.819,0,.82,1.2c0,1.952-.442,3.212-1.324,3.82a3.514,3.514,0,0,1-2.057.525c-1.91,0-2.856-1.175-2.856-3.527v-5.333c0-.42-.189-.63-.546-.63h-.44c-.651,0-.987-.252-.987-.734a.789.789,0,0,1,.776-.778h.861c.231,0,.336-.168.336-.482v-2.1a.914.914,0,0,1,.21-.63.94.94,0,0,1,.568-.231.9.9,0,0,1,.588.19.927.927,0,0,1,.23.628V938C628.125,938.19,628.209,938.274,628.377,938.274Z" fill="#000000"/><path d="M636.609,940.521a.839.839,0,0,1,.357.8,1.07,1.07,0,0,1-1.155.987l-.252-.042a1.178,1.178,0,0,1-.756-.5,1.326,1.326,0,0,1-.315-.861,3.015,3.015,0,0,1,2.184-2.562,4.2,4.2,0,0,1,1.806-.357l.44.021c1.785.084,2.919.715,3.381,1.869a4.166,4.166,0,0,1,.357,2.058l-.127,4.387c-.02,1.051.232,1.66.778,1.848.525-.125.777-.629.777-1.512v-.734c0-.65.23-.986.672-.986.482,0,.734.23.734.692V947.6c-.126,1.217-.861,1.826-2.225,1.826a2.643,2.643,0,0,1-1.386-.377,1.4,1.4,0,0,1-.777-1.135,3.6,3.6,0,0,1-3.4,1.6,4.841,4.841,0,0,1-2.247-.525,2.612,2.612,0,0,1-1.512-1.637l-.188-.987a2.964,2.964,0,0,1,2.016-2.919,6.643,6.643,0,0,1,1.511-.356l1.805-.231a2.985,2.985,0,0,0,1.2-.316,1.321,1.321,0,0,0,.651-1.217,1.746,1.746,0,0,0-1.2-1.659,2.625,2.625,0,0,0-1.049-.231,3.406,3.406,0,0,0-1.848.483.715.715,0,0,0-.378.5Zm2.75,3.716-1.847.294a3.192,3.192,0,0,0-1.344.462,1.789,1.789,0,0,0-.65,1.238c0,1.24.734,1.848,2.224,1.848a4.622,4.622,0,0,0,1.848-.44,2.5,2.5,0,0,0,1.219-1.911c.02-.189.062-.609.084-1.217l.041-.946A2.855,2.855,0,0,1,639.359,944.237Z" fill="#000000"/><path d="M653.555,933.193l.5-.042c.273-.021.4.063.4.252v.126l-6.424,16.693a.491.491,0,0,1-.5.314h-.651c-.232,0-.378-.084-.42-.23l.042-.084,6.572-16.861C653.093,933.277,653.24,933.214,653.555,933.193Z" fill="#000000"/><path d="M667.205,936.427a.5.5,0,0,0,.125-.315c0-.127-.146-.189-.461-.189a3.669,3.669,0,0,0-1.26.146c-.525,0-.8-.209-.8-.65,0-.566.294-.84.882-.84.105,0,.756.063,1.911.168.377.022.609.042.713.042l1.449-.1c.147-.022.42-.043.777-.084a4.906,4.906,0,0,1,.63-.022q.945,0,.944.756c0,.42-.293.672-.86.734a2.531,2.531,0,0,0-.861-.084,1.414,1.414,0,0,0-1.113.61l-4.031,4.955,4.7,5.627a1.809,1.809,0,0,0,1.008.65l.714-.084c.608,0,.9.252.9.756,0,.483-.3.735-.861.735l-1.533-.168a11.9,11.9,0,0,0-1.26-.084l-1.322.126c-.819.084-1.282.126-1.386.126-.82,0-1.239-.252-1.239-.776,0-.483.315-.715.945-.715h.734c.252.043.442.064.547.084.357,0,.524-.084.524-.23a1.729,1.729,0,0,0-.293-.672l-3.318-4.137-3.359,4.263a1.739,1.739,0,0,0-.252.5c0,.126.231.21.714.272a10.753,10.753,0,0,1,1.3-.084c.652,0,.966.252.966.756a.656.656,0,0,1-.23.567,1.1,1.1,0,0,1-.652.168,10.825,10.825,0,0,1-1.343-.126,10.775,10.775,0,0,0-1.365-.126,14.084,14.084,0,0,0-1.491.105l-1.532.105a2.753,2.753,0,0,1-1.008-.126.563.563,0,0,1-.4-.608c0-.441.294-.672.9-.672a5.515,5.515,0,0,1,.818.041,1.574,1.574,0,0,0,.378-.041,1.831,1.831,0,0,0,1.029-.735l4.494-5.5-4.347-5.039a1.4,1.4,0,0,0-1.092-.526,3.616,3.616,0,0,0-.987.084c-.482,0-.734-.23-.734-.692,0-.524.42-.8,1.259-.8h.735c.189.022.379.063.609.084l1.113.126,1.512-.1c.147-.022.4-.043.777-.084a4.9,4.9,0,0,1,.629-.022c.694,0,1.03.294,1.03.9,0,.336-.3.526-.9.588a6.542,6.542,0,0,0-1.385-.146.238.238,0,0,0-.252.146l.126.232,3.023,3.989Z" fill="#000000"/><path d="M675.291,937.624c0-1.176-.378-1.743-1.134-1.68l-.272.021-.672.1c-.463-.041-.693-.272-.693-.692,0-.567.335-.84,1.007-.84l1.344.126,1.574.126,1.807-.1c.188-.022.545-.064,1.049-.084.231-.022.588-.022,1.051-.022,3.463,0,5.207,1.365,5.207,4.115a3.628,3.628,0,0,1-1.639,3.254,6.724,6.724,0,0,1-3.695.883H677.6q-.5,0-.5.566v2.31a5.193,5.193,0,0,0,.126,1.364.939.939,0,0,0,.945.8,4.874,4.874,0,0,1,1.112-.127c.441,0,.652.232.652.715,0,.545-.336.8-.988.734l-1.364-.105c-.127-.021-.357-.041-.715-.084a5.742,5.742,0,0,0-.713-.021c-.127,0-.609.042-1.427.126l-1.156.126c-.692,0-1.049-.272-1.049-.819,0-.42.23-.629.693-.629h.482a1.27,1.27,0,0,1,.462.084.988.988,0,0,0,1.008-.672,4.74,4.74,0,0,0,.126-1.323Zm1.91,3.652a1.111,1.111,0,0,0,.672.127H680.1c1.658,0,2.728-.441,3.191-1.343a3.557,3.557,0,0,0,.336-1.66,2.062,2.062,0,0,0-1.387-2.057,7.805,7.805,0,0,0-2.666-.358h-.734a3.063,3.063,0,0,0-1.3.232.6.6,0,0,0-.356.42,2.421,2.421,0,0,0-.084.819v3.17A1.472,1.472,0,0,0,677.2,941.276Z" fill="#000000"/><path d="M693.79,933.193l.5-.042c.272-.021.4.063.4.252v.126l-6.425,16.693a.491.491,0,0,1-.5.314h-.651c-.23,0-.378-.084-.42-.23l.042-.084,6.572-16.861C693.328,933.277,693.475,933.214,693.79,933.193Z" fill="#000000"/><path d="M698.832,946.483a2.962,2.962,0,0,1,2.54-1.07,3.711,3.711,0,0,1,1.407.42,9.113,9.113,0,0,1,1.217.861,11.972,11.972,0,0,0,1.155.819,1.2,1.2,0,0,0,.42.168,1.493,1.493,0,0,0,.568.084l.524-.063a.784.784,0,0,0,.651-.5,1.611,1.611,0,0,0,.209-.84.98.98,0,0,0-.084-.483,1,1,0,0,1-.776.4.806.806,0,0,1-.651-.336.935.935,0,0,1-.252-.693,1.013,1.013,0,0,1,.379-.818,1.333,1.333,0,0,1,.881-.274,1.55,1.55,0,0,1,1.365.651,2.48,2.48,0,0,1,.441,1.511,3.022,3.022,0,0,1-1.428,2.709,2.762,2.762,0,0,1-1.511.442,3.445,3.445,0,0,1-1.848-.61l-1.848-1.2a3.455,3.455,0,0,0-1.847-.608,1.313,1.313,0,0,0-1.428.86c.608,0,.9.211.9.651q0,.945-1.07.945a1.378,1.378,0,0,1-1.281-.777,3.2,3.2,0,0,1-.358-1.553l.084-.735a4.818,4.818,0,0,1,3.045-3.822,21.234,21.234,0,0,1,2.394-.924c1.134-.377,1.868-.65,2.225-.8a2.381,2.381,0,0,0,1.6-2.289,2.617,2.617,0,0,0-1.6-2.457,4.3,4.3,0,0,0-1.931-.42,3.819,3.819,0,0,0-3,1.135,1.359,1.359,0,0,0-.442.84.406.406,0,0,0,.378.336c.525.062.777.377.777.965a1.1,1.1,0,0,1-.5.9,2.206,2.206,0,0,1-.987.42,1.328,1.328,0,0,1-1.175-.714,2.538,2.538,0,0,1-.378-1.386,4.11,4.11,0,0,1,3.023-3.547,7.308,7.308,0,0,1,2.436-.42c2.415,0,3.989.756,4.723,2.288a4.683,4.683,0,0,1,.484,2.057,3.623,3.623,0,0,1-.252,1.47,3.46,3.46,0,0,1-1.028,1.344,5.7,5.7,0,0,1-1.428.84l-2.983,1.007a8.366,8.366,0,0,0-2.918,1.576,2.081,2.081,0,0,0-.861,1.552Z" fill="#000000"/><path d="M713.468,935.293a5.194,5.194,0,0,1,3.149-1.028,5.385,5.385,0,0,1,4.43,2.078,8.018,8.018,0,0,1,1.512,5.1,10.411,10.411,0,0,1-1.323,5.5,5.55,5.55,0,0,1-4.787,2.561,5.137,5.137,0,0,1-3.737-1.6,7.944,7.944,0,0,1-2-5.857l.043-.462Q710.76,937.278,713.468,935.293Zm-.294,9.847c.63,1.827,1.742,2.73,3.317,2.73,1.952,0,3.234-1.113,3.8-3.339a11.848,11.848,0,0,0,.379-2.919v-.293l-.022-.252a7.124,7.124,0,0,0-1.07-3.863,3.734,3.734,0,0,0-3.045-1.3q-2.425,0-3.338,2.772a9.93,9.93,0,0,0-.5,3.171A10.2,10.2,0,0,0,713.174,945.14Z" fill="#000000"/><path d="M726.8,935.293a5.194,5.194,0,0,1,3.149-1.028,5.388,5.388,0,0,1,4.431,2.078,8.018,8.018,0,0,1,1.512,5.1,10.411,10.411,0,0,1-1.324,5.5,5.55,5.55,0,0,1-4.787,2.561,5.134,5.134,0,0,1-3.737-1.6,7.948,7.948,0,0,1-1.994-5.857l.041-.462Q724.094,937.278,726.8,935.293Zm-.294,9.847c.63,1.827,1.743,2.73,3.317,2.73,1.953,0,3.234-1.113,3.8-3.339a11.844,11.844,0,0,0,.377-2.919v-.293l-.021-.252a7.132,7.132,0,0,0-1.071-3.863,3.728,3.728,0,0,0-3.044-1.3q-2.424,0-3.339,2.772a9.93,9.93,0,0,0-.5,3.171A10.173,10.173,0,0,0,726.509,945.14Z" fill="#000000"/><path d="M740.138,935.293a5.194,5.194,0,0,1,3.149-1.028,5.387,5.387,0,0,1,4.43,2.078,8.018,8.018,0,0,1,1.512,5.1,10.411,10.411,0,0,1-1.323,5.5,5.552,5.552,0,0,1-4.787,2.561,5.137,5.137,0,0,1-3.737-1.6,7.944,7.944,0,0,1-2-5.857l.043-.462Q737.43,937.278,740.138,935.293Zm-.294,9.847c.63,1.827,1.742,2.73,3.317,2.73,1.952,0,3.234-1.113,3.8-3.339a11.848,11.848,0,0,0,.379-2.919v-.293l-.022-.252a7.133,7.133,0,0,0-1.07-3.863,3.734,3.734,0,0,0-3.045-1.3q-2.425,0-3.338,2.772a9.93,9.93,0,0,0-.5,3.171A10.2,10.2,0,0,0,739.844,945.14Z" fill="#000000"/></g><g id="上海_アリス幻樂団-2" data-name="上海■アリス幻樂団"><path d="M934.61,905.738a1.572,1.572,0,0,1,.842.217.635.635,0,0,1,.365.607l-.063,1.964h3.289a4.629,4.629,0,0,1,1.032.073.431.431,0,0,1,.238.447,1.075,1.075,0,0,1-.206.636.74.74,0,0,1-.556.231q-.27,0-1.113-.044c-.529-.009-1.011-.015-1.445-.015-.339,0-.778.006-1.318.015l-.1,2.817q2.637.086,6.593.621a2.591,2.591,0,0,1-.477,1.314.82.82,0,0,1-.682.419,6,6,0,0,1-1.224-.217,24.053,24.053,0,0,0-5.37-.635,18.72,18.72,0,0,0-5.242.693,4.135,4.135,0,0,1-1.065.217.9.9,0,0,1-.6-.275.721.721,0,0,1-.285-.519.859.859,0,0,1,.761-.925,24.743,24.743,0,0,1,5.657-.693l-.064-6.124a.691.691,0,0,1,.286-.578A1.032,1.032,0,0,1,934.61,905.738Z" fill="#000000"/><path d="M927.874,923.928l2.669.057q.444.115.444.362,0,.375-.9.678a20.665,20.665,0,0,1-2.161.535.906.906,0,0,1-.492-.232.608.608,0,0,1-.254-.462,1.22,1.22,0,0,1,.206-.649A.657.657,0,0,1,927.874,923.928Zm1.144-3.755a2.19,2.19,0,0,1,1.175.649q1.224,1.026,1.224,1.257c0,.24-.144.361-.43.361a2.728,2.728,0,0,1-.634-.1,9.367,9.367,0,0,0-1.51-.173q-.795-.074-.794-1.055a.889.889,0,0,1,.3-.664A1.046,1.046,0,0,1,929.018,920.173Zm1.128,6.542c.179,0,.27.072.27.217q0,.26-.238,1.978-.065.621-.859.621a1.31,1.31,0,0,1-.747-.2.8.8,0,0,1-.317-.649.9.9,0,0,1,.238-.463l1.3-1.314A.582.582,0,0,1,930.146,926.715Zm3.829-4.059a1.181,1.181,0,0,1,.619.145.207.207,0,0,1,.08.044q1.032-.058,2.652-.059,2.575,0,3.258.072c.211.02.317.092.317.217a1.555,1.555,0,0,1-.127.319,8.211,8.211,0,0,0-.476,1.66q.938.058,1.985.144a2.03,2.03,0,0,1-.365,1.084.737.737,0,0,1-.572.375,3.645,3.645,0,0,1-.937-.2c-.138-.029-.27-.058-.4-.087-.033.145-.059.294-.079.448s-.07.3-.112.448q.731.043,1.319.072c.179.029.27.087.27.174a.951.951,0,0,1-.207.635.719.719,0,0,1-.556.246q-.287,0-1.16-.058a3.093,3.093,0,0,1-.508.91,1.077,1.077,0,0,1-.874.534,1.385,1.385,0,0,1-1.16-.693,2.4,2.4,0,0,0,.715-.838q-1.62-.043-3.94-.043a3.738,3.738,0,0,0-1.207.145,1.3,1.3,0,0,1-.4.1.667.667,0,0,1-.444-.159.39.39,0,0,1-.191-.36,1.445,1.445,0,0,1,.159-.477q.222-.564.445-1.141c-.138.029-.271.052-.4.072a4.552,4.552,0,0,1-.969.159.538.538,0,0,1-.382-.2.435.435,0,0,1-.19-.319.548.548,0,0,1,.508-.577,17.242,17.242,0,0,1,1.891-.332q.365-.982.73-2.037Q933.4,922.657,933.975,922.656Zm-.4-2.642a2.676,2.676,0,0,1,1.033.173q.3.174.3.4a.832.832,0,0,1-.111.361q1.048-.086,2.875-.087,2.892,0,4.3.131a1.978,1.978,0,0,1-.286,1.025.45.45,0,0,1-.413.246c-.221,0-.678-.02-1.366-.058q-1.653-.13-2.732-.13-1.4,0-2.542.115a7.736,7.736,0,0,1-.858.073.32.32,0,0,1-.1-.015.687.687,0,0,0-.126.116,3.233,3.233,0,0,1-2.018,1.054c-.286,0-.43-.081-.43-.245,0-.077.07-.179.207-.3a7.869,7.869,0,0,0,1.43-1.5,1.688,1.688,0,0,0,.4-.895.764.764,0,0,0-.207-.419A3.713,3.713,0,0,1,933.577,920.014Zm1.557,7.164.318-1.2q-.841.029-1.621.1l-.381,1.039c0,.039.132.059.4.059Zm-.9-2.2q.7-.043,1.509-.058l.3-1.1q-.779.015-1.414.044Zm3.844,2.239a.1.1,0,0,0,.016-.043c.128-.4.244-.756.349-1.084a15.363,15.363,0,0,0-1.715-.13l-.318,1.227C937,927.191,937.555,927.2,938.073,927.221Zm-.762-3.395-.318,1.1q.826,0,1.779.044a5.516,5.516,0,0,0,.207-.983Q938.979,923.843,937.311,923.826Z" fill="#000000"/><path d="M940.79,944.816H928.572V933.652H940.79Z" fill="#000000"/><path d="M919.161,909.6A8.6,8.6,0,0,1,919,911.56a3.04,3.04,0,0,1-1,1.588,5.783,5.783,0,0,1-2.4,1.314,6.2,6.2,0,0,1-1.828.318q-1.318,0-1.318-.91a2.272,2.272,0,0,1,1.1-2.051q.143.521.953.52a2.135,2.135,0,0,0,2.224-1.242,3.081,3.081,0,0,0,.208-.909v-.651q0-.736.984-.736a2.25,2.25,0,0,1,.874.115A.677.677,0,0,1,919.161,909.6Zm5.8-2.008a.722.722,0,0,1-.333.593,6.968,6.968,0,0,0-.684.419,1.541,1.541,0,0,0-.524.36q-1.764,1.806-2.367,1.806-.732,0-.731-.549a4.889,4.889,0,0,1,.6-1.155.924.924,0,0,0,.111-.332c0-.25-.143-.376-.429-.376-.032,0-.36-.009-.985-.029s-1.012-.044-1.16-.044a18.442,18.442,0,0,0-3.034.246q-1.479.233-1.574.231a1.059,1.059,0,0,1-.587-.188.858.858,0,0,1-.366-.693,1.016,1.016,0,0,1,1.017-1.1,23.1,23.1,0,0,1,2.972-.187q3.431,0,5.8.187a8,8,0,0,1,1.748.275Q924.959,907.241,924.96,907.587Z" fill="#000000"/><path d="M923.006,921.5q0,.261-.159,2.1a6.049,6.049,0,0,1-2,4.433,6.8,6.8,0,0,1-4.227,1.142,6.271,6.271,0,0,1-1.35-.1c-.562-.125-.842-.384-.842-.78q0-.923,1.462-1.906a1.737,1.737,0,0,0,1.477.491,3.012,3.012,0,0,0,1.843-.693,3.67,3.67,0,0,0,1.3-3.048v-.9c.01-.384.015-.611.015-.678q0-.78,1.255-.78a1.841,1.841,0,0,1,.795.173C922.863,921.1,923.006,921.279,923.006,921.5Zm-6.212-.072q0,.174-.016,1.242-.015,1.084-.015,1.459,0,1.488-1.224,1.487-.954,0-.953-1.054c0-.125-.017-.583-.048-1.372s-.032-1.334-.032-1.632q0-.75,1.192-.751Q916.795,920.808,916.794,921.429Z" fill="#000000"/><path d="M924.4,942.621a2.059,2.059,0,0,1-1.477.91,1.558,1.558,0,0,1-.89-.448q-.191-.144-.636-.491-.413-.332-.714-.549a15.645,15.645,0,0,0-2.542-1.4q-2.812,2.425-4.957,2.425c-.562,0-.842-.3-.842-.909a3.412,3.412,0,0,1,.9-1.848.923.923,0,0,0,.667.245,3.812,3.812,0,0,0,1.542-.448,7.549,7.549,0,0,0,1.6-.954,11.1,11.1,0,0,0,1.017-.953q.429-.476.429-.621,0-.23-.461-.23a22.375,22.375,0,0,0-2.764.144q-1.113.115-1.017.115a.9.9,0,0,1-.842-.924q0-.867,1.08-.867l1.8-.029q1.859-.072,2.78-.072a8.085,8.085,0,0,1,2.573.246c.319.115.477.289.477.519a.557.557,0,0,1-.27.434,3.636,3.636,0,0,0-.508.4q-.494.52-1.859,2.051a12.285,12.285,0,0,0,3.146,1.387q.683.216,2.065.563c.1.02.217.048.365.087h.016A2.221,2.221,0,0,1,924.4,942.621Z" fill="#000000"/><path d="M900.025,905.638a.948.948,0,0,1,.684.216.844.844,0,0,1,.254.578,1.447,1.447,0,0,1-.588.982l-1.922,1.487c-.275.251-.413.411-.413.477,0,.144.18.3.54.476l.715.261q.984-.78,1.923-1.56a1.4,1.4,0,0,1,.842-.433.9.9,0,0,1,.507.188.663.663,0,0,1,.255.491,1.7,1.7,0,0,1-.731,1.242l-3.019,2.44,2.463.073c.085,0,.127-.053.127-.16q-.636-.633-.636-.808c0-.27.149-.4.446-.4a4.1,4.1,0,0,1,1.683,1.04q1.049.822,1.049,1.27,0,.636-.572.636a4.762,4.762,0,0,1-.667-.1,19.032,19.032,0,0,0-1.97-.072h-2.113a11.075,11.075,0,0,0-2.066.145,2.089,2.089,0,0,1-.476.144c-.647,0-.969-.193-.969-.578a1.546,1.546,0,0,1,.763-1.141q.9-.665,1.762-1.314a12.293,12.293,0,0,0-1.874-.751q-.714-.2-.714-.491t.634-.853l2.686-2.629A2.532,2.532,0,0,1,900.025,905.638Zm6.165.519q2.605,0,3.384.087.492.087.492.318a.663.663,0,0,1-.111.26,1.538,1.538,0,0,0-.222.824l-.095,4.144a3.585,3.585,0,0,1-1.287,2.6,3.393,3.393,0,0,1-2.161.838,1.248,1.248,0,0,1-.874-.375,3.332,3.332,0,0,1-.778-1.416,6.145,6.145,0,0,0,2.558-.794,2.078,2.078,0,0,0,.874-1.849v-2.961c0-.125-.091-.187-.271-.187q-2.3,0-3.7.115a6,6,0,0,1-1,.13.655.655,0,0,1-.476-.275.834.834,0,0,1-.223-.606q0-.592.874-.781Q903.616,906.159,906.19,906.157Z" fill="#000000"/><path d="M898.294,920.173a.634.634,0,0,1,.509.187.641.641,0,0,1,.19.448.658.658,0,0,1-.3.463l-1,.707q-.222.188-.222.231c0,.038.079.077.238.115l.286.058.684-.563a.886.886,0,0,1,.523-.246.442.442,0,0,1,.493.506.61.61,0,0,1-.334.5l-1.7,1.228c0,.039.048.058.144.058h1.128c.094,0,.142-.019.142-.058a1.894,1.894,0,0,1-.206-.52c0-.145.112-.217.333-.217.181,0,.45.179.811.534.307.329.461.574.461.738,0,.307-.17.462-.509.462a2.707,2.707,0,0,1-.429-.058h-1.366a14.933,14.933,0,0,0-1.827.087,1.478,1.478,0,0,1-.381.086.425.425,0,0,1-.271-.1.293.293,0,0,1-.126-.26q0-.187.476-.535l.874-.751a8.407,8.407,0,0,0-1.1-.389q-.38-.087-.38-.232c0-.095.127-.255.38-.476l1.637-1.5A1.575,1.575,0,0,1,898.294,920.173Zm4.575-.275a2.919,2.919,0,0,1,.938.1q.222.072.222.231a.979.979,0,0,1-.159.477,12.8,12.8,0,0,1,1.685.145c.159.028.238.1.238.2q-.079.345-.19,1.025l.174-.159,1.62-1.4a1.557,1.557,0,0,1,.827-.462.661.661,0,0,1,.508.187.677.677,0,0,1,.191.448q0,.188-.334.434l-1.1.635c-.148.106-.222.174-.222.2,0,.049.063.1.19.159l.3.13.572-.447a.914.914,0,0,1,.524-.232.448.448,0,0,1,.508.506c0,.183-.121.342-.365.477l-1.731,1.155c0,.029.041.043.126.043h1c.138,0,.207-.014.207-.043a1.728,1.728,0,0,1-.207-.477c0-.144.112-.216.334-.216q.27,0,.763.52.444.447.444.692,0,.463-.444.463h-1.811a13.352,13.352,0,0,0-1.7.086,1.277,1.277,0,0,1-.38.087.482.482,0,0,1-.3-.13.294.294,0,0,1-.112-.216.6.6,0,0,1-.222.043,1.8,1.8,0,0,1-.254-.043q-.462-.043-1.272-.058l.1.043a.956.956,0,0,1,.413.593q2.479.072,6.18.462a2.241,2.241,0,0,1-.444,1.2.777.777,0,0,1-.652.419,5.283,5.283,0,0,1-1.176-.232,22.028,22.028,0,0,0-3.924-.606l-.032,1.646a2.2,2.2,0,0,1-.334,1.285.883.883,0,0,1-.809.449,1.255,1.255,0,0,1-.826-.289q-.334-.218-.334-1.329v-1.777a22.716,22.716,0,0,0-4.354.534,5.088,5.088,0,0,1-1.111.188.653.653,0,0,1-.43-.2.482.482,0,0,1-.206-.361.661.661,0,0,1,.571-.708,24.219,24.219,0,0,1,5.545-.664.88.88,0,0,1,.319-.549,1.309,1.309,0,0,1,.158-.1,8.917,8.917,0,0,0-1.048.1.715.715,0,0,1-.207.073c-.2,0-.323-.155-.365-.463l-.334-2.946a.351.351,0,0,1,.3-.347c.4-.068.811-.115,1.224-.145a1.3,1.3,0,0,0,.143-.447c0-.067-.069-.159-.206-.274A7.457,7.457,0,0,1,902.869,919.9Zm-3.034,7.221c.085,0,.127.039.127.116a1.953,1.953,0,0,1-.763,1.271,2.881,2.881,0,0,1-1.795.852q-.572,0-.572-.736a1.164,1.164,0,0,1,.271-.867c.021.077.121.115.3.115a3.8,3.8,0,0,0,1.843-.577A1.591,1.591,0,0,1,899.835,927.119Zm2.05-4.867a9.014,9.014,0,0,1,.937-.043c.381,0,.768.015,1.159.043l.048-.5c0-.049-.037-.082-.111-.1a6.609,6.609,0,0,0-1.159-.073,3.08,3.08,0,0,0-.763.087c-.085.02-.127.048-.127.087Zm.238,1.344a4.82,4.82,0,0,1,.731-.058,5.979,5.979,0,0,1,.841.058.19.19,0,0,0,.207-.174l.032-.419c-.392-.028-.762-.043-1.112-.043s-.651.01-.906.029l.017.549C901.933,923.576,902,923.6,902.123,923.6Zm3.241.562c.074-.066.164-.148.27-.245l1.016-.794a6.914,6.914,0,0,0-.936-.476,1.011,1.011,0,0,1-.175-.087C905.485,923.008,905.428,923.543,905.364,924.158Zm.429,3.02a2.254,2.254,0,0,1,.842.23,9.059,9.059,0,0,0,1.97.694,2.554,2.554,0,0,1-.572,1.054,1.252,1.252,0,0,1-.762.26,1.318,1.318,0,0,1-.859-.477,3.02,3.02,0,0,1-.809-1.588C905.6,927.235,905.666,927.178,905.793,927.178Z" fill="#000000"/><path d="M902.869,934.793a48.509,48.509,0,0,1,6.133.26c.371.049.557.154.557.318q-.318,1.977-.7,7.9c-.021.347-.154.52-.4.52-.1,0-.328-.024-.7-.072q-1.605-.144-4.925-.145-3.4,0-5.259.174a4,4,0,0,1-.619.1c-.2,0-.323-.15-.366-.448l-.635-7.8q0-.42.746-.52Q899.756,934.794,902.869,934.793Zm-4.639,7.452q1.3-.027,2.575-.043a.635.635,0,0,1-.144-.144,1.646,1.646,0,0,1-.334-1.083,5.836,5.836,0,0,0,2.24-.332.759.759,0,0,0,.494-.651V938.36a19.936,19.936,0,0,0-3.115.26q-.762.1-.953.1a.64.64,0,0,1-.445-.174.69.69,0,0,1-.175-.462.622.622,0,0,1,.43-.592,22.563,22.563,0,0,1,4.258-.217v-.693a.579.579,0,0,1,.142-.4h-.334q-2.382,0-4.431.158-.78.058-.78.174l.382,5.618C898.04,942.207,898.1,942.245,898.23,942.245Zm3.575-3.48a.375.375,0,0,1,.429.419q0,.115-.381.462a4.962,4.962,0,0,1-1.223.722,3.071,3.071,0,0,1-1.065.245c-.329,0-.493-.134-.493-.4a1.467,1.467,0,0,1,.366-.852.276.276,0,0,0,.254.1,2.7,2.7,0,0,0,.842-.159,4.1,4.1,0,0,0,.953-.447A.6.6,0,0,1,901.805,938.765Zm2.716-2.585a.338.338,0,0,1,.081.216,3.12,3.12,0,0,0-.064.52v.376q1.207.042,2.525.158a2.009,2.009,0,0,1-.3,1.083.6.6,0,0,1-.46.189,5.647,5.647,0,0,1-.826-.1c-.34-.067-.652-.12-.938-.158v1.689a1.766,1.766,0,0,1-.906,1.632,4.958,4.958,0,0,1-.969.4h4.4c.128,0,.2-.082.208-.246l.365-5.488c0-.077-.138-.13-.413-.159Q906.286,936.208,904.521,936.18Z" fill="#000000"/></g></g></svg>
