<svg xmlns="http://www.w3.org/2000/svg" width="710" height="1000" viewBox="0 0 710 1000"><g id="Artboard"><rect id="Tint" width="710" height="1000" fill="#58595b"/></g><g id="Outline"><g id="東方靈異伝"><path d="M161.331,799.373c-1.4,0-2.529-.864-3.356-2.569a20.44,20.44,0,0,0-2.894-2.883c-.035-.025-.068-.052-.1-.079-1.307-1.093-4.072-3.049-8.22-5.815a2.5,2.5,0,0,1-.371-.3,3.186,3.186,0,0,1-1.06-2.843,3.031,3.031,0,0,1,1.7-2.225,2.5,2.5,0,0,1,1.731-.188,44.666,44.666,0,0,0,5.325,1,2.383,2.383,0,0,1,.292.054,3.6,3.6,0,0,0,.856.125h.058c.284-2.374.459-6.625.523-12.693a116.124,116.124,0,0,1-26.625,17.6,3.889,3.889,0,0,1-1.739.444,2.91,2.91,0,0,1-2.269-1.058,3.774,3.774,0,0,1-.577-3.19,2.5,2.5,0,0,1,1.228-1.687c7.331-4.112,14.626-10.311,21.757-18.481a4.583,4.583,0,0,1-.84.078c-2.161,0-3.98-1.451-5.409-4.314a2.586,2.586,0,0,1-.174-.458q-2.064-7.563-4.8-17.494a22.894,22.894,0,0,0-1.941-2.143,2.5,2.5,0,0,1-.37-.476,3.608,3.608,0,0,1-.3-3.823,3.675,3.675,0,0,1,3.5-1.722c.822,0,2.24.165,6.468,1.348l12.125-2.02v-3.045c-3.544.582-7,1.245-10.319,1.979a2.523,2.523,0,0,1-.54.059,2.493,2.493,0,0,1-1.118-.264l-4.922-2.461a2.486,2.486,0,0,1-.638-.458,3.183,3.183,0,0,1-1.062-2.844,3.035,3.035,0,0,1,1.7-2.225,2.5,2.5,0,0,1,.965-.259c3.3-.2,8.634-.9,15.888-2.08-.079-1.836-.259-3.737-.537-5.682l-1.729-2.305a2.508,2.508,0,0,1-.341-.621c-.483-1.289-1-3.181.073-4.732a3.462,3.462,0,0,1,2.971-1.46,2.543,2.543,0,0,1,.461.043c4.167.782,7.4,2.157,9.618,4.088a2.494,2.494,0,0,1,.733,1.106c.268.817.447,2.123-.23,5.61-.01.45-.046,1.11-.111,2.039,1.167-.222,2.484-.5,3.943-.836a3.009,3.009,0,0,0,.849-.584A3.947,3.947,0,0,1,174.865,717a2.343,2.343,0,0,1,.278.016,39.656,39.656,0,0,1,7.892,1.869,2.507,2.507,0,0,1,.98.605,4.4,4.4,0,0,1,1.311,4.655,2.451,2.451,0,0,1-.3.617c-.9,1.337-2.5,2.15-4.89,2.487-.036,0-.073.01-.11.013-4.4.422-9.066.922-13.91,1.49v2.927l9.731-1.578,2.471-1.236a2.5,2.5,0,0,1,.517-.19,3.678,3.678,0,0,1,.89-.105c1.21,0,3.06.429,8.359,3.539.042.025.083.05.123.077a4.3,4.3,0,0,1,2.161,3.379,4.443,4.443,0,0,1-1.7,3.566,11.409,11.409,0,0,0-1.289,2.388l-5.591,15.732a2.541,2.541,0,0,1-.277.551c-1.428,2.136-3.074,3.22-4.891,3.22a5.61,5.61,0,0,1-3.729-1.665,4.007,4.007,0,0,0-.756-.091q-1.4.11-2.738.253c5.045,3.822,10.74,7.727,16.989,11.651a80.376,80.376,0,0,0,19.453,8.871,2.532,2.532,0,0,1,.651.311,3.14,3.14,0,0,1,1.55,2.866,3.419,3.419,0,0,1-2.179,2.852,2.471,2.471,0,0,1-.642.218c-7.494,1.45-12.824,2.155-16.3,2.155-3.907,0-5.914-1.658-6.921-3.1-5.884-7.091-11.162-13.13-15.755-18.03.224,9.1.529,15.994.91,20.534a2.488,2.488,0,0,1-.066.815,85.363,85.363,0,0,1-2.535,8.33,2.51,2.51,0,0,1-.208.438A3.468,3.468,0,0,1,161.331,799.373ZM150.357,754.6l5.485-.98v-3.012c-1.328.227-2.491.411-3.479.549a2.41,2.41,0,0,1-.349.025,2.5,2.5,0,0,1-.854-.151l-1.864-.678Zm15.758-2.893,5.527-.921a2.561,2.561,0,0,1,.411-.034q.458,0,.88.021l.54-2.431c-.03,0-7.358.819-7.358.819Zm-18.381-7.6.084-.012c2.713-.361,5.4-.8,8.024-1.319v-1.665l-8.486,1.486Zm21.155-4.6a2.368,2.368,0,0,1,.278.016,10.125,10.125,0,0,1,5.776,2.208l.818-3.68-9.646,1.522v1.017c.092-.04.173-.077.244-.113l1.412-.706A2.5,2.5,0,0,1,168.889,739.5Z" fill="#fff"/><path d="M156.233,709.66q5.619,1.055,8.437,3.516c.23.7.115,2.23-.352,4.57q0,1.054-.351,5.274,2.809-.346,7.383-1.407a5.481,5.481,0,0,0,2.108-1.406,1.418,1.418,0,0,1,1.407-.7,37.051,37.051,0,0,1,7.383,1.758,2.012,2.012,0,0,1,.7,2.109c-.473.7-1.528,1.176-3.164,1.406q-7.383.709-16.172,1.758v8.086l13.008-2.109,2.812-1.407a1.249,1.249,0,0,1,.289-.031q1.65,0,7.094,3.2,2.109,1.407,0,3.164a13.739,13.739,0,0,0-1.758,3.163l-5.625,15.82q-1.409,2.109-2.812,2.109a3.835,3.835,0,0,1-2.461-1.406,6.767,6.767,0,0,0-2.109-.351,83.665,83.665,0,0,0-8.438,1.054v.352a222.352,222.352,0,0,0,21.445,15.116,82.443,82.443,0,0,0,20.038,9.141c.7.472.583.939-.351,1.406q-10.9,2.109-15.82,2.109-3.518,0-4.922-2.109-11.955-14.412-20.39-22.851.346,18.638,1.055,27.07a82.736,82.736,0,0,1-2.461,8.086q-.44.73-.878.73-.617,0-1.231-1.434a24.491,24.491,0,0,0-3.516-3.515q-2.109-1.764-8.437-5.977-.708-.7,0-1.054a46.884,46.884,0,0,0,5.625,1.054,6.092,6.092,0,0,0,1.46.2,2.6,2.6,0,0,0,2.407-1.254q.7-4.219.7-19.687A113.1,113.1,0,0,1,128.108,786.3a1.573,1.573,0,0,1-.66.2q-.646,0-.394-1.255,14.41-8.084,28.124-26.015l-6.328.7-1.406,2.109a2.174,2.174,0,0,1-.7.118q-1.708,0-3.171-2.931-2.111-7.728-4.922-17.929a21.23,21.23,0,0,0-2.461-2.813q-1.054-1.755,1.055-1.757a32.035,32.035,0,0,1,6.328,1.406l14.765-2.46V727.59q-7.037,1.054-13.359,2.461l-4.921-2.461q-.71-.7,0-1.055,5.619-.345,18.28-2.461a58.074,58.074,0,0,0-.7-8.789l-2.109-2.812c-.7-1.873-.473-2.813.7-2.813m7.382,34.1a12.751,12.751,0,0,0,3.867-1.055c.467-.23.934-.467,1.407-.7a7.536,7.536,0,0,1,4.569,1.758c.7.939.583,1.642-.351,2.109l-9.492,1.055v7.734l8.438-1.406a9.288,9.288,0,0,1,2.812.351l3.515-15.82c.231-1.637-.236-2.46-1.406-2.46l-13.359,2.11v6.327M148.5,757.472l9.843-1.758v-8.086q-3.873.709-6.328,1.055l-3.867-1.407a.438.438,0,0,1,0-.7q5.274-.7,10.2-1.758v-6.679L144.28,740.6l4.219,16.875m7.734-52.812a5.994,5.994,0,0,0-5.026,2.536c-1.291,1.863-1.411,4.229-.358,7.034a5.036,5.036,0,0,0,.68,1.242l1.341,1.789q.174,1.311.284,2.589c-6.032.949-10.529,1.518-13.4,1.695a4.994,4.994,0,0,0-1.93.518,5.5,5.5,0,0,0-3.051,4.069,5.657,5.657,0,0,0,1.774,5.015,4.955,4.955,0,0,0,.711.583h-.01a5.919,5.919,0,0,0-5.34,9.333,4.982,4.982,0,0,0,.741.951c.7.708,1.155,1.206,1.441,1.543q2.649,9.62,4.662,16.989a4.987,4.987,0,0,0,.349.915,11.064,11.064,0,0,0,3.807,4.569,77.8,77.8,0,0,1-18.3,14.853,5,5,0,0,0-2.456,3.373,6.07,6.07,0,0,0,1.094,5.268,5.4,5.4,0,0,0,4.2,1.975,6.363,6.363,0,0,0,2.847-.7,119.117,119.117,0,0,0,12.753-7.1,5.38,5.38,0,0,0-.188.8,5.659,5.659,0,0,0,1.772,5.014,4.937,4.937,0,0,0,.741.6c4.073,2.716,6.766,4.617,8,5.652.066.055.133.108.2.16a17.136,17.136,0,0,1,2.312,2.3c1.673,3.16,4.089,3.657,5.442,3.657a5.986,5.986,0,0,0,5.164-3.155,5.035,5.035,0,0,0,.416-.874,88.568,88.568,0,0,0,2.61-8.575,5,5,0,0,0,.131-1.631c-.277-3.306-.514-7.882-.709-13.675q5.09,5.691,11.076,12.9c1.371,1.922,4,4.083,8.908,4.083,3.632,0,9.118-.72,16.77-2.2a5,5,0,0,0,1.285-.437,5.852,5.852,0,0,0,3.556-4.928,5.647,5.647,0,0,0-2.65-5.1,5.014,5.014,0,0,0-1.3-.624,77.821,77.821,0,0,1-18.829-8.577q-4.724-2.965-8.992-5.895a9.373,9.373,0,0,0,4.827-3.992,4.989,4.989,0,0,0,.553-1.1l5.59-15.722a9.038,9.038,0,0,1,.839-1.594,6.556,6.556,0,0,0-.982-10.665c-.08-.054-.161-.105-.244-.154-1.5-.882-2.77-1.573-3.854-2.11a6.973,6.973,0,0,0,1.6-1.686,5.017,5.017,0,0,0,.6-1.233,6.918,6.918,0,0,0-1.919-7.2,5.015,5.015,0,0,0-1.96-1.21,41.633,41.633,0,0,0-8.4-1.981,4.908,4.908,0,0,0-.556-.031,6.493,6.493,0,0,0-5.171,2.359l-.148.033a11.347,11.347,0,0,0-.125-5.278,5,5,0,0,0-1.466-2.212c-2.592-2.258-6.125-3.783-10.8-4.66a5.006,5.006,0,0,0-.922-.086ZM148.6,779.913q2.347-1.7,4.611-3.51c-.052,1.813-.117,3.25-.187,4.388-1.242-.2-2.466-.447-3.654-.746a4.939,4.939,0,0,0-.77-.132Z" fill="#fff"/><path d="M256.821,797.328c-1.121,0-2.653-.526-3.623-3.013a36.442,36.442,0,0,0-8.854-11.421,2.5,2.5,0,0,1-.762-1.255,3.488,3.488,0,0,1,.465-3.134,2.885,2.885,0,0,1,2.3-1.1,3.615,3.615,0,0,1,1.141.193,2.47,2.47,0,0,1,.464.207,34.4,34.4,0,0,0,8.383,3.58c.058-.07.125-.158.2-.27,3.77-6.683,7.5-16.608,11.1-29.508-3.011-.484-6.028-.916-9-1.29a110.109,110.109,0,0,1-14.967,21.111,62.81,62.81,0,0,1-16.8,14.226,2.5,2.5,0,0,1-.757.287,6.164,6.164,0,0,1-1.2.137,2.772,2.772,0,0,1-2.692-1.679,2.946,2.946,0,0,1,.927-3.38c.026-.027.052-.052.079-.077a113.421,113.421,0,0,0,9.62-10.313,108.731,108.731,0,0,0,14.735-24.342q.946-2.205,3.035-6.989c-6.9,1.287-13.787,2.858-20.506,4.682a4.523,4.523,0,0,1-2.121.529,5.406,5.406,0,0,1-2.445-.624c-3.977-1.882-6.388-3.218-5.839-5.658.18-.8.827-2.118,3.132-2.229,12.171-2.835,21.732-4.813,28.49-5.895-.848-3.318-1.566-6.342-2.138-9.018-.015-.069-.027-.14-.036-.211a3.692,3.692,0,0,0-2.013-2.766,2.491,2.491,0,0,1-.788-.788c-.482-.767-1.762-2.806-.724-4.683a3.308,3.308,0,0,1,3.054-1.645,6.11,6.11,0,0,1,.838.063c4.607.514,8.35,1.876,11.056,4.038a2.494,2.494,0,0,1,.764,1.03,8.869,8.869,0,0,1,.113,5.711c-.444,2.356-.941,4.654-1.488,6.87,4.793-.751,11.075-1.573,18.755-2.454a21.117,21.117,0,0,1,3.78-2.648,2.5,2.5,0,0,1,1.124-.267,2.542,2.542,0,0,1,.313.02,22.726,22.726,0,0,1,10.647,3.972,2.51,2.51,0,0,1,.417.381c1.7,1.95,1.669,3.588,1.346,4.619-.758,2.41-3.486,3.092-4.383,3.317-.063.015-.127.029-.191.04a37.658,37.658,0,0,1-6.04.385,227.543,227.543,0,0,0-22.986,1.432,6.337,6.337,0,0,1,.8,1.787,2.488,2.488,0,0,1,.041,1.02,10.466,10.466,0,0,1-.531,1.951c4.093.273,7.688.411,10.722.411a2.506,2.506,0,0,1,1.5.5,48.688,48.688,0,0,1,4.48,4.094,2.62,2.62,0,0,1,.193.215,4.241,4.241,0,0,1,.98,3.522,4.748,4.748,0,0,1-2.157,3,5.715,5.715,0,0,0-.464,1.263,157.368,157.368,0,0,1-8.571,23.954c-2.65,6.719-5.844,12.12-9.5,16.059A4.44,4.44,0,0,1,256.821,797.328Z" fill="#fff"/><path d="M248.679,713.489a3.593,3.593,0,0,1,.49.038q6.328.709,9.844,3.516a6.487,6.487,0,0,1,0,4.219q-1.054,5.628-2.461,10.547,7.729-1.4,23.2-3.164a21.47,21.47,0,0,1,3.868-2.813,20.173,20.173,0,0,1,9.492,3.516q2.455,2.817-1.758,3.867a35.568,35.568,0,0,1-5.625.351q-17.585.354-27.772,2.11,2.811,2.817,3.163,4.218a11.276,11.276,0,0,1-2.108,4.57q8.784.709,14.764.7A47.076,47.076,0,0,1,278,749.034q1.4,1.764-1.055,3.164a7.685,7.685,0,0,0-1.055,2.461,153.45,153.45,0,0,1-8.437,23.554q-3.87,9.846-9.139,15.469-.823,1.146-1.489,1.146-.762,0-1.323-1.5a38.7,38.7,0,0,0-9.493-12.305q-.284-1.122.341-1.123a1.181,1.181,0,0,1,.362.069,36.462,36.462,0,0,0,9.141,3.867,1.547,1.547,0,0,0,.7.177q1.053,0,2.111-1.583,5.973-10.548,11.6-30.937c.231-1.17,0-1.873-.7-2.109q-6.328-1.054-12.3-1.758a108.55,108.55,0,0,1-15.468,22.147,60.05,60.05,0,0,1-16.172,13.711,3.807,3.807,0,0,1-.706.089c-.527,0-.524-.265,0-.792a115.47,115.47,0,0,0,9.843-10.547,110.863,110.863,0,0,0,15.118-24.96q1.055-2.454,3.515-8.086c.231-1.636,0-2.576-.7-2.811q-11.957,2.107-23.555,5.272a2,2,0,0,1-1.143.355,2.927,2.927,0,0,1-1.318-.355q-6.681-3.163-3.515-3.164,21.093-4.918,31.289-6.327-1.764-6.673-2.813-11.6a6.226,6.226,0,0,0-3.164-4.571q-1.569-2.5.213-2.5m0-5h0a5.846,5.846,0,0,0-5.242,2.935c-1.162,2.1-.9,4.532.795,7.223a5,5,0,0,0,1.576,1.576c.8.5.843.813.862.962s.041.281.071.42c.424,1.98.925,4.147,1.5,6.478-6.537,1.145-15.169,2.963-25.772,5.43a5.434,5.434,0,0,0-5.2,4.162c-1.023,4.549,3.343,6.637,7.218,8.472a7.85,7.85,0,0,0,3.506.859,7.01,7.01,0,0,0,3.016-.682c5.065-1.369,10.225-2.594,15.416-3.66q-.7,1.6-1.14,2.639a106.325,106.325,0,0,1-14.394,23.767,110.837,110.837,0,0,1-9.351,10.026c-.053.05-.106.1-.158.152a5.4,5.4,0,0,0-1.469,6.1,5.276,5.276,0,0,0,5,3.222,8.556,8.556,0,0,0,1.692-.187,5,5,0,0,0,1.513-.571,65.3,65.3,0,0,0,17.431-14.742,111,111,0,0,0,14.437-20.066q2.229.3,4.476.632c-3.043,10.5-6.164,18.81-9.3,24.775a35.583,35.583,0,0,1-5.963-2.784,4.968,4.968,0,0,0-.928-.412,6.15,6.15,0,0,0-1.92-.318,5.372,5.372,0,0,0-4.272,2.067,5.885,5.885,0,0,0-.916,5.283,5.005,5.005,0,0,0,1.525,2.51,34.025,34.025,0,0,1,8.223,10.556c1.63,4.065,4.668,4.51,5.915,4.51a6.632,6.632,0,0,0,5.335-2.94,53.593,53.593,0,0,0,9.879-16.676,159.944,159.944,0,0,0,8.659-24.179c.016-.058.032-.117.047-.175.023-.094.048-.184.075-.269a6.976,6.976,0,0,0,2.573-4.115,6.789,6.789,0,0,0-1.478-5.549,5.254,5.254,0,0,0-.385-.432,50.113,50.113,0,0,0-4.741-4.32,5,5,0,0,0-3.008-1.006c-2.244,0-4.805-.077-7.657-.23,0-.1,0-.2-.006-.3,5.47-.555,12.05-.913,19.668-1.067a39.681,39.681,0,0,0,6.4-.42c.129-.022.257-.049.384-.08,3.307-.827,5.38-2.507,6.161-4.992.422-1.343.743-4.04-1.847-7.012a5.06,5.06,0,0,0-.833-.762,25.2,25.2,0,0,0-11.8-4.429,5.07,5.07,0,0,0-.626-.039,5,5,0,0,0-2.248.533,21.69,21.69,0,0,0-3.671,2.482c-5.59.646-10.428,1.261-14.479,1.84q.349-1.628.665-3.3a11.25,11.25,0,0,0-.228-7.193,5,5,0,0,0-1.527-2.062c-3.069-2.451-7.223-3.989-12.348-4.571a8.547,8.547,0,0,0-1.106-.076Z" fill="#fff"/><path d="M326.636,795.127a7.216,7.216,0,0,1-4.371-1.951c-1.416-1.061-1.944-2.284-1.508-3.592a2.849,2.849,0,0,1,2.756-1.908l.1-.022a3.178,3.178,0,0,1,.092-3.185,2.465,2.465,0,0,1,.464-.641,81.152,81.152,0,0,0,9.238-11.147,2.615,2.615,0,0,0,0-1.073,5.192,5.192,0,0,1-.206-2.3c-1.2-.725-2.467-1.848-2.049-3.622a2.91,2.91,0,0,1,.19-.559,5.257,5.257,0,0,1-2.428-2.8,47.362,47.362,0,0,0-3.077-6.249,4.446,4.446,0,0,1-1.971-4.834,2.428,2.428,0,0,1,.185-.5,3.482,3.482,0,0,1,3.334-1.856,7.425,7.425,0,0,1,1.237.114,25.149,25.149,0,0,0,3.839-.3,31.893,31.893,0,0,0,3.8-1.206A17.712,17.712,0,0,1,332.134,744a2.514,2.514,0,0,1-.433-.706,3.519,3.519,0,0,1,.115-3.428,2.9,2.9,0,0,1,2.453-1.262,4.392,4.392,0,0,1,1.47.279c.287.052.561.1.823.143a10.284,10.284,0,0,1-1.309-1.044c-.957-.644-2.509-1.781-2.6-3.4q-1.529.224-2.848.411a2.456,2.456,0,0,1-.353.026c-.135,0-.266,0-.4,0a21.949,21.949,0,0,1-1.939,8.466,2.565,2.565,0,0,1-.281.44c-.533.667-2.154,2.7-4.415,2.7a4.4,4.4,0,0,1-4-2.794,2.514,2.514,0,0,1-.173-.454,14.448,14.448,0,0,1,.04-8.479,2.5,2.5,0,0,1,.528-.9c2.744-3,2.669-4.383,2.581-4.738a4.53,4.53,0,0,1,.464-3.928,2.875,2.875,0,0,1,2.256-1.075,4.981,4.981,0,0,1,3.09,1.445,2.53,2.53,0,0,1,.455.514,12.349,12.349,0,0,1,.653,1.1,9.269,9.269,0,0,0,1.849-.357,2.635,2.635,0,0,1,.414-.081c5.624-.625,11.37-1.346,17.112-2.148v-1.369c-1.389.188-2.9.418-4.534.685a8.98,8.98,0,0,1-3.161.434,2.5,2.5,0,0,1-.95-.188c-2.472-1.014-5.55-2.277-5.151-4.932.234-1.557,1.477-2.457,3.7-2.676a160.6,160.6,0,0,0,17.241-3.36,9.846,9.846,0,0,0,1.675-1.2,2.493,2.493,0,0,1,1.547-.724c.581-.052,1.167-.078,1.739-.078a18.3,18.3,0,0,1,6.791,1.3,2.561,2.561,0,0,1,.641.374c1.885,1.514,2.639,3.111,2.24,4.744-.645,2.638-3.862,3.282-5.073,3.524a2.718,2.718,0,0,1-.3.041s-3.918.3-5.814.449a4.9,4.9,0,0,1,.034.574v.363q10.789-1.234,21.309-2.476a19.9,19.9,0,0,1,4.316-.738,2.725,2.725,0,0,1,.313.019c2.584.327,5.2,2.264,8.24,6.093.738.747,2.52,2.67,1.9,4.882a3.934,3.934,0,0,1-3.173,2.721,2.518,2.518,0,0,1-.6.074,25.9,25.9,0,0,0-4.015.295c-1.136.343-3.814,1.335-10.1,4.068a2.415,2.415,0,0,1-.506.158,5.543,5.543,0,0,1-1.084.12,3.169,3.169,0,0,1-1.866-.57,5.451,5.451,0,0,1-.774.363,5.222,5.222,0,0,1,1.833,3.2,2.509,2.509,0,0,1,.028.587q.774-.21,1.55-.417a7.775,7.775,0,0,1,3.339-.85,2.478,2.478,0,0,1,.791.129c3.779,1.261,6.315,2.611,6.4,5.1a3.615,3.615,0,0,1-2.1,3.316l-3.153,7.253c-.019.041-.037.081-.057.121-1.288,2.575-3.012,3.115-4.232,3.115a4.52,4.52,0,0,1-2.468-.776l-.146-.01c.248.144.487.292.719.446a2.525,2.525,0,0,1,.7.7,4.174,4.174,0,0,1,.638,3.953,4.625,4.625,0,0,1-3.484,2.659c1.679,2.744,1.267,4.531.414,5.638q1.266.417,2.387.9a2.456,2.456,0,0,1,.33.171c3.718,2.3,5.768,4.929,6.092,7.825a2.481,2.481,0,0,1-.114,1.075,4.162,4.162,0,0,1-.313.709q.822.416,1.662.9c.067.04.133.082.2.127a3.945,3.945,0,0,1,1.93,3.711c-.255,2.256-2.506,3.446-4.178,4.145a2.5,2.5,0,0,1-.964.193c-.064,0-.129,0-.193-.007q-4.548-.352-13.612-1.047c-4.15.006-11.014.476-20.4,1.394a121.324,121.324,0,0,0-17.542,3.1,2.488,2.488,0,0,1-.631.081Zm10.611-12.9q-2.4,1.935-5.134,3.778,3.942-.687,8.008-1.257A30.135,30.135,0,0,1,337.247,782.224Zm30.425-4.432a63.73,63.73,0,0,1-4.692,4.48q4.4-.476,7.827-.857l.109-.061Q369.214,779.583,367.672,777.792Zm-20.464-.456a14.8,14.8,0,0,1,1.538,2.1v-10.3q-2.673.567-5.081,1a5.245,5.245,0,0,1,.812,5,2.754,2.754,0,0,1-.109.272A5,5,0,0,1,347.208,777.336Zm11.742-9.959q-.155,4.578-.369,8.727a34.322,34.322,0,0,0,4.469-7.823c-.044-.077-.1-.173-.177-.286a2.509,2.509,0,0,1-.287-.586c-.051-.153-.094-.3-.129-.446Q360.635,767.151,358.95,767.377Zm-14.041-7.651a5.024,5.024,0,0,1-.677,1.87q1.911-.369,3.748-.728c-.226-.2-.431-.393-.615-.577-.051-.052-.1-.105-.147-.161a13.023,13.023,0,0,1-1.695-2.673C345.23,758.507,345.027,759.259,344.909,759.726Zm16.357-1.593c-.016.035-.062.128-.068.139l3.322-.661c.071-.054.142-.107.214-.159a11.709,11.709,0,0,1-.713-1.565c-.025-.068-.047-.136-.067-.2-.228-.819-.436-1.557-.627-2.223Q362.106,756.239,361.266,758.133Zm-25.083-2.25.592-.237.2-.918-1.106.394Zm16.879-4.776q.219,1.224.392,2.357l.491-.123q.213-1.412.386-2.63Zm18.96.54q.577-.158,1.072-.315.426-1.485.9-2.972l-2.649.723Zm-25.317-5.882c.11.008.223.02.338.036.529-.084.974-.178,1.348-.273q-.014-3.26-.073-6.528a3.977,3.977,0,0,1-3.056,2.55A7.038,7.038,0,0,1,346.705,745.765Zm10.907-3.317a7.671,7.671,0,0,1,1.367-.133,2.519,2.519,0,0,1,.7.1,13.836,13.836,0,0,1-1.578-1.642c-.033-.041-.065-.082-.1-.124-.1-.143-.243-.339-.391-.578Zm-12-9.551a5.9,5.9,0,0,1,2.652,3.566q-.049-2.112-.119-4.218l-2.848.435C345.4,732.75,345.509,732.822,345.613,732.9Zm12,3.08a2.95,2.95,0,0,1,1.565-.916l-.178-.118a2.343,2.343,0,0,1-.239-.181,10.114,10.114,0,0,1-1.148-1.108Zm14.518-7.055a6.539,6.539,0,0,1,2.2,2.244q1.274-1.347,2.5-2.8Q374.477,728.637,372.13,728.922Z" fill="#fff"/><path d="M359.793,713.81a15.714,15.714,0,0,1,5.866,1.124q3.51,2.817-1.758,3.867-4.572.354-9.14.7a6.035,6.035,0,0,1,1.054,2.812v3.164q12.3-1.4,24.258-2.812a19.491,19.491,0,0,1,3.867-.7q2.81.354,6.679,5.273,2.809,2.818,0,3.516a28.19,28.19,0,0,0-4.569.351q-2.465.708-10.547,4.219a3.143,3.143,0,0,1-.593.071c-.638,0-.672-.375-.11-1.125a72.1,72.1,0,0,0,6.679-7.735c0-.749-.3-1.123-.906-1.123a2.142,2.142,0,0,0-.5.068q-12.655,1.41-24.96,3.165V745.87a10.649,10.649,0,0,1,3.866-1.055q4.566,2.464,3.868,3.516-2.464,5.628-3.868,8.789-.865,1.734-1.731,1.734a1.464,1.464,0,0,1-1.081-.679,6.236,6.236,0,0,0-1.209-.115,8.461,8.461,0,0,0-2.658.466q-.354,1.233-1.145,1.232a3.347,3.347,0,0,1-2.019-1.232,15.9,15.9,0,0,1-2.812-6.328l-1.055-1.758a3.37,3.37,0,0,1-1.055,2.461q-1.409,4.929-1.757,6.328-.249,1.725-1.7,1.724a4.286,4.286,0,0,1-1.466-.317c-1.175.236-2.46.472-3.867.7l-1.054,1.406a2.65,2.65,0,0,1-1.172.317q-1.254,0-1.992-1.723a49.747,49.747,0,0,0-3.516-7.031q-1.762-1.056-1.406-2.461.231-.468,1.094-.467a5.426,5.426,0,0,1,1.015.115,27.684,27.684,0,0,0,4.57-.351,30.145,30.145,0,0,0,7.383-2.813,3,3,0,0,1,2.813,0,2.363,2.363,0,0,0,1.757.7,1.213,1.213,0,0,1,1.319-.789,4.19,4.19,0,0,1,.791.086,12.722,12.722,0,0,0,3.867-1.055q0-9.136-.352-17.928-13.71,2.109-21.093,3.164a9.083,9.083,0,0,1-2.813-.352q0,6.681-1.758,10.194c-.938,1.176-1.756,1.758-2.46,1.758s-1.291-.466-1.757-1.406a11.952,11.952,0,0,1,0-7.03q3.864-4.22,3.163-7.031-.425-1.9.294-1.9a2.859,2.859,0,0,1,1.464.844,8.958,8.958,0,0,1,1.054,2.109,6.341,6.341,0,0,0,1.254.119,10.876,10.876,0,0,0,2.965-.47q9.492-1.054,19.336-2.461v-4.219a4.966,4.966,0,0,0-.352-2.109q-3.163.354-7.382,1.054a6.006,6.006,0,0,1-2.461.352q-5.983-2.456-2.11-2.813a161.485,161.485,0,0,0,17.929-3.515,13.5,13.5,0,0,0,2.461-1.758q.765-.069,1.517-.069m-7.844,42.607,4.218-1.055q.7-4.565,1.055-7.383a2.063,2.063,0,0,0-1.407-.351l-5.624,1.758q.7,3.518,1.055,6.328l.7.7m-17.227,2.461h.7l3.516-1.406L340,752.55a1.382,1.382,0,0,0-1.407-1.055l-4.922,1.758a.982.982,0,0,0-.7,1.406l1.758,4.219M367.769,730.4a10.46,10.46,0,0,1,2.46.352,4.287,4.287,0,0,1,2.461,2.812c0,1.407-1.175,2.11-3.515,2.11a20.394,20.394,0,0,1-8.789-2.813q-2.114-1.809-.6-1.807a4.527,4.527,0,0,1,.6.049,45.3,45.3,0,0,0,7.383-.7m-26.719,3.516a5.15,5.15,0,0,1,3.164,1.055,3.455,3.455,0,0,1,1.758,3.163q-.354,1.055-2.109,1.054-4.928-1.055-7.031-3.163-3.165-2.109-.352-2.109a13.256,13.256,0,0,0,2.2.176,16.681,16.681,0,0,0,2.373-.176m18.936,3.551a5.037,5.037,0,0,1,1.454.315,17.62,17.62,0,0,0,5.073.792,14.227,14.227,0,0,0,1.607-.089c2.109.473,3.279,1.407,3.516,2.813-.237,1.176-1.291,1.758-3.164,1.758a10.34,10.34,0,0,1-8.438-3.868q-1.234-1.719-.048-1.721M334.269,741.1a2.343,2.343,0,0,1,.805.2,35.573,35.573,0,0,0,5.976.7q3.165.354,3.164,4.219a2.8,2.8,0,0,1-2.066.8,6.209,6.209,0,0,1-2.152-.453,15.319,15.319,0,0,1-5.977-4.219q-.507-1.254.25-1.254m44.75,1.606q7.381,2.465,3.164,4.219l-3.516,8.086q-.867,1.733-2,1.733a2.443,2.443,0,0,1-1.52-.679,8.722,8.722,0,0,0-1.4-.115,8.876,8.876,0,0,0-2.816.467c0,.939-.588,1.527-1.758,1.758-1.176-.231-2.11-1.285-2.813-3.164q-1.762-6.328-2.461-8.086-.822-1.432.153-1.434a6.684,6.684,0,0,1,2.308.731q4.92-1.4,10.2-2.813a5.67,5.67,0,0,1,2.461-.7m-8.79,11.953a32.739,32.739,0,0,0,4.922-1.406q1.054-3.864,2.461-7.734a2.056,2.056,0,0,0-1.406-.352l-7.734,2.109v.7l1.757,6.68m-2.109,4.219a15.7,15.7,0,0,1,5.274,2.109q1.4,2.111-1.407,2.813a135.169,135.169,0,0,0-15.468,1.406q-.354,11.6-1.056,20.39,9.84-1.054,16.173-1.758a7.889,7.889,0,0,1,2.461-1.055,19.639,19.639,0,0,1,7.734,2.813q2.456,1.755-1.758,3.515-4.573-.354-13.711-1.054-6.327,0-20.741,1.406a123.177,123.177,0,0,0-17.93,3.164h-1.055a5.187,5.187,0,0,1-2.812-1.406q-1.409-1.054,0-1.055a238.146,238.146,0,0,1,27.422-4.219v-18.28q.288-1.465-.639-1.464a1.718,1.718,0,0,0-.416.058q-6.329,1.407-11.25,2.109c-1.406-.231-2.582-.468-3.516-.7q-3.518-1.757-.351-1.758,18.274-3.511,30.585-5.976a3.367,3.367,0,0,1,2.461-1.055m-2.384,6.328a5.646,5.646,0,0,1,1.681.352,19.79,19.79,0,0,1,2.461,1.054c1.406,1.878,1.758,3.163,1.055,3.867q-.71,1.054-2.11,2.812a32.229,32.229,0,0,1,5.625,1.758q4.565,2.819,4.922,5.976a1.627,1.627,0,0,1-1.758,1.055,3.543,3.543,0,0,1-.708.071,4.477,4.477,0,0,1-2.807-1.126,83.737,83.737,0,0,1-6.328-7.031,53.379,53.379,0,0,1-10.547,9.492,3.7,3.7,0,0,1-1.017.237q-.624,0,.314-.94,7.381-8.783,9.14-14.413a3.435,3.435,0,0,0-.7-1.758q-.472-1.405.78-1.406m-29.222,3.9a4.13,4.13,0,0,1,1.372.316q5.274,1.763,4.219,4.921a42.587,42.587,0,0,1-3.516,3.164,16.041,16.041,0,0,0,4.219.351,2.292,2.292,0,0,1,.542-.068,2.4,2.4,0,0,1,1.919,1.123q2.456,2.818,2.109,4.922a1.259,1.259,0,0,1-1.406.94,5.19,5.19,0,0,1-1.406-.237,22.841,22.841,0,0,1-7.031-5.625l-1.055.7a75.271,75.271,0,0,1-9.492,6.68,2.685,2.685,0,0,1-.9.232q-.628,0-.156-.935a83.624,83.624,0,0,0,9.844-11.953,5.734,5.734,0,0,0,0-2.813q-.5-1.719.737-1.721m23.279-60.3h0c-.647,0-1.307.03-1.962.089a5,5,0,0,0-3.094,1.448h0a7.721,7.721,0,0,1-.9.637,159.069,159.069,0,0,1-16.546,3.2c-4.715.489-5.673,3.5-5.865,4.786a5.323,5.323,0,0,0,2.011,5.049q-1.572.183-3.131.356a4.914,4.914,0,0,0-.77.148,4.944,4.944,0,0,0-.7-.733,7.345,7.345,0,0,0-4.716-2.047,5.361,5.361,0,0,0-4.207,2.012,6.752,6.752,0,0,0-1.006,5.8,8.931,8.931,0,0,1-1.931,2.742,5,5,0,0,0-1.057,1.8,16.894,16.894,0,0,0-.08,9.929,5.01,5.01,0,0,0,.346.908A6.905,6.905,0,0,0,322.1,749.1a5.873,5.873,0,0,0-.294.521,5.026,5.026,0,0,0-.37,1.007,6.822,6.822,0,0,0,2.474,7.11,44.349,44.349,0,0,1,2.658,5.46c.014.035.028.07.043.1a8.577,8.577,0,0,0,1.95,2.9,5.338,5.338,0,0,0,2.1,4.339,8.309,8.309,0,0,0,.231,1.37A78.126,78.126,0,0,1,322.4,782.06a5.014,5.014,0,0,0-.928,1.281,6.538,6.538,0,0,0-.733,2.593,5.221,5.221,0,0,0-2.352,2.86c-.366,1.1-.862,3.911,2.375,6.378a9.735,9.735,0,0,0,5.876,2.455h1.055a4.976,4.976,0,0,0,1.262-.162,118.878,118.878,0,0,1,17.2-3.031c9.194-.9,15.943-1.363,20.022-1.377q8.989.688,13.512,1.039c.129.01.258.015.386.015a5,5,0,0,0,1.929-.387c1.3-.542,5.248-2.194,5.7-6.17a6.426,6.426,0,0,0-2.96-6.026q-.183-.13-.376-.244a5.047,5.047,0,0,0-.024-.815c-.414-3.7-2.858-6.954-7.264-9.675a5.078,5.078,0,0,0-.659-.342l-.173-.073a7.1,7.1,0,0,0-.3-2.886,6.31,6.31,0,0,0,2.5-3.032,6.222,6.222,0,0,0,.356-3.075,7.718,7.718,0,0,0,4.337-4.139c.04-.08.078-.161.113-.243l2.86-6.578a5.963,5.963,0,0,0,2.6-5.077c-.154-4.284-4.557-6.157-7.3-7.112,3.379-1.417,4.993-2,5.756-2.245a23.692,23.692,0,0,1,3.454-.238,5.021,5.021,0,0,0,1.209-.148,6.45,6.45,0,0,0,4.978-4.477c.667-2.4-.15-4.818-2.428-7.2-3.439-4.315-6.562-6.518-9.812-6.928a5.022,5.022,0,0,0-.626-.039,21.027,21.027,0,0,0-4.762.774q-3.751.442-7.36.863c.027-.092.052-.186.075-.281.447-1.828.271-4.576-3.1-7.286a5.02,5.02,0,0,0-1.282-.747,20.78,20.78,0,0,0-7.715-1.478Zm-31.8,37.592c.351-.375.616-.707.792-.928a5.06,5.06,0,0,0,.564-.882c.034-.068.067-.136.1-.205a5.015,5.015,0,0,0,.8,1.252q.328.376.673.736c-.669.067-1.377.107-2.12.117q-.417-.063-.808-.09Z" fill="#fff"/><path d="M417.457,796.029a2.8,2.8,0,0,1-2.672-1.687c-.754-1.826.715-3.288,1.268-3.839a2.55,2.55,0,0,1,.354-.293,94.062,94.062,0,0,0,15.946-14.543c-.049-.127-.119-.287-.215-.484-5.364.938-11.616,2.179-18.715,3.715a2.425,2.425,0,0,1-.528.057,2.5,2.5,0,0,1-1.119-.264l-3.515-1.757c-.056-.029-.112-.059-.165-.091-.561-.335-2.266-1.355-2.316-3.244a3.189,3.189,0,0,1,1.5-2.735,2.5,2.5,0,0,1,.993-.392l25.954-4.217-.183-5.492c-4.483.758-8.164,1.409-11.2,1.978a2.472,2.472,0,0,1-.461.043,2.5,2.5,0,0,1-.985-.2l-2.461-1.055a2.463,2.463,0,0,1-.514-.3c-1.476-1.106-2-2.33-1.569-3.637a2.862,2.862,0,0,1,2.806-1.911c6.062-1.1,10.783-2,14.086-2.664-.034-.233-.073-.487-.119-.767a1.985,1.985,0,0,0-.8-1.22,2.485,2.485,0,0,1-.526-.538c-.531-.738-1.91-2.658-1.107-4.531a8.673,8.673,0,0,1-2.264-2.841,2.6,2.6,0,0,1-.17-.442l-5.449-19.408-1.3-1.3a2.484,2.484,0,0,1-.55-.833,3.553,3.553,0,0,1,.176-3.48,3.356,3.356,0,0,1,2.928-1.418,6.268,6.268,0,0,1,1.025.09l4.914.981,31.751-5.177,2.321-.663a2.51,2.51,0,0,1,1.406.009c2.943.885,5.689,3.285,8.392,7.335a2.818,2.818,0,0,1,.167.292c.694,1.424.25,3.06-1.764,6.438-5.092,12.394-6.77,15.354-7.59,16.5a8.57,8.57,0,0,1-2.248,2.231,4.724,4.724,0,0,1,1.726,3.7c1.624-1.3,2.78-1.845,3.877-1.845a3.161,3.161,0,0,1,.619.06c1.821.11,4.109.994,7.146,2.756a4.767,4.767,0,0,1,2.7,4.3c0,1.8-1.207,3.906-4.609,3.906-4.294,0-8.433.086-12.333.255l-1.11,5.738c7.894-.671,11.442-1.238,13.019-1.635a7.863,7.863,0,0,1,4.643-1.623c1.156,0,3.071.365,8.5,3.076,5.334,2.676,4.089,6.2,3.58,7.221-.677,1.353-2.232,2.965-5.794,2.965a16.07,16.07,0,0,1-2.373-.195c-5.487-.512-10.867-.772-15.993-.772-1.7,0-3.4.029-5.061.085q-1.578,0-3.566.083c11.283,4.379,14.7,6.461,16.151,7.651,3.19,1.868,3.19,6.5,3.19,8.049a2.368,2.368,0,0,1-.016.278c-.525,4.686-2.883,5.386-4.242,5.386a5.437,5.437,0,0,1-3.877-1.787c-5.167-5.161-10.358-10.234-15.428-15.078a2.5,2.5,0,0,1-.416-.519,3.449,3.449,0,0,1-.406-3.546q.041-.074.087-.144-3.507.25-7.843.671-1.656.16-3.568.407a21.793,21.793,0,0,1,2.92,3.761,3.711,3.711,0,0,1,.686,3.415c-.571,1.823-2.373,2.658-3.812,3.122-9.707,5.9-16.886,9.712-21.942,11.643-.068.025-.138.049-.208.068A6.381,6.381,0,0,1,417.457,796.029Zm26.765-31.1,6.811-.619.571-5.889c-2.385.2-4.854.488-7.382.849Zm-2.813-18.288c1.941,1.311,3,2.8,3.146,4.446,1.989-.261,4.649-.629,8.021-1.108a5.5,5.5,0,0,0-.982-3.426,4.874,4.874,0,0,1-.93-2.581l-10.732,1.7A15.138,15.138,0,0,1,441.409,746.642Zm-3.6-8.163,4.222-.7V734.76l-3.417.569a2.46,2.46,0,0,1-.411.034c-.075,0-.151,0-.227-.01l-.67-.061Zm13.935-2.723a20.928,20.928,0,0,1,3.685-.472,10.225,10.225,0,0,1,1.733.161l.825-3.124a8.16,8.16,0,0,1-1.258.218c-1.477.165-3.114.4-4.87.687ZM435.991,728.2l6.043-1.511v-3.376l-6.818,1.321Zm18.034-5.574a2.514,2.514,0,0,1,.5.05,13.48,13.48,0,0,1,4.754,2.125,2.473,2.473,0,0,1,.565.515l1.193-4.517-8.5,1.089a2.46,2.46,0,0,1,.118.942A4.7,4.7,0,0,1,454.025,722.629Z" fill="#fff"/><path d="M465.275,713.879q3.51,1.054,7.032,6.328c.23.473-.352,1.879-1.758,4.219q-5.628,13.71-7.383,16.171-1.542,2.154-3.342,2.154a3.137,3.137,0,0,1-.525-.045q-1.41-.7-3.164-1.406a17.119,17.119,0,0,0-2.374-.173,13.609,13.609,0,0,0-2.2.173l-13.358,2.109-1.758.7q-.505,1.259-1.182,1.258a1.047,1.047,0,0,1-.576-.2A6.687,6.687,0,0,1,431.175,742l-5.625-20.038-1.758-1.758c-.394-.977-.13-1.463.786-1.463a3.885,3.885,0,0,1,.62.057l5.274,1.054,32.342-5.273,2.461-.7m-15.467,13.359a4.421,4.421,0,0,0,2.108-1.054,3.035,3.035,0,0,1,2.109-1.055,11.211,11.211,0,0,1,3.868,1.758q2.109,2.819-1.407,3.164-3.163.354-7.03,1.054l-.352,7.734a40.97,40.97,0,0,1,6.328-1.055,11.667,11.667,0,0,1,3.515.7l4.922-18.632c0-1.169-.473-1.757-1.406-1.757l-13.71,1.757,1.406,2.813-.351,4.57m-15.821,3.516h2.11l8.437-2.109V723.02a2.528,2.528,0,0,0-1.406-2.461l-10.9,2.109,1.758,8.086m4.219,2.109-3.867-.351,1.055,6.678.7,2.11,8.437-1.406v-8.085l-6.328,1.054m16.523,10.195q8.082,2.463,7.382,5.273a3.566,3.566,0,0,0-.7,2.813,19.056,19.056,0,0,0,4.219-.7c1.4-1.207,2.381-1.806,2.928-1.806a.529.529,0,0,1,.236.049q2.109,0,6.328,2.461a2.263,2.263,0,0,1,1.406,2.109q0,1.408-2.109,1.406-7.737,0-14.414.352l-2.109,10.9q13.71-1.054,17.226-2.109a5.631,5.631,0,0,1,3.516-1.406q1.755,0,7.382,2.812,3.51,1.762,2.461,3.867-.791,1.581-3.558,1.583a13.625,13.625,0,0,1-2.067-.177q-8.449-.792-16.3-.79-2.607,0-5.146.086-5.628,0-16.522,1.055T412.9,776.455l-3.516-1.758c-1.176-.7-1.406-1.285-.7-1.758L436.8,768.37l-.352-10.547q-8.437,1.41-14.062,2.461l-2.461-1.055q-1.409-1.055,0-1.054,11.6-2.109,16.523-3.164a21.738,21.738,0,0,0-.351-3.164,4.535,4.535,0,0,0-1.758-2.813c-1.176-1.637-1.176-2.461,0-2.461a9.36,9.36,0,0,1,5.625,2.11q2.109,1.409,2.109,2.812l-.351,2.461q3.164-.345,13.007-1.758a8.221,8.221,0,0,0-1.055-7.031q-1.408-2.109,1.055-2.109m-.352,12.656q-5.981.354-12.655,1.406v10.547l11.6-1.055,1.055-10.9M435.13,772.871a3.3,3.3,0,0,1,.615.068,30.431,30.431,0,0,0,3.164,1.758,16.912,16.912,0,0,1,3.516,4.219c.933,1.176.23,2.109-2.11,2.813q-14.42,8.782-21.8,11.6a4.3,4.3,0,0,1-1.063.2q-.9,0,.359-1.255,7.73-5.272,16.874-15.468.7-.7-.351-2.813-.285-1.124.791-1.123m20.081,1.08a2.29,2.29,0,0,1,.924.395q13.71,5.273,16.523,7.734,2.109,1.054,2.11,5.977-.355,3.164-1.758,3.164a3.043,3.043,0,0,1-2.11-1.055q-7.737-7.728-15.468-15.117-.66-1.1-.221-1.1m10.064-65.072a5.007,5.007,0,0,0-1.373.192l-2.18.623-31.159,5.081-4.384-.877c-.057-.012-.115-.022-.172-.031a8.734,8.734,0,0,0-1.429-.123,5.886,5.886,0,0,0-5,2.52,6.005,6.005,0,0,0-.424,5.813,5.012,5.012,0,0,0,1.1,1.666l.833.832,5.272,18.779a5,5,0,0,0,.342.885,11.141,11.141,0,0,0,1.76,2.555,7.521,7.521,0,0,0,1.341,4.453c-2.838.548-6.33,1.2-10.449,1.949a5.367,5.367,0,0,0-4.869,3.607c-.369,1.107-.869,3.948,2.441,6.428a4.989,4.989,0,0,0,1.028.594l2.461,1.055a5,5,0,0,0,1.97.4,4.944,4.944,0,0,0,.922-.086c2.358-.442,5.112-.934,8.334-1.489l.014.431L407.874,768a5.011,5.011,0,0,0-1.988.786,5.64,5.64,0,0,0-2.605,4.875c.04,1.488.684,3.621,3.532,5.324.107.064.218.124.33.18l3.515,1.758a5,5,0,0,0,3.294.415q6.425-1.391,11.9-2.453A77.636,77.636,0,0,1,415,788.145a4.963,4.963,0,0,0-.708.586c-2.652,2.638-2.451,5.026-1.816,6.564a5.26,5.26,0,0,0,4.983,3.235,8.817,8.817,0,0,0,2.429-.39c.141-.04.28-.087.417-.139,5.153-1.967,12.384-5.792,22.1-11.687,1.5-.507,4.227-1.715,5.153-4.665a6.238,6.238,0,0,0-1-5.571c-.078-.122-.155-.243-.233-.362q2.036-.192,3.875-.345a8.025,8.025,0,0,0,.958,2.253,4.971,4.971,0,0,0,.832,1.04c5.057,4.831,10.235,9.891,15.389,15.04a7.878,7.878,0,0,0,5.643,2.517c1.378,0,5.936-.549,6.726-7.608a4.922,4.922,0,0,0,.032-.556c0-4.97-1.433-8.366-4.261-10.108a29.635,29.635,0,0,0-5.557-3.222c3.988.088,8.11.328,12.3.717a18.4,18.4,0,0,0,2.675.212c5.094,0,7.217-2.723,8.029-4.345,1.516-3.032,1.2-7.619-4.69-10.574-4.328-2.161-6.685-2.984-8.346-3.242a6.316,6.316,0,0,0,1.612-4.242,7.183,7.183,0,0,0-4-6.491c-3.324-1.924-5.848-2.886-8.047-3.053a5.7,5.7,0,0,0-.928-.075,6.021,6.021,0,0,0-1.575.214c.084-.11.168-.224.252-.341.965-1.35,2.722-4.487,7.8-16.837,1.756-2.957,3.138-5.846,1.769-8.654a5.189,5.189,0,0,0-.335-.584c-3.039-4.554-6.229-7.283-9.752-8.342a5,5,0,0,0-1.439-.211Zm-19.59,38.411,3.17-.5a9.463,9.463,0,0,0,.626,1.1q-1.748.244-3.169.438a8.069,8.069,0,0,0-.627-1.04Zm18.476,12.544q2.85-.1,5.847-.144c-1.435.2-3.362.425-5.949.674l.1-.53Zm-17.439,1.622q1.059-.134,2.1-.249l-.077.8-2.023.184v-.736Z" fill="#fff"/><path d="M517.779,795.17a4.246,4.246,0,0,1-2.554-.9,2.545,2.545,0,0,1-.266-.231,13.346,13.346,0,0,1-2.975-4.257,18.74,18.74,0,0,1-1.611-6.406,2.5,2.5,0,0,1,.062-.844c.236-.958.591-2.264,1.057-3.883,1.163-5.3,1.832-14.589,1.994-27.669-3.759,4.037-7.3,7.541-10.559,10.46a2.428,2.428,0,0,1-.384.284,4.354,4.354,0,0,1-2.26.751,2.767,2.767,0,0,1-2.3-1.2,3.528,3.528,0,0,1-.1-3.33,2.472,2.472,0,0,1,.389-.656A122.85,122.85,0,0,0,508.6,742.134,199.471,199.471,0,0,0,518.744,721.6a2.939,2.939,0,0,0-.5-.945c-.025-.034-.05-.069-.074-.105a4.089,4.089,0,0,1-.512-4.269,2.592,2.592,0,0,1,.154-.264,3.934,3.934,0,0,1,3.337-1.907,4.081,4.081,0,0,1,1.182.179,15.2,15.2,0,0,1,7.829,4.569,6.032,6.032,0,0,1,2.078,4.167c0,1.224-.5,2.914-2.763,4.294-2.441,4.431-5.163,8.9-8.113,13.324l.652.652a2.521,2.521,0,0,1,.471.655,8.778,8.778,0,0,1,.964,3.925v1.676c14.552-2.5,29.082-4.921,43.209-7.2l1.244-1a2.516,2.516,0,0,1,.683-.389,7.4,7.4,0,0,1,2.592-.423c2.37,0,5.569.837,9.779,2.56a2.5,2.5,0,0,1,.59.341c1.808,1.408,2.66,2.942,2.534,4.561-.083,1.064-.645,2.589-2.857,3.816a2.5,2.5,0,0,1-1.213.314c-7.242,0-15.287.34-23.973,1.012a4.31,4.31,0,0,1-.192,5.907c-3.954,4.636-8.186,9.3-12.631,13.935,6.916-.89,13.11-1.784,18.514-2.672-1.122-1.612-2.372-3.317-3.74-5.1a2.524,2.524,0,0,1-.386-.726,3.092,3.092,0,0,1,.312-2.925,2.813,2.813,0,0,1,2.322-1.161,3.885,3.885,0,0,1,1.217.21,2.515,2.515,0,0,1,.419.182c10.6,5.783,12.906,7.651,13.761,8.716a23.791,23.791,0,0,1,5.1,11.8,2.5,2.5,0,0,1,.02.312,5.246,5.246,0,0,1-2.642,4.973,4.3,4.3,0,0,1-2.318.694,4.347,4.347,0,0,1-2.449-.779,2.566,2.566,0,0,1-.373-.308,31.248,31.248,0,0,1-3.081-3.833c-1.077-1.613-2.249-3.334-3.581-5.257-13.17,3.564-22.5,6.167-27.767,7.747a4.938,4.938,0,0,1-3.529,1.373,6.222,6.222,0,0,1-3.5-1.128,21.146,21.146,0,0,1-5.1-4.344q-.081-.1-.153-.2a11.126,11.126,0,0,1-1.356-2.726,2.507,2.507,0,0,1-.124-.778c0-3.084,2.062-3.906,3.28-3.906a4.232,4.232,0,0,1,2.068.594,5.268,5.268,0,0,0,1.723.46,2.021,2.021,0,0,0,.324-.021,180.714,180.714,0,0,0,11.8-19.559c-5.747,1.027-10.8,2.057-15.058,3.069a2.557,2.557,0,0,1-.578.067,10,10,0,0,1-4.883-1.638V785.6c0,3.418-.637,5.882-1.949,7.532A4.731,4.731,0,0,1,517.779,795.17ZM538.173,732.9a2.5,2.5,0,0,1-1.055-.233c-3.623-1.687-5.807-2.871-5.6-5.09a2.749,2.749,0,0,1,2.174-2.414c.057-.014.115-.026.171-.036,6.723-1.2,12.847-2.313,18.7-3.4,1.019-.827,1.523-1.287,1.77-1.534a2.494,2.494,0,0,1,1.545-.722c.439-.039.879-.059,1.317-.059a16.3,16.3,0,0,1,7.835,2.111,2.426,2.426,0,0,1,.408.278,4.324,4.324,0,0,1,1.791,3.685c-.1,1.482-1.035,2.783-2.773,3.868a2.49,2.49,0,0,1-1.131.372c-6,.466-12.093,1.168-18.1,2.088-2.764.464-5.033.823-6.709,1.06A2.408,2.408,0,0,1,538.173,732.9Z" fill="#fff"/><path d="M521.145,716.605a1.627,1.627,0,0,1,.5.086,12.7,12.7,0,0,1,6.68,3.868,3.874,3.874,0,0,1,1.406,2.461q0,1.409-2.109,2.46-4.219,7.738-9.492,15.468l2.109,2.11a6.28,6.28,0,0,1,.7,2.812V785.6q0,4.218-1.406,5.976a2.388,2.388,0,0,1-1.761,1.1,1.738,1.738,0,0,1-1.051-.395,10.689,10.689,0,0,1-2.461-3.515,16.3,16.3,0,0,1-1.406-5.625q.346-1.4,1.055-3.867,2.107-9.494,2.108-34.8a184.37,184.37,0,0,1-14.764,15.117,2.274,2.274,0,0,1-.976.4q-.522,0-.079-1.1a124.731,124.731,0,0,0,10.547-15.469A199.577,199.577,0,0,0,521.3,721.965a4.691,4.691,0,0,0-1.055-2.813,1.735,1.735,0,0,1-.351-1.757,1.5,1.5,0,0,1,1.253-.79m36.052,5.311a13.767,13.767,0,0,1,6.639,1.807q2.109,1.763-.7,3.515-9.147.709-18.28,2.11-4.22.707-6.68,1.054-5.274-2.454-3.867-2.812,9.837-1.755,19.335-3.516a32.37,32.37,0,0,0,2.461-2.109c.364-.033.73-.049,1.1-.049m13.977,19.12q3.03,0,8.833,2.373,3.163,2.465,0,4.219-13.01,0-28.827,1.406a21.573,21.573,0,0,1,2.461,3.164q1.755,1.764.351,3.164-8.089,9.492-17.577,18.984,17.575-2.111,29.53-4.219-2.463-3.864-5.976-8.437c-.178-.527-.089-.789.264-.789a1.479,1.479,0,0,1,.439.086q11.6,6.329,13.008,8.086a21.208,21.208,0,0,1,4.569,10.546,2.84,2.84,0,0,1-1.4,2.813,1.749,1.749,0,0,1-2.11,0,29.536,29.536,0,0,1-2.812-3.516q-2.109-3.163-4.57-6.68-22.149,5.984-30.234,8.438a2.375,2.375,0,0,1-2.109,1.055,3.753,3.753,0,0,1-2.11-.7,18.815,18.815,0,0,1-4.57-3.867,8.6,8.6,0,0,1-1.055-2.109q0-1.407.78-1.406a2.039,2.039,0,0,1,.978.351,8,8,0,0,0,2.813.7,2.86,2.86,0,0,0,2.109-.7,175.2,175.2,0,0,0,13.358-22.5,3.412,3.412,0,0,0-1.4-1.758q-10.2,1.764-17.578,3.516c-1.176,0-2.812-.7-4.922-2.109q-1.055-.7,0-1.055,22.494-3.864,44.3-7.383l1.758-1.406a4.887,4.887,0,0,1,1.713-.264m-50.029-29.431h0a6.472,6.472,0,0,0-5.419,3.024,5.16,5.16,0,0,0-.307.529,6.538,6.538,0,0,0,.547,6.588,199.793,199.793,0,0,1-9.544,19.162A120.343,120.343,0,0,1,496.345,755.7a5.008,5.008,0,0,0-.779,1.313,5.782,5.782,0,0,0,.346,5.662,5.262,5.262,0,0,0,4.372,2.3,6.9,6.9,0,0,0,3.542-1.106,4.947,4.947,0,0,0,.768-.565q2.991-2.678,6.266-5.979c-.27,9.516-.87,16.457-1.793,20.711-.463,1.614-.82,2.924-1.06,3.9a5.013,5.013,0,0,0-.122,1.687,21.228,21.228,0,0,0,1.82,7.189,15.822,15.822,0,0,0,3.486,5,4.855,4.855,0,0,0,.531.462,6.728,6.728,0,0,0,4.057,1.4,7.13,7.13,0,0,0,5.66-2.967c1.692-2.129,2.507-5.1,2.507-9.107v-3.664a25.377,25.377,0,0,0,4.244,3.3,8.656,8.656,0,0,0,4.819,1.5,7.528,7.528,0,0,0,4.763-1.632c5.087-1.515,13.637-3.9,25.479-7.112.916,1.333,1.747,2.559,2.511,3.705.028.042.057.085.087.127a33.671,33.671,0,0,0,3.35,4.15,4.992,4.992,0,0,0,.746.614,6.72,6.72,0,0,0,7.415.175,7.8,7.8,0,0,0,3.889-7.137,5,5,0,0,0-.039-.624,26.238,26.238,0,0,0-5.6-13.008l-.034-.043c-1.033-1.286-3-3.068-14.514-9.346a4.966,4.966,0,0,0-.837-.362,6.336,6.336,0,0,0-2-.335,5.675,5.675,0,0,0-.927.076,6.554,6.554,0,0,0,.274-2.59c7.344-.5,14.189-.759,20.427-.759a5,5,0,0,0,2.425-.628c3.184-1.765,4.007-4.133,4.138-5.809.134-1.724-.363-4.291-3.491-6.727a5.027,5.027,0,0,0-1.179-.683c-4.579-1.873-7.987-2.745-10.726-2.745h0a9.843,9.843,0,0,0-3.47.583,5,5,0,0,0-1.367.776l-.73.585c-13.007,2.1-26.353,4.325-39.738,6.614a11.546,11.546,0,0,0-1.148-3.761c-.069-.14-.145-.275-.227-.407,2.013-3.082,3.915-6.182,5.687-9.272,1.367,1.68,3.715,2.772,5.882,3.781a5.006,5.006,0,0,0,2.81.418c1.689-.239,3.967-.6,6.772-1.068,5.93-.909,11.944-1.6,17.874-2.062a5,5,0,0,0,2.263-.744c3.058-1.91,3.832-4.217,3.942-5.816a6.8,6.8,0,0,0-2.681-5.776,4.91,4.91,0,0,0-.816-.555,18.766,18.766,0,0,0-9.03-2.416h0c-.511,0-1.029.023-1.54.069a5,5,0,0,0-3.09,1.444c-.114.114-.414.4-1.09.962-5.279.977-10.788,1.979-16.765,3.047a8.634,8.634,0,0,0-2.725-5.292,17.641,17.641,0,0,0-8.993-5.272,6.553,6.553,0,0,0-1.848-.269Zm7.184,46.648a4.991,4.991,0,0,0,1.156-.136c2.9-.69,6.192-1.39,9.824-2.093-2.352,4.21-5.118,8.681-8.273,13.368a6.524,6.524,0,0,0-2.982-.749,5.681,5.681,0,0,0-2.108.406V757.918a9.062,9.062,0,0,0,2.383.335Zm21.519,9.319q2.6-2.818,5.072-5.64a6.732,6.732,0,0,0,.309,1.351,5.012,5.012,0,0,0,.773,1.452q.68.885,1.319,1.744-3.541.546-7.473,1.093Z" fill="#fff"/></g></g><g id="Text"><path d="M164.67,713.176c.23.7.115,2.23-.352,4.57q0,1.054-.351,5.274,2.809-.346,7.383-1.407a5.481,5.481,0,0,0,2.108-1.406,1.418,1.418,0,0,1,1.407-.7,37.051,37.051,0,0,1,7.383,1.758,2.012,2.012,0,0,1,.7,2.109c-.473.7-1.528,1.176-3.164,1.406q-7.383.709-16.172,1.758v8.086l13.008-2.109,2.812-1.407q1.4-.346,7.383,3.165,2.109,1.407,0,3.164a13.739,13.739,0,0,0-1.758,3.163l-5.625,15.82q-1.409,2.109-2.812,2.109a3.835,3.835,0,0,1-2.461-1.406,6.767,6.767,0,0,0-2.109-.351,83.665,83.665,0,0,0-8.438,1.054v.352a222.352,222.352,0,0,0,21.445,15.116,82.443,82.443,0,0,0,20.038,9.141c.7.472.583.939-.351,1.406q-10.9,2.109-15.82,2.109-3.518,0-4.922-2.109-11.955-14.412-20.39-22.851.346,18.638,1.055,27.07a82.736,82.736,0,0,1-2.461,8.086q-1.055,1.754-2.109-.7a24.491,24.491,0,0,0-3.516-3.515q-2.109-1.764-8.437-5.977-.708-.7,0-1.054a46.884,46.884,0,0,0,5.625,1.054q2.81.7,3.867-1.054.7-4.219.7-19.687A113.1,113.1,0,0,1,128.108,786.3q-1.409.7-1.054-1.055,14.41-8.084,28.124-26.015l-6.328.7-1.406,2.109q-2.109.708-3.867-2.813-2.111-7.728-4.922-17.929a21.23,21.23,0,0,0-2.461-2.813q-1.054-1.755,1.055-1.757a32.035,32.035,0,0,1,6.328,1.406l14.765-2.46V727.59q-7.037,1.054-13.359,2.461l-4.921-2.461q-.71-.7,0-1.055,5.619-.345,18.28-2.461a58.074,58.074,0,0,0-.7-8.789l-2.109-2.812c-.7-1.873-.473-2.813.7-2.813Q161.852,710.715,164.67,713.176ZM144.28,740.6l4.219,16.875,9.843-1.758v-8.086q-3.873.709-6.328,1.055l-3.867-1.407a.438.438,0,0,1,0-.7q5.274-.7,10.2-1.758v-6.679Zm19.335,3.164a12.751,12.751,0,0,0,3.867-1.055c.467-.23.934-.467,1.407-.7a7.536,7.536,0,0,1,4.569,1.758c.7.939.583,1.642-.351,2.109l-9.492,1.055v7.734l8.438-1.406a9.288,9.288,0,0,1,2.812.351l3.515-15.82c.231-1.637-.236-2.46-1.406-2.46l-13.359,2.11Z" fill="#231f20" stroke="#231f20" stroke-linecap="round" stroke-linejoin="round" stroke-width="2"/><path d="M259.013,717.043a6.487,6.487,0,0,1,0,4.219q-1.054,5.628-2.461,10.547,7.729-1.4,23.2-3.164a21.47,21.47,0,0,1,3.868-2.813,20.173,20.173,0,0,1,9.492,3.516q2.455,2.817-1.758,3.867a35.568,35.568,0,0,1-5.625.351q-17.585.354-27.772,2.11,2.811,2.817,3.163,4.218a11.276,11.276,0,0,1-2.108,4.57q8.784.709,14.764.7A47.076,47.076,0,0,1,278,749.034q1.4,1.764-1.055,3.164a7.685,7.685,0,0,0-1.055,2.461,153.45,153.45,0,0,1-8.437,23.554q-3.87,9.846-9.139,15.469-1.764,2.454-2.812-.352a38.7,38.7,0,0,0-9.493-12.305q-.354-1.4.7-1.054a36.462,36.462,0,0,0,9.141,3.867c.934.473,1.873,0,2.813-1.406q5.973-10.548,11.6-30.937c.231-1.17,0-1.873-.7-2.109q-6.328-1.054-12.3-1.758a108.55,108.55,0,0,1-15.468,22.147,60.05,60.05,0,0,1-16.172,13.711c-1.176.237-1.407,0-.7-.7a115.47,115.47,0,0,0,9.843-10.547,110.863,110.863,0,0,0,15.118-24.96q1.055-2.454,3.515-8.086c.231-1.636,0-2.576-.7-2.811q-11.957,2.107-23.555,5.272a2.3,2.3,0,0,1-2.461,0q-6.681-3.163-3.515-3.164,21.093-4.918,31.289-6.327-1.764-6.673-2.813-11.6a6.226,6.226,0,0,0-3.164-4.571q-1.763-2.81.7-2.461Q255.5,714.237,259.013,717.043Z" fill="#231f20" stroke="#231f20" stroke-linecap="round" stroke-linejoin="round" stroke-width="2"/><path d="M365.659,714.934q3.51,2.817-1.758,3.867-4.572.354-9.14.7a6.035,6.035,0,0,1,1.054,2.812v3.164q12.3-1.4,24.258-2.812a19.491,19.491,0,0,1,3.867-.7q2.81.354,6.679,5.273,2.809,2.818,0,3.516a28.19,28.19,0,0,0-4.569.351q-2.465.708-10.547,4.219c-1.176.236-1.406-.116-.7-1.054a72.1,72.1,0,0,0,6.679-7.735c0-.933-.472-1.285-1.406-1.055q-12.655,1.41-24.96,3.165V745.87a10.649,10.649,0,0,1,3.866-1.055q4.566,2.464,3.868,3.516-2.464,5.628-3.868,8.789-1.407,2.818-2.812,1.055a7.569,7.569,0,0,0-3.867.351q-.708,2.465-3.164,0a15.9,15.9,0,0,1-2.812-6.328l-1.055-1.758a3.37,3.37,0,0,1-1.055,2.461q-1.409,4.929-1.757,6.328-.355,2.464-3.165,1.407c-1.175.236-2.46.472-3.867.7l-1.054,1.406q-2.111,1.054-3.164-1.406a49.747,49.747,0,0,0-3.516-7.031q-1.762-1.056-1.406-2.461c.231-.467.934-.582,2.109-.352a27.684,27.684,0,0,0,4.57-.351,30.145,30.145,0,0,0,7.383-2.813,3,3,0,0,1,2.813,0,2.363,2.363,0,0,0,1.757.7c.231-.7.934-.933,2.11-.7a12.722,12.722,0,0,0,3.867-1.055q0-9.136-.352-17.928-13.71,2.109-21.093,3.164a9.083,9.083,0,0,1-2.813-.352q0,6.681-1.758,10.194c-.938,1.176-1.756,1.758-2.46,1.758s-1.291-.466-1.757-1.406a11.952,11.952,0,0,1,0-7.03q3.864-4.22,3.163-7.031-.708-3.165,1.758-1.055a8.958,8.958,0,0,1,1.054,2.109,9.014,9.014,0,0,0,4.219-.351q9.492-1.054,19.336-2.461v-4.219a4.966,4.966,0,0,0-.352-2.109q-3.163.354-7.382,1.054a6.006,6.006,0,0,1-2.461.352q-5.983-2.456-2.11-2.813a161.485,161.485,0,0,0,17.929-3.515,13.5,13.5,0,0,0,2.461-1.758A15.855,15.855,0,0,1,365.659,714.934Zm7.735,46.053q1.4,2.111-1.407,2.813a135.169,135.169,0,0,0-15.468,1.406q-.354,11.6-1.056,20.39,9.84-1.054,16.173-1.758a7.889,7.889,0,0,1,2.461-1.055,19.639,19.639,0,0,1,7.734,2.813q2.456,1.755-1.758,3.515-4.573-.354-13.711-1.054-6.327,0-20.741,1.406a123.177,123.177,0,0,0-17.93,3.164h-1.055a5.187,5.187,0,0,1-2.812-1.406q-1.409-1.054,0-1.055a238.146,238.146,0,0,1,27.422-4.219v-18.28q.345-1.757-1.055-1.406-6.329,1.407-11.25,2.109c-1.406-.231-2.582-.468-3.516-.7q-3.518-1.757-.351-1.758,18.274-3.511,30.585-5.976a3.367,3.367,0,0,1,2.461-1.055A15.7,15.7,0,0,1,373.394,760.987Zm-31.289,13.359a42.587,42.587,0,0,1-3.516,3.164,16.041,16.041,0,0,0,4.219.351,2.268,2.268,0,0,1,2.461,1.055q2.456,2.818,2.109,4.922-.354,1.409-2.812.7a22.841,22.841,0,0,1-7.031-5.625l-1.055.7a75.271,75.271,0,0,1-9.492,6.68c-1.175.467-1.527.23-1.055-.7a83.624,83.624,0,0,0,9.844-11.953,5.734,5.734,0,0,0,0-2.813q-.709-2.456,2.109-1.405Q343.16,771.188,342.105,774.346Zm-8.438-21.093a.982.982,0,0,0-.7,1.406l1.758,4.219h.7l3.516-1.406L340,752.55a1.382,1.382,0,0,0-1.407-1.055Zm10.547-7.031q-1.409,1.409-4.218.351a15.319,15.319,0,0,1-5.977-4.219q-.71-1.754,1.055-1.054a35.573,35.573,0,0,0,5.976.7Q344.215,742.357,344.214,746.222Zm-3.164-12.3a5.15,5.15,0,0,1,3.164,1.055,3.455,3.455,0,0,1,1.758,3.163q-.354,1.055-2.109,1.054-4.928-1.055-7.031-3.163-3.165-2.109-.352-2.109A14.878,14.878,0,0,0,341.05,733.918Zm10.2,21.8.7.7,4.218-1.055q.7-4.565,1.055-7.383a2.063,2.063,0,0,0-1.407-.351l-5.624,1.758Q350.892,752.9,351.246,755.714Zm19.687,14.765q-.71,1.054-2.11,2.812a32.229,32.229,0,0,1,5.625,1.758q4.565,2.819,4.922,5.976a1.627,1.627,0,0,1-1.758,1.055,4.176,4.176,0,0,1-3.515-1.055,83.737,83.737,0,0,1-6.328-7.031,53.379,53.379,0,0,1-10.547,9.492q-2.111.709-.7-.7,7.381-8.783,9.14-14.413a3.435,3.435,0,0,0-.7-1.758c-.473-1.406.352-1.758,2.461-1.054a19.79,19.79,0,0,1,2.461,1.054C371.284,768.49,371.636,769.775,370.933,770.479Zm-.7-39.725a4.287,4.287,0,0,1,2.461,2.812c0,1.407-1.175,2.11-3.515,2.11a20.394,20.394,0,0,1-8.789-2.813q-2.463-2.109,0-1.758a45.3,45.3,0,0,0,7.383-.7A10.46,10.46,0,0,1,370.229,730.754Zm-2.109,7.733c2.109.473,3.279,1.407,3.516,2.813-.237,1.176-1.291,1.758-3.164,1.758a10.34,10.34,0,0,1-8.438-3.868q-1.763-2.454,1.406-1.406A16.663,16.663,0,0,0,368.12,738.487Zm14.063,8.438-3.516,8.086q-1.408,2.819-3.516,1.054a8.727,8.727,0,0,0-4.218.352c0,.939-.588,1.527-1.758,1.758-1.176-.231-2.11-1.285-2.813-3.164q-1.762-6.328-2.461-8.086-1.409-2.455,2.461-.7,4.92-1.4,10.2-2.813a5.67,5.67,0,0,1,2.461-.7Q386.4,745.171,382.183,746.925Zm-13.711,1.054,1.757,6.68a32.739,32.739,0,0,0,4.922-1.406q1.054-3.864,2.461-7.734a2.056,2.056,0,0,0-1.406-.352l-7.734,2.109Z" fill="#231f20" stroke="#231f20" stroke-linecap="round" stroke-linejoin="round" stroke-width="2"/><path d="M462.111,748.331a3.566,3.566,0,0,0-.7,2.813,19.056,19.056,0,0,0,4.219-.7c1.637-1.406,2.691-1.988,3.164-1.757q2.109,0,6.328,2.461a2.263,2.263,0,0,1,1.406,2.109q0,1.408-2.109,1.406-7.737,0-14.414.352l-2.109,10.9q13.71-1.054,17.226-2.109a5.631,5.631,0,0,1,3.516-1.406q1.755,0,7.382,2.812,3.51,1.762,2.461,3.867t-5.625,1.406a168.648,168.648,0,0,0-21.445-.7q-5.628,0-16.522,1.055T412.9,776.455l-3.516-1.758c-1.176-.7-1.406-1.285-.7-1.758L436.8,768.37l-.352-10.547q-8.437,1.41-14.062,2.461l-2.461-1.055q-1.409-1.055,0-1.054,11.6-2.109,16.523-3.164a21.738,21.738,0,0,0-.351-3.164,4.535,4.535,0,0,0-1.758-2.813c-1.176-1.637-1.176-2.461,0-2.461a9.36,9.36,0,0,1,5.625,2.11q2.109,1.409,2.109,2.812l-.351,2.461q3.164-.345,13.007-1.758a8.221,8.221,0,0,0-1.055-7.031q-1.408-2.109,1.055-2.109Q462.811,745.521,462.111,748.331Zm-23.2,26.366a16.912,16.912,0,0,1,3.516,4.219c.933,1.176.23,2.109-2.11,2.813q-14.42,8.782-21.8,11.6-2.464.7-.7-1.055,7.73-5.272,16.874-15.468.7-.7-.351-2.813c-.236-.933.23-1.285,1.406-1.055A30.431,30.431,0,0,0,438.909,774.7Zm33.4-54.49c.23.473-.352,1.879-1.758,4.219q-5.628,13.71-7.383,16.171c-1.176,1.642-2.461,2.345-3.867,2.109q-1.41-.7-3.164-1.406a15.14,15.14,0,0,0-4.571,0l-13.358,2.109-1.758.7c-.472,1.176-1.054,1.528-1.758,1.055A6.687,6.687,0,0,1,431.175,742l-5.625-20.038-1.758-1.758c-.472-1.17,0-1.637,1.406-1.406l5.274,1.054,32.342-5.273,2.461-.7Q468.785,714.934,472.307,720.207Zm-40.078,2.461,1.758,8.086h2.11l8.437-2.109V723.02a2.528,2.528,0,0,0-1.406-2.461Zm5.977,10.2-3.867-.351,1.055,6.678.7,2.11,8.437-1.406v-8.085Zm3.516,34.8,11.6-1.055,1.055-10.9q-5.981.354-12.655,1.406Zm7.031-47.812,1.406,2.813-.351,4.57a4.421,4.421,0,0,0,2.108-1.054,3.035,3.035,0,0,1,2.109-1.055,11.211,11.211,0,0,1,3.868,1.758q2.109,2.819-1.407,3.164-3.163.354-7.03,1.054l-.352,7.734a40.97,40.97,0,0,1,6.328-1.055,11.667,11.667,0,0,1,3.515.7l4.922-18.632c0-1.169-.473-1.757-1.406-1.757Zm23.905,62.225q2.109,1.054,2.11,5.977-.355,3.164-1.758,3.164a3.043,3.043,0,0,1-2.11-1.055q-7.737-7.728-15.468-15.117c-.7-1.17-.472-1.406.7-.7Q469.845,779.619,472.658,782.08Z" fill="#231f20" stroke="#231f20" stroke-linecap="round" stroke-linejoin="round" stroke-width="2"/><path d="M528.329,720.559a3.874,3.874,0,0,1,1.406,2.461q0,1.409-2.109,2.46-4.219,7.738-9.492,15.468l2.109,2.11a6.28,6.28,0,0,1,.7,2.812V785.6q0,4.218-1.406,5.976t-2.812.7a10.689,10.689,0,0,1-2.461-3.515,16.3,16.3,0,0,1-1.406-5.625q.346-1.4,1.055-3.867,2.107-9.494,2.108-34.8a184.37,184.37,0,0,1-14.764,15.117c-1.176.7-1.528.473-1.055-.7a124.731,124.731,0,0,0,10.547-15.469A199.577,199.577,0,0,0,521.3,721.965a4.691,4.691,0,0,0-1.055-2.813,1.735,1.735,0,0,1-.351-1.757,1.427,1.427,0,0,1,1.757-.7A12.7,12.7,0,0,1,528.329,720.559ZM569.461,741.3q2.809-1.054,10.546,2.109,3.163,2.465,0,4.219-13.01,0-28.827,1.406a21.573,21.573,0,0,1,2.461,3.164q1.755,1.764.351,3.164-8.089,9.492-17.577,18.984,17.575-2.111,29.53-4.219-2.463-3.864-5.976-8.437c-.237-.7,0-.933.7-.7q11.6,6.329,13.008,8.086a21.208,21.208,0,0,1,4.569,10.546,2.84,2.84,0,0,1-1.4,2.813,1.749,1.749,0,0,1-2.11,0,29.536,29.536,0,0,1-2.812-3.516q-2.109-3.163-4.57-6.68-22.149,5.984-30.234,8.438a2.375,2.375,0,0,1-2.109,1.055,3.753,3.753,0,0,1-2.11-.7,18.815,18.815,0,0,1-4.57-3.867,8.6,8.6,0,0,1-1.055-2.109c0-1.406.582-1.758,1.758-1.055a8,8,0,0,0,2.813.7,2.86,2.86,0,0,0,2.109-.7,175.2,175.2,0,0,0,13.358-22.5,3.412,3.412,0,0,0-1.4-1.758q-10.2,1.764-17.578,3.516c-1.176,0-2.812-.7-4.922-2.109q-1.055-.7,0-1.055,22.494-3.864,44.3-7.383ZM556.1,721.965a13.423,13.423,0,0,1,7.734,1.758q2.109,1.763-.7,3.515-9.147.709-18.28,2.11-4.22.707-6.68,1.054-5.274-2.454-3.867-2.812,9.837-1.755,19.335-3.516A32.37,32.37,0,0,0,556.1,721.965Z" fill="#231f20" stroke="#231f20" stroke-linecap="round" stroke-linejoin="round" stroke-width="2"/><path d="M215.38,826.6a4.525,4.525,0,0,1,1.513.279.885.885,0,0,1,.628.861q0,.884-1.117.931a4.733,4.733,0,0,0-2.373.907q-.721.535-1.35.954a1.579,1.579,0,0,1,1.187.675,3.344,3.344,0,0,1,.488,1.838q0,1.024-.023,2.211a11.357,11.357,0,0,0,.838-1.373,6.528,6.528,0,0,0,.931-2.886c0-.248.069-.372.209-.372a2.627,2.627,0,0,1,1.606.606,1.728,1.728,0,0,1,.814,1.326,2.191,2.191,0,0,1-.6,1.373,13.729,13.729,0,0,1-3.537,2.861q2.606-.186,3.258-.185a5.18,5.18,0,0,1,2.14.581q1.536.7,1.536,1.14,0,1.257-1.326,1.257a3.129,3.129,0,0,1-1.4-.535,8.506,8.506,0,0,0-3.816-.885h-.768q-.071,2.42-.233,5.306a16.091,16.091,0,0,1-.884,4.351q-.256.675-.512.675-.139,0-.186-.675-.07-.816-.093-9.494a10.271,10.271,0,0,0-1.117.233,27.761,27.761,0,0,0-4.584,1.931,4.953,4.953,0,0,1-2.118.722,2.491,2.491,0,0,1-1.442-.466c-.218-.171-.326-.3-.326-.372a.227.227,0,0,1,.209-.232,6.373,6.373,0,0,0,2.607-.722,30.437,30.437,0,0,1,4.095-1.652,13.5,13.5,0,0,1,2.676-.745v-3.979a9.529,9.529,0,0,0-.35-2.048q-1.07.7-2,1.188a.083.083,0,0,1-.093-.094,27.372,27.372,0,0,1,3.514-3.048,17.821,17.821,0,0,1-3.77.931,3.309,3.309,0,0,1-1.651-.419,1.451,1.451,0,0,1-.792-1c0-.186.07-.279.209-.279a4,4,0,0,0,1.118.186,10.141,10.141,0,0,0,3.466-.978A8.791,8.791,0,0,1,215.38,826.6Zm-8.307,7.1a4.242,4.242,0,0,1,2.025,1.188.739.739,0,0,0,.419.209q.162,0,.721-1.489c.077,0,.116.062.116.186a5.541,5.541,0,0,1-.977,3.327,1.79,1.79,0,0,1-1.373.862c-.171,0-.334-.2-.489-.582a5.318,5.318,0,0,1-.442-1.885,7.435,7.435,0,0,0-.256-1.629C206.817,833.756,206.9,833.693,207.073,833.693Z" fill="#231f20"/><path d="M229.24,833.392q.721,0,1.513,1.116a3.213,3.213,0,0,1,.7,1.955,14.015,14.015,0,0,1-1.071,4.84q-1.209,3.163-2.256,3.164c-.265,0-.4-.03-.4-.093a21.083,21.083,0,0,0,1.419-4.468,17.489,17.489,0,0,0,.349-3.443,11.98,11.98,0,0,0-.628-2.862C228.868,833.461,228.992,833.392,229.24,833.392Zm11.239-3.258q1.558.046,1.606,1.023,0,.232-.7.722a2.2,2.2,0,0,1-.373.3,8.2,8.2,0,0,0-1.466,1.256,2.471,2.471,0,0,1-.325.349q.651,1.722,1.419,3.42a5.412,5.412,0,0,0,.419-1.954.613.613,0,0,0-.117-.163.4.4,0,0,1-.069-.187c0-.185.178-.279.535-.279a1.365,1.365,0,0,1,.814.233c.264.171.4.333.4.489a8.649,8.649,0,0,1-.954,3.862q1.118,2.048,2.42,4,.93,1.466,1.326,1.466c.047,0,.1-.116.163-.35a21.015,21.015,0,0,0,.163-2.117c.031-.108.054-.163.07-.163.108,0,.233.14.372.419a5.843,5.843,0,0,1,.559,2.559,6.018,6.018,0,0,1-.187,1.723q-.186.512-.465.512a3.2,3.2,0,0,1-1.885-1.141,20.394,20.394,0,0,1-3.374-5.468q-1.4,1.979-2.652,1.978a1.153,1.153,0,0,1-.675-.209c-.125-.078-.187-.14-.187-.187a.728.728,0,0,1,.373-.651q1.14-.442,2.234-2.815l.046-.071q-.815-1.931-1.559-4.072-.79.769-1.535,1.467.815.394.814,1.791a7.489,7.489,0,0,1-.768,3.1,7.206,7.206,0,0,1-2.257,2.675,2.017,2.017,0,0,1-1.07.35q-.327,0-.7-.978a2.377,2.377,0,0,1-.233-.7c0-.093.131-.139.4-.139a1.774,1.774,0,0,0,1.048-.349,4.63,4.63,0,0,0,1.442-1.861,4.467,4.467,0,0,0,.582-1.746c0-.294-.093-.442-.279-.442a3,3,0,0,0-1.071.349q-.279.139-.465.21-.606.51-1.14.93a1.316,1.316,0,0,1-.884.372q-.279,0-.443-.372a1.328,1.328,0,0,1-.3-.861q0-.488,1.117-1.094a28.23,28.23,0,0,0,4.653-3.234,5.694,5.694,0,0,0,.7-.675q-.164-.512-.349-1.023a7.669,7.669,0,0,1-4.352,1.675q-1.443-.069-1.582-1.3,0-.4.209-.4a2.627,2.627,0,0,0,1.117.3,11.24,11.24,0,0,0,4-1.233c.093-.047.178-.085.255-.117q-.511-1.629-1.023-3.4a1,1,0,0,0-.628-.744c-.265-.063-.4-.124-.4-.187q.14-.394.465-.395a2.667,2.667,0,0,1,1.257.348,1.039,1.039,0,0,1,.814.978,13.107,13.107,0,0,0,.489,2.955A8.1,8.1,0,0,1,240.479,830.134Zm-1.931,1.721c.046.14.085.264.116.373a1.032,1.032,0,0,0,.093.186c.094-.155.171-.295.233-.419-.032-.108-.124-.163-.279-.163A.706.706,0,0,0,238.548,831.855Zm3.35-4.77a8.443,8.443,0,0,1,1.164.14,4.791,4.791,0,0,1,1.861.745,1.285,1.285,0,0,1,.582.884q-.022.675-.628.721a1.145,1.145,0,0,1-.931-.535,6.7,6.7,0,0,0-1.838-1.676c-.14-.093-.21-.163-.21-.209Z" fill="#231f20"/><path d="M261.611,838a11.677,11.677,0,0,1-1.071,5.4,4.693,4.693,0,0,1-4.421,2.63,5.408,5.408,0,0,1-3.769-1.28,3.852,3.852,0,0,1-1.443-2.7.843.843,0,0,1,.954-.954,1,1,0,0,1,.838.536q.255.441.511.931a3.084,3.084,0,0,0,2.909,1.558q2.977,0,3.3-5.491a5.686,5.686,0,0,1-3.374,1.7q-5.212,0-5.212-5.072a5.39,5.39,0,0,1,1.3-3.863,6.3,6.3,0,0,1,8.074.139Q261.612,833.253,261.611,838Zm-2.234-1.768a7.639,7.639,0,0,0-.582-3.048,2.872,2.872,0,0,0-2.746-1.28,2.924,2.924,0,0,0-2.4.861,4.183,4.183,0,0,0-.629,2.49q0,3.141,3.025,3.141A3.8,3.8,0,0,0,259.377,836.23Z" fill="#231f20"/><path d="M271.9,826.5q.394,0,1.256.907a2.972,2.972,0,0,1,.792,1.885,3.244,3.244,0,0,1-.535,1.582,3.972,3.972,0,0,0,2.117-.559,3.8,3.8,0,0,1,2.048-.628,1.558,1.558,0,0,1,.884.209,1.173,1.173,0,0,1,.419.909.946.946,0,0,1-.675.86,7.752,7.752,0,0,1-1.28.35,2.963,2.963,0,0,1,.209,1.093v.768h.279q1.024,0,1.024.744,0,.675-1.326,1.048-.022,1.7-.07,3.793a23.53,23.53,0,0,1,3.584-.4,6.841,6.841,0,0,1,2.443.373,1.047,1.047,0,0,1,.652.931q0,.93-.722.931a10.675,10.675,0,0,1-1.512-.3,21.016,21.016,0,0,0-2.536-.14q-1.049,0-1.955.047-.024,1.071-.093,2.21a26.262,26.262,0,0,1-.489,4.166c-.108.434-.21.652-.3.652-.233,0-.381-.218-.443-.652q-.138-.628-.186-6.283-1.443.139-2.722.372a20.456,20.456,0,0,0-4.956,1.955,2.366,2.366,0,0,1-1.28.419,1.239,1.239,0,0,1-.838-.442c-.248-.264-.372-.457-.372-.582,0-.155.131-.233.395-.233a7.5,7.5,0,0,0,2.7-.651,19.334,19.334,0,0,1,3-1.07,7.368,7.368,0,0,0,.279-1.118,6.72,6.72,0,0,0,.117-1.233,2.76,2.76,0,0,0-.722-1.21c0-.061.062-.093.186-.093a2.338,2.338,0,0,1,1.327.489q.629.4.628.814a3.814,3.814,0,0,1-.558,1.745,1.937,1.937,0,0,1-.163.279,7.747,7.747,0,0,1,.768-.185q1.163-.28,2.21-.489-.023-1.722-.023-3.77a12.974,12.974,0,0,1-1.792.187,2.152,2.152,0,0,1-1.07-.3c-.31-.233-.474-.411-.489-.535q0-.21.489-.256a9.631,9.631,0,0,0,2.234-.722,4.321,4.321,0,0,1,.628-.232v-1.024a6.7,6.7,0,0,0-.116-1.048,6.279,6.279,0,0,1-2.211-.464,1,1,0,0,1-.139-.093c-.125.155-.241.3-.35.441A9.887,9.887,0,0,1,268.483,835a.164.164,0,0,1-.186-.186,19.915,19.915,0,0,0,2.816-3.863,6.747,6.747,0,0,0,.907-3.211,2.7,2.7,0,0,0-.209-1.024C271.811,826.573,271.842,826.5,271.9,826.5Z" fill="#231f20"/><path d="M294.6,845.1a.8.8,0,0,1-.349.675,1.18,1.18,0,0,1-.791.279q-1.071,0-1.07-.954V834.741h-2.63a1.307,1.307,0,0,1-.838-.279.8.8,0,0,1-.349-.675q0-.7,1.094-.838a3.123,3.123,0,0,0,2.048-1.6q.93-1.328,1.885-1.326.418,0,.744.6a2.086,2.086,0,0,1,.256,1.024Z" fill="#231f20"/><path d="M309.051,844.677a.844.844,0,0,1-.954.954H300.6a3.353,3.353,0,0,1-1.559-.372,1.287,1.287,0,0,1-.768-1.164,3.728,3.728,0,0,1,1.28-2.536,22.169,22.169,0,0,1,2.979-2.351q1-.72,2.978-2.28a3.571,3.571,0,0,0,1.35-2.49,2.307,2.307,0,0,0-.954-1.978,3.932,3.932,0,0,0-2.141-.558,4.416,4.416,0,0,0-2.536.558,3.542,3.542,0,0,0-1.094,2.187,2.073,2.073,0,0,1-.233.746.7.7,0,0,1-.675.348.945.945,0,0,1-.7-.279.906.906,0,0,1-.257-.628,4.414,4.414,0,0,1,1.583-3.606,6.844,6.844,0,0,1,7.632-.14,3.926,3.926,0,0,1,1.559,3.35q0,2.492-3.932,5.236-1.048.675-2.909,2a5.014,5.014,0,0,0-1.885,2.048H308.1a.9.9,0,0,1,.7.279A.911.911,0,0,1,309.051,844.677Z" fill="#231f20"/><path d="M319.554,829.389q.093,0,.442.395a2.133,2.133,0,0,1,.861,1.373q-.024.652-.047,1.187a1.46,1.46,0,0,1,.14-.162,4.211,4.211,0,0,1,2.4-.932,1.148,1.148,0,0,1,1.233,1.3q0,.418-1.35,1.977a7.044,7.044,0,0,0-1.187,1.653.772.772,0,0,0,.233.6,8.5,8.5,0,0,0,1.373.07c.683.032,1.024.341,1.024.931a1.343,1.343,0,0,1-.489.861,18.817,18.817,0,0,1-2.792,1.954,1.063,1.063,0,0,1-.535.164.165.165,0,0,1-.187-.187,9.911,9.911,0,0,1,1.537-1.395c.34-.28.511-.466.511-.559q0-.256-.372-.3-1.49-.091-1.838-.558a.869.869,0,0,1-.186-.419,24.486,24.486,0,0,1-.954,4.375q-1.164,3.188-2.583,4.141a2.6,2.6,0,0,1-1.14.466c-.14,0-.21-.031-.21-.094a14.413,14.413,0,0,0,2.839-5.467,54.426,54.426,0,0,0,1.186-10.984C319.46,829.521,319.492,829.389,319.554,829.389Zm.977,6.376a8.086,8.086,0,0,1,.838-.908q1.348-1.255,1.349-1.559c0-.294-.132-.442-.4-.442a4.769,4.769,0,0,0-1.583.465Q320.647,834.625,320.531,835.765Zm6.282-8.61q.442,0,1.187,1.234a3.325,3.325,0,0,1,.675,1.489,6.26,6.26,0,0,1-.325.814,10.993,10.993,0,0,0-.373,2.025q-.139,1.907-.14,5.025v7.028a3.783,3.783,0,0,1-.558,2.14,1.166,1.166,0,0,1-.954.652,2.176,2.176,0,0,1-1.629-.884,23.445,23.445,0,0,0-3.4-2.839c0-.062.07-.093.209-.093a17.492,17.492,0,0,0,3.514,1.024q.512,0,.512-.791,0-9.053.139-10.634a11.947,11.947,0,0,0,.21-1.606,3.748,3.748,0,0,0-.372-1.839,1.307,1.307,0,0,0-1.14-.86,8.276,8.276,0,0,0-1.815.325,7.778,7.778,0,0,1-1.35.326c-.3,0-.442-.069-.442-.209q0-.139.605-.605a7.137,7.137,0,0,1,2.048-1.094A9.349,9.349,0,0,1,326.813,827.155Z" fill="#231f20"/><path d="M375.778,832.367q1.093,0,1.093,1.025-.024.6-1.372,1.884a.739.739,0,0,1,.093.372q0,.4-.675.628-.7.188-1.373.35v1.023a18.618,18.618,0,0,1,5.375-.977,6.593,6.593,0,0,1,2.467.349,1.143,1.143,0,0,1,.791,1.024q0,.721-2.117,2.443a6.821,6.821,0,0,1-2.514,1.559,1.41,1.41,0,0,1-1.116-.768c-.265-.279-.4-.48-.4-.6,0-.078.109-.14.325-.187a5.113,5.113,0,0,0,2.467-.814q1.024-.675,1.024-1.257a.434.434,0,0,0-.28-.441,3.223,3.223,0,0,0-1.186-.187,16.883,16.883,0,0,0-4.793.768l-.047.023v6.539a5.24,5.24,0,0,1-.349,2.187q-.279.629-.674.629-.513,0-1.513-2.048v-.093a.56.56,0,0,0,.4.256q.721,0,.722-1.117v-3.979a37.2,37.2,0,0,1-2.815,3.327,3.948,3.948,0,0,1-2.56,1.326c-.249,0-.373-.069-.373-.209a11.992,11.992,0,0,0,2.583-2.4,26.228,26.228,0,0,0,2.909-3.862,17.9,17.9,0,0,0-3.887,2,3.285,3.285,0,0,1-1.511.838c-.389,0-.582-.225-.582-.675a1.654,1.654,0,0,1,.419-.745,5.852,5.852,0,0,0,1.535-3.257q0-.3.954-.35.7.024.745.535a5.378,5.378,0,0,1-1.187,2.118q2.025-.884,3.77-1.512v-1.187l-.256.046a11.507,11.507,0,0,1-1.606.163c-.418,0-.628-.116-.628-.348q0-.186.466-.373,1.162-.4,2-.652a1.391,1.391,0,0,0-.3-.93.333.333,0,0,1-.209-.233,7.779,7.779,0,0,1-1.606.233q-.721-.048-.838-.4c0-.124.209-.232.628-.326A24.147,24.147,0,0,1,375.778,832.367Zm-6.539-5.468a4.306,4.306,0,0,0,.628.465,1.282,1.282,0,0,1,.7,1.094,2.475,2.475,0,0,1-.395,1.117.926.926,0,0,1,.838.744l1.117-.93v.093q-.653,1.326-1.21,2.49-.374.977-1.024.977-.536,0-.536-.861l.815-1.373a11.006,11.006,0,0,1-3.514,1.373q-.675,0-.675-.559c0-.154.187-.372.559-.651q2.49-2.535,2.49-3.677C369.03,827,369.1,826.9,369.239,826.9Zm3.188,7.447a1.281,1.281,0,0,1,.7.372,1.447,1.447,0,0,1,.326.581c.17-.046.318-.085.443-.116l1.21-1.49c0-.061-.063-.092-.187-.092Q373.474,834.066,372.427,834.346Zm2.769-8.657a1.876,1.876,0,0,1,1.024.442,1,1,0,0,1,.489.861,4.813,4.813,0,0,1-.978,1.769,8.508,8.508,0,0,1,2.072-.4c.635,0,.953.195.953.582a1.654,1.654,0,0,1-1.326,1.466q-1.4.675-3.444,1.675v-.069q1.093-.978,1.932-1.792h-1.257q-1.211,0-1.21-.931a2.411,2.411,0,0,1,.768-1.559A3.707,3.707,0,0,0,375.2,825.689Z" fill="#231f20"/><path d="M397.288,837.021a16.832,16.832,0,0,0-3.514.326,11.884,11.884,0,0,0-2.49.7,3.539,3.539,0,0,1-1.605.372,4.019,4.019,0,0,1-1.653-.279q-.791-.326-.791-.837c0-.171.063-.257.187-.257a14.122,14.122,0,0,0,3.606-.535,24.816,24.816,0,0,1,5.492-.837q4.421-.372,5.329-.513a8.073,8.073,0,0,1,1.21-.093,4.639,4.639,0,0,1,2.559.746,2.489,2.489,0,0,1,1.35,1.977.823.823,0,0,1-.931.931,2.946,2.946,0,0,1-1.326-.512,14.041,14.041,0,0,0-3-.791A24.511,24.511,0,0,0,397.288,837.021Z" fill="#231f20"/><path d="M411.944,830.994c.109,0,.311.149.606.443a3.819,3.819,0,0,1,1,1.489,7,7,0,0,1,.163,1.023q.534-.255,1.024-.511a7.572,7.572,0,0,0,1.791-4.677q0-.489.443-.489a2.358,2.358,0,0,1,1.349.349,1.421,1.421,0,0,1,.512,1.163,3.422,3.422,0,0,1-.441,1.4,5.667,5.667,0,0,1-1.072,1.21.63.63,0,0,1,.14-.024q1.211,0,1.21.931,0,.606-1.07,1.723a24.379,24.379,0,0,1-2.071,2.023c.233-.123.5-.256.791-.4a1.353,1.353,0,0,1,.652-.279,1.37,1.37,0,0,1,.838.4.942.942,0,0,1,.488.72V844.1a1.239,1.239,0,0,1-.256.791.641.641,0,0,1-.488.233.691.691,0,0,1-.49-.3.9.9,0,0,1-.185-.535q-.163-4.21-.163-5.119c0-.5-.063-.745-.187-.745a10.858,10.858,0,0,0-2.14.605,3.394,3.394,0,0,1-.628.209,37.487,37.487,0,0,1-.443,4.445,6.3,6.3,0,0,1-.6,1.931.938.938,0,0,1-.675.443q-.442,0-.442-.931a2.786,2.786,0,0,1,.163-1.117,7.313,7.313,0,0,0,.6-2.28,37.67,37.67,0,0,0,.256-4.678,31.8,31.8,0,0,0-.116-3.56,8.057,8.057,0,0,0-.582-1.675,2.346,2.346,0,0,1-.139-.721C411.782,831.025,411.836,830.994,411.944,830.994Zm1.862,6.7a10.422,10.422,0,0,0,1.3-1.722,5.542,5.542,0,0,0,.582-.977q0-.186-.093-.186a1.329,1.329,0,0,1-.768.348,3.963,3.963,0,0,1-1.047-.116q.022.861.023,1.908Zm11.751-7.912q.745,0,.745.443,0,1.094-1.722,1.652-.745.186-1.28.3-.164.7-.535,2.07l.139-.14a3.434,3.434,0,0,1,2.072-1.163q1.7,0,1.768,2.048a12.365,12.365,0,0,1-1.094,4.909,16.056,16.056,0,0,0,3.583,2.141,18.313,18.313,0,0,1,3.049,1.233c.527.265.791.535.791.815q0,.766-1.466.768a6.635,6.635,0,0,1-2.909-.605,7.966,7.966,0,0,1-3.3-2.373q-.28-.281-.513-.559-1.466,2.419-2.885,2.42a3,3,0,0,1-1.35-.232q-.069.3-.116.581a.8.8,0,0,1-.838.582q-.558-.071-.582-.838,2.282-7.586,3.327-11.5a5.675,5.675,0,0,1-.976.116,1.468,1.468,0,0,1-.769-.209c-.216-.14-.333-.248-.348-.326q0-.3.488-.4a8.547,8.547,0,0,0,2.188-1.023A4.292,4.292,0,0,1,425.557,829.784ZM420.74,843.1a8.1,8.1,0,0,0,2.909-3.073q-1-1.046-1.862-1.837Q421.3,840.419,420.74,843.1Zm1.3-6,2.164,1.745a9.924,9.924,0,0,0,.861-3.77c0-.433-.092-.651-.279-.651s-.6.279-1.186.838a2.435,2.435,0,0,1-.931.581.825.825,0,0,1-.3-.046Q422.183,836.417,422.043,837.091Z" fill="#231f20"/><path d="M450.382,832.367q1.092,0,1.093,1.025-.024.6-1.372,1.884a.749.749,0,0,1,.092.372q0,.4-.674.628c-.466.125-.923.242-1.374.35v1.023a18.618,18.618,0,0,1,5.375-.977,6.593,6.593,0,0,1,2.467.349,1.142,1.142,0,0,1,.791,1.024q0,.721-2.117,2.443a6.805,6.805,0,0,1-2.514,1.559,1.41,1.41,0,0,1-1.116-.768c-.264-.279-.4-.48-.4-.6,0-.078.108-.14.325-.187a5.116,5.116,0,0,0,2.467-.814q1.023-.675,1.023-1.257a.434.434,0,0,0-.279-.441,3.228,3.228,0,0,0-1.187-.187,16.894,16.894,0,0,0-4.793.768l-.047.023v6.539a5.258,5.258,0,0,1-.348,2.187c-.187.419-.411.629-.675.629q-.513,0-1.513-2.048v-.093a.564.564,0,0,0,.4.256c.48,0,.722-.373.722-1.117v-3.979a37.189,37.189,0,0,1-2.816,3.327,3.946,3.946,0,0,1-2.559,1.326c-.25,0-.374-.069-.374-.209a11.969,11.969,0,0,0,2.583-2.4,26.233,26.233,0,0,0,2.91-3.862,17.854,17.854,0,0,0-3.887,2,3.291,3.291,0,0,1-1.512.838q-.582,0-.582-.675a1.665,1.665,0,0,1,.419-.745,5.845,5.845,0,0,0,1.535-3.257c0-.2.319-.319.954-.35q.7.024.746.535a5.378,5.378,0,0,1-1.187,2.118q2.025-.884,3.77-1.512v-1.187l-.256.046a11.5,11.5,0,0,1-1.607.163c-.418,0-.628-.116-.628-.348,0-.124.156-.248.466-.373q1.162-.4,2-.652a1.386,1.386,0,0,0-.3-.93.336.336,0,0,1-.209-.233,7.762,7.762,0,0,1-1.6.233q-.723-.048-.838-.4c0-.124.209-.232.628-.326A24.124,24.124,0,0,1,450.382,832.367Zm-6.539-5.468a4.2,4.2,0,0,0,.628.465,1.282,1.282,0,0,1,.7,1.094,2.479,2.479,0,0,1-.4,1.117.924.924,0,0,1,.838.744l1.118-.93v.093q-.652,1.326-1.21,2.49-.374.977-1.025.977-.534,0-.535-.861l.814-1.373a11,11,0,0,1-3.513,1.373q-.675,0-.675-.559c0-.154.186-.372.559-.651q2.49-2.535,2.49-3.677C443.634,827,443.7,826.9,443.843,826.9Zm3.187,7.447a1.284,1.284,0,0,1,.7.372,1.459,1.459,0,0,1,.326.581c.17-.046.317-.085.442-.116l1.21-1.49c0-.061-.062-.092-.186-.092Q448.078,834.066,447.03,834.346Zm2.77-8.657a1.874,1.874,0,0,1,1.023.442,1,1,0,0,1,.489.861,4.82,4.82,0,0,1-.977,1.769,8.5,8.5,0,0,1,2.071-.4c.636,0,.953.195.953.582a1.654,1.654,0,0,1-1.326,1.466q-1.395.675-3.443,1.675v-.069q1.092-.978,1.931-1.792h-1.256q-1.21,0-1.21-.931a2.414,2.414,0,0,1,.767-1.559A3.709,3.709,0,0,0,449.8,825.689Z" fill="#231f20"/><path d="M472.158,843.188a15.609,15.609,0,0,0-3.815.418,10.882,10.882,0,0,0-2.654.861,3.37,3.37,0,0,1-1.768.489,3.611,3.611,0,0,1-1.606-.3q-.744-.324-.744-.814c0-.124.07-.187.209-.187a14.924,14.924,0,0,0,3.933-.628,25.65,25.65,0,0,1,6.026-1q4.8-.394,5.818-.582a7.712,7.712,0,0,1,1.349-.116,4.482,4.482,0,0,1,2.4.675q1.326.791,1.326,1.745,0,.93-.838.931a3.744,3.744,0,0,1-1.489-.443A18.85,18.85,0,0,0,477,843.56,30.91,30.91,0,0,0,472.158,843.188Zm3.933-13.613a5.146,5.146,0,0,1,1.629.279.883.883,0,0,1,.6.861q0,.978-1.117,1.024a2.84,2.84,0,0,0-1.35.443,21.044,21.044,0,0,1-2.374,1.3.082.082,0,0,1-.092-.092,16.061,16.061,0,0,1,1.3-1.49,27.5,27.5,0,0,1-5.561,1.3,3.537,3.537,0,0,1-1.722-.419,1.508,1.508,0,0,1-.814-1.047c0-.2.069-.3.209-.3a4.146,4.146,0,0,0,1.21.209,12.736,12.736,0,0,0,4.1-1.093A10.6,10.6,0,0,1,476.091,829.575Zm-2.885,6.166q2.442.024,2.442,1.653-.047.837-1.023.837a31.548,31.548,0,0,0-3.909.233,16.013,16.013,0,0,1-1.676.163,2.653,2.653,0,0,1-1.419-.372c-.372-.14-.582-.295-.628-.466,0-.093.054-.14.162-.14a6.7,6.7,0,0,0,2.746-.93A8.75,8.75,0,0,1,473.206,835.741Z" fill="#231f20"/><path d="M496.105,827.83a2.437,2.437,0,0,1,1.652.6,1.821,1.821,0,0,1,.675,1.256c0,.621-.162.986-.489,1.094a6.854,6.854,0,0,0-1.6,1.513.5.5,0,0,1,.14.372q0,.7-1.21,1.07c-.124.031-.242.063-.349.093a1.43,1.43,0,0,1,.418.931,2.286,2.286,0,0,1,.7-.256q2.49,0,2.607,2.164a12.67,12.67,0,0,1-.3,2.559,6.327,6.327,0,0,1-.838,2.048q-.348.606-.721.606a.928.928,0,0,1-.93-.862,2.643,2.643,0,0,1,.255-.767,8.88,8.88,0,0,0,.582-3.584q-.048-.488-.745-.488a2.816,2.816,0,0,0-.582.139c.016.744.032,1.428.047,2.048q.024,1.558.047,6.585-.093,1-.932,1.094-.6-.117-.627-1.28c0-.373.007-.713.023-1.024q0-.651.023-3.816.023-1.7.046-3.072a2.146,2.146,0,0,1-.581.186c-.651,0-1.024-.154-1.117-.465.047-.124.178-.21.4-.256a6.585,6.585,0,0,0,.977-.605,2.737,2.737,0,0,0,.325-.233V834.9a1.119,1.119,0,0,0-.348-.814,5.036,5.036,0,0,1-.582.047.953.953,0,0,1-.233-.024,9.485,9.485,0,0,1-.628,1.582,17.523,17.523,0,0,1-1.093,2.072.744.744,0,0,1,.139.046,1.861,1.861,0,0,1,.861,1.234,7.879,7.879,0,0,1,.373,1.977c0,1.009-.149,1.513-.443,1.513-.218,0-.419-.171-.605-.512a10.443,10.443,0,0,1-.489-2.374,2.67,2.67,0,0,0-.4-1q-.418.651-.861,1.256a7.261,7.261,0,0,1-2.35,2.281,2.256,2.256,0,0,1-1,.349c-.124,0-.186-.039-.186-.116a21.036,21.036,0,0,0,2.513-3.072,17.072,17.072,0,0,0,1.908-4,10.205,10.205,0,0,0,.605-3.164,3.784,3.784,0,0,0-.162-1.094c0-.187.053-.279.162-.279a1.711,1.711,0,0,1,1.164.6,2.415,2.415,0,0,1,.6,1.56,7.029,7.029,0,0,0,.838-.419,2.475,2.475,0,0,1,.884-.35l1.443-2.07a.226.226,0,0,0-.255-.256,19.441,19.441,0,0,0-3.933.7,3.187,3.187,0,0,1-.559.14c-.279,0-.426-.069-.442-.209q0-.21.489-.559a6.942,6.942,0,0,1,1.862-1.186A8.169,8.169,0,0,1,496.105,827.83Zm4.677,4.258q.186,0,.628,1.326a11.037,11.037,0,0,1,.582,3.352,2.449,2.449,0,0,1-.372,1.489.8.8,0,0,1-.651.372c-.544-.047-.83-.427-.862-1.141a12.03,12.03,0,0,1,.256-2.21,21.224,21.224,0,0,0,.3-2.722C500.682,832.243,500.72,832.088,500.782,832.088Zm4.84-4.653a1.089,1.089,0,0,1,.768.3,1.81,1.81,0,0,1,.536,1.3,6.35,6.35,0,0,1-.21,1.326q-.186,1.14-.279,2.536-.187,3.864-.186,6.074,0,1.605.3,6.539-.048,1.815-.489,1.838-.58,0-1.28-.908a3.107,3.107,0,0,1-.675-1.42c0-.17.032-.255.094-.255a1.419,1.419,0,0,0,.581.186c.063,0,.094-.179.094-.535q0-9.518.046-11.821.117-2.327.116-4.049l-.162-.907Q504.878,827.458,505.622,827.435Z" fill="#231f20"/></g></svg>
