<svg xmlns="http://www.w3.org/2000/svg" width="710" height="1000" viewBox="0 0 710 1000"><g id="Artboard"><rect id="Tint" width="710" height="1000" fill="#58595b"/></g><g id="Outline"><path d="M212.588,850.493c-.471,0-2.02-.182-2.181-2.538-.03-.338-.067-1.508-.09-6.976-.816.328-1.756.76-2.8,1.292a6.551,6.551,0,0,1-3.025.939,4.464,4.464,0,0,1-2.578-.82c-.034-.023-.067-.047-.1-.073a2.517,2.517,0,0,1-1.091-1.945,2.209,2.209,0,0,1,1.772-2.184,2.016,2.016,0,0,1,.362-.047,4.415,4.415,0,0,0,1.787-.512c.225-.114.461-.229.708-.342a9.433,9.433,0,0,1-.269-1.6,5.748,5.748,0,0,0-.176-1.224,1.991,1.991,0,0,1-.089-.588,2.2,2.2,0,0,1,2.256-2.187,2.87,2.87,0,0,1,.811.119c.006-.037.012-.074.019-.11a5.094,5.094,0,0,1-.926-.407,3.4,3.4,0,0,1-1.8-2.5,1.882,1.882,0,0,1-.016-.249,2.2,2.2,0,0,1,2.209-2.279,2.016,2.016,0,0,1,.568.082,2.027,2.027,0,0,0,.55.1,8.239,8.239,0,0,0,2.691-.821,10.515,10.515,0,0,1,4.2-1.04,6.554,6.554,0,0,1,2.18.393,2.934,2.934,0,0,1,1.386,4.513c.062.044.124.089.185.136a3.625,3.625,0,0,1,1.6,2.915,3.991,3.991,0,0,1-.879,2.415,10.1,10.1,0,0,1,.986.4c.856.389,2.685,1.221,2.685,2.95a3.116,3.116,0,0,1-3.326,3.257,4.736,4.736,0,0,1-2.341-.77,6.4,6.4,0,0,0-1.712-.553c-.043,1.048-.1,2.158-.163,3.321a17.939,17.939,0,0,1-1.033,5A2.5,2.5,0,0,1,212.588,850.493Z" fill="#fff"/><path d="M215.38,826.6a4.525,4.525,0,0,1,1.513.279.885.885,0,0,1,.628.861q0,.884-1.117.931a4.733,4.733,0,0,0-2.373.907q-.721.535-1.35.954a1.579,1.579,0,0,1,1.187.675,3.344,3.344,0,0,1,.488,1.838q0,1.024-.023,2.211a11.357,11.357,0,0,0,.838-1.373,6.528,6.528,0,0,0,.931-2.886c0-.248.069-.372.209-.372a2.627,2.627,0,0,1,1.606.606,1.728,1.728,0,0,1,.814,1.326,2.191,2.191,0,0,1-.6,1.373,13.729,13.729,0,0,1-3.537,2.861q2.606-.186,3.258-.185a5.18,5.18,0,0,1,2.14.581q1.536.7,1.536,1.14,0,1.257-1.326,1.257a3.129,3.129,0,0,1-1.4-.535,8.506,8.506,0,0,0-3.816-.885h-.768q-.071,2.42-.233,5.306a16.091,16.091,0,0,1-.884,4.351q-.256.675-.512.675-.139,0-.186-.675-.07-.816-.093-9.494a10.271,10.271,0,0,0-1.117.233,27.761,27.761,0,0,0-4.584,1.931,4.953,4.953,0,0,1-2.118.722,2.491,2.491,0,0,1-1.442-.466c-.218-.171-.326-.3-.326-.372a.227.227,0,0,1,.209-.232,6.373,6.373,0,0,0,2.607-.722,30.437,30.437,0,0,1,4.095-1.652,13.5,13.5,0,0,1,2.676-.745v-3.979a9.529,9.529,0,0,0-.35-2.048q-1.07.7-2,1.188a.083.083,0,0,1-.093-.094,27.372,27.372,0,0,1,3.514-3.048,17.821,17.821,0,0,1-3.77.931,3.309,3.309,0,0,1-1.651-.419,1.451,1.451,0,0,1-.792-1c0-.186.07-.279.209-.279a4,4,0,0,0,1.118.186,10.141,10.141,0,0,0,3.466-.978,8.791,8.791,0,0,1,3.421-.883m-5.142,7c.077,0,.116.062.116.186a5.541,5.541,0,0,1-.977,3.327,1.79,1.79,0,0,1-1.373.862c-.171,0-.334-.2-.489-.582a5.318,5.318,0,0,1-.442-1.885,7.435,7.435,0,0,0-.256-1.629c0-.124.085-.187.256-.187a4.242,4.242,0,0,1,2.025,1.188.739.739,0,0,0,.419.209q.162,0,.721-1.489m5.142-11a12.468,12.468,0,0,0-5,1.209,10.556,10.556,0,0,1-1.85.636l-.018,0a4.008,4.008,0,0,0-1.136-.165,4.2,4.2,0,0,0-4.209,4.279,3.94,3.94,0,0,0,.031.5,5.05,5.05,0,0,0,.711,2,4.145,4.145,0,0,0-1.091,2.827,4.01,4.01,0,0,0,.177,1.176h0a4.4,4.4,0,0,1,.088.724c0,.032,0,.064.008.1l.021.214a1.508,1.508,0,0,1-.329.052,4.1,4.1,0,0,0-.724.094,4.225,4.225,0,0,0-3.336,4.136,4.384,4.384,0,0,0,1.856,3.519c.064.05.13.1.2.145a6.518,6.518,0,0,0,3.715,1.174,8.288,8.288,0,0,0,3.845-1.111c.026,3.294.058,3.781.079,4.032.254,3.442,2.74,4.362,4.174,4.362a4.47,4.47,0,0,0,4.23-3.2,19.813,19.813,0,0,0,1.147-5.442c0-.053.01-.107.013-.16.01-.193.021-.385.031-.575a5.689,5.689,0,0,0,2.188.464,5.118,5.118,0,0,0,5.326-5.257,5,5,0,0,0-2.984-4.343,5.481,5.481,0,0,0,.192-1.427A5.4,5.4,0,0,0,221.364,829a5.082,5.082,0,0,0,.157-1.266,4.876,4.876,0,0,0-3.118-4.565c-.058-.024-.117-.046-.177-.067a8.537,8.537,0,0,0-2.846-.508Z" fill="#fff"/><path d="M246.087,849.26a5.03,5.03,0,0,1-3.285-1.712A16.523,16.523,0,0,1,240.285,844a3.928,3.928,0,0,1-2.109.629,3.191,3.191,0,0,1-1.256-.256,6.376,6.376,0,0,1-1.2.98,3.988,3.988,0,0,1-2.123.649,2.669,2.669,0,0,1-2.361-1.769c-.742,1.277-1.715,2.234-3.107,2.234a2.154,2.154,0,0,1-2.4-2.093,2,2,0,0,1,.173-.814,19.214,19.214,0,0,0,1.285-4.045,15.6,15.6,0,0,0,.31-3.052,10.291,10.291,0,0,0-.542-2.282,2.007,2.007,0,0,1-.086-.58,2.242,2.242,0,0,1,2.372-2.209,2.994,2.994,0,0,1,.789.1,2.158,2.158,0,0,1,1.91-1.13,2.029,2.029,0,0,1,.87.2,1.125,1.125,0,0,0,.28.107,6.052,6.052,0,0,0,1.784-.486q-.195-.648-.39-1.315a2.077,2.077,0,0,1-1.216-1.879,2.005,2.005,0,0,1,.113-.664,2.47,2.47,0,0,1,2.352-1.731,4.6,4.6,0,0,1,2.088.526,3,3,0,0,1,1.983,2.8c0,.071,0,.167.014.293.12-.026.234-.044.345-.059a2.013,2.013,0,0,1-.264-1,2.062,2.062,0,0,1,2-2.07,9.737,9.737,0,0,1,1.492.167l.107.02a6.656,6.656,0,0,1,2.647,1.113,3.2,3.2,0,0,1,1.358,2.362,1.722,1.722,0,0,1,0,.176,2.621,2.621,0,0,1-2.473,2.646c-.051,0-.1.006-.154.006a3.021,3.021,0,0,1-.825-.114,2.722,2.722,0,0,1-.929,1.6,3.02,3.02,0,0,1,.264.168,2.492,2.492,0,0,1,1.233,2.116,10.354,10.354,0,0,1-.724,3.755c.25.437.507.873.771,1.3a2.092,2.092,0,0,1,1.141-.358,2.371,2.371,0,0,1,2.161,1.524,7.881,7.881,0,0,1,.77,3.454,7.721,7.721,0,0,1-.281,2.331A2.533,2.533,0,0,1,246.087,849.26Z" fill="#fff"/><path d="M235.732,826.6a2.667,2.667,0,0,1,1.257.348,1.039,1.039,0,0,1,.814.978,13.107,13.107,0,0,0,.489,2.955,8.1,8.1,0,0,1,2.187-.744q1.558.046,1.606,1.023,0,.232-.7.722a2.2,2.2,0,0,1-.373.3,8.2,8.2,0,0,0-1.466,1.256,2.471,2.471,0,0,1-.325.349q.651,1.722,1.419,3.42a5.412,5.412,0,0,0,.419-1.954.613.613,0,0,0-.117-.163.4.4,0,0,1-.069-.187c0-.185.178-.279.535-.279a1.365,1.365,0,0,1,.814.233c.264.171.4.333.4.489a8.649,8.649,0,0,1-.954,3.862q1.118,2.048,2.42,4,.93,1.466,1.326,1.466c.047,0,.1-.116.163-.35a21.015,21.015,0,0,0,.163-2.117c.031-.108.054-.163.07-.163.108,0,.233.14.372.419a5.843,5.843,0,0,1,.559,2.559,6.018,6.018,0,0,1-.187,1.723q-.186.512-.465.512a3.2,3.2,0,0,1-1.885-1.141,20.394,20.394,0,0,1-3.374-5.468q-1.4,1.979-2.652,1.978a1.153,1.153,0,0,1-.675-.209c-.125-.078-.187-.14-.187-.187a.728.728,0,0,1,.373-.651q1.14-.442,2.234-2.815l.046-.071q-.815-1.931-1.559-4.072-.79.769-1.535,1.467.815.394.814,1.791a7.489,7.489,0,0,1-.768,3.1,7.215,7.215,0,0,1-2.257,2.675,2.017,2.017,0,0,1-1.07.35q-.327,0-.7-.978a2.377,2.377,0,0,1-.233-.7c0-.093.131-.139.4-.139a1.774,1.774,0,0,0,1.048-.349,4.63,4.63,0,0,0,1.442-1.861,4.467,4.467,0,0,0,.582-1.746c0-.294-.093-.442-.279-.442a3,3,0,0,0-1.071.349q-.279.139-.465.21-.606.51-1.14.93a1.316,1.316,0,0,1-.884.372q-.279,0-.443-.372a1.328,1.328,0,0,1-.3-.861q0-.488,1.117-1.094a28.23,28.23,0,0,0,4.653-3.234,5.694,5.694,0,0,0,.7-.675q-.164-.512-.349-1.023a7.669,7.669,0,0,1-4.352,1.675q-1.443-.069-1.582-1.3,0-.4.209-.4a2.627,2.627,0,0,0,1.117.3,11.24,11.24,0,0,0,4-1.233c.093-.047.178-.085.255-.117q-.511-1.629-1.023-3.4a1,1,0,0,0-.628-.744c-.265-.063-.4-.124-.4-.187q.14-.394.465-.395m3.025,5.817c.094-.155.171-.295.233-.419-.032-.108-.124-.163-.279-.163a.706.706,0,0,0-.163.023c.046.14.085.264.116.373a1.032,1.032,0,0,0,.093.186m3.141-5.329a8.443,8.443,0,0,1,1.164.14,4.791,4.791,0,0,1,1.861.745,1.285,1.285,0,0,1,.582.884q-.022.675-.628.721a1.145,1.145,0,0,1-.931-.535,6.7,6.7,0,0,0-1.838-1.676c-.14-.093-.21-.163-.21-.209v-.07m-12.658,6.307q.721,0,1.513,1.116a3.213,3.213,0,0,1,.7,1.955,14.015,14.015,0,0,1-1.071,4.84q-1.209,3.163-2.256,3.164c-.265,0-.4-.03-.4-.093a21.083,21.083,0,0,0,1.419-4.468,17.489,17.489,0,0,0,.349-3.443,11.98,11.98,0,0,0-.628-2.862c0-.14.124-.209.372-.209m6.492-10.8a4.476,4.476,0,0,0-4.238,3.068,4,4,0,0,0-.227,1.327,4.049,4.049,0,0,0,.254,1.4,4.25,4.25,0,0,0-2.306,1,4.245,4.245,0,0,0-4.347,4.209,4,4,0,0,0,.172,1.16,13.436,13.436,0,0,1,.456,1.783,13.689,13.689,0,0,1-.271,2.577,17.155,17.155,0,0,1-1.151,3.624,4.011,4.011,0,0,0-.346,1.629,4.155,4.155,0,0,0,4.4,4.093,4.791,4.791,0,0,0,3.136-1.161,4.2,4.2,0,0,0,2.332.7,5.96,5.96,0,0,0,3.194-.96,7.567,7.567,0,0,0,.665-.463,5.287,5.287,0,0,0,.725.05,5.729,5.729,0,0,0,1.27-.141,15.323,15.323,0,0,0,1.907,2.439l.05.049a6.836,6.836,0,0,0,4.684,2.284,4.487,4.487,0,0,0,4.224-3.144c.018-.05.036-.1.052-.152a9.59,9.59,0,0,0,.376-2.939,9.827,9.827,0,0,0-.952-4.288l-.029-.06a4.4,4.4,0,0,0-3.456-2.6,11.962,11.962,0,0,0,.318-2.732,4.389,4.389,0,0,0-.473-1.951,4.6,4.6,0,0,0,3.356-4.4q.006-.175,0-.351a5.126,5.126,0,0,0-2.094-3.808l-.042-.033a8.575,8.575,0,0,0-3.433-1.48c-.071-.016-.142-.029-.214-.041a11.233,11.233,0,0,0-1.819-.194,3.981,3.981,0,0,0-2.3.73,5.615,5.615,0,0,0-.937-.509,6.552,6.552,0,0,0-2.925-.709Z" fill="#fff"/><path d="M256.119,848.026a7.364,7.364,0,0,1-5.109-1.8,5.789,5.789,0,0,1-2.1-4.183,2.883,2.883,0,0,1,1.129-2.391,7.622,7.622,0,0,1-1.2-4.4,7.332,7.332,0,0,1,1.852-5.24,8.24,8.24,0,0,1,11.039.209c1.28,1.577,1.883,4.105,1.883,7.776a13.648,13.648,0,0,1-1.3,6.325A6.678,6.678,0,0,1,256.119,848.026Zm-.9-14a2.831,2.831,0,0,0-.2,1.23c0,1.1.213,1.141,1.025,1.141a1.483,1.483,0,0,0,1.285-.709,4.827,4.827,0,0,0-.278-1.515c-.14-.249-.806-.268-1.007-.268A2.043,2.043,0,0,0,255.22,834.023Z" fill="#fff"/><path d="M256.049,829.994a5.218,5.218,0,0,1,4.165,1.535q1.4,1.724,1.4,6.469a11.677,11.677,0,0,1-1.071,5.4,4.693,4.693,0,0,1-4.421,2.63,5.408,5.408,0,0,1-3.769-1.28,3.852,3.852,0,0,1-1.443-2.7.843.843,0,0,1,.954-.954,1,1,0,0,1,.838.536q.255.441.511.931a3.084,3.084,0,0,0,2.909,1.558q2.977,0,3.3-5.491a5.686,5.686,0,0,1-3.374,1.7q-5.212,0-5.212-5.072a5.39,5.39,0,0,1,1.3-3.863,5.235,5.235,0,0,1,3.909-1.4m0,8.4a3.8,3.8,0,0,0,3.328-2.164,7.639,7.639,0,0,0-.582-3.048,2.872,2.872,0,0,0-2.746-1.28,2.924,2.924,0,0,0-2.4.861,4.183,4.183,0,0,0-.629,2.49q0,3.141,3.025,3.141m0-12.4a9.127,9.127,0,0,0-6.761,2.591l-.05.051a9.262,9.262,0,0,0-2.4,6.617,10.447,10.447,0,0,0,.789,4.148,5.065,5.065,0,0,0-.719,2.646,7.656,7.656,0,0,0,2.686,5.6l.077.072a9.357,9.357,0,0,0,6.449,2.31,8.674,8.674,0,0,0,7.941-4.73l.025-.046A15.389,15.389,0,0,0,265.611,838c0-4.205-.728-7.061-2.29-8.988l-.08-.1a9.033,9.033,0,0,0-7.192-2.92Z" fill="#fff"/><path d="M276.116,849.935a2.462,2.462,0,0,1-2.41-2.288,29.823,29.823,0,0,1-.194-4.375c-.132.022-.262.044-.391.068a18.589,18.589,0,0,0-4.308,1.718,4.3,4.3,0,0,1-2.284.688,3.158,3.158,0,0,1-2.254-1.029,2.907,2.907,0,0,1-.956-2,2.259,2.259,0,0,1,2.329-2.232,5.486,5.486,0,0,0,1.951-.478,20.342,20.342,0,0,1,2.147-.833c.022-.132.037-.258.048-.379-.059-.081-.141-.19-.254-.329a2,2,0,0,1-.451-1.264,2.051,2.051,0,0,1,.025-.312l-.01,0a1.987,1.987,0,0,1-.621.1,2.163,2.163,0,0,1-2.186-2.186,2,2,0,0,1,.538-1.365,17.988,17.988,0,0,0,2.533-3.475,4.791,4.791,0,0,0,.652-2.234.708.708,0,0,0-.062-.27,2,2,0,0,1-.147-.754A2.105,2.105,0,0,1,271.9,824.5a3.952,3.952,0,0,1,2.708,1.531c.03.032.059.066.088.1a5.53,5.53,0,0,1,1.052,1.87,5.522,5.522,0,0,1,1.83-.313,3.487,3.487,0,0,1,2.022.565,2.378,2.378,0,0,1,.193.151,3.184,3.184,0,0,1,1.088,2.4,2.8,2.8,0,0,1-1,2.148,2.737,2.737,0,0,1-.786,4.016l0,.185c.539-.053,1.039-.082,1.5-.09a8.5,8.5,0,0,1,3.322.562c.033.016.064.031.1.048a3.024,3.024,0,0,1,1.709,2.694A2.706,2.706,0,0,1,283,843.3c-.061,0-.121,0-.182-.009a11.735,11.735,0,0,1-1.7-.323,19.343,19.343,0,0,0-2.171-.111h-.03c-.007.126-.014.252-.022.379a27.7,27.7,0,0,1-.539,4.506C277.911,849.559,276.892,849.935,276.116,849.935Z" fill="#fff"/><path d="M271.9,826.5q.394,0,1.256.907a2.978,2.978,0,0,1,.792,1.885,3.244,3.244,0,0,1-.535,1.582,3.972,3.972,0,0,0,2.117-.559,3.8,3.8,0,0,1,2.048-.628,1.558,1.558,0,0,1,.884.209,1.173,1.173,0,0,1,.419.909.946.946,0,0,1-.675.86,7.752,7.752,0,0,1-1.28.35,2.963,2.963,0,0,1,.209,1.093v.768h.279q1.024,0,1.024.744,0,.675-1.326,1.048-.022,1.7-.07,3.793a23.53,23.53,0,0,1,3.584-.4,6.841,6.841,0,0,1,2.443.373,1.047,1.047,0,0,1,.652.931q0,.93-.722.931a10.675,10.675,0,0,1-1.512-.3,21.016,21.016,0,0,0-2.536-.14q-1.049,0-1.955.047-.024,1.071-.093,2.21a26.262,26.262,0,0,1-.489,4.166c-.108.434-.21.652-.3.652-.233,0-.381-.218-.443-.652q-.138-.628-.186-6.283-1.443.139-2.722.372a20.456,20.456,0,0,0-4.956,1.955,2.366,2.366,0,0,1-1.28.419,1.239,1.239,0,0,1-.838-.442c-.248-.264-.372-.457-.372-.582,0-.155.131-.233.395-.233a7.5,7.5,0,0,0,2.7-.651,19.334,19.334,0,0,1,3-1.07,7.368,7.368,0,0,0,.279-1.118,6.72,6.72,0,0,0,.117-1.233,2.76,2.76,0,0,0-.722-1.21c0-.061.062-.093.186-.093a2.338,2.338,0,0,1,1.327.489q.629.4.628.814a3.814,3.814,0,0,1-.558,1.745,1.937,1.937,0,0,1-.163.279,7.747,7.747,0,0,1,.768-.185q1.163-.28,2.21-.489-.023-1.722-.023-3.77a12.974,12.974,0,0,1-1.792.187,2.152,2.152,0,0,1-1.07-.3c-.31-.233-.474-.411-.489-.535q0-.21.489-.256a9.631,9.631,0,0,0,2.234-.722,4.321,4.321,0,0,1,.628-.232v-1.024a6.7,6.7,0,0,0-.116-1.048,6.279,6.279,0,0,1-2.211-.464,1,1,0,0,1-.139-.093c-.125.155-.241.3-.35.441A9.887,9.887,0,0,1,268.483,835a.164.164,0,0,1-.186-.186,19.915,19.915,0,0,0,2.816-3.863,6.747,6.747,0,0,0,.907-3.211,2.7,2.7,0,0,0-.209-1.024c0-.14.031-.209.093-.209m0-4a4.108,4.108,0,0,0-4.093,4.209,4,4,0,0,0,.193,1.229,3.4,3.4,0,0,1-.4,1.077,15.957,15.957,0,0,1-2.235,3.062,4,4,0,0,0-1.076,2.73,4.148,4.148,0,0,0,1.962,3.565,3.529,3.529,0,0,1-.7.116,4.261,4.261,0,0,0-4.24,4.23,4.858,4.858,0,0,0,1.458,3.322c.028.029.055.058.083.086a5.107,5.107,0,0,0,3.669,1.616,6.261,6.261,0,0,0,3.277-.95q.915-.485,1.767-.837a12.526,12.526,0,0,0,.168,2.067,4.48,4.48,0,0,0,4.375,3.909c.765,0,3.329-.266,4.183-3.682a23.581,23.581,0,0,0,.486-3.306,12.836,12.836,0,0,0,1.854.339c.121.011.243.017.364.017a4.724,4.724,0,0,0,4.722-4.931,5.033,5.033,0,0,0-2.766-4.458c-.063-.033-.126-.065-.191-.1a7.793,7.793,0,0,0-2.363-.631,4.542,4.542,0,0,0,.037-.563,4.847,4.847,0,0,0-.2-1.393,4.763,4.763,0,0,0,.647-2.422,5.159,5.159,0,0,0-1.757-3.894,4.005,4.005,0,0,0-.385-.3,5.437,5.437,0,0,0-3.161-.921c-.239,0-.476.012-.711.034a8.4,8.4,0,0,0-.632-.868c-.056-.067-.115-.133-.175-.2a5.787,5.787,0,0,0-4.16-2.156Z" fill="#fff"/><path d="M293.457,848.05a2.883,2.883,0,0,1-3.07-2.954v-8.355h-.63a3.3,3.3,0,0,1-2.084-.715,2.772,2.772,0,0,1-1.1-2.239,2.894,2.894,0,0,1,2.838-2.821,2.67,2.67,0,0,0,.644-.737,4.362,4.362,0,0,1,3.545-2.211,2.8,2.8,0,0,1,2.5,1.654,4.068,4.068,0,0,1,.5,1.974V845.1a2.811,2.811,0,0,1-1.1,2.241A3.17,3.17,0,0,1,293.457,848.05Z" fill="#fff"/><path d="M293.6,830.018q.418,0,.744.6a2.086,2.086,0,0,1,.256,1.024V845.1a.8.8,0,0,1-.349.675,1.18,1.18,0,0,1-.791.279q-1.071,0-1.07-.954V834.741h-2.63a1.307,1.307,0,0,1-.838-.279.8.8,0,0,1-.349-.675q0-.7,1.094-.838a3.123,3.123,0,0,0,2.048-1.6q.93-1.328,1.885-1.326m0-4a6.211,6.211,0,0,0-5.161,3.03c-.015.021-.029.043-.044.065l-.008.012a4.783,4.783,0,0,0-1.9,8.513,5.236,5.236,0,0,0,1.9.932V845.1a4.849,4.849,0,0,0,5.07,4.954,5.149,5.149,0,0,0,3.28-1.147,4.792,4.792,0,0,0,1.86-3.807v-13.45a6.06,6.06,0,0,0-.749-2.948,4.766,4.766,0,0,0-4.251-2.68Z" fill="#fff"/><path d="M300.6,847.631a5.343,5.343,0,0,1-2.476-.6,3.3,3.3,0,0,1-1.851-2.941,5.638,5.638,0,0,1,1.853-3.938,23.93,23.93,0,0,1,3.263-2.591c.605-.435,1.557-1.164,2.806-2.148.523-.511.665-.855.665-.98,0-.205-.034-.276-.086-.325a2.078,2.078,0,0,0-1.009-.211,3.368,3.368,0,0,0-1.36.178,3.584,3.584,0,0,0-.31.965,3.816,3.816,0,0,1-.476,1.376,2.707,2.707,0,0,1-2.392,1.32,2.916,2.916,0,0,1-2.954-2.907,6.431,6.431,0,0,1,2.312-5.151,8.822,8.822,0,0,1,10.1-.2,5.921,5.921,0,0,1,2.363,4.953c0,2.377-1.566,4.626-4.787,6.875-.192.125-.4.26-.62.41H308.1a2.908,2.908,0,0,1,2.173.927,2.973,2.973,0,0,1-2.173,4.981Z" fill="#fff"/><path d="M303.769,829.994a6.053,6.053,0,0,1,3.723,1.094,3.926,3.926,0,0,1,1.559,3.35q0,2.492-3.932,5.236-1.048.675-2.909,2a5.014,5.014,0,0,0-1.885,2.048H308.1a.9.9,0,0,1,.7.279.911.911,0,0,1,.256.675.844.844,0,0,1-.954.954H300.6a3.353,3.353,0,0,1-1.559-.372,1.287,1.287,0,0,1-.768-1.164,3.728,3.728,0,0,1,1.28-2.536,22.169,22.169,0,0,1,2.979-2.351q1-.72,2.978-2.28a3.571,3.571,0,0,0,1.35-2.49,2.307,2.307,0,0,0-.954-1.978,3.932,3.932,0,0,0-2.141-.558,4.416,4.416,0,0,0-2.536.558,3.542,3.542,0,0,0-1.094,2.187,2.073,2.073,0,0,1-.233.746.7.7,0,0,1-.675.348.945.945,0,0,1-.7-.279.906.906,0,0,1-.257-.628,4.414,4.414,0,0,1,1.583-3.606,6.042,6.042,0,0,1,3.909-1.234m0-4a9.965,9.965,0,0,0-6.414,2.115,8.39,8.39,0,0,0-3.078,6.725,4.919,4.919,0,0,0,1.315,3.338c.035.039.072.077.11.115a4.941,4.941,0,0,0,.816.661,7.449,7.449,0,0,0-2.241,5.147,5.3,5.3,0,0,0,2.852,4.675l.081.043a7.324,7.324,0,0,0,3.394.818H308.1a4.846,4.846,0,0,0,4.954-4.954,4.916,4.916,0,0,0-1.366-3.441,4.812,4.812,0,0,0-1.189-.915,8.551,8.551,0,0,0,2.555-5.883,7.949,7.949,0,0,0-3.167-6.556,9.976,9.976,0,0,0-6.115-1.888Z" fill="#fff"/><path d="M326.325,849.562a4.1,4.1,0,0,1-3.139-1.574,20.637,20.637,0,0,0-3.078-2.543,1.72,1.72,0,0,1-.2-.166,6.965,6.965,0,0,1-2.012,2.244,4.336,4.336,0,0,1-2.255.806,2.106,2.106,0,0,1-2.21-2.094,2,2,0,0,1,.485-1.305,12.524,12.524,0,0,0,2.434-4.721,53.135,53.135,0,0,0,1.107-10.489,2.131,2.131,0,0,1,2.093-2.331,2.048,2.048,0,0,1,.417.041l.177-.138a9.165,9.165,0,0,1,2.6-1.395,11.3,11.3,0,0,1,4.062-.742c1.385,0,2.243,1.113,2.9,2.2a4.631,4.631,0,0,1,.963,2.524,2.013,2.013,0,0,1-.071.529,7.058,7.058,0,0,1-.381,1,10.545,10.545,0,0,0-.259,1.544c-.081,1.13-.127,2.772-.127,4.794v7.028a5.755,5.755,0,0,1-.894,3.25A3.065,3.065,0,0,1,326.325,849.562Zm-2.79-7.238v-.71c-.219.144-.461.3-.729.466C323.08,842.174,323.321,842.254,323.535,842.324Z" fill="#fff"/><path d="M326.813,827.155q.442,0,1.187,1.234a3.325,3.325,0,0,1,.675,1.489,6.26,6.26,0,0,1-.325.814,10.993,10.993,0,0,0-.373,2.025q-.139,1.907-.14,5.025v7.028a3.783,3.783,0,0,1-.558,2.14,1.166,1.166,0,0,1-.954.652,2.176,2.176,0,0,1-1.629-.884,23.445,23.445,0,0,0-3.4-2.839c0-.062.07-.093.209-.093a17.492,17.492,0,0,0,3.514,1.024q.512,0,.512-.791,0-9.053.139-10.634a11.947,11.947,0,0,0,.21-1.606,3.748,3.748,0,0,0-.372-1.839,1.307,1.307,0,0,0-1.14-.86,8.276,8.276,0,0,0-1.815.325,7.778,7.778,0,0,1-1.35.326c-.3,0-.442-.069-.442-.209q0-.139.605-.605a7.137,7.137,0,0,1,2.048-1.094,9.349,9.349,0,0,1,3.4-.628m-7.259,2.234q.093,0,.442.395a2.133,2.133,0,0,1,.861,1.373q-.024.652-.047,1.187a1.46,1.46,0,0,1,.14-.162,4.211,4.211,0,0,1,2.4-.932,1.148,1.148,0,0,1,1.233,1.3q0,.418-1.35,1.977a7.044,7.044,0,0,0-1.187,1.653.772.772,0,0,0,.233.6,8.5,8.5,0,0,0,1.373.07c.683.032,1.024.341,1.024.931a1.343,1.343,0,0,1-.489.861,18.817,18.817,0,0,1-2.792,1.954,1.063,1.063,0,0,1-.535.164.165.165,0,0,1-.187-.187,9.911,9.911,0,0,1,1.537-1.395c.34-.28.511-.466.511-.559q0-.256-.372-.3-1.49-.091-1.838-.558a.869.869,0,0,1-.186-.419,24.486,24.486,0,0,1-.954,4.375q-1.164,3.188-2.583,4.141a2.6,2.6,0,0,1-1.14.466c-.14,0-.21-.031-.21-.094a14.413,14.413,0,0,0,2.839-5.467,54.426,54.426,0,0,0,1.186-10.984c0-.263.032-.395.094-.395m.977,6.376a8.086,8.086,0,0,1,.838-.908q1.348-1.255,1.349-1.559c0-.294-.132-.442-.4-.442a4.769,4.769,0,0,0-1.583.465q-.093,1.3-.209,2.444m6.282-12.61a13.383,13.383,0,0,0-4.783.876,11.376,11.376,0,0,0-2.676,1.363,4.153,4.153,0,0,0-3.893,4.307,51.544,51.544,0,0,1-1.046,10.011,10.478,10.478,0,0,1-2.01,3.912,4,4,0,0,0-.97,2.611,4.109,4.109,0,0,0,4.21,4.094,6.293,6.293,0,0,0,3.215-1.046c.052-.032.1-.065.155-.1a7.641,7.641,0,0,0,1.277-1.084,12.156,12.156,0,0,1,1.343,1.152l.04.047a6.038,6.038,0,0,0,4.65,2.263,5.114,5.114,0,0,0,4.3-2.461,7.719,7.719,0,0,0,1.211-4.331v-7.028c0-1.926.042-3.489.123-4.647.069-.571.128-.888.161-1.039a8.116,8.116,0,0,0,.412-1.12,4.026,4.026,0,0,0,.142-1.058,6.746,6.746,0,0,0-1.289-3.621c-.51-.841-1.943-3.1-4.573-3.1Z" fill="#fff"/><path d="M372.521,849.935c-1.6,0-2.5-1.513-3.27-3.088a4.736,4.736,0,0,1-2.5.76,2.243,2.243,0,0,1-2.373-2.209,2,2,0,0,1,.912-1.678l.008,0a2.6,2.6,0,0,1-1.408-2.412,3.224,3.224,0,0,1,.842-1.977,4.053,4.053,0,0,0,1.115-2.136,2.177,2.177,0,0,1,1.47-1.966c-.028-.066-.05-.126-.068-.179a2.012,2.012,0,0,1-.1-.63,2.13,2.13,0,0,1,.033-.368,3.375,3.375,0,0,1-.523.041,2.533,2.533,0,0,1-2.675-2.559,2.8,2.8,0,0,1,1.231-2.154,8.685,8.685,0,0,0,1.821-2.3,2.2,2.2,0,0,1,2.206-2.18,2,2,0,0,1,1.309.488,2.426,2.426,0,0,0,.328.251,3.655,3.655,0,0,1,1.343,1.4,6.253,6.253,0,0,1,.526-.654,1.7,1.7,0,0,0,.467-.943,2,2,0,0,1,1.984-1.753,3.715,3.715,0,0,1,2.2.826,2.942,2.942,0,0,1,1.265,1.94,2.535,2.535,0,0,1,2.094,2.492c0,.044,0,.088,0,.132a3.521,3.521,0,0,1-2.142,3.013,3.206,3.206,0,0,1,.261,1.3,3.1,3.1,0,0,1-.333,1.286q.192-.006.381-.006a8.366,8.366,0,0,1,3.257.512,3.137,3.137,0,0,1,2,2.861c0,1.2-.8,2.324-2.856,4-1.659,1.345-2.66,1.9-3.572,2a1.972,1.972,0,0,1-.2.011c-.045,0-.09,0-.135,0a3.216,3.216,0,0,1-1.867-.755v1.832a7.055,7.055,0,0,1-.548,3.058A2.679,2.679,0,0,1,372.521,849.935Z" fill="#fff"/><path d="M375.2,825.689a1.876,1.876,0,0,1,1.024.442,1,1,0,0,1,.489.861,4.813,4.813,0,0,1-.978,1.769,8.508,8.508,0,0,1,2.072-.4c.635,0,.953.195.953.582a1.654,1.654,0,0,1-1.326,1.466q-1.4.675-3.444,1.675v-.069q1.093-.978,1.932-1.792h-1.257q-1.211,0-1.21-.931a2.411,2.411,0,0,1,.768-1.559,3.707,3.707,0,0,0,.977-2.048m-5.957,1.21a4.306,4.306,0,0,0,.628.465,1.282,1.282,0,0,1,.7,1.094,2.475,2.475,0,0,1-.395,1.117.926.926,0,0,1,.838.744l1.117-.93v.093q-.653,1.326-1.21,2.49-.374.977-1.024.977-.536,0-.536-.861l.815-1.373a11.006,11.006,0,0,1-3.514,1.373q-.675,0-.675-.559c0-.154.187-.372.559-.651q2.49-2.535,2.49-3.677c0-.2.07-.3.209-.3m6.539,5.468q1.093,0,1.093,1.025-.024.6-1.372,1.884a.739.739,0,0,1,.093.372q0,.4-.675.628-.7.188-1.373.35v1.023a18.618,18.618,0,0,1,5.375-.977,6.593,6.593,0,0,1,2.467.349,1.143,1.143,0,0,1,.791,1.024q0,.721-2.117,2.443a6.821,6.821,0,0,1-2.514,1.559,1.41,1.41,0,0,1-1.116-.768c-.265-.279-.4-.48-.4-.6,0-.078.109-.14.325-.187a5.113,5.113,0,0,0,2.467-.814q1.024-.675,1.024-1.257a.434.434,0,0,0-.28-.441,3.223,3.223,0,0,0-1.186-.187,16.883,16.883,0,0,0-4.793.768l-.047.023v6.539a5.24,5.24,0,0,1-.349,2.187q-.279.629-.674.629-.513,0-1.513-2.048v-.093a.56.56,0,0,0,.4.256q.721,0,.722-1.117v-3.979a37.2,37.2,0,0,1-2.815,3.327,3.948,3.948,0,0,1-2.56,1.326c-.249,0-.373-.069-.373-.209a11.992,11.992,0,0,0,2.583-2.4,26.228,26.228,0,0,0,2.909-3.862,17.9,17.9,0,0,0-3.887,2,3.285,3.285,0,0,1-1.511.838c-.389,0-.582-.225-.582-.675a1.654,1.654,0,0,1,.419-.745,5.852,5.852,0,0,0,1.535-3.257q0-.3.954-.35.7.024.745.535a5.378,5.378,0,0,1-1.187,2.118q2.025-.884,3.77-1.512v-1.187l-.256.046a11.507,11.507,0,0,1-1.606.163c-.418,0-.628-.116-.628-.348q0-.186.466-.373,1.162-.4,2-.652a1.391,1.391,0,0,0-.3-.93.333.333,0,0,1-.209-.233,7.779,7.779,0,0,1-1.606.233q-.721-.048-.838-.4c0-.124.209-.232.628-.326a24.147,24.147,0,0,1,6-1.722m-2.327,2.932c.17-.046.318-.085.443-.116l1.21-1.49c0-.061-.063-.092-.187-.092q-1.443.465-2.49.745a1.281,1.281,0,0,1,.7.372,1.447,1.447,0,0,1,.326.581m1.745-13.61a4,4,0,0,0-3.5,2.057,4,4,0,0,0-2.461-.847,4.182,4.182,0,0,0-4.148,3.557,11.806,11.806,0,0,1-1.239,1.449,4.616,4.616,0,0,0-1.871,3.624,4.45,4.45,0,0,0,2.284,3.958,4.356,4.356,0,0,0-.414,1.57h0v0a3.687,3.687,0,0,1-.625.955l-.069.087a5.147,5.147,0,0,0-1.267,3.208,4.83,4.83,0,0,0,.759,2.648,3.99,3.99,0,0,0-.271,1.447,4.247,4.247,0,0,0,4.373,4.209,6.255,6.255,0,0,0,1.631-.218,4.979,4.979,0,0,0,4.14,2.546,4.717,4.717,0,0,0,4.3-2.944,7.989,7.989,0,0,0,.692-2.944h.031a3.943,3.943,0,0,0,.406-.021c1.339-.136,2.636-.818,4.626-2.43,1.744-1.418,3.6-3.129,3.6-5.551a5.1,5.1,0,0,0-3.089-4.643c-.04-.019-.081-.038-.123-.055a7.753,7.753,0,0,0-1.9-.528,5.383,5.383,0,0,0,1.683-3.609c.006-.087.009-.175.009-.263a4.481,4.481,0,0,0-2.5-4.049,5.076,5.076,0,0,0-1.736-2.041,5.681,5.681,0,0,0-3.322-1.168Z" fill="#fff"/><path d="M406.037,840.72a4.491,4.491,0,0,1-2.207-.71,12.658,12.658,0,0,0-2.449-.62,22.782,22.782,0,0,0-4.093-.369,14.965,14.965,0,0,0-3.093.281,10.329,10.329,0,0,0-2.095.571,5.549,5.549,0,0,1-2.421.544,5.861,5.861,0,0,1-2.492-.464,2.834,2.834,0,0,1-1.952-2.652,2.2,2.2,0,0,1,2.187-2.257,12.047,12.047,0,0,0,3.025-.449,26.458,26.458,0,0,1,5.95-.919c3.551-.3,4.763-.434,5.146-.493a9.993,9.993,0,0,1,1.516-.117,6.635,6.635,0,0,1,3.638,1.062,4.372,4.372,0,0,1,2.271,3.661A2.8,2.8,0,0,1,406.037,840.72Z" fill="#fff"/><path d="M403.059,835.066a4.639,4.639,0,0,1,2.559.746,2.489,2.489,0,0,1,1.35,1.977.823.823,0,0,1-.931.931,2.946,2.946,0,0,1-1.326-.512,14.041,14.041,0,0,0-3-.791,24.511,24.511,0,0,0-4.421-.4,16.832,16.832,0,0,0-3.514.326,11.884,11.884,0,0,0-2.49.7,3.539,3.539,0,0,1-1.605.372,4.019,4.019,0,0,1-1.653-.279q-.791-.326-.791-.837c0-.171.063-.257.187-.257a14.122,14.122,0,0,0,3.606-.535,24.816,24.816,0,0,1,5.492-.837q4.421-.372,5.329-.513a8.073,8.073,0,0,1,1.21-.093m0-4a12.065,12.065,0,0,0-1.814.139c-.239.037-1.189.155-5.016.477a28.291,28.291,0,0,0-6.36,1,10.163,10.163,0,0,1-2.551.365,4.178,4.178,0,0,0-4.083,4.256,4.879,4.879,0,0,0,3.193,4.5,7.876,7.876,0,0,0,3.251.612,7.518,7.518,0,0,0,3.217-.709,8.1,8.1,0,0,1,1.558-.419c.054-.01.108-.02.162-.032a13.014,13.014,0,0,1,2.672-.236,20.663,20.663,0,0,1,3.7.331l.063.011a11.166,11.166,0,0,1,1.932.466,6.241,6.241,0,0,0,3.052.891,4.823,4.823,0,0,0,4.931-4.931,6.312,6.312,0,0,0-3.119-5.3l-.072-.048a8.609,8.609,0,0,0-4.718-1.378Z" fill="#fff"/><path d="M412.038,848.05c-.907,0-2.442-.617-2.442-2.931a4.557,4.557,0,0,1,.353-1.969,5.269,5.269,0,0,0,.421-1.6,36.4,36.4,0,0,0,.249-4.51,28.137,28.137,0,0,0-.093-3.252,6.507,6.507,0,0,0-.437-1.182c-.025-.055-.047-.113-.067-.171a4.287,4.287,0,0,1-.24-1.351,2.106,2.106,0,0,1,2.162-2.094,2.845,2.845,0,0,1,2.018,1.026c.1.1.192.2.282.3a4.508,4.508,0,0,0,.284-1.561,2.412,2.412,0,0,1,2.443-2.489,4.314,4.314,0,0,1,2.474.695c.049.034.1.069.143.107a3.382,3.382,0,0,1,1.227,2.349,11.319,11.319,0,0,0,1.122-.6,6.3,6.3,0,0,1,3.62-1.039,2.487,2.487,0,0,1,2.745,2.443,3.255,3.255,0,0,1-.575,1.859,4.281,4.281,0,0,1,1.016,2.843,13.8,13.8,0,0,1-.676,4.221,9.1,9.1,0,0,0,1.821,1.007,20.056,20.056,0,0,1,3.345,1.364,2.87,2.87,0,0,1,1.84,2.574c0,.283-.1,2.768-3.466,2.768a8.691,8.691,0,0,1-3.671-.754,9.145,9.145,0,0,1-2.878-1.739A4.415,4.415,0,0,1,422,845.746l-.143,0a2.833,2.833,0,0,1-2.161.935,1.9,1.9,0,0,1-.25-.016,2.784,2.784,0,0,1-.326-.062,2.554,2.554,0,0,1-3.578-.488c-.033-.039-.064-.079-.095-.12a3.073,3.073,0,0,1-.422-.818,5.945,5.945,0,0,1-.593,1.463,2.076,2.076,0,0,1-.148.213A2.815,2.815,0,0,1,412.038,848.05Z" fill="#fff"/><path d="M416.971,828.272a2.358,2.358,0,0,1,1.349.349,1.421,1.421,0,0,1,.512,1.163,3.422,3.422,0,0,1-.441,1.4,5.667,5.667,0,0,1-1.072,1.21.63.63,0,0,1,.14-.024q1.211,0,1.21.931,0,.606-1.07,1.723a24.379,24.379,0,0,1-2.071,2.023c.233-.123.5-.256.791-.4a1.353,1.353,0,0,1,.652-.279,1.37,1.37,0,0,1,.838.4.942.942,0,0,1,.488.72V844.1a1.239,1.239,0,0,1-.256.791.641.641,0,0,1-.488.233.691.691,0,0,1-.49-.3.9.9,0,0,1-.185-.535q-.163-4.21-.163-5.119c0-.5-.063-.745-.187-.745a10.858,10.858,0,0,0-2.14.605,3.394,3.394,0,0,1-.628.209,37.487,37.487,0,0,1-.443,4.445,6.3,6.3,0,0,1-.6,1.931.938.938,0,0,1-.675.443q-.442,0-.442-.931a2.786,2.786,0,0,1,.163-1.117,7.313,7.313,0,0,0,.6-2.28,37.67,37.67,0,0,0,.256-4.678,31.8,31.8,0,0,0-.116-3.56,8.057,8.057,0,0,0-.582-1.675,2.346,2.346,0,0,1-.139-.721c0-.063.054-.094.162-.094s.311.149.606.443a3.819,3.819,0,0,1,1,1.489,7,7,0,0,1,.163,1.023q.534-.255,1.024-.511a7.572,7.572,0,0,0,1.791-4.677q0-.489.443-.489m-2.141,6.887a3.963,3.963,0,0,1-1.047-.116q.022.861.023,1.908v.745a10.422,10.422,0,0,0,1.3-1.722,5.542,5.542,0,0,0,.582-.977q0-.186-.093-.186a1.329,1.329,0,0,1-.768.348m10.727-5.375q.745,0,.745.443,0,1.094-1.722,1.652-.745.186-1.28.3-.164.7-.535,2.07l.139-.14a3.434,3.434,0,0,1,2.072-1.163q1.7,0,1.768,2.048a12.365,12.365,0,0,1-1.094,4.909,16.056,16.056,0,0,0,3.583,2.141,18.313,18.313,0,0,1,3.049,1.233c.527.265.791.535.791.815q0,.766-1.466.768a6.635,6.635,0,0,1-2.909-.605,7.966,7.966,0,0,1-3.3-2.373q-.28-.281-.513-.559-1.466,2.419-2.885,2.42a3,3,0,0,1-1.35-.232q-.069.3-.116.581a.8.8,0,0,1-.838.582q-.558-.071-.582-.838,2.282-7.586,3.327-11.5a5.675,5.675,0,0,1-.976.116,1.468,1.468,0,0,1-.769-.209c-.216-.14-.333-.248-.348-.326q0-.3.488-.4a8.547,8.547,0,0,0,2.188-1.023,4.292,4.292,0,0,1,2.536-.722m-2.885,6.05a.825.825,0,0,1-.3-.046q-.186.629-.326,1.3l2.164,1.745a9.924,9.924,0,0,0,.861-3.77c0-.433-.092-.651-.279-.651s-.6.279-1.186.838a2.435,2.435,0,0,1-.931.581M420.74,843.1a8.1,8.1,0,0,0,2.909-3.073q-1-1.046-1.862-1.837-.488,2.234-1.047,4.91m-3.769-18.823a4.391,4.391,0,0,0-4.136,2.819,4.13,4.13,0,0,0-.891-.1,4.084,4.084,0,0,0-4.162,4.094,6.218,6.218,0,0,0,.343,1.982,3.67,3.67,0,0,0,.132.343c.183.42.266.655.3.758.019.238.062.97.062,2.873a33.843,33.843,0,0,1-.224,4.175c-.007.055-.013.111-.018.166a3.369,3.369,0,0,1-.278,1,6.525,6.525,0,0,0-.5,2.731c0,3.237,2.235,4.931,4.442,4.931a4.713,4.713,0,0,0,3.388-1.479,4.46,4.46,0,0,0,2.127.548,4.583,4.583,0,0,0,1.983-.445l.157,0a4.9,4.9,0,0,0,2.961-.967,5.862,5.862,0,0,0,2.405-.83,10.552,10.552,0,0,0,2.114,1.08,10.708,10.708,0,0,0,4.434.9c3.756,0,5.466-2.472,5.466-4.768a4.853,4.853,0,0,0-2.888-4.334,22.082,22.082,0,0,0-3.685-1.508h0s-.034-.013-.109-.05a15.048,15.048,0,0,0,.353-3.206c0-.046,0-.091,0-.137a6.884,6.884,0,0,0-.723-2.963,5.329,5.329,0,0,0,.283-1.67,4.5,4.5,0,0,0-4.745-4.443,8.558,8.558,0,0,0-3.717.795,5.431,5.431,0,0,0-.984-1.052c-.092-.075-.188-.147-.286-.214a6.28,6.28,0,0,0-3.6-1.041Z" fill="#fff"/><path d="M447.124,849.935c-1.6,0-2.5-1.513-3.27-3.088a4.733,4.733,0,0,1-2.5.76,2.243,2.243,0,0,1-2.374-2.209,2,2,0,0,1,.913-1.678l.007,0a2.6,2.6,0,0,1-1.408-2.412,3.219,3.219,0,0,1,.843-1.977,4.04,4.04,0,0,0,1.114-2.136,2.18,2.18,0,0,1,1.471-1.966c-.028-.066-.051-.126-.068-.179a1.984,1.984,0,0,1-.1-.63,2.221,2.221,0,0,1,.032-.368,3.372,3.372,0,0,1-.522.041,2.533,2.533,0,0,1-2.675-2.559,2.8,2.8,0,0,1,1.23-2.154,8.734,8.734,0,0,0,1.822-2.3,2.2,2.2,0,0,1,2.206-2.18,2,2,0,0,1,1.308.488,2.5,2.5,0,0,0,.328.251,3.655,3.655,0,0,1,1.343,1.4,6.266,6.266,0,0,1,.527-.654,1.707,1.707,0,0,0,.466-.943,2,2,0,0,1,1.985-1.753,3.718,3.718,0,0,1,2.2.826,2.949,2.949,0,0,1,1.265,1.94,2.535,2.535,0,0,1,2.093,2.492c0,.044,0,.088,0,.132a3.52,3.52,0,0,1-2.141,3.013,3.206,3.206,0,0,1,.261,1.3,3.1,3.1,0,0,1-.333,1.286c.128,0,.254-.006.38-.006a8.363,8.363,0,0,1,3.257.512,3.137,3.137,0,0,1,2,2.861c0,1.2-.8,2.324-2.855,4-1.659,1.345-2.66,1.9-3.572,2a1.992,1.992,0,0,1-.2.011c-.045,0-.089,0-.134,0a3.219,3.219,0,0,1-1.868-.755v1.832a7.057,7.057,0,0,1-.547,3.058A2.68,2.68,0,0,1,447.124,849.935Z" fill="#fff"/><path d="M449.8,825.689a1.874,1.874,0,0,1,1.023.442,1,1,0,0,1,.489.861,4.82,4.82,0,0,1-.977,1.769,8.5,8.5,0,0,1,2.071-.4c.636,0,.953.195.953.582a1.654,1.654,0,0,1-1.326,1.466q-1.395.675-3.443,1.675v-.069q1.092-.978,1.931-1.792h-1.256q-1.21,0-1.21-.931a2.414,2.414,0,0,1,.767-1.559,3.709,3.709,0,0,0,.978-2.048m-5.957,1.21a4.2,4.2,0,0,0,.628.465,1.282,1.282,0,0,1,.7,1.094,2.479,2.479,0,0,1-.4,1.117.924.924,0,0,1,.838.744l1.118-.93v.093q-.652,1.326-1.21,2.49-.374.977-1.025.977-.534,0-.535-.861l.814-1.373a11,11,0,0,1-3.513,1.373q-.675,0-.675-.559c0-.154.186-.372.559-.651q2.49-2.535,2.49-3.677c0-.2.069-.3.209-.3m6.539,5.468q1.092,0,1.093,1.025-.024.6-1.372,1.884a.749.749,0,0,1,.092.372q0,.4-.674.628c-.466.125-.923.242-1.374.35v1.023a18.618,18.618,0,0,1,5.375-.977,6.593,6.593,0,0,1,2.467.349,1.142,1.142,0,0,1,.791,1.024q0,.721-2.117,2.443a6.813,6.813,0,0,1-2.514,1.559,1.41,1.41,0,0,1-1.116-.768c-.264-.279-.4-.48-.4-.6,0-.078.108-.14.325-.187a5.116,5.116,0,0,0,2.467-.814q1.023-.675,1.023-1.257a.434.434,0,0,0-.279-.441,3.228,3.228,0,0,0-1.187-.187,16.894,16.894,0,0,0-4.793.768l-.047.023v6.539a5.258,5.258,0,0,1-.348,2.187c-.187.419-.411.629-.675.629q-.513,0-1.513-2.048v-.093a.564.564,0,0,0,.4.256c.48,0,.722-.373.722-1.117v-3.979a37.189,37.189,0,0,1-2.816,3.327,3.946,3.946,0,0,1-2.559,1.326c-.25,0-.374-.069-.374-.209a11.969,11.969,0,0,0,2.583-2.4,26.233,26.233,0,0,0,2.91-3.862,17.854,17.854,0,0,0-3.887,2,3.291,3.291,0,0,1-1.512.838q-.582,0-.582-.675a1.665,1.665,0,0,1,.419-.745,5.845,5.845,0,0,0,1.535-3.257c0-.2.319-.319.954-.35q.7.024.746.535a5.378,5.378,0,0,1-1.187,2.118q2.025-.884,3.77-1.512v-1.187l-.256.046a11.5,11.5,0,0,1-1.607.163c-.418,0-.628-.116-.628-.348,0-.124.156-.248.466-.373q1.162-.4,2-.652a1.386,1.386,0,0,0-.3-.93.336.336,0,0,1-.209-.233,7.762,7.762,0,0,1-1.6.233q-.723-.048-.838-.4c0-.124.209-.232.628-.326a24.124,24.124,0,0,1,6-1.722m-2.327,2.932c.17-.046.317-.085.442-.116l1.21-1.49c0-.061-.062-.092-.186-.092q-1.443.465-2.491.745a1.284,1.284,0,0,1,.7.372,1.459,1.459,0,0,1,.326.581m1.745-13.61a4,4,0,0,0-3.5,2.057,4,4,0,0,0-2.46-.847,4.184,4.184,0,0,0-4.149,3.557,11.806,11.806,0,0,1-1.239,1.449,4.617,4.617,0,0,0-1.87,3.624,4.448,4.448,0,0,0,2.284,3.958,4.358,4.358,0,0,0-.415,1.57h0v0a3.687,3.687,0,0,1-.625.955l-.07.087a5.147,5.147,0,0,0-1.267,3.208,4.831,4.831,0,0,0,.76,2.648,3.991,3.991,0,0,0-.272,1.447,4.247,4.247,0,0,0,4.374,4.209,6.253,6.253,0,0,0,1.63-.218,4.982,4.982,0,0,0,4.14,2.546,4.718,4.718,0,0,0,4.3-2.944,7.989,7.989,0,0,0,.692-2.944h.03a3.929,3.929,0,0,0,.406-.021c1.34-.136,2.637-.818,4.626-2.43,1.744-1.418,3.6-3.129,3.6-5.551a5.1,5.1,0,0,0-3.088-4.643c-.041-.019-.082-.038-.123-.055a7.774,7.774,0,0,0-1.9-.528,5.384,5.384,0,0,0,1.684-3.609c.006-.087.008-.175.008-.263a4.48,4.48,0,0,0-2.5-4.049,5.076,5.076,0,0,0-1.736-2.041,5.683,5.683,0,0,0-3.322-1.168Z" fill="#fff"/><path d="M463.921,846.956a5.52,5.52,0,0,1-2.453-.491,2.855,2.855,0,0,1-1.9-2.626,2.175,2.175,0,0,1,2.209-2.187,12.912,12.912,0,0,0,3.324-.533,19.426,19.426,0,0,1,2.675-.647,4.494,4.494,0,0,1-1.037-.414,2.662,2.662,0,0,1-1.68-1.75,2.021,2.021,0,0,1-.069-.519,2.128,2.128,0,0,1,2.162-2.14,3.978,3.978,0,0,0,1.368-.478,5.37,5.37,0,0,1-2.069-.629c-.034-.02-.068-.039-.1-.06a3.4,3.4,0,0,1-1.742-2.507,2.349,2.349,0,0,1-.013-.236,2.207,2.207,0,0,1,2.209-2.3,2.013,2.013,0,0,1,.592.089,2.164,2.164,0,0,0,.618.12,10.622,10.622,0,0,0,3.361-.954,12.316,12.316,0,0,1,4.713-1.117,7.171,7.171,0,0,1,2.263.382c.049.017.1.035.146.056a2.874,2.874,0,0,1,1.825,2.7,2.95,2.95,0,0,1-3.033,3.022.9.9,0,0,0-.324.109c-.335.21-.658.4-.969.583a3.347,3.347,0,0,1,1.649,2.965c0,.037,0,.074,0,.111a2.8,2.8,0,0,1-.985,2.047c.276-.034.441-.06.538-.077a9.77,9.77,0,0,1,1.707-.149,6.465,6.465,0,0,1,3.448.973,3.985,3.985,0,0,1,2.276,3.447,2.761,2.761,0,0,1-2.838,2.931,5.322,5.322,0,0,1-2.215-.574,17.663,17.663,0,0,0-2.833-.56,29.45,29.45,0,0,0-4.586-.355,13.7,13.7,0,0,0-3.323.357c-.038.01-.075.017-.113.025a9,9,0,0,0-2.1.666A5.348,5.348,0,0,1,463.921,846.956Z" fill="#fff"/><path d="M476.091,829.575a5.146,5.146,0,0,1,1.629.279.883.883,0,0,1,.6.861q0,.978-1.117,1.024a2.84,2.84,0,0,0-1.35.443,21.044,21.044,0,0,1-2.374,1.3.082.082,0,0,1-.092-.092,16.061,16.061,0,0,1,1.3-1.49,27.5,27.5,0,0,1-5.561,1.3,3.537,3.537,0,0,1-1.722-.419,1.508,1.508,0,0,1-.814-1.047c0-.2.069-.3.209-.3a4.146,4.146,0,0,0,1.21.209,12.736,12.736,0,0,0,4.1-1.093,10.6,10.6,0,0,1,3.979-.978m-2.885,6.166q2.442.024,2.442,1.653-.047.837-1.023.837a31.548,31.548,0,0,0-3.909.233,16.013,16.013,0,0,1-1.676.163,2.653,2.653,0,0,1-1.419-.372c-.372-.14-.582-.295-.628-.466,0-.093.054-.14.162-.14a6.7,6.7,0,0,0,2.746-.93,8.75,8.75,0,0,1,3.305-.978m5.7,5.585a4.482,4.482,0,0,1,2.4.675q1.325.791,1.326,1.745,0,.93-.838.931a3.744,3.744,0,0,1-1.489-.443A18.85,18.85,0,0,0,477,843.56a30.91,30.91,0,0,0-4.84-.372,15.609,15.609,0,0,0-3.815.418,10.882,10.882,0,0,0-2.654.861,3.37,3.37,0,0,1-1.768.489,3.611,3.611,0,0,1-1.606-.3q-.744-.324-.744-.814c0-.124.07-.187.209-.187a14.924,14.924,0,0,0,3.933-.628,25.65,25.65,0,0,1,6.026-1q4.8-.394,5.818-.582a7.712,7.712,0,0,1,1.349-.116m-2.815-15.751a14.269,14.269,0,0,0-5.485,1.272,12.213,12.213,0,0,1-2.536.792l-.078-.023a4.005,4.005,0,0,0-1.185-.179,4.211,4.211,0,0,0-4.209,4.3,4.132,4.132,0,0,0,.027.471,5.174,5.174,0,0,0,1.348,2.883,4.127,4.127,0,0,0-.98,2.7,4,4,0,0,0,.137,1.038,4.333,4.333,0,0,0,.236.656,14.053,14.053,0,0,1-1.711.171,4.151,4.151,0,0,0-4.084,4.185,4.863,4.863,0,0,0,3.048,4.437,7.474,7.474,0,0,0,3.3.68,7.317,7.317,0,0,0,3.616-.938,7.077,7.077,0,0,1,1.563-.484c.076-.014.151-.031.227-.05a11.69,11.69,0,0,1,2.831-.3,27.052,27.052,0,0,1,4.214.322c.039.007.079.012.118.017a16.24,16.24,0,0,1,2.389.455,7.2,7.2,0,0,0,2.913.7,4.778,4.778,0,0,0,4.838-4.931,5.949,5.949,0,0,0-3.252-5.165,8.4,8.4,0,0,0-3.73-1.224,5.662,5.662,0,0,0-.382-2.025,4.963,4.963,0,0,0,.014-9.161c-.1-.04-.194-.077-.293-.111a9.145,9.145,0,0,0-2.9-.485Z" fill="#fff"/><path d="M506.064,849.353a3.666,3.666,0,0,1-2.864-1.687c-.021-.027-.042-.055-.061-.084a4.541,4.541,0,0,1-1.03-2.557,2.237,2.237,0,0,1,.769-1.769q0-1.863,0-3.414a2.72,2.72,0,0,1-1.912.785c-.058,0-.115,0-.172-.008a2.983,2.983,0,0,1-.732-.157,7.383,7.383,0,0,1-.874,1.888,2.988,2.988,0,0,1-1.743,1.441q0,.553.006,1.155c0,.066,0,.131-.009.2a3,3,0,0,1-2.7,2.894,1.841,1.841,0,0,1-.223.013,2.011,2.011,0,0,1-.379-.036c-.515-.1-2.2-.625-2.248-3.2,0-.1,0-.188,0-.278a2.672,2.672,0,0,1-2.223-1.548l-.011-.02a6.052,6.052,0,0,1-1.408,1,3.975,3.975,0,0,1-1.922.573,2.129,2.129,0,0,1-2.186-2.116,2,2,0,0,1,.565-1.393,19.06,19.06,0,0,0,2.275-2.776,15.162,15.162,0,0,0,1.686-3.543,8.333,8.333,0,0,0,.5-2.526,1.794,1.794,0,0,0-.077-.517,2.022,2.022,0,0,1-.085-.54,2.21,2.21,0,0,1-.081-.4,1.865,1.865,0,0,1-.013-.223,2.7,2.7,0,0,1,1.235-2.12,9.007,9.007,0,0,1,2.3-1.452,9.3,9.3,0,0,1,3.653-1.1,4.449,4.449,0,0,1,2.962,1.094c.028.023.053.047.079.071a3.726,3.726,0,0,1,1.286,2.7c0,.154-.007.3-.02.437a2.006,2.006,0,0,1,.37-.04,2.369,2.369,0,0,1,2.177,1.738c.051-1.169.078-2.2.081-3.1l-.131-.732a2.063,2.063,0,0,1-.031-.351c0-.355.129-2.128,2.682-2.208h0a3.115,3.115,0,0,1,2.191.838,3.747,3.747,0,0,1,1.169,2.654c0,.063,0,.127,0,.189a8.288,8.288,0,0,1-.247,1.654c-.109.679-.191,1.44-.244,2.263-.121,2.489-.182,4.5-.182,5.942,0,1.024.1,3.183.3,6.417a1.665,1.665,0,0,1,0,.173c-.024.906-.1,3.663-2.381,3.784C506.135,849.352,506.1,849.353,506.064,849.353Zm-7.433-16.229c.015-.154.023-.276.029-.372-.056.055-.121.12-.2.2,0,.027-.006.052-.01.079C498.514,833.06,498.573,833.091,498.631,833.124Z" fill="#fff"/><path d="M505.622,827.435a1.089,1.089,0,0,1,.768.3,1.81,1.81,0,0,1,.536,1.3,6.35,6.35,0,0,1-.21,1.326q-.186,1.14-.279,2.536-.187,3.864-.186,6.074,0,1.605.3,6.539-.048,1.815-.489,1.838-.58,0-1.28-.908a3.107,3.107,0,0,1-.675-1.42c0-.17.032-.255.094-.255a1.419,1.419,0,0,0,.581.186c.063,0,.094-.179.094-.535q0-9.518.046-11.821.117-2.327.116-4.049l-.162-.907q0-.186.744-.209m-9.517.4a2.437,2.437,0,0,1,1.652.6,1.821,1.821,0,0,1,.675,1.256c0,.621-.162.986-.489,1.094a6.854,6.854,0,0,0-1.6,1.513.5.5,0,0,1,.14.372q0,.7-1.21,1.07c-.124.031-.242.063-.349.093a1.43,1.43,0,0,1,.418.931,2.286,2.286,0,0,1,.7-.256q2.49,0,2.607,2.164a12.67,12.67,0,0,1-.3,2.559,6.327,6.327,0,0,1-.838,2.048q-.348.606-.721.606a.928.928,0,0,1-.93-.862,2.643,2.643,0,0,1,.255-.767,8.88,8.88,0,0,0,.582-3.584q-.048-.488-.745-.488a2.816,2.816,0,0,0-.582.139c.016.744.032,1.428.047,2.048q.024,1.558.047,6.585-.093,1-.932,1.094-.6-.117-.627-1.28c0-.373.007-.713.023-1.024q0-.651.023-3.816.023-1.7.046-3.072a2.146,2.146,0,0,1-.581.186c-.651,0-1.024-.154-1.117-.465.047-.124.178-.21.4-.256a6.585,6.585,0,0,0,.977-.605,2.737,2.737,0,0,0,.325-.233V834.9a1.119,1.119,0,0,0-.348-.814,5.036,5.036,0,0,1-.582.047.953.953,0,0,1-.233-.024,9.485,9.485,0,0,1-.628,1.582,17.523,17.523,0,0,1-1.093,2.072.744.744,0,0,1,.139.046,1.861,1.861,0,0,1,.861,1.234,7.879,7.879,0,0,1,.373,1.977c0,1.009-.149,1.513-.443,1.513-.218,0-.419-.171-.605-.512a10.443,10.443,0,0,1-.489-2.374,2.67,2.67,0,0,0-.4-1q-.418.651-.861,1.256a7.261,7.261,0,0,1-2.35,2.281,2.256,2.256,0,0,1-1,.349c-.124,0-.186-.039-.186-.116a21.036,21.036,0,0,0,2.513-3.072,17.072,17.072,0,0,0,1.908-4,10.205,10.205,0,0,0,.605-3.164,3.784,3.784,0,0,0-.162-1.094c0-.187.053-.279.162-.279a1.711,1.711,0,0,1,1.164.6,2.415,2.415,0,0,1,.6,1.56,7.029,7.029,0,0,0,.838-.419,2.475,2.475,0,0,1,.884-.35l1.443-2.07a.226.226,0,0,0-.255-.256,19.441,19.441,0,0,0-3.933.7,3.187,3.187,0,0,1-.559.14c-.279,0-.426-.069-.442-.209q0-.21.489-.559a6.942,6.942,0,0,1,1.862-1.186,8.169,8.169,0,0,1,2.838-.931m4.677,4.258q.186,0,.628,1.326a11.037,11.037,0,0,1,.582,3.352,2.449,2.449,0,0,1-.372,1.489.8.8,0,0,1-.651.372c-.544-.047-.83-.427-.862-1.141a12.03,12.03,0,0,1,.256-2.21,21.224,21.224,0,0,0,.3-2.722c.016-.311.054-.466.116-.466m4.84-8.653c-.042,0-.084,0-.126,0-2.633.082-3.872,1.454-4.357,2.777a7.226,7.226,0,0,0-.6-.657c-.051-.05-.1-.1-.157-.144a6.429,6.429,0,0,0-4.273-1.583,10.878,10.878,0,0,0-4.5,1.291,11.036,11.036,0,0,0-2.728,1.72,4.528,4.528,0,0,0-1.963,3.665,3.9,3.9,0,0,0,.025.445,4.2,4.2,0,0,0,.083.478,3.954,3.954,0,0,0,.148.785,6.541,6.541,0,0,1-.4,1.867,13.175,13.175,0,0,1-1.449,3.058,17.149,17.149,0,0,1-2.048,2.5,4,4,0,0,0-1.13,2.786,4.107,4.107,0,0,0,4.186,4.116,5.942,5.942,0,0,0,2.846-.8c.06-.03.12-.062.179-.094a4.36,4.36,0,0,0,.661.409,4.7,4.7,0,0,0,3.744,3.925,4.043,4.043,0,0,0,.76.073,3.892,3.892,0,0,0,.445-.025,5.034,5.034,0,0,0,4.47-4.7c.01-.109.016-.218.017-.327a4.992,4.992,0,0,0,.7-.616,4.9,4.9,0,0,0-.042.639,6.6,6.6,0,0,0,1.385,3.7c.039.056.08.112.122.167a5.547,5.547,0,0,0,4.448,2.466q.106,0,.213-.006c1.242-.066,4.146-.757,4.274-5.729q0-.174-.006-.348c-.243-3.976-.294-5.618-.294-6.294,0-1.4.06-3.369.179-5.845.048-.717.119-1.378.209-1.968a10.164,10.164,0,0,0,.284-1.968,3.686,3.686,0,0,0,0-.379,5.72,5.72,0,0,0-1.828-4.029,5.112,5.112,0,0,0-3.469-1.352Z" fill="#fff"/></g><g id="Text"><path d="M164.67,713.176c.23.7.115,2.23-.352,4.57q0,1.054-.351,5.274,2.809-.346,7.383-1.407a5.481,5.481,0,0,0,2.108-1.406,1.418,1.418,0,0,1,1.407-.7,37.051,37.051,0,0,1,7.383,1.758,2.012,2.012,0,0,1,.7,2.109c-.473.7-1.528,1.176-3.164,1.406q-7.383.709-16.172,1.758v8.086l13.008-2.109,2.812-1.407q1.4-.346,7.383,3.165,2.109,1.407,0,3.164a13.739,13.739,0,0,0-1.758,3.163l-5.625,15.82q-1.409,2.109-2.812,2.109a3.835,3.835,0,0,1-2.461-1.406,6.767,6.767,0,0,0-2.109-.351,83.665,83.665,0,0,0-8.438,1.054v.352a222.352,222.352,0,0,0,21.445,15.116,82.443,82.443,0,0,0,20.038,9.141c.7.472.583.939-.351,1.406q-10.9,2.109-15.82,2.109-3.518,0-4.922-2.109-11.955-14.412-20.39-22.851.346,18.638,1.055,27.07a82.736,82.736,0,0,1-2.461,8.086q-1.055,1.754-2.109-.7a24.491,24.491,0,0,0-3.516-3.515q-2.109-1.764-8.437-5.977-.708-.7,0-1.054a46.884,46.884,0,0,0,5.625,1.054q2.81.7,3.867-1.054.7-4.219.7-19.687A113.1,113.1,0,0,1,128.108,786.3q-1.409.7-1.054-1.055,14.41-8.084,28.124-26.015l-6.328.7-1.406,2.109q-2.109.708-3.867-2.813-2.111-7.728-4.922-17.929a21.23,21.23,0,0,0-2.461-2.813q-1.054-1.755,1.055-1.757a32.035,32.035,0,0,1,6.328,1.406l14.765-2.46V727.59q-7.037,1.054-13.359,2.461l-4.921-2.461q-.71-.7,0-1.055,5.619-.345,18.28-2.461a58.074,58.074,0,0,0-.7-8.789l-2.109-2.812c-.7-1.873-.473-2.813.7-2.813Q161.852,710.715,164.67,713.176ZM144.28,740.6l4.219,16.875,9.843-1.758v-8.086q-3.873.709-6.328,1.055l-3.867-1.407a.438.438,0,0,1,0-.7q5.274-.7,10.2-1.758v-6.679Zm19.335,3.164a12.751,12.751,0,0,0,3.867-1.055c.467-.23.934-.467,1.407-.7a7.536,7.536,0,0,1,4.569,1.758c.7.939.583,1.642-.351,2.109l-9.492,1.055v7.734l8.438-1.406a9.288,9.288,0,0,1,2.812.351l3.515-15.82c.231-1.637-.236-2.46-1.406-2.46l-13.359,2.11Z" fill="#231f20" stroke="#231f20" stroke-linecap="round" stroke-linejoin="round" stroke-width="2"/><path d="M259.013,717.043a6.487,6.487,0,0,1,0,4.219q-1.054,5.628-2.461,10.547,7.729-1.4,23.2-3.164a21.47,21.47,0,0,1,3.868-2.813,20.173,20.173,0,0,1,9.492,3.516q2.455,2.817-1.758,3.867a35.568,35.568,0,0,1-5.625.351q-17.585.354-27.772,2.11,2.811,2.817,3.163,4.218a11.276,11.276,0,0,1-2.108,4.57q8.784.709,14.764.7A47.076,47.076,0,0,1,278,749.034q1.4,1.764-1.055,3.164a7.685,7.685,0,0,0-1.055,2.461,153.45,153.45,0,0,1-8.437,23.554q-3.87,9.846-9.139,15.469-1.764,2.454-2.812-.352a38.7,38.7,0,0,0-9.493-12.305q-.354-1.4.7-1.054a36.462,36.462,0,0,0,9.141,3.867c.934.473,1.873,0,2.813-1.406q5.973-10.548,11.6-30.937c.231-1.17,0-1.873-.7-2.109q-6.328-1.054-12.3-1.758a108.55,108.55,0,0,1-15.468,22.147,60.05,60.05,0,0,1-16.172,13.711c-1.176.237-1.407,0-.7-.7a115.47,115.47,0,0,0,9.843-10.547,110.863,110.863,0,0,0,15.118-24.96q1.055-2.454,3.515-8.086c.231-1.636,0-2.576-.7-2.811q-11.957,2.107-23.555,5.272a2.3,2.3,0,0,1-2.461,0q-6.681-3.163-3.515-3.164,21.093-4.918,31.289-6.327-1.764-6.673-2.813-11.6a6.226,6.226,0,0,0-3.164-4.571q-1.763-2.81.7-2.461Q255.5,714.237,259.013,717.043Z" fill="#231f20" stroke="#231f20" stroke-linecap="round" stroke-linejoin="round" stroke-width="2"/><path d="M365.659,714.934q3.51,2.817-1.758,3.867-4.572.354-9.14.7a6.035,6.035,0,0,1,1.054,2.812v3.164q12.3-1.4,24.258-2.812a19.491,19.491,0,0,1,3.867-.7q2.81.354,6.679,5.273,2.809,2.818,0,3.516a28.19,28.19,0,0,0-4.569.351q-2.465.708-10.547,4.219c-1.176.236-1.406-.116-.7-1.054a72.1,72.1,0,0,0,6.679-7.735c0-.933-.472-1.285-1.406-1.055q-12.655,1.41-24.96,3.165V745.87a10.649,10.649,0,0,1,3.866-1.055q4.566,2.464,3.868,3.516-2.464,5.628-3.868,8.789-1.407,2.818-2.812,1.055a7.569,7.569,0,0,0-3.867.351q-.708,2.465-3.164,0a15.9,15.9,0,0,1-2.812-6.328l-1.055-1.758a3.37,3.37,0,0,1-1.055,2.461q-1.409,4.929-1.757,6.328-.355,2.464-3.165,1.407c-1.175.236-2.46.472-3.867.7l-1.054,1.406q-2.111,1.054-3.164-1.406a49.747,49.747,0,0,0-3.516-7.031q-1.762-1.056-1.406-2.461c.231-.467.934-.582,2.109-.352a27.684,27.684,0,0,0,4.57-.351,30.145,30.145,0,0,0,7.383-2.813,3,3,0,0,1,2.813,0,2.363,2.363,0,0,0,1.757.7c.231-.7.934-.933,2.11-.7a12.722,12.722,0,0,0,3.867-1.055q0-9.136-.352-17.928-13.71,2.109-21.093,3.164a9.083,9.083,0,0,1-2.813-.352q0,6.681-1.758,10.194c-.938,1.176-1.756,1.758-2.46,1.758s-1.291-.466-1.757-1.406a11.952,11.952,0,0,1,0-7.03q3.864-4.22,3.163-7.031-.708-3.165,1.758-1.055a8.958,8.958,0,0,1,1.054,2.109,9.014,9.014,0,0,0,4.219-.351q9.492-1.054,19.336-2.461v-4.219a4.966,4.966,0,0,0-.352-2.109q-3.163.354-7.382,1.054a6.006,6.006,0,0,1-2.461.352q-5.983-2.456-2.11-2.813a161.485,161.485,0,0,0,17.929-3.515,13.5,13.5,0,0,0,2.461-1.758A15.855,15.855,0,0,1,365.659,714.934Zm7.735,46.053q1.4,2.111-1.407,2.813a135.169,135.169,0,0,0-15.468,1.406q-.354,11.6-1.056,20.39,9.84-1.054,16.173-1.758a7.889,7.889,0,0,1,2.461-1.055,19.639,19.639,0,0,1,7.734,2.813q2.456,1.755-1.758,3.515-4.573-.354-13.711-1.054-6.327,0-20.741,1.406a123.177,123.177,0,0,0-17.93,3.164h-1.055a5.187,5.187,0,0,1-2.812-1.406q-1.409-1.054,0-1.055a238.146,238.146,0,0,1,27.422-4.219v-18.28q.345-1.757-1.055-1.406-6.329,1.407-11.25,2.109c-1.406-.231-2.582-.468-3.516-.7q-3.518-1.757-.351-1.758,18.274-3.511,30.585-5.976a3.367,3.367,0,0,1,2.461-1.055A15.7,15.7,0,0,1,373.394,760.987Zm-31.289,13.359a42.587,42.587,0,0,1-3.516,3.164,16.041,16.041,0,0,0,4.219.351,2.268,2.268,0,0,1,2.461,1.055q2.456,2.818,2.109,4.922-.354,1.409-2.812.7a22.841,22.841,0,0,1-7.031-5.625l-1.055.7a75.271,75.271,0,0,1-9.492,6.68c-1.175.467-1.527.23-1.055-.7a83.624,83.624,0,0,0,9.844-11.953,5.734,5.734,0,0,0,0-2.813q-.709-2.456,2.109-1.405Q343.16,771.188,342.105,774.346Zm-8.438-21.093a.982.982,0,0,0-.7,1.406l1.758,4.219h.7l3.516-1.406L340,752.55a1.382,1.382,0,0,0-1.407-1.055Zm10.547-7.031q-1.409,1.409-4.218.351a15.319,15.319,0,0,1-5.977-4.219q-.71-1.754,1.055-1.054a35.573,35.573,0,0,0,5.976.7Q344.215,742.357,344.214,746.222Zm-3.164-12.3a5.15,5.15,0,0,1,3.164,1.055,3.455,3.455,0,0,1,1.758,3.163q-.354,1.055-2.109,1.054-4.928-1.055-7.031-3.163-3.165-2.109-.352-2.109A14.878,14.878,0,0,0,341.05,733.918Zm10.2,21.8.7.7,4.218-1.055q.7-4.565,1.055-7.383a2.063,2.063,0,0,0-1.407-.351l-5.624,1.758Q350.892,752.9,351.246,755.714Zm19.687,14.765q-.71,1.054-2.11,2.812a32.229,32.229,0,0,1,5.625,1.758q4.565,2.819,4.922,5.976a1.627,1.627,0,0,1-1.758,1.055,4.176,4.176,0,0,1-3.515-1.055,83.737,83.737,0,0,1-6.328-7.031,53.379,53.379,0,0,1-10.547,9.492q-2.111.709-.7-.7,7.381-8.783,9.14-14.413a3.435,3.435,0,0,0-.7-1.758c-.473-1.406.352-1.758,2.461-1.054a19.79,19.79,0,0,1,2.461,1.054C371.284,768.49,371.636,769.775,370.933,770.479Zm-.7-39.725a4.287,4.287,0,0,1,2.461,2.812c0,1.407-1.175,2.11-3.515,2.11a20.394,20.394,0,0,1-8.789-2.813q-2.463-2.109,0-1.758a45.3,45.3,0,0,0,7.383-.7A10.46,10.46,0,0,1,370.229,730.754Zm-2.109,7.733c2.109.473,3.279,1.407,3.516,2.813-.237,1.176-1.291,1.758-3.164,1.758a10.34,10.34,0,0,1-8.438-3.868q-1.763-2.454,1.406-1.406A16.663,16.663,0,0,0,368.12,738.487Zm14.063,8.438-3.516,8.086q-1.408,2.819-3.516,1.054a8.727,8.727,0,0,0-4.218.352c0,.939-.588,1.527-1.758,1.758-1.176-.231-2.11-1.285-2.813-3.164q-1.762-6.328-2.461-8.086-1.409-2.455,2.461-.7,4.92-1.4,10.2-2.813a5.67,5.67,0,0,1,2.461-.7Q386.4,745.171,382.183,746.925Zm-13.711,1.054,1.757,6.68a32.739,32.739,0,0,0,4.922-1.406q1.054-3.864,2.461-7.734a2.056,2.056,0,0,0-1.406-.352l-7.734,2.109Z" fill="#231f20" stroke="#231f20" stroke-linecap="round" stroke-linejoin="round" stroke-width="2"/><path d="M462.111,748.331a3.566,3.566,0,0,0-.7,2.813,19.056,19.056,0,0,0,4.219-.7c1.637-1.406,2.691-1.988,3.164-1.757q2.109,0,6.328,2.461a2.263,2.263,0,0,1,1.406,2.109q0,1.408-2.109,1.406-7.737,0-14.414.352l-2.109,10.9q13.71-1.054,17.226-2.109a5.631,5.631,0,0,1,3.516-1.406q1.755,0,7.382,2.812,3.51,1.762,2.461,3.867t-5.625,1.406a168.648,168.648,0,0,0-21.445-.7q-5.628,0-16.522,1.055T412.9,776.455l-3.516-1.758c-1.176-.7-1.406-1.285-.7-1.758L436.8,768.37l-.352-10.547q-8.437,1.41-14.062,2.461l-2.461-1.055q-1.409-1.055,0-1.054,11.6-2.109,16.523-3.164a21.738,21.738,0,0,0-.351-3.164,4.535,4.535,0,0,0-1.758-2.813c-1.176-1.637-1.176-2.461,0-2.461a9.36,9.36,0,0,1,5.625,2.11q2.109,1.409,2.109,2.812l-.351,2.461q3.164-.345,13.007-1.758a8.221,8.221,0,0,0-1.055-7.031q-1.408-2.109,1.055-2.109Q462.811,745.521,462.111,748.331Zm-23.2,26.366a16.912,16.912,0,0,1,3.516,4.219c.933,1.176.23,2.109-2.11,2.813q-14.42,8.782-21.8,11.6-2.464.7-.7-1.055,7.73-5.272,16.874-15.468.7-.7-.351-2.813c-.236-.933.23-1.285,1.406-1.055A30.431,30.431,0,0,0,438.909,774.7Zm33.4-54.49c.23.473-.352,1.879-1.758,4.219q-5.628,13.71-7.383,16.171c-1.176,1.642-2.461,2.345-3.867,2.109q-1.41-.7-3.164-1.406a15.14,15.14,0,0,0-4.571,0l-13.358,2.109-1.758.7c-.472,1.176-1.054,1.528-1.758,1.055A6.687,6.687,0,0,1,431.175,742l-5.625-20.038-1.758-1.758c-.472-1.17,0-1.637,1.406-1.406l5.274,1.054,32.342-5.273,2.461-.7Q468.785,714.934,472.307,720.207Zm-40.078,2.461,1.758,8.086h2.11l8.437-2.109V723.02a2.528,2.528,0,0,0-1.406-2.461Zm5.977,10.2-3.867-.351,1.055,6.678.7,2.11,8.437-1.406v-8.085Zm3.516,34.8,11.6-1.055,1.055-10.9q-5.981.354-12.655,1.406Zm7.031-47.812,1.406,2.813-.351,4.57a4.421,4.421,0,0,0,2.108-1.054,3.035,3.035,0,0,1,2.109-1.055,11.211,11.211,0,0,1,3.868,1.758q2.109,2.819-1.407,3.164-3.163.354-7.03,1.054l-.352,7.734a40.97,40.97,0,0,1,6.328-1.055,11.667,11.667,0,0,1,3.515.7l4.922-18.632c0-1.169-.473-1.757-1.406-1.757Zm23.905,62.225q2.109,1.054,2.11,5.977-.355,3.164-1.758,3.164a3.043,3.043,0,0,1-2.11-1.055q-7.737-7.728-15.468-15.117c-.7-1.17-.472-1.406.7-.7Q469.845,779.619,472.658,782.08Z" fill="#231f20" stroke="#231f20" stroke-linecap="round" stroke-linejoin="round" stroke-width="2"/><path d="M528.329,720.559a3.874,3.874,0,0,1,1.406,2.461q0,1.409-2.109,2.46-4.219,7.738-9.492,15.468l2.109,2.11a6.28,6.28,0,0,1,.7,2.812V785.6q0,4.218-1.406,5.976t-2.812.7a10.689,10.689,0,0,1-2.461-3.515,16.3,16.3,0,0,1-1.406-5.625q.346-1.4,1.055-3.867,2.107-9.494,2.108-34.8a184.37,184.37,0,0,1-14.764,15.117c-1.176.7-1.528.473-1.055-.7a124.731,124.731,0,0,0,10.547-15.469A199.577,199.577,0,0,0,521.3,721.965a4.691,4.691,0,0,0-1.055-2.813,1.735,1.735,0,0,1-.351-1.757,1.427,1.427,0,0,1,1.757-.7A12.7,12.7,0,0,1,528.329,720.559ZM569.461,741.3q2.809-1.054,10.546,2.109,3.163,2.465,0,4.219-13.01,0-28.827,1.406a21.573,21.573,0,0,1,2.461,3.164q1.755,1.764.351,3.164-8.089,9.492-17.577,18.984,17.575-2.111,29.53-4.219-2.463-3.864-5.976-8.437c-.237-.7,0-.933.7-.7q11.6,6.329,13.008,8.086a21.208,21.208,0,0,1,4.569,10.546,2.84,2.84,0,0,1-1.4,2.813,1.749,1.749,0,0,1-2.11,0,29.536,29.536,0,0,1-2.812-3.516q-2.109-3.163-4.57-6.68-22.149,5.984-30.234,8.438a2.375,2.375,0,0,1-2.109,1.055,3.753,3.753,0,0,1-2.11-.7,18.815,18.815,0,0,1-4.57-3.867,8.6,8.6,0,0,1-1.055-2.109c0-1.406.582-1.758,1.758-1.055a8,8,0,0,0,2.813.7,2.86,2.86,0,0,0,2.109-.7,175.2,175.2,0,0,0,13.358-22.5,3.412,3.412,0,0,0-1.4-1.758q-10.2,1.764-17.578,3.516c-1.176,0-2.812-.7-4.922-2.109q-1.055-.7,0-1.055,22.494-3.864,44.3-7.383ZM556.1,721.965a13.423,13.423,0,0,1,7.734,1.758q2.109,1.763-.7,3.515-9.147.709-18.28,2.11-4.22.707-6.68,1.054-5.274-2.454-3.867-2.812,9.837-1.755,19.335-3.516A32.37,32.37,0,0,0,556.1,721.965Z" fill="#231f20" stroke="#231f20" stroke-linecap="round" stroke-linejoin="round" stroke-width="2"/><path d="M215.38,826.6a4.525,4.525,0,0,1,1.513.279.885.885,0,0,1,.628.861q0,.884-1.117.931a4.733,4.733,0,0,0-2.373.907q-.721.535-1.35.954a1.579,1.579,0,0,1,1.187.675,3.344,3.344,0,0,1,.488,1.838q0,1.024-.023,2.211a11.357,11.357,0,0,0,.838-1.373,6.528,6.528,0,0,0,.931-2.886c0-.248.069-.372.209-.372a2.627,2.627,0,0,1,1.606.606,1.728,1.728,0,0,1,.814,1.326,2.191,2.191,0,0,1-.6,1.373,13.729,13.729,0,0,1-3.537,2.861q2.606-.186,3.258-.185a5.18,5.18,0,0,1,2.14.581q1.536.7,1.536,1.14,0,1.257-1.326,1.257a3.129,3.129,0,0,1-1.4-.535,8.506,8.506,0,0,0-3.816-.885h-.768q-.071,2.42-.233,5.306a16.091,16.091,0,0,1-.884,4.351q-.256.675-.512.675-.139,0-.186-.675-.07-.816-.093-9.494a10.271,10.271,0,0,0-1.117.233,27.761,27.761,0,0,0-4.584,1.931,4.953,4.953,0,0,1-2.118.722,2.491,2.491,0,0,1-1.442-.466c-.218-.171-.326-.3-.326-.372a.227.227,0,0,1,.209-.232,6.373,6.373,0,0,0,2.607-.722,30.437,30.437,0,0,1,4.095-1.652,13.5,13.5,0,0,1,2.676-.745v-3.979a9.529,9.529,0,0,0-.35-2.048q-1.07.7-2,1.188a.083.083,0,0,1-.093-.094,27.372,27.372,0,0,1,3.514-3.048,17.821,17.821,0,0,1-3.77.931,3.309,3.309,0,0,1-1.651-.419,1.451,1.451,0,0,1-.792-1c0-.186.07-.279.209-.279a4,4,0,0,0,1.118.186,10.141,10.141,0,0,0,3.466-.978A8.791,8.791,0,0,1,215.38,826.6Zm-8.307,7.1a4.242,4.242,0,0,1,2.025,1.188.739.739,0,0,0,.419.209q.162,0,.721-1.489c.077,0,.116.062.116.186a5.541,5.541,0,0,1-.977,3.327,1.79,1.79,0,0,1-1.373.862c-.171,0-.334-.2-.489-.582a5.318,5.318,0,0,1-.442-1.885,7.435,7.435,0,0,0-.256-1.629C206.817,833.756,206.9,833.693,207.073,833.693Z" fill="#231f20"/><path d="M229.24,833.392q.721,0,1.513,1.116a3.213,3.213,0,0,1,.7,1.955,14.015,14.015,0,0,1-1.071,4.84q-1.209,3.163-2.256,3.164c-.265,0-.4-.03-.4-.093a21.083,21.083,0,0,0,1.419-4.468,17.489,17.489,0,0,0,.349-3.443,11.98,11.98,0,0,0-.628-2.862C228.868,833.461,228.992,833.392,229.24,833.392Zm11.239-3.258q1.558.046,1.606,1.023,0,.232-.7.722a2.2,2.2,0,0,1-.373.3,8.2,8.2,0,0,0-1.466,1.256,2.471,2.471,0,0,1-.325.349q.651,1.722,1.419,3.42a5.412,5.412,0,0,0,.419-1.954.613.613,0,0,0-.117-.163.4.4,0,0,1-.069-.187c0-.185.178-.279.535-.279a1.365,1.365,0,0,1,.814.233c.264.171.4.333.4.489a8.649,8.649,0,0,1-.954,3.862q1.118,2.048,2.42,4,.93,1.466,1.326,1.466c.047,0,.1-.116.163-.35a21.015,21.015,0,0,0,.163-2.117c.031-.108.054-.163.07-.163.108,0,.233.14.372.419a5.843,5.843,0,0,1,.559,2.559,6.018,6.018,0,0,1-.187,1.723q-.186.512-.465.512a3.2,3.2,0,0,1-1.885-1.141,20.394,20.394,0,0,1-3.374-5.468q-1.4,1.979-2.652,1.978a1.153,1.153,0,0,1-.675-.209c-.125-.078-.187-.14-.187-.187a.728.728,0,0,1,.373-.651q1.14-.442,2.234-2.815l.046-.071q-.815-1.931-1.559-4.072-.79.769-1.535,1.467.815.394.814,1.791a7.489,7.489,0,0,1-.768,3.1,7.206,7.206,0,0,1-2.257,2.675,2.017,2.017,0,0,1-1.07.35q-.327,0-.7-.978a2.377,2.377,0,0,1-.233-.7c0-.093.131-.139.4-.139a1.774,1.774,0,0,0,1.048-.349,4.63,4.63,0,0,0,1.442-1.861,4.467,4.467,0,0,0,.582-1.746c0-.294-.093-.442-.279-.442a3,3,0,0,0-1.071.349q-.279.139-.465.21-.606.51-1.14.93a1.316,1.316,0,0,1-.884.372q-.279,0-.443-.372a1.328,1.328,0,0,1-.3-.861q0-.488,1.117-1.094a28.23,28.23,0,0,0,4.653-3.234,5.694,5.694,0,0,0,.7-.675q-.164-.512-.349-1.023a7.669,7.669,0,0,1-4.352,1.675q-1.443-.069-1.582-1.3,0-.4.209-.4a2.627,2.627,0,0,0,1.117.3,11.24,11.24,0,0,0,4-1.233c.093-.047.178-.085.255-.117q-.511-1.629-1.023-3.4a1,1,0,0,0-.628-.744c-.265-.063-.4-.124-.4-.187q.14-.394.465-.395a2.667,2.667,0,0,1,1.257.348,1.039,1.039,0,0,1,.814.978,13.107,13.107,0,0,0,.489,2.955A8.1,8.1,0,0,1,240.479,830.134Zm-1.931,1.721c.046.14.085.264.116.373a1.032,1.032,0,0,0,.093.186c.094-.155.171-.295.233-.419-.032-.108-.124-.163-.279-.163A.706.706,0,0,0,238.548,831.855Zm3.35-4.77a8.443,8.443,0,0,1,1.164.14,4.791,4.791,0,0,1,1.861.745,1.285,1.285,0,0,1,.582.884q-.022.675-.628.721a1.145,1.145,0,0,1-.931-.535,6.7,6.7,0,0,0-1.838-1.676c-.14-.093-.21-.163-.21-.209Z" fill="#231f20"/><path d="M261.611,838a11.677,11.677,0,0,1-1.071,5.4,4.693,4.693,0,0,1-4.421,2.63,5.408,5.408,0,0,1-3.769-1.28,3.852,3.852,0,0,1-1.443-2.7.843.843,0,0,1,.954-.954,1,1,0,0,1,.838.536q.255.441.511.931a3.084,3.084,0,0,0,2.909,1.558q2.977,0,3.3-5.491a5.686,5.686,0,0,1-3.374,1.7q-5.212,0-5.212-5.072a5.39,5.39,0,0,1,1.3-3.863,6.3,6.3,0,0,1,8.074.139Q261.612,833.253,261.611,838Zm-2.234-1.768a7.639,7.639,0,0,0-.582-3.048,2.872,2.872,0,0,0-2.746-1.28,2.924,2.924,0,0,0-2.4.861,4.183,4.183,0,0,0-.629,2.49q0,3.141,3.025,3.141A3.8,3.8,0,0,0,259.377,836.23Z" fill="#231f20"/><path d="M271.9,826.5q.394,0,1.256.907a2.972,2.972,0,0,1,.792,1.885,3.244,3.244,0,0,1-.535,1.582,3.972,3.972,0,0,0,2.117-.559,3.8,3.8,0,0,1,2.048-.628,1.558,1.558,0,0,1,.884.209,1.173,1.173,0,0,1,.419.909.946.946,0,0,1-.675.86,7.752,7.752,0,0,1-1.28.35,2.963,2.963,0,0,1,.209,1.093v.768h.279q1.024,0,1.024.744,0,.675-1.326,1.048-.022,1.7-.07,3.793a23.53,23.53,0,0,1,3.584-.4,6.841,6.841,0,0,1,2.443.373,1.047,1.047,0,0,1,.652.931q0,.93-.722.931a10.675,10.675,0,0,1-1.512-.3,21.016,21.016,0,0,0-2.536-.14q-1.049,0-1.955.047-.024,1.071-.093,2.21a26.262,26.262,0,0,1-.489,4.166c-.108.434-.21.652-.3.652-.233,0-.381-.218-.443-.652q-.138-.628-.186-6.283-1.443.139-2.722.372a20.456,20.456,0,0,0-4.956,1.955,2.366,2.366,0,0,1-1.28.419,1.239,1.239,0,0,1-.838-.442c-.248-.264-.372-.457-.372-.582,0-.155.131-.233.395-.233a7.5,7.5,0,0,0,2.7-.651,19.334,19.334,0,0,1,3-1.07,7.368,7.368,0,0,0,.279-1.118,6.72,6.72,0,0,0,.117-1.233,2.76,2.76,0,0,0-.722-1.21c0-.061.062-.093.186-.093a2.338,2.338,0,0,1,1.327.489q.629.4.628.814a3.814,3.814,0,0,1-.558,1.745,1.937,1.937,0,0,1-.163.279,7.747,7.747,0,0,1,.768-.185q1.163-.28,2.21-.489-.023-1.722-.023-3.77a12.974,12.974,0,0,1-1.792.187,2.152,2.152,0,0,1-1.07-.3c-.31-.233-.474-.411-.489-.535q0-.21.489-.256a9.631,9.631,0,0,0,2.234-.722,4.321,4.321,0,0,1,.628-.232v-1.024a6.7,6.7,0,0,0-.116-1.048,6.279,6.279,0,0,1-2.211-.464,1,1,0,0,1-.139-.093c-.125.155-.241.3-.35.441A9.887,9.887,0,0,1,268.483,835a.164.164,0,0,1-.186-.186,19.915,19.915,0,0,0,2.816-3.863,6.747,6.747,0,0,0,.907-3.211,2.7,2.7,0,0,0-.209-1.024C271.811,826.573,271.842,826.5,271.9,826.5Z" fill="#231f20"/><path d="M294.6,845.1a.8.8,0,0,1-.349.675,1.18,1.18,0,0,1-.791.279q-1.071,0-1.07-.954V834.741h-2.63a1.307,1.307,0,0,1-.838-.279.8.8,0,0,1-.349-.675q0-.7,1.094-.838a3.123,3.123,0,0,0,2.048-1.6q.93-1.328,1.885-1.326.418,0,.744.6a2.086,2.086,0,0,1,.256,1.024Z" fill="#231f20"/><path d="M309.051,844.677a.844.844,0,0,1-.954.954H300.6a3.353,3.353,0,0,1-1.559-.372,1.287,1.287,0,0,1-.768-1.164,3.728,3.728,0,0,1,1.28-2.536,22.169,22.169,0,0,1,2.979-2.351q1-.72,2.978-2.28a3.571,3.571,0,0,0,1.35-2.49,2.307,2.307,0,0,0-.954-1.978,3.932,3.932,0,0,0-2.141-.558,4.416,4.416,0,0,0-2.536.558,3.542,3.542,0,0,0-1.094,2.187,2.073,2.073,0,0,1-.233.746.7.7,0,0,1-.675.348.945.945,0,0,1-.7-.279.906.906,0,0,1-.257-.628,4.414,4.414,0,0,1,1.583-3.606,6.844,6.844,0,0,1,7.632-.14,3.926,3.926,0,0,1,1.559,3.35q0,2.492-3.932,5.236-1.048.675-2.909,2a5.014,5.014,0,0,0-1.885,2.048H308.1a.9.9,0,0,1,.7.279A.911.911,0,0,1,309.051,844.677Z" fill="#231f20"/><path d="M319.554,829.389q.093,0,.442.395a2.133,2.133,0,0,1,.861,1.373q-.024.652-.047,1.187a1.46,1.46,0,0,1,.14-.162,4.211,4.211,0,0,1,2.4-.932,1.148,1.148,0,0,1,1.233,1.3q0,.418-1.35,1.977a7.044,7.044,0,0,0-1.187,1.653.772.772,0,0,0,.233.6,8.5,8.5,0,0,0,1.373.07c.683.032,1.024.341,1.024.931a1.343,1.343,0,0,1-.489.861,18.817,18.817,0,0,1-2.792,1.954,1.063,1.063,0,0,1-.535.164.165.165,0,0,1-.187-.187,9.911,9.911,0,0,1,1.537-1.395c.34-.28.511-.466.511-.559q0-.256-.372-.3-1.49-.091-1.838-.558a.869.869,0,0,1-.186-.419,24.486,24.486,0,0,1-.954,4.375q-1.164,3.188-2.583,4.141a2.6,2.6,0,0,1-1.14.466c-.14,0-.21-.031-.21-.094a14.413,14.413,0,0,0,2.839-5.467,54.426,54.426,0,0,0,1.186-10.984C319.46,829.521,319.492,829.389,319.554,829.389Zm.977,6.376a8.086,8.086,0,0,1,.838-.908q1.348-1.255,1.349-1.559c0-.294-.132-.442-.4-.442a4.769,4.769,0,0,0-1.583.465Q320.647,834.625,320.531,835.765Zm6.282-8.61q.442,0,1.187,1.234a3.325,3.325,0,0,1,.675,1.489,6.26,6.26,0,0,1-.325.814,10.993,10.993,0,0,0-.373,2.025q-.139,1.907-.14,5.025v7.028a3.783,3.783,0,0,1-.558,2.14,1.166,1.166,0,0,1-.954.652,2.176,2.176,0,0,1-1.629-.884,23.445,23.445,0,0,0-3.4-2.839c0-.062.07-.093.209-.093a17.492,17.492,0,0,0,3.514,1.024q.512,0,.512-.791,0-9.053.139-10.634a11.947,11.947,0,0,0,.21-1.606,3.748,3.748,0,0,0-.372-1.839,1.307,1.307,0,0,0-1.14-.86,8.276,8.276,0,0,0-1.815.325,7.778,7.778,0,0,1-1.35.326c-.3,0-.442-.069-.442-.209q0-.139.605-.605a7.137,7.137,0,0,1,2.048-1.094A9.349,9.349,0,0,1,326.813,827.155Z" fill="#231f20"/><path d="M375.778,832.367q1.093,0,1.093,1.025-.024.6-1.372,1.884a.739.739,0,0,1,.093.372q0,.4-.675.628-.7.188-1.373.35v1.023a18.618,18.618,0,0,1,5.375-.977,6.593,6.593,0,0,1,2.467.349,1.143,1.143,0,0,1,.791,1.024q0,.721-2.117,2.443a6.821,6.821,0,0,1-2.514,1.559,1.41,1.41,0,0,1-1.116-.768c-.265-.279-.4-.48-.4-.6,0-.078.109-.14.325-.187a5.113,5.113,0,0,0,2.467-.814q1.024-.675,1.024-1.257a.434.434,0,0,0-.28-.441,3.223,3.223,0,0,0-1.186-.187,16.883,16.883,0,0,0-4.793.768l-.047.023v6.539a5.24,5.24,0,0,1-.349,2.187q-.279.629-.674.629-.513,0-1.513-2.048v-.093a.56.56,0,0,0,.4.256q.721,0,.722-1.117v-3.979a37.2,37.2,0,0,1-2.815,3.327,3.948,3.948,0,0,1-2.56,1.326c-.249,0-.373-.069-.373-.209a11.992,11.992,0,0,0,2.583-2.4,26.228,26.228,0,0,0,2.909-3.862,17.9,17.9,0,0,0-3.887,2,3.285,3.285,0,0,1-1.511.838c-.389,0-.582-.225-.582-.675a1.654,1.654,0,0,1,.419-.745,5.852,5.852,0,0,0,1.535-3.257q0-.3.954-.35.7.024.745.535a5.378,5.378,0,0,1-1.187,2.118q2.025-.884,3.77-1.512v-1.187l-.256.046a11.507,11.507,0,0,1-1.606.163c-.418,0-.628-.116-.628-.348q0-.186.466-.373,1.162-.4,2-.652a1.391,1.391,0,0,0-.3-.93.333.333,0,0,1-.209-.233,7.779,7.779,0,0,1-1.606.233q-.721-.048-.838-.4c0-.124.209-.232.628-.326A24.147,24.147,0,0,1,375.778,832.367Zm-6.539-5.468a4.306,4.306,0,0,0,.628.465,1.282,1.282,0,0,1,.7,1.094,2.475,2.475,0,0,1-.395,1.117.926.926,0,0,1,.838.744l1.117-.93v.093q-.653,1.326-1.21,2.49-.374.977-1.024.977-.536,0-.536-.861l.815-1.373a11.006,11.006,0,0,1-3.514,1.373q-.675,0-.675-.559c0-.154.187-.372.559-.651q2.49-2.535,2.49-3.677C369.03,827,369.1,826.9,369.239,826.9Zm3.188,7.447a1.281,1.281,0,0,1,.7.372,1.447,1.447,0,0,1,.326.581c.17-.046.318-.085.443-.116l1.21-1.49c0-.061-.063-.092-.187-.092Q373.474,834.066,372.427,834.346Zm2.769-8.657a1.876,1.876,0,0,1,1.024.442,1,1,0,0,1,.489.861,4.813,4.813,0,0,1-.978,1.769,8.508,8.508,0,0,1,2.072-.4c.635,0,.953.195.953.582a1.654,1.654,0,0,1-1.326,1.466q-1.4.675-3.444,1.675v-.069q1.093-.978,1.932-1.792h-1.257q-1.211,0-1.21-.931a2.411,2.411,0,0,1,.768-1.559A3.707,3.707,0,0,0,375.2,825.689Z" fill="#231f20"/><path d="M397.288,837.021a16.832,16.832,0,0,0-3.514.326,11.884,11.884,0,0,0-2.49.7,3.539,3.539,0,0,1-1.605.372,4.019,4.019,0,0,1-1.653-.279q-.791-.326-.791-.837c0-.171.063-.257.187-.257a14.122,14.122,0,0,0,3.606-.535,24.816,24.816,0,0,1,5.492-.837q4.421-.372,5.329-.513a8.073,8.073,0,0,1,1.21-.093,4.639,4.639,0,0,1,2.559.746,2.489,2.489,0,0,1,1.35,1.977.823.823,0,0,1-.931.931,2.946,2.946,0,0,1-1.326-.512,14.041,14.041,0,0,0-3-.791A24.511,24.511,0,0,0,397.288,837.021Z" fill="#231f20"/><path d="M411.944,830.994c.109,0,.311.149.606.443a3.819,3.819,0,0,1,1,1.489,7,7,0,0,1,.163,1.023q.534-.255,1.024-.511a7.572,7.572,0,0,0,1.791-4.677q0-.489.443-.489a2.358,2.358,0,0,1,1.349.349,1.421,1.421,0,0,1,.512,1.163,3.422,3.422,0,0,1-.441,1.4,5.667,5.667,0,0,1-1.072,1.21.63.63,0,0,1,.14-.024q1.211,0,1.21.931,0,.606-1.07,1.723a24.379,24.379,0,0,1-2.071,2.023c.233-.123.5-.256.791-.4a1.353,1.353,0,0,1,.652-.279,1.37,1.37,0,0,1,.838.4.942.942,0,0,1,.488.72V844.1a1.239,1.239,0,0,1-.256.791.641.641,0,0,1-.488.233.691.691,0,0,1-.49-.3.9.9,0,0,1-.185-.535q-.163-4.21-.163-5.119c0-.5-.063-.745-.187-.745a10.858,10.858,0,0,0-2.14.605,3.394,3.394,0,0,1-.628.209,37.487,37.487,0,0,1-.443,4.445,6.3,6.3,0,0,1-.6,1.931.938.938,0,0,1-.675.443q-.442,0-.442-.931a2.786,2.786,0,0,1,.163-1.117,7.313,7.313,0,0,0,.6-2.28,37.67,37.67,0,0,0,.256-4.678,31.8,31.8,0,0,0-.116-3.56,8.057,8.057,0,0,0-.582-1.675,2.346,2.346,0,0,1-.139-.721C411.782,831.025,411.836,830.994,411.944,830.994Zm1.862,6.7a10.422,10.422,0,0,0,1.3-1.722,5.542,5.542,0,0,0,.582-.977q0-.186-.093-.186a1.329,1.329,0,0,1-.768.348,3.963,3.963,0,0,1-1.047-.116q.022.861.023,1.908Zm11.751-7.912q.745,0,.745.443,0,1.094-1.722,1.652-.745.186-1.28.3-.164.7-.535,2.07l.139-.14a3.434,3.434,0,0,1,2.072-1.163q1.7,0,1.768,2.048a12.365,12.365,0,0,1-1.094,4.909,16.056,16.056,0,0,0,3.583,2.141,18.313,18.313,0,0,1,3.049,1.233c.527.265.791.535.791.815q0,.766-1.466.768a6.635,6.635,0,0,1-2.909-.605,7.966,7.966,0,0,1-3.3-2.373q-.28-.281-.513-.559-1.466,2.419-2.885,2.42a3,3,0,0,1-1.35-.232q-.069.3-.116.581a.8.8,0,0,1-.838.582q-.558-.071-.582-.838,2.282-7.586,3.327-11.5a5.675,5.675,0,0,1-.976.116,1.468,1.468,0,0,1-.769-.209c-.216-.14-.333-.248-.348-.326q0-.3.488-.4a8.547,8.547,0,0,0,2.188-1.023A4.292,4.292,0,0,1,425.557,829.784ZM420.74,843.1a8.1,8.1,0,0,0,2.909-3.073q-1-1.046-1.862-1.837Q421.3,840.419,420.74,843.1Zm1.3-6,2.164,1.745a9.924,9.924,0,0,0,.861-3.77c0-.433-.092-.651-.279-.651s-.6.279-1.186.838a2.435,2.435,0,0,1-.931.581.825.825,0,0,1-.3-.046Q422.183,836.417,422.043,837.091Z" fill="#231f20"/><path d="M450.382,832.367q1.092,0,1.093,1.025-.024.6-1.372,1.884a.749.749,0,0,1,.092.372q0,.4-.674.628c-.466.125-.923.242-1.374.35v1.023a18.618,18.618,0,0,1,5.375-.977,6.593,6.593,0,0,1,2.467.349,1.142,1.142,0,0,1,.791,1.024q0,.721-2.117,2.443a6.805,6.805,0,0,1-2.514,1.559,1.41,1.41,0,0,1-1.116-.768c-.264-.279-.4-.48-.4-.6,0-.078.108-.14.325-.187a5.116,5.116,0,0,0,2.467-.814q1.023-.675,1.023-1.257a.434.434,0,0,0-.279-.441,3.228,3.228,0,0,0-1.187-.187,16.894,16.894,0,0,0-4.793.768l-.047.023v6.539a5.258,5.258,0,0,1-.348,2.187c-.187.419-.411.629-.675.629q-.513,0-1.513-2.048v-.093a.564.564,0,0,0,.4.256c.48,0,.722-.373.722-1.117v-3.979a37.189,37.189,0,0,1-2.816,3.327,3.946,3.946,0,0,1-2.559,1.326c-.25,0-.374-.069-.374-.209a11.969,11.969,0,0,0,2.583-2.4,26.233,26.233,0,0,0,2.91-3.862,17.854,17.854,0,0,0-3.887,2,3.291,3.291,0,0,1-1.512.838q-.582,0-.582-.675a1.665,1.665,0,0,1,.419-.745,5.845,5.845,0,0,0,1.535-3.257c0-.2.319-.319.954-.35q.7.024.746.535a5.378,5.378,0,0,1-1.187,2.118q2.025-.884,3.77-1.512v-1.187l-.256.046a11.5,11.5,0,0,1-1.607.163c-.418,0-.628-.116-.628-.348,0-.124.156-.248.466-.373q1.162-.4,2-.652a1.386,1.386,0,0,0-.3-.93.336.336,0,0,1-.209-.233,7.762,7.762,0,0,1-1.6.233q-.723-.048-.838-.4c0-.124.209-.232.628-.326A24.124,24.124,0,0,1,450.382,832.367Zm-6.539-5.468a4.2,4.2,0,0,0,.628.465,1.282,1.282,0,0,1,.7,1.094,2.479,2.479,0,0,1-.4,1.117.924.924,0,0,1,.838.744l1.118-.93v.093q-.652,1.326-1.21,2.49-.374.977-1.025.977-.534,0-.535-.861l.814-1.373a11,11,0,0,1-3.513,1.373q-.675,0-.675-.559c0-.154.186-.372.559-.651q2.49-2.535,2.49-3.677C443.634,827,443.7,826.9,443.843,826.9Zm3.187,7.447a1.284,1.284,0,0,1,.7.372,1.459,1.459,0,0,1,.326.581c.17-.046.317-.085.442-.116l1.21-1.49c0-.061-.062-.092-.186-.092Q448.078,834.066,447.03,834.346Zm2.77-8.657a1.874,1.874,0,0,1,1.023.442,1,1,0,0,1,.489.861,4.82,4.82,0,0,1-.977,1.769,8.5,8.5,0,0,1,2.071-.4c.636,0,.953.195.953.582a1.654,1.654,0,0,1-1.326,1.466q-1.395.675-3.443,1.675v-.069q1.092-.978,1.931-1.792h-1.256q-1.21,0-1.21-.931a2.414,2.414,0,0,1,.767-1.559A3.709,3.709,0,0,0,449.8,825.689Z" fill="#231f20"/><path d="M472.158,843.188a15.609,15.609,0,0,0-3.815.418,10.882,10.882,0,0,0-2.654.861,3.37,3.37,0,0,1-1.768.489,3.611,3.611,0,0,1-1.606-.3q-.744-.324-.744-.814c0-.124.07-.187.209-.187a14.924,14.924,0,0,0,3.933-.628,25.65,25.65,0,0,1,6.026-1q4.8-.394,5.818-.582a7.712,7.712,0,0,1,1.349-.116,4.482,4.482,0,0,1,2.4.675q1.326.791,1.326,1.745,0,.93-.838.931a3.744,3.744,0,0,1-1.489-.443A18.85,18.85,0,0,0,477,843.56,30.91,30.91,0,0,0,472.158,843.188Zm3.933-13.613a5.146,5.146,0,0,1,1.629.279.883.883,0,0,1,.6.861q0,.978-1.117,1.024a2.84,2.84,0,0,0-1.35.443,21.044,21.044,0,0,1-2.374,1.3.082.082,0,0,1-.092-.092,16.061,16.061,0,0,1,1.3-1.49,27.5,27.5,0,0,1-5.561,1.3,3.537,3.537,0,0,1-1.722-.419,1.508,1.508,0,0,1-.814-1.047c0-.2.069-.3.209-.3a4.146,4.146,0,0,0,1.21.209,12.736,12.736,0,0,0,4.1-1.093A10.6,10.6,0,0,1,476.091,829.575Zm-2.885,6.166q2.442.024,2.442,1.653-.047.837-1.023.837a31.548,31.548,0,0,0-3.909.233,16.013,16.013,0,0,1-1.676.163,2.653,2.653,0,0,1-1.419-.372c-.372-.14-.582-.295-.628-.466,0-.093.054-.14.162-.14a6.7,6.7,0,0,0,2.746-.93A8.75,8.75,0,0,1,473.206,835.741Z" fill="#231f20"/><path d="M496.105,827.83a2.437,2.437,0,0,1,1.652.6,1.821,1.821,0,0,1,.675,1.256c0,.621-.162.986-.489,1.094a6.854,6.854,0,0,0-1.6,1.513.5.5,0,0,1,.14.372q0,.7-1.21,1.07c-.124.031-.242.063-.349.093a1.43,1.43,0,0,1,.418.931,2.286,2.286,0,0,1,.7-.256q2.49,0,2.607,2.164a12.67,12.67,0,0,1-.3,2.559,6.327,6.327,0,0,1-.838,2.048q-.348.606-.721.606a.928.928,0,0,1-.93-.862,2.643,2.643,0,0,1,.255-.767,8.88,8.88,0,0,0,.582-3.584q-.048-.488-.745-.488a2.816,2.816,0,0,0-.582.139c.016.744.032,1.428.047,2.048q.024,1.558.047,6.585-.093,1-.932,1.094-.6-.117-.627-1.28c0-.373.007-.713.023-1.024q0-.651.023-3.816.023-1.7.046-3.072a2.146,2.146,0,0,1-.581.186c-.651,0-1.024-.154-1.117-.465.047-.124.178-.21.4-.256a6.585,6.585,0,0,0,.977-.605,2.737,2.737,0,0,0,.325-.233V834.9a1.119,1.119,0,0,0-.348-.814,5.036,5.036,0,0,1-.582.047.953.953,0,0,1-.233-.024,9.485,9.485,0,0,1-.628,1.582,17.523,17.523,0,0,1-1.093,2.072.744.744,0,0,1,.139.046,1.861,1.861,0,0,1,.861,1.234,7.879,7.879,0,0,1,.373,1.977c0,1.009-.149,1.513-.443,1.513-.218,0-.419-.171-.605-.512a10.443,10.443,0,0,1-.489-2.374,2.67,2.67,0,0,0-.4-1q-.418.651-.861,1.256a7.261,7.261,0,0,1-2.35,2.281,2.256,2.256,0,0,1-1,.349c-.124,0-.186-.039-.186-.116a21.036,21.036,0,0,0,2.513-3.072,17.072,17.072,0,0,0,1.908-4,10.205,10.205,0,0,0,.605-3.164,3.784,3.784,0,0,0-.162-1.094c0-.187.053-.279.162-.279a1.711,1.711,0,0,1,1.164.6,2.415,2.415,0,0,1,.6,1.56,7.029,7.029,0,0,0,.838-.419,2.475,2.475,0,0,1,.884-.35l1.443-2.07a.226.226,0,0,0-.255-.256,19.441,19.441,0,0,0-3.933.7,3.187,3.187,0,0,1-.559.14c-.279,0-.426-.069-.442-.209q0-.21.489-.559a6.942,6.942,0,0,1,1.862-1.186A8.169,8.169,0,0,1,496.105,827.83Zm4.677,4.258q.186,0,.628,1.326a11.037,11.037,0,0,1,.582,3.352,2.449,2.449,0,0,1-.372,1.489.8.8,0,0,1-.651.372c-.544-.047-.83-.427-.862-1.141a12.03,12.03,0,0,1,.256-2.21,21.224,21.224,0,0,0,.3-2.722C500.682,832.243,500.72,832.088,500.782,832.088Zm4.84-4.653a1.089,1.089,0,0,1,.768.3,1.81,1.81,0,0,1,.536,1.3,6.35,6.35,0,0,1-.21,1.326q-.186,1.14-.279,2.536-.187,3.864-.186,6.074,0,1.605.3,6.539-.048,1.815-.489,1.838-.58,0-1.28-.908a3.107,3.107,0,0,1-.675-1.42c0-.17.032-.255.094-.255a1.419,1.419,0,0,0,.581.186c.063,0,.094-.179.094-.535q0-9.518.046-11.821.117-2.327.116-4.049l-.162-.907Q504.878,827.458,505.622,827.435Z" fill="#231f20"/></g></svg>
