<svg xmlns="http://www.w3.org/2000/svg" width="1000" height="988" viewBox="0 0 1000 988"><g id="Artboard"><rect id="Tint" width="1000" height="988" fill="#58595b"/></g><g id="Outline"><g id="東方憑依華"><path id="東方" d="M410.571,327.039l.074.016a6.564,6.564,0,0,0,2.389.12l.192-.022c1.816-.207,4.936-1.338,5.389-6.573.8-8.184,2.465-13.047,9.287-16.9.074-.042.147-.086.218-.132a6.578,6.578,0,0,0,3.174-6.168,6.18,6.18,0,0,0-6.333-5.29h-.042c-.059,0-.117,0-.175,0-2.606.113-5.139.171-7.53.171-15.665,0-28.307-2.52-39.032-7.954a13.839,13.839,0,0,0,3.415.39,27.141,27.141,0,0,0,3.082-.2,43.423,43.423,0,0,0,4.853-.75c3.936-.709,15.468-2.855,14.376-12.442l-.02-.177c-.5-4.342-1.17-9.515-1.885-14.991-.743-5.695-1.511-11.584-2.092-16.687l-1.094-9.6c-.008-.075-.013-.134-.015-.18a11.186,11.186,0,0,1,1.579-1.22l.056-.039c3.587-2.564,3.829-5.522,3.653-7.057-.247-2.174-1.633-4.106-4.119-5.742-.067-.044-.136-.087-.206-.127-3.251-1.868-10.526-5.358-15.1-7.352l24.948-2.842a7.633,7.633,0,0,0,4.5-1.891,5.527,5.527,0,0,0,1.72-4.68,7.445,7.445,0,0,0-3.021-4.887l-.074-.058a196.827,196.827,0,0,0-19.064-12.643,7.884,7.884,0,0,0-4.165-1.394,5.3,5.3,0,0,0-.607.034,5.917,5.917,0,0,0-4.434,3.107c-1.83,2.729-4.072,6.162-6.052,9.195-.9,1.386-1.755,2.689-2.487,3.8-.077.111-.139.194-.186.254-.117.02-.3.046-.573.077l-27.2,3.1q-.039-.34-.076-.668a16.556,16.556,0,0,1,2.286-1c4.814-1.651,6.178-5.28,5.88-7.9-.31-2.723-2.6-6.065-8.019-6.522-8.6-.757-18.465-.862-27.839-.862h-.34c-.339-.025-.66-.037-.976-.037a13.593,13.593,0,0,0-1.649.108c-3.618.412-4.961,3.047-4.686,5.475a17.567,17.567,0,0,0,.695,2.907c.2.687.43,1.464.679,2.417.636,2.709,1.343,5.895,2,9.729l-35.725,4.07a114.116,114.116,0,0,1-12.306.7,50.55,50.55,0,0,1-8.319-.554,7.34,7.34,0,0,0-1.469-.15,8.878,8.878,0,0,0-1.024.066l-.194.023a4.485,4.485,0,0,0-4.177,5.049,7.42,7.42,0,0,0,.62,2.369,35.347,35.347,0,0,0,2.94,5.82,6.95,6.95,0,0,0,5.823,3.358,6.329,6.329,0,0,0,.727-.042,5.142,5.142,0,0,0,1.468-.4,3.949,3.949,0,0,0,.539-.187,38.71,38.71,0,0,1,7.492-1.891,5.424,5.424,0,0,0-.579,3.307,14.515,14.515,0,0,0,1.151,3.911c1.5,3.691,3.025,11.8,4.281,22.823.777,6.818,1.272,14.655,1.752,22.233.329,5.206.67,10.589,1.1,15.694,0,.04.007.079.012.119l.062.544c.259,2.268,1.71,7.552,9.574,7.552a26.428,26.428,0,0,0,3-.19,32.1,32.1,0,0,0,4.249-.694,51.083,51.083,0,0,0,6.31-1.657A188.449,188.449,0,0,1,266.162,336.1a6.6,6.6,0,0,0-2.51,5.91,5.816,5.816,0,0,0,5.777,5.163,5.965,5.965,0,0,0,.667-.038,5.205,5.205,0,0,0,1.47-.4,3.809,3.809,0,0,0,.5-.17c.312-.129.615-.266.926-.4a4.879,4.879,0,0,0,0,1.018,21.484,21.484,0,0,0,1.13,3.965l.124.367a61.92,61.92,0,0,1,1.489,9.043c.25,2.19.52,4.567.73,7.135l-23.9,2.723a83.124,83.124,0,0,1-8.962.511,36.508,36.508,0,0,1-5.947-.391,6.426,6.426,0,0,0-1.277-.129,7.513,7.513,0,0,0-.882.057l-.131.015a4.489,4.489,0,0,0-3.108,1.659,4.35,4.35,0,0,0-.9,3.241,6.475,6.475,0,0,0,.533,2.026,26.792,26.792,0,0,0,2.257,4.459,6.154,6.154,0,0,0,5.174,2.953,5.736,5.736,0,0,0,.654-.038,4.759,4.759,0,0,0,1.308-.34,4.069,4.069,0,0,0,.468-.167c1.821-.78,6.356-1.638,12.131-2.3l8.284-.944c.772,8.437,1.764,24.988-.442,39.69-3.517,23.123-13.606,35.657-22.012,43.991a5.455,5.455,0,0,0-1.853,4.609,5.083,5.083,0,0,0,5.185,4.487,6.17,6.17,0,0,0,.7-.04,4.739,4.739,0,0,0,1.306-.34c.125-.036.249-.078.37-.126a65.523,65.523,0,0,0,24.368-17.025c8.765-9.725,14.4-21.731,16.748-35.684.806-4.66,1.408-9.709,1.763-14.765l25.618-2.919c.14,7.043.272,21.181-.6,31.141a8.684,8.684,0,0,1-.548,2.7,13.185,13.185,0,0,1-1.937.321l-1.473.168a180.239,180.239,0,0,1-18.6,1.053c-.127,0-.253.011-.379.025l-.268.031a5.694,5.694,0,0,0-3.663,1.786,5.209,5.209,0,0,0-1.306,4.163,6.233,6.233,0,0,0,5.267,5.166c14.474,2.72,14.509,2.88,16.189,10.547a6.262,6.262,0,0,0,6.334,5.413,8.907,8.907,0,0,0,.99-.058,6.178,6.178,0,0,0,1.133-.253l.079-.024c.117-.018.232-.041.347-.069,8.48-2.089,14.946-4.518,18.935-9.583,3.713-4.715,4.83-10.961,5.5-20.156.669-8.838.666-20.195.564-31.149v-.068a6,6,0,0,1,.06-1.3,6.5,6.5,0,0,1,.771-.556c3.215-2.094,4.68-4.611,4.353-7.482-.277-2.421-2.006-4.619-4.749-6.038-3.169-1.708-9.149-4.84-13.838-6.757-.046-.019-.093-.037-.14-.054a9.543,9.543,0,0,0-3.247-.695,5.788,5.788,0,0,0-.663.038,6.014,6.014,0,0,0-3.94,2.308c-.438.551-.939,1.172-1.466,1.826-1.6,1.987-3.395,4.209-4.646,5.952l-.042,0-24.06,2.742c.082-6.519-.161-12.163-.407-16.019l61.313-6.985c4.2-.478,5.808-3.381,5.524-5.875a6.727,6.727,0,0,0-2.635-4.444l-.047-.037c-4.621-3.561-9.43-6.954-15.135-10.679l-.056-.036a6.879,6.879,0,0,0-3.713-1.241,5.219,5.219,0,0,0-.569.032,5.453,5.453,0,0,0-4.088,2.858c-2.26,3.7-4.583,7.515-6.38,10.8l-20.993,2.392q-.051-.361-.1-.708c-.155-1.1-.3-2.146-.406-3.067-.144-1.261-.243-2.442-.338-3.584-.062-.735-.121-1.442-.19-2.15l.149-.057c3.4-1.174,5.368-3.941,5.012-7.065-.275-2.4-2.238-5.349-6.871-5.739l-.071,0c-5.683-.378-10.939-.562-16.069-.562-.141,0-.288,0-.43,0a152.7,152.7,0,0,0,45.433-33.58c.426,5.428.827,10.911,1.2,15.969.374,5.1.727,9.924,1.057,14.062,0,.045.008.09.014.134l.165,1.45c.761,6.692,4.619,10.085,11.465,10.085a27.133,27.133,0,0,0,3.051-.186,14.841,14.841,0,0,0,1.534-.281c.367-.081.714-.158.983-.189.091-.01.182-.024.272-.04,8.295-1.53,17.7-3.263,16.476-13.972l-.063-.548c-1.177-10.335-2.735-21.5-4.242-32.306-.562-4.035-1.134-8.133-1.692-12.228C371.274,310.233,387.908,321.768,410.571,327.039Zm-38.35-49a7.838,7.838,0,0,0,2.028,4.106,63.19,63.19,0,0,1-5.494-3.711Zm-1.193-12.873-15.9,1.812-1.469-12.893,16.136-1.838C370.25,256.554,370.661,261,371.028,265.162ZM368.353,239.4l-16.132,1.838c-.175-1.694-.334-3.323-.49-4.922-.145-1.483-.293-2.993-.452-4.543l15.952-1.817c.307,2.29.587,4.747.893,7.438Zm-1.359-23.314-.641.747a1.736,1.736,0,0,1-.914.319l-15.489,1.765c-.217-2.295-.455-4.538-.7-6.74l23.484-2.675C370.786,211.657,368.786,213.992,366.994,216.084Zm-45.4,28.642-14.616,1.665q-.233-2.463-.444-4.6c-.17-1.733-.327-3.339-.468-4.87l14.371-1.638C320.849,238.372,321.211,241.4,321.594,244.726Zm-3.7-28.978c.319,2.123.642,4.38.945,6.711l-15.058,1.715c-2.747-.642-12.977-3.014-20.366-4.5Zm6.535,54.723-14.517,1.654c-.541-4.118-1.067-8.587-1.56-12.882l14.7-1.675C323.542,261.848,324.018,266.184,324.432,270.471Z" fill="#fff"/><path id="憑" d="M597.942,591.367c9.159-1.044,18.089-9.217,16.6-22.311a28.634,28.634,0,0,0-2.515-9.141c-5.626-12.762-22.251-17.554-37.63-20.3,17.181-5.348,20.766-12.611,21.98-28.183l0-.058c.476-7.536.232-16.68.085-22.143v-.05c-.154-3.888.423-4.338,2.333-5.827.39-.3.791-.618,1.2-.962,4.9-3.867,5.607-7.51,5.337-9.888-.454-3.977-3.455-6.372-5.673-7.828-.063-.042-.128-.082-.193-.12-5.986-3.46-10.889-5.905-16.565-8.735l-2.223-1.109a8.264,8.264,0,0,0,3.86-1.781,5.92,5.92,0,0,0,2.09-5.2A8.716,8.716,0,0,0,583,441.977c-.064-.051-.129-.1-.2-.146-4.587-3.212-9.358-6.3-13.97-9.043l7.359-.839a8.259,8.259,0,0,0,4.814-2.037,6.227,6.227,0,0,0,1.959-5.321,8.282,8.282,0,0,0-3.881-5.717c-3.613-2.481-7.714-5.078-11.711-7.437l17.778-2.026a8.259,8.259,0,0,0,4.814-2.037,6.227,6.227,0,0,0,1.96-5.322,8.288,8.288,0,0,0-3.9-5.725,201.742,201.742,0,0,0-19.87-11.32c-1.179-.61-2.249-1.164-3.172-1.652-.069-.037-.14-.071-.212-.1l-.351-.161a9.426,9.426,0,0,0-4.03-1.158,5.762,5.762,0,0,0-.657.038,7.318,7.318,0,0,0-4.719,2.894c-2.09,2.287-4.564,5.358-6.751,8.073-1.461,1.814-2.842,3.528-3.805,4.628l-.128.143a18.321,18.321,0,0,1-1.44,1.516,4.291,4.291,0,0,1-.646.107L479.7,406.457c-4.2-.94-27.281-6.117-33.412-7.707-.058-.015-.117-.029-.176-.042-.444-.094-.843-.193-1.2-.282a11.42,11.42,0,0,0-2.8-.454,6.058,6.058,0,0,0-.679.038c-3.284.374-5.228,2.933-4.838,6.369a18.915,18.915,0,0,0,1.5,5.034c.016.039.033.078.05.117,1.235,2.74,2.938,8.409,4.712,20.126a6.035,6.035,0,0,0-5.217-2.011,6.094,6.094,0,0,0-5.168,4.053q-1.284,3.317-2.574,6.49a17.741,17.741,0,0,0-.021-3.839,16.534,16.534,0,0,0-1.544-5.145c-5.44-12.532-18.963-19.431-38.087-19.431h0a87.969,87.969,0,0,0-9.907.577l-.253.029a6.056,6.056,0,0,0-5.6,6.454,6.545,6.545,0,0,0,3.641,4.986l.1.051c9.309,4.458,12.441,11.882,15.47,19.06,1.638,3.883,3.185,7.549,5.651,10.425a14.282,14.282,0,0,0,10.937,5.038,14.987,14.987,0,0,0,1.668-.094,21.158,21.158,0,0,0,13.587-7.852,334.411,334.411,0,0,1-20.422,38.774l-.03.05c-.355.606-.757,1.293-3.512,1.607a22.106,22.106,0,0,1-2.419.112c-2.985,0-7.16-.358-12.732-.864-.121-.011-.241-.016-.362-.016a4.014,4.014,0,0,0-.452.025l-1.013.116a7,7,0,0,0-4.2,1.826,5.556,5.556,0,0,0-1.648,4.659c.272,2.389,2.128,5.146,6.522,5.724,10.816,1.535,13.533,6.17,14.272,12.656a64.1,64.1,0,0,1-.2,11.454,66.569,66.569,0,0,0-.184,12.156c1.082,9.493,7.078,14.79,17.82,15.746,1.11.094,2.051.139,2.9.139a17.7,17.7,0,0,0,2.017-.1,20.317,20.317,0,0,0,3.625-.747,11.07,11.07,0,0,0-1.894,4.077c-3.266,13.127-7.227,14.859-14.419,18a76.581,76.581,0,0,0-8.325,4.089c-7.426,4.235-11.349,11.428-10.461,19.222a19.248,19.248,0,0,0,18.852,17.377,19.906,19.906,0,0,0,2.253-.129,21.111,21.111,0,0,0,7.233-2.071c15.658-7.129,21.925-22.412,19.156-46.716l-.259-2.277a75.4,75.4,0,0,0-1.153-7.7c-1.188-5.206-4.053-6.272-5.669-6.443a18.911,18.911,0,0,0,4.79-4.817,20.068,20.068,0,0,0,1.143-1.872,16.477,16.477,0,0,0,7.249,5.026,4.787,4.787,0,0,0-3.071,5.18,11.393,11.393,0,0,0,.745,2.653,20.86,20.86,0,0,1,.958,3.156c.01.049.021.1.034.148a123.049,123.049,0,0,1,3.276,17.811c.17,1.494.31,3.142.473,5.05.212,2.489.452,5.309.831,8.634l.345,3.035.006.05c2.831,22.335,12.7,24.779,32.982,24.779.774,0,1.57,0,2.384-.009,8.288-.113,18.532-.806,28.134-1.9,18.373-2.094,34.785-5.6,45.026-9.621,13.864-5.355,17.916-15.127,17.078-22.485a17.723,17.723,0,0,0-9.485-13.542c-1.3-.669-2.388-1.165-3.261-1.564-2.022-.925-2.141-1.037-2.276-1.319-.546-1.138-1.05-4.248-1.813-8.957-.343-2.122-.771-4.762-1.306-7.875-.008-.045-.016-.09-.025-.135-1.345-6.479-5.327-6.982-6.516-6.982a5.343,5.343,0,0,0-.593.033c-3.2.365-5.5,3.392-5.878,7.715-1.184,11.919-2.166,19.006-3.958,22.31-1.191,2.2-2.75,2.831-8.38,4.376a169.01,169.01,0,0,1-21.5,3.682c-7.829.892-15.5,1.254-20.1,1.3l-.63-.021a21.751,21.751,0,0,1-2.986-.213,7.983,7.983,0,0,1-.545-1.827c-.531-2.568-.842-5.3-1.142-7.939s-.643-5.633-.7-8.267c0-.14,0-.257,0-.355.345-.178.836-.407,1.259-.6l.242-.112.077-.037c6.662-3.272,6.94-7.5,6.75-9.172a6.469,6.469,0,0,0-2.182-4.05c4.158,3.56,5.793,6.915,7.615,10.651a37.631,37.631,0,0,0,6.668,10.319l.062.064a16.215,16.215,0,0,0,13.735,5.1,17.771,17.771,0,0,0,15.34-19.863,19.949,19.949,0,0,0-2.492-7.926c-5.2-9.735-17.526-12.549-31.985-13.5a17.04,17.04,0,0,0,6.222-15.2c0-.036-.006-.073-.01-.109l-.144-1.264c0-.04-.01-.08-.016-.121-1.24-8.575-8.577-17.089-19.08-22.435a12.127,12.127,0,0,0,3.814-5.747l5.842-.666a5.536,5.536,0,0,0-.746,3.488,6.614,6.614,0,0,0,2.21,3.937c5.932,5.86,6.72,9.852,7.716,14.9.272,1.377.553,2.8.949,4.319,1.591,6.26,6.312,10.164,12.313,10.164a13.571,13.571,0,0,0,1.53-.088,16.854,16.854,0,0,0,10.54-5.7q.5-.564.932-1.156A9.743,9.743,0,0,0,534.1,522.3c14.5,3.476,15.082,5.615,17.266,13.576l.278,1.008a8.725,8.725,0,0,0,3,4.864,5.168,5.168,0,0,0-.2,2.133,8.1,8.1,0,0,0,3.318,5.284c13.189,10.272,15.628,14.565,20.343,28.476,3.338,10.191,11.4,13.836,17.829,13.836A17.841,17.841,0,0,0,597.942,591.367ZM507.82,488.155l11.555-1.317a6.333,6.333,0,0,0,2.877,3.463c5.494,3.574,7.02,7.056,8.784,11.083a44.185,44.185,0,0,0,2.623,5.3,15.213,15.213,0,0,0,2.6,3.2c-.437-.01-.863-.024-1.283-.043-.057,0-.115,0-.173,0a3.962,3.962,0,0,0-.449.025l-.759.086a8.272,8.272,0,0,0-1.169.218,15.345,15.345,0,0,0-.1-1.682,11.2,11.2,0,0,0-.726-3.182C528.129,494.139,518.03,489.95,507.82,488.155Zm29.2-28.432,29.262-3.334c-1.107,1.532-2.423,3.156-3.7,4.735a67.308,67.308,0,0,0-5.148,6.9c-.426.073-1.09.149-1.7.218l-17.4,1.981C537.851,466.732,537.418,463.152,537.02,459.723Zm4.5-16.5c-.016.026-.032.052-.047.079-.6,1.018-.64,1.023-1.77,1.152l-4.371.5-.938-8.236,12.357-1.407C544.849,438.079,543,440.825,541.522,443.219Zm-2.56-23.109c-.025.038-.049.076-.073.115a5.19,5.19,0,0,1-.748,1.038,6.065,6.065,0,0,1-1.058.175l-4.32.492q-.123-1.352-.244-2.756c-.106-1.223-.215-2.466-.334-3.728L543.1,414.2C541.557,416.329,540.088,418.4,538.962,420.11Zm16.677,87.912a14.706,14.706,0,0,0,2.508-4.421l-.012.158c-.364,5.234-1,5.306-3.353,5.575-.11.013-.243.019-.385.023A14.83,14.83,0,0,0,555.639,508.022Zm.962-18.057c-.016-.032-.033-.064-.05-.1a16.46,16.46,0,0,0-6.528-6.522l8.607-.981c.066,3.487.053,8.058-.067,12.508A23.59,23.59,0,0,0,556.6,489.965ZM501.316,474.44,487.5,476.014c-.235-1.663-.472-3.429-.716-5.251-.232-1.732-.469-3.5-.713-5.235l14.284-1.627c.145,1.667.306,3.395.473,5.175S501.162,472.659,501.316,474.44ZM483.06,442.56l14.812-1.687.938,8.236L484,450.8ZM480.821,421.3l14.276-1.626c.313,2.192.582,4.341.832,6.455l-14.52,1.654c-.206-2.093-.372-4-.515-5.653C480.869,421.845,480.845,421.569,480.821,421.3ZM481.19,548c-8.926-.5-16.94-.818-24.252-.967a24.169,24.169,0,0,0,4.271-2.237c7.574-4.8,10.755-13.009,9.456-24.413a74.276,74.276,0,0,0-4.65-18.112l.1-.019c.771-.151,1.5-.294,2.261-.38.057-.007.113-.014.17-.023,1.279-.2,2.564-.428,3.831-.695a6.235,6.235,0,0,0,.479,1,15.4,15.4,0,0,1,1.292,4.771,40.685,40.685,0,0,1-.67,10.321c-.338,2.3-.688,4.671-.829,7.11a11.251,11.251,0,0,0,.01,3.224,12.653,12.653,0,0,0,6.806,9.934A4.983,4.983,0,0,0,478.54,541c.308,2.711,3.179,4.868,4.4,5.669q.055.038.114.072a40.771,40.771,0,0,1,4.856,3.422A11.314,11.314,0,0,0,481.19,548ZM443.91,437.381q.272,2.16.541,4.528c1.023,8.976,1.6,18.969,2.165,28.632.381,6.544.774,13.311,1.3,19.772l.012.127.173,1.517c.58,5.094,2.728,8.426,6.405,9.961L454.5,502c-1.428,7.886-3.858,9.583-9.143,13.273-1.569,1.1-3.346,2.337-5.314,3.894a20.566,20.566,0,0,0-2.254,2.036,31.931,31.931,0,0,0-2.216-5.2c-1.885-3.695-2.734-6.138-3.026-8.7-.45-3.945.207-8.165,1.664-15.057C437.525,476.1,440.785,457.664,443.91,437.381Z" fill="#fff"/><path id="依" d="M620.678,608.194a5.448,5.448,0,0,0,.623-.036,6.618,6.618,0,0,0,4.065-2.03,63.862,63.862,0,0,0,4.731-5.359c1.254,11.227,2.409,24.318,3.343,34.915.5,5.671.932,10.568,1.276,14l.006.057.093.809c.239,2.1.968,8.5,9.776,8.5.721,0,1.514-.04,2.358-.117l.086-.009,1.079-.123.258-.029.258-.029c.086-.01.172-.022.257-.036,4.341-.756,12.422-2.162,11.377-11.327l-.045-.4c-.524-4.6-1.146-9.313-1.805-14.274.035.107.076.214.12.318,2.921,6.816,7.914,16.408,10.08,19.365a7.159,7.159,0,0,0,5.7,3.257,5.518,5.518,0,0,0,.63-.036,5.825,5.825,0,0,0,4.414-3,8.278,8.278,0,0,0,.878-5.047l-.033-.293c10.214-7.541,21.427-19.356,27.922-26.581,6.679,12.465,14.768,21.395,24.455,27.173a5.09,5.09,0,0,0,2.77.831,4.767,4.767,0,0,0,.56-.032,5.986,5.986,0,0,0,5.2-5.743q.006-.063.009-.126c.419-8.078,2.672-13.028,4.589-14.208l.087-.055c2.286-1.489,3.456-3.582,3.21-5.742a6.008,6.008,0,0,0-4.446-4.943c-10.913-3.624-19.908-10.808-27.407-21.907,4.681-3.483,10.007-7.786,13.391-11.6a2.777,2.777,0,0,1,.4-.357c.082,0,.168.008.259.009.226.019.456.029.694.029a13.31,13.31,0,0,0,1.548-.109c4.4-.5,6.063-3.7,5.748-6.459-.292-2.58-2.388-4.5-3.275-5.205-.091-.072-.184-.14-.28-.2-3.6-2.388-10.971-7.006-16.1-9.82a6.269,6.269,0,0,0-3.181-.913,5.6,5.6,0,0,0-.645.037,5.1,5.1,0,0,0-4.476,4.973q-.006.066-.009.132a74.725,74.725,0,0,1-2.6,13.374,148.809,148.809,0,0,1-6.51-18.988l31.3-3.566a7.026,7.026,0,0,0,3.62-1.375,5.008,5.008,0,0,0,1.921-4.514,6.756,6.756,0,0,0-2.645-4.458l-.047-.037-1.839-1.42c-4.258-3.293-7.936-6.137-12.581-9.169l-.056-.036a6.909,6.909,0,0,0-3.727-1.246,4.909,4.909,0,0,0-.565.032,5.465,5.465,0,0,0-4.1,2.866c-2.156,3.538-3.943,6.865-5.52,9.8l-.416.772-5.867.669c-.132-.927-.262-1.865-.365-2.765-.168-1.479-.293-2.911-.414-4.3-.066-.761-.13-1.5-.2-2.185l.177-.067c3.412-1.179,5.385-3.953,5.03-7.086-.281-2.464-2.236-5.233-6.882-5.625l-.071-.006c-5.341-.355-9.967-.513-15-.513-1.28,0-2.6.011-3.964.032-.131,0-.263.011-.393.026a4.425,4.425,0,0,1-.519.024H678.6a7.5,7.5,0,0,0-.86.043A4.9,4.9,0,0,0,674.859,528a4.6,4.6,0,0,0-1.371,3.926,21.626,21.626,0,0,0,1.144,4.006l.111.33a81.684,81.684,0,0,1,2.073,11.68c.143,1.26.262,2.613.365,3.992l-11.043,1.259a83.819,83.819,0,0,1-9.041.515c-1.675,0-3.168-.063-4.411-.184.51-1.966.932-3.843,1.256-5.6a2.836,2.836,0,0,1,.136-.492,12.431,12.431,0,0,1,1.779-.475c.055-.012.109-.025.163-.039,4.243-1.107,5.837-4.282,5.534-6.938-.34-3-2.873-5.329-6.3-5.783-7.43-1.018-14.751-1.8-21.159-2.267a8.191,8.191,0,0,0-.962-.056,10.478,10.478,0,0,0-1.251.084,5.08,5.08,0,0,0-3.039,1.38,4.584,4.584,0,0,0-1.343,3.826,7.332,7.332,0,0,0,.579,1.984l.08.194.023.207c.632,5.547-3.609,43.468-11.7,60.28a6.535,6.535,0,0,0-.8,3.85A5,5,0,0,0,620.678,608.194Zm27.852-41.747.165-.44a6.272,6.272,0,0,0,.739.593C649.153,566.553,648.848,566.5,648.53,566.447Zm4.345,12.348a6.554,6.554,0,0,0,3.883-6.573,5.9,5.9,0,0,0-3.344-4.611l.019,0a4.782,4.782,0,0,0,1.316-.342,3.971,3.971,0,0,0,.469-.168c1.674-.717,5.615-1.5,10.7-2.134-1.436,11.745-5.061,23.837-11.177,37.252-.364-3.32-.71-6.519-1.038-9.54-.569-5.256-1.063-9.81-1.488-13.552C652.385,579.037,652.6,578.928,652.875,578.795Zm49.494,31.8c-3.142,1.687-6.632,3.363-10.155,4.884-.726-5.835-1.464-12.316-2.184-18.634-.666-5.847-1.354-11.883-1.895-17.633a96.957,96.957,0,0,0,3.539-9.257c3.067,15.739,6.873,29.093,11.509,40.251A5.147,5.147,0,0,0,702.369,610.6Zm-44.456,18.337c-.435-3.286-.871-6.621-1.275-9.939a8.383,8.383,0,0,0,1.127-.673c.073-.05.148-.1.228-.154a3.775,3.775,0,0,0,.327-.237,98.735,98.735,0,0,0,8.635-7.841c.492,4.315,1.02,9.016,1.5,13.866-2.242.565-3.982.939-5.525,1.194-.1.016-.195.036-.291.059-.134.033-.262.048-.377.065C659.21,625.737,658.217,627.548,657.913,628.935Z" fill="#fff"/><path id="華" d="M764.6,781.861a7.376,7.376,0,0,0-2.992-4.849l-.072-.057a197.526,197.526,0,0,0-17.275-10.945l5.059-.577a7.05,7.05,0,0,0,3.8-1.463A5.163,5.163,0,0,0,755,759.317a7.373,7.373,0,0,0-2-4.17c-3.4-3.66-11.982-9.986-14.719-11.912-.09-.063-.183-.123-.278-.178a7.239,7.239,0,0,0-3.764-1.246,5.226,5.226,0,0,0-.6.035,5.81,5.81,0,0,0-4,2.537c-.074.094-.145.192-.211.292-.867,1.319-1.768,2.811-2.656,4.333-.354-2.948-.692-5.913-1.025-8.832l-.009-.082-.46-4.042,25.774-2.936a7.247,7.247,0,0,0,3.96-1.627,5.333,5.333,0,0,0,1.873-4.687,6.767,6.767,0,0,0-2.581-4.36c-4.012-3.193-13.1-9.3-16.679-11.441a7.106,7.106,0,0,0-3.659-1.093,6.49,6.49,0,0,0-.708.04,5.627,5.627,0,0,0-4.394,2.914c-1.423,2.475-3.193,5.477-4.756,8.129l-.529.9q-.334-3.327-.667-6.524c-.3-2.917-.59-5.727-.846-8.359l13.567-1.545c4.688-.536,6.483-3.763,6.167-6.535a7.364,7.364,0,0,0-3-4.853c-.1-.083-.214-.161-.326-.233-4.618-2.961-10.7-6.694-14.892-9.022l21.507-2.45a7.56,7.56,0,0,0,4.457-1.876,5.5,5.5,0,0,0,1.712-4.658,7.383,7.383,0,0,0-2.993-4.85c-.048-.038-.1-.076-.148-.113A178.623,178.623,0,0,0,730.854,659.9l-.135-.079a7.859,7.859,0,0,0-4.171-1.406,5.357,5.357,0,0,0-.61.035,5.85,5.85,0,0,0-4.369,3.03c-1.253,1.754-2.554,3.531-3.813,5.25-1.552,2.119-3.018,4.121-4.376,6.05-.088.127-.157.221-.209.288-.113.018-.281.042-.531.071l-9.288,1.058c0-.114-.006-.227-.008-.34.112-.052.226-.1.328-.149l.532-.244.079-.038c5.37-2.637,5.556-6.358,5.387-7.836-.288-2.543-2.465-5.589-7.647-5.806-7.164-.4-16.132-.432-23.977-.432h-.989a4.015,4.015,0,0,0-.452.026l-.89.1a5.168,5.168,0,0,0-3.579,1.793,4.589,4.589,0,0,0-.929,3.474,9.058,9.058,0,0,0,.59,2.14,13.471,13.471,0,0,1,.627,2.052l.024.11c.767,3.238,1.325,5.944,1.739,8.471L656.5,679.536c0-.113-.006-.227-.008-.339l.328-.15q.257-.115.532-.243l.078-.038c5.37-2.636,5.557-6.358,5.388-7.836-.289-2.543-2.466-5.589-7.647-5.806-7.165-.4-16.127-.432-23.966-.432h-1a4.015,4.015,0,0,0-.452.026l-.891.1a5.166,5.166,0,0,0-3.578,1.793,4.589,4.589,0,0,0-.93,3.474,9.033,9.033,0,0,0,.589,2.137,13.491,13.491,0,0,1,.626,2.053c.009.045.019.089.03.133.632,2.6,1.153,5.356,1.6,8.464l-13.071,1.49a112.029,112.029,0,0,1-12.086.688,49.8,49.8,0,0,1-8.168-.543,7.275,7.275,0,0,0-1.455-.149,8.587,8.587,0,0,0-1.008.066l-.2.022a4.476,4.476,0,0,0-4.168,5.036,7.384,7.384,0,0,0,.618,2.354,34.825,34.825,0,0,0,2.892,5.728,6.9,6.9,0,0,0,5.782,3.331,6.4,6.4,0,0,0,.719-.041,5.157,5.157,0,0,0,1.455-.39,4.022,4.022,0,0,0,.541-.187c2.57-1.1,8.594-2.253,16.529-3.157l12.962-1.477c.083,1.57.17,3.193.37,4.955l.081.712a10.083,10.083,0,0,0,.94,3.265l-5.138.585a112.028,112.028,0,0,1-12.1.689,49.672,49.672,0,0,1-8.156-.542,7.233,7.233,0,0,0-1.458-.15,8.615,8.615,0,0,0-1.011.066l-.192.022a4.674,4.674,0,0,0-3.243,1.714,4.486,4.486,0,0,0-.924,3.334,7.432,7.432,0,0,0,.614,2.339,35,35,0,0,0,2.894,5.73,6.9,6.9,0,0,0,5.783,3.333,6.4,6.4,0,0,0,.719-.041,5.18,5.18,0,0,0,1.46-.392,3.931,3.931,0,0,0,.459-.155,54.151,54.151,0,0,1,10.429-2.41c.522,3.927,1.01,8.216,1.519,12.689l.44,3.864-4.4.5a111.775,111.775,0,0,1-12.086.689,49.79,49.79,0,0,1-8.166-.543,7.233,7.233,0,0,0-1.458-.15,8.615,8.615,0,0,0-1.011.066l-.192.022a4.478,4.478,0,0,0-4.169,5.036,7.43,7.43,0,0,0,.615,2.352,30.675,30.675,0,0,0,2.857,5.376,6.892,6.892,0,0,0,5.778,3.329,6.246,6.246,0,0,0,.723-.041,5.158,5.158,0,0,0,1.454-.39,4.009,4.009,0,0,0,.54-.187c2.573-1.1,8.6-2.254,16.527-3.157l4.4-.5c.739,6.5,1.47,13.06,2.075,19.148-2.345.13-4.667.2-6.787.2a53.985,53.985,0,0,1-8.152-.5,7.245,7.245,0,0,0-1.423-.143,8.615,8.615,0,0,0-1.011.066l-.194.022a4.477,4.477,0,0,0-4.169,5.036,7.4,7.4,0,0,0,.617,2.352,30.646,30.646,0,0,0,2.855,5.377,6.9,6.9,0,0,0,5.78,3.328,6.4,6.4,0,0,0,.719-.041,5.221,5.221,0,0,0,1.452-.388,4.072,4.072,0,0,0,.544-.189c2.572-1.1,8.6-2.254,16.528-3.158l30.491-3.473c.173,1.832.355,3.658.534,5.448.18,1.807.363,3.649.539,5.506l-41.007,4.671a111.822,111.822,0,0,1-12.087.689,49.738,49.738,0,0,1-8.164-.543,7.262,7.262,0,0,0-1.461-.15,8.717,8.717,0,0,0-1.023.067l-.178.021a4.675,4.675,0,0,0-3.242,1.713,4.484,4.484,0,0,0-.924,3.334,7.339,7.339,0,0,0,.613,2.34,34.274,34.274,0,0,0,2.9,5.735,6.9,6.9,0,0,0,5.779,3.328,6.4,6.4,0,0,0,.719-.041,5.2,5.2,0,0,0,1.456-.39,4.14,4.14,0,0,0,.539-.187c2.573-1.1,8.6-2.253,16.529-3.158l40.787-4.646c.121,1.605.234,3.213.344,4.791.3,4.333.615,8.813,1.1,13.033l.081.712c.71,6.224,4.185,9.379,10.33,9.379a25.12,25.12,0,0,0,2.863-.178,38.789,38.789,0,0,0,4.459-.707c6.709-1.336,15.024-3.021,13.806-13.7l-.06-.531c-.379-3.326-.863-6.768-1.33-10.1-.287-2.042-.58-4.126-.852-6.2l62.614-7.134C763.122,787.86,764.917,784.633,764.6,781.861ZM657.833,731.174l-6.937.79q-.42-4.253-.843-8.292c-.3-2.919-.59-5.731-.846-8.366l6.49-.739C656.456,720.033,657.171,725.593,657.833,731.174Zm3.622,31.708-6.748.769c-.657-4.983-1.246-10.148-1.819-15.177l-.009-.079-.461-4.041,6.837-.779Zm43.988-72.626-.06-.532c-.107-.938-.241-1.87-.39-2.789l6.462-.736c-2.052,2.624-4.707,6.143-6.705,8.963A8.931,8.931,0,0,0,705.443,690.256ZM658.7,696.485l-.06-.532c-.142-1.243-.32-2.481-.514-3.677l17.246-1.966c.062,1.3.136,2.64.3,4.061l.081.712a9.544,9.544,0,0,0,1.441,4.111l-19.216,2.189A8.732,8.732,0,0,0,658.7,696.485Zm37.613,42.868c.746,6.566,1.484,13.183,2.092,19.319l-7.086.807-2.2-19.307Zm-3.381-29.028c.525,3.948,1.016,8.262,1.528,12.762l.441,3.864-7.185.818c-.61-5.586-1.163-11.163-1.653-16.661Zm34.408,65.555-2.2,3.093-.034.048c-.077.112-.139.2-.187.259-.113.018-.282.042-.532.071L694.132,782.8c-.234-1.9-.475-3.778-.712-5.62-.223-1.743-.451-3.52-.671-5.3l40.78-4.646C731.959,769.379,729.611,772.68,727.335,775.88Z" fill="#fff"/></g></g><g id="Text"><g id="東方憑依華-2" data-name="東方憑依華"><path d="M412.585,323.2a2.7,2.7,0,0,1-1.107-.058c-22.253-5.176-41.6-17.107-57.137-47.1l-2.175.248c2.411,19.553,5.691,40.29,7.818,58.957l.063.544c.7,6.162-2.8,7.662-13.228,9.585-.906.1-1.791.387-2.516.47-7.612.867-9.574-1.847-10.089-6.377l-.165-1.45c-.857-10.734-1.866-26.041-3.031-39.492-17.566,21.46-38.577,35.237-60.488,44.342-.362.041-.523.243-.885.285a1.829,1.829,0,0,1-2.019-1.606,2.581,2.581,0,0,1,1.02-2.319c20.34-16.454,38.746-40.213,47.274-58.809l-8.7.991.35,3.081c.558,4.893-4.212,6.538-11.559,8.109a28.259,28.259,0,0,1-3.785.615c-4.532.516-7.715-.039-8.149-3.845l-.062-.543c-1.063-12.546-1.544-26.444-2.866-38.043-1.218-10.692-2.773-19.511-4.558-23.9a11.159,11.159,0,0,1-.874-2.838c-.1-.906.218-1.31.942-1.392a8.053,8.053,0,0,1,1.854.155c7.678,1.329,25.033,5.41,25.033,5.41l19.754-2.25c-.6-5.256-1.358-10.31-2.035-14.639L281.215,215.9c-7.068.8-14.457,2.015-17.958,3.515-.362.041-.523.243-.885.284a2.939,2.939,0,0,1-2.744-1.523,31.369,31.369,0,0,1-2.613-5.21,3.535,3.535,0,0,1-.326-1.247c-.041-.363.12-.565.663-.627l.181-.021a3.579,3.579,0,0,1,1.29.037c5.622,1.012,15.129.663,21.834-.1l39.871-4.543c-.9-6.322-2-11.153-2.718-14.193-.652-2.5-1.179-3.9-1.283-4.811-.082-.724.259-.947,1.165-1.05a8.953,8.953,0,0,1,2.015-.046c8.077,0,18.914.048,28,.848,2.78.234,4.215,1.54,4.38,2.989.144,1.269-.777,2.842-3.253,3.675-4.227,1.583-5.21,2.613-4.921,5.151a42.735,42.735,0,0,1,.356,4.732l31.352-3.572a4.008,4.008,0,0,0,3.62-2.064c2.348-3.572,5.938-9.122,8.606-13.1q.692-1.18,1.506-1.274a4.014,4.014,0,0,1,2.3.84A193.242,193.242,0,0,1,410.32,196.97a3.812,3.812,0,0,1,1.537,2.211c.1.906-.518,1.895-2.693,2.142l-64.337,7.33c.537,4.713,1.094,9.606,1.491,14.7l19.574-2.23a5.565,5.565,0,0,0,3.319-1.48c2.268-2.644,4.858-5.694,7.309-8.359a2.34,2.34,0,0,1,1.729-.932,4.417,4.417,0,0,1,2.439.457c3.65,1.42,13.351,6,17.084,8.15,1.19.783,2.22,1.767,2.344,2.854s-.476,2.257-2,3.35c-2.553,1.759-3.537,2.789-3.268,5.146l1.094,9.6c1.135,9.967,2.963,22.793,3.976,31.673l.021.182c.6,5.255-5.622,7.065-11.2,8.068a39.638,39.638,0,0,1-4.509.7c-4.169.475-7.695.143-8.108-3.482l-.042-.363a17.9,17.9,0,0,1-.17-3.1l-16.673,1.9c17.977,17.6,39.562,21.744,65.684,20.605a2.182,2.182,0,0,1,2.4,1.745,2.676,2.676,0,0,1-1.383,2.361c-8.97,5.061-10.541,12.216-11.305,20.013-.156,1.854-.6,2.822-1.865,2.967ZM301.75,233.389c.376,4.913.975,10.169,1.619,17.439l22.654-2.581c-.744-6.524-1.322-11.6-2.164-17.377Zm2.177,22.333c.784,6.886,1.651,14.5,2.555,20.82L328.773,274c-.6-6.907-1.428-14.156-2.192-20.861ZM372.1,236.939c-.5-4.349-.909-7.974-1.482-11.4l-23.741,2.705c.682,5.981,1.078,11.076,1.8,17.419l24.1-2.746ZM349.234,250.56l2.375,20.841,23.742-2.7c-.563-6.545-1.229-14-2.013-20.883Z" fill="#000000"/><path d="M311.284,441.052c3.744-.426,5.452-.891,6.016-6.646,1.24-14.1.509-35.961.509-35.961l-33.3,3.794a147.484,147.484,0,0,1-1.913,17.7c-4.927,29.284-24.257,43.951-38.645,49.655-.268.03-.386.179-.654.21-.8.091-1.383-.249-1.46-.918a1.632,1.632,0,0,1,.666-1.295c8.035-7.961,19.384-21.312,23.18-46.267,2.234-14.886,1.425-32.678.054-44.715l-12.3,1.4c-5.216.6-10.669,1.487-13.253,2.594-.267.03-.385.18-.653.21a2.168,2.168,0,0,1-2.024-1.124,23.115,23.115,0,0,1-1.929-3.845,2.6,2.6,0,0,1-.24-.921c-.032-.267.087-.417.489-.462l.133-.015a2.62,2.62,0,0,1,.952.027c4.149.746,11.165.489,16.114-.075L280.7,371.24c-.2-4.177-.632-7.921-1-11.132a59.226,59.226,0,0,0-1.664-9.836,27.879,27.879,0,0,1-1.08-3.535c-.06-.535.192-.7.727-.76.4-.046.951.027,1.754-.064,6.9-.109,13.156.127,19.163.526,2.052.173,3.11,1.136,3.232,2.206s-.559,2.231-2.385,2.846c-2.079.779-3.1,1.3-2.891,3.174.244,2.14.354,4.295.644,6.836.244,2.141.667,4.666,1.017,7.743l25.011-2.85a3.269,3.269,0,0,0,2.672-1.523c1.789-3.321,4.186-7.251,6.584-11.183q.51-.871,1.112-.939a2.955,2.955,0,0,1,1.7.619c5.123,3.345,9.979,6.721,14.88,10.5a2.776,2.776,0,0,1,1.15,1.766c.076.669-.532,1.28-2,1.448l-65.136,7.42a205.259,205.259,0,0,1,.572,24.052l28.622-3.261c1.2-.138,1.873-.214,2.449-1.093,1.511-2.2,4.489-5.794,6.386-8.178a2.142,2.142,0,0,1,1.261-.821,5.027,5.027,0,0,1,2.082.44c4.405,1.8,10.167,4.8,13.486,6.592,1.3.665,2.5,1.748,2.641,2.951s-.544,2.365-2.562,3.679-2.729,2.208-2.647,5.314c.085,9.068.15,21.525-.553,30.819-1.274,17.351-4.012,21.863-21.408,26.148-.4.046-.787.225-1.055.255-2.006.229-2.663-.78-2.964-2.236-2.258-10.31-4.624-10.854-19.437-13.637a2.243,2.243,0,0,1-1.952-1.674c-.092-.8.383-1.4,1.452-1.521l.268-.031a185.371,185.371,0,0,0,18.98-1.078Z" fill="#000000"/><path d="M380.782,414.325c16.437-1.873,36.933.4,43.892,16.516a12.663,12.663,0,0,1,1.22,3.96c1.008,8.851-7.065,16.688-14.4,17.523a10.31,10.31,0,0,1-9.117-3.573c-6.2-7.233-6.444-22.833-22.429-30.489a2.6,2.6,0,0,1-1.5-1.879,2.064,2.064,0,0,1,2.075-2.029Zm59.612,19.592c-3.809,25.026-7.3,43.868-10.1,57.507-1.5,7.088-2.244,11.783-1.724,16.336a28.708,28.708,0,0,0,3.457,10.107,29.53,29.53,0,0,1,3.262,10.645c1.21,10.621-4.5,18.956-13.858,20.021a22.084,22.084,0,0,1-4.1-.045c-10.093-.9-13.48-5.892-14.2-12.215-.806-7.08,1.249-16.023.385-23.61-.893-7.839-4.706-14.321-17.724-16.169-2.081-.273-2.955-1.2-3.07-2.21s.557-1.858,2.326-2.059l1.013-.115c7.506.681,12.679,1.117,15.966.742s5.225-1.363,6.511-3.56a334.416,334.416,0,0,0,27.67-56.178,2.1,2.1,0,0,1,1.878-1.495,2.007,2.007,0,0,1,2.253,1.793Zm-6.461,132.148c2.535,22.253-2.541,36.154-16.914,42.658a17.142,17.142,0,0,1-5.954,1.7c-9.1,1.037-15.784-5.887-16.678-13.727-.634-5.562,1.767-11.472,8.5-15.313,12.01-7,19.69-4.806,24.61-24.577.528-2.11,1.648-3.519,2.66-3.634s1.914,1.063,2.426,3.309a71.529,71.529,0,0,1,1.088,7.3Zm17.253-21.69a12.337,12.337,0,0,1-14.027-10.7c-.432-3.793,1.13-8.071,5.365-11.37,8.693-6.882,13.752-7.458,15.938-19.747.109-1.293.81-1.886,1.315-1.944.759-.086,1.35.615,2,1.821a71.878,71.878,0,0,1,4.913,18.4c.979,8.6-.714,16.22-7.644,20.595A17.451,17.451,0,0,1,451.186,544.375ZM559.944,538.9c-2.529.289-3.6-.1-4.449-3.079-2.612-9.436-3.045-13.229-20.427-17.4-2.108-.528-3.265-1.678-3.351-2.436-.115-1.011.81-1.885,2.328-2.058l.759-.086c4.89.211,9.976-.114,17.114-.414,1.266-.144,2.306-.006,3.317-.121,4.552-.52,6.4-2.266,6.888-9.239a249.6,249.6,0,0,0,.35-26.168l-77.888,8.874c-.349,5.932-4.836,9.261-16.665,11.12-1.769.2-3.257.627-4.775.8-6.575.748-10.289-.365-11.066-7.193l-.173-1.517c-1.31-15.989-1.751-33.358-3.481-48.531-1.7-14.92-3.9-27.477-6.641-33.569a15.643,15.643,0,0,1-1.221-3.959c-.144-1.265.3-1.828,1.316-1.944a14.726,14.726,0,0,1,3.4.638c6.863,1.779,34.2,7.886,34.2,7.886l63.22-7.2c2.276-.259,2.725-.822,4.77-3.1,2.493-2.846,7.17-9.014,10.588-12.734a3.517,3.517,0,0,1,2.132-1.523c.759-.087,1.576.332,2.926.947,5.18,2.739,14.945,7.519,22.719,12.781a4.348,4.348,0,0,1,2.115,2.833c.173,1.517-.976,2.673-3.253,2.932L554.354,408.9a5.3,5.3,0,0,1,1.632.838,195.4,195.4,0,0,1,20.891,12.477,4.344,4.344,0,0,1,2.115,2.833c.173,1.518-.975,2.673-3.252,2.932l-45.771,5.215,1.843,16.185,8.346-.951a5.39,5.39,0,0,0,4.769-3.1c2.379-3.858,5.906-8.87,8.761-13.038a3.079,3.079,0,0,1,2.1-1.777c.759-.086,1.575.333,2.955,1.2a208.338,208.338,0,0,1,21.764,13.4c1.408,1.121,2.03,2.075,2.145,3.086.145,1.265-1.006,2.42-3.281,2.679l-46.783,5.33c.662,5.817,1.411,12.391,2.355,18.432l21.242-2.42c2.782-.317,3.793-.432,4.632-2.065,2.155-3.576,6.5-8.169,9.353-12.337a3.1,3.1,0,0,1,2.357-1.806,7.42,7.42,0,0,1,3.965,1.086c7.882,3.97,13.567,6.652,20.97,10.931,1.662,1.092,3.634,2.661,3.893,4.936.2,1.77-.833,3.937-3.888,6.335-2.805,2.369-5.276,3.163-5,10.048.157,5.874.378,14.558-.079,21.783-1.249,16.024-4.156,21.99-30.673,27.574ZM451.228,589.711c-.663-5.816-.9-10.145-1.3-13.684a126.275,126.275,0,0,0-3.367-18.316c-.569-2.754-1.53-4.438-1.645-5.449-.086-.758.137-1.039,1.4-1.184l1.265-.144c11.27,0,22.851.47,33.421,1.06,3.345.131,5.289,1.446,5.461,2.963s-1.142,3.461-4.539,5.129c-2.92,1.357-3.9,1.725-3.809,4.789.064,2.811.41,5.845.727,8.627s.634,5.562,1.2,8.314c1.111,5.254,2.881,5.052,8.025,5.235,4.862-.041,12.761-.43,20.6-1.322a171.972,171.972,0,0,0,22.11-3.8c11.177-3.069,12.637-3.746,15.262-30.174.218-2.586,1.339-4,2.35-4.11s2.166,1.034,2.737,3.787c3.8,22.109,1.791,17.983,10.77,22.6a13.688,13.688,0,0,1,7.338,10.437c.72,6.32-3.278,13.949-14.565,18.308-11.034,4.332-28.085,7.555-44.017,9.371-10.115,1.153-20.035,1.77-27.708,1.876-21.5.144-28.842-1.325-31.37-21.274Zm48.206-69.277a13.064,13.064,0,0,1-11.651,14.648c-5.057.576-10.49-2.135-11.153-7.951a7.045,7.045,0,0,1,0-2.3c.319-6.183,2.185-12.289,1.494-18.357a19.467,19.467,0,0,0-1.732-6.207,1.921,1.921,0,0,1-.368-.983,1.2,1.2,0,0,1,1.12-1.408,2.742,2.742,0,0,1,1.828.3c10.749,4.412,19.12,12.68,20.324,21ZM476.466,417.768c.346,3.035.669,8.121,1.389,14.443l22.507-2.564c-.519-4.552-1.066-9.356-1.9-14.385Zm24.928,18.678-22.761,2.593,1.844,16.184,22.76-2.593Zm-19.886,25.576c.946,6.04,1.752,13.121,2.609,18.4l21.5-2.449c-.438-6.1-1.216-12.926-1.6-18.518Zm4.656,76.832c18.749.425,34.295,1.984,39.524,11.89a16.054,16.054,0,0,1,2.012,6.432,13.69,13.69,0,0,1-11.818,15.435,12.406,12.406,0,0,1-10.438-3.934c-7.865-8.325-5.443-16.287-20.309-25.352-1.66-1.091-2.563-2.27-2.621-2.776-.086-.758.615-1.35,2.132-1.524Zm31.181-16.362c-4.046.461-8.128-1.635-9.521-7.112-1.817-6.966-1.187-12.673-9.839-21.165a2.792,2.792,0,0,1-.932-1.431c-.115-1.012.585-1.6,1.849-1.748.254-.029.536.2,1.042.138,16.305,1.472,25,5.861,27.9,15.521a7.078,7.078,0,0,1,.511,2.248C529.159,516.023,523.161,521.83,517.345,522.492Zm7.9-38.556c12.195-.877,23.582.131,27.791,7.849a16.063,16.063,0,0,1,1.9,5.42,10.759,10.759,0,0,1-9.128,12.055c-3.288.374-6.525-1.051-8.726-4.643-3.474-5.752-3.659-11.878-12.783-17.755a2.206,2.206,0,0,1-1.213-1.655c-.058-.5.39-1.069,1.654-1.213Zm2.554-72.017c.576,5.058.87,9.892,1.388,14.444l8.346-.951c2.276-.259,3.259-.628,4.769-3.1,2.183-3.323,5.741-8.082,8.625-12a4.463,4.463,0,0,1,1.148-1.156Zm54.085,164.442c-5.016-14.8-7.868-19.6-21.642-30.322a4.417,4.417,0,0,1-1.834-2.609c-.087-.758.586-1.6,2.1-1.776a11.147,11.147,0,0,1,2.586.217c18.5,2.76,39.394,6.27,45.278,19.69a24.55,24.55,0,0,1,2.186,7.948c1.181,10.367-5.489,17.019-13.076,17.884C591.42,588.084,584.637,584.759,581.887,576.361Z" fill="#000000"/><path d="M656.29,647.826c.477,4.181-1.258,5.744-8.089,6.933-.136.014-.4.046-.54.06l-1.079.123c-6.22.573-7.394-1.342-7.793-4.849l-.093-.81c-1-10-2.775-32.745-4.772-50.278l-1.045-9.172a78.2,78.2,0,0,1-10.351,13.476,2.65,2.65,0,0,1-1.675.875,1,1,0,0,1-1.2-.956,2.527,2.527,0,0,1,.371-1.545c8.629-17.789,12.824-56.521,12.132-62.589l-.077-.675a15.146,15.146,0,0,1-.6-1.707c-.046-.4.193-.705.868-.781a5.058,5.058,0,0,1,1.363-.02c6.612.477,13.944,1.28,21.023,2.25,1.665.221,2.732,1.193,2.854,2.271s-.714,2.13-2.57,2.615c-2.667.578-4.39,1.047-5,4.122A117.339,117.339,0,0,1,643,569.554c1.95.324,6.135,1.077,7.244,1.223,1.664.221,2.445,1.088,2.538,1.9a2.54,2.54,0,0,1-1.627,2.508c-2.589,1.251-3.2,1.867-2.941,4.16.983,8.631,2.385,22.134,4,36.3,1.228,10.79,2.893,21.8,4.03,31.783Zm19.968.185c.262,2.292-.7,3.493-1.774,3.616a3.18,3.18,0,0,1-2.643-1.611c-1.941-2.649-6.839-12.063-9.63-18.577a11.264,11.264,0,0,1-.424-1.318c-.107-.943.734-.766,1.8-1.023,2.682-.443,5.737-1.2,9.183-2.14-.619-6.623-1.34-12.962-2.017-18.9l-.829-7.284a96.057,96.057,0,0,1-14.112,14.04,3.519,3.519,0,0,1-1.288.693c-.54.061-.855-.312-.917-.851a3.961,3.961,0,0,1,.58-2.116c9.049-17.7,14.924-34.488,16.194-52.121l-3.372.385c-5.26.6-10.759,1.5-13.363,2.615-.27.031-.39.181-.661.212a2.186,2.186,0,0,1-2.041-1.134A23.307,23.307,0,0,1,649,558.624a2.63,2.63,0,0,1-.242-.929c-.031-.269.089-.42.493-.466l.135-.015a2.635,2.635,0,0,1,.959.027c4.184.753,11.26.493,16.249-.075l14.836-1.69c-.157-2.579-.346-5.425-.637-7.988a83.635,83.635,0,0,0-2.238-12.451,27.774,27.774,0,0,1-1.09-3.564c-.062-.54.193-.7.733-.767.4-.046.959.027,1.768-.065,6.956-.11,12.578.07,18.635.472,2.069.175,3.121,1.011,3.244,2.09s-.565,2.25-2.4,2.87c-2.1.785-3.13,1.313-2.916,3.2.231,2.023.4,4.736.726,7.568.262,2.293.673,4.705.9,6.728L708,552.448a3.292,3.292,0,0,0,2.693-1.536c1.805-3.348,3.714-6.98,6.131-10.945q.514-.879,1.122-.947a2.982,2.982,0,0,1,1.71.625c5.167,3.373,9.223,6.6,14.165,10.408a2.8,2.8,0,0,1,1.16,1.781c.077.674-.536,1.29-2.02,1.46l-35.875,4.087a145.8,145.8,0,0,0,12.265,33.3c3.244-8.7,5.613-19.082,5.869-24.031.058-.69.266-1.259.94-1.337a2.193,2.193,0,0,1,1.41.386c4.955,2.715,12.163,7.222,15.858,9.67a4.562,4.562,0,0,1,1.79,2.527c.123,1.079-.61,1.847-2.228,2.032a6.549,6.549,0,0,1-1.633.048c-.27.032-.555-.074-.825-.042a4.965,4.965,0,0,0-2.948,1.7c-3.631,4.1-10.153,9.217-15.838,13.28,8.056,13.154,18.4,22.359,31.6,26.73a2.115,2.115,0,0,1,1.683,1.583c.062.54-.4,1.276-1.419,1.939-4.084,2.515-6.1,9.985-6.487,17.407-.115,1.379-.863,2.011-1.673,2.1a1.04,1.04,0,0,1-.705-.193c-18.168-10.772-32.791-34.791-41.165-86.709l-2.967.338a90.75,90.75,0,0,1-6.553,20.42c.556,6.085,1.294,12.559,2,18.763.967,8.5,1.921,16.858,2.854,23.856a141.216,141.216,0,0,0,15.45-7.088,1.718,1.718,0,0,1,.793-.227,1.539,1.539,0,0,1,1.788,1.3,1.878,1.878,0,0,1-.639,1.576c-9.325,10.488-20.117,21.282-29.079,27.767-.629.482-1.242,1.1-1.027,2.987Z" fill="#000000"/><path d="M700.28,683.446c.421,2.117.865,4.413,1.128,6.729l.061.534c.548,4.81-4.16,6.248-10.69,7.534a19.429,19.429,0,0,1-3.187.544c-4.454.508-7.425-.237-7.872-4.156l-.081-.712c-.325-2.852-.273-5.565-.557-8.058l-25.652,2.923c.442,2.295.925,4.947,1.23,7.619l.061.535c.548,4.809-4.518,6.289-11.049,7.574a18.333,18.333,0,0,1-3.008.524c-4.453.507-7.245-.258-7.692-4.177l-.081-.712c-.366-3.207-.334-6.1-.66-8.948l-17.1,1.948c-6.947.792-14.211,1.98-17.652,3.456-.357.04-.514.238-.871.279a2.891,2.891,0,0,1-2.7-1.5,30.934,30.934,0,0,1-2.567-5.122,3.488,3.488,0,0,1-.322-1.227c-.04-.355.119-.554.653-.614l.178-.021a3.5,3.5,0,0,1,1.267.037c5.527.993,14.871.651,21.463-.1l17.1-1.948a104.625,104.625,0,0,0-2.195-12.923c-.4-1.94-1.077-3.125-1.158-3.838-.061-.534.1-.733.987-.835l.891-.1c7.939,0,17.324.012,24.77.427,2.357.093,3.725,1.019,3.867,2.266s-.784,2.616-3.177,3.791c-2.057.955-3.282,1.276-3.177,3.79a45.227,45.227,0,0,0,.39,5.009l25.83-2.943a107.444,107.444,0,0,0-2.371-12.9c-.4-1.94-1.079-3.125-1.16-3.838-.062-.534.1-.733.987-.835l.891-.1c7.939,0,17.325.012,24.771.427,2.356.093,3.725,1.019,3.866,2.266s-.785,2.616-3.176,3.791c-2.057.955-3.284,1.276-3.178,3.791a45.472,45.472,0,0,0,.39,5.008l13.361-1.522a3.943,3.943,0,0,0,3.558-2.031c2.485-3.53,5.463-7.479,8.265-11.406q.678-1.163,1.48-1.252a3.936,3.936,0,0,1,2.26.825,175.494,175.494,0,0,1,17.117,10.861,3.753,3.753,0,0,1,1.511,2.174c.1.892-.51,1.863-2.648,2.107Zm-8.924,108.566c.771,6.768,1.919,13.675,2.67,20.265l.061.535c.711,6.236-2.2,7.65-10.665,9.336a34.551,34.551,0,0,1-4.078.646c-6.234.71-8.239-1.047-8.767-5.679l-.081-.713c-.791-6.947-1.109-14.489-1.763-21.813L623.842,799.7c-6.947.792-14.21,1.981-17.652,3.455-.355.04-.513.238-.87.28a2.889,2.889,0,0,1-2.7-1.5,30.687,30.687,0,0,1-2.569-5.121,3.479,3.479,0,0,1-.32-1.226c-.041-.357.117-.556.652-.616l.177-.021a3.482,3.482,0,0,1,1.268.037c5.526.994,14.872.652,21.462-.1l44.892-5.115c-.554-6.434-1.264-12.668-1.8-18.923l-34.559,3.937c-6.947.792-14.21,1.98-17.651,3.456-.356.04-.514.237-.87.278a2.889,2.889,0,0,1-2.7-1.5,26.516,26.516,0,0,1-2.527-4.764,3.511,3.511,0,0,1-.321-1.227c-.04-.356.118-.555.652-.615l.178-.021a3.518,3.518,0,0,1,1.267.036c5.151.857,13.6.616,20.037.064-.775-8.394-1.871-18.013-2.926-27.276l-8.373.954c-6.948.791-14.21,1.979-17.652,3.455-.357.041-.513.238-.87.279a2.886,2.886,0,0,1-2.7-1.5,26.62,26.62,0,0,1-2.528-4.765,3.5,3.5,0,0,1-.32-1.225c-.04-.357.117-.556.653-.616l.177-.021a3.5,3.5,0,0,1,1.267.037c5.527.993,14.872.652,21.463-.1l8.373-.955-.894-7.837c-.689-6.057-1.339-11.757-2.086-16.725-6.234.71-12.231,1.935-15.336,3.19-.355.04-.513.24-.87.281a2.892,2.892,0,0,1-2.7-1.5,30.985,30.985,0,0,1-2.568-5.123,3.463,3.463,0,0,1-.321-1.226c-.041-.356.118-.555.653-.615l.177-.021a3.5,3.5,0,0,1,1.267.037c5.526.993,14.871.65,21.462-.1l78.737-8.971a3.94,3.94,0,0,0,3.559-2.029c2.327-3.333,5.779-7.877,7.989-10.655a2.482,2.482,0,0,1,1.5-1.073,4.974,4.974,0,0,1,2.239.648c3.826,1.91,11.78,6.778,17.036,10.149a3.739,3.739,0,0,1,1.511,2.172c.1.892-.51,1.863-2.646,2.107l-17.459,1.99c.613,6.966,1.588,15.517,2.445,24.623l2.494-.285c1.247-.141,2.316-.263,2.906-1.413,1.813-3.094,4.69-7.933,6.8-11.6a1.633,1.633,0,0,1,1.344-.876,2.889,2.889,0,0,1,1.863.511c3.292,1.969,12.278,7.983,16.246,11.141a2.843,2.843,0,0,1,1.094,1.68c.1.891-.708,1.7-2.311,1.887L720.85,732.53l.913,8.017c.731,6.413,1.482,13,2.37,19.22a2.479,2.479,0,0,0,1.838-1.293c1.813-3.093,4.492-8.092,6.8-11.6.473-.6.789-.992,1.323-1.053a3.346,3.346,0,0,1,1.883.688c3.532,2.485,11.23,8.284,14.11,11.385a3.339,3.339,0,0,1,.935,1.879c.1.89-.549,1.5-2.153,1.688l-60.567,6.9c.71,6.236,1.6,12.449,2.33,18.863l34.2-3.9a3.94,3.94,0,0,0,3.557-2.029c2.8-3.929,6.687-9.424,8.718-12.181a1.9,1.9,0,0,1,1.5-1.073,3.417,3.417,0,0,1,2.24.646,197.079,197.079,0,0,1,18.267,11.453,3.75,3.75,0,0,1,1.51,2.173c.1.891-.509,1.863-2.647,2.107ZM662.27,734.694c-1.158-10.154-2.29-18.507-3.157-24.543l-14.251,1.624c.613,6.968,1.587,15.519,2.444,24.623Zm.506,4.453-14.785,1.685.913,8.017c.732,6.413,1.483,13,2.371,19.218l14.607-1.664Zm35.654-16.512c-.69-6.057-1.339-11.757-2.086-16.725l-14.608,1.664c.512,6.075,1.287,14.469,2.445,24.623l15.142-1.724Zm4.327,39.567c-.776-8.393-1.871-18.013-2.927-27.276l-15.142,1.724,3.105,27.256Z" fill="#000000"/></g><g id="_15.5th_Touhou_Project_Antinomy_of_Common_Flowers" data-name="15.5th Touhou Project Antinomy of Common Flowers"><path d="M485.514,309.986h.99c0,.554-.088,1.632-.088,2.1v14.624c-.029,1.631.5,2.126,2.8,2.1v1.107c-.379-.03-2.3-.088-5.068-.088-3.031,0-4.487.058-4.749.088V328.8c2.214.029,2.855-.437,2.767-1.923V314.123c.088-1.195-.5-1.515-2.8-1.486v-1.019A15.9,15.9,0,0,0,485.514,309.986Z" fill="#000000"/><path d="M496.317,309.9a6.828,6.828,0,0,0,4.4,1.224c1.485,0,3.029-.437,3.583-1.224h1.078c-.787,3.029-3.088,4.573-6.351,4.573a18,18,0,0,1-2.446-.2c0,.378-.029,1.106-.059,2.184s-.029,1.893-.058,2.505a6.28,6.28,0,0,1,4.253-1.6,5.961,5.961,0,0,1,3.845,1.456,5.424,5.424,0,0,1,1.777,4.195,6.854,6.854,0,0,1-2.389,5.3,9.035,9.035,0,0,1-5.942,2.009,6.476,6.476,0,0,1-3.554-.961,2.614,2.614,0,0,1-1.369-2.039,1.664,1.664,0,0,1,1.66-1.748,2.208,2.208,0,0,1,2.039,1.748,2.291,2.291,0,0,0,2.127,1.719c1.66.029,2.913-1.4,2.942-5.331-.029-1.777-.291-2.942-.845-3.554a2.319,2.319,0,0,0-1.981-.844,2.709,2.709,0,0,0-2.418,1.4l.03.99c0,.67-.35.962-.845.962-.611.029-.932-.262-.932-1.107q.045-.918.262-4.719c.146-2.535.233-4.865.263-6.933Z" fill="#000000"/><path d="M512.278,325.512a2.326,2.326,0,0,1,2.389,2.389,2.427,2.427,0,0,1-2.389,2.33,2.46,2.46,0,0,1-2.446-2.33A2.342,2.342,0,0,1,512.278,325.512Z" fill="#000000"/><path d="M520.287,309.9a6.828,6.828,0,0,0,4.4,1.224c1.485,0,3.029-.437,3.583-1.224h1.078c-.787,3.029-3.088,4.573-6.351,4.573a18,18,0,0,1-2.446-.2c0,.378-.029,1.106-.059,2.184s-.029,1.893-.058,2.505a6.28,6.28,0,0,1,4.253-1.6,5.959,5.959,0,0,1,3.844,1.456,5.422,5.422,0,0,1,1.778,4.195,6.854,6.854,0,0,1-2.389,5.3,9.035,9.035,0,0,1-5.942,2.009,6.476,6.476,0,0,1-3.554-.961,2.614,2.614,0,0,1-1.369-2.039,1.664,1.664,0,0,1,1.66-1.748,2.209,2.209,0,0,1,2.039,1.748,2.291,2.291,0,0,0,2.127,1.719c1.66.029,2.913-1.4,2.941-5.331-.028-1.777-.291-2.942-.844-3.554a2.319,2.319,0,0,0-1.981-.844,2.708,2.708,0,0,0-2.418,1.4l.029.99c0,.67-.349.962-.844.962-.612.029-.932-.262-.932-1.107q.043-.918.262-4.719c.145-2.535.233-4.865.262-6.933Z" fill="#000000"/><path d="M537.237,313.045h1.108v4.049h3v1.281h-3v8.972a.867.867,0,0,0,.961.9c.612,0,1.048-.291,1.632-1.078l.96.816A4.836,4.836,0,0,1,537.7,330.2c-2.184,0-3.35-1.019-3.35-3.263v-8.564h-1.427V317.24C534.878,316.919,536.276,315.637,537.237,313.045Z" fill="#000000"/><path d="M548.363,309.258v9.787a5.976,5.976,0,0,1,4.515-2.272,3.733,3.733,0,0,1,4.049,3.933v7.166c0,.932.7,1.136,1.632,1.136v.932a23.549,23.549,0,0,0-3.118-.059q-1.442-.042-2.709,0c-.844.03-1.339.03-1.514.059v-.932c1.078,0,1.632-.262,1.632-1.341V321c-.03-1.544-.817-2.155-1.894-2.126-1.369,0-2.506,1.107-2.593,3.35v4.806c0,1.515.379,2.01,1.544,1.981v.932c-.233-.029-2.127-.117-4.544-.087a23.488,23.488,0,0,0-2.884.087v-.932c1.486-.029,1.894-.67,1.865-1.748V312.637c0-1.077-.525-1.4-1.69-1.4v-.961A32.811,32.811,0,0,0,548.363,309.258Z" fill="#000000"/><path d="M570.877,310.511c1.543.029,3.145.058,4.835.058,1.631,0,3.728-.029,6.321-.058s4.253-.058,4.981-.088l.2,5.564h-1.107c-.437-2.651-1.661-3.932-4.136-3.932h-2.126V326.27c-.03,1.864.64,2.5,3,2.476v1.165c-.379-.03-1.049-.03-2.069-.058-.99-.03-1.748-.03-2.243-.03s-1.515,0-3.116.03c-1.573.028-2.564.028-2.972.058v-1.137c2.127-.028,2.855-.786,2.826-1.63V312.055c-2.185-.059-3.7.145-4.486.64-.786.467-1.34,1.574-1.689,3.292h-1.136l.232-5.564C568.459,310.453,569.361,310.481,570.877,310.511Z" fill="#000000"/><path d="M600.963,318.492a6.836,6.836,0,0,1-.058,10.02,7.54,7.54,0,0,1-4.923,1.69,7.739,7.739,0,0,1-5.272-1.864,6.427,6.427,0,0,1-2.01-4.836,6.685,6.685,0,0,1,1.835-4.573,7.236,7.236,0,0,1,5.389-2.156A7.763,7.763,0,0,1,600.963,318.492Zm-7.923,5.3c0,3.874.933,5.3,2.825,5.273,1.894.029,2.913-1.457,2.913-5.651,0-3.874-.931-5.477-2.825-5.447C593.855,317.968,593.011,319.949,593.04,323.793Z" fill="#000000"/><path d="M607.573,317.065c1.486-.029,2.36-.029,2.651-.029v8.68c.029,1.893.757,2.418,1.689,2.388a2.6,2.6,0,0,0,1.836-.728,3.837,3.837,0,0,0,1.02-3v-4.369c0-1.6-.583-1.952-1.778-1.923v-.99c.379,0,1.34,0,2.884-.029s2.5-.029,2.854-.029V327c-.029.815.292,1.106,1.778,1.106v1.049a15.173,15.173,0,0,0-2.243.321c-1.078.2-1.981.407-2.68.582h-.467a9.322,9.322,0,0,0-.116-1.194c-.058-.612-.087-.99-.116-1.2a5.708,5.708,0,0,1-4.748,2.535c-2.564,0-3.874-1.34-3.874-3.787v-6.962c0-.845-.613-1.369-1.69-1.369v-.99C605.126,317.094,606.117,317.094,607.573,317.065Z" fill="#000000"/><path d="M627.99,309.258v9.787a5.976,5.976,0,0,1,4.515-2.272,3.733,3.733,0,0,1,4.049,3.933v7.166c0,.932.7,1.136,1.632,1.136v.932a23.549,23.549,0,0,0-3.118-.059q-1.442-.042-2.709,0c-.844.03-1.339.03-1.514.059v-.932c1.078,0,1.632-.262,1.632-1.341V321c-.03-1.544-.817-2.155-1.894-2.126-1.369,0-2.506,1.107-2.593,3.35v4.806c0,1.515.379,2.01,1.544,1.981v.932c-.233-.029-2.127-.117-4.544-.087a23.488,23.488,0,0,0-2.884.087v-.932c1.486-.029,1.894-.67,1.865-1.748V312.637c0-1.077-.525-1.4-1.69-1.4v-.961A32.811,32.811,0,0,0,627.99,309.258Z" fill="#000000"/><path d="M651.9,318.492a6.835,6.835,0,0,1-.057,10.02,7.543,7.543,0,0,1-4.923,1.69,7.739,7.739,0,0,1-5.273-1.864,6.43,6.43,0,0,1-2.009-4.836,6.68,6.68,0,0,1,1.835-4.573,7.233,7.233,0,0,1,5.388-2.156A7.763,7.763,0,0,1,651.9,318.492Zm-7.923,5.3c0,3.874.933,5.3,2.826,5.273,1.893.029,2.913-1.457,2.913-5.651,0-3.874-.932-5.477-2.825-5.447C644.795,317.968,643.95,319.949,643.979,323.793Z" fill="#000000"/><path d="M658.513,317.065c1.485-.029,2.359-.029,2.65-.029v8.68c.029,1.893.758,2.418,1.69,2.388a2.6,2.6,0,0,0,1.835-.728,3.833,3.833,0,0,0,1.02-3v-4.369c0-1.6-.583-1.952-1.777-1.923v-.99c.379,0,1.34,0,2.883-.029s2.5-.029,2.855-.029V327c-.029.815.291,1.106,1.777,1.106v1.049a15.173,15.173,0,0,0-2.243.321c-1.078.2-1.98.407-2.68.582h-.466a9.391,9.391,0,0,0-.117-1.194c-.057-.612-.086-.99-.116-1.2a5.707,5.707,0,0,1-4.748,2.535c-2.563,0-3.874-1.34-3.874-3.787v-6.962c0-.845-.612-1.369-1.689-1.369v-.99C656.065,317.094,657.057,317.094,658.513,317.065Z" fill="#000000"/><path d="M697.512,312.492a4.616,4.616,0,0,1,1.107,3.233c-.029,3.583-2.913,5.359-7.807,5.359H688.54v5.39c-.029,1.6.612,2.3,2.942,2.3v1.137c-.233-.03-.961-.03-2.213-.058s-2.5-.03-3.788-.03c-2.243,0-3.583.058-4.019.088v-1.165c1.66,0,2.534-.554,2.534-1.836V313.424c0-1.311-.874-1.894-2.534-1.864v-1.166c.436,0,2.068.087,3.583.087.786,0,1.631,0,2.5-.028s1.456-.03,1.719-.03C693.551,310.394,695.91,310.889,697.512,312.492Zm-8.972.349v6.846h.933c3,.028,4.223-1.224,4.223-4.02-.029-2.68-1.282-3.846-3.467-3.846C688.744,311.821,688.511,312.055,688.54,312.841Z" fill="#000000"/><path d="M706.219,321.871v5.535c-.087,1.019.32,1.485,2.039,1.485v1.02c-.262-.03-1.631-.088-3.583-.058-2.33-.03-3.961.028-4.34.058v-1.02c1.369,0,1.835-.466,1.835-1.544v-6.466c.029-1.078-.32-2.039-1.806-2.069v-1.019a20.8,20.8,0,0,0,4.835-.961h.554c0,.2.029.582.087,1.194.058.582.088,1.049.117,1.369a4.546,4.546,0,0,1,3.815-2.447c1.486,0,2.244.787,2.244,1.952a1.63,1.63,0,0,1-1.778,1.835,1.68,1.68,0,0,1-1.426-.728,1.309,1.309,0,0,0-.845-.757C707.122,319.337,706.248,320.619,706.219,321.871Z" fill="#000000"/><path d="M725.209,318.492a6.836,6.836,0,0,1-.058,10.02,7.539,7.539,0,0,1-4.922,1.69,7.739,7.739,0,0,1-5.273-1.864,6.434,6.434,0,0,1-2.01-4.836,6.685,6.685,0,0,1,1.835-4.573,7.237,7.237,0,0,1,5.389-2.156A7.763,7.763,0,0,1,725.209,318.492Zm-7.923,5.3c0,3.874.933,5.3,2.825,5.273,1.894.029,2.913-1.457,2.913-5.651,0-3.874-.931-5.477-2.825-5.447C718.1,317.968,717.257,319.949,717.286,323.793Z" fill="#000000"/><path d="M728.5,337.863c-2.331-.088-3.671-1.049-3.7-2.33a1.524,1.524,0,0,1,1.544-1.574c1.019.088,1.6.525,1.748,1.282a1.461,1.461,0,0,0,1.223,1.34c.612,0,1.252-.612,1.282-1.922V320.706c.029-1.165-.437-1.806-2.185-1.806v-.99a23.165,23.165,0,0,0,5.738-1.137h.467v14.8C734.587,335.911,732.314,337.863,728.5,337.863Zm5.884-26.3a2.214,2.214,0,0,1-4.428,0,2.149,2.149,0,0,1,2.243-2.214A2.187,2.187,0,0,1,734.383,311.56Z" fill="#000000"/><path d="M750.664,322.949H742.13q.087,3.451,1.223,4.544a3.293,3.293,0,0,0,2.563,1.019,4.387,4.387,0,0,0,3.554-1.951l.962.845a6.581,6.581,0,0,1-5.652,2.8,7.518,7.518,0,0,1-5.068-1.806,6.321,6.321,0,0,1-1.981-4.748,6.68,6.68,0,0,1,1.865-4.806,7.326,7.326,0,0,1,5.359-2.069C748.422,316.773,750.636,318.725,750.664,322.949Zm-8.5-1.369h4.748c0-2.651-.728-3.642-2.214-3.612C743.149,318,742.362,319.278,742.159,321.58Z" fill="#000000"/><path d="M764.5,319.628a1.487,1.487,0,0,1-1.573,1.6,2.014,2.014,0,0,1-1.835-1.631,1.96,1.96,0,0,0-1.835-1.631A2.2,2.2,0,0,0,757.3,319.6a10.655,10.655,0,0,0-.582,3.729q.042,2.97,1.048,4.107a2.97,2.97,0,0,0,2.359,1.048,4.362,4.362,0,0,0,3.554-1.951l.9.874a6.753,6.753,0,0,1-5.913,2.8,6.4,6.4,0,0,1-4.457-1.777,6.527,6.527,0,0,1-1.835-4.661,6.918,6.918,0,0,1,7.166-6.991C762.547,316.8,764.47,317.851,764.5,319.628Z" fill="#000000"/><path d="M770.729,313.045h1.108v4.049h3v1.281h-3v8.972a.867.867,0,0,0,.961.9c.612,0,1.049-.291,1.632-1.078l.961.816A4.839,4.839,0,0,1,771.2,330.2c-2.184,0-3.35-1.019-3.35-3.263v-8.564h-1.427V317.24C768.37,316.919,769.769,315.637,770.729,313.045Z" fill="#000000"/><path d="M186.449,664.91c.744,1.831,1.831,2.328,3.072,2.3v1.211c-.527-.031-2.576-.094-5.307-.094-3.228,0-5.059.063-5.338.094v-1.211c1.738.031,2.669-.248,2.669-1.272.031-.622-.311-1.552-1.21-4h-6.952c-.869,2.328-1.18,3.042-1.149,3.569.032,1.241,1.055,1.738,2.545,1.707v1.211c-.373-.031-1.8-.094-3.693-.094-2.142,0-3.507.063-3.632.094v-1.211A3.385,3.385,0,0,0,170.4,665l7.511-17.816H179.4Zm-12.415-4.437h5.711l-2.731-7.263Z" fill="#000000"/><path d="M195.515,654.514h.589c0,.216.031.62.062,1.272.031.62.063,1.086.093,1.4a6.456,6.456,0,0,1,5.09-2.763c2.328,0,4.221,1.3,4.314,4.407v7.139c0,.993.5,1.428,1.831,1.428v1.024c-.186-.031-.621-.031-1.334-.063-.683-.031-1.3-.031-1.893-.031-.777,0-1.707,0-2.763.031-1.024.032-1.645.032-1.862.063v-1.024c1.242,0,1.738-.373,1.738-1.242v-7.17c-.031-1.365-.683-2.3-1.707-2.3a2.827,2.827,0,0,0-2.359,1.148,4.359,4.359,0,0,0-.776,2.576v5.121c0,1.335.435,1.863,1.8,1.863v1.024c-.342-.031-1.056-.031-2.173-.063-1.086-.031-1.924-.031-2.514-.031-1.335,0-2.949.063-3.321.094v-1.024a1.613,1.613,0,0,0,1.925-1.615V658.3c0-1.335-.652-1.676-1.925-1.645v-1.118A22.226,22.226,0,0,0,195.515,654.514Z" fill="#000000"/><path d="M213.424,650.447h1.18v4.315h3.2v1.365h-3.2v9.56a.923.923,0,0,0,1.024.961c.651,0,1.117-.31,1.738-1.148l1.024.869a5.155,5.155,0,0,1-4.469,2.359c-2.328,0-3.569-1.086-3.569-3.476v-9.125h-1.521v-1.21C210.91,654.575,212.4,653.21,213.424,650.447Z" fill="#000000"/><path d="M225.5,665.873c-.031,1.023.5,1.427,1.986,1.4v1.117a6.91,6.91,0,0,0-.9-.063h-3.166c-2.948,0-4,.063-4.221.094V667.27c1.335.03,1.955-.249,1.955-1.4v-7.76c.032-1.024-.464-1.551-1.955-1.551v-1.086a25.546,25.546,0,0,0,5.866-1.056h.435Zm-2.328-19.367a2.331,2.331,0,0,1,2.3,2.39,2.328,2.328,0,1,1-4.655,0A2.289,2.289,0,0,1,223.17,646.506Z" fill="#000000"/><path d="M234.376,654.514h.589c0,.216.031.62.062,1.272q.048.93.093,1.4a6.457,6.457,0,0,1,5.09-2.763c2.328,0,4.222,1.3,4.314,4.407v7.139c0,.993.5,1.428,1.831,1.428v1.024c-.186-.031-.621-.031-1.334-.063-.683-.031-1.3-.031-1.893-.031-.776,0-1.707,0-2.763.031-1.023.032-1.644.032-1.862.063v-1.024c1.242,0,1.738-.373,1.738-1.242v-7.17c-.031-1.365-.682-2.3-1.707-2.3a2.825,2.825,0,0,0-2.358,1.148,4.353,4.353,0,0,0-.777,2.576v5.121c0,1.335.435,1.863,1.8,1.863v1.024c-.342-.031-1.055-.031-2.173-.063-1.086-.031-1.923-.031-2.513-.031-1.335,0-2.95.063-3.322.094v-1.024a1.612,1.612,0,0,0,1.925-1.615V658.3c0-1.335-.652-1.676-1.925-1.645v-1.118A22.215,22.215,0,0,0,234.376,654.514Z" fill="#000000"/><path d="M260.789,656.251a7.286,7.286,0,0,1-.061,10.677,8.034,8.034,0,0,1-5.246,1.8,8.245,8.245,0,0,1-5.618-1.987,6.842,6.842,0,0,1-2.14-5.151,7.117,7.117,0,0,1,1.955-4.873,7.706,7.706,0,0,1,5.741-2.3A8.266,8.266,0,0,1,260.789,656.251Zm-8.441,5.649c0,4.127.993,5.649,3.01,5.618,2.017.031,3.1-1.552,3.1-6.022,0-4.128-.993-5.834-3.011-5.8C253.217,655.692,252.316,657.8,252.348,661.9Z" fill="#000000"/><path d="M270.413,654.389c0,.217.031.683.062,1.335s.062,1.117.093,1.459a5.556,5.556,0,0,1,5-2.763,3.816,3.816,0,0,1,3.911,2.639,5.783,5.783,0,0,1,4.873-2.639c2.482.094,4,1.552,4,3.445v7.511c0,1.614.558,1.955,1.832,1.924v1.118c-.466-.031-1.739-.094-3.756-.094-2.111,0-3.694.063-3.942.094v-1.087c1.118.031,1.739-.31,1.739-1.644v-7.2c-.032-1.272-.714-1.893-1.707-1.893-1.77.031-2.95,1.552-2.95,4.035v4.779c-.03,1.459.466,1.924,1.615,1.893v1.118c-.248-.031-1.707-.094-3.662-.094-2.266,0-3.415.063-3.88.094V667.3c1.241.094,1.769-.279,1.738-2.111v-6.765a1.673,1.673,0,0,0-1.831-1.862c-1.707.031-2.824,1.8-2.856,4.066v5c.032,1.211.652,1.707,1.645,1.676v1.118c-.279-.031-1.676-.094-3.631-.094-2.763,0-3.88.063-4,.094V667.27c1.273.03,1.831-.435,1.831-1.552V657.9c-.031-1.086-.745-1.427-1.768-1.4v-1.087a22.56,22.56,0,0,0,5.151-1.024Z" fill="#000000"/><path d="M299.775,654.762v1.117c-1.272,0-1.644.217-1.614.807-.093.5.528,1.986,2.608,7.2,1.179-2.576,1.924-4.315,2.234-5.184a4.895,4.895,0,0,0,.435-1.862c0-.62-.465-.993-1.708-.993v-1.086c.311,0,.808.031,1.491.061.714.031,1.086.031,1.179.031s.5,0,1.21-.031,1.242-.061,1.521-.061v1.117a1.77,1.77,0,0,0-1.179.527,15.653,15.653,0,0,0-1.832,3.322c-.838,1.831-1.8,3.879-2.824,6.207-1.024,2.3-1.986,4.407-2.948,6.331a18.592,18.592,0,0,1-2.266,3.88,2.422,2.422,0,0,1-1.894.837,1.742,1.742,0,0,1-1.768-1.644,1.893,1.893,0,0,1,1.614-1.986,6.368,6.368,0,0,0,2.39-.777,20.257,20.257,0,0,0,2.141-4.1l-5-11.514a1.683,1.683,0,0,0-1.707-1.086v-1.117c.372,0,1.924.092,4.128.092C298.689,654.854,299.651,654.762,299.775,654.762Z" fill="#000000"/><path d="M330.163,656.251a7.286,7.286,0,0,1-.061,10.677,8.034,8.034,0,0,1-5.246,1.8,8.245,8.245,0,0,1-5.618-1.987,6.842,6.842,0,0,1-2.14-5.151,7.117,7.117,0,0,1,1.955-4.873,7.706,7.706,0,0,1,5.741-2.3A8.266,8.266,0,0,1,330.163,656.251Zm-8.441,5.649c0,4.127.993,5.649,3.01,5.618,2.018.031,3.1-1.552,3.1-6.022,0-4.128-.993-5.834-3.011-5.8C322.591,655.692,321.69,657.8,321.722,661.9Z" fill="#000000"/><path d="M346.491,648.927a1.506,1.506,0,0,1-1.583,1.614c-1.087-.125-1.707-.59-1.893-1.428a1.627,1.627,0,0,0-1.273-1.427c-.869,0-1.428.869-1.459,3.072v4H344.1v1.427h-3.724V665.1c-.031,1.831.775,2.358,3.01,2.328v.993c-.465-.031-2.575-.094-4.78-.094-2.637,0-4.468.063-4.841.094v-.993c1.614,0,2.328-.621,2.328-1.831v-9.405h-2.266v-1.427h2.266v-1.955c-.093-3.88,1.613-6.364,6.114-6.394C345.063,646.443,346.491,647.406,346.491,648.927Z" fill="#000000"/><path d="M370.98,647.437h1.3q.045.792.093,3.445c.031,1.769.061,2.824.093,3.2H371.2c-.993-3.632-3.2-5.369-5.9-5.339a5.43,5.43,0,0,0-4.407,2.266c-1.211,1.521-1.863,3.911-1.925,7.17a12.283,12.283,0,0,0,1.366,6.02,5.442,5.442,0,0,0,5,2.887c2.886,0,5.245-1.986,6.083-5.928h1.3v7.169h-1.274l-.682-1.737a10.28,10.28,0,0,1-6.673,2.266,10.769,10.769,0,0,1-7.6-2.856,10.3,10.3,0,0,1-3.01-7.6c.124-3.631,1.272-6.424,3.414-8.318a11.2,11.2,0,0,1,7.418-2.887,9.607,9.607,0,0,1,6.114,1.956Z" fill="#000000"/><path d="M388.176,656.251a7.285,7.285,0,0,1-.062,10.677,8.029,8.029,0,0,1-5.245,1.8,8.243,8.243,0,0,1-5.618-1.987,6.842,6.842,0,0,1-2.141-5.151,7.122,7.122,0,0,1,1.955-4.873,7.71,7.71,0,0,1,5.742-2.3A8.268,8.268,0,0,1,388.176,656.251Zm-8.442,5.649c0,4.127.994,5.649,3.011,5.618,2.017.031,3.1-1.552,3.1-6.022,0-4.128-.994-5.834-3.011-5.8C380.6,655.692,379.7,657.8,379.734,661.9Z" fill="#000000"/><path d="M397.8,654.389c0,.217.031.683.061,1.335s.063,1.117.094,1.459a5.556,5.556,0,0,1,5-2.763,3.815,3.815,0,0,1,3.91,2.639,5.786,5.786,0,0,1,4.873-2.639c2.483.094,4,1.552,4,3.445v7.511c0,1.614.559,1.955,1.832,1.924v1.118c-.466-.031-1.738-.094-3.756-.094-2.11,0-3.693.063-3.941.094v-1.087c1.117.031,1.738-.31,1.738-1.644v-7.2c-.031-1.272-.714-1.893-1.707-1.893-1.769.031-2.949,1.552-2.949,4.035v4.779c-.03,1.459.466,1.924,1.614,1.893v1.118c-.248-.031-1.707-.094-3.662-.094-2.265,0-3.414.063-3.88.094V667.3c1.242.094,1.77-.279,1.739-2.111v-6.765a1.673,1.673,0,0,0-1.831-1.862c-1.707.031-2.825,1.8-2.856,4.066v5c.031,1.211.651,1.707,1.645,1.676v1.118c-.28-.031-1.676-.094-3.631-.094-2.763,0-3.88.063-4,.094V667.27c1.272.03,1.831-.435,1.831-1.552V657.9c-.031-1.086-.745-1.427-1.769-1.4v-1.087a22.569,22.569,0,0,0,5.152-1.024Z" fill="#000000"/><path d="M424.929,654.389c0,.217.031.683.061,1.335s.063,1.117.094,1.459a5.556,5.556,0,0,1,5-2.763,3.815,3.815,0,0,1,3.91,2.639,5.784,5.784,0,0,1,4.873-2.639c2.483.094,4,1.552,4,3.445v7.511c0,1.614.559,1.955,1.832,1.924v1.118c-.466-.031-1.738-.094-3.756-.094-2.11,0-3.693.063-3.941.094v-1.087c1.117.031,1.738-.31,1.738-1.644v-7.2c-.031-1.272-.714-1.893-1.707-1.893-1.769.031-2.949,1.552-2.949,4.035v4.779c-.03,1.459.466,1.924,1.614,1.893v1.118c-.248-.031-1.707-.094-3.662-.094-2.265,0-3.414.063-3.88.094V667.3c1.241.094,1.77-.279,1.739-2.111v-6.765a1.673,1.673,0,0,0-1.832-1.862c-1.707.031-2.824,1.8-2.855,4.066v5c.031,1.211.651,1.707,1.645,1.676v1.118c-.28-.031-1.676-.094-3.631-.094-2.763,0-3.88.063-4,.094V667.27c1.272.03,1.831-.435,1.831-1.552V657.9c-.031-1.086-.745-1.427-1.769-1.4v-1.087a22.569,22.569,0,0,0,5.152-1.024Z" fill="#000000"/><path d="M459.35,656.251a7.287,7.287,0,0,1-.062,10.677,8.029,8.029,0,0,1-5.245,1.8,8.243,8.243,0,0,1-5.618-1.987,6.839,6.839,0,0,1-2.141-5.151,7.122,7.122,0,0,1,1.955-4.873,7.709,7.709,0,0,1,5.741-2.3A8.269,8.269,0,0,1,459.35,656.251Zm-8.442,5.649c0,4.127.993,5.649,3.011,5.618,2.017.031,3.1-1.552,3.1-6.022,0-4.128-.993-5.834-3.01-5.8C451.777,655.692,450.877,657.8,450.908,661.9Z" fill="#000000"/><path d="M468.446,654.514h.589c0,.216.031.62.063,1.272q.046.93.092,1.4a6.459,6.459,0,0,1,5.09-2.763c2.328,0,4.222,1.3,4.315,4.407v7.139c0,.993.5,1.428,1.831,1.428v1.024c-.187-.031-.621-.031-1.334-.063-.684-.031-1.3-.031-1.894-.031-.776,0-1.707,0-2.762.031-1.024.032-1.645.032-1.863.063v-1.024c1.242,0,1.739-.373,1.739-1.242v-7.17c-.032-1.365-.683-2.3-1.708-2.3a2.825,2.825,0,0,0-2.358,1.148,4.359,4.359,0,0,0-.776,2.576v5.121c0,1.335.434,1.863,1.8,1.863v1.024c-.342-.031-1.056-.031-2.173-.063-1.086-.031-1.924-.031-2.514-.031-1.335,0-2.949.063-3.321.094v-1.024a1.613,1.613,0,0,0,1.925-1.615V658.3c0-1.335-.653-1.676-1.925-1.645v-1.118A22.206,22.206,0,0,0,468.446,654.514Z" fill="#000000"/><path d="M493.743,647.747c1.924.031,3.849.063,5.773.063,1.893,0,3.631-.032,5.276-.063s2.607-.061,2.824-.093q0,1.071.094,3.073c.061,1.3.093,2.08.124,2.3h-1.242a3.993,3.993,0,0,0-2.079-3.166,10.339,10.339,0,0,0-4.563-.713c-1.4,0-1.737.341-1.707,1.118v6.858h.683a3.532,3.532,0,0,0,2.39-.62,4.92,4.92,0,0,0,1.273-2.918h1.334c0,.4,0,1.148-.03,2.266-.032,1.087-.032,1.8-.032,2.11,0,1.614.093,3.508.093,4.035h-1.335c-.248-1.552-.713-2.545-1.365-2.948a3.5,3.5,0,0,0-2.173-.528h-.838V664.1c0,1.365.249,2.234.777,2.637a4.116,4.116,0,0,0,2.482.5v1.18c-.341-.031-1.645-.094-5-.063-2.391-.031-4-.031-4.78,0a11.238,11.238,0,0,0-1.242.063v-1.18a4.449,4.449,0,0,0,2.483-.682c.4-.373.528-1.118.528-2.452V651.068c0-1.583-.932-2.2-3.011-2.172v-1.273C490.732,647.654,491.819,647.686,493.743,647.747Z" fill="#000000"/><path d="M515.408,646.413v19.335c0,1.148.653,1.646,2.049,1.646v1.024c-.217-.031-1.707-.094-4.221-.094-2.7,0-3.972.063-4.128.094v-1.024c1.459,0,2.08-.373,2.048-1.459V649.672c-.03-.652-.962-.932-1.924-.932v-1.117A20.182,20.182,0,0,0,515.408,646.413Z" fill="#000000"/><path d="M532.231,656.251a7.286,7.286,0,0,1-.061,10.677,8.031,8.031,0,0,1-5.245,1.8,8.243,8.243,0,0,1-5.618-1.987,6.839,6.839,0,0,1-2.141-5.151,7.117,7.117,0,0,1,1.955-4.873,7.709,7.709,0,0,1,5.741-2.3A8.266,8.266,0,0,1,532.231,656.251ZM523.79,661.9c0,4.127.993,5.649,3.011,5.618,2.017.031,3.1-1.552,3.1-6.022,0-4.128-.993-5.834-3.01-5.8C524.659,655.692,523.759,657.8,523.79,661.9Z" fill="#000000"/><path d="M538.813,654.823c.932,0,1.863,0,2.825-.03s1.521-.031,1.738-.031v1.054c-1.4,0-1.924.342-1.924.963,0,.869,1.521,4.748,2.142,6.331l3.475-8.348h1.211l3.2,8.845c1.738-4.656,2.358-5.866,2.358-6.735-.03-.745-1.055-1.117-1.955-1.117V654.73c.218,0,.993.093,2.824.093,1.646,0,2.421-.093,2.639-.093v1.086a2.479,2.479,0,0,0-1.956,1.646l-4.593,11.049h-1.273l-3.352-8.008-3.289,8.008h-1.366l-4.284-11.018a2.211,2.211,0,0,0-1.923-1.677v-1.054C535.555,654.762,536.858,654.823,538.813,654.823Z" fill="#000000"/><path d="M572.118,661h-9.094q.095,3.678,1.3,4.842a3.515,3.515,0,0,0,2.732,1.086,4.677,4.677,0,0,0,3.786-2.079l1.024.9a7.008,7.008,0,0,1-6.021,2.98,8.02,8.02,0,0,1-5.4-1.924,6.731,6.731,0,0,1-2.11-5.059,7.125,7.125,0,0,1,1.986-5.121,7.809,7.809,0,0,1,5.711-2.2C569.729,654.42,572.087,656.5,572.118,661Zm-9.062-1.459h5.058c0-2.824-.775-3.879-2.358-3.849C564.111,655.724,563.272,657.089,563.056,659.541Z" fill="#000000"/><path d="M580.1,659.852v5.9c-.093,1.087.342,1.583,2.173,1.583v1.087c-.28-.031-1.739-.094-3.818-.063-2.483-.031-4.221.032-4.625.063v-1.087c1.459,0,1.956-.5,1.956-1.644V658.8c.03-1.148-.342-2.172-1.925-2.2v-1.086a15.122,15.122,0,0,0,2.36-.311,14.88,14.88,0,0,0,2.793-.714h.59c0,.217.031.621.092,1.273.063.62.093,1.117.124,1.459a4.846,4.846,0,0,1,4.067-2.608c1.582,0,2.389.838,2.389,2.08a1.736,1.736,0,0,1-1.893,1.956,1.8,1.8,0,0,1-1.521-.777,1.385,1.385,0,0,0-.9-.806C581.058,657.151,580.127,658.517,580.1,659.852Z" fill="#000000"/><path d="M597.167,654.606h1.055c0,.4-.031.776-.031,2.049s.031,1.676.031,1.955h-1.055a4.022,4.022,0,0,0-3.941-2.918c-1.211.032-2.08.683-2.08,1.646-.062,2.7,7.7,1.179,7.7,6.858-.093,3.074-2.049,4.532-4.935,4.532a6.02,6.02,0,0,1-4.221-1.273l-.5,1.056h-1.148a14.386,14.386,0,0,0,.093-2.142c0-.993-.031-1.614-.062-1.862a4.327,4.327,0,0,1-.031-.528h1.117a4.729,4.729,0,0,0,4.439,3.507c1.21-.031,2.358-.714,2.389-1.8-.031-3.1-7.79-1.615-7.727-6.86a4.515,4.515,0,0,1,1.054-2.917,4.639,4.639,0,0,1,3.663-1.49,5.793,5.793,0,0,1,3.662,1.148Z" fill="#000000"/></g><path d="M247.6,939.087l-.771.094a5.856,5.856,0,0,0-5.864-4.86c-4.228,0-6.213,4.158-6.213,8.667,0,1.122,0,8.808,6.4,8.808a6.118,6.118,0,0,0,6-4.952l.771.116-.584,3.738c-.444.163-2.313.911-2.71,1.051a11.856,11.856,0,0,1-4.111.7c-5.794,0-9.392-3.715-9.392-9.3,0-5,3.154-9.507,9.3-9.507a11.686,11.686,0,0,1,5.21,1.167,8.413,8.413,0,0,0,1.518.42Z" fill="#000000"/><path d="M255.418,939.018c4.322,0,6.448,3.433,6.448,6.727,0,3.271-2.126,6.705-6.448,6.705-4.3,0-6.494-3.364-6.494-6.705C248.924,942.381,251.12,939.018,255.418,939.018ZM253.152,950.3a2.679,2.679,0,0,0,2.36,1.5c2.78,0,3.06-3.645,3.06-5.607,0-2.266-.35-6.518-3.27-6.518-3.037,0-3.037,4.159-3.037,6.191A11.584,11.584,0,0,0,253.152,950.3Z" fill="#000000"/><path d="M267.1,955.814c0,.841.07,1.541,1.355,1.541h.4v.655h-6.588v-.655c1.308,0,1.7-.163,1.7-1.518V941.4c0-.28,0-1-.794-1a3.6,3.6,0,0,0-.677.093l-.094-.654,4.7-.817v1.728a4.425,4.425,0,0,1,3.761-1.728c3.832,0,5.209,3.339,5.209,6.633,0,4.626-2.592,6.8-5.7,6.8a4.91,4.91,0,0,1-3.271-1.1Zm0-6.05a2.86,2.86,0,0,0,2.757,2.032c1.5,0,2.919-.748,2.919-5.42,0-2.477-.466-5.887-3.153-5.887a2.754,2.754,0,0,0-2.523,1.542Z" fill="#000000"/><path d="M287,941.634a2.78,2.78,0,0,0,.256-.982c0-.584-.864-.607-1.261-.607h-.537v-.654h4.462v.654c-.794,0-1.449.047-2.033,1.4l-5.3,12.475c-.771,1.822-1.915,4.088-4.041,4.088a1.143,1.143,0,0,1-1.309-1.121c0-1.192,1.285-1.192,1.893-1.192,1.448,0,1.869,0,2.756-2.055l.7-1.636-4.345-10.536c-.537-1.308-.981-1.425-1.752-1.425v-.654h6.308v.654h-.374c-.234,0-1.028,0-1.028.584a3.091,3.091,0,0,0,.3,1.028l2.57,6.378Z" fill="#000000"/><path d="M295.33,949.88c0,1.379.42,1.542,1.705,1.542v.654h-6.517v-.654c1.284,0,1.705-.163,1.705-1.542V941.4c0-.256,0-1-.771-1a2.551,2.551,0,0,0-.7.117l-.093-.655,4.672-.84v1.634a4.372,4.372,0,0,1,3.364-1.634c1.448,0,2.032.84,2.032,1.587a1.539,1.539,0,0,1-1.565,1.519c-.818,0-1.121-.42-1.7-1.215a.818.818,0,0,0-.654-.349c-.561,0-1.122.537-1.472,1.26Z" fill="#000000"/><path d="M306.166,949.88c0,1.379.42,1.542,1.706,1.542v.654H301.33v-.654c1.285,0,1.706-.163,1.706-1.542V941.4c0-.256,0-1-.771-1a4.107,4.107,0,0,0-.7.093l-.093-.654,4.695-.817Zm.4-14.507a2,2,0,1,1-4,0,1.97,1.97,0,0,1,1.986-1.986A2.019,2.019,0,0,1,306.563,935.373Z" fill="#000000"/><path d="M308.64,954.553c0-1.776,1.5-2.687,2.663-3.155a1.815,1.815,0,0,1-1.4-1.658c0-1.379,1.566-2.173,2.523-2.663a3.93,3.93,0,0,1-2.92-3.878c0-2.757,2.267-4.181,4.789-4.181a5.937,5.937,0,0,1,3.248.911,4.4,4.4,0,0,1,2.8-1.356,1.324,1.324,0,0,1,1.425,1.332,1.187,1.187,0,0,1-1.215,1.192,1.583,1.583,0,0,1-1.1-.537c-.28-.282-.4-.4-.654-.4a1.175,1.175,0,0,0-.677.28,4.163,4.163,0,0,1,1.027,2.757c0,2.78-2.382,4.392-5.466,4.135-.4.187-1.472.654-1.472,1.215,0,.584.888.607,2.43.654,2.78.069,6.4.163,6.4,3.855,0,3.317-3.388,4.952-7.008,4.952C309.481,958.01,308.64,955.837,308.64,954.553Zm2.383-.374c0,1.308.841,3.013,3.6,3.013,2.266,0,3.807-1.4,3.807-3.2,0-1.659-1.168-1.939-2.452-2.1-.491-.047-2.968-.188-3.528-.258A2.967,2.967,0,0,0,311.023,954.179Zm5.139-10.98c0-.607,0-3.528-1.822-3.528-1.845,0-1.845,2.944-1.845,3.528,0,.561,0,3.5,1.845,3.5C316.162,946.7,316.162,943.76,316.162,943.2Z" fill="#000000"/><path d="M326.578,941.424a5.008,5.008,0,0,1,4.275-2.406,3.452,3.452,0,0,1,3.69,3.831v7.031c0,1.379.4,1.542,1.706,1.542v.654h-6.331v-.654c1.215,0,1.5-.3,1.5-1.542v-6.8c0-.49,0-2.43-1.915-2.43a3.141,3.141,0,0,0-2.92,2.244v6.984c0,1.262.3,1.542,1.518,1.542v.654h-6.331v-.654c1.285,0,1.705-.163,1.705-1.542V935.443c0-.28-.023-.981-.794-.981a3.132,3.132,0,0,0-.677.094l-.094-.655,4.673-.817Z" fill="#000000"/><path d="M341.43,935.232v4.159h3.364v.654H341.43v9.041c0,.467,0,1.846,1.355,1.846A2.532,2.532,0,0,0,344.7,950l.467.49a4.985,4.985,0,0,1-3.948,1.963c-2.92,0-2.92-2.523-2.92-3.247v-9.158h-1.706v-.631c.725-.023,3.248-.093,3.528-4.182Z" fill="#000000"/><path d="M354.791,948.945c2.032,0,2.382-.957,2.616-1.844l.7.139-1.1,4.836H346.077v-1.985c4.6-4.369,5.63-5.373,6.634-6.892a7.8,7.8,0,0,0,1.215-4.089c0-.653-.116-3.947-3.013-3.947-.444,0-2.64,0-4.065,3.083l-.608-.3a6.205,6.205,0,0,1,5.981-4.3,4.933,4.933,0,0,1,5.279,5.116c0,2.032-.771,4.064-4.648,6.868a38.79,38.79,0,0,0-4.346,3.316Z" fill="#000000"/><path d="M365.532,933.645c3.107,0,6.378,2.709,6.378,9.414.023,6.8-3.341,9.391-6.378,9.391s-6.354-2.639-6.354-9.391C359.178,936.1,362.635,933.645,365.532,933.645Zm-.023,18.127c1.308,0,2.78-.4,2.78-8.737,0-8.13-1.4-8.714-2.734-8.714-1.284,0-2.78.374-2.78,8.714C362.775,951.165,364.177,951.772,365.509,951.772Z" fill="#000000"/><path d="M379.755,949.74c0,1.168.21,1.658,1.566,1.658h1.051v.678h-8.691V951.4h1.075c1.378,0,1.565-.537,1.565-1.658V935.069l-2.36.42-.092-.747,5.886-1.1Z" fill="#000000"/><path d="M397.108,934.018v1.8c-5.233,6.869-5.863,10.537-6.05,14.765-.023.654-.07,1.869-1.939,1.869-.514,0-1.893-.094-1.893-1.565,0-1.589,1.426-4.415,1.776-5.07a64.694,64.694,0,0,1,6.191-8.713h-7.032c-2.126,0-2.617.49-3.13,2.336h-.678l1.121-5.42Z" fill="#000000"/><path d="M417.963,941.7h3.294l1-1.332c.211-.257.3-.351.468-.351.116,0,.21.047.514.257l1.892,1.332c.374.281.467.4.467.608,0,.4-.677.77-1,.934v2.266c0,.537.069,2.9.069,3.388,0,.513,0,1.1-1.844,1.215,2.055.327,3.62,1.074,3.62,2.663a1.511,1.511,0,0,1-1.472,1.542c-.677,0-.864-.141-2.569-1.356a24.883,24.883,0,0,0-5.187-2.849l.071-.281c1.051,0,2.663,0,4.322.14-.164-.14-.234-.257-.234-.864h-9.859c0,.514,0,1.238-2.056,1.238-1.027,0-1.191-.187-1.191-.841,0-.351.047-1.939.047-2.289v-4.673c0-.7,0-1.5-.07-2.173l3.5,1.426h3.176v-2.266h-7.312a17.625,17.625,0,0,0-1.822.093l-.35-.841c.677.047,1.4.093,2.359.093h3.341v-3.059H408.6a13.218,13.218,0,0,0-1.822.116l-.351-.864c.655.046,1.4.117,2.36.117h2.36c0-.094,0-1.239-.117-2.967l3.6.373c.21.023.584.07.584.4,0,.257-.094.281-.888.584v1.613h3.644c0-.071,0-1.262-.117-2.967l3.6.373c.21.023.584.07.584.4,0,.257-.07.281-.888.584v1.613h1.121l1.262-1.706c.21-.3.3-.326.4-.326.14,0,.4.233.444.28l1.939,1.775a.54.54,0,0,1,.163.327c0,.281-.257.281-.42.281H421.14v3.059h1.94l1.307-1.752c.211-.28.28-.327.4-.327.093,0,.163.024.443.28l2.01,1.846a.479.479,0,0,1,.163.327c0,.281-.257.281-.42.281h-9.018Zm-2.266,9.275c.07.046.491.256.491.443a.334.334,0,0,1-.374.35,4.074,4.074,0,0,1-.771-.14,26.833,26.833,0,0,1-9.415,2.43l-.093-.257c1.916-.981,5.373-2.71,6.681-4.6Zm-.771-8.622h-3.411v2.594h3.411Zm0,3.248h-3.411v2.756h3.411Zm3.037-9.881h-3.644v3.059h3.644Zm0,9.227h3.411v-2.594h-3.411Zm0,3.41h3.411v-2.756h-3.411Z" fill="#000000"/><path d="M445.265,937.522l1.215-1.869a.572.572,0,0,1,.421-.257.955.955,0,0,1,.49.21l2.5,1.916a.479.479,0,0,1,.21.351c0,.3-.327.3-.537.3H443c.77,1.518,2.9,3.178,4.227,3.178.772,0,1.309-.749,2.337-2.173l.257.117c-.024.28-.234,2.336-.234,2.359,0,.327.046.4.42.888a1.051,1.051,0,0,1,.234.724,1.668,1.668,0,0,1-1.892,1.612,10.414,10.414,0,0,1-1.332-.117c.561.4.631.444.631.654,0,.28-.257.444-.958.841V951.1c0,.327.047,1.706.047,2.009,0,1.028-1.612,1.1-2.336,1.1-.982,0-.982-.3-.982-1.075v-.42H435.08c0,.794,0,1.472-2.126,1.472-1.145,0-1.145-.4-1.145-.771,0-.023.047-1.986.047-2.36v-5.513c0-.888,0-1.144-.023-1.5-.468.094-.538.116-1.192.257-.07.4-.164.841-.537.841-.257,0-.374-.257-.491-.491l-1.588-3.411c1.121,0,1.284,0,2.663-.023V936.12c0-1.658-.07-2.383-.094-2.8l3.739,1.215c3.223-.468,8.292-1.5,10.7-2.71l3.644,2.009c.093.047.327.187.327.421,0,.14-.117.3-.42.3a4.405,4.405,0,0,1-.794-.164c-2.851.35-3.972.444-5.538.56a10.608,10.608,0,0,0,.468,2.57Zm-1.191,6.238a9.338,9.338,0,0,1-3.061-2.477,57.187,57.187,0,0,1-8.059,2.453l2.5.911h7.895Zm-4.789-6.238a13.477,13.477,0,0,1-.3-2.382c-1.378.069-2.242.092-4.883.116v2.266Zm-5.187,3.622c2.99-.094,3.318-.118,6.588-.3a8.127,8.127,0,0,1-1.238-2.664H434.1Zm.982,4.158v3.013h8.339V945.3Zm0,3.667v3.084h8.339v-3.084Z" fill="#000000"/><path d="M452.945,935.163c.467.724.958,1,2.265,1,.608,0,9.836-.654,10.28-.747.257-.047,1.354-.537,1.589-.537.934,0,2.546,1.845,2.546,2.546,0,.3-.14.4-.678.77a1.53,1.53,0,0,0-.561.865c-3.854,10.933-10.255,12.849-13.946,13.783l-.117-.257a22.521,22.521,0,0,0,9.578-10.98,17.547,17.547,0,0,0,1.262-3.878c0-.186-.187-.21-.328-.21a60.906,60.906,0,0,0-8.059,1.122,21.684,21.684,0,0,1-2.15.607c-1.074,0-2.289-1.822-2.289-2.851a2.682,2.682,0,0,1,.328-1.191Z" fill="#000000"/><path d="M472.351,937.031a3.019,3.019,0,0,1,1.636-.513,3.2,3.2,0,0,1,1.611.49c.7.374.772.4,1.1.4.094,0,7.757-.631,8.784-.864.257-.047,1.448-.631,1.728-.631.772,0,2.594,1.425,2.594,2.289a1.118,1.118,0,0,1-.444.8,1.958,1.958,0,0,0-.537,1.192c-.468,2.453-.935,4.9-1.448,7.335.887.4,1.261.911,1.261,1.4,0,.584-.467.98-1.215.98-.28,0-.654-.047-.934-.069-1.1-.094-2.01-.141-3.084-.141-.725,0-2.8.024-5.653.257-.047.911-.421,1.566-1.262,1.566-.654,0-1.215-.468-1.729-1.7-.233-.562-.233-.584-.233-2.1a81.355,81.355,0,0,0-.678-8.2c-.257-1.635-.888-1.962-1.518-2.2Zm12.171,10.4c.911-6.168,1.1-8.318,1.1-8.364,0-.327-.164-.4-.561-.4-1.191,0-7.312.841-7.359.841a2.683,2.683,0,0,1-.794-.163c.047.326.4,5.115.467,5.957.117,1.542.187,2.1.233,2.569C479.85,947.708,480.317,947.685,484.522,947.428Z" fill="#000000"/><path d="M493.417,934.929c2.15.234,7.313,1.285,7.313,4.322,0,.981-.538,1.985-1.473,1.985-.84,0-1.26-.7-1.7-1.4a16.169,16.169,0,0,0-4.252-4.672Zm.257,12.592a2.776,2.776,0,0,0,1.94.981c1.541,0,9.507-4.182,15.09-11.073l.234.163c-2.664,7.079-7.1,9.975-12.661,13.643-.188.117-.935.724-1.1.841a1.3,1.3,0,0,1-.77.28c-1.121,0-3.108-1.916-3.108-3.714a4.215,4.215,0,0,1,.117-1.051Z" fill="#000000"/><path d="M514.949,953.034a13.063,13.063,0,0,0,4.673-4.765,12.015,12.015,0,0,0,1.4-4.907,2.349,2.349,0,0,0-.3-1.215,26.425,26.425,0,0,0-3.761.772,16.052,16.052,0,0,1-2.033.49,2.734,2.734,0,0,1-2.126-2.476,4,4,0,0,1,.14-1l.257-.094a1.91,1.91,0,0,0,1.8.935c.748,0,9.111-.982,10.84-1.076a14.767,14.767,0,0,0,2.336-.256,5.416,5.416,0,0,1,.911-.117c.981,0,2.757,1.028,2.757,1.986,0,.49-.468.958-1.238.958-.071,0-1.87-.234-2.009-.257a23.751,23.751,0,0,0-3.037-.188c-.935,0-1.5.047-1.963.071.421.233.934.513.934.958a9.349,9.349,0,0,1-.42,1.121c-.093.327-.42,1.7-.491,1.985-1.635,5.841-6.845,6.962-8.526,7.336Zm1.262-18.082c.233.234.537.537,1.636.537a54.621,54.621,0,0,0,7.125-.7,3.176,3.176,0,0,1,1.215-.233c1.214,0,2.569.747,2.569,1.681,0,.794-1.168.794-1.776.794a42.667,42.667,0,0,0-5.863.327c-.468.047-2.547.421-2.99.421a2.342,2.342,0,0,1-2.243-2.126,1.931,1.931,0,0,1,.094-.607Z" fill="#000000"/><path d="M534.31,947.521a39.926,39.926,0,0,0,8.924-6.8c.42-.445,1.565-1.636,1.565-2.056,0-.468-.537-.725-.771-.841l.071-.28a2.542,2.542,0,0,1,1.027-.258c1.052,0,3.014,1.191,3.014,2.243,0,.4-.163.537-1.075,1.1-.374.3-1.144.981-1.518,1.309-.772.654-1.425,1.144-2.009,1.612.584.42.653.7.653.91a7.909,7.909,0,0,1-.116.795c-.023.257-.047.7-.047,1.565,0,1.028,0,2.289.024,3.294,0,.07.07,1.5.07,1.682,0,.28,0,1.635-1.122,1.635-1.191,0-1.611-1.682-1.611-2.289,0-.21.116-1.145.139-1.331.047-.608.071-1.262.071-2.641,0-.63,0-1.682-.047-2.242a21.186,21.186,0,0,1-7.1,2.826Z" fill="#000000"/><path d="M554.932,953.244a14.068,14.068,0,0,0,4.649-7.289,17.5,17.5,0,0,0,.561-3.667c0-.864-.374-1.215-1.332-1.636l.023-.28a3.736,3.736,0,0,1,1.822-.49,3.449,3.449,0,0,1,2.781,1.331,17.467,17.467,0,0,0,3.527-3.551,1.362,1.362,0,0,0,.28-.443c0-.117-.139-.141-.233-.141-.608,0-8.573,1.145-10.443,2.032-.958.445-1.051.515-1.379.515-1.121,0-2.732-1.589-2.732-3.178a5.132,5.132,0,0,1,.233-1.4l.257-.07a2.631,2.631,0,0,0,2.43,1.238c1.074,0,10.605-.958,11.681-1.121.3-.047,1.588-.491,1.868-.491,1.145,0,2.617,2.126,2.617,2.92,0,.561-.28.677-1.238,1.051-.071.024-2.267,1.472-2.71,1.729a24.019,24.019,0,0,1-4.182,2.1c-.117.468-.514,2.5-.631,2.921a11.08,11.08,0,0,1-7.709,8.129Z" fill="#000000"/><path d="M589.22,949.6c.911,1.028,1.7,1.8,2.92,1.8v.678h-5.327l-1.775-2.055a8.3,8.3,0,0,1-5.77,2.429c-3.528,0-5.139-2.453-5.139-4.7,0-2.1,1.168-3.784,4.088-5.63-1.542-1.752-1.916-2.9-1.916-4.158a4.289,4.289,0,0,1,4.485-4.321,3.742,3.742,0,0,1,4.042,3.55c0,1.986-1.589,2.9-3.131,3.808l5.046,5.747a10.048,10.048,0,0,0,1.776-4.019c0-.49-.42-.584-1.192-.584h-.98v-.677H592v.677h-1.028a1.74,1.74,0,0,0-1.729,1.309,21.1,21.1,0,0,1-1.985,3.9Zm-10.443-6.845a3.234,3.234,0,0,0-1.8,2.967c0,2.266,2.032,4.882,4.508,4.882a4.7,4.7,0,0,0,2.967-1.261Zm2.313-2.453a4.37,4.37,0,0,0,1.4-3.294c0-2.687-1.775-2.687-1.963-2.687a1.9,1.9,0,0,0-1.822,1.987c0,1.354.911,2.406,2.01,3.6Z" fill="#000000"/><path d="M609.911,940.536l1.472-2.173c.117-.21.233-.35.4-.35.187,0,.257.093.514.3l2.593,2.244a.5.5,0,0,1,.211.373c0,.256-.327.256-.515.256h-8.246V952.17h4.579L612.388,950c.116-.186.233-.351.443-.351.141,0,.164.024.468.281l2.616,2.243a.572.572,0,0,1,.187.373c0,.281-.3.281-.514.281H596.269a15.488,15.488,0,0,0-1.823.093l-.35-.841c.677.047,1.4.094,2.359.094h6.4V935a25.512,25.512,0,0,0-.117-2.8l3.878.374c.49.047.608.188.608.351,0,.327-.21.4-.888.631v6.985Z" fill="#000000"/><path d="M616.4,938.06c2.126.21,4.393.934,4.393,2.849a1.885,1.885,0,0,1-1.612,1.963c-.678,0-.794-.351-1.239-1.565a10.4,10.4,0,0,0-1.658-2.991Zm6.845-1.613c-.327,1.987-1.307,5.818-1.542,6.705-1.051,3.808-1.168,4.2-1.168,4.883,0,.537.094.677.725,2.079a3.707,3.707,0,0,1,.374,1.541,2.148,2.148,0,0,1-2.173,2.079c-.981,0-1.309-.49-1.309-1.284,0-.35.118-1.939.118-2.266,0-1.308-.234-2.266-1.566-2.827v-.28c1-.023,1.4-.047,1.94-.981a79.474,79.474,0,0,0,4.344-9.742Zm-5.84-3.737c2.15.257,4.906,1.1,4.906,3.106a1.916,1.916,0,0,1-1.682,2.01c-.725,0-.888-.4-1.425-1.8a8.438,8.438,0,0,0-1.916-3.06Zm15.442,6.214.771-1.051c.257-.351.327-.491.514-.491.163,0,.21.047.7.4l1.939,1.378a.515.515,0,0,1,.28.445c0,.256-.187.443-.935.817-.023,1.565-.023,1.728-.116,3.294h.069l.748-1.448c.14-.257.187-.327.3-.327.14,0,.21.093.374.3l1.074,1.448a.758.758,0,0,1,.164.4c0,.28-.281.28-.538.28h-2.242c-.164,2.616-.164,2.92-.3,4.462h.14l.818-1.659c.14-.257.257-.326.373-.326.188,0,.281.139.4.3l1.074,1.566a.856.856,0,0,1,.211.468c0,.3-.28.3-.607.3H635.6c-.351,3.457-.982,4.789-5.093,4.649-.071-1.822-.631-2.313-2.616-3.2l.023-.257c.607.023,2.687.139,3.083.139,1.052,0,1.215-.419,1.426-1.331h-6.261c-.164,1.378-.187,1.542-.4,1.729a2.889,2.889,0,0,1-1.893.467c-.911,0-1.027-.257-1.027-.677,0-.188.046-.327.233-1.589.094-.56.608-4.205.724-5.046-.608.024-.841.047-1.565.093l-.35-.841c.911.07,1.354.094,1.985.094.3-2.43.351-2.99.444-4.3a15.4,15.4,0,0,1-1.635,1.238l-.187-.21a28.4,28.4,0,0,0,3.224-8.5l3.411.888c.723.188.794.327.794.491,0,.281-.327.351-.864.42-.561.958-.794,1.309-1.168,1.846h5.629l1.262-1.8a.632.632,0,0,1,.467-.327.9.9,0,0,1,.514.257l2.313,1.869a.5.5,0,0,1,.21.351c0,.28-.327.3-.514.3H627.425a19.361,19.361,0,0,1-1.752,1.962l1.775.725Zm-6.1,5.443c-.07.654-.421,3.761-.515,4.462h1.73c.069-.631.373-3.738.467-4.462Zm.42-4.789c-.07.724-.28,3.153-.374,4.135h1.683c.186-2.15.21-2.827.28-4.135Zm5.35,9.251c.187-1.472.28-2.967.4-4.462H631.14l-.445,4.462Zm-1.1-9.251c-.024,1.145-.047,1.752-.233,4.135h1.751c.118-2.569.14-2.85.14-4.135Z" fill="#000000"/><path d="M642.51,953.244a14.061,14.061,0,0,0,4.649-7.289,17.5,17.5,0,0,0,.561-3.667c0-.864-.374-1.215-1.332-1.636l.023-.28a3.736,3.736,0,0,1,1.822-.49,3.447,3.447,0,0,1,2.781,1.331,17.467,17.467,0,0,0,3.527-3.551,1.362,1.362,0,0,0,.28-.443c0-.117-.139-.141-.233-.141-.608,0-8.573,1.145-10.442,2.032-.958.445-1.052.515-1.379.515-1.121,0-2.733-1.589-2.733-3.178a5.089,5.089,0,0,1,.234-1.4l.256-.07a2.631,2.631,0,0,0,2.43,1.238c1.074,0,10.606-.958,11.681-1.121.3-.047,1.588-.491,1.868-.491,1.145,0,2.617,2.126,2.617,2.92,0,.561-.28.677-1.238,1.051-.07.024-2.267,1.472-2.71,1.729a23.982,23.982,0,0,1-4.182,2.1c-.117.468-.513,2.5-.631,2.921a11.079,11.079,0,0,1-7.709,8.129Z" fill="#000000"/><path d="M662.385,935.326a2.618,2.618,0,0,1,1.589-.607c1.121,0,3.059,1.028,3.059,1.892a3.149,3.149,0,0,1-.21.911,4.449,4.449,0,0,0-.07,1.075c0,.794.07,4.345.07,5.069,0,.772,0,2.383-1.4,2.383-1.332,0-1.822-2.009-1.822-2.734,0-.186.046-.3.163-1.26.047-.327.047-1.122.047-1.473,0-3.434-.071-3.644-.187-4.041-.187-.607-.725-.794-1.262-.958Zm8.2-.934a2.992,2.992,0,0,1,2.032-.818c1.168,0,3.224.935,3.224,1.915,0,.3-.351,1.613-.374,1.869-.071.8-.071,4.205-.093,4.907-.211,5.793-1.706,9.484-9.135,11.166l-.117-.257c6.074-3.551,6.121-6.634,6.121-16.072,0-1.87,0-2.033-1.658-2.454Z" fill="#000000"/><path d="M679.012,952.029a26.738,26.738,0,0,0,11.4-12.591,13.316,13.316,0,0,0,.748-1.823c0-.069-.07-.093-.14-.093a33.914,33.914,0,0,0-6.214,1.449c-.794.4-.888.443-1.192.443-1.028,0-2.126-1.845-2.126-2.826a3.427,3.427,0,0,1,.374-1.425l.281-.047a1.828,1.828,0,0,0,1.961,1.145c.7,0,6.588-.49,7.36-.865a4.318,4.318,0,0,0,.794-.513.978.978,0,0,1,.513-.188c.819,0,2.781,1.613,2.781,2.43,0,.257-.024.257-.747.817-.235.164-.3.3-.982,1.589a42.474,42.474,0,0,1-2.686,4.6c2.826,1.237,6.774,3.316,6.774,5.98a1.662,1.662,0,0,1-1.518,1.822c-.818,0-1.028-.4-1.705-1.729a22.539,22.539,0,0,0-4.065-5.373,18.406,18.406,0,0,1-11.518,7.452Z" fill="#000000"/><path d="M707.458,944.3c3.037,1.074,4.767,3.107,4.767,4.765a2.6,2.6,0,0,1-.211,1.122c.654.046,2.57.187,3.06.187,1.1,0,1.448-.327,1.752-2.663a113.524,113.524,0,0,0,.445-12.288h-5.748a19.3,19.3,0,0,0-2.055.093l-.28-.841c.676.047,1.4.094,2.335.094h5.491l1.1-1.379c.187-.257.281-.35.514-.35a1.213,1.213,0,0,1,.631.3l2.056,1.542a.611.611,0,0,1,.35.513c0,.234-.117.42-.958.841-.21,15.676-.257,17.732-6.354,17.918-.023-1.121-.046-2.92-2.5-3.621a1.641,1.641,0,0,1-1.519.911c-.725,0-.981-.257-1.191-.981-.094-.28-.328-1.588-.374-1.845-1.425.888-2.219,1.215-6.5,3.036-.093.608-.164.911-.491.911-.3,0-.42-.256-.584-.7l-1.4-3.621c.841,0,1.028-.023,2.78-.094a51.022,51.022,0,0,0,2.593-4.836,1.931,1.931,0,0,1-1.168.421c-.888,0-1.051-.421-1.542-1.822a13.813,13.813,0,0,0-2.126-3.878l.141-.21a11.474,11.474,0,0,1,2.476.771,33.684,33.684,0,0,0,1.378-6.424l3.784,1.354c.445.163.678.257.678.491,0,.4-.584.42-1.051.444a34.856,34.856,0,0,1-3.971,4.556,3.58,3.58,0,0,1,2.126,2.686,36.653,36.653,0,0,0,1.658-4.556l3.317,1.916c.678.4.748.444.748.63,0,.421-.561.421-.654.421a2.02,2.02,0,0,1-.4-.047,78.9,78.9,0,0,1-6.681,8.013c.631-.046,3.808-.257,4.649-.327a17.666,17.666,0,0,0-1.238-3.224Z" fill="#000000"/><path d="M732.122,946.119c0-.421-.047-2.032-.07-2.265a3.919,3.919,0,0,1-.935.116,1.661,1.661,0,0,1-.584-.094,1.467,1.467,0,0,1-1.285.865c-.7,0-.794-.654-.841-.911-.023-.164-.094-.888-.117-1.052-1.472.888-2.9,1.613-3.574,1.94-.07.42-.163.677-.4.677-.164,0-.28-.21-.374-.491l-.981-2.92c.7.024,1.682.024,2.056.024.187-.351.56-1.029,1.1-2.22a1.076,1.076,0,0,1-.724.233c-.725,0-.818-.443-1.168-1.611a10.011,10.011,0,0,0-1.122-2.476l.164-.234a6.709,6.709,0,0,1,1.7.537,24.228,24.228,0,0,0,.748-4.088l2.943,1.122c.468.186.607.28.607.49,0,.327-.28.327-.911.35a19.551,19.551,0,0,1-2.592,2.617,2.363,2.363,0,0,1,1,1.588,21.612,21.612,0,0,0,1.052-3.013l2.5,1.238c-.023-1.238-.023-1.378-.094-2.43l1.776.818c.047-.444.094-1.215.094-1.892,0-.094-.024-.421-.047-.888l3.341.561c.466.07.607.186.607.4,0,.258-.07.281-.818.4a19.907,19.907,0,0,1-1.776,1.846h1.215l.841-.912c.141-.163.211-.233.374-.233.117,0,.233.024.491.233l1.237,1a.751.751,0,0,1,.351.584.312.312,0,0,1-.047.21,7.385,7.385,0,0,1,.725.257,29.133,29.133,0,0,0,.631-4.252l2.943,1.029c.374.139.584.233.584.466,0,.3-.28.3-.817.327a18.788,18.788,0,0,1-2.571,2.851,2.485,2.485,0,0,1,1.029,1.261c.21-.537.747-2.009,1-2.826l2.664,1.4c.466.233.513.351.513.491,0,.28-.186.28-.794.3-.818.98-1.425,1.611-2.219,2.429l.186-.117c1.285.514,2.78,1.542,2.78,3.061a1.484,1.484,0,0,1-1.518,1.588c-.818,0-.864-.444-.982-1.776-.49.257-2.849,1.4-3.386,1.683-.071.373-.164.607-.351.607s-.257-.234-.351-.491l-.723-2.265c.022.28.022.631.022.77,0,.515-.537.888-1.868.888-.8,0-.8-.3-.8-.631v-.4h-1.7c0,.443-.023.676-.537.887l3.061.327c.373.046.584.093.584.328s-.257.349-.655.49v1.191h4.86l1.237-1.8c.141-.186.234-.327.421-.327.117,0,.21.07.468.28l2.055,1.823a.546.546,0,0,1,.234.4c0,.28-.257.28-.492.28h-8.526a19.892,19.892,0,0,0,9.484,3.061l-.023.28c-.443.257-1.354.841-1.845,3.317a14.965,14.965,0,0,1-7.873-5.84v3.247c0,.3.047,1.822.047,2.173,0,.513,0,1.215-2.313,1.215-.747,0-.957-.164-.957-.725,0-.374.023-2.1.023-2.5v-2.337a19.822,19.822,0,0,1-9.368,4.813l-.117-.257c1.729-1.168,5.257-3.551,7.1-6.448H725.09a15.342,15.342,0,0,0-1.822.093l-.351-.841c.678.047,1.426.094,2.359.094Zm-4.275-5.98c-.911.981-1.239,1.308-1.8,1.822.28,0,1.425-.047,2.126-.094C727.94,940.582,727.917,940.442,727.847,940.139Zm2.242-2.781a21.609,21.609,0,0,1-2.009,2.524,4.912,4.912,0,0,1,2.243,1.891v-4.415Zm2.78-1.354v2.733h1.7V936Zm1.7,3.387h-1.7v2.85h1.7Zm2.617,2.5h1.378c.3-.561.608-1.145.935-1.776a1.2,1.2,0,0,1-.327.047c-.584,0-.608-.164-.911-1.379a10.321,10.321,0,0,0-.771-2.242c-.141.07-.164.094-.3.163Zm2.289,0c.655-.024.841-.047,2.407-.14-.024-.188-.351-1.589-.374-1.73A22.1,22.1,0,0,1,739.48,941.891Z" fill="#000000"/><path d="M749.5,933.878h12.312l1.074-1.238c.233-.281.3-.328.468-.328a1.014,1.014,0,0,1,.537.234l1.985,1.472c.28.211.444.327.444.584,0,.35-.35.561-1.051.958V949.6c0,.444.07,2.617.07,3.13,0,.538,0,1.286-2.453,1.286-.911,0-.911-.374-.911-1.076v-.584h-12.5c0,.935,0,1.168-.351,1.356a5.737,5.737,0,0,1-2.079.373c-.771,0-.935-.28-.935-.888,0-.4.071-2.312.071-2.757V935.4c0-1.822-.071-2.546-.094-2.9Zm-.023,5.326c.654.047,1.471.07,2.149.07h4.321v-1.986c0-.677,0-1.5-.069-2.336l3.34.351c.234.023.538.07.538.327,0,.21-.3.35-.7.467v3.177h.467l.818-1.355c.069-.14.163-.257.3-.257a.41.41,0,0,1,.349.211l.982,1.237v-4.578h-12.5Zm12.5.725h-2.92v5.886c0,.351.07,2.08.07,2.477,0,2.266-1.028,2.687-4.182,2.8-.023-1.588-.374-2.219-2.266-3.037v-.281l2.5.047c.7.024.77-.186.77-.607v-7.288H751.6c-.772,0-.982.023-2.033.092l-.093-.233V951.7h12.5ZM750.8,941.144c1.635.326,4,1.4,4,3.339a1.675,1.675,0,0,1-1.635,1.776c-.935,0-1.052-.444-1.285-1.472a19.141,19.141,0,0,0-1.238-3.433Z" fill="#000000"/></g></svg>
