<svg xmlns="http://www.w3.org/2000/svg" width="1000" height="988" viewBox="0 0 1000 988"><g id="Artboard"><rect id="Page" width="1000" height="988" fill="#fff"/></g><g id="Text"><g id="幻想曲抜萃_東方萃夢想_黄昏フロンティア_上海アリス幻樂団" data-name="幻想曲抜萃 東方萃夢想 黄昏フロンティア 上海アリス幻樂団"><path d="M99.014,173.217a45.427,45.427,0,0,0-8.493-10.55l1.108-.832a59.812,59.812,0,0,1,11.815,8.329q5.167,4.724,5.539,8.328-1.479,6.663-5.539,2.5l-2.215-3.609q-19.575-4.166-36.555,2.221-5.175,1.945-2.953-5.831l5.169-.555,15.877-15.824-15.139-5.83-.369-1.111,15.508-20.821q.735-.834,3.323,1.11t2.216,2.5L73.167,149.064l12.185,5.553,8.861-9.995q1.109-1.106,3.693,1.111,2.578,1.945,1.477,3.054L71.321,172.94A125.581,125.581,0,0,1,99.014,173.217Zm48-34.98q3.322.833,3.692,2.221t-2.585,2.776a101.535,101.535,0,0,1-2.954,24.986q-3.322,12.773-8.123,14.714-7.391,2.772-20.308-.555v-1.11q13.293-1.388,17.354-3.887,4.8-2.772,7.385-15.547a105.68,105.68,0,0,0,1.846-20.267,166.62,166.62,0,0,0-42.093-4.164c-1.477,0-2.342-.555-2.584-1.666a2.292,2.292,0,0,1,2.584-1.943A199.2,199.2,0,0,1,147.015,138.237Z" fill="#000000" stroke="#000000" stroke-miterlimit="10" stroke-width="2.25"/><path d="M184.364,157.67q-3.324,2.78-11.447,0v-1.11a52.587,52.587,0,0,0,24.739-15.825v-1.387q-9.234,0-14.769.555c-1.477,0-2.343-.46-2.585-1.388q-.372-1.666,1.846-1.944,5.9-.273,15.508-.278v-6.385q0-1.386,2.216-1.665,2.215.279,2.215,1.665v6.385a76.979,76.979,0,0,1,11.447.833q1.842.28.369,1.944a4.727,4.727,0,0,1-3.323,1.388,61.616,61.616,0,0,0-8.493-1.11v18.878q0,3.058-2.215,3.331-2.216-.273-2.216-3.331V144.345A54.716,54.716,0,0,1,184.364,157.67Zm8.123,7.774a27.437,27.437,0,0,1-8.123,17.768q-4.068,3.6-5.908-4.442a37.682,37.682,0,0,0,12.554-13.6Zm36.555,10.827q13.656,3.332,34.708,2.776l.738,1.111a17.258,17.258,0,0,1-8.123,4.442q-5.175,1.665-8.862.555-22.9-6.936-32.492-8.328-9.235-1.107-15.139,1.665-4.431,1.392-1.108-3.887l2.954-.277,5.169-10.272q3.687-3.053,4.062,1.388l-4.431,8.606A130.836,130.836,0,0,1,229.042,176.271Zm-25.108-33.314q9.6,3.611,9.6,7.5-1.481,6.11-5.17,1.111a29.67,29.67,0,0,0-5.538-7.773ZM222.4,132.129a187.848,187.848,0,0,1,28.8,0q6.273,1.113,1.846,3.887v23.043q3.323,5.556-4.8,2.776a138.424,138.424,0,0,0-24.739,0q-7.755,2.225-4.431-2.776V134.35l-1.108-2.776,1.108-.833Zm1.107,3.054v5.83a142.839,142.839,0,0,1,25.108,0v-5.83A142.839,142.839,0,0,0,223.5,135.183Zm25.108,14.159V143.79a113.935,113.935,0,0,0-25.108,0v5.552A142.615,142.615,0,0,1,248.611,149.342ZM223.5,152.118v6.663a142.615,142.615,0,0,1,25.108,0v-6.663A114.057,114.057,0,0,0,223.5,152.118Zm7.016,11.66c2.457.742,3.323,1.389,2.584,1.944l-7.754,6.385-1.477-.278,2.585-8.329C226.7,162.945,228.055,163.041,230.519,163.778Zm14.031,5.275c1.719,1.484,2.215,2.317,1.476,2.5l-12.184,2.776-1.108-.833,8.123-6.108C241.838,167.019,243.073,167.574,244.55,169.053Z" fill="#000000" stroke="#000000" stroke-miterlimit="10" stroke-width="2.25"/><path d="M346.146,129.908c1.229.187,1.847.742,1.847,1.666l-1.108,12.771q8.861.279,19.569,1.388,5.538,1.113,1.108,4.164l-2.215,29.428q2.951,5.831-5.539,2.776a270.331,270.331,0,0,0-58.709-.277q-8.125,3.051-5.169-2.777l-1.477-28.595-2.585-4.442,1.108-.833,4.062.556q11.813-1.107,17.354-1.388l-1.108-12.771c0-.924.612-1.479,1.846-1.666a2.211,2.211,0,0,1,2.585,1.388l1.108,12.771h23.631l1.108-12.771A2.2,2.2,0,0,1,346.146,129.908ZM315.5,159.614l-.739-11.938q-6.284.281-15.877,1.666l.738,11.1Q307.74,159.894,315.5,159.614Zm1.107,17.768-.738-14.437q-7.019,0-16.247.833l.739,14.714Q305.9,177.94,316.607,177.382Zm2.585-29.984.738,11.938h21.416l.738-11.938Zm1.108,15.269.738,14.437h19.2l.739-14.437Zm33.231,1.111q-1.853-.273-8.123-.833l-.739,14.437q6.647.279,16.247,1.11l1.107-14.992Q358.7,164.894,353.531,163.778Zm9.6-14.714a151.99,151.99,0,0,0-16.615-1.388l-.739,11.938q7.754.279,16.616,1.11Z" fill="#000000" stroke="#000000" stroke-miterlimit="10" stroke-width="2.25"/><path d="M416.357,158.5a52,52,0,0,1,9.6-.833q3.322,0,1.477,2.222a4.052,4.052,0,0,1-4.062,1.943,32.307,32.307,0,0,0-7.016.277v12.216q0,6.944-2.585,8.051a45.969,45.969,0,0,1-15.507,2.776l-.369-1.111q14.028-5.27,14.03-9.716v-11.1a30.512,30.512,0,0,0-9.969,4.442q-5.175,2.225-2.585-5a110.092,110.092,0,0,1,12.554-3.331V146.01H400.111a1.734,1.734,0,1,1,0-3.331h11.815V130.741q0-1.386,2.216-1.666,2.216.281,2.215,1.666v11.938h9.231a1.734,1.734,0,1,1,0,3.331h-9.231Zm73.109,20.544.369,1.389q-7.752,5-14.769,3.053a75.927,75.927,0,0,1-18.831-8.606A85.638,85.638,0,0,1,432.6,185.155q-5.175,1.386-8.862-3.054l.369-1.11q19.94-2.772,28.8-8.329l-9.231-5.83q-1.48-2.218,1.846-1.665l9.97,5.274a26.108,26.108,0,0,0,7.015-8.884,56.821,56.821,0,0,0-12.924-4.442q-6.645,9.721-19.569,15.547-5.175,2.5-9.969-1.388v-1.11q14.763-4.165,21.415-10.55a23.022,23.022,0,0,0,7.016-14.437q-4.8,0-15.139,1.111-2.587,0-2.954-1.666t2.216-1.943q9.225-.833,16.246-.833.363-5,.369-11.383,0-1.385,2.216-1.665,2.215.279,2.215,1.665,0,6.39-.369,11.383a251,251,0,0,1,28.062,1.111q3.687.56,1.477,2.5a7.758,7.758,0,0,1-5.538,1.666q-15.508-2.219-24.37-1.944a38.436,38.436,0,0,1-2.215,9.44,80.246,80.246,0,0,1,14.769,4.164q5.9,2.226.369,4.719a38.958,38.958,0,0,1-6.646,8.884A87.709,87.709,0,0,0,489.466,179.047Z" fill="#000000" stroke="#000000" stroke-miterlimit="10" stroke-width="2.25"/><path d="M558.569,182.934q0,3.052-2.215,3.332-2.216-.28-2.215-3.332V174.05a360.613,360.613,0,0,0-36.186,2.221q-2.586.281-2.954-1.666-.372-2.218,2.585-2.221,18.833-1.386,36.555-1.665v-6.941q0-1.386,2.215-1.666,2.216.281,2.215,1.666v6.941q15.871,0,37.293,1.388,5.168.279,5.17,1.665-1.853,4.166-9.97,3.055-13.291-2.772-32.493-2.777Zm7.016-53.026q0-1.105,4.061-.833,3.687.56,3.324,1.666l-1.477,3.054q10.333.279,20.308,1.11,4.431.559,1.477,2.777a9,9,0,0,1-7.384,1.388,90.843,90.843,0,0,0-15.509-1.666l-3.323,6.663-1.477-.277v-6.664H547.123v6.664l-1.477.277-3.323-6.663q-12.557.559-21.416,1.388c-1.724,0-2.712-.555-2.954-1.666q0-1.665,2.216-1.943,11.813-.833,21.047-1.11l-1.478-3.332q-.372-1.106,3.324-1.666,4.059-.273,4.061.833v3.887h18.462Zm-24.369,21.655q-.372,9.72-10.708,14.714-5.539,2.5-10.708-1.944l.369-1.11q17.351-2.5,18.093-11.66Q539.732,149.343,541.216,151.563Zm15.138-13.048q2.216.279,2.215,1.665v5.275q14.03,0,28.432.833,4.431.28,2.216,2.5a6.9,6.9,0,0,1-5.908,1.665q-8.863-1.665-23.631-1.388-15.88-.273-30.648.833c-1.476,0-2.342-.555-2.584-1.666q0-1.665,2.215-1.943,13.658-.833,25.478-.833V140.18Q554.139,138.794,556.354,138.515Zm-4.431,25.818q-1.107,5.279-4.062,1.944a29.893,29.893,0,0,0-7.015-6.941l.37-1.11Q551.548,160.451,551.923,164.333ZM582.939,152.4q-.372,8.055-9.6,13.326-5.175,2.225-10.339-1.666l.37-1.111q15.135-2.218,16.615-10.549Q581.457,150.178,582.939,152.4Zm12.185,12.771q-.372,4.443-3.692,1.943a30.61,30.61,0,0,0-8.123-7.5l.369-1.111Q594.754,161,595.124,165.167Z" fill="#000000" stroke="#000000" stroke-miterlimit="10" stroke-width="2.25"/><path d="M69.011,213.981a32.215,32.215,0,0,1-8.547,5.216q-1.486.558-3.344-.931l.124-.373a30.878,30.878,0,0,0,11.148-4.377Q69.382,213.236,69.011,213.981ZM70.5,201.408q.744.093.743.558v1.77q3.717,0,9.043.186,1.98.095.867.932a2.994,2.994,0,0,1-2.106.651,68.615,68.615,0,0,0-7.8-.558v1.49q1.98,0,6.07.186,2.722.374,1.115,1.4v3.911q1.236,1.865-1.487,1.118-3.469-.186-5.7-.187v6.427q0,1.025-.743,1.118-.744-.094-.743-1.118v-6.427q-2.108,0-5.451.187-2.725.745-1.486-1.118v-4.377l-.62-.932.372-.279,1.239.279q3.716-.184,5.946-.186v-1.49q-4.338,0-9.291.372-.867.095-.991-.558-.124-.745.867-.745,5.7-.28,9.415-.28v-1.77Q69.755,201.5,70.5,201.408Zm-.743,7.637v-1.49q-2.108,0-5.451.186v1.49Q67.649,209.045,69.755,209.045Zm-5.451,1.21v1.677q3.345-.184,5.451-.186v-1.677Q67.648,210.069,64.3,210.255Zm12.635-2.514q-3.469-.186-5.7-.186v1.49q2.106,0,5.7.186Zm-5.7,4q2.106,0,5.7.186v-1.677q-3.469-.184-5.7-.186Zm1.487,1.862A44.313,44.313,0,0,0,85.239,217.8l.124.372q-3.1,1.491-5.327.652a63.687,63.687,0,0,1-7.928-4.657Q71.612,213.329,72.728,213.608Z" fill="#000000" stroke="#000000" stroke-miterlimit="10" stroke-width="0.5"/><path d="M92.006,207.275c-.578.063-.95-.093-1.114-.465q-.126-.651.743-.839a89.037,89.037,0,0,1,11.024-.652v-3.166q0-.559.867-.653.744.189.744.653v3.166q3.094,0,6.441.186,3.467.189,5.574.466,1.362.189.372,1.118a4.467,4.467,0,0,1-2.849.466,45.631,45.631,0,0,0-11.768-1.025v2.887a64.218,64.218,0,0,1,8.3,2.049q1.859.747.248,1.584.247,5.961-3.22,7.358a3.309,3.309,0,0,1-4.212-.932l.248-.465q3.591,0,4.583-1.584.99-1.488.867-5.122a48.8,48.8,0,0,0-7.061-1.77q-1.983,4.844-8.175,7.637a5.2,5.2,0,0,1-5.2-.372l.124-.466q12.014-2.606,12.016-8.755V206.53Q96.095,206.718,92.006,207.275Z" fill="#000000" stroke="#000000" stroke-miterlimit="10" stroke-width="0.5"/><path d="M135.267,219.755q0,1.024-.744,1.118-.743-.093-.743-1.118v-2.98a120.746,120.746,0,0,0-12.139.746q-.869.093-.992-.56-.124-.744.868-.745,6.318-.465,12.263-.558v-2.329q0-.465.743-.558.744.093.744.558v2.329q5.324,0,12.511.465,1.732.095,1.734.559-.621,1.4-3.345,1.025a54.289,54.289,0,0,0-10.9-.932Zm2.353-17.789c0-.247.453-.34,1.363-.279q1.236.188,1.115.559l-.5,1.025q3.467.093,6.813.372,1.487.188.5.931a3.019,3.019,0,0,1-2.478.466,30.391,30.391,0,0,0-5.2-.559l-1.114,2.235-.5-.093v-2.235h-6.194v2.235l-.495.093-1.115-2.235q-4.212.188-7.185.466c-.578,0-.909-.186-.99-.559q0-.558.743-.652,3.963-.279,7.06-.373l-.495-1.117q-.125-.371,1.115-.559,1.362-.091,1.362.279v1.3h6.194Zm-8.176,7.265q-.124,3.261-3.592,4.936a3.166,3.166,0,0,1-3.592-.651l.124-.373q5.822-.838,6.07-3.912Q128.947,208.487,129.444,209.231Zm5.079-4.377q.744.093.744.559v1.769q4.706,0,9.538.279,1.486.094.743.839a2.315,2.315,0,0,1-1.982.558,40.742,40.742,0,0,0-7.928-.465q-5.328-.092-10.281.279c-.5,0-.786-.186-.867-.559q0-.558.743-.652,4.581-.279,8.547-.279v-1.769Q133.78,204.948,134.523,204.854Zm-1.486,8.662q-.372,1.77-1.363.651a10.049,10.049,0,0,0-2.353-2.328l.123-.373Q132.911,212.213,133.037,213.516Zm10.405-4q-.125,2.7-3.22,4.47a3.294,3.294,0,0,1-3.469-.559l.124-.372q5.077-.744,5.574-3.539Q142.945,208.766,143.442,209.511Zm4.088,4.284q-.124,1.491-1.239.652a10.265,10.265,0,0,0-2.725-2.515l.124-.372Q147.406,212.4,147.53,213.8Z" fill="#000000" stroke="#000000" stroke-miterlimit="10" stroke-width="0.5"/><path d="M156.438,211.932l-.5,3.167a.879.879,0,0,1-.867.559c-.495-.061-.743-.28-.743-.653l.5-3.073-.247-1.211.371-.279.867.372q4.953-.184,11.273-.279,7.554.095,11.891.279,1.98.374.5,1.4l.372,2.794c0,.373-.248.592-.744.653a.876.876,0,0,1-.867-.559l-.371-3.167q-5.328-.279-10.282-.279l-.5.558A37.327,37.327,0,0,1,171.8,213.7q1.733.839.124,1.4a21.843,21.843,0,0,1-10.529,5.215,4.05,4.05,0,0,1-3.717-1.024l.248-.373a25.009,25.009,0,0,0,7.68-1.3,8.724,8.724,0,0,0-2.477-2.514,14.608,14.608,0,0,1-2.6,1.117,2.757,2.757,0,0,1-2.6-.652l.124-.372a17.52,17.52,0,0,0,8.176-3.539Q162.137,211.653,156.438,211.932Zm13.625-10.338q0-.37,1.363-.28t1.115.466l-.5.931q3.593.094,7.185.373,1.734.188.744.932a4.09,4.09,0,0,1-2.726.465,44.513,44.513,0,0,0-5.7-.559l-.991,1.491-.5-.094v-1.583h-6.069v1.583l-.5.094-.868-1.584q-4.212.188-7.184.466-.869,0-.991-.559,0-.559.743-.652,3.591-.279,6.937-.373l-.5-.838q-.249-.37,1.115-.559c.825-.061,1.239.033,1.239.28v1.024h6.069Zm-12.634,3.819,1.238.465q8.423-.37,17.343,0,2.229.279.866,1.3v1.49q1.116,1.956-1.486,1.025-8.175-.372-16.351,0-2.6.932-1.486-1.025v-1.956l-.5-1.024Zm5.946,3.073v-1.77l-4.336.187v1.769Zm3.592,8.662a13.463,13.463,0,0,0,3.592-2.515,16.212,16.212,0,0,0-4.335-1.583,21.836,21.836,0,0,1-2.478,1.676Q167.212,215.659,166.967,217.148Zm2.23-10.432h-4.336v1.77H169.2Zm1.486,0v1.77l4.707.186V206.9Z" fill="#000000" stroke="#000000" stroke-miterlimit="10" stroke-width="0.5"/><path d="M188.1,211.28q-1.116.931-3.84,0v-.372a17.641,17.641,0,0,0,8.3-5.309v-.466q-3.1,0-4.955.186c-.5,0-.786-.154-.867-.465q-.125-.56.619-.652,1.98-.091,5.2-.094v-2.142q0-.465.743-.558.744.093.743.558v2.142a25.852,25.852,0,0,1,3.841.28c.412.063.452.279.123.652a1.58,1.58,0,0,1-1.115.465,20.753,20.753,0,0,0-2.849-.372v6.333q0,1.026-.743,1.118-.743-.091-.743-1.118V206.81A18.365,18.365,0,0,1,188.1,211.28Zm2.725,2.608a9.212,9.212,0,0,1-2.725,5.961q-1.365,1.209-1.982-1.491a12.631,12.631,0,0,0,4.211-4.563Zm12.263,3.633a45.253,45.253,0,0,0,11.644.931l.248.372a5.788,5.788,0,0,1-2.725,1.49,5.009,5.009,0,0,1-2.973.186,87.134,87.134,0,0,0-10.9-2.793,9.314,9.314,0,0,0-5.079.559q-1.487.467-.371-1.3l.991-.093,1.734-3.446q1.236-1.023,1.362.466l-1.486,2.887A43.809,43.809,0,0,1,203.092,217.521Zm-8.423-11.177q3.219,1.211,3.221,2.514-.5,2.05-1.735.373a9.938,9.938,0,0,0-1.858-2.608Zm6.193-3.633a63.085,63.085,0,0,1,9.662,0q2.106.373.62,1.3v7.73q1.114,1.864-1.61.931a46.554,46.554,0,0,0-8.3,0q-2.6.747-1.486-.931v-8.289l-.372-.932.372-.279Zm.372,1.025v1.956a47.772,47.772,0,0,1,8.423,0v-1.956A47.965,47.965,0,0,0,201.234,203.736Zm8.423,4.75v-1.863a38.26,38.26,0,0,0-8.423,0v1.863A47.955,47.955,0,0,1,209.657,208.486Zm-8.423.931v2.236a47.762,47.762,0,0,1,8.423,0v-2.236A38.26,38.26,0,0,0,201.234,209.417Zm2.354,3.912c.824.249,1.115.466.867.652l-2.6,2.142-.5-.093.867-2.794Q202.347,212.957,203.588,213.329Zm4.707,1.77q.866.747.5.838l-4.088.931-.372-.279,2.725-2.049Q207.549,214.354,208.3,215.1Z" fill="#000000" stroke="#000000" stroke-miterlimit="10" stroke-width="0.5"/><path d="M574.559,941.439c.379.048.567.191.567.427v1.208q.944,0,2.931.143c.378.048.567.213.567.5-.063.284-.316.427-.757.427q-1.891-.142-2.741-.143v1.849q2.837,0,5.956.213,1.227.143.378.711a3.116,3.116,0,0,1-2.08.355,49.83,49.83,0,0,0-7.941-.5v1.279q2.079,0,5.483.143,1.8.284.567,1.066v3.056q.852,1.493-1.134.782a82.111,82.111,0,0,0-10.777,0q-1.985.713-1.135-.782v-3.483l-.283-.782.283-.213,1.04.356q2.931-.142,4.822-.143v-1.279q-5.106.072-9.453.427c-.442,0-.695-.143-.757-.427,0-.284.189-.449.567-.5q3.213-.214,5.956-.284V944q-1.136,0-2.741.143c-.442,0-.694-.143-.757-.427,0-.284.19-.449.568-.5q1.7-.143,2.93-.143v-1.208c0-.236.189-.379.568-.427.377.048.566.191.566.427V943h6.24v-1.137C573.992,941.63,574.181,941.487,574.559,941.439Zm-13.046,13.932.094-.284a18.438,18.438,0,0,0,6.524-1.92l.378.214a11.6,11.6,0,0,1-3.781,2.558A3.19,3.19,0,0,1,561.513,955.371ZM570.3,949.9v-1.208q-1.8,0-4.727.143v1.208Q568.507,949.9,570.3,949.9Zm-4.727.925v1.35q2.929-.141,4.727-.142v-1.35Q568.508,950.68,565.578,950.822Zm2.174-6.894v1.847h6.24v-1.847Zm3.687,4.761V949.9q1.8,0,4.916.143v-1.208Q573.328,948.69,571.439,948.689Zm4.916,2.133q-3.027-.141-4.916-.142v1.35q1.8,0,4.916.142Zm-3.214,2.345a25.191,25.191,0,0,0,7.279,1.849l.1.284a3.72,3.72,0,0,1-3.687.639,21.917,21.917,0,0,1-3.971-2.417Z" fill="#000000" stroke="#000000" stroke-miterlimit="10" stroke-width="0.4"/><path d="M594.112,943.074l1.607,1.564q3.024-.069,7.846.214,1.039.143.19.781a2.59,2.59,0,0,1-1.891.355,32.693,32.693,0,0,0-5.2-.568,15.654,15.654,0,0,0,10.4,2.559l.189.284q-1.324,1.636-2.552,1.422a19.056,19.056,0,0,1-9.454-4.265q-3.592,0-7.184.213v2.346a53.152,53.152,0,0,1,8.129-.5c.757.1.913.332.473.711a1.916,1.916,0,0,1-1.606.5,20.727,20.727,0,0,0-5.106.072,20.145,20.145,0,0,0-4.821,1.136q-1.7.358-.378-1.42l2.175-.356v-4.763l-.568-.923.284-.213,1.512.639a77.476,77.476,0,0,0,9.36-1.422q2.361,1.139.85,1.351Zm-6.05.356v1.492q3.309-.213,6.523-.213l-1.323-1.563Zm1.89,6.4a80.231,80.231,0,0,1,11.25-.071q1.985.212.756,1.137v3.483q1.039,1.846-1.418.853a95.382,95.382,0,0,0-10.4,0q-2.553.852-1.135-.853v-3.768l-.473-.923.284-.213Zm.19,2.132a101.13,101.13,0,0,1,10.682,0v-1.351a101.225,101.225,0,0,0-10.682,0Zm8.792.782a42.83,42.83,0,0,0-8.792,0v1.635a100.6,100.6,0,0,1,10.682,0V952.6Q600.445,952.956,598.934,952.741Z" fill="#000000" stroke="#000000" stroke-miterlimit="10" stroke-width="0.4"/><path d="M625.351,951.035a19.118,19.118,0,0,1-7.374,3.768,3.368,3.368,0,0,1-3.121-.427v-.284a23.468,23.468,0,0,0,8.982-3.484,8.852,8.852,0,0,0,3.686-5.615,60.793,60.793,0,0,0-16.165.427q-.758.072-.945-.5-.094-.567.756-.71a85.578,85.578,0,0,1,17.11-.143q1.608.357.474,1.208A10.591,10.591,0,0,1,625.351,951.035Z" fill="#000000" stroke="#000000" stroke-miterlimit="10" stroke-width="0.4"/><path d="M635.425,943.5l.283-.214,1.323.569a92.36,92.36,0,0,1,14.464,0q1.794.213.567,1.137l-.284,8.032q1.323,1.778-1.418.924a73.892,73.892,0,0,0-12.951,0q-2.459.854-1.418-.924V944.78Zm15.125,9.524.283-8.245a81.623,81.623,0,0,0-13.612,0v8.245A78.269,78.269,0,0,1,650.55,953.025Z" fill="#000000" stroke="#000000" stroke-miterlimit="10" stroke-width="0.4"/><path d="M678.437,949.188a36.234,36.234,0,0,1-7.563,3.482,52.307,52.307,0,0,1-9.643,2.346,1.563,1.563,0,0,1-1.228-.569q-.474-.709.283-.782a53.853,53.853,0,0,0,10.021-1.99,57.447,57.447,0,0,0,7.752-2.914C678.5,948.714,678.626,948.856,678.437,949.188Zm-12.762-4.266-.19.285-4.442-.853q-.38-.141.094-.853c.315-.427.6-.592.851-.5Z" fill="#000000" stroke="#000000" stroke-miterlimit="10" stroke-width="0.4"/><path d="M694.089,948.547a6.014,6.014,0,0,1-1.23,4.052,9.851,9.851,0,0,1-3.876,2.488,2.773,2.773,0,0,1-2.836-.5l.095-.284q3.78-.709,5.294-2.133a4.666,4.666,0,0,0,1.323-3.625V947.2a52.086,52.086,0,0,0-9.075.71q-.758,0-.85-.5t.662-.639a78.285,78.285,0,0,1,18.245,0q1.134.143.566.782a2.447,2.447,0,0,1-1.7.426,31.313,31.313,0,0,0-6.617-.782Zm4.254-5.473q1.227.144.472.711a1.88,1.88,0,0,1-1.512.427,32.468,32.468,0,0,0-10.4-.071c-.442,0-.694-.143-.757-.427q-.095-.5.663-.568A72.093,72.093,0,0,1,698.343,943.074Z" fill="#000000" stroke="#000000" stroke-miterlimit="10" stroke-width="0.4"/><path d="M712.224,950.253a2.791,2.791,0,0,1-2.742-.64l.1-.284q8.6-.78,13.424-4.407c.629-.094.851.1.661.569a22.756,22.756,0,0,1-5.1,2.986v6.254q0,.853-.568.853t-.567-.853v-5.9A48.543,48.543,0,0,1,712.224,950.253Z" fill="#000000" stroke="#000000" stroke-miterlimit="10" stroke-width="0.4"/><path d="M750.646,943.785q1.134.215,1.135.711,0,.285-.757.5a27.261,27.261,0,0,1-4.726,3.128l-.283-.214a41.151,41.151,0,0,0,3.308-3.269,56.62,56.62,0,0,0-16.732.071c-.506.048-.789-.095-.852-.427q-.094-.567.662-.71A75.355,75.355,0,0,1,750.646,943.785Zm-9.737.924a.576.576,0,0,1,.662.64v1.919a7.736,7.736,0,0,1-1.323,4.834,9.037,9.037,0,0,1-4.349,2.985,2.493,2.493,0,0,1-2.836-.569l.094-.285q4.159-.568,5.862-2.558a6.631,6.631,0,0,0,1.323-4.407v-1.919Q740.342,944.709,740.909,944.709Z" fill="#000000" stroke="#000000" stroke-miterlimit="10" stroke-width="0.4"/><path d="M777.653,941.938c.378.094.568.26.568.5v3.7q2.928-.071,7.467.213,1.323.072.473.782a2.031,2.031,0,0,1-1.985.284,15.78,15.78,0,0,0-2.647-.284q-1.418-.071-3.308-.071v6.112a77.232,77.232,0,0,1,10.493.641q1.038.211,0,.852a3,3,0,0,1-2.27.356,31.087,31.087,0,0,0-8.223-.924,68.571,68.571,0,0,0-9.832.711.715.715,0,0,1-.851-.427c-.063-.331.125-.544.567-.64a74.622,74.622,0,0,1,8.886-.569V942.435Q776.991,942.007,777.653,941.938Z" fill="#000000" stroke="#000000" stroke-miterlimit="10" stroke-width="0.4"/><path d="M794.479,947.837v.284l-3.4.426q-.378.072-.378-.781c0-.569.126-.829.378-.783Zm-1.89,6.752c-.568-.427-.756-.711-.568-.853l3.309-1.777.284.213-1.985,2.772Q793.439,955.159,792.589,954.589ZM796.182,944l-3.215-.781c-.189-.1-.127-.356.189-.782.378-.473.662-.64.851-.5l2.363,1.776Zm5.482-2.274-.473,1.209a79.452,79.452,0,0,1,11.156.07q.944.072.378.64a1.8,1.8,0,0,1-1.608.426,51.065,51.065,0,0,0-10.3-.284,15.044,15.044,0,0,1-2.647,3.341,2.946,2.946,0,0,1-3.214.284v-.284a11.473,11.473,0,0,0,5.956-5.615Q801.568,940.942,801.664,941.724Zm9.265,9.738a7.479,7.479,0,0,1-.284,2.06l1.229.143a1.114,1.114,0,0,1,1.135.853q.188.639-.757.426a16.545,16.545,0,0,0-2.08-.426,5.323,5.323,0,0,1-1.418,1.279q-.945.569-2.079-.5l.1-.284a5.049,5.049,0,0,0,1.89-.783,45.482,45.482,0,0,0-8.792.143q-2.364.711-1.04-.854a26.942,26.942,0,0,0,1.135-3.482q-1.041.144-3.4.5a.645.645,0,0,1-.757-.354c0-.331.189-.522.567-.57q2.459-.282,3.781-.425l.473-2.844-.378-.924.284-.213.851.355a71.086,71.086,0,0,1,8.98,0q1.608.213.568,1.066v2.488q1.038,0,2.458.142c.5.048.723.167.661.355q-.378.855-1.8.711l-1.323-.213Zm-9.832-1.493q-.378,1.564-1.039,3.553a38.4,38.4,0,0,1,3.875-.212,21.152,21.152,0,0,0,.567-3.483Q803.176,949.827,801.1,949.969Zm3.5-1,.189-2.772a21.505,21.505,0,0,0-3.025.213l-.473,2.7Q803.271,948.974,804.6,948.974Zm1.04.853a23.566,23.566,0,0,1-.568,3.483q2.742,0,4.254.071a4.159,4.159,0,0,0,.473-1.919v-1.493Q808.469,949.828,805.635,949.827Zm4.159-.782v-2.63a36.056,36.056,0,0,0-3.876-.213l-.189,2.772Q808.186,948.974,809.794,949.045Z" fill="#000000" stroke="#000000" stroke-miterlimit="10" stroke-width="0.4"/><path d="M836.438,943.785q1.134.215,1.135.711,0,.285-.757.5a27.261,27.261,0,0,1-4.726,3.128l-.283-.214a41.151,41.151,0,0,0,3.308-3.269,56.62,56.62,0,0,0-16.732.071c-.506.048-.789-.095-.852-.427q-.094-.567.662-.71A75.355,75.355,0,0,1,836.438,943.785Zm-9.737.924a.576.576,0,0,1,.662.64v1.919a7.736,7.736,0,0,1-1.323,4.834,9.037,9.037,0,0,1-4.349,2.985,2.493,2.493,0,0,1-2.836-.569l.094-.285q4.16-.568,5.862-2.558a6.631,6.631,0,0,0,1.323-4.407v-1.919Q826.134,944.709,826.7,944.709Z" fill="#000000" stroke="#000000" stroke-miterlimit="10" stroke-width="0.4"/><path d="M844.325,942.577q.568,0,.568.64v6.112l3.025-1.635.283.213a25.04,25.04,0,0,1-2.836,2.417,1.315,1.315,0,0,1-1.134.356q-.567-.142-.567-1.067v-6.4A.575.575,0,0,1,844.325,942.577Zm13.046-.285q.567,0,.567.641v4.122a7.468,7.468,0,0,1-1.89,5.472,11.008,11.008,0,0,1-6.429,2.7,2.41,2.41,0,0,1-2.741-1l.095-.284q5.1.072,7.657-1.777,2.079-1.562,2.08-5.117v-4.122A.576.576,0,0,1,857.371,942.292Z" fill="#000000" stroke="#000000" stroke-miterlimit="10" stroke-width="0.4"/><path d="M868.7,954.8a2.788,2.788,0,0,1-2.93-.427l.094-.284a24.008,24.008,0,0,0,8.6-4.052,17.859,17.859,0,0,0,4.632-5.686,37.709,37.709,0,0,0-10.3.142.716.716,0,0,1-.852-.427c-.063-.379.126-.591.568-.639a51.2,51.2,0,0,1,11.438,0q1.041.143,1.04.568,0,.357-.661.569a20.893,20.893,0,0,1-4.16,5.4,27.632,27.632,0,0,0,9.737,3.98l.1.284a3.666,3.666,0,0,1-3.215.64,38.489,38.489,0,0,1-7.184-4.336A24.371,24.371,0,0,1,868.7,954.8Z" fill="#000000" stroke="#000000" stroke-miterlimit="10" stroke-width="0.4"/><path d="M898.3,952.954a11.653,11.653,0,0,0-2.175-2.7l.283-.213a15.293,15.293,0,0,1,3.026,2.132,3.8,3.8,0,0,1,1.418,2.133q-.378,1.706-1.418.639l-.568-.923a16.4,16.4,0,0,0-9.358.568q-1.326.5-.757-1.492l1.324-.143,4.065-4.052-3.876-1.492-.095-.284,3.971-5.331c.126-.143.409-.047.85.284s.63.546.568.64l-3.876,4.052,3.12,1.421,2.268-2.559c.19-.189.5-.094.946.284.44.333.567.594.378.782l-7.185,6.184A32.146,32.146,0,0,1,898.3,952.954ZM910.591,944q.851.214.945.569t-.662.71a25.988,25.988,0,0,1-.756,6.4q-.851,3.269-2.08,3.767a8.908,8.908,0,0,1-5.2-.142v-.284a12.4,12.4,0,0,0,4.443-1q1.228-.711,1.891-3.981a27.106,27.106,0,0,0,.473-5.188,42.607,42.607,0,0,0-10.778-1.067c-.378,0-.6-.142-.661-.427a.586.586,0,0,1,.661-.5A50.994,50.994,0,0,1,910.591,944Z" fill="#000000" stroke="#000000" stroke-miterlimit="10" stroke-width="0.4"/><path d="M916.562,945.42l1.795-1.635q.189-.213.946.213c.379.238.472.427.284.569l-4.538,3.2a26.389,26.389,0,0,1,3.876,0,13.376,13.376,0,0,0-1.04-1.28l.284-.214q2.457,1.138,2.458,2.062-.379,1.707-1.324.143a14.02,14.02,0,0,0-5.483.568q-1.608.57-.757-1.138l.757-.07,2.174-1.849-2.174-1.066v-.284l2.742-2.914c.126-.142.44-.094.945.142s.63.45.378.64l-2.741,2.061Zm6.334,5.9a25.976,25.976,0,0,1-6.807,3.838q-2.269.923-3.309-.5l.1-.284a29.55,29.55,0,0,0,9.643-3.341Zm1.04-2.63c.377.048.567.191.567.427v.781q1.323,0,3.97.072,2.645.213,3.215.284,1.133.144.472.711a2.916,2.916,0,0,1-1.985.355,27.887,27.887,0,0,0-5.672-.568v4.62c0,.521-.19.805-.567.853q-.567-.072-.568-.853v-4.62a47.717,47.717,0,0,0-7.09.64q-.759.071-.85-.356-.192-.5.566-.639a64.633,64.633,0,0,1,7.374-.5v-.781C923.368,948.88,923.558,948.737,923.936,948.689Zm-1.608-.071q-2.08.64-1.134-.781v-4.052l-.473-1,.284-.213.945.356,1.135-.072v-1.35c0-.189.378-.214,1.134-.072q1.039.144.757.427l-.946,1q1.323,0,1.985.072,1.8.211.756,1v3.909q.944,1.422-1.134.781A12.993,12.993,0,0,0,922.328,948.618Zm0-4.9v1.563a12.993,12.993,0,0,1,3.309,0v-1.563A12.9,12.9,0,0,0,922.328,943.714Zm3.309,2.346a12.813,12.813,0,0,0-3.309,0v1.777a12.813,12.813,0,0,1,3.309,0Zm-.378,4.9a24.2,24.2,0,0,0,10.02,2.914l.19.284a3.856,3.856,0,0,1-3.876.782,25.212,25.212,0,0,1-6.712-3.7Zm5.483-5.615,1.607-1.493q.283-.213.945.213.66.357.284.569l-4.443,3.128a23.9,23.9,0,0,1,4.159-.072,18.108,18.108,0,0,0-1.134-1.422l.283-.212q2.646,1.209,2.458,2.345-.474,1.706-1.323.072a13.423,13.423,0,0,0-5.2.425q-1.7.57-.945-1l.472-.07,2.269-1.92-2.363-1.065v-.285l2.646-2.915q.284-.282,1.04.143c.5.237.629.451.378.64l-2.741,2.061Z" fill="#000000" stroke="#000000" stroke-miterlimit="10" stroke-width="0.4"/><path d="M957.952,954.447q1.135,1.633-1.228.853a120.5,120.5,0,0,0-16.544,0q-2.364.78-1.229-.853v-11.16l-.379-.852.284-.213,1.04.284a155.682,155.682,0,0,1,17.583,0q1.89.284.473,1.066ZM940.18,943.358v11.089a120.5,120.5,0,0,1,16.544,0V943.358A120.5,120.5,0,0,0,940.18,943.358Zm11.438,7.393q0,1.637-.567,1.99a5.11,5.11,0,0,1-2.079.426,14.947,14.947,0,0,1-2.931,0v-.284a19.826,19.826,0,0,0,3.687-1.066,1.14,1.14,0,0,0,.756-1.066v-3.483a66.975,66.975,0,0,0-8.13.5.744.744,0,0,1-.756-.427c-.064-.236.094-.4.472-.5a72.454,72.454,0,0,1,8.414-.427v-2.346c0-.236.189-.379.567-.426.379.047.567.19.567.426v2.346q2.362.072,3.5.213,1.134.214.568.711a1.687,1.687,0,0,1-1.324.355,15.437,15.437,0,0,0-2.742-.355Zm-5.1-1.563-2.553,2.344c-.252.191-.6.072-1.04-.354-.442-.379-.5-.641-.189-.782l3.5-1.422Z" fill="#000000" stroke="#000000" stroke-miterlimit="10" stroke-width="0.4"/></g><g id="Original_Sound_Track_Copyright_2005" data-name="Original Sound Track Copyright 2005"><path d="M259.8,210.815q0,3.9-3.858,6.679a15.5,15.5,0,0,1-9.318,2.781,15.742,15.742,0,0,1-9.4-2.781q-3.9-2.781-3.9-6.679,0-3.927,3.9-6.694a15.81,15.81,0,0,1,9.4-2.767,15.569,15.569,0,0,1,9.318,2.767Q259.8,206.889,259.8,210.815Zm-2.889.179a8.074,8.074,0,0,0-2.572-6.3q-2.69-2.506-7.794-2.567a10.776,10.776,0,0,0-7.6,2.477,7.945,7.945,0,0,0-2.73,6.18,7.856,7.856,0,0,0,3.027,6.165,10.749,10.749,0,0,0,7.3,2.552,11.33,11.33,0,0,0,7.28-2.537A7.487,7.487,0,0,0,256.906,210.994Z" fill="#000000" stroke="#000000" stroke-miterlimit="10" stroke-width="0.25"/><path d="M280.644,218.421a6.422,6.422,0,0,1-1.756.22,8.2,8.2,0,0,1-4.681-1.485,17.909,17.909,0,0,1-1.756-1.183,42.556,42.556,0,0,1-4.609-4.235h-1.609v6.05a1.039,1.039,0,0,0,.4.66h-3.4c.292-.256.439-.476.439-.66V204.231c0-.183-.147-.4-.439-.66h4.389a9.958,9.958,0,0,1,4.718,1.045q2.121,1.155,2.085,2.915a3.234,3.234,0,0,1-.732,1.842,5.644,5.644,0,0,1-3.072,1.925,25.826,25.826,0,0,0,5.559,5Q278.961,218.366,280.644,218.421Zm-8.706-10.849a2.923,2.923,0,0,0-1.243-2.163,4.841,4.841,0,0,0-3.255-1.123h-1.207v6.737h1.317a5,5,0,0,0,2.889-.931A2.776,2.776,0,0,0,271.938,207.572Z" fill="#000000" stroke="#000000" stroke-miterlimit="10" stroke-width="0.25"/><path d="M285.178,204.231v13.557c0,.184.147.4.439.66h-3.4c.292-.256.439-.476.439-.66V204.231c0-.183-.147-.4-.439-.66h3.4C285.325,203.828,285.178,204.048,285.178,204.231Z" fill="#000000" stroke="#000000" stroke-miterlimit="10" stroke-width="0.25"/><path d="M307.379,211.876v5.912a38.32,38.32,0,0,1-6.985.935,12.8,12.8,0,0,1-7.59-2.214,6.787,6.787,0,0,1-3.237-5.4,6.417,6.417,0,0,1,2.817-5.473,12.5,12.5,0,0,1,7.79-2.337,23.527,23.527,0,0,1,5.633.556l1.389.159V205.5a6,6,0,0,0-2.67-1.183,16.009,16.009,0,0,0-3.109-.275,10.994,10.994,0,0,0-7.058,2.035,6.054,6.054,0,0,0-2.524,4.95,5.869,5.869,0,0,0,2.8,4.868,11.333,11.333,0,0,0,6.784,2.007,14.621,14.621,0,0,0,3.438-.357v-5.665q0-.274-.438-.66h3.4C307.526,211.473,307.379,211.693,307.379,211.876Z" fill="#000000" stroke="#000000" stroke-miterlimit="10" stroke-width="0.25"/><path d="M312.024,204.231v13.557q0,.276.439.66h-3.4q.438-.384.438-.66V204.231q0-.274-.438-.66h3.4Q312.024,203.957,312.024,204.231Z" fill="#000000" stroke="#000000" stroke-miterlimit="10" stroke-width="0.25"/><path d="M335.688,218.678,318.461,205.26v12.528c0,.311.22.532.658.66h-2.231q.732-.219.732-.715v-13.09a2.388,2.388,0,0,0-1.024-1.072h3.987a.81.81,0,0,0-.11.412.435.435,0,0,0,.073.248l14.264,11.11V204.2q0-.467-.658-.632h2.267q-.732.192-.731.714Z" fill="#000000" stroke="#000000" stroke-miterlimit="10" stroke-width="0.25"/><path d="M345.142,212.976l-2.793,4.787a.547.547,0,0,0-.078.274.444.444,0,0,0,.329.411h-2.231a4.233,4.233,0,0,0,.439-.165,1.509,1.509,0,0,0,.695-.577l6.788-11.634-.646-1.1,1.465-1.79,8.6,14.6a2.163,2.163,0,0,0,.841.66h-3.438a.682.682,0,0,0,.043-.65l-2.839-4.822Zm6.824-.66-3.255-5.6-3.224,5.6Z" fill="#000000" stroke="#000000" stroke-miterlimit="10" stroke-width="0.25"/><path d="M370.616,217.238l-.439,1.21H360.3q.44-.384.439-.66V204.231a.949.949,0,0,0-.439-.66h3.4a.949.949,0,0,0-.439.66v13.557h6.108A1.794,1.794,0,0,0,370.616,217.238Z" fill="#000000" stroke="#000000" stroke-miterlimit="10" stroke-width="0.25"/><path d="M389.019,220.275a17.127,17.127,0,0,1-3.166-.3q-.713-.209-2.137-.536-.474-.029-1.424-.148v-2.648a6.088,6.088,0,0,0,2.453,2.008,7.611,7.611,0,0,0,3.317.759,5.094,5.094,0,0,0,3.023-.863,2.628,2.628,0,0,0,1.218-2.231q0-1.725-2.889-3.927l-4.115-3.035q-2.256-1.933-2.255-3.778a3.506,3.506,0,0,1,1.78-3.019,7.435,7.435,0,0,1,4.195-1.176,11.906,11.906,0,0,1,1.463.119q1.108.12,1.464.119a12.955,12.955,0,0,0,1.781,0V204q-1.068-1.785-4.115-1.785-4.155,0-4.154,2.8a3.045,3.045,0,0,0,1.028,2.2,17.068,17.068,0,0,0,2.256,1.637q.75.476,2.295,1.487,4,2.767,4,5.682a3.559,3.559,0,0,1-1.662,3.154A7.754,7.754,0,0,1,389.019,220.275Z" fill="#000000" stroke="#000000" stroke-miterlimit="10" stroke-width="0.25"/><path d="M421.673,211a6.571,6.571,0,0,1-3.146,5.445,12.711,12.711,0,0,1-7.607,2.255,12.877,12.877,0,0,1-7.644-2.255,6.25,6.25,0,0,1,0-10.89,12.877,12.877,0,0,1,7.644-2.255,12.711,12.711,0,0,1,7.607,2.255A6.571,6.571,0,0,1,421.673,211Zm-2.378.137a6.635,6.635,0,0,0-2.047-5.115,9.5,9.5,0,0,0-6.365-2.09,8.739,8.739,0,0,0-6.181,2.035,6.477,6.477,0,0,0,.219,10.024,8.81,8.81,0,0,0,5.962,2.076A9.2,9.2,0,0,0,416.79,216,6.1,6.1,0,0,0,419.3,211.133Z" fill="#000000" stroke="#000000" stroke-miterlimit="10" stroke-width="0.25"/><path d="M442.411,204.231v13.557q0,.276.439.66h-3.4q.44-.384.439-.66v-1.21a9.692,9.692,0,0,1-6.62,2.118,10.351,10.351,0,0,1-5.376-1.43q-2.56-1.54-2.56-3.713v-9.322c0-.183-.147-.4-.439-.66h3.4q-.44.386-.439.66v9.322q0,1.293,1.865,2.64a6.56,6.56,0,0,0,2.743,1.293,11.062,11.062,0,0,0,5.816-.743q1.609-.687,1.609-.99V204.231q0-.274-.439-.66h3.4Q442.411,203.957,442.411,204.231Z" fill="#000000" stroke="#000000" stroke-miterlimit="10" stroke-width="0.25"/><path d="M466.623,218.678,449.4,205.26v12.528c0,.311.22.532.658.66h-2.231q.732-.219.732-.715v-13.09a2.388,2.388,0,0,0-1.024-1.072h3.987a.81.81,0,0,0-.11.412.435.435,0,0,0,.073.248l14.264,11.11V204.2q0-.467-.658-.632h2.267q-.732.192-.731.714Z" fill="#000000" stroke="#000000" stroke-miterlimit="10" stroke-width="0.25"/><path d="M471.487,218.448q.439-.384.439-.66V204.231q0-.274-.439-.66h8.888a12.845,12.845,0,0,1,7.37,2.09,6.431,6.431,0,0,1,3.2,5.2q.109,3.135-3.018,5.363a12.426,12.426,0,0,1-7.406,2.227Zm8.888-.66a9.337,9.337,0,0,0,5.3-1.732,6.106,6.106,0,0,0,3-5.088,5.718,5.718,0,0,0-2.787-4.95,9.45,9.45,0,0,0-5.573-1.787H474.45v13.557Z" fill="#000000" stroke="#000000" stroke-miterlimit="10" stroke-width="0.25"/><path d="M516.966,202.455v16.689q0,.327.554.8h-4.195c.369-.318.555-.586.555-.8V202.455h-8.666a.883.883,0,0,0-.988.714v-1.487H526.62v1.487q-.514-.714-.989-.714Z" fill="#000000" stroke="#000000" stroke-miterlimit="10" stroke-width="0.25"/><path d="M545.729,218.421a6.416,6.416,0,0,1-1.756.22,8.2,8.2,0,0,1-4.682-1.485,18.147,18.147,0,0,1-1.755-1.183,42.275,42.275,0,0,1-4.608-4.235h-1.61v6.05a1.037,1.037,0,0,0,.4.66h-3.4q.439-.384.44-.66V204.231q0-.274-.44-.66h4.39a9.961,9.961,0,0,1,4.718,1.045q2.121,1.155,2.085,2.915a3.234,3.234,0,0,1-.732,1.842,5.644,5.644,0,0,1-3.072,1.925,25.787,25.787,0,0,0,5.56,5Q544.045,218.366,545.729,218.421Zm-8.706-10.849a2.923,2.923,0,0,0-1.243-2.163,4.841,4.841,0,0,0-3.255-1.123h-1.207v6.737h1.317a5,5,0,0,0,2.889-.931A2.776,2.776,0,0,0,537.023,207.572Z" fill="#000000" stroke="#000000" stroke-miterlimit="10" stroke-width="0.25"/><path d="M552.438,212.976l-2.792,4.787a.547.547,0,0,0-.078.274.444.444,0,0,0,.329.411h-2.231a4.233,4.233,0,0,0,.439-.165,1.509,1.509,0,0,0,.695-.577l6.788-11.634-.646-1.1,1.466-1.79,8.6,14.6a2.157,2.157,0,0,0,.84.66h-3.438a.682.682,0,0,0,.043-.65l-2.838-4.822Zm6.825-.66-3.254-5.6-3.225,5.6Z" fill="#000000" stroke="#000000" stroke-miterlimit="10" stroke-width="0.25"/><path d="M579.669,218.7a12.6,12.6,0,0,1-7.571-2.241,6.87,6.87,0,0,1-3.219-5.432,6.386,6.386,0,0,1,2.871-5.472,12.482,12.482,0,0,1,7.736-2.255,22.7,22.7,0,0,1,5.632.577l1.391.193v1.43a9.262,9.262,0,0,0-5.78-1.54,11.14,11.14,0,0,0-6.766,2.062,6,6,0,0,0-2.816,4.923,5.881,5.881,0,0,0,2.8,4.853,11.272,11.272,0,0,0,6.784,2.022,12.42,12.42,0,0,0,6.547-1.4l-.548,1.568A38.854,38.854,0,0,1,579.669,218.7Z" fill="#000000" stroke="#000000" stroke-miterlimit="10" stroke-width="0.25"/><path d="M591.994,211.3v6.49q0,.276.44.66h-3.4q.439-.384.44-.66V204.231q0-.274-.44-.66h3.4q-.439.386-.44.66v6.435l8.083-6.27c.22-.16.256-.435.111-.825L603,203.6c-.288.126-.706.343-1.258.649l-7.74,5.965L603.8,217.8a5.373,5.373,0,0,0,1.29.653H600.37a.474.474,0,0,0-.073-.687Z" fill="#000000" stroke="#000000" stroke-miterlimit="10" stroke-width="0.25"/><path d="M379.681,955.92a11.681,11.681,0,0,1-6.987-2.069,6.407,6.407,0,0,1-3.008-5.04,5.874,5.874,0,0,1,2.633-5.04,11.537,11.537,0,0,1,7.182-2.138,20.9,20.9,0,0,1,5.237.54l1.287.157.03,1.351a8.746,8.746,0,0,0-5.387-1.418,10.363,10.363,0,0,0-6.284,1.9,5.54,5.54,0,0,0-2.6,4.557,5.456,5.456,0,0,0,2.6,4.522,10.5,10.5,0,0,0,6.284,1.867,11.486,11.486,0,0,0,6.076-1.3l-.509,1.439A35.064,35.064,0,0,1,379.681,955.92Z" fill="#000000" stroke="#000000" stroke-miterlimit="10" stroke-width="0.15"/><path d="M404.533,948.89a4.9,4.9,0,0,1-2.345,4.059,9.481,9.481,0,0,1-5.671,1.681,9.6,9.6,0,0,1-5.7-1.681,4.659,4.659,0,0,1,0-8.118,9.6,9.6,0,0,1,5.7-1.682,9.474,9.474,0,0,1,5.671,1.682A4.9,4.9,0,0,1,404.533,948.89Zm-1.773.1a4.943,4.943,0,0,0-1.527-3.812,7.074,7.074,0,0,0-4.744-1.559,6.509,6.509,0,0,0-4.607,1.518,4.825,4.825,0,0,0,.163,7.471,6.566,6.566,0,0,0,4.444,1.548,6.858,6.858,0,0,0,4.4-1.537A4.545,4.545,0,0,0,402.76,948.992Z" fill="#000000" stroke="#000000" stroke-miterlimit="10" stroke-width="0.15"/><path d="M408.84,953.953q0,.206.327.492h-2.535q.327-.287.327-.492V943.847q0-.205-.327-.493H411.4a5.33,5.33,0,0,1,2.563.616,2.877,2.877,0,0,1,1.663,2.357,2.723,2.723,0,0,1-1.049,2.419,4.285,4.285,0,0,1-2.9,1.025,5.2,5.2,0,0,1-1.364-.184,5.74,5.74,0,0,0,1.718-.492,2.85,2.85,0,0,0,1.8-2.5,2.382,2.382,0,0,0-1.037-2.132,3.471,3.471,0,0,0-2.1-.677H408.84Z" fill="#000000" stroke="#000000" stroke-miterlimit="10" stroke-width="0.15"/><path d="M421.654,953.953V949.1l-4.253-5.248a2.367,2.367,0,0,0-.736-.493h2.694a.478.478,0,0,0,.055.5l3.8,4.649,3.739-4.647a.4.4,0,0,0,.1-.248c0-.111-.073-.193-.218-.249h1.69a2.879,2.879,0,0,0-.982.554l-4.007,4.983v5.062q0,.206.327.492h-2.536Q421.654,954.159,421.654,953.953Z" fill="#000000" stroke="#000000" stroke-miterlimit="10" stroke-width="0.15"/><path d="M442.784,954.425a4.773,4.773,0,0,1-1.308.164,6.112,6.112,0,0,1-3.491-1.108,13.176,13.176,0,0,1-1.308-.88,31.667,31.667,0,0,1-3.435-3.158h-1.2v4.51a.775.775,0,0,0,.3.492h-2.536q.327-.287.327-.492V943.847q0-.205-.327-.493h3.272a7.42,7.42,0,0,1,3.517.78,2.448,2.448,0,0,1,1.554,2.173,2.413,2.413,0,0,1-.545,1.374,4.217,4.217,0,0,1-2.291,1.434,19.26,19.26,0,0,0,4.145,3.732A6.676,6.676,0,0,0,442.784,954.425Zm-6.489-8.087a2.18,2.18,0,0,0-.927-1.613,3.61,3.61,0,0,0-2.427-.837h-.9v5.022h.981a3.73,3.73,0,0,0,2.154-.694A2.069,2.069,0,0,0,436.3,946.338Z" fill="#000000" stroke="#000000" stroke-miterlimit="10" stroke-width="0.15"/><path d="M445.593,943.847v10.106q0,.206.327.492h-2.536c.219-.191.327-.355.327-.492V943.847c0-.137-.108-.3-.327-.493h2.536Q445.593,943.642,445.593,943.847Z" fill="#000000" stroke="#000000" stroke-miterlimit="10" stroke-width="0.15"/><path d="M461.979,949.546v4.407a28.6,28.6,0,0,1-5.208.7,9.528,9.528,0,0,1-5.657-1.65,5.057,5.057,0,0,1-2.413-4.028,4.779,4.779,0,0,1,2.1-4.079,9.312,9.312,0,0,1,5.807-1.744,17.557,17.557,0,0,1,4.2.415l1.036.119v1.107a4.485,4.485,0,0,0-1.99-.882,11.919,11.919,0,0,0-2.317-.205,8.194,8.194,0,0,0-5.263,1.518,4.513,4.513,0,0,0-1.881,3.689,4.374,4.374,0,0,0,2.086,3.629,8.449,8.449,0,0,0,5.058,1.5,10.92,10.92,0,0,0,2.562-.266v-4.223q0-.206-.327-.492h2.536Q461.979,949.341,461.979,949.546Z" fill="#000000" stroke="#000000" stroke-miterlimit="10" stroke-width="0.15"/><path d="M478.937,943.847v10.106q0,.206.327.492h-2.535q.327-.287.327-.492v-5.371h-9.6v5.371q0,.206.328.492H465.25q.327-.287.327-.492V943.847q0-.205-.327-.493h2.536q-.329.288-.328.493v4.243h9.6v-4.243q0-.205-.327-.493h2.535Q478.937,943.642,478.937,943.847Z" fill="#000000" stroke="#000000" stroke-miterlimit="10" stroke-width="0.15"/><path d="M491.152,943.847v10.106q0,.206.327.492h-2.535q.327-.287.327-.492V943.847h-5.263a.542.542,0,0,0-.6.389v-.882h13.605v.882a.878.878,0,0,0-.6-.389Z" fill="#000000" stroke="#000000" stroke-miterlimit="10" stroke-width="0.15"/><path d="M513.785,947.58a2.742,2.742,0,0,0-.756-2.279,3.459,3.459,0,0,0-2.572-.89,3.871,3.871,0,0,0-2.693,1.05,2.393,2.393,0,0,0-.968,1.826,2.923,2.923,0,0,0,1.634,2.488.9.9,0,0,0,.3.069l-1.664,1.324a.577.577,0,0,0-.09-.228q-.636-.635-1.241-1.251a2.926,2.926,0,0,1-.605-2.251,3.7,3.7,0,0,1,1.724-2.606,5.777,5.777,0,0,1,3.6-1.013,7.147,7.147,0,0,1,4.024,1.138,3.069,3.069,0,0,1,1.362,2.708,3.307,3.307,0,0,1-.907,2.161,11.183,11.183,0,0,1-1.967,1.638q-1.212.727-4.237,2.662h6.838a.389.389,0,0,0,.273-.114l-.877,1.8a.426.426,0,0,0-.3-.114h-9.652q.817-.57,3.933-2.484a22.16,22.16,0,0,0,3.117-2.28A5.007,5.007,0,0,0,513.785,947.58Z" fill="#000000" stroke="#000000" stroke-miterlimit="10" stroke-width="0.15"/><path d="M527.4,949.8a6.307,6.307,0,0,1-1.619,4.357,5.114,5.114,0,0,1-7.805,0,6.669,6.669,0,0,1,0-8.714,5.116,5.116,0,0,1,7.805,0A6.307,6.307,0,0,1,527.4,949.8Zm-1.876,0a6.606,6.606,0,0,0-1.058-3.856,3.12,3.12,0,0,0-2.6-1.627,3.053,3.053,0,0,0-2.572,1.6,7.634,7.634,0,0,0,0,7.758,3.055,3.055,0,0,0,2.572,1.6,3.019,3.019,0,0,0,2.557-1.6A7.333,7.333,0,0,0,525.525,949.8Z" fill="#000000" stroke="#000000" stroke-miterlimit="10" stroke-width="0.15"/><path d="M539.383,949.8a6.307,6.307,0,0,1-1.619,4.357,5.115,5.115,0,0,1-7.806,0,6.672,6.672,0,0,1,0-8.714,5.117,5.117,0,0,1,7.806,0A6.307,6.307,0,0,1,539.383,949.8Zm-1.876,0a6.606,6.606,0,0,0-1.059-3.856,3.119,3.119,0,0,0-2.6-1.627,3.054,3.054,0,0,0-2.573,1.6,7.64,7.64,0,0,0,0,7.758,3.056,3.056,0,0,0,2.573,1.6,3.019,3.019,0,0,0,2.556-1.6A7.324,7.324,0,0,0,537.507,949.8Z" fill="#000000" stroke="#000000" stroke-miterlimit="10" stroke-width="0.15"/><path d="M540.653,952.829a2.369,2.369,0,0,0,1.195,1.691,4.541,4.541,0,0,0,2.527.7,5.006,5.006,0,0,0,3.086-.952,2.8,2.8,0,0,0,1.27-2.29,2.826,2.826,0,0,0-1.361-2.336,6.894,6.894,0,0,0-4.115-1.111H542.2l.847-4.755h7.2a.391.391,0,0,0,.3-.136v1.82a.428.428,0,0,0-.3-.114H543.68l-.351,1.8a10.1,10.1,0,0,1,5.4,1.339,3.624,3.624,0,0,1,1.819,3.086,3.7,3.7,0,0,1-1.6,3,6.156,6.156,0,0,1-3.9,1.248q-4.114,0-5.022-2.777Z" fill="#000000" stroke="#000000" stroke-miterlimit="10" stroke-width="0.15"/></g></g></svg>
