<svg xmlns="http://www.w3.org/2000/svg" width="1000" height="988" viewBox="0 0 1000 988"><g id="Artboard"><rect id="Page" width="1000" height="988" fill="#fff"/></g><g id="Text"><g id="幻想曲抜萃_東方萃夢想_黄昏フロンティア_上海アリス幻樂団" data-name="幻想曲抜萃 東方萃夢想 黄昏フロンティア 上海アリス幻樂団"><g id="幻"><path d="M102.485,181.579l.154.2a5.212,5.212,0,0,0,3.53,1.945,2.816,2.816,0,0,0,.772-.108c1.477-.42,2.5-2.015,3.14-4.877l.04-.178-.019-.182c-.28-2.711-2.209-5.669-5.9-9.044a61.2,61.2,0,0,0-12.036-8.485l-.635-.346-2.792,2.1,1.04.913a41.65,41.65,0,0,1,7.021,8.318,126.984,126.984,0,0,0-22.116-.3l25.494-21.946a2.123,2.123,0,0,0,.656-1.684c-.068-.983-.783-1.957-2.2-3.02-2.24-1.92-4-2.275-5.266-1l-8.31,9.373L75.075,148.7l14.044-14.679.127-.161c.869-1.323-.747-2.709-2.481-4.016-.935-.7-3.421-2.564-4.9-.882L66.007,150.25l.722,2.172,14.016,5.4L66.376,172.141l-5.529.594-.208.729c-1.028,3.607-.935,5.814.292,6.944.924.85,2.317.933,4.139.248,10.93-4.109,22.857-4.87,35.454-2.273Z"/><path d="M147.288,137.146l-.027-.007a201.007,201.007,0,0,0-46.032-4.469,3.417,3.417,0,0,0-3.69,2.861l-.042.224.048.223c.208.953.963,2.551,3.712,2.551h0a166.481,166.481,0,0,1,40.936,3.935,104.319,104.319,0,0,1-1.82,19.148c-1.651,8.146-3.954,13.124-6.872,14.811-2.558,1.571-8.238,2.825-16.882,3.726l-1.008.106v3l.844.218a51.621,51.621,0,0,0,12.717,1.841,23.594,23.594,0,0,0,8.294-1.332c3.582-1.449,6.458-6.51,8.792-15.481a102.788,102.788,0,0,0,2.986-24.568c2.055-1.106,2.912-2.368,2.548-3.761S149.99,137.823,147.288,137.146Z"/></g><g id="想"><path d="M185.052,158.561a57.49,57.49,0,0,0,11.479-10.814v10.479c0,3.526,2.007,4.3,3.2,4.448l.138.016.137-.016c1.2-.148,3.2-.922,3.2-4.448V145.85a29.179,29.179,0,0,1,4.146,6.215l.1.166c.559.757,2.255,3.065,4.249,2.659,1.8-.363,2.527-2.555,2.919-4.173l.032-.265c0-3.137-3.379-5.933-10.329-8.548l-.579-.218-.539.405v-1.534a60.066,60.066,0,0,1,7.142,1l.226.023a5.839,5.839,0,0,0,4.094-1.694l.072-.075a2.694,2.694,0,0,0,.836-2.529,2.13,2.13,0,0,0-1.881-1.271,77.923,77.923,0,0,0-10.489-.838v-5.268c0-.888-.415-2.43-3.2-2.782l-.141-.017-.142.017c-2.783.352-3.2,1.895-3.2,2.782v5.261c-5.823.011-10.68.1-14.524.286a3.364,3.364,0,0,0-2.462,1.233,2.55,2.55,0,0,0-.331,2.111c.217.832.983,2.229,3.673,2.229l.112-.006c3.4-.339,7.9-.522,13.389-.546a51.829,51.829,0,0,1-23.805,15.01l-.791.246v2.743l.761.26C178.4,160.735,182.486,160.678,185.052,158.561Z"/><path d="M217.947,158.726c-.743,1.175-1.48,2.749-.6,3.948s2.787,1.287,6.362.273q.928-.079,1.853-.147a1.658,1.658,0,0,0-.134.251l-3,9.65,3.235.609,8.121-6.689a1.561,1.561,0,0,0,.681-1.555c-.173-.981-1.154-1.622-3.616-2.365h0c-.191-.058-.384-.115-.578-.169a133.587,133.587,0,0,1,17.742.411c3.684,1.245,5.677,1.263,6.652.059.989-1.219.252-2.954-.49-4.249V136.622c1.014-.709,2.045-1.708,1.8-2.982-.322-1.659-2.613-2.271-4.573-2.619l-.11-.013a189.392,189.392,0,0,0-28.7-.021l-3.669-1.532-2.31,1.737,1.346,3.374Zm29.539-22.509v3.573c-3.8-.3-7.614-.452-11.431-.452s-7.633.15-11.427.452v-3.573A142.288,142.288,0,0,1,247.486,136.217Zm0,8.585v3.319q-5.86-.454-11.614-.454c-3.805,0-7.56.149-11.244.449V144.8A113.381,113.381,0,0,1,247.486,144.8Zm0,8.328v4.43q-5.86-.454-11.614-.455c-3.805,0-7.56.15-11.244.45V153.13A113.528,113.528,0,0,1,247.486,153.13Z"/><path d="M193.609,165.525l.073-1-3.26-.611-.394.706a36.735,36.735,0,0,1-12.181,13.206l-.664.428.176.769c.856,3.737,2.058,5.735,3.784,6.288a2.983,2.983,0,0,0,.916.145A4.81,4.81,0,0,0,185.166,184,28.661,28.661,0,0,0,193.609,165.525Z"/><path d="M263.72,177.923c-13.858.368-25.437-.555-34.412-2.745l-.071-.015a137.024,137.024,0,0,0-20.884-2.219l3.744-7.272-.027-.322c-.059-.7-.237-2.819-1.816-3.482-1.65-.695-3.482.823-4.084,1.321l-.182.15-5,9.927-2.886.271-.295.469c-1.628,2.586-1.988,4.125-1.2,5.146.958,1.243,2.876.64,3.6.413l.141-.055c3.723-1.748,8.611-2.277,14.5-1.57,6.311.915,17.188,3.706,32.331,8.293a12.185,12.185,0,0,0,3.513.488,19.588,19.588,0,0,0,5.965-1.034,18.458,18.458,0,0,0,8.639-4.747l.63-.651-1.585-2.383Z"/><path d="M240.461,166.334l-9.6,7.162,2.722,2.045,12.712-2.9a1.477,1.477,0,0,0,1.148-1.089c.215-.9-.362-1.8-2.127-3.326C243.517,166.437,241.881,165.8,240.461,166.334Z"/></g><path id="曲" d="M366.675,144.63l-.106-.016c-6.675-.69-12.879-1.144-18.462-1.353l1.01-11.687c0-.707-.273-2.394-2.8-2.778h0a3.316,3.316,0,0,0-3.778,2.047l-.075.171-1.035,11.929H319.854l-1.035-11.932-.077-.173a3.32,3.32,0,0,0-3.78-2.041c-2.53.382-2.8,2.07-2.8,2.875l1.007,11.614c-3.671.216-9.081.658-16.109,1.316l-4.392-.6-2.276,1.712,2.95,5.07,1.448,28.027c-.477.972-1.36,3.057-.2,4.357,1.052,1.177,3.14,1.1,6.761-.237a270.419,270.419,0,0,1,58.194.275,15.112,15.112,0,0,0,4.749,1.069,2.952,2.952,0,0,0,2.351-.873c1.153-1.305.309-3.338-.159-4.3l2.153-28.595c1.094-.816,2.254-1.966,1.97-3.351C370.281,145.534,368.207,144.938,366.675,144.63ZM361.343,159.5c-5.028-.456-9.851-.779-14.373-.964l.6-9.7c5.043.191,9.868.593,14.372,1.2Zm-.564,5.576-.9,12.2c-5.359-.454-10.066-.778-14.027-.965l.621-12.138c3.446.313,5.75.554,6.86.715A17.36,17.36,0,0,0,360.779,165.074Zm-20.987-1.282-.623,12.187H322.106l-.623-12.187Zm1.1-15.269-.6,9.688h-19.3l-.6-9.688Zm-25.461,27.8c-5.969.319-10.574.629-14,.942L300.8,164.8c5.2-.448,9.9-.692,14-.729Zm-15.351-26.01c5.338-.751,9.913-1.238,13.632-1.452l.6,9.677c-4.443.171-9.019.411-13.636.716Z"/><g id="抜"><path d="M423.251,162.954a5.17,5.17,0,0,0,5.086-2.388c.356-.431,1.257-1.581.714-2.738s-2.024-1.283-3.093-1.283a55.085,55.085,0,0,0-8.476.623V147.135h8.106a3.135,3.135,0,0,0,3.314-2.545l.055-.245-.055-.245a3.135,3.135,0,0,0-3.314-2.546h-8.106V130.741c0-.888-.415-2.43-3.2-2.782l-.141-.018-.142.018c-2.783.352-3.2,1.894-3.2,2.782v10.813h-10.69A3.128,3.128,0,0,0,396.8,144.1l-.052.24.052.239a3.127,3.127,0,0,0,3.315,2.551H410.8v11.3A107.322,107.322,0,0,0,399,161.6l-.508.176-.182.507c-1.2,3.361-1.24,5.332-.115,6.388,1.337,1.257,3.494.327,4.2.023l.194-.108A29.147,29.147,0,0,1,410.8,164.7v9.629c0,1.369-1.728,4.315-13.3,8.663l-1.014.381.975,2.933.838-.025a47.321,47.321,0,0,0,15.917-2.867c2.2-.943,3.266-3.914,3.266-9.085V163.114A28.279,28.279,0,0,1,423.251,162.954Z"/><path d="M489.522,177.924a87.857,87.857,0,0,1-28.372-5.945,41.545,41.545,0,0,0,5.486-7.61c1.4-.667,3.052-1.7,3-3.286-.055-1.752-2.181-2.754-3.776-3.355a84.858,84.858,0,0,0-13.642-3.98,41.842,41.842,0,0,0,1.678-7.468,156.849,156.849,0,0,1,23.277,1.961,8.944,8.944,0,0,0,6.386-1.939c1.006-.88,1.391-1.756,1.144-2.6-.376-1.285-2-1.674-3.259-1.863a256.9,256.9,0,0,0-26.961-1.137c.193-3.088.29-6.525.29-10.236,0-.888-.416-2.43-3.2-2.781l-.141-.018-.141.018c-2.784.351-3.2,1.893-3.2,2.781,0,3.732-.1,7.179-.3,10.263-4.458.038-9.6.318-15.317.834a3.779,3.779,0,0,0-2.839,1.306,2.412,2.412,0,0,0-.354,2c.208.952,1.011,2.551,4.053,2.551l.12-.006c5.962-.638,10.564-1,13.713-1.086a21.7,21.7,0,0,1-6.489,12.482c-4.269,4.1-11.315,7.562-20.942,10.278l-.819.231v2.5l.416.337c3.546,2.879,7.3,3.4,11.141,1.541a54.556,54.556,0,0,0,11.792-7.117,4.489,4.489,0,0,0,.471.885l.132.2,7.865,4.968c-5.846,3.156-14.842,5.593-26.785,7.253l-.693.1-.786,2.366.4.481a9.343,9.343,0,0,0,7.326,3.794,10.38,10.38,0,0,0,2.689-.371A87.161,87.161,0,0,0,456.241,176.2a76.663,76.663,0,0,0,18.525,8.37c4.979,1.377,10.254.3,15.679-3.193l.688-.443-.79-2.973Zm-39.447-19.542a56.744,56.744,0,0,1,10.908,3.685,25.039,25.039,0,0,1-5.629,7.026l-9.462-5.006-.18-.03c-.161-.027-.326-.052-.493-.073A39.933,39.933,0,0,0,450.075,158.382Z"/></g><path id="萃" d="M602.061,174.23l.1-.219v-.239c0-2.16-3.151-2.622-6.222-2.788-13.757-.89-25.941-1.357-36.241-1.388v-5.818c0-.888-.416-2.43-3.2-2.782l-.141-.017-.14.017c-2.784.352-3.2,1.894-3.2,2.782v.214c-.465-3.044-4.251-5.291-11.561-6.866l-.194-.042a17.135,17.135,0,0,0,1.081-5.478l.014-.364-.2-.3a5.431,5.431,0,0,0-.461-.6c5.882-.2,11.9-.252,18.008-.147a138.9,138.9,0,0,1,19.953.827,5.072,5.072,0,0,0-.6.758l-.129.195-.041.23c-.888,5-6.16,8.239-15.671,9.633l-.686.1-.844,2.534.646.487c3.773,2.841,7.627,3.448,11.46,1.8l.113-.056c4.178-2.387,7.083-5.227,8.693-8.486l-.624,1.878.738.471a29.637,29.637,0,0,1,7.828,7.222l.225.225c.527.4,2.136,1.6,3.654.923,1.587-.711,1.774-2.939,1.835-3.672l.008-.1-.009-.1c-.3-3.352-4.329-5.858-12.319-7.66l-.886-.2a14.416,14.416,0,0,0,1.024-4.759l.017-.368-.205-.308c-.027-.041-.055-.081-.082-.121a8.058,8.058,0,0,0,6.22-2.068c.949-.951,1.268-1.859.951-2.7-.506-1.338-2.346-1.621-3.9-1.719-6.331-.366-12.666-.613-18.925-.738l2.928-5.873a88.812,88.812,0,0,1,14.617,1.621,10.105,10.105,0,0,0,8.268-1.594c.481-.361,1.942-1.46,1.571-2.856-.361-1.36-2.1-1.749-3.63-1.941-6.055-.506-12.314-.863-18.633-1.063l.72-1.49.056-.139a1.69,1.69,0,0,0-.167-1.436c-.512-.833-1.725-1.339-4.149-1.7-2.582-.172-3.992.043-4.72.723a1.673,1.673,0,0,0-.542,1.232v2.762H548.248v-2.762a1.671,1.671,0,0,0-.542-1.231c-.728-.68-2.142-.9-4.812-.714-2.338.354-3.553.861-4.063,1.7a1.686,1.686,0,0,0-.159,1.44l.839,1.9c-5.777.2-12.3.557-19.483,1.064-2.888.365-3.2,2.261-3.2,3.059l.026.24c.208.953,1.01,2.551,4.053,2.551l.106,0c5.632-.529,12.569-.983,20.63-1.351l2.942,5.9c-5.12.134-10.488.372-16.064.713-2.888.365-3.2,2.261-3.2,3.059l.026.24c.208.952.962,2.548,3.759,2.548h.008q4.206-.315,8.532-.518-.165.2-.322.44l-.16.242-.023.289c-.446,5.486-6.21,9.065-17.132,10.638l-.689.1-.826,2.486.572.493c3.788,3.258,7.792,3.969,11.932,2.1a20.941,20.941,0,0,0,8.8-7.308l.421.286a29.179,29.179,0,0,1,6.8,6.755c.443.5,1.79,2.022,3.424,1.595s2.245-2.478,2.57-4v5c-11.445.2-23.384.758-35.43,1.647a3.884,3.884,0,0,0-3.144,1.115,2.868,2.868,0,0,0-.546,2.439c.167.892.907,2.926,4.175,2.577,13.642-1.413,25.39-2.157,34.945-2.211v7.755c0,3.519,2,4.3,3.2,4.448l.14.017.141-.017c1.2-.151,3.2-.93,3.2-4.448v-7.756a159.582,159.582,0,0,1,31.216,2.763C596.85,178.753,600.6,177.506,602.061,174.23Zm-48.15-35.979a2.422,2.422,0,0,0-.9,1.929v4.152q-2.342.007-4.766.048v-6.129Zm4.886,0h5.663v6.116q-2.393-.03-4.766-.035V140.18A2.422,2.422,0,0,0,558.8,138.251Z"/><g id="東"><path d="M78.948,213.216c.28-.386-.007-.947-.272-1.359v-3.7c.322-.219.669-.533.585-.918-.094-.427-.684-.693-1.939-.863-2.558-.117-4.518-.179-5.831-.186v-.99a70.616,70.616,0,0,1,7.533.556,3.219,3.219,0,0,0,2.277-.7c.258-.193.588-.491.481-.838s-.548-.5-1.49-.543c-3.427-.119-6.386-.182-8.8-.186v-1.52c0-.312-.167-.706-.962-.806l-.031,0-.031,0c-.8.1-.962.494-.962.806v1.52c-2.434.006-5.519.1-9.165.28a1.186,1.186,0,0,0-.957.328.838.838,0,0,0-.155.713c.061.329.31.86,1.255.762,3.2-.24,6.229-.365,9.022-.372v.991c-1.441.006-3.348.068-5.675.184l-1.317-.3-.654.491.709,1.065v4.227c-.267.412-.553.972-.274,1.359.268.372.908.395,2.024.083,2.128-.117,3.829-.178,5.187-.185v6.176c0,1.028.523,1.311.962,1.366l.031,0,.031,0c.439-.055.962-.338.962-1.366v-6.176c1.426.007,3.249.068,5.383.177C78.04,213.61,78.679,213.586,78.948,213.216Zm-2.259-2.723v1.176c-2.171-.109-3.877-.167-5.2-.173V210.32C72.87,210.326,74.616,210.384,76.689,210.493Zm0-2.515v.99c-2.138-.108-3.884-.166-5.2-.173v-.99C72.87,207.812,74.616,207.87,76.689,207.978Zm-7.184,2.342V211.5c-1.31.006-2.936.063-4.951.172v-1.176C66.542,210.384,68.205,210.327,69.505,210.32Zm0-2.515v.99c-1.3.007-2.966.065-4.951.172v-.989C66.542,207.87,68.205,207.812,69.505,207.805Z"/><path d="M68.324,213.275l-.063.028A30.769,30.769,0,0,1,57.2,217.646l-.149.025-.226.681.135.108a4.371,4.371,0,0,0,2.665,1.138,2.633,2.633,0,0,0,.932-.17,32.606,32.606,0,0,0,8.613-5.257l.062-.078c.059-.118.239-.479.029-.733S68.652,213.182,68.324,213.275Z"/><path d="M85.282,217.554a44.291,44.291,0,0,1-12.442-4.169l-.052-.019c-.356-.09-.792-.157-1,.118s.024.681.1.811l.076.08a63.951,63.951,0,0,0,7.979,4.683,5.063,5.063,0,0,0,1.8.316,8.686,8.686,0,0,0,3.723-.977l.2-.095-.24-.723Z"/></g><path id="方" d="M116.318,205.723c-1.392-.184-3.274-.341-5.593-.467-2.142-.119-4.228-.181-6.2-.186v-2.917c0-.3-.162-.7-.932-.895l-.044-.011-.044,0c-.9.1-1.091.544-1.091.9v2.917a89.173,89.173,0,0,0-10.827.657c-.963.209-1,.8-.919,1.184.146.331.5.7,1.37.613h.007c2.617-.357,5.4-.6,8.264-.731v1.787c0,3.946-3.977,6.81-11.819,8.511l-.149.032-.211.79.154.1a5.458,5.458,0,0,0,5.441.39c4.091-1.846,6.858-4.4,8.227-7.587a49.171,49.171,0,0,1,6.661,1.676c.06,2.267-.219,3.881-.834,4.805-.609.974-2.08,1.467-4.371,1.467h-.15l-.4.753.118.13a3.755,3.755,0,0,0,2.8,1.411,3.941,3.941,0,0,0,1.694-.415c2.379-.959,3.517-3.464,3.383-7.445.514-.295.757-.6.74-.934-.019-.393-.385-.719-1.162-1.031a63.63,63.63,0,0,0-8.131-2.019v-2.437a45.3,45.3,0,0,1,11.463,1.024,4.706,4.706,0,0,0,3.009-.482l.066-.045c.408-.383.562-.71.47-1S116.885,205.8,116.318,205.723Z"/><g id="萃-2" data-name="萃"><path d="M121.4,204.441c.075.346.363.783,1.259.755,1.911-.18,4.269-.334,7.01-.458l1.113,2.232c-1.775.044-3.639.125-5.576.243-.837.106-.962.609-.956.954.061.282.287.755,1.128.755h0q1.578-.119,3.2-.19a1.325,1.325,0,0,0-.334.361l-.036.053,0,.065c-.156,1.907-2.126,3.147-5.857,3.685l-.153.021-.225.679.127.109a3.413,3.413,0,0,0,3.864.688,6.428,6.428,0,0,0,3.293-3.146l-.23.692.157.107a9.906,9.906,0,0,1,2.306,2.287,1.233,1.233,0,0,0,.858.518.645.645,0,0,0,.163-.021c.367-.1.613-.5.773-1.263l.008-.037,0-.038c-.1-1-1.335-1.742-3.789-2.27l-.213-.046a5.587,5.587,0,0,0,.41-1.935l0-.081-.045-.068a1.254,1.254,0,0,0-.378-.388c2.079-.078,4.208-.1,6.369-.061a44.83,44.83,0,0,1,7.015.319,1.2,1.2,0,0,0-.415.411l-.038.094c-.309,1.737-2.114,2.859-5.364,3.335l-.153.023-.229.689.144.108a3.547,3.547,0,0,0,3.743.576c2.133-1.219,3.259-2.792,3.346-4.676l0-.082-.046-.068a1.476,1.476,0,0,0-.244-.289l.118.022a2.577,2.577,0,0,0,2.2-.628c.279-.281.378-.539.29-.77-.112-.3-.481-.45-1.2-.5-2.191-.127-4.382-.211-6.546-.252l1.109-2.224a29.993,29.993,0,0,1,5,.55,3.287,3.287,0,0,0,2.674-.512c.25-.188.572-.478.481-.823-.1-.383-.639-.5-1.106-.557-2.089-.175-4.254-.3-6.441-.362l.34-.708a.442.442,0,0,0-.043-.375c-.149-.241-.541-.4-1.292-.511-1.045-.07-1.345.074-1.488.208a.429.429,0,0,0-.142.32v1.055h-5.694v-1.055a.433.433,0,0,0-.141-.32c-.143-.133-.442-.279-1.509-.206-.733.111-1.125.268-1.273.509a.453.453,0,0,0-.032.4l.344.778c-1.985.067-4.237.188-6.712.363C121.516,203.593,121.391,204.1,121.4,204.441Zm13.353.2h2.621v2.193l.67.126q-1.269-.022-2.523-.025v-1.519C135.517,205.127,135.377,204.774,134.749,204.638Zm-3.073,2.193v-2.193H134.3c-.629.136-.768.489-.768.775v1.52q-1.251,0-2.574.033Z"/><path d="M143.745,211.316l-.221-.05-.257.772.165.1a10.079,10.079,0,0,1,2.659,2.454l.05.049a1.445,1.445,0,0,0,.824.354.67.67,0,0,0,.274-.058c.312-.14.489-.508.54-1.126l0-.022,0-.021C147.684,212.71,146.365,211.906,143.745,211.316Z"/><path d="M147.794,215.874c-4.671-.3-8.8-.459-12.277-.466v-2.079c0-.312-.167-.706-.962-.807l-.032,0-.031,0c-.795.1-.962.5-.962.807v2.083c-3.878.066-7.924.253-12.013.554a1.187,1.187,0,0,0-.957.329.833.833,0,0,0-.156.712c.061.329.313.861,1.263.762,4.638-.481,8.628-.731,11.863-.743v2.729c0,1.029.523,1.311.962,1.366l.031,0,.032,0c.439-.055.962-.337.962-1.366v-2.729a53.91,53.91,0,0,1,10.616.928c1.932.266,3.143-.129,3.607-1.17l.022-.1C149.762,216.064,148.766,215.927,147.794,215.874Z"/></g><g id="夢"><path d="M179.25,202.835c-2.253-.175-4.537-.3-6.795-.362l.294-.555a.4.4,0,0,0,.04-.415c-.125-.253-.515-.381-1.346-.438-1.044-.07-1.345.075-1.488.209a.427.427,0,0,0-.142.32v.774h-5.569v-.774a.44.44,0,0,0-.146-.329c-.207-.193-.629-.255-1.377-.2-.829.114-1.216.268-1.334.534a.4.4,0,0,0,.038.4l.28.474c-2.1.066-4.293.187-6.538.362-.836.1-.961.609-.956.953.076.345.351.755,1.256.755h0c1.914-.18,4.274-.335,7.017-.458l.764,1.4q-2.293.047-4.543.144l-1.32-.5-.645.486.56,1.157v1.834c-.244.437-.5,1.032-.194,1.4a.778.778,0,0,0,.637.242,4.322,4.322,0,0,0,1.342-.3c5.392-.244,10.861-.244,16.253,0,1.082.384,1.693.4,1.979.063.309-.369.05-.964-.194-1.4v-1.3c.226-.18.6-.535.5-.932s-.592-.619-1.6-.745q-2.615-.108-5.2-.153l.863-1.3a44.624,44.624,0,0,1,5.54.552,4.345,4.345,0,0,0,2.9-.514c.135-.1.547-.411.443-.788C180.479,203.106,180.075,202.924,179.25,202.835Zm-9.437,1.151v1.474c-1.871-.024-3.731-.022-5.569,0v-1.479Zm5.327,3.157v1.269l-4.207-.166v-1.269Zm-12.015-.166v1.27l-3.836.164v-1.269Zm5.822-.011v1.27h-3.836v-1.27Z"/><path d="M180.353,211.338c-.079-.369-.5-.613-1.36-.774-2.886-.123-6.889-.217-11.906-.279-4.165.062-7.94.155-11.222.277l-.948-.407-.614.461.27,1.322-.491,3.067c0,.292.125.8.993.9a1.128,1.128,0,0,0,1.095-.707l.483-3.029c3.351-.163,6.316-.252,8.832-.267a17.652,17.652,0,0,1-7.48,3.041l-.148.025-.224.677.132.109a3.005,3.005,0,0,0,2.828.7,14.5,14.5,0,0,0,2.522-1.071,8.363,8.363,0,0,1,2.093,2.105,25.649,25.649,0,0,1-7.293,1.176l-.128.006-.441.662.167.144a4.479,4.479,0,0,0,2.953,1.2,4.267,4.267,0,0,0,.975-.115,22.2,22.2,0,0,0,10.611-5.242c.385-.138.869-.369.893-.791.022-.363-.308-.7-1.055-1.058a37.151,37.151,0,0,0-4.34-1.4l.149-.168c3.189,0,6.533.092,9.945.268l.347,2.957.02.072a1.132,1.132,0,0,0,1.12.706h.006c.838-.1.963-.609.961-.933l-.352-2.645C180.079,212.082,180.437,211.736,180.353,211.338ZM170.142,214.7a13.6,13.6,0,0,1-2.924,2.026c-.132-.846-1.069-1.531-2.842-2.082.513-.318,1.152-.764,1.909-1.331A15.836,15.836,0,0,1,170.142,214.7Z"/></g><g id="想-2" data-name="想"><path d="M188.257,211.478a19.035,19.035,0,0,0,4.056-3.9v3.886c0,1.031.523,1.312,1.024,1.366.439-.054.962-.335.962-1.366v-4.482a10.065,10.065,0,0,1,1.655,2.395c.478.648.9.923,1.3.844s.687-.508.888-1.365c0-.993-1.107-1.892-3.383-2.748l-.129-.048-.329.247V205.4a21.515,21.515,0,0,1,2.6.354,1.848,1.848,0,0,0,1.3-.549c.091-.1.367-.416.256-.722a.6.6,0,0,0-.53-.343,26.1,26.1,0,0,0-3.628-.282v-1.893c0-.312-.167-.706-.962-.806l-.031,0-.031,0c-.8.1-.962.494-.962.806v1.892c-2.006,0-3.676.035-4.984.1a1,1,0,0,0-.738.36.728.728,0,0,0-.092.6c.078.3.332.651,1.129.651h.005c1.179-.117,2.752-.179,4.68-.184v.121a17.492,17.492,0,0,1-8.124,5.164l-.175.055v.735l.169.058C186.1,212.173,187.433,212.161,188.257,211.478Z"/><path d="M212,203.243c-.074-.375-.515-.615-1.457-.781a63.438,63.438,0,0,0-9.64,0l-1.191-.5-.639.481.425,1.064v8.167c-.236.365-.484.861-.227,1.212s.886.364,1.984.043a47.062,47.062,0,0,1,8.2-.012,4.89,4.89,0,0,0,1.471.324.8.8,0,0,0,.663-.249c.29-.359.042-.907-.193-1.312v-7.525C211.719,203.934,212.073,203.622,212,203.243Zm-10.516,2.176v-1.454a48.074,48.074,0,0,1,7.923,0v1.454c-1.315-.108-2.638-.162-3.962-.162S202.8,205.311,201.484,205.419Zm0,1.429a38.148,38.148,0,0,1,7.923,0v1.366c-1.354-.108-2.7-.163-4.023-.163s-2.624.054-3.9.162Zm0,2.794a38.286,38.286,0,0,1,7.923,0v1.739c-1.354-.109-2.7-.163-4.023-.163s-2.624.054-3.9.162Z"/><path d="M190.115,213.673a12.442,12.442,0,0,1-4.129,4.475l-.147.095.039.171c.272,1.189.659,1.849,1.184,2.017a.868.868,0,0,0,.268.042,1.483,1.483,0,0,0,.952-.449,9.489,9.489,0,0,0,2.8-6.118l.016-.222-.891-.168Z"/><path d="M214.729,218.2a45.266,45.266,0,0,1-11.578-.924l-.015,0a45.5,45.5,0,0,0-7.191-.746l1.333-2.589-.007-.072c-.049-.584-.223-.931-.531-1.061-.325-.137-.731,0-1.24.424l-1.735,3.4-.976.092-.066.1c-.513.815-.636,1.288-.41,1.581.239.311.724.2,1.1.083a9.111,9.111,0,0,1,4.936-.538,87.593,87.593,0,0,1,10.865,2.786,3.95,3.95,0,0,0,1.142.158,6.466,6.466,0,0,0,1.968-.342,6.078,6.078,0,0,0,2.84-1.558l.14-.144-.436-.656Z"/><path d="M204.785,213.784c-.048-.269-.363-.464-1.125-.694h0c-1.035-.31-1.515-.3-1.674.072l-.95,3.062.886.166,2.682-2.209A.4.4,0,0,0,204.785,213.784Z"/><path d="M208.851,216.18a.374.374,0,0,0,.291-.271c.059-.246-.125-.516-.677-.993-.574-.574-1.065-.775-1.5-.61l-3.053,2.283.73.549Z"/></g><path id="黄" d="M581.1,945.86c-1.993-.136-3.933-.209-5.77-.214V944.2c.565.009,1.414.057,2.541.141.68,0,.893-.318.957-.627,0-.225-.1-.613-.753-.7-1.193-.086-2.115-.133-2.745-.142v-1.01c0-.2-.1-.544-.742-.625l-.025,0-.026,0c-.644.081-.741.427-.741.625v.937h-5.84v-.937c0-.2-.1-.544-.741-.625l-.025,0-.026,0c-.645.081-.742.427-.742.625v1.009c-.776.007-1.7.055-2.756.144-.645.082-.742.47-.737.738.058.265.27.583.967.583h0c.969-.086,1.817-.133,2.523-.141v1.453c-1.793.05-3.733.144-5.781.281-.646.082-.742.47-.738.738.059.266.271.583.966.583h0c2.826-.231,5.933-.373,9.236-.423v.877c-1.214,0-2.757.052-4.592.141l-1.1-.378-.486.365.321.889v3.394c-.186.337-.384.793-.144,1.078.219.261.688.249,1.52-.046q1.165-.075,2.337-.118a18.414,18.414,0,0,1-6.372,1.856l-.126.014-.182.545.121.086a3.392,3.392,0,0,0,3.409.589,11.866,11.866,0,0,0,3.845-2.6l.183-.186-.554-.314c1.576-.05,3.158-.057,4.736-.018l-.446.559.17.123a22.26,22.26,0,0,0,4.015,2.44,3.54,3.54,0,0,0,1.319.259,4.408,4.408,0,0,0,2.557-.921l.12-.086-.183-.548-.129-.013a25.031,25.031,0,0,1-7.154-1.805q1.518.042,3.029.14c.833.3,1.3.307,1.521.046.239-.285.041-.741-.146-1.078v-2.895c.265-.18.554-.438.491-.745s-.443-.5-1.249-.629c-2.161-.09-3.94-.138-5.291-.142v-.883a50.294,50.294,0,0,1,7.718.5,3.327,3.327,0,0,0,2.213-.388c.215-.144.493-.367.427-.64C581.926,945.994,581.482,945.905,581.1,945.86Zm-4.941,5.154v.949c-1.9-.084-3.383-.128-4.515-.132v-.951C572.816,950.885,574.334,950.93,576.155,951.014ZM571.64,949.7v-.808c1.176,0,2.694.049,4.515.133v.808C574.285,949.747,572.769,949.7,571.64,949.7ZM570.1,950.88v.951c-1.115,0-2.568.049-4.326.131v-.949C567.532,950.93,568.985,950.885,570.1,950.88Zm0-1.99v.808c-1.121,0-2.574.049-4.326.132v-.808C567.532,948.939,568.985,948.9,570.1,948.89Zm3.688-4.762v1.447h-5.84v-1.447Z"/><g id="昏"><path d="M607.04,947.78a15.294,15.294,0,0,1-9.585-2.119,29.76,29.76,0,0,1,4.361.522,2.828,2.828,0,0,0,2.06-.39c.229-.173.525-.436.45-.728s-.454-.373-.748-.413c-3.147-.186-5.763-.259-7.779-.216l-1.225-1.192,3.822-.256c.3-.043.708-.135.756-.449.04-.258-.12-.591-1.548-1.279l-.062-.031-.067.015a77.7,77.7,0,0,1-9.286,1.413l-1.573-.665-.52.392.633,1.031v4.536l-2.087.341-.048.065c-.571.765-.738,1.243-.542,1.549a.653.653,0,0,0,.591.25,2.763,2.763,0,0,0,.562-.072,19.981,19.981,0,0,1,4.773-1.125,20.6,20.6,0,0,1,5.047-.072,2.105,2.105,0,0,0,1.771-.543c.095-.082.384-.331.3-.621-.072-.237-.341-.372-.9-.442a53.768,53.768,0,0,0-7.933.469v-1.929c2.3-.132,4.623-.2,6.912-.2a19.329,19.329,0,0,0,9.492,4.262c.889.155,1.814-.347,2.741-1.493l.093-.115-.338-.508Zm-12.885-3.27c-1.927.009-3.907.075-5.892.2v-1.09l4.911-.268Z"/><path d="M602.612,950.17c-.091-.331-.519-.52-1.4-.613a80.546,80.546,0,0,0-11.239.068l-1.2-.375-.5.376.528,1.03v3.649c-.473.58-.607.953-.436,1.2.2.3.747.271,1.808-.081a95.416,95.416,0,0,1,10.317,0,3.939,3.939,0,0,0,1.337.35.641.641,0,0,0,.509-.188c.278-.317.038-.863-.184-1.265v-3.333C602.358,950.834,602.708,950.516,602.612,950.17Zm-1.987,1.579q-2.719-.13-5.306-.131c-1.713,0-3.376.043-4.976.13v-.95a100.751,100.751,0,0,1,10.282,0Zm-10.282,1.18a42.135,42.135,0,0,1,8.554.009h.009a4.13,4.13,0,0,0,1.719-.007v1.234q-2.719-.132-5.306-.132c-1.713,0-3.376.044-4.976.131Z"/></g><path id="フ" d="M628.3,943.87a86.242,86.242,0,0,0-17.16.145,1.344,1.344,0,0,0-.719.3.7.7,0,0,0-.194.669c.108.329.386.7,1.169.633a60.738,60.738,0,0,1,15.895-.446,8.76,8.76,0,0,1-3.565,5.274,23.415,23.415,0,0,1-8.906,3.451l-.161.032v.555l.09.06a3.743,3.743,0,0,0,2.076.667,3.619,3.619,0,0,0,1.21-.215,19.373,19.373,0,0,0,7.45-3.809h0a10.84,10.84,0,0,0,3.451-5.793c.378-.3.535-.575.477-.839C629.345,944.239,629,944.023,628.3,943.87Z"/><path id="ロ" d="M651.512,943.657a92.52,92.52,0,0,0-14.447,0l-1.383-.6-.5.379.613,1.385v8.15c-.221.384-.459.91-.191,1.237a.706.706,0,0,0,.582.219,3.986,3.986,0,0,0,1.245-.28,74.085,74.085,0,0,1,12.874-.007c1.166.362,1.788.379,2.022.048s-.067-.848-.343-1.226l.279-7.868c.273-.216.576-.521.486-.853C652.663,943.933,652.273,943.747,651.512,943.657Zm-.884,1.307-.27,7.845c-2.133-.178-4.287-.266-6.449-.266s-4.327.088-6.487.265v-7.843A81.552,81.552,0,0,1,650.628,944.964Z"/><g id="ン"><path d="M661.007,944.55l4.573.879.387-.581-3.907-2.033c-.35-.128-.71.063-1.087.575-.256.384-.343.663-.274.876A.453.453,0,0,0,661.007,944.55Z"/><path d="M678.039,948.562l-.061.017a57.411,57.411,0,0,1-7.725,2.9,53.819,53.819,0,0,1-9.983,1.984.675.675,0,0,0-.6.323c-.1.2-.04.453.2.8a1.871,1.871,0,0,0,1.255.632,1.116,1.116,0,0,0,.142-.009,52.843,52.843,0,0,0,9.679-2.355,36.569,36.569,0,0,0,7.605-3.5l.066-.069a.511.511,0,0,0,.054-.547C678.532,948.534,678.246,948.543,678.039,948.562Z"/></g><g id="テ"><path d="M686.926,944.339h0a32.473,32.473,0,0,1,10.337.069,1.758,1.758,0,0,0,.338.032,2.21,2.21,0,0,0,1.332-.5c.107-.081.435-.328.355-.625-.065-.24-.351-.378-.925-.444h-.009a72.514,72.514,0,0,0-11.566.071,1,1,0,0,0-.744.319.6.6,0,0,0-.1.492C686.013,944.022,686.225,944.339,686.926,944.339Z"/><path d="M701.866,946.572a78.854,78.854,0,0,0-18.3,0,1.077,1.077,0,0,0-.733.386.624.624,0,0,0-.089.486c.056.3.281.658,1.072.658h.01a51.871,51.871,0,0,1,8.84-.707v1.15a4.5,4.5,0,0,1-1.26,3.479,10.571,10.571,0,0,1-5.194,2.082l-.115.022-.178.532.115.087a3.276,3.276,0,0,0,1.971.735,2.823,2.823,0,0,0,1.058-.211,10.11,10.11,0,0,0,3.955-2.544,6.234,6.234,0,0,0,1.278-4.182V947.4a31.665,31.665,0,0,1,6.38.777,2.66,2.66,0,0,0,1.841-.45l.047-.039a.653.653,0,0,0,.212-.66C702.68,946.783,702.393,946.639,701.866,946.572Z"/></g><path id="ィ" d="M722.974,944.724l-.091.038c-3.171,2.384-7.653,3.853-13.322,4.368l-.13.012-.174.522.082.087a2.988,2.988,0,0,0,2.926.7h0a48.421,48.421,0,0,0,4.957-1.34v5.623c0,.916.481,1.053.767,1.053s.768-.137.768-1.053v-6.126a22.763,22.763,0,0,0,5.032-2.96l.058-.08a.642.642,0,0,0-.02-.661C723.684,944.719,723.4,944.661,722.974,944.724Z"/><g id="ア"><path d="M750.686,943.589l-.01,0a75.932,75.932,0,0,0-18.31-.211c-.826.155-.87.655-.821.943.059.31.3.666,1.077.588a56.772,56.772,0,0,1,16.308-.124c-.694.768-1.716,1.767-3.048,2.976l-.179.163.576.434.112-.057a27.491,27.491,0,0,0,4.729-3.125c.383-.111.863-.3.863-.678C751.983,943.833,751.007,943.649,750.686,943.589Z"/><path d="M740.911,944.509a.733.733,0,0,0-.767.84v1.919a6.463,6.463,0,0,1-1.276,4.277c-1.1,1.282-3.026,2.12-5.736,2.49l-.123.017-.174.526.1.087a2.861,2.861,0,0,0,1.947.845,2.775,2.775,0,0,0,1.09-.235,9.264,9.264,0,0,0,4.44-3.051,7.966,7.966,0,0,0,1.365-4.956v-1.919A.775.775,0,0,0,740.911,944.509Z"/></g><path id="上" d="M788.744,953.609a77.526,77.526,0,0,0-10.32-.642v-5.712c1.157,0,2.2.026,3.1.071a15.525,15.525,0,0,1,2.6.277,2.226,2.226,0,0,0,2.169-.324c.212-.175.481-.443.386-.73-.082-.248-.383-.373-.974-.4-2.917-.183-5.365-.26-7.28-.218v-3.492c0-.234-.125-.542-.719-.692l-.034-.008-.036,0c-.732.078-.841.47-.841.7v10.533a75.408,75.408,0,0,0-8.728.573c-.743.16-.771.615-.712.9a.893.893,0,0,0,1.066.555,68.678,68.678,0,0,1,9.8-.709,31.084,31.084,0,0,1,8.174.918,3.109,3.109,0,0,0,.745.093,3.378,3.378,0,0,0,1.678-.473c.314-.192.665-.454.61-.768C789.379,953.771,789.021,953.666,788.744,953.609Z"/><g id="海"><path d="M792.924,943.411l3.35.815.371-.559-2.513-1.889c-.444-.334-.958.319-1.133.537-.271.368-.372.623-.323.827A.39.39,0,0,0,792.924,943.411Z"/><path d="M794.684,947.681l-3.568-.894a.429.429,0,0,0-.362.088c-.172.143-.252.426-.252.891s.08.748.252.89a.415.415,0,0,0,.267.1.383.383,0,0,0,.083-.008l3.58-.447Z"/><path d="M791.905,953.576a.363.363,0,0,0-.15.293c0,.238.215.5.718.88l.008.006a2.139,2.139,0,0,0,1,.443.409.409,0,0,0,.319-.137l2.1-2.932-.543-.406Z"/><path d="M813.41,949.059c-.863-.086-1.628-.133-2.277-.141v-2.2c.177-.154.484-.462.39-.79-.085-.3-.444-.477-1.146-.569a72.323,72.323,0,0,0-8.959,0l-.912-.38-.481.359q.483-.648.91-1.359a50.931,50.931,0,0,1,10.159.289,1.986,1.986,0,0,0,1.776-.484c.087-.087.351-.35.248-.627s-.478-.333-.752-.353a79.521,79.521,0,0,0-10.871-.09l.378-.965-.007-.05c-.014-.121-.059-.489-.345-.6-.2-.079-.446.006-.74.259l-.05.066a11.325,11.325,0,0,1-5.856,5.518l-.119.053v.55l.127.051a3.145,3.145,0,0,0,3.424-.326,14.707,14.707,0,0,0,1.7-1.912l.411,1.008-.439,2.638q-1.309.143-3.633.41a.738.738,0,0,0-.743.768l.018.081a.835.835,0,0,0,.969.471q2.052-.309,3.107-.456a27.875,27.875,0,0,1-1.042,3.14c-.465.555-.6.915-.435,1.164.189.292.7.286,1.672-.009a45.378,45.378,0,0,1,8.126-.187,6.078,6.078,0,0,1-1.292.433l-.11.026-.171.511.094.088a2.307,2.307,0,0,0,1.532.75,1.533,1.533,0,0,0,.8-.233,5.868,5.868,0,0,0,1.4-1.23,16.618,16.618,0,0,1,1.943.408c.456.1.747.069.911-.105a.558.558,0,0,0,.084-.565,1.3,1.3,0,0,0-1.306-1l-1-.116a7.714,7.714,0,0,0,.232-1.889v-1.116l1.1.177c1.039.1,1.71-.173,2.006-.847a.358.358,0,0,0-.037-.316C814.1,949.193,813.851,949.1,813.41,949.059ZM809.6,950.15v1.312a3.97,3.97,0,0,1-.394,1.713c-.962-.041-2.265-.064-3.878-.066a24.18,24.18,0,0,0,.494-3.082C807.477,950.03,808.745,950.071,809.6,950.15Zm0-3.555v2.241c-1-.039-2.227-.061-3.651-.063l.161-2.371C807.247,946.409,808.419,946.474,809.6,946.6Zm-5.309,3.433a21.337,21.337,0,0,1-.511,3.082c-1.064,0-2.216.067-3.43.183.378-1.159.684-2.212.912-3.135C802.469,950.079,803.485,950.035,804.289,950.028Zm.285-3.625-.162,2.371c-.789.006-1.757.048-2.881.124l.4-2.305A21.553,21.553,0,0,1,804.574,946.4Z"/></g><g id="ア-2" data-name="ア"><path d="M836.479,943.589l-.009,0a75.932,75.932,0,0,0-18.31-.211c-.826.155-.87.655-.821.943.057.31.294.666,1.077.588a56.772,56.772,0,0,1,16.308-.124c-.694.768-1.716,1.767-3.048,2.976l-.179.163.576.434.112-.057a27.491,27.491,0,0,0,4.729-3.125c.383-.111.863-.3.863-.678C837.777,943.833,836.8,943.649,836.479,943.589Z"/><path d="M826.705,944.509a.733.733,0,0,0-.767.84v1.919a6.463,6.463,0,0,1-1.276,4.277c-1.1,1.282-3.026,2.12-5.736,2.49l-.123.017-.174.526.1.087a2.861,2.861,0,0,0,1.947.845,2.775,2.775,0,0,0,1.09-.235,9.264,9.264,0,0,0,4.44-3.051,7.966,7.966,0,0,0,1.365-4.956v-1.919A.775.775,0,0,0,826.705,944.509Z"/></g><g id="リ"><path d="M848.508,947.884l-.568-.427-2.842,1.537v-5.777a.735.735,0,0,0-.768-.84.767.767,0,0,0-.861.84v6.4c0,.717.242,1.142.709,1.258a.975.975,0,0,0,.276.04,1.782,1.782,0,0,0,1.036-.427,25.435,25.435,0,0,0,2.86-2.437Z"/><path d="M857.376,942.092a.775.775,0,0,0-.861.841v4.122c0,2.292-.673,3.96-2,4.955-1.658,1.2-4.2,1.784-7.538,1.739l-.146,0-.174.521.062.084a2.58,2.58,0,0,0,2.144,1.177,3.223,3.223,0,0,0,.784-.1,11.251,11.251,0,0,0,6.545-2.759,7.7,7.7,0,0,0,1.949-5.613v-4.122A.735.735,0,0,0,857.376,942.092Z"/></g><path id="ス" d="M885.955,953.754a27.9,27.9,0,0,1-9.463-3.81,21.219,21.219,0,0,0,3.981-5.213c.479-.17.722-.418.722-.733,0-.6-.913-.725-1.216-.767a51.734,51.734,0,0,0-11.484,0,.879.879,0,0,0-.631.3.74.74,0,0,0-.1.613.9.9,0,0,0,1.066.553,37.932,37.932,0,0,1,9.962-.178,17.665,17.665,0,0,1-4.443,5.368,23.946,23.946,0,0,1-8.532,4.015l-.1.029-.174.521.115.087a3.184,3.184,0,0,0,1.93.706,3.074,3.074,0,0,0,1.2-.254,24.57,24.57,0,0,0,6.833-4.2,38.746,38.746,0,0,0,7.111,4.269,3.865,3.865,0,0,0,3.388-.66l.132-.084-.18-.539Z"/><g id="幻-2" data-name="幻"><path d="M899.575,952.024a15.633,15.633,0,0,0-3.064-2.16l-.114-.061-.582.438.185.162a10.948,10.948,0,0,1,1.915,2.3,32.375,32.375,0,0,0-6.1-.077l6.725-5.789a.458.458,0,0,0,.144-.362c-.016-.224-.188-.454-.533-.714-.531-.455-.942-.548-1.224-.265l-2.171,2.449-2.73-1.244,3.7-3.875c.166-.249-.111-.532-.613-.911-.221-.166-.811-.607-1.131-.243l-3.97,5.331-.063.083.157.472,3.677,1.417-3.8,3.784-1.387.149-.038.13c-.253.888-.237,1.424.05,1.688a.911.911,0,0,0,.97.046,16.278,16.278,0,0,1,9.163-.578l.549.886a1.264,1.264,0,0,0,.843.472.628.628,0,0,0,.172-.025c.344-.1.587-.485.742-1.183l.007-.032,0-.032A3.934,3.934,0,0,0,899.575,952.024Z"/><path d="M910.645,943.8h0a51.8,51.8,0,0,0-11.767-1.142.783.783,0,0,0-.857.661l-.008.039.009.039c.046.219.221.585.861.585a42.767,42.767,0,0,1,10.572,1.026,26.846,26.846,0,0,1-.469,4.989c-.426,2.111-1.031,3.4-1.8,3.851a12.3,12.3,0,0,1-4.36.965l-.179.019v.62l.15.038a13.126,13.126,0,0,0,3.235.469,5.949,5.949,0,0,0,2.089-.334c.89-.36,1.609-1.637,2.2-3.9a26.3,26.3,0,0,0,.762-6.321c.281-.141.773-.441.655-.887C911.648,944.2,911.3,943.97,910.645,943.8Z"/></g><path id="樂" d="M935.3,953.679a24.11,24.11,0,0,1-9.586-2.7,27.554,27.554,0,0,1,4.444.542,3.13,3.13,0,0,0,2.14-.4c.095-.082.384-.331.3-.621-.071-.236-.341-.372-.875-.439-.4-.049-1.512-.147-3.235-.286-1.672-.044-2.912-.068-3.774-.071v-.582a.534.534,0,0,0-.163-.392c.346.014.693.044,1.038.086.745.228,1.214.268,1.469.115a.517.517,0,0,0,.086.137c.218.248.634.255,1.316.028a13.018,13.018,0,0,1,5-.42c.318.58.612.843.913.8.41-.043.611-.6.732-1.036.143-.866-.7-1.7-2.573-2.56l-.108-.05-.548.412.138.162c.383.449.673.8.878,1.07a25.167,25.167,0,0,0-3.023.025l3.814-2.685a.4.4,0,0,0,.238-.351c0-.2-.164-.373-.513-.56-.192-.125-.781-.5-1.189-.191l-1.5,1.395-1.2-.638L932,942.6a.428.428,0,0,0,.2-.395c-.021-.212-.217-.4-.6-.579-.219-.123-.886-.5-1.287-.1l-2.7,2.972v.49l2.193.989-1.984,1.678-.52.078-.046.1c-.038.078-.077.163-.113.252a3.2,3.2,0,0,0-.169-.295v-3.752c.169-.135.447-.4.366-.7s-.485-.49-1.3-.587c-.37-.039-.887-.062-1.542-.069l.623-.657a.33.33,0,0,0,.1-.351c-.072-.212-.345-.328-.965-.413-.88-.166-1.13-.082-1.254.022a.313.313,0,0,0-.117.246v1.163l-.9.056-1.007-.378-.5.377.524,1.1v3.947a2.651,2.651,0,0,0-.192.344c-.152-.642-.99-1.308-2.549-2.03l-.109-.05-.552.416.143.162c.325.367.585.675.777.92a26.478,26.478,0,0,0-2.772-.016l3.968-2.8a.39.39,0,0,0,.173-.333c-.008-.189-.158-.368-.481-.57-.417-.236-.927-.466-1.177-.186l-1.686,1.534-1.036-.623,2.5-1.883a.431.431,0,0,0,.2-.4c-.023-.214-.213-.395-.617-.585s-.926-.382-1.176-.1l-2.8,2.972v.488l2.012.986-1.893,1.611-.806.075-.048.1c-.348.7-.407,1.139-.184,1.39.269.3.8.16,1.185.026a13.745,13.745,0,0,1,5.3-.564c.354.559.662.8.967.748s.47-.363.578-.709a.526.526,0,0,0,.056.1c.206.276.7.277,1.584,0,.314-.041.634-.07.956-.086a.53.53,0,0,0-.159.388v.582a66.26,66.26,0,0,0-7.211.5.94.94,0,0,0-.7.393.551.551,0,0,0-.023.485c.059.275.3.591,1.076.511a53.018,53.018,0,0,1,5.913-.614,29.7,29.7,0,0,1-9.381,3.2l-.117.021-.166.5.062.083c.75,1.028,1.944,1.216,3.543.566a26.31,26.31,0,0,0,6.858-3.868l.148-.119v4.014c0,.791.4,1.008.742,1.051l.025,0,.026,0c.338-.043.742-.26.742-1.051v-4.007l.058.044a25.573,25.573,0,0,0,6.764,3.725,4.063,4.063,0,0,0,4.068-.814l.144-.114-.346-.52Zm-12.765-8.627v-1.16a12.738,12.738,0,0,1,2.908,0v1.162a13.661,13.661,0,0,0-1.477-.081A12.528,12.528,0,0,0,922.533,945.052Zm0,1.185a12.8,12.8,0,0,1,2.908,0v1.376a13.664,13.664,0,0,0-1.477-.082,13,13,0,0,0-1.431.08Zm.64,5.037-.42-.316.42-.006Zm1.535-.142v-.181l.235,0Z"/><g id="団"><path d="M958.76,942.925c-.055-.306-.439-.5-1.264-.619a156.7,156.7,0,0,0-17.573,0l-1.1-.3-.489.367.426.959v11.056c-.243.359-.511.845-.278,1.157a.633.633,0,0,0,.545.21,3.925,3.925,0,0,0,1.175-.253,121,121,0,0,1,16.491,0c.989.323,1.53.339,1.746.043.233-.312-.035-.8-.278-1.156v-10.7C958.488,943.5,958.816,943.241,958.76,942.925Zm-2.231.621v10.687c-2.724-.179-5.444-.268-8.142-.268s-5.368.089-8,.268V943.545A120.775,120.775,0,0,1,956.529,943.546Z"/><path d="M942.38,947.964h0a67.161,67.161,0,0,1,7.9-.5v3.283a.952.952,0,0,1-.646.888A19.922,19.922,0,0,1,946,952.688l-.156.035v.625l.179.018c.478.048.967.072,1.463.072s1-.024,1.5-.072a4.557,4.557,0,0,0,2.168-.455c.445-.278.662-.984.662-2.16v-3.208a17.2,17.2,0,0,1,2.526.351,1.879,1.879,0,0,0,1.471-.4.546.546,0,0,0,.243-.551c-.066-.245-.345-.4-.918-.508-.729-.091-1.846-.161-3.322-.208v-2.153c0-.2-.1-.544-.742-.625l-.025,0-.026,0c-.644.081-.741.427-.741.625v2.146a72.186,72.186,0,0,0-8.263.432.868.868,0,0,0-.571.349.517.517,0,0,0-.035.424A.943.943,0,0,0,942.38,947.964Z"/><path d="M946.267,948.745l-3.611,1.468a.472.472,0,0,0-.311.362c-.033.223.111.462.443.746a1.432,1.432,0,0,0,.917.5.656.656,0,0,0,.4-.139l2.728-2.507Z"/></g></g><g id="Original_Sound_Track_Copyright_2005" data-name="Original Sound Track Copyright 2005"><path id="O" d="M256.01,204.02a15.754,15.754,0,0,0-9.391-2.791,16.007,16.007,0,0,0-9.47,2.79c-2.621,1.861-3.95,4.148-3.95,6.8,0,2.629,1.329,4.911,3.95,6.78a15.932,15.932,0,0,0,9.47,2.805,15.689,15.689,0,0,0,9.391-2.805c2.594-1.87,3.91-4.151,3.91-6.78C259.92,208.167,258.6,205.88,256.01,204.02Zm-16.985.679a10.579,10.579,0,0,1,7.208-2.449l.305,0c3.355.039,5.949.892,7.712,2.535a7.988,7.988,0,0,1,2.531,6.206,7.4,7.4,0,0,1-3.039,5.874,11.254,11.254,0,0,1-7.2,2.509h-.1a10.647,10.647,0,0,1-7.122-2.523,7.765,7.765,0,0,1-2.983-6.069A7.857,7.857,0,0,1,239.025,204.7Z"/><path id="r" d="M276.254,216.2a26.78,26.78,0,0,1-5.425-4.835,5.689,5.689,0,0,0,2.964-1.918,3.364,3.364,0,0,0,.758-1.916c.025-1.218-.7-2.237-2.152-3.028a10.132,10.132,0,0,0-4.776-1.059H262.9l.249.219c.328.288.4.466.4.566v13.557c0,.1-.069.279-.4.566l-.249.219h4.045l-.225-.215c-.3-.287-.364-.468-.364-.57v-5.925h1.431a42.729,42.729,0,0,0,4.586,4.21,18.068,18.068,0,0,0,1.762,1.186,8.36,8.36,0,0,0,4.751,1.507,6.547,6.547,0,0,0,1.79-.225l.766-.219-.8-.026C279.557,218.26,278.08,217.556,276.254,216.2Zm-9.9-11.791h1.082a4.744,4.744,0,0,1,3.176,1.094,2.814,2.814,0,0,1,1.2,2.071v0a2.641,2.641,0,0,1-1.445,2.411,4.9,4.9,0,0,1-2.818.909h-1.192Z"/><path id="i" d="M285.3,217.788V204.231c0-.1.069-.278.4-.566l.249-.219h-4.065l.249.219c.328.288.4.466.4.566v13.557c0,.1-.069.279-.4.566l-.249.219h4.065l-.249-.219C285.372,218.067,285.3,217.888,285.3,217.788Z"/><path id="g" d="M304.334,211.31c.328.287.4.466.4.566v5.566a14.726,14.726,0,0,1-3.313.331,11.255,11.255,0,0,1-6.711-1.984,5.774,5.774,0,0,1-2.746-4.766,5.961,5.961,0,0,1,2.475-4.851,10.81,10.81,0,0,1,6.767-2.01h.214a16,16,0,0,1,3.087.273,5.907,5.907,0,0,1,2.615,1.157l.2.163V203.9l-1.484-.169a23.809,23.809,0,0,0-5.663-.559,12.679,12.679,0,0,0-7.866,2.363,6.562,6.562,0,0,0-2.866,5.576,6.934,6.934,0,0,0,3.29,5.5,12.971,12.971,0,0,0,7.662,2.237,38.658,38.658,0,0,0,7.01-.937l.1-.021v-6.014c0-.1.069-.278.4-.566l.249-.219h-4.065Z"/><path id="i-2" data-name="i" d="M312.149,217.788V204.231c0-.1.069-.278.4-.566l.249-.219H308.73l.249.219c.328.288.4.466.4.566v13.557c0,.1-.068.279-.4.566l-.25.219H312.8l-.25-.219C312.218,218.067,312.149,217.888,312.149,217.788Z"/><path id="n" d="M334.122,203.692c.563.141.563.42.563.511v10.882L320.64,204.146a.307.307,0,0,1-.042-.163.687.687,0,0,1,.093-.35l.107-.187h-4.685l.422.234a2.268,2.268,0,0,1,.96.992v13.061c0,.271-.21.466-.643.6l-.815.244h3.954l-.837-.245c-.568-.166-.568-.448-.568-.54V205.516l17.227,13.418V204.285c0-.106,0-.426.638-.593l.939-.246h-4.251Z"/><path id="a" d="M357.814,217.725l-8.6-14.6-.092-.154-1.633,2,.652,1.109-6.752,11.572a1.387,1.387,0,0,1-.637.524,4.181,4.181,0,0,1-.426.16l-.753.244h3.648l-.578-.24c-.225-.094-.252-.214-.252-.3a.428.428,0,0,1,.061-.211l2.757-4.725h7.029l2.8,4.757a.563.563,0,0,1-.045.534l-.091.181h4.124l-.423-.234A1.973,1.973,0,0,1,357.814,217.725Zm-6.065-5.534H345.7l3.008-5.222Z"/><path id="l" d="M360.22,218.354l-.25.219h10.295l.648-1.785-.382.359a1.682,1.682,0,0,1-1.158.516H363.39V204.231c0-.159.135-.354.393-.564l.272-.221h-4.1l.272.221c.257.21.393.405.393.564v13.557C360.616,217.888,360.547,218.067,360.22,218.354Z"/><path id="S" d="M383.688,219.564c.962.222,1.659.4,2.142.537a17.329,17.329,0,0,0,3.189.3,7.91,7.91,0,0,0,4.421-1.121,3.69,3.69,0,0,0,1.718-3.258c0-1.978-1.363-3.924-4.053-5.787q-1.543-1.011-2.3-1.487a17.039,17.039,0,0,1-2.236-1.621,2.938,2.938,0,0,1-.991-2.112c0-1.8,1.317-2.672,4.029-2.672,1.974,0,3.323.58,4.008,1.724l.232.389V201.49l-.131.007a12.885,12.885,0,0,1-1.775,0c-.232,0-.72-.039-1.447-.118a12.235,12.235,0,0,0-1.48-.12,7.6,7.6,0,0,0-4.264,1.2,3.642,3.642,0,0,0-1.836,3.124c0,1.263.773,2.566,2.306,3.879l4.113,3.033c1.884,1.437,2.84,2.725,2.84,3.828a2.487,2.487,0,0,1-1.165,2.129,5,5,0,0,1-2.951.84,7.528,7.528,0,0,1-3.263-.746,5.99,5.99,0,0,1-2.4-1.967l-.228-.33V219.4l.109.014C382.924,219.5,383.392,219.548,383.688,219.564Z"/><path id="o-2" data-name="o" d="M403.2,216.543a13.056,13.056,0,0,0,7.716,2.278,12.89,12.89,0,0,0,7.68-2.279,6.409,6.409,0,0,0,0-11.093,12.9,12.9,0,0,0-7.68-2.278,13.06,13.06,0,0,0-7.716,2.278,6.373,6.373,0,0,0,0,11.094Zm1.582-10.486a8.566,8.566,0,0,1,5.9-2h.191a9.422,9.422,0,0,1,6.282,2.057,6.544,6.544,0,0,1,2.007,5.023,6,6,0,0,1-2.459,4.771,9.119,9.119,0,0,1-5.829,2.034H410.8a8.72,8.72,0,0,1-5.8-2.047,6.351,6.351,0,0,1-.216-9.835Z"/><path id="u" d="M425.205,204.231v9.322c0,1.489.882,2.774,2.622,3.82a10.512,10.512,0,0,0,5.44,1.448,10.021,10.021,0,0,0,6.5-1.973v.94c0,.1-.069.279-.4.566l-.25.219h4.067l-.25-.219c-.328-.287-.4-.466-.4-.566V204.231c0-.1.068-.279.4-.566l.25-.219h-4.066l.249.219c.328.287.4.466.4.566v11.522c0,.023-.067.249-1.533.875a10.933,10.933,0,0,1-5.75.734,6.474,6.474,0,0,1-2.687-1.27c-1.2-.869-1.813-1.723-1.813-2.539v-9.322c0-.1.068-.278.4-.566l.249-.219H424.56l.249.219C425.136,203.953,425.205,204.131,425.205,204.231Z"/><path id="n-2" data-name="n" d="M447.787,218.329l-.815.244h3.954l-.837-.245c-.568-.166-.568-.448-.568-.54V205.516l17.227,13.418V204.285c0-.106,0-.426.638-.593l.939-.246h-4.251l.983.246c.563.141.563.42.563.511v10.882l-14.045-10.939a.307.307,0,0,1-.042-.163.687.687,0,0,1,.093-.35l.107-.187h-4.685l.422.234a2.268,2.268,0,0,1,.96.992v13.061C448.43,218,448.22,218.2,447.787,218.329Z"/><path id="d" d="M491.07,210.854a6.579,6.579,0,0,0-3.256-5.3,13.021,13.021,0,0,0-7.439-2.111h-9.22l.249.219c.328.287.4.466.4.566v13.557c0,.1-.069.279-.4.566l-.25.219h9.367a12.609,12.609,0,0,0,7.479-2.25C490.111,214.819,491.144,212.979,491.07,210.854Zm-16.5-6.5h5.742a9.371,9.371,0,0,1,5.5,1.764,5.623,5.623,0,0,1,2.734,4.847,6.012,6.012,0,0,1-2.944,4.985,9.258,9.258,0,0,1-5.233,1.711h-5.8Z"/><path id="T" d="M513.755,202.58v16.564c0,.123-.089.346-.512.71l-.255.219h4.868l-.254-.219c-.422-.364-.511-.587-.511-.71V202.58h8.54c.272,0,.571.223.888.663l.226.314v-2H504.1v2.765l.247-1.126a.758.758,0,0,1,.866-.616Z"/><path id="r-2" data-name="r" d="M528.236,218.354l-.251.219h4.047l-.225-.215c-.3-.287-.364-.468-.364-.57v-5.925h1.431a42.543,42.543,0,0,0,4.587,4.21,18,18,0,0,0,1.76,1.186,8.363,8.363,0,0,0,4.752,1.507,6.547,6.547,0,0,0,1.79-.225l.765-.219-.8-.026c-1.09-.036-2.568-.74-4.392-2.094a26.777,26.777,0,0,1-5.427-4.835,5.7,5.7,0,0,0,2.966-1.918,3.377,3.377,0,0,0,.757-1.916c.025-1.218-.7-2.236-2.152-3.028a10.132,10.132,0,0,0-4.776-1.059h-4.722l.25.219c.327.287.4.466.4.566v13.557C528.633,217.888,528.564,218.067,528.236,218.354Zm8.662-10.776a2.642,2.642,0,0,1-1.445,2.411,4.9,4.9,0,0,1-2.818.909h-1.192v-6.487h1.082a4.744,4.744,0,0,1,3.176,1.094,2.817,2.817,0,0,1,1.2,2.071Z"/><path id="a-2" data-name="a" d="M565.111,217.725l-8.686-14.757-1.635,2,.653,1.109-6.753,11.572a1.389,1.389,0,0,1-.636.524,4.008,4.008,0,0,1-.426.16l-.756.244h3.652l-.579-.24c-.225-.094-.252-.214-.252-.3a.414.414,0,0,1,.062-.211l2.756-4.725h7.029l2.8,4.757a.563.563,0,0,1-.045.535l-.09.18h4.123l-.423-.234A1.984,1.984,0,0,1,565.111,217.725Zm-6.065-5.534H553l3.01-5.222Z"/><path id="c" d="M580.73,217.691a11.2,11.2,0,0,1-6.71-2,5.788,5.788,0,0,1-2.747-4.752,5.9,5.9,0,0,1,2.765-4.822,11.069,11.069,0,0,1,6.692-2.038,9.192,9.192,0,0,1,5.7,1.513l.2.157v-1.794l-1.484-.2a22.97,22.97,0,0,0-5.664-.581,12.658,12.658,0,0,0-7.811,2.28,6.532,6.532,0,0,0-2.921,5.577,7.018,7.018,0,0,0,3.27,5.528,12.78,12.78,0,0,0,7.645,2.265,39.1,39.1,0,0,0,7.081-.717l.071-.013.692-1.974-.3.19A12.355,12.355,0,0,1,580.73,217.691Z"/><path id="k" d="M600.146,218.573h5.6l-.606-.241a5.3,5.3,0,0,1-1.26-.636l-9.665-7.484,7.6-5.856c.561-.311.969-.522,1.247-.644l.533-.234-3.579-.034.063.17c.186.5,0,.635-.069.683l-7.882,6.113v-6.179c0-.1.069-.279.4-.566l.25-.219H588.7l.25.219c.327.287.4.466.4.566v13.557c0,.1-.069.279-.4.566l-.251.219h4.069l-.251-.219c-.329-.287-.4-.466-.4-.566v-6.234l8.1,6.3c.114.1.222.242.047.526Z"/><path id="C-2" data-name="C" d="M380.668,955.035a10.472,10.472,0,0,1-6.24-1.852,5.409,5.409,0,0,1-2.572-4.462,5.489,5.489,0,0,1,2.573-4.5,10.336,10.336,0,0,1,6.239-1.887,8.725,8.725,0,0,1,5.342,1.4l.124.1-.035-1.571-1.342-.163a21.056,21.056,0,0,0-5.256-.543,11.658,11.658,0,0,0-7.227,2.153,5.972,5.972,0,0,0-2.663,5.1,6.5,6.5,0,0,0,3.039,5.1A11.8,11.8,0,0,0,379.681,956a35.176,35.176,0,0,0,6.568-.677l.042-.007.6-1.684-.182.115A11.462,11.462,0,0,1,380.668,955.035Z"/><path id="o-3" data-name="o" d="M402.231,944.771a9.58,9.58,0,0,0-5.714-1.7,9.712,9.712,0,0,0-5.742,1.7,4.733,4.733,0,0,0,0,8.241,9.72,9.72,0,0,0,5.742,1.694,9.6,9.6,0,0,0,5.715-1.7,4.759,4.759,0,0,0,0-8.239Zm-5.886-1.076h.143a7.042,7.042,0,0,1,4.695,1.538,4.895,4.895,0,0,1,1.5,3.758,4.49,4.49,0,0,1-1.84,3.57,6.811,6.811,0,0,1-4.356,1.521h-.065a6.512,6.512,0,0,1-4.33-1.53,4.753,4.753,0,0,1-.162-7.359A6.4,6.4,0,0,1,396.345,943.7Z"/><path id="p" d="M414,943.9a5.428,5.428,0,0,0-2.6-.624h-4.971l.15.132c.249.219.3.358.3.436v10.106c0,.078-.052.217-.3.436l-.15.132h2.934l-.15-.132c-.249-.219-.3-.358-.3-.436V943.86h1.779a3.419,3.419,0,0,1,2.055.662,2.322,2.322,0,0,1,1,2.068A2.788,2.788,0,0,1,412,949.027a5.678,5.678,0,0,1-1.7.486l-.36.051.351.1a5.307,5.307,0,0,0,1.383.188,4.379,4.379,0,0,0,2.953-1.044,2.81,2.81,0,0,0,1.076-2.483A2.963,2.963,0,0,0,414,943.9Z"/><path id="y" d="M426.43,943.279l.378.146c.151.057.169.129.169.178a.325.325,0,0,1-.083.2l-3.681,4.575-3.741-4.577a.4.4,0,0,1-.043-.421l.038-.1h-3.119l.283.143a2.31,2.31,0,0,1,.711.472l4.237,5.227v4.832c0,.078-.053.217-.3.436l-.15.132h2.934l-.149-.132c-.249-.219-.3-.358-.3-.436v-5.036l3.978-4.949a2.806,2.806,0,0,1,.951-.54l-.014-.149Z"/><path id="r-3" data-name="r" d="M442.786,954.35a6.644,6.644,0,0,1-3.285-1.564,19.885,19.885,0,0,1-4.064-3.63,4.241,4.241,0,0,0,2.226-1.429,2.267,2.267,0,0,0-1.033-3.66,7.547,7.547,0,0,0-3.553-.788h-3.471l.15.132c.249.219.3.358.3.436v10.106c0,.078-.053.217-.3.436l-.15.132h2.922l-.135-.13a.729.729,0,0,1-.276-.438v-4.434h1.092a31.949,31.949,0,0,0,3.422,3.141,13.291,13.291,0,0,0,1.312.884,6.217,6.217,0,0,0,3.532,1.12,4.887,4.887,0,0,0,1.329-.167l.459-.132Zm-10.669-10.387h.824a3.557,3.557,0,0,1,2.379.819,2.123,2.123,0,0,1,.9,1.558v0a2.011,2.011,0,0,1-1.086,1.812,3.674,3.674,0,0,1-2.111.681h-.906Z"/><path id="i-3" data-name="i" d="M445.969,943.411l.15-.132h-2.934l.149.132c.249.219.3.358.3.436v10.106c0,.078-.053.217-.3.436l-.149.132h2.934l-.15-.132c-.249-.219-.3-.358-.3-.436V943.847C445.667,943.769,445.72,943.63,445.969,943.411Z"/><path id="g-2" data-name="g" d="M459.72,949.11c.249.219.3.358.3.436v4.163a10.934,10.934,0,0,1-2.487.251,8.412,8.412,0,0,1-5.013-1.481,4.325,4.325,0,0,1-2.055-3.569,4.458,4.458,0,0,1,1.852-3.63,8.065,8.065,0,0,1,5.054-1.5h.161a11.988,11.988,0,0,1,2.3.2,4.424,4.424,0,0,1,1.958.868l.122.1v-1.331l-1.093-.123a17.69,17.69,0,0,0-4.217-.418,9.434,9.434,0,0,0-5.854,1.759,4.873,4.873,0,0,0-2.128,4.142,5.157,5.157,0,0,0,2.445,4.087,9.66,9.66,0,0,0,5.7,1.664,28.805,28.805,0,0,0,5.222-.7l.06-.011v-4.469c0-.078.052-.217.3-.436l.15-.131H459.57Z"/><path id="h" d="M479.313,943.411l.15-.132h-2.934l.15.132c.249.219.3.358.3.436v4.168h-9.447v-4.168c0-.078.052-.217.3-.436l.15-.132H465.05l.15.132c.249.219.3.358.3.436v10.106c0,.078-.052.217-.3.436l-.15.132h2.934l-.15-.132c-.249-.219-.3-.358-.3-.436v-5.3h9.447v5.3c0,.078-.052.217-.3.436l-.15.132h2.934l-.15-.132c-.249-.219-.3-.358-.3-.436V943.847C479.012,943.769,479.064,943.63,479.313,943.411Z"/><path id="t-2" data-name="t" d="M483.333,944.786l.147-.529c.063-.226.236-.335.528-.335H489.2v10.031c0,.078-.052.217-.3.436l-.148.132h2.933l-.151-.132c-.25-.219-.3-.358-.3-.436V943.922h5.187c.158,0,.341.122.544.362l.132.157v-1.162H483.333Z"/><path id="_2" data-name="2" d="M515.57,954.051h-6.581c1.925-1.23,3.241-2.056,4.023-2.526a11.263,11.263,0,0,0,1.979-1.649,3.4,3.4,0,0,0,.927-2.208,3.154,3.154,0,0,0-1.393-2.772,7.257,7.257,0,0,0-4.065-1.152c-.081,0-.16,0-.239,0a5.822,5.822,0,0,0-3.408,1.031,3.785,3.785,0,0,0-1.755,2.658,3.014,3.014,0,0,0,.626,2.313q.6.611,1.233,1.244a.475.475,0,0,1,.076.182v.155l1.93-1.535-.183-.018a.893.893,0,0,1-.274-.06,2.864,2.864,0,0,1-1.6-2.428,2.333,2.333,0,0,1,.943-1.765,3.812,3.812,0,0,1,2.643-1.031,3.4,3.4,0,0,1,2.519.868,2.683,2.683,0,0,1,.735,2.219,4.956,4.956,0,0,1-1.7,3.3,22.084,22.084,0,0,1-3.105,2.272c-2.064,1.268-3.388,2.1-3.937,2.487l-.2.137h9.891a.356.356,0,0,1,.252.092l.074.07,1.1-2.256-.3.28A.309.309,0,0,1,515.57,954.051Z"/><path id="_0" data-name="0" d="M521.864,943.562a5.13,5.13,0,0,0-3.943,1.834,6.744,6.744,0,0,0,0,8.814,5.189,5.189,0,0,0,7.917,0,6.744,6.744,0,0,0,0-8.814A5.166,5.166,0,0,0,521.864,943.562Zm-2.51,2.4a3,3,0,0,1,2.51-1.569,3.062,3.062,0,0,1,2.54,1.593,6.557,6.557,0,0,1,1.046,3.812,7.289,7.289,0,0,1-1.092,3.84,2.959,2.959,0,0,1-2.494,1.57,3,3,0,0,1-2.51-1.57,7.57,7.57,0,0,1,0-7.676Z"/><path id="_0-2" data-name="0" d="M533.846,943.562A5.131,5.131,0,0,0,529.9,945.4a6.747,6.747,0,0,0,0,8.814,5.189,5.189,0,0,0,7.917,0,6.744,6.744,0,0,0,0-8.814A5.164,5.164,0,0,0,533.846,943.562Zm-2.51,2.4a3,3,0,0,1,2.51-1.569,3.063,3.063,0,0,1,2.54,1.593,6.558,6.558,0,0,1,1.046,3.813,7.3,7.3,0,0,1-1.092,3.839,2.962,2.962,0,0,1-2.494,1.57,3,3,0,0,1-2.51-1.57,7.564,7.564,0,0,1,0-7.676Z"/><path id="_5" data-name="5" d="M550.243,943.7H542.98l-.874,4.905h1.149a6.862,6.862,0,0,1,4.071,1.1,2.77,2.77,0,0,1,1.33,2.276,2.738,2.738,0,0,1-1.24,2.23,4.956,4.956,0,0,1-3.041.937,4.483,4.483,0,0,1-2.486-.686,2.3,2.3,0,0,1-1.161-1.637l-.011-.09-.794.253.023.073c.614,1.876,2.327,2.828,5.094,2.828a6.261,6.261,0,0,0,3.949-1.264,3.787,3.787,0,0,0,1.633-3.055,3.713,3.713,0,0,0-1.853-3.15,10.162,10.162,0,0,0-5.349-1.349l.321-1.647h6.5a.344.344,0,0,1,.252.094l.127.119v-2.191l-.131.147A.316.316,0,0,1,550.243,943.7Z"/></g></g></svg>
