<svg xmlns="http://www.w3.org/2000/svg" width="710" height="1000" viewBox="0 0 710 1000"><g id="Artboard"><rect id="Page" width="710" height="1000" fill="#fff"/></g><g id="Text"><path d="M169.611,721.113a9.037,9.037,0,0,1,4.631,2q2.633,1.818,2.633,3,0,1.454-2.542,1.454l-6.72,1.179q-.183,1.546-.272,3.179-.091,2.09-.182,4.086a30.74,30.74,0,0,1,6.811-2.27q10.9,0,11.259,6.992a27.014,27.014,0,0,1-1.816,8.9A19.437,19.437,0,0,1,178.6,756.8a5.076,5.076,0,0,1-6.811,1.18,18.439,18.439,0,0,1-2.179.636,68.6,68.6,0,0,0,21.158,15.528q10.625,5,13.8,7.537a13.954,13.954,0,0,1,2.724,2.542q0,1.907-4.358,1.907a34.607,34.607,0,0,1-18.979-5.9q-8.084-5.085-17.253-17.072.181,8.718,1,26.153-.091,7.172-1.725,7.263-2.363,0-5.176-3.541-2.452-3.724-2.452-5.448,0-1.09.363-1.09a4.524,4.524,0,0,0,2.089.727c.3-.062.454-.877.454-2.452V762.521a58.842,58.842,0,0,1-9.9,11.168q-6.448,6.177-11.26,8.264a12.01,12.01,0,0,1-4.995,1.634q-1.544,0-1.543-.726,0-1.089,1.634-1.544a36.822,36.822,0,0,0,11.169-7.718,69.724,69.724,0,0,0,10.988-13.349,5.8,5.8,0,0,1-1.816-.636c-.726-.545-1.121-.937-1.181-1.179q0-.727,1.635-.909a25.2,25.2,0,0,0,5.267-1.453V752.26a6.477,6.477,0,0,0-.727.181,16.231,16.231,0,0,1-3.723.635q-2.451,0-2.452-1.452,0-.726,1.181-1.362,3.45-1.725,5.721-2.816v-4.267a24.776,24.776,0,0,1-6.538,2.179q-3.27,0-3.633-1.362.273-.817,2.361-1.271a36.179,36.179,0,0,0,5.9-3,10.3,10.3,0,0,1,2-1q0-4.994.09-7.718a8.464,8.464,0,0,1,.091-1.363l-7.537,1.181a7.833,7.833,0,0,1-3.269-.545A1.349,1.349,0,0,1,150,729.1q0-.726.908-1a65.8,65.8,0,0,0,10.806-3.813q.271-6.447.272-11.532l-.726-3.632q0-.726,2.815-.817a4.378,4.378,0,0,1,3.087,1.18,6.952,6.952,0,0,1,2.089,4.994,34.769,34.769,0,0,1-.818,6.175,2.645,2.645,0,0,0-.091.636A6.3,6.3,0,0,1,169.611,721.113Zm-27.968,21.7a9.25,9.25,0,0,1,3.087.455,7.7,7.7,0,0,1,4.359,4.54,21.958,21.958,0,0,1,2,6.992q0,5.9-1.906,5.9a3.559,3.559,0,0,1-2.906-1.906q-1.273-1.817-2.634-8.718a10.079,10.079,0,0,0-2.452-4.177A2.988,2.988,0,0,1,140.1,744C140.1,743.21,140.612,742.815,141.643,742.815Zm25.335-2q-.091,2.181-.091,4.269h.091q3.357,0,3.359,2.542,0,1.545-2.633,2.452l-.908.363q-.091,1.908-.091,3.451a27.5,27.5,0,0,1,4.54-.545,7.658,7.658,0,0,1,1-1q4.268-4.177,4.268-11.624-.183-1.543-2.906-1.543A29.83,29.83,0,0,0,166.978,740.817Z" fill="#231f20" stroke="#231f20" stroke-linecap="round" stroke-linejoin="round" stroke-width="2"/><path d="M288.134,735.369a16.044,16.044,0,0,1,7.719,2.089q5.356,3.27,5.357,5.812,0,1.545-3.542,1.543-2.722,0-7.082-.272-6.449-.635-12.622-.817a49.069,49.069,0,0,0-9.081,1,6.848,6.848,0,0,1,.727,3.268,11.827,11.827,0,0,1-1.453,4.722,29.172,29.172,0,0,1,6.719,7.083,17.354,17.354,0,0,1,2,8.173,38.829,38.829,0,0,1-1.726,10.8q-2.452,8.356-6.447,11.987-2.726,2.541-4.45,2.543-2.451-.093-4.54-3.179a10,10,0,0,1-1.725-5.539q.088-1,.817-1a10.231,10.231,0,0,0,3.541,1,3.71,3.71,0,0,0,2.906-1.543q1.907-2,3.269-7.719a37.358,37.358,0,0,0,1.09-7.355q0-4.722-4.086-10.9A133.7,133.7,0,0,1,249,776.868a49.637,49.637,0,0,1-16.345,10.352.321.321,0,0,1-.363-.364,154.415,154.415,0,0,0,27.787-33.78,31.308,31.308,0,0,0,2.9-6.809,93.13,93.13,0,0,0-17.253,8.444,17.26,17.26,0,0,1-9.808,3.36,22.019,22.019,0,0,1-8.353-1.544q-2.817-1-2.906-1.725,0-.726,1.18-.727,6.267-.272,26.062-9.08,9.17-4.268,15.436-5.266,7.446-1.452,13.077-2.907A24.213,24.213,0,0,1,288.134,735.369ZM259.167,717.48a14.579,14.579,0,0,1,8.354,2.453q3.995,2.543,4,6.174,0,2.271-1.907,2.27-7.266,0-9.443.817a4.648,4.648,0,0,1-2.18.636v-.363q5.175-2.633,5.176-4,0-1.725-3.087-4.813-1.728-1.817-1.726-2.18Q258.35,717.481,259.167,717.48Z" fill="#231f20" stroke="#231f20" stroke-linecap="round" stroke-linejoin="round" stroke-width="2"/><path d="M325.84,758.435q.546,0,1.726,1.543a6.7,6.7,0,0,1,1.09,3.632,15.593,15.593,0,0,1-3.542,9.353q-1.726,2.636-3.723,2.634-.818,0-1.907-1.453a2.612,2.612,0,0,1-.908-1.817,4.279,4.279,0,0,1,1.18-2.179q4.994-7.629,5.539-10.806Q325.3,758.435,325.84,758.435Zm46.04-37.322a7.359,7.359,0,0,1,4.358,1.18,4.119,4.119,0,0,1,1.181,3.179q0,3.268-2.634,3.268a23.487,23.487,0,0,1-3.268-1,24.424,24.424,0,0,0-5.449-.545q-1.906,0-3.451.091a31.362,31.362,0,0,1-10.352,7.536.32.32,0,0,1-.363-.363,50.774,50.774,0,0,0,4.722-6.991q-2.726.09-5.176.363-1.635.273-3.361.544a13.957,13.957,0,0,1,.182,2.089q0,6.993-2.088,6.992-1.182,0-2.18-2.18a26.617,26.617,0,0,1-1.271-5.72q-1.453.365-3,.726a9.238,9.238,0,0,1-3.088.545,4.686,4.686,0,0,1-2.905-1.271q-1.455-1.27-1.453-2,0-.363,1.089-.364a24.238,24.238,0,0,0,6.9-1.18q1-.273,1.906-.545v-.182a14.026,14.026,0,0,0-1.906-4.9,4.584,4.584,0,0,1-.727-2.18q0-1.452,1.907-1.453a4.494,4.494,0,0,1,2.179.454q2.18,1.09,3.27,5.085.271,1,.454,1.907,2.632-.635,5.539-1.09,3.177-.545,6.084-.908a32.418,32.418,0,0,0,2.088-11.35,1.2,1.2,0,0,1,1.363-1.362,7.623,7.623,0,0,1,4.176,1,4.49,4.49,0,0,1,1.726,3.724,20.842,20.842,0,0,1-1.817,7.174Q369.608,721.113,371.88,721.113Zm-.727,30.511a28.009,28.009,0,0,1,10.715,2.36q3.815,2.091,3.814,4.814,0,1.454-5.812,3a40.144,40.144,0,0,1-9.08,1.453q-1.727,0-1.726-1.181,0-.361,4.086-3.268a1.971,1.971,0,0,0,.909-1.453q0-.635-1.454-1a62.182,62.182,0,0,0-7.172-.364q-8.809,0-23.339,6.539a19.008,19.008,0,0,1-5.448,1.453q-3.633-.09-3.632-1.544c0-.364.574-.756,1.726-1.181Q354.9,751.987,371.153,751.624Zm-35.959-9.9a5.466,5.466,0,0,1,2.179.363,5.613,5.613,0,0,1,3,3.542,16.664,16.664,0,0,1,1.18,3.632q1.906-.635,3.541-1.09v-6.084q-2.543,0-2.906-1,.273-.635,1.907-1a32.968,32.968,0,0,0,5.085-2.543q9.172-4.54,12.26-4.813,9.807,0,10.08,5.358a19.261,19.261,0,0,1-1.454,6.719,14.349,14.349,0,0,1-4.176,5.176,5.561,5.561,0,0,1-3.724,1.635q-2.816-.273-3.45-2.361a112.392,112.392,0,0,1-11.079,2.361,35.131,35.131,0,0,1-5.811.727q-.183,4-1.907,4-1.09,0-2-1.544-.907-1.452-1.725-6.992a9.381,9.381,0,0,0-1.725-3.36,2.932,2.932,0,0,1-.635-1.635Q333.832,741.726,335.194,741.726Zm22.611,18.252q5.81,0,6.084,6.9,0,8.084-5.539,16.708-9.264,12.986-18.434,12.985-5.088-.09-5.358-1.361a37.2,37.2,0,0,0,16.617-11.533q1.09-1.361,2-2.724A5.59,5.59,0,0,1,350,779.138q-2.452-2.543-2.452-4.631c0-.786.364-1.181,1.089-1.181a7.634,7.634,0,0,1,5,2,6.928,6.928,0,0,1,1.543,2.179,21.771,21.771,0,0,0,3-10.261q0-2.269-1.09-2.27-2.364,0-8.809,7.628-5.175,5.087-6.81,5.085-2.544,0-2.542-2.088.452-1.635,6.083-7.356Q352.356,760.252,357.805,759.978ZM349,746.9q.726-.271,1.362-.453.181-.635.454-1.362a41.816,41.816,0,0,0,1.271-4.722,3.952,3.952,0,0,0,.091-.726l-1.271.545q-.909.363-1.453.634Zm5.539-1.633a38.171,38.171,0,0,1,3.9-.909q2.361,0,2.906,1a10.639,10.639,0,0,0,2.543-7.264q-.093-1-2.816-1a23.3,23.3,0,0,0-5.721,1.362l.091.091a4.643,4.643,0,0,1,1.635,3.178,4.51,4.51,0,0,1-1.181,2A19.054,19.054,0,0,1,354.535,745.268Z" fill="#231f20" stroke="#231f20" stroke-linecap="round" stroke-linejoin="round" stroke-width="2"/><path d="M414.943,740a6.431,6.431,0,0,1,3.723,1.27,3.863,3.863,0,0,1,1.816,3.452,24.286,24.286,0,0,1-.181,2.451q4.086-.453,8.354-.817l.454-13.257q0-1.545-1.362-1.544l-2.725-.091a.965.965,0,0,1-.908-1q0-.545,1.907-1.817a7.542,7.542,0,0,1,4.541-1.452q6.082.092,6.265,5.176a26.7,26.7,0,0,1-1,6.629,106.183,106.183,0,0,0-.725,11.623q-.456,21.249-2,26.425-1.452,4.63-3.269,4.631-1.089,0-1.725-1.908a18.467,18.467,0,0,1-.363-3.813l.273-10.534a43.836,43.836,0,0,1-6.993,7.9q-5.631,4.632-7.173,4.722a4.049,4.049,0,0,1-3.269-1.725,9.286,9.286,0,0,1-1.726-5.086q.09-2.633,1.726-2.633a1.224,1.224,0,0,1,1.18.818,1.5,1.5,0,0,0,1.089.636,2.972,2.972,0,0,0,.909-.182q.818-20.431.817-25.153a2.978,2.978,0,0,0-.817-2.452q-.546-.546-.545-.818Q413.218,740,414.943,740Zm2.633,27.877a106.541,106.541,0,0,0,10.625-7.356l.273-7.99q-4.632.182-8.809.726Q418.847,759.071,417.576,767.878Zm54.757-41.044q2.632,0,2.633,1.906,0,3.726-8.355,5.449a2.437,2.437,0,0,1-.544.09q-1.089,4.179-2.361,8.991,12.166-4.088,16.254-4.086a10,10,0,0,1,6.084,2.178q2.634,2.18,2.634,3.724-.093,1.635-4.359,1.725a20.455,20.455,0,0,1-5.086-1,17.762,17.762,0,0,0-4.267-.726q-5.812,0-14.166,2.9-18.888,6.086-21.43,6.084-2.271,0-2.27-.726,0-.363,1.362-.636,11.8-4.63,20.341-7.718.817-5.356,1.362-9.717a56.673,56.673,0,0,1-8.809,1.09,5.4,5.4,0,0,1-2.815-.817q-1.089-.726-1.18-1.09,0-1,2.361-1.271a47.42,47.42,0,0,0,10.534-3.723,3.671,3.671,0,0,1,.725-.273,119.539,119.539,0,0,0,1.272-12.44,3.056,3.056,0,0,0-1.272-2.9q-.908-.728-.907-1.09,0-1.815,2.542-1.907a9.1,9.1,0,0,1,4.9,1.634,4.842,4.842,0,0,1,2.361,4.268q0,2.09-2.089,10.443A27.714,27.714,0,0,1,472.333,726.834Zm4.722,26.878a10.044,10.044,0,0,1,4,.908,3.307,3.307,0,0,1,1.907,2.725,1.7,1.7,0,0,1-1.453,1.906q-3.453.545-6.538,1.271v25.7q0,4.993-2,7.446a4.481,4.481,0,0,1-3.905,2.179q-3.723,0-11.259-8.626v-.364a25.34,25.34,0,0,0,6.9,1.09q4.72,0,4.722-3.9V761.794a101.054,101.054,0,0,0-10.988,3.813q-8.717,3.633-11.8,3.724a4.215,4.215,0,0,1-3.542-1.816,4.74,4.74,0,0,1-1.271-2.815c0-.484.513-.757,1.543-.817q7.356-.908,26.062-7.628v-1.817q0-3.813-1.453-4.9-1-.544-1-1.181,0-.725,2.088-.726a6.048,6.048,0,0,1,4.177,1.544,7.777,7.777,0,0,1,1.726,4.994A7.247,7.247,0,0,1,477.055,753.712Zm-24.336,15.982a11.832,11.832,0,0,1,6.81,2.179q2.724,2,2.724,4.087a2.247,2.247,0,0,1-2.542,2.542,8.3,8.3,0,0,1-5-2.179q-3.36-2.905-3.36-5.448Q451.356,769.7,452.719,769.694Z" fill="#231f20" stroke="#231f20" stroke-linecap="round" stroke-linejoin="round" stroke-width="2"/><path d="M516.123,733.463c.483,0,.727.213.727.636a104.431,104.431,0,0,0-5.45,20.7q-.181,1.182-1.724,1.18a4.349,4.349,0,0,1-2.816-1.271q-1.634-1.27-1.634-2.36,0-1.364,1.816-5.268a60.1,60.1,0,0,1,5.357-10.442Q514.762,733.736,516.123,733.463Zm34.869,28.6q3.814,0,4,3.269,0,1.818-3.722,7.174a67.53,67.53,0,0,1-9.535,11.078,5.679,5.679,0,0,0,.817-.181,63.57,63.57,0,0,1,15.619-2q8.989,0,14.166,1.817,4.539,1.632,4.54,4.994,0,2.722-2.634,2.723a40.127,40.127,0,0,1-7.627-.908,55.253,55.253,0,0,0-10.988-1,107.058,107.058,0,0,0-21.7,1.906,57.832,57.832,0,0,1-11.169,1.272,16.89,16.89,0,0,1-6.72-1.817q-2.452-1.181-2.815-2.178,0-.911,2.634-1a171.119,171.119,0,0,0,19.16-2.18,32.091,32.091,0,0,0,4-7.083q3-5.72,3-6.72l-.726-.362a20.687,20.687,0,0,1-7.628,1.725,6.267,6.267,0,0,1-3.542-1.09q-2.361-1.633-2.36-2.542a.322.322,0,0,1,.363-.364,15.168,15.168,0,0,0,2.633.364q3.723,0,10.625-3.179Q548.9,762.068,550.992,762.066Zm14.62-38.5a26.889,26.889,0,0,1,11.169,2.634q4.086,2.179,4.086,4.994,0,3.361-8.444,7.265-8.357,3.269-13.076,3.269-1.728,0-1.726-1,0-.816,8.809-6.357,2.087-1.451,2.088-2.814,0-1-1.635-1.544a46.191,46.191,0,0,0-7.536-.545q-9.9,0-26.516,4.994a32.882,32.882,0,0,1-6.084,1.09q-4.722-.09-4.722-1.816,0-.453,1.816-1Q547,723.93,565.612,723.564Zm-35.6,18.162a2.914,2.914,0,0,1,2.543,1.544q1.089,2,1.089,6.538a7.913,7.913,0,0,1-1.271,4.9,3.843,3.843,0,0,1-3.087,1.271,2.451,2.451,0,0,1-1.816-.635,2.891,2.891,0,0,1-.727-2,9.232,9.232,0,0,1,2-4.813,10.087,10.087,0,0,0,1.271-3.45,6.966,6.966,0,0,0-.726-2.634C529.29,742.029,529.531,741.787,530.016,741.726Zm2.088-28.967a32.35,32.35,0,0,1,11.714,2q5.45,2.178,5.449,5.176,0,2.906-2.633,2.9-7.539,0-9.808,1.362a3.673,3.673,0,0,1-2.179.908v-.726q3.358-3.45,3.36-5.539,0-1-4.54-3.269a9.652,9.652,0,0,1-2.452-1.362Q531.015,712.76,532.1,712.759ZM546,732.01q5.721.272,5.721,5.448a14.566,14.566,0,0,1-1.181,4.54,8.585,8.585,0,0,0-1.635,4.45q0,1.272,2.362,1.634,6.174.273,6.356,2.361,0,2.544-4.086,5.358-4,2.907-16.255,7.083-.363,0-.363-.454a8.85,8.85,0,0,1,1.726-2.271,46.926,46.926,0,0,1,6.356-4q3.087-1.815,3.088-2.815,0-.453-2.18-2.088-3.541-2.089-3.542-4.45a18.5,18.5,0,0,1,2.18-7.991q0-1.089-1.907-1.09a11.539,11.539,0,0,0-3.632,1.454c-.363,0-.576-.242-.636-.727q0-.726,3.088-3.724A8.394,8.394,0,0,1,546,732.01Z" fill="#231f20" stroke="#231f20" stroke-linecap="round" stroke-linejoin="round" stroke-width="2"/><g id="平成_年_月_第一版第一刷" data-name="平成９年１２月 第一版第一刷"><path d="M215.38,826.6a4.525,4.525,0,0,1,1.513.279.885.885,0,0,1,.628.861q0,.884-1.117.931a4.733,4.733,0,0,0-2.373.907q-.721.535-1.35.954a1.579,1.579,0,0,1,1.187.675,3.344,3.344,0,0,1,.488,1.838q0,1.024-.023,2.211a11.357,11.357,0,0,0,.838-1.373,6.528,6.528,0,0,0,.931-2.886c0-.248.069-.372.209-.372a2.627,2.627,0,0,1,1.606.606,1.728,1.728,0,0,1,.814,1.326,2.191,2.191,0,0,1-.6,1.373,13.729,13.729,0,0,1-3.537,2.861q2.606-.186,3.258-.185a5.18,5.18,0,0,1,2.14.581q1.536.7,1.536,1.14,0,1.257-1.326,1.257a3.129,3.129,0,0,1-1.4-.535,8.506,8.506,0,0,0-3.816-.885h-.768q-.071,2.42-.233,5.306a16.091,16.091,0,0,1-.884,4.351q-.256.675-.512.675-.139,0-.186-.675-.07-.816-.093-9.494a10.271,10.271,0,0,0-1.117.233,27.761,27.761,0,0,0-4.584,1.931,4.953,4.953,0,0,1-2.118.722,2.491,2.491,0,0,1-1.442-.466c-.218-.171-.326-.3-.326-.372a.227.227,0,0,1,.209-.232,6.373,6.373,0,0,0,2.607-.722,30.437,30.437,0,0,1,4.095-1.652,13.5,13.5,0,0,1,2.676-.745v-3.979a9.529,9.529,0,0,0-.35-2.048q-1.07.7-2,1.188a.083.083,0,0,1-.093-.094,27.372,27.372,0,0,1,3.514-3.048,17.821,17.821,0,0,1-3.77.931,3.309,3.309,0,0,1-1.651-.419,1.451,1.451,0,0,1-.792-1c0-.186.07-.279.209-.279a4,4,0,0,0,1.118.186,10.141,10.141,0,0,0,3.466-.978A8.791,8.791,0,0,1,215.38,826.6Zm-8.307,7.1a4.242,4.242,0,0,1,2.025,1.188.739.739,0,0,0,.419.209q.162,0,.721-1.489c.077,0,.116.062.116.186a5.541,5.541,0,0,1-.977,3.327,1.79,1.79,0,0,1-1.373.862c-.171,0-.334-.2-.489-.582a5.318,5.318,0,0,1-.442-1.885,7.435,7.435,0,0,0-.256-1.629C206.817,833.756,206.9,833.693,207.073,833.693Z" fill="#231f20"/><path d="M229.24,833.392q.721,0,1.513,1.116a3.213,3.213,0,0,1,.7,1.955,14.015,14.015,0,0,1-1.071,4.84q-1.209,3.163-2.256,3.164c-.265,0-.4-.03-.4-.093a21.083,21.083,0,0,0,1.419-4.468,17.489,17.489,0,0,0,.349-3.443,11.98,11.98,0,0,0-.628-2.862C228.868,833.461,228.992,833.392,229.24,833.392Zm11.239-3.258q1.558.046,1.606,1.023,0,.232-.7.722a2.2,2.2,0,0,1-.373.3,8.2,8.2,0,0,0-1.466,1.256,2.471,2.471,0,0,1-.325.349q.651,1.722,1.419,3.42a5.412,5.412,0,0,0,.419-1.954.613.613,0,0,0-.117-.163.4.4,0,0,1-.069-.187c0-.185.178-.279.535-.279a1.365,1.365,0,0,1,.814.233c.264.171.4.333.4.489a8.649,8.649,0,0,1-.954,3.862q1.118,2.048,2.42,4,.93,1.466,1.326,1.466c.047,0,.1-.116.163-.35a21.015,21.015,0,0,0,.163-2.117c.031-.108.054-.163.07-.163.108,0,.233.14.372.419a5.843,5.843,0,0,1,.559,2.559,6.018,6.018,0,0,1-.187,1.723q-.186.512-.465.512a3.2,3.2,0,0,1-1.885-1.141,20.394,20.394,0,0,1-3.374-5.468q-1.4,1.979-2.652,1.978a1.153,1.153,0,0,1-.675-.209c-.125-.078-.187-.14-.187-.187a.728.728,0,0,1,.373-.651q1.14-.442,2.234-2.815l.046-.071q-.815-1.931-1.559-4.072-.79.769-1.535,1.467.815.394.814,1.791a7.489,7.489,0,0,1-.768,3.1,7.206,7.206,0,0,1-2.257,2.675,2.017,2.017,0,0,1-1.07.35q-.327,0-.7-.978a2.377,2.377,0,0,1-.233-.7c0-.093.131-.139.4-.139a1.774,1.774,0,0,0,1.048-.349,4.63,4.63,0,0,0,1.442-1.861,4.467,4.467,0,0,0,.582-1.746c0-.294-.093-.442-.279-.442a3,3,0,0,0-1.071.349q-.279.139-.465.21-.606.51-1.14.93a1.316,1.316,0,0,1-.884.372q-.279,0-.443-.372a1.328,1.328,0,0,1-.3-.861q0-.488,1.117-1.094a28.23,28.23,0,0,0,4.653-3.234,5.694,5.694,0,0,0,.7-.675q-.164-.512-.349-1.023a7.669,7.669,0,0,1-4.352,1.675q-1.443-.069-1.582-1.3,0-.4.209-.4a2.627,2.627,0,0,0,1.117.3,11.24,11.24,0,0,0,4-1.233c.093-.047.178-.085.255-.117q-.511-1.629-1.023-3.4a1,1,0,0,0-.628-.744c-.265-.063-.4-.124-.4-.187q.14-.394.465-.395a2.667,2.667,0,0,1,1.257.348,1.039,1.039,0,0,1,.814.978,13.107,13.107,0,0,0,.489,2.955A8.1,8.1,0,0,1,240.479,830.134Zm-1.931,1.721c.046.14.085.264.116.373a1.032,1.032,0,0,0,.093.186c.094-.155.171-.295.233-.419-.032-.108-.124-.163-.279-.163A.706.706,0,0,0,238.548,831.855Zm3.35-4.77a8.443,8.443,0,0,1,1.164.14,4.791,4.791,0,0,1,1.861.745,1.285,1.285,0,0,1,.582.884q-.022.675-.628.721a1.145,1.145,0,0,1-.931-.535,6.7,6.7,0,0,0-1.838-1.676c-.14-.093-.21-.163-.21-.209Z" fill="#231f20"/><path d="M261.611,838a11.677,11.677,0,0,1-1.071,5.4,4.693,4.693,0,0,1-4.421,2.63,5.408,5.408,0,0,1-3.769-1.28,3.852,3.852,0,0,1-1.443-2.7.843.843,0,0,1,.954-.954,1,1,0,0,1,.838.536q.255.441.511.931a3.084,3.084,0,0,0,2.909,1.558q2.977,0,3.3-5.491a5.686,5.686,0,0,1-3.374,1.7q-5.212,0-5.212-5.072a5.39,5.39,0,0,1,1.3-3.863,6.3,6.3,0,0,1,8.074.139Q261.612,833.253,261.611,838Zm-2.234-1.768a7.639,7.639,0,0,0-.582-3.048,2.872,2.872,0,0,0-2.746-1.28,2.924,2.924,0,0,0-2.4.861,4.183,4.183,0,0,0-.629,2.49q0,3.141,3.025,3.141A3.8,3.8,0,0,0,259.377,836.23Z" fill="#231f20"/><path d="M271.9,826.5q.394,0,1.256.907a2.972,2.972,0,0,1,.792,1.885,3.244,3.244,0,0,1-.535,1.582,3.972,3.972,0,0,0,2.117-.559,3.8,3.8,0,0,1,2.048-.628,1.558,1.558,0,0,1,.884.209,1.173,1.173,0,0,1,.419.909.946.946,0,0,1-.675.86,7.752,7.752,0,0,1-1.28.35,2.963,2.963,0,0,1,.209,1.093v.768h.279q1.024,0,1.024.744,0,.675-1.326,1.048-.022,1.7-.07,3.793a23.53,23.53,0,0,1,3.584-.4,6.841,6.841,0,0,1,2.443.373,1.047,1.047,0,0,1,.652.931q0,.93-.722.931a10.675,10.675,0,0,1-1.512-.3,21.016,21.016,0,0,0-2.536-.14q-1.049,0-1.955.047-.024,1.071-.093,2.21a26.262,26.262,0,0,1-.489,4.166c-.108.434-.21.652-.3.652-.233,0-.381-.218-.443-.652q-.138-.628-.186-6.283-1.443.139-2.722.372a20.456,20.456,0,0,0-4.956,1.955,2.366,2.366,0,0,1-1.28.419,1.239,1.239,0,0,1-.838-.442c-.248-.264-.372-.457-.372-.582,0-.155.131-.233.395-.233a7.5,7.5,0,0,0,2.7-.651,19.334,19.334,0,0,1,3-1.07,7.368,7.368,0,0,0,.279-1.118,6.72,6.72,0,0,0,.117-1.233,2.76,2.76,0,0,0-.722-1.21c0-.061.062-.093.186-.093a2.338,2.338,0,0,1,1.327.489q.629.4.628.814a3.814,3.814,0,0,1-.558,1.745,1.937,1.937,0,0,1-.163.279,7.747,7.747,0,0,1,.768-.185q1.163-.28,2.21-.489-.023-1.722-.023-3.77a12.974,12.974,0,0,1-1.792.187,2.152,2.152,0,0,1-1.07-.3c-.31-.233-.474-.411-.489-.535q0-.21.489-.256a9.631,9.631,0,0,0,2.234-.722,4.321,4.321,0,0,1,.628-.232v-1.024a6.7,6.7,0,0,0-.116-1.048,6.279,6.279,0,0,1-2.211-.464,1,1,0,0,1-.139-.093c-.125.155-.241.3-.35.441A9.887,9.887,0,0,1,268.483,835a.164.164,0,0,1-.186-.186,19.915,19.915,0,0,0,2.816-3.863,6.747,6.747,0,0,0,.907-3.211,2.7,2.7,0,0,0-.209-1.024C271.811,826.573,271.842,826.5,271.9,826.5Z" fill="#231f20"/><path d="M294.6,845.1a.8.8,0,0,1-.349.675,1.18,1.18,0,0,1-.791.279q-1.071,0-1.07-.954V834.741h-2.63a1.307,1.307,0,0,1-.838-.279.8.8,0,0,1-.349-.675q0-.7,1.094-.838a3.123,3.123,0,0,0,2.048-1.6q.93-1.328,1.885-1.326.418,0,.744.6a2.086,2.086,0,0,1,.256,1.024Z" fill="#231f20"/><path d="M309.051,844.677a.844.844,0,0,1-.954.954H300.6a3.353,3.353,0,0,1-1.559-.372,1.287,1.287,0,0,1-.768-1.164,3.728,3.728,0,0,1,1.28-2.536,22.169,22.169,0,0,1,2.979-2.351q1-.72,2.978-2.28a3.571,3.571,0,0,0,1.35-2.49,2.307,2.307,0,0,0-.954-1.978,3.932,3.932,0,0,0-2.141-.558,4.416,4.416,0,0,0-2.536.558,3.542,3.542,0,0,0-1.094,2.187,2.073,2.073,0,0,1-.233.746.7.7,0,0,1-.675.348.945.945,0,0,1-.7-.279.906.906,0,0,1-.257-.628,4.414,4.414,0,0,1,1.583-3.606,6.844,6.844,0,0,1,7.632-.14,3.926,3.926,0,0,1,1.559,3.35q0,2.492-3.932,5.236-1.048.675-2.909,2a5.014,5.014,0,0,0-1.885,2.048H308.1a.9.9,0,0,1,.7.279A.911.911,0,0,1,309.051,844.677Z" fill="#231f20"/><path d="M319.554,829.389q.093,0,.442.395a2.133,2.133,0,0,1,.861,1.373q-.024.652-.047,1.187a1.46,1.46,0,0,1,.14-.162,4.211,4.211,0,0,1,2.4-.932,1.148,1.148,0,0,1,1.233,1.3q0,.418-1.35,1.977a7.044,7.044,0,0,0-1.187,1.653.772.772,0,0,0,.233.6,8.5,8.5,0,0,0,1.373.07c.683.032,1.024.341,1.024.931a1.343,1.343,0,0,1-.489.861,18.817,18.817,0,0,1-2.792,1.954,1.063,1.063,0,0,1-.535.164.165.165,0,0,1-.187-.187,9.911,9.911,0,0,1,1.537-1.395c.34-.28.511-.466.511-.559q0-.256-.372-.3-1.49-.091-1.838-.558a.869.869,0,0,1-.186-.419,24.486,24.486,0,0,1-.954,4.375q-1.164,3.188-2.583,4.141a2.6,2.6,0,0,1-1.14.466c-.14,0-.21-.031-.21-.094a14.413,14.413,0,0,0,2.839-5.467,54.426,54.426,0,0,0,1.186-10.984C319.46,829.521,319.492,829.389,319.554,829.389Zm.977,6.376a8.086,8.086,0,0,1,.838-.908q1.348-1.255,1.349-1.559c0-.294-.132-.442-.4-.442a4.769,4.769,0,0,0-1.583.465Q320.647,834.625,320.531,835.765Zm6.282-8.61q.442,0,1.187,1.234a3.325,3.325,0,0,1,.675,1.489,6.26,6.26,0,0,1-.325.814,10.993,10.993,0,0,0-.373,2.025q-.139,1.907-.14,5.025v7.028a3.783,3.783,0,0,1-.558,2.14,1.166,1.166,0,0,1-.954.652,2.176,2.176,0,0,1-1.629-.884,23.445,23.445,0,0,0-3.4-2.839c0-.062.07-.093.209-.093a17.492,17.492,0,0,0,3.514,1.024q.512,0,.512-.791,0-9.053.139-10.634a11.947,11.947,0,0,0,.21-1.606,3.748,3.748,0,0,0-.372-1.839,1.307,1.307,0,0,0-1.14-.86,8.276,8.276,0,0,0-1.815.325,7.778,7.778,0,0,1-1.35.326c-.3,0-.442-.069-.442-.209q0-.139.605-.605a7.137,7.137,0,0,1,2.048-1.094A9.349,9.349,0,0,1,326.813,827.155Z" fill="#231f20"/><path d="M375.778,832.367q1.093,0,1.093,1.025-.024.6-1.372,1.884a.739.739,0,0,1,.093.372q0,.4-.675.628-.7.188-1.373.35v1.023a18.618,18.618,0,0,1,5.375-.977,6.593,6.593,0,0,1,2.467.349,1.143,1.143,0,0,1,.791,1.024q0,.721-2.117,2.443a6.821,6.821,0,0,1-2.514,1.559,1.41,1.41,0,0,1-1.116-.768c-.265-.279-.4-.48-.4-.6,0-.078.109-.14.325-.187a5.113,5.113,0,0,0,2.467-.814q1.024-.675,1.024-1.257a.434.434,0,0,0-.28-.441,3.223,3.223,0,0,0-1.186-.187,16.883,16.883,0,0,0-4.793.768l-.047.023v6.539a5.24,5.24,0,0,1-.349,2.187q-.279.629-.674.629-.513,0-1.513-2.048v-.093a.56.56,0,0,0,.4.256q.721,0,.722-1.117v-3.979a37.2,37.2,0,0,1-2.815,3.327,3.948,3.948,0,0,1-2.56,1.326c-.249,0-.373-.069-.373-.209a11.992,11.992,0,0,0,2.583-2.4,26.228,26.228,0,0,0,2.909-3.862,17.9,17.9,0,0,0-3.887,2,3.285,3.285,0,0,1-1.511.838c-.389,0-.582-.225-.582-.675a1.654,1.654,0,0,1,.419-.745,5.852,5.852,0,0,0,1.535-3.257q0-.3.954-.35.7.024.745.535a5.378,5.378,0,0,1-1.187,2.118q2.025-.884,3.77-1.512v-1.187l-.256.046a11.507,11.507,0,0,1-1.606.163c-.418,0-.628-.116-.628-.348q0-.186.466-.373,1.162-.4,2-.652a1.391,1.391,0,0,0-.3-.93.333.333,0,0,1-.209-.233,7.779,7.779,0,0,1-1.606.233q-.721-.048-.838-.4c0-.124.209-.232.628-.326A24.147,24.147,0,0,1,375.778,832.367Zm-6.539-5.468a4.306,4.306,0,0,0,.628.465,1.282,1.282,0,0,1,.7,1.094,2.475,2.475,0,0,1-.395,1.117.926.926,0,0,1,.838.744l1.117-.93v.093q-.653,1.326-1.21,2.49-.374.977-1.024.977-.536,0-.536-.861l.815-1.373a11.006,11.006,0,0,1-3.514,1.373q-.675,0-.675-.559c0-.154.187-.372.559-.651q2.49-2.535,2.49-3.677C369.03,827,369.1,826.9,369.239,826.9Zm3.188,7.447a1.281,1.281,0,0,1,.7.372,1.447,1.447,0,0,1,.326.581c.17-.046.318-.085.443-.116l1.21-1.49c0-.061-.063-.092-.187-.092Q373.474,834.066,372.427,834.346Zm2.769-8.657a1.876,1.876,0,0,1,1.024.442,1,1,0,0,1,.489.861,4.813,4.813,0,0,1-.978,1.769,8.508,8.508,0,0,1,2.072-.4c.635,0,.953.195.953.582a1.654,1.654,0,0,1-1.326,1.466q-1.4.675-3.444,1.675v-.069q1.093-.978,1.932-1.792h-1.257q-1.211,0-1.21-.931a2.411,2.411,0,0,1,.768-1.559A3.707,3.707,0,0,0,375.2,825.689Z" fill="#231f20"/><path d="M397.288,837.021a16.832,16.832,0,0,0-3.514.326,11.884,11.884,0,0,0-2.49.7,3.539,3.539,0,0,1-1.605.372,4.019,4.019,0,0,1-1.653-.279q-.791-.326-.791-.837c0-.171.063-.257.187-.257a14.122,14.122,0,0,0,3.606-.535,24.816,24.816,0,0,1,5.492-.837q4.421-.372,5.329-.513a8.073,8.073,0,0,1,1.21-.093,4.639,4.639,0,0,1,2.559.746,2.489,2.489,0,0,1,1.35,1.977.823.823,0,0,1-.931.931,2.946,2.946,0,0,1-1.326-.512,14.041,14.041,0,0,0-3-.791A24.511,24.511,0,0,0,397.288,837.021Z" fill="#231f20"/><path d="M411.944,830.994c.109,0,.311.149.606.443a3.819,3.819,0,0,1,1,1.489,7,7,0,0,1,.163,1.023q.534-.255,1.024-.511a7.572,7.572,0,0,0,1.791-4.677q0-.489.443-.489a2.358,2.358,0,0,1,1.349.349,1.421,1.421,0,0,1,.512,1.163,3.422,3.422,0,0,1-.441,1.4,5.667,5.667,0,0,1-1.072,1.21.63.63,0,0,1,.14-.024q1.211,0,1.21.931,0,.606-1.07,1.723a24.379,24.379,0,0,1-2.071,2.023c.233-.123.5-.256.791-.4a1.353,1.353,0,0,1,.652-.279,1.37,1.37,0,0,1,.838.4.942.942,0,0,1,.488.72V844.1a1.239,1.239,0,0,1-.256.791.641.641,0,0,1-.488.233.691.691,0,0,1-.49-.3.9.9,0,0,1-.185-.535q-.163-4.21-.163-5.119c0-.5-.063-.745-.187-.745a10.858,10.858,0,0,0-2.14.605,3.394,3.394,0,0,1-.628.209,37.487,37.487,0,0,1-.443,4.445,6.3,6.3,0,0,1-.6,1.931.938.938,0,0,1-.675.443q-.442,0-.442-.931a2.786,2.786,0,0,1,.163-1.117,7.313,7.313,0,0,0,.6-2.28,37.67,37.67,0,0,0,.256-4.678,31.8,31.8,0,0,0-.116-3.56,8.057,8.057,0,0,0-.582-1.675,2.346,2.346,0,0,1-.139-.721C411.782,831.025,411.836,830.994,411.944,830.994Zm1.862,6.7a10.422,10.422,0,0,0,1.3-1.722,5.542,5.542,0,0,0,.582-.977q0-.186-.093-.186a1.329,1.329,0,0,1-.768.348,3.963,3.963,0,0,1-1.047-.116q.022.861.023,1.908Zm11.751-7.912q.745,0,.745.443,0,1.094-1.722,1.652-.745.186-1.28.3-.164.7-.535,2.07l.139-.14a3.434,3.434,0,0,1,2.072-1.163q1.7,0,1.768,2.048a12.365,12.365,0,0,1-1.094,4.909,16.056,16.056,0,0,0,3.583,2.141,18.313,18.313,0,0,1,3.049,1.233c.527.265.791.535.791.815q0,.766-1.466.768a6.635,6.635,0,0,1-2.909-.605,7.966,7.966,0,0,1-3.3-2.373q-.28-.281-.513-.559-1.466,2.419-2.885,2.42a3,3,0,0,1-1.35-.232q-.069.3-.116.581a.8.8,0,0,1-.838.582q-.558-.071-.582-.838,2.282-7.586,3.327-11.5a5.675,5.675,0,0,1-.976.116,1.468,1.468,0,0,1-.769-.209c-.216-.14-.333-.248-.348-.326q0-.3.488-.4a8.547,8.547,0,0,0,2.188-1.023A4.292,4.292,0,0,1,425.557,829.784ZM420.74,843.1a8.1,8.1,0,0,0,2.909-3.073q-1-1.046-1.862-1.837Q421.3,840.419,420.74,843.1Zm1.3-6,2.164,1.745a9.924,9.924,0,0,0,.861-3.77c0-.433-.092-.651-.279-.651s-.6.279-1.186.838a2.435,2.435,0,0,1-.931.581.825.825,0,0,1-.3-.046Q422.183,836.417,422.043,837.091Z" fill="#231f20"/><path d="M450.382,832.367q1.092,0,1.093,1.025-.024.6-1.372,1.884a.749.749,0,0,1,.092.372q0,.4-.674.628c-.466.125-.923.242-1.374.35v1.023a18.618,18.618,0,0,1,5.375-.977,6.593,6.593,0,0,1,2.467.349,1.142,1.142,0,0,1,.791,1.024q0,.721-2.117,2.443a6.805,6.805,0,0,1-2.514,1.559,1.41,1.41,0,0,1-1.116-.768c-.264-.279-.4-.48-.4-.6,0-.078.108-.14.325-.187a5.116,5.116,0,0,0,2.467-.814q1.023-.675,1.023-1.257a.434.434,0,0,0-.279-.441,3.228,3.228,0,0,0-1.187-.187,16.894,16.894,0,0,0-4.793.768l-.047.023v6.539a5.258,5.258,0,0,1-.348,2.187c-.187.419-.411.629-.675.629q-.513,0-1.513-2.048v-.093a.564.564,0,0,0,.4.256c.48,0,.722-.373.722-1.117v-3.979a37.189,37.189,0,0,1-2.816,3.327,3.946,3.946,0,0,1-2.559,1.326c-.25,0-.374-.069-.374-.209a11.969,11.969,0,0,0,2.583-2.4,26.233,26.233,0,0,0,2.91-3.862,17.854,17.854,0,0,0-3.887,2,3.291,3.291,0,0,1-1.512.838q-.582,0-.582-.675a1.665,1.665,0,0,1,.419-.745,5.845,5.845,0,0,0,1.535-3.257c0-.2.319-.319.954-.35q.7.024.746.535a5.378,5.378,0,0,1-1.187,2.118q2.025-.884,3.77-1.512v-1.187l-.256.046a11.5,11.5,0,0,1-1.607.163c-.418,0-.628-.116-.628-.348,0-.124.156-.248.466-.373q1.162-.4,2-.652a1.386,1.386,0,0,0-.3-.93.336.336,0,0,1-.209-.233,7.762,7.762,0,0,1-1.6.233q-.723-.048-.838-.4c0-.124.209-.232.628-.326A24.124,24.124,0,0,1,450.382,832.367Zm-6.539-5.468a4.2,4.2,0,0,0,.628.465,1.282,1.282,0,0,1,.7,1.094,2.479,2.479,0,0,1-.4,1.117.924.924,0,0,1,.838.744l1.118-.93v.093q-.652,1.326-1.21,2.49-.374.977-1.025.977-.534,0-.535-.861l.814-1.373a11,11,0,0,1-3.513,1.373q-.675,0-.675-.559c0-.154.186-.372.559-.651q2.49-2.535,2.49-3.677C443.634,827,443.7,826.9,443.843,826.9Zm3.187,7.447a1.284,1.284,0,0,1,.7.372,1.459,1.459,0,0,1,.326.581c.17-.046.317-.085.442-.116l1.21-1.49c0-.061-.062-.092-.186-.092Q448.078,834.066,447.03,834.346Zm2.77-8.657a1.874,1.874,0,0,1,1.023.442,1,1,0,0,1,.489.861,4.82,4.82,0,0,1-.977,1.769,8.5,8.5,0,0,1,2.071-.4c.636,0,.953.195.953.582a1.654,1.654,0,0,1-1.326,1.466q-1.395.675-3.443,1.675v-.069q1.092-.978,1.931-1.792h-1.256q-1.21,0-1.21-.931a2.414,2.414,0,0,1,.767-1.559A3.709,3.709,0,0,0,449.8,825.689Z" fill="#231f20"/><path d="M472.13,837.021a16.832,16.832,0,0,0-3.514.326,11.884,11.884,0,0,0-2.49.7,3.539,3.539,0,0,1-1.6.372,4.016,4.016,0,0,1-1.653-.279q-.791-.326-.791-.837c0-.171.063-.257.187-.257a14.122,14.122,0,0,0,3.606-.535,24.816,24.816,0,0,1,5.491-.837q4.422-.372,5.329-.513a8.093,8.093,0,0,1,1.21-.093,4.64,4.64,0,0,1,2.56.746,2.491,2.491,0,0,1,1.35,1.977.823.823,0,0,1-.931.931,2.942,2.942,0,0,1-1.326-.512,14.041,14.041,0,0,0-3-.791A24.519,24.519,0,0,0,472.13,837.021Z" fill="#231f20"/><path d="M496.105,827.83a2.437,2.437,0,0,1,1.652.6,1.821,1.821,0,0,1,.675,1.256c0,.621-.162.986-.489,1.094a6.854,6.854,0,0,0-1.6,1.513.5.5,0,0,1,.14.372q0,.7-1.21,1.07c-.124.031-.242.063-.349.093a1.43,1.43,0,0,1,.418.931,2.286,2.286,0,0,1,.7-.256q2.49,0,2.607,2.164a12.67,12.67,0,0,1-.3,2.559,6.327,6.327,0,0,1-.838,2.048q-.348.606-.721.606a.928.928,0,0,1-.93-.862,2.643,2.643,0,0,1,.255-.767,8.88,8.88,0,0,0,.582-3.584q-.048-.488-.745-.488a2.816,2.816,0,0,0-.582.139c.016.744.032,1.428.047,2.048q.024,1.558.047,6.585-.093,1-.932,1.094-.6-.117-.627-1.28c0-.373.007-.713.023-1.024q0-.651.023-3.816.023-1.7.046-3.072a2.146,2.146,0,0,1-.581.186c-.651,0-1.024-.154-1.117-.465.047-.124.178-.21.4-.256a6.585,6.585,0,0,0,.977-.605,2.737,2.737,0,0,0,.325-.233V834.9a1.119,1.119,0,0,0-.348-.814,5.036,5.036,0,0,1-.582.047.953.953,0,0,1-.233-.024,9.485,9.485,0,0,1-.628,1.582,17.523,17.523,0,0,1-1.093,2.072.744.744,0,0,1,.139.046,1.861,1.861,0,0,1,.861,1.234,7.879,7.879,0,0,1,.373,1.977c0,1.009-.149,1.513-.443,1.513-.218,0-.419-.171-.605-.512a10.443,10.443,0,0,1-.489-2.374,2.67,2.67,0,0,0-.4-1q-.418.651-.861,1.256a7.261,7.261,0,0,1-2.35,2.281,2.256,2.256,0,0,1-1,.349c-.124,0-.186-.039-.186-.116a21.036,21.036,0,0,0,2.513-3.072,17.072,17.072,0,0,0,1.908-4,10.205,10.205,0,0,0,.605-3.164,3.784,3.784,0,0,0-.162-1.094c0-.187.053-.279.162-.279a1.711,1.711,0,0,1,1.164.6,2.415,2.415,0,0,1,.6,1.56,7.029,7.029,0,0,0,.838-.419,2.475,2.475,0,0,1,.884-.35l1.443-2.07a.226.226,0,0,0-.255-.256,19.441,19.441,0,0,0-3.933.7,3.187,3.187,0,0,1-.559.14c-.279,0-.426-.069-.442-.209q0-.21.489-.559a6.942,6.942,0,0,1,1.862-1.186A8.169,8.169,0,0,1,496.105,827.83Zm4.677,4.258q.186,0,.628,1.326a11.037,11.037,0,0,1,.582,3.352,2.449,2.449,0,0,1-.372,1.489.8.8,0,0,1-.651.372c-.544-.047-.83-.427-.862-1.141a12.03,12.03,0,0,1,.256-2.21,21.224,21.224,0,0,0,.3-2.722C500.682,832.243,500.72,832.088,500.782,832.088Zm4.84-4.653a1.089,1.089,0,0,1,.768.3,1.81,1.81,0,0,1,.536,1.3,6.35,6.35,0,0,1-.21,1.326q-.186,1.14-.279,2.536-.187,3.864-.186,6.074,0,1.605.3,6.539-.048,1.815-.489,1.838-.58,0-1.28-.908a3.107,3.107,0,0,1-.675-1.42c0-.17.032-.255.094-.255a1.419,1.419,0,0,0,.581.186c.063,0,.094-.179.094-.535q0-9.518.046-11.821.117-2.327.116-4.049l-.162-.907Q504.878,827.458,505.622,827.435Z" fill="#231f20"/></g><g id="_本ソフトウエアはフリーソフトウエアではありません_いわゆる海賊行為_二次配布_コピー_ネットワークヘの転載などの行為を禁じます" data-name="※本ソフトウエアはフリーソフトウエアではありません 　いわゆる海賊行為・二次配布・コピー・ネットワークヘの転載などの行為を禁じます"><path d="M136.388,936.782l-4.415,4.416,4.415,4.415-.322.323-4.416-4.416-4.415,4.416-.322-.323,4.416-4.415-4.416-4.416.322-.322,4.415,4.416,4.416-4.416Zm-7.36,4.416a.932.932,0,0,1-.276.69,1,1,0,0,1-1.471,0,1,1,0,0,1,0-1.38,1,1,0,0,1,1.471,0A.932.932,0,0,1,129.028,941.2Zm2.622-2.622a1.009,1.009,0,0,1-.735-.322,1,1,0,0,1,0-1.38,1,1,0,0,1,1.471,0,1,1,0,0,1,0,1.38A1.012,1.012,0,0,1,131.65,938.576Zm.736,6.945a1,1,0,0,1-1.471,0,1,1,0,0,1,0-1.379,1,1,0,0,1,1.471,0,1,1,0,0,1,0,1.379Zm3.634-3.633a1,1,0,0,1-1.472,0,1,1,0,0,1,0-1.38,1,1,0,0,1,1.472,0,1,1,0,0,1,0,1.38Z" fill="#231f20"/><path d="M143,943.59h-2.162v-.277H143v-3.679a13.831,13.831,0,0,1-4.875,5.059c-.185.032-.23-.03-.139-.183a14.705,14.705,0,0,0,4.646-5.7h-4.278v-.276H143v-2.484l.782.139q.367.23-.184.321v2.024H147l.69-.69.874.644q.276.231,0,.322h-4.738a9.923,9.923,0,0,0,5.152,4.922,1.34,1.34,0,0,0-.828.6A10.434,10.434,0,0,1,143.6,938.9v4.415h1.012l.6-.6.736.552c.184.154.184.26,0,.322H143.6v2.576q-.6.55-.6.046Z" fill="#231f20"/><path d="M158.766,937.426q.6.46.6.736c0,.092-.077.138-.23.138s-.277.108-.368.322a11.165,11.165,0,0,1-6.992,6.854c-.184-.032-.2-.108-.046-.23a10.96,10.96,0,0,0,6.439-7.176.493.493,0,0,0,0-.506.746.746,0,0,0-.459-.322c-.123-.061-.123-.122,0-.184A1.543,1.543,0,0,1,158.766,937.426Zm-5.244,1.242a2.311,2.311,0,0,1,.644,1.15c0,.368-.108.552-.322.552-.184,0-.338-.215-.46-.644a3.59,3.59,0,0,0-1.334-1.794c-.092-.061-.062-.107.092-.138A3.254,3.254,0,0,1,153.522,938.668Z" fill="#231f20"/><path d="M165.1,938.714a2.442,2.442,0,0,0-1.1.322.181.181,0,0,1-.185.138c-.091,0-.291-.138-.6-.414a1.1,1.1,0,0,1-.414-.69c0-.153.061-.169.184-.046a.824.824,0,0,0,.782.322q.781,0,5.795-.552a.7.7,0,0,0,.552-.368,8.417,8.417,0,0,1,.92.644c.153.123.23.23.23.322,0,.123-.108.184-.322.184s-.353.062-.414.184a11.073,11.073,0,0,1-6.946,6.486c-.153,0-.184-.061-.091-.184a11.045,11.045,0,0,0,6.439-6.67c.092-.214.03-.306-.183-.276Q168.782,938.209,165.1,938.714Z" fill="#231f20"/><path d="M179.9,940.462a5.176,5.176,0,0,1,1.748.828q.69.552.69.92c0,.275-.108.414-.322.414-.123,0-.292-.139-.506-.414a5.884,5.884,0,0,0-3.082-1.84v5.106c0,.336-.077.5-.23.5-.184,0-.338-.137-.46-.414a1.382,1.382,0,0,1,.046-.92q.138-1.563.092-7.037a1.372,1.372,0,0,0-.138-.69.917.917,0,0,0-.644-.23c-.123-.061-.123-.122,0-.184a1.759,1.759,0,0,1,.874.046,3.251,3.251,0,0,1,.644.322q.276.184.276.368c0,.092-.062.154-.184.184a.218.218,0,0,0-.184.23,16.938,16.938,0,0,0-.092,2.53A9.864,9.864,0,0,1,179.9,940.462Z" fill="#231f20"/><path d="M188.123,946.4c-.215.03-.261-.032-.138-.184a11.168,11.168,0,0,0,5.52-7.038q.138-.276-.092-.322-2.715.138-5.382.414v2.713c.061.523.015.783-.138.783a.4.4,0,0,1-.322-.184q-.276-.183-.138-.874v-2.162a1.97,1.97,0,0,0-.092-.69.435.435,0,0,0-.276-.23c-.276-.092-.23-.168.138-.23a1.092,1.092,0,0,1,.828.414q1.2-.091,2.346-.184v-1.334a.867.867,0,0,0-.092-.46.668.668,0,0,0-.46-.23c-.246-.03-.276-.107-.092-.23a2.07,2.07,0,0,1,1.472.277.268.268,0,0,1,.138.229c0,.062-.077.107-.23.138q-.184.093-.184.552v1.012q1.287-.045,2.484-.092a1.717,1.717,0,0,0,.414-.322q.414.369.69.644c.153.123.23.23.23.322,0,.061-.108.077-.322.046-.092,0-.169.061-.23.184A10.81,10.81,0,0,1,188.123,946.4Z" fill="#231f20"/><path d="M201.864,939.312q.368.184.691.368t.321.322c0,.123-.091.2-.275.229q-.048,1.382-.093,2.714c1.564-.029,2.514-.046,2.852-.046a1.266,1.266,0,0,0,.69-.275,2.183,2.183,0,0,1,.69.368c.245.184.368.338.368.46s-.108.153-.322.092a6.659,6.659,0,0,0-1.517-.185,24.4,24.4,0,0,0-6.256.369,1.416,1.416,0,0,0-.553.138.356.356,0,0,1-.321.138c-.092,0-.261-.108-.506-.322a1.746,1.746,0,0,1-.507-.69c0-.215.062-.245.185-.093a1.118,1.118,0,0,0,.828.323,31.958,31.958,0,0,0,3.863-.23v-2.484a2.051,2.051,0,0,0-.091-.644,1.3,1.3,0,0,0-.553-.506,14.4,14.4,0,0,0-2.024.322.794.794,0,0,1-.367.138q-.093,0-.46-.322a.992.992,0,0,1-.414-.69c.03-.153.076-.184.137-.092a.977.977,0,0,0,.874.414h.92q2.025-.183,4.371-.322c.245-.092.443-.168.6-.23a2.218,2.218,0,0,1,.644.368c.154.122.23.23.23.322s-.092.123-.276.092A15.781,15.781,0,0,0,201.864,939.312Z" fill="#231f20"/><path d="M218.136,937.426q.414.414.414.552c0,.092-.077.138-.23.138a1.948,1.948,0,0,1-.368-.046q-1.013.645-3.68,2.161a6.907,6.907,0,0,1-3.634,5.336c-.215.062-.291.016-.23-.137a6.656,6.656,0,0,0,3.128-5.106q.138-.966-.414-1.1-.322-.091-.092-.184a1.533,1.533,0,0,1,1.1.322.46.46,0,0,1,.184.46,16.086,16.086,0,0,0,2.99-2.208,42.153,42.153,0,0,0-4.784.46,7.775,7.775,0,0,0-1.794.414.614.614,0,0,1-.368.138c-.091,0-.276-.122-.551-.368a1.105,1.105,0,0,1-.46-.736c0-.184.076-.23.23-.138q.275.461,1.2.414a20.588,20.588,0,0,0,2.07-.184,38.3,38.3,0,0,1,4.232-.276,3.372,3.372,0,0,0,.6-.368Z" fill="#231f20"/><path d="M222.816,938.3a1.563,1.563,0,0,0-.23.506,13.322,13.322,0,0,0-.92,4.048,2.422,2.422,0,0,0,.092.919c.061.093.122.078.184-.045q.505-1.288,1.058-2.392.229-.045.138.138a14.461,14.461,0,0,0-.736,2.116,3.839,3.839,0,0,0-.138.874q0,.507.046,1.012c.03.306-.077.46-.322.46-.154,0-.276-.138-.368-.415a8.45,8.45,0,0,1-.322-2.851,15.593,15.593,0,0,1,.644-3.956,2.693,2.693,0,0,0,.092-.736.747.747,0,0,0-.552-.69q-.231-.091,0-.138a1.223,1.223,0,0,1,.69.184,6.81,6.81,0,0,1,.644.6A.231.231,0,0,1,222.816,938.3Zm5.7,5.842a1.5,1.5,0,0,1-.645,1.057,2.116,2.116,0,0,1-1.241.322,2.017,2.017,0,0,1-1.472-.459,1.011,1.011,0,0,1-.322-.736.763.763,0,0,1,.368-.6,2.518,2.518,0,0,1,1.426-.322,6.181,6.181,0,0,1,1.38.138q0-2.576-.092-3.956a19.867,19.867,0,0,1-2.76.23,1.038,1.038,0,0,1-.69-.23,2.009,2.009,0,0,1-.644-.874c-.031-.153.015-.184.138-.092a1.462,1.462,0,0,0,1.242.782,21.053,21.053,0,0,0,2.667-.23q-.045-1.149-.091-1.564-.047-.505-.874-.552c-.276,0-.292-.061-.046-.184a1.445,1.445,0,0,1,.736-.092,1.9,1.9,0,0,1,.874.322q.183.138-.046.368a.724.724,0,0,0-.093.46q0,.507.047,1.15a7.459,7.459,0,0,0,1.517-.276.418.418,0,0,1,.46,0,1.812,1.812,0,0,1,.323.23c.091.123.046.2-.139.23q-1.1.185-2.115.276.138,2.161.138,4.094,1.011.369,1.977.736a.411.411,0,0,1,.276.275.71.71,0,0,1,.047.415c-.062.184-.184.214-.368.091A11.107,11.107,0,0,0,228.52,944.142Zm-1.978-.414a1.779,1.779,0,0,0-1.242.322.442.442,0,0,0-.138.322.564.564,0,0,0,.138.414,1.618,1.618,0,0,0,1.2.413,1.434,1.434,0,0,0,1.012-.275,1.475,1.475,0,0,0,.46-.92A3.789,3.789,0,0,0,226.542,943.728Z" fill="#231f20"/><path d="M235.684,938.714a2.442,2.442,0,0,0-1.1.322.181.181,0,0,1-.184.138c-.092,0-.292-.138-.6-.414a1.1,1.1,0,0,1-.414-.69c0-.153.061-.169.184-.046a.824.824,0,0,0,.782.322q.782,0,5.8-.552a.7.7,0,0,0,.551-.368,8.417,8.417,0,0,1,.92.644c.154.123.23.23.23.322,0,.123-.108.184-.322.184s-.353.062-.414.184a11.071,11.071,0,0,1-6.945,6.486c-.154,0-.185-.061-.092-.184a11.045,11.045,0,0,0,6.439-6.67c.092-.214.03-.306-.183-.276Q239.364,938.209,235.684,938.714Z" fill="#231f20"/><path d="M246.573,946.073q-.276-.092-.046-.275,4.185-1.658,4.14-5.106v-3.22a1.171,1.171,0,0,0-.184-.552.846.846,0,0,0-.6-.23c-.062-.061-.046-.107.046-.138a2.415,2.415,0,0,1,1.334.184q.414.185.414.322,0,.231-.414.46v3.174Q251.31,944.556,246.573,946.073Zm.552-8.739a.927.927,0,0,0-.552-.23c-.123-.061-.123-.123,0-.184a2.267,2.267,0,0,1,1.242.23c.245.092.368.2.368.322a.18.18,0,0,1-.138.184q-.138.047-.138.414v3.542c.031.491-.062.736-.276.736-.092,0-.184-.077-.276-.23-.123-.184-.168-.322-.138-.414.031-.215.061-.475.092-.782V937.84A.684.684,0,0,0,247.125,937.334Z" fill="#231f20"/><path d="M261.005,941.2q-1.288.047-2.76.138a2.417,2.417,0,0,0-.92.138.5.5,0,0,1-.322.184c-.031,0-.138-.093-.322-.276a2.388,2.388,0,0,1-.46-.6,1.549,1.549,0,0,1-.184-.874c.061-.122.122-.139.184-.046a1.359,1.359,0,0,0,.506.782,1.657,1.657,0,0,0,.736.138q1.38,0,3.726-.046t2.944-.092a1.249,1.249,0,0,0,.6-.138.4.4,0,0,1,.277-.138,1.016,1.016,0,0,1,.736.322,1.62,1.62,0,0,1,.321.368c.061.184-.03.26-.275.23a7.612,7.612,0,0,0-1.15-.092Q262.614,941.153,261.005,941.2Z" fill="#231f20"/><path d="M276.4,937.426q.6.46.6.736c0,.092-.077.138-.229.138s-.277.108-.369.322a11.166,11.166,0,0,1-6.991,6.854c-.184-.032-.2-.108-.046-.23a10.96,10.96,0,0,0,6.439-7.176.5.5,0,0,0,0-.506.749.749,0,0,0-.46-.322c-.122-.061-.122-.122,0-.184A1.54,1.54,0,0,1,276.4,937.426Zm-5.243,1.242a2.319,2.319,0,0,1,.644,1.15q0,.552-.323.552-.276,0-.459-.644a3.6,3.6,0,0,0-1.334-1.794c-.092-.061-.062-.107.092-.138A3.261,3.261,0,0,1,271.159,938.668Z" fill="#231f20"/><path d="M282.739,938.714a2.442,2.442,0,0,0-1.1.322.181.181,0,0,1-.184.138c-.092,0-.292-.138-.6-.414a1.1,1.1,0,0,1-.414-.69c0-.153.061-.169.184-.046a.824.824,0,0,0,.782.322q.782,0,5.8-.552a.7.7,0,0,0,.551-.368,8.322,8.322,0,0,1,.92.644c.154.123.23.23.23.322,0,.123-.108.184-.321.184s-.353.062-.414.184a11.075,11.075,0,0,1-6.946,6.486c-.154,0-.184-.061-.092-.184a11.045,11.045,0,0,0,6.439-6.67c.093-.214.031-.306-.183-.276Q286.419,938.209,282.739,938.714Z" fill="#231f20"/><path d="M297.538,940.462a5.176,5.176,0,0,1,1.748.828q.69.552.69.92c0,.275-.108.414-.322.414-.123,0-.292-.139-.506-.414a5.884,5.884,0,0,0-3.082-1.84v5.106c0,.336-.077.5-.23.5-.184,0-.337-.137-.46-.414a1.382,1.382,0,0,1,.046-.92q.138-1.563.092-7.037a1.372,1.372,0,0,0-.138-.69.917.917,0,0,0-.644-.23c-.123-.061-.123-.122,0-.184a1.759,1.759,0,0,1,.874.046,3.224,3.224,0,0,1,.644.322q.276.184.276.368c0,.092-.062.154-.184.184a.218.218,0,0,0-.184.23,17.073,17.073,0,0,0-.092,2.53A9.864,9.864,0,0,1,297.538,940.462Z" fill="#231f20"/><path d="M305.76,946.4c-.215.03-.261-.032-.138-.184a11.162,11.162,0,0,0,5.52-7.038q.137-.276-.092-.322-2.717.138-5.382.414v2.713c.061.523.015.783-.138.783a.4.4,0,0,1-.322-.184q-.276-.183-.138-.874v-2.162a1.97,1.97,0,0,0-.092-.69.435.435,0,0,0-.276-.23c-.276-.092-.23-.168.138-.23a1.092,1.092,0,0,1,.828.414q1.2-.091,2.347-.184v-1.334a.876.876,0,0,0-.092-.46.673.673,0,0,0-.461-.23c-.246-.03-.276-.107-.092-.23a2.073,2.073,0,0,1,1.473.277.266.266,0,0,1,.136.229c0,.062-.076.107-.23.138-.121.062-.184.246-.184.552v1.012q1.29-.045,2.485-.092a1.7,1.7,0,0,0,.414-.322c.275.246.506.46.689.644.155.123.231.23.231.322,0,.061-.108.077-.322.046-.092,0-.168.061-.231.184A10.806,10.806,0,0,1,305.76,946.4Z" fill="#231f20"/><path d="M319.5,939.312c.245.123.476.246.69.368s.322.23.322.322c0,.123-.092.2-.276.229q-.046,1.382-.091,2.714c1.563-.029,2.513-.046,2.851-.046a1.266,1.266,0,0,0,.69-.275,2.2,2.2,0,0,1,.69.368c.245.184.368.338.368.46s-.108.153-.322.092a6.661,6.661,0,0,0-1.518-.185,24.406,24.406,0,0,0-6.256.369,1.393,1.393,0,0,0-.551.138.361.361,0,0,1-.323.138c-.091,0-.26-.108-.5-.322a1.715,1.715,0,0,1-.506-.69c0-.215.06-.245.183-.093a1.12,1.12,0,0,0,.828.323,32,32,0,0,0,3.865-.23v-2.484a2.048,2.048,0,0,0-.093-.644,1.287,1.287,0,0,0-.552-.506,14.341,14.341,0,0,0-2.023.322.808.808,0,0,1-.368.138q-.093,0-.46-.322a.993.993,0,0,1-.415-.69c.031-.153.077-.184.138-.092a.977.977,0,0,0,.874.414h.92q2.025-.183,4.37-.322c.245-.092.445-.168.6-.23a2.218,2.218,0,0,1,.644.368c.153.122.23.23.23.322s-.092.123-.276.092A15.783,15.783,0,0,0,319.5,939.312Z" fill="#231f20"/><path d="M335.772,937.426q.416.414.415.552c0,.092-.078.138-.23.138a1.938,1.938,0,0,1-.368-.046q-1.012.645-3.68,2.161a6.907,6.907,0,0,1-3.634,5.336c-.214.062-.292.016-.23-.137a6.656,6.656,0,0,0,3.128-5.106q.138-.966-.414-1.1-.323-.091-.092-.184a1.533,1.533,0,0,1,1.1.322.46.46,0,0,1,.184.46,16.11,16.11,0,0,0,2.989-2.208,42.157,42.157,0,0,0-4.783.46,7.758,7.758,0,0,0-1.794.414.614.614,0,0,1-.368.138c-.092,0-.276-.122-.552-.368a1.113,1.113,0,0,1-.46-.736c0-.184.076-.23.23-.138q.276.461,1.2.414a20.54,20.54,0,0,0,2.069-.184,38.336,38.336,0,0,1,4.233-.276,3.323,3.323,0,0,0,.6-.368Z" fill="#231f20"/><path d="M346.847,937.242a.445.445,0,0,1,.6,0c.337.246.522.384.552.414q.23.231-.092.322-2.851-.091-4.093,1.15a3.447,3.447,0,0,0-1.2,2.392,3.119,3.119,0,0,0,.92,2.3,3.213,3.213,0,0,0,2.208,1.013.736.736,0,0,1,.6.184.7.7,0,0,1,.183.414c0,.153-.123.23-.368.23a3.906,3.906,0,0,1-2.483-.967,3.7,3.7,0,0,1-1.427-3.035,4.059,4.059,0,0,1,1.794-3.174c.153-.122.153-.184,0-.184q-1.425.276-2.714.552a3.924,3.924,0,0,0-1.1.368.971.971,0,0,1-.552.138,1.066,1.066,0,0,1-.46-.23,1.166,1.166,0,0,1-.552-.782c.061-.214.122-.23.184-.046.153.276.474.4.966.368a7.073,7.073,0,0,0,1.242-.184q2.391-.414,4.783-.874A2.335,2.335,0,0,0,346.847,937.242Zm.367,3.91c-.184.062-.321-.015-.413-.23a2.976,2.976,0,0,0-1.2-1.288c-.061-.092-.045-.122.046-.092a3.115,3.115,0,0,1,1.38.6,1.107,1.107,0,0,1,.368.552Q347.49,941.061,347.214,941.152ZM346.8,938.9c-.063-.092-.047-.123.046-.092a3.135,3.135,0,0,1,1.38.6,1.127,1.127,0,0,1,.368.552c.06.246,0,.4-.185.46s-.322-.016-.414-.23A2.971,2.971,0,0,0,346.8,938.9Z" fill="#231f20"/><path d="M352.217,938.3a1.536,1.536,0,0,0-.231.506,13.322,13.322,0,0,0-.92,4.048,2.445,2.445,0,0,0,.092.919c.062.093.122.078.185-.045q.505-1.288,1.057-2.392.231-.045.138.138a14.338,14.338,0,0,0-.735,2.116,3.8,3.8,0,0,0-.139.874c0,.338.016.675.046,1.012.03.306-.076.46-.321.46-.155,0-.277-.138-.368-.415a8.447,8.447,0,0,1-.323-2.851,15.6,15.6,0,0,1,.645-3.956,2.732,2.732,0,0,0,.092-.736.748.748,0,0,0-.552-.69q-.231-.091,0-.138a1.22,1.22,0,0,1,.689.184,6.766,6.766,0,0,1,.645.6A.231.231,0,0,1,352.217,938.3Zm5.7,5.842a1.506,1.506,0,0,1-.644,1.057,2.119,2.119,0,0,1-1.242.322,2.017,2.017,0,0,1-1.472-.459,1.015,1.015,0,0,1-.322-.736.763.763,0,0,1,.368-.6,2.52,2.52,0,0,1,1.426-.322,6.168,6.168,0,0,1,1.38.138q0-2.576-.092-3.956a19.867,19.867,0,0,1-2.76.23,1.04,1.04,0,0,1-.69-.23,2,2,0,0,1-.643-.874c-.032-.153.014-.184.137-.092a1.462,1.462,0,0,0,1.242.782,21.066,21.066,0,0,0,2.668-.23q-.046-1.149-.091-1.564-.048-.505-.874-.552c-.277,0-.292-.061-.047-.184a1.448,1.448,0,0,1,.736-.092,1.891,1.891,0,0,1,.874.322q.183.138-.046.368a.732.732,0,0,0-.092.46q0,.507.046,1.15a7.5,7.5,0,0,0,1.518-.276.418.418,0,0,1,.46,0,1.8,1.8,0,0,1,.322.23c.092.123.046.2-.138.23q-1.1.185-2.116.276.138,2.161.138,4.094,1.013.369,1.978.736a.415.415,0,0,1,.276.275.716.716,0,0,1,.046.415c-.062.184-.184.214-.368.091A11.073,11.073,0,0,0,357.92,944.142Zm-1.978-.414a1.779,1.779,0,0,0-1.242.322.442.442,0,0,0-.138.322.564.564,0,0,0,.138.414,1.619,1.619,0,0,0,1.2.413,1.43,1.43,0,0,0,1.012-.275,1.47,1.47,0,0,0,.46-.92A3.785,3.785,0,0,0,355.942,943.728Z" fill="#231f20"/><path d="M365.728,938.484a4.361,4.361,0,0,0,1.839-.736,1.685,1.685,0,0,1,.645.138q.368.231-.322.46a10.762,10.762,0,0,1-2.208.506,14.624,14.624,0,0,0-.23,2.024,8.356,8.356,0,0,1,2.3-.552q.045-.459-.69-.553c-.124-.06-.108-.122.045-.183q1.426.091,1.381.736a3.654,3.654,0,0,1,2.53.781,2.261,2.261,0,0,1,.69,1.657,2.505,2.505,0,0,1-.828,1.794,6.054,6.054,0,0,1-2.944,1.471q-.322,0-.046-.183a6.932,6.932,0,0,0,2.345-1.334,2.457,2.457,0,0,0,.828-1.748,1.93,1.93,0,0,0-.551-1.426,3.058,3.058,0,0,0-2.116-.69,16.108,16.108,0,0,1-.829,1.61,8.56,8.56,0,0,1-1.149,1.563c.122.155.26.323.414.507a.26.26,0,0,1-.046.413c-.184.123-.368.063-.552-.183-.092-.122-.169-.23-.23-.323a6.533,6.533,0,0,1-1.2.966,1.967,1.967,0,0,1-1.2.322q-.921-.091-1.012-1.242a2.837,2.837,0,0,1,1.1-2.3,6.436,6.436,0,0,1,1.334-.919q0-.69.138-2.116-.645.093-1.242.138a.743.743,0,0,1-.644-.184,1.622,1.622,0,0,1-.46-.736c.03-.153.092-.168.184-.046a.951.951,0,0,0,.92.552,7.357,7.357,0,0,0,1.288-.092q.137-.92.184-1.7.046-.414-.6-.552c-.122,0-.122-.046,0-.137a2.452,2.452,0,0,1,1.1.229q.552.276.184.69A5.9,5.9,0,0,0,365.728,938.484Zm-1.794,3.818a2.829,2.829,0,0,0-.782,1.931q0,.923.552.966a1.641,1.641,0,0,0,1.058-.367,5.389,5.389,0,0,0,1.011-.874,4.978,4.978,0,0,1-.735-2.53A4.482,4.482,0,0,0,363.934,942.3Zm1.518-1.058a4.427,4.427,0,0,0,.736,2.3,9.425,9.425,0,0,0,.919-1.426,9.849,9.849,0,0,0,.6-1.472A7.451,7.451,0,0,0,365.452,941.244Z" fill="#231f20"/><path d="M377.031,937.1a.411.411,0,0,1,0,.46,6.548,6.548,0,0,0-.46,1.84,5.818,5.818,0,0,0,0,1.794q.046.276.185.046a9.849,9.849,0,0,1,1.748-3.4,1.5,1.5,0,0,1,1.058-.506,1.122,1.122,0,0,1,.828.322,3.838,3.838,0,0,1,.735,2.714,5.488,5.488,0,0,1-1.241,4,6.253,6.253,0,0,1-2.807,1.609c-.215,0-.245-.061-.092-.183a5.637,5.637,0,0,0,2.3-1.472q1.2-1.2,1.2-4.048a4.016,4.016,0,0,0-.5-2.53.576.576,0,0,0-.414-.184,1.031,1.031,0,0,0-.691.368,9.482,9.482,0,0,0-1.563,3.173,3.659,3.659,0,0,0-.231,1.243c0,.368-.122.551-.367.551-.185,0-.322-.137-.414-.414a6.767,6.767,0,0,1-.276-2.115,16.555,16.555,0,0,1,.322-2.9.7.7,0,0,0-.368-.782c-.123-.092-.092-.138.091-.138A1.718,1.718,0,0,1,377.031,937.1Z" fill="#231f20"/><path d="M390.911,938.576a11.642,11.642,0,0,0,1.794-.276,1.577,1.577,0,0,0,.644-.276.313.313,0,0,1,.414-.046,2.849,2.849,0,0,1,.368.276q.23.231-.138.322a19.887,19.887,0,0,1-3.082.46v2.024q.92-.091,1.426-.184a2.1,2.1,0,0,0,.828-.23.344.344,0,0,1,.414,0c.153.092.276.168.368.23.122.092.092.184-.092.276a1.957,1.957,0,0,1-.736.138q-1.2.138-2.208.184v2.162a14.4,14.4,0,0,1,3.174,1.011.653.653,0,0,1,.414.645.216.216,0,0,1-.184.229q-.138.047-.414-.137a10.908,10.908,0,0,0-2.99-1.288,1.6,1.6,0,0,1-.322,1.2,2.3,2.3,0,0,1-1.748.552,2.247,2.247,0,0,1-1.655-.552.881.881,0,0,1-.277-.645.831.831,0,0,1,.368-.689,3.393,3.393,0,0,1,2.024-.46c.215,0,.583.016,1.1.046V941.52c-.46.031-.935.045-1.426.045a2.231,2.231,0,0,1-1.15-.229,1.335,1.335,0,0,1-.46-1.288q.093-.183.231,0a1.246,1.246,0,0,0,.229.874,1.7,1.7,0,0,0,1.15.276,9.878,9.878,0,0,0,1.426-.093v-2.023a19.406,19.406,0,0,1-2.024.092,5.22,5.22,0,0,1-1.333-.138,2.194,2.194,0,0,1-1.151-.736q-.137-.276.138-.138a2.385,2.385,0,0,0,.966.552,7.4,7.4,0,0,0,1.519.092,13.309,13.309,0,0,0,1.885-.138v-.782a2.019,2.019,0,0,0-.137-.966.9.9,0,0,0-.783-.322c-.214.031-.23-.03-.046-.184a1.64,1.64,0,0,1,.6-.092,2.34,2.34,0,0,1,1.105.368c.213.122.213.276,0,.46a.843.843,0,0,0-.231.69Zm-1.886,5.243a3.052,3.052,0,0,0-1.334.231.708.708,0,0,0-.46.643.685.685,0,0,0,.46.6,2.353,2.353,0,0,0,1.058.229,1.854,1.854,0,0,0,1.288-.414,1.366,1.366,0,0,0,.322-1.149A12.756,12.756,0,0,0,389.025,943.819Z" fill="#231f20"/><path d="M406.032,939.771q-1.149.048-1.84.093v1.7q0,1.564-.643,1.933-.46.276-.414-.092a.477.477,0,0,0-.277-.507q-.6-.367-1.333-.781c-.154-.122-.123-.169.092-.139q.735.277,1.426.553.368.138.506-.276a14.092,14.092,0,0,0,.092-2.3q-1.794.23-3.22.552v2.346a8.7,8.7,0,0,0,.138,1.334.952.952,0,0,0,.368.644,3.419,3.419,0,0,0,1.564.23,9.373,9.373,0,0,0,2.575-.276q.461-.139.645,0a1.627,1.627,0,0,1,.321.321c.154.215.093.337-.183.369s-1.472.045-3.588.045a2.578,2.578,0,0,1-1.794-.459,4.115,4.115,0,0,1-.6-2.714V940.6c-.276.062-.782.214-1.518.46a2.69,2.69,0,0,0-.552.23c-.123.092-.261.062-.414-.092q-.69-.644-.644-.92c0-.215.061-.245.184-.092a.9.9,0,0,0,.828.46,5.943,5.943,0,0,0,.92-.138q.645-.138,1.2-.277a11.563,11.563,0,0,0-.092-1.655.872.872,0,0,0-.874-.782q-.369,0,0-.184a2.416,2.416,0,0,1,1.61.414q.414.276.046.506a3.918,3.918,0,0,0-.138,1.564q1.794-.321,3.22-.506,0-1.747-.046-2.116c-.032-.276-.292-.475-.783-.6-.214,0-.229-.062-.045-.184a2.4,2.4,0,0,1,1.61.414q.368.276,0,.46-.185.093-.185,1.978a9.434,9.434,0,0,0,2.3-.46.447.447,0,0,1,.506.046q.505.322.552.368c.183.275.122.4-.185.368C406.691,939.8,406.247,939.771,406.032,939.771Z" fill="#231f20"/><path d="M418.946,941.152c.092-.092.154-.076.184.046a6.925,6.925,0,0,1-1.747,3.4,2.769,2.769,0,0,1-1.979.919c-.766,0-1.195-.259-1.288-.782a11.364,11.364,0,0,1-.137-1.931q0-1.149-.875-1.15a2.455,2.455,0,0,0-1.656.874,11.927,11.927,0,0,0-1.609,2.9c-.031.153-.109.23-.231.23-.214,0-.321-.2-.321-.6a.594.594,0,0,1,.184-.506,3.617,3.617,0,0,0,.506-.783q1.656-2.99,2.805-5.565a2.178,2.178,0,0,0,.139-.644.877.877,0,0,0-.691-.874c-.123-.092-.091-.138.092-.138a1.639,1.639,0,0,1,1.38,1.012c.093.246.062.368-.092.368q-.875,1.564-2.345,4.324a2.826,2.826,0,0,1,1.839-.874,1.26,1.26,0,0,1,1.426,1.426,11.34,11.34,0,0,0,.092,1.564.648.648,0,0,0,.69.644A2.849,2.849,0,0,0,417.244,944,9.452,9.452,0,0,0,418.946,941.152Z" fill="#231f20"/><path d="M139.464,956.49q0-1.058-.644-1.334c-.123-.061-.108-.107.046-.138a2,2,0,0,1,1.1.506q.459.369.137.736a18.1,18.1,0,0,0-.137,1.978,6.07,6.07,0,0,0,.506,2.944q.276.414.5,0,.782-1.333,1.7-2.9c.122-.153.184-.122.184.092q-.69,1.471-1.243,2.714a1.426,1.426,0,0,0-.184,1.057q.184.6-.321.415a2.411,2.411,0,0,1-1.288-1.472,5.432,5.432,0,0,1-.368-2.116Zm7.819.322a4.386,4.386,0,0,1,1.334,2.9c0,.338-.138.506-.414.506-.215,0-.338-.122-.368-.368a6.017,6.017,0,0,0-.689-2.208,6.137,6.137,0,0,0-1.473-1.794c-.091-.092-.062-.138.092-.138A5.563,5.563,0,0,1,147.283,956.812Z" fill="#231f20"/><path d="M151.273,962.01c-.062.153-.138.229-.23.229-.184,0-.275-.26-.275-.781a.533.533,0,0,1,.321-.46,2.719,2.719,0,0,0,.736-.736q.735-.966,1.38-1.886V956.9q-.6.231-1.15.46a.566.566,0,0,1-.322.138.509.509,0,0,1-.322-.184q-.645-.368-.552-.874c.061-.122.122-.122.184,0a.683.683,0,0,0,.69.46,5.114,5.114,0,0,0,1.472-.322q0-1.38-.046-2.024a.771.771,0,0,0-.782-.6q-.369,0,0-.184a2.107,2.107,0,0,1,1.564.414q.276.276,0,.414-.323.276-.322,1.84a2.537,2.537,0,0,0,.46-.138,1.252,1.252,0,0,1,.414.276q.138.138-.138.23a3.024,3.024,0,0,0-.736.69v.736a7.15,7.15,0,0,1,4.094-1.656,2.984,2.984,0,0,1,2.208.828,2.118,2.118,0,0,1,.6,1.564,2.514,2.514,0,0,1-.782,1.839,7,7,0,0,1-4.14,1.657q-.185-.047,0-.231a6.28,6.28,0,0,0,3.4-1.517,2.6,2.6,0,0,0,.828-1.886,1.746,1.746,0,0,0-.506-1.288,2.428,2.428,0,0,0-1.794-.644,6.574,6.574,0,0,0-3.91,1.794q0,1.2.138,2.575c.031.308.046.691.046,1.151a1.007,1.007,0,0,1-.184.643c-.154.215-.291.323-.414.323-.154,0-.23-.123-.23-.369q0-.552-1.2-1.885Q151.5,961.6,151.273,962.01Zm.6-1.058q.552.6,1.058,1.058c.122.092.2.061.23-.092a25.82,25.82,0,0,0,.046-2.853Q152.56,960.033,151.871,960.952Z" fill="#231f20"/><path d="M168.557,956.49a5.178,5.178,0,0,0-4.324,4.876q0,.461-.23.46a.758.758,0,0,1-.46-.276,3.55,3.55,0,0,1-.6-2.438,6.138,6.138,0,0,1,.138-1.288,9.524,9.524,0,0,0,.23-1.288.765.765,0,0,0-.414-.782c-.123-.061-.108-.108.046-.138a1.244,1.244,0,0,1,1.1.736q.23.321-.046.506a4.586,4.586,0,0,0-.69,2.392,2.943,2.943,0,0,0,.23,1.149c.061.155.122.139.184-.045a5.777,5.777,0,0,1,4.83-4.186q0-1.38-.276-1.564a1.033,1.033,0,0,0-.92-.046c-.184.092-.23.062-.138-.092a1.525,1.525,0,0,1,.966-.368,1.888,1.888,0,0,1,.92.184q.505.276.092.552a6.373,6.373,0,0,0-.092,1.334,3.114,3.114,0,0,1,2.3.874,2.369,2.369,0,0,1,.69,1.748,2.442,2.442,0,0,1-.736,1.794,3.259,3.259,0,0,1-2.392.782,4.241,4.241,0,0,1-3.082,2.621c-.123-.061-.123-.123,0-.183a4.309,4.309,0,0,0,2.53-2.485,2.87,2.87,0,0,1-2.76-2.759c.061-.122.122-.122.184,0a2.8,2.8,0,0,0,2.668,2.346q.092-1.1.092-2.346Q168.6,957.365,168.557,956.49Zm.505,4.462a2.425,2.425,0,0,0,1.794-.644,2.057,2.057,0,0,0,.6-1.518,2.238,2.238,0,0,0-.6-1.656,2.367,2.367,0,0,0-1.747-.69q.045.921.046,2.161A23.276,23.276,0,0,1,169.062,960.952Z" fill="#231f20"/><path d="M175.353,959.848q.321-.276,4.323-4.692c.093-.061.061-.107-.092-.138a14.639,14.639,0,0,0-2.208.552,1.125,1.125,0,0,1-.5.184,1.336,1.336,0,0,1-.46-.276,1.213,1.213,0,0,1-.506-.828c0-.153.061-.169.183-.046a1.024,1.024,0,0,0,.921.414,3.3,3.3,0,0,0,.736-.046q.918-.138,1.794-.322a1.614,1.614,0,0,0,.69-.276.268.268,0,0,1,.229-.138.821.821,0,0,1,.506.23c.154.123.23.23.23.322,0,.062-.138.138-.414.23a22.6,22.6,0,0,0-3.174,3.036c-.091.154-.045.184.139.092a5.494,5.494,0,0,1,1.978-.368,3.3,3.3,0,0,1,2.437.92,2.3,2.3,0,0,1,.644,1.7,2.671,2.671,0,0,1-.736,1.979,4.232,4.232,0,0,1-3.128,1.1,2.516,2.516,0,0,1-1.794-.5,1.2,1.2,0,0,1-.414-.829.882.882,0,0,1,.277-.643,1.313,1.313,0,0,1,.966-.322,1.974,1.974,0,0,1,1.425.644,2.142,2.142,0,0,1,.553,1.15,2.963,2.963,0,0,0,1.517-.829,2.255,2.255,0,0,0,.69-1.655,2.3,2.3,0,0,0-.644-1.7,2.8,2.8,0,0,0-2.07-.736,4.338,4.338,0,0,0-2.989,1.518,6.584,6.584,0,0,0-.966,1.2.33.33,0,0,1-.323.184c-.122,0-.183-.139-.183-.414A.918.918,0,0,1,175.353,959.848Zm3.4,2.024a1.194,1.194,0,0,0-.874-.368q-.827,0-.827.643a.788.788,0,0,0,.276.552,2.855,2.855,0,0,0,1.885.414A1.833,1.833,0,0,0,178.756,961.872Z" fill="#231f20"/><path d="M186.381,958.146q-.231,0-.414-.552a1.767,1.767,0,0,0-.782-.874c-.215-.154-.2-.23.046-.23q1.425.368,1.426,1.241Q186.657,958.147,186.381,958.146Zm2.024-2.76-1.564,5.059a3.768,3.768,0,0,0,.046,1.748,4.184,4.184,0,0,1,.092,1.151c-.062.3-.215.46-.46.46q-.507,0-.46-.506a8.592,8.592,0,0,0,.092-2.07.837.837,0,0,0-.46-.506l-.552-.092v-.185H186.2l1.978-5.2C188.359,955.1,188.435,955.141,188.405,955.386Zm-1.15-.23c-.154,0-.292-.122-.414-.368a1.975,1.975,0,0,0-.92-.874c-.215-.122-.2-.184.046-.184q1.563.276,1.564,1.058C187.531,955.034,187.439,955.156,187.255,955.156Zm.736,2.622a15.263,15.263,0,0,0,2.484-4.416l.735.368q.46.231-.23.368a6.747,6.747,0,0,1-.5.782h3.863l.6-.6.781.552q.276.231,0,.322h-5.382a12.017,12.017,0,0,1-2.161,2.806C187.991,958.023,187.929,957.962,187.991,957.778Zm6.347,1.656q-.045,1.427-.184,2.484h.414l.6-.6.735.553c.184.153.184.261,0,.321h-1.748a2.441,2.441,0,0,1-.506,1.38,1.06,1.06,0,0,1-.735.368c-.093,0-.154-.077-.184-.229q.045-.277-.276-.322l-.6-.138q-.321-.138,0-.185h.645a2.944,2.944,0,0,0,.689-.046c.154-.061.261-.336.323-.828h-3.818l-.138.737q-.69.367-.644,0l.552-3.5h-1.472v-.276h1.472l.368-2.9.552.368h3.358l.321-.368.552.368q.552.369-.137.552l-.093,1.978h.323l.6-.6.737.552q.276.231,0,.322Zm-3.081,2.484.276-2.484h-1.472l-.322,2.484Zm.322-2.76.184-2.254h-1.38l-.277,2.254Zm.551.276-.276,2.484h1.7q.137-1.058.184-2.484Zm1.611-.276.092-2.254H192.36l-.23,2.254Z" fill="#231f20"/><path d="M198.513,961.319l.69.369c.183.154.061.246-.369.276a8.184,8.184,0,0,1-1.748,1.84q-.23.09-.137-.138A8.727,8.727,0,0,0,198.513,961.319Zm2.115-6.761v6.532q-.6.552-.6.046v-.323h-1.885v.46q-.6.554-.6.046V953.73l.69.415h1.657l.275-.369.644.46C201,954.39,200.935,954.5,200.628,954.558Zm-2.483,1.748h1.885V954.42h-1.885Zm0,1.978h1.885v-1.7h-1.885Zm0,2.254h1.885V958.56h-1.885Zm3.082,2.529c0,.277-.108.414-.323.414-.154,0-.245-.091-.276-.275a3.571,3.571,0,0,0-1.1-1.7c-.123-.153-.076-.2.139-.138Q201.226,962.286,201.227,963.067Zm.873-.6v-3.128H201v-.277h1.1v-2.3l.782.138q.368.231-.184.322v1.839h.46l.46-.46.644.507c.092.122.061.2-.092.23H202.7v3.082Q202.1,962.976,202.1,962.47Zm2.668-6.21a14.627,14.627,0,0,0,.644,4.139,11.11,11.11,0,0,0,1.1-2.759l.828.414q.506.323-.322.322a9.854,9.854,0,0,1-1.334,2.668,4.4,4.4,0,0,0,1.058,1.334q.321.229.506-.276l.368-1.058c.122-.185.184-.168.184.046l-.184,1.334a.689.689,0,0,0,.092.552.439.439,0,0,1,.138.322q0,.23-.414.229a1.589,1.589,0,0,1-1.1-.551,6.871,6.871,0,0,1-1.058-1.38,10.344,10.344,0,0,1-3.357,2.484q-.278,0-.047-.23A9.53,9.53,0,0,0,205,961a13.011,13.011,0,0,1-.828-4.738h-3.036v-.276h3.036v-2.438l.782.139q.368.23-.184.321v1.978h1.472l.69-.69.874.644q.276.231,0,.322Zm.644-2.024q1.1.414,1.1.966c0,.276-.108.414-.322.414-.092,0-.169-.107-.23-.322a2.12,2.12,0,0,0-.644-.92C205.167,954.252,205.2,954.206,205.412,954.236Z" fill="#231f20"/><path d="M212.438,956.49a16.485,16.485,0,0,1-1.1,1.426l.276.092q.367.231-.184.322v5.29q-.6.55-.6.046v-5.2a8.876,8.876,0,0,1-1.978,1.564c-.154,0-.184-.061-.092-.184a14.4,14.4,0,0,0,3.45-4.14l.69.552Q213.128,956.629,212.438,956.49Zm-.414-2.208a13.751,13.751,0,0,1-3.036,2.438q-.322.138-.184-.138a15.03,15.03,0,0,0,2.99-3.128l.552.506Q212.8,954.374,212.024,954.282Zm5.152,3.082v5.243a1.034,1.034,0,0,1-.322.829,1.179,1.179,0,0,1-.552.276c-.184.03-.276-.046-.276-.231a.325.325,0,0,0-.23-.321l-.828-.184q-.231-.092,0-.184h1.2a.366.366,0,0,0,.414-.414v-5.014H212.76v-.276h5.474l.552-.552.736.506c.184.153.184.261,0,.322Zm-3.588-2.806h4l.506-.506.644.46q.276.231,0,.322h-5.152Z" fill="#231f20"/><path d="M225.444,956.352h-3.956v-.276h4.094a18.447,18.447,0,0,0,1.288-2.622l.92.46q.276.276-.552.231a19,19,0,0,1-1.012,1.931h1.518l.367-.368.6.6c.185.154.077.246-.321.276l-.23,1.2h.69l.367-.368.644.644c.122.215,0,.306-.367.276l-.23,1.149H230l.367-.367.6.6c.154.153.061.246-.275.275q-.322,3.084-1.289,3.727a1.41,1.41,0,0,1-.551.229c-.123.062-.23,0-.323-.183v-.231c-.061-.153-.414-.338-1.057-.551-.093-.122-.062-.184.092-.184l1.149.229a.822.822,0,0,0,.553-.137q.642-.552.827-3.128H223.42a9.791,9.791,0,0,1-2.668,1.886c-.154,0-.184-.061-.092-.184A13.524,13.524,0,0,0,225.444,956.352Zm-2.53,4.876a2.538,2.538,0,0,1-.138,1.518q-.461.828-.92.644c-.092-.032-.138-.138-.138-.323,0-.123.122-.259.368-.414a2.141,2.141,0,0,0,.644-1.425A.115.115,0,0,1,222.914,961.228Zm-.138-7.82a3.54,3.54,0,0,1,1.472.966,1.23,1.23,0,0,1,.322.828c0,.246-.108.368-.322.368q-.231,0-.414-.552a3.249,3.249,0,0,0-1.15-1.472C222.592,953.424,222.622,953.378,222.776,953.408Zm.92,6.071h4.968l.275-1.425h-4A10.413,10.413,0,0,1,223.7,959.479Zm.828,3.634c-.184,0-.276-.2-.276-.6a2.167,2.167,0,0,0-.276-1.518c-.031-.153.015-.185.138-.092a2.177,2.177,0,0,1,.828,1.747Q224.938,963.114,224.524,963.113Zm1.563-6.761a12.709,12.709,0,0,1-.965,1.426h2.438l.275-1.426Zm-.643,4.507c-.154-.091-.138-.152.046-.183q1.38.6,1.38,1.471a.244.244,0,0,1-.276.277c-.154,0-.261-.108-.323-.322A2.48,2.48,0,0,0,225.444,960.859Zm1.426-.275c-.092-.122-.062-.185.091-.185,1.074.247,1.61.629,1.61,1.151,0,.276-.076.414-.23.414s-.276-.108-.367-.322A2.467,2.467,0,0,0,226.87,960.584Z" fill="#231f20"/><path d="M238.817,958.7a1,1,0,0,1-.275.736,1.073,1.073,0,0,1-.783.322.994.994,0,0,1-.736-.277,1.062,1.062,0,0,1-.322-.781.992.992,0,0,1,.277-.736,1.063,1.063,0,0,1,.781-.322.99.99,0,0,1,.736.276A1.069,1.069,0,0,1,238.817,958.7Z" fill="#231f20"/><path d="M244.6,962.193h8.51l.69-.689.874.643c.184.155.184.261,0,.323H244.6Zm1.1-6.991h6.21l.69-.69.874.644q.276.231,0,.322h-7.774Z" fill="#231f20"/><path d="M257.055,960.216q-.046-.183-.414-.277l-.552-.091v-.184h1.288l2.438-5.152q.23-.229.23.046l-2.162,5.244a2.938,2.938,0,0,0-.092,1.656,3.886,3.886,0,0,1,.092.92q0,.552-.506.552c-.368,0-.491-.323-.368-.966A3.767,3.767,0,0,0,257.055,960.216Zm-.736-5.566c-.154-.122-.108-.169.138-.138q1.839.552,1.84,1.61,0,.323-.368.322-.231,0-.414-.414A3.168,3.168,0,0,0,256.319,954.65Zm.828,9.337q-.322,0-.092-.183a5.874,5.874,0,0,0,4.784-6.118v-1.058h-.874a10.47,10.47,0,0,1-2.116,2.99c-.184.092-.215.03-.092-.184a15.476,15.476,0,0,0,2.576-5.888l.828.276q.6.138-.276.46a19.988,19.988,0,0,1-.782,2.07h3.5l.5-.506,1.059.874c.152.154.107.246-.139.276a1.209,1.209,0,0,0-.874.184l-1.1,1.1c-.153.092-.2.062-.137-.092l.781-1.564h-2.253v1.242a6.477,6.477,0,0,0,4.277,5.106,1.086,1.086,0,0,0-.92.644,7.444,7.444,0,0,1-3.4-5.015,5.712,5.712,0,0,1-1.564,3.588A6.938,6.938,0,0,1,257.147,963.987Z" fill="#231f20"/><path d="M267.714,954.328h4.1l.6-.6.736.552q.276.231,0,.322h-1.977v2.07h.781l.276-.368.644.46c.184.154.122.261-.184.322v6.256q-.6.552-.6.046v-.46h-3.5v.6c-.4.369-.6.384-.6.046v-7.359l.69.46h.781V954.6h-1.748Zm2.944,2.622h-.69v1.012a2.241,2.241,0,0,1-1.38,2.116v.69h3.5v-1.38h-.874a.488.488,0,0,1-.552-.552Zm-1.2,0h-.874V959.8q.781-.367.874-1.84Zm-.874,5.7h3.5v-1.609h-3.5Zm2.07-8.049h-.69v2.07h.69Zm1.426,4.324V956.95h-.919v1.794a.162.162,0,0,0,.184.184Zm2.208,3.634a.163.163,0,0,0,.184.184h2.76q.459,0,.506-.322l.276-1.426q.092-.091.138,0v1.426a.329.329,0,0,0,.184.322q.321.138,0,.414a1.437,1.437,0,0,1-.828.138h-3.266a.488.488,0,0,1-.552-.552v-5.06l.69.414h2.53v-3.5h-3.081v-.276h2.943l.276-.368.644.46c.184.154.122.261-.184.322v4.186q-.6.552-.6.046v-.6h-2.622Z" fill="#231f20"/><path d="M279.2,960.952a12.45,12.45,0,0,0,4-5.06h-3.726v-.276H283.3a12,12,0,0,0,.736-2.162l.828.368q.414.185-.322.414a14.453,14.453,0,0,1-.6,1.38h4.416l.69-.69.828.644q.276.231,0,.322H283.8a11.615,11.615,0,0,1-1.012,1.794l.23.322h2.07V956.4l.782.138q.368.23-.184.322v1.15h2.346l.276-.368.644.46c.184.154.122.26-.184.322v3.588a.976.976,0,0,1-.322.782.623.623,0,0,1-.46.184.162.162,0,0,1-.184-.184c0-.153-.092-.261-.276-.322l-.6-.138c-.123-.061-.123-.122,0-.185h.92a.284.284,0,0,0,.322-.321v-3.542h-2.484v5.243q-.6.553-.6.046v-5.289h-2.162v4.646c-.4.368-.6.382-.6.046v-4.554a11.134,11.134,0,0,1-3.036,2.714C279.141,961.136,279.11,961.074,279.2,960.952Z" fill="#231f20"/><path d="M297.636,958.7a1,1,0,0,1-.276.736,1.069,1.069,0,0,1-.782.322.991.991,0,0,1-.736-.277,1.058,1.058,0,0,1-.322-.781,1,1,0,0,1,.276-.736,1.066,1.066,0,0,1,.782-.322.988.988,0,0,1,.735.276A1.066,1.066,0,0,1,297.636,958.7Z" fill="#231f20"/><path d="M311.884,960.538a.309.309,0,0,1,.137.275q0,.186-.276.093a15.337,15.337,0,0,0-5.059.092,3.827,3.827,0,0,0-.967.23.4.4,0,0,1-.276.138c-.061,0-.169-.076-.321-.23-.4-.4-.583-.72-.553-.966,0-.153.061-.168.184-.046a.844.844,0,0,0,.829.46q1.011,0,1.425-.046,1.473-.139,3.635-.276.274-1.656.459-3.45-2.945.231-4.14.322a2.518,2.518,0,0,0-.874.137c-.123.124-.214.185-.275.185a.67.67,0,0,1-.369-.185q-.69-.6-.644-.965c0-.153.062-.168.184-.046a1.138,1.138,0,0,0,.736.414q.6,0,1.381-.046,1.378-.093,3.864-.184l.322-.322a5.914,5.914,0,0,1,.781.46.272.272,0,0,1,.139.23c0,.062-.078.108-.23.138s-.247.092-.278.184q-.274,1.518-.551,2.99A1.729,1.729,0,0,1,311.884,960.538Z" fill="#231f20"/><path d="M321.669,956.858q.228-.229-.276-.506c-.092-.061-.062-.107.091-.138a1.909,1.909,0,0,1,1.058.46c.307.246.46.414.46.506s-.122.123-.367.091c-.246.063-.477.124-.691.185a21.668,21.668,0,0,1-4,.966v2.668a.651.651,0,0,0,.737.736h1.931a8.022,8.022,0,0,0,1.334-.23,3.581,3.581,0,0,1,.414-.184,1,1,0,0,1,.414.184c.214.123.323.26.323.414,0,.092-.093.137-.277.137-.183.032-.475.063-.874.092q-.552.048-1.288.093h-2.069q-1.2,0-1.2-1.15v-5.428q0-.459-.737-.6-.274-.091,0-.23a2.033,2.033,0,0,1,.828.092,1.729,1.729,0,0,1,.783.414.38.38,0,0,1,.137.23q0,.093-.183.138c-.155.031-.246.246-.277.644V958.1A15.488,15.488,0,0,0,321.669,956.858Zm1.609-.92a1.227,1.227,0,1,1,.828.322A1.117,1.117,0,0,1,323.278,955.938Zm1.426-.184a.889.889,0,0,0,0-1.288.891.891,0,0,0-1.195,0,.887.887,0,0,0,0,1.288.891.891,0,0,0,1.195,0Z" fill="#231f20"/><path d="M331.823,958.7q-1.288.047-2.76.138a2.409,2.409,0,0,0-.919.138.506.506,0,0,1-.323.184c-.031,0-.137-.093-.322-.276a2.412,2.412,0,0,1-.46-.6,1.557,1.557,0,0,1-.184-.874c.061-.122.123-.139.184-.046a1.359,1.359,0,0,0,.506.782,1.659,1.659,0,0,0,.736.138q1.38,0,3.726-.046t2.944-.092a1.259,1.259,0,0,0,.6-.138.4.4,0,0,1,.276-.138,1.016,1.016,0,0,1,.736.322,1.642,1.642,0,0,1,.322.368c.061.184-.031.26-.276.23a7.612,7.612,0,0,0-1.15-.092Q333.432,958.653,331.823,958.7Z" fill="#231f20"/><path d="M344.69,958.7a.994.994,0,0,1-.275.736,1.069,1.069,0,0,1-.782.322,1,1,0,0,1-.737-.277,1.061,1.061,0,0,1-.321-.781,1,1,0,0,1,.276-.736,1.066,1.066,0,0,1,.782-.322.992.992,0,0,1,.736.276A1.068,1.068,0,0,1,344.69,958.7Z" fill="#231f20"/><path d="M355.305,958.238q-.048-.185-.368-.276-.276-.138.045-.184a1.191,1.191,0,0,1,.737.184,13.915,13.915,0,0,0,1.977-1.7c.062-.092.016-.138-.137-.138q-3.267.507-3.68.644a2.287,2.287,0,0,0-.736.276.271.271,0,0,1-.23.138q-.231,0-.736-.506a1.271,1.271,0,0,1-.323-.644c0-.153.062-.184.185-.092a.97.97,0,0,0,.966.46,9.61,9.61,0,0,0,1.609-.23q1.058-.138,3.267-.46a1.606,1.606,0,0,0,.321-.322,3.922,3.922,0,0,1,.645.506q.321.276.321.368c0,.154-.076.215-.23.184a.925.925,0,0,0-.6.184,19.265,19.265,0,0,1-2.116,1.7q.368.184-.231.322v3.726a7.636,7.636,0,0,0,.093,1.195q.043.278-.276.277a.418.418,0,0,1-.369-.23.944.944,0,0,1-.183-.368,2.563,2.563,0,0,0,.137-.6v-3.817a20.882,20.882,0,0,1-5.151,2.53c-.154-.03-.169-.093-.046-.184A24.243,24.243,0,0,0,355.305,958.238Zm-1.012-4.922a3.843,3.843,0,0,1,1.655.829,1.046,1.046,0,0,1,.414.781q0,.644-.322.644-.276,0-.46-.69a2.724,2.724,0,0,0-.506-.735,3.825,3.825,0,0,0-.92-.691C354.062,953.362,354.108,953.316,354.293,953.316Zm2.392,5.52a5.921,5.921,0,0,1,1.656.46,4.257,4.257,0,0,1,1.195.782,1.16,1.16,0,0,1,.414.781.326.326,0,0,1-.368.369c-.092,0-.245-.154-.46-.46a6.325,6.325,0,0,0-2.437-1.794Q356.5,958.882,356.685,958.836Z" fill="#231f20"/><path d="M365,959.618a2.968,2.968,0,0,0-.321-.69,3.311,3.311,0,0,0-.874-.828c-.063-.061-.046-.107.046-.138a3.144,3.144,0,0,1,.828.368,3.4,3.4,0,0,1,.6.46.85.85,0,0,1,.323.689c-.032.247-.123.369-.277.369A.326.326,0,0,1,365,959.618Zm5.474-2.162c.429.275.644.506.644.69,0,.062-.077.092-.23.092s-.276.108-.368.322a9.76,9.76,0,0,1-6.118,5.29c-.183,0-.214-.078-.091-.23a9.368,9.368,0,0,0,5.749-5.75c.061-.184-.062-.352-.368-.506-.123-.061-.092-.107.092-.138A1.544,1.544,0,0,1,370.472,957.456Zm-3.128,1.518a.326.326,0,0,1-.322-.23,3.972,3.972,0,0,0-.5-.92,4.714,4.714,0,0,0-.737-.553c-.092-.091-.077-.137.046-.137a2.844,2.844,0,0,1,1.1.46,1.29,1.29,0,0,1,.689,1.058C367.62,958.867,367.528,958.974,367.344,958.974Z" fill="#231f20"/><path d="M380.12,957.962a5.185,5.185,0,0,1,1.748.828q.69.552.69.92c0,.275-.108.414-.323.414-.122,0-.291-.139-.506-.414a5.876,5.876,0,0,0-3.082-1.84v5.106c0,.336-.076.5-.229.5-.184,0-.338-.137-.46-.414a1.382,1.382,0,0,1,.046-.92q.138-1.563.092-7.037a1.372,1.372,0,0,0-.138-.69.918.918,0,0,0-.645-.23c-.122-.061-.122-.122,0-.184a1.763,1.763,0,0,1,.875.046,3.279,3.279,0,0,1,.644.322c.184.123.275.246.275.368,0,.092-.061.154-.183.184a.218.218,0,0,0-.184.23,16.934,16.934,0,0,0-.093,2.53A9.85,9.85,0,0,1,380.12,957.962Z" fill="#231f20"/><path d="M393.632,954.65q.55.369.92.644c.122.092.183.169.183.23s-.061.108-.183.138c-.246.062-.368.138-.368.23a8.247,8.247,0,0,1-6.487,7.038c-.215,0-.245-.062-.092-.184q5.428-2.115,5.888-7.222a.122.122,0,0,0-.138-.138q-2.484.185-4.738.368a.609.609,0,0,1-.367-.138q-.047.828.046,3.358c0,.338-.063.5-.185.5-.091,0-.2-.076-.321-.229a.8.8,0,0,1-.23-.414,3.542,3.542,0,0,1,.091-.506v-2.254a1.086,1.086,0,0,0-.229-.782.927.927,0,0,0-.552-.23c-.123-.061-.123-.123,0-.184a1.646,1.646,0,0,1,1.426.506q2.483-.183,5.059-.414A3.089,3.089,0,0,0,393.632,954.65Z" fill="#231f20"/><path d="M402.405,958.7q-1.288.047-2.759.138a2.412,2.412,0,0,0-.92.138.506.506,0,0,1-.323.184c-.031,0-.137-.093-.322-.276a2.412,2.412,0,0,1-.46-.6,1.548,1.548,0,0,1-.183-.874c.06-.122.122-.139.183-.046a1.359,1.359,0,0,0,.506.782,1.662,1.662,0,0,0,.736.138q1.38,0,3.726-.046t2.944-.092a1.259,1.259,0,0,0,.6-.138.4.4,0,0,1,.276-.138,1.016,1.016,0,0,1,.736.322,1.642,1.642,0,0,1,.322.368c.061.184-.031.26-.276.23a7.612,7.612,0,0,0-1.15-.092Q404.014,958.653,402.405,958.7Z" fill="#231f20"/><path d="M413.847,955.938q.782,0,2.438-.138a4.051,4.051,0,0,0,.414-.368l.69.46c.153.123.23.23.23.322s-.093.138-.276.138a.3.3,0,0,0-.368.23A11.724,11.724,0,0,1,410.4,963.3c-.184,0-.214-.062-.092-.185a12.074,12.074,0,0,0,6.026-6.945q-1.473.046-2.668.092a8.381,8.381,0,0,1-3.45,3.312c-.153,0-.184-.061-.092-.184a8.993,8.993,0,0,0,3.266-4,1.019,1.019,0,0,0,.092-.69.625.625,0,0,0-.415-.276c-.122-.061-.122-.122,0-.184.185-.061.491.031.921.276.337.184.506.338.506.46,0,.092-.077.138-.23.138-.062,0-.108.062-.138.184C414.031,955.509,413.938,955.724,413.847,955.938Z" fill="#231f20"/><path d="M421.885,959.02c.214-.184.46-.415.736-.69q1.149-1.151,1.426-1.426a.9.9,0,0,1,.6-.322,1.581,1.581,0,0,1,.736.276q3.357,2.117,4,2.438l1.655.828a.563.563,0,0,1,.322.506c0,.183-.077.276-.23.276a1.428,1.428,0,0,1-.6-.184q-.369-.183-1.886-1.2-1.379-.918-3.219-2.207a1.47,1.47,0,0,0-.782-.322c-.124,0-.338.169-.644.506q-.921,1.059-1.426,1.563-.461.462-.461.645c0,.123-.076.184-.229.184a1.787,1.787,0,0,1-.506-.138,1.132,1.132,0,0,1-.46-.322,1.043,1.043,0,0,1-.322-.6c.03-.153.076-.184.137-.092a1.134,1.134,0,0,0,.691.414A.636.636,0,0,0,421.885,959.02Z" fill="#231f20"/><path d="M438.064,955.984q.321.322-.138.414a20.575,20.575,0,0,1-2.254,4.83,2.447,2.447,0,0,1-.6.644c-.338.245-.567.215-.689-.093a1.414,1.414,0,0,1-.874-.689,3,3,0,0,1-.368-1.518,4.044,4.044,0,0,1,1.149-2.99,5.013,5.013,0,0,1,3.681-1.518,4.853,4.853,0,0,1,3.587,1.288,3.121,3.121,0,0,1,.92,2.3,3.2,3.2,0,0,1-.874,2.207,6.2,6.2,0,0,1-3.726,1.794c-.123-.06-.123-.122,0-.183a5.874,5.874,0,0,0,3.174-1.794,3.115,3.115,0,0,0,.736-2.071,2.9,2.9,0,0,0-.644-1.977,4.313,4.313,0,0,0-3.864-1.242A3.561,3.561,0,0,1,438.064,955.984Zm-.828.276a.725.725,0,0,0-.23-.828,3.745,3.745,0,0,0-2.115,1.1,3.842,3.842,0,0,0-1.2,2.806,2.668,2.668,0,0,0,.506,1.886.662.662,0,0,0,.46.23.753.753,0,0,0,.46-.276A16.865,16.865,0,0,0,437.236,956.26Z" fill="#231f20"/><path d="M446.838,956.444h1.15l.276-.368.644.46c.184.153.122.261-.184.322v3.127q-.6.554-.6.047v-.184h-1.288v1.242h1.38l.6-.6.736.552c.184.153.184.261,0,.322h-2.714v2.3q-.6.55-.6.046v-2.346h-2.07v-.276h2.07v-1.242h-1.15v.414q-.6.552-.6.046v-4.14l.69.276h1.058v-1.2h-1.886v-.276h1.886v-1.656l.782.138q.369.231-.184.322v1.2h1.242l.6-.6.736.552q.276.231,0,.322h-2.576Zm-.6.276h-1.15v1.242h1.15Zm-1.15,1.518v1.334h1.15v-1.334Zm1.748-.276h1.288V956.72h-1.288Zm0,1.61h1.288v-1.334h-1.288Zm7.636,3.726q-.276,0-.323-.506l-.183-.782q-2.348.507-4.784.874-.185.919-.506.229l-.414-.781q.552,0,1.472-.046l1.15-3.956H449.46v-.276h3.91l.69-.69.874.644q.274.231,0,.322h-3.588l.276.138c.184.154.122.261-.184.322l-1.472,3.5q2.022-.184,3.91-.507a6.261,6.261,0,0,0-1.242-1.931q-.138-.231.137-.138,2.07,1.518,2.071,2.852C454.842,963.052,454.719,963.3,454.474,963.3Zm-4.554-8.418h2.851l.691-.69.874.644q.276.231,0,.322H449.92Z" fill="#231f20"/><path d="M464.121,961.412a4.208,4.208,0,0,0,1.013,1.1c.4.306.674.292.827-.046l.46-1.012q.185-.23.184,0l-.414,1.38a.674.674,0,0,0,.138.414.566.566,0,0,1,.139.321c0,.093-.123.139-.368.139a2.108,2.108,0,0,1-1.105-.506,5.509,5.509,0,0,1-1.241-1.288,10.737,10.737,0,0,1-2.761,2.115c-.245.093-.291.03-.138-.183a10.371,10.371,0,0,0,2.623-2.438,12.663,12.663,0,0,1-.874-4.646h-3.083v1.058h1.334l.506-.506.645.46q.275.231,0,.322h-2.485v.782h1.426l.277-.368.643.46c.185.154.122.26-.183.322v1.977c-.4.369-.6.384-.6.046v-.183h-1.565v.736h1.84l.506-.506.645.46c.183.153.183.261,0,.321h-2.991V963.8q-.6.552-.6.046v-1.7h-2.945v-.275h2.945v-.736h-1.519v.23c-.4.367-.6.384-.6.046V958.56l.69.322h1.426V958.1h-2.806v-.276h2.806v-1.058h-3.082v-.276h3.082v-1.15h-2.162v-.276h2.162v-1.7l.782.138q.368.231-.185.322v1.242h1.151l.6-.6.736.552q.275.231,0,.322h-2.485v1.15H462.6v-3.036l.782.138q.367.231-.185.322v2.576h1.84l.69-.69.874.644q.276.231,0,.322h-3.4a12.083,12.083,0,0,0,.645,4.047,11.559,11.559,0,0,0,1.1-3.082l.874.415q.278.231-.368.276A11.442,11.442,0,0,1,464.121,961.412Zm-5.2-1.564v-.69h-1.519v.69Zm0,.276h-1.519v.735h1.519Zm.6-.966v.69h1.565v-.69Zm1.565.966h-1.565v.735h1.565Zm4.415-4.692c0,.184-.076.276-.23.276s-.306-.138-.459-.414a3.83,3.83,0,0,0-.874-.874c-.092-.092-.062-.138.091-.138a2.738,2.738,0,0,1,1.2.552A.839.839,0,0,1,465.5,955.432Z" fill="#231f20"/><path d="M471.423,956.628q-1.793,4.093-2.207,4.784-.278.461-.507.23a.7.7,0,0,1-.184-.369.736.736,0,0,1,.231-.643,4.1,4.1,0,0,0,.6-.782q.6-1.011,1.563-3.128a8.554,8.554,0,0,0-1.195.276q-.322.185-.506,0c-.4-.4-.583-.69-.553-.874q0-.229.185,0a.784.784,0,0,0,.782.368,5.179,5.179,0,0,0,1.426-.184,7.423,7.423,0,0,0,.6-1.932c.031-.306-.169-.506-.6-.6q-.232-.091,0-.184a1.592,1.592,0,0,1,.827.138,1.766,1.766,0,0,1,.553.368c.183.184.168.338-.046.46a5.1,5.1,0,0,0-.828,1.656,3,3,0,0,0,1.149-.506c.215-.153.4-.107.553.138q.183.322-.185.414Q472.3,956.445,471.423,956.628Zm4.922,1.15a2.607,2.607,0,0,0-1.518.414.806.806,0,0,0-.276.782q.092,1.334.23,2.392a8.469,8.469,0,0,1,2.484.827c.123.093.169.292.138.6q-.047.413-.46.138a11.869,11.869,0,0,0-2.116-1.1,1.612,1.612,0,0,1-.552,1.38,1.837,1.837,0,0,1-1.15.321,1.612,1.612,0,0,1-1.195-.414,1.032,1.032,0,0,1,.137-1.609,2.357,2.357,0,0,1,1.288-.276q.414,0,.874.045-.185-1.655-.184-2.253a1.188,1.188,0,0,1,.782-1.2,3.872,3.872,0,0,1,1.472-.322c.276,0,.352-.092.23-.276a4.462,4.462,0,0,0-2.07-1.472c-.123-.061-.107-.108.046-.138a4.983,4.983,0,0,1,2.807,1.38,1.43,1.43,0,0,1,.5.966c0,.246-.077.368-.23.368a.309.309,0,0,1-.23-.092A1.41,1.41,0,0,0,476.345,957.778Zm-3.128,3.726a1.673,1.673,0,0,0-.966.229.707.707,0,0,0-.321.6.788.788,0,0,0,.183.506,1.277,1.277,0,0,0,1.012.368,1.11,1.11,0,0,0,.645-.139,1.517,1.517,0,0,0,.459-1.379A2.932,2.932,0,0,0,473.217,961.5Z" fill="#231f20"/><path d="M482.037,962.562a1.581,1.581,0,0,1-.506-1.15,1.979,1.979,0,0,1,.736-1.427,8.809,8.809,0,0,1,1.84-1.287,2.747,2.747,0,0,1-.552-1.84,14.036,14.036,0,0,0-.092-2.346.654.654,0,0,0-.644-.46c-.123-.061-.123-.122,0-.184a1.879,1.879,0,0,1,1.426.414q.23.184.046.368a.8.8,0,0,0-.138.552v2.392c0,.521.076.844.23.966a24.958,24.958,0,0,1,2.668-.966q.368-.091.137-.46a.992.992,0,0,0-.321-.276c-.123-.061-.108-.107.046-.138a1.092,1.092,0,0,1,.828.414,1.238,1.238,0,0,1,.321.69c0,.154-.123.23-.368.23a15.638,15.638,0,0,0-3.5,1.1,6.306,6.306,0,0,0-1.886,1.287,1.392,1.392,0,0,0-.414.921q0,.966,1.15,1.287a9.3,9.3,0,0,0,2.024.139,6.666,6.666,0,0,0,1.886-.185q.505-.183.735,0a.4.4,0,0,1,.185.323c0,.122-.092.2-.276.23a22.387,22.387,0,0,1-3.082.138A3.436,3.436,0,0,1,482.037,962.562Zm6.624-6.026q-.276.093-.414-.23a2.973,2.973,0,0,0-1.2-1.288c-.062-.092-.046-.122.046-.092a3.125,3.125,0,0,1,1.38.6,1.113,1.113,0,0,1,.368.552Q488.937,956.445,488.661,956.536Zm-.6-2.53c-.061-.092-.045-.122.046-.092a3.115,3.115,0,0,1,1.38.6,1.1,1.1,0,0,1,.368.552c.062.246,0,.4-.183.46s-.322-.015-.414-.23A2.976,2.976,0,0,0,488.062,954.006Z" fill="#231f20"/><path d="M496.883,955.984q.321.322-.139.414a20.494,20.494,0,0,1-2.254,4.83,2.445,2.445,0,0,1-.6.644c-.338.245-.568.215-.69-.093a1.42,1.42,0,0,1-.874-.689,3,3,0,0,1-.368-1.518,4.048,4.048,0,0,1,1.149-2.99,5.014,5.014,0,0,1,3.681-1.518,4.851,4.851,0,0,1,3.587,1.288,3.122,3.122,0,0,1,.921,2.3,3.2,3.2,0,0,1-.874,2.207,6.2,6.2,0,0,1-3.727,1.794c-.123-.06-.123-.122,0-.183a5.87,5.87,0,0,0,3.174-1.794,3.115,3.115,0,0,0,.736-2.071,2.9,2.9,0,0,0-.643-1.977,4.315,4.315,0,0,0-3.864-1.242A3.584,3.584,0,0,1,496.883,955.984Zm-.828.276a.727.727,0,0,0-.231-.828,3.745,3.745,0,0,0-2.115,1.1,3.841,3.841,0,0,0-1.2,2.806,2.668,2.668,0,0,0,.506,1.886.658.658,0,0,0,.46.23.751.751,0,0,0,.459-.276A16.892,16.892,0,0,0,496.055,956.26Z" fill="#231f20"/><path d="M506.53,956.49a16.673,16.673,0,0,1-1.1,1.426l.275.092c.245.154.185.261-.183.322v5.29c-.4.367-.6.383-.6.046v-5.2a8.859,8.859,0,0,1-1.979,1.564c-.153,0-.183-.061-.091-.184a14.417,14.417,0,0,0,3.45-4.14l.689.552Q507.221,956.629,506.53,956.49Zm-.414-2.208a13.728,13.728,0,0,1-3.036,2.438c-.215.092-.275.046-.184-.138a15.036,15.036,0,0,0,2.991-3.128l.551.506C506.744,954.236,506.638,954.344,506.116,954.282Zm5.153,3.082v5.243a1.034,1.034,0,0,1-.323.829,1.181,1.181,0,0,1-.551.276c-.185.03-.277-.046-.277-.231a.326.326,0,0,0-.229-.321l-.828-.184q-.232-.092,0-.184h1.195a.366.366,0,0,0,.414-.414v-5.014h-3.817v-.276h5.473l.552-.552.736.506c.184.153.184.261,0,.322Zm-3.588-2.806h4l.506-.506.644.46q.276.231,0,.322h-5.151Z" fill="#231f20"/><path d="M519.536,956.352H515.58v-.276h4.094a18.447,18.447,0,0,0,1.288-2.622l.92.46c.183.184,0,.261-.552.231a18.8,18.8,0,0,1-1.012,1.931h1.518l.368-.368.6.6c.183.154.076.246-.323.276l-.229,1.2h.689l.369-.368.644.644c.122.215,0,.306-.368.276l-.23,1.149h.736l.368-.367.6.6c.153.153.061.246-.277.275q-.322,3.084-1.287,3.727a1.412,1.412,0,0,1-.553.229c-.122.062-.229,0-.321-.183v-.231c-.062-.153-.414-.338-1.058-.551-.092-.122-.062-.184.092-.184l1.15.229a.82.82,0,0,0,.552-.137q.643-.552.828-3.128h-6.67a9.791,9.791,0,0,1-2.668,1.886c-.154,0-.184-.061-.092-.184A13.516,13.516,0,0,0,519.536,956.352Zm-2.53,4.876a2.538,2.538,0,0,1-.138,1.518c-.306.552-.614.766-.92.644-.092-.032-.137-.138-.137-.323,0-.123.122-.259.367-.414a2.137,2.137,0,0,0,.644-1.425A.115.115,0,0,1,517.006,961.228Zm-.138-7.82a3.54,3.54,0,0,1,1.472.966,1.23,1.23,0,0,1,.322.828c0,.246-.108.368-.322.368-.153,0-.292-.184-.414-.552a3.249,3.249,0,0,0-1.15-1.472C516.685,953.424,516.714,953.378,516.868,953.408Zm.92,6.071h4.968l.276-1.425h-4A10.413,10.413,0,0,1,517.788,959.479Zm.828,3.634c-.184,0-.276-.2-.276-.6a2.167,2.167,0,0,0-.276-1.518c-.031-.153.015-.185.138-.092a2.177,2.177,0,0,1,.828,1.747Q519.03,963.114,518.616,963.113Zm1.564-6.761a12.849,12.849,0,0,1-.966,1.426h2.438l.276-1.426Zm-.644,4.507c-.154-.091-.138-.152.046-.183q1.38.6,1.38,1.471a.244.244,0,0,1-.276.277c-.154,0-.261-.108-.322-.322A2.481,2.481,0,0,0,519.536,960.859Zm1.426-.275c-.092-.122-.062-.185.092-.185,1.073.247,1.61.629,1.61,1.151q0,.414-.23.414c-.154,0-.276-.108-.369-.322A2.459,2.459,0,0,0,520.962,960.584Z" fill="#231f20"/><path d="M536.405,957.5c.122.092.185.169.185.229,0,.093-.063.169-.185.231q-1.012.322-4,1.656v1.932q0,.414-.368.414-.183,0-.183-.276v-1.794a6.627,6.627,0,0,0-2.024,1.334,1.162,1.162,0,0,0-.414.782.751.751,0,0,0,.23.552,2.961,2.961,0,0,0,1.931.414,11.679,11.679,0,0,0,2.53-.23,1.377,1.377,0,0,1,.506-.139c.337,0,.506.155.506.46,0,.122-.092.2-.275.231a16.128,16.128,0,0,1-3.036.183,3.464,3.464,0,0,1-2.392-.6,1.1,1.1,0,0,1-.368-.782,1.622,1.622,0,0,1,.552-1.15,9.2,9.2,0,0,1,2.254-1.518,1.454,1.454,0,0,0-.323-1.058.822.822,0,0,0-.6-.184q-1.151,0-2.76,1.978a.4.4,0,0,1-.276.138c-.154,0-.23-.138-.23-.414s.061-.445.184-.506a2.545,2.545,0,0,0,.736-.6,12.118,12.118,0,0,0,1.794-2.53q-.369.047-1.059.092a5.2,5.2,0,0,1-.643.046q-.185,0-.506-.322a.693.693,0,0,1-.276-.552c.061-.123.122-.107.184.046a1.183,1.183,0,0,0,1.058.414,10.017,10.017,0,0,0,1.425-.092,3.362,3.362,0,0,0,.415-1.1q.092-.643-.69-.782c-.215-.03-.23-.092-.047-.184a2.349,2.349,0,0,1,1.656.506c.154.123.138.261-.045.414a5.118,5.118,0,0,0-.783,1.15,7.82,7.82,0,0,0,1.657-.46.785.785,0,0,1,.368-.138.5.5,0,0,1,.322.184c.061.031.092.108.092.23,0,.092-.092.154-.277.184q-1.1.184-2.345.368-.6.921-1.242,1.84-.138.231.091.138a2.917,2.917,0,0,1,1.243-.368,1.313,1.313,0,0,1,.965.322,1.548,1.548,0,0,1,.46,1.012q2.3-1.1,2.945-1.473c.153-.06.183-.137.091-.229a2.063,2.063,0,0,0-.643-.276q-.278-.092,0-.184A2.9,2.9,0,0,1,536.405,957.5Z" fill="#231f20"/><path d="M540.9,956.352a7.246,7.246,0,0,1-2.576,2.3q-.322.093-.137-.138a8.412,8.412,0,0,0,2.576-3.082h-2.208v-.276H540.9v-1.84l.783.138q.368.231-.185.322v1.38h.645l.6-.6.737.552q.274.231,0,.322H541.5v.736q1.747.369,1.748.874a.244.244,0,0,1-.275.276.5.5,0,0,1-.323-.184,4.046,4.046,0,0,0-1.15-.782v2.07q-.6.552-.6.046Zm-2.391,7.406a8.044,8.044,0,0,0,2.622-2.439l.827.553c.185.245,0,.321-.552.23A10.178,10.178,0,0,1,538.6,963.9C538.355,963.957,538.325,963.911,538.51,963.758Zm5.7-2.852v2.161a.981.981,0,0,1-.321.783.628.628,0,0,1-.46.183.163.163,0,0,1-.185-.183c0-.154-.092-.261-.275-.323l-.6-.137c-.123-.062-.123-.123,0-.184h.92a.285.285,0,0,0,.322-.322v-1.978h-4.968v-.276h8.924l.6-.6.736.552c.184.153.184.261,0,.322Zm-3.726-1.748h5.474l.6-.6.735.552q.276.231,0,.322h-6.808Zm5.75-3.726a8.478,8.478,0,0,0,2.852,2.392,1.177,1.177,0,0,0-.69.506,10.345,10.345,0,0,1-2.3-2.76v2.714q-.6.552-.6.046v-2.162a8.589,8.589,0,0,1-2.529,2.024c-.246.062-.292,0-.139-.184a9.478,9.478,0,0,0,2.53-2.576h-1.471v-.276H545.5v-1.794l.782.138q.367.231-.183.322v1.334h1.379l.6-.6.736.552q.276.231,0,.322Zm2.024,8.1q-.184,0-.46-.321a6.5,6.5,0,0,0-2.254-1.518q-.276-.184.046-.184,2.99.781,2.99,1.609C548.583,963.39,548.476,963.527,548.261,963.527Z" fill="#231f20"/><path d="M553.171,956.9q0-.735.046-1.518c.03-.521-.245-.8-.828-.828-.184-.061-.2-.122-.046-.184a3.166,3.166,0,0,1,.506-.046,1.905,1.905,0,0,1,1.15.46q.183.138,0,.414a1.853,1.853,0,0,0-.184.552,4.708,4.708,0,0,0-.092,1.012v4.186a1.361,1.361,0,0,0,1.656,1.61,4.824,4.824,0,0,0,2.346-.552,14.322,14.322,0,0,0,2.438-1.748c.122-.061.168-.031.138.092a9.187,9.187,0,0,1-2.485,2.162,5.055,5.055,0,0,1-2.529.6,2.147,2.147,0,0,1-1.656-.643,2.115,2.115,0,0,1-.46-1.472Zm4-.276c-.184.061-.322-.015-.414-.23a2.97,2.97,0,0,0-1.2-1.288c-.061-.092-.045-.122.047-.092a3.125,3.125,0,0,1,1.38.6,1.1,1.1,0,0,1,.367.552C557.418,956.414,557.356,956.566,557.173,956.628Zm-.322-2.346c-.062-.092-.046-.122.045-.092a3.1,3.1,0,0,1,1.38.6,1.1,1.1,0,0,1,.369.552q.091.369-.184.46c-.185.062-.322-.015-.414-.23A2.979,2.979,0,0,0,556.851,954.282Z" fill="#231f20"/><path d="M567.6,956.076a11.627,11.627,0,0,0,1.793-.276,1.565,1.565,0,0,0,.644-.276.313.313,0,0,1,.414-.046,2.709,2.709,0,0,1,.368.276q.231.231-.137.322a19.906,19.906,0,0,1-3.082.46v2.024c.613-.061,1.087-.122,1.425-.184a2.1,2.1,0,0,0,.828-.23.346.346,0,0,1,.415,0c.153.092.276.168.368.23q.183.138-.092.276a1.967,1.967,0,0,1-.736.138q-1.2.138-2.208.184v2.162a14.39,14.39,0,0,1,3.173,1.011.652.652,0,0,1,.414.645.216.216,0,0,1-.183.229q-.139.047-.414-.137a10.934,10.934,0,0,0-2.99-1.288,1.6,1.6,0,0,1-.323,1.2,2.3,2.3,0,0,1-1.748.552,2.248,2.248,0,0,1-1.655-.552.88.88,0,0,1-.276-.645.831.831,0,0,1,.368-.689,3.387,3.387,0,0,1,2.023-.46c.215,0,.583.016,1.105.046V959.02c-.46.031-.936.045-1.426.045a2.229,2.229,0,0,1-1.15-.229,1.333,1.333,0,0,1-.46-1.288c.061-.122.138-.122.23,0a1.24,1.24,0,0,0,.23.874,1.693,1.693,0,0,0,1.15.276,9.9,9.9,0,0,0,1.426-.093v-2.023a19.413,19.413,0,0,1-2.025.092,5.226,5.226,0,0,1-1.333-.138,2.192,2.192,0,0,1-1.15-.736q-.138-.276.138-.138a2.375,2.375,0,0,0,.965.552,7.4,7.4,0,0,0,1.519.092,13.334,13.334,0,0,0,1.886-.138v-.782a2,2,0,0,0-.138-.966.9.9,0,0,0-.782-.322c-.215.031-.231-.03-.046-.184a1.633,1.633,0,0,1,.6-.092,2.34,2.34,0,0,1,1.1.368c.214.122.214.276,0,.46a.846.846,0,0,0-.23.69Zm-1.886,5.243a3.049,3.049,0,0,0-1.334.231.707.707,0,0,0-.46.643.683.683,0,0,0,.46.6,2.345,2.345,0,0,0,1.057.229,1.856,1.856,0,0,0,1.289-.414,1.369,1.369,0,0,0,.322-1.149A12.783,12.783,0,0,0,565.717,961.319Z" fill="#231f20"/><path d="M579.643,956.168q2.069-.138,2.759-.23c.184-.03.491-.092.92-.184a.553.553,0,0,1,.46.138,2.114,2.114,0,0,1,.552.552c.062.184-.031.245-.276.184a9.941,9.941,0,0,0-2.346-.23q-.874,0-2.069.092v1.978a4.734,4.734,0,0,1,.137,1.288,4.362,4.362,0,0,1-2.53,4.185c-.153.031-.184-.015-.092-.137a6.753,6.753,0,0,0,.966-.874,4.236,4.236,0,0,0,1.059-2.76,1.119,1.119,0,0,1-.966.552,1.276,1.276,0,0,1-.921-.414,1.31,1.31,0,0,1-.321-.966,1.505,1.505,0,0,1,.46-1.1,1.247,1.247,0,0,1,.919-.368,1.465,1.465,0,0,1,.736.184v-1.518a27.558,27.558,0,0,0-3.634.735,4.551,4.551,0,0,0-.644.231.436.436,0,0,1-.5-.046,2.072,2.072,0,0,1-.737-1.058c0-.153.062-.169.185-.046a.907.907,0,0,0,.874.414,12.955,12.955,0,0,0,1.977-.23q1.059-.183,2.484-.322v-1.242q0-1.057-.92-1.15c-.122-.061-.122-.122,0-.184a1.762,1.762,0,0,1,1.242.23,1.337,1.337,0,0,1,.414.414c.122.154.108.261-.046.322A4.17,4.17,0,0,0,579.643,956.168Zm-2.025,2.3a1.312,1.312,0,0,0-.229.782,1.34,1.34,0,0,0,.367,1.058.641.641,0,0,0,.461.137.683.683,0,0,0,.506-.183,1.559,1.559,0,0,0,.414-1.15c0-.674-.262-1.012-.783-1.012A.8.8,0,0,0,577.618,958.468Z" fill="#231f20"/></g></g></svg>
