<svg xmlns="http://www.w3.org/2000/svg" width="710" height="1000" viewBox="0 0 710 1000"><g id="Artboard"><rect id="Page" width="710" height="1000" fill="#fff"/></g><g id="Text"><path d="M169.611,721.113a9.037,9.037,0,0,1,4.631,2q2.633,1.818,2.633,3,0,1.454-2.542,1.454l-6.72,1.179q-.183,1.546-.272,3.179-.091,2.09-.182,4.086a30.74,30.74,0,0,1,6.811-2.27q10.9,0,11.259,6.992a27.014,27.014,0,0,1-1.816,8.9A19.437,19.437,0,0,1,178.6,756.8a5.076,5.076,0,0,1-6.811,1.18,18.439,18.439,0,0,1-2.179.636,68.6,68.6,0,0,0,21.158,15.528q10.625,5,13.8,7.537a13.954,13.954,0,0,1,2.724,2.542q0,1.907-4.358,1.907a34.607,34.607,0,0,1-18.979-5.9q-8.084-5.085-17.253-17.072.181,8.718,1,26.153-.091,7.172-1.725,7.263-2.363,0-5.176-3.541-2.452-3.724-2.452-5.448,0-1.09.363-1.09a4.524,4.524,0,0,0,2.089.727c.3-.062.454-.877.454-2.452V762.521a58.842,58.842,0,0,1-9.9,11.168q-6.448,6.177-11.26,8.264a12.01,12.01,0,0,1-4.995,1.634q-1.544,0-1.543-.726,0-1.089,1.634-1.544a36.822,36.822,0,0,0,11.169-7.718,69.724,69.724,0,0,0,10.988-13.349,5.8,5.8,0,0,1-1.816-.636c-.726-.545-1.121-.937-1.181-1.179q0-.727,1.635-.909a25.2,25.2,0,0,0,5.267-1.453V752.26a6.477,6.477,0,0,0-.727.181,16.231,16.231,0,0,1-3.723.635q-2.451,0-2.452-1.452,0-.726,1.181-1.362,3.45-1.725,5.721-2.816v-4.267a24.776,24.776,0,0,1-6.538,2.179q-3.27,0-3.633-1.362.273-.817,2.361-1.271a36.179,36.179,0,0,0,5.9-3,10.3,10.3,0,0,1,2-1q0-4.994.09-7.718a8.464,8.464,0,0,1,.091-1.363l-7.537,1.181a7.833,7.833,0,0,1-3.269-.545A1.349,1.349,0,0,1,150,729.1q0-.726.908-1a65.8,65.8,0,0,0,10.806-3.813q.271-6.447.272-11.532l-.726-3.632q0-.726,2.815-.817a4.378,4.378,0,0,1,3.087,1.18,6.952,6.952,0,0,1,2.089,4.994,34.769,34.769,0,0,1-.818,6.175,2.645,2.645,0,0,0-.091.636A6.3,6.3,0,0,1,169.611,721.113Zm-27.968,21.7a9.25,9.25,0,0,1,3.087.455,7.7,7.7,0,0,1,4.359,4.54,21.958,21.958,0,0,1,2,6.992q0,5.9-1.906,5.9a3.559,3.559,0,0,1-2.906-1.906q-1.273-1.817-2.634-8.718a10.079,10.079,0,0,0-2.452-4.177A2.988,2.988,0,0,1,140.1,744C140.1,743.21,140.612,742.815,141.643,742.815Zm25.335-2q-.091,2.181-.091,4.269h.091q3.357,0,3.359,2.542,0,1.545-2.633,2.452l-.908.363q-.091,1.908-.091,3.451a27.5,27.5,0,0,1,4.54-.545,7.658,7.658,0,0,1,1-1q4.268-4.177,4.268-11.624-.183-1.543-2.906-1.543A29.83,29.83,0,0,0,166.978,740.817Z" fill="#000000" stroke="#000000" stroke-linecap="round" stroke-linejoin="round" stroke-width="2"/><path d="M288.134,735.369a16.044,16.044,0,0,1,7.719,2.089q5.356,3.27,5.357,5.812,0,1.545-3.542,1.543-2.722,0-7.082-.272-6.449-.635-12.622-.817a49.069,49.069,0,0,0-9.081,1,6.848,6.848,0,0,1,.727,3.268,11.827,11.827,0,0,1-1.453,4.722,29.172,29.172,0,0,1,6.719,7.083,17.354,17.354,0,0,1,2,8.173,38.829,38.829,0,0,1-1.726,10.8q-2.452,8.356-6.447,11.987-2.726,2.541-4.45,2.543-2.451-.093-4.54-3.179a10,10,0,0,1-1.725-5.539q.088-1,.817-1a10.231,10.231,0,0,0,3.541,1,3.71,3.71,0,0,0,2.906-1.543q1.907-2,3.269-7.719a37.358,37.358,0,0,0,1.09-7.355q0-4.722-4.086-10.9A133.7,133.7,0,0,1,249,776.868a49.637,49.637,0,0,1-16.345,10.352.321.321,0,0,1-.363-.364,154.415,154.415,0,0,0,27.787-33.78,31.308,31.308,0,0,0,2.9-6.809,93.13,93.13,0,0,0-17.253,8.444,17.26,17.26,0,0,1-9.808,3.36,22.019,22.019,0,0,1-8.353-1.544q-2.817-1-2.906-1.725,0-.726,1.18-.727,6.267-.272,26.062-9.08,9.17-4.268,15.436-5.266,7.446-1.452,13.077-2.907A24.213,24.213,0,0,1,288.134,735.369ZM259.167,717.48a14.579,14.579,0,0,1,8.354,2.453q3.995,2.543,4,6.174,0,2.271-1.907,2.27-7.266,0-9.443.817a4.648,4.648,0,0,1-2.18.636v-.363q5.175-2.633,5.176-4,0-1.725-3.087-4.813-1.728-1.817-1.726-2.18Q258.35,717.481,259.167,717.48Z" fill="#000000" stroke="#000000" stroke-linecap="round" stroke-linejoin="round" stroke-width="2"/><path d="M346.544,730.1q3.269,0,3.269,2.27,0,2.907-5.267,4.631l-1.089,3.813a1.528,1.528,0,0,1,.454-.09q5.177,0,5.175,4,0,2.27-4,3.631-3,1-6.084,1.726a4.253,4.253,0,0,1,2.452,1.907,5.483,5.483,0,0,1,.726,1.452,8.523,8.523,0,0,1,2.452-.726q4.812,0,4.813,3.633,0,2-3.269,3.268-1.818,1-3.451,1.726-.092,2.542-.454,5.539,5.45-4.9,12.531-11.26a.322.322,0,0,1,.363.363q0,2.816-3.9,8.082-5.993,8.174-19.8,19.523-6.72,5.357-8.535,5.358-2.636,0-3-5,0-1.634,1.09-1.906a11.506,11.506,0,0,0,5.811-2.089q3.087-2.36,9.716-8.173-.183-2.539-.272-7.536-2.271.909-4.45,1.543a24.523,24.523,0,0,1-7.537,1.816q-3.632,0-3.631-1.907,0-1.269,2.361-2.542,8.08-4.449,13.166-6.9a43.29,43.29,0,0,0-.907-5.358,12.735,12.735,0,0,1-2.634.364q-4,0-4-2.18,0-.818,1.543-1.635,3.723-2.087,6.265-3.45l.454-5.448a44.376,44.376,0,0,1-7.9,1.09,6.355,6.355,0,0,1-3.36-1,5.62,5.62,0,0,1-1.726-1.544q0-1,2.271-1.272a48.868,48.868,0,0,0,9.444-3.268,15.114,15.114,0,0,1,2-1l.908-9.716a8.885,8.885,0,0,0-1.544-4.723q0-.906,2.18-1.18a7.848,7.848,0,0,1,5.085,2.179,7.277,7.277,0,0,1,2.543,5.812,33.471,33.471,0,0,1-.636,6.175Zm41.408,4.358a8.751,8.751,0,0,1,4.631,1.271,3.889,3.889,0,0,1,2.18,3.088q0,1.818-1.09,2.27-4,.728-9.353,2V777.05q0,8.628-1.271,13.075-.91,3.542-2.361,3.542-4.359,0-13.167-11.986,0-.727.363-.727a13.794,13.794,0,0,0,6.9,2.271q2.269,0,2.271-6.9V745.086q-7.539,2.271-17.162,5.357c-.244-.059-.364-.181-.364-.363q0-1.089,2.361-2.906,2.268-1.815,15.165-8.354V722.838q0-4.9-2-6.357-1.274-.724-1.272-1.633t2.906-1a7.644,7.644,0,0,1,5.358,2,10.562,10.562,0,0,1,2.27,6.992v12.531A11.892,11.892,0,0,1,387.952,734.461Zm-25.516,21.158a30.448,30.448,0,0,0,4.63,3.088,5.62,5.62,0,0,1,.545,9.262,8.491,8.491,0,0,1-4.449,1q-1.725,0-1.725-1a35.125,35.125,0,0,0,1-4.359,3.289,3.289,0,0,0-.727-1.907,6.542,6.542,0,0,1-1-3.268Q360.71,755.621,362.436,755.619Z" fill="#000000" stroke="#000000" stroke-linecap="round" stroke-linejoin="round" stroke-width="2"/><path d="M430.2,733.735a4.306,4.306,0,0,1,3,1.271,4.875,4.875,0,0,1,1.363,3.451q0,5.175-3.633,11.714a119.018,119.018,0,0,1-10.443,18.161,63.886,63.886,0,0,1-9.171,10.352,7.47,7.47,0,0,1-4.359,1.907c-.485,0-.726-.121-.726-.363q5.177-4.267,12.894-17.072a98.878,98.878,0,0,0,8.809-18.343,25.73,25.73,0,0,0,1.906-8.808,3.829,3.829,0,0,0-.362-1.544A.641.641,0,0,1,430.2,733.735Zm39.229-18.161q5.175.092,5.176,3.632-.092,1.908-2.27,1.907a93.533,93.533,0,0,0-26.425,3.723,7.967,7.967,0,0,1-1,.272,4.4,4.4,0,0,1,3.632,1.726,6.857,6.857,0,0,1,1.09,2.814q2.724.637,2.724,3.088a.816.816,0,0,1-.272.727,29.469,29.469,0,0,0,5.176-3.451,50.358,50.358,0,0,1,5.176-3.269,24.544,24.544,0,0,0-.636-3.905q0-.726,1.18-.727a4.351,4.351,0,0,1,3.814,1.817,4.647,4.647,0,0,1,.545,1.09,5.991,5.991,0,0,1,1.725-.273q5.178.093,5.176,3.632-.09,1.727-2.269,1.726a22.388,22.388,0,0,0-4,.363q0,1.635-.091,3.36a21.883,21.883,0,0,1,8.9,2.179q4.086,2.09,4.177,5.448,0,3.27-1.635,3.27a54.868,54.868,0,0,1-8.353-1.544c0-.364.363-.756,1.09-1.181a1.559,1.559,0,0,0,.907-1.634,2.481,2.481,0,0,0-1.089-1.816,22.777,22.777,0,0,0-4.087-3q-.183,3.9-.545,8.627a16.684,16.684,0,0,1-1.815,6.356q-.546,1.09-1.09,1.09-.817,0-1.09-1.09-.456-1.089-.545-12.713a32.738,32.738,0,0,1-4,4.994q-4,4.36-7.719,5.539a.32.32,0,0,1-.363-.363,43.012,43.012,0,0,0,6.9-9.716,30.856,30.856,0,0,0,2.271-4.812q-1.091.636-2.271,1.361a13.512,13.512,0,0,1-6.175,2.634,6.478,6.478,0,0,1-1.725-.182q-.273,3.543-.636,7.81a13,13,0,0,1-1.906,5.63q-.637.908-1.272.908-.728,0-.908-.908a57.3,57.3,0,0,1-.363-7.991,87.5,87.5,0,0,0-6.629,9.353q-.545,1-.817,1-2-.18-2.088-4.358a3.727,3.727,0,0,1,1.452-2.542q3-3.359,7.991-10.262v-.454q-.727.456-1.453.817a8.608,8.608,0,0,1-3.269,1.181,5.854,5.854,0,0,1-2.815-.636q-1.091-.361-1.18-.817c0-.3.12-.454.363-.454q1.724,0,5.176-2.905a25.336,25.336,0,0,1,3.087-2.18,37.09,37.09,0,0,0-.635-4.631c0-.241.059-.394.181-.454a42.6,42.6,0,0,1-9.352,1.453,5.74,5.74,0,0,1-2.907-.727q-1.272-.453-1.453-1c0-.422.423-.635,1.272-.635q5.811,0,17.162-4.268Q460.892,715.756,469.427,715.574Zm-29.694,41.771a6.937,6.937,0,0,1,2.361.363,3.264,3.264,0,0,1,1.18.727,2.511,2.511,0,0,1,.545-.091,38.878,38.878,0,0,0,4.9-2.18q9.078-3.9,11.986-4.177,7.809,0,7.991,4.994a12.738,12.738,0,0,1-1.635,5.721,15.3,15.3,0,0,1-4.63,4.631,7.97,7.97,0,0,1-4.177,1.271,2.608,2.608,0,0,1-2.362-1.089,6.608,6.608,0,0,1-2.632,1.544,7.685,7.685,0,0,1,3.087,7.537,34.889,34.889,0,0,1-.455,5.9q-.183,2.089-.181,4,0,2.179,3,3.178,3,1.179,12.622,1.181,7.9,0,10.806-2.906,2.541-2,3.541-8.717.182-1.543.545-1.544.544,0,1.725,2.452a13.468,13.468,0,0,1,1.09,5.175,8.275,8.275,0,0,1-3.179,6.811q-3.633,3.087-10.533,3.088-12.443,0-19.069-2.452-4.9-2.091-4.9-5.539,0-.91.364-3.9a65.342,65.342,0,0,0,.363-6.992,7.38,7.38,0,0,0-.636-3.542,3.547,3.547,0,0,1-.454-1.906,4.815,4.815,0,0,1,.091-1.09,2.222,2.222,0,0,1-.817.182q-4.269,10.17-9.716,15.527-5.088,5.356-9.989,6.72a.322.322,0,0,1-.364-.363,50.64,50.64,0,0,0,10.08-12.259,52.678,52.678,0,0,0,4.268-8.446,4.116,4.116,0,0,1-.817.091,3.444,3.444,0,0,1-1.363-.271,2.127,2.127,0,0,1-.544-.545q0-.908,1.452-1.09l.545-.182A26.787,26.787,0,0,1,442,762.521a8.4,8.4,0,0,0-1.906-3.27,2.676,2.676,0,0,1-.727-1.543A.321.321,0,0,1,439.733,757.345Zm10.079-8.264a3.131,3.131,0,0,1,2,.727,2.416,2.416,0,0,1,.908,1.816q0,.727-1.272,1.543a32.7,32.7,0,0,1-8.173,3.633,15.278,15.278,0,0,1-2.632.454l-.727-.091a27.345,27.345,0,0,0,6.72-4q2.632-2.178,2.633-3.723C449.268,749.2,449.449,749.081,449.812,749.081Zm-.726,11.26v-.363a3.418,3.418,0,0,0-.091-.818,30.727,30.727,0,0,1-4.358,1.181,10.215,10.215,0,0,1,.726,1.362A20.4,20.4,0,0,0,449.086,760.341Zm-2.179,7.264a14.279,14.279,0,0,0,2.179-1.362v-3.359a20.374,20.374,0,0,1-3.269.363A19.066,19.066,0,0,1,446.907,767.605ZM447,709.49a14.913,14.913,0,0,1,7.083,1.634q3.357,1.726,3.359,4.087,0,2.271-1.725,2.269a34.688,34.688,0,0,0-6.357.364,2.916,2.916,0,0,1-1.271.363v-.363a8.934,8.934,0,0,0,1-3.36q0-.906-1.815-2.724-1.091-1-1.09-1.272Q446.181,709.49,447,709.49Zm6.175,54.847a11.985,11.985,0,0,1,2.9-.363q.908,0,.908.545l.091.272a2.274,2.274,0,0,1,.545-.272q4.992-2.726,4.994-7.538-.183-1-2.269-1a31.032,31.032,0,0,0-7.81,1.908,1.605,1.605,0,0,1,.545.635,14.236,14.236,0,0,1,3.632-.454q1.089,0,1.09.727,0,2.088-4.086,3.178A9.493,9.493,0,0,1,453.173,764.337Zm13.076,1.361q2,0,2.088,2.271,0,2.089-5.721,10.079c0,.3.241.454.727.454l4.721-2.542a7.713,7.713,0,0,1-.363-2.271c0-.483.212-.726.636-.726a4.587,4.587,0,0,1,3.633,2.18,6.891,6.891,0,0,1,1.452,4.086q0,1.362-1.725,1.362a2.441,2.441,0,0,1-1.816-1.181q-4.632,2.091-7.81,3.815a3.12,3.12,0,0,1-1.724.725,2.868,2.868,0,0,1-2.452-1.724,6.264,6.264,0,0,1-1.181-2.634,3.792,3.792,0,0,1,2.27-3.36,7.457,7.457,0,0,0,2.633-2.815q2.542-4.358,3.542-6.266C465.4,766.184,465.764,765.7,466.249,765.7Z" fill="#000000" stroke="#000000" stroke-linecap="round" stroke-linejoin="round" stroke-width="2"/><path d="M517.3,718.207a6.634,6.634,0,0,1,4.086,1.544,4.555,4.555,0,0,1,2,3.45,11.592,11.592,0,0,1-.454,3.27q7.989,1.545,10.442,3.9a8.126,8.126,0,0,1,2.361,5.176q0,1.182-2.452,1.18-3.36,0-11.986-6.265a2.454,2.454,0,0,1-.454.636,82.419,82.419,0,0,1-11.26,13.439,46.273,46.273,0,0,0,5.267-1.816,17.9,17.9,0,0,1,7.173-1.272q4.721,0,4.722,3.27,0,2-4.358,3.177a.794.794,0,0,1-.364.091l-.09,4.994a17,17,0,0,1,3.359-1q2.814,0,2.815,2.088,0,1.455-2.088,2.271-2.091,1.181-4.177,2.179v2.361a8.6,8.6,0,0,1,3.45-.908q3.177,0,3.179,2.088,0,2.635-3.361,8.082-1.725,2.815-3.45,5.721v1.452A99.312,99.312,0,0,0,532.1,762.884q.363,0,.364,1.453a20.3,20.3,0,0,1-2.452,8.717,48.82,48.82,0,0,1-13.166,16.617q-6.45,5.9-8.718,5.9-1,0-1-2.634,0-2.451,3-6.538,3.63-5.083,6.992-10.9l-.091-5.085q-1.453,1.087-2.543,1.906-3.633,2.544-4.812,2.543-1.908,0-1.907-2.27,0-2.541,7.991-8.081a5.664,5.664,0,0,1,1.09-.727l-.091-3a57.383,57.383,0,0,1-5.359,2.089,25.33,25.33,0,0,1-7.627,1.816q-2.18,0-2.179-1.09,0-1.179,2.27-2.361,7.808-3.813,12.8-6.084l-.091-6.266a17.191,17.191,0,0,1-2.18.182,10.337,10.337,0,0,1-5.085-1.362,16.34,16.34,0,0,1-1.725-1.634q-1.18,1-2.361,1.815-4.359,2.909-6.084,2.907-1.089,0-1.089-.364a64.992,64.992,0,0,0,13.076-16.164q4.992-8.534,4.994-14.256Q516.123,718.207,517.3,718.207Zm47.945,1.726q1.362,0,3.632,2.088a5,5,0,0,1,2.089,4.086,7.549,7.549,0,0,1-.818,2.815q-1.545,4-4.54,12.44a11.05,11.05,0,0,1-.908,1.908q7.628-2.181,10.715-2.18a12.215,12.215,0,0,1,7.174,2.543q3.269,2.452,3.268,4.358-.183,2-4.994,2.089a26.635,26.635,0,0,1-6.629-1.181,21.85,21.85,0,0,0-5.357-.908,44.525,44.525,0,0,0-11.714,1.907,4,4,0,0,0,.454.273,4.357,4.357,0,0,1,1.362,3.178l1.181,38.229a7.048,7.048,0,0,1-1.181,4.359A2.272,2.272,0,0,1,556.9,797.3a2.99,2.99,0,0,1-1.908-1.09,70.112,70.112,0,0,1-6.084-7.264.642.642,0,0,1,.727-.726,29.69,29.69,0,0,0,3.633.363q.361,0,.363-2.361V753.712a6.226,6.226,0,0,0-.636-2.633q-15.62,4.541-17.979,4.54-2.545,0-2.543-.817,0-.453,1.362-.727,14.619-5.537,24.336-8.717a9.25,9.25,0,0,1-.545-3.269,3.761,3.761,0,0,1,1-2.088q.726-1.179,1.544-2.815a57.571,57.571,0,0,1-6.9,1.725,20.987,20.987,0,0,1-4.36.727q-2.634,0-2.632-1.544,0-.546,1.362-1.181,11.167-4.812,12.893-4.9a4.73,4.73,0,0,1,1.453.181,24.319,24.319,0,0,0,1-4.994q0-.817-2-1.09a39.5,39.5,0,0,1-9.17-2.452q-1.818-.817-1.817-1.815,0-.728.273-.727H555.8a32.142,32.142,0,0,0,5.539-.545A17.566,17.566,0,0,1,565.249,719.933Zm-21.521,39.318q3.995,0,4,2.815,0,2.452-4.087,11.987,3.45-1.09,7.355-2.452v.363a13.469,13.469,0,0,1-3.813,8.9q-4.087,4.45-8.536,4.449-1.727-.088-1.726-2.814,0-1.817,2.543-6.81Q543,767.606,543,764.7q0-3.542-2.179-3.905-1.089-.09-1.09-.454Q539.732,759.251,543.728,759.251Zm26.515-8.808a7.6,7.6,0,0,1,4.268,1.817q2.36,1.725,2.361,3.359,0,5.448-6.629,14.075c0,.243.241.364.727.364H578.6a5.49,5.49,0,0,1,3,1.088q1.815.911,1.816,2.18,0,.91-2.906,4.177a34.758,34.758,0,0,1-6.447,5.54,8.808,8.808,0,0,1-3.814.907q-1.362,0-1.362-.725a12.286,12.286,0,0,0,4.9-4.723q2-2.812,2-4.449a.322.322,0,0,0-.363-.364q-5.721,1.182-7.719,1.726a6.218,6.218,0,0,1-2.451.545,2.378,2.378,0,0,1-2.634-2.634q0-1.27,2.271-3.087a15.685,15.685,0,0,0,3.268-5.267,32.054,32.054,0,0,0,1.363-8.626,3.518,3.518,0,0,0-1.09-2.725q-.636-.453-.636-.908Q567.881,750.535,570.243,750.443Z" fill="#000000" stroke="#000000" stroke-linecap="round" stroke-linejoin="round" stroke-width="2"/><g id="平成_年_月_第一版第三刷" data-name="平成９年１２月 第一版第三刷"><path d="M215.38,826.6a4.525,4.525,0,0,1,1.513.279.885.885,0,0,1,.628.861q0,.884-1.117.931a4.733,4.733,0,0,0-2.373.907q-.721.535-1.35.954a1.579,1.579,0,0,1,1.187.675,3.344,3.344,0,0,1,.488,1.838q0,1.024-.023,2.211a11.357,11.357,0,0,0,.838-1.373,6.528,6.528,0,0,0,.931-2.886c0-.248.069-.372.209-.372a2.627,2.627,0,0,1,1.606.606,1.728,1.728,0,0,1,.814,1.326,2.191,2.191,0,0,1-.6,1.373,13.729,13.729,0,0,1-3.537,2.861q2.606-.186,3.258-.185a5.18,5.18,0,0,1,2.14.581q1.536.7,1.536,1.14,0,1.257-1.326,1.257a3.129,3.129,0,0,1-1.4-.535,8.506,8.506,0,0,0-3.816-.885h-.768q-.071,2.42-.233,5.306a16.091,16.091,0,0,1-.884,4.351q-.256.675-.512.675-.139,0-.186-.675-.07-.816-.093-9.494a10.271,10.271,0,0,0-1.117.233,27.761,27.761,0,0,0-4.584,1.931,4.953,4.953,0,0,1-2.118.722,2.491,2.491,0,0,1-1.442-.466c-.218-.171-.326-.3-.326-.372a.227.227,0,0,1,.209-.232,6.373,6.373,0,0,0,2.607-.722,30.437,30.437,0,0,1,4.095-1.652,13.5,13.5,0,0,1,2.676-.745v-3.979a9.529,9.529,0,0,0-.35-2.048q-1.07.7-2,1.188a.083.083,0,0,1-.093-.094,27.372,27.372,0,0,1,3.514-3.048,17.821,17.821,0,0,1-3.77.931,3.309,3.309,0,0,1-1.651-.419,1.451,1.451,0,0,1-.792-1c0-.186.07-.279.209-.279a4,4,0,0,0,1.118.186,10.141,10.141,0,0,0,3.466-.978A8.791,8.791,0,0,1,215.38,826.6Zm-8.307,7.1a4.242,4.242,0,0,1,2.025,1.188.739.739,0,0,0,.419.209q.162,0,.721-1.489c.077,0,.116.062.116.186a5.541,5.541,0,0,1-.977,3.327,1.79,1.79,0,0,1-1.373.862c-.171,0-.334-.2-.489-.582a5.318,5.318,0,0,1-.442-1.885,7.435,7.435,0,0,0-.256-1.629C206.817,833.756,206.9,833.693,207.073,833.693Z" fill="#000000"/><path d="M229.24,833.392q.721,0,1.513,1.116a3.213,3.213,0,0,1,.7,1.955,14.015,14.015,0,0,1-1.071,4.84q-1.209,3.163-2.256,3.164c-.265,0-.4-.03-.4-.093a21.083,21.083,0,0,0,1.419-4.468,17.489,17.489,0,0,0,.349-3.443,11.98,11.98,0,0,0-.628-2.862C228.868,833.461,228.992,833.392,229.24,833.392Zm11.239-3.258q1.558.046,1.606,1.023,0,.232-.7.722a2.2,2.2,0,0,1-.373.3,8.2,8.2,0,0,0-1.466,1.256,2.471,2.471,0,0,1-.325.349q.651,1.722,1.419,3.42a5.412,5.412,0,0,0,.419-1.954.613.613,0,0,0-.117-.163.4.4,0,0,1-.069-.187c0-.185.178-.279.535-.279a1.365,1.365,0,0,1,.814.233c.264.171.4.333.4.489a8.649,8.649,0,0,1-.954,3.862q1.118,2.048,2.42,4,.93,1.466,1.326,1.466c.047,0,.1-.116.163-.35a21.015,21.015,0,0,0,.163-2.117c.031-.108.054-.163.07-.163.108,0,.233.14.372.419a5.843,5.843,0,0,1,.559,2.559,6.018,6.018,0,0,1-.187,1.723q-.186.512-.465.512a3.2,3.2,0,0,1-1.885-1.141,20.394,20.394,0,0,1-3.374-5.468q-1.4,1.979-2.652,1.978a1.153,1.153,0,0,1-.675-.209c-.125-.078-.187-.14-.187-.187a.728.728,0,0,1,.373-.651q1.14-.442,2.234-2.815l.046-.071q-.815-1.931-1.559-4.072-.79.769-1.535,1.467.815.394.814,1.791a7.489,7.489,0,0,1-.768,3.1,7.206,7.206,0,0,1-2.257,2.675,2.017,2.017,0,0,1-1.07.35q-.327,0-.7-.978a2.377,2.377,0,0,1-.233-.7c0-.093.131-.139.4-.139a1.774,1.774,0,0,0,1.048-.349,4.63,4.63,0,0,0,1.442-1.861,4.467,4.467,0,0,0,.582-1.746c0-.294-.093-.442-.279-.442a3,3,0,0,0-1.071.349q-.279.139-.465.21-.606.51-1.14.93a1.316,1.316,0,0,1-.884.372q-.279,0-.443-.372a1.328,1.328,0,0,1-.3-.861q0-.488,1.117-1.094a28.23,28.23,0,0,0,4.653-3.234,5.694,5.694,0,0,0,.7-.675q-.164-.512-.349-1.023a7.669,7.669,0,0,1-4.352,1.675q-1.443-.069-1.582-1.3,0-.4.209-.4a2.627,2.627,0,0,0,1.117.3,11.24,11.24,0,0,0,4-1.233c.093-.047.178-.085.255-.117q-.511-1.629-1.023-3.4a1,1,0,0,0-.628-.744c-.265-.063-.4-.124-.4-.187q.14-.394.465-.395a2.667,2.667,0,0,1,1.257.348,1.039,1.039,0,0,1,.814.978,13.107,13.107,0,0,0,.489,2.955A8.1,8.1,0,0,1,240.479,830.134Zm-1.931,1.721c.046.14.085.264.116.373a1.032,1.032,0,0,0,.093.186c.094-.155.171-.295.233-.419-.032-.108-.124-.163-.279-.163A.706.706,0,0,0,238.548,831.855Zm3.35-4.77a8.443,8.443,0,0,1,1.164.14,4.791,4.791,0,0,1,1.861.745,1.285,1.285,0,0,1,.582.884q-.022.675-.628.721a1.145,1.145,0,0,1-.931-.535,6.7,6.7,0,0,0-1.838-1.676c-.14-.093-.21-.163-.21-.209Z" fill="#000000"/><path d="M261.611,838a11.677,11.677,0,0,1-1.071,5.4,4.693,4.693,0,0,1-4.421,2.63,5.408,5.408,0,0,1-3.769-1.28,3.852,3.852,0,0,1-1.443-2.7.843.843,0,0,1,.954-.954,1,1,0,0,1,.838.536q.255.441.511.931a3.084,3.084,0,0,0,2.909,1.558q2.977,0,3.3-5.491a5.686,5.686,0,0,1-3.374,1.7q-5.212,0-5.212-5.072a5.39,5.39,0,0,1,1.3-3.863,6.3,6.3,0,0,1,8.074.139Q261.612,833.253,261.611,838Zm-2.234-1.768a7.639,7.639,0,0,0-.582-3.048,2.872,2.872,0,0,0-2.746-1.28,2.924,2.924,0,0,0-2.4.861,4.183,4.183,0,0,0-.629,2.49q0,3.141,3.025,3.141A3.8,3.8,0,0,0,259.377,836.23Z" fill="#000000"/><path d="M271.9,826.5q.394,0,1.256.907a2.972,2.972,0,0,1,.792,1.885,3.244,3.244,0,0,1-.535,1.582,3.972,3.972,0,0,0,2.117-.559,3.8,3.8,0,0,1,2.048-.628,1.558,1.558,0,0,1,.884.209,1.173,1.173,0,0,1,.419.909.946.946,0,0,1-.675.86,7.752,7.752,0,0,1-1.28.35,2.963,2.963,0,0,1,.209,1.093v.768h.279q1.024,0,1.024.744,0,.675-1.326,1.048-.022,1.7-.07,3.793a23.53,23.53,0,0,1,3.584-.4,6.841,6.841,0,0,1,2.443.373,1.047,1.047,0,0,1,.652.931q0,.93-.722.931a10.675,10.675,0,0,1-1.512-.3,21.016,21.016,0,0,0-2.536-.14q-1.049,0-1.955.047-.024,1.071-.093,2.21a26.262,26.262,0,0,1-.489,4.166c-.108.434-.21.652-.3.652-.233,0-.381-.218-.443-.652q-.138-.628-.186-6.283-1.443.139-2.722.372a20.456,20.456,0,0,0-4.956,1.955,2.366,2.366,0,0,1-1.28.419,1.239,1.239,0,0,1-.838-.442c-.248-.264-.372-.457-.372-.582,0-.155.131-.233.395-.233a7.5,7.5,0,0,0,2.7-.651,19.334,19.334,0,0,1,3-1.07,7.368,7.368,0,0,0,.279-1.118,6.72,6.72,0,0,0,.117-1.233,2.76,2.76,0,0,0-.722-1.21c0-.061.062-.093.186-.093a2.338,2.338,0,0,1,1.327.489q.629.4.628.814a3.814,3.814,0,0,1-.558,1.745,1.937,1.937,0,0,1-.163.279,7.747,7.747,0,0,1,.768-.185q1.163-.28,2.21-.489-.023-1.722-.023-3.77a12.974,12.974,0,0,1-1.792.187,2.152,2.152,0,0,1-1.07-.3c-.31-.233-.474-.411-.489-.535q0-.21.489-.256a9.631,9.631,0,0,0,2.234-.722,4.321,4.321,0,0,1,.628-.232v-1.024a6.7,6.7,0,0,0-.116-1.048,6.279,6.279,0,0,1-2.211-.464,1,1,0,0,1-.139-.093c-.125.155-.241.3-.35.441A9.887,9.887,0,0,1,268.483,835a.164.164,0,0,1-.186-.186,19.915,19.915,0,0,0,2.816-3.863,6.747,6.747,0,0,0,.907-3.211,2.7,2.7,0,0,0-.209-1.024C271.811,826.573,271.842,826.5,271.9,826.5Z" fill="#000000"/><path d="M294.6,845.1a.8.8,0,0,1-.349.675,1.18,1.18,0,0,1-.791.279q-1.071,0-1.07-.954V834.741h-2.63a1.307,1.307,0,0,1-.838-.279.8.8,0,0,1-.349-.675q0-.7,1.094-.838a3.123,3.123,0,0,0,2.048-1.6q.93-1.328,1.885-1.326.418,0,.744.6a2.086,2.086,0,0,1,.256,1.024Z" fill="#000000"/><path d="M309.051,844.677a.844.844,0,0,1-.954.954H300.6a3.353,3.353,0,0,1-1.559-.372,1.287,1.287,0,0,1-.768-1.164,3.728,3.728,0,0,1,1.28-2.536,22.169,22.169,0,0,1,2.979-2.351q1-.72,2.978-2.28a3.571,3.571,0,0,0,1.35-2.49,2.307,2.307,0,0,0-.954-1.978,3.932,3.932,0,0,0-2.141-.558,4.416,4.416,0,0,0-2.536.558,3.542,3.542,0,0,0-1.094,2.187,2.073,2.073,0,0,1-.233.746.7.7,0,0,1-.675.348.945.945,0,0,1-.7-.279.906.906,0,0,1-.257-.628,4.414,4.414,0,0,1,1.583-3.606,6.844,6.844,0,0,1,7.632-.14,3.926,3.926,0,0,1,1.559,3.35q0,2.492-3.932,5.236-1.048.675-2.909,2a5.014,5.014,0,0,0-1.885,2.048H308.1a.9.9,0,0,1,.7.279A.911.911,0,0,1,309.051,844.677Z" fill="#000000"/><path d="M319.554,829.389q.093,0,.442.395a2.133,2.133,0,0,1,.861,1.373q-.024.652-.047,1.187a1.46,1.46,0,0,1,.14-.162,4.211,4.211,0,0,1,2.4-.932,1.148,1.148,0,0,1,1.233,1.3q0,.418-1.35,1.977a7.044,7.044,0,0,0-1.187,1.653.772.772,0,0,0,.233.6,8.5,8.5,0,0,0,1.373.07c.683.032,1.024.341,1.024.931a1.343,1.343,0,0,1-.489.861,18.817,18.817,0,0,1-2.792,1.954,1.063,1.063,0,0,1-.535.164.165.165,0,0,1-.187-.187,9.911,9.911,0,0,1,1.537-1.395c.34-.28.511-.466.511-.559q0-.256-.372-.3-1.49-.091-1.838-.558a.869.869,0,0,1-.186-.419,24.486,24.486,0,0,1-.954,4.375q-1.164,3.188-2.583,4.141a2.6,2.6,0,0,1-1.14.466c-.14,0-.21-.031-.21-.094a14.413,14.413,0,0,0,2.839-5.467,54.426,54.426,0,0,0,1.186-10.984C319.46,829.521,319.492,829.389,319.554,829.389Zm.977,6.376a8.086,8.086,0,0,1,.838-.908q1.348-1.255,1.349-1.559c0-.294-.132-.442-.4-.442a4.769,4.769,0,0,0-1.583.465Q320.647,834.625,320.531,835.765Zm6.282-8.61q.442,0,1.187,1.234a3.325,3.325,0,0,1,.675,1.489,6.26,6.26,0,0,1-.325.814,10.993,10.993,0,0,0-.373,2.025q-.139,1.907-.14,5.025v7.028a3.783,3.783,0,0,1-.558,2.14,1.166,1.166,0,0,1-.954.652,2.176,2.176,0,0,1-1.629-.884,23.445,23.445,0,0,0-3.4-2.839c0-.062.07-.093.209-.093a17.492,17.492,0,0,0,3.514,1.024q.512,0,.512-.791,0-9.053.139-10.634a11.947,11.947,0,0,0,.21-1.606,3.748,3.748,0,0,0-.372-1.839,1.307,1.307,0,0,0-1.14-.86,8.276,8.276,0,0,0-1.815.325,7.778,7.778,0,0,1-1.35.326c-.3,0-.442-.069-.442-.209q0-.139.605-.605a7.137,7.137,0,0,1,2.048-1.094A9.349,9.349,0,0,1,326.813,827.155Z" fill="#000000"/><path d="M375.778,832.367q1.093,0,1.093,1.025-.024.6-1.372,1.884a.739.739,0,0,1,.093.372q0,.4-.675.628-.7.188-1.373.35v1.023a18.618,18.618,0,0,1,5.375-.977,6.593,6.593,0,0,1,2.467.349,1.143,1.143,0,0,1,.791,1.024q0,.721-2.117,2.443a6.821,6.821,0,0,1-2.514,1.559,1.41,1.41,0,0,1-1.116-.768c-.265-.279-.4-.48-.4-.6,0-.078.109-.14.325-.187a5.113,5.113,0,0,0,2.467-.814q1.024-.675,1.024-1.257a.434.434,0,0,0-.28-.441,3.223,3.223,0,0,0-1.186-.187,16.883,16.883,0,0,0-4.793.768l-.047.023v6.539a5.24,5.24,0,0,1-.349,2.187q-.279.629-.674.629-.513,0-1.513-2.048v-.093a.56.56,0,0,0,.4.256q.721,0,.722-1.117v-3.979a37.2,37.2,0,0,1-2.815,3.327,3.948,3.948,0,0,1-2.56,1.326c-.249,0-.373-.069-.373-.209a11.992,11.992,0,0,0,2.583-2.4,26.228,26.228,0,0,0,2.909-3.862,17.9,17.9,0,0,0-3.887,2,3.285,3.285,0,0,1-1.511.838c-.389,0-.582-.225-.582-.675a1.654,1.654,0,0,1,.419-.745,5.852,5.852,0,0,0,1.535-3.257q0-.3.954-.35.7.024.745.535a5.378,5.378,0,0,1-1.187,2.118q2.025-.884,3.77-1.512v-1.187l-.256.046a11.507,11.507,0,0,1-1.606.163c-.418,0-.628-.116-.628-.348q0-.186.466-.373,1.162-.4,2-.652a1.391,1.391,0,0,0-.3-.93.333.333,0,0,1-.209-.233,7.779,7.779,0,0,1-1.606.233q-.721-.048-.838-.4c0-.124.209-.232.628-.326A24.147,24.147,0,0,1,375.778,832.367Zm-6.539-5.468a4.306,4.306,0,0,0,.628.465,1.282,1.282,0,0,1,.7,1.094,2.475,2.475,0,0,1-.395,1.117.926.926,0,0,1,.838.744l1.117-.93v.093q-.653,1.326-1.21,2.49-.374.977-1.024.977-.536,0-.536-.861l.815-1.373a11.006,11.006,0,0,1-3.514,1.373q-.675,0-.675-.559c0-.154.187-.372.559-.651q2.49-2.535,2.49-3.677C369.03,827,369.1,826.9,369.239,826.9Zm3.188,7.447a1.281,1.281,0,0,1,.7.372,1.447,1.447,0,0,1,.326.581c.17-.046.318-.085.443-.116l1.21-1.49c0-.061-.063-.092-.187-.092Q373.474,834.066,372.427,834.346Zm2.769-8.657a1.876,1.876,0,0,1,1.024.442,1,1,0,0,1,.489.861,4.813,4.813,0,0,1-.978,1.769,8.508,8.508,0,0,1,2.072-.4c.635,0,.953.195.953.582a1.654,1.654,0,0,1-1.326,1.466q-1.4.675-3.444,1.675v-.069q1.093-.978,1.932-1.792h-1.257q-1.211,0-1.21-.931a2.411,2.411,0,0,1,.768-1.559A3.707,3.707,0,0,0,375.2,825.689Z" fill="#000000"/><path d="M397.288,837.021a16.832,16.832,0,0,0-3.514.326,11.884,11.884,0,0,0-2.49.7,3.539,3.539,0,0,1-1.605.372,4.019,4.019,0,0,1-1.653-.279q-.791-.326-.791-.837c0-.171.063-.257.187-.257a14.122,14.122,0,0,0,3.606-.535,24.816,24.816,0,0,1,5.492-.837q4.421-.372,5.329-.513a8.073,8.073,0,0,1,1.21-.093,4.639,4.639,0,0,1,2.559.746,2.489,2.489,0,0,1,1.35,1.977.823.823,0,0,1-.931.931,2.946,2.946,0,0,1-1.326-.512,14.041,14.041,0,0,0-3-.791A24.511,24.511,0,0,0,397.288,837.021Z" fill="#000000"/><path d="M411.944,830.994c.109,0,.311.149.606.443a3.819,3.819,0,0,1,1,1.489,7,7,0,0,1,.163,1.023q.534-.255,1.024-.511a7.572,7.572,0,0,0,1.791-4.677q0-.489.443-.489a2.358,2.358,0,0,1,1.349.349,1.421,1.421,0,0,1,.512,1.163,3.422,3.422,0,0,1-.441,1.4,5.667,5.667,0,0,1-1.072,1.21.63.63,0,0,1,.14-.024q1.211,0,1.21.931,0,.606-1.07,1.723a24.379,24.379,0,0,1-2.071,2.023c.233-.123.5-.256.791-.4a1.353,1.353,0,0,1,.652-.279,1.37,1.37,0,0,1,.838.4.942.942,0,0,1,.488.72V844.1a1.239,1.239,0,0,1-.256.791.641.641,0,0,1-.488.233.691.691,0,0,1-.49-.3.9.9,0,0,1-.185-.535q-.163-4.21-.163-5.119c0-.5-.063-.745-.187-.745a10.858,10.858,0,0,0-2.14.605,3.394,3.394,0,0,1-.628.209,37.487,37.487,0,0,1-.443,4.445,6.3,6.3,0,0,1-.6,1.931.938.938,0,0,1-.675.443q-.442,0-.442-.931a2.786,2.786,0,0,1,.163-1.117,7.313,7.313,0,0,0,.6-2.28,37.67,37.67,0,0,0,.256-4.678,31.8,31.8,0,0,0-.116-3.56,8.057,8.057,0,0,0-.582-1.675,2.346,2.346,0,0,1-.139-.721C411.782,831.025,411.836,830.994,411.944,830.994Zm1.862,6.7a10.422,10.422,0,0,0,1.3-1.722,5.542,5.542,0,0,0,.582-.977q0-.186-.093-.186a1.329,1.329,0,0,1-.768.348,3.963,3.963,0,0,1-1.047-.116q.022.861.023,1.908Zm11.751-7.912q.745,0,.745.443,0,1.094-1.722,1.652-.745.186-1.28.3-.164.7-.535,2.07l.139-.14a3.434,3.434,0,0,1,2.072-1.163q1.7,0,1.768,2.048a12.365,12.365,0,0,1-1.094,4.909,16.056,16.056,0,0,0,3.583,2.141,18.313,18.313,0,0,1,3.049,1.233c.527.265.791.535.791.815q0,.766-1.466.768a6.635,6.635,0,0,1-2.909-.605,7.966,7.966,0,0,1-3.3-2.373q-.28-.281-.513-.559-1.466,2.419-2.885,2.42a3,3,0,0,1-1.35-.232q-.069.3-.116.581a.8.8,0,0,1-.838.582q-.558-.071-.582-.838,2.282-7.586,3.327-11.5a5.675,5.675,0,0,1-.976.116,1.468,1.468,0,0,1-.769-.209c-.216-.14-.333-.248-.348-.326q0-.3.488-.4a8.547,8.547,0,0,0,2.188-1.023A4.292,4.292,0,0,1,425.557,829.784ZM420.74,843.1a8.1,8.1,0,0,0,2.909-3.073q-1-1.046-1.862-1.837Q421.3,840.419,420.74,843.1Zm1.3-6,2.164,1.745a9.924,9.924,0,0,0,.861-3.77c0-.433-.092-.651-.279-.651s-.6.279-1.186.838a2.435,2.435,0,0,1-.931.581.825.825,0,0,1-.3-.046Q422.183,836.417,422.043,837.091Z" fill="#000000"/><path d="M450.382,832.367q1.092,0,1.093,1.025-.024.6-1.372,1.884a.749.749,0,0,1,.092.372q0,.4-.674.628c-.466.125-.923.242-1.374.35v1.023a18.618,18.618,0,0,1,5.375-.977,6.593,6.593,0,0,1,2.467.349,1.142,1.142,0,0,1,.791,1.024q0,.721-2.117,2.443a6.805,6.805,0,0,1-2.514,1.559,1.41,1.41,0,0,1-1.116-.768c-.264-.279-.4-.48-.4-.6,0-.078.108-.14.325-.187a5.116,5.116,0,0,0,2.467-.814q1.023-.675,1.023-1.257a.434.434,0,0,0-.279-.441,3.228,3.228,0,0,0-1.187-.187,16.894,16.894,0,0,0-4.793.768l-.047.023v6.539a5.258,5.258,0,0,1-.348,2.187c-.187.419-.411.629-.675.629q-.513,0-1.513-2.048v-.093a.564.564,0,0,0,.4.256c.48,0,.722-.373.722-1.117v-3.979a37.189,37.189,0,0,1-2.816,3.327,3.946,3.946,0,0,1-2.559,1.326c-.25,0-.374-.069-.374-.209a11.969,11.969,0,0,0,2.583-2.4,26.233,26.233,0,0,0,2.91-3.862,17.854,17.854,0,0,0-3.887,2,3.291,3.291,0,0,1-1.512.838q-.582,0-.582-.675a1.665,1.665,0,0,1,.419-.745,5.845,5.845,0,0,0,1.535-3.257c0-.2.319-.319.954-.35q.7.024.746.535a5.378,5.378,0,0,1-1.187,2.118q2.025-.884,3.77-1.512v-1.187l-.256.046a11.5,11.5,0,0,1-1.607.163c-.418,0-.628-.116-.628-.348,0-.124.156-.248.466-.373q1.162-.4,2-.652a1.386,1.386,0,0,0-.3-.93.336.336,0,0,1-.209-.233,7.762,7.762,0,0,1-1.6.233q-.723-.048-.838-.4c0-.124.209-.232.628-.326A24.124,24.124,0,0,1,450.382,832.367Zm-6.539-5.468a4.2,4.2,0,0,0,.628.465,1.282,1.282,0,0,1,.7,1.094,2.479,2.479,0,0,1-.4,1.117.924.924,0,0,1,.838.744l1.118-.93v.093q-.652,1.326-1.21,2.49-.374.977-1.025.977-.534,0-.535-.861l.814-1.373a11,11,0,0,1-3.513,1.373q-.675,0-.675-.559c0-.154.186-.372.559-.651q2.49-2.535,2.49-3.677C443.634,827,443.7,826.9,443.843,826.9Zm3.187,7.447a1.284,1.284,0,0,1,.7.372,1.459,1.459,0,0,1,.326.581c.17-.046.317-.085.442-.116l1.21-1.49c0-.061-.062-.092-.186-.092Q448.078,834.066,447.03,834.346Zm2.77-8.657a1.874,1.874,0,0,1,1.023.442,1,1,0,0,1,.489.861,4.82,4.82,0,0,1-.977,1.769,8.5,8.5,0,0,1,2.071-.4c.636,0,.953.195.953.582a1.654,1.654,0,0,1-1.326,1.466q-1.395.675-3.443,1.675v-.069q1.092-.978,1.931-1.792h-1.256q-1.21,0-1.21-.931a2.414,2.414,0,0,1,.767-1.559A3.709,3.709,0,0,0,449.8,825.689Z" fill="#000000"/><path d="M472.158,843.188a15.609,15.609,0,0,0-3.815.418,10.882,10.882,0,0,0-2.654.861,3.37,3.37,0,0,1-1.768.489,3.611,3.611,0,0,1-1.606-.3q-.744-.324-.744-.814c0-.124.07-.187.209-.187a14.924,14.924,0,0,0,3.933-.628,25.65,25.65,0,0,1,6.026-1q4.8-.394,5.818-.582a7.712,7.712,0,0,1,1.349-.116,4.482,4.482,0,0,1,2.4.675q1.326.791,1.326,1.745,0,.93-.838.931a3.744,3.744,0,0,1-1.489-.443A18.85,18.85,0,0,0,477,843.56,30.91,30.91,0,0,0,472.158,843.188Zm3.933-13.613a5.146,5.146,0,0,1,1.629.279.883.883,0,0,1,.6.861q0,.978-1.117,1.024a2.84,2.84,0,0,0-1.35.443,21.044,21.044,0,0,1-2.374,1.3.082.082,0,0,1-.092-.092,16.061,16.061,0,0,1,1.3-1.49,27.5,27.5,0,0,1-5.561,1.3,3.537,3.537,0,0,1-1.722-.419,1.508,1.508,0,0,1-.814-1.047c0-.2.069-.3.209-.3a4.146,4.146,0,0,0,1.21.209,12.736,12.736,0,0,0,4.1-1.093A10.6,10.6,0,0,1,476.091,829.575Zm-2.885,6.166q2.442.024,2.442,1.653-.047.837-1.023.837a31.548,31.548,0,0,0-3.909.233,16.013,16.013,0,0,1-1.676.163,2.653,2.653,0,0,1-1.419-.372c-.372-.14-.582-.295-.628-.466,0-.093.054-.14.162-.14a6.7,6.7,0,0,0,2.746-.93A8.75,8.75,0,0,1,473.206,835.741Z" fill="#000000"/><path d="M496.105,827.83a2.437,2.437,0,0,1,1.652.6,1.821,1.821,0,0,1,.675,1.256c0,.621-.162.986-.489,1.094a6.854,6.854,0,0,0-1.6,1.513.5.5,0,0,1,.14.372q0,.7-1.21,1.07c-.124.031-.242.063-.349.093a1.43,1.43,0,0,1,.418.931,2.286,2.286,0,0,1,.7-.256q2.49,0,2.607,2.164a12.67,12.67,0,0,1-.3,2.559,6.327,6.327,0,0,1-.838,2.048q-.348.606-.721.606a.928.928,0,0,1-.93-.862,2.643,2.643,0,0,1,.255-.767,8.88,8.88,0,0,0,.582-3.584q-.048-.488-.745-.488a2.816,2.816,0,0,0-.582.139c.016.744.032,1.428.047,2.048q.024,1.558.047,6.585-.093,1-.932,1.094-.6-.117-.627-1.28c0-.373.007-.713.023-1.024q0-.651.023-3.816.023-1.7.046-3.072a2.146,2.146,0,0,1-.581.186c-.651,0-1.024-.154-1.117-.465.047-.124.178-.21.4-.256a6.585,6.585,0,0,0,.977-.605,2.737,2.737,0,0,0,.325-.233V834.9a1.119,1.119,0,0,0-.348-.814,5.036,5.036,0,0,1-.582.047.953.953,0,0,1-.233-.024,9.485,9.485,0,0,1-.628,1.582,17.523,17.523,0,0,1-1.093,2.072.744.744,0,0,1,.139.046,1.861,1.861,0,0,1,.861,1.234,7.879,7.879,0,0,1,.373,1.977c0,1.009-.149,1.513-.443,1.513-.218,0-.419-.171-.605-.512a10.443,10.443,0,0,1-.489-2.374,2.67,2.67,0,0,0-.4-1q-.418.651-.861,1.256a7.261,7.261,0,0,1-2.35,2.281,2.256,2.256,0,0,1-1,.349c-.124,0-.186-.039-.186-.116a21.036,21.036,0,0,0,2.513-3.072,17.072,17.072,0,0,0,1.908-4,10.205,10.205,0,0,0,.605-3.164,3.784,3.784,0,0,0-.162-1.094c0-.187.053-.279.162-.279a1.711,1.711,0,0,1,1.164.6,2.415,2.415,0,0,1,.6,1.56,7.029,7.029,0,0,0,.838-.419,2.475,2.475,0,0,1,.884-.35l1.443-2.07a.226.226,0,0,0-.255-.256,19.441,19.441,0,0,0-3.933.7,3.187,3.187,0,0,1-.559.14c-.279,0-.426-.069-.442-.209q0-.21.489-.559a6.942,6.942,0,0,1,1.862-1.186A8.169,8.169,0,0,1,496.105,827.83Zm4.677,4.258q.186,0,.628,1.326a11.037,11.037,0,0,1,.582,3.352,2.449,2.449,0,0,1-.372,1.489.8.8,0,0,1-.651.372c-.544-.047-.83-.427-.862-1.141a12.03,12.03,0,0,1,.256-2.21,21.224,21.224,0,0,0,.3-2.722C500.682,832.243,500.72,832.088,500.782,832.088Zm4.84-4.653a1.089,1.089,0,0,1,.768.3,1.81,1.81,0,0,1,.536,1.3,6.35,6.35,0,0,1-.21,1.326q-.186,1.14-.279,2.536-.187,3.864-.186,6.074,0,1.605.3,6.539-.048,1.815-.489,1.838-.58,0-1.28-.908a3.107,3.107,0,0,1-.675-1.42c0-.17.032-.255.094-.255a1.419,1.419,0,0,0,.581.186c.063,0,.094-.179.094-.535q0-9.518.046-11.821.117-2.327.116-4.049l-.162-.907Q504.878,827.458,505.622,827.435Z" fill="#000000"/></g><g id="_本ソフトウエアはフリーソフトウエアではありません_二次配布_コピー_ネットワークヘの転載などの為を禁じます" data-name="※本ソフトウエアはフリーソフトウエアではありません 　二次配布・コピー・ネットワークヘの転載などの為を禁じます"><path d="M190.388,936.782l-4.415,4.416,4.415,4.415-.322.323-4.416-4.416-4.415,4.416-.322-.323,4.416-4.415-4.416-4.416.322-.322,4.415,4.416,4.416-4.416Zm-7.36,4.416a.932.932,0,0,1-.276.69,1,1,0,0,1-1.471,0,1,1,0,0,1,0-1.38,1,1,0,0,1,1.471,0A.932.932,0,0,1,183.028,941.2Zm2.622-2.622a1.009,1.009,0,0,1-.735-.322,1,1,0,0,1,0-1.38,1,1,0,0,1,1.471,0,1,1,0,0,1,0,1.38A1.012,1.012,0,0,1,185.65,938.576Zm.736,6.945a1,1,0,0,1-1.471,0,1,1,0,0,1,0-1.379,1,1,0,0,1,1.471,0,1,1,0,0,1,0,1.379Zm3.634-3.633a1,1,0,0,1-1.472,0,1,1,0,0,1,0-1.38,1,1,0,0,1,1.472,0,1,1,0,0,1,0,1.38Z" fill="#000000"/><path d="M197,943.59h-2.162v-.277H197v-3.679a13.831,13.831,0,0,1-4.875,5.059c-.185.032-.23-.03-.139-.183a14.705,14.705,0,0,0,4.646-5.7h-4.278v-.276H197v-2.484l.782.139q.367.23-.184.321v2.024H201l.69-.69.874.644q.276.231,0,.322h-4.738a9.923,9.923,0,0,0,5.152,4.922,1.34,1.34,0,0,0-.828.6A10.434,10.434,0,0,1,197.6,938.9v4.415h1.012l.6-.6.736.552c.184.154.184.26,0,.322H197.6v2.576q-.6.55-.6.046Z" fill="#000000"/><path d="M212.766,937.426q.6.46.6.736c0,.092-.077.138-.23.138s-.277.108-.368.322a11.165,11.165,0,0,1-6.992,6.854c-.184-.032-.2-.108-.046-.23a10.96,10.96,0,0,0,6.439-7.176.493.493,0,0,0,0-.506.746.746,0,0,0-.459-.322c-.123-.061-.123-.122,0-.184A1.543,1.543,0,0,1,212.766,937.426Zm-5.244,1.242a2.311,2.311,0,0,1,.644,1.15c0,.368-.108.552-.322.552-.184,0-.338-.215-.46-.644a3.59,3.59,0,0,0-1.334-1.794c-.092-.061-.062-.107.092-.138A3.254,3.254,0,0,1,207.522,938.668Z" fill="#000000"/><path d="M219.1,938.714a2.442,2.442,0,0,0-1.1.322.181.181,0,0,1-.185.138c-.091,0-.291-.138-.6-.414a1.1,1.1,0,0,1-.414-.69c0-.153.061-.169.184-.046a.824.824,0,0,0,.782.322q.781,0,5.795-.552a.7.7,0,0,0,.552-.368,8.417,8.417,0,0,1,.92.644c.153.123.23.23.23.322,0,.123-.108.184-.322.184s-.353.062-.414.184a11.073,11.073,0,0,1-6.946,6.486c-.153,0-.184-.061-.091-.184a11.045,11.045,0,0,0,6.439-6.67c.092-.214.03-.306-.183-.276Q222.782,938.209,219.1,938.714Z" fill="#000000"/><path d="M233.9,940.462a5.176,5.176,0,0,1,1.748.828q.69.552.69.92c0,.275-.108.414-.322.414-.123,0-.292-.139-.506-.414a5.884,5.884,0,0,0-3.082-1.84v5.106c0,.336-.077.5-.23.5-.184,0-.338-.137-.46-.414a1.382,1.382,0,0,1,.046-.92q.138-1.563.092-7.037a1.372,1.372,0,0,0-.138-.69.917.917,0,0,0-.644-.23c-.123-.061-.123-.122,0-.184a1.759,1.759,0,0,1,.874.046,3.251,3.251,0,0,1,.644.322q.276.184.276.368c0,.092-.062.154-.184.184a.218.218,0,0,0-.184.23,16.938,16.938,0,0,0-.092,2.53A9.864,9.864,0,0,1,233.9,940.462Z" fill="#000000"/><path d="M242.123,946.4c-.215.03-.261-.032-.138-.184a11.168,11.168,0,0,0,5.52-7.038q.138-.276-.092-.322-2.715.138-5.382.414v2.713c.061.523.015.783-.138.783a.4.4,0,0,1-.322-.184q-.276-.183-.138-.874v-2.162a1.97,1.97,0,0,0-.092-.69.435.435,0,0,0-.276-.23c-.276-.092-.23-.168.138-.23a1.092,1.092,0,0,1,.828.414q1.2-.091,2.346-.184v-1.334a.867.867,0,0,0-.092-.46.668.668,0,0,0-.46-.23c-.246-.03-.276-.107-.092-.23a2.07,2.07,0,0,1,1.472.277.268.268,0,0,1,.138.229c0,.062-.077.107-.23.138q-.184.093-.184.552v1.012q1.287-.045,2.484-.092a1.717,1.717,0,0,0,.414-.322q.414.369.69.644c.153.123.23.23.23.322,0,.061-.108.077-.322.046-.092,0-.169.061-.23.184A10.81,10.81,0,0,1,242.123,946.4Z" fill="#000000"/><path d="M255.864,939.312q.367.184.691.368t.321.322c0,.123-.091.2-.275.229q-.048,1.382-.093,2.714c1.564-.029,2.514-.046,2.852-.046a1.266,1.266,0,0,0,.69-.275,2.183,2.183,0,0,1,.69.368c.245.184.368.338.368.46s-.108.153-.322.092a6.659,6.659,0,0,0-1.517-.185,24.4,24.4,0,0,0-6.256.369,1.416,1.416,0,0,0-.553.138.356.356,0,0,1-.321.138c-.092,0-.261-.108-.506-.322a1.746,1.746,0,0,1-.507-.69c0-.215.062-.245.185-.093a1.118,1.118,0,0,0,.828.323,31.958,31.958,0,0,0,3.863-.23v-2.484a2.051,2.051,0,0,0-.091-.644,1.3,1.3,0,0,0-.553-.506,14.4,14.4,0,0,0-2.024.322.794.794,0,0,1-.367.138q-.093,0-.46-.322a.992.992,0,0,1-.414-.69c.03-.153.076-.184.137-.092a.977.977,0,0,0,.874.414h.92q2.025-.183,4.371-.322c.245-.092.443-.168.6-.23a2.218,2.218,0,0,1,.644.368c.154.122.23.23.23.322s-.092.123-.276.092A15.781,15.781,0,0,0,255.864,939.312Z" fill="#000000"/><path d="M272.136,937.426q.414.414.414.552c0,.092-.077.138-.23.138a1.948,1.948,0,0,1-.368-.046q-1.013.645-3.68,2.161a6.907,6.907,0,0,1-3.634,5.336c-.215.062-.291.016-.23-.137a6.656,6.656,0,0,0,3.128-5.106q.138-.966-.414-1.1-.323-.091-.092-.184a1.533,1.533,0,0,1,1.1.322.46.46,0,0,1,.184.46,16.086,16.086,0,0,0,2.99-2.208,42.153,42.153,0,0,0-4.784.46,7.775,7.775,0,0,0-1.794.414.614.614,0,0,1-.368.138c-.091,0-.276-.122-.551-.368a1.105,1.105,0,0,1-.46-.736c0-.184.076-.23.23-.138q.274.461,1.195.414a20.588,20.588,0,0,0,2.07-.184,38.3,38.3,0,0,1,4.232-.276,3.372,3.372,0,0,0,.6-.368Z" fill="#000000"/><path d="M276.816,938.3a1.563,1.563,0,0,0-.23.506,13.322,13.322,0,0,0-.92,4.048,2.422,2.422,0,0,0,.092.919c.061.093.122.078.184-.045q.505-1.288,1.058-2.392.23-.045.138.138a14.461,14.461,0,0,0-.736,2.116,3.839,3.839,0,0,0-.138.874q0,.507.046,1.012c.03.306-.077.46-.322.46-.154,0-.276-.138-.368-.415a8.45,8.45,0,0,1-.322-2.851,15.593,15.593,0,0,1,.644-3.956,2.693,2.693,0,0,0,.092-.736.747.747,0,0,0-.552-.69q-.231-.091,0-.138a1.223,1.223,0,0,1,.69.184,6.81,6.81,0,0,1,.644.6A.231.231,0,0,1,276.816,938.3Zm5.7,5.842a1.5,1.5,0,0,1-.645,1.057,2.116,2.116,0,0,1-1.241.322,2.017,2.017,0,0,1-1.472-.459,1.011,1.011,0,0,1-.322-.736.763.763,0,0,1,.368-.6,2.518,2.518,0,0,1,1.426-.322,6.181,6.181,0,0,1,1.38.138q0-2.576-.092-3.956a19.867,19.867,0,0,1-2.76.23,1.038,1.038,0,0,1-.69-.23,2.009,2.009,0,0,1-.644-.874c-.031-.153.015-.184.138-.092a1.462,1.462,0,0,0,1.242.782,21.053,21.053,0,0,0,2.667-.23q-.045-1.149-.091-1.564-.047-.505-.874-.552c-.276,0-.292-.061-.046-.184a1.445,1.445,0,0,1,.736-.092,1.9,1.9,0,0,1,.874.322q.183.138-.046.368a.724.724,0,0,0-.093.46q0,.507.047,1.15a7.459,7.459,0,0,0,1.517-.276.418.418,0,0,1,.46,0,1.812,1.812,0,0,1,.323.23c.091.123.046.2-.139.23q-1.1.185-2.115.276.138,2.161.138,4.094,1.011.369,1.977.736a.411.411,0,0,1,.276.275.71.71,0,0,1,.047.415c-.062.184-.184.214-.368.091A11.107,11.107,0,0,0,282.52,944.142Zm-1.978-.414a1.779,1.779,0,0,0-1.242.322.442.442,0,0,0-.138.322.564.564,0,0,0,.138.414,1.618,1.618,0,0,0,1.2.413,1.434,1.434,0,0,0,1.012-.275,1.475,1.475,0,0,0,.46-.92A3.789,3.789,0,0,0,280.542,943.728Z" fill="#000000"/><path d="M289.684,938.714a2.442,2.442,0,0,0-1.1.322.181.181,0,0,1-.184.138c-.092,0-.292-.138-.6-.414a1.1,1.1,0,0,1-.414-.69c0-.153.061-.169.184-.046a.824.824,0,0,0,.782.322q.781,0,5.8-.552a.7.7,0,0,0,.551-.368,8.417,8.417,0,0,1,.92.644c.154.123.23.23.23.322,0,.123-.108.184-.322.184s-.353.062-.414.184a11.071,11.071,0,0,1-6.945,6.486c-.154,0-.185-.061-.092-.184a11.045,11.045,0,0,0,6.439-6.67c.092-.214.03-.306-.183-.276Q293.364,938.209,289.684,938.714Z" fill="#000000"/><path d="M300.573,946.073q-.276-.092-.046-.275,4.185-1.658,4.14-5.106v-3.22a1.171,1.171,0,0,0-.184-.552.846.846,0,0,0-.6-.23c-.062-.061-.046-.107.046-.138a2.415,2.415,0,0,1,1.334.184q.414.185.414.322,0,.231-.414.46v3.174Q305.31,944.556,300.573,946.073Zm.552-8.739a.927.927,0,0,0-.552-.23c-.123-.061-.123-.123,0-.184a2.267,2.267,0,0,1,1.242.23c.245.092.368.2.368.322a.18.18,0,0,1-.138.184q-.138.047-.138.414v3.542c.031.491-.062.736-.276.736-.092,0-.184-.077-.276-.23-.123-.184-.168-.322-.138-.414.031-.215.061-.475.092-.782V937.84A.684.684,0,0,0,301.125,937.334Z" fill="#000000"/><path d="M315.005,941.2q-1.288.047-2.76.138a2.417,2.417,0,0,0-.92.138.5.5,0,0,1-.322.184c-.031,0-.138-.093-.322-.276a2.388,2.388,0,0,1-.46-.6,1.549,1.549,0,0,1-.184-.874c.061-.122.122-.139.184-.046a1.359,1.359,0,0,0,.506.782,1.657,1.657,0,0,0,.736.138q1.38,0,3.726-.046t2.944-.092a1.249,1.249,0,0,0,.6-.138.4.4,0,0,1,.277-.138,1.016,1.016,0,0,1,.736.322,1.62,1.62,0,0,1,.321.368c.061.184-.03.26-.275.23a7.612,7.612,0,0,0-1.15-.092Q316.614,941.153,315.005,941.2Z" fill="#000000"/><path d="M330.4,937.426q.6.46.6.736c0,.092-.077.138-.229.138s-.277.108-.369.322a11.166,11.166,0,0,1-6.991,6.854c-.184-.032-.2-.108-.046-.23a10.96,10.96,0,0,0,6.439-7.176.5.5,0,0,0,0-.506.749.749,0,0,0-.46-.322c-.122-.061-.122-.122,0-.184A1.54,1.54,0,0,1,330.4,937.426Zm-5.243,1.242a2.319,2.319,0,0,1,.644,1.15q0,.552-.323.552-.276,0-.459-.644a3.6,3.6,0,0,0-1.334-1.794c-.092-.061-.062-.107.092-.138A3.261,3.261,0,0,1,325.159,938.668Z" fill="#000000"/><path d="M336.739,938.714a2.442,2.442,0,0,0-1.1.322.181.181,0,0,1-.184.138c-.092,0-.292-.138-.6-.414a1.1,1.1,0,0,1-.414-.69c0-.153.061-.169.184-.046a.824.824,0,0,0,.782.322q.782,0,5.8-.552a.7.7,0,0,0,.551-.368,8.322,8.322,0,0,1,.92.644c.154.123.23.23.23.322,0,.123-.108.184-.321.184s-.353.062-.414.184a11.075,11.075,0,0,1-6.946,6.486c-.154,0-.184-.061-.092-.184a11.045,11.045,0,0,0,6.439-6.67c.093-.214.031-.306-.183-.276Q340.419,938.209,336.739,938.714Z" fill="#000000"/><path d="M351.538,940.462a5.176,5.176,0,0,1,1.748.828q.69.552.69.92c0,.275-.108.414-.322.414-.123,0-.292-.139-.506-.414a5.884,5.884,0,0,0-3.082-1.84v5.106c0,.336-.077.5-.23.5-.184,0-.337-.137-.46-.414a1.382,1.382,0,0,1,.046-.92q.138-1.563.092-7.037a1.372,1.372,0,0,0-.138-.69.917.917,0,0,0-.644-.23c-.123-.061-.123-.122,0-.184a1.759,1.759,0,0,1,.874.046,3.224,3.224,0,0,1,.644.322q.276.184.276.368c0,.092-.062.154-.184.184a.218.218,0,0,0-.184.23,17.073,17.073,0,0,0-.092,2.53A9.864,9.864,0,0,1,351.538,940.462Z" fill="#000000"/><path d="M359.761,946.4c-.215.03-.262-.032-.139-.184a11.162,11.162,0,0,0,5.52-7.038q.137-.276-.092-.322-2.717.138-5.382.414v2.713c.061.523.016.783-.138.783a.4.4,0,0,1-.322-.184c-.184-.122-.229-.414-.138-.874v-2.162a2,2,0,0,0-.091-.69.44.44,0,0,0-.277-.23c-.275-.092-.229-.168.139-.23a1.09,1.09,0,0,1,.827.414q1.2-.091,2.347-.184v-1.334a.876.876,0,0,0-.092-.46.673.673,0,0,0-.461-.23c-.246-.03-.275-.107-.092-.23a2.073,2.073,0,0,1,1.473.277.266.266,0,0,1,.136.229c0,.062-.076.107-.23.138-.121.062-.184.246-.184.552v1.012q1.29-.045,2.485-.092a1.7,1.7,0,0,0,.414-.322c.275.246.506.46.689.644.155.123.231.23.231.322,0,.061-.108.077-.322.046-.092,0-.168.061-.231.184A10.808,10.808,0,0,1,359.761,946.4Z" fill="#000000"/><path d="M373.5,939.312c.245.123.476.246.69.368s.322.23.322.322c0,.123-.092.2-.276.229q-.046,1.382-.091,2.714c1.563-.029,2.513-.046,2.851-.046a1.266,1.266,0,0,0,.69-.275,2.2,2.2,0,0,1,.69.368c.245.184.368.338.368.46s-.108.153-.322.092a6.661,6.661,0,0,0-1.518-.185,24.406,24.406,0,0,0-6.256.369,1.393,1.393,0,0,0-.551.138.361.361,0,0,1-.323.138c-.091,0-.26-.108-.5-.322a1.715,1.715,0,0,1-.506-.69c0-.215.06-.245.183-.093a1.12,1.12,0,0,0,.828.323,32,32,0,0,0,3.865-.23v-2.484a2.048,2.048,0,0,0-.093-.644,1.287,1.287,0,0,0-.552-.506,14.341,14.341,0,0,0-2.023.322.808.808,0,0,1-.368.138q-.093,0-.46-.322a.993.993,0,0,1-.415-.69c.031-.153.077-.184.138-.092a.977.977,0,0,0,.874.414h.92q2.025-.183,4.37-.322c.245-.092.445-.168.6-.23a2.218,2.218,0,0,1,.644.368c.153.122.23.23.23.322s-.092.123-.276.092A15.783,15.783,0,0,0,373.5,939.312Z" fill="#000000"/><path d="M389.772,937.426q.416.414.415.552c0,.092-.078.138-.23.138a1.938,1.938,0,0,1-.368-.046q-1.012.645-3.68,2.161a6.907,6.907,0,0,1-3.634,5.336c-.214.062-.292.016-.23-.137a6.656,6.656,0,0,0,3.128-5.106q.138-.966-.414-1.1-.323-.091-.092-.184a1.533,1.533,0,0,1,1.1.322.46.46,0,0,1,.184.46,16.11,16.11,0,0,0,2.989-2.208,42.157,42.157,0,0,0-4.783.46,7.758,7.758,0,0,0-1.794.414.614.614,0,0,1-.368.138c-.092,0-.276-.122-.552-.368a1.113,1.113,0,0,1-.46-.736c0-.184.076-.23.23-.138q.276.461,1.2.414a20.54,20.54,0,0,0,2.069-.184,38.336,38.336,0,0,1,4.233-.276,3.323,3.323,0,0,0,.6-.368Z" fill="#000000"/><path d="M400.847,937.242a.445.445,0,0,1,.6,0c.337.246.522.384.552.414q.23.231-.092.322-2.851-.091-4.093,1.15a3.447,3.447,0,0,0-1.2,2.392,3.119,3.119,0,0,0,.92,2.3,3.213,3.213,0,0,0,2.208,1.013.736.736,0,0,1,.6.184.7.7,0,0,1,.183.414c0,.153-.123.23-.368.23a3.906,3.906,0,0,1-2.483-.967,3.7,3.7,0,0,1-1.427-3.035,4.059,4.059,0,0,1,1.794-3.174c.153-.122.153-.184,0-.184q-1.425.276-2.714.552a3.924,3.924,0,0,0-1.1.368.971.971,0,0,1-.552.138,1.066,1.066,0,0,1-.46-.23,1.166,1.166,0,0,1-.552-.782c.061-.214.122-.23.184-.046.153.276.474.4.966.368a7.073,7.073,0,0,0,1.242-.184q2.391-.414,4.783-.874A2.335,2.335,0,0,0,400.847,937.242Zm.367,3.91c-.184.062-.321-.015-.413-.23a2.976,2.976,0,0,0-1.2-1.288c-.061-.092-.045-.122.046-.092a3.115,3.115,0,0,1,1.38.6,1.107,1.107,0,0,1,.368.552Q401.49,941.061,401.214,941.152ZM400.8,938.9c-.063-.092-.047-.123.046-.092a3.135,3.135,0,0,1,1.38.6,1.127,1.127,0,0,1,.368.552c.06.246,0,.4-.185.46s-.322-.016-.414-.23A2.971,2.971,0,0,0,400.8,938.9Z" fill="#000000"/><path d="M406.217,938.3a1.536,1.536,0,0,0-.231.506,13.322,13.322,0,0,0-.92,4.048,2.445,2.445,0,0,0,.092.919c.062.093.122.078.185-.045q.505-1.288,1.057-2.392.231-.045.138.138a14.338,14.338,0,0,0-.735,2.116,3.8,3.8,0,0,0-.139.874c0,.338.016.675.046,1.012.03.306-.076.46-.321.46-.155,0-.277-.138-.368-.415a8.447,8.447,0,0,1-.323-2.851,15.6,15.6,0,0,1,.645-3.956,2.732,2.732,0,0,0,.092-.736.748.748,0,0,0-.552-.69q-.231-.091,0-.138a1.22,1.22,0,0,1,.689.184,6.766,6.766,0,0,1,.645.6A.231.231,0,0,1,406.217,938.3Zm5.7,5.842a1.506,1.506,0,0,1-.644,1.057,2.119,2.119,0,0,1-1.242.322,2.017,2.017,0,0,1-1.472-.459,1.015,1.015,0,0,1-.322-.736.763.763,0,0,1,.368-.6,2.52,2.52,0,0,1,1.426-.322,6.168,6.168,0,0,1,1.38.138q0-2.576-.092-3.956a19.867,19.867,0,0,1-2.76.23,1.04,1.04,0,0,1-.69-.23,2,2,0,0,1-.643-.874c-.032-.153.014-.184.137-.092a1.462,1.462,0,0,0,1.242.782,21.066,21.066,0,0,0,2.668-.23q-.046-1.149-.091-1.564-.048-.505-.874-.552c-.277,0-.292-.061-.047-.184a1.448,1.448,0,0,1,.736-.092,1.891,1.891,0,0,1,.874.322q.183.138-.046.368a.732.732,0,0,0-.092.46q0,.507.046,1.15a7.5,7.5,0,0,0,1.518-.276.418.418,0,0,1,.46,0,1.8,1.8,0,0,1,.322.23c.092.123.046.2-.138.23q-1.1.185-2.116.276.138,2.161.138,4.094,1.013.369,1.978.736a.415.415,0,0,1,.276.275.716.716,0,0,1,.046.415c-.062.184-.184.214-.368.091A11.073,11.073,0,0,0,411.92,944.142Zm-1.978-.414a1.779,1.779,0,0,0-1.242.322.442.442,0,0,0-.138.322.564.564,0,0,0,.138.414,1.619,1.619,0,0,0,1.2.413,1.43,1.43,0,0,0,1.012-.275,1.47,1.47,0,0,0,.46-.92A3.785,3.785,0,0,0,409.942,943.728Z" fill="#000000"/><path d="M419.728,938.484a4.361,4.361,0,0,0,1.839-.736,1.685,1.685,0,0,1,.645.138q.368.231-.322.46a10.762,10.762,0,0,1-2.208.506,14.624,14.624,0,0,0-.23,2.024,8.356,8.356,0,0,1,2.3-.552q.045-.459-.69-.553c-.124-.06-.108-.122.045-.183q1.426.091,1.381.736a3.654,3.654,0,0,1,2.53.781,2.261,2.261,0,0,1,.69,1.657,2.505,2.505,0,0,1-.828,1.794,6.054,6.054,0,0,1-2.944,1.471q-.322,0-.046-.183a6.932,6.932,0,0,0,2.345-1.334,2.457,2.457,0,0,0,.828-1.748,1.93,1.93,0,0,0-.551-1.426,3.058,3.058,0,0,0-2.116-.69,16.108,16.108,0,0,1-.829,1.61,8.56,8.56,0,0,1-1.149,1.563c.122.155.26.323.414.507a.26.26,0,0,1-.046.413c-.184.123-.368.063-.552-.183-.092-.122-.169-.23-.23-.323a6.533,6.533,0,0,1-1.2.966,1.967,1.967,0,0,1-1.2.322q-.921-.091-1.012-1.242a2.837,2.837,0,0,1,1.1-2.3,6.436,6.436,0,0,1,1.334-.919q0-.69.138-2.116-.645.093-1.242.138a.743.743,0,0,1-.644-.184,1.622,1.622,0,0,1-.46-.736c.03-.153.092-.168.184-.046a.951.951,0,0,0,.92.552,7.357,7.357,0,0,0,1.288-.092q.137-.92.184-1.7.046-.414-.6-.552c-.122,0-.122-.046,0-.137a2.452,2.452,0,0,1,1.1.229q.552.276.184.69A5.9,5.9,0,0,0,419.728,938.484Zm-1.794,3.818a2.829,2.829,0,0,0-.782,1.931q0,.923.552.966a1.641,1.641,0,0,0,1.058-.367,5.389,5.389,0,0,0,1.011-.874,4.978,4.978,0,0,1-.735-2.53A4.482,4.482,0,0,0,417.934,942.3Zm1.518-1.058a4.427,4.427,0,0,0,.736,2.3,9.425,9.425,0,0,0,.919-1.426,9.849,9.849,0,0,0,.6-1.472A7.451,7.451,0,0,0,419.452,941.244Z" fill="#000000"/><path d="M431.031,937.1a.411.411,0,0,1,0,.46,6.548,6.548,0,0,0-.46,1.84,5.818,5.818,0,0,0,0,1.794q.046.276.185.046a9.849,9.849,0,0,1,1.748-3.4,1.5,1.5,0,0,1,1.058-.506,1.122,1.122,0,0,1,.828.322,3.838,3.838,0,0,1,.735,2.714,5.488,5.488,0,0,1-1.241,4,6.253,6.253,0,0,1-2.807,1.609c-.215,0-.245-.061-.092-.183a5.637,5.637,0,0,0,2.3-1.472q1.2-1.2,1.2-4.048a4.016,4.016,0,0,0-.5-2.53.576.576,0,0,0-.414-.184,1.031,1.031,0,0,0-.691.368,9.482,9.482,0,0,0-1.563,3.173,3.659,3.659,0,0,0-.231,1.243c0,.368-.122.551-.367.551-.185,0-.322-.137-.414-.414a6.767,6.767,0,0,1-.276-2.115,16.555,16.555,0,0,1,.322-2.9.7.7,0,0,0-.368-.782c-.123-.092-.092-.138.091-.138A1.718,1.718,0,0,1,431.031,937.1Z" fill="#000000"/><path d="M444.911,938.576a11.642,11.642,0,0,0,1.794-.276,1.577,1.577,0,0,0,.644-.276.313.313,0,0,1,.414-.046,2.849,2.849,0,0,1,.368.276q.23.231-.138.322a19.887,19.887,0,0,1-3.082.46v2.024q.92-.091,1.426-.184a2.1,2.1,0,0,0,.828-.23.344.344,0,0,1,.414,0c.153.092.276.168.368.23.122.092.092.184-.092.276a1.957,1.957,0,0,1-.736.138q-1.2.138-2.208.184v2.162a14.4,14.4,0,0,1,3.174,1.011.653.653,0,0,1,.414.645.216.216,0,0,1-.184.229q-.138.047-.414-.137a10.908,10.908,0,0,0-2.99-1.288,1.6,1.6,0,0,1-.322,1.2,2.3,2.3,0,0,1-1.748.552,2.247,2.247,0,0,1-1.655-.552.881.881,0,0,1-.277-.645.831.831,0,0,1,.368-.689,3.393,3.393,0,0,1,2.024-.46c.215,0,.583.016,1.1.046V941.52c-.46.031-.935.045-1.426.045a2.231,2.231,0,0,1-1.15-.229,1.335,1.335,0,0,1-.46-1.288q.093-.183.231,0a1.246,1.246,0,0,0,.229.874,1.7,1.7,0,0,0,1.15.276,9.878,9.878,0,0,0,1.426-.093v-2.023a19.406,19.406,0,0,1-2.024.092,5.22,5.22,0,0,1-1.333-.138,2.194,2.194,0,0,1-1.151-.736q-.137-.276.138-.138a2.385,2.385,0,0,0,.966.552,7.4,7.4,0,0,0,1.519.092,13.309,13.309,0,0,0,1.885-.138v-.782a2.019,2.019,0,0,0-.137-.966.9.9,0,0,0-.783-.322c-.214.031-.23-.03-.046-.184a1.64,1.64,0,0,1,.6-.092,2.34,2.34,0,0,1,1.105.368c.213.122.213.276,0,.46a.843.843,0,0,0-.231.69Zm-1.886,5.243a3.052,3.052,0,0,0-1.334.231.708.708,0,0,0-.46.643.685.685,0,0,0,.46.6,2.353,2.353,0,0,0,1.058.229,1.854,1.854,0,0,0,1.288-.414,1.366,1.366,0,0,0,.322-1.149A12.756,12.756,0,0,0,443.025,943.819Z" fill="#000000"/><path d="M460.032,939.771q-1.149.048-1.84.093v1.7q0,1.564-.643,1.933-.46.276-.414-.092a.477.477,0,0,0-.277-.507q-.6-.367-1.333-.781c-.154-.122-.123-.169.092-.139q.735.277,1.426.553.368.138.506-.276a14.092,14.092,0,0,0,.092-2.3q-1.794.23-3.22.552v2.346a8.7,8.7,0,0,0,.138,1.334.952.952,0,0,0,.368.644,3.419,3.419,0,0,0,1.564.23,9.373,9.373,0,0,0,2.575-.276q.461-.139.645,0a1.627,1.627,0,0,1,.321.321c.154.215.093.337-.183.369s-1.472.045-3.588.045a2.578,2.578,0,0,1-1.794-.459,4.115,4.115,0,0,1-.6-2.714V940.6c-.276.062-.782.214-1.518.46a2.69,2.69,0,0,0-.552.23c-.123.092-.261.062-.414-.092q-.69-.644-.644-.92c0-.215.061-.245.184-.092a.9.9,0,0,0,.828.46,5.943,5.943,0,0,0,.92-.138q.645-.138,1.2-.277a11.563,11.563,0,0,0-.092-1.655.872.872,0,0,0-.874-.782q-.369,0,0-.184a2.416,2.416,0,0,1,1.61.414q.414.276.046.506a3.918,3.918,0,0,0-.138,1.564q1.794-.321,3.22-.506,0-1.747-.046-2.116c-.032-.276-.292-.475-.783-.6-.214,0-.229-.062-.045-.184a2.4,2.4,0,0,1,1.61.414q.368.276,0,.46-.185.093-.185,1.978a9.434,9.434,0,0,0,2.3-.46.447.447,0,0,1,.506.046q.505.322.552.368c.183.275.122.4-.185.368C460.691,939.8,460.247,939.771,460.032,939.771Z" fill="#000000"/><path d="M472.946,941.152c.092-.092.154-.076.184.046a6.925,6.925,0,0,1-1.747,3.4,2.769,2.769,0,0,1-1.979.919c-.766,0-1.195-.259-1.288-.782a11.364,11.364,0,0,1-.137-1.931q0-1.149-.875-1.15a2.455,2.455,0,0,0-1.656.874,11.927,11.927,0,0,0-1.609,2.9c-.031.153-.109.23-.231.23-.214,0-.321-.2-.321-.6a.594.594,0,0,1,.184-.506,3.617,3.617,0,0,0,.506-.783q1.656-2.99,2.805-5.565a2.178,2.178,0,0,0,.139-.644.877.877,0,0,0-.691-.874c-.123-.092-.091-.138.092-.138a1.639,1.639,0,0,1,1.38,1.012c.093.246.062.368-.092.368q-.875,1.564-2.345,4.324a2.826,2.826,0,0,1,1.839-.874,1.26,1.26,0,0,1,1.426,1.426,11.34,11.34,0,0,0,.092,1.564.648.648,0,0,0,.69.644A2.849,2.849,0,0,0,471.244,944,9.452,9.452,0,0,0,472.946,941.152Z" fill="#000000"/><path d="M192.728,962.193h8.509l.69-.689.874.643c.184.155.184.261,0,.323H192.728Zm1.1-6.991h6.21l.689-.69.874.644q.276.231,0,.322h-7.773Z" fill="#000000"/><path d="M205.181,960.216q-.047-.183-.413-.277l-.553-.091v-.184H205.5l2.438-5.152q.23-.229.23.046l-2.162,5.244a2.938,2.938,0,0,0-.092,1.656,3.834,3.834,0,0,1,.092.92q0,.552-.506.552c-.368,0-.491-.323-.368-.966A3.739,3.739,0,0,0,205.181,960.216Zm-.736-5.566c-.153-.122-.108-.169.138-.138q1.84.552,1.84,1.61,0,.323-.368.322c-.154,0-.291-.138-.414-.414A3.168,3.168,0,0,0,204.445,954.65Zm.828,9.337c-.214,0-.246-.061-.092-.183a5.874,5.874,0,0,0,4.784-6.118v-1.058h-.874a10.47,10.47,0,0,1-2.116,2.99c-.184.092-.215.03-.092-.184a15.476,15.476,0,0,0,2.576-5.888l.828.276q.6.138-.276.46a19.761,19.761,0,0,1-.782,2.07h3.5l.506-.506,1.058.874q.23.231-.138.276a1.209,1.209,0,0,0-.874.184l-1.1,1.1c-.154.092-.2.062-.138-.092l.782-1.564h-2.254v1.242a6.476,6.476,0,0,0,4.278,5.106,1.083,1.083,0,0,0-.92.644,7.442,7.442,0,0,1-3.4-5.015,5.712,5.712,0,0,1-1.564,3.588A6.938,6.938,0,0,1,205.273,963.987Z" fill="#000000"/><path d="M215.841,954.328h4.094l.6-.6.736.552q.276.231,0,.322h-1.978v2.07h.782l.276-.368.644.46c.184.154.122.261-.184.322v6.256q-.6.552-.6.046v-.46h-3.5v.6q-.6.553-.6.046v-7.359l.69.46h.782V954.6h-1.748Zm2.944,2.622h-.69v1.012a2.241,2.241,0,0,1-1.38,2.116v.69h3.5v-1.38h-.874a.488.488,0,0,1-.552-.552Zm-1.2,0h-.874V959.8q.781-.367.874-1.84Zm-.874,5.7h3.5v-1.609h-3.5Zm2.07-8.049h-.69v2.07h.69Zm1.426,4.324V956.95h-.92v1.794a.162.162,0,0,0,.184.184Zm2.208,3.634a.162.162,0,0,0,.184.184h2.76q.459,0,.506-.322l.276-1.426c.061-.061.106-.061.138,0v1.426a.329.329,0,0,0,.184.322q.321.138,0,.414a1.437,1.437,0,0,1-.828.138h-3.266a.488.488,0,0,1-.552-.552v-5.06l.69.414h2.53v-3.5h-3.082v-.276H224.9l.276-.368.644.46q.274.231-.184.322v4.186q-.6.552-.6.046v-.6h-2.622Z" fill="#000000"/><path d="M227.329,960.952a12.45,12.45,0,0,0,4-5.06H227.6v-.276h3.818a11.928,11.928,0,0,0,.737-2.162l.827.368c.277.123.169.261-.321.414a14.453,14.453,0,0,1-.6,1.38h4.416l.69-.69.828.644q.276.231,0,.322h-6.071a11.7,11.7,0,0,1-1.012,1.794l.229.322h2.07V956.4l.783.138q.368.23-.185.322v1.15h2.346l.277-.368.643.46c.184.154.123.26-.184.322v3.588a.973.973,0,0,1-.322.782.623.623,0,0,1-.46.184.162.162,0,0,1-.184-.184c0-.153-.092-.261-.276-.322l-.6-.138c-.122-.061-.122-.122,0-.185h.921a.284.284,0,0,0,.321-.321v-3.542h-2.484v5.243q-.6.553-.6.046v-5.289h-2.161v4.646c-.4.368-.6.382-.6.046v-4.554a11.134,11.134,0,0,1-3.036,2.714C227.267,961.136,227.237,961.074,227.329,960.952Z" fill="#000000"/><path d="M245.763,958.7a1,1,0,0,1-.276.736,1.07,1.07,0,0,1-.782.322.991.991,0,0,1-.736-.277,1.059,1.059,0,0,1-.323-.781,1,1,0,0,1,.277-.736,1.066,1.066,0,0,1,.782-.322.988.988,0,0,1,.735.276A1.066,1.066,0,0,1,245.763,958.7Z" fill="#000000"/><path d="M260.01,960.538a.309.309,0,0,1,.138.275q0,.186-.276.093a15.343,15.343,0,0,0-5.06.092,3.814,3.814,0,0,0-.966.23.4.4,0,0,1-.276.138c-.061,0-.169-.076-.321-.23-.4-.4-.583-.72-.553-.966,0-.153.061-.168.184-.046a.844.844,0,0,0,.828.46q1.013,0,1.426-.046,1.472-.139,3.634-.276.276-1.656.46-3.45-2.945.231-4.14.322a2.51,2.51,0,0,0-.874.137c-.123.124-.214.185-.276.185a.671.671,0,0,1-.368-.185q-.69-.6-.644-.965c0-.153.062-.168.184-.046a1.138,1.138,0,0,0,.736.414q.6,0,1.381-.046,1.379-.093,3.863-.184l.322-.322a5.93,5.93,0,0,1,.782.46.271.271,0,0,1,.138.23c0,.062-.077.108-.23.138s-.246.092-.276.184q-.276,1.518-.552,2.99A1.713,1.713,0,0,1,260.01,960.538Z" fill="#000000"/><path d="M269.8,956.858q.23-.229-.276-.506c-.092-.061-.062-.107.092-.138a1.915,1.915,0,0,1,1.058.46c.306.246.46.414.46.506s-.123.123-.368.091c-.246.063-.476.124-.69.185a21.707,21.707,0,0,1-4,.966v2.668a.65.65,0,0,0,.736.736h1.932a8.039,8.039,0,0,0,1.334-.23,3.434,3.434,0,0,1,.414-.184,1.007,1.007,0,0,1,.414.184c.214.123.322.26.322.414,0,.092-.092.137-.276.137-.184.032-.476.063-.874.092q-.552.048-1.288.093h-2.07q-1.2,0-1.2-1.15v-5.428q0-.459-.736-.6-.276-.091,0-.23a2.035,2.035,0,0,1,.828.092,1.725,1.725,0,0,1,.782.414.378.378,0,0,1,.138.23c0,.062-.062.108-.184.138q-.231.047-.276.644V958.1A15.494,15.494,0,0,0,269.8,956.858Zm1.61-.92a1.226,1.226,0,1,1,.828.322A1.117,1.117,0,0,1,271.406,955.938Zm1.426-.184a.889.889,0,0,0,0-1.288.892.892,0,0,0-1.2,0,.889.889,0,0,0,0,1.288.892.892,0,0,0,1.2,0Z" fill="#000000"/><path d="M279.95,958.7q-1.288.047-2.76.138a2.417,2.417,0,0,0-.92.138.5.5,0,0,1-.322.184c-.031,0-.138-.093-.322-.276a2.388,2.388,0,0,1-.46-.6,1.549,1.549,0,0,1-.184-.874c.061-.122.122-.139.184-.046a1.359,1.359,0,0,0,.506.782,1.657,1.657,0,0,0,.736.138q1.38,0,3.726-.046t2.944-.092a1.249,1.249,0,0,0,.6-.138.4.4,0,0,1,.277-.138,1.016,1.016,0,0,1,.736.322,1.62,1.62,0,0,1,.321.368c.061.184-.03.26-.276.23a7.6,7.6,0,0,0-1.15-.092Q281.559,958.653,279.95,958.7Z" fill="#000000"/><path d="M292.817,958.7a1,1,0,0,1-.275.736,1.073,1.073,0,0,1-.783.322.994.994,0,0,1-.736-.277,1.062,1.062,0,0,1-.322-.781.992.992,0,0,1,.277-.736,1.063,1.063,0,0,1,.781-.322.99.99,0,0,1,.736.276A1.069,1.069,0,0,1,292.817,958.7Z" fill="#000000"/><path d="M303.431,958.238q-.046-.185-.368-.276-.276-.138.046-.184a1.185,1.185,0,0,1,.736.184,13.926,13.926,0,0,0,1.978-1.7q.092-.138-.138-.138-3.267.507-3.68.644a2.287,2.287,0,0,0-.736.276.27.27,0,0,1-.23.138q-.231,0-.736-.506a1.27,1.27,0,0,1-.322-.644c0-.153.061-.184.184-.092a.971.971,0,0,0,.966.46,9.618,9.618,0,0,0,1.61-.23q1.058-.138,3.266-.46a1.611,1.611,0,0,0,.322-.322,3.886,3.886,0,0,1,.644.506c.214.184.322.307.322.368,0,.154-.077.215-.23.184a.93.93,0,0,0-.6.184,19.079,19.079,0,0,1-2.116,1.7q.368.184-.23.322v3.726a7.757,7.757,0,0,0,.092,1.195q.045.278-.276.277a.418.418,0,0,1-.368-.23.952.952,0,0,1-.184-.368,2.508,2.508,0,0,0,.138-.6v-3.817a20.9,20.9,0,0,1-5.152,2.53c-.154-.03-.169-.093-.046-.184A24.243,24.243,0,0,0,303.431,958.238Zm-1.012-4.922a3.847,3.847,0,0,1,1.656.829,1.05,1.05,0,0,1,.414.781c0,.429-.108.644-.322.644-.184,0-.338-.23-.46-.69a2.776,2.776,0,0,0-.506-.735,3.846,3.846,0,0,0-.92-.691Q302.143,953.316,302.419,953.316Zm2.392,5.52a5.911,5.911,0,0,1,1.656.46,4.264,4.264,0,0,1,1.2.782,1.16,1.16,0,0,1,.414.781.326.326,0,0,1-.368.369c-.092,0-.246-.154-.46-.46a6.33,6.33,0,0,0-2.438-1.794Q304.626,958.882,304.811,958.836Z" fill="#000000"/><path d="M313.125,959.618a2.96,2.96,0,0,0-.322-.69,3.28,3.28,0,0,0-.874-.828c-.062-.061-.046-.107.046-.138a3.13,3.13,0,0,1,.828.368,3.413,3.413,0,0,1,.6.46.849.849,0,0,1,.322.689c-.031.247-.123.369-.276.369A.326.326,0,0,1,313.125,959.618Zm5.474-2.162c.428.275.644.506.644.69,0,.062-.077.092-.23.092s-.277.108-.368.322a9.765,9.765,0,0,1-6.118,5.29c-.184,0-.215-.078-.092-.23a9.37,9.37,0,0,0,5.75-5.75c.061-.184-.062-.352-.369-.506q-.183-.091.093-.138A1.544,1.544,0,0,1,318.6,957.456Zm-3.128,1.518a.328.328,0,0,1-.323-.23,3.9,3.9,0,0,0-.505-.92,4.648,4.648,0,0,0-.736-.553c-.092-.091-.077-.137.046-.137a2.84,2.84,0,0,1,1.1.46,1.291,1.291,0,0,1,.69,1.058C315.747,958.867,315.655,958.974,315.471,958.974Z" fill="#000000"/><path d="M328.246,957.962a5.176,5.176,0,0,1,1.748.828q.69.552.69.92c0,.275-.108.414-.322.414-.123,0-.292-.139-.506-.414a5.884,5.884,0,0,0-3.082-1.84v5.106c0,.336-.077.5-.23.5-.184,0-.337-.137-.46-.414a1.382,1.382,0,0,1,.046-.92q.138-1.563.092-7.037a1.372,1.372,0,0,0-.138-.69.917.917,0,0,0-.644-.23c-.123-.061-.123-.122,0-.184a1.759,1.759,0,0,1,.874.046,3.224,3.224,0,0,1,.644.322q.276.184.276.368c0,.092-.062.154-.184.184a.218.218,0,0,0-.184.23,17.073,17.073,0,0,0-.092,2.53A9.864,9.864,0,0,1,328.246,957.962Z" fill="#000000"/><path d="M341.758,954.65q.552.369.92.644c.122.092.184.169.184.23s-.062.108-.184.138c-.246.062-.368.138-.368.23a8.246,8.246,0,0,1-6.486,7.038c-.215,0-.246-.062-.092-.184q5.427-2.115,5.888-7.222a.122.122,0,0,0-.138-.138q-2.484.185-4.738.368a.612.612,0,0,1-.368-.138q-.046.828.046,3.358c0,.338-.062.5-.184.5-.092,0-.2-.076-.322-.229a.8.8,0,0,1-.23-.414,3.457,3.457,0,0,1,.092-.506v-2.254a1.086,1.086,0,0,0-.23-.782.927.927,0,0,0-.552-.23c-.123-.061-.123-.123,0-.184a1.644,1.644,0,0,1,1.426.506q2.484-.183,5.06-.414A2.97,2.97,0,0,0,341.758,954.65Z" fill="#000000"/><path d="M350.532,958.7q-1.288.047-2.76.138a2.417,2.417,0,0,0-.92.138.5.5,0,0,1-.322.184c-.031,0-.138-.093-.322-.276a2.388,2.388,0,0,1-.46-.6,1.549,1.549,0,0,1-.184-.874c.061-.122.122-.139.184-.046a1.359,1.359,0,0,0,.506.782,1.657,1.657,0,0,0,.736.138q1.38,0,3.726-.046t2.944-.092a1.249,1.249,0,0,0,.6-.138.4.4,0,0,1,.277-.138,1.016,1.016,0,0,1,.736.322,1.62,1.62,0,0,1,.321.368c.061.184-.03.26-.276.23a7.589,7.589,0,0,0-1.149-.092Q352.141,958.653,350.532,958.7Z" fill="#000000"/><path d="M361.974,955.938q.781,0,2.437-.138a3.947,3.947,0,0,0,.414-.368l.69.46c.154.123.23.23.23.322s-.092.138-.275.138a.3.3,0,0,0-.369.23,11.724,11.724,0,0,1-6.578,6.716c-.183,0-.214-.062-.091-.185a12.077,12.077,0,0,0,6.026-6.945q-1.473.046-2.668.092a8.381,8.381,0,0,1-3.45,3.312c-.154,0-.184-.061-.092-.184a8.983,8.983,0,0,0,3.265-4,1,1,0,0,0,.091-.69.618.618,0,0,0-.413-.276c-.123-.061-.123-.122,0-.184.185-.061.49.031.921.276.336.184.506.338.506.46,0,.092-.078.138-.23.138-.063,0-.108.062-.139.184Z" fill="#000000"/><path d="M370.011,959.02c.214-.184.46-.415.736-.69q1.149-1.151,1.426-1.426a.9.9,0,0,1,.6-.322,1.581,1.581,0,0,1,.736.276q3.357,2.117,4,2.438l1.655.828a.563.563,0,0,1,.322.506c0,.183-.077.276-.23.276a1.428,1.428,0,0,1-.6-.184q-.369-.183-1.886-1.2-1.378-.918-3.219-2.207a1.47,1.47,0,0,0-.782-.322c-.124,0-.338.169-.644.506q-.921,1.059-1.426,1.563-.461.462-.461.645c0,.123-.076.184-.229.184a1.787,1.787,0,0,1-.506-.138,1.132,1.132,0,0,1-.46-.322,1.043,1.043,0,0,1-.322-.6c.03-.153.076-.184.137-.092a1.134,1.134,0,0,0,.691.414A.636.636,0,0,0,370.011,959.02Z" fill="#000000"/><path d="M386.191,955.984q.321.322-.138.414a20.575,20.575,0,0,1-2.254,4.83,2.447,2.447,0,0,1-.6.644c-.338.245-.567.215-.689-.093a1.414,1.414,0,0,1-.874-.689,3,3,0,0,1-.368-1.518,4.044,4.044,0,0,1,1.149-2.99,5.013,5.013,0,0,1,3.681-1.518,4.853,4.853,0,0,1,3.587,1.288,3.121,3.121,0,0,1,.92,2.3,3.2,3.2,0,0,1-.874,2.207,6.2,6.2,0,0,1-3.726,1.794c-.123-.06-.123-.122,0-.183a5.874,5.874,0,0,0,3.174-1.794,3.115,3.115,0,0,0,.736-2.071,2.9,2.9,0,0,0-.644-1.977,4.313,4.313,0,0,0-3.864-1.242A3.561,3.561,0,0,1,386.191,955.984Zm-.828.276a.725.725,0,0,0-.23-.828,3.745,3.745,0,0,0-2.115,1.1,3.842,3.842,0,0,0-1.2,2.806,2.668,2.668,0,0,0,.506,1.886.66.66,0,0,0,.46.23.755.755,0,0,0,.46-.276A16.865,16.865,0,0,0,385.363,956.26Z" fill="#000000"/><path d="M394.965,956.444h1.15l.276-.368.644.46c.184.153.122.261-.184.322v3.127q-.6.554-.6.047v-.184h-1.288v1.242h1.38l.6-.6.736.552c.184.153.184.261,0,.322h-2.714v2.3q-.6.55-.6.046v-2.346H392.3v-.276h2.07v-1.242h-1.15v.414q-.6.552-.6.046v-4.14l.69.276h1.058v-1.2h-1.886v-.276h1.886v-1.656l.782.138q.369.231-.184.322v1.2h1.242l.6-.6.736.552q.276.231,0,.322h-2.576Zm-.6.276h-1.15v1.242h1.15Zm-1.15,1.518v1.334h1.15v-1.334Zm1.748-.276h1.288V956.72h-1.288Zm0,1.61h1.288v-1.334h-1.288ZM402.6,963.3q-.276,0-.323-.506l-.183-.782q-2.348.507-4.784.874-.185.919-.506.229l-.414-.781q.552,0,1.472-.046l1.15-3.956h-1.426v-.276h3.91l.69-.69.874.644q.275.231,0,.322h-3.588l.276.138q.276.231-.185.322l-1.471,3.5q2.022-.184,3.91-.507a6.261,6.261,0,0,0-1.242-1.931q-.138-.231.137-.138,2.07,1.518,2.071,2.852C402.969,963.052,402.846,963.3,402.6,963.3Zm-4.554-8.418H400.9l.691-.69.874.644q.274.231,0,.322h-4.416Z" fill="#000000"/><path d="M412.248,961.412a4.208,4.208,0,0,0,1.013,1.1c.4.306.674.292.827-.046l.46-1.012q.184-.23.184,0l-.414,1.38a.674.674,0,0,0,.138.414.566.566,0,0,1,.139.321c0,.093-.123.139-.368.139a2.108,2.108,0,0,1-1.1-.506,5.509,5.509,0,0,1-1.241-1.288,10.737,10.737,0,0,1-2.761,2.115c-.245.093-.291.03-.138-.183a10.346,10.346,0,0,0,2.622-2.438,12.705,12.705,0,0,1-.874-4.646h-3.082v1.058h1.334l.506-.506.645.46q.274.231,0,.322h-2.485v.782h1.426l.277-.368.643.46c.185.154.122.26-.183.322v1.977c-.4.369-.6.384-.6.046v-.183h-1.565v.736h1.84l.506-.506.645.46c.183.153.183.261,0,.321h-2.991V963.8q-.6.552-.6.046v-1.7h-2.945v-.275h2.945v-.736h-1.519v.23c-.4.367-.6.384-.6.046V958.56l.69.322h1.426V958.1h-2.806v-.276h2.806v-1.058h-3.082v-.276h3.082v-1.15h-2.162v-.276h2.162v-1.7l.782.138q.367.231-.185.322v1.242H408.8l.6-.6.737.552q.274.231,0,.322h-2.485v1.15h3.082v-3.036l.783.138q.368.231-.185.322v2.576h1.84l.69-.69.874.644q.276.231,0,.322h-3.4a12.083,12.083,0,0,0,.645,4.047,11.559,11.559,0,0,0,1.1-3.082l.874.415q.277.231-.368.276A11.442,11.442,0,0,1,412.248,961.412Zm-5.2-1.564v-.69h-1.519v.69Zm0,.276h-1.519v.735h1.519Zm.6-.966v.69h1.565v-.69Zm1.565.966h-1.565v.735h1.565Zm4.415-4.692c0,.184-.076.276-.23.276s-.306-.138-.46-.414a3.787,3.787,0,0,0-.874-.874c-.091-.092-.061-.138.092-.138a2.738,2.738,0,0,1,1.2.552A.839.839,0,0,1,413.628,955.432Z" fill="#000000"/><path d="M419.55,956.628q-1.794,4.093-2.207,4.784-.277.461-.507.23a.7.7,0,0,1-.184-.369.736.736,0,0,1,.231-.643,4.058,4.058,0,0,0,.6-.782q.6-1.011,1.564-3.128a8.554,8.554,0,0,0-1.195.276q-.322.185-.506,0c-.4-.4-.583-.69-.553-.874q0-.229.185,0a.784.784,0,0,0,.782.368,5.179,5.179,0,0,0,1.426-.184,7.423,7.423,0,0,0,.6-1.932c.031-.306-.169-.506-.6-.6q-.232-.091,0-.184a1.592,1.592,0,0,1,.827.138,1.75,1.75,0,0,1,.552.368c.184.184.168.338-.045.46a5.111,5.111,0,0,0-.829,1.656,3,3,0,0,0,1.15-.506c.215-.153.4-.107.553.138q.183.322-.185.414Q420.424,956.445,419.55,956.628Zm4.922,1.15a2.607,2.607,0,0,0-1.518.414.8.8,0,0,0-.276.782q.091,1.334.23,2.392a8.469,8.469,0,0,1,2.484.827c.123.093.169.292.138.6q-.046.413-.46.138a11.869,11.869,0,0,0-2.116-1.1,1.612,1.612,0,0,1-.552,1.38,1.837,1.837,0,0,1-1.15.321,1.61,1.61,0,0,1-1.195-.414,1.032,1.032,0,0,1,.137-1.609,2.357,2.357,0,0,1,1.288-.276q.414,0,.874.045-.184-1.655-.184-2.253a1.188,1.188,0,0,1,.782-1.2,3.872,3.872,0,0,1,1.472-.322c.276,0,.352-.092.23-.276a4.462,4.462,0,0,0-2.07-1.472c-.123-.061-.107-.108.046-.138a4.977,4.977,0,0,1,2.806,1.38,1.428,1.428,0,0,1,.506.966c0,.246-.077.368-.23.368a.309.309,0,0,1-.23-.092A1.41,1.41,0,0,0,424.472,957.778Zm-3.128,3.726a1.673,1.673,0,0,0-.966.229.707.707,0,0,0-.321.6.788.788,0,0,0,.183.506,1.277,1.277,0,0,0,1.012.368,1.1,1.1,0,0,0,.644-.139,1.515,1.515,0,0,0,.46-1.379A2.932,2.932,0,0,0,421.344,961.5Z" fill="#000000"/><path d="M430.164,962.562a1.581,1.581,0,0,1-.506-1.15,1.979,1.979,0,0,1,.736-1.427,8.809,8.809,0,0,1,1.84-1.287,2.747,2.747,0,0,1-.552-1.84,14.036,14.036,0,0,0-.092-2.346.654.654,0,0,0-.644-.46c-.123-.061-.123-.122,0-.184a1.879,1.879,0,0,1,1.426.414q.229.184.046.368a.8.8,0,0,0-.138.552v2.392c0,.521.076.844.23.966a24.958,24.958,0,0,1,2.668-.966q.368-.091.137-.46a1,1,0,0,0-.321-.276c-.123-.061-.108-.107.046-.138a1.092,1.092,0,0,1,.828.414,1.238,1.238,0,0,1,.321.69c0,.154-.123.23-.368.23a15.638,15.638,0,0,0-3.5,1.1,6.306,6.306,0,0,0-1.886,1.287,1.392,1.392,0,0,0-.414.921q0,.966,1.15,1.287a9.3,9.3,0,0,0,2.024.139,6.666,6.666,0,0,0,1.886-.185q.505-.183.735,0a.4.4,0,0,1,.185.323c0,.122-.092.2-.277.23a22.367,22.367,0,0,1-3.082.138A3.435,3.435,0,0,1,430.164,962.562Zm6.624-6.026q-.276.093-.414-.23a2.973,2.973,0,0,0-1.2-1.288c-.062-.092-.046-.122.046-.092a3.125,3.125,0,0,1,1.38.6,1.113,1.113,0,0,1,.368.552Q437.064,956.445,436.788,956.536Zm-.6-2.53c-.061-.092-.045-.122.046-.092a3.115,3.115,0,0,1,1.38.6,1.1,1.1,0,0,1,.368.552c.062.246,0,.4-.183.46s-.322-.015-.414-.23A2.982,2.982,0,0,0,436.189,954.006Z" fill="#000000"/><path d="M445.01,955.984q.321.322-.139.414a20.534,20.534,0,0,1-2.254,4.83,2.445,2.445,0,0,1-.6.644c-.338.245-.568.215-.69-.093a1.42,1.42,0,0,1-.874-.689,3,3,0,0,1-.368-1.518,4.048,4.048,0,0,1,1.149-2.99,5.014,5.014,0,0,1,3.681-1.518,4.853,4.853,0,0,1,3.587,1.288,3.122,3.122,0,0,1,.921,2.3,3.2,3.2,0,0,1-.874,2.207,6.2,6.2,0,0,1-3.727,1.794c-.123-.06-.123-.122,0-.183A5.87,5.87,0,0,0,448,960.676a3.115,3.115,0,0,0,.736-2.071,2.9,2.9,0,0,0-.643-1.977,4.315,4.315,0,0,0-3.864-1.242A3.584,3.584,0,0,1,445.01,955.984Zm-.828.276a.727.727,0,0,0-.231-.828,3.745,3.745,0,0,0-2.115,1.1,3.841,3.841,0,0,0-1.2,2.806,2.668,2.668,0,0,0,.506,1.886.658.658,0,0,0,.459.23.75.75,0,0,0,.46-.276A16.892,16.892,0,0,0,444.182,956.26Z" fill="#000000"/><path d="M455.9,956.352h-3.956v-.276h4.094a18.447,18.447,0,0,0,1.288-2.622l.92.46q.276.276-.552.231a18.81,18.81,0,0,1-1.011,1.931H458.2l.368-.368.6.6c.184.154.076.246-.322.276l-.23,1.2h.69l.368-.368.644.644c.123.215,0,.306-.368.276l-.23,1.149h.736l.368-.367.6.6c.153.153.061.246-.276.275q-.322,3.084-1.288,3.727a1.414,1.414,0,0,1-.552.229c-.122.062-.23,0-.322-.183v-.231c-.062-.153-.414-.338-1.058-.551-.092-.122-.062-.184.093-.184l1.149.229a.82.82,0,0,0,.552-.137q.644-.552.828-3.128h-6.67a9.775,9.775,0,0,1-2.668,1.886c-.153,0-.184-.061-.092-.184A13.508,13.508,0,0,0,455.9,956.352Zm-2.53,4.876a2.538,2.538,0,0,1-.138,1.518c-.306.552-.614.766-.919.644-.092-.032-.138-.138-.138-.323,0-.123.122-.259.367-.414a2.142,2.142,0,0,0,.645-1.425A.114.114,0,0,1,453.369,961.228Zm-.138-7.82a3.54,3.54,0,0,1,1.472.966,1.23,1.23,0,0,1,.322.828c0,.246-.108.368-.322.368-.153,0-.292-.184-.414-.552a3.246,3.246,0,0,0-1.149-1.472C453.048,953.424,453.077,953.378,453.231,953.408Zm.92,6.071h4.968l.277-1.425h-4A10.343,10.343,0,0,1,454.151,959.479Zm.828,3.634c-.184,0-.276-.2-.276-.6a2.172,2.172,0,0,0-.275-1.518c-.032-.153.014-.185.137-.092a2.178,2.178,0,0,1,.829,1.747C455.394,962.96,455.255,963.113,454.979,963.113Zm1.564-6.761a12.849,12.849,0,0,1-.966,1.426h2.439l.275-1.426Zm-.644,4.507c-.154-.091-.137-.152.046-.183q1.38.6,1.38,1.471a.244.244,0,0,1-.276.277c-.153,0-.261-.108-.321-.322A2.482,2.482,0,0,0,455.9,960.859Zm1.426-.275c-.092-.122-.061-.185.092-.185,1.073.247,1.61.629,1.61,1.151q0,.414-.23.414c-.153,0-.276-.108-.368-.322A2.462,2.462,0,0,0,457.325,960.584Z" fill="#000000"/><path d="M472.769,957.5c.122.092.184.169.184.229,0,.093-.062.169-.184.231q-1.013.322-4,1.656v1.932q0,.414-.369.414-.183,0-.183-.276v-1.794a6.639,6.639,0,0,0-2.024,1.334,1.162,1.162,0,0,0-.414.782.755.755,0,0,0,.23.552,2.963,2.963,0,0,0,1.931.414,11.7,11.7,0,0,0,2.531-.23,1.377,1.377,0,0,1,.506-.139c.337,0,.5.155.5.46,0,.122-.091.2-.275.231a16.121,16.121,0,0,1-3.036.183,3.466,3.466,0,0,1-2.392-.6,1.1,1.1,0,0,1-.368-.782,1.626,1.626,0,0,1,.552-1.15,9.2,9.2,0,0,1,2.254-1.518,1.459,1.459,0,0,0-.322-1.058.825.825,0,0,0-.6-.184q-1.151,0-2.76,1.978a.4.4,0,0,1-.276.138c-.154,0-.23-.138-.23-.414s.061-.445.184-.506a2.545,2.545,0,0,0,.736-.6,12.081,12.081,0,0,0,1.794-2.53c-.246.031-.6.062-1.058.092a5.219,5.219,0,0,1-.644.046q-.185,0-.506-.322a.7.7,0,0,1-.276-.552c.061-.123.122-.107.184.046a1.183,1.183,0,0,0,1.058.414,10.041,10.041,0,0,0,1.426-.092,3.355,3.355,0,0,0,.414-1.1q.091-.643-.69-.782c-.214-.03-.23-.092-.047-.184a2.353,2.353,0,0,1,1.657.506c.153.123.137.261-.046.414a5.128,5.128,0,0,0-.782,1.15,7.827,7.827,0,0,0,1.656-.46.785.785,0,0,1,.368-.138.5.5,0,0,1,.322.184c.061.031.092.108.092.23,0,.092-.092.154-.276.184q-1.106.184-2.346.368-.6.921-1.242,1.84c-.092.154-.062.2.092.138a2.909,2.909,0,0,1,1.242-.368,1.316,1.316,0,0,1,.966.322,1.557,1.557,0,0,1,.46,1.012q2.3-1.1,2.944-1.473c.153-.06.184-.137.092-.229a2.079,2.079,0,0,0-.644-.276q-.276-.092,0-.184A2.9,2.9,0,0,1,472.769,957.5Z" fill="#000000"/><path d="M477.265,956.352a7.258,7.258,0,0,1-2.577,2.3q-.321.093-.137-.138a8.412,8.412,0,0,0,2.576-3.082h-2.208v-.276h2.346v-1.84l.782.138q.367.231-.185.322v1.38h.645l.6-.6.737.552q.274.231,0,.322h-1.979v.736q1.747.369,1.748.874a.243.243,0,0,1-.275.276.5.5,0,0,1-.322-.184,4.063,4.063,0,0,0-1.151-.782v2.07q-.6.552-.6.046Zm-2.392,7.406a8.044,8.044,0,0,0,2.622-2.439l.827.553c.185.245,0,.321-.551.23a10.183,10.183,0,0,1-2.806,1.794Q474.6,963.988,474.873,963.758Zm5.7-2.852v2.161a.978.978,0,0,1-.321.783.626.626,0,0,1-.46.183.163.163,0,0,1-.185-.183c0-.154-.091-.261-.275-.323l-.6-.137c-.123-.062-.123-.123,0-.184h.92a.285.285,0,0,0,.323-.322v-1.978h-4.968v-.276h8.924l.6-.6.737.552c.183.153.183.261,0,.322Zm-3.725-1.748h5.473l.6-.6.735.552q.278.231,0,.322h-6.807Zm5.75-3.726a8.466,8.466,0,0,0,2.851,2.392,1.175,1.175,0,0,0-.689.506,10.348,10.348,0,0,1-2.3-2.76v2.714q-.6.552-.6.046v-2.162a8.589,8.589,0,0,1-2.529,2.024c-.246.062-.292,0-.139-.184a9.5,9.5,0,0,0,2.531-2.576h-1.472v-.276h1.609v-1.794l.782.138c.246.154.184.261-.183.322v1.334h1.38l.6-.6.737.552q.274.231,0,.322Zm2.023,8.1c-.123,0-.275-.107-.46-.321a6.5,6.5,0,0,0-2.254-1.518c-.183-.123-.169-.184.046-.184q2.99.781,2.99,1.609C484.946,963.39,484.839,963.527,484.624,963.527Z" fill="#000000"/><path d="M489.534,956.9q0-.735.046-1.518c.03-.521-.245-.8-.828-.828q-.276-.091-.046-.184a3.186,3.186,0,0,1,.506-.046,1.905,1.905,0,0,1,1.15.46q.183.138,0,.414a1.831,1.831,0,0,0-.183.552,4.639,4.639,0,0,0-.093,1.012v4.186a1.807,1.807,0,0,0,.276,1.15,1.787,1.787,0,0,0,1.38.46,4.824,4.824,0,0,0,2.346-.552,14.283,14.283,0,0,0,2.438-1.748c.122-.061.168-.031.138.092a9.2,9.2,0,0,1-2.484,2.162,5.058,5.058,0,0,1-2.53.6,2.149,2.149,0,0,1-1.656-.643,2.12,2.12,0,0,1-.46-1.472Zm4-.276c-.183.061-.322-.015-.414-.23a2.973,2.973,0,0,0-1.2-1.288c-.062-.092-.046-.122.047-.092a3.135,3.135,0,0,1,1.38.6,1.118,1.118,0,0,1,.367.552C493.781,956.414,493.72,956.566,493.536,956.628Zm-.322-2.346c-.062-.092-.046-.122.046-.092a3.113,3.113,0,0,1,1.38.6,1.109,1.109,0,0,1,.368.552q.092.369-.184.46t-.414-.23A2.979,2.979,0,0,0,493.214,954.282Z" fill="#000000"/><path d="M503.966,956.076a11.642,11.642,0,0,0,1.794-.276,1.567,1.567,0,0,0,.643-.276.313.313,0,0,1,.414-.046,2.808,2.808,0,0,1,.369.276q.23.231-.138.322a19.906,19.906,0,0,1-3.082.46v2.024q.919-.091,1.426-.184a2.106,2.106,0,0,0,.828-.23.344.344,0,0,1,.414,0c.153.092.276.168.368.23.122.092.092.184-.092.276a1.967,1.967,0,0,1-.736.138q-1.2.138-2.208.184v2.162a14.4,14.4,0,0,1,3.174,1.011.653.653,0,0,1,.414.645.216.216,0,0,1-.184.229c-.093.031-.23-.015-.414-.137a10.934,10.934,0,0,0-2.99-1.288,1.6,1.6,0,0,1-.322,1.2,2.3,2.3,0,0,1-1.748.552,2.249,2.249,0,0,1-1.656-.552.884.884,0,0,1-.276-.645.831.831,0,0,1,.368-.689,3.387,3.387,0,0,1,2.023-.46c.215,0,.583.016,1.1.046V959.02c-.46.031-.936.045-1.426.045a2.231,2.231,0,0,1-1.15-.229,1.335,1.335,0,0,1-.46-1.288c.061-.122.138-.122.23,0a1.24,1.24,0,0,0,.23.874,1.693,1.693,0,0,0,1.15.276,9.888,9.888,0,0,0,1.426-.093v-2.023a19.406,19.406,0,0,1-2.024.092,5.215,5.215,0,0,1-1.333-.138,2.194,2.194,0,0,1-1.151-.736q-.138-.276.138-.138a2.378,2.378,0,0,0,.966.552,7.387,7.387,0,0,0,1.518.092,13.323,13.323,0,0,0,1.886-.138v-.782a2,2,0,0,0-.138-.966.9.9,0,0,0-.782-.322q-.323.047-.046-.184a1.636,1.636,0,0,1,.6-.092,2.337,2.337,0,0,1,1.1.368c.214.122.214.276,0,.46a.846.846,0,0,0-.23.69Zm-1.886,5.243a3.052,3.052,0,0,0-1.334.231.707.707,0,0,0-.46.643.683.683,0,0,0,.46.6,2.35,2.35,0,0,0,1.058.229,1.855,1.855,0,0,0,1.288-.414,1.369,1.369,0,0,0,.322-1.149A12.783,12.783,0,0,0,502.08,961.319Z" fill="#000000"/><path d="M516.006,956.168q2.07-.138,2.76-.23c.183-.03.49-.092.92-.184a.555.555,0,0,1,.46.138,2.12,2.12,0,0,1,.551.552c.062.184-.031.245-.276.184a9.935,9.935,0,0,0-2.346-.23q-.875,0-2.069.092v1.978a4.688,4.688,0,0,1,.138,1.288,4.363,4.363,0,0,1-2.531,4.185c-.153.031-.183-.015-.092-.137a6.7,6.7,0,0,0,.966-.874,4.23,4.23,0,0,0,1.059-2.76,1.118,1.118,0,0,1-.966.552,1.278,1.278,0,0,1-.921-.414,1.31,1.31,0,0,1-.321-.966,1.505,1.505,0,0,1,.46-1.1,1.249,1.249,0,0,1,.92-.368,1.463,1.463,0,0,1,.735.184v-1.518a27.558,27.558,0,0,0-3.634.735,4.525,4.525,0,0,0-.643.231.437.437,0,0,1-.506-.046,2.064,2.064,0,0,1-.736-1.058c0-.153.061-.169.184-.046a.909.909,0,0,0,.874.414,12.978,12.978,0,0,0,1.978-.23q1.057-.183,2.483-.322v-1.242q0-1.057-.92-1.15c-.122-.061-.122-.122,0-.184a1.76,1.76,0,0,1,1.242.23,1.326,1.326,0,0,1,.414.414q.185.231-.045.322A4.158,4.158,0,0,0,516.006,956.168Zm-2.025,2.3a1.312,1.312,0,0,0-.229.782,1.34,1.34,0,0,0,.367,1.058.641.641,0,0,0,.461.137.683.683,0,0,0,.506-.183,1.559,1.559,0,0,0,.414-1.15c0-.674-.262-1.012-.782-1.012A.805.805,0,0,0,513.981,958.468Z" fill="#000000"/></g></g></svg>
