<svg xmlns="http://www.w3.org/2000/svg" width="1000" height="988" viewBox="0 0 1000 988"><g id="Artboard"><rect id="Tint" width="1000" height="988" fill="#58595b"/></g><g id="Outline"><g id="鳥船遺跡"><path d="M490.883,888.6c-5.338,0-6.209-7.607-6.494-10.107a1.982,1.982,0,0,1-.01-.353c.334-5.289.516-10.228.539-14.7a14.89,14.89,0,0,0-2.1-.117c-12.724,0-23.868.184-33.122.545a121.416,121.416,0,0,0-17.869,2.146,7.237,7.237,0,0,1-2.892,1.717,2.021,2.021,0,0,1-.63.1A1.958,1.958,0,0,1,428,867.8c-1.868-.3-5.05-1.591-5.37-6.909,0-.041,0-.081,0-.121V839.6c0-9.517-.04-15.638-.121-18.217l-.161-.333a43.967,43.967,0,0,1-6.268.452c-1.088,0-2.19-.041-3.279-.123-6.541-.033-7.249-4.177-7.249-5.962a1.984,1.984,0,0,1,.1-.63,11.611,11.611,0,0,1,1.5-3.131c.037-.051.077-.1.119-.15a5.271,5.271,0,0,1,4.1-1.778h1.23a2,2,0,0,1,1.509.686,2.216,2.216,0,0,0,1.5.407,24.411,24.411,0,0,0,12.764-3.674c3.725-2.141,5.737-4.353,6.018-6.6a2.069,2.069,0,0,1,.056-.282c.966-3.5,3.3-5.431,6.574-5.431a1.992,1.992,0,0,1,.2.011c6.463.664,6.955,5.045,6.851,6.968a11.308,11.308,0,0,1-2.729,6.82h.866a193.794,193.794,0,0,0,19.465-1.219,2.07,2.07,0,0,1,.208-.011,16.034,16.034,0,0,0,3.817-.469,10.088,10.088,0,0,1,3.014-.623c2.445,0,4.669,1.214,6.61,3.61,1.684,2.134,2.5,3.925,2.5,5.494a1.965,1.965,0,0,1-.082.565,83.073,83.073,0,0,1-3.021,7.86c-.941,3.76-1.689,6.884-2.228,9.293a7.3,7.3,0,0,1-2.316,5.523,6.444,6.444,0,0,1-5.283,2.258,4.319,4.319,0,0,1-2.912-1.092c-5.433.018-10.747.2-15.807.54-6.029.362-10.565.769-13.5,1.213q-1.442.276-2.55.418c-.006.32-.013.642-.021.964q.329-.027.667-.03c3.763-.363,8.462-.546,13.97-.548,5.458-.368,11.278-.734,17.3-1.089.039,0,.079,0,.118,0s.1,0,.154.006c2.3.178,4.551.269,6.676.269s4.169-.09,6.1-.267c6.157-.409,11.194-.615,15.02-.615,2.17,0,4.01.066,5.472.2a37.466,37.466,0,0,0,8.986-1.033,2.055,2.055,0,0,1,.487-.06c2.787,0,3.776,1.666,3.776,3.093,0,1.127-.5,2.83-4.088,7.622-1.86,2.439-3.82,3.669-5.836,3.669a29.2,29.2,0,0,1-7.652-1.268c-1.01-.141-2-.253-2.967-.337a15.578,15.578,0,0,1,1.808,1.119,1.868,1.868,0,0,1,.212.174c2.047,1.935,3.085,3.941,3.085,5.962,0,.061,0,.122-.008.183a18.515,18.515,0,0,1-.762,3.683c-.019.062-.042.125-.067.185a10.9,10.9,0,0,0-.666,3.517c0,1.859.092,4,.268,6.356.18,3.608.405,6.35.669,8.2a1.982,1.982,0,0,1-.008.615,6.273,6.273,0,0,1-1.753,3.52A4.779,4.779,0,0,1,490.883,888.6Zm-55.341-34.658a10.9,10.9,0,0,1-1.159.655l.261-.088a2.036,2.036,0,0,1,.464-.1c4.322-.366,10.566-.553,18.559-.554,6.664-.363,14.221-.546,22.461-.546a26.794,26.794,0,0,0,5.541-.459,7.3,7.3,0,0,1,2.106-.471,6.967,6.967,0,0,1,1.184-.64,36.96,36.96,0,0,0-5.688-.441c-.047,0-.093,0-.14,0-3.852-.269-8.172-.4-12.839-.4a144.974,144.974,0,0,0-15.5.944,1.941,1.941,0,0,1-.216.012,73.632,73.632,0,0,0-9.7.528A24.96,24.96,0,0,0,435.542,853.938Zm-1.133-21.673a18.924,18.924,0,0,1,2.148-.133c9.64-.816,19.184-1.23,28.368-1.23h.682c.171-.476.328-.962.471-1.454-6,.049-11.756.273-17.128.667-5.562.314-10.435.631-14.541.947Zm.261-13.244c-.009.509-.023,1.049-.042,1.625,3.751-.045,8.1-.223,12.955-.533.042,0,.085,0,.127,0h20.271q.135-.942.271-1.952c-.01-.434-.13-.738-1.524-.742C454.521,817.752,443.75,818.292,434.67,819.021Zm-30,68.345a3.253,3.253,0,0,1-3.366-3.5c0-1.715,1.311-3.805,4.386-6.99a29.228,29.228,0,0,0,4.8-6.924,2.006,2.006,0,0,1,.42-.616,6.9,6.9,0,0,1,4.966-2.225,1.923,1.923,0,0,1,.215.012c4.411.477,6.84,3.124,6.84,7.453,0,2.325-.856,3.549-1.766,4.192-.676.986-2.179,2.356-6.166,4.625C410.827,886.065,407.449,887.366,404.674,887.366Zm31.97-2.049c-1.219,0-3.427-.54-4.512-4.158a2.184,2.184,0,0,1-.054-.226,6.236,6.236,0,0,0-1.9-3.306,1.948,1.948,0,0,1-.375-.52,8.443,8.443,0,0,1-1.031-3.763,2.018,2.018,0,0,1,.064-.5,8.7,8.7,0,0,1,5.63-6.3,2.011,2.011,0,0,1,.678-.118c5.057,0,6.556,3.1,7,4.949a2.042,2.042,0,0,1,.055.467,3.911,3.911,0,0,1-.766,2.378q-.1.967-.2,2.157c0,.034-.006.069-.011.1-.174,1.294-.306,2.474-.393,3.509C440.792,884.931,437.62,885.317,436.644,885.317Zm17.488-.546c-1.255,0-3.494-.573-4.405-4.408a1.755,1.755,0,0,1-.043-.251,6.981,6.981,0,0,0-1.614-3.733,2,2,0,0,1-.333-.594,13.808,13.808,0,0,1-.934-4.491,2,2,0,0,1,.1-.609,8.636,8.636,0,0,1,5.482-5.789,2.022,2.022,0,0,1,.659-.111c4.818,0,6.2,2.76,6.59,4.4a1.977,1.977,0,0,1,.055.465,5.281,5.281,0,0,1-.789,3.057q-.124.847-.319,2.114c-.176,1.751-.309,3.3-.4,4.6C458.153,884.384,455.078,884.771,454.132,884.771Zm19.947-.547c-1.955,0-4.584-.976-6.084-5.585-1.183-2.189-2.5-4.725-3.9-7.544a2.009,2.009,0,0,1-.211-.894c0-2.906,1.859-4.871,5.1-5.39a1.986,1.986,0,0,1,1.227.193,19.038,19.038,0,0,1,9.868,11.122,1.993,1.993,0,0,1,.1.5,7.859,7.859,0,0,1-1.444,5.1A5.658,5.658,0,0,1,474.079,884.224Z" transform="translate(0)" fill="#fff"/><path d="M441.016,796.834q5.328.548,5.055,4.918a9.631,9.631,0,0,1-2.6,6.012,17.931,17.931,0,0,1-2.049,2.869h4.782a194.706,194.706,0,0,0,19.673-1.23,17.9,17.9,0,0,0,4.372-.547,8.744,8.744,0,0,1,2.459-.545q2.733,0,5.056,2.869,2.049,2.6,2.049,4.235-.685,2.325-3,7.787-1.506,6.014-2.323,9.7a5.409,5.409,0,0,1-1.777,4.372,4.471,4.471,0,0,1-3.825,1.64,2.468,2.468,0,0,1-2.049-1.093q-8.745,0-16.805.546-9.154.548-13.662,1.231a25.306,25.306,0,0,1-4.236.546q0,2.735-.136,5.464a5.825,5.825,0,0,1,2.869-.682q5.6-.546,13.935-.547,8.061-.543,17.352-1.093,3.551.275,6.83.274t6.286-.274q9.137-.607,14.838-.607,3.249,0,5.382.2a39.286,39.286,0,0,0,9.563-1.093c1.182,0,1.776.365,1.776,1.093q0,1.506-3.688,6.422-2.187,2.868-4.236,2.869a27.85,27.85,0,0,1-7.24-1.229,51.385,51.385,0,0,0-7.242-.547,38.7,38.7,0,0,0-9.153-1.093q-5.876-.411-12.979-.41a146.289,146.289,0,0,0-15.712.956,75.171,75.171,0,0,0-9.974.547,26.923,26.923,0,0,0-6.012,1.776,5.408,5.408,0,0,1-2.869,1.093v4.372q1.5-.544,3.552-1.23,6.421-.545,18.445-.547,9.972-.545,22.406-.546a27.794,27.794,0,0,0,6.148-.546,5.488,5.488,0,0,1,2.186-.41,4.531,4.531,0,0,1,2.87-1.093,9.662,9.662,0,0,1,5.6,2.049q2.46,2.323,2.459,4.508a16.352,16.352,0,0,1-.683,3.28,12.856,12.856,0,0,0-.82,4.235q0,2.87.274,6.558.271,5.466.683,8.334a4.247,4.247,0,0,1-1.367,2.6,2.89,2.89,0,0,1-2.6,1.776q-3.553,0-4.508-8.334.544-8.608.546-15.849,0-1.091-4.1-1.093-19.264,0-33.2.547a121.427,121.427,0,0,0-18.854,2.322,4.872,4.872,0,0,1-2.459,1.64q-3.417-.544-3.689-5.055V839.6q0-15.3-.137-18.718-.547-1.094-.956-2.05a42.061,42.061,0,0,1-7.457.67q-1.6,0-3.2-.123-5.328,0-5.328-3.962a9.779,9.779,0,0,1,1.229-2.6,3.274,3.274,0,0,1,2.6-1.093h1.23a3.785,3.785,0,0,0,3.006,1.093,26.26,26.26,0,0,0,13.8-3.963q6.42-3.688,6.968-8.06,1.092-3.962,4.645-3.962m-8.471,25.822h.273q6.284,0,14.892-.547h22q.271-1.773.546-3.825,0-2.87-3.552-2.869-19.81.546-34.156,1.775c.09,0,.137.184.137.547q0,2.051-.137,4.919m36.069,4.782q-10.522,0-19.811.683-9.7.546-16.394,1.093v5.465a16.374,16.374,0,0,1,4.235-.547q14.48-1.23,28.281-1.23h2.05a27.2,27.2,0,0,0,1.639-5.464m.683,39.347a17.023,17.023,0,0,1,8.881,9.974,5.885,5.885,0,0,1-1.094,3.826,3.651,3.651,0,0,1-3,1.639q-2.87,0-4.236-4.372-1.776-3.279-3.962-7.651,0-2.87,3.416-3.416m-16.258,0q3.96,0,4.645,2.869a2.724,2.724,0,0,1-.683,2.187q-.138.957-.41,2.732-.276,2.734-.41,4.781,0,3.418-2.049,3.417-1.777,0-2.46-2.87a8.983,8.983,0,0,0-2.049-4.782,12.039,12.039,0,0,1-.82-3.825,6.591,6.591,0,0,1,4.236-4.509m-17.9,1.64q4.233,0,5.055,3.416a1.82,1.82,0,0,1-.683,1.5q-.138,1.228-.273,2.869-.276,2.049-.41,3.688,0,3.417-2.186,3.416-1.778,0-2.6-2.732a8.221,8.221,0,0,0-2.459-4.372,5.07,5.07,0,0,1,3.552-7.788m-19.264.683q5.053.548,5.055,5.465,0,2.187-1.229,2.733-.685,1.5-5.739,4.372-5.738,3.688-9.29,3.688c-.912,0-1.366-.5-1.366-1.5q0-1.638,3.825-5.6a31.142,31.142,0,0,0,5.192-7.515,4.956,4.956,0,0,1,3.552-1.639m25.139-76.274c-4.194,0-7.293,2.514-8.5,6.9a4.018,4.018,0,0,0-.112.566c-.194,1.544-1.966,3.351-4.992,5.089l-.077.046a22.14,22.14,0,0,1-11.729,3.385,2.609,2.609,0,0,1-.27-.012,4,4,0,0,0-2.736-1.081h-1.23a7.214,7.214,0,0,0-5.608,2.462c-.085.1-.164.2-.239.3a13.558,13.558,0,0,0-1.775,3.667,4.018,4.018,0,0,0-.2,1.259c0,3.819,2.412,7.9,9.168,7.961,1.115.082,2.245.124,3.36.124,1.484,0,2.978-.074,4.471-.22.043,2.62.079,7.455.079,16.318v21.176c0,.081,0,.161.007.241.42,6.962,5.071,8.448,7.052,8.764.057.009.114.017.172.024a12.337,12.337,0,0,0-.956,2.539,4.03,4.03,0,0,0-.127,1A10.374,10.374,0,0,0,428.011,878a4,4,0,0,0,.749,1.039,4.4,4.4,0,0,1,1.349,2.239,4.156,4.156,0,0,0,.107.454c1.511,5.039,5,5.583,6.428,5.583,2.822,0,6.111-1.9,6.184-7.234.084-.985.211-2.107.376-3.337.009-.069.017-.138.022-.207.047-.572.1-1.114.144-1.621a5.939,5.939,0,0,0,.826-3.077,3.97,3.97,0,0,0-.111-.934,8.175,8.175,0,0,0-2.565-4.376q2.76-.307,5.7-.511a11.456,11.456,0,0,0-2.228,4.055,4,4,0,0,0-.19,1.219,15.7,15.7,0,0,0,1.048,5.157,4.02,4.02,0,0,0,.666,1.188,5.043,5.043,0,0,1,1.178,2.685,3.871,3.871,0,0,0,.086.5c1.275,5.365,4.866,5.945,6.351,5.945,2.766,0,5.992-1.909,6.048-7.273.084-1.254.212-2.74.38-4.421q.144-.939.25-1.648a7.537,7.537,0,0,0,.874-3.775,4,4,0,0,0-.11-.93,7.749,7.749,0,0,0-1.585-3.17q1.754-.039,3.571-.072a7.278,7.278,0,0,0-1.679,4.719,4,4,0,0,0,.422,1.787c1.384,2.772,2.678,5.275,3.849,7.446,1.988,5.9,5.8,6.79,7.927,6.79a7.666,7.666,0,0,0,6.2-3.239c.03-.04.06-.081.089-.122a9.817,9.817,0,0,0,1.8-6.365,3.961,3.961,0,0,0-.2-1,20.355,20.355,0,0,0-7.4-10.145q4-.029,8.25-.028h.076c-.058,3.922-.231,8.176-.516,12.69a4.163,4.163,0,0,0,.018.706c.9,7.883,3.756,11.88,8.482,11.88a6.774,6.774,0,0,0,5.763-3.278,8.394,8.394,0,0,0,2.145-4.432,4.02,4.02,0,0,0,.015-1.229c-.256-1.789-.474-4.469-.648-7.966,0-.033,0-.066-.007-.1-.17-2.286-.258-4.355-.262-6.153a8.729,8.729,0,0,1,.511-2.8c.051-.122.1-.246.134-.372a20.4,20.4,0,0,0,.841-4.086c.012-.121.017-.243.017-.365a8.536,8.536,0,0,0-1.107-4.141,24.648,24.648,0,0,0,4.621.491c2.673,0,5.168-1.5,7.416-4.444,3.757-5.01,4.508-7.1,4.508-8.847,0-2.453-1.808-5.093-5.776-5.093a3.981,3.981,0,0,0-.972.12,35.338,35.338,0,0,1-8.416.973c-1.52-.133-3.341-.2-5.557-.2-3.871,0-8.952.207-15.1.616l-.1.008c-.892.081-1.81.143-2.749.186a9.4,9.4,0,0,0,2.321-6.105c.524-2.335,1.242-5.328,2.136-8.908a83.724,83.724,0,0,0,3.038-7.931,4,4,0,0,0,.163-1.13c0-2.065-.925-4.2-2.909-6.713l-.032-.04c-2.914-3.6-6.048-4.351-8.164-4.351a11.593,11.593,0,0,0-3.561.7,13.943,13.943,0,0,1-3.27.395,4.14,4.14,0,0,0-.416.022c-6.354.665-11.894,1.057-16.517,1.172a11.518,11.518,0,0,0,1.122-4.722c.195-3.935-1.97-8.334-8.645-9.02a4,4,0,0,0-.409-.021Zm-25.139,72.274a8.894,8.894,0,0,0-6.381,2.811,4,4,0,0,0-.84,1.233,26.654,26.654,0,0,1-4.472,6.4c-3.462,3.6-4.876,6.01-4.876,8.306a5.257,5.257,0,0,0,5.366,5.5c3.159,0,6.876-1.395,11.36-4.264,3.816-2.174,5.62-3.652,6.589-4.934a6.77,6.77,0,0,0,2.309-5.6c0-5.328-3.224-8.857-8.625-9.441a3.86,3.86,0,0,0-.43-.024Z" transform="translate(0)" fill="#fff"/><path d="M574.224,886.82c-2.014,0-5.465-.877-5.955-6.753-.335-8.175-.573-16.23-.711-24.078a25.65,25.65,0,0,1-2.616,4.961c-2.156,3.452-4.657,5.239-7.386,5.239-2.036,0-5.5-.788-6.5-5.9a43.788,43.788,0,0,1-3.857,11.334,35.443,35.443,0,0,1-6.368,10.348c-2.3,2.635-4.3,3.894-6.226,3.894a2.214,2.214,0,0,1-.282-.019c-2.07-.294-5.544-1.6-5.544-7.035a1.891,1.891,0,0,1,.013-.226c.53-4.668,2.213-7.713,5-9.054,4.074-2.506,6.8-8.771,8.121-18.641h-.795c-2.954.276-4.907.41-5.969.41-5.187,0-5.962-2.537-5.962-4.05,0-1.563.613-3.812,3.529-5.653a2,2,0,0,1,.838-.3,61.858,61.858,0,0,1,6.789-.423,16.381,16.381,0,0,1,2.274-.433c.023-.529.055-1.066.1-1.606,0-2.726-.047-5.761-.136-9.023a19.18,19.18,0,0,0-1.277-6.766,9.176,9.176,0,0,1-1.729-4.765,2.046,2.046,0,0,1,.02-.282c.266-1.866,1.355-4.349,5.035-5.577a1.978,1.978,0,0,1,.634-.1,7.741,7.741,0,0,1,4.826,1.64h4.8a17.315,17.315,0,0,0,.535-4.441v-.031a4.653,4.653,0,0,0-1.28-.135c-2.377,0-3.913-1.429-3.913-3.639a1.994,1.994,0,0,1,.073-.538c.851-3.048,2.886-4.769,5.747-4.873,1.326-.347,2.687-.653,4.053-.909a11.084,11.084,0,0,0,2.336-.882,2,2,0,0,1,.994-.264c.755,0,1.713.286,4.379,1.75a2.009,2.009,0,0,1,.543.437,8.139,8.139,0,0,1,2.406,5.279,4.407,4.407,0,0,1-3.145,4.452,7,7,0,0,0-2.6,3.4c-.043.121-.085.241-.127.363a6.182,6.182,0,0,0,3.442-1.168,2.007,2.007,0,0,1,.406-.252,11.4,11.4,0,0,1,4.806-1.143,7.63,7.63,0,0,1,4.98,1.976c2.285,1.944,3.441,3.973,3.441,6.036a6.208,6.208,0,0,1-1.849,5.278,4.841,4.841,0,0,0-1.429,2.851v11.73h3.3a6.133,6.133,0,0,1-.337-1.962,2.027,2.027,0,0,1,.072-.53c1.5-5.472,4.759-7.284,7.226-7.842a2.04,2.04,0,0,1,.441-.048,1.781,1.781,0,0,1,.193.009c.177.017.352.026.524.026,1.813,0,3.392-1,4.828-3.061a17.378,17.378,0,0,0,2.575-10.215,1.968,1.968,0,0,1,0-.36,4.246,4.246,0,0,0-.328-2.047,4.086,4.086,0,0,1-.712-3.06,6.2,6.2,0,0,1,5.2-4.77,1.969,1.969,0,0,1,.3-.022,7.562,7.562,0,0,1,4.424,1.317,2.013,2.013,0,0,1,.622.7,11.628,11.628,0,0,1,1.463,5.444,47.825,47.825,0,0,1-1.124,10.733,23.2,23.2,0,0,1-3.716,9.907,19.8,19.8,0,0,1-6.41,6.56c-2.772,2.135-5.406,3.217-7.828,3.217q-.654,0-1.25-.043a7.549,7.549,0,0,1,.205.793,1.992,1.992,0,0,1,.039.393c0,1.818-.9,4.869-6.919,4.869h-2.613c.021.734.055,1.487.1,2.254.458,11.257.826,21.376,1.1,30.114C580.05,884.9,577.872,886.82,574.224,886.82Zm-21.651-36.707q-.313,3.238-.774,6.145a6.5,6.5,0,0,1,2.081-2.085,1.932,1.932,0,0,1,.338-.175c.952-.38,2.409-.882,4.455-1.534a43.694,43.694,0,0,1,5.391-1.7,1.926,1.926,0,0,1,.459-.054,4.027,4.027,0,0,1,2.968,1.042q-.016-1.248-.029-2.488c-2.872.054-5.712.228-8.468.517a2.09,2.09,0,0,1-.209.011A56.177,56.177,0,0,0,552.573,850.113Zm.8-13.889q-.041,1.936-.13,3.98,7.266-.423,14.2-.849,0-.35,0-.7a3.942,3.942,0,0,1-2.238.621,2,2,0,0,1-1.367-.541,4.568,4.568,0,0,0-2.732-1.507,14.7,14.7,0,0,0-3.478.486,1.968,1.968,0,0,1-.484.059A4.672,4.672,0,0,1,553.37,836.224Zm11.749-7.836a17.517,17.517,0,0,0,2,3.195,1.954,1.954,0,0,1,.143.183c.074.107.145.213.214.317.022-2.991.054-6.036.1-9.113a4.468,4.468,0,0,0-1-.09c-4.389,0-8.685.169-12.776.5-.207.111-.415.211-.622.3l.154,6.08a7.246,7.246,0,0,1,.926-1.294c2.229-2.773,4.383-4.12,6.58-4.12C563.483,824.345,564.687,827.262,565.119,828.388Zm28.1,52.966a1.977,1.977,0,0,1-.741-.142,8.976,8.976,0,0,1-5.084-5.365,2,2,0,0,1-.124-.5,5.479,5.479,0,0,1,.752-3.464c.279-.642.6-1.322.949-2.025.019-.039.039-.076.06-.112a6.91,6.91,0,0,0,.826-3.074c0-.034,0-.068.008-.1a50.778,50.778,0,0,0,.133-8.174,7.878,7.878,0,0,0-.62-2.191,1.983,1.983,0,0,1-.131-.336,7.61,7.61,0,0,1-.35-2.057,1.975,1.975,0,0,1,.128-.7,11.436,11.436,0,0,1,2.506-4.127,6.026,6.026,0,0,1,4.16-1.767,5.848,5.848,0,0,1,1.022.092,10.611,10.611,0,0,1,2.7.542h3.842c4.587-.364,10.471-.685,17.489-.954a10.282,10.282,0,0,0,3.041-.46,1.993,1.993,0,0,1,.589-.089H627.1c3.59,0,6.209,2.051,7.374,5.775a2.038,2.038,0,0,1,.076.353,5.9,5.9,0,0,1-.421,3.083,2.1,2.1,0,0,1-.237.411,8.569,8.569,0,0,0-1.429,3.218,53.685,53.685,0,0,0-.5,7.649c0,.1.012.395.079.988a8.237,8.237,0,0,1,.862,2.679c0,.039.009.079.012.119a6.728,6.728,0,0,1-.94,4.28,5.647,5.647,0,0,1-2.028,2.373A10,10,0,0,1,623,879.907c-.39,0-.787-.018-1.194-.055a23.584,23.584,0,0,1-4.548-.589,22.129,22.129,0,0,0-4.506-.5H605.34a32.448,32.448,0,0,1-6.017,1.089,13.953,13.953,0,0,0-2.565.789c-.041.018-.084.035-.126.051A10.077,10.077,0,0,1,593.215,881.354Zm8.4-13.19a4.613,4.613,0,0,0-.021,1.11c5.319-.349,11.448-.712,18.155-1.07.035,0,.071,0,.106,0,.372,0,.491,0,.6-.531.09-4.02.133-7.483.133-10.585a2.064,2.064,0,0,1,.02-.284,4.212,4.212,0,0,0-.616-.038h-8.229c-3.261.341-5.892.524-7.828.544-1.672.612-1.749,1.417-1.753,1.9A38.339,38.339,0,0,1,601.616,868.164Zm42.013-20.009c-2.775,0-5.8-1.036-9.249-3.168a19.844,19.844,0,0,0-6.37-2.322,1.919,1.919,0,0,1-.363-.094,30.526,30.526,0,0,0-9.567-2.2,2.057,2.057,0,0,1-.341-.029c-1.793-.31-4.8-1.617-4.8-6.889a2.005,2.005,0,0,1,.058-.475c.019-.079.133-.62.5-3.472.264-2.556.538-5.888.809-9.851.36-3.992.541-6.827.541-8.471,0-.037,0-.075,0-.111.34-6.145,4.567-6.808,6.369-6.808a2.008,2.008,0,0,1,.651.109c4.729,1.629,5.721,4.3,5.721,6.263a8.186,8.186,0,0,1-1,3.566,13.3,13.3,0,0,0-1.062,3.209c0,.038-.01.076-.015.113q-.264,1.572-.524,3.527c-.093,2.625-.275,5.581-.541,8.79a3.735,3.735,0,0,0,.043.56c.038.008.075.016.11.026a93.584,93.584,0,0,0,23.942,3.347,39.446,39.446,0,0,0,5.844-.522,1.923,1.923,0,0,1,.3-.023c3.288,0,4.46,1.879,4.46,3.638a2.109,2.109,0,0,1-.022.3c-.371,2.475-2.869,5.129-7.861,8.353A14.512,14.512,0,0,1,643.629,848.155Z" transform="translate(0)" fill="#fff"/><path d="M563.431,800.249a11.4,11.4,0,0,1,3.416,1.5,6.361,6.361,0,0,1,1.912,3.963,2.442,2.442,0,0,1-1.912,2.6,8.624,8.624,0,0,0-3.69,4.508,31.76,31.76,0,0,0-.956,3.142h1.777a8.722,8.722,0,0,0,5.6-1.64,9.382,9.382,0,0,1,3.962-.956,5.666,5.666,0,0,1,3.688,1.5q2.733,2.325,2.733,4.509.135,2.735-1.23,3.825a6.831,6.831,0,0,0-2.048,4.236v13.8H584.2a4.615,4.615,0,0,1,2.187,3.143q0,2.87-4.919,2.869H576.82q0,2.049.136,4.372.682,16.8,1.094,30.058,0,3.143-3.826,3.142-3.555,0-3.962-4.919-.686-16.8-.82-32.653a102.117,102.117,0,0,0-10.657.547,53.7,53.7,0,0,0-8.06.546q-1.23,14.755-5.329,22.406a34.043,34.043,0,0,1-6.011,9.838q-2.87,3.279-4.782,3.278-3.826-.543-3.826-5.054.682-6.01,3.962-7.515,7.514-4.509,9.428-22.406h-3.143q-4.374.409-5.875.41-3.963,0-3.962-2.05,0-2.322,2.6-3.962a59.692,59.692,0,0,1,6.831-.41,14.439,14.439,0,0,1,3.962-.546q0-1.641.137-3.416,0-4.233-.137-9.153a20.811,20.811,0,0,0-1.5-7.652,7.611,7.611,0,0,1-1.5-3.825q.41-2.87,3.689-3.963a5.862,5.862,0,0,1,4.1,1.64h7.105a22.98,22.98,0,0,0,.956-6.558q.135-2.049-3.278-2.049c-1.278,0-1.913-.546-1.913-1.639q.953-3.416,4.1-3.416,2.049-.544,4.236-.956a13.588,13.588,0,0,0,2.869-1.094m-12.3,42.081q9.426-.545,18.307-1.094,0-8.878.137-18.58,0-1.773-3.006-1.776-6.967,0-13.389.546a3.9,3.9,0,0,1-2.049.683q.135,5.328.273,10.793,0,4.374-.273,9.428m70.088-36.069q4.371,1.506,4.372,4.372a6.446,6.446,0,0,1-.82,2.732,15.74,15.74,0,0,0-1.23,3.825q-.276,1.641-.546,3.69-.138,3.963-.547,8.881,0,2.6,1.64,2.6a95.132,95.132,0,0,0,24.456,3.415,41.271,41.271,0,0,0,6.147-.545q2.46,0,2.46,1.638-.409,2.736-6.968,6.969a12.7,12.7,0,0,1-6.558,2.322q-3.554,0-8.2-2.869a21.87,21.87,0,0,0-7.105-2.6q-6.423-2.321-10.247-2.323-3.144-.543-3.142-4.918.134-.544.546-3.688.411-3.963.821-9.974.543-6.012.546-8.607.272-4.92,4.372-4.919m-19.264,1.093a5.577,5.577,0,0,1,3.278.957,9.606,9.606,0,0,1,1.231,4.508,45.831,45.831,0,0,1-1.094,10.383,21.138,21.138,0,0,1-3.415,9.154,17.709,17.709,0,0,1-5.875,6.011q-3.688,2.87-6.694,2.869-3.828,0-5.056-1.638a4.792,4.792,0,0,1-.683-2.324q1.5-5.462,5.739-6.42.363.034.717.035,3.774,0,6.524-4a19.279,19.279,0,0,0,2.869-11.477,6.254,6.254,0,0,0-.547-3.143,2.411,2.411,0,0,1-.547-1.639,4.149,4.149,0,0,1,3.553-3.279m-41.124,18.991q1.363,0,2.459,2.869a20.164,20.164,0,0,0,2.323,3.688,5.6,5.6,0,0,1,1.23,2.869c0,1-.547,1.5-1.64,1.5a6.26,6.26,0,0,0-4.1-2.048,16.575,16.575,0,0,0-3.962.545q-2.6,0-2.733-2.322a5.284,5.284,0,0,1,1.366-3.688q2.733-3.415,5.056-3.416m66.263,22q4.1,0,5.464,4.372a3.9,3.9,0,0,1-.273,2.05,10.508,10.508,0,0,0-1.775,3.962,56.547,56.547,0,0,0-.547,8.06,14.284,14.284,0,0,0,.137,1.64,6.542,6.542,0,0,1,.819,2.322,4.64,4.64,0,0,1-.683,3.143,3.677,3.677,0,0,1-1.5,1.776A8.021,8.021,0,0,1,623,877.908q-.534,0-1.094-.056a21.384,21.384,0,0,1-4.235-.546,23.951,23.951,0,0,0-4.919-.547H605.1a32.383,32.383,0,0,1-6.012,1.093,16.241,16.241,0,0,0-3.143.957,8.059,8.059,0,0,1-2.732.545,7.019,7.019,0,0,1-3.962-4.235,3.528,3.528,0,0,1,.546-2.322q.409-.954.957-2.05a8.813,8.813,0,0,0,1.093-3.962,52.612,52.612,0,0,0,.136-8.607,9.937,9.937,0,0,0-.82-2.869,5.755,5.755,0,0,1-.272-1.5,9.455,9.455,0,0,1,2.048-3.415,4.012,4.012,0,0,1,2.745-1.181,3.821,3.821,0,0,1,.808.088,8.837,8.837,0,0,1,2.6.546h4.235q6.831-.545,17.487-.956a12.012,12.012,0,0,0,3.553-.547H627.1m-25.686,22.953q8.2-.544,18.444-1.093a2.443,2.443,0,0,0,2.6-2.322q.135-6.012.137-10.794.544-2.322-2.6-2.322h-8.334q-5.194.548-8.06.546-3.418,1.1-3.416,3.962a36.145,36.145,0,0,1-.547,8.608q-.409,3.415,1.776,3.415m-36.889-18.581c1.094,0,1.73.365,1.914,1.093a1.187,1.187,0,0,1-.547.957,24,24,0,0,1-2.6,5.054q-2.734,4.374-5.738,4.372-3.965,0-4.645-4.918a4.184,4.184,0,0,1,2.049-3.416q1.363-.545,4.372-1.5a41.653,41.653,0,0,1,5.191-1.64m-1.092-56.464a4,4,0,0,0-1.986.528,9.187,9.187,0,0,1-1.811.67c-1.309.249-2.614.541-3.888.869-3.633.218-6.3,2.5-7.371,6.323a3.99,3.99,0,0,0-.147,1.076,5.446,5.446,0,0,0,5.1,5.595q-.038.3-.1.651h-2.516a9.793,9.793,0,0,0-5.461-1.64,4.019,4.019,0,0,0-1.268.206c-3.627,1.212-5.893,3.767-6.381,7.193a4.092,4.092,0,0,0-.04.564,10.888,10.888,0,0,0,1.944,5.683,17.494,17.494,0,0,1,1.063,5.916c.087,3.189.133,6.17.135,8.85q-.318.068-.631.145a64.528,64.528,0,0,0-6.758.435,3.98,3.98,0,0,0-1.676.591c-3.687,2.326-4.461,5.278-4.461,7.344,0,1.01.384,6.05,7.962,6.05.908,0,2.333-.084,4.418-.263-1.609,9.513-4.454,13.288-6.746,14.743-3.387,1.677-5.411,5.235-6.018,10.579a4.015,4.015,0,0,0-.026.452c0,5,2.715,8.369,7.263,9.015a4.065,4.065,0,0,0,.563.039c3.3,0,5.987-2.592,7.734-4.578A37.449,37.449,0,0,0,549,872.493a38.621,38.621,0,0,0,2.688-6.611,8.039,8.039,0,0,0,5.869,2.307c3.041,0,5.78-1.621,8.158-4.823.138,5.5.322,11.083.551,16.7,0,.057.006.113.011.17.664,7.967,6.251,8.586,7.948,8.586,5.776,0,7.826-3.847,7.826-7.142,0-.042,0-.083,0-.124-.271-8.745-.639-18.871-1.1-30.1l0-.075-.008-.135h.524c7.176,0,8.613-3.954,8.868-6.055a15.833,15.833,0,0,0,8.02-3.524,21.787,21.787,0,0,0,6.945-7.108,25.177,25.177,0,0,0,4.016-10.659,49.917,49.917,0,0,0,1.154-11.148,13.64,13.64,0,0,0-1.695-6.315,4.007,4.007,0,0,0-1.244-1.407,9.521,9.521,0,0,0-5.57-1.678,3.916,3.916,0,0,0-.593.044,8.175,8.175,0,0,0-6.806,6.135c-.011.042-.023.083-.033.125a5.966,5.966,0,0,0,.857,4.446,2.262,2.262,0,0,1,.129.987,4.026,4.026,0,0,0,.007.72,15.374,15.374,0,0,1-2.28,8.95c-1.511,2.128-2.685,2.128-3.133,2.128-.107,0-.218-.006-.331-.017-.129-.012-.258-.018-.386-.018a3.959,3.959,0,0,0-.881.1,11.038,11.038,0,0,0-7.825,6.744V827.6a3.19,3.19,0,0,1,.841-1.526c1.263-1.135,2.591-3.2,2.436-6.807-.037-2.636-1.429-5.141-4.139-7.447a9.585,9.585,0,0,0-6.281-2.457,11.906,11.906,0,0,0-1.854.147,6.816,6.816,0,0,0,1.072-3.8,10.143,10.143,0,0,0-2.9-6.6,3.988,3.988,0,0,0-1.086-.874c-2.719-1.493-4.067-2-5.341-2Zm2.059,28.634h.059v.079l-.058-.079Zm55.733-22.622c-3.812,0-8.011,2.285-8.366,8.7q-.006.111-.006.222c0,1.584-.179,4.359-.53,8.247,0,.029,0,.059-.007.088-.267,3.913-.537,7.2-.8,9.781-.344,2.637-.455,3.186-.467,3.24a3.694,3.694,0,0,0-.106.913c0,7.185,4.945,8.6,6.461,8.86a3.988,3.988,0,0,0,.681.058c1.392,0,4,.346,8.577,1.974h-2.292a4.018,4.018,0,0,0-1.178.177,8.07,8.07,0,0,1-2.375.37l-.153,0c-7.006.269-12.889.59-17.492.953H599.7a12.062,12.062,0,0,0-2.782-.534,7.842,7.842,0,0,0-1.236-.1,8.008,8.008,0,0,0-5.446,2.231c-.044.039-.086.08-.127.121a13.439,13.439,0,0,0-2.966,4.839,4.01,4.01,0,0,0-.254,1.405,9.486,9.486,0,0,0,.429,2.612,4.029,4.029,0,0,0,.261.672,5.684,5.684,0,0,1,.42,1.517,48.446,48.446,0,0,1-.13,7.736c-.007.068-.013.137-.017.206a4.955,4.955,0,0,1-.558,2.187q-.063.109-.12.222c-.348.7-.667,1.375-.949,2.018a7.528,7.528,0,0,0-.951,4.589,4.047,4.047,0,0,0,.249,1.01,11.048,11.048,0,0,0,6.2,6.5,4.006,4.006,0,0,0,1.483.284,12.039,12.039,0,0,0,4.1-.787c.085-.031.17-.065.253-.1a11.4,11.4,0,0,1,2.02-.627,35.237,35.237,0,0,0,5.987-1.079h7.176a20.146,20.146,0,0,1,4.1.461,25.57,25.57,0,0,0,4.855.63c.437.038.872.058,1.295.058a12.1,12.1,0,0,0,8.175-3.051,7.582,7.582,0,0,0,2.543-2.966,8.711,8.711,0,0,0,1.2-5.406c0-.08-.013-.159-.023-.239a10.009,10.009,0,0,0-.893-2.985c-.024-.254-.029-.392-.031-.448a52.858,52.858,0,0,1,.457-7.243,6.57,6.57,0,0,1,1.065-2.408,3.952,3.952,0,0,0,.475-.821,7.856,7.856,0,0,0,.569-4.116,4.038,4.038,0,0,0-.153-.706,10.915,10.915,0,0,0-2.737-4.638c3.648,2.2,6.917,3.274,9.986,3.274a16.376,16.376,0,0,0,8.691-2.938c5.622-3.63,8.322-6.632,8.791-9.759a3.939,3.939,0,0,0,.044-.594c0-2.806-2-5.638-6.46-5.638a4.005,4.005,0,0,0-.608.046,37.558,37.558,0,0,1-5.539.5,90.505,90.505,0,0,1-22.01-2.913c.216-2.762.368-5.327.452-7.642.172-1.287.336-2.389.5-3.363.012-.076.023-.151.031-.227a12.3,12.3,0,0,1,.9-2.6,10.045,10.045,0,0,0,1.179-4.395c0-2.136-.919-6.035-7.069-8.154a3.99,3.99,0,0,0-1.3-.218Zm-9.355,56.5h6.717c-.012,2.271-.045,4.785-.1,7.506-5.295.286-10.217.575-14.683.861a39.207,39.207,0,0,0,.395-7.754c.039-.022.087-.047.145-.075,1.942-.037,4.417-.214,7.525-.538Z" transform="translate(0)" fill="#fff"/><path d="M771.783,890.235a2.139,2.139,0,0,1-.226-.012,41.3,41.3,0,0,1-11.793-3.577,59.259,59.259,0,0,0-8.239-2.473c-.042-.01-.085-.021-.127-.033-3.56-1.068-8-2.2-13.2-3.368-8.069-1.343-16.047-2.391-23.713-3.115-8.281-.719-15.347-1.084-20.989-1.084-.573,0-2.393.292-6.894,2.993-3.127,2.02-5.761,3.019-8,3.019a2.118,2.118,0,0,1-.308-.023c-2.651-.415-6.018-2.2-7-8.359a2.012,2.012,0,0,1,.014-.7c.753-3.769,2.46-6.429,5.076-7.907a2,2,0,0,1,.984-.259c2.146,0,4.2-1.161,6.279-3.549a2.112,2.112,0,0,1,.284-.267,21.354,21.354,0,0,0,6.121-7.628c1.947-3.669,4.243-5.5,6.854-5.5,6.367,0,7.055,3.787,7.055,5.415,0,2.112-1.815,4.351-6.056,7.459-1.61,2.092-2.628,3.528-3.27,4.506a16.541,16.541,0,0,0,2.057-.379,2.042,2.042,0,0,1,.487-.06c3.336,0,8.311.3,14.806.906a3.384,3.384,0,0,1,2.823-1.844,19.731,19.731,0,0,0,3.939-1.868,2.028,2.028,0,0,1,.218-.126,2.54,2.54,0,0,0,1.487-1.808,6.073,6.073,0,0,1-1.276.133,1.978,1.978,0,0,1-.681-.12,7.8,7.8,0,0,1-3.287-2.207,1.981,1.981,0,0,1-.238-.338,6.773,6.773,0,0,1-.937-3.3,4.78,4.78,0,0,1,.928-2.467,12.012,12.012,0,0,0,.742-2.8,1.943,1.943,0,0,1,.133-.442,17.541,17.541,0,0,0,.247-4.128c0-5.034-.634-6.812-.969-7.4a6.236,6.236,0,0,1-1.9-4.079,2.018,2.018,0,0,1,.015-.246,6.329,6.329,0,0,1,1.205-3.277q-3.915.358-6.9.726a2.014,2.014,0,0,1-.245.015c-3.9,0-6.235-2.024-6.235-5.415a1.992,1.992,0,0,1,.1-.632,7.331,7.331,0,0,1,3.871-4.3,2.024,2.024,0,0,1,.5-.173,36.285,36.285,0,0,1,7.087-.722,2.07,2.07,0,0,1,.208.011c.5.052,1.056.1,1.667.13a6.351,6.351,0,0,1-.585-2.168,2.074,2.074,0,0,1-.011-.209,10.67,10.67,0,0,1,.323-2.212,9.049,9.049,0,0,0,.224-2.159,7.564,7.564,0,0,0-.551-2.7,1.819,1.819,0,0,0-.477-.8,2,2,0,0,1-.265-.255,5.838,5.838,0,0,1-1.382-2.33,2.014,2.014,0,0,1-.057-.477,6.513,6.513,0,0,1,1.319-4.022,4.4,4.4,0,0,1,3.822-1.94h4.919c4.267,0,8.239-.122,11.843-.362a7.259,7.259,0,0,1-.044-.781,2.023,2.023,0,0,1,.014-.233c.219-1.865,1.547-4.089,6.632-4.089a1.977,1.977,0,0,1,.434.048c4.02.894,6.189,2.529,6.455,4.865,7.144-.036,8.9-.255,9.33-.353a1.945,1.945,0,0,1,.449-.051h2.349q1.23-.484,2.568-.973a2,2,0,0,1,.684-.121,11.221,11.221,0,0,1,4.992,1.3,1.932,1.932,0,0,1,.307.189c2.377,1.782,3.532,3.558,3.532,5.425a6.084,6.084,0,0,1-.986,3.244,2,2,0,0,1-.8.731,3,3,0,0,0-.935.916,5.954,5.954,0,0,0-.834,2.426c-.106,2.724-.937,4.355-1.968,5.324q2.715-.023,5.438-.022c2.421,0,9.787,0,9.787,4.869,0,1.07-.383,4.537-5.289,4.6a43.21,43.21,0,0,1-5.045.275c-1.5,0-3.1-.064-4.783-.189a6.684,6.684,0,0,1,1.33.929,1.988,1.988,0,0,1,.4.494c.862,1.49,1.9,3.672,1.054,5.5a13.515,13.515,0,0,1-.96,1.817,20.862,20.862,0,0,0-.668,2.591c-.184,1.549-.455,3.539-.805,5.915a44.842,44.842,0,0,0-.145,5.56,1.9,1.9,0,0,1,.016.25,17.138,17.138,0,0,0,.085,1.759,5.269,5.269,0,0,1,.6,2.2c0,1.168-.609,2.41-1.975,4.024a2,2,0,0,1-.713.535,9.361,9.361,0,0,1-3.819.72h-.622c.1.185.2.38.283.583a23.926,23.926,0,0,0,4.524,3.28,7.556,7.556,0,0,1,4.192,3.554,2,2,0,0,1,.18.83,3.4,3.4,0,0,1-2.693,3.357q3.7.108,7.251.108a42.855,42.855,0,0,0,8.875-.913c2.117-.369,4.076-.725,5.946-1.081a9.879,9.879,0,0,1,2.8-.6c3.09,0,4.185,1.961,4.185,3.64,0,1.918-1.332,4.759-11,12.492C779.309,888.5,775.257,890.235,771.783,890.235ZM729.022,867.98c9.383,1.293,18.339,2.217,26.795,2.765-.461-.14-.9-.3-1.324-.47-3.539-1.415-5.341-3.464-5.341-6.086a7.673,7.673,0,0,1,2.043-5.605c-1.513-.121-3.126-.182-4.824-.182-7.237,0-12.152.149-15.479.362a5.087,5.087,0,0,1,1.494,3.649,5.67,5.67,0,0,1-2.647,5.068C729.505,867.654,729.267,867.821,729.022,867.98Zm24.352-50.018c-1.7.009-3.352.079-4.938.21q2.536-.087,5.1-.153Zm-29.488-7.2c3.711-.273,7.418-.431,11.057-.474v-1.467c-4.123.039-7.949.2-11.4.488Q723.659,809.8,723.886,810.758Zm33.831-1.032a2.081,2.081,0,0,1,.49-.63h0a2.342,2.342,0,0,0,.273-.612c-.234-.068-.545-.144-.954-.223H746.6c-.038.511-.075,1-.114,1.465Zm-72.964,37.882a7.143,7.143,0,0,1-5.432-2.419,1.965,1.965,0,0,1-.142-.172,8.288,8.288,0,0,1-1.891-4.873,7.115,7.115,0,0,1,.759-3.218c.03-.061.063-.119.1-.177a4.53,4.53,0,0,1,3.875-2.431,11.834,11.834,0,0,1,3.446.544,26.9,26.9,0,0,0,9.609-2.04,2.008,2.008,0,0,1,.743-.143,3.86,3.86,0,0,1,4.05,4.185c0,2.5-2.608,4.228-3.672,4.89a28.618,28.618,0,0,1-5.45,3.773A9.91,9.91,0,0,1,684.753,847.608Zm13.39-25.275a2,2,0,0,1-.5-.063,26.012,26.012,0,0,0-6.468-.893h-6.559c-2.8,0-4.572-1.52-4.728-4.064,0-.041,0-.082,0-.123a8.956,8.956,0,0,1,1.7-4.934q.048-.073.1-.141c2.244-2.8,4.364-4.165,6.481-4.165,2.342,0,4.456,1.193,6.286,3.546a23.521,23.521,0,0,0,4.129,3.409c.812.435,3.062,1.679,3.062,3.925A3.317,3.317,0,0,1,698.143,822.333Z" transform="translate(0)" fill="#fff"/><path d="M740.223,796.834q4.918,1.094,4.918,3.415a11.609,11.609,0,0,1-.136,1.5q10.109,0,11.886-.409h2.732q1.363-.546,2.869-1.094a9.216,9.216,0,0,1,4.1,1.094q2.731,2.049,2.732,3.825a4.1,4.1,0,0,1-.682,2.186,4.935,4.935,0,0,0-1.64,1.5,8.183,8.183,0,0,0-1.23,3.416q-.137,4.92-3.689,4.918a27.566,27.566,0,0,1-4.508-.545,9.867,9.867,0,0,1-3.826-.684,61.07,61.07,0,0,0-9.427.684v3.142c0,.357-.045.539-.131.546h0q13.248-.543,27.046-.546,7.788,0,7.787,2.869,0,2.6-3.415,2.6a40.837,40.837,0,0,1-4.918.274q-2.666,0-5.739-.274-11.751.548-27.871,1.093-19.812,1.1-29.784,2.322-4.236,0-4.235-3.415a5.377,5.377,0,0,1,2.869-3.143,34.1,34.1,0,0,1,6.694-.683q2.343.245,6.131.245,6.819,0,18.325-.791v-4.235a14.431,14.431,0,0,1-3.688.545q-5.195.549-9.018,1.094a20.045,20.045,0,0,1-6.284,1.5q-1.917,0-2.187-2.6a9.227,9.227,0,0,1,.274-1.775,10.861,10.861,0,0,0,.273-2.6,9.515,9.515,0,0,0-.683-3.416,3.726,3.726,0,0,0-1.093-1.639,4.277,4.277,0,0,1-.956-1.5,4.531,4.531,0,0,1,.956-2.869,2.383,2.383,0,0,1,2.185-1.093h4.919q7.923,0,14.346-.547a7.768,7.768,0,0,1-.547-2.6q.273-2.322,4.646-2.322m4.235,14.892h13.525a1.372,1.372,0,0,0,1.5-1.093,4.959,4.959,0,0,0,1.23-2.869q0-.954-3-1.5h-12.98q-.137,2.049-.273,3.689v1.776m-21.313,1.093q6.967-.544,13.8-.547v-5.464q-7.787,0-14.072.546-1.228,0-1.366,2.049.135.549.683,2.869c.09.366.41.547.957.547m-34.976-2.869q2.592,0,4.781,2.869a25.4,25.4,0,0,0,4.646,3.826q2.049,1.094,2.05,2.185a1.328,1.328,0,0,1-1.5,1.5,27.89,27.89,0,0,0-6.968-.956h-6.559q-2.6,0-2.732-2.187a7.005,7.005,0,0,1,1.366-3.825q2.732-3.412,4.919-3.415m75.007,18.717a4.017,4.017,0,0,1,2.732,1.094q1.5,2.6.956,3.688a12.152,12.152,0,0,1-.956,1.777,22.805,22.805,0,0,0-.82,3.141q-.276,2.325-.819,6.012a49.765,49.765,0,0,0-.137,6.012,18.559,18.559,0,0,0,.137,2.322,4.218,4.218,0,0,1,.545,1.64,5.118,5.118,0,0,1-1.5,2.732,7.378,7.378,0,0,1-3,.547h-2.324a4.8,4.8,0,0,0-2.595-.547,53.634,53.634,0,0,0-9.017-.683q-18.173,0-22.134,1.23a8.055,8.055,0,0,0-3.006.546,4.056,4.056,0,0,1-2.048.547,5.81,5.81,0,0,1-2.459-1.64,4.787,4.787,0,0,1-.684-2.322,3.745,3.745,0,0,1,.684-1.5,13.407,13.407,0,0,0,.956-3.416,16.934,16.934,0,0,0,.41-4.918q0-6.558-1.366-8.608a4.61,4.61,0,0,1-1.5-2.869q.27-2.184,1.229-2.595,1.5-1.64,2.459-1.64a9.679,9.679,0,0,1,2.05.547h3.688q5.328,0,10.793-.547h9.974q10.791,0,13.39-.547h4.372m-38.939,8.607h.274q5.738,0,13.8-.41H750.2a42.653,42.653,0,0,1,4.508-.271,18.632,18.632,0,0,1,3.416.271v-1.093q0-1.638-1.5-1.639a40.874,40.874,0,0,0-7.924-.683q-14.62.685-23.089,1.23a1.948,1.948,0,0,0-1.5,2.185l.136.41m33.61,3.416q-9.837.549-18.58.546-8.609.549-14.62,1.094v2.6q5.6-.546,12.98-.547h11.886a46.862,46.862,0,0,1,4.679-.272,17.734,17.734,0,0,1,3.382.272q.134-2.049.273-3.689m-.41,7.651q-9.975.548-18.717.547-8.2.409-14.073.956v1.094q0,1.776.82,1.775,8.2-.543,15.3-.546h13.251q3.281,0,3.28-2.323a11.315,11.315,0,0,1,.136-1.5m-61.618-13.662q2.051,0,2.05,2.185,0,1.506-2.869,3.28a26.524,26.524,0,0,1-5.328,3.689,7.968,7.968,0,0,1-4.919,1.775,5.191,5.191,0,0,1-3.962-1.775,6.476,6.476,0,0,1-1.5-3.689,5.121,5.121,0,0,1,.547-2.323,2.669,2.669,0,0,1,2.186-1.5,10,10,0,0,1,3.142.546,28.576,28.576,0,0,0,10.656-2.185m1.094,15.712q5.052,0,5.055,3.415,0,2.05-5.465,6.011-4.647,6.015-4.919,7.515a1.693,1.693,0,0,0,1.23.547,17.947,17.947,0,0,0,4.372-.547q5.463,0,16.668,1.093l-.273-.546a1.471,1.471,0,0,1,1.64-1.5,22.324,22.324,0,0,0,4.644-2.187,4.533,4.533,0,0,0,2.6-3.415,2.613,2.613,0,0,1,1.093-1.5,5.5,5.5,0,0,1,2.185-.546,8.711,8.711,0,0,1,2.459.546,3.417,3.417,0,0,1,2.187,3.142,3.722,3.722,0,0,1-1.777,3.416,13.9,13.9,0,0,1-6.421,2.6,5.8,5.8,0,0,1-2.6.683,42.3,42.3,0,0,0,6.968.546,333.882,333.882,0,0,0,46.861,3.69,44.638,44.638,0,0,0,9.291-.957q3.141-.544,6.012-1.093a10.593,10.593,0,0,1,2.322-.547q2.184,0,2.185,1.64,0,2.735-10.246,10.93-6.7,4.918-11.2,4.918a39.163,39.163,0,0,1-11.2-3.415,60.655,60.655,0,0,0-8.606-2.6q-5.467-1.64-13.39-3.415-12.3-2.05-23.909-3.143-12.572-1.092-21.177-1.093-2.46,0-7.924,3.279-4.236,2.734-6.968,2.733-4.374-.683-5.329-6.7.956-4.78,4.1-6.558,4.1,0,7.788-4.235a23.21,23.21,0,0,0,6.694-8.334q2.322-4.371,5.056-4.372m57.929,8.334a3.462,3.462,0,0,1,3.415,2.6,24.176,24.176,0,0,0,5.328,3.962,5.887,5.887,0,0,1,3.279,2.6q0,1.776-3.825,1.775a20.813,20.813,0,0,1-7.788-1.229q-4.1-1.639-4.1-4.236,0-4.371,3.69-5.464m-14.619-65.891c-6.387,0-8.073,3.26-8.509,5.214-3.077.167-6.4.251-9.936.251h-4.919a6.332,6.332,0,0,0-5.458,2.788,8.589,8.589,0,0,0-1.683,5.174,3.988,3.988,0,0,0,.116.955,7.639,7.639,0,0,0,1.807,3.156,4.046,4.046,0,0,0,.348.357c.01.022.021.049.033.082a5.648,5.648,0,0,1,.428,2.008,6.911,6.911,0,0,1-.154,1.628c-.008.031-.015.062-.022.093a12.321,12.321,0,0,0-.371,2.65c0,.081,0,.162.008.243a38.591,38.591,0,0,0-6.766.754,4,4,0,0,0-1.007.346q-.252.126-.493.262c-.014-2.271-1.38-4.162-4.062-5.623a21.493,21.493,0,0,1-3.631-3.009c-2.751-3.475-5.74-4.213-7.783-4.213-2.764,0-5.394,1.608-8.042,4.916-.072.09-.141.184-.2.28a10.914,10.914,0,0,0-2.038,6.044c0,.083,0,.165.007.246.223,3.609,2.862,5.941,6.725,5.941h6.559a24.052,24.052,0,0,1,5.967.829,4.022,4.022,0,0,0,1,.127,6.256,6.256,0,0,0,1.046-.087,4.01,4.01,0,0,0-.128,1.006c0,3.421,2.156,7.415,8.235,7.415a4,4,0,0,0,.489-.03q1.643-.2,3.576-.4-.063.351-.11.723a4.048,4.048,0,0,0-.03.492,7.945,7.945,0,0,0,2.225,5.2c.162.406.644,1.97.644,6.275a22.417,22.417,0,0,1-.167,3.545,3.878,3.878,0,0,0-.182.678,11.638,11.638,0,0,1-.55,2.218,6.557,6.557,0,0,0-1.151,3.4,8.736,8.736,0,0,0,1.19,4.271,4.085,4.085,0,0,0,.476.677,9.49,9.49,0,0,0,2.41,1.983c-.477.222-1.059.47-1.769.739a5.4,5.4,0,0,0-3.336,1.707c-5.078-.456-9.1-.716-12.176-.788q.234-.309.491-.644c4.709-3.489,6.642-6.09,6.642-8.9,0-3.585-2.379-7.415-9.055-7.415-3.409,0-6.3,2.185-8.588,6.5-.022.042-.044.084-.064.127a19.1,19.1,0,0,1-5.548,6.922,3.931,3.931,0,0,0-.567.535c-1.653,1.9-3.258,2.862-4.771,2.862a3.991,3.991,0,0,0-1.968.518c-3.144,1.777-5.181,4.891-6.053,9.256a3.983,3.983,0,0,0-.028,1.411c1.228,7.734,5.955,9.6,8.663,10.02a3.975,3.975,0,0,0,.616.048c2.619,0,5.59-1.091,9.08-3.336,4.352-2.606,5.759-2.674,5.817-2.676,5.579,0,12.588.363,20.826,1.078,7.573.715,15.484,1.753,23.488,3.085,5.129,1.152,9.5,2.269,13.008,3.319.084.025.169.048.255.067a57.29,57.29,0,0,1,7.955,2.389,42.515,42.515,0,0,0,12.3,3.7,4.014,4.014,0,0,0,.452.025c3.915,0,8.354-1.862,13.571-5.694.044-.032.088-.066.131-.1,9.782-7.827,11.747-11.181,11.747-14.054,0-2.717-1.935-5.64-6.185-5.64a11.66,11.66,0,0,0-3.282.658c-1.863.354-3.791.7-5.734,1.04l-.149.029a40.8,40.8,0,0,1-8.46.87q-1.365,0-2.753-.016a5.618,5.618,0,0,0,.2-1.449,4.009,4.009,0,0,0-.36-1.66,9.343,9.343,0,0,0-5.1-4.506q-.622-.373-1.139-.707.344-.122.669-.267a4,4,0,0,0,1.427-1.07c1.693-2,2.448-3.64,2.448-5.316a6.771,6.771,0,0,0-.635-2.714c-.031-.394-.047-.812-.047-1.248a3.96,3.96,0,0,0-.032-.5,49.208,49.208,0,0,1,.152-5.108c.342-2.321.608-4.275.793-5.815a18.288,18.288,0,0,1,.523-2.061,14.98,14.98,0,0,0,.957-1.842,6.741,6.741,0,0,0-.255-5.541l.42,0a45.478,45.478,0,0,0,5.177-.277c5.276-.11,7.156-3.6,7.156-6.593,0-1.27-.444-4.388-4.564-5.9a21.377,21.377,0,0,0-7.223-.964l-1.989,0a12.463,12.463,0,0,0,.51-3.071,4.777,4.777,0,0,1,.454-1.477,2.541,2.541,0,0,1,.315-.36,4,4,0,0,0,1.508-1.411,8.05,8.05,0,0,0,1.289-4.3c0-3.775-3.26-6.221-4.332-7.025a3.967,3.967,0,0,0-.612-.378,13.2,13.2,0,0,0-5.887-1.516,4,4,0,0,0-1.369.242c-.77.28-1.527.566-2.261.852h-1.971a3.981,3.981,0,0,0-.9.1,58.379,58.379,0,0,1-7.378.291c-.858-1.9-2.947-3.788-7.525-4.807a4.021,4.021,0,0,0-.868-.1ZM734.162,860.6c2.985-.12,6.949-.2,12.209-.2q.705,0,1.387.015a11.308,11.308,0,0,0-.606,3.772,7.07,7.07,0,0,0,1.2,3.979q-7.284-.642-15-1.63a8.237,8.237,0,0,0,1.038-4.125,7.291,7.291,0,0,0-.224-1.81Zm-38.343-29.924a4,4,0,0,0-1.486.286,25.077,25.077,0,0,1-8.6,1.891,13.675,13.675,0,0,0-3.713-.538,6.5,6.5,0,0,0-5.563,3.359c-.072.114-.139.232-.2.353a9.119,9.119,0,0,0-.97,4.114,10.322,10.322,0,0,0,2.279,6.056,3.912,3.912,0,0,0,.284.345,9.19,9.19,0,0,0,6.9,3.063,11.827,11.827,0,0,0,7.063-2.385,30.626,30.626,0,0,0,5.578-3.858c1.387-.876,4.475-3.035,4.475-6.5a5.854,5.854,0,0,0-6.05-6.185Z" transform="translate(0)" fill="#fff"/><path d="M900.347,879.306c-3.43,0-5.568-2.974-6.355-8.839a2.086,2.086,0,0,1-.017-.306c.271-13.462.409-27.054.409-40.4a5.722,5.722,0,0,0-.62-3.4c-.015-.021-.03-.044-.044-.066h-4.5c.009.193.012.392.012.6,0,19.711-2.246,31.923-6.864,37.308a19.134,19.134,0,0,1-9.212,9.338,16.885,16.885,0,0,1-11.062,3.581c-1.991,0-4.428-1.278-4.73-7.366a1.808,1.808,0,0,1,.009-.312c.441-4.129,2.537-5.839,4.218-6.547a1.945,1.945,0,0,1,.529-.142,15.26,15.26,0,0,0,7.6-3.534,1.936,1.936,0,0,1,.2-.14,12.858,12.858,0,0,0,4.507-4.747c2.9-5.72,4.39-13.321,4.39-22.521a24.469,24.469,0,0,0-.431-4.632q-1.338.26-2.551.56c-3.178.709-5.944,1.451-8.271,2.219l-3.6,2.057a5.883,5.883,0,0,1-3.23.84,4.308,4.308,0,0,1-4.358-3.009c-.015-.047-.03-.1-.042-.143a5,5,0,0,1-.014-2.734,7.793,7.793,0,0,1,2.444-4.627,18.6,18.6,0,0,1,7.428-4.842,2,2,0,0,1,.689-.122H870.7a90.226,90.226,0,0,0,12.691-1.072,1.973,1.973,0,0,1,.288-.021h2.369a14.354,14.354,0,0,0,.413-2.509c0-.019,0-.038,0-.057a4.079,4.079,0,0,0-1.721-.54,3.647,3.647,0,0,1-3.882-3.775,2.043,2.043,0,0,1,.086-.581,6.994,6.994,0,0,1,5.971-5.082,2.09,2.09,0,0,1,.315-.025,17.541,17.541,0,0,0,3.787-.434,8.79,8.79,0,0,1,4-1.343c.854,0,1.945.347,4.741,2.076.051.031.1.065.148.1a6.53,6.53,0,0,1,2.986,5.288c0,3.274-1.8,4.626-3.65,4.839a7.217,7.217,0,0,0-2.293,2.042h.254c4.075,0,9.472.184,16.04.546h9.235c3.664,0,7.651-.182,11.853-.539.057-.005.113-.007.17-.007a3.349,3.349,0,0,1,3.64,3.5,1.908,1.908,0,0,1-.016.25c-.132,1.049-.868,2.432-4.105,6.052-2.816,3.985-5.891,6.072-9.147,6.211a6.239,6.239,0,0,1-4.036-.114c-.069-.026-.137-.055-.2-.087-.742-.369-2.48-1.3-5.311-2.858A32.459,32.459,0,0,0,906.61,827c-.027.123-.055.248-.087.373a27.756,27.756,0,0,0-.627,5.069l0,38.852c.155,6.247-3.228,7.69-5.259,7.99A1.914,1.914,0,0,1,900.347,879.306Zm-84.435-1.64a6.48,6.48,0,0,1-4.079-1.5c-2.186-1.587-3.249-3.182-3.249-4.872a2,2,0,0,1,.015-.245,5.514,5.514,0,0,1,1.932-3.354,25.461,25.461,0,0,1,3.19-2.891c2.08-1.49,3.177-4.324,3.335-8.478a17.551,17.551,0,0,0-.416-4.981l-.029-.027c-1.669-1.528-2.289-2.483-2.289-3.523a2.076,2.076,0,0,1,.034-.369c.3-1.607,1.51-3.685,5.549-4.464.046-.009.093-.016.139-.022a10.767,10.767,0,0,1,1.275-.081A5.786,5.786,0,0,1,827.447,848a48.9,48.9,0,0,1,.439,7.309,60,60,0,0,1-.5,7.771l4.838-.6a16.21,16.21,0,0,1-.136-2.112c0-6.557-.228-12.756-.678-18.423,0-.052-.006-.105-.006-.158,0-1.781-.084-3.681-.25-5.651H830.3a14.528,14.528,0,0,0-3.389.884,9.069,9.069,0,0,1-3.762.755,7.041,7.041,0,0,1-4.531-1.533,2.036,2.036,0,0,1-.331-.338,7.605,7.605,0,0,1-1.782-4.637,8.091,8.091,0,0,1,1.03-3.491,5.993,5.993,0,0,0,.745-2.93,1.849,1.849,0,0,1,.01-.2c.175-1.754.264-3.526.264-5.267a2.159,2.159,0,0,0-.771-1.869,2,2,0,0,1-.6-.844,8.169,8.169,0,0,1-.538-2.889A1.993,1.993,0,0,1,816.8,813a7.229,7.229,0,0,1,5.885-4.339,2.022,2.022,0,0,1,.33-.027h2.732a2,2,0,0,1,1.252.44,3.856,3.856,0,0,0,2.437.653c4.522,0,9.268-.177,14.111-.525,1.078-.335,2.217-.716,3.388-1.135a10.1,10.1,0,0,1,3.4-.663,10.48,10.48,0,0,1,3.55.666,2,2,0,0,1,1.055.889c1.673,2.927,1.9,4.045,1.9,4.817a6.85,6.85,0,0,1-.758,3.079,9.4,9.4,0,0,1-1.682,2.5,18.229,18.229,0,0,0-.7,5.49,3.07,3.07,0,0,0,.07.754,2,2,0,0,1,.374.665,11.1,11.1,0,0,1,.512,3.5c0,.045,0,.09,0,.134a5.776,5.776,0,0,1-2.7,4.611,5.607,5.607,0,0,1-3.666,1.626,1.878,1.878,0,0,1-.29-.022c-1.921-.281-3.667-.473-5.22-.576a10.034,10.034,0,0,1-.007,1.441c-.065,2.088-.156,4.082-.268,5.951h.867a63.4,63.4,0,0,0,7.41-.532,1.937,1.937,0,0,1,.241-.015,12.493,12.493,0,0,1,4.234.666,2.01,2.01,0,0,1,.585.333,5.621,5.621,0,0,1,2.231,4.192,10.339,10.339,0,0,1,3.562-3.511,24.3,24.3,0,0,0,4.176-4.9,2.033,2.033,0,0,1,.477-.567,6.862,6.862,0,0,1,4.409-1.682,1.9,1.9,0,0,1,.292.022c4.1.6,6.353,3.248,6.353,7.443a4.212,4.212,0,0,1-2.122,4c-.556.422-1.733,1.03-5.324,2.377-.039.013-.078.027-.117.039a30.465,30.465,0,0,1-8.646,1.591,3.2,3.2,0,0,1-3.335-2.962,3.978,3.978,0,0,1-4.042,2.415h-1.366c-2.793,0-6.266.138-10.342.414-.042,2.358-.028,4.874.044,7.5,0,.578-.021,1.138-.063,1.682,4.026-.361,8.126-.882,12.223-1.551a1.947,1.947,0,0,1,.323-.027c1.825,0,3.777,1.136,3.777,4.322a8.51,8.51,0,0,1-1.515,4.171,4.624,4.624,0,0,1-4.175,2.748c-8.353,0-14.638.181-18.678.538-6.944.49-8.295,1.18-8.5,1.313a2.039,2.039,0,0,1-.293.162,25.606,25.606,0,0,0-4.931,3.044A7.282,7.282,0,0,1,815.912,877.666Zm13.353-58.4a51.593,51.593,0,0,1-.5,7.89c4.635-.316,9.465-.481,14.375-.492.007-.089.011-.2.011-.323a1.8,1.8,0,0,1,.01-.194c.252-2.606.386-5.129.4-7.506-3.072,0-7.793.181-14.04.529A2.711,2.711,0,0,0,829.265,819.27Zm92.122,34.9a16.37,16.37,0,0,1-8.269-1.98c-3.961-1.668-4.8-4.492-4.8-6.579a7.963,7.963,0,0,1,5.038-7.849,1.991,1.991,0,0,1,.788-.161c1.537,0,4.257.58,5.506,4.39a16.488,16.488,0,0,0,3.968,3.524,6.747,6.747,0,0,1,3.8,4.362,2,2,0,0,1,.067.517C927.485,852.113,926.428,854.167,921.387,854.167Z" transform="translate(0)" fill="#fff"/><path d="M895.018,803.938q.819,0,3.689,1.777a4.632,4.632,0,0,1,2.186,3.688q0,2.87-2.186,2.869a9.551,9.551,0,0,0-3.962,3.689q-.548,1.23-.957,2.323H897.2q6.149,0,15.984.546h9.291q5.6,0,12.023-.546,1.641,0,1.64,1.5-.138,1.1-3.689,5.055-3.826,5.465-7.925,5.465a4.257,4.257,0,0,1-3,0q-1.1-.545-5.329-2.869a34.764,34.764,0,0,0-11.2-2.6h-.137a8.529,8.529,0,0,1-.272,2.05,29.6,29.6,0,0,0-.684,5.464v38.938q.135,5.466-3.551,6.012-3.418,0-4.372-7.105.41-20.355.409-40.44a7.407,7.407,0,0,0-.956-4.509,2.944,2.944,0,0,1-.41-.957h-8.2a6.72,6.72,0,0,1,.41,2.6q0,28.965-6.557,36.2a17.156,17.156,0,0,1-8.608,8.744,14.794,14.794,0,0,1-9.973,3.278q-2.46,0-2.733-5.465.409-3.823,3.006-4.918a17.127,17.127,0,0,0,8.607-3.962,14.948,14.948,0,0,0,5.192-5.465q4.643-9.151,4.645-23.5a25.908,25.908,0,0,0-.683-6.012v-.956q-2.6.41-4.782.956a87.934,87.934,0,0,0-8.608,2.323l-3.825,2.186a3.879,3.879,0,0,1-2.185.547,2.32,2.32,0,0,1-2.46-1.64,2.89,2.89,0,0,1,0-1.776,5.842,5.842,0,0,1,1.913-3.689,16.491,16.491,0,0,1,6.694-4.372H870.7a91.8,91.8,0,0,0,12.979-1.093h3.963a25,25,0,0,0,.819-4.509q.135-2.049-3.552-2.6-2.05,0-2.05-1.777a5.025,5.025,0,0,1,4.372-3.688,19.64,19.64,0,0,0,4.509-.547,7.749,7.749,0,0,1,3.279-1.23M850.342,809.4a8.438,8.438,0,0,1,2.869.547,10.657,10.657,0,0,1,1.64,3.825,4.862,4.862,0,0,1-.547,2.186,7.766,7.766,0,0,1-1.64,2.323,19.183,19.183,0,0,0-.956,6.558,2.9,2.9,0,0,0,.547,2.05,9.112,9.112,0,0,1,.409,2.869,3.8,3.8,0,0,1-1.912,3.141,3.911,3.911,0,0,1-2.46,1.23,55.975,55.975,0,0,0-7.924-.683,9.06,9.06,0,0,1,.41,3.415q-.137,4.375-.41,8.062h3.006a65.079,65.079,0,0,0,7.651-.547,10.407,10.407,0,0,1,3.552.547,3.631,3.631,0,0,1,1.5,2.869q0,2.049-2.322,2.049h-1.366q-4.92,0-12.3.547-.138,4.374,0,9.426a17.071,17.071,0,0,1-.409,3.827q7.377-.546,14.891-1.777,1.774,0,1.777,2.322a6.976,6.976,0,0,1-1.23,3.143,2.814,2.814,0,0,1-2.46,1.776q-12.707,0-18.853.546-7.789.549-9.428,1.64a27.426,27.426,0,0,0-5.328,3.279,5.26,5.26,0,0,1-3.143,1.093,4.519,4.519,0,0,1-2.869-1.093q-2.459-1.773-2.459-3.279a3.662,3.662,0,0,1,1.366-2.186,23.478,23.478,0,0,1,3.006-2.732q3.823-2.732,4.1-9.974,0-6.009-1.093-6.558-1.639-1.5-1.64-2.049.411-2.184,3.962-2.869a8.641,8.641,0,0,1,1.035-.066,3.791,3.791,0,0,1,4.158,3.481,46.974,46.974,0,0,1,.409,6.968,57.609,57.609,0,0,1-.683,8.88c0,.731.227,1.093.683,1.093q4.371-.543,8.744-1.093a12.912,12.912,0,0,1-.546-3.825q0-9.971-.684-18.581,0-2.87-.273-6.012a7.233,7.233,0,0,1,.137-1.639h-3.143a17.5,17.5,0,0,0-4.1,1.094,7.01,7.01,0,0,1-2.869.545,5.07,5.07,0,0,1-3.278-1.092,5.66,5.66,0,0,1-1.366-3.416,6.334,6.334,0,0,1,.819-2.6,7.958,7.958,0,0,0,.956-3.825q.273-2.731.274-5.465a4.175,4.175,0,0,0-1.5-3.416,6.163,6.163,0,0,1-.41-2.186,5.288,5.288,0,0,1,4.372-3.142h2.732a5.73,5.73,0,0,0,3.689,1.093q6.969,0,14.483-.546,1.774-.546,3.688-1.23a8.106,8.106,0,0,1,2.733-.547m-22.27,19.811q7.512-.545,15.575-.547,1.5,0,1.5-2.322.411-4.235.41-8.061,0-1.641-1.913-1.639-4.784,0-14.482.545-1.914.549-1.913,1.64a49.264,49.264,0,0,1-.546,8.608q0,1.776,1.366,1.776m42.627,9.7q4.643.686,4.645,5.465a2.267,2.267,0,0,1-1.23,2.323,22.743,22.743,0,0,1-4.918,2.186,28.858,28.858,0,0,1-8.061,1.5q-1.366,0-1.366-1.5,0-1.092,3.142-3.28a26.363,26.363,0,0,0,4.646-5.464,4.9,4.9,0,0,1,3.142-1.23m43.447.684q2.73,0,3.688,3.278a17.575,17.575,0,0,0,4.782,4.372,4.865,4.865,0,0,1,2.869,3.143q0,1.776-4.1,1.776a14.269,14.269,0,0,1-7.378-1.776q-3.689-1.5-3.689-4.783a5.99,5.99,0,0,1,3.826-6.01m-19.128-39.66a10.1,10.1,0,0,0-4.7,1.447,15.357,15.357,0,0,1-3.089.33,4.047,4.047,0,0,0-.631.05,8.989,8.989,0,0,0-7.568,6.477,4.006,4.006,0,0,0-.173,1.161,5.5,5.5,0,0,0,3.016,5.1,84.63,84.63,0,0,1-11.175.878h-3.826a4,4,0,0,0-1.378.245,20.566,20.566,0,0,0-8.165,5.315,10.106,10.106,0,0,0-1.54,1.858,13.733,13.733,0,0,1,.411-2.448,11.5,11.5,0,0,0,1.721-2.678,8.829,8.829,0,0,0,.929-3.894c0-1.452-.608-3.081-2.167-5.81a4,4,0,0,0-2.111-1.776,12.452,12.452,0,0,0-4.231-.786,12.082,12.082,0,0,0-4.1.787c-1.049.375-2.084.723-3.071,1.033-4.715.334-9.334.5-13.736.5a2.24,2.24,0,0,1-1.185-.213,4,4,0,0,0-2.5-.88h-2.732a3.946,3.946,0,0,0-.66.055,9.307,9.307,0,0,0-7.4,5.535,4,4,0,0,0-.313,1.552,10.2,10.2,0,0,0,.665,3.593,4.006,4.006,0,0,0,1.209,1.687h0a.818.818,0,0,1,.038.323c0,1.675-.086,3.38-.254,5.068-.013.132-.02.264-.02.4a3.985,3.985,0,0,1-.479,1.931c-.019.035-.037.07-.055.105a9.829,9.829,0,0,0-1.241,4.385,9.549,9.549,0,0,0,2.2,5.859,3.989,3.989,0,0,0,.662.675,9.113,9.113,0,0,0,5.783,1.974,10.994,10.994,0,0,0,4.494-.89c.054-.024.108-.049.161-.076a8.726,8.726,0,0,1,1.5-.427c.065,1.174.1,2.314.1,3.4,0,.106,0,.211.013.316.445,5.615.671,11.761.671,18.265,0,.121,0,.243,0,.363l-.442.055c.16-1.814.241-3.644.241-5.473a50.214,50.214,0,0,0-.458-7.59l-.01-.06a7.732,7.732,0,0,0-8.1-6.8,12.689,12.689,0,0,0-1.515.1c-.093.011-.186.025-.278.043-5.414,1.045-6.794,4.244-7.135,6.059a3.967,3.967,0,0,0-.069.738c0,1.917,1.23,3.379,2.512,4.6a25.111,25.111,0,0,1,.221,3.929c-.1,2.4-.6,5.5-2.425,6.8-.049.036-.1.072-.145.11a27.687,27.687,0,0,0-3.375,3.054,7.4,7.4,0,0,0-2.5,4.519,4,4,0,0,0-.03.49c0,3.47,2.96,5.685,4.046,6.47a8.527,8.527,0,0,0,5.282,1.9,9.2,9.2,0,0,0,5.5-1.858l.069-.052a23.747,23.747,0,0,1,4.534-2.809,3.865,3.865,0,0,0,.472-.249c.284-.115,1.863-.649,7.608-1.054l.072,0c3.981-.352,10.206-.531,18.5-.531a6.348,6.348,0,0,0,2.973-.735c1.023,5.8,4.383,6.746,6.455,6.746a18.9,18.9,0,0,0,12.144-3.883,21.039,21.039,0,0,0,9.824-9.943c4.775-5.782,7.062-17.6,7.167-37h1.119a6.9,6.9,0,0,1,.042,1.278c0,.063,0,.125,0,.188,0,13.332-.138,26.911-.409,40.36a4.045,4.045,0,0,0,.035.612c1.173,8.738,5.181,10.573,8.337,10.573a4.077,4.077,0,0,0,.584-.043c2.157-.319,7.145-1.932,6.967-10.015V850.663a10.066,10.066,0,0,0,4.329,3.318,18.393,18.393,0,0,0,9.16,2.186c7.514,0,8.1-4.421,8.1-5.776a4,4,0,0,0-.135-1.033,8.7,8.7,0,0,0-4.71-5.572,15.447,15.447,0,0,1-3.2-2.759,7.525,7.525,0,0,0-7.291-5.429,4.007,4.007,0,0,0-1.576.323,10.124,10.124,0,0,0-4.672,3.851v-7.328a30.218,30.218,0,0,1,.3-3.193,29.929,29.929,0,0,1,6.259,1.8c2.836,1.557,4.519,2.462,5.288,2.843a3.813,3.813,0,0,0,.406.174,8.356,8.356,0,0,0,2.873.517,8.264,8.264,0,0,0,2.184-.3c3.781-.249,7.268-2.583,10.379-6.947,3.552-3.983,4.335-5.559,4.522-7.05a3.984,3.984,0,0,0,.032-.5,5.332,5.332,0,0,0-5.64-5.5q-.169,0-.339.015c-4.146.352-8.077.531-11.684.531H913.3c-3.763-.207-7.145-.356-10.118-.445a7.124,7.124,0,0,0,1.712-4.982,8.451,8.451,0,0,0-3.785-6.887c-.1-.073-.195-.14-.3-.2-2.835-1.752-4.351-2.374-5.792-2.374Zm-63.755,21.144c4.2-.224,7.638-.362,10.256-.414-.044,1.3-.122,2.643-.235,4.011-3.48.035-6.913.148-10.26.337q.2-2.05.239-3.934Zm37.108,10.712c2.226-.725,4.862-1.428,7.843-2.092l.1-.022.394-.1q.105,1.094.105,2.227,0,2.9-.2,5.576a9.656,9.656,0,0,0-5.323-2.429,3.951,3.951,0,0,0-.585-.043,8.816,8.816,0,0,0-5.676,2.134,4.009,4.009,0,0,0-.952,1.134,21.388,21.388,0,0,1-3.713,4.331c-.531.376-1.049.763-1.536,1.168a8.661,8.661,0,0,0-1.711-1.85,3.983,3.983,0,0,0-1.172-.666,14.417,14.417,0,0,0-4.914-.786,4.089,4.089,0,0,0-.482.029c-2.248.273-4.234.439-5.923.5.051-1.034.1-2.1.133-3.192q1.392.149,2.959.378a4.021,4.021,0,0,0,.58.042,7.535,7.535,0,0,0,4.876-2.029,7.858,7.858,0,0,0,2.752-3.177,6.49,6.49,0,0,0,4.806,1.928,7.854,7.854,0,0,0,4.264-1.128l3.361-1.92.02-.012Zm-7.236,22.6a32.345,32.345,0,0,0,9.231-1.678c.079-.024.157-.051.235-.08,1.2-.448,2.15-.823,2.923-1.148q-.418,1-.889,1.938a10.9,10.9,0,0,1-3.783,3.959,3.965,3.965,0,0,0-.391.279,13.312,13.312,0,0,1-6.591,3.106,4,4,0,0,0-1.058.283,8.854,8.854,0,0,0-.9.444,5.51,5.51,0,0,0-5.33-3.627,3.981,3.981,0,0,0-.645.053c-3.3.539-6.594.98-9.851,1.317-.044-1.759-.061-3.464-.053-5.1,3.241-.193,6.044-.291,8.364-.291h1.366a6.826,6.826,0,0,0,3.59-.947,5.291,5.291,0,0,0,3.787,1.494Z" transform="translate(0)" fill="#fff"/></g></g><g id="Text"><path d="M518.7,780.743c1.517-1.726,2.87-3.359,4.06-4.876h-3.919a29.1,29.1,0,0,0-4.666.257,4.809,4.809,0,0,0-2.123.934l.4-2.194,1.563.047h7.909l3.639-.023.934-.024-.606.7c-5.763,6.252-9.356,10.359-11.433,13.041l3.826.094,1.657.024a20.218,20.218,0,0,0,4.69-.4,4.211,4.211,0,0,0,2.192-1.26l-.489,2.5H510.679Q516.593,783.159,518.7,780.743Z" transform="translate(0)" fill="#231f20"/><path d="M540.938,787.416a5.438,5.438,0,0,1-2.334,1.8,8.414,8.414,0,0,1-3.335.63,6.088,6.088,0,0,1-4.154-1.191,4.6,4.6,0,0,1-1.353-3.709v-1.587l.023-1.12a57.429,57.429,0,0,0-.163-5.808,2.733,2.733,0,0,0-.536-1.517h3.709c-.279.21-.467.77-.56,1.7q-.139,1.434-.139,6.23c0,2.333.326,3.872.956,4.619a4.02,4.02,0,0,0,3.266,1.142,3.919,3.919,0,0,0,3.453-1.422c.676-.933,1-2.59,1-4.947q0-4.514-.139-5.739a2.547,2.547,0,0,0-.537-1.586h3.71a2.721,2.721,0,0,0-.561,1.563c-.023.42-.069,1.143-.093,2.146s-.047,2.217-.047,3.616.024,2.474.047,3.22.047,1.587.093,2.543a2.951,2.951,0,0,0,.561,1.563h-2.963Z" transform="translate(0)" fill="#231f20"/><path d="M548.894,784.033a20.864,20.864,0,0,0,.233,3.733,3.984,3.984,0,0,0,.652,1.8H546.63a4.953,4.953,0,0,0,.77-2.542,54.662,54.662,0,0,0,.256-6.136,24.527,24.527,0,0,0-.256-4.573,1.739,1.739,0,0,0-.77-1.4h2.847c.49,0,1.073.4,1.7,1.19l.373.49,2.38,3.01c2.5,3.2,4.479,5.645,5.972,7.372l.024-6.416c0-.933-.024-1.773-.047-2.5s-.07-1.26-.116-1.657a2.675,2.675,0,0,0-.537-1.493h2.566a.992.992,0,0,0-.326.56,4.5,4.5,0,0,0-.234,1.1q0,.21-.07,2.03c-.047,1.214-.07,2.356-.07,3.453v7.583h-1.749c-.63-.84-2.123-2.707-4.527-5.576l-6.019-7.419Z" transform="translate(0)" fill="#231f20"/><path d="M567.86,775.167c.093.141.187.28.281.443a1.874,1.874,0,0,1,.232.887,2.236,2.236,0,0,1-.56,1.4,4.9,4.9,0,0,1-1.609,1.12l.256-.607a2.032,2.032,0,0,0,.117-.559,2.506,2.506,0,0,0-.047-.4c-.047-.141-.116-.3-.186-.467a2.84,2.84,0,0,0-.3-.49c-.14-.163-.3-.373-.489-.583l1.866-1.283C567.6,774.841,567.743,775.027,567.86,775.167Z" transform="translate(0)" fill="#231f20"/><path d="M584.1,788.536a2.724,2.724,0,0,0,.956.35,4.531,4.531,0,0,0,1.143.14,3.007,3.007,0,0,0,1.866-.56,1.638,1.638,0,0,0,.748-1.376,1.678,1.678,0,0,0-.491-1.144,8.806,8.806,0,0,0-2.1-1.213,7.439,7.439,0,0,1-2.31-1.447,2.21,2.21,0,0,1-.7-1.609,2.162,2.162,0,0,1,1.1-1.89,5.637,5.637,0,0,1,3.055-.7h.514a6.556,6.556,0,0,1,.7.07c.35.047.653.07.91.093.187.023.443.07.793.141l-.07,1.936a3.411,3.411,0,0,0-1.213-1.12,3.69,3.69,0,0,0-1.656-.35,2.672,2.672,0,0,0-1.493.4,1.178,1.178,0,0,0-.584,1.05c0,.722.91,1.54,2.73,2.425l.256.141a7.208,7.208,0,0,1,2.17,1.376,1.9,1.9,0,0,1,.56,1.4,2.673,2.673,0,0,1-1.423,2.24,6.2,6.2,0,0,1-3.476.957,7.945,7.945,0,0,1-2.45-.3c-.653-.186-.98-.443-.98-.746l.023-.63a5.618,5.618,0,0,1,.14-1.12A3.359,3.359,0,0,0,584.1,788.536Z" transform="translate(0)" fill="#231f20"/><path d="M602.364,776.287l-.07,9.985V787a10.053,10.053,0,0,0,.117,1.587,2.447,2.447,0,0,0,.536.979h-3.1c.489-.373.863-1.609,1.073-3.709a84.044,84.044,0,0,0,.373-9.356,2.783,2.783,0,0,0-.141-.933,2.43,2.43,0,0,0-.536-.653h3.033a1.676,1.676,0,0,1,.467.046,1.188,1.188,0,0,1,.256.374l4.923,11.035,5.436-10.942.327-.42a1.526,1.526,0,0,1,.606-.093h2.613a3.257,3.257,0,0,0-.489,1.19,14.915,14.915,0,0,0-.14,2.379,75.511,75.511,0,0,0,.28,8.12,5.541,5.541,0,0,0,1,2.962h-4.013a3.956,3.956,0,0,0,.56-1.212c.046-.281.093-.63.14-1.074.024-.42.046-.77.046-1.026l-.046-.141-.047-1.842-.139-7.98-6.813,13.6Z" transform="translate(0)" fill="#231f20"/><path d="M629.124,789.7l-.117-.023v-.187l-.093-1.68a4.163,4.163,0,0,1-1.563,1.494,4.371,4.371,0,0,1-2.077.537,4.31,4.31,0,0,1-1.866-.4,2.791,2.791,0,0,1-1.236-1.073,4.134,4.134,0,0,1-.443-1.214,18.031,18.031,0,0,1-.118-2.333v-.443l.047-3.756v-.4a.908.908,0,0,0-.139-.56.718.718,0,0,0-.42-.326l1.772-.234h.117l.07-.023a.67.67,0,0,1,.443.117,1.318,1.318,0,0,1,.117.676l-.047,5.319v.141a3.8,3.8,0,0,0,.583,2.38,2.974,2.974,0,0,0,4.06-.164,5.9,5.9,0,0,0,.63-3.243v-2.636a6.832,6.832,0,0,0-.14-1.656.913.913,0,0,0-.4-.677l2.659-.257c-.024.3-.07.677-.093,1.12s-.047.933-.047,1.446l-.023,3.663V786.6c0,.583,0,1.026.023,1.33a3.468,3.468,0,0,0,.116.793,1.324,1.324,0,0,0,.444.839l-2.123.14Z" transform="translate(0)" fill="#231f20"/><path d="M634.606,788.536a2.731,2.731,0,0,0,.956.35,4.545,4.545,0,0,0,1.144.14,3.007,3.007,0,0,0,1.866-.56,1.639,1.639,0,0,0,.747-1.376,1.676,1.676,0,0,0-.49-1.144,8.8,8.8,0,0,0-2.1-1.213,7.444,7.444,0,0,1-2.309-1.447,2.21,2.21,0,0,1-.7-1.609,2.163,2.163,0,0,1,1.1-1.89,5.642,5.642,0,0,1,3.057-.7h.513a6.58,6.58,0,0,1,.7.07c.35.047.653.07.91.093.187.023.442.07.793.141l-.07,1.936a3.411,3.411,0,0,0-1.213-1.12,3.693,3.693,0,0,0-1.656-.35,2.678,2.678,0,0,0-1.494.4,1.18,1.18,0,0,0-.584,1.05c0,.722.911,1.54,2.731,2.425l.256.141a7.208,7.208,0,0,1,2.17,1.376,1.9,1.9,0,0,1,.56,1.4,2.674,2.674,0,0,1-1.424,2.24,6.2,6.2,0,0,1-3.475.957,7.945,7.945,0,0,1-2.45-.3c-.654-.186-.98-.443-.98-.746l.023-.63a5.545,5.545,0,0,1,.14-1.12A3.364,3.364,0,0,0,634.606,788.536Z" transform="translate(0)" fill="#231f20"/><path d="M643.331,776.24l2.03-1.073,1.143,1.563-1.983,1.05Zm.653,12.553a10.62,10.62,0,0,0,.14-2.147v-3.453a19.638,19.638,0,0,0-.14-2.986c-.092-.49-.233-.77-.42-.863l1.423-.071,1.238-.163c-.024.163-.047.444-.071.817s-.047.747-.047,1.12l-.023,4.34v1.305a11.814,11.814,0,0,0,.117,2.078,1.06,1.06,0,0,0,.444.792h-3.1A1.223,1.223,0,0,0,643.984,788.793Z" transform="translate(0)" fill="#231f20"/><path d="M654.319,789.843a5.781,5.781,0,0,1-3.989-1.447,4.741,4.741,0,0,1-1.61-3.709,5.074,5.074,0,0,1,1.82-4.037,6.782,6.782,0,0,1,4.643-1.563l1.4.07,1.237.21-.093,2.4a3.082,3.082,0,0,0-1.05-1.424,2.817,2.817,0,0,0-1.633-.467,3.774,3.774,0,0,0-2.94,1.307,4.829,4.829,0,0,0-1.143,3.336,3.9,3.9,0,0,0,1.143,2.893A3.849,3.849,0,0,0,655,788.583a5.027,5.027,0,0,0,1.89-.351,3.359,3.359,0,0,0,1.4-.932C658.285,788.886,656.723,789.843,654.319,789.843Z" transform="translate(0)" fill="#231f20"/><path d="M680.192,778.037a3.834,3.834,0,0,0-1.61-1.773,5.039,5.039,0,0,0-2.566-.63,6.307,6.307,0,0,0-4.6,1.61,6.059,6.059,0,0,0-1.656,4.48,6.132,6.132,0,0,0,1.819,4.642,6.67,6.67,0,0,0,4.876,1.774,8.248,8.248,0,0,0,1.4-.094,6.484,6.484,0,0,0,1.284-.373,5.733,5.733,0,0,0,2.192-1.33,4.2,4.2,0,0,1-2.123,2.519,7.8,7.8,0,0,1-4.013.981,8.245,8.245,0,0,1-5.832-2.1,6.935,6.935,0,0,1-2.287-5.366,7.066,7.066,0,0,1,2.45-5.693,10.219,10.219,0,0,1,6.789-2.053c.42,0,1.074.047,1.984.14s1.609.14,2.052.14Z" transform="translate(0)" fill="#231f20"/><path d="M693.117,780.37a4.491,4.491,0,0,1,1.423,3.524,5.552,5.552,0,0,1-5.973,5.949c-3.522,0-5.576-1.89-5.576-5.156a5.189,5.189,0,0,1,1.7-4.06,6.3,6.3,0,0,1,4.387-1.54A5.824,5.824,0,0,1,693.117,780.37Zm-7.046.653a3.922,3.922,0,0,0-.653,1.331,6.231,6.231,0,0,0-.257,1.819c0,2.917,1.54,4.806,3.989,4.806a2.777,2.777,0,0,0,2.4-1.143,5.848,5.848,0,0,0,.816-3.359,4.75,4.75,0,0,0-1.073-3.267,3.222,3.222,0,0,0-2.683-1.283A3.136,3.136,0,0,0,686.071,781.023Z" transform="translate(0)" fill="#231f20"/><path d="M697.059,788.652a16.754,16.754,0,0,0,.139-2.659l-.023-1.96v-5.88a24.185,24.185,0,0,0-.14-3.265c-.093-.537-.233-.864-.443-.957l2.683-.4c-.023.117-.046.583-.07,1.446s-.047,1.424-.047,1.727l-.023,8.119v1.82c0,.513,0,.957.023,1.307a5.328,5.328,0,0,0,.094.817,1.059,1.059,0,0,0,.443.792h-3.1A1.474,1.474,0,0,0,697.059,788.652Z" transform="translate(0)" fill="#231f20"/><path d="M702.658,788.652a16.6,16.6,0,0,0,.14-2.659l-.024-1.96v-5.88a24.24,24.24,0,0,0-.139-3.265c-.093-.537-.234-.864-.444-.957l2.684-.4c-.023.117-.047.583-.07,1.446s-.047,1.424-.047,1.727l-.024,8.119v1.82c0,.513,0,.957.024,1.307a5.2,5.2,0,0,0,.094.817,1.059,1.059,0,0,0,.443.792h-3.1A1.464,1.464,0,0,0,702.658,788.652Z" transform="translate(0)" fill="#231f20"/><path d="M717.053,787.346c0,.607-.444,1.167-1.33,1.7a5.806,5.806,0,0,1-3.01.794,5.3,5.3,0,0,1-3.873-1.447,5.171,5.171,0,0,1-1.47-3.9,5.243,5.243,0,0,1,1.54-3.967,5.706,5.706,0,0,1,4.083-1.446c2.543,0,4.246,1.236,4.246,3.01,0,.373-.233.606-.723.723a25.815,25.815,0,0,1-4.106.187l-1.563-.024-1.05-.023a2.7,2.7,0,0,0-.163.63l-.047.677c0,2.519,1.47,4.129,3.989,4.129a5.178,5.178,0,0,0,1.843-.3,6.383,6.383,0,0,0,1.634-1.027Zm-6.86-5.063.654.024,1.166.023h.374a10.139,10.139,0,0,0,2.192-.14.631.631,0,0,0,.42-.629,1.493,1.493,0,0,0-.653-1.191,2.448,2.448,0,0,0-1.586-.513,2.808,2.808,0,0,0-1.843.676,2.763,2.763,0,0,0-.98,1.75Z" transform="translate(0)" fill="#231f20"/><path d="M724.541,789.843a5.781,5.781,0,0,1-3.989-1.447,4.742,4.742,0,0,1-1.611-3.709,5.075,5.075,0,0,1,1.821-4.037,6.781,6.781,0,0,1,4.642-1.563l1.4.07,1.237.21-.094,2.4a3.076,3.076,0,0,0-1.05-1.424,2.812,2.812,0,0,0-1.632-.467,3.776,3.776,0,0,0-2.941,1.307,4.833,4.833,0,0,0-1.142,3.336,3.906,3.906,0,0,0,1.142,2.893,3.85,3.85,0,0,0,2.894,1.167,5.022,5.022,0,0,0,1.889-.351,3.369,3.369,0,0,0,1.4-.932C728.507,788.886,726.944,789.843,724.541,789.843Z" transform="translate(0)" fill="#231f20"/><path d="M729.86,780.16v-.723l1.33-.093.07-2.847,1.983-.489-.094,3.336h2.194l.186.023.047.116c0,.187-.186.351-.559.514a5.744,5.744,0,0,1-1.658.163h-.21l-.139,6.02v.163c0,1.493.42,2.146,1.377,2.146a1.835,1.835,0,0,0,.816-.163,3.236,3.236,0,0,0,.817-.537l-.094,1.027a3.212,3.212,0,0,1-1.166.746,3.685,3.685,0,0,1-1.423.281c-1.517,0-2.311-1.027-2.311-2.87v-.21l.141-6.556Z" transform="translate(0)" fill="#231f20"/><path d="M737.629,776.24l2.03-1.073,1.143,1.563-1.983,1.05Zm.653,12.553a10.62,10.62,0,0,0,.14-2.147v-3.453a19.638,19.638,0,0,0-.14-2.986c-.093-.49-.233-.77-.42-.863l1.423-.071,1.237-.163c-.023.163-.046.444-.07.817s-.047.747-.047,1.12l-.023,4.34v1.305a11.814,11.814,0,0,0,.117,2.078,1.059,1.059,0,0,0,.443.792h-3.1A1.227,1.227,0,0,0,738.282,788.793Z" transform="translate(0)" fill="#231f20"/><path d="M753.144,780.37a4.49,4.49,0,0,1,1.422,3.524,5.552,5.552,0,0,1-5.972,5.949c-3.523,0-5.576-1.89-5.576-5.156a5.185,5.185,0,0,1,1.7-4.06,6.292,6.292,0,0,1,4.386-1.54A5.827,5.827,0,0,1,753.144,780.37Zm-7.046.653a3.9,3.9,0,0,0-.654,1.331,6.232,6.232,0,0,0-.256,1.819c0,2.917,1.54,4.806,3.989,4.806a2.774,2.774,0,0,0,2.4-1.143,5.848,5.848,0,0,0,.816-3.359,4.75,4.75,0,0,0-1.073-3.267,3.22,3.22,0,0,0-2.682-1.283A3.134,3.134,0,0,0,746.1,781.023Z" transform="translate(0)" fill="#231f20"/><path d="M757.062,788.793a10.62,10.62,0,0,0,.14-2.147v-2.893a22.237,22.237,0,0,0-.14-3.22,1.456,1.456,0,0,0-.443-.956l2.5-.233.071.536.07.607v.3a5.381,5.381,0,0,1,1.7-1.307,5.566,5.566,0,0,1,2.123-.4,2.717,2.717,0,0,1,2.38.957c.443.653.677,2.053.677,4.223v2.986a7.925,7.925,0,0,0,.116,1.586,1.107,1.107,0,0,0,.443.723h-2.636l.093-2.613.024-3.079v-.56a3.728,3.728,0,0,0-.514-2.426,2.527,2.527,0,0,0-1.819-.514,2.7,2.7,0,0,0-2.077.677c-.4.467-.607,1.609-.607,3.406v2.193a13.381,13.381,0,0,0,.117,2.17,1.134,1.134,0,0,0,.444.746h-3.1A1.223,1.223,0,0,0,757.062,788.793Z" transform="translate(0)" fill="#231f20"/><path d="M776.449,782.167c-.816-1.8-1.4-2.707-1.75-2.776l2.007-.187h.233c.4,0,1.1,1.423,2.077,4.27l1.632,4.548c.771-1.8,1.424-3.453,2.007-4.968.21-.724.4-1.33.536-1.8a4.537,4.537,0,0,0,.164-1.073l-.07-.42-.186-.42h2.845a11.913,11.913,0,0,0-1.959,3.289c-.933,1.914-1.96,4.269-3.056,7.046h-1.611A79.226,79.226,0,0,0,776.449,782.167Z" transform="translate(0)" fill="#231f20"/><path d="M796.42,780.37a4.491,4.491,0,0,1,1.423,3.524,5.554,5.554,0,0,1-5.973,5.949c-3.522,0-5.576-1.89-5.576-5.156a5.185,5.185,0,0,1,1.7-4.06,6.3,6.3,0,0,1,4.387-1.54A5.826,5.826,0,0,1,796.42,780.37Zm-7.046.653a3.922,3.922,0,0,0-.653,1.331,6.231,6.231,0,0,0-.257,1.819c0,2.917,1.54,4.806,3.989,4.806a2.774,2.774,0,0,0,2.4-1.143,5.84,5.84,0,0,0,.817-3.359,4.755,4.755,0,0,0-1.073-3.267,3.222,3.222,0,0,0-2.683-1.283A3.134,3.134,0,0,0,789.374,781.023Z" transform="translate(0)" fill="#231f20"/><path d="M800.361,788.652a16.6,16.6,0,0,0,.14-2.659l-.023-1.96v-5.88a24.185,24.185,0,0,0-.14-3.265c-.093-.537-.234-.864-.443-.957l2.683-.4c-.023.117-.047.583-.07,1.446s-.047,1.424-.047,1.727l-.023,8.119v1.82c0,.513,0,.957.023,1.307a5.2,5.2,0,0,0,.094.817,1.059,1.059,0,0,0,.443.792h-3.1A1.469,1.469,0,0,0,800.361,788.652Z" transform="translate(0)" fill="#231f20"/><path d="M806.031,788.35l2.193-1.121,1.377,1.47-2.077,1.144Z" transform="translate(0)" fill="#231f20"/><path d="M816.109,781.724a3.727,3.727,0,0,1,.956-.561,6.136,6.136,0,0,1,2.451-.443c2.823,0,4.5,1.424,4.5,3.92a4.812,4.812,0,0,1-1.611,3.71,5.7,5.7,0,0,1-4.012,1.493,5.105,5.105,0,0,1-3.943-1.634,6.015,6.015,0,0,1-1.54-4.293,10.135,10.135,0,0,1,2.123-6.766,7.217,7.217,0,0,1,5.81-2.519l1.05.047.956.139a9.241,9.241,0,0,0-5.343,2.264,8.338,8.338,0,0,0-2.053,5.319A3.015,3.015,0,0,1,816.109,781.724Zm4.643,6.159a4.8,4.8,0,0,0,.84-2.963,3.771,3.771,0,0,0-.746-2.38,2.777,2.777,0,0,0-2.1-.816H818.7a3.218,3.218,0,0,0-2.38.839,3.328,3.328,0,0,0-.863,2.473,4.646,4.646,0,0,0,.816,2.894A2.545,2.545,0,0,0,818.419,789,2.8,2.8,0,0,0,820.752,787.883Z" transform="translate(0)" fill="#231f20"/><path d="M415.877,869.108q5.053.548,5.055,5.465,0,2.187-1.229,2.733-.685,1.5-5.739,4.372-5.738,3.688-9.29,3.688c-.912,0-1.366-.5-1.366-1.5q0-1.638,3.825-5.6a31.142,31.142,0,0,0,5.192-7.515A4.956,4.956,0,0,1,415.877,869.108Zm50-59.7a17.9,17.9,0,0,0,4.372-.547,8.744,8.744,0,0,1,2.459-.545q2.733,0,5.056,2.869,2.049,2.6,2.049,4.235-.685,2.325-3,7.787-1.506,6.014-2.323,9.7a5.409,5.409,0,0,1-1.777,4.372,4.471,4.471,0,0,1-3.825,1.64,2.468,2.468,0,0,1-2.049-1.093q-8.745,0-16.805.546-9.154.548-13.662,1.231a25.306,25.306,0,0,1-4.236.546q0,2.735-.136,5.464a5.825,5.825,0,0,1,2.869-.682q5.6-.546,13.935-.547,8.061-.543,17.352-1.093a78.554,78.554,0,0,0,13.116,0q14.344-.954,20.22-.41a39.286,39.286,0,0,0,9.563-1.093c1.182,0,1.776.365,1.776,1.093q0,1.506-3.688,6.422-2.187,2.868-4.236,2.869a27.85,27.85,0,0,1-7.24-1.229,51.385,51.385,0,0,0-7.242-.547,38.7,38.7,0,0,0-9.153-1.093q-5.876-.411-12.979-.41a146.289,146.289,0,0,0-15.712.956,75.171,75.171,0,0,0-9.974.547,26.923,26.923,0,0,0-6.012,1.776,5.408,5.408,0,0,1-2.869,1.093v4.372q1.5-.544,3.552-1.23,6.421-.545,18.445-.547,9.972-.545,22.406-.546a27.794,27.794,0,0,0,6.148-.546,5.488,5.488,0,0,1,2.186-.41,4.531,4.531,0,0,1,2.87-1.093,9.662,9.662,0,0,1,5.6,2.049q2.46,2.323,2.459,4.508a16.352,16.352,0,0,1-.683,3.28,12.856,12.856,0,0,0-.82,4.235q0,2.87.274,6.558.271,5.466.683,8.334a4.247,4.247,0,0,1-1.367,2.6,2.89,2.89,0,0,1-2.6,1.776q-3.553,0-4.508-8.334.544-8.608.546-15.849,0-1.091-4.1-1.093-19.264,0-33.2.547a121.427,121.427,0,0,0-18.854,2.322,4.872,4.872,0,0,1-2.459,1.64q-3.417-.544-3.689-5.055V839.6q0-15.3-.137-18.718-.547-1.094-.956-2.05a41.845,41.845,0,0,1-10.657.547q-5.328,0-5.328-3.962a9.779,9.779,0,0,1,1.229-2.6,3.274,3.274,0,0,1,2.6-1.093h1.23a3.785,3.785,0,0,0,3.006,1.093,26.26,26.26,0,0,0,13.8-3.963q6.42-3.688,6.968-8.06,1.092-3.962,4.645-3.962,5.328.548,5.055,4.918a9.631,9.631,0,0,1-2.6,6.012,17.931,17.931,0,0,1-2.049,2.869h4.782A194.706,194.706,0,0,0,465.881,809.4Zm-30.74,59.022q4.233,0,5.055,3.416a1.82,1.82,0,0,1-.683,1.5q-.138,1.228-.273,2.869-.276,2.049-.41,3.688,0,3.417-2.186,3.416-1.778,0-2.6-2.732a8.221,8.221,0,0,0-2.459-4.372,5.07,5.07,0,0,1,3.552-7.788Zm33.473-40.987q-10.522,0-19.811.683-9.7.546-16.394,1.093v5.465a16.374,16.374,0,0,1,4.235-.547q14.48-1.23,28.281-1.23h2.05A27.2,27.2,0,0,0,468.614,827.438ZM432.545,817.19c.09,0,.137.184.137.547q0,2.051-.137,4.919h.273q6.284,0,14.892-.547h22q.271-1.773.546-3.825,0-2.87-3.552-2.869Q446.891,815.961,432.545,817.19Zm20.494,49.595q3.96,0,4.645,2.869a2.724,2.724,0,0,1-.683,2.187q-.138.957-.41,2.732-.276,2.734-.41,4.781,0,3.418-2.049,3.417-1.777,0-2.46-2.87a8.983,8.983,0,0,0-2.049-4.782,12.039,12.039,0,0,1-.82-3.825A6.591,6.591,0,0,1,453.039,866.785Zm16.258,0a17.023,17.023,0,0,1,8.881,9.974,5.885,5.885,0,0,1-1.094,3.826,3.651,3.651,0,0,1-3,1.639q-2.87,0-4.236-4.372-1.776-3.279-3.962-7.651Q465.881,867.332,469.3,866.785Z" transform="translate(0)" fill="#231f20"/><path d="M562.2,815.961h1.777a8.722,8.722,0,0,0,5.6-1.64,9.382,9.382,0,0,1,3.962-.956,5.666,5.666,0,0,1,3.688,1.5q2.733,2.325,2.733,4.509.135,2.735-1.23,3.825a6.831,6.831,0,0,0-2.048,4.236v13.8H584.2a4.615,4.615,0,0,1,2.187,3.143q0,2.87-4.919,2.869H576.82q0,2.049.136,4.372.682,16.8,1.094,30.058,0,3.143-3.826,3.142-3.555,0-3.962-4.919-.686-16.8-.82-32.653a102.117,102.117,0,0,0-10.657.547,53.7,53.7,0,0,0-8.06.546q-1.23,14.755-5.329,22.406a34.043,34.043,0,0,1-6.011,9.838q-2.87,3.279-4.782,3.278-3.826-.543-3.826-5.054.682-6.01,3.962-7.515,7.514-4.509,9.428-22.406h-3.143q-4.374.409-5.875.41-3.963,0-3.961-2.05,0-2.322,2.6-3.962a59.692,59.692,0,0,1,6.831-.41,14.439,14.439,0,0,1,3.962-.546q0-1.641.137-3.416,0-4.233-.137-9.153a20.811,20.811,0,0,0-1.5-7.652,7.611,7.611,0,0,1-1.5-3.825q.41-2.87,3.689-3.963a5.862,5.862,0,0,1,4.1,1.64h7.105a22.98,22.98,0,0,0,.956-6.558q.135-2.049-3.278-2.049c-1.278,0-1.913-.546-1.913-1.639q.953-3.416,4.1-3.416,2.049-.544,4.236-.956a13.588,13.588,0,0,0,2.869-1.094,11.4,11.4,0,0,1,3.416,1.5,6.361,6.361,0,0,1,1.912,3.963,2.442,2.442,0,0,1-1.912,2.6,8.624,8.624,0,0,0-3.69,4.508A31.76,31.76,0,0,0,562.2,815.961ZM551.135,842.33q9.426-.545,18.307-1.094,0-8.878.137-18.58,0-1.773-3.006-1.776-6.967,0-13.389.546a3.9,3.9,0,0,1-2.049.683q.135,5.328.273,10.793Q551.408,837.276,551.135,842.33Zm13.388,10.383c1.094,0,1.73.365,1.914,1.093a1.187,1.187,0,0,1-.547.957,24,24,0,0,1-2.6,5.054q-2.734,4.374-5.738,4.372-3.965,0-4.645-4.918a4.184,4.184,0,0,1,2.049-3.416q1.363-.545,4.372-1.5A41.653,41.653,0,0,1,564.523,852.713Zm-3.688-26.368q1.363,0,2.459,2.869a20.164,20.164,0,0,0,2.323,3.688,5.6,5.6,0,0,1,1.23,2.869c0,1-.547,1.5-1.64,1.5a6.26,6.26,0,0,0-4.1-2.048,16.575,16.575,0,0,0-3.962.545q-2.6,0-2.733-2.322a5.284,5.284,0,0,1,1.366-3.688Q558.512,826.346,560.835,826.345Zm41.124-18.991a5.577,5.577,0,0,1,3.278.957,9.606,9.606,0,0,1,1.231,4.508,45.831,45.831,0,0,1-1.094,10.383,21.126,21.126,0,0,1-3.415,9.154,17.709,17.709,0,0,1-5.875,6.011q-3.688,2.87-6.694,2.869-3.828,0-5.056-1.638a4.792,4.792,0,0,1-.683-2.324q1.5-5.462,5.739-6.42,4.233.409,7.241-3.962a19.279,19.279,0,0,0,2.869-11.477,6.254,6.254,0,0,0-.547-3.143,2.411,2.411,0,0,1-.547-1.639A4.149,4.149,0,0,1,601.959,807.354Zm19.947,70.5a21.384,21.384,0,0,1-4.235-.546,23.951,23.951,0,0,0-4.919-.547H605.1a32.383,32.383,0,0,1-6.012,1.093,16.241,16.241,0,0,0-3.143.957,8.059,8.059,0,0,1-2.732.545,7.019,7.019,0,0,1-3.962-4.235,3.528,3.528,0,0,1,.546-2.322q.409-.954.957-2.05a8.813,8.813,0,0,0,1.093-3.962,52.612,52.612,0,0,0,.136-8.607,9.937,9.937,0,0,0-.82-2.869,5.755,5.755,0,0,1-.272-1.5,9.455,9.455,0,0,1,2.048-3.415,3.853,3.853,0,0,1,3.553-1.093,8.837,8.837,0,0,1,2.6.546h4.235q6.831-.545,17.487-.956a12.012,12.012,0,0,0,3.553-.547H627.1q4.1,0,5.464,4.372a3.9,3.9,0,0,1-.273,2.05,10.508,10.508,0,0,0-1.775,3.962,56.547,56.547,0,0,0-.547,8.06,14.284,14.284,0,0,0,.137,1.64,6.542,6.542,0,0,1,.819,2.322,4.64,4.64,0,0,1-.683,3.143,3.677,3.677,0,0,1-1.5,1.776A8.249,8.249,0,0,1,621.906,877.852ZM603.6,855.309q-3.418,1.1-3.416,3.962a36.145,36.145,0,0,1-.547,8.608q-.409,3.415,1.776,3.415,8.2-.544,18.444-1.093a2.443,2.443,0,0,0,2.6-2.322q.135-6.012.137-10.794.544-2.322-2.6-2.322h-8.334Q606.465,855.311,603.6,855.309Zm20.493-22.953a95.132,95.132,0,0,0,24.456,3.415,41.271,41.271,0,0,0,6.147-.545q2.46,0,2.46,1.638-.409,2.736-6.967,6.969a12.71,12.71,0,0,1-6.559,2.322q-3.554,0-8.2-2.869a21.87,21.87,0,0,0-7.105-2.6q-6.423-2.321-10.247-2.323-3.144-.543-3.142-4.918.134-.544.546-3.688.411-3.963.821-9.974.543-6.012.546-8.607.272-4.92,4.372-4.919,4.371,1.506,4.372,4.372a6.446,6.446,0,0,1-.82,2.732,15.74,15.74,0,0,0-1.23,3.825q-.276,1.641-.546,3.69-.138,3.963-.547,8.881Q622.452,832.356,624.092,832.356Z" transform="translate(0)" fill="#231f20"/><path d="M719.593,869.108a42.3,42.3,0,0,0,6.968.546,333.882,333.882,0,0,0,46.861,3.69,44.638,44.638,0,0,0,9.291-.957q3.141-.544,6.012-1.093a10.593,10.593,0,0,1,2.322-.547q2.184,0,2.185,1.64,0,2.735-10.246,10.93-6.7,4.918-11.2,4.918a39.163,39.163,0,0,1-11.2-3.415,60.655,60.655,0,0,0-8.606-2.6q-5.467-1.64-13.39-3.415-12.3-2.05-23.909-3.143-12.572-1.092-21.177-1.093-2.46,0-7.924,3.279-4.236,2.734-6.968,2.733-4.374-.683-5.329-6.7.956-4.78,4.1-6.558,4.1,0,7.788-4.235a23.21,23.21,0,0,0,6.694-8.334q2.322-4.371,5.056-4.372,5.052,0,5.055,3.415,0,2.05-5.465,6.011-4.647,6.015-4.919,7.515a1.693,1.693,0,0,0,1.23.547,17.947,17.947,0,0,0,4.372-.547q5.463,0,16.668,1.093l-.273-.546a1.471,1.471,0,0,1,1.64-1.5,22.324,22.324,0,0,0,4.644-2.187,4.533,4.533,0,0,0,2.6-3.415,2.613,2.613,0,0,1,1.093-1.5,5.5,5.5,0,0,1,2.185-.546,8.711,8.711,0,0,1,2.459.546,3.417,3.417,0,0,1,2.187,3.142,3.722,3.722,0,0,1-1.777,3.416,13.9,13.9,0,0,1-6.421,2.6A5.8,5.8,0,0,1,719.593,869.108Zm-23.774-34.429q2.051,0,2.05,2.185,0,1.506-2.869,3.28a26.524,26.524,0,0,1-5.328,3.689,7.968,7.968,0,0,1-4.919,1.775,5.191,5.191,0,0,1-3.962-1.775,6.476,6.476,0,0,1-1.5-3.689,5.121,5.121,0,0,1,.547-2.323,2.669,2.669,0,0,1,2.186-1.5,10,10,0,0,1,3.142.546A28.576,28.576,0,0,0,695.819,834.679Zm-7.65-24.729q2.592,0,4.781,2.869a25.4,25.4,0,0,0,4.646,3.826q2.049,1.094,2.05,2.185a1.328,1.328,0,0,1-1.5,1.5,27.89,27.89,0,0,0-6.968-.956h-6.559q-2.6,0-2.732-2.187a7.005,7.005,0,0,1,1.366-3.825Q685.982,809.953,688.169,809.95Zm48.911,6.695a14.431,14.431,0,0,1-3.688.545q-5.195.549-9.018,1.094a20.045,20.045,0,0,1-6.284,1.5q-1.917,0-2.187-2.6a9.227,9.227,0,0,1,.274-1.775,10.861,10.861,0,0,0,.273-2.6,9.515,9.515,0,0,0-.683-3.416,3.726,3.726,0,0,0-1.093-1.639,4.277,4.277,0,0,1-.956-1.5,4.531,4.531,0,0,1,.956-2.869,2.383,2.383,0,0,1,2.185-1.093h4.919q7.923,0,14.346-.547a7.768,7.768,0,0,1-.547-2.6q.273-2.322,4.646-2.322,4.918,1.094,4.918,3.415a11.609,11.609,0,0,1-.136,1.5q10.109,0,11.886-.409h2.732q1.363-.546,2.869-1.094a9.216,9.216,0,0,1,4.1,1.094q2.731,2.049,2.732,3.825a4.1,4.1,0,0,1-.682,2.186,4.935,4.935,0,0,0-1.64,1.5,8.183,8.183,0,0,0-1.23,3.416q-.137,4.92-3.689,4.918a27.566,27.566,0,0,1-4.508-.545,9.867,9.867,0,0,1-3.826-.684,61.07,61.07,0,0,0-9.427.684v3.142c0,.364-.047.546-.136.546q13.251-.543,27.051-.546,7.788,0,7.787,2.869,0,2.6-3.415,2.6a51.69,51.69,0,0,1-10.657,0q-11.751.548-27.871,1.093-19.812,1.1-29.784,2.322-4.236,0-4.235-3.415a5.377,5.377,0,0,1,2.869-3.143,34.1,34.1,0,0,1,6.694-.683q6.558.685,24.456-.546Zm8.334,12.569q10.791,0,13.39-.547h4.372a4.017,4.017,0,0,1,2.732,1.094q1.5,2.6.956,3.688a12.152,12.152,0,0,1-.956,1.777,22.805,22.805,0,0,0-.82,3.141q-.276,2.325-.819,6.012a49.765,49.765,0,0,0-.137,6.012,18.559,18.559,0,0,0,.137,2.322,4.218,4.218,0,0,1,.545,1.64,5.118,5.118,0,0,1-1.5,2.732,7.378,7.378,0,0,1-3,.547h-2.324a4.8,4.8,0,0,0-2.595-.547,53.634,53.634,0,0,0-9.017-.683q-18.173,0-22.134,1.23a8.055,8.055,0,0,0-3.006.546,4.056,4.056,0,0,1-2.048.547,5.81,5.81,0,0,1-2.459-1.64,4.787,4.787,0,0,1-.684-2.322,3.745,3.745,0,0,1,.684-1.5,13.407,13.407,0,0,0,.956-3.416,16.934,16.934,0,0,0,.41-4.918q0-6.558-1.366-8.608a4.61,4.61,0,0,1-1.5-2.869q.27-2.184,1.229-2.595,1.5-1.64,2.459-1.64a9.679,9.679,0,0,1,2.05.547h3.688q5.328,0,10.793-.547Zm-8.471-22.406q-7.787,0-14.072.546-1.228,0-1.366,2.049.135.549.683,2.869c.09.366.41.547.957.547q6.967-.544,13.8-.547Zm-12.432,30.466q5.738,0,13.8-.41H750.2a28.5,28.5,0,0,1,7.924,0v-1.093q0-1.638-1.5-1.639a40.874,40.874,0,0,0-7.924-.683q-14.62.685-23.089,1.23a1.948,1.948,0,0,0-1.5,2.185l.136.41Zm.136,7.652q5.6-.546,12.98-.547h11.886a29.286,29.286,0,0,1,8.061,0q.134-2.049.273-3.689-9.837.549-18.58.546-8.609.549-14.62,1.094v2.6Zm.82,7.787q8.2-.543,15.3-.546h13.251q3.281,0,3.28-2.323a11.179,11.179,0,0,1,.137-1.5q-9.976.548-18.718.547-8.2.409-14.073.956v1.094Q724.647,852.714,725.467,852.713Zm18.991-40.987h13.525a1.372,1.372,0,0,0,1.5-1.093,4.959,4.959,0,0,0,1.23-2.869q0-.954-3-1.5h-12.98q-.137,2.049-.273,3.689Zm10.384,47a3.462,3.462,0,0,1,3.415,2.6,24.176,24.176,0,0,0,5.328,3.962,5.887,5.887,0,0,1,3.279,2.6q0,1.776-3.825,1.775a20.813,20.813,0,0,1-7.788-1.229q-4.1-1.639-4.1-4.236Q751.152,859.818,754.842,858.725Z" transform="translate(0)" fill="#231f20"/><path d="M833.264,834.132h-3.143a17.5,17.5,0,0,0-4.1,1.094,7.01,7.01,0,0,1-2.869.545,5.07,5.07,0,0,1-3.278-1.092,5.66,5.66,0,0,1-1.366-3.416,6.334,6.334,0,0,1,.819-2.6,7.958,7.958,0,0,0,.956-3.825q.273-2.731.274-5.465a4.175,4.175,0,0,0-1.5-3.416,6.163,6.163,0,0,1-.41-2.186,5.288,5.288,0,0,1,4.372-3.142h2.732a5.73,5.73,0,0,0,3.689,1.093q6.969,0,14.483-.546,1.774-.546,3.688-1.23a8.106,8.106,0,0,1,2.733-.547,8.438,8.438,0,0,1,2.869.547,10.657,10.657,0,0,1,1.64,3.825,4.862,4.862,0,0,1-.547,2.186,7.766,7.766,0,0,1-1.64,2.323,19.183,19.183,0,0,0-.956,6.558,2.9,2.9,0,0,0,.547,2.05,9.112,9.112,0,0,1,.409,2.869,3.8,3.8,0,0,1-1.912,3.141,3.911,3.911,0,0,1-2.46,1.23,55.975,55.975,0,0,0-7.924-.683,9.06,9.06,0,0,1,.41,3.415q-.137,4.375-.41,8.062h3.006a65.079,65.079,0,0,0,7.651-.547,10.407,10.407,0,0,1,3.552.547,3.631,3.631,0,0,1,1.5,2.869q0,2.049-2.322,2.049h-1.366q-4.92,0-12.3.547-.138,4.374,0,9.426a17.071,17.071,0,0,1-.409,3.827q7.377-.546,14.891-1.777,1.774,0,1.777,2.322a6.976,6.976,0,0,1-1.23,3.143,2.814,2.814,0,0,1-2.46,1.776q-12.707,0-18.853.546-7.789.549-9.428,1.64a27.426,27.426,0,0,0-5.328,3.279,5.26,5.26,0,0,1-3.143,1.093,4.519,4.519,0,0,1-2.869-1.093q-2.459-1.773-2.459-3.279a3.662,3.662,0,0,1,1.366-2.186,23.478,23.478,0,0,1,3.006-2.732q3.823-2.732,4.1-9.974,0-6.009-1.093-6.558-1.639-1.5-1.64-2.049.411-2.184,3.962-2.869,4.509-.546,5.193,3.415a46.974,46.974,0,0,1,.409,6.968,57.609,57.609,0,0,1-.683,8.88c0,.731.227,1.093.683,1.093q4.371-.543,8.744-1.093a12.912,12.912,0,0,1-.546-3.825q0-9.971-.684-18.581,0-2.87-.273-6.012A7.233,7.233,0,0,1,833.264,834.132Zm-5.192-4.918q7.512-.545,15.575-.547,1.5,0,1.5-2.322.411-4.235.41-8.061,0-1.641-1.913-1.639-4.784,0-14.482.545-1.914.549-1.913,1.64a49.264,49.264,0,0,1-.546,8.608Q826.706,829.214,828.072,829.214Zm52.054-4.372q-2.6.41-4.782.956a87.934,87.934,0,0,0-8.608,2.323l-3.825,2.186a3.879,3.879,0,0,1-2.185.547,2.32,2.32,0,0,1-2.46-1.64,2.89,2.89,0,0,1,0-1.776,5.842,5.842,0,0,1,1.913-3.689,16.491,16.491,0,0,1,6.694-4.372H870.7a91.8,91.8,0,0,0,12.979-1.093h3.963a25,25,0,0,0,.819-4.509q.135-2.049-3.552-2.6-2.05,0-2.05-1.777a5.025,5.025,0,0,1,4.372-3.688,19.64,19.64,0,0,0,4.509-.547,7.749,7.749,0,0,1,3.279-1.23q.819,0,3.689,1.777a4.632,4.632,0,0,1,2.186,3.688q0,2.87-2.186,2.869a9.551,9.551,0,0,0-3.962,3.689q-.548,1.23-.957,2.323H897.2q6.149,0,15.984.546h9.291q5.6,0,12.023-.546,1.641,0,1.64,1.5-.138,1.1-3.689,5.055-3.826,5.465-7.925,5.465a4.26,4.26,0,0,1-3,0q-1.1-.545-5.329-2.869a34.764,34.764,0,0,0-11.2-2.6h-.137a8.529,8.529,0,0,1-.272,2.05,29.6,29.6,0,0,0-.684,5.464v38.938q.135,5.466-3.551,6.012-3.418,0-4.372-7.105.41-20.355.409-40.44a7.407,7.407,0,0,0-.956-4.509,2.944,2.944,0,0,1-.41-.957h-8.2a6.72,6.72,0,0,1,.41,2.6q0,28.965-6.557,36.2a17.156,17.156,0,0,1-8.608,8.744,14.794,14.794,0,0,1-9.973,3.278q-2.46,0-2.733-5.465.409-3.823,3.006-4.918a17.127,17.127,0,0,0,8.607-3.962,14.948,14.948,0,0,0,5.192-5.465q4.643-9.151,4.645-23.5a25.908,25.908,0,0,0-.683-6.012ZM870.7,838.914q4.643.686,4.645,5.465a2.267,2.267,0,0,1-1.23,2.323,22.743,22.743,0,0,1-4.918,2.186,28.858,28.858,0,0,1-8.061,1.5q-1.366,0-1.366-1.5,0-1.092,3.142-3.28a26.363,26.363,0,0,0,4.646-5.464A4.9,4.9,0,0,1,870.7,838.914Zm43.447.684q2.73,0,3.688,3.278a17.575,17.575,0,0,0,4.782,4.372,4.865,4.865,0,0,1,2.869,3.143q0,1.776-4.1,1.776a14.269,14.269,0,0,1-7.378-1.776q-3.689-1.5-3.689-4.783A5.99,5.99,0,0,1,914.146,839.6Z" transform="translate(0)" fill="#231f20"/><path d="M471.5,896.275c0,.455.7.7,2.1.771h20.652a9.213,9.213,0,0,0,2.1-.14c.524-.14.8-.315.8-.525l.839-.106-.035,1.191-.21,1.19a15.128,15.128,0,0,1,.63,2.066,9.167,9.167,0,0,1,.245,1.854h-.979c-.455-2.835-3.431-4.445-8.716-4.445H486.52l-.175,4.2L486.31,913.6a47.829,47.829,0,0,0,.176,4.935,5.431,5.431,0,0,0,.6,2.135,2.278,2.278,0,0,0,1.294.91,9.088,9.088,0,0,0,2.766.386v.594h-1.926c-.314-.035-.734-.07-1.259-.139L484.315,922l-3.745.421c-.35,0-.875.034-1.575.069-.665.035-1.19.07-1.54.07v-.594c2.274,0,3.675-.455,4.165-1.33a4.616,4.616,0,0,0,.49-2.066c.1-1.015.175-2.625.175-4.9l-.035-12.147-.175-3.395h-2.17c-3.78,0-6.161.28-7.106.84-.875.525-1.5,1.716-1.855,3.605h-.98a14.853,14.853,0,0,1,.315-1.889c.035-.246.105-.561.21-1.016a7.4,7.4,0,0,1,.385-1.015,4.3,4.3,0,0,1-.07-.455c-.035-.14-.07-.35-.1-.6l-.035-1.33Z" transform="translate(0)" fill="#231f20"/><path d="M506.188,905.9l-.209,2.451-.14,3.22.385.035c1.26-3.745,3.081-5.461,5.5-5.461a4.023,4.023,0,0,1,1.75.386,1.507,1.507,0,0,1,.98,1.4c0,.735-.525,1.225-1.575,1.506a3.9,3.9,0,0,0-1.12-.841,2.5,2.5,0,0,0-1.191-.28c-1.575,0-2.73.98-3.43,2.975a13.8,13.8,0,0,0-.77,4.936c0,2.66.245,4.27.77,4.831.595.665,1.68.979,3.325.979v.525h-1.3c-.35-.035-.805-.105-1.4-.139a23.389,23.389,0,0,1-3.08-.351l-2.871.351-2.134.139v-.525a3.154,3.154,0,0,0,2.625-.91c.455-.63.7-2.31.7-5.04V913.6c0-2.835-.21-4.516-.665-5.076s-1.365-.84-2.765-.84v-.525l2.31-.28,2.2-.106.875-.524,1.015-.49Z" transform="translate(0)" fill="#231f20"/><path d="M532.439,908.247a7.875,7.875,0,0,1-.314,12.461,11.256,11.256,0,0,1-6.966,2.205,10.942,10.942,0,0,1-7.211-2.484,7.655,7.655,0,0,1-2.94-6.091A7.521,7.521,0,0,1,518.229,908a11.375,11.375,0,0,1,6.965-2.17A10.905,10.905,0,0,1,532.439,908.247Zm-2.52.77a5.344,5.344,0,0,0-4.725-2.415,5.288,5.288,0,0,0-4.691,2.415,9.189,9.189,0,0,0-1.4,5.321,8.928,8.928,0,0,0,1.644,5.705,5.378,5.378,0,0,0,4.411,2.1,5.3,5.3,0,0,0,4.726-2.451,9.188,9.188,0,0,0,1.4-5.32A9.653,9.653,0,0,0,529.919,909.017Z" transform="translate(0)" fill="#231f20"/><path d="M543.043,905.832l-.21,4.3L542.8,920.5c0,3.851-.28,6.476-.806,7.911-.875,2.276-2.765,3.886-5.705,4.865l-.176-.49a4.145,4.145,0,0,0,2.591-2.695c.525-1.365.77-4.1.77-8.12l.035-8.892c.035-2.24-.175-3.71-.665-4.445a2.908,2.908,0,0,0-2.59-1.015h-.175v-.525l4.691-.35,1.189-.631.875-.42Zm-.034-5.565a1.726,1.726,0,0,1-.736,1.434,2.705,2.705,0,0,1-1.575.49,2.508,2.508,0,0,1-1.575-.525,1.624,1.624,0,0,1-.735-1.4,1.581,1.581,0,0,1,.77-1.4,2.416,2.416,0,0,1,1.54-.525A2.1,2.1,0,0,1,543.009,900.267Z" transform="translate(0)" fill="#231f20"/><path d="M561.943,916.438a9.52,9.52,0,0,0,.455,3.71,1.724,1.724,0,0,0,1.681.875,2.714,2.714,0,0,0,.665-.07l.665-.314.385.455a7.386,7.386,0,0,1-4.271,1.75c-1.644,0-2.73-1.085-2.73-3.081a8.6,8.6,0,0,1-6.931,3.15,6.638,6.638,0,0,1-3.429-.769,3.075,3.075,0,0,1-1.681-2.871q0-2.992,7.141-4.725l1.61-.385a6.512,6.512,0,0,0,2.556-.98,2.291,2.291,0,0,0,.524-1.715c0-3.4-.979-4.726-3.675-4.726a4.1,4.1,0,0,0-2.24.6,2.279,2.279,0,0,0-1.016,2l.106.875a1.2,1.2,0,0,0,.139.42,2.242,2.242,0,0,0,.175.42l-.909.28-.735.07a2.407,2.407,0,0,1-1.436-.419.852.852,0,0,1-.349-.491,1.65,1.65,0,0,1-.21-.63,3.185,3.185,0,0,1,2-2.73,9.934,9.934,0,0,1,5.04-1.155c4.305,0,6.475,2.205,6.475,6.581Zm-6.51-1.4c-3.465.875-5.18,2.065-5.18,3.57,0,1.855,1.295,2.941,3.5,2.941,2.94,0,4.83-1.716,4.83-4.656v-2.661Z" transform="translate(0)" fill="#231f20"/><path d="M572.3,905.9a14.174,14.174,0,0,1-.21,2.416l-.035,1.61.139.035q1.944-3.99,7.246-3.99c2.415,0,4.131.7,5.076,2.1.8,1.156,1.19,3.045,1.19,5.636v2.064a20.453,20.453,0,0,0,.245,4.236,2.877,2.877,0,0,0,3.115,2.03v.525h-1.33c-.349-.035-.63-.105-.875-.139l-2.415-.316-1.295.316-1.05.175.14-2.066.069-2.9c.106-4.375-.245-7.211-.979-8.506-.665-1.155-1.855-1.715-3.641-1.715-3.36,0-5.32,2.17-5.32,5.776v2.9a18.049,18.049,0,0,0,.279,4.06c.386,1.26,1.4,1.89,3.011,1.89v.525l-1.785-.105-3.186-.385-3.29.385-1.82.105v-.525a3.194,3.194,0,0,0,2.73-.979c.456-.6.7-2.346.7-5.287V913.6c0-2.835-.21-4.516-.665-5.076s-1.366-.84-2.766-.84v-.525l2.415-.245,2.205-.141.841-.489,1.05-.525Z" transform="translate(0)" fill="#231f20"/><path d="M629.6,897.676a4.317,4.317,0,0,1-.491,1.19,5.13,5.13,0,0,1-.63,1.05l.071,1.12.07,1.365-.035.6-.106,1.33H627.6a5.9,5.9,0,0,0-2.73-5.355,11.408,11.408,0,0,0-6.125-1.435c-3.886,0-6.931,1.05-9.1,3.151-2.205,2.134-3.29,5.11-3.29,9a11.54,11.54,0,0,0,3.676,8.961c2.486,2.24,5.776,3.359,9.941,3.359,2.45,0,4.166-.279,5.11-.84q.527-.315.525-2v-2.94c0-1.75-.28-2.871-.8-3.326a5.286,5.286,0,0,0-3.361-.91V911.4c.245,0,1.19.071,2.765.175.386.035.945.071,1.751.14l1.68.245,2.9-.35,2.24-.21v.595a3.241,3.241,0,0,0-2.52.84q-.63.683-.63,3.781v2.66a2.608,2.608,0,0,0,.105.945,1.046,1.046,0,0,0,.84.35v.526a42.709,42.709,0,0,1-5.81,1.434,33.238,33.238,0,0,1-5.776.455,22.367,22.367,0,0,1-11.762-2.9,11.107,11.107,0,0,1-5.67-10.046,11.62,11.62,0,0,1,5.531-10.361,21.624,21.624,0,0,1,11.866-3.01,30.511,30.511,0,0,1,5.915.56l3.15.594.561-.069a.758.758,0,0,0,.28-.315Z" transform="translate(0)" fill="#231f20"/><path d="M638.207,905.9l-.21,2.451-.14,3.22.385.035c1.261-3.745,3.081-5.461,5.5-5.461a4.019,4.019,0,0,1,1.75.386,1.508,1.508,0,0,1,.981,1.4c0,.735-.526,1.225-1.575,1.506a3.906,3.906,0,0,0-1.121-.841,2.491,2.491,0,0,0-1.19-.28c-1.575,0-2.73.98-3.431,2.975a13.818,13.818,0,0,0-.769,4.936c0,2.66.245,4.27.769,4.831.6.665,1.681.979,3.326.979v.525h-1.295c-.35-.035-.8-.105-1.4-.139a23.406,23.406,0,0,1-3.08-.351l-2.87.351-2.135.139v-.525a3.154,3.154,0,0,0,2.625-.91c.455-.63.7-2.31.7-5.04V913.6c0-2.835-.21-4.516-.665-5.076s-1.365-.84-2.765-.84v-.525l2.31-.28,2.2-.106.875-.524,1.015-.49Z" transform="translate(0)" fill="#231f20"/><path d="M651.962,912.412a.9.9,0,0,0-.945.526,3.039,3.039,0,0,0-.14,1.19,7.068,7.068,0,0,0,2.17,5.285,7.5,7.5,0,0,0,5.46,2.1,8.622,8.622,0,0,0,5.566-2l.385.559c-1.785,1.925-4.445,2.9-7.911,2.9-5.846,0-9.381-3.08-9.381-8.086a8.552,8.552,0,0,1,2.66-6.475,9.085,9.085,0,0,1,6.581-2.555,8.959,8.959,0,0,1,5.391,1.645,4.753,4.753,0,0,1,2.24,3.921l-.07.7-.035.139Zm8.365-1.5a3.782,3.782,0,0,0-1.365-2.94,5.017,5.017,0,0,0-6.65.07,5.015,5.015,0,0,0-1.366,3.465l8.3-.1C659.978,911.362,660.327,911.223,660.327,910.907Z" transform="translate(0)" fill="#231f20"/><path d="M670.267,912.412a.9.9,0,0,0-.946.526,3.064,3.064,0,0,0-.139,1.19,7.068,7.068,0,0,0,2.17,5.285,7.5,7.5,0,0,0,5.46,2.1,8.624,8.624,0,0,0,5.566-2l.385.559c-1.785,1.925-4.446,2.9-7.911,2.9-5.846,0-9.381-3.08-9.381-8.086a8.552,8.552,0,0,1,2.66-6.475,9.085,9.085,0,0,1,6.581-2.555,8.959,8.959,0,0,1,5.391,1.645,4.756,4.756,0,0,1,2.24,3.921l-.071.7-.035.139Zm8.365-1.5a3.782,3.782,0,0,0-1.365-2.94,5.018,5.018,0,0,0-6.651.07,5.019,5.019,0,0,0-1.365,3.465l8.3-.1C678.282,911.362,678.632,911.223,678.632,910.907Z" transform="translate(0)" fill="#231f20"/><path d="M690.251,905.9a14.073,14.073,0,0,1-.21,2.416l-.035,1.61.14.035q1.943-3.99,7.246-3.99c2.415,0,4.13.7,5.075,2.1.805,1.156,1.19,3.045,1.19,5.636v2.064a20.529,20.529,0,0,0,.245,4.236,2.877,2.877,0,0,0,3.116,2.03v.525h-1.33c-.35-.035-.63-.105-.876-.139l-2.415-.316-1.294.316-1.051.175.14-2.066.07-2.9c.105-4.375-.245-7.211-.98-8.506-.665-1.155-1.855-1.715-3.64-1.715-3.361,0-5.321,2.17-5.321,5.776v2.9a17.963,17.963,0,0,0,.28,4.06c.385,1.26,1.4,1.89,3.01,1.89v.525l-1.785-.105-3.185-.385-3.29.385-1.821.105v-.525a3.2,3.2,0,0,0,2.731-.979c.455-.6.7-2.346.7-5.287V913.6c0-2.835-.21-4.516-.665-5.076s-1.365-.84-2.766-.84v-.525l2.415-.245,2.2-.141.841-.489,1.05-.525Z" transform="translate(0)" fill="#231f20"/><path d="M733.9,896.626l5.952,12.706c1.575,3.36,2.94,6.2,4.059,8.471q.527,1,1.681,2.836a4.126,4.126,0,0,0,2.38,1.189,5.148,5.148,0,0,0,1.19.141v.594l-2.66-.174-3.36-.386-3.29.421c-.316,0-.841.034-1.646.069l-1.225.07v-.594a6.061,6.061,0,0,0,2.45-.42,1.13,1.13,0,0,0,.77-1.051,9.414,9.414,0,0,0-.49-2,38.812,38.812,0,0,0-1.5-3.71l-1.05-2.416-5.076-.069-3.395.035-2.03.034-.8,1.681-1.75,4.13a5.651,5.651,0,0,0-.561,2.206q0,1.573,3.046,1.575v.594l-2.31-.174L721.365,922l-3.01.386-2.31.174v-.594a6.289,6.289,0,0,0,3.815-1.261c.84-.734,2.7-3.99,5.531-9.8l.805-1.645,6.335-12.636Zm-4.339,9.416-2.381,5.215h9.451l-2.275-5.075-2.415-5.076Z" transform="translate(0)" fill="#231f20"/><path d="M763.646,909.438l.14.874.035.456h-.769a5.589,5.589,0,0,0-1.471-2.941,4.031,4.031,0,0,0-3.01-1.19c-2.24,0-3.605,1.05-3.605,2.73a2.365,2.365,0,0,0,.8,1.785,12.279,12.279,0,0,0,3.325,1.786,20.184,20.184,0,0,1,3.605,1.75,3.961,3.961,0,0,1,1.716,3.325,4.151,4.151,0,0,1-2.73,3.815,10.53,10.53,0,0,1-4.9,1.085,12.7,12.7,0,0,1-2.975-.35c-1.5-.315-2.241-.77-2.241-1.4l.035-.245.246-.455-.386-1.715-.069-1.436h.769a5.161,5.161,0,0,0,5.32,4.761c2.241,0,3.921-1.295,3.921-3.01a2.945,2.945,0,0,0-1.435-2.485,15.783,15.783,0,0,0-2.765-1.33,14.666,14.666,0,0,1-4.27-2.275,3.458,3.458,0,0,1-1.051-2.556,3.913,3.913,0,0,1,2.416-3.605,9.489,9.489,0,0,1,4.48-.98,11.513,11.513,0,0,1,3.571.455c.979.315,1.469.665,1.469,1.085a1.46,1.46,0,0,1-.07.385l-.314.42Z" transform="translate(0)" fill="#231f20"/><path d="M773.865,902.017v4.725l5.216-.035v1.225l-5.216-.07-.07,7.875a10.514,10.514,0,0,0,.6,4.061,3.392,3.392,0,0,0,3.36,1.855,5.479,5.479,0,0,0,1.715-.28,8.326,8.326,0,0,0,2.1-1.05l.455.455a8.521,8.521,0,0,1-5.776,2.066c-2.135,0-3.64-.526-4.585-1.54-.945-1.051-1.4-2.906-1.4-5.532v-.559l.139-7.351h-3.5v-.77c3.221-.316,5.321-2.1,5.916-5.075Z" transform="translate(0)" fill="#231f20"/><path d="M788.53,912.412a.9.9,0,0,0-.945.526,3.039,3.039,0,0,0-.14,1.19,7.071,7.071,0,0,0,2.17,5.285,7.5,7.5,0,0,0,5.46,2.1,8.625,8.625,0,0,0,5.567-2l.384.559c-1.785,1.925-4.445,2.9-7.911,2.9-5.845,0-9.381-3.08-9.381-8.086a8.549,8.549,0,0,1,2.661-6.475,9.085,9.085,0,0,1,6.581-2.555,8.958,8.958,0,0,1,5.39,1.645,4.753,4.753,0,0,1,2.24,3.921l-.07.7-.035.139Zm8.366-1.5a3.783,3.783,0,0,0-1.366-2.94,5.017,5.017,0,0,0-6.65.07,5.014,5.014,0,0,0-1.365,3.465l8.3-.1C796.546,911.362,796.9,911.223,796.9,910.907Z" transform="translate(0)" fill="#231f20"/><path d="M808.409,905.9l-.21,2.451-.139,3.22.384.035c1.261-3.745,3.081-5.461,5.5-5.461a4.019,4.019,0,0,1,1.75.386,1.508,1.508,0,0,1,.981,1.4c0,.735-.525,1.225-1.575,1.506a3.917,3.917,0,0,0-1.12-.841,2.5,2.5,0,0,0-1.191-.28c-1.575,0-2.73.98-3.431,2.975a13.818,13.818,0,0,0-.769,4.936c0,2.66.245,4.27.769,4.831.6.665,1.681.979,3.326.979v.525h-1.295c-.35-.035-.8-.105-1.4-.139a23.406,23.406,0,0,1-3.08-.351l-2.87.351-2.135.139v-.525a3.154,3.154,0,0,0,2.625-.91c.455-.63.7-2.31.7-5.04V913.6c0-2.835-.21-4.516-.665-5.076s-1.366-.84-2.766-.84v-.525l2.31-.28,2.206-.106.875-.524,1.014-.49Z" transform="translate(0)" fill="#231f20"/><path d="M834.66,908.247a7.876,7.876,0,0,1-.314,12.461,11.256,11.256,0,0,1-6.966,2.205,10.942,10.942,0,0,1-7.211-2.484,7.655,7.655,0,0,1-2.94-6.091,7.52,7.52,0,0,1,3.22-6.336,11.38,11.38,0,0,1,6.966-2.17A10.909,10.909,0,0,1,834.66,908.247Zm-2.52.77a5.345,5.345,0,0,0-4.725-2.415,5.288,5.288,0,0,0-4.691,2.415,9.181,9.181,0,0,0-1.4,5.321,8.928,8.928,0,0,0,1.645,5.705,5.378,5.378,0,0,0,4.411,2.1,5.3,5.3,0,0,0,4.725-2.451,9.18,9.18,0,0,0,1.4-5.32A9.653,9.653,0,0,0,832.14,909.017Z" transform="translate(0)" fill="#231f20"/><path d="M845.265,905.832c-.036.665-.106,1.365-.141,2.1,0,.245,0,.6-.035.98l-.034,2.976v4.2c0,2.7.21,4.341.63,4.971a3.2,3.2,0,0,0,2.7.979v.525l-2.24-.174-2.8-.316-2.905.351-2.1.139v-.525a3.058,3.058,0,0,0,2.625-.944c.455-.665.7-2.311.7-4.971v-2.87c0-2.556-.245-4.131-.7-4.726a3.155,3.155,0,0,0-2.625-.875v-.525l2.345-.245,2.275-.14,2.066-1.015Zm-.036-5.5a1.6,1.6,0,0,1-.805,1.365,2.705,2.705,0,0,1-1.575.49,2.409,2.409,0,0,1-1.54-.525,1.774,1.774,0,0,1-.7-1.4,1.73,1.73,0,0,1,.736-1.436,2.712,2.712,0,0,1,1.575-.49A2.081,2.081,0,0,1,845.229,900.336Z" transform="translate(0)" fill="#231f20"/><path d="M868.05,896.275l-.106,3.011-.035,3.045v12.986c0,2.7.141,4.271.455,4.761a1.7,1.7,0,0,0,1.856.84l1.575-.14.14.6-2.241.455-2.38.28-.945.42-1.3.491-.21-.071-.21-1.224-.07-1.366a8,8,0,0,1-2.976,1.89,10.991,10.991,0,0,1-3.849.665,8.674,8.674,0,0,1-5.987-2.1,7.393,7.393,0,0,1-2.484-5.775,7.968,7.968,0,0,1,3.325-6.581,11.187,11.187,0,0,1,7.141-2.38,13.964,13.964,0,0,1,2.2.175c.49.069,1.015.175,1.61.314a8.708,8.708,0,0,0,.91.351v-3.256c0-2.555-.245-4.13-.7-4.69-.455-.6-1.365-.875-2.8-.875h-.14v-.525l4.971-.385.979-.525,1.051-.49Zm-8.716,10.712c-3.921,0-6.266,2.555-6.266,6.51a8.66,8.66,0,0,0,1.89,5.741,5.917,5.917,0,0,0,4.69,2.276c2.486,0,4.1-.875,4.831-2.66v-9.732A6.561,6.561,0,0,0,859.334,906.987Z" transform="translate(0)" fill="#231f20"/><g id="上海_アリス幻樂団" data-name="上海■アリス幻樂団"><path d="M958.344,914.932a1.672,1.672,0,0,1,.9.232.679.679,0,0,1,.391.648l-.069,2.1h3.514a5.057,5.057,0,0,1,1.1.077.463.463,0,0,1,.254.479,1.154,1.154,0,0,1-.22.68.794.794,0,0,1-.595.246q-.288,0-1.187-.046-.851-.015-1.545-.016c-.363,0-.832.006-1.41.016l-.1,3.008q2.817.094,7.045.665a2.788,2.788,0,0,1-.51,1.4.874.874,0,0,1-.729.447,6.459,6.459,0,0,1-1.308-.231,25.772,25.772,0,0,0-5.737-.679,20.032,20.032,0,0,0-5.6.74,4.417,4.417,0,0,1-1.138.232.971.971,0,0,1-.645-.293.777.777,0,0,1-.306-.556.918.918,0,0,1,.816-.987,26.487,26.487,0,0,1,6.043-.742l-.068-6.542a.739.739,0,0,1,.305-.618A1.11,1.11,0,0,1,958.344,914.932Z" transform="translate(0)" fill="#231f20"/><path d="M951.146,934.366l2.852.063c.317.082.476.211.476.385q0,.4-.968.725a22.054,22.054,0,0,1-2.309.571.966.966,0,0,1-.526-.247.654.654,0,0,1-.272-.494,1.326,1.326,0,0,1,.221-.694A.708.708,0,0,1,951.146,934.366Zm1.223-4.012a2.344,2.344,0,0,1,1.256.695q1.306,1.1,1.307,1.343c0,.256-.153.385-.458.385a2.9,2.9,0,0,1-.679-.108,10.126,10.126,0,0,0-1.613-.186q-.849-.075-.849-1.126a.956.956,0,0,1,.323-.71A1.127,1.127,0,0,1,952.369,930.354Zm1.2,6.991c.193,0,.288.077.288.231q0,.279-.254,2.114-.069.664-.917.664a1.4,1.4,0,0,1-.8-.216.86.86,0,0,1-.34-.7.964.964,0,0,1,.255-.493l1.391-1.4A.625.625,0,0,1,953.574,937.345Zm4.091-4.336a1.272,1.272,0,0,1,.662.154.2.2,0,0,1,.085.046q1.1-.061,2.835-.062,2.75,0,3.48.078.339.03.339.231a1.655,1.655,0,0,1-.135.34,8.655,8.655,0,0,0-.51,1.774q1,.061,2.122.155a2.162,2.162,0,0,1-.391,1.157.786.786,0,0,1-.61.4,3.914,3.914,0,0,1-1-.216c-.147-.031-.288-.061-.424-.092-.034.154-.062.313-.085.478s-.074.324-.119.479q.781.045,1.409.077c.193.03.288.093.288.184a1.02,1.02,0,0,1-.22.68.769.769,0,0,1-.594.262q-.306,0-1.239-.062a3.366,3.366,0,0,1-.543.973,1.15,1.15,0,0,1-.934.57,1.479,1.479,0,0,1-1.239-.74,2.582,2.582,0,0,0,.764-.9q-1.733-.045-4.21-.045a4.015,4.015,0,0,0-1.29.154,1.378,1.378,0,0,1-.425.107.715.715,0,0,1-.475-.169.419.419,0,0,1-.2-.385,1.553,1.553,0,0,1,.17-.51q.237-.6.476-1.219c-.148.03-.29.057-.425.077a4.822,4.822,0,0,1-1.035.17.577.577,0,0,1-.409-.217.461.461,0,0,1-.2-.339.586.586,0,0,1,.543-.617,18.518,18.518,0,0,1,2.021-.355q.389-1.048.78-2.176Q957.055,933.009,957.665,933.009Zm-.424-2.824a2.872,2.872,0,0,1,1.1.184.525.525,0,0,1,.323.433.9.9,0,0,1-.119.386q1.12-.093,3.072-.093,3.09,0,4.6.138a2.126,2.126,0,0,1-.306,1.1.482.482,0,0,1-.441.263q-.357,0-1.46-.062-1.766-.138-2.92-.138-1.493,0-2.716.123a8.569,8.569,0,0,1-.916.077.34.34,0,0,1-.1-.016.752.752,0,0,0-.135.124,3.448,3.448,0,0,1-2.156,1.126c-.3,0-.459-.087-.459-.262,0-.083.074-.19.221-.324a8.433,8.433,0,0,0,1.528-1.605,1.806,1.806,0,0,0,.424-.956.82.82,0,0,0-.22-.449A4.064,4.064,0,0,1,957.241,930.185Zm1.663,7.654.34-1.281q-.9.031-1.731.108l-.409,1.111c0,.041.142.062.425.062Zm-.967-2.346q.747-.047,1.613-.061l.322-1.173q-.832.015-1.511.046Zm4.108,2.392a.119.119,0,0,0,.017-.046q.2-.633.374-1.157a16.147,16.147,0,0,0-1.834-.14l-.339,1.312Q961.212,937.854,962.045,937.885Zm-.816-3.626-.338,1.173c.588,0,1.221.014,1.9.046a6.037,6.037,0,0,0,.221-1.049Q963.013,934.273,961.229,934.259Z" transform="translate(0)" fill="#231f20"/><path d="M964.947,956.686H951.894V944.757h13.053Z" transform="translate(0)" fill="#231f20"/><path d="M941.838,919.053a9.177,9.177,0,0,1-.17,2.1,3.262,3.262,0,0,1-1.069,1.7,6.205,6.205,0,0,1-2.564,1.4,6.634,6.634,0,0,1-1.952.34q-1.408,0-1.409-.973a2.426,2.426,0,0,1,1.172-2.191c.1.371.441.555,1.018.555a2.282,2.282,0,0,0,2.376-1.327,3.294,3.294,0,0,0,.221-.971v-.7q0-.787,1.053-.787a2.408,2.408,0,0,1,.933.123A.724.724,0,0,1,941.838,919.053Zm6.2-2.146a.768.768,0,0,1-.356.633,7.8,7.8,0,0,0-.73.447,1.687,1.687,0,0,0-.56.386q-1.884,1.929-2.53,1.93-.78,0-.78-.587a5.254,5.254,0,0,1,.645-1.235.984.984,0,0,0,.119-.354c0-.268-.153-.4-.459-.4-.033,0-.385-.011-1.052-.032s-1.081-.046-1.239-.046a19.712,19.712,0,0,0-3.242.262q-1.579.248-1.681.247a1.126,1.126,0,0,1-.628-.2.918.918,0,0,1-.391-.741,1.086,1.086,0,0,1,1.086-1.173,24.6,24.6,0,0,1,3.175-.2q3.666,0,6.2.2a8.508,8.508,0,0,1,1.868.293C947.847,916.471,948.033,916.66,948.033,916.907Z" transform="translate(0)" fill="#231f20"/><path d="M945.945,931.774q0,.277-.17,2.238a6.459,6.459,0,0,1-2.138,4.737,7.258,7.258,0,0,1-4.516,1.22,6.679,6.679,0,0,1-1.442-.109q-.9-.2-.9-.833,0-.987,1.562-2.037a1.855,1.855,0,0,0,1.578.525,3.22,3.22,0,0,0,1.97-.741,3.92,3.92,0,0,0,1.391-3.256v-.957c.012-.412.018-.653.018-.725q0-.834,1.341-.834a1.945,1.945,0,0,1,.848.186C945.793,931.342,945.945,931.537,945.945,931.774Zm-6.636-.078q0,.186-.018,1.328-.017,1.158-.017,1.559,0,1.59-1.307,1.589-1.019,0-1.019-1.126c0-.134-.016-.623-.051-1.467s-.033-1.425-.033-1.743q0-.8,1.273-.8Q939.309,931.033,939.309,931.7Z" transform="translate(0)" fill="#231f20"/><path d="M947.439,954.34a2.2,2.2,0,0,1-1.579.972,1.67,1.67,0,0,1-.95-.478q-.2-.154-.679-.524-.441-.357-.764-.587a16.736,16.736,0,0,0-2.716-1.5q-3,2.592-5.3,2.592-.9,0-.9-.971a3.662,3.662,0,0,1,.967-1.976.985.985,0,0,0,.713.263,4.048,4.048,0,0,0,1.647-.479,8.171,8.171,0,0,0,1.715-1.018,12.247,12.247,0,0,0,1.087-1.019c.305-.34.458-.56.458-.664,0-.164-.164-.247-.493-.247a24.265,24.265,0,0,0-2.954.154q-1.188.125-1.086.124a.966.966,0,0,1-.9-.988q0-.925,1.154-.926l1.918-.03q1.986-.078,2.971-.077a8.674,8.674,0,0,1,2.75.262c.339.124.509.308.509.555a.594.594,0,0,1-.288.463,3.917,3.917,0,0,0-.544.433q-.527.555-1.986,2.191a13.137,13.137,0,0,0,3.361,1.482q.731.231,2.207.6.153.031.39.093h.017A2.369,2.369,0,0,1,947.439,954.34Z" transform="translate(0)" fill="#231f20"/><path d="M921.393,914.824a1.009,1.009,0,0,1,.73.232.9.9,0,0,1,.272.617,1.55,1.55,0,0,1-.628,1.05l-2.055,1.589q-.441.4-.441.509,0,.232.577.509l.764.278q1.052-.832,2.054-1.667a1.5,1.5,0,0,1,.9-.462.968.968,0,0,1,.543.2.71.71,0,0,1,.272.525,1.819,1.819,0,0,1-.78,1.327l-3.226,2.608,2.631.077c.091,0,.137-.057.137-.17q-.681-.678-.68-.864c0-.287.158-.432.476-.432a4.4,4.4,0,0,1,1.8,1.111q1.119.879,1.12,1.358,0,.679-.611.679a5.217,5.217,0,0,1-.713-.108,20.435,20.435,0,0,0-2.105-.077h-2.257a11.981,11.981,0,0,0-2.207.154,2.105,2.105,0,0,1-.51.154q-1.035,0-1.035-.617a1.652,1.652,0,0,1,.814-1.218q.969-.711,1.885-1.405a13.31,13.31,0,0,0-2-.8q-.765-.218-.764-.525t.679-.911l2.868-2.809A2.714,2.714,0,0,1,921.393,914.824Zm6.586.556q2.784,0,3.616.093c.35.061.526.174.526.339a.717.717,0,0,1-.119.278,1.644,1.644,0,0,0-.237.879l-.1,4.429a3.831,3.831,0,0,1-1.375,2.778,3.626,3.626,0,0,1-2.309.895,1.328,1.328,0,0,1-.933-.4,3.542,3.542,0,0,1-.832-1.513,6.553,6.553,0,0,0,2.732-.848,2.217,2.217,0,0,0,.934-1.976V917.17q0-.2-.288-.2-2.462,0-3.955.124a6.383,6.383,0,0,1-1.07.138.7.7,0,0,1-.509-.293.893.893,0,0,1-.238-.648q0-.633.934-.833Q925.228,915.379,927.979,915.38Z" transform="translate(0)" fill="#231f20"/><path d="M919.542,930.354a.693.693,0,0,1,.747.679.7.7,0,0,1-.322.494l-1.07.756c-.159.134-.237.216-.237.247s.084.082.254.123l.306.062.73-.6a.95.95,0,0,1,.56-.261.471.471,0,0,1,.526.54.655.655,0,0,1-.356.54l-1.817,1.311c0,.041.051.062.154.062h1.2c.1,0,.152-.021.152-.062a2.023,2.023,0,0,1-.221-.555c0-.155.119-.232.357-.232q.288,0,.866.571.492.525.492.787c0,.33-.181.494-.543.494a2.852,2.852,0,0,1-.459-.062h-1.46a16.177,16.177,0,0,0-1.952.093,1.617,1.617,0,0,1-.407.093.449.449,0,0,1-.288-.109.311.311,0,0,1-.136-.277c0-.134.169-.324.509-.571l.933-.8a8.891,8.891,0,0,0-1.17-.416q-.408-.095-.408-.247t.408-.51l1.748-1.6A1.683,1.683,0,0,1,919.542,930.354Zm4.89-.293a3.1,3.1,0,0,1,1,.108c.158.052.238.134.238.247a1.068,1.068,0,0,1-.17.509,14.182,14.182,0,0,1,1.8.154c.17.031.255.1.255.217q-.085.369-.2,1.1c.056-.052.119-.109.187-.17l1.732-1.5a1.661,1.661,0,0,1,.882-.5.705.705,0,0,1,.543.2.716.716,0,0,1,.2.478c0,.134-.118.288-.356.463l-1.171.679q-.237.169-.237.216c0,.051.067.108.2.17l.323.138.611-.478a.979.979,0,0,1,.56-.246.478.478,0,0,1,.543.54c0,.195-.13.365-.391.508l-1.849,1.235c0,.031.045.047.136.047h1.069c.146,0,.221-.016.221-.047a1.827,1.827,0,0,1-.221-.509c0-.154.118-.231.356-.231.193,0,.464.184.815.555q.476.478.475.74,0,.495-.475.495h-1.935a14.021,14.021,0,0,0-1.816.092,1.407,1.407,0,0,1-.408.092.521.521,0,0,1-.323-.139.314.314,0,0,1-.118-.231.655.655,0,0,1-.238.047A2.023,2.023,0,0,1,926.4,935q-.492-.045-1.358-.061c.046.02.079.036.1.045a1.027,1.027,0,0,1,.441.633q2.648.078,6.6.494a2.4,2.4,0,0,1-.475,1.282.831.831,0,0,1-.7.447,5.637,5.637,0,0,1-1.256-.247,23.557,23.557,0,0,0-4.194-.649l-.033,1.76a2.35,2.35,0,0,1-.357,1.373.945.945,0,0,1-.866.479,1.341,1.341,0,0,1-.882-.309q-.357-.231-.357-1.42v-1.9a24.077,24.077,0,0,0-4.651.57,5.411,5.411,0,0,1-1.189.2.7.7,0,0,1-.458-.217.514.514,0,0,1-.22-.385.707.707,0,0,1,.611-.756,25.771,25.771,0,0,1,5.924-.71.938.938,0,0,1,.34-.586,1.507,1.507,0,0,1,.17-.108,9.352,9.352,0,0,0-1.121.108.765.765,0,0,1-.22.077q-.324,0-.391-.494l-.356-3.149a.375.375,0,0,1,.322-.37q.645-.108,1.308-.154a1.441,1.441,0,0,0,.152-.478c0-.072-.074-.17-.221-.293A8.01,8.01,0,0,1,924.432,930.061Zm-3.243,7.716c.09,0,.136.041.136.123a2.091,2.091,0,0,1-.815,1.359,3.082,3.082,0,0,1-1.918.91c-.407,0-.612-.263-.612-.787a1.245,1.245,0,0,1,.29-.926c.022.082.129.123.322.123a4.059,4.059,0,0,0,1.969-.617A1.686,1.686,0,0,1,921.189,937.777Zm2.19-5.2a9.6,9.6,0,0,1,1-.046q.612,0,1.239.046l.052-.54c0-.051-.04-.087-.119-.107a7.041,7.041,0,0,0-1.24-.077,3.283,3.283,0,0,0-.814.091c-.091.022-.136.052-.136.093Zm.255,1.436a5.22,5.22,0,0,1,.78-.062,6.509,6.509,0,0,1,.9.062.2.2,0,0,0,.221-.186l.033-.447c-.419-.031-.814-.046-1.188-.046s-.7.01-.967.03l.017.587C923.43,933.991,923.5,934.012,923.634,934.012Zm3.463.6c.079-.071.174-.159.288-.261l1.087-.85a7.659,7.659,0,0,0-1-.509.9.9,0,0,1-.187-.093Q927.2,933.626,927.1,934.613Zm.458,3.226a2.381,2.381,0,0,1,.9.247,9.688,9.688,0,0,0,2.106.74,2.731,2.731,0,0,1-.612,1.127,1.335,1.335,0,0,1-.814.277,1.406,1.406,0,0,1-.917-.508,3.242,3.242,0,0,1-.866-1.7C927.351,937.9,927.419,937.839,927.555,937.839Z" transform="translate(0)" fill="#231f20"/><path d="M924.432,945.976a51.575,51.575,0,0,1,6.551.278c.4.052.6.164.6.339q-.339,2.115-.747,8.441-.033.557-.425.556-.151,0-.746-.077-1.714-.155-5.263-.155-3.632,0-5.619.186a4.157,4.157,0,0,1-.662.107q-.322,0-.39-.477l-.679-8.334c0-.3.265-.484.8-.556Q921.1,945.977,924.432,945.976Zm-4.957,7.962q1.391-.03,2.75-.045a.708.708,0,0,1-.154-.155,1.766,1.766,0,0,1-.356-1.157,6.2,6.2,0,0,0,2.393-.355.808.808,0,0,0,.527-.7v-1.743a21.181,21.181,0,0,0-3.327.277q-.814.11-1.019.109a.687.687,0,0,1-.475-.186.729.729,0,0,1-.187-.494.665.665,0,0,1,.459-.633,24.131,24.131,0,0,1,4.549-.231v-.74a.623.623,0,0,1,.153-.433h-.356q-2.549,0-4.737.17c-.554.041-.832.1-.832.185l.408,6Q919.271,953.938,919.475,953.938Zm3.819-3.718a.4.4,0,0,1,.458.447c0,.083-.136.247-.407.494a5.289,5.289,0,0,1-1.307.772,3.309,3.309,0,0,1-1.138.262c-.35,0-.526-.144-.526-.432a1.56,1.56,0,0,1,.391-.91.3.3,0,0,0,.271.108,2.9,2.9,0,0,0,.9-.17,4.314,4.314,0,0,0,1.018-.479A.652.652,0,0,1,923.294,950.22Zm2.9-2.763a.365.365,0,0,1,.085.231,3.417,3.417,0,0,0-.067.556v.4q1.288.047,2.7.169a2.162,2.162,0,0,1-.323,1.158.642.642,0,0,1-.492.2,6.006,6.006,0,0,1-.883-.109c-.362-.072-.7-.128-1-.169V951.7a1.888,1.888,0,0,1-.968,1.744,5.335,5.335,0,0,1-1.035.432h4.7c.136,0,.209-.087.221-.262l.389-5.864c0-.083-.146-.14-.441-.17Q928.082,947.489,926.2,947.457Z" transform="translate(0)" fill="#231f20"/></g></g></svg>
