<svg xmlns="http://www.w3.org/2000/svg" width="1000" height="988" viewBox="0 0 1000 988"><g id="Artboard"><rect id="Tint" width="1000" height="988" fill="#58595b"/></g><g id="Outline"><g id="Trojan_Green_Asteroid" data-name="Trojan Green Asteroid"><path id="Trojan" d="M589.75,918.1c-.022-.492-.041-1.23-.041-2.324v-2.064c0-3.473-.619-6.057-1.891-7.9-1.195-1.757-3.616-3.838-8.375-3.838a14.083,14.083,0,0,0-4.7.756c-.071-.055-.145-.107-.22-.157l-.21-.14a4,4,0,0,0-4-.246l-1.05.525q-.113.057-.222.12l-.025.015-1.264.08-.149.012-2.415.246a3.983,3.983,0,0,0-2.455,1.2,10.718,10.718,0,0,0-7.255-2.407,13.916,13.916,0,0,0-7.011,1.674,9.438,9.438,0,0,0-1.578,1.1,4.007,4.007,0,0,0-.735-1.436,5.667,5.667,0,0,0,.865-3.038,6.062,6.062,0,0,0-6.311-5.926,6.377,6.377,0,0,0-3.877,1.278,5.7,5.7,0,0,0-1.64,7.574,3.969,3.969,0,0,0-1.72.88,15.252,15.252,0,0,0-8.267-2.241,15.486,15.486,0,0,0-8.338,2.268,5.994,5.994,0,0,0-1.676-1.184,7.991,7.991,0,0,0-3.46-.77,8.494,8.494,0,0,0-3.109.572q-.1-.076-.207-.147l-.21-.14a4,4,0,0,0-3.956-.271l-1.014.49c-.108.052-.214.109-.316.171l-.014.008-.29.014c.007-.09.027-.176.027-.267a12.955,12.955,0,0,0-.329-2.674,14.273,14.273,0,0,0-.427-1.569l.031-.172a4.149,4.149,0,0,0,.059-.577l.03-1.045q.009-.13.009-.264a4,4,0,0,0-3.981-4h-.111a4.312,4.312,0,0,0-.472.038l-.777.1a4,4,0,0,0-1.7.626c-.176,0-.407.008-.708.008H473.865a3.98,3.98,0,0,0-2.361-.771h-.84a4,4,0,0,0-4,4.106l.035,1.33a3.961,3.961,0,0,0,.039.462l.01.067-.015.044-.039.12c-.041.121-.075.244-.1.368-.1.444-.187.822-.247,1.184a18,18,0,0,0-.369,2.316,4,4,0,0,0,3.989,4.3h.98a4,4,0,0,0,3.933-3.271,6.366,6.366,0,0,1,.225-.9,22.106,22.106,0,0,1,3.15-.254l.033,11.532c0,2.309-.076,3.611-.133,4.263-.194.013-.425.022-.7.022a4,4,0,0,0-4,4v.594a4,4,0,0,0,4,4c.379,0,.793-.023,1.318-.052l.433-.023.5-.026c.369-.02.658-.038.869-.038a4.185,4.185,0,0,0,.447-.025l3.292-.37,3.157.365c.394.051.734.086,1.021.115l.284.03a4.128,4.128,0,0,0,.444.024h1.926a4,4,0,0,0,4-4v-.594a4,4,0,0,0-4-4c-.256,0-.492-.014-.7-.034-.043-.435-.133-1.652-.133-4.332l.035-11.183.01-.238c2.417.187,3.315.826,3.347,1.028a3.989,3.989,0,0,0,2.038,2.869,3.932,3.932,0,0,0-.166,1.083v.525a4,4,0,0,0,3.382,3.952c.028.482.048,1.122.048,1.964v2.485c0,.878-.028,1.535-.065,2.019a4,4,0,0,0-3.26,3.931v.525a4,4,0,0,0,4,4c.087,0,.174,0,.261-.008l2.135-.14c.074,0,.149-.012.224-.021l2.32-.283a24.548,24.548,0,0,0,3,.311c.284.02.525.05.729.074.151.018.29.035.417.047a3.813,3.813,0,0,0,.4.02h1.3a4,4,0,0,0,3.993-3.928c.292.294.6.582.924.857a14.944,14.944,0,0,0,9.783,3.421,15.246,15.246,0,0,0,9.366-3l.041-.031c.318-.245.611-.506.9-.769-.057,4.178-.418,5.345-.5,5.547-.018.046-.034.092-.05.139a.787.787,0,0,1-.092.2s-.025.013-.073.03a4,4,0,0,0-2.407,5.112l.176.491a4,4,0,0,0,5.03,2.444c4.106-1.368,6.856-3.8,8.174-7.224l.022-.061a17.172,17.172,0,0,0,.828-4.106,10.659,10.659,0,0,0,5.285,1.235,13.678,13.678,0,0,0,5.783-1.252,6.677,6.677,0,0,0,3.878,1.183,9.043,9.043,0,0,0,2.844-.487,3.961,3.961,0,0,0,1.215.206q.115,0,.231-.006l1.821-.106c.078,0,.155-.011.233-.02l2.818-.33,2.713.328c.081.01.163.017.244.022l1.785.106c.079,0,.158.006.236.006a4,4,0,0,0,2.744-1.089,4.061,4.061,0,0,0,.463-.52,4.059,4.059,0,0,0,.545.607A4,4,0,0,0,582.1,926.6a3.937,3.937,0,0,0,.657-.055l1.051-.174c.1-.017.194-.036.29-.06l.57-.139,1.675.219.086.018c.209.038.525.1.907.135a3.826,3.826,0,0,0,.4.02h1.33a4,4,0,0,0,4-4v-.525A4,4,0,0,0,589.75,918.1Zm-79.291-.058h-.038c-.032-.434-.057-1.023-.057-1.81a10.4,10.4,0,0,1,.452-3.361c.085.051.176.091.264.135a13.327,13.327,0,0,0-.072,1.336,11.732,11.732,0,0,0,.654,3.905A3.932,3.932,0,0,0,510.459,918.038Zm16.136-.62-.048.071c-.253.383-.5.655-1.388.655a1.413,1.413,0,0,1-1.287-.6,7.077,7.077,0,0,1-.079-6.252,1.359,1.359,0,0,1,1.4-.69c.874,0,1.145.267,1.388.621a5.913,5.913,0,0,1,.7,3.15A5.5,5.5,0,0,1,526.6,917.418Zm51.72.113-.036,1.481a3.983,3.983,0,0,0-1.862-.9c-.024-.461-.044-1.115-.044-2.021v-2.9c0-1.776.554-1.776,1.32-1.776.1,0,.185,0,.256.008A24.369,24.369,0,0,1,578.315,917.531Z" transform="translate(0)" fill="#fff"/><path id="Green" d="M707.7,918.1c-.022-.492-.041-1.23-.041-2.324v-2.064c0-3.473-.618-6.057-1.891-7.9-1.195-1.757-3.615-3.838-8.374-3.838a14.085,14.085,0,0,0-4.706.756c-.071-.055-.145-.107-.22-.157l-.21-.14a4,4,0,0,0-4-.246l-1.05.525q-.113.057-.222.12l-.025.015-1.263.08-.15.012-2.415.246a3.953,3.953,0,0,0-1.56.507,13.759,13.759,0,0,0-16.085,1.742,10.588,10.588,0,0,0-1.344-1.165,12.932,12.932,0,0,0-7.73-2.4,13.2,13.2,0,0,0-7.547,2.22,5.955,5.955,0,0,0-1.662-1.171,7.991,7.991,0,0,0-3.46-.77,8.5,8.5,0,0,0-3.109.572q-.1-.076-.207-.147l-.21-.14a4,4,0,0,0-3.955-.271l-1.015.49c-.108.052-.213.109-.316.171l-.013.008-1.2.057c-.1,0-.194.013-.29.025l-.83.1.022-.375a4.055,4.055,0,0,0,0-.441l-.065-1.259c.033-.064.065-.129.1-.194a8.518,8.518,0,0,0,.818-2.04,4,4,0,0,0-2.6-4.821l-.734-.246a4.015,4.015,0,0,0-2.586.018l-1.93-.364a34.266,34.266,0,0,0-6.657-.629,25.608,25.608,0,0,0-14.024,3.641,15.637,15.637,0,0,0-7.373,13.73,15.1,15.1,0,0,0,7.584,13.459,26.382,26.382,0,0,0,13.848,3.492,36.921,36.921,0,0,0,6.472-.516c1.244-.214,2.478-.487,3.721-.811a3.986,3.986,0,0,0,2.51.907c.087,0,.174,0,.261-.008l2.135-.14c.075,0,.15-.012.224-.021l2.321-.283a24.529,24.529,0,0,0,3,.311c.284.02.524.05.728.074.151.018.29.035.417.047a3.832,3.832,0,0,0,.4.02h1.295a3.992,3.992,0,0,0,3.935-3.356,13.923,13.923,0,0,0,10.134,3.776,14.905,14.905,0,0,0,9.279-2.791,14.543,14.543,0,0,0,9.026,2.791,16.92,16.92,0,0,0,6.4-1.146,3.993,3.993,0,0,0,2.277.726c.077,0,.154,0,.232-.006l1.82-.106c.078,0,.156-.011.233-.02l2.818-.33,2.713.328c.082.01.163.017.244.022l1.785.106q.118.006.237.006a4,4,0,0,0,2.743-1.089,4.07,4.07,0,0,0,.464-.52,4,4,0,0,0,3.233,1.645,3.934,3.934,0,0,0,.656-.055l1.051-.174c.1-.017.194-.036.29-.06l.57-.139,1.675.219.086.018c.209.038.525.1.907.135a3.826,3.826,0,0,0,.4.02h1.331a4,4,0,0,0,4-4v-.525A4,4,0,0,0,707.7,918.1Zm-46.139-1.688a4.637,4.637,0,0,1-3.052,1.106,3.469,3.469,0,0,1-2.666-.963c-.062-.06-.12-.121-.175-.182l5.878-.068c0,.036.012.07.016.106Zm15.253,1.106a3.469,3.469,0,0,1-2.666-.963c-.062-.06-.12-.121-.175-.182l6.034-.07c-.048.035-.1.071-.142.109A4.634,4.634,0,0,1,676.812,917.514ZM617.444,911.4v.595a4,4,0,0,0,4,4l.163,0c0,.073,0,.151,0,.234v1.717c-.428.034-.966.058-1.635.058-3.147,0-5.523-.762-7.263-2.331a7.56,7.56,0,0,1-2.354-5.989c0-2.77.678-4.773,2.073-6.123s3.474-2.024,6.319-2.024a7.824,7.824,0,0,1,4,.823c.425.27.856.654.856,1.967a4,4,0,0,0,1.778,3.326l-.226-.017c-.232-.017-.424-.032-.584-.046l-.1-.008-1.144-.077c-1.22-.083-1.585-.107-1.886-.107A4,4,0,0,0,617.444,911.4Zm25.034,6.641h-.039c-.032-.434-.056-1.023-.056-1.81a10.4,10.4,0,0,1,.452-3.361,3.845,3.845,0,0,0,.452.231,14.673,14.673,0,0,0-.121,1.8,13.047,13.047,0,0,0,.428,3.319A3.924,3.924,0,0,0,642.478,918.038Zm53.785-.507-.035,1.481a3.992,3.992,0,0,0-1.862-.9c-.025-.461-.045-1.115-.045-2.021v-2.9c0-1.776.554-1.776,1.321-1.776.1,0,.184,0,.255.008A24.369,24.369,0,0,1,696.263,917.531Z" transform="translate(0)" fill="#fff"/><path id="Asteroid" d="M875.829,920.459l-.14-.595a4,4,0,0,0-3.761-3.084c-.012-.4-.019-.884-.019-1.463V902.331l.035-2.952.1-2.964a4,4,0,0,0-2.215-3.721l-.21-.1a4,4,0,0,0-3.473-.044l-1.051.49c-.067.031-.132.064-.2.1l-.239.128-4.133.32a4,4,0,0,0-3.69,3.988v.525a4,4,0,0,0,3.6,3.98v.014c-.228-.008-.456-.013-.683-.013a15.127,15.127,0,0,0-9.619,3.241c-.311.241-.6.5-.878.757l0-.032a4,4,0,0,0-.9-2.743,5.453,5.453,0,0,0,.867-2.964,6.023,6.023,0,0,0-6.31-6,6.733,6.733,0,0,0-3.854,1.2c-.065.045-.129.092-.191.141a5.732,5.732,0,0,0-2.266,4.582,5.65,5.65,0,0,0,.83,2.961,3.972,3.972,0,0,0-1.712.873,15.241,15.241,0,0,0-8.311-2.269,15.492,15.492,0,0,0-8.339,2.268,5.965,5.965,0,0,0-1.676-1.184,7.988,7.988,0,0,0-3.46-.77,8.5,8.5,0,0,0-3.109.572q-.1-.076-.207-.147l-.21-.14a4,4,0,0,0-3.955-.271l-1.015.49c-.107.052-.213.109-.316.171l-.013.008-1.2.057c-.1,0-.194.013-.29.025l-2.311.28a3.989,3.989,0,0,0-1.486.5,13.77,13.77,0,0,0-16.2,1.849c-.211.2-.4.418-.6.631a3.962,3.962,0,0,0-3.946-3.461h-.027l-1.189.008v-.7a4,4,0,0,0-4-4h-1.05a4,4,0,0,0-3.922,3.214c-.17.85-.494,1.7-2.383,1.88a3.95,3.95,0,0,0-1.012.251,8.206,8.206,0,0,0-1.924-.883,15.213,15.213,0,0,0-4.793-.647,13.465,13.465,0,0,0-6.348,1.442,7.86,7.86,0,0,0-4.548,7.143,7.507,7.507,0,0,0,.992,3.788,3.866,3.866,0,0,0-.377.348,3.975,3.975,0,0,0-.922,1.628l-.108-.2c-1.238-2.519-2.584-5.328-4-8.35l-5.95-12.705a4,4,0,0,0-3.623-2.3h-1.365a4,4,0,0,0-3.575,2.207l-6.335,12.636-.823,1.679c-3.03,6.211-4.254,8.071-4.61,8.553a2.759,2.759,0,0,1-1.143.268,4,4,0,0,0-4,4v.594a4,4,0,0,0,4,4c.1,0,.2,0,.3-.011l2.31-.175q.1-.007.207-.021l2.492-.319,2.388.317c.075.01.15.018.225.023l2.31.175c.1.008.2.011.3.011a4,4,0,0,0,4-4v-.594a4,4,0,0,0-2.224-3.585l.867-2.047,2.845-.029,2.445.033.02.046c.358.8.628,1.428.83,1.92a4,4,0,0,0-2.387,3.662v.594a4,4,0,0,0,4,4c.077,0,.153,0,.23-.006l1.208-.069.728-.035c.315-.015.545-.029.706-.029a3.912,3.912,0,0,0,.507-.033l2.809-.359,2.878.331c.064.007.129.013.194.017l2.66.175c.088.006.175.008.262.008a4,4,0,0,0,2.092-.6,11.026,11.026,0,0,0,1.679.5,16.7,16.7,0,0,0,3.857.447,14.416,14.416,0,0,0,6.68-1.5,8.928,8.928,0,0,0,3.9-3.506,8.054,8.054,0,0,0,1.324,2.074l.048.051c1.739,1.867,4.266,2.814,7.511,2.814a12.467,12.467,0,0,0,7.873-2.629,14.559,14.559,0,0,0,9,2.768,16.827,16.827,0,0,0,6.468-1.177,3.989,3.989,0,0,0,2.316.757c.087,0,.174,0,.262-.008l2.134-.14c.075,0,.15-.012.224-.021l2.321-.283a24.529,24.529,0,0,0,3,.311c.284.02.524.05.728.074.152.018.29.035.417.047a3.832,3.832,0,0,0,.4.02h1.295a4,4,0,0,0,3.992-3.928c.292.294.6.582.925.857a14.944,14.944,0,0,0,9.783,3.421,15.52,15.52,0,0,0,7.755-1.965,3.944,3.944,0,0,0,.466.536,4,4,0,0,0,2.733,1.079c.088,0,.177,0,.265-.008l2.1-.14c.072,0,.143-.011.214-.02l2.442-.295,2.337.264.136.013,2.241.174c.1.008.208.012.311.012A4,4,0,0,0,851.1,925.5c.061-.057.106-.126.163-.185a13.137,13.137,0,0,0,6.5,1.6,15.112,15.112,0,0,0,4.739-.739,4,4,0,0,0,1.1.567l.21.071a3.992,3.992,0,0,0,2.686-.053l1.295-.49c.07-.026.14-.055.208-.085l.391-.174,1.778-.209c.11-.013.22-.031.329-.053l2.24-.455a4,4,0,0,0,3.1-4.834Zm-16.5-9.472a4.006,4.006,0,0,1,1.145.153v6.3a4.2,4.2,0,0,1-.831.07,1.94,1.94,0,0,1-1.624-.844,4.759,4.759,0,0,1-.956-3.173C857.068,911.181,858.238,910.987,859.334,910.987Zm-33.321.305a1.361,1.361,0,0,1,1.4-.69c.874,0,1.145.267,1.388.621a5.913,5.913,0,0,1,.7,3.15,5.5,5.5,0,0,1-.689,3.045c-.017.023-.033.047-.048.071-.253.383-.5.655-1.388.655a1.416,1.416,0,0,1-1.288-.6,7.077,7.077,0,0,1-.079-6.252Zm-30.938,6.222a3.472,3.472,0,0,1-2.666-.963c-.061-.06-.119-.121-.175-.182l6.034-.07c-.047.035-.1.071-.141.109A4.635,4.635,0,0,1,795.075,917.514Zm17.6.524h-.039c-.032-.434-.056-1.023-.056-1.81a10.4,10.4,0,0,1,.452-3.361c.085.051.176.091.264.135a13.037,13.037,0,0,0-.072,1.336,11.732,11.732,0,0,0,.654,3.905A3.932,3.932,0,0,0,812.68,918.038Zm-32.813-1.328a4.037,4.037,0,0,0-.664.386,4.422,4.422,0,0,1-1.037.494,1.639,1.639,0,0,1-.247.052,11.846,11.846,0,0,1-.124-1.905l.034-3.822,1.2.016h.053a3.947,3.947,0,0,0,1-.144,14.117,14.117,0,0,0-.347,3.109A13.7,13.7,0,0,0,779.867,916.71Z" transform="translate(0)" fill="#fff"/></g></g><g id="Text"><path d="M518.7,780.743c1.517-1.726,2.87-3.359,4.06-4.876h-3.919a29.1,29.1,0,0,0-4.666.257,4.809,4.809,0,0,0-2.123.934l.4-2.194,1.563.047h7.909l3.639-.023.934-.024-.606.7c-5.763,6.252-9.356,10.359-11.433,13.041l3.826.094,1.657.024a20.218,20.218,0,0,0,4.69-.4,4.211,4.211,0,0,0,2.192-1.26l-.489,2.5H510.679Q516.593,783.159,518.7,780.743Z" transform="translate(0)" fill="#000000"/><path d="M540.938,787.416a5.438,5.438,0,0,1-2.334,1.8,8.414,8.414,0,0,1-3.335.63,6.088,6.088,0,0,1-4.154-1.191,4.6,4.6,0,0,1-1.353-3.709v-1.587l.023-1.12a57.429,57.429,0,0,0-.163-5.808,2.733,2.733,0,0,0-.536-1.517h3.709c-.279.21-.467.77-.56,1.7q-.139,1.434-.139,6.23c0,2.333.326,3.872.956,4.619a4.02,4.02,0,0,0,3.266,1.142,3.919,3.919,0,0,0,3.453-1.422c.676-.933,1-2.59,1-4.947q0-4.514-.139-5.739a2.547,2.547,0,0,0-.537-1.586h3.71a2.721,2.721,0,0,0-.561,1.563c-.023.42-.069,1.143-.093,2.146s-.047,2.217-.047,3.616.024,2.474.047,3.22.047,1.587.093,2.543a2.951,2.951,0,0,0,.561,1.563h-2.963Z" transform="translate(0)" fill="#000000"/><path d="M548.894,784.033a20.864,20.864,0,0,0,.233,3.733,3.984,3.984,0,0,0,.652,1.8H546.63a4.953,4.953,0,0,0,.77-2.542,54.662,54.662,0,0,0,.256-6.136,24.527,24.527,0,0,0-.256-4.573,1.739,1.739,0,0,0-.77-1.4h2.847c.49,0,1.073.4,1.7,1.19l.373.49,2.38,3.01c2.5,3.2,4.479,5.645,5.972,7.372l.024-6.416c0-.933-.024-1.773-.047-2.5s-.07-1.26-.116-1.657a2.675,2.675,0,0,0-.537-1.493h2.566a.992.992,0,0,0-.326.56,4.5,4.5,0,0,0-.234,1.1q0,.21-.07,2.03c-.047,1.214-.07,2.356-.07,3.453v7.583h-1.749c-.63-.84-2.123-2.707-4.527-5.576l-6.019-7.419Z" transform="translate(0)" fill="#000000"/><path d="M567.86,775.167c.093.141.187.28.281.443a1.874,1.874,0,0,1,.232.887,2.236,2.236,0,0,1-.56,1.4,4.9,4.9,0,0,1-1.609,1.12l.256-.607a2.032,2.032,0,0,0,.117-.559,2.506,2.506,0,0,0-.047-.4c-.047-.141-.116-.3-.186-.467a2.84,2.84,0,0,0-.3-.49c-.14-.163-.3-.373-.489-.583l1.866-1.283C567.6,774.841,567.743,775.027,567.86,775.167Z" transform="translate(0)" fill="#000000"/><path d="M584.1,788.536a2.724,2.724,0,0,0,.956.35,4.531,4.531,0,0,0,1.143.14,3.007,3.007,0,0,0,1.866-.56,1.638,1.638,0,0,0,.748-1.376,1.678,1.678,0,0,0-.491-1.144,8.806,8.806,0,0,0-2.1-1.213,7.439,7.439,0,0,1-2.31-1.447,2.21,2.21,0,0,1-.7-1.609,2.162,2.162,0,0,1,1.1-1.89,5.637,5.637,0,0,1,3.055-.7h.514a6.556,6.556,0,0,1,.7.07c.35.047.653.07.91.093.187.023.443.07.793.141l-.07,1.936a3.411,3.411,0,0,0-1.213-1.12,3.69,3.69,0,0,0-1.656-.35,2.672,2.672,0,0,0-1.493.4,1.178,1.178,0,0,0-.584,1.05c0,.722.91,1.54,2.73,2.425l.256.141a7.208,7.208,0,0,1,2.17,1.376,1.9,1.9,0,0,1,.56,1.4,2.673,2.673,0,0,1-1.423,2.24,6.2,6.2,0,0,1-3.476.957,7.945,7.945,0,0,1-2.45-.3c-.653-.186-.98-.443-.98-.746l.023-.63a5.618,5.618,0,0,1,.14-1.12A3.359,3.359,0,0,0,584.1,788.536Z" transform="translate(0)" fill="#000000"/><path d="M602.364,776.287l-.07,9.985V787a10.053,10.053,0,0,0,.117,1.587,2.447,2.447,0,0,0,.536.979h-3.1c.489-.373.863-1.609,1.073-3.709a84.044,84.044,0,0,0,.373-9.356,2.783,2.783,0,0,0-.141-.933,2.43,2.43,0,0,0-.536-.653h3.033a1.676,1.676,0,0,1,.467.046,1.188,1.188,0,0,1,.256.374l4.923,11.035,5.436-10.942.327-.42a1.526,1.526,0,0,1,.606-.093h2.613a3.257,3.257,0,0,0-.489,1.19,14.915,14.915,0,0,0-.14,2.379,75.511,75.511,0,0,0,.28,8.12,5.541,5.541,0,0,0,1,2.962h-4.013a3.956,3.956,0,0,0,.56-1.212c.046-.281.093-.63.14-1.074.024-.42.046-.77.046-1.026l-.046-.141-.047-1.842-.139-7.98-6.813,13.6Z" transform="translate(0)" fill="#000000"/><path d="M629.124,789.7l-.117-.023v-.187l-.093-1.68a4.163,4.163,0,0,1-1.563,1.494,4.371,4.371,0,0,1-2.077.537,4.31,4.31,0,0,1-1.866-.4,2.791,2.791,0,0,1-1.236-1.073,4.134,4.134,0,0,1-.443-1.214,18.031,18.031,0,0,1-.118-2.333v-.443l.047-3.756v-.4a.908.908,0,0,0-.139-.56.718.718,0,0,0-.42-.326l1.772-.234h.117l.07-.023a.67.67,0,0,1,.443.117,1.318,1.318,0,0,1,.117.676l-.047,5.319v.141a3.8,3.8,0,0,0,.583,2.38,2.974,2.974,0,0,0,4.06-.164,5.9,5.9,0,0,0,.63-3.243v-2.636a6.832,6.832,0,0,0-.14-1.656.913.913,0,0,0-.4-.677l2.659-.257c-.024.3-.07.677-.093,1.12s-.047.933-.047,1.446l-.023,3.663V786.6c0,.583,0,1.026.023,1.33a3.468,3.468,0,0,0,.116.793,1.324,1.324,0,0,0,.444.839l-2.123.14Z" transform="translate(0)" fill="#000000"/><path d="M634.606,788.536a2.731,2.731,0,0,0,.956.35,4.545,4.545,0,0,0,1.144.14,3.007,3.007,0,0,0,1.866-.56,1.639,1.639,0,0,0,.747-1.376,1.676,1.676,0,0,0-.49-1.144,8.8,8.8,0,0,0-2.1-1.213,7.444,7.444,0,0,1-2.309-1.447,2.21,2.21,0,0,1-.7-1.609,2.163,2.163,0,0,1,1.1-1.89,5.642,5.642,0,0,1,3.057-.7h.513a6.58,6.58,0,0,1,.7.07c.35.047.653.07.91.093.187.023.442.07.793.141l-.07,1.936a3.411,3.411,0,0,0-1.213-1.12,3.693,3.693,0,0,0-1.656-.35,2.678,2.678,0,0,0-1.494.4,1.18,1.18,0,0,0-.584,1.05c0,.722.911,1.54,2.731,2.425l.256.141a7.208,7.208,0,0,1,2.17,1.376,1.9,1.9,0,0,1,.56,1.4,2.674,2.674,0,0,1-1.424,2.24,6.2,6.2,0,0,1-3.475.957,7.945,7.945,0,0,1-2.45-.3c-.654-.186-.98-.443-.98-.746l.023-.63a5.545,5.545,0,0,1,.14-1.12A3.364,3.364,0,0,0,634.606,788.536Z" transform="translate(0)" fill="#000000"/><path d="M643.331,776.24l2.03-1.073,1.143,1.563-1.983,1.05Zm.653,12.553a10.62,10.62,0,0,0,.14-2.147v-3.453a19.638,19.638,0,0,0-.14-2.986c-.092-.49-.233-.77-.42-.863l1.423-.071,1.238-.163c-.024.163-.047.444-.071.817s-.047.747-.047,1.12l-.023,4.34v1.305a11.814,11.814,0,0,0,.117,2.078,1.06,1.06,0,0,0,.444.792h-3.1A1.223,1.223,0,0,0,643.984,788.793Z" transform="translate(0)" fill="#000000"/><path d="M654.319,789.843a5.781,5.781,0,0,1-3.989-1.447,4.741,4.741,0,0,1-1.61-3.709,5.074,5.074,0,0,1,1.82-4.037,6.782,6.782,0,0,1,4.643-1.563l1.4.07,1.237.21-.093,2.4a3.082,3.082,0,0,0-1.05-1.424,2.817,2.817,0,0,0-1.633-.467,3.774,3.774,0,0,0-2.94,1.307,4.829,4.829,0,0,0-1.143,3.336,3.9,3.9,0,0,0,1.143,2.893A3.849,3.849,0,0,0,655,788.583a5.027,5.027,0,0,0,1.89-.351,3.359,3.359,0,0,0,1.4-.932C658.285,788.886,656.723,789.843,654.319,789.843Z" transform="translate(0)" fill="#000000"/><path d="M680.192,778.037a3.834,3.834,0,0,0-1.61-1.773,5.039,5.039,0,0,0-2.566-.63,6.307,6.307,0,0,0-4.6,1.61,6.059,6.059,0,0,0-1.656,4.48,6.132,6.132,0,0,0,1.819,4.642,6.67,6.67,0,0,0,4.876,1.774,8.248,8.248,0,0,0,1.4-.094,6.484,6.484,0,0,0,1.284-.373,5.733,5.733,0,0,0,2.192-1.33,4.2,4.2,0,0,1-2.123,2.519,7.8,7.8,0,0,1-4.013.981,8.245,8.245,0,0,1-5.832-2.1,6.935,6.935,0,0,1-2.287-5.366,7.066,7.066,0,0,1,2.45-5.693,10.219,10.219,0,0,1,6.789-2.053c.42,0,1.074.047,1.984.14s1.609.14,2.052.14Z" transform="translate(0)" fill="#000000"/><path d="M693.117,780.37a4.491,4.491,0,0,1,1.423,3.524,5.552,5.552,0,0,1-5.973,5.949c-3.522,0-5.576-1.89-5.576-5.156a5.189,5.189,0,0,1,1.7-4.06,6.3,6.3,0,0,1,4.387-1.54A5.824,5.824,0,0,1,693.117,780.37Zm-7.046.653a3.922,3.922,0,0,0-.653,1.331,6.231,6.231,0,0,0-.257,1.819c0,2.917,1.54,4.806,3.989,4.806a2.777,2.777,0,0,0,2.4-1.143,5.848,5.848,0,0,0,.816-3.359,4.75,4.75,0,0,0-1.073-3.267,3.222,3.222,0,0,0-2.683-1.283A3.136,3.136,0,0,0,686.071,781.023Z" transform="translate(0)" fill="#000000"/><path d="M697.059,788.652a16.754,16.754,0,0,0,.139-2.659l-.023-1.96v-5.88a24.185,24.185,0,0,0-.14-3.265c-.093-.537-.233-.864-.443-.957l2.683-.4c-.023.117-.046.583-.07,1.446s-.047,1.424-.047,1.727l-.023,8.119v1.82c0,.513,0,.957.023,1.307a5.328,5.328,0,0,0,.094.817,1.059,1.059,0,0,0,.443.792h-3.1A1.474,1.474,0,0,0,697.059,788.652Z" transform="translate(0)" fill="#000000"/><path d="M702.658,788.652a16.6,16.6,0,0,0,.14-2.659l-.024-1.96v-5.88a24.24,24.24,0,0,0-.139-3.265c-.093-.537-.234-.864-.444-.957l2.684-.4c-.023.117-.047.583-.07,1.446s-.047,1.424-.047,1.727l-.024,8.119v1.82c0,.513,0,.957.024,1.307a5.2,5.2,0,0,0,.094.817,1.059,1.059,0,0,0,.443.792h-3.1A1.464,1.464,0,0,0,702.658,788.652Z" transform="translate(0)" fill="#000000"/><path d="M717.053,787.346c0,.607-.444,1.167-1.33,1.7a5.806,5.806,0,0,1-3.01.794,5.3,5.3,0,0,1-3.873-1.447,5.171,5.171,0,0,1-1.47-3.9,5.243,5.243,0,0,1,1.54-3.967,5.706,5.706,0,0,1,4.083-1.446c2.543,0,4.246,1.236,4.246,3.01,0,.373-.233.606-.723.723a25.815,25.815,0,0,1-4.106.187l-1.563-.024-1.05-.023a2.7,2.7,0,0,0-.163.63l-.047.677c0,2.519,1.47,4.129,3.989,4.129a5.178,5.178,0,0,0,1.843-.3,6.383,6.383,0,0,0,1.634-1.027Zm-6.86-5.063.654.024,1.166.023h.374a10.139,10.139,0,0,0,2.192-.14.631.631,0,0,0,.42-.629,1.493,1.493,0,0,0-.653-1.191,2.448,2.448,0,0,0-1.586-.513,2.808,2.808,0,0,0-1.843.676,2.763,2.763,0,0,0-.98,1.75Z" transform="translate(0)" fill="#000000"/><path d="M724.541,789.843a5.781,5.781,0,0,1-3.989-1.447,4.742,4.742,0,0,1-1.611-3.709,5.075,5.075,0,0,1,1.821-4.037,6.781,6.781,0,0,1,4.642-1.563l1.4.07,1.237.21-.094,2.4a3.076,3.076,0,0,0-1.05-1.424,2.812,2.812,0,0,0-1.632-.467,3.776,3.776,0,0,0-2.941,1.307,4.833,4.833,0,0,0-1.142,3.336,3.906,3.906,0,0,0,1.142,2.893,3.85,3.85,0,0,0,2.894,1.167,5.022,5.022,0,0,0,1.889-.351,3.369,3.369,0,0,0,1.4-.932C728.507,788.886,726.944,789.843,724.541,789.843Z" transform="translate(0)" fill="#000000"/><path d="M729.86,780.16v-.723l1.33-.093.07-2.847,1.983-.489-.094,3.336h2.194l.186.023.047.116c0,.187-.186.351-.559.514a5.744,5.744,0,0,1-1.658.163h-.21l-.139,6.02v.163c0,1.493.42,2.146,1.377,2.146a1.835,1.835,0,0,0,.816-.163,3.236,3.236,0,0,0,.817-.537l-.094,1.027a3.212,3.212,0,0,1-1.166.746,3.685,3.685,0,0,1-1.423.281c-1.517,0-2.311-1.027-2.311-2.87v-.21l.141-6.556Z" transform="translate(0)" fill="#000000"/><path d="M737.629,776.24l2.03-1.073,1.143,1.563-1.983,1.05Zm.653,12.553a10.62,10.62,0,0,0,.14-2.147v-3.453a19.638,19.638,0,0,0-.14-2.986c-.093-.49-.233-.77-.42-.863l1.423-.071,1.237-.163c-.023.163-.046.444-.07.817s-.047.747-.047,1.12l-.023,4.34v1.305a11.814,11.814,0,0,0,.117,2.078,1.059,1.059,0,0,0,.443.792h-3.1A1.227,1.227,0,0,0,738.282,788.793Z" transform="translate(0)" fill="#000000"/><path d="M753.144,780.37a4.49,4.49,0,0,1,1.422,3.524,5.552,5.552,0,0,1-5.972,5.949c-3.523,0-5.576-1.89-5.576-5.156a5.185,5.185,0,0,1,1.7-4.06,6.292,6.292,0,0,1,4.386-1.54A5.827,5.827,0,0,1,753.144,780.37Zm-7.046.653a3.9,3.9,0,0,0-.654,1.331,6.232,6.232,0,0,0-.256,1.819c0,2.917,1.54,4.806,3.989,4.806a2.774,2.774,0,0,0,2.4-1.143,5.848,5.848,0,0,0,.816-3.359,4.75,4.75,0,0,0-1.073-3.267,3.22,3.22,0,0,0-2.682-1.283A3.134,3.134,0,0,0,746.1,781.023Z" transform="translate(0)" fill="#000000"/><path d="M757.062,788.793a10.62,10.62,0,0,0,.14-2.147v-2.893a22.237,22.237,0,0,0-.14-3.22,1.456,1.456,0,0,0-.443-.956l2.5-.233.071.536.07.607v.3a5.381,5.381,0,0,1,1.7-1.307,5.566,5.566,0,0,1,2.123-.4,2.717,2.717,0,0,1,2.38.957c.443.653.677,2.053.677,4.223v2.986a7.925,7.925,0,0,0,.116,1.586,1.107,1.107,0,0,0,.443.723h-2.636l.093-2.613.024-3.079v-.56a3.728,3.728,0,0,0-.514-2.426,2.527,2.527,0,0,0-1.819-.514,2.7,2.7,0,0,0-2.077.677c-.4.467-.607,1.609-.607,3.406v2.193a13.381,13.381,0,0,0,.117,2.17,1.134,1.134,0,0,0,.444.746h-3.1A1.223,1.223,0,0,0,757.062,788.793Z" transform="translate(0)" fill="#000000"/><path d="M776.449,782.167c-.816-1.8-1.4-2.707-1.75-2.776l2.007-.187h.233c.4,0,1.1,1.423,2.077,4.27l1.632,4.548c.771-1.8,1.424-3.453,2.007-4.968.21-.724.4-1.33.536-1.8a4.537,4.537,0,0,0,.164-1.073l-.07-.42-.186-.42h2.845a11.913,11.913,0,0,0-1.959,3.289c-.933,1.914-1.96,4.269-3.056,7.046h-1.611A79.226,79.226,0,0,0,776.449,782.167Z" transform="translate(0)" fill="#000000"/><path d="M796.42,780.37a4.491,4.491,0,0,1,1.423,3.524,5.554,5.554,0,0,1-5.973,5.949c-3.522,0-5.576-1.89-5.576-5.156a5.185,5.185,0,0,1,1.7-4.06,6.3,6.3,0,0,1,4.387-1.54A5.826,5.826,0,0,1,796.42,780.37Zm-7.046.653a3.922,3.922,0,0,0-.653,1.331,6.231,6.231,0,0,0-.257,1.819c0,2.917,1.54,4.806,3.989,4.806a2.774,2.774,0,0,0,2.4-1.143,5.84,5.84,0,0,0,.817-3.359,4.755,4.755,0,0,0-1.073-3.267,3.222,3.222,0,0,0-2.683-1.283A3.134,3.134,0,0,0,789.374,781.023Z" transform="translate(0)" fill="#000000"/><path d="M800.361,788.652a16.6,16.6,0,0,0,.14-2.659l-.023-1.96v-5.88a24.185,24.185,0,0,0-.14-3.265c-.093-.537-.234-.864-.443-.957l2.683-.4c-.023.117-.047.583-.07,1.446s-.047,1.424-.047,1.727l-.023,8.119v1.82c0,.513,0,.957.023,1.307a5.2,5.2,0,0,0,.094.817,1.059,1.059,0,0,0,.443.792h-3.1A1.469,1.469,0,0,0,800.361,788.652Z" transform="translate(0)" fill="#000000"/><path d="M806.031,788.35l2.193-1.121,1.377,1.47-2.077,1.144Z" transform="translate(0)" fill="#000000"/><path d="M816.109,781.724a3.727,3.727,0,0,1,.956-.561,6.136,6.136,0,0,1,2.451-.443c2.823,0,4.5,1.424,4.5,3.92a4.812,4.812,0,0,1-1.611,3.71,5.7,5.7,0,0,1-4.012,1.493,5.105,5.105,0,0,1-3.943-1.634,6.015,6.015,0,0,1-1.54-4.293,10.135,10.135,0,0,1,2.123-6.766,7.217,7.217,0,0,1,5.81-2.519l1.05.047.956.139a9.241,9.241,0,0,0-5.343,2.264,8.338,8.338,0,0,0-2.053,5.319A3.015,3.015,0,0,1,816.109,781.724Zm4.643,6.159a4.8,4.8,0,0,0,.84-2.963,3.771,3.771,0,0,0-.746-2.38,2.777,2.777,0,0,0-2.1-.816H818.7a3.218,3.218,0,0,0-2.38.839,3.328,3.328,0,0,0-.863,2.473,4.646,4.646,0,0,0,.816,2.894A2.545,2.545,0,0,0,818.419,789,2.8,2.8,0,0,0,820.752,787.883Z" transform="translate(0)" fill="#000000"/><path d="M415.877,869.108q5.053.548,5.055,5.465,0,2.187-1.229,2.733-.685,1.5-5.739,4.372-5.738,3.688-9.29,3.688c-.912,0-1.366-.5-1.366-1.5q0-1.638,3.825-5.6a31.142,31.142,0,0,0,5.192-7.515A4.956,4.956,0,0,1,415.877,869.108Zm50-59.7a17.9,17.9,0,0,0,4.372-.547,8.744,8.744,0,0,1,2.459-.545q2.733,0,5.056,2.869,2.049,2.6,2.049,4.235-.685,2.325-3,7.787-1.506,6.014-2.323,9.7a5.409,5.409,0,0,1-1.777,4.372,4.471,4.471,0,0,1-3.825,1.64,2.468,2.468,0,0,1-2.049-1.093q-8.745,0-16.805.546-9.154.548-13.662,1.231a25.306,25.306,0,0,1-4.236.546q0,2.735-.136,5.464a5.825,5.825,0,0,1,2.869-.682q5.6-.546,13.935-.547,8.061-.543,17.352-1.093a78.554,78.554,0,0,0,13.116,0q14.344-.954,20.22-.41a39.286,39.286,0,0,0,9.563-1.093c1.182,0,1.776.365,1.776,1.093q0,1.506-3.688,6.422-2.187,2.868-4.236,2.869a27.85,27.85,0,0,1-7.24-1.229,51.385,51.385,0,0,0-7.242-.547,38.7,38.7,0,0,0-9.153-1.093q-5.876-.411-12.979-.41a146.289,146.289,0,0,0-15.712.956,75.171,75.171,0,0,0-9.974.547,26.923,26.923,0,0,0-6.012,1.776,5.408,5.408,0,0,1-2.869,1.093v4.372q1.5-.544,3.552-1.23,6.421-.545,18.445-.547,9.972-.545,22.406-.546a27.794,27.794,0,0,0,6.148-.546,5.488,5.488,0,0,1,2.186-.41,4.531,4.531,0,0,1,2.87-1.093,9.662,9.662,0,0,1,5.6,2.049q2.46,2.323,2.459,4.508a16.352,16.352,0,0,1-.683,3.28,12.856,12.856,0,0,0-.82,4.235q0,2.87.274,6.558.271,5.466.683,8.334a4.247,4.247,0,0,1-1.367,2.6,2.89,2.89,0,0,1-2.6,1.776q-3.553,0-4.508-8.334.544-8.608.546-15.849,0-1.091-4.1-1.093-19.264,0-33.2.547a121.427,121.427,0,0,0-18.854,2.322,4.872,4.872,0,0,1-2.459,1.64q-3.417-.544-3.689-5.055V839.6q0-15.3-.137-18.718-.547-1.094-.956-2.05a41.845,41.845,0,0,1-10.657.547q-5.328,0-5.328-3.962a9.779,9.779,0,0,1,1.229-2.6,3.274,3.274,0,0,1,2.6-1.093h1.23a3.785,3.785,0,0,0,3.006,1.093,26.26,26.26,0,0,0,13.8-3.963q6.42-3.688,6.968-8.06,1.092-3.962,4.645-3.962,5.328.548,5.055,4.918a9.631,9.631,0,0,1-2.6,6.012,17.931,17.931,0,0,1-2.049,2.869h4.782A194.706,194.706,0,0,0,465.881,809.4Zm-30.74,59.022q4.233,0,5.055,3.416a1.82,1.82,0,0,1-.683,1.5q-.138,1.228-.273,2.869-.276,2.049-.41,3.688,0,3.417-2.186,3.416-1.778,0-2.6-2.732a8.221,8.221,0,0,0-2.459-4.372,5.07,5.07,0,0,1,3.552-7.788Zm33.473-40.987q-10.522,0-19.811.683-9.7.546-16.394,1.093v5.465a16.374,16.374,0,0,1,4.235-.547q14.48-1.23,28.281-1.23h2.05A27.2,27.2,0,0,0,468.614,827.438ZM432.545,817.19c.09,0,.137.184.137.547q0,2.051-.137,4.919h.273q6.284,0,14.892-.547h22q.271-1.773.546-3.825,0-2.87-3.552-2.869Q446.891,815.961,432.545,817.19Zm20.494,49.595q3.96,0,4.645,2.869a2.724,2.724,0,0,1-.683,2.187q-.138.957-.41,2.732-.276,2.734-.41,4.781,0,3.418-2.049,3.417-1.777,0-2.46-2.87a8.983,8.983,0,0,0-2.049-4.782,12.039,12.039,0,0,1-.82-3.825A6.591,6.591,0,0,1,453.039,866.785Zm16.258,0a17.023,17.023,0,0,1,8.881,9.974,5.885,5.885,0,0,1-1.094,3.826,3.651,3.651,0,0,1-3,1.639q-2.87,0-4.236-4.372-1.776-3.279-3.962-7.651Q465.881,867.332,469.3,866.785Z" transform="translate(0)" fill="#000000"/><path d="M562.2,815.961h1.777a8.722,8.722,0,0,0,5.6-1.64,9.382,9.382,0,0,1,3.962-.956,5.666,5.666,0,0,1,3.688,1.5q2.733,2.325,2.733,4.509.135,2.735-1.23,3.825a6.831,6.831,0,0,0-2.048,4.236v13.8H584.2a4.615,4.615,0,0,1,2.187,3.143q0,2.87-4.919,2.869H576.82q0,2.049.136,4.372.682,16.8,1.094,30.058,0,3.143-3.826,3.142-3.555,0-3.962-4.919-.686-16.8-.82-32.653a102.117,102.117,0,0,0-10.657.547,53.7,53.7,0,0,0-8.06.546q-1.23,14.755-5.329,22.406a34.043,34.043,0,0,1-6.011,9.838q-2.87,3.279-4.782,3.278-3.826-.543-3.826-5.054.682-6.01,3.962-7.515,7.514-4.509,9.428-22.406h-3.143q-4.374.409-5.875.41-3.963,0-3.961-2.05,0-2.322,2.6-3.962a59.692,59.692,0,0,1,6.831-.41,14.439,14.439,0,0,1,3.962-.546q0-1.641.137-3.416,0-4.233-.137-9.153a20.811,20.811,0,0,0-1.5-7.652,7.611,7.611,0,0,1-1.5-3.825q.41-2.87,3.689-3.963a5.862,5.862,0,0,1,4.1,1.64h7.105a22.98,22.98,0,0,0,.956-6.558q.135-2.049-3.278-2.049c-1.278,0-1.913-.546-1.913-1.639q.953-3.416,4.1-3.416,2.049-.544,4.236-.956a13.588,13.588,0,0,0,2.869-1.094,11.4,11.4,0,0,1,3.416,1.5,6.361,6.361,0,0,1,1.912,3.963,2.442,2.442,0,0,1-1.912,2.6,8.624,8.624,0,0,0-3.69,4.508A31.76,31.76,0,0,0,562.2,815.961ZM551.135,842.33q9.426-.545,18.307-1.094,0-8.878.137-18.58,0-1.773-3.006-1.776-6.967,0-13.389.546a3.9,3.9,0,0,1-2.049.683q.135,5.328.273,10.793Q551.408,837.276,551.135,842.33Zm13.388,10.383c1.094,0,1.73.365,1.914,1.093a1.187,1.187,0,0,1-.547.957,24,24,0,0,1-2.6,5.054q-2.734,4.374-5.738,4.372-3.965,0-4.645-4.918a4.184,4.184,0,0,1,2.049-3.416q1.363-.545,4.372-1.5A41.653,41.653,0,0,1,564.523,852.713Zm-3.688-26.368q1.363,0,2.459,2.869a20.164,20.164,0,0,0,2.323,3.688,5.6,5.6,0,0,1,1.23,2.869c0,1-.547,1.5-1.64,1.5a6.26,6.26,0,0,0-4.1-2.048,16.575,16.575,0,0,0-3.962.545q-2.6,0-2.733-2.322a5.284,5.284,0,0,1,1.366-3.688Q558.512,826.346,560.835,826.345Zm41.124-18.991a5.577,5.577,0,0,1,3.278.957,9.606,9.606,0,0,1,1.231,4.508,45.831,45.831,0,0,1-1.094,10.383,21.126,21.126,0,0,1-3.415,9.154,17.709,17.709,0,0,1-5.875,6.011q-3.688,2.87-6.694,2.869-3.828,0-5.056-1.638a4.792,4.792,0,0,1-.683-2.324q1.5-5.462,5.739-6.42,4.233.409,7.241-3.962a19.279,19.279,0,0,0,2.869-11.477,6.254,6.254,0,0,0-.547-3.143,2.411,2.411,0,0,1-.547-1.639A4.149,4.149,0,0,1,601.959,807.354Zm19.947,70.5a21.384,21.384,0,0,1-4.235-.546,23.951,23.951,0,0,0-4.919-.547H605.1a32.383,32.383,0,0,1-6.012,1.093,16.241,16.241,0,0,0-3.143.957,8.059,8.059,0,0,1-2.732.545,7.019,7.019,0,0,1-3.962-4.235,3.528,3.528,0,0,1,.546-2.322q.409-.954.957-2.05a8.813,8.813,0,0,0,1.093-3.962,52.612,52.612,0,0,0,.136-8.607,9.937,9.937,0,0,0-.82-2.869,5.755,5.755,0,0,1-.272-1.5,9.455,9.455,0,0,1,2.048-3.415,3.853,3.853,0,0,1,3.553-1.093,8.837,8.837,0,0,1,2.6.546h4.235q6.831-.545,17.487-.956a12.012,12.012,0,0,0,3.553-.547H627.1q4.1,0,5.464,4.372a3.9,3.9,0,0,1-.273,2.05,10.508,10.508,0,0,0-1.775,3.962,56.547,56.547,0,0,0-.547,8.06,14.284,14.284,0,0,0,.137,1.64,6.542,6.542,0,0,1,.819,2.322,4.64,4.64,0,0,1-.683,3.143,3.677,3.677,0,0,1-1.5,1.776A8.249,8.249,0,0,1,621.906,877.852ZM603.6,855.309q-3.418,1.1-3.416,3.962a36.145,36.145,0,0,1-.547,8.608q-.409,3.415,1.776,3.415,8.2-.544,18.444-1.093a2.443,2.443,0,0,0,2.6-2.322q.135-6.012.137-10.794.544-2.322-2.6-2.322h-8.334Q606.465,855.311,603.6,855.309Zm20.493-22.953a95.132,95.132,0,0,0,24.456,3.415,41.271,41.271,0,0,0,6.147-.545q2.46,0,2.46,1.638-.409,2.736-6.967,6.969a12.71,12.71,0,0,1-6.559,2.322q-3.554,0-8.2-2.869a21.87,21.87,0,0,0-7.105-2.6q-6.423-2.321-10.247-2.323-3.144-.543-3.142-4.918.134-.544.546-3.688.411-3.963.821-9.974.543-6.012.546-8.607.272-4.92,4.372-4.919,4.371,1.506,4.372,4.372a6.446,6.446,0,0,1-.82,2.732,15.74,15.74,0,0,0-1.23,3.825q-.276,1.641-.546,3.69-.138,3.963-.547,8.881Q622.452,832.356,624.092,832.356Z" transform="translate(0)" fill="#000000"/><path d="M719.593,869.108a42.3,42.3,0,0,0,6.968.546,333.882,333.882,0,0,0,46.861,3.69,44.638,44.638,0,0,0,9.291-.957q3.141-.544,6.012-1.093a10.593,10.593,0,0,1,2.322-.547q2.184,0,2.185,1.64,0,2.735-10.246,10.93-6.7,4.918-11.2,4.918a39.163,39.163,0,0,1-11.2-3.415,60.655,60.655,0,0,0-8.606-2.6q-5.467-1.64-13.39-3.415-12.3-2.05-23.909-3.143-12.572-1.092-21.177-1.093-2.46,0-7.924,3.279-4.236,2.734-6.968,2.733-4.374-.683-5.329-6.7.956-4.78,4.1-6.558,4.1,0,7.788-4.235a23.21,23.21,0,0,0,6.694-8.334q2.322-4.371,5.056-4.372,5.052,0,5.055,3.415,0,2.05-5.465,6.011-4.647,6.015-4.919,7.515a1.693,1.693,0,0,0,1.23.547,17.947,17.947,0,0,0,4.372-.547q5.463,0,16.668,1.093l-.273-.546a1.471,1.471,0,0,1,1.64-1.5,22.324,22.324,0,0,0,4.644-2.187,4.533,4.533,0,0,0,2.6-3.415,2.613,2.613,0,0,1,1.093-1.5,5.5,5.5,0,0,1,2.185-.546,8.711,8.711,0,0,1,2.459.546,3.417,3.417,0,0,1,2.187,3.142,3.722,3.722,0,0,1-1.777,3.416,13.9,13.9,0,0,1-6.421,2.6A5.8,5.8,0,0,1,719.593,869.108Zm-23.774-34.429q2.051,0,2.05,2.185,0,1.506-2.869,3.28a26.524,26.524,0,0,1-5.328,3.689,7.968,7.968,0,0,1-4.919,1.775,5.191,5.191,0,0,1-3.962-1.775,6.476,6.476,0,0,1-1.5-3.689,5.121,5.121,0,0,1,.547-2.323,2.669,2.669,0,0,1,2.186-1.5,10,10,0,0,1,3.142.546A28.576,28.576,0,0,0,695.819,834.679Zm-7.65-24.729q2.592,0,4.781,2.869a25.4,25.4,0,0,0,4.646,3.826q2.049,1.094,2.05,2.185a1.328,1.328,0,0,1-1.5,1.5,27.89,27.89,0,0,0-6.968-.956h-6.559q-2.6,0-2.732-2.187a7.005,7.005,0,0,1,1.366-3.825Q685.982,809.953,688.169,809.95Zm48.911,6.695a14.431,14.431,0,0,1-3.688.545q-5.195.549-9.018,1.094a20.045,20.045,0,0,1-6.284,1.5q-1.917,0-2.187-2.6a9.227,9.227,0,0,1,.274-1.775,10.861,10.861,0,0,0,.273-2.6,9.515,9.515,0,0,0-.683-3.416,3.726,3.726,0,0,0-1.093-1.639,4.277,4.277,0,0,1-.956-1.5,4.531,4.531,0,0,1,.956-2.869,2.383,2.383,0,0,1,2.185-1.093h4.919q7.923,0,14.346-.547a7.768,7.768,0,0,1-.547-2.6q.273-2.322,4.646-2.322,4.918,1.094,4.918,3.415a11.609,11.609,0,0,1-.136,1.5q10.109,0,11.886-.409h2.732q1.363-.546,2.869-1.094a9.216,9.216,0,0,1,4.1,1.094q2.731,2.049,2.732,3.825a4.1,4.1,0,0,1-.682,2.186,4.935,4.935,0,0,0-1.64,1.5,8.183,8.183,0,0,0-1.23,3.416q-.137,4.92-3.689,4.918a27.566,27.566,0,0,1-4.508-.545,9.867,9.867,0,0,1-3.826-.684,61.07,61.07,0,0,0-9.427.684v3.142c0,.364-.047.546-.136.546q13.251-.543,27.051-.546,7.788,0,7.787,2.869,0,2.6-3.415,2.6a51.69,51.69,0,0,1-10.657,0q-11.751.548-27.871,1.093-19.812,1.1-29.784,2.322-4.236,0-4.235-3.415a5.377,5.377,0,0,1,2.869-3.143,34.1,34.1,0,0,1,6.694-.683q6.558.685,24.456-.546Zm8.334,12.569q10.791,0,13.39-.547h4.372a4.017,4.017,0,0,1,2.732,1.094q1.5,2.6.956,3.688a12.152,12.152,0,0,1-.956,1.777,22.805,22.805,0,0,0-.82,3.141q-.276,2.325-.819,6.012a49.765,49.765,0,0,0-.137,6.012,18.559,18.559,0,0,0,.137,2.322,4.218,4.218,0,0,1,.545,1.64,5.118,5.118,0,0,1-1.5,2.732,7.378,7.378,0,0,1-3,.547h-2.324a4.8,4.8,0,0,0-2.595-.547,53.634,53.634,0,0,0-9.017-.683q-18.173,0-22.134,1.23a8.055,8.055,0,0,0-3.006.546,4.056,4.056,0,0,1-2.048.547,5.81,5.81,0,0,1-2.459-1.64,4.787,4.787,0,0,1-.684-2.322,3.745,3.745,0,0,1,.684-1.5,13.407,13.407,0,0,0,.956-3.416,16.934,16.934,0,0,0,.41-4.918q0-6.558-1.366-8.608a4.61,4.61,0,0,1-1.5-2.869q.27-2.184,1.229-2.595,1.5-1.64,2.459-1.64a9.679,9.679,0,0,1,2.05.547h3.688q5.328,0,10.793-.547Zm-8.471-22.406q-7.787,0-14.072.546-1.228,0-1.366,2.049.135.549.683,2.869c.09.366.41.547.957.547q6.967-.544,13.8-.547Zm-12.432,30.466q5.738,0,13.8-.41H750.2a28.5,28.5,0,0,1,7.924,0v-1.093q0-1.638-1.5-1.639a40.874,40.874,0,0,0-7.924-.683q-14.62.685-23.089,1.23a1.948,1.948,0,0,0-1.5,2.185l.136.41Zm.136,7.652q5.6-.546,12.98-.547h11.886a29.286,29.286,0,0,1,8.061,0q.134-2.049.273-3.689-9.837.549-18.58.546-8.609.549-14.62,1.094v2.6Zm.82,7.787q8.2-.543,15.3-.546h13.251q3.281,0,3.28-2.323a11.179,11.179,0,0,1,.137-1.5q-9.976.548-18.718.547-8.2.409-14.073.956v1.094Q724.647,852.714,725.467,852.713Zm18.991-40.987h13.525a1.372,1.372,0,0,0,1.5-1.093,4.959,4.959,0,0,0,1.23-2.869q0-.954-3-1.5h-12.98q-.137,2.049-.273,3.689Zm10.384,47a3.462,3.462,0,0,1,3.415,2.6,24.176,24.176,0,0,0,5.328,3.962,5.887,5.887,0,0,1,3.279,2.6q0,1.776-3.825,1.775a20.813,20.813,0,0,1-7.788-1.229q-4.1-1.639-4.1-4.236Q751.152,859.818,754.842,858.725Z" transform="translate(0)" fill="#000000"/><path d="M833.264,834.132h-3.143a17.5,17.5,0,0,0-4.1,1.094,7.01,7.01,0,0,1-2.869.545,5.07,5.07,0,0,1-3.278-1.092,5.66,5.66,0,0,1-1.366-3.416,6.334,6.334,0,0,1,.819-2.6,7.958,7.958,0,0,0,.956-3.825q.273-2.731.274-5.465a4.175,4.175,0,0,0-1.5-3.416,6.163,6.163,0,0,1-.41-2.186,5.288,5.288,0,0,1,4.372-3.142h2.732a5.73,5.73,0,0,0,3.689,1.093q6.969,0,14.483-.546,1.774-.546,3.688-1.23a8.106,8.106,0,0,1,2.733-.547,8.438,8.438,0,0,1,2.869.547,10.657,10.657,0,0,1,1.64,3.825,4.862,4.862,0,0,1-.547,2.186,7.766,7.766,0,0,1-1.64,2.323,19.183,19.183,0,0,0-.956,6.558,2.9,2.9,0,0,0,.547,2.05,9.112,9.112,0,0,1,.409,2.869,3.8,3.8,0,0,1-1.912,3.141,3.911,3.911,0,0,1-2.46,1.23,55.975,55.975,0,0,0-7.924-.683,9.06,9.06,0,0,1,.41,3.415q-.137,4.375-.41,8.062h3.006a65.079,65.079,0,0,0,7.651-.547,10.407,10.407,0,0,1,3.552.547,3.631,3.631,0,0,1,1.5,2.869q0,2.049-2.322,2.049h-1.366q-4.92,0-12.3.547-.138,4.374,0,9.426a17.071,17.071,0,0,1-.409,3.827q7.377-.546,14.891-1.777,1.774,0,1.777,2.322a6.976,6.976,0,0,1-1.23,3.143,2.814,2.814,0,0,1-2.46,1.776q-12.707,0-18.853.546-7.789.549-9.428,1.64a27.426,27.426,0,0,0-5.328,3.279,5.26,5.26,0,0,1-3.143,1.093,4.519,4.519,0,0,1-2.869-1.093q-2.459-1.773-2.459-3.279a3.662,3.662,0,0,1,1.366-2.186,23.478,23.478,0,0,1,3.006-2.732q3.823-2.732,4.1-9.974,0-6.009-1.093-6.558-1.639-1.5-1.64-2.049.411-2.184,3.962-2.869,4.509-.546,5.193,3.415a46.974,46.974,0,0,1,.409,6.968,57.609,57.609,0,0,1-.683,8.88c0,.731.227,1.093.683,1.093q4.371-.543,8.744-1.093a12.912,12.912,0,0,1-.546-3.825q0-9.971-.684-18.581,0-2.87-.273-6.012A7.233,7.233,0,0,1,833.264,834.132Zm-5.192-4.918q7.512-.545,15.575-.547,1.5,0,1.5-2.322.411-4.235.41-8.061,0-1.641-1.913-1.639-4.784,0-14.482.545-1.914.549-1.913,1.64a49.264,49.264,0,0,1-.546,8.608Q826.706,829.214,828.072,829.214Zm52.054-4.372q-2.6.41-4.782.956a87.934,87.934,0,0,0-8.608,2.323l-3.825,2.186a3.879,3.879,0,0,1-2.185.547,2.32,2.32,0,0,1-2.46-1.64,2.89,2.89,0,0,1,0-1.776,5.842,5.842,0,0,1,1.913-3.689,16.491,16.491,0,0,1,6.694-4.372H870.7a91.8,91.8,0,0,0,12.979-1.093h3.963a25,25,0,0,0,.819-4.509q.135-2.049-3.552-2.6-2.05,0-2.05-1.777a5.025,5.025,0,0,1,4.372-3.688,19.64,19.64,0,0,0,4.509-.547,7.749,7.749,0,0,1,3.279-1.23q.819,0,3.689,1.777a4.632,4.632,0,0,1,2.186,3.688q0,2.87-2.186,2.869a9.551,9.551,0,0,0-3.962,3.689q-.548,1.23-.957,2.323H897.2q6.149,0,15.984.546h9.291q5.6,0,12.023-.546,1.641,0,1.64,1.5-.138,1.1-3.689,5.055-3.826,5.465-7.925,5.465a4.26,4.26,0,0,1-3,0q-1.1-.545-5.329-2.869a34.764,34.764,0,0,0-11.2-2.6h-.137a8.529,8.529,0,0,1-.272,2.05,29.6,29.6,0,0,0-.684,5.464v38.938q.135,5.466-3.551,6.012-3.418,0-4.372-7.105.41-20.355.409-40.44a7.407,7.407,0,0,0-.956-4.509,2.944,2.944,0,0,1-.41-.957h-8.2a6.72,6.72,0,0,1,.41,2.6q0,28.965-6.557,36.2a17.156,17.156,0,0,1-8.608,8.744,14.794,14.794,0,0,1-9.973,3.278q-2.46,0-2.733-5.465.409-3.823,3.006-4.918a17.127,17.127,0,0,0,8.607-3.962,14.948,14.948,0,0,0,5.192-5.465q4.643-9.151,4.645-23.5a25.908,25.908,0,0,0-.683-6.012ZM870.7,838.914q4.643.686,4.645,5.465a2.267,2.267,0,0,1-1.23,2.323,22.743,22.743,0,0,1-4.918,2.186,28.858,28.858,0,0,1-8.061,1.5q-1.366,0-1.366-1.5,0-1.092,3.142-3.28a26.363,26.363,0,0,0,4.646-5.464A4.9,4.9,0,0,1,870.7,838.914Zm43.447.684q2.73,0,3.688,3.278a17.575,17.575,0,0,0,4.782,4.372,4.865,4.865,0,0,1,2.869,3.143q0,1.776-4.1,1.776a14.269,14.269,0,0,1-7.378-1.776q-3.689-1.5-3.689-4.783A5.99,5.99,0,0,1,914.146,839.6Z" transform="translate(0)" fill="#000000"/><path d="M471.5,896.275c0,.455.7.7,2.1.771h20.652a9.213,9.213,0,0,0,2.1-.14c.524-.14.8-.315.8-.525l.839-.106-.035,1.191-.21,1.19a15.128,15.128,0,0,1,.63,2.066,9.167,9.167,0,0,1,.245,1.854h-.979c-.455-2.835-3.431-4.445-8.716-4.445H486.52l-.175,4.2L486.31,913.6a47.829,47.829,0,0,0,.176,4.935,5.431,5.431,0,0,0,.6,2.135,2.278,2.278,0,0,0,1.294.91,9.088,9.088,0,0,0,2.766.386v.594h-1.926c-.314-.035-.734-.07-1.259-.139L484.315,922l-3.745.421c-.35,0-.875.034-1.575.069-.665.035-1.19.07-1.54.07v-.594c2.274,0,3.675-.455,4.165-1.33a4.616,4.616,0,0,0,.49-2.066c.1-1.015.175-2.625.175-4.9l-.035-12.147-.175-3.395h-2.17c-3.78,0-6.161.28-7.106.84-.875.525-1.5,1.716-1.855,3.605h-.98a14.853,14.853,0,0,1,.315-1.889c.035-.246.105-.561.21-1.016a7.4,7.4,0,0,1,.385-1.015,4.3,4.3,0,0,1-.07-.455c-.035-.14-.07-.35-.1-.6l-.035-1.33Z" transform="translate(0)" fill="#000000"/><path d="M506.188,905.9l-.209,2.451-.14,3.22.385.035c1.26-3.745,3.081-5.461,5.5-5.461a4.023,4.023,0,0,1,1.75.386,1.507,1.507,0,0,1,.98,1.4c0,.735-.525,1.225-1.575,1.506a3.9,3.9,0,0,0-1.12-.841,2.5,2.5,0,0,0-1.191-.28c-1.575,0-2.73.98-3.43,2.975a13.8,13.8,0,0,0-.77,4.936c0,2.66.245,4.27.77,4.831.595.665,1.68.979,3.325.979v.525h-1.3c-.35-.035-.805-.105-1.4-.139a23.389,23.389,0,0,1-3.08-.351l-2.871.351-2.134.139v-.525a3.154,3.154,0,0,0,2.625-.91c.455-.63.7-2.31.7-5.04V913.6c0-2.835-.21-4.516-.665-5.076s-1.365-.84-2.765-.84v-.525l2.31-.28,2.2-.106.875-.524,1.015-.49Z" transform="translate(0)" fill="#000000"/><path d="M532.439,908.247a7.875,7.875,0,0,1-.314,12.461,11.256,11.256,0,0,1-6.966,2.205,10.942,10.942,0,0,1-7.211-2.484,7.655,7.655,0,0,1-2.94-6.091A7.521,7.521,0,0,1,518.229,908a11.375,11.375,0,0,1,6.965-2.17A10.905,10.905,0,0,1,532.439,908.247Zm-2.52.77a5.344,5.344,0,0,0-4.725-2.415,5.288,5.288,0,0,0-4.691,2.415,9.189,9.189,0,0,0-1.4,5.321,8.928,8.928,0,0,0,1.644,5.705,5.378,5.378,0,0,0,4.411,2.1,5.3,5.3,0,0,0,4.726-2.451,9.188,9.188,0,0,0,1.4-5.32A9.653,9.653,0,0,0,529.919,909.017Z" transform="translate(0)" fill="#000000"/><path d="M543.043,905.832l-.21,4.3L542.8,920.5c0,3.851-.28,6.476-.806,7.911-.875,2.276-2.765,3.886-5.705,4.865l-.176-.49a4.145,4.145,0,0,0,2.591-2.695c.525-1.365.77-4.1.77-8.12l.035-8.892c.035-2.24-.175-3.71-.665-4.445a2.908,2.908,0,0,0-2.59-1.015h-.175v-.525l4.691-.35,1.189-.631.875-.42Zm-.034-5.565a1.726,1.726,0,0,1-.736,1.434,2.705,2.705,0,0,1-1.575.49,2.508,2.508,0,0,1-1.575-.525,1.624,1.624,0,0,1-.735-1.4,1.581,1.581,0,0,1,.77-1.4,2.416,2.416,0,0,1,1.54-.525A2.1,2.1,0,0,1,543.009,900.267Z" transform="translate(0)" fill="#000000"/><path d="M561.943,916.438a9.52,9.52,0,0,0,.455,3.71,1.724,1.724,0,0,0,1.681.875,2.714,2.714,0,0,0,.665-.07l.665-.314.385.455a7.386,7.386,0,0,1-4.271,1.75c-1.644,0-2.73-1.085-2.73-3.081a8.6,8.6,0,0,1-6.931,3.15,6.638,6.638,0,0,1-3.429-.769,3.075,3.075,0,0,1-1.681-2.871q0-2.992,7.141-4.725l1.61-.385a6.512,6.512,0,0,0,2.556-.98,2.291,2.291,0,0,0,.524-1.715c0-3.4-.979-4.726-3.675-4.726a4.1,4.1,0,0,0-2.24.6,2.279,2.279,0,0,0-1.016,2l.106.875a1.2,1.2,0,0,0,.139.42,2.242,2.242,0,0,0,.175.42l-.909.28-.735.07a2.407,2.407,0,0,1-1.436-.419.852.852,0,0,1-.349-.491,1.65,1.65,0,0,1-.21-.63,3.185,3.185,0,0,1,2-2.73,9.934,9.934,0,0,1,5.04-1.155c4.305,0,6.475,2.205,6.475,6.581Zm-6.51-1.4c-3.465.875-5.18,2.065-5.18,3.57,0,1.855,1.295,2.941,3.5,2.941,2.94,0,4.83-1.716,4.83-4.656v-2.661Z" transform="translate(0)" fill="#000000"/><path d="M572.3,905.9a14.174,14.174,0,0,1-.21,2.416l-.035,1.61.139.035q1.944-3.99,7.246-3.99c2.415,0,4.131.7,5.076,2.1.8,1.156,1.19,3.045,1.19,5.636v2.064a20.453,20.453,0,0,0,.245,4.236,2.877,2.877,0,0,0,3.115,2.03v.525h-1.33c-.349-.035-.63-.105-.875-.139l-2.415-.316-1.295.316-1.05.175.14-2.066.069-2.9c.106-4.375-.245-7.211-.979-8.506-.665-1.155-1.855-1.715-3.641-1.715-3.36,0-5.32,2.17-5.32,5.776v2.9a18.049,18.049,0,0,0,.279,4.06c.386,1.26,1.4,1.89,3.011,1.89v.525l-1.785-.105-3.186-.385-3.29.385-1.82.105v-.525a3.194,3.194,0,0,0,2.73-.979c.456-.6.7-2.346.7-5.287V913.6c0-2.835-.21-4.516-.665-5.076s-1.366-.84-2.766-.84v-.525l2.415-.245,2.205-.141.841-.489,1.05-.525Z" transform="translate(0)" fill="#000000"/><path d="M629.6,897.676a4.317,4.317,0,0,1-.491,1.19,5.13,5.13,0,0,1-.63,1.05l.071,1.12.07,1.365-.035.6-.106,1.33H627.6a5.9,5.9,0,0,0-2.73-5.355,11.408,11.408,0,0,0-6.125-1.435c-3.886,0-6.931,1.05-9.1,3.151-2.205,2.134-3.29,5.11-3.29,9a11.54,11.54,0,0,0,3.676,8.961c2.486,2.24,5.776,3.359,9.941,3.359,2.45,0,4.166-.279,5.11-.84q.527-.315.525-2v-2.94c0-1.75-.28-2.871-.8-3.326a5.286,5.286,0,0,0-3.361-.91V911.4c.245,0,1.19.071,2.765.175.386.035.945.071,1.751.14l1.68.245,2.9-.35,2.24-.21v.595a3.241,3.241,0,0,0-2.52.84q-.63.683-.63,3.781v2.66a2.608,2.608,0,0,0,.105.945,1.046,1.046,0,0,0,.84.35v.526a42.709,42.709,0,0,1-5.81,1.434,33.238,33.238,0,0,1-5.776.455,22.367,22.367,0,0,1-11.762-2.9,11.107,11.107,0,0,1-5.67-10.046,11.62,11.62,0,0,1,5.531-10.361,21.624,21.624,0,0,1,11.866-3.01,30.511,30.511,0,0,1,5.915.56l3.15.594.561-.069a.758.758,0,0,0,.28-.315Z" transform="translate(0)" fill="#000000"/><path d="M638.207,905.9l-.21,2.451-.14,3.22.385.035c1.261-3.745,3.081-5.461,5.5-5.461a4.019,4.019,0,0,1,1.75.386,1.508,1.508,0,0,1,.981,1.4c0,.735-.526,1.225-1.575,1.506a3.906,3.906,0,0,0-1.121-.841,2.491,2.491,0,0,0-1.19-.28c-1.575,0-2.73.98-3.431,2.975a13.818,13.818,0,0,0-.769,4.936c0,2.66.245,4.27.769,4.831.6.665,1.681.979,3.326.979v.525h-1.295c-.35-.035-.8-.105-1.4-.139a23.406,23.406,0,0,1-3.08-.351l-2.87.351-2.135.139v-.525a3.154,3.154,0,0,0,2.625-.91c.455-.63.7-2.31.7-5.04V913.6c0-2.835-.21-4.516-.665-5.076s-1.365-.84-2.765-.84v-.525l2.31-.28,2.2-.106.875-.524,1.015-.49Z" transform="translate(0)" fill="#000000"/><path d="M651.962,912.412a.9.9,0,0,0-.945.526,3.039,3.039,0,0,0-.14,1.19,7.068,7.068,0,0,0,2.17,5.285,7.5,7.5,0,0,0,5.46,2.1,8.622,8.622,0,0,0,5.566-2l.385.559c-1.785,1.925-4.445,2.9-7.911,2.9-5.846,0-9.381-3.08-9.381-8.086a8.552,8.552,0,0,1,2.66-6.475,9.085,9.085,0,0,1,6.581-2.555,8.959,8.959,0,0,1,5.391,1.645,4.753,4.753,0,0,1,2.24,3.921l-.07.7-.035.139Zm8.365-1.5a3.782,3.782,0,0,0-1.365-2.94,5.017,5.017,0,0,0-6.65.07,5.015,5.015,0,0,0-1.366,3.465l8.3-.1C659.978,911.362,660.327,911.223,660.327,910.907Z" transform="translate(0)" fill="#000000"/><path d="M670.267,912.412a.9.9,0,0,0-.946.526,3.064,3.064,0,0,0-.139,1.19,7.068,7.068,0,0,0,2.17,5.285,7.5,7.5,0,0,0,5.46,2.1,8.624,8.624,0,0,0,5.566-2l.385.559c-1.785,1.925-4.446,2.9-7.911,2.9-5.846,0-9.381-3.08-9.381-8.086a8.552,8.552,0,0,1,2.66-6.475,9.085,9.085,0,0,1,6.581-2.555,8.959,8.959,0,0,1,5.391,1.645,4.756,4.756,0,0,1,2.24,3.921l-.071.7-.035.139Zm8.365-1.5a3.782,3.782,0,0,0-1.365-2.94,5.018,5.018,0,0,0-6.651.07,5.019,5.019,0,0,0-1.365,3.465l8.3-.1C678.282,911.362,678.632,911.223,678.632,910.907Z" transform="translate(0)" fill="#000000"/><path d="M690.251,905.9a14.073,14.073,0,0,1-.21,2.416l-.035,1.61.14.035q1.943-3.99,7.246-3.99c2.415,0,4.13.7,5.075,2.1.805,1.156,1.19,3.045,1.19,5.636v2.064a20.529,20.529,0,0,0,.245,4.236,2.877,2.877,0,0,0,3.116,2.03v.525h-1.33c-.35-.035-.63-.105-.876-.139l-2.415-.316-1.294.316-1.051.175.14-2.066.07-2.9c.105-4.375-.245-7.211-.98-8.506-.665-1.155-1.855-1.715-3.64-1.715-3.361,0-5.321,2.17-5.321,5.776v2.9a17.963,17.963,0,0,0,.28,4.06c.385,1.26,1.4,1.89,3.01,1.89v.525l-1.785-.105-3.185-.385-3.29.385-1.821.105v-.525a3.2,3.2,0,0,0,2.731-.979c.455-.6.7-2.346.7-5.287V913.6c0-2.835-.21-4.516-.665-5.076s-1.365-.84-2.766-.84v-.525l2.415-.245,2.2-.141.841-.489,1.05-.525Z" transform="translate(0)" fill="#000000"/><path d="M733.9,896.626l5.952,12.706c1.575,3.36,2.94,6.2,4.059,8.471q.527,1,1.681,2.836a4.126,4.126,0,0,0,2.38,1.189,5.148,5.148,0,0,0,1.19.141v.594l-2.66-.174-3.36-.386-3.29.421c-.316,0-.841.034-1.646.069l-1.225.07v-.594a6.061,6.061,0,0,0,2.45-.42,1.13,1.13,0,0,0,.77-1.051,9.414,9.414,0,0,0-.49-2,38.812,38.812,0,0,0-1.5-3.71l-1.05-2.416-5.076-.069-3.395.035-2.03.034-.8,1.681-1.75,4.13a5.651,5.651,0,0,0-.561,2.206q0,1.573,3.046,1.575v.594l-2.31-.174L721.365,922l-3.01.386-2.31.174v-.594a6.289,6.289,0,0,0,3.815-1.261c.84-.734,2.7-3.99,5.531-9.8l.805-1.645,6.335-12.636Zm-4.339,9.416-2.381,5.215h9.451l-2.275-5.075-2.415-5.076Z" transform="translate(0)" fill="#000000"/><path d="M763.646,909.438l.14.874.035.456h-.769a5.589,5.589,0,0,0-1.471-2.941,4.031,4.031,0,0,0-3.01-1.19c-2.24,0-3.605,1.05-3.605,2.73a2.365,2.365,0,0,0,.8,1.785,12.279,12.279,0,0,0,3.325,1.786,20.184,20.184,0,0,1,3.605,1.75,3.961,3.961,0,0,1,1.716,3.325,4.151,4.151,0,0,1-2.73,3.815,10.53,10.53,0,0,1-4.9,1.085,12.7,12.7,0,0,1-2.975-.35c-1.5-.315-2.241-.77-2.241-1.4l.035-.245.246-.455-.386-1.715-.069-1.436h.769a5.161,5.161,0,0,0,5.32,4.761c2.241,0,3.921-1.295,3.921-3.01a2.945,2.945,0,0,0-1.435-2.485,15.783,15.783,0,0,0-2.765-1.33,14.666,14.666,0,0,1-4.27-2.275,3.458,3.458,0,0,1-1.051-2.556,3.913,3.913,0,0,1,2.416-3.605,9.489,9.489,0,0,1,4.48-.98,11.513,11.513,0,0,1,3.571.455c.979.315,1.469.665,1.469,1.085a1.46,1.46,0,0,1-.07.385l-.314.42Z" transform="translate(0)" fill="#000000"/><path d="M773.865,902.017v4.725l5.216-.035v1.225l-5.216-.07-.07,7.875a10.514,10.514,0,0,0,.6,4.061,3.392,3.392,0,0,0,3.36,1.855,5.479,5.479,0,0,0,1.715-.28,8.326,8.326,0,0,0,2.1-1.05l.455.455a8.521,8.521,0,0,1-5.776,2.066c-2.135,0-3.64-.526-4.585-1.54-.945-1.051-1.4-2.906-1.4-5.532v-.559l.139-7.351h-3.5v-.77c3.221-.316,5.321-2.1,5.916-5.075Z" transform="translate(0)" fill="#000000"/><path d="M788.53,912.412a.9.9,0,0,0-.945.526,3.039,3.039,0,0,0-.14,1.19,7.071,7.071,0,0,0,2.17,5.285,7.5,7.5,0,0,0,5.46,2.1,8.625,8.625,0,0,0,5.567-2l.384.559c-1.785,1.925-4.445,2.9-7.911,2.9-5.845,0-9.381-3.08-9.381-8.086a8.549,8.549,0,0,1,2.661-6.475,9.085,9.085,0,0,1,6.581-2.555,8.958,8.958,0,0,1,5.39,1.645,4.753,4.753,0,0,1,2.24,3.921l-.07.7-.035.139Zm8.366-1.5a3.783,3.783,0,0,0-1.366-2.94,5.017,5.017,0,0,0-6.65.07,5.014,5.014,0,0,0-1.365,3.465l8.3-.1C796.546,911.362,796.9,911.223,796.9,910.907Z" transform="translate(0)" fill="#000000"/><path d="M808.409,905.9l-.21,2.451-.139,3.22.384.035c1.261-3.745,3.081-5.461,5.5-5.461a4.019,4.019,0,0,1,1.75.386,1.508,1.508,0,0,1,.981,1.4c0,.735-.525,1.225-1.575,1.506a3.917,3.917,0,0,0-1.12-.841,2.5,2.5,0,0,0-1.191-.28c-1.575,0-2.73.98-3.431,2.975a13.818,13.818,0,0,0-.769,4.936c0,2.66.245,4.27.769,4.831.6.665,1.681.979,3.326.979v.525h-1.295c-.35-.035-.8-.105-1.4-.139a23.406,23.406,0,0,1-3.08-.351l-2.87.351-2.135.139v-.525a3.154,3.154,0,0,0,2.625-.91c.455-.63.7-2.31.7-5.04V913.6c0-2.835-.21-4.516-.665-5.076s-1.366-.84-2.766-.84v-.525l2.31-.28,2.206-.106.875-.524,1.014-.49Z" transform="translate(0)" fill="#000000"/><path d="M834.66,908.247a7.876,7.876,0,0,1-.314,12.461,11.256,11.256,0,0,1-6.966,2.205,10.942,10.942,0,0,1-7.211-2.484,7.655,7.655,0,0,1-2.94-6.091,7.52,7.52,0,0,1,3.22-6.336,11.38,11.38,0,0,1,6.966-2.17A10.909,10.909,0,0,1,834.66,908.247Zm-2.52.77a5.345,5.345,0,0,0-4.725-2.415,5.288,5.288,0,0,0-4.691,2.415,9.181,9.181,0,0,0-1.4,5.321,8.928,8.928,0,0,0,1.645,5.705,5.378,5.378,0,0,0,4.411,2.1,5.3,5.3,0,0,0,4.725-2.451,9.18,9.18,0,0,0,1.4-5.32A9.653,9.653,0,0,0,832.14,909.017Z" transform="translate(0)" fill="#000000"/><path d="M845.265,905.832c-.036.665-.106,1.365-.141,2.1,0,.245,0,.6-.035.98l-.034,2.976v4.2c0,2.7.21,4.341.63,4.971a3.2,3.2,0,0,0,2.7.979v.525l-2.24-.174-2.8-.316-2.905.351-2.1.139v-.525a3.058,3.058,0,0,0,2.625-.944c.455-.665.7-2.311.7-4.971v-2.87c0-2.556-.245-4.131-.7-4.726a3.155,3.155,0,0,0-2.625-.875v-.525l2.345-.245,2.275-.14,2.066-1.015Zm-.036-5.5a1.6,1.6,0,0,1-.805,1.365,2.705,2.705,0,0,1-1.575.49,2.409,2.409,0,0,1-1.54-.525,1.774,1.774,0,0,1-.7-1.4,1.73,1.73,0,0,1,.736-1.436,2.712,2.712,0,0,1,1.575-.49A2.081,2.081,0,0,1,845.229,900.336Z" transform="translate(0)" fill="#000000"/><path d="M868.05,896.275l-.106,3.011-.035,3.045v12.986c0,2.7.141,4.271.455,4.761a1.7,1.7,0,0,0,1.856.84l1.575-.14.14.6-2.241.455-2.38.28-.945.42-1.3.491-.21-.071-.21-1.224-.07-1.366a8,8,0,0,1-2.976,1.89,10.991,10.991,0,0,1-3.849.665,8.674,8.674,0,0,1-5.987-2.1,7.393,7.393,0,0,1-2.484-5.775,7.968,7.968,0,0,1,3.325-6.581,11.187,11.187,0,0,1,7.141-2.38,13.964,13.964,0,0,1,2.2.175c.49.069,1.015.175,1.61.314a8.708,8.708,0,0,0,.91.351v-3.256c0-2.555-.245-4.13-.7-4.69-.455-.6-1.365-.875-2.8-.875h-.14v-.525l4.971-.385.979-.525,1.051-.49Zm-8.716,10.712c-3.921,0-6.266,2.555-6.266,6.51a8.66,8.66,0,0,0,1.89,5.741,5.917,5.917,0,0,0,4.69,2.276c2.486,0,4.1-.875,4.831-2.66v-9.732A6.561,6.561,0,0,0,859.334,906.987Z" transform="translate(0)" fill="#000000"/><g id="_" data-name=""><path d="M958.344,914.932a1.672,1.672,0,0,1,.9.232.679.679,0,0,1,.391.648l-.069,2.1h3.514a5.057,5.057,0,0,1,1.1.077.463.463,0,0,1,.254.479,1.154,1.154,0,0,1-.22.68.794.794,0,0,1-.595.246q-.288,0-1.187-.046-.851-.015-1.545-.016c-.363,0-.832.006-1.41.016l-.1,3.008q2.817.094,7.045.665a2.788,2.788,0,0,1-.51,1.4.874.874,0,0,1-.729.447,6.459,6.459,0,0,1-1.308-.231,25.772,25.772,0,0,0-5.737-.679,20.032,20.032,0,0,0-5.6.74,4.417,4.417,0,0,1-1.138.232.971.971,0,0,1-.645-.293.777.777,0,0,1-.306-.556.918.918,0,0,1,.816-.987,26.487,26.487,0,0,1,6.043-.742l-.068-6.542a.739.739,0,0,1,.305-.618A1.11,1.11,0,0,1,958.344,914.932Z" transform="translate(0)" fill="#000000"/><path d="M951.146,934.366l2.852.063c.317.082.476.211.476.385q0,.4-.968.725a22.054,22.054,0,0,1-2.309.571.966.966,0,0,1-.526-.247.654.654,0,0,1-.272-.494,1.326,1.326,0,0,1,.221-.694A.708.708,0,0,1,951.146,934.366Zm1.223-4.012a2.344,2.344,0,0,1,1.256.695q1.306,1.1,1.307,1.343c0,.256-.153.385-.458.385a2.9,2.9,0,0,1-.679-.108,10.126,10.126,0,0,0-1.613-.186q-.849-.075-.849-1.126a.956.956,0,0,1,.323-.71A1.127,1.127,0,0,1,952.369,930.354Zm1.2,6.991c.193,0,.288.077.288.231q0,.279-.254,2.114-.069.664-.917.664a1.4,1.4,0,0,1-.8-.216.86.86,0,0,1-.34-.7.964.964,0,0,1,.255-.493l1.391-1.4A.625.625,0,0,1,953.574,937.345Zm4.091-4.336a1.272,1.272,0,0,1,.662.154.2.2,0,0,1,.085.046q1.1-.061,2.835-.062,2.75,0,3.48.078.339.03.339.231a1.655,1.655,0,0,1-.135.34,8.655,8.655,0,0,0-.51,1.774q1,.061,2.122.155a2.162,2.162,0,0,1-.391,1.157.786.786,0,0,1-.61.4,3.914,3.914,0,0,1-1-.216c-.147-.031-.288-.061-.424-.092-.034.154-.062.313-.085.478s-.074.324-.119.479q.781.045,1.409.077c.193.03.288.093.288.184a1.02,1.02,0,0,1-.22.68.769.769,0,0,1-.594.262q-.306,0-1.239-.062a3.366,3.366,0,0,1-.543.973,1.15,1.15,0,0,1-.934.57,1.479,1.479,0,0,1-1.239-.74,2.582,2.582,0,0,0,.764-.9q-1.733-.045-4.21-.045a4.015,4.015,0,0,0-1.29.154,1.378,1.378,0,0,1-.425.107.715.715,0,0,1-.475-.169.419.419,0,0,1-.2-.385,1.553,1.553,0,0,1,.17-.51q.237-.6.476-1.219c-.148.03-.29.057-.425.077a4.822,4.822,0,0,1-1.035.17.577.577,0,0,1-.409-.217.461.461,0,0,1-.2-.339.586.586,0,0,1,.543-.617,18.518,18.518,0,0,1,2.021-.355q.389-1.048.78-2.176Q957.055,933.009,957.665,933.009Zm-.424-2.824a2.872,2.872,0,0,1,1.1.184.525.525,0,0,1,.323.433.9.9,0,0,1-.119.386q1.12-.093,3.072-.093,3.09,0,4.6.138a2.126,2.126,0,0,1-.306,1.1.482.482,0,0,1-.441.263q-.357,0-1.46-.062-1.766-.138-2.92-.138-1.493,0-2.716.123a8.569,8.569,0,0,1-.916.077.34.34,0,0,1-.1-.016.752.752,0,0,0-.135.124,3.448,3.448,0,0,1-2.156,1.126c-.3,0-.459-.087-.459-.262,0-.083.074-.19.221-.324a8.433,8.433,0,0,0,1.528-1.605,1.806,1.806,0,0,0,.424-.956.82.82,0,0,0-.22-.449A4.064,4.064,0,0,1,957.241,930.185Zm1.663,7.654.34-1.281q-.9.031-1.731.108l-.409,1.111c0,.041.142.062.425.062Zm-.967-2.346q.747-.047,1.613-.061l.322-1.173q-.832.015-1.511.046Zm4.108,2.392a.119.119,0,0,0,.017-.046q.2-.633.374-1.157a16.147,16.147,0,0,0-1.834-.14l-.339,1.312Q961.212,937.854,962.045,937.885Zm-.816-3.626-.338,1.173c.588,0,1.221.014,1.9.046a6.037,6.037,0,0,0,.221-1.049Q963.013,934.273,961.229,934.259Z" transform="translate(0)" fill="#000000"/><path d="M964.947,956.686H951.894V944.757h13.053Z" transform="translate(0)" fill="#000000"/><path d="M941.838,919.053a9.177,9.177,0,0,1-.17,2.1,3.262,3.262,0,0,1-1.069,1.7,6.205,6.205,0,0,1-2.564,1.4,6.634,6.634,0,0,1-1.952.34q-1.408,0-1.409-.973a2.426,2.426,0,0,1,1.172-2.191c.1.371.441.555,1.018.555a2.282,2.282,0,0,0,2.376-1.327,3.294,3.294,0,0,0,.221-.971v-.7q0-.787,1.053-.787a2.408,2.408,0,0,1,.933.123A.724.724,0,0,1,941.838,919.053Zm6.2-2.146a.768.768,0,0,1-.356.633,7.8,7.8,0,0,0-.73.447,1.687,1.687,0,0,0-.56.386q-1.884,1.929-2.53,1.93-.78,0-.78-.587a5.254,5.254,0,0,1,.645-1.235.984.984,0,0,0,.119-.354c0-.268-.153-.4-.459-.4-.033,0-.385-.011-1.052-.032s-1.081-.046-1.239-.046a19.712,19.712,0,0,0-3.242.262q-1.579.248-1.681.247a1.126,1.126,0,0,1-.628-.2.918.918,0,0,1-.391-.741,1.086,1.086,0,0,1,1.086-1.173,24.6,24.6,0,0,1,3.175-.2q3.666,0,6.2.2a8.508,8.508,0,0,1,1.868.293C947.847,916.471,948.033,916.66,948.033,916.907Z" transform="translate(0)" fill="#000000"/><path d="M945.945,931.774q0,.277-.17,2.238a6.459,6.459,0,0,1-2.138,4.737,7.258,7.258,0,0,1-4.516,1.22,6.679,6.679,0,0,1-1.442-.109q-.9-.2-.9-.833,0-.987,1.562-2.037a1.855,1.855,0,0,0,1.578.525,3.22,3.22,0,0,0,1.97-.741,3.92,3.92,0,0,0,1.391-3.256v-.957c.012-.412.018-.653.018-.725q0-.834,1.341-.834a1.945,1.945,0,0,1,.848.186C945.793,931.342,945.945,931.537,945.945,931.774Zm-6.636-.078q0,.186-.018,1.328-.017,1.158-.017,1.559,0,1.59-1.307,1.589-1.019,0-1.019-1.126c0-.134-.016-.623-.051-1.467s-.033-1.425-.033-1.743q0-.8,1.273-.8Q939.309,931.033,939.309,931.7Z" transform="translate(0)" fill="#000000"/><path d="M947.439,954.34a2.2,2.2,0,0,1-1.579.972,1.67,1.67,0,0,1-.95-.478q-.2-.154-.679-.524-.441-.357-.764-.587a16.736,16.736,0,0,0-2.716-1.5q-3,2.592-5.3,2.592-.9,0-.9-.971a3.662,3.662,0,0,1,.967-1.976.985.985,0,0,0,.713.263,4.048,4.048,0,0,0,1.647-.479,8.171,8.171,0,0,0,1.715-1.018,12.247,12.247,0,0,0,1.087-1.019c.305-.34.458-.56.458-.664,0-.164-.164-.247-.493-.247a24.265,24.265,0,0,0-2.954.154q-1.188.125-1.086.124a.966.966,0,0,1-.9-.988q0-.925,1.154-.926l1.918-.03q1.986-.078,2.971-.077a8.674,8.674,0,0,1,2.75.262c.339.124.509.308.509.555a.594.594,0,0,1-.288.463,3.917,3.917,0,0,0-.544.433q-.527.555-1.986,2.191a13.137,13.137,0,0,0,3.361,1.482q.731.231,2.207.6.153.031.39.093h.017A2.369,2.369,0,0,1,947.439,954.34Z" transform="translate(0)" fill="#000000"/><path d="M921.393,914.824a1.009,1.009,0,0,1,.73.232.9.9,0,0,1,.272.617,1.55,1.55,0,0,1-.628,1.05l-2.055,1.589q-.441.4-.441.509,0,.232.577.509l.764.278q1.052-.832,2.054-1.667a1.5,1.5,0,0,1,.9-.462.968.968,0,0,1,.543.2.71.71,0,0,1,.272.525,1.819,1.819,0,0,1-.78,1.327l-3.226,2.608,2.631.077c.091,0,.137-.057.137-.17q-.681-.678-.68-.864c0-.287.158-.432.476-.432a4.4,4.4,0,0,1,1.8,1.111q1.119.879,1.12,1.358,0,.679-.611.679a5.217,5.217,0,0,1-.713-.108,20.435,20.435,0,0,0-2.105-.077h-2.257a11.981,11.981,0,0,0-2.207.154,2.105,2.105,0,0,1-.51.154q-1.035,0-1.035-.617a1.652,1.652,0,0,1,.814-1.218q.969-.711,1.885-1.405a13.31,13.31,0,0,0-2-.8q-.765-.218-.764-.525t.679-.911l2.868-2.809A2.714,2.714,0,0,1,921.393,914.824Zm6.586.556q2.784,0,3.616.093c.35.061.526.174.526.339a.717.717,0,0,1-.119.278,1.644,1.644,0,0,0-.237.879l-.1,4.429a3.831,3.831,0,0,1-1.375,2.778,3.626,3.626,0,0,1-2.309.895,1.328,1.328,0,0,1-.933-.4,3.542,3.542,0,0,1-.832-1.513,6.553,6.553,0,0,0,2.732-.848,2.217,2.217,0,0,0,.934-1.976V917.17q0-.2-.288-.2-2.462,0-3.955.124a6.383,6.383,0,0,1-1.07.138.7.7,0,0,1-.509-.293.893.893,0,0,1-.238-.648q0-.633.934-.833Q925.228,915.379,927.979,915.38Z" transform="translate(0)" fill="#000000"/><path d="M919.542,930.354a.693.693,0,0,1,.747.679.7.7,0,0,1-.322.494l-1.07.756c-.159.134-.237.216-.237.247s.084.082.254.123l.306.062.73-.6a.95.95,0,0,1,.56-.261.471.471,0,0,1,.526.54.655.655,0,0,1-.356.54l-1.817,1.311c0,.041.051.062.154.062h1.2c.1,0,.152-.021.152-.062a2.023,2.023,0,0,1-.221-.555c0-.155.119-.232.357-.232q.288,0,.866.571.492.525.492.787c0,.33-.181.494-.543.494a2.852,2.852,0,0,1-.459-.062h-1.46a16.177,16.177,0,0,0-1.952.093,1.617,1.617,0,0,1-.407.093.449.449,0,0,1-.288-.109.311.311,0,0,1-.136-.277c0-.134.169-.324.509-.571l.933-.8a8.891,8.891,0,0,0-1.17-.416q-.408-.095-.408-.247t.408-.51l1.748-1.6A1.683,1.683,0,0,1,919.542,930.354Zm4.89-.293a3.1,3.1,0,0,1,1,.108c.158.052.238.134.238.247a1.068,1.068,0,0,1-.17.509,14.182,14.182,0,0,1,1.8.154c.17.031.255.1.255.217q-.085.369-.2,1.1c.056-.052.119-.109.187-.17l1.732-1.5a1.661,1.661,0,0,1,.882-.5.705.705,0,0,1,.543.2.716.716,0,0,1,.2.478c0,.134-.118.288-.356.463l-1.171.679q-.237.169-.237.216c0,.051.067.108.2.17l.323.138.611-.478a.979.979,0,0,1,.56-.246.478.478,0,0,1,.543.54c0,.195-.13.365-.391.508l-1.849,1.235c0,.031.045.047.136.047h1.069c.146,0,.221-.016.221-.047a1.827,1.827,0,0,1-.221-.509c0-.154.118-.231.356-.231.193,0,.464.184.815.555q.476.478.475.74,0,.495-.475.495h-1.935a14.021,14.021,0,0,0-1.816.092,1.407,1.407,0,0,1-.408.092.521.521,0,0,1-.323-.139.314.314,0,0,1-.118-.231.655.655,0,0,1-.238.047A2.023,2.023,0,0,1,926.4,935q-.492-.045-1.358-.061c.046.02.079.036.1.045a1.027,1.027,0,0,1,.441.633q2.648.078,6.6.494a2.4,2.4,0,0,1-.475,1.282.831.831,0,0,1-.7.447,5.637,5.637,0,0,1-1.256-.247,23.557,23.557,0,0,0-4.194-.649l-.033,1.76a2.35,2.35,0,0,1-.357,1.373.945.945,0,0,1-.866.479,1.341,1.341,0,0,1-.882-.309q-.357-.231-.357-1.42v-1.9a24.077,24.077,0,0,0-4.651.57,5.411,5.411,0,0,1-1.189.2.7.7,0,0,1-.458-.217.514.514,0,0,1-.22-.385.707.707,0,0,1,.611-.756,25.771,25.771,0,0,1,5.924-.71.938.938,0,0,1,.34-.586,1.507,1.507,0,0,1,.17-.108,9.352,9.352,0,0,0-1.121.108.765.765,0,0,1-.22.077q-.324,0-.391-.494l-.356-3.149a.375.375,0,0,1,.322-.37q.645-.108,1.308-.154a1.441,1.441,0,0,0,.152-.478c0-.072-.074-.17-.221-.293A8.01,8.01,0,0,1,924.432,930.061Zm-3.243,7.716c.09,0,.136.041.136.123a2.091,2.091,0,0,1-.815,1.359,3.082,3.082,0,0,1-1.918.91c-.407,0-.612-.263-.612-.787a1.245,1.245,0,0,1,.29-.926c.022.082.129.123.322.123a4.059,4.059,0,0,0,1.969-.617A1.686,1.686,0,0,1,921.189,937.777Zm2.19-5.2a9.6,9.6,0,0,1,1-.046q.612,0,1.239.046l.052-.54c0-.051-.04-.087-.119-.107a7.041,7.041,0,0,0-1.24-.077,3.283,3.283,0,0,0-.814.091c-.091.022-.136.052-.136.093Zm.255,1.436a5.22,5.22,0,0,1,.78-.062,6.509,6.509,0,0,1,.9.062.2.2,0,0,0,.221-.186l.033-.447c-.419-.031-.814-.046-1.188-.046s-.7.01-.967.03l.017.587C923.43,933.991,923.5,934.012,923.634,934.012Zm3.463.6c.079-.071.174-.159.288-.261l1.087-.85a7.659,7.659,0,0,0-1-.509.9.9,0,0,1-.187-.093Q927.2,933.626,927.1,934.613Zm.458,3.226a2.381,2.381,0,0,1,.9.247,9.688,9.688,0,0,0,2.106.74,2.731,2.731,0,0,1-.612,1.127,1.335,1.335,0,0,1-.814.277,1.406,1.406,0,0,1-.917-.508,3.242,3.242,0,0,1-.866-1.7C927.351,937.9,927.419,937.839,927.555,937.839Z" transform="translate(0)" fill="#000000"/><path d="M924.432,945.976a51.575,51.575,0,0,1,6.551.278c.4.052.6.164.6.339q-.339,2.115-.747,8.441-.033.557-.425.556-.151,0-.746-.077-1.714-.155-5.263-.155-3.632,0-5.619.186a4.157,4.157,0,0,1-.662.107q-.322,0-.39-.477l-.679-8.334c0-.3.265-.484.8-.556Q921.1,945.977,924.432,945.976Zm-4.957,7.962q1.391-.03,2.75-.045a.708.708,0,0,1-.154-.155,1.766,1.766,0,0,1-.356-1.157,6.2,6.2,0,0,0,2.393-.355.808.808,0,0,0,.527-.7v-1.743a21.181,21.181,0,0,0-3.327.277q-.814.11-1.019.109a.687.687,0,0,1-.475-.186.729.729,0,0,1-.187-.494.665.665,0,0,1,.459-.633,24.131,24.131,0,0,1,4.549-.231v-.74a.623.623,0,0,1,.153-.433h-.356q-2.549,0-4.737.17c-.554.041-.832.1-.832.185l.408,6Q919.271,953.938,919.475,953.938Zm3.819-3.718a.4.4,0,0,1,.458.447c0,.083-.136.247-.407.494a5.289,5.289,0,0,1-1.307.772,3.309,3.309,0,0,1-1.138.262c-.35,0-.526-.144-.526-.432a1.56,1.56,0,0,1,.391-.91.3.3,0,0,0,.271.108,2.9,2.9,0,0,0,.9-.17,4.314,4.314,0,0,0,1.018-.479A.652.652,0,0,1,923.294,950.22Zm2.9-2.763a.365.365,0,0,1,.085.231,3.417,3.417,0,0,0-.067.556v.4q1.288.047,2.7.169a2.162,2.162,0,0,1-.323,1.158.642.642,0,0,1-.492.2,6.006,6.006,0,0,1-.883-.109c-.362-.072-.7-.128-1-.169V951.7a1.888,1.888,0,0,1-.968,1.744,5.335,5.335,0,0,1-1.035.432h4.7c.136,0,.209-.087.221-.262l.389-5.864c0-.083-.146-.14-.441-.17Q928.082,947.489,926.2,947.457Z" transform="translate(0)" fill="#000000"/></g></g></svg>
