<svg xmlns="http://www.w3.org/2000/svg" width="1000" height="988" viewBox="0 0 1000 988"><g id="Artboard"><rect id="Tint" width="1000" height="988" fill="#58595b"/></g><g id="Outline"><path id="東方虹龍洞" d="M831.66,402.141a4,4,0,0,0-1.416-6.213L814.2,388.662a4,4,0,0,0-4.6.945l-3.655,4H753.992l-18-4.426a4,4,0,0,0-4.955,3.884v13.724c-8.888-8.031-20.176-13.009-27.991-16.083a4,4,0,0,0-4.125.736l-6.964,6.207a4,4,0,0,0-.036,5.94,74.356,74.356,0,0,1,17.05,24.238,4,4,0,0,0,6.423,1.285l15.643-14.925v5.269l-.753-.452a4,4,0,0,0-5.742,1.87c-1.559,3.681-3.787,8.857-6.367,14.85l-.45,1.047a84.192,84.192,0,0,0-22.986-12.811,4,4,0,0,0-4.094.879l-6.226,5.943a3.986,3.986,0,0,0-2.213-2.528l-5.542-2.414a4.007,4.007,0,0,0,1.843-.844l8.266-6.763a4,4,0,0,0-.077-6.254l-9.019-7.014a4,4,0,0,0-4.828-.063l-6.082,4.481H649.663v-6.021a4,4,0,0,0-4-4h-14.28a4,4,0,0,0-4,4V409.4l-4.958-3.818a4,4,0,0,0-4.984.081l-5.279,4.348h-1.079v-6.522a4,4,0,0,0-4-4H591.551a4,4,0,0,0-4,4v6.522H569.129a4,4,0,0,0-3.679,5.57l3.632,8.517a4,4,0,0,0,3.68,2.431h1.792a4,4,0,0,0,.846,2.006,29.951,29.951,0,0,1,3.938,7.656H566.5a3.99,3.99,0,0,0-3.888,3.068v-51.76h24a4,4,0,0,0,2.565-.93l16.752-14a4,4,0,0,0,.019-6.123l-17.9-15.146a4,4,0,0,0-5.076-.075l-12.446,9.914H489.31a4,4,0,0,0-3.761,5.363l5.517,15.22-14.36-7.507a4,4,0,0,0-4.681.717L467,379.953h-6.5v-33.4a4,4,0,0,0-4-4h-25.7a4,4,0,0,0-4,4v33.4h-3.085l-24.539-6.078a4,4,0,0,0-4.961,3.882v85.86l-4.873-4.25a4,4,0,0,0-5.108-.125l-7.984,6.3H352.617V451.278a4,4,0,0,0-4-4H331.782a4,4,0,0,0-4,4v14.268H286.291a4,4,0,0,0-3.762,5.359l3.581,9.911a4,4,0,0,0,3.762,2.64H317.75c-2.263,33.07-11.737,51.354-35.156,68.726a3.98,3.98,0,0,0-.418.392V528.958l3.918-4.493a4,4,0,0,0-1.333-6.258l-9.667-4.482h6.543a3.992,3.992,0,0,0,2.363-.774l12.4-9.083a4,4,0,0,0,.063-6.406l-13.408-10.237a4,4,0,0,0-4.793-.046l-9.757,7.155H239.932V485.07a4,4,0,0,0-4-4H218.486a4,4,0,0,0-4,4v9.264H161.391a4,4,0,0,0-3.755,5.378l4.181,11.391a4,4,0,0,0,3.755,2.622h7.283a3.992,3.992,0,0,0-.182,1.19V574.75a4,4,0,0,0,4,4h17.158A4,4,0,0,0,197.823,575h2.466c-10.8,11.693-26.064,21.748-43.827,28.757a4,4,0,0,0-1.633,6.247l6.344,7.785a4,4,0,0,0,4.117,1.343c20.076-5.271,36.924-13.951,50.225-25.857l-1.026,25.141a4,4,0,0,0,4,4.163h17.446a4,4,0,0,0,4-4V590.326c10.177,11.582,23.323,21.14,36.764,26.493a4,4,0,0,0,4.564-1.169c3.774-4.569,12.327-7.451,15.3-8.177a4.006,4.006,0,0,0,2.881-2.711l2.307-7.5a4,4,0,0,0-3.228-5.132c-18.127-2.724-33.941-8.588-46.391-17.131h4.6a4,4,0,0,0,3.992,3.748h17.446a4,4,0,0,0,4-4V558.213a3.959,3.959,0,0,0,.339.334l7.641,5.969a4,4,0,0,0,4.548.261c11.538-7.05,20.672-14.867,27.759-23.922a3.965,3.965,0,0,0-.1.407l-1.433,7.4a4,4,0,0,0,3.2,4.694c13.824,2.546,16.5,5.624,18.212,8.818a4,4,0,0,0,3.527,2.113h.037c14.349-.134,23.894-5.062,30.037-15.509,5.363-9.12,8.233-22.411,9.539-44.287l3.475-3.85a4,4,0,0,0-1.3-6.315l-14.567-6.687a4,4,0,0,0-4.5.807l-2.888,2.888H341.562c.346-2.57.631-5.186.859-7.881h44.523a4,4,0,0,0,2.517-.891l4.747-3.842v8.5a4,4,0,0,0,4,4h22.717a4,4,0,0,0,4-4v-4.491h1.868V518.9c-11.906,1.785-24.634,3.2-36.214,4.031a4,4,0,0,0-3.354,5.65l11.933,26.16a3.993,3.993,0,0,0,4.744,2.184,536.693,536.693,0,0,0,62.042-22.569c.21,4.149.319,8.321.319,12.3v5.737a4,4,0,0,0,5.817,3.563l19.45-9.916.7,1.823a4,4,0,0,0,3.733,2.564H592.8a4,4,0,0,0,2.54-.91L612.1,535.744a4,4,0,0,0,.047-6.14l-17.469-14.816v-.343c7.465,1.219,9.432,3.81,10.261,5.661a4,4,0,0,0,4.1,2.342c12.422-1.4,16.83-8.953,16.83-15v-.25c0-.065,0-.131-.005-.2l-.371-7.543V462.106l1.646-1.88v43.34c0,10.862,5.654,17.348,15.92,18.264,3.94.348,9.013.517,15.511.517,15.353,0,26.446,0,31.555-9.2a4,4,0,0,0,.081-3.731,15.649,15.649,0,0,1-1.457-7.48,51.861,51.861,0,0,1,.468-6.748,3.893,3.893,0,0,0,.019-.637h.092c9.032,0,10.381,18.455,10.381,29.456,0,.907-.035,1.825-.073,2.8-.038,1-.078,2.045-.078,3.106a4,4,0,0,0,5.345,3.767l21.194-7.569a4,4,0,0,0,2.514-4.816c-1.019-3.75-2-7.047-2.868-9.955-2.382-7.99-3.955-13.269-3.955-19.576,0-3.287,0-10.177,9.257-37.307V530.67a4,4,0,0,0,4,4h16.955a4,4,0,0,0,4-4V502.655a4,4,0,0,0,3.569,2.193h14.381a4,4,0,0,0,4-4v-3.419h2.446v1a4,4,0,0,0,4,4h14.23a4,4,0,0,0,3.872-2.993v9.1a20.107,20.107,0,0,1-5.083.429c-3.052,0-7.035-.262-13.318-.745-.1-.008-.205-.012-.307-.012a4,4,0,0,0-4,4v8.932a4,4,0,0,0,3.6,3.98c10.316,1.031,17.175,3.7,19.315,7.514a4,4,0,0,0,4.129,1.991c17.791-2.886,21.525-12.219,21.525-19.541v-1.211c0-.055,0-.109,0-.164l-.451-10.969V406.627ZM256.73,553.663v2.957h-16.8v-2.957Zm0-19.753v1.948h-16.8V533.91Zm-16.8-18.093v-2.092h22.443l-2.036,2.092Zm-25.446,0H195.791l-7.94-2.092h26.635Zm0,18.093v1.948H197.831V533.91Zm0,19.753v2.957H197.831v-2.957ZM684.123,437.106c6.427,5.588,12.845,14.432,17.169,23.657a4,4,0,0,0,5.351,1.909c-2.368,5.6-4.576,10.9-6.4,15.39a43.061,43.061,0,0,0-7.9-1.046,4,4,0,0,0-3.758,2.628l-3.481,9.537a3.988,3.988,0,0,0-.241,1.38l-3.45-.556a3.986,3.986,0,0,0-.782-.78l-4.388-3.308,6.032-4.6a4,4,0,0,0,.046-6.329l-4.764-3.738,5.126-3.987a4,4,0,0,0-.017-6.328l-2.62-2.015a3.985,3.985,0,0,0,1.175-2.831V437.3l1.733-1.989A3.985,3.985,0,0,0,684.123,437.106Zm-89.449,61.317h9.411v2.134c-.184.007-.395.011-.635.011-1.8,0-4.335-.24-7.994-.606-.133-.013-.266-.02-.4-.02s-.256.007-.383.019Zm1.358-71.9h4.122c-.221,1.047-.472,2.082-.75,3.1C598.358,428.588,597.214,427.542,596.032,426.524Zm28.622-.763a4,4,0,0,0-.353-.769l3.082-2.474v10.94l-2.7-1.919a3.985,3.985,0,0,0-1.748-.7c.39-.479.745-.922,1.061-1.319A4,4,0,0,0,624.654,425.761Zm24.257,32.219v-.141H659.6c.023.048.047.1.073.141Zm15.877,44.7c-2.076.123-4.528.141-7.226.141-2.442,0-5.283,0-7.2-.141Zm-165.8-115.071c-.007-.039-.014-.078-.022-.117h28.112V524.523h-32.1c-2.945-8.98-8.706-25.718-14.016-36.34a3.962,3.962,0,0,0-.585-.867h8.022a4,4,0,0,0,4-4V397.2l5.618-6.2A4,4,0,0,0,498.984,387.611ZM460.628,494.772c.923,4,2.157,9.97,3.139,16.951q-1.608.387-3.272.774v-29.77h1.867v.589a4,4,0,0,0,4,4h5.99l-8.988,2.729A4,4,0,0,0,460.628,494.772Zm1.734-90.985v55.106h-3.933V403.787Zm-33.733,0v55.106h-3.7V403.787Zm-67.143,105.1c-2.452,28.655-7.342,31.759-17.406,31.759-4.672,0-9.9-1.083-14.515-2.039-.851-.176-1.683-.348-2.491-.51a4,4,0,0,0-2.95.559,89.528,89.528,0,0,0,13.98-29.769Zm425.733-70.721-2.775,2.667h-9.563l-14.311-3.5h27.951A3.979,3.979,0,0,0,787.219,438.168Zm-6.829,21.264v19.4h-2.446v-19.4Zm11.071-22.1h2.92a4,4,0,0,0,2.449-.838l5.662-4.386V443.7L792,437.594A3.989,3.989,0,0,0,791.461,437.331Zm-35.467-19.354v-4.868h33.582l-6,4.868Zm40.5-4.868h6v4.727Zm-233.7,28.58,3.507,8.643a4,4,0,0,0,3.707,2.5h3.14V519.1a4,4,0,0,0,4,4h.466l-1.8,1.424h-13.2V441.1A4.086,4.086,0,0,0,562.792,441.689Zm64.341,11.525a4.051,4.051,0,0,0-.639-.328l-1.065-.43a4,4,0,0,0,.976-.643l.728-.649ZM755.994,439.4v-2.73a4,4,0,0,0,2.207.664h.357a3.994,3.994,0,0,0-2.564,2.066Z" fill="#fff"/></g><g id="Text"><g id="_18th_Touhou_Project_Shooting_Game_for_Windows_8_10" data-name="18th Touhou Project Shooting Game for Windows 8/10"><path d="M306.483,320.321a3.761,3.761,0,0,0,2.121-1.744l.519-1.179a5.283,5.283,0,0,0,.142-1.367V292.975a3.332,3.332,0,0,0-.755-2.217,3.55,3.55,0,0,0-2.781-1.367l-.472.047,9.477-2.357v28.856a5.054,5.054,0,0,0,2.782,4.384Z" fill="#000000"/><path d="M342.364,317.87a15.408,15.408,0,0,1-8.723,2.5,17.575,17.575,0,0,1-9.43-2.452,7.9,7.9,0,0,1-3.961-7.12c0-4.291,2.735-7.4,7.12-8.675-3.253-1.179-5.422-3.678-5.422-7.12a6.585,6.585,0,0,1,3.347-5.8,14.213,14.213,0,0,1,7.874-2.169,13.876,13.876,0,0,1,7.969,2.31,7.022,7.022,0,0,1,3.442,6.177c0,3.206-2.216,5.658-5.8,6.6a8.916,8.916,0,0,1,7.308,8.864A7.918,7.918,0,0,1,342.364,317.87ZM338.733,305a8.6,8.6,0,0,0-5.894-2.169c-4.479,0-7.638,3.017-7.638,7.968a7.538,7.538,0,0,0,2.547,5.658,8.7,8.7,0,0,0,5.94,2.357,6.818,6.818,0,0,0,5.422-2.5,8.764,8.764,0,0,0,2.169-5.893A6.851,6.851,0,0,0,338.733,305Zm-.848-14.475a7.184,7.184,0,0,0-4.716-1.65,7.775,7.775,0,0,0-4.62,1.414,5.915,5.915,0,0,0,.047,9.194,7.921,7.921,0,0,0,4.762,1.462c3.583,0,6.554-2.169,6.554-6.13A5.228,5.228,0,0,0,337.885,290.523Z" fill="#000000"/><path d="M361.742,320.416l-1.65.33a26.046,26.046,0,0,1-3.678.33,7.139,7.139,0,0,1-4.479-1.368,4.849,4.849,0,0,1-1.65-3.866V300.9h-2.5a7.431,7.431,0,0,0,2.5-2.971l.471-1.556.141-1.556-.047-.99v-1.084l3.537-1.6v8.015h7.166L360.8,300.9h-6.412V314.38a5.384,5.384,0,0,0,1.131,3.3,3.247,3.247,0,0,0,2.593,1.509,8.106,8.106,0,0,0,3.961-1.085c.189-.141.424-.283.707-.471Z" fill="#000000"/><path d="M377.914,320.227a2.422,2.422,0,0,0,1.226-2.169V305.187a3.789,3.789,0,0,0-3.631-3.772,6.22,6.22,0,0,0-4.668,2.168,6.624,6.624,0,0,0-2.027,4.621v10.562l.283.707a2.541,2.541,0,0,0,.9.754h-6.978a2.159,2.159,0,0,0,.9-.849,3.154,3.154,0,0,0,.283-1.32V294.53a1.745,1.745,0,0,0-1.414-2.168l6.035-1.462v12.212c2.452-2.216,5.7-4.055,9.241-4.055,4.008,0,5.611,2.263,5.611,7.119v11.882a2.2,2.2,0,0,0,1.226,2.169Z" fill="#000000"/><path d="M430.91,290.57a7.371,7.371,0,0,0-2.358-1.179,5.869,5.869,0,0,0-2.31-.424h-2.028a1.488,1.488,0,0,0-.99.236l-.329.566-.048.707v27.158a3.669,3.669,0,0,0,1.7,2.593H415.68a4.2,4.2,0,0,0,1.32-1.415l.284-.8.094-.943V290.476c0-1.179-.283-1.509-1.415-1.509h-2.027a6.429,6.429,0,0,0-2.4.424,11.644,11.644,0,0,0-2.216,1.179,8.092,8.092,0,0,0-2.97,2.405,11.1,11.1,0,0,0-.9,1.178l2.028-6.931h25.272l2.027,6.931A12.254,12.254,0,0,0,430.91,290.57Z" fill="#000000"/><path d="M454.956,317.728a10.167,10.167,0,0,1-7.921,3.159,11.5,11.5,0,0,1-8.016-3.065,10.022,10.022,0,0,1-3.3-7.732,10.97,10.97,0,0,1,3.206-7.874,10.335,10.335,0,0,1,7.78-3.3,11.051,11.051,0,0,1,7.826,3.111,10.192,10.192,0,0,1,3.3,7.78A11.3,11.3,0,0,1,454.956,317.728Zm-3.206-14.475a6.232,6.232,0,0,0-5.328-2.734,5.372,5.372,0,0,0-4.9,2.876,13.717,13.717,0,0,0-1.65,6.836,10.938,10.938,0,0,0,1.886,6.413,6.092,6.092,0,0,0,5.281,2.734,5.538,5.538,0,0,0,4.95-2.923,13.056,13.056,0,0,0,1.745-6.837A10.438,10.438,0,0,0,451.75,303.253Z" fill="#000000"/><path d="M477.635,320.227l-.283-.613-.472-1.32-.282-1.367v-.472a3.64,3.64,0,0,0-.1-.707,14.57,14.57,0,0,1-3.677,2.829,25.508,25.508,0,0,1-3.631,1.7,7.77,7.77,0,0,1-2.593.472,4.8,4.8,0,0,1-3.631-1.462,5.428,5.428,0,0,1-1.32-3.678V301.65a2.539,2.539,0,0,0-.283-1.273,1.624,1.624,0,0,0-.8-.8l5.045-.849V314.71a3.187,3.187,0,0,0,3.489,3.537,6.938,6.938,0,0,0,5.187-2.358c1.461-1.556,2.215-2.876,2.215-3.866l.047-10.137a2.815,2.815,0,0,0-.282-1.273,1.671,1.671,0,0,0-.849-.755l5.328-.8v17.776l.094,1.225a3.828,3.828,0,0,0,.33.943l.755,1.226Z" fill="#000000"/><path d="M500.125,320.227a2.42,2.42,0,0,0,1.226-2.169V305.187a3.788,3.788,0,0,0-3.63-3.772,6.219,6.219,0,0,0-4.668,2.168,6.626,6.626,0,0,0-2.028,4.621v10.562l.283.707a2.55,2.55,0,0,0,.9.754h-6.978a2.161,2.161,0,0,0,.9-.849,3.154,3.154,0,0,0,.283-1.32V294.53a1.745,1.745,0,0,0-1.415-2.168l6.035-1.462v12.212c2.452-2.216,5.705-4.055,9.242-4.055,4.006,0,5.61,2.263,5.61,7.119v11.882a2.2,2.2,0,0,0,1.226,2.169Z" fill="#000000"/><path d="M529.451,317.728a10.162,10.162,0,0,1-7.921,3.159,11.5,11.5,0,0,1-8.015-3.065,10.022,10.022,0,0,1-3.3-7.732,10.971,10.971,0,0,1,3.207-7.874,10.334,10.334,0,0,1,7.779-3.3,11.051,11.051,0,0,1,7.827,3.111,10.2,10.2,0,0,1,3.3,7.78A11.3,11.3,0,0,1,529.451,317.728Zm-3.206-14.475a6.229,6.229,0,0,0-5.328-2.734,5.372,5.372,0,0,0-4.9,2.876,13.717,13.717,0,0,0-1.651,6.836,10.945,10.945,0,0,0,1.886,6.413,6.094,6.094,0,0,0,5.281,2.734,5.537,5.537,0,0,0,4.95-2.923,13.056,13.056,0,0,0,1.746-6.837A10.438,10.438,0,0,0,526.245,303.253Z" fill="#000000"/><path d="M552.366,320.227l-.282-.613-.472-1.32-.283-1.367v-.472a3.564,3.564,0,0,0-.095-.707,14.564,14.564,0,0,1-3.676,2.829,25.508,25.508,0,0,1-3.631,1.7,7.775,7.775,0,0,1-2.594.472,4.8,4.8,0,0,1-3.63-1.462,5.424,5.424,0,0,1-1.32-3.678V301.65a2.55,2.55,0,0,0-.283-1.273,1.623,1.623,0,0,0-.8-.8l5.045-.849V314.71a3.188,3.188,0,0,0,3.489,3.537,6.937,6.937,0,0,0,5.187-2.358c1.461-1.556,2.215-2.876,2.215-3.866l.048-10.137a2.8,2.8,0,0,0-.283-1.273,1.667,1.667,0,0,0-.849-.755l5.329-.8v17.776l.093,1.225a3.918,3.918,0,0,0,.33.943l.755,1.226Z" fill="#000000"/><path d="M600.789,298.067a42.8,42.8,0,0,1-9.383,4.951l-5.423,1.838v12.778a3.553,3.553,0,0,0,1.7,2.593h-9.335a3.835,3.835,0,0,0,1.32-1.415l.282-1.037.1-1.367V290.476a4.879,4.879,0,0,0-.047-.9,2.662,2.662,0,0,0-.283-1.038,3.227,3.227,0,0,0-1.415-1.32h20.086a8.3,8.3,0,0,1,4.715,1.132,3.876,3.876,0,0,1,1.7,3.583C604.8,294.153,603.477,296.181,600.789,298.067Zm-6.932-9.525h-3.583a11.653,11.653,0,0,0-1.792.1,3.307,3.307,0,0,0-2.5,3.017l.048,11.034a33.827,33.827,0,0,0,8.44-3.49c3.206-1.744,4.809-3.724,4.809-5.893C599.28,290.24,597.771,288.542,593.857,288.542Z" fill="#000000"/><path d="M620.4,303.3a2.135,2.135,0,0,0-1.037-.8,3.486,3.486,0,0,0-1.7-.425,5.815,5.815,0,0,0-4.856,5.14v11.127a2.817,2.817,0,0,0,.235,1.226,2.009,2.009,0,0,0,.849.8h-6.224a2.024,2.024,0,0,0,1.132-2.028V305.894a13.724,13.724,0,0,0-.1-1.6,4.1,4.1,0,0,0-.424-1.7A6.316,6.316,0,0,0,606.258,300l4.808-.99.33.66a8.712,8.712,0,0,1,.614,1.226,15.171,15.171,0,0,1,.66,2.168l.142.614a13.808,13.808,0,0,1,1.932-2.122,5.891,5.891,0,0,1,1.509-1.226,11.031,11.031,0,0,1,4.2-1.273l.472.047.188.047Z" fill="#000000"/><path d="M641.1,317.728a10.165,10.165,0,0,1-7.921,3.159,11.5,11.5,0,0,1-8.016-3.065,10.022,10.022,0,0,1-3.3-7.732,10.971,10.971,0,0,1,3.207-7.874,10.335,10.335,0,0,1,7.78-3.3,11.055,11.055,0,0,1,7.827,3.111,10.2,10.2,0,0,1,3.3,7.78A11.3,11.3,0,0,1,641.1,317.728ZM637.9,303.253a6.234,6.234,0,0,0-5.329-2.734,5.372,5.372,0,0,0-4.9,2.876,13.717,13.717,0,0,0-1.65,6.836,10.944,10.944,0,0,0,1.885,6.413,6.1,6.1,0,0,0,5.282,2.734,5.538,5.538,0,0,0,4.95-2.923,13.046,13.046,0,0,0,1.745-6.837A10.438,10.438,0,0,0,637.9,303.253Z" fill="#000000"/><path d="M652.7,323.056a6.567,6.567,0,0,1-2.4,5.422,8.667,8.667,0,0,1-5.658,1.934,12.206,12.206,0,0,1-5.752-1.226,10.613,10.613,0,0,1-1.51-.9l3.018-4.244a4.252,4.252,0,0,0,1.273,3.395,3.377,3.377,0,0,0,2.782.99,3.326,3.326,0,0,0,3.065-1.462c.66-.895.99-2.546.99-4.856v-19.9a3.64,3.64,0,0,0-.1-.99,1.816,1.816,0,0,0-.282-.8,2.36,2.36,0,0,0-1.132-.9l5.752-.518Zm-.188-27.96a2.5,2.5,0,0,1-1.839.66,2.876,2.876,0,0,1-2.122-.8,2.471,2.471,0,0,1-.849-2.028,2.931,2.931,0,0,1,2.829-2.97,2.8,2.8,0,0,1,2.971,2.782A3.13,3.13,0,0,1,652.512,295.1Z" fill="#000000"/><path d="M661.47,310.137c.707,5.328,4.148,8.77,9.1,8.77a8.051,8.051,0,0,0,7.119-4.149l-1.7,5.705a1.376,1.376,0,0,0-.99-.283c-1.7.047-3.725.707-4.62.707a15.276,15.276,0,0,1-9.525-3.206,10.163,10.163,0,0,1-4.1-8.3,10.049,10.049,0,0,1,3.3-7.544,11.066,11.066,0,0,1,7.968-3.159c4.762,0,8.251,2.64,9.807,7.166Zm10-8.11a5.317,5.317,0,0,0-3.725-1.462,5.549,5.549,0,0,0-4.621,2.264,9.08,9.08,0,0,0-1.744,5.752l12.07-3.159A6.033,6.033,0,0,0,671.465,302.027Z" fill="#000000"/><path d="M698.812,320.321a2.053,2.053,0,0,0-1.038-.33l-1.792.283a13.088,13.088,0,0,1-2.734.283,14.563,14.563,0,0,1-9.854-3.3,11,11,0,0,1-3.82-8.676,9.064,9.064,0,0,1,3.254-7.5,11.875,11.875,0,0,1,7.733-2.687,10.36,10.36,0,0,1,1.367.047c.283.047.848.141,1.7.33l2.311.33a2.017,2.017,0,0,0,1.7-.613l.848,5.705a22.378,22.378,0,0,0-3.206-3.065,5.643,5.643,0,0,0-3.583-.895,6.57,6.57,0,0,0-5.422,2.593,10.46,10.46,0,0,0,.424,12.919,8.547,8.547,0,0,0,6.743,2.734,8.7,8.7,0,0,0,7.26-3.63Z" fill="#000000"/><path d="M715.737,320.416l-1.65.33a26.033,26.033,0,0,1-3.678.33,7.134,7.134,0,0,1-4.478-1.368,4.849,4.849,0,0,1-1.651-3.866V300.9h-2.5a7.423,7.423,0,0,0,2.5-2.971l.472-1.556.142-1.556-.048-.99v-1.084l3.536-1.6v8.015h7.167L714.8,300.9h-6.413V314.38a5.385,5.385,0,0,0,1.132,3.3,3.249,3.249,0,0,0,2.593,1.509,8.1,8.1,0,0,0,3.96-1.085c.189-.141.425-.283.707-.471Z" fill="#000000"/><path d="M280.112,671.359a11.79,11.79,0,0,1-7.246,2.31h-.385a25.054,25.054,0,0,1-2.625-.175l-3.081-.455a2.562,2.562,0,0,0-1.575.49l-1.47-6.93a17.087,17.087,0,0,0,3.57,4.095,11.267,11.267,0,0,0,2.766,1.47,10.213,10.213,0,0,0,2.8.385,7.777,7.777,0,0,0,4.9-1.68,5.216,5.216,0,0,0,2.2-4.27c0-1.925-1.33-3.4-4.026-4.411l-7.526-2.345c-2.73-1.155-4.1-2.8-4.1-5.006a4.81,4.81,0,0,1,2.345-4.55,11.215,11.215,0,0,1,5.846-1.4H273.6c.385.07.63.105.805.139l2.836.351a4.017,4.017,0,0,0,1.82-.385l1.26,5.845a14.814,14.814,0,0,0-3.711-3.535,7.7,7.7,0,0,0-4.235-1.085,6.325,6.325,0,0,0-3.78.98,2.544,2.544,0,0,0-1.12,2.415c0,1.3,1.785,2.415,5.355,3.431a43.1,43.1,0,0,1,6.266,2.03,6.721,6.721,0,0,1,4.1,6.266A7.231,7.231,0,0,1,280.112,671.359Z" fill="#000000"/><path d="M296.211,673.529a1.8,1.8,0,0,0,.91-1.61v-9.556a2.813,2.813,0,0,0-2.695-2.8,4.621,4.621,0,0,0-3.466,1.611,4.915,4.915,0,0,0-1.5,3.431v7.84l.21.526a1.876,1.876,0,0,0,.665.559H285.15a1.6,1.6,0,0,0,.665-.63,2.345,2.345,0,0,0,.21-.98V654.452a1.3,1.3,0,0,0-1.05-1.61l4.481-1.085v9.066a10.565,10.565,0,0,1,6.86-3.011c2.976,0,4.165,1.681,4.165,5.287v8.82a1.632,1.632,0,0,0,.911,1.61Z" fill="#000000"/><path d="M318.506,671.674a7.549,7.549,0,0,1-5.881,2.346,8.54,8.54,0,0,1-5.95-2.276,7.439,7.439,0,0,1-2.45-5.74,8.146,8.146,0,0,1,2.379-5.846,7.676,7.676,0,0,1,5.776-2.45,8.2,8.2,0,0,1,5.811,2.31,7.568,7.568,0,0,1,2.45,5.776A8.39,8.39,0,0,1,318.506,671.674Zm-2.381-10.746a4.621,4.621,0,0,0-3.955-2.031,3.99,3.99,0,0,0-3.64,2.136,10.18,10.18,0,0,0-1.225,5.075,8.119,8.119,0,0,0,1.4,4.761,4.522,4.522,0,0,0,3.92,2.03,4.112,4.112,0,0,0,3.676-2.17,9.694,9.694,0,0,0,1.3-5.076A7.74,7.74,0,0,0,316.125,660.928Z" fill="#000000"/><path d="M336.356,671.674a7.548,7.548,0,0,1-5.88,2.346,8.54,8.54,0,0,1-5.951-2.276,7.439,7.439,0,0,1-2.45-5.74,8.143,8.143,0,0,1,2.38-5.846,7.673,7.673,0,0,1,5.775-2.45,8.2,8.2,0,0,1,5.811,2.31,7.568,7.568,0,0,1,2.45,5.776A8.39,8.39,0,0,1,336.356,671.674Zm-2.38-10.746a4.623,4.623,0,0,0-3.955-2.031,3.99,3.99,0,0,0-3.641,2.136,10.18,10.18,0,0,0-1.225,5.075,8.119,8.119,0,0,0,1.4,4.761,4.523,4.523,0,0,0,3.921,2.03,4.112,4.112,0,0,0,3.675-2.17,9.694,9.694,0,0,0,1.3-5.076A7.746,7.746,0,0,0,333.976,660.928Z" fill="#000000"/><path d="M350.181,673.669l-1.225.245a19.115,19.115,0,0,1-2.73.245,5.3,5.3,0,0,1-3.326-1.014,3.605,3.605,0,0,1-1.225-2.871v-11.1H339.82a5.509,5.509,0,0,0,1.855-2.205l.35-1.156.105-1.155-.035-.735v-.805l2.625-1.19v5.951h5.321l-.56,1.295H344.72v10.01a3.993,3.993,0,0,0,.841,2.451,2.409,2.409,0,0,0,1.924,1.12,6.023,6.023,0,0,0,2.941-.805c.14-.1.315-.21.525-.35Z" fill="#000000"/><path d="M351.474,673.529a1.716,1.716,0,0,0,.875-1.645V660.123c0-1.016-.28-1.681-1.12-2l4.585-.245v14a2.838,2.838,0,0,0,.21,1.051,1.719,1.719,0,0,0,.7.594Zm3.325-18.306a2.308,2.308,0,0,1-.875.174,2.349,2.349,0,0,1-2.24-2.345,2.018,2.018,0,0,1,.8-1.68,2.1,2.1,0,0,1,1.54-.525,1.966,1.966,0,0,1,1.575.7,2.164,2.164,0,0,1,.666,1.61A2.39,2.39,0,0,1,354.8,655.223Z" fill="#000000"/><path d="M370.445,673.529a1.787,1.787,0,0,0,.909-1.645v-9.626a3.524,3.524,0,0,0-.524-2,2.468,2.468,0,0,0-2.1-.875,4.317,4.317,0,0,0-3.5,1.89,6,6,0,0,0-1.435,3.5v7.106a1.621,1.621,0,0,0,.875,1.645h-5.181a1.6,1.6,0,0,0,.665-.63,2.825,2.825,0,0,0,.245-1.015V661.278a6.852,6.852,0,0,0-.069-1.085,2.151,2.151,0,0,0-.21-.876,5.668,5.668,0,0,0-.911-1.189l3.711-.316.175.385.28.806.175.91.105,1.015,2.87-2a7.606,7.606,0,0,1,3.991-1.26,4.366,4.366,0,0,1,2.975,1.12,3.484,3.484,0,0,1,1.26,2.73v10.361a1.753,1.753,0,0,0,.945,1.645Z" fill="#000000"/><path d="M392.355,679.375a12.384,12.384,0,0,1-5.88,1.435,12.144,12.144,0,0,1-8.506-3.045l2.765-3.01v.385a3.925,3.925,0,0,0,1.715,3.115,6.392,6.392,0,0,0,4.061,1.365,6.793,6.793,0,0,0,3.675-1.051,3.117,3.117,0,0,0,1.68-2.694,1.991,1.991,0,0,0-1.05-1.82,9.255,9.255,0,0,0-4.06-.6c-5.776,0-8.856-3.325-8.856-8.226,0-4.515,2.415-7.35,7.736-7.35h8.225a3.011,3.011,0,0,0-.735.84l-.42.805a2.8,2.8,0,0,0-.1.8v10.081a3.509,3.509,0,0,0,1.225,2.38,3.6,3.6,0,0,1,1.26,2.766C395.085,677.17,394.175,678.43,392.355,679.375Zm-2.625-17.817-.105-1.015c-.07-.91-1.05-1.436-2.065-1.5h-1.3c-3.361,0-5.461,2.45-5.461,6.4a7.144,7.144,0,0,0,1.855,4.726,6.014,6.014,0,0,0,4.726,2.135h2.345Z" fill="#000000"/><path d="M434.706,658.407a3.751,3.751,0,0,0-.351,1.646v10.221a5.427,5.427,0,0,0,.42,2.03l.246.525.63.84H425.78a15.784,15.784,0,0,1-10.467-3.606,11.986,11.986,0,0,1-4.305-9.66c0-3.675,1.19-6.546,3.605-8.576a13.372,13.372,0,0,1,9-3.08,15.9,15.9,0,0,1,3.291.489,17.588,17.588,0,0,0,2.765.455,2.348,2.348,0,0,0,1.225-.279l1.12,5.915a9.955,9.955,0,0,0-5.775-4.235,9.558,9.558,0,0,0-2.521-.315,8.832,8.832,0,0,0-6.195,2.2c-1.61,1.435-2.415,3.675-2.415,6.686a12.892,12.892,0,0,0,3.185,8.891,10.489,10.489,0,0,0,8.156,3.57,5.268,5.268,0,0,0,2.8-.665,2.728,2.728,0,0,0,1.26-2.485l-.14-8.926a2.858,2.858,0,0,0-.49-1.89,2.141,2.141,0,0,0-1.3-.875h7.176A3.567,3.567,0,0,0,434.706,658.407Z" fill="#000000"/><path d="M449.579,673.529c-.245,0-.525-.28-.77-.8a1.368,1.368,0,0,0-.7-.981,22,22,0,0,1-2.73,1.575,6.521,6.521,0,0,1-3.046.7,6.061,6.061,0,0,1-3.57-1.016,3.554,3.554,0,0,1-1.68-3.08q0-2.572,3.675-4.62a15.391,15.391,0,0,1,7.526-2.031v-1.89c0-1.54-1.575-2.31-3.36-2.31a6.83,6.83,0,0,0-6.546,4.34l.84-5.285.1.14a1.007,1.007,0,0,0,.735.315l.315-.07a9.215,9.215,0,0,1,2.275-.63,14.524,14.524,0,0,1,2.941-.316,9.51,9.51,0,0,1,4.34.875,3.27,3.27,0,0,1,1.75,3.186v9.906a1.92,1.92,0,0,0,.175.77,2.643,2.643,0,0,0,1.05,1.225Zm-1.3-8.89a10.562,10.562,0,0,0-5.216,1.434,4.219,4.219,0,0,0-2.485,3.711,2.731,2.731,0,0,0,2.73,2.59,4.934,4.934,0,0,0,3.361-1.4,4.239,4.239,0,0,0,1.61-3.326Z" fill="#000000"/><path d="M476.564,673.529a1.706,1.706,0,0,0,.911-1.68v-9.731a2.961,2.961,0,0,0-.525-1.82,2.624,2.624,0,0,0-2.1-.77,3.9,3.9,0,0,0-3.045,1.75,6.767,6.767,0,0,0-1.33,4.2v6.4a2.349,2.349,0,0,0,.21.98,1.609,1.609,0,0,0,.7.665H466.1a1.811,1.811,0,0,0,.91-1.645v-8.436c0-2.135-.91-3.886-2.765-3.886a4.751,4.751,0,0,0-3.325,1.506,4.284,4.284,0,0,0-1.541,2.835l-.139,8.016a1.766,1.766,0,0,0,.91,1.681l-5.251-.071c.525-.175.805-.665.91-1.68V661a4.486,4.486,0,0,0-.035-.77,2.381,2.381,0,0,0-1.155-1.96l3.4-.526.21.351.315.7a5.194,5.194,0,0,1,.455,2.345c3.045-2.555,5.39-3.465,7.21-3.465a3.885,3.885,0,0,1,3.746,3.465,8.462,8.462,0,0,1,1.12-1.12,27.255,27.255,0,0,1,2.31-1.5,6.406,6.406,0,0,1,3.255-1.015,4.034,4.034,0,0,1,4.306,3.92v10.431a2.114,2.114,0,0,0,.245,1.05,1.667,1.667,0,0,0,.7.63Z" fill="#000000"/><path d="M487.657,666.038c.526,3.956,3.081,6.511,6.756,6.511a5.981,5.981,0,0,0,5.286-3.08l-1.261,4.235a1.022,1.022,0,0,0-.734-.21c-1.261.035-2.766.526-3.431.526a11.346,11.346,0,0,1-7.071-2.381,7.543,7.543,0,0,1-3.045-6.16,7.463,7.463,0,0,1,2.45-5.6,8.219,8.219,0,0,1,5.916-2.346,7.355,7.355,0,0,1,7.28,5.322Zm7.421-6.02a3.946,3.946,0,0,0-2.765-1.085,4.121,4.121,0,0,0-3.431,1.68,6.744,6.744,0,0,0-1.3,4.271l8.961-2.346A4.476,4.476,0,0,0,495.078,660.018Z" fill="#000000"/><path d="M525.738,654.138c-.42-1.681-1.259-2.311-2.7-2.311-1.68,0-2.766,1.54-2.766,3.675v2l.035.279a.561.561,0,0,0,.316.106h3.431l-.665,1.365h-2.7l-.28.035a.566.566,0,0,0-.106.315v12.286a2.707,2.707,0,0,0,.246,1.12,1.93,1.93,0,0,0,.735.665H515.9c.665-.279.875-.77.981-1.785V659.248h-1.646a3.662,3.662,0,0,0,1.05-.63,1.6,1.6,0,0,0,.735-.98c0-4.586,2.276-6.791,6.2-6.791a17.392,17.392,0,0,1,1.751.07,6.118,6.118,0,0,1,1.679.665Z" fill="#000000"/><path d="M539.108,671.674a7.547,7.547,0,0,1-5.88,2.346,8.544,8.544,0,0,1-5.952-2.276,7.446,7.446,0,0,1-2.45-5.74,8.148,8.148,0,0,1,2.381-5.846,7.673,7.673,0,0,1,5.775-2.45,8.205,8.205,0,0,1,5.811,2.31,7.568,7.568,0,0,1,2.45,5.776A8.39,8.39,0,0,1,539.108,671.674Zm-2.38-10.746a4.623,4.623,0,0,0-3.956-2.031,3.99,3.99,0,0,0-3.64,2.136,10.18,10.18,0,0,0-1.225,5.075,8.119,8.119,0,0,0,1.4,4.761,4.523,4.523,0,0,0,3.921,2.03,4.11,4.11,0,0,0,3.674-2.17,9.694,9.694,0,0,0,1.3-5.076A7.746,7.746,0,0,0,536.728,660.928Z" fill="#000000"/><path d="M553.037,660.963a1.585,1.585,0,0,0-.769-.595,2.6,2.6,0,0,0-1.261-.315,4.318,4.318,0,0,0-3.606,3.815v8.261a2.092,2.092,0,0,0,.176.91,1.5,1.5,0,0,0,.63.6h-4.621a1.5,1.5,0,0,0,.841-1.506v-9.241a10.107,10.107,0,0,0-.071-1.19,3.032,3.032,0,0,0-.315-1.26,4.68,4.68,0,0,0-1.505-1.925l3.57-.736.246.491a6.664,6.664,0,0,1,.455.91,11.358,11.358,0,0,1,.49,1.61l.1.455a10.356,10.356,0,0,1,1.436-1.575,4.34,4.34,0,0,1,1.12-.91,8.189,8.189,0,0,1,3.115-.946l.35.036.14.035Z" fill="#000000"/><path d="M596.474,649.517l-.63.7-.526.77-.28.77-4.059,19.882a7.217,7.217,0,0,1-.141.735l.105.525c.07.281.315.491.77.665h-6.335a1.067,1.067,0,0,0,.7-.7l.106-.56a2.411,2.411,0,0,0-.14-.735l-3.431-14.176a.837.837,0,0,0-.21-.491.379.379,0,0,0-.384-.245.546.546,0,0,0-.386.245l-.175.491L578.2,671.639a9.911,9.911,0,0,0-.07,1.05,1.139,1.139,0,0,0,.805.875h-6.056a1.42,1.42,0,0,0,.735-.875l.035-.385-.1-.735-4.41-19.322a2.227,2.227,0,0,0-.281-.7,3.168,3.168,0,0,0-.49-.875l-.63-.875-.944-.771h7.245a2.341,2.341,0,0,0-.945,1.261l-.14.945.106.805,3.255,15.821c.07.386.245.6.56.6a.561.561,0,0,0,.385-.176l.175-.42,3.36-15.681.105-.945a2.327,2.327,0,0,0-1.4-2.206h6.546a2.964,2.964,0,0,0-.981,1.3l-.105.665.07.525.106.6,3.57,15.612c0,.42.175.63.56.63.315,0,.49-.21.56-.63l3.151-16,.139-.98a1.445,1.445,0,0,0-.07-.49,1.922,1.922,0,0,0-1.12-1.226h5.321C596.858,649.271,596.613,649.412,596.474,649.517Z" fill="#000000"/><path d="M597.451,673.529a1.716,1.716,0,0,0,.875-1.645V660.123c0-1.016-.28-1.681-1.12-2l4.585-.245v14a2.818,2.818,0,0,0,.21,1.051,1.722,1.722,0,0,0,.7.594Zm3.325-18.306a2.312,2.312,0,0,1-.875.174,2.349,2.349,0,0,1-2.24-2.345,2.018,2.018,0,0,1,.805-1.68,2.1,2.1,0,0,1,1.54-.525,1.968,1.968,0,0,1,1.575.7,2.167,2.167,0,0,1,.665,1.61A2.391,2.391,0,0,1,600.776,655.223Z" fill="#000000"/><path d="M616.422,673.529a1.79,1.79,0,0,0,.91-1.645v-9.626a3.532,3.532,0,0,0-.525-2,2.468,2.468,0,0,0-2.1-.875,4.319,4.319,0,0,0-3.5,1.89,6,6,0,0,0-1.435,3.5v7.106a1.621,1.621,0,0,0,.875,1.645h-5.18a1.6,1.6,0,0,0,.665-.63,2.868,2.868,0,0,0,.245-1.015V661.278a6.818,6.818,0,0,0-.07-1.085,2.151,2.151,0,0,0-.21-.876,5.7,5.7,0,0,0-.91-1.189l3.71-.316.175.385.28.806.175.91.105,1.015,2.87-2a7.605,7.605,0,0,1,3.99-1.26,4.368,4.368,0,0,1,2.976,1.12,3.485,3.485,0,0,1,1.261,2.73v10.361a1.752,1.752,0,0,0,.944,1.645Z" fill="#000000"/><path d="M631.3,673.529a6.364,6.364,0,0,1-5.181-2.555,8.964,8.964,0,0,1-2.065-5.741c0-3.045.945-5.075,2.87-6.09a12.939,12.939,0,0,1,6.161-1.5h3.5V654.1a1.647,1.647,0,0,0-1.189-1.786l4.375-1.12v20.547a3.028,3.028,0,0,0,.21,1.12,1.638,1.638,0,0,0,.77.665Zm5.285-12.216a2.428,2.428,0,0,0-.14-.945,2.155,2.155,0,0,0-2.03-1.506h-1.33a5.809,5.809,0,0,0-4.1,1.681,6.575,6.575,0,0,0-1.785,5.006,6.986,6.986,0,0,0,1.716,4.76,5.582,5.582,0,0,0,4.41,2h3.255Z" fill="#000000"/><path d="M656.427,671.674a7.55,7.55,0,0,1-5.881,2.346,8.54,8.54,0,0,1-5.951-2.276,7.442,7.442,0,0,1-2.45-5.74,8.147,8.147,0,0,1,2.38-5.846,7.675,7.675,0,0,1,5.776-2.45,8.2,8.2,0,0,1,5.81,2.31,7.565,7.565,0,0,1,2.451,5.776A8.4,8.4,0,0,1,656.427,671.674Zm-2.381-10.746a4.623,4.623,0,0,0-3.955-2.031,3.991,3.991,0,0,0-3.641,2.136,10.191,10.191,0,0,0-1.224,5.075,8.125,8.125,0,0,0,1.4,4.761,4.523,4.523,0,0,0,3.921,2.03,4.112,4.112,0,0,0,3.675-2.17,9.694,9.694,0,0,0,1.3-5.076A7.747,7.747,0,0,0,654.046,660.928Z" fill="#000000"/><path d="M681.1,658.828l-.315.455-.21.525L676.8,672.3l-.034.666a.906.906,0,0,0,.524.559h-4.48a.877.877,0,0,0,.455-.525l.07-.385-.07-.385-2.59-6.651c-.035-.244-.175-.595-.49-.595-.14.071-.245.14-.281.245l-.21.35-2.485,6.721a2.218,2.218,0,0,0-.035.666.835.835,0,0,0,.525.559H663.39a1.053,1.053,0,0,0,.455-.559l.035-.351-.07-.385-3.64-12.356a1.733,1.733,0,0,0-.455-1.05,2.038,2.038,0,0,0-1.016-.945h5.356a1.461,1.461,0,0,0-.595.875l-.035.245v.245l.035.455,2.66,10.186c0,.21.106.315.351.35.139,0,.279-.105.384-.35l4.061-11.376,4.34,11.236c.07.28.21.42.386.42.21,0,.314-.14.349-.42l2.976-9.556.139-.876c0-.42.036-.629-.559-1.434h3.394A2.866,2.866,0,0,0,681.1,658.828Z" fill="#000000"/><path d="M693.176,672.479a8.626,8.626,0,0,1-4.936,1.435,11.769,11.769,0,0,1-2.52-.245l-2.87-.524a1.238,1.238,0,0,0-.875.245l-.316-4.936a6.488,6.488,0,0,0,6.266,4.34,5.668,5.668,0,0,0,2.975-.7,2.61,2.61,0,0,0,1.3-2.415c0-1.085-.875-1.96-2.625-2.7-1.82-.594-2.975-.979-3.5-1.155s-1.33-.524-2.415-.979a2.789,2.789,0,0,1-1.61-2.87,3.3,3.3,0,0,1,1.716-3.221,9.043,9.043,0,0,1,4.34-.946l1.54.141,2.871.35a2.039,2.039,0,0,0,1.085-.21l.384,4.445a8.12,8.12,0,0,0-2.73-2.976,6.129,6.129,0,0,0-3.045-.665c-2.1,0-3.325.351-3.325,2.136,0,.875,1.189,1.68,3.535,2.38a33.622,33.622,0,0,1,5.216,1.82c1.085.526,1.644,1.681,1.644,3.466A4.445,4.445,0,0,1,693.176,672.479Z" fill="#000000"/><path d="M728.28,671.779a11.437,11.437,0,0,1-6.475,1.856,13.044,13.044,0,0,1-7-1.821,5.863,5.863,0,0,1-2.941-5.286c0-3.185,2.031-5.5,5.286-6.44a5.556,5.556,0,0,1-4.025-5.285,4.889,4.889,0,0,1,2.485-4.306,10.551,10.551,0,0,1,5.846-1.61,10.293,10.293,0,0,1,5.915,1.715,5.211,5.211,0,0,1,2.556,4.586c0,2.379-1.646,4.2-4.306,4.9a6.621,6.621,0,0,1,5.426,6.581A5.876,5.876,0,0,1,728.28,671.779Zm-2.695-9.556a6.383,6.383,0,0,0-4.375-1.61c-3.325,0-5.671,2.241-5.671,5.915a5.594,5.594,0,0,0,1.891,4.2,6.461,6.461,0,0,0,4.41,1.75,5.065,5.065,0,0,0,4.025-1.855,6.51,6.51,0,0,0,1.611-4.375A5.09,5.09,0,0,0,725.585,662.223Zm-.63-10.746a5.334,5.334,0,0,0-3.5-1.225,5.774,5.774,0,0,0-3.431,1.05,4.392,4.392,0,0,0,.036,6.826,5.885,5.885,0,0,0,3.535,1.085c2.66,0,4.865-1.61,4.865-4.551A3.881,3.881,0,0,0,724.955,651.477Z" fill="#000000"/><path d="M745.641,647.451l-.315.526-.211.455-10.291,25.8-.244.911a.743.743,0,0,0,.1.42.365.365,0,0,0,.28.21H731.85a1.878,1.878,0,0,0,.839-.666l.281-.455.245-.49L743.506,648.4a6.278,6.278,0,0,0,.279-.945.66.66,0,0,0-.385-.63h3.08A2.228,2.228,0,0,0,745.641,647.451Z" fill="#000000"/><path d="M747.809,673.6a2.8,2.8,0,0,0,1.575-1.3l.385-.875a3.918,3.918,0,0,0,.105-1.015V653.3a2.467,2.467,0,0,0-.561-1.645,2.631,2.631,0,0,0-2.064-1.015l-.351.035,7.037-1.75v21.422A3.754,3.754,0,0,0,756,673.6Z" fill="#000000"/><path d="M775.5,670.169a8.935,8.935,0,0,1-7.455,3.641,9.027,9.027,0,0,1-7.6-3.536,14.488,14.488,0,0,1-2.661-8.961c0-3.885.91-6.931,2.7-9.171a10.112,10.112,0,0,1,15.086-.035c1.856,2.205,2.766,5.286,2.766,9.206A14.041,14.041,0,0,1,775.5,670.169Zm-2.309-17.047c-.875-2.065-2.591-3.08-5.146-3.08a5.147,5.147,0,0,0-5.006,3.115,20.431,20.431,0,0,0-1.435,8.366c0,4.515.525,7.491,1.61,8.961a5.6,5.6,0,0,0,4.761,2.17c2.31,0,3.85-.8,4.62-2.45a17.758,17.758,0,0,0,1.575-4.41,23.064,23.064,0,0,0,.386-4.271A21,21,0,0,0,773.186,653.122Z" fill="#000000"/></g><g id="東方虹龍洞-2" data-name="東方虹龍洞"><path d="M295.622,603.586s-11.967,2.884-17.446,9.517c-16.292-6.489-32.008-19.321-42.244-34.459v39.937H218.486l1.442-35.324c-13.7,15.139-32.585,25.952-55.654,32.008l-6.344-7.786c21.195-8.362,39.362-21.05,50.9-36.477h-15v3.748H176.673V514.915l18.6,4.9h23.213V509.725H165.572l-4.181-11.391h57.1V485.07h17.446v13.264h33.882l10.813-7.929,13.409,10.237-12.4,9.083H235.932v10.092h26.1l5.191-5.335,15.86,7.354-4.9,5.623V574.75H260.73V571H240.689c12.977,11.967,32.3,21.338,57.24,25.087ZM218.486,529.91H193.831v9.948h24.655Zm0,19.753H193.831V560.62h24.655ZM260.73,529.91h-24.8v9.948h24.8Zm0,19.753h-24.8V560.62h24.8Z" fill="#000000"/><path d="M381.571,502.858c-2.268,40.716-10.029,57.193-35.7,57.432-2.746-5.134-7.4-8.358-21.015-10.865l1.433-7.4c5.373,1.076,11.821,2.627,17.791,2.627,14.805,0,19.462-8,21.731-39.759H335.005c-5.969,24.476-18.745,42.028-42.386,56.475l-7.642-5.969c25.432-18.866,35.223-39.283,37.014-75.939H289.872l-3.581-9.91h45.491V451.278h16.835v18.268h29.014l9.075-7.164,10.268,8.955-10.03,8.119H338.707a157.4,157.4,0,0,1-1.791,15.881h30.447l4.059-4.06,14.567,6.687Z" fill="#000000"/><path d="M592.8,546.423h-96.84l-2.3-5.967-23.406,11.933v-5.737c0-5.737-.229-12.163-.688-18.358-19.506,9.179-48.42,19.506-66.778,24.783l-11.933-26.16c12.851-.918,26.849-2.524,39.929-4.59v-43.6h-9.868v8.491H398.208V377.757l25.012,6.2h7.573v-37.4h25.7v37.4h12.162l6.2-6.2,20.193,10.556-6.654,7.343v87.66h-22.03v-4.589H456.5v38.782q6.195-1.377,11.7-2.754a204.722,204.722,0,0,0-3.672-20.882l12.851-3.9c4.819,9.638,10.556,25.7,14.687,38.552h39.01V383.494h-35.11l-6.654-18.358h82.611l13.539-10.785,17.9,15.145-16.752,14h-28V528.523H577.2l14.228-11.244,18.129,15.375ZM432.629,399.787h-11.7v63.106h11.7Zm33.733,0H454.429v63.106h11.933Z" fill="#000000"/><path d="M623.742,448.829H570.006l-3.507-8.643h18.162c-1-4.886-3.633-11.023-6.138-14.155l6.263-2.881a68.7,68.7,0,0,1,13.779,11.4l-10.647,5.637h11.649a52.23,52.23,0,0,0,5.261-17.286l16.033,4.133a108.77,108.77,0,0,1-12.15,13.153h7.641l6.012-5.387,9.52,6.764Zm-2.756-26.305H572.762l-3.633-8.518h22.422V403.484h15.532v10.522H613.6l6.387-5.26,9.27,7.139Zm.877,84.925c0,3.257-2.129,9.771-13.277,11.024-2.13-4.76-7.14-7.015-13.528-8.017v-6.514c3.757.376,6.388.626,8.392.626,3.758,0,4.635-.877,4.635-2.756v-7.389H590.674V519.1H577.146V451.834l14.28,3.383h17.536l3.632-3.633L625,456.6l-3.508,4.008v38.956l.376,7.64Zm-13.778-44.216H590.674v7.14h17.411Zm0,15.282H590.674v7.766h17.411Zm77.159,16.158a55.912,55.912,0,0,0-.5,7.265,19.753,19.753,0,0,0,1.879,9.269c-3.758,6.765-12.275,7.14-28.058,7.14-5.511,0-10.9-.125-15.156-.5-7.014-.626-12.275-4.384-12.275-14.28v-60.5l14.4,2.631H663.2v-7.891H645.663v2.129h-14.28V403.359h14.28V413.38h22.421l7.14-5.261,9.018,7.015-8.266,6.763H645.663v7.767H664.7l3.257-3.257,12.651,5.511-3.382,3.883v20.292H663.2v-2.254H644.911v8.141h21.92l5.262-4.133,8.141,6.263-7.891,6.138H644.911v5.762h21.545l5.261-4.259,8.141,6.388-7.891,6.012H644.911v6.389h19.916l5.261-4.259,8.142,6.138-7.891,6.263H644.911v3.882c0,4.134,2.38,4.259,12.651,4.259,15.658,0,18.414-.752,19.917-13.4Z" fill="#000000"/><path d="M704.914,459.065c-4.541-9.688-11.2-18.922-18.166-24.978l6.661-6.358a78.376,78.376,0,0,1,25.13,14.987Zm119.441,56.012c0,4.238-1.363,12.867-18.166,15.593-3.482-6.207-13.322-8.629-22.4-9.537V512.2c5.9.454,10.294.757,13.625.757,7.872,0,9.083-1.514,9.083-4.391V409.109h-54.5V530.67H735.039V431.514c-16.5,44.052-17.257,54.8-17.257,60.25,0,9.386,3.179,16.652,6.963,30.58l-21.193,7.569c0-1.969.151-3.936.151-5.9,0-22.1-4.844-33.456-14.381-33.456h-.454l3.482-9.537a42.939,42.939,0,0,1,10.294,1.817c6.358-16.047,20.133-47.535,25.584-60.4l6.811,4.087V393.062l18.469,4.542H807.7l4.844-5.3,16.047,7.266-4.693,5.6v97.642l.454,11.051Zm-111.72-88.862a78.46,78.46,0,0,0-18.015-25.583l6.964-6.207c9.234,3.633,19.68,8.629,27.552,16.047Zm81.746,7.116H758.2l-4.239-11.354H785l8.024-6.51L805.13,425Zm-9.991,65.094v-5H773.944v7.419H759.563V441.2l14.835,3.633h11.658l3.935-3.784,11.959,6.964-3.33,3.935v46.475Zm0-42.993H773.944v27.4H784.39Z" fill="#000000"/></g><path d="M321.845,589.132a3,3,0,0,0,.567,2,2.035,2.035,0,0,0,1.726.658H331.9a2.231,2.231,0,0,0,1.748-.612,2.923,2.923,0,0,0,.568-2.044V564.02h9.1v4.541h-3.337v20.866a6.209,6.209,0,0,1-2.18,4.972,8.356,8.356,0,0,1-5.676,1.908h-8.606A8.266,8.266,0,0,1,317.8,594.4a6.237,6.237,0,0,1-2.157-4.972V568.561h-3.337V564.02h9.536Z" fill="#000000"/><path d="M345.249,592.22h3.02V579.21h-3.02V575.1H361.71a7.566,7.566,0,0,1,4.564,1.2,4.436,4.436,0,0,1,1.476,3.587V592.22h3.179v4.087H362.1v-17.1h-8.288v13.01h2.974v4.087H345.249Z" fill="#000000"/><path d="M378.326,596.307a5.793,5.793,0,0,1-3.769-1.068,3.445,3.445,0,0,1-1.362-2.932v-13.1a3.636,3.636,0,0,1,1.362-3.049,5.822,5.822,0,0,1,3.769-1.061h13.192v7.606h-5.54v-3.5h-7.107v13.01h7.107v-3.542h5.54v7.629Z" fill="#000000"/><path d="M400.277,596.307a5.793,5.793,0,0,1-3.769-1.068,3.494,3.494,0,0,1-1.362-2.978V579.21a3.636,3.636,0,0,1,1.362-3.049,5.822,5.822,0,0,1,3.769-1.061h8.447a5.9,5.9,0,0,1,3.814,1.061,3.689,3.689,0,0,1,1.317,3.049v13.05a3.61,3.61,0,0,1-1.328,2.978,5.939,5.939,0,0,1-3.8,1.069Zm.545-4.087h7.4V579.21h-7.4Z" fill="#000000"/><path d="M416.552,592.22h3.02V579.21h-3.02V575.1h16.462a7.57,7.57,0,0,1,4.564,1.2,4.439,4.439,0,0,1,1.475,3.587V592.22h3.179v4.087H433.4v-17.1h-8.288v13.01h2.974v4.087H416.552Z" fill="#000000"/><path d="M443.476,592.22h3.02V579.21h-3.02V575.1h16.462a7.565,7.565,0,0,1,4.563,1.2,4.436,4.436,0,0,1,1.476,3.587V592.22h3.179v4.087h-8.832v-17.1h-8.288v13.01h2.974v4.087H443.476Z" fill="#000000"/><path d="M476.553,596.307a5.793,5.793,0,0,1-3.769-1.068,3.445,3.445,0,0,1-1.362-2.932v-13.1a3.636,3.636,0,0,1,1.362-3.049,5.822,5.822,0,0,1,3.769-1.061H485a5.9,5.9,0,0,1,3.814,1.061,3.689,3.689,0,0,1,1.317,3.049v8.174H477.1v4.836h7.4v-2.475h5.631v2.566a3.6,3.6,0,0,1-1.283,2.928A5.906,5.906,0,0,1,485,596.307Zm.545-17.1v4.541h7.4V579.21Z" fill="#000000"/><path d="M498.982,596.307a5.8,5.8,0,0,1-3.77-1.068,3.446,3.446,0,0,1-1.361-2.932v-13.1a3.638,3.638,0,0,1,1.361-3.049,5.827,5.827,0,0,1,3.77-1.061h13.191v7.606h-5.54v-3.5h-7.106v13.01h7.106v-3.542h5.54v7.629Z" fill="#000000"/><path d="M523.106,592.22h3.907v4.087h-3.588a7.391,7.391,0,0,1-4.5-1.2,4.331,4.331,0,0,1-1.5-3.588V579.3h-2.975v-4.2h2.975v-6h5.675v6h3.907v4.2h-3.907Z" fill="#000000"/><path d="M534.8,596.307a5.8,5.8,0,0,1-3.77-1.068,3.444,3.444,0,0,1-1.361-2.932v-13.1a3.636,3.636,0,0,1,1.361-3.049,5.827,5.827,0,0,1,3.77-1.061h8.446a5.9,5.9,0,0,1,3.815,1.061,3.689,3.689,0,0,1,1.317,3.049v8.174H535.341v4.836h7.4v-2.475h5.631v2.566a3.607,3.607,0,0,1-1.283,2.928,5.91,5.91,0,0,1-3.849,1.068Zm.545-17.1v4.541h7.4V579.21Z" fill="#000000"/><path d="M571.073,592.22h2.975v4.087H558.154a6.9,6.9,0,0,1-4.518-1.272,4.188,4.188,0,0,1-1.543-3.519V579.891a4.343,4.343,0,0,1,1.543-3.587,7.238,7.238,0,0,1,4.518-1.2H565.4v-6.97h-3.292v-4.11h8.968Zm-13.3,0H565.4V579.21h-7.628Z" fill="#000000"/><path d="M619.245,596.307V571.24l-8.037,15.621h-4.269l-8.7-15.621v25.067h-9.082v-4.519h3.36V568.561h-3.36V564.02h10.15l9.581,17.824,9.4-17.824h10.081v4.541h-3.405v23.227h3.405v4.519Z" fill="#000000"/><path d="M631.638,579.21a3.789,3.789,0,0,1,1.34-3.094,6.588,6.588,0,0,1,3.951-1.016h8.559a5.766,5.766,0,0,1,3.769,1.061,3.585,3.585,0,0,1,1.34,3.049v13.01h3.2v4.087H636.36a5.942,5.942,0,0,1-3.746-1.022,3.489,3.489,0,0,1-1.362-2.974V588.5a3.475,3.475,0,0,1,1.26-2.929,6.249,6.249,0,0,1,3.848-.976h8.606V579.21h-7.607v2.85h-5.721Zm5.267,13.01h8.016v-4.042h-8.016Z" fill="#000000"/><path d="M655.11,592.22h3.021V579.21H655.11V575.1h13.078a7.258,7.258,0,0,1,4.5,1.2,4.377,4.377,0,0,1,1.52,3.587v3.723h-5.517v-4.4H663.67v13.01h2.975v4.087H655.11Z" fill="#000000"/><path d="M678.742,568.13h-2.974v-4.11h8.65v19.913l7.629-8.833h6.267v4.2H694.8l-5.268,5.835,7.629,6.97h3.361v4.2h-6.335l-9.764-9.173v9.173h-8.65v-4.2h2.974Z" fill="#000000"/><path d="M707.363,596.307a5.793,5.793,0,0,1-3.769-1.068,3.445,3.445,0,0,1-1.362-2.932v-13.1a3.636,3.636,0,0,1,1.362-3.049,5.822,5.822,0,0,1,3.769-1.061h8.447a5.9,5.9,0,0,1,3.814,1.061,3.689,3.689,0,0,1,1.317,3.049v8.174H707.908v4.836h7.4v-2.475h5.63v2.566a3.6,3.6,0,0,1-1.283,2.928,5.906,5.906,0,0,1-3.848,1.068Zm.545-17.1v4.541h7.4V579.21Z" fill="#000000"/><path d="M732.431,592.22h3.906v4.087h-3.588a7.391,7.391,0,0,1-4.5-1.2,4.331,4.331,0,0,1-1.5-3.588V579.3H723.78v-4.2h2.975v-6h5.676v6h3.906v4.2h-3.906Z" fill="#000000"/><path d="M744.12,596.307a5.793,5.793,0,0,1-3.769-1.068,3.442,3.442,0,0,1-1.362-2.932v-13.1a3.634,3.634,0,0,1,1.362-3.049,5.822,5.822,0,0,1,3.769-1.061h8.446a5.9,5.9,0,0,1,3.815,1.061,3.689,3.689,0,0,1,1.317,3.049v8.174H744.665v4.836h7.4v-2.475H757.7v2.566a3.6,3.6,0,0,1-1.283,2.928,5.909,5.909,0,0,1-3.849,1.068Zm.545-17.1v4.541h7.4V579.21Z" fill="#000000"/><path d="M766.548,596.307a5.8,5.8,0,0,1-3.77-1.068,3.444,3.444,0,0,1-1.361-2.932v-13.1a3.636,3.636,0,0,1,1.361-3.049,5.825,5.825,0,0,1,3.77-1.061h8.446a5.9,5.9,0,0,1,3.815,1.061,3.689,3.689,0,0,1,1.317,3.049v8.174H767.093v4.836h7.4v-2.475h5.631v2.566a3.607,3.607,0,0,1-1.283,2.928,5.91,5.91,0,0,1-3.849,1.068Zm.545-17.1v4.541h7.4V579.21Z" fill="#000000"/><path d="M782.823,592.22h3.021V579.21h-3.021V575.1H795.9a7.255,7.255,0,0,1,4.5,1.2,4.375,4.375,0,0,1,1.521,3.587v3.723H796.4v-4.4h-5.018v13.01h2.974v4.087H782.823Z" fill="#000000"/><path d="M817.672,579.21h-7.4v4.313h7.923a6.247,6.247,0,0,1,3.815,1.022,3.644,3.644,0,0,1,1.295,2.975v4.791a3.607,3.607,0,0,1-1.283,2.928,5.91,5.91,0,0,1-3.849,1.068H804.639V589.79h5.086v2.43h7.947v-4.745H809.68a5.805,5.805,0,0,1-3.725-1.059,3.7,3.7,0,0,1-1.316-3.062V579.21A3.686,3.686,0,0,1,806,576.116a6.083,6.083,0,0,1,3.814-1.016h12.874v6.027h-5.017Z" fill="#000000"/><g id="上海_アリス幻樂団" data-name="上海■アリス幻樂団"><path d="M938.768,935.538c0-.312.479-1.045.857-1.045a1.329,1.329,0,0,1,.24.063,3.657,3.657,0,0,1,.583-.078,1.337,1.337,0,0,1,.24.046c.275.063,1.029.125,1.029.515a.292.292,0,0,1-.1.218c-.343.265-.805.328-1.166.561-.378.25-.532.624-.857.89a.416.416,0,0,1-.19.077c-.5-.186-.633-.3-.633-.842Zm14.784.265-6.586-.374a1.074,1.074,0,0,1-.446.062,4.161,4.161,0,0,1-.841-.14,14.443,14.443,0,0,0-1.835.078c-.309.031-.6.187-.909.187-.223,0-.566-.172-.566-.406a.706.706,0,0,1,.171-.545,10.9,10.9,0,0,1,1.9-.874c1.2-.639,1.115-2.386,1.149-3.493.017-.546.206-1.091.206-1.637V925.62a12.392,12.392,0,0,0-.325-2.23v-.032a.792.792,0,0,1,.668-.685c.378,0,.824.077.909.452a2.768,2.768,0,0,1,.137.654.3.3,0,0,1-.068.2,2.414,2.414,0,0,0-.274,1.186,1.559,1.559,0,0,0,.513,1.138,2.047,2.047,0,0,0,.927.546c.411,0,.823-.079,1.235-.079a7.835,7.835,0,0,1,2.092.25.561.561,0,0,1,.411.515c0,1.045-3.035.671-3.652.842-.394.109-1.287,1.372-1.458,1.747a2.72,2.72,0,0,0-.24,1.372,3.511,3.511,0,0,0,1.234,2.511,1.015,1.015,0,0,0,.635.2c.12,0,.258-.015.429-.015.24,0,.463.093.7.093,1.047,0,2.075-.14,3.122-.14.515,0,1.955.093,1.955.717a1.161,1.161,0,0,1-1.081.936Z" fill="#000000"/><path d="M939.607,945.35c-.36,0-.943-.2-.943-.593a1.551,1.551,0,0,1,.274-.748,1.072,1.072,0,0,1,.893-.562c.634-.015,1.269-.062,1.9-.062a.429.429,0,0,1,.429.4C942.163,944.4,940.19,945.35,939.607,945.35Zm1.853,3.727c-.274.53-.7,1-.926,1.544a4.355,4.355,0,0,1-.5,1.138c-.1.125-.188.125-.343.125-.5,0-.789-.748-.789-1.139,0-.592,2.179-3.118,2.847-3.118.172,0,.224.186.224.311a.3.3,0,0,1-.035.172Zm.771-8.406c-.05,0-.1-.03-.154-.03-.669-.11-2.332.092-2.332-.874,0-.655.737-.873,1.338-.873a.644.644,0,0,1,.411.171c.223.2,1.15,1.154,1.15,1.388C942.644,940.594,942.352,940.671,942.231,940.671Zm9.9,4.164c.068-.249-.068-1.263.36-1.263.652,0,.634,1.575.7,2,.2.2,1.767-.015,1.767,1.061a.634.634,0,0,1-.6.607,2.311,2.311,0,0,1-.308-.077,7.313,7.313,0,0,0-1.012-.062c-.206.249-.189,1.075-.24,1.4a10.81,10.81,0,0,1-.789,2.838,1.71,1.71,0,0,1-1.115.561c-.463,0-1.081-.25-1.647-.25-.823,0-1.629.219-2.452.219a8.464,8.464,0,0,1-2.522-.28,1.64,1.64,0,0,1-.5-1.139c0-.327.1-1.356.6-1.356.549,0,.583.873.686,1.216.154.015.308.046.462.046a2.363,2.363,0,0,0,1.767-1.418c.068-.266-.034-1.03.412-1.03.275,0,.325.39.325.734,0,.171-.016.327-.016.405a1.37,1.37,0,0,0,1.388,1.372c.893,0,1.9-.577,1.9-1.466,0-.125-.034-.265-.034-.39,0-.218.068-.42.068-.639,0-.92-.961-1.31-1.835-1.31a1.922,1.922,0,0,0-1.235.576c0,.11-.121.313-.257.313a.323.323,0,0,1-.224-.125c-.377-.452-.359-.374-.857-.64a.278.278,0,0,0-.155-.031c-2.435,0-1.388,1.076-2.418,1.825a.266.266,0,0,1-.154.063c-.24,0-.308-.422-.308-.593a.828.828,0,0,1,.222-.64c-.068-.187-.24-.436-.48-.436-.291,0-.566.14-.858.14-.222,0-.737-.171-.737-.42V946.6l.12-.562c.068-.328.617-.375,1.046-.375h.292c.309-.2.771-.108,1.012-.421.342-.436.428-2.261,1.149-2.261.154,0,.24.343.24.453,0,.389-.274.795-.274,1.231.154.3-.052.469.291.9.343.032.669.078,1.012.078a7.451,7.451,0,0,0,.84-.078c.155-.39.447-.717.635-1.091l-.308-.92c-.395-.406-1.287-.282-1.287-1a.419.419,0,0,1,.206-.39,6.107,6.107,0,0,1,2.024-.453c.514,0,1.012.062,1.526.062a1.852,1.852,0,0,1,1.407.593c.1.094.24.2.24.358,0,.2-.5.578-.7.578a12.867,12.867,0,0,0-1.356-.281c-.565,0-1.132.234-1.149.811a1.466,1.466,0,0,1-.051.468l-.138.358c.086.7.875.89,1.527.89.394,0,.789-.063,1.183-.078Zm-.206-6.035c.394,0,1.44.172,1.44.639,0,.609-.943.749-1.457.749a8.155,8.155,0,0,1-2.213-.343c-.48.109-1.029-.032-1.492.187a.712.712,0,0,1-.326.094h-.034l-.481-.078-.96.2c-.1.016-1.886,2.23-3,2.23a.7.7,0,0,1-.668-.624c0-1.5,2.709-.919,3.019-3.087a3.293,3.293,0,0,1-.274-.748c0-.266.788-.734,1.062-.734a1.177,1.177,0,0,1,.893.827,2.109,2.109,0,0,1-.1.468c.034.233-.034.468.19.623l4.287-.405Z" fill="#000000"/><path d="M953.534,957.766a1.14,1.14,0,0,0-.034.265c0,.14.017.3.017.468a1.387,1.387,0,0,1-.257.92.522.522,0,0,0-.052.28,12.989,12.989,0,0,0,.5,2.5,2.332,2.332,0,0,1,.034.468,10.369,10.369,0,0,1-.258,2.542.5.5,0,0,0-.05.2c0,.218.136.4.136.671a.68.68,0,0,1-.016.171c-.1.452-.361.608-.584.608a.29.29,0,0,1-.12-.015,21.687,21.687,0,0,0-2.589-.28,1.1,1.1,0,0,0-.292.031,8.437,8.437,0,0,1-1.647.186,1.543,1.543,0,0,1-.446-.047,4.545,4.545,0,0,0-.754-.233c-.686,0-1.218.249-1.732.249a1.056,1.056,0,0,1-.224-.016,8.685,8.685,0,0,0-1.423-.125c-.892,0-1.372.157-1.7.157a.627.627,0,0,1-.172-.016,1.464,1.464,0,0,0-.377-.047c-.377,0-.789.078-1.029.078h-.12c-.309-.047-.617-.125-.617-.514a8.294,8.294,0,0,1,.051-1.216,1.228,1.228,0,0,0,.017-.125c0-.313-.12-1.014-.12-1.17v-.016c.086-.389.258-.358.258-.826v-.062c-.018-.515-.241-1.279-.241-1.529v-.093c0-.343-.068-1.747-.068-2.417a1.583,1.583,0,0,1,.017-.359,8.4,8.4,0,0,0,.24-1.295,1.147,1.147,0,0,0,.017-.249c0-.514-.137-1.17-.137-1.4V955.4c0-.172-.051-.421-.051-.625a.308.308,0,0,1,.034-.186,1.159,1.159,0,0,1,.737-.359c.137,0,1.269-.094,2.23-.094a4.467,4.467,0,0,1,1.3.125,1.444,1.444,0,0,0,.565.125,1.508,1.508,0,0,0,.532-.125,11.8,11.8,0,0,1,1.372-.265h.051c.206.047,3.276.124,3.928.312a1.288,1.288,0,0,0,.326.047c.411,0,.635-.281,1.355-.312h.085c.463,0,1.15.218,1.166.607a9.039,9.039,0,0,1,.086.937,4.232,4.232,0,0,1-.154,1.106c0,.032-.016.063-.016.094,0,.3.222.812.222.967Z" fill="#000000"/><path d="M925.786,925.276a4.009,4.009,0,0,1-.857.219,4.714,4.714,0,0,0-.669.218,4.246,4.246,0,0,0-.429.078c-.36.156-.309.266-.789.266-.292,0-.7-.172-.737-.469a4.34,4.34,0,0,1-.034-.484c0-.436.908-1.262,1.422-1.262a.785.785,0,0,1,.19.031,3.472,3.472,0,0,0,.8.063c.189,0,.395.031.583.031.172,0,.343-.063.515-.063.223,0,1.064.343,1.064.609S926.043,925.167,925.786,925.276Zm1.6,9.4c-.171.14-.275.343-.463.467a9.832,9.832,0,0,1-1.8.89,2.154,2.154,0,0,1-.7.109c-.841,0-.771-.375-1.424-.655a.552.552,0,0,1-.36-.483c0-.406.755-.671,1.115-.78a.651.651,0,0,1,.172-.032c.086,0,.171.016.257.016a.505.505,0,0,0,.154-.016c.258-.062.446-.264.7-.342a7.778,7.778,0,0,0,1.681-.687,3.792,3.792,0,0,0,1.526-1.294c.206-.343.429-1.076.944-1.076.257,0,.257.2.257.374a2.65,2.65,0,0,1-.068.64,4.052,4.052,0,0,1-1.441,2.526C927.775,934.478,927.553,934.54,927.381,934.68Zm1.183-9.746c-.428,0-1.372-.016-1.372-.531s.875-.624,1.287-.671c.12-.015.412-.217.634-.264a9.75,9.75,0,0,1,1.9-.235c.2,0,.411.016.617.016.171,0,.343.047.514.047.121,0,.429-.156.618-.172a6.421,6.421,0,0,1,.771-.047,3.825,3.825,0,0,1,1.338.188,3.219,3.219,0,0,1,.532.389c.463.344,1.252.593,1.252,1.233a2.435,2.435,0,0,1-1.149,1.715,5.355,5.355,0,0,1-.617.265,9.14,9.14,0,0,1-.807.577c-.343.156-.7.281-1.064.406-.565.2-1.114.4-1.663.624-.137.062-.292.093-.428.155-.412.187-.515.655-.619,1.014-.119.436-.342.343-.617.577a.511.511,0,0,1-.308.093c-.532,0-.583-.748-.583-1.091,0-.125.086-.249.086-.374a5.412,5.412,0,0,0-.155-.889c-.086-.515-.12-.562-.686-.624a.316.316,0,0,1-.291-.312.717.717,0,0,1,.463-.67c.172-.094.24-.25.48-.25.171,0,.325.062.5.062.447,0,.96.64,1.166.967a.438.438,0,0,0,.395.234.722.722,0,0,0,.36-.094,4.438,4.438,0,0,0,.875-.436,5.537,5.537,0,0,1,.634-.437c.155-.093.394-.109.532-.2.1-.078.137-.2.24-.28a2.752,2.752,0,0,0,.96-1.029c0-.266-.737-.437-.96-.437-.412,0-.84.125-1.269.125-.154,0-.309-.062-.463-.062-.24,0-.481.108-.721.108-.086,0-.154-.016-.24-.016-.7,0-1.372.329-2.075.329Z" fill="#000000"/><path d="M926.181,946.878a.275.275,0,0,1-.223-.108,3.658,3.658,0,0,1-.807-2.621,2.477,2.477,0,0,1,.1-.7,3.887,3.887,0,0,0,.188-1.325c0-.764-.1-1.528-.1-2.292,0-.375-.12-.749-.12-1.139a.709.709,0,0,1,.789-.67c.875,0,1.3.966,1.3,1.637,0,.359-.206.53-.308.873a6.572,6.572,0,0,0-.24,2c0,.374-.035.765-.035,1.139,0,.3.241.732.241,1.029a4.02,4.02,0,0,1-.583,2.075A.383.383,0,0,1,926.181,946.878Zm4.716,3.852c-.24.156-.394.359-.652.5a13.816,13.816,0,0,1-2.658.78c-.411,0-1.6-.3-1.6-.78a1.036,1.036,0,0,1,.669-.78c.257-.062.549-.031.806-.094a10.241,10.241,0,0,0,.977-.389,4.688,4.688,0,0,0,.463-.094,9.371,9.371,0,0,0,2.453-1.527,3.742,3.742,0,0,0,.515-.749,3.522,3.522,0,0,0,.634-2c0-.359-.034-.718-.034-1.077a14.807,14.807,0,0,1,.086-1.528c.034-.249,0-.515.051-.764.034-.125.137-.2.172-.328.085-.249.137-.576.5-.576a.278.278,0,0,1,.189.062A1.237,1.237,0,0,1,934,942.5c0,.172-.017.358-.017.562a3.821,3.821,0,0,0,.035.452,1.81,1.81,0,0,1,.051.3c0,.171-.086.374-.086.607,0,.608.189,1.186.189,1.794,0,.374-.309.748-.429,1.092a5,5,0,0,1-.274.857,7.134,7.134,0,0,1-1.733,2.121A6.919,6.919,0,0,1,930.9,950.73Zm1.578-11.461a3.446,3.446,0,0,1-.36-1.217c0-.39.978-.562,1.3-.562.36,0,.583.016.755.313.12.2.326.155.326.483a4.015,4.015,0,0,1-.737,1.731c-.086.14-.138.281-.224.421-.034.062-.154.062-.223.062-.086,0-.394-.062-.428-.125C932.6,940.032,932.646,939.658,932.475,939.269Z" fill="#000000"/><path d="M931.086,953.805a3.013,3.013,0,0,1,.549-.063,3.978,3.978,0,0,1,.755.094,1.824,1.824,0,0,1,.583.3c.171.093.394.139.565.233.12.078.687.484.7.609a1.464,1.464,0,0,1,.018.28c0,1.107-1.2,1.638-1.853,2.355-.12.14-.48.421-.514.577a1.63,1.63,0,0,1-.155.484c-.136.28-.549.685-.549,1,0,.3.429.764.429,1.185a.45.45,0,0,1-.051.218.62.62,0,0,1,.035.171.163.163,0,0,1-.155.172c-.343,0-.6-.265-.909-.265-.068,0-.188.093-.308.093-.035,0-.07,0-.086-.031a.9.9,0,0,0-.206-.016.843.843,0,0,0-.686.407c-.189.249-.412.5-.618.748-.12.14-.36.171-.48.327-.137.172-.206.343-.394.561-.086.11-.172.219-.275.328a9.356,9.356,0,0,1-1.252,1,2.974,2.974,0,0,1-.823.374c-.086.032-.189.032-.274.063-.138.047-.361.374-.549.468a2.246,2.246,0,0,1-.841.233.424.424,0,0,1-.137-.015c-.463-.156-1.252-.125-1.527-.531-.1-.139-.291-.327-.291-.5a.415.415,0,0,1,.189-.312c.051-.047.977-.265,1.131-.327.224-.079.687-.39.789-.421a13.825,13.825,0,0,0,4.048-2.589c.257-.235.429-.531.669-.781a7.972,7.972,0,0,0,.789-.685,10.81,10.81,0,0,0,.874-1.295c.258-.5.653-.468.893-.779.137-.172.12-.343.2-.515a6.627,6.627,0,0,1,.618-.9,1.057,1.057,0,0,0,.257-.577c0-.359-.429-.421-.737-.421-.172,0-.361.015-.533.015-.2,0-.393-.047-.6-.047-.24,0-.429.156-.635.156a.667.667,0,0,1-.669-.639.358.358,0,0,1,.326-.39Zm-4.648.7c.566,0,1.081-.188,1.646-.188.189,0,.583.032.583.282,0,.311-.514.685-.788.826-.258.125-.429.311-.7.421a6.369,6.369,0,0,0-.978.561.963.963,0,0,0-.309.172,2.559,2.559,0,0,1-.994.187.456.456,0,0,1-.155-.016c-.274-.108-.6-.124-.6-.468,0-.389.1-.358.342-.7a1.009,1.009,0,0,0,.086-.25c.12-.312.343-.795.755-.826Zm6,7.937a1.869,1.869,0,0,1-.274-.234,1.286,1.286,0,0,1-.24-.592c0-.172.137-.25.309-.25.291,0,.566.25.823.359.155.062.326.031.48.093a3.315,3.315,0,0,1,.532.25,6.37,6.37,0,0,1,1.509.873,4.069,4.069,0,0,1,.635.78c.188.359.446.5.446.936,0,.343-.138.889-.618.889a2.723,2.723,0,0,1-1.509-.889c-.1-.125-.137-.281-.24-.406-.206-.28-.5-.53-.737-.8-.258-.281-.6-.468-.875-.733Z" fill="#000000"/><path d="M906.408,933.916a30.159,30.159,0,0,1,3.362-.546c.36,0,.719.078,1.08.078a2.6,2.6,0,0,0,.342-.078.55.55,0,0,0,.1-.2c0-.858-1.029-1.638-1.029-2.106,0-.218.36-.281.548-.281a3.12,3.12,0,0,1,.978.328.574.574,0,0,1,.24.343c.1.4.617,1.435.617,1.716a.486.486,0,0,1-.034.155c-.257.734-.154.7-.84,1.17-.48.343-.7.92-1.612.92-.412,0-.789-.218-1.2-.218a8.234,8.234,0,0,0-2.3.406,2.62,2.62,0,0,1-.669.233,3.555,3.555,0,0,1-1.063-.171c-.223-.078-.343-.718-.429-.936a1.133,1.133,0,0,1-.086-.406,12.147,12.147,0,0,1,1.235-2.947,11.01,11.01,0,0,0,.875-1.4,1.622,1.622,0,0,0-.412-.64,6.386,6.386,0,0,0-.685-.218,1.786,1.786,0,0,1-.619-1.279.583.583,0,0,1,.07-.3c.188-.358,1.234-1.232,1.6-1.669.36-.421.839-1.325,1.3-1.575.069-.327.034-.967.411-1.091a1.133,1.133,0,0,1,.395-.109c.411,0,1.544.343,1.544.795a2.718,2.718,0,0,1-.789,1.107,6.276,6.276,0,0,0-.944.39c-.394.3-1.835,1.809-1.835,2.23,0,.047.017.078.017.124.172.11.154.2.24.36a5.6,5.6,0,0,0,.652.592.886.886,0,0,0,.36.046h.189c.257,0,.463-.233.772-.233.325,0,.411.172.411.436a1.838,1.838,0,0,1-.206.468,4.6,4.6,0,0,1-.685,1c-.806.889-2.624,1.965-2.624,3.229,0,.047.034.108.034.155a.408.408,0,0,0,.257.063c.1,0,.223-.016.309-.016Zm2.864-5.738c0-.515,1.337-2.356,1.92-2.371.276.218,1.047.671,1.047,1.013a.775.775,0,0,1-.172.577,2.692,2.692,0,0,1-.857.359c-.12.031-.206.14-.309.187a9.781,9.781,0,0,1-1.3.531.338.338,0,0,1-.257-.157A.145.145,0,0,1,909.272,928.178Zm7.684-3.2c-.772,0-1.544.157-2.315.157a3.063,3.063,0,0,0-1.287.405c-.944,0-1.115-.313-1.115-1.186,0-.561.635-.452,1.046-.561a2.867,2.867,0,0,1,.361-.077l2.143-.141h.086a5.418,5.418,0,0,1,.7.078c1.235.124,2.093-.047,2.693,1.169a.569.569,0,0,1,.051.156c0,.249-.411.328-.634.328-.429,0-.515-.328-.96-.328Zm1.371,3.666c0-.125-.051-.25-.051-.375v-1.606c0-.234.137-1.045.481-1.061.325.171.583,1.248.583,1.591,0,.515-.1,1.044-.1,1.559,0,.2.07.391.07.593,0,.265-.086.546-.086.811,0,.452.051.92.051,1.372,0,.265-.051.515-.051.78,0,.187.12.375.12.561,0,.358-.258.655-.292,1-.172,1.326-1.046,1.81-2.178,2.48a.809.809,0,0,1-.429.078c-.669,0-1.99-.406-1.99-1.155a.473.473,0,0,1,.19-.311,1.189,1.189,0,0,1,.942-.28c.138,0,.258.046.395.046,1.081-.655,1.132.125,1.972-1.388.12-.218.292-.889.377-1Z" fill="#000000"/><path d="M905.327,948.671c-.549,0-.755-.748-.755-1.138a.587.587,0,0,1,.583-.514,5.274,5.274,0,0,1,1.2.264c.155.047.189.219.189.344A2.728,2.728,0,0,1,905.327,948.671Zm13.069-1.637c.412,0,1.046.031,1.046.39,0,.748-1,1.123-1.68,1.123-.549,0-2.384-.359-3.036-.468a3.021,3.021,0,0,0-.446-.141.287.287,0,0,0-.188.079.531.531,0,0,0,.154.374c.12.14.309.218.429.358a3.856,3.856,0,0,1,.583.9c0,.016-.034.078-.034.094a.488.488,0,0,1-.378.156c-.7,0-1.407-.608-2.041-.857a.65.65,0,0,0-.085.358c0,.11.016.235.016.359,0,.375-.154,2.371-.669,2.371-.565,0-.5-2.2-.514-2.605l-.377-.359c-.275.219-.669.234-.944.437-.428.3-.583.858-1.011,1.169a7.177,7.177,0,0,1-3.568,1.233c-.326,0-.823-.2-.823-.546a.788.788,0,0,1,.5-.64c.309-.125.652-.078.961-.172.463-.139.926-.28,1.372-.436.189-.062.395-.077.583-.155a4.436,4.436,0,0,0,1.132-1,1.811,1.811,0,0,0,.48-1.045,2.573,2.573,0,0,1-.96.2,2.772,2.772,0,0,1-.377-.062c-.429-.078-1.1-.062-1.1-.624a.444.444,0,0,1,.343-.374,14.294,14.294,0,0,1,3.361-.469.884.884,0,0,0,.378-.623c0-.592-.515-.671-.909-.982a3.517,3.517,0,0,1-.515-1.622c0-.312.052-.609.068-.92s.035-2.2.533-2.2c.428,0,.428,1.045,1.166,1.045.034,0,.086-.016.12-.016a.419.419,0,0,1,.325-.094c.172,0,.36.032.481.032.634,0,.737-.7,1.029-.7.5,0,.514,1.06.6,1.372a.975.975,0,0,1,.051.312c0,.156-.068.328-.068.483,0,.2.086.406.086.609a2.917,2.917,0,0,1-.1.53c-.172.826-.514.718-1.081,1.2a2.742,2.742,0,0,0-.617.951c.034.249.188.639.531.639,1.372,0,2.744.219,4.116.344.07,0,.138.015.206.015.223,0,.429-.031.652-.031Zm-13.223-2.994c0-.78.909-1.014,1.235-1.638-.686-.873-1.253-.062-1.253-1.808a.749.749,0,0,1,.156-.421l1.526-1.716a.436.436,0,0,1,.325-.141,6.125,6.125,0,0,1,1.15.266c.171.047.222.187.308.312,0,.046.018.078.018.125a.287.287,0,0,1-.1.217c-.635.531-1.114-.047-1.972,1.014-.137.172-.291.3-.291.53a.688.688,0,0,0,.068.266c.48.125.515.483,1.149.483.241-.109.257-.343.257-.608v-.172c0-.311.035-.576.464-.576h.565c.395,0,.653.795.653,1.075,0,.359-.292.9-.755.9-.583.826-1.8,1.029-2.316,1.887.1.233.327.265.566.265a3.033,3.033,0,0,0,1.235-.281c0-.156-.017-.281-.017-.4,0-.344.086-.546.686-.546.275,0,.7.733.7.951a.4.4,0,0,1-.051.2c-.412.92-.669.827-1.613,1.091a5.236,5.236,0,0,1-1.028.328,4.231,4.231,0,0,1-.446-.062c-1.166-.109-1.218-.391-1.218-1.248Zm8.815-4.569c0,.28-.206.327-.463.327-.206,0-.411-.11-.583-.11-.514,0-1.029.094-1.544.094-.222,0-.411-.171-.651-.171-.052,0-.154,0-.154-.062,0-1.108,1.424-.281,1.424-1.528a.319.319,0,0,1,.342-.359.375.375,0,0,1,.189.046c.411.219.514.3.514.608,0,.063-.017.157-.017.25C913.388,938.784,913.988,939.034,913.988,939.471Zm-.634,3.773c0-.468-.24-1.138-.858-1.138-.72,0-1.509.3-1.509,1.061,0,.748.12,1.153,1.03,1.153.411,0,1.182-.125,1.3-.546a.991.991,0,0,0,.035-.311Zm4.854.391c0-.3-.292-.562-.292-.812,0-.311.36-.389.635-.389.6,0,1.1,1.294,1.1,1.746a.528.528,0,0,1-.171.406,8.706,8.706,0,0,1-2.659.889c-.72,0-1.56-.063-1.56-.9a5.843,5.843,0,0,1,.96-2.6c-.275-.281-.7-.546-.7-.951a2.555,2.555,0,0,1,1.321-2.293,1.675,1.675,0,0,1,1.132-.452.359.359,0,0,1,.205.375c0,.873-1.611.514-1.611,1.605a.259.259,0,0,0,.154.266c.137.062.274.093.411.155.24.125.429.359.721.406.977-.234.206-1.466.96-1.466.428,0,.72.531.72.858,0,.608-1.269,1.7-1.852,1.7a.989.989,0,0,1-.361-.125c-.617.14-.857,1-1.148,1.45.12.5,1.012.5,1.44.5a1.011,1.011,0,0,0,.566-.187A.524.524,0,0,0,918.208,943.635Zm.257,8.421c-.567,0-2.418-1.3-2.418-1.81a.281.281,0,0,1,.257-.265,9.39,9.39,0,0,1,3.31.811.941.941,0,0,1,.343.577c0,.312-.737.718-1.046.718a.411.411,0,0,1-.24-.047A.9.9,0,0,1,918.465,952.056Z" fill="#000000"/><path d="M918.088,963.1c.034-.545.188-1.076.188-1.621,0-.734-.068-2.589-.72-3.073-.1-.078-.189-.109-.189-.25,0-.124.069-.327.24-.327.361-.515.1-1.684.618-1.684.274,0,.428.3.548.468a3,3,0,0,1,.413.655,5.62,5.62,0,0,1,.325,1.98c0,.5.12,1,.12,1.5,0,1.108-.223,2.215-.223,3.307,0,.108.069.218.069.343a1.186,1.186,0,0,1-.035.249c-.222,1.013-.291.545-.875,1.169a5.281,5.281,0,0,0-.445.858c-.326.53-.927.421-1.476.53a4.308,4.308,0,0,1-.771.094c-1.612,0-3.19-.3-4.8-.3-.344,0-.669.124-1,.124-.12,0-.257-.031-.377-.031a11.154,11.154,0,0,0-2.693.312.779.779,0,0,1-.189.032c-.034,0-.086-.016-.12-.016-1.474-.266-1.817-2.074-1.817-3.2,0-.484.051-.951.068-1.435a16.743,16.743,0,0,1,.291-3.587,1.1,1.1,0,0,1-.051-.405,21.54,21.54,0,0,1,.48-2.106c.052-.139.24-.467.429-.467.36,0,.429.328.429.592,0,.219-.051.421-.069.64l-.36,7.376c.189.265.343.826.772.826,1.389,0,2.778-.3,4.167-.3h1.8q1.313,0,2.625.047c.411.016.823.11,1.234.11a1.967,1.967,0,0,0,1.252-.422Zm-3.036-5.582c.549.093,1.715.108,2.109.452a2.226,2.226,0,0,1-.034.343c-.1.592-1.938.062-2.264.966a1.681,1.681,0,0,0-.068.577c0,.453-.224.764-.224,1.124,0,.186.052.358.052.545,0,1.2-1.012,2.87-2.487,2.87-.652,0-1.423-.2-1.423-.92a.518.518,0,0,1,.24-.515,2.259,2.259,0,0,1,.566-.125,3.8,3.8,0,0,0,1.509-.779c.515-.452.532-1.092.84-1.638a2.135,2.135,0,0,0-1.9-1.45,1.087,1.087,0,0,1-.927-.936c0-.8,1.527,0,2.179-1.107a4.694,4.694,0,0,0,.36-.812c0-1.028-.378-.654-1.029-1.044l-4.425.109a2.389,2.389,0,0,1-1.029.265c-.257,0-.806-.046-.806-.374,0-.53,1.32-.982,1.783-1.091.395-.094.789-.047,1.184-.11a11.493,11.493,0,0,1,1.937-.187c.138,0,.258.031.395.031,1.784.078,3.705-.108,5.386.561a.723.723,0,0,1,.36.609c0,.187-.532.546-.721.546-.514,0-1.011-.188-1.508-.188-.549,0-.481.9-.549,1.233Zm-5.917.124c.394,0,.771.047,1.166.047.206,0,.446.156.446.359,0,.592-2.453.889-2.967,1.059-.069.016-.069.032-.137.032a.307.307,0,0,1-.189-.093.73.73,0,0,1-.034-.188.4.4,0,0,1,.017-.14,1.554,1.554,0,0,1-.017-.28c0-.781.994-.8,1.646-.8Zm-.96,5.021c-.446,0-.653-.452-.653-.8,0-1.076,1.424-1.513,2.384-1.684.034,0,.07-.016.1-.016a.365.365,0,0,1,.343.391c0,.654-.91,1.059-1.338,1.481C908.758,962.272,908.6,962.662,908.175,962.662Z" fill="#000000"/></g></g></svg>
