<svg xmlns="http://www.w3.org/2000/svg" width="1000" height="988" viewBox="0 0 1000 988"><g id="Artboard"><rect id="Tint" width="1000" height="988" fill="#58595b"/></g><g id="Outline"><g id="_9.5th_Touhou_Project_Shooting_Game_for_Windows_XP_2000_She_is_a_Traditional_Demon" data-name="9.5th Touhou Project Shooting Game for Windows XP/2000 She is a Traditional  Demon"><path id="_9.5th_Touhou_Project" data-name="9.5th Touhou Project" d="M657.211,768.148a4,4,0,0,0,3.488,5.958h1.507a4,4,0,0,0,3.334-1.79l.028-.042a3.992,3.992,0,0,0,3.355,1.832h1.384a3.963,3.963,0,0,0,2.34-.769,9.131,9.131,0,0,0,4.182.982,7.594,7.594,0,0,0,4.069-1.147,3.964,3.964,0,0,0,2.541.934h1.277a3.888,3.888,0,0,1,3.386,0H689.4a4,4,0,0,1,5.78,0h1.276a4,4,0,0,0,4-4v-5.5a8.457,8.457,0,0,0-.5-2.9,3.994,3.994,0,0,0,1.152.532v7.865a4,4,0,0,0,4,4h1.258a3.98,3.98,0,0,0,3.175-1.591,8.677,8.677,0,0,0,5.352,1.8,8.5,8.5,0,0,0,5.38-1.849,8.154,8.154,0,0,0,7.509,1.554,4.022,4.022,0,0,0,.812.082h1.171a3.614,3.614,0,0,1,2.054,0H733.1a4,4,0,0,1,5.781,0h1.276a3.964,3.964,0,0,0,2.4-.82,8.714,8.714,0,0,0,4.155,1.033,8.5,8.5,0,0,0,5.38-1.849,8.154,8.154,0,0,0,7.509,1.554,4.022,4.022,0,0,0,.812.082h1.171a3.967,3.967,0,0,1,6.928,0H769.8a4,4,0,0,0,4-4v-1.264c.2-.023.385-.069.578-.1v1.367a4,4,0,0,0,4,4h1.259a3.977,3.977,0,0,0,3.109-1.511,8.678,8.678,0,0,0,5.24,1.724c.274,0,.543-.018.809-.041a4,4,0,0,0,3.9,3.144,6.866,6.866,0,0,0,6.04-3.172c.116-.182.206-.379.3-.571a8.712,8.712,0,0,0,3.318.64,9,9,0,0,0,4.8-1.377,8.855,8.855,0,0,0,.871-.638,9.163,9.163,0,0,0,10.4.737,3.972,3.972,0,0,0,2.7,1.065H822.4a4,4,0,0,0,4-4v-4.769a4,4,0,0,0,2.182-3.564V760.6a18.507,18.507,0,0,0-6.182-7.351h-1.276a3.994,3.994,0,0,0-3.983,3.774,9.869,9.869,0,0,0-3.637-.672,8.653,8.653,0,0,0-5.487,1.945,8.79,8.79,0,0,0-5.556-1.945,8.938,8.938,0,0,0-2.611.388,3.987,3.987,0,0,0-3.949-3.49h-1.294a3.986,3.986,0,0,0-3.953,3.539,8.148,8.148,0,0,0-2.5-.4,9.406,9.406,0,0,0-3.567.686,3.973,3.973,0,0,0-2.282-.722,7.659,7.659,0,0,0-2.059.273,3.982,3.982,0,0,0-.632-.055c-1.341-1.916-3.791-3.32-7.766-3.32h-3.333a4,4,0,0,0-4,4v.642a3.979,3.979,0,0,0-2.928-1.291h-1.278a4,4,0,0,1-5.744,0h-1.276a3.961,3.961,0,0,0-2.411.827,8.339,8.339,0,0,0-3.986-1.04,9.106,9.106,0,0,0-5.677,1.9,7.962,7.962,0,0,0-4.2-1.841,4,4,0,0,0-3.92-3.2h-1.293a16.039,16.039,0,0,1-6.2,4.566,3.991,3.991,0,0,0-2.872-1.215h-1.276a3.961,3.961,0,0,0-2.411.827,8.339,8.339,0,0,0-3.986-1.04,9.843,9.843,0,0,0-1.881.183,3.993,3.993,0,0,0-3.932-3.321h-7.075a4,4,0,0,0-4,4v1.135a4.045,4.045,0,0,0,.046.554c-.122-.128-.241-.258-.373-.379a7.975,7.975,0,0,0-4.532-2.111,4,4,0,0,0-3.919-3.2H688.1a3.879,3.879,0,0,1-3.386,0h-1.277a3.857,3.857,0,0,1-3.578,0h-5.745a4,4,0,0,0-3.935,3.282l-.236,1.292a8.708,8.708,0,0,0-1.335-2.015,7.92,7.92,0,0,0-6.067-2.772,8.1,8.1,0,0,0-5.842,2.43,8.268,8.268,0,0,0-2.573,5.914,8.854,8.854,0,0,0,2.051,5.7A8.575,8.575,0,0,0,657.211,768.148Z" fill="#fff"/><path id="Shooting_Game_for_Windows_XP_2000" data-name="Shooting Game for Windows XP/2000" d="M963.753,779.13a8.226,8.226,0,0,0-10.763-1.2,8,8,0,0,0-4.742-1.472,7.9,7.9,0,0,0-4.688,1.472,8,8,0,0,0-4.742-1.472,7.891,7.891,0,0,0-4.762,1.525,7.643,7.643,0,0,0-4.632-1.525,8.352,8.352,0,0,0-3.423.715,3.993,3.993,0,0,0-1.93-.5H922.9a4,4,0,0,0-3.792,2.732c-1.415-1.608-3.748-2.732-7.3-2.732h-3.333a4.021,4.021,0,0,1-1.606,0h-1.476a4,4,0,0,0-3.355,1.821l0,.008-.011-.016a4,4,0,0,0-3.349-1.813h-1.49a3.984,3.984,0,0,0-3.967,4.446,6.829,6.829,0,0,0-4.026-1.308,6.576,6.576,0,0,0-2.195.377,3.977,3.977,0,0,0-1.075-.165h-1.335a4,4,0,0,1-5.178,1.171h-1.046a4,4,0,0,1-5.141-1.171h-1.33a4,4,0,0,0-2.019.555,8.254,8.254,0,0,0-3.438-.767,9.575,9.575,0,0,0-2.832.424,3.985,3.985,0,0,0-3.955-3.562h-1.259a4,4,0,0,0-3.9,3.1h-.019a8.769,8.769,0,0,0-5.442,1.9,8.008,8.008,0,0,0-5.175-1.86,7.612,7.612,0,0,0-2.133.306c-.053-.012-.111-.008-.165-.018a3.989,3.989,0,0,0-3.943-3.426h-1.276a3.9,3.9,0,0,0-.615.062,3.939,3.939,0,0,0-.532-.062h-1.294a4,4,0,0,1-6.171,0H826.5a4,4,0,0,1-6.187,0h-1.294a3.945,3.945,0,0,1-4.873,3.1,7.694,7.694,0,0,0-2.059.272,4.115,4.115,0,0,0-.689-.059h-1.188a3.966,3.966,0,0,0-2.444.854,8.346,8.346,0,0,0-3.972-1.031,9.84,9.84,0,0,0-1.8.164,4,4,0,0,0-3.926-3.267c-3.229,0-5.663,1.4-6.844,3.756a4.011,4.011,0,0,0-2.02,2.3,8.845,8.845,0,0,0-6.664-2.985,8.725,8.725,0,0,0-5.427,1.848,7.979,7.979,0,0,0-5.082-1.776,7.375,7.375,0,0,0-3,.64,8.1,8.1,0,0,0-3.317-.676,7.019,7.019,0,0,0-1.9.26,4.032,4.032,0,0,0-.616-.048H762a3.587,3.587,0,0,1-2.053,0h-1.223a3.989,3.989,0,0,0-1.05.14,9.141,9.141,0,0,0-6.99.716,9.966,9.966,0,0,0-3.391-3.034,11.391,11.391,0,0,0-5.5-1.385,10.39,10.39,0,0,0-7.166,2.751,10.072,10.072,0,0,0-2.3,2.985,3.986,3.986,0,0,0-3.5-2.207l-1.206-.018h-.058a4,4,0,0,0-1.23.193,9.225,9.225,0,0,0-2.671-.389,8.4,8.4,0,0,0-5.316,1.9,8.008,8.008,0,0,0-5.177-1.862,7.6,7.6,0,0,0-2.132.306c-.054-.012-.112-.008-.166-.018a3.988,3.988,0,0,0-3.942-3.426h-1.277a3.882,3.882,0,0,1-3.367,0h-1.276a4,4,0,0,0-4,3.9l-.025.017a8.252,8.252,0,0,0-3.473-.783,9.092,9.092,0,0,0-5.745,1.96,8.686,8.686,0,0,0-5.386-1.96,9.1,9.1,0,0,0-5.677,1.9,7.958,7.958,0,0,0-4.194-1.841,4,4,0,0,0-3.92-3.2h-1.294a3.953,3.953,0,0,0-1.944.524,7.525,7.525,0,0,0-3.284-.737,7.736,7.736,0,0,0-4.966,1.758,6.775,6.775,0,0,0-2.544,5.362,7.969,7.969,0,0,0,.757,3.473,3.99,3.99,0,0,0-1.218,2.875,7.592,7.592,0,0,0,2.44,5.69l.043.04a8.08,8.08,0,0,0,5.524,2.082,7.92,7.92,0,0,0,3.319-.7,3.953,3.953,0,0,0,1.873.486h1.294a4,4,0,0,1,5.78,0h1.277a3.963,3.963,0,0,0,2.4-.82,8.717,8.717,0,0,0,4.155,1.033,8.491,8.491,0,0,0,5.549-1.992,8.679,8.679,0,0,0,5.582,1.992,8.52,8.52,0,0,0,4.8-1.434,3.981,3.981,0,0,0,2.87,1.221h1.276a3.891,3.891,0,0,1,3.367,0h1.277a3.605,3.605,0,0,1,2.038,0h1.276a4,4,0,0,1,5.816,0h.677a8.2,8.2,0,0,0,2.187,2.1,9.179,9.179,0,0,0,5.218,1.531,8.66,8.66,0,0,0,6.052-2.306,8.117,8.117,0,0,0,2.576-6.144v-.059a10.939,10.939,0,0,0,1.626,2.021,10.529,10.529,0,0,0,7.471,3.066,10.763,10.763,0,0,0,6.9-2.366l.018-.016a8.768,8.768,0,0,0,6.13,2.382,9,9,0,0,0,2.646-.385,4.006,4.006,0,0,0,1.166.172h1.223a3.61,3.61,0,0,1,2.053,0h1.276a4,4,0,0,1,5.071,0h1.312a4,4,0,0,1,5.072,0h1.241a3.967,3.967,0,0,0,2.37-.793,8.573,8.573,0,0,0,4.1,1.006,9,9,0,0,0,4.8-1.377,8.736,8.736,0,0,0,3.2-3.485v.649a4,4,0,0,0,4,4h1.277a3.971,3.971,0,0,0,2.945-1.313,8.68,8.68,0,0,0,4.96,1.526,8.593,8.593,0,0,0,4.171-1.049,3.962,3.962,0,0,0,2.422.836h1.259a4,4,0,0,0,4-4v-4.663a4,4,0,0,0,1.446-.9l1.869,6.646a4,4,0,0,0,3.851,2.916h1.649a4,4,0,0,1,5.62,0h1.667a3.963,3.963,0,0,1,4.765,0h1.276a3.605,3.605,0,0,1,2.038,0h1.277a4,4,0,0,1,5.815,0h1.241a3.967,3.967,0,0,0,2.457-.864,8.233,8.233,0,0,0,4.1,1.077,9.2,9.2,0,0,0,2.706-.394,4,4,0,0,0,1.195.181h1.206a3.964,3.964,0,0,0,2.424-.838,8.713,8.713,0,0,0,4.186,1.051,8.491,8.491,0,0,0,5.764-2.173,4,4,0,0,0,3.434,1.96h1.436a4,4,0,0,1,3.989,0h1.472a4,4,0,0,0,2.732-1.079,6.784,6.784,0,0,0,4.072,1.292,7.035,7.035,0,0,0,4.132-1.293c.187-.133.363-.275.533-.423a3.993,3.993,0,0,0,3.115,1.5h1.507a4,4,0,0,0,3.347-1.808l.269-.411.281.426a4,4,0,0,0,3.337,1.793h1.472a3.417,3.417,0,0,1,1.327,0h1.276a4,4,0,0,0,4-4v-1.265a9.313,9.313,0,0,0,1.189-.216l-.8,2.427a4,4,0,0,0,3.8,5.253h1.1a4,4,0,0,0,3.794-2.731l.073-.219a3.967,3.967,0,0,0,2.319.751h8.1a3.957,3.957,0,0,0,1.967-.536,8.1,8.1,0,0,0,3.527.784,8.247,8.247,0,0,0,4.743-1.459,7.937,7.937,0,0,0,4.687,1.459,8.242,8.242,0,0,0,4.742-1.459,7.94,7.94,0,0,0,4.688,1.459,8.2,8.2,0,0,0,8.291-8.343v-4.415A8.579,8.579,0,0,0,963.753,779.13Zm-68.191,8.849a3.994,3.994,0,0,0,.339-1.616c0-.117-.012-.231-.018-.347l.6.919-.833,1.267C895.617,788.128,895.594,788.051,895.562,787.979Z" fill="#fff"/><path id="She_is_a_Traditional" data-name="She is a Traditional" d="M656.533,842.457l.043.04a8.08,8.08,0,0,0,5.524,2.082,7.92,7.92,0,0,0,3.319-.7,3.953,3.953,0,0,0,1.873.486h1.294a4,4,0,0,1,5.78,0h1.277a3.963,3.963,0,0,0,2.351-.778,8.578,8.578,0,0,0,4.064.991,9,9,0,0,0,4.8-1.377,8.733,8.733,0,0,0,2.568-2.446,3.987,3.987,0,0,0,3.961,3.61h1.276a3.975,3.975,0,0,0,1.515-.3,7.256,7.256,0,0,0,6.818-.78,6.55,6.55,0,0,0,2.162-2.595,8.882,8.882,0,0,0,1.087,1.317,8.763,8.763,0,0,0,6.339,2.572,9,9,0,0,0,2.646-.385,4.006,4.006,0,0,0,1.166.172h1.223a4,4,0,0,0,4-4v-8.242a3.948,3.948,0,0,0,.877.377v7.865a4,4,0,0,0,4,4h1.259a3.884,3.884,0,0,1,3.988,0H733a3.973,3.973,0,0,0,3.07-1.464,8.835,8.835,0,0,0,5.279,1.677,9,9,0,0,0,2.646-.385,4,4,0,0,0,1.165.172h1.224a3.959,3.959,0,0,0,2.463-.87,8.235,8.235,0,0,0,4.111,1.083,9.2,9.2,0,0,0,2.706-.394,4,4,0,0,0,1.195.181h1.205a3.591,3.591,0,0,1,2.054,0h1.277a4,4,0,0,1,3.136,0h1.277a3.894,3.894,0,0,1,3.368,0h1.276a3.968,3.968,0,0,0,2.418-.832,8.724,8.724,0,0,0,4.177,1.045,8.592,8.592,0,0,0,4.159-1.043,3.969,3.969,0,0,0,2.415.83H784.9a4,4,0,0,1,5.816,0h1.241a3.966,3.966,0,0,0,2.372-.795,9.32,9.32,0,0,0,6.867.623,4,4,0,0,0,1.165.172h1.224a3.61,3.61,0,0,1,2.053,0h1.276a4,4,0,0,0,4-4V827.512a4,4,0,0,0-4-4h-1.276a3.989,3.989,0,0,0-3.941,3.412,3.822,3.822,0,0,0-.386.078,9.116,9.116,0,0,0-8.256,1.554,8.007,8.007,0,0,0-5.229-1.907,7.569,7.569,0,0,0-2.132.307,4.043,4.043,0,0,0-.865-.094H783.62a3.967,3.967,0,0,0-2.411.827,8.35,8.35,0,0,0-3.986-1.04,9.56,9.56,0,0,0-2.816.42,3.986,3.986,0,0,0-3.956-3.557h-1.276a3.885,3.885,0,0,1-3.368,0H764.53a3.99,3.99,0,0,1-3.136,0h-1.277a3.614,3.614,0,0,1-2.054,0h-1.258a4,4,0,0,0-3.9,3.1h-.019a8.7,8.7,0,0,0-4.133,1.043,3.966,3.966,0,0,0-2.371-.8h-1.224a4,4,0,0,0-1.05.14,9.177,9.177,0,0,0-6.17.318,3.971,3.971,0,0,0-2.263-.706,8.015,8.015,0,0,0-1.118.081,4,4,0,0,0-3.915-3.183h-7.076a3.963,3.963,0,0,1-5.951,3.35h-1.223a3.989,3.989,0,0,0-1.05.14,9.093,9.093,0,0,0-10.228,3.69,6.3,6.3,0,0,0-1.922-2.554,6.847,6.847,0,0,0-4.3-1.489c-.11,0-.216.023-.326.028a4,4,0,0,0-3.91-3.165h-1.276a4,4,0,0,0-4,4v2.2a4.047,4.047,0,0,0,.041.576c0,.019,0,.039,0,.057a8.869,8.869,0,0,0-7.257-3.729,8.721,8.721,0,0,0-5.5,1.909,7.951,7.951,0,0,0-4.158-1.812,4,4,0,0,0-3.92-3.2h-1.294a3.953,3.953,0,0,0-1.944.524,7.525,7.525,0,0,0-3.284-.737,7.736,7.736,0,0,0-4.966,1.758,6.774,6.774,0,0,0-2.544,5.362,7.969,7.969,0,0,0,.757,3.473,3.989,3.989,0,0,0-1.218,2.875A7.592,7.592,0,0,0,656.533,842.457Z" fill="#fff"/><path id="Demon" d="M822.633,844.366a10.719,10.719,0,0,0,6.693-2.255,8.381,8.381,0,0,0,6.051,2.468,8.938,8.938,0,0,0,4.217-1.07,3.961,3.961,0,0,0,2.447.857h1.276a4,4,0,0,1,5.071,0H849.7a4,4,0,0,1,5.071,0h1.242a3.96,3.96,0,0,0,2.423-.837,8.716,8.716,0,0,0,4.184,1.05,8.6,8.6,0,0,0,4.16-1.043,3.969,3.969,0,0,0,2.415.83h1.277a4,4,0,0,1,5.815,0h1.241a4,4,0,0,0,4-4v-5.372a8.194,8.194,0,0,0-2.555-6.143,8.033,8.033,0,0,0-5.576-2.2,7.569,7.569,0,0,0-2.132.307,4.036,4.036,0,0,0-.865-.094h-1.2a3.962,3.962,0,0,0-2.411.828,8.344,8.344,0,0,0-3.987-1.041,9.11,9.11,0,0,0-5.6,1.843,7.976,7.976,0,0,0-5.119-1.806,7.371,7.371,0,0,0-3,.64,8.1,8.1,0,0,0-3.317-.677,7.058,7.058,0,0,0-1.9.26,4.032,4.032,0,0,0-.616-.047h-1.2a3.966,3.966,0,0,0-2.371.8,8.9,8.9,0,0,0-8.48.063,9.971,9.971,0,0,0-.984-1.129,11.376,11.376,0,0,0-8.247-3.079H818.5a4,4,0,0,0-4,4v12.854a4,4,0,0,0,4,4Zm1.145-9.636v-1.459a1.283,1.283,0,0,1,.192.783C823.97,834.534,823.885,834.648,823.778,834.73Z" fill="#fff"/><path id="_Shameimaru_Aya_" data-name="″Shameimaru Aya”" d="M807.765,850.746a8.1,8.1,0,0,0-3.317-.677,7.046,7.046,0,0,0-1.9.26,4.042,4.042,0,0,0-.616-.047h-1.205a3.587,3.587,0,0,1-2.053,0h-1.224a4.042,4.042,0,0,0-1.05.139,9.123,9.123,0,0,0-8.256,1.555,7.956,7.956,0,0,0-4.2-1.845,4,4,0,0,0-3.92-3.2h-1.294a3.959,3.959,0,0,0-1.944.524,7.525,7.525,0,0,0-3.284-.737,7.953,7.953,0,0,0-2.381.365,3.961,3.961,0,0,0-4.365-1.917,7.368,7.368,0,0,0-.785.23,3.989,3.989,0,0,0-2.516-.23c-3.235.759-5.167,3.39-5.167,7.039v1.953a4,4,0,0,0,4,4h2.08a4.074,4.074,0,0,1,1.221,0h.513a3.968,3.968,0,0,0-.572,2.028,7.589,7.589,0,0,0,2.441,5.69l.043.04A8.076,8.076,0,0,0,773.536,868a7.924,7.924,0,0,0,3.32-.7,3.953,3.953,0,0,0,1.873.486h1.294a4,4,0,0,1,5.781,0h1.276a3.97,3.97,0,0,0,2.36-.784,9.317,9.317,0,0,0,6.844.612,4,4,0,0,0,1.165.172h1.224a3.61,3.61,0,0,1,2.053,0H802a4,4,0,0,1,5.07,0h1.313a4,4,0,0,1,5.071,0H814.7a3.965,3.965,0,0,0,2.371-.794,8.573,8.573,0,0,0,4.1,1.007,8.95,8.95,0,0,0,4.217-1.07,3.961,3.961,0,0,0,2.447.857H829.1a3.605,3.605,0,0,1,2.038,0h1.276a4,4,0,0,1,5.07,0H838.8a4,4,0,0,1,5.071,0h1.241a3.964,3.964,0,0,0,2.378-.8,9.321,9.321,0,0,0,6.877.628,4,4,0,0,0,1.165.172h1.224a3.6,3.6,0,0,1,2.07,0h1.259a3.972,3.972,0,0,0,2.963-1.335,8.2,8.2,0,0,0,7.145,1.253,4.022,4.022,0,0,0,.812.082h1.171a3.974,3.974,0,0,1,5.828,0h1.365a4,4,0,0,0,3.678-2.426l.8-1.882h.629l.832,1.908a5.1,5.1,0,0,1,4.068,3.951A4,4,0,0,0,892.7,871.1h1.348a4,4,0,0,0,3.684-2.441l1.286-3.041A8.769,8.769,0,0,0,905.144,868a9,9,0,0,0,2.646-.385,4,4,0,0,0,1.165.172h1.224a4,4,0,0,0,4-4v-5.528c.1-.008.205-.008.305-.024a4,4,0,0,0,.62.048H916.4a4,4,0,0,0,3.648-2.358l1.508-3.351a4,4,0,0,0-3.648-5.641h-1.26a4.062,4.062,0,0,1-1.258,0h-1.277a4,4,0,0,0-3.669,2.407l-.409.943h-1.078a4.042,4.042,0,0,0-1.05.139,9.168,9.168,0,0,0-6.41.426,3.958,3.958,0,0,0-2.017-.565h-1.335a4,4,0,0,1-6.224,0H890.59a3.99,3.99,0,0,0-1.509.3l-.516-1.215a4,4,0,0,0-3.681-2.435h-1.418a4,4,0,0,0-3.682,2.436l-3.607,8.491v-3.577a4,4,0,0,0-4-4H870.9a4,4,0,0,1-5.744,0h-1.049a3.97,3.97,0,0,0-1.343-.248,7.7,7.7,0,0,0-2.059.272,4.013,4.013,0,0,0-.689-.059h-1.188a3.6,3.6,0,0,1-2.07.035h-1.224a4.042,4.042,0,0,0-1.05.139,9.137,9.137,0,0,0-8.184,1.494,7.977,7.977,0,0,0-5.122-1.81,7.38,7.38,0,0,0-3,.641,8.1,8.1,0,0,0-3.317-.677,7.012,7.012,0,0,0-1.823.244,3.989,3.989,0,0,0-3.937-3.381h-1.277a3.987,3.987,0,0,0-3.948,3.489,8.949,8.949,0,0,0-2.609-.387,8.726,8.726,0,0,0-5.427,1.847,7.981,7.981,0,0,0-5.082-1.776A7.38,7.38,0,0,0,807.765,850.746Z" fill="#fff"/><rect id="_." data-name="." x="917.111" y="857.445" width="9.384" height="10.341" rx="4" fill="#fff"/><path id="Her_note_is_Mysterious_and_Fantastic." data-name="Her note is Mysterious and Fantastic." d="M953.061,880.9a4.005,4.005,0,0,0-.255-1.8,8.6,8.6,0,0,0-3.915-4.459,9.657,9.657,0,0,0-4.719-1.181,8.737,8.737,0,0,0-2.575.388,3.987,3.987,0,0,0-3.949-3.49h-1.276a3.885,3.885,0,0,1-3.368,0h-1.276a3.99,3.99,0,0,0-3.929,3.33,6.97,6.97,0,0,0-1.547-.193,6.531,6.531,0,0,0-2.623.567A3.96,3.96,0,0,0,922,873.7h-1.224a4.042,4.042,0,0,0-1.05.139,9.167,9.167,0,0,0-6.445.442c-.082-.05-.161-.1-.247-.148a4,4,0,0,0-3.994-3.783h-1.276a4,4,0,0,0-3.989,3.823,8.076,8.076,0,0,0-3.276-.686,7.564,7.564,0,0,0-2.132.307,3.981,3.981,0,0,0-.865-.094h-1.2a3.591,3.591,0,0,1-2.054,0H893.02a4.044,4.044,0,0,0-1.051.139,8.945,8.945,0,0,0-2.655-.387,9.17,9.17,0,0,0-2.265.287,3.99,3.99,0,0,0-3.939-3.389h-6.435a3.979,3.979,0,0,1-6.768,0h-1.259a4,4,0,0,0-3.9,3.1h-.02a8.773,8.773,0,0,0-5.442,1.9,8.007,8.007,0,0,0-5.175-1.861,7.569,7.569,0,0,0-2.132.307,3.981,3.981,0,0,0-.865-.094h-1.205a3.591,3.591,0,0,1-2.054,0h-1.223a4.031,4.031,0,0,0-1.05.139,9.13,9.13,0,0,0-8.815,2.027,9.053,9.053,0,0,0-1.25,1.41,6.333,6.333,0,0,0-1.819-2.3,6.847,6.847,0,0,0-4.3-1.489,6.551,6.551,0,0,0-2.709.606,3.962,3.962,0,0,0-1.7-.393h-1.277a4,4,0,0,1-5.744,0h-1.277a3.966,3.966,0,0,0-2.41.827,8.357,8.357,0,0,0-3.987-1.04,9.565,9.565,0,0,0-2.816.42,3.986,3.986,0,0,0-3.956-3.557h-1.276a3.993,3.993,0,0,0-3.931,3.315H797.2a3.962,3.962,0,0,0-2.4.821,8.924,8.924,0,0,0-7.865-.233c-.067-.039-.131-.084-.2-.12a4,4,0,0,0-4-3.783h-1.276a3.989,3.989,0,0,0-3.928,3.33,6.988,6.988,0,0,0-1.549-.193,6.588,6.588,0,0,0-2.215.383,3.981,3.981,0,0,0-1.092-.17h-1.335a3.013,3.013,0,0,1-5.14.167,3.985,3.985,0,0,0-3.951-3.517H760.28A4,4,0,0,0,756.6,872.8l-.95,2.25-.955-2.255a4,4,0,0,0-3.683-2.438h-1.968a4,4,0,0,0-4,4v1.389a6.482,6.482,0,0,0-.8-.763,6.842,6.842,0,0,0-4.3-1.489c-.11,0-.216.023-.326.028a4,4,0,0,0-3.91-3.165h-1.276a4,4,0,0,0-4,4v2.2a4.057,4.057,0,0,0,.041.576c-.015.1-.015.2-.022.306a8.905,8.905,0,0,0-11.109-3.177c-.067-.039-.131-.084-.2-.12a4,4,0,0,0-4-3.783h-1.276a4,4,0,0,0-4,3.9l-.024.017a8.268,8.268,0,0,0-3.473-.783,9.1,9.1,0,0,0-5.676,1.9,8.012,8.012,0,0,0-5.224-1.9,7.576,7.576,0,0,0-2.133.307,3.974,3.974,0,0,0-.865-.094h-1.205a3.965,3.965,0,0,1-5.777-.248,7.7,7.7,0,0,0-2.059.272,4.013,4.013,0,0,0-.689-.059h-1.187a3.965,3.965,0,0,0-2.4.821,8.806,8.806,0,0,0-4.172-1.034,8.907,8.907,0,0,0-2.848.467,3.985,3.985,0,0,0-3.956-3.569H666.94a4,4,0,0,1-6.613,0h-1.276a4,4,0,0,0-4,4v12.854a4,4,0,0,0,4,4h1.276a4,4,0,0,1,6.613,0h1.242a3.963,3.963,0,0,0,2.458-.866,8.558,8.558,0,0,0,4.24,1.079,8.963,8.963,0,0,0,4.228-1.075,3.963,3.963,0,0,0,2.454.862h1.258a4,4,0,0,0,4-4v-4.663a4.107,4.107,0,0,0,.454-.2v4.863a4,4,0,0,0,4,4h1.277a4,4,0,0,1,5.815,0h1.241a3.966,3.966,0,0,0,2.417-.832,8.721,8.721,0,0,0,4.176,1.045,8.523,8.523,0,0,0,4.8-1.434,3.979,3.979,0,0,0,2.869,1.221h1.276a3.974,3.974,0,0,0,2.908-1.268,8.46,8.46,0,0,0,4.874,1.481,9,9,0,0,0,4.8-1.377,8.724,8.724,0,0,0,2.723-2.667,3.991,3.991,0,0,0,3.983,3.831h1.276a3.979,3.979,0,0,0,1.515-.3,7.256,7.256,0,0,0,6.818-.78,6.617,6.617,0,0,0,1.351-1.288,3.994,3.994,0,0,0,3.645,2.369h1.276a4,4,0,0,1,4.77,0h1.1a4,4,0,0,1,4.787,0h.99a3.977,3.977,0,0,0,3.934,3.315h1.347a4,4,0,0,0,3.684-2.44l.857-2.025a6.773,6.773,0,0,0,4.162,1.363,7.123,7.123,0,0,0,3.379-.84,3.966,3.966,0,0,0,2.133.627h1.276a3.974,3.974,0,0,0,2.908-1.268,8.46,8.46,0,0,0,4.874,1.481,8.956,8.956,0,0,0,4.227-1.075,3.965,3.965,0,0,0,2.454.862h1.259a3.853,3.853,0,0,1,3.793,0h1.276a3.963,3.963,0,0,0,2.418-.833,8.725,8.725,0,0,0,4.177,1.046,8.49,8.49,0,0,0,5.38-1.85,8.151,8.151,0,0,0,7.509,1.555,4.03,4.03,0,0,0,.812.082h1.171a3.964,3.964,0,0,0,1.6-.337,7.262,7.262,0,0,0,6.91-.744,6.554,6.554,0,0,0,2.054-2.382,9.024,9.024,0,0,0,.929,1.1,8.764,8.764,0,0,0,6.339,2.572,9,9,0,0,0,2.646-.385,4.006,4.006,0,0,0,1.166.172h1.223a3.591,3.591,0,0,1,2.054,0h1.276a4,4,0,0,1,5.816,0h1.241a3.962,3.962,0,0,0,2.457-.865,8.221,8.221,0,0,0,4.1,1.078,9.165,9.165,0,0,0,2.706-.395,4,4,0,0,0,1.2.182h1.205a3.978,3.978,0,0,1,6.768,0h1.276a3.986,3.986,0,0,0,3.951-3.514,8.983,8.983,0,0,0,.967,1.155,8.761,8.761,0,0,0,6.339,2.572,9,9,0,0,0,2.646-.385,4.006,4.006,0,0,0,1.166.172h1.223a3.591,3.591,0,0,1,2.054,0h1.276a4,4,0,0,1,5.816,0h1.241a4,4,0,0,1,3.134,0h1.276a3.974,3.974,0,0,0,2.909-1.27,8.871,8.871,0,0,0,5.016,1.483,9,9,0,0,0,2.646-.385,4,4,0,0,0,1.165.172H922a3.985,3.985,0,0,0,1.524-.3,7.238,7.238,0,0,0,6.071-.323,3.966,3.966,0,0,0,2.133.627H933a3.894,3.894,0,0,1,3.368,0h1.276a3.962,3.962,0,0,0,2.458-.865,8.955,8.955,0,0,0,4.279,1.078,9.061,9.061,0,0,0,4.446-1.142,3.967,3.967,0,0,0,2.535.929h1.384a4,4,0,0,0,4-4v-2.341A3.987,3.987,0,0,0,953.061,880.9Z" fill="#fff"/><path id="ver_1.02a" data-name="ver 1.02a" d="M731.778,897.122h-1.223a4.031,4.031,0,0,0-1.05.139,9.188,9.188,0,0,0-6.192.328,8.091,8.091,0,0,0-1.292-1.689,7.655,7.655,0,0,0-5.577-2.341,8.114,8.114,0,0,0-4.737,1.462,8.01,8.01,0,0,0-4.728-1.462,7.87,7.87,0,0,0-6,2.654,8.572,8.572,0,0,0-2.2,5.831v2.3a3.948,3.948,0,0,0-.523.111v-6.682a4,4,0,0,0-4-4h-3.422a4,4,0,0,0-4,4v1.135c0,.064.01.124.013.187a3.986,3.986,0,0,0-3.564-2.219,7.7,7.7,0,0,0-2.059.272,4,4,0,0,0-.689-.059h-1.187a3.965,3.965,0,0,0-2.4.821,8.922,8.922,0,0,0-7.822-.252,3.96,3.96,0,0,0-1.962-.534h-1.387a4,4,0,0,1-6.526,0H657.88a4,4,0,0,0-3.693,5.537l3.954,9.5a4,4,0,0,0,3.693,2.464h1.312a3.993,3.993,0,0,0,3.548-2.175,8.381,8.381,0,0,0,5.97,2.388,8.952,8.952,0,0,0,4.228-1.076,3.957,3.957,0,0,0,2.454.863H680.6a4,4,0,0,0,4-4v-4.664a4,4,0,0,0,2.677-3.775v-1.313c0-.061-.015-.117-.018-.177A4.01,4.01,0,0,0,689,902.46v8.166a4,4,0,0,0,4,4h1.259a3.921,3.921,0,0,1,5.085,0h1.384a3.973,3.973,0,0,0,2.31-.744,8.049,8.049,0,0,0,3.946.992,8.384,8.384,0,0,0,3.421-.717,3.952,3.952,0,0,0,1.842.469h8.1a3.971,3.971,0,0,0,2.3-.737,9.3,9.3,0,0,0,6.742.565,4.006,4.006,0,0,0,1.166.172h1.223a4,4,0,0,0,4-4v-9.5A4,4,0,0,0,731.778,897.122Z" fill="#fff"/></g></g><g id="Text"><path d="M358.027,79.021l10.459,8.511q2.255,1.95,2.256,2.974,0,2.153-2.359,2.153h-40.3V102.5h11.69l7.69-6.665,12.1,7.383q1.845,1.23,1.846,2.05a2.57,2.57,0,0,1-1.744,2.359,3.7,3.7,0,0,0-2.05,1.333v28.813q0,1.437-2.461,1.846-11.074,1.437-11.792,1.436-2.976,0-2.974-4.1v-.41H329.008a54.7,54.7,0,0,0,17.534,10.972q8.511,3.59,24.2,5.742v2.563q-6.153,3.487-8.614,16.817-16-6.667-23.173-14.253a49.35,49.35,0,0,1-10.87-16.817V170.9q0,1.539-2.358,2.051-10.357,1.231-11.177,1.231-2.36,0-2.358-3.692V151a72.864,72.864,0,0,1-8.2,7.485q-12.3,9.022-30.044,14.561l-.718-2.154q12.407-7.689,19.175-15.688,5.639-6.561,11.587-18.662h-4.922v3.179q0,1.537-2.461,2.05-10.05,1.335-10.664,1.333-2.565,0-2.564-3.794V103.323a27.012,27.012,0,0,0-.82-6.562L300.81,102.5h11.382V92.659h-25.43a101.8,101.8,0,0,0-12.817.82l-1.538-4.511a124.285,124.285,0,0,0,14.355.82h25.43V82.713a23.457,23.457,0,0,0-.82-6.05l15.688,1.128q3.588.308,3.589,1.743a2.336,2.336,0,0,1-1.231,2.154,2.512,2.512,0,0,0-1.333,1.435v6.665h21.329ZM299.067,118.4h13.125V105.271H299.067Zm0,15.279h13.125V121.268H299.067Zm29.018-28.4V118.4H340.39V105.271Zm0,16v12.407H340.39V121.268Z" fill="#000000"/><path d="M308.5,181.253l18.355,1.435q3.384.309,3.384,1.846A2.661,2.661,0,0,1,328.8,187a2.2,2.2,0,0,0-1.538,1.641v13.535h19.79l9.434-11.895,11.382,9.331q2.562,2.154,2.563,3.384,0,1.95-2.461,1.948h-52.5q-.207,9.744-1.128,17.637h24.917l8.613-8.2,13.741,8.716a2.859,2.859,0,0,1,1.333,2.461q0,1.026-1.538,1.948a5.2,5.2,0,0,0-2.461,2.153,173.693,173.693,0,0,1-2.461,30.147q-1.744,10.665-7.691,13.535-4.512,2.461-18.969,3.486-1.026-12.3-15.279-16V257.85h21.328q2.05,0,2.564-2.564,2.255-11.279,2.358-29.736H314.14q-1.845,15.792-6.05,24.3-9.127,17.841-34.555,29.018l-.718-2.051q14.866-13.127,19.79-27.48,4.614-13.944,4.717-44.4H288.3a120.993,120.993,0,0,0-13.945.821l-1.538-4.512a131.59,131.59,0,0,0,15.483.923h20.918V188.123A34.048,34.048,0,0,0,308.5,181.253Z" fill="#000000"/><path d="M310.961,286.253l17.535,1.23q3.692.207,3.691,2.051,0,.923-1.333,1.641a2.579,2.579,0,0,0-1.025,1.538v13.535h16.406l9.844-12.2,11.689,9.741q2.666,2.052,2.666,3.384,0,1.949-2.974,1.948H356.8q-9.743,27.789-21.43,42.964a196.838,196.838,0,0,0,35.376,8.408v2.769q-7.9,5.64-8.2,20.2-25.021-7.794-39.991-18.867Q304.5,377.922,273.227,383.87l-.82-2.051a101.7,101.7,0,0,0,40.3-26.045q-14.459-15.482-20.816-46.655h-2.256a127.408,127.408,0,0,0-14.458.82l-1.64-4.511a159.336,159.336,0,0,0,16.1.82h22.149V291.175A19.27,19.27,0,0,0,310.961,286.253Zm-16.508,22.866a58.386,58.386,0,0,0,18.252,30.659,49.378,49.378,0,0,0,8.2,5.64q8.51-13.433,14.663-36.3Z" fill="#000000"/><path d="M358.437,393.611l9.741,8.2q2.255,1.846,2.256,2.974,0,1.948-2.051,1.948H342.954v9.536q0,1.437-2.666,1.949-10.974,1.23-11.69,1.23-2.871,0-2.871-4.1v-8.614H311.372v9.947q0,1.437-2.666,1.845-10.974,1.333-11.792,1.333-2.361,0-2.359-3.589v-9.536h-8.613a78.136,78.136,0,0,0-12,.923l-1.538-4.512a110.463,110.463,0,0,0,13.535.821h8.613v-6.255a23.457,23.457,0,0,0-.82-6.05l16.509,1.128q3.484.207,3.486,1.743a2.206,2.206,0,0,1-1.128,1.948,1.852,1.852,0,0,0-1.23,1.231v6.255h14.355v-5.845a26.626,26.626,0,0,0-.82-6.46l17.329,1.128q3.588.207,3.589,1.743a2.3,2.3,0,0,1-1.538,2.154,2.148,2.148,0,0,0-1.333,1.435v5.845h7.382Zm-66.445,27.173,20.1,4.512q2.05.515,2.051,1.948t-1.743,1.948a3.935,3.935,0,0,0-1.948,1.026,95.742,95.742,0,0,1-7.178,8.1h.1q1.741.616,1.743,1.333a1.713,1.713,0,0,1-.616,1.538,2.186,2.186,0,0,0-.512,1.333v42.964q0,1.539-2.666,2.051-10.974,1.332-11.69,1.333-2.564,0-2.563-3.794V450.931a126.814,126.814,0,0,1-12.715,7.485l-1.538-.718a113.258,113.258,0,0,0,12-17.226,77.446,77.446,0,0,0,6.255-14.151A25.254,25.254,0,0,0,291.992,420.784Zm25.532.41,18.867,1.641q2.05.411,2.051,1.538a2.653,2.653,0,0,1-1.641,2.666,2.489,2.489,0,0,0-1.64,1.436v18.354A147.887,147.887,0,0,0,349,431.243,31.237,31.237,0,0,0,352.8,425.3l14.151,10.356a3.422,3.422,0,0,1,1.845,2.769q-.206,1.641-2.153,1.641h-1.948q-17.329,8.1-29.531,12.407v12.612q0,4.306,2.563,4.614a36.8,36.8,0,0,0,8.511.718q10.767,0,11.894-3.691,2.358-4.614,3.282-13.535h2.871q.2,12.51,1.538,13.842,1.127,2.462,4.614,3.384-3.077,9.743-8.1,13.33-2.564,2.358-10.356,2.359l-5.742.307q-17.022,0-20.2-1.23-7.794-2.257-7.793-13.946V431.448A74.128,74.128,0,0,0,317.524,421.194Z" fill="#000000"/><path d="M274.765,510.916l11.9,4.922h2.05V501.175a28.751,28.751,0,0,0-.41-4.922l12.818.923q2.87.307,2.871,1.435a2.016,2.016,0,0,1-1.026,1.846,1.877,1.877,0,0,0-1.128,1.025v14.356H304.5l4-4.922,8.819,5.23a1.94,1.94,0,0,1,.923,1.435q0,.615-1.026,1.231a1.871,1.871,0,0,0-.923,1.127v45.22a8.663,8.663,0,0,1-5.947,8.716,29.44,29.44,0,0,1-5.947,1.538,20.714,20.714,0,0,0-2.564-8.818v25.224q0,1.127-1.948,1.436-8.512.923-9.023.923-2.154,0-2.154-2.769v-72.6h-2.768v54.96q0,.924-1.743,1.231-6.872.822-7.281.82-1.745,0-1.743-2.563V515.018A21.992,21.992,0,0,0,274.765,510.916Zm27.07,7.9v42.656H304.4c.477,0,.718-.273.718-.821V518.812ZM332.7,496.253l16.919,1.23q3.177.307,3.178,1.538a2.86,2.86,0,0,1-1.23,2.564,2.207,2.207,0,0,0-1.231,1.538v16.816H352.8l7.383-9.023L369.2,518.3q1.945,1.537,1.948,2.461,0,2.153-1.948,2.153H350.336l.1,22.149,6.46-6.153,11.484,6.973q1.64,1.13,1.641,2.051a2.209,2.209,0,0,1-1.128,1.948,3.273,3.273,0,0,0-1.436,1.23v38.247q0,1.434-2.46,1.949-10.767,1.33-11.485,1.333-2.359,0-2.358-3.692v-1.64H333.52V590.9q0,1.332-2.358,1.744-9.743,1.23-10.357,1.23-2.564,0-2.563-3.384V545.779a50.721,50.721,0,0,0-.41-6.46l15.688,5.23V502.3A23.457,23.457,0,0,0,332.7,496.253Zm.82,88.184h17.637v-36.5H333.52Z" fill="#000000"/><path d="M316.588,665.78l-1.923-.512v-2.179q0-1.5-.085-2.905c-.114-.941-.2-1.609-.257-2.008a7.1,7.1,0,0,0-2.008-3.5,13.2,13.2,0,0,0-10.424-4.358,19.345,19.345,0,0,0-2.8.171,15.913,15.913,0,0,0-2.969.855,9.916,9.916,0,0,0-3.5,2.563,8.154,8.154,0,0,0-2.008,4.016,8.7,8.7,0,0,1-.171,2.094,8.544,8.544,0,0,0,.983,3.93,19.578,19.578,0,0,0,1.111,1.837,10.052,10.052,0,0,0,1.581,1.581q.726.684,2.008,1.666.9.684,2.564,1.752,6.022,3.675,9.869,6.451a31,31,0,0,1,6.836,7.264,18.207,18.207,0,0,1,2.862,10,13.311,13.311,0,0,1-.513,3.76,18.119,18.119,0,0,1-1.5,3.675,16.912,16.912,0,0,1-4.785,5.511,23.073,23.073,0,0,1-6.665,3.417,25.5,25.5,0,0,1-7.691,1.155,35.011,35.011,0,0,1-12.261-2.137l-1.923,9.144-1.666.512.6-6.109.812-10,.256-12.177,1.752.513q0,8.076.6,9.314a14.717,14.717,0,0,0,5.682,6.11,14.312,14.312,0,0,0,3.974,1.795,12.945,12.945,0,0,0,4.272.725,16.932,16.932,0,0,0,6.836-1.5,12.889,12.889,0,0,0,5.041-4.357A10.664,10.664,0,0,0,313,697.482a12.294,12.294,0,0,0-2.008-6.985,19.219,19.219,0,0,0-4.486-4.85l-6.964-4.828a64.305,64.305,0,0,1-6.366-4.443q-7.563-6.194-7.563-13.287a13.316,13.316,0,0,1,2.564-8.075,16.191,16.191,0,0,1,6.751-5.255,21.126,21.126,0,0,1,8.374-1.752,34.266,34.266,0,0,1,6.836.662,16.253,16.253,0,0,1,5.255,1.9l1.581-7.6,1.666-.385q-.9,5.982-1.41,12.177A109.4,109.4,0,0,0,316.588,665.78Z" fill="#000000"/><path d="M327.953,674.454l-.47-.769,4.264.086,4.05.127,8.818-.213-.171.769a17.759,17.759,0,0,0-2.306.17q-1.368.216-3.376.556,0,2.864-.042,4.572-.3,8.718-.3,10.641h4.015q2.607.043,3.8.043l4.485-.043,6.836-.088,7.306-.043v-6.579q0-1.668-.043-2.693-.3-4.955-.3-5.81-1.965-.384-2.435-.427a23.88,23.88,0,0,0-3.247-.3l-.171-.769,4.571.086,4.4.127,4.1-.127,4.016-.086-.385.726-2.521.385-3.332.384-.427,14.868.171,7.05.17,6.409.214,5.767,3.2.427,2.521.257.385.854-7.605-.213-9.571.341.257-.98,5.682-.682q0-.854.171-3.112t.171-3.24v-11.04H362.9q-3.417.128-6.152.255-2.778.086-6.024.086l-12.3.425.128,4.9.042,6.223.3,5.5,5.553.682.171.98-7.927-.341-9.077.213.342-.854,5.982-.684.211-17.089q0-3.931-.043-6.025-.3-10.423-.3-10.98a18.634,18.634,0,0,0-2.392-.492A23.137,23.137,0,0,0,327.953,674.454Z" fill="#000000"/><path d="M404.387,673h2.051a31.865,31.865,0,0,1,7.818.9,21.682,21.682,0,0,1,6.2,2.627,17.544,17.544,0,0,1,4.4,3.825,15.032,15.032,0,0,1,2.649,4.828,17.332,17.332,0,0,1,.9,5.6,18.744,18.744,0,0,1-1.388,7.072,22.947,22.947,0,0,1-4.08,6.514,19.288,19.288,0,0,1-3.119,2.735,23.475,23.475,0,0,1-4.081,2.179,29.7,29.7,0,0,1-5.02,1.56,24.946,24.946,0,0,1-5.426.619q-10.254,0-16.192-4.534a20.249,20.249,0,0,1-3.76-4.063,17.061,17.061,0,0,1-1.282-2.181q-.428-.984-.9-2.4a15.465,15.465,0,0,1-.812-4.833,17.737,17.737,0,0,1,.812-5.389,18.469,18.469,0,0,1,2.264-4.961,20.952,20.952,0,0,1,7.605-7.058,24.547,24.547,0,0,1,5.448-2.224A22,22,0,0,1,404.387,673Zm-4.785,2.307a18.114,18.114,0,0,0-7.562,3.205,13.772,13.772,0,0,0-4.358,5.468,17.182,17.182,0,0,0-1.09,3.226,14.742,14.742,0,0,0-.363,3.269l.171,1.324.171,1.581a18.357,18.357,0,0,0,2.456,6.28,19.982,19.982,0,0,0,4.209,4.828,23.587,23.587,0,0,0,2.5,1.773,22.342,22.342,0,0,0,7.926,3.012l2.947.256a20.584,20.584,0,0,0,8.417-1.815,15.116,15.116,0,0,0,6.537-5.405,14.737,14.737,0,0,0,1.837-4.1,17.652,17.652,0,0,0,.641-4.913l-.171-2.9a14.339,14.339,0,0,0-2.99-7.2,21.181,21.181,0,0,0-16.834-8.266h-1.922A14.28,14.28,0,0,0,399.6,675.308Z" fill="#000000"/><path d="M457.28,673h2.051a31.865,31.865,0,0,1,7.818.9,21.67,21.67,0,0,1,6.195,2.627,17.544,17.544,0,0,1,4.4,3.825,15.032,15.032,0,0,1,2.649,4.828,17.333,17.333,0,0,1,.9,5.6,18.745,18.745,0,0,1-1.389,7.072,22.925,22.925,0,0,1-4.08,6.514A19.288,19.288,0,0,1,472.7,707.1a23.465,23.465,0,0,1-4.08,2.179,29.738,29.738,0,0,1-5.021,1.56,24.946,24.946,0,0,1-5.426.619q-10.254,0-16.192-4.534a20.249,20.249,0,0,1-3.76-4.063,17.061,17.061,0,0,1-1.282-2.181q-.427-.984-.9-2.4a15.465,15.465,0,0,1-.812-4.833,17.737,17.737,0,0,1,.812-5.389,18.469,18.469,0,0,1,2.264-4.961,20.947,20.947,0,0,1,7.606-7.058,24.52,24.52,0,0,1,5.447-2.224A22,22,0,0,1,457.28,673Zm-4.785,2.307a18.114,18.114,0,0,0-7.562,3.205,13.772,13.772,0,0,0-4.358,5.468,17.182,17.182,0,0,0-1.09,3.226,14.742,14.742,0,0,0-.363,3.269l.171,1.324.171,1.581a18.357,18.357,0,0,0,2.456,6.28,19.982,19.982,0,0,0,4.209,4.828,23.587,23.587,0,0,0,2.5,1.773,22.342,22.342,0,0,0,7.926,3.012l2.947.256a20.584,20.584,0,0,0,8.417-1.815,15.119,15.119,0,0,0,6.538-5.405,14.763,14.763,0,0,0,1.836-4.1,17.652,17.652,0,0,0,.641-4.913l-.171-2.9a14.339,14.339,0,0,0-2.99-7.2,21.181,21.181,0,0,0-16.834-8.266h-1.922A14.28,14.28,0,0,0,452.5,675.308Z" fill="#000000"/><path d="M485.222,682.913q.726-7.434.726-11.493v-1.409l1.154.128a14.1,14.1,0,0,0,.341,3.546q1.581,0,5.042.17,8.074.343,12.9.342,3.075,0,7.305-.171,9.828-.34,12.605-.341l.427-1.282.512-2.05a2.372,2.372,0,0,1,1.069-.214c-.085.4-.2,1.01-.342,1.837q-.471,2.818-.727,5.382l-.811,5.94-1.026-.257.043-1.965.085-2.094V677.23a11.646,11.646,0,0,0-3.418-.982q-2.393-.3-4.1-.491a28.805,28.805,0,0,0-3.2-.193l-5.512-.17-.085,3.46-.043,3.631-.085,3.376-.086,5.341.3,18.072,7.349.684.213.854-4.571-.085-5.427-.128-5.3.128-4.7.085.342-.854,7.221-.684q0-2.307.128-9.271.084-6.965.086-9.442l-.043-8.8-.171-6.366q-3.718,0-5.6.127-1.923.087-5.213.428a15.041,15.041,0,0,0-5.3,1.281l-1.153,5.384Z" fill="#000000"/><path d="M553.581,682.913q.726-7.434.727-11.493v-1.409l1.153.128a14.042,14.042,0,0,0,.342,3.546q1.579,0,5.042.17,8.074.343,12.9.342,3.077,0,7.306-.171,9.827-.34,12.6-.341l.427-1.282.513-2.05a2.368,2.368,0,0,1,1.068-.214c-.085.4-.2,1.01-.342,1.837q-.47,2.818-.726,5.382l-.812,5.94-1.025-.257.043-1.965.085-2.094V677.23a11.656,11.656,0,0,0-3.418-.982q-2.394-.3-4.1-.491a28.791,28.791,0,0,0-3.2-.193l-5.512-.17-.085,3.46-.043,3.631-.085,3.376-.085,5.341.3,18.072,7.349.684.214.854-4.571-.085-5.427-.128-5.3.128-4.7.085.342-.854,7.22-.684q0-2.307.128-9.271.086-6.965.086-9.442l-.043-8.8-.171-6.366q-3.717,0-5.6.127-1.924.087-5.213.428a15.03,15.03,0,0,0-5.3,1.281l-1.154,5.384Z" fill="#000000"/><path d="M598.741,674.454l-.47-.769,4.264.086,4.051.127,8.817-.213-.171.769a17.759,17.759,0,0,0-2.306.17q-1.368.216-3.375.556,0,2.864-.043,4.572-.3,8.718-.3,10.641h4.016q2.606.043,3.8.043l4.487-.043,6.836-.088,7.3-.043v-6.579q0-1.668-.043-2.693-.3-4.955-.3-5.81-1.965-.384-2.435-.427a23.88,23.88,0,0,0-3.247-.3l-.171-.769,4.571.086,4.4.127,4.1-.127,4.017-.086-.385.726-2.52.385-3.333.384-.427,14.868.171,7.05.171,6.409.213,5.767,3.2.427,2.52.257.385.854-7.6-.213-9.57.341.256-.98,5.682-.682q0-.854.171-3.112t.171-3.24v-11.04h-1.966q-3.418.128-6.152.255-2.776.086-6.023.086l-12.3.425.128,4.9.043,6.223.3,5.5,5.553.682.171.98-7.927-.341-9.077.213.342-.854,5.982-.684.211-17.089q0-3.931-.042-6.025-.3-10.423-.3-10.98a18.671,18.671,0,0,0-2.392-.492A23.137,23.137,0,0,0,598.741,674.454Z" fill="#000000"/><path d="M659.025,675.18q-.557-.127-5.853-.726l-.342-.769,11.858.3q4.819,0,7.508-.128,2.644-.126,6.1-.384l.47-2.478.852-.214-.556,5.384-.511,5.511-.94-.427v-3.8q0-.768-2.734-1.367-1.111-.169-2.776-.47-1.625-.213-3.289-.341l-4.7-.257q0,2.179-.257,7.348-.213,5.214-.213,8.2a66.266,66.266,0,0,0,12.558-.855l.6-2.264.811-.129q-.042.216-.341,2.008-.257,1.839-.427,3.162l-.642,4.444-.811-.428.086-1.837.042-1.623q-2.307-1.281-10.978-1.282h-.9v.769a7.423,7.423,0,0,1-.126,1.239l.232,5.6.233,5.682.042,4.358q12.36,0,14.618-2.135l.426-1.709.555-2.821,1.235-.427q-.382,1.452-.683,3.034-.256,1.58-.556,3.46l-.725,5.682-.9-.214-.128-2.947a8.814,8.814,0,0,0-1.367-.342,17.585,17.585,0,0,0-2.564-.171l-9.955-.213q-4.341,0-7.022.043-2.64.127-4.043.3l.256-.982q1.879-.169,3.332-.3,1.5-.171,2.649-.385,0-3.16.085-10.382.084-7.263.085-7.776,0-3.16-.17-8.459Q659.026,677.359,659.025,675.18Z" fill="#000000"/><path d="M726.488,651.6l-4.1-.6-4.913-.257-.342-1.324,10.425-.428,11.108-.256q19.952,0,19.952,11.963a14.547,14.547,0,0,1-1.581,6.408,20.247,20.247,0,0,1-4.571,5.854,25.992,25.992,0,0,1-7.349,4.657q8.844,1.838,13.309,6.559a15.121,15.121,0,0,1,4.465,10.659,15.665,15.665,0,0,1-2.008,7.605,17.974,17.974,0,0,1-6.111,6.238,18.614,18.614,0,0,1-4.314,1.923,14.5,14.5,0,0,1-4.614.726l-8.075-.171-12.946-.342-4.016.171-3.674.171.342-1.581,4.315-.469,4.7-.684q.513,0,.513-27.045l-.085-13.5-.172-10.852V656A21.073,21.073,0,0,0,726.488,651.6Zm8.075,55.585a38.144,38.144,0,0,0,4.7,1.431,20.233,20.233,0,0,0,4.657.576,15.4,15.4,0,0,0,6.537-1.324,10.587,10.587,0,0,0,5.811-9.784,15.659,15.659,0,0,0-3.1-9.592,19.5,19.5,0,0,0-8.268-6.344,29.075,29.075,0,0,0-11.407-2.179l-.171,2.991.513,14.868q0,3.333.171,5.169T734.563,707.181ZM733.5,677.957a25.6,25.6,0,0,0,9.4-1.5,14.483,14.483,0,0,0,5.682-3.846,13.263,13.263,0,0,0,2.692-4.913,19.068,19.068,0,0,0,.683-5,9.765,9.765,0,0,0-2.008-6.28,11.83,11.83,0,0,0-5.255-4.187,15.23,15.23,0,0,0-6.751-1.5,17.209,17.209,0,0,0-4.272.513Q733.5,652.836,733.5,677.957Z" fill="#000000"/><path d="M776.731,675.308l-2.264-.47-2.264-.384-.129-.769,3.589.086,3.632.127,4.443-.127,4.188-.086-.342.769q-1.582.128-2.585.277t-3.354.577l-.128,2.478-.128,2.905-.043,2.478-.086,2.906.129,8.5a20.006,20.006,0,0,0,.662,5.426,15,15,0,0,0,1.9,4.229,10.641,10.641,0,0,0,4.978,4.38,16.273,16.273,0,0,0,6,1.132q12.433,0,12.433-12.689v-7.562l-.214-14.185a52.124,52.124,0,0,0-6.109-.854l-.3-.769,3.675.086,3.888.127,3.632-.127,3.588-.086-.341.769-1.965.384-2.094.47a28.861,28.861,0,0,0-.171,3.418q-.087,2.692-.086,5.81l.086,11.707a14.518,14.518,0,0,1-1.156,5.939,15.259,15.259,0,0,1-3.424,4.828q-4.58,4.444-13.1,4.443A20.186,20.186,0,0,1,785.49,710a13.264,13.264,0,0,1-5.511-4.358,14.051,14.051,0,0,1-1.837-3.461,18.3,18.3,0,0,1-.9-4.059,42.354,42.354,0,0,1-.3-5.3V678.939A22.432,22.432,0,0,0,776.731,675.308Z" fill="#000000"/><path d="M846,706.8a43.021,43.021,0,0,0,2-6.109l1.108-.256c-.17.683-.3,1.211-.384,1.58q-.727,2.863-.855,3.5l-1.153,6.537q-.384,2.691-.491,3.524a14.179,14.179,0,0,0-.107,1.816l-1.068-.342a17.815,17.815,0,0,0,.213-2.436q.042-1.5.043-3.674l-8.2-.128-9.058-.213-3.5.128-3.29.085.214-.854,2.734-.257c1-.113,1.731-.192,2.2-.234a4.336,4.336,0,0,0,1.047-.193l.128-4.144.086-3.931.128-4.742v-4.913q0-4.53-.128-7.99-.086-3.461-.214-8.374-.768-.127-2.136-.3t-3.931-.427l-.128-.769,3.76.17,3.675.128,5.425-.128,5.127-.17-.342.769-3.076.342-3.461.384-.128,4.272-.213,9.912.16,7.05.053,6.836.042,4.443.128,1.709a46.916,46.916,0,0,0,8.908-.683A10.459,10.459,0,0,0,846,706.8Z" fill="#000000"/><path d="M878.168,706.8a43.284,43.284,0,0,0,2-6.109l1.108-.256c-.171.683-.3,1.211-.384,1.58q-.727,2.863-.855,3.5l-1.153,6.537q-.384,2.691-.491,3.524a14.179,14.179,0,0,0-.107,1.816l-1.068-.342a17.815,17.815,0,0,0,.213-2.436q.042-1.5.043-3.674l-8.2-.128-9.057-.213-3.5.128-3.29.085.214-.854,2.734-.257c1-.113,1.731-.192,2.2-.234a4.336,4.336,0,0,0,1.047-.193l.128-4.144.086-3.931.128-4.742v-4.913q0-4.53-.128-7.99-.087-3.461-.214-8.374-.769-.127-2.137-.3t-3.93-.427l-.128-.769,3.76.17,3.674.128,5.426-.128,5.127-.17-.342.769-3.076.342-3.461.384-.128,4.272-.214,9.912.161,7.05.053,6.836.042,4.443.128,1.709a46.9,46.9,0,0,0,8.907-.683A10.459,10.459,0,0,0,878.168,706.8Z" fill="#000000"/><path d="M891.619,675.18q-.557-.127-5.853-.726l-.342-.769,11.858.3q4.819,0,7.508-.128,2.645-.126,6.1-.384l.469-2.478.853-.214-.556,5.384-.511,5.511-.94-.427v-3.8q0-.768-2.734-1.367-1.113-.169-2.777-.47-1.624-.213-3.289-.341l-4.7-.257q0,2.179-.257,7.348-.213,5.214-.214,8.2a66.271,66.271,0,0,0,12.559-.855l.6-2.264.811-.129q-.042.216-.342,2.008-.256,1.839-.426,3.162l-.642,4.444-.812-.428.086-1.837.042-1.623q-2.307-1.281-10.977-1.282h-.9v.769a7.423,7.423,0,0,1-.126,1.239l.233,5.6.233,5.682.042,4.358q12.359,0,14.617-2.135l.427-1.709.555-2.821,1.235-.427q-.384,1.452-.683,3.034-.257,1.58-.556,3.46l-.726,5.682-.9-.214-.128-2.947a8.814,8.814,0,0,0-1.367-.342,17.589,17.589,0,0,0-2.565-.171l-9.954-.213q-4.341,0-7.022.043-2.64.127-4.043.3l.256-.982q1.88-.169,3.332-.3,1.5-.171,2.649-.385,0-3.16.085-10.382.084-7.263.085-7.776,0-3.16-.17-8.459Q891.62,677.359,891.619,675.18Z" fill="#000000"/><path d="M918.834,682.913q.726-7.434.727-11.493v-1.409l1.153.128a14.042,14.042,0,0,0,.342,3.546q1.58,0,5.042.17,8.073.343,12.9.342,3.077,0,7.306-.171,9.826-.34,12.6-.341l.427-1.282.513-2.05a2.368,2.368,0,0,1,1.068-.214c-.085.4-.2,1.01-.342,1.837q-.469,2.818-.726,5.382l-.812,5.94-1.025-.257.043-1.965.085-2.094V677.23a11.656,11.656,0,0,0-3.418-.982q-2.394-.3-4.1-.491a28.805,28.805,0,0,0-3.2-.193l-5.512-.17-.085,3.46-.043,3.631-.085,3.376-.086,5.341.3,18.072,7.349.684.214.854-4.572-.085-5.426-.128-5.3.128-4.7.085.341-.854,7.221-.684q0-2.307.128-9.271.086-6.965.086-9.442l-.043-8.8-.171-6.366q-3.717,0-5.6.127-1.923.087-5.212.428a15.03,15.03,0,0,0-5.3,1.281l-1.154,5.384Z" fill="#000000"/><g id="_9.5th_Touhou_Project_Shooting_Game_for_Windows_XP_2000_She_is_a_Traditional_Demon-2" data-name="9.5th Touhou Project Shooting Game for Windows XP/2000  She is a Traditional  Demon"><path d="M662.543,757.039a3.935,3.935,0,0,1,3.067,1.418,4.676,4.676,0,0,1,1.189,3.21,4.789,4.789,0,0,1-.8,2.713l-3.795,5.726H660.7l3.032-4.45a5.044,5.044,0,0,1-1.525.355,3.691,3.691,0,0,1-2.943-1.472,4.8,4.8,0,0,1-1.135-3.156,4.282,4.282,0,0,1,1.4-3.085A4.127,4.127,0,0,1,662.543,757.039Zm-3.085,4.485a3.134,3.134,0,0,0,.869,2.235,2.881,2.881,0,0,0,2.181.939,2.927,2.927,0,0,0,3.05-3.137,3.411,3.411,0,0,0-.8-2.306,2.838,2.838,0,0,0-2.217-.957,3.36,3.36,0,0,0-1.578.408A3.413,3.413,0,0,0,659.458,761.524Z" fill="#000000"/><path d="M668.923,767.766h1.384v2.34h-1.384Z" fill="#000000"/><path d="M679.861,757.252v1.17h-4.716l-.638,3.528a4.629,4.629,0,0,1,2.216-.567,3.883,3.883,0,0,1,2.978,1.383,4.678,4.678,0,0,1,.054,6.171,3.731,3.731,0,0,1-2.926,1.382,4.86,4.86,0,0,1-3.12-1.028,3.851,3.851,0,0,1-1.49-3.209h1.33a3.187,3.187,0,0,0,3.05,3.067,2.765,2.765,0,0,0,2.163-1.01,3.4,3.4,0,0,0,.815-2.27,3.438,3.438,0,0,0-.78-2.252,2.668,2.668,0,0,0-2.127-1.011,3.267,3.267,0,0,0-2.695,1.331l-1.011-.374,1.152-6.311Z" fill="#000000"/><path d="M683.439,761.773h-1.967V760.6h1.967v-3.351h1.277V760.6H686.9v1.17h-2.181v8.333h-1.277Z" fill="#000000"/><path d="M688.1,757.252H689.4v4.7a3.2,3.2,0,0,1,2.89-1.56,4.141,4.141,0,0,1,4.166,4.22v5.5h-1.276v-5.5a2.816,2.816,0,0,0-2.926-2.943,2.684,2.684,0,0,0-2.854,2.8v5.638H688.1Z" fill="#000000"/><path d="M705.1,758.387h-2.926v-1.135h7.075v1.135h-2.891v11.719H705.1Z" fill="#000000"/><path d="M711.5,761.737a5.043,5.043,0,0,1,3.564-1.347,4.759,4.759,0,0,1,3.138,1.277,4.216,4.216,0,0,1,1.631,3.244,5.556,5.556,0,0,1-1.348,3.759,4.579,4.579,0,0,1-3.6,1.649,4.7,4.7,0,0,1-3.334-1.33,4.933,4.933,0,0,1-1.56-3.794A4.477,4.477,0,0,1,711.5,761.737Zm.763,6.259a3.464,3.464,0,0,0,2.659,1.117,3.427,3.427,0,0,0,2.393-.974,3.711,3.711,0,0,0,1.207-2.873,3.729,3.729,0,0,0-3.6-3.635,3.6,3.6,0,0,0-2.607,1.064,3.446,3.446,0,0,0-1.082,2.571A3.81,3.81,0,0,0,712.261,768Z" fill="#000000"/><path d="M721.459,760.6h1.276v5.479a3.178,3.178,0,0,0,.744,2.163,2.847,2.847,0,0,0,4.256-.106,3.634,3.634,0,0,0,.744-2.341v-5.2h1.278v9.5h-1.171v-1.489a2.938,2.938,0,0,1-1.294,1.294,3.686,3.686,0,0,1-1.809.443,3.949,3.949,0,0,1-2.748-1.028,3.9,3.9,0,0,1-1.276-3.067Z" fill="#000000"/><path d="M731.811,757.252H733.1v4.7A3.207,3.207,0,0,1,736,760.39a4.141,4.141,0,0,1,4.166,4.22v5.5h-1.276v-5.5a2.816,2.816,0,0,0-2.926-2.943,2.685,2.685,0,0,0-2.855,2.8v5.638h-1.293Z" fill="#000000"/><path d="M743.332,761.737a5.043,5.043,0,0,1,3.564-1.347,4.759,4.759,0,0,1,3.138,1.277,4.216,4.216,0,0,1,1.631,3.244,5.556,5.556,0,0,1-1.348,3.759,4.579,4.579,0,0,1-3.6,1.649,4.7,4.7,0,0,1-3.334-1.33,4.933,4.933,0,0,1-1.56-3.794A4.477,4.477,0,0,1,743.332,761.737ZM744.1,768a3.464,3.464,0,0,0,2.659,1.117,3.427,3.427,0,0,0,2.393-.974,3.711,3.711,0,0,0,1.207-2.873,3.731,3.731,0,0,0-3.6-3.635,3.6,3.6,0,0,0-2.607,1.064,3.446,3.446,0,0,0-1.082,2.571A3.81,3.81,0,0,0,744.1,768Z" fill="#000000"/><path d="M753.293,760.6h1.276v5.479a3.178,3.178,0,0,0,.744,2.163,2.847,2.847,0,0,0,4.256-.106,3.634,3.634,0,0,0,.744-2.341v-5.2h1.278v9.5H760.42v-1.489a2.938,2.938,0,0,1-1.294,1.294,3.686,3.686,0,0,1-1.809.443,3.949,3.949,0,0,1-2.748-1.028,3.9,3.9,0,0,1-1.276-3.067Z" fill="#000000"/><path d="M768.519,757.252h3.333c3.386,0,5.071,1.205,5.088,3.635,0,.124.018.319.018.372a3.2,3.2,0,0,1-1.348,2.748,4.975,4.975,0,0,1-3.049.9H769.8v5.2h-1.276Zm1.276,6.507h2.624q3.245,0,3.245-2.872c0-1.667-1.224-2.5-3.653-2.5H769.8Z" fill="#000000"/><path d="M778.373,760.567h1.188v1.418a2.828,2.828,0,0,1,2.748-1.631v1.313a2.565,2.565,0,0,0-1.773.709,2.365,2.365,0,0,0-.9,1.861v5.869h-1.259Z" fill="#000000"/><path d="M784.6,761.737a5.04,5.04,0,0,1,3.563-1.347,4.76,4.76,0,0,1,3.139,1.277,4.216,4.216,0,0,1,1.631,3.244,5.561,5.561,0,0,1-1.348,3.759,4.58,4.58,0,0,1-3.6,1.649,4.706,4.706,0,0,1-3.334-1.33,4.936,4.936,0,0,1-1.559-3.794A4.477,4.477,0,0,1,784.6,761.737Zm.762,6.259a3.467,3.467,0,0,0,2.66,1.117,3.429,3.429,0,0,0,2.393-.974,3.71,3.71,0,0,0,1.206-2.873,3.729,3.729,0,0,0-3.6-3.635,3.6,3.6,0,0,0-2.607,1.064,3.445,3.445,0,0,0-1.081,2.571A3.812,3.812,0,0,0,785.357,768Z" fill="#000000"/><path d="M794.608,760.6H795.9v9.362a3.945,3.945,0,0,1-.548,2.145,2.918,2.918,0,0,1-2.661,1.312v-1.241a1.648,1.648,0,0,0,1.561-.762,3.817,3.817,0,0,0,.354-1.845Zm1.294-1.153h-1.294v-2.2H795.9Z" fill="#000000"/><path d="M799.146,761.648a4.712,4.712,0,0,1,3.316-1.294,4.77,4.77,0,0,1,3.316,1.277,5.039,5.039,0,0,1,1.6,3.919v.248h-8.511a2.943,2.943,0,0,0,1.241,2.482,3.729,3.729,0,0,0,2.323.8,3.835,3.835,0,0,0,1.986-.585,2.883,2.883,0,0,0,1.383-1.508h1.311a4.889,4.889,0,0,1-2.056,2.554,5.058,5.058,0,0,1-2.7.78,4.445,4.445,0,0,1-3.421-1.489,4.989,4.989,0,0,1-1.33-3.528A4.734,4.734,0,0,1,799.146,761.648Zm5.709.834a3.545,3.545,0,0,0-2.357-.886,3.406,3.406,0,0,0-2.784,1.294,3.345,3.345,0,0,0-.851,1.756h7.27A3.6,3.6,0,0,0,804.855,762.482Z" fill="#000000"/><path d="M810.225,761.667a4.668,4.668,0,0,1,3.28-1.313,5.71,5.71,0,0,1,2.8.692,4.56,4.56,0,0,1,2.109,2.411h-1.453a3.722,3.722,0,0,0-3.458-1.826,3.381,3.381,0,0,0-2.607,1.152,3.87,3.87,0,0,0,.107,5.213,3.54,3.54,0,0,0,2.641,1.082A3.749,3.749,0,0,0,817,767.322h1.418a5.152,5.152,0,0,1-8.191,1.615,4.637,4.637,0,0,1-1.579-3.547l.037-.053A4.79,4.79,0,0,1,810.225,761.667Z" fill="#000000"/><path d="M821.125,761.773h-1.968V760.6h1.968v-3.351H822.4V760.6h2.182v1.17H822.4v8.333h-1.276Z" fill="#000000"/><path d="M660.256,791.789a2.7,2.7,0,0,0,1.915.709,2.441,2.441,0,0,0,1.737-.727,2.391,2.391,0,0,0,.745-1.738,2.544,2.544,0,0,0-.39-1.418,3.646,3.646,0,0,0-2.021-1.206,9.869,9.869,0,0,1-2.482-1.046,3.308,3.308,0,0,1-1.206-2.784,2.778,2.778,0,0,1,1.082-2.269,3.685,3.685,0,0,1,2.428-.851,3.438,3.438,0,0,1,2.589,1.1,3.115,3.115,0,0,1,.94,2.18v.177h-1.259a2.437,2.437,0,0,0-.8-1.631,2.663,2.663,0,0,0-.78-.5,3.435,3.435,0,0,0-.887-.089,2.067,2.067,0,0,0-1.418.585,1.808,1.808,0,0,0-.639,1.365,2.139,2.139,0,0,0,1.313,2.128c.9.3,1.791.585,2.659.868a3.556,3.556,0,0,1,2.057,2.5,8.2,8.2,0,0,1,.071.817,3.8,3.8,0,0,1-.939,2.517,3.637,3.637,0,0,1-2.873,1.259,4.059,4.059,0,0,1-2.837-1.046,3.617,3.617,0,0,1-1.17-2.766h1.4A2.423,2.423,0,0,0,660.256,791.789Z" fill="#000000"/><path d="M667.292,780.672h1.294v4.7a3.206,3.206,0,0,1,2.891-1.56,4.142,4.142,0,0,1,4.166,4.22v5.5h-1.277v-5.5a2.816,2.816,0,0,0-2.926-2.943,2.684,2.684,0,0,0-2.854,2.8v5.638h-1.294Z" fill="#000000"/><path d="M678.813,785.157a5.045,5.045,0,0,1,3.564-1.347,4.762,4.762,0,0,1,3.139,1.277,4.213,4.213,0,0,1,1.63,3.244,5.56,5.56,0,0,1-1.347,3.759,4.583,4.583,0,0,1-3.6,1.649,4.706,4.706,0,0,1-3.334-1.33,4.932,4.932,0,0,1-1.559-3.794A4.48,4.48,0,0,1,678.813,785.157Zm.763,6.259a3.465,3.465,0,0,0,2.659,1.117,3.429,3.429,0,0,0,2.394-.974,3.71,3.71,0,0,0,1.206-2.873,3.729,3.729,0,0,0-3.6-3.635,3.6,3.6,0,0,0-2.606,1.064,3.441,3.441,0,0,0-1.081,2.571A3.814,3.814,0,0,0,679.576,791.416Z" fill="#000000"/><path d="M689.944,785.157a5.043,5.043,0,0,1,3.564-1.347,4.759,4.759,0,0,1,3.138,1.277,4.211,4.211,0,0,1,1.631,3.244,5.56,5.56,0,0,1-1.347,3.759,4.583,4.583,0,0,1-3.6,1.649,4.706,4.706,0,0,1-3.334-1.33,4.932,4.932,0,0,1-1.559-3.794A4.48,4.48,0,0,1,689.944,785.157Zm.763,6.259a3.579,3.579,0,0,0,5.053.143,3.71,3.71,0,0,0,1.206-2.873,3.729,3.729,0,0,0-3.6-3.635,3.6,3.6,0,0,0-2.606,1.064,3.441,3.441,0,0,0-1.081,2.571A3.814,3.814,0,0,0,690.707,791.416Z" fill="#000000"/><path d="M701.005,785.193h-1.968v-1.171h1.968v-3.35h1.276v3.35h2.182v1.171h-2.182v8.333h-1.276Z" fill="#000000"/><path d="M705.648,780.672h1.277v2.2h-1.277Zm0,3.35h1.277v9.5h-1.277Z" fill="#000000"/><path d="M708.963,784.022h1.205v1.419a3.545,3.545,0,0,1,3-1.631A4.012,4.012,0,0,1,716,784.927a4.223,4.223,0,0,1,1.294,3.227v5.372h-1.241v-5.372a3.012,3.012,0,0,0-.816-2.2,2.794,2.794,0,0,0-2.145-.868,2.75,2.75,0,0,0-2.855,2.907v5.532h-1.276Z" fill="#000000"/><path d="M720.5,785.087a4.474,4.474,0,0,1,3.156-1.313,5.084,5.084,0,0,1,2.27.515,3.518,3.518,0,0,1,1.631,1.613V783.97l1.206.017v8.724a4.181,4.181,0,0,1-1.313,3.227,4.644,4.644,0,0,1-3.315,1.223,5.231,5.231,0,0,1-3.015-.869,4.126,4.126,0,0,1-1.79-2.553h1.24a3.69,3.69,0,0,0,3.493,2.235,3.612,3.612,0,0,0,2.43-.834,3.058,3.058,0,0,0,1.064-2.465v-1.046a3.848,3.848,0,0,1-3.67,2.11,5.054,5.054,0,0,1-3.387-8.652Zm.8,6.276a3.3,3.3,0,0,0,2.553,1.135,3.562,3.562,0,0,0,2.358-.869,3.655,3.655,0,0,0,1.348-3.014,3.315,3.315,0,0,0-1.135-2.482,3.737,3.737,0,0,0-2.678-1.082,3.259,3.259,0,0,0-2.411.94,3.467,3.467,0,0,0-1.081,2.518A4.1,4.1,0,0,0,721.3,791.363Z" fill="#000000"/><path d="M737.306,782.179a6.457,6.457,0,0,1,4.485-1.72,7.377,7.377,0,0,1,3.564.887,5.75,5.75,0,0,1,2.571,2.748h-1.472a5.557,5.557,0,0,0-8.617-.674,5.336,5.336,0,0,0-1.436,3.687,5.088,5.088,0,0,0,1.809,3.972,5.322,5.322,0,0,0,3.616,1.454,5.992,5.992,0,0,0,2.98-.815,4.547,4.547,0,0,0,2.357-2.961h-7.092v-1.17h8.635a6.67,6.67,0,0,1-6.844,6.152,6.483,6.483,0,0,1-4.68-1.932,6.643,6.643,0,0,1,.124-9.628Z" fill="#000000"/><path d="M751.573,785.122a4.9,4.9,0,0,1,3.441-1.348,3.94,3.94,0,0,1,3.705,2.092v-1.844h1.223v9.5h-1.223v-1.808a3.686,3.686,0,0,1-1.631,1.525,4.709,4.709,0,0,1-2.181.5,4.969,4.969,0,0,1-3.334-8.617Zm.71,6.188a3.33,3.33,0,0,0,2.624,1.188,3.793,3.793,0,0,0,2.677-1.063,3.469,3.469,0,0,0,1.135-2.607,3.767,3.767,0,0,0-1.046-2.678,3.448,3.448,0,0,0-2.589-1.1,3.714,3.714,0,0,0-2.748,1.171,3.275,3.275,0,0,0-1.064,2.322A4.03,4.03,0,0,0,752.283,791.31Z" fill="#000000"/><path d="M763.2,784.022V785.3a2.414,2.414,0,0,1,1.046-1.1,2.816,2.816,0,0,1,1.472-.39,3.675,3.675,0,0,0,6.312.036,3.975,3.975,0,0,1,2.766,1.046,3.544,3.544,0,0,1,1.171,2.695v5.939h-1.241V787.8a2.556,2.556,0,0,0-2.661-2.713,2.294,2.294,0,0,0-2.411,2.393v6.046h-1.312v-5.833a2.485,2.485,0,0,0-.78-1.9,2.637,2.637,0,0,0-1.915-.709,2.353,2.353,0,0,0-1.649.62,2.625,2.625,0,0,0-.727,1.95v5.869H762v-9.5Z" fill="#000000"/><path d="M779.224,785.068a4.708,4.708,0,0,1,3.315-1.294,4.77,4.77,0,0,1,3.316,1.277,5.039,5.039,0,0,1,1.6,3.919v.248H778.94a2.941,2.941,0,0,0,1.242,2.482,3.724,3.724,0,0,0,2.322.8,3.835,3.835,0,0,0,1.986-.585,2.883,2.883,0,0,0,1.383-1.508h1.312a4.895,4.895,0,0,1-2.057,2.554,5.055,5.055,0,0,1-2.7.78,4.445,4.445,0,0,1-3.422-1.489,4.989,4.989,0,0,1-1.329-3.528A4.73,4.73,0,0,1,779.224,785.068Zm5.709.834a3.548,3.548,0,0,0-2.358-.886,3.406,3.406,0,0,0-2.784,1.294,3.346,3.346,0,0,0-.851,1.755h7.27A3.6,3.6,0,0,0,784.933,785.9Z" fill="#000000"/><path d="M794.432,785.211h-1.453v-1.152h1.453c0-2.235,1.206-3.352,3.635-3.352v1.17c-1.6,0-2.394.674-2.394,2.039l.036.143h2.358v1.152h-2.358v8.315h-1.277Z" fill="#000000"/><path d="M800.228,785.157a5.04,5.04,0,0,1,3.563-1.347,4.76,4.76,0,0,1,3.139,1.277,4.214,4.214,0,0,1,1.631,3.244,5.561,5.561,0,0,1-1.348,3.759,4.583,4.583,0,0,1-3.6,1.649,4.706,4.706,0,0,1-3.334-1.33,4.932,4.932,0,0,1-1.559-3.794A4.477,4.477,0,0,1,800.228,785.157Zm.762,6.259a3.465,3.465,0,0,0,2.659,1.117,3.429,3.429,0,0,0,2.394-.974,3.71,3.71,0,0,0,1.206-2.873,3.729,3.729,0,0,0-3.6-3.635,3.6,3.6,0,0,0-2.606,1.064,3.441,3.441,0,0,0-1.081,2.571A3.814,3.814,0,0,0,800.99,791.416Z" fill="#000000"/><path d="M810.207,783.987H811.4v1.418a2.828,2.828,0,0,1,2.748-1.631v1.313a2.565,2.565,0,0,0-1.773.709,2.365,2.365,0,0,0-.9,1.861v5.869h-1.259Z" fill="#000000"/><path d="M833.892,780.672h1.294l-3.618,12.854H829.9l-2.8-10.514-2.82,10.514h-1.649l-3.616-12.854h1.294l3.138,11.187,3.049-11.187h1.224l3.032,11.187Z" fill="#000000"/><path d="M836.333,780.672h1.276v2.2h-1.276Zm0,3.35h1.276v9.5h-1.276Z" fill="#000000"/><path d="M839.647,784.022h1.206v1.419a3.545,3.545,0,0,1,3-1.631,4.013,4.013,0,0,1,2.837,1.117,4.222,4.222,0,0,1,1.293,3.227v5.372h-1.241v-5.372a3.011,3.011,0,0,0-.815-2.2,2.794,2.794,0,0,0-2.146-.868,2.75,2.75,0,0,0-2.854,2.907v5.532h-1.277Z" fill="#000000"/><path d="M851.239,785.016a4.794,4.794,0,0,1,3.228-1.242,4.39,4.39,0,0,1,3.918,1.915v-5.017h1.259v12.854h-1.206v-1.808a4.408,4.408,0,0,1-3.9,2.021,4.467,4.467,0,0,1-3.315-1.489,5.46,5.46,0,0,1-1.542-3.919A4.2,4.2,0,0,1,851.239,785.016Zm-.3,3.493v.23a3.668,3.668,0,0,0,1.082,2.607,3.5,3.5,0,0,0,2.624,1.152,3.6,3.6,0,0,0,2.73-1.135,3.841,3.841,0,0,0,1.064-2.748,3.746,3.746,0,0,0-3.794-3.564,3.728,3.728,0,0,0-2.127.674,3.646,3.646,0,0,0-1.543,2.5A2.393,2.393,0,0,0,850.938,788.509Z" fill="#000000"/><path d="M862.867,785.157a5.043,5.043,0,0,1,3.564-1.347,4.759,4.759,0,0,1,3.138,1.277,4.214,4.214,0,0,1,1.631,3.244,5.56,5.56,0,0,1-1.347,3.759,4.584,4.584,0,0,1-3.6,1.649,4.7,4.7,0,0,1-3.334-1.33,4.933,4.933,0,0,1-1.56-3.794A4.477,4.477,0,0,1,862.867,785.157Zm.763,6.259a3.579,3.579,0,0,0,5.053.143,3.714,3.714,0,0,0,1.206-2.873,3.729,3.729,0,0,0-3.6-3.635,3.6,3.6,0,0,0-2.606,1.064,3.442,3.442,0,0,0-1.082,2.571A3.815,3.815,0,0,0,863.63,791.416Z" fill="#000000"/><path d="M876.888,793.526h-1.436l-3.564-9.5h1.33l2.961,7.98,2.18-6.809h1.046l2.182,6.773,3-7.944h1.33l-3.564,9.5h-1.472l-2-6.312Z" fill="#000000"/><path d="M886.564,786.4a2.363,2.363,0,0,1,.905-1.95,2.646,2.646,0,0,1,1.719-.638,2.827,2.827,0,0,1,1.809.621,2.352,2.352,0,0,1,.9,1.932h-1.295c0-.869-.478-1.312-1.418-1.312a1.484,1.484,0,0,0-.9.284,1.191,1.191,0,0,0-.5,1.028l.106.479c.088.372.514.691,1.259.975a10.95,10.95,0,0,1,1.951.833,2.339,2.339,0,0,1,1.01,2.022v.266c-.017.124-.036.23-.036.284a2.614,2.614,0,0,1-1.116,1.967,2.993,2.993,0,0,1-1.809.55,2.77,2.77,0,0,1-2.11-.869,3,3,0,0,1-.833-2.128l1.276-.035a1.792,1.792,0,0,0,1.738,1.862,1.616,1.616,0,0,0,1.613-1.649c0-.869-.514-1.454-1.542-1.737a5.972,5.972,0,0,1-1.667-.71,2.244,2.244,0,0,1-1.064-1.9Z" fill="#000000"/><path d="M901.259,786.948l-4.078-6.276h1.49l3.368,5.159,3.352-5.159h1.471l-4.078,6.276,4.362,6.578h-1.472l-3.635-5.5-3.6,5.5h-1.507Z" fill="#000000"/><path d="M908.473,780.672h3.333c3.386,0,5.071,1.2,5.089,3.635,0,.124.017.319.017.372a3.2,3.2,0,0,1-1.348,2.748,4.975,4.975,0,0,1-3.049.9h-2.766v5.195h-1.276Zm1.276,6.507h2.624q3.244,0,3.245-2.872c0-1.667-1.223-2.5-3.653-2.5h-2.216Z" fill="#000000"/><path d="M922.9,780.672h1.17l-5.035,15.053h-1.1Z" fill="#000000"/><path d="M926.569,781.522a4.042,4.042,0,0,1,2.855-1.063,3.715,3.715,0,0,1,2.748,1.17,3.763,3.763,0,0,1,1.152,2.748,5.061,5.061,0,0,1-1.79,3.617l-4.557,4.345h6.347v1.187h-8.1v-1.152l5.674-5.567a3.353,3.353,0,0,0,1.187-2.43,2.609,2.609,0,0,0-.744-1.9,2.4,2.4,0,0,0-1.791-.762,1.006,1.006,0,0,0-.266-.018,2.55,2.55,0,0,0-1.791.692,3.2,3.2,0,0,0-.922,2.446h-1.276A4.265,4.265,0,0,1,926.569,781.522Z" fill="#000000"/><path d="M935.786,781.789a3.9,3.9,0,0,1,3.032-1.33,3.953,3.953,0,0,1,3.1,1.348,4.579,4.579,0,0,1,1.188,3.209v4.415a4.2,4.2,0,0,1-4.291,4.343,3.917,3.917,0,0,1-3.014-1.294,4.283,4.283,0,0,1-1.188-3.084v-4.452A4.577,4.577,0,0,1,935.786,781.789Zm.089,7.251a3.856,3.856,0,0,0,.709,2.412,2.6,2.6,0,0,0,2.2,1.046,3.1,3.1,0,0,0,2.058-.691,2.893,2.893,0,0,0,.992-2.341v-4.255c0-2.252-1.117-3.493-3.014-3.493-1.968,0-2.943,1.187-2.943,3.582Z" fill="#000000"/><path d="M945.216,781.789a3.9,3.9,0,0,1,3.032-1.33,3.953,3.953,0,0,1,3.1,1.348,4.583,4.583,0,0,1,1.188,3.209v4.415a4.159,4.159,0,0,1-1.348,3.226,4.2,4.2,0,0,1-2.943,1.117,3.919,3.919,0,0,1-3.015-1.294,4.286,4.286,0,0,1-1.187-3.084v-4.452A4.577,4.577,0,0,1,945.216,781.789Zm.089,7.251a3.856,3.856,0,0,0,.709,2.412,2.6,2.6,0,0,0,2.2,1.046,3.105,3.105,0,0,0,2.058-.691,2.893,2.893,0,0,0,.992-2.341v-4.255c0-2.252-1.117-3.493-3.014-3.493-1.969,0-2.943,1.187-2.943,3.582Z" fill="#000000"/><path d="M954.646,781.789a3.9,3.9,0,0,1,3.032-1.33,3.951,3.951,0,0,1,3.1,1.348,4.58,4.58,0,0,1,1.189,3.209v4.415a4.206,4.206,0,0,1-4.291,4.343,3.919,3.919,0,0,1-3.015-1.294,4.282,4.282,0,0,1-1.187-3.084v-4.452A4.572,4.572,0,0,1,954.646,781.789Zm.088,7.251a3.862,3.862,0,0,0,.709,2.412,2.6,2.6,0,0,0,2.2,1.046,3.1,3.1,0,0,0,2.057-.691,2.893,2.893,0,0,0,.992-2.341v-4.255c0-2.252-1.117-3.493-3.013-3.493-1.969,0-2.944,1.187-2.944,3.582Z" fill="#000000"/><path d="M660.256,838.629a2.7,2.7,0,0,0,1.915.709,2.441,2.441,0,0,0,1.737-.727,2.391,2.391,0,0,0,.745-1.738,2.544,2.544,0,0,0-.39-1.418,3.646,3.646,0,0,0-2.021-1.206,9.869,9.869,0,0,1-2.482-1.046,3.308,3.308,0,0,1-1.206-2.784,2.779,2.779,0,0,1,1.082-2.27,3.69,3.69,0,0,1,2.428-.85,3.441,3.441,0,0,1,2.589,1.1,3.119,3.119,0,0,1,.94,2.181v.177h-1.259a2.437,2.437,0,0,0-.8-1.631,2.663,2.663,0,0,0-.78-.5,3.435,3.435,0,0,0-.887-.089,2.062,2.062,0,0,0-1.418.585,1.808,1.808,0,0,0-.639,1.365,2.139,2.139,0,0,0,1.313,2.128c.9.3,1.791.585,2.659.868a3.556,3.556,0,0,1,2.057,2.5,8.2,8.2,0,0,1,.071.817,3.8,3.8,0,0,1-.939,2.517,3.637,3.637,0,0,1-2.873,1.259,4.059,4.059,0,0,1-2.837-1.046,3.617,3.617,0,0,1-1.17-2.766h1.4A2.425,2.425,0,0,0,660.256,838.629Z" fill="#000000"/><path d="M667.292,827.512h1.294v4.7a3.206,3.206,0,0,1,2.891-1.561,4.144,4.144,0,0,1,4.166,4.221v5.5h-1.277v-5.5a2.816,2.816,0,0,0-2.926-2.943,2.684,2.684,0,0,0-2.854,2.8v5.638h-1.294Z" fill="#000000"/><path d="M678.849,831.908a4.708,4.708,0,0,1,3.315-1.294,4.77,4.77,0,0,1,3.316,1.277,5.039,5.039,0,0,1,1.6,3.919v.248h-8.511a2.941,2.941,0,0,0,1.242,2.482,3.724,3.724,0,0,0,2.322.8,3.835,3.835,0,0,0,1.986-.585,2.883,2.883,0,0,0,1.383-1.508h1.312a4.895,4.895,0,0,1-2.057,2.554,5.064,5.064,0,0,1-2.7.78,4.445,4.445,0,0,1-3.422-1.489,4.989,4.989,0,0,1-1.329-3.528A4.73,4.73,0,0,1,678.849,831.908Zm5.709.834a3.549,3.549,0,0,0-2.358-.887,3.408,3.408,0,0,0-2.784,1.294,3.349,3.349,0,0,0-.851,1.756h7.27A3.6,3.6,0,0,0,684.558,832.742Z" fill="#000000"/><path d="M693.384,827.512h1.276v2.2h-1.276Zm0,3.35h1.276v9.5h-1.276Z" fill="#000000"/><path d="M696.272,833.238a2.363,2.363,0,0,1,.9-1.95,2.647,2.647,0,0,1,1.719-.639,2.828,2.828,0,0,1,1.809.622,2.352,2.352,0,0,1,.9,1.932h-1.3c0-.869-.478-1.312-1.418-1.312a1.478,1.478,0,0,0-.9.284,1.191,1.191,0,0,0-.5,1.028l.107.479c.087.372.513.691,1.258.975a10.872,10.872,0,0,1,1.951.833,2.339,2.339,0,0,1,1.01,2.022v.265c-.017.124-.036.231-.036.285a2.616,2.616,0,0,1-1.116,1.967,3,3,0,0,1-1.809.55,2.77,2.77,0,0,1-2.11-.869,3,3,0,0,1-.833-2.128l1.276-.035a1.792,1.792,0,0,0,1.738,1.862,1.616,1.616,0,0,0,1.613-1.649c0-.869-.514-1.454-1.542-1.738a5.914,5.914,0,0,1-1.667-.71,2.243,2.243,0,0,1-1.064-1.9Z" fill="#000000"/><path d="M709.247,831.962a4.9,4.9,0,0,1,3.441-1.348,3.94,3.94,0,0,1,3.705,2.092v-1.844h1.223v9.5h-1.223v-1.808a3.686,3.686,0,0,1-1.631,1.525,4.712,4.712,0,0,1-2.181.5,4.968,4.968,0,0,1-3.334-8.617Zm.71,6.187a3.327,3.327,0,0,0,2.624,1.189,3.8,3.8,0,0,0,2.677-1.064,3.465,3.465,0,0,0,1.135-2.606,3.767,3.767,0,0,0-1.046-2.678,3.448,3.448,0,0,0-2.589-1.1,3.711,3.711,0,0,0-2.748,1.171,3.275,3.275,0,0,0-1.064,2.322A4.025,4.025,0,0,0,709.957,838.149Z" fill="#000000"/><path d="M726.493,828.646h-2.926v-1.134h7.076v1.134h-2.891v11.72h-1.259Z" fill="#000000"/><path d="M731.74,830.827h1.188v1.418a2.828,2.828,0,0,1,2.748-1.631v1.313a2.569,2.569,0,0,0-1.773.709,2.363,2.363,0,0,0-.9,1.861v5.869H731.74Z" fill="#000000"/><path d="M738.014,831.962a4.9,4.9,0,0,1,3.44-1.348,3.938,3.938,0,0,1,3.705,2.092v-1.844h1.224v9.5h-1.224v-1.808a3.68,3.68,0,0,1-1.631,1.525,4.7,4.7,0,0,1-2.18.5,4.968,4.968,0,0,1-3.334-8.617Zm.71,6.187a3.327,3.327,0,0,0,2.624,1.189,3.791,3.791,0,0,0,2.676-1.064,3.465,3.465,0,0,0,1.135-2.606,3.763,3.763,0,0,0-1.046-2.678,3.445,3.445,0,0,0-2.589-1.1,3.714,3.714,0,0,0-2.748,1.171,3.274,3.274,0,0,0-1.063,2.322A4.025,4.025,0,0,0,738.724,838.149Z" fill="#000000"/><path d="M749.659,831.855a4.793,4.793,0,0,1,3.228-1.241,4.39,4.39,0,0,1,3.918,1.915v-5.017h1.258v12.854h-1.205v-1.808a4.408,4.408,0,0,1-3.9,2.021,4.467,4.467,0,0,1-3.315-1.489,5.46,5.46,0,0,1-1.542-3.919A4.206,4.206,0,0,1,749.659,831.855Zm-.3,3.494v.23a3.671,3.671,0,0,0,1.081,2.607,3.5,3.5,0,0,0,2.624,1.152,3.6,3.6,0,0,0,2.731-1.135,3.841,3.841,0,0,0,1.064-2.748,3.745,3.745,0,0,0-3.795-3.564,3.733,3.733,0,0,0-2.126.673,3.651,3.651,0,0,0-1.543,2.5A2.38,2.38,0,0,0,749.358,835.349Z" fill="#000000"/><path d="M760.117,827.512h1.277v2.2h-1.277Zm0,3.35h1.277v9.5h-1.277Z" fill="#000000"/><path d="M764.53,832.033h-1.968v-1.171h1.968v-3.35h1.277v3.35h2.181v1.171h-2.181v8.333H764.53Z" fill="#000000"/><path d="M769.175,827.512h1.276v2.2h-1.276Zm0,3.35h1.276v9.5h-1.276Z" fill="#000000"/><path d="M773.659,832a5.044,5.044,0,0,1,3.564-1.348,4.761,4.761,0,0,1,3.138,1.278,4.214,4.214,0,0,1,1.631,3.244,5.56,5.56,0,0,1-1.347,3.759,4.584,4.584,0,0,1-3.6,1.649,4.7,4.7,0,0,1-3.334-1.33,4.934,4.934,0,0,1-1.56-3.794A4.477,4.477,0,0,1,773.659,832Zm.763,6.259a3.464,3.464,0,0,0,2.659,1.117,3.426,3.426,0,0,0,2.394-.975,3.711,3.711,0,0,0,1.206-2.873,3.729,3.729,0,0,0-3.6-3.634,3.6,3.6,0,0,0-2.606,1.064,3.441,3.441,0,0,0-1.081,2.57A3.812,3.812,0,0,0,774.422,838.256Z" fill="#000000"/><path d="M783.62,830.862h1.205v1.419a3.546,3.546,0,0,1,3-1.632,4.008,4.008,0,0,1,2.837,1.118,4.223,4.223,0,0,1,1.294,3.227v5.372h-1.241v-5.372a3.012,3.012,0,0,0-.816-2.2,2.791,2.791,0,0,0-2.145-.868,2.75,2.75,0,0,0-2.855,2.907v5.532H783.62Z" fill="#000000"/><path d="M795.212,831.962a4.9,4.9,0,0,1,3.44-1.348,3.938,3.938,0,0,1,3.7,2.092v-1.844h1.224v9.5h-1.224v-1.808a3.683,3.683,0,0,1-1.63,1.525,4.712,4.712,0,0,1-2.181.5,4.968,4.968,0,0,1-3.334-8.617Zm.71,6.187a3.327,3.327,0,0,0,2.624,1.189,3.8,3.8,0,0,0,2.677-1.064,3.467,3.467,0,0,0,1.134-2.606,3.766,3.766,0,0,0-1.045-2.678,3.448,3.448,0,0,0-2.589-1.1,3.711,3.711,0,0,0-2.748,1.171,3.275,3.275,0,0,0-1.064,2.322A4.025,4.025,0,0,0,795.922,838.149Z" fill="#000000"/><path d="M805.634,827.512h1.276v12.854h-1.276Z" fill="#000000"/><path d="M818.5,827.512h3.457a7.478,7.478,0,0,1,5.461,1.95,6.126,6.126,0,0,1,1.826,4.592,5.911,5.911,0,0,1-2.057,4.645,6.628,6.628,0,0,1-4.556,1.667H818.5Zm1.276,11.667h1.951a7.358,7.358,0,0,0,4.343-1.171,4.562,4.562,0,0,0,1.9-3.954,5.123,5.123,0,0,0-1.383-3.653,5.99,5.99,0,0,0-4.628-1.755h-2.181Z" fill="#000000"/><path d="M832.168,831.908a4.708,4.708,0,0,1,3.315-1.294,4.773,4.773,0,0,1,3.317,1.277,5.042,5.042,0,0,1,1.6,3.919v.248h-8.511a2.94,2.94,0,0,0,1.241,2.482,3.726,3.726,0,0,0,2.322.8,3.841,3.841,0,0,0,1.987-.585,2.881,2.881,0,0,0,1.382-1.508h1.312a4.89,4.89,0,0,1-2.057,2.554,5.064,5.064,0,0,1-2.7.78,4.447,4.447,0,0,1-3.422-1.489,4.989,4.989,0,0,1-1.329-3.528A4.734,4.734,0,0,1,832.168,831.908Zm5.709.834a3.548,3.548,0,0,0-2.357-.887,3.409,3.409,0,0,0-2.785,1.294,3.354,3.354,0,0,0-.85,1.756h7.269A3.6,3.6,0,0,0,837.877,832.742Z" fill="#000000"/><path d="M843.246,830.862v1.278a2.409,2.409,0,0,1,1.046-1.1,2.805,2.805,0,0,1,1.472-.391,3.674,3.674,0,0,0,6.312.037,3.981,3.981,0,0,1,2.766,1.045,3.547,3.547,0,0,1,1.171,2.7v5.939h-1.242V834.64a2.555,2.555,0,0,0-2.66-2.713,2.294,2.294,0,0,0-2.411,2.393v6.046h-1.312v-5.833a2.485,2.485,0,0,0-.78-1.9,2.637,2.637,0,0,0-1.915-.709,2.353,2.353,0,0,0-1.649.62,2.619,2.619,0,0,0-.727,1.95v5.869h-1.276v-9.5Z" fill="#000000"/><path d="M859.233,832a5.044,5.044,0,0,1,3.564-1.348,4.765,4.765,0,0,1,3.139,1.278,4.213,4.213,0,0,1,1.63,3.244,5.56,5.56,0,0,1-1.347,3.759,4.583,4.583,0,0,1-3.6,1.649,4.706,4.706,0,0,1-3.334-1.33,4.934,4.934,0,0,1-1.559-3.794A4.48,4.48,0,0,1,859.233,832Zm.763,6.259a3.465,3.465,0,0,0,2.659,1.117,3.426,3.426,0,0,0,2.394-.975,3.707,3.707,0,0,0,1.206-2.873,3.729,3.729,0,0,0-3.6-3.634,3.6,3.6,0,0,0-2.606,1.064,3.441,3.441,0,0,0-1.081,2.57A3.816,3.816,0,0,0,860,838.256Z" fill="#000000"/><path d="M869.2,830.862h1.2v1.419a3.546,3.546,0,0,1,3-1.632,4.007,4.007,0,0,1,2.837,1.118,4.219,4.219,0,0,1,1.294,3.227v5.372h-1.241v-5.372a3.015,3.015,0,0,0-.815-2.2,2.794,2.794,0,0,0-2.146-.868,2.75,2.75,0,0,0-2.854,2.907v5.532H869.2Z" fill="#000000"/><path d="M764.367,852.04v2.119h-2.08v-1.953q0-2.655,2.08-3.144V850a1.106,1.106,0,0,0-.928.82,4.153,4.153,0,0,0-.136,1.221Zm3.3,0v2.119h-2.08v-1.953q0-2.655,2.08-3.144V850a1.1,1.1,0,0,0-.928.82,4.119,4.119,0,0,0-.136,1.221Z" fill="#000000"/><path d="M771.692,862.049a2.7,2.7,0,0,0,1.915.709,2.441,2.441,0,0,0,1.738-.727,2.391,2.391,0,0,0,.745-1.738,2.544,2.544,0,0,0-.39-1.418,3.65,3.65,0,0,0-2.021-1.206,9.9,9.9,0,0,1-2.483-1.046,3.308,3.308,0,0,1-1.206-2.784,2.782,2.782,0,0,1,1.082-2.27,3.694,3.694,0,0,1,2.429-.85,3.444,3.444,0,0,1,2.589,1.1,3.118,3.118,0,0,1,.939,2.181v.177h-1.258a2.437,2.437,0,0,0-.8-1.631,2.666,2.666,0,0,0-.781-.5,3.432,3.432,0,0,0-.886-.089,2.06,2.06,0,0,0-1.418.585,1.808,1.808,0,0,0-.639,1.365,2.139,2.139,0,0,0,1.313,2.128c.9.3,1.791.585,2.659.868a3.555,3.555,0,0,1,2.056,2.5,7.876,7.876,0,0,1,.072.817,3.8,3.8,0,0,1-.94,2.517A3.635,3.635,0,0,1,773.536,864a4.061,4.061,0,0,1-2.837-1.046,3.621,3.621,0,0,1-1.17-2.766h1.4A2.428,2.428,0,0,0,771.692,862.049Z" fill="#000000"/><path d="M778.729,850.932h1.294v4.7a3.208,3.208,0,0,1,2.891-1.561,4.142,4.142,0,0,1,4.166,4.221v5.5H785.8v-5.5a2.816,2.816,0,0,0-2.926-2.943,2.684,2.684,0,0,0-2.855,2.8v5.639h-1.294Z" fill="#000000"/><path d="M790.3,855.382a4.9,4.9,0,0,1,3.44-1.348,3.938,3.938,0,0,1,3.7,2.092v-1.844h1.224v9.5h-1.224v-1.808a3.686,3.686,0,0,1-1.631,1.525,4.7,4.7,0,0,1-2.18.5,4.968,4.968,0,0,1-3.334-8.617Zm.71,6.187a3.327,3.327,0,0,0,2.624,1.189,3.791,3.791,0,0,0,2.676-1.064,3.465,3.465,0,0,0,1.135-2.606,3.763,3.763,0,0,0-1.046-2.678,3.445,3.445,0,0,0-2.589-1.1,3.717,3.717,0,0,0-2.748,1.17A3.277,3.277,0,0,0,790,858.8,4.025,4.025,0,0,0,791.014,861.569Z" fill="#000000"/><path d="M801.931,854.282v1.278a2.4,2.4,0,0,1,1.046-1.1,2.8,2.8,0,0,1,1.471-.391,3.675,3.675,0,0,0,6.313.036,3.975,3.975,0,0,1,2.765,1.046,3.544,3.544,0,0,1,1.171,2.7v5.939h-1.241V858.06a2.555,2.555,0,0,0-2.66-2.713,2.294,2.294,0,0,0-2.411,2.393v6.046h-1.313v-5.833a2.484,2.484,0,0,0-.779-1.9,2.638,2.638,0,0,0-1.915-.709,2.353,2.353,0,0,0-1.649.62,2.619,2.619,0,0,0-.727,1.95v5.869h-1.276v-9.5Z" fill="#000000"/><path d="M817.954,855.328a4.71,4.71,0,0,1,3.316-1.294,4.77,4.77,0,0,1,3.316,1.277,5.042,5.042,0,0,1,1.6,3.918v.249h-8.511a2.94,2.94,0,0,0,1.241,2.482,3.728,3.728,0,0,0,2.322.8,3.85,3.85,0,0,0,1.987-.585,2.883,2.883,0,0,0,1.383-1.508h1.311a4.89,4.89,0,0,1-2.057,2.554,5.064,5.064,0,0,1-2.695.78,4.448,4.448,0,0,1-3.422-1.489,4.989,4.989,0,0,1-1.329-3.529A4.733,4.733,0,0,1,817.954,855.328Zm5.709.834a3.546,3.546,0,0,0-2.357-.887,3.409,3.409,0,0,0-2.785,1.294,3.351,3.351,0,0,0-.85,1.756h7.269A3.6,3.6,0,0,0,823.663,856.162Z" fill="#000000"/><path d="M827.827,850.932H829.1v2.2h-1.277Zm0,3.35H829.1v9.5h-1.277Z" fill="#000000"/><path d="M832.347,854.282v1.278a2.4,2.4,0,0,1,1.046-1.1,2.8,2.8,0,0,1,1.471-.391,3.675,3.675,0,0,0,6.313.036,3.975,3.975,0,0,1,2.765,1.046,3.544,3.544,0,0,1,1.171,2.7v5.939h-1.241V858.06a2.555,2.555,0,0,0-2.66-2.713,2.294,2.294,0,0,0-2.411,2.393v6.046h-1.313v-5.833a2.484,2.484,0,0,0-.779-1.9,2.638,2.638,0,0,0-1.915-.709,2.353,2.353,0,0,0-1.649.62,2.619,2.619,0,0,0-.727,1.95v5.869h-1.276v-9.5Z" fill="#000000"/><path d="M848.388,855.382a4.9,4.9,0,0,1,3.44-1.348,3.938,3.938,0,0,1,3.705,2.092v-1.844h1.224v9.5h-1.224v-1.808A3.686,3.686,0,0,1,853.9,863.5a4.7,4.7,0,0,1-2.18.5,4.968,4.968,0,0,1-3.334-8.617Zm.71,6.187a3.327,3.327,0,0,0,2.624,1.189,3.791,3.791,0,0,0,2.676-1.064,3.465,3.465,0,0,0,1.135-2.606,3.763,3.763,0,0,0-1.046-2.678,3.445,3.445,0,0,0-2.589-1.1,3.717,3.717,0,0,0-2.748,1.17,3.277,3.277,0,0,0-1.063,2.323A4.025,4.025,0,0,0,849.1,861.569Z" fill="#000000"/><path d="M858.827,854.247h1.188v1.418a2.828,2.828,0,0,1,2.748-1.631v1.313a2.565,2.565,0,0,0-1.773.709,2.362,2.362,0,0,0-.9,1.861v5.869h-1.259Z" fill="#000000"/><path d="M863.879,854.282h1.276v5.48a3.18,3.18,0,0,0,.744,2.163,2.846,2.846,0,0,0,4.256-.107,3.631,3.631,0,0,0,.744-2.34v-5.2h1.278v9.5h-1.171V862.3a2.938,2.938,0,0,1-1.294,1.294,3.686,3.686,0,0,1-1.809.443,3.953,3.953,0,0,1-2.748-1.028,3.9,3.9,0,0,1-1.276-3.068Z" fill="#000000"/><path d="M884.884,850.932l5.462,12.854H888.98l-1.879-4.308h-5.887l-1.844,4.308h-1.365l5.461-12.854Zm-3.192,7.358h4.948l-2.465-5.869Z" fill="#000000"/><path d="M890.59,854.282h1.329l3.032,7.572,3.192-7.572h1.33l-5.426,12.82H892.7l1.472-3.635Z" fill="#000000"/><path d="M901.81,855.382a4.9,4.9,0,0,1,3.44-1.348,3.938,3.938,0,0,1,3.705,2.092v-1.844h1.224v9.5h-1.224v-1.808a3.686,3.686,0,0,1-1.631,1.525,4.708,4.708,0,0,1-2.18.5,4.968,4.968,0,0,1-3.334-8.617Zm.71,6.187a3.327,3.327,0,0,0,2.624,1.189,3.791,3.791,0,0,0,2.676-1.064,3.465,3.465,0,0,0,1.135-2.606,3.763,3.763,0,0,0-1.046-2.678,3.445,3.445,0,0,0-2.589-1.1,3.717,3.717,0,0,0-2.748,1.17,3.277,3.277,0,0,0-1.063,2.323A4.025,4.025,0,0,0,902.52,861.569Z" fill="#000000"/><path d="M915.388,850.932l-1.525,3.35h-1.206l1.454-3.35Zm2.518,0-1.508,3.35H915.1l1.542-3.35Z" fill="#000000"/><path d="M921.111,861.445H922.5v2.341h-1.384Z" fill="#000000"/><path d="M659.051,874.352h1.276v5.62h6.613v-5.62h1.242v12.854H666.94V881.16h-6.613v6.046h-1.276Z" fill="#000000"/><path d="M671.671,878.748a4.708,4.708,0,0,1,3.315-1.294,4.776,4.776,0,0,1,3.317,1.276,5.045,5.045,0,0,1,1.6,3.919v.248h-8.51a2.941,2.941,0,0,0,1.241,2.483,3.726,3.726,0,0,0,2.322.8,3.85,3.85,0,0,0,1.987-.585,2.888,2.888,0,0,0,1.382-1.508h1.312a4.89,4.89,0,0,1-2.057,2.554,5.064,5.064,0,0,1-2.7.78,4.447,4.447,0,0,1-3.422-1.489,4.989,4.989,0,0,1-1.329-3.529A4.732,4.732,0,0,1,671.671,878.748Zm5.709.834a3.549,3.549,0,0,0-2.358-.887,3.408,3.408,0,0,0-2.784,1.294,3.343,3.343,0,0,0-.85,1.756h7.269A3.6,3.6,0,0,0,677.38,879.582Z" fill="#000000"/><path d="M681.562,877.667h1.187v1.418a2.828,2.828,0,0,1,2.748-1.631v1.313a2.565,2.565,0,0,0-1.772.709,2.36,2.36,0,0,0-.9,1.861v5.869h-1.258Z" fill="#000000"/><path d="M691.274,877.7h1.205v1.419a3.546,3.546,0,0,1,3-1.632,4.009,4.009,0,0,1,2.836,1.117,4.223,4.223,0,0,1,1.294,3.228v5.372h-1.241v-5.372a3.011,3.011,0,0,0-.815-2.2,2.794,2.794,0,0,0-2.146-.868,2.75,2.75,0,0,0-2.854,2.907v5.532h-1.277Z" fill="#000000"/><path d="M702.813,878.837a5.045,5.045,0,0,1,3.564-1.348,4.763,4.763,0,0,1,3.139,1.278,4.213,4.213,0,0,1,1.63,3.244,5.56,5.56,0,0,1-1.347,3.759,4.583,4.583,0,0,1-3.6,1.649,4.706,4.706,0,0,1-3.334-1.33,4.935,4.935,0,0,1-1.559-3.794A4.48,4.48,0,0,1,702.813,878.837Zm.763,6.259a3.465,3.465,0,0,0,2.659,1.117,3.426,3.426,0,0,0,2.394-.975,3.707,3.707,0,0,0,1.206-2.873,3.731,3.731,0,0,0-3.6-3.635,3.6,3.6,0,0,0-2.606,1.065,3.439,3.439,0,0,0-1.081,2.57A3.816,3.816,0,0,0,703.576,885.1Z" fill="#000000"/><path d="M713.873,878.873h-1.968V877.7h1.968v-3.35h1.276v3.35h2.182v1.171h-2.182v8.333h-1.276Z" fill="#000000"/><path d="M719.722,878.748a4.708,4.708,0,0,1,3.315-1.294,4.778,4.778,0,0,1,3.317,1.276,5.045,5.045,0,0,1,1.595,3.919v.248h-8.511a2.941,2.941,0,0,0,1.242,2.483,3.724,3.724,0,0,0,2.322.8,3.844,3.844,0,0,0,1.986-.585,2.886,2.886,0,0,0,1.383-1.508h1.312a4.895,4.895,0,0,1-2.057,2.554,5.064,5.064,0,0,1-2.695.78,4.445,4.445,0,0,1-3.422-1.489,4.989,4.989,0,0,1-1.329-3.529A4.728,4.728,0,0,1,719.722,878.748Zm5.709.834a3.549,3.549,0,0,0-2.358-.887,3.408,3.408,0,0,0-2.784,1.294,3.345,3.345,0,0,0-.851,1.756h7.27A3.6,3.6,0,0,0,725.431,879.582Z" fill="#000000"/><path d="M734.434,874.352h1.276v2.2h-1.276Zm0,3.35h1.276v9.5h-1.276Z" fill="#000000"/><path d="M737.322,880.078a2.362,2.362,0,0,1,.9-1.95,2.647,2.647,0,0,1,1.719-.639,2.833,2.833,0,0,1,1.809.621,2.358,2.358,0,0,1,.9,1.933h-1.295c0-.869-.478-1.313-1.418-1.313a1.477,1.477,0,0,0-.9.285,1.191,1.191,0,0,0-.5,1.028l.1.478c.089.373.515.692,1.26.976a10.814,10.814,0,0,1,1.95.833,2.336,2.336,0,0,1,1.011,2.022v.265c-.018.124-.036.231-.036.284a2.616,2.616,0,0,1-1.116,1.968,3,3,0,0,1-1.809.55,2.77,2.77,0,0,1-2.11-.869,3,3,0,0,1-.833-2.128l1.276-.035a1.792,1.792,0,0,0,1.737,1.862A1.617,1.617,0,0,0,741.6,884.6c0-.87-.514-1.454-1.542-1.738a5.914,5.914,0,0,1-1.667-.71,2.243,2.243,0,0,1-1.064-1.9Z" fill="#000000"/><path d="M749.039,874.352h1.968l4.645,10.957,4.628-10.957h1.968v12.854h-1.276V875.77l-4.787,11.436h-1.1l-4.77-11.436v11.436h-1.276Z" fill="#000000"/><path d="M763.786,877.7h1.329l3.032,7.571,3.192-7.571h1.33l-5.426,12.819H765.9l1.471-3.634Z" fill="#000000"/><path d="M773.357,880.078a2.362,2.362,0,0,1,.9-1.95,2.647,2.647,0,0,1,1.719-.639,2.833,2.833,0,0,1,1.809.621,2.355,2.355,0,0,1,.9,1.933H777.4c0-.869-.478-1.313-1.418-1.313a1.479,1.479,0,0,0-.9.285,1.191,1.191,0,0,0-.5,1.028l.106.478c.088.373.514.692,1.259.976a10.814,10.814,0,0,1,1.95.833,2.336,2.336,0,0,1,1.011,2.022v.265c-.017.124-.036.231-.036.284a2.616,2.616,0,0,1-1.116,1.968,3,3,0,0,1-1.809.55,2.77,2.77,0,0,1-2.11-.869,3,3,0,0,1-.833-2.128l1.276-.035a1.793,1.793,0,0,0,1.738,1.862,1.617,1.617,0,0,0,1.613-1.649c0-.87-.514-1.454-1.542-1.738a5.914,5.914,0,0,1-1.667-.71,2.243,2.243,0,0,1-1.064-1.9Z" fill="#000000"/><path d="M781.458,878.873H779.49V877.7h1.968v-3.35h1.276v3.35h2.182v1.171h-2.182v8.333h-1.276Z" fill="#000000"/><path d="M787.307,878.748a4.708,4.708,0,0,1,3.315-1.294,4.774,4.774,0,0,1,3.316,1.276,5.042,5.042,0,0,1,1.6,3.919v.248h-8.511a2.941,2.941,0,0,0,1.242,2.483,3.724,3.724,0,0,0,2.322.8,3.844,3.844,0,0,0,1.986-.585,2.886,2.886,0,0,0,1.383-1.508h1.312a4.895,4.895,0,0,1-2.057,2.554,5.064,5.064,0,0,1-2.7.78,4.445,4.445,0,0,1-3.422-1.489,4.989,4.989,0,0,1-1.329-3.529A4.728,4.728,0,0,1,787.307,878.748Zm5.709.834a3.551,3.551,0,0,0-2.358-.887,3.408,3.408,0,0,0-2.784,1.294,3.345,3.345,0,0,0-.851,1.756h7.27A3.6,3.6,0,0,0,793.016,879.582Z" fill="#000000"/><path d="M797.2,877.667h1.188v1.418a2.828,2.828,0,0,1,2.748-1.631v1.313a2.569,2.569,0,0,0-1.773.709,2.362,2.362,0,0,0-.9,1.861v5.869H797.2Z" fill="#000000"/><path d="M802.249,874.352h1.276v2.2h-1.276Zm0,3.35h1.276v9.5h-1.276Z" fill="#000000"/><path d="M806.733,878.837a5.044,5.044,0,0,1,3.564-1.348,4.765,4.765,0,0,1,3.139,1.278,4.213,4.213,0,0,1,1.63,3.244,5.56,5.56,0,0,1-1.347,3.759,4.583,4.583,0,0,1-3.6,1.649,4.706,4.706,0,0,1-3.334-1.33,4.935,4.935,0,0,1-1.559-3.794A4.48,4.48,0,0,1,806.733,878.837Zm.763,6.259a3.465,3.465,0,0,0,2.659,1.117,3.426,3.426,0,0,0,2.394-.975,3.707,3.707,0,0,0,1.206-2.873,3.731,3.731,0,0,0-3.6-3.635,3.6,3.6,0,0,0-2.606,1.065,3.439,3.439,0,0,0-1.081,2.57A3.816,3.816,0,0,0,807.5,885.1Z" fill="#000000"/><path d="M816.694,877.7h1.277v5.48a3.18,3.18,0,0,0,.744,2.163,2.846,2.846,0,0,0,4.256-.107,3.632,3.632,0,0,0,.744-2.341v-5.2h1.277v9.5h-1.171v-1.489a2.938,2.938,0,0,1-1.294,1.294,3.693,3.693,0,0,1-1.808.443,3.951,3.951,0,0,1-2.748-1.028,3.9,3.9,0,0,1-1.277-3.068Z" fill="#000000"/><path d="M826.779,880.078a2.362,2.362,0,0,1,.9-1.95,2.647,2.647,0,0,1,1.719-.639,2.833,2.833,0,0,1,1.809.621,2.358,2.358,0,0,1,.9,1.933h-1.295c0-.869-.478-1.313-1.418-1.313a1.477,1.477,0,0,0-.9.285,1.191,1.191,0,0,0-.5,1.028l.1.478c.089.373.515.692,1.26.976a10.814,10.814,0,0,1,1.95.833,2.336,2.336,0,0,1,1.011,2.022v.265c-.017.124-.036.231-.036.284a2.616,2.616,0,0,1-1.116,1.968,3,3,0,0,1-1.809.55,2.77,2.77,0,0,1-2.11-.869,3,3,0,0,1-.833-2.128l1.276-.035a1.792,1.792,0,0,0,1.737,1.862,1.617,1.617,0,0,0,1.614-1.649c0-.87-.514-1.454-1.542-1.738a5.914,5.914,0,0,1-1.667-.71,2.243,2.243,0,0,1-1.064-1.9Z" fill="#000000"/><path d="M839.488,878.8a4.9,4.9,0,0,1,3.441-1.348,3.939,3.939,0,0,1,3.705,2.092V877.7h1.223v9.5h-1.223V885.4A3.688,3.688,0,0,1,845,886.923a4.709,4.709,0,0,1-2.181.5,4.969,4.969,0,0,1-3.334-8.617Zm.71,6.187a3.328,3.328,0,0,0,2.624,1.189,3.794,3.794,0,0,0,2.677-1.064,3.465,3.465,0,0,0,1.135-2.606,3.767,3.767,0,0,0-1.046-2.678,3.449,3.449,0,0,0-2.589-1.1,3.718,3.718,0,0,0-2.748,1.171,3.277,3.277,0,0,0-1.063,2.323A4.025,4.025,0,0,0,840.2,884.989Z" fill="#000000"/><path d="M849.911,877.7h1.205v1.419a3.543,3.543,0,0,1,3-1.632,4.012,4.012,0,0,1,2.837,1.117,4.227,4.227,0,0,1,1.294,3.228v5.372H857v-5.372a3.015,3.015,0,0,0-.815-2.2,2.794,2.794,0,0,0-2.146-.868,2.75,2.75,0,0,0-2.854,2.907v5.532h-1.277Z" fill="#000000"/><path d="M861.5,878.7a4.793,4.793,0,0,1,3.227-1.241,4.389,4.389,0,0,1,3.918,1.915v-5.017h1.259v12.854H868.7V885.4a4.407,4.407,0,0,1-3.9,2.022,4.47,4.47,0,0,1-3.316-1.489,5.464,5.464,0,0,1-1.542-3.919A4.207,4.207,0,0,1,861.5,878.7Zm-.3,3.493v.231a3.667,3.667,0,0,0,1.081,2.606,3.5,3.5,0,0,0,2.624,1.153,3.6,3.6,0,0,0,2.731-1.135A3.841,3.841,0,0,0,868.7,882.3a3.746,3.746,0,0,0-3.795-3.565,3.74,3.74,0,0,0-2.127.674,3.654,3.654,0,0,0-1.543,2.5A2.575,2.575,0,0,0,861.2,882.188Z" fill="#000000"/><path d="M876.675,874.352h6.435v1.169h-5.159v4.628h4.965V881.3h-4.965v5.9h-1.276Z" fill="#000000"/><path d="M885.874,878.8a4.9,4.9,0,0,1,3.44-1.348,3.941,3.941,0,0,1,3.706,2.092V877.7h1.223v9.5H893.02V885.4a3.693,3.693,0,0,1-1.631,1.526,4.712,4.712,0,0,1-2.181.5,4.968,4.968,0,0,1-3.334-8.617Zm.71,6.187a3.327,3.327,0,0,0,2.624,1.189,3.8,3.8,0,0,0,2.677-1.064,3.468,3.468,0,0,0,1.135-2.606,3.767,3.767,0,0,0-1.046-2.678,3.449,3.449,0,0,0-2.589-1.1,3.714,3.714,0,0,0-2.748,1.171,3.279,3.279,0,0,0-1.064,2.323A4.025,4.025,0,0,0,886.584,884.989Z" fill="#000000"/><path d="M896.3,877.7h1.2v1.419a3.543,3.543,0,0,1,3-1.632,4.012,4.012,0,0,1,2.837,1.117,4.227,4.227,0,0,1,1.294,3.228v5.372h-1.241v-5.372a3.012,3.012,0,0,0-.816-2.2,2.794,2.794,0,0,0-2.145-.868,2.75,2.75,0,0,0-2.855,2.907v5.532H896.3Z" fill="#000000"/><path d="M907.764,878.873H905.8V877.7h1.968v-3.35h1.276v3.35h2.182v1.171H909.04v8.333h-1.276Z" fill="#000000"/><path d="M913.631,878.8a4.893,4.893,0,0,1,3.44-1.348,3.938,3.938,0,0,1,3.7,2.092V877.7H922v9.5h-1.224V885.4a3.685,3.685,0,0,1-1.63,1.526,4.712,4.712,0,0,1-2.181.5,4.968,4.968,0,0,1-3.334-8.617Zm.71,6.187a3.327,3.327,0,0,0,2.624,1.189,3.8,3.8,0,0,0,2.677-1.064,3.467,3.467,0,0,0,1.134-2.606,3.763,3.763,0,0,0-1.046-2.678,3.445,3.445,0,0,0-2.588-1.1,3.714,3.714,0,0,0-2.748,1.171,3.279,3.279,0,0,0-1.064,2.323A4.025,4.025,0,0,0,914.341,884.989Z" fill="#000000"/><path d="M923.628,880.078a2.364,2.364,0,0,1,.9-1.95,2.651,2.651,0,0,1,1.72-.639,2.835,2.835,0,0,1,1.809.621,2.358,2.358,0,0,1,.9,1.933h-1.3c0-.869-.479-1.313-1.418-1.313a1.475,1.475,0,0,0-.9.285,1.191,1.191,0,0,0-.5,1.028l.106.478c.088.373.514.692,1.259.976a10.85,10.85,0,0,1,1.95.833,2.336,2.336,0,0,1,1.011,2.022v.265c-.018.124-.036.231-.036.284a2.614,2.614,0,0,1-1.117,1.968,3,3,0,0,1-1.808.55,2.771,2.771,0,0,1-2.111-.869,3,3,0,0,1-.833-2.128l1.277-.035a1.792,1.792,0,0,0,1.737,1.862A1.617,1.617,0,0,0,927.9,884.6c0-.87-.513-1.454-1.542-1.738a5.927,5.927,0,0,1-1.667-.71,2.242,2.242,0,0,1-1.063-1.9Z" fill="#000000"/><path d="M931.728,878.873H929.76V877.7h1.968v-3.35H933v3.35h2.182v1.171H933v8.333h-1.276Z" fill="#000000"/><path d="M936.372,874.352h1.276v2.2h-1.276Zm0,3.35h1.276v9.5h-1.276Z" fill="#000000"/><path d="M940.892,878.767a4.664,4.664,0,0,1,3.28-1.313,5.71,5.71,0,0,1,2.8.692,4.56,4.56,0,0,1,2.109,2.411H947.63a3.722,3.722,0,0,0-3.458-1.827,3.382,3.382,0,0,0-2.607,1.153,3.87,3.87,0,0,0,.107,5.213,3.543,3.543,0,0,0,2.641,1.082,3.749,3.749,0,0,0,3.352-1.756h1.418a5.151,5.151,0,0,1-8.191,1.614,4.636,4.636,0,0,1-1.579-3.547l.037-.052A4.788,4.788,0,0,1,940.892,878.767Z" fill="#000000"/><path d="M951.366,884.865h1.384v2.341h-1.384Z" fill="#000000"/><path d="M657.88,901.122h1.365L662.508,909l3.263-7.873h1.382l-4.007,9.5h-1.312Z" fill="#000000"/><path d="M669.455,902.168a4.71,4.71,0,0,1,3.316-1.294,4.775,4.775,0,0,1,3.316,1.276,5.045,5.045,0,0,1,1.6,3.919v.248h-8.511a2.941,2.941,0,0,0,1.241,2.483,3.726,3.726,0,0,0,2.322.8,3.85,3.85,0,0,0,1.987-.585,2.884,2.884,0,0,0,1.382-1.508h1.312a4.894,4.894,0,0,1-2.057,2.554,5.064,5.064,0,0,1-2.7.78,4.447,4.447,0,0,1-3.422-1.489,4.989,4.989,0,0,1-1.329-3.529A4.732,4.732,0,0,1,669.455,902.168Zm5.709.834a3.548,3.548,0,0,0-2.357-.887,3.409,3.409,0,0,0-2.785,1.294,3.351,3.351,0,0,0-.85,1.756h7.269A3.6,3.6,0,0,0,675.164,903Z" fill="#000000"/><path d="M679.346,901.087h1.187v1.418a2.828,2.828,0,0,1,2.748-1.631v1.313a2.565,2.565,0,0,0-1.772.709,2.36,2.36,0,0,0-.9,1.861v5.869h-1.258Z" fill="#000000"/><path d="M690.832,898.906v-1.135h3.422v12.855H693v-11.72Z" fill="#000000"/><path d="M699.339,908.285h1.384v2.341h-1.384Z" fill="#000000"/><path d="M703.947,898.889a3.9,3.9,0,0,1,3.032-1.33,3.955,3.955,0,0,1,3.1,1.347,4.58,4.58,0,0,1,1.189,3.209v4.415a4.206,4.206,0,0,1-4.292,4.344,3.921,3.921,0,0,1-3.014-1.294,4.283,4.283,0,0,1-1.188-3.085v-4.451A4.575,4.575,0,0,1,703.947,898.889Zm.089,7.251a3.864,3.864,0,0,0,.709,2.412,2.6,2.6,0,0,0,2.2,1.046,3.1,3.1,0,0,0,2.058-.692,2.893,2.893,0,0,0,.992-2.341v-4.254c0-2.252-1.117-3.494-3.014-3.494-1.968,0-2.943,1.188-2.943,3.582Z" fill="#000000"/><path d="M713.59,898.622a4.041,4.041,0,0,1,2.854-1.063,3.708,3.708,0,0,1,2.748,1.17,3.762,3.762,0,0,1,1.153,2.748,5.068,5.068,0,0,1-1.79,3.617L714,909.438h6.348v1.188h-8.1v-1.152l5.674-5.568a3.349,3.349,0,0,0,1.188-2.429,2.61,2.61,0,0,0-.745-1.9,2.4,2.4,0,0,0-1.791-.763,1.05,1.05,0,0,0-.265-.017,2.547,2.547,0,0,0-1.791.691,3.2,3.2,0,0,0-.922,2.447h-1.277A4.261,4.261,0,0,1,713.59,898.622Z" fill="#000000"/><path d="M723.409,902.222a4.9,4.9,0,0,1,3.441-1.348,3.939,3.939,0,0,1,3.7,2.092v-1.844h1.223v9.5h-1.223v-1.809a3.688,3.688,0,0,1-1.631,1.526,4.709,4.709,0,0,1-2.181.5,4.968,4.968,0,0,1-3.334-8.617Zm.71,6.187a3.328,3.328,0,0,0,2.624,1.189,3.8,3.8,0,0,0,2.677-1.064,3.466,3.466,0,0,0,1.135-2.606,3.767,3.767,0,0,0-1.046-2.678,3.445,3.445,0,0,0-2.589-1.1,3.716,3.716,0,0,0-2.748,1.171,3.279,3.279,0,0,0-1.064,2.323A4.027,4.027,0,0,0,724.119,908.409Z" fill="#000000"/></g><path d="M667.812,956.358c0,.172-.1.259-.311.259a1.78,1.78,0,0,1-.725-.414,11.2,11.2,0,0,1-3.079-4.374,13.443,13.443,0,0,1-1.138-5.2A13.642,13.642,0,0,1,663.7,941.4a11.2,11.2,0,0,1,3.079-4.4,1.793,1.793,0,0,1,.725-.414c.207,0,.311.087.311.259,0,.051-.043.112-.13.18l-.233.157a10.7,10.7,0,0,0-2.562,4.528,16.083,16.083,0,0,0-.776,4.865,16.327,16.327,0,0,0,.776,4.892A10.494,10.494,0,0,0,667.449,956l.233.181C667.769,956.246,667.812,956.307,667.812,956.358Z" fill="#000000"/><path d="M680,950.847a3.18,3.18,0,0,1-1.449,2.8,5.715,5.715,0,0,1-3.183.828,4.541,4.541,0,0,1-3.778-1.89,6.323,6.323,0,0,1-1.371-4.089,6.009,6.009,0,0,1,1.371-4.089,4.785,4.785,0,0,1,3.882-1.708q2.562,0,3.312,1.371a2.385,2.385,0,0,1,.414,1.217q0,.726-.594.725a1.4,1.4,0,0,1-.751-.44,4.462,4.462,0,0,0-1.036-.828,3.358,3.358,0,0,0-1.733-.44,2.929,2.929,0,0,0-2.563,1.319,4.733,4.733,0,0,0-.853,2.873,5.516,5.516,0,0,0,.725,2.924,2.869,2.869,0,0,0,2.561,1.424,5.039,5.039,0,0,0,2.277-.621,8.38,8.38,0,0,0,1.734-1.087l.777-.6C679.914,950.536,680,950.64,680,950.847Z" fill="#000000"/><path d="M687.945,946.628a13.194,13.194,0,0,1-1.164,5.2,11.2,11.2,0,0,1-3.08,4.374,1.779,1.779,0,0,1-.724.414c-.207,0-.311-.087-.311-.259,0-.051.043-.112.129-.181l.233-.181a10.494,10.494,0,0,0,2.562-4.528,16.36,16.36,0,0,0,.777-4.892,16.115,16.115,0,0,0-.777-4.865,10.7,10.7,0,0,0-2.562-4.528l-.233-.157c-.086-.068-.129-.129-.129-.18,0-.172.1-.259.311-.259a1.792,1.792,0,0,1,.724.414,11.2,11.2,0,0,1,3.08,4.4A13.39,13.39,0,0,1,687.945,946.628Z" fill="#000000"/><path d="M707.044,951.933q0,.363-.932,1.423t-1.423,1.114c-.069-.035-.251-.147-.543-.337a5.583,5.583,0,0,0-3.313-1.009,8.619,8.619,0,0,0-4.011,1.139q-.724-.053-.724-.725,0-1.476,5.9-7.092,2.277-2.174,2.277-3.416a3.39,3.39,0,0,0-.647-2.147,2.311,2.311,0,0,0-1.94-.828,2.912,2.912,0,0,0-2.149.958,8.845,8.845,0,0,0-1.164,1.81c-.328.621-.562.932-.7.932a.98.98,0,0,1-.75-.336,1.175,1.175,0,0,1-.311-.828,3.262,3.262,0,0,1,1.035-2.174,5.325,5.325,0,0,1,4.038-1.631A4.437,4.437,0,0,1,704.844,940a3.973,3.973,0,0,1,1.268,3.027q0,1.839-3.028,4.3a30.667,30.667,0,0,0-4.658,4.684,34.618,34.618,0,0,1,3.933-.233h1.553a5.534,5.534,0,0,1,.621.051c.242.018.432.026.571.026a7.067,7.067,0,0,0,.853-.077,6.386,6.386,0,0,1,.854-.078A.206.206,0,0,1,707.044,951.933Z" fill="#000000"/><path d="M720.029,946.913a9.57,9.57,0,0,1-1.319,4.969,4.723,4.723,0,0,1-4.141,2.588,4.626,4.626,0,0,1-4.115-2.588,9.672,9.672,0,0,1-1.267-4.969,13.372,13.372,0,0,1,.9-5.125q1.215-3,3.726-3,3.261,0,3.52,1.553l-.052.26Q720.028,942.539,720.029,946.913Zm-1.708-.182a9.179,9.179,0,0,0-1.6-5.668,12.619,12.619,0,0,0-2.769-.361q-1.707,0-2.51,2.406a12.029,12.029,0,0,0-.544,3.805,9.841,9.841,0,0,0,.751,3.856q1.008,2.3,2.794,2.3,1.889,0,3-2.328A9.283,9.283,0,0,0,718.321,946.731Z" fill="#000000"/><path d="M732.882,946.913a9.571,9.571,0,0,1-1.32,4.969,4.72,4.72,0,0,1-4.14,2.588,4.624,4.624,0,0,1-4.115-2.588,9.673,9.673,0,0,1-1.268-4.969,13.391,13.391,0,0,1,.9-5.125q1.216-3,3.727-3,3.261,0,3.519,1.553l-.051.26Q732.881,942.539,732.882,946.913Zm-1.708-.182a9.173,9.173,0,0,0-1.605-5.668,12.6,12.6,0,0,0-2.768-.361q-1.709,0-2.511,2.406a12.058,12.058,0,0,0-.544,3.805,9.841,9.841,0,0,0,.751,3.856q1.01,2.3,2.8,2.3,1.889,0,3-2.328A9.283,9.283,0,0,0,731.174,946.731Z" fill="#000000"/><path d="M746,949.294a4.591,4.591,0,0,1-1.89,3.959,7.05,7.05,0,0,1-4.321,1.217,8.175,8.175,0,0,1-3.157-.621q-1.476-.621-1.475-2.9c0-.242.094-.363.284-.363a10.023,10.023,0,0,0,5.642,2.148,3.229,3.229,0,0,0,2.406-1.009,3.348,3.348,0,0,0,.958-2.432,3.443,3.443,0,0,0-.751-2.277,2.681,2.681,0,0,0-2.121-.881,6.4,6.4,0,0,0-2.64.621,12.241,12.241,0,0,0-1.889,1.165q-.829.648-.854.647-.828,0-.828-.724a5.977,5.977,0,0,1,.155-.855,26.99,26.99,0,0,0,.466-5.9,6.909,6.909,0,0,0-.052-.725,5.982,5.982,0,0,1-.051-.647q0-.932.724-.932a1.933,1.933,0,0,1,.44.156,1.444,1.444,0,0,0,.6.155q.672,0,2.017-.051c.881-.035,1.544-.053,1.993-.053a15.8,15.8,0,0,1,1.89.1c.552.069.818.1.8.1a2.126,2.126,0,0,0,1.112-.207l.233.285a5.779,5.779,0,0,1-.569,1.321q-.519.775-1.06.775a3.907,3.907,0,0,1-.725-.181,18.307,18.307,0,0,0-5.539-.7.488.488,0,0,0-.44.258q-.1,2.563-.258,5.15a9.456,9.456,0,0,1,4.374-1.138A4.3,4.3,0,0,1,746,949.294Z" fill="#000000"/><path d="M773.321,937.726q1.035,0,1.035.931l-.078,5.719a1.774,1.774,0,0,1,.285-.025h6.083q.413,0,.439.181a1.55,1.55,0,0,1-.311.957,1.268,1.268,0,0,1-.931.389,5.254,5.254,0,0,1-1.01-.233q-.8-.078-1.76-.078a11.749,11.749,0,0,0-2.458.181,1.962,1.962,0,0,1-.362.1l-.1,6.676a46.654,46.654,0,0,1,4.84.44,38.172,38.172,0,0,0,4.166.285,14.242,14.242,0,0,0,1.735-.1c.137,0,.207.061.207.182a3.585,3.585,0,0,1-.414,1.656q-.466.725-.932.725a3.26,3.26,0,0,1-.958-.182,20.326,20.326,0,0,0-4.658-1.217,30.692,30.692,0,0,0-4.917-.335,28.335,28.335,0,0,0-5.615.492,19.461,19.461,0,0,0-3.831,1.086,2.337,2.337,0,0,1-.828.259c-.638-.035-.984-.3-1.035-.8a1.371,1.371,0,0,1,.465-.854,1.338,1.338,0,0,1,.906-.414,78.383,78.383,0,0,1,9.395-1.242l-.207-13.846Q772.468,937.725,773.321,937.726Z" fill="#000000"/><path d="M794.128,945.489q.388,0,.389.285c0,.362-.1.579-.286.647l-4.787,1.32q-.906,0-.906-.828,0-1.011.7-1.139Zm.207,5.979q.389,0,.389.439a1.188,1.188,0,0,1-.207.6q-2.693,3-3.106,3-1.14,0-1.139-.621a1.26,1.26,0,0,1,.44-1.139Q790.712,953.511,794.335,951.468ZM791.618,937.8a2.221,2.221,0,0,1,.647.207q1.111.827,2.691,1.81c.138.087.207.173.207.26,0,.275-.182.414-.543.414a1.675,1.675,0,0,1-.44-.1q-2.251-.57-2.872-.7a1.384,1.384,0,0,1-.725-1.138Q790.583,937.8,791.618,937.8Zm8.41,4.658a.716.716,0,0,1,.57.207h6.237a4.243,4.243,0,0,0,.932-.207.835.835,0,0,1,.957.932q-.365,1.914-.6,3.83.906.024,1.631.025a17.834,17.834,0,0,0,1.967-.129c.137,0,.207.181.207.543a2.534,2.534,0,0,1-.673,1.553q-.441.621-.8.621a2.894,2.894,0,0,1-1.269-.414,5.962,5.962,0,0,0-1.215-.543c-.018.172-.036.353-.053.543a20.976,20.976,0,0,1-.258,2.406q.982.027,2.1.078c.327.018.492.147.492.389a.734.734,0,0,1-.207.543.64.64,0,0,1-.492.31q-1.191-.051-2.174-.1a4.636,4.636,0,0,1-.88,1.785,3.06,3.06,0,0,1-2.433,1.217,1.2,1.2,0,0,1-.983-.492,1.477,1.477,0,0,1-.259-.776.435.435,0,0,1,.414-.492q1.889-.207,2.381-1.087a1.257,1.257,0,0,0,.129-.207q-1.371-.051-2.3-.052a39.681,39.681,0,0,0-4.658.156,1.574,1.574,0,0,1-.543.155c-.517,0-.786-.216-.8-.647a1.042,1.042,0,0,1,.079-.363,17.193,17.193,0,0,0,.9-3.234,2.575,2.575,0,0,0,.077-.389,17.419,17.419,0,0,0-2.535.906q-.8,0-.8-.646a1.112,1.112,0,0,1,.362-.8,1.436,1.436,0,0,1,1.191-.517l2.018-.233q.285-1.838.441-4.115Q799.2,942.462,800.028,942.462Zm.389-5.047q.646,0,.646.492a1.151,1.151,0,0,1-.207.647q-.363.647-.7,1.242h9.7c.242,0,.371.069.389.207a1.611,1.611,0,0,1-.285.932,1.3,1.3,0,0,1-.957.388,14.9,14.9,0,0,1-1.709-.233q-1.4-.051-3.028-.052a33.926,33.926,0,0,0-3.881.155,6.772,6.772,0,0,1-.88.13.562.562,0,0,1-.336-.078,12.6,12.6,0,0,1-1.062,1.346q-.6.724-1.009.724a1.751,1.751,0,0,1-1.087-.465,1.256,1.256,0,0,1-.543-.88q0-.285.492-.336a5.736,5.736,0,0,0,2.174-1.4,9.311,9.311,0,0,0,1.966-2.613C800.244,937.484,800.348,937.415,800.417,937.415Zm1.526,14.311q.285-1.527.492-3.08c.017-.12.035-.25.052-.387q-1.294.051-2.484.154-.287,1.632-.621,3.055a.3.3,0,0,0,.336.336q.44,0,1.578-.052C801.538,951.735,801.753,951.726,801.943,951.726ZM800.21,947.2q1.422-.154,2.458-.18.18-1.191.388-2.615c.035-.275.06-.5.078-.673a17.306,17.306,0,0,0-1.889.156,5.2,5.2,0,0,1-.544.1c-.052.45-.146,1.044-.284,1.786C800.348,946.257,800.278,946.731,800.21,947.2Zm5.951,4.581a24.98,24.98,0,0,0,.467-3.209.078.078,0,0,0-.053-.026,27.154,27.154,0,0,0-2.846-.284l-.647,3.441Q804.17,951.7,806.161,951.778Zm-1.526-8.074-.648,3.313q1.269.024,2.77.129.18-2.433.181-3,0-.439-.285-.44Z" fill="#000000"/><path d="M827.1,944.583a10.361,10.361,0,0,1-1.217,4.141,11.876,11.876,0,0,1-3.545,4.218q-2.46,1.993-3.727,1.993a2.526,2.526,0,0,1-1.345-.75q-.856-.75-.855-1.243,0-.206.906-.388a12.551,12.551,0,0,0,3.08-1.061,9.524,9.524,0,0,0,3.467-2.717,7.18,7.18,0,0,0,1.734-4.063q.053-1.267.724-1.269Q827.094,943.444,827.1,944.583Zm8.074-3.8q0,.931-2.123,2.976a9.852,9.852,0,0,1-3.209,2.407c-.293-.016-.44-.155-.44-.414l1.528-1.786a5.831,5.831,0,0,0,1.474-2.484,19.053,19.053,0,0,0-3.648-.181,36.959,36.959,0,0,0-6.988.647q-2.38.387-2.3.388c-.5,0-.75-.311-.75-.932a1.423,1.423,0,0,1,.439-1.087q.518-.465,5.772-.465h2.9q2.9,0,5.305.207a2.622,2.622,0,0,1,1.035-.1,1.2,1.2,0,0,1,.7.234A.67.67,0,0,1,835.169,940.779Z" fill="#000000"/><path d="M857.641,940.132q0,1.734-.336,5.668a10.217,10.217,0,0,1-4.373,7.789,8.249,8.249,0,0,1-4.271,1.812,3.367,3.367,0,0,1-1.526-.673q-.931-.7-.932-1.113,0-.258,1.967-.569a10.039,10.039,0,0,0,5.512-2.64q2.173-2.043,2.173-7.194,0-.647-.1-1.863-.053-1.242-.052-1.838,0-.8.88-.8Q857.641,938.709,857.641,940.132Zm-9.368,6.625q0,.906-.8.906-.958,0-.957-1.371v-6.237q0-1.113.879-1.113.751,0,.751,1.837,0,.363-.027.906c-.016.31-.025.509-.025.6q0,.777.078,2.252Q848.272,946.007,848.273,946.757Z" fill="#000000"/><path d="M888.642,951.648a3.72,3.72,0,0,1-1.139,1.294,2.861,2.861,0,0,1-1.527.8q-.467,0-2.044-1.916a20.472,20.472,0,0,0-4.452-3.881,24.611,24.611,0,0,1-5.745,4.5,8.5,8.5,0,0,1-2.846,1.113,2.115,2.115,0,0,1-1.269-.672,1.844,1.844,0,0,1-.672-1.165c0-.19.241-.336.725-.44q6.727-1.189,11.464-7.5.594-.775.905-1.216a6.1,6.1,0,0,0,.725-1.242,11.681,11.681,0,0,0-2.018-.078,30.794,30.794,0,0,0-6.211.492,8.924,8.924,0,0,1-1.631.258c-.4,0-.6-.275-.6-.828a1,1,0,0,1,.621-.879,14.69,14.69,0,0,1,4.374-.337h3.623a10.945,10.945,0,0,1,1.708.1,3.092,3.092,0,0,1,.957-.1q.906,0,.906.648,0,.7-1.734,3.209a35.041,35.041,0,0,1-2.407,3.209l4.373,2.795a8.924,8.924,0,0,0,2.641,1.292,7.215,7.215,0,0,0,.725.13C888.426,951.355,888.606,951.493,888.642,951.648Z" fill="#000000"/><path d="M900.31,938.011c.465,0,.7.284.7.853a2.588,2.588,0,0,1-.571,1.528,22.7,22.7,0,0,1-3.777,4.166.9.9,0,0,0-.414.724q0,.078.8.44a8.058,8.058,0,0,1,1.656.958,1.912,1.912,0,0,1,.259.258q1.449-1.577,2.82-3.13a.922.922,0,0,1,.6-.207.575.575,0,0,1,.414.232.765.765,0,0,1,.182.518,1.021,1.021,0,0,1-.311.75q-2.794,3-5.59,6.237a.9.9,0,0,0-.181.569c0,.035.051.078.155.129a19.949,19.949,0,0,0,2.354.078,26.842,26.842,0,0,0,3.159-.155.333.333,0,0,0,.284-.233l.026-.155a20.918,20.918,0,0,0-.906-1.967.868.868,0,0,1-.129-.414.6.6,0,0,1,.181-.388.766.766,0,0,1,.569-.207c.12,0,.259.146.414.439a25.55,25.55,0,0,1,1.217,2.459,2.653,2.653,0,0,1,.336,1.113q0,.933-1.035.932a5.282,5.282,0,0,0-1.036-.1q-1.553.1-3.183.1-1.164,0-2.406-.1a14.854,14.854,0,0,0-1.682.1q-1.14,0-1.139-.7a1.945,1.945,0,0,1,.388-1.087q1.863-1.966,3.649-3.882l-.363-.155a17.21,17.21,0,0,0-3.286-1.476.639.639,0,0,1-.569-.672,1.185,1.185,0,0,1,.465-.88,7.557,7.557,0,0,0,1.734-1.527,22.229,22.229,0,0,0,3.442-4.606A.985.985,0,0,1,900.31,938.011Zm8.617,2.07h5.461a4.809,4.809,0,0,0,.906-.182.916.916,0,0,1,1.035,1.036,54.845,54.845,0,0,0-.984,7.09q-.387,4.891-1.864,6.392a4.109,4.109,0,0,1-3.13,1.4,1.374,1.374,0,0,1-1.139-.57,1.988,1.988,0,0,1-.311-.957.483.483,0,0,1,.414-.543q2.614-.234,3.338-1.268.931-1.113,1.5-6.6.336-3.392.336-4.115,0-.44-.336-.44h-4.193a27.425,27.425,0,0,0-3.57.233,7.849,7.849,0,0,1-1.243.207c-.4-.034-.6-.216-.6-.543a.929.929,0,0,1,.8-1.035Q906.209,940.08,908.927,940.081Z" fill="#000000"/><path d="M930.35,948.077v-.129q0-1.035.853-1.035.828,0,.828,1.035v.129a48.156,48.156,0,0,1,4.891.492,38.373,38.373,0,0,0,4.3.311,15.012,15.012,0,0,0,1.552-.078c.155,0,.233.06.233.181a3.137,3.137,0,0,1-.414,1.527q-.416.647-.828.647a3.138,3.138,0,0,1-.984-.181,21,21,0,0,0-4.761-1.217,29.688,29.688,0,0,0-4.089-.336c-.018.31-.026.6-.026.853l.129,4.09q0,1.681-.931,1.682-.751,0-.75-1.682.1-2.614.1-4.09c0-.293-.01-.577-.026-.853a28,28,0,0,0-5.28.492A19.945,19.945,0,0,0,921.188,951a2.762,2.762,0,0,1-.879.26.866.866,0,0,1-.932-.828,1.069,1.069,0,0,1,.414-.751,1.239,1.239,0,0,1,.828-.388A79.853,79.853,0,0,1,930.35,948.077ZM924.967,937.8q.645,0,.646.75a1,1,0,0,1-.31.673,10.926,10.926,0,0,1-1.889,1.889.376.376,0,0,0-.182.311q0,.051.363.284a3.38,3.38,0,0,1,.776.544q.8-.8,1.5-1.527a.6.6,0,0,1,.337-.1.544.544,0,0,1,.388.182.56.56,0,0,1,.155.414.489.489,0,0,1-.182.387q-1.4,1.5-2.845,3.08a.349.349,0,0,0-.1.259.28.28,0,0,0,.051.155,2.141,2.141,0,0,0,.751.078,8.383,8.383,0,0,0,1.6-.129c.1-.018.164-.121.182-.311a6.5,6.5,0,0,0-.285-.751.721.721,0,0,1-.026-.18.534.534,0,0,1,.155-.337.669.669,0,0,1,.492-.156c.068,0,.146.079.232.233q.26.544.621,1.32a1.432,1.432,0,0,1,.182.621.652.652,0,0,1-.75.725,2.5,2.5,0,0,0-.725-.1,12.973,12.973,0,0,1-1.682.1,4.7,4.7,0,0,1-.984-.1,7.983,7.983,0,0,0-1.242.1c-.569,0-.853-.182-.853-.543a.979.979,0,0,1,.232-.57q1.035-1.035,2.019-2.044a8.7,8.7,0,0,0-2.071-.984.409.409,0,0,1-.362-.439.568.568,0,0,1,.285-.441,3.659,3.659,0,0,0,1.009-.776,11.185,11.185,0,0,0,2.07-2.355A.576.576,0,0,1,924.967,937.8Zm-1.346,14.7a6.858,6.858,0,0,0,.957.1,7.8,7.8,0,0,0,2.8-.7c.207,0,.311.095.311.285q0,.387-1.164,1.45a3.04,3.04,0,0,1-1.942,1.138,1.058,1.058,0,0,1-.853-.467,2.44,2.44,0,0,1-.389-1.371Q923.336,952.5,923.621,952.5Zm7.582-15.424q.828,0,.828.725a1.009,1.009,0,0,1-.129.414q-.389.8-.6,1.138h.465a3.44,3.44,0,0,1,.855.129,3.371,3.371,0,0,0,.828-.129.572.572,0,0,1,.647.647l-.052.182a4.468,4.468,0,0,0-.13,1.112q-.051,1.086-.051,2.3v2.173q0,.75-.6.75a12.07,12.07,0,0,0-2.07-.207,8.748,8.748,0,0,0-1.527.079,2.835,2.835,0,0,0-.672.232q-.621,0-.621-.647a22.594,22.594,0,0,0,.232-2.976,25.141,25.141,0,0,0-.232-3.106q0-.645.621-.646a5.012,5.012,0,0,1,.7.051c.138.017.311.035.518.052a5.384,5.384,0,0,0,.233-1.552C930.453,937.32,930.7,937.079,931.2,937.079Zm0,8.307a6.961,6.961,0,0,1,1.113.1.274.274,0,0,0,.311-.31v-1.864a15.11,15.11,0,0,0-2.666.182.489.489,0,0,1-.155-.026q0,.853-.052,1.6c0,.277.164.414.492.414A3.814,3.814,0,0,1,931.2,945.386Zm-1.371-3a2.275,2.275,0,0,1,.311-.026h2.484v-1.63c0-.156-.069-.233-.207-.233a17.138,17.138,0,0,0-2.174-.1c-.26,0-.389.146-.389.439Q929.857,941.633,929.832,942.384Zm8.385-4.58q.645,0,.646.75a1.106,1.106,0,0,1-.259.673,11.943,11.943,0,0,1-1.656,1.889.374.374,0,0,0-.18.311c0,.034.128.12.387.258a4.362,4.362,0,0,1,.8.517q.777-.75,1.476-1.474a.634.634,0,0,1,.362-.1.524.524,0,0,1,.362.182.626.626,0,0,1,.13.414.489.489,0,0,1-.182.387q-1.424,1.5-2.923,3.08a.349.349,0,0,0-.1.259.28.28,0,0,0,.051.155,1.694,1.694,0,0,0,.674.078,9.583,9.583,0,0,0,1.707-.129c.1-.018.164-.121.181-.311a6.185,6.185,0,0,0-.388-.751.42.42,0,0,1-.051-.18.538.538,0,0,1,.154-.337.73.73,0,0,1,.492-.156c.069,0,.147.079.233.233q.31.544.724,1.32a1.432,1.432,0,0,1,.182.621.652.652,0,0,1-.75.725,2.4,2.4,0,0,0-.7-.1,15.062,15.062,0,0,1-1.785.1,4.455,4.455,0,0,1-.932-.1,8.335,8.335,0,0,0-1.242.1c-.553,0-.828-.182-.828-.543a.979.979,0,0,1,.232-.57q1.111-1.087,2.149-2.122l-.027-.026a10.854,10.854,0,0,0-2.07-.9q-.389-.08-.388-.414a.567.567,0,0,1,.284-.441,3.657,3.657,0,0,0,.932-.776,11.808,11.808,0,0,0,1.915-2.355A.494.494,0,0,1,938.217,937.8Zm-3.08,14a.472.472,0,0,1,.129.051,14.085,14.085,0,0,0,2.123.958,5.8,5.8,0,0,0,1.474.233.252.252,0,0,1,.285.285,1.135,1.135,0,0,1-.517.854,3.338,3.338,0,0,1-1.553.6.491.491,0,0,1-.389-.181,20.466,20.466,0,0,1-1.785-2.226.5.5,0,0,1-.1-.259A.3.3,0,0,1,935.137,951.8Z" fill="#000000"/><path d="M948.167,937.8a3.208,3.208,0,0,1,.776.1,5.208,5.208,0,0,0,1.191.1h8.306q2.822,0,6.678.1a3.406,3.406,0,0,0,1.035-.207q.853,0,.854.957c0,.035-.026.2-.078.492a21.386,21.386,0,0,0-.233,2.873q-.1,2.769-.1,5.848,0,2.382.1,6.5,0,.932-.724.932-4.969-.182-8.9-.182-4.944,0-6.289.078-1.111.053-2.717.207c-.5,0-.75-.276-.75-.828q.207-4.323.208-7.556,0-3.572-.208-8.567A.754.754,0,0,1,948.167,937.8Zm8.9,16.174q3.441,0,7.66.1.389,0,.389-.439,0-9.627.1-13.846,0-.311-.389-.311-5.228-.129-15.139-.129-.492,0-.492.543,0,7.17-.207,13.536,0,.645.6.646Q952.8,953.979,957.069,953.978Zm-5.59-11.077a1.228,1.228,0,0,1,.493.1,40.667,40.667,0,0,1,4.89-.336q.8,0,2.2.051c-.017-.672-.026-1.139-.026-1.4q0-1.035.8-1.035a.731.731,0,0,1,.828.828,2.5,2.5,0,0,1-.1.569q-.052.6-.078,1.138a3.646,3.646,0,0,0,.414.027,7.292,7.292,0,0,0,.8.051,5.661,5.661,0,0,0,1.086-.155,4.536,4.536,0,0,1,.8-.181c.189,0,.285.078.285.233a2.343,2.343,0,0,1-.57,1.371,1.662,1.662,0,0,1-1.19.777,3.538,3.538,0,0,1-1.113-.31,3.266,3.266,0,0,0-.492-.157q.053,3.03.052,4.737,0,2.433-1.449,3.08a4.136,4.136,0,0,1-1.76.439,1.408,1.408,0,0,1-.958-.362,1.3,1.3,0,0,1-.465-1.009c0-.207.129-.337.388-.388a4.553,4.553,0,0,0,2.071-.518,1.33,1.33,0,0,0,.7-.854,11.053,11.053,0,0,0,.155-2.277q0-1.605-.1-3.132a16.2,16.2,0,0,0-2.278-.155,18.773,18.773,0,0,0-4.683.389,3.4,3.4,0,0,1-1.01.207q-.621,0-.621-.6a1.347,1.347,0,0,1,.285-.8A.891.891,0,0,1,951.479,942.9Zm4.012,3.623q.336,0,.336.286a1.027,1.027,0,0,1-.207.543q-2.717,2.587-3.105,2.587c-.621,0-.932-.171-.932-.517q0-.724.285-.932Q951.868,948.259,955.491,946.524Z" fill="#000000"/></g></svg>
