<svg xmlns="http://www.w3.org/2000/svg" width="1000" height="988" viewBox="0 0 1000 988"><g id="Artboard"><rect id="Page" width="1000" height="988" fill="#fff"/></g><g id="Text"><path d="M497.6,220.441c1.32-.66,2.639-1.367,3.96-2.075,1.273-.707,2.64-1.461,4.1-2.357l.754.283-.047,2.97v4.668l.095,12.542c0,1.65.047,3.913.188,6.789.094,2.877.142,4.762.142,5.564l-1.7.047-1.886.047-2.734-.141c-.614-.048-1.085-.142-1.368-.189s-.9-.141-1.886-.33l.141-6.931.1-5.233c0-1.462-.047-2.829-.1-4.1-.047-1.226-.047-2.405-.093-3.584l-.095-2.735a15.227,15.227,0,0,1-1.556-.047c-.377-.047-1.226-.141-2.5-.33-1.226-.141-2.4-.33-3.583-.566v-.612Q493.284,222.633,497.6,220.441Z" fill="#000000"/><path d="M518.249,216.2l4.715.095,4.29-.095,6.507-.282.283.612a56.993,56.993,0,0,0-4.9,13.391,145.192,145.192,0,0,0-3.4,18.766l-2.451-.095-2.734-.094-2.453.047-3.017.094-.283-.66c2.31-6.789,5.563-14.993,9.524-24.187a16.32,16.32,0,0,0-2.593.188c-.9.142-2.028.33-3.489.566a67.63,67.63,0,0,0-6.6,1.509v-.613l.1-9.524Z" fill="#000000"/><path d="M541.87,225.3l-7.167.613v-1.037c0-.9,0-1.556.047-1.98s.1-1.321.236-2.688a41.828,41.828,0,0,1,.66-4.29l6.318.282,4.2.095,5.328-.095,6.837-.377-1.273,5.187-.849,4.809-6.176-.283.754,23.245h-9.524Z" fill="#000000"/><path d="M559.787,243.309l.048-5.281q0-1.273-.425-11.882c-.141-3.914-.235-7.261-.235-9.949l2.027-.094h5.375l2.122-.047c0,.9.047,2.074.141,3.442.048,1.415.095,2.216.095,2.4l.283,5.375,2.262.1,2.123.047,2.969-.047,1.18-.047V223.6l-.048-3.206c0-.331,0-.99-.047-1.886s-.047-1.651-.047-2.216l4.527.283,4.243.094-.142,4.951-.047,4.149c0,1.556,0,3.725.047,6.506s.047,4.763.047,5.941c0,1.462.048,2.829.1,4.1.188,3.914.283,6.036.283,6.412h-2.31l-2.028-.046-2.546.046h-2.593l.188-4.667.142-7.355-1.132.047-7.4.141-.235,10.467-.047,1.415h-3.017l-5.942-.048Z" fill="#000000"/><path d="M610.189,225.3l-7.167.613v-1.037c0-.9,0-1.556.047-1.98s.1-1.321.237-2.688a41.555,41.555,0,0,1,.66-4.29l6.317.282,4.2.095,5.329-.095,6.837-.377-1.274,5.187-.849,4.809-6.176-.283.755,23.245h-9.525Z" fill="#000000"/><path d="M630.7,244.251q-3.678-4.455-3.678-12.306c0-4.95,1.226-8.817,3.631-11.646s5.8-4.243,10.09-4.243q6.93,0,10.609,4.243c2.452,2.829,3.677,6.931,3.677,12.26,0,5.091-1.225,9.052-3.677,11.928-2.5,2.876-5.989,4.291-10.467,4.291Q634.305,248.778,630.7,244.251Zm15.323-7.355a9.493,9.493,0,0,0,1.839-5.846,10.377,10.377,0,0,0-.047-1.368c-.046-.236-.188-.613-.33-1.037q-.282-.636-.565-1.132a7.949,7.949,0,0,0-.849-.99,8.275,8.275,0,0,0-2.5-1.792,5.045,5.045,0,0,0-2.5-.754,6.154,6.154,0,0,0-2.64.708,7.775,7.775,0,0,0-2.358,1.791,6.3,6.3,0,0,0-1.132,2.169,9.482,9.482,0,0,0-.471,3.253,7.482,7.482,0,0,0,2.075,5.328,6.359,6.359,0,0,0,4.808,2.169A5.741,5.741,0,0,0,646.022,236.9Z" fill="#000000"/><path d="M666.675,215.49l-.047,5.139c0,3.914-.1,7.4-.33,10.373a69.057,69.057,0,0,1-.9,7.4,19.891,19.891,0,0,0,3.868,1.509c1.084.235,1.885.424,2.4.518a11.32,11.32,0,0,0,1.98.142c0-.849-.048-3.536-.188-8.11-.142-4.526-.236-7.968-.236-10.373l-.047-4.809,9.666-1.6-.237,8.534-.093,6.224.14,7.779c0,1.556,0,2.735.048,3.584.142,4.2.235,6.412.235,6.742l-7.779.66-.99-4.856-2.735,4.668a29.253,29.253,0,0,1-11.127-2.169,26.2,26.2,0,0,1-3.3-1.556l1.132-11.081q0-1.7.141-4.243c.142-1.744.189-2.735.189-3.065,0-.8,0-1.461-.047-1.98-.142-2.027-.189-3.112-.189-3.348a22.119,22.119,0,0,0-.236-2.687c-.047-.33-.188-1.273-.472-2.829Z" fill="#000000"/><path d="M687.373,243.309l.048-5.281q0-1.273-.425-11.882c-.142-3.914-.235-7.261-.235-9.949l2.027-.094h5.375l2.122-.047c0,.9.047,2.074.141,3.442.048,1.415.095,2.216.095,2.4l.283,5.375,2.262.1,2.122.047,2.97-.047,1.18-.047V223.6l-.048-3.206c0-.331,0-.99-.047-1.886s-.047-1.651-.047-2.216l4.527.283,4.243.094-.142,4.951-.047,4.149c0,1.556,0,3.725.047,6.506s.047,4.763.047,5.941c0,1.462.048,2.829.1,4.1.188,3.914.283,6.036.283,6.412h-2.311l-2.027-.046-2.546.046h-2.594l.189-4.667.142-7.355-1.132.047-7.4.141-.235,10.467-.047,1.415h-3.017l-5.942-.048Z" fill="#000000"/><path d="M720.143,244.251q-3.679-4.455-3.678-12.306c0-4.95,1.225-8.817,3.631-11.646s5.8-4.243,10.09-4.243q6.93,0,10.608,4.243c2.452,2.829,3.678,6.931,3.678,12.26,0,5.091-1.226,9.052-3.678,11.928-2.5,2.876-5.988,4.291-10.467,4.291Q723.748,248.778,720.143,244.251Zm15.323-7.355a9.5,9.5,0,0,0,1.839-5.846,10.377,10.377,0,0,0-.047-1.368c-.047-.236-.189-.613-.33-1.037q-.283-.636-.566-1.132a7.937,7.937,0,0,0-.848-.99,8.288,8.288,0,0,0-2.5-1.792,5.048,5.048,0,0,0-2.5-.754,6.155,6.155,0,0,0-2.641.708,7.77,7.77,0,0,0-2.357,1.791,6.267,6.267,0,0,0-1.132,2.169,9.48,9.48,0,0,0-.472,3.253,7.482,7.482,0,0,0,2.075,5.328A6.359,6.359,0,0,0,730.8,239.4,5.743,5.743,0,0,0,735.466,236.9Z" fill="#000000"/><path d="M756.353,215.49l-.047,5.139c0,3.914-.1,7.4-.33,10.373a69.316,69.316,0,0,1-.9,7.4,19.883,19.883,0,0,0,3.867,1.509c1.084.235,1.886.424,2.4.518a11.312,11.312,0,0,0,1.98.142c0-.849-.048-3.536-.188-8.11-.142-4.526-.237-7.968-.237-10.373l-.047-4.809,9.666-1.6-.236,8.534-.094,6.224.141,7.779c0,1.556,0,2.735.048,3.584.141,4.2.235,6.412.235,6.742l-7.779.66-.99-4.856-2.736,4.668a29.261,29.261,0,0,1-11.127-2.169,26.118,26.118,0,0,1-3.3-1.556l1.131-11.081q0-1.7.142-4.243c.142-1.744.188-2.735.188-3.065,0-.8,0-1.461-.046-1.98-.142-2.027-.189-3.112-.189-3.348a22.324,22.324,0,0,0-.236-2.687c-.047-.33-.189-1.273-.472-2.829Z" fill="#000000"/><path d="M802.04,216.1l2.781.142a5.966,5.966,0,0,1,1.415.141c.33.141.754.283,1.273.519.283.141.519.283.755.424a12.454,12.454,0,0,1,1.367,1.085,20.516,20.516,0,0,1,3.724,4.337,7.88,7.88,0,0,1,1.321,4.1,17.007,17.007,0,0,1-1.226,6.459,15.475,15.475,0,0,1-3.017,5.234,4.482,4.482,0,0,1-2.311,1.368,15.1,15.1,0,0,1-4.1.424l-1.887-.094-2.074-.189v.9l.094,4.007.424,3.82h-2.734l-1.981-.048-1.744.048-2.924.047.567-9.147c0-.943,0-2.074.047-3.4s.093-2.782.141-4.385l-.141-7.213c0-.991,0-1.934-.047-2.735s-.237-2.735-.52-5.894h6.932Zm3.348,15.041c1.462-1.65,2.216-3.065,2.216-4.244a3.729,3.729,0,0,0-1.321-2.546,35.824,35.824,0,0,0-5.94-3.913c-.095,1.084-.142,1.886-.189,2.405-.141,1.555-.189,2.828-.189,3.866l-.094,5.893v2.122A12.755,12.755,0,0,0,805.388,231.144Z" fill="#000000"/><path d="M818.354,242.743l.047-4.809c0-1.368,0-2.405-.047-3.16-.141-3.724-.236-5.705-.236-6.035l-.942-12.494,14-.142h.283a10.774,10.774,0,0,1,3.678.566,8.5,8.5,0,0,1,2.829,1.886A27.967,27.967,0,0,1,840,220.677a23.127,23.127,0,0,1,1.65,2.357,8.006,8.006,0,0,1,1.415,3.772,7.37,7.37,0,0,1-1.462,4.055,36.936,36.936,0,0,1-5.092,5.611,28.32,28.32,0,0,0,2.357,5.658,47.173,47.173,0,0,0,3.583,5.658l-7.637,1.367a26.33,26.33,0,0,1-1.886-2.405c-.66-.848-1.32-1.744-1.934-2.64a54.808,54.808,0,0,1-2.97-5.422l-1.509-.142-.189,10.232H818.26Zm14.38-14.617c0-2.027-2.592-3.866-6.883-4.573l.566,11.174C830.188,233.077,832.734,230.39,832.734,228.126Z" fill="#000000"/><path d="M848.483,244.251q-3.678-4.455-3.677-12.306c0-4.95,1.225-8.817,3.631-11.646s5.8-4.243,10.089-4.243q6.93,0,10.609,4.243c2.452,2.829,3.677,6.931,3.677,12.26,0,5.091-1.225,9.052-3.677,11.928-2.5,2.876-5.989,4.291-10.467,4.291Q852.089,248.778,848.483,244.251Zm15.324-7.355a9.5,9.5,0,0,0,1.839-5.846,10.377,10.377,0,0,0-.047-1.368c-.047-.236-.189-.613-.33-1.037q-.284-.636-.566-1.132a7.949,7.949,0,0,0-.849-.99,8.275,8.275,0,0,0-2.5-1.792,5.045,5.045,0,0,0-2.5-.754,6.154,6.154,0,0,0-2.64.708,7.787,7.787,0,0,0-2.358,1.791,6.283,6.283,0,0,0-1.131,2.169,9.456,9.456,0,0,0-.472,3.253,7.482,7.482,0,0,0,2.075,5.328,6.359,6.359,0,0,0,4.809,2.169A5.743,5.743,0,0,0,863.807,236.9Z" fill="#000000"/><path d="M891.907,227.655l-.047,13.155a16.976,16.976,0,0,1-2.122,4.243,16.281,16.281,0,0,1-3.206,3.3l-1.886.33-1.838.094c-.425,0-1.085,0-1.981-.048s-1.509-.046-1.886-.046a12.484,12.484,0,0,1-1.367-.095c-.471-.047-1.038-.189-1.745-.33l-2.641-9.524.472-.33c.425.189.849.33,1.274.471s.99.283,1.7.472a15.807,15.807,0,0,0,2.971.283,4.259,4.259,0,0,0,3.3-1.037,5.676,5.676,0,0,0,.9-3.678l-.048-.8-.094-1.65-.99-16.125,5.233-.047,4.1-.236Z" fill="#000000"/><path d="M896.527,244.582c.095-1.132.142-2.075.142-2.876,0-.85.047-2.641.1-5.423.047-2.735.093-4.668.093-5.8V225.91c0-.66,0-1.32-.046-1.98s-.1-1.273-.189-1.886c0-.849-.048-1.792-.142-2.876-.141-1.038-.283-2.122-.471-3.253h17.445l1.886,7.968-3.065-.283-1.792-.094-1.791.047-3.3.282-.189,4.716,2.593.188,2.075.047a24.124,24.124,0,0,0,2.451-.141c.9-.094,1.6-.188,2.217-.236l.519-.047-1.085,7.921-2.829-.377-2.169-.141-1.414.094-1.886.094-.283,4.857,9.477.66-2.122,7.874-5.94-.472-4.668-.142-3.113.048-2.922.047Q896.386,246.35,896.527,244.582Z" fill="#000000"/><path d="M926.609,232.087a6.815,6.815,0,0,0,2.121,5,16.087,16.087,0,0,0,6.272,3.63l-3.3,8.487a26.592,26.592,0,0,1-11.033-6.837,13.733,13.733,0,0,1-4.008-9.618,15.511,15.511,0,0,1,3.631-9.949c2.4-2.97,5.988-5.422,10.7-7.4l4.338,8.2C929.25,226.052,926.609,228.645,926.609,232.087Z" fill="#000000"/><path d="M943.865,225.3l-7.167.613v-1.037c0-.9,0-1.556.047-1.98s.1-1.321.236-2.688a41.848,41.848,0,0,1,.661-4.29l6.317.282,4.2.095,5.328-.095,6.837-.377-1.273,5.187-.849,4.809-6.177-.283.755,23.245h-9.524Z" fill="#000000"/><g id="東方鬼形獣"><path d="M666.093,420.186c-14.17-.848-26.159-3.513-38.392-11.143V421.4H589.915V409.043c-12.231,7.63-23.979,10.3-38.149,11.143l-1.332-31.731c8.356-.363,20.588-1.7,29.793-5.571H553.583V334.44h36.332v-3.512h-39V306.949h39v-2.423H627.7v2.423H666.94v23.979H627.7v3.512h36.818v48.444H637.39c8.72,3.633,22.042,5.208,30.035,5.571Zm-72.786-70.123h-6.783v4.481h6.783Zm0,14.655h-6.783v4.723h6.783Zm38.27-14.655h-7.63v4.481h7.63Zm0,14.655h-7.63v4.723h7.63Z" fill="#000000"/><path d="M729.674,421.9l-2.06-33.3c16.713,0,18.288-.121,18.288-6.419H724.466c-.727,14.775-2.059,28.1-3.755,39.723l-46.143-1.332c3.876-20.951,5.814-48.928,6.3-72.786h-6.54V312.414h32.943v-7.388h48.322v7.388h34.273v35.364H725.192v4.481h61.766V385.2c0,29.55-3.512,36.695-35.728,36.695Z" fill="#000000"/><path d="M855.262,421.17c-11.021,0-14.291-3.512-14.291-14.775v-20.1c-5.813,24.706-13.2,35.242-45.536,35.605l-2.423-35c12.232-.969,16.228-3.512,18.772-12.837H796.04V308.175h32.82a17.038,17.038,0,0,0,1.938-3.149l37.786.606c-.363.605-1.574,2.543-1.574,2.543h39.723v65.884H892.321a45.516,45.516,0,0,1-2.058,7.145l5.086-.484c-.485-1.454-.727-2.665-.969-3.391l10.416-1.7c1.695,6.9,2.906,12.474,3.391,15.017l-12.232,1.817,13.927,2.664c-.969,21.316-2.664,26.039-15.381,26.039Zm-18.53-92.77h-8.719v4.845h8.719Zm0,21.558h-8.719v5.208h8.719ZM874.761,328.4h-9.2v4.845h9.2Zm0,21.558h-9.2v5.208h9.2Zm.726,31.973a69.216,69.216,0,0,0,2.059-7.872h-4.6v8.235Zm7.267,16.47c2.422,0,3.391-1.211,3.633-4.844-4.723.727-9.325,1.09-13.443,1.574,0,2.786,1.332,3.27,2.907,3.27Z" fill="#000000"/><path d="M829.654,541.628V499.24h-5.086c0,14.776-.606,28.582-3.028,42.267l-29.793-2.3a169.209,169.209,0,0,0,4.482-39.966h-4.6V467.509h4.6v-9.446h-3.271V427.18h67.821v7.146a319.977,319.977,0,0,0,43.963-9.205l3.633,29.43c-3.754,1.574-21.678,9.567-43.72,11.868l-3.876-29.308v20.952h-3.39v9.446h4.359v3.27a174.414,174.414,0,0,0,43.842-10.9l2.785,29.067c-3.633,1.695-22.647,10.415-42.024,13.806l-4.6-25.675V499.24h-4.359v42.388Zm0-83.565h-4.965v9.446h4.965Zm30.52,50.381c20.71-3.511,40.45-11.626,45.416-13.806l2.785,33.548c-3.512,1.695-23.011,10.415-44.2,13.321Z" fill="#000000"/><path d="M907.285,662.734c-15.865-2.3-22.042-9.81-25.432-26.4-2.543,16.229-8.236,23.5-20.347,26.281L857.389,623.5H791.626V607.509h68.911v13.079c4.845-6.54,6.3-11.384,7.267-19.014h-5.45V570.207h5.692V545.864H893.6v24.343h14.533v31.367H896.991c.969,11.989,3.512,20.1,11.626,23.253ZM792.958,604.359V562.335h2.423a125.717,125.717,0,0,0-3.392-13.686l19.741-2.543c1.332,5.208,2.422,9.931,3.512,16.229h3.634a118.886,118.886,0,0,0-3.392-13.686l18.41-2.543a114.144,114.144,0,0,1,2.906,13.081,58.5,58.5,0,0,0,4.36-13.081l19.983,2.543a80.534,80.534,0,0,1-4.965,13.686h3.027v42.024Zm28.461,55.831v2.665H792.958V626.644h64.067V660.19Zm-2.059-85.018h-5.692v4.239h5.692Zm0,12.111h-5.692v4.482h5.692Zm10.052,53.288h-7.993v4.36h7.993Zm10.052-65.4h-6.055v4.239h6.055Zm0,12.111h-6.055v4.482h6.055Zm57.89-19.014c-.605-7.266-1.7-15.623-2.3-20.709l10.9-1.575c1.211,8.841,2.18,17.561,2.543,20.225Z" fill="#000000"/></g><g id="WILY_BEAST_AND_WEAKEST_CREATURE" data-name="WILY BEAST AND WEAKEST CREATURE"><path d="M676.88,441.506a4.486,4.486,0,0,1,1.056.189l.452.188.377-.075a5.075,5.075,0,0,1,1.093-.113,4.553,4.553,0,0,1,1.7.339c.188.075.565-.076,1.206-.415.263-.151.792.49,1.659,1.961l.15.452.34.943a2.853,2.853,0,0,1,1.056.6,7.63,7.63,0,0,1,.527,2.074,6.161,6.161,0,0,0,.189,1.169c.038.037.188.188.415.377s.415.3.528.414l.3,1.169a.54.54,0,0,0,.489.3,1.486,1.486,0,0,0,.528-.113l.529-.754a2.113,2.113,0,0,0,.715-1.32v-.113a2.2,2.2,0,0,1,.227-.98l.641-.415a3.662,3.662,0,0,0,.113-1.32,5.032,5.032,0,0,1-.717-2.488,1.194,1.194,0,0,1-1.017-1.207c0-.415.075-.641.263-.678a3.357,3.357,0,0,0,1.207.15l.905-.377H692a7.63,7.63,0,0,1,1.659.189l.642-.075a4.42,4.42,0,0,1,1.885.641l1.282-.415a4.491,4.491,0,0,1,1.357-.151,9.641,9.641,0,0,0,1.583-.528l.754,1.131.642.754a1.14,1.14,0,0,1,.075.528l-.113.905a4.449,4.449,0,0,1,1.734,2.6q.169,1.244,1.131,1.244.51,0,1.471-1.018l.264-.415-.038-.678.264-.378.188-.452.717-.49a7.228,7.228,0,0,1,.754-1.244l.452-1.7c0-.113.415-.264,1.282-.453.415-.113,1.131.151,2.338.755l.415-.34.452-.415.716-.037-.037-.226c0-.189.189-.265.6-.265.188,0,.414.151.6.491l.981.414.6-.226.679-.339.527-.075c1.434,0,2.036.452,1.848,1.319a4.8,4.8,0,0,1-.9,1.734,5,5,0,0,0-.906.453,2.305,2.305,0,0,1,.227,1.131l-.867,1.094a7.337,7.337,0,0,0-.6,1.583,3.884,3.884,0,0,1-.452,1.244c-.151.151-.792.679-.83,1.132l.038.339v1.093a5.233,5.233,0,0,0-.075.679l-.528.188-1.056,2-.717,2.375-1.394.905-.566,1.508-.83,1.433a1.244,1.244,0,0,0-.226.792,8.852,8.852,0,0,0,.679,1.847,2.749,2.749,0,0,1,.075.641.888.888,0,0,1-.98,1.018l-.377-.075c-.151.377-1.734.678-2.64,1.772l-.716.867-.792-.226-.6-.113a2.127,2.127,0,0,0-1.206.565l-.6.566c-.415,0-.754-.377-1.018-1.093l-.6-1.621a5.565,5.565,0,0,0-.264-1.434l-.076-.15-.942-1.019a5.841,5.841,0,0,1-1.056-1.168,7.393,7.393,0,0,0-.188-1.622,3.347,3.347,0,0,1-1.094-.753l-.339-1.358c-.415-.716-.716-1.131-.9-1.169a1.058,1.058,0,0,0-.339.189l-.792.566a3.573,3.573,0,0,0-.565.791l-.114,1.018a4.181,4.181,0,0,1-1.055.792,4.415,4.415,0,0,1-.265.905l-.527.792-.075.377a7.194,7.194,0,0,0,.225,1.319,1.644,1.644,0,0,0,.265.792l-1.244.3-1.4.414-1.319,1.207-.113.076-1.433-.076-.453.415-.414.113-.415.98a1.92,1.92,0,0,1-.717.754,1.469,1.469,0,0,1-.49.114.976.976,0,0,1-.791-.453l-.038-.075-.453-.754-.038-.076-.037-1.734a1.938,1.938,0,0,0-.6-.981l-.6-.867-.528-.98c-.037-.151-.15-1.056-.189-1.245l-.452-.15c-.263-.113-.527-.453-.792-1.094l.038-.151a3.228,3.228,0,0,0-.377-1.734l-.716-.452a6.6,6.6,0,0,1-1.47-3.695,7.862,7.862,0,0,1-1.659-1.207,2.648,2.648,0,0,1-.265-1.018,5.577,5.577,0,0,0-.188-1.47l-.641-1.056c-.3-.453-1.659-1.169-1.923-2.187l-.113-1.81a4.445,4.445,0,0,0-1.508-2.563,2.151,2.151,0,0,1-.34-1.207.789.789,0,0,1,.9-.867,4.441,4.441,0,0,1,.83.075l1.659.113.98.415C675.824,441.77,676.163,441.506,676.88,441.506Z" fill="#000000"/><path d="M723.477,441.016c.263-.076.6.075,1.055.49l.679-.113a9.074,9.074,0,0,1,2.45.754,4.047,4.047,0,0,1,.6-.867l.9-.151c.98,0,1.471.641,1.471,1.885l-.038.943-.076.905-.415.565c0-.151.038-.226.227.34l.264.867c.038.037.038.151.038.339a10.241,10.241,0,0,1-.491,2.6l.226.226c.038.113.265.49.415.829l-.075,2,.339,1.734-.226,1.546v3.167l-.377,1.094.112.528.152.6.15,1.244a4.333,4.333,0,0,0-.225,1.471c0,.9.263,1.508.263,1.96v.49c-.038.189-.151.491-.263.943a.87.87,0,0,1-.981.679,1.425,1.425,0,0,1-.528-.151l-1.093-.227a6.623,6.623,0,0,1-1.357.642l-.3-.189-.264-.188a1.848,1.848,0,0,1-.83-.226l-.226-.227-1.056.453a3.042,3.042,0,0,1-.641.075,6.029,6.029,0,0,1-1.584-.3c-.188-.114-.565-.039-1.055.15l-.377-1.621-.076.037c-.038-.15-.188-.829-.226-1.093l.378-1.32c.188-.263.489-.6.489-.791l-.452-1.018v-1.244l.038-.717.037-.566a2.143,2.143,0,0,1,.3-.565l.188-.565a1.405,1.405,0,0,0-.225-.566l-.265-.528-.264-1.395-.15-1.621a10.74,10.74,0,0,1,.377-1.961l.452-.528a3.486,3.486,0,0,1-.6-.716l-.377-1.358V449.5l.34-1.056.037-1.358a1.506,1.506,0,0,1,.34-.792l.263-.226-.6-.641c-.189-.188-.264-.716-.264-1.621,0-1.7.49-2.564,1.471-2.564a2.888,2.888,0,0,1,.942.151l.377.716Z" fill="#000000"/><path d="M733.277,459l-.3-1.395a3.681,3.681,0,0,1-.113-.641,3.32,3.32,0,0,1,.226-1.056l.415-1.169-.264-1.395.49-1.7v-.112l-.377-1.584v-.528l-.189-1.169.378-1.319.037-.491-.075-.377-.3-2.79a2.587,2.587,0,0,1,.754-1.772l1.282-.189a5.423,5.423,0,0,1,2.074.453,3.707,3.707,0,0,1,2.036-.641,3.06,3.06,0,0,1,1.546.49,3.2,3.2,0,0,0,1.168-.339l.454-.075c.64,0,.979.565.979,1.7v.151l-.49,1.32a3.347,3.347,0,0,0,.189.716,3.31,3.31,0,0,1,.226.792,7.952,7.952,0,0,1,.113,1.508l-.038.151-.15,1.169-.34,1.7a19.293,19.293,0,0,1,.566,3.2l-.076,1.621a1.708,1.708,0,0,1-.264,1.019l-.226.414.49,1.169a3.33,3.33,0,0,1,.189.905l-.038.415-.038.414c0,.265.152.377.454.377a3.188,3.188,0,0,0,.9-.15l1.395-.3.452.038.981.49,1.206-.151,1.132-.075a.909.909,0,0,1,.867.754l.075.414a1.067,1.067,0,0,1-.151.566l-.075.528a8.591,8.591,0,0,0-.151,2,4.572,4.572,0,0,0,.189,1.358,3.629,3.629,0,0,1,.226,1.244,1.05,1.05,0,0,1-1.207,1.169h-.377l-.942-.566a.582.582,0,0,0-.415.264l-.415.415-1.281-.49-1.773.528a.989.989,0,0,0-.717-.34,3.565,3.565,0,0,0-1.169.3l-.263-.227a1.934,1.934,0,0,0-.792-.338l-1.018.565h-1.659l-.754-.415-1.018.453a2.151,2.151,0,0,0-.868-.265h-.112l-.9.227-.566.038c-.867,0-1.357-.076-1.47-.265-.264-.226-.377-.98-.377-2.224a31.657,31.657,0,0,0,.188-3.582v-.226l.189-.151c.038-.113.113-.264.188-.452,0-.114-.113-.264-.339-.377Z" fill="#000000"/><path d="M756.577,440.978c.3.038,1.395.453,1.96.6l.867-.227a5.285,5.285,0,0,1,1.4-.15l.188.226.792.414.226.113c.3-.15.867-.527,1.132-.678q1.638,0,2.148,2.489c1.961,1.168,1.7,1.432,2.111,1.432a4.744,4.744,0,0,0,1.283-1.923l.49-.151a6.19,6.19,0,0,0,.565-1.432c.152-.415.566-.641,1.207-.641a2.8,2.8,0,0,1,1.32.263l.415.641a7.637,7.637,0,0,1,3.167-1.093,5.87,5.87,0,0,1,1.357.189l1.32.075.415-.113c.565-.151,1.055.377,1.206.98a2.837,2.837,0,0,1-.49,1.358l-.755,1.319a4.024,4.024,0,0,1-.9.679c.113.339-1.132,1.847-1.546,3.506l-.264,1.395-.226.34-.792.415-.415.754-.452.716-.264.339-.641.943a7.016,7.016,0,0,0-.264,2,2.635,2.635,0,0,1-.566,1.056,2.966,2.966,0,0,0-.867.415l-.038,1.168a1.638,1.638,0,0,1-.377.83l-.452.792a8.585,8.585,0,0,1-.9,1.47,3.074,3.074,0,0,0,.076.906,3.916,3.916,0,0,1-1.094,1.922l-.565.377v.528a5.073,5.073,0,0,1-.566,2.15q-.4.565-2.036.565a3.461,3.461,0,0,1-1.7-.565l-1.621.6-.49.075a8.269,8.269,0,0,1-2.564-.678l-1.847.753a2.6,2.6,0,0,1-.754.114c-1.094,0-1.7-.453-1.773-1.32l.943-.754a4.982,4.982,0,0,1,.867-1.735L757.858,463a5.27,5.27,0,0,1,.415-1.66c.189,0,.566-.263,1.169-.791a3.5,3.5,0,0,1-.263-1.508,4.194,4.194,0,0,1,.754-1.358,3.243,3.243,0,0,0,.715-1.47,4.784,4.784,0,0,0-.075-.83,3.064,3.064,0,0,0-.942-.792c-.49-.3-.792-.527-.943-.64-.3-.3-.49-1.433-.641-1.622l-.3-.452-.565-.9.038-.3c.038-.188.075-.3.075-.339a.442.442,0,0,0-.3-.415l-.829-.264-.188-.226a6.007,6.007,0,0,1-.679-1.584l-.9-.075a1.49,1.49,0,0,1-.264-.6,8.673,8.673,0,0,1-.227-1.395,2.432,2.432,0,0,1,.077-.6l-.944.188a1.543,1.543,0,0,1-.791-.188,5.277,5.277,0,0,0-.755-1.735,4.089,4.089,0,0,1-.263-.943c0-.528.452-.9,1.4-1.093a6.671,6.671,0,0,1,.791-.038,4.478,4.478,0,0,1,1.659.34l1.019-.641Z" fill="#000000"/><path d="M667.454,494.714a2.018,2.018,0,0,1-.565-1.508,4.108,4.108,0,0,1,.3-1.47l.3-.641-.452-.867a1.082,1.082,0,0,1-.076-.453,4.4,4.4,0,0,1,.189-.83c.113-.414.528-.64,1.206-.64a2.2,2.2,0,0,1,1.508.565,1.92,1.92,0,0,0,1.207-.453,1.382,1.382,0,0,1,.754-.414l.566.113,1.244.415h.113a8.664,8.664,0,0,0,1.169-.075l.6.3.641.3a1.661,1.661,0,0,1,1.509-.943,4.652,4.652,0,0,1,1.809.49,9.367,9.367,0,0,1,2.752-.49,9.882,9.882,0,0,1,1.207.075l.377-.15A.942.942,0,0,1,684.2,488a1.387,1.387,0,0,1,.867.264l1.32,1.206a.282.282,0,0,0,.188-.075,8.554,8.554,0,0,1,1.132-.038c.49,0,1.018.491,1.658,1.509l-.188.791a3.96,3.96,0,0,1,1.018.34,3.553,3.553,0,0,1,.716,2.111,3.092,3.092,0,0,1-.716,2,2.421,2.421,0,0,1,.114.754,2.477,2.477,0,0,1-.792,1.773,11.085,11.085,0,0,1-1.358,1.734l.3.264,1.206,1.169a3.678,3.678,0,0,1,.566,1.509,5.34,5.34,0,0,0,.83.829,1.539,1.539,0,0,1,.415,1.13,5.83,5.83,0,0,1-.189,1.7,4.074,4.074,0,0,0,.264,1.319,4.1,4.1,0,0,1-.792,2.111,9.622,9.622,0,0,0-1.094,1.811c0,.716-.829,1.357-2.45,1.923l-.717.188a4.624,4.624,0,0,1-.9.415l-1.471.076a7.5,7.5,0,0,0-1.584.075,6.446,6.446,0,0,1-1.471-.189l-.715.151a5.81,5.81,0,0,1-1.169.113,14.624,14.624,0,0,1-2.225-.226l-.565-.113L674.92,515c-.415,0-1.131-.038-1.621-.075l-1.131-.113-.34-.076-1.772.414a2.279,2.279,0,0,1-.641.114l-1.244.075c-1.773-.037-1.169-1.169-1.358-2.073v-1.433a4.791,4.791,0,0,1,.566-1.245l-.566-1.433c-.113-.263-.038-.64.3-1.546l.264-.754.038-.075v-.98L667,504.1l-.189-1.282a4.923,4.923,0,0,1,.566-2.111l-.377-.943a3.858,3.858,0,0,1-.189-1.206,5.673,5.673,0,0,1,.3-1.886l.339-.867Zm10.143,2.414c0,.452-.151.791.755.791a1.791,1.791,0,0,0,.979-.226l-.037-.3.113-.717a1.022,1.022,0,0,0,.716-1.056,1.483,1.483,0,0,0-1.433-1.47,1.564,1.564,0,0,0-1.017.641,2.317,2.317,0,0,0-.642.942c0,.227.189.529.566.943Zm.264,10.368a2.687,2.687,0,0,0,1.018.3c.452,0,.528-.829.98-1.395a1.8,1.8,0,0,0,.377-1.282c0-.792-.188-1.169-.565-1.169a1.124,1.124,0,0,1-.566-.188l-.339-.227c-.114,0-.339.151-.641.453a.9.9,0,0,0-.565.226l-.076.415a2.211,2.211,0,0,0,.076.565l-.152.6a3.773,3.773,0,0,0-.075.64Z" fill="#000000"/><path d="M693.957,488.757a5.7,5.7,0,0,1,1.734.528l1.056-.679a9.294,9.294,0,0,1,1.471.038l1.47.49a6.357,6.357,0,0,1,.9-.943,1.12,1.12,0,0,1,.717.151l.6.189.226.414,1.32-.489.716.377.83.376c.49.151.9-.527,1.7-.867l.264.075c.188.039.264.039.3.076.9,0,1.47.226,1.734.716l-.226.943.151.49a.523.523,0,0,1,.226.415,4.228,4.228,0,0,0,.037.829l.114.227a1.219,1.219,0,0,1-.679,1.055l.264.34a3.219,3.219,0,0,1,.34,1.018c.15.6-.227,1.131-.981,1.32l-.942.15a4.338,4.338,0,0,1-.642.038h-.339c-.075-.038-.942-.452-1.017-.49-1.811,0-2.791.98-2.791,1.7a1.345,1.345,0,0,0,.226.6.827.827,0,0,0,.529.3l.414-.114a1.308,1.308,0,0,1,.453-.113l1.281.3,1.094-.037.34-.038.753-.076a1.412,1.412,0,0,1,1.169.339.947.947,0,0,1,.3.944.876.876,0,0,1-.377.753l.717,1.923-.49,1.018a1.8,1.8,0,0,1-.905.188,5.88,5.88,0,0,1-1.358-.188l-.452.226-.527.227a3.376,3.376,0,0,1-.717-.188l-.264-.077a2.073,2.073,0,0,0-1.018.227,3.317,3.317,0,0,0-1.131.264l-.075,1.584.075.452c.263,1.244.792,1.847,1.584,1.847a2.026,2.026,0,0,0,.98-.263l.566-.3.829-.264.15.189a.732.732,0,0,0,.642.225l.565-.225.679-.265c.15,0,.452.227.867.679a1.379,1.379,0,0,1,.528,1.056l-.038.415-.3.716a3.378,3.378,0,0,1,.416,1.508c0,.453-.152.755-.265.792l-.189.227a14.362,14.362,0,0,1,.227,2.073c0,.642-.227.943-.679.943l-.98-.113-1.358-.188a4.1,4.1,0,0,0-1.658.225l-1.659.415c-.265-.113-.415-.113-.867-.3l-.944-.3h.114a1.16,1.16,0,0,1-.491.226l-.9.3-.415-.3a1.2,1.2,0,0,0-.717-.377,1.842,1.842,0,0,0-.678.189l-.641.188h-.339l-1.094-.377-.754.227a2.147,2.147,0,0,1-.791.225c-1.32.114-2-.565-2-2.111a3.115,3.115,0,0,1,.189-1.282c-.265-1.244-.34-1.433-.377-1.7a1.535,1.535,0,0,1,.3-.906l.453-.6-.34-.792-.452-1.434v-.15l.717-1.244-.34-.906-.038-.98a3.991,3.991,0,0,1,.189-.716l.264-.717v-.452l-.377-1.244a3.036,3.036,0,0,1-.151-1.019,7.248,7.248,0,0,1,.792-2.6l-.491-.566a1.439,1.439,0,0,1-.452-.792,15.39,15.39,0,0,1,.415-2.187,3.334,3.334,0,0,0,.528-.527c-.189-.264-.679-1.056-.868-1.395l-.075-.528v-.528a1.714,1.714,0,0,0,.113-.49A1.362,1.362,0,0,1,693.957,488.757Z" fill="#000000"/><path d="M712.693,507.082l1.206-1.169.377-.34-.075-.565a3.144,3.144,0,0,1,.9-1.659l.151-.943a4.221,4.221,0,0,1,1.094-2.111l.15-.867.038-.49-.264-.6a1.013,1.013,0,0,1,.226-.452l.3-.452c.113-.152.038-.453-.3-.944l-.49.038c-1.546,0-2.3-.49-2.3-1.47l.113-.981.038-.452.264-.98v-.151a6.834,6.834,0,0,1-.6-1.207c0-.264.114-.528.114-.679l.188-.753.075-.755a1.076,1.076,0,0,1,1.169-.754,1.49,1.49,0,0,1,.981.264l.339.679,1.433-.943,1.583.491h.453a4.7,4.7,0,0,0,.9-.076,16.912,16.912,0,0,1,2.224-.264.936.936,0,0,1,.377.038l.943.528,1.169-.34a3.83,3.83,0,0,1,.9-.188,1.1,1.1,0,0,1,1.056.6c0,.189.226.189.565.038l.98-.453.529-.037c1.244,0,1.885,1.018,1.885,3.016l1.093,1.206a1.807,1.807,0,0,1,.452,1.245l-.075,1.282a10.056,10.056,0,0,1-.075,1.244,4.021,4.021,0,0,0,.565,1.433,1.862,1.862,0,0,1,.83.264,2.3,2.3,0,0,1,.565,1.621,4.093,4.093,0,0,1-.3,1.471,6.723,6.723,0,0,0,1.056,1.621l.6.377a3.365,3.365,0,0,1,.377,1.4v-.377a6.35,6.35,0,0,0-.075,1.583l.717,1.169v1.546c0,.265.9.642,1.093.83v1.583a5.56,5.56,0,0,1,1.244,2.678c0,.791-.566,1.281-1.658,1.433h-.6c-.188-.34-.377-.529-.641-.566l-.113-.34-1.244.679a2.422,2.422,0,0,1-.792.189,6.674,6.674,0,0,1-2.036-.528l-1.433.452a1.8,1.8,0,0,1-.792.038,2.175,2.175,0,0,1-1.169-1.32c-.339-.792-.528-1.244-.64-1.432-.189-.415-.3-.943-1.207-.943a4.085,4.085,0,0,0-1.621.264l-1.433-.566-.565.226-.529.265-.226-.227a1.673,1.673,0,0,0-1.018-.339c-.867,0-1.244.3-1.508,1.206-.3,1.773-.83,2.677-1.546,2.677l-1.81-.565-1.772.3-.339.076-.943.113-.075.038-1.584.3-.792.075a1.428,1.428,0,0,1-1.357-1.131,4.3,4.3,0,0,1,.528-1.546l1.395-1.433a6.886,6.886,0,0,0,.113-1.885A5.862,5.862,0,0,0,712.693,507.082Zm11.576-4.374-.377.075a.949.949,0,0,0-.6.792,6.386,6.386,0,0,1,.038.943c0,.263-.415.263-.641.942,0,.717.377,1.094,1.282,1.094l.6.263c.716-.15,1.056-.414,1.056-.791l-.151-.641a1.98,1.98,0,0,1,.038-.792v-.716l-.377-.264a1.273,1.273,0,0,0-.377-.755A2.611,2.611,0,0,0,724.269,502.708Z" fill="#000000"/><path d="M740.667,507.119a3.031,3.031,0,0,1,2,.642l.754-.152.679-.188,1.244.528c.075.037.263-.038.6-.151l.6-.264a1.286,1.286,0,0,1,.829.377l.792.038a2.079,2.079,0,0,0,.942-.188c.227-.529.717-.867.717-1.434a1.412,1.412,0,0,0-.641-1.017l-1.508-.491a5.7,5.7,0,0,0-.906-1.093,4.094,4.094,0,0,1-2.714-1.47l-.566-.6a3.392,3.392,0,0,1-2.94-2.187l.037-.829-.113-.528-.415-.678-.075-.567a3.711,3.711,0,0,1,.679-1.885l.075-1.47a6.5,6.5,0,0,1,2.073-3.733,4.378,4.378,0,0,1,2.338-1.282l1.018.113a5.881,5.881,0,0,0,1.018.113l.566-.263.641-.34a5.051,5.051,0,0,1,3.808-1.206,8.677,8.677,0,0,1,1.471.226c-.113-.114.15-.377.754-.717l1.282.076.942-.076c1.018,0,1.659.566,1.923,1.735l.452.829.038.076.038,1.583a7.7,7.7,0,0,1,.9,1.094,2.784,2.784,0,0,1,.188,1.056l-.113.6a1.079,1.079,0,0,1-1.093.829,2.033,2.033,0,0,1-.98-.414,1.789,1.789,0,0,0-.867-.415,4.144,4.144,0,0,0-1.245.3l-1.47-.377-.566.3-.98.377-1.4-.679a1.309,1.309,0,0,0-.829.491,1.685,1.685,0,0,0-.415.867,2.474,2.474,0,0,0,1.132,1.772l.829.113a3.556,3.556,0,0,1,2.715,1.622,1.971,1.971,0,0,1,.452-.038,2.089,2.089,0,0,1,1.282.415l1.583,1.282a2.866,2.866,0,0,1,.83,1.771l-.038.679a6.557,6.557,0,0,0,.83.942c.264.227.377,1.019.377,2.338a4.076,4.076,0,0,1-1.131,2.9l.038.83q0,1.922-1.245,2.036l-.64.037-.6.943-1.169.9a2.348,2.348,0,0,1-1.507.678,1.975,1.975,0,0,1-.868-.226,3.833,3.833,0,0,0-1.922.943l-1.321.15-1.357-.377-1.093.754h-.378l-.716-.037-.792-.188-.942-.189c-.792.151-1.886.3-2.376.414a.968.968,0,0,1-.716-.3l-.038-.076-.6-1.017-.641-1.094v-1.4a5.74,5.74,0,0,1-.981-.453c-.225-.188-.338-1.055-.338-2.639l.113-.566A2.992,2.992,0,0,1,740.667,507.119Z" fill="#000000"/><path d="M774.372,489.473l1.094-1.017.64.075a1.588,1.588,0,0,0,.453.037,5.3,5.3,0,0,0,1.545-.263l.3-.038c.227,0,.377.15.49.452l.416,1.282.49,1.094.15.754a6.357,6.357,0,0,1-.942,2.224,1.038,1.038,0,0,1,.565,1.019c0,.377-.226.64-.679.829a4.675,4.675,0,0,1-.792.075,7.228,7.228,0,0,1-1.583-.225h-.566c-.489.113-.942.942-1.319,2.45l-.037.377a6.406,6.406,0,0,1,.414,2.262,2.925,2.925,0,0,1-.528,1.7,4.218,4.218,0,0,1,.528,1.961l-.114.377-.263,1.432a5.262,5.262,0,0,0,.3,1.358l.49,1.207-.377,1.395v.112a4.089,4.089,0,0,1-.3,1.471l.227.453a4.843,4.843,0,0,1,.338,1.508,1.923,1.923,0,0,1-.376,1.094,3.178,3.178,0,0,1-.754.188c-.6,0-1.471-.6-1.773-.6a1.74,1.74,0,0,0-1.094.49l-1.092.037a1.509,1.509,0,0,1-.6-.225l-.49-.265-.3.038-1.394.49a6.6,6.6,0,0,1-1.245.264c-.792,0-1.169-.867-1.169-2.6l.038-1.771a4.1,4.1,0,0,1,.3-1.7c-.113-.641-.263-.641-.377-1.358a12.554,12.554,0,0,1,.453-2.563l.188-.6a8.062,8.062,0,0,1-.9-3.13,5.76,5.76,0,0,1,.188-1.546l.452-.792v-.263a4.373,4.373,0,0,0-.377-2.338c-.037-.113-.49-.226-1.319-.414l-1.207-.227-1.018.113c-.716.114-1.093-.339-1.093-1.319l.113-1.358a8.49,8.49,0,0,0,.415-1.206,1.922,1.922,0,0,0-.151-.755l-.189-.528V490.6l-.075-.565v-.377c0-.792.113-.867,1.659-1.131l.339-.038a4.717,4.717,0,0,1,2.188.452l.376.3.189-.264c.15,0,.641-.641,1.018-.566a2.408,2.408,0,0,1,.565.039l.188.037,1.056-.264a6.921,6.921,0,0,1,.717.566,1.4,1.4,0,0,0,.717.3,1,1,0,0,0,.527-.188c.6-.3.227-.415,1.244-.415a4.177,4.177,0,0,1,1.735.34Z" fill="#000000"/><path d="M698.857,554.182l1.206-1.169.377-.34-.075-.566a3.144,3.144,0,0,1,.906-1.659l.15-.942a4.218,4.218,0,0,1,1.094-2.111l.15-.868.038-.49-.264-.6a1.026,1.026,0,0,1,.226-.453l.3-.452c.113-.151.038-.453-.3-.942l-.49.037c-1.546,0-2.3-.49-2.3-1.471l.113-.979.038-.453.264-.981v-.15a6.78,6.78,0,0,1-.6-1.207c0-.264.113-.528.113-.678l.188-.755.075-.754a1.076,1.076,0,0,1,1.169-.754,1.49,1.49,0,0,1,.981.264l.339.679,1.433-.943,1.583.491h.453a4.691,4.691,0,0,0,.905-.076,16.93,16.93,0,0,1,2.224-.264.936.936,0,0,1,.377.038l.943.528,1.169-.34a3.881,3.881,0,0,1,.9-.188,1.1,1.1,0,0,1,1.056.6c0,.189.226.189.565.037l.981-.452.528-.038c1.244,0,1.885,1.019,1.885,3.017l1.093,1.207a1.8,1.8,0,0,1,.452,1.244l-.075,1.282a10.056,10.056,0,0,1-.075,1.244,4.016,4.016,0,0,0,.566,1.433,1.849,1.849,0,0,1,.829.264,2.3,2.3,0,0,1,.565,1.621,4.088,4.088,0,0,1-.3,1.47,6.729,6.729,0,0,0,1.056,1.622l.6.377a3.365,3.365,0,0,1,.377,1.395v-.377a6.342,6.342,0,0,0-.075,1.583l.717,1.169v1.546c0,.265.9.642,1.093.83v1.583a5.56,5.56,0,0,1,1.244,2.678c0,.791-.565,1.281-1.658,1.432h-.6c-.188-.339-.377-.528-.641-.565l-.113-.34-1.244.679a2.427,2.427,0,0,1-.792.188,6.665,6.665,0,0,1-2.036-.527l-1.433.452a1.814,1.814,0,0,1-.792.037,2.166,2.166,0,0,1-1.168-1.319c-.34-.792-.529-1.244-.641-1.433-.189-.415-.3-.942-1.207-.942a4.085,4.085,0,0,0-1.621.264l-1.433-.566-.565.226-.529.264-.226-.226a1.673,1.673,0,0,0-1.018-.339c-.867,0-1.244.3-1.508,1.206-.3,1.772-.83,2.677-1.545,2.677l-1.811-.566-1.771.3-.34.075-.943.114-.075.038-1.584.3-.792.076a1.428,1.428,0,0,1-1.357-1.131,4.3,4.3,0,0,1,.528-1.546l1.4-1.434a6.956,6.956,0,0,0,.112-1.885A5.848,5.848,0,0,0,698.857,554.182Zm11.576-4.374-.377.075a.947.947,0,0,0-.6.792,6.371,6.371,0,0,1,.038.942c0,.265-.415.265-.641.944,0,.715.377,1.092,1.282,1.092l.6.265c.716-.151,1.056-.415,1.056-.792l-.151-.642a1.975,1.975,0,0,1,.038-.791v-.716l-.377-.264a1.263,1.263,0,0,0-.377-.754A2.6,2.6,0,0,0,710.433,549.808Z" fill="#000000"/><path d="M730.035,535.706l.717-.075a2.771,2.771,0,0,1,1.621.528l.867-.151.906-.189a6.144,6.144,0,0,1,1.545,1.358,11.565,11.565,0,0,1,.641,1.7,6.9,6.9,0,0,1,1.621.9l.415,1.66.641.415c.49.3,1.207,1.432,1.7,1.168.264,0,.6.038.6-.566a2.029,2.029,0,0,0-.3-.754l-.038-.527.151-1.622a3.94,3.94,0,0,0,.527-.791,2.31,2.31,0,0,1-.678-.755l-.151-.527c0-1.245.6-1.886,1.772-1.886a11.961,11.961,0,0,1,2.338.264l.3.226.339.227a3.58,3.58,0,0,0,1.169-.415,11.016,11.016,0,0,0,1.7-.339.594.594,0,0,1,.452.037c.226.076.34.3.34.641v.868l.112.64.415,1.659a5.007,5.007,0,0,0-.3,1.7c0,.98.227,1.207.227,1.961-.227.49.415.377-.83,1.772l.415.452.565.641a.666.666,0,0,1,.189.49l-.226.679-.189.717v.6l-.038.489.3.755-.377.49-.038.339.038.906a8.594,8.594,0,0,0-.3,2.036,5.737,5.737,0,0,0,.076.791l.339,1.622a4.081,4.081,0,0,1-.3,1.281,2.652,2.652,0,0,0,.263,1.4,6.154,6.154,0,0,1,.227,1.583,10.263,10.263,0,0,1-.189,1.282c-.113.6-.641.9-1.545.9a1.912,1.912,0,0,1-1.094-.377l-.566-.6-1.207.678a2.345,2.345,0,0,1-.829.264c-.528,0-1.093-.414-1.734-1.244a8.221,8.221,0,0,1-.981-2l-1.206-.6a4.308,4.308,0,0,1-1.395-1.809v-.529a3.265,3.265,0,0,0-.113-.49,4.715,4.715,0,0,1-1.471-.64,7.289,7.289,0,0,1-1.168-1.245l-.378-.151c-.565,0-.829.3-.829.943l.038.716a5.154,5.154,0,0,1,.037.754,4.2,4.2,0,0,1-.037.755l-.642,1.319a6.205,6.205,0,0,1,.792,1.056l-.113,1.018.113.6.151.6c.113.565-.452.829-1.7.829h-1.017a3.074,3.074,0,0,0-.943-.377,3.235,3.235,0,0,0-1.32.377h-1.131a9.7,9.7,0,0,0-1.772.076c-1.206,0-1.659-.943-1.659-2.263a1.289,1.289,0,0,1,.3-.754l.377-.6-.3-.679-.076-.527-.075-.567v-.339l.075-.565a9.3,9.3,0,0,0-.075-1.094l-.34-1.017.038-.227.641-1.131a1.449,1.449,0,0,1-.527-1.093,1.716,1.716,0,0,1,.113-.6,4.285,4.285,0,0,1,.414-3.28l-.829-2.3c0-.339.641-1.018.679-1.206l-.339-.905c-.038-.189-.113-1.018-.113-1.131,0-1.056.225-2.753.225-2.979a3.61,3.61,0,0,0-.527-1.395l-.075-.3a1.549,1.549,0,0,1,.64-1.169,2.334,2.334,0,0,1,1.4-.49,1.471,1.471,0,0,1,1.131.415l.715.565Z" fill="#000000"/><path d="M752.127,539.1a8.27,8.27,0,0,1-.528-.868c0-1.545.641-2.413,1.885-2.526l.679-.037.339-.038.415.038,1.019.641.678-.264a3.465,3.465,0,0,1,.9-.34l1.055.189,1.019-.114.64.679,1.245-.754a2.031,2.031,0,0,1,.98-.188l.942.038a11.007,11.007,0,0,1,1.584.3l.754.6a1.85,1.85,0,0,1,1.508-.867,5.078,5.078,0,0,1,1.434.264,9.762,9.762,0,0,1,2.865,2.149l.49-.075.943.075a1.791,1.791,0,0,1,.942.6l.679,1.169-.151.641.981.076.15.112.113.189a7.231,7.231,0,0,1,1.395,1.7l.038.113.6.716a3.925,3.925,0,0,0,.188,1.244l.264.717-.189.717.717.527.037.189a1.867,1.867,0,0,1,.377,1.055l-.037,1.131v.642c-.038,0-.038,0-.075-.038a1.35,1.35,0,0,1-.567.98.954.954,0,0,0-.527.6,3.512,3.512,0,0,0,.227,1.056l.263,1.017a2.6,2.6,0,0,1-.49,1.32,5.753,5.753,0,0,0-1.282.981l.038.15a5.809,5.809,0,0,1-.3,1.32,7.166,7.166,0,0,1-1.169,1.508,4.756,4.756,0,0,1-2.677,1.583,3,3,0,0,1-2.413,1.621,11.315,11.315,0,0,1-2.828.567,5.757,5.757,0,0,1-1.659-.453l-1.357.34-1.471-.679c.151,0,.226.037-.339.339l-.98.34a13.757,13.757,0,0,1-1.508.075l-.981-.038h-.49l-.9.038c-.339,0-.566-.075-.641-.227l-.075-.225-1.509.452-.64.075a5.816,5.816,0,0,1-2.64-.377c-.414-.264-.641-.98-.641-2.186l.981-1.961-.641-1.622-.113-.942-.113-.83-.076-.829.076-1.094.415-.415a1.165,1.165,0,0,0,.414-.6l-.528-1.056-.151-1.734-.037-.792-.3-.943-.075-.415a3.25,3.25,0,0,1,.264-.942l.3-.906.528-.64-.491-1.358v-.9a3.738,3.738,0,0,0-.112-.9Zm11.5,14.328.641-.152.716-.6.943.038.075-.038a7.318,7.318,0,0,0,1.509-2.187l.867-.678.075-.415c.113-.339-.49-1.093-.565-2.187l.075-1.169-.038-.15a4.79,4.79,0,0,1-1.093-.529l-.453-1.13-.452.113-.452.113a.915.915,0,0,1-.491-.151l-.83-.452-.339-.039a2.146,2.146,0,0,0-.98,1.923,1.7,1.7,0,0,0,.038.491,4.406,4.406,0,0,1-.415,1.47l.264,1.433-.264.867.227,1.433C762.685,552.711,762.986,553.39,763.627,553.428Z" fill="#000000"/><path d="M604.8,582.807a4.485,4.485,0,0,1,1.056.188l.452.189.377-.076a5.139,5.139,0,0,1,1.093-.113,4.535,4.535,0,0,1,1.7.34c.188.075.565-.075,1.206-.415.263-.15.792.49,1.659,1.961l.15.452.34.942a2.854,2.854,0,0,1,1.056.6,7.617,7.617,0,0,1,.527,2.074,6.03,6.03,0,0,0,.189,1.168c.038.038.188.189.415.378s.415.3.528.414l.3,1.169a.54.54,0,0,0,.489.3,1.486,1.486,0,0,0,.528-.113l.529-.754a2.111,2.111,0,0,0,.715-1.32v-.113a2.193,2.193,0,0,1,.227-.98l.641-.416a3.652,3.652,0,0,0,.113-1.319,5.032,5.032,0,0,1-.717-2.488,1.194,1.194,0,0,1-1.017-1.207c0-.414.075-.641.263-.679a3.353,3.353,0,0,0,1.207.151l.905-.376h.188a7.619,7.619,0,0,1,1.659.188l.642-.076a4.435,4.435,0,0,1,1.885.641l1.282-.415a4.5,4.5,0,0,1,1.357-.15,9.532,9.532,0,0,0,1.583-.528l.754,1.131.642.754a1.136,1.136,0,0,1,.075.528l-.113.905a4.446,4.446,0,0,1,1.734,2.6q.169,1.243,1.131,1.244.51,0,1.471-1.019l.264-.414-.038-.679.264-.377.188-.453.717-.49a7.267,7.267,0,0,1,.754-1.244l.452-1.7c0-.114.415-.264,1.282-.452.415-.114,1.131.15,2.338.753l.415-.339.452-.414.716-.039-.037-.226c0-.189.189-.264.6-.264.188,0,.414.152.6.49l.981.415.6-.226.679-.339.527-.076c1.434,0,2.036.453,1.848,1.32a4.814,4.814,0,0,1-.9,1.735,4.851,4.851,0,0,0-.906.452,2.3,2.3,0,0,1,.227,1.131l-.867,1.093a7.351,7.351,0,0,0-.6,1.584,3.884,3.884,0,0,1-.452,1.244c-.151.151-.792.679-.83,1.131l.038.339v1.094a5.233,5.233,0,0,0-.075.679l-.528.188-1.056,2-.717,2.376-1.394.9L639,601.282l-.83,1.433a1.24,1.24,0,0,0-.226.792,8.874,8.874,0,0,0,.679,1.847,2.749,2.749,0,0,1,.075.641.889.889,0,0,1-.98,1.018l-.377-.075c-.151.376-1.734.678-2.64,1.772l-.716.867-.792-.226-.6-.114a2.126,2.126,0,0,0-1.206.567l-.6.565c-.415,0-.754-.377-1.018-1.094l-.6-1.621a5.546,5.546,0,0,0-.264-1.432l-.076-.152-.942-1.017a5.917,5.917,0,0,1-1.056-1.169,7.385,7.385,0,0,0-.188-1.621,3.357,3.357,0,0,1-1.094-.755l-.339-1.357c-.415-.716-.717-1.131-.9-1.169a1.058,1.058,0,0,0-.339.189l-.792.565a3.582,3.582,0,0,0-.565.792l-.114,1.018a4.181,4.181,0,0,1-1.055.792,4.409,4.409,0,0,1-.265.9l-.527.792-.075.377a7.2,7.2,0,0,0,.225,1.32,1.648,1.648,0,0,0,.265.792l-1.244.3-1.4.415-1.319,1.207-.113.075-1.433-.075-.453.414-.414.114-.415.98a1.92,1.92,0,0,1-.717.754,1.488,1.488,0,0,1-.49.113.975.975,0,0,1-.791-.452l-.038-.076-.453-.754-.038-.075-.037-1.735a1.936,1.936,0,0,0-.6-.98l-.6-.867-.528-.981c-.037-.15-.151-1.055-.189-1.244l-.452-.15c-.263-.113-.527-.453-.792-1.094l.038-.15a3.23,3.23,0,0,0-.377-1.735l-.716-.453a6.592,6.592,0,0,1-1.47-3.694,7.9,7.9,0,0,1-1.659-1.207,2.648,2.648,0,0,1-.265-1.018,5.577,5.577,0,0,0-.188-1.47l-.641-1.056c-.3-.452-1.659-1.169-1.923-2.188l-.113-1.809a4.446,4.446,0,0,0-1.508-2.564,2.149,2.149,0,0,1-.34-1.207.789.789,0,0,1,.9-.867,4.528,4.528,0,0,1,.83.075l1.659.114.98.415C603.742,583.07,604.081,582.807,604.8,582.807Z" fill="#000000"/><path d="M649.245,582.958a5.718,5.718,0,0,1,1.734.527l1.056-.678a9.285,9.285,0,0,1,1.471.038l1.471.49a6.193,6.193,0,0,1,.9-.942,1.112,1.112,0,0,1,.717.15l.6.188.226.415,1.32-.49.716.377.83.377c.49.151.9-.528,1.7-.867l.264.075c.188.038.265.038.3.075.905,0,1.47.227,1.734.717l-.226.943.151.49a.522.522,0,0,1,.226.415,4.118,4.118,0,0,0,.038.829l.113.226a1.218,1.218,0,0,1-.679,1.056l.264.339a3.243,3.243,0,0,1,.34,1.019c.15.6-.227,1.13-.981,1.319l-.942.151a4.446,4.446,0,0,1-.642.037h-.339c-.075-.037-.942-.452-1.017-.49-1.811,0-2.791.981-2.791,1.7a1.352,1.352,0,0,0,.226.6.828.828,0,0,0,.529.3l.414-.113a1.285,1.285,0,0,1,.453-.113l1.281.3,1.094-.038.34-.038.754-.075a1.411,1.411,0,0,1,1.168.339.946.946,0,0,1,.3.943.879.879,0,0,1-.377.754l.717,1.922-.49,1.019a1.812,1.812,0,0,1-.905.189,5.953,5.953,0,0,1-1.358-.189l-.452.226-.527.226a3.314,3.314,0,0,1-.717-.188l-.264-.075a2.054,2.054,0,0,0-1.018.225,3.324,3.324,0,0,0-1.131.265l-.075,1.583.075.452c.263,1.245.792,1.848,1.584,1.848a2.019,2.019,0,0,0,.979-.264l.567-.3.829-.264.15.189a.732.732,0,0,0,.642.227l.565-.227.679-.264c.15,0,.452.226.867.679a1.377,1.377,0,0,1,.527,1.056l-.037.414-.3.717a3.382,3.382,0,0,1,.415,1.507c0,.453-.152.755-.265.792l-.189.227a14.362,14.362,0,0,1,.227,2.073c0,.642-.227.943-.679.943l-.98-.113-1.358-.188a4.124,4.124,0,0,0-1.659.225l-1.658.415c-.265-.113-.415-.113-.867-.3l-.943-.3h.113a1.16,1.16,0,0,1-.49.226l-.9.3-.415-.3a1.2,1.2,0,0,0-.717-.377,1.861,1.861,0,0,0-.678.189l-.641.188h-.339l-1.094-.377-.753.227a2.161,2.161,0,0,1-.792.226c-1.32.113-2-.566-2-2.112a3.126,3.126,0,0,1,.188-1.282c-.265-1.244-.34-1.433-.377-1.7a1.529,1.529,0,0,1,.3-.906l.452-.6-.34-.792L648,600.528v-.151l.717-1.244-.34-.905-.037-.98a3.888,3.888,0,0,1,.188-.717l.264-.717v-.452l-.377-1.244a3.028,3.028,0,0,1-.151-1.017,7.235,7.235,0,0,1,.792-2.6l-.491-.566a1.444,1.444,0,0,1-.452-.791,15.368,15.368,0,0,1,.415-2.188,3.38,3.38,0,0,0,.528-.527c-.189-.265-.679-1.056-.868-1.4l-.075-.527v-.528a1.729,1.729,0,0,0,.114-.491A1.361,1.361,0,0,1,649.245,582.958Z" fill="#000000"/><path d="M667.982,601.282l1.206-1.169.377-.34-.075-.565a3.144,3.144,0,0,1,.906-1.659l.15-.943a4.225,4.225,0,0,1,1.094-2.111l.15-.867.038-.49-.264-.6a1.029,1.029,0,0,1,.226-.452l.3-.452c.113-.151.038-.452-.3-.942l-.49.037c-1.546,0-2.3-.491-2.3-1.471l.113-.98.038-.453.264-.98v-.151a6.707,6.707,0,0,1-.6-1.207c0-.263.113-.527.113-.677l.188-.755.075-.754a1.076,1.076,0,0,1,1.169-.754,1.49,1.49,0,0,1,.981.264l.339.678,1.433-.942,1.583.49h.453a4.794,4.794,0,0,0,.905-.075,16.969,16.969,0,0,1,2.224-.265.936.936,0,0,1,.377.038l.943.529,1.169-.34a3.935,3.935,0,0,1,.9-.189,1.1,1.1,0,0,1,1.056.6c0,.188.226.188.565.037l.981-.452.528-.038c1.244,0,1.885,1.018,1.885,3.016l1.093,1.207a1.8,1.8,0,0,1,.452,1.245l-.075,1.282a10.083,10.083,0,0,1-.075,1.244,4.016,4.016,0,0,0,.566,1.433,1.858,1.858,0,0,1,.829.263,2.3,2.3,0,0,1,.565,1.621,4.089,4.089,0,0,1-.3,1.471,6.7,6.7,0,0,0,1.056,1.621l.6.377a3.372,3.372,0,0,1,.377,1.4v-.377a6.334,6.334,0,0,0-.075,1.583l.717,1.169v1.546c0,.263.9.641,1.093.83v1.583a5.563,5.563,0,0,1,1.244,2.676c0,.792-.565,1.283-1.658,1.434h-.6c-.188-.34-.377-.528-.641-.565l-.113-.34-1.244.678a2.4,2.4,0,0,1-.792.189,6.7,6.7,0,0,1-2.036-.527l-1.433.452a1.814,1.814,0,0,1-.792.037,2.171,2.171,0,0,1-1.168-1.32c-.34-.792-.529-1.244-.641-1.432-.189-.415-.3-.943-1.207-.943A4.085,4.085,0,0,0,680.8,606l-1.433-.565-.565.226-.529.264-.226-.227a1.68,1.68,0,0,0-1.018-.339c-.867,0-1.244.3-1.508,1.207-.3,1.772-.83,2.676-1.545,2.676l-1.811-.565-1.771.3-.34.075-.943.113-.075.038-1.584.3-.792.075a1.427,1.427,0,0,1-1.357-1.131,4.3,4.3,0,0,1,.528-1.546l1.4-1.433a6.956,6.956,0,0,0,.112-1.885A5.862,5.862,0,0,0,667.982,601.282Zm11.576-4.374-.377.075a.949.949,0,0,0-.6.792,6.393,6.393,0,0,1,.038.943c0,.264-.415.264-.641.943,0,.716.377,1.093,1.282,1.093l.6.265c.716-.152,1.056-.415,1.056-.792l-.151-.642a1.974,1.974,0,0,1,.038-.791v-.717l-.377-.264a1.261,1.261,0,0,0-.377-.753A2.514,2.514,0,0,0,679.558,596.908Z" fill="#000000"/><path d="M694.749,587.784a5.749,5.749,0,0,1,.452-2.111,7.307,7.307,0,0,1-.263-1.886l.263-.829a2.035,2.035,0,0,1,1.056-.34,3.036,3.036,0,0,1,1.509.528c.225-.076.9-.6,1.319-.6l.528.075.981.642.6-.114,1.056-.565h1.282c1.546,0,1.961.15,1.961,1.168a1.983,1.983,0,0,1-.453,1.434l-.3,1.357.489,1.168a3.028,3.028,0,0,1,.114,1.132c0,.113.076.15.264.15s.566.075.905-.64a4.552,4.552,0,0,1,1.885-1.321c.3-1.546.791-2,2.337-2.752.944-.339,1.132-1.546,1.546-1.884a2.333,2.333,0,0,1,1.434-.265l.264.415c.113.227.225.377.338.415l1.433.527a4.58,4.58,0,0,1,1.848,2l-.037,1.057a2.521,2.521,0,0,1,1.244.489l.377.529.113.565c0,.565-.227.867-.717.867l-.452-.113A12,12,0,0,1,717,590.461l-1.245.377-.075.075-.189,1.019-2.186,1.394c-.415.227-.641.943-.641,2.112a1.727,1.727,0,0,0,.264.791l.452.906.6-.075c.565,0,1.168.414,1.884,1.206s1.283,1.244,1.659,1.282a3.317,3.317,0,0,1,1.131-.152c.415.077.642.377.642.906a3.112,3.112,0,0,0-.6,1.508,8.776,8.776,0,0,0,.6,1.961c.113.3,0,.716-.415,1.282a2.545,2.545,0,0,1,.264.867,10.239,10.239,0,0,1-.566,1.885l.34,1.432c.112.415-.415.415-1.132.529l-1.47-.754-.339.15a6.549,6.549,0,0,1-1.056.377,2.626,2.626,0,0,1-2.677-2,3.943,3.943,0,0,1-3.016-1.433,4.763,4.763,0,0,0-.83-1.7,2.675,2.675,0,0,1-1.093-.339,2.1,2.1,0,0,1-.641-.792l-.528-.867a1.358,1.358,0,0,0-.867-.641l.151,1.056.037.377.3,1.471a3.1,3.1,0,0,0-1.018,1.96l.037.34a1.379,1.379,0,0,1,.754,1.092c0,.491-.414.869-1.206,1.057l-.98.15a2.18,2.18,0,0,1-1.621-.64,3.131,3.131,0,0,1-2.037.716,5.36,5.36,0,0,1-1.922-.377,2.85,2.85,0,0,0-.415-.227c-.264-.112-.83.038-1.7.528l-.113.038q-.282,0-.565-.678l.225-1.321-.112-.753-.19-.641a4.5,4.5,0,0,1,.114-1.32,11.728,11.728,0,0,0,.6-1.47v-.151l-.64-1.093L694.9,600.6v-.34l.454-1.47v-.189l-.415-1.584.113-.867.15-.867-.263-1.659-.114-.49a7.811,7.811,0,0,1-.037-.829,6.347,6.347,0,0,1,.414-2.075l.038-.225a2.106,2.106,0,0,0-.263-.9A3.865,3.865,0,0,1,694.749,587.784Z" fill="#000000"/><path d="M721.817,582.958a5.722,5.722,0,0,1,1.735.527l1.055-.678a9.285,9.285,0,0,1,1.471.038l1.471.49a6.193,6.193,0,0,1,.9-.942,1.111,1.111,0,0,1,.717.15l.6.188.226.415,1.32-.49.716.377.83.377c.49.151.9-.528,1.7-.867l.263.075c.189.038.265.038.3.075.905,0,1.471.227,1.734.717l-.225.943.15.49a.52.52,0,0,1,.227.415,4.228,4.228,0,0,0,.037.829l.113.226a1.216,1.216,0,0,1-.679,1.056l.264.339a3.218,3.218,0,0,1,.34,1.019c.15.6-.227,1.13-.981,1.319l-.942.151a4.446,4.446,0,0,1-.642.037h-.338c-.076-.037-.943-.452-1.018-.49-1.811,0-2.791.981-2.791,1.7a1.344,1.344,0,0,0,.227.6.823.823,0,0,0,.528.3l.414-.113a1.29,1.29,0,0,1,.453-.113l1.281.3,1.094-.038.34-.038.754-.075a1.413,1.413,0,0,1,1.169.339.948.948,0,0,1,.3.943.881.881,0,0,1-.377.754l.716,1.922-.49,1.019a1.809,1.809,0,0,1-.9.189,5.953,5.953,0,0,1-1.358-.189l-.452.226-.527.226a3.328,3.328,0,0,1-.717-.188l-.264-.075a2.054,2.054,0,0,0-1.018.225,3.324,3.324,0,0,0-1.131.265l-.075,1.583.075.452c.264,1.245.792,1.848,1.584,1.848a2.022,2.022,0,0,0,.98-.264l.566-.3.829-.264.15.189a.733.733,0,0,0,.642.227l.565-.227.679-.264c.151,0,.452.226.867.679a1.379,1.379,0,0,1,.528,1.056l-.037.414-.3.717a3.369,3.369,0,0,1,.415,1.507c0,.453-.151.755-.265.792l-.188.227a14.472,14.472,0,0,1,.226,2.073c0,.642-.226.943-.678.943l-.981-.113-1.357-.188a4.12,4.12,0,0,0-1.659.225l-1.659.415c-.264-.113-.415-.113-.867-.3l-.943-.3h.113a1.16,1.16,0,0,1-.49.226l-.9.3-.416-.3a1.2,1.2,0,0,0-.716-.377,1.866,1.866,0,0,0-.679.189l-.641.188h-.338l-1.094-.377-.754.227a2.161,2.161,0,0,1-.792.226c-1.319.113-2-.566-2-2.112a3.126,3.126,0,0,1,.188-1.282c-.264-1.244-.34-1.433-.377-1.7a1.535,1.535,0,0,1,.3-.906l.452-.6-.34-.792-.452-1.433v-.151l.717-1.244-.34-.905-.037-.98a3.838,3.838,0,0,1,.189-.717l.263-.717v-.452l-.377-1.244a3.028,3.028,0,0,1-.151-1.017,7.256,7.256,0,0,1,.792-2.6l-.49-.566a1.437,1.437,0,0,1-.452-.791,15.215,15.215,0,0,1,.415-2.188,3.431,3.431,0,0,0,.527-.527c-.189-.265-.679-1.056-.867-1.4l-.075-.527v-.528a1.719,1.719,0,0,0,.113-.491A1.362,1.362,0,0,1,721.817,582.958Z" fill="#000000"/><path d="M740.667,601.319a3.042,3.042,0,0,1,2,.642l.754-.151.679-.189,1.244.528c.075.038.263-.038.6-.151l.6-.264a1.3,1.3,0,0,1,.829.377l.792.038a2.079,2.079,0,0,0,.942-.188c.227-.528.717-.867.717-1.433a1.416,1.416,0,0,0-.641-1.018l-1.508-.49a5.663,5.663,0,0,0-.906-1.093,4.087,4.087,0,0,1-2.714-1.471l-.566-.6a3.394,3.394,0,0,1-2.94-2.187l.037-.83-.113-.527-.415-.679-.075-.566a3.708,3.708,0,0,1,.679-1.885l.075-1.471a6.5,6.5,0,0,1,2.073-3.732,4.374,4.374,0,0,1,2.338-1.283l1.018.114a5.982,5.982,0,0,0,1.018.113l.566-.264.641-.34a5.055,5.055,0,0,1,3.808-1.206,8.785,8.785,0,0,1,1.471.226c-.113-.112.15-.377.754-.716l1.282.075.942-.075a1.881,1.881,0,0,1,1.923,1.734l.452.83.038.076.038,1.583a7.586,7.586,0,0,1,.9,1.094,2.779,2.779,0,0,1,.188,1.055l-.113.6a1.079,1.079,0,0,1-1.093.829,2.026,2.026,0,0,1-.98-.415,1.8,1.8,0,0,0-.867-.414,4.136,4.136,0,0,0-1.245.3l-1.47-.376-.566.3-.98.377-1.4-.678a1.311,1.311,0,0,0-.829.49,1.689,1.689,0,0,0-.415.867,2.472,2.472,0,0,0,1.132,1.772l.829.114a3.552,3.552,0,0,1,2.715,1.621,1.971,1.971,0,0,1,.452-.038,2.089,2.089,0,0,1,1.282.415l1.583,1.282a2.866,2.866,0,0,1,.83,1.771l-.038.679a6.54,6.54,0,0,0,.83.944c.264.225.377,1.017.377,2.336a4.072,4.072,0,0,1-1.131,2.9l.038.83q0,1.922-1.245,2.036l-.64.037-.6.943-1.169.9a2.348,2.348,0,0,1-1.507.678,1.975,1.975,0,0,1-.868-.226,3.833,3.833,0,0,0-1.922.943l-1.321.151-1.357-.377-1.093.754h-.378l-.716-.038-.792-.188-.942-.188c-.792.15-1.886.3-2.376.414a.969.969,0,0,1-.716-.3l-.038-.075-.6-1.018-.641-1.094v-1.395a5.7,5.7,0,0,1-.981-.452c-.225-.189-.338-1.056-.338-2.64l.113-.565A2.983,2.983,0,0,1,740.667,601.319Z" fill="#000000"/><path d="M774.56,583.674l1.093-1.018.641.075a1.5,1.5,0,0,0,.452.039,5.319,5.319,0,0,0,1.546-.265l.3-.037c.226,0,.377.15.49.452l.415,1.282.49,1.093.151.755a6.346,6.346,0,0,1-.943,2.224,1.038,1.038,0,0,1,.566,1.018c0,.377-.227.641-.679.829a4.678,4.678,0,0,1-.792.076,7.239,7.239,0,0,1-1.583-.226h-.566c-.49.113-.943.942-1.32,2.451l-.037.377a6.375,6.375,0,0,1,.414,2.262,2.924,2.924,0,0,1-.527,1.7,4.21,4.21,0,0,1,.527,1.96l-.113.377-.264,1.433a5.322,5.322,0,0,0,.3,1.358l.49,1.206-.377,1.395v.113a4.108,4.108,0,0,1-.3,1.47l.226.453a4.821,4.821,0,0,1,.339,1.508,1.917,1.917,0,0,1-.377,1.094,3.152,3.152,0,0,1-.754.188c-.6,0-1.471-.6-1.772-.6a1.74,1.74,0,0,0-1.094.49l-1.093.037a1.506,1.506,0,0,1-.6-.225l-.491-.265-.3.038-1.4.49a6.509,6.509,0,0,1-1.244.264c-.792,0-1.169-.867-1.169-2.6l.037-1.772a4.089,4.089,0,0,1,.3-1.7c-.113-.641-.264-.641-.377-1.358a12.531,12.531,0,0,1,.452-2.563l.189-.6a8.063,8.063,0,0,1-.9-3.13,5.721,5.721,0,0,1,.189-1.545l.452-.791v-.265a4.367,4.367,0,0,0-.377-2.337c-.037-.113-.49-.227-1.319-.415l-1.207-.227-1.018.114c-.717.113-1.094-.339-1.094-1.32l.113-1.357a8.442,8.442,0,0,0,.416-1.207,1.923,1.923,0,0,0-.152-.754l-.188-.527v-.377l-.076-.567v-.377c0-.792.114-.867,1.66-1.131l.339-.038a4.709,4.709,0,0,1,2.187.453l.377.3.188-.264c.151,0,.641-.641,1.018-.566a2.465,2.465,0,0,1,.565.038l.189.037,1.056-.263a7.046,7.046,0,0,1,.716.565,1.4,1.4,0,0,0,.717.3.994.994,0,0,0,.528-.189c.6-.3.226-.415,1.244-.415a4.188,4.188,0,0,1,1.734.34Z" fill="#000000"/><path d="M592.81,640.8l-.151-.641a3.189,3.189,0,0,1,.754-1.885l1.433-1.47.377-.377.339-.3.49-.754a5.413,5.413,0,0,1,.717-1.811,1.344,1.344,0,0,1,.942-.263l.83-.151a4.636,4.636,0,0,0,1.395-1.282l.6-.83a4.189,4.189,0,0,1,2.073-.565l1.584.151,2.79-.792,1.283-.264a3.914,3.914,0,0,1,.792.076,4.744,4.744,0,0,0,1.092.377l.491-.039.3-.3a.716.716,0,0,1,.491-.189,1.057,1.057,0,0,1,.565.151l.942.452h.34a2.072,2.072,0,0,1,1.433-.491c1.131,0,1.7.454,1.7,1.321a3.51,3.51,0,0,1-.377,1.47l.152.226c.075-.038.225.415.452,1.621a2.106,2.106,0,0,1-.528,1.32c-.151.038.414,1.093.452,1.169l.151.868c0,.754-.6.979-1.244.979h-.3l-.98-.754-.9.6a2.886,2.886,0,0,1-1.621.6,1.9,1.9,0,0,1-1.357-.678l-.642-.679-.791,1.093a5.866,5.866,0,0,1-1.169.151l-.641.113-.151.452a2.159,2.159,0,0,1-1.7,1.206,1.92,1.92,0,0,0-.6.077c0,.527.339,1.771.339,2.6l-.15.377-.113.377.792.829-.076,1.132a3.233,3.233,0,0,1,.566-.038c.754,0,1.131.15,1.583,1.508l.415.34a.138.138,0,0,1-.113-.038,2.991,2.991,0,0,1,.6-.151l1.131-.188,1.244.715c0-.791.3-.942.565-.942a1.841,1.841,0,0,1,.679.189l.076.075,1.169-.339a4.841,4.841,0,0,1,1.47-.34c1.32,0,2,.717,2,2.188a3.224,3.224,0,0,1-.265,1.357l.227.414.188,1.019a3.759,3.759,0,0,1-.263,1.357v.98l.075.791.038.265q.284.962-1.7,1.244l-1.395.189-1.357-.264a.942.942,0,0,0-.377-.038,2.02,2.02,0,0,0-.755.188l-1.546.6-1.244-.34-1.395-.452-.49-.15c-.263.188-.565.414-1.055.715l-1.169-.338a2.423,2.423,0,0,1-.981-.491,8.752,8.752,0,0,0-1.244.339l-.3-.037a1.607,1.607,0,0,0-.49-.642l-.452-.188a7.83,7.83,0,0,0-2.79-1.433c-.529-.113-.981-.792-1.321-1.961a9.887,9.887,0,0,1-1.168-.527,6.467,6.467,0,0,1-1.772-2.79,12.808,12.808,0,0,1-.188-2.564,3.724,3.724,0,0,0-1.131-1.508l-.076-.264a2.182,2.182,0,0,1,.264-.792l.3-.942v-1.358A2.042,2.042,0,0,0,592.81,640.8Z" fill="#000000"/><path d="M621.914,630.02h.113l1.621.038a6.643,6.643,0,0,1,1.735.075,2.333,2.333,0,0,1,.717.226l.452.189c.377,0,.717-.265,1.055-.792l.039.414a2.435,2.435,0,0,1,1.47-.452,2.577,2.577,0,0,1,1.395.415,5.978,5.978,0,0,1,1.546-.34,8.048,8.048,0,0,1,1.018-.037h.6a4.878,4.878,0,0,1,3.092,1.471l.83-.265c.338-.075.942.453,1.771,1.546l.265.453a2.93,2.93,0,0,1,1.7,1.658,4.456,4.456,0,0,1,.6,1.584,1.8,1.8,0,0,1-.377,1.094c.225.414.98.112,1.017,1.432,0,.264,0,.679-.037,1.283s-.038.979-.038,1.131a5.432,5.432,0,0,1-.792,1.319l-.113,1.056a4.04,4.04,0,0,1-2,2.9l-.415-.037a1.818,1.818,0,0,0-1.47.867c-.151.264.225.6,1.093,1.056l1.32.49c.112,0,.3-.151.527-.415a1.327,1.327,0,0,1,1.056-.6c.642,0,.98.641.98,1.923a3.968,3.968,0,0,1-.415,1.659l.152.528.188.49c.075.188,0,.528-.263,1.094a.646.646,0,0,0-.6.6l.037.151c.49.6.83.98.867,1.244,0,.792-.754,1.169-1.546,1.169l-.829-.037-.452-.039a2.914,2.914,0,0,1-1.847-.527,4.352,4.352,0,0,1-1.886.527,4.28,4.28,0,0,1-3.2-1.922,3.207,3.207,0,0,1-1.924-1.207c-.6-.716-1.056-1.131-1.395-1.168q-.508,0-.9,1.13l-.15.679.037.075.226.529.076.377c0,1.092-.377,1.621-1.131,1.621a2.673,2.673,0,0,1-1.7-.6,3.091,3.091,0,0,1-1.622.452,3.435,3.435,0,0,1-1.319-.263l-.49-.3a2.762,2.762,0,0,1-2.112.754c-1.13,0-2.186-.339-2.186-1.96a2.038,2.038,0,0,1,.037-.528l.113-1.508a2.814,2.814,0,0,1,.3-1.433,3.294,3.294,0,0,0,.038-.528,2.276,2.276,0,0,0-.226-.9.655.655,0,0,0-.227-.454l-.075-.338a3.232,3.232,0,0,1,.565-1.961l-.452-1.131a4.406,4.406,0,0,1-.15-1.471q0-.735.112-2.036a3.779,3.779,0,0,1,.717-2.073l-.717-.981c0-1.169,0-2.451.038-3.846a.74.74,0,0,0,.6-.791l-.038-.152c-.339-.414-.83-1.056-.943-1.168a1.858,1.858,0,0,1-.038-.566,8.585,8.585,0,0,1,.227-1.47,1.256,1.256,0,0,1,1.282-1.094,1.317,1.317,0,0,1,.829.339A3.472,3.472,0,0,1,621.914,630.02Zm7.353,13.649a4.108,4.108,0,0,1-.566,1.621l1.358.9.64-.112a1.615,1.615,0,0,1,.529-.9l.753-.641a10.4,10.4,0,0,1,.3-1.622,5.342,5.342,0,0,1,.566-1.394,3.937,3.937,0,0,0-.717-1.245c.151-.565.188-1.093.3-1.432a5.236,5.236,0,0,0-.9-1.811l-.415-.678h-.754a2.27,2.27,0,0,0-2,1.622l.529.829a1.727,1.727,0,0,1,.3.905,1.579,1.579,0,0,1-.226.791l-.566,1.019-.038.338.679.567A3.611,3.611,0,0,1,629.267,643.669Z" fill="#000000"/><path d="M645.514,630.058a5.718,5.718,0,0,1,1.734.527l1.056-.679a9.276,9.276,0,0,1,1.47.038l1.471.491a6.239,6.239,0,0,1,.9-.943,1.113,1.113,0,0,1,.717.151l.6.188.225.415,1.321-.49.715.377.831.377c.49.15.9-.529,1.7-.867l.263.075c.189.038.265.038.3.075.906,0,1.471.227,1.735.717l-.226.942.15.49a.523.523,0,0,1,.227.415,4.246,4.246,0,0,0,.037.83l.113.226a1.218,1.218,0,0,1-.678,1.056l.263.339a3.178,3.178,0,0,1,.34,1.018c.151.6-.226,1.131-.98,1.32l-.943.151a4.434,4.434,0,0,1-.641.037h-.339c-.075-.037-.943-.452-1.018-.49-1.81,0-2.791.98-2.791,1.7a1.348,1.348,0,0,0,.227.6.825.825,0,0,0,.528.3l.414-.112a1.3,1.3,0,0,1,.453-.113l1.282.3,1.093-.038.34-.038.754-.075a1.409,1.409,0,0,1,1.169.34.944.944,0,0,1,.3.942.876.876,0,0,1-.377.754l.717,1.923-.491,1.019a1.81,1.81,0,0,1-.9.188,5.924,5.924,0,0,1-1.357-.188l-.452.225-.528.227a3.289,3.289,0,0,1-.717-.189l-.263-.075a2.059,2.059,0,0,0-1.019.226,3.352,3.352,0,0,0-1.131.264l-.075,1.583.075.453c.264,1.245.792,1.847,1.584,1.847a2.027,2.027,0,0,0,.981-.263l.565-.3.829-.264.151.189a.73.73,0,0,0,.641.226l.566-.226.678-.264c.151,0,.453.225.868.679a1.375,1.375,0,0,1,.528,1.055l-.038.414-.3.717a3.373,3.373,0,0,1,.415,1.508c0,.453-.151.755-.264.792l-.189.226a14.534,14.534,0,0,1,.227,2.074c0,.641-.227.943-.679.943l-.981-.113-1.357-.189a4.1,4.1,0,0,0-1.658.226l-1.659.415c-.265-.113-.415-.113-.868-.3l-.943-.3h.113a1.14,1.14,0,0,1-.49.227l-.9.3-.415-.3a1.2,1.2,0,0,0-.717-.377,1.851,1.851,0,0,0-.679.189l-.64.188h-.339L648.04,656l-.754.227a2.151,2.151,0,0,1-.792.225c-1.319.113-2-.565-2-2.111a3.1,3.1,0,0,1,.189-1.282c-.265-1.245-.34-1.433-.377-1.7a1.54,1.54,0,0,1,.3-.9l.454-.6-.34-.792-.452-1.433v-.151l.716-1.245-.34-.9-.038-.979a3.94,3.94,0,0,1,.19-.717l.264-.717v-.452l-.377-1.244a3.009,3.009,0,0,1-.152-1.018,7.258,7.258,0,0,1,.792-2.6l-.49-.567a1.434,1.434,0,0,1-.452-.791,15.211,15.211,0,0,1,.415-2.187,3.359,3.359,0,0,0,.527-.528c-.188-.264-.679-1.055-.867-1.395l-.075-.527v-.529a1.714,1.714,0,0,0,.113-.49A1.364,1.364,0,0,1,645.514,630.058Z" fill="#000000"/><path d="M664.25,648.382l1.206-1.169.377-.34-.075-.565a3.15,3.15,0,0,1,.9-1.66l.15-.942a4.238,4.238,0,0,1,1.094-2.111l.151-.867.038-.491-.264-.6a1,1,0,0,1,.226-.452l.3-.453c.114-.151.038-.452-.3-.942l-.491.037c-1.546,0-2.3-.49-2.3-1.47l.113-.98.038-.453.264-.981v-.15a6.69,6.69,0,0,1-.6-1.207c0-.264.113-.527.113-.678l.189-.755.075-.754a1.074,1.074,0,0,1,1.169-.753,1.492,1.492,0,0,1,.98.263l.339.679,1.434-.942,1.583.49h.453a4.781,4.781,0,0,0,.9-.075,16.788,16.788,0,0,1,2.225-.265.939.939,0,0,1,.377.038l.942.528,1.169-.339a3.851,3.851,0,0,1,.906-.189,1.1,1.1,0,0,1,1.055.6c0,.188.227.188.566.037l.98-.452.528-.039c1.245,0,1.885,1.019,1.885,3.017l1.094,1.207a1.8,1.8,0,0,1,.452,1.244l-.075,1.282a10.088,10.088,0,0,1-.075,1.245,4.012,4.012,0,0,0,.565,1.432,1.846,1.846,0,0,1,.829.264,2.3,2.3,0,0,1,.566,1.621,4.119,4.119,0,0,1-.3,1.471,6.694,6.694,0,0,0,1.056,1.621l.6.377a3.365,3.365,0,0,1,.377,1.4v-.377a6.35,6.35,0,0,0-.075,1.583l.717,1.169v1.546c0,.264.9.642,1.092.83v1.583a5.566,5.566,0,0,1,1.245,2.677c0,.792-.566,1.282-1.659,1.434h-.6c-.189-.34-.377-.529-.642-.566L688,655.7l-1.244.679a2.434,2.434,0,0,1-.792.188,6.665,6.665,0,0,1-2.036-.527l-1.433.452a1.815,1.815,0,0,1-.792.037,2.17,2.17,0,0,1-1.169-1.319c-.34-.792-.528-1.244-.641-1.433-.188-.415-.3-.942-1.207-.942a4.09,4.09,0,0,0-1.621.264l-1.432-.566-.566.227-.528.264-.227-.227a1.671,1.671,0,0,0-1.017-.339c-.867,0-1.244.3-1.508,1.206-.3,1.773-.83,2.677-1.546,2.677l-1.81-.566-1.772.3-.34.075-.942.114-.075.038-1.584.3-.792.075a1.43,1.43,0,0,1-1.358-1.131A4.309,4.309,0,0,1,662.1,654l1.395-1.434a6.945,6.945,0,0,0,.112-1.884A5.838,5.838,0,0,0,664.25,648.382Zm11.575-4.374-.377.075a.946.946,0,0,0-.6.792,6.378,6.378,0,0,1,.038.942c0,.265-.415.265-.642.944,0,.716.377,1.093,1.282,1.093l.6.264c.716-.151,1.056-.415,1.056-.792l-.152-.641a1.974,1.974,0,0,1,.038-.791v-.717l-.377-.264a1.265,1.265,0,0,0-.377-.754A2.574,2.574,0,0,0,675.825,644.008Z" fill="#000000"/><path d="M703.874,630.773l1.094-1.017.64.075a1.547,1.547,0,0,0,.453.038,5.274,5.274,0,0,0,1.545-.265l.3-.037c.227,0,.377.151.49.453l.415,1.282.491,1.093.15.754a6.366,6.366,0,0,1-.942,2.225,1.035,1.035,0,0,1,.565,1.018c0,.377-.226.64-.679.829a4.667,4.667,0,0,1-.792.076,7.188,7.188,0,0,1-1.583-.227h-.566c-.489.114-.942.943-1.319,2.451l-.037.377a6.406,6.406,0,0,1,.414,2.262,2.923,2.923,0,0,1-.528,1.7,4.217,4.217,0,0,1,.528,1.96l-.114.377-.263,1.434a5.3,5.3,0,0,0,.3,1.357l.491,1.206-.377,1.4v.112a4.115,4.115,0,0,1-.3,1.471l.227.453a4.843,4.843,0,0,1,.338,1.508,1.917,1.917,0,0,1-.377,1.094,3.155,3.155,0,0,1-.753.188c-.6,0-1.471-.6-1.773-.6a1.74,1.74,0,0,0-1.094.49l-1.092.037a1.5,1.5,0,0,1-.6-.226l-.49-.264-.3.038-1.394.49a6.6,6.6,0,0,1-1.245.264c-.792,0-1.169-.868-1.169-2.6l.038-1.771a4.108,4.108,0,0,1,.3-1.7c-.113-.64-.263-.64-.377-1.357a12.571,12.571,0,0,1,.453-2.564l.188-.6a8.058,8.058,0,0,1-.9-3.13,5.769,5.769,0,0,1,.188-1.546l.452-.791v-.265a4.36,4.36,0,0,0-.377-2.336c-.037-.114-.49-.227-1.319-.415l-1.207-.227-1.018.113c-.716.114-1.093-.339-1.093-1.319l.113-1.357a8.49,8.49,0,0,0,.415-1.208,1.916,1.916,0,0,0-.151-.753l-.189-.528v-.377l-.075-.566v-.377c0-.792.113-.867,1.659-1.131l.339-.038a4.7,4.7,0,0,1,2.187.453l.377.3.189-.265c.15,0,.641-.64,1.017-.565a2.475,2.475,0,0,1,.566.038l.188.037,1.056-.264a7.271,7.271,0,0,1,.717.566,1.4,1.4,0,0,0,.717.3,1,1,0,0,0,.527-.188c.6-.3.227-.415,1.244-.415a4.177,4.177,0,0,1,1.735.34Z" fill="#000000"/><path d="M710.47,629.793a.577.577,0,0,1,.452.113l.34.34.15.075a1.067,1.067,0,0,0,.415-.188,1.223,1.223,0,0,0,.679.226,3.772,3.772,0,0,0,1.394-.49,2.082,2.082,0,0,1,.792-.265,3.193,3.193,0,0,1,1.433.491l.49.528h.152l.867-.528a2.335,2.335,0,0,1,1.093-.377c.6,0,.9.792.9,2.413l-.113,1.734a2.534,2.534,0,0,1-.415.906,12.808,12.808,0,0,0,.716,1.659l-.075,1.847c.151.076.227.264.227.566a2.054,2.054,0,0,1-.189.829l-.151.113.226.49a.821.821,0,0,1,.226.453l-.037.263-.415.679a1.632,1.632,0,0,0-.113.642l.113.49c.038.225-.113.527-.528.942a3.764,3.764,0,0,1,.6,2.45l.227.906c.565.188.829.98,1.055,1.432a1.419,1.419,0,0,0,.717.265q1.584,0,1.583-2.828a2.55,2.55,0,0,0-.3-.981l-.339-.905.415-3.732.339-1.169.038-.377-.453-.867a4.6,4.6,0,0,1-.339-1.584,12.578,12.578,0,0,0,.679-1.885l.113-.49-.3-1.622a5.519,5.519,0,0,1-.038-.753v-.377q.17-1.359,1.809-1.358a2.464,2.464,0,0,1,1.735.566l1.659-.642.565.076.34.037.716.038h.189c.3,0,.3,0,.943.264l.792-.452.263-.075c1.81,0,1.169,1.017,1.433,1.884l.038,1.4a4.256,4.256,0,0,1-.3,1.319l-.151.6.377.979-.264,1.7a11.284,11.284,0,0,0,.452,1.809l-.3,1.094.112,1.017.3,1.66a5.614,5.614,0,0,1,.113,1.169,2.913,2.913,0,0,1-1.131,2.149,1.246,1.246,0,0,0,.6.792l.112,1.47a5.029,5.029,0,0,0,.113,1.508,2.552,2.552,0,0,1-.113.943l.34.792.113.188c.452.076.679.264.679.528a.368.368,0,0,1-.152.34,4.415,4.415,0,0,1,.717,2.073c0,.83-.49,1.244-1.509,1.244l-1.206.415-.565-.264a3.037,3.037,0,0,0-1.132-.151l-.829-.264-.867-.339c-.264,0-.943.566-1.546.679a5.985,5.985,0,0,1-1.395-.113,3.468,3.468,0,0,1-.98-.867c-.152-.189-.49-.265-1.019-.265a2.631,2.631,0,0,0-1.017.151l-.114.038-.64.754c-.792,0-1.7.3-2.9.3l-1.018-.076a7.148,7.148,0,0,0-2.375-.414l-.942-.679-1.056-.34a1.492,1.492,0,0,1-.981-.15l-.453-.981-1.093-.9.151-.754-.415-1.206c-.037-.264-1.583-.792-1.395-2v-.339l.075-1.093v-.3a1.312,1.312,0,0,0,.114-.6,2.834,2.834,0,0,0-.151-.9l-.151-.942.038-.415c.113-.039.264-.529.49-1.4l-.49-1.394.037-1.622a1.968,1.968,0,0,0,.189-.98l-.528-1.131-.075-.378a4.858,4.858,0,0,1,.3-1.093l.34-1.018.15-.679c.113-.037.152-.112.152-.15a2.732,2.732,0,0,0-.529-1.131,8.115,8.115,0,0,1-.075-1.132v-.452a4.649,4.649,0,0,1,.264-1.584A.686.686,0,0,1,710.47,629.793Z" fill="#000000"/><path d="M739.234,630.02h.114l1.621.038a6.63,6.63,0,0,1,1.734.075,2.333,2.333,0,0,1,.717.226l.452.189c.377,0,.717-.265,1.056-.792l.038.414a2.436,2.436,0,0,1,1.471-.452,2.574,2.574,0,0,1,1.394.415,5.989,5.989,0,0,1,1.546-.34,8.065,8.065,0,0,1,1.019-.037h.6a4.875,4.875,0,0,1,3.092,1.471l.83-.265c.339-.075.942.453,1.771,1.546l.265.453a2.93,2.93,0,0,1,1.7,1.658,4.456,4.456,0,0,1,.6,1.584,1.8,1.8,0,0,1-.377,1.094c.225.414.98.112,1.017,1.432,0,.264,0,.679-.037,1.283s-.038.979-.038,1.131a5.393,5.393,0,0,1-.792,1.319l-.113,1.056a4.04,4.04,0,0,1-2,2.9l-.415-.037a1.819,1.819,0,0,0-1.47.867c-.151.264.226.6,1.093,1.056l1.32.49c.113,0,.3-.151.528-.415a1.324,1.324,0,0,1,1.055-.6c.642,0,.981.641.981,1.923a3.984,3.984,0,0,1-.415,1.659l.151.528.189.49c.075.188,0,.528-.264,1.094a.646.646,0,0,0-.6.6l.037.151c.491.6.831.98.868,1.244,0,.792-.754,1.169-1.546,1.169l-.829-.037-.452-.039a2.917,2.917,0,0,1-1.848-.527,4.348,4.348,0,0,1-1.886.527,4.282,4.282,0,0,1-3.2-1.922,3.21,3.21,0,0,1-1.924-1.207c-.6-.716-1.055-1.131-1.394-1.168q-.51,0-.906,1.13l-.15.679.037.075.227.529.075.377c0,1.092-.377,1.621-1.131,1.621a2.671,2.671,0,0,1-1.7-.6,3.1,3.1,0,0,1-1.622.452,3.44,3.44,0,0,1-1.32-.263l-.49-.3a2.76,2.76,0,0,1-2.111.754c-1.131,0-2.187-.339-2.187-1.96a2.038,2.038,0,0,1,.037-.528l.114-1.508a2.823,2.823,0,0,1,.3-1.433,3.294,3.294,0,0,0,.038-.528,2.276,2.276,0,0,0-.226-.9.651.651,0,0,0-.227-.454l-.075-.338a3.227,3.227,0,0,1,.566-1.961l-.453-1.131a4.406,4.406,0,0,1-.15-1.471q0-.735.112-2.036a3.787,3.787,0,0,1,.717-2.073l-.717-.981c0-1.169,0-2.451.038-3.846a.74.74,0,0,0,.6-.791l-.038-.152c-.339-.414-.829-1.056-.943-1.168a1.858,1.858,0,0,1-.038-.566,8.691,8.691,0,0,1,.227-1.47,1.256,1.256,0,0,1,1.282-1.094,1.315,1.315,0,0,1,.829.339A3.472,3.472,0,0,1,739.234,630.02Zm7.353,13.649a4.108,4.108,0,0,1-.566,1.621l1.358.9.641-.112a1.609,1.609,0,0,1,.528-.9l.754-.641a10.279,10.279,0,0,1,.3-1.622,5.333,5.333,0,0,1,.565-1.394,3.916,3.916,0,0,0-.717-1.245c.152-.565.189-1.093.3-1.432a5.245,5.245,0,0,0-.9-1.811l-.415-.678h-.754a2.268,2.268,0,0,0-2,1.622l.528.829a1.728,1.728,0,0,1,.3.905,1.57,1.57,0,0,1-.227.791l-.565,1.019-.038.338.678.567A3.588,3.588,0,0,1,746.587,643.669Z" fill="#000000"/><path d="M762.646,630.058a5.726,5.726,0,0,1,1.734.527l1.056-.679a9.276,9.276,0,0,1,1.47.038l1.471.491a6.188,6.188,0,0,1,.9-.943,1.113,1.113,0,0,1,.717.151l.6.188.225.415,1.32-.49.716.377.83.377c.491.15.9-.529,1.7-.867l.263.075c.189.038.265.038.3.075.9,0,1.471.227,1.734.717l-.225.942.15.49a.523.523,0,0,1,.227.415,4.246,4.246,0,0,0,.037.83l.113.226a1.217,1.217,0,0,1-.679,1.056l.264.339a3.178,3.178,0,0,1,.34,1.018c.15.6-.227,1.131-.98,1.32l-.943.151a4.441,4.441,0,0,1-.641.037h-.339c-.075-.037-.943-.452-1.018-.49-1.81,0-2.791.98-2.791,1.7a1.348,1.348,0,0,0,.227.6.822.822,0,0,0,.528.3l.414-.112a1.3,1.3,0,0,1,.453-.113l1.281.3,1.094-.038.34-.038.754-.075a1.41,1.41,0,0,1,1.169.34.944.944,0,0,1,.3.942.879.879,0,0,1-.377.754l.716,1.923-.49,1.019a1.81,1.81,0,0,1-.905.188,5.924,5.924,0,0,1-1.357-.188l-.453.225-.527.227a3.289,3.289,0,0,1-.717-.189l-.263-.075a2.059,2.059,0,0,0-1.019.226,3.342,3.342,0,0,0-1.131.264l-.075,1.583.075.453c.264,1.245.792,1.847,1.584,1.847a2.02,2.02,0,0,0,.98-.263l.566-.3.829-.264.151.189a.73.73,0,0,0,.641.226l.566-.226.678-.264c.151,0,.452.225.867.679a1.375,1.375,0,0,1,.528,1.055l-.037.414-.3.717a3.373,3.373,0,0,1,.415,1.508c0,.453-.151.755-.265.792l-.188.226a14.5,14.5,0,0,1,.226,2.074c0,.641-.226.943-.678.943l-.981-.113-1.357-.189a4.106,4.106,0,0,0-1.659.226l-1.659.415c-.264-.113-.415-.113-.867-.3l-.943-.3h.113a1.14,1.14,0,0,1-.49.227l-.9.3-.415-.3a1.2,1.2,0,0,0-.717-.377,1.846,1.846,0,0,0-.679.189l-.641.188h-.338L765.172,656l-.754.227a2.156,2.156,0,0,1-.792.225c-1.319.113-2-.565-2-2.111a3.12,3.12,0,0,1,.188-1.282c-.264-1.245-.339-1.433-.377-1.7a1.535,1.535,0,0,1,.3-.9l.452-.6-.339-.792-.453-1.433v-.151l.717-1.245-.34-.9-.037-.979a3.818,3.818,0,0,1,.189-.717l.263-.717v-.452l-.377-1.244a3.033,3.033,0,0,1-.151-1.018,7.258,7.258,0,0,1,.792-2.6l-.49-.567a1.434,1.434,0,0,1-.452-.791,15.211,15.211,0,0,1,.415-2.187,3.4,3.4,0,0,0,.527-.528c-.188-.264-.679-1.055-.867-1.395l-.075-.527v-.529a1.714,1.714,0,0,0,.113-.49A1.364,1.364,0,0,1,762.646,630.058Z" fill="#000000"/></g><path d="M481.168,751.686l4.726-6.056-5.145-2.03V736l9.135-5.95,6.2,2.59.945-1.121.735.246-5.951,7.56,5.566,2.136v7.876l-8.3,5.285h-13.2Zm7.351-.14V743.67l-6.23,7.876Zm0-9.206v-8.786l-1.68-.7-1.155.7v8.015l2.555.946Zm5.146-6.581-4.375-1.821v7.352ZM492.3,751.546V743.39l-2.835-1.085-.174.245v9Z" fill="#000000"/><path d="M501.223,733.519l4.725-3.326v11.272L511.2,738l3.151,2.591v11.1h2.94l-3.466,2.94h-4.059V742.34l-1.681-1.365-2.135,1.33v12.321h-4.725Z" fill="#000000"/><path d="M518.406,742.865l7.351-5.041,5.5,3.535v8.3l-7.666,4.971h-5.181Zm8.331,8.821V742.8l-3.605-2.311v11.2Z" fill="#000000"/><path d="M533.981,742.865l7.351-5.041,5.5,3.535v8.3l-7.666,4.971h-5.181Zm8.331,8.821V742.8l-3.605-2.311v11.2Z" fill="#000000"/><path d="M550.606,735.689l4.725-3.081v5.916h4.306l-4.306,3.326v9.836h3.991l-3.5,2.94h-5.215Z" fill="#000000"/><path d="M564.921,730.823v3.956L560.23,738.1v-3.956Zm-4.691,10.326,4.691-3.325v13.862h2.94l-3.465,2.94H560.23Z" fill="#000000"/><path d="M569.541,741.149l4.726-3.325v3.641l5.25-3.641,3.15,2.7v11.166h2.94l-3.465,2.94h-4.06V742.34l-1.681-1.365-2.134,1.295v12.356h-4.726Z" fill="#000000"/><path d="M586.375,742.865l7.351-5.041,5.5,3.535v13.862l-6.2,5.251h-6.65l2.835-2.906h5.5v-5.39l-4.341,2.45h-3.99Zm8.331,8.75V742.8l-3.605-2.311v11.131Z" fill="#000000"/><path d="M613.814,746.891h-3.955l3.955-2.766v-.84h-3.955l3.955-2.871v-4.2l10.537-6.125,6.406,3.6-3.57,2.346-1.576-.91v5.11h8.156l-2.205,1.646v7.56l-8.261,5.181h-9.487Zm6.546,4.655V733.2l-1.679.875v17.467Zm4.306-10.921v-5.986l-3.466-2V742.97Zm1.96,4.025v-1.19H621.2v3.325Zm0,2.73v-2.17l-5.426,2.2v2.171Zm0,4.166v-3.535l-5.426,2.24v1.3Z" fill="#000000"/><path d="M635.794,747.625l8.121-4.936-3.36-2.379v2.52h-4.971v-.6l7.98-4.41,4.936,3.431v10.431h2.976l-3.465,2.94h-4.1v-2.45l-4.2,2.45h-3.921Zm8.121,4.061v-8.051l-3.36,2.1v5.951Z" fill="#000000"/><path d="M652.314,741.149l4.726-3.325v2.835l4.305-2.835,3.466,2.835,4.62-2.835,3.395,2.766v11.1h2.941l-3.5,2.94h-3.992V742.479l-2.064-1.714-1.365.839v13.022h-4.411V742.34l-2-1.575-1.4.839v13.022h-4.726Z" fill="#000000"/><path d="M676.849,742.9l7.35-5.075,5.041,4.8-7.666,6.056v3.01h6.616l-4.1,2.94h-7.246Zm8.611,1.646-3.886-3.955v7.035Z" fill="#000000"/><path d="M700.509,736.214l5.11-5.146h5.25l-2.7,2.976h-2.941v4.48h4.306l-4.306,3.326v9.836h2.941l-3.5,2.94h-4.165Z" fill="#000000"/><path d="M709.888,742.865l7.35-5.041,5.5,3.535v8.3l-7.666,4.971h-5.18Zm8.331,8.821V742.8l-3.606-2.311v11.2Z" fill="#000000"/><path d="M726.3,741.149l4.655-3.325v3.641l6.371-3.746v5.706l-4.166,2.03v-4.341l-2.205,1.191v9.381h2.94l-3.465,2.94H726.3Z" fill="#000000"/><path d="M744.922,730.4h11.516l-5.5,3.816Zm6.266,21.6V746.05h-4.481l4.481-3.045v-.665h-4.481l4.481-3.046v-3.675l7.561-5.145v10.255l3.885-2v-3.08l7.56-5.18v10.255l3.782-1.924v-4.447l5-3.149v18.132l-8.26,5.285h-3.991l-3.71-2.59-3.571,2.59h-4.2Zm6.791-.455V731.874l-1.786,1.225v17.362Zm4.655-9.312v-2.87l-3.885,1.926v2.87Zm0,9.312v-8.681l-3.885,1.925v6.756Zm6.791,0V731.874L767.64,733.1v17.256Zm4.551-9.241v-2.87l-3.782,1.855v2.87Zm0,9.241v-8.611l-3.782,1.855v6.756Z" fill="#000000"/><path d="M787.518,730.823v3.956l-4.691,3.325v-3.956Zm-4.691,10.326,4.691-3.325v13.862h2.94l-3.466,2.94h-4.165Z" fill="#000000"/><path d="M791.612,741.149l4.726-3.325v3.641l5.25-3.641,3.15,2.7v11.166h2.941l-3.466,2.94h-4.06V742.34l-1.68-1.365-2.135,1.295v12.356h-4.726Z" fill="#000000"/><path d="M808.9,741.324l4.726-3.5,3.71,2.205v-6.58l4.62-3.22v21.457h2.94l-3.5,2.94h-4.06v-2.59l-4.41,2.59H808.9Zm8.436,10.362V740.975l-1.191-.7-2.519,1.96v9.452Z" fill="#000000"/><path d="M826.19,742.865l7.351-5.041,5.5,3.535v8.3l-7.666,4.971H826.19Zm8.331,8.821V742.8l-3.6-2.311v11.2Z" fill="#000000"/><path d="M842.046,741.149l4.725-3.325v13.862h3.4V741.079l4.48-3.255v13.862h3.466V741.079l4.551-3.255v11.8l-7.771,5.006h-4.726V752.28l-4.235,2.346h-3.885Z" fill="#000000"/><path d="M866.021,750.181l5.81,3.6V749.2l-5.81-3.36V742.2l7.14-4.585,3.99,2.625-3.115,2.066-3.29-2.135v3.99l5.775,3.5v4.306l-4.06,2.66h-6.44Z" fill="#000000"/><path d="M899.026,738.209H888.84l-.7,1.645-1.085-.209,1.61-4.411h12.812l-6.406,19.392h-6.126Z" fill="#000000"/><path d="M903.154,757.812l13.826-27.723h1.611L904.8,757.812Z" fill="#000000"/><path d="M918.449,747.1l3.921-2.451-3.5-1.68v-4.2l7.561-4.306,5.356,2.94v3.92l-3.6,2.486,4.2,2.03v4.06l-7.316,4.726h-6.616Zm9.416,4.48v-4.376L923.21,745v6.581Zm-.315-8.121v-4.2l-4.095-2.276V741.5Z" fill="#000000"/><path d="M935.039,757.812l13.826-27.723h1.611l-13.792,27.723Z" fill="#000000"/><path d="M951.489,737.824,949,739.294l-.63-.455,7.735-4.481v17.188h3.466l-3.85,3.08h-4.236Z" fill="#000000"/><path d="M961.534,739.435l7.737-4.971,6.23,4.06v11.237l-7.806,4.865h-6.161Zm9.416,12.146V740.17l-4.69-2.976v14.387Z" fill="#000000"/><g id="上海_アリス幻樂団" data-name="上海■アリス幻樂団"><path d="M942.584,923.613c0-.312.479-1.045.857-1.045a1.339,1.339,0,0,1,.241.063,3.743,3.743,0,0,1,.583-.078,1.273,1.273,0,0,1,.24.047c.274.062,1.028.125,1.028.514a.293.293,0,0,1-.1.218c-.343.266-.806.328-1.166.562-.378.25-.533.624-.858.889a.412.412,0,0,1-.189.077c-.5-.186-.634-.3-.634-.841Zm14.784.265-6.586-.374a1.072,1.072,0,0,1-.446.062,4.161,4.161,0,0,1-.841-.14,14.459,14.459,0,0,0-1.835.078c-.308.031-.6.187-.909.187-.223,0-.565-.171-.565-.406a.7.7,0,0,1,.17-.545,10.943,10.943,0,0,1,1.9-.874c1.2-.638,1.114-2.386,1.148-3.493.018-.546.206-1.091.206-1.637V913.7a12.3,12.3,0,0,0-.325-2.23v-.031a.793.793,0,0,1,.668-.686c.378,0,.824.077.909.452a2.769,2.769,0,0,1,.138.654.305.305,0,0,1-.068.2,2.4,2.4,0,0,0-.275,1.185,1.56,1.56,0,0,0,.514,1.138,2.047,2.047,0,0,0,.927.546c.411,0,.823-.078,1.234-.078a7.807,7.807,0,0,1,2.093.25.56.56,0,0,1,.411.514c0,1.045-3.035.671-3.653.842-.394.109-1.287,1.372-1.458,1.747a2.72,2.72,0,0,0-.24,1.372,3.507,3.507,0,0,0,1.235,2.511,1.01,1.01,0,0,0,.634.2c.12,0,.258-.015.429-.015.24,0,.463.093.7.093,1.047,0,2.075-.139,3.122-.139.515,0,1.955.092,1.955.716a1.159,1.159,0,0,1-1.081.936Z" fill="#000000"/><path d="M943.424,933.425c-.361,0-.944-.2-.944-.593a1.542,1.542,0,0,1,.275-.748,1.069,1.069,0,0,1,.892-.562c.634-.015,1.269-.062,1.9-.062a.429.429,0,0,1,.428.4C945.979,932.474,944.007,933.425,943.424,933.425Zm1.852,3.727c-.274.531-.7,1-.925,1.544a4.355,4.355,0,0,1-.5,1.138c-.1.125-.189.125-.343.125-.5,0-.789-.748-.789-1.139,0-.591,2.178-3.118,2.846-3.118.172,0,.224.187.224.312a.315.315,0,0,1-.034.172Zm.772-8.406c-.051,0-.1-.03-.154-.03-.669-.11-2.332.093-2.332-.874,0-.654.737-.873,1.337-.873a.642.642,0,0,1,.412.172c.222.2,1.149,1.153,1.149,1.387C946.46,928.669,946.168,928.746,946.048,928.746Zm9.9,4.164c.069-.249-.068-1.263.361-1.263.651,0,.633,1.576.7,2,.2.2,1.766-.016,1.766,1.06a.634.634,0,0,1-.6.608,2.33,2.33,0,0,1-.309-.078,7.467,7.467,0,0,0-1.011-.062c-.207.249-.19,1.075-.241,1.4a10.8,10.8,0,0,1-.789,2.838,1.708,1.708,0,0,1-1.115.562c-.463,0-1.08-.25-1.647-.25-.823,0-1.628.218-2.452.218a8.461,8.461,0,0,1-2.521-.28,1.636,1.636,0,0,1-.5-1.139c0-.327.1-1.356.6-1.356.549,0,.583.873.686,1.216.154.015.309.047.463.047a2.364,2.364,0,0,0,1.766-1.419c.069-.266-.034-1.03.413-1.03.274,0,.325.39.325.734,0,.171-.017.327-.017.4a1.371,1.371,0,0,0,1.389,1.372c.892,0,1.9-.577,1.9-1.466,0-.125-.034-.265-.034-.389,0-.219.068-.421.068-.64,0-.92-.961-1.31-1.835-1.31a1.92,1.92,0,0,0-1.235.577c0,.109-.12.312-.257.312a.32.32,0,0,1-.224-.125c-.376-.452-.359-.374-.857-.64a.275.275,0,0,0-.154-.031c-2.436,0-1.389,1.076-2.418,1.825a.263.263,0,0,1-.154.063c-.241,0-.309-.422-.309-.593a.822.822,0,0,1,.223-.639c-.069-.188-.241-.437-.481-.437-.291,0-.565.141-.857.141-.223,0-.738-.172-.738-.421v-.047l.12-.562c.069-.328.618-.375,1.046-.375h.292c.309-.2.772-.108,1.012-.421.343-.436.429-2.26,1.15-2.26.154,0,.24.342.24.452,0,.389-.275.8-.275,1.231.155.3-.051.469.291.906.343.031.669.078,1.012.078a7.732,7.732,0,0,0,.841-.078c.154-.391.446-.718.635-1.092l-.309-.92c-.394-.4-1.287-.281-1.287-1a.422.422,0,0,1,.206-.39,6.113,6.113,0,0,1,2.024-.453c.514,0,1.012.063,1.527.063a1.852,1.852,0,0,1,1.406.592c.1.094.24.2.24.359,0,.2-.5.577-.7.577a12.935,12.935,0,0,0-1.355-.28c-.566,0-1.132.233-1.15.81a1.463,1.463,0,0,1-.051.468l-.137.358c.086.7.875.89,1.526.89.395,0,.789-.063,1.184-.078Zm-.206-6.035c.395,0,1.441.172,1.441.64,0,.608-.944.748-1.457.748a8.155,8.155,0,0,1-2.213-.343c-.481.109-1.03-.031-1.492.187a.713.713,0,0,1-.327.094h-.034l-.48-.078-.96.2c-.1.016-1.887,2.231-3,2.231a.7.7,0,0,1-.668-.624c0-1.5,2.709-.92,3.018-3.088a3.293,3.293,0,0,1-.274-.748c0-.266.788-.734,1.063-.734a1.179,1.179,0,0,1,.892.827,2.1,2.1,0,0,1-.1.468c.034.234-.035.468.189.623l4.287-.4Z" fill="#000000"/><path d="M957.351,945.841a1.085,1.085,0,0,0-.035.265c0,.14.017.3.017.468a1.38,1.38,0,0,1-.257.92.522.522,0,0,0-.052.28,13,13,0,0,0,.5,2.5,2.285,2.285,0,0,1,.035.467,10.407,10.407,0,0,1-.258,2.542.5.5,0,0,0-.051.2c0,.218.137.406.137.671a.641.641,0,0,1-.017.171c-.1.452-.36.609-.584.609a.273.273,0,0,1-.12-.016,21.687,21.687,0,0,0-2.589-.28,1.108,1.108,0,0,0-.292.031,8.415,8.415,0,0,1-1.646.186,1.59,1.59,0,0,1-.447-.046,4.476,4.476,0,0,0-.753-.234c-.687,0-1.218.249-1.733.249a1.135,1.135,0,0,1-.224-.015,8.574,8.574,0,0,0-1.422-.125c-.893,0-1.372.156-1.7.156a.62.62,0,0,1-.171-.016,1.475,1.475,0,0,0-.377-.047c-.377,0-.79.078-1.03.078h-.12c-.308-.046-.617-.125-.617-.514a8.136,8.136,0,0,1,.052-1.216,1.257,1.257,0,0,0,.016-.125c0-.312-.12-1.014-.12-1.17v-.016c.086-.389.258-.358.258-.826v-.062c-.018-.515-.24-1.279-.24-1.529V949.3c0-.343-.069-1.746-.069-2.417a1.588,1.588,0,0,1,.017-.359,8.141,8.141,0,0,0,.24-1.3,1.084,1.084,0,0,0,.018-.249c0-.514-.138-1.17-.138-1.4v-.109c0-.172-.051-.421-.051-.624a.3.3,0,0,1,.035-.187,1.156,1.156,0,0,1,.737-.359c.137,0,1.268-.094,2.229-.094a4.459,4.459,0,0,1,1.3.125,1.448,1.448,0,0,0,.565.125,1.493,1.493,0,0,0,.533-.125,11.715,11.715,0,0,1,1.372-.265h.051c.206.047,3.276.124,3.927.312a1.288,1.288,0,0,0,.326.047c.412,0,.635-.28,1.355-.312h.086c.463,0,1.149.218,1.166.608a9.3,9.3,0,0,1,.086.936,4.244,4.244,0,0,1-.154,1.107c0,.031-.017.062-.017.093,0,.3.223.812.223.967Z" fill="#000000"/><path d="M929.6,913.352a4.061,4.061,0,0,1-.858.218,4.714,4.714,0,0,0-.669.218,4.246,4.246,0,0,0-.429.078c-.36.156-.308.266-.789.266-.292,0-.7-.172-.737-.469a4.593,4.593,0,0,1-.034-.483c0-.437.908-1.263,1.423-1.263a.829.829,0,0,1,.189.031,3.48,3.48,0,0,0,.806.063c.188,0,.394.031.583.031.172,0,.343-.063.515-.063.222,0,1.063.343,1.063.609S929.859,913.242,929.6,913.352Zm1.594,9.4c-.171.141-.274.344-.463.468a9.851,9.851,0,0,1-1.8.889,2.16,2.16,0,0,1-.7.109c-.84,0-.771-.374-1.423-.655a.553.553,0,0,1-.361-.483c0-.406.755-.671,1.116-.78a.644.644,0,0,1,.171-.032c.086,0,.171.016.257.016a.511.511,0,0,0,.155-.016c.257-.062.446-.264.7-.342a7.749,7.749,0,0,0,1.68-.687,3.787,3.787,0,0,0,1.527-1.294c.206-.343.428-1.076.943-1.076.258,0,.258.2.258.374a2.7,2.7,0,0,1-.068.64,4.053,4.053,0,0,1-1.442,2.526C931.592,922.553,931.369,922.615,931.2,922.755Zm1.184-9.746c-.429,0-1.372-.016-1.372-.53,0-.531.875-.625,1.286-.671.12-.016.412-.218.635-.265a9.739,9.739,0,0,1,1.9-.234c.205,0,.411.015.617.015.171,0,.343.047.515.047.12,0,.429-.156.617-.172a6.446,6.446,0,0,1,.771-.047,3.848,3.848,0,0,1,1.338.188,3.286,3.286,0,0,1,.533.389c.463.344,1.252.593,1.252,1.233a2.436,2.436,0,0,1-1.15,1.715,5.281,5.281,0,0,1-.617.265,9.364,9.364,0,0,1-.807.578c-.342.155-.7.28-1.063.4-.566.2-1.114.405-1.663.624-.138.062-.292.094-.429.155-.412.188-.515.655-.618,1.014-.119.436-.343.344-.617.577a.515.515,0,0,1-.309.094c-.531,0-.583-.748-.583-1.092,0-.125.086-.249.086-.374a5.409,5.409,0,0,0-.154-.889c-.086-.514-.12-.561-.687-.624a.315.315,0,0,1-.291-.311.719.719,0,0,1,.463-.671c.172-.094.24-.25.481-.25.17,0,.325.062.5.062.446,0,.96.64,1.166.967a.436.436,0,0,0,.394.234.735.735,0,0,0,.361-.093,4.555,4.555,0,0,0,.875-.437,5.605,5.605,0,0,1,.633-.436c.156-.094.395-.11.533-.2.1-.078.136-.2.24-.28a2.76,2.76,0,0,0,.96-1.029c0-.266-.738-.437-.96-.437-.412,0-.841.125-1.27.125-.154,0-.308-.062-.463-.062-.24,0-.48.108-.72.108-.086,0-.155-.015-.241-.015-.7,0-1.372.328-2.075.328Z" fill="#000000"/><path d="M930,934.953a.276.276,0,0,1-.223-.108,3.659,3.659,0,0,1-.806-2.62,2.477,2.477,0,0,1,.1-.7,3.864,3.864,0,0,0,.189-1.325c0-.763-.1-1.528-.1-2.292,0-.375-.12-.749-.12-1.138a.709.709,0,0,1,.789-.671c.875,0,1.3.966,1.3,1.637,0,.359-.206.531-.309.873a6.575,6.575,0,0,0-.24,2c0,.374-.034.764-.034,1.138,0,.3.24.733.24,1.03a4.019,4.019,0,0,1-.583,2.074A.377.377,0,0,1,930,934.953Zm4.717,3.853c-.24.155-.4.358-.652.5a6.473,6.473,0,0,1-.754.28,6.223,6.223,0,0,1-1.9.5c-.411,0-1.594-.3-1.594-.779a1.036,1.036,0,0,1,.669-.781c.256-.062.548-.031.805-.093a10.265,10.265,0,0,0,.978-.39c.154-.047.308-.031.463-.094a9.377,9.377,0,0,0,2.453-1.527,3.737,3.737,0,0,0,.514-.749,3.514,3.514,0,0,0,.634-2c0-.359-.034-.718-.034-1.076a14.81,14.81,0,0,1,.086-1.529c.034-.249,0-.514.052-.763.034-.125.136-.2.172-.328.085-.25.136-.577.5-.577a.277.277,0,0,1,.188.062,1.237,1.237,0,0,1,.531,1.107c0,.172-.016.359-.016.562a3.8,3.8,0,0,0,.034.452,1.712,1.712,0,0,1,.052.3c0,.171-.086.374-.086.607,0,.609.188,1.186.188,1.794,0,.374-.308.748-.428,1.092a5.091,5.091,0,0,1-.275.857,4.756,4.756,0,0,1-2.572,2.574Zm1.577-11.462a3.465,3.465,0,0,1-.359-1.217c0-.39.977-.562,1.3-.562.361,0,.583.016.755.313.12.2.326.155.326.483a4.015,4.015,0,0,1-.737,1.731c-.086.14-.138.281-.224.421-.034.062-.154.062-.222.062-.086,0-.395-.062-.429-.125C936.411,928.107,936.463,927.733,936.291,927.344Z" fill="#000000"/><path d="M934.9,941.88a3.115,3.115,0,0,1,.549-.063,3.967,3.967,0,0,1,.755.094,1.845,1.845,0,0,1,.583.3c.171.093.395.14.565.233.121.079.687.484.7.609a1.554,1.554,0,0,1,.017.28c0,1.108-1.2,1.638-1.852,2.356-.12.139-.481.42-.515.576a1.591,1.591,0,0,1-.154.484c-.137.28-.549.686-.549,1,0,.3.429.764.429,1.185a.461.461,0,0,1-.051.218.656.656,0,0,1,.034.171.163.163,0,0,1-.154.172c-.344,0-.6-.264-.909-.264-.069,0-.189.092-.309.092-.034,0-.069,0-.086-.031a.9.9,0,0,0-.206-.016.844.844,0,0,0-.686.407c-.189.249-.412.5-.618.748-.12.14-.359.172-.479.327-.138.172-.206.344-.395.561-.086.11-.172.219-.274.329a9.585,9.585,0,0,1-1.252,1,3.017,3.017,0,0,1-.823.374c-.086.031-.19.031-.275.062-.138.047-.36.374-.549.468a2.241,2.241,0,0,1-.84.233.424.424,0,0,1-.137-.015c-.464-.156-1.252-.124-1.528-.531-.1-.139-.291-.327-.291-.5a.415.415,0,0,1,.189-.312c.052-.047.977-.265,1.132-.327.223-.078.686-.39.789-.421a13.851,13.851,0,0,0,4.048-2.589c.257-.234.428-.53.669-.78a7.981,7.981,0,0,0,.789-.686,10.969,10.969,0,0,0,.874-1.3c.258-.5.652-.468.892-.779.137-.172.12-.343.2-.515a6.634,6.634,0,0,1,.619-.9,1.056,1.056,0,0,0,.256-.577c0-.359-.428-.421-.737-.421-.172,0-.36.016-.532.016-.2,0-.394-.047-.6-.047-.24,0-.428.155-.635.155a.667.667,0,0,1-.668-.639.357.357,0,0,1,.326-.389Zm-4.648.7c.566,0,1.081-.187,1.646-.187.19,0,.583.031.583.281,0,.311-.513.685-.788.826-.257.125-.428.311-.7.421a6.312,6.312,0,0,0-.977.561.968.968,0,0,0-.31.172,2.559,2.559,0,0,1-.994.187.45.45,0,0,1-.154-.016c-.275-.108-.6-.124-.6-.468,0-.389.1-.358.343-.7a1.1,1.1,0,0,0,.086-.25c.12-.311.343-.795.755-.826Zm6,7.938a2,2,0,0,1-.275-.235,1.3,1.3,0,0,1-.24-.592c0-.172.138-.25.31-.25.291,0,.565.25.822.359.155.062.326.031.48.094a3.2,3.2,0,0,1,.533.25,6.355,6.355,0,0,1,1.509.873,4.1,4.1,0,0,1,.634.779c.189.359.447.5.447.936,0,.343-.138.889-.619.889a2.714,2.714,0,0,1-1.508-.889c-.1-.125-.138-.281-.241-.406-.206-.28-.5-.53-.737-.795-.258-.281-.6-.468-.875-.733Z" fill="#000000"/><path d="M910.225,921.991a30.338,30.338,0,0,1,3.361-.546c.36,0,.72.078,1.08.078a2.609,2.609,0,0,0,.343-.078.562.562,0,0,0,.1-.2c0-.858-1.029-1.638-1.029-2.105,0-.219.36-.282.549-.282a3.091,3.091,0,0,1,.977.329.574.574,0,0,1,.241.342c.1.406.617,1.435.617,1.716a.508.508,0,0,1-.034.155c-.257.734-.155.7-.84,1.17-.481.343-.7.92-1.613.92-.412,0-.789-.217-1.2-.217a8.239,8.239,0,0,0-2.3.405,2.62,2.62,0,0,1-.669.233,3.528,3.528,0,0,1-1.063-.171c-.223-.078-.343-.717-.429-.936a1.155,1.155,0,0,1-.086-.406,12.168,12.168,0,0,1,1.236-2.947,11.053,11.053,0,0,0,.875-1.4,1.634,1.634,0,0,0-.412-.64,6.321,6.321,0,0,0-.686-.218,1.789,1.789,0,0,1-.618-1.279.582.582,0,0,1,.069-.3c.189-.358,1.235-1.232,1.6-1.669.36-.421.84-1.325,1.3-1.575.068-.327.034-.967.411-1.091a1.127,1.127,0,0,1,.394-.109c.411,0,1.544.343,1.544.8a2.712,2.712,0,0,1-.789,1.107,6.37,6.37,0,0,0-.943.39c-.4.3-1.835,1.81-1.835,2.23,0,.047.017.079.017.124.171.11.154.2.24.36a5.779,5.779,0,0,0,.651.593.9.9,0,0,0,.36.045h.189c.258,0,.464-.233.772-.233.326,0,.412.172.412.437a1.837,1.837,0,0,1-.207.467,4.579,4.579,0,0,1-.685,1c-.806.889-2.624,1.965-2.624,3.229,0,.047.034.108.034.155a.412.412,0,0,0,.258.063c.1,0,.223-.016.308-.016Zm2.864-5.738c0-.515,1.337-2.356,1.92-2.371.275.219,1.047.671,1.047,1.014a.782.782,0,0,1-.172.577,2.7,2.7,0,0,1-.858.358c-.12.031-.206.141-.308.188a9.913,9.913,0,0,1-1.3.53.341.341,0,0,1-.257-.156A.147.147,0,0,1,913.089,916.253Zm7.683-3.2c-.772,0-1.543.156-2.315.156a3.063,3.063,0,0,0-1.287.4c-.943,0-1.114-.312-1.114-1.185,0-.562.634-.453,1.046-.562a3.083,3.083,0,0,1,.36-.077l2.143-.141h.086a5.433,5.433,0,0,1,.7.078c1.235.124,2.092-.046,2.692,1.169a.568.568,0,0,1,.052.157c0,.249-.411.327-.635.327-.429,0-.515-.327-.96-.327Zm1.372,3.665c0-.125-.051-.25-.051-.375V914.74c0-.234.136-1.045.48-1.06.325.171.583,1.247.583,1.591,0,.514-.1,1.043-.1,1.558,0,.2.069.391.069.593,0,.266-.086.546-.086.811,0,.453.051.92.051,1.372,0,.265-.051.515-.051.78,0,.187.12.375.12.561,0,.359-.258.656-.292,1-.172,1.327-1.046,1.81-2.177,2.48a.811.811,0,0,1-.429.078c-.669,0-1.99-.4-1.99-1.154a.474.474,0,0,1,.189-.312,1.189,1.189,0,0,1,.942-.28c.138,0,.258.046.395.046,1.081-.655,1.133.125,1.973-1.388.12-.218.292-.889.377-1Z" fill="#000000"/><path d="M909.144,936.746c-.549,0-.755-.748-.755-1.138a.587.587,0,0,1,.583-.514,5.352,5.352,0,0,1,1.2.264c.154.047.188.219.188.344A2.731,2.731,0,0,1,909.144,936.746Zm13.069-1.637c.411,0,1.046.032,1.046.39,0,.748-1,1.123-1.681,1.123-.549,0-2.384-.359-3.036-.468a3,3,0,0,0-.445-.14.286.286,0,0,0-.189.078.531.531,0,0,0,.154.374c.121.14.309.219.429.358a3.84,3.84,0,0,1,.583.905c0,.015-.034.078-.034.093a.484.484,0,0,1-.378.157c-.7,0-1.406-.609-2.041-.858a.659.659,0,0,0-.085.358c0,.11.017.235.017.359,0,.375-.155,2.371-.669,2.371-.566,0-.5-2.2-.515-2.6l-.377-.359c-.274.219-.669.234-.943.438-.429.3-.583.857-1.012,1.169a7.172,7.172,0,0,1-3.567,1.232c-.326,0-.824-.2-.824-.546a.789.789,0,0,1,.5-.64c.308-.125.652-.078.96-.171.463-.14.926-.281,1.373-.437.188-.061.394-.077.583-.155a4.449,4.449,0,0,0,1.131-1,1.806,1.806,0,0,0,.481-1.045,2.582,2.582,0,0,1-.961.2,2.772,2.772,0,0,1-.377-.062c-.429-.078-1.1-.062-1.1-.624a.446.446,0,0,1,.343-.374,14.248,14.248,0,0,1,3.361-.468.883.883,0,0,0,.378-.623c0-.593-.514-.671-.909-.983a3.516,3.516,0,0,1-.514-1.622c0-.311.051-.608.068-.92s.034-2.2.532-2.2c.429,0,.429,1.045,1.166,1.045.034,0,.086-.016.12-.016a.422.422,0,0,1,.325-.094c.172,0,.361.032.481.032.635,0,.737-.7,1.029-.7.5,0,.515,1.059.6,1.372a.993.993,0,0,1,.051.311c0,.156-.069.328-.069.484,0,.2.086.4.086.608a2.914,2.914,0,0,1-.1.53c-.172.826-.515.718-1.081,1.2a2.754,2.754,0,0,0-.618.952c.035.249.189.638.532.638,1.372,0,2.744.219,4.116.344.069,0,.138.016.206.016.223,0,.429-.032.651-.032Zm-13.224-2.994c0-.78.909-1.013,1.236-1.637-.687-.874-1.253-.063-1.253-1.809a.748.748,0,0,1,.155-.421l1.526-1.716a.436.436,0,0,1,.326-.14,6.111,6.111,0,0,1,1.149.265c.172.047.223.187.309.312,0,.047.017.078.017.125a.292.292,0,0,1-.1.218c-.635.53-1.115-.047-1.972,1.013-.138.172-.292.3-.292.53a.688.688,0,0,0,.068.266c.481.125.515.483,1.15.483.24-.109.257-.343.257-.608v-.172c0-.311.035-.576.463-.576h.566c.394,0,.652.795.652,1.075,0,.36-.292.906-.755.906-.583.826-1.8,1.028-2.315,1.886.1.234.326.265.565.265a3.04,3.04,0,0,0,1.236-.28c0-.157-.018-.282-.018-.406,0-.343.086-.546.687-.546.274,0,.7.733.7.952a.4.4,0,0,1-.052.2c-.411.921-.669.827-1.612,1.092a5.244,5.244,0,0,1-1.029.328,4.31,4.31,0,0,1-.446-.063c-1.166-.109-1.218-.39-1.218-1.248Zm8.816-4.569c0,.28-.206.327-.463.327-.206,0-.411-.109-.583-.109-.515,0-1.03.093-1.544.093-.223,0-.411-.17-.652-.17-.051,0-.154,0-.154-.063,0-1.107,1.424-.281,1.424-1.528a.321.321,0,0,1,.343-.359.374.374,0,0,1,.188.046c.411.219.515.3.515.609,0,.062-.018.156-.018.25C917.2,926.859,917.805,927.109,917.805,927.546Zm-.635,3.773c0-.467-.239-1.137-.858-1.137-.719,0-1.508.3-1.508,1.06,0,.748.12,1.154,1.029,1.154.411,0,1.183-.125,1.3-.546a1.028,1.028,0,0,0,.034-.312Zm4.854.391c0-.3-.292-.562-.292-.812,0-.311.361-.389.635-.389.6,0,1.1,1.294,1.1,1.746a.527.527,0,0,1-.172.406,8.709,8.709,0,0,1-2.658.889c-.721,0-1.561-.063-1.561-.9a5.847,5.847,0,0,1,.96-2.6c-.274-.281-.7-.546-.7-.951a2.558,2.558,0,0,1,1.321-2.293,1.683,1.683,0,0,1,1.132-.452.359.359,0,0,1,.205.375c0,.873-1.611.514-1.611,1.605a.259.259,0,0,0,.154.266c.137.062.275.094.411.155.241.125.429.359.721.406.978-.234.206-1.465.96-1.465.429,0,.721.53.721.857,0,.608-1.27,1.7-1.853,1.7a.978.978,0,0,1-.36-.125c-.617.14-.858,1-1.149,1.45.121.5,1.012.5,1.441.5a1.007,1.007,0,0,0,.565-.187A.5.5,0,0,0,922.024,931.71Zm.257,8.421c-.566,0-2.418-1.295-2.418-1.81a.28.28,0,0,1,.257-.264,9.421,9.421,0,0,1,3.311.81.944.944,0,0,1,.342.577c0,.312-.737.718-1.045.718a.416.416,0,0,1-.241-.047A.891.891,0,0,1,922.281,940.131Z" fill="#000000"/><path d="M921.9,951.174c.034-.545.189-1.075.189-1.621,0-.734-.069-2.589-.721-3.073-.1-.078-.188-.109-.188-.25,0-.124.068-.327.24-.327.36-.514.1-1.684.617-1.684.274,0,.429.3.549.469a3,3,0,0,1,.412.654,5.62,5.62,0,0,1,.325,1.98c0,.5.12,1,.12,1.5,0,1.108-.222,2.215-.222,3.307,0,.108.068.218.068.343a1.243,1.243,0,0,1-.034.249c-.223,1.013-.291.546-.875,1.17a5.2,5.2,0,0,0-.446.857c-.326.53-.926.421-1.475.53a4.33,4.33,0,0,1-.772.094c-1.612,0-3.19-.3-4.8-.3-.344,0-.669.124-1,.124-.121,0-.257-.031-.377-.031a11.107,11.107,0,0,0-2.694.313.82.82,0,0,1-.188.031c-.034,0-.086-.016-.12-.016-1.475-.265-1.818-2.074-1.818-3.2,0-.484.051-.951.069-1.435a16.743,16.743,0,0,1,.291-3.587,1.1,1.1,0,0,1-.051-.4,21.51,21.51,0,0,1,.479-2.105c.052-.14.241-.468.429-.468.36,0,.43.328.43.593,0,.218-.052.421-.07.639l-.36,7.376c.189.265.344.826.773.826,1.388,0,2.778-.295,4.166-.295h1.8q1.313,0,2.625.046c.411.016.824.11,1.235.11a1.967,1.967,0,0,0,1.252-.422Zm-3.036-5.582c.549.094,1.715.108,2.11.452a2.229,2.229,0,0,1-.035.343c-.1.592-1.937.062-2.263.967a1.653,1.653,0,0,0-.069.577c0,.452-.223.763-.223,1.123,0,.186.051.358.051.546,0,1.2-1.011,2.869-2.487,2.869-.651,0-1.423-.2-1.423-.92a.517.517,0,0,1,.241-.515,2.242,2.242,0,0,1,.565-.125,3.8,3.8,0,0,0,1.51-.779c.514-.452.531-1.092.84-1.638a2.138,2.138,0,0,0-1.9-1.45,1.086,1.086,0,0,1-.927-.936c0-.795,1.528,0,2.179-1.107a4.651,4.651,0,0,0,.361-.811c0-1.029-.378-.655-1.03-1.044l-4.425.108a2.386,2.386,0,0,1-1.029.266c-.257,0-.806-.047-.806-.374,0-.531,1.321-.983,1.784-1.092.394-.094.789-.047,1.183-.11a11.494,11.494,0,0,1,1.938-.187c.137,0,.258.031.394.031,1.785.078,3.7-.108,5.386.562a.717.717,0,0,1,.36.608c0,.188-.532.546-.72.546-.515,0-1.012-.188-1.509-.188-.549,0-.481.905-.549,1.233Zm-5.917.124c.395,0,.772.047,1.166.047.206,0,.446.156.446.359,0,.592-2.453.889-2.966,1.06-.07.015-.07.031-.138.031a.3.3,0,0,1-.188-.093.685.685,0,0,1-.035-.187.4.4,0,0,1,.017-.141,1.554,1.554,0,0,1-.017-.28c0-.781.994-.8,1.647-.8Zm-.96,5.021c-.446,0-.652-.452-.652-.795,0-1.076,1.424-1.512,2.384-1.684.034,0,.069-.016.1-.016a.364.364,0,0,1,.343.391c0,.654-.909,1.059-1.338,1.481C912.574,950.348,912.42,950.737,911.991,950.737Z" fill="#000000"/></g></g></svg>
