<svg xmlns="http://www.w3.org/2000/svg" width="1000" height="988" viewBox="0 0 1000 988"><g id="Artboard"><rect id="Tint" width="1000" height="988" fill="#58595b"/></g><g id="Overlap"><g id="幺樂団の歴史"><path id="幺" d="M465.989,96.791q-1.024-1.965-1.879-1.965a2.372,2.372,0,0,0-1.879.684,2.648,2.648,0,0,0-.512,1.451,3.249,3.249,0,0,0,.6,1.708,65.822,65.822,0,0,1,4.783,8.882q-.173,1.024-1.537,1.2-6.236.427-15.2.427-11.1,0-14-.257c-.627-.113-.939-.227-.939-.341a3.4,3.4,0,0,1,.768-2.221Q448.652,93.2,460.865,80.906a3.8,3.8,0,0,0,1.451-3.074,2.316,2.316,0,0,0-.6-1.708,1.972,1.972,0,0,0-1.366-.684,4.011,4.011,0,0,0-2.477.769q-6.15,6.492-12.811,13.323a4.391,4.391,0,0,0-1.024-1.2,34.924,34.924,0,0,0-7.259-4.185q-3.5-1.537-3.5-1.879A2.934,2.934,0,0,1,434.9,79.8a81.9,81.9,0,0,0,14.262-14.177,8.42,8.42,0,0,0,2.22-5.209q0-2.818-2.305-2.818a3.535,3.535,0,0,0-2.819,1.879,75.621,75.621,0,0,1-12.724,15.543,27.767,27.767,0,0,1-6.235,5.209,3.952,3.952,0,0,0-1.878,2.989A2.689,2.689,0,0,0,427.9,86.03q4.356,1.2,12.981,6.234a12.415,12.415,0,0,0,1.2.513q-7,7.173-14.348,14.6a7.3,7.3,0,0,0-1.622,4.27q0,2.307,3.757,2.306a49.283,49.283,0,0,1,5.552-.342q7.6.344,14.6.342,8.112,0,15.713-.342a16.6,16.6,0,0,1,3.416.342q3.5,0,3.5-2.989a9.8,9.8,0,0,0-1.366-4.441Q468.379,100.634,465.989,96.791Z"/><g id="樂"><path d="M506.385,71.683a28.664,28.664,0,0,1,6.832,3.245q-3.246,3.33-6.661,6.747a3.227,3.227,0,0,0-.769,1.879q0,1.792,2.818,1.793a26.036,26.036,0,0,1,4.1-.342,15.687,15.687,0,0,0,3.245.342,43.357,43.357,0,0,0,5.552-.342,8.124,8.124,0,0,1,2.391.342,2.152,2.152,0,0,0,2.476-2.391,4.788,4.788,0,0,0-.6-2.05q-1.2-2.562-2.05-4.355-.428-.77-.769-.769a2.221,2.221,0,0,0-1.622.512,1.772,1.772,0,0,0-.513,1.111,2.5,2.5,0,0,0,.086.6,21,21,0,0,1,.94,2.477q-.087.941-.6,1.025a27.494,27.494,0,0,1-5.3.427,7.1,7.1,0,0,1-2.476-.256.91.91,0,0,1-.17-.513,1.16,1.16,0,0,1,.341-.854q4.782-5.208,9.394-10.162a1.621,1.621,0,0,0,.6-1.281,1.848,1.848,0,0,0-.513-1.367,1.8,1.8,0,0,0-1.28-.6,1.969,1.969,0,0,0-1.111.342q-2.305,2.391-4.953,5.039a11.225,11.225,0,0,0-2.562-1.794q-1.2-.768-1.2-.939a1.241,1.241,0,0,1,.6-1.025,35.881,35.881,0,0,0,6.235-6.234,3.31,3.31,0,0,0,1.024-2.221q0-2.475-2.135-2.476a1.9,1.9,0,0,0-1.452.854,36.888,36.888,0,0,1-6.832,7.771,12.127,12.127,0,0,1-3.33,2.562,1.87,1.87,0,0,0-.94,1.452A1.353,1.353,0,0,0,506.385,71.683Z"/><path d="M531.065,86.713a9.485,9.485,0,0,1,2.221-.768,29.424,29.424,0,0,1,5.038-.257,39.576,39.576,0,0,1,6.832.684q1.965,0,1.965-2.477V76.722q0-4.014.171-7.6a14.712,14.712,0,0,1,.427-3.672l.171-.6a1.888,1.888,0,0,0-2.135-2.135,11.086,11.086,0,0,1-2.734.427,11.289,11.289,0,0,0-2.818-.427h-1.537q.682-1.109,1.965-3.758a3.31,3.31,0,0,0,.427-1.366q0-2.389-2.734-2.391a2.152,2.152,0,0,0-2.476,2.391,17.733,17.733,0,0,1-.769,5.124q-1.024-.084-1.708-.171a16.454,16.454,0,0,0-2.306-.171q-2.049,0-2.049,2.135a82.232,82.232,0,0,1,.768,10.248,74,74,0,0,1-.768,9.821Q529.016,86.714,531.065,86.713Zm2.819-19.13q0-1.451,1.281-1.451a56.573,56.573,0,0,1,7.174.342c.454,0,.682.255.682.768v5.38h-8.2a7.377,7.377,0,0,0-1.024.086Q533.882,70.232,533.884,67.583Zm-.171,8.711a1.587,1.587,0,0,0,.513.086,50.007,50.007,0,0,1,8.795-.6v6.149A.906.906,0,0,1,542,82.956a22.676,22.676,0,0,0-3.673-.342,12.483,12.483,0,0,0-3.159.342q-1.623,0-1.623-1.367Q533.711,79.113,533.713,76.294Z"/><path d="M551.135,71.6a35.9,35.9,0,0,1,6.832,2.988l.085.086q-3.417,3.417-7.088,7a3.227,3.227,0,0,0-.769,1.879q0,1.792,2.733,1.793a27.184,27.184,0,0,1,4.1-.342,14.919,14.919,0,0,0,3.075.342,50.323,50.323,0,0,0,5.892-.342,7.821,7.821,0,0,1,2.306.342,2.152,2.152,0,0,0,2.476-2.391,4.788,4.788,0,0,0-.6-2.05q-1.366-2.562-2.391-4.355-.429-.77-.768-.769a2.415,2.415,0,0,0-1.624.512,1.775,1.775,0,0,0-.512,1.111,1.359,1.359,0,0,0,.171.6,20.352,20.352,0,0,1,1.281,2.477c-.058.627-.256.969-.6,1.025a31.442,31.442,0,0,1-5.636.427,5.6,5.6,0,0,1-2.221-.256.918.918,0,0,1-.17-.513,1.16,1.16,0,0,1,.341-.854q4.953-5.208,9.65-10.162a1.621,1.621,0,0,0,.6-1.281,2.073,2.073,0,0,0-.427-1.367,1.73,1.73,0,0,0-1.2-.6,2.107,2.107,0,0,0-1.2.342q-2.307,2.391-4.868,4.868a14.351,14.351,0,0,0-2.647-1.708q-1.283-.682-1.281-.854a1.242,1.242,0,0,1,.6-1.025,39.258,39.258,0,0,0,5.466-6.234,3.645,3.645,0,0,0,.855-2.221q0-2.475-2.136-2.476a1.634,1.634,0,0,0-1.281.854,39,39,0,0,1-6.32,7.771,12.174,12.174,0,0,1-3.074,2.562,1.868,1.868,0,0,0-.939,1.452Q549.854,71.343,551.135,71.6Z"/><path d="M538.7,117.713q2.358-.6,2.359-5.465l-.427-13.493q0-1.281.085-2.818a97.778,97.778,0,0,1,13.493,1.11,69.41,69.41,0,0,1,15.714,4.014,10.372,10.372,0,0,0,3.245.6q1.365,0,2.732-2.135a10.318,10.318,0,0,0,1.368-5.038q0-.6-.769-.6a49.766,49.766,0,0,1-5.124.256A126.326,126.326,0,0,1,557.2,93.118a159.038,159.038,0,0,0-16.14-1.622v-.427q0-3.415-2.734-3.416-2.818,0-2.817,3.416V91.5q-9.736.257-32.111,4.014a4.1,4.1,0,0,0-2.732,1.281,3.549,3.549,0,0,0-1.367,2.476q.256,2.562,3.074,2.733a9.057,9.057,0,0,0,2.9-.854,66.041,66.041,0,0,1,13.067-3.587,92.54,92.54,0,0,1,17.422-1.622c.055.911.085,1.85.085,2.818q0,4.868-.341,13.493a10.449,10.449,0,0,0,.648,4.214,3.709,3.709,0,0,1,2.544,1.251Z"/><path d="M526.71,105.074q0-.937-1.024-.939a25.741,25.741,0,0,1-9.224,2.306,22.168,22.168,0,0,1-3.159-.342c-.628,0-.94.484-.94,1.452a8.1,8.1,0,0,0,1.281,4.526,3.5,3.5,0,0,0,2.818,1.537q2.732,0,6.4-3.757Q526.71,106.356,526.71,105.074Z"/><path d="M558.735,107.124a46.586,46.586,0,0,1-7-3.16,1.557,1.557,0,0,0-.426-.171,1,1,0,0,0-1.111,1.025,1.656,1.656,0,0,0,.342.854,67.33,67.33,0,0,0,5.893,7.345,1.614,1.614,0,0,0,1.281.6q1.876,0,5.124-1.964a3.745,3.745,0,0,0,1.708-2.818.83.83,0,0,0-.939-.939A19.321,19.321,0,0,1,558.735,107.124Z"/></g><g id="団"><path d="M595.976,116.347q5.293-.511,8.966-.683,4.44-.257,20.753-.256,12.981,0,29.377.6,2.391,0,2.392-3.075-.344-13.578-.342-21.435,0-10.162.342-19.3a70.861,70.861,0,0,1,.768-9.479q.257-1.45.256-1.623,0-3.159-2.817-3.159a11.236,11.236,0,0,1-3.416.683q-12.726-.34-22.034-.342H602.808a17.184,17.184,0,0,1-3.929-.341,10.63,10.63,0,0,0-2.562-.342A2.491,2.491,0,0,0,593.5,60.41q.682,16.482.684,28.268,0,10.676-.684,24.936Q593.5,116.349,595.976,116.347Zm3.757-51.838q0-1.794,1.622-1.793,32.709,0,49.96.427,1.281,0,1.281,1.024-.342,13.921-.341,45.69,0,1.453-1.281,1.452-13.923-.341-25.279-.342-14.091,0-24.68.342-1.967,0-1.965-2.135Q599.733,88.165,599.733,64.509Z"/><path d="M620.485,86.372q-11.957,5.722-11.956,6.49-.94.684-.939,3.075,0,1.709,3.074,1.708,1.283,0,10.248-8.541a3.385,3.385,0,0,0,.684-1.793Q621.6,86.372,620.485,86.372Z"/><path d="M606.224,80.138a11.076,11.076,0,0,0,3.331-.684q4.268-1.281,15.457-1.281a53.072,53.072,0,0,1,7.515.513q.341,5.038.341,10.333a36.316,36.316,0,0,1-.512,7.515,4.375,4.375,0,0,1-2.3,2.819q-1.539,1.2-6.832,1.708-1.283.255-1.282,1.281a4.289,4.289,0,0,0,1.538,3.33,4.647,4.647,0,0,0,3.16,1.2,13.618,13.618,0,0,0,5.806-1.452q4.782-2.133,4.783-10.163,0-5.636-.171-15.628a10.814,10.814,0,0,1,1.623.513,11.663,11.663,0,0,0,3.672,1.024q1.878,0,3.928-2.562a7.745,7.745,0,0,0,1.879-4.526q0-.768-.939-.768a14.728,14.728,0,0,0-2.648.6,18.852,18.852,0,0,1-3.587.513,24.437,24.437,0,0,1-2.647-.171,12.27,12.27,0,0,1-1.366-.086q.083-1.793.256-3.757a8.269,8.269,0,0,0,.341-1.879,2.416,2.416,0,0,0-2.732-2.733q-2.649,0-2.647,3.416,0,1.281.085,4.612-4.612-.169-7.259-.171a134.329,134.329,0,0,0-16.141,1.11,3.971,3.971,0,0,0-1.623-.341,2.939,2.939,0,0,0-2.135,1.11,4.42,4.42,0,0,0-.939,2.647Q604.174,80.138,606.224,80.138Z"/></g><path id="の" d="M693.845,106.953q3.075,0,7.942-5.978Q709.9,90.727,714.768,68.1q.255,0,1.281-.085h1.366q12.639,0,17.678,8.54a15.491,15.491,0,0,1,2.476,8.027,16.476,16.476,0,0,1-3.074,9.565,23,23,0,0,1-7.259,6.747,35.92,35.92,0,0,1-12.639,3.928q-2.649.429-4.185.6-1.965.429-1.964,1.2,0,2.05,2.391,3.929a7.415,7.415,0,0,0,4.526,1.793q3.67,0,10.334-3.159,16.737-7.857,16.738-22.973a20.046,20.046,0,0,0-8.284-16.909q-7.6-5.637-18.446-5.637-17.594,0-26.218,10.163a23.411,23.411,0,0,0-5.551,15.116,28.072,28.072,0,0,0,2.391,11.016Q689.148,106.953,693.845,106.953Zm-.769-30.4q5.208-5.978,16.483-8.028-3.931,18.959-10.59,28.011-2.906,3.674-5.124,3.673-2.48,0-4.356-4.868a22.569,22.569,0,0,1-1.366-7.174Q688.123,82.615,693.076,76.551Z"/><g id="歴"><path d="M761.823,103.793q2.733,2.307,4.953,2.306,1.452,0,4.015-2.818a34.376,34.376,0,0,0,5.978-11.444,43.423,43.423,0,0,0,1.452-9.138,5.652,5.652,0,0,0,.853,1.025,4.7,4.7,0,0,0,3.416,1.964,3.664,3.664,0,0,0,.855-.256,23.271,23.271,0,0,0,5.465-3.16,36.108,36.108,0,0,0,3.075-2.9q-.173,2.478-.257,5.636,0,4.784,2.05,4.783,2.818,0,2.818-4.783l-.256-6.319A29.343,29.343,0,0,1,800,80.821a2.1,2.1,0,0,0,.94.341q2.05,0,2.049-1.708,0-.768-3.074-2.818a24.9,24.9,0,0,0-3.416-1.879,1.432,1.432,0,0,0-.427.086V72.964c.74.057,1.422.085,2.05.085q2.476.256,3.074.257a3.587,3.587,0,0,0,2.648-1.025,3.653,3.653,0,0,0,.768-2.391c-.057-.455-.371-.684-.939-.684h-7.345c.056-.4.113-.825.171-1.281q0-3.075-2.476-3.074-2.393,0-2.392,3.074a10.151,10.151,0,0,0,.086,1.281h-6.832a4.931,4.931,0,0,0-2.648.6,2.756,2.756,0,0,0-1.11,1.879,2.3,2.3,0,0,0,2.306,2.391,6.906,6.906,0,0,0,1.794-.512,33.568,33.568,0,0,1,6.746-.6V74.5a2.453,2.453,0,0,1-.342.256,19.268,19.268,0,0,1-4.014,3.16,14.812,14.812,0,0,1-4.953,1.793,24.278,24.278,0,0,1-3.33.428,1.786,1.786,0,0,0-.939.256q.082-1.878.085-4.014l-.085-11.444V63.484q1.108-.084,4.269-.512,6.15-.6,19.984-.6,9.137,0,16.824.256,7.429.855,9.479.854a4.063,4.063,0,0,0,3.074-1.366,5.117,5.117,0,0,0,1.026-3.16q-.087-.682-1.452-.683H779.672a7.511,7.511,0,0,0-1.622.171,3.751,3.751,0,0,0-2.734-.854q-2.477,0-2.476,2.818.682,8.8.683,13.92a48.471,48.471,0,0,1-1.708,14.006q-1.965,6.321-5.55,8.711a10.49,10.49,0,0,1-4.7,1.879,1.674,1.674,0,0,0-1.623,1.793Q759.944,102.173,761.823,103.793Z"/><path d="M819.9,75.184v-1.11a11.733,11.733,0,0,1,.085-1.452q2.562,0,4.868.171a20.608,20.608,0,0,0,2.989.513,3.643,3.643,0,0,0,2.818-1.111,3.964,3.964,0,0,0,.94-2.647q-.087-.683-1.025-.683H820.237a5.765,5.765,0,0,1,.086-.94q0-3.075-2.306-3.074-2.478,0-2.477,3.074a5.637,5.637,0,0,0,.086.94h-4.441a4.941,4.941,0,0,0-2.648.6,2.539,2.539,0,0,0-1.109,1.879,2.194,2.194,0,0,0,2.3,2.306,9.019,9.019,0,0,0,1.879-.427,26.854,26.854,0,0,1,4.185-.512v2.476l-.257.256a14.6,14.6,0,0,1-3.587,3.929,14.045,14.045,0,0,1-4.354,2.306,14.94,14.94,0,0,1-2.99.6q-1.452.087-1.623.94a3.984,3.984,0,0,0,1.452,2.562,4.711,4.711,0,0,0,3.331,1.879,1.967,1.967,0,0,0,.768-.257,15.071,15.071,0,0,0,4.783-3.586,18.667,18.667,0,0,0,2.391-2.733q-.087,1.623-.171,3.5,0,4.869,2.136,4.868,2.644,0,2.647-4.868l-.257-5.722,1.794,1.2a106.574,106.574,0,0,1,8.113,7.6,4.747,4.747,0,0,0,3.075,1.11,8.388,8.388,0,0,0,4.7-1.537q2.478-1.452,2.477-2.989,0-1.024-1.451-1.025a29.663,29.663,0,0,1-3.843-.513q-2.564-.681-12.811-6.49A6.28,6.28,0,0,0,819.9,75.184Z"/><path d="M778.9,115.126c.037.074.072.15.105.227a5.443,5.443,0,0,1,.344,1.185,102.607,102.607,0,0,1,10.91-3.009,92.045,92.045,0,0,1,14.091-.939,97.492,97.492,0,0,1,11.785.6,64.414,64.414,0,0,1,13.579,3.33,8.441,8.441,0,0,0,3.672.854q1.2,0,2.562-2.306a9.638,9.638,0,0,0,1.195-4.441c0-.739-.114-1.11-.341-1.11a21.923,21.923,0,0,1-3.757.342q-6.15,0-12.9-.513-6.662-.6-12.3-.683l.171-7.344h.085a7.012,7.012,0,0,0,1.452-.427,30.5,30.5,0,0,1,6.662-.513q2.475,0,4.611.086,2.049.257,2.562.256a3.586,3.586,0,0,0,2.648-1.025,4.12,4.12,0,0,0,.768-2.391c-.057-.455-.371-.683-.939-.683H809.392a8.568,8.568,0,0,0-1.2.085l.171-4.184a2.416,2.416,0,0,0-2.733-2.733,2.038,2.038,0,0,0-2.306,2.306l.342,16.482q-4.1.085-10.932.683a14.846,14.846,0,0,0,.342-3.5,86.471,86.471,0,0,0-.342-10.248q-.171-2.307-2.732-2.306-2.818,0-2.819,2.306a39.906,39.906,0,0,1,1.111,8.2,31.19,31.19,0,0,1-.427,5.124,4.708,4.708,0,0,0,.085.939q-4.954.685-11.358,1.538a4.624,4.624,0,0,0-2.733,1.2c-.088.077-.151.157-.23.235a6.412,6.412,0,0,1,1.238-.133A4.5,4.5,0,0,1,778.9,115.126Z"/></g><path id="史" d="M907.458,113.332a7.148,7.148,0,0,1,3.021-.726,4.46,4.46,0,0,1,3.845,2.179,3.839,3.839,0,0,1,.286.574,4.926,4.926,0,0,1,.283,1.028c.263.083.511.158.726.217a18.978,18.978,0,0,0,5.124.768,5.781,5.781,0,0,0,3.587-1.537q2.9-2.818,2.9-5.21a.981.981,0,0,0-1.109-1.11,72.2,72.2,0,0,1-13.664-2.049,218.879,218.879,0,0,1-24.681-7.857A37.206,37.206,0,0,0,890.17,87.4q8.112.087,17.934.94,2.307,0,2.306-2.989-.342-3.5-.342-5.551a60.43,60.43,0,0,1,.342-6.661,9.827,9.827,0,0,1,.769-3.331,2.671,2.671,0,0,0,.256-.6q0-2.731-2.648-2.732a10.755,10.755,0,0,1-3.416.768q-8.114-.341-14.006-.342H890.6q.084-4.013.086-7.942,0-2.305-2.734-2.306a2.163,2.163,0,0,0-2.476,2.306V66.9H873.858a12.936,12.936,0,0,1-3.842-.426,10.278,10.278,0,0,0-2.648-.342q-2.648,0-2.647,2.733a61.158,61.158,0,0,1,.683,8.283,68.545,68.545,0,0,1-.683,8.882,2.038,2.038,0,0,0,2.3,2.306,45.864,45.864,0,0,1,5.979-.683q2.731-.341,12.383-.342-.087,2.818-.256,4.7a25.553,25.553,0,0,1-1.794,5.893q-7.857-2.988-18.02-6.234a16.9,16.9,0,0,0-4.013-.94q-2.05.172-2.135,2.477,0,1.879,2.135,2.306a66.32,66.32,0,0,1,10.419,2.561q3.671,1.282,9.137,3.673a16.331,16.331,0,0,1-7.942,6.319q-4.785,2.136-17.763,2.135-1.708.257-1.708,1.452,0,2.9,1.2,4.014a6.013,6.013,0,0,0,3.928,1.025,38.827,38.827,0,0,0,11.956-2.221,26.175,26.175,0,0,0,13.835-8.8q.6-.768,1.281-1.793,4.611,1.965,10.418,4.611,6.657,3.017,11.2,4.937l.068-.034C907.374,113.372,907.416,113.351,907.458,113.332ZM890.6,71.085q8.112.087,13.664.256,1.452,0,1.452.94-.343,3.073-.342,9.991,0,1.281-1.451,1.282-7.26-.257-13.579-.342Q890.51,77.149,890.6,71.085Zm-5.124,12.127q-7.516,0-13.237.342-2.136,0-2.135-1.623a61.251,61.251,0,0,0,.683-9.309q0-1.62,1.793-1.622h12.9Z"/></g><g id="_1" data-name="1"><path d="M926.2,105.516c.107,0,.205.025.31.032l10.334-58.8c.037-.211.652-2.518,1.71-7.345s1.858-8.183,2.227-10.281l2.745-9.652-.089-1.889-1.147-.629-3.369,1.258a102.821,102.821,0,0,1-22.31,7.554q-4.257.945-6.515,1.259c-1.715.21-4.764.839-9.071,1.469-4.1.63-6.342,1.469-6.527,2.518l.617,1.259a2.672,2.672,0,0,0,1.816.42H898.4l1.925-.21,24.388-1.469L912.02,103.236c.451.113.909.23,1.343.333A68.915,68.915,0,0,0,926.2,105.516Z"/><path d="M914.99,120.568l-.09,17.785.058,1.875a5.736,5.736,0,0,1,3.813-1.485,5.643,5.643,0,0,1,2.254.483c.117-.717.243-1.454.384-2.254l1.715-10.908a3.994,3.994,0,0,1-.376-1.69,4.171,4.171,0,0,1,1.079-2.781l.14-.891a8.358,8.358,0,0,1-3.224.67A22.7,22.7,0,0,1,914.99,120.568Z"/><path d="M930.9,154.6c-3.53-.21-7.27-.419-11.467-.419.093-1.438.189-2.738.287-3.912a6.068,6.068,0,0,1-.95.081,5.7,5.7,0,0,1-3.137-.921,4.008,4.008,0,0,1-1.326.507l-.385.07a4.077,4.077,0,0,1-.714.064q-.171,0-.342-.015l-1.15-.1-1.9-.092-1.9.092-1.15.1q-.171.015-.342.015a4,4,0,0,1-.656-.054l-.42-.07a4,4,0,0,1-2.166-1.111c-.065-.065-.113-.142-.174-.21-.084.053-.173.1-.26.149l-1.355,5.407a107.116,107.116,0,0,0-12.281.629c-7.035.629-16.069,1.888-16.548,4.616a2.181,2.181,0,0,0,.582,1.469l2.443.42,2.975-.21a288.571,288.571,0,0,1,31.1-1.469,245.119,245.119,0,0,1,28.7,1.469l2.9.21,2.381-.42a3.728,3.728,0,0,0,1.1-1.469C945.22,156.7,937.468,155.436,930.9,154.6Z"/></g></g><g id="Outline"><path id="上海_アリス幻樂団" data-name="上海■アリス幻樂団" d="M94.465,927.936c.032-.043.063-.086.093-.13a5.188,5.188,0,0,0,.885-2.5,6.754,6.754,0,0,0,.869-3.068,3.987,3.987,0,0,0-.785-2.558,7.021,7.021,0,0,0,.492-2.393,3.991,3.991,0,0,0-2.657-3.918,5.042,5.042,0,0,0,1.845-1.87,7.482,7.482,0,0,0,.99-3.259,4,4,0,0,0-2.011-3.768,5.5,5.5,0,0,0,.216-1.53,4.479,4.479,0,0,0-2.388-4.076,3.894,3.894,0,0,0-.565-.24,5.888,5.888,0,0,0-1.7-.283,4.728,4.728,0,0,0-1.8-2.327,5.328,5.328,0,0,0-3.089-.96,4.965,4.965,0,0,0-5,4.967l.031,3.561a18.214,18.214,0,0,0-2.618.62,5.308,5.308,0,0,0-.611.231,4.829,4.829,0,0,0,1.229-3.207,4.672,4.672,0,0,0-2.922-4.3,9.649,9.649,0,0,0-2.9-.633c-1.665-.159-3.687-.239-6.019-.239a22.791,22.791,0,0,0-3.5.268,5.249,5.249,0,0,0-1.948.72,4.647,4.647,0,0,0-2.416-1.307c-.1-.022-.2-.04-.307-.053a30.376,30.376,0,0,0-3.817-.137,29.258,29.258,0,0,0-3.376.105,4.93,4.93,0,0,0-2.612-.717,6,6,0,0,0-4.363,2.362l-.052.06L41.09,900.4a5.464,5.464,0,0,0-1.6,3.633,4.365,4.365,0,0,0,.558,2.113,5.305,5.305,0,0,0-.5,2.233,4.657,4.657,0,0,0,4.266,4.614,6.781,6.781,0,0,0-1.208,1.077l-1.566,1.738a4.8,4.8,0,0,0-1.431,3.274,4.217,4.217,0,0,0,.221,1.328,4.27,4.27,0,0,0-.1.913,4.522,4.522,0,0,0,.1.949,5.272,5.272,0,0,0-.161,1.308,4.584,4.584,0,0,0,1.292,3.17l.046.049a4.6,4.6,0,0,0,2.048,3.4,4.524,4.524,0,0,0-2.939,4.239c0,.089,0,.179.009.269l.618,9.167c.005.061.01.123.017.184a4.359,4.359,0,0,0,4.329,4.073,5.522,5.522,0,0,0,1.29-.17c1.045-.1,2.53-.153,4.42-.153,2.366,0,3.621.073,4.268.138a7.606,7.606,0,0,0,1.2.117,4.339,4.339,0,0,0,3.435-1.7,4.884,4.884,0,0,0,2.755.85,8.772,8.772,0,0,0,5.086-1.792l.1.1.038.036q.4.381.612.573a4.928,4.928,0,0,0,6.923.388A3.986,3.986,0,0,0,79,949.267H90.865a4,4,0,0,0,4-4V932.146a3.978,3.978,0,0,0-1.533-3.128A4.778,4.778,0,0,0,94.465,927.936ZM75,932.146v2.22a4.664,4.664,0,0,0-2.572-3.1,9.279,9.279,0,0,0-4.247-.691l-.324,0a8.917,8.917,0,0,0,4.77-2.258,9.378,9.378,0,0,0,2.259-3.45h0a4.419,4.419,0,0,0-.2,1.294,5.023,5.023,0,0,0,1.3,3.373A3.963,3.963,0,0,0,75,932.146ZM59.03,912.008a5.121,5.121,0,0,0,3.081,1.6,4.624,4.624,0,0,0-1.664,1.624,5,5,0,0,0-.681-1.328l-.075-.1a4.54,4.54,0,0,0-1.356-1.167c.207-.167.415-.347.621-.55C58.981,912.058,59.006,912.034,59.03,912.008Zm-.933,18c.143-.105.293-.2.427-.32a3.961,3.961,0,0,0,.475-.511,6.8,6.8,0,0,0,.961-1.777,4.97,4.97,0,0,0,3.433,3.065,6.526,6.526,0,0,0,1.092.206l-.323.006c-.1,0-.2.006-.3.012-.044,0-.088,0-.133,0a5.116,5.116,0,0,0-3.181,1.063A4.432,4.432,0,0,0,58.1,930.013Zm16.914-17.579a5.043,5.043,0,0,0,1.239.976c-.094.081-.195.146-.284.234-.073.072-.142.146-.209.223a5.215,5.215,0,0,0-.7,1.07,5,5,0,0,0-1.395-1.269c-.034-.021-.069-.041-.1-.061a5.77,5.77,0,0,0-5.76.077,5.025,5.025,0,0,0-1.6-.627,9.4,9.4,0,0,0,3.885-2.6,7.767,7.767,0,0,0,1.181-1.652,6.5,6.5,0,0,0,2.891-1.907,5.411,5.411,0,0,0-.472,2.223A4.834,4.834,0,0,0,75.011,912.434Zm-.045,24.941-.212-.06a4.534,4.534,0,0,0,.244-.756v.827Z" fill="#fff"/></g><g id="Text"><path d="M442.021,40.363v-.011c-.008-.092-.016-.165-.023-.219a.848.848,0,0,0-.046-.208,3.749,3.749,0,0,0-.184-.391.687.687,0,0,1-.1-.15.44.44,0,0,1-.046-.07,1.807,1.807,0,0,1-.127-.241.209.209,0,0,1-.012-.15.134.134,0,0,1,.069-.115.387.387,0,0,1,.185-.07.476.476,0,0,1,.173.024,6.574,6.574,0,0,1,.691.253q.346.207.622.381a.555.555,0,0,1,.115.161.625.625,0,0,1,.035.207c.016.184.027.373.035.565V40.6c-.008.131-.012.227-.012.289l.761-.3a.287.287,0,0,1,.127-.035.663.663,0,0,1,.138.023q.31.128.645.288a4.578,4.578,0,0,1,.553.415c.016.016.023.027.023.035v.057a.062.062,0,0,1-.023.046l-.011.012a.083.083,0,0,1-.035.011l-2.154.473c-.008.115-.012.249-.012.4v.634c0,.054,0,.138.012.253,0,.177,0,.312.011.4a2.95,2.95,0,0,0,.023.38,2.975,2.975,0,0,1,.311.127l.3.115.276.127c.1.046.2.092.311.138a1.1,1.1,0,0,0,.381.173,1.423,1.423,0,0,0,.391.115.37.37,0,0,1,.139.046c.015.008.034.02.057.035a.282.282,0,0,0,.07.034,3.262,3.262,0,0,1,.506.531,3.123,3.123,0,0,1,.311.668.317.317,0,0,1,0,.173.507.507,0,0,1-.1.115l-.231.173A.272.272,0,0,1,446,46.6a.179.179,0,0,1-.162-.1,6.253,6.253,0,0,0-1.071-.9,5.782,5.782,0,0,0-1.268-.634,1.423,1.423,0,0,1-.08.691,1.627,1.627,0,0,1-.37.611,3.414,3.414,0,0,1-1.048.508,3.823,3.823,0,0,1-1.152.161.527.527,0,0,1-.185-.035.293.293,0,0,1-.161-.126,3.916,3.916,0,0,0-.311-.381q-.15-.115-.369-.3a2.134,2.134,0,0,1-.484-.345,1.589,1.589,0,0,1-.323-.484,2.323,2.323,0,0,1,.461-.7,2.36,2.36,0,0,1,.68-.438,4.086,4.086,0,0,1,1.037-.3,6.2,6.2,0,0,1,1.083-.023Zm-1.5,5.116a1.978,1.978,0,0,1,.346.185.229.229,0,0,0,.184.081.293.293,0,0,0,.2-.023,2.648,2.648,0,0,0,.76-.427.474.474,0,0,0,.185-.242.578.578,0,0,0,.092-.265,4.084,4.084,0,0,0-1.106.081,3.454,3.454,0,0,0-1.014.426C440.319,45.372,440.438,45.434,440.523,45.479Z" fill="#000000"/><path d="M452.472,42.46a.457.457,0,0,0,.195-.057,3.222,3.222,0,0,0,.554-.254,5.022,5.022,0,0,0,.518-.334,3.881,3.881,0,0,1,.519-.3,3.187,3.187,0,0,1,.564-.185,2.327,2.327,0,0,1,.4-.034,2.983,2.983,0,0,1,.4.092,1.753,1.753,0,0,1,.45.277,2.189,2.189,0,0,1,.379.38,4.356,4.356,0,0,1,.231.449,2.688,2.688,0,0,1,.139.5,4.215,4.215,0,0,1-.024,1.163,4.867,4.867,0,0,1-.346,1.118,4.389,4.389,0,0,1-.379.623,2.4,2.4,0,0,1-.508.53,2.254,2.254,0,0,1-.576.368,3,3,0,0,1-.645.219,2.5,2.5,0,0,1-.277.07c-.1.022-.188.042-.265.057q-.31.057-.564.092c-.093.016-.2.031-.323.046l-.323.035c-.1.007-.173.015-.219.023-.092.007-.172.015-.242.023a12.5,12.5,0,0,0,1.429-.887,12.226,12.226,0,0,0,1.326-1.06,3.04,3.04,0,0,0,.4-.484,2.038,2.038,0,0,0,.276-.565c.016-.054.039-.146.07-.277v-.276l-.047-1.464a.048.048,0,0,1-.011-.034.161.161,0,0,1-.046-.035h-.046a.162.162,0,0,0-.035.023c-.092.062-.223.146-.392.254l-.265.2c-.215.138-.442.28-.679.426a.528.528,0,0,1-.162.046.333.333,0,0,1-.2.011,4.082,4.082,0,0,1-.5-.1,4.243,4.243,0,0,1-.5-.161.58.58,0,0,1-.311-.2.758.758,0,0,1-.208-.333A.856.856,0,0,0,452.472,42.46Zm1.739-2.615a1.448,1.448,0,0,1,.116-.127c.038-.061.069-.108.092-.138a.065.065,0,0,0,.012-.046.192.192,0,0,0-.012-.047l-.011-.011a4.213,4.213,0,0,1-.565-.541l-.011-.012c-.216-.231-.4-.434-.542-.611.107.008.226.016.357.023l.357.035a3.434,3.434,0,0,1,.346.046l.334.069a1.038,1.038,0,0,1,.3.1c.03.015.073.038.126.069a1.384,1.384,0,0,0,.116.092c.13.108.222.188.276.242a3.083,3.083,0,0,1,.231.3.459.459,0,0,1,.058.161.336.336,0,0,1-.058.173.391.391,0,0,1-.069.115l-.058.058a.111.111,0,0,0-.035.023.246.246,0,0,1-.161.069.259.259,0,0,1-.173-.012.387.387,0,0,1-.173-.034.691.691,0,0,1-.161-.023,2.927,2.927,0,0,0-.3.011.906.906,0,0,0-.266.1,1.508,1.508,0,0,1-.15.092l-.068.034c-.039.024-.066.039-.081.047A3.078,3.078,0,0,1,454.211,39.845Z" fill="#000000"/><path d="M531.206,39.7a.731.731,0,0,0,.093-.277.7.7,0,0,0-.058-.265.307.307,0,0,1-.035-.138.157.157,0,0,1,.069-.115.132.132,0,0,1,.07-.046.177.177,0,0,1,.069.011,2.3,2.3,0,0,1,.507.507,2.9,2.9,0,0,1,.334.634.415.415,0,0,1,.012.219.42.42,0,0,1-.092.184l-.566.8a3.176,3.176,0,0,1,.566.357,3.02,3.02,0,0,1,.414.53,3.527,3.527,0,0,1,.22.714,2.361,2.361,0,0,1,.022.726,7.447,7.447,0,0,1-.5,1.694A6.943,6.943,0,0,1,531.4,46.7a.72.72,0,0,1-.369.138.552.552,0,0,1-.38-.092,2.134,2.134,0,0,1-.749-.945,2.274,2.274,0,0,1-.218-1.175l-.819,1.29a.306.306,0,0,1-.264.162.275.275,0,0,1-.278-.127,1.3,1.3,0,0,1-.207-.426,1.742,1.742,0,0,1-.092-.473.728.728,0,0,1,.046-.253.541.541,0,0,1,.116-.208l1.371-1.924a.69.69,0,0,1-.773-.1l-.887-.921a.115.115,0,0,1-.011-.047.037.037,0,0,1,.011-.023.035.035,0,0,1,.012-.023.044.044,0,0,1,.034-.011l.358-.035h.184c.092-.007.161-.011.207-.011.277-.07.569-.127.876-.173.284-.047.58-.092.887-.138Zm-1.014,5.035a2.307,2.307,0,0,0,.392.634.122.122,0,0,0,.093.035.2.2,0,0,0,.1-.035,3.588,3.588,0,0,0,.783-1.486,3.469,3.469,0,0,0,.07-1.683.086.086,0,0,0-.012-.034l-.012-.012-.01-.011a.13.13,0,0,0-.047-.023,1.04,1.04,0,0,1-.115-.011h-.2a.786.786,0,0,1-.1.011l-1.084,1.878A2.042,2.042,0,0,0,530.192,44.73Zm3.261-3.606c.093.039.162.069.208.092a6.246,6.246,0,0,1,1.1.806,6.093,6.093,0,0,1,.852,1.026,1.95,1.95,0,0,1,.231.715,2.089,2.089,0,0,1-.058.726.31.31,0,0,1-.115.161.219.219,0,0,1-.161.058.791.791,0,0,1-.323-.058.644.644,0,0,1-.265-.2,1.125,1.125,0,0,1-.276-.334,1.527,1.527,0,0,1-.2-.392,5.346,5.346,0,0,0-.4-1.175,4.953,4.953,0,0,0-.668-1.037.516.516,0,0,1-.093-.116.225.225,0,0,1-.068-.127.187.187,0,0,1-.012-.08.117.117,0,0,1,.023-.081A1.524,1.524,0,0,1,533.453,41.124Zm.922-1.2c.131.047.27.1.415.173a.113.113,0,0,0,.046.023l.047.046a.5.5,0,0,1,.057.069l.219.243a1.739,1.739,0,0,1,.161.288.461.461,0,0,1,.012.115.122.122,0,0,1-.046.1.4.4,0,0,1-.254.093.256.256,0,0,1-.219-.093c-.1-.1-.246-.257-.438-.472a.268.268,0,0,0-.046-.034l-.012-.012q-.3-.334-.437-.519c-.008,0-.012-.007-.012-.023v-.046a.1.1,0,0,0,.035-.011h.023A1.965,1.965,0,0,1,534.375,39.925Zm1.072-.484a1.745,1.745,0,0,1,.588.438.171.171,0,0,1,.034.1.144.144,0,0,1-.046.1.466.466,0,0,1-.587.023q-.278-.231-.4-.358a3.348,3.348,0,0,1-.369-.414V39.28l.012-.011.012-.012h.045A1.886,1.886,0,0,1,535.447,39.441Z" fill="#000000"/><path d="M543.1,40.628a16.267,16.267,0,0,1,2.039-1.429l-.092-.173a.149.149,0,0,1-.012-.126c.008-.039.038-.066.093-.081a.729.729,0,0,1,.149-.011l.139.069a3.328,3.328,0,0,1,.472.507,2.294,2.294,0,0,1,.345.588.306.306,0,0,1,0,.207.262.262,0,0,1-.115.15,16.319,16.319,0,0,0-2.154,1.233,16.118,16.118,0,0,0-1.89,1.567c.146.092.3.188.461.288s.342.219.519.334l.518.334q.448.312.726.519c.268.184.511.361.725.53a2.2,2.2,0,0,1,.566.645,2.684,2.684,0,0,1,.288.819v.091a.212.212,0,0,1-.081.082.488.488,0,0,1-.2.091.52.52,0,0,1-.253-.011c-.077-.023-.147-.046-.208-.069a1.367,1.367,0,0,1-.219-.069.64.64,0,0,1-.219-.127,1.136,1.136,0,0,1-.161-.173,14.29,14.29,0,0,0-1.464-1.625,14.456,14.456,0,0,0-1.717-1.359.478.478,0,0,1-.081-.081.146.146,0,0,1-.046-.1,1.336,1.336,0,0,1-.034-.288,1.587,1.587,0,0,1,0-.276.372.372,0,0,1,.034-.162,1,1,0,0,1,.082-.138A16.738,16.738,0,0,1,543.1,40.628Z" fill="#000000"/><path d="M616.161,39.879a1.89,1.89,0,0,0,.058-.426,1.859,1.859,0,0,0-.035-.4l-.092-.4a.044.044,0,0,1-.012-.034.134.134,0,0,1,.034-.023.035.035,0,0,1,.024-.012h.034l.4.334a3.476,3.476,0,0,1,.335.415.919.919,0,0,1,.161.381,1.47,1.47,0,0,1,.012.4.627.627,0,0,0-.023.115c-.016.054-.028.092-.035.115a2.229,2.229,0,0,1-.081.208,3.216,3.216,0,0,1,.692.057,2.222,2.222,0,0,1,.634.254.88.88,0,0,1,.218.184,1.462,1.462,0,0,1,.1.265.355.355,0,0,1-.046.15.271.271,0,0,1-.138.092l-1.89.392-2.063,4.886a.273.273,0,0,1-.173.173.288.288,0,0,1-.253,0,.46.46,0,0,1-.242-.2.5.5,0,0,1-.093-.3c0-.038,0-.1-.01-.172s-.016-.124-.024-.162-.015-.1-.023-.173-.027-.126-.034-.173a.211.211,0,0,1,.023-.2.286.286,0,0,1,.173-.138l1.486-3.342a1.811,1.811,0,0,1-1.464-.967.359.359,0,0,0,.2.08.319.319,0,0,0,.207,0l1.6-.438Zm.887,5.682a.832.832,0,0,0,.6.218h.749a4.338,4.338,0,0,0,.761-.1h.15c.023,0,.065,0,.127.011a.077.077,0,0,0,.034.012c.085.03.173.057.265.08s.173.035.265.058c.077.031.181.069.312.115a.9.9,0,0,0,.218.081,1.983,1.983,0,0,1,.173.173.593.593,0,0,1,.08.219v.242a1.6,1.6,0,0,1-.08.207.245.245,0,0,1-.139.138.372.372,0,0,1-.149.081.171.171,0,0,1-.046.011c-.254.023-.518.035-.8.035a3.757,3.757,0,0,1-.4-.023c-.092-.008-.234-.023-.426-.046a4.718,4.718,0,0,1-.784-.219,2.6,2.6,0,0,1-.737-.392,1.237,1.237,0,0,1-.461-.622,1.341,1.341,0,0,1-.08-.749A.843.843,0,0,0,617.048,45.561Zm-.161-2.812a.737.737,0,0,1,.2-.116,4.948,4.948,0,0,1,.714-.253c.169-.039.3-.065.381-.081.13-.03.257-.057.38-.08a1.546,1.546,0,0,0,.184-.047,1.144,1.144,0,0,0,.231-.068.368.368,0,0,1,.161-.047.438.438,0,0,1,.173.035l.7.323a.617.617,0,0,1,.219.172.5.5,0,0,1,.034.277.423.423,0,0,1-.023.127.066.066,0,0,0-.011.046c-.016.03-.032.057-.046.08a3.972,3.972,0,0,0-1.695.265,4.49,4.49,0,0,0-1.452.934c.1-.185.2-.354.3-.507.046-.077.127-.192.242-.346.038-.046.073-.092.1-.138a4.037,4.037,0,0,1-.461-.184.474.474,0,0,1-.1-.058,2.377,2.377,0,0,1-.357-.162A.571.571,0,0,1,616.887,42.749Zm2.074-3.411c.139.061.238.1.3.126s.149.074.264.127a1.2,1.2,0,0,1,.139.069l.1.081c.045.039.077.065.091.081a.449.449,0,0,1,.139.2.461.461,0,0,1,.034.149.035.035,0,0,1,.012.023c.023.077.038.131.046.162a.143.143,0,0,1-.034.081l-.024.034a.256.256,0,0,1-.034.046.141.141,0,0,1-.1.035.112.112,0,0,1-.082-.024.483.483,0,0,1-.195-.149.336.336,0,0,1-.15-.2c-.03-.054-.08-.135-.15-.242-.015-.023-.043-.058-.081-.1a1.078,1.078,0,0,0-.1-.092,1.508,1.508,0,0,1-.15-.219.97.97,0,0,1-.127-.219A.41.41,0,0,0,618.961,39.338Zm.9-.323a1.914,1.914,0,0,0,.22.081c.061.023.161.065.3.127a2.118,2.118,0,0,1,.242.08.243.243,0,0,1,.058.046.186.186,0,0,1,.023.069v.2a.046.046,0,0,1-.012.035c-.007.077-.011.131-.011.161a.209.209,0,0,1-.116.127.236.236,0,0,1-.2.011.351.351,0,0,1-.138-.1.275.275,0,0,1-.1-.15.734.734,0,0,0-.115-.208.893.893,0,0,0-.151-.161.664.664,0,0,1-.172-.207,1.889,1.889,0,0,1-.162-.219A3.141,3.141,0,0,0,619.859,39.015Z" fill="#000000"/><path d="M629,39.1a2.239,2.239,0,0,1,.368.668,1.185,1.185,0,0,1,.035.3.67.67,0,0,1-.081.3q-.357.566-.679,1.13c-.1.192-.2.38-.312.564-.107.2-.215.4-.322.588a2,2,0,0,1,.265-.115l.1-.035a1.064,1.064,0,0,1,.15-.046,2.221,2.221,0,0,1,.277-.011,1.25,1.25,0,0,1,.23.034.033.033,0,0,0,.024.011,2.743,2.743,0,0,1,.31.173,1,1,0,0,0,.081.07c.076.069.134.119.173.149a1.546,1.546,0,0,1,.358.519,2.092,2.092,0,0,1,.115.622v.012a2.356,2.356,0,0,0-.024.253c-.015.108-.027.185-.034.231a3.692,3.692,0,0,0-.047.611,5.464,5.464,0,0,0,.035.6.064.064,0,0,0,.058.069.142.142,0,0,0,.1.034,1.013,1.013,0,0,0,.3-.023.614.614,0,0,0,.311-.126c.123-.1.216-.181.277-.242a1.644,1.644,0,0,0,.253-.266,9.712,9.712,0,0,0,.91-1.543,10.483,10.483,0,0,0,.646-1.706,7.062,7.062,0,0,1,.173,1.2A6.37,6.37,0,0,1,633,44.3a3.136,3.136,0,0,1-.207.726,2.255,2.255,0,0,1-.173.358c-.039.076-.1.188-.184.334a2.427,2.427,0,0,1-.461.611,3.216,3.216,0,0,1-.611.5,1.731,1.731,0,0,1-.876.254,1.186,1.186,0,0,1-.576-.139,1.494,1.494,0,0,1-.5-.357,1.8,1.8,0,0,1-.276-.438,1.353,1.353,0,0,1-.127-.5C629,45.5,629,45.345,629,45.191c0-.13.007-.28.023-.449a6.985,6.985,0,0,1,.092-.91,2.6,2.6,0,0,0,.023-.3,1.329,1.329,0,0,0-.023-.288v-.012a.167.167,0,0,1-.011-.045.2.2,0,0,1-.036-.046.512.512,0,0,0-.1-.081.391.391,0,0,0-.046-.035.368.368,0,0,1-.058-.023H628.8a.077.077,0,0,0-.034.012h-.012a7.508,7.508,0,0,0-.991.841,6.758,6.758,0,0,0-.807,1q-.128.174-.288.427l-.254.461c-.038.053-.076.111-.115.172q-.322.543-.645,1.095a1.536,1.536,0,0,1-.645-.587,1.493,1.493,0,0,1-.266-.83.787.787,0,0,1,.035-.265c.015-.061.038-.139.07-.23a.146.146,0,0,1,.068-.093.235.235,0,0,1,.1-.046.225.225,0,0,0,.116-.046.27.27,0,0,0,.068-.081c.123-.23.258-.48.4-.749.139-.238.278-.48.415-.726s.289-.487.427-.726q.241-.4.449-.737a2.123,2.123,0,0,0,.127-.219l.323-.507c.115-.2.214-.38.3-.542.116-.191.231-.407.346-.645q.15-.276.346-.657a.811.811,0,0,0,.069-.265,1.334,1.334,0,0,0,0-.253l-.023-.173v-.023l.011-.012.012-.011h.034A2.9,2.9,0,0,1,629,39.1Z" fill="#000000"/><path d="M530.109,139.874l-.629,2.064-.8,2.974c.7,0,1.259.035,1.643.07.316.035.806.14,1.435.28q.84.21.84.525l-.07.245-.455.07-1.54-.14a17.241,17.241,0,0,0-2.414-.14h-1.084a14.218,14.218,0,0,0-1.644.14l-1.54.14-.385-.07a.625.625,0,0,1-.105-.245c0-.175.21-.35.63-.49a21.083,21.083,0,0,1,2.659-.385l1.4-2.869,1.574-3.639,5.178-12.946-.944-2.134-.875-1.679,2.8-1.225c.105.385.21.8.315,1.225.21.735.49,1.609.84,2.589.455,1.224.875,2.274,1.224,3.149q.262.682.945,2.2l3.919,9.447,1.4,3.324,1.3,2.554c.524.07,1.05.14,1.5.175.875.105,1.785.315,1.785.7a.49.49,0,0,1-.141.245l-.42.07-.7-.07q-2.151-.21-4.094-.21-1.783,0-3.883.21l-.77.07-.42-.07a.609.609,0,0,1-.105-.245c0-.175.28-.35.8-.525a6.263,6.263,0,0,1,.806-.14,14.818,14.818,0,0,1,2.309-.21c-.175-.769-.385-1.469-.595-2.1-.21-.595-.525-1.47-.98-2.554l-.07-.245-.84-1.959h-9.132Zm9.587-2.589-4.408-10.742-4.2,10.742Z" fill="#000000"/><path d="M553.271,143.093l.14,1.749c.455.1.91.175,1.364.28.42.1.665.175.771.21.385.105.559.245.559.42a.491.491,0,0,1-.14.245l-.419.07-1.225-.105-2.17-.1-2.169.1-1.224.105-.42-.07a.434.434,0,0,1-.14-.245c0-.175.175-.315.56-.42a2.606,2.606,0,0,1,.524-.14c.84-.175,1.365-.315,1.61-.35l.1-1.784.07-1.47-.105-21.168v-.7a2.125,2.125,0,0,0-.175-.63.52.52,0,0,0-.49-.28c-.454,0-1.294.63-1.609.63l-.21-.07-.07-.1a1.024,1.024,0,0,1,.28-.665,5.391,5.391,0,0,1,.945-.7l1.853-.944a3.257,3.257,0,0,1,1.33-.351.493.493,0,0,1,.42.281,2.036,2.036,0,0,1,.14.944l-.14,23.757Zm3.044-3.744.63.805a8.988,8.988,0,0,0,3.184-1.575,2.646,2.646,0,0,0,1.085-2.029,1.69,1.69,0,0,0-.63-1.364,2.925,2.925,0,0,0-1.784-.49,6.962,6.962,0,0,0-2.695.629l-1.574.63-.176-.07c-.034-.035-.034-.1-.069-.21a.406.406,0,0,1,.245-.384l1.084-.666a18.434,18.434,0,0,1,2.379-.909,10.27,10.27,0,0,1,2.03-.28,3.931,3.931,0,0,1,2.519.7,2.283,2.283,0,0,1,.945,1.959c0,1.784-1.75,3.149-5.913,4.689.8.909,1.259,1.4,1.329,1.5a20.57,20.57,0,0,0,1.749,1.75q1.207,1.048,1.68,1.049a1.2,1.2,0,0,0,.805-.455,2.181,2.181,0,0,1,.42-.315,2.119,2.119,0,0,1,.21-.139l.174.07.071.21c0,.279-.245.664-.77,1.189a2.44,2.44,0,0,1-1.54.7c-1.679,0-4.128-1.855-8.047-6.193Z" fill="#000000"/><path d="M566.53,134.73l-1.679-.349c-.315-.175-.455-.315-.455-.42a.491.491,0,0,1,.14-.245l.42-.07.98.07,1.679.1,1.714-.1.98-.07.42.07a.441.441,0,0,1,.14.245c0,.14-.14.28-.455.42l-1.47.385,3.6,9.587a33.961,33.961,0,0,0,1.925-4.759,23.872,23.872,0,0,0,1.154-4.864,3.792,3.792,0,0,1-.734-.174,2.27,2.27,0,0,1-.736-.245c-.21-.105-.314-.21-.314-.35l.1-.245.42-.07.91.07,1.365.07,1.4-.07.875-.07.42.07a.447.447,0,0,1,.14.245c0,.1-.14.245-.42.385l-1.5.384c-.63,1.575-1.05,2.625-1.26,3.22-.455,1.084-.84,2.029-1.225,2.834-.384.84-.7,1.609-1.014,2.344-.385.735-.63,1.225-.77,1.469l-2.38,4.619-.069.14c-1.575,2.974-2.834,4.443-3.849,4.443a1.588,1.588,0,0,1-1.155-.489,1.667,1.667,0,0,1-.454-1.225,1.921,1.921,0,0,1,.419-1.294,1.436,1.436,0,0,1,1.05-.456,1.283,1.283,0,0,1,.91.246,1.848,1.848,0,0,1,.42.734c.665-.28,1.679-1.714,3.114-4.479Z" fill="#000000"/><path d="M585.108,144a2.193,2.193,0,0,0,1.924.84,4.9,4.9,0,0,0,.8-.07,6.8,6.8,0,0,0,1.015-.28,12.7,12.7,0,0,0,2.379-1.049v-5.808l-.035-1.365-.175-1.259-1.924.105h-.21a.493.493,0,0,1-.315-.071l-.105-.21c0-.244.28-.384.875-.489l.8-.14a16.908,16.908,0,0,0,1.924-.595l1.015-.42a1.025,1.025,0,0,1,.28.245,1.7,1.7,0,0,1,.071.525v8.467l.069,1.4a4.534,4.534,0,0,0,.175,1.049l1.75.21h.174c.385.035.595.175.595.35a.337.337,0,0,1-.245.35,2.532,2.532,0,0,1-.874.1h-.525a11.694,11.694,0,0,0-1.294.035c-.245.035-.63.07-1.156.14l-.455.035c-.1,0-.174-.07-.279-.21a.875.875,0,0,1-.14-.595v-1.119c-3.079,1.574-4.723,2.169-5.738,2.169a2.818,2.818,0,0,1-2.449-.98,6.624,6.624,0,0,1-.735-3.569V136.69a2.585,2.585,0,0,1-.07-.42l-.14-1.259-1.924.105h-.21a.5.5,0,0,1-.316-.071l-.1-.21c0-.244.28-.384.875-.489l.805-.14c.384-.1.664-.175.874-.245a7.014,7.014,0,0,0,1.014-.35l1.05-.42c.28.175.351.315.351.77v7.453A4.632,4.632,0,0,0,585.108,144Z" fill="#000000"/><path d="M602.531,121.54a1.576,1.576,0,0,1,.455,1.294,3.236,3.236,0,0,1-.35,1.47,11.194,11.194,0,0,1-1.155,2.1c-.174.28-.419.595-.665.945-.279.385-.524.665-.7.875a2.386,2.386,0,0,1-.77.665l-.175-.105-.069-.21.839-1.82a7.405,7.405,0,0,0,.91-3.114,1.133,1.133,0,0,0-.315-.839.882.882,0,0,0-.77-.28h-.49l-.21-.035-.07-.245q0-.263.735-.735a2.726,2.726,0,0,1,1.435-.42A1.839,1.839,0,0,1,602.531,121.54Z" fill="#000000"/><path d="M607.114,146.487l-.245.595a.426.426,0,0,1-.314.14l-.176-.071-.069-.244.174-1.05a8.637,8.637,0,0,0,.175-1.889l-.1-1.4-.071-.98.071-.315a.523.523,0,0,1,.21-.14c.244,0,.419.6.524,1.75l.07.735a7.634,7.634,0,0,0,1.924.979,5.942,5.942,0,0,0,2.135.385c1.819,0,3.044-.734,3.044-1.994,0-.91-.875-1.5-2.59-1.75l-1.189-.175a6.685,6.685,0,0,1-3.359-1.259,3.089,3.089,0,0,1-.945-2.449,3.592,3.592,0,0,1,1.26-2.834,4.63,4.63,0,0,1,3.254-1.085h.665a7.4,7.4,0,0,1,.944.1,8.888,8.888,0,0,1,1.819.525l.141-.455a1.785,1.785,0,0,1,.21-.595.432.432,0,0,1,.279-.175l.175.07.105.245-.174.945-.106,1.749.07,1.645v.21a.7.7,0,0,1-.07.315l-.21.1c-.21,0-.349-.456-.454-1.365l-.105-.735a8.513,8.513,0,0,0-.945-.665c-.384-.21-.735-.384-1.049-.525a5.681,5.681,0,0,0-2.135-.419,2.8,2.8,0,0,0-1.854.595,1.79,1.79,0,0,0-.735,1.469c0,.875.8,1.4,2.449,1.609l1.54.281c2.974.454,4.128,1.539,4.128,3.5a3.994,3.994,0,0,1-1.47,3.184,5.447,5.447,0,0,1-3.778,1.3l-1.295-.105-1.749-.35Z" fill="#000000"/><path d="M627.686,121.82l.1-.245.42-.105,1.54.175a22.207,22.207,0,0,0,2.729.14h1.609c.49-.07.84-.1,1.05-.14l1.54-.175.42.105.1.245c0,.175-.245.35-.7.49a6.578,6.578,0,0,1-.945.175c-1.015.175-1.575.244-1.61.244l-.455,13.191-.034.665v.63c0,3.079.489,5.248,1.469,6.543s2.659,1.959,5.073,1.959a8.467,8.467,0,0,0,4.269-1.015,6.254,6.254,0,0,0,2.589-2.869,11.677,11.677,0,0,0,.7-2.8c.07-.559.14-1.224.174-1.959s.071-1.61.071-2.589v-3.5c0-.665,0-1.19-.035-1.61-.105-1.644-.14-2.554-.14-2.694,0-.559,0-1.015-.035-1.364s-.175-1.225-.42-2.59c-2.764-.279-3.464-.524-3.464-.909l.105-.245a1.093,1.093,0,0,1,.42-.105l1.259.14,2.415.105,2.379-.105,1.295-.14a.466.466,0,0,1,.35.105c.1.035.139.105.139.245s-.139.28-.455.42c-.385.105-1.119.28-2.273.489a30.918,30.918,0,0,0-.386,3.5q-.1,1.941-.1,3.568v.385l-.036.875-.174,3.849-.071.874a25.063,25.063,0,0,1-.279,3.919,10.659,10.659,0,0,1-.84,2.694,6.751,6.751,0,0,1-3.009,3.079,10.548,10.548,0,0,1-4.9,1.049,9.894,9.894,0,0,1-4.549-.979,6.6,6.6,0,0,1-2.939-2.659,8.158,8.158,0,0,1-.8-2.554,34.022,34.022,0,0,1-.279-5.213V122.729C628.455,122.45,627.686,122.205,627.686,121.82Z" fill="#000000"/><path d="M659.068,143.163l.175,1.714c.526.1.98.175,1.365.245.385.1.7.175.945.245.245.105.349.21.349.385l-.1.245-.42.07-1.225-.105-2.17-.1-2.2.1-1.189.105-.455-.07a.609.609,0,0,1-.105-.245c0-.175.175-.315.56-.42a14.766,14.766,0,0,1,2.135-.455l.1-1.574v-5.668l-.035-1.365a4.929,4.929,0,0,0-.035-.7,5.152,5.152,0,0,0-.105-.559l-1.959.105h-.175a.738.738,0,0,1-.35-.071l-.069-.21c0-.21.314-.384.909-.489l.8-.14c.316-.07.6-.14.84-.21.21-.07.56-.21,1.015-.385l1.015-.42a2.2,2.2,0,0,1,.314.21c.035.035.035.1.035.21v2.134c.455-.245,1.015-.524,1.715-.839a22.233,22.233,0,0,1,2.2-.98,7.519,7.519,0,0,1,2.169-.49,2.921,2.921,0,0,1,2.52.98,6.469,6.469,0,0,1,.7,3.5v3.673l.034,1.75.105,1.539a18.614,18.614,0,0,1,2.169.455c.316.105.491.245.491.42l-.106.245-.42.07-1.224-.105-2.169-.1-2.2.1-1.19.105-.42-.07a.437.437,0,0,1-.139-.245c0-.175.139-.315.384-.385s.63-.175,1.155-.28.909-.21,1.154-.245l.105-1.714.07-1.54V138.3a4.48,4.48,0,0,0-.595-2.589,2.312,2.312,0,0,0-1.924-.8,5.832,5.832,0,0,0-2.029.419,15.5,15.5,0,0,0-2.555,1.155v5.108Z" fill="#000000"/><path d="M674.182,135.011l-1.435.07-.734.14v-1.3l.875.175,1.294.035h.769l-.069-7.313v-.21h2.484l-.28,4.2-.105,3.324h1.679l1.785-.035,1.294-.175-.035,1.3-1.05-.14-1.994-.07h-1.679l-.175,5.563v.594a4.975,4.975,0,0,0,.49,2.624,1.61,1.61,0,0,0,1.574.77,3.034,3.034,0,0,0,1.89-.665l.979-.664.21.1.106.245c0,.385-.491.944-1.5,1.679a6.12,6.12,0,0,1-1.47.805,4.4,4.4,0,0,1-1.5.28,2.574,2.574,0,0,1-2.239-.98,6.166,6.166,0,0,1-.665-3.289v-.664l.21-6.4Z" fill="#000000"/><path d="M695.56,144.317a7.974,7.974,0,0,1-5.634,2.1,6.169,6.169,0,0,1-4.373-1.54,5.346,5.346,0,0,1-1.645-4.093,6.793,6.793,0,0,1,2.309-5.319,8.519,8.519,0,0,1,5.844-2.064,5.647,5.647,0,0,1,4.233,1.575,5.964,5.964,0,0,1,1.539,4.268A6.628,6.628,0,0,1,695.56,144.317Zm-.176-4.338a7.25,7.25,0,0,0-1.119-4.3,3.622,3.622,0,0,0-3.115-1.5,4.382,4.382,0,0,0-3.533,1.5,5.9,5.9,0,0,0-1.33,3.989,6.738,6.738,0,0,0,1.26,4.338,3.888,3.888,0,0,0,3.254,1.575C693.74,145.577,695.384,143.443,695.384,139.979Z" fill="#000000"/><path d="M705.041,144a2.193,2.193,0,0,0,1.924.84,4.915,4.915,0,0,0,.8-.07,6.8,6.8,0,0,0,1.014-.28,12.712,12.712,0,0,0,2.38-1.049v-5.808l-.035-1.365-.175-1.259-1.925.105h-.21a.491.491,0,0,1-.314-.071l-.106-.21c0-.244.281-.384.875-.489l.8-.14a16.908,16.908,0,0,0,1.924-.595l1.015-.42a1.041,1.041,0,0,1,.28.245,1.705,1.705,0,0,1,.07.525v8.467l.07,1.4a4.534,4.534,0,0,0,.175,1.049l1.749.21h.175c.385.035.595.175.595.35a.337.337,0,0,1-.245.35,2.532,2.532,0,0,1-.874.1h-.526a11.7,11.7,0,0,0-1.294.035c-.245.035-.63.07-1.155.14l-.455.035c-.1,0-.175-.07-.279-.21a.87.87,0,0,1-.14-.595v-1.119c-3.079,1.574-4.724,2.169-5.738,2.169a2.818,2.818,0,0,1-2.449-.98,6.614,6.614,0,0,1-.736-3.569V136.69a2.677,2.677,0,0,1-.069-.42l-.141-1.259-1.924.105h-.21a.5.5,0,0,1-.315-.071l-.1-.21c0-.244.28-.384.875-.489l.8-.14c.385-.1.664-.175.874-.245a7.015,7.015,0,0,0,1.015-.35l1.05-.42c.28.175.35.315.35.77v7.453A4.632,4.632,0,0,0,705.041,144Z" fill="#000000"/><path d="M725.857,134.8a5.129,5.129,0,0,0-2.133-.49,3.32,3.32,0,0,0-3.5,2.519,4.587,4.587,0,0,0-.316,1.749,6.27,6.27,0,0,0,1.5,4.3,4.551,4.551,0,0,0,3.639,1.784,4.5,4.5,0,0,0,1.679-.314,4.089,4.089,0,0,0,1.365-1.085l.384-.455c.21-.315.385-.49.526-.49l.175.07.069.21a1.422,1.422,0,0,1-.14.525,5.083,5.083,0,0,1-.349.63c-.14.175-.245.349-.316.454a5.6,5.6,0,0,1-4.653,2.135,5.52,5.52,0,0,1-4.128-1.75,6.018,6.018,0,0,1-1.68-4.338,6.767,6.767,0,0,1,1.89-4.829,6.089,6.089,0,0,1,4.653-1.994,11.479,11.479,0,0,1,2.624.35,7.48,7.48,0,0,1,.874.28l.036-.245c.174-.84.384-1.259.56-1.259l.21.1.069.174-.035.525a18.771,18.771,0,0,0-.21,2.729v.735c0,.21.071.734.176,1.54l.034.349a.506.506,0,0,1-.069.315l-.21.105c-.175,0-.316-.21-.42-.595a15.6,15.6,0,0,1-.315-2.274A7.269,7.269,0,0,0,725.857,134.8Z" fill="#000000"/><path d="M733.554,119.091a.579.579,0,0,0-.526-.28c-.524,0-1.329.63-1.644.63l-.175-.07-.069-.1a1.023,1.023,0,0,1,.279-.665,5.43,5.43,0,0,1,.945-.7l1.854-.944a3.25,3.25,0,0,1,1.33-.351.459.459,0,0,1,.42.246,3.134,3.134,0,0,1,.1.979l-.1,17.914c.455-.245,1.224-.595,2.239-1.084.734-.35,1.26-.595,1.645-.735a8.194,8.194,0,0,1,2.2-.49,2.977,2.977,0,0,1,2.484.945,6.447,6.447,0,0,1,.7,3.534v3.673l.035,1.75.106,1.539c.524.1.979.175,1.364.245.735.175,1.329.245,1.329.63a.484.484,0,0,1-.139.245l-.42.07-1.225-.105-2.169-.1-2.17.1-1.223.105-.42-.07a.438.438,0,0,1-.141-.245c0-.385.525-.42,1.54-.665.524-.1.909-.21,1.154-.245l.14-1.749.035-1.5V138.3a4.532,4.532,0,0,0-.595-2.624,2.245,2.245,0,0,0-1.923-.769,6.006,6.006,0,0,0-2.031.419,14.654,14.654,0,0,0-2.518,1.155v5.108l.035,1.575.14,1.679c.455.1.875.175,1.329.28.42.1.665.175.77.21.385.105.56.245.56.42a.5.5,0,0,1-.14.245l-.385.07-1.224-.105-2.17-.1-2.169.1-1.225.105-.42-.07a.437.437,0,0,1-.139-.245c0-.175.174-.315.559-.42a19.778,19.778,0,0,1,2.1-.49l.1-1.784.071-1.47-.106-21.168A5.341,5.341,0,0,0,733.554,119.091Z" fill="#000000"/><path d="M753.286,143.128a4.291,4.291,0,0,0,3.429,1.539,3.658,3.658,0,0,0,3.01-1.4l.594-.7a1.884,1.884,0,0,1,.454-.455c.036-.035.071-.035.106-.07l.175.07.07.175a1.643,1.643,0,0,1-.245.7,5.829,5.829,0,0,1-.63.98,6.4,6.4,0,0,1-2.169,1.749,5.764,5.764,0,0,1-2.59.63,5.41,5.41,0,0,1-4.2-1.75,6.477,6.477,0,0,1-1.574-4.548,6.732,6.732,0,0,1,1.749-4.794,6.063,6.063,0,0,1,4.619-1.854,5.282,5.282,0,0,1,3.849,1.365,5.428,5.428,0,0,1,1.364,3.953v.455h-9.342A5.813,5.813,0,0,0,753.286,143.128Zm.7-4.653,2.7-.071a8.967,8.967,0,0,0,.979-.07,11.286,11.286,0,0,0,1.225-.174,4.675,4.675,0,0,0-.875-3.01,2.888,2.888,0,0,0-2.344-1.084,3.278,3.278,0,0,0-2.59,1.155,5.119,5.119,0,0,0-.769,1.434,4.962,4.962,0,0,0-.315,1.82Z" fill="#000000"/><path d="M772.773,119.126a.465.465,0,0,0-.489-.315,1.674,1.674,0,0,0-.875.315,1.825,1.825,0,0,1-.734.315l-.21-.035-.106-.14a1.052,1.052,0,0,1,.316-.665,3.533,3.533,0,0,1,.979-.7,11.783,11.783,0,0,1,1.89-.944,3,3,0,0,1,1.329-.351.517.517,0,0,1,.455.315,2.264,2.264,0,0,1,.14.91l-.245,24.912a5.94,5.94,0,0,0,.105,1.435.578.578,0,0,0,.56.244,1.68,1.68,0,0,0,1.189-.63c.245-.244.42-.384.49-.454a2.1,2.1,0,0,1,.281-.14l.174.07.07.21c0,.419-.489,1.014-1.469,1.749a4.537,4.537,0,0,1-2.555,1.12,1.15,1.15,0,0,1-.839-.28,1.464,1.464,0,0,1-.21-.875l.035-1.085a6.923,6.923,0,0,1-4.934,2.24,4.092,4.092,0,0,1-3.289-1.575,6.356,6.356,0,0,1-1.329-4.2,8.21,8.21,0,0,1,1.539-5.178,4.967,4.967,0,0,1,4.129-1.96,5.43,5.43,0,0,1,1.89.35,11.407,11.407,0,0,1,1.994,1.085l-.105-14.451A3.5,3.5,0,0,0,772.773,119.126ZM771.2,134.661a3.809,3.809,0,0,0-1.784-.49,2.751,2.751,0,0,0-2.484,1.5,7.48,7.48,0,0,0-.945,3.989,7.58,7.58,0,0,0,.91,4.059,2.922,2.922,0,0,0,2.624,1.434,3.175,3.175,0,0,0,1.819-.525,5.347,5.347,0,0,0,1.715-1.644V136.2A7.07,7.07,0,0,0,771.2,134.661Z" fill="#000000"/><path d="M791.351,146.7c-.07.28-.14.454-.246.49l-.244.1c-.105-.036-.174-.036-.21-.07l-.07-.21.07-.735a29.647,29.647,0,0,0,.454-5.283v-1.435c-.034-.315-.069-.56-.069-.735l-.1-1.294.07-.455a.263.263,0,0,1,.245-.175c.279,0,.6,1.4.98,4.233l.1.875A16.187,16.187,0,0,0,796,144.387a8.359,8.359,0,0,0,3.534.77,6.671,6.671,0,0,0,4.549-1.644,5.107,5.107,0,0,0,1.854-3.919,4.6,4.6,0,0,0-.28-1.539,2.352,2.352,0,0,0-.91-1.015c-.944-.665-2.834-1.19-5.6-1.575l-1.574-.244a8.346,8.346,0,0,1-4.794-2,5.4,5.4,0,0,1-1.644-4.164,7.62,7.62,0,0,1,2.344-5.772,8.279,8.279,0,0,1,5.949-2.205,11.659,11.659,0,0,1,2.938.385,16.078,16.078,0,0,1,3.009,1.05l.6-1.715c.105-.385.28-.559.49-.6l.21.07.035.245a8.465,8.465,0,0,1-.106.84,25.267,25.267,0,0,0-.559,5.318l.035,1.05.035.7a.972.972,0,0,1-.105.455.437.437,0,0,1-.245.139q-.735,0-.735-3.673v-.14a10.721,10.721,0,0,0-3.009-2.065,9.156,9.156,0,0,0-3.569-.7,6.7,6.7,0,0,0-4.513,1.574,4.837,4.837,0,0,0-1.854,3.779,3.156,3.156,0,0,0,1.189,2.659c.805.595,2.7,1.12,5.668,1.644l1.225.21a16.726,16.726,0,0,1,4.3,1.12,3.589,3.589,0,0,1,1.854,1.75,6.278,6.278,0,0,1,.7,2.939,7.754,7.754,0,0,1-2.553,5.982,9.121,9.121,0,0,1-6.4,2.38,13.6,13.6,0,0,1-2.973-.385,17.081,17.081,0,0,1-3.184-1.085Z" fill="#000000"/><path d="M819.1,134.8a5.137,5.137,0,0,0-2.134-.49,3.32,3.32,0,0,0-3.5,2.519,4.587,4.587,0,0,0-.316,1.749,6.275,6.275,0,0,0,1.5,4.3,4.551,4.551,0,0,0,3.639,1.784,4.5,4.5,0,0,0,1.68-.314,4.1,4.1,0,0,0,1.364-1.085l.385-.455c.21-.315.384-.49.525-.49l.175.07.069.21a1.436,1.436,0,0,1-.139.525,5.212,5.212,0,0,1-.35.63c-.14.175-.245.349-.315.454a5.6,5.6,0,0,1-4.654,2.135,5.521,5.521,0,0,1-4.128-1.75,6.017,6.017,0,0,1-1.679-4.338,6.77,6.77,0,0,1,1.889-4.829,6.089,6.089,0,0,1,4.654-1.994,11.488,11.488,0,0,1,2.624.35,7.6,7.6,0,0,1,.874.28l.035-.245c.175-.84.385-1.259.56-1.259l.21.1.07.174-.036.525a18.766,18.766,0,0,0-.209,2.729v.735c0,.21.07.734.175,1.54l.034.349a.506.506,0,0,1-.069.315l-.21.105c-.175,0-.315-.21-.42-.595a15.6,15.6,0,0,1-.315-2.274A7.266,7.266,0,0,0,819.1,134.8Z" fill="#000000"/><path d="M836.8,144.317a7.974,7.974,0,0,1-5.634,2.1,6.17,6.17,0,0,1-4.373-1.54,5.346,5.346,0,0,1-1.645-4.093,6.793,6.793,0,0,1,2.309-5.319A8.519,8.519,0,0,1,833.3,133.4a5.646,5.646,0,0,1,4.233,1.575,5.964,5.964,0,0,1,1.539,4.268A6.624,6.624,0,0,1,836.8,144.317Zm-.176-4.338a7.25,7.25,0,0,0-1.119-4.3,3.619,3.619,0,0,0-3.114-1.5,4.384,4.384,0,0,0-3.534,1.5,5.9,5.9,0,0,0-1.33,3.989,6.738,6.738,0,0,0,1.26,4.338,3.888,3.888,0,0,0,3.254,1.575C834.98,145.577,836.624,143.443,836.624,139.979Z" fill="#000000"/><path d="M843.971,143.338l.035-1.75v-3.953l-.035-1.365-.14-1.259-2.029.105h-.176a.741.741,0,0,1-.35-.071l-.069-.21c0-.21.314-.384.909-.489l.805-.14a12.892,12.892,0,0,0,1.715-.525l1.014-.385a.336.336,0,0,1,.315.21,3.591,3.591,0,0,1,.175,1.015l.035,3.394a11.4,11.4,0,0,1,1.994-3.394,2.915,2.915,0,0,1,2.2-1.085,2,2,0,0,1,1.26.385,1.478,1.478,0,0,1,.455,1.119,1.549,1.549,0,0,1-.385,1.05,1.31,1.31,0,0,1-1.015.455,1.575,1.575,0,0,1-.979-.385,2.007,2.007,0,0,0-.84-.455c-.665,0-1.3.63-1.819,1.89a11.642,11.642,0,0,0-.84,4.723v2.659c.56,0,1.085.035,1.609.07.98.14,2.414.35,2.414.805a.491.491,0,0,1-.139.245l-.385.07-.525-.035c-1.33-.105-2.484-.175-3.464-.175-.6,0-1.155,0-1.749.035s-1.225.07-1.82.14l-.455.035-.455-.07a.617.617,0,0,1-.1-.245q0-.21.524-.42a16.4,16.4,0,0,1,2.239-.455Z" fill="#000000"/><path d="M856.846,143.128a4.291,4.291,0,0,0,3.428,1.539,3.655,3.655,0,0,0,3.01-1.4l.6-.7a1.837,1.837,0,0,1,.455-.455c.034-.035.069-.035.1-.07l.175.07.071.175a1.649,1.649,0,0,1-.246.7,5.761,5.761,0,0,1-.629.98,6.412,6.412,0,0,1-2.169,1.749,5.764,5.764,0,0,1-2.59.63,5.409,5.409,0,0,1-4.2-1.75,6.478,6.478,0,0,1-1.575-4.548,6.736,6.736,0,0,1,1.749-4.794,6.066,6.066,0,0,1,4.62-1.854,5.278,5.278,0,0,1,3.848,1.365,5.428,5.428,0,0,1,1.364,3.953v.455h-9.341A5.813,5.813,0,0,0,856.846,143.128Zm.7-4.653,2.694-.071a8.985,8.985,0,0,0,.98-.07,11.307,11.307,0,0,0,1.224-.174,4.669,4.669,0,0,0-.875-3.01,2.885,2.885,0,0,0-2.343-1.084,3.278,3.278,0,0,0-2.59,1.155,5.122,5.122,0,0,0-.77,1.434,4.962,4.962,0,0,0-.314,1.82Z" fill="#000000"/><path d="M885.6,134.556a2.667,2.667,0,0,1-.7-.21c-.175-.1-.279-.21-.279-.385l.069-.245.42-.07.875.07,1.365.07,1.4-.07.91-.07.385.07a.447.447,0,0,1,.14.245c0,.1-.14.245-.42.385l-1.469.384-1.89,3.849-.875,1.785-2.624,5.563-.139.28c-.175.385-.351.595-.526.595-.21,0-.42-.281-.664-.8l-4.864-11.267-1.61-.349c-.314-.14-.454-.28-.489-.42a.491.491,0,0,1,.14-.245l.42-.07.979.07,1.715.1,1.68-.1.979-.07.42.07.07.245q0,.262-.42.42l-1.365.385,3.849,9.307,2.064-5.319.7-1.959.524-2.065A6.13,6.13,0,0,1,885.6,134.556Z" fill="#000000"/><path d="M902.083,144.317a7.974,7.974,0,0,1-5.634,2.1,6.17,6.17,0,0,1-4.373-1.54,5.345,5.345,0,0,1-1.644-4.093,6.792,6.792,0,0,1,2.308-5.319,8.519,8.519,0,0,1,5.844-2.064,5.646,5.646,0,0,1,4.233,1.575,5.964,5.964,0,0,1,1.539,4.268A6.624,6.624,0,0,1,902.083,144.317Zm-.176-4.338a7.25,7.25,0,0,0-1.119-4.3,3.619,3.619,0,0,0-3.114-1.5,4.382,4.382,0,0,0-3.533,1.5,5.9,5.9,0,0,0-1.33,3.989A6.738,6.738,0,0,0,894.07,144a3.888,3.888,0,0,0,3.254,1.575C900.264,145.577,901.907,143.443,901.907,139.979Z" fill="#000000"/><path d="M910.97,140.679l.139,4.2a17.233,17.233,0,0,1,2.1.42c.314.1.489.28.524.455a.5.5,0,0,1-.139.245l-.385.07-1.225-.105-2.17-.1-2.168.1-1.225.105L906,146a.441.441,0,0,1-.14-.245c0-.28.315-.455,2.66-.91l.1-2.939.07-3.5-.105-17.984a5.275,5.275,0,0,0-.105-1.329.576.576,0,0,0-.525-.28c-.524,0-1.329.63-1.645.63l-.174-.07-.07-.1a1.024,1.024,0,0,1,.28-.665,5.391,5.391,0,0,1,.945-.7l1.853-.944a3.257,3.257,0,0,1,1.33-.351.458.458,0,0,1,.42.246,3.1,3.1,0,0,1,.105.979L910.9,138.4Z" fill="#000000"/><path d="M917.512,145.822a1.688,1.688,0,0,1-.525-1.3,1.864,1.864,0,0,1,1.784-1.784,1.763,1.763,0,0,1,1.75,1.784,1.8,1.8,0,0,1-.49,1.3,1.773,1.773,0,0,1-2.519,0Z" fill="#000000"/><path d="M927.763,124.619l-.316.035H927.2a.5.5,0,0,1-.314-.07l-.14-.21c0-.175.35-.315,1.015-.42.7-.1,1.189-.21,1.468-.245q.369-.052,1.05-.209a14.625,14.625,0,0,0,3.5-1.26l.526-.21.21.105.069.315-.175,1.609c0,.35-.035.91-.07,1.714s-.069,1.19-.069,1.225v11.267l.069,3.778a9.178,9.178,0,0,0,.035,1.015,18.578,18.578,0,0,0,.141,1.854c.7,0,1.329.035,1.923.07,1.121.14,2.45.35,2.45.805a.491.491,0,0,1-.14.245l-.385.07-.49-.035a42.018,42.018,0,0,0-4.828-.245,46.954,46.954,0,0,0-5.144.245l-.49.035-.42-.07a.443.443,0,0,1-.139-.245c0-.455,1.469-.665,2.624-.77a17.361,17.361,0,0,1,2.029-.1l.21-2.8.07-3.848V124.374Z" fill="#000000"/><g id="上海_アリス幻樂団-2" data-name="上海■アリス幻樂団"><path d="M84.862,899.06a1.336,1.336,0,0,1,.818.253.78.78,0,0,1,.355.714l-.062,2.309h3.2a3.786,3.786,0,0,1,1,.084q.231.12.231.526a1.435,1.435,0,0,1-.2.747.66.66,0,0,1-.54.272q-.262,0-1.08-.051c-.515-.011-.982-.017-1.4-.017q-.494,0-1.281.017l-.092,3.311a54.4,54.4,0,0,1,6.4.729,3.494,3.494,0,0,1-.463,1.545.791.791,0,0,1-.664.492,4.93,4.93,0,0,1-1.188-.255,19.575,19.575,0,0,0-5.216-.746,15.253,15.253,0,0,0-5.093.815,3.385,3.385,0,0,1-1.034.255.814.814,0,0,1-.586-.324.909.909,0,0,1-.277-.61.977.977,0,0,1,.74-1.087,20.117,20.117,0,0,1,5.494-.814l-.063-7.2a.875.875,0,0,1,.279-.679A.9.9,0,0,1,84.862,899.06Z" fill="#000000"/><path d="M78.318,920.576l2.593.068c.288.09.433.232.433.424q0,.441-.88.8a17.279,17.279,0,0,1-2.1.628.818.818,0,0,1-.478-.271.772.772,0,0,1-.247-.543,1.656,1.656,0,0,1,.2-.765Q78.072,920.576,78.318,920.576Zm1.112-4.414q.4,0,1.142.764c.792.8,1.188,1.3,1.188,1.477a.371.371,0,0,1-.416.424,2.214,2.214,0,0,1-.617-.118,7.542,7.542,0,0,0-1.467-.2q-.772-.086-.772-1.239a1.162,1.162,0,0,1,.293-.781A.944.944,0,0,1,79.43,916.162Zm1.095,7.691c.175,0,.263.085.263.253q0,.308-.231,2.327a.731.731,0,0,1-.834.729,1.115,1.115,0,0,1-.725-.237,1.03,1.03,0,0,1-.309-.764,1.166,1.166,0,0,1,.232-.544l1.266-1.544C80.319,923.926,80.433,923.853,80.525,923.853Zm3.72-4.771a1,1,0,0,1,.6.17.2.2,0,0,1,.077.051q1-.067,2.577-.068,2.5,0,3.163.084.309.036.309.255a2.083,2.083,0,0,1-.123.374,11.257,11.257,0,0,0-.463,1.952c.606.045,1.25.1,1.928.169a2.732,2.732,0,0,1-.354,1.274c-.175.3-.36.441-.556.441a3.03,3.03,0,0,1-.91-.237c-.134-.034-.263-.068-.387-.1q-.045.255-.077.527t-.107.526c.472.034.9.063,1.28.085.175.034.263.1.263.2a1.293,1.293,0,0,1-.2.747.652.652,0,0,1-.54.288c-.186,0-.562-.022-1.127-.068a3.915,3.915,0,0,1-.495,1.07q-.371.627-.848.628a1.323,1.323,0,0,1-1.126-.815,2.777,2.777,0,0,0,.694-.985Q86.25,925.6,84,925.6a3.049,3.049,0,0,0-1.173.17,1.1,1.1,0,0,1-.386.119.589.589,0,0,1-.432-.188.49.49,0,0,1-.185-.424,1.929,1.929,0,0,1,.155-.56c.143-.442.287-.888.431-1.341-.134.034-.262.062-.386.085a3.722,3.722,0,0,1-.941.186.5.5,0,0,1-.37-.237.54.54,0,0,1-.186-.374.618.618,0,0,1,.495-.679,14.014,14.014,0,0,1,1.835-.39q.357-1.155.71-2.394A.621.621,0,0,1,84.245,919.082Zm-.387-3.106a2.2,2.2,0,0,1,1,.2.576.576,0,0,1,.293.474,1.138,1.138,0,0,1-.108.425q1.02-.1,2.794-.1a41.477,41.477,0,0,1,4.181.152,2.7,2.7,0,0,1-.277,1.205.436.436,0,0,1-.4.289q-.326,0-1.327-.068-1.606-.153-2.655-.153a20.365,20.365,0,0,0-2.469.136,6.319,6.319,0,0,1-.833.085.252.252,0,0,1-.093-.018.716.716,0,0,0-.123.136,2.98,2.98,0,0,1-1.96,1.239c-.279,0-.417-.1-.417-.288a.618.618,0,0,1,.2-.356,8.791,8.791,0,0,0,1.389-1.766,2.228,2.228,0,0,0,.385-1.052.994.994,0,0,0-.2-.493A3,3,0,0,1,83.858,915.976Zm1.513,8.42.309-1.41c-.545.023-1.071.063-1.575.119l-.37,1.222c0,.046.129.069.386.069Zm-.88-2.581q.68-.051,1.467-.068l.293-1.29c-.5.012-.962.028-1.374.051Zm3.736,2.631a.153.153,0,0,0,.014-.05q.186-.7.34-1.274a12,12,0,0,0-1.667-.152l-.309,1.442Q87.471,924.412,88.227,924.446Zm-.742-3.989-.308,1.29c.535,0,1.111.018,1.728.051a7.579,7.579,0,0,0,.2-1.154Q89.105,920.474,87.485,920.457Z" fill="#000000"/><path d="M90.865,945.267H79V932.146H90.865Z" fill="#000000"/><path d="M68.256,903.592A12.237,12.237,0,0,1,68.1,905.9a3.748,3.748,0,0,1-.972,1.868,5.433,5.433,0,0,1-2.33,1.544,5.067,5.067,0,0,1-1.776.374q-1.279,0-1.28-1.07a2.846,2.846,0,0,1,1.065-2.41q.138.611.925.611a2.056,2.056,0,0,0,2.162-1.46,4.319,4.319,0,0,0,.2-1.069v-.765q0-.865.957-.865a1.828,1.828,0,0,1,.848.136A.839.839,0,0,1,68.256,903.592Zm5.633-2.36a.9.9,0,0,1-.325.7,6.961,6.961,0,0,0-.663.492,1.566,1.566,0,0,0-.509.425q-1.713,2.122-2.3,2.122-.711,0-.71-.646a6.3,6.3,0,0,1,.586-1.357,1.246,1.246,0,0,0,.108-.391q0-.441-.417-.441-.045,0-.956-.034c-.607-.035-.983-.051-1.127-.051a14.936,14.936,0,0,0-2.947.289q-1.435.272-1.528.271a.914.914,0,0,1-.571-.22,1.088,1.088,0,0,1-.355-.816,1.126,1.126,0,0,1,.988-1.29,18.7,18.7,0,0,1,2.886-.22q3.332,0,5.632.22a6.46,6.46,0,0,1,1.7.323C73.719,900.751,73.889,900.961,73.889,901.232Z" fill="#000000"/><path d="M71.991,917.724q0,.306-.154,2.462-.279,3.631-1.945,5.21a5.787,5.787,0,0,1-4.1,1.342,5.113,5.113,0,0,1-1.311-.119q-.819-.219-.819-.917a3.108,3.108,0,0,1,1.42-2.24,1.535,1.535,0,0,0,1.436.577,2.643,2.643,0,0,0,1.79-.815,4.756,4.756,0,0,0,1.265-3.581V918.59c.01-.452.015-.719.015-.8q0-.916,1.22-.917a1.523,1.523,0,0,1,.771.2A.746.746,0,0,1,71.991,917.724Zm-6.034-.084q0,.2-.016,1.459-.015,1.273-.015,1.714,0,1.749-1.189,1.749-.925,0-.925-1.239,0-.22-.046-1.613t-.032-1.918q0-.882,1.158-.883Q65.957,916.909,65.957,917.64Z" fill="#000000"/><path d="M73.349,942.687q-.743,1.068-1.435,1.069a1.426,1.426,0,0,1-.864-.527q-.186-.168-.618-.577-.4-.389-.7-.644a14.556,14.556,0,0,0-2.468-1.647q-2.733,2.853-4.815,2.852-.819,0-.818-1.069a4.428,4.428,0,0,1,.88-2.173.811.811,0,0,0,.648.288,3.2,3.2,0,0,0,1.5-.526,7.2,7.2,0,0,0,1.559-1.121,12.076,12.076,0,0,0,.988-1.12,1.906,1.906,0,0,0,.416-.729c0-.182-.148-.273-.447-.273a18.271,18.271,0,0,0-2.685.17q-1.08.136-.988.136a.732.732,0,0,1-.479-.221,1.071,1.071,0,0,1-.338-.865.914.914,0,0,1,1.048-1.019l1.745-.034q1.8-.084,2.7-.085a6.593,6.593,0,0,1,2.5.289.657.657,0,0,1,.463.612.685.685,0,0,1-.262.508,3.723,3.723,0,0,0-.494.476q-.48.611-1.806,2.41a11.027,11.027,0,0,0,3.056,1.63q.663.255,2.006.662c.092.023.211.057.355.1h.016A2.82,2.82,0,0,1,73.349,942.687Z" fill="#000000"/><path d="M48.069,898.94a.819.819,0,0,1,.663.255,1.1,1.1,0,0,1,.247.679,1.8,1.8,0,0,1-.571,1.154l-1.867,1.749c-.268.294-.4.481-.4.56,0,.17.174.356.524.56l.694.306q.957-.917,1.868-1.834a1.288,1.288,0,0,1,.818-.509.79.79,0,0,1,.493.221.845.845,0,0,1,.247.577,2.122,2.122,0,0,1-.71,1.46l-2.931,2.868,2.391.085c.082,0,.123-.061.123-.186a2.589,2.589,0,0,1-.617-.95c0-.318.145-.476.433-.476q.4,0,1.635,1.223,1.018.966,1.019,1.493,0,.747-.556.747a3.89,3.89,0,0,1-.648-.119,15.587,15.587,0,0,0-1.913-.085H46.958a9,9,0,0,0-2.006.17,1.726,1.726,0,0,1-.463.17q-.942,0-.941-.679a1.889,1.889,0,0,1,.74-1.341q.881-.78,1.713-1.545a11.082,11.082,0,0,0-1.82-.883q-.694-.237-.7-.577c0-.215.205-.549.618-1l2.607-3.089Q47.592,898.94,48.069,898.94Zm5.988.612a32.39,32.39,0,0,1,3.287.1c.319.069.478.193.478.374a.865.865,0,0,1-.108.3,2.106,2.106,0,0,0-.216.968l-.093,4.872a4.579,4.579,0,0,1-1.25,3.056,2.99,2.99,0,0,1-2.1.984,1.12,1.12,0,0,1-.849-.441,4.185,4.185,0,0,1-.756-1.664,5.278,5.278,0,0,0,2.485-.933A2.651,2.651,0,0,0,55.785,905v-3.48c0-.147-.088-.221-.263-.221q-2.236,0-3.595.136a4.88,4.88,0,0,1-.972.153c-.154,0-.309-.108-.463-.323a1.11,1.11,0,0,1-.216-.713q0-.7.849-.916A25.956,25.956,0,0,1,54.057,899.552Z" fill="#000000"/><path d="M46.387,916.162a.562.562,0,0,1,.494.221.84.84,0,0,1,.185.526.8.8,0,0,1-.294.543l-.971.832c-.145.148-.216.237-.216.272s.077.09.231.135l.278.069.664-.662a.8.8,0,0,1,.509-.289q.478,0,.478.594a.742.742,0,0,1-.324.594L45.77,920.44c0,.045.046.068.138.068H47c.093,0,.14-.023.14-.068a2.528,2.528,0,0,1-.2-.611c0-.17.109-.255.325-.255q.261,0,.787.628a1.732,1.732,0,0,1,.447.866c0,.363-.164.543-.493.543a2.138,2.138,0,0,1-.417-.067H46.264a12.074,12.074,0,0,0-1.775.1,1.258,1.258,0,0,1-.371.1.417.417,0,0,1-.386-.424c0-.147.155-.356.463-.629l.85-.882a7.273,7.273,0,0,0-1.066-.458q-.37-.1-.37-.272t.37-.561l1.59-1.764Q46.109,916.162,46.387,916.162Zm4.444-.322a2.372,2.372,0,0,1,.911.119.286.286,0,0,1,.216.271,1.348,1.348,0,0,1-.154.56,10.567,10.567,0,0,1,1.635.17c.155.034.232.113.232.238q-.078.408-.185,1.205l.169-.186,1.574-1.648c.35-.361.618-.543.8-.543a.589.589,0,0,1,.494.221.889.889,0,0,1,.185.526.767.767,0,0,1-.324.51l-1.065.746c-.144.125-.216.2-.216.239,0,.056.062.118.185.186l.294.152.556-.526a.818.818,0,0,1,.508-.271q.495,0,.495.594a.678.678,0,0,1-.356.56l-1.682,1.358q0,.051.123.051H56.2c.134,0,.2-.017.2-.051a2.3,2.3,0,0,1-.2-.56c0-.169.108-.254.324-.254.175,0,.421.2.741.61a1.536,1.536,0,0,1,.432.816q0,.543-.432.543H55.508a10.74,10.74,0,0,0-1.652.1,1.08,1.08,0,0,1-.37.1.44.44,0,0,1-.294-.154.377.377,0,0,1-.107-.255.494.494,0,0,1-.217.052,1.462,1.462,0,0,1-.246-.052q-.448-.049-1.235-.067l.092.051a1.155,1.155,0,0,1,.4.7q2.407.086,6,.543a2.977,2.977,0,0,1-.432,1.409c-.176.328-.386.493-.633.493a4.393,4.393,0,0,1-1.142-.272,17.974,17.974,0,0,0-3.812-.713l-.03,1.935a3.012,3.012,0,0,1-.324,1.51.84.84,0,0,1-.787.527,1.094,1.094,0,0,1-.8-.339q-.324-.255-.324-1.563v-2.087a18.412,18.412,0,0,0-4.229.627,4.117,4.117,0,0,1-1.08.221.592.592,0,0,1-.416-.237.6.6,0,0,1-.2-.425.755.755,0,0,1,.556-.831,19.584,19.584,0,0,1,5.385-.781,1.106,1.106,0,0,1,.309-.645,1.33,1.33,0,0,1,.154-.119,7.394,7.394,0,0,0-1.018.119.6.6,0,0,1-.2.085c-.2,0-.314-.181-.355-.544l-.324-3.463a.4.4,0,0,1,.294-.407,10.436,10.436,0,0,1,1.187-.17,1.809,1.809,0,0,0,.14-.526.563.563,0,0,0-.2-.322A5.987,5.987,0,0,1,50.831,915.84Zm-2.947,8.487c.082,0,.124.046.124.136a2.439,2.439,0,0,1-.741,1.494,2.615,2.615,0,0,1-1.745,1q-.555,0-.554-.866a1.57,1.57,0,0,1,.261-1.019c.021.091.119.136.293.136a3.254,3.254,0,0,0,1.791-.679A1.345,1.345,0,0,1,47.884,924.327Zm1.991-5.721a7.254,7.254,0,0,1,.91-.05q.555,0,1.127.05l.046-.593c0-.057-.036-.1-.108-.119a5.308,5.308,0,0,0-1.126-.085,2.474,2.474,0,0,0-.742.1q-.123.035-.123.1Zm.231,1.58a3.981,3.981,0,0,1,.71-.069,4.926,4.926,0,0,1,.818.069c.113,0,.179-.069.2-.205l.03-.492c-.381-.034-.74-.051-1.08-.051s-.633.012-.88.035l.016.644C49.921,920.163,49.982,920.186,50.106,920.186Zm3.148.662.263-.289.987-.934a6.635,6.635,0,0,0-.91-.56.79.79,0,0,1-.17-.1Q53.346,919.761,53.254,920.848Zm.417,3.548a1.885,1.885,0,0,1,.818.271,7.8,7.8,0,0,0,1.913.814,3.225,3.225,0,0,1-.555,1.24,1.085,1.085,0,0,1-.741.3q-.37,0-.834-.559a3.912,3.912,0,0,1-.786-1.868C53.486,924.463,53.548,924.4,53.671,924.4Z" fill="#000000"/><path d="M50.831,933.486a38.916,38.916,0,0,1,5.957.306q.54.086.54.373-.309,2.327-.679,9.285c-.02.408-.149.612-.385.612a6.324,6.324,0,0,1-.679-.085q-1.56-.169-4.784-.17a48.581,48.581,0,0,0-5.109.2,3.241,3.241,0,0,1-.6.119c-.2,0-.315-.176-.355-.526l-.618-9.167c0-.329.242-.532.726-.612A52.855,52.855,0,0,1,50.831,933.486Zm-4.506,8.759q1.266-.033,2.5-.051a.679.679,0,0,1-.138-.17,2.222,2.222,0,0,1-.325-1.272,4.754,4.754,0,0,0,2.176-.391.894.894,0,0,0,.479-.763v-1.919a16.033,16.033,0,0,0-3.025.305,8.61,8.61,0,0,1-.926.12.568.568,0,0,1-.432-.205.908.908,0,0,1-.17-.543.738.738,0,0,1,.417-.7,18.172,18.172,0,0,1,4.136-.254v-.815a.781.781,0,0,1,.138-.476h-.324q-2.315,0-4.3.188c-.505.045-.756.113-.756.2l.371,6.6C46.141,942.2,46.2,942.245,46.325,942.245Zm3.473-4.091q.416,0,.416.492,0,.137-.37.543a4.659,4.659,0,0,1-1.189.849,2.549,2.549,0,0,1-1.033.289.421.421,0,0,1-.478-.475,1.931,1.931,0,0,1,.354-1,.252.252,0,0,0,.247.118,2.225,2.225,0,0,0,.818-.187,3.707,3.707,0,0,0,.926-.526A.509.509,0,0,1,49.8,938.154Zm2.639-3.039a.467.467,0,0,1,.077.255,4.531,4.531,0,0,0-.062.611v.442q1.171.051,2.453.186a2.754,2.754,0,0,1-.293,1.274.537.537,0,0,1-.447.221,4.7,4.7,0,0,1-.8-.12c-.329-.079-.633-.141-.91-.186v1.986a2.2,2.2,0,0,1-.88,1.918,4.42,4.42,0,0,1-.941.476h4.274c.124,0,.191-.1.2-.289l.355-6.451c0-.09-.134-.153-.4-.186Q54.15,935.15,52.437,935.115Z" fill="#000000"/></g><g id="其の壱_東方幻想郷_" data-name="其の壱 東方幻想郷 ～"><path d="M361.03,920.049a3.756,3.756,0,0,1,1.912.615,1.6,1.6,0,0,1,.957,1.469q0,.921-.547.922-2.287,0-4.406.136l-.376,11.477q3.45-.376,5.807-.752c.3-.022.546-.034.751-.034a5.913,5.913,0,0,1,2.391.649,2.392,2.392,0,0,1,1.264,1.81q0,1.2-.922,1.2a29.794,29.794,0,0,1-3.177-.273,11.594,11.594,0,0,0-2.288-.274q-7.275,0-11.784.445a71.4,71.4,0,0,0-7.582,1.058,4.855,4.855,0,0,1-1.537.274,3.126,3.126,0,0,1-1.913-.889q-.819-.888-.82-1.127a.242.242,0,0,1,.274-.273q2.255,0,8.88-.649l-.034-10.554c0-.341-.012-.66-.034-.957q-.582.1-1.23.24a6.6,6.6,0,0,1-1.195.307,2.919,2.919,0,0,1-1.64-.786q-.786-.613-.785-1.024a.242.242,0,0,1,.273-.274q2.356-.271,4.474-.546a16.412,16.412,0,0,0-.2-1.673,3.235,3.235,0,0,0-.82-1.879,1.107,1.107,0,0,1-.069-.273q0-.376.854-.376a7.237,7.237,0,0,1,2.425.478q1.366.65,1.366,1.128a1.048,1.048,0,0,1-.136.409,8.877,8.877,0,0,0-.273,1.742,8.247,8.247,0,0,1,1.024-.205q1.947-.308,3.86-.648-.034-1.368-.171-2.562a4.167,4.167,0,0,0-.546-1.981,2.049,2.049,0,0,1-.034-.274q0-.58.921-.58a7.14,7.14,0,0,1,2.562.546q1.4.684,1.4,1.264a.831.831,0,0,1-.2.41,8.851,8.851,0,0,0-.547,2.527.311.311,0,0,1,.137-.034A7.7,7.7,0,0,1,361.03,920.049Zm-13.116,18.205a14.576,14.576,0,0,1,2.118.41q1.707.546,1.707,1.23,0,.2-.375.376a12.148,12.148,0,0,0-1.947,1.638,25.364,25.364,0,0,1-4.03,3.109,16.674,16.674,0,0,1-2.664,1.161,1.636,1.636,0,0,1-.683.239c-.183,0-.274-.046-.274-.137a26.492,26.492,0,0,0,2.869-2.9,14.648,14.648,0,0,0,2.493-3.483,2.064,2.064,0,0,0,.376-1.4Q347.5,938.254,347.914,938.254Zm2.63-2.664a1.564,1.564,0,0,1,.308-.034q2.6-.24,4.815-.513l.171-11.612v-.069q-2.084.136-4.03.376a7.975,7.975,0,0,0-1.059.137l-.034,2.391q.717-.24,1.332-.513a1.044,1.044,0,0,1,.341-.1q2.631,0,2.631,1.64a.3.3,0,0,1-.24.308,17.543,17.543,0,0,1-2.22.614,8.3,8.3,0,0,1-1.127.171,3.793,3.793,0,0,1-.751-.069l-.035,2.016a9.16,9.16,0,0,0,1.264-.478,1.025,1.025,0,0,1,.376-.1q2.6,0,2.6,1.64a.239.239,0,0,1-.2.273,13.727,13.727,0,0,1-2.186.649,5.982,5.982,0,0,1-1.059.2,3.126,3.126,0,0,1-.82-.1Zm5.7,3.04a7.573,7.573,0,0,1,1.127.137q1.468.613,3.006,1.332a7.967,7.967,0,0,1,2.527,2.048,3.119,3.119,0,0,1,.581,1.845,2.828,2.828,0,0,1-.478,1.435,1.4,1.4,0,0,1-1.161.58,1.266,1.266,0,0,1-1.23-.649,14.875,14.875,0,0,1-1.674-2.118A22.405,22.405,0,0,0,356.76,940a2.2,2.2,0,0,1-.649-1.093C356.111,938.721,356.157,938.63,356.248,938.63Z" fill="#000000"/><path d="M400.342,931.594a9.406,9.406,0,0,1-3.176,7.241,16.144,16.144,0,0,1-8.5,3.654,17.543,17.543,0,0,0,6.386-5.465,10.715,10.715,0,0,0,1.981-5.806,9.258,9.258,0,0,0-1.673-5.67,5.2,5.2,0,0,0-4.3-2.254h-.683c-.3.022-.524.034-.683.034a4.916,4.916,0,0,1,.752,2.254,17.629,17.629,0,0,1-1.743,6.558,16.413,16.413,0,0,1-3.757,5.635,6.009,6.009,0,0,1-3.381,1.879q-1.366-.1-2.459-2.459a15.525,15.525,0,0,1-1.605-6.251,7.847,7.847,0,0,1,1.5-4.337,10.781,10.781,0,0,1,4.576-3.962,16.141,16.141,0,0,1,6.729-1.264,9.772,9.772,0,0,1,7.275,2.8A10.163,10.163,0,0,1,400.342,931.594Zm-12.193-6.7a2.818,2.818,0,0,0-.307-1.3,19.632,19.632,0,0,0-2.255.511,10.684,10.684,0,0,0-4.645,3.69,6.816,6.816,0,0,0-1.605,3.962,8.1,8.1,0,0,0,1.059,3.825q.648,1.2,1.537,1.161,1.092-.033,3.074-3.211a18.433,18.433,0,0,0,2.22-4.3A23.336,23.336,0,0,0,388.149,924.9Z" fill="#000000"/><path d="M411.99,927.871q.512,0,1.058.956a3.625,3.625,0,0,1,.308.785q7.07-.375,19.195-2.288c.387-.022.728-.034,1.025-.034a6.446,6.446,0,0,1,2.527,1.23q2.118,1.844,2.118,2.356,0,.821-1.367.82a17.169,17.169,0,0,0-5.5,1.2c-.182,0-.272-.046-.272-.137a8.63,8.63,0,0,1,1.092-1.5,4.033,4.033,0,0,0,.82-1.5.53.53,0,0,0-.137-.239,1.58,1.58,0,0,0-.649-.136,71.278,71.278,0,0,0-8.368.512q-3.483.376-8.983,1.4a9.676,9.676,0,0,1-1.263.239.874.874,0,0,1-.273-.034,9.135,9.135,0,0,1-.376,1.093,7.222,7.222,0,0,1-1.127,2.016,1.037,1.037,0,0,1-.683.375,1.85,1.85,0,0,1-1.777-1.947,1.513,1.513,0,0,1,.24-.888,13.564,13.564,0,0,0,1.946-3.894C411.636,928,411.785,927.871,411.99,927.871Zm17.35-8.744a3.213,3.213,0,0,1,1.537.478,1.471,1.471,0,0,1,.752,1.3q0,.649-.41.649a55.392,55.392,0,0,0-6.626.376q-.1,1.023-.239,2.254,1.127-.273,2.22-.546a4.914,4.914,0,0,1,1.127-.137,3.216,3.216,0,0,1,1.537.478,1.471,1.471,0,0,1,.751,1.3q0,.649-.409.649a44.285,44.285,0,0,0-7.207.547,21.6,21.6,0,0,0-3.245.648,4.388,4.388,0,0,1-.752.171,2.493,2.493,0,0,1-1.366-.615q-.648-.512-.649-.888c0-.091.035-.137.1-.137q2.971-.444,5.225-.887.034-1.4.035-2.493a.672.672,0,0,1-.2.034,26.705,26.705,0,0,0-4.3.922,5.166,5.166,0,0,1-.99.273,2.311,2.311,0,0,1-1.367-.649q-.717-.511-.717-.854c0-.091.057-.137.171-.137q4.132-.648,7.309-1.2c.068,0,.1-.012.1-.034a31.638,31.638,0,0,0-.137-3.211,4.872,4.872,0,0,0-.512-.888,1.243,1.243,0,0,1-.239-.547c0-.386.182-.58.546-.58a5.026,5.026,0,0,1,2.323.58q1.64.582,1.639,1.06c-.023.159-.046.33-.068.512a13.638,13.638,0,0,0-.444,2.424q1.536-.306,3.04-.682A6.3,6.3,0,0,1,429.34,919.127Zm-4.508,11.886a9.392,9.392,0,0,1,2.391.547q1.844.956,1.844,1.468,0,.411-.888.649a11.127,11.127,0,0,0-2.22,1.161,47.615,47.615,0,0,1-6.592,3.86v.069a5.054,5.054,0,0,0,.341,1.946,3.127,3.127,0,0,0,1.333,1.332,8.794,8.794,0,0,0,4.167.718A5.755,5.755,0,0,0,429,941.737q1.194-.886,2.425-4.234c.045-.068.171-.1.376-.1.045,0,.079.035.1.1a17.74,17.74,0,0,0,1.264,5.157c.09.046.136.159.136.342a1.06,1.06,0,0,1-.512.853,7.469,7.469,0,0,1-3.142,1.333,16.648,16.648,0,0,1-3.894.444,14.274,14.274,0,0,1-5.6-1.026,5.149,5.149,0,0,1-2.528-1.877,7.045,7.045,0,0,1-.615-3.519q.137-4,.137-5.908a2.124,2.124,0,0,0-.137-.889,1.015,1.015,0,0,1-.136-.614c0-.183.147-.274.444-.274a4.057,4.057,0,0,1,1.912.581q1.23.478,1.23,1.059a1.368,1.368,0,0,1-.2.717,9.535,9.535,0,0,0-.683,2.221,11.817,11.817,0,0,0-.171,2.014q.888-.751,1.435-1.263a17.053,17.053,0,0,0,2.834-3.075,2.673,2.673,0,0,0,.718-1.263.734.734,0,0,0-.137-.41,2.159,2.159,0,0,1-.136-.581Q424.115,931.014,424.832,931.013Z" fill="#000000"/><path d="M480.164,919.776a4.05,4.05,0,0,1,1.092.273q.923.548.923.957a2.011,2.011,0,0,1-.137.751.82.82,0,0,1-.512.513q-1.914.443-3.894.751-.035.956-.069,2.152a41.386,41.386,0,0,0,4.578-.923,2.612,2.612,0,0,1,.751-.1,7.7,7.7,0,0,1,1.947.616q2.254.99,2.254,1.605c0,.091-.091.217-.273.375a3.61,3.61,0,0,0-1.059,1.606,44.584,44.584,0,0,1-2.323,5.533,2.706,2.706,0,0,1-1.776.513.418.418,0,0,1-.307-.1q-1.81.033-3.416.137a4.6,4.6,0,0,1,.889.751,36.285,36.285,0,0,0,5.054,3.859,40.707,40.707,0,0,0,8.676,3.724V943q0,.238-.786.272a41.614,41.614,0,0,1-6.455.581,2.022,2.022,0,0,1-1.264-.273,46.967,46.967,0,0,1-5.636-6.25q-.376-.41-.751-.82.033,3.621.137,8.129a3.671,3.671,0,0,1-.683,2.493q-.615.955-1.2.957-.649,0-1.5-1.879a3.691,3.691,0,0,1-.273-1.3,4.547,4.547,0,0,1,.239-1.571,6.417,6.417,0,0,0,.239-1.673q.206-1.674.308-4.68-1.06,1.2-2.289,2.493a24.4,24.4,0,0,1-4.1,3.211,22.574,22.574,0,0,1-3.792,1.776,12.273,12.273,0,0,1-1.947.615h-.273a43.363,43.363,0,0,0,3.655-2.732,42.2,42.2,0,0,0,4.816-4.2,22.416,22.416,0,0,0,2.357-2.971.681.681,0,0,0,.17-.24q-1.434.172-1.844.171h-.068a.813.813,0,0,1-.786.513,1.42,1.42,0,0,1-1.127-.581,1.638,1.638,0,0,1-.512-.922,13.687,13.687,0,0,1-1.059-3.893,8.935,8.935,0,0,0-.956-2.63,2.4,2.4,0,0,0-1.128-1.23q0-.717.547-.718a9.343,9.343,0,0,1,2.151.308l.411.205q3.245-.308,5.908-.649,0-1.161-.034-2.015a13.687,13.687,0,0,1-1.605.137q-2.12,0-2.8-1.06a1.958,1.958,0,0,1-.444-.853c0-.114.08-.171.239-.171q2.664-.136,4.509-.409a7.891,7.891,0,0,0-.41-3.04,9.29,9.29,0,0,0-.478-1.264.826.826,0,0,1-.2-.444.514.514,0,0,1,.58-.582,8.387,8.387,0,0,1,2.733.445q1.5.376,1.5,1.229a1.059,1.059,0,0,1-.2.65,3.782,3.782,0,0,0-.513,1.775,2.76,2.76,0,0,0-.1.615,14.016,14.016,0,0,0,1.674-.581A1.2,1.2,0,0,1,480.164,919.776Zm-8.539,13.492q1.3-.069,3.347-.376h.068q.033-.957.034-1.982-.888.1-1.229.1a2.756,2.756,0,0,1-1.537-.444,1.125,1.125,0,0,1-.478-.82c0-.137.079-.216.238-.239q1.572-.237,3.006-.478v-2.05q-2.357.274-4.782.65Zm5.942-6.559v1.776a2.868,2.868,0,0,1,.649-.1q2.358,0,2.357,1.5,0,.24-.409.273-1.368.239-2.6.445.034.921.035,1.912a14.8,14.8,0,0,0,1.571-.308,3.517,3.517,0,0,1,.854-.1,1.594,1.594,0,0,1,1.127.41,2.273,2.273,0,0,1,.171-.342,24.729,24.729,0,0,0,.683-3.62,8.871,8.871,0,0,0,.171-1.674c0-.341-.217-.512-.649-.512a27.663,27.663,0,0,0-2.767.2Z" fill="#000000"/><path d="M521.389,926.505q-4.475,0-8.778.2a.876.876,0,0,1,.205.1q1.332.58,1.332,1.434a1.113,1.113,0,0,1-.307.547q-.649.786-1.059,1.3,1.434.205,4.133.376a4.212,4.212,0,0,1,2.6,1.161q1.058.853,1.058,1.4a.727.727,0,0,1-.341.512,3.637,3.637,0,0,0-.888,1.469,73.975,73.975,0,0,1-2.425,7.1,7.634,7.634,0,0,1-2.255,2.938,3.8,3.8,0,0,1-2.254.956q-.786,0-.922-.341a6.1,6.1,0,0,0-.376-1.742,6.194,6.194,0,0,0-1.5-2.221,1.363,1.363,0,0,1-.205-.58c0-.182.046-.273.137-.273a7.8,7.8,0,0,0,2.869,1.058.782.782,0,0,0,.718-.409,3.1,3.1,0,0,0,1.059-1.332,10.325,10.325,0,0,0,1.571-3.348,9.312,9.312,0,0,0,.614-3.211c0-.09-.217-.192-.648-.306a11.757,11.757,0,0,0-1.572-.137,15.549,15.549,0,0,1-2.39-1.5,29.431,29.431,0,0,1-4.338,6.182,18.809,18.809,0,0,1-7.139,4.816,8.534,8.534,0,0,1-2.493.922c-.092,0-.137-.057-.137-.171a51.939,51.939,0,0,0,6.866-5.874,23.337,23.337,0,0,0,4.064-5.943,8.606,8.606,0,0,0,1.195-4l-.136-.616q-2.185.242-4.441.718-1.774.411-4.406,1.2-.41.1-.41.205-.512,0-1.639-1.093a5.016,5.016,0,0,1-.956-1.367c0-.09.09-.136.273-.136q.955-.1,2.391-.239,13.9-1.743,18.614-2.63a28.65,28.65,0,0,1,3.587-.274,8.767,8.767,0,0,1,1.81.649q1.436.923,1.434,1.5,0,1.263-1.366,1.263a12.784,12.784,0,0,1-1.4-.136A13.1,13.1,0,0,0,521.389,926.505Zm-12.432-9.154a11.67,11.67,0,0,1,3.176.581,5.784,5.784,0,0,1,2.357,1.092,1.684,1.684,0,0,1,.649,1.332q0,1.639-1.811,1.64-1.059,0-2.732-1.879-1.914-2.014-1.912-2.493C508.684,917.465,508.774,917.374,508.957,917.351Z" fill="#000000"/><path d="M538.364,918.683a4.4,4.4,0,0,1,2.254.786q1.263.682,1.264,1.537a.727.727,0,0,1-.342.512,65.089,65.089,0,0,0-5.055,7.343c-.159.274-.307.546-.444.82l4.27-.137a27.306,27.306,0,0,0,1.639-2.971,5.818,5.818,0,0,0,.479-1.844c0-.638.272-.957.819-.957a5.459,5.459,0,0,1,2.05.957q1.365.717,1.366,1.5,0,.173-.513.512-1.674,1.572-4.132,4.372a58.181,58.181,0,0,0-5.192,7.276q3.312-.718,6.284-1.367a19.913,19.913,0,0,0-.751-2.253,2.867,2.867,0,0,1-.341-1.026.12.12,0,0,1,.136-.137,3.3,3.3,0,0,1,.751.137,16.452,16.452,0,0,1,1.913,1.264,5.411,5.411,0,0,1,1.64,1.913,4.079,4.079,0,0,1,.341,1.708,2.586,2.586,0,0,1-.409,1.332,1.224,1.224,0,0,1-1.093.58,1.114,1.114,0,0,1-1.06-.546q-.239-.478-.751-1.776a.262.262,0,0,1-.1.034,20.965,20.965,0,0,0-4.85,1.5,11.618,11.618,0,0,0-2.9,1.571,2.091,2.091,0,0,1-.718.308q-.513,0-1.3-1.162a2.39,2.39,0,0,1-.58-1.264,1.5,1.5,0,0,1,.649-1.093,2.411,2.411,0,0,0,.99-.682,37.823,37.823,0,0,0,3.142-4.2q.924-1.23,1.64-2.391a11.3,11.3,0,0,0-4.816,2.05,1.686,1.686,0,0,1-1.5-.888,2.324,2.324,0,0,1-.512-1.537,1.146,1.146,0,0,1,.137-.581,10.46,10.46,0,0,0,2.766-3.655,45.216,45.216,0,0,0,1.878-4.748,9.1,9.1,0,0,0,.376-1.434,2.478,2.478,0,0,1-.137-.785Q537.646,918.683,538.364,918.683Zm18.683,6.456a7.462,7.462,0,0,1,2.049,1.024q1.776,1.059,1.776,1.708a1.443,1.443,0,0,1-.239.58,4.276,4.276,0,0,0-1.2,2.05A58.591,58.591,0,0,1,558,939.312a8.553,8.553,0,0,1-1.64,3.757,3.848,3.848,0,0,1-1.57,1.5,3.031,3.031,0,0,1-1.162.65.877.877,0,0,1-.819-.616,15.238,15.238,0,0,0-2.87-3.927c-.182-.114-.273-.2-.273-.274,0-.181.057-.272.171-.272a16.763,16.763,0,0,0,3.279,1.127q.921,0,1.777-2.528a28.873,28.873,0,0,0,1.433-6.319,24.73,24.73,0,0,0,.308-3.62q0-.923-1.23-.922a21.657,21.657,0,0,0-2.459.137,36.81,36.81,0,0,0-3.757.819,3.733,3.733,0,0,1-.717.1,2.424,2.424,0,0,1-1.707-.752,1.817,1.817,0,0,1-.513-.888.241.241,0,0,1,.273-.273q1.776-.068,6.592-.786a17.049,17.049,0,0,0,3.313-1.024A2.271,2.271,0,0,1,557.047,925.139Z" fill="#000000"/><path d="M577.574,922.27q2.049,0,2.05,1.366,0,.341-.581.443-1.536.274-2.972.547.035.923.069,2.083c.159.023.3.046.41.068a5.834,5.834,0,0,1,2.151.889,1.724,1.724,0,0,1,.65,1.435.857.857,0,0,1-.342.614,1.325,1.325,0,0,1-.785.307.982.982,0,0,1-.684-.341,6.357,6.357,0,0,1-1.332-1.64q.1,2.22.273,5.124a2.673,2.673,0,0,1-.649,2.015q-.477.717-.99.717t-1.161-1.434a3.062,3.062,0,0,1-.205-.99,2.083,2.083,0,0,1,.17-.923,4.563,4.563,0,0,0,.171-1.025q.171-1.261.24-3.586a19.3,19.3,0,0,1-2.869,3.791,19.8,19.8,0,0,1-3.075,2.22,2.741,2.741,0,0,1-1.366.445h-.137a27.619,27.619,0,0,0,3.826-4.373,24.123,24.123,0,0,0,2.766-4.986,2.277,2.277,0,0,1-.375.034q-2.393.307-3.074.307a2.93,2.93,0,0,1-1.332-.307.841.841,0,0,1-.41-.649c0-.228.079-.364.239-.41q3.107-.442,5.875-1.059-.034-5.088-.444-5.5a3.58,3.58,0,0,0-.342-.785.5.5,0,0,1-.137-.273.363.363,0,0,1,.41-.411,7.8,7.8,0,0,1,2.186.308q1.2.274,1.2.888a.556.556,0,0,1-.17.41,2.068,2.068,0,0,0-.41,1.058,14.066,14.066,0,0,0-.342,3.861,3.139,3.139,0,0,1,.376-.1A5.964,5.964,0,0,1,577.574,922.27Zm-5.191,15.574c.091,0,.181.126.273.376a3.815,3.815,0,0,1,.546,1.674,8.237,8.237,0,0,1-.717,3.175,4.4,4.4,0,0,1-.957,1.845c-.272.387-.535.581-.785.581a1.688,1.688,0,0,1-1.4-.649,2.963,2.963,0,0,1-.239-1.127,3.381,3.381,0,0,1,.239-1.23,16.109,16.109,0,0,0,2.459-4.064C571.87,938.038,572.063,937.844,572.383,937.844Zm2.971-.58q1.57,0,1.913.99a6.455,6.455,0,0,0,.922,2.425,4.069,4.069,0,0,0,1.23,1.5,5.4,5.4,0,0,0,2.083,1.024,7.921,7.921,0,0,0,2.869.513,13.317,13.317,0,0,0,3.62-.479c.25,0,.376-.159.376-.477l-.718-3.724v-.272a.379.379,0,0,1,.308.2,27.835,27.835,0,0,0,3.45,3.518,2.306,2.306,0,0,0,.82.513q.886.273.887,1.5a.979.979,0,0,1-.375.718,3.271,3.271,0,0,1-1.468.682,22.066,22.066,0,0,1-5.124.684,12.063,12.063,0,0,1-2.937-.342,13.235,13.235,0,0,1-2.391-.683,11.313,11.313,0,0,1-2.391-1.5,17.606,17.606,0,0,1-1.366-1.606,11.231,11.231,0,0,1-.922-2.356,9.321,9.321,0,0,0-.888-2.562C575.252,937.354,575.286,937.264,575.354,937.264Zm5.089-18a6.566,6.566,0,0,1,1.367.205,1.589,1.589,0,0,1,.581.239q3.62-.615,5.327-1.094a3.568,3.568,0,0,1,.752-.068,10.183,10.183,0,0,1,2.049.41q2.082.821,2.084,1.537a6.975,6.975,0,0,1-.24,1.23,8.054,8.054,0,0,0-.171,2.049q0,1.468-.068,2.459-.1,3.45-.1,5.875a4.085,4.085,0,0,1-.716,1.776,1.868,1.868,0,0,1-1.332.786q-.376,0-1.093-.991a3.072,3.072,0,0,1-.274-.307,23.991,23.991,0,0,0-3.381.307,16.947,16.947,0,0,1-2.22.342h-.068a1.068,1.068,0,0,1-.1.136.788.788,0,0,1-.751.513q-.307,0-.957-.855a2.718,2.718,0,0,1-.409-.785l.137-1.366q-.1-8.914-.855-10.724a4.315,4.315,0,0,1-.273-1.162Q579.726,919.265,580.443,919.264Zm.274,16.77a4.43,4.43,0,0,1,1.093.171,7.753,7.753,0,0,1,2.424,1.161,2.357,2.357,0,0,1,.718,1.844,1.149,1.149,0,0,1-.444.82,1.511,1.511,0,0,1-.922.375,1.122,1.122,0,0,1-.82-.477,18.163,18.163,0,0,1-2.152-3.348.905.905,0,0,1-.171-.409C580.466,936.08,580.557,936.034,580.717,936.034Zm2.39-3.723c.479-.069,1.013-.16,1.606-.273a15.541,15.541,0,0,0,2.561-.547,1.551,1.551,0,0,1,.546-.1,1.442,1.442,0,0,1,.718.171q.205-1.708.205-8.915a3.341,3.341,0,0,0-.513-1.81,1.089,1.089,0,0,0-.853-.342,13.5,13.5,0,0,0-1.537.1q-1.538.238-2.391.376a5.845,5.845,0,0,1-.581.1l.069,2.937q1.3-.2,2.459-.444a2.327,2.327,0,0,1,.478-.068q2.083,0,2.083,1.366c0,.091-.1.149-.308.171q-1.5.239-2.8.341-1.128.138-1.4.137a2.454,2.454,0,0,1-.478-.035l.034,2.358q1.3-.205,2.391-.479a2.4,2.4,0,0,1,.478-.068q2.083,0,2.083,1.366c0,.091-.1.149-.308.171q-1.571.274-2.9.41-1.128.136-1.469.137h-.239Zm6.866,4.3c.227,0,.58.024,1.058.069q1.3.341,2.63.82a7.269,7.269,0,0,1,2.254,1.229,1.74,1.74,0,0,1,.479,1.162,2.965,2.965,0,0,1-.445,1.434,1.37,1.37,0,0,1-1.195.58,1.234,1.234,0,0,1-1.2-.648,12.082,12.082,0,0,1-1.4-1.435,15.914,15.914,0,0,0-1.776-2.221c-.341-.34-.512-.58-.512-.716C589.87,936.706,589.9,936.614,589.973,936.614Z" fill="#000000"/><path d="M605.445,917.624a3.978,3.978,0,0,1,1.982.649q1.16.615,1.161,1.367,0,.2-.308.443a61.656,61.656,0,0,0-3.791,6.148c-.114.228-.217.444-.307.649h1.946q.478-1.094.786-1.878a5.7,5.7,0,0,0,.308-1.5q0-.854.648-.854a3.887,3.887,0,0,1,1.64.854q1.092.546,1.093,1.23,0,.135-.308.41-1.093,1.261-2.664,3.483a49.529,49.529,0,0,0-3.381,5.978q1.776-.24,3.347-.445a16.564,16.564,0,0,0,.136-2.049,3.333,3.333,0,0,0-.375-1.5c0-.206.17-.308.512-.308a2.7,2.7,0,0,1,1.5.444q1.5.613,1.5,1.059a.608.608,0,0,1-.171.375,3.252,3.252,0,0,0-.478,1.059,42.352,42.352,0,0,1-1.537,5.431,12.972,12.972,0,0,1-2.425,3.518,9.454,9.454,0,0,1-2.9,1.981A3.533,3.533,0,0,1,602,944.5c-.183,0-.273-.046-.273-.136q.887-.717,1.673-1.4a12.082,12.082,0,0,0,2.528-3.177,15.96,15.96,0,0,0,1.3-3.62q.1-.444.205-.855a9.923,9.923,0,0,0-2.358.752,7.156,7.156,0,0,0-1.6.888.94.94,0,0,1-.375.171q-.411,0-1.026-.922a1.826,1.826,0,0,1-.477-.957,1.356,1.356,0,0,1,.41-.922,1.271,1.271,0,0,0,.58-.513q.411-.579,1.879-3.415.614-1.161,1.093-2.186a5.666,5.666,0,0,0-2.459,1.434,1.5,1.5,0,0,1-1.3-.853,2.009,2.009,0,0,1-.444-1.366.637.637,0,0,1,.136-.41,8.477,8.477,0,0,0,1.913-3.075,31.256,31.256,0,0,0,1.333-3.927,9.78,9.78,0,0,0,.272-1.161,2.1,2.1,0,0,1-.137-.717Q604.864,917.624,605.445,917.624Zm11.306,1.059a6.274,6.274,0,0,1,2.117.786q1.845,1.059,1.845,1.537a1.093,1.093,0,0,1-.137.477,14.132,14.132,0,0,0-.853,2.767q-.241,1.982-.752,4.543a2.4,2.4,0,0,1-.956,1.127,1.918,1.918,0,0,1-.821.239.616.616,0,0,1-.546-.342,1.687,1.687,0,0,0-.136-.205c-.525.024-1.059.058-1.606.1-.5.092-.865.148-1.093.171l.069,5.02q1.64-.784,3.176-1.366-.342-.75-.683-1.707a1.11,1.11,0,0,1-.171-.444c.046-.16.137-.24.274-.24a3.457,3.457,0,0,1,1.058.205,6.111,6.111,0,0,1,2.152,1.264,3.036,3.036,0,0,1,.649,2.05,1.394,1.394,0,0,1-.513,1.024,1.89,1.89,0,0,1-1.127.479c-.205,0-.421-.183-.648-.547a6.113,6.113,0,0,1-.615-1.2,37.72,37.72,0,0,0-4.1,3.142q-.99,1.057-1.366,1.059-.513,0-.99-.82a1.793,1.793,0,0,1-.513-.922,1.48,1.48,0,0,1,.137-.717q.171-.377.376-.991a5.345,5.345,0,0,0,.239-1.878q.239-3.519.239-7.344a18.866,18.866,0,0,0-.342-4.714,2.765,2.765,0,0,0-.581-1.058c-.137-.114-.205-.206-.205-.274,0-.272.183-.409.547-.409a3.572,3.572,0,0,1,2.288.614.527.527,0,0,1,.205.171A16.611,16.611,0,0,0,616.751,918.683Zm-3.006,2.835.034,2.6a5.894,5.894,0,0,0,.888-.341h.171q1.5,0,1.5.786a.792.792,0,0,1-.376.717q-.649.171-1.673.341a.137.137,0,0,1-.1.034,1.836,1.836,0,0,1-.41-.068l.034,2.8a2.5,2.5,0,0,0,.479-.1,7.489,7.489,0,0,0,1.4-.341.609.609,0,0,1,.273-.068,1.084,1.084,0,0,1,.547.137q.137-2.016.205-4,.033-1.5.034-2.733,0-.784-.547-.785A8.51,8.51,0,0,1,613.745,921.518Zm13.833-2.835a7.139,7.139,0,0,1,1.912.581q1.743.99,1.742,1.5c0,.227-.159.421-.478.58a25.8,25.8,0,0,0-4.133,4.816,1.107,1.107,0,0,0-.17.478c0,.046.057.091.17.136a6.95,6.95,0,0,1,1.811,1.128,9.313,9.313,0,0,1,1.639,1.639,5.613,5.613,0,0,1,.82,1.776,10.365,10.365,0,0,1,.205,2.153,7.416,7.416,0,0,1-.24,1.707,3.26,3.26,0,0,1-.887,1.332,1.552,1.552,0,0,1-.888.478.684.684,0,0,1-.513-.273q-1.843-1.776-3.279-3.04-.2-.136-.2-.2V933.3a11.85,11.85,0,0,0,2.356.443q.786,0,.786-.717a7.805,7.805,0,0,0-.888-3.211,10.361,10.361,0,0,0-2.186-2.7c-.136-.068-.205-.227-.205-.478a.9.9,0,0,1,.069-.341q1.023-2.289,1.6-3.894a4.6,4.6,0,0,0,.239-1.263q0-.24-.409-.24a1.553,1.553,0,0,0-.307.035,9.323,9.323,0,0,1-1.743.443,5.413,5.413,0,0,0-.41,2.494q0,11.306-.2,14.618a30.235,30.235,0,0,1-.615,5.6q-.582,2.186-1.093,2.185t-.649-2.288q-.307-.648-.307-21.347a5.641,5.641,0,0,0-.786-3.142q0-.239.513-.239a8.574,8.574,0,0,1,2.014.239,6.749,6.749,0,0,1,1.366.614,7.983,7.983,0,0,0,.889-.239,5.927,5.927,0,0,0,1.878-.99A.952.952,0,0,1,627.578,918.683Z" fill="#000000"/><path d="M683.523,929.34a24.856,24.856,0,0,1-3.141,4.2,6.427,6.427,0,0,1-4.577,2.221q-2.358,0-7.787-2.7-5.4-2.766-8.061-2.766-3.008,0-5.4,3.723l-.991-.581a17.866,17.866,0,0,1,2.938-4.645,6.841,6.841,0,0,1,4.952-1.879,9.807,9.807,0,0,1,3.962.82l9.393,3.928a6.749,6.749,0,0,0,2.323.751,4.973,4.973,0,0,0,3.142-1.127,14.144,14.144,0,0,0,2.254-2.6Z" fill="#000000"/></g><path d="M707.106,918.4l2.9.385,2.832-.385,2.308-.174v.593a2.955,2.955,0,0,0-3.147,2.1,18,18,0,0,0-.315,4.3v11.751q0,3.514.419,4.2c.42.734,1.644,1.119,3.673,1.119a14.331,14.331,0,0,0,5.386-.665c1.4-.664,2.343-2.063,2.8-4.266h.734a11.539,11.539,0,0,1-1.05,4.336l.316,1.014q0,1.1-2.939,1.05l-1.363-.035h-1.609c-.7,0-1.538,0-2.518-.035l-2.518-.105a21.154,21.154,0,0,1-3.462-.42l-2.378.385-2.344.175v-.6a2.972,2.972,0,0,0,2.763-1.154c.455-.735.7-2.8.7-6.12v-.664l.035-.63-.035-8.534c-.035-3.322-.245-5.35-.7-6.085a3,3,0,0,0-2.763-1.12v-.593Z" fill="#000000"/><path d="M740.3,929.415a9.015,9.015,0,0,1-.035,12.24,8.252,8.252,0,0,1-6.086,2.413,8.04,8.04,0,0,1-6.015-2.448,8.971,8.971,0,0,1-.035-12.205A8.247,8.247,0,0,1,734.211,927,8.141,8.141,0,0,1,740.3,929.415Zm-2.029,1.049a4.31,4.31,0,0,0-4.057-2.693,4.265,4.265,0,0,0-4.022,2.658,11.111,11.111,0,0,0-1.049,5.071c0,4.861,1.994,7.8,5.036,7.8a4.29,4.29,0,0,0,4.092-2.657,13.277,13.277,0,0,0,0-10.178Z" fill="#000000"/><path d="M749.251,923.189v4.722l4.371-.035-.035,1.224-4.336-.07-.07,7.869a11.923,11.923,0,0,0,.455,3.847,2.805,2.805,0,0,0,2.832,2.064,4.894,4.894,0,0,0,3.182-1.33l.385.456A6.4,6.4,0,0,1,751.209,944c-1.993,0-3.393-.7-4.127-2.134a10.955,10.955,0,0,1-.839-4.931v-.56l.1-7.344H743.48v-.769c2.693-.35,4.336-2.029,4.9-5.072Z" fill="#000000"/><path d="M773.7,927.106l-.175,2.9-.035,2.9v3.567c0,2.624.14,4.2.42,4.756a1.57,1.57,0,0,0,1.609.84l.42-.035.455-.1.1.7-1.679.385-1.993.279-.7.42-.84.455-.245-.07-.175-1.4-.069-1.573v-.56l-.141-.035a4.958,4.958,0,0,1-2.413,2.588,6.908,6.908,0,0,1-3.462.909,4.447,4.447,0,0,1-4.406-2.448,12.875,12.875,0,0,1-.84-5.351V934.94l-.035-1.119v-.7a8.253,8.253,0,0,0-.314-2.8,2.648,2.648,0,0,0-2.239-1.4V928.4l1.049-.1c1.749-.175,2.694-.245,2.8-.245l.8-.489.769-.56.175.244-.14,2.519-.035,3.392q-.053,5.926.839,7.764a3.055,3.055,0,0,0,2.973,1.643q4.512,0,4.511-5.77v-3.112l-.035-.7a7.906,7.906,0,0,0-.524-3.217,2.272,2.272,0,0,0-2.028-.84V928.4l1.888-.245,1.958-.1.6-.42.979-.629Z" fill="#000000"/><path d="M788.7,930.6l.105,1.329h-.63c-.419-2.763-1.644-4.127-3.707-4.127a3.178,3.178,0,0,0-2.133.665,2.524,2.524,0,0,0-.875,2.063c0,1.259,1.154,2.448,3.428,3.568a11.711,11.711,0,0,1,3.672,2.377,4.587,4.587,0,0,1-1.33,6.4,7.525,7.525,0,0,1-4.266,1.188,9.277,9.277,0,0,1-2.518-.349c-1.224-.315-1.818-.805-1.818-1.4l.034-.244.21-.455-.314-1.714-.071-1.433h.63a6.466,6.466,0,0,0,1.294,3.322,3.955,3.955,0,0,0,3.148,1.434,3.079,3.079,0,0,0,2.168-5.42,11.76,11.76,0,0,0-2.414-1.4,15.094,15.094,0,0,1-3.006-1.783,3.811,3.811,0,0,1-1.4-3.043,3.882,3.882,0,0,1,1.819-3.462A6.8,6.8,0,0,1,784.645,927a10.775,10.775,0,0,1,2.378.279q1.783.422,1.784,1.259a1.487,1.487,0,0,1-.071.385l-.209.42Z" fill="#000000"/><path d="M804.615,918.4l2.9.385,2.832-.385,2.308-.174v.593a2.955,2.955,0,0,0-3.147,2.1,18,18,0,0,0-.315,4.3v11.751q0,3.514.419,4.2c.42.734,1.644,1.119,3.673,1.119a14.335,14.335,0,0,0,5.386-.665c1.4-.664,2.343-2.063,2.8-4.266h.734a11.558,11.558,0,0,1-1.05,4.336l.316,1.014q0,1.1-2.939,1.05l-1.363-.035h-1.609c-.7,0-1.539,0-2.518-.035l-2.519-.105a21.167,21.167,0,0,1-3.462-.42l-2.377.385-2.344.175v-.6a2.97,2.97,0,0,0,2.762-1.154c.456-.735.7-2.8.7-6.12v-.664l.035-.63-.035-8.534c-.035-3.322-.245-5.35-.7-6.085a3,3,0,0,0-2.762-1.12v-.593Z" fill="#000000"/><path d="M836.022,937.6a15.616,15.616,0,0,0,.14,2.8c.245,1.189.77,1.784,1.644,1.784a1.969,1.969,0,0,0,.559-.07l.56-.315.314.455A5.507,5.507,0,0,1,835.673,944c-1.5,0-2.274-1.015-2.274-3.078a6.346,6.346,0,0,1-5.77,3.147,4.625,4.625,0,0,1-2.973-.874,3.224,3.224,0,0,1-1.26-2.762c0-1.994,2-3.568,5.946-4.722l1.329-.385a6.556,6.556,0,0,0,1.959-.8,2.486,2.486,0,0,0,.6-1.889,8.872,8.872,0,0,0-.42-3.217,2.586,2.586,0,0,0-2.623-1.5,2.535,2.535,0,0,0-2.728,2.588l.105.874a1.4,1.4,0,0,0,.139.49c.035.14.071.244.106.35l-.735.279-.63.07c-1.084,0-1.643-.524-1.643-1.539a3.335,3.335,0,0,1,2.063-3.007,7.913,7.913,0,0,1,3.778-.874,4.93,4.93,0,0,1,4.3,1.853,8.264,8.264,0,0,1,1.084,4.722Zm-5.385-1.4c-2.9.875-4.337,2.064-4.337,3.568,0,1.959.979,2.937,2.9,2.937a3.72,3.72,0,0,0,3.078-1.363,5.252,5.252,0,0,0,.945-3.288V935.4Z" fill="#000000"/><path d="M845.046,927.071l-.175,2.413-.035,1.61.105.034a6.1,6.1,0,0,1,6.05-3.986,4.477,4.477,0,0,1,4.407,2.413,13.278,13.278,0,0,1,.8,5.315v2.064a27.891,27.891,0,0,0,.141,4.022A2.5,2.5,0,0,0,859,943.194v.525h-1.084c-.175-.035-.42-.071-.77-.14l-1.993-.315-1.084.315-.875.175.106-2.064.07-2.9c.034-.489.034-.978.034-1.469a30.011,30.011,0,0,0-.314-5.49q-.788-3.254-3.568-3.253a3.853,3.853,0,0,0-3.426,1.854,7.159,7.159,0,0,0-1.015,3.917v2.9a27.274,27.274,0,0,0,.14,3.882,2.479,2.479,0,0,0,2.623,2.063v.525l-1.5-.105-2.658-.385-2.728.385-1.5.105v-.525a2.512,2.512,0,0,0,2.694-2.2,29.028,29.028,0,0,0,.139-4.057v-2.168a26.431,26.431,0,0,0-.139-3.917,2.462,2.462,0,0,0-2.694-1.994v-.524l1.993-.245,1.855-.14.7-.49.874-.524Z" fill="#000000"/><path d="M875.368,917.454l-.105,3.008-.034,3.042v16.368c.209,1.469.838,2.2,1.922,2.2l1.329-.139.106.593-1.854.455-1.994.28-.769.42-1.084.49-.175-.07-.175-1.224-.07-1.364a7.011,7.011,0,0,1-5.665,2.552,6.424,6.424,0,0,1-5.246-2.342,8.228,8.228,0,0,1-1.819-5.527,8.873,8.873,0,0,1,2.483-6.365,8.313,8.313,0,0,1,6.225-2.588,9.91,9.91,0,0,1,3.953.84v-3.218a18.371,18.371,0,0,0-.21-3.777c-.315-1.224-1.224-1.819-2.728-1.819l-.105-.524,4.126-.385.84-.524.874-.49Zm-7.274,10.7a4.663,4.663,0,0,0-4.826,3.778,9.3,9.3,0,0,0-.385,2.728,10.55,10.55,0,0,0,1.259,5.211,4.673,4.673,0,0,0,4.231,2.8,3.933,3.933,0,0,0,4.023-2.658v-9.723A5.118,5.118,0,0,0,868.094,928.155Z" fill="#000000"/><path d="M906.95,918.328a4.3,4.3,0,0,1-.07.455,4.562,4.562,0,0,0-.175.489,6.045,6.045,0,0,1-.454.98l.244,1.889.07,1.538h-.8q-.629-4.93-5.771-4.931a4.876,4.876,0,0,0-3.427,1.189,4.138,4.138,0,0,0-1.434,3.288,4.853,4.853,0,0,0,2.134,3.917,21.607,21.607,0,0,0,4.091,2.273,20.152,20.152,0,0,1,4.652,2.692,6.148,6.148,0,0,1,2.168,4.722,6.388,6.388,0,0,1-2.728,5.525,10.211,10.211,0,0,1-6.12,1.75,13.881,13.881,0,0,1-3.987-.666l-2.378-.7a.9.9,0,0,0-.874.595l-.665-.14c.07-.314.28-.909.6-1.784a2.026,2.026,0,0,1,.245-.454l-.281-1.924-.069-1.643h.734a6.641,6.641,0,0,0,6.959,5.84,6.029,6.029,0,0,0,3.848-1.224,4.158,4.158,0,0,0,1.714-3.532,5.188,5.188,0,0,0-2.134-4.267,25.75,25.75,0,0,0-4.476-2.413,17.559,17.559,0,0,1-4.337-2.623,5.8,5.8,0,0,1-1.993-4.441,6.2,6.2,0,0,1,2.413-5.176,8.709,8.709,0,0,1,5.56-1.714,20.354,20.354,0,0,1,3.532.385l1.924.349.42-.105c.105-.034.175-.14.244-.315Z" fill="#000000"/><path d="M915.239,923.189v4.722l4.372-.035-.035,1.224-4.337-.07-.069,7.869a11.985,11.985,0,0,0,.454,3.847,2.807,2.807,0,0,0,2.833,2.064,4.9,4.9,0,0,0,3.183-1.33l.384.456A6.4,6.4,0,0,1,917.2,944c-1.994,0-3.392-.7-4.127-2.134a10.967,10.967,0,0,1-.84-4.931v-.56l.106-7.344h-2.868v-.769c2.693-.35,4.337-2.029,4.9-5.072Z" fill="#000000"/><path d="M938.287,929.415a9.015,9.015,0,0,1-.035,12.24,8.247,8.247,0,0,1-6.085,2.413,8.044,8.044,0,0,1-6.016-2.448,8.971,8.971,0,0,1-.035-12.205A8.252,8.252,0,0,1,932.2,927,8.138,8.138,0,0,1,938.287,929.415Zm-2.028,1.049a4.309,4.309,0,0,0-4.057-2.693,4.265,4.265,0,0,0-4.022,2.658,11.1,11.1,0,0,0-1.049,5.071c0,4.861,1.993,7.8,5.036,7.8a4.289,4.289,0,0,0,4.092-2.657,13.277,13.277,0,0,0,0-10.178Z" fill="#000000"/><path d="M947.137,927.071l-.175,2.449-.106,3.217.316.035c1.014-3.637,2.517-5.456,4.581-5.456a2.575,2.575,0,0,1,1.539.455,1.593,1.593,0,0,1,.734,1.329c0,.7-.455,1.189-1.329,1.5a2.51,2.51,0,0,0-1.924-1.12c-1.329,0-2.307,1.05-2.9,3.183a17.776,17.776,0,0,0-.6,4.722,15.549,15.549,0,0,0,.315,4.056c.42,1.155,1.469,1.749,3.113,1.749v.525h-1.329c-.77-.105-1.924-.245-3.5-.49l-2.378.35-1.783.14v-.525a2.48,2.48,0,0,0,2.623-2.1,26.464,26.464,0,0,0,.14-3.847v-2.483a26.359,26.359,0,0,0-.14-3.917,2.462,2.462,0,0,0-2.693-1.994v-.524l1.923-.28,1.819-.105.734-.525.84-.489Z" fill="#000000"/><path d="M953.606,927.421c.35.07.6.1.7.141l2.448.349.141-.035,3.881-.455v.525a2.127,2.127,0,0,0-1.294.419,1.034,1.034,0,0,0-.315.84,5.421,5.421,0,0,0,.56,1.993l4.232,9.863,2.623-6.4a14.693,14.693,0,0,0,1.294-5,1.5,1.5,0,0,0-.455-1.259,2.689,2.689,0,0,0-1.573-.454l-.036-.525h1.049c.6.1,1.434.245,2.588.49l1.61-.28,1.712-.21v.525c-1.468,0-3.532,3.077-6.155,9.233l-1.363,3.112-.665,1.5c-3.776,8.289-6.609,12.451-8.533,12.451-1.155,0-1.749-.525-1.749-1.574l.1-.6.35-.734.8.314.77.106c1.923,0,3.637-1.679,5.141-5l.979-2.134-2.063-4.9-2.694-6.12a17.538,17.538,0,0,0-2.448-4.441,3.851,3.851,0,0,0-2.553-1.224v-.525Z" fill="#000000"/></g></svg>
