<svg xmlns="http://www.w3.org/2000/svg" width="1000" height="988" viewBox="0 0 1000 988"><g id="Artboard"><rect id="Tint" width="1000" height="988" fill="#58595b"/></g><g id="Outline"><g id="東方文花帖"><path d="M714.035,503.464a2.8,2.8,0,0,1-1.25-.28,1.657,1.657,0,0,1-.227-.132,3.166,3.166,0,0,1-1.323-2.824V497a40.436,40.436,0,0,1-3.944,2.758,47.064,47.064,0,0,1-7.5,3.376,2,2,0,0,1-.395.1,4.11,4.11,0,0,1-.568.043,2.207,2.207,0,0,1-2.145-1.341,2.353,2.353,0,0,1,.732-2.682,2,2,0,0,1,.4-.307,33.52,33.52,0,0,0,7.172-5.593,6.552,6.552,0,0,1-.682.038,3.53,3.53,0,0,1-2.113-.606,2.794,2.794,0,0,1-1.142-2.3V476.327h-2.365a2,2,0,0,1-1.838-1.212l-.437-1.019a2,2,0,0,1,1.838-2.788h12.987v-3.82a2,2,0,0,1,2.256-1.984l4.511.582a2.01,2.01,0,0,1,.334.073c1.757.542,2.275,1.556,2.4,2.311a2.918,2.918,0,0,1-1.357,2.838h5.5l1.729-2.377a2,2,0,0,1,2.867-.386l3.637,2.911a2.807,2.807,0,0,1,1.189,2.929,2.69,2.69,0,0,1-2.337,1.9,2.06,2.06,0,0,1-.392.039h-3.535l1.335,1.129c.043.037.085.075.125.116a2.878,2.878,0,0,1,.884,2.148,3.153,3.153,0,0,1-1.028,2.141v7.453a3.022,3.022,0,0,1-1.614,2.769,5.013,5.013,0,0,1-1.479.573q.534.248,1.107.475c2.354.944,4.349,1.657,5.933,2.122a2,2,0,0,1,.367,3.689,7.637,7.637,0,0,0-3.262,2.994,2,2,0,0,1-2.637.808,27.906,27.906,0,0,1-8.147-6.113c-.2-.213-.4-.438-.6-.671v3.686c0,.96-.4,3.232-4.123,3.717A3.933,3.933,0,0,1,714.035,503.464Z" fill="#fff"/><path d="M713.235,467.488l4.511.582q1.89.582.291,1.746l-1.018.436v3.056H725.9l2.328-3.2,3.637,2.91q1.164,1.02-.291,1.31h-14.55v3.637h6.111l1.164-2.182,3.783,3.2q.727.729-.291,1.6l-.436.292v8.439a1.045,1.045,0,0,1-.582,1.019,3.059,3.059,0,0,1-1.6.436,4.537,4.537,0,0,1-.684.059q-1.207,0-1.208-.932v-1.6H717.6a22.377,22.377,0,0,0,4.074,3.929,19.888,19.888,0,0,0,4.947,2.765q3.636,1.457,6.111,2.183a9.657,9.657,0,0,0-4.074,3.783,25.819,25.819,0,0,1-7.566-5.675,29.985,29.985,0,0,1-4.074-5.821v10.187q0,1.452-2.474,1.746a2.207,2.207,0,0,1-.51.071.83.83,0,0,1-.363-.071,1.312,1.312,0,0,1-.437-1.164v-7.567a35.509,35.509,0,0,1-14.114,8.585,2.1,2.1,0,0,1-.289.024q-.611,0,0-.606a34.816,34.816,0,0,0,8.44-6.839,33.691,33.691,0,0,0,4.074-5.53h-4.22v1.6q0,1.02-1.455,1.31a6.492,6.492,0,0,1-1.364.179q-1.255,0-1.255-.907V476.073l4.22,1.891h5.965v-3.637h-14.55l-.437-1.019h14.987v-5.82m3.784,15.133h6.256v-3.638h-6.256v3.638m-9.895,0h6.111v-3.638h-6.111v3.638m9.895,4.656h6.256v-3.638h-6.256v3.638m-9.895,0h6.111v-3.638h-6.111v3.638m6.111-23.789a4,4,0,0,0-4,4v1.82H698.248a4,4,0,0,0-3.677,5.576l.437,1.018a4,4,0,0,0,3.677,2.425h.365v12.151a4.834,4.834,0,0,0,1.9,3.868,33.333,33.333,0,0,1-4.146,2.871,3.993,3.993,0,0,0-.793.613,4.356,4.356,0,0,0-1.169,4.862,4.211,4.211,0,0,0,3.994,2.578,6.088,6.088,0,0,0,.847-.063,4.043,4.043,0,0,0,.789-.194,49.064,49.064,0,0,0,7.768-3.5l.094-.056q.465-.283.935-.589a5.026,5.026,0,0,0,2.178,3.84,4.046,4.046,0,0,0,.455.264,4.772,4.772,0,0,0,2.137.486,5.9,5.9,0,0,0,1.2-.128c3.666-.508,5.3-2.6,5.689-4.687a30.485,30.485,0,0,0,5.942,3.885,4,4,0,0,0,5.276-1.618,5.716,5.716,0,0,1,2.448-2.2,4,4,0,0,0-.734-7.379c-.96-.282-2.083-.661-3.356-1.133a5.186,5.186,0,0,0,.846-2.887v-6.709a4.956,4.956,0,0,0,1.026-2.807,4.723,4.723,0,0,0-.189-1.519l.165-.03a4.674,4.674,0,0,0,3.878-3.348,4.73,4.73,0,0,0-1.733-4.892c-.045-.039-.091-.078-.138-.115l-3.638-2.911a4,4,0,0,0-5.733.771l-1.13,1.554h-1.107a4.534,4.534,0,0,0-.041-1.166,4.915,4.915,0,0,0-3.785-3.894,3.909,3.909,0,0,0-.667-.145l-4.511-.582a4.012,4.012,0,0,0-.512-.033Z" fill="#fff"/><path d="M755.938,503.864a2.881,2.881,0,0,1-2.968-2.713c-.024-.28-.048-.5-.07-.663l-3.928-1.965a1.937,1.937,0,0,1-.384-.251,3.1,3.1,0,0,1-.813-.987,23.069,23.069,0,0,1-6.055,4.159c-3.519,1.757-4.653,2.049-5.338,2.088a2.885,2.885,0,0,1-.4.029,2.275,2.275,0,0,1-1.925-.987,2.442,2.442,0,0,1-.154-2.367,2.009,2.009,0,0,1,.873-1,25.4,25.4,0,0,0,3.777-2.559,16.9,16.9,0,0,0,6.173-9.4,41.5,41.5,0,0,0,1.072-8.159H735.462a2,2,0,0,1-1.736-1.008l-.582-1.018a2,2,0,0,1,1.736-2.992h12.114v-6.585a2,2,0,0,1,2-2,1.929,1.929,0,0,1,.338.029l5.093.873a2.006,2.006,0,0,1,.407.115,2.975,2.975,0,0,1,2.01,2.162,3.069,3.069,0,0,1-1.05,2.854,2,2,0,0,1-.442.334l-.282.156v2.062h6.37l2.166-2.621a2,2,0,0,1,2.769-.305L770.3,474.2a1.753,1.753,0,0,1,.188.167,2.722,2.722,0,0,1,.9,2.821,2.77,2.77,0,0,1-2.361,1.862,2.048,2.048,0,0,1-.391.038H762.4c.028.025,4.011,4.007,4.011,4.007a2.824,2.824,0,0,1,.879,2.238,3.07,3.07,0,0,1-1.41,2.251,46.686,46.686,0,0,1-1.131,7.183,13.517,13.517,0,0,1-3.963,6.961,9.308,9.308,0,0,1-2.8,1.678A5.583,5.583,0,0,1,755.938,503.864Zm-5.489-9.856a2.036,2.036,0,0,1,.348.03,40.957,40.957,0,0,0,4.854.555,2.018,2.018,0,0,1,.424.069,10.129,10.129,0,0,0,.983-3.616c.238-1.675.421-3.194.547-4.534h-4.323a22.293,22.293,0,0,1-2.833,7.5Zm7.743-12.514,1.164-1.939a2.026,2.026,0,0,1,.383-.464h-5.572l-.218,2.4Z" fill="#fff"/><path d="M748.994,467.488l5.093.873q1.454.584.291,1.746l-1.31.727v5.239h9.313l2.765-3.347,3.928,3.056q1.017,1.019-.436,1.309h-16.3q-.293,3.2-.582,6.4h7.566l1.746-2.911L765,484.512q.726.731-.291,1.455l-.728.437a49.177,49.177,0,0,1-1.164,7.857,11.537,11.537,0,0,1-3.346,5.967,7.29,7.29,0,0,1-2.183,1.309,3.818,3.818,0,0,1-1.35.327.888.888,0,0,1-.978-.909c-.1-1.164-.243-1.8-.437-1.892l-4.656-2.328q-.873-.726.582-.727a42.813,42.813,0,0,0,5.093.582,2.056,2.056,0,0,0,.571.084,2.033,2.033,0,0,0,1.321-.521q1.015-1.016,1.6-4.8.581-4.072.728-6.839h-8.149a21.383,21.383,0,0,1-3.055,8.731,18.927,18.927,0,0,1-7.712,6.4q-3.786,1.888-4.657,1.891a1.1,1.1,0,0,1-.213.024q-.468,0-.223-.606a27.241,27.241,0,0,0,4.074-2.765,18.967,18.967,0,0,0,6.839-10.477,45.152,45.152,0,0,0,1.164-10.622H735.462l-.582-1.018h14.114v-8.585m0-4a4,4,0,0,0-4,4v4.585H734.88a4,4,0,0,0-3.473,5.984l.582,1.019a4,4,0,0,0,3.473,2.015h8.208a37.118,37.118,0,0,1-.892,5.681,14.957,14.957,0,0,1-5.471,8.312l-.039.032a23.441,23.441,0,0,1-3.477,2.353,4,4,0,0,0-1.748,1.99,4.449,4.449,0,0,0,.351,4.234,4.3,4.3,0,0,0,3.582,1.868,4.876,4.876,0,0,0,.61-.039c1.11-.085,2.579-.567,6.046-2.3a25.982,25.982,0,0,0,5.02-3.158,3.908,3.908,0,0,0,.425.246l2.964,1.483a4.842,4.842,0,0,0,4.9,4.069,7.575,7.575,0,0,0,2.8-.6,11.3,11.3,0,0,0,3.338-2,15.492,15.492,0,0,0,4.617-8,45.543,45.543,0,0,0,1.1-6.676,4.744,4.744,0,0,0,.042-6.9l-.6-.6h1.4a4.036,4.036,0,0,0,.783-.077,4.6,4.6,0,0,0,2.486-8.057,4.253,4.253,0,0,0-.377-.333l-3.929-3.055a4,4,0,0,0-5.539.61l-1.565,1.894h-2.559a4.822,4.822,0,0,0,.863-3.807,4.942,4.942,0,0,0-3.225-3.618,4.03,4.03,0,0,0-.813-.23l-5.093-.873a4.058,4.058,0,0,0-.676-.057Zm5.882,25.024h.5q-.13,1.077-.3,2.275c-.116.753-.234,1.32-.338,1.739q-.594-.046-1.18-.112a25.805,25.805,0,0,0,1.32-3.9Z" fill="#fff"/><path d="M772.285,503.444a2.231,2.231,0,0,1-2.306-1.585c-.472-1.7,1.152-2.677,2.024-3.2a2.056,2.056,0,0,1,.355-.168,33.45,33.45,0,0,0,7-3.43,29.66,29.66,0,0,0,5.119-4.206,33.461,33.461,0,0,1-2.981-5.618,30.776,30.776,0,0,1-1.734-6.145h-6.587a2,2,0,0,1-1.838-1.212l-.437-1.019a2,2,0,0,1,1.838-2.787H785v-6.44a2,2,0,0,1,2-2,2.037,2.037,0,0,1,.233.014l4.948.582a2.009,2.009,0,0,1,.511.13,3.021,3.021,0,0,1,1.992,2.11,3.24,3.24,0,0,1-.951,2.966,1.926,1.926,0,0,1-.368.324v2.314h4.612l2.455-3.04a2,2,0,0,1,1.428-.74c.042,0,.085,0,.127,0a2,2,0,0,1,1.384.556l3.492,3.346c.043.041.084.085.124.13a2.93,2.93,0,0,1,.815,2.937,2.734,2.734,0,0,1-2.181,1.785,2.036,2.036,0,0,1-.433.047h-5.644a61.074,61.074,0,0,1-2.574,6.976,31.954,31.954,0,0,1-2.455,4.44,29.126,29.126,0,0,0,4.537,2.173,36.546,36.546,0,0,0,7.764,2.081,2,2,0,0,1,.9,3.564,13.713,13.713,0,0,0-3.557,4.068,2,2,0,0,1-2.488.85c-2.182-.892-4.441-1.947-6.717-3.134a30.86,30.86,0,0,1-5.636-3.76c-3.944,3.2-9.317,5.55-16.005,7-.047.009-.094.018-.142.025A6.481,6.481,0,0,1,772.285,503.444Zm12.93-24.353a27.654,27.654,0,0,0,1.375,3.037,20.567,20.567,0,0,0,1.887,2.957q.555-1.186,1.012-2.429a33.933,33.933,0,0,0,1.01-3.565Z" fill="#fff"/><path d="M787,467.633l4.947.582q1.454.584.291,1.892l-.873.582v5.384h7.567l3.055-3.783,3.492,3.346q1.017,1.167-.291,1.455H798.06a63.436,63.436,0,0,1-2.911,8.149,28.912,28.912,0,0,1-3.492,5.82,31.432,31.432,0,0,0,6.694,3.492,38.2,38.2,0,0,0,8.148,2.183,15.64,15.64,0,0,0-4.074,4.657q-3.2-1.31-6.548-3.056a28.549,28.549,0,0,1-6.548-4.657q-5.674,5.387-16.442,7.713a4.459,4.459,0,0,1-.6.052q-1.041,0,.746-1.071a35.288,35.288,0,0,0,7.421-3.638A30.963,30.963,0,0,0,787,491.06a36.2,36.2,0,0,1-3.638-6.548,30.565,30.565,0,0,1-1.891-7.421h-8.294l-.437-1.018H787v-8.44m5.966,9.458H782.49a26.943,26.943,0,0,0,2.328,5.966,22.567,22.567,0,0,0,4.075,5.529,32.479,32.479,0,0,0,2.473-5.238,44.617,44.617,0,0,0,1.6-6.257M787,463.633a4,4,0,0,0-4,4v4.44h-10.26a4,4,0,0,0-3.676,5.575l.436,1.019a4,4,0,0,0,3.677,2.424h4.953a30.663,30.663,0,0,0,3.808,9.449,28.362,28.362,0,0,1-3.675,2.847,31.389,31.389,0,0,1-6.579,3.22,4.015,4.015,0,0,0-.711.336c-.94.564-3.8,2.281-2.923,5.45a4.217,4.217,0,0,0,4.235,3.051,8.319,8.319,0,0,0,1.164-.092q.142-.021.282-.051a41.558,41.558,0,0,0,15.555-6.415,33.058,33.058,0,0,0,4.746,3c2.323,1.212,4.639,2.292,6.878,3.208a4,4,0,0,0,4.976-1.7,11.6,11.6,0,0,1,3.039-3.479,4,4,0,0,0-1.791-7.129,34.379,34.379,0,0,1-7.3-1.947l-.083-.032q-1.228-.461-2.427-1.052.791-1.38,1.463-2.86a57.991,57.991,0,0,0,2.214-5.8h4.184a3.993,3.993,0,0,0,.865-.094,4.724,4.724,0,0,0,3.649-3.113,4.875,4.875,0,0,0-1.208-4.876c-.078-.09-.161-.177-.247-.26l-3.492-3.346a4,4,0,0,0-2.767-1.112c-.085,0-.17,0-.255.008a4,4,0,0,0-2.857,1.478l-1.855,2.3h-1.249a4.881,4.881,0,0,0-2.335-7.57,3.977,3.977,0,0,0-1.022-.26l-4.948-.582a3.862,3.862,0,0,0-.467-.028Z" fill="#fff"/><path d="M816.988,503.55a2.982,2.982,0,0,1-2.964-3.322V494.9c-.435.329-.864.628-1.283.9l-1.016.635a4.139,4.139,0,0,1-.826.588,2.844,2.844,0,0,1-1.482.474,2.1,2.1,0,0,1-1.841-1.057c-.691-1.2.032-2.444.464-3.185a1.978,1.978,0,0,1,.383-.472,18.264,18.264,0,0,0,2.492-2.752,37.458,37.458,0,0,0,5.894-11.536,3.1,3.1,0,0,1-.165-.965v-1.2h-7.167a2,2,0,0,1-1.838-1.213L807.2,474.1a2,2,0,0,1,1.838-2.788h7.6v-3.82a2,2,0,0,1,2-2,1.8,1.8,0,0,1,.206.011l4.219.436a2.073,2.073,0,0,1,.311.057c1.536.41,2.416,1.2,2.616,2.344a3.027,3.027,0,0,1-1.492,2.972h3.2v-3.675a2,2,0,0,1,2-2c.043,0,.086,0,.129,0l4.511.292a1.986,1.986,0,0,1,.359.056A2.665,2.665,0,0,1,836.7,467.7a3.181,3.181,0,0,1-.757,3.054,1.971,1.971,0,0,1-.453.426v.131h.793l1.728-2.267a2,2,0,0,1,2.753-.416l4.074,2.91a2.629,2.629,0,0,1,1.267,2.783c-.172.725-.746,1.657-2.509,1.976a1.936,1.936,0,0,1-.357.033h-7.755a3.087,3.087,0,0,1-1.324,2.576c-.054.036-.11.072-.169.106l0,.019a3.118,3.118,0,0,1-.891,2.872,2.088,2.088,0,0,1-.379.336v2a30.332,30.332,0,0,0,4.215-4.943,2,2,0,0,1,2.842-.459l3.493,2.619c.044.034.087.069.129.106a2.966,2.966,0,0,1,1.179,2.9,3.06,3.06,0,0,1-2.314,2.242c-.048.016-.1.03-.146.043l-.878.219a38.145,38.145,0,0,1-5.121,2.607c-.9.378-2.028.782-3.4,1.219v4.44c.235.009.544.016.946.016q1.167,0,2.939-.071a2,2,0,0,0,1-.151c.043-.043.081-.077.128-.116a13.862,13.862,0,0,0,1.573-3.628c.015-.045.032-.09.051-.133.517-1.207,1.225-2.858,2.869-2.858.851,0,2.279.417,2.279,3.209a1.836,1.836,0,0,1-.013.222q-.147,1.322-.293,2.5a2.22,2.22,0,0,1-.045.241,1.541,1.541,0,0,0-.064.891h0a.387.387,0,0,0,.1.069,2.055,2.055,0,0,1,.246.158,3.262,3.262,0,0,1,1.377,2.5,3.737,3.737,0,0,1-2.562,3.867,9.9,9.9,0,0,1-3.8.581c-1.892.095-5.059.145-9.312.145a6.9,6.9,0,0,1-3.871-.916c-1.049-.625-1.622-1.936-1.622-3.849V483.245a5.162,5.162,0,0,1-.825.549c-.055.03-.112.058-.17.083l-.367.157q-.37.672-.817,1.366a2.892,2.892,0,0,1-.659,3.288v10.958a3.2,3.2,0,0,1-1.681,3.094,8.283,8.283,0,0,1-2.689.781A3.617,3.617,0,0,1,816.988,503.55Zm7.2-24.826a3.911,3.911,0,0,1,.46.308V478.4a2,2,0,0,1,2-2,1.937,1.937,0,0,1,.241.015l.815.1v-.187h-3.275v.764a2.938,2.938,0,0,1-.411,1.525Z" fill="#fff"/><path d="M818.644,467.488l4.219.436q2.182.584.291,1.892l-.727.291v3.2H829.7v-5.675l4.511.291q1.163.294.145,1.6l-.873.582v3.2h3.784l2.328-3.056,4.074,2.911q1.162.873-.437,1.164h-9.749v1.746a1.309,1.309,0,0,1-.436,1.164,3.981,3.981,0,0,1-1.6.436,4.184,4.184,0,0,1-.691.066q-1.054,0-1.055-.793v-2.619h-7.275v2.764q0,.73-.873,1.019a6.526,6.526,0,0,1-1.6.291l3.2,2.037q1.31.729-.291,1.6l-1.018.436a22.047,22.047,0,0,1-1.892,3.056l.291.145q.873.873.146,1.6l-.582.291v12.078c0,.677-.2,1.114-.582,1.309a6.3,6.3,0,0,1-2.038.582,1.548,1.548,0,0,1-.2.013q-.965,0-.964-1.322v-9.75a26.946,26.946,0,0,1-4.365,3.638l-1.164.727a2.225,2.225,0,0,1-.582.437,1.152,1.152,0,0,1-.5.215q-.367,0,.352-1.234a20.2,20.2,0,0,0,2.764-3.055,39.659,39.659,0,0,0,6.4-12.805,2.19,2.19,0,0,1-.291-.873v-3.2h-9.167l-.437-1.019h9.6v-5.82m8,10.913,4.8.582q1.164.436.146,1.6l-.873.583V488.3a27.469,27.469,0,0,0,7.857-7.857l3.492,2.619q1.309,1.165-.436,1.746l-1.164.291a36.822,36.822,0,0,1-5.093,2.619,49.184,49.184,0,0,1-4.656,1.6v6.548a1.183,1.183,0,0,0,1.164,1.31,15.619,15.619,0,0,0,1.782.073q1.2,0,3.02-.073a3.185,3.185,0,0,0,2.328-.728q.873-.726,2.182-4.511.705-1.645,1.031-1.645.279,0,.279,1.209-.147,1.31-.291,2.473-.584,2.329,1.018,3.2a1.263,1.263,0,0,1,.582,1.018,1.743,1.743,0,0,1-1.309,1.892,8.153,8.153,0,0,1-3.056.437q-2.912.142-9.312.145a5.108,5.108,0,0,1-2.765-.582q-.729-.437-.728-2.183V478.4m-8-14.913a4,4,0,0,0-4,4v1.82h-5.6a4,4,0,0,0-3.677,5.576l.437,1.018a4,4,0,0,0,3.677,2.425h5.234c0,.03.01.06.016.09a34.917,34.917,0,0,1-5.353,10.334c-.026.033-.051.067-.076.1a16.312,16.312,0,0,1-2.22,2.449,3.957,3.957,0,0,0-.765.944c-.521.892-1.74,2.98-.471,5.19a4.129,4.129,0,0,0,3.574,2.06,4.764,4.764,0,0,0,2.476-.737c.045-.024.089-.049.132-.074v1.544a4.979,4.979,0,0,0,4.964,5.322,5.553,5.553,0,0,0,.689-.043,10.309,10.309,0,0,0,3.337-.974,5.008,5.008,0,0,0,2.489-2.9,5.037,5.037,0,0,0,1.726,1.821,8.842,8.842,0,0,0,4.91,1.206c4.219,0,7.385-.049,9.413-.146a11.568,11.568,0,0,0,4.487-.741,5.705,5.705,0,0,0,3.771-5.836,5.215,5.215,0,0,0-1.622-3.5q.145-1.176.294-2.5a3.874,3.874,0,0,0,.025-.444,5.314,5.314,0,0,0-1.456-4.094,4.62,4.62,0,0,0,1.487-2.54,4.913,4.913,0,0,0-1.808-4.793c-.083-.075-.17-.146-.26-.213l-2.04-1.53h.8a3.967,3.967,0,0,0,.714-.065,4.694,4.694,0,0,0,4.1-3.484,4.549,4.549,0,0,0-1.974-4.814l-.076-.056L841.922,467a4,4,0,0,0-3.586-.542,4.76,4.76,0,0,0-3.146-2.411,3.981,3.981,0,0,0-.72-.112l-4.51-.291q-.129-.009-.258-.009a4,4,0,0,0-3.267,1.692,6.366,6.366,0,0,0-2.539-1.265,3.875,3.875,0,0,0-.621-.114l-4.22-.437a4.06,4.06,0,0,0-.412-.021Zm18.248,27.928.287-.117c-.337.924-.593,1.516-.767,1.881-.622.024-1.187.042-1.69.053v-1c.817-.282,1.536-.553,2.17-.817Z" fill="#fff"/><path d="M863.657,503.409a2.6,2.6,0,0,1-2.1-1.019,3.038,3.038,0,0,1-.57-1.871v-5.487a6.733,6.733,0,0,1-2.231.773,2.012,2.012,0,0,1-.279.019c-.062,0-.123,0-.183,0v4.262c0,1.329-.809,2.957-4.659,3.161-.035,0-.071,0-.106,0a2.638,2.638,0,0,1-2.727-2.727v-4.792a8.646,8.646,0,0,1-2.256.385c-.036,0-.073,0-.109,0a2.75,2.75,0,0,1-2.874-2.873V473.89a2,2,0,0,1,2.838-1.816l2.4,1.108v-5.549a2,2,0,0,1,2-2,2.075,2.075,0,0,1,.293.022l3.928.582a2.019,2.019,0,0,1,.411.106,2.736,2.736,0,0,1,1.861,1.979,2.928,2.928,0,0,1-1,2.759v.67a2.018,2.018,0,0,1,.423-.123,2.078,2.078,0,0,1,.342-.029,2,2,0,0,1,1.3.482l3.056,2.619a2.878,2.878,0,0,1,1.13,2.514,2.768,2.768,0,0,1-1.014,1.845v1.783a1.993,1.993,0,0,1,.4.161l2.439,1.307V467.633a2,2,0,0,1,2-2,1.953,1.953,0,0,1,.34.03l4.22.727a2.041,2.041,0,0,1,.294.074,2.932,2.932,0,0,1,2.293,2.316,2.815,2.815,0,0,1-1.364,2.729v2.564h.422l1.444-2.165a2,2,0,0,1,1.442-.879,2.064,2.064,0,0,1,.222-.012,2,2,0,0,1,1.379.552l3.055,2.91a1.573,1.573,0,0,1,.158.169,2.7,2.7,0,0,1,.659,2.617,2.645,2.645,0,0,1-1.938,1.75,2.038,2.038,0,0,1-.549.076h-6.294v3.165l.193-.337a2,2,0,0,1,2.993-.563l3.745,3.025a2.639,2.639,0,0,1,1.214,2.44,2.566,2.566,0,0,1-1.16,1.864v10.378c0,.815-.344,2.753-3.509,3.274a5.184,5.184,0,0,1-1.11.108,10.423,10.423,0,0,1-1.264-.087,2.038,2.038,0,0,1-.392-.088,2.616,2.616,0,0,1-1.775-2.225h-4.027v.037c0,2.618-3.456,3.09-4.931,3.291A2.974,2.974,0,0,1,863.657,503.409Zm9.406-8.383v-7.059h-4v7.059Z" fill="#fff"/><path d="M868.37,467.633l4.22.728q1.746.584.291,1.6l-.728.291v5.821h3.493l2.037-3.056,3.055,2.91q.727.873-.291,1.164h-8.294v7.858h2.765l1.164-2.037,3.783,3.055q1.017.731-.291,1.31l-.436.145v11.641q0,1.017-1.892,1.31a3.1,3.1,0,0,1-.728.072,8.422,8.422,0,0,1-1.018-.072.674.674,0,0,1-.437-.727v-1.6h-8v2.037q0,.873-3.2,1.31a1.342,1.342,0,0,1-.2.017q-.671,0-.671-.89V482.766l4.075,2.183h1.309V467.633m-1.309,29.393h8V485.967h-8v11.059M852.8,467.633l3.928.582q1.164.436.146,1.455l-.582.291v5.675h1.6l1.164-2.037,3.055,2.619q1.017.873-.291,1.6l-.291.145v12.951q0,1.455-.727,1.891a5.87,5.87,0,0,1-2.328,1.019q-.873,0-.873-.582.579-1.017-1.31-1.892v8.731q0,1.017-2.765,1.164a.642.642,0,0,1-.727-.727V476.655h-1.746v16.3q0,1.018-2.619,1.164a.772.772,0,0,1-.874-.873V473.89l3.784,1.746H852.8v-8m3.492,22.7h.728c.677,0,1.018-.194,1.018-.583v-13.1h-1.746v13.678m12.077-26.7a4,4,0,0,0-4,4v5.251l-2.709-2.322a4.015,4.015,0,0,0-.513-.373,4.55,4.55,0,0,0,.1-2.29,4.764,4.764,0,0,0-3.113-3.429,3.991,3.991,0,0,0-.819-.211l-3.929-.583a4.126,4.126,0,0,0-.586-.043,4,4,0,0,0-4,4v2.454a4,4,0,0,0-5.239,3.8v19.353a4.766,4.766,0,0,0,4.874,4.873c.073,0,.146,0,.218-.006l.147-.009v2.418a4.623,4.623,0,0,0,4.727,4.727c.071,0,.142,0,.212-.006,3.245-.172,4.9-1.272,5.736-2.469a4.547,4.547,0,0,0,4.181,2.638,5.327,5.327,0,0,0,.781-.059c1.388-.19,4.989-.7,6.21-3.305h1.023a4.564,4.564,0,0,0,2.556,2.12,3.981,3.981,0,0,0,.783.178,12.4,12.4,0,0,0,1.508.1A7.163,7.163,0,0,0,878,504.3c4.885-.827,5.135-4.5,5.135-5.239v-9.484a4.455,4.455,0,0,0,1.149-2.553,4.623,4.623,0,0,0-1.976-4.225l-2.117-1.71h.253a4,4,0,0,0,1.1-.153,4.566,4.566,0,0,0,2.268-7.569,3.887,3.887,0,0,0-.316-.338l-3.056-2.91a4,4,0,0,0-2.758-1.1c-.048,0-.1,0-.145,0a4.2,4.2,0,0,0-.042-.528,4.855,4.855,0,0,0-3.639-3.925,3.953,3.953,0,0,0-.588-.148l-4.219-.728a4,4,0,0,0-.68-.058Zm2.691,26.334h0v3.059h0v-3.059Z" fill="#fff"/></g></g><g id="Text"><g id="ダブルスポイラー"><path d="M266.359,410.159a124,124,0,0,1-6.123,37.866q-6.767,21.432-18.208,33.838-16.6,17.886-46.567,29-26.267,9.505-48.662,9.507l-.161-2.1q19.819-4.512,43.344-19.5,23.686-14.661,34.644-30.293Q243,443.193,243,404.036a9.293,9.293,0,0,0-4.673-8.379,12.886,12.886,0,0,0-7.734-2.578h-31.26q-4.191,0-11.279,3.384-7.251,3.225-9.346,6.123-2.58,7.251-9.668,20.464,7.251,0,18.208,4.028,11.439,4.676,18.369,10.8a25.394,25.394,0,0,1,5.64,6.929q3.06,4.833,3.061,7.895a12.324,12.324,0,0,1-3.222,8.863,9.038,9.038,0,0,1-7.573,3.544q-7.576,0-14.986-16.757a57.817,57.817,0,0,0-9.184-13.7q-6.768-7.088-12.569-8.862-16.114,22.4-43.989,32.549l-.644-.967q18.369-16.756,26.748-33.193,9.184-17.886,9.184-39.961,0-6.927-8.862-8.057v-2.417l35.449-5.317q-.324,7.9-3.384,24.975,8.7-5.637,21.753-5.639h36.738Q266.36,387.762,266.359,410.159Zm0-28.359a6.673,6.673,0,0,1-1.772,4.35,5.489,5.489,0,0,1-4.351,2.1q-3.708,0-6.123-7.895-1.774-5.476-7.573-12.891l1.289-1.128a37.835,37.835,0,0,1,11.6,5.317Q266.357,376.645,266.359,381.8Zm17.4-2.417q0,6.609-5.318,6.606-3.063,0-6.445-7.251a32.933,32.933,0,0,0-8.7-12.407l1.289-1.611q13.694,3.867,17.241,9.668A7.924,7.924,0,0,1,283.762,379.383Z" fill="#231f20"/><path d="M320.2,483.324q0,10.071-5.8,21.671a63.144,63.144,0,0,1-14.1,19.014q-14.906,13.213-42.539,17.08l-.241-1.128q24.813-9.426,38.591-26.345,4.995-6.123,8.621-17.08,3.141-9.183,3.142-14.744a3.856,3.856,0,0,0-1.451-3.464q-1.449-.967-5-.967h-42.3l-4.189,3.545-5.157-6.446h57.847q7.01,0,9.99,2.1Q320.2,478.49,320.2,483.324Zm-1.772,45.841q0,3.707-3.384,3.706-1.531,0-2.5-2.417-.805-2.337-1.53-4.673a20.8,20.8,0,0,0-2.981-4.753l.725-.644q6.284,1.852,9.023,6.123A5.563,5.563,0,0,1,318.424,529.165Zm8.218-2.658a2.958,2.958,0,0,1-.887,2.175,2.839,2.839,0,0,1-2.175.966q-1.29,0-2.175-1.692-.807-1.772-1.692-3.545a18.238,18.238,0,0,0-3.948-5.961l.4-.725a29.911,29.911,0,0,1,7.332,3.3A6.215,6.215,0,0,1,326.642,526.507Z" fill="#231f20"/><path d="M343.152,506.823q0,16.035-1.531,25.137-2.175,13.7-8.459,19.9a68.558,68.558,0,0,1-17.4,12.891l-.725-.887a63.922,63.922,0,0,0,9.829-11.681,36.809,36.809,0,0,0,4.512-11.6q1.611-7.331,2.014-20.545.16-4.51.161-20.947,0-3.543-3.625-4.19v-1.53l15.227-2.337Zm53.174,39.4q-7.415,17.16-23.687,17.161-5.48,0-8.379-3.385t-2.9-9.1V499.251q0-5.157-3.787-5.963V492L372.8,489.42v59.54q0,8.056,4.915,8.057,10.151,0,17.322-11.682Z" fill="#231f20"/><path d="M547.149,560.615q0,12.889-12.407,12.891-5.962,0-10.151-8.54-2.58-6.927-5-13.7-1.933-4.51-8.379-12.891-7.251-9.505-13.375-14.18a157.79,157.79,0,0,1-44.472,34,169.455,169.455,0,0,1-53.658,18.047l-1.611-2.417q50.6-20.461,77.988-56.4,26.1-34.481,26.1-60.586,0-5.476-2.578-7.735t-8.54-2.256H425.816l-9.507,5.8-9.668-11.924H506.705q9.667,0,14.824,5t5.157,13.374q0,11.925-8.863,31.42-8.059,18.05-17.564,30.293,8.861,1.774,20.787,8.54A78.081,78.081,0,0,1,540.06,544.18Q547.148,552.238,547.149,560.615Z" fill="#231f20"/><path d="M580.012,585.392q0,38.224-33.835,58.663l-1.5-1.271Q553.684,631.7,557.609,622,562,611.03,562,596.593q0-4.27-3.464-5.2v-1.5Zm79.1-14.55H612.23v62.7q0,10.047-2.424,14.551-2.772,5.079-10.047,5.081-11.666,0-21.363-11.433l1.732-1.963q5.08,4.734,10.97,4.735,4.85,0,4.85-6.352V570.842h-38.57l-5.312,3.579-6.466-7.506h50.348V553.52q0-4.158-3.927-4.5v-1.964l20.209-3.579v23.441h33.258l5.658-4.734Zm-2.771,55.776a17.855,17.855,0,0,1-2.194,9.238,8.684,8.684,0,0,1-7.737,4.388q-4.736,0-6-6.813-.345-1.615-2.771-14.9a90.941,90.941,0,0,0-13.511-31.757l1.154-.577a106.506,106.506,0,0,1,8.777,6.352,80.21,80.21,0,0,1,14.9,14.9Q656.343,617.612,656.343,626.618Zm-1.385-74.83a9.645,9.645,0,0,1-3,7.044,10.219,10.219,0,0,1-17.437-7.16,10.321,10.321,0,0,1,2.771-7.044,10.461,10.461,0,0,1,14.551-.115A9.494,9.494,0,0,1,654.958,551.788Zm-4.619-.116a5.719,5.719,0,0,0-1.5-4.042,5.153,5.153,0,0,0-4.041-1.848,5.5,5.5,0,0,0-4.158,1.848,5.739,5.739,0,0,0-1.617,4.042,5.345,5.345,0,0,0,1.617,3.927,5.172,5.172,0,0,0,3.926,1.732,5.674,5.674,0,0,0,4.158-1.732A5.349,5.349,0,0,0,650.339,551.672Z" fill="#231f20"/><path d="M724.346,512.642a52.987,52.987,0,0,1-7.492,15.711,55.413,55.413,0,0,1-13.617,13.776v45.278H691.8V548.9a110.456,110.456,0,0,1-17.725,5.8,93.982,93.982,0,0,1-17.4,3.142l-.4-1.208q18.127-5.639,35.529-19.417A75.419,75.419,0,0,0,702.835,526.9q5.317-5.959,5.317-8.861,0-2.014-2.5-2.418v-1.289Z" fill="#231f20"/><path d="M795.007,542.981a35.867,35.867,0,0,1-4.673,17.564,38.354,38.354,0,0,1-12.407,13.615,67.731,67.731,0,0,1-19.336,8.541,72.6,72.6,0,0,1-19.5,2.981l-.4-1.128q15.469-4.272,23.929-9.909a48.549,48.549,0,0,0,14.019-14.583q5.959-9.346,5.962-17.564,0-5.076-5.238-5.076H732.487l-3.787,3.062-4.914-6.2H785.5Q795.006,534.28,795.007,542.981Zm-2.982-24.653H737.4l-4.028,2.739-4.673-5.639h52.933l4.43-3.787Z" fill="#231f20"/><path d="M897.53,553.878H819.9l-5.51,4.157-7.058-8.894h75.6l6.477-3.964Z" fill="#231f20"/></g><path d="M713.235,492.661a35.509,35.509,0,0,1-14.114,8.585q-1.02.144-.291-.582a34.816,34.816,0,0,0,8.44-6.839,33.691,33.691,0,0,0,4.074-5.53h-4.22v1.6q0,1.02-1.455,1.31-2.619.582-2.619-.728V476.073l4.22,1.891h5.965v-3.637h-14.55l-.437-1.019h14.987v-5.82l4.511.582q1.89.582.291,1.746l-1.018.436v3.056H725.9l2.328-3.2,3.637,2.91q1.164,1.02-.291,1.31h-14.55v3.637h6.111l1.164-2.182,3.783,3.2q.727.729-.291,1.6l-.436.292v8.439a1.045,1.045,0,0,1-.582,1.019,3.059,3.059,0,0,1-1.6.436q-1.893.293-1.892-.873v-1.6H717.6a22.377,22.377,0,0,0,4.074,3.929,19.888,19.888,0,0,0,4.947,2.765q3.636,1.457,6.111,2.183a9.657,9.657,0,0,0-4.074,3.783,25.819,25.819,0,0,1-7.566-5.675,29.985,29.985,0,0,1-4.074-5.821v10.187q0,1.452-2.474,1.746a1.337,1.337,0,0,1-.873,0,1.312,1.312,0,0,1-.437-1.164Zm-6.111-13.678v3.638h6.111v-3.638Zm0,4.656v3.638h6.111v-3.638Zm9.895-4.656v3.638h6.256v-3.638Zm0,4.656v3.638h6.256v-3.638Z" fill="#231f20"/><path d="M751.613,484.512a21.383,21.383,0,0,1-3.055,8.731,18.927,18.927,0,0,1-7.712,6.4q-3.786,1.888-4.657,1.891-.729.144-.436-.582a27.241,27.241,0,0,0,4.074-2.765,18.967,18.967,0,0,0,6.839-10.477,45.152,45.152,0,0,0,1.164-10.622H735.462l-.582-1.018h14.114v-8.585l5.093.873q1.454.584.291,1.746l-1.31.727v5.239h9.313l2.765-3.347,3.928,3.056q1.017,1.019-.436,1.309h-16.3q-.293,3.2-.582,6.4h7.566l1.746-2.911L765,484.512q.726.731-.291,1.455l-.728.437a49.177,49.177,0,0,1-1.164,7.857,11.537,11.537,0,0,1-3.346,5.967,7.29,7.29,0,0,1-2.183,1.309q-2.183.873-2.328-.582c-.1-1.164-.243-1.8-.437-1.892l-4.656-2.328q-.873-.726.582-.727a42.813,42.813,0,0,0,5.093.582,1.96,1.96,0,0,0,1.892-.437q1.015-1.016,1.6-4.8.581-4.072.728-6.839Z" fill="#231f20"/><path d="M798.06,477.091a63.436,63.436,0,0,1-2.911,8.149,28.912,28.912,0,0,1-3.492,5.82,31.432,31.432,0,0,0,6.694,3.492,38.2,38.2,0,0,0,8.148,2.183,15.64,15.64,0,0,0-4.074,4.657q-3.2-1.31-6.548-3.056a28.549,28.549,0,0,1-6.548-4.657q-5.674,5.387-16.442,7.713-2.04.289.145-1.019a35.288,35.288,0,0,0,7.421-3.638A30.963,30.963,0,0,0,787,491.06a36.2,36.2,0,0,1-3.638-6.548,30.565,30.565,0,0,1-1.891-7.421h-8.294l-.437-1.018H787v-8.44l4.947.582q1.454.584.291,1.892l-.873.582v5.384h7.567l3.055-3.783,3.492,3.346q1.017,1.167-.291,1.455Zm-15.57,0a26.943,26.943,0,0,0,2.328,5.966,22.567,22.567,0,0,0,4.075,5.529,32.479,32.479,0,0,0,2.473-5.238,44.617,44.617,0,0,0,1.6-6.257Z" fill="#231f20"/><path d="M816.024,490.478a26.946,26.946,0,0,1-4.365,3.638l-1.164.727a2.225,2.225,0,0,1-.582.437q-1.166.731-.145-1.019a20.2,20.2,0,0,0,2.764-3.055,39.659,39.659,0,0,0,6.4-12.805,2.19,2.19,0,0,1-.291-.873v-3.2h-9.167l-.437-1.019h9.6v-5.82l4.219.436q2.182.584.291,1.892l-.727.291v3.2H829.7v-5.675l4.511.291q1.163.294.145,1.6l-.873.582v3.2h3.784l2.328-3.056,4.074,2.911q1.162.873-.437,1.164h-9.749v1.746a1.309,1.309,0,0,1-.436,1.164,3.981,3.981,0,0,1-1.6.436q-1.746.294-1.746-.727v-2.619h-7.275v2.764q0,.73-.873,1.019a6.526,6.526,0,0,1-1.6.291l3.2,2.037q1.31.729-.291,1.6l-1.018.436a22.047,22.047,0,0,1-1.892,3.056l.291.145q.873.873.146,1.6l-.582.291v12.078c0,.677-.2,1.114-.582,1.309a6.3,6.3,0,0,1-2.038.582q-1.166.144-1.164-1.309Zm14.7-2.183a27.469,27.469,0,0,0,7.857-7.857l3.492,2.619q1.309,1.165-.436,1.746l-1.164.291a36.822,36.822,0,0,1-5.093,2.619,49.184,49.184,0,0,1-4.656,1.6v6.548a1.183,1.183,0,0,0,1.164,1.31,36.651,36.651,0,0,0,4.8,0,3.185,3.185,0,0,0,2.328-.728q.873-.726,2.182-4.511,1.31-3.055,1.31-.436-.147,1.31-.291,2.473-.584,2.329,1.018,3.2a1.263,1.263,0,0,1,.582,1.018,1.743,1.743,0,0,1-1.309,1.892,8.153,8.153,0,0,1-3.056.437q-2.912.142-9.312.145a5.108,5.108,0,0,1-2.765-.582q-.729-.437-.728-2.183V478.4l4.8.582q1.164.436.146,1.6l-.873.583Z" fill="#231f20"/><path d="M851.055,476.655v16.3q0,1.018-2.619,1.164a.772.772,0,0,1-.874-.873V473.89l3.784,1.746H852.8v-8l3.928.582q1.164.436.146,1.455l-.582.291v5.675h1.6l1.164-2.037,3.055,2.619q1.017.873-.291,1.6l-.291.145v12.951q0,1.455-.727,1.891a5.87,5.87,0,0,1-2.328,1.019q-.873,0-.873-.582.579-1.017-1.31-1.892v8.731q0,1.017-2.765,1.164a.642.642,0,0,1-.727-.727V476.655Zm5.238,0v13.678h.728c.677,0,1.018-.194,1.018-.583v-13.1Zm10.768,21.39v2.037q0,.873-3.2,1.31-.873.143-.873-.873V482.766l4.075,2.183h1.309V467.633l4.22.728q1.746.584.291,1.6l-.728.291v5.821h3.493l2.037-3.056,3.055,2.91q.727.873-.291,1.164h-8.294v7.858h2.765l1.164-2.037,3.783,3.055q1.017.731-.291,1.31l-.436.145v11.641q0,1.017-1.892,1.31a5.185,5.185,0,0,1-1.746,0,.674.674,0,0,1-.437-.727v-1.6Zm0-1.019h8V485.967h-8Z" fill="#231f20"/><path d="M147.074,594.3q-1.977-.418-3.5-.658a26.163,26.163,0,0,0-2.934-.18l-.15-.929q1.229,0,4.671.12,3.384.12,4.193.12l15.81-.24a49.267,49.267,0,0,1,7.546.6q1.916.27,3.323.569a28.564,28.564,0,0,1,2.935.929,18.366,18.366,0,0,1,5.33,2.818,14.694,14.694,0,0,1,4.851,5.7,16.127,16.127,0,0,1,1.167,3.148,12.592,12.592,0,0,1,.36,2.879q0,10.2-6.258,16.943a26.32,26.32,0,0,1-7.247,5.489,34.386,34.386,0,0,1-8.324,2.938q-2.7.538-4.612.779a22.716,22.716,0,0,1-3.922.329l-10.241.144-9.582.1.27-.928a23.654,23.654,0,0,0,3.413-.24,16.824,16.824,0,0,0,2.905-.538q.358-2.042.359-22.013l-.06-7.917-.12-6.268A24.027,24.027,0,0,0,147.074,594.3Zm5.509.39q0,.6-.239,8.277t-.24,11.006l.12,4.288.12,5.158.06,4.679.179,4.708q1.8.39,3.384.63a30.536,30.536,0,0,0,4.911.48,38.43,38.43,0,0,0,9.941-1.71,22.579,22.579,0,0,0,11.02-7.437,18.185,18.185,0,0,0,3.922-11.366l-.119-2.25a17.175,17.175,0,0,0-3.294-8.786,17.885,17.885,0,0,0-7.606-5.548,29.532,29.532,0,0,0-7.067-1.889q-1.826-.24-4.222-.42-2.4-.21-4.551-.21A47.634,47.634,0,0,0,152.583,594.688Z" fill="#231f20"/><path d="M211.878,609.3h1.437a22.339,22.339,0,0,1,5.48.629,15.172,15.172,0,0,1,4.342,1.842,12.287,12.287,0,0,1,3.084,2.679,10.528,10.528,0,0,1,1.857,3.384,12.151,12.151,0,0,1,.629,3.923,13.12,13.12,0,0,1-.974,4.955,16.08,16.08,0,0,1-2.859,4.566,13.519,13.519,0,0,1-2.186,1.917,16.518,16.518,0,0,1-2.86,1.527,20.843,20.843,0,0,1-3.518,1.093,17.468,17.468,0,0,1-3.8.434q-7.186,0-11.349-3.178a14.2,14.2,0,0,1-2.635-2.847,11.959,11.959,0,0,1-.9-1.529q-.3-.69-.629-1.678a10.874,10.874,0,0,1-.569-3.388,12.457,12.457,0,0,1,.569-3.777,12.938,12.938,0,0,1,1.587-3.478,14.689,14.689,0,0,1,5.33-4.946,17.23,17.23,0,0,1,3.818-1.558A15.414,15.414,0,0,1,211.878,609.3Zm-3.354,1.617a12.71,12.71,0,0,0-5.3,2.245A9.674,9.674,0,0,0,200.17,617a12.072,12.072,0,0,0-.763,2.261,10.32,10.32,0,0,0-.255,2.291l.12.928.12,1.108a12.847,12.847,0,0,0,1.721,4.4,13.948,13.948,0,0,0,2.95,3.384,16.522,16.522,0,0,0,1.751,1.243,15.669,15.669,0,0,0,5.555,2.111l2.066.179a14.422,14.422,0,0,0,5.9-1.272,10.588,10.588,0,0,0,4.582-3.788,10.37,10.37,0,0,0,1.287-2.874,12.417,12.417,0,0,0,.449-3.444l-.119-2.036a10.053,10.053,0,0,0-2.1-5.046,14.535,14.535,0,0,0-4.971-4.147,14.379,14.379,0,0,0-6.827-1.647h-1.348A10.046,10.046,0,0,0,208.524,610.917Z" fill="#231f20"/><path d="M236.528,610.917l-1.587-.33-1.587-.269-.09-.539,2.515.06,2.545.09,3.114-.09,2.935-.06-.24.539q-1.107.09-1.811.2t-2.351.4l-.09,1.736-.089,2.036-.03,1.738-.06,2.036.09,5.959a14.051,14.051,0,0,0,.464,3.8,10.514,10.514,0,0,0,1.332,2.963,7.454,7.454,0,0,0,3.489,3.07,11.411,11.411,0,0,0,4.207.794q8.714,0,8.714-8.894v-5.3l-.15-9.941a36.91,36.91,0,0,0-4.282-.6l-.21-.539,2.575.06,2.725.09,2.546-.09,2.515-.06-.24.539-1.377.269-1.467.33a20.29,20.29,0,0,0-.12,2.395q-.06,1.887-.06,4.073l.06,8.2a10.167,10.167,0,0,1-.81,4.162,10.687,10.687,0,0,1-2.4,3.384q-3.209,3.115-9.178,3.114a14.148,14.148,0,0,1-5.458-1.018,9.284,9.284,0,0,1-3.863-3.054,9.835,9.835,0,0,1-1.288-2.426,12.813,12.813,0,0,1-.629-2.844,29.589,29.589,0,0,1-.209-3.714v-9.731A15.867,15.867,0,0,0,236.528,610.917Z" fill="#231f20"/><path d="M272.256,610.827l-1.886-.24-2.246-.119-.149-.539,4.76-.21,5.061-.09q9.074,0,9.073,5.031a5.514,5.514,0,0,1-.748,2.694,8.445,8.445,0,0,1-2.052,2.471,12.249,12.249,0,0,1-3.339,1.932,11.409,11.409,0,0,1,6.049,2.784,5.962,5.962,0,0,1,1.108,7.681,7.673,7.673,0,0,1-2.755,2.62,9.733,9.733,0,0,1-1.976.823,7.57,7.57,0,0,1-2.1.285l-3.683-.06-5.9-.15-1.827.06-1.676.09.149-.689,1.977-.18,2.155-.3q.21,0,.21-11.378l-.03-5.66-.06-4.551v-.449A7.922,7.922,0,0,0,272.256,610.827Zm3.654,23.386a19.011,19.011,0,0,0,2.155.6,9.925,9.925,0,0,0,2.1.24,7.861,7.861,0,0,0,2.994-.539,4.753,4.753,0,0,0,1.976-1.707,4.529,4.529,0,0,0,.629-2.426,6.292,6.292,0,0,0-1.392-4.027,8.783,8.783,0,0,0-3.743-2.68,14.046,14.046,0,0,0-5.195-.929l-.06,1.258.209,6.259a20.232,20.232,0,0,0,.09,2.185Q275.76,633.226,275.91,634.213Zm-.479-12.307a13.089,13.089,0,0,0,4.281-.6,6.322,6.322,0,0,0,2.576-1.648,5.208,5.208,0,0,0,1.227-2.036,7.237,7.237,0,0,0,.33-2.126,3.9,3.9,0,0,0-.928-2.635,5.328,5.328,0,0,0-2.4-1.766,7.258,7.258,0,0,0-3.054-.629,7.556,7.556,0,0,0-1.946.239Q275.429,611.365,275.431,621.906Z" fill="#231f20"/><path d="M311.644,632.985a30.223,30.223,0,0,0,1.4-4.282l.777-.18q-.18.72-.269,1.109-.51,2.007-.6,2.455l-.809,4.582q-.27,1.886-.344,2.47a10.011,10.011,0,0,0-.075,1.272l-.749-.239a12.292,12.292,0,0,0,.15-1.707q.03-1.049.03-2.575l-5.749-.09-6.348-.15-2.456.09-2.305.06.149-.6,1.917-.18c.7-.079,1.213-.134,1.542-.165a2.992,2.992,0,0,0,.734-.134l.089-2.9.06-2.755.09-3.323V622.3q0-3.174-.09-5.6-.06-2.426-.149-5.869-.54-.09-1.5-.21t-2.755-.3l-.09-.539,2.635.119,2.575.09,3.8-.09,3.593-.119-.24.539-2.155.24-2.426.269-.09,2.994-.149,6.948.112,4.94L302,630.5l.03,3.114.09,1.2a32.917,32.917,0,0,0,6.242-.479A7.318,7.318,0,0,0,311.644,632.985Z" fill="#231f20"/><path d="M321.316,610.827q-.39-.09-4.1-.509l-.239-.539,8.311.209q3.378,0,5.262-.09,1.852-.088,4.275-.269l.329-1.736.6-.15-.39,3.773L335,615.378l-.658-.3v-2.665q0-.539-1.917-.958-.779-.12-1.946-.33-1.137-.15-2.305-.239l-3.293-.18q0,1.529-.18,5.15-.15,3.654-.15,5.749a46.515,46.515,0,0,0,8.8-.6l.419-1.587.569-.09q-.03.15-.239,1.407-.18,1.288-.3,2.216l-.449,3.114-.569-.3.06-1.288.03-1.137q-1.617-.9-7.694-.9h-.629v.539a5.2,5.2,0,0,1-.089.869l.164,3.922.163,3.983.03,3.054q8.662,0,10.244-1.5l.3-1.2.388-1.976.866-.3q-.269,1.02-.479,2.127-.18,1.107-.389,2.425l-.509,3.982-.629-.149-.09-2.067a6.386,6.386,0,0,0-.959-.239,12.276,12.276,0,0,0-1.8-.12l-6.977-.15q-3.043,0-4.921.031-1.851.088-2.834.209l.179-.689,2.336-.21q1.048-.118,1.857-.269,0-2.216.059-7.277.059-5.088.059-5.449,0-2.215-.118-5.929Q321.316,612.354,321.316,610.827Z" fill="#231f20"/><path d="M387.414,604.239l-1.348-.359v-1.527q0-1.048-.06-2.037-.12-.987-.179-1.407a4.977,4.977,0,0,0-1.408-2.455,9.248,9.248,0,0,0-7.306-3.055,13.262,13.262,0,0,0-1.961.121,11.112,11.112,0,0,0-2.082.6,6.974,6.974,0,0,0-2.455,1.8,5.7,5.7,0,0,0-1.407,2.814,6.137,6.137,0,0,1-.12,1.468,5.976,5.976,0,0,0,.689,2.755,13.783,13.783,0,0,0,.778,1.287,7.139,7.139,0,0,0,1.108,1.109q.509.479,1.407,1.167.63.48,1.8,1.228,4.223,2.576,6.917,4.522a21.65,21.65,0,0,1,4.791,5.089,12.754,12.754,0,0,1,2.007,7.007,9.361,9.361,0,0,1-.36,2.636,12.733,12.733,0,0,1-1.048,2.575,11.855,11.855,0,0,1-3.354,3.863,16.183,16.183,0,0,1-4.671,2.4,17.892,17.892,0,0,1-5.39.809,24.539,24.539,0,0,1-8.593-1.5l-1.348,6.408-1.168.358.419-4.281.569-7.007.18-8.534,1.227.359q0,5.659.42,6.528a10.319,10.319,0,0,0,3.982,4.282,10.039,10.039,0,0,0,2.785,1.258,9.056,9.056,0,0,0,2.995.508,11.869,11.869,0,0,0,4.791-1.047,9.05,9.05,0,0,0,3.533-3.055,7.472,7.472,0,0,0,1.347-4.461,8.622,8.622,0,0,0-1.407-4.9,13.472,13.472,0,0,0-3.144-3.4l-4.881-3.384A45.246,45.246,0,0,1,371,611.665q-5.3-4.341-5.3-9.312a9.333,9.333,0,0,1,1.8-5.66,11.366,11.366,0,0,1,4.731-3.682,14.8,14.8,0,0,1,5.869-1.229,23.961,23.961,0,0,1,4.791.465,11.388,11.388,0,0,1,3.683,1.332l1.108-5.33,1.168-.27q-.628,4.192-.988,8.535A76.454,76.454,0,0,0,387.414,604.239Z" fill="#231f20"/><path d="M405.236,609.779a21.889,21.889,0,0,1,3.982.344,24.621,24.621,0,0,1,3.654.974,4.363,4.363,0,0,1,3.173,4.4,6.465,6.465,0,0,1-1.032,3.578,8.83,8.83,0,0,1-2.651,2.651,14.921,14.921,0,0,1-3.623,1.766q-.958.33-1.916.569-.928.24-2.066.419l.18-.838a12.7,12.7,0,0,0,5.6-2.276,5.5,5.5,0,0,0,2.336-4.641,4.678,4.678,0,0,0-1.468-3.548,8.677,8.677,0,0,0-3.773-2.022,18.324,18.324,0,0,0-4.491-.6L402.9,622l.15,9.372a28.611,28.611,0,0,0,.09,3.354l2.276.21,2.305.269.24.6-3.085-.06-3.383-.09-3.234.09-2.905.06.15-.6a17.317,17.317,0,0,0,2.455-.149,12.8,12.8,0,0,0,1.737-.33q0-1.317.09-5.6.06-4.253.06-5.989l-.03-6.258-.12-6.049a36.049,36.049,0,0,0-4.252-.509l-.09-.539h9.882Z" fill="#231f20"/><path d="M435.724,609.3h1.438a22.337,22.337,0,0,1,5.479.629,15.16,15.16,0,0,1,4.342,1.842,12.287,12.287,0,0,1,3.084,2.679,10.528,10.528,0,0,1,1.857,3.384,12.151,12.151,0,0,1,.629,3.923,13.138,13.138,0,0,1-.973,4.955,16.062,16.062,0,0,1-2.86,4.566,13.477,13.477,0,0,1-2.186,1.917,16.482,16.482,0,0,1-2.86,1.527,20.814,20.814,0,0,1-3.518,1.093,17.468,17.468,0,0,1-3.8.434q-7.186,0-11.349-3.178a14.2,14.2,0,0,1-2.635-2.847,11.959,11.959,0,0,1-.9-1.529q-.3-.69-.629-1.678a10.874,10.874,0,0,1-.569-3.388,12.457,12.457,0,0,1,.569-3.777,12.969,12.969,0,0,1,1.587-3.478,14.689,14.689,0,0,1,5.33-4.946,17.23,17.23,0,0,1,3.818-1.558A15.42,15.42,0,0,1,435.724,609.3Zm-3.353,1.617a12.708,12.708,0,0,0-5.3,2.245A9.674,9.674,0,0,0,424.016,617a12.072,12.072,0,0,0-.763,2.261,10.32,10.32,0,0,0-.255,2.291l.12.928.12,1.108a12.868,12.868,0,0,0,1.721,4.4,13.97,13.97,0,0,0,2.95,3.384,16.435,16.435,0,0,0,1.752,1.243,15.649,15.649,0,0,0,5.554,2.111l2.066.179a14.422,14.422,0,0,0,5.9-1.272,10.582,10.582,0,0,0,4.582-3.788,10.341,10.341,0,0,0,1.287-2.874,12.379,12.379,0,0,0,.45-3.444l-.12-2.036a10.053,10.053,0,0,0-2.1-5.046,14.535,14.535,0,0,0-4.971-4.147,14.379,14.379,0,0,0-6.827-1.647h-1.348A10.024,10.024,0,0,0,432.371,610.917Z" fill="#231f20"/><path d="M457.649,610.318l-.18-.539,2.7.06,2.994.09,3.383-.09,3.145-.06-.24.539a3.809,3.809,0,0,0-.524.045l-1.572.224-2.066.24-.24,11.528q.24,11.29.24,12.367,1.855.3,4.162.479l.24.6-2.366-.06-2.7-.09-7.157.15.18-.6,4.192-.479q0-.927.06-5,.09-4.1.09-7.277,0-3.144-.03-6.378-.09-3.234-.12-5.24Z" fill="#231f20"/><path d="M478.706,610.827q-.39-.09-4.1-.509l-.24-.539,8.312.209q3.378,0,5.262-.09,1.853-.088,4.275-.269l.328-1.736.6-.15-.389,3.773-.359,3.862-.659-.3v-2.665q0-.539-1.916-.958-.779-.12-1.946-.33-1.139-.15-2.305-.239l-3.293-.18q0,1.529-.18,5.15-.15,3.654-.15,5.749a46.515,46.515,0,0,0,8.8-.6l.418-1.587.57-.09q-.032.15-.24,1.407-.178,1.288-.3,2.216l-.449,3.114-.568-.3.058-1.288.03-1.137q-1.615-.9-7.693-.9h-.629v.539a5.2,5.2,0,0,1-.089.869l.164,3.922.163,3.983.03,3.054q8.661,0,10.245-1.5l.3-1.2.387-1.976.867-.3q-.27,1.02-.479,2.127-.182,1.107-.39,2.425l-.508,3.982-.629-.149-.09-2.067a6.458,6.458,0,0,0-.959-.239,12.291,12.291,0,0,0-1.8-.12l-6.976-.15q-3.043,0-4.922.031-1.849.088-2.834.209l.18-.689,2.335-.21q1.048-.118,1.857-.269,0-2.216.059-7.277.06-5.088.06-5.449,0-2.215-.119-5.929Q478.705,612.354,478.706,610.827Z" fill="#231f20"/><path d="M507.517,623.793q0,.929-.03,2.275-.061,1.377-.06,1.827l.24,6.827,2.275.269,1.916.21.151.6-2.7-.06-2.964-.09-6.378.15.15-.6a29.588,29.588,0,0,0,4.191-.479q.062-1.407.121-3.683v-5.36q0-4.341-.031-7.845-.058-3.5-.118-7.067l-1.576-.18-2.647-.269-.09-.539h7.306l5.69.119a18.168,18.168,0,0,1,2.784.21q.12.03,1.588.33a6.037,6.037,0,0,1,2.485,1.108,4.653,4.653,0,0,1,1.407,1.526,4.266,4.266,0,0,1,.479,1.917,6,6,0,0,1-1.616,3.907,15.454,15.454,0,0,1-3.864,3.25l2.426,3.743,3.115,4.341q.927,1.258,1.586,2.1.448.6,1.528,1.858a17.639,17.639,0,0,0,2.155,2.305l-1.707.18a7.328,7.328,0,0,1-.718-.6q-.45-.418-1.078-1.078l-3.324-3.353-3.983-4.283-3.413-3.8-1.647.09-1.287.089-.988.031Zm0-.959q4.82,0,6.677-.838a6.516,6.516,0,0,0,2.935-2.126,6.717,6.717,0,0,0,1.287-3.144,4.606,4.606,0,0,0-1.646-3.773,10.063,10.063,0,0,0-4.163-1.856q-1.347-.3-2.455-.45-1.168-.09-2.485-.089l-.09,4.1-.03,3.593Z" fill="#231f20"/><g id="_12.5th_Touhou_Project_Shooting_Game_for_Windows_7_Vista_XP_2000_Shoot_the_Bullet_Again_" data-name="12.5th Touhou Project Shooting Game for Windows 7/Vista/XP/2000 Shoot the Bullet Again!"><path d="M137.946,820.146l3.384-1.65h.338v11.74a6.245,6.245,0,0,0,.1,1.457.761.761,0,0,0,.405.441,3.463,3.463,0,0,0,1.251.175v.379h-5.229v-.379a3.528,3.528,0,0,0,1.271-.17.838.838,0,0,0,.4-.4,5.444,5.444,0,0,0,.113-1.5V822.73a11.092,11.092,0,0,0-.1-1.947.824.824,0,0,0-.262-.482.7.7,0,0,0-.456-.155,2.732,2.732,0,0,0-1.056.319Z" fill="#231f20"/><path d="M155.382,830.012l-.974,2.676h-8.2v-.379a37.021,37.021,0,0,0,5.1-5.395,6.811,6.811,0,0,0,1.477-3.824,3.025,3.025,0,0,0-.81-2.174,2.585,2.585,0,0,0-1.938-.852,3.028,3.028,0,0,0-1.841.6,3.481,3.481,0,0,0-1.2,1.759H146.6a4.765,4.765,0,0,1,1.318-2.912,3.678,3.678,0,0,1,2.65-1.016,3.918,3.918,0,0,1,2.825,1.087,3.44,3.44,0,0,1,1.133,2.563,4.965,4.965,0,0,1-.492,2.113,13.9,13.9,0,0,1-2.461,3.516q-2.553,2.791-3.189,3.364h3.63a9.869,9.869,0,0,0,1.553-.082,2,2,0,0,0,.805-.333,2.186,2.186,0,0,0,.626-.712Z" fill="#231f20"/><path d="M158.648,830.7a1.129,1.129,0,1,1-.805.328A1.1,1.1,0,0,1,158.648,830.7Z" fill="#231f20"/><path d="M170.263,818.783l-.8,1.743h-4.184l-.912,1.867a7.323,7.323,0,0,1,4.306,2.019,4.541,4.541,0,0,1,1.364,3.281,4.654,4.654,0,0,1-.446,2.032,5.482,5.482,0,0,1-1.123,1.588,5.659,5.659,0,0,1-1.507,1.056,5.552,5.552,0,0,1-2.42.565,3.067,3.067,0,0,1-1.82-.426,1.185,1.185,0,0,1-.569-.938.676.676,0,0,1,.236-.508.835.835,0,0,1,.594-.22,1.218,1.218,0,0,1,.467.082,4.342,4.342,0,0,1,.682.42,2.709,2.709,0,0,0,1.558.533,2.888,2.888,0,0,0,2.107-.907,3,3,0,0,0,.908-2.21,3.874,3.874,0,0,0-.81-2.353,5.193,5.193,0,0,0-2.235-1.686,9.018,9.018,0,0,0-3.046-.533l2.666-5.4Z" fill="#231f20"/><path d="M174.8,820.209V823.3h2.194v.718H174.8V830.1a2.039,2.039,0,0,0,.262,1.23.827.827,0,0,0,.671.318,1.17,1.17,0,0,0,.656-.211,1.34,1.34,0,0,0,.492-.62h.4a3.216,3.216,0,0,1-1.015,1.513,2.193,2.193,0,0,1-1.353.508,1.823,1.823,0,0,1-.923-.262,1.586,1.586,0,0,1-.667-.749,3.938,3.938,0,0,1-.215-1.5v-6.316h-1.487v-.339a3.861,3.861,0,0,0,1.153-.764,6.07,6.07,0,0,0,1.052-1.276,11.525,11.525,0,0,0,.656-1.425Z" fill="#231f20"/><path d="M180.434,818.106v6.871a7.872,7.872,0,0,1,1.805-1.605,2.817,2.817,0,0,1,1.333-.354,2.19,2.19,0,0,1,1.374.441,2.607,2.607,0,0,1,.851,1.385,9.785,9.785,0,0,1,.195,2.4v3.322a3.494,3.494,0,0,0,.143,1.221.808.808,0,0,0,.349.39,1.961,1.961,0,0,0,.9.143v.37h-4.614v-.37h.215a1.533,1.533,0,0,0,.913-.2,1.06,1.06,0,0,0,.359-.589,8.243,8.243,0,0,0,.031-.965v-3.322a8.018,8.018,0,0,0-.159-2.019,1.365,1.365,0,0,0-.508-.723,1.44,1.44,0,0,0-.841-.241,2.384,2.384,0,0,0-1.046.266,5,5,0,0,0-1.3,1.077v4.962a3.861,3.861,0,0,0,.108,1.2.869.869,0,0,0,.4.394,2.276,2.276,0,0,0,1.011.159v.37H177.3v-.37a2.067,2.067,0,0,0,.985-.195.726.726,0,0,0,.328-.389,3.544,3.544,0,0,0,.123-1.17v-8.5a14.2,14.2,0,0,0-.077-1.978.884.884,0,0,0-.236-.5.64.64,0,0,0-.425-.134,2.559,2.559,0,0,0-.7.164l-.143-.358,2.809-1.149Z" fill="#231f20"/><path d="M204.458,818.783l.154,3.261h-.39a3.974,3.974,0,0,0-.307-1.231,2.066,2.066,0,0,0-.846-.876,2.955,2.955,0,0,0-1.39-.283h-1.958v10.623a2.837,2.837,0,0,0,.277,1.6,1.538,1.538,0,0,0,1.2.432h.482v.379h-5.9v-.379h.492a1.411,1.411,0,0,0,1.251-.534,3.1,3.1,0,0,0,.226-1.5V819.654h-1.671a4.644,4.644,0,0,0-1.385.145,1.9,1.9,0,0,0-.912.748,3.02,3.02,0,0,0-.451,1.5h-.39l.164-3.261Z" fill="#231f20"/><path d="M209.839,823.018a4.164,4.164,0,0,1,3.425,1.621,4.973,4.973,0,0,1,1.1,3.177,5.989,5.989,0,0,1-.6,2.554,4.3,4.3,0,0,1-4.03,2.605,3.982,3.982,0,0,1-3.373-1.692,5.235,5.235,0,0,1-1.057-3.2,5.671,5.671,0,0,1,.642-2.569,4.273,4.273,0,0,1,3.9-2.5Zm-.318.667a2.131,2.131,0,0,0-1.092.323,2.264,2.264,0,0,0-.887,1.133,5.446,5.446,0,0,0-.338,2.082,7.255,7.255,0,0,0,.815,3.537,2.425,2.425,0,0,0,2.148,1.486,2,2,0,0,0,1.641-.82,4.666,4.666,0,0,0,.646-2.82,6.425,6.425,0,0,0-1.077-3.937A2.218,2.218,0,0,0,209.521,823.685Z" fill="#231f20"/><path d="M223.748,823.3v5.691a14.331,14.331,0,0,0,.077,1.994.889.889,0,0,0,.246.508.589.589,0,0,0,.4.143,1.83,1.83,0,0,0,.718-.174l.143.359-2.809,1.159h-.462v-1.99a8.591,8.591,0,0,1-1.846,1.652,2.832,2.832,0,0,1-1.343.338,2.149,2.149,0,0,1-1.368-.456,2.364,2.364,0,0,1-.806-1.175,7.11,7.11,0,0,1-.225-2.03V825.12a2.063,2.063,0,0,0-.144-.923.952.952,0,0,0-.425-.394,2.5,2.5,0,0,0-1.021-.129V823.3h3.292v6.285a2.348,2.348,0,0,0,.456,1.723,1.589,1.589,0,0,0,1.1.41,2.305,2.305,0,0,0,1-.276,5.431,5.431,0,0,0,1.328-1.056v-5.322a1.51,1.51,0,0,0-.292-1.082,1.9,1.9,0,0,0-1.215-.3V823.3Z" fill="#231f20"/><path d="M228.437,818.106v6.871a7.872,7.872,0,0,1,1.8-1.605,2.823,2.823,0,0,1,1.333-.354,2.19,2.19,0,0,1,1.374.441,2.6,2.6,0,0,1,.851,1.385,9.785,9.785,0,0,1,.195,2.4v3.322a3.464,3.464,0,0,0,.144,1.221.8.8,0,0,0,.348.39,1.963,1.963,0,0,0,.9.143v.37h-4.615v-.37h.216a1.531,1.531,0,0,0,.912-.2,1.055,1.055,0,0,0,.359-.589,8.006,8.006,0,0,0,.031-.965v-3.322a7.969,7.969,0,0,0-.159-2.019,1.355,1.355,0,0,0-.508-.723,1.436,1.436,0,0,0-.84-.241,2.38,2.38,0,0,0-1.046.266,4.973,4.973,0,0,0-1.3,1.077v4.962a3.873,3.873,0,0,0,.107,1.2.876.876,0,0,0,.4.394,2.271,2.271,0,0,0,1.01.159v.37H225.3v-.37a2.062,2.062,0,0,0,.984-.195.722.722,0,0,0,.328-.389,3.544,3.544,0,0,0,.123-1.17v-8.5a14.442,14.442,0,0,0-.076-1.978.89.89,0,0,0-.237-.5.638.638,0,0,0-.425-.134,2.554,2.554,0,0,0-.7.164l-.144-.358,2.81-1.149Z" fill="#231f20"/><path d="M240.331,823.018a4.163,4.163,0,0,1,3.425,1.621,4.973,4.973,0,0,1,1.1,3.177,5.989,5.989,0,0,1-.605,2.554,4.3,4.3,0,0,1-4.03,2.605,3.982,3.982,0,0,1-3.373-1.692,5.24,5.24,0,0,1-1.056-3.2,5.669,5.669,0,0,1,.641-2.569,4.273,4.273,0,0,1,3.9-2.5Zm-.318.667a2.133,2.133,0,0,0-1.092.323,2.264,2.264,0,0,0-.887,1.133,5.465,5.465,0,0,0-.338,2.082,7.255,7.255,0,0,0,.815,3.537,2.427,2.427,0,0,0,2.148,1.486,2,2,0,0,0,1.641-.82,4.666,4.666,0,0,0,.646-2.82,6.425,6.425,0,0,0-1.077-3.937A2.218,2.218,0,0,0,240.013,823.685Z" fill="#231f20"/><path d="M254.24,823.3v5.691a14.331,14.331,0,0,0,.077,1.994.9.9,0,0,0,.246.508.591.591,0,0,0,.4.143,1.83,1.83,0,0,0,.718-.174l.143.359-2.809,1.159h-.462v-1.99a8.617,8.617,0,0,1-1.845,1.652,2.839,2.839,0,0,1-1.344.338,2.149,2.149,0,0,1-1.368-.456,2.356,2.356,0,0,1-.805-1.175,7.068,7.068,0,0,1-.226-2.03V825.12a2.063,2.063,0,0,0-.144-.923.946.946,0,0,0-.425-.394,2.5,2.5,0,0,0-1.02-.129V823.3h3.291v6.285a2.343,2.343,0,0,0,.457,1.723,1.585,1.585,0,0,0,1.1.41,2.3,2.3,0,0,0,1-.276,5.413,5.413,0,0,0,1.328-1.056v-5.322a1.506,1.506,0,0,0-.292-1.082,1.9,1.9,0,0,0-1.215-.3V823.3Z" fill="#231f20"/><path d="M265.26,826.176v4.051a2.831,2.831,0,0,0,.287,1.63,1.474,1.474,0,0,0,1.179.452h.533v.379H261.3v-.379h.523a1.4,1.4,0,0,0,1.261-.575,3.376,3.376,0,0,0,.2-1.507v-8.983a2.928,2.928,0,0,0-.277-1.631,1.508,1.508,0,0,0-1.189-.451H261.3v-.379h5.1a9.014,9.014,0,0,1,2.943.385,4.041,4.041,0,0,1,1.815,1.3,3.335,3.335,0,0,1,.738,2.164,3.637,3.637,0,0,1-1.123,2.767,4.422,4.422,0,0,1-3.173,1.067,9.112,9.112,0,0,1-1.087-.071Q265.926,826.32,265.26,826.176Zm0-.584c.362.068.683.12.964.154a6.088,6.088,0,0,0,.717.051,2.444,2.444,0,0,0,1.841-.825,3,3,0,0,0,.774-2.138,3.846,3.846,0,0,0-.369-1.677A2.554,2.554,0,0,0,268.141,820a3.062,3.062,0,0,0-1.538-.385,6.07,6.07,0,0,0-1.343.2Z" fill="#231f20"/><path d="M275.806,823.018v2.113q1.179-2.112,2.42-2.113a1.32,1.32,0,0,1,.933.343,1.058,1.058,0,0,1,.369.795.939.939,0,0,1-.267.677.849.849,0,0,1-.636.276,1.354,1.354,0,0,1-.805-.353,1.333,1.333,0,0,0-.661-.354.615.615,0,0,0-.4.2,4.97,4.97,0,0,0-.953,1.385v4.5a2.8,2.8,0,0,0,.194,1.179,1.065,1.065,0,0,0,.472.462,2.073,2.073,0,0,0,.974.184v.37h-4.809v-.37a2,2,0,0,0,1.067-.225.872.872,0,0,0,.358-.523,5.174,5.174,0,0,0,.052-1v-3.639a15.22,15.22,0,0,0-.067-1.955.773.773,0,0,0-.246-.456.7.7,0,0,0-.446-.143,2.062,2.062,0,0,0-.718.153l-.1-.369,2.84-1.148Z" fill="#231f20"/><path d="M284.413,823.018a4.163,4.163,0,0,1,3.425,1.621,4.973,4.973,0,0,1,1.1,3.177,5.989,5.989,0,0,1-.605,2.554,4.3,4.3,0,0,1-4.03,2.605,3.982,3.982,0,0,1-3.373-1.692,5.24,5.24,0,0,1-1.056-3.2,5.669,5.669,0,0,1,.641-2.569,4.273,4.273,0,0,1,3.9-2.5Zm-.318.667a2.133,2.133,0,0,0-1.092.323,2.264,2.264,0,0,0-.887,1.133,5.465,5.465,0,0,0-.338,2.082,7.255,7.255,0,0,0,.815,3.537,2.427,2.427,0,0,0,2.148,1.486,2,2,0,0,0,1.641-.82,4.666,4.666,0,0,0,.646-2.82,6.425,6.425,0,0,0-1.077-3.937A2.218,2.218,0,0,0,284.1,823.685Z" fill="#231f20"/><path d="M293.139,823.018v9.455a5.318,5.318,0,0,1-1.025,3.578,3.381,3.381,0,0,1-2.666,1.169,2.306,2.306,0,0,1-1.385-.339.919.919,0,0,1-.451-.7.847.847,0,0,1,.252-.616.8.8,0,0,1,.589-.256,1.247,1.247,0,0,1,.544.133,3.371,3.371,0,0,1,.671.519,1.405,1.405,0,0,0,.836.446.761.761,0,0,0,.482-.19,1.149,1.149,0,0,0,.348-.636,9.994,9.994,0,0,0,.113-1.933v-6.685a12.729,12.729,0,0,0-.092-1.989.816.816,0,0,0-.226-.467.637.637,0,0,0-.42-.128,2.085,2.085,0,0,0-.7.153l-.144-.369,2.83-1.148Zm-.882-4.922a1.05,1.05,0,0,1,1.056,1.056,1.008,1.008,0,0,1-.307.739,1.019,1.019,0,0,1-.749.307,1.05,1.05,0,0,1-1.046-1.046,1.018,1.018,0,0,1,.308-.748A1.007,1.007,0,0,1,292.257,818.1Z" fill="#231f20"/><path d="M297.376,826.832a4.823,4.823,0,0,0,1.015,3.281,3.094,3.094,0,0,0,2.41,1.19,2.612,2.612,0,0,0,1.6-.507,3.751,3.751,0,0,0,1.144-1.738l.318.205a4.9,4.9,0,0,1-1.251,2.558,3.342,3.342,0,0,1-2.595,1.154,3.79,3.79,0,0,1-2.9-1.318,5.045,5.045,0,0,1-1.2-3.543,5.361,5.361,0,0,1,1.235-3.758,4.03,4.03,0,0,1,3.1-1.348,3.465,3.465,0,0,1,2.595,1.041,3.817,3.817,0,0,1,1.015,2.783Zm0-.594h4.348a4.02,4.02,0,0,0-.216-1.271,2.035,2.035,0,0,0-.764-.9,1.93,1.93,0,0,0-1.061-.328,2.116,2.116,0,0,0-1.523.661A2.869,2.869,0,0,0,297.376,826.238Z" fill="#231f20"/><path d="M312.864,829.119a5.084,5.084,0,0,1-1.487,2.856,3.572,3.572,0,0,1-2.45,1,3.62,3.62,0,0,1-2.789-1.344,5.276,5.276,0,0,1-1.19-3.629,5,5,0,0,1,1.318-3.6,4.212,4.212,0,0,1,3.163-1.384,3.473,3.473,0,0,1,2.277.733,2.031,2.031,0,0,1,.892,1.522.834.834,0,0,1-.251.631.974.974,0,0,1-.7.242,1.094,1.094,0,0,1-.913-.39,1.619,1.619,0,0,1-.23-.82,1.343,1.343,0,0,0-.416-.923,1.478,1.478,0,0,0-.994-.308,2.033,2.033,0,0,0-1.651.759,4.035,4.035,0,0,0-.831,2.655,5.372,5.372,0,0,0,.826,2.969,2.535,2.535,0,0,0,2.23,1.287,2.7,2.7,0,0,0,1.805-.687,4.638,4.638,0,0,0,1.1-1.712Z" fill="#231f20"/><path d="M316.7,820.209V823.3H318.9v.718H316.7V830.1a2.039,2.039,0,0,0,.262,1.23.829.829,0,0,0,.671.318,1.165,1.165,0,0,0,.656-.211,1.348,1.348,0,0,0,.493-.62h.4a3.225,3.225,0,0,1-1.016,1.513,2.19,2.19,0,0,1-1.353.508,1.823,1.823,0,0,1-.923-.262,1.579,1.579,0,0,1-.666-.749,3.914,3.914,0,0,1-.216-1.5v-6.316h-1.487v-.339a3.865,3.865,0,0,0,1.154-.764,6.066,6.066,0,0,0,1.051-1.276,11.525,11.525,0,0,0,.656-1.425Z" fill="#231f20"/><path d="M145.113,841.865v4.81h-.379a6,6,0,0,0-.661-2.2,3.447,3.447,0,0,0-1.359-1.3,3.761,3.761,0,0,0-1.825-.482,2.484,2.484,0,0,0-1.764.651,1.981,1.981,0,0,0-.7,1.481,1.757,1.757,0,0,0,.441,1.16,11.327,11.327,0,0,0,3.025,2.05,21.078,21.078,0,0,1,2.66,1.605,3.929,3.929,0,0,1,1.1,1.318,3.473,3.473,0,0,1,.384,1.589,3.6,3.6,0,0,1-1.225,2.723,4.443,4.443,0,0,1-3.153,1.143,6.613,6.613,0,0,1-1.138-.093,11.654,11.654,0,0,1-1.318-.374,5.932,5.932,0,0,0-1.266-.323.537.537,0,0,0-.405.154,1.222,1.222,0,0,0-.221.636h-.379v-4.768h.379a6.732,6.732,0,0,0,.718,2.24,3.441,3.441,0,0,0,1.379,1.235,4.275,4.275,0,0,0,2.035.492,2.893,2.893,0,0,0,2.025-.675,2.1,2.1,0,0,0,.744-1.6,2.171,2.171,0,0,0-.282-1.036,3.079,3.079,0,0,0-.877-.974,24.864,24.864,0,0,0-2.184-1.307,21.276,21.276,0,0,1-2.537-1.6,4.3,4.3,0,0,1-1.144-1.313,3.25,3.25,0,0,1-.39-1.579,3.424,3.424,0,0,1,1.149-2.579,4.1,4.1,0,0,1,2.922-1.082,5.869,5.869,0,0,1,2.348.544,2.422,2.422,0,0,0,.81.257.616.616,0,0,0,.436-.159,1.266,1.266,0,0,0,.272-.642Z" fill="#231f20"/><path d="M150.348,841.507v6.87a7.9,7.9,0,0,1,1.8-1.6,2.823,2.823,0,0,1,1.333-.354,2.186,2.186,0,0,1,1.374.441,2.6,2.6,0,0,1,.851,1.385,9.794,9.794,0,0,1,.195,2.4v3.322a3.464,3.464,0,0,0,.144,1.221.8.8,0,0,0,.348.389,1.963,1.963,0,0,0,.9.144v.369h-4.614v-.369h.215a1.536,1.536,0,0,0,.912-.2,1.058,1.058,0,0,0,.359-.589,8.03,8.03,0,0,0,.031-.965v-3.322a7.973,7.973,0,0,0-.159-2.02,1.366,1.366,0,0,0-.507-.723,1.442,1.442,0,0,0-.841-.241,2.369,2.369,0,0,0-1.046.267,5.018,5.018,0,0,0-1.3,1.076v4.963a3.82,3.82,0,0,0,.108,1.2.875.875,0,0,0,.4.395,2.286,2.286,0,0,0,1.01.159v.369H147.21v-.369a2.061,2.061,0,0,0,.984-.2.723.723,0,0,0,.328-.388,3.539,3.539,0,0,0,.124-1.17v-8.5a14.217,14.217,0,0,0-.077-1.979.9.9,0,0,0-.236-.5.646.646,0,0,0-.426-.133,2.516,2.516,0,0,0-.7.164l-.144-.359,2.81-1.148Z" fill="#231f20"/><path d="M162.452,846.418a4.163,4.163,0,0,1,3.425,1.621,4.974,4.974,0,0,1,1.1,3.178,5.992,5.992,0,0,1-.6,2.554,4.3,4.3,0,0,1-4.03,2.6,3.981,3.981,0,0,1-3.373-1.691,5.245,5.245,0,0,1-1.056-3.2,5.672,5.672,0,0,1,.641-2.569,4.384,4.384,0,0,1,1.686-1.887A4.338,4.338,0,0,1,162.452,846.418Zm-.318.667a2.133,2.133,0,0,0-1.092.323,2.264,2.264,0,0,0-.887,1.133,5.465,5.465,0,0,0-.338,2.082,7.255,7.255,0,0,0,.815,3.537,2.427,2.427,0,0,0,2.148,1.486,2,2,0,0,0,1.641-.82,4.656,4.656,0,0,0,.646-2.819,6.428,6.428,0,0,0-1.077-3.938A2.218,2.218,0,0,0,162.134,847.085Z" fill="#231f20"/><path d="M172.721,846.418a4.163,4.163,0,0,1,3.425,1.621,4.974,4.974,0,0,1,1.1,3.178,5.977,5.977,0,0,1-.6,2.554,4.3,4.3,0,0,1-4.03,2.6,3.981,3.981,0,0,1-3.373-1.691,5.245,5.245,0,0,1-1.056-3.2,5.672,5.672,0,0,1,.641-2.569,4.384,4.384,0,0,1,1.686-1.887A4.338,4.338,0,0,1,172.721,846.418Zm-.318.667a2.133,2.133,0,0,0-1.092.323,2.264,2.264,0,0,0-.887,1.133,5.465,5.465,0,0,0-.338,2.082,7.255,7.255,0,0,0,.815,3.537,2.427,2.427,0,0,0,2.148,1.486,2,2,0,0,0,1.641-.82,4.656,4.656,0,0,0,.646-2.819,6.428,6.428,0,0,0-1.077-3.938A2.218,2.218,0,0,0,172.4,847.085Z" fill="#231f20"/><path d="M181.124,843.609V846.7h2.194v.718h-2.194V853.5a2.039,2.039,0,0,0,.262,1.23.83.83,0,0,0,.671.319,1.175,1.175,0,0,0,.656-.211,1.358,1.358,0,0,0,.493-.62h.4a3.208,3.208,0,0,1-1.015,1.512,2.19,2.19,0,0,1-1.353.508,1.823,1.823,0,0,1-.923-.262,1.577,1.577,0,0,1-.667-.749,3.938,3.938,0,0,1-.215-1.5v-6.316h-1.487v-.339a3.86,3.86,0,0,0,1.154-.763,6.1,6.1,0,0,0,1.051-1.277,11.452,11.452,0,0,0,.656-1.425Z" fill="#231f20"/><path d="M187.24,846.418v7.547a3.477,3.477,0,0,0,.128,1.175.9.9,0,0,0,.38.435,2.023,2.023,0,0,0,.918.144v.369H184.1v-.369a2.118,2.118,0,0,0,.922-.133.9.9,0,0,0,.374-.441,3.3,3.3,0,0,0,.139-1.18v-3.619a12.883,12.883,0,0,0-.092-1.979.806.806,0,0,0-.226-.457.637.637,0,0,0-.42-.128,2.061,2.061,0,0,0-.7.154l-.144-.37,2.83-1.148Zm-.851-4.911a1.035,1.035,0,0,1,1.036,1.036,1.014,1.014,0,0,1-.3.738.99.99,0,0,1-.733.307,1.041,1.041,0,1,1,0-2.081Z" fill="#231f20"/><path d="M192.341,848.408q1.65-1.989,3.148-1.99a2.268,2.268,0,0,1,1.323.385,2.572,2.572,0,0,1,.881,1.266,5.838,5.838,0,0,1,.226,1.887v4.009a3.4,3.4,0,0,0,.143,1.211.848.848,0,0,0,.364.4,2.059,2.059,0,0,0,.928.144v.369h-4.645v-.369h.195a1.565,1.565,0,0,0,.918-.2,1.043,1.043,0,0,0,.364-.589,6.06,6.06,0,0,0,.041-.965V850.12a3.91,3.91,0,0,0-.333-1.861,1.192,1.192,0,0,0-1.123-.579,3.379,3.379,0,0,0-2.43,1.333v4.952a3.518,3.518,0,0,0,.113,1.18.944.944,0,0,0,.394.435,2.434,2.434,0,0,0,1.021.139v.369h-4.645v-.369h.205a1.1,1.1,0,0,0,.969-.365,2.657,2.657,0,0,0,.251-1.389v-3.486a15.024,15.024,0,0,0-.077-2.061.88.88,0,0,0-.236-.5.64.64,0,0,0-.425-.134,1.978,1.978,0,0,0-.687.154l-.154-.37,2.83-1.148h.441Z" fill="#231f20"/><path d="M202.384,852.663a3.088,3.088,0,0,1-1.784-2.841,3.2,3.2,0,0,1,1.051-2.4,3.737,3.737,0,0,1,2.692-1.006,4.108,4.108,0,0,1,2.327.656h1.99a2.47,2.47,0,0,1,.512.027.169.169,0,0,1,.1.087.626.626,0,0,1,.061.328.924.924,0,0,1-.051.369.211.211,0,0,1-.107.082,2.3,2.3,0,0,1-.518.031h-1.221a3.162,3.162,0,0,1-.43,4.132,3.806,3.806,0,0,1-2.7.932,5.189,5.189,0,0,1-1.425-.205,2.723,2.723,0,0,0-.611.683,1.082,1.082,0,0,0-.158.5.471.471,0,0,0,.169.338,1.232,1.232,0,0,0,.661.236c.192.028.67.051,1.436.073q2.112.051,2.738.142a2.584,2.584,0,0,1,1.523.708,1.938,1.938,0,0,1,.568,1.415,2.964,2.964,0,0,1-1.087,2.174,5.859,5.859,0,0,1-4.173,1.5,5.993,5.993,0,0,1-3.343-.891q-.768-.515-.769-1.067a1.175,1.175,0,0,1,.113-.492,5.7,5.7,0,0,1,.718-1.057q.072-.091,1.046-1.107a3.245,3.245,0,0,1-.754-.569.838.838,0,0,1-.22-.57,1.689,1.689,0,0,1,.292-.84A6.716,6.716,0,0,1,202.384,852.663Zm-.1,3.425a5.023,5.023,0,0,0-.728.974,1.756,1.756,0,0,0-.246.831,1.038,1.038,0,0,0,.594.861,5.667,5.667,0,0,0,2.964.636,4.574,4.574,0,0,0,2.722-.652,1.785,1.785,0,0,0,.877-1.388.776.776,0,0,0-.523-.76,6.83,6.83,0,0,0-2.112-.266A33.8,33.8,0,0,1,202.282,856.088Zm1.886-9.178a1.6,1.6,0,0,0-1.271.606,2.821,2.821,0,0,0-.513,1.855,3.994,3.994,0,0,0,.7,2.513,1.651,1.651,0,0,0,1.353.677,1.62,1.62,0,0,0,1.282-.584,2.781,2.781,0,0,0,.5-1.836,4.109,4.109,0,0,0-.707-2.553A1.628,1.628,0,0,0,204.168,846.91Z" fill="#231f20"/><path d="M227.078,841.865l.359,4.389h-.359a6,6,0,0,0-1.405-2.471,4.4,4.4,0,0,0-3.189-1.2,4.535,4.535,0,0,0-4.04,2.1,7.551,7.551,0,0,0-1.158,4.224,8.444,8.444,0,0,0,.769,3.63,5.381,5.381,0,0,0,2.015,2.4,4.828,4.828,0,0,0,2.558.765,5.648,5.648,0,0,0,1.487-.195,5.936,5.936,0,0,0,1.384-.575V850.92a3.719,3.719,0,0,0-.159-1.369,1.076,1.076,0,0,0-.492-.492,2.848,2.848,0,0,0-1.174-.169v-.39h5.383v.39H228.8a1.143,1.143,0,0,0-1.1.533,3.6,3.6,0,0,0-.205,1.5v4.256a10.4,10.4,0,0,1-2.328.932,10.154,10.154,0,0,1-2.553.3,7.413,7.413,0,0,1-6.122-2.584,6.9,6.9,0,0,1-1.569-4.47,7.837,7.837,0,0,1,3.753-6.594,7.753,7.753,0,0,1,4.988-.77,12.648,12.648,0,0,1,1.759.544,2.831,2.831,0,0,0,.769.216.412.412,0,0,0,.334-.18,1.379,1.379,0,0,0,.169-.7Z" fill="#231f20"/><path d="M235.1,854.734a15.487,15.487,0,0,1-1.815,1.292,2.778,2.778,0,0,1-1.18.257,2.113,2.113,0,0,1-1.6-.667,2.45,2.45,0,0,1-.63-1.753,2.232,2.232,0,0,1,.308-1.189,4.067,4.067,0,0,1,1.461-1.313,22.78,22.78,0,0,1,3.461-1.5v-.369a3.071,3.071,0,0,0-.446-1.928,1.617,1.617,0,0,0-1.3-.522,1.454,1.454,0,0,0-1.025.349,1.048,1.048,0,0,0-.39.8l.021.6a1.027,1.027,0,0,1-.241.729.825.825,0,0,1-.631.255.8.8,0,0,1-.62-.266,1.045,1.045,0,0,1-.241-.728,2.1,2.1,0,0,1,.9-1.621,3.9,3.9,0,0,1,2.533-.738,4.4,4.4,0,0,1,2.051.421,1.938,1.938,0,0,1,.892.995,5.61,5.61,0,0,1,.184,1.805v3.188a14.577,14.577,0,0,0,.052,1.646.685.685,0,0,0,.169.405.4.4,0,0,0,.272.1.549.549,0,0,0,.287-.072,6.366,6.366,0,0,0,.83-.748v.574q-1.147,1.539-2.194,1.538a1,1,0,0,1-.8-.348A1.882,1.882,0,0,1,235.1,854.734Zm0-.666v-3.579a20.114,20.114,0,0,0-2,.872,3.466,3.466,0,0,0-1.159.944,1.822,1.822,0,0,0-.348,1.076,1.757,1.757,0,0,0,.441,1.225,1.336,1.336,0,0,0,1.015.488A3.722,3.722,0,0,0,235.1,854.068Z" fill="#231f20"/><path d="M241.659,848.418c.683-.684,1.087-1.076,1.21-1.18a3.658,3.658,0,0,1,.994-.6,2.8,2.8,0,0,1,1.056-.216,2.343,2.343,0,0,1,1.518.514,2.53,2.53,0,0,1,.851,1.486,6.99,6.99,0,0,1,1.784-1.615,3.177,3.177,0,0,1,1.5-.385,2.349,2.349,0,0,1,1.328.385,2.567,2.567,0,0,1,.918,1.256,5.674,5.674,0,0,1,.226,1.867v4.039a3.679,3.679,0,0,0,.133,1.211.872.872,0,0,0,.379.384,1.909,1.909,0,0,0,.9.159v.369h-4.635v-.369h.195a1.618,1.618,0,0,0,.943-.237.906.906,0,0,0,.338-.522,6.475,6.475,0,0,0,.041-1v-4.039a3.433,3.433,0,0,0-.276-1.621,1.39,1.39,0,0,0-1.282-.657,2.429,2.429,0,0,0-1.092.273,5.873,5.873,0,0,0-1.328,1.01l-.021.112.021.441v4.481a3.9,3.9,0,0,0,.107,1.2.879.879,0,0,0,.406.395,2.317,2.317,0,0,0,1.015.159v.369H244.14v-.369a2.169,2.169,0,0,0,1.071-.185.951.951,0,0,0,.406-.554,5.476,5.476,0,0,0,.051-1.015v-4.039a3.063,3.063,0,0,0-.338-1.652,1.447,1.447,0,0,0-1.262-.656,2.267,2.267,0,0,0-1.1.3,4.219,4.219,0,0,0-1.312,1.015v5.034a3.48,3.48,0,0,0,.128,1.2.874.874,0,0,0,.38.415,2.422,2.422,0,0,0,1.02.139v.369h-4.645v-.369a2.057,2.057,0,0,0,.9-.139.88.88,0,0,0,.389-.44,3.381,3.381,0,0,0,.134-1.175v-3.588a13.106,13.106,0,0,0-.092-2,.822.822,0,0,0-.226-.467.64.64,0,0,0-.42-.128,1.978,1.978,0,0,0-.687.154l-.154-.37,2.83-1.148h.441Z" fill="#231f20"/><path d="M256.552,850.232a4.826,4.826,0,0,0,1.015,3.282,3.093,3.093,0,0,0,2.41,1.189,2.617,2.617,0,0,0,1.605-.507,3.758,3.758,0,0,0,1.143-1.738l.318.205a4.9,4.9,0,0,1-1.251,2.559,3.342,3.342,0,0,1-2.594,1.153,3.789,3.789,0,0,1-2.9-1.317,5.051,5.051,0,0,1-1.2-3.543,5.353,5.353,0,0,1,1.236-3.758,4.025,4.025,0,0,1,3.1-1.349,3.468,3.468,0,0,1,2.594,1.041,3.815,3.815,0,0,1,1.015,2.783Zm0-.593H260.9a4.028,4.028,0,0,0-.215-1.272,2.035,2.035,0,0,0-.765-.9,1.918,1.918,0,0,0-1.061-.328,2.112,2.112,0,0,0-1.523.661A2.872,2.872,0,0,0,256.552,849.639Z" fill="#231f20"/><path d="M272.543,847.434v6.172a3.025,3.025,0,0,0,.287,1.662,1.261,1.261,0,0,0,1.015.451h.851v.369h-5.609v-.369h.421a1.421,1.421,0,0,0,.748-.205,1.071,1.071,0,0,0,.467-.554,4.653,4.653,0,0,0,.128-1.354v-6.172h-1.825V846.7h1.825v-.615a5.639,5.639,0,0,1,.451-2.379,3.691,3.691,0,0,1,1.38-1.574,3.766,3.766,0,0,1,2.086-.6,3.163,3.163,0,0,1,1.979.7,1.309,1.309,0,0,1,.595,1.035.823.823,0,0,1-.267.58.8.8,0,0,1-.574.271.919.919,0,0,1-.5-.169,2.691,2.691,0,0,1-.641-.728,2.594,2.594,0,0,0-.7-.753,1.328,1.328,0,0,0-.708-.2,1.282,1.282,0,0,0-.8.251,1.4,1.4,0,0,0-.471.779,14.593,14.593,0,0,0-.144,2.723v.676h2.42v.739Z" fill="#231f20"/><path d="M279.913,846.418a4.163,4.163,0,0,1,3.424,1.621,4.969,4.969,0,0,1,1.1,3.178,5.992,5.992,0,0,1-.605,2.554,4.3,4.3,0,0,1-4.03,2.6,3.982,3.982,0,0,1-3.374-1.691,5.245,5.245,0,0,1-1.056-3.2,5.672,5.672,0,0,1,.641-2.569,4.38,4.38,0,0,1,1.687-1.887A4.333,4.333,0,0,1,279.913,846.418Zm-.318.667a2.134,2.134,0,0,0-1.093.323,2.263,2.263,0,0,0-.886,1.133,5.445,5.445,0,0,0-.339,2.082,7.255,7.255,0,0,0,.815,3.537,2.427,2.427,0,0,0,2.149,1.486,2,2,0,0,0,1.64-.82,4.656,4.656,0,0,0,.646-2.819,6.434,6.434,0,0,0-1.076-3.938A2.22,2.22,0,0,0,279.6,847.085Z" fill="#231f20"/><path d="M288.861,846.418v2.113q1.179-2.112,2.42-2.113a1.316,1.316,0,0,1,.933.344,1.057,1.057,0,0,1,.369.8.936.936,0,0,1-.267.676.848.848,0,0,1-.635.277,1.35,1.35,0,0,1-.806-.354,1.325,1.325,0,0,0-.661-.353.61.61,0,0,0-.4.205,4.939,4.939,0,0,0-.953,1.385v4.5a2.775,2.775,0,0,0,.195,1.178,1.058,1.058,0,0,0,.471.462,2.075,2.075,0,0,0,.974.185v.369h-4.809v-.369a1.993,1.993,0,0,0,1.067-.226.875.875,0,0,0,.359-.522,5.32,5.32,0,0,0,.051-1v-3.64a15.2,15.2,0,0,0-.067-1.954.759.759,0,0,0-.246-.456.69.69,0,0,0-.446-.144,2.043,2.043,0,0,0-.718.154l-.1-.37,2.84-1.148Z" fill="#231f20"/><path d="M316.37,842.184v.378a1.751,1.751,0,0,0-.882.2,1.918,1.918,0,0,0-.646.728,11.891,11.891,0,0,0-.646,1.712l-3.876,11.208h-.41l-3.169-8.89-3.148,8.89h-.369l-4.132-11.547q-.462-1.291-.585-1.527a1.333,1.333,0,0,0-.559-.579,2.028,2.028,0,0,0-.958-.191v-.378h5.147v.378h-.246a1.241,1.241,0,0,0-.83.247.757.757,0,0,0-.288.6,7.089,7.089,0,0,0,.452,1.651l2.737,7.8,2.308-6.633-.411-1.169-.328-.934a5.054,5.054,0,0,0-.482-.9,1.263,1.263,0,0,0-.328-.328,1.852,1.852,0,0,0-.513-.266,2.2,2.2,0,0,0-.615-.063v-.378h5.414v.378h-.369a1.212,1.212,0,0,0-.841.247.865.865,0,0,0-.266.667,6.6,6.6,0,0,0,.461,1.825l2.666,7.556L313.3,845.2a6.462,6.462,0,0,0,.451-1.763.737.737,0,0,0-.149-.441.789.789,0,0,0-.374-.287,2.979,2.979,0,0,0-1.015-.145v-.378Z" fill="#231f20"/><path d="M320.094,846.418v7.547a3.477,3.477,0,0,0,.128,1.175.9.9,0,0,0,.38.435,2.023,2.023,0,0,0,.918.144v.369h-4.563v-.369a2.118,2.118,0,0,0,.922-.133.9.9,0,0,0,.374-.441,3.3,3.3,0,0,0,.139-1.18v-3.619a12.883,12.883,0,0,0-.092-1.979.806.806,0,0,0-.226-.457.637.637,0,0,0-.42-.128,2.061,2.061,0,0,0-.7.154l-.144-.37,2.83-1.148Zm-.851-4.911a1.035,1.035,0,0,1,1.036,1.036,1.014,1.014,0,0,1-.3.738.99.99,0,0,1-.733.307,1.041,1.041,0,1,1,0-2.081Z" fill="#231f20"/><path d="M325.4,848.408q1.651-1.989,3.148-1.99a2.263,2.263,0,0,1,1.323.385,2.58,2.58,0,0,1,.882,1.266,5.872,5.872,0,0,1,.225,1.887v4.009a3.371,3.371,0,0,0,.144,1.211.838.838,0,0,0,.364.4,2.056,2.056,0,0,0,.928.144v.369h-4.645v-.369h.195a1.563,1.563,0,0,0,.917-.2,1.043,1.043,0,0,0,.364-.589,5.875,5.875,0,0,0,.042-.965V850.12a3.908,3.908,0,0,0-.334-1.861,1.19,1.19,0,0,0-1.123-.579,3.381,3.381,0,0,0-2.43,1.333v4.952a3.547,3.547,0,0,0,.113,1.18.946.946,0,0,0,.4.435,2.426,2.426,0,0,0,1.02.139v.369h-4.645v-.369h.2a1.1,1.1,0,0,0,.969-.365,2.657,2.657,0,0,0,.251-1.389v-3.486a15.024,15.024,0,0,0-.077-2.061.887.887,0,0,0-.235-.5.643.643,0,0,0-.426-.134,1.988,1.988,0,0,0-.687.154l-.154-.37,2.83-1.148h.441Z" fill="#231f20"/><path d="M339.676,855.031a4.716,4.716,0,0,1-1.343,1.031,3.245,3.245,0,0,1-1.416.313,3.5,3.5,0,0,1-2.686-1.287,4.778,4.778,0,0,1-1.148-3.307,5.974,5.974,0,0,1,1.271-3.7,3.931,3.931,0,0,1,3.271-1.677,2.824,2.824,0,0,1,2.051.789v-1.732a14.217,14.217,0,0,0-.077-1.979.872.872,0,0,0-.241-.5.633.633,0,0,0-.41-.133,2.172,2.172,0,0,0-.708.164l-.133-.359,2.8-1.148h.462v10.858a14.406,14.406,0,0,0,.077,2.016.9.9,0,0,0,.246.508.591.591,0,0,0,.394.142,2.212,2.212,0,0,0,.739-.174l.113.36-2.79,1.158h-.471Zm0-.717v-4.839a3.275,3.275,0,0,0-.369-1.272,2.132,2.132,0,0,0-.815-.867,1.991,1.991,0,0,0-.99-.292,2.1,2.1,0,0,0-1.61.81,4.6,4.6,0,0,0-.933,3.117,4.9,4.9,0,0,0,.9,3.174,2.587,2.587,0,0,0,2.01,1.1A2.493,2.493,0,0,0,339.676,854.314Z" fill="#231f20"/><path d="M347.8,846.418a4.163,4.163,0,0,1,3.425,1.621,4.969,4.969,0,0,1,1.1,3.178,5.977,5.977,0,0,1-.605,2.554,4.3,4.3,0,0,1-4.029,2.6,3.981,3.981,0,0,1-3.374-1.691,5.245,5.245,0,0,1-1.056-3.2,5.672,5.672,0,0,1,.641-2.569,4.384,4.384,0,0,1,1.686-1.887A4.338,4.338,0,0,1,347.8,846.418Zm-.318.667a2.133,2.133,0,0,0-1.092.323,2.264,2.264,0,0,0-.887,1.133,5.465,5.465,0,0,0-.338,2.082,7.255,7.255,0,0,0,.815,3.537,2.427,2.427,0,0,0,2.148,1.486,2,2,0,0,0,1.641-.82,4.656,4.656,0,0,0,.646-2.819,6.428,6.428,0,0,0-1.077-3.938A2.218,2.218,0,0,0,347.481,847.085Z" fill="#231f20"/><path d="M352.847,846.7h3.937v.379a1.282,1.282,0,0,0-.712.2.562.562,0,0,0-.17.441,2.181,2.181,0,0,0,.175.768l2.009,5.4,2.02-4.4-.533-1.384a1.644,1.644,0,0,0-.646-.851,1.9,1.9,0,0,0-.841-.175V846.7h4.471v.379a1.909,1.909,0,0,0-1.046.268.63.63,0,0,0-.205.522,1.174,1.174,0,0,0,.082.421l2.133,5.393,1.979-5.2a2.708,2.708,0,0,0,.2-.881.44.44,0,0,0-.2-.349,1.477,1.477,0,0,0-.784-.175V846.7h2.963v.379a1.69,1.69,0,0,0-1.312,1.211l-3.138,8.09h-.421l-2.348-6-2.737,6h-.38l-3.015-7.9a2.825,2.825,0,0,0-.584-1.009,1.951,1.951,0,0,0-.9-.4Z" fill="#231f20"/><path d="M374.375,846.418v3.2h-.339a4.178,4.178,0,0,0-1-2.051,2.258,2.258,0,0,0-1.554-.543,1.719,1.719,0,0,0-1.159.379,1.1,1.1,0,0,0-.441.842,1.533,1.533,0,0,0,.328.985,3.652,3.652,0,0,0,1.292.891l1.5.728q2.082,1.015,2.082,2.676a2.531,2.531,0,0,1-.969,2.067,3.365,3.365,0,0,1-2.169.784,7.459,7.459,0,0,1-1.968-.308,2.018,2.018,0,0,0-.554-.1.409.409,0,0,0-.369.266h-.339v-3.352h.339a3.811,3.811,0,0,0,1.1,2.163,2.649,2.649,0,0,0,1.815.728,1.622,1.622,0,0,0,1.154-.416,1.316,1.316,0,0,0,.445-1,1.59,1.59,0,0,0-.5-1.189,8.735,8.735,0,0,0-1.984-1.221,5.862,5.862,0,0,1-1.948-1.333,2.306,2.306,0,0,1-.462-1.476,2.608,2.608,0,0,1,.8-1.939,2.818,2.818,0,0,1,2.056-.779,4.838,4.838,0,0,1,1.343.236,3.178,3.178,0,0,0,.7.155.409.409,0,0,0,.257-.073,1,1,0,0,0,.215-.318Z" fill="#231f20"/><path d="M382.51,842.184h7.455v.389l-4.635,13.8h-1.148l4.152-12.52H384.51a3.577,3.577,0,0,0-1.651.277,3.439,3.439,0,0,0-1.384,1.456l-.3-.113Z" fill="#231f20"/><path d="M396.553,841.507l-5.035,14.868h-.82l5.034-14.868Z" fill="#231f20"/><path d="M411.39,842.184v.378a2.263,2.263,0,0,0-1.118.473,4.262,4.262,0,0,0-.964,1.537l-4.85,11.834h-.379l-5.209-11.987a6.692,6.692,0,0,0-.564-1.128,1.8,1.8,0,0,0-.631-.5,2.951,2.951,0,0,0-1.01-.232v-.378h5.681v.378a2.6,2.6,0,0,0-1.251.329.747.747,0,0,0-.287.605,4.64,4.64,0,0,0,.471,1.6l3.538,8.152,3.281-8.05a5.426,5.426,0,0,0,.482-1.651.776.776,0,0,0-.3-.568,1.948,1.948,0,0,0-1-.385l-.174-.032v-.378Z" fill="#231f20"/><path d="M414.892,846.418v7.547a3.451,3.451,0,0,0,.128,1.175.9.9,0,0,0,.379.435,2.026,2.026,0,0,0,.918.144v.369h-4.563v-.369a2.123,2.123,0,0,0,.923-.133.915.915,0,0,0,.374-.441,3.305,3.305,0,0,0,.138-1.18v-3.619a12.748,12.748,0,0,0-.092-1.979.812.812,0,0,0-.225-.457.641.641,0,0,0-.421-.128,2.065,2.065,0,0,0-.7.154l-.144-.37,2.83-1.148Zm-.851-4.911a1.035,1.035,0,0,1,1.035,1.036,1.014,1.014,0,0,1-.3.738.986.986,0,0,1-.732.307A1.048,1.048,0,0,1,413,842.543a1,1,0,0,1,.3-.733A1.008,1.008,0,0,1,414.041,841.507Z" fill="#231f20"/><path d="M423.745,846.418v3.2h-.338a4.178,4.178,0,0,0-1-2.051,2.255,2.255,0,0,0-1.553-.543,1.719,1.719,0,0,0-1.159.379,1.1,1.1,0,0,0-.441.842,1.528,1.528,0,0,0,.328.985,3.652,3.652,0,0,0,1.292.891l1.5.728q2.082,1.015,2.082,2.676a2.529,2.529,0,0,1-.97,2.067,3.361,3.361,0,0,1-2.168.784,7.466,7.466,0,0,1-1.969-.308,2.006,2.006,0,0,0-.554-.1.409.409,0,0,0-.369.266h-.338v-3.352h.338a3.812,3.812,0,0,0,1.1,2.163,2.649,2.649,0,0,0,1.814.728,1.622,1.622,0,0,0,1.154-.416,1.317,1.317,0,0,0,.446-1,1.59,1.59,0,0,0-.5-1.189,8.735,8.735,0,0,0-1.984-1.221,5.869,5.869,0,0,1-1.949-1.333,2.312,2.312,0,0,1-.461-1.476,2.608,2.608,0,0,1,.8-1.939,2.817,2.817,0,0,1,2.056-.779,4.844,4.844,0,0,1,1.343.236,3.166,3.166,0,0,0,.7.155.406.406,0,0,0,.256-.073.979.979,0,0,0,.216-.318Z" fill="#231f20"/><path d="M428.239,843.609V846.7h2.194v.718h-2.194V853.5a2.048,2.048,0,0,0,.261,1.23.831.831,0,0,0,.672.319,1.178,1.178,0,0,0,.656-.211,1.35,1.35,0,0,0,.492-.62h.4a3.208,3.208,0,0,1-1.015,1.512,2.193,2.193,0,0,1-1.353.508,1.82,1.82,0,0,1-.923-.262,1.577,1.577,0,0,1-.667-.749,3.938,3.938,0,0,1-.215-1.5v-6.316H425.06v-.339a3.857,3.857,0,0,0,1.153-.763,6.1,6.1,0,0,0,1.052-1.277,11.452,11.452,0,0,0,.656-1.425Z" fill="#231f20"/><path d="M436.227,854.734a15.487,15.487,0,0,1-1.815,1.292,2.778,2.778,0,0,1-1.18.257,2.113,2.113,0,0,1-1.605-.667,2.45,2.45,0,0,1-.63-1.753,2.232,2.232,0,0,1,.308-1.189,4.067,4.067,0,0,1,1.461-1.313,22.78,22.78,0,0,1,3.461-1.5v-.369a3.071,3.071,0,0,0-.446-1.928,1.617,1.617,0,0,0-1.3-.522,1.454,1.454,0,0,0-1.025.349,1.048,1.048,0,0,0-.39.8l.021.6a1.027,1.027,0,0,1-.241.729.825.825,0,0,1-.631.255.8.8,0,0,1-.62-.266,1.045,1.045,0,0,1-.241-.728,2.1,2.1,0,0,1,.9-1.621,3.9,3.9,0,0,1,2.533-.738,4.4,4.4,0,0,1,2.051.421,1.938,1.938,0,0,1,.892.995,5.61,5.61,0,0,1,.184,1.805v3.188a14.577,14.577,0,0,0,.052,1.646.685.685,0,0,0,.169.405.4.4,0,0,0,.272.1.549.549,0,0,0,.287-.072,6.366,6.366,0,0,0,.83-.748v.574q-1.148,1.539-2.194,1.538a1,1,0,0,1-.8-.348A1.882,1.882,0,0,1,436.227,854.734Zm0-.666v-3.579a20.114,20.114,0,0,0-2,.872,3.466,3.466,0,0,0-1.159.944,1.822,1.822,0,0,0-.348,1.076,1.757,1.757,0,0,0,.441,1.225,1.336,1.336,0,0,0,1.015.488A3.722,3.722,0,0,0,436.227,854.068Z" fill="#231f20"/><path d="M445.644,841.507l-5.035,14.868h-.82l5.035-14.868Z" fill="#231f20"/><path d="M453.619,848.387l2.984,4.451a12.315,12.315,0,0,0,1.84,2.332,2.576,2.576,0,0,0,1.523.539v.379H454v-.379a2.7,2.7,0,0,0,.881-.123.851.851,0,0,0,.354-.282.653.653,0,0,0,.139-.385,1.279,1.279,0,0,0-.093-.472,8.084,8.084,0,0,0-.564-.9l-2.358-3.568-2.912,3.732a5.57,5.57,0,0,0-.554.8.984.984,0,0,0-.092.415.663.663,0,0,0,.277.544,1.972,1.972,0,0,0,1.056.246v.379H445.2v-.379a2.993,2.993,0,0,0,.9-.216,5.231,5.231,0,0,0,1.21-.718,8.373,8.373,0,0,0,1.312-1.384l3.282-4.143-2.738-4.009a8.036,8.036,0,0,0-1.9-2.137,3.421,3.421,0,0,0-1.794-.54v-.378h6.429v.378a2.06,2.06,0,0,0-1.123.268.665.665,0,0,0-.3.523,2.322,2.322,0,0,0,.493,1.107l2.132,3.188,2.472-3.127a5.3,5.3,0,0,0,.527-.758.972.972,0,0,0,.1-.421.615.615,0,0,0-.123-.379.82.82,0,0,0-.39-.3,3.653,3.653,0,0,0-.974-.1v-.378h4.932v.378a2.933,2.933,0,0,0-.953.186,3.837,3.837,0,0,0-1.015.635,11.6,11.6,0,0,0-1.3,1.476Z" fill="#231f20"/><path d="M464.5,849.576v4.051a2.846,2.846,0,0,0,.287,1.631,1.474,1.474,0,0,0,1.179.451h.534v.379H460.54v-.379h.523a1.4,1.4,0,0,0,1.261-.574,3.382,3.382,0,0,0,.2-1.508v-8.982a2.928,2.928,0,0,0-.277-1.631,1.508,1.508,0,0,0-1.189-.452h-.523v-.378h5.1a9.045,9.045,0,0,1,2.943.384,4.049,4.049,0,0,1,1.815,1.3,3.337,3.337,0,0,1,.738,2.164,3.644,3.644,0,0,1-1.122,2.768,4.425,4.425,0,0,1-3.174,1.066,8.92,8.92,0,0,1-1.087-.071C465.359,849.744,464.942,849.673,464.5,849.576Zm0-.584c.362.069.684.12.964.154a5.881,5.881,0,0,0,.718.051,2.442,2.442,0,0,0,1.841-.825,3,3,0,0,0,.773-2.138,3.842,3.842,0,0,0-.369-1.676,2.546,2.546,0,0,0-1.046-1.16,3.069,3.069,0,0,0-1.538-.384,6.068,6.068,0,0,0-1.343.195Z" fill="#231f20"/><path d="M477.525,841.507l-5.034,14.868h-.821l5.035-14.868Z" fill="#231f20"/><path d="M486.556,853.412l-.974,2.676h-8.2v-.379a36.97,36.97,0,0,0,5.1-5.395,6.816,6.816,0,0,0,1.477-3.824,3.026,3.026,0,0,0-.81-2.174,2.584,2.584,0,0,0-1.938-.851,3.027,3.027,0,0,0-1.841.6,3.484,3.484,0,0,0-1.2,1.759h-.379a4.768,4.768,0,0,1,1.318-2.912,3.678,3.678,0,0,1,2.65-1.016,3.924,3.924,0,0,1,2.825,1.087,3.44,3.44,0,0,1,1.133,2.564,4.964,4.964,0,0,1-.492,2.112,13.906,13.906,0,0,1-2.461,3.517q-2.553,2.79-3.189,3.363h3.63a9.745,9.745,0,0,0,1.553-.082,2,2,0,0,0,.805-.333,2.176,2.176,0,0,0,.626-.712Z" fill="#231f20"/><path d="M487.956,849.218a10.609,10.609,0,0,1,.717-4.1,5.753,5.753,0,0,1,1.908-2.559,3.226,3.226,0,0,1,1.907-.666,3.627,3.627,0,0,1,2.871,1.631A8.628,8.628,0,0,1,496.948,849a10.79,10.79,0,0,1-.7,4.112,5.442,5.442,0,0,1-1.779,2.456,3.645,3.645,0,0,1-2.087.764q-1.989,0-3.312-2.348A9.553,9.553,0,0,1,487.956,849.218Zm2.009.257a13.066,13.066,0,0,0,.708,4.685q.584,1.529,1.743,1.528a1.817,1.817,0,0,0,1.148-.5,3.156,3.156,0,0,0,.9-1.666,20.285,20.285,0,0,0,.471-4.973,13.624,13.624,0,0,0-.492-3.968,3.524,3.524,0,0,0-.953-1.671,1.568,1.568,0,0,0-1.015-.339,1.613,1.613,0,0,0-1.241.626,5.229,5.229,0,0,0-1,2.676A24.852,24.852,0,0,0,489.965,849.475Z" fill="#231f20"/><path d="M498.225,849.218a10.609,10.609,0,0,1,.717-4.1,5.753,5.753,0,0,1,1.908-2.559,3.226,3.226,0,0,1,1.907-.666,3.627,3.627,0,0,1,2.871,1.631,8.622,8.622,0,0,1,1.59,5.475,10.829,10.829,0,0,1-.7,4.112,5.451,5.451,0,0,1-1.78,2.456,3.643,3.643,0,0,1-2.087.764q-1.989,0-3.312-2.348A9.553,9.553,0,0,1,498.225,849.218Zm2.009.257a13.066,13.066,0,0,0,.708,4.685q.584,1.529,1.743,1.528a1.817,1.817,0,0,0,1.148-.5,3.162,3.162,0,0,0,.9-1.666,20.219,20.219,0,0,0,.473-4.973,13.624,13.624,0,0,0-.492-3.968,3.524,3.524,0,0,0-.954-1.671,1.568,1.568,0,0,0-1.015-.339,1.611,1.611,0,0,0-1.241.626,5.229,5.229,0,0,0-1,2.676A24.852,24.852,0,0,0,500.234,849.475Z" fill="#231f20"/><path d="M508.389,849.218a10.609,10.609,0,0,1,.717-4.1,5.753,5.753,0,0,1,1.908-2.559,3.226,3.226,0,0,1,1.907-.666,3.627,3.627,0,0,1,2.871,1.631,8.622,8.622,0,0,1,1.59,5.475,10.829,10.829,0,0,1-.7,4.112,5.451,5.451,0,0,1-1.78,2.456,3.643,3.643,0,0,1-2.087.764q-1.989,0-3.311-2.348A9.542,9.542,0,0,1,508.389,849.218Zm2.009.257a13.066,13.066,0,0,0,.708,4.685q.584,1.529,1.743,1.528a1.817,1.817,0,0,0,1.148-.5,3.156,3.156,0,0,0,.9-1.666,20.219,20.219,0,0,0,.473-4.973,13.624,13.624,0,0,0-.492-3.968,3.524,3.524,0,0,0-.954-1.671,1.566,1.566,0,0,0-1.015-.339,1.611,1.611,0,0,0-1.241.626,5.229,5.229,0,0,0-1,2.676A24.852,24.852,0,0,0,510.4,849.475Z" fill="#231f20"/><path d="M145.113,888.665v4.81h-.379a6,6,0,0,0-.661-2.2,3.447,3.447,0,0,0-1.359-1.3,3.751,3.751,0,0,0-1.825-.483,2.484,2.484,0,0,0-1.764.652,1.98,1.98,0,0,0-.7,1.481,1.752,1.752,0,0,0,.441,1.159,11.3,11.3,0,0,0,3.025,2.051,20.957,20.957,0,0,1,2.66,1.605,3.929,3.929,0,0,1,1.1,1.318,3.473,3.473,0,0,1,.384,1.589,3.6,3.6,0,0,1-1.225,2.722,4.439,4.439,0,0,1-3.153,1.144,6.613,6.613,0,0,1-1.138-.093,11.654,11.654,0,0,1-1.318-.374,5.867,5.867,0,0,0-1.266-.323.54.54,0,0,0-.405.153,1.23,1.23,0,0,0-.221.637h-.379v-4.768h.379a6.732,6.732,0,0,0,.718,2.24,3.441,3.441,0,0,0,1.379,1.235,4.275,4.275,0,0,0,2.035.492,2.888,2.888,0,0,0,2.025-.676,2.094,2.094,0,0,0,.744-1.6,2.168,2.168,0,0,0-.282-1.036,3.079,3.079,0,0,0-.877-.974,25.034,25.034,0,0,0-2.184-1.308,21.17,21.17,0,0,1-2.537-1.594,4.3,4.3,0,0,1-1.144-1.313,3.252,3.252,0,0,1-.39-1.579,3.424,3.424,0,0,1,1.149-2.579,4.092,4.092,0,0,1,2.922-1.082,5.869,5.869,0,0,1,2.348.544,2.422,2.422,0,0,0,.81.257.616.616,0,0,0,.436-.159,1.27,1.27,0,0,0,.272-.642Z" fill="#231f20"/><path d="M150.348,888.307v6.87a7.9,7.9,0,0,1,1.8-1.605,2.823,2.823,0,0,1,1.333-.354,2.186,2.186,0,0,1,1.374.441,2.6,2.6,0,0,1,.851,1.385,9.785,9.785,0,0,1,.195,2.4v3.323a3.457,3.457,0,0,0,.144,1.22.8.8,0,0,0,.348.39,1.963,1.963,0,0,0,.9.144v.369h-4.614v-.369h.215a1.528,1.528,0,0,0,.912-.2,1.052,1.052,0,0,0,.359-.589,8,8,0,0,0,.031-.964v-3.323a7.969,7.969,0,0,0-.159-2.019,1.362,1.362,0,0,0-.507-.723,1.442,1.442,0,0,0-.841-.241,2.369,2.369,0,0,0-1.046.267,5,5,0,0,0-1.3,1.076v4.963a3.82,3.82,0,0,0,.108,1.2.869.869,0,0,0,.4.394,2.268,2.268,0,0,0,1.01.16v.369H147.21v-.369a2.061,2.061,0,0,0,.984-.2.723.723,0,0,0,.328-.388,3.539,3.539,0,0,0,.124-1.17v-8.5a14.206,14.206,0,0,0-.077-1.979.9.9,0,0,0-.236-.5.641.641,0,0,0-.426-.134,2.554,2.554,0,0,0-.7.164l-.144-.358,2.81-1.148Z" fill="#231f20"/><path d="M162.452,893.218a4.163,4.163,0,0,1,3.425,1.621,4.974,4.974,0,0,1,1.1,3.178,5.988,5.988,0,0,1-.6,2.553,4.294,4.294,0,0,1-4.03,2.6,3.982,3.982,0,0,1-3.373-1.692,5.24,5.24,0,0,1-1.056-3.2,5.669,5.669,0,0,1,.641-2.569,4.273,4.273,0,0,1,3.9-2.5Zm-.318.667a2.133,2.133,0,0,0-1.092.323,2.264,2.264,0,0,0-.887,1.133,5.465,5.465,0,0,0-.338,2.082,7.255,7.255,0,0,0,.815,3.537,2.427,2.427,0,0,0,2.148,1.486,2,2,0,0,0,1.641-.82,4.656,4.656,0,0,0,.646-2.819,6.428,6.428,0,0,0-1.077-3.938A2.218,2.218,0,0,0,162.134,893.885Z" fill="#231f20"/><path d="M172.721,893.218a4.163,4.163,0,0,1,3.425,1.621,4.974,4.974,0,0,1,1.1,3.178,5.973,5.973,0,0,1-.6,2.553,4.294,4.294,0,0,1-4.03,2.6,3.982,3.982,0,0,1-3.373-1.692,5.24,5.24,0,0,1-1.056-3.2,5.669,5.669,0,0,1,.641-2.569,4.273,4.273,0,0,1,3.9-2.5Zm-.318.667a2.133,2.133,0,0,0-1.092.323,2.264,2.264,0,0,0-.887,1.133,5.465,5.465,0,0,0-.338,2.082,7.255,7.255,0,0,0,.815,3.537,2.427,2.427,0,0,0,2.148,1.486,2,2,0,0,0,1.641-.82,4.656,4.656,0,0,0,.646-2.819,6.428,6.428,0,0,0-1.077-3.938A2.218,2.218,0,0,0,172.4,893.885Z" fill="#231f20"/><path d="M181.124,890.409V893.5h2.194v.718h-2.194V900.3a2.039,2.039,0,0,0,.262,1.23.83.83,0,0,0,.671.319,1.175,1.175,0,0,0,.656-.211,1.356,1.356,0,0,0,.493-.621h.4a3.216,3.216,0,0,1-1.015,1.513,2.19,2.19,0,0,1-1.353.508,1.823,1.823,0,0,1-.923-.262,1.586,1.586,0,0,1-.667-.749,3.938,3.938,0,0,1-.215-1.5v-6.316h-1.487v-.339a3.846,3.846,0,0,0,1.154-.764,6.066,6.066,0,0,0,1.051-1.276,11.452,11.452,0,0,0,.656-1.425Z" fill="#231f20"/><path d="M191.746,890.409V893.5h2.194v.718h-2.194V900.3a2.039,2.039,0,0,0,.262,1.23.83.83,0,0,0,.671.319,1.173,1.173,0,0,0,.656-.211,1.356,1.356,0,0,0,.493-.621h.4a3.225,3.225,0,0,1-1.016,1.513,2.19,2.19,0,0,1-1.353.508,1.823,1.823,0,0,1-.923-.262,1.579,1.579,0,0,1-.666-.749,3.914,3.914,0,0,1-.216-1.5v-6.316h-1.487v-.339a3.846,3.846,0,0,0,1.154-.764,6.066,6.066,0,0,0,1.051-1.276,11.452,11.452,0,0,0,.656-1.425Z" fill="#231f20"/><path d="M197.17,888.307v6.87a7.918,7.918,0,0,1,1.805-1.605,2.82,2.82,0,0,1,1.333-.354,2.19,2.19,0,0,1,1.374.441,2.6,2.6,0,0,1,.851,1.385,9.785,9.785,0,0,1,.2,2.4v3.323a3.457,3.457,0,0,0,.144,1.22.8.8,0,0,0,.348.39,1.96,1.96,0,0,0,.9.144v.369h-4.615v-.369h.216a1.53,1.53,0,0,0,.912-.2,1.052,1.052,0,0,0,.359-.589,8,8,0,0,0,.031-.964v-3.323a7.969,7.969,0,0,0-.159-2.019,1.358,1.358,0,0,0-.508-.723,1.436,1.436,0,0,0-.84-.241,2.369,2.369,0,0,0-1.046.267,4.982,4.982,0,0,0-1.3,1.076v4.963a3.852,3.852,0,0,0,.108,1.2.871.871,0,0,0,.4.394,2.265,2.265,0,0,0,1.01.16v.369h-4.655v-.369a2.061,2.061,0,0,0,.984-.2.723.723,0,0,0,.328-.388,3.548,3.548,0,0,0,.123-1.17v-8.5a14.451,14.451,0,0,0-.076-1.979.89.89,0,0,0-.237-.5.638.638,0,0,0-.425-.134,2.546,2.546,0,0,0-.7.164l-.144-.358,2.81-1.148Z" fill="#231f20"/><path d="M206.26,897.032a4.823,4.823,0,0,0,1.015,3.281,3.094,3.094,0,0,0,2.41,1.19,2.617,2.617,0,0,0,1.6-.507,3.758,3.758,0,0,0,1.143-1.738l.318.2a4.9,4.9,0,0,1-1.251,2.558,3.34,3.34,0,0,1-2.594,1.154,3.79,3.79,0,0,1-2.9-1.318,5.047,5.047,0,0,1-1.2-3.543,5.352,5.352,0,0,1,1.236-3.757,4.025,4.025,0,0,1,3.1-1.349,3.468,3.468,0,0,1,2.594,1.041,3.813,3.813,0,0,1,1.015,2.783Zm0-.594h4.348a4.026,4.026,0,0,0-.215-1.271,2.029,2.029,0,0,0-.765-.9,1.918,1.918,0,0,0-1.061-.328,2.112,2.112,0,0,0-1.523.661A2.869,2.869,0,0,0,206.26,896.438Z" fill="#231f20"/><path d="M227.939,895.792a4.466,4.466,0,0,1,2.164.984,3.059,3.059,0,0,1,.994,2.307,3.434,3.434,0,0,1-.656,1.984,3.756,3.756,0,0,1-1.8,1.385,10.449,10.449,0,0,1-3.491.436h-6.563v-.379h.523a1.408,1.408,0,0,0,1.251-.555,3.179,3.179,0,0,0,.236-1.527v-8.983a2.827,2.827,0,0,0-.3-1.631,1.513,1.513,0,0,0-1.19-.451h-.523v-.379H224.6a11.876,11.876,0,0,1,2.7.246,4.334,4.334,0,0,1,2.348,1.308,3.205,3.205,0,0,1,.81,2.158,2.981,2.981,0,0,1-.636,1.871A3.722,3.722,0,0,1,227.939,895.792Zm-5.373-.554a7.737,7.737,0,0,0,.866.108q.488.036,1.072.036a6,6,0,0,0,2.25-.323,2.4,2.4,0,0,0,1.154-.99,2.772,2.772,0,0,0,.4-1.456,2.656,2.656,0,0,0-1-2.081,4.313,4.313,0,0,0-2.9-.861,6.982,6.982,0,0,0-1.846.225Zm0,6.645a10.366,10.366,0,0,0,2.348.276,4.232,4.232,0,0,0,2.83-.835,2.615,2.615,0,0,0,.974-2.066,3.03,3.03,0,0,0-.441-1.559,2.951,2.951,0,0,0-1.435-1.178,6.185,6.185,0,0,0-2.461-.432c-.424,0-.786.008-1.087.021a5.434,5.434,0,0,0-.728.072Z" fill="#231f20"/><path d="M240.905,893.5v5.692a14.588,14.588,0,0,0,.076,1.994.9.9,0,0,0,.247.507.589.589,0,0,0,.395.143,1.826,1.826,0,0,0,.717-.174l.144.36-2.81,1.158h-.461v-1.989a8.6,8.6,0,0,1-1.846,1.651,2.824,2.824,0,0,1-1.343.338,2.154,2.154,0,0,1-1.369-.456,2.363,2.363,0,0,1-.805-1.175,7.1,7.1,0,0,1-.225-2.029V895.32a2.063,2.063,0,0,0-.144-.923.962.962,0,0,0-.425-.394,2.505,2.505,0,0,0-1.021-.129V893.5h3.292v6.285a2.348,2.348,0,0,0,.456,1.723,1.588,1.588,0,0,0,1.1.41,2.305,2.305,0,0,0,1-.276,5.425,5.425,0,0,0,1.328-1.056v-5.322a1.512,1.512,0,0,0-.292-1.082,1.9,1.9,0,0,0-1.215-.3V893.5Z" fill="#231f20"/><path d="M246.17,888.307v12.458a3.4,3.4,0,0,0,.128,1.17.9.9,0,0,0,.4.435,2.271,2.271,0,0,0,.995.149v.369h-4.6v-.369a1.988,1.988,0,0,0,.882-.133.884.884,0,0,0,.369-.442,3.42,3.42,0,0,0,.134-1.179v-8.532a14.754,14.754,0,0,0-.072-1.953.863.863,0,0,0-.23-.5.613.613,0,0,0-.406-.134,1.953,1.953,0,0,0-.677.164l-.174-.358,2.8-1.148Z" fill="#231f20"/><path d="M251.773,888.307v12.458a3.392,3.392,0,0,0,.129,1.17.908.908,0,0,0,.394.435,2.274,2.274,0,0,0,1,.149v.369h-4.6v-.369a1.988,1.988,0,0,0,.882-.133.894.894,0,0,0,.369-.442,3.427,3.427,0,0,0,.133-1.179v-8.532A15.025,15.025,0,0,0,250,890.28a.857.857,0,0,0-.231-.5.609.609,0,0,0-.405-.134,1.943,1.943,0,0,0-.677.164l-.174-.358,2.8-1.148Z" fill="#231f20"/><path d="M255.831,897.032a4.823,4.823,0,0,0,1.015,3.281,3.094,3.094,0,0,0,2.41,1.19,2.612,2.612,0,0,0,1.6-.507A3.751,3.751,0,0,0,262,899.258l.318.2a4.9,4.9,0,0,1-1.251,2.558,3.342,3.342,0,0,1-2.594,1.154,3.79,3.79,0,0,1-2.9-1.318,5.043,5.043,0,0,1-1.205-3.543,5.356,5.356,0,0,1,1.235-3.757,4.028,4.028,0,0,1,3.1-1.349,3.469,3.469,0,0,1,2.6,1.041,3.817,3.817,0,0,1,1.015,2.783Zm0-.594h4.348a3.991,3.991,0,0,0-.216-1.271,2.027,2.027,0,0,0-.764-.9,1.922,1.922,0,0,0-1.061-.328,2.112,2.112,0,0,0-1.523.661A2.864,2.864,0,0,0,255.831,896.438Z" fill="#231f20"/><path d="M266.069,890.409V893.5h2.195v.718h-2.195V900.3a2.039,2.039,0,0,0,.262,1.23.83.83,0,0,0,.671.319,1.178,1.178,0,0,0,.657-.211,1.348,1.348,0,0,0,.492-.621h.4a3.223,3.223,0,0,1-1.015,1.513,2.2,2.2,0,0,1-1.354.508,1.826,1.826,0,0,1-.923-.262,1.579,1.579,0,0,1-.666-.749,3.914,3.914,0,0,1-.216-1.5v-6.316h-1.486v-.339a3.842,3.842,0,0,0,1.153-.764,6.035,6.035,0,0,0,1.051-1.276,11.452,11.452,0,0,0,.656-1.425Z" fill="#231f20"/><path d="M283.084,898.232H277.7l-.944,2.2a3.477,3.477,0,0,0-.348,1.21.7.7,0,0,0,.3.558,2.641,2.641,0,0,0,1.308.314v.379H273.64v-.379a2.375,2.375,0,0,0,1.128-.4,6.266,6.266,0,0,0,1.159-2l4.891-11.443h.359l4.84,11.566a5.257,5.257,0,0,0,1.061,1.811,2.167,2.167,0,0,0,1.328.467v.379H282.92v-.379a2.048,2.048,0,0,0,1.122-.278.71.71,0,0,0,.293-.574,4.272,4.272,0,0,0-.41-1.426Zm-.287-.758-2.359-5.62-2.419,5.62Z" fill="#231f20"/><path d="M291.054,899.463a3.083,3.083,0,0,1-1.784-2.841,3.2,3.2,0,0,1,1.051-2.4,3.733,3.733,0,0,1,2.691-1.006,4.109,4.109,0,0,1,2.328.656h1.989a2.614,2.614,0,0,1,.513.026.171.171,0,0,1,.1.087.629.629,0,0,1,.062.328.926.926,0,0,1-.051.37.219.219,0,0,1-.108.082,2.3,2.3,0,0,1-.518.031h-1.22a3.164,3.164,0,0,1-.431,4.132,3.806,3.806,0,0,1-2.7.932,5.2,5.2,0,0,1-1.425-.2,2.715,2.715,0,0,0-.61.683,1.085,1.085,0,0,0-.159.5.471.471,0,0,0,.17.338,1.232,1.232,0,0,0,.661.236q.287.041,1.435.072,2.112.053,2.738.143a2.581,2.581,0,0,1,1.523.708,1.933,1.933,0,0,1,.569,1.415,2.966,2.966,0,0,1-1.087,2.174,5.863,5.863,0,0,1-4.173,1.5,5.981,5.981,0,0,1-3.343-.892q-.769-.513-.769-1.066a1.16,1.16,0,0,1,.113-.492,5.683,5.683,0,0,1,.717-1.057q.072-.091,1.046-1.107a3.238,3.238,0,0,1-.754-.57.836.836,0,0,1-.22-.569,1.679,1.679,0,0,1,.293-.84A6.716,6.716,0,0,1,291.054,899.463Zm-.1,3.425a5.034,5.034,0,0,0-.728.974,1.753,1.753,0,0,0-.246.83,1.037,1.037,0,0,0,.6.862,5.661,5.661,0,0,0,2.963.635,4.573,4.573,0,0,0,2.722-.651,1.786,1.786,0,0,0,.877-1.389.776.776,0,0,0-.523-.759,6.788,6.788,0,0,0-2.112-.266A33.8,33.8,0,0,1,290.951,902.888Zm1.887-9.178a1.6,1.6,0,0,0-1.272.605,2.832,2.832,0,0,0-.512,1.856,3.994,3.994,0,0,0,.7,2.513,1.651,1.651,0,0,0,1.353.676,1.617,1.617,0,0,0,1.282-.584,2.779,2.779,0,0,0,.5-1.836,4.1,4.1,0,0,0-.708-2.552A1.625,1.625,0,0,0,292.838,893.71Z" fill="#231f20"/><path d="M304.132,901.534a15.487,15.487,0,0,1-1.815,1.292,2.771,2.771,0,0,1-1.179.257,2.117,2.117,0,0,1-1.6-.667,2.446,2.446,0,0,1-.63-1.753,2.232,2.232,0,0,1,.307-1.189,4.079,4.079,0,0,1,1.462-1.313,22.8,22.8,0,0,1,3.46-1.5v-.369a3.077,3.077,0,0,0-.445-1.928,1.617,1.617,0,0,0-1.3-.522,1.457,1.457,0,0,0-1.025.348,1.05,1.05,0,0,0-.39.8l.021.6a1.025,1.025,0,0,1-.241.728.826.826,0,0,1-.631.256.8.8,0,0,1-.62-.266,1.045,1.045,0,0,1-.241-.728,2.1,2.1,0,0,1,.9-1.621,3.9,3.9,0,0,1,2.533-.738,4.387,4.387,0,0,1,2.051.421,1.938,1.938,0,0,1,.892,1,5.607,5.607,0,0,1,.184,1.8v3.189a14.663,14.663,0,0,0,.051,1.645.7.7,0,0,0,.17.406.4.4,0,0,0,.271.1.553.553,0,0,0,.288-.072,6.366,6.366,0,0,0,.83-.748v.574q-1.149,1.539-2.194,1.538a1,1,0,0,1-.8-.348A1.887,1.887,0,0,1,304.132,901.534Zm0-.666v-3.579a20.17,20.17,0,0,0-2,.872,3.465,3.465,0,0,0-1.159.943,1.829,1.829,0,0,0-.349,1.077,1.757,1.757,0,0,0,.441,1.225,1.341,1.341,0,0,0,1.016.488A3.717,3.717,0,0,0,304.132,900.868Z" fill="#231f20"/><path d="M311.141,893.218v7.547a3.44,3.44,0,0,0,.128,1.174.9.9,0,0,0,.379.436,2.026,2.026,0,0,0,.918.144v.369H308v-.369a2.123,2.123,0,0,0,.923-.133.917.917,0,0,0,.374-.442,3.3,3.3,0,0,0,.138-1.179v-3.619a12.748,12.748,0,0,0-.092-1.979.812.812,0,0,0-.225-.457.641.641,0,0,0-.421-.128,2.085,2.085,0,0,0-.7.153l-.144-.369,2.83-1.148Zm-.851-4.911a1.033,1.033,0,0,1,1.035,1.036,1.014,1.014,0,0,1-.3.738.986.986,0,0,1-.732.307,1.041,1.041,0,1,1,0-2.081Z" fill="#231f20"/><path d="M316.452,895.208q1.65-1.989,3.148-1.99a2.262,2.262,0,0,1,1.322.385,2.569,2.569,0,0,1,.882,1.266,5.838,5.838,0,0,1,.226,1.887v4.009a3.4,3.4,0,0,0,.143,1.211.852.852,0,0,0,.364.4,2.059,2.059,0,0,0,.928.144v.369H318.82v-.369h.195a1.556,1.556,0,0,0,.918-.2,1.041,1.041,0,0,0,.364-.589,6.035,6.035,0,0,0,.041-.964V896.92a3.9,3.9,0,0,0-.333-1.861,1.192,1.192,0,0,0-1.123-.58,3.381,3.381,0,0,0-2.43,1.333v4.953a3.55,3.55,0,0,0,.112,1.179.949.949,0,0,0,.395.436,2.429,2.429,0,0,0,1.02.139v.369h-4.645v-.369h.206a1.1,1.1,0,0,0,.969-.365,2.657,2.657,0,0,0,.251-1.389v-3.487a15.183,15.183,0,0,0-.077-2.06.88.88,0,0,0-.236-.5.641.641,0,0,0-.426-.134,2.007,2.007,0,0,0-.687.153l-.153-.369,2.83-1.148h.441Z" fill="#231f20"/><path d="M327.123,899.206h-.39l-.9-8.305a7.89,7.89,0,0,1-.061-.81,1.505,1.505,0,0,1,.343-1.035,1.064,1.064,0,0,1,.825-.391,1.036,1.036,0,0,1,.816.391,1.739,1.739,0,0,1,.333,1.158q0,.246-.041.687Zm-.2,1.7a1.1,1.1,0,0,1,.805.333,1.085,1.085,0,0,1,.333.794,1.138,1.138,0,1,1-2.276,0,1.085,1.085,0,0,1,.333-.794A1.1,1.1,0,0,1,326.918,900.909Z" fill="#231f20"/></g><g id="上海_アリス幻樂団" data-name="上海■アリス幻樂団"><path d="M886.148,892.115a1.569,1.569,0,0,1,.842.217.635.635,0,0,1,.365.606l-.063,1.965h3.289a4.629,4.629,0,0,1,1.032.073.431.431,0,0,1,.239.447,1.082,1.082,0,0,1-.206.636.742.742,0,0,1-.557.231q-.27,0-1.112-.044c-.53-.009-1.012-.015-1.446-.015-.339,0-.778.006-1.318.015l-.1,2.816q2.637.087,6.593.622a2.591,2.591,0,0,1-.477,1.314.82.82,0,0,1-.682.419,6,6,0,0,1-1.224-.217,24.056,24.056,0,0,0-5.37-.636,18.719,18.719,0,0,0-5.242.694,4.135,4.135,0,0,1-1.065.217.9.9,0,0,1-.6-.275.721.721,0,0,1-.285-.519.859.859,0,0,1,.761-.925,24.793,24.793,0,0,1,5.657-.694l-.064-6.124a.691.691,0,0,1,.286-.577A1.032,1.032,0,0,1,886.148,892.115Z" fill="#231f20"/><path d="M879.412,910.305l2.669.057q.444.115.444.362,0,.375-.9.678a20.665,20.665,0,0,1-2.161.535.906.906,0,0,1-.492-.232.608.608,0,0,1-.254-.462,1.22,1.22,0,0,1,.206-.649A.657.657,0,0,1,879.412,910.305Zm1.144-3.755a2.19,2.19,0,0,1,1.175.649q1.224,1.026,1.224,1.257c0,.24-.143.361-.43.361a2.728,2.728,0,0,1-.634-.1,9.367,9.367,0,0,0-1.51-.173q-.793-.073-.794-1.055a.893.893,0,0,1,.3-.664A1.046,1.046,0,0,1,880.556,906.55Zm1.128,6.542c.179,0,.27.072.27.217q0,.26-.238,1.978-.065.621-.859.621a1.314,1.314,0,0,1-.747-.2.8.8,0,0,1-.317-.649.9.9,0,0,1,.238-.463l1.3-1.314A.582.582,0,0,1,881.684,913.092Zm3.829-4.059a1.181,1.181,0,0,1,.619.145.207.207,0,0,1,.08.044q1.032-.058,2.652-.059,2.575,0,3.258.072c.211.02.317.092.317.217a1.555,1.555,0,0,1-.127.319,8.211,8.211,0,0,0-.476,1.66q.938.058,1.985.144a2.033,2.033,0,0,1-.365,1.084.737.737,0,0,1-.572.375,3.645,3.645,0,0,1-.937-.2c-.137-.029-.27-.058-.4-.087-.032.145-.059.294-.079.448s-.07.3-.112.448q.731.043,1.319.072c.179.029.27.087.27.174a.949.949,0,0,1-.207.634.716.716,0,0,1-.555.247q-.288,0-1.161-.058a3.093,3.093,0,0,1-.508.91,1.077,1.077,0,0,1-.873.534,1.386,1.386,0,0,1-1.161-.693,2.4,2.4,0,0,0,.715-.838q-1.62-.043-3.94-.043a3.738,3.738,0,0,0-1.207.145,1.3,1.3,0,0,1-.4.1.672.672,0,0,1-.444-.159.39.39,0,0,1-.19-.36,1.435,1.435,0,0,1,.158-.477q.222-.564.445-1.141c-.138.029-.27.052-.4.072a4.552,4.552,0,0,1-.969.159.538.538,0,0,1-.382-.2.435.435,0,0,1-.19-.319.548.548,0,0,1,.508-.577,17.242,17.242,0,0,1,1.891-.332q.365-.983.73-2.037Q884.941,909.034,885.513,909.033Zm-.4-2.642a2.7,2.7,0,0,1,1.033.172c.2.117.3.251.3.4a.836.836,0,0,1-.111.361q1.048-.087,2.875-.087,2.892,0,4.306.131a1.99,1.99,0,0,1-.287,1.025.45.45,0,0,1-.413.246q-.332,0-1.366-.058-1.651-.13-2.732-.13-1.4,0-2.542.115a7.736,7.736,0,0,1-.858.073.309.309,0,0,1-.1-.015.664.664,0,0,0-.127.116,3.233,3.233,0,0,1-2.018,1.054c-.286,0-.43-.081-.43-.245,0-.077.07-.179.207-.3a7.869,7.869,0,0,0,1.43-1.5,1.692,1.692,0,0,0,.4-.9.767.767,0,0,0-.208-.419A3.721,3.721,0,0,1,885.115,906.391Zm1.557,7.164.318-1.2c-.561.02-1.1.053-1.621.1l-.381,1.039c0,.039.132.059.4.059Zm-.9-2.2q.7-.043,1.509-.058l.3-1.1q-.779.015-1.414.044Zm3.844,2.239a.1.1,0,0,0,.016-.043l.35-1.084a15.381,15.381,0,0,0-1.716-.13l-.318,1.227C888.536,913.568,889.093,913.578,889.611,913.6Zm-.762-3.395-.318,1.1q.827,0,1.78.044a5.573,5.573,0,0,0,.206-.983Q890.517,910.22,888.849,910.2Z" fill="#231f20"/><path d="M892.328,931.193H880.11V920.029h12.218Z" fill="#231f20"/><path d="M870.7,895.972a8.6,8.6,0,0,1-.159,1.965,3.04,3.04,0,0,1-1,1.588,5.783,5.783,0,0,1-2.4,1.314,6.2,6.2,0,0,1-1.828.318q-1.317,0-1.318-.91a2.272,2.272,0,0,1,1.1-2.051q.144.52.953.52a2.138,2.138,0,0,0,2.225-1.242,3.11,3.11,0,0,0,.207-.91v-.65q0-.736.984-.736a2.25,2.25,0,0,1,.874.115A.677.677,0,0,1,870.7,895.972Zm5.8-2.008a.722.722,0,0,1-.333.593,6.968,6.968,0,0,0-.684.419,1.541,1.541,0,0,0-.524.36q-1.764,1.806-2.367,1.806-.731,0-.731-.549a4.934,4.934,0,0,1,.6-1.155.922.922,0,0,0,.111-.333c0-.25-.143-.376-.428-.376-.033,0-.361-.008-.986-.028s-1.012-.044-1.16-.044a18.442,18.442,0,0,0-3.034.246q-1.479.232-1.573.231a1.06,1.06,0,0,1-.588-.188.862.862,0,0,1-.366-.693,1.016,1.016,0,0,1,1.017-1.1,23.1,23.1,0,0,1,2.972-.187q3.431,0,5.8.187a7.922,7.922,0,0,1,1.747.275Q876.5,893.618,876.5,893.964Z" fill="#231f20"/><path d="M874.544,907.878q0,.261-.159,2.095a6.049,6.049,0,0,1-2,4.433,6.8,6.8,0,0,1-4.227,1.142,6.271,6.271,0,0,1-1.35-.1c-.562-.125-.842-.384-.842-.78q0-.923,1.462-1.906a1.737,1.737,0,0,0,1.477.491,3.01,3.01,0,0,0,1.843-.693,3.67,3.67,0,0,0,1.3-3.048v-.9c.011-.385.015-.611.015-.678q0-.78,1.255-.78a1.841,1.841,0,0,1,.795.173C874.4,907.474,874.544,907.656,874.544,907.878Zm-6.212-.072q0,.174-.016,1.242-.015,1.084-.015,1.459,0,1.488-1.224,1.487-.954,0-.953-1.054c0-.125-.017-.583-.048-1.372s-.032-1.334-.032-1.632q0-.75,1.192-.751Q868.333,907.185,868.332,907.806Z" fill="#231f20"/><path d="M875.942,929a2.063,2.063,0,0,1-1.477.91,1.561,1.561,0,0,1-.89-.448q-.191-.144-.636-.491c-.275-.221-.513-.405-.714-.549a15.645,15.645,0,0,0-2.542-1.4q-2.812,2.425-4.957,2.425c-.562,0-.842-.3-.842-.909a3.419,3.419,0,0,1,.9-1.848.923.923,0,0,0,.667.245,3.812,3.812,0,0,0,1.542-.448,7.6,7.6,0,0,0,1.6-.954,11.08,11.08,0,0,0,1.016-.953q.429-.476.429-.621c0-.153-.153-.23-.461-.23a22.375,22.375,0,0,0-2.764.144q-1.113.115-1.017.115a.9.9,0,0,1-.842-.924q0-.867,1.08-.867l1.8-.029q1.858-.072,2.78-.072a8.085,8.085,0,0,1,2.573.246c.319.115.477.289.477.519a.557.557,0,0,1-.27.434,3.7,3.7,0,0,0-.508.4q-.494.52-1.859,2.051a12.285,12.285,0,0,0,3.146,1.387q.683.216,2.065.563c.1.02.217.048.365.087h.016A2.221,2.221,0,0,1,875.942,929Z" fill="#231f20"/><path d="M851.563,892.015a.948.948,0,0,1,.684.216.844.844,0,0,1,.254.578,1.447,1.447,0,0,1-.588.982l-1.922,1.487q-.412.376-.413.477c0,.144.18.3.54.476l.715.261q.984-.78,1.923-1.56a1.4,1.4,0,0,1,.842-.433.9.9,0,0,1,.507.188.663.663,0,0,1,.255.491,1.7,1.7,0,0,1-.731,1.242l-3.019,2.44,2.463.073c.085,0,.127-.053.127-.16q-.636-.633-.636-.808c0-.27.149-.4.446-.4a4.1,4.1,0,0,1,1.683,1.04q1.05.822,1.049,1.27,0,.636-.572.636a4.783,4.783,0,0,1-.667-.1,19.032,19.032,0,0,0-1.97-.072H850.42a11.083,11.083,0,0,0-2.066.145,2.075,2.075,0,0,1-.476.144c-.647,0-.969-.193-.969-.578a1.546,1.546,0,0,1,.763-1.141q.9-.664,1.763-1.314a12.375,12.375,0,0,0-1.874-.751q-.716-.2-.715-.491t.634-.853l2.686-2.629A2.535,2.535,0,0,1,851.563,892.015Zm6.166.519q2.6,0,3.383.087.492.087.492.317a.66.66,0,0,1-.111.261,1.537,1.537,0,0,0-.222.823l-.095,4.145a3.585,3.585,0,0,1-1.287,2.6,3.391,3.391,0,0,1-2.16.837,1.249,1.249,0,0,1-.875-.375,3.319,3.319,0,0,1-.778-1.416,6.132,6.132,0,0,0,2.558-.793,2.078,2.078,0,0,0,.874-1.849V894.21c0-.125-.091-.188-.271-.188q-2.3,0-3.7.116a6,6,0,0,1-1,.13.655.655,0,0,1-.476-.275.834.834,0,0,1-.223-.606q0-.592.874-.781Q855.154,892.536,857.729,892.534Z" fill="#231f20"/><path d="M849.832,906.55a.647.647,0,0,1,.7.635.654.654,0,0,1-.3.462l-1,.707c-.149.125-.223.2-.223.232s.079.077.238.115l.286.058.684-.563a.886.886,0,0,1,.523-.246.442.442,0,0,1,.493.506.61.61,0,0,1-.334.5l-1.7,1.228c0,.039.048.058.144.058h1.128c.094,0,.142-.019.142-.058a1.894,1.894,0,0,1-.206-.52c0-.145.112-.217.333-.217.181,0,.451.179.811.534q.461.492.461.738c0,.307-.17.462-.509.462a2.707,2.707,0,0,1-.429-.058h-1.366a14.933,14.933,0,0,0-1.827.087,1.523,1.523,0,0,1-.381.086.422.422,0,0,1-.27-.1.292.292,0,0,1-.127-.26q0-.187.476-.535l.874-.751a8.453,8.453,0,0,0-1.1-.389q-.381-.087-.381-.232c0-.1.127-.255.381-.476l1.636-1.5A1.575,1.575,0,0,1,849.832,906.55Zm4.575-.275a2.919,2.919,0,0,1,.938.1q.222.072.222.231a.979.979,0,0,1-.159.477,12.8,12.8,0,0,1,1.685.145c.159.028.238.095.238.2q-.079.345-.19,1.025l.174-.159,1.621-1.4a1.552,1.552,0,0,1,.826-.462.665.665,0,0,1,.509.187.68.68,0,0,1,.19.448q0,.188-.334.434l-1.1.635c-.148.106-.222.174-.222.2,0,.049.063.1.19.159l.3.13.572-.447a.914.914,0,0,1,.524-.232.448.448,0,0,1,.508.506c0,.183-.121.342-.365.477l-1.731,1.155c0,.029.042.043.127.043h1c.137,0,.207-.014.207-.043a1.694,1.694,0,0,1-.207-.477c0-.144.111-.216.334-.216q.269,0,.762.52c.3.3.445.529.445.692,0,.309-.149.463-.445.463h-1.811a13.352,13.352,0,0,0-1.7.086,1.271,1.271,0,0,1-.38.087.482.482,0,0,1-.3-.13.29.29,0,0,1-.111-.217.594.594,0,0,1-.223.044,1.716,1.716,0,0,1-.254-.044c-.308-.028-.731-.047-1.272-.057l.1.043a.952.952,0,0,1,.413.593q2.479.071,6.18.462a2.241,2.241,0,0,1-.444,1.2.777.777,0,0,1-.652.419,5.283,5.283,0,0,1-1.176-.232,22.014,22.014,0,0,0-3.924-.606l-.032,1.646a2.2,2.2,0,0,1-.334,1.285.883.883,0,0,1-.809.449,1.257,1.257,0,0,1-.826-.289q-.334-.217-.334-1.329V912.7a22.716,22.716,0,0,0-4.354.534,5.088,5.088,0,0,1-1.111.188.653.653,0,0,1-.43-.2.482.482,0,0,1-.206-.361.662.662,0,0,1,.571-.708,24.219,24.219,0,0,1,5.545-.664.884.884,0,0,1,.319-.549,1.309,1.309,0,0,1,.158-.1,8.917,8.917,0,0,0-1.048.1.715.715,0,0,1-.207.073c-.2,0-.323-.155-.365-.463l-.334-2.946a.35.35,0,0,1,.3-.347c.4-.068.81-.115,1.223-.145a1.3,1.3,0,0,0,.143-.447c0-.067-.069-.159-.206-.274A7.357,7.357,0,0,1,854.407,906.275Zm-3.034,7.221c.085,0,.127.039.127.116a1.953,1.953,0,0,1-.763,1.271,2.881,2.881,0,0,1-1.795.852c-.38,0-.572-.246-.572-.736a1.164,1.164,0,0,1,.271-.867c.021.077.121.115.3.115a3.8,3.8,0,0,0,1.843-.577A1.591,1.591,0,0,1,851.373,913.5Zm2.05-4.867a9.028,9.028,0,0,1,.937-.043q.571,0,1.16.043l.047-.5c0-.049-.037-.082-.111-.1a6.735,6.735,0,0,0-1.159-.072,3.033,3.033,0,0,0-.763.087c-.085.02-.127.048-.127.087Zm.238,1.344a4.82,4.82,0,0,1,.731-.058,5.979,5.979,0,0,1,.841.058.19.19,0,0,0,.207-.174l.032-.419c-.392-.028-.762-.043-1.112-.043s-.651.01-.906.029l.017.549C853.471,909.953,853.534,909.973,853.661,909.973Zm3.241.562c.074-.066.164-.148.27-.245l1.016-.794a6.914,6.914,0,0,0-.936-.476,1.011,1.011,0,0,1-.175-.087C857.023,909.385,856.966,909.92,856.9,910.535Zm.429,3.02a2.254,2.254,0,0,1,.842.23,9.051,9.051,0,0,0,1.971.694,2.567,2.567,0,0,1-.573,1.054,1.252,1.252,0,0,1-.762.26,1.32,1.32,0,0,1-.859-.477,3.02,3.02,0,0,1-.809-1.588C857.141,913.612,857.2,913.555,857.331,913.555Z" fill="#231f20"/><path d="M854.407,921.17a48.509,48.509,0,0,1,6.133.26c.371.049.557.154.557.318q-.318,1.977-.7,7.9c-.021.347-.154.52-.4.52-.1,0-.328-.024-.7-.072q-1.605-.144-4.925-.145-3.4,0-5.259.174a4,4,0,0,1-.619.1c-.2,0-.323-.15-.366-.448l-.635-7.8q0-.42.746-.52Q851.294,921.171,854.407,921.17Zm-4.638,7.452q1.3-.027,2.574-.043a.635.635,0,0,1-.144-.144,1.651,1.651,0,0,1-.334-1.083,5.836,5.836,0,0,0,2.24-.332.759.759,0,0,0,.494-.651v-1.632a19.936,19.936,0,0,0-3.115.26c-.508.067-.826.1-.953.1a.64.64,0,0,1-.445-.174.69.69,0,0,1-.175-.462.622.622,0,0,1,.43-.592,22.563,22.563,0,0,1,4.258-.217v-.693a.579.579,0,0,1,.142-.4h-.334q-2.382,0-4.431.158-.78.058-.78.174l.382,5.618C849.578,928.584,849.642,928.622,849.769,928.622Zm3.574-3.48a.375.375,0,0,1,.429.419c0,.077-.126.231-.381.461a4.915,4.915,0,0,1-1.223.723,3.071,3.071,0,0,1-1.064.245c-.33,0-.494-.135-.494-.4a1.467,1.467,0,0,1,.366-.852.278.278,0,0,0,.254.1,2.7,2.7,0,0,0,.842-.159,4.1,4.1,0,0,0,.953-.447A.6.6,0,0,1,853.343,925.142Zm2.717-2.585a.342.342,0,0,1,.08.216,3.12,3.12,0,0,0-.064.52v.376q1.207.042,2.526.158a2.017,2.017,0,0,1-.3,1.083.6.6,0,0,1-.46.189,5.794,5.794,0,0,1-.826-.1c-.34-.067-.652-.12-.938-.158v1.689a1.766,1.766,0,0,1-.906,1.632,4.9,4.9,0,0,1-.969.4h4.4c.127,0,.2-.081.207-.245l.365-5.488c0-.077-.138-.13-.413-.159Q857.824,922.585,856.06,922.557Z" fill="#231f20"/></g></g></svg>
