<svg xmlns="http://www.w3.org/2000/svg" width="1000" height="988" viewBox="0 0 1000 988"><g id="Artboard"><rect id="Tint" width="1000" height="988" fill="#58595b"/></g><g id="Outline"><g id="_12th_Touhou_Project_Shooting_Game_for_Windows_XP_2000_Chase_Flying_Fantastic_Object_" data-name="12th Touhou Project Shooting Game for Windows XP/2000 Chase Flying Fantastic Object！"><path id="_12th_Touhou_Project_Shooting_Game_for_Windows_XP_2000" data-name="12th Touhou Project Shooting Game for Windows XP/2000" d="M842.372,899.537a9.837,9.837,0,0,0-14.5-.28,9.809,9.809,0,0,0-14.215,0,9.8,9.8,0,0,0-13.87-.341,7.456,7.456,0,0,0-.873-.76l-.073-.052a8.349,8.349,0,0,0-4.866-1.5h-7a3.988,3.988,0,0,0-1.066.161l-.458-.187a3.995,3.995,0,0,0-5.157,2.045l-.616,1.352a7.675,7.675,0,0,0-2.04-1.923,8.852,8.852,0,0,0-4.911-1.448h-6.134a3.712,3.712,0,0,1-1.794,0h-1.418a4,4,0,0,0-3.154,1.54l-.844,1.081-.843-1.081a4,4,0,0,0-3.154-1.54H753.95a4,4,0,0,0-3.147,6.469l2.8,3.568-2.994,3.837a6.565,6.565,0,0,0-1.007-3.217,3.983,3.983,0,0,0,.4-1.754v-1.127a4,4,0,0,0-4-4H741.12a9.152,9.152,0,0,0-2.47.326,3.976,3.976,0,0,0-1.528-.326h-1.144a4,4,0,0,1-5.125,0h-1.06a4,4,0,0,1-5.125,0h-1.162a3.982,3.982,0,0,0-1.9.5,8.959,8.959,0,0,0-3.928-.889,9.287,9.287,0,0,0-1.753.166,3.986,3.986,0,0,0-3.954-3.548h-1.128a4,4,0,0,0-4,3.789,8.167,8.167,0,0,0-4.109,1.342,9.2,9.2,0,0,0-5.136-1.355h-.379a3.985,3.985,0,0,0-2.3-3.4h.015a4,4,0,0,0,4-4v-1.11a4,4,0,0,1,.017-6.6v-1.092a4,4,0,0,0-3.554-3.976V880.2a4,4,0,0,0-4-4h-1.127a3.99,3.99,0,0,0-3.977,3.777h-3.557a8.174,8.174,0,0,0-4.462,1.279,7.9,7.9,0,0,0-4.986-1.673,9.649,9.649,0,0,0-1.818.182,3.986,3.986,0,0,0-3.956-3.565h-1.111a4,4,0,0,0-4,4v1.128a3.838,3.838,0,0,0,.034.4,9.034,9.034,0,0,0-10.73-.717,7.312,7.312,0,0,0-3.91-1.038h-1.38a7.545,7.545,0,0,0-2.3-2.328,8.843,8.843,0,0,0-4.911-1.449h-6.134a4,4,0,0,0-4,4v.9a3.98,3.98,0,0,0-2.765-1.119H625.2a4,4,0,0,0-3.212,1.615,3.994,3.994,0,0,0-3.212-1.615H617.63a3.962,3.962,0,0,0-1.853.474,8.974,8.974,0,0,0-3.886-.868,8.794,8.794,0,0,0-5.116,1.6,8.217,8.217,0,0,0-3.5-1.146,4,4,0,0,0-4-3.835h-1.128a4,4,0,0,0-4,4v.568a4.046,4.046,0,0,0-.834.824,3.994,3.994,0,0,0-3.212-1.615h-1.145a3.944,3.944,0,0,0-1.853.475,8.968,8.968,0,0,0-3.887-.869,9.194,9.194,0,0,0-1.919.2,3.986,3.986,0,0,0-3.958-3.587H565.437a4,4,0,0,0-4,4v1.112a4,4,0,0,0,4,4h1.4v7.924a4,4,0,0,0,4,4h1.11a3.991,3.991,0,0,0,3.939-3.387,9.258,9.258,0,0,0,.972,1.156,9.022,9.022,0,0,0,11.677.921,9.638,9.638,0,0,0,5.128,1.31h.8a7.891,7.891,0,0,0-5.2,5.136,3.984,3.984,0,0,0-3.443-2h-4.3a9.065,9.065,0,0,0-5.02,1.361,9.192,9.192,0,0,0-5.144-1.361h-.38a3.99,3.99,0,0,0-3.978-3.776h-1.128a3.881,3.881,0,0,1-3.98,0h-.806a3.99,3.99,0,0,0,1.851-3.365v-5.313c0-4.445-2.673-7.441-6.906-7.888a4,4,0,0,0-4-3.835H550.9a3.877,3.877,0,0,1-3.981,0h-1.127a3.985,3.985,0,0,0-3.227,1.655c-.042-.032-.078-.068-.121-.1l-.073-.053a8.356,8.356,0,0,0-4.865-1.5h-7a4,4,0,0,0-4,4v1.112a3.992,3.992,0,0,0,1.541,3.154,8.039,8.039,0,0,0-1.66,5.251v3.519a3.988,3.988,0,0,0,1.851,3.365h-.449a3.767,3.767,0,0,1-1.486,0h-1.916a3.989,3.989,0,0,0,1.85-3.365V880.2a4,4,0,0,0-4-4H521.1a4,4,0,0,0-4,4v13.036A3.985,3.985,0,0,0,519,896.624a8.872,8.872,0,0,0-4.259,1.187,6.84,6.84,0,0,0-3.41,6.087,6.912,6.912,0,0,0,2.276,5.234,4,4,0,0,0-1.883,3.394v1.111a4,4,0,0,0,4,4h6.749a10.25,10.25,0,0,0,3.354-.532,3.957,3.957,0,0,0,1.958.532h1.128a3.987,3.987,0,0,0,2.879-1.223,3.989,3.989,0,0,0,2.879,1.223h1.145a3.952,3.952,0,0,0,1.833-.465A9.038,9.038,0,0,0,547,916.2a9.013,9.013,0,0,0,11.753-.7,6.687,6.687,0,0,0,4.889,1.886h.848a3.984,3.984,0,0,0,1.372.257h1.128c.088,0,.17-.021.257-.026s.168.026.256.026h1.145a3.993,3.993,0,0,0,3.1-1.473,66.012,66.012,0,0,1,6.312,3.4h4.084c5.449,0,7.51-3.417,7.658-6.492a8.13,8.13,0,0,0,2.519,2.88,10.7,10.7,0,0,0,6.361,1.682h5.279a3.986,3.986,0,0,0,1.532-.307,7.329,7.329,0,0,0,2.089.307h5.98c.088,0,.17-.021.257-.026s.168.026.256.026h1.111a4,4,0,0,1,4.87,0h1.076a4,4,0,0,1,4.869,0H627.1a3.965,3.965,0,0,0,2.03-.571,11.029,11.029,0,0,0,3.623.571h3.69a4,4,0,0,0,4-4v-1.145a4.013,4.013,0,0,1,.223-3.024v-.581c0-.019,0-.036,0-.055a3.969,3.969,0,0,0,.973.577v4.228a4,4,0,0,0,4,4h1.128a3.981,3.981,0,0,0,3.465-2.038,8.81,8.81,0,0,0,6.153,2.448,8.966,8.966,0,0,0,4-.924,3.96,3.96,0,0,0,1.925.514h1.128a4,4,0,0,0,4-4v-1.024h1.09a4,4,0,0,0,4-4v-.956a9.77,9.77,0,0,0-.077-1.179l2.191,8.192a4,4,0,0,0,3.864,2.967h1.486a4,4,0,0,1,6.561,0h1.469a3.913,3.913,0,0,1,4.1,0h1.128c.088,0,.17-.021.256-.026s.169.026.257.026h1.145a4,4,0,0,1,6.2,0h1.145a3.961,3.961,0,0,0,2.015-.563,8.4,8.4,0,0,0,3.059.563h4.647a3.952,3.952,0,0,0,1.833-.465,9.036,9.036,0,0,0,9.252-.9,3.99,3.99,0,0,0,2.994,1.361h1.4a4,4,0,0,1,5.74,0h1.4a3.92,3.92,0,0,1,3.741,0h4.835c3.136,0,5.118-1.172,6.247-2.752a3.906,3.906,0,0,0,.2.506,4,4,0,0,0,3.6,2.246h1.434A4,4,0,0,0,757.8,916.1l1.579-2.025,1.58,2.024a4,4,0,0,0,3.153,1.54h1.435a2.923,2.923,0,0,1,1.042,0h1.11a4,4,0,0,0,4-4v-1.092h1.024a9.29,9.29,0,0,0,1.343-.1,3.967,3.967,0,0,0,2.339,4.8l1.06.426a4,4,0,0,0,5.137-2.058l.412-.909a3.988,3.988,0,0,0,3.837,2.933h10.867a3.973,3.973,0,0,0,3.073-1.469,9.6,9.6,0,0,0,5.776,1.879,9.736,9.736,0,0,0,7.106-3.064,9.774,9.774,0,0,0,14.214,0A9.678,9.678,0,0,0,835,918.047a9.782,9.782,0,0,0,7.358-3.315,11.488,11.488,0,0,0,.014-15.195Zm-301.127-2.3a3.98,3.98,0,0,0,3.174-1.59,6.9,6.9,0,0,0,4.257,1.333h.85a3.951,3.951,0,0,0,1.371.257h1.128a3.987,3.987,0,0,0,2.879-1.223,3.99,3.99,0,0,0,2.879,1.223h.824a3.988,3.988,0,0,0-1.851,3.365v.247c-.074.028-.141.068-.213.1a8.962,8.962,0,0,0-4.091-.965A8.787,8.787,0,0,0,547,901.832a9.021,9.021,0,0,0-10.6-.251,8.245,8.245,0,0,0-3.5-1.146,4,4,0,0,0-1.837-3.2Zm146.058.806a4,4,0,0,0-.955-.806h.664a3.971,3.971,0,0,0,2.7-1.064,6.514,6.514,0,0,0,1.024.429h-.356A4,4,0,0,0,687.3,898.042Zm-6.663-1.07a1.284,1.284,0,0,1-2.489.172,3.955,3.955,0,0,0,1.334-.559A8.115,8.115,0,0,0,680.64,896.972Zm-79.218-.371a.757.757,0,0,1,1.476,0Zm37.84,7.134-.03-.047a7.755,7.755,0,0,0-6.806-3.705,8.444,8.444,0,0,0-5.077,1.543,9.347,9.347,0,0,0-4.712-1.149h-8.56a3.952,3.952,0,0,0-1.786.439,9.9,9.9,0,0,0-3-.439h-1.506a3.983,3.983,0,0,0-1.828-3.141h.225a3.952,3.952,0,0,0,1.833-.464,9.044,9.044,0,0,0,9.185-.846,9.632,9.632,0,0,0,5.127,1.31h3.981a3.984,3.984,0,0,0,3.382-1.885,3.987,3.987,0,0,0,3.383,1.885h1.111a4,4,0,0,0,4-4v-1.091h1.023a9.427,9.427,0,0,0,1.364-.1v1.193a4,4,0,0,0,4,4H645.7c.049,0,.1-.012.144-.014a6.771,6.771,0,0,0-2.3,1.573,6.665,6.665,0,0,0-1.281,1.921,4,4,0,0,0-3,3.023Zm32.584-5.57a4,4,0,0,0-.692,3.469l.686,2.565a6.5,6.5,0,0,0-6.3-3.822h-3.228a3.955,3.955,0,0,0-1.941.523,8.956,8.956,0,0,0-3.988-.917,9.245,9.245,0,0,0-1.667.154,3.986,3.986,0,0,0-3.953-3.536h-1.675a9.081,9.081,0,0,0-1.463.124,3.979,3.979,0,0,0,1.931-2.465,9.884,9.884,0,0,0,.666.745,8.829,8.829,0,0,0,6.366,2.641,9.242,9.242,0,0,0,2.309-.3,3.993,3.993,0,0,0,3.346,1.817h.786a9.412,9.412,0,0,0,5.379-1.287,6.312,6.312,0,0,0,1.4-1.281,10.567,10.567,0,0,0,3.135.612A3.948,3.948,0,0,0,671.846,898.165Zm163.172,10.772c-.185,0-.345,0-.653-.351a2,2,0,0,1-.524-1.459,2.065,2.065,0,0,1,.519-1.473c.311-.352.479-.352.658-.352s.314,0,.605.334a2.117,2.117,0,0,1,.5,1.491,2.04,2.04,0,0,1-.5,1.476C835.331,908.937,835.193,908.937,835.018,908.937Zm-14.214,0c-.185,0-.345,0-.652-.351a2,2,0,0,1-.525-1.459,2.065,2.065,0,0,1,.519-1.473c.311-.352.479-.352.658-.352s.314,0,.605.334a2.117,2.117,0,0,1,.5,1.491,2.04,2.04,0,0,1-.5,1.476C821.117,908.937,820.979,908.937,820.8,908.937Zm-14.215,0c-.185,0-.344,0-.652-.351a2,2,0,0,1-.525-1.459,2.065,2.065,0,0,1,.519-1.473c.311-.352.48-.352.658-.352s.314,0,.6.334a2.117,2.117,0,0,1,.5,1.491,2.045,2.045,0,0,1-.5,1.476C806.9,908.937,806.764,908.937,806.589,908.937Z" fill="#fff"/><path id="Chase_Flying_Fantastic_Object_" data-name="Chase Flying Fantastic Object！" d="M767.235,938.624a4,4,0,0,0-2.895-1.24h-1.555a4,4,0,0,0-4,4.191l.045.955a3.974,3.974,0,0,0-2.337-1.124V941.4a4,4,0,0,0-4-4h-1.127a3.99,3.99,0,0,0-3.977,3.777h-3.557a8.183,8.183,0,0,0-4.462,1.279,7.9,7.9,0,0,0-4.986-1.673,9.668,9.668,0,0,0-1.819.182,3.987,3.987,0,0,0-3.956-3.565H727.5a4,4,0,0,0-4,4v1.128a3.957,3.957,0,0,0,.036.439,8.2,8.2,0,0,0-4.719-1.779,4,4,0,0,0-4-3.788H713.7a3.961,3.961,0,0,0-2.415.831,9.59,9.59,0,0,0-4.725-1.223,9.837,9.837,0,0,0-7.382,3.286l-.035.038a11,11,0,0,0-2.068,3.351,4,4,0,0,0-3.706-2.506H689.1a8.96,8.96,0,0,0-1.056.07,3.992,3.992,0,0,0-3.984-3.847h-1.128a3.877,3.877,0,0,1-3.981,0h-1.127a3.99,3.99,0,0,0-3.977,3.777h-4.788a8.187,8.187,0,0,0-3.96.939,9.126,9.126,0,0,0-4.224-.939h-4.511c-.105,0-.2.023-.307.031a3.992,3.992,0,0,0-3.981-3.808h-1.127a4,4,0,0,0-4,4v.248c-.066.025-.126.061-.19.09a10.483,10.483,0,0,0-3.532-.561h-3.845a3.964,3.964,0,0,0-1.786.438,9.928,9.928,0,0,0-3-.438h-1.609a3.99,3.99,0,0,0-3.977-3.777H618.844a4,4,0,0,0-4,4v.826a3.976,3.976,0,0,0-2.681-1.049h-4.306a9.061,9.061,0,0,0-5.019,1.361,9.193,9.193,0,0,0-5.145-1.361h-.38a3.989,3.989,0,0,0-3.977-3.777h-1.128a4,4,0,0,0-4,4v.486a4.053,4.053,0,0,0-.7.6,4.1,4.1,0,0,0-.7-.6V941.4a4,4,0,0,0-4-4h-1.128c-.132,0-.256.027-.384.039-.128-.012-.253-.039-.384-.039H570.75a4,4,0,0,0-4,4v3.79c-.111-.219-.209-.443-.338-.655l-.029-.048a7.758,7.758,0,0,0-6.807-3.7,8.713,8.713,0,0,0-4.113.959,3.97,3.97,0,0,0-2.021-.565h-4.885a8.185,8.185,0,0,0-3.96.939,9.126,9.126,0,0,0-4.224-.939h-4.511a3.95,3.95,0,0,0-1.836.466,9,9,0,0,0-1.889-.408,4,4,0,0,0-4-3.835h-1.128c-.132,0-.256.027-.385.039-.128-.012-.252-.039-.384-.039h-4.8c-6.388,0-10.2,3.929-10.2,10.51s3.814,10.527,10.2,10.527h4.8c.132,0,.256-.027.384-.039.129.012.253.039.385.039h1.128a3.99,3.99,0,0,0,2.879-1.223,3.986,3.986,0,0,0,2.878,1.223h1.145a3.986,3.986,0,0,0,1.532-.307,7.329,7.329,0,0,0,2.089.307h5.981a2.809,2.809,0,0,1,1.126,0h4.835a8.428,8.428,0,0,0,4.456-1.106,10.188,10.188,0,0,0,4.838,1.106h3.691a3.988,3.988,0,0,0,3.579-2.248,3.991,3.991,0,0,0,3.58,2.248H571.9a4,4,0,0,0,4-4V952h1.789v2.442a10.242,10.242,0,0,0,6,5.947h3.843a8.222,8.222,0,0,0,5.815-1.948c.086,0,.166-.02.25-.025s.169.026.257.026h1.145a3.993,3.993,0,0,0,3.1-1.473,65.852,65.852,0,0,1,6.311,3.4h4.084c3.842,0,6-1.7,6.991-3.779a3.989,3.989,0,0,0,3.363,1.849h1.144a4,4,0,0,0,4-4V952h1.9a6.542,6.542,0,0,0,2.933,5.206,7.275,7.275,0,0,0,4.065,1.236h5.98c.088,0,.17-.021.256-.026s.168.026.256.026h1.145a4,4,0,0,1,6.2,0h1.144a3.971,3.971,0,0,0,2.631-1.009,7.29,7.29,0,0,0,3.332.752h1.777a3.966,3.966,0,0,0,1.117-.178,7.271,7.271,0,0,0,2.436.435h5.981a2.814,2.814,0,0,1,1.127,0h4.834a7.862,7.862,0,0,0,5.247-1.668,6.864,6.864,0,0,0,4.356,1.411h.849a3.98,3.98,0,0,0,1.372.257h1.128a3.963,3.963,0,0,0,2-.556,8.382,8.382,0,0,0,3.038.556h4.27a4,4,0,0,0,4-4v-1.145a4,4,0,0,0-.038-.551,10.944,10.944,0,0,0,1.823,2.76,9.8,9.8,0,0,0,7.406,3.346,9.6,9.6,0,0,0,4.739-1.229,3.966,3.966,0,0,0,2.4.819h4.665a8.653,8.653,0,0,0,1.493-.131,3.983,3.983,0,0,0,3.479,2.061h.786a9.412,9.412,0,0,0,5.379-1.287,6.33,6.33,0,0,0,1.4-1.28,10.909,10.909,0,0,0,3.809.637h3.69a3.972,3.972,0,0,0,2.178-.652,8.313,8.313,0,0,0,3.256.652h4.27a3.974,3.974,0,0,0,2.7-1.065,7.251,7.251,0,0,0,3.452.808h1.777a3.971,3.971,0,0,1,6.767.547h1.52a4,4,0,0,0,4-4V953.24a3.978,3.978,0,0,0-.457-1.858l.47-9.807A4,4,0,0,0,767.235,938.624Zm-245.792,10.7a4.125,4.125,0,0,1-.936-.084,1.448,1.448,0,0,1,.936-2.73h1.57v2.814Zm185.131.41c-.184,0-.343,0-.651-.35a1.986,1.986,0,0,1-.542-1.459,2.059,2.059,0,0,1,.519-1.471c.316-.354.5-.354.674-.354s.3,0,.589.334a2.091,2.091,0,0,1,.52,1.491,2,2,0,0,1-.506,1.458C706.871,949.736,706.74,949.736,706.574,949.736Zm-11.258.062a4.006,4.006,0,0,0,1.017-.823,11.5,11.5,0,0,0,.4,2.163A4.019,4.019,0,0,0,695.316,949.8Zm63.829-.8.079,1.665a.835.835,0,1,1-.079-1.665Z" fill="#fff"/></g></g><g id="Text"><path d="M517.716,788.962a105.866,105.866,0,0,1-16.4,12.642,105.175,105.175,0,0,1-16.743,7.517q-2.394.337-.683-1.366a81.76,81.76,0,0,0,19.818-16.06,78.915,78.915,0,0,0,9.567-12.984h-9.909v3.759q0,2.394-3.417,3.075-6.15,1.37-6.15-1.708V750.009l9.909,4.442h14.009v-8.542H483.547l-1.025-2.392h35.194V729.85l10.593,1.366q4.437,1.37.683,4.1l-2.391,1.026v7.175h20.842L552.91,736l8.543,6.834q2.73,2.394-.683,3.075H526.6v8.542h14.35l2.734-5.125,8.883,7.517q1.707,1.713-.682,3.759l-1.026.683V781.1a2.448,2.448,0,0,1-1.367,2.392,7.177,7.177,0,0,1-3.758,1.025q-4.446.689-4.442-2.05v-3.759H527.967a52.632,52.632,0,0,0,9.567,9.226,46.653,46.653,0,0,0,11.617,6.492q8.538,3.42,14.352,5.126a22.655,22.655,0,0,0-9.567,8.883,60.616,60.616,0,0,1-17.768-13.326,70.376,70.376,0,0,1-9.567-13.668v23.919q0,3.412-5.809,4.1a3.117,3.117,0,0,1-2.051,0,3.08,3.08,0,0,1-1.025-2.734Zm-14.351-32.119v8.542h14.351v-8.542Zm0,10.934v8.542h14.351v-8.542ZM526.6,756.843v8.542h14.692v-8.542Zm0,10.934v8.542h14.692v-8.542Z" fill="#000000"/><path d="M609.289,769.827q-2.049,12.99-7.176,20.5-6.149,9.227-18.109,15.035-8.889,4.436-10.934,4.442-1.713.336-1.025-1.367a63.991,63.991,0,0,0,9.567-6.492q12.638-10.251,16.06-24.6a106.036,106.036,0,0,0,2.733-24.944H571.361L570,750.009h33.144V729.85L615.1,731.9q3.411,1.37.683,4.1l-3.075,1.708v12.3h21.868l6.492-7.859,9.226,7.176q2.386,2.394-1.025,3.075H611q-.69,7.519-1.367,15.035H627.4l4.1-6.834,9.226,9.225q1.705,1.715-.684,3.417l-1.708,1.026a115.9,115.9,0,0,1-2.733,18.451q-2.4,9.225-7.86,14.008a17.071,17.071,0,0,1-5.125,3.076q-5.126,2.051-5.467-1.367c-.229-2.733-.571-4.217-1.025-4.442q-4.1-2.049-10.935-5.467-2.049-1.705,1.368-1.709a100.268,100.268,0,0,0,11.959,1.368,4.6,4.6,0,0,0,4.442-1.026q2.386-2.387,3.759-11.275,1.361-9.562,1.708-16.06Z" fill="#000000"/><path d="M727.514,795.8l8.543,7.175q2.385,2.387-.684,3.075H657.81l-1.368-2.392H692.32V791.012h-20.5l-1.025-2.392H692.32v-9.567H678.994a73.414,73.414,0,0,1-14.351,12.3q-6.15,3.764-3.417-.342a35.288,35.288,0,0,0,3.758-4.442,66.646,66.646,0,0,0,10.251-20.5,16.126,16.126,0,0,1-5.125,1.026h-2.392c-.912,0-1.366-.567-1.366-1.709V731.216L676.943,736h38.612l3.417-5.809,8.883,6.833q2.387,1.715-.682,4.1l-1.026.684v21.184a3.251,3.251,0,0,1-1.367,2.734,21.931,21.931,0,0,1-6.492,1.367c-1.142,0-1.708-.684-1.708-2.05V762.31H675.919v1.367l8.542,4.442q3.756,3.418.684,4.442l-1.709.341q-1.37,2.052-2.734,3.759H692.32V763.677l10.592,1.367q4.1,1.368.684,3.758l-1.708.683v7.176h16.058l5.468-7.176,8.2,6.834q2.387,2.052-.683,2.734H701.888v9.567h12.983l4.784-6.492,7.176,6.15q2.386,2.052-.684,2.734H701.888v12.642h19.817Zm-51.6-57.4v9.567H716.58v-9.567Zm0,11.959v9.567H716.58v-9.567Z" fill="#000000"/><path d="M743.574,739.075h24.26V729.85l9.567,1.024q2.388,1.026.342,3.417l-1.024.684v4.1h16.058V729.85l9.568,1.024q2.732.69.342,3.417l-1.025.684v4.1h9.226l6.15-7.517,6.834,6.834q2.049,2.394-.684,3.075H801.662v6.492a1.574,1.574,0,0,1-1.025,1.708,22.582,22.582,0,0,1-2.734.684v4.1h11.959l5.809-7.176,7.517,6.834q2.05,2.052-.683,2.734H797.9v5.126h8.542l3.076-4.443,8.2,7.176c1.136,1.143,1.024,2.05-.342,2.734l-1.709.683v12.643a1.338,1.338,0,0,1-1.025,1.366,12.316,12.316,0,0,1-5.467,1.025c-1.143,0-1.708-.341-1.708-1.025v-1.366H797.9v6.491H811.57l5.81-6.833,6.833,6.492q2.051,2.049-.683,2.734H797.9v6.15a2.191,2.191,0,0,1-1.367,2.05,15.022,15.022,0,0,1-4.783,1.025c-1.367,0-2.051-.566-2.051-1.709v-7.516H767.151l-1.367-2.393H789.7v-6.491h-9.225v1.708a1.339,1.339,0,0,1-1.025,1.367,11.069,11.069,0,0,1-5.468,1.024c-1.141,0-1.708-.453-1.708-1.366V757.868l8.884,4.1H789.7v-5.126H766.468l-1.367-2.392h24.6v-8.884l3.075.342v-4.442H776.719v6.492a2.294,2.294,0,0,1-1.026,2.05,16.1,16.1,0,0,1-5.125,1.025c-1.826,0-2.734-.566-2.734-1.708v-7.859H744.941Zm.684,61.162a71.814,71.814,0,0,0,11.617-6.492v-16.4H744.941l-1.025-2.393h11.275l3.076-5.125,8.2,7.518q1.7,1.713-.342,3.075l-1.367.683v14.009q6.487,4.789,21.868,5.125a369.312,369.312,0,0,0,38.953-1.366q-3.418,6.15-3.759,9.909H796.194q-4.444,0-14.692-1.025a28.563,28.563,0,0,1-12.984-4.443,37.429,37.429,0,0,1-8.2-7.858q-1.37,2.049-6.15,9.226l-.342,2.733q-.689,1.707-2.391.342Zm4.783-49.2q-.689-1.705,1.709-1.367a3.862,3.862,0,0,1,1.708.342q10.932,3.076,11.276,10.593.336,5.125-4.784,5.125-3.418,0-4.1-3.758A19.683,19.683,0,0,0,749.041,751.034Zm31.436,13.326v5.467H789.7V764.36Zm0,7.859v6.15H789.7v-6.15ZM797.9,764.36v5.467h9.568V764.36Zm0,14.009h9.568v-6.15H797.9Z" fill="#000000"/><path d="M857.016,770.511l-12.643,3.417a64.183,64.183,0,0,1-2.05,17.426,44.033,44.033,0,0,1-8.885,17.084,5.529,5.529,0,0,1-1.024,1.367q-2.05,2.386-1.025-2.392a58.873,58.873,0,0,0,3.758-14.009,124.459,124.459,0,0,0,1.367-17.426h-.683l-1.367,1.709q-1.715,2.393-2.392-.342l-2.051-9.226a58.358,58.358,0,0,0,6.493-.342V738.392l8.543,4.1q.679-2.05,2.049-13.668l9.226,3.075q3.411,1.37.342,3.417l-1.708.684-6.492,6.492h8.2l3.759-4.784,6.492,6.834q2.049,2.05,0,3.759l-1.709,1.025v16.4l3.075-.342q2.731-.336.684,1.367l-3.759,1.367v33.827a7.129,7.129,0,0,1-2.734,5.467,12.78,12.78,0,0,1-6.15,2.733q-2.049.338-2.05-2.391a5.522,5.522,0,0,0-1.367-3.075q-1.026-1.026-6.834-3.076-2.394-1.362.342-1.367,5.126.345,8.543.342,1.705,0,2.05-2.05Zm-12.3-25.627v22.552q6.148-.337,12.3-1.026V744.884Zm3.075,16.059q-.343-7.855-1.709-10.251-2.394-2.73,0-2.733a14.944,14.944,0,0,1,7.176,5.809,10.748,10.748,0,0,1,1.709,4.442q.334,3.764-2.051,5.125Q848.816,765.386,847.79,760.943Zm-.684,13.667,6.834,1.368q3.075.689.684,2.733l-.684.684v14.35c0,.46-.459.913-1.367,1.367a7.855,7.855,0,0,1-3.075,1.026q-2.394.343-2.392-.684ZM877.175,731.9l9.226,4.443q3.411,2.049.683,4.1l-1.708,1.026q-6.151,19.821-15.718,30.752-2.394,1.713-1.367-1.025Q874.778,756.506,877.175,731.9Zm-5.125,40.32,8.2,4.784H894.6l3.417-5.809,7.858,7.517q2.387,2.05,0,3.759l-1.366.683v22.552a2.2,2.2,0,0,1-1.367,2.05,15.307,15.307,0,0,1-3.759,1.366q-3.075.681-3.075-1.366v-4.443H880.25v3.076a2.2,2.2,0,0,1-1.366,2.05,15.34,15.34,0,0,1-3.759,1.367q-3.075.681-3.075-1.367Zm8.2,7.176v21.526h16.06V779.4Zm11.618-45.787c.224-1.367.684-1.479,1.366-.341a54.28,54.28,0,0,0,19.819,30.752,23.666,23.666,0,0,0-6.492,8.883Q892.209,760.266,891.868,733.608Z" fill="#000000"/><path d="M490.042,843.445v-2.559a8.165,8.165,0,0,1-3.18,2.3,12.311,12.311,0,0,1-4.94.9,7.815,7.815,0,0,1-2.08-.219q-.76-.22-1.3-.439a11.109,11.109,0,0,1-1.06-.5,7.388,7.388,0,0,1-2.98-2.915,8.868,8.868,0,0,1-1.06-4.434v-13.14a14.444,14.444,0,0,0-.14-2.317,3.291,3.291,0,0,0-.5-1.317,4.277,4.277,0,0,0-1.12-1.038l7.48-.08a3.935,3.935,0,0,0-.94.658,2.715,2.715,0,0,0-.58,1.138,12.491,12.491,0,0,0-.24,3.036v11.46q0,3.714,1.62,5.47a5.471,5.471,0,0,0,4.22,1.757,8.608,8.608,0,0,0,3.4-.679,6.09,6.09,0,0,0,2.5-1.837,4.413,4.413,0,0,0,.9-2.794V822.118q0-3.755-1.68-4.352l7.4-.08Q494,818.364,494,821.8v17.533q0,3.354,1.76,3.953v.16Z" fill="#000000"/><path d="M510.881,843.445v-.16a3.526,3.526,0,0,0,.961-.92,2.029,2.029,0,0,0,.4-1.04v-7.679q0-6.2-4.678-6.2a3.975,3.975,0,0,0-3.29,1.281,6.145,6.145,0,0,0-.872,3.719v7.64a6.14,6.14,0,0,0,.241,1.96,2.5,2.5,0,0,0,1.279,1.24v.16H498.4v-.16a2.829,2.829,0,0,0,1.266-1.38,6.274,6.274,0,0,0,.254-1.979v-11.28a5.442,5.442,0,0,0-.28-1.9,2.35,2.35,0,0,0-1.24-1.22v-.16l2.379.08a5.316,5.316,0,0,0,1.492-.16,3.536,3.536,0,0,0,1.129-.4l.039,3.079a7.406,7.406,0,0,1,2.121-2.079,5.73,5.73,0,0,1,3.346-1,6.962,6.962,0,0,1,5.091,1.7,6.816,6.816,0,0,1,1.724,5.061v8.359c0,.454.013.82.042,1.1a4.553,4.553,0,0,0,.273,1.06,2.231,2.231,0,0,0,1.284,1.12v.16Z" fill="#000000"/><path d="M534.961,843.445v-10.28a6.261,6.261,0,0,0-.74-3.14,4.752,4.752,0,0,0-2-1.94,5.89,5.89,0,0,0-2.7-.64,5.182,5.182,0,0,0-2.8.8,5.612,5.612,0,0,0-2.2,2.32,7.744,7.744,0,0,0-.84,3.72,6.89,6.89,0,0,0,1.02,3.641,7.191,7.191,0,0,0,2.54,2.559,6.357,6.357,0,0,0,3.239.88,5.426,5.426,0,0,0,1.941-.3,5.9,5.9,0,0,0,1.5-.86l-2.36,3.561c-.161.026-.4.08-.72.16H529.6a12.164,12.164,0,0,1-3.28-.481,9.722,9.722,0,0,1-3.22-1.6,8.245,8.245,0,0,1-2.44-3.021,10.135,10.135,0,0,1-.94-4.54,9.688,9.688,0,0,1,1.08-4.28,9.289,9.289,0,0,1,8.44-5.119,8.678,8.678,0,0,1,2.92.559,10.614,10.614,0,0,1,2.8,1.68v-7.4a2.722,2.722,0,0,0-1.481-2l3.081-.08a2.059,2.059,0,0,0,1.839-.72v22.519q.081.76.181,1.6a5.548,5.548,0,0,0,.279,1.3,2.239,2.239,0,0,0,1.141.939v.16Z" fill="#000000"/><path d="M546.881,833.806a9.63,9.63,0,0,0,.68,3.355,6.944,6.944,0,0,0,2.259,2.85,7.738,7.738,0,0,0,3.9,1.354h.96c.213,0,.465-.012.759-.04a4.933,4.933,0,0,0,.761-.12l1.72-.359a6.839,6.839,0,0,0,1.68-.641l1.44-.88-1.8,3.64a15.854,15.854,0,0,1-5.359,1.04,13.133,13.133,0,0,1-5.5-1.119,9.987,9.987,0,0,1-4.08-3.421,8.778,8.778,0,0,1-1.62-5.18,9.922,9.922,0,0,1,1.12-4.559,6.087,6.087,0,0,1,.639-1.061c.267-.359.507-.66.721-.9a9.488,9.488,0,0,1,7.319-2.96,8.878,8.878,0,0,1,4.38,1.12A8.018,8.018,0,0,1,560,829.005a9.549,9.549,0,0,1,1.12,4.8Zm8.62-5.281a5.307,5.307,0,0,0-3.3-1.08,5.915,5.915,0,0,0-2.36.52,5.031,5.031,0,0,0-1.9,1.36,4.312,4.312,0,0,0-.9,2.16h10.04A3.971,3.971,0,0,0,555.5,828.525Z" fill="#000000"/><path d="M573.28,820.005a4.621,4.621,0,0,0-2.28-.6,2.274,2.274,0,0,0-1.9.781,3.782,3.782,0,0,0-.621,2.379v2.8h4.48l.681-.24h.16v3.48h-.16c-.188-.426-.76-.64-1.72-.64H568.48v10.44l.121,2.321a3.881,3.881,0,0,0,.479,1.479,3.1,3.1,0,0,0,1.08,1.16l-6.68.08v-.16a2.351,2.351,0,0,0,1.161-1.059,4.233,4.233,0,0,0,.28-1.7v-12.56H563.08l1.841-2.6v-2.639a4.525,4.525,0,0,1,1.239-3.281,7.27,7.27,0,0,1,3.061-1.92,11.185,11.185,0,0,1,3.7-.679l3.039.159Z" fill="#000000"/><path d="M580.6,843.445h-6.44v-.16a2.269,2.269,0,0,0,1.18-1.22,5.686,5.686,0,0,0,.26-1.86V828.646a6.316,6.316,0,0,0-.24-1.88,2.169,2.169,0,0,0-1.2-1.241v-.16l2.04.08,1.239-.08.881-.16a1.043,1.043,0,0,0,.68-.439h.16v14.679a7.656,7.656,0,0,0,.279,2.481,1.987,1.987,0,0,0,1.241,1.359Zm-1.72-21.16a2.217,2.217,0,0,1-1.68.72,2.087,2.087,0,0,1-1.68-.76,2.3,2.3,0,0,1-.72-1.68,2.577,2.577,0,0,1,.28-1.24l.28-.36a2.134,2.134,0,0,1,.64-.539,2.225,2.225,0,0,1,1.2-.3,2.39,2.39,0,0,1,1.68.721,2.325,2.325,0,0,1,0,3.439Z" fill="#000000"/><path d="M596.079,843.445v-.16a3.526,3.526,0,0,0,.961-.92,2.029,2.029,0,0,0,.4-1.04v-7.679q0-6.2-4.677-6.2a3.972,3.972,0,0,0-3.29,1.281,6.145,6.145,0,0,0-.872,3.719v7.64a6.173,6.173,0,0,0,.24,1.96,2.5,2.5,0,0,0,1.279,1.24v.16H583.6v-.16a2.839,2.839,0,0,0,1.266-1.38,6.307,6.307,0,0,0,.253-1.979v-11.28a5.491,5.491,0,0,0-.279-1.9,2.364,2.364,0,0,0-1.24-1.22v-.16l2.379.08a5.331,5.331,0,0,0,1.492-.16,3.553,3.553,0,0,0,1.129-.4l.039,3.079a7.388,7.388,0,0,1,2.12-2.079,5.732,5.732,0,0,1,3.346-1,6.961,6.961,0,0,1,5.091,1.7,6.812,6.812,0,0,1,1.724,5.061v8.359c0,.454.014.82.042,1.1a4.553,4.553,0,0,0,.273,1.06,2.234,2.234,0,0,0,1.285,1.12v.16Z" fill="#000000"/><path d="M608.4,833.806a9.653,9.653,0,0,0,.68,3.355,6.954,6.954,0,0,0,2.26,2.85,7.737,7.737,0,0,0,3.9,1.354h.96c.213,0,.466-.012.76-.04a4.933,4.933,0,0,0,.761-.12l1.719-.359a6.823,6.823,0,0,0,1.68-.641l1.441-.88-1.8,3.64a15.855,15.855,0,0,1-5.36,1.04,13.133,13.133,0,0,1-5.5-1.119,9.994,9.994,0,0,1-4.08-3.421,8.778,8.778,0,0,1-1.62-5.18,9.922,9.922,0,0,1,1.12-4.559,6.034,6.034,0,0,1,.64-1.061c.267-.359.507-.66.721-.9a9.488,9.488,0,0,1,7.319-2.96,8.884,8.884,0,0,1,4.38,1.12,8.025,8.025,0,0,1,3.141,3.079,9.549,9.549,0,0,1,1.12,4.8Zm8.621-5.281a5.309,5.309,0,0,0-3.3-1.08,5.916,5.916,0,0,0-2.361.52,5.035,5.035,0,0,0-1.9,1.36,4.294,4.294,0,0,0-.9,2.16H618.6A3.974,3.974,0,0,0,617.021,828.525Z" fill="#000000"/><path d="M640.68,843.445v-10.28a6.25,6.25,0,0,0-.741-3.14,4.752,4.752,0,0,0-2-1.94,5.884,5.884,0,0,0-2.7-.64,5.187,5.187,0,0,0-2.8.8,5.625,5.625,0,0,0-2.2,2.32,7.755,7.755,0,0,0-.84,3.72,6.882,6.882,0,0,0,1.021,3.641,7.183,7.183,0,0,0,2.54,2.559,6.357,6.357,0,0,0,3.239.88,5.426,5.426,0,0,0,1.941-.3,5.9,5.9,0,0,0,1.5-.86l-2.361,3.561c-.16.026-.4.08-.719.16h-1.241a12.157,12.157,0,0,1-3.279-.481,9.727,9.727,0,0,1-3.221-1.6,8.243,8.243,0,0,1-2.439-3.021,10.134,10.134,0,0,1-.941-4.54,9.69,9.69,0,0,1,1.081-4.28,9.286,9.286,0,0,1,8.44-5.119,8.678,8.678,0,0,1,2.92.559,10.614,10.614,0,0,1,2.8,1.68v-7.4a2.722,2.722,0,0,0-1.481-2l3.08-.08a2.06,2.06,0,0,0,1.84-.72v22.519c.054.507.113,1.04.181,1.6a5.548,5.548,0,0,0,.279,1.3,2.239,2.239,0,0,0,1.141.939v.16Z" fill="#000000"/><path d="M673.519,821.965a4.743,4.743,0,0,0-1.94-1.2,10.84,10.84,0,0,0-2.82-.281,22.9,22.9,0,0,0-3.84.241v7.239h3.68a12.484,12.484,0,0,0,2.68-.2l.079,4.2a2.839,2.839,0,0,0-1.259-.983,6.817,6.817,0,0,0-2.18-.256l-3,.08v8.734a7.334,7.334,0,0,0,.36,2.356,2.055,2.055,0,0,0,1.28,1.388v.161H659.2v-.16q1.76-.6,1.76-3.76V821.766a7.9,7.9,0,0,0-.36-2.561,2.261,2.261,0,0,0-1.4-1.479h13.04a3.01,3.01,0,0,0,1.2-.321h.161Z" fill="#000000"/><path d="M692.159,844.005a6.751,6.751,0,0,1-3.88-1.239,3.614,3.614,0,0,1-1.2-3v-6.12a6.783,6.783,0,0,1-1.4.606q-1.56.444-3.16.909a9.95,9.95,0,0,0-2.121.788,2.394,2.394,0,0,0-1.039,2.263,2.813,2.813,0,0,0,1.14,2.364,4.71,4.71,0,0,0,2.939.869,6.963,6.963,0,0,0,1.261-.163q.819-.162,1.739-.4l-2.319,2.955a11.207,11.207,0,0,1-1.96.164,8.173,8.173,0,0,1-3.42-.683,5.471,5.471,0,0,1-2.36-1.99,4.918,4.918,0,0,1-.86-2.753,4.494,4.494,0,0,1,.923-2.914,6.367,6.367,0,0,1,2.529-1.829,22.637,22.637,0,0,1,2.929-.885q.443-.08,1.486-.341t1.485-.381a5.972,5.972,0,0,0,1.485-.724,2.263,2.263,0,0,0,.442-.6,1.969,1.969,0,0,0,.281-1,1.894,1.894,0,0,0-1.225-1.788,5.8,5.8,0,0,0-2.512-.583,11.858,11.858,0,0,0-5.263,1.52l2.56-3.92,2.6-.239a11.107,11.107,0,0,1,3.64.605,5.939,5.939,0,0,1,2.78,2.04,5.674,5.674,0,0,1,.98,3.413v6.907a4.148,4.148,0,0,0,.72,2.706,3,3,0,0,0,2.56.888Z" fill="#000000"/><path d="M707.6,843.445v-.16a3.542,3.542,0,0,0,.961-.92,2.046,2.046,0,0,0,.4-1.04v-7.679q0-6.2-4.678-6.2a3.974,3.974,0,0,0-3.29,1.281,6.145,6.145,0,0,0-.872,3.719v7.64a6.173,6.173,0,0,0,.24,1.96,2.5,2.5,0,0,0,1.28,1.24v.16h-6.52v-.16a2.836,2.836,0,0,0,1.267-1.38,6.307,6.307,0,0,0,.253-1.979v-11.28a5.465,5.465,0,0,0-.28-1.9,2.357,2.357,0,0,0-1.24-1.22v-.16l2.379.08a5.321,5.321,0,0,0,1.492-.16,3.536,3.536,0,0,0,1.129-.4l.039,3.079a7.388,7.388,0,0,1,2.12-2.079,5.733,5.733,0,0,1,3.347-1,6.964,6.964,0,0,1,5.091,1.7,6.816,6.816,0,0,1,1.723,5.061v8.359c0,.454.014.82.042,1.1a4.614,4.614,0,0,0,.274,1.06,2.231,2.231,0,0,0,1.284,1.12v.16Z" fill="#000000"/><path d="M724.958,843.846H723.4a4.4,4.4,0,0,1-3.88-1.781,7.612,7.612,0,0,1-1.24-4.46v-9.64h-2.6v-1.44q4.6-.639,4.6-6.96h1.52v5.8h2.88a6.479,6.479,0,0,0,2.28-.24l.08,3.6a3.183,3.183,0,0,0-2.28-.761H721.8v8.04a13.992,13.992,0,0,0,.26,2.921,3.16,3.16,0,0,0,1.34,1.96l.8.279a4.347,4.347,0,0,0,.58.16,2.687,2.687,0,0,0,.5.04q.519-.08.98-.179a5.8,5.8,0,0,0,.78-.221Z" fill="#000000"/><path d="M744.838,844.005a6.751,6.751,0,0,1-3.88-1.239,3.611,3.611,0,0,1-1.2-3v-6.12a6.771,6.771,0,0,1-1.4.606q-1.56.444-3.16.909a9.957,9.957,0,0,0-2.12.788,2.394,2.394,0,0,0-1.039,2.263,2.813,2.813,0,0,0,1.14,2.364,4.71,4.71,0,0,0,2.939.869,6.963,6.963,0,0,0,1.261-.163q.819-.162,1.739-.4l-2.319,2.955a11.215,11.215,0,0,1-1.96.164,8.173,8.173,0,0,1-3.42-.683,5.471,5.471,0,0,1-2.36-1.99,4.912,4.912,0,0,1-.861-2.753,4.494,4.494,0,0,1,.924-2.914,6.364,6.364,0,0,1,2.528-1.829,22.672,22.672,0,0,1,2.93-.885q.443-.08,1.485-.341t1.486-.381a5.972,5.972,0,0,0,1.485-.724,2.263,2.263,0,0,0,.442-.6,1.969,1.969,0,0,0,.281-1,1.893,1.893,0,0,0-1.226-1.788,5.8,5.8,0,0,0-2.511-.583,11.855,11.855,0,0,0-5.263,1.52l2.559-3.92,2.6-.239a11.107,11.107,0,0,1,3.64.605,5.939,5.939,0,0,1,2.78,2.04,5.674,5.674,0,0,1,.979,3.413v6.907a4.148,4.148,0,0,0,.721,2.706,3,3,0,0,0,2.56.888Z" fill="#000000"/><path d="M761.177,841.192a7.682,7.682,0,0,1-3.32,2.07,12.714,12.714,0,0,1-3.98.664,13.872,13.872,0,0,1-5.2-.961l-1.239-3.8a10.375,10.375,0,0,0,3.359,1.6l1.92.4a10.679,10.679,0,0,0,1.8.2,6.833,6.833,0,0,0,1.68-.16l1.44-.482a2.154,2.154,0,0,0,1.32-1.729,2.253,2.253,0,0,0-.86-1.829,7.958,7.958,0,0,0-2.26-1.226l-3.08-1.126a10.527,10.527,0,0,1-3.26-1.848,3.725,3.725,0,0,1-1.1-2.895,4.313,4.313,0,0,1,1.1-3.115,6.4,6.4,0,0,1,2.941-1.668l1.919-.4h1.84a15.557,15.557,0,0,1,4.2.479v3.361a9.327,9.327,0,0,0-4.92-1.281,5.16,5.16,0,0,0-2.6.543,1.647,1.647,0,0,0-.92,1.467,1.152,1.152,0,0,0,.2.6,1.758,1.758,0,0,0,.6.562,2.762,2.762,0,0,0,.84.482,6.27,6.27,0,0,0,1,.442l2.56.885,1.08.4,1.24.522a5.413,5.413,0,0,1,2.22,1.829,4.433,4.433,0,0,1,.78,2.552A4.9,4.9,0,0,1,761.177,841.192Z" fill="#000000"/><path d="M773.6,843.846h-1.56a4.4,4.4,0,0,1-3.881-1.781,7.619,7.619,0,0,1-1.239-4.46v-9.64h-2.6v-1.44q4.6-.639,4.6-6.96h1.52v5.8h2.879a6.486,6.486,0,0,0,2.281-.24l.08,3.6a3.184,3.184,0,0,0-2.281-.761h-2.959v8.04a14,14,0,0,0,.259,2.921,3.162,3.162,0,0,0,1.341,1.96l.8.279a4.347,4.347,0,0,0,.58.16,2.672,2.672,0,0,0,.5.04c.346-.053.673-.113.979-.179a5.775,5.775,0,0,0,.781-.221Z" fill="#000000"/><path d="M783.917,843.445h-6.439v-.16a2.267,2.267,0,0,0,1.179-1.22,5.686,5.686,0,0,0,.26-1.86V828.646a6.352,6.352,0,0,0-.239-1.88,2.172,2.172,0,0,0-1.2-1.241v-.16l2.04.08,1.239-.08.881-.16a1.041,1.041,0,0,0,.679-.439h.161v14.679a7.628,7.628,0,0,0,.279,2.481,1.983,1.983,0,0,0,1.24,1.359Zm-1.72-21.16a2.215,2.215,0,0,1-1.679.72,2.089,2.089,0,0,1-1.681-.76,2.3,2.3,0,0,1-.72-1.68,2.577,2.577,0,0,1,.28-1.24l.281-.36a2.115,2.115,0,0,1,.639-.539,2.229,2.229,0,0,1,1.2-.3,2.388,2.388,0,0,1,1.679.721,2.325,2.325,0,0,1,0,3.439Z" fill="#000000"/><path d="M802.516,843.205a16.864,16.864,0,0,1-4.88.721,13.1,13.1,0,0,1-5.5-1.16,9.468,9.468,0,0,1-3.98-3.261,8.056,8.056,0,0,1-1.44-4.659,10.784,10.784,0,0,1,.84-4.361c.133-.24.326-.559.58-.96s.433-.666.54-.8a5.073,5.073,0,0,1,.62-.721q.3-.279.74-.64a10.961,10.961,0,0,1,3.56-1.84l2.08-.48a7.434,7.434,0,0,1,1.24-.159h.96a17.6,17.6,0,0,1,4.12.479v4a6.633,6.633,0,0,0-4.84-1.84,6.755,6.755,0,0,0-3.2.76,6.179,6.179,0,0,0-2.38,2.28,6.784,6.784,0,0,0-.94,3.64,6.437,6.437,0,0,0,1.12,3.561,9.393,9.393,0,0,0,.66.859,6.477,6.477,0,0,0,.62.62,6.2,6.2,0,0,0,1.64,1.12,8.08,8.08,0,0,0,3.92,1,9.39,9.39,0,0,0,2.94-.439,11.546,11.546,0,0,0,2.86-1.481Z" fill="#000000"/><path d="M842.938,836.745a13.248,13.248,0,0,1-4.853,5.22,15.181,15.181,0,0,1-3.456,1.56,12.616,12.616,0,0,1-3.734.56,15.474,15.474,0,0,1-7.629-1.859,13.843,13.843,0,0,1-5.233-4.941,12,12,0,0,1-1.878-6.32v-.159a14.058,14.058,0,0,1,1.16-5.641,11.729,11.729,0,0,1,1.321-2.359,11.061,11.061,0,0,1,1-1.321,6.36,6.36,0,0,1,.719-.679q.681-.6,1.041-.88a11.532,11.532,0,0,1,1.08-.761,14.923,14.923,0,0,1,2.359-1.16,14.545,14.545,0,0,1,5.4-1.079,16.079,16.079,0,0,1,2.8.239,19.342,19.342,0,0,1,2.74.7,13.134,13.134,0,0,1,2.42,1.061,10.636,10.636,0,0,1,2.04,1.559,11.667,11.667,0,0,1,3.12,4.12,13.367,13.367,0,0,1,.941,2.621,11.5,11.5,0,0,1,.34,2.739A14.5,14.5,0,0,1,842.938,836.745Zm-2.7-7.18a11.706,11.706,0,0,0-1.566-4.839,8.771,8.771,0,0,0-3.355-3.6,9.488,9.488,0,0,0-5.04-1.359,9.118,9.118,0,0,0-2.61.359,11.773,11.773,0,0,0-2.41,1.04,8.411,8.411,0,0,0-3.434,3.7,12.834,12.834,0,0,0-1.224,5.781,8.7,8.7,0,0,0,.4,2.679,11.267,11.267,0,0,0,1.08,2.64,11.154,11.154,0,0,0,3.8,3.841,9.8,9.8,0,0,0,5.16,1.4,7.53,7.53,0,0,0,2.12-.26,13.724,13.724,0,0,0,2.04-.82,8.586,8.586,0,0,0,2.861-2.439,9.858,9.858,0,0,0,1.62-3.2,8.459,8.459,0,0,0,.3-.98c.04-.2.086-.446.139-.739l.12-1.92Z" fill="#000000"/><path d="M865.676,836.886a15.26,15.26,0,0,1-.56,1.479,6.741,6.741,0,0,1-.64,1.08,7.941,7.941,0,0,1-1.66,1.941,10.76,10.76,0,0,1-2.24,1.4,11.82,11.82,0,0,1-2.82.92,16.086,16.086,0,0,1-3.12.3l-2.52-.119-2.72-.4-1.88-.28a2.507,2.507,0,0,0,1.12-2.439v-19.84a5.114,5.114,0,0,0-.3-2.04,2.849,2.849,0,0,0-1.14-1.16l2.92-.08q1.48,0,1.92-.72v23.76a6.746,6.746,0,0,0,1.673.46q.785.1,1.553.139a6.958,6.958,0,0,0,4.8-1.76q1.976-1.758,1.976-5.56a5.522,5.522,0,0,0-5.72-6.119,5.646,5.646,0,0,0-3.24.8l2-3.361,1.52-.28,1.32-.119a7.412,7.412,0,0,1,4.24,1.239,8.089,8.089,0,0,1,2.84,3.42,11.835,11.835,0,0,1,1,4.98A7.552,7.552,0,0,1,865.676,836.886Z" fill="#000000"/><path d="M873.035,849.325a7.566,7.566,0,0,1-3.059,2.18,9.139,9.139,0,0,1-3.46.86v-.16a7.258,7.258,0,0,0,2.439-2.14,6.371,6.371,0,0,0,1.1-2.74,18.679,18.679,0,0,0,.219-2.72V828.646a6.377,6.377,0,0,0-.24-1.861,2.158,2.158,0,0,0-1.2-1.26v-.16l2.359.08a5.941,5.941,0,0,0,1.641-.179,2.493,2.493,0,0,0,.84-.38h.16v20.239A8.267,8.267,0,0,1,873.035,849.325Zm.521-27.04a2.391,2.391,0,0,1-1.68.72,2.216,2.216,0,0,1-1.681-.72,2.266,2.266,0,0,1-.719-1.72,2.362,2.362,0,0,1,.7-1.74,2.315,2.315,0,0,1,1.7-.7,2.458,2.458,0,0,1,2.439,2.44A2.287,2.287,0,0,1,873.556,822.285Z" fill="#000000"/><path d="M882.035,833.806a9.653,9.653,0,0,0,.68,3.355,6.954,6.954,0,0,0,2.26,2.85,7.734,7.734,0,0,0,3.9,1.354h.96c.213,0,.466-.012.76-.04a4.9,4.9,0,0,0,.76-.12l1.72-.359a6.839,6.839,0,0,0,1.68-.641l1.44-.88-1.8,3.64a15.859,15.859,0,0,1-5.36,1.04,13.133,13.133,0,0,1-5.5-1.119,9.994,9.994,0,0,1-4.08-3.421,8.778,8.778,0,0,1-1.62-5.18,9.922,9.922,0,0,1,1.12-4.559,6.034,6.034,0,0,1,.64-1.061c.266-.359.507-.66.72-.9a9.488,9.488,0,0,1,7.32-2.96,8.884,8.884,0,0,1,4.38,1.12,8.022,8.022,0,0,1,3.14,3.079,9.549,9.549,0,0,1,1.12,4.8Zm8.62-5.281a5.307,5.307,0,0,0-3.3-1.08,5.915,5.915,0,0,0-2.36.52,5.027,5.027,0,0,0-1.9,1.36,4.3,4.3,0,0,0-.9,2.16h10.04A3.968,3.968,0,0,0,890.655,828.525Z" fill="#000000"/><path d="M914.034,843.205a16.854,16.854,0,0,1-4.88.721,13.1,13.1,0,0,1-5.5-1.16,9.471,9.471,0,0,1-3.979-3.261,8.057,8.057,0,0,1-1.441-4.659,10.8,10.8,0,0,1,.84-4.361c.134-.24.326-.559.58-.96s.434-.666.54-.8a5.073,5.073,0,0,1,.62-.721c.2-.186.447-.4.741-.64a10.956,10.956,0,0,1,3.559-1.84l2.08-.48a7.455,7.455,0,0,1,1.241-.159h.96a17.6,17.6,0,0,1,4.12.479v4a6.634,6.634,0,0,0-4.84-1.84,6.755,6.755,0,0,0-3.2.76,6.179,6.179,0,0,0-2.38,2.28,6.784,6.784,0,0,0-.941,3.64,6.437,6.437,0,0,0,1.12,3.561,9.384,9.384,0,0,0,.661.859,6.477,6.477,0,0,0,.62.62,6.194,6.194,0,0,0,1.639,1.12,8.086,8.086,0,0,0,3.92,1,9.4,9.4,0,0,0,2.941-.439,11.558,11.558,0,0,0,2.859-1.481Z" fill="#000000"/><path d="M925.435,843.846h-1.56a4.4,4.4,0,0,1-3.881-1.781,7.619,7.619,0,0,1-1.239-4.46v-9.64h-2.6v-1.44q4.6-.639,4.6-6.96h1.519v5.8h2.88a6.489,6.489,0,0,0,2.281-.24l.08,3.6a3.186,3.186,0,0,0-2.281-.761h-2.96v8.04a13.992,13.992,0,0,0,.26,2.921,3.162,3.162,0,0,0,1.341,1.96l.8.279a4.307,4.307,0,0,0,.58.16,2.672,2.672,0,0,0,.5.04c.346-.053.673-.113.979-.179a5.775,5.775,0,0,0,.781-.221Z" fill="#000000"/><g id="_12th_Touhou_Project_Shooting_Game_for_Windows_XP_2000_Chase_Flying_Fantastic_Object_2" data-name="12th Touhou Project Shooting Game for Windows XP/2000 Chase Flying Fantastic Object！"><path d="M522.229,893.236H521.1V880.2h1.127Z" fill="#000000"/><path d="M541.348,883.464a3.2,3.2,0,0,1-1.2,2.717,4.94,4.94,0,0,1-2.938.785h-2.888a3.273,3.273,0,0,0-2.118.53,2.831,2.831,0,0,0-.7,2.221v2.409h9.738v1.11H530.379v-3.519a3.768,3.768,0,0,1,1.094-3.059,4.377,4.377,0,0,1,2.852-.785h2.888q3.024,0,3.024-2.409a1.9,1.9,0,0,0-.8-1.572,3.208,3.208,0,0,0-1.931-.58h-7V880.2h7a4.407,4.407,0,0,1,2.58.786A2.916,2.916,0,0,1,541.348,883.464Z" fill="#000000"/><path d="M550.47,885.274h-3.554v4.34a2.949,2.949,0,0,0,.359,1.675,1.542,1.542,0,0,0,1.4.58h1.777v1.11h-1.777q-2.888,0-2.887-3.365v-4.34h-2.563v-1.092h2.563V880.2h1.127v3.982h3.554Z" fill="#000000"/><path d="M558.928,893.236h-1.145v-5.313a3.1,3.1,0,0,0-.547-2.068,3.065,3.065,0,0,0-2.34-.734h-2.871v8.115H550.9V880.2h1.128v3.777H554.9q4.032,0,4.032,3.946Z" fill="#000000"/><path d="M577.345,881.312h-5.4v11.924h-1.11V881.312h-5.4V880.2h11.908Z" fill="#000000"/><path d="M588.262,888.623a5.019,5.019,0,1,1-1.47-3.57A4.844,4.844,0,0,1,588.262,888.623Zm-1.094-.017a3.935,3.935,0,0,0-3.946-3.929,3.921,3.921,0,0,0,0,7.842,3.76,3.76,0,0,0,2.785-1.163A3.686,3.686,0,0,0,587.168,888.606Z" fill="#000000"/><path d="M597.642,893.236h-3.981q-4.7,0-4.7-4.442v-4.817h1.145v4.817a3.132,3.132,0,0,0,1.111,2.768,4.429,4.429,0,0,0,2.443.546h2.87v-8.131h1.111Z" fill="#000000"/><path d="M606.184,893.236h-1.145v-5.313a3.107,3.107,0,0,0-.547-2.068,3.066,3.066,0,0,0-2.341-.734h-2.87v8.115h-1.128V880.2h1.128v3.777h2.87q4.034,0,4.033,3.946Z" fill="#000000"/><path d="M616.931,888.623a5.019,5.019,0,1,1-1.47-3.57A4.844,4.844,0,0,1,616.931,888.623Zm-1.094-.017a3.935,3.935,0,0,0-3.946-3.929,3.921,3.921,0,0,0,0,7.842,3.76,3.76,0,0,0,2.785-1.163A3.686,3.686,0,0,0,615.837,888.606Z" fill="#000000"/><path d="M626.31,893.236h-3.981q-4.7,0-4.7-4.442v-4.817h1.145v4.817a3.132,3.132,0,0,0,1.111,2.768,4.429,4.429,0,0,0,2.443.546h2.87v-8.131h1.111Z" fill="#000000"/><path d="M643.6,884.182a3.556,3.556,0,0,1-1.658,3.16,4.888,4.888,0,0,1-2.733.8h-5.023v5.091h-1.111V880.2h6.134a4.9,4.9,0,0,1,2.733.8A3.545,3.545,0,0,1,643.6,884.182Zm-1.128,0a2.56,2.56,0,0,0-1.161-2.256,3.655,3.655,0,0,0-2.1-.614h-5.023v5.706h5.023a3.729,3.729,0,0,0,2.1-.6A2.516,2.516,0,0,0,642.472,884.182Z" fill="#000000"/><path d="M650.792,888.213h-1.145v-.956q0-2.154-1.982-2.153H645.7v8.132h-1.128v-9.259H647.8q2.989,0,2.99,3.28Z" fill="#000000"/><path d="M661.624,888.623a5.019,5.019,0,1,1-1.47-3.57A4.841,4.841,0,0,1,661.624,888.623Zm-1.094-.017a3.935,3.935,0,0,0-3.946-3.929,3.921,3.921,0,1,0,2.785,6.679A3.682,3.682,0,0,0,660.53,888.606Z" fill="#000000"/><path d="M667.519,891.084q0,2.6-1.333,3.468a5.978,5.978,0,0,1-3.161.615h-.786v-1.128h.8a5.162,5.162,0,0,0,2.494-.393q.855-.6.855-2.63v-7.039h1.128Zm0-9.756h-1.111V880.2h1.111Z" fill="#000000"/><path d="M677.53,888.486v.581h-7.722a2.988,2.988,0,0,0,1.059,2.375,4.634,4.634,0,0,0,2.75.65h3.691v1.144h-3.691q-4.955,0-4.954-4.681a5.346,5.346,0,0,1,1.025-3.331,4.254,4.254,0,0,1,3.605-1.641,3.77,3.77,0,0,1,3.417,1.828A5.8,5.8,0,0,1,677.53,888.486Zm-1.162-.546q-.564-3.23-3.075-3.229a3.292,3.292,0,0,0-2.46.939,3.619,3.619,0,0,0-1.008,2.29Z" fill="#000000"/><path d="M687.012,893.236h-4.271a4.129,4.129,0,0,1-2.939-1.144,4.436,4.436,0,0,1-1.4-3.469,4.542,4.542,0,0,1,1.4-3.5,4.125,4.125,0,0,1,2.939-1.144h4.271V885.1h-4.254a3.047,3.047,0,0,0-2.17.837,3.461,3.461,0,0,0-1.042,2.682,3.416,3.416,0,0,0,1.042,2.648,3.082,3.082,0,0,0,2.17.821h4.254Z" fill="#000000"/><path d="M694.956,885.274H691.4v4.34a2.94,2.94,0,0,0,.36,1.675,1.541,1.541,0,0,0,1.4.58h1.777v1.11h-1.777q-2.888,0-2.887-3.365v-4.34h-2.563v-1.092h2.563V880.2H691.4v3.982h3.554Z" fill="#000000"/><path d="M526.842,909.69q0,3.947-4.373,3.947H515.72v-1.111h6.749a4.068,4.068,0,0,0,2.271-.512,2.613,2.613,0,0,0,.975-2.324,2.113,2.113,0,0,0-.889-1.862,3.688,3.688,0,0,0-2.136-.547h-3.041a5.166,5.166,0,0,1-2.99-.82,2.946,2.946,0,0,1-1.332-2.563,2.883,2.883,0,0,1,1.452-2.648,5.028,5.028,0,0,1,2.615-.649h6.9v1.111h-6.9q-2.94,0-2.94,2.186a1.981,1.981,0,0,0,.855,1.674,3.935,3.935,0,0,0,2.34.616h3.041a4.972,4.972,0,0,1,2.751.717A3.11,3.11,0,0,1,526.842,909.69Z" fill="#000000"/><path d="M535.812,913.637h-1.145v-5.314a3.1,3.1,0,0,0-.547-2.067,3.066,3.066,0,0,0-2.341-.735h-2.87v8.116h-1.128V900.6h1.128v3.776h2.87q4.034,0,4.033,3.946Z" fill="#000000"/><path d="M546.559,909.023a5.019,5.019,0,1,1-1.47-3.57A4.843,4.843,0,0,1,546.559,909.023Zm-1.094-.016a3.937,3.937,0,0,0-3.946-3.93,3.921,3.921,0,0,0,0,7.842,3.763,3.763,0,0,0,2.785-1.162A3.686,3.686,0,0,0,545.465,909.007Z" fill="#000000"/><path d="M557.492,909.023a5.019,5.019,0,1,1-1.47-3.57A4.839,4.839,0,0,1,557.492,909.023Zm-1.094-.016a3.914,3.914,0,0,0-6.7-2.768,3.879,3.879,0,0,0,0,5.535,3.9,3.9,0,0,0,5.536-.017A3.682,3.682,0,0,0,556.4,909.007Z" fill="#000000"/><path d="M565.437,905.675h-3.554v4.34a2.946,2.946,0,0,0,.359,1.674,1.542,1.542,0,0,0,1.4.581h1.777v1.11h-1.777q-2.888,0-2.887-3.365v-4.34h-2.564v-1.093h2.564V900.6h1.127v3.981h3.554Z" fill="#000000"/><path d="M566.991,901.729h-1.128V900.6h1.128Zm0,11.908h-1.128v-9.26h1.128Z" fill="#000000"/><path d="M576,913.637h-1.144v-4.425a3.919,3.919,0,0,0-.923-3.007,3.758,3.758,0,0,0-2.579-.7h-2.7v8.133H567.5v-9.26h3.845a4.8,4.8,0,0,1,3.331.99Q576,906.5,576,909.212Z" fill="#000000"/><path d="M585.818,904.377v8.337q0,2.853-3.672,2.853h-4.084v-1.128h4.084a3.724,3.724,0,0,0,2.049-.41,1.487,1.487,0,0,0,.5-1.263h-3.177a4.6,4.6,0,0,1-3.69-1.453,4.407,4.407,0,0,1,0-5.484,4.566,4.566,0,0,1,3.69-1.452Zm-1.128,7.278V905.5h-3.041a3.821,3.821,0,0,0-2.9,1.043,3.1,3.1,0,0,0,0,4.049,3.787,3.787,0,0,0,2.9,1.059Z" fill="#000000"/><path d="M603.963,913.637h-5.279a7.047,7.047,0,0,1-4.066-.957q-2.12-1.486-2.119-5.57t2.119-5.569a7.144,7.144,0,0,1,4.066-.94h5.126v1.111h-5.126a5.953,5.953,0,0,0-3.383.734q-1.691,1.179-1.692,4.664t1.692,4.664a5.9,5.9,0,0,0,3.383.752h4.134v-2.511a2.626,2.626,0,0,0-.581-1.913,2.43,2.43,0,0,0-1.776-.547h-2.084v-1.111h2.084q3.5,0,3.5,3.571Z" fill="#000000"/><path d="M613.564,908.307v5.33h-5.98a3.239,3.239,0,0,1-1.845-.564,2.914,2.914,0,0,1,0-4.681,3.231,3.231,0,0,1,1.845-.564h4.836q-.24-2.323-3.127-2.324h-4.511v-1.127h4.511a4.438,4.438,0,0,1,3.178,1.042A3.736,3.736,0,0,1,613.564,908.307Zm-1.127.648H607.6a2.157,2.157,0,0,0-1.248.376,1.778,1.778,0,0,0,0,2.8,2.149,2.149,0,0,0,1.248.376h4.835Z" fill="#000000"/><path d="M627.1,913.637H626v-4.853a3.171,3.171,0,0,0-.957-2.613,3.706,3.706,0,0,0-2.409-.667h-1.5v8.133h-1.076V905.5h-4.87v8.133h-1.111v-9.26h8.56q4.458,0,4.46,4.407Z" fill="#000000"/><path d="M636.663,908.887v.581H628.94a2.991,2.991,0,0,0,1.06,2.375,4.642,4.642,0,0,0,2.75.649h3.69v1.145h-3.69q-4.955,0-4.954-4.682a5.348,5.348,0,0,1,1.025-3.331,4.253,4.253,0,0,1,3.605-1.641,3.772,3.772,0,0,1,3.417,1.829A5.8,5.8,0,0,1,636.663,908.887Zm-1.162-.546q-.564-3.23-3.075-3.23a3.292,3.292,0,0,0-2.46.94,3.614,3.614,0,0,0-1.008,2.29Z" fill="#000000"/><path d="M650.759,901.712h-1.675q-2.323,0-2.323,2.135v.769h3.98v1.093h-3.98v7.928h-1.128v-7.928h-2.478v-1.093h2.478v-.769a3.188,3.188,0,0,1,.82-2.306,3.45,3.45,0,0,1,2.631-.94h1.675Z" fill="#000000"/><path d="M661.419,909.023a5.019,5.019,0,1,1-1.47-3.57A4.839,4.839,0,0,1,661.419,909.023Zm-1.094-.016a3.937,3.937,0,0,0-3.946-3.93,3.921,3.921,0,1,0,2.785,6.68A3.686,3.686,0,0,0,660.325,909.007Z" fill="#000000"/><path d="M668.526,908.613h-1.144v-.956q0-2.153-1.983-2.153h-1.963v8.133h-1.128v-9.26h3.228q2.99,0,2.99,3.28Z" fill="#000000"/><path d="M691.522,900.6l-3.5,13.036h-1.469l-3.28-12.267-3.281,12.267H678.5L675.019,900.6h1.162l3.075,11.5,3.057-11.5h1.915l3.057,11.5,3.093-11.5Z" fill="#000000"/><path d="M693.248,901.729H692.12V900.6h1.128Zm0,11.908H692.12v-9.26h1.128Z" fill="#000000"/><path d="M702.252,913.637h-1.145v-4.425a3.919,3.919,0,0,0-.922-3.007,3.759,3.759,0,0,0-2.58-.7h-2.7v8.133h-1.145v-9.26h3.844a4.115,4.115,0,0,1,4.647,4.835Z" fill="#000000"/><path d="M711.973,913.637h-4.647a4.186,4.186,0,0,1-2.956-1.145,4.411,4.411,0,0,1-1.418-3.469,4.519,4.519,0,0,1,1.418-3.5,4.19,4.19,0,0,1,2.956-1.144h3.519V900.6h1.128Zm-1.128-1.145V905.5h-3.5a3.066,3.066,0,0,0-2.187.838,3.423,3.423,0,0,0-1.059,2.681,3.386,3.386,0,0,0,1.059,2.649,3.141,3.141,0,0,0,2.187.82Z" fill="#000000"/><path d="M722.72,909.023a5.019,5.019,0,1,1-1.47-3.57A4.843,4.843,0,0,1,722.72,909.023Zm-1.094-.016a3.937,3.937,0,0,0-3.946-3.93,3.921,3.921,0,0,0,0,7.842,3.763,3.763,0,0,0,2.785-1.162A3.686,3.686,0,0,0,721.626,909.007Z" fill="#000000"/><path d="M737.122,904.377l-2.528,9.26h-1.4l-2.87-7.5-2.87,7.5h-1.4l-2.546-9.26h1.162l2.135,7.808,2.99-7.808h1.06l2.989,7.808,2.136-7.808Z" fill="#000000"/><path d="M746.639,910.92q0,2.717-3.469,2.717h-4.835v-1.145h4.835a4.105,4.105,0,0,0,1.606-.239,1.351,1.351,0,0,0,.718-1.333q0-1.554-2.016-1.555h-2.153a5.016,5.016,0,0,1-2.375-.444,2.491,2.491,0,0,1-.051-4.015,4.118,4.118,0,0,1,2.221-.529h4.886V905.5H741.12q-2.085,0-2.084,1.367a1.165,1.165,0,0,0,.7,1.179,3.862,3.862,0,0,0,1.469.205h2.273a3.652,3.652,0,0,1,2.238.615A2.416,2.416,0,0,1,746.639,910.92Z" fill="#000000"/><path d="M765.551,913.637h-1.435l-4.732-6.066-4.734,6.066h-1.434l5.467-7L753.95,900.6h1.436l4,5.126,4-5.126H764.8l-4.7,6.031Z" fill="#000000"/><path d="M777.117,904.582a3.556,3.556,0,0,1-1.657,3.16,4.888,4.888,0,0,1-2.733.8H767.7v5.092h-1.11V900.6h6.134a4.9,4.9,0,0,1,2.733.8A3.548,3.548,0,0,1,777.117,904.582Zm-1.128,0a2.56,2.56,0,0,0-1.161-2.256,3.652,3.652,0,0,0-2.1-.614H767.7v5.706h5.024a3.718,3.718,0,0,0,2.1-.6A2.511,2.511,0,0,0,775.989,904.582Z" fill="#000000"/><path d="M784.977,900.7l-6.014,13.258-1.06-.427,6.032-13.258Z" fill="#000000"/><path d="M797.824,903.864a3.194,3.194,0,0,1-1.2,2.717,4.944,4.944,0,0,1-2.939.785H790.8a3.273,3.273,0,0,0-2.118.53,2.831,2.831,0,0,0-.7,2.221v2.409h9.739v1.111H786.855v-3.52a3.769,3.769,0,0,1,1.094-3.058,4.372,4.372,0,0,1,2.853-.786h2.887q3.024,0,3.025-2.409a1.9,1.9,0,0,0-.8-1.572,3.206,3.206,0,0,0-1.931-.58h-7V900.6h7a4.4,4.4,0,0,1,2.581.786A2.915,2.915,0,0,1,797.824,903.864Z" fill="#000000"/><path d="M812.808,907.11a7.1,7.1,0,0,1-1.829,4.92,5.829,5.829,0,0,1-8.833-.016,7.442,7.442,0,0,1,0-9.807,5.862,5.862,0,0,1,8.833.017A7.013,7.013,0,0,1,812.808,907.11Zm-1.111.017a6.1,6.1,0,0,0-1.486-4.117,4.626,4.626,0,0,0-3.622-1.708,4.727,4.727,0,0,0-3.674,1.725,6.316,6.316,0,0,0,.018,8.2,4.693,4.693,0,0,0,3.656,1.709,4.627,4.627,0,0,0,3.622-1.709A6.042,6.042,0,0,0,811.7,907.127Z" fill="#000000"/><path d="M827.022,907.11a7.1,7.1,0,0,1-1.828,4.92,5.829,5.829,0,0,1-8.833-.016,7.442,7.442,0,0,1,0-9.807,5.862,5.862,0,0,1,8.833.017A7.013,7.013,0,0,1,827.022,907.11Zm-1.11.017a6.1,6.1,0,0,0-1.486-4.117A4.626,4.626,0,0,0,820.8,901.3a4.727,4.727,0,0,0-3.674,1.725,6.318,6.318,0,0,0,.017,8.2,4.7,4.7,0,0,0,3.657,1.709,4.627,4.627,0,0,0,3.622-1.709A6.042,6.042,0,0,0,825.912,907.127Z" fill="#000000"/><path d="M841.236,907.11a7.1,7.1,0,0,1-1.828,4.92,5.829,5.829,0,0,1-8.833-.016,7.439,7.439,0,0,1,0-9.807,5.862,5.862,0,0,1,8.833.017A7.013,7.013,0,0,1,841.236,907.11Zm-1.11.017a6.1,6.1,0,0,0-1.486-4.117,4.629,4.629,0,0,0-3.622-1.708,4.726,4.726,0,0,0-3.674,1.725,6.318,6.318,0,0,0,.017,8.2,4.7,4.7,0,0,0,3.657,1.709,4.63,4.63,0,0,0,3.622-1.709A6.042,6.042,0,0,0,840.126,907.127Z" fill="#000000"/><path d="M526.244,954.437h-4.8q-6.2,0-6.2-6.527,0-6.51,6.2-6.51h4.8v1.112h-4.8a5.563,5.563,0,0,0-3.4.871q-1.69,1.264-1.691,4.527,0,3.28,1.691,4.528a5.485,5.485,0,0,0,3.4.888h4.8Z" fill="#000000"/><path d="M535.043,954.437H533.9v-5.314a3.1,3.1,0,0,0-.546-2.067,3.065,3.065,0,0,0-2.341-.735h-2.87v8.116h-1.128V941.4h1.128v3.777h2.87q4.032,0,4.032,3.946Z" fill="#000000"/><path d="M544.645,949.106v5.331h-5.981a3.239,3.239,0,0,1-1.845-.564,2.915,2.915,0,0,1,0-4.682,3.231,3.231,0,0,1,1.845-.563H543.5q-.24-2.324-3.127-2.324h-4.511v-1.127h4.511a4.434,4.434,0,0,1,3.178,1.042A3.735,3.735,0,0,1,544.645,949.106Zm-1.128.649h-4.835a2.151,2.151,0,0,0-1.247.376,1.777,1.777,0,0,0,0,2.8,2.144,2.144,0,0,0,1.247.376h4.835Z" fill="#000000"/><path d="M554.075,951.72q0,2.716-3.469,2.717h-4.835v-1.145h4.835a4.114,4.114,0,0,0,1.607-.239,1.354,1.354,0,0,0,.718-1.333q0-1.554-2.017-1.555h-2.152a5.016,5.016,0,0,1-2.375-.444,2.167,2.167,0,0,1-1.042-2.05,2.189,2.189,0,0,1,.991-1.965,4.118,4.118,0,0,1,2.221-.529h4.885V946.3h-4.885q-2.085,0-2.084,1.367a1.164,1.164,0,0,0,.7,1.179,3.879,3.879,0,0,0,1.469.2h2.272a3.652,3.652,0,0,1,2.238.615A2.413,2.413,0,0,1,554.075,951.72Z" fill="#000000"/><path d="M563.813,949.687v.581h-7.722a2.991,2.991,0,0,0,1.059,2.375,4.642,4.642,0,0,0,2.75.649h3.691v1.145H559.9q-4.953,0-4.954-4.682a5.342,5.342,0,0,1,1.026-3.331,4.251,4.251,0,0,1,3.6-1.641,3.772,3.772,0,0,1,3.417,1.828A5.805,5.805,0,0,1,563.813,949.687Zm-1.162-.546q-.564-3.231-3.075-3.23a3.293,3.293,0,0,0-2.46.94,3.614,3.614,0,0,0-1.008,2.29Z" fill="#000000"/><path d="M580.916,942.512H571.9v4.373h8.286V948H571.9v6.442H570.75V941.4h10.166Z" fill="#000000"/><path d="M582.812,954.437h-1.128V941.4h1.128Z" fill="#000000"/><path d="M591.61,952.3a4.238,4.238,0,0,1-.956,3.178,4.386,4.386,0,0,1-3.127.9h-3.843v-1.127h3.843a4.428,4.428,0,0,0,2.051-.342,1.881,1.881,0,0,0,.819-1.452h-2.955a4.671,4.671,0,0,1-2.853-.718,3.74,3.74,0,0,1-1.179-3.127v-4.441h1.145v4.441a2.7,2.7,0,0,0,.786,2.238,3.485,3.485,0,0,0,2.1.5h3.024v-7.176h1.144Z" fill="#000000"/><path d="M593.336,942.528h-1.128V941.4h1.128Zm0,11.909h-1.128v-9.26h1.128Z" fill="#000000"/><path d="M602.34,954.437H601.2v-4.425a3.915,3.915,0,0,0-.923-3.007,3.757,3.757,0,0,0-2.579-.7h-2.7v8.133h-1.145v-9.26h3.844a4.8,4.8,0,0,1,3.331.99q1.315,1.128,1.316,3.845Z" fill="#000000"/><path d="M612.163,945.177v8.337q0,2.853-3.673,2.853h-4.084v-1.128h4.084a3.728,3.728,0,0,0,2.05-.41,1.488,1.488,0,0,0,.5-1.264h-3.178a4.6,4.6,0,0,1-3.689-1.452,4.407,4.407,0,0,1,0-5.484,4.564,4.564,0,0,1,3.689-1.452Zm-1.128,7.278V946.3h-3.041a3.818,3.818,0,0,0-2.9,1.043,3.1,3.1,0,0,0,0,4.049,3.787,3.787,0,0,0,2.9,1.059Z" fill="#000000"/><path d="M629.01,942.512h-9.022v4.373h8.286V948h-8.286v6.442h-1.144V941.4H629.01Z" fill="#000000"/><path d="M638.867,949.106v5.331h-5.98a3.239,3.239,0,0,1-1.845-.564,2.914,2.914,0,0,1,0-4.682,3.231,3.231,0,0,1,1.845-.563h4.836q-.241-2.324-3.127-2.324h-4.511v-1.127H634.6a4.431,4.431,0,0,1,3.177,1.042A3.732,3.732,0,0,1,638.867,949.106Zm-1.128.649H632.9a2.154,2.154,0,0,0-1.247.376,1.778,1.778,0,0,0,0,2.8,2.146,2.146,0,0,0,1.247.376h4.835Z" fill="#000000"/><path d="M647.87,954.437h-1.144v-4.425a3.919,3.919,0,0,0-.923-3.007,3.758,3.758,0,0,0-2.579-.7h-2.7v8.133h-1.145v-9.26h3.845a4.8,4.8,0,0,1,3.331.99q1.316,1.128,1.315,3.845Z" fill="#000000"/><path d="M655.627,946.475h-3.554v4.339a2.938,2.938,0,0,0,.36,1.675,1.54,1.54,0,0,0,1.4.58h1.777v1.111h-1.777q-2.887,0-2.887-3.366v-4.339h-2.563v-1.093h2.563V941.4h1.127v3.982h3.554Z" fill="#000000"/><path d="M665.144,949.106v5.331h-5.981a3.239,3.239,0,0,1-1.845-.564,2.915,2.915,0,0,1,0-4.682,3.231,3.231,0,0,1,1.845-.563H664q-.24-2.324-3.127-2.324h-4.511v-1.127h4.511a4.434,4.434,0,0,1,3.178,1.042A3.735,3.735,0,0,1,665.144,949.106Zm-1.128.649h-4.835a2.151,2.151,0,0,0-1.247.376,1.777,1.777,0,0,0,0,2.8,2.144,2.144,0,0,0,1.247.376h4.835Z" fill="#000000"/><path d="M674.574,951.72q0,2.716-3.469,2.717h-4.834v-1.145h4.834a4.114,4.114,0,0,0,1.607-.239,1.354,1.354,0,0,0,.718-1.333q0-1.554-2.017-1.555h-2.152a5.016,5.016,0,0,1-2.375-.444,2.167,2.167,0,0,1-1.042-2.05,2.189,2.189,0,0,1,.991-1.965,4.118,4.118,0,0,1,2.221-.529h4.885V946.3h-4.885q-2.085,0-2.084,1.367a1.164,1.164,0,0,0,.7,1.179,3.879,3.879,0,0,0,1.469.2h2.272a3.652,3.652,0,0,1,2.238.615A2.413,2.413,0,0,1,674.574,951.72Z" fill="#000000"/><path d="M682.5,946.475h-3.554v4.339a2.938,2.938,0,0,0,.36,1.675,1.54,1.54,0,0,0,1.4.58h1.777v1.111h-1.777q-2.887,0-2.887-3.366v-4.339h-2.563v-1.093h2.563V941.4h1.127v3.982H682.5Z" fill="#000000"/><path d="M684.057,942.528h-1.128V941.4h1.128Zm0,11.909h-1.128v-9.26h1.128Z" fill="#000000"/><path d="M693.367,954.437H689.1a4.128,4.128,0,0,1-2.94-1.145,4.439,4.439,0,0,1-1.4-3.469,4.546,4.546,0,0,1,1.4-3.5,4.131,4.131,0,0,1,2.94-1.144h4.27V946.3h-4.254a3.045,3.045,0,0,0-2.17.838,3.458,3.458,0,0,0-1.042,2.681,3.419,3.419,0,0,0,1.042,2.649,3.083,3.083,0,0,0,2.17.82h4.254Z" fill="#000000"/><path d="M712.794,947.91a7.1,7.1,0,0,1-1.828,4.92,5.847,5.847,0,0,1-8.851-.017,7.489,7.489,0,0,1,0-9.806,5.883,5.883,0,0,1,8.851.016A7.021,7.021,0,0,1,712.794,947.91Zm-1.111.017a6.06,6.06,0,0,0-1.5-4.117,4.614,4.614,0,0,0-3.606-1.708,4.774,4.774,0,0,0-3.689,1.725,6.034,6.034,0,0,0-1.5,4.1,5.956,5.956,0,0,0,1.538,4.1,4.691,4.691,0,0,0,3.655,1.709,4.612,4.612,0,0,0,3.606-1.709A6,6,0,0,0,711.683,947.927Z" fill="#000000"/><path d="M722.736,949.823a4.408,4.408,0,0,1-1.418,3.469,4.223,4.223,0,0,1-2.955,1.145H713.7V941.4h1.128v3.777h3.537a4.227,4.227,0,0,1,2.955,1.144A4.514,4.514,0,0,1,722.736,949.823Zm-1.178,0a3.484,3.484,0,0,0-1.026-2.681,3.14,3.14,0,0,0-2.186-.838h-3.52v6.988h3.52a3.179,3.179,0,0,0,2.186-.82A3.445,3.445,0,0,0,721.558,949.823Z" fill="#000000"/><path d="M728.614,952.284q0,2.6-1.333,3.468a5.974,5.974,0,0,1-3.16.615h-.786v-1.128h.8a5.184,5.184,0,0,0,2.494-.392q.855-.6.854-2.631v-7.039h1.128Zm0-9.756H727.5V941.4h1.11Z" fill="#000000"/><path d="M738.626,949.687v.581H730.9a2.991,2.991,0,0,0,1.06,2.375,4.642,4.642,0,0,0,2.75.649h3.69v1.145h-3.69q-4.955,0-4.954-4.682a5.348,5.348,0,0,1,1.025-3.331,4.251,4.251,0,0,1,3.605-1.641,3.773,3.773,0,0,1,3.417,1.828A5.805,5.805,0,0,1,738.626,949.687Zm-1.162-.546q-.564-3.231-3.075-3.23a3.292,3.292,0,0,0-2.46.94,3.6,3.6,0,0,0-1.008,2.29Z" fill="#000000"/><path d="M748.107,954.437h-4.27a4.13,4.13,0,0,1-2.94-1.145,4.439,4.439,0,0,1-1.4-3.469,4.546,4.546,0,0,1,1.4-3.5,4.133,4.133,0,0,1,2.94-1.144h4.27V946.3h-4.253a3.042,3.042,0,0,0-2.17.838,3.454,3.454,0,0,0-1.042,2.681,3.416,3.416,0,0,0,1.042,2.649,3.079,3.079,0,0,0,2.17.82h4.253Z" fill="#000000"/><path d="M756.052,946.475H752.5v4.339a2.947,2.947,0,0,0,.359,1.675,1.542,1.542,0,0,0,1.4.58h1.777v1.111h-1.777q-2.888,0-2.887-3.366v-4.339h-2.563v-1.093h2.563V941.4H752.5v3.982h3.554Z" fill="#000000"/><path d="M764.34,941.384l-.5,10.353h-.564l-.5-10.353Zm-.018,13.343H762.8V953.24h1.52Z" fill="#000000"/></g><g id="上海_アリス幻樂団" data-name="上海■アリス幻樂団"><path d="M910.689,860.125a1.561,1.561,0,0,1,.842.217.635.635,0,0,1,.365.606l-.063,1.965h3.289a4.714,4.714,0,0,1,1.032.072.433.433,0,0,1,.239.448,1.077,1.077,0,0,1-.206.635.74.74,0,0,1-.557.232q-.27,0-1.112-.044c-.53-.009-1.012-.015-1.446-.015-.339,0-.778.006-1.318.015l-.1,2.816q2.637.087,6.593.621a2.591,2.591,0,0,1-.477,1.315.82.82,0,0,1-.682.419,6.071,6.071,0,0,1-1.224-.217,24.056,24.056,0,0,0-5.37-.636,18.719,18.719,0,0,0-5.242.694,4.123,4.123,0,0,1-1.065.216.9.9,0,0,1-.6-.274.723.723,0,0,1-.285-.52.858.858,0,0,1,.761-.924,24.793,24.793,0,0,1,5.657-.694l-.064-6.124a.691.691,0,0,1,.286-.577A1.032,1.032,0,0,1,910.689,860.125Z" fill="#000000"/><path d="M903.953,878.314l2.669.058q.444.115.444.361,0,.375-.905.679a20.5,20.5,0,0,1-2.161.534.9.9,0,0,1-.492-.231.609.609,0,0,1-.254-.462,1.22,1.22,0,0,1,.206-.649A.659.659,0,0,1,903.953,878.314Zm1.144-3.754a2.183,2.183,0,0,1,1.175.649q1.224,1.026,1.224,1.257c0,.24-.143.361-.43.361a2.728,2.728,0,0,1-.634-.1,9.256,9.256,0,0,0-1.51-.173q-.793-.073-.794-1.055a.891.891,0,0,1,.3-.664A1.041,1.041,0,0,1,905.1,874.56Zm1.128,6.542c.179,0,.27.072.27.216q0,.261-.238,1.979-.064.621-.859.621a1.314,1.314,0,0,1-.747-.2.805.805,0,0,1-.317-.65.9.9,0,0,1,.238-.462l1.3-1.314A.582.582,0,0,1,906.225,881.1Zm3.829-4.059a1.181,1.181,0,0,1,.619.145.205.205,0,0,1,.08.043q1.032-.058,2.652-.058,2.575,0,3.258.072c.211.02.317.092.317.217a1.565,1.565,0,0,1-.126.318,8.158,8.158,0,0,0-.477,1.66q.938.058,1.985.145a2.033,2.033,0,0,1-.365,1.084.737.737,0,0,1-.572.375,3.645,3.645,0,0,1-.937-.2c-.137-.03-.27-.058-.4-.087-.032.144-.059.294-.079.448s-.07.3-.112.447q.731.045,1.319.073c.179.029.27.087.27.173a.95.95,0,0,1-.207.635.718.718,0,0,1-.555.246q-.288,0-1.161-.057a3.106,3.106,0,0,1-.508.91,1.079,1.079,0,0,1-.873.534,1.386,1.386,0,0,1-1.161-.693,2.413,2.413,0,0,0,.715-.838q-1.62-.043-3.94-.043a3.772,3.772,0,0,0-1.207.144,1.277,1.277,0,0,1-.4.1.672.672,0,0,1-.444-.159.39.39,0,0,1-.19-.361,1.432,1.432,0,0,1,.158-.476q.222-.564.445-1.142c-.138.03-.27.053-.4.073a4.552,4.552,0,0,1-.969.159.542.542,0,0,1-.382-.2.435.435,0,0,1-.19-.319.548.548,0,0,1,.508-.577,17.007,17.007,0,0,1,1.891-.332q.364-.982.73-2.037Q909.481,877.044,910.054,877.043Zm-.4-2.643a2.7,2.7,0,0,1,1.033.173q.3.174.3.4a.839.839,0,0,1-.111.361q1.048-.087,2.875-.087,2.892,0,4.306.131a1.993,1.993,0,0,1-.287,1.025.451.451,0,0,1-.413.245q-.332,0-1.366-.057-1.652-.13-2.732-.13-1.4,0-2.542.115a7.672,7.672,0,0,1-.858.072.341.341,0,0,1-.1-.014.664.664,0,0,0-.127.116,3.233,3.233,0,0,1-2.018,1.054c-.286,0-.43-.081-.43-.246,0-.077.07-.178.207-.3a7.869,7.869,0,0,0,1.43-1.5,1.691,1.691,0,0,0,.4-.9.777.777,0,0,0-.207-.419A3.8,3.8,0,0,1,909.656,874.4Zm1.557,7.164.318-1.2c-.561.02-1.1.053-1.621.1l-.381,1.039c0,.039.132.058.4.058Zm-.9-2.195q.7-.043,1.509-.058l.3-1.1q-.779.015-1.414.044Zm3.844,2.238a.1.1,0,0,0,.016-.043c.128-.395.244-.755.35-1.084a15.141,15.141,0,0,0-1.716-.129l-.318,1.227C913.077,881.578,913.634,881.588,914.152,881.607Zm-.762-3.394-.318,1.1q.827,0,1.78.043a5.551,5.551,0,0,0,.206-.982Q915.058,878.228,913.39,878.213Z" fill="#000000"/><path d="M916.869,899.2H904.651V888.039h12.218Z" fill="#000000"/><path d="M895.24,863.981a8.526,8.526,0,0,1-.159,1.965,3.039,3.039,0,0,1-1,1.589,5.788,5.788,0,0,1-2.4,1.314,6.2,6.2,0,0,1-1.828.318q-1.317,0-1.318-.91a2.272,2.272,0,0,1,1.1-2.051q.144.52.953.52a2.137,2.137,0,0,0,2.225-1.243,3.1,3.1,0,0,0,.207-.909v-.65q0-.736.984-.736a2.25,2.25,0,0,1,.874.115A.677.677,0,0,1,895.24,863.981Zm5.8-2.007a.72.72,0,0,1-.333.592,7.166,7.166,0,0,0-.684.419,1.566,1.566,0,0,0-.524.361q-1.764,1.806-2.367,1.8-.731,0-.731-.548a4.93,4.93,0,0,1,.6-1.156.913.913,0,0,0,.111-.332c0-.25-.143-.376-.428-.376-.033,0-.361-.009-.986-.028s-1.012-.044-1.16-.044a18.442,18.442,0,0,0-3.034.246q-1.479.231-1.573.231a1.06,1.06,0,0,1-.588-.188.862.862,0,0,1-.366-.693,1.016,1.016,0,0,1,1.017-1.1,23.1,23.1,0,0,1,2.972-.187q3.43,0,5.8.187a7.926,7.926,0,0,1,1.747.274C900.864,861.564,901.039,861.743,901.039,861.974Z" fill="#000000"/><path d="M899.085,875.888q0,.261-.159,2.094a6.05,6.05,0,0,1-2,4.434,6.8,6.8,0,0,1-4.227,1.142,6.338,6.338,0,0,1-1.35-.1q-.843-.187-.842-.78,0-.923,1.462-1.906a1.737,1.737,0,0,0,1.477.491,3.012,3.012,0,0,0,1.843-.694,3.668,3.668,0,0,0,1.3-3.047v-.9c.011-.385.015-.611.015-.679q0-.779,1.255-.779a1.841,1.841,0,0,1,.795.173Q899.085,875.555,899.085,875.888Zm-6.212-.073q0,.175-.016,1.243-.015,1.083-.015,1.459,0,1.488-1.224,1.487-.954,0-.953-1.054c0-.125-.017-.583-.048-1.372s-.032-1.334-.032-1.633q0-.75,1.192-.751Q892.874,875.194,892.873,875.815Z" fill="#000000"/><path d="M900.483,897.008a2.063,2.063,0,0,1-1.477.91,1.561,1.561,0,0,1-.89-.448q-.19-.144-.636-.491c-.275-.221-.513-.405-.714-.549a15.749,15.749,0,0,0-2.542-1.4q-2.812,2.425-4.957,2.426-.843,0-.842-.909a3.424,3.424,0,0,1,.905-1.849.923.923,0,0,0,.667.245,3.807,3.807,0,0,0,1.542-.447,7.6,7.6,0,0,0,1.605-.954,11.22,11.22,0,0,0,1.016-.953c.286-.317.429-.525.429-.621,0-.154-.153-.231-.461-.231a22.354,22.354,0,0,0-2.764.145q-1.113.115-1.017.115a.9.9,0,0,1-.842-.925q0-.865,1.08-.866l1.8-.029q1.859-.072,2.78-.072a8.085,8.085,0,0,1,2.573.246c.319.115.477.289.477.519a.559.559,0,0,1-.27.434,3.7,3.7,0,0,0-.508.4q-.493.52-1.859,2.051a12.285,12.285,0,0,0,3.146,1.387q.682.216,2.065.563c.1.02.217.048.365.087h.016A2.224,2.224,0,0,1,900.483,897.008Z" fill="#000000"/><path d="M876.1,860.024a.948.948,0,0,1,.684.217.844.844,0,0,1,.254.577,1.448,1.448,0,0,1-.588.983l-1.922,1.487q-.413.376-.413.477,0,.216.54.476l.715.261q.984-.781,1.923-1.561a1.4,1.4,0,0,1,.842-.432.9.9,0,0,1,.507.187.667.667,0,0,1,.255.492,1.7,1.7,0,0,1-.731,1.242l-3.019,2.44,2.463.072c.085,0,.127-.052.127-.159q-.636-.635-.636-.808,0-.4.446-.4a4.114,4.114,0,0,1,1.683,1.04q1.05.823,1.049,1.271,0,.636-.572.636a4.952,4.952,0,0,1-.667-.1,19.032,19.032,0,0,0-1.97-.072h-2.113a11.168,11.168,0,0,0-2.065.144,2.062,2.062,0,0,1-.477.145c-.647,0-.969-.194-.969-.578a1.546,1.546,0,0,1,.763-1.141q.9-.664,1.763-1.314a12.375,12.375,0,0,0-1.874-.751q-.715-.2-.715-.492,0-.273.634-.852l2.686-2.629A2.539,2.539,0,0,1,876.1,860.024Zm6.166.52q2.6,0,3.383.087c.328.057.493.164.493.317a.667.667,0,0,1-.112.261,1.537,1.537,0,0,0-.222.823l-.1,4.145a3.581,3.581,0,0,1-1.287,2.6,3.387,3.387,0,0,1-2.16.838,1.245,1.245,0,0,1-.874-.375,3.308,3.308,0,0,1-.779-1.416,6.11,6.11,0,0,0,2.558-.794,2.075,2.075,0,0,0,.874-1.848V862.22c0-.125-.091-.188-.271-.188q-2.3,0-3.7.115a6,6,0,0,1-1,.13A.653.653,0,0,1,878.6,862a.837.837,0,0,1-.223-.607c0-.394.291-.655.874-.78Q879.7,860.544,882.27,860.544Z" fill="#000000"/><path d="M874.373,874.56a.647.647,0,0,1,.7.634.655.655,0,0,1-.3.463l-1,.707c-.149.125-.223.2-.223.232s.079.077.238.115l.286.058.684-.563a.886.886,0,0,1,.523-.246.442.442,0,0,1,.493.506.611.611,0,0,1-.333.5l-1.7,1.228c0,.038.048.058.144.058h1.128c.1,0,.142-.02.142-.058a1.894,1.894,0,0,1-.206-.52c0-.145.112-.217.333-.217.181,0,.451.179.811.534.307.328.461.573.461.737q0,.462-.509.462a2.672,2.672,0,0,1-.429-.057h-1.366a14.933,14.933,0,0,0-1.827.087,1.523,1.523,0,0,1-.381.086.428.428,0,0,1-.27-.1.294.294,0,0,1-.127-.26c0-.125.159-.3.476-.535l.874-.751a8.479,8.479,0,0,0-1.1-.39q-.381-.086-.381-.231t.381-.477l1.636-1.5A1.578,1.578,0,0,1,874.373,874.56Zm4.575-.275a2.89,2.89,0,0,1,.938.1q.222.072.222.231a.979.979,0,0,1-.159.477,13.012,13.012,0,0,1,1.685.144c.159.029.238.1.238.2q-.079.346-.19,1.026l.174-.159,1.621-1.4a1.559,1.559,0,0,1,.826-.462.666.666,0,0,1,.509.188.678.678,0,0,1,.19.448q0,.188-.334.434l-1.1.634c-.148.107-.222.174-.222.2,0,.048.063.1.19.159l.3.13.572-.448a.919.919,0,0,1,.524-.231.448.448,0,0,1,.508.506c0,.182-.121.342-.365.476L883.35,878.1c0,.029.042.043.127.043h1c.137,0,.207-.014.207-.043a1.694,1.694,0,0,1-.207-.477c0-.144.111-.217.334-.217q.269,0,.762.521c.3.3.445.529.445.692,0,.309-.149.463-.445.463h-1.811a13.168,13.168,0,0,0-1.7.086,1.271,1.271,0,0,1-.38.087.482.482,0,0,1-.3-.13.29.29,0,0,1-.111-.217.594.594,0,0,1-.223.044,1.716,1.716,0,0,1-.254-.044c-.308-.028-.731-.048-1.271-.057l.1.043a.953.953,0,0,1,.413.592q2.48.072,6.18.462a2.241,2.241,0,0,1-.444,1.2.776.776,0,0,1-.652.418,5.307,5.307,0,0,1-1.175-.231,22.038,22.038,0,0,0-3.925-.606l-.032,1.646a2.2,2.2,0,0,1-.334,1.285.883.883,0,0,1-.809.448,1.251,1.251,0,0,1-.826-.289c-.223-.144-.334-.588-.334-1.329v-1.776a22.637,22.637,0,0,0-4.354.534,5.088,5.088,0,0,1-1.111.188.651.651,0,0,1-.43-.2.481.481,0,0,1-.206-.36.661.661,0,0,1,.571-.708,24.163,24.163,0,0,1,5.545-.664.884.884,0,0,1,.319-.549,1.309,1.309,0,0,1,.158-.1,8.707,8.707,0,0,0-1.048.1.7.7,0,0,1-.207.072q-.3,0-.365-.462l-.334-2.947a.349.349,0,0,1,.3-.346q.6-.1,1.223-.145a1.3,1.3,0,0,0,.143-.447c0-.068-.069-.159-.206-.275A7.452,7.452,0,0,1,878.948,874.285Zm-3.034,7.221c.085,0,.127.039.127.116a1.955,1.955,0,0,1-.763,1.271,2.881,2.881,0,0,1-1.8.852c-.38,0-.572-.246-.572-.736a1.162,1.162,0,0,1,.271-.867c.021.077.121.115.3.115a3.815,3.815,0,0,0,1.843-.577A1.571,1.571,0,0,1,875.914,881.506Zm2.05-4.867a8.758,8.758,0,0,1,.937-.043q.572,0,1.16.043l.047-.5c0-.049-.037-.082-.111-.1a6.633,6.633,0,0,0-1.159-.072,3.033,3.033,0,0,0-.763.087c-.085.019-.127.048-.127.087Zm.238,1.343a4.815,4.815,0,0,1,.731-.057,5.98,5.98,0,0,1,.841.057.189.189,0,0,0,.207-.173l.032-.419c-.392-.029-.762-.043-1.112-.043s-.651.009-.906.029l.017.549C878.012,877.963,878.075,877.982,878.2,877.982Zm3.241.563c.074-.066.164-.149.27-.245l1.016-.794a7.054,7.054,0,0,0-.936-.477.886.886,0,0,1-.175-.087C881.564,877.4,881.507,877.93,881.443,878.545Zm.429,3.019a2.259,2.259,0,0,1,.842.231,9,9,0,0,0,1.971.693,2.571,2.571,0,0,1-.573,1.055,1.252,1.252,0,0,1-.762.26,1.32,1.32,0,0,1-.859-.477,3.022,3.022,0,0,1-.809-1.589C881.682,881.622,881.745,881.564,881.872,881.564Z" fill="#000000"/><path d="M878.948,889.18a48.761,48.761,0,0,1,6.133.259q.557.074.557.319-.318,1.977-.7,7.9c-.021.347-.154.52-.4.52-.1,0-.328-.025-.7-.073q-1.6-.143-4.925-.144-3.4,0-5.259.174a3.948,3.948,0,0,1-.619.1c-.2,0-.323-.149-.366-.447l-.635-7.8q0-.419.746-.519Q875.835,889.18,878.948,889.18Zm-4.638,7.452q1.3-.028,2.574-.043a.62.62,0,0,1-.144-.145,1.649,1.649,0,0,1-.334-1.083,5.8,5.8,0,0,0,2.24-.332.758.758,0,0,0,.494-.65v-1.632a19.936,19.936,0,0,0-3.115.26q-.762.1-.953.1a.639.639,0,0,1-.445-.173.69.69,0,0,1-.175-.462.622.622,0,0,1,.43-.592,22.47,22.47,0,0,1,4.258-.217v-.693a.588.588,0,0,1,.142-.4h-.334q-2.382,0-4.431.159c-.52.039-.78.1-.78.173l.382,5.619C874.119,896.594,874.183,896.632,874.31,896.632Zm3.574-3.481a.375.375,0,0,1,.429.419c0,.077-.126.232-.381.462a4.915,4.915,0,0,1-1.223.723,3.071,3.071,0,0,1-1.064.245c-.33,0-.494-.135-.494-.4a1.467,1.467,0,0,1,.366-.852.278.278,0,0,0,.254.1,2.7,2.7,0,0,0,.842-.159,4.052,4.052,0,0,0,.953-.448A.613.613,0,0,1,877.884,893.151Zm2.717-2.585a.347.347,0,0,1,.08.217,3.12,3.12,0,0,0-.064.52v.376q1.208.042,2.526.158a2.017,2.017,0,0,1-.3,1.083.6.6,0,0,1-.46.188,5.749,5.749,0,0,1-.826-.1c-.34-.068-.652-.12-.938-.158v1.689a1.767,1.767,0,0,1-.906,1.632,4.9,4.9,0,0,1-.969.4h4.4c.128,0,.2-.081.207-.245l.365-5.488c0-.077-.138-.13-.413-.159Q882.365,890.6,880.6,890.566Z" fill="#000000"/></g></g></svg>
