<svg xmlns="http://www.w3.org/2000/svg" width="1000" height="988" viewBox="0 0 1000 988"><g id="Artboard"><rect id="Tint" width="1000" height="988" fill="#58595b"/></g><g id="Outline"><g id="東方星蓮船"><path d="M519.6,811.631a3.9,3.9,0,0,1-1.741-.375,1.857,1.857,0,0,1-.228-.133c-1.268-.851-1.91-2.329-1.91-4.394v-13.3a101.422,101.422,0,0,1-13.361,9.887A107.682,107.682,0,0,1,485.246,811a2,2,0,0,1-.395.1,6.978,6.978,0,0,1-.958.075,2.521,2.521,0,0,1-2.546-1.483c-.653-1.582.69-2.918,1.132-3.357a1.989,1.989,0,0,1,.4-.306,80.107,80.107,0,0,0,19.338-15.665,81.5,81.5,0,0,0,7.478-9.655h-4.325v1.759c0,1.506-.653,4.163-5.025,5.036a16.81,16.81,0,0,1-3.595.461,5.61,5.61,0,0,1-3.382-.912,3.846,3.846,0,0,1-1.565-3.218V750.009a2,2,0,0,1,2.818-1.825l9.519,4.267h11.581v-4.542H483.547a2,2,0,0,1-1.838-1.212l-1.025-2.392a2,2,0,0,1,1.838-2.788h33.194V729.85a2,2,0,0,1,2.256-1.984l10.592,1.366a1.989,1.989,0,0,1,.334.073c.841.259,3.4,1.049,3.774,3.294s-1.792,3.818-2.5,4.336a2.027,2.027,0,0,1-.388.219l-1.179.506v3.857h17.824l4.868-6.694a2,2,0,0,1,1.351-.8,1.97,1.97,0,0,1,.266-.018,2,2,0,0,1,1.249.438l8.543,6.834c.646.563,2.4,2.1,1.869,4.077-.345,1.29-1.492,2.138-3.41,2.521a1.979,1.979,0,0,1-.391.039H545.106l8.754,7.407c.043.037.085.076.125.116a4.015,4.015,0,0,1,1.291,3.038,5.175,5.175,0,0,1-2.087,3.648,1.987,1.987,0,0,1-.194.148l-.135.089V781.1a4.431,4.431,0,0,1-2.4,4.145,9.209,9.209,0,0,1-4.566,1.271,12.482,12.482,0,0,1-1.765.139,5.291,5.291,0,0,1-3.349-.964,3.881,3.881,0,0,1-1.486-3.224v-1.759h-6.928a56.457,56.457,0,0,0,6.382,5.636,44.9,44.9,0,0,0,11.146,6.224c5.6,2.244,10.369,3.948,14.173,5.065a2,2,0,0,1,.367,3.689,20.809,20.809,0,0,0-8.754,8.094,2,2,0,0,1-2.638.809,62.9,62.9,0,0,1-18.348-13.765A60.133,60.133,0,0,1,528.6,788.6v16.767c0,2.352-1.3,5.306-7.455,6.072A6.91,6.91,0,0,1,519.6,811.631Zm19.7-37.312v-4.542H528.6v4.542Zm-23.577,0v-4.542H505.365v4.542Zm23.577-10.934v-4.542H528.6v4.542Zm-23.577,0v-4.542H505.365v4.542Zm24.035-10.934,2.169-4.066a2.03,2.03,0,0,1,.353-.476H528.6v4.542Z" fill="#fff"/><path d="M517.716,729.85l10.593,1.366q4.437,1.37.683,4.1l-2.391,1.026v7.175h20.842L552.91,736l8.543,6.834q2.73,2.394-.683,3.075H526.6v8.542h14.35l2.734-5.125,8.883,7.517q1.707,1.713-.682,3.759l-1.026.683V781.1a2.448,2.448,0,0,1-1.367,2.392,7.177,7.177,0,0,1-3.758,1.025,10.621,10.621,0,0,1-1.607.138q-2.837,0-2.835-2.188v-3.759H527.967a52.632,52.632,0,0,0,9.567,9.226,46.653,46.653,0,0,0,11.617,6.492q8.538,3.42,14.352,5.126a22.655,22.655,0,0,0-9.567,8.883,60.616,60.616,0,0,1-17.768-13.326,70.376,70.376,0,0,1-9.567-13.668v23.919q0,3.412-5.809,4.1a5.123,5.123,0,0,1-1.2.168,1.923,1.923,0,0,1-.853-.168,3.08,3.08,0,0,1-1.025-2.734V788.962a105.866,105.866,0,0,1-16.4,12.642,105.175,105.175,0,0,1-16.743,7.517,5.008,5.008,0,0,1-.68.056q-1.431,0,0-1.422a81.76,81.76,0,0,0,19.818-16.06,78.915,78.915,0,0,0,9.567-12.984h-9.909v3.759q0,2.394-3.417,3.075a15.153,15.153,0,0,1-3.2.421q-2.948,0-2.947-2.129V750.009l9.909,4.442h14.009v-8.542H483.547l-1.025-2.392h35.194V729.85m8.885,35.535h14.692v-8.542H526.6v8.542m-23.236,0h14.351v-8.542H503.365v8.542M526.6,776.319h14.692v-8.542H526.6v8.542m-23.236,0h14.351v-8.542H503.365v8.542m14.351-50.469a4,4,0,0,0-4,4v9.667H482.522a4,4,0,0,0-3.677,5.575l1.026,2.393a4,4,0,0,0,3.676,2.424H489.8c0,.033,0,.067,0,.1v33.828c0,3.051,2.148,6.129,6.947,6.129a17.84,17.84,0,0,0,3.492-.393,78.531,78.531,0,0,1-18.378,14.735,4.008,4.008,0,0,0-.791.611c-2.259,2.248-2.1,4.252-1.57,5.539a4.507,4.507,0,0,0,4.394,2.719,8.817,8.817,0,0,0,1.238-.1,4.043,4.043,0,0,0,.789-.194,109.817,109.817,0,0,0,17.381-7.81c.032-.019.064-.037.095-.057a96.948,96.948,0,0,0,10.321-7.323v9.031c0,3.453,1.52,5.2,2.8,6.055a3.973,3.973,0,0,0,.456.264,5.867,5.867,0,0,0,2.626.583,8.651,8.651,0,0,0,1.9-.225c8.212-1.062,9.106-5.968,9.106-8.043V794.769q1.321,1.659,2.645,3.074a64.784,64.784,0,0,0,18.9,14.173,4,4,0,0,0,5.275-1.617,18.6,18.6,0,0,1,7.941-7.3,4,4,0,0,0-.733-7.379c-3.744-1.1-8.451-2.782-13.991-5a51.9,51.9,0,0,1-4.763-2.177l.179-.024A11.138,11.138,0,0,0,551.429,787a6.423,6.423,0,0,0,3.431-5.894v-17.8a6.856,6.856,0,0,0,2.415-4.758,5.967,5.967,0,0,0-1.872-4.527c-.08-.08-.164-.157-.251-.231l-4.586-3.88h10.2a4.044,4.044,0,0,0,.783-.077c3.4-.678,4.566-2.532,4.95-3.967.388-1.45.284-3.675-2.413-6.039-.045-.04-.091-.078-.138-.116l-8.543-6.834a4,4,0,0,0-5.734.771l-4.269,5.87H530.6v-.538a4.031,4.031,0,0,0,.743-.427c2.572-1.87,3.682-3.983,3.3-6.281s-2.117-3.939-5.157-4.877a3.9,3.9,0,0,0-.668-.145l-10.593-1.367a3.984,3.984,0,0,0-.511-.032ZM530.6,749.909h8.239l-.289.542H530.6v-.542Zm-27.247,0h10.362v.542h-9.153l-1.209-.542ZM530.6,760.843h6.692v.542H530.6v-.542Zm-23.236,0h6.351v.542h-6.351v-.542ZM530.6,771.777h6.692v.542H530.6v-.542Zm-23.236,0h6.351v.542h-6.351v-.542Z" fill="#fff"/><path d="M619.444,812.573a4.081,4.081,0,0,1-4.286-3.939,19.263,19.263,0,0,0-.433-3.1l-10.432-5.216a1.944,1.944,0,0,1-.385-.251c-1.311-1.092-1.764-2.232-1.346-3.387.671-1.859,3-1.859,3.994-1.859a1.922,1.922,0,0,1,.347.031,98.777,98.777,0,0,0,11.721,1.339,2.042,2.042,0,0,1,.445.076,2.849,2.849,0,0,0,.786.119,2.772,2.772,0,0,0,1.747-.7c.733-.784,2.062-3.126,3.137-10.106.752-5.284,1.274-9.9,1.554-13.755H610.981c-1.45,8.133-3.874,14.731-7.215,19.628-4.264,6.4-10.622,11.689-18.887,15.707-7.766,3.875-10.305,4.575-11.6,4.638a4.314,4.314,0,0,1-.706.06,2.628,2.628,0,0,1-2.284-1.129,3.126,3.126,0,0,1-.095-3.042,2,2,0,0,1,.873-.993,62.436,62.436,0,0,0,9.27-6.287c8.057-6.535,13.229-14.446,15.394-23.528a102.689,102.689,0,0,0,2.663-22.48H571.361a2,2,0,0,1-1.736-1.007L568.259,751A2,2,0,0,1,570,748.009h31.144V729.85a2,2,0,0,1,2-2,2.037,2.037,0,0,1,.338.028l11.959,2.05a1.988,1.988,0,0,1,.407.115c1.767.71,2.8,1.758,3.082,3.116.285,1.39-.3,2.821-1.729,4.255a1.981,1.981,0,0,1-.444.334l-2.046,1.137v9.124h18.926l5.892-7.132a2,2,0,0,1,2.77-.306l9.226,7.176a1.985,1.985,0,0,1,.188.167c1.342,1.346,1.826,2.67,1.441,3.937s-1.564,2.127-3.491,2.511a1.907,1.907,0,0,1-.391.039H612.823c-.32,3.508-1,11.035-1,11.035h14.446l3.518-5.864a2,2,0,0,1,3.129-.384l9.226,9.225a3.893,3.893,0,0,1,1.284,3.125,4.665,4.665,0,0,1-2.219,3.333c-.043.031-.088.061-.134.088l-.834.5a114.242,114.242,0,0,1-2.7,17.769c-1.689,6.5-4.541,11.555-8.475,15a19.2,19.2,0,0,1-5.741,3.444A10.667,10.667,0,0,1,619.444,812.573Z" fill="#fff"/><path d="M603.139,729.85,615.1,731.9q3.411,1.37.683,4.1l-3.075,1.708v12.3h21.868l6.492-7.859,9.226,7.176q2.386,2.394-1.025,3.075H611q-.69,7.519-1.367,15.035H627.4l4.1-6.834,9.226,9.225q1.705,1.715-.684,3.417l-1.708,1.026a115.9,115.9,0,0,1-2.733,18.451q-2.4,9.225-7.86,14.008a17.071,17.071,0,0,1-5.125,3.076,8.967,8.967,0,0,1-3.17.768,2.086,2.086,0,0,1-2.3-2.135c-.229-2.733-.571-4.217-1.025-4.442q-4.1-2.049-10.935-5.467-2.049-1.705,1.368-1.709a100.268,100.268,0,0,0,11.959,1.368,4.844,4.844,0,0,0,1.341.2,4.768,4.768,0,0,0,3.1-1.223q2.386-2.387,3.759-11.275,1.361-9.562,1.708-16.06H609.289q-2.049,12.99-7.176,20.5-6.149,9.227-18.109,15.035-8.889,4.436-10.934,4.442a2.641,2.641,0,0,1-.5.055q-1.1,0-.524-1.422a63.991,63.991,0,0,0,9.567-6.492q12.638-10.251,16.06-24.6a106.036,106.036,0,0,0,2.733-24.944H571.361L570,750.009h33.144V729.85m0-4a4,4,0,0,0-4,4v16.159H570a4,4,0,0,0-3.473,5.983l1.366,2.393a4,4,0,0,0,3.473,2.016h24.981a98.573,98.573,0,0,1-2.558,20c-2.092,8.779-6.9,16.114-14.692,22.437a60.462,60.462,0,0,1-9.01,6.113,4,4,0,0,0-1.746,1.988,5.008,5.008,0,0,0,.291,4.909,4.649,4.649,0,0,0,3.942,2.01,6.187,6.187,0,0,0,.9-.066c1.49-.085,4.11-.752,12.324-4.852a52.675,52.675,0,0,0,14.765-10.384,5.822,5.822,0,0,0,2.074,3.045,3.947,3.947,0,0,0,.769.5q5.281,2.643,8.933,4.467l.62.31c.065.428.14,1.039.211,1.89l.006.057a6.028,6.028,0,0,0,6.277,5.743,12.615,12.615,0,0,0,4.617-1.039,21.157,21.157,0,0,0,6.281-3.767c4.276-3.748,7.335-9.135,9.128-16.041a112.22,112.22,0,0,0,2.664-17.073c.079-.049.156-.1.232-.155a6.55,6.55,0,0,0,3.049-4.793,5.825,5.825,0,0,0-1.857-4.7l-9.232-9.232A4,4,0,0,0,631.5,756.6a3.843,3.843,0,0,0-.489.03,4,4,0,0,0-2.941,1.912l-2.935,4.892H614.01q.318-3.518.639-7.035h34.618a4.036,4.036,0,0,0,.783-.077c3.371-.673,4.587-2.488,5.013-3.892s.431-3.553-1.938-5.93a4.1,4.1,0,0,0-.377-.333l-9.226-7.176a4,4,0,0,0-5.539.61l-5.293,6.406H616.706v-5.947l1.017-.565a4,4,0,0,0,.887-.669c2.413-2.414,2.569-4.634,2.275-6.07-.29-1.415-1.27-3.356-4.3-4.571a4.049,4.049,0,0,0-.815-.23l-11.959-2.05a4.047,4.047,0,0,0-.675-.057Zm9.5,47.977h11.485c-.3,3.342-.755,7.19-1.368,11.5-1,6.493-2.171,8.434-2.531,8.9a.767.767,0,0,1-.369.164.857.857,0,0,1-.233-.041,4.062,4.062,0,0,0-.89-.151,96.652,96.652,0,0,1-11.482-1.312,4.044,4.044,0,0,0-.695-.061,11.727,11.727,0,0,0-1.349.074c.079-.115.157-.231.235-.348,3.249-4.76,5.669-11.054,7.2-18.719Z" fill="#fff"/><path d="M657.81,808.046a2,2,0,0,1-1.737-1.008l-1.367-2.392a2,2,0,0,1,1.736-2.992H690.32v-8.642h-18.5a2,2,0,0,1-1.838-1.212l-.571-1.332q-1.8,1.34-3.674,2.56c-3.053,1.87-4.176,2.124-4.943,2.124a2.357,2.357,0,0,1-2.13-1.222c-.7-1.308.02-2.709.9-4.029a2.032,2.032,0,0,1,.25-.3,33.593,33.593,0,0,0,3.546-4.191,64.593,64.593,0,0,0,8.839-16.533q-.872.12-1.908.213c-.06,0-.119.008-.179.008h-2.392c-1.553,0-3.366-.972-3.366-3.709V731.216a2,2,0,0,1,2-2,1.978,1.978,0,0,1,.823.178l10.2,4.606h37.037l2.837-4.822a1.992,1.992,0,0,1,1.343-.949,1.887,1.887,0,0,1,.381-.038,2,2,0,0,1,1.219.415l8.884,6.833a3.918,3.918,0,0,1,1.825,3.151c.027,1.442-.792,2.788-2.5,4.115-.038.029-.252.174-.252.174v20.114a5.236,5.236,0,0,1-2.166,4.332,1.936,1.936,0,0,1-.567.3c-.272.092-.54.179-.8.261.028.02,8.283,6.9,8.283,6.9,1.438,1.236,2,2.486,1.682,3.734s-1.394,2.086-3.214,2.489a2.027,2.027,0,0,1-.432.047h-9.457l6.659,5.707c1.417,1.218,1.974,2.468,1.661,3.717s-1.4,2.085-3.215,2.488a2.02,2.02,0,0,1-.432.047H703.888v8.642H720.7l5.209-7.047a2,2,0,0,1,1.373-.8,2.089,2.089,0,0,1,.236-.014,2,2,0,0,1,1.286.469l8.543,7.174c.045.038.088.077.129.118,1.374,1.376,1.884,2.717,1.515,3.988-.359,1.236-1.428,2.06-3.176,2.453a2.077,2.077,0,0,1-.438.048Zm56.05-21.426,4.1-5.567H703.888v5.567Zm-23.54,0v-5.567H679.875a77.593,77.593,0,0,1-5.711,5.567Zm26.636-11.959,4.528-5.943a15.771,15.771,0,0,1-3.2.376c-1.711,0-3.708-1.061-3.708-4.05v-.734h-8.733a3.289,3.289,0,0,1,1.269,2.1c.207,1.425-.592,2.78-2.374,4.026a1.964,1.964,0,0,1-.4.218l-.451.181v3.822Zm-26.636,0V764.31h-8.849l3.913,2.035a1.969,1.969,0,0,1,.424.3c1.347,1.226,3.089,3.1,2.651,5.172a3.6,3.6,0,0,1-2.682,2.645,1.843,1.843,0,0,1-.24.063l-.7.14Zm24.26-16.743v-5.567H677.919v5.567Zm0-11.959v-5.567H677.919v5.567Z" fill="#fff"/><path d="M718.972,730.191l8.883,6.833q2.387,1.715-.682,4.1l-1.026.684v21.184a3.251,3.251,0,0,1-1.367,2.734,21.931,21.931,0,0,1-6.492,1.367c-1.142,0-1.708-.684-1.708-2.05V762.31H675.919v1.367l8.542,4.442q3.756,3.418.684,4.442l-1.709.341q-1.37,2.052-2.734,3.759H692.32V763.677l10.592,1.367q4.1,1.368.684,3.758l-1.708.683v7.176h16.058l5.468-7.176,8.2,6.834q2.387,2.052-.683,2.734H701.888v9.567h12.983l4.784-6.492,7.176,6.15q2.386,2.052-.684,2.734H701.888v12.642h19.817l5.809-7.858,8.543,7.175q2.385,2.387-.684,3.075H657.81l-1.368-2.392H692.32V791.012h-20.5l-1.025-2.392H692.32v-9.567H678.994a73.414,73.414,0,0,1-14.351,12.3q-2.94,1.8-3.851,1.8-.995,0,.434-2.141a35.288,35.288,0,0,0,3.758-4.442,66.646,66.646,0,0,0,10.251-20.5,16.126,16.126,0,0,1-5.125,1.026h-2.392c-.912,0-1.366-.567-1.366-1.709V731.216L676.943,736h38.612l3.417-5.809m-43.053,17.768H716.58v-9.567H675.919v9.567m0,11.959H716.58v-9.567H675.919v9.567m43.053-33.727a4.009,4.009,0,0,0-3.448,1.972L713.267,732H677.805L668,727.57a4,4,0,0,0-5.646,3.646v34.169a5.3,5.3,0,0,0,5.366,5.709h1.47a62.228,62.228,0,0,1-7.418,13.1l-.038.052a31.554,31.554,0,0,1-3.334,3.94,4.036,4.036,0,0,0-.5.608c-.707,1.059-2.362,3.537-1,6.082a4.327,4.327,0,0,0,3.894,2.281c1.486,0,3.1-.648,5.939-2.388l.1-.061q.924-.6,1.833-1.235a4,4,0,0,0,3.157,1.543h16.5v4.642H656.442a4,4,0,0,0-3.472,5.985l1.367,2.392a4,4,0,0,0,3.473,2.015h77.563a4.016,4.016,0,0,0,.874-.1c3.132-.7,4.263-2.478,4.66-3.846.4-1.392.382-3.555-2.021-5.96-.082-.082-.168-.161-.257-.235l-8.086-6.791a4.746,4.746,0,0,0,1.191-2.153c.353-1.406.241-3.539-2.3-5.719l-2.557-2.192h4.05a3.992,3.992,0,0,0,.864-.1c3.264-.722,4.369-2.549,4.722-3.954s.241-3.538-2.3-5.718l-.046-.039-6.11-5.093a7.236,7.236,0,0,0,2.082-5.161V743.858a6.827,6.827,0,0,0,2.753-5.306,5.946,5.946,0,0,0-2.649-4.732l-8.841-6.8a4,4,0,0,0-2.438-.83Zm-39.053,16.2H712.58v1.567H679.919v-1.567Zm0,11.959H712.58v1.567H679.919v-1.567Zm29.2,11.959h3.566a5.475,5.475,0,0,0,4.541,4.7l-1.261,1.654H705.888v-.581h0c2.936-2.054,3.4-4.24,3.231-5.77Zm-3.231,16.743h8.117l-1.155,1.567h-6.962v-1.567Zm-25.146,0h7.578v1.567h-9.1q.771-.771,1.524-1.567Zm25.146,11.959h17.231l-3.431,4.642h-13.8v-4.642Z" fill="#fff"/><path d="M796.194,810.78c-3.055,0-7.926-.339-14.891-1.035a30.66,30.66,0,0,1-13.871-4.753,36.539,36.539,0,0,1-6.93-6.212q-1.585,2.378-4.409,6.616l-.283,2.265a2,2,0,0,1-.13.5,3.122,3.122,0,0,1-2.932,2.2,4.091,4.091,0,0,1-2.562-1.042,1.909,1.909,0,0,1-.2-.182l-7.175-7.518a2,2,0,0,1,.634-3.209,70.378,70.378,0,0,0,10.429-5.725V779.345h-8.934a2,2,0,0,1-1.837-1.212l-1.026-2.393a2,2,0,0,1,1.838-2.788h10.143l2.493-4.154a2,2,0,0,1,3.066-.445l8.2,7.517a3.7,3.7,0,0,1-.587,6.216,1.947,1.947,0,0,1-.212.123l-.261.131v2.913h3.975a3.518,3.518,0,0,1-.458-1.758V758.843h-3.808a2,2,0,0,1-.976-.254,11.952,11.952,0,0,1,.24,1.921,6.167,6.167,0,0,1-6.782,7.217c-3.236,0-5.447-1.969-6.067-5.4a17.793,17.793,0,0,0-5.2-9.821,1.986,1.986,0,0,1-.5-.72,2.982,2.982,0,0,1,.153-2.925,3.035,3.035,0,0,1,2.7-1.247,6.831,6.831,0,0,1,.848.057,5.91,5.91,0,0,1,2.259.459q6.9,1.973,10.039,5.731a2,2,0,0,1,1.911-1.407h2.608a3.441,3.441,0,0,1-1.875-3.125v-5.859H744.941a2,2,0,0,1-1.736-1.008l-1.367-2.392a2,2,0,0,1,1.736-2.992h22.26V729.85a2,2,0,0,1,2-2c.07,0,.142,0,.213.011l9.567,1.025a1.982,1.982,0,0,1,.576.15,3.769,3.769,0,0,1,2.414,2.6,4.516,4.516,0,0,1-1.344,3.962,2.019,2.019,0,0,1-.406.36l-.135.089v1.031h12.058V729.85a2,2,0,0,1,2-2c.071,0,.142,0,.213.011l9.568,1.025a1.994,1.994,0,0,1,.276.049,3.572,3.572,0,0,1,2.829,2.335c.61,1.958-.956,3.749-1.471,4.337a2.046,2.046,0,0,1-.395.348l-.135.089v1.031h6.277l5.551-6.784a2,2,0,0,1,1.448-.73l.1,0a2,2,0,0,1,1.414.586l6.834,6.834c.037.036.072.074.106.114,1.2,1.4,1.607,2.732,1.215,3.959a3.682,3.682,0,0,1-2.934,2.356,1.976,1.976,0,0,1-.485.06H803.662v4.492a3.5,3.5,0,0,1-2.4,3.608c-.388.131-.842.262-1.356.39v.494h9l5.208-6.434a2,2,0,0,1,1.4-.736c.05,0,.1-.006.152-.006a2,2,0,0,1,1.346.521l7.517,6.834c1.306,1.3,1.763,2.54,1.43,3.743s-1.331,2-2.975,2.41a1.974,1.974,0,0,1-.484.06h-8.443l4.977,4.354c.034.031.068.062.1.1a3.781,3.781,0,0,1,1.318,3.309,3.6,3.6,0,0,1-2.184,2.624c-.049.024-.1.046-.151.068l-.452.181v8.967a2.009,2.009,0,0,1,1.087.529l6.833,6.492c1.273,1.272,1.731,2.509,1.4,3.712s-1.331,2-2.974,2.412a1.988,1.988,0,0,1-.485.06H799.9v4.15a4.061,4.061,0,0,1-.776,2.45c8.76-.143,17.574-.6,26.277-1.367.06,0,.118-.008.176-.008a2,2,0,0,1,1.748,2.972c-2.135,3.839-3.317,6.906-3.515,9.116a2,2,0,0,1-1.992,1.821Zm-29.435-16.722c4.074,2.575,10.763,3.98,19.912,4.179q.588.012,1.18.02a4.068,4.068,0,0,1-.149-1.095v-5.516H767.151a1.967,1.967,0,0,1-.392-.04Zm43.887-8.8.131-.154q-.764.054-1.6.054c-2.329,0-3.379-1.179-3.641-2.391H799.9v2.491Zm-22.944,0v-2.491h-5.236a3.25,3.25,0,0,1-1.4,2.491Zm17.769-8.884v-2.15H799.9v2.15Zm-17.769,0v-2.15h-5.225v2.15Zm17.769-8.542V766.36H799.9v1.467Zm-17.769,0V766.36h-5.225v1.467Zm17.7-7.858.78-1.126H799.9v1.126Zm-17.7,0v-1.126H779.16l2.44,1.126Zm0-7.518v-6.884a2,2,0,0,1,2-2,1.82,1.82,0,0,1,.221.013l.854.095v-.208H778.719v4.492a4.3,4.3,0,0,1-1.92,3.717,2.266,2.266,0,0,1-.207.12,8.862,8.862,0,0,1-1.922.655Z" fill="#fff"/><path d="M792.777,729.85l9.568,1.024q2.732.69.342,3.417l-1.025.684v4.1h9.226l6.15-7.517,6.834,6.834q2.049,2.394-.684,3.075H801.662v6.492a1.574,1.574,0,0,1-1.025,1.708,22.582,22.582,0,0,1-2.734.684v4.1h11.959l5.809-7.176,7.517,6.834q2.05,2.052-.683,2.734H797.9v5.126h8.542l3.076-4.443,8.2,7.176c1.136,1.143,1.024,2.05-.342,2.734l-1.709.683v12.643a1.338,1.338,0,0,1-1.025,1.366,12.316,12.316,0,0,1-5.467,1.025c-1.143,0-1.708-.341-1.708-1.025v-1.366H797.9v6.491H811.57l5.81-6.833,6.833,6.492q2.051,2.049-.683,2.734H797.9v6.15a2.191,2.191,0,0,1-1.367,2.05,15.022,15.022,0,0,1-4.783,1.025c-1.367,0-2.051-.566-2.051-1.709v-7.516H767.151l-1.367-2.393H789.7v-6.491h-9.225v1.708a1.339,1.339,0,0,1-1.025,1.367,11.069,11.069,0,0,1-5.468,1.024c-1.141,0-1.708-.453-1.708-1.366V757.868l8.884,4.1H789.7v-5.126H766.468l-1.367-2.392h24.6v-8.884l3.075.342v-4.442H776.719v6.492a2.294,2.294,0,0,1-1.026,2.05,16.1,16.1,0,0,1-5.125,1.025c-1.826,0-2.734-.566-2.734-1.708v-7.859H744.941l-1.367-2.392h24.26V729.85l9.567,1.024q2.388,1.026.342,3.417l-1.024.684v4.1h16.058V729.85m5.126,39.977h9.568V764.36H797.9v5.467m-17.426,0H789.7V764.36h-9.225v5.467m17.426,8.542h9.568v-6.15H797.9v6.15m-17.426,0H789.7v-6.15h-9.225v6.15m-30.433-28.757a5.123,5.123,0,0,1,.706.055,3.862,3.862,0,0,1,1.708.342q10.932,3.076,11.276,10.593.336,5.125-4.784,5.125-3.418,0-4.1-3.758a19.689,19.689,0,0,0-5.81-10.935q-.575-1.423,1-1.422m8.223,20.215,8.2,7.518q1.7,1.713-.342,3.075l-1.367.683v14.009q6.487,4.789,21.868,5.125,3.27.058,6.543.058,16.206,0,32.41-1.424-3.418,6.15-3.759,9.909H796.194q-4.444,0-14.692-1.025a28.563,28.563,0,0,1-12.984-4.443,37.429,37.429,0,0,1-8.2-7.858q-1.37,2.049-6.15,9.226l-.342,2.733q-.382.948-1.077.947a2.26,2.26,0,0,1-1.314-.605l-7.176-7.518a71.814,71.814,0,0,0,11.617-6.492v-16.4H744.941l-1.025-2.393h11.275l3.076-5.125m67.313,29.044h0M792.777,725.85a4,4,0,0,0-4,4v5.225h-6.765a5.678,5.678,0,0,0,.541-3.893,5.754,5.754,0,0,0-3.573-3.983,3.975,3.975,0,0,0-1.153-.3l-9.567-1.025a4.066,4.066,0,0,0-.426-.022,4,4,0,0,0-4,4v5.225h-20.26a4,4,0,0,0-3.472,5.985l1.367,2.392a4,4,0,0,0,3.472,2.015h18.893v3.859a5.685,5.685,0,0,0,.146,1.285,4,4,0,0,0-.852.361,23.862,23.862,0,0,0-9.308-4.734,7.888,7.888,0,0,0-2.785-.567,8.64,8.64,0,0,0-.991-.059h0a4.842,4.842,0,0,0-4.712,6.92,4.013,4.013,0,0,0,.994,1.44,15.633,15.633,0,0,1,4.6,8.75,8.443,8.443,0,0,0,3.5,5.733l-1.5,2.5h-9.011a4,4,0,0,0-3.677,5.576l1.026,2.392a4,4,0,0,0,3.676,2.425h6.934V791.6a68.561,68.561,0,0,1-9.24,4.978A4,4,0,0,0,741.364,803l7.176,7.518a4.147,4.147,0,0,0,.4.364,6.083,6.083,0,0,0,3.81,1.479,5.132,5.132,0,0,0,4.787-3.45,4.02,4.02,0,0,0,.259-1l.225-1.8q1.573-2.361,2.746-4.12a35.686,35.686,0,0,0,5.531,4.647l.049.032a32.664,32.664,0,0,0,14.775,5.066c7.015.7,11.951,1.043,15.074,1.043h25.627a4,4,0,0,0,3.984-3.643c.118-1.315.772-3.8,3.209-8.21a4,4,0,0,0-3.392-6.056h-.147c-.1,0-.2.009-.294.019-7.715.678-15.516,1.112-23.289,1.3.007-.13.011-.262.011-.394v-2.15H823.53a3.991,3.991,0,0,0,.968-.119c2.984-.745,4.05-2.488,4.419-3.819s.347-3.4-1.877-5.625c-.023-.024-.048-.048-.072-.071l-6.833-6.492a3.978,3.978,0,0,0-.464-.379v-6.4a5.45,5.45,0,0,0,2.761-3.816,5.672,5.672,0,0,0-1.875-5.042q-.1-.1-.2-.189l-.971-.849h3.12a4,4,0,0,0,.968-.119c2.983-.744,4.049-2.486,4.418-3.817s.348-3.4-1.873-5.625c-.045-.045-.092-.089-.139-.132l-6.251-5.683h3.56a4,4,0,0,0,.969-.119,5.638,5.638,0,0,0,4.356-3.688c.424-1.328.49-3.424-1.6-5.869q-.1-.119-.21-.228l-6.834-6.834a4,4,0,0,0-2.829-1.171c-.066,0-.133,0-.2,0a4,4,0,0,0-2.9,1.462l-4.95,6.05h-1.981A5.332,5.332,0,0,0,803.324,727a4.005,4.005,0,0,0-.553-.1l-9.568-1.025a4.052,4.052,0,0,0-.426-.022Zm12.885,19.617h6.327l-4.035,4.984h-2.779a6.357,6.357,0,0,0,.487-2.492v-2.492Zm-24.943,0H785.7c0,.033,0,.067,0,.1v4.884h-5.437a6.786,6.786,0,0,0,.454-2.492v-2.492ZM767.75,760.843h.526v12.733l-5.088-4.664a7.47,7.47,0,0,0,2.434-1.727,8.554,8.554,0,0,0,2.128-6.342Zm2.63,32.8H785.7v2.565c-7.477-.243-12.265-1.331-15.322-2.565Z" fill="#fff"/><path d="M831.389,812.6a2.24,2.24,0,0,1-1.751-.838c-.716-.886-.77-2.133-.2-4.768a1.88,1.88,0,0,1,.122-.381,57.234,57.234,0,0,0,3.617-13.525,98.258,98.258,0,0,0,1.174-12.591,2.737,2.737,0,0,1-1.256.307c-.829,0-2.316-.386-2.959-2.977l-2.063-9.274a2,2,0,0,1,1.952-2.434c1.553,0,3.058-.055,4.493-.163V738.392a2,2,0,0,1,2.865-1.8l6.26,3c.323-1.895.8-5.209,1.481-11a2,2,0,0,1,2.619-1.663L856.965,730c.038.013.075.026.112.041,1.874.753,2.9,1.824,3.036,3.186s-.642,2.625-2.33,3.751a1.938,1.938,0,0,1-.366.193l-1.327.531-2.788,2.788h2.4l3.158-4.019a2,2,0,0,1,1.479-.763l.094,0a2,2,0,0,1,1.45.622l6.492,6.834a4.662,4.662,0,0,1,1.57,3.513,4.344,4.344,0,0,1-1.74,3.161,2.108,2.108,0,0,1-.251.178l-.738.443v13.033l.854-.095a8.487,8.487,0,0,1,.992-.068h.081c2.8-8.582,4.831-19.179,6.042-31.624a2,2,0,0,1,2.857-1.608l9.227,4.442a1.837,1.837,0,0,1,.163.088,6.212,6.212,0,0,1,2.545,2.536q-.086-1.737-.109-3.53a2.036,2.036,0,0,1,.027-.349c.4-2.431,1.767-2.795,2.547-2.795a3.1,3.1,0,0,1,2.507,1.747,2,2,0,0,1,.226.545,52.558,52.558,0,0,0,19.1,29.654,2,2,0,0,1,.059,3.119,21.787,21.787,0,0,0-5.94,8.148,2,2,0,0,1-1.4,1.151,1.929,1.929,0,0,1-.433.048,1.992,1.992,0,0,1-1.322-.5c-8.843-7.787-13.911-19.46-15.1-34.752a4.885,4.885,0,0,1-1.851,2.39,1.964,1.964,0,0,1-.171.115l-1.055.634c-3.63,11.48-8.2,20.855-13.6,27.935L880.791,775h12.667l2.837-4.822a2,2,0,0,1,3.106-.432l7.823,7.482a4.528,4.528,0,0,1,1.842,3.6,4.249,4.249,0,0,1-2.026,3.266,2.086,2.086,0,0,1-.269.162l-.26.13v21.316a4.174,4.174,0,0,1-2.465,3.835,17.35,17.35,0,0,1-4.266,1.542,8.107,8.107,0,0,1-1.74.209,3.824,3.824,0,0,1-2.625-.888,3.391,3.391,0,0,1-1.105-2.648v-2.443H882.25v1.076a4.174,4.174,0,0,1-2.463,3.835,17.448,17.448,0,0,1-4.266,1.543,8.187,8.187,0,0,1-1.741.209,3.408,3.408,0,0,1-3.73-3.537V774.346a3.43,3.43,0,0,1-1.728.533,2.355,2.355,0,0,1-1.106-.27v27.337a9.075,9.075,0,0,1-3.415,6.971,14.82,14.82,0,0,1-7.109,3.2,4.7,4.7,0,0,1-.786.071,3.354,3.354,0,0,1-2.881-1.5,5.016,5.016,0,0,1-.741-2.747,3.581,3.581,0,0,0-.783-1.847c-.131-.118-1.075-.835-6.086-2.6a2.041,2.041,0,0,1-.323-.147c-.695-.4-2.54-1.446-2.056-3.278s2.593-1.828,3.387-1.828c.045,0,.09,0,.134,0,3.322.223,6.144.336,8.388.337a1.606,1.606,0,0,0,.071-.238v-2.507a5.93,5.93,0,0,1-1.548,1.067,9.823,9.823,0,0,1-3.809,1.234,9.258,9.258,0,0,1-1.209.089c-2.468,0-3.344-1.493-3.344-2.77v-7.119q-.375,1.869-.86,3.567a46.146,46.146,0,0,1-9.137,17.654,7.6,7.6,0,0,1-1.223,1.6,3.4,3.4,0,0,1-2.5,1.44Zm62.921-13.679V781.4H882.25v17.526Zm-39.977-24.9q.36.08.683.182v-1.076l-2.19.592Zm-7.618-8.705q.694-.045,1.39-.094a4.8,4.8,0,0,1-1.39-1.534Zm8.3-1.049a6.026,6.026,0,0,1-.484.4l.484-.049Zm-6.461-17.379a17.088,17.088,0,0,1,6.365,5.772l.1.147v-5.919Z" fill="#fff"/><path d="M847.106,728.824l9.226,3.075q3.411,1.37.342,3.417l-1.708.684-6.492,6.492h8.2l3.759-4.784,6.492,6.834q2.049,2.05,0,3.759l-1.709,1.025v16.4l3.075-.342a6.481,6.481,0,0,1,.772-.056q1.623,0-.088,1.423l-3.759,1.367v33.827a7.129,7.129,0,0,1-2.734,5.467,12.78,12.78,0,0,1-6.15,2.733,2.6,2.6,0,0,1-.426.038q-1.623,0-1.624-2.429a5.522,5.522,0,0,0-1.367-3.075q-1.026-1.026-6.834-3.076-2.394-1.362.342-1.367,5.126.345,8.543.342,1.705,0,2.05-2.05V770.511l-12.643,3.417a64.183,64.183,0,0,1-2.05,17.426,44.033,44.033,0,0,1-8.885,17.084,5.529,5.529,0,0,1-1.024,1.367q-.683.8-1.025.8-.684,0,0-3.187a58.873,58.873,0,0,0,3.758-14.009,124.459,124.459,0,0,0,1.367-17.426h-.683l-1.367,1.709q-.8,1.116-1.374,1.117-.655,0-1.018-1.459l-2.051-9.226a58.358,58.358,0,0,0,6.493-.342V738.392l8.543,4.1q.679-2.05,2.049-13.668m-2.391,38.612q6.148-.337,12.3-1.026V744.884h-12.3v22.552m32.46-35.537,9.226,4.443q3.411,2.049.683,4.1l-1.708,1.026q-6.151,19.821-15.718,30.752a2.881,2.881,0,0,1-1.336.659q-.663,0-.031-1.684,6.487-14.688,8.884-39.295m15.268.591q.325,0,.791.777a54.28,54.28,0,0,0,19.819,30.752,23.666,23.666,0,0,0-6.492,8.883q-14.352-12.636-14.693-39.294.183-1.117.575-1.118m-46.362,15.469a14.944,14.944,0,0,1,7.176,5.809,10.748,10.748,0,0,1,1.709,4.442q.334,3.764-2.051,5.125a5.238,5.238,0,0,1-2.284.648q-2.139,0-2.841-3.04-.343-7.855-1.709-10.251-2.394-2.73,0-2.733m51.938,23.235,7.858,7.517q2.387,2.05,0,3.759l-1.366.683v22.552a2.2,2.2,0,0,1-1.367,2.05,15.307,15.307,0,0,1-3.759,1.366,6.293,6.293,0,0,1-1.345.17q-1.731,0-1.73-1.536v-4.443H880.25v3.076a2.2,2.2,0,0,1-1.366,2.05,15.34,15.34,0,0,1-3.759,1.367,6.35,6.35,0,0,1-1.345.17q-1.73,0-1.73-1.537V772.219l8.2,4.784H894.6l3.417-5.809M880.25,800.921h16.06V779.4H880.25v21.526M847.106,774.61l6.834,1.368q3.075.689.684,2.733l-.684.684v14.35c0,.46-.459.913-1.367,1.367a7.855,7.855,0,0,1-3.075,1.026,7.546,7.546,0,0,1-1.048.086q-1.344,0-1.344-.77V774.61m0-49.786a4,4,0,0,0-3.973,3.532c-.438,3.718-.786,6.373-1.058,8.269l-3.831-1.839a4,4,0,0,0-5.731,3.606v25.677q-1.22.05-2.493.05a4,4,0,0,0-3.9,4.868l2.051,9.226c.007.032.014.065.023.1.806,3.242,2.784,4.159,4.041,4.407a83.014,83.014,0,0,1-1.016,9.949c-.006.035-.013.07-.018.1a55.259,55.259,0,0,1-3.476,13.043,4.032,4.032,0,0,0-.244.76c-.509,2.373-.846,4.651.6,6.445a4.233,4.233,0,0,0,3.307,1.581,5.355,5.355,0,0,0,3.975-2.092,9.821,9.821,0,0,0,1.4-1.813,51.232,51.232,0,0,0,5.079-7.483,7.4,7.4,0,0,0,2.262,1.869,4.067,4.067,0,0,0,.648.295,35.593,35.593,0,0,1,5.361,2.194,3.22,3.22,0,0,1,.18.6c.17,4.15,2.9,6.014,5.615,6.014a6.741,6.741,0,0,0,1.075-.09l.072-.013a16.779,16.779,0,0,0,8.031-3.63,12.615,12.615,0,0,0,2.966-3.713v1.7a5.392,5.392,0,0,0,5.73,5.537,10.121,10.121,0,0,0,2.174-.257,19.411,19.411,0,0,0,4.717-1.7,6.212,6.212,0,0,0,3.514-4.705h8.125v.443a5.391,5.391,0,0,0,5.73,5.536,10.171,10.171,0,0,0,2.173-.256,19.377,19.377,0,0,0,4.72-1.7,6.171,6.171,0,0,0,3.578-5.627V785.494a6.06,6.06,0,0,0,2.554-4.574,6.239,6.239,0,0,0-2.111-4.813,4,4,0,0,0,1.272-1.6,19.815,19.815,0,0,1,5.388-7.413,4,4,0,0,0-.117-6.239A50.606,50.606,0,0,1,897.115,732.3a4.005,4.005,0,0,0-.451-1.088,4.843,4.843,0,0,0-4.221-2.719h0c-.618,0-3.672.206-4.466,4.17L878.91,728.3a4,4,0,0,0-5.716,3.217q-.663,6.813-1.651,12.861a7.644,7.644,0,0,0-1.749-2.618l-6.461-6.8a4.005,4.005,0,0,0-1.232-.88,4.979,4.979,0,0,0,0-1.05c-.154-1.484-1.021-3.527-4.281-4.836-.074-.029-.149-.057-.225-.082l-9.226-3.076a4.006,4.006,0,0,0-1.264-.205Zm29.278,45.293c4.8-6.793,8.907-15.4,12.246-25.685,1.222,9.026,3.894,16.718,7.993,23.013a4,4,0,0,0-2.053,1.721L892.314,773H881.332l-4.947-2.886Zm-7.169-18.537c.092-.065.182-.133.268-.205a7.943,7.943,0,0,0,.946-.926q-.568,2.778-1.214,5.362V751.58ZM884.25,783.4h8.06v13.526h-8.06V783.4Z" fill="#fff"/></g></g><g id="Text"><path d="M517.716,788.962a105.866,105.866,0,0,1-16.4,12.642,105.175,105.175,0,0,1-16.743,7.517q-2.394.337-.683-1.366a81.76,81.76,0,0,0,19.818-16.06,78.915,78.915,0,0,0,9.567-12.984h-9.909v3.759q0,2.394-3.417,3.075-6.15,1.37-6.15-1.708V750.009l9.909,4.442h14.009v-8.542H483.547l-1.025-2.392h35.194V729.85l10.593,1.366q4.437,1.37.683,4.1l-2.391,1.026v7.175h20.842L552.91,736l8.543,6.834q2.73,2.394-.683,3.075H526.6v8.542h14.35l2.734-5.125,8.883,7.517q1.707,1.713-.682,3.759l-1.026.683V781.1a2.448,2.448,0,0,1-1.367,2.392,7.177,7.177,0,0,1-3.758,1.025q-4.446.689-4.442-2.05v-3.759H527.967a52.632,52.632,0,0,0,9.567,9.226,46.653,46.653,0,0,0,11.617,6.492q8.538,3.42,14.352,5.126a22.655,22.655,0,0,0-9.567,8.883,60.616,60.616,0,0,1-17.768-13.326,70.376,70.376,0,0,1-9.567-13.668v23.919q0,3.412-5.809,4.1a3.117,3.117,0,0,1-2.051,0,3.08,3.08,0,0,1-1.025-2.734Zm-14.351-32.119v8.542h14.351v-8.542Zm0,10.934v8.542h14.351v-8.542ZM526.6,756.843v8.542h14.692v-8.542Zm0,10.934v8.542h14.692v-8.542Z" fill="#231f20"/><path d="M609.289,769.827q-2.049,12.99-7.176,20.5-6.149,9.227-18.109,15.035-8.889,4.436-10.934,4.442-1.713.336-1.025-1.367a63.991,63.991,0,0,0,9.567-6.492q12.638-10.251,16.06-24.6a106.036,106.036,0,0,0,2.733-24.944H571.361L570,750.009h33.144V729.85L615.1,731.9q3.411,1.37.683,4.1l-3.075,1.708v12.3h21.868l6.492-7.859,9.226,7.176q2.386,2.394-1.025,3.075H611q-.69,7.519-1.367,15.035H627.4l4.1-6.834,9.226,9.225q1.705,1.715-.684,3.417l-1.708,1.026a115.9,115.9,0,0,1-2.733,18.451q-2.4,9.225-7.86,14.008a17.071,17.071,0,0,1-5.125,3.076q-5.126,2.051-5.467-1.367c-.229-2.733-.571-4.217-1.025-4.442q-4.1-2.049-10.935-5.467-2.049-1.705,1.368-1.709a100.268,100.268,0,0,0,11.959,1.368,4.6,4.6,0,0,0,4.442-1.026q2.386-2.387,3.759-11.275,1.361-9.562,1.708-16.06Z" fill="#231f20"/><path d="M727.514,795.8l8.543,7.175q2.385,2.387-.684,3.075H657.81l-1.368-2.392H692.32V791.012h-20.5l-1.025-2.392H692.32v-9.567H678.994a73.414,73.414,0,0,1-14.351,12.3q-6.15,3.764-3.417-.342a35.288,35.288,0,0,0,3.758-4.442,66.646,66.646,0,0,0,10.251-20.5,16.126,16.126,0,0,1-5.125,1.026h-2.392c-.912,0-1.366-.567-1.366-1.709V731.216L676.943,736h38.612l3.417-5.809,8.883,6.833q2.387,1.715-.682,4.1l-1.026.684v21.184a3.251,3.251,0,0,1-1.367,2.734,21.931,21.931,0,0,1-6.492,1.367c-1.142,0-1.708-.684-1.708-2.05V762.31H675.919v1.367l8.542,4.442q3.756,3.418.684,4.442l-1.709.341q-1.37,2.052-2.734,3.759H692.32V763.677l10.592,1.367q4.1,1.368.684,3.758l-1.708.683v7.176h16.058l5.468-7.176,8.2,6.834q2.387,2.052-.683,2.734H701.888v9.567h12.983l4.784-6.492,7.176,6.15q2.386,2.052-.684,2.734H701.888v12.642h19.817Zm-51.6-57.4v9.567H716.58v-9.567Zm0,11.959v9.567H716.58v-9.567Z" fill="#231f20"/><path d="M743.574,739.075h24.26V729.85l9.567,1.024q2.388,1.026.342,3.417l-1.024.684v4.1h16.058V729.85l9.568,1.024q2.732.69.342,3.417l-1.025.684v4.1h9.226l6.15-7.517,6.834,6.834q2.049,2.394-.684,3.075H801.662v6.492a1.574,1.574,0,0,1-1.025,1.708,22.582,22.582,0,0,1-2.734.684v4.1h11.959l5.809-7.176,7.517,6.834q2.05,2.052-.683,2.734H797.9v5.126h8.542l3.076-4.443,8.2,7.176c1.136,1.143,1.024,2.05-.342,2.734l-1.709.683v12.643a1.338,1.338,0,0,1-1.025,1.366,12.316,12.316,0,0,1-5.467,1.025c-1.143,0-1.708-.341-1.708-1.025v-1.366H797.9v6.491H811.57l5.81-6.833,6.833,6.492q2.051,2.049-.683,2.734H797.9v6.15a2.191,2.191,0,0,1-1.367,2.05,15.022,15.022,0,0,1-4.783,1.025c-1.367,0-2.051-.566-2.051-1.709v-7.516H767.151l-1.367-2.393H789.7v-6.491h-9.225v1.708a1.339,1.339,0,0,1-1.025,1.367,11.069,11.069,0,0,1-5.468,1.024c-1.141,0-1.708-.453-1.708-1.366V757.868l8.884,4.1H789.7v-5.126H766.468l-1.367-2.392h24.6v-8.884l3.075.342v-4.442H776.719v6.492a2.294,2.294,0,0,1-1.026,2.05,16.1,16.1,0,0,1-5.125,1.025c-1.826,0-2.734-.566-2.734-1.708v-7.859H744.941Zm.684,61.162a71.814,71.814,0,0,0,11.617-6.492v-16.4H744.941l-1.025-2.393h11.275l3.076-5.125,8.2,7.518q1.7,1.713-.342,3.075l-1.367.683v14.009q6.487,4.789,21.868,5.125a369.312,369.312,0,0,0,38.953-1.366q-3.418,6.15-3.759,9.909H796.194q-4.444,0-14.692-1.025a28.563,28.563,0,0,1-12.984-4.443,37.429,37.429,0,0,1-8.2-7.858q-1.37,2.049-6.15,9.226l-.342,2.733q-.689,1.707-2.391.342Zm4.783-49.2q-.689-1.705,1.709-1.367a3.862,3.862,0,0,1,1.708.342q10.932,3.076,11.276,10.593.336,5.125-4.784,5.125-3.418,0-4.1-3.758A19.683,19.683,0,0,0,749.041,751.034Zm31.436,13.326v5.467H789.7V764.36Zm0,7.859v6.15H789.7v-6.15ZM797.9,764.36v5.467h9.568V764.36Zm0,14.009h9.568v-6.15H797.9Z" fill="#231f20"/><path d="M857.016,770.511l-12.643,3.417a64.183,64.183,0,0,1-2.05,17.426,44.033,44.033,0,0,1-8.885,17.084,5.529,5.529,0,0,1-1.024,1.367q-2.05,2.386-1.025-2.392a58.873,58.873,0,0,0,3.758-14.009,124.459,124.459,0,0,0,1.367-17.426h-.683l-1.367,1.709q-1.715,2.393-2.392-.342l-2.051-9.226a58.358,58.358,0,0,0,6.493-.342V738.392l8.543,4.1q.679-2.05,2.049-13.668l9.226,3.075q3.411,1.37.342,3.417l-1.708.684-6.492,6.492h8.2l3.759-4.784,6.492,6.834q2.049,2.05,0,3.759l-1.709,1.025v16.4l3.075-.342q2.731-.336.684,1.367l-3.759,1.367v33.827a7.129,7.129,0,0,1-2.734,5.467,12.78,12.78,0,0,1-6.15,2.733q-2.049.338-2.05-2.391a5.522,5.522,0,0,0-1.367-3.075q-1.026-1.026-6.834-3.076-2.394-1.362.342-1.367,5.126.345,8.543.342,1.705,0,2.05-2.05Zm-12.3-25.627v22.552q6.148-.337,12.3-1.026V744.884Zm3.075,16.059q-.343-7.855-1.709-10.251-2.394-2.73,0-2.733a14.944,14.944,0,0,1,7.176,5.809,10.748,10.748,0,0,1,1.709,4.442q.334,3.764-2.051,5.125Q848.816,765.386,847.79,760.943Zm-.684,13.667,6.834,1.368q3.075.689.684,2.733l-.684.684v14.35c0,.46-.459.913-1.367,1.367a7.855,7.855,0,0,1-3.075,1.026q-2.394.343-2.392-.684ZM877.175,731.9l9.226,4.443q3.411,2.049.683,4.1l-1.708,1.026q-6.151,19.821-15.718,30.752-2.394,1.713-1.367-1.025Q874.778,756.506,877.175,731.9Zm-5.125,40.32,8.2,4.784H894.6l3.417-5.809,7.858,7.517q2.387,2.05,0,3.759l-1.366.683v22.552a2.2,2.2,0,0,1-1.367,2.05,15.307,15.307,0,0,1-3.759,1.366q-3.075.681-3.075-1.366v-4.443H880.25v3.076a2.2,2.2,0,0,1-1.366,2.05,15.34,15.34,0,0,1-3.759,1.367q-3.075.681-3.075-1.367Zm8.2,7.176v21.526h16.06V779.4Zm11.618-45.787c.224-1.367.684-1.479,1.366-.341a54.28,54.28,0,0,0,19.819,30.752,23.666,23.666,0,0,0-6.492,8.883Q892.209,760.266,891.868,733.608Z" fill="#231f20"/><path d="M490.042,843.445v-2.559a8.165,8.165,0,0,1-3.18,2.3,12.311,12.311,0,0,1-4.94.9,7.815,7.815,0,0,1-2.08-.219q-.76-.22-1.3-.439a11.109,11.109,0,0,1-1.06-.5,7.388,7.388,0,0,1-2.98-2.915,8.868,8.868,0,0,1-1.06-4.434v-13.14a14.444,14.444,0,0,0-.14-2.317,3.291,3.291,0,0,0-.5-1.317,4.277,4.277,0,0,0-1.12-1.038l7.48-.08a3.935,3.935,0,0,0-.94.658,2.715,2.715,0,0,0-.58,1.138,12.491,12.491,0,0,0-.24,3.036v11.46q0,3.714,1.62,5.47a5.471,5.471,0,0,0,4.22,1.757,8.608,8.608,0,0,0,3.4-.679,6.09,6.09,0,0,0,2.5-1.837,4.413,4.413,0,0,0,.9-2.794V822.118q0-3.755-1.68-4.352l7.4-.08Q494,818.364,494,821.8v17.533q0,3.354,1.76,3.953v.16Z" fill="#231f20"/><path d="M510.881,843.445v-.16a3.526,3.526,0,0,0,.961-.92,2.029,2.029,0,0,0,.4-1.04v-7.679q0-6.2-4.678-6.2a3.975,3.975,0,0,0-3.29,1.281,6.145,6.145,0,0,0-.872,3.719v7.64a6.14,6.14,0,0,0,.241,1.96,2.5,2.5,0,0,0,1.279,1.24v.16H498.4v-.16a2.829,2.829,0,0,0,1.266-1.38,6.274,6.274,0,0,0,.254-1.979v-11.28a5.442,5.442,0,0,0-.28-1.9,2.35,2.35,0,0,0-1.24-1.22v-.16l2.379.08a5.316,5.316,0,0,0,1.492-.16,3.536,3.536,0,0,0,1.129-.4l.039,3.079a7.406,7.406,0,0,1,2.121-2.079,5.73,5.73,0,0,1,3.346-1,6.962,6.962,0,0,1,5.091,1.7,6.816,6.816,0,0,1,1.724,5.061v8.359c0,.454.013.82.042,1.1a4.553,4.553,0,0,0,.273,1.06,2.231,2.231,0,0,0,1.284,1.12v.16Z" fill="#231f20"/><path d="M534.961,843.445v-10.28a6.261,6.261,0,0,0-.74-3.14,4.752,4.752,0,0,0-2-1.94,5.89,5.89,0,0,0-2.7-.64,5.182,5.182,0,0,0-2.8.8,5.612,5.612,0,0,0-2.2,2.32,7.744,7.744,0,0,0-.84,3.72,6.89,6.89,0,0,0,1.02,3.641,7.191,7.191,0,0,0,2.54,2.559,6.357,6.357,0,0,0,3.239.88,5.426,5.426,0,0,0,1.941-.3,5.9,5.9,0,0,0,1.5-.86l-2.36,3.561c-.161.026-.4.08-.72.16H529.6a12.164,12.164,0,0,1-3.28-.481,9.722,9.722,0,0,1-3.22-1.6,8.245,8.245,0,0,1-2.44-3.021,10.135,10.135,0,0,1-.94-4.54,9.688,9.688,0,0,1,1.08-4.28,9.289,9.289,0,0,1,8.44-5.119,8.678,8.678,0,0,1,2.92.559,10.614,10.614,0,0,1,2.8,1.68v-7.4a2.722,2.722,0,0,0-1.481-2l3.081-.08a2.059,2.059,0,0,0,1.839-.72v22.519q.081.76.181,1.6a5.548,5.548,0,0,0,.279,1.3,2.239,2.239,0,0,0,1.141.939v.16Z" fill="#231f20"/><path d="M546.881,833.806a9.63,9.63,0,0,0,.68,3.355,6.944,6.944,0,0,0,2.259,2.85,7.738,7.738,0,0,0,3.9,1.354h.96c.213,0,.465-.012.759-.04a4.933,4.933,0,0,0,.761-.12l1.72-.359a6.839,6.839,0,0,0,1.68-.641l1.44-.88-1.8,3.64a15.854,15.854,0,0,1-5.359,1.04,13.133,13.133,0,0,1-5.5-1.119,9.987,9.987,0,0,1-4.08-3.421,8.778,8.778,0,0,1-1.62-5.18,9.922,9.922,0,0,1,1.12-4.559,6.087,6.087,0,0,1,.639-1.061c.267-.359.507-.66.721-.9a9.488,9.488,0,0,1,7.319-2.96,8.878,8.878,0,0,1,4.38,1.12A8.018,8.018,0,0,1,560,829.005a9.549,9.549,0,0,1,1.12,4.8Zm8.62-5.281a5.307,5.307,0,0,0-3.3-1.08,5.915,5.915,0,0,0-2.36.52,5.031,5.031,0,0,0-1.9,1.36,4.312,4.312,0,0,0-.9,2.16h10.04A3.971,3.971,0,0,0,555.5,828.525Z" fill="#231f20"/><path d="M573.28,820.005a4.621,4.621,0,0,0-2.28-.6,2.274,2.274,0,0,0-1.9.781,3.782,3.782,0,0,0-.621,2.379v2.8h4.48l.681-.24h.16v3.48h-.16c-.188-.426-.76-.64-1.72-.64H568.48v10.44l.121,2.321a3.881,3.881,0,0,0,.479,1.479,3.1,3.1,0,0,0,1.08,1.16l-6.68.08v-.16a2.351,2.351,0,0,0,1.161-1.059,4.233,4.233,0,0,0,.28-1.7v-12.56H563.08l1.841-2.6v-2.639a4.525,4.525,0,0,1,1.239-3.281,7.27,7.27,0,0,1,3.061-1.92,11.185,11.185,0,0,1,3.7-.679l3.039.159Z" fill="#231f20"/><path d="M580.6,843.445h-6.44v-.16a2.269,2.269,0,0,0,1.18-1.22,5.686,5.686,0,0,0,.26-1.86V828.646a6.316,6.316,0,0,0-.24-1.88,2.169,2.169,0,0,0-1.2-1.241v-.16l2.04.08,1.239-.08.881-.16a1.043,1.043,0,0,0,.68-.439h.16v14.679a7.656,7.656,0,0,0,.279,2.481,1.987,1.987,0,0,0,1.241,1.359Zm-1.72-21.16a2.217,2.217,0,0,1-1.68.72,2.087,2.087,0,0,1-1.68-.76,2.3,2.3,0,0,1-.72-1.68,2.577,2.577,0,0,1,.28-1.24l.28-.36a2.134,2.134,0,0,1,.64-.539,2.225,2.225,0,0,1,1.2-.3,2.39,2.39,0,0,1,1.68.721,2.325,2.325,0,0,1,0,3.439Z" fill="#231f20"/><path d="M596.079,843.445v-.16a3.526,3.526,0,0,0,.961-.92,2.029,2.029,0,0,0,.4-1.04v-7.679q0-6.2-4.677-6.2a3.972,3.972,0,0,0-3.29,1.281,6.145,6.145,0,0,0-.872,3.719v7.64a6.173,6.173,0,0,0,.24,1.96,2.5,2.5,0,0,0,1.279,1.24v.16H583.6v-.16a2.839,2.839,0,0,0,1.266-1.38,6.307,6.307,0,0,0,.253-1.979v-11.28a5.491,5.491,0,0,0-.279-1.9,2.364,2.364,0,0,0-1.24-1.22v-.16l2.379.08a5.331,5.331,0,0,0,1.492-.16,3.553,3.553,0,0,0,1.129-.4l.039,3.079a7.388,7.388,0,0,1,2.12-2.079,5.732,5.732,0,0,1,3.346-1,6.961,6.961,0,0,1,5.091,1.7,6.812,6.812,0,0,1,1.724,5.061v8.359c0,.454.014.82.042,1.1a4.553,4.553,0,0,0,.273,1.06,2.234,2.234,0,0,0,1.285,1.12v.16Z" fill="#231f20"/><path d="M608.4,833.806a9.653,9.653,0,0,0,.68,3.355,6.954,6.954,0,0,0,2.26,2.85,7.737,7.737,0,0,0,3.9,1.354h.96c.213,0,.466-.012.76-.04a4.933,4.933,0,0,0,.761-.12l1.719-.359a6.823,6.823,0,0,0,1.68-.641l1.441-.88-1.8,3.64a15.855,15.855,0,0,1-5.36,1.04,13.133,13.133,0,0,1-5.5-1.119,9.994,9.994,0,0,1-4.08-3.421,8.778,8.778,0,0,1-1.62-5.18,9.922,9.922,0,0,1,1.12-4.559,6.034,6.034,0,0,1,.64-1.061c.267-.359.507-.66.721-.9a9.488,9.488,0,0,1,7.319-2.96,8.884,8.884,0,0,1,4.38,1.12,8.025,8.025,0,0,1,3.141,3.079,9.549,9.549,0,0,1,1.12,4.8Zm8.621-5.281a5.309,5.309,0,0,0-3.3-1.08,5.916,5.916,0,0,0-2.361.52,5.035,5.035,0,0,0-1.9,1.36,4.294,4.294,0,0,0-.9,2.16H618.6A3.974,3.974,0,0,0,617.021,828.525Z" fill="#231f20"/><path d="M640.68,843.445v-10.28a6.25,6.25,0,0,0-.741-3.14,4.752,4.752,0,0,0-2-1.94,5.884,5.884,0,0,0-2.7-.64,5.187,5.187,0,0,0-2.8.8,5.625,5.625,0,0,0-2.2,2.32,7.755,7.755,0,0,0-.84,3.72,6.882,6.882,0,0,0,1.021,3.641,7.183,7.183,0,0,0,2.54,2.559,6.357,6.357,0,0,0,3.239.88,5.426,5.426,0,0,0,1.941-.3,5.9,5.9,0,0,0,1.5-.86l-2.361,3.561c-.16.026-.4.08-.719.16h-1.241a12.157,12.157,0,0,1-3.279-.481,9.727,9.727,0,0,1-3.221-1.6,8.243,8.243,0,0,1-2.439-3.021,10.134,10.134,0,0,1-.941-4.54,9.69,9.69,0,0,1,1.081-4.28,9.286,9.286,0,0,1,8.44-5.119,8.678,8.678,0,0,1,2.92.559,10.614,10.614,0,0,1,2.8,1.68v-7.4a2.722,2.722,0,0,0-1.481-2l3.08-.08a2.06,2.06,0,0,0,1.84-.72v22.519c.054.507.113,1.04.181,1.6a5.548,5.548,0,0,0,.279,1.3,2.239,2.239,0,0,0,1.141.939v.16Z" fill="#231f20"/><path d="M673.519,821.965a4.743,4.743,0,0,0-1.94-1.2,10.84,10.84,0,0,0-2.82-.281,22.9,22.9,0,0,0-3.84.241v7.239h3.68a12.484,12.484,0,0,0,2.68-.2l.079,4.2a2.839,2.839,0,0,0-1.259-.983,6.817,6.817,0,0,0-2.18-.256l-3,.08v8.734a7.334,7.334,0,0,0,.36,2.356,2.055,2.055,0,0,0,1.28,1.388v.161H659.2v-.16q1.76-.6,1.76-3.76V821.766a7.9,7.9,0,0,0-.36-2.561,2.261,2.261,0,0,0-1.4-1.479h13.04a3.01,3.01,0,0,0,1.2-.321h.161Z" fill="#231f20"/><path d="M692.159,844.005a6.751,6.751,0,0,1-3.88-1.239,3.614,3.614,0,0,1-1.2-3v-6.12a6.783,6.783,0,0,1-1.4.606q-1.56.444-3.16.909a9.95,9.95,0,0,0-2.121.788,2.394,2.394,0,0,0-1.039,2.263,2.813,2.813,0,0,0,1.14,2.364,4.71,4.71,0,0,0,2.939.869,6.963,6.963,0,0,0,1.261-.163q.819-.162,1.739-.4l-2.319,2.955a11.207,11.207,0,0,1-1.96.164,8.173,8.173,0,0,1-3.42-.683,5.471,5.471,0,0,1-2.36-1.99,4.918,4.918,0,0,1-.86-2.753,4.494,4.494,0,0,1,.923-2.914,6.367,6.367,0,0,1,2.529-1.829,22.637,22.637,0,0,1,2.929-.885q.443-.08,1.486-.341t1.485-.381a5.972,5.972,0,0,0,1.485-.724,2.263,2.263,0,0,0,.442-.6,1.969,1.969,0,0,0,.281-1,1.894,1.894,0,0,0-1.225-1.788,5.8,5.8,0,0,0-2.512-.583,11.858,11.858,0,0,0-5.263,1.52l2.56-3.92,2.6-.239a11.107,11.107,0,0,1,3.64.605,5.939,5.939,0,0,1,2.78,2.04,5.674,5.674,0,0,1,.98,3.413v6.907a4.148,4.148,0,0,0,.72,2.706,3,3,0,0,0,2.56.888Z" fill="#231f20"/><path d="M707.6,843.445v-.16a3.542,3.542,0,0,0,.961-.92,2.046,2.046,0,0,0,.4-1.04v-7.679q0-6.2-4.678-6.2a3.974,3.974,0,0,0-3.29,1.281,6.145,6.145,0,0,0-.872,3.719v7.64a6.173,6.173,0,0,0,.24,1.96,2.5,2.5,0,0,0,1.28,1.24v.16h-6.52v-.16a2.836,2.836,0,0,0,1.267-1.38,6.307,6.307,0,0,0,.253-1.979v-11.28a5.465,5.465,0,0,0-.28-1.9,2.357,2.357,0,0,0-1.24-1.22v-.16l2.379.08a5.321,5.321,0,0,0,1.492-.16,3.536,3.536,0,0,0,1.129-.4l.039,3.079a7.388,7.388,0,0,1,2.12-2.079,5.733,5.733,0,0,1,3.347-1,6.964,6.964,0,0,1,5.091,1.7,6.816,6.816,0,0,1,1.723,5.061v8.359c0,.454.014.82.042,1.1a4.614,4.614,0,0,0,.274,1.06,2.231,2.231,0,0,0,1.284,1.12v.16Z" fill="#231f20"/><path d="M724.958,843.846H723.4a4.4,4.4,0,0,1-3.88-1.781,7.612,7.612,0,0,1-1.24-4.46v-9.64h-2.6v-1.44q4.6-.639,4.6-6.96h1.52v5.8h2.88a6.479,6.479,0,0,0,2.28-.24l.08,3.6a3.183,3.183,0,0,0-2.28-.761H721.8v8.04a13.992,13.992,0,0,0,.26,2.921,3.16,3.16,0,0,0,1.34,1.96l.8.279a4.347,4.347,0,0,0,.58.16,2.687,2.687,0,0,0,.5.04q.519-.08.98-.179a5.8,5.8,0,0,0,.78-.221Z" fill="#231f20"/><path d="M744.838,844.005a6.751,6.751,0,0,1-3.88-1.239,3.611,3.611,0,0,1-1.2-3v-6.12a6.771,6.771,0,0,1-1.4.606q-1.56.444-3.16.909a9.957,9.957,0,0,0-2.12.788,2.394,2.394,0,0,0-1.039,2.263,2.813,2.813,0,0,0,1.14,2.364,4.71,4.71,0,0,0,2.939.869,6.963,6.963,0,0,0,1.261-.163q.819-.162,1.739-.4l-2.319,2.955a11.215,11.215,0,0,1-1.96.164,8.173,8.173,0,0,1-3.42-.683,5.471,5.471,0,0,1-2.36-1.99,4.912,4.912,0,0,1-.861-2.753,4.494,4.494,0,0,1,.924-2.914,6.364,6.364,0,0,1,2.528-1.829,22.672,22.672,0,0,1,2.93-.885q.443-.08,1.485-.341t1.486-.381a5.972,5.972,0,0,0,1.485-.724,2.263,2.263,0,0,0,.442-.6,1.969,1.969,0,0,0,.281-1,1.893,1.893,0,0,0-1.226-1.788,5.8,5.8,0,0,0-2.511-.583,11.855,11.855,0,0,0-5.263,1.52l2.559-3.92,2.6-.239a11.107,11.107,0,0,1,3.64.605,5.939,5.939,0,0,1,2.78,2.04,5.674,5.674,0,0,1,.979,3.413v6.907a4.148,4.148,0,0,0,.721,2.706,3,3,0,0,0,2.56.888Z" fill="#231f20"/><path d="M761.177,841.192a7.682,7.682,0,0,1-3.32,2.07,12.714,12.714,0,0,1-3.98.664,13.872,13.872,0,0,1-5.2-.961l-1.239-3.8a10.375,10.375,0,0,0,3.359,1.6l1.92.4a10.679,10.679,0,0,0,1.8.2,6.833,6.833,0,0,0,1.68-.16l1.44-.482a2.154,2.154,0,0,0,1.32-1.729,2.253,2.253,0,0,0-.86-1.829,7.958,7.958,0,0,0-2.26-1.226l-3.08-1.126a10.527,10.527,0,0,1-3.26-1.848,3.725,3.725,0,0,1-1.1-2.895,4.313,4.313,0,0,1,1.1-3.115,6.4,6.4,0,0,1,2.941-1.668l1.919-.4h1.84a15.557,15.557,0,0,1,4.2.479v3.361a9.327,9.327,0,0,0-4.92-1.281,5.16,5.16,0,0,0-2.6.543,1.647,1.647,0,0,0-.92,1.467,1.152,1.152,0,0,0,.2.6,1.758,1.758,0,0,0,.6.562,2.762,2.762,0,0,0,.84.482,6.27,6.27,0,0,0,1,.442l2.56.885,1.08.4,1.24.522a5.413,5.413,0,0,1,2.22,1.829,4.433,4.433,0,0,1,.78,2.552A4.9,4.9,0,0,1,761.177,841.192Z" fill="#231f20"/><path d="M773.6,843.846h-1.56a4.4,4.4,0,0,1-3.881-1.781,7.619,7.619,0,0,1-1.239-4.46v-9.64h-2.6v-1.44q4.6-.639,4.6-6.96h1.52v5.8h2.879a6.486,6.486,0,0,0,2.281-.24l.08,3.6a3.184,3.184,0,0,0-2.281-.761h-2.959v8.04a14,14,0,0,0,.259,2.921,3.162,3.162,0,0,0,1.341,1.96l.8.279a4.347,4.347,0,0,0,.58.16,2.672,2.672,0,0,0,.5.04c.346-.053.673-.113.979-.179a5.775,5.775,0,0,0,.781-.221Z" fill="#231f20"/><path d="M783.917,843.445h-6.439v-.16a2.267,2.267,0,0,0,1.179-1.22,5.686,5.686,0,0,0,.26-1.86V828.646a6.352,6.352,0,0,0-.239-1.88,2.172,2.172,0,0,0-1.2-1.241v-.16l2.04.08,1.239-.08.881-.16a1.041,1.041,0,0,0,.679-.439h.161v14.679a7.628,7.628,0,0,0,.279,2.481,1.983,1.983,0,0,0,1.24,1.359Zm-1.72-21.16a2.215,2.215,0,0,1-1.679.72,2.089,2.089,0,0,1-1.681-.76,2.3,2.3,0,0,1-.72-1.68,2.577,2.577,0,0,1,.28-1.24l.281-.36a2.115,2.115,0,0,1,.639-.539,2.229,2.229,0,0,1,1.2-.3,2.388,2.388,0,0,1,1.679.721,2.325,2.325,0,0,1,0,3.439Z" fill="#231f20"/><path d="M802.516,843.205a16.864,16.864,0,0,1-4.88.721,13.1,13.1,0,0,1-5.5-1.16,9.468,9.468,0,0,1-3.98-3.261,8.056,8.056,0,0,1-1.44-4.659,10.784,10.784,0,0,1,.84-4.361c.133-.24.326-.559.58-.96s.433-.666.54-.8a5.073,5.073,0,0,1,.62-.721q.3-.279.74-.64a10.961,10.961,0,0,1,3.56-1.84l2.08-.48a7.434,7.434,0,0,1,1.24-.159h.96a17.6,17.6,0,0,1,4.12.479v4a6.633,6.633,0,0,0-4.84-1.84,6.755,6.755,0,0,0-3.2.76,6.179,6.179,0,0,0-2.38,2.28,6.784,6.784,0,0,0-.94,3.64,6.437,6.437,0,0,0,1.12,3.561,9.393,9.393,0,0,0,.66.859,6.477,6.477,0,0,0,.62.62,6.2,6.2,0,0,0,1.64,1.12,8.08,8.08,0,0,0,3.92,1,9.39,9.39,0,0,0,2.94-.439,11.546,11.546,0,0,0,2.86-1.481Z" fill="#231f20"/><path d="M842.938,836.745a13.248,13.248,0,0,1-4.853,5.22,15.181,15.181,0,0,1-3.456,1.56,12.616,12.616,0,0,1-3.734.56,15.474,15.474,0,0,1-7.629-1.859,13.843,13.843,0,0,1-5.233-4.941,12,12,0,0,1-1.878-6.32v-.159a14.058,14.058,0,0,1,1.16-5.641,11.729,11.729,0,0,1,1.321-2.359,11.061,11.061,0,0,1,1-1.321,6.36,6.36,0,0,1,.719-.679q.681-.6,1.041-.88a11.532,11.532,0,0,1,1.08-.761,14.923,14.923,0,0,1,2.359-1.16,14.545,14.545,0,0,1,5.4-1.079,16.079,16.079,0,0,1,2.8.239,19.342,19.342,0,0,1,2.74.7,13.134,13.134,0,0,1,2.42,1.061,10.636,10.636,0,0,1,2.04,1.559,11.667,11.667,0,0,1,3.12,4.12,13.367,13.367,0,0,1,.941,2.621,11.5,11.5,0,0,1,.34,2.739A14.5,14.5,0,0,1,842.938,836.745Zm-2.7-7.18a11.706,11.706,0,0,0-1.566-4.839,8.771,8.771,0,0,0-3.355-3.6,9.488,9.488,0,0,0-5.04-1.359,9.118,9.118,0,0,0-2.61.359,11.773,11.773,0,0,0-2.41,1.04,8.411,8.411,0,0,0-3.434,3.7,12.834,12.834,0,0,0-1.224,5.781,8.7,8.7,0,0,0,.4,2.679,11.267,11.267,0,0,0,1.08,2.64,11.154,11.154,0,0,0,3.8,3.841,9.8,9.8,0,0,0,5.16,1.4,7.53,7.53,0,0,0,2.12-.26,13.724,13.724,0,0,0,2.04-.82,8.586,8.586,0,0,0,2.861-2.439,9.858,9.858,0,0,0,1.62-3.2,8.459,8.459,0,0,0,.3-.98c.04-.2.086-.446.139-.739l.12-1.92Z" fill="#231f20"/><path d="M865.676,836.886a15.26,15.26,0,0,1-.56,1.479,6.741,6.741,0,0,1-.64,1.08,7.941,7.941,0,0,1-1.66,1.941,10.76,10.76,0,0,1-2.24,1.4,11.82,11.82,0,0,1-2.82.92,16.086,16.086,0,0,1-3.12.3l-2.52-.119-2.72-.4-1.88-.28a2.507,2.507,0,0,0,1.12-2.439v-19.84a5.114,5.114,0,0,0-.3-2.04,2.849,2.849,0,0,0-1.14-1.16l2.92-.08q1.48,0,1.92-.72v23.76a6.746,6.746,0,0,0,1.673.46q.785.1,1.553.139a6.958,6.958,0,0,0,4.8-1.76q1.976-1.758,1.976-5.56a5.522,5.522,0,0,0-5.72-6.119,5.646,5.646,0,0,0-3.24.8l2-3.361,1.52-.28,1.32-.119a7.412,7.412,0,0,1,4.24,1.239,8.089,8.089,0,0,1,2.84,3.42,11.835,11.835,0,0,1,1,4.98A7.552,7.552,0,0,1,865.676,836.886Z" fill="#231f20"/><path d="M873.035,849.325a7.566,7.566,0,0,1-3.059,2.18,9.139,9.139,0,0,1-3.46.86v-.16a7.258,7.258,0,0,0,2.439-2.14,6.371,6.371,0,0,0,1.1-2.74,18.679,18.679,0,0,0,.219-2.72V828.646a6.377,6.377,0,0,0-.24-1.861,2.158,2.158,0,0,0-1.2-1.26v-.16l2.359.08a5.941,5.941,0,0,0,1.641-.179,2.493,2.493,0,0,0,.84-.38h.16v20.239A8.267,8.267,0,0,1,873.035,849.325Zm.521-27.04a2.391,2.391,0,0,1-1.68.72,2.216,2.216,0,0,1-1.681-.72,2.266,2.266,0,0,1-.719-1.72,2.362,2.362,0,0,1,.7-1.74,2.315,2.315,0,0,1,1.7-.7,2.458,2.458,0,0,1,2.439,2.44A2.287,2.287,0,0,1,873.556,822.285Z" fill="#231f20"/><path d="M882.035,833.806a9.653,9.653,0,0,0,.68,3.355,6.954,6.954,0,0,0,2.26,2.85,7.734,7.734,0,0,0,3.9,1.354h.96c.213,0,.466-.012.76-.04a4.9,4.9,0,0,0,.76-.12l1.72-.359a6.839,6.839,0,0,0,1.68-.641l1.44-.88-1.8,3.64a15.859,15.859,0,0,1-5.36,1.04,13.133,13.133,0,0,1-5.5-1.119,9.994,9.994,0,0,1-4.08-3.421,8.778,8.778,0,0,1-1.62-5.18,9.922,9.922,0,0,1,1.12-4.559,6.034,6.034,0,0,1,.64-1.061c.266-.359.507-.66.72-.9a9.488,9.488,0,0,1,7.32-2.96,8.884,8.884,0,0,1,4.38,1.12,8.022,8.022,0,0,1,3.14,3.079,9.549,9.549,0,0,1,1.12,4.8Zm8.62-5.281a5.307,5.307,0,0,0-3.3-1.08,5.915,5.915,0,0,0-2.36.52,5.027,5.027,0,0,0-1.9,1.36,4.3,4.3,0,0,0-.9,2.16h10.04A3.968,3.968,0,0,0,890.655,828.525Z" fill="#231f20"/><path d="M914.034,843.205a16.854,16.854,0,0,1-4.88.721,13.1,13.1,0,0,1-5.5-1.16,9.471,9.471,0,0,1-3.979-3.261,8.057,8.057,0,0,1-1.441-4.659,10.8,10.8,0,0,1,.84-4.361c.134-.24.326-.559.58-.96s.434-.666.54-.8a5.073,5.073,0,0,1,.62-.721c.2-.186.447-.4.741-.64a10.956,10.956,0,0,1,3.559-1.84l2.08-.48a7.455,7.455,0,0,1,1.241-.159h.96a17.6,17.6,0,0,1,4.12.479v4a6.634,6.634,0,0,0-4.84-1.84,6.755,6.755,0,0,0-3.2.76,6.179,6.179,0,0,0-2.38,2.28,6.784,6.784,0,0,0-.941,3.64,6.437,6.437,0,0,0,1.12,3.561,9.384,9.384,0,0,0,.661.859,6.477,6.477,0,0,0,.62.62,6.194,6.194,0,0,0,1.639,1.12,8.086,8.086,0,0,0,3.92,1,9.4,9.4,0,0,0,2.941-.439,11.558,11.558,0,0,0,2.859-1.481Z" fill="#231f20"/><path d="M925.435,843.846h-1.56a4.4,4.4,0,0,1-3.881-1.781,7.619,7.619,0,0,1-1.239-4.46v-9.64h-2.6v-1.44q4.6-.639,4.6-6.96h1.519v5.8h2.88a6.489,6.489,0,0,0,2.281-.24l.08,3.6a3.186,3.186,0,0,0-2.281-.761h-2.96v8.04a13.992,13.992,0,0,0,.26,2.921,3.162,3.162,0,0,0,1.341,1.96l.8.279a4.307,4.307,0,0,0,.58.16,2.672,2.672,0,0,0,.5.04c.346-.053.673-.113.979-.179a5.775,5.775,0,0,0,.781-.221Z" fill="#231f20"/><g id="_12th_Touhou_Project_Shooting_Game_for_Windows_XP_2000_Chase_Flying_Fantastic_Object_" data-name="12th Touhou Project Shooting Game for Windows XP/2000  Chase Flying Fantastic Object！"><path d="M522.229,893.236H521.1V880.2h1.127Z" fill="#231f20"/><path d="M541.348,883.464a3.2,3.2,0,0,1-1.2,2.717,4.94,4.94,0,0,1-2.938.785h-2.888a3.273,3.273,0,0,0-2.118.53,2.831,2.831,0,0,0-.7,2.221v2.409h9.738v1.11H530.379v-3.519a3.768,3.768,0,0,1,1.094-3.059,4.377,4.377,0,0,1,2.852-.785h2.888q3.024,0,3.024-2.409a1.9,1.9,0,0,0-.8-1.572,3.208,3.208,0,0,0-1.931-.58h-7V880.2h7a4.407,4.407,0,0,1,2.58.786A2.916,2.916,0,0,1,541.348,883.464Z" fill="#231f20"/><path d="M550.47,885.274h-3.554v4.34a2.949,2.949,0,0,0,.359,1.675,1.542,1.542,0,0,0,1.4.58h1.777v1.11h-1.777q-2.888,0-2.887-3.365v-4.34h-2.563v-1.092h2.563V880.2h1.127v3.982h3.554Z" fill="#231f20"/><path d="M558.928,893.236h-1.145v-5.313a3.1,3.1,0,0,0-.547-2.068,3.065,3.065,0,0,0-2.34-.734h-2.871v8.115H550.9V880.2h1.128v3.777H554.9q4.032,0,4.032,3.946Z" fill="#231f20"/><path d="M577.345,881.312h-5.4v11.924h-1.11V881.312h-5.4V880.2h11.908Z" fill="#231f20"/><path d="M588.262,888.623a5.019,5.019,0,1,1-1.47-3.57A4.844,4.844,0,0,1,588.262,888.623Zm-1.094-.017a3.935,3.935,0,0,0-3.946-3.929,3.921,3.921,0,0,0,0,7.842,3.76,3.76,0,0,0,2.785-1.163A3.686,3.686,0,0,0,587.168,888.606Z" fill="#231f20"/><path d="M597.642,893.236h-3.981q-4.7,0-4.7-4.442v-4.817h1.145v4.817a3.132,3.132,0,0,0,1.111,2.768,4.429,4.429,0,0,0,2.443.546h2.87v-8.131h1.111Z" fill="#231f20"/><path d="M606.184,893.236h-1.145v-5.313a3.107,3.107,0,0,0-.547-2.068,3.066,3.066,0,0,0-2.341-.734h-2.87v8.115h-1.128V880.2h1.128v3.777h2.87q4.034,0,4.033,3.946Z" fill="#231f20"/><path d="M616.931,888.623a5.019,5.019,0,1,1-1.47-3.57A4.844,4.844,0,0,1,616.931,888.623Zm-1.094-.017a3.935,3.935,0,0,0-3.946-3.929,3.921,3.921,0,0,0,0,7.842,3.76,3.76,0,0,0,2.785-1.163A3.686,3.686,0,0,0,615.837,888.606Z" fill="#231f20"/><path d="M626.31,893.236h-3.981q-4.7,0-4.7-4.442v-4.817h1.145v4.817a3.132,3.132,0,0,0,1.111,2.768,4.429,4.429,0,0,0,2.443.546h2.87v-8.131h1.111Z" fill="#231f20"/><path d="M643.6,884.182a3.556,3.556,0,0,1-1.658,3.16,4.888,4.888,0,0,1-2.733.8h-5.023v5.091h-1.111V880.2h6.134a4.9,4.9,0,0,1,2.733.8A3.545,3.545,0,0,1,643.6,884.182Zm-1.128,0a2.56,2.56,0,0,0-1.161-2.256,3.655,3.655,0,0,0-2.1-.614h-5.023v5.706h5.023a3.729,3.729,0,0,0,2.1-.6A2.516,2.516,0,0,0,642.472,884.182Z" fill="#231f20"/><path d="M650.792,888.213h-1.145v-.956q0-2.154-1.982-2.153H645.7v8.132h-1.128v-9.259H647.8q2.989,0,2.99,3.28Z" fill="#231f20"/><path d="M661.624,888.623a5.019,5.019,0,1,1-1.47-3.57A4.841,4.841,0,0,1,661.624,888.623Zm-1.094-.017a3.935,3.935,0,0,0-3.946-3.929,3.921,3.921,0,1,0,2.785,6.679A3.682,3.682,0,0,0,660.53,888.606Z" fill="#231f20"/><path d="M667.519,891.084q0,2.6-1.333,3.468a5.978,5.978,0,0,1-3.161.615h-.786v-1.128h.8a5.162,5.162,0,0,0,2.494-.393q.855-.6.855-2.63v-7.039h1.128Zm0-9.756h-1.111V880.2h1.111Z" fill="#231f20"/><path d="M677.53,888.486v.581h-7.722a2.988,2.988,0,0,0,1.059,2.375,4.634,4.634,0,0,0,2.75.65h3.691v1.144h-3.691q-4.955,0-4.954-4.681a5.346,5.346,0,0,1,1.025-3.331,4.254,4.254,0,0,1,3.605-1.641,3.77,3.77,0,0,1,3.417,1.828A5.8,5.8,0,0,1,677.53,888.486Zm-1.162-.546q-.564-3.23-3.075-3.229a3.292,3.292,0,0,0-2.46.939,3.619,3.619,0,0,0-1.008,2.29Z" fill="#231f20"/><path d="M687.012,893.236h-4.271a4.129,4.129,0,0,1-2.939-1.144,4.436,4.436,0,0,1-1.4-3.469,4.542,4.542,0,0,1,1.4-3.5,4.125,4.125,0,0,1,2.939-1.144h4.271V885.1h-4.254a3.047,3.047,0,0,0-2.17.837,3.461,3.461,0,0,0-1.042,2.682,3.416,3.416,0,0,0,1.042,2.648,3.082,3.082,0,0,0,2.17.821h4.254Z" fill="#231f20"/><path d="M694.956,885.274H691.4v4.34a2.94,2.94,0,0,0,.36,1.675,1.541,1.541,0,0,0,1.4.58h1.777v1.11h-1.777q-2.888,0-2.887-3.365v-4.34h-2.563v-1.092h2.563V880.2H691.4v3.982h3.554Z" fill="#231f20"/><path d="M526.842,909.69q0,3.947-4.373,3.947H515.72v-1.111h6.749a4.068,4.068,0,0,0,2.271-.512,2.613,2.613,0,0,0,.975-2.324,2.113,2.113,0,0,0-.889-1.862,3.688,3.688,0,0,0-2.136-.547h-3.041a5.166,5.166,0,0,1-2.99-.82,2.946,2.946,0,0,1-1.332-2.563,2.883,2.883,0,0,1,1.452-2.648,5.028,5.028,0,0,1,2.615-.649h6.9v1.111h-6.9q-2.94,0-2.94,2.186a1.981,1.981,0,0,0,.855,1.674,3.935,3.935,0,0,0,2.34.616h3.041a4.972,4.972,0,0,1,2.751.717A3.11,3.11,0,0,1,526.842,909.69Z" fill="#231f20"/><path d="M535.812,913.637h-1.145v-5.314a3.1,3.1,0,0,0-.547-2.067,3.066,3.066,0,0,0-2.341-.735h-2.87v8.116h-1.128V900.6h1.128v3.776h2.87q4.034,0,4.033,3.946Z" fill="#231f20"/><path d="M546.559,909.023a5.019,5.019,0,1,1-1.47-3.57A4.843,4.843,0,0,1,546.559,909.023Zm-1.094-.016a3.937,3.937,0,0,0-3.946-3.93,3.921,3.921,0,0,0,0,7.842,3.763,3.763,0,0,0,2.785-1.162A3.686,3.686,0,0,0,545.465,909.007Z" fill="#231f20"/><path d="M557.492,909.023a5.019,5.019,0,1,1-1.47-3.57A4.839,4.839,0,0,1,557.492,909.023Zm-1.094-.016a3.914,3.914,0,0,0-6.7-2.768,3.879,3.879,0,0,0,0,5.535,3.9,3.9,0,0,0,5.536-.017A3.682,3.682,0,0,0,556.4,909.007Z" fill="#231f20"/><path d="M565.437,905.675h-3.554v4.34a2.946,2.946,0,0,0,.359,1.674,1.542,1.542,0,0,0,1.4.581h1.777v1.11h-1.777q-2.888,0-2.887-3.365v-4.34h-2.564v-1.093h2.564V900.6h1.127v3.981h3.554Z" fill="#231f20"/><path d="M566.991,901.729h-1.128V900.6h1.128Zm0,11.908h-1.128v-9.26h1.128Z" fill="#231f20"/><path d="M576,913.637h-1.144v-4.425a3.919,3.919,0,0,0-.923-3.007,3.758,3.758,0,0,0-2.579-.7h-2.7v8.133H567.5v-9.26h3.845a4.8,4.8,0,0,1,3.331.99Q576,906.5,576,909.212Z" fill="#231f20"/><path d="M585.818,904.377v8.337q0,2.853-3.672,2.853h-4.084v-1.128h4.084a3.724,3.724,0,0,0,2.049-.41,1.487,1.487,0,0,0,.5-1.263h-3.177a4.6,4.6,0,0,1-3.69-1.453,4.407,4.407,0,0,1,0-5.484,4.566,4.566,0,0,1,3.69-1.452Zm-1.128,7.278V905.5h-3.041a3.821,3.821,0,0,0-2.9,1.043,3.1,3.1,0,0,0,0,4.049,3.787,3.787,0,0,0,2.9,1.059Z" fill="#231f20"/><path d="M603.963,913.637h-5.279a7.047,7.047,0,0,1-4.066-.957q-2.12-1.486-2.119-5.57t2.119-5.569a7.144,7.144,0,0,1,4.066-.94h5.126v1.111h-5.126a5.953,5.953,0,0,0-3.383.734q-1.691,1.179-1.692,4.664t1.692,4.664a5.9,5.9,0,0,0,3.383.752h4.134v-2.511a2.626,2.626,0,0,0-.581-1.913,2.43,2.43,0,0,0-1.776-.547h-2.084v-1.111h2.084q3.5,0,3.5,3.571Z" fill="#231f20"/><path d="M613.564,908.307v5.33h-5.98a3.239,3.239,0,0,1-1.845-.564,2.914,2.914,0,0,1,0-4.681,3.231,3.231,0,0,1,1.845-.564h4.836q-.24-2.323-3.127-2.324h-4.511v-1.127h4.511a4.438,4.438,0,0,1,3.178,1.042A3.736,3.736,0,0,1,613.564,908.307Zm-1.127.648H607.6a2.157,2.157,0,0,0-1.248.376,1.778,1.778,0,0,0,0,2.8,2.149,2.149,0,0,0,1.248.376h4.835Z" fill="#231f20"/><path d="M627.1,913.637H626v-4.853a3.171,3.171,0,0,0-.957-2.613,3.706,3.706,0,0,0-2.409-.667h-1.5v8.133h-1.076V905.5h-4.87v8.133h-1.111v-9.26h8.56q4.458,0,4.46,4.407Z" fill="#231f20"/><path d="M636.663,908.887v.581H628.94a2.991,2.991,0,0,0,1.06,2.375,4.642,4.642,0,0,0,2.75.649h3.69v1.145h-3.69q-4.955,0-4.954-4.682a5.348,5.348,0,0,1,1.025-3.331,4.253,4.253,0,0,1,3.605-1.641,3.772,3.772,0,0,1,3.417,1.829A5.8,5.8,0,0,1,636.663,908.887Zm-1.162-.546q-.564-3.23-3.075-3.23a3.292,3.292,0,0,0-2.46.94,3.614,3.614,0,0,0-1.008,2.29Z" fill="#231f20"/><path d="M650.759,901.712h-1.675q-2.323,0-2.323,2.135v.769h3.98v1.093h-3.98v7.928h-1.128v-7.928h-2.478v-1.093h2.478v-.769a3.188,3.188,0,0,1,.82-2.306,3.45,3.45,0,0,1,2.631-.94h1.675Z" fill="#231f20"/><path d="M661.419,909.023a5.019,5.019,0,1,1-1.47-3.57A4.839,4.839,0,0,1,661.419,909.023Zm-1.094-.016a3.937,3.937,0,0,0-3.946-3.93,3.921,3.921,0,1,0,2.785,6.68A3.686,3.686,0,0,0,660.325,909.007Z" fill="#231f20"/><path d="M668.526,908.613h-1.144v-.956q0-2.153-1.983-2.153h-1.963v8.133h-1.128v-9.26h3.228q2.99,0,2.99,3.28Z" fill="#231f20"/><path d="M691.522,900.6l-3.5,13.036h-1.469l-3.28-12.267-3.281,12.267H678.5L675.019,900.6h1.162l3.075,11.5,3.057-11.5h1.915l3.057,11.5,3.093-11.5Z" fill="#231f20"/><path d="M693.248,901.729H692.12V900.6h1.128Zm0,11.908H692.12v-9.26h1.128Z" fill="#231f20"/><path d="M702.252,913.637h-1.145v-4.425a3.919,3.919,0,0,0-.922-3.007,3.759,3.759,0,0,0-2.58-.7h-2.7v8.133h-1.145v-9.26h3.844a4.115,4.115,0,0,1,4.647,4.835Z" fill="#231f20"/><path d="M711.973,913.637h-4.647a4.186,4.186,0,0,1-2.956-1.145,4.411,4.411,0,0,1-1.418-3.469,4.519,4.519,0,0,1,1.418-3.5,4.19,4.19,0,0,1,2.956-1.144h3.519V900.6h1.128Zm-1.128-1.145V905.5h-3.5a3.066,3.066,0,0,0-2.187.838,3.423,3.423,0,0,0-1.059,2.681,3.386,3.386,0,0,0,1.059,2.649,3.141,3.141,0,0,0,2.187.82Z" fill="#231f20"/><path d="M722.72,909.023a5.019,5.019,0,1,1-1.47-3.57A4.843,4.843,0,0,1,722.72,909.023Zm-1.094-.016a3.937,3.937,0,0,0-3.946-3.93,3.921,3.921,0,0,0,0,7.842,3.763,3.763,0,0,0,2.785-1.162A3.686,3.686,0,0,0,721.626,909.007Z" fill="#231f20"/><path d="M737.122,904.377l-2.528,9.26h-1.4l-2.87-7.5-2.87,7.5h-1.4l-2.546-9.26h1.162l2.135,7.808,2.99-7.808h1.06l2.989,7.808,2.136-7.808Z" fill="#231f20"/><path d="M746.639,910.92q0,2.717-3.469,2.717h-4.835v-1.145h4.835a4.105,4.105,0,0,0,1.606-.239,1.351,1.351,0,0,0,.718-1.333q0-1.554-2.016-1.555h-2.153a5.016,5.016,0,0,1-2.375-.444,2.491,2.491,0,0,1-.051-4.015,4.118,4.118,0,0,1,2.221-.529h4.886V905.5H741.12q-2.085,0-2.084,1.367a1.165,1.165,0,0,0,.7,1.179,3.862,3.862,0,0,0,1.469.205h2.273a3.652,3.652,0,0,1,2.238.615A2.416,2.416,0,0,1,746.639,910.92Z" fill="#231f20"/><path d="M765.551,913.637h-1.435l-4.732-6.066-4.734,6.066h-1.434l5.467-7L753.95,900.6h1.436l4,5.126,4-5.126H764.8l-4.7,6.031Z" fill="#231f20"/><path d="M777.117,904.582a3.556,3.556,0,0,1-1.657,3.16,4.888,4.888,0,0,1-2.733.8H767.7v5.092h-1.11V900.6h6.134a4.9,4.9,0,0,1,2.733.8A3.548,3.548,0,0,1,777.117,904.582Zm-1.128,0a2.56,2.56,0,0,0-1.161-2.256,3.652,3.652,0,0,0-2.1-.614H767.7v5.706h5.024a3.718,3.718,0,0,0,2.1-.6A2.511,2.511,0,0,0,775.989,904.582Z" fill="#231f20"/><path d="M784.977,900.7l-6.014,13.258-1.06-.427,6.032-13.258Z" fill="#231f20"/><path d="M797.824,903.864a3.194,3.194,0,0,1-1.2,2.717,4.944,4.944,0,0,1-2.939.785H790.8a3.273,3.273,0,0,0-2.118.53,2.831,2.831,0,0,0-.7,2.221v2.409h9.739v1.111H786.855v-3.52a3.769,3.769,0,0,1,1.094-3.058,4.372,4.372,0,0,1,2.853-.786h2.887q3.024,0,3.025-2.409a1.9,1.9,0,0,0-.8-1.572,3.206,3.206,0,0,0-1.931-.58h-7V900.6h7a4.4,4.4,0,0,1,2.581.786A2.915,2.915,0,0,1,797.824,903.864Z" fill="#231f20"/><path d="M812.808,907.11a7.1,7.1,0,0,1-1.829,4.92,5.829,5.829,0,0,1-8.833-.016,7.442,7.442,0,0,1,0-9.807,5.862,5.862,0,0,1,8.833.017A7.013,7.013,0,0,1,812.808,907.11Zm-1.111.017a6.1,6.1,0,0,0-1.486-4.117,4.626,4.626,0,0,0-3.622-1.708,4.727,4.727,0,0,0-3.674,1.725,6.316,6.316,0,0,0,.018,8.2,4.693,4.693,0,0,0,3.656,1.709,4.627,4.627,0,0,0,3.622-1.709A6.042,6.042,0,0,0,811.7,907.127Z" fill="#231f20"/><path d="M827.022,907.11a7.1,7.1,0,0,1-1.828,4.92,5.829,5.829,0,0,1-8.833-.016,7.442,7.442,0,0,1,0-9.807,5.862,5.862,0,0,1,8.833.017A7.013,7.013,0,0,1,827.022,907.11Zm-1.11.017a6.1,6.1,0,0,0-1.486-4.117A4.626,4.626,0,0,0,820.8,901.3a4.727,4.727,0,0,0-3.674,1.725,6.318,6.318,0,0,0,.017,8.2,4.7,4.7,0,0,0,3.657,1.709,4.627,4.627,0,0,0,3.622-1.709A6.042,6.042,0,0,0,825.912,907.127Z" fill="#231f20"/><path d="M841.236,907.11a7.1,7.1,0,0,1-1.828,4.92,5.829,5.829,0,0,1-8.833-.016,7.439,7.439,0,0,1,0-9.807,5.862,5.862,0,0,1,8.833.017A7.013,7.013,0,0,1,841.236,907.11Zm-1.11.017a6.1,6.1,0,0,0-1.486-4.117,4.629,4.629,0,0,0-3.622-1.708,4.726,4.726,0,0,0-3.674,1.725,6.318,6.318,0,0,0,.017,8.2,4.7,4.7,0,0,0,3.657,1.709,4.63,4.63,0,0,0,3.622-1.709A6.042,6.042,0,0,0,840.126,907.127Z" fill="#231f20"/><path d="M526.244,954.437h-4.8q-6.2,0-6.2-6.527,0-6.51,6.2-6.51h4.8v1.112h-4.8a5.563,5.563,0,0,0-3.4.871q-1.69,1.264-1.691,4.527,0,3.28,1.691,4.528a5.485,5.485,0,0,0,3.4.888h4.8Z" fill="#231f20"/><path d="M535.043,954.437H533.9v-5.314a3.1,3.1,0,0,0-.546-2.067,3.065,3.065,0,0,0-2.341-.735h-2.87v8.116h-1.128V941.4h1.128v3.777h2.87q4.032,0,4.032,3.946Z" fill="#231f20"/><path d="M544.645,949.106v5.331h-5.981a3.239,3.239,0,0,1-1.845-.564,2.915,2.915,0,0,1,0-4.682,3.231,3.231,0,0,1,1.845-.563H543.5q-.24-2.324-3.127-2.324h-4.511v-1.127h4.511a4.434,4.434,0,0,1,3.178,1.042A3.735,3.735,0,0,1,544.645,949.106Zm-1.128.649h-4.835a2.151,2.151,0,0,0-1.247.376,1.777,1.777,0,0,0,0,2.8,2.144,2.144,0,0,0,1.247.376h4.835Z" fill="#231f20"/><path d="M554.075,951.72q0,2.716-3.469,2.717h-4.835v-1.145h4.835a4.114,4.114,0,0,0,1.607-.239,1.354,1.354,0,0,0,.718-1.333q0-1.554-2.017-1.555h-2.152a5.016,5.016,0,0,1-2.375-.444,2.167,2.167,0,0,1-1.042-2.05,2.189,2.189,0,0,1,.991-1.965,4.118,4.118,0,0,1,2.221-.529h4.885V946.3h-4.885q-2.085,0-2.084,1.367a1.164,1.164,0,0,0,.7,1.179,3.879,3.879,0,0,0,1.469.2h2.272a3.652,3.652,0,0,1,2.238.615A2.413,2.413,0,0,1,554.075,951.72Z" fill="#231f20"/><path d="M563.813,949.687v.581h-7.722a2.991,2.991,0,0,0,1.059,2.375,4.642,4.642,0,0,0,2.75.649h3.691v1.145H559.9q-4.953,0-4.954-4.682a5.342,5.342,0,0,1,1.026-3.331,4.251,4.251,0,0,1,3.6-1.641,3.772,3.772,0,0,1,3.417,1.828A5.805,5.805,0,0,1,563.813,949.687Zm-1.162-.546q-.564-3.231-3.075-3.23a3.293,3.293,0,0,0-2.46.94,3.614,3.614,0,0,0-1.008,2.29Z" fill="#231f20"/><path d="M580.916,942.512H571.9v4.373h8.286V948H571.9v6.442H570.75V941.4h10.166Z" fill="#231f20"/><path d="M582.812,954.437h-1.128V941.4h1.128Z" fill="#231f20"/><path d="M591.61,952.3a4.238,4.238,0,0,1-.956,3.178,4.386,4.386,0,0,1-3.127.9h-3.843v-1.127h3.843a4.428,4.428,0,0,0,2.051-.342,1.881,1.881,0,0,0,.819-1.452h-2.955a4.671,4.671,0,0,1-2.853-.718,3.74,3.74,0,0,1-1.179-3.127v-4.441h1.145v4.441a2.7,2.7,0,0,0,.786,2.238,3.485,3.485,0,0,0,2.1.5h3.024v-7.176h1.144Z" fill="#231f20"/><path d="M593.336,942.528h-1.128V941.4h1.128Zm0,11.909h-1.128v-9.26h1.128Z" fill="#231f20"/><path d="M602.34,954.437H601.2v-4.425a3.915,3.915,0,0,0-.923-3.007,3.757,3.757,0,0,0-2.579-.7h-2.7v8.133h-1.145v-9.26h3.844a4.8,4.8,0,0,1,3.331.99q1.315,1.128,1.316,3.845Z" fill="#231f20"/><path d="M612.163,945.177v8.337q0,2.853-3.673,2.853h-4.084v-1.128h4.084a3.728,3.728,0,0,0,2.05-.41,1.488,1.488,0,0,0,.5-1.264h-3.178a4.6,4.6,0,0,1-3.689-1.452,4.407,4.407,0,0,1,0-5.484,4.564,4.564,0,0,1,3.689-1.452Zm-1.128,7.278V946.3h-3.041a3.818,3.818,0,0,0-2.9,1.043,3.1,3.1,0,0,0,0,4.049,3.787,3.787,0,0,0,2.9,1.059Z" fill="#231f20"/><path d="M629.01,942.512h-9.022v4.373h8.286V948h-8.286v6.442h-1.144V941.4H629.01Z" fill="#231f20"/><path d="M638.867,949.106v5.331h-5.98a3.239,3.239,0,0,1-1.845-.564,2.914,2.914,0,0,1,0-4.682,3.231,3.231,0,0,1,1.845-.563h4.836q-.241-2.324-3.127-2.324h-4.511v-1.127H634.6a4.431,4.431,0,0,1,3.177,1.042A3.732,3.732,0,0,1,638.867,949.106Zm-1.128.649H632.9a2.154,2.154,0,0,0-1.247.376,1.778,1.778,0,0,0,0,2.8,2.146,2.146,0,0,0,1.247.376h4.835Z" fill="#231f20"/><path d="M647.87,954.437h-1.144v-4.425a3.919,3.919,0,0,0-.923-3.007,3.758,3.758,0,0,0-2.579-.7h-2.7v8.133h-1.145v-9.26h3.845a4.8,4.8,0,0,1,3.331.99q1.316,1.128,1.315,3.845Z" fill="#231f20"/><path d="M655.627,946.475h-3.554v4.339a2.938,2.938,0,0,0,.36,1.675,1.54,1.54,0,0,0,1.4.58h1.777v1.111h-1.777q-2.887,0-2.887-3.366v-4.339h-2.563v-1.093h2.563V941.4h1.127v3.982h3.554Z" fill="#231f20"/><path d="M665.144,949.106v5.331h-5.981a3.239,3.239,0,0,1-1.845-.564,2.915,2.915,0,0,1,0-4.682,3.231,3.231,0,0,1,1.845-.563H664q-.24-2.324-3.127-2.324h-4.511v-1.127h4.511a4.434,4.434,0,0,1,3.178,1.042A3.735,3.735,0,0,1,665.144,949.106Zm-1.128.649h-4.835a2.151,2.151,0,0,0-1.247.376,1.777,1.777,0,0,0,0,2.8,2.144,2.144,0,0,0,1.247.376h4.835Z" fill="#231f20"/><path d="M674.574,951.72q0,2.716-3.469,2.717h-4.834v-1.145h4.834a4.114,4.114,0,0,0,1.607-.239,1.354,1.354,0,0,0,.718-1.333q0-1.554-2.017-1.555h-2.152a5.016,5.016,0,0,1-2.375-.444,2.167,2.167,0,0,1-1.042-2.05,2.189,2.189,0,0,1,.991-1.965,4.118,4.118,0,0,1,2.221-.529h4.885V946.3h-4.885q-2.085,0-2.084,1.367a1.164,1.164,0,0,0,.7,1.179,3.879,3.879,0,0,0,1.469.2h2.272a3.652,3.652,0,0,1,2.238.615A2.413,2.413,0,0,1,674.574,951.72Z" fill="#231f20"/><path d="M682.5,946.475h-3.554v4.339a2.938,2.938,0,0,0,.36,1.675,1.54,1.54,0,0,0,1.4.58h1.777v1.111h-1.777q-2.887,0-2.887-3.366v-4.339h-2.563v-1.093h2.563V941.4h1.127v3.982H682.5Z" fill="#231f20"/><path d="M684.057,942.528h-1.128V941.4h1.128Zm0,11.909h-1.128v-9.26h1.128Z" fill="#231f20"/><path d="M693.367,954.437H689.1a4.128,4.128,0,0,1-2.94-1.145,4.439,4.439,0,0,1-1.4-3.469,4.546,4.546,0,0,1,1.4-3.5,4.131,4.131,0,0,1,2.94-1.144h4.27V946.3h-4.254a3.045,3.045,0,0,0-2.17.838,3.458,3.458,0,0,0-1.042,2.681,3.419,3.419,0,0,0,1.042,2.649,3.083,3.083,0,0,0,2.17.82h4.254Z" fill="#231f20"/><path d="M712.794,947.91a7.1,7.1,0,0,1-1.828,4.92,5.847,5.847,0,0,1-8.851-.017,7.489,7.489,0,0,1,0-9.806,5.883,5.883,0,0,1,8.851.016A7.021,7.021,0,0,1,712.794,947.91Zm-1.111.017a6.06,6.06,0,0,0-1.5-4.117,4.614,4.614,0,0,0-3.606-1.708,4.774,4.774,0,0,0-3.689,1.725,6.034,6.034,0,0,0-1.5,4.1,5.956,5.956,0,0,0,1.538,4.1,4.691,4.691,0,0,0,3.655,1.709,4.612,4.612,0,0,0,3.606-1.709A6,6,0,0,0,711.683,947.927Z" fill="#231f20"/><path d="M722.736,949.823a4.408,4.408,0,0,1-1.418,3.469,4.223,4.223,0,0,1-2.955,1.145H713.7V941.4h1.128v3.777h3.537a4.227,4.227,0,0,1,2.955,1.144A4.514,4.514,0,0,1,722.736,949.823Zm-1.178,0a3.484,3.484,0,0,0-1.026-2.681,3.14,3.14,0,0,0-2.186-.838h-3.52v6.988h3.52a3.179,3.179,0,0,0,2.186-.82A3.445,3.445,0,0,0,721.558,949.823Z" fill="#231f20"/><path d="M728.614,952.284q0,2.6-1.333,3.468a5.974,5.974,0,0,1-3.16.615h-.786v-1.128h.8a5.184,5.184,0,0,0,2.494-.392q.855-.6.854-2.631v-7.039h1.128Zm0-9.756H727.5V941.4h1.11Z" fill="#231f20"/><path d="M738.626,949.687v.581H730.9a2.991,2.991,0,0,0,1.06,2.375,4.642,4.642,0,0,0,2.75.649h3.69v1.145h-3.69q-4.955,0-4.954-4.682a5.348,5.348,0,0,1,1.025-3.331,4.251,4.251,0,0,1,3.605-1.641,3.773,3.773,0,0,1,3.417,1.828A5.805,5.805,0,0,1,738.626,949.687Zm-1.162-.546q-.564-3.231-3.075-3.23a3.292,3.292,0,0,0-2.46.94,3.6,3.6,0,0,0-1.008,2.29Z" fill="#231f20"/><path d="M748.107,954.437h-4.27a4.13,4.13,0,0,1-2.94-1.145,4.439,4.439,0,0,1-1.4-3.469,4.546,4.546,0,0,1,1.4-3.5,4.133,4.133,0,0,1,2.94-1.144h4.27V946.3h-4.253a3.042,3.042,0,0,0-2.17.838,3.454,3.454,0,0,0-1.042,2.681,3.416,3.416,0,0,0,1.042,2.649,3.079,3.079,0,0,0,2.17.82h4.253Z" fill="#231f20"/><path d="M756.052,946.475H752.5v4.339a2.947,2.947,0,0,0,.359,1.675,1.542,1.542,0,0,0,1.4.58h1.777v1.111h-1.777q-2.888,0-2.887-3.366v-4.339h-2.563v-1.093h2.563V941.4H752.5v3.982h3.554Z" fill="#231f20"/><path d="M764.34,941.384l-.5,10.353h-.564l-.5-10.353Zm-.018,13.343H762.8V953.24h1.52Z" fill="#231f20"/></g><g id="上海_アリス幻樂団" data-name="上海■アリス幻樂団"><path d="M910.689,860.125a1.561,1.561,0,0,1,.842.217.635.635,0,0,1,.365.606l-.063,1.965h3.289a4.714,4.714,0,0,1,1.032.072.433.433,0,0,1,.239.448,1.077,1.077,0,0,1-.206.635.74.74,0,0,1-.557.232q-.27,0-1.112-.044c-.53-.009-1.012-.015-1.446-.015-.339,0-.778.006-1.318.015l-.1,2.816q2.637.087,6.593.621a2.591,2.591,0,0,1-.477,1.315.82.82,0,0,1-.682.419,6.071,6.071,0,0,1-1.224-.217,24.056,24.056,0,0,0-5.37-.636,18.719,18.719,0,0,0-5.242.694,4.123,4.123,0,0,1-1.065.216.9.9,0,0,1-.6-.274.723.723,0,0,1-.285-.52.858.858,0,0,1,.761-.924,24.793,24.793,0,0,1,5.657-.694l-.064-6.124a.691.691,0,0,1,.286-.577A1.032,1.032,0,0,1,910.689,860.125Z" fill="#231f20"/><path d="M903.953,878.314l2.669.058q.444.115.444.361,0,.375-.905.679a20.5,20.5,0,0,1-2.161.534.9.9,0,0,1-.492-.231.609.609,0,0,1-.254-.462,1.22,1.22,0,0,1,.206-.649A.659.659,0,0,1,903.953,878.314Zm1.144-3.754a2.183,2.183,0,0,1,1.175.649q1.224,1.026,1.224,1.257c0,.24-.143.361-.43.361a2.728,2.728,0,0,1-.634-.1,9.256,9.256,0,0,0-1.51-.173q-.793-.073-.794-1.055a.891.891,0,0,1,.3-.664A1.041,1.041,0,0,1,905.1,874.56Zm1.128,6.542c.179,0,.27.072.27.216q0,.261-.238,1.979-.064.621-.859.621a1.314,1.314,0,0,1-.747-.2.805.805,0,0,1-.317-.65.9.9,0,0,1,.238-.462l1.3-1.314A.582.582,0,0,1,906.225,881.1Zm3.829-4.059a1.181,1.181,0,0,1,.619.145.205.205,0,0,1,.08.043q1.032-.058,2.652-.058,2.575,0,3.258.072c.211.02.317.092.317.217a1.565,1.565,0,0,1-.126.318,8.158,8.158,0,0,0-.477,1.66q.938.058,1.985.145a2.033,2.033,0,0,1-.365,1.084.737.737,0,0,1-.572.375,3.645,3.645,0,0,1-.937-.2c-.137-.03-.27-.058-.4-.087-.032.144-.059.294-.079.448s-.07.3-.112.447q.731.045,1.319.073c.179.029.27.087.27.173a.95.95,0,0,1-.207.635.718.718,0,0,1-.555.246q-.288,0-1.161-.057a3.106,3.106,0,0,1-.508.91,1.079,1.079,0,0,1-.873.534,1.386,1.386,0,0,1-1.161-.693,2.413,2.413,0,0,0,.715-.838q-1.62-.043-3.94-.043a3.772,3.772,0,0,0-1.207.144,1.277,1.277,0,0,1-.4.1.672.672,0,0,1-.444-.159.39.39,0,0,1-.19-.361,1.432,1.432,0,0,1,.158-.476q.222-.564.445-1.142c-.138.03-.27.053-.4.073a4.552,4.552,0,0,1-.969.159.542.542,0,0,1-.382-.2.435.435,0,0,1-.19-.319.548.548,0,0,1,.508-.577,17.007,17.007,0,0,1,1.891-.332q.364-.982.73-2.037Q909.481,877.044,910.054,877.043Zm-.4-2.643a2.7,2.7,0,0,1,1.033.173q.3.174.3.4a.839.839,0,0,1-.111.361q1.048-.087,2.875-.087,2.892,0,4.306.131a1.993,1.993,0,0,1-.287,1.025.451.451,0,0,1-.413.245q-.332,0-1.366-.057-1.652-.13-2.732-.13-1.4,0-2.542.115a7.672,7.672,0,0,1-.858.072.341.341,0,0,1-.1-.014.664.664,0,0,0-.127.116,3.233,3.233,0,0,1-2.018,1.054c-.286,0-.43-.081-.43-.246,0-.077.07-.178.207-.3a7.869,7.869,0,0,0,1.43-1.5,1.691,1.691,0,0,0,.4-.9.777.777,0,0,0-.207-.419A3.8,3.8,0,0,1,909.656,874.4Zm1.557,7.164.318-1.2c-.561.02-1.1.053-1.621.1l-.381,1.039c0,.039.132.058.4.058Zm-.9-2.195q.7-.043,1.509-.058l.3-1.1q-.779.015-1.414.044Zm3.844,2.238a.1.1,0,0,0,.016-.043c.128-.395.244-.755.35-1.084a15.141,15.141,0,0,0-1.716-.129l-.318,1.227C913.077,881.578,913.634,881.588,914.152,881.607Zm-.762-3.394-.318,1.1q.827,0,1.78.043a5.551,5.551,0,0,0,.206-.982Q915.058,878.228,913.39,878.213Z" fill="#231f20"/><path d="M916.869,899.2H904.651V888.039h12.218Z" fill="#231f20"/><path d="M895.24,863.981a8.526,8.526,0,0,1-.159,1.965,3.039,3.039,0,0,1-1,1.589,5.788,5.788,0,0,1-2.4,1.314,6.2,6.2,0,0,1-1.828.318q-1.317,0-1.318-.91a2.272,2.272,0,0,1,1.1-2.051q.144.52.953.52a2.137,2.137,0,0,0,2.225-1.243,3.1,3.1,0,0,0,.207-.909v-.65q0-.736.984-.736a2.25,2.25,0,0,1,.874.115A.677.677,0,0,1,895.24,863.981Zm5.8-2.007a.72.72,0,0,1-.333.592,7.166,7.166,0,0,0-.684.419,1.566,1.566,0,0,0-.524.361q-1.764,1.806-2.367,1.8-.731,0-.731-.548a4.93,4.93,0,0,1,.6-1.156.913.913,0,0,0,.111-.332c0-.25-.143-.376-.428-.376-.033,0-.361-.009-.986-.028s-1.012-.044-1.16-.044a18.442,18.442,0,0,0-3.034.246q-1.479.231-1.573.231a1.06,1.06,0,0,1-.588-.188.862.862,0,0,1-.366-.693,1.016,1.016,0,0,1,1.017-1.1,23.1,23.1,0,0,1,2.972-.187q3.43,0,5.8.187a7.926,7.926,0,0,1,1.747.274C900.864,861.564,901.039,861.743,901.039,861.974Z" fill="#231f20"/><path d="M899.085,875.888q0,.261-.159,2.094a6.05,6.05,0,0,1-2,4.434,6.8,6.8,0,0,1-4.227,1.142,6.338,6.338,0,0,1-1.35-.1q-.843-.187-.842-.78,0-.923,1.462-1.906a1.737,1.737,0,0,0,1.477.491,3.012,3.012,0,0,0,1.843-.694,3.668,3.668,0,0,0,1.3-3.047v-.9c.011-.385.015-.611.015-.679q0-.779,1.255-.779a1.841,1.841,0,0,1,.795.173Q899.085,875.555,899.085,875.888Zm-6.212-.073q0,.175-.016,1.243-.015,1.083-.015,1.459,0,1.488-1.224,1.487-.954,0-.953-1.054c0-.125-.017-.583-.048-1.372s-.032-1.334-.032-1.633q0-.75,1.192-.751Q892.874,875.194,892.873,875.815Z" fill="#231f20"/><path d="M900.483,897.008a2.063,2.063,0,0,1-1.477.91,1.561,1.561,0,0,1-.89-.448q-.19-.144-.636-.491c-.275-.221-.513-.405-.714-.549a15.749,15.749,0,0,0-2.542-1.4q-2.812,2.425-4.957,2.426-.843,0-.842-.909a3.424,3.424,0,0,1,.905-1.849.923.923,0,0,0,.667.245,3.807,3.807,0,0,0,1.542-.447,7.6,7.6,0,0,0,1.605-.954,11.22,11.22,0,0,0,1.016-.953c.286-.317.429-.525.429-.621,0-.154-.153-.231-.461-.231a22.354,22.354,0,0,0-2.764.145q-1.113.115-1.017.115a.9.9,0,0,1-.842-.925q0-.865,1.08-.866l1.8-.029q1.859-.072,2.78-.072a8.085,8.085,0,0,1,2.573.246c.319.115.477.289.477.519a.559.559,0,0,1-.27.434,3.7,3.7,0,0,0-.508.4q-.493.52-1.859,2.051a12.285,12.285,0,0,0,3.146,1.387q.682.216,2.065.563c.1.02.217.048.365.087h.016A2.224,2.224,0,0,1,900.483,897.008Z" fill="#231f20"/><path d="M876.1,860.024a.948.948,0,0,1,.684.217.844.844,0,0,1,.254.577,1.448,1.448,0,0,1-.588.983l-1.922,1.487q-.413.376-.413.477,0,.216.54.476l.715.261q.984-.781,1.923-1.561a1.4,1.4,0,0,1,.842-.432.9.9,0,0,1,.507.187.667.667,0,0,1,.255.492,1.7,1.7,0,0,1-.731,1.242l-3.019,2.44,2.463.072c.085,0,.127-.052.127-.159q-.636-.635-.636-.808,0-.4.446-.4a4.114,4.114,0,0,1,1.683,1.04q1.05.823,1.049,1.271,0,.636-.572.636a4.952,4.952,0,0,1-.667-.1,19.032,19.032,0,0,0-1.97-.072h-2.113a11.168,11.168,0,0,0-2.065.144,2.062,2.062,0,0,1-.477.145c-.647,0-.969-.194-.969-.578a1.546,1.546,0,0,1,.763-1.141q.9-.664,1.763-1.314a12.375,12.375,0,0,0-1.874-.751q-.715-.2-.715-.492,0-.273.634-.852l2.686-2.629A2.539,2.539,0,0,1,876.1,860.024Zm6.166.52q2.6,0,3.383.087c.328.057.493.164.493.317a.667.667,0,0,1-.112.261,1.537,1.537,0,0,0-.222.823l-.1,4.145a3.581,3.581,0,0,1-1.287,2.6,3.387,3.387,0,0,1-2.16.838,1.245,1.245,0,0,1-.874-.375,3.308,3.308,0,0,1-.779-1.416,6.11,6.11,0,0,0,2.558-.794,2.075,2.075,0,0,0,.874-1.848V862.22c0-.125-.091-.188-.271-.188q-2.3,0-3.7.115a6,6,0,0,1-1,.13A.653.653,0,0,1,878.6,862a.837.837,0,0,1-.223-.607c0-.394.291-.655.874-.78Q879.7,860.544,882.27,860.544Z" fill="#231f20"/><path d="M874.373,874.56a.647.647,0,0,1,.7.634.655.655,0,0,1-.3.463l-1,.707c-.149.125-.223.2-.223.232s.079.077.238.115l.286.058.684-.563a.886.886,0,0,1,.523-.246.442.442,0,0,1,.493.506.611.611,0,0,1-.333.5l-1.7,1.228c0,.038.048.058.144.058h1.128c.1,0,.142-.02.142-.058a1.894,1.894,0,0,1-.206-.52c0-.145.112-.217.333-.217.181,0,.451.179.811.534.307.328.461.573.461.737q0,.462-.509.462a2.672,2.672,0,0,1-.429-.057h-1.366a14.933,14.933,0,0,0-1.827.087,1.523,1.523,0,0,1-.381.086.428.428,0,0,1-.27-.1.294.294,0,0,1-.127-.26c0-.125.159-.3.476-.535l.874-.751a8.479,8.479,0,0,0-1.1-.39q-.381-.086-.381-.231t.381-.477l1.636-1.5A1.578,1.578,0,0,1,874.373,874.56Zm4.575-.275a2.89,2.89,0,0,1,.938.1q.222.072.222.231a.979.979,0,0,1-.159.477,13.012,13.012,0,0,1,1.685.144c.159.029.238.1.238.2q-.079.346-.19,1.026l.174-.159,1.621-1.4a1.559,1.559,0,0,1,.826-.462.666.666,0,0,1,.509.188.678.678,0,0,1,.19.448q0,.188-.334.434l-1.1.634c-.148.107-.222.174-.222.2,0,.048.063.1.19.159l.3.13.572-.448a.919.919,0,0,1,.524-.231.448.448,0,0,1,.508.506c0,.182-.121.342-.365.476L883.35,878.1c0,.029.042.043.127.043h1c.137,0,.207-.014.207-.043a1.694,1.694,0,0,1-.207-.477c0-.144.111-.217.334-.217q.269,0,.762.521c.3.3.445.529.445.692,0,.309-.149.463-.445.463h-1.811a13.168,13.168,0,0,0-1.7.086,1.271,1.271,0,0,1-.38.087.482.482,0,0,1-.3-.13.29.29,0,0,1-.111-.217.594.594,0,0,1-.223.044,1.716,1.716,0,0,1-.254-.044c-.308-.028-.731-.048-1.271-.057l.1.043a.953.953,0,0,1,.413.592q2.48.072,6.18.462a2.241,2.241,0,0,1-.444,1.2.776.776,0,0,1-.652.418,5.307,5.307,0,0,1-1.175-.231,22.038,22.038,0,0,0-3.925-.606l-.032,1.646a2.2,2.2,0,0,1-.334,1.285.883.883,0,0,1-.809.448,1.251,1.251,0,0,1-.826-.289c-.223-.144-.334-.588-.334-1.329v-1.776a22.637,22.637,0,0,0-4.354.534,5.088,5.088,0,0,1-1.111.188.651.651,0,0,1-.43-.2.481.481,0,0,1-.206-.36.661.661,0,0,1,.571-.708,24.163,24.163,0,0,1,5.545-.664.884.884,0,0,1,.319-.549,1.309,1.309,0,0,1,.158-.1,8.707,8.707,0,0,0-1.048.1.7.7,0,0,1-.207.072q-.3,0-.365-.462l-.334-2.947a.349.349,0,0,1,.3-.346q.6-.1,1.223-.145a1.3,1.3,0,0,0,.143-.447c0-.068-.069-.159-.206-.275A7.452,7.452,0,0,1,878.948,874.285Zm-3.034,7.221c.085,0,.127.039.127.116a1.955,1.955,0,0,1-.763,1.271,2.881,2.881,0,0,1-1.8.852c-.38,0-.572-.246-.572-.736a1.162,1.162,0,0,1,.271-.867c.021.077.121.115.3.115a3.815,3.815,0,0,0,1.843-.577A1.571,1.571,0,0,1,875.914,881.506Zm2.05-4.867a8.758,8.758,0,0,1,.937-.043q.572,0,1.16.043l.047-.5c0-.049-.037-.082-.111-.1a6.633,6.633,0,0,0-1.159-.072,3.033,3.033,0,0,0-.763.087c-.085.019-.127.048-.127.087Zm.238,1.343a4.815,4.815,0,0,1,.731-.057,5.98,5.98,0,0,1,.841.057.189.189,0,0,0,.207-.173l.032-.419c-.392-.029-.762-.043-1.112-.043s-.651.009-.906.029l.017.549C878.012,877.963,878.075,877.982,878.2,877.982Zm3.241.563c.074-.066.164-.149.27-.245l1.016-.794a7.054,7.054,0,0,0-.936-.477.886.886,0,0,1-.175-.087C881.564,877.4,881.507,877.93,881.443,878.545Zm.429,3.019a2.259,2.259,0,0,1,.842.231,9,9,0,0,0,1.971.693,2.571,2.571,0,0,1-.573,1.055,1.252,1.252,0,0,1-.762.26,1.32,1.32,0,0,1-.859-.477,3.022,3.022,0,0,1-.809-1.589C881.682,881.622,881.745,881.564,881.872,881.564Z" fill="#231f20"/><path d="M878.948,889.18a48.761,48.761,0,0,1,6.133.259q.557.074.557.319-.318,1.977-.7,7.9c-.021.347-.154.52-.4.52-.1,0-.328-.025-.7-.073q-1.6-.143-4.925-.144-3.4,0-5.259.174a3.948,3.948,0,0,1-.619.1c-.2,0-.323-.149-.366-.447l-.635-7.8q0-.419.746-.519Q875.835,889.18,878.948,889.18Zm-4.638,7.452q1.3-.028,2.574-.043a.62.62,0,0,1-.144-.145,1.649,1.649,0,0,1-.334-1.083,5.8,5.8,0,0,0,2.24-.332.758.758,0,0,0,.494-.65v-1.632a19.936,19.936,0,0,0-3.115.26q-.762.1-.953.1a.639.639,0,0,1-.445-.173.69.69,0,0,1-.175-.462.622.622,0,0,1,.43-.592,22.47,22.47,0,0,1,4.258-.217v-.693a.588.588,0,0,1,.142-.4h-.334q-2.382,0-4.431.159c-.52.039-.78.1-.78.173l.382,5.619C874.119,896.594,874.183,896.632,874.31,896.632Zm3.574-3.481a.375.375,0,0,1,.429.419c0,.077-.126.232-.381.462a4.915,4.915,0,0,1-1.223.723,3.071,3.071,0,0,1-1.064.245c-.33,0-.494-.135-.494-.4a1.467,1.467,0,0,1,.366-.852.278.278,0,0,0,.254.1,2.7,2.7,0,0,0,.842-.159,4.052,4.052,0,0,0,.953-.448A.613.613,0,0,1,877.884,893.151Zm2.717-2.585a.347.347,0,0,1,.08.217,3.12,3.12,0,0,0-.064.52v.376q1.208.042,2.526.158a2.017,2.017,0,0,1-.3,1.083.6.6,0,0,1-.46.188,5.749,5.749,0,0,1-.826-.1c-.34-.068-.652-.12-.938-.158v1.689a1.767,1.767,0,0,1-.906,1.632,4.9,4.9,0,0,1-.969.4h4.4c.128,0,.2-.081.207-.245l.365-5.488c0-.077-.138-.13-.413-.159Q882.365,890.6,880.6,890.566Z" fill="#231f20"/></g></g></svg>
