<svg xmlns="http://www.w3.org/2000/svg" width="1000" height="988" viewBox="0 0 1000 988"><g id="Artboard"><rect id="Tint" width="1000" height="988" fill="#58595b"/></g><g id="Front_Text" data-name="Front Text"><g id="Dolls_in_Pseudo_Paradise" data-name="Dolls in Pseudo Paradise"><path d="M651.033,419.744c.03-.948.03-2.764.06-5.382.024-1.5.036-2.253.061-3.756-.684.047-1.027.068-1.711.108l-.57.013-.18-.116a.6.6,0,0,1-.09-.285c-.023-.248.48-.418,1.44-.509l.271-.026c2.55-.228,4.682-.41,6.419-.492a37.617,37.617,0,0,1,4.86.006,11.148,11.148,0,0,1,7.587,3.339,12.2,12.2,0,0,1,2.846,8.492,9.068,9.068,0,0,1-3.061,7.378,10.708,10.708,0,0,1-6.029,2.656,13.853,13.853,0,0,1-2.789.046c-1.32-.1-1.98-.151-3.3-.258-.42-.041-1.091-.118-1.979-.171-.5-.029-1.333-.065-2.4-.165-.3-.028-1.528-.049-3.718-.055l-.539,0-.15-.106-.06-.218c0-.27.45-.427,1.319-.472l1.38-.1C650.834,425.724,650.9,423.865,651.033,419.744Zm2.459-.143c-.036,2.684-.054,3.838-.091,6.337a9.153,9.153,0,0,0,.149,1.9,1.758,1.758,0,0,0,.391.8,4.524,4.524,0,0,0,1.768.832,16.5,16.5,0,0,0,2.909.537c3.179.328,5.717-.167,7.588-1.413,1.946-1.3,2.94-2.819,2.941-6.223,0-6.58-3.535-11.049-9.564-11.67a15.336,15.336,0,0,0-3.3-.032,9.577,9.577,0,0,0-2.55.584C653.637,414.607,653.589,416.281,653.492,419.6Z" fill="#231f20"/><path d="M685.84,427.807a4.573,4.573,0,0,1-1.89,3.816,7.012,7.012,0,0,1-4.77,1.3c-3.479-.173-5.668-2.219-5.667-5.452a6.114,6.114,0,0,1,1.681-4.263,5.335,5.335,0,0,1,4.738-1.856A6.279,6.279,0,0,1,685.84,427.807Zm-10.168-1.153a5.212,5.212,0,0,0,1.319,3.575,4.378,4.378,0,0,0,3.149,1.533,3.309,3.309,0,0,0,2.61-.867,2.981,2.981,0,0,0,.9-2.219c0-3.048-1.829-5.517-4.559-5.744C676.814,422.742,675.673,424.14,675.672,426.654Z" fill="#231f20"/><path d="M688.2,418.026c0-1.338-.06-2.879-.18-4.681l-.03-.405c-.03-.3.18-.472.6-.567l.629-.124c.21-.029.78-.23,1.769-.535.36-.123.54-.185.9-.31a.581.581,0,0,1,.24.158l.09.417-.06.073a6.451,6.451,0,0,0-.989.974c-.454.542-.711,3.177-.69,6.338.008,1.342.035,2.7.03,4.01-.016,3.95-.06,4.739-.06,4.665v1.394a8.264,8.264,0,0,0,.149,2.092.667.667,0,0,0,.63.414,4.133,4.133,0,0,0,.84-.088l.48-.1c.24.1.33.194.33.377,0,.114-.3.264-.9.405l-1.05.241a10.54,10.54,0,0,0-1.74.646c-.21.106-.449.188-.69.293a.936.936,0,0,1-.27.1.513.513,0,0,1-.51-.4l.031-.112a17.154,17.154,0,0,0,.479-4.507C688.213,425.277,688.207,423.085,688.2,418.026Z" fill="#231f20"/><path d="M694.973,418.315c0-1.348-.059-2.9-.18-4.726l-.03-.411c-.03-.3.18-.481.6-.583l.631-.134c.21-.033.779-.244,1.769-.566l.9-.326a.567.567,0,0,1,.239.157l.09.422-.059.075a6.451,6.451,0,0,0-.99,1c-.454.555-.709,3.225-.689,6.4.009,1.346.035,2.708.03,4.01-.014,3.94-.059,4.723-.059,4.649v1.38a7.95,7.95,0,0,0,.15,2.058.658.658,0,0,0,.63.4,4.371,4.371,0,0,0,.84-.1l.48-.105c.24.1.33.187.33.366,0,.112-.3.263-.9.409l-1.049.248a10.747,10.747,0,0,0-1.741.65c-.21.105-.45.188-.69.292a.982.982,0,0,1-.27.1.5.5,0,0,1-.509-.382l.029-.109a16.448,16.448,0,0,0,.48-4.424C694.992,425.591,694.986,423.406,694.973,418.315Z" fill="#231f20"/><path d="M702.66,433.48a13.081,13.081,0,0,1-1.56-.253c-.344-.085-.45-.171-.45-1v-1.044a.544.544,0,0,1,.811-.379c.047.075.071.112.119.187v.161c0,1.1.96,1.677,2.761,1.688a8.3,8.3,0,0,0,3.03-.537c1.16-.444,1.74-1.022,1.74-1.79,0-.651-.511-.964-1.8-.969-.6,0-.9,0-1.5-.008-2.67-.018-3.96-.784-3.961-2.526a4.313,4.313,0,0,1,1.41-3.093,4.974,4.974,0,0,1,3.689-1.442,9.108,9.108,0,0,1,1.68.206c.886.177,1.351.366,1.351.664a2.748,2.748,0,0,1-.181,1.022c-.148.36-.269.523-.42.557l-.509-.161a7.085,7.085,0,0,0-2.791-.657c-1.529-.007-2.58.872-2.579,1.9,0,.775.631,1.258,1.86,1.442a10.373,10.373,0,0,0,1.68.11,6.69,6.69,0,0,1,3.541.769,2.06,2.06,0,0,1,.93,1.848c0,1.22-.755,2.118-2.219,2.714a11.623,11.623,0,0,1-4.38.706A19.249,19.249,0,0,1,702.66,433.48Z" fill="#231f20"/><path d="M720.784,432.718c-.036.112-.054.169-.09.28-.03.065-.15.11-.33.156-.684.175-1.026.261-1.71.432-.121-.061-.181-.123-.181-.186-.024-.369-.036-.558-.06-.941,0-2.1,0-3.248,0-5.746a4.411,4.411,0,0,0-.241-1.85.924.924,0,0,0-.84-.381l-.42.106-.33.1a.538.538,0,0,1-.27-.219.738.738,0,0,1-.09-.352c0-.162.3-.33.869-.5l.99-.315c.961-.4,1.441-.6,2.4-1.009.33.122.48.283.48.478l-.03.391c0,.454-.029,1.331-.059,2.351-.024.666-.035.992-.059,1.63C720.8,429.569,720.8,430.684,720.784,432.718Zm.173-17.56a1.847,1.847,0,0,1-1.62,1.96,1.454,1.454,0,0,1-1.14-.526,2.166,2.166,0,0,1-.451-1.388,1.918,1.918,0,0,1,1.59-2.052A1.835,1.835,0,0,1,720.957,415.158Z" fill="#231f20"/><path d="M725.232,427.746c0-2.364-.632-3.5-1.862-3.454l-.33.076-.27.041a.522.522,0,0,1-.24-.117c-.024-.138-.036-.207-.061-.346.031-.033.09-.067.121-.1a2.264,2.264,0,0,1,.42-.269l.66-.279c.21-.1.479-.243.78-.414.15-.1.449-.274.869-.581l.241-.171c.21-.008.483.212.87.644a4.191,4.191,0,0,1,.841,1.506,12.815,12.815,0,0,1,2.942-1.578,8.305,8.305,0,0,1,2.43-.658,2.464,2.464,0,0,1,2.372,1.144,6.685,6.685,0,0,1,.75,3.9c-.059,1.717-.089,2.519-.148,4.011a.332.332,0,0,0,.149.357.815.815,0,0,0,.451.092l.51-.135.51-.114a.445.445,0,0,1,.18.082c.036.107.054.16.09.265,0,.156-.269.3-.84.437-.27.055-.69.161-1.2.313-.576.206-.864.307-1.44.508-.324.123-.486.184-.81.305l-.27-.052-.09-.165.06-.15a11.891,11.891,0,0,0,.629-4.132c0-3.113-1.082-4.975-3.213-4.863a4.713,4.713,0,0,0-2.881,1.434c0,.316,0,.473,0,.783.012.385.018.574.03.949-.011,1.448-.017,2.135-.029,3.435-.036,1-.053,1.48-.089,2.394-.684.192-1.026.287-1.71.473l-.18.026a.457.457,0,0,1-.18-.079c-.024-.117-.036-.175-.061-.294C725.233,431.069,725.232,430.024,725.232,427.746Z" fill="#231f20"/><path d="M750.257,431.453c-.212.036-.423.072-.575.081,0,0-.181.033-.515.122-1.242.28-2.665.7-4.331,1.195-.182.053-.273.079-.455.13l-.212-.054-.06-.147c.03-.044.109-.095.151-.159a2.159,2.159,0,0,1,.212-.229,1.39,1.39,0,0,0,.425-.557,13.5,13.5,0,0,0,.241-3.231c0-1.484,0-3,.03-4.508.023-2.979.035-4.621.059-8.227v-1.048a5.067,5.067,0,0,0-.121-.882c-.092-.454-.182-.75-.394-.737a3.743,3.743,0,0,0-1.544.6,4.5,4.5,0,0,1-1.119.536l-.182-.1-.06-.323c0-.329.362-.644,1.059-1.015l.272-.163a18.725,18.725,0,0,1,4.116-1.948,13.728,13.728,0,0,1,3.724-.772,7.945,7.945,0,0,1,5.361,1.39,6.207,6.207,0,0,1,2.334,5.221,7.437,7.437,0,0,1-2.724,6.087,11,11,0,0,1-6.268,2.313c-.7.057-1.03-.082-1.03-.445a.627.627,0,0,1,.09-.4l.394-.089.727-.059c3.634-.3,5.845-2.49,5.843-6.442a7.216,7.216,0,0,0-1.213-4.356,4.143,4.143,0,0,0-3.786-1.715c-1.453.09-2.634.79-2.845,1.561-.037.653-.055.974-.091,1.606-.03.7-.06,1.993-.09,3.746-.035,4.83-.053,6.914-.088,10.618a4.223,4.223,0,0,0,.212,1.777c.128.2.484.3,1,.267a5.983,5.983,0,0,0,1.15-.213,6.906,6.906,0,0,1,1.091-.237l.121.064c.024.094.036.141.061.235C751.227,431.16,750.894,431.321,750.257,431.453Z" fill="#231f20"/><path d="M759.625,431.621a12.207,12.207,0,0,1-1.56-.178c-.342-.071-.45-.159-.45-1.078v-1.157c.059-.335.239-.529.509-.549a.419.419,0,0,1,.3.054l.12.2v.18c0,1.228.961,1.8,2.76,1.686a7.562,7.562,0,0,0,3.03-.835c1.158-.6,1.738-1.327,1.738-2.215,0-.752-.511-1.066-1.8-.958l-1.5.125c-2.67.222-3.96-.5-3.961-2.42a4.688,4.688,0,0,1,1.409-3.352,5.817,5.817,0,0,1,3.688-1.676,9.668,9.668,0,0,1,1.68.022c.887.075,1.349.2,1.349.474a2.4,2.4,0,0,1-.179.946c-.148.342-.27.5-.419.545l-.51-.1a7.225,7.225,0,0,0-2.79-.328c-1.53.145-2.579,1.053-2.578,2.192,0,.854.63,1.323,1.859,1.407a9.454,9.454,0,0,0,1.681-.04,5.682,5.682,0,0,1,3.54.544,2.257,2.257,0,0,1,.93,2.044,3.748,3.748,0,0,1-2.217,3.363,10.28,10.28,0,0,1-4.379,1.1A17.294,17.294,0,0,1,759.625,431.621Z" fill="#231f20"/><path d="M776.153,428.906a6.041,6.041,0,0,0,2.19-.553,4.578,4.578,0,0,0,1.769-1.452l.36-.491a1.062,1.062,0,0,1,.51-.476.526.526,0,0,1,.27.092l.119.251a3.516,3.516,0,0,1-.6,1.264,17.981,17.981,0,0,1-1.558,2.06,2.831,2.831,0,0,1-1.29.931,10.252,10.252,0,0,1-2.221.3c-3.75.216-6.03-1.542-6.032-5.017a8.165,8.165,0,0,1,1.587-4.8,6.2,6.2,0,0,1,4.438-2.756,3.7,3.7,0,0,1,2.642.605,2.752,2.752,0,0,1,1.081,2.358c0,1.176-2.43,2.687-7.258,4.405A3.491,3.491,0,0,0,776.153,428.906Zm-.693-5.7a2.712,2.712,0,0,0,1.258-2.191,1.408,1.408,0,0,0-.481-1.106c-.149-.1-.269-.182-.359-.232a1.663,1.663,0,0,0-.84-.094,2.984,2.984,0,0,0-2.249,1.622,5.1,5.1,0,0,0-.749,2.671v.341l.03.366A8.271,8.271,0,0,0,775.46,423.207Z" fill="#231f20"/><path d="M788.8,429.161a12.328,12.328,0,0,1-2.189,1.1,3.36,3.36,0,0,1-3.091-1.173,6.51,6.51,0,0,1-.963-4.077c.047-1.945.071-2.92.118-4.9-.048-.494-.073-.743-.121-1.242a.479.479,0,0,0,.12-.1,2.831,2.831,0,0,1,.39-.221l.69-.312c.816-.409,1.224-.613,2.039-1.023.33-.034.481.071.481.312a1.162,1.162,0,0,1-.33.545,2.307,2.307,0,0,0-.45.617,4.7,4.7,0,0,0-.509,1.635,23.244,23.244,0,0,0-.148,3.009c0,3.664.843,4.9,3,4.746a9.135,9.135,0,0,0,3.629-1.361c0-2.618,0-3.9,0-6.482,0-1.145-.24-1.811-.69-2a.132.132,0,0,1-.121-.108.583.583,0,0,1,.361-.577l.179-.079c.06-.036.51-.262,1.38-.742l.84-.446c.24-.025.691.32.691.56l-.03.123a9.979,9.979,0,0,0-.27,1.889c-.035,1.092-.053,1.638-.088,2.734-.011,1.483-.017,2.226-.028,3.728.037,1.228.055,1.845.092,3.095l.029.28c0,.22-.335.523-1.019.972a5.332,5.332,0,0,1-1.26.665l-.12-.118-.031-.434v-1.207c.011-.371.018-.556.029-.925C790.368,428.255,789.846,428.56,788.8,429.161Z" fill="#231f20"/><path d="M804.468,427.053c-1.29,1.376-2.37,2.072-3.24,2.121a4.569,4.569,0,0,1-3.9-1.254,6.092,6.092,0,0,1-1.172-4.111,8.794,8.794,0,0,1,1.857-5.776,7.043,7.043,0,0,1,4.951-2.561l2.4.036c.011-1.17.017-1.75.028-2.9,0-1.379-.061-2.884-.212-4.512-.011-.137-.017-.206-.029-.343q-.045-.3.72-.481l.3-.078a7.954,7.954,0,0,0,.87-.259c.209-.07.51-.177.9-.343.432-.152.648-.228,1.081-.377.27.067.39.115.39.337,0,.084-.2.231-.57.485a2.012,2.012,0,0,0-.78.9,17.62,17.62,0,0,0-.389,4.637c0,1.492-.029,3.19-.059,5.195-.035,2.8-.052,4.231-.087,7.221,0,1.448.151,2.189.481,2.167a4.343,4.343,0,0,0,.96-.231l.66-.246a.982.982,0,0,1,.27.119.423.423,0,0,1,.09.3c0,.239-.269.462-.84.7l-.809.356a15.176,15.176,0,0,0-1.891,1l-.869.525a.478.478,0,0,1-.391-.184.494.494,0,0,1-.21-.33l.03-.239c.09-.852.15-1.354.15-1.554v-.166c-.012-.345-.019-.517-.031-.859Zm-.154-9.278a11.158,11.158,0,0,0-1.86-.184,8.72,8.72,0,0,0-.9.029c-2.521.248-3.421,1.29-3.42,4.375a5.819,5.819,0,0,0,.9,3.449,3.329,3.329,0,0,0,3.092,1.278c1.41-.1,2.67-.814,2.939-1.711a11.64,11.64,0,0,0,.18-1.821c.047-2.1.071-3.127.119-5.148C805.1,417.976,804.761,417.878,804.314,417.775Z" fill="#231f20"/><path d="M823.247,420.306a9.07,9.07,0,0,1-1.889,5.643,6.267,6.267,0,0,1-4.77,2.6c-3.481.178-5.671-2.526-5.673-6.568a8.427,8.427,0,0,1,1.679-5.375,6.487,6.487,0,0,1,4.742-2.445C820.967,413.859,823.247,415.924,823.247,420.306Zm-10.171.241a7.356,7.356,0,0,0,1.321,4.419,3.548,3.548,0,0,0,3.151,1.706,3.239,3.239,0,0,0,2.61-1.638,5.96,5.96,0,0,0,.9-3.242c0-4.115-1.832-6.33-4.562-6.1C814.215,415.887,813.075,417.436,813.076,420.547Z" fill="#231f20"/><path d="M836.177,426.3a3.921,3.921,0,0,1-.57.1,4.87,4.87,0,0,0-.509.172,32.95,32.95,0,0,0-4.289,1.835l-.45.214-.21-.108-.06-.268c.031-.078.109-.166.15-.276a3.311,3.311,0,0,1,.211-.392,2.658,2.658,0,0,0,.42-.929,33.663,33.663,0,0,0,.239-4.867c0-2.034,0-3.855.03-5.51.024-3.258.036-4.753.06-7.509v-.783a2.642,2.642,0,0,0-.12-.635c-.086-.3-.181-.521-.391-.512a4.678,4.678,0,0,0-1.529.423,5.789,5.789,0,0,1-1.111.389l-.18-.069-.06-.229c0-.231.36-.454,1.05-.71l.27-.112a19.891,19.891,0,0,1,4.082-1.257,20.631,20.631,0,0,1,3.691-.443,10.954,10.954,0,0,1,5.311.951,4.034,4.034,0,0,1,2.309,3.884,7.021,7.021,0,0,1-2.7,5.446,10.018,10.018,0,0,1-6.21,2.358c-.689.038-1.019-.137-1.019-.551a.75.75,0,0,1,.09-.449l.389-.086.72-.043a5.769,5.769,0,0,0,5.792-5.982,4.468,4.468,0,0,0-1.2-3.372,4.946,4.946,0,0,0-3.75-1.217c-1.441.04-2.612.477-2.822,1-.036.445-.054.671-.09,1.132-.03.513-.06,1.464-.09,2.96-.036,4.124-.054,6.429-.09,11.659a9.582,9.582,0,0,0,.21,2.654.93.93,0,0,0,.989.478,3.928,3.928,0,0,0,1.139-.271,4.41,4.41,0,0,1,1.08-.3l.119.106.06.37C837.136,425.879,836.806,426.118,836.177,426.3Z" fill="#231f20"/><path d="M847.832,426.292a5.779,5.779,0,0,1-2.79.925,2.563,2.563,0,0,1-2.7-2.757,5.109,5.109,0,0,1,2.161-4.092,15.153,15.153,0,0,1,6.152-2.627v-.373c0-2.371-.837-3.388-2.518-3.312a7.861,7.861,0,0,0-1.711.309c-.384.111-.576.165-.96.287l-.09-.059c-.011-.077-.017-.106-.029-.175a1.844,1.844,0,0,1,1.41-1.8,9.249,9.249,0,0,1,2.522-.35,3.83,3.83,0,0,1,2.849.724c.6.575.869,1.7.807,3.555-.048,1.714-.073,2.594-.122,4.409a6.992,6.992,0,0,0,.358,2.61,2.628,2.628,0,0,0,1.138,1.438l.9.249a.469.469,0,0,1,.54.487c.013.292-.429.617-1.23.906a5.318,5.318,0,0,1-1.531.377c-1.41.027-2.249-.955-2.577-3.135A10.128,10.128,0,0,1,847.832,426.292Zm-.685-6.3a3.794,3.794,0,0,0-2.192,3.242,2.052,2.052,0,0,0,.509,1.421,1.6,1.6,0,0,0,1.289.523,3.482,3.482,0,0,0,2.972-1.938,7.736,7.736,0,0,0,.991-3.955v-.312c-.012-.138-.018-.207-.029-.345A12.127,12.127,0,0,0,847.147,420Z" fill="#231f20"/><path d="M862.805,412.853a4.086,4.086,0,0,1,2.221-.967l.12.079.03.266c0,.6,0,.9,0,1.519a.7.7,0,0,1-.691.744l-.84.045a2.913,2.913,0,0,0-2.042.71,2.3,2.3,0,0,0-.451,1,10.088,10.088,0,0,0-.181,1.941c-.074,1.82-.11,2.751-.184,4.674-.031.887-.062,1.863-.122,2.9-.03.115-.342.383-.961.818a3.768,3.768,0,0,1-1.081.634l-.089-.038-.03-.273.03-.388c0-.542.039-1.867.093-3.812.036-1.284.061-2.327.062-3.071,0-.723,0-1.081,0-1.789,0-.875,0-1.306,0-2.159-.089-1.048-.388-1.567-.9-1.552a2.13,2.13,0,0,0-.51.048c-.114.04-.271.14-.481.246l-.6.251-.21-.127-.06-.4c0-.2.271-.348.781-.53.276-.1.414-.146.691-.242.39-.149.659-.238.81-.3,0,0,.45-.205,1.321-.63.432-.2.648-.306,1.079-.506l.3.048.119.159-.029.378c-.013.3-.019.455-.031.763s0,.413,0,.788c.012.24.018.361.03.6A8.251,8.251,0,0,1,862.805,412.853Z" fill="#231f20"/><path d="M871.614,426.061a5.639,5.639,0,0,1-2.792.833,2.665,2.665,0,0,1-2.7-2.868,5.073,5.073,0,0,1,2.163-4.108,14.026,14.026,0,0,1,6.154-2.436V417.1c0-2.456-.837-3.548-2.518-3.558a8.046,8.046,0,0,0-1.711.212c-.384.086-.576.126-.96.235l-.09-.068c-.012-.081-.017-.1-.029-.167,0-.819.48-1.352,1.411-1.641a9.421,9.421,0,0,1,2.521-.221,4.065,4.065,0,0,1,2.85.836c.6.584.869,1.724.807,3.643-.049,1.772-.074,2.672-.123,4.514a7.218,7.218,0,0,0,.358,2.651,2.758,2.758,0,0,0,1.14,1.483l.9.283a.488.488,0,0,1,.54.5c.013.289-.428.593-1.23.85a5.291,5.291,0,0,1-1.531.318c-1.411-.022-2.25-1.017-2.579-3.225A9.574,9.574,0,0,1,871.614,426.061Zm-.685-6.416a3.71,3.71,0,0,0-2.193,3.23,2.164,2.164,0,0,0,.509,1.46,1.653,1.653,0,0,0,1.29.574,3.329,3.329,0,0,0,2.973-1.843,7.71,7.71,0,0,0,.992-3.987v-.321l-.029-.356A11.282,11.282,0,0,0,870.929,419.645Z" fill="#231f20"/><path d="M888.9,425.023c-1.291,1.381-2.372,2.072-3.243,2.044a4.588,4.588,0,0,1-3.9-1.85,8.72,8.72,0,0,1-1.168-4.957c0-2.771.648-5.139,1.866-6.312a6.34,6.34,0,0,1,4.95-1.627c.961.146,1.441.221,2.4.375.012-1.046.018-1.562.03-2.58a37.677,37.677,0,0,0-.208-3.977l-.029-.3q-.045-.261.72-.341l.3-.036a8.067,8.067,0,0,0,.87-.136c.209-.039.51-.1.9-.208l1.08-.223c.27.088.39.144.39.344,0,.075-.2.186-.57.372a1.6,1.6,0,0,0-.781.713,13.517,13.517,0,0,0-.391,4.083c0,1.335-.031,2.533-.062,4.759-.038,3.111-.057,4.7-.1,7.965,0,1.586.15,2.407.48,2.424a3.9,3.9,0,0,0,.96-.134l.661-.183a1.128,1.128,0,0,1,.269.16.522.522,0,0,1,.09.333c0,.255-.27.459-.84.651l-.81.291a11.935,11.935,0,0,0-1.892.883c-.348.195-.522.293-.87.491a.511.511,0,0,1-.39-.24.618.618,0,0,1-.21-.384l.03-.261c.091-.933.151-1.483.152-1.7v-.185c-.012-.384-.018-.575-.03-.956C889.292,424.6,889.159,424.739,888.9,425.023Zm-.145-10.41a9.245,9.245,0,0,0-1.859-.467c-.3-.043-.6-.085-.9-.1-2.52-.123-3.421.847-3.423,4.389a8.155,8.155,0,0,0,.9,4.1,3.583,3.583,0,0,0,3.09,1.842c1.41.055,2.671-.587,2.941-1.55a13.931,13.931,0,0,0,.182-2c.049-2.336.074-3.479.123-5.732C889.53,414.969,889.2,414.8,888.75,414.613Z" fill="#231f20"/><path d="M899.692,426.657c-.036.184-.054.276-.091.461-.029.107-.149.171-.33.233-.684.233-1.026.352-1.71.593a.491.491,0,0,1-.18-.338c-.024-.643-.035-.963-.059-1.6,0-3.48,0-5.163,0-8.473a7.25,7.25,0,0,0-.239-2.41.9.9,0,0,0-.84-.447l-.42.047-.33.054a.542.542,0,0,1-.36-.52c0-.136.3-.249.87-.337l.99-.16c.96-.231,1.44-.345,2.4-.569.33.139.48.29.48.453l-.03.325c0,.382-.031,1.037-.06,2.323-.025.838-.037,1.259-.062,2.106C899.711,421.629,899.705,423.271,899.692,426.657Zm.186-18.859a1.406,1.406,0,0,1-1.621,1.264,1.886,1.886,0,0,1-1.139-.478,1.331,1.331,0,0,1,1.14-2.3A1.645,1.645,0,0,1,899.878,407.8Z" fill="#231f20"/><path d="M903.817,428a9.744,9.744,0,0,1-1.56-.5c-.341-.154-.45-.32-.45-1.627v-1.619c.059-.45.24-.679.51-.656a.388.388,0,0,1,.3.129l.12.289v.244a2.625,2.625,0,0,0,2.76,2.8,5.674,5.674,0,0,0,3.03-.613,2.709,2.709,0,0,0,1.74-2.5c0-.937-.51-1.429-1.8-1.571-.6-.066-.9-.1-1.5-.161-2.668-.281-3.958-1.5-3.958-3.838a4.081,4.081,0,0,1,1.41-3.426,4.992,4.992,0,0,1,3.69-.768,10.827,10.827,0,0,1,1.679.39c.889.269,1.35.5,1.35.751a1.91,1.91,0,0,1-.18.849c-.148.289-.27.414-.42.42l-.51-.215a8.329,8.329,0,0,0-2.789-.941c-1.53-.2-2.58.437-2.58,1.776,0,1,.629,1.714,1.86,2.091a8.629,8.629,0,0,0,1.679.333,5.9,5.9,0,0,1,3.539,1.47,3.569,3.569,0,0,1,.929,2.647,4.037,4.037,0,0,1-2.219,3.781,7.9,7.9,0,0,1-4.38.79A12.841,12.841,0,0,1,903.817,428Z" fill="#231f20"/><path d="M920.344,427.427a5.289,5.289,0,0,0,2.188-.158,3.6,3.6,0,0,0,1.769-1.155l.36-.428a.76.76,0,0,1,.51-.369.686.686,0,0,1,.269.162l.12.289a2.92,2.92,0,0,1-.6,1.168,17.292,17.292,0,0,1-1.559,1.855,2.317,2.317,0,0,1-1.29.777,9.28,9.28,0,0,1-2.218-.046c-3.748-.381-6.027-3.018-6.027-7.087a7.827,7.827,0,0,1,1.59-5.007,4.277,4.277,0,0,1,4.437-1.46,4.783,4.783,0,0,1,2.638,1.342,3.689,3.689,0,0,1,1.08,2.693c0,1.211-2.428,2-7.256,2.8C916.626,425.407,918.155,427.16,920.344,427.427Zm-.69-6.455a2.137,2.137,0,0,0,1.26-1.978,1.875,1.875,0,0,0-.48-1.265c-.15-.145-.269-.255-.36-.33a2.225,2.225,0,0,0-3.088.669,4.884,4.884,0,0,0-.75,2.736v.384l.03.42A6.745,6.745,0,0,0,919.654,420.972Z" fill="#231f20"/></g><path d="M483.552,911.48a1.01,1.01,0,0,0,.57.485,4.7,4.7,0,0,0,1.608.184h16.784l1-.536.8-7.638.636-.235q.135,1.575.151,2.161t.017,1.223a20.829,20.829,0,0,1-.8,6h-22.01c-.514-.2-.771-.458-.771-.771q0-.4.821-1.141a3.972,3.972,0,0,0,.922-1.006q4.621-5.5,6.264-7.38,3.182-3.69,6.5-7.379,3.181-3.555,6.734-7.313.234-.369-.2-.536-1.239-.2-1.675-.269l-15.545.269-.468.235-.537,6.364a2.3,2.3,0,0,0-.452.1.685.685,0,0,1-.519,0,6.1,6.1,0,0,1-.235-1.127,10.2,10.2,0,0,1-.067-1.161q0-.707.151-2.137t.151-2.035a2.772,2.772,0,0,1-.1-.6v-.405l.8-.4h20.671l.469.134a.479.479,0,0,1,.368.468v.5q-3.551,3.346-7.739,7.9-2.078,2.275-7.136,8.029Q486.03,908.805,483.552,911.48Z" fill="#231f20"/><path d="M527.975,890.039a23.59,23.59,0,0,0-.286,2.379q-.082,1.206-.084,2.78v4.054a27.922,27.922,0,0,1-.6,6.532,12.722,12.722,0,0,1-1.572,3.685,8.569,8.569,0,0,1-2.877,2.245,11.766,11.766,0,0,1-4.482,1.272,9.692,9.692,0,0,1-1.973.2,11.66,11.66,0,0,1-3.094-.418,12.672,12.672,0,0,1-2.693-1.054,6.612,6.612,0,0,1-2.608-2.644q-.5-.836-.97-1.706l-.168-19.3a4.3,4.3,0,0,0-2.328-.468q-1.891-.067-1.892-.8.77-.115,1.792-.176t2.227-.058h1.407q.57,0,.939-.027,1.473-.107,1.574-.107h.737a5.732,5.732,0,0,1,1.089.084.628.628,0,0,1,.519.351.564.564,0,0,1-.4.419,2.925,2.925,0,0,1-.938.118h-.871a4.346,4.346,0,0,0-1.34.167l-.6.234q0,2.477-.1,5.119-.27,7.026-.269,8,0,1.874.1,3.614t.369,3.78a10.473,10.473,0,0,0,1.608,2.208,6.447,6.447,0,0,0,3.25,1.573,16.7,16.7,0,0,0,3.047.267,17.454,17.454,0,0,0,2.061-.1,7.607,7.607,0,0,0,1.726-.437q3.986-1.443,5.158-4.569.671-3.8,1.006-5.61l-.168-11.927a1.853,1.853,0,0,0-1.156-.621,10.849,10.849,0,0,0-1.994-.151h-1.272c-.2-.022-.3-.094-.3-.219a2.157,2.157,0,0,1,.033-.374,27.481,27.481,0,0,1,2.864-.25q1.592-.062,3.468-.062h4.59a.376.376,0,0,1,.3.368.454.454,0,0,1-.134.335,2.113,2.113,0,0,1-.686.168q-.385.035-.956.034h-1.239a8.8,8.8,0,0,0-1.356.084.579.579,0,0,0-.52.653Z" fill="#231f20"/><path d="M556.549,888.2q0,4.1.034,8.273t.083,8.338q.051,4.161.051,8.255a.7.7,0,0,1-.436.117c-.223.011-.391.017-.5.017q-2.814-3.926-6.029-8.088t-6.365-8.254q-3.72-4.832-6.164-8.222h-.269q0,3.458-.05,7.113t-.084,7.381q-.033,3.723-.033,7.515a1.481,1.481,0,0,0,.637.268,5.111,5.111,0,0,0,.9.068q.3,0,.972-.034c.446-.022.77-.034.972-.034a4.666,4.666,0,0,1,.836.068,1.106,1.106,0,0,1,.6.3v.335q-1.809.235-4.322.319t-5.226.083a.568.568,0,0,1-.435-.536.409.409,0,0,1,.267-.369,13.461,13.461,0,0,0,2.094-.133,1.669,1.669,0,0,0,1.156-.6q.166-1.539.235-3.266t.067-3.4q0-2.613-.117-5.243t-.235-5.729q-.118-3.1-.118-4.874a1.172,1.172,0,0,0-.7-.425,5.383,5.383,0,0,0-1.206-.111c-.38,0-.766.008-1.155.023s-.766.03-1.123.045a2.572,2.572,0,0,1-1.072-.165.541.541,0,0,1-.268-.631,15.329,15.329,0,0,1,1.943-.208q.9-.035,2.412-.035h3.216a8.577,8.577,0,0,1,2.513,2.617l1.139,1.744q2.076,2.482,4.756,6.307,2.212,3.253,4.456,6.474,2.714,3.893,4.858,6.476h.5l.268-1.34q0-4.725-.05-7.5t-.218-5.9q-.168-3.115-.57-6.532a1.481,1.481,0,0,0-1.105-.5q-.771-.066-1.541-.066h-.4a5.8,5.8,0,0,1-1.19-.084.419.419,0,0,1-.351-.452v-.269q2.526,0,5.09-.033l5.092-.067a.292.292,0,0,1,.168.259.275.275,0,0,1-.167.227,14.613,14.613,0,0,1-1.808.179A7.906,7.906,0,0,0,556.549,888.2Z" fill="#231f20"/><path d="M558.794,892.091c-.224-.156-.335-.3-.335-.438s.356-.481,1.071-1.041q.537-.4.536-.74a.606.606,0,0,0-.1-.3,13.3,13.3,0,0,0-1.441-.638,1.848,1.848,0,0,1-1.038-.773q0-1.01,1.541-1.411a11.11,11.11,0,0,1,2.362.2,1.448,1.448,0,0,1,1.123.774,2.731,2.731,0,0,1,.234,1.007,2.479,2.479,0,0,1-1.173,1.882A12.447,12.447,0,0,1,558.794,892.091Z" fill="#231f20"/><path d="M572.7,912.82a10.443,10.443,0,0,1-2.948.368,14.129,14.129,0,0,1-5.327-.972.674.674,0,0,0-.7.486.656.656,0,0,1-.67.486,2.03,2.03,0,0,1-.4-.034,3.938,3.938,0,0,1-.3-1.206,14.392,14.392,0,0,1-.068-1.44V909.1c0-.269-.011-.564-.033-.888a5.1,5.1,0,0,0-.134-.888,2.538,2.538,0,0,1,.536-.335l.871.2a8.572,8.572,0,0,0,.737,2.832,4.545,4.545,0,0,0,3.183,2.024,5.588,5.588,0,0,0,1.021.135q.62.033.721.033a13.079,13.079,0,0,0,1.541-.084,12.265,12.265,0,0,0,1.507-.284,10.14,10.14,0,0,0,1.943-1.106,1.859,1.859,0,0,0,.871-1.44,1.34,1.34,0,0,0-.134-.6q-1.038-1-4.59-1.222a13.526,13.526,0,0,1-4.69-.821,7.032,7.032,0,0,1-2.746-1.91,3.774,3.774,0,0,1-.939-2.445,4.24,4.24,0,0,1,1.373-2.982,7.359,7.359,0,0,1,3.753-1.942,12.592,12.592,0,0,1,1.256-.2,12.921,12.921,0,0,1,1.391-.068,12.2,12.2,0,0,1,3.064.377,6.6,6.6,0,0,1,2.4,1.1c.268-.066.452-.307.553-.72s.462-.586,1.088-.519a8.475,8.475,0,0,1,.2,1.843q0,.938-.068,1.708-.234,2.748-.234,2.948a.856.856,0,0,1-.67.2h-.5q-.4-1.566-.771-3.131a4.321,4.321,0,0,0-3.014-2.5,6.288,6.288,0,0,0-1.742-.232,8.732,8.732,0,0,0-1.86.216,14.668,14.668,0,0,0-1.892.552,4.493,4.493,0,0,0-1.743,1.572,3.852,3.852,0,0,0-.535,2,3.814,3.814,0,0,0,.067.8,6.66,6.66,0,0,0,.268.835q.6,1.5,3.853,2.006,2.846.336,5.728.669,2.914.569,2.914,2.306a4.043,4.043,0,0,1-1.222,2.189A6.72,6.72,0,0,1,572.7,912.82Z" fill="#231f20"/><path d="M614.169,889.436l-.939,22.143c-.044.178.04.335.252.474a3.123,3.123,0,0,0,.854.36,4.155,4.155,0,0,0,.67.037h1.575a6.163,6.163,0,0,1,.938.06.612.612,0,0,1,.5.443l-.5.235h-9.547l-.236-.2c-.111-.1-.089-.173.068-.232q.367-.067,1.926-.186t1.959-.655q.336-3.265.453-6.967t.117-8.177v-5.184c.179-.021.268-.078.268-.168,0-.045-.073-.129-.217-.252s-.218-.23-.218-.32a54.721,54.721,0,0,0-3.015,5.226q-.67,1.307-2.613,5.427-1.508,3.216-2.68,5.394l-1.608,3.014q-.973,1.809-1.742,2.982a22.247,22.247,0,0,1-2.446-3.685q-1.072-1.943-2.11-3.886-1.073-1.775-2.78-5.025-2.112-4.02-2.714-5.092a54.5,54.5,0,0,0-3.082-4.925l-.5.771v19.329q.335.8,2.58.871a12.536,12.536,0,0,1,2.813.269l-.435.4H581.372v-.6l2.211-.134q1.208-.168,1.508-.8,0-2.513.1-4.958t.235-5.275q.133-2.832.134-4.406,0-2.379-.1-4.07a36.338,36.338,0,0,0-.469-3.869,3.062,3.062,0,0,0-1.105-.335,9.495,9.495,0,0,0-1.34-.1H580.2v-.77a1.915,1.915,0,0,0,.368.033H581q.435,0,1.926-.1t2.228-.1a6.584,6.584,0,0,1,1.708.184,1.846,1.846,0,0,1,1.038.686q1.876,3.813,3.853,7.627,1.575,3.045,4.02,7.594,2.044,3.814,4.155,7.56a2.857,2.857,0,0,0,.435.235.318.318,0,0,0,.335-.068q1.171-2.01,2.612-4.824.537-1.071,2.413-4.891,1.608-3.317,2.445-4.89,2.043-4.088,4.087-8.208H620.6a.286.286,0,0,1,.2.3,1.9,1.9,0,0,0-.033.3q-.6.1-3.686.134T614.169,889.436Z" fill="#231f20"/><path d="M638.59,912.92l-5.762.268a2.844,2.844,0,0,1-.4-1.19,2.577,2.577,0,0,0-.4-1.155,16.765,16.765,0,0,1-3.047,1.507,11.429,11.429,0,0,1-3.954.737,6.9,6.9,0,0,1-4.992-1.742,5.919,5.919,0,0,1-1.591-2.5,10.781,10.781,0,0,1-.418-3.166q0-.771.1-2.279t.1-2.277q0-.671-.034-1.206a6.014,6.014,0,0,0-.167-1.072,1.738,1.738,0,0,0-.837-.487,4.523,4.523,0,0,0-1.206-.15c-.291,0-.811.016-1.558.051s-1.146.049-1.19.049h-.8v-.669q2.277-.236,3.384-.335,2.142-.2,3.45-.2c.513.157.77.335.77.537q0,1.071-.066,2.378-.168,3.249-.168,4.087a20.012,20.012,0,0,0,.252,3.35,10.5,10.5,0,0,0,.988,2.948,3.329,3.329,0,0,0,1.088.9,6.651,6.651,0,0,0,1.726.636c.268.023.5.039.7.05s.356.017.468.017a9.561,9.561,0,0,0,2.228-.251,14.708,14.708,0,0,0,2.127-.687,6.713,6.713,0,0,0,2.58-2.747,7.356,7.356,0,0,0,.636-3.183,17.453,17.453,0,0,0-.2-2.529q-.2-1.356-.37-2.663a3.489,3.489,0,0,0-1.021-.419,5.268,5.268,0,0,0-1.155-.117q-.436,0-1.408.1t-1.507.1c-.4,0-.7-.009-.888-.025a5.61,5.61,0,0,1-.855-.176q-.2-.256.135-.477.134-.072.67-.294.837,0,2.579-.1t2.579-.1c.738,0,1.262.017,1.576.051a8.907,8.907,0,0,1,1.239.251v13.065a3.914,3.914,0,0,0,1.155.268q.687.067,1.424.067.771,0,1.592.017a7.517,7.517,0,0,1,1.424.15c.088.134.066.235-.068.3A6.612,6.612,0,0,0,638.59,912.92Z" fill="#231f20"/><path d="M645.859,912.82a10.443,10.443,0,0,1-2.948.368,14.129,14.129,0,0,1-5.327-.972.675.675,0,0,0-.7.486.656.656,0,0,1-.67.486,2.03,2.03,0,0,1-.4-.034,3.938,3.938,0,0,1-.3-1.206,14.392,14.392,0,0,1-.068-1.44V909.1c0-.269-.011-.564-.033-.888a5.1,5.1,0,0,0-.134-.888,2.538,2.538,0,0,1,.536-.335l.871.2a8.6,8.6,0,0,0,.737,2.832,4.545,4.545,0,0,0,3.183,2.024,5.588,5.588,0,0,0,1.021.135q.62.033.721.033a13.079,13.079,0,0,0,1.541-.084,12.2,12.2,0,0,0,1.507-.284,10.14,10.14,0,0,0,1.943-1.106,1.859,1.859,0,0,0,.871-1.44,1.34,1.34,0,0,0-.134-.6q-1.038-1-4.59-1.222a13.526,13.526,0,0,1-4.69-.821,7.032,7.032,0,0,1-2.746-1.91,3.774,3.774,0,0,1-.939-2.445,4.238,4.238,0,0,1,1.374-2.982,7.359,7.359,0,0,1,3.752-1.942,12.592,12.592,0,0,1,1.256-.2,12.921,12.921,0,0,1,1.391-.068,12.2,12.2,0,0,1,3.064.377,6.6,6.6,0,0,1,2.4,1.1c.268-.066.452-.307.553-.72s.463-.586,1.088-.519a8.475,8.475,0,0,1,.2,1.843q0,.938-.068,1.708-.234,2.748-.234,2.948a.856.856,0,0,1-.67.2h-.5q-.4-1.566-.77-3.131a4.325,4.325,0,0,0-3.015-2.5,6.288,6.288,0,0,0-1.742-.232,8.739,8.739,0,0,0-1.86.216,14.668,14.668,0,0,0-1.892.552,4.482,4.482,0,0,0-1.742,1.572,4.212,4.212,0,0,0-.469,2.807,6.66,6.66,0,0,0,.268.835q.6,1.5,3.853,2.006,2.846.336,5.728.669,2.914.569,2.914,2.306a4.043,4.043,0,0,1-1.222,2.189A6.72,6.72,0,0,1,645.859,912.82Z" fill="#231f20"/><path d="M648.708,913.422a.748.748,0,0,1-.27-.5q0-.435,1.977-.62t2.278-.754V900.022a2.186,2.186,0,0,0-.887-.453,5.233,5.233,0,0,0-1.19-.117q-.6,0-1.608.084c-.67.056-1.038.084-1.106.084a3.29,3.29,0,0,1-.887-.1,1.121,1.121,0,0,1-.586-.4,8.507,8.507,0,0,1,2.714-.569q2.845-.268,3.082-.3a12.246,12.246,0,0,1,1.59.084,1.538,1.538,0,0,1,.888.352l-.2,13.365a1.51,1.51,0,0,0,.821.369,6.551,6.551,0,0,0,1.189.1h1.306a4.075,4.075,0,0,1,1.089.113.463.463,0,0,1,.386.468v.323Zm5.627-17.387a2.127,2.127,0,0,1-1.173-.3.872.872,0,0,1-.469-.737.927.927,0,0,1,.167-.469,1.307,1.307,0,0,1,1.106-.4,2.23,2.23,0,0,1,.938.185.641.641,0,0,1,.436.485.877.877,0,0,1-.084.77A1.351,1.351,0,0,1,654.335,896.035Z" fill="#231f20"/><path d="M669.945,912.618a14.5,14.5,0,0,1-4.22.57,16.111,16.111,0,0,1-2.413-.168,8.869,8.869,0,0,1-2.077-.57,9.143,9.143,0,0,1-3.45-3.1,7.239,7.239,0,0,1-1.105-3.87,7.686,7.686,0,0,1,.434-2.529,9.58,9.58,0,0,1,1.24-2.395,10.781,10.781,0,0,1,7.973-3.451,11.516,11.516,0,0,1,4.523.838,7.2,7.2,0,0,1,2.814,2.043,1.126,1.126,0,0,1,.368.8,1.677,1.677,0,0,1-.168.7,7.836,7.836,0,0,1-.368.7.822.822,0,0,1-.368.269q-.2.068-1.374.267a1.683,1.683,0,0,1-1-.267q-.4-.4-.586-.62a.635.635,0,0,1-.184-.385c0-.2.345-.514,1.039-.939.356-.222.535-.413.535-.569q0-.2-.335-.5a6.852,6.852,0,0,0-4.489-1.306,11.589,11.589,0,0,0-1.474.1,7.794,7.794,0,0,0-4.422,1.977,10.14,10.14,0,0,0-2.043,3.048c-.067.358-.135.771-.2,1.24a8.759,8.759,0,0,0-.1,1.24,6.906,6.906,0,0,0,.5,2.68,6.02,6.02,0,0,0,1.81,2.278q1.106.5,2.4,1.005a6.858,6.858,0,0,0,2.5.5,5.039,5.039,0,0,0,1-.1,9.767,9.767,0,0,0,4.691-1.206,25.326,25.326,0,0,0,3.283-2.311H675q.166,1.34-2.312,2.714Q671.788,911.813,669.945,912.618Z" fill="#231f20"/><path d="M693.73,913.188a15.88,15.88,0,0,1-5.594-.9,14.632,14.632,0,0,1-3.785-2.178,13.308,13.308,0,0,1-3.049-4.388,12.8,12.8,0,0,1-.972-4.958,15.763,15.763,0,0,1,.9-5.209,20.726,20.726,0,0,1,2.614-5.042l1.34-1.34A5.7,5.7,0,0,1,686.9,888a8.339,8.339,0,0,1,2.748-1.139,14.45,14.45,0,0,1,3.516-.435,13.121,13.121,0,0,1,2.362.2,7.219,7.219,0,0,1,1.994.663,4.932,4.932,0,0,1,1.273.93q1.674,1.626,1.775,1.692a1.94,1.94,0,0,0,.369-.971,2.414,2.414,0,0,1,.4-1.073l.736-.1a4.063,4.063,0,0,1,.369,1.775,12.936,12.936,0,0,1-.268,2.145,12.979,12.979,0,0,0-.268,2.177,10.3,10.3,0,0,0,.117,1.324,10.778,10.778,0,0,1,.118,1.088,3.116,3.116,0,0,1-.118.938,2.553,2.553,0,0,1-.519.838l-.6-.234a24.147,24.147,0,0,1-.72-3.561,9.563,9.563,0,0,0-1.457-4.195,7.755,7.755,0,0,0-4.657-2.63,4.967,4.967,0,0,0-.6-.033h-.5a10.868,10.868,0,0,0-3.618.586,7.3,7.3,0,0,0-2.714,1.587,15.03,15.03,0,0,0-3.567,5,14.2,14.2,0,0,0-1.19,5.671,14.886,14.886,0,0,0,.637,4.366,17.268,17.268,0,0,0,1.942,4.166,22.771,22.771,0,0,0,3.15,2.475,9.4,9.4,0,0,0,4.79,1.238,8.73,8.73,0,0,0,5.662-1.784,15.777,15.777,0,0,0,2.847-3.5l.771-2.154a1.25,1.25,0,0,1,.569.118.49.49,0,0,1,.235.487,2.424,2.424,0,0,1-.118.538,2.422,2.422,0,0,0-.117.573,12.82,12.82,0,0,1-2.646,4.137A8.058,8.058,0,0,1,693.73,913.188Z" fill="#231f20"/><path d="M713.562,912.12a15.052,15.052,0,0,1-2.613.784,13.819,13.819,0,0,1-2.814.284,8.942,8.942,0,0,1-1.943-.2,8.613,8.613,0,0,1-5.36-3.236,8.042,8.042,0,0,1-1.272-4.637,6.874,6.874,0,0,1,1.373-4.171,9.709,9.709,0,0,1,4.455-3.169,11.086,11.086,0,0,1,4.087-.667h.9a14.2,14.2,0,0,1,1.541.167,7.478,7.478,0,0,1,2.345.768,18.048,18.048,0,0,1,1.976,1.267,7.614,7.614,0,0,1,2.312,5.338Q718.554,908.984,713.562,912.12ZM708.4,898.112a7.8,7.8,0,0,0-4.489,1.8,9.574,9.574,0,0,0-2.311,3.067q-.135,1.1-.151,1.584c-.012.323-.016.584-.016.784a7.007,7.007,0,0,0,.97,3.868,7.522,7.522,0,0,0,4.222,2.9,10.917,10.917,0,0,0,2.143.2,7.241,7.241,0,0,0,2.848-.5,8.686,8.686,0,0,0,3.819-3.034,6.745,6.745,0,0,0,1.172-3.867,8.7,8.7,0,0,0-1.44-4.735,5.969,5.969,0,0,0-2.345-1.551,9.38,9.38,0,0,0-3.35-.55C709.006,898.079,708.648,898.091,708.4,898.112Z" fill="#231f20"/><path d="M724.383,913.188q-1.173-.1-2.312-.1-1.106,0-2.211.033l-2.211.068a19.626,19.626,0,0,1-2.881-.209.341.341,0,0,1-.167-.312.744.744,0,0,0-.034-.277,2.466,2.466,0,0,1,.7-.139q.435-.034.837-.035h.771a6.054,6.054,0,0,0,1.122-.083,1.583,1.583,0,0,0,.754-.385,13.356,13.356,0,0,0,.9-4.31q.168-2.571.268-3.541l-.167-16a1.109,1.109,0,0,0-.6-.3,5.594,5.594,0,0,0-.971-.068c-.247,0-.636.023-1.172.068s-.916.066-1.14.066q-1.305,0-1.105-.77,2.444-.234,4.924-.469a4.845,4.845,0,0,1,2.111.368q0,3.545-.167,8.076t-.319,9q-.15,4.465-.151,7.743a5.679,5.679,0,0,0,2.245.484q1.742.15,1.943.753Z" fill="#231f20"/><path d="M730.01,913.188q-1.173-.1-2.312-.1-1.106,0-2.211.033l-2.211.068a19.626,19.626,0,0,1-2.881-.209.341.341,0,0,1-.167-.312.744.744,0,0,0-.034-.277,2.466,2.466,0,0,1,.7-.139q.436-.034.838-.035h.771a6.054,6.054,0,0,0,1.122-.083,1.583,1.583,0,0,0,.754-.385,13.356,13.356,0,0,0,.9-4.31q.167-2.571.268-3.541l-.167-16a1.112,1.112,0,0,0-.6-.3,5.594,5.594,0,0,0-.971-.068c-.247,0-.636.023-1.172.068s-.916.066-1.14.066q-1.305,0-1.105-.77,2.444-.234,4.924-.469a4.848,4.848,0,0,1,2.111.368q0,3.545-.167,8.076t-.319,9q-.15,4.465-.151,7.743a5.679,5.679,0,0,0,2.245.484q1.741.15,1.942.753Z" fill="#231f20"/><path d="M740.8,912.518a8.907,8.907,0,0,1-1.876.5,13.632,13.632,0,0,1-2.178.168,11.8,11.8,0,0,1-2.178-.2,9.822,9.822,0,0,1-4.958-2.881,6.187,6.187,0,0,1-1.574-4.187,6.275,6.275,0,0,1,.1-1.106,8.584,8.584,0,0,1,1.541-3.986,10.439,10.439,0,0,1,4.522-3.182,9.287,9.287,0,0,1,3.317-.537,11.974,11.974,0,0,1,2.864.335,6.329,6.329,0,0,1,2.227.972,7.005,7.005,0,0,1,1.927,1.96,4.233,4.233,0,0,1,.753,2.328,4.37,4.37,0,0,1-.1.9l-1.006.57H730.713a4.516,4.516,0,0,0-.8,2.546,4.945,4.945,0,0,0,2.68,4.288,6.7,6.7,0,0,0,2.128.8,12.216,12.216,0,0,0,2.562.268,14.976,14.976,0,0,0,1.742-.1,7.541,7.541,0,0,0,4.121-2.344,16.752,16.752,0,0,0,2.044-3.317.567.567,0,0,1,.752.352,3.789,3.789,0,0,0,.218.519,5.758,5.758,0,0,1-1.876,2.948A15.45,15.45,0,0,1,740.8,912.518Zm1-12.8a6.064,6.064,0,0,0-1.977-1.122,7.6,7.6,0,0,0-2.579-.419h-.871c-.269.067-.458.113-.57.135q-4.555,1.63-4.824,4.722h6.4q2.211,0,3.115-.051t2.714-.217a4.1,4.1,0,0,0-.318-1.641A4.029,4.029,0,0,0,741.8,899.721Z" fill="#231f20"/><path d="M757.948,912.618a14.5,14.5,0,0,1-4.22.57,16.1,16.1,0,0,1-2.413-.168,8.869,8.869,0,0,1-2.077-.57,9.143,9.143,0,0,1-3.45-3.1,7.239,7.239,0,0,1-1.105-3.87,7.686,7.686,0,0,1,.434-2.529,9.58,9.58,0,0,1,1.24-2.395,10.781,10.781,0,0,1,7.973-3.451,11.516,11.516,0,0,1,4.523.838,7.2,7.2,0,0,1,2.814,2.043,1.126,1.126,0,0,1,.368.8,1.693,1.693,0,0,1-.168.7,7.836,7.836,0,0,1-.368.7.822.822,0,0,1-.368.269q-.2.068-1.374.267a1.683,1.683,0,0,1-1-.267q-.4-.4-.586-.62a.638.638,0,0,1-.185-.385q0-.3,1.04-.939c.356-.222.535-.413.535-.569q0-.2-.335-.5a6.852,6.852,0,0,0-4.489-1.306,11.577,11.577,0,0,0-1.474.1,7.794,7.794,0,0,0-4.422,1.977,10.122,10.122,0,0,0-2.043,3.048c-.067.358-.135.771-.2,1.24a8.759,8.759,0,0,0-.1,1.24,6.906,6.906,0,0,0,.5,2.68,6.02,6.02,0,0,0,1.81,2.278q1.106.5,2.395,1.005a6.858,6.858,0,0,0,2.5.5,5.039,5.039,0,0,0,1-.1,9.767,9.767,0,0,0,4.691-1.206,25.326,25.326,0,0,0,3.283-2.311h.335q.167,1.34-2.312,2.714Q759.791,911.813,757.948,912.618Z" fill="#231f20"/><path d="M772.955,913.054a11.329,11.329,0,0,1-1.842.134,12.353,12.353,0,0,1-2.278-.2,8.633,8.633,0,0,1-1.909-.569,4.575,4.575,0,0,1-2.78-3.853q-.135-1.307-.236-2.613,0-1.037.5-5.058a26.555,26.555,0,0,0,.234-3.216q0-1.106-.049-1.558t-.218-1.256a1.662,1.662,0,0,0-.821-.3,9.631,9.631,0,0,0-1.223-.068q-.4,0-.8.018c-.268.01-.536.016-.8.016a3.729,3.729,0,0,1-1.442-.175.744.744,0,0,1-.4-.562,15.729,15.729,0,0,1,2.311-.5q2.679-.468,3.4-1.323a4.756,4.756,0,0,0,.853-2.73,4.5,4.5,0,0,1,1.006-2.814H767.5a3.473,3.473,0,0,1,.1.842,9.81,9.81,0,0,1-.068,1.212q-.234,1.92-.234,2.122a5.457,5.457,0,0,0,.084,1.094,4.128,4.128,0,0,0,.351.926,14.726,14.726,0,0,0,2.68.236q.972,0,1.927-.034l1.926-.066q1.072,0,1.541.05a12.162,12.162,0,0,1,1.34.251q0,.276-.4.507a1.85,1.85,0,0,1-.938.23h-.5q-.57.1-3.937.185t-4.338.887l-.8,14.238a4.549,4.549,0,0,0,1.072,1.641,5.646,5.646,0,0,0,3.518,1.239,6.34,6.34,0,0,0,1.792-.251,7.777,7.777,0,0,0,1.625-.686,4.635,4.635,0,0,0,1.507-1.441q1.742-2.613,1.776-2.647a1.862,1.862,0,0,1,.887.151.5.5,0,0,1,.251.453,1.879,1.879,0,0,1-.117.485,1.883,1.883,0,0,0-.117.486,6.488,6.488,0,0,1-1.876,2.613A9.089,9.089,0,0,1,772.955,913.054Z" fill="#231f20"/><path d="M776.106,913.422a.751.751,0,0,1-.269-.5q0-.435,1.976-.62t2.279-.754V900.022a2.2,2.2,0,0,0-.888-.453,5.223,5.223,0,0,0-1.189-.117q-.6,0-1.609.084t-1.1.084a3.293,3.293,0,0,1-.888-.1,1.125,1.125,0,0,1-.586-.4,8.513,8.513,0,0,1,2.714-.569q2.845-.268,3.082-.3a12.252,12.252,0,0,1,1.591.084,1.541,1.541,0,0,1,.888.352l-.2,13.365a1.514,1.514,0,0,0,.822.369,6.54,6.54,0,0,0,1.188.1h1.307a4.075,4.075,0,0,1,1.089.113.463.463,0,0,1,.385.468v.323Zm5.627-17.387a2.124,2.124,0,0,1-1.172-.3.87.87,0,0,1-.469-.737.918.918,0,0,1,.167-.469,1.3,1.3,0,0,1,1.105-.4,2.235,2.235,0,0,1,.939.185.64.64,0,0,1,.435.485.873.873,0,0,1-.084.77A1.348,1.348,0,0,1,781.733,896.035Z" fill="#231f20"/><path d="M797.612,912.12A15.052,15.052,0,0,1,795,912.9a13.819,13.819,0,0,1-2.814.284,8.942,8.942,0,0,1-1.943-.2,8.613,8.613,0,0,1-5.36-3.236,8.043,8.043,0,0,1-1.273-4.637,6.874,6.874,0,0,1,1.373-4.171,9.712,9.712,0,0,1,4.456-3.169,11.085,11.085,0,0,1,4.086-.667h.906a14.228,14.228,0,0,1,1.541.167,7.464,7.464,0,0,1,2.344.768,17.936,17.936,0,0,1,1.977,1.267,7.614,7.614,0,0,1,2.312,5.338Q802.6,908.984,797.612,912.12Zm-5.159-14.008a7.8,7.8,0,0,0-4.489,1.8,9.576,9.576,0,0,0-2.312,3.067c-.09.734-.139,1.262-.15,1.584s-.017.584-.017.784a7.007,7.007,0,0,0,.971,3.868,7.519,7.519,0,0,0,4.222,2.9,10.917,10.917,0,0,0,2.143.2,7.241,7.241,0,0,0,2.848-.5,8.686,8.686,0,0,0,3.819-3.034,6.745,6.745,0,0,0,1.172-3.867,8.7,8.7,0,0,0-1.44-4.735,5.969,5.969,0,0,0-2.345-1.551,9.382,9.382,0,0,0-3.351-.55C793.056,898.079,792.7,898.091,792.453,898.112Z" fill="#231f20"/><path d="M819.654,913.087a3.878,3.878,0,0,0-.536-.033h-.469q-.5,0-1.758.066t-1.29.068a8.441,8.441,0,0,1-1.056-.061,3.041,3.041,0,0,1-.888-.241q.2-.469,1.793-.6t1.86-.706a15.614,15.614,0,0,0,.485-2.7q.152-1.529.15-3.105v-4.063q-.506-.906-1.009-1.848a3.607,3.607,0,0,0-2.425-1.342,5.266,5.266,0,0,0-1.044-.1q-.54,0-1.667.117t-1.5.117a7.858,7.858,0,0,0-4.513,4.121,14.242,14.242,0,0,0-.808,5.427v2.479a1.386,1.386,0,0,0,.625.2,6.34,6.34,0,0,0,.929.067h1.115q1.317,0,1.318.452a.793.793,0,0,1-.134.385l-9.182.2q-.433-.066-.433-.636a6.523,6.523,0,0,1,1.927-.335q1.557-.133,1.892-.67,0-1.373.436-7.069.2-2.613.2-4.321a3.04,3.04,0,0,0-1.056-.419,7.186,7.186,0,0,0-1.39-.117c-.357,0-.905.023-1.641.067s-1.285.067-1.642.067c-.268-.022-.468-.033-.6-.033h-.368c-.134,0-.2-.056-.2-.168a2.17,2.17,0,0,1,.034-.368,29.194,29.194,0,0,1,3.819-.5q2.244-.168,4.221-.167a.955.955,0,0,1,.643.351,1.19,1.19,0,0,1,.161.653v.6a.837.837,0,0,0,.436.8,8.078,8.078,0,0,1,2.864-1.876,10.168,10.168,0,0,1,3.9-.738,13.106,13.106,0,0,1,2.8.269,2.246,2.246,0,0,1,1.592.937,4.051,4.051,0,0,1,2.144,2.413,11.45,11.45,0,0,1,.268,2.981q0,1.14-.117,3.065t-.117,2.462a15.188,15.188,0,0,0,.234,2.747,1.313,1.313,0,0,0,.536.185,6.8,6.8,0,0,0,.938.05h1.541c.781,0,1.173.138,1.173.416a1.046,1.046,0,0,1-.2.521,6.1,6.1,0,0,1-.738.035,6.605,6.605,0,0,1-1.172-.151,6.673,6.673,0,0,0-1.105-.151A2.446,2.446,0,0,0,819.654,913.087Z" fill="#231f20"/><path d="M844.109,899.922a63.6,63.6,0,0,1-3.283,6.565q-1.842,3.285-3.685,6.533a1.3,1.3,0,0,0-.418.088,1.389,1.389,0,0,1-.319.088.6.6,0,0,1-.3-.1,5.5,5.5,0,0,1-1.139-1.911q-.168-.435-.6-2.112a54.968,54.968,0,0,0-2.26-5.33,49.486,49.486,0,0,0-2.965-5.228,1.269,1.269,0,0,0-.838-.487,6.532,6.532,0,0,0-1.474-.15h-1.608q-1.206,0-1.206-.389a1.025,1.025,0,0,1,.3-.549l10.049.167a2.51,2.51,0,0,1,.352.352q.117.152-.15.218-.2.369-1.223.369a6.276,6.276,0,0,0-1.391.1v1.608q2.413,5.231,4.824,10.461l.771-.4q1.709-3.016,2.78-5.2a35.732,35.732,0,0,0,2.211-5.33,2.214,2.214,0,0,0-1.34-.6,13.768,13.768,0,0,0-2.311-.167v-.738h4.522q1.876,0,3.049.044t2.479.158v.636a16.96,16.96,0,0,1-2.663.2Q844.108,898.883,844.109,899.922Z" fill="#231f20"/><path d="M859.251,912.12a15.052,15.052,0,0,1-2.613.784,13.828,13.828,0,0,1-2.815.284,8.932,8.932,0,0,1-1.942-.2,8.613,8.613,0,0,1-5.36-3.236,8.043,8.043,0,0,1-1.273-4.637,6.874,6.874,0,0,1,1.373-4.171,9.709,9.709,0,0,1,4.455-3.169,11.09,11.09,0,0,1,4.087-.667h.9a14.2,14.2,0,0,1,1.541.167,7.461,7.461,0,0,1,2.345.768,18.033,18.033,0,0,1,1.977,1.267,7.612,7.612,0,0,1,2.311,5.338Q864.242,908.984,859.251,912.12Zm-5.159-14.008a7.8,7.8,0,0,0-4.489,1.8,9.561,9.561,0,0,0-2.312,3.067q-.135,1.1-.15,1.584c-.012.323-.017.584-.017.784a7,7,0,0,0,.971,3.868,7.52,7.52,0,0,0,4.221,2.9,10.92,10.92,0,0,0,2.144.2,7.248,7.248,0,0,0,2.848-.5,8.691,8.691,0,0,0,3.819-3.034,6.752,6.752,0,0,0,1.172-3.867,8.7,8.7,0,0,0-1.441-4.735,5.958,5.958,0,0,0-2.344-1.551,9.382,9.382,0,0,0-3.351-.55C854.694,898.079,854.337,898.091,854.092,898.112Z" fill="#231f20"/><path d="M869.4,913.188q-1.173-.1-2.311-.1-1.106,0-2.211.033l-2.211.068a19.65,19.65,0,0,1-2.882-.209.343.343,0,0,1-.167-.312.773.773,0,0,0-.033-.277,2.466,2.466,0,0,1,.7-.139q.435-.034.838-.035h.77a6.073,6.073,0,0,0,1.123-.083,1.575,1.575,0,0,0,.753-.385,13.354,13.354,0,0,0,.9-4.31q.166-2.571.267-3.541l-.167-16a1.106,1.106,0,0,0-.6-.3,5.606,5.606,0,0,0-.972-.068q-.369,0-1.172.068c-.536.045-.916.066-1.139.066q-1.307,0-1.106-.77,2.445-.234,4.925-.469a4.841,4.841,0,0,1,2.11.368q0,3.545-.167,8.076t-.318,9q-.151,4.465-.151,7.743a5.679,5.679,0,0,0,2.245.484q1.742.15,1.942.753Z" fill="#231f20"/><path d="M870.707,913.054a3.023,3.023,0,0,1-2.646-1,1.239,1.239,0,0,1,.62-1.056,2.915,2.915,0,0,1,1.239-.5,7.787,7.787,0,0,1,.888-.084,2.37,2.37,0,0,1,1.674.6,1.654,1.654,0,0,1-1.775,2.044Z" fill="#231f20"/><path d="M883.2,888.131q-.57,6.71-.9,12.5t-.335,11.221l.569.369,5.159.2v.771H875.028a.206.206,0,0,1-.167-.084.537.537,0,0,1-.1-.218,15.651,15.651,0,0,1,2.847-.368q2.445-.2,2.881-1.173,0-2.88.167-5.8t.369-6.148q.2-3.233.2-5.477,0-2.279-.05-3.2t-.218-2.664a5.494,5.494,0,0,0-2.813-.686q-1.944-.084-3.585-.185a.367.367,0,0,1,.15-.561,2.189,2.189,0,0,1,1.089-.209l12.663.168a.713.713,0,0,1,.2.4.5.5,0,0,1-.2.337h-2.345a7.717,7.717,0,0,0-2.11.186A1.46,1.46,0,0,0,883.2,888.131Z" fill="#231f20"/></g><g id="Back_Outline" data-name="Back Outline"><g id="蓬"><path d="M737.726,269.035a2.76,2.76,0,0,1-2.885-2.885,3.045,3.045,0,0,1,1.921-2.855,64.985,64.985,0,0,0,8.07-16.235c.013-.037.026-.074.042-.11,2.54-6.115,3.828-13.646,3.828-22.384V178.5h-7.437c-3.432,0-4.655-2.1-4.655-4.065s1.223-4.064,4.655-4.064h11.8c3.468,0,5.539,1.96,5.539,5.244v48.367a73.581,73.581,0,0,1-2.334,17.932c7.4,10.845,15.545,16.343,24.222,16.343l14.437.1a14.018,14.018,0,0,1-.915-3.162c-1.213-5.459-1.808-18.817-1.808-40.8,0-3.229.032-6.267.1-9.059H769.577c-3.431,0-4.654-2.1-4.654-4.065,0-1.347.7-3.664,5.372-4.058.056,0,.111-.006.167-.006h21.895c.011-1.624.036-3.145.074-4.553h-16.66c-3.432,0-4.655-2.1-4.655-4.065,0-1.346.7-3.664,5.372-4.057.056,0,.112-.007.167-.007h16.071q.056-1.308.112-2.488H781.374c-2.59,0-3.921-1.24-4.419-2.722q-3.272,2.634-6.31,5.317c-1.006,2.193-2.356,3.3-4.017,3.3-.531,0-3.18-.2-3.18-4.064a2,2,0,0,1,.4-1.2A99.4,99.4,0,0,1,781.607,164.9q1.143-.825,2.214-1.536-1.586-.838-3.166-1.69a48.639,48.639,0,0,1-11.783,4.525,1.992,1.992,0,0,1-.475.057,2.873,2.873,0,0,1-3.179-2.884c0-.823.344-2.33,2.618-3.286a109.831,109.831,0,0,0,23.295-17.571h-25.9v.018c-.107,2.133-.392,7.8-4.356,7.8-4.173,0-4.75-5.8-4.94-7.7,0-.038-.006-.076-.007-.115H744.656c-3.649,0-4.949-2.252-4.949-4.359,0-1.466.777-3.979,5.985-4.354q.072-.006.144-.006H756.71c.8-2.252,2.1-3.391,3.872-3.391,1.216,0,3.2.484,4.117,3.391h43.1c.992-2.4,2.491-2.949,3.661-2.949a4.07,4.07,0,0,1,3.911,2.949h10.245c.056,0,.112,0,.167.007,4.849.408,5.372,3.18,5.372,4.353,0,2.107-1.3,4.359-4.949,4.359H816.023a11.767,11.767,0,0,1-1.144,4.521,4.088,4.088,0,0,1,2.853,3.949c0,1.553-1.321,2.8-5.438,5.132-.029.017-.061.033-.091.049-3.281,1.64-6.735,3.544-10.284,5.67a189.856,189.856,0,0,1,26.441,11.883,1.99,1.99,0,0,1,.3.21,4.045,4.045,0,0,1,1.6,3.156,3.324,3.324,0,0,1-3.111,3.463,1.978,1.978,0,0,1-.771-.067q-4.711-1.361-9.247-2.86c0,.069,0,.137,0,.2,0,2.036-1.223,4.212-4.655,4.212H801.033q.075,1.223.173,2.488h14.526q.1,0,.192.009c4.428.425,4.9,2.978,4.9,4.055,0,1.965-1.223,4.065-4.654,4.065H801.583q.078,2.235.157,4.553H820.6c.063,0,.128,0,.191.009,4.428.425,4.905,2.977,4.905,4.055,0,1.965-1.222,4.065-4.654,4.065H801.856c.065,2.959.1,6,.1,9.059,0,24.045-.45,37.508-1.377,41.147a10.019,10.019,0,0,1-.921,2.842l24.79.166c3.761,0,8.181.415,8.873,3.646a1.968,1.968,0,0,1,.044.419c0,3.97-5.991,4.251-8.247,4.357l-44.3.592A28.673,28.673,0,0,1,761.85,260.5a40.849,40.849,0,0,1-9.025-9.338A49.007,49.007,0,0,1,738.967,268.6,2.006,2.006,0,0,1,737.726,269.035Zm69-95.131q-3.417-1.312-6.7-2.7l0,.032c.116.919.214,1.812.3,2.672Zm-13.5,0q.083-1.144.168-2.148a2.01,2.01,0,0,1,.04-.266,8.788,8.788,0,0,1,1-2.757q-.925-.426-1.838-.858-4.445,2.96-8.614,6.029Zm-5.645-17.089c1.526.485,3.022,1,4.476,1.531q3.3-2.088,6.4-3.888h-6.016a12.67,12.67,0,0,1-2.2-.161Q788.948,155.631,787.577,156.815Zm20.416-10.486a13.226,13.226,0,0,1-1.042-3.816H795.782a2.75,2.75,0,0,1,.864,1.982,4.109,4.109,0,0,1-.416,1.834Zm-49.918,22.58a5.811,5.811,0,0,1-5.116-3.1l-10.551-9.828a1.984,1.984,0,0,1-.493-.719,8.567,8.567,0,0,1-.733-3.1c0-.974.4-3.287,4.109-3.754a1.908,1.908,0,0,1,.25-.016,1.949,1.949,0,0,1,.4.04,6.125,6.125,0,0,1,3.751,2.667l9.969,8.379a2,2,0,0,1,.292.3c2.063,2.653,2.486,3.824,2.486,4.766a2.04,2.04,0,0,1-.06.486C761.5,168.531,759.077,168.909,758.075,168.909Z" fill="#fff"/><path d="M760.582,132.4q2.064,0,2.507,3.391h46.155q.736-2.948,2.212-2.949,1.914,0,2.359,2.949h11.8q3.54.3,3.539,2.36,0,2.361-2.949,2.359H814.11v.59q-.3,5.9-2.359,5.9-2.36,0-2.949-5.9v-.59H763.236v1.917q-.3,5.9-2.359,5.9-2.36,0-2.949-5.9v-1.917H744.656q-2.952,0-2.949-2.359,0-2.064,4.129-2.36h12.387q.737-3.39,2.359-3.391m32.294,11.207q1.77,0,1.77.885a2.006,2.006,0,0,1-.59,1.474,19.142,19.142,0,0,1-1.622,2.36h17.99q5.308,0,5.308,2.654,0,.885-4.423,3.392-5.607,2.8-11.65,6.488-1.182.739-2.212,1.474a196.325,196.325,0,0,1,29.935,13.124,2.114,2.114,0,0,1,.885,1.622,1.33,1.33,0,0,1-1.328,1.475,221,221,0,0,1-34.5-12.976,206.334,206.334,0,0,0-23.447,17.842q-1.032,2.51-2.359,2.507c-.788,0-1.18-.686-1.18-2.064a97.019,97.019,0,0,1,17.4-17.4,53.509,53.509,0,0,1,5.013-3.244q-3.687-1.914-7.225-3.834a46.1,46.1,0,0,1-12.24,4.866c-.788,0-1.179-.295-1.179-.884s.491-1.081,1.474-1.475q11.8-6.339,24.184-18.285m-.59,16.958q6.93-4.424,12.829-7.521c0-.391-.442-.589-1.327-.589H792.434a6.028,6.028,0,0,1-2.8-.443,37.548,37.548,0,0,1-6.341,5.6q4.719,1.326,8.995,2.949m-46.745-10.175a4.347,4.347,0,0,1,2.654,2.065l10.175,8.552q2.064,2.655,2.065,3.539-.591,2.361-2.36,2.36a3.979,3.979,0,0,1-3.539-2.36l-10.765-10.027a6.79,6.79,0,0,1-.589-2.359q0-1.473,2.359-1.77m51.316,18.875q.588,0,1.18,2.212.294,2.361.442,4.424h13.567q3.1.3,3.1,1.917,0,2.211-2.655,2.212H798.922q.145,3.1.442,6.488h16.368q3.1.3,3.1,2.064,0,2.067-2.654,2.065H799.512q.144,4.129.3,8.553H820.6q3.1.3,3.1,2.064,0,2.067-2.654,2.065H799.807q.144,5.309.147,11.059,0,35.688-1.327,40.7-.591,2.949-1.475,2.95-.59-.3-1.179-3.245-1.77-7.962-1.77-40.4,0-6.045.148-11.059H769.577q-2.654,0-2.654-2.065,0-1.77,3.539-2.064h23.889q0-4.868.147-8.553H775.771q-2.655,0-2.655-2.065,0-1.768,3.539-2.064h17.991q.144-3.684.294-6.488H781.374q-2.655,0-2.654-2.212,0-1.621,3.539-1.917h12.829q.145-2.212.3-3.982c.391-1.769.885-2.654,1.474-2.654m-43.795,3.1q3.538,0,3.539,3.244v48.367a70.324,70.324,0,0,1-2.507,18.285q11.944,17.989,26.395,17.99l43.944.3q6.488,0,6.93,2.065,0,2.063-6.341,2.359l-44.238.59a26.6,26.6,0,0,1-17.695-6.636,40.693,40.693,0,0,1-10.617-11.944,47.372,47.372,0,0,1-14.746,20.055.782.782,0,0,1-.885-.885c0-.59.391-.984,1.18-1.18a65.9,65.9,0,0,0,8.7-17.253q3.981-9.584,3.981-23.151v-46.3q0-1.77-2.064-1.769h-7.373q-2.655,0-2.655-2.065t2.655-2.064h11.8m7.52-43.962a5.684,5.684,0,0,0-5.171,3.391h-9.575c-.1,0-.192,0-.287.011-7.078.509-7.842,4.61-7.842,6.349,0,3.165,2.149,6.359,6.949,6.359h9.514c1.075,6.409,4.185,7.816,6.707,7.816,3.492,0,5.572-2.627,6.2-7.816h18.955a101.615,101.615,0,0,1-19.062,13.768,5.928,5.928,0,0,0-3.4,3.264,22.51,22.51,0,0,0-2.036-2.99,4.041,4.041,0,0,0-.584-.607l-9.783-8.223a7.956,7.956,0,0,0-4.828-3.253,4.052,4.052,0,0,0-.792-.079,4.182,4.182,0,0,0-.5.031c-4.32.545-5.859,3.322-5.859,5.739a10.469,10.469,0,0,0,.877,3.848,4.006,4.006,0,0,0,.986,1.438l10.362,9.652a9.673,9.673,0,0,0,.973,1.264H741.265c-4.6,0-6.655,3.046-6.655,6.064s2.058,6.065,6.655,6.065H746.7v44.072c0,8.473-1.236,15.746-3.675,21.617-.03.072-.058.146-.084.22a63.566,63.566,0,0,1-7.545,15.353,5.019,5.019,0,0,0-2.557,4.394,4.778,4.778,0,0,0,4.885,4.885,4,4,0,0,0,2.482-.864,50.674,50.674,0,0,0,12.943-15.285,41.212,41.212,0,0,0,7.46,7.181,30.6,30.6,0,0,0,20.173,7.493h.054l44.238-.59.134,0c2.511-.118,10.153-.477,10.153-6.355a3.985,3.985,0,0,0-.088-.837c-1.119-5.228-8.183-5.228-10.842-5.228l-21.992-.147c.033-.154.062-.294.087-.418.623-2.493,1.426-9.723,1.426-41.59,0-2.376-.02-4.737-.059-7.059h17.146c4.6,0,6.654-3.046,6.654-6.065,0-.9-.323-5.432-6.714-6.046-.127-.012-.255-.018-.382-.018H803.673l-.019-.553h12.521c4.6,0,6.654-3.046,6.654-6.065,0-.861-.295-5.034-5.894-5.941a5.715,5.715,0,0,0,1.764-2.414q3.513,1.126,7.13,2.171a4.022,4.022,0,0,0,1.11.157,3.963,3.963,0,0,0,.435-.024,5.289,5.289,0,0,0,4.893-5.451,6.094,6.094,0,0,0-2.319-4.69,3.91,3.91,0,0,0-.61-.42,181.921,181.921,0,0,0-22.793-10.521c2.239-1.267,4.433-2.44,6.552-3.5.062-.031.123-.063.183-.1,3.656-2.071,6.452-3.892,6.452-6.872a5.942,5.942,0,0,0-2.37-4.865,15.508,15.508,0,0,0,.384-1.6H826.2c4.8,0,6.949-3.194,6.949-6.359,0-1.347-.519-5.784-7.2-6.346-.111-.009-.223-.014-.335-.014h-9a5.943,5.943,0,0,0-5.151-2.949,5.546,5.546,0,0,0-4.894,2.949H766.031a6.055,6.055,0,0,0-5.449-3.391Zm7.815,39.851a4,4,0,0,0,.95-.114,51.627,51.627,0,0,0,8.759-2.979,98.654,98.654,0,0,0-15.852,16.3,4,4,0,0,0-.806,2.409c0,4.787,3.256,6.064,5.18,6.064a5.393,5.393,0,0,0,2.529-.617c.307,2.761,2.387,5.336,6.614,5.336h14.616c0,.183-.006.367-.009.553H770.462c-.112,0-.224,0-.335.014-6.685.561-7.2,4.773-7.2,6.05,0,3.019,2.057,6.065,6.654,6.065h20.682c-.037,2.226-.056,4.587-.056,7.059,0,22.066.607,35.553,1.855,41.226q.072.36.148.713l-11.69-.078c-7.808,0-15.224-4.953-22.083-14.728a76.342,76.342,0,0,0,2.167-17.489V175.609a7.291,7.291,0,0,0-1.589-4.776,6.257,6.257,0,0,0,5.1-4.618,5.039,5.039,0,0,0,4.282,2.039Zm21.825,3.65q.627-.435,1.26-.867l0,.021a4.123,4.123,0,0,0-.08.531c-.009.1-.018.209-.026.315ZM776.151,182.55l.346-.286c.09.088.183.174.28.257h-.122c-.112,0-.223.005-.335.014l-.169.015Z" fill="#fff"/></g><g id="莱"><path d="M860.276,421.594c-2.249,0-2.766-2.731-3.144-4.724-1.219-8.013-1.8-27.163-1.8-58.62,0-5.482.029-10.721.087-15.634a29.439,29.439,0,0,0-4.7,7.076c-2.739,5.664-4.712,12.951-5.86,21.649-1.8,12.834-4.785,22.486-8.862,28.7-5.4,8.245-11.583,14.26-18.39,17.89a4.634,4.634,0,0,1-4.37,2.478c-1.435,0-2.884-1.029-2.884-3.327a2,2,0,0,1,.836-1.628c7.238-5.169,13.016-12.583,17.176-22.034,2.47-5.794,4.458-13.424,5.9-22.654a1.423,1.423,0,0,1,.027-.145c2.283-9.828,4.82-17.277,7.543-22.142a29.8,29.8,0,0,1,5.65-8.289H818.4c-2.871,0-4.654-1.67-4.654-4.359,0-1.355.583-4.507,5.982-4.507h9.443a3.892,3.892,0,0,1-.236-1.391,2.006,2.006,0,0,1,.191-.855,25.427,25.427,0,0,0,2.315-10.942c0-1.813-1.718-3.715-3.16-4.991a2,2,0,0,1-.674-1.5,2.436,2.436,0,0,1,2.443-2.59h1.032a2,2,0,0,1,.864.2c5.451,2.614,8.214,6.544,8.214,11.683,0,3.746-1.779,7.2-5.288,10.276-.022.038-.046.074-.068.111h20.711c.17-8.943.334-16.5.5-22.985H829.6c-3.431,0-4.654-1.948-4.654-3.77,0-1.057.41-4.507,5.687-4.507h3.149c-1.97-1.359-2.511-4.667-2.715-6.469H818.545c-2.962,0-4.8-1.727-4.8-4.507,0-3.355,4.4-3.985,5.846-4.192a2.06,2.06,0,0,1,.283-.02h11.287c.342-2.254,1.278-5.9,4.344-5.9,1.85,0,4.087,1.063,4.684,5.9h37.6c.837-4.352,2.929-5.309,4.6-5.309,1.769,0,3.911.96,4.522,5.309H902.3a1.97,1.97,0,0,1,.343.03c4.172.727,5.048,2.675,5.048,4.182,0,2.78-1.84,4.507-4.8,4.507H887.041c-.08,1.568-.278,4.736-1.75,6.469h3.74c4.866,0,5.244,3.45,5.244,4.507,0,1.822-1.222,3.77-4.654,3.77h-1.33a3.333,3.333,0,0,1,1.118,2.718,2.007,2.007,0,0,1-.391,1.189,9.713,9.713,0,0,0-2.116,5.89,29.167,29.167,0,0,0,1.384,8.693,1.978,1.978,0,0,1,.091.6c0,3.09-2.325,3.179-2.59,3.179a3.811,3.811,0,0,1-2.839-1.676c-3.456-2.251-5.207-5.682-5.207-10.2,0-2.668,1.027-6.372,5.814-9.126a4.105,4.105,0,0,1,1.114-1.26H863.876c.4,6.84.735,14.553,1,22.985h36.251c5,0,5.392,3.45,5.392,4.507,0,2.107-1.262,4.359-4.8,4.359H872.1a31.293,31.293,0,0,1,7.171,8.818c3.1,5.206,6,12.871,8.6,22.737a2.062,2.062,0,0,1,.048.244c1.25,9.336,3,16.974,5.193,22.7,3.763,8.939,8.933,16.225,15.343,21.6a2,2,0,0,1,.716,1.532,2.874,2.874,0,0,1-2.885,3.18,4.375,4.375,0,0,1-4.307-2.564c-6.116-3.65-11.645-9.666-16.443-17.894-3.6-5.852-6.243-15.027-8.068-28.009-1.145-9.054-3.39-16.49-6.678-22.127a34.08,34.08,0,0,0-5.652-7.392c.059,5.021.09,10.127.09,15.232,0,34.582-.547,53.781-1.673,58.694C863.254,418.522,862.668,421.594,860.276,421.594Zm19.571-121.527c-1.179-1.225-1.93-3.387-2.241-6.469H861.518a6.929,6.929,0,0,1,1.436,3.265,1.943,1.943,0,0,1,.046.253c.119,1.015.222,2,.306,2.951Zm-23.51,0q.087-1.366.174-2.836a1.961,1.961,0,0,1,.055-.366,6.217,6.217,0,0,1,1.7-3.267h-18c-.124,1.847-.53,5.119-2.449,6.469Z" fill="#fff"/><path d="M835.5,280.98q2.506,0,2.8,5.309v.59h41.289v-.59q.586-4.717,2.8-4.719,2.357,0,2.654,4.719v.59H902.3q3.39.591,3.391,2.212,0,2.51-2.8,2.507H885.05v1.769q-.3,5.9-2.36,5.9-2.508,0-3.1-5.9V291.6H838.305v1.179q-.3,5.9-2.507,5.9t-2.8-5.9V291.6H818.545q-2.8,0-2.8-2.507,0-1.622,4.129-2.212H833v-.59q.588-5.308,2.507-5.309m24.478,14.009q.442,0,1.033,2.36.294,2.508.442,4.718h27.575q3.242,0,3.244,2.507,0,1.77-2.654,1.77h-27.87q.736,11.8,1.18,26.985h38.192q3.391,0,3.392,2.507,0,2.361-2.8,2.359h-36.57q7.665,3.395,12.386,11.8,4.569,7.67,8.406,22.267,1.914,14.3,5.308,23.151,5.9,14.011,15.926,22.414,0,1.179-.885,1.18a2.391,2.391,0,0,1-2.654-1.917q-9.145-5.163-16.368-17.548-5.164-8.4-7.816-27.28-1.769-14.009-6.93-22.857a31.5,31.5,0,0,0-9.438-10.617q.145,9.439.148,19.465,0,51.171-1.622,58.247-.591,3.1-1.328,3.1-.589,0-1.179-3.1-1.77-11.651-1.77-58.247,0-10.763.148-20.055-5.015,3.395-8.553,10.617-4.28,8.849-6.046,22.267-2.655,18.877-8.553,27.87-8.11,12.387-18.285,17.548a2.618,2.618,0,0,1-2.8,1.917q-.885,0-.884-1.327,11.354-8.112,17.842-22.857,3.834-8.993,6.046-23.151,3.391-14.6,7.373-21.677,3.684-7.814,9.733-11.207H818.4q-2.654,0-2.654-2.359,0-2.5,3.982-2.507h37.75q.294-15.777.589-26.985H829.6q-2.654,0-2.654-1.77,0-2.505,3.687-2.507h27.575q.145-2.211.295-4.718c.391-1.572.885-2.36,1.474-2.36m26.543,14.746q.885,0,.885,1.327a11.745,11.745,0,0,0-2.507,7.079,31.03,31.03,0,0,0,1.475,9.29c0,.788-.2,1.179-.59,1.179s-.885-.391-1.475-1.179q-4.571-2.8-4.571-8.7,0-4.866,5.309-7.668c.391-.884.885-1.327,1.474-1.327m-55.445,1.327q7.079,3.394,7.078,9.88,0,4.868-4.866,9c-.394.788-.885,1.179-1.475,1.179s-.884-.391-.884-1.179a27.283,27.283,0,0,0,2.506-11.8q0-3.1-3.834-6.489c0-.391.148-.59.443-.59h1.032M835.5,276.98c-2.974,0-4.973,1.982-5.964,5.9h-9.667a3.983,3.983,0,0,0-.567.04c-6.25.9-7.562,3.85-7.562,6.172,0,3.892,2.734,6.507,6.8,6.507h10.823a16.158,16.158,0,0,0,.685,2.482c-5.229.233-7.1,3.6-7.1,6.494a5.482,5.482,0,0,0,3.094,5.02,4.888,4.888,0,0,0-.44,2.058,4,4,0,0,0,1.349,3c2.306,2.042,2.485,3.19,2.485,3.494a23.455,23.455,0,0,1-2.123,10.089,4.009,4.009,0,0,0-.337,1.1h-7.253c-7.6,0-7.982,5.42-7.982,6.507,0,3.8,2.674,6.359,6.654,6.359h24.8a34.921,34.921,0,0,0-3.141,5.372c-2.84,5.1-5.364,12.493-7.713,22.607-.022.1-.041.191-.056.288-1.417,9.068-3.359,16.537-5.773,22.2-4,9.075-9.548,16.212-16.489,21.17a4,4,0,0,0-1.674,3.255,4.944,4.944,0,0,0,4.884,5.327,6.651,6.651,0,0,0,5.823-2.991c6.9-3.813,13.159-9.957,18.611-18.283,4.3-6.556,7.3-16.208,9.167-29.5,1.124-8.52,3.035-15.6,5.686-21.082q.406-.829.833-1.6c-.019,3.006-.029,6.11-.029,9.3,0,31.558.594,50.807,1.815,58.848.007.048.016.1.025.145.391,2.061,1.2,6.351,5.109,6.351,4,0,4.9-4.5,5.244-6.281.738-3.306,1.706-13.159,1.706-59.063,0-3.255-.013-6.511-.037-9.745q.965,1.361,1.872,2.913c3.151,5.4,5.31,12.584,6.417,21.342l.007.056c1.861,13.231,4.59,22.645,8.344,28.777,4.837,8.284,10.426,14.421,16.629,18.263A6.455,6.455,0,0,0,906.284,423a4.87,4.87,0,0,0,4.885-5.18,4,4,0,0,0-1.431-3.066c-6.15-5.153-11.123-12.164-14.783-20.84-2.13-5.574-3.831-13.04-5.056-22.19a4.015,4.015,0,0,0-.1-.486c-2.67-10.162-5.553-17.769-8.811-23.254a35.946,35.946,0,0,0-4.03-5.793h24.751c4.7,0,6.8-3.194,6.8-6.359,0-3-1.936-6.507-7.392-6.507H890.114a6.525,6.525,0,0,0,.263-1.9,4.025,4.025,0,0,0-.182-1.194,27.16,27.16,0,0,1-1.293-8.1,7.794,7.794,0,0,1,1.724-4.7,4,4,0,0,0,.783-2.378,6.778,6.778,0,0,0-.054-.871,5.618,5.618,0,0,0,4.92-5.617c0-3-1.9-6.507-7.244-6.507h-.64a17.8,17.8,0,0,0,.478-2.469h14.024c4.068,0,6.8-2.615,6.8-6.507,0-1.5-.653-5.1-6.7-6.153a4.059,4.059,0,0,0-.687-.059H888.544c-1.3-4.726-4.6-5.309-6.148-5.309-1.813,0-4.758.762-6.166,5.309H841.861c-1.2-5.053-4.371-5.9-6.358-5.9ZM864.69,295.6h11.173a17.044,17.044,0,0,0,.615,2.469H865.119q-.062-.585-.133-1.184a4.094,4.094,0,0,0-.092-.506c-.058-.231-.124-.5-.2-.779Zm-22.657,0h12.812q-.117.372-.219.783a3.937,3.937,0,0,0-.112.732q-.029.483-.057.954H841.435a15.058,15.058,0,0,0,.6-2.469Zm23.96,14.746h13.263a11.512,11.512,0,0,0-3.515,8.386,13.634,13.634,0,0,0,4.435,10.6H866.809c-.223-6.85-.5-13.207-.816-18.985Zm-28.7,0h16.663c-.136,5.522-.272,11.793-.411,18.985H839.327a14.026,14.026,0,0,0,2.83-8.387,13.615,13.615,0,0,0-4.859-10.6Z" fill="#fff"/></g><g id="人"><path d="M751.484,507.631a4.638,4.638,0,0,1-2.961-1.418c-14.106-8.857-25.591-24.232-34.14-45.7a149.681,149.681,0,0,1-8.28-28.636,81.832,81.832,0,0,1-2.7,9.639c-7.716,26.383-20.208,47.861-37.128,63.838a3.743,3.743,0,0,1-2.82,1.837c-.408,0-2.442-.153-2.442-3.179a2,2,0,0,1,.386-1.182c15.6-21.316,25.861-41.376,30.5-59.622.015-.06.033-.12.054-.179,6.589-18.507,10.818-44.859,12.569-78.325a2.026,2.026,0,0,1,.056-.38c.2-.813.822-3.285,2.973-3.285,2.868,0,3.229,4.207,3.468,6.99,0,.057.007.114.007.171,0,14.887-.491,28.195-1.458,39.559,3.682,18.825,8.383,35.46,13.975,49.45,3.4,7.274,7.38,14.895,11.842,22.654a146.777,146.777,0,0,0,17.879,23.387,2,2,0,0,1,.525,1.352C753.779,507.412,752.022,507.631,751.484,507.631Z" fill="#fff"/><path d="M707.541,363.036q1.03,0,1.475,5.161,0,22.562-1.475,39.667,5.6,28.755,14.156,50.137,5.162,11.06,11.945,22.856A148.017,148.017,0,0,0,751.779,504.6c0,.686-.1,1.032-.295,1.032a3.4,3.4,0,0,1-1.769-1.032q-20.791-12.979-33.474-44.828a157.533,157.533,0,0,1-10.027-40.11A107.987,107.987,0,0,1,701.5,440.9q-11.5,39.372-36.718,63.113-.885,1.177-1.327,1.179c-.3,0-.442-.394-.442-1.179q23.74-32.439,30.819-60.312,10.027-28.164,12.682-78.891.442-1.77,1.032-1.77m0-4c-1.387,0-3.869.624-4.913,4.8a4.088,4.088,0,0,0-.114.762c-1.741,33.272-5.931,59.434-12.455,77.759-.042.117-.078.236-.109.357-4.57,18-14.721,37.824-30.17,58.933a4,4,0,0,0-.772,2.363c0,4.1,2.906,5.179,4.442,5.179a5.593,5.593,0,0,0,4.313-2.5c17.109-16.2,29.739-37.921,37.539-64.563q.3-.84.586-1.728a144.766,144.766,0,0,0,6.65,20.883c8.671,21.779,20.382,37.448,34.8,46.547a6.552,6.552,0,0,0,4.146,1.8c.176,0,4.295-.057,4.295-5.032a4,4,0,0,0-1.051-2.7,144.834,144.834,0,0,1-17.635-23.06c-4.417-7.682-8.361-15.226-11.724-22.424-5.509-13.8-10.15-30.2-13.8-48.765.957-11.359,1.442-24.627,1.442-39.449,0-.114,0-.228-.015-.341-.264-3.083-.756-8.82-5.46-8.82Z" fill="#fff"/></g><g id="形"><path d="M835.051,657.093a4.688,4.688,0,0,1-3.5-1.787c-8.9-8.421-15.993-19.568-21.08-33.132-5.178-14.834-7.8-31.924-7.8-50.839a30.144,30.144,0,0,1,5.34-16.578,1.628,1.628,0,0,1,.1-.137,62.6,62.6,0,0,1,15.233-14.013,2,2,0,0,1,1.089-.322c2.673,0,3.622,1.713,3.622,3.18a5.336,5.336,0,0,1-1.452,3.143,1.985,1.985,0,0,1-.167.188,89.534,89.534,0,0,0-10.673,12.689c-2.224,3.116-3.339,7.884-3.339,14.209a156.467,156.467,0,0,0,6.262,43.681c3.16,9.861,9.432,22,18.626,36.031a2,2,0,0,1,.328,1.1A2.5,2.5,0,0,1,835.051,657.093ZM783,655.913c-2.4,0-2.978-3.073-3.292-4.724-.007-.033-.012-.066-.017-.1-1.1-8.019-1.64-27.933-1.64-60.879q.137-20.555.275-35.16h-14.4l.138,28.662c0,25.395-2.557,41.9-7.817,50.456-4.573,8.355-10.442,14.907-17.4,19.395-1.244,1.243-1.8,1.76-2.737,1.76-.28,0-2.737-.094-2.737-3.327a2,2,0,0,1,.66-1.485A60.67,60.67,0,0,0,748.3,630.518c4.178-9.782,6.356-25.545,6.453-46.805l.138-28.663h-7.575c-3.376,0-5.392-1.9-5.392-5.1,0-1.922,1.166-4.212,6.719-4.212h6.276l.129-13.5a2.118,2.118,0,0,1,.017-.24c.142-1.092.284-2.057.426-2.9h-5.079c-3.191,0-5.1-1.906-5.1-5.1,0-1.573.834-4.212,6.423-4.212h38.193c5.133,0,5.686,2.945,5.686,4.212,0,3.191-1.905,5.1-5.1,5.1h-4.47c.374,4.916.688,10.5.937,16.644h6.187c5.531,0,6.129,2.946,6.129,4.212,0,3.192-2.016,5.1-5.392,5.1h-6.628c.344,10.1.518,21.911.518,35.16,0,36.08-.492,56.022-1.5,60.953C786.084,652.637,785.579,655.913,783,655.913Zm-4.461-110.172c.158-6.766.313-12.25.469-16.644H763.6c.109.715.209,1.5.3,2.36.007.07.011.141.011.211v14.073Zm23.484-.866a3.327,3.327,0,0,1-3.475-3.622,2,2,0,0,1,.259-.984c3.91-6.918,10.728-15.06,20.264-24.2l.091-.082c1.758-1.488,2.9-2.1,3.947-2.1a3.466,3.466,0,0,1,3.77,3.622,7.158,7.158,0,0,1-1.3,3.365,1.855,1.855,0,0,1-.109.168,165.2,165.2,0,0,1-19.4,22.242A5.594,5.594,0,0,1,802.02,544.875Z" fill="#fff"/><path d="M823.106,515.89q1.77,0,1.77,1.622a6.534,6.534,0,0,1-1.032,2.359,162.389,162.389,0,0,1-19.17,21.972,3.6,3.6,0,0,1-2.654,1.032q-1.476,0-1.475-1.622,5.751-10.174,19.907-23.741,1.916-1.621,2.654-1.622m-33.178,5.9q3.684,0,3.686,2.212,0,3.1-3.1,3.1h-6.636q.737,8.847,1.18,20.644h8.11q4.126,0,4.129,2.212,0,3.1-3.392,3.1h-8.7q.588,15.78.59,37.16,0,53.676-1.475,60.606-.442,3.1-1.327,3.1-.739,0-1.327-3.1-1.625-11.8-1.622-60.606.145-21.972.295-37.16H761.91l.148,30.672q0,37.159-7.521,49.4Q747.754,645.508,737.579,652a8.075,8.075,0,0,1-1.475,1.327c-.493,0-.737-.442-.737-1.327a62.374,62.374,0,0,0,14.746-20.644q6.487-15.186,6.636-47.63l.147-30.672h-9.584q-3.394,0-3.392-3.1,0-2.211,4.719-2.212H756.9l.148-15.483a48.849,48.849,0,0,1,.885-5.161h-7.521q-3.1,0-3.1-3.1,0-2.213,4.423-2.212h38.193M781.08,527.1H761.173a34.475,34.475,0,0,1,.737,4.571v16.073h18.58q.3-12.974.59-20.644m43.354,15.188q1.621,0,1.622,1.18a4.045,4.045,0,0,1-1.033,1.917,91.085,91.085,0,0,0-10.912,12.976q-3.687,5.165-3.686,15.336a157.756,157.756,0,0,0,6.341,44.239q4.866,15.189,18.875,36.57a.523.523,0,0,1-.59.59,2.853,2.853,0,0,1-2.065-1.18q-13.126-12.387-20.644-32.441-7.669-21.972-7.668-50.137a28.058,28.058,0,0,1,5.013-15.483,60.326,60.326,0,0,1,14.747-13.567m-1.328-30.395c-1.83,0-3.418,1.027-5.239,2.569q-.094.079-.183.165c-9.813,9.406-16.559,17.473-20.621,24.661a3.991,3.991,0,0,0-.518,1.968,6.007,6.007,0,0,0,.85,3.183,11.46,11.46,0,0,0-4.223-.7H788.9c-.2-4.555-.434-8.785-.7-12.644h2.319a6.719,6.719,0,0,0,7.1-7.1c0-1.037-.37-6.212-7.686-6.212H751.735c-7.816,0-8.423,4.755-8.423,6.212a6.718,6.718,0,0,0,7.1,7.1h2.755c-.028.209-.057.424-.085.643a4.046,4.046,0,0,0-.034.48l-.11,11.521h-4.295c-7.87,0-8.719,4.344-8.719,6.212,0,4.311,2.9,7.1,7.392,7.1h5.565l-.128,26.652c-.1,20.958-2.213,36.443-6.294,46.03a58.672,58.672,0,0,1-13.767,19.294,4,4,0,0,0-1.321,2.97c0,3.66,2.456,5.327,4.737,5.327,1.681,0,2.658-.862,4-2.2,7.139-4.651,13.157-11.377,17.895-20,5.422-8.906,8.059-25.724,8.059-51.4l-.129-26.672h10.376c-.089,9.611-.175,20.733-.257,33.134,0,33.065.543,53.068,1.659,61.178.009.067.02.134.033.2.33,1.737,1.205,6.351,5.257,6.351,2.86,0,4.632-2.153,5.268-6.4.667-3.3,1.534-13.5,1.534-61.3,0-12.377-.152-23.508-.451-33.16h4.561c4.49,0,7.392-2.786,7.392-7.1a6.043,6.043,0,0,0-1.046-3.332,6.042,6.042,0,0,0,1.765.254,7.575,7.575,0,0,0,5.447-2.169,167.157,167.157,0,0,0,19.615-22.487,3.721,3.721,0,0,0,.219-.336,8.752,8.752,0,0,0,1.575-4.371,5.451,5.451,0,0,0-5.77-5.622ZM765.872,531.1h11.063c-.117,3.557-.234,7.743-.352,12.644H765.91V531.668a4,4,0,0,0-.022-.423l-.016-.148Zm58.562,7.188a4,4,0,0,0-2.178.645,64.6,64.6,0,0,0-15.72,14.458c-.069.089-.135.18-.2.275a32.093,32.093,0,0,0-5.666,17.672c0,19.14,2.655,36.452,7.891,51.455.01.029.021.057.031.086,5.184,13.823,12.424,25.2,21.521,33.829a6.6,6.6,0,0,0,4.934,2.388,4.49,4.49,0,0,0,4.59-4.59,4,4,0,0,0-.655-2.193c-9.079-13.854-15.268-25.813-18.394-35.546a154.467,154.467,0,0,1-6.167-43.07c0-5.9.99-10.277,2.942-13.011l.049-.071a87.45,87.45,0,0,1,10.436-12.4,4.093,4.093,0,0,0,.332-.376,7.3,7.3,0,0,0,1.872-4.369c0-2.5-1.76-5.18-5.622-5.18Z" fill="#fff"/></g></g><g id="Back_Text" data-name="Back Text"><path d="M741.265,172.365h11.8q3.538,0,3.539,3.244v48.367a70.324,70.324,0,0,1-2.507,18.285q11.944,17.989,26.395,17.99l43.944.3q6.488,0,6.93,2.065,0,2.063-6.341,2.359l-44.238.59a26.6,26.6,0,0,1-17.695-6.636,40.693,40.693,0,0,1-10.617-11.944,47.372,47.372,0,0,1-14.746,20.055.782.782,0,0,1-.885-.885c0-.59.391-.984,1.18-1.18a65.9,65.9,0,0,0,8.7-17.253q3.981-9.584,3.981-23.151v-46.3q0-1.77-2.064-1.769h-7.373q-2.655,0-2.655-2.065T741.265,172.365Zm4.571-36.571h12.387q.737-3.39,2.359-3.391,2.064,0,2.507,3.391h46.155q.736-2.948,2.212-2.949,1.914,0,2.359,2.949h11.8q3.54.3,3.539,2.36,0,2.361-2.949,2.359H814.11v.59q-.3,5.9-2.359,5.9-2.36,0-2.949-5.9v-.59H763.236v1.917q-.3,5.9-2.359,5.9-2.36,0-2.949-5.9v-1.917H744.656q-2.952,0-2.949-2.359Q741.707,136.09,745.836,135.794Zm-.295,14.6a4.347,4.347,0,0,1,2.654,2.065l10.175,8.552q2.064,2.655,2.065,3.539-.591,2.361-2.36,2.36a3.979,3.979,0,0,1-3.539-2.36l-10.765-10.027a6.79,6.79,0,0,1-.589-2.359Q743.182,150.69,745.541,150.393Zm35.1,9a46.1,46.1,0,0,1-12.24,4.866c-.788,0-1.179-.295-1.179-.884s.491-1.081,1.474-1.475q11.8-6.339,24.184-18.285,1.77,0,1.77.885a2.006,2.006,0,0,1-.59,1.474,19.142,19.142,0,0,1-1.622,2.36h17.99q5.308,0,5.308,2.654,0,.885-4.423,3.392-5.607,2.8-11.65,6.488-1.182.739-2.212,1.474a196.325,196.325,0,0,1,29.935,13.124,2.114,2.114,0,0,1,.885,1.622,1.33,1.33,0,0,1-1.328,1.475,221,221,0,0,1-34.5-12.976,206.334,206.334,0,0,0-23.447,17.842q-1.032,2.51-2.359,2.507c-.788,0-1.18-.686-1.18-2.064a97.019,97.019,0,0,1,17.4-17.4,53.509,53.509,0,0,1,5.013-3.244Q784.175,161.308,780.637,159.388Zm1.622,16.516h12.829q.145-2.212.3-3.982c.391-1.769.885-2.654,1.474-2.654q.588,0,1.18,2.212.294,2.361.442,4.424h13.567q3.1.3,3.1,1.917,0,2.211-2.655,2.212H798.922q.145,3.1.442,6.488h16.368q3.1.3,3.1,2.064,0,2.067-2.654,2.065H799.512q.144,4.129.3,8.553H820.6q3.1.3,3.1,2.064,0,2.067-2.654,2.065H799.807q.144,5.309.147,11.059,0,35.688-1.327,40.7-.591,2.949-1.475,2.95-.59-.3-1.179-3.245-1.77-7.962-1.77-40.4,0-6.045.148-11.059H769.577q-2.654,0-2.654-2.065,0-1.77,3.539-2.064h23.889q0-4.868.147-8.553H775.771q-2.655,0-2.655-2.065,0-1.768,3.539-2.064h17.991q.144-3.684.294-6.488H781.374q-2.655,0-2.654-2.212Q778.72,176.2,782.259,175.9Zm7.373-23.889a37.548,37.548,0,0,1-6.341,5.6q4.719,1.326,8.995,2.949,6.93-4.424,12.829-7.521c0-.391-.442-.589-1.327-.589H792.434A6.028,6.028,0,0,1,789.632,152.015Z" fill="#231f20"/><path d="M861.751,306.344q.736,11.8,1.18,26.985h38.192q3.391,0,3.392,2.507,0,2.361-2.8,2.359h-36.57q7.665,3.395,12.386,11.8,4.569,7.67,8.406,22.267,1.914,14.3,5.308,23.151,5.9,14.011,15.926,22.414,0,1.179-.885,1.18a2.391,2.391,0,0,1-2.654-1.917q-9.145-5.163-16.368-17.548-5.164-8.4-7.816-27.28-1.769-14.009-6.93-22.857a31.5,31.5,0,0,0-9.438-10.617q.145,9.439.148,19.465,0,51.171-1.622,58.247-.591,3.1-1.328,3.1-.589,0-1.179-3.1-1.77-11.651-1.77-58.247,0-10.763.148-20.055-5.015,3.395-8.553,10.617-4.28,8.849-6.046,22.267-2.655,18.877-8.553,27.87-8.11,12.387-18.285,17.548a2.618,2.618,0,0,1-2.8,1.917q-.885,0-.884-1.327,11.354-8.112,17.842-22.857,3.834-8.993,6.046-23.151,3.391-14.6,7.373-21.677,3.684-7.814,9.733-11.207H818.4q-2.654,0-2.654-2.359,0-2.5,3.982-2.507h37.75q.294-15.777.589-26.985H829.6q-2.654,0-2.654-1.77,0-2.505,3.687-2.507h27.575q.145-2.211.295-4.718c.391-1.572.885-2.36,1.474-2.36q.442,0,1.033,2.36.294,2.508.442,4.718h27.575q3.242,0,3.244,2.507,0,1.77-2.654,1.77ZM838.305,291.6v1.179q-.3,5.9-2.507,5.9t-2.8-5.9V291.6H818.545q-2.8,0-2.8-2.507,0-1.622,4.129-2.212H833v-.59q.588-5.308,2.507-5.309,2.506,0,2.8,5.309v.59h41.289v-.59q.586-4.717,2.8-4.719,2.357,0,2.654,4.719v.59H902.3q3.39.591,3.391,2.212,0,2.51-2.8,2.507H885.05v1.769q-.3,5.9-2.36,5.9-2.508,0-3.1-5.9V291.6Zm-8.258,19.464h1.032q7.079,3.394,7.078,9.88,0,4.868-4.866,9c-.394.788-.885,1.179-1.475,1.179s-.884-.391-.884-1.179a27.283,27.283,0,0,0,2.506-11.8q0-3.1-3.834-6.489C829.6,311.261,829.752,311.062,830.047,311.062Zm56.477-1.327q.885,0,.885,1.327a11.745,11.745,0,0,0-2.507,7.079,31.03,31.03,0,0,0,1.475,9.29c0,.788-.2,1.179-.59,1.179s-.885-.391-1.475-1.179q-4.571-2.8-4.571-8.7,0-4.866,5.309-7.668C885.441,310.178,885.935,309.735,886.524,309.735Z" fill="#231f20"/><path d="M706.214,419.661A107.987,107.987,0,0,1,701.5,440.9q-11.5,39.372-36.718,63.113-.884,1.177-1.327,1.179c-.3,0-.442-.394-.442-1.179q23.74-32.439,30.819-60.312,10.027-28.164,12.682-78.891.442-1.77,1.032-1.77,1.03,0,1.475,5.161,0,22.562-1.475,39.667,5.6,28.755,14.156,50.137,5.162,11.06,11.945,22.856A148.017,148.017,0,0,0,751.779,504.6c0,.686-.1,1.032-.295,1.032a3.4,3.4,0,0,1-1.769-1.032q-20.791-12.979-33.474-44.828A157.533,157.533,0,0,1,706.214,419.661Z" fill="#231f20"/><path d="M783.882,527.1q.737,8.847,1.18,20.644h8.11q4.126,0,4.129,2.212,0,3.1-3.392,3.1h-8.7q.588,15.78.59,37.16,0,53.676-1.475,60.606-.442,3.1-1.327,3.1-.739,0-1.327-3.1-1.625-11.8-1.622-60.606.145-21.972.295-37.16H761.91l.148,30.672q0,37.159-7.521,49.4Q747.754,645.508,737.579,652a8.075,8.075,0,0,1-1.475,1.327c-.493,0-.737-.442-.737-1.327a62.374,62.374,0,0,0,14.746-20.644q6.487-15.186,6.636-47.63l.147-30.672h-9.584q-3.394,0-3.392-3.1,0-2.211,4.719-2.212H756.9l.148-15.483a48.849,48.849,0,0,1,.885-5.161h-7.521q-3.1,0-3.1-3.1,0-2.213,4.423-2.212h38.193q3.684,0,3.686,2.212,0,3.1-3.1,3.1Zm-22.709,0a34.475,34.475,0,0,1,.737,4.571v16.073h18.58q.3-12.974.59-20.644Zm61.933-11.207q1.77,0,1.77,1.622a6.534,6.534,0,0,1-1.032,2.359,162.389,162.389,0,0,1-19.17,21.972,3.6,3.6,0,0,1-2.654,1.032q-1.476,0-1.475-1.622,5.751-10.174,19.907-23.741Q822.368,515.891,823.106,515.89Zm2.95,27.575a4.045,4.045,0,0,1-1.033,1.917,91.085,91.085,0,0,0-10.912,12.976q-3.687,5.165-3.686,15.336a157.756,157.756,0,0,0,6.341,44.239q4.866,15.189,18.875,36.57a.523.523,0,0,1-.59.59,2.853,2.853,0,0,1-2.065-1.18q-13.126-12.387-20.644-32.441-7.669-21.972-7.668-50.137a28.052,28.052,0,0,1,5.014-15.483,60.3,60.3,0,0,1,14.746-13.567Q826.055,542.285,826.056,543.465Z" fill="#231f20"/></g></svg>
