<svg xmlns="http://www.w3.org/2000/svg" width="1000" height="880" viewBox="0 0 1000 880"><g id="Artboard"><rect id="Page" width="1000" height="880" fill="#fff"/></g><g id="Text"><g id="深秘的楽曲集_補_東方深秘録初回特典CD" data-name="深秘的楽曲集・補 東方深秘録初回特典CD"><path d="M305.526,749.078c-.748,0-5.322,0-5.322-5.487,0-3.076,1.5-5.071,2.5-5.071,1.7,0,8.149,5.071,8.149,8.314C310.848,749.078,306.441,749.078,305.526,749.078Zm5.946,13.72c0,2.993-5.406,13.054-7.775,13.054-1.082,0-2.786-1.5-2.786-4.657,0-.832,0-3.076,1.663-4.074,3.7-2.245,7.318-4.656,8.15-5.321C311.056,761.8,311.472,761.883,311.472,762.8Zm-2.037-33.508c-1.747,0-7.194-2.328-7.194-6.984,0-2.744,1.289-4.989,2.7-4.989,2.827,0,5.364,9.146,5.364,10.56S309.6,729.29,309.435,729.29Zm11.808,33.674c-5.613,13.137-10.686,16.213-12.889,16.213-.167,0-.583,0-.583-.748,0-.5.167-.665,1.04-1.746a54.835,54.835,0,0,0,9.4-19.872c.416-2.162.666-3.492,2.121-3.492a4.729,4.729,0,0,1,1.039.249v-1.58l-5.447.083c-.416,0-2.245,1.414-2.661,1.414-.541,0-1.247-.582-1.247-2.162,0-1.912.665-3.658,1.788-3.658.207,0,1.164.416,1.372.416h6.112c0-1.081,0-2.079-.042-2.578-.041-.332-.623-1.579-.623-1.912,0-1.829,2.287-4.739,3.451-4.739.125,0,1.871,0,1.871,2.494,0,1-.25,5.737-.25,6.652h5.323c.291-1,.915-3.326,2.037-3.326,1,0,2.828,2.494,2.828,4.988,0,2.245-1.664,2.245-2.038,2.245h-7.609c2.7,8.232,6.944,13.22,12.308,16.962.291.249,1.58,1,1.829,1.164a.719.719,0,0,1,.333.665c0,.665-3.992,6.486-5.572,6.486-1.455,0-6.9-6.569-9.563-20.454.041,2.328.249,12.555.291,14.633.041,1.164.208,6.237.208,7.317,0,2.827-2.163,5.238-3.368,5.238-.416,0-1.83-.665-1.83-4.074,0-1.33.167-7.234.208-8.4Zm-4.906-40.492c-.416,5.155-.957,8.564-1.04,8.98-.332,1.912-.748,2.411-1.247,2.411-.956,0-1.206-1.663-1.331-2.328-.124-.582-1.538-8.813-1.538-10.227,0-2.578,1.04-5.322,2.744-5.322,1,0,2,.666,2.37,2.5h15.759c.541-2,1.663-3.077,2.453-3.077,1.539,0,2.911,2.5,2.911,5.239,0,2.162-1.954,8.9-2.62,10.642-.207.5-.5,1.164-1.288,1.164-.583,0-.915-.582-1.04-1.5-.208-1.081-.374-4.906-.5-8.481H328.1c-.25,4.49-.374,7.982-.374,9.811,0,1.081,0,2.494,3.077,2.494a8.407,8.407,0,0,0,3.908-.914c.541-.25,3.327-2.162,3.41-2.162.208,0,.458.333.458.915a29.918,29.918,0,0,1-.5,3.242c-.915,4.989-1.829,5.821-4.033,5.821-1.621,0-5.655-.748-7.817-2.494-2.121-1.747-2.121-3.826-2.121-5.821,0-.832.042-8.9.042-9.395a4.787,4.787,0,0,0-.291-1.5Zm4.449.582c.873,0,2.287,1,2.287,3.409,0,1.58-1.081,9.312-5.2,14.3-2.619,3.16-5.072,3.575-5.488,3.575-.25,0-.749,0-.749-.748,0-.416.416-.831.79-1.247,2.994-3.159,5.156-7.983,5.988-14.883C318.458,725.881,318.582,723.054,320.786,723.054Z" fill="#000000"/><path d="M365.811,732.449c0-2.993,0-5.736-.125-9.644a18.346,18.346,0,0,1-3.036.249c-.873,0-4.116-.665-4.116-1.912,0-.332.5-.582.873-.748,3.95-1.415,6.695-3.16,10.479-6.9.5-1.081,1.039-2.328,1.912-2.328,1.206,0,3.327,2.162,3.327,4.906,0,2.078-.333,2.494-4.824,5.322-.166,5.9-.166,7.482-.249,11.057h.54c.666-2.494,1.414-2.743,1.663-2.743,1.04,0,2.287,2.66,2.287,4.655,0,1.746-.831,1.746-1.746,1.746H370.01c0,2.579-.041,3.576-.041,5.9a19.657,19.657,0,0,0,4.158,5.155,2.037,2.037,0,0,1,.956,1.663c0,1.164-1.788,4.074-3.035,4.074-.458,0-.666-.416-2.246-4.074v1.413c0,3.575.25,21.036.25,24.945a9.106,9.106,0,0,1-.832,4.739c-.374.748-1.247,2.161-2.494,2.161-.666,0-1.83-.5-1.83-3.242,0-.333,0-.5.083-2.079.25-4.075.582-21.286.707-26.524-2.412,9.064-6.237,14.717-7.775,14.717-.25,0-.416-.332-.416-.665a7.986,7.986,0,0,1,.665-2.078,116.45,116.45,0,0,0,4.49-18.043c.832-4.822.874-5.321,2.329-5.321a.9.9,0,0,1,.79.416c.042-.915.042-2.412.042-3.161-3.036.084-3.368.084-3.992.666a2.637,2.637,0,0,1-1.58.915c-.624,0-1.331-.666-1.331-2.079s.582-3.742,1.83-3.742c.249,0,1.372.5,1.621.5Zm31.725,37.5c.5.083,1.539.332,1.539,1,0,.832-2.5,4.74-3.2,5.738-.79,1.247-1.455,2.245-2.7,2.245-2.494,0-7.317-5.987-10.478-14.717-2.91,6.568-7.318,12.555-10.852,12.555-.25,0-1.5,0-1.5-.914,0-.167,2.2-2.163,2.619-2.662,3.41-3.907,6.238-11.141,7.277-14.633a172.4,172.4,0,0,1-4.407-25.443,2.687,2.687,0,0,1-.79-1.829c0-2.161,1.621-4.24,2.785-4.24.915,0,.957.333,1.081,4.49a102.761,102.761,0,0,0,3.493,21.617c2.287-10.226,3.992-25.192,3.992-29.1,0-.416-.374-2.411-.374-2.827,0-2.5,2.12-4.989,3.576-4.989.79,0,2.245.665,2.245,4.241,0,.748-.291,4.074-.374,4.988a212.922,212.922,0,0,1-6.071,33.009C389.969,768.035,396.622,769.781,397.536,769.948ZM377.62,752.986c.332,0,.332.748.332,1,0,3.326-2.2,9.978-4.99,9.978-.873,0-2.12-1-2.12-3.908a3.145,3.145,0,0,1,2.536-3.243,7.367,7.367,0,0,0,3.743-3.326C377.245,753.319,377.453,752.986,377.62,752.986Zm3.866-21.036c-.873,0-.914-.582-1.289-5.819,0-.25-.166-3.243-.166-5.072,0-2.246,1.289-3.576,2.453-3.576,1.04,0,2.412,1.164,2.412,3.16C384.9,722.805,383.274,731.95,381.486,731.95Zm13.472,2.993c1.331,0,2.7,2.079,2.7,4.242,0,4.323-5.53,10.974-7.775,10.974-.25,0-1.081-.083-1.081-.914a4.593,4.593,0,0,1,.665-1.746,46.218,46.218,0,0,0,2.619-7.982,15.951,15.951,0,0,1,.832-3.077C393.794,734.943,394.626,734.943,394.958,734.943Z" fill="#000000"/><path d="M440.773,731.867c-1.788,3.908-3.7,8.066-5.946,9.812-.332.249-.623.332-.706.166.041,3.741.415,20.287.415,23.7,0,5.571,0,6.153-.956,7.566a2.99,2.99,0,0,1-2.329,1.581c-1.621,0-1.663-2.579-1.663-4.574h-4.823c.042,3.908.042,4.157-.374,5.239-.707,1.912-2.038,2.411-2.662,2.411-.54,0-1.746-.748-1.746-2.827,0-1,.166-5.654.166-6.569.167-7.566.25-19.705.25-27.105,0-1.912,0-8.066-.125-8.315l-.54-1a3.5,3.5,0,0,1-.167-.914c0-2.079,2.412-5.238,3.41-5.238.166,0,1.289,0,1.746,2.328h.375c.249-2.245,1.372-12.638,1.7-14.052.582-2.577,1.663-2.91,2.329-2.91,1.5,0,2.994,2.245,2.994,4.739,0,2.827-3.2,9.23-4.7,12.223h2.328a3.675,3.675,0,0,1,2.537-2.245c.832,0,2.245,1.33,2.245,3.658a12.412,12.412,0,0,1-.083,1.247,33.357,33.357,0,0,0-.374,5.238c0,.665.083,3.493.083,4.075,1.705-3.41,5.405-20.038,5.447-23.614.041-3.658,2.2-4.406,2.62-4.406,1.122,0,2.7,2,2.7,4.24,0,2.078-1.912,8.98-2.827,11.641h6.112c.748-2.162,1.331-3.243,2.287-3.243,1.747,0,3.493,3.658,3.493,5.155a3.763,3.763,0,0,1-.333,1.5,3.372,3.372,0,0,0-.249,1.746c0,2.411.208,13.221.208,15.466a157.389,157.389,0,0,1-.957,19.871c-1.705,13.054-5.655,14.135-7.318,14.135-2.12,0-5.239-4.573-6.362-7.9l-.041-.5c.041-.582.166-.582.291-.582a9.435,9.435,0,0,0,3.95,1.082c5.156,0,5.572-15.715,5.572-26.69,0-9.229-.125-13.055-.25-16.131Zm-11.1,11.392-.041-11.309h-4.616c-.249,0-.332.915-.332,1.164v13.8h4.989Zm-4.989,7.15v15.964h4.948l.041-15.964Zm20.166,8.148c-.457,0-.831-.582-4.532-5.322-.458-.582-2.62-3.242-2.744-3.408a4.092,4.092,0,0,1-.707-2.411c0-2.578,1.58-4.407,2.453-4.407,2.2,0,6.4,9.894,6.4,13.969C445.721,758.557,445.056,758.557,444.848,758.557Z" fill="#000000"/><path d="M508.875,755.646c.582-2.327,1.7-3.741,2.536-3.741,1.372,0,3.16,2.993,3.16,5.821,0,1.912-1.081,2.328-1.746,2.494-.915.166-13.139,0-14.969,0a27.7,27.7,0,0,0,15.177,14.051c1.33.417,1.5.417,1.5.916,0,1.163-4.907,6.318-6.029,6.318-1.165,0-8.109-4.739-11.435-19.289.374,11.556.457,14.051.457,18.125,0,5.238-2.744,5.737-3.077,5.737-1.788,0-1.788-2.245-1.788-3.409,0-3.159.416-18.874.416-22.449-7.942.166-8.357.166-11.393.166a3.954,3.954,0,0,0-1.621.25,19.085,19.085,0,0,1-2.246,1.164c-.665,0-1.289-.832-1.289-2.494,0-2.162,1.164-4.158,2.079-4.158.208,0,1.165.5,1.373.5h13.139a18.335,18.335,0,0,0-.125-2c-.042-.249-.582-1.33-.582-1.58,0-2,2.037-4.489,3.2-4.489.292,0,1.871,0,1.871,2.577,0,.5-.207,2.661-.249,3.16v2.327Zm-21,8.814c.957-2.328,1.124-2.743,1.914-2.743a3.157,3.157,0,0,1,2.744,3.242c0,6.153-9.938,15.549-14.969,15.549-.084,0-1.04,0-1.04-.915,0-.416.042-.416.416-.831.041,0,1.58-1,1.871-1.248C483.677,773.523,486.629,767.453,487.876,764.46ZM480.6,749.494c-.748,0-2.412-1-2.412-3.908a4.836,4.836,0,0,1,1.331-3.658c.582-.5,3.659-2.577,4.324-3.159.541-.416,3.451-3.16,3.535-3.16.291,0,.415,1.08.291,1.33C486.005,743.508,482.721,749.494,480.6,749.494Zm5.7-17.46c-1.039,0-4.532-3.825-5.613-5.488a6.918,6.918,0,0,1-.873-3.409c0-2.244,1.206-4.158,2.329-4.158,2.411,0,5.072,10.56,5.072,11.724C487.211,732.034,486.421,732.034,486.3,732.034Zm11.643-11.557c.624-1.913,1.5-2.578,2-2.578.956,0,2.745,2.162,2.745,4.573a4.17,4.17,0,0,1-.167,1.081,6.229,6.229,0,0,0-.415,2.328c0,4.24.083,7.566.124,10.31a.76.76,0,0,1,.749-.416,9.152,9.152,0,0,1,9.064,8.731c0,2.161-.915,3.907-2.2,3.907a2.321,2.321,0,0,1-2.162-1.663c-2.536-5.154-2.786-5.736-3.492-6.9-.25-.416-1.705-2.412-1.955-2.994.042,1.165.208,8.232.208,8.98a4.721,4.721,0,0,1-.457,2.66,3.1,3.1,0,0,1-2.537,1.746c-1.5,0-1.539-1.579-1.539-2.743h-5.613c-.083,2.577-1.788,3.741-2.619,3.741-1.5,0-1.5-1.247-1.5-2.91,0-1.58.167-8.9.208-10.559,0-1.414-.041-8.4-.041-9.978,0-2.078,0-2.244-.25-2.66-.582-.915-.706-1.081-.706-1.58,0-2.078,2.37-5.322,3.368-5.322.374,0,1.33.5,1.5,2.246h.457c.166-1.165.873-7.65,1.039-9.063.125-1.164.416-3.825,2.287-3.825,1.289,0,2.786,1.912,2.786,4.074a10.453,10.453,0,0,1-1.414,4.24c-.332.665-2.037,3.826-2.411,4.574Zm0,23.28v-7.9h-5.613v7.9Zm-.042-11.64v-7.982h-5.114c-.249,0-.416.416-.416.915v7.067Zm12.225-5.654c-1.122,1.829-5.239,6.236-6.486,6.236-.249,0-.457-.416-.457-.915s1.912-6.568,2.245-7.649c1.247-4.074,1.788-5.738,3.118-5.738,1.414,0,2.5,2.662,2.5,4.74A6.778,6.778,0,0,1,510.122,726.463Z" fill="#000000"/><path d="M541.717,779.344c0,6.152-3.077,6.152-3.285,6.152-.624,0-1.788-.915-1.788-2.993,0-.166.458-24.2.458-28.769v-15.3c0-2.994,0-3.326-.333-3.908-.707-1.164-.748-1.247-.748-1.746,0-2,2.744-5.654,3.908-5.654.831,0,1.538.832,1.829,2.494h4.283c-.042-1.5-.125-7.9-.125-9.228,0-1.747,0-1.913-.208-2.329-.707-1.247-.79-1.413-.79-2.079,0-2.161,2.453-5.4,3.95-5.4.249,0,2.079,0,2.079,3.409,0,2.494-.291,13.387-.291,15.631h4.033c-.083-12.555-.125-12.555-.416-13.22a3.766,3.766,0,0,1-.624-1.663c0-2.494,2.371-5.57,4.118-5.57.54,0,2.162,0,2.162,3.325,0,1-.083,2.245-.125,3.16-.083,1.413-.249,12.223-.249,13.968H563.8c.914-2.244,1.912-3.242,2.661-3.242,1.247,0,3.035,2.66,3.035,5.321a14.267,14.267,0,0,1-.374,2.411,5.425,5.425,0,0,0-.167,1.58v12.472c0,4.822.374,26.024.374,30.348,0,2.245-.083,2.91-.79,3.991a3.384,3.384,0,0,1-2.577,1.663c-.749,0-2.121-.167-2.121-2.827v-2Zm4.365-45.4h-3.95c-.166,0-.332.5-.332,1,0,.666-.042,11.475-.083,16.546h4.365Zm-4.365,21.617v19.79H546c.042-5.738.083-12.14.083-17.627v-2.163Zm12.972-21.617h-4.033v17.543h4.075Zm-4.033,21.617v19.79h3.95c.041-6.32.125-11.308.125-19.79Zm13.181-21.617h-4.366c-.041,2.827-.083,13.3-.083,17.543h4.449Zm0,21.617h-4.449c0,5.738,0,9.313.083,19.79h4.366Z" fill="#000000"/><path d="M624.039,757.31c.873-2.246,1.871-3.908,2.661-3.908,1.081,0,3.409,2.91,3.409,5.821,0,1.912-.915,2.078-1.289,2.161-.79.166-12.39,0-14.719,0,2.869,7.566,10.353,12.139,14.345,13.969.457.249,1.33.582,1.33,1.164,0,.5-4.823,6.568-6.319,6.568-1.206,0-7.734-4.323-10.895-20.371.042,2.328.375,13.886.375,16.463,0,5.737-2.745,5.737-3.244,5.737-1.829,0-1.829-2-1.829-3.658,0-1.912.291-11.059.332-13.137-2.91,5.986-9.729,13.137-15.3,13.137-.084,0-.916,0-.916-.665,0-.582,2.7-2.578,3.2-3.077a45.245,45.245,0,0,0,8.441-12.139c.748-1.746,1.206-2.91,2.37-2.91a3.29,3.29,0,0,1,2.287,1.746c0-.416.041-2.328.041-2.744l-12.6.333c-.5,0-2.786,1.33-3.327,1.33-.915,0-1.206-1.247-1.206-2.411,0-2,1.123-3.908,2.038-3.908.25,0,1.455.5,1.747.5h13.3c-.084-2.329-.125-2.578-.25-2.828-.416-.831-.457-.831-.457-1.33,0-1,1-2.91,1.871-3.159-2.453.083-4.283.083-6.237.083-.125,3.825-2.7,3.825-2.994,3.825-1.663,0-1.663-1.331-1.663-2.578,0-1.413.208-8.231.25-9.81.083-5.406.166-10.145.166-11.807-2.12,3.491-4.407,5.9-5.9,5.9a.455.455,0,0,1-.5-.5c0-.25.126-.5,1.124-2.411a89.1,89.1,0,0,0,6.694-19.207c.041-1.5.083-4.489,2.37-4.489,1.372,0,2.91,1.912,2.91,4.24,0,1.5-1.247,5.4-1.912,7.151h5.2c.166-1.331,1.33-10.394,1.455-10.726.541-1.58,1.663-1.58,1.829-1.58,1.207,0,3,1.746,3,4.406a4.615,4.615,0,0,1-.374,2,49.912,49.912,0,0,1-3.452,5.9h8.233c.375-1.747,1.539-3.576,2.246-3.576.914,0,3.035,2.744,3.035,5.239,0,1.08-.458,2.161-1.5,2.161H612.9c-.042,1.746-.042,3.492-.042,4.822h4.158c.665-1.829,1.455-2.327,1.871-2.327.79,0,2.536,2,2.536,3.99,0,1.746-1.122,1.746-1.788,1.746h-6.86v4.989H617.1c.832-2.079,1.538-2.411,1.913-2.411.665,0,2.453,2.161,2.453,3.991a1.723,1.723,0,0,1-1.954,1.913h-6.778v5.154h8.025c.832-1.912,1.538-3.159,2.245-3.159,1.04,0,2.786,2.91,2.786,5.155a1.711,1.711,0,0,1-2,1.912H612.313c.416,0,.583,1.413.583,2.078a10.672,10.672,0,0,1-.125,1.248,35.144,35.144,0,0,0-.125,3.991Zm-15.676-19.872v-4.989h-5.114l-.042,4.989Zm0,8.73v-5.237h-5.156v5.237Zm0-17.128v-4.822H603.29l-.041,4.822Z" fill="#000000"/><path d="M647.319,751.577a4.262,4.262,0,1,1,4.242-4.283A4.268,4.268,0,0,1,647.319,751.577Z" fill="#000000"/><path d="M674.592,726.38c.832-2.079,1.663-2.079,1.788-2.079,1.206,0,2.578,2.827,2.578,4.989a2.772,2.772,0,0,1-.832,2.162,93.268,93.268,0,0,1-4.157,11.973c.041,3.159.041,4.323.083,7.482,1.164-3.242,1.247-3.658,2.287-6.817.291-.915.873-1.5,1.372-1.5.914,0,2.037,1.663,2.037,3.659,0,1.247-.624,2.161-1.705,3.325-.374.416-2.37,2.162-2.785,2.578a54.746,54.746,0,0,0,3.451,4.49,3.66,3.66,0,0,1,1,2.744c0,1.746-1,3.409-2.037,3.409-.831,0-1.372,0-3.576-8.9.084,6.236.25,17.626.25,23.53,0,2.993-.083,3.742-.956,5.072a3.459,3.459,0,0,1-2.454,1.746c-1.455,0-1.455-2.079-1.455-4.407,0-1.912.333-11.141.374-13.22.084-3.409.208-11.724.291-17.045-.623.832-3.909,5.072-6.32,5.072-.167,0-.79,0-.79-.665a35.84,35.84,0,0,1,2.37-3.825,71.769,71.769,0,0,0,7.734-20.038l-4.616.167a2.531,2.531,0,0,0-1.663,1c-.582.5-.957.749-1.372.749-.624,0-1.04-.749-1.04-2.328,0-1.746.707-3.575,1.663-3.575.167,0,.957.332,1.123.332h2.828l-.208-7.982a2.661,2.661,0,0,0-.415-1.081,2.321,2.321,0,0,1-.5-1.5c0-2.494,2.494-5.154,4.074-5.154.541,0,1.622,0,1.622,3.076a16.563,16.563,0,0,1-.208,2.494c-.125,1-.333,8.232-.374,10.061Zm24.449-.5c.333-1.5,1.331-3.159,2.038-3.159,1,0,3.035,2.827,3.035,5.238,0,2.244-1.622,2.328-2.121,2.328l-9.854-.084-.083,7.567h3.825c.541-1.331,1.372-2.828,2.329-2.828,1.081,0,2.494,1.58,2.494,4.075a11.06,11.06,0,0,1-.332,2.162c0,5.155,0,11.723.124,19.04.042,3.326.167,9.561.167,11.723,0,4.324,0,10.643-4.241,10.643-1.414,0-3.285-2.827-4.324-4.988-.749,2.494-2.038,3.741-2.7,3.741a1.774,1.774,0,0,1-1.29-.915c-.665-1-.665-1.5-.665-3.99,0-1.913.291-11.641.291-13.8h-3.243c.041,4.157.041,9.478.041,13.553a8.121,8.121,0,0,1-.665,4.074c-.831,1.5-1.829,2.245-2.453,2.245-.457,0-1.621-.748-1.621-2.827,0-.665.041-2.744.166-5.9.166-4.323.582-23.447.582-29.1,0-2,0-2.245-.333-2.91a1.68,1.68,0,0,1-.374-1.164c0-2,1.788-4.906,2.952-4.906.125,0,1.414.166,1.622,2.079h3.451v-7.483l-4.574.166a3.833,3.833,0,0,0-1.829.665c-.79.582-.873.665-1.206.665-.5,0-1.164-.665-1.164-2.162,0-1.33.416-3.99,1.829-3.99.208,0,1.206.415,1.414.415l5.53.084c0-1.331-.042-4.074-.083-5.654a3.754,3.754,0,0,0-.25-1.5c-.624-1.5-.707-1.662-.707-2.244,0-2.328,2.538-5.986,3.993-5.986.623,0,1.829.582,1.829,3.159,0,.416-.083,1.247-.125,1.829-.166,2.162-.332,5.156-.374,10.394ZM687.856,748v-6.569h-2.994c-.166,0-.291.333-.333.582-.041.333-.041,5.072-.041,5.987Zm-.083,10.892c0-2.245.041-3.327.083-7.234h-3.368v7.234ZM695.964,748l-.041-6.652h-3.867V748Zm0,10.892v-7.234h-3.908c.042,2.993.042,4.24.083,7.234Zm-3.825,3.741c.042,4.822.083,6.652.125,13.636a9.7,9.7,0,0,0,2.162.333c.707,0,1.538-.665,1.538-4.574v-9.395Zm5.572-51.8c1.746,0,2.536,2.993,2.536,4.572,0,3.243-4.906,9.064-5.946,9.064-.54,0-.582-.582-.582-1.081,0-.748,1.455-8.731,1.622-9.562C695.59,712.827,696.172,710.832,697.711,710.832Z" fill="#000000"/><path d="M308.509,805.891a13.4,13.4,0,0,0,6.42,7.072c.836.41.922.478.922.649,0,.375-1.981,2.835-2.6,2.835s-3.329-2.289-4.985-8.917c.051,1.743.17,6.662.17,7.619a4.169,4.169,0,0,1-.188,1.708,1.557,1.557,0,0,1-1.178,1.094c-.2,0-.751-.137-.751-1.47,0-.239.069-2.152.069-2.323.016-.341.1-3.211.136-4.816-.086.137-.427.853-.512.99-2.732,4.681-4.952,5.706-6.1,5.706-.17,0-.529,0-.529-.376,0-.205.085-.273.837-.889a21.431,21.431,0,0,0,4.268-6.525c.683-1.605.819-1.913,1.3-1.913a1.037,1.037,0,0,1,.734.478v-.922h-2.339a1.465,1.465,0,0,1-1.3,1.3c-.6,0-.6-.922-.6-1.367,0-1.058.086-6.183.086-7.344a1.859,1.859,0,0,0-.034-.582,1.939,1.939,0,0,1-.205-.751c0-.888,1.007-2.05,1.434-2.05.2,0,.581.239.734,1.128h2.22v-.616c0-.512,0-1.333-.017-1.81l-4.474.137c-.187,0-1.093.716-1.3.716-.188,0-.564-.2-.564-.99s.324-1.879.939-1.879a4.277,4.277,0,0,1,.6.137c.41.034,4.03.068,4.781.068l-.052-1.845a1.743,1.743,0,0,1-.392-.991c0-1.162,1.058-2.425,1.724-2.425.649,0,.718.752.718,1.5,0,.478-.1,3.177-.12,3.758l3.91-.068c.205-.923.7-1.572,1.042-1.572.478,0,1.365,1.2,1.365,2.46,0,1.059-.563,1.059-1.314,1.059-.683,0-4.2-.068-5.037-.068l-.034,2.426h2.322c.222-.581.563-1.2.956-1.2a1.823,1.823,0,0,1,1.23,1.777c0,.205-.1,1.093-.1,1.3s.068,6.969.068,7.105c0,1.5-.768,1.88-1.451,1.88-.58,0-.615-.479-.632-1.2Zm-1.947-5.569V797.9h-2.168c-.086,0-.188.137-.188.342v2.084Zm0,3.963v-2.391h-2.339v2.391Zm4.115-3.963V798.2c0-.2-.034-.308-.154-.308h-2.236v2.426Zm.017,3.963v-2.391h-2.407v2.391Z" fill="#000000"/><path d="M348.849,801.142c.17-.546.443-1.162.836-1.162.546,0,1.485,1.162,1.485,2.187a9.482,9.482,0,0,1-.238.956c-.359,7.893-.632,14.315-3.244,14.315-1.367,0-2.8-3.348-2.8-3.792,0-.1.034-.17.086-.17a2.424,2.424,0,0,1,.392.239,2.6,2.6,0,0,0,1.4.477c.683,0,1.025-.273,1.349-1.913a60.634,60.634,0,0,0,.8-9.565l-2.817.034c-.547,4.236-1.555,8.3-3.313,10.864a5.914,5.914,0,0,1-4.013,2.8.291.291,0,0,1-.29-.308c0-.1.6-.614.8-.785a10.311,10.311,0,0,0,2.1-2.87c2.305-4.51,3.039-12.23,3.039-13.7,0-.17-.154-.888-.154-1.059a1.68,1.68,0,0,1,1.366-1.571c.376,0,1.008.409,1.008,1.537,0,.239-.256,3.109-.291,3.485ZM351.5,794.1c.2-1.025.717-1.811.99-1.811.53,0,1.6,1.675,1.6,2.836,0,.957-.529.991-.734.991h-1.775c-1.264,0-7.5-.068-8.914-.068a12.77,12.77,0,0,0-2.1.136,12.79,12.79,0,0,1-1.28.683c-.239,0-.513-.41-.513-.956,0-.854.376-2.084.974-2.084.119,0,.631.273.751.273h4.525a24.537,24.537,0,0,0-.256-3.861c-.325-.58-.342-.614-.342-.819a3.009,3.009,0,0,1,1.912-2.358c.086,0,.906,0,.906,1.64a2.1,2.1,0,0,1-.017.308c-.12,1.195-.223,4.1-.24,5.09Z" fill="#000000"/><path d="M379.711,802.919a2.034,2.034,0,0,1-2.185-2.255c0-1.265.615-2.084,1.024-2.084.7,0,3.347,2.084,3.347,3.416C381.9,802.919,380.087,802.919,379.711,802.919Zm2.442,5.637c0,1.229-2.219,5.363-3.193,5.363-.443,0-1.144-.614-1.144-1.913a1.881,1.881,0,0,1,.684-1.674c1.519-.922,3-1.913,3.346-2.186C381.982,808.146,382.153,808.18,382.153,808.556Zm-.837-13.769c-.716,0-2.953-.956-2.953-2.869,0-1.128.529-2.051,1.11-2.051,1.161,0,2.2,3.759,2.2,4.34S381.385,794.787,381.316,794.787Zm4.85,13.837c-2.305,5.4-4.388,6.662-5.293,6.662-.069,0-.239,0-.239-.307,0-.206.068-.274.427-.718a22.545,22.545,0,0,0,3.858-8.165c.171-.889.273-1.435.871-1.435a1.883,1.883,0,0,1,.427.1v-.65l-2.237.034c-.17,0-.922.581-1.092.581-.222,0-.513-.239-.513-.888,0-.786.273-1.5.734-1.5.086,0,.478.171.564.171h2.51c0-.445,0-.855-.017-1.06-.017-.137-.256-.649-.256-.785,0-.752.939-1.948,1.417-1.948.051,0,.768,0,.768,1.025,0,.41-.1,2.358-.1,2.734h2.185c.12-.411.376-1.368.837-1.368.41,0,1.161,1.026,1.161,2.05,0,.923-.683.923-.837.923h-3.124a12.863,12.863,0,0,0,5.054,6.97c.119.1.648.41.751.478a.3.3,0,0,1,.137.273c0,.273-1.639,2.665-2.288,2.665-.6,0-2.835-2.7-3.928-8.4.017.957.1,5.159.12,6.012.017.479.085,2.563.085,3.007,0,1.161-.887,2.152-1.383,2.152-.17,0-.751-.273-.751-1.673,0-.547.069-2.973.086-3.452Zm-2.015-16.638c-.171,2.118-.393,3.519-.427,3.69-.137.785-.307.99-.512.99-.393,0-.5-.683-.546-.956-.052-.239-.632-3.622-.632-4.2,0-1.06.426-2.187,1.127-2.187.409,0,.819.274.973,1.025h6.471c.222-.82.683-1.264,1.008-1.264.631,0,1.195,1.024,1.195,2.152a22.147,22.147,0,0,1-1.076,4.373c-.086.205-.205.479-.529.479-.239,0-.376-.239-.427-.615-.086-.445-.154-2.016-.2-3.485h-1.588c-.1,1.845-.153,3.28-.153,4.032,0,.443,0,1.024,1.263,1.024a3.458,3.458,0,0,0,1.6-.376c.222-.1,1.366-.888,1.4-.888.086,0,.188.137.188.376a12.218,12.218,0,0,1-.2,1.332c-.375,2.05-.751,2.392-1.656,2.392a6.211,6.211,0,0,1-3.21-1.025,2.683,2.683,0,0,1-.871-2.392c0-.341.017-3.655.017-3.86a1.966,1.966,0,0,0-.119-.615Zm1.827.239c.358,0,.939.41.939,1.4a11.361,11.361,0,0,1-2.134,5.876,3.541,3.541,0,0,1-2.254,1.469c-.1,0-.307,0-.307-.307,0-.171.17-.342.324-.513a10.478,10.478,0,0,0,2.459-6.115C385.022,793.387,385.073,792.225,385.978,792.225Z" fill="#000000"/><path d="M420.1,796.086c0-1.231,0-2.357-.052-3.964a7.545,7.545,0,0,1-1.246.1c-.359,0-1.691-.273-1.691-.786,0-.136.205-.239.359-.307a10.692,10.692,0,0,0,4.3-2.836c.2-.444.427-.956.785-.956.5,0,1.366.888,1.366,2.015,0,.854-.136,1.025-1.981,2.187-.068,2.426-.068,3.074-.1,4.544h.222c.273-1.025.58-1.128.683-1.128.427,0,.939,1.094.939,1.913,0,.718-.341.718-.717.718h-1.144c0,1.058-.017,1.469-.017,2.426a8.067,8.067,0,0,0,1.708,2.118.838.838,0,0,1,.392.683c0,.478-.734,1.674-1.246,1.674-.188,0-.273-.171-.922-1.674v.58c0,1.47.1,8.644.1,10.25a3.744,3.744,0,0,1-.342,1.948c-.153.307-.512.887-1.024.887-.273,0-.751-.205-.751-1.332,0-.136,0-.205.034-.854.1-1.674.239-8.746.29-10.9-.99,3.725-2.561,6.048-3.193,6.048-.1,0-.17-.136-.17-.273a3.277,3.277,0,0,1,.273-.855,48.018,48.018,0,0,0,1.844-7.414c.341-1.981.358-2.186.956-2.186a.368.368,0,0,1,.324.171c.018-.375.018-.991.018-1.3-1.247.034-1.384.034-1.64.273a1.077,1.077,0,0,1-.649.376c-.256,0-.546-.273-.546-.854s.239-1.537.752-1.537c.1,0,.563.205.665.205Zm13.027,15.408c.2.034.632.137.632.409a10.977,10.977,0,0,1-1.315,2.358c-.324.512-.6.923-1.11.923-1.024,0-3-2.46-4.3-6.047-1.2,2.7-3.005,5.158-4.457,5.158-.1,0-.615,0-.615-.376,0-.067.906-.888,1.076-1.093a18.935,18.935,0,0,0,2.988-6.013,70.929,70.929,0,0,1-1.81-10.454,1.107,1.107,0,0,1-.324-.752c0-.888.666-1.742,1.144-1.742.376,0,.393.137.444,1.845a42.234,42.234,0,0,0,1.434,8.883,81.813,81.813,0,0,0,1.639-11.958c0-.171-.153-.99-.153-1.161,0-1.026.87-2.05,1.468-2.05.324,0,.922.273.922,1.742,0,.308-.12,1.674-.154,2.05a87.538,87.538,0,0,1-2.492,13.563C430.023,810.708,432.755,811.426,433.13,811.494Zm-8.178-6.97c.136,0,.136.308.136.411,0,1.366-.905,4.1-2.049,4.1-.358,0-.871-.41-.871-1.606a1.291,1.291,0,0,1,1.042-1.332,3.026,3.026,0,0,0,1.537-1.367C424.8,804.661,424.883,804.524,424.952,804.524Zm1.588-8.643c-.359,0-.376-.239-.53-2.392,0-.1-.068-1.333-.068-2.084,0-.923.529-1.469,1.007-1.469a1.193,1.193,0,0,1,.99,1.3C427.939,792.122,427.274,795.881,426.54,795.881Zm5.532,1.229c.546,0,1.11.855,1.11,1.743,0,1.777-2.271,4.509-3.193,4.509-.1,0-.445-.034-.445-.376a1.9,1.9,0,0,1,.274-.716,19.121,19.121,0,0,0,1.076-3.281,6.552,6.552,0,0,1,.341-1.263C431.594,797.11,431.935,797.11,432.072,797.11Z" fill="#000000"/><path d="M463.14,792.908c.444.41.5.445.5.821,0,.511-.87,1.6-1.229,1.6-.324,0-1.11-1.264-1.724-2.938-1.759,3.177-3.689,4.509-4.355,4.509-.034,0-.273,0-.273-.239,0-.171.051-.239.564-.922a23.706,23.706,0,0,0,3.073-6.081c.273-.786.393-1.128.871-1.128.461,0,1.042.615,1.042,1.64a3.46,3.46,0,0,1-.086.718A5.68,5.68,0,0,0,463.14,792.908Zm-2.356,18.279a15.719,15.719,0,0,0,1.52-.616c.119-.068.768-.41.785-.41.085,0,.188.137.188.342a7.149,7.149,0,0,1-2.391,2.836,9.7,9.7,0,0,1-3.585,1.947c-.547,0-.974-.718-.974-1.64,0-.717.274-1.469.666-1.538.581-.1,1.674-.307,2.134-.409v-8.508c-.17,0-1.041-.068-1.246-.068a.393.393,0,0,0-.341.1c-.393.239-.427.273-.564.273-.1,0-.478,0-.478-.751,0-.684.256-1.367.666-1.367.068,0,.427.171.512.171l1.451.1v-2.7h-.751c-.085,0-.5.274-.6.274-.274,0-.444-.24-.444-.786s.205-1.162.581-1.162c.067,0,.443.137.529.137h2.749c.119-.513.392-.82.6-.82.359,0,.922.752.922,1.64,0,.717-.461.717-.751.717h-1.178v2.768c.222,0,.307-.035.6-.035.171-.444.393-.82.649-.82.376,0,.854.684.854,1.607,0,.716-.359.716-.768.716h-1.332Zm-2.066-.889c-.581,0-1.759-2.323-1.759-3.382,0-.684.478-1.333.922-1.333.29,0,.683.273.768.991.359,2.768.393,3.074.393,3.245C459.042,810.2,458.82,810.3,458.718,810.3Zm2.578-.41c-.171,0-.239-.171-.239-.444s.171-1.914.307-2.87c.12-.854.41-1.367.769-1.367.444,0,.888.581.888,1.4C463.021,807.633,461.842,809.888,461.3,809.888Zm4.713-.615c0,1.674-1.213,5.671-2.835,5.671-.461,0-.973-.512-.973-1.571a1.333,1.333,0,0,1,1.093-1.538c1.059-.341,1.98-2.187,2-2.221.273-.58.358-.751.529-.819C465.975,808.8,466.009,808.932,466.009,809.273Zm2.134-8.507c0,.171-.034.957-.034,1.162,0,.478.649,3.177.905,4.236.939-3.143,1.178-4,1.776-4,.409,0,.99.819.99,1.742,0,1.2-1.434,2.6-2.425,3.144a14.8,14.8,0,0,0,3.688,6.252.358.358,0,0,1,.069.205c0,.307-.051.342-.547.682a8.217,8.217,0,0,1-1.673,1.06c-.342,0-.922-1.06-1.178-1.674-1.076-2.494-1.554-7.175-1.708-8.609.137,6.628.154,7.344.154,8.814a8.374,8.374,0,0,1-.222,2.391c-.427,1.4-1.246,1.606-1.6,1.606-1.041,0-2.1-2.426-2.1-2.631a.134.134,0,0,1,.137-.136,2.7,2.7,0,0,0,.29.1,2.152,2.152,0,0,0,.8.1c.8,0,.82-.308.837-5.774.017-2.46.017-6.458-.017-8.712a13.619,13.619,0,0,0-2.117.205,10.061,10.061,0,0,1-.974.444c-.256,0-.563-.239-.563-.854s.256-1.469.768-1.469a4.268,4.268,0,0,1,.6.136c.068,0,3.551.035,3.688.035h.307c.017-1.674.034-2.084.052-3.006h-2.357c-.153,0-.905.546-1.076.546-.358,0-.461-.376-.461-.786,0-.2.018-1.5.7-1.5.085,0,.478.137.563.137h2.647c.017-.887.034-2.05.034-2.937H465.24c-.171,0-.956.546-1.144.546-.153,0-.478-.137-.478-.751,0-.581.188-1.573.752-1.573.068,0,.461.1.546.1h3.244c.273-.785.649-1.2.956-1.2.427,0,1.23.854,1.23,1.879a1.624,1.624,0,0,1-.034.341c-.018.1-.154.65-.188.786-.052.273-.188,6.492-.205,7.345h.905c.136-.614.5-1.366.819-1.366.461,0,1.2.99,1.2,2.118,0,.854-.58.888-.87.888-.222,0-1.349-.034-1.605-.034Zm-2.425,6.764c-.444,0-2.373-1.366-2.373-2.869,0-.649.427-1.435.888-1.435.939,0,1.793,3.075,1.844,3.793C466.077,807.292,466.009,807.53,465.718,807.53Z" fill="#000000"/><path d="M500.953,793.694c.189-.512.5-.82.769-.82.563,0,1.042,1.094,1.042,2.152a1.038,1.038,0,0,1-.41.923c-.922,2.8-1.435,4.134-1.759,4.953,0,.342.016,1.949.016,2.324v.546c0,1.743.171,10.762.171,10.967a3.6,3.6,0,0,1-.307,1.948c-.308.649-.751,1.059-1.058,1.059-.035,0-.769-.034-.769-1.23,0-.546.1-3.211.12-3.792.068-2.836.119-6.833.136-9.225-1.075,1.538-2.425,2.528-3.125,2.528-.119,0-.238-.1-.238-.307a1.972,1.972,0,0,1,.443-.751,27.239,27.239,0,0,0,4.3-9.635l-2.083.034c-.256,0-.5.239-.683.41-.307.308-.5.376-.666.376-.222,0-.5-.273-.5-.888,0-.684.273-1.743.717-1.743a3.16,3.16,0,0,1,.529.171,1.726,1.726,0,0,0,.513.035h.854c0-.479-.017-2.939-.035-3.349a1.713,1.713,0,0,0-.188-.614,1.59,1.59,0,0,1-.29-.718,2.5,2.5,0,0,1,1.759-2.255c.324,0,.768.342.768,1.469,0,.239-.1,1.367-.119,1.639-.12,2.6-.12,3.212-.137,3.793Zm2,5.227c.427,0,.973.854.973,1.743a1.8,1.8,0,0,1-.734,1.5,15.831,15.831,0,0,1-1.861,1.4,15.282,15.282,0,0,0,1.775,2.221,1.872,1.872,0,0,1,.5,1.231c0,.887-.6,1.742-1.007,1.742-.376,0-.718-.308-1.777-4.613a2.719,2.719,0,0,1-.119-.615.779.779,0,0,1,.1-.444c.393-.785.649-1.4,1.555-3.621C502.507,799.058,502.729,798.921,502.951,798.921Zm6.028-5.739c.221-.786.545-1.367.853-1.367.564,0,1.383,1.093,1.383,2.358a2.178,2.178,0,0,1-.324,1.093v.991c0,14.075-.649,19.644-3,19.644-1.161,0-2.306-3.451-2.306-3.963,0-.206.068-.206.12-.206a.77.77,0,0,1,.222.171,2.363,2.363,0,0,0,1.434.65c1.571,0,1.623-11.07,1.623-14.315,0-.547,0-2.186-.035-3.383h-.068a5.555,5.555,0,0,0-1.093.069,8.6,8.6,0,0,1-.153,1.3c-.052.477-.2,2.9-.257,3.45-1.178,14.895-5.43,16.092-5.839,16.092a.22.22,0,0,1-.239-.24.437.437,0,0,1,.051-.2c.051-.068.257-.307.307-.376,2.493-3.826,3.466-10.009,3.945-17.048.05-.649.119-1.673.119-2.391a3.531,3.531,0,0,0-.034-.615c-.154,0-.939.068-1.007.068-.189.034-1.059.752-1.264.752-.034,0-.5,0-.5-.82,0-.786.273-1.811.888-1.811.085,0,.581.171.682.171Z" fill="#000000"/><path d="M546.552,790.619c.239-.649.614-1.469.972-1.469.718,0,1.521,1.4,1.521,2.665,0,.2-.274,1.093-.274,1.332,0,.684-.017,2.665-.017,2.939,0,5.056.017,6.969.086,12.572.016.956.068,5.159.068,6.013a1.811,1.811,0,0,1-1.452,1.947c-.751,0-.751-.888-.751-2.221h-8.946c-.069,1.811-1.145,2.221-1.332,2.221-.735,0-.735-.956-.735-3.108,0-1.948.12-11.514.137-13.666,0-1.742.017-4.2.017-5.808a2.517,2.517,0,0,0-.119-.991c-.274-.615-.308-.684-.308-.991,0-.956,1.127-2.63,1.64-2.63.34,0,.716.41.8,1.2Zm.187,22.036V798.272c0-.717-.016-4.3-.016-5.09,0-.616,0-.718-.171-.718h-8.5c-.154,0-.324.273-.324.752-.018,1.366-.018,10.317-.018,12.47v4.1c0,1.812,0,2.323.018,2.87Zm-3.26-15.955c.272-.99.682-.99.767-.99.513,0,1.316,1.093,1.316,1.845a1.615,1.615,0,0,1-.086.512,1.475,1.475,0,0,0-.137.683c0,1.162.12,6.97.12,8.269a1.628,1.628,0,0,1-1.332,1.742c-.717,0-.717-.684-.717-1.948h-2.34v1.059a1.644,1.644,0,0,1-1.143,1.607c-.785,0-.785-1.094-.785-1.983s.085-5.124.085-6.081v-2.562a.523.523,0,0,0-.051-.307c-.155-.308-.171-.342-.171-.479,0-.82.87-2.22,1.349-2.22.29,0,.529.341.666.853Zm-.052,8.439v-6.867h-2.186c-.137,0-.205.171-.205.341v6.526Z" fill="#000000"/><path d="M576.782,797.145h-1.024c-.5,3.109-1.52,5.056-2,5.056-.069,0-.171-.068-.171-.273,0-.069.222-1.572.256-1.708a63.3,63.3,0,0,0,.649-7.073,1.407,1.407,0,0,0-.154-.683.938.938,0,0,1-.069-.342c0-.853.684-1.64,1.23-1.64.324,0,.853.274.853,1.47,0,.99-.135,2.187-.29,3.621h.717v-2.186c0-2.836,0-3.178-.2-3.451a.71.71,0,0,1-.188-.512c0-.957.837-2.289,1.588-2.289.649,0,.734.58.734,1.263,0,.274-.068,1.538-.085,1.777-.018.683-.068,4.441-.086,5.4h.171c.188-.683.461-1.23.752-1.23.477,0,1.041.991,1.041,1.948,0,.854-.564.854-.717.854h-1.229l-.069,5.774,1.912-1.025c.12,0,.189.1.189.307a.805.805,0,0,1-.12.376c-.393.546-1.5,1.913-1.947,2.426,0,1.5.069,8.062.069,9.429a3.7,3.7,0,0,1-.461,2.357,1.259,1.259,0,0,1-.922.649c-.291,0-.752-.273-.752-1.264,0-2.767.205-7.14.273-9.907a7.013,7.013,0,0,1-2.2,1.537c-.462,0-1.127-.785-1.127-1.811a1.45,1.45,0,0,1,.82-1.469c.392-.17,2.151-.82,2.509-.957Zm10.109,7.038c.239-.684.581-1.332.939-1.332.5,0,1.246.921,1.246,2.015,0,.956-.512.956-.7.956h-2.117c0,.65.086,6.867.086,7,0,1.195,0,4.818-1.964,4.818-1.28,0-2.442-2.358-2.442-2.734,0-.068.035-.1.069-.1.2,0,1.109.171,1.3.171,1.075,0,1.092-1.264,1.109-3.861l.034-5.33c-.427,0-2.3.034-2.7.034a1.73,1.73,0,0,0-1.331.445.861.861,0,0,1-.461.171c-.257,0-.563-.069-.563-.787,0-.887.443-1.639.887-1.639.085,0,.444.171.529.171h3.621v-1.435c0-.171-.24-.82-.24-.991a2.11,2.11,0,0,1,1.281-1.674c-1.486-.034-4.252-.034-4.627,0-.24,0-1.179.581-1.383.581-.239,0-.564-.171-.564-.786,0-.786.325-1.708.82-1.708.171,0,.9.137,1.058.137h1.981v-4.2a8.243,8.243,0,0,0-1.606.1c-.119.033-.631.272-.733.272-.325,0-.513-.272-.513-.716,0-.65.308-1.607.751-1.607.086,0,.513.171.6.171h1.5c0-1.708-.017-2.221-.034-2.972a2.5,2.5,0,0,0-.154-.307,1.362,1.362,0,0,1-.239-.684,2.657,2.657,0,0,1,1.656-2.084c.051,0,.854,0,.854,1.5,0,.581-.119,3.827-.137,4.544h1.161c.155-.682.666-1.229.922-1.229.444,0,1.179,1.058,1.179,2.015,0,.991-.7.991-.854.991h-2.442c-.034,1.23-.068,2.665-.068,4.2h2.766c.222-.889.666-1.641,1.025-1.641.545,0,1.348,1.3,1.348,2.494,0,.786-.477.889-.648.923-.069.034-3.006,0-3.262,0,.256.137.513.342.513,1.024,0,.069-.052.889-.052.923-.017.24-.051,1.777-.051,2.153Zm-7.257,6.559c0-1.2.563-1.571.82-1.571.1,0,.512.068.6.068a2.676,2.676,0,0,0,1.894-1.128c.052-.068.171-.205.274-.205.119,0,.2.205.2.445,0,.478-.871,4-2.733,4C580.522,812.348,579.634,812.211,579.634,810.742Z" fill="#000000"/><path d="M626.906,808.111c.205-.785.615-1.468.974-1.468.5,0,1.264,1.161,1.264,2.186a1.025,1.025,0,0,1-1.162,1.059H615.364a1.971,1.971,0,0,0-.718.1c-.153.034-.921.445-1.092.445-.307,0-.615-.274-.615-.956,0-.787.411-1.539.888-1.539.1,0,.65.206.769.206h1.024c.018-2.29.034-4.442.034-6.7v-5.6a5.684,5.684,0,0,0-.068-.923c-.017-.137-.239-.751-.239-.922,0-.786.82-2.016,1.315-2.016.153,0,.734.17.836,1.059h.956c0-.684-.033-3.245-.051-3.416,0-.137-.29-.718-.29-.889,0-.752.939-1.981,1.468-1.981.223,0,.837.205.837,1.263,0,.24-.017.445-.051.889-.052.615-.068,1.982-.086,4.134h.922c0-.718,0-3.484-.034-3.963-.017-.137-.29-.752-.29-.923,0-.785.956-2.05,1.519-2.05.223,0,.855.2.855,1.333,0,.171-.086.956-.086,1.127-.034.786-.068,3.724-.085,4.476h1.144c.29-.855.768-1.195,1.042-1.195.461,0,1.177,1.024,1.177,2.049,0,.171-.171.956-.171,1.127-.068.411-.085,11.719-.085,13.085Zm-11,5.194a3.3,3.3,0,0,0,2.988-1.64c.12-.2.274-.444.411-.444.119,0,.2.136.2.444,0,1.537-1.622,5.363-3.859,5.363-.785,0-1.177-.956-1.177-1.844,0-1.163.6-1.879,1.127-1.879Zm2.562-13.051v-2.6c0-.82,0-2.186-.018-3.007h-.87c-.1,0-.1.411-.1.479v5.125Zm0,1.5h-.991v6.389h.94Zm2.731-1.5v-5.6h-.922c-.016,1.743-.034,3.486-.034,4.442v1.162Zm0,1.5h-.956c0,2.631.018,3.689.018,6.389h.887Zm5.926,14.451c0,1.162-.7,1.777-1.127,1.777-.308,0-.718-.376-.94-.82a36.813,36.813,0,0,0-2.185-3.894c-.273-.411-.785-.992-1.076-1.47-.256-.409-.324-.512-.324-.58,0-.274.273-.342.392-.342a4.91,4.91,0,0,1,.718.2C625.592,812.348,627.129,814.808,627.129,816.208Zm-2.92-15.954v-5.6h-1.145c-.016,1.709-.034,3.076-.034,4.1v1.5Zm0,7.892c.017-2.7.017-3.758.017-6.389h-1.2c0,1.094.018,5.842,0,6.389Z" fill="#000000"/><path d="M658.539,792.942c-1.418,0-3.654,3.041-3.654,10.386,0,4.988,1.2,9.737,4.132,9.737,1.827,0,2.817-1.947,3.551-3.417.188-.375.376-.751.632-.751.342,0,.632.717.632,1.23,0,.684-1.2,5.091-5.122,5.091-3.791,0-6.182-4.613-6.182-11.719,0-7.584,2.647-12.3,6.028-12.3a3.349,3.349,0,0,1,2,.752,3.244,3.244,0,0,0,.7.409c.119,0,.767-.307.9-.307.65,0,.735.923.769,1.2.068.718.273,4.2.273,5.057a.956.956,0,0,1-.939,1.092c-.546,0-.683-.581-.836-1.263-.6-2.768-.666-3.075-1.093-3.9C659.512,792.942,658.676,792.942,658.539,792.942Z" fill="#000000"/><path d="M688.6,804.285c0-2.973.034-6.354-.018-9.327-.017-1.3-.153-1.4-.58-1.4-.444,0-.769-.171-.769-.992,0-.58.206-1.092.666-1.092.154,0,.888.068,1.059.068.7,0,4.064-.376,4.832-.376,4.559,0,6.147,5.568,6.147,11.343,0,1.879-.12,6.9-2.493,10.078a5.814,5.814,0,0,1-5.02,2.426c-.273,0-1.57-.1-1.861-.1-.154,0-.888.1-1.059.1-.564,0-1.024-.24-1.024-1.708,0-.41.085-2.426.1-2.87.018-.855.018-1.162.018-3.758Zm2.168,7.687c0,1.264.581,1.264.939,1.264,1.366,0,5.788,0,5.788-10.488,0-3.759-.768-7.653-2.6-9.019a3.977,3.977,0,0,0-2.664-.582,8.284,8.284,0,0,0-1.434.1,3.532,3.532,0,0,0-.034.581Z" fill="#000000"/></g></g></svg>
