<svg xmlns="http://www.w3.org/2000/svg" width="1000" height="850" viewBox="0 0 1000 850"><g id="Artboard"><rect id="Tint" width="1000" height="850" fill="#58595b"/></g><g id="Outline"><g id="完全憑依ディスコグラフィ"><path id="完全憑依" d="M934.027,212.472h38.056c12.1,0,21.067-2.062,27.917-6.443V151.084a4,4,0,0,0-2.789,1.134c-4.662,4.535-10.774,6.47-20.438,6.47H957.319V145.062h42.015a3.957,3.957,0,0,0,.666-.068V97.1a3.956,3.956,0,0,0-.666-.067H985.465a3.979,3.979,0,0,0,.67-2.212V76.04h12.753a3.937,3.937,0,0,0,1.112-.177V8.857a3.972,3.972,0,0,0-1.112-.176H929.4V0H868.012V8.681h-70.16a4,4,0,0,0-4,4V72.04a4,4,0,0,0,4,4H811.5V94.817a3.979,3.979,0,0,0,.67,2.212h-14.54a4,4,0,0,0-4,4v40.033a4,4,0,0,0,4,4h38.148c-5.121,10.269-18.444,15.467-39.712,15.467a4,4,0,0,0-4,4V211a4,4,0,0,0,4,4c.062,0,.123,0,.185,0,60.163-2.775,90.227-23.744,99.831-69.937h2.757v38.686c-.418,8.039,1.579,14.5,5.935,19.2a24.291,24.291,0,0,0,7.66,5.436H872.358a4,4,0,0,0-2.777,1.122c-20.645,19.922-44.447,34.035-74.907,44.416a4,4,0,0,0-2.709,3.787v49.465a4,4,0,0,0,4.807,3.918c10.294-2.121,16.961-4.464,28.922-9.415v9.178a4,4,0,0,0,4,4h38.442v1.663H809.144a4,4,0,0,0-4,4v42.334a4,4,0,0,0,4,4h58.992v6.034H797.528a4,4,0,0,0-4,4v44.174a4,4,0,0,0,2.409,3.667,3.992,3.992,0,0,0-1.989,3.457v42.793a4,4,0,0,0,3.347,3.946l8.347,1.381c7.387,1.256,14.9,2.6,22.176,3.907,5.957,1.068,12.116,2.172,18.122,3.21.319.064.824.158,1.467.277,1.545.286,4,.74,6.536,1.29a411.556,411.556,0,0,1-57.338,25.7,4,4,0,0,0-2.657,3.768v49.695a4,4,0,0,0,5.541,3.692c1.615-.674,3.272-1.385,4.953-2.121-5.361,27.9-8.412,39.738-16.839,65.518a4,4,0,0,0,3.8,5.242h34.018a3.969,3.969,0,0,0-.763,1.632c-3.509,17.059-16.562,43.666-30.363,61.891a4,4,0,0,0-.811,2.415v69.251a4,4,0,0,0,6.823,2.834c2.294-2.286,3.853-3.849,5.185-5.235v80.4c0,.114.024.222.034.334h51.248c.009-.112.034-.22.034-.334V802.1a3.992,3.992,0,0,0,2.523-.516c5.815-3.4,12.142-9.331,20.354-19.188v17.364c-4.891.124-6.846.124-12.725.124a4,4,0,0,0-4,4V849.9c0,.035.009.069.01.1h73.176c14.257-1.244,25.384-2.6,30.217-3.818a4,4,0,0,0,3.021-3.878V825.477c7.014,5.451,13.455,9.2,25.307,15.114A3.993,3.993,0,0,0,1000,838.9V776.464a3.986,3.986,0,0,0-1.63-1.645c-8.987-4.822-12.9-7.706-19.377-14.634,8.346-16.674,15.5-32.256,21.007-45.7V653.9a3.975,3.975,0,0,0-3.093-1.492H956.52V639.243H965.4c15.1-.2,26.975-2.389,34.6-6.344V581.245L993.923,564.4a4,4,0,0,0-1.4-1.864c.033-.046.069-.088.1-.136A63.394,63.394,0,0,0,1000,547.4V373.251a3.97,3.97,0,0,0-1.659-.37h-70.83v-6.034h59.438a4,4,0,0,0,4-4V320.513a4,4,0,0,0-4-4H927.511V314.85h39.558a4,4,0,0,0,4-4v-8.871a229.31,229.31,0,0,0,27.792,10.035,4,4,0,0,0,1.139.166h0V253.086c-25.843-8.575-54.255-25.259-69.684-40.772C931.52,212.387,932.749,212.445,934.027,212.472Zm-35.8,43.762a180.718,180.718,0,0,0,14.2,12.884H884.254C888.207,265.881,892.247,262.12,898.231,256.234Zm-50.6,176.294-19.2-3.455q-.066-.012-.132-.021c-2.794-.407-11.113-1.752-24.723-4H862.4a3.96,3.96,0,0,0-.541,1.973V525.5a4.05,4.05,0,0,0,.089.83l-2.015,0V488.458a4,4,0,0,0-1.949-3.434c-.085-.051-.174-.089-.261-.133a3.918,3.918,0,0,0,2.21-3.566V438.071a4,4,0,0,0-3.308-3.939C850.182,433,847.659,432.533,847.634,432.528Zm-33.955,129c15.638-7.333,32-16.148,41.858-22.647v17.9a4.065,4.065,0,0,0,.074.741,3.992,3.992,0,0,0-3.007,3.861v.14ZM845.1,634.92a3.969,3.969,0,0,0,.751-1.572q3.99-18,6.758-34.174v5.47q0,.1.006.2c.643,12.6,4.38,21.02,11.761,26.5a30.638,30.638,0,0,0,6.333,3.569Zm11.715,97.759V703.118a3.984,3.984,0,0,0,2.647,1H879.8A126.449,126.449,0,0,1,856.81,732.679ZM902.2,652.405H874.539c1.192-3.978,1.7-6.156,2.625-10.183l.555-2.395a3.987,3.987,0,0,0-.348-2.729,89.8,89.8,0,0,0,20.487,2.145H902.2Zm5.552-56.133V582.02l4.6,14.194c.007.021.017.038.024.058Zm39.48-66.773h1.542a49.06,49.06,0,0,1-1.542,8.858Zm1.326,34.741a3.842,3.842,0,0,0-.133.387l-.052-.152c-.028-.082-.068-.156-.1-.235Zm2.585,139.879c-1.564,4.467-2.416,6.786-3.877,10.365a109.023,109.023,0,0,1-4.757-10.365Zm-18.857,93.343V787.437a90.83,90.83,0,0,0,7.382,9.579C937.313,797.227,935.284,797.355,932.289,797.462Zm5.63-240.411c-.186.248-.366.5-.557.745a3.993,3.993,0,0,0-.522,3.966H907.755v-.371a3.976,3.976,0,0,0-.636-2.151C919.514,558.637,929.609,557.916,937.919,557.051Z" fill="#fff"/><path id="ディスコグラフィ" d="M196.007,784.381c8.42-6.557,10.428-15.147,11.018-27.751.009-.109.013-.22.013-.331a4,4,0,0,0-4-4H161.588c13.9-4.831,24.2-11.5,31.872-20.573,10.625-11.9,13.877-31.362,13.376-80.006a4,4,0,0,0-4-3.959H135.385a204.029,204.029,0,0,0,20.326-4c18.121-4.59,31.274-11.112,38.038-18.861,10.473-11.851,12.827-22.831,12.577-58.722a4,4,0,0,0-4-3.972h-6.891a3.955,3.955,0,0,0,.508-1.915V533.678a4,4,0,0,0-4-4h-53.77a146.44,146.44,0,0,0,22.376-6.021l.143-.053c26.489-10.389,34.217-22.1,34.453-52.21v-32.14h7.6a4,4,0,0,0,4-4V415.649a3.963,3.963,0,0,0-.834-2.42,3.974,3.974,0,0,0,1.063-2.7V329.873c0-11.687-7.193-16.636-19.618-21.236-.051-.019-.1-.037-.156-.054-2.528-.819-4.818-1.511-7.031-2.1h22.468a4,4,0,0,0,3.118-6.506c-13.7-17.047-32.508-35.671-52-51.519,13.952-20.488,20.521-32.434,29.333-53.034a4,4,0,0,0-3.614-5.71H157.064a3.849,3.849,0,0,0,.045-.446V137.249c19.33-4.429,31.405-8.1,38.9-13.933,8.42-6.556,10.428-15.146,11.018-27.75.009-.11.013-.22.013-.332a4,4,0,0,0-4-4H150.225a4,4,0,0,0-3.968,3.491c-1.01,7.871-1.116,8.694-18.234,12.647l-4.988,1.122a43.433,43.433,0,0,0,4.188-3.583c8.368-8.177,11.354-15.489,12.706-32.376h61.607a4,4,0,0,0,4-4v-27.2a4,4,0,0,0-4-4H188.892a3.987,3.987,0,0,0,1.176-2.832V23.292H202.69a4,4,0,0,0,4-4V0H140.051V3.979a3.975,3.975,0,0,0-2.7-1.062H11.534a4,4,0,0,0-4,4V34.5A3.983,3.983,0,0,0,8.71,37.335H0v35.2H73.2c-.2,4.737-.5,6.144-1.283,7.332-.049.074-.1.15-.14.228-1.756,3.093-10.531,6.482-25.645,6.612H11.534a4,4,0,0,0-4,4v29.648a4,4,0,0,0,4,4H52.578L41.284,126.9a4,4,0,0,0-3.121,3.9v27.728a4,4,0,0,0,4.851,3.909l54.394-11.844v38.678a3.849,3.849,0,0,0,.045.446H11.372a4,4,0,0,0-4,4v28.988a4,4,0,0,0,4,4H99.334c-8.9,15.775-18.594,25.829-34.056,35.71-13.184,8.145-24.575,9.9-64.054,9.9A3.94,3.94,0,0,0,0,272.531v68.361H122.656c6.744.135,10.726.82,11.838,2.038.42.46.577,1.467.468,2.994-.006.1-.01.19-.01.285V377.05H.393a3.9,3.9,0,0,0-.393.04v37.4a3.9,3.9,0,0,0,.393.04H142.019a3.925,3.925,0,0,0-.178,1.117V418.8a3.979,3.979,0,0,0-2.249-.693H28a4,4,0,0,0-3.993,3.763c-.8,13.581-1.918,22.327-5.23,26.844-2.706,3.69-7.356,5.334-18.429,6.516-.121.013-.234.048-.352.071v37.482a3.916,3.916,0,0,0,1.183.06c22.327-2.28,42.172-6.985,54.448-12.909,11.4-5.58,17.709-12.914,22.554-26.53H131.8v21.686c-.173,17.316-4.624,23.412-53.823,23.671H15.506a4,4,0,0,0-4,4v26.922h-.171a4,4,0,0,0-4,4v26.617a3.956,3.956,0,0,0,.509,1.915H3.367A3.99,3.99,0,0,0,0,564.065v31.679A3.989,3.989,0,0,0,3.367,597.6H138.993a11.879,11.879,0,0,1-3.151,6.679c-6.509,6.843-23.61,9.914-57.183,10.266H11.335a4,4,0,0,0-4,4v28.031a3.941,3.941,0,0,0,.2,1.185H0v37.1H137.284c.059,1.963.059,3.586.059,4.551,0,22.761-5.77,29.692-28.065,33.713-10.588,1.853-19.9,2.361-43.283,2.361H11.307a4,4,0,0,0-4,4v29.354a4,4,0,0,0,4,4H68.512c33.605,0,58.429-1.985,77.639-6.228-.934,7.11-1.627,8.015-18.128,11.825L41.284,787.961a4,4,0,0,0-3.121,3.9v27.73a4,4,0,0,0,4.851,3.908l54.394-11.844V850h59.7V798.313C176.439,793.884,188.514,790.215,196.007,784.381Zm-116.5-480.97a101.819,101.819,0,0,0,17.064-5.591c6.557-2.923,10.713-5.427,22.673-13.849,11.417,11.452,13.068,13.273,17.574,19.44Z" fill="#fff"/></g></g><g id="Text"><g id="完全憑依ディスコグラフィ-2" data-name="完全憑依ディスコグラフィ"><g id="完"><path d="M797.852,12.681V72.04H815.5V94.817H982.135V72.04h16.753V12.681H925.4V0H872.012V12.681ZM949.075,51.333v6.672H846.323V51.333Z" fill="#000000"/><path d="M976.773,162.688H953.319V141.062h46.015V101.029H797.628v40.033h43.781c-3.574,15.644-19.21,23.467-45.345,23.467V211c59.865-2.761,88.233-23.467,96.721-69.941h10.052v42.792c-.894,16.336,8.935,24.158,31.272,24.619h37.974c12.8,0,21.515-2.315,27.917-7.331V155.085C994.525,160.411,987.355,162.688,976.773,162.688Z" fill="#000000"/></g><path id="全" d="M924.852,212.379H872.358c-21.219,20.477-46.014,34.971-76.393,45.325v49.465c11.169-2.3,17.87-4.832,33.729-11.5V310.85h42.442v9.663H809.144v42.334h62.992v14.034H797.528v44.174H998.341V376.881h-74.83V362.847h63.438V320.513H923.511V310.85h43.558V295.9c14.24,6.222,21.2,8.8,32.931,12.284V257.3C971.724,248.171,940.261,229.385,924.852,212.379Zm-52.716,60.739c9.381-6.442,13.848-10.353,26.134-22.547a186.723,186.723,0,0,0,25.912,22.547Z" fill="#000000"/><g id="憑"><path d="M846.678,479.484c1.128.231,5.189.921,9.25,1.841V438.071c-6.543-1.149-9.025-1.61-9.025-1.61l-19.175-3.451q-4.739-.69-29.78-4.831v42.793l8.347,1.381C819.831,474.653,833.367,477.184,846.678,479.484Z" fill="#000000"/><path d="M855.928,488.458a417.6,417.6,0,0,1-57.98,26v49.695c19.853-8.283,46.248-22.087,57.98-30.369Z" fill="#000000"/><path d="M865.854,525.5h87.083c0,12.194-4.062,23.928-12.409,34.741h48.73c7.95-12.364,10.3-21.345,10.742-46.9V502.032H968.729V497.2h28.425V479.255H968.729v-4.6h28.425V456.938H968.729v-4.832H1000V427.028H865.854Zm43.767-73.393h14.213v4.832H909.621Zm0,22.547h14.213v4.6H909.621Zm0,22.547h14.213v4.832H909.621Z" fill="#000000"/><path d="M943.235,527.8c-30.23,1.841-48.729,2.531-83.7,2.531v26.458c42.639-.921,67.23-2.3,83.7-4.371Z" fill="#000000"/><path d="M853.221,565.531H808.552c-5.641,29.449-8.8,41.413-17.147,66.951H841.94C847.806,606.024,851.416,583.707,853.221,565.531Z" fill="#000000"/><polygon points="916.163 594.98 954.516 594.98 944.589 565.762 906.687 565.762 916.163 594.98" fill="#000000"/><path d="M990.16,565.762h-37.9l9.7,29.218h37.45c-5.866,3.682-11.957,5.062-24.816,5.292H903.755V561.391H856.6v43.253c1.128,22.086,12.183,30.37,41.286,30.6h67.454c15.762-.208,27.974-2.7,34.656-6.935V593.029Z" fill="#000000"/></g><path id="依" d="M996.907,656.405H952.52V638.92H906.2v17.485h-37.1a161.067,161.067,0,0,0,4.717-17.485H828.578c-3.644,17.716-17.154,45.094-31.092,63.5v69.251a164.571,164.571,0,0,0,12.008-12.884v90.879H852.81V699.2a152.148,152.148,0,0,0,6.647-14.954v15.875h27.018c-6.433,13.114-16.94,26.689-29.163,37.5V798.13c7.077-4.142,15.01-12.424,26.375-27.149v32.67c-8.148.231-9.435.231-16.725.231V849.9c41.385-1.151,87.488-4.832,98.424-7.592V817c9.864,8.513,15.868,12.424,31.093,20.017V778.344c-10.293-5.523-14.368-8.743-22.3-17.486,9.863-19.556,18.87-39.112,25.3-55.908H955.093c-2.573,7.362-3.216,8.973-7.29,18.636a128.481,128.481,0,0,1-11.151-23.467h60.255Zm-48.89,143.8a185.482,185.482,0,0,1-19.728,1.381V772.132C934.293,784.325,938.582,790.308,948.017,800.2Z" fill="#000000"/><g id="デ"><polygon points="137.355 6.917 11.534 6.917 11.534 34.503 186.068 34.503 186.068 22.515 137.355 22.515 137.355 6.917" fill="#000000"/><rect x="144.051" width="25.626" height="19.292" fill="#000000"/><rect x="176.833" width="25.857" height="19.292" fill="#000000"/><path d="M75.252,82.07c-3,5.285-14.082,8.508-29.088,8.637H11.534v29.648H58.4c30.936-.258,54.023-6.574,66.028-18.305,8.311-8.121,10.62-14.953,11.774-33.515h65.335v-27.2H0v27.2H77.331C77.1,77.171,76.869,79.621,75.252,82.07Z" fill="#000000"/></g><path id="ィ" d="M128.923,111.269,42.163,130.8v27.728l59.245-12.9v43.643h51.7V134.055c42.382-9.524,48.817-14.588,49.927-38.821H150.225C148.894,105.6,146.674,107.17,128.923,111.269Z" fill="#000000"/><path id="ス" d="M148.372,249.256c15-21.805,21.84-33.862,31.106-55.539H11.372v28.988h94.642c-10.148,19.881-20.738,31.681-38.607,43.1C53.508,274.4,41.6,276.32,1.224,276.32v28.474h9.265c43.681,0,66.4-2.821,84.494-10.646,6.619-2.95,10.59-5.387,24.709-15.391,14.34,14.366,15.443,15.52,21.4,23.729h61.551C188.523,284.914,168.667,265.417,148.372,249.256Z" fill="#000000"/><path id="コ" d="M138.952,346.209V381.05H.393v29.482H202.979V329.873c0-8.551-4.251-12.763-17.006-17.485-13.006-4.211-19.259-4.977-43.769-4.977H0v29.481H122.7C135.7,337.147,139.453,339.189,138.952,346.209Z" fill="#000000"/><g id="グ"><path d="M75.317,449.4H135.8v25.686c-.223,22.335-10.713,27.423-57.8,27.671H15.506v26.927H59.918c58.026,0,76.549-1.862,99.313-9.8,25-9.8,31.691-20.1,31.915-48.518V438.356H139.592V422.1H28c-1.785,30.152-5.133,34.743-27.227,37.1v29.656c21.871-2.233,41.287-6.824,53.116-12.532C65.051,470.866,70.631,463.917,75.317,449.4Z" fill="#000000"/><rect x="145.841" y="415.649" width="25.219" height="19.605" fill="#000000"/><rect x="177.755" y="415.649" width="24.996" height="19.605" fill="#000000"/></g><g id="ラ"><rect x="11.335" y="533.678" width="180.608" height="26.617" fill="#000000"/><path d="M3.367,566.21V593.6h139.8c.725,18.258-15.453,24.43-64.468,24.945H11.335v28.031H94.154c44.669.129,83.785-9.643,96.582-24.3,9.658-10.929,11.831-21.344,11.59-56.063Z" fill="#000000"/></g><path id="フ" d="M141.343,689.41c0,24.632-7.292,33.31-31.355,37.65-10.937,1.914-20.659,2.424-43.993,2.424H11.307v29.354h55.66c70.244.128,105.487-8.423,123.473-29.736,9.723-10.849,12.882-30.12,12.4-77.341H0v29.1H141.1C141.343,684.561,141.343,687.879,141.343,689.41Z" fill="#000000"/><path id="ィ-2" data-name="ィ" d="M203.036,756.3H150.225c-1.331,10.368-3.551,11.935-21.3,16.034l-86.76,19.53v27.73l59.245-12.9V850h51.7V795.119C195.491,785.6,201.926,780.531,203.036,756.3Z" fill="#000000"/></g><path d="M312.084,809.842h-9.015v.761h7.655v9.245H306a14.709,14.709,0,0,0,6.455,3.251l-2.282,3.85a18.767,18.767,0,0,1-7.1-5.326v5.418h-3.827v-5.257a20.308,20.308,0,0,1-7.263,5.188l-2.213-3.8c4.219-1.245,5.695-2.583,6.525-3.32h-4.657V810.6h7.608v-.761H290.25v-3.3h8.992V805h3.827v1.544h9.015Zm-16.831,4.264h3.989v-.967h-3.989Zm0,3.206h3.989v-.946h-3.989Zm7.816-4.173v.967h4.1v-.967Zm0,3.227v.946h4.1v-.946Z" fill="#000000"/><path d="M322.764,816.9a14.558,14.558,0,0,1-7.424,10.168l-2.375-3.85c5.072-2.721,6.294-5.857,6.248-11.966H313.4v-3.735h8.9v-2.445h3.942v2.445h9.085v3.735H323.294c-.046.783-.046,1.291-.115,1.913h10.1a71.517,71.517,0,0,1-.807,10.214c-.184.945-.714,3.574-3.758,3.574h-5.187l-.807-3.92h3.9c1.061,0,1.5-.091,1.844-.991a21.36,21.36,0,0,0,.6-5.142Z" fill="#000000"/><path d="M338.239,826.765l-2.767-2.491a10.568,10.568,0,0,0,2.375-4.15l3.158,1.2A14.3,14.3,0,0,1,338.239,826.765Zm-.462-7.217-2.259-3.32a24.087,24.087,0,0,0,3.9-4.865l2.559,2.4A35.759,35.759,0,0,1,337.777,819.548Zm1.8-8.669a20.658,20.658,0,0,0-3.827-2.859l2.075-2.928a20.343,20.343,0,0,1,3.919,2.72Zm3.32,9.06-2.928-1.613a14.851,14.851,0,0,0,2.213-3.389l2.652,1.014A17.6,17.6,0,0,1,342.9,819.939Zm11.851,6.8a25.778,25.778,0,0,0-1.522-3.666c-.461,3.251-1.291,3.759-2.467,3.759h-7.609c-1.659,0-1.936-.992-1.936-1.522v-3.919h3.781v1.636c0,.324.115.6.646.6h3c.692,0,.715-.185.922-1.845l3.366.784a10.512,10.512,0,0,0-.991-1.337l3.159-1.292a26.409,26.409,0,0,1,3.066,5.142Zm-.484-6.755h-3.574c-.115-.553-.346-1.683-.53-2.4,0,.23.023.554.046.784l-1.937.207a17.091,17.091,0,0,0-.23-2.951l1.752-.161a12.456,12.456,0,0,1,.346,2.052h2.3c.922,0,.922-.807.969-2.582h-11v-9.246h14.479v2.237h-4.842v.6h4.265V810h-4.265v.691h4.265V812.1h-4.265v.76h5.05C356.822,818.1,356.707,819.986,354.263,819.986Zm-6.572,3.043a14.506,14.506,0,0,0-4.195-2.351l1.544-2.56c.069.024.115.046.185.07a11.366,11.366,0,0,0,.092-1.683c0-.369,0-.623-.023-.854l2.19-.091c.023.322.069.76.069,1.775a9.792,9.792,0,0,1-.069,1.476l-.784.068a21.179,21.179,0,0,1,2.721,1.591Zm.877-15.1h-2.583v.737h2.583Zm0,2.075h-2.583v.784h2.583Zm0,2.1h-2.583v.83h2.583Zm2.259,4.957a9.617,9.617,0,0,0-.392-1.614l1.614-.184a11.878,11.878,0,0,1,.461,1.613Z" fill="#000000"/><path d="M364.066,817.657V827h-3.573v-9.753a13.975,13.975,0,0,1-1.015,1.107l-.807-5.7a16.132,16.132,0,0,0,2.952-7.723l3.666.253a24.117,24.117,0,0,1-1.223,5.556v6.548a14.192,14.192,0,0,0,6-5.9h-4.888v-3.643h5.464v-2.7h3.828v2.7h6.34v3.643H374.7a20.877,20.877,0,0,0,.9,3.85,22.732,22.732,0,0,0,2.836-3.02l2.56,2.629a32.546,32.546,0,0,1-3.943,3.619,19.169,19.169,0,0,0,4.2,5.1l-2.4,3.435A23.436,23.436,0,0,1,372,814.43a19.4,19.4,0,0,1-1.384,1.936v6.156c1.384-.208,3.412-.53,4.127-.645l.323,3.3a79.158,79.158,0,0,1-9.614,1.545l-.576-3.551c.737-.046,1.083-.069,2.121-.185v-3a15.668,15.668,0,0,1-1.476,1.083Z" fill="#000000"/><path d="M386.5,809.91V809.1h-4.7v-3.09h4.7V805h3.758v1.014h4.888V805H399v1.014h4.658v3.09H399v.806h3.367v2.836h-1.638v.923h2.929v3h-2.929v.922h1.638v2.951h-7.724v.808h8.807v3.158h-8.807V827h-3.781v-2.49h-8.831v-3.158h8.831v-.808h-7.7v-2.951h1.591v-.922H381.8v-3h2.951v-.923h-1.591V809.91Zm1.96,2.836v1.038h2.4v-1.038Zm0,3.759v1.083h2.4v-1.083Zm6.686-6.6V809.1h-4.888v.806Zm-.507,2.836v1.038H397v-1.038Zm0,3.759v1.083H397v-1.083Z" fill="#000000"/><path d="M421.486,805.829a9.673,9.673,0,1,1-9.591,9.661A9.379,9.379,0,0,1,421.486,805.829Zm0,15.425c3.32,0,5.326-2.858,5.326-5.764a5.343,5.343,0,1,0-5.326,5.764Z" fill="#000000"/><path d="M438.021,806.2a7.6,7.6,0,0,1,3.712.669,5.48,5.48,0,0,1,2.928,5.049,5.055,5.055,0,0,1-3.574,5.072l5.142,7.817H441.18l-4.4-7.424h-.254v7.424h-4.2V806.2Zm-1.5,3.92v3.62h1.269c.991,0,2.605,0,2.605-1.844,0-1.753-1.66-1.776-2.605-1.776Z" fill="#000000"/><path d="M451.142,806.2v18.607h-4.311V806.2Z" fill="#000000"/><path d="M467.928,811.479a8.972,8.972,0,0,0-5.349-1.73c-4.381,0-6.087,2.928-6.087,5.811,0,2.167,1.037,5.694,6.041,5.694a6.383,6.383,0,0,0,2.7-.507v-3.066h-3.919v-3.712h8.115v9.8a16.817,16.817,0,0,1-6.824,1.406c-7.1,0-10.4-4.842-10.4-9.684,0-5.741,4.357-9.661,10.352-9.661a13.5,13.5,0,0,1,6.778,1.8Z" fill="#000000"/><path d="M475.586,806.2v18.607h-4.312V806.2Z" fill="#000000"/><path d="M481.973,806.2l7.632,11.874V806.2h4.265v18.607h-4.542L481.7,812.931v11.874h-4.266V806.2Z" fill="#000000"/><path d="M501.021,821.069l-1.2,3.736H495.1l6.709-18.607h5.257l6.709,18.607h-4.727l-1.2-3.736Zm5.671-3.6-2.259-6.986-2.26,6.986Z" fill="#000000"/><path d="M518.661,806.2v14.687h6.248v3.92H514.373V806.2Z" fill="#000000"/><path d="M543.935,811.018a7.111,7.111,0,0,0-3.712-1.269c-1.291,0-2.167.715-2.167,1.706,0,1.107.53,1.291,3.32,2.26,1.313.461,4.449,1.591,4.449,5.394,0,3.321-2.559,6.065-6.87,6.065a11.13,11.13,0,0,1-5.926-1.753l1.245-3.85a7.853,7.853,0,0,0,4.542,1.683c1.407,0,2.721-.6,2.721-1.821,0-1.337-1.36-1.822-2.905-2.375-1.937-.692-4.842-1.706-4.842-5.395,0-3.228,2.513-5.834,6.294-5.834a9.588,9.588,0,0,1,4.819,1.338Z" fill="#000000"/><path d="M556.5,805.829a9.673,9.673,0,1,1-9.592,9.661A9.379,9.379,0,0,1,556.5,805.829Zm0,15.425c3.319,0,5.325-2.858,5.325-5.764a5.342,5.342,0,1,0-5.325,5.764Z" fill="#000000"/><path d="M583.527,806.2V816.92c0,1.844,0,8.254-8.046,8.254-8.023,0-8.023-6.433-8.023-8.254V806.2h4.265v10.56c0,1.638,0,4.5,3.758,4.5s3.758-2.858,3.758-4.5V806.2Z" fill="#000000"/><path d="M589.688,806.2l7.631,11.874V806.2h4.266v18.607h-4.542l-7.632-11.874v11.874h-4.265V806.2Z" fill="#000000"/><path d="M603.108,806.2h7.171a11.45,11.45,0,0,1,4.588.693c4.035,1.5,5.211,5.509,5.211,8.622,0,1.522-.3,6.71-5.187,8.6a12.5,12.5,0,0,1-4.773.692h-7.01Zm4.266,14.687h2.26c2.675,0,6.178,0,6.178-5.395,0-5.349-3.5-5.372-6.063-5.372h-2.375Z" fill="#000000"/><path d="M638.228,824.805h-4.266V810.118h-5.51V806.2h15.286v3.92h-5.51Z" fill="#000000"/><path d="M650.5,806.2a7.6,7.6,0,0,1,3.712.669,5.48,5.48,0,0,1,2.928,5.049,5.056,5.056,0,0,1-3.574,5.072l5.142,7.817h-5.05l-4.4-7.424H649v7.424h-4.2V806.2Zm-1.5,3.92v3.62h1.269c.991,0,2.6,0,2.6-1.844,0-1.753-1.66-1.776-2.6-1.776Z" fill="#000000"/><path d="M663.918,821.069l-1.2,3.736h-4.727L664.7,806.2h5.257l6.709,18.607h-4.727l-1.2-3.736Zm5.672-3.6-2.26-6.986-2.26,6.986Z" fill="#000000"/><path d="M692.718,823.836a13.664,13.664,0,0,1-6.04,1.338c-6.78,0-9.984-4.727-9.984-9.661,0-5.9,4.38-9.684,9.96-9.684a11.287,11.287,0,0,1,6.064,1.775l-1.383,3.92a6.494,6.494,0,0,0-4.635-1.775,5.394,5.394,0,0,0-5.718,5.764c0,3.09,1.914,5.741,5.972,5.741a10.184,10.184,0,0,0,5.764-1.937Z" fill="#000000"/><path d="M698.509,814.106,704.3,806.2h5.142l-6.71,8.693,7.286,9.914h-5.326l-6.179-9.084v9.084h-4.288V806.2h4.288Z" fill="#000000"/></g></svg>
