<svg xmlns="http://www.w3.org/2000/svg" width="1000" height="850" viewBox="0 0 1000 850"><g id="Artboard"><rect id="Tint" width="1000" height="850" fill="#58595b"/></g><g id="Outline"><g id="東方憑依華_ORIGINAL_SOUND_TRACK" data-name="東方憑依華 ORIGINAL SOUND TRACK"><path id="東方憑依華" d="M403.658,802.014h-2A3.984,3.984,0,0,0,399,801h-3.85a3.986,3.986,0,0,0-2.444.833,3.986,3.986,0,0,0-2.444-.833H386.5a3.982,3.982,0,0,0-2.661,1.014H381.8a3.993,3.993,0,0,0-3.289,1.729h-.264a4,4,0,0,0-3.783-2.7h-3.828a3.99,3.99,0,0,0-2.751,1.1,4,4,0,0,0-2.322-.949l-3.666-.253c-.093-.006-.187-.009-.279-.009a3.975,3.975,0,0,0-2.869,1.239,3.948,3.948,0,0,0-1.859-.479H342.412a3.991,3.991,0,0,0-1.76.407c-.382-.227-.7-.4-.931-.528a4,4,0,0,0-5.161,1.209l-.52.734h-4.109a4,4,0,0,0-3.686-2.445H322.3a4,4,0,0,0-3.686,2.445h-3.95a3.963,3.963,0,0,0-2.583-.969h-5.857A3.992,3.992,0,0,0,303.069,801h-3.827a3.992,3.992,0,0,0-3.157,1.544H290.25a4,4,0,0,0-4,4v3.3a3.988,3.988,0,0,0,1.384,3.025v6.917a4,4,0,0,0-1.325,5.4l2.213,3.8a4,4,0,0,0,5.018,1.672,24.757,24.757,0,0,0,2.489-1.231,4,4,0,0,0,3.213,1.617h3.827a3.994,3.994,0,0,0,3.2-1.6c.68.388,1.422.771,2.232,1.143a3.975,3.975,0,0,0,4.184-.533,3.988,3.988,0,0,0,4.708.446,24.366,24.366,0,0,0,2.556-1.753,4,4,0,0,0,3.575,2.2h5.187a7.686,7.686,0,0,0,5.581-2.354l1.27,1.143a4,4,0,0,0,2.676,1.027c.1,0,.2,0,.3-.012a4,4,0,0,0,1.72-.537,6.582,6.582,0,0,0,2.888.618h7.609a6.229,6.229,0,0,0,2.374-.433q.057.026.114.048a4,4,0,0,0,3.25-.111l1.137-.553a3.98,3.98,0,0,0,2.86,1.21h3.573a3.986,3.986,0,0,0,1.466-.277c.1,0,.192-.007.288-.016a85.462,85.462,0,0,0,9.564-1.494q.357.361.729.708A4,4,0,0,0,378.845,831a3.9,3.9,0,0,0,.418-.022,4,4,0,0,0,2.862-1.688l.544-.78h4.488a4,4,0,0,0,3.705,2.49h3.781a4,4,0,0,0,3.705-2.49h5.1a4,4,0,0,0,4-4v-3.158a4,4,0,0,1,.208-4.681v-3a4,4,0,0,1,0-4.565v-3.09A4,4,0,0,0,403.658,802.014Zm-88.934,13.234h.2a7.409,7.409,0,0,1-.2.747Z" fill="#fff"/><path id="ORIGINAL" d="M524.909,816.885h-2.248V806.2a4,4,0,0,0-4-4h-4.288a4,4,0,0,0-3.66,2.4,3.992,3.992,0,0,0-3.651-2.4h-5.257a4,4,0,0,0-3.763,2.643l-.241.669a3.994,3.994,0,0,0-3.931-3.312h-4.265a4,4,0,0,0-3.759,2.628l-.508-.79a4,4,0,0,0-3.365-1.838h-4.542a3.665,3.665,0,0,1-1.845,0h-4.312a3.962,3.962,0,0,0-2.39.81,17.262,17.262,0,0,0-6.328-1.179A15.354,15.354,0,0,0,454.479,804a3.994,3.994,0,0,0-3.337-1.8h-4.311a3.973,3.973,0,0,0-2.942,1.31c-.112-.063-.212-.139-.326-.2a11.433,11.433,0,0,0-5.542-1.112h-5.695A4,4,0,0,0,429,803.977a13.833,13.833,0,0,0-7.515-2.148,13.673,13.673,0,0,0,0,27.345A13.817,13.817,0,0,0,429,827.023a3.992,3.992,0,0,0,3.326,1.782h4.2a3.979,3.979,0,0,0,2.329-.748,4,4,0,0,0,2.329.748h5.049c.121,0,.24-.014.359-.025.081,0,.159.025.243.025h4.311a3.991,3.991,0,0,0,3.338-1.8,15.158,15.158,0,0,0,8.122,2.172,21.046,21.046,0,0,0,6.505-1.015,3.971,3.971,0,0,0,2.167.646h4.312a3.665,3.665,0,0,1,1.845,0H481.7a4,4,0,0,0,3.758-2.628l.508.79a4,4,0,0,0,3.365,1.838h4.542a4,4,0,0,0,.582-.059,3.944,3.944,0,0,0,.644.059h4.726a4,4,0,0,0,3.808-2.778l.308-.958h.99l.307.958a4,4,0,0,0,3.809,2.778h4.727c.126,0,.251-.011.376-.023.076,0,.148.023.226.023h10.536a4,4,0,0,0,4-4v-3.92A4,4,0,0,0,524.909,816.885Zm-103.423-3.136c1.29,0,1.326,1.724,1.326,1.741s-.036,1.764-1.326,1.764c-1.082,0-1.326-1.306-1.326-1.764S420.4,813.749,421.486,813.749Z" fill="#fff"/><path id="SOUND" d="M616.259,803.141a15.245,15.245,0,0,0-5.98-.943h-7.171a3.8,3.8,0,0,1-1.523,0h-4.266a4,4,0,0,0-3.758,2.628l-.509-.79a4,4,0,0,0-3.365-1.838h-4.541a4.037,4.037,0,0,1-1.619,0h-4.288a4,4,0,0,0-3.758,2.628,4,4,0,0,0-3.758-2.628h-4.265a3.989,3.989,0,0,0-3.353,1.831,13.829,13.829,0,0,0-7.6-2.2,13.654,13.654,0,0,0-8.485,2.847,3.979,3.979,0,0,0-1.158-1,13.567,13.567,0,0,0-6.776-1.849c-5.869,0-10.294,4.228-10.294,9.834a8.7,8.7,0,0,0,1.55,5.19,4,4,0,0,0-.871,1.487l-1.246,3.85a4,4,0,0,0,1.747,4.66,15.024,15.024,0,0,0,7.985,2.324,11.115,11.115,0,0,0,8.373-3.436,13.986,13.986,0,0,0,18.805-.4c2.064,2.472,5.253,3.837,9.348,3.837a13.3,13.3,0,0,0,6.752-1.643,3.98,3.98,0,0,0,2.913,1.274h4.265a4,4,0,0,0,3.759-2.628l.508.79a4,4,0,0,0,3.365,1.838h4.542a3.8,3.8,0,0,1,1.523,0h7.01a16.587,16.587,0,0,0,6.225-.965c4.84-1.872,7.735-6.482,7.735-12.327C624.078,809.583,621.155,804.958,616.259,803.141Zm-4.447,12.349a4.136,4.136,0,0,1-.146,1.268,2.072,2.072,0,0,1-.292.057v-2.63a2.088,2.088,0,0,1,.293.057A4.042,4.042,0,0,1,611.812,815.49ZM556.5,813.749c1.289,0,1.325,1.724,1.325,1.741s-.036,1.764-1.325,1.764c-1.083,0-1.326-1.306-1.326-1.764S555.42,813.749,556.5,813.749Z" fill="#fff"/><path id="TRACK" d="M713.237,822.436l-5.5-7.486,4.807-6.227a4,4,0,0,0-3.1-6.525H704.3a4,4,0,0,1-5.787,0h-4.288a3.973,3.973,0,0,0-2.142.632,15.212,15.212,0,0,0-5.425-1,13.66,13.66,0,0,0-11.817,6.106l-1.115-3.094a4,4,0,0,0-3.763-2.643H664.7a4,4,0,0,0-3.763,2.643l-.9,2.492a9.209,9.209,0,0,0-4-4.023A11.433,11.433,0,0,0,650.5,802.2H644.8a2.648,2.648,0,0,1-1.064,0H628.452a4,4,0,0,0-4,4v3.92a4,4,0,0,0,4,4h1.51v10.687a4,4,0,0,0,4,4h4.266a3.994,3.994,0,0,0,3.287-1.728,3.993,3.993,0,0,0,3.287,1.728H649a4,4,0,0,1,4.657,0h9.064a4,4,0,0,0,3.808-2.778l.308-.958h.99l.308.958a4,4,0,0,0,3.808,2.778h4.727a4,4,0,0,0,2.918-1.269,15,15,0,0,0,7.092,1.638,17.673,17.673,0,0,0,5.628-.878,3.956,3.956,0,0,0,1.915.509h4.288a4,4,0,0,1,6.178,0h5.327a4,4,0,0,0,3.223-6.369Zm-23.016-6.269a5.879,5.879,0,0,1-3.267,1.087c-1.456,0-1.972-.456-1.972-1.741,0-1.628.849-1.764,1.718-1.764a2.531,2.531,0,0,1,1.934.726,3.984,3.984,0,0,0,1.587.874Z" fill="#fff"/></g></g><g id="Text"><g id="完全憑依ディスコグラフィ"><g id="完"><path d="M797.852,12.681V72.04H815.5V94.817H982.135V72.04h16.753V12.681H925.4V0H872.012V12.681ZM949.075,51.333v6.672H846.323V51.333Z" fill="#000000"/><path d="M976.773,162.688H953.319V141.062h46.015V101.029H797.628v40.033h43.781c-3.574,15.644-19.21,23.467-45.345,23.467V211c59.865-2.761,88.233-23.467,96.721-69.941h10.052v42.792c-.894,16.336,8.935,24.158,31.272,24.619h37.974c12.8,0,21.515-2.315,27.917-7.331V155.085C994.525,160.411,987.355,162.688,976.773,162.688Z" fill="#000000"/></g><path id="全" d="M924.852,212.379H872.358c-21.219,20.477-46.014,34.971-76.393,45.325v49.465c11.169-2.3,17.87-4.832,33.729-11.5V310.85h42.442v9.663H809.144v42.334h62.992v14.034H797.528v44.174H998.341V376.881h-74.83V362.847h63.438V320.513H923.511V310.85h43.558V295.9c14.24,6.222,21.2,8.8,32.931,12.284V257.3C971.724,248.171,940.261,229.385,924.852,212.379Zm-52.716,60.739c9.381-6.442,13.848-10.353,26.134-22.547a186.723,186.723,0,0,0,25.912,22.547Z" fill="#000000"/><g id="憑"><path d="M846.678,479.484c1.128.231,5.189.921,9.25,1.841V438.071c-6.543-1.149-9.025-1.61-9.025-1.61l-19.175-3.451q-4.739-.69-29.78-4.831v42.793l8.347,1.381C819.831,474.653,833.367,477.184,846.678,479.484Z" fill="#000000"/><path d="M855.928,488.458a417.6,417.6,0,0,1-57.98,26v49.695c19.853-8.283,46.248-22.087,57.98-30.369Z" fill="#000000"/><path d="M865.854,525.5h87.083c0,12.194-4.062,23.928-12.409,34.741h48.73c7.95-12.364,10.3-21.345,10.742-46.9V502.032H968.729V497.2h28.425V479.255H968.729v-4.6h28.425V456.938H968.729v-4.832H1000V427.028H865.854Zm43.767-73.393h14.213v4.832H909.621Zm0,22.547h14.213v4.6H909.621Zm0,22.547h14.213v4.832H909.621Z" fill="#000000"/><path d="M943.235,527.8c-30.23,1.841-48.729,2.531-83.7,2.531v26.458c42.639-.921,67.23-2.3,83.7-4.371Z" fill="#000000"/><path d="M853.221,565.531H808.552c-5.641,29.449-8.8,41.413-17.147,66.951H841.94C847.806,606.024,851.416,583.707,853.221,565.531Z" fill="#000000"/><polygon points="916.163 594.98 954.516 594.98 944.589 565.762 906.687 565.762 916.163 594.98" fill="#000000"/><path d="M990.16,565.762h-37.9l9.7,29.218h37.45c-5.866,3.682-11.957,5.062-24.816,5.292H903.755V561.391H856.6v43.253c1.128,22.086,12.183,30.37,41.286,30.6h67.454c15.762-.208,27.974-2.7,34.656-6.935V593.029Z" fill="#000000"/></g><path id="依" d="M996.907,656.405H952.52V638.92H906.2v17.485h-37.1a161.067,161.067,0,0,0,4.717-17.485H828.578c-3.644,17.716-17.154,45.094-31.092,63.5v69.251a164.571,164.571,0,0,0,12.008-12.884v90.879H852.81V699.2a152.148,152.148,0,0,0,6.647-14.954v15.875h27.018c-6.433,13.114-16.94,26.689-29.163,37.5V798.13c7.077-4.142,15.01-12.424,26.375-27.149v32.67c-8.148.231-9.435.231-16.725.231V849.9c41.385-1.151,87.488-4.832,98.424-7.592V817c9.864,8.513,15.868,12.424,31.093,20.017V778.344c-10.293-5.523-14.368-8.743-22.3-17.486,9.863-19.556,18.87-39.112,25.3-55.908H955.093c-2.573,7.362-3.216,8.973-7.29,18.636a128.481,128.481,0,0,1-11.151-23.467h60.255Zm-48.89,143.8a185.482,185.482,0,0,1-19.728,1.381V772.132C934.293,784.325,938.582,790.308,948.017,800.2Z" fill="#000000"/><g id="デ"><polygon points="137.355 6.917 11.534 6.917 11.534 34.503 186.068 34.503 186.068 22.515 137.355 22.515 137.355 6.917" fill="#000000"/><rect x="144.051" width="25.626" height="19.292" fill="#000000"/><rect x="176.833" width="25.857" height="19.292" fill="#000000"/><path d="M75.252,82.07c-3,5.285-14.082,8.508-29.088,8.637H11.534v29.648H58.4c30.936-.258,54.023-6.574,66.028-18.305,8.311-8.121,10.62-14.953,11.774-33.515h65.335v-27.2H0v27.2H77.331C77.1,77.171,76.869,79.621,75.252,82.07Z" fill="#000000"/></g><path id="ィ" d="M128.923,111.269,42.163,130.8v27.728l59.245-12.9v43.643h51.7V134.055c42.382-9.524,48.817-14.588,49.927-38.821H150.225C148.894,105.6,146.674,107.17,128.923,111.269Z" fill="#000000"/><path id="ス" d="M148.372,249.256c15-21.805,21.84-33.862,31.106-55.539H11.372v28.988h94.642c-10.148,19.881-20.738,31.681-38.607,43.1C53.508,274.4,41.6,276.32,1.224,276.32v28.474h9.265c43.681,0,66.4-2.821,84.494-10.646,6.619-2.95,10.59-5.387,24.709-15.391,14.34,14.366,15.443,15.52,21.4,23.729h61.551C188.523,284.914,168.667,265.417,148.372,249.256Z" fill="#000000"/><path id="コ" d="M138.952,346.209V381.05H.393v29.482H202.979V329.873c0-8.551-4.251-12.763-17.006-17.485-13.006-4.211-19.259-4.977-43.769-4.977H0v29.481H122.7C135.7,337.147,139.453,339.189,138.952,346.209Z" fill="#000000"/><g id="グ"><path d="M75.317,449.4H135.8v25.686c-.223,22.335-10.713,27.423-57.8,27.671H15.506v26.927H59.918c58.026,0,76.549-1.862,99.313-9.8,25-9.8,31.691-20.1,31.915-48.518V438.356H139.592V422.1H28c-1.785,30.152-5.133,34.743-27.227,37.1v29.656c21.871-2.233,41.287-6.824,53.116-12.532C65.051,470.866,70.631,463.917,75.317,449.4Z" fill="#000000"/><rect x="145.841" y="415.649" width="25.219" height="19.605" fill="#000000"/><rect x="177.755" y="415.649" width="24.996" height="19.605" fill="#000000"/></g><g id="ラ"><rect x="11.335" y="533.678" width="180.608" height="26.617" fill="#000000"/><path d="M3.367,566.21V593.6h139.8c.725,18.258-15.453,24.43-64.468,24.945H11.335v28.031H94.154c44.669.129,83.785-9.643,96.582-24.3,9.658-10.929,11.831-21.344,11.59-56.063Z" fill="#000000"/></g><path id="フ" d="M141.343,689.41c0,24.632-7.292,33.31-31.355,37.65-10.937,1.914-20.659,2.424-43.993,2.424H11.307v29.354h55.66c70.244.128,105.487-8.423,123.473-29.736,9.723-10.849,12.882-30.12,12.4-77.341H0v29.1H141.1C141.343,684.561,141.343,687.879,141.343,689.41Z" fill="#000000"/><path id="ィ-2" data-name="ィ" d="M203.036,756.3H150.225c-1.331,10.368-3.551,11.935-21.3,16.034l-86.76,19.53v27.73l59.245-12.9V850h51.7V795.119C195.491,785.6,201.926,780.531,203.036,756.3Z" fill="#000000"/></g><path d="M312.084,809.842h-9.015v.761h7.655v9.245H306a14.709,14.709,0,0,0,6.455,3.251l-2.282,3.85a18.767,18.767,0,0,1-7.1-5.326v5.418h-3.827v-5.257a20.308,20.308,0,0,1-7.263,5.188l-2.213-3.8c4.219-1.245,5.695-2.583,6.525-3.32h-4.657V810.6h7.608v-.761H290.25v-3.3h8.992V805h3.827v1.544h9.015Zm-16.831,4.264h3.989v-.967h-3.989Zm0,3.206h3.989v-.946h-3.989Zm7.816-4.173v.967h4.1v-.967Zm0,3.227v.946h4.1v-.946Z" fill="#000000"/><path d="M322.764,816.9a14.558,14.558,0,0,1-7.424,10.168l-2.375-3.85c5.072-2.721,6.294-5.857,6.248-11.966H313.4v-3.735h8.9v-2.445h3.942v2.445h9.085v3.735H323.294c-.046.783-.046,1.291-.115,1.913h10.1a71.517,71.517,0,0,1-.807,10.214c-.184.945-.714,3.574-3.758,3.574h-5.187l-.807-3.92h3.9c1.061,0,1.5-.091,1.844-.991a21.36,21.36,0,0,0,.6-5.142Z" fill="#000000"/><path d="M338.239,826.765l-2.767-2.491a10.568,10.568,0,0,0,2.375-4.15l3.158,1.2A14.3,14.3,0,0,1,338.239,826.765Zm-.462-7.217-2.259-3.32a24.087,24.087,0,0,0,3.9-4.865l2.559,2.4A35.759,35.759,0,0,1,337.777,819.548Zm1.8-8.669a20.658,20.658,0,0,0-3.827-2.859l2.075-2.928a20.343,20.343,0,0,1,3.919,2.72Zm3.32,9.06-2.928-1.613a14.851,14.851,0,0,0,2.213-3.389l2.652,1.014A17.6,17.6,0,0,1,342.9,819.939Zm11.851,6.8a25.778,25.778,0,0,0-1.522-3.666c-.461,3.251-1.291,3.759-2.467,3.759h-7.609c-1.659,0-1.936-.992-1.936-1.522v-3.919h3.781v1.636c0,.324.115.6.646.6h3c.692,0,.715-.185.922-1.845l3.366.784a10.512,10.512,0,0,0-.991-1.337l3.159-1.292a26.409,26.409,0,0,1,3.066,5.142Zm-.484-6.755h-3.574c-.115-.553-.346-1.683-.53-2.4,0,.23.023.554.046.784l-1.937.207a17.091,17.091,0,0,0-.23-2.951l1.752-.161a12.456,12.456,0,0,1,.346,2.052h2.3c.922,0,.922-.807.969-2.582h-11v-9.246h14.479v2.237h-4.842v.6h4.265V810h-4.265v.691h4.265V812.1h-4.265v.76h5.05C356.822,818.1,356.707,819.986,354.263,819.986Zm-6.572,3.043a14.506,14.506,0,0,0-4.195-2.351l1.544-2.56c.069.024.115.046.185.07a11.366,11.366,0,0,0,.092-1.683c0-.369,0-.623-.023-.854l2.19-.091c.023.322.069.76.069,1.775a9.792,9.792,0,0,1-.069,1.476l-.784.068a21.179,21.179,0,0,1,2.721,1.591Zm.877-15.1h-2.583v.737h2.583Zm0,2.075h-2.583v.784h2.583Zm0,2.1h-2.583v.83h2.583Zm2.259,4.957a9.617,9.617,0,0,0-.392-1.614l1.614-.184a11.878,11.878,0,0,1,.461,1.613Z" fill="#000000"/><path d="M364.066,817.657V827h-3.573v-9.753a13.975,13.975,0,0,1-1.015,1.107l-.807-5.7a16.132,16.132,0,0,0,2.952-7.723l3.666.253a24.117,24.117,0,0,1-1.223,5.556v6.548a14.192,14.192,0,0,0,6-5.9h-4.888v-3.643h5.464v-2.7h3.828v2.7h6.34v3.643H374.7a20.877,20.877,0,0,0,.9,3.85,22.732,22.732,0,0,0,2.836-3.02l2.56,2.629a32.546,32.546,0,0,1-3.943,3.619,19.169,19.169,0,0,0,4.2,5.1l-2.4,3.435A23.436,23.436,0,0,1,372,814.43a19.4,19.4,0,0,1-1.384,1.936v6.156c1.384-.208,3.412-.53,4.127-.645l.323,3.3a79.158,79.158,0,0,1-9.614,1.545l-.576-3.551c.737-.046,1.083-.069,2.121-.185v-3a15.668,15.668,0,0,1-1.476,1.083Z" fill="#000000"/><path d="M386.5,809.91V809.1h-4.7v-3.09h4.7V805h3.758v1.014h4.888V805H399v1.014h4.658v3.09H399v.806h3.367v2.836h-1.638v.923h2.929v3h-2.929v.922h1.638v2.951h-7.724v.808h8.807v3.158h-8.807V827h-3.781v-2.49h-8.831v-3.158h8.831v-.808h-7.7v-2.951h1.591v-.922H381.8v-3h2.951v-.923h-1.591V809.91Zm1.96,2.836v1.038h2.4v-1.038Zm0,3.759v1.083h2.4v-1.083Zm6.686-6.6V809.1h-4.888v.806Zm-.507,2.836v1.038H397v-1.038Zm0,3.759v1.083H397v-1.083Z" fill="#000000"/><path d="M421.486,805.829a9.673,9.673,0,1,1-9.591,9.661A9.379,9.379,0,0,1,421.486,805.829Zm0,15.425c3.32,0,5.326-2.858,5.326-5.764a5.343,5.343,0,1,0-5.326,5.764Z" fill="#000000"/><path d="M438.021,806.2a7.6,7.6,0,0,1,3.712.669,5.48,5.48,0,0,1,2.928,5.049,5.055,5.055,0,0,1-3.574,5.072l5.142,7.817H441.18l-4.4-7.424h-.254v7.424h-4.2V806.2Zm-1.5,3.92v3.62h1.269c.991,0,2.605,0,2.605-1.844,0-1.753-1.66-1.776-2.605-1.776Z" fill="#000000"/><path d="M451.142,806.2v18.607h-4.311V806.2Z" fill="#000000"/><path d="M467.928,811.479a8.972,8.972,0,0,0-5.349-1.73c-4.381,0-6.087,2.928-6.087,5.811,0,2.167,1.037,5.694,6.041,5.694a6.383,6.383,0,0,0,2.7-.507v-3.066h-3.919v-3.712h8.115v9.8a16.817,16.817,0,0,1-6.824,1.406c-7.1,0-10.4-4.842-10.4-9.684,0-5.741,4.357-9.661,10.352-9.661a13.5,13.5,0,0,1,6.778,1.8Z" fill="#000000"/><path d="M475.586,806.2v18.607h-4.312V806.2Z" fill="#000000"/><path d="M481.973,806.2l7.632,11.874V806.2h4.265v18.607h-4.542L481.7,812.931v11.874h-4.266V806.2Z" fill="#000000"/><path d="M501.021,821.069l-1.2,3.736H495.1l6.709-18.607h5.257l6.709,18.607h-4.727l-1.2-3.736Zm5.671-3.6-2.259-6.986-2.26,6.986Z" fill="#000000"/><path d="M518.661,806.2v14.687h6.248v3.92H514.373V806.2Z" fill="#000000"/><path d="M543.935,811.018a7.111,7.111,0,0,0-3.712-1.269c-1.291,0-2.167.715-2.167,1.706,0,1.107.53,1.291,3.32,2.26,1.313.461,4.449,1.591,4.449,5.394,0,3.321-2.559,6.065-6.87,6.065a11.13,11.13,0,0,1-5.926-1.753l1.245-3.85a7.853,7.853,0,0,0,4.542,1.683c1.407,0,2.721-.6,2.721-1.821,0-1.337-1.36-1.822-2.905-2.375-1.937-.692-4.842-1.706-4.842-5.395,0-3.228,2.513-5.834,6.294-5.834a9.588,9.588,0,0,1,4.819,1.338Z" fill="#000000"/><path d="M556.5,805.829a9.673,9.673,0,1,1-9.592,9.661A9.379,9.379,0,0,1,556.5,805.829Zm0,15.425c3.319,0,5.325-2.858,5.325-5.764a5.342,5.342,0,1,0-5.325,5.764Z" fill="#000000"/><path d="M583.527,806.2V816.92c0,1.844,0,8.254-8.046,8.254-8.023,0-8.023-6.433-8.023-8.254V806.2h4.265v10.56c0,1.638,0,4.5,3.758,4.5s3.758-2.858,3.758-4.5V806.2Z" fill="#000000"/><path d="M589.688,806.2l7.631,11.874V806.2h4.266v18.607h-4.542l-7.632-11.874v11.874h-4.265V806.2Z" fill="#000000"/><path d="M603.108,806.2h7.171a11.45,11.45,0,0,1,4.588.693c4.035,1.5,5.211,5.509,5.211,8.622,0,1.522-.3,6.71-5.187,8.6a12.5,12.5,0,0,1-4.773.692h-7.01Zm4.266,14.687h2.26c2.675,0,6.178,0,6.178-5.395,0-5.349-3.5-5.372-6.063-5.372h-2.375Z" fill="#000000"/><path d="M638.228,824.805h-4.266V810.118h-5.51V806.2h15.286v3.92h-5.51Z" fill="#000000"/><path d="M650.5,806.2a7.6,7.6,0,0,1,3.712.669,5.48,5.48,0,0,1,2.928,5.049,5.056,5.056,0,0,1-3.574,5.072l5.142,7.817h-5.05l-4.4-7.424H649v7.424h-4.2V806.2Zm-1.5,3.92v3.62h1.269c.991,0,2.6,0,2.6-1.844,0-1.753-1.66-1.776-2.6-1.776Z" fill="#000000"/><path d="M663.918,821.069l-1.2,3.736h-4.727L664.7,806.2h5.257l6.709,18.607h-4.727l-1.2-3.736Zm5.672-3.6-2.26-6.986-2.26,6.986Z" fill="#000000"/><path d="M692.718,823.836a13.664,13.664,0,0,1-6.04,1.338c-6.78,0-9.984-4.727-9.984-9.661,0-5.9,4.38-9.684,9.96-9.684a11.287,11.287,0,0,1,6.064,1.775l-1.383,3.92a6.494,6.494,0,0,0-4.635-1.775,5.394,5.394,0,0,0-5.718,5.764c0,3.09,1.914,5.741,5.972,5.741a10.184,10.184,0,0,0,5.764-1.937Z" fill="#000000"/><path d="M698.509,814.106,704.3,806.2h5.142l-6.71,8.693,7.286,9.914h-5.326l-6.179-9.084v9.084h-4.288V806.2h4.288Z" fill="#000000"/></g></svg>
