<svg xmlns="http://www.w3.org/2000/svg" width="1000" height="992" viewBox="0 0 1000 992"><g id="Artboard"><rect id="Page" width="1000" height="992" fill="#fff"/></g><g id="Text"><g id="深秘的楽曲集_宇佐見菫子と秘密の部室" data-name="深秘的楽曲集 宇佐見菫子と秘密の部室"><path d="M320.368,844.1c-.848,0-6.035,0-6.035-6.225,0-3.49,1.7-5.753,2.829-5.753,1.933,0,9.241,5.753,9.241,9.431C326.4,844.1,321.406,844.1,320.368,844.1Zm6.743,15.561c0,3.4-6.13,14.808-8.817,14.808-1.226,0-3.159-1.7-3.159-5.282,0-.943,0-3.49,1.886-4.622,4.2-2.546,8.3-5.281,9.241-6.036C326.639,858.533,327.111,858.628,327.111,859.665ZM324.8,821.656c-1.98,0-8.156-2.64-8.156-7.922,0-3.112,1.461-5.659,3.064-5.659,3.207,0,6.083,10.375,6.083,11.979S324.989,821.656,324.8,821.656Zm13.391,38.2c-6.365,14.9-12.118,18.391-14.616,18.391-.189,0-.66,0-.66-.849,0-.565.188-.754,1.178-1.98a62.215,62.215,0,0,0,10.656-22.541c.472-2.452.754-3.962,2.4-3.962a5.449,5.449,0,0,1,1.179.283V847.4l-6.177.1c-.472,0-2.546,1.6-3.018,1.6-.613,0-1.414-.661-1.414-2.453,0-2.17.754-4.15,2.027-4.15.236,0,1.32.472,1.556.472h6.931c0-1.227,0-2.358-.047-2.924-.047-.377-.707-1.792-.707-2.169,0-2.075,2.593-5.376,3.913-5.376.142,0,2.122,0,2.122,2.829,0,1.132-.283,6.508-.283,7.545h6.035c.33-1.132,1.038-3.773,2.311-3.773,1.131,0,3.206,2.831,3.206,5.66,0,2.547-1.887,2.547-2.311,2.547h-8.628c3.065,9.336,7.874,15,13.956,19.24.33.282,1.792,1.131,2.075,1.32a.816.816,0,0,1,.377.754c0,.755-4.527,7.356-6.318,7.356-1.65,0-7.827-7.45-10.844-23.2.047,2.641.282,14.241.329,16.6.048,1.32.236,7.073.236,8.3,0,3.206-2.452,5.941-3.819,5.941-.471,0-2.074-.754-2.074-4.621,0-1.509.188-8.205.235-9.526Zm-5.564-45.931c-.471,5.848-1.084,9.714-1.178,10.185-.378,2.17-.849,2.736-1.415,2.736-1.084,0-1.367-1.886-1.509-2.641-.141-.66-1.744-10-1.744-11.6,0-2.924,1.178-6.037,3.112-6.037,1.131,0,2.263.754,2.687,2.83h17.87c.613-2.264,1.886-3.49,2.781-3.49,1.745,0,3.3,2.829,3.3,5.942,0,2.452-2.216,10.091-2.97,12.072-.236.566-.566,1.32-1.462,1.32-.66,0-1.037-.66-1.179-1.7-.235-1.227-.424-5.564-.566-9.62h-4.384c-.283,5.093-.425,9.054-.425,11.129,0,1.226,0,2.829,3.489,2.829a9.522,9.522,0,0,0,4.432-1.037c.614-.283,3.772-2.452,3.866-2.452.236,0,.52.377.52,1.037a34.1,34.1,0,0,1-.566,3.678c-1.038,5.66-2.075,6.6-4.574,6.6-1.839,0-6.412-.849-8.864-2.829-2.4-1.981-2.4-4.338-2.4-6.6,0-.943.047-10.091.047-10.658a5.4,5.4,0,0,0-.33-1.7Zm5.045.66c.991,0,2.594,1.132,2.594,3.867,0,1.792-1.226,10.563-5.894,16.222-2.971,3.584-5.752,4.056-6.224,4.056-.283,0-.849,0-.849-.849,0-.472.472-.943.9-1.415,3.395-3.584,5.847-9.054,6.79-16.882C335.032,817.79,335.173,814.583,337.672,814.583Z" fill="#000000"/><path d="M388.508,825.24c0-3.395,0-6.508-.142-10.94a20.818,20.818,0,0,1-3.442.283c-.99,0-4.668-.755-4.668-2.169,0-.378.566-.66.991-.85,4.479-1.6,7.59-3.583,11.881-7.828.566-1.225,1.179-2.64,2.169-2.64,1.368,0,3.772,2.452,3.772,5.564,0,2.359-.377,2.83-5.469,6.036-.189,6.7-.189,8.489-.283,12.544h.613c.754-2.829,1.6-3.112,1.886-3.112,1.179,0,2.593,3.018,2.593,5.282,0,1.981-.943,1.981-1.98,1.981H393.27c0,2.923-.047,4.055-.047,6.7a22.327,22.327,0,0,0,4.715,5.848,2.306,2.306,0,0,1,1.084,1.885c0,1.321-2.027,4.622-3.442,4.622-.518,0-.754-.471-2.546-4.622v1.6c0,4.055.283,23.861.283,28.294a10.336,10.336,0,0,1-.943,5.376c-.424.849-1.415,2.452-2.829,2.452-.754,0-2.075-.566-2.075-3.678,0-.377,0-.566.094-2.358.284-4.621.661-24.145.8-30.086-2.735,10.28-7.073,16.693-8.817,16.693-.283,0-.471-.377-.471-.754a9.052,9.052,0,0,1,.754-2.358,132.207,132.207,0,0,0,5.092-20.466c.943-5.471.991-6.036,2.64-6.036a1.016,1.016,0,0,1,.9.472c.048-1.038.048-2.736.048-3.584-3.443.093-3.82.093-4.527.754a2.982,2.982,0,0,1-1.792,1.038c-.707,0-1.508-.755-1.508-2.359s.66-4.244,2.074-4.244c.283,0,1.556.566,1.839.566Zm35.975,42.536c.565.1,1.745.377,1.745,1.132,0,.944-2.83,5.376-3.631,6.508-.9,1.415-1.651,2.546-3.065,2.546-2.829,0-8.3-6.79-11.882-16.693-3.3,7.451-8.3,14.241-12.306,14.241-.282,0-1.7,0-1.7-1.037,0-.189,2.5-2.452,2.97-3.018,3.866-4.434,7.073-12.639,8.252-16.6a195.468,195.468,0,0,1-5-28.86,3.05,3.05,0,0,1-.9-2.075c0-2.452,1.838-4.81,3.159-4.81,1.037,0,1.084.377,1.226,5.093a116.534,116.534,0,0,0,3.96,24.522c2.594-11.6,4.527-28.578,4.527-33.01,0-.472-.425-2.736-.425-3.207,0-2.829,2.4-5.658,4.055-5.658.9,0,2.546.754,2.546,4.809,0,.849-.33,4.621-.424,5.659a241.681,241.681,0,0,1-6.884,37.443C415.9,865.607,423.445,867.588,424.483,867.776ZM401.9,848.536c.377,0,.377.849.377,1.132,0,3.772-2.5,11.317-5.658,11.317-.99,0-2.4-1.131-2.4-4.432a3.565,3.565,0,0,1,2.876-3.678c1.7-.472,3.159-2.075,4.243-3.772C401.474,848.913,401.709,848.536,401.9,848.536Zm4.385-23.861c-.99,0-1.037-.66-1.462-6.6,0-.282-.188-3.677-.188-5.753,0-2.547,1.461-4.055,2.782-4.055,1.178,0,2.734,1.32,2.734,3.584C410.149,814.3,408.311,824.675,406.283,824.675Zm15.277,3.4c1.508,0,3.064,2.358,3.064,4.81,0,4.9-6.27,12.449-8.817,12.449-.283,0-1.225-.094-1.225-1.037a5.211,5.211,0,0,1,.754-1.98,52.519,52.519,0,0,0,2.97-9.055,18.094,18.094,0,0,1,.943-3.489C420.239,828.07,421.182,828.07,421.56,828.07Z" fill="#000000"/><path d="M472.678,824.58c-2.028,4.433-4.2,9.149-6.743,11.129-.377.283-.707.378-.8.189.047,4.245.471,23.013.471,26.879,0,6.32,0,6.98-1.084,8.583a3.387,3.387,0,0,1-2.641,1.792c-1.838,0-1.886-2.923-1.886-5.187h-5.469c.047,4.432.047,4.716-.424,5.942-.8,2.169-2.311,2.735-3.018,2.735-.613,0-1.98-.849-1.98-3.206,0-1.132.189-6.415.189-7.452.188-8.583.282-22.352.282-30.746,0-2.17,0-9.149-.141-9.431l-.613-1.132a4.029,4.029,0,0,1-.189-1.038c0-2.358,2.735-5.942,3.867-5.942.188,0,1.461,0,1.98,2.641h.424c.283-2.546,1.556-14.336,1.933-15.939.66-2.923,1.886-3.3,2.641-3.3,1.7,0,3.395,2.547,3.395,5.376,0,3.207-3.631,10.468-5.329,13.864h2.641a4.163,4.163,0,0,1,2.876-2.546c.943,0,2.546,1.509,2.546,4.149,0,.284-.047,1.132-.094,1.415a37.8,37.8,0,0,0-.425,5.942c0,.755.095,3.961.095,4.621,1.933-3.866,6.129-22.729,6.176-26.785.047-4.15,2.5-5,2.971-5,1.273,0,3.065,2.263,3.065,4.809,0,2.359-2.169,10.187-3.206,13.2h6.93c.849-2.452,1.509-3.677,2.593-3.677,1.981,0,3.961,4.149,3.961,5.846a4.283,4.283,0,0,1-.377,1.7,3.813,3.813,0,0,0-.283,1.98c0,2.735.236,15,.236,17.542a178.7,178.7,0,0,1-1.085,22.542c-1.933,14.807-6.412,16.033-8.3,16.033-2.4,0-5.941-5.187-7.214-8.96l-.047-.565c.047-.661.189-.661.33-.661a10.685,10.685,0,0,0,4.479,1.226c5.847,0,6.318-17.825,6.318-30.275,0-10.469-.141-14.807-.283-18.3ZM460.088,837.5l-.046-12.826h-5.234c-.283,0-.377,1.037-.377,1.32v15.656h5.657Zm-5.657,8.111v18.109h5.611l.046-18.109Zm22.867,9.243c-.519,0-.943-.66-5.139-6.036-.519-.66-2.971-3.678-3.112-3.867a4.645,4.645,0,0,1-.8-2.735c0-2.924,1.791-5,2.781-5,2.5,0,7.261,11.223,7.261,15.844C478.288,854.855,477.534,854.855,477.3,854.855Z" fill="#000000"/><path d="M549.067,851.555c.661-2.642,1.934-4.244,2.876-4.244,1.557,0,3.584,3.394,3.584,6.6,0,2.169-1.226,2.641-1.98,2.829-1.037.19-14.9,0-16.974,0a31.407,31.407,0,0,0,17.209,15.94c1.509.471,1.7.471,1.7,1.037,0,1.321-5.563,7.168-6.835,7.168-1.321,0-9.2-5.376-12.967-21.881.425,13.11.518,15.939.518,20.56,0,5.943-3.111,6.508-3.488,6.508-2.028,0-2.028-2.546-2.028-3.867,0-3.583.471-21.409.471-25.465-9,.19-9.476.19-12.919.19a4.506,4.506,0,0,0-1.838.282,21.584,21.584,0,0,1-2.546,1.32c-.754,0-1.462-.942-1.462-2.829,0-2.452,1.32-4.716,2.357-4.716.237,0,1.32.567,1.557.567h14.9a21.054,21.054,0,0,0-.141-2.264c-.048-.283-.661-1.51-.661-1.792,0-2.264,2.311-5.093,3.63-5.093.33,0,2.122,0,2.122,2.923,0,.567-.235,3.019-.283,3.584v2.642Zm-23.81,10c1.085-2.641,1.273-3.113,2.169-3.113a3.58,3.58,0,0,1,3.112,3.678c0,6.98-11.269,17.637-16.975,17.637-.093,0-1.178,0-1.178-1.037,0-.472.048-.472.471-.944.047,0,1.792-1.131,2.123-1.414C520.5,871.832,523.843,864.947,525.257,861.552Zm-8.251-16.977c-.849,0-2.735-1.132-2.735-4.432a5.485,5.485,0,0,1,1.509-4.151c.66-.565,4.149-2.924,4.9-3.584.613-.471,3.913-3.584,4.007-3.584.33,0,.472,1.227.33,1.51C523.135,837.784,519.41,844.575,517.006,844.575Zm6.459-19.806c-1.179,0-5.139-4.338-6.365-6.225a7.84,7.84,0,0,1-.99-3.866c0-2.547,1.368-4.716,2.64-4.716,2.735,0,5.753,11.977,5.753,13.3C524.5,824.769,523.606,824.769,523.465,824.769Zm13.2-13.11c.707-2.169,1.7-2.924,2.264-2.924,1.084,0,3.111,2.453,3.111,5.188a4.78,4.78,0,0,1-.188,1.225,7.083,7.083,0,0,0-.472,2.642c0,4.81.1,8.582.141,11.694a.863.863,0,0,1,.849-.471,10.379,10.379,0,0,1,10.279,9.9c0,2.452-1.038,4.433-2.5,4.433a2.633,2.633,0,0,1-2.452-1.886c-2.876-5.848-3.159-6.508-3.961-7.828-.282-.472-1.932-2.736-2.216-3.4.047,1.321.237,9.337.237,10.186a5.344,5.344,0,0,1-.52,3.018,3.513,3.513,0,0,1-2.876,1.981c-1.7,0-1.744-1.792-1.744-3.112h-6.365c-.1,2.923-2.027,4.244-2.971,4.244-1.7,0-1.7-1.415-1.7-3.3,0-1.792.188-10.092.236-11.979,0-1.6-.048-9.525-.048-11.317,0-2.358,0-2.547-.282-3.019-.66-1.037-.8-1.225-.8-1.792,0-2.357,2.688-6.036,3.82-6.036.424,0,1.509.567,1.7,2.547h.519c.188-1.32.99-8.677,1.178-10.28.142-1.32.472-4.339,2.593-4.339,1.462,0,3.159,2.17,3.159,4.622a11.86,11.86,0,0,1-1.6,4.81c-.378.755-2.311,4.339-2.736,5.187Zm0,26.408v-8.96H530.3v8.96Zm-.047-13.2v-9.054h-5.8c-.282,0-.47.471-.47,1.038v8.016Zm13.862-6.413c-1.273,2.074-5.941,7.073-7.355,7.073-.283,0-.519-.471-.519-1.037s2.169-7.451,2.546-8.677c1.414-4.621,2.028-6.507,3.536-6.507,1.6,0,2.83,3.017,2.83,5.376A7.694,7.694,0,0,1,550.482,818.45Z" fill="#000000"/><path d="M586.56,878.434c0,6.979-3.49,6.979-3.725,6.979-.708,0-2.028-1.037-2.028-3.395,0-.189.519-27.446.519-32.633V832.031c0-3.395,0-3.772-.378-4.432-.8-1.321-.848-1.415-.848-1.981,0-2.264,3.112-6.414,4.432-6.414.943,0,1.744.943,2.074,2.83h4.857c-.047-1.7-.142-8.96-.142-10.47,0-1.98,0-2.168-.235-2.64-.8-1.414-.9-1.6-.9-2.358,0-2.452,2.783-6.13,4.48-6.13.283,0,2.357,0,2.357,3.867,0,2.829-.33,15.184-.33,17.731h4.574c-.094-14.242-.141-14.242-.471-15a4.274,4.274,0,0,1-.708-1.887c0-2.829,2.687-6.319,4.668-6.319.613,0,2.452,0,2.452,3.773,0,1.131-.1,2.546-.142,3.584-.093,1.6-.283,13.865-.283,15.845h4.81c1.037-2.547,2.169-3.679,3.017-3.679,1.415,0,3.443,3.019,3.443,6.037a16.16,16.16,0,0,1-.425,2.735,6.2,6.2,0,0,0-.189,1.792v14.147c0,5.47.424,29.521.424,34.425,0,2.546-.094,3.3-.895,4.527a3.84,3.84,0,0,1-2.923,1.886c-.849,0-2.4-.188-2.4-3.207v-2.263Zm4.95-51.5h-4.479c-.189,0-.378.566-.378,1.132,0,.754-.047,13.015-.093,18.769h4.95Zm-4.95,24.522v22.447h4.856c.047-6.508.094-13.77.094-20V851.46Zm14.71-24.522H596.7v19.9h4.621ZM596.7,851.46v22.447h4.48c.047-7.168.141-12.827.141-22.447Zm14.947-24.522h-4.951c-.046,3.207-.094,15.09-.094,19.9h5.045Zm0,24.522H606.6c0,6.508,0,10.563.094,22.447h4.951Z" fill="#000000"/><path d="M679.688,853.44c.99-2.545,2.122-4.432,3.017-4.432,1.226,0,3.866,3.3,3.866,6.6,0,2.17-1.037,2.359-1.461,2.453-.9.189-14.05,0-16.691,0,3.253,8.583,11.74,13.77,16.267,15.845.518.282,1.508.66,1.508,1.321,0,.565-5.469,7.45-7.167,7.45-1.367,0-8.769-4.9-12.352-23.107.047,2.641.424,15.75.424,18.674,0,6.508-3.112,6.508-3.678,6.508-2.074,0-2.074-2.264-2.074-4.149,0-2.17.33-12.544.377-14.9-3.3,6.791-11.034,14.9-17.351,14.9-.1,0-1.038,0-1.038-.755,0-.661,3.065-2.924,3.631-3.49a51.288,51.288,0,0,0,9.571-13.77c.849-1.981,1.367-3.3,2.688-3.3a3.732,3.732,0,0,1,2.593,1.981c0-.472.047-2.641.047-3.113l-14.286.377c-.566,0-3.159,1.51-3.772,1.51-1.037,0-1.368-1.415-1.368-2.735,0-2.264,1.274-4.433,2.311-4.433.282,0,1.65.565,1.98.565h15.088c-.094-2.64-.141-2.923-.283-3.207-.472-.942-.518-.942-.518-1.508,0-1.132,1.131-3.3,2.121-3.584-2.782.094-4.857.094-7.073.094-.141,4.338-3.064,4.338-3.394,4.338-1.886,0-1.886-1.509-1.886-2.923,0-1.6.236-9.338.282-11.129.1-6.13.19-11.506.19-13.393-2.4,3.961-5,6.7-6.695,6.7a.516.516,0,0,1-.567-.565c0-.283.142-.567,1.274-2.736a101,101,0,0,0,7.59-21.787c.047-1.7.095-5.092,2.688-5.092,1.556,0,3.3,2.169,3.3,4.81,0,1.7-1.415,6.13-2.169,8.11h5.893c.189-1.508,1.509-11.789,1.651-12.166.613-1.792,1.885-1.792,2.074-1.792,1.367,0,3.395,1.981,3.395,5a5.237,5.237,0,0,1-.424,2.263,56.521,56.521,0,0,1-3.914,6.7h9.335c.425-1.98,1.746-4.054,2.547-4.054,1.037,0,3.442,3.112,3.442,5.941,0,1.227-.519,2.452-1.7,2.452H667.052c-.047,1.981-.047,3.961-.047,5.471h4.715c.754-2.075,1.649-2.642,2.121-2.642.9,0,2.876,2.264,2.876,4.528,0,1.98-1.273,1.98-2.028,1.98H666.91V830.9h4.9c.944-2.357,1.746-2.735,2.169-2.735.755,0,2.783,2.452,2.783,4.527a1.953,1.953,0,0,1-2.216,2.169h-7.686v5.848h9.1c.943-2.169,1.744-3.584,2.546-3.584,1.179,0,3.159,3.3,3.159,5.848a1.94,1.94,0,0,1-2.264,2.169H666.392c.471,0,.66,1.6.66,2.358a11.95,11.95,0,0,1-.142,1.414,40.1,40.1,0,0,0-.141,4.527ZM661.912,830.9V825.24h-5.8l-.048,5.659Zm0,9.9V834.86h-5.847V840.8Zm0-19.429V815.9H656.16l-.047,5.471Z" fill="#000000"/><path d="M323.946,906.736c.678,0,4.067-.039,4.822-.039.232-.928.833-1.82,1.239-1.82.639,0,1.569,1.317,1.569,2.789,0,1.239-.7,1.239-1.433,1.239-.891,0-5.209-.155-6.177-.155,0,7.9,0,8.791-.136,9.8-.29,1.975-.968,3.369-2.537,3.369-1.335,0-2.962-2.556-2.962-3.021,0-.232.155-.232.291-.232,1.955,0,3.02-.116,3.04-3.911l.038-5.964c-1.936,0-4.879.116-5.364.193-.174.039-.987.659-1.181.659-.387,0-.677-.426-.677-1.162,0-1.007.522-2.208,1.084-2.208a7.182,7.182,0,0,1,.7.31,14.843,14.843,0,0,0,1.8.078c1.181,0,2.479.038,3.64.077l-.038-5.112h-1.7a1.6,1.6,0,0,0-.717.116c-.155.039-.852.62-1.007.62-.252,0-.6-.348-.6-1.162,0-.851.368-1.9.871-1.9.136,0,.755.309.911.309h6.409c.135-.425.425-1.393.987-1.393s1.22,1.161,1.22,2.439c0,.465-.116.852-.368.93-.1.038-2.556.038-3.7.038Zm4.183-12.934c.368-1.007.891-1.472,1.375-1.472.6,0,1.433.581,1.433,2.672a26.793,26.793,0,0,1-1.278,5.848c-.136.425-.329.852-.639.852-.446,0-.678-.348-.911-5.926H317.6c-.058.737-.252,2.828-.542,4.532-.155.851-.252,1.471-.717,1.471-.348,0-.5-.465-.619-1.046a53.986,53.986,0,0,1-.736-5.808c0-1.588.62-2.557,1.355-2.557.272,0,1.065.233,1.356,1.434h3.892c0-.311-.019-1.9-.039-2.246-.019-.775-.077-.891-.212-1.085-.349-.5-.369-.542-.369-.929a3.161,3.161,0,0,1,2.188-2.789c.407,0,1.027.5,1.027,1.7a2.753,2.753,0,0,1-.077.658,44.909,44.909,0,0,0-.233,4.687Z" fill="#000000"/><path d="M365.756,917.192c.232-.967.794-1.742,1.142-1.742.639,0,1.491,1.588,1.491,2.788,0,.93-.542,1.046-1.1,1.046H358.63a5.777,5.777,0,0,0-1.181.116,6.828,6.828,0,0,1-1.026.58c-.291,0-.562-.386-.562-.967,0-.775.348-2.091.93-2.091.154,0,.832.27.987.27h3.137c.02-1.936.039-7.242,0-9.294h-1.724a17.649,17.649,0,0,1-4.472,7.4v2.981c0,1.279-.852,2.789-1.608,2.789-.058,0-.813,0-.813-1.51,0-.814.136-4.648.155-5.5.136-5.151.233-10.612.271-15.917-.62.736-1.839,1.82-2.788,1.82-.155,0-.407,0-.407-.232a12.524,12.524,0,0,1,1.181-1.7,37.135,37.135,0,0,0,3.7-7.512c.252-1.821.968-1.821,1.1-1.821.58,0,1.316.737,1.316,2.014a4.632,4.632,0,0,1-.5,1.82,27.819,27.819,0,0,1-1.646,3.447c-.019,1.355.019,14.871.019,18.047,2.769-5.074,3.8-11.5,4.3-15.026h-1.975c-.174,0-1.007.581-1.2.581-.29,0-.5-.31-.5-.929,0-.93.387-2.014.89-2.014.156,0,.853.309,1.008.309h2.013c.1-.968.349-3.873.349-5.538a1.238,1.238,0,0,0-.078-.619c-.193-.543-.212-.543-.212-.775,0-1.084,1.181-2.4,1.839-2.4.194,0,1.162,0,1.162,1.9,0,.155-.059,1.355-.078,1.626-.019.232-.542,4.88-.639,5.809h4.067c.581-1.859,1.084-1.936,1.181-1.936.523,0,1.452,1.627,1.452,2.866,0,.736-.426,1.123-.968,1.123h-6.041c-.252,1.742-.5,3.214-1.356,6.893,1.317-.038,2.982-.038,4.3-.038.174-.542.639-1.627,1.084-1.627.5,0,1.414,1.278,1.414,2.478,0,1.123-.64,1.2-.872,1.2a23.161,23.161,0,0,1-2.614,0c-.038,1.356-.038,3.021-.038,4.414,0,.7.038,4.106.038,4.88Z" fill="#000000"/><path d="M386.343,921.84c-.058,0-.446,0-.446-.31,0-.194.059-.271.543-.581,4.008-2.673,5.267-6.351,5.673-10.5a2.655,2.655,0,0,1-.135-.813,1.72,1.72,0,0,1,1.665-1.7c.271,0,.871.271.871,1.278a5.783,5.783,0,0,1-.116,1.123C393.662,918.7,389.828,921.84,386.343,921.84Zm5.6-14.485c-.02,1.24-.562,2.325-1.414,2.325-.7,0-.813-.7-.813-1.472,0-1.9.116-10.3.116-12.006,0-.542-.019-4.181-.019-4.221,0-.232-.368-1.162-.368-1.394,0-1.2,1.239-2.9,1.8-2.9.1,0,.639,0,.929,1.355h5.868c.251-.851,1.006-1.742,1.374-1.742.678,0,1.568,1.316,1.568,2.71a12.872,12.872,0,0,1-.271,1.317v2.633c0,2.092.117,11.348.117,13.206a2.608,2.608,0,0,1-.562,2.014,1.513,1.513,0,0,1-1.161.658c-.853,0-.853-1.123-.853-2.479h-.658a2.193,2.193,0,0,1,.039.349c0,.465-.136,2.479-.155,2.905-.019,1.123-.078,3.718-.078,4.8,0,1.2,0,2.285,1.917,2.285,1.511,0,2.963-.929,4.28-2.556.135-.155.832-1.161.89-1.161.1,0,.117.232.117.425a27.206,27.206,0,0,1-.755,5.344c-.581,1.859-1.608,1.859-2.4,1.859h-.309c-5.655,0-5.655-2.943-5.655-4.763,0-1.084.039-6.661.02-6.932-.02-.232-.291-1.162-.291-1.355a2.33,2.33,0,0,1,.446-1.2Zm.271-16.226c-.193,0-.291.427-.291.62v2.827h6.352l-.02-3.059c-.019-.31-.1-.388-.271-.388Zm6.061,5.461h-6.352v3.369h6.352Zm-6.352,5.306v3.524h6.332l.02-3.524Z" fill="#000000"/><path d="M437.873,918.045c.252-.892.852-1.627,1.316-1.627.678,0,1.55,1.627,1.55,2.75,0,1.007-.6,1.123-1.239,1.123-3.525-.078-9.508-.116-12.858-.039l-1.394.039c-.039,0-.446.038-.465.038a8.647,8.647,0,0,1-1.22.465c-.29,0-.793-.271-.793-1.162,0-.5.29-1.82,1.025-1.82.117,0,.7.117.833.117l5.809.193c0-.388.02-2.208.02-2.634h-1.743a4.472,4.472,0,0,0-1.046.078,10.694,10.694,0,0,1-1.084.426c-.31,0-.6-.426-.6-.969s.233-1.626.93-1.626a1.259,1.259,0,0,1,.349.078,3.97,3.97,0,0,0,1.51.193h1.685c.019-.658.019-1.665.019-2.284h-3.137a4.256,4.256,0,0,0-1.123.154c-.135.039-.871.388-.987.388-.349,0-.678-.388-.678-.93,0-.039,0-1.665.949-1.665l.329.077a5.494,5.494,0,0,0,1.471.155h3.176v-2.439H428.5c-.1.929-1.2,1.123-1.433,1.123a.844.844,0,0,1-.755-.775c-.039-.155,0-3.214,0-3.718v-.619c-.02-.077-.155-.31-.174-.388a1.049,1.049,0,0,1-.078-.387c0-.89.93-2.208,1.607-2.208.349,0,.7.233.813.853h1.976c0-.349-.02-2.014-.039-2.4h-1.782a8.65,8.65,0,0,0-2.691.232c-.562.426-.716.581-.987.581s-.678-.271-.678-1.162c0-.735.251-1.742.949-1.742.058,0,.716.193.774.193h10.553c.155-.426.5-1.316,1.065-1.316.542,0,1.491,1.045,1.491,2.13,0,1.2-.658,1.2-1.82,1.2-.659,0-3.97-.077-4.706-.077,0,.348-.019,1.974-.019,2.362h2.285c.291-.658.658-.969.988-.969a1.976,1.976,0,0,1,1.394,1.9c0,.193-.194,1.084-.194,1.277V906.7a1.378,1.378,0,0,1-1.374,1.318.824.824,0,0,1-.892-.891h-2.246v2.439h3.912c.174-.658.716-1.316,1.143-1.316.483,0,1.335,1.2,1.335,2.207,0,.968-.716.968-.871.968l-5.519-.038c0,.348.02,1.974.02,2.323.581,0,.987,0,2.5-.039.135-.58.6-1.239,1.026-1.239.5,0,1.375,1.162,1.375,2.092a.9.9,0,0,1-1.007.967h-3.892v2.634Zm-.388-26.838c.271-1.007.891-1.665,1.279-1.665.561,0,1.452,1.316,1.452,2.517s-.562,1.2-1.452,1.2c-.543,0-3.2-.078-3.8-.078,0,.232.02,1.394.02,1.627a1.59,1.59,0,0,1-1.395,1.665.888.888,0,0,1-.813-.814c-.058-.348,0-2.091,0-2.478h-2.594c0,.155.019,1.9,0,1.975a1.571,1.571,0,0,1-1.453,1.123c-.561,0-.716-.465-.716-1.046,0-.309.039-1.743.039-2.052l-2.731.116c-.232,0-1.278.813-1.53.813-.29,0-.638-.465-.638-1.123,0-.7.29-2.052.968-2.052.155,0,.91.271,1.084.271l2.866.077c-.019-1.046-.039-1.316-.058-1.9a4.112,4.112,0,0,1-.29-.737,2.6,2.6,0,0,1,1.819-2.013c.369,0,.736.232.736,1.239,0,.5-.077,2.866-.1,3.408h2.594v-.93a5.238,5.238,0,0,0-.1-1.277c-.214-.465-.233-.5-.233-.7a2.54,2.54,0,0,1,1.762-1.976c.852,0,.852.93.852,1.666,0,.155-.077.968-.077,1.123-.058.852-.039,1.588-.039,2.091Zm-7.009,14.019v-2.4H428.83c-.116,0-.329,0-.329.465v1.936Zm4.357,0v-2.4h-2.285c0,.929,0,1.626-.02,2.4Z" fill="#000000"/><path d="M461.674,905.923a2.418,2.418,0,0,0-1.162.465c-.465.387-.678.581-.852.581-.348,0-.7-.5-.7-1.279,0-1.084.445-2.478,1.1-2.478.136,0,.756.232.872.232h6.119c-.117-1.548-.678-4.453-1.085-4.957-.464-.619-.522-.7-.522-1.046,0-.851.774-1.7,1.2-1.7.155,0,.62.116,1.123,1.472a43.2,43.2,0,0,0,1.433-4.106l-6.06.233c-.194,0-1.046.813-1.24.813-.232,0-.677-.232-.677-1.085,0-1.006.445-2.439,1.1-2.439.116,0,.62.193.716.193h6.72c.212-.425.755-1.626,1.3-1.626.774,0,1.723,1.394,1.723,2.866,0,.581-.058.658-.91,1.859-.174.193-.852,1.316-.987,1.549a42.626,42.626,0,0,1-2.479,3.524,29.744,29.744,0,0,1,.814,4.453h4.337c.445-1.665.987-2.323,1.375-2.323.735,0,1.781,1.7,1.781,3.33,0,1.433-.852,1.472-1.239,1.472h-5.964c.077.89.193,2.711.193,5.383,0,1.549,0,9.876-3.252,9.876-1.724,0-3.234-3.525-3.234-3.912,0-.155.039-.155.174-.155a4.178,4.178,0,0,0,1.394.31c1.239,0,2.576-.349,2.576-7.513,0-1.2-.02-2.673-.1-3.989Z" fill="#000000"/><path d="M499.417,899.286c-.059-.116-.388-.581-.446-.7a.775.775,0,0,1-.135-.436c0-1.017.813-2.353,1.665-2.353.716,0,1.064.522,1.064,9.267v1.076c2.343-1.221,3.622-2,3.718-2.064.136-.115.756-.725.91-.725.7,0,.755,2.352.755,2.584,0,1.192-.251,1.25-1.606,1.512-3.564.7-7.668,2.266-7.668,5.926,0,2.906,3.582,3.226,5,3.226a8,8,0,0,0,3.97-.843,6.387,6.387,0,0,1-.678,2.818c-.7,1.046-2.188,1.046-2.943,1.046a9.033,9.033,0,0,1-4.8-1.191,5.229,5.229,0,0,1-2.285-4.765,7.482,7.482,0,0,1,4.163-6.74C500.075,906.113,499.843,900.07,499.417,899.286Z" fill="#000000"/><path d="M529.182,897.48c0-1.394,0-2.671-.059-4.492a8.572,8.572,0,0,1-1.413.116c-.406,0-1.917-.309-1.917-.89,0-.155.232-.272.406-.349a12.109,12.109,0,0,0,4.88-3.215c.233-.5.484-1.084.891-1.084.561,0,1.549,1.007,1.549,2.286,0,.967-.155,1.161-2.247,2.478-.077,2.749-.077,3.485-.116,5.15h.252c.31-1.162.658-1.278.775-1.278.484,0,1.065,1.239,1.065,2.169,0,.814-.388.814-.813.814h-1.3c0,1.2-.02,1.665-.02,2.75a9.133,9.133,0,0,0,1.937,2.4.952.952,0,0,1,.445.774c0,.543-.833,1.9-1.414,1.9-.213,0-.31-.2-1.046-1.9v.66c0,1.665.116,9.8.116,11.617a4.261,4.261,0,0,1-.386,2.208c-.175.348-.582,1.007-1.163,1.007-.309,0-.851-.233-.851-1.511,0-.154,0-.233.038-.968.116-1.9.271-9.914.329-12.353-1.123,4.22-2.9,6.854-3.62,6.854-.116,0-.194-.155-.194-.311a3.758,3.758,0,0,1,.31-.967,54.434,54.434,0,0,0,2.091-8.4c.388-2.246.406-2.478,1.084-2.478a.418.418,0,0,1,.368.193c.02-.426.02-1.123.02-1.471-1.414.039-1.569.039-1.86.309a1.217,1.217,0,0,1-.735.426c-.291,0-.62-.31-.62-.968s.271-1.742.852-1.742c.117,0,.639.231.755.231Zm14.774,17.466c.232.039.716.156.716.465a12.52,12.52,0,0,1-1.49,2.672c-.369.581-.678,1.046-1.259,1.046-1.162,0-3.408-2.788-4.88-6.855-1.355,3.06-3.408,5.848-5.054,5.848-.116,0-.7,0-.7-.426,0-.078,1.026-1.007,1.22-1.239a21.452,21.452,0,0,0,3.388-6.816,80.413,80.413,0,0,1-2.052-11.851,1.253,1.253,0,0,1-.368-.852c0-1.006.755-1.975,1.3-1.975.426,0,.446.155.5,2.092a47.863,47.863,0,0,0,1.626,10.069,92.571,92.571,0,0,0,1.86-13.555c0-.193-.175-1.123-.175-1.316,0-1.162.988-2.324,1.666-2.324.367,0,1.045.309,1.045,1.975,0,.349-.136,1.9-.174,2.324A99.34,99.34,0,0,1,538.3,909.6C540.432,914.056,543.53,914.869,543.956,914.946Zm-9.275-7.9c.155,0,.155.349.155.465,0,1.549-1.026,4.647-2.324,4.647-.407,0-.988-.465-.988-1.82a1.466,1.466,0,0,1,1.182-1.511,3.424,3.424,0,0,0,1.742-1.549C534.507,907.2,534.6,907.046,534.681,907.046Zm1.8-9.8c-.406,0-.425-.27-.6-2.711,0-.116-.077-1.51-.077-2.362,0-1.046.6-1.665,1.142-1.665a1.352,1.352,0,0,1,1.123,1.471C538.069,892.988,537.314,897.248,536.481,897.248Zm6.274,1.395c.62,0,1.259.967,1.259,1.974,0,2.014-2.576,5.112-3.621,5.112-.117,0-.5-.039-.5-.425a2.14,2.14,0,0,1,.309-.814,21.537,21.537,0,0,0,1.22-3.718,7.374,7.374,0,0,1,.388-1.432C542.213,898.643,542.6,898.643,542.755,898.643Z" fill="#000000"/><path d="M577.109,906a8.922,8.922,0,0,0,2.479-.387c.155-.039.484-.155.523-.155.1,0,.194,0,.194.271a18.317,18.317,0,0,1-1.413,3.37c-.388.658-.776.658-1.027.658a10.985,10.985,0,0,1-3.524-.814A7.515,7.515,0,0,1,570.816,906c-2.246,2.943-5.092,5.073-7.9,5.073-.213,0-.948,0-.948-.464a.469.469,0,0,1,.116-.348,7.506,7.506,0,0,1,1.181-.543,17,17,0,0,0,6.158-5.654,33.255,33.255,0,0,1-1.782-6.235c-.174-.968-.194-1.084-.29-1.2-.29-.311-.407-.5-.407-.659a1.451,1.451,0,0,1,1.045-1.239c.427,0,.524.464.7,1.51a21.725,21.725,0,0,0,2.033,6.274,37.12,37.12,0,0,0,2.517-5.925c.1-.736.271-1.937,1.1-1.937a2.048,2.048,0,0,1,1.511,1.86,3.372,3.372,0,0,1-.465,1.393,33.911,33.911,0,0,1-3.06,6.275A5.85,5.85,0,0,0,577.109,906Zm-12.741-1.007c-.812,0-1.277-.968-1.277-1.9,0-1.045.522-1.665,1.162-1.7a3.819,3.819,0,0,0,2.749-1.82c.291-.465.329-.5.407-.5.271,0,.271.388.271.62C567.68,900.812,566.228,904.993,564.368,904.993Zm12.625-13.476c.272-.852.814-1.433,1.239-1.433.678,0,1.472.891,1.472,2.4a19.474,19.474,0,0,1-1.22,4.532c-.232.62-.406,1.006-.851,1.006-.6,0-.6-.386-.6-4.569H565.627c-.058.814-.251,3.718-.329,4.26-.058.309-.213,1.433-.794,1.433-.251,0-.581-.31-.7-1.045-.194-1.279-.659-4.415-.659-5.345,0-.968.252-2.6,1.3-2.6a1.393,1.393,0,0,1,1.278,1.356h4.3c0-.194-.019-1.2-.038-1.4-.019-.812-.019-.929-.174-1.123-.387-.465-.407-.465-.407-.774a2.766,2.766,0,0,1,2.091-2.363c.291,0,.93.272.93,1.665,0,.195-.077,1.007-.1,1.24-.039.5-.077,2.208-.1,2.75Zm-1.839,26.6c0-1.355-.019-3.873-.058-3.989-.02-.154-.31-.775-.31-.968A2.346,2.346,0,0,1,576.7,911c.794,0,.794.969.794,1.356,0,.309-.116,1.743-.116,2.091,0,.813.077,4.841.077,5.77,0,1.55-.755,2.053-1.49,2.053-.872,0-.872-.7-.872-1.356v-.93h-7.842v.272a5.683,5.683,0,0,1-.039.813,1.624,1.624,0,0,1-1.51,1.123c-.659,0-.678-.774-.678-1.51,0-.93.117-5.809.117-5.925,0-.5,0-.542-.079-.736-.29-.542-.309-.581-.309-.891a2.337,2.337,0,0,1,1.8-2.13c.193,0,.852,0,.852,1.395,0,.813-.116,4.84-.136,5.731h2.866V916.5c0-1.007-.02-2.981-.038-3.911-.02-.581-.02-.619-.156-.852-.309-.5-.329-.543-.329-.852a2.587,2.587,0,0,1,1.878-2.285c.1,0,.891,0,.891,1.55,0,.193,0,.425-.019.619-.039.581-.136,4.919-.175,7.358Zm-3.95-23.855a1.33,1.33,0,0,1,1.22,1.277c0,1.085-1.22,4.3-1.9,4.3-.077,0-.464-.077-.464-.658,0-.272.1-3.757.1-3.834A1.218,1.218,0,0,1,571.2,894.267Zm5.828,4.143a1.632,1.632,0,0,1,1.317,1.549c0,1.511-2.788,4.454-3.6,4.454-.077,0-.561-.039-.561-.465,0-.039.755-1.627.89-1.975.175-.426.892-2.672,1.105-3.1A1.03,1.03,0,0,1,577.032,898.41Z" fill="#000000"/><path d="M601.859,916.688c-1.742,0-2.768-2.643-2.768-5.491,0-5.491,3.272-11.621,8.074-11.621,2.362,0,6.6,1.6,6.6,8.775,0,7.146-3.776,10.778-6.313,10.778a1.122,1.122,0,0,1-1.142-.843,5.474,5.474,0,0,1-.407-1.889c0-.376.175-.464.233-.464.019,0,.193.174.213.174a1,1,0,0,0,.716.32c2.286,0,4.705-3.428,4.705-8.019,0-2.149-.522-5.956-3.891-6.449C606.429,913.726,603.66,916.688,601.859,916.688Zm-.967-5.636c0,1.307.251,2.528,1.161,2.528,1.7,0,3.544-6.334,4.086-11.563C602.576,902.743,600.892,907.653,600.892,911.052Z" fill="#000000"/><path d="M637.859,905.188a19.58,19.58,0,0,0-3.988.232c-.175.038-.872.5-1.026.5-.272,0-.62-.271-.62-.93,0-.812.484-1.9.872-1.9a1.9,1.9,0,0,1,.542.194,5.022,5.022,0,0,0,.774.038c1.9,0,5.4,0,6.816-.077.348-1.239.7-1.472.891-1.472.5,0,1.22,1.24,1.22,2.4,0,1.007-.291,1.007-.736,1.007Zm2.595-11.309c.291-1.084.7-1.395.93-1.395.484,0,1.22,1.123,1.22,2.247,0,.929-.6.929-.775.929h-2.246c-.388,0-3.562.116-4.26.194-.175.039-.89.387-1.026.387-.31,0-.658-.309-.658-.968,0-.89.5-1.7.929-1.7.117,0,.62.31.716.31h1.781a12.077,12.077,0,0,0-.193-3.1c-.29-.543-.31-.543-.31-.813a2.745,2.745,0,0,1,2.053-2.208c.349,0,.852.348.852,1.355,0,.156-.1.775-.116.891-.039.348-.136,1.511-.174,3.873Zm-3.795,24.088v.89a1.939,1.939,0,0,1-1.432,1.744c-.64,0-.7-1.084-.7-1.627,0-1.278.156-7.009.156-8.171a2.355,2.355,0,0,0-.233-1.2.568.568,0,0,1-.058-.272,2.54,2.54,0,0,1,1.548-2.053c.175,0,.62.194.756,1.007h2.769c.193-.813.678-1.277.949-1.277.483,0,1.433,1.123,1.433,2.207,0,.077-.175.658-.194.774a1.617,1.617,0,0,0-.039.581c0,1.084.1,5.925.1,7.048,0,1.588-1.026,2.13-1.529,2.13-.814,0-.833-.658-.833-1.781Zm.368-14.871c-.62,0-2.169-3.64-2.169-4.686a1.56,1.56,0,0,1,1.317-1.472c.465,0,.736.5.872,1.007a35.656,35.656,0,0,1,.406,4.415C637.453,903.1,637.085,903.1,637.027,903.1Zm2.382,6.854c-.407,0-2.478-.038-2.556-.038-.155.038-.213.271-.213.542v5.732h2.769Zm-.252-6.854c-.058,0-.426,0-.426-.775s.31-3.757.426-4.415c.1-.658.406-1.161.91-1.161.581,0,1.259.735,1.259,2.014C641.326,899.727,639.719,903.1,639.157,903.1Zm6.429-10.224v3.369c0,4.918,0,9.8.038,14.213.02,1.4.116,7.513.116,8.752,0,2.711-1.374,2.943-1.452,2.943-.058,0-.948,0-.948-1.587,0-.542.1-3.021.116-3.524.135-7.435.135-15.684.135-18.047,0-5.151-.019-5.267-.329-5.887a1.2,1.2,0,0,1-.116-.5c0-1.162,1.045-2.711,1.607-2.711.1,0,.794.078.871,1.046h1.8c.427-1.162.852-1.317,1.026-1.317.581,0,1.588,1.317,1.588,2.6a3.1,3.1,0,0,1-.445,1.316,41.389,41.389,0,0,0-1.859,6.313c0,.232.02.271.446.969a15.406,15.406,0,0,1,2.536,8.17c0,4.918-2.188,5-2.479,5-.851,0-2.516-2.4-2.516-2.828,0-.078.057-.194.1-.194.174,0,.911.194,1.065.194,1.026,0,1.433-.736,1.433-3.214a11.972,11.972,0,0,0-1.453-6.081c-.6-1.084-.677-1.2-.677-1.509,0-.117.716-6.391.833-7.475Z" fill="#000000"/><path d="M683.7,918.2c.311-.7.717-1.7,1.259-1.7.581,0,1.647,1.588,1.647,2.827,0,1.046-.5,1.085-.911,1.085-1.085,0-6.428-.039-7.648-.039h-1.937c-.968,0-3.853.077-4.434.155-.213.039-1.239.581-1.491.581-.329,0-.775-.349-.775-1.2,0-.967.5-2.052,1.046-2.052.174,0,1.046.348,1.239.348h5.054c0-.465.02-2.865.02-3.408v-.774h-.93a6.836,6.836,0,0,0-1.82.155,10.157,10.157,0,0,1-1.027.542c-.251,0-.677-.233-.677-.968s.251-1.9,1.007-1.9c.078,0,.484.193.58.193h2.867c-.02-1.162-.02-1.781-.059-2.13-.018-.155-.27-.813-.27-.969a5.706,5.706,0,0,1,.039-.581,17.689,17.689,0,0,1-3.8.62c-.775,0-1.027-1.316-1.027-1.936,0-1.007.311-1.665.833-1.665.272,0,1.569.116,1.859.116a42.917,42.917,0,0,0,1.046-5h-1.181c-.194,0-1.1.658-1.317.658-.135,0-.581,0-.581-.929,0-.62.155-1.859.872-1.859.116,0,.658.233.774.233h7.028c.117-.426.447-1.549.969-1.549.542,0,1.4,1.432,1.4,2.633,0,.775-.581.813-.872.813h-4.512a55.029,55.029,0,0,1-1.878,5.268,30.322,30.322,0,0,0,4.473-.388c-.233-.5-1.453-2.556-1.53-2.711a2.248,2.248,0,0,1-.291-.619c0-.388.368-.388.543-.388.929,0,5.015,2.518,5.015,6.08,0,1.046-.523,1.665-1.065,1.665a.937.937,0,0,1-.794-.465c-.174-.27-.89-1.781-1.065-2.13-.678.311-1.568.621-2.362.891-.058,1.239-.077,2.441-.1,4.338h2.091c.427-1.395.949-1.395,1.046-1.395.542,0,1.394,1.279,1.394,2.4,0,.465-.213.968-.736,1.007-.116,0-2.071-.039-2.459-.039H678.9c-.02,1.471-.02,3.059-.02,4.182Zm-.251-24.939c.213-.853.755-1.55,1.317-1.55.619,0,1.452.7,1.452,2.44a31.2,31.2,0,0,1-1.123,5.809c-.116.426-.329.968-.736.968-.445,0-.561-.619-.62-1.278-.116-1.239-.155-2.478-.232-4.454H672.369c-.368,5-.542,5.926-1.1,5.926-.5,0-.7-.813-1.007-2.982a34.5,34.5,0,0,1-.388-3.795c0-1.588.562-2.479,1.278-2.479.252,0,1.084.194,1.278,1.395h4.318c-.057-1.511-.1-1.9-.136-2.711a1.361,1.361,0,0,1-.561-1.046c0-1.316,1.452-2.9,2.188-2.9.659,0,.988.851.988,2.13V889c-.039.581-.233,3.6-.271,4.261Z" fill="#000000"/></g></g></svg>
