<svg xmlns="http://www.w3.org/2000/svg" width="1000" height="988" viewBox="0 0 1000 988"><g id="Artboard"><rect id="Tint" width="1000" height="988" fill="#58595b"/></g><g id="Outline"><g id="DATELESS_BAR" data-name="DATELESS BAR"><path id="DA" d="M343.411,662.007l-6.87-5.352-1.148-2.487a4,4,0,0,0,2.762-6.021,53.7,53.7,0,0,1-3.917-7.273,4.005,4.005,0,0,0-1.364-1.759l-.616-.448-.025-.124a4,4,0,0,0-3.2-3.162,4.043,4.043,0,0,0-.723-.066,4,4,0,0,0-1.461.277l-.286-.558,1.306-2.218a4,4,0,0,0-3.36-6.138h-.092c-.062,0-.124,0-.186.008l-2.5.139-.045,0-12.85.716a4,4,0,0,0-2.92,6.469l1.737,2.205-.34.911a4.069,4.069,0,0,0-.632-.05,4,4,0,0,0-3.844,2.892l-.081.282a4,4,0,0,0-.749,1.136l-.7,1.6a17.921,17.921,0,0,0-7.6-10.664,4.008,4.008,0,0,0-2.948-.576,20.572,20.572,0,0,0-10.453-2.566c-.536,0-1.09.016-1.644.047L264.719,630a4,4,0,0,0-2.275,7.119l3.527,2.818,1.214,21.781-3.176,3a4,4,0,0,0,2.745,6.909l.124,0a4,4,0,0,0,3.116,1.492c.074,0,.148,0,.223-.006l11.045-.615c.1-.006.192-.014.288-.027l3.38-.435a19.759,19.759,0,0,0,8.838-3.265,4,4,0,0,0,2.72,1.077l.1,0a4,4,0,0,0,3.208,1.612c.074,0,.149,0,.223-.006l17.4-.97a4,4,0,0,0,2.6-1.157,4,4,0,0,0,2.487.867c.074,0,.148,0,.223-.006l18.448-1.028a4,4,0,0,0,2.236-7.149Zm-59.724-4.695a2.538,2.538,0,0,1-.668.381l-.825-14.811c.1.036.211.075.317.116s.469.22,1.327.663a36.208,36.208,0,0,1,.659,5.524C284.839,655.317,283.846,657.073,283.687,657.312Z" fill="#fff"/><path id="TELESS" d="M533.531,635.005a15.885,15.885,0,0,0-4.471-3.459c.46-.987.93-2.034,1.4-3.132.721-1.714,1.329-3.1,1.817-4.219q.336-.767.6-1.364a4,4,0,0,0-.149-3.477,4.053,4.053,0,0,0,.081-.807,4,4,0,0,0-3.918-4H528.8c-.12,0-.24,0-.36.016a3.96,3.96,0,0,0-1.449.416,10.549,10.549,0,0,1-3.517,1.22c-.178.01-.344.016-.5.016-.129,0-.21,0-.252-.008l-.083-.022a28.694,28.694,0,0,0-7.182-.989c-.423,0-.847.012-1.263.035a17.019,17.019,0,0,0-10.46,3.891,13.382,13.382,0,0,0-2.055,2.26c-.043-.1-.067-.2-.117-.292a4,4,0,0,0-3.836-4.805h-.087c-.122,0-.245.006-.368.017a3.977,3.977,0,0,0-1.44.415,10.578,10.578,0,0,1-3.518,1.22c-.183.01-.349.016-.5.016-.126,0-.2,0-.247-.007l-.08-.022a28.672,28.672,0,0,0-7.189-.991c-.42,0-.843.012-1.256.035a17.016,17.016,0,0,0-10.463,3.893c-.194.171-.363.357-.545.535a3.984,3.984,0,0,0-3.732-2.731h-.139c-.055,0-.109,0-.162.007l-30.263,1.688a4,4,0,0,0-2.277,7.116l3.593,2.876.25,4.494a6.453,6.453,0,0,0-.941.64c-1.929,1.5-2.906,4.192-3.209,8.805a4,4,0,0,0-2.923-1.274c-.074,0-.149,0-.224.006l-1.48.082a4,4,0,0,0-3.776,3.844c-.088,2.363-.75,3.15-2.15,3.421l-1.059-19.011,1.606-1.757a4,4,0,0,0,.095-5.289,3.953,3.953,0,0,0-.311-.837,4,4,0,0,0-3.57-2.2c-.074,0-.148,0-.223.006l-14.809.826-.02,0-.074,0L375.971,623.8a3.979,3.979,0,0,0-.718.113,3.924,3.924,0,0,0-.463-.04h-.079c-.065,0-.13,0-.194.008l-37.111,2.069a4,4,0,0,0-3.279,5.926l6.2,11.228a6.115,6.115,0,0,0,9.263-2.133l.9,16.119-3.134,3a4,4,0,0,0,2.764,6.891c.074,0,.149,0,.224-.007l.268-.015.092.107a4,4,0,0,0,3.026,1.384c.074,0,.149,0,.223-.006l14.686-.818a4,4,0,0,0,2.585-6.843l-4.665-4.6-1.011-18.158h.017l.157-.008c.063.6.115,1.262.155,1.988a7.906,7.906,0,0,0,8.288,2.06c.122-.053.228-.131.343-.2a21.314,21.314,0,0,0-1.185,7,4,4,0,0,0,5.034,4.021l.148,2.659-3.092,3a4,4,0,0,0,2.782,6.873c.075,0,.149,0,.224-.006l.2-.011.195.211a4,4,0,0,0,2.933,1.28c.074,0,.148,0,.223-.007l26.84-1.5a3.416,3.416,0,0,1,3.047-.176c.074,0,.149,0,.223-.006l26.038-1.451a4,4,0,0,0,2.753-1.331,3.984,3.984,0,0,0,2.64,1.023c.074,0,.148,0,.223-.006l26.84-1.5a3.992,3.992,0,0,0,2.06-.718c.114.01.228.022.343.022a3.981,3.981,0,0,0,2.071-.581,2.1,2.1,0,0,1,.758-.313c.059,0,.118,0,.18,0a24.027,24.027,0,0,1,5.464.983l.068.018.628.151a16.448,16.448,0,0,0,3.948.4c.585,0,1.213-.018,1.867-.055a20.14,20.14,0,0,0,9.544-2.871l.06-.038a17.536,17.536,0,0,0,2.663-2.1l.55.849a4,4,0,0,0,5.433,1.245,2.064,2.064,0,0,1,.76-.313c.055,0,.113,0,.175,0a24,24,0,0,1,5.465.985l.068.017.628.152a16.513,16.513,0,0,0,3.947.394c.585,0,1.214-.018,1.869-.055a20.11,20.11,0,0,0,9.542-2.871l.061-.038a16.349,16.349,0,0,0,6.554-7.869l.021-.053a16.331,16.331,0,0,0,1.078-6.825A12.718,12.718,0,0,0,533.531,635.005Zm-34.2-4.908a13.961,13.961,0,0,0,1.128,4.854,25.309,25.309,0,0,0-2.556-1.668c.46-.984.93-2.032,1.4-3.131ZM457.3,648.485c-.178.035-.384.07-.62.1l-.05-.9Zm30.96-.34a9.6,9.6,0,0,1-1.7.252,16.232,16.232,0,0,1-2.212-1.344q.861.189,1.812.391A9.582,9.582,0,0,1,488.264,648.145Zm31.161-1.736a9.7,9.7,0,0,1-1.7.252,16.063,16.063,0,0,1-2.21-1.344q.86.189,1.809.39A9.663,9.663,0,0,1,519.425,646.409Zm-48.652-7.237.188.867a5.774,5.774,0,0,0,.852,1.98c-.518,1.5-1.038,2.9-1.556,4.212a3.987,3.987,0,0,0-1.467-1.309l-.474-.242q-.129-.707-.258-1.506a3.993,3.993,0,0,0-1.8-2.734l-.11-1.973a12.669,12.669,0,0,0,2.581-3.35A12.16,12.16,0,0,0,470.773,639.172Zm-30.513,12.86a13.413,13.413,0,0,1-1.282-2.457c.033,0,.067.007.1.007a3.968,3.968,0,0,0,1.037-.137ZM408.5,649.687a3.989,3.989,0,0,0-1.476-1.321l-.473-.243c-.086-.47-.171-.972-.258-1.5a4,4,0,0,0-1.8-2.737l-.11-1.971a11.474,11.474,0,0,0,2.664-3.605q.395-1.642.669-2.73Zm-12.963,2.241c-.178.034-.383.069-.62.1l-.05-.9Zm-18.112-15.639.112,2a6.425,6.425,0,0,0-.943.641l0,0C376.907,637.91,377.181,637.036,377.427,636.289Z" fill="#fff"/><path id="BAR" d="M663.068,642.092a32.755,32.755,0,0,1-8.457-6.134l-.055-.056a32.45,32.45,0,0,1-2.943-3.335,12.213,12.213,0,0,0,5.345-10.951,11.655,11.655,0,0,0-3.473-7.715,47.019,47.019,0,0,0-4.875-3.731l-.534-.388a3.991,3.991,0,0,0-2.157-.758,21.755,21.755,0,0,0-8.86-1.708c-.565,0-1.149.017-1.736.05a22.1,22.1,0,0,0-14.181,5.6,4,4,0,0,0,.124,5.992L622.489,620l.353,6.339a4,4,0,0,0-2.756,2.5l-.176.485a37.177,37.177,0,0,1-2.144-4.252,4.009,4.009,0,0,0-1.366-1.761l-.617-.449-.024-.123a4,4,0,0,0-5.386-2.951l-.286-.557,1.307-2.217a4,4,0,0,0-3.359-6.14h-.093c-.062,0-.124,0-.186.007l-2.5.139-.043,0-12.854.717a4,4,0,0,0-2.919,6.469l1.737,2.2-.34.911a3.942,3.942,0,0,0-.632-.051,4,4,0,0,0-3.843,2.891l-.082.284a4,4,0,0,0-.749,1.135l-2.58,5.9a3.993,3.993,0,0,0-.126,2.86,11.578,11.578,0,0,0-1.636-1.81,13.153,13.153,0,0,0,1.4-6.96,16.522,16.522,0,0,0-5.3-11,4,4,0,0,0-2.807-1.151c-.1,0-.193,0-.289.01a4.106,4.106,0,0,0-.6.089,22.557,22.557,0,0,0-10.52-2.128h0c-.775,0-1.589.024-2.418.07a27.507,27.507,0,0,0-14.664,5.343,4,4,0,0,0-.178,6.364l1.273,1.026.254,4.551a4,4,0,0,0-2.767,2.534l-1.658,4.671a4,4,0,0,0,2.516,5.136l.338.541a3.993,3.993,0,0,0,2.386,1.749l.15,2.685-3.135,3a4,4,0,0,0,2.763,6.891c.075,0,.149,0,.224-.006l.208-.012.093.108a4,4,0,0,0,3.025,1.384c.074,0,.148,0,.223-.007l17.955-1a18.753,18.753,0,0,0,9.058-2.6,3.967,3.967,0,0,0,1.293.22h.1a4,4,0,0,0,3.208,1.611c.074,0,.148,0,.223-.006l17.4-.97a3.718,3.718,0,0,1,5.084-.289c.074,0,.148,0,.223-.007l18.449-1.028a4.029,4.029,0,0,0,1.02-.2,3.988,3.988,0,0,0,1.171.2c.074,0,.149,0,.223-.007l14.028-.782a4,4,0,0,0,5.384,2.767l.16.071a4,4,0,0,0,3.978-.415,31.135,31.135,0,0,1,5.234-2.955c.965-.423,3.226-1.334,6.725-2.642a4,4,0,0,0,.444-7.295Zm-98.692-.934a10.426,10.426,0,0,1,1.572.091c.2.148.575.447,1.205,1.017-.019.054-.04.107-.064.159-.092.2-.267.566-1.312.822-.055.014-.11.028-.164.044a9.836,9.836,0,0,1-1.27.17l-.129-2.3Zm1.2-14.243a8.8,8.8,0,0,1-1.942.828q-.113.019-.222.042L563.253,625c.857.064,1.049.391,1.194.637a4,4,0,0,0,1.132,1.233Zm55.782,12.092.87.746a4,4,0,0,0,1.409.78l.079,1.417-1.021.946-2.624-2.044-1.149-2.486a1.974,1.974,0,0,1,2.436.641Zm17.365-17.044a5.907,5.907,0,0,1,.99.1,2.177,2.177,0,0,1-.914,1.274Zm-53.24,14.959c-.3.789-.578,1.483-.853,2.117a9.475,9.475,0,0,0-.933-3.238A3.99,3.99,0,0,0,585.479,636.922Z" fill="#fff"/></g></g><g id="Text"><path d="M279.9,666.9l-13.141.732,4.527-4.274-1.417-25.422L264.941,634l13.946-.777q7.774-.432,12.279,3.772c2.935,2.683,4.512,6.557,4.791,11.555.371,6.663-1.335,11.587-5.184,14.71C288.109,665.447,284.463,666.64,279.9,666.9Zm4.523,1.171-3.38.436-11.045.615-1.292-2.094,12.155-.677c7.836-.437,12.664-3.739,14.429-9.841a19.512,19.512,0,0,0,.559-6.653c-.3-5.431-1.638-9.378-3.942-11.85a11.249,11.249,0,0,0-1.244-1.231l.866-1.1c4.112,2.681,6.333,7.013,6.674,13.121a25.287,25.287,0,0,1-.828,8.464A15.005,15.005,0,0,1,284.419,668.066Zm-6.827-31.433.926-.052a10.386,10.386,0,0,1,5.682.922,30.132,30.132,0,0,1,4.506,4.2c-2.616-1.4-4.145-2.183-4.653-2.4a11.473,11.473,0,0,0-4.936-.839l-.926.052-.246.013,1.334,23.941c3.761-.272,6.248-1.153,7.469-2.582,1.449-1.752,2.049-5.438,1.743-10.929-.32-5.738-1.26-9.275-2.762-10.678-1.5-1.341-4.686-1.9-9.625-1.691l.017.308A6.945,6.945,0,0,1,277.592,636.633Z" fill="#000000"/><path d="M324.155,660.282,321.8,654.6c-.525.587-1.8,2.081-3.712,4.477l-1.731-1.08a54.431,54.431,0,0,1,4.4-5.506l-.213-.483,1.251.24c-1.059.987-1.768,1.583-2.063,1.848-.642.717-1.792,2.265-3.461,4.525a32.271,32.271,0,0,0-4.184-5.09l-1.264,5.085a3.534,3.534,0,0,0-.123,1.121,4.476,4.476,0,0,0,1.776,3c.713.58,2.332,1.851,4.728,3.758l-17.4.97-1.293-2.094,13.142-.732a14.343,14.343,0,0,1-2.2-1.8,4.247,4.247,0,0,1-.95-2.608,8.582,8.582,0,0,1,.2-2.054l1.5-6.4-.391-.348,1.218-.378c-.573,1.951-1.4,4.969-2.344,9.044-.035.5-.076.871-.066,1.056a2,2,0,0,0,.628,1.264c.456.408,2.417,1.166,5.952,2.392l-18.7,1.042a22.959,22.959,0,0,0,6.93-6.7,47.848,47.848,0,0,0,3.8-9.5,3.443,3.443,0,0,0-2.585-.845l-1.542.086,2.579-5.9c.765.391,1.848.949,3.193,1.741l.11-.253.105.8a5.777,5.777,0,0,0-3.125-1.683l.726-2.516a21.966,21.966,0,0,1,2.749,1.579l.065.059,2.692-7.206-3.128-3.973,13.634-.76-2.854,4.306,4.445,8.665.179-.134-.2.878-4.681-9.581,2.37-4.093,2.529-.14L322,634.9l3.888,7.582a13.281,13.281,0,0,0,2.423-3.168,23.821,23.821,0,0,0,1.388,4.936,31.158,31.158,0,0,0,2.669,4.555,12.174,12.174,0,0,0-3.569-.729,7.59,7.59,0,0,0-2.386.5l5.038,11.541,5.332,3.479-16.66.928Zm-12.467-12.675,2.978-8.768-.422-.906,1.419-.079-3.43,9.537q1.373,1.317,3.94,4.05l.057-.064-.009.929-1.453-1.653A31.683,31.683,0,0,0,311.688,647.607Zm2.5-.7c.723.765,1.714,1.886,3.1,3.356l1.7-1.642-3.042-6.825Zm6.654,17.207,14.377-.8-3.806-2.757L325.9,648.177a32.68,32.68,0,0,1,3.75-.456l.987-.056a20.408,20.408,0,0,1-2.562-7.1l2.451,1.784a59.872,59.872,0,0,0,4.214,7.873,9.9,9.9,0,0,0-2.808-.4,13.919,13.919,0,0,1-1.792.038l-1.111.063,4.293,9.292,7.635,5.948L322.5,666.19Z" fill="#000000"/><path d="M344.722,633.944c-.841.48-1.137,2.91-.9,7.23l-6.2-11.229,37.144-2.07-4.907,11.909c-.241-4.319-.868-6.7-1.82-7.139-.7-.333-2.562-.415-5.524-.249l-3.023.168,1.44,25.852,4.356,3.719-15.179.845,4.465-4.271-1.338-24-2.838.158a9.723,9.723,0,0,0-3.8.646c-.717.472-1,1.973-.87,4.38l-2.222.124c-.2-3.578.548-5.724,2.3-6.441A2.685,2.685,0,0,0,344.722,633.944Zm20.615.089-4.011.224,1.32,23.693,5.765,5.682-14.685.818-1.787-2.066,11.662-.65-2.938-2.745-1.485-26.656,4.38-.244a19.238,19.238,0,0,1,4.027.085,2.407,2.407,0,0,1,1.547,1.091,24.822,24.822,0,0,1,2.373,4.819c-2.315-2.657-3.627-4.007-4-4.049A15.827,15.827,0,0,0,365.337,634.033Zm7.237,4.362-1.91-.945a32.381,32.381,0,0,1,3.945-9.2l1.323,1.535a27.831,27.831,0,0,0-1.881,4C373.623,634.994,373.15,636.507,372.574,638.4Z" fill="#000000"/><path d="M379.544,647.909l-1.619-1.27a14.026,14.026,0,0,1,3.122-1.722,4.329,4.329,0,0,1,.861-.109l-.024-.432.72.7a4,4,0,0,0-.805-.016,3.773,3.773,0,0,0-2.716,1.264c-.174.2-.743,1.094-1.769,2.7.155-3.908.768-6.231,1.779-6.968a4.86,4.86,0,0,1,2.612-.889l-.522-9.378-4.99-3.993,30.3-1.689a13.918,13.918,0,0,0-3.963,5.543,24.417,24.417,0,0,0-.3,6.887c-1.9-4.041-3.391-6.433-4.477-7.054s-3.514-.855-7.277-.645l-2.962.165.547,9.809.123-.006-.561-10.058,5.307-.3a20.017,20.017,0,0,1,4.089.082,2.522,2.522,0,0,1,1.549,1.151,27.415,27.415,0,0,1,2.088,5.269c-2.084-2.978-3.345-4.517-3.718-4.559a16.324,16.324,0,0,0-2.167,0l-4.937.275.447,8.02,3.765-.209,4.112-6.171.866,15.549-4.772-5.676-5.985.334.664,11.908.123-.007-.671-12.031,6.972-.389,1.718,1.946-6.479.362.557,10,2.531-.141a11.879,11.879,0,0,0,4.77-1.009c1.506-.764,2.843-3.439,3.895-7.892a27.079,27.079,0,0,0,1.752,7.021,53.4,53.4,0,0,0,4.141,5.463l-30.049,1.675,4.405-4.268-.581-10.427A8.02,8.02,0,0,0,379.544,647.909Zm2.2,14.981-1.91-2.06,27.458-1.53.112-.193a15.8,15.8,0,0,1-4.488-8.353l2.292,1.173a21.6,21.6,0,0,0,4.847,6.97l-1.471,2.5Zm16.107-27.512,2.3,2.348.722,12.957-2.272-1.916Zm5.309,1.993-1.72-.893a11.269,11.269,0,0,1,1.027-4.886,16.938,16.938,0,0,1,2.607-4.292l1.327,1.6a12.517,12.517,0,0,0-2.077,3.83C404.166,633.292,403.759,634.862,403.156,637.371Z" fill="#000000"/><path d="M412.83,655.463l-1.41-25.3-4.869-4.061,14.808-.826-3.652,4.412,1.4,25.051.37-.02-.7.782-1.451-26.039,3.074-3.7,1.8,1.138-2.741,3,1.379,24.743,2.961-.166c4.443-.247,6.78-2.728,6.954-7.38l1.481-.082c.45,2.511,2.14,6.192,5.137,11.1l-29.061,1.62Zm-.979,5.748-1.971-2.056,26.778-1.493.11-.254a23.987,23.987,0,0,1-4.76-9.885l2.634,1.709a17.818,17.818,0,0,0,4.713,7.97l-1.466,2.558Z" fill="#000000"/><path d="M441.309,644.467l-1.62-1.271a14.034,14.034,0,0,1,3.123-1.721,4.478,4.478,0,0,1,.86-.111l-.025-.431.72.7a4.084,4.084,0,0,0-.8-.018,3.78,3.78,0,0,0-2.715,1.266c-.175.2-.744,1.094-1.769,2.7.154-3.908.767-6.231,1.778-6.969a4.863,4.863,0,0,1,2.612-.889l-.523-9.378-4.987-3.992,30.3-1.69a13.9,13.9,0,0,0-3.962,5.544,24.335,24.335,0,0,0-.3,6.887c-1.9-4.041-3.391-6.434-4.477-7.054s-3.514-.855-7.278-.645l-2.963.165.547,9.809.124-.007-.56-10.057,5.306-.3a19.959,19.959,0,0,1,4.089.081,2.534,2.534,0,0,1,1.55,1.151,27.433,27.433,0,0,1,2.088,5.27c-2.084-2.979-3.346-4.518-3.719-4.56a16.686,16.686,0,0,0-2.167,0l-4.936.276.447,8.02,3.764-.21,4.113-6.171.866,15.55-4.773-5.677-5.986.334.664,11.908.124-.006-.671-12.032,6.973-.388,1.718,1.946-6.48.361.558,10,2.53-.14a11.893,11.893,0,0,0,4.771-1.009c1.506-.765,2.842-3.439,3.892-7.893a27.183,27.183,0,0,0,1.754,7.022,53.774,53.774,0,0,0,4.142,5.463l-30.049,1.675,4.4-4.269-.581-10.428A8.068,8.068,0,0,0,441.309,644.467Zm2.195,14.979-1.909-2.059,27.458-1.531.111-.192a15.782,15.782,0,0,1-4.487-8.352l2.292,1.171a21.619,21.619,0,0,0,4.845,6.972l-1.469,2.5Zm16.106-27.51,2.3,2.346.723,12.957-2.274-1.915Zm5.311,1.993-1.721-.894a11.287,11.287,0,0,1,1.028-4.886,16.9,16.9,0,0,1,2.607-4.292l1.327,1.6a12.511,12.511,0,0,0-2.077,3.829C465.931,629.849,465.523,631.42,464.921,633.929Z" fill="#000000"/><path d="M487.12,655.777a38.174,38.174,0,0,1-9.17-1.283,11.547,11.547,0,0,0-2.933-.456,4.315,4.315,0,0,0-3.071,1.534l-1.17-.987a73.209,73.209,0,0,0,5.191-12.358,22.044,22.044,0,0,0,2.291,6.679,8.534,8.534,0,0,0,6.134,3.434,8.824,8.824,0,0,0,2.17.065c4.75-.264,7.06-2.126,6.864-5.643a4.813,4.813,0,0,0-3.6-4.566q-6.277-1.043-9.193-1.717c-5.389-1.184-8.218-4.182-8.483-8.934a9.05,9.05,0,0,1,3.039-7.658,13.012,13.012,0,0,1,8.07-2.926,23.615,23.615,0,0,1,7.226.836,6.069,6.069,0,0,0,2.05.133,14.6,14.6,0,0,0,5.107-1.646,96.6,96.6,0,0,0-5.843,12.89,25.051,25.051,0,0,0-1.444-4.809,6.555,6.555,0,0,0-3.53-3.394,7,7,0,0,0-3.059-.449c-3.27.182-5.446,2.223-5.271,5.371l.034.616a3.893,3.893,0,0,1,.161.672c.321,1.281,1.855,2.187,4.674,2.771,1.624.282,4.127.762,7.442,1.381a9.479,9.479,0,0,1,5.879,3.324,10.491,10.491,0,0,1,2.326,6.185,10.119,10.119,0,0,1-.17,2.484C497.59,652.6,493.723,655.409,487.12,655.777Zm8.282-.214a16.1,16.1,0,0,1-7.671,2.286,16.621,16.621,0,0,1-4.655-.236l-.628-.151a25.478,25.478,0,0,0-6.869-1.1,5.776,5.776,0,0,0-2.612.887l-1.083-1.672a6.713,6.713,0,0,1,3.822-1.389,15.134,15.134,0,0,1,3.983.4l6.064,1.087c7.466-.417,11.765-3.256,13.018-8.525a7.542,7.542,0,0,0,.167-1.433l.007-.991a6.959,6.959,0,0,0-1.334-3.949,44.167,44.167,0,0,0-6.23-6.275c1.272.61,2.547,1.281,3.881,1.887a14.578,14.578,0,0,1,4,2.873,8.724,8.724,0,0,1,1.958,5.151,12.267,12.267,0,0,1-5.816,11.155ZM487,643.53c-6.952-1.469-10.791-2.617-11.577-3.379a2.124,2.124,0,0,1-.548-.959l-.583-2.69,2.2,1.672a3.279,3.279,0,0,0,.978.875l1.265.485a26.45,26.45,0,0,0,2.7.594l7.317,1.387c2.575.661,4.31,1.8,5.081,3.429l-.5,2.072A11.5,11.5,0,0,0,487,643.53Zm-9.543,2.018,1.789-.1a10.851,10.851,0,0,0,2.357,4.511,22.759,22.759,0,0,0,4.546,2.717l-2.122.8C479.884,652.53,477.7,649.929,477.452,645.548Zm6.674-19.064q-3.7.205-3.526,3.353a3.442,3.442,0,0,0,.85,1.934,36.572,36.572,0,0,0,4.905,3.625,35.05,35.05,0,0,1-5.281-1.5,4.672,4.672,0,0,1-2.829-4.114,4.785,4.785,0,0,1,2.348-4.525,6.274,6.274,0,0,1,3.223-.985,8.246,8.246,0,0,1,5.538,1.611,9.524,9.524,0,0,1,2.589,4.25l-2.181-1.364A7.773,7.773,0,0,0,484.126,626.484Zm9.408,6.655-1.518-1.71c1.03-2.6,1.74-4.306,2.12-5.255a25.471,25.471,0,0,1,2.82-4.924l1.087,1.734c-.547,1.269-1.374,3.111-2.412,5.582C494.755,630.6,494.034,632.121,493.534,633.139Z" fill="#000000"/><path d="M518.28,654.041a38.287,38.287,0,0,1-9.169-1.284,11.443,11.443,0,0,0-2.934-.455,4.312,4.312,0,0,0-3.071,1.533l-1.169-.986a73.406,73.406,0,0,0,5.191-12.36,22.023,22.023,0,0,0,2.291,6.681,8.539,8.539,0,0,0,6.133,3.434,8.939,8.939,0,0,0,2.171.065c4.75-.265,7.06-2.127,6.864-5.645a4.815,4.815,0,0,0-3.6-4.565q-6.279-1.042-9.194-1.716c-5.388-1.184-8.217-4.183-8.482-8.935a9.049,9.049,0,0,1,3.039-7.659,13.014,13.014,0,0,1,8.069-2.924,23.579,23.579,0,0,1,7.226.835,6.1,6.1,0,0,0,2.051.133,14.559,14.559,0,0,0,5.107-1.646,96.305,96.305,0,0,0-5.843,12.891,25.115,25.115,0,0,0-1.443-4.81,6.563,6.563,0,0,0-3.532-3.394,7.009,7.009,0,0,0-3.058-.449c-3.271.183-5.446,2.223-5.271,5.37l.034.616a3.958,3.958,0,0,1,.161.672c.32,1.283,1.855,2.188,4.673,2.773,1.625.281,4.128.762,7.443,1.381a9.479,9.479,0,0,1,5.88,3.324,10.484,10.484,0,0,1,2.325,6.183A10.04,10.04,0,0,1,530,645.59C528.751,650.859,524.884,653.673,518.28,654.041Zm8.282-.214a16.094,16.094,0,0,1-7.669,2.284,16.64,16.64,0,0,1-4.656-.234l-.628-.151a25.5,25.5,0,0,0-6.869-1.1,5.786,5.786,0,0,0-2.612.888l-1.083-1.672a6.713,6.713,0,0,1,3.821-1.39,15.144,15.144,0,0,1,3.984.4l6.064,1.086c7.466-.416,11.765-3.256,13.018-8.526a7.6,7.6,0,0,0,.168-1.432l.006-.991a6.961,6.961,0,0,0-1.335-3.949,44.1,44.1,0,0,0-6.229-6.274c1.272.609,2.547,1.281,3.881,1.886a14.556,14.556,0,0,1,4,2.874,8.708,8.708,0,0,1,1.957,5.15,12.263,12.263,0,0,1-5.816,11.156Zm-8.407-12.033c-6.952-1.47-10.791-2.617-11.576-3.379a2.131,2.131,0,0,1-.549-.959l-.583-2.69,2.2,1.672a3.281,3.281,0,0,0,.976.874l1.265.486a27.519,27.519,0,0,0,2.695.593l7.318,1.386c2.576.662,4.31,1.8,5.081,3.431l-.5,2.07A11.5,11.5,0,0,0,518.155,641.794Zm-9.542,2.017,1.789-.1a10.821,10.821,0,0,0,2.357,4.511,22.721,22.721,0,0,0,4.546,2.716l-2.122.8C511.045,650.793,508.857,648.191,508.613,643.811Zm6.674-19.064q-3.7.207-3.527,3.353a3.436,3.436,0,0,0,.85,1.933,36.262,36.262,0,0,0,4.907,3.626,34.94,34.94,0,0,1-5.283-1.5,4.67,4.67,0,0,1-2.829-4.113,4.787,4.787,0,0,1,2.348-4.525,6.262,6.262,0,0,1,3.225-.984,8.244,8.244,0,0,1,5.537,1.61,9.524,9.524,0,0,1,2.589,4.25l-2.181-1.364A7.774,7.774,0,0,0,515.287,624.747Zm9.407,6.655-1.518-1.71c1.031-2.6,1.74-4.306,2.121-5.254a25.392,25.392,0,0,1,2.82-4.925l1.086,1.734c-.547,1.269-1.373,3.11-2.412,5.582C525.915,628.858,525.194,630.384,524.694,631.4Z" fill="#000000"/><path d="M550.981,622.2l-2.657-2.141a23.47,23.47,0,0,1,12.555-4.6c10-.558,15.184,2.557,15.559,9.283l.041.74c.217,3.887-1.919,6.667-6.344,8.338l-.2-1.413q.375.072.935.134a2.772,2.772,0,0,0,.635.273,5.955,5.955,0,0,0,2.883-1.583,6.566,6.566,0,0,0,1.939-5.183l-.069-1.235a3.138,3.138,0,0,1-.161-.671,12.373,12.373,0,0,0-2.592-5.425l.979-1.293A12.576,12.576,0,0,1,578.6,625.8q.315,5.646-4.37,8.228a8.168,8.168,0,0,1,4.726,7.04,8.393,8.393,0,0,1-2.474,6.7,10.131,10.131,0,0,1-6.889,2.983l-21.658,1.207,4.466-4.271-.519-9.318a22.928,22.928,0,0,0-2.723,1.143l-1.086-1.735a18.335,18.335,0,0,1,3.692-1.5c-.614.1-2.328.438-5.08,1.024l1.658-4.671c.806.017,1.241.055,1.427.044a10.719,10.719,0,0,0,1.786-.161Zm18.458,30.228-17.955,1-1.787-2.067,20.733-1.156a23.957,23.957,0,0,0,3.18-.672,8.639,8.639,0,0,0,2.819-1.642c1.589-1.451,2.312-4.03,2.1-7.793a5.636,5.636,0,0,0-2.459-4.133l.326-1.938c2.746,1.519,4.152,3.421,4.279,5.7.024.432.207,1.474.223,1.783a10.09,10.09,0,0,1-1.171,5.636C577.931,650.407,574.5,652.146,569.439,652.428ZM562.2,619.1a7.482,7.482,0,0,1,5.34,1.435,15.3,15.3,0,0,1,3.289,4.582l-2.931-1.508c-1.093-1.857-2.938-2.745-5.467-2.6a7.213,7.213,0,0,0-3.342,1.115l.554,9.935,3.949-.221c.428-.085.731-.165.917-.175a10.983,10.983,0,0,0,3.739-1.757,4.3,4.3,0,0,0,1.341-3.725c-.2-3.517-1.685-5.786-4.527-6.8A8.558,8.558,0,0,0,561.82,619a8.339,8.339,0,0,0-4.548,1.678l.007.123A8.411,8.411,0,0,1,562.2,619.1Zm7.36,17.662a8.334,8.334,0,0,0-4.09-1.2,4.519,4.519,0,0,0-1.238.008c-.555.03-1.854.041-2.163.059l-3.948.22.667,11.969.432-.023-.7.782-.729-13.082,4.813-.269a14.2,14.2,0,0,1,4.724.357,6.77,6.77,0,0,1,3.02,2,54.533,54.533,0,0,1,5.048,7.269c-4.341-4.585-7.015-7.036-7.961-7.354a14.463,14.463,0,0,0-4.844-.288l-2.592.144.578,10.367.987-.055a30.644,30.644,0,0,0,5.169-.536,5.535,5.535,0,0,0,3.979-3.006,5.766,5.766,0,0,0,.524-2.815,3.093,3.093,0,0,0-.109-.861A4.7,4.7,0,0,0,569.557,636.762Z" fill="#000000"/><path d="M607.681,644.479l-2.36-5.687c-.524.587-1.8,2.081-3.712,4.478l-1.731-1.081a54.224,54.224,0,0,1,4.4-5.5l-.214-.484,1.251.24c-1.058.988-1.768,1.584-2.063,1.848-.642.717-1.792,2.266-3.461,4.525a32.212,32.212,0,0,0-4.184-5.089l-1.263,5.085a3.477,3.477,0,0,0-.123,1.121,4.468,4.468,0,0,0,1.776,3c.713.58,2.331,1.851,4.728,3.759l-17.4.969-1.293-2.093,13.143-.733a14.343,14.343,0,0,1-2.205-1.8,4.232,4.232,0,0,1-.949-2.608,8.527,8.527,0,0,1,.194-2.054l1.5-6.4-.392-.348,1.218-.379c-.572,1.951-1.394,4.969-2.344,9.044-.035.5-.075.871-.064,1.057a1.992,1.992,0,0,0,.628,1.263c.455.409,2.416,1.166,5.95,2.392l-18.7,1.042a22.993,22.993,0,0,0,6.93-6.7,47.838,47.838,0,0,0,3.8-9.5,3.442,3.442,0,0,0-2.585-.846l-1.543.086,2.58-5.9c.765.39,1.849.949,3.193,1.741l.11-.254.1.8a5.774,5.774,0,0,0-3.125-1.684l.727-2.516a22.038,22.038,0,0,1,2.749,1.579l.065.059,2.693-7.206-3.13-3.973,13.637-.759-2.857,4.3,4.446,8.665.178-.133-.2.877-4.681-9.581,2.372-4.092,2.53-.141-2.489,4.224,3.889,7.582a13.277,13.277,0,0,0,2.422-3.168,23.744,23.744,0,0,0,1.39,4.935A30.786,30.786,0,0,0,615.892,633a12.184,12.184,0,0,0-3.57-.729,7.578,7.578,0,0,0-2.385.5l5.038,11.541,5.332,3.479-16.66.929ZM595.215,631.8l2.976-8.769-.42-.906,1.417-.079-3.428,9.537q1.371,1.317,3.939,4.051l.058-.065-.01.929-1.454-1.652A31.455,31.455,0,0,0,595.215,631.8Zm2.5-.7c.724.765,1.715,1.886,3.1,3.356l1.7-1.642L599.47,626Zm6.654,17.207,14.378-.8-3.806-2.758-5.518-12.382a33.193,33.193,0,0,1,3.75-.456l.987-.056a20.408,20.408,0,0,1-2.561-7.1l2.451,1.783a59.56,59.56,0,0,0,4.214,7.873,9.851,9.851,0,0,0-2.808-.4,14.119,14.119,0,0,1-1.793.038l-1.11.062,4.293,9.292,7.636,5.948-18.45,1.029Z" fill="#000000"/><path d="M622.073,635.072l1.772-4.863,1.913-.106a7.77,7.77,0,0,0,1.293-.134l-.664-11.909-2.533-2.149a18.1,18.1,0,0,1,11.691-4.552c5.367-.3,9.461.958,12.338,3.707a9.181,9.181,0,0,1,2.822,6.218,8.024,8.024,0,0,1-1.229,4.587,13.628,13.628,0,0,1-6.5,4.447A36.382,36.382,0,0,0,649.34,639a37.346,37.346,0,0,0,8.105,6.6,31.22,31.22,0,0,0-12.415,6.014,37.36,37.36,0,0,0-2.484-10.136,84.527,84.527,0,0,0-3.164-7.931,12.036,12.036,0,0,1-3.974.9l.468,8.392,5.641,5.689-14.624.816-1.787-2.067,11.724-.653-2.942-2.809-.626-11.229q1.754-.189,5.152-.844l-.271-.417.884.32a39.975,39.975,0,0,1-5.439,1.233l.578,10.366L638.7,646.9l-15.364.856,4.474-4.148-.434-7.774a12.614,12.614,0,0,0-2.551.885l-1.56-1.337c1.142-.62,2.044-1.105,2.709-1.388l.244-.077C625.665,634.007,624.326,634.391,622.073,635.072Zm12.814-18.848c.984-.117,1.725-.159,2.218-.186,2.838-.158,4.974.4,6.473,1.744l-.927,1.165a8.418,8.418,0,0,0-4.88-.965c-.432.024-.926.051-1.6.151-.859.109-1.414.14-1.661.154l.595,10.675c5.2-1.1,8.054-3.172,8.561-6.295a5.375,5.375,0,0,0,.113-1.306c-.226-4.072-2.871-5.967-7.871-5.751a7.77,7.77,0,0,0-3.236.8C633.1,616.385,633.842,616.344,634.887,616.224Zm13.43,35.522-2.22-.991a47.478,47.478,0,0,1,10.156-5.455,40.52,40.52,0,0,1-13.48-15.279c5.653-1.863,8.406-4.678,8.189-8.566a7.379,7.379,0,0,0-1.842-4.167l-3.393-4.268c2.773,2.012,4.449,3.218,4.908,3.688a7.7,7.7,0,0,1,2.329,5.131c.23,4.134-2.135,7.237-7.029,9.366a34.153,34.153,0,0,0,5.805,7.538,36.566,36.566,0,0,0,9.483,6.9c-3.7,1.382-6,2.315-6.965,2.74A35.234,35.234,0,0,0,648.317,651.746Z" fill="#000000"/><path d="M258.192,842.707l-8.42-151.063,28.964-1.615,8.42,151.064Zm115.682-6.448-.28-5.03-47.7,2.659.282,5.03-28.618,1.6-8.419-151.064L394.071,683.6l8.42,151.063Zm-6.922-124.181-47.694,2.659,1.681,30.178,47.7-2.659Zm3.181,57.061L322.438,771.8l1.962,35.208,47.7-2.659Z" fill="#000000"/><path d="M451.405,831.938l-3.422-61.4c-13.691.938-24.792,1.557-24.792,1.557l-3.107-24.533,13.528-.753,4.856-6.534c-5.561-6.127-12.076-13.768-20.132-20.972l9.6-27.5c1.473,1.484,2.939,2.795,4.23,4.114a131.833,131.833,0,0,0,6.23-19.31l24.533,6.287c-4.93,14.542-9.815,23.686-14.515,29.862.935,1.167,2.979,3.489,3.913,4.655,8.188-15.419,13.225-28.053,13.225-28.053l22.1,12.514a210.979,210.979,0,0,1-23.56,42.371c2.429-.136,8.479-.82,11.071-1.139-.656-2.4-2.14-7.188-2.96-9.4l15.8-6.8c7.26,21,12.283,39.33,12.283,39.33l-19.241,7.509s-.328-2.765-.888-6.561l-4.509.252,3.509,62.958Zm-27.482-9.255c3.341-14.974,2.509-36.154,2.055-44.3l-.194-3.468,18.953-.187.289,5.2c.562,10.059,1.481,32.8-.954,48.42Zm60.906.259s-1.527-24.272-6.223-46.105l18.335-5.024c5.6,22.479,9.22,46.808,9.22,46.808Zm27.7-24.335,5.2-.29c30.179-1.681,30.236-3.772,25.809-83.207l-27.576,1.537c-4.268,7.719-8.7,15.621-16.685,22.156l-17.3-23.219a101.4,101.4,0,0,0,20.053-42.872l28.54.149a104.268,104.268,0,0,1-3.311,15.494l42.493-2.368.328,5.9c6.593,118.284,6.008,132.757-46.371,135.677Zm2.426-15.794c-7.827-18.7-19.634-37-19.634-37l21.542-13.032s13.5,17.515,22.014,36Z" fill="#000000"/><path d="M623.8,747.345c-18.291-12.9-30.962-18.629-30.962-18.629l15.287-22.252a235.145,235.145,0,0,1,30.017,17.291Zm99.21,69.455-.242-4.336-51.685,2.88.242,4.336-27.75,1.547-6.555-117.591,29.659-1.653-.454-8.151-31.218,1.739-.164-2.948-9.923,15.516C607.5,695.191,594.1,688.806,594.1,688.806l15.326-21.558A242.071,242.071,0,0,1,634.236,681.7l-.628-11.273,111.346-6.206,1.4,25.148-31.912,1.78.454,8.151,29.311-1.634,6.555,117.591ZM596.082,805.606c13.051-28.042,18.171-57.9,18.171-57.9l26.018,14.207s-5.909,34.429-17.553,59.609Zm67.271-79.08,1.169,20.986a50.122,50.122,0,0,0,4.9-21.324Zm1.546,27.749.638,11.448,11.62-.648Zm58.916,26.988-57.234,3.19.339,6.071,57.234-3.19ZM722.53,758.2l-13.354.744c-12.488.7-13.318-4.824-13.8-13.5l-1.15-20.638-4.683.26c-.007,18.616-2.712,29.379-7.875,39.757l41.1-2.291Zm-30.113-65.824-4.336.241.454,8.152,4.336-.242Zm28.17,30.964-6.07.339.473,8.5c.164,2.948,1.254,3.757,6.283,3.476Z" fill="#000000"/><path d="M884.479,807.626,875,790.582a86,86,0,0,1-25.193,19.323l-22.54-14.226c24.674-9.9,40-25.195,45.617-36.817l-5.377.3a104.426,104.426,0,0,1-49.047,37.7l-14.649-16.233c20.205-5.823,32.72-12.262,41.669-20.242l-6.763.377a65.193,65.193,0,0,1-14.422,9.677l-2.979-3.488c-7.38,4.935-25.3,14.284-46.419,22.42l-7.81-27.748c5.809-1.89,11.09-3.924,16.033-5.766L781,717.707l-12.835.716-1.546-27.75,12.835-.716-1.643-29.484,27.749-1.547L807.2,688.41l12.661-.7,1.546,27.75-12.661.7,1.508,27.056a102.184,102.184,0,0,0,9.086-5.551l-1.121-20.119,102.5-5.713,1.112,19.945-58.8,3.277a19.7,19.7,0,0,1-3.4,4.539l59.488-3.316,1.276,22.894c2.039,36.6-4.008,46.675-31.932,48.231Zm-58.872-94.842-3.064-54.979,89.319-4.978,3.065,54.98Zm-2.634,24.5.531,9.539A58.275,58.275,0,0,0,837.193,736.5Zm61.673-67.112-33.82,1.885.28,5.029,33.82-1.885Zm1.024,18.384-33.819,1.884.28,5.031,33.819-1.885Zm.788,92.164c7.805-.436,8.922-2.238,8.235-14.552l-.473-8.5-1.041.057c-2.253,6.39-5.567,15.622-10.711,23.214Z" fill="#000000"/><path d="M580.433,884.525a24,24,0,0,1-4.105-7.328,35.324,35.324,0,0,1-1.77-9.674c-.37-6.631.715-12.194,4.123-17.394a16.831,16.831,0,0,1,13.771-7.831,16.086,16.086,0,0,1,13.188,5.261c4.188,4.447,6.246,8.932,6.684,16.793.41,7.368-1.062,13.363-4.414,18.067-3.661,5.05-7.381,7.557-12.621,7.849C588.821,890.628,583.868,888.687,580.433,884.525Zm19.128,1.317a12.406,12.406,0,0,0,3.094-6.334c.715-3.406.864-8.1.531-14.072s-1.267-10.935-2.877-14.789c-1.807-4.415-5.038-6.37-8.216-5.947a7.381,7.381,0,0,0-4.571,1.98,13.4,13.4,0,0,0-2.728,5.572,44.419,44.419,0,0,0-1.33,14.446c.342,6.142,1.184,10.94,2.609,14.392,1.228,2.889,2.566,4.785,4.017,5.772a7.075,7.075,0,0,0,4.417,1.15A7.876,7.876,0,0,0,599.561,885.842Zm-13.933,4.964a21,21,0,0,0,8.861,1.312,19.6,19.6,0,0,0,9.91-3.426,20.144,20.144,0,0,0,4.986-4.878,29.522,29.522,0,0,0,5.345-19.022q-.594-10.685-6.867-17.111a58.928,58.928,0,0,0-4.749-4.17l-.2-.647a17.77,17.77,0,0,1,6.1,4.753,28.143,28.143,0,0,1,4.929,7.363,31.255,31.255,0,0,1,1.765,9.593c.452,8.106-1.315,14.693-5.381,19.847a20.781,20.781,0,0,1-15.869,8.522,21.441,21.441,0,0,1-8.442-1.172Zm7.666-43.708c-2.62.146-4.493,1.892-5.534,5.318-1.051,3.261-1.392,7.469-1.1,12.627l.073,1.31c.36,6.467.939,10.952,1.809,13.285a14.8,14.8,0,0,0,2.038,4.158,32.362,32.362,0,0,0,2.63,2.974c-1.333-.336-2.635-1.579-3.816-3.647a22.874,22.874,0,0,1-2.331-6.441A24.376,24.376,0,0,1,586.58,874c-.4-2.853-.709-5.382-.823-7.43a43.45,43.45,0,0,1,1.034-13.854c1.168-4.089,3.188-6.173,6.217-6.342a5.694,5.694,0,0,1,4.121,1.741A7.068,7.068,0,0,0,593.294,847.1Z" fill="#000000"/><path d="M618.841,886.983l4.438-4.353-2-35.942-4.918-4.244,14.983-.835-3.683,4.64,2.008,36.024,1.473-.082-1.985-35.615,3.22-4.121.683.455-3.083,3.62,1.984,35.616,4.912-.274c6.468-.36,9.874-4.082,10.138-11.16a27.227,27.227,0,0,0,2.293,7.266,71.784,71.784,0,0,0,3.845,7.093Zm33.936-7.065a26,26,0,0,0,3.481,4.98l-1.347,2.374-33.486,1.867-.873-.937,33.895-1.89.827-1.359a38.405,38.405,0,0,1-3.507-5.472,26.894,26.894,0,0,1-2.548-5.935l1.11.759A32.507,32.507,0,0,0,652.777,879.918Z" fill="#000000"/><path d="M687.5,844.311c3.648,3.574,5.659,8.717,6.028,15.35q1.289,23.088-20.327,24.293l-14.819.825,4.438-4.353-2.011-36.107-4.91-4.079,15.966-.889C678.5,838.981,683.684,840.663,687.5,844.311Zm-26.861,42.642L660.1,886l14.492-.808c10.889-.607,17.524-5.329,20.065-14.258a30.8,30.8,0,0,0,.7-9.566,40.526,40.526,0,0,0-2.395-12.021,15.9,15.9,0,0,0-3.071-5,12.508,12.508,0,0,0-1.823-1.788c5.208,3.57,8,9.411,8.449,17.515.483,8.679-1.449,15.275-5.719,19.7a17.911,17.911,0,0,1-5.044,3.813,22.458,22.458,0,0,1-6.622,2.011l-4.484.578Zm10.041-6.966L668.7,844.372a7.436,7.436,0,0,1,1.465-.245l1.228-.068a17.79,17.79,0,0,1,5.026.3,6.166,6.166,0,0,1,3.641,1.931,14.9,14.9,0,0,0-7.98-1.689l-1.31.073c-.568.112-.973.218-1.219.231l1.953,35.042c5.813-.324,9.68-1.689,11.6-4.013,2.069-2.661,2.923-7.966,2.485-15.825-.456-8.188-1.813-13.369-4.065-15.46s-7.064-2.974-14.432-2.564l2.117,37.989Z" fill="#000000"/><path d="M748.745,835.065l-3.019,4.768,6.757,13.667,1.177-.969-5.97-12.807,2.61-4.745.983-.055-2.61,4.745,5.843,11.993a7.959,7.959,0,0,0,3.11-3.129,24.577,24.577,0,0,0,3.6,8.586,7.145,7.145,0,0,0-2.474-.191,9.286,9.286,0,0,0-4.367,1.23l7.194,17.092,4.868,3.342-16.7.93,4.1-4.5-4-9.879c-.388.432-1.086,1.127-1.933,2.162-.387.43-1.536,1.891-3.529,4.466l-.682-.455a28.619,28.619,0,0,1,1.9-2.734q.462-.517,3.7-4.394l-.484-1.288c-1.481,1.4-2.337,2.266-2.727,2.617a59.345,59.345,0,0,0-3.9,5.144,39.089,39.089,0,0,0-6.152-7.213l-2.059,8.738a7.385,7.385,0,0,0-.145,1.816c.082,1.474.993,3.066,2.648,4.78q.4.471,4.395,3.7L720.9,883.6l-.545-.955,18.585-1.036c-2.83-2.142-4.373-3.288-4.632-3.52a5.829,5.829,0,0,1-1.429-3.534,9.591,9.591,0,0,1,.273-2.479l2.105-9.4-1.038-.927-2.678,10.907a14.112,14.112,0,0,0-.473,3.313c.1,1.8,1.663,3.273,4.678,4.338l-16.293.907c4.666-3.216,8.2-9,10.692-17.432l1.171-4.008a6.046,6.046,0,0,0-2.388-1.591,5.436,5.436,0,0,0-2.238-.368l-.41.024,2.315-5.632c1.015.519,2.38,1.427,4.167,2.56l.66-1.434c-.1-.24-.692-.618-1.8-1.3s-1.7-1.056-1.87-1.128l.337-1.332a9.48,9.48,0,0,1,2.388,1.591,14.349,14.349,0,0,1,1.2.919l4.187-11.814-3.368-4.412Zm-13.06,22.081c.09.161.874.938,2.352,2.416a34.664,34.664,0,0,1,3.954,4.625l.924-1.12-1.936-2.273a44.2,44.2,0,0,0-3.747-3.9l3.855-11.876-.746-1.6Zm4.69,1.628c1.314,1.488,2.371,2.744,3.075,3.607l3.5-3.481-5.3-12.6-3.374,10.207Zm19.831-8.168a73.71,73.71,0,0,0,4.427,8.705c-1.07-.023-2.461.054-4.1.064l-2.947.164,6.389,14.428,8.342,6.762-21.369,1.191-.709-.946,19.9-1.109-7.033-5.356-6.7-15.641a27.3,27.3,0,0,1,3.587-.447,17.734,17.734,0,0,1,3.125.072q-3.382-5.478-3.93-8.65Z" fill="#000000"/><path d="M803.842,837.826c3.648,3.574,5.66,8.718,6.029,15.351q1.287,23.087-20.328,24.293l-14.819.825,4.438-4.354-2.012-36.106-4.909-4.079,15.966-.89C794.839,832.5,800.023,834.179,803.842,837.826ZM776.98,880.469l-.545-.955,14.492-.808c10.889-.607,17.524-5.329,20.065-14.259a30.77,30.77,0,0,0,.7-9.565A40.533,40.533,0,0,0,809.3,842.86a15.923,15.923,0,0,0-3.071-5,12.366,12.366,0,0,0-1.824-1.788c5.208,3.571,8,9.411,8.45,17.516.483,8.679-1.449,15.274-5.718,19.7a17.911,17.911,0,0,1-5.044,3.815,22.461,22.461,0,0,1-6.623,2.01l-4.485.578Zm10.042-6.966-1.984-35.615a7.326,7.326,0,0,1,1.464-.245l1.227-.069a17.866,17.866,0,0,1,5.027.3,6.156,6.156,0,0,1,3.64,1.932,14.9,14.9,0,0,0-7.979-1.69l-1.311.074c-.567.112-.972.217-1.218.231l1.953,35.042c5.813-.324,9.68-1.689,11.6-4.014,2.07-2.661,2.923-7.965,2.485-15.825-.456-8.187-1.813-13.368-4.065-15.46s-7.064-2.973-14.432-2.563l2.117,37.989Z" fill="#000000"/><path d="M845.271,829.686l-3.019,4.767,6.757,13.667,1.177-.969-5.97-12.807,2.61-4.745.983-.055-2.61,4.745,5.843,11.993a7.95,7.95,0,0,0,3.109-3.129,24.6,24.6,0,0,0,3.6,8.586,7.122,7.122,0,0,0-2.475-.191,9.3,9.3,0,0,0-4.367,1.23l7.2,17.091,4.868,3.343-16.7.931,4.1-4.5-4-9.88c-.387.432-1.086,1.128-1.932,2.162-.387.43-1.537,1.891-3.529,4.467l-.682-.456a28.478,28.478,0,0,1,1.9-2.734q.463-.517,3.7-4.393l-.482-1.289c-1.483,1.4-2.337,2.266-2.729,2.617a60.01,60.01,0,0,0-3.9,5.144,39.16,39.16,0,0,0-6.152-7.213l-2.059,8.739a7.329,7.329,0,0,0-.146,1.815c.082,1.474.994,3.065,2.65,4.78q.394.471,4.394,3.7l-19.976,1.114-.546-.955,18.585-1.036c-2.83-2.142-4.372-3.287-4.632-3.52a5.826,5.826,0,0,1-1.429-3.534,9.6,9.6,0,0,1,.273-2.479l2.1-9.4-1.037-.928-2.678,10.908a14.1,14.1,0,0,0-.472,3.313c.1,1.8,1.662,3.273,4.678,4.337l-16.293.908c4.665-3.216,8.2-9,10.69-17.432l1.172-4.007a6.055,6.055,0,0,0-2.388-1.592,5.437,5.437,0,0,0-2.238-.367l-.409.023,2.314-5.632c1.015.519,2.379,1.427,4.166,2.56l.66-1.434c-.1-.24-.692-.618-1.8-1.3s-1.7-1.055-1.87-1.128l.336-1.332A9.481,9.481,0,0,1,829,845.786a14.788,14.788,0,0,1,1.2.918l4.187-11.812-3.368-4.413Zm-13.06,22.081c.091.16.874.937,2.352,2.415a34.589,34.589,0,0,1,3.954,4.625l.923-1.119-1.934-2.274a44.461,44.461,0,0,0-3.747-3.9l3.853-11.877-.746-1.6Zm4.69,1.628c1.315,1.487,2.37,2.742,3.075,3.606l3.5-3.48-5.3-12.6L834.8,851.13Zm19.831-8.169a73.519,73.519,0,0,0,4.426,8.705c-1.068-.023-2.461.054-4.1.064l-2.948.164,6.39,14.428,8.343,6.762-21.369,1.191-.71-.946,19.9-1.11-7.033-5.355-6.7-15.642a27.47,27.47,0,0,1,3.589-.446,17.851,17.851,0,0,1,3.126.072q-3.385-5.478-3.933-8.65Z" fill="#000000"/><path d="M905.939,826.305l14.983-.835L917,830.287l2,35.86,4.395,3.7-14.983.835,4.2-4.177-1.209-21.7-8.177,28.625-3.767.21-.464-.959,3.44-.193,8.794-30.795-.268-4.83-9.674,34.211-2.783.155L881.02,840.423l1.251,22.432a10.412,10.412,0,0,0,3.093,6.892c.61.623,2.171,2.1,4.519,4.429l-18.1,1.009-.71-.947,16.948-.944c-2.678-2.4-4.413-4.024-5.046-5.057a11.064,11.064,0,0,1-1.446-5.341L880.2,838.908l-1.847-3.675,1.547,27.755a10.957,10.957,0,0,0,1.985,6.131,7.563,7.563,0,0,0,4.016,2.816l-14.9.83a10.158,10.158,0,0,0,5.708-9.6l-1.712-30.7-4.914-4.161,17.522-.977-4.848,4.376,17.177,29.678.684-2.42L885.062,831.9l4.92-4.544.443.55-4.116,4.253,14.637,25.384,8.514-27Zm16.534.473-2.918,3.613,1.957,35.124,6.114,6.557-16.784.936-.873-.937,15.965-.89-5.214-5.129-1.985-35.615,3.22-4.123Z" fill="#000000"/><path d="M332.53,936.892l2.6.02,2.268-.02,2.918-.042v.314l-1.889,2.52q-.41.567-1.008,1.449c-.4.566-.735,1.092-1.029,1.532l-2.121,3.3-2.2,3.674h.4c1.868,0,3.443-.063,4.7-.189a7.245,7.245,0,0,0,2.351-.462,1.873,1.873,0,0,0,.693-.714l.189-.587.168-.61h.5l-.21,1.7-.147,1.7-1.868-.042-5.1-.042-2.478.042-2.562.126v-.336l1.722-2.394,1.6-2.268,1.449-2.141,2.015-3,1.869-2.877-2.31.063-2.414.105a6.049,6.049,0,0,0-1.239.126l-.483.105-.378.189c-.189.084-.4.525-.588,1.3l-.105.42h-.462l.273-1.869.147-1.133Z" fill="#000000"/><path d="M342.652,936.808l2.709.042h1.071l1.532-.042v.482l-1.532.231-.105,2.415-.042,2.541.021,1.889.126,1.68a3.506,3.506,0,0,0,.5,1.784,3.436,3.436,0,0,0,1.259,1.281,3.8,3.8,0,0,0,2.058.609,4.1,4.1,0,0,0,3.8-2.246v-.19l.042-3.632-.021-1.827-.021-1.637-.063-1.6-.042-1.071-1.511-.231v-.482l1.574.042h1.05l2.814-.042.063.482-1.722.231-.126,2.373-.021,2.729.021,1.89.021,1.847.063,1.89.084,1.47,1.784.231v.483l-1.133-.021-.672-.021-1.218.021-1.029.063V948.8a8,8,0,0,1-5.165,1.89,4.265,4.265,0,0,1-3.632-1.512,4.729,4.729,0,0,1-.714-1.722,14.915,14.915,0,0,1-.21-2.939v-1.029l.021-1.407-.042-2.246-.084-2.31-1.7-.231v-.482Z" fill="#000000"/><path d="M359.2,949.951l1.218-.168.273-.063.126-.147.105-.819.084-2.036.042-3.213.042-3.024-.021-1.511-.063-1.491-.546-.083-.882-.084v-.484l.882.022h1.659l.756-.022,1.469,1.848,1.512,1.827,1.512,1.826c1.7,2,3.3,3.737,4.619,5.165l-.063-2.33-.147-3.569v-.588l-.063-1.449-.21-1.7a.393.393,0,0,0-.168-.294l-.273-.105-1.344-.168v-.462l2.331.042h.9l1.406-.042v.462l-1.154.168-.252.063-.147.147a2.84,2.84,0,0,0-.126.672l-.042,1.239-.063,3.863v2.31l.021,1.218.021,1.322v.672a5.426,5.426,0,0,0,.042.672l.084.882-1.113-.042-2.037-2.52-1.847-2.246-1.68-1.953q-2.331-2.676-4.346-4.724l.21,7.033.021.924.021.82.021.566.168,1.029a.5.5,0,0,0,.126.294l.315.105,1.2.147v.483l-.881-.021-1.449-.021-1.407.021-.861.021Z" fill="#000000"/><path d="M376.923,939.831l.315-1.3a6.151,6.151,0,0,0,.126-1.323l1.029-.356,1.008-.42a10.43,10.43,0,0,1-2.772,5.4l-.734.148A8.474,8.474,0,0,0,376.923,939.831Z" fill="#000000"/><path d="M392.673,949.09l.21-1.364h.483v.084a2.742,2.742,0,0,0,.462,1.805,2.239,2.239,0,0,0,1.659.5,2.044,2.044,0,0,0,2.267-2.057c0-.778-.671-1.428-1.994-1.974l-.63-.252c-1.428-.5-2.268-1.47-2.268-2.415,0-1.742,1.512-2.918,3.843-2.918h.776l.8.1.525.064.525.126-.315,1.134-.168,1.07h-.5l-.147-.84a1.4,1.4,0,0,0-.63-.756,2.476,2.476,0,0,0-1.2-.336,1.63,1.63,0,0,0-1.2.42,1.4,1.4,0,0,0-.483,1.092,1.361,1.361,0,0,0,.4,1.008,3.5,3.5,0,0,0,.651.42,14.85,14.85,0,0,0,1.532.63c1.512.525,2.373,1.259,2.373,2.667a2.9,2.9,0,0,1-1.365,2.477,6.061,6.061,0,0,1-3.548.945h-.567l-.8-.1-.42-.042-.567-.147Z" fill="#000000"/><path d="M408.885,936.87h2.037l1.218-.02,1.637,3.989.9,2.141L415.9,945.6l1.218,2.542,1.91-3.885,1.533-3.212c.861-1.953,1.47-3.36,1.785-4.221l2.225.042h.777l.777-.02v.44l-1.071.106c-.336,0-.5.23-.5.755l.021,1.407.1,2.415.21,4.051.063,1.638.105,1.2a1.067,1.067,0,0,0,.357.735,5.492,5.492,0,0,0,1.449.336v.5l-1.05-.021-1.638-.021-1.616.021-.966.021-.021-.5,1.26-.21.021-1.407.021-.945-.063-2.33-.042-1.827v-1.05l-.084-.672-.231-2.624-2.478,5.228-2.813,6.383h-1.386l-3.149-7.328q-1.134-2.582-2.016-4.346l-.084.042-.147,4.325-.042,1.449-.042,1.2-.21,3.759,1.617.357v.5l-1.134-.042-1.113-.021-1.071.021-1.007.042v-.5l1.322-.252c.1-.042.231-.567.4-1.574l.063-.694.294-2.855a16.4,16.4,0,0,0,.126-1.89l.063-.966.042-1.344.042-1.259-.021-.609-.021-.987-1.638-.168.021-.482Z" fill="#000000"/><path d="M429.4,940.629h.735l1.217-.042-.1.9-.021.756L431.187,945a17.4,17.4,0,0,0,.125,2.666,3.145,3.145,0,0,0,.483,1.113,2.747,2.747,0,0,0,2.184.966,3.123,3.123,0,0,0,.756-.105l.525-.189.441-.252a2.442,2.442,0,0,0,.609-.525,2.949,2.949,0,0,0,.147-.986v-4.158l.021-.714a2.717,2.717,0,0,0-.147-1.133c-.042-.168-.21-.294-.525-.378l-1.071-.252v-.462h.189l1.889.042h.777l.987-.042-.084.756-.042.944-.042,2.6v3.548a2.531,2.531,0,0,0,.126.945.8.8,0,0,0,.525.336l1.05.231v.483l-.735-.021-1.218-.021-1.176.021-.692.021.021-.294v-.546l-1.092.42-1.008.336-.924.168-.924.063a4.348,4.348,0,0,1-1.679-.315,2.382,2.382,0,0,1-1.365-2.037,18.3,18.3,0,0,1-.1-2.015v-4.031c0-.652-.126-.8-.609-.9l-1.134-.23v-.462Z" fill="#000000"/><path d="M441.708,949.09l.21-1.364h.483v.084a2.742,2.742,0,0,0,.462,1.805,2.238,2.238,0,0,0,1.658.5,2.045,2.045,0,0,0,2.268-2.057c0-.778-.672-1.428-2-1.974l-.629-.252c-1.428-.5-2.268-1.47-2.268-2.415,0-1.742,1.512-2.918,3.842-2.918h.777l.8.1.525.064.525.126-.315,1.134-.168,1.07h-.5l-.147-.84a1.4,1.4,0,0,0-.63-.756,2.483,2.483,0,0,0-1.2-.336,1.626,1.626,0,0,0-1.2.42,1.4,1.4,0,0,0-.483,1.092,1.361,1.361,0,0,0,.4,1.008,3.489,3.489,0,0,0,.65.42,14.8,14.8,0,0,0,1.533.63c1.512.525,2.373,1.259,2.373,2.667a2.9,2.9,0,0,1-1.365,2.477,6.063,6.063,0,0,1-3.548.945H443.2l-.8-.1-.42-.042-.567-.147Z" fill="#000000"/><path d="M450.213,949.972l.966-.189a1.177,1.177,0,0,0,.441-.147.7.7,0,0,0,.168-.231l.063-.84.021-1.973-.021-3.3v-1.028a1.31,1.31,0,0,0-.042-.336c0-.358-.273-.588-.693-.672l-.987-.19v-.482l1.134.042h1.469l1.218-.042-.126,2.184-.021,3,.021,2.562.042,1.071.189.231.4.147,1.008.189v.462l-.945-.021-1.617-.021-1.637.021-1.05.021Zm2.519-14.362a1.175,1.175,0,0,1,.861.336,1.268,1.268,0,0,1,.336.84,1.122,1.122,0,0,1-1.239,1.134,1.247,1.247,0,0,1-1.091-.608,1.9,1.9,0,0,1-.1-.546A1.149,1.149,0,0,1,452.732,935.61Z" fill="#000000"/><path d="M464.407,949.363l-.987.588-.965.42a6.1,6.1,0,0,1-1.932.315c-2.772,0-4.157-1.638-4.157-4.892a5.282,5.282,0,0,1,1.427-3.863,5.032,5.032,0,0,1,3.759-1.45,10.2,10.2,0,0,1,1.344.126l1.049.19.735.146-.63,2.6h-.441v-.168a2.3,2.3,0,0,0-.671-1.68,2.784,2.784,0,0,0-1.827-.608c-1.764,0-2.562,1.218-2.562,4.094s1.239,4.6,3.192,4.6c.588,0,.861.021,2.666-.924Z" fill="#000000"/><path d="M483.622,936.6l.461.126-.377,1.7-.231,1.491h-.462l-.1-1.029c-.042-.4-.441-.8-1.176-1.2a4.907,4.907,0,0,0-2.352-.609,4.6,4.6,0,0,0-3.695,1.617,6.331,6.331,0,0,0-1.365,4.22,7.5,7.5,0,0,0,1.617,5.019,5.389,5.389,0,0,0,4.283,1.868,5.585,5.585,0,0,0,3.507-1.155l.231.462a8.256,8.256,0,0,1-5,1.6,6.841,6.841,0,0,1-5-1.827,6.651,6.651,0,0,1-1.868-4.955,7.151,7.151,0,0,1,2.141-5.417,8.119,8.119,0,0,1,5.837-2.058,10.648,10.648,0,0,1,1.47.126l.735.106,1.092.23Z" fill="#000000"/><path d="M485.471,945.814a4.957,4.957,0,0,1,1.575-3.821,6.016,6.016,0,0,1,4.262-1.47c3.024,0,4.619,1.618,4.619,4.536a5.4,5.4,0,0,1-1.658,4.052,5.933,5.933,0,0,1-4.305,1.6C487.193,950.707,485.471,948.859,485.471,945.814Zm3,2.856a2.676,2.676,0,0,0,2.33,1.47c1.848,0,3.024-1.617,3.024-4.22a6.123,6.123,0,0,0-.9-3.507,2.633,2.633,0,0,0-2.247-1.364c-1.784,0-3.086,1.448-3.086,3.7A7.656,7.656,0,0,0,488.474,948.67Z" fill="#000000"/><path d="M497.756,935.59h1.092l1.3-.022.756-.02-.126,4.115-.042,4.976.021,3.255.063,1.511.19.231.4.147,1.008.189v.462l-.945-.021-1.6-.021-1.658.021-1.05.021v-.462l.966-.189c.483-.084.546-.147.63-.462a7.312,7.312,0,0,0,.064-1.281l.02-2.939-.02-5.669V937.92a5.171,5.171,0,0,0-.064-1.028c0-.42-.126-.484-.692-.672l-1.008-.19v-.462Z" fill="#000000"/><path d="M503.931,935.59h1.091l1.3-.022.756-.02-.126,4.115-.042,4.976.022,3.255.062,1.511.19.231.4.147,1.008.189v.462l-.946-.021-1.6-.021-1.658.021-1.05.021v-.462l.966-.189c.482-.084.545-.147.629-.462A7.312,7.312,0,0,0,505,948.04l.02-2.939-.02-5.669V937.92a5.171,5.171,0,0,0-.064-1.028c0-.42-.126-.484-.692-.672l-1.008-.19v-.462Z" fill="#000000"/><path d="M517.915,949.363a7.065,7.065,0,0,1-3.947,1.386c-2.54,0-4.031-1.848-4.031-4.893,0-3.337,1.827-5.333,4.934-5.333a2.962,2.962,0,0,1,1.932.462,3.447,3.447,0,0,1,.692.694,2.691,2.691,0,0,1,.588,1.763l-6,1.827a5.321,5.321,0,0,0,1.26,3.611,2.689,2.689,0,0,0,2.225.924c.756-.042.966.063,2.289-.945Zm-2-6.257a1.97,1.97,0,0,0-.566-1.343,1.831,1.831,0,0,0-1.344-.588c-1.2,0-2.037,1.05-2.037,2.813l.063.441c.021.063.105.126.252.168h.084l3.044-.966C515.773,943.484,515.92,943.358,515.92,943.106Z" fill="#000000"/><path d="M527.3,949.363l-.987.588-.965.42a6.1,6.1,0,0,1-1.932.315c-2.771,0-4.157-1.638-4.157-4.892a5.274,5.274,0,0,1,1.428-3.863,5.03,5.03,0,0,1,3.757-1.45,10.19,10.19,0,0,1,1.344.126l1.051.19.734.146-.63,2.6h-.44v-.168a2.3,2.3,0,0,0-.672-1.68,2.784,2.784,0,0,0-1.827-.608c-1.764,0-2.562,1.218-2.562,4.094s1.239,4.6,3.192,4.6c.588,0,.861.021,2.666-.924Z" fill="#000000"/><path d="M534.589,950.2l-.693.189-.735.126-.714.042a2.017,2.017,0,0,1-1.869-.945,7.573,7.573,0,0,1-.566-3.507l.021-1.133.021-1.512v-.756l-.042-1.28-1.3-.21-.272-.042v-.462l1.6-.084-.043-.987-.041-1.533,1.805-1.469.4.042-.147,1.8L531.943,940l.022.336v.314l3.842.042v.4l-3.842.482v.316l-.043,2.414a14.655,14.655,0,0,0,.42,4.325,1.575,1.575,0,0,0,1.575,1.092l.483-.042.377-.126.358-.147.062.546Z" fill="#000000"/><path d="M536.605,949.972l.966-.189a1.177,1.177,0,0,0,.441-.147.7.7,0,0,0,.168-.231l.063-.84.021-1.973-.021-3.3v-1.028a1.266,1.266,0,0,0-.042-.336c0-.358-.273-.588-.693-.672l-.987-.19v-.482l1.134.042h1.47l1.218-.042-.126,2.184-.022,3,.022,2.562.042,1.071.188.231.4.147,1.007.189v.462l-.944-.021-1.617-.021-1.638.021-1.05.021Zm2.52-14.362a1.175,1.175,0,0,1,.861.336,1.268,1.268,0,0,1,.336.84,1.122,1.122,0,0,1-1.239,1.134,1.247,1.247,0,0,1-1.092-.608,1.876,1.876,0,0,1-.1-.546A1.149,1.149,0,0,1,539.125,935.61Z" fill="#000000"/><path d="M542.779,945.814a4.96,4.96,0,0,1,1.575-3.821,6.02,6.02,0,0,1,4.263-1.47c3.024,0,4.619,1.618,4.619,4.536a5.4,5.4,0,0,1-1.659,4.052,5.929,5.929,0,0,1-4.3,1.6C544.5,950.707,542.779,948.859,542.779,945.814Zm3,2.856a2.677,2.677,0,0,0,2.331,1.47c1.848,0,3.024-1.617,3.024-4.22a6.123,6.123,0,0,0-.9-3.507,2.631,2.631,0,0,0-2.247-1.364c-1.784,0-3.086,1.448-3.086,3.7A7.656,7.656,0,0,0,545.782,948.67Z" fill="#000000"/><path d="M554.477,949.972l1.049-.21a.873.873,0,0,0,.546-.378,3.5,3.5,0,0,0,.126-1.176l-.02-.756v-.966l-.022-1.8-.021-1.848v-.482a1.264,1.264,0,0,0-.168-.8.824.824,0,0,0-.525-.274l-1.028-.23v-.462h.105l1.847.042h.736l1.132-.042-.041.608-.021.63v.42a6.016,6.016,0,0,1,4.094-1.722c1.931,0,2.855.882,2.855,2.814l-.041,1.239-.043,2.394v2.078c0,.441.106.567.609.735l1.092.189.022.462-.967-.021-1.616-.021-1.638.021-1.05.021v-.462l.988-.189c.252-.021.566-.21.587-.357l.063-1.2.021-2.667c0-3.023-.671-4.073-2.267-4.073a3.576,3.576,0,0,0-2.079.84c-.588.5-.736.882-.736,1.974v2.5l-.02.986v.735a2.661,2.661,0,0,0,.126.966,1.219,1.219,0,0,0,.5.294l1.029.189v.462l-.945-.021-1.6-.021-1.638.021-1.049.021Z" fill="#000000"/><path d="M577.176,948.544l-1.2-2.982-.692-1.637-1.113-2.54-1.322-.274v-.5l1.574.064h2.33l1.323-.042v.482l-1.47.252a6.018,6.018,0,0,0,.294,1.05l.546,1.6.714,1.889,1.092,2.667,1.911-4.01c.482-1.05.9-2.12,1.28-3.212l-1.155-.274.043-.44.629.02h1.807l1.2-.062-.042.482-1.07.148-.988,1.763-1.407,2.688-1.826,3.7-.526,1.05-1.2.084Z" fill="#000000"/><path d="M585.535,945.814a4.96,4.96,0,0,1,1.575-3.821,6.02,6.02,0,0,1,4.263-1.47c3.023,0,4.619,1.618,4.619,4.536a5.4,5.4,0,0,1-1.659,4.052,5.929,5.929,0,0,1-4.3,1.6C587.258,950.707,585.535,948.859,585.535,945.814Zm3,2.856a2.676,2.676,0,0,0,2.331,1.47c1.848,0,3.024-1.617,3.024-4.22a6.123,6.123,0,0,0-.9-3.507,2.632,2.632,0,0,0-2.247-1.364c-1.784,0-3.086,1.448-3.086,3.7A7.656,7.656,0,0,0,588.538,948.67Z" fill="#000000"/><path d="M597.82,935.59h1.092l1.3-.022.756-.02-.126,4.115-.042,4.976.02,3.255.064,1.511.188.231.4.147,1.007.189v.462l-.944-.021-1.6-.021-1.659.021-1.05.021v-.462l.966-.189c.484-.084.546-.147.63-.462a7.355,7.355,0,0,0,.063-1.281l.021-2.939-.021-5.669V937.92a5.2,5.2,0,0,0-.063-1.028c0-.42-.126-.484-.693-.672l-1.008-.19v-.462Z" fill="#000000"/><path d="M604.855,949.363a1.113,1.113,0,0,1,1.2-1.155,1.166,1.166,0,1,1-1.2,1.155Z" fill="#000000"/><path d="M611.994,950.308a8.065,8.065,0,0,0,5.481-5.858l-.82.5-.86.378a5.416,5.416,0,0,1-1.639.294,3,3,0,0,1-2.288-.8,4.433,4.433,0,0,1-.966-1.512,4.836,4.836,0,0,1-.252-1.617,4.685,4.685,0,0,1,1.323-3.464,6.555,6.555,0,0,1,4.43-1.785,3.592,3.592,0,0,1,2.751,1.176,4.373,4.373,0,0,1,1.092,3.129,9.616,9.616,0,0,1-1.869,5.689,12.869,12.869,0,0,1-5.145,4.137h-1.2Zm6-8.8c0-2.625-1.071-4.283-2.687-4.283s-2.814,1.385-2.814,3.421a4.56,4.56,0,0,0,.882,2.835,2.729,2.729,0,0,0,2.247,1.155C617.075,944.639,618,943.463,618,941.511Z" fill="#000000"/><g id="上海_アリス幻樂団" data-name="上海■アリス幻樂団"><path d="M950.668,925.994c0-.309.478-1.037.853-1.037a1.326,1.326,0,0,1,.238.062,3.578,3.578,0,0,1,.579-.078,1.419,1.419,0,0,1,.239.046c.273.063,1.023.124,1.023.512a.3.3,0,0,1-.1.217c-.341.263-.8.325-1.159.557-.375.248-.528.62-.852.883a.394.394,0,0,1-.187.077c-.494-.185-.631-.294-.631-.836Zm14.692.264-6.545-.372a1.058,1.058,0,0,1-.443.062,4.141,4.141,0,0,1-.835-.139,14.455,14.455,0,0,0-1.824.077c-.307.031-.6.186-.9.186-.222,0-.563-.171-.563-.4a.7.7,0,0,1,.171-.542,10.725,10.725,0,0,1,1.892-.867c1.193-.635,1.107-2.369,1.141-3.469.018-.543.2-1.085.2-1.627v-3.019a12.129,12.129,0,0,0-.324-2.215V913.9a.788.788,0,0,1,.665-.681c.375,0,.818.078.9.449a2.785,2.785,0,0,1,.137.65.3.3,0,0,1-.068.2,2.385,2.385,0,0,0-.274,1.176,1.547,1.547,0,0,0,.512,1.131,2.043,2.043,0,0,0,.921.542c.408,0,.817-.078,1.226-.078a7.826,7.826,0,0,1,2.08.248.557.557,0,0,1,.409.511c0,1.038-3.017.666-3.63.837-.393.108-1.278,1.362-1.449,1.734a2.7,2.7,0,0,0-.239,1.363,3.487,3.487,0,0,0,1.228,2.494,1.011,1.011,0,0,0,.63.2c.119,0,.256-.016.427-.016.238,0,.46.094.7.094,1.04,0,2.062-.14,3.1-.14.511,0,1.943.093,1.943.712a1.154,1.154,0,0,1-1.074.93Z" fill="#000000"/><path d="M951.5,935.737c-.357,0-.938-.2-.938-.589a1.534,1.534,0,0,1,.274-.743,1.062,1.062,0,0,1,.886-.557c.63-.016,1.261-.062,1.891-.062a.427.427,0,0,1,.427.4C954.043,934.793,952.083,935.737,951.5,935.737Zm1.841,3.7c-.273.528-.7.992-.92,1.535a4.37,4.37,0,0,1-.494,1.13c-.1.124-.188.124-.342.124-.494,0-.783-.744-.783-1.131,0-.588,2.164-3.1,2.829-3.1.17,0,.221.186.221.31a.308.308,0,0,1-.034.17Zm.767-8.347c-.051,0-.1-.03-.154-.03-.664-.109-2.317.092-2.317-.869,0-.65.732-.867,1.329-.867a.643.643,0,0,1,.409.171c.222.2,1.142,1.146,1.142,1.378C954.52,931.014,954.23,931.091,954.111,931.091Zm9.834,4.136c.069-.248-.068-1.255.359-1.255.647,0,.63,1.564.7,1.982.205.2,1.756-.016,1.756,1.054a.63.63,0,0,1-.6.6,2.154,2.154,0,0,1-.307-.077,7.213,7.213,0,0,0-1-.062c-.2.248-.188,1.069-.239,1.394a10.792,10.792,0,0,1-.784,2.819,1.7,1.7,0,0,1-1.108.557c-.46,0-1.073-.248-1.636-.248-.818,0-1.619.217-2.437.217a8.394,8.394,0,0,1-2.506-.278,1.627,1.627,0,0,1-.494-1.131c0-.325.1-1.348.6-1.348.546,0,.58.867.682,1.208a4.443,4.443,0,0,0,.461.047,2.35,2.35,0,0,0,1.755-1.409c.068-.264-.035-1.023.409-1.023.272,0,.324.387.324.728,0,.171-.018.325-.018.4a1.362,1.362,0,0,0,1.381,1.363c.887,0,1.892-.573,1.892-1.456,0-.124-.034-.263-.034-.387,0-.217.068-.418.068-.635,0-.914-.954-1.3-1.823-1.3a1.914,1.914,0,0,0-1.228.572c0,.109-.119.311-.256.311a.324.324,0,0,1-.221-.124c-.375-.449-.358-.372-.852-.635a.274.274,0,0,0-.153-.031c-2.421,0-1.381,1.068-2.4,1.811a.265.265,0,0,1-.154.063c-.239,0-.306-.418-.306-.589a.82.82,0,0,1,.22-.635c-.067-.185-.238-.433-.476-.433-.29,0-.563.139-.853.139-.221,0-.732-.17-.732-.419v-.045l.119-.558c.068-.325.613-.372,1.039-.372h.29c.307-.2.767-.109,1.006-.418.341-.434.426-2.246,1.142-2.246.153,0,.239.341.239.449,0,.388-.274.79-.274,1.224.154.295-.05.465.29.9.341.031.665.077,1.006.077a7.576,7.576,0,0,0,.835-.077c.154-.387.444-.712.631-1.084l-.307-.914c-.392-.4-1.278-.278-1.278-.991a.42.42,0,0,1,.2-.387,6.1,6.1,0,0,1,2.011-.449c.512,0,1.006.061,1.518.061a1.839,1.839,0,0,1,1.4.589c.1.093.238.2.238.357,0,.2-.494.572-.7.572a12.85,12.85,0,0,0-1.347-.278c-.562,0-1.125.232-1.141.805a1.413,1.413,0,0,1-.052.464l-.136.357c.085.7.869.882,1.517.882.391,0,.784-.061,1.176-.077Zm-.2-6c.392,0,1.432.171,1.432.635,0,.605-.938.744-1.449.744a8.129,8.129,0,0,1-2.2-.34c-.477.108-1.023-.032-1.483.185a.7.7,0,0,1-.323.093h-.034l-.478-.077-.954.2c-.1.015-1.875,2.215-2.983,2.215a.7.7,0,0,1-.665-.619c0-1.488,2.693-.915,3-3.068a3.309,3.309,0,0,1-.272-.743c0-.263.784-.728,1.057-.728a1.172,1.172,0,0,1,.886.821,2.081,2.081,0,0,1-.1.465c.034.232-.034.464.187.619l4.261-.4Z" fill="#000000"/><path d="M965.343,948.066a1.146,1.146,0,0,0-.034.264c0,.14.017.294.017.465a1.367,1.367,0,0,1-.256.913.522.522,0,0,0-.05.279,12.847,12.847,0,0,0,.494,2.478,2.366,2.366,0,0,1,.034.465,10.344,10.344,0,0,1-.256,2.524.5.5,0,0,0-.052.2c0,.217.137.4.137.666a.637.637,0,0,1-.017.171c-.1.449-.358.6-.58.6a.283.283,0,0,1-.119-.015,21.459,21.459,0,0,0-2.573-.279,1.084,1.084,0,0,0-.29.031,8.33,8.33,0,0,1-1.637.186,1.548,1.548,0,0,1-.442-.047,4.531,4.531,0,0,0-.75-.232c-.682,0-1.21.247-1.722.247a1.11,1.11,0,0,1-.222-.015,8.56,8.56,0,0,0-1.415-.123c-.885,0-1.363.154-1.686.154a.617.617,0,0,1-.171-.016,1.493,1.493,0,0,0-.375-.046c-.375,0-.784.078-1.023.078h-.119c-.306-.047-.614-.124-.614-.511a8.028,8.028,0,0,1,.052-1.208c0-.031.016-.063.016-.124,0-.31-.119-1.007-.119-1.162V954c.085-.387.256-.355.256-.82v-.062c-.017-.512-.239-1.27-.239-1.518v-.093c0-.341-.067-1.734-.067-2.4a1.662,1.662,0,0,1,.016-.356,8.123,8.123,0,0,0,.238-1.285,1.08,1.08,0,0,0,.018-.248c0-.511-.137-1.161-.137-1.394v-.108c0-.171-.051-.418-.051-.62a.3.3,0,0,1,.035-.186,1.155,1.155,0,0,1,.732-.356c.137,0,1.262-.093,2.216-.093a4.457,4.457,0,0,1,1.3.124,1.446,1.446,0,0,0,.562.124,1.489,1.489,0,0,0,.529-.124,11.582,11.582,0,0,1,1.363-.264h.051c.205.047,3.256.124,3.9.311a1.309,1.309,0,0,0,.324.046c.409,0,.63-.279,1.346-.31h.086c.46,0,1.141.217,1.159.6a9.236,9.236,0,0,1,.085.929,4.222,4.222,0,0,1-.153,1.1c0,.031-.018.062-.018.093,0,.295.222.8.222.96Z" fill="#000000"/><path d="M937.762,915.8a4.03,4.03,0,0,1-.853.217,4.7,4.7,0,0,0-.665.216,4.24,4.24,0,0,0-.426.078c-.358.155-.306.263-.784.263-.29,0-.7-.17-.732-.464a4.3,4.3,0,0,1-.034-.48c0-.434.9-1.255,1.414-1.255a.812.812,0,0,1,.187.031,3.438,3.438,0,0,0,.8.063c.187,0,.392.03.58.03.17,0,.341-.062.512-.062.22,0,1.056.341,1.056.6C938.818,915.323,938.017,915.694,937.762,915.8Zm1.585,9.34c-.171.138-.274.34-.461.463a9.826,9.826,0,0,1-1.789.883,2.11,2.11,0,0,1-.7.109c-.835,0-.766-.371-1.414-.651a.544.544,0,0,1-.358-.479c0-.4.75-.666,1.108-.775a.685.685,0,0,1,.17-.031c.085,0,.171.016.256.016a.5.5,0,0,0,.153-.016c.256-.061.444-.264.7-.341a7.713,7.713,0,0,0,1.67-.681,3.78,3.78,0,0,0,1.516-1.286c.205-.34.427-1.068.938-1.068.256,0,.256.2.256.371a2.555,2.555,0,0,1-.069.635,4.017,4.017,0,0,1-1.431,2.51C939.738,924.94,939.517,925,939.347,925.143Zm1.175-9.68c-.425,0-1.363-.016-1.363-.527,0-.527.869-.62,1.279-.666.119-.016.409-.217.629-.263a9.722,9.722,0,0,1,1.893-.233c.2,0,.409.016.613.016.171,0,.341.046.512.046.119,0,.426-.154.613-.17a6.38,6.38,0,0,1,.767-.047,3.806,3.806,0,0,1,1.33.187,3.155,3.155,0,0,1,.528.386c.46.341,1.244.589,1.244,1.224a2.412,2.412,0,0,1-1.142,1.7,5.293,5.293,0,0,1-.613.264,9.532,9.532,0,0,1-.8.573c-.341.154-.7.278-1.057.4-.562.2-1.108.4-1.653.621-.137.061-.29.092-.427.154-.408.186-.511.65-.613,1.007-.119.433-.341.34-.614.573a.512.512,0,0,1-.306.093c-.529,0-.58-.744-.58-1.084,0-.124.086-.248.086-.372a5.258,5.258,0,0,0-.155-.883c-.085-.511-.119-.558-.681-.619a.315.315,0,0,1-.289-.31.713.713,0,0,1,.46-.666c.17-.093.238-.248.477-.248.17,0,.323.062.494.062.443,0,.954.635,1.159.96a.436.436,0,0,0,.392.233.712.712,0,0,0,.358-.094,4.441,4.441,0,0,0,.87-.433,5.465,5.465,0,0,1,.63-.434c.153-.093.392-.108.528-.2.1-.077.137-.2.239-.279a2.724,2.724,0,0,0,.954-1.022c0-.264-.732-.434-.954-.434-.409,0-.836.124-1.262.124-.153,0-.306-.062-.46-.062-.238,0-.477.108-.715.108-.085,0-.154-.015-.239-.015-.7,0-1.364.326-2.062.326Z" fill="#000000"/><path d="M938.153,937.255a.269.269,0,0,1-.221-.109,3.625,3.625,0,0,1-.8-2.6,2.5,2.5,0,0,1,.1-.7,3.821,3.821,0,0,0,.188-1.317c0-.759-.1-1.517-.1-2.276,0-.372-.119-.743-.119-1.131a.7.7,0,0,1,.783-.666c.87,0,1.3.961,1.3,1.627,0,.355-.205.526-.306.867a6.512,6.512,0,0,0-.24,1.983c0,.371-.034.758-.034,1.129,0,.3.24.729.24,1.023a3.98,3.98,0,0,1-.581,2.059A.363.363,0,0,1,938.153,937.255Zm4.688,3.826c-.239.154-.393.356-.649.5a5.892,5.892,0,0,1-.75.279,6.147,6.147,0,0,1-1.891.5c-.409,0-1.585-.294-1.585-.775a1.03,1.03,0,0,1,.665-.774c.255-.062.545-.031.8-.093a10.223,10.223,0,0,0,.971-.387c.154-.047.307-.031.46-.093a9.323,9.323,0,0,0,2.438-1.518,3.7,3.7,0,0,0,.511-.743,3.492,3.492,0,0,0,.63-1.983c0-.356-.034-.713-.034-1.068a14.916,14.916,0,0,1,.085-1.519c.034-.247,0-.51.052-.758.034-.123.136-.2.17-.326.086-.247.137-.572.5-.572a.266.266,0,0,1,.186.062,1.228,1.228,0,0,1,.53,1.1c0,.17-.018.357-.018.558a4.239,4.239,0,0,0,.034.449,1.775,1.775,0,0,1,.051.294c0,.171-.085.372-.085.605,0,.6.188,1.176.188,1.781,0,.371-.307.743-.426,1.084a4.935,4.935,0,0,1-.274.851,4.721,4.721,0,0,1-2.555,2.556Zm1.567-11.384a3.43,3.43,0,0,1-.357-1.208c0-.386.971-.557,1.295-.557.358,0,.58.015.75.309.119.2.324.155.324.481a3.961,3.961,0,0,1-.733,1.718c-.085.14-.136.28-.222.419-.034.062-.153.062-.222.062-.085,0-.391-.062-.426-.124C944.527,930.456,944.579,930.085,944.408,929.7Z" fill="#000000"/><path d="M943.028,944.134a3.069,3.069,0,0,1,.545-.063,3.986,3.986,0,0,1,.75.093,1.819,1.819,0,0,1,.579.295c.171.093.393.139.563.232.119.078.681.48.7.6a1.533,1.533,0,0,1,.017.279c0,1.1-1.193,1.626-1.841,2.338-.119.14-.477.419-.511.573a1.6,1.6,0,0,1-.153.481c-.137.278-.546.681-.546.991,0,.294.427.759.427,1.177a.461.461,0,0,1-.052.217.6.6,0,0,1,.034.17.16.16,0,0,1-.153.17c-.341,0-.6-.263-.9-.263-.068,0-.187.093-.306.093-.034,0-.069,0-.085-.031a.949.949,0,0,0-.205-.015.837.837,0,0,0-.682.4c-.187.248-.409.5-.613.744-.119.139-.359.17-.478.325-.136.17-.2.341-.391.558-.086.108-.171.217-.274.325a9.171,9.171,0,0,1-1.244.991,2.931,2.931,0,0,1-.817.371c-.086.032-.188.032-.274.063-.135.046-.357.371-.545.464a2.234,2.234,0,0,1-.835.232.418.418,0,0,1-.136-.015c-.46-.155-1.244-.123-1.517-.527-.1-.138-.29-.325-.29-.5a.409.409,0,0,1,.188-.309c.05-.047.971-.264,1.125-.326.221-.078.681-.387.784-.419a13.781,13.781,0,0,0,4.022-2.57c.255-.232.426-.527.664-.774a7.9,7.9,0,0,0,.784-.682,10.99,10.99,0,0,0,.87-1.285c.255-.5.647-.465.886-.775.136-.17.119-.34.2-.511a6.71,6.71,0,0,1,.615-.9,1.047,1.047,0,0,0,.255-.572c0-.356-.426-.419-.733-.419-.171,0-.358.016-.528.016-.205,0-.393-.046-.6-.046-.238,0-.426.154-.631.154a.662.662,0,0,1-.665-.635.356.356,0,0,1,.324-.386Zm-4.619.7c.563,0,1.073-.185,1.636-.185.187,0,.58.031.58.278,0,.31-.512.681-.784.821-.256.124-.427.31-.7.418a6.376,6.376,0,0,0-.972.558.933.933,0,0,0-.307.171,2.547,2.547,0,0,1-.988.185.475.475,0,0,1-.153-.015c-.273-.109-.6-.124-.6-.465,0-.387.1-.357.341-.7a1.08,1.08,0,0,0,.085-.248c.119-.309.341-.79.75-.821Zm5.965,7.884a1.909,1.909,0,0,1-.272-.233,1.278,1.278,0,0,1-.239-.588c0-.17.136-.248.307-.248.29,0,.562.248.818.356.154.062.324.031.477.093a3.183,3.183,0,0,1,.528.248,6.306,6.306,0,0,1,1.5.867,4.042,4.042,0,0,1,.631.774c.188.357.443.5.443.93,0,.341-.136.883-.614.883a2.706,2.706,0,0,1-1.5-.883c-.1-.124-.137-.279-.239-.4a10.4,10.4,0,0,0-.733-.789c-.255-.28-.6-.465-.869-.729Z" fill="#000000"/><path d="M918.5,924.384a30.046,30.046,0,0,1,3.341-.542c.357,0,.716.077,1.073.077a2.746,2.746,0,0,0,.341-.077.574.574,0,0,0,.1-.2c0-.853-1.023-1.627-1.023-2.091,0-.217.357-.279.545-.279a3.08,3.08,0,0,1,.972.325.569.569,0,0,1,.239.341c.1.4.613,1.424.613,1.7a.5.5,0,0,1-.034.154c-.256.728-.153.7-.835,1.162-.477.341-.7.913-1.6.913-.41,0-.785-.217-1.194-.217a8.2,8.2,0,0,0-2.283.4,2.628,2.628,0,0,1-.665.232,3.485,3.485,0,0,1-1.057-.171c-.221-.077-.341-.712-.426-.929a1.138,1.138,0,0,1-.085-.4,12.063,12.063,0,0,1,1.227-2.927,10.787,10.787,0,0,0,.869-1.393,1.6,1.6,0,0,0-.409-.636,6.123,6.123,0,0,0-.682-.217,1.777,1.777,0,0,1-.613-1.269.586.586,0,0,1,.068-.3c.188-.356,1.227-1.223,1.585-1.657.358-.418.835-1.317,1.3-1.564.069-.325.035-.961.41-1.084a1.11,1.11,0,0,1,.391-.108c.409,0,1.534.34,1.534.789a2.682,2.682,0,0,1-.784,1.1,6.278,6.278,0,0,0-.936.388c-.393.294-1.825,1.8-1.825,2.215,0,.046.017.077.017.124.171.108.154.2.239.355a5.374,5.374,0,0,0,.648.589.856.856,0,0,0,.358.047h.188c.255,0,.46-.232.766-.232.324,0,.409.17.409.433a1.832,1.832,0,0,1-.205.465,4.627,4.627,0,0,1-.681.991c-.8.883-2.608,1.952-2.608,3.205,0,.047.034.109.034.156a.407.407,0,0,0,.256.061c.1,0,.222-.014.307-.014Zm2.847-5.7c0-.512,1.329-2.339,1.908-2.355.273.217,1.04.666,1.04,1.007a.772.772,0,0,1-.171.573,2.722,2.722,0,0,1-.851.356c-.12.031-.206.139-.307.186a9.8,9.8,0,0,1-1.3.527.341.341,0,0,1-.256-.156A.143.143,0,0,1,921.343,918.685Zm7.636-3.176c-.768,0-1.535.155-2.3.155a3.061,3.061,0,0,0-1.279.4c-.936,0-1.107-.309-1.107-1.176,0-.558.631-.45,1.04-.558a3.035,3.035,0,0,1,.357-.077l2.131-.14h.085a5.549,5.549,0,0,1,.7.077c1.226.124,2.079-.046,2.675,1.162a.552.552,0,0,1,.051.155c0,.248-.409.326-.631.326-.426,0-.511-.326-.954-.326Zm1.363,3.639c0-.123-.051-.247-.051-.371v-1.6c0-.233.136-1.037.477-1.053.324.17.58,1.239.58,1.58,0,.511-.1,1.037-.1,1.548,0,.2.068.388.068.589,0,.263-.085.542-.085.8,0,.45.051.914.051,1.363,0,.263-.051.511-.051.774,0,.187.12.372.12.558,0,.356-.256.65-.29.991-.171,1.316-1.04,1.8-2.165,2.463a.808.808,0,0,1-.426.077c-.665,0-1.978-.4-1.978-1.146a.472.472,0,0,1,.188-.31,1.185,1.185,0,0,1,.937-.278c.137,0,.256.046.393.046,1.073-.65,1.125.123,1.96-1.378.119-.217.29-.883.375-.992Z" fill="#000000"/><path d="M917.422,939.036c-.545,0-.75-.743-.75-1.131a.584.584,0,0,1,.58-.51,5.241,5.241,0,0,1,1.193.263c.154.046.188.217.188.341A2.712,2.712,0,0,1,917.422,939.036Zm12.988-1.626c.409,0,1.039.031,1.039.387,0,.744-.988,1.115-1.67,1.115-.546,0-2.369-.356-3.016-.465a3.052,3.052,0,0,0-.444-.138.282.282,0,0,0-.187.077.53.53,0,0,0,.153.372c.119.138.307.217.426.355a3.8,3.8,0,0,1,.58.9c0,.015-.034.078-.034.092a.481.481,0,0,1-.375.156c-.7,0-1.4-.605-2.028-.852a.649.649,0,0,0-.085.357c0,.108.016.231.016.355,0,.372-.153,2.355-.665,2.355-.561,0-.494-2.184-.511-2.587l-.375-.356c-.272.217-.665.233-.937.434-.426.294-.579.851-1.006,1.161a7.127,7.127,0,0,1-3.545,1.224c-.324,0-.818-.2-.818-.542a.781.781,0,0,1,.494-.635c.307-.124.648-.078.955-.171.46-.139.92-.278,1.363-.434.188-.061.392-.077.579-.154a4.4,4.4,0,0,0,1.125-.991,1.786,1.786,0,0,0,.478-1.038,1.84,1.84,0,0,1-1.329.139c-.427-.078-1.091-.062-1.091-.62a.442.442,0,0,1,.341-.371,14.266,14.266,0,0,1,3.341-.465.88.88,0,0,0,.375-.619c0-.589-.512-.666-.9-.976a3.493,3.493,0,0,1-.511-1.611c0-.309.05-.6.068-.914s.034-2.183.528-2.183c.426,0,.426,1.038,1.159,1.038.035,0,.085-.016.12-.016a.42.42,0,0,1,.323-.093c.171,0,.358.031.477.031.631,0,.734-.7,1.023-.7.494,0,.512,1.053.6,1.363a.959.959,0,0,1,.051.31c0,.154-.067.325-.067.48,0,.2.085.4.085.6a2.86,2.86,0,0,1-.1.526c-.17.822-.51.713-1.073,1.193a2.729,2.729,0,0,0-.614.945c.034.247.187.635.528.635,1.364,0,2.728.217,4.091.341.068,0,.137.015.205.015.221,0,.426-.031.647-.031Zm-13.141-2.973c0-.775.9-1.007,1.227-1.626-.682-.868-1.244-.063-1.244-1.8a.744.744,0,0,1,.153-.418l1.517-1.7a.44.44,0,0,1,.324-.14,6.022,6.022,0,0,1,1.142.264c.171.046.221.185.306.309,0,.047.018.078.018.124a.292.292,0,0,1-.1.217c-.63.526-1.107-.046-1.96,1.007-.136.17-.29.294-.29.526a.679.679,0,0,0,.069.264c.477.124.511.48,1.142.48.239-.108.255-.34.255-.6v-.17c0-.311.034-.573.461-.573h.562c.392,0,.648.79.648,1.068,0,.357-.29.9-.75.9-.58.821-1.79,1.023-2.3,1.875.1.232.324.262.563.262a3.008,3.008,0,0,0,1.226-.278c0-.155-.016-.278-.016-.4,0-.341.085-.542.681-.542.273,0,.7.727.7.944a.4.4,0,0,1-.051.2c-.409.914-.665.821-1.6,1.084a5.149,5.149,0,0,1-1.022.325c-.136,0-.307-.046-.443-.061-1.159-.109-1.21-.388-1.21-1.24Zm8.76-4.539c0,.28-.2.326-.46.326-.2,0-.409-.109-.579-.109-.511,0-1.023.093-1.534.093-.222,0-.409-.17-.647-.17-.052,0-.154,0-.154-.062,0-1.1,1.414-.279,1.414-1.518a.319.319,0,0,1,.341-.356.369.369,0,0,1,.188.046c.409.217.511.294.511.6,0,.062-.017.155-.017.248C925.433,929.217,926.029,929.465,926.029,929.9Zm-.631,3.748c0-.464-.238-1.13-.851-1.13-.716,0-1.5.3-1.5,1.053s.119,1.146,1.022,1.146c.41,0,1.176-.124,1.3-.542a1.045,1.045,0,0,0,.033-.31Zm4.825.388c0-.295-.29-.557-.29-.8,0-.31.358-.388.63-.388.6,0,1.091,1.286,1.091,1.735a.521.521,0,0,1-.171.4,8.686,8.686,0,0,1-2.641.882c-.716,0-1.551-.061-1.551-.9a5.8,5.8,0,0,1,.954-2.586c-.272-.279-.7-.542-.7-.945a2.541,2.541,0,0,1,1.311-2.277,1.674,1.674,0,0,1,1.125-.449.356.356,0,0,1,.205.372c0,.867-1.6.511-1.6,1.6a.257.257,0,0,0,.153.264c.137.061.274.092.409.154.239.124.426.356.716.4.972-.232.2-1.456.955-1.456.426,0,.716.526.716.852,0,.6-1.262,1.688-1.841,1.688a.985.985,0,0,1-.358-.124c-.613.14-.853.991-1.142,1.441.119.5,1.006.5,1.432.5a1.007,1.007,0,0,0,.562-.186A.513.513,0,0,0,930.223,934.034Zm.256,8.363c-.563,0-2.4-1.286-2.4-1.8a.279.279,0,0,1,.255-.264,9.331,9.331,0,0,1,3.29.806.935.935,0,0,1,.341.573c0,.309-.733.712-1.04.712a.414.414,0,0,1-.238-.046A.944.944,0,0,1,930.479,942.4Z" fill="#000000"/><path d="M930.1,953.363c.033-.542.187-1.068.187-1.61,0-.729-.068-2.571-.717-3.051-.1-.078-.187-.108-.187-.248,0-.124.068-.325.239-.325.357-.512.1-1.673.613-1.673.273,0,.426.294.546.465a3.049,3.049,0,0,1,.409.65,5.545,5.545,0,0,1,.324,1.967c0,.5.119.991.119,1.486,0,1.1-.222,2.2-.222,3.285,0,.108.068.216.068.34a1.157,1.157,0,0,1-.034.247c-.221,1.007-.289.542-.869,1.163a5.2,5.2,0,0,0-.443.851c-.324.527-.92.418-1.466.527a4.352,4.352,0,0,1-.767.092c-1.6,0-3.17-.294-4.772-.294-.341,0-.664.124-.988.124-.12,0-.256-.031-.375-.031a11.057,11.057,0,0,0-2.676.31.82.82,0,0,1-.188.031c-.034,0-.085-.016-.119-.016-1.466-.262-1.807-2.059-1.807-3.174,0-.481.051-.945.068-1.425a16.58,16.58,0,0,1,.29-3.563,1.086,1.086,0,0,1-.051-.4,21.175,21.175,0,0,1,.477-2.091c.051-.14.239-.465.426-.465.358,0,.426.325.426.589,0,.217-.051.418-.068.635l-.358,7.326c.188.263.341.82.767.82,1.381,0,2.762-.294,4.142-.294h1.79q1.3,0,2.607.046c.409.016.818.109,1.228.109a1.955,1.955,0,0,0,1.244-.418Zm-3.018-5.544c.546.093,1.705.109,2.1.45a2.166,2.166,0,0,1-.035.339c-.1.589-1.925.063-2.25.961a1.679,1.679,0,0,0-.067.573c0,.449-.222.759-.222,1.115,0,.186.051.356.051.542,0,1.193-1.006,2.85-2.472,2.85-.647,0-1.414-.2-1.414-.914a.514.514,0,0,1,.239-.51,2.162,2.162,0,0,1,.562-.124,3.777,3.777,0,0,0,1.5-.775c.511-.449.529-1.084.835-1.627a2.122,2.122,0,0,0-1.891-1.439,1.081,1.081,0,0,1-.921-.93c0-.79,1.517,0,2.165-1.1a4.647,4.647,0,0,0,.357-.805c0-1.022-.375-.651-1.022-1.037l-4.4.108a2.381,2.381,0,0,1-1.022.263c-.256,0-.8-.046-.8-.371,0-.528,1.312-.976,1.772-1.084.392-.094.785-.047,1.176-.11a11.465,11.465,0,0,1,1.926-.185c.137,0,.256.031.393.031,1.772.077,3.681-.108,5.351.558a.712.712,0,0,1,.359.6c0,.187-.529.542-.716.542-.512,0-1.006-.185-1.5-.185-.546,0-.478.9-.546,1.223Zm-5.88.123c.392,0,.767.047,1.159.047.2,0,.444.156.444.357,0,.588-2.438.883-2.95,1.052-.068.016-.068.032-.135.032a.307.307,0,0,1-.188-.093.723.723,0,0,1-.034-.186.388.388,0,0,1,.017-.139,1.549,1.549,0,0,1-.017-.28c0-.774.988-.79,1.636-.79Zm-.954,4.988c-.443,0-.648-.45-.648-.79,0-1.069,1.415-1.5,2.369-1.672.034,0,.068-.016.1-.016a.361.361,0,0,1,.341.387c0,.65-.9,1.054-1.329,1.472C920.831,952.543,920.678,952.93,920.252,952.93Z" fill="#000000"/></g></g></svg>
