<svg xmlns="http://www.w3.org/2000/svg" width="1000" height="988" viewBox="0 0 1000 988"><g id="Artboard"><rect id="Tint" width="1000" height="988" fill="#58595b"/></g><g id="Outline"><g id="上海_アリス幻樂団" data-name="上海■アリス幻樂団"><path d="M951.3,929.233a1.984,1.984,0,0,1-.7-.128,2.651,2.651,0,0,1-1.928-2.708v-.4a3.211,3.211,0,0,1,2.853-3.037,2.313,2.313,0,0,1,.312.022,3.534,3.534,0,0,1,.5-.038,2.527,2.527,0,0,1,.66.092,5.626,5.626,0,0,1,.7.17,6.929,6.929,0,0,1,1.167-.508c.146-.051.293-.1.431-.163a5.576,5.576,0,0,0,.15-1.461l.008-.342a7.28,7.28,0,0,1,.133-1.069,3.684,3.684,0,0,0,.071-.5v-3.019a6.735,6.735,0,0,0-.179-1.278c-.039-.191-.078-.385-.114-.583a2.1,2.1,0,0,1-.031-.354A2.785,2.785,0,0,1,958,911.217a2.683,2.683,0,0,1,2.853,2,3.8,3.8,0,0,1,.187,1.1,2.231,2.231,0,0,1-.225,1c.181-.014.362-.024.542-.024a9.6,9.6,0,0,1,2.743.361,2.531,2.531,0,0,1,1.746,2.4c0,2.718-3.241,2.76-4.625,2.777l-.192,0a6.031,6.031,0,0,0-.462.661c-.036.076-.039.082-.039.494a1.942,1.942,0,0,0,.244.679h.041a3.643,3.643,0,0,1,.749.087c.018,0,.013.006,0,.007.458,0,.912-.034,1.366-.066.56-.038,1.121-.074,1.686-.074,3.659,0,3.943,2.076,3.943,2.712a3.128,3.128,0,0,1-3.074,2.93s-.2,0-.232,0l-6.23-.355a3.5,3.5,0,0,1-.645.048,4,4,0,0,1-1.062-.139,11.132,11.132,0,0,0-1.34.06l-.105.029a3.623,3.623,0,0,1-1.055.174,2.652,2.652,0,0,1-1.075-.236l-.265.1-.054.069a4.367,4.367,0,0,1-.665.7A2.341,2.341,0,0,1,951.3,929.233Z" fill="#fff"/><path d="M958,913.217c.375,0,.818.078.9.449a2.785,2.785,0,0,1,.137.65.3.3,0,0,1-.068.2,2.385,2.385,0,0,0-.274,1.176,1.547,1.547,0,0,0,.512,1.131,2.043,2.043,0,0,0,.921.542c.408,0,.817-.078,1.226-.078a7.826,7.826,0,0,1,2.08.248.557.557,0,0,1,.409.511c0,1.038-3.017.666-3.63.837-.393.108-1.278,1.362-1.449,1.734a2.7,2.7,0,0,0-.239,1.363,3.487,3.487,0,0,0,1.228,2.494,1.011,1.011,0,0,0,.63.2c.119,0,.256-.016.427-.016.238,0,.46.094.7.094,1.04,0,2.062-.14,3.1-.14.511,0,1.943.093,1.943.712a1.154,1.154,0,0,1-1.074.93h-.119l-6.545-.372a1.058,1.058,0,0,1-.443.062,4.141,4.141,0,0,1-.835-.139,14.455,14.455,0,0,0-1.824.077c-.307.031-.6.186-.9.186-.222,0-.563-.171-.563-.4a.7.7,0,0,1,.171-.542,10.725,10.725,0,0,1,1.892-.867c1.193-.635,1.107-2.369,1.141-3.469.018-.543.2-1.085.2-1.627v-3.019a12.129,12.129,0,0,0-.324-2.215V913.9a.788.788,0,0,1,.665-.681m-5.659,11.724a1.419,1.419,0,0,1,.239.046c.273.063,1.023.124,1.023.512a.3.3,0,0,1-.1.217c-.341.263-.8.325-1.159.557-.375.248-.528.62-.852.883a.394.394,0,0,1-.187.077c-.494-.185-.631-.294-.631-.836v-.4c0-.309.478-1.037.853-1.037a1.326,1.326,0,0,1,.238.062,3.578,3.578,0,0,1,.579-.078M958,909.217a4.736,4.736,0,0,0-4.665,4.681,4.378,4.378,0,0,0,.063.741c.039.212.08.419.121.623a5.759,5.759,0,0,1,.14.883v2.939c-.01.073-.025.146-.039.219a9.053,9.053,0,0,0-.164,1.359l-.009.37v.049h0a4.428,4.428,0,0,0-1.1-.141c-.189,0-.365.011-.525.026-.094-.006-.191-.01-.292-.01a5.15,5.15,0,0,0-4.853,5.037v.4a4.658,4.658,0,0,0,3.225,4.581,3.993,3.993,0,0,0,1.406.255,4.342,4.342,0,0,0,2.751-1.006c.075-.062.146-.125.212-.186a4.717,4.717,0,0,0,.548.031,5.477,5.477,0,0,0,1.543-.233c.21-.019.462-.026.726-.029a5.92,5.92,0,0,0,1.293.138,5.764,5.764,0,0,0,.735-.039l6.026.342c.076,0,.152.007.227.007h.119a5.135,5.135,0,0,0,5.074-4.93,4.641,4.641,0,0,0-3.719-4.445,4.508,4.508,0,0,0-2.119-7.134,8.662,8.662,0,0,0-1.766-.37c-.052-.277-.115-.5-.159-.655l-.014-.048A4.659,4.659,0,0,0,958,909.217Z" fill="#fff"/><path d="M962.718,944.242a5.267,5.267,0,0,1-1.169-.162,3.958,3.958,0,0,0-.468-.086,7.649,7.649,0,0,0-.952.091,10.968,10.968,0,0,1-1.484.126c-3.1,0-3.592-.519-3.954-.9a3.992,3.992,0,0,1-.655-.916,3.543,3.543,0,0,1-.587,1.006,2.293,2.293,0,0,1-1.861.824,3.023,3.023,0,0,1-2.783-3.131,6.51,6.51,0,0,1,1.972-3.44,2.627,2.627,0,0,1-2.212-2.508,3.418,3.418,0,0,1,.55-1.756,3.2,3.2,0,0,1,1.359-1.256,2.458,2.458,0,0,1-.834-1.944c0-1.661,1.4-2.867,3.329-2.867a2.65,2.65,0,0,1,1.751.688c.235.214.439.414.618.6q-.006-.077-.006-.156c0-1.692,1.98-2.728,3.057-2.728A3.149,3.149,0,0,1,961,927.471l2.432-.23c.062-.006.126-.009.188-.009h.12c1.705,0,3.432.906,3.432,2.635a2.6,2.6,0,0,1-1.381,2.262,2.175,2.175,0,0,1,.185.515,3.566,3.566,0,0,1,.817,1.693,2.7,2.7,0,0,1,1.964,2.671,2.642,2.642,0,0,1-2.241,2.578,10.116,10.116,0,0,1-1.049,3.24A3.659,3.659,0,0,1,962.718,944.242Z" fill="#fff"/><path d="M958.389,927.73a1.172,1.172,0,0,1,.886.821,2.081,2.081,0,0,1-.1.465c.034.232-.034.464.187.619l4.261-.4h.12c.392,0,1.432.171,1.432.635,0,.605-.938.744-1.449.744a8.129,8.129,0,0,1-2.2-.34c-.477.108-1.023-.032-1.483.185a.7.7,0,0,1-.323.093h-.034l-.478-.077-.954.2c-.1.015-1.875,2.215-2.983,2.215a.7.7,0,0,1-.665-.619c0-1.488,2.693-.915,3-3.068a3.309,3.309,0,0,1-.272-.743c0-.263.784-.728,1.057-.728m-5.42,1.6a.643.643,0,0,1,.409.171c.222.2,1.142,1.146,1.142,1.378,0,.14-.29.217-.409.217-.051,0-.1-.03-.154-.03-.664-.109-2.317.092-2.317-.869,0-.65.732-.867,1.329-.867m7.908,2.8c.512,0,1.006.061,1.518.061a1.839,1.839,0,0,1,1.4.589c.1.093.238.2.238.357,0,.2-.494.572-.7.572a12.85,12.85,0,0,0-1.347-.278c-.562,0-1.125.232-1.141.805a1.413,1.413,0,0,1-.052.464l-.136.357c.085.7.869.882,1.517.882.391,0,.784-.061,1.176-.077l.6-.634c.069-.248-.068-1.255.359-1.255.647,0,.63,1.564.7,1.982.205.2,1.756-.016,1.756,1.054a.63.63,0,0,1-.6.6,2.154,2.154,0,0,1-.307-.077,7.213,7.213,0,0,0-1-.062c-.2.248-.188,1.069-.239,1.394a10.792,10.792,0,0,1-.784,2.819,1.7,1.7,0,0,1-1.108.557c-.46,0-1.073-.248-1.636-.248-.818,0-1.619.217-2.437.217a8.394,8.394,0,0,1-2.506-.278,1.627,1.627,0,0,1-.494-1.131c0-.325.1-1.348.6-1.348.546,0,.58.867.682,1.208a4.443,4.443,0,0,0,.461.047,2.35,2.35,0,0,0,1.755-1.409c.068-.264-.035-1.023.409-1.023.272,0,.324.387.324.728,0,.171-.018.325-.018.4a1.362,1.362,0,0,0,1.381,1.363c.887,0,1.892-.573,1.892-1.456,0-.124-.034-.263-.034-.387,0-.217.068-.418.068-.635,0-.914-.954-1.3-1.823-1.3a1.914,1.914,0,0,0-1.228.572c0,.109-.119.311-.256.311a.324.324,0,0,1-.221-.124c-.375-.449-.358-.372-.852-.635a.274.274,0,0,0-.153-.031c-2.421,0-1.381,1.068-2.4,1.811a.265.265,0,0,1-.154.063c-.239,0-.306-.418-.306-.589a.82.82,0,0,1,.22-.635c-.067-.185-.238-.433-.476-.433-.29,0-.563.139-.853.139-.221,0-.732-.17-.732-.419v-.045l.119-.558c.068-.325.613-.372,1.039-.372h.29c.307-.2.767-.109,1.006-.418.341-.434.426-2.246,1.142-2.246.153,0,.239.341.239.449,0,.388-.274.79-.274,1.224.154.295-.05.465.29.9.341.031.665.077,1.006.077a7.576,7.576,0,0,0,.835-.077c.154-.387.444-.712.631-1.084l-.307-.914c-.392-.4-1.278-.278-1.278-.991a.42.42,0,0,1,.2-.387,6.1,6.1,0,0,1,2.011-.449m-7.261,1.657a.427.427,0,0,1,.427.4c0,.605-1.96,1.549-2.54,1.549-.357,0-.938-.2-.938-.589a1.534,1.534,0,0,1,.274-.743,1.062,1.062,0,0,1,.886-.557c.63-.016,1.261-.062,1.891-.062m.018,4.213c.17,0,.221.186.221.31a.308.308,0,0,1-.034.17l-.477.959c-.273.528-.7.992-.92,1.535a4.37,4.37,0,0,1-.494,1.13c-.1.124-.188.124-.342.124-.494,0-.783-.744-.783-1.131,0-.588,2.164-3.1,2.829-3.1m4.755-14.269a5.58,5.58,0,0,0-3.929,1.848,4.542,4.542,0,0,0-1.491-.253c-3.038,0-5.329,2.093-5.329,4.867a4.86,4.86,0,0,0,.247,1.48,5.574,5.574,0,0,0-.47.661l-.026.044a5.34,5.34,0,0,0-.826,2.771,4.4,4.4,0,0,0,1.221,3.052,5.044,5.044,0,0,0,3.8,8.027,4.35,4.35,0,0,0,2.592-.8,8.92,8.92,0,0,0,4.465.781,12.77,12.77,0,0,0,1.749-.144c.208-.028.421-.056.572-.068l.151.034a7.141,7.141,0,0,0,1.6.209A5.668,5.668,0,0,0,967.086,944a9.231,9.231,0,0,0,1.155-2.89,4.611,4.611,0,0,0,2.517-4.105,4.8,4.8,0,0,0-2.328-4.112c-.047-.117-.1-.23-.147-.338a4.532,4.532,0,0,0,.89-2.691c0-2.642-2.335-4.635-5.432-4.635h-.12c-.125,0-.251.006-.376.018l-1.283.121a4.953,4.953,0,0,0-3.573-1.641Z" fill="#fff"/><path d="M964.78,959.1a2.29,2.29,0,0,1-.6-.071c-.3-.051-1.52-.209-2.033-.222a10.673,10.673,0,0,1-1.991.216,3.26,3.26,0,0,1-1.062-.146c-.123-.038-.236-.077-.337-.113-.1.016-.22.042-.347.07a5.249,5.249,0,0,1-1.168.157,2.965,2.965,0,0,1-.58-.048,6.635,6.635,0,0,0-1.057-.09,5.712,5.712,0,0,0-.94.082,5.089,5.089,0,0,1-.746.072,2.6,2.6,0,0,1-.6-.061c-.121,0-.245.021-.356.033a6.142,6.142,0,0,1-.617.044h-.119a1.89,1.89,0,0,1-.3-.024,2.479,2.479,0,0,1-2.313-2.487,10.2,10.2,0,0,1,.061-1.436c-.012-.116-.034-.264-.05-.394-.039-.3-.062-.559-.062-.664a2.142,2.142,0,0,1,.047-.445,2.93,2.93,0,0,1,.187-.576c-.025-.145-.063-.329-.086-.447a4.655,4.655,0,0,1-.131-.948c0-.223-.012-.521-.025-.868-.019-.554-.042-1.219-.042-1.626a2.8,2.8,0,0,1,.149-1.076c.007-.035.043-.222.1-.677q.012-.082.021-.147a5.662,5.662,0,0,0-.068-.663,6.086,6.086,0,0,1-.068-.72v-.108l-.01-.052a5.131,5.131,0,0,1-.041-.568,2.261,2.261,0,0,1,.374-1.3,3.084,3.084,0,0,1,2.393-1.243l.188-.014c.458-.028,1.291-.079,2.028-.079a6.339,6.339,0,0,1,1.844.2c.056-.015.118-.03.185-.042l.117-.028a7.443,7.443,0,0,1,1.6-.268,2.5,2.5,0,0,1,.5.05,1.405,1.405,0,0,0-.188-.032c.126.013.416.025.776.044a26.135,26.135,0,0,1,3.116.255,4.375,4.375,0,0,1,1.337-.268l.173,0c1.475,0,3.083.881,3.157,2.513l.016.1a6.439,6.439,0,0,1,.071.915,5.978,5.978,0,0,1-.126,1.212l0,.015a3.056,3.056,0,0,1,.172.926,2.1,2.1,0,0,1-.031.359c.009.165.014.273.014.385a3.642,3.642,0,0,1-.274,1.469,15.542,15.542,0,0,0,.369,1.6,3.572,3.572,0,0,1,.127,1.067,13.263,13.263,0,0,1-.244,2.755,2.818,2.818,0,0,1,.073.636,2.773,2.773,0,0,1-2.6,2.775Z" fill="#fff"/><path d="M958.389,944.318c.205.047,3.256.124,3.9.311a1.309,1.309,0,0,0,.324.046c.409,0,.63-.279,1.346-.31h.086c.46,0,1.141.217,1.159.6a9.236,9.236,0,0,1,.085.929,4.222,4.222,0,0,1-.153,1.1c0,.031-.018.062-.018.093,0,.295.222.8.222.96v.015a1.146,1.146,0,0,0-.034.264c0,.14.017.294.017.465a1.367,1.367,0,0,1-.256.913.522.522,0,0,0-.05.279,12.847,12.847,0,0,0,.494,2.478,2.366,2.366,0,0,1,.034.465,10.344,10.344,0,0,1-.256,2.524.5.5,0,0,0-.052.2c0,.217.137.4.137.666a.637.637,0,0,1-.017.171c-.1.449-.358.6-.58.6a.283.283,0,0,1-.119-.015,21.459,21.459,0,0,0-2.573-.279,1.084,1.084,0,0,0-.29.031,8.33,8.33,0,0,1-1.637.186,1.548,1.548,0,0,1-.442-.047,4.531,4.531,0,0,0-.75-.232c-.682,0-1.21.247-1.722.247a1.11,1.11,0,0,1-.222-.015,8.56,8.56,0,0,0-1.415-.123c-.885,0-1.363.154-1.686.154a.617.617,0,0,1-.171-.016,1.493,1.493,0,0,0-.375-.046c-.375,0-.784.078-1.023.078h-.119c-.306-.047-.614-.124-.614-.511a8.028,8.028,0,0,1,.052-1.208c0-.031.016-.063.016-.124,0-.31-.119-1.007-.119-1.162V954c.085-.387.256-.355.256-.82v-.062c-.017-.512-.239-1.27-.239-1.518v-.093c0-.341-.067-1.734-.067-2.4a1.662,1.662,0,0,1,.016-.356,8.123,8.123,0,0,0,.238-1.285,1.08,1.08,0,0,0,.018-.248c0-.511-.137-1.161-.137-1.394v-.108c0-.171-.051-.418-.051-.62a.3.3,0,0,1,.035-.186,1.155,1.155,0,0,1,.732-.356c.137,0,1.262-.093,2.216-.093a4.457,4.457,0,0,1,1.3.124,1.446,1.446,0,0,0,.562.124,1.489,1.489,0,0,0,.529-.124,11.582,11.582,0,0,1,1.363-.264h.051m0-4h-.051a8.281,8.281,0,0,0-1.893.282,9.8,9.8,0,0,0-1.857-.142c-.817,0-1.686.054-2.153.083l-.19.012a5.116,5.116,0,0,0-3.92,2.114,4.24,4.24,0,0,0-.72,2.426,6.676,6.676,0,0,0,.051.774,7.412,7.412,0,0,0,.086.947c.012.089.03.219.041.319-.012.1-.037.285-.058.4a4.927,4.927,0,0,0-.2,1.57c0,.425.023,1.119.044,1.7.011.31.022.577.023.709v.087a6.033,6.033,0,0,0,.15,1.247c-.026.094-.051.192-.074.295a4.055,4.055,0,0,0-.093.858,6.833,6.833,0,0,0,.078.938l.019.139c-.041.418-.046.876-.046,1.433a4.474,4.474,0,0,0,4.01,4.465,4.074,4.074,0,0,0,.6.046h.119a7.393,7.393,0,0,0,.834-.056l.048,0a4.933,4.933,0,0,0,.687.045,6.688,6.688,0,0,0,1.047-.1,3.821,3.821,0,0,1,.639-.059,4.56,4.56,0,0,1,.716.062,5,5,0,0,0,.921.076,6.647,6.647,0,0,0,1.4-.161,5.5,5.5,0,0,0,1.514.193,13.163,13.163,0,0,0,2.146-.205c.424.032,1.168.125,1.507.179a4.254,4.254,0,0,0,.966.1,4.769,4.769,0,0,0,4.6-4.775,4.91,4.91,0,0,0-.037-.593,15.926,15.926,0,0,0,.208-2.8,5.573,5.573,0,0,0-.168-1.492c-.016-.059-.033-.118-.052-.176-.052-.176-.141-.533-.211-.855a6.011,6.011,0,0,0,.209-1.612c0-.107,0-.21-.007-.31a4.03,4.03,0,0,0,.024-.419,4.523,4.523,0,0,0-.129-1.062,7.931,7.931,0,0,0,.078-1.106,8.436,8.436,0,0,0-.089-1.184l-.008-.063a4.881,4.881,0,0,0-5.147-4.286h-.086c-.058,0-.116,0-.175,0a6.4,6.4,0,0,0-1.406.217c-.641-.081-1.509-.137-2.859-.2-.275-.014-.506-.024-.648-.034a3.935,3.935,0,0,0-.485-.03Z" fill="#fff"/><path d="M936.4,928.6a3.091,3.091,0,0,1-2.18-.785,2.559,2.559,0,0,1-1.592-2.345c0-.878.438-2.057,2.529-2.689a2.6,2.6,0,0,1,.683-.116,3.031,3.031,0,0,1,.6-.257,5.73,5.73,0,0,0,1.248-.5l.07-.042c.552-.329.643-.4.743-.56l.044-.094a5.284,5.284,0,0,1,.314-.565,4.321,4.321,0,0,1-.093-.924c0-.084,0-.164.012-.239a2.306,2.306,0,0,1-1.025-1.589c-.176.04-.347.071-.507.1l-.049.028c-.105.041-.213.081-.334.12a2.1,2.1,0,0,1-.378.091,2.825,2.825,0,0,1-1.446.346,2.659,2.659,0,0,1-2.72-2.239,6.691,6.691,0,0,1-.046-.7,3.727,3.727,0,0,1,3.414-3.255,2.571,2.571,0,0,1,.618.078,2.382,2.382,0,0,0,.37.016c.143,0,.294.009.443.021l.07,0a3.46,3.46,0,0,1,.579-.057,3.284,3.284,0,0,1,1.011.2,4.712,4.712,0,0,1,1.117-.311,3.234,3.234,0,0,1,.77-.277,11.624,11.624,0,0,1,2.3-.275c.127,0,.613.016.613.016.107,0,.212.007.319.017a2.836,2.836,0,0,1,.64-.134,7.79,7.79,0,0,1,.933-.054,5.346,5.346,0,0,1,2.125.352,3.519,3.519,0,0,1,.855.558,2.185,2.185,0,0,0,.28.185,3.148,3.148,0,0,1,1.842,2.7,4.226,4.226,0,0,1-1.956,3.313,2.861,2.861,0,0,1-.836.422l-.028.026a3.888,3.888,0,0,1-.907.6c-.4.18-.809.326-1.221.468-.494.178-.982.358-1.47.549a2.643,2.643,0,0,1-.765,1.175,4.48,4.48,0,0,1-.115.789,5.949,5.949,0,0,1-2.062,3.552,5.86,5.86,0,0,0-1.224.969,11.787,11.787,0,0,1-2.167,1.077A4.165,4.165,0,0,1,936.4,928.6Z" fill="#fff"/><path d="M945.465,913.619a3.806,3.806,0,0,1,1.33.187,3.155,3.155,0,0,1,.528.386c.46.341,1.244.589,1.244,1.224a2.412,2.412,0,0,1-1.142,1.7,5.293,5.293,0,0,1-.613.264,9.532,9.532,0,0,1-.8.573c-.341.154-.7.278-1.057.4-.562.2-1.108.4-1.653.621-.137.061-.29.092-.427.154-.408.186-.511.65-.613,1.007-.119.433-.341.34-.614.573a.512.512,0,0,1-.306.093c-.529,0-.58-.744-.58-1.084,0-.124.086-.248.086-.372a5.258,5.258,0,0,0-.155-.883c-.085-.511-.119-.558-.681-.619a.315.315,0,0,1-.289-.31.713.713,0,0,1,.46-.666c.17-.093.238-.248.477-.248.17,0,.323.062.494.062.443,0,.954.635,1.159.96a.436.436,0,0,0,.392.233.712.712,0,0,0,.358-.094,4.441,4.441,0,0,0,.87-.433,5.465,5.465,0,0,1,.63-.434c.153-.093.392-.108.528-.2.1-.077.137-.2.239-.279a2.724,2.724,0,0,0,.954-1.022c0-.264-.732-.434-.954-.434-.409,0-.836.124-1.262.124-.153,0-.306-.062-.46-.062-.238,0-.477.108-.715.108-.085,0-.154-.015-.239-.015-.7,0-1.364.326-2.062.326h-.069c-.425,0-1.363-.016-1.363-.527,0-.527.869-.62,1.279-.666.119-.016.409-.217.629-.263a9.722,9.722,0,0,1,1.893-.233c.2,0,.409.016.613.016.171,0,.341.046.512.046.119,0,.426-.154.613-.17a6.38,6.38,0,0,1,.767-.047m-9.783.759a.812.812,0,0,1,.187.031,3.438,3.438,0,0,0,.8.063c.187,0,.392.03.58.03.17,0,.341-.062.512-.062.22,0,1.056.341,1.056.6,0,.279-.8.65-1.056.759a4.03,4.03,0,0,1-.853.217,4.7,4.7,0,0,0-.665.216,4.24,4.24,0,0,0-.426.078c-.358.155-.306.263-.784.263-.29,0-.7-.17-.732-.464a4.3,4.3,0,0,1-.034-.48c0-.434.9-1.255,1.414-1.255m5.454,6.908c.256,0,.256.2.256.371a2.555,2.555,0,0,1-.069.635,4.017,4.017,0,0,1-1.431,2.51c-.154.138-.375.2-.545.341s-.274.34-.461.463a9.826,9.826,0,0,1-1.789.883,2.11,2.11,0,0,1-.7.109c-.835,0-.766-.371-1.414-.651a.544.544,0,0,1-.358-.479c0-.4.75-.666,1.108-.775a.685.685,0,0,1,.17-.031c.085,0,.171.016.256.016a.5.5,0,0,0,.153-.016c.256-.061.444-.264.7-.341a7.713,7.713,0,0,0,1.67-.681,3.78,3.78,0,0,0,1.516-1.286c.205-.34.427-1.068.938-1.068m4.329-11.667a10.412,10.412,0,0,0-1.208.071,4.71,4.71,0,0,0-.581.1h-.1c-.051,0-.1,0-.154,0-.153-.006-.306-.011-.459-.011a13.426,13.426,0,0,0-2.684.312,5.163,5.163,0,0,0-1,.318c-.2.04-.393.087-.576.138a4.7,4.7,0,0,0-.942-.1,4.861,4.861,0,0,0-.668.047c-.143-.01-.286-.015-.424-.015h-.079a4.492,4.492,0,0,0-.909-.094c-2.453,0-5.414,2.344-5.414,5.255a8.188,8.188,0,0,0,.059.93,4.643,4.643,0,0,0,4.707,4.014,5.856,5.856,0,0,0,.674-.037c-.156.053-.3.11-.426.167a4.817,4.817,0,0,0-.725.163c-3.547,1.073-3.932,3.573-3.932,4.6a4.542,4.542,0,0,0,2.47,4.01,5.1,5.1,0,0,0,3.3,1.12,6.083,6.083,0,0,0,2.029-.336l.109-.04a13.7,13.7,0,0,0,2.585-1.3,4.9,4.9,0,0,0,.764-.637,4.839,4.839,0,0,0,.654-.486,7.913,7.913,0,0,0,2.691-4.646c.023-.1.043-.2.061-.3a4.644,4.644,0,0,0,.334-.487q.334-.125.677-.246c.387-.134.856-.3,1.359-.525a5.57,5.57,0,0,0,1.131-.694,4.791,4.791,0,0,0,1.023-.579,6.149,6.149,0,0,0,2.753-4.911,5.012,5.012,0,0,0-2.83-4.427l-.054-.032a5.345,5.345,0,0,0-1.233-.793l-.065-.029a7.282,7.282,0,0,0-2.92-.516Z" fill="#fff"/><path d="M939.551,944.351c-1.17,0-3.585-.678-3.585-2.775a2.98,2.98,0,0,1,1.488-2.43,2.287,2.287,0,0,1-1.015-.667,5.608,5.608,0,0,1-1.308-3.934,4.459,4.459,0,0,1,.181-1.254c.01-.038.023-.076.037-.114a2.027,2.027,0,0,0,.071-.646c0-.335-.024-.67-.046-1-.028-.423-.056-.847-.056-1.271a1.95,1.95,0,0,0-.034-.24,5.525,5.525,0,0,1-.085-.891,2.7,2.7,0,0,1,2.783-2.666,3.489,3.489,0,0,1,3.3,3.627,3.017,3.017,0,0,1-.382,1.443,4.378,4.378,0,0,0-.164,1.407c0,.214-.008.434-.019.655,0,.1-.009.206-.012.307l.017.055a3.5,3.5,0,0,1,.22,1.135,6.106,6.106,0,0,1-1,3.292,3.308,3.308,0,0,1,.326-.066,7.889,7.889,0,0,0,1.619-1.012l.042-.072c.076-.133.153-.264.24-.391a1.531,1.531,0,0,0,.281-.853c0-.146-.007-.293-.014-.439-.01-.21-.02-.419-.02-.629a16.632,16.632,0,0,1,.1-1.723l.008-.162a4.17,4.17,0,0,1,.075-.8c.009-.043.019-.085.031-.127a2.4,2.4,0,0,1,.259-.6l.011-.03a3.786,3.786,0,0,1-.3-.9l-.028-.119-.049-.114a4.653,4.653,0,0,1-.459-1.851c0-1.678,1.657-2.557,3.295-2.557a2.719,2.719,0,0,1,2.282,1.007,2.318,2.318,0,0,1,.792,1.783,4.761,4.761,0,0,1-.857,2.471l-.039.067a3.218,3.218,0,0,1,.4,1.643c0,.112,0,.229-.011.35l-.007.208a.882.882,0,0,0,.011.127,2.854,2.854,0,0,1,.074.616,3.151,3.151,0,0,1-.081.671l0,0c.009.138.037.316.067.5a7.453,7.453,0,0,1,.119,1.206,3.423,3.423,0,0,1-.481,1.642c-.025.048-.052.094-.072.141l-.021.1a3.7,3.7,0,0,1-.4,1.064,8.955,8.955,0,0,1-2.178,2.643,3.8,3.8,0,0,1-.927.547c-.044.019-.089.038-.132.061l-.017.027a3.885,3.885,0,0,1-.719.519,5.279,5.279,0,0,1-.85.345s-.476.163-.6.207A6.115,6.115,0,0,1,939.551,944.351Z" fill="#fff"/><path d="M945.346,927.932c.358,0,.58.015.75.309.119.2.324.155.324.481a3.961,3.961,0,0,1-.733,1.718c-.085.14-.136.28-.222.419-.034.062-.153.062-.222.062-.085,0-.391-.062-.426-.124-.29-.341-.238-.712-.409-1.1a3.43,3.43,0,0,1-.357-1.208c0-.386.971-.557,1.295-.557m-7.364.526c.87,0,1.3.961,1.3,1.627,0,.355-.205.526-.306.867a6.512,6.512,0,0,0-.24,1.983c0,.371-.034.758-.034,1.129,0,.3.24.729.24,1.023a3.98,3.98,0,0,1-.581,2.059.363.363,0,0,1-.2.109.269.269,0,0,1-.221-.109,3.625,3.625,0,0,1-.8-2.6,2.5,2.5,0,0,1,.1-.7,3.821,3.821,0,0,0,.188-1.317c0-.759-.1-1.517-.1-2.276,0-.372-.119-.743-.119-1.131a.7.7,0,0,1,.783-.666m7.228,3.284a.266.266,0,0,1,.186.062,1.228,1.228,0,0,1,.53,1.1c0,.17-.018.357-.018.558a4.239,4.239,0,0,0,.034.449,1.775,1.775,0,0,1,.051.294c0,.171-.085.372-.085.605,0,.6.188,1.176.188,1.781,0,.371-.307.743-.426,1.084a4.935,4.935,0,0,1-.274.851,4.721,4.721,0,0,1-2.555,2.556c-.239.154-.393.356-.649.5a5.892,5.892,0,0,1-.75.279,6.147,6.147,0,0,1-1.891.5c-.409,0-1.585-.294-1.585-.775a1.03,1.03,0,0,1,.665-.774c.255-.062.545-.031.8-.093a10.223,10.223,0,0,0,.971-.387c.154-.047.307-.031.46-.093a9.323,9.323,0,0,0,2.438-1.518,3.7,3.7,0,0,0,.511-.743,3.492,3.492,0,0,0,.63-1.983c0-.356-.034-.713-.034-1.068a14.916,14.916,0,0,1,.085-1.519c.034-.247,0-.51.052-.758.034-.123.136-.2.17-.326.086-.247.137-.572.5-.572m.136-7.81a5.6,5.6,0,0,0-4.162,1.673,5.077,5.077,0,0,0-3.2-1.147,4.676,4.676,0,0,0-4.783,4.666,7.334,7.334,0,0,0,.11,1.2l.01.065c0,.46.034.887.059,1.267.022.322.042.626.042.871,0,.037,0,.073,0,.109s-.019.062-.028.094a6.478,6.478,0,0,0-.26,1.811,7.82,7.82,0,0,0,1.432,4.8,4.611,4.611,0,0,0-.6,2.229c0,2.989,2.839,4.775,5.585,4.775a8.041,8.041,0,0,0,2.834-.587c.1-.037.2-.074.3-.108l.117-.04.113-.038a6.982,6.982,0,0,0,1.12-.454l.07-.037a32.12,32.12,0,0,1,2.141-1.394,11.047,11.047,0,0,0,2.654-3.245,5.51,5.51,0,0,0,.531-1.378,5.272,5.272,0,0,0,.661-2.48,9.252,9.252,0,0,0-.144-1.521c-.006-.039-.013-.078-.02-.118a4.7,4.7,0,0,0,.061-.747,4.643,4.643,0,0,0-.08-.848v-.008c.007-.155.013-.3.013-.445a5.679,5.679,0,0,0-.191-1.492,5.911,5.911,0,0,0,.685-2.689,4.314,4.314,0,0,0-1.3-3.132,4.614,4.614,0,0,0-3.769-1.658Z" fill="#fff"/><path d="M935.733,957.95a2.372,2.372,0,0,1-.724-.1,2.466,2.466,0,0,0-.254-.05,3.257,3.257,0,0,1-2.332-1.269,2.5,2.5,0,0,1-.633-1.614,2.376,2.376,0,0,1,.916-1.854,3.188,3.188,0,0,1,1.374-.57c.114-.03.226-.059.308-.082.065-.035.138-.08.2-.119a3.159,3.159,0,0,1,.712-.342,12.111,12.111,0,0,0,3.276-2.151c.032-.035.077-.1.126-.163a6.191,6.191,0,0,1,.428-.506,4.693,4.693,0,0,1,.6-.506c.026-.018.051-.037.076-.056l.188-.257c.144-.2.273-.369.37-.528a3.306,3.306,0,0,1-.484.242,1.207,1.207,0,0,0-.261.15c-.144.1-.295.193-.472.293-.087.047-.156.08-.215.107a3.855,3.855,0,0,1-2.058.5,2.336,2.336,0,0,1-.894-.157,2.377,2.377,0,0,1-1.856-2.323,2.511,2.511,0,0,1,.563-1.673,2.871,2.871,0,0,1,2.46-2.087q.076-.006.153-.006h1.108a3.585,3.585,0,0,0,.478-.063,6.491,6.491,0,0,1,1.158-.122,3.492,3.492,0,0,1,.417.024,2.587,2.587,0,0,1,.49-.152l1.677-.343a5,5,0,0,1,.944-.1,5.778,5.778,0,0,1,1.128.129,3.155,3.155,0,0,1,1.132.484,4.056,4.056,0,0,1,.6.256c.041.023.082.047.121.073,1.269.822,1.517,1.473,1.593,2a3.485,3.485,0,0,1,.036.559,4.228,4.228,0,0,1-1.918,3.3,3.992,3.992,0,0,0-.445.388c-.021.026-.088.1-.172.178a3.313,3.313,0,0,1-.215.489l-.016.029c.091.046.171.091.24.131a2.608,2.608,0,0,1,.555.151,5.044,5.044,0,0,1,.818.394c.1.057.221.109.342.165a4.732,4.732,0,0,1,1.583,1.046l.156.17a4.566,4.566,0,0,1,.788,1.047,2.93,2.93,0,0,1,.67,1.854,2.7,2.7,0,0,1-2.614,2.883,4.577,4.577,0,0,1-3.032-1.6,2.838,2.838,0,0,1-.356-.551c-.066-.08-.147-.153-.223-.229-.117-.116-.233-.233-.341-.353-.05-.047-.124-.1-.194-.149a6.206,6.206,0,0,1-.584-.485c-.044-.043-.086-.087-.126-.134l-.109-.126a2.584,2.584,0,0,1-.5-.5c-.02-.027-.069-.1-.075-.11l-.281.334a2.554,2.554,0,0,1-.59.51,3.994,3.994,0,0,1-.311.41,4.934,4.934,0,0,1-.333.391,7.273,7.273,0,0,1-1.172.979c-.1.075-.209.151-.313.229a4.706,4.706,0,0,1-1.333.657,2.656,2.656,0,0,1-.628.443A4.191,4.191,0,0,1,935.733,957.95Z" fill="#fff"/><path d="M943.573,944.071a3.986,3.986,0,0,1,.75.093,1.819,1.819,0,0,1,.579.295c.171.093.393.139.563.232.119.078.681.48.7.6a1.533,1.533,0,0,1,.017.279c0,1.1-1.193,1.626-1.841,2.338-.119.14-.477.419-.511.573a1.6,1.6,0,0,1-.153.481c-.137.278-.546.681-.546.991,0,.294.427.759.427,1.177a.461.461,0,0,1-.052.217.6.6,0,0,1,.034.17.16.16,0,0,1-.153.17c-.341,0-.6-.263-.9-.263-.068,0-.187.093-.306.093-.034,0-.069,0-.085-.031a.949.949,0,0,0-.205-.015.837.837,0,0,0-.682.4c-.187.248-.409.5-.613.744-.119.139-.359.17-.478.325-.136.17-.2.341-.391.558-.086.108-.171.217-.274.325a9.171,9.171,0,0,1-1.244.991,2.931,2.931,0,0,1-.817.371c-.086.032-.188.032-.274.063-.135.046-.357.371-.545.464a2.234,2.234,0,0,1-.835.232.418.418,0,0,1-.136-.015c-.46-.155-1.244-.123-1.517-.527-.1-.138-.29-.325-.29-.5a.409.409,0,0,1,.188-.309c.05-.047.971-.264,1.125-.326.221-.078.681-.387.784-.419a13.781,13.781,0,0,0,4.022-2.57c.255-.232.426-.527.664-.774a7.9,7.9,0,0,0,.784-.682,10.99,10.99,0,0,0,.87-1.285c.255-.5.647-.465.886-.775.136-.17.119-.34.2-.511a6.71,6.71,0,0,1,.615-.9,1.047,1.047,0,0,0,.255-.572c0-.356-.426-.419-.733-.419-.171,0-.358.016-.528.016-.205,0-.393-.046-.6-.046-.238,0-.426.154-.631.154a.662.662,0,0,1-.665-.635.356.356,0,0,1,.324-.386l1.671-.341a3.069,3.069,0,0,1,.545-.063m-3.528.574c.187,0,.58.031.58.278,0,.31-.512.681-.784.821-.256.124-.427.31-.7.418a6.376,6.376,0,0,0-.972.558.933.933,0,0,0-.307.171,2.547,2.547,0,0,1-.988.185.475.475,0,0,1-.153-.015c-.273-.109-.6-.124-.6-.465,0-.387.1-.357.341-.7a1.08,1.08,0,0,0,.085-.248c.119-.309.341-.79.75-.821h1.108c.563,0,1.073-.185,1.636-.185m4.125,7c.29,0,.562.248.818.356.154.062.324.031.477.093a3.183,3.183,0,0,1,.528.248,6.306,6.306,0,0,1,1.5.867,4.042,4.042,0,0,1,.631.774c.188.357.443.5.443.93,0,.341-.136.883-.614.883a2.706,2.706,0,0,1-1.5-.883c-.1-.124-.137-.279-.239-.4a10.4,10.4,0,0,0-.733-.789c-.255-.28-.6-.465-.869-.729l-.239-.278a1.909,1.909,0,0,1-.272-.233,1.278,1.278,0,0,1-.239-.588c0-.17.136-.248.307-.248m-.6-11.574a6.768,6.768,0,0,0-1.268.129l-.076.014-1.671.341c-.124.026-.246.056-.365.091h-.148a8.512,8.512,0,0,0-1.5.151c-.068.011-.135.025-.2.034H937.3c-.1,0-.2,0-.305.012a4.784,4.784,0,0,0-4.063,3.091,4.479,4.479,0,0,0-.808,2.663,4.309,4.309,0,0,0,2.01,3.665c-.2.1-.371.194-.523.283l-.043.012a5.05,5.05,0,0,0-2.12.948,4.357,4.357,0,0,0-1.659,3.409,4.575,4.575,0,0,0,1.1,2.9,5.306,5.306,0,0,0,3.533,1.951l.085.015a4.373,4.373,0,0,0,1.229.167,6.135,6.135,0,0,0,2.593-.639,4.591,4.591,0,0,0,.765-.478,6.229,6.229,0,0,0,1.525-.822c.1-.076.19-.139.279-.2a9.339,9.339,0,0,0,1.491-1.264c.035-.037.07-.076.106-.116l.111.084.045.034c.088.093.183.189.278.285l.015.015a4.828,4.828,0,0,0,.43.616,6.526,6.526,0,0,0,4.582,2.334,4.7,4.7,0,0,0,4.614-4.883,4.869,4.869,0,0,0-.991-2.953,6.689,6.689,0,0,0-1.009-1.318l-.091-.1c-.021-.024-.042-.047-.064-.07a6.056,6.056,0,0,0-1.645-1.224,5.529,5.529,0,0,0,1.414-3.676,5.407,5.407,0,0,0-.071-.933,4.987,4.987,0,0,0-2.471-3.307c-.079-.051-.16-.1-.242-.145a5.319,5.319,0,0,0-.679-.312,4.947,4.947,0,0,0-1.5-.612l-.138-.029a7.873,7.873,0,0,0-1.507-.165Z" fill="#fff"/><path d="M928.467,928.877a4.243,4.243,0,0,1-3.737-2.032,3.457,3.457,0,0,1-2.5,1.025,4.058,4.058,0,0,1-1.13-.181c-.043-.011-.085-.025-.128-.035a6.461,6.461,0,0,0-1.586.3,2.988,2.988,0,0,1-1.3.333,5.5,5.5,0,0,1-1.691-.274,2.749,2.749,0,0,1-1.641-2.042l-.03-.1a3.071,3.071,0,0,1-.206-1.085,11.443,11.443,0,0,1,1.465-3.873,3.862,3.862,0,0,1-1.073-2.569,2.58,2.58,0,0,1,.318-1.262,6.212,6.212,0,0,1,1.256-1.431c.21-.2.42-.392.536-.532a4.428,4.428,0,0,0,.283-.39,9.038,9.038,0,0,1,.694-.917,2.478,2.478,0,0,1,1.568-1.941,2.887,2.887,0,0,1,1.094-.235,4.324,4.324,0,0,1,2.845,1.14,3.464,3.464,0,0,1,1.261-.377l.109-.013a4.382,4.382,0,0,1,.554-.115c.043,0,.086-.009.129-.012l2.13-.14c.044,0,.087,0,.131,0a6.178,6.178,0,0,1,.929.077l.126.019c.105.009.27.019.427.03a3.96,3.96,0,0,1,3.771,2.228,1.86,1.86,0,0,1,.088.2,2.11,2.11,0,0,1,.17.835,2.2,2.2,0,0,1-.192.906,5.944,5.944,0,0,1,.21,1.294c0,.32-.03.645-.061.971-.017.17-.036.34-.041.508a3.791,3.791,0,0,1,.067.658,4.643,4.643,0,0,1-.067.716l-.02.134c0,.143.013.333.024.524.016.266.029.533.029.794a5.713,5.713,0,0,1-.036.589l0,.016a2.632,2.632,0,0,1,.107.727,3.25,3.25,0,0,1-.309,1.325.166.166,0,0,1-.016.031c-.348,2.185-1.828,3.06-3.023,3.767l-.089.052A2.76,2.76,0,0,1,928.467,928.877Zm-3.544-8.968a2.573,2.573,0,0,1,1.106,1.552c.03.088.111.271.19.461a6.453,6.453,0,0,1,.444,1.307,4.215,4.215,0,0,1,.951-.086h.022a3.885,3.885,0,0,1,.5-.167l.041-.071c.027-.073.134-.4.16-.478v-3.14a2.675,2.675,0,0,1-.051-.51V917.55l-.262.026a13.313,13.313,0,0,1-1.352.088c-.006,0-.079.045-.134.075-.074.041-.173.095-.293.147a2.485,2.485,0,0,1-.788,1.507,2.833,2.833,0,0,1-.665.443C924.845,919.862,924.888,919.887,924.923,919.909Z" fill="#fff"/><path d="M920.66,913.636c.409,0,1.534.34,1.534.789a2.682,2.682,0,0,1-.784,1.1,6.278,6.278,0,0,0-.936.388c-.393.294-1.825,1.8-1.825,2.215,0,.046.017.077.017.124.171.108.154.2.239.355a5.374,5.374,0,0,0,.648.589.856.856,0,0,0,.358.047h.188c.255,0,.46-.232.766-.232.324,0,.409.17.409.433a1.832,1.832,0,0,1-.205.465,4.627,4.627,0,0,1-.681.991c-.8.883-2.608,1.952-2.608,3.205,0,.047.034.109.034.156a.407.407,0,0,0,.256.061c.1,0,.222-.014.307-.014l.119.077a30.046,30.046,0,0,1,3.341-.542c.357,0,.716.077,1.073.077a2.746,2.746,0,0,0,.341-.077.574.574,0,0,0,.1-.2c0-.853-1.023-1.627-1.023-2.091,0-.217.357-.279.545-.279a3.08,3.08,0,0,1,.972.325.569.569,0,0,1,.239.341c.1.4.613,1.424.613,1.7a.5.5,0,0,1-.034.154c-.256.728-.153.7-.835,1.162-.477.341-.7.913-1.6.913-.41,0-.785-.217-1.194-.217a8.2,8.2,0,0,0-2.283.4,2.628,2.628,0,0,1-.665.232,3.485,3.485,0,0,1-1.057-.171c-.221-.077-.341-.712-.426-.929a1.138,1.138,0,0,1-.085-.4,12.063,12.063,0,0,1,1.227-2.927,10.787,10.787,0,0,0,.869-1.393,1.6,1.6,0,0,0-.409-.636,6.123,6.123,0,0,0-.682-.217,1.777,1.777,0,0,1-.613-1.269.586.586,0,0,1,.068-.3c.188-.356,1.227-1.223,1.585-1.657.358-.418.835-1.317,1.3-1.564.069-.325.035-.961.41-1.084a1.11,1.11,0,0,1,.391-.108m7.244.479a5.549,5.549,0,0,1,.7.077c1.226.124,2.079-.046,2.675,1.162a.552.552,0,0,1,.051.155c0,.248-.409.326-.631.326-.426,0-.511-.326-.954-.326h-.766c-.768,0-1.535.155-2.3.155a3.061,3.061,0,0,0-1.279.4c-.936,0-1.107-.309-1.107-1.176,0-.558.631-.45,1.04-.558a3.035,3.035,0,0,1,.357-.077l2.131-.14h.085m2.864,2.014c.324.17.58,1.239.58,1.58,0,.511-.1,1.037-.1,1.548,0,.2.068.388.068.589,0,.263-.085.542-.085.8,0,.45.051.914.051,1.363,0,.263-.051.511-.051.774,0,.187.12.372.12.558,0,.356-.256.65-.29.991-.171,1.316-1.04,1.8-2.165,2.463a.808.808,0,0,1-.426.077c-.665,0-1.978-.4-1.978-1.146a.472.472,0,0,1,.188-.31,1.185,1.185,0,0,1,.937-.278c.137,0,.256.046.393.046,1.073-.65,1.125.123,1.96-1.378.119-.217.29-.883.375-.992v-3.671c0-.123-.051-.247-.051-.371v-1.6c0-.233.136-1.037.477-1.053m-7.517.2c.273.217,1.04.666,1.04,1.007a.772.772,0,0,1-.171.573,2.722,2.722,0,0,1-.851.356c-.12.031-.206.139-.307.186a9.8,9.8,0,0,1-1.3.527.341.341,0,0,1-.256-.156.143.143,0,0,1-.067-.138c0-.512,1.329-2.339,1.908-2.355m-2.591-6.694a4.778,4.778,0,0,0-1.818.371,4.357,4.357,0,0,0-2.657,2.858c-.206.262-.379.514-.528.729-.055.08-.106.158-.156.225-.106.113-.252.247-.4.387a7.985,7.985,0,0,0-1.642,1.941,4.55,4.55,0,0,0-.55,2.2,5.89,5.89,0,0,0,.724,2.738,9.7,9.7,0,0,0-1.116,3.7,5.076,5.076,0,0,0,.308,1.721l.008.026a4.7,4.7,0,0,0,2.881,3.363,7.591,7.591,0,0,0,2.371.393,4.793,4.793,0,0,0,1.989-.449,6.538,6.538,0,0,1,.707-.165,5.728,5.728,0,0,0,1.446.2,5.524,5.524,0,0,0,2.1-.4,6.712,6.712,0,0,0,4.141,1.4,4.706,4.706,0,0,0,2.4-.6l.061-.035.088-.052a7.121,7.121,0,0,0,3.943-4.933,5.143,5.143,0,0,0,.387-1.911,4.621,4.621,0,0,0-.085-.872c.009-.135.016-.29.016-.46,0-.3-.015-.6-.032-.907-.006-.1-.012-.2-.016-.295a6.1,6.1,0,0,0,.082-.966,5.288,5.288,0,0,0-.056-.757c.006-.069.014-.147.02-.213a11.564,11.564,0,0,0,.071-1.167,7.12,7.12,0,0,0-.138-1.2,4.2,4.2,0,0,0-.22-2.652c-.038-.094-.079-.187-.124-.278a5.918,5.918,0,0,0-5.434-3.338c-.113-.007-.23-.014-.353-.025l-.039-.006a7.567,7.567,0,0,0-1.136-.1h-.085q-.13,0-.261.009l-2.131.139c-.087.006-.173.015-.259.026a6.117,6.117,0,0,0-.677.129q-.341.043-.646.114a6.5,6.5,0,0,0-3.185-.9Z" fill="#fff"/><path d="M924.12,944.475a2.128,2.128,0,0,1-2.087-1.445,8.965,8.965,0,0,1-4.287,1.321,2.7,2.7,0,0,1-2.818-2.542,2.617,2.617,0,0,1,.59-1.625,3.444,3.444,0,0,1-.846-2.279,2.478,2.478,0,0,1,.792-1.791,4.294,4.294,0,0,1-.2-1.384v-.293a2.844,2.844,0,0,1,.385-1.449,4.008,4.008,0,0,1-.4-1.974,2.718,2.718,0,0,1,.679-1.769l1.5-1.683a2.466,2.466,0,0,1,1.818-.81,5.423,5.423,0,0,1,1.475.279l.182.052a2.342,2.342,0,0,1,1.045.6c.094-.053.194-.1.3-.15a2.316,2.316,0,0,1,2.161-1.433,2.365,2.365,0,0,1,1.153.294,2.73,2.73,0,0,1,1.386,1.424c.06.047.12.1.181.152.187-.163.378-.309.563-.443a3.608,3.608,0,0,1,2.29-.823,2.011,2.011,0,0,1,.678.118,2.293,2.293,0,0,1,1.431,1.552,2.972,2.972,0,0,1,1.443,2.514,2.942,2.942,0,0,1-.518,1.564,4.506,4.506,0,0,1,.637,2.122,2.541,2.541,0,0,1-.716,1.779,2.346,2.346,0,0,1,.511,1.442,2.766,2.766,0,0,1-.614,1.757,2.892,2.892,0,0,1,1.126,2.162c0,1.78-1.98,2.712-3.04,2.712a2.666,2.666,0,0,1-.441-.031h0a6.2,6.2,0,0,1-3.72-2.139c-.08,0-.16-.01-.238-.018C926.211,943.371,925.543,944.475,924.12,944.475Z" fill="#fff"/><path d="M924.41,928.1a.369.369,0,0,1,.188.046c.409.217.511.294.511.6,0,.062-.017.155-.017.248.341.217.937.465.937.9,0,.28-.2.326-.46.326-.2,0-.409-.109-.579-.109-.511,0-1.023.093-1.534.093-.222,0-.409-.17-.647-.17-.052,0-.154,0-.154-.062,0-1.1,1.414-.279,1.414-1.518a.319.319,0,0,1,.341-.356m5.573.6a.356.356,0,0,1,.205.372c0,.867-1.6.511-1.6,1.6a.257.257,0,0,0,.153.264c.137.061.274.092.409.154.239.124.426.356.716.4.972-.232.2-1.456.955-1.456.426,0,.716.526.716.852,0,.6-1.262,1.688-1.841,1.688a.985.985,0,0,1-.358-.124c-.613.14-.853.991-1.142,1.441.119.5,1.006.5,1.432.5a1.007,1.007,0,0,0,.562-.186.513.513,0,0,0,.035-.17c0-.295-.29-.557-.29-.8,0-.31.358-.388.63-.388.6,0,1.091,1.286,1.091,1.735a.521.521,0,0,1-.171.4,8.686,8.686,0,0,1-2.641.882c-.716,0-1.551-.061-1.551-.9a5.8,5.8,0,0,1,.954-2.586c-.272-.279-.7-.542-.7-.945a2.541,2.541,0,0,1,1.311-2.277,1.674,1.674,0,0,1,1.125-.449m-10.737.046a6.022,6.022,0,0,1,1.142.264c.171.046.221.185.306.309,0,.047.018.078.018.124a.292.292,0,0,1-.1.217c-.63.526-1.107-.046-1.96,1.007-.136.17-.29.294-.29.526a.679.679,0,0,0,.069.264c.477.124.511.48,1.142.48.239-.108.255-.34.255-.6v-.17c0-.311.034-.573.461-.573h.562c.392,0,.648.79.648,1.068,0,.357-.29.9-.75.9-.58.821-1.79,1.023-2.3,1.875.1.232.324.262.563.262a3.008,3.008,0,0,0,1.226-.278c0-.155-.016-.278-.016-.4,0-.341.085-.542.681-.542.273,0,.7.727.7.944a.4.4,0,0,1-.051.2c-.409.914-.665.821-1.6,1.084a5.149,5.149,0,0,1-1.022.325c-.136,0-.307-.046-.443-.061-1.159-.109-1.21-.388-1.21-1.24v-.293c0-.775.9-1.007,1.227-1.626-.682-.868-1.244-.063-1.244-1.8a.744.744,0,0,1,.153-.418l1.517-1.7a.44.44,0,0,1,.324-.14m3.494,2.014c.426,0,.426,1.038,1.159,1.038.035,0,.085-.016.12-.016a.42.42,0,0,1,.323-.093c.171,0,.358.031.477.031.631,0,.734-.7,1.023-.7.494,0,.512,1.053.6,1.363a.959.959,0,0,1,.051.31c0,.154-.067.325-.067.48,0,.2.085.4.085.6a2.86,2.86,0,0,1-.1.526c-.17.822-.51.713-1.073,1.193a2.729,2.729,0,0,0-.614.945c.034.247.187.635.528.635,1.364,0,2.728.217,4.091.341.068,0,.137.015.205.015.221,0,.426-.031.647-.031h.222c.409,0,1.039.031,1.039.387,0,.744-.988,1.115-1.67,1.115-.546,0-2.369-.356-3.016-.465a3.052,3.052,0,0,0-.444-.138.282.282,0,0,0-.187.077.53.53,0,0,0,.153.372c.119.138.307.217.426.355a3.8,3.8,0,0,1,.58.9c0,.015-.034.078-.034.092a.481.481,0,0,1-.375.156c-.7,0-1.4-.605-2.028-.852a.649.649,0,0,0-.085.357c0,.108.016.231.016.355,0,.372-.153,2.355-.665,2.355-.561,0-.494-2.184-.511-2.587l-.375-.356c-.272.217-.665.233-.937.434-.426.294-.579.851-1.006,1.161a7.127,7.127,0,0,1-3.545,1.224c-.324,0-.818-.2-.818-.542a.781.781,0,0,1,.494-.635c.307-.124.648-.078.955-.171.46-.139.92-.278,1.363-.434.188-.061.392-.077.579-.154a4.4,4.4,0,0,0,1.125-.991,1.786,1.786,0,0,0,.478-1.038,1.84,1.84,0,0,1-1.329.139c-.427-.078-1.091-.062-1.091-.62a.442.442,0,0,1,.341-.371,14.266,14.266,0,0,1,3.341-.465.88.88,0,0,0,.375-.619c0-.589-.512-.666-.9-.976a3.493,3.493,0,0,1-.511-1.611c0-.309.05-.6.068-.914s.034-2.183.528-2.183m1.329,3.949c.41,0,1.176-.124,1.3-.542a1.045,1.045,0,0,0,.033-.31v-.217c0-.464-.238-1.13-.851-1.13-.716,0-1.5.3-1.5,1.053s.119,1.146,1.022,1.146m-6.817,2.68a5.241,5.241,0,0,1,1.193.263c.154.046.188.217.188.341a2.712,2.712,0,0,1-1.211,1.037c-.545,0-.75-.743-.75-1.131a.584.584,0,0,1,.58-.51m11.078,2.942a9.331,9.331,0,0,1,3.29.806.935.935,0,0,1,.341.573c0,.309-.733.712-1.04.712a.414.414,0,0,1-.238-.046.944.944,0,0,1-.2.015c-.563,0-2.4-1.286-2.4-1.8a.279.279,0,0,1,.255-.264M924.41,924.1a4.328,4.328,0,0,0-2.888,1.078l-.076-.022-.169-.048a7.14,7.14,0,0,0-2.031-.358,4.456,4.456,0,0,0-3.259,1.421c-.018.02-.035.04-.053.059l-1.512,1.7a4.738,4.738,0,0,0-1.17,3.083,7.083,7.083,0,0,0,.246,1.935,4.846,4.846,0,0,0-.229,1.488v.293a7.1,7.1,0,0,0,.051.865,4.422,4.422,0,0,0-.648,2.31,5.54,5.54,0,0,0,.526,2.385,4.452,4.452,0,0,0-.27,1.519,4.692,4.692,0,0,0,4.818,4.542,10.066,10.066,0,0,0,3.675-.789,4.058,4.058,0,0,0,2.7.913,4.165,4.165,0,0,0,3.013-1.243,7.058,7.058,0,0,0,3.211,1.163,4.957,4.957,0,0,0,.577.033c2.06,0,5.04-1.678,5.04-4.712a4.521,4.521,0,0,0-.738-2.458,4.8,4.8,0,0,0,.226-1.461,4.268,4.268,0,0,0-.217-1.3,4.609,4.609,0,0,0,.422-1.923,6.032,6.032,0,0,0-.414-2.105,4.522,4.522,0,0,0,.295-1.581,5.061,5.061,0,0,0-1.788-3.778,4.256,4.256,0,0,0-2.409-2.169,3.985,3.985,0,0,0-1.355-.237,5.334,5.334,0,0,0-2.488.587,5.986,5.986,0,0,0-.962-.646,4.37,4.37,0,0,0-2.123-.545Z" fill="#fff"/><path d="M918.905,959.669a2.922,2.922,0,0,1-.346-.028c-.042,0-.084-.011-.125-.019-2.131-.382-3.455-2.352-3.455-5.143,0-.33.02-.652.041-.976.01-.172.022-.344.028-.519l.013-.592a16.7,16.7,0,0,1,.238-2.945c-.013-.146-.013-.268-.013-.358a17.345,17.345,0,0,1,.585-2.739,3.2,3.2,0,0,1,.507-.9c0-.021,0-.043,0-.064,0-2.088,2.536-2.848,3.313-3.031a5.194,5.194,0,0,1,1.046-.121c.091,0,.183,0,.274-.016a13.187,13.187,0,0,1,2.241-.211,3.449,3.449,0,0,1,.438.03c.437.021.839.023,1.245.026a12.949,12.949,0,0,1,4.8.675,2.689,2.689,0,0,1,1.567,1.966,2.958,2.958,0,0,1,1.1,1.033l.094.132a4.066,4.066,0,0,1,.576,1.007,7.432,7.432,0,0,1,.448,2.66,4.549,4.549,0,0,0,.044.5,7.9,7.9,0,0,1,.075.981,18.351,18.351,0,0,1-.121,1.856c-.044.428-.085.837-.1,1.218a2.476,2.476,0,0,1,.064.551,3.076,3.076,0,0,1-.084.692,2.834,2.834,0,0,1-1.264,2.025,4.335,4.335,0,0,1-.294.591,3.131,3.131,0,0,1-2.562,1.416c-.073.007-.146.011-.218.025a6.165,6.165,0,0,1-1.157.131c-.893,0-1.746-.079-2.571-.155-.768-.071-1.492-.139-2.2-.139-.023,0-.078.018-.135.029a4.462,4.462,0,0,1-.853.1,3.576,3.576,0,0,1-.43-.03H921.7a8.912,8.912,0,0,0-2.125.249A2.718,2.718,0,0,1,918.905,959.669Z" fill="#fff"/><path d="M923.251,944.009c.137,0,.256.031.393.031,1.772.077,3.681-.108,5.351.558a.712.712,0,0,1,.359.6c0,.187-.529.542-.716.542-.512,0-1.006-.185-1.5-.185-.546,0-.478.9-.546,1.223l.494,1.038c.546.093,1.705.109,2.1.45a2.166,2.166,0,0,1-.035.339c-.1.589-1.925.063-2.25.961a1.679,1.679,0,0,0-.067.573c0,.449-.222.759-.222,1.115,0,.186.051.356.051.542,0,1.193-1.006,2.85-2.472,2.85-.647,0-1.414-.2-1.414-.914a.514.514,0,0,1,.239-.51,2.162,2.162,0,0,1,.562-.124,3.777,3.777,0,0,0,1.5-.775c.511-.449.529-1.084.835-1.627a2.122,2.122,0,0,0-1.891-1.439,1.081,1.081,0,0,1-.921-.93c0-.79,1.517,0,2.165-1.1a4.647,4.647,0,0,0,.357-.805c0-1.022-.375-.651-1.022-1.037l-4.4.108a2.381,2.381,0,0,1-1.022.263c-.256,0-.8-.046-.8-.371,0-.528,1.312-.976,1.772-1.084.392-.094.785-.047,1.176-.11a11.465,11.465,0,0,1,1.926-.185m6.988,2.447c.273,0,.426.294.546.465a3.049,3.049,0,0,1,.409.65,5.545,5.545,0,0,1,.324,1.967c0,.5.119.991.119,1.486,0,1.1-.222,2.2-.222,3.285,0,.108.068.216.068.34a1.157,1.157,0,0,1-.034.247c-.221,1.007-.289.542-.869,1.163a5.2,5.2,0,0,0-.443.851c-.324.527-.92.418-1.466.527a4.352,4.352,0,0,1-.767.092c-1.6,0-3.17-.294-4.772-.294-.341,0-.664.124-.988.124-.12,0-.256-.031-.375-.031a11.057,11.057,0,0,0-2.676.31.82.82,0,0,1-.188.031c-.034,0-.085-.016-.119-.016-1.466-.262-1.807-2.059-1.807-3.174,0-.481.051-.945.068-1.425a16.58,16.58,0,0,1,.29-3.563,1.086,1.086,0,0,1-.051-.4,21.175,21.175,0,0,1,.477-2.091c.051-.14.239-.465.426-.465.358,0,.426.325.426.589,0,.217-.051.418-.068.635l-.358,7.326c.188.263.341.82.767.82,1.381,0,2.762-.294,4.142-.294h1.79q1.3,0,2.607.046c.409.016.818.109,1.228.109a1.955,1.955,0,0,0,1.244-.418l.137-1.983c.033-.542.187-1.068.187-1.61,0-.729-.068-2.571-.717-3.051-.1-.078-.187-.108-.187-.248,0-.124.068-.325.239-.325.357-.512.1-1.673.613-1.673m-9.033,1.486c.392,0,.767.047,1.159.047.2,0,.444.156.444.357,0,.588-2.438.883-2.95,1.052-.068.016-.068.032-.135.032a.307.307,0,0,1-.188-.093.723.723,0,0,1-.034-.186.388.388,0,0,1,.017-.139,1.549,1.549,0,0,1-.017-.28c0-.774.988-.79,1.636-.79h.068m.869,2.51a.361.361,0,0,1,.341.387c0,.65-.9,1.054-1.329,1.472-.256.232-.409.619-.835.619-.443,0-.648-.45-.648-.79,0-1.069,1.415-1.5,2.369-1.672.034,0,.068-.016.1-.016m1.176-10.443a15.108,15.108,0,0,0-2.49.224l-.1,0a7.149,7.149,0,0,0-1.443.177c-2.754.649-4.5,2.248-4.8,4.339a5.141,5.141,0,0,0-.409.855c-.012.031-.023.062-.033.094a17.466,17.466,0,0,0-.693,3.387c0,.06,0,.136,0,.226a19.177,19.177,0,0,0-.228,3.039c0,.195-.007.391-.012.585,0,.131-.015.284-.025.436-.021.323-.045.689-.045,1.1,0,3.765,2,6.556,5.1,7.112q.087.015.177.027a4.153,4.153,0,0,0,.647.051,4.563,4.563,0,0,0,1.084-.133l.072-.017a6.873,6.873,0,0,1,1.543-.189,5.112,5.112,0,0,0,.54.029,6.234,6.234,0,0,0,1.18-.122c.564.011,1.179.068,1.825.128.829.077,1.769.164,2.755.164a7.9,7.9,0,0,0,1.477-.156l.09-.009A5.089,5.089,0,0,0,933.545,959q.105-.171.186-.327a4.91,4.91,0,0,0,1.625-2.919,4.977,4.977,0,0,0,.127-1.108,4.278,4.278,0,0,0-.056-.7c.017-.265.047-.562.078-.871a19.9,19.9,0,0,0,.132-2.057,9.927,9.927,0,0,0-.088-1.22c-.012-.1-.027-.194-.032-.291a9.4,9.4,0,0,0-.583-3.36,5.985,5.985,0,0,0-.828-1.466l-.055-.076a5.235,5.235,0,0,0-1.04-1.164,4.623,4.623,0,0,0-2.472-2.539l-.062-.026a14.744,14.744,0,0,0-5.526-.816c-.366,0-.73-.006-1.087-.02a5.238,5.238,0,0,0-.613-.037Z" fill="#fff"/></g></g><g id="Text"><path d="M279.878,666.919l-13.142.732,4.528-4.275-1.417-25.421-4.923-3.934,13.943-.778q7.776-.434,12.28,3.772c2.936,2.684,4.513,6.556,4.791,11.554.373,6.664-1.334,11.587-5.183,14.712C288.092,665.471,284.444,666.665,279.878,666.919Zm4.522,1.173-3.38.434-11.043.617-1.293-2.094,12.154-.678c7.837-.436,12.666-3.739,14.431-9.841a19.522,19.522,0,0,0,.556-6.654c-.3-5.43-1.636-9.379-3.94-11.849a10.988,10.988,0,0,0-1.244-1.23l.867-1.1c4.109,2.681,6.332,7.014,6.672,13.122a25.261,25.261,0,0,1-.828,8.464A15.007,15.007,0,0,1,284.4,668.092Zm-6.827-31.434.925-.052a10.4,10.4,0,0,1,5.684.921,30.132,30.132,0,0,1,4.506,4.2c-2.617-1.4-4.145-2.182-4.653-2.4a11.468,11.468,0,0,0-4.935-.838l-.926.051-.247.014,1.334,23.94c3.76-.27,6.248-1.152,7.468-2.583,1.451-1.751,2.05-5.436,1.744-10.929-.32-5.737-1.259-9.274-2.762-10.675-1.5-1.341-4.687-1.907-9.626-1.693l.018.309A6.863,6.863,0,0,1,277.573,636.658Z" fill="#231f20"/><path d="M324.137,660.306l-2.361-5.686c-.524.586-1.8,2.08-3.711,4.478l-1.731-1.08a54.308,54.308,0,0,1,4.4-5.507l-.212-.483,1.251.239c-1.059.989-1.769,1.585-2.064,1.849-.641.715-1.792,2.266-3.461,4.526a31.979,31.979,0,0,0-4.183-5.09l-1.264,5.084a3.422,3.422,0,0,0-.123,1.12,4.472,4.472,0,0,0,1.776,3c.713.579,2.33,1.85,4.729,3.759l-17.4.969-1.294-2.093,13.143-.733a14.166,14.166,0,0,1-2.2-1.8,4.235,4.235,0,0,1-.95-2.608,8.561,8.561,0,0,1,.193-2.053l1.5-6.4-.391-.349,1.218-.378c-.572,1.95-1.394,4.968-2.343,9.044-.035.5-.076.871-.065,1.056a2,2,0,0,0,.627,1.264c.456.408,2.416,1.165,5.951,2.392l-18.7,1.042a23,23,0,0,0,6.93-6.7,47.639,47.639,0,0,0,3.8-9.5,3.449,3.449,0,0,0-2.585-.848l-1.543.086,2.58-5.9c.766.391,1.849.95,3.193,1.741l.109-.253.106.8a5.793,5.793,0,0,0-3.126-1.683l.726-2.515a21.667,21.667,0,0,1,2.75,1.58l.065.057,2.693-7.206-3.131-3.972,13.637-.76-2.855,4.306,4.444,8.664.178-.132-.2.877-4.682-9.58,2.371-4.094,2.53-.141-2.488,4.225,3.888,7.58a13.2,13.2,0,0,0,2.424-3.168,23.773,23.773,0,0,0,1.389,4.936,30.783,30.783,0,0,0,2.668,4.556,12.226,12.226,0,0,0-3.569-.73,7.566,7.566,0,0,0-2.385.5l5.038,11.541,5.33,3.478-16.659.929Zm-12.466-12.674,2.975-8.77-.419-.9,1.418-.079-3.43,9.538q1.373,1.314,3.939,4.05l.059-.065-.01.929-1.454-1.652A31.568,31.568,0,0,0,311.671,647.632Zm2.5-.7c.724.764,1.714,1.884,3.1,3.356l1.7-1.644-3.042-6.824Zm6.653,17.208,14.377-.8-3.805-2.76L325.875,648.2a33.483,33.483,0,0,1,3.75-.456l.988-.055a20.463,20.463,0,0,1-2.562-7.1l2.45,1.782a59.7,59.7,0,0,0,4.216,7.873,9.879,9.879,0,0,0-2.808-.4,14.106,14.106,0,0,1-1.792.038l-1.111.061,4.294,9.293,7.634,5.95-18.45,1.028Z" fill="#231f20"/><path d="M344.7,633.969c-.839.48-1.137,2.911-.895,7.23l-6.2-11.229,37.146-2.071-4.907,11.911c-.241-4.32-.869-6.7-1.822-7.141-.7-.333-2.56-.414-5.521-.249l-3.024.169,1.441,25.852,4.353,3.719-15.178.846,4.465-4.273-1.336-24-2.839.159a9.714,9.714,0,0,0-3.8.646c-.716.473-1,1.974-.869,4.38l-2.222.124c-.2-3.579.547-5.725,2.3-6.441A2.688,2.688,0,0,0,344.7,633.969Zm20.617.089-4.01.223,1.32,23.7,5.764,5.681-14.686.819-1.787-2.067,11.662-.649-2.937-2.746-1.487-26.656,4.38-.244a19.333,19.333,0,0,1,4.029.085,2.4,2.4,0,0,1,1.546,1.09,24.738,24.738,0,0,1,2.373,4.819c-2.314-2.656-3.627-4-4-4.047A15.126,15.126,0,0,0,365.319,634.058Zm7.237,4.362-1.91-.945a32.438,32.438,0,0,1,3.944-9.2l1.323,1.535a27.769,27.769,0,0,0-1.88,4C373.605,635.02,373.131,636.531,372.556,638.42Z" fill="#231f20"/><path d="M379.524,647.935l-1.617-1.272a13.946,13.946,0,0,1,3.122-1.721,4.393,4.393,0,0,1,.86-.11l-.024-.433.72.7a4.1,4.1,0,0,0-.806-.018,3.773,3.773,0,0,0-2.714,1.267c-.175.194-.744,1.093-1.768,2.7.153-3.908.765-6.233,1.777-6.97a4.866,4.866,0,0,1,2.612-.889l-.523-9.379-4.987-3.992,30.3-1.688a13.877,13.877,0,0,0-3.963,5.544,24.3,24.3,0,0,0-.3,6.886c-1.9-4.041-3.393-6.434-4.479-7.054s-3.513-.856-7.277-.646l-2.962.165.546,9.811.124-.007-.561-10.058,5.307-.3a19.905,19.905,0,0,1,4.09.081,2.528,2.528,0,0,1,1.549,1.151,27.466,27.466,0,0,1,2.089,5.269c-2.084-2.979-3.347-4.517-3.72-4.559a16.266,16.266,0,0,0-2.166,0l-4.937.275.447,8.022,3.764-.21,4.113-6.171.867,15.549-4.773-5.676-5.986.334.663,11.908.124-.007-.67-12.031,6.973-.389,1.717,1.947-6.479.361.557,10,2.53-.14a11.92,11.92,0,0,0,4.772-1.009c1.5-.765,2.84-3.44,3.892-7.893a27.206,27.206,0,0,0,1.753,7.022,53.605,53.605,0,0,0,4.142,5.463l-30.049,1.674,4.4-4.269L382,646.745A8.1,8.1,0,0,0,379.524,647.935Zm2.2,14.979-1.909-2.06,27.457-1.53.113-.192a15.79,15.79,0,0,1-4.488-8.353l2.293,1.171a21.6,21.6,0,0,0,4.845,6.973l-1.471,2.5ZM397.827,635.4l2.3,2.347.723,12.958-2.275-1.915Zm5.312,1.994-1.722-.894a11.3,11.3,0,0,1,1.028-4.885,16.935,16.935,0,0,1,2.608-4.293l1.327,1.6a12.455,12.455,0,0,0-2.077,3.829C404.148,633.316,403.741,634.888,403.139,637.4Z" fill="#231f20"/><path d="M412.811,655.487l-1.41-25.3-4.868-4.061,14.809-.825-3.654,4.413,1.4,25.051.371-.021-.7.782-1.451-26.039,3.074-3.7,1.8,1.139-2.742,3,1.379,24.742,2.961-.165c4.444-.247,6.782-2.73,6.956-7.381l1.48-.082c.449,2.512,2.141,6.192,5.137,11.1l-29.062,1.62Zm-.979,5.749-1.972-2.056,26.78-1.492.108-.254a24.048,24.048,0,0,1-4.759-9.885l2.633,1.709a17.847,17.847,0,0,0,4.715,7.97l-1.466,2.557Z" fill="#231f20"/><path d="M441.289,644.492l-1.617-1.271a13.924,13.924,0,0,1,3.121-1.721,4.393,4.393,0,0,1,.86-.11l-.023-.433.72.7a4.093,4.093,0,0,0-.806-.017,3.774,3.774,0,0,0-2.714,1.266c-.176.2-.744,1.094-1.768,2.7.153-3.908.765-6.232,1.777-6.969a4.859,4.859,0,0,1,2.611-.889l-.522-9.379-4.988-3.992,30.3-1.689a13.9,13.9,0,0,0-3.963,5.544,24.35,24.35,0,0,0-.3,6.887c-1.9-4.042-3.392-6.434-4.478-7.055s-3.514-.855-7.277-.645l-2.962.165.546,9.811.124-.007-.561-10.058,5.306-.3a20.06,20.06,0,0,1,4.091.081,2.525,2.525,0,0,1,1.548,1.152,27.466,27.466,0,0,1,2.089,5.269c-2.084-2.979-3.346-4.517-3.719-4.559a16.093,16.093,0,0,0-2.166,0l-4.938.275.446,8.021,3.764-.209,4.113-6.171.868,15.548L456,640.764l-5.984.334.663,11.908L450.8,653l-.67-12.031,6.973-.389,1.716,1.946-6.479.362.556,10,2.531-.141a11.9,11.9,0,0,0,4.772-1.009c1.5-.764,2.842-3.439,3.892-7.892a27.141,27.141,0,0,0,1.754,7.021,53.231,53.231,0,0,0,4.141,5.463L439.937,658l4.4-4.27L443.76,643.3A8.075,8.075,0,0,0,441.289,644.492Zm2.2,14.98-1.91-2.06,27.457-1.53.113-.193a15.806,15.806,0,0,1-4.489-8.352l2.294,1.172a21.584,21.584,0,0,0,4.846,6.971l-1.471,2.5Zm16.106-27.512,2.3,2.347.722,12.958-2.274-1.915Zm5.311,1.994-1.722-.894a11.3,11.3,0,0,1,1.028-4.885,16.929,16.929,0,0,1,2.608-4.293l1.328,1.6a12.442,12.442,0,0,0-2.078,3.83C465.913,629.875,465.506,631.445,464.9,633.954Z" fill="#231f20"/><path d="M487.1,655.8a38.266,38.266,0,0,1-9.17-1.283,11.533,11.533,0,0,0-2.934-.457,4.307,4.307,0,0,0-3.071,1.535l-1.171-.989a73.268,73.268,0,0,0,5.192-12.357,22.027,22.027,0,0,0,2.291,6.681,8.534,8.534,0,0,0,6.134,3.432,8.806,8.806,0,0,0,2.169.066c4.751-.265,7.061-2.127,6.865-5.644a4.813,4.813,0,0,0-3.6-4.566q-6.279-1.043-9.195-1.715c-5.388-1.187-8.217-4.185-8.481-8.936a9.04,9.04,0,0,1,3.039-7.658,13,13,0,0,1,8.069-2.926,23.606,23.606,0,0,1,7.225.836,6.125,6.125,0,0,0,2.051.133,14.586,14.586,0,0,0,5.107-1.646,96.54,96.54,0,0,0-5.843,12.89,25.2,25.2,0,0,0-1.443-4.809A6.559,6.559,0,0,0,486.809,625a6.98,6.98,0,0,0-3.058-.448c-3.271.181-5.446,2.223-5.271,5.37l.035.616a4.091,4.091,0,0,1,.161.672c.319,1.281,1.854,2.187,4.673,2.772,1.625.281,4.128.76,7.442,1.379a9.475,9.475,0,0,1,5.879,3.325A10.5,10.5,0,0,1,499,644.866a9.971,9.971,0,0,1-.172,2.485C497.571,652.62,493.705,655.435,487.1,655.8Zm8.281-.214a16.1,16.1,0,0,1-7.67,2.285,16.621,16.621,0,0,1-4.655-.235l-.628-.152a25.489,25.489,0,0,0-6.869-1.1,5.792,5.792,0,0,0-2.613.887l-1.084-1.671a6.708,6.708,0,0,1,3.822-1.389,15.081,15.081,0,0,1,3.983.4l6.065,1.086c7.466-.416,11.765-3.255,13.018-8.524a7.626,7.626,0,0,0,.168-1.433l.006-.991a6.965,6.965,0,0,0-1.333-3.948,44.231,44.231,0,0,0-6.231-6.277c1.273.611,2.547,1.282,3.88,1.888a14.592,14.592,0,0,1,4,2.872,8.731,8.731,0,0,1,1.957,5.153,12.271,12.271,0,0,1-5.815,11.155Zm-8.406-12.033c-6.953-1.471-10.791-2.618-11.578-3.379a2.135,2.135,0,0,1-.548-.959l-.583-2.691,2.2,1.672a3.254,3.254,0,0,0,.976.874l1.264.487a27.529,27.529,0,0,0,2.7.592l7.319,1.388c2.574.66,4.309,1.8,5.081,3.431l-.5,2.069A11.493,11.493,0,0,0,486.978,643.556Zm-9.544,2.016,1.789-.1a10.84,10.84,0,0,0,2.356,4.511,22.871,22.871,0,0,0,4.546,2.717l-2.122.8C479.865,652.556,477.678,649.953,477.434,645.572Zm6.674-19.062q-3.7.2-3.527,3.352a3.434,3.434,0,0,0,.851,1.934,36.033,36.033,0,0,0,4.906,3.625,34.636,34.636,0,0,1-5.282-1.5,4.667,4.667,0,0,1-2.829-4.112,4.783,4.783,0,0,1,2.347-4.526,6.284,6.284,0,0,1,3.225-.985,8.24,8.24,0,0,1,5.536,1.61,9.518,9.518,0,0,1,2.59,4.25l-2.181-1.363A7.763,7.763,0,0,0,484.108,626.51Zm9.407,6.653L492,631.453c1.031-2.6,1.74-4.3,2.121-5.255a25.406,25.406,0,0,1,2.82-4.923l1.086,1.735c-.547,1.268-1.374,3.109-2.411,5.581C494.736,630.62,494.016,632.146,493.515,633.163Z" fill="#231f20"/><path d="M518.263,654.066a38.189,38.189,0,0,1-9.17-1.284,11.5,11.5,0,0,0-2.934-.455,4.316,4.316,0,0,0-3.071,1.533l-1.17-.987a73.209,73.209,0,0,0,5.191-12.358,22.042,22.042,0,0,0,2.291,6.68,8.539,8.539,0,0,0,6.134,3.434,8.878,8.878,0,0,0,2.17.065c4.75-.264,7.061-2.128,6.864-5.644a4.814,4.814,0,0,0-3.6-4.566q-6.281-1.043-9.195-1.715c-5.388-1.186-8.216-4.185-8.481-8.936a9.043,9.043,0,0,1,3.038-7.658,13.013,13.013,0,0,1,8.069-2.925,23.637,23.637,0,0,1,7.226.835,6.121,6.121,0,0,0,2.05.133,14.565,14.565,0,0,0,5.107-1.647,96.7,96.7,0,0,0-5.842,12.892,25.169,25.169,0,0,0-1.444-4.81,6.552,6.552,0,0,0-3.531-3.393,7,7,0,0,0-3.058-.449c-3.27.182-5.447,2.222-5.271,5.37l.034.616a4.115,4.115,0,0,1,.161.672c.32,1.282,1.854,2.187,4.673,2.772,1.625.281,4.129.761,7.442,1.38a9.473,9.473,0,0,1,5.879,3.324,10.491,10.491,0,0,1,2.326,6.184,10.024,10.024,0,0,1-.171,2.485C528.731,650.884,524.866,653.7,518.263,654.066Zm8.282-.213a16.113,16.113,0,0,1-7.671,2.285,16.685,16.685,0,0,1-4.654-.236l-.628-.151a25.519,25.519,0,0,0-6.87-1.1,5.793,5.793,0,0,0-2.612.889l-1.085-1.672a6.716,6.716,0,0,1,3.823-1.389,15.059,15.059,0,0,1,3.984.4l6.064,1.085c7.465-.416,11.764-3.254,13.018-8.523a7.394,7.394,0,0,0,.167-1.434l.006-.99a6.956,6.956,0,0,0-1.333-3.949,44.073,44.073,0,0,0-6.231-6.276c1.273.61,2.547,1.281,3.88,1.888a14.53,14.53,0,0,1,4,2.872,8.714,8.714,0,0,1,1.958,5.152,12.277,12.277,0,0,1-5.815,11.156Zm-8.407-12.034c-6.952-1.47-10.791-2.617-11.577-3.379a2.122,2.122,0,0,1-.548-.96l-.583-2.689,2.2,1.672a3.245,3.245,0,0,0,.977.873l1.264.487a27.529,27.529,0,0,0,2.7.592l7.318,1.388c2.574.661,4.31,1.8,5.081,3.43l-.5,2.07A11.492,11.492,0,0,0,518.138,641.819Zm-9.544,2.016,1.79-.1a10.867,10.867,0,0,0,2.355,4.513,22.871,22.871,0,0,0,4.546,2.717l-2.121.8C511.025,650.818,508.838,648.216,508.594,643.835Zm6.675-19.063q-3.7.207-3.528,3.354a3.443,3.443,0,0,0,.852,1.933,36.139,36.139,0,0,0,4.905,3.626,34.735,34.735,0,0,1-5.281-1.5,4.665,4.665,0,0,1-2.829-4.113,4.782,4.782,0,0,1,2.347-4.525,6.271,6.271,0,0,1,3.224-.984,8.239,8.239,0,0,1,5.537,1.61,9.527,9.527,0,0,1,2.589,4.25l-2.181-1.363A7.768,7.768,0,0,0,515.269,624.772Zm9.407,6.655-1.519-1.71c1.031-2.6,1.741-4.306,2.121-5.255a25.392,25.392,0,0,1,2.821-4.923l1.087,1.733c-.548,1.27-1.375,3.11-2.413,5.582C525.9,628.884,525.177,630.409,524.676,631.427Z" fill="#231f20"/><path d="M550.963,622.226l-2.657-2.142a23.468,23.468,0,0,1,12.555-4.6c10-.557,15.184,2.558,15.559,9.284l.041.74c.217,3.888-1.919,6.668-6.344,8.339l-.2-1.413c.251.047.563.093.937.134a2.87,2.87,0,0,0,.633.273,5.957,5.957,0,0,0,2.883-1.584,6.56,6.56,0,0,0,1.94-5.183l-.069-1.234a3.25,3.25,0,0,1-.162-.672,12.367,12.367,0,0,0-2.593-5.426l.982-1.293a12.584,12.584,0,0,1,4.117,8.374q.315,5.646-4.368,8.229a8.163,8.163,0,0,1,4.724,7.039,8.389,8.389,0,0,1-2.473,6.7,10.134,10.134,0,0,1-6.891,2.983l-21.657,1.207,4.466-4.272-.519-9.316a22.711,22.711,0,0,0-2.721,1.141l-1.087-1.734a18.372,18.372,0,0,1,3.691-1.506c-.613.1-2.327.439-5.08,1.026l1.658-4.673c.806.018,1.242.055,1.427.044a10.428,10.428,0,0,0,1.785-.161Zm18.459,30.227-17.957,1-1.786-2.066,20.732-1.156a23.8,23.8,0,0,0,3.182-.673,8.625,8.625,0,0,0,2.817-1.642c1.59-1.45,2.313-4.028,2.1-7.792a5.638,5.638,0,0,0-2.458-4.134l.325-1.936c2.746,1.517,4.152,3.42,4.279,5.7.024.432.206,1.474.224,1.782a10.114,10.114,0,0,1-1.172,5.638C577.911,650.434,574.48,652.171,569.422,652.453Zm-7.244-33.328a7.489,7.489,0,0,1,5.342,1.436,15.327,15.327,0,0,1,3.288,4.582l-2.931-1.508c-1.094-1.858-2.939-2.745-5.469-2.605a7.234,7.234,0,0,0-3.341,1.116l.554,9.933,3.948-.22c.43-.086.734-.166.919-.175a10.982,10.982,0,0,0,3.74-1.756,4.307,4.307,0,0,0,1.338-3.726c-.2-3.517-1.683-5.786-4.525-6.8a8.541,8.541,0,0,0-3.239-.377,8.351,8.351,0,0,0-4.549,1.679l.007.122A8.427,8.427,0,0,1,562.178,619.125Zm7.36,17.663a8.3,8.3,0,0,0-4.089-1.2,4.441,4.441,0,0,0-1.237.007c-.557.031-1.855.042-2.163.058l-3.949.221.667,11.97.432-.025-.7.782-.729-13.081,4.812-.267a14.165,14.165,0,0,1,4.726.355,6.778,6.778,0,0,1,3.019,2,54.442,54.442,0,0,1,5.047,7.27c-4.341-4.586-7.015-7.037-7.96-7.355a14.471,14.471,0,0,0-4.845-.287l-2.591.144.578,10.365.987-.055a30.6,30.6,0,0,0,5.17-.535,5.531,5.531,0,0,0,3.978-3.007,5.789,5.789,0,0,0,.525-2.813,3.03,3.03,0,0,0-.111-.861A4.683,4.683,0,0,0,569.538,636.788Z" fill="#231f20"/><path d="M607.662,644.5l-2.359-5.687c-.525.587-1.8,2.08-3.712,4.479l-1.731-1.08a54.084,54.084,0,0,1,4.4-5.507l-.212-.482,1.251.238c-1.06.989-1.769,1.585-2.065,1.849-.64.715-1.792,2.266-3.46,4.526a32.088,32.088,0,0,0-4.183-5.09l-1.264,5.084a3.477,3.477,0,0,0-.123,1.12,4.472,4.472,0,0,0,1.776,3c.712.579,2.331,1.85,4.728,3.759l-17.4.97-1.293-2.094,13.142-.732a14.36,14.36,0,0,1-2.2-1.8,4.25,4.25,0,0,1-.95-2.609,8.621,8.621,0,0,1,.194-2.053l1.5-6.4-.39-.349,1.216-.378c-.571,1.951-1.394,4.968-2.342,9.043-.035.5-.076.873-.066,1.057a2,2,0,0,0,.627,1.264c.457.408,2.417,1.165,5.951,2.392L580,650.069a23.007,23.007,0,0,0,6.93-6.7,47.736,47.736,0,0,0,3.8-9.5,3.442,3.442,0,0,0-2.584-.848l-1.542.086,2.579-5.9c.765.391,1.848.95,3.191,1.741l.11-.253.107.8a5.793,5.793,0,0,0-3.126-1.683l.727-2.516a21.884,21.884,0,0,1,2.748,1.581l.066.057,2.692-7.206-3.13-3.972L606.2,615l-2.854,4.307,4.444,8.664.179-.133-.2.877-4.68-9.58,2.37-4.094,2.529-.142-2.486,4.225,3.887,7.581a13.183,13.183,0,0,0,2.423-3.168,23.849,23.849,0,0,0,1.389,4.937,30.959,30.959,0,0,0,2.669,4.555,12.266,12.266,0,0,0-3.569-.73,7.573,7.573,0,0,0-2.386.506l5.038,11.541,5.331,3.477-16.66.929ZM595.2,631.83l2.977-8.769-.421-.906,1.418-.079-3.43,9.537q1.374,1.315,3.94,4.051l.058-.064-.009.928-1.454-1.652A31.683,31.683,0,0,0,595.2,631.83Zm2.5-.7c.724.764,1.715,1.885,3.1,3.355l1.7-1.642-3.043-6.825Zm6.654,17.208,14.377-.8-3.806-2.759L609.4,632.4a33.456,33.456,0,0,1,3.75-.456l.988-.054a20.455,20.455,0,0,1-2.562-7.1l2.451,1.782a59.533,59.533,0,0,0,4.215,7.873,9.916,9.916,0,0,0-2.808-.4,14.3,14.3,0,0,1-1.792.038l-1.112.062,4.294,9.292,7.634,5.95-18.447,1.028Z" fill="#231f20"/><path d="M622.056,635.1l1.771-4.864,1.913-.106a7.511,7.511,0,0,0,1.292-.134l-.663-11.909-2.535-2.149a18.1,18.1,0,0,1,11.692-4.551c5.369-.3,9.462.958,12.338,3.707a9.17,9.17,0,0,1,2.822,6.218,8.017,8.017,0,0,1-1.229,4.586,13.619,13.619,0,0,1-6.5,4.448,36.382,36.382,0,0,0,6.364,8.68,37.264,37.264,0,0,0,8.105,6.605,31.208,31.208,0,0,0-12.415,6.016,37.3,37.3,0,0,0-2.484-10.136,83.659,83.659,0,0,0-3.166-7.932,12.055,12.055,0,0,1-3.971.9l.467,8.391,5.64,5.691-14.623.814-1.787-2.066,11.724-.655-2.943-2.806-.626-11.23q1.755-.191,5.153-.845l-.271-.417.885.322a40.1,40.1,0,0,1-5.441,1.23l.578,10.367,4.536,3.647-15.365.856,4.475-4.148-.434-7.776a12.653,12.653,0,0,0-2.55.886l-1.561-1.338c1.142-.619,2.044-1.1,2.709-1.387l.242-.077C625.647,634.032,624.307,634.416,622.056,635.1Zm12.813-18.848c.984-.117,1.725-.158,2.218-.186,2.839-.158,4.974.4,6.472,1.743l-.925,1.166a8.428,8.428,0,0,0-4.882-.965c-.433.024-.926.052-1.6.151-.861.109-1.416.14-1.662.153l.6,10.676c5.2-1.1,8.055-3.173,8.561-6.3a5.534,5.534,0,0,0,.113-1.306c-.228-4.074-2.871-5.968-7.871-5.75a7.733,7.733,0,0,0-3.237.8C633.084,616.411,633.824,616.369,634.869,616.25ZM648.3,651.771l-2.223-.991a47.494,47.494,0,0,1,10.157-5.455,40.509,40.509,0,0,1-13.478-15.279c5.652-1.862,8.4-4.677,8.188-8.565a7.389,7.389,0,0,0-1.842-4.168l-3.395-4.267c2.774,2.011,4.451,3.218,4.91,3.687a7.7,7.7,0,0,1,2.329,5.131c.231,4.135-2.134,7.238-7.029,9.367a34.176,34.176,0,0,0,5.8,7.538,36.572,36.572,0,0,0,9.482,6.9c-3.7,1.382-6,2.314-6.965,2.739A35.211,35.211,0,0,0,648.3,651.771Z" fill="#231f20"/><path d="M258.172,842.734l-8.42-151.063,28.964-1.614,8.42,151.063Zm115.682-6.447-.281-5.03-47.694,2.658.28,5.03-28.617,1.595-8.42-151.063,104.93-5.848,8.419,151.063Zm-6.921-124.182-47.695,2.659,1.682,30.177,47.694-2.658Zm3.18,57.062-47.695,2.658,1.962,35.208,47.695-2.658Z" fill="#231f20"/><path d="M451.385,831.966l-3.422-61.4c-13.692.938-24.791,1.557-24.791,1.557l-3.108-24.532,13.529-.754,4.854-6.533c-5.56-6.127-12.076-13.768-20.132-20.973l9.6-27.5c1.475,1.483,2.939,2.794,4.23,4.114a131.814,131.814,0,0,0,6.232-19.31l24.532,6.287c-4.931,14.541-9.814,23.686-14.515,29.863.935,1.166,2.978,3.487,3.913,4.653,8.187-15.417,13.224-28.052,13.224-28.052l22.1,12.514a211.044,211.044,0,0,1-23.561,42.371c2.428-.135,8.479-.821,11.071-1.139-.656-2.4-2.141-7.188-2.959-9.4l15.8-6.8c7.259,20.994,12.283,39.33,12.283,39.33l-19.241,7.508s-.329-2.764-.888-6.561l-4.509.252,3.509,62.958ZM423.9,822.711c3.341-14.975,2.508-36.153,2.054-44.305l-.193-3.468,18.953-.187.29,5.2c.56,10.06,1.479,32.8-.955,48.419Zm60.906.259s-1.527-24.272-6.223-46.105l18.335-5.023c5.6,22.479,9.22,46.807,9.22,46.807Zm27.7-24.335,5.2-.29c30.178-1.682,30.234-3.772,25.808-83.206l-27.577,1.537c-4.266,7.719-8.7,15.62-16.684,22.155l-17.3-23.22a101.4,101.4,0,0,0,20.054-42.871l28.54.15a104.359,104.359,0,0,1-3.313,15.5l42.493-2.369.329,5.895c6.592,118.284,6.006,132.758-46.372,135.677Zm2.426-15.793c-7.828-18.7-19.634-37.006-19.634-37.006l21.543-13.031s13.5,17.514,22.013,36Z" fill="#231f20"/><path d="M623.783,747.374c-18.291-12.9-30.963-18.63-30.963-18.63l15.287-22.251a235.19,235.19,0,0,1,30.018,17.291Zm99.209,69.455-.241-4.336-51.685,2.88.242,4.336-27.75,1.547L637,703.665l29.658-1.653-.454-8.152L634.99,695.6l-.164-2.95L624.9,708.168c-17.424-12.947-30.827-19.334-30.827-19.334L609.4,667.277a242.286,242.286,0,0,1,24.815,14.449l-.628-11.274,111.346-6.206,1.4,25.149-31.913,1.779.454,8.151,29.311-1.634,6.554,117.591Zm-126.93-11.193c13.051-28.043,18.171-57.9,18.171-57.9l26.019,14.207s-5.91,34.429-17.555,59.609Zm67.27-79.081,1.17,20.986a50.112,50.112,0,0,0,4.9-21.325Zm1.547,27.75.638,11.447,11.621-.648ZM723.8,781.292l-57.234,3.19.337,6.071,57.235-3.191Zm-1.285-23.066-13.354.744c-12.488.7-13.318-4.824-13.8-13.5l-1.15-20.639-4.682.261c-.007,18.615-2.711,29.379-7.875,39.758l41.1-2.291ZM692.4,692.4l-4.335.242.454,8.151,4.336-.241Zm28.17,30.963-6.069.339.474,8.5c.164,2.948,1.253,3.757,6.282,3.477Z" fill="#231f20"/><path d="M884.457,807.655l-9.474-17.044a86.046,86.046,0,0,1-25.194,19.325L827.25,795.708c24.675-9.9,40-25.194,45.616-36.816l-5.376.3a104.428,104.428,0,0,1-49.047,37.7L803.8,780.661c20.2-5.823,32.72-12.262,41.669-20.242l-6.764.377a65.12,65.12,0,0,1-14.423,9.677l-2.977-3.489c-7.381,4.936-25.3,14.286-46.42,22.422l-7.81-27.75c5.81-1.888,11.089-3.923,16.033-5.764l-2.127-38.156-12.834.716L766.6,690.7l12.834-.716L777.786,660.5l27.75-1.546,1.644,29.484,12.661-.706,1.546,27.75-12.661.706,1.507,27.056a102.056,102.056,0,0,0,9.085-5.552L818.2,717.575l102.5-5.713,1.112,19.946-58.793,3.277a19.743,19.743,0,0,1-3.4,4.539l59.489-3.315L920.38,759.2c2.039,36.6-4.01,46.675-31.934,48.231Zm-58.869-94.841-3.065-54.979,89.32-4.979,3.064,54.98Zm-2.636,24.5.531,9.539a58.2,58.2,0,0,0,13.69-10.331Zm61.674-67.111-33.819,1.885.28,5.029,33.819-1.885Zm1.024,18.384-33.819,1.885.28,5.03,33.82-1.885Zm.788,92.163c7.8-.435,8.921-2.238,8.235-14.552l-.474-8.5-1.04.059c-2.253,6.388-5.567,15.62-10.711,23.215Z" fill="#231f20"/><path d="M580.414,884.55a24.028,24.028,0,0,1-4.1-7.327,35.306,35.306,0,0,1-1.771-9.674c-.369-6.632.717-12.195,4.122-17.395a16.841,16.841,0,0,1,13.774-7.832,16.085,16.085,0,0,1,13.186,5.261c4.19,4.448,6.246,8.934,6.684,16.793.411,7.369-1.062,13.364-4.413,18.067-3.661,5.049-7.381,7.557-12.621,7.849C588.8,890.652,583.85,888.711,580.414,884.55Zm19.128,1.315a12.384,12.384,0,0,0,3.1-6.332c.713-3.407.863-8.1.53-14.074s-1.267-10.933-2.877-14.786c-1.808-4.416-5.038-6.371-8.217-5.947a7.379,7.379,0,0,0-4.57,1.978,13.384,13.384,0,0,0-2.728,5.573,44.407,44.407,0,0,0-1.332,14.446c.343,6.14,1.186,10.94,2.61,14.391,1.229,2.889,2.567,4.785,4.017,5.773a7.071,7.071,0,0,0,4.417,1.149A7.868,7.868,0,0,0,599.542,885.865Zm-13.932,4.966a21.047,21.047,0,0,0,8.862,1.313,19.627,19.627,0,0,0,9.91-3.427,20.166,20.166,0,0,0,4.984-4.877,29.527,29.527,0,0,0,5.346-19.025q-.6-10.683-6.866-17.109a59.161,59.161,0,0,0-4.75-4.17l-.2-.646a17.727,17.727,0,0,1,6.1,4.752,28.086,28.086,0,0,1,4.928,7.363,31.273,31.273,0,0,1,1.767,9.593c.451,8.105-1.318,14.692-5.382,19.846a20.784,20.784,0,0,1-15.869,8.523,21.446,21.446,0,0,1-8.443-1.172Zm7.665-43.709c-2.62.146-4.493,1.893-5.534,5.318-1.05,3.261-1.39,7.469-1.1,12.626l.073,1.31c.36,6.469.938,10.954,1.809,13.287a14.755,14.755,0,0,0,2.038,4.157,32.339,32.339,0,0,0,2.629,2.974c-1.333-.336-2.634-1.578-3.816-3.647a22.944,22.944,0,0,1-2.331-6.441,24.6,24.6,0,0,1-.478-2.683c-.4-2.851-.71-5.38-.825-7.428a43.528,43.528,0,0,1,1.035-13.854c1.167-4.091,3.188-6.174,6.216-6.343a5.684,5.684,0,0,1,4.122,1.742A7.08,7.08,0,0,0,593.275,847.122Z" fill="#231f20"/><path d="M618.823,887.009l4.438-4.356-2-35.942-4.917-4.241,14.982-.835-3.683,4.639,2.007,36.024,1.474-.082L629.136,846.6l3.219-4.122.683.454-3.083,3.622,1.985,35.614,4.913-.274c6.467-.36,9.874-4.081,10.136-11.159A27.125,27.125,0,0,0,649.283,878a71.647,71.647,0,0,0,3.845,7.1Zm33.935-7.066a26.113,26.113,0,0,0,3.481,4.98l-1.345,2.375-33.487,1.866-.875-.937,33.9-1.889.829-1.36a38.214,38.214,0,0,1-3.509-5.471,27.034,27.034,0,0,1-2.549-5.937l1.112.76A32.555,32.555,0,0,0,652.758,879.943Z" fill="#231f20"/><path d="M687.483,844.335c3.649,3.574,5.66,8.719,6.03,15.351q1.285,23.088-20.328,24.293l-14.819.826,4.439-4.355-2.013-36.105-4.908-4.079,15.966-.89C678.48,839.006,683.666,840.688,687.483,844.335Zm-26.861,42.644-.547-.956,14.492-.808c10.89-.607,17.526-5.328,20.067-14.258a30.8,30.8,0,0,0,.7-9.565,40.6,40.6,0,0,0-2.394-12.022,15.9,15.9,0,0,0-3.072-5,12.317,12.317,0,0,0-1.824-1.788c5.209,3.57,8,9.409,8.45,17.515.484,8.678-1.448,15.275-5.72,19.7a17.861,17.861,0,0,1-5.043,3.812,22.386,22.386,0,0,1-6.622,2.013l-4.485.577Zm10.042-6.967L668.679,844.4a7.489,7.489,0,0,1,1.466-.246l1.227-.068a17.864,17.864,0,0,1,5.026.3,6.159,6.159,0,0,1,3.639,1.933,14.879,14.879,0,0,0-7.977-1.691l-1.311.072c-.568.115-.974.219-1.219.233l1.953,35.041c5.814-.323,9.679-1.689,11.6-4.012,2.07-2.662,2.925-7.966,2.486-15.826-.456-8.188-1.813-13.367-4.064-15.46s-7.065-2.973-14.434-2.563l2.117,37.989Z" fill="#231f20"/><path d="M748.727,835.091l-3.02,4.766,6.757,13.668,1.178-.969-5.971-12.808,2.611-4.743.983-.056-2.611,4.744,5.843,12a7.964,7.964,0,0,0,3.111-3.13,24.552,24.552,0,0,0,3.6,8.587,7.15,7.15,0,0,0-2.476-.192,9.3,9.3,0,0,0-4.366,1.23l7.2,17.092,4.866,3.342-16.7.931,4.1-4.5-4-9.88c-.387.432-1.087,1.128-1.932,2.162-.387.431-1.538,1.892-3.53,4.467l-.681-.455a28.364,28.364,0,0,1,1.9-2.735q.465-.518,3.7-4.394l-.482-1.288c-1.483,1.4-2.338,2.266-2.729,2.617a59.971,59.971,0,0,0-3.9,5.144,39.115,39.115,0,0,0-6.151-7.212l-2.059,8.738a7.277,7.277,0,0,0-.146,1.814c.083,1.475.993,3.067,2.649,4.781q.4.471,4.394,3.7L720.88,883.62l-.546-.955,18.585-1.036c-2.829-2.143-4.371-3.288-4.631-3.52a5.829,5.829,0,0,1-1.429-3.535,9.641,9.641,0,0,1,.273-2.478l2.1-9.4-1.037-.927-2.678,10.908a14.084,14.084,0,0,0-.472,3.311c.1,1.8,1.661,3.275,4.677,4.338l-16.293.908c4.666-3.215,8.2-9,10.69-17.431L731.3,859.8a6.062,6.062,0,0,0-2.388-1.592,5.425,5.425,0,0,0-2.238-.368l-.409.023,2.314-5.631c1.015.518,2.379,1.427,4.166,2.56l.659-1.434c-.1-.241-.691-.618-1.8-1.3s-1.7-1.055-1.87-1.128l.336-1.332a9.509,9.509,0,0,1,2.389,1.591,14.375,14.375,0,0,1,1.2.918l4.187-11.813-3.367-4.411Zm-13.06,22.081c.091.159.874.936,2.352,2.415a34.526,34.526,0,0,1,3.954,4.625l.923-1.119-1.934-2.274a44.3,44.3,0,0,0-3.748-3.9l3.854-11.878-.747-1.6Zm4.69,1.628c1.315,1.486,2.371,2.742,3.075,3.606l3.5-3.48-5.3-12.6-3.374,10.208Zm19.831-8.168a73.519,73.519,0,0,0,4.426,8.7c-1.068-.023-2.461.055-4.1.064l-2.948.164,6.389,14.428,8.343,6.762-21.369,1.191-.71-.946,19.895-1.108-7.033-5.357-6.7-15.641a27.341,27.341,0,0,1,3.59-.447,17.739,17.739,0,0,1,3.125.072q-3.386-5.48-3.932-8.651Z" fill="#231f20"/><path d="M803.823,837.851c3.649,3.574,5.659,8.718,6.03,15.35q1.286,23.09-20.328,24.294l-14.819.825,4.439-4.354-2.013-36.106-4.908-4.079,15.965-.889C794.82,832.522,800.006,834.2,803.823,837.851Zm-26.861,42.643-.547-.955,14.492-.808c10.89-.607,17.526-5.329,20.067-14.258a30.807,30.807,0,0,0,.7-9.566,40.564,40.564,0,0,0-2.395-12.021,15.886,15.886,0,0,0-3.07-5,12.423,12.423,0,0,0-1.825-1.788c5.209,3.57,8,9.41,8.45,17.515.483,8.679-1.448,15.276-5.719,19.7a17.9,17.9,0,0,1-5.043,3.812,22.436,22.436,0,0,1-6.623,2.012l-4.485.578ZM787,873.527l-1.985-35.614a7.43,7.43,0,0,1,1.465-.246l1.228-.068a17.827,17.827,0,0,1,5.026.295,6.167,6.167,0,0,1,3.639,1.932,14.889,14.889,0,0,0-7.978-1.69l-1.31.073c-.568.113-.974.219-1.219.232l1.953,35.041c5.814-.324,9.679-1.688,11.6-4.012,2.071-2.661,2.925-7.966,2.486-15.826-.456-8.188-1.813-13.368-4.064-15.46s-7.065-2.973-14.433-2.562l2.117,37.988Z" fill="#231f20"/><path d="M845.253,829.711l-3.021,4.767,6.758,13.668,1.178-.97L844.2,834.368l2.612-4.743.982-.055-2.61,4.743,5.841,12a7.953,7.953,0,0,0,3.112-3.13,24.579,24.579,0,0,0,3.6,8.587,7.165,7.165,0,0,0-2.474-.192,9.313,9.313,0,0,0-4.367,1.23l7.195,17.093,4.867,3.341-16.7.932,4.1-4.5-4-9.88c-.386.433-1.086,1.129-1.933,2.162-.386.431-1.536,1.892-3.529,4.467l-.682-.455a28.629,28.629,0,0,1,1.9-2.735q.463-.518,3.7-4.394l-.484-1.287c-1.481,1.4-2.338,2.265-2.727,2.616a59.407,59.407,0,0,0-3.9,5.145,39.044,39.044,0,0,0-6.151-7.212l-2.059,8.737a7.273,7.273,0,0,0-.145,1.814c.082,1.475.992,3.067,2.647,4.781q.4.471,4.4,3.7l-19.979,1.113-.546-.955,18.586-1.036c-2.829-2.143-4.372-3.288-4.632-3.52a5.833,5.833,0,0,1-1.427-3.535,9.593,9.593,0,0,1,.272-2.478l2.105-9.4-1.038-.927L828.048,867.3a14.031,14.031,0,0,0-.473,3.31c.1,1.8,1.66,3.275,4.677,4.339l-16.294.907c4.667-3.215,8.205-9,10.691-17.431l1.173-4.008a6.073,6.073,0,0,0-2.388-1.592,5.42,5.42,0,0,0-2.238-.368l-.409.023,2.314-5.631c1.015.518,2.379,1.427,4.167,2.56l.659-1.433c-.1-.242-.692-.619-1.8-1.3s-1.7-1.055-1.87-1.128l.336-1.332a9.5,9.5,0,0,1,2.387,1.592,13.674,13.674,0,0,1,1.2.918l4.187-11.814-3.366-4.41Zm-13.06,22.082c.091.158.873.936,2.351,2.414a34.3,34.3,0,0,1,3.954,4.625l.924-1.119-1.934-2.274a44.279,44.279,0,0,0-3.749-3.9l3.856-11.878-.747-1.6Zm4.69,1.627c1.314,1.486,2.371,2.742,3.075,3.606l3.5-3.48-5.3-12.6-3.374,10.208Zm19.83-8.168a73.671,73.671,0,0,0,4.428,8.7c-1.069-.022-2.461.056-4.1.065l-2.947.164,6.389,14.427,8.344,6.762-21.369,1.191-.711-.946,19.9-1.108-7.034-5.357-6.7-15.641a27.54,27.54,0,0,1,3.589-.447,17.831,17.831,0,0,1,3.125.072q-3.384-5.48-3.93-8.651Z" fill="#231f20"/><path d="M905.922,826.33,920.9,825.5l-3.921,4.817,2,35.86,4.395,3.7-14.982.835,4.2-4.177-1.209-21.7-8.178,28.625-3.768.21-.463-.96,3.438-.191,8.8-30.8-.269-4.831L901.271,871.1l-2.785.154L881,840.448l1.25,22.434a10.416,10.416,0,0,0,3.1,6.89c.61.624,2.171,2.1,4.518,4.429l-18.093,1.009-.711-.946,16.948-.945c-2.679-2.4-4.413-4.025-5.045-5.057a11.058,11.058,0,0,1-1.448-5.339l-1.337-23.988-1.848-3.676,1.547,27.755a11,11,0,0,0,1.984,6.132,7.589,7.589,0,0,0,4.017,2.814l-14.9.83a10.158,10.158,0,0,0,5.707-9.6l-1.711-30.7-4.913-4.16,17.521-.976-4.849,4.375,17.176,29.677.687-2.42-15.552-27.056,4.921-4.546.441.551-4.116,4.253,14.637,25.383,8.514-27Zm16.532.474-2.919,3.612,1.958,35.124,6.113,6.558-16.783.935-.874-.936,15.966-.89-5.213-5.131-1.985-35.614,3.22-4.121Z" fill="#231f20"/><path d="M332.53,936.892l2.6.02,2.268-.02,2.918-.042v.314l-1.889,2.52q-.41.567-1.008,1.449c-.4.566-.735,1.092-1.029,1.532l-2.121,3.3-2.2,3.674h.4c1.868,0,3.443-.063,4.7-.189a7.245,7.245,0,0,0,2.351-.462,1.873,1.873,0,0,0,.693-.714l.189-.587.168-.61h.5l-.21,1.7-.147,1.7-1.868-.042-5.1-.042-2.478.042-2.562.126v-.336l1.722-2.394,1.6-2.268,1.449-2.141,2.015-3,1.869-2.877-2.31.063-2.414.105a6.049,6.049,0,0,0-1.239.126l-.483.105-.378.189c-.189.084-.4.525-.588,1.3l-.105.42h-.462l.273-1.869.147-1.133Z" fill="#231f20"/><path d="M342.652,936.808l2.709.042h1.071l1.532-.042v.482l-1.532.231-.105,2.415-.042,2.541.021,1.889.126,1.68a3.506,3.506,0,0,0,.5,1.784,3.436,3.436,0,0,0,1.259,1.281,3.8,3.8,0,0,0,2.058.609,4.1,4.1,0,0,0,3.8-2.246v-.19l.042-3.632-.021-1.827-.021-1.637-.063-1.6-.042-1.071-1.511-.231v-.482l1.574.042h1.05l2.814-.042.063.482-1.722.231-.126,2.373-.021,2.729.021,1.89.021,1.847.063,1.89.084,1.47,1.784.231v.483l-1.133-.021-.672-.021-1.218.021-1.029.063V948.8a8,8,0,0,1-5.165,1.89,4.265,4.265,0,0,1-3.632-1.512,4.729,4.729,0,0,1-.714-1.722,14.915,14.915,0,0,1-.21-2.939v-1.029l.021-1.407-.042-2.246-.084-2.31-1.7-.231v-.482Z" fill="#231f20"/><path d="M359.2,949.951l1.218-.168.273-.063.126-.147.105-.819.084-2.036.042-3.213.042-3.024-.021-1.511-.063-1.491-.546-.083-.882-.084v-.484l.882.022h1.659l.756-.022,1.469,1.848,1.512,1.827,1.512,1.826c1.7,2,3.3,3.737,4.619,5.165l-.063-2.33-.147-3.569v-.588l-.063-1.449-.21-1.7a.393.393,0,0,0-.168-.294l-.273-.105-1.344-.168v-.462l2.331.042h.9l1.406-.042v.462l-1.154.168-.252.063-.147.147a2.84,2.84,0,0,0-.126.672l-.042,1.239-.063,3.863v2.31l.021,1.218.021,1.322v.672a5.426,5.426,0,0,0,.042.672l.084.882-1.113-.042-2.037-2.52-1.847-2.246-1.68-1.953q-2.331-2.676-4.346-4.724l.21,7.033.021.924.021.82.021.566.168,1.029a.5.5,0,0,0,.126.294l.315.105,1.2.147v.483l-.881-.021-1.449-.021-1.407.021-.861.021Z" fill="#231f20"/><path d="M376.923,939.831l.315-1.3a6.151,6.151,0,0,0,.126-1.323l1.029-.356,1.008-.42a10.43,10.43,0,0,1-2.772,5.4l-.734.148A8.474,8.474,0,0,0,376.923,939.831Z" fill="#231f20"/><path d="M392.673,949.09l.21-1.364h.483v.084a2.742,2.742,0,0,0,.462,1.805,2.239,2.239,0,0,0,1.659.5,2.044,2.044,0,0,0,2.267-2.057c0-.778-.671-1.428-1.994-1.974l-.63-.252c-1.428-.5-2.268-1.47-2.268-2.415,0-1.742,1.512-2.918,3.843-2.918h.776l.8.1.525.064.525.126-.315,1.134-.168,1.07h-.5l-.147-.84a1.4,1.4,0,0,0-.63-.756,2.476,2.476,0,0,0-1.2-.336,1.63,1.63,0,0,0-1.2.42,1.4,1.4,0,0,0-.483,1.092,1.361,1.361,0,0,0,.4,1.008,3.5,3.5,0,0,0,.651.42,14.85,14.85,0,0,0,1.532.63c1.512.525,2.373,1.259,2.373,2.667a2.9,2.9,0,0,1-1.365,2.477,6.061,6.061,0,0,1-3.548.945h-.567l-.8-.1-.42-.042-.567-.147Z" fill="#231f20"/><path d="M408.885,936.87h2.037l1.218-.02,1.637,3.989.9,2.141L415.9,945.6l1.218,2.542,1.91-3.885,1.533-3.212c.861-1.953,1.47-3.36,1.785-4.221l2.225.042h.777l.777-.02v.44l-1.071.106c-.336,0-.5.23-.5.755l.021,1.407.1,2.415.21,4.051.063,1.638.105,1.2a1.067,1.067,0,0,0,.357.735,5.492,5.492,0,0,0,1.449.336v.5l-1.05-.021-1.638-.021-1.616.021-.966.021-.021-.5,1.26-.21.021-1.407.021-.945-.063-2.33-.042-1.827v-1.05l-.084-.672-.231-2.624-2.478,5.228-2.813,6.383h-1.386l-3.149-7.328q-1.134-2.582-2.016-4.346l-.084.042-.147,4.325-.042,1.449-.042,1.2-.21,3.759,1.617.357v.5l-1.134-.042-1.113-.021-1.071.021-1.007.042v-.5l1.322-.252c.1-.042.231-.567.4-1.574l.063-.694.294-2.855a16.4,16.4,0,0,0,.126-1.89l.063-.966.042-1.344.042-1.259-.021-.609-.021-.987-1.638-.168.021-.482Z" fill="#231f20"/><path d="M429.4,940.629h.735l1.217-.042-.1.9-.021.756L431.187,945a17.4,17.4,0,0,0,.125,2.666,3.145,3.145,0,0,0,.483,1.113,2.747,2.747,0,0,0,2.184.966,3.123,3.123,0,0,0,.756-.105l.525-.189.441-.252a2.442,2.442,0,0,0,.609-.525,2.949,2.949,0,0,0,.147-.986v-4.158l.021-.714a2.717,2.717,0,0,0-.147-1.133c-.042-.168-.21-.294-.525-.378l-1.071-.252v-.462h.189l1.889.042h.777l.987-.042-.084.756-.042.944-.042,2.6v3.548a2.531,2.531,0,0,0,.126.945.8.8,0,0,0,.525.336l1.05.231v.483l-.735-.021-1.218-.021-1.176.021-.692.021.021-.294v-.546l-1.092.42-1.008.336-.924.168-.924.063a4.348,4.348,0,0,1-1.679-.315,2.382,2.382,0,0,1-1.365-2.037,18.3,18.3,0,0,1-.1-2.015v-4.031c0-.652-.126-.8-.609-.9l-1.134-.23v-.462Z" fill="#231f20"/><path d="M441.708,949.09l.21-1.364h.483v.084a2.742,2.742,0,0,0,.462,1.805,2.238,2.238,0,0,0,1.658.5,2.045,2.045,0,0,0,2.268-2.057c0-.778-.672-1.428-2-1.974l-.629-.252c-1.428-.5-2.268-1.47-2.268-2.415,0-1.742,1.512-2.918,3.842-2.918h.777l.8.1.525.064.525.126-.315,1.134-.168,1.07h-.5l-.147-.84a1.4,1.4,0,0,0-.63-.756,2.483,2.483,0,0,0-1.2-.336,1.626,1.626,0,0,0-1.2.42,1.4,1.4,0,0,0-.483,1.092,1.361,1.361,0,0,0,.4,1.008,3.489,3.489,0,0,0,.65.42,14.8,14.8,0,0,0,1.533.63c1.512.525,2.373,1.259,2.373,2.667a2.9,2.9,0,0,1-1.365,2.477,6.063,6.063,0,0,1-3.548.945H443.2l-.8-.1-.42-.042-.567-.147Z" fill="#231f20"/><path d="M450.213,949.972l.966-.189a1.177,1.177,0,0,0,.441-.147.7.7,0,0,0,.168-.231l.063-.84.021-1.973-.021-3.3v-1.028a1.31,1.31,0,0,0-.042-.336c0-.358-.273-.588-.693-.672l-.987-.19v-.482l1.134.042h1.469l1.218-.042-.126,2.184-.021,3,.021,2.562.042,1.071.189.231.4.147,1.008.189v.462l-.945-.021-1.617-.021-1.637.021-1.05.021Zm2.519-14.362a1.175,1.175,0,0,1,.861.336,1.268,1.268,0,0,1,.336.84,1.122,1.122,0,0,1-1.239,1.134,1.247,1.247,0,0,1-1.091-.608,1.9,1.9,0,0,1-.1-.546A1.149,1.149,0,0,1,452.732,935.61Z" fill="#231f20"/><path d="M464.407,949.363l-.987.588-.965.42a6.1,6.1,0,0,1-1.932.315c-2.772,0-4.157-1.638-4.157-4.892a5.282,5.282,0,0,1,1.427-3.863,5.032,5.032,0,0,1,3.759-1.45,10.2,10.2,0,0,1,1.344.126l1.049.19.735.146-.63,2.6h-.441v-.168a2.3,2.3,0,0,0-.671-1.68,2.784,2.784,0,0,0-1.827-.608c-1.764,0-2.562,1.218-2.562,4.094s1.239,4.6,3.192,4.6c.588,0,.861.021,2.666-.924Z" fill="#231f20"/><path d="M483.622,936.6l.461.126-.377,1.7-.231,1.491h-.462l-.1-1.029c-.042-.4-.441-.8-1.176-1.2a4.907,4.907,0,0,0-2.352-.609,4.6,4.6,0,0,0-3.695,1.617,6.331,6.331,0,0,0-1.365,4.22,7.5,7.5,0,0,0,1.617,5.019,5.389,5.389,0,0,0,4.283,1.868,5.585,5.585,0,0,0,3.507-1.155l.231.462a8.256,8.256,0,0,1-5,1.6,6.841,6.841,0,0,1-5-1.827,6.651,6.651,0,0,1-1.868-4.955,7.151,7.151,0,0,1,2.141-5.417,8.119,8.119,0,0,1,5.837-2.058,10.648,10.648,0,0,1,1.47.126l.735.106,1.092.23Z" fill="#231f20"/><path d="M485.471,945.814a4.957,4.957,0,0,1,1.575-3.821,6.016,6.016,0,0,1,4.262-1.47c3.024,0,4.619,1.618,4.619,4.536a5.4,5.4,0,0,1-1.658,4.052,5.933,5.933,0,0,1-4.305,1.6C487.193,950.707,485.471,948.859,485.471,945.814Zm3,2.856a2.676,2.676,0,0,0,2.33,1.47c1.848,0,3.024-1.617,3.024-4.22a6.123,6.123,0,0,0-.9-3.507,2.633,2.633,0,0,0-2.247-1.364c-1.784,0-3.086,1.448-3.086,3.7A7.656,7.656,0,0,0,488.474,948.67Z" fill="#231f20"/><path d="M497.756,935.59h1.092l1.3-.022.756-.02-.126,4.115-.042,4.976.021,3.255.063,1.511.19.231.4.147,1.008.189v.462l-.945-.021-1.6-.021-1.658.021-1.05.021v-.462l.966-.189c.483-.084.546-.147.63-.462a7.312,7.312,0,0,0,.064-1.281l.02-2.939-.02-5.669V937.92a5.171,5.171,0,0,0-.064-1.028c0-.42-.126-.484-.692-.672l-1.008-.19v-.462Z" fill="#231f20"/><path d="M503.931,935.59h1.091l1.3-.022.756-.02-.126,4.115-.042,4.976.022,3.255.062,1.511.19.231.4.147,1.008.189v.462l-.946-.021-1.6-.021-1.658.021-1.05.021v-.462l.966-.189c.482-.084.545-.147.629-.462A7.312,7.312,0,0,0,505,948.04l.02-2.939-.02-5.669V937.92a5.171,5.171,0,0,0-.064-1.028c0-.42-.126-.484-.692-.672l-1.008-.19v-.462Z" fill="#231f20"/><path d="M517.915,949.363a7.065,7.065,0,0,1-3.947,1.386c-2.54,0-4.031-1.848-4.031-4.893,0-3.337,1.827-5.333,4.934-5.333a2.962,2.962,0,0,1,1.932.462,3.447,3.447,0,0,1,.692.694,2.691,2.691,0,0,1,.588,1.763l-6,1.827a5.321,5.321,0,0,0,1.26,3.611,2.689,2.689,0,0,0,2.225.924c.756-.042.966.063,2.289-.945Zm-2-6.257a1.97,1.97,0,0,0-.566-1.343,1.831,1.831,0,0,0-1.344-.588c-1.2,0-2.037,1.05-2.037,2.813l.063.441c.021.063.105.126.252.168h.084l3.044-.966C515.773,943.484,515.92,943.358,515.92,943.106Z" fill="#231f20"/><path d="M527.3,949.363l-.987.588-.965.42a6.1,6.1,0,0,1-1.932.315c-2.771,0-4.157-1.638-4.157-4.892a5.274,5.274,0,0,1,1.428-3.863,5.03,5.03,0,0,1,3.757-1.45,10.19,10.19,0,0,1,1.344.126l1.051.19.734.146-.63,2.6h-.44v-.168a2.3,2.3,0,0,0-.672-1.68,2.784,2.784,0,0,0-1.827-.608c-1.764,0-2.562,1.218-2.562,4.094s1.239,4.6,3.192,4.6c.588,0,.861.021,2.666-.924Z" fill="#231f20"/><path d="M534.589,950.2l-.693.189-.735.126-.714.042a2.017,2.017,0,0,1-1.869-.945,7.573,7.573,0,0,1-.566-3.507l.021-1.133.021-1.512v-.756l-.042-1.28-1.3-.21-.272-.042v-.462l1.6-.084-.043-.987-.041-1.533,1.805-1.469.4.042-.147,1.8L531.943,940l.022.336v.314l3.842.042v.4l-3.842.482v.316l-.043,2.414a14.655,14.655,0,0,0,.42,4.325,1.575,1.575,0,0,0,1.575,1.092l.483-.042.377-.126.358-.147.062.546Z" fill="#231f20"/><path d="M536.605,949.972l.966-.189a1.177,1.177,0,0,0,.441-.147.7.7,0,0,0,.168-.231l.063-.84.021-1.973-.021-3.3v-1.028a1.266,1.266,0,0,0-.042-.336c0-.358-.273-.588-.693-.672l-.987-.19v-.482l1.134.042h1.47l1.218-.042-.126,2.184-.022,3,.022,2.562.042,1.071.188.231.4.147,1.007.189v.462l-.944-.021-1.617-.021-1.638.021-1.05.021Zm2.52-14.362a1.175,1.175,0,0,1,.861.336,1.268,1.268,0,0,1,.336.84,1.122,1.122,0,0,1-1.239,1.134,1.247,1.247,0,0,1-1.092-.608,1.876,1.876,0,0,1-.1-.546A1.149,1.149,0,0,1,539.125,935.61Z" fill="#231f20"/><path d="M542.779,945.814a4.96,4.96,0,0,1,1.575-3.821,6.02,6.02,0,0,1,4.263-1.47c3.024,0,4.619,1.618,4.619,4.536a5.4,5.4,0,0,1-1.659,4.052,5.929,5.929,0,0,1-4.3,1.6C544.5,950.707,542.779,948.859,542.779,945.814Zm3,2.856a2.677,2.677,0,0,0,2.331,1.47c1.848,0,3.024-1.617,3.024-4.22a6.123,6.123,0,0,0-.9-3.507,2.631,2.631,0,0,0-2.247-1.364c-1.784,0-3.086,1.448-3.086,3.7A7.656,7.656,0,0,0,545.782,948.67Z" fill="#231f20"/><path d="M554.477,949.972l1.049-.21a.873.873,0,0,0,.546-.378,3.5,3.5,0,0,0,.126-1.176l-.02-.756v-.966l-.022-1.8-.021-1.848v-.482a1.264,1.264,0,0,0-.168-.8.824.824,0,0,0-.525-.274l-1.028-.23v-.462h.105l1.847.042h.736l1.132-.042-.041.608-.021.63v.42a6.016,6.016,0,0,1,4.094-1.722c1.931,0,2.855.882,2.855,2.814l-.041,1.239-.043,2.394v2.078c0,.441.106.567.609.735l1.092.189.022.462-.967-.021-1.616-.021-1.638.021-1.05.021v-.462l.988-.189c.252-.021.566-.21.587-.357l.063-1.2.021-2.667c0-3.023-.671-4.073-2.267-4.073a3.576,3.576,0,0,0-2.079.84c-.588.5-.736.882-.736,1.974v2.5l-.02.986v.735a2.661,2.661,0,0,0,.126.966,1.219,1.219,0,0,0,.5.294l1.029.189v.462l-.945-.021-1.6-.021-1.638.021-1.049.021Z" fill="#231f20"/><path d="M577.176,948.544l-1.2-2.982-.692-1.637-1.113-2.54-1.322-.274v-.5l1.574.064h2.33l1.323-.042v.482l-1.47.252a6.018,6.018,0,0,0,.294,1.05l.546,1.6.714,1.889,1.092,2.667,1.911-4.01c.482-1.05.9-2.12,1.28-3.212l-1.155-.274.043-.44.629.02h1.807l1.2-.062-.042.482-1.07.148-.988,1.763-1.407,2.688-1.826,3.7-.526,1.05-1.2.084Z" fill="#231f20"/><path d="M585.535,945.814a4.96,4.96,0,0,1,1.575-3.821,6.02,6.02,0,0,1,4.263-1.47c3.023,0,4.619,1.618,4.619,4.536a5.4,5.4,0,0,1-1.659,4.052,5.929,5.929,0,0,1-4.3,1.6C587.258,950.707,585.535,948.859,585.535,945.814Zm3,2.856a2.676,2.676,0,0,0,2.331,1.47c1.848,0,3.024-1.617,3.024-4.22a6.123,6.123,0,0,0-.9-3.507,2.632,2.632,0,0,0-2.247-1.364c-1.784,0-3.086,1.448-3.086,3.7A7.656,7.656,0,0,0,588.538,948.67Z" fill="#231f20"/><path d="M597.82,935.59h1.092l1.3-.022.756-.02-.126,4.115-.042,4.976.02,3.255.064,1.511.188.231.4.147,1.007.189v.462l-.944-.021-1.6-.021-1.659.021-1.05.021v-.462l.966-.189c.484-.084.546-.147.63-.462a7.355,7.355,0,0,0,.063-1.281l.021-2.939-.021-5.669V937.92a5.2,5.2,0,0,0-.063-1.028c0-.42-.126-.484-.693-.672l-1.008-.19v-.462Z" fill="#231f20"/><path d="M604.855,949.363a1.113,1.113,0,0,1,1.2-1.155,1.166,1.166,0,1,1-1.2,1.155Z" fill="#231f20"/><path d="M611.994,950.308a8.065,8.065,0,0,0,5.481-5.858l-.82.5-.86.378a5.416,5.416,0,0,1-1.639.294,3,3,0,0,1-2.288-.8,4.433,4.433,0,0,1-.966-1.512,4.836,4.836,0,0,1-.252-1.617,4.685,4.685,0,0,1,1.323-3.464,6.555,6.555,0,0,1,4.43-1.785,3.592,3.592,0,0,1,2.751,1.176,4.373,4.373,0,0,1,1.092,3.129,9.616,9.616,0,0,1-1.869,5.689,12.869,12.869,0,0,1-5.145,4.137h-1.2Zm6-8.8c0-2.625-1.071-4.283-2.687-4.283s-2.814,1.385-2.814,3.421a4.56,4.56,0,0,0,.882,2.835,2.729,2.729,0,0,0,2.247,1.155C617.075,944.639,618,943.463,618,941.511Z" fill="#231f20"/><g id="上海_アリス幻樂団-2" data-name="上海■アリス幻樂団"><path d="M950.668,925.994c0-.309.478-1.037.853-1.037a1.326,1.326,0,0,1,.238.062,3.578,3.578,0,0,1,.579-.078,1.419,1.419,0,0,1,.239.046c.273.063,1.023.124,1.023.512a.3.3,0,0,1-.1.217c-.341.263-.8.325-1.159.557-.375.248-.528.62-.852.883a.394.394,0,0,1-.187.077c-.494-.185-.631-.294-.631-.836Zm14.692.264-6.545-.372a1.058,1.058,0,0,1-.443.062,4.141,4.141,0,0,1-.835-.139,14.455,14.455,0,0,0-1.824.077c-.307.031-.6.186-.9.186-.222,0-.563-.171-.563-.4a.7.7,0,0,1,.171-.542,10.725,10.725,0,0,1,1.892-.867c1.193-.635,1.107-2.369,1.141-3.469.018-.543.2-1.085.2-1.627v-3.019a12.129,12.129,0,0,0-.324-2.215V913.9a.788.788,0,0,1,.665-.681c.375,0,.818.078.9.449a2.785,2.785,0,0,1,.137.65.3.3,0,0,1-.068.2,2.385,2.385,0,0,0-.274,1.176,1.547,1.547,0,0,0,.512,1.131,2.043,2.043,0,0,0,.921.542c.408,0,.817-.078,1.226-.078a7.826,7.826,0,0,1,2.08.248.557.557,0,0,1,.409.511c0,1.038-3.017.666-3.63.837-.393.108-1.278,1.362-1.449,1.734a2.7,2.7,0,0,0-.239,1.363,3.487,3.487,0,0,0,1.228,2.494,1.011,1.011,0,0,0,.63.2c.119,0,.256-.016.427-.016.238,0,.46.094.7.094,1.04,0,2.062-.14,3.1-.14.511,0,1.943.093,1.943.712a1.154,1.154,0,0,1-1.074.93Z" fill="#231f20"/><path d="M951.5,935.737c-.357,0-.938-.2-.938-.589a1.534,1.534,0,0,1,.274-.743,1.062,1.062,0,0,1,.886-.557c.63-.016,1.261-.062,1.891-.062a.427.427,0,0,1,.427.4C954.043,934.793,952.083,935.737,951.5,935.737Zm1.841,3.7c-.273.528-.7.992-.92,1.535a4.37,4.37,0,0,1-.494,1.13c-.1.124-.188.124-.342.124-.494,0-.783-.744-.783-1.131,0-.588,2.164-3.1,2.829-3.1.17,0,.221.186.221.31a.308.308,0,0,1-.034.17Zm.767-8.347c-.051,0-.1-.03-.154-.03-.664-.109-2.317.092-2.317-.869,0-.65.732-.867,1.329-.867a.643.643,0,0,1,.409.171c.222.2,1.142,1.146,1.142,1.378C954.52,931.014,954.23,931.091,954.111,931.091Zm9.834,4.136c.069-.248-.068-1.255.359-1.255.647,0,.63,1.564.7,1.982.205.2,1.756-.016,1.756,1.054a.63.63,0,0,1-.6.6,2.154,2.154,0,0,1-.307-.077,7.213,7.213,0,0,0-1-.062c-.2.248-.188,1.069-.239,1.394a10.792,10.792,0,0,1-.784,2.819,1.7,1.7,0,0,1-1.108.557c-.46,0-1.073-.248-1.636-.248-.818,0-1.619.217-2.437.217a8.394,8.394,0,0,1-2.506-.278,1.627,1.627,0,0,1-.494-1.131c0-.325.1-1.348.6-1.348.546,0,.58.867.682,1.208a4.443,4.443,0,0,0,.461.047,2.35,2.35,0,0,0,1.755-1.409c.068-.264-.035-1.023.409-1.023.272,0,.324.387.324.728,0,.171-.018.325-.018.4a1.362,1.362,0,0,0,1.381,1.363c.887,0,1.892-.573,1.892-1.456,0-.124-.034-.263-.034-.387,0-.217.068-.418.068-.635,0-.914-.954-1.3-1.823-1.3a1.914,1.914,0,0,0-1.228.572c0,.109-.119.311-.256.311a.324.324,0,0,1-.221-.124c-.375-.449-.358-.372-.852-.635a.274.274,0,0,0-.153-.031c-2.421,0-1.381,1.068-2.4,1.811a.265.265,0,0,1-.154.063c-.239,0-.306-.418-.306-.589a.82.82,0,0,1,.22-.635c-.067-.185-.238-.433-.476-.433-.29,0-.563.139-.853.139-.221,0-.732-.17-.732-.419v-.045l.119-.558c.068-.325.613-.372,1.039-.372h.29c.307-.2.767-.109,1.006-.418.341-.434.426-2.246,1.142-2.246.153,0,.239.341.239.449,0,.388-.274.79-.274,1.224.154.295-.05.465.29.9.341.031.665.077,1.006.077a7.576,7.576,0,0,0,.835-.077c.154-.387.444-.712.631-1.084l-.307-.914c-.392-.4-1.278-.278-1.278-.991a.42.42,0,0,1,.2-.387,6.1,6.1,0,0,1,2.011-.449c.512,0,1.006.061,1.518.061a1.839,1.839,0,0,1,1.4.589c.1.093.238.2.238.357,0,.2-.494.572-.7.572a12.85,12.85,0,0,0-1.347-.278c-.562,0-1.125.232-1.141.805a1.413,1.413,0,0,1-.052.464l-.136.357c.085.7.869.882,1.517.882.391,0,.784-.061,1.176-.077Zm-.2-6c.392,0,1.432.171,1.432.635,0,.605-.938.744-1.449.744a8.129,8.129,0,0,1-2.2-.34c-.477.108-1.023-.032-1.483.185a.7.7,0,0,1-.323.093h-.034l-.478-.077-.954.2c-.1.015-1.875,2.215-2.983,2.215a.7.7,0,0,1-.665-.619c0-1.488,2.693-.915,3-3.068a3.309,3.309,0,0,1-.272-.743c0-.263.784-.728,1.057-.728a1.172,1.172,0,0,1,.886.821,2.081,2.081,0,0,1-.1.465c.034.232-.034.464.187.619l4.261-.4Z" fill="#231f20"/><path d="M965.343,948.066a1.146,1.146,0,0,0-.034.264c0,.14.017.294.017.465a1.367,1.367,0,0,1-.256.913.522.522,0,0,0-.05.279,12.847,12.847,0,0,0,.494,2.478,2.366,2.366,0,0,1,.034.465,10.344,10.344,0,0,1-.256,2.524.5.5,0,0,0-.052.2c0,.217.137.4.137.666a.637.637,0,0,1-.017.171c-.1.449-.358.6-.58.6a.283.283,0,0,1-.119-.015,21.459,21.459,0,0,0-2.573-.279,1.084,1.084,0,0,0-.29.031,8.33,8.33,0,0,1-1.637.186,1.548,1.548,0,0,1-.442-.047,4.531,4.531,0,0,0-.75-.232c-.682,0-1.21.247-1.722.247a1.11,1.11,0,0,1-.222-.015,8.56,8.56,0,0,0-1.415-.123c-.885,0-1.363.154-1.686.154a.617.617,0,0,1-.171-.016,1.493,1.493,0,0,0-.375-.046c-.375,0-.784.078-1.023.078h-.119c-.306-.047-.614-.124-.614-.511a8.028,8.028,0,0,1,.052-1.208c0-.031.016-.063.016-.124,0-.31-.119-1.007-.119-1.162V954c.085-.387.256-.355.256-.82v-.062c-.017-.512-.239-1.27-.239-1.518v-.093c0-.341-.067-1.734-.067-2.4a1.662,1.662,0,0,1,.016-.356,8.123,8.123,0,0,0,.238-1.285,1.08,1.08,0,0,0,.018-.248c0-.511-.137-1.161-.137-1.394v-.108c0-.171-.051-.418-.051-.62a.3.3,0,0,1,.035-.186,1.155,1.155,0,0,1,.732-.356c.137,0,1.262-.093,2.216-.093a4.457,4.457,0,0,1,1.3.124,1.446,1.446,0,0,0,.562.124,1.489,1.489,0,0,0,.529-.124,11.582,11.582,0,0,1,1.363-.264h.051c.205.047,3.256.124,3.9.311a1.309,1.309,0,0,0,.324.046c.409,0,.63-.279,1.346-.31h.086c.46,0,1.141.217,1.159.6a9.236,9.236,0,0,1,.085.929,4.222,4.222,0,0,1-.153,1.1c0,.031-.018.062-.018.093,0,.295.222.8.222.96Z" fill="#231f20"/><path d="M937.762,915.8a4.03,4.03,0,0,1-.853.217,4.7,4.7,0,0,0-.665.216,4.24,4.24,0,0,0-.426.078c-.358.155-.306.263-.784.263-.29,0-.7-.17-.732-.464a4.3,4.3,0,0,1-.034-.48c0-.434.9-1.255,1.414-1.255a.812.812,0,0,1,.187.031,3.438,3.438,0,0,0,.8.063c.187,0,.392.03.58.03.17,0,.341-.062.512-.062.22,0,1.056.341,1.056.6C938.818,915.323,938.017,915.694,937.762,915.8Zm1.585,9.34c-.171.138-.274.34-.461.463a9.826,9.826,0,0,1-1.789.883,2.11,2.11,0,0,1-.7.109c-.835,0-.766-.371-1.414-.651a.544.544,0,0,1-.358-.479c0-.4.75-.666,1.108-.775a.685.685,0,0,1,.17-.031c.085,0,.171.016.256.016a.5.5,0,0,0,.153-.016c.256-.061.444-.264.7-.341a7.713,7.713,0,0,0,1.67-.681,3.78,3.78,0,0,0,1.516-1.286c.205-.34.427-1.068.938-1.068.256,0,.256.2.256.371a2.555,2.555,0,0,1-.069.635,4.017,4.017,0,0,1-1.431,2.51C939.738,924.94,939.517,925,939.347,925.143Zm1.175-9.68c-.425,0-1.363-.016-1.363-.527,0-.527.869-.62,1.279-.666.119-.016.409-.217.629-.263a9.722,9.722,0,0,1,1.893-.233c.2,0,.409.016.613.016.171,0,.341.046.512.046.119,0,.426-.154.613-.17a6.38,6.38,0,0,1,.767-.047,3.806,3.806,0,0,1,1.33.187,3.155,3.155,0,0,1,.528.386c.46.341,1.244.589,1.244,1.224a2.412,2.412,0,0,1-1.142,1.7,5.293,5.293,0,0,1-.613.264,9.532,9.532,0,0,1-.8.573c-.341.154-.7.278-1.057.4-.562.2-1.108.4-1.653.621-.137.061-.29.092-.427.154-.408.186-.511.65-.613,1.007-.119.433-.341.34-.614.573a.512.512,0,0,1-.306.093c-.529,0-.58-.744-.58-1.084,0-.124.086-.248.086-.372a5.258,5.258,0,0,0-.155-.883c-.085-.511-.119-.558-.681-.619a.315.315,0,0,1-.289-.31.713.713,0,0,1,.46-.666c.17-.093.238-.248.477-.248.17,0,.323.062.494.062.443,0,.954.635,1.159.96a.436.436,0,0,0,.392.233.712.712,0,0,0,.358-.094,4.441,4.441,0,0,0,.87-.433,5.465,5.465,0,0,1,.63-.434c.153-.093.392-.108.528-.2.1-.077.137-.2.239-.279a2.724,2.724,0,0,0,.954-1.022c0-.264-.732-.434-.954-.434-.409,0-.836.124-1.262.124-.153,0-.306-.062-.46-.062-.238,0-.477.108-.715.108-.085,0-.154-.015-.239-.015-.7,0-1.364.326-2.062.326Z" fill="#231f20"/><path d="M938.153,937.255a.269.269,0,0,1-.221-.109,3.625,3.625,0,0,1-.8-2.6,2.5,2.5,0,0,1,.1-.7,3.821,3.821,0,0,0,.188-1.317c0-.759-.1-1.517-.1-2.276,0-.372-.119-.743-.119-1.131a.7.7,0,0,1,.783-.666c.87,0,1.3.961,1.3,1.627,0,.355-.205.526-.306.867a6.512,6.512,0,0,0-.24,1.983c0,.371-.034.758-.034,1.129,0,.3.24.729.24,1.023a3.98,3.98,0,0,1-.581,2.059A.363.363,0,0,1,938.153,937.255Zm4.688,3.826c-.239.154-.393.356-.649.5a5.892,5.892,0,0,1-.75.279,6.147,6.147,0,0,1-1.891.5c-.409,0-1.585-.294-1.585-.775a1.03,1.03,0,0,1,.665-.774c.255-.062.545-.031.8-.093a10.223,10.223,0,0,0,.971-.387c.154-.047.307-.031.46-.093a9.323,9.323,0,0,0,2.438-1.518,3.7,3.7,0,0,0,.511-.743,3.492,3.492,0,0,0,.63-1.983c0-.356-.034-.713-.034-1.068a14.916,14.916,0,0,1,.085-1.519c.034-.247,0-.51.052-.758.034-.123.136-.2.17-.326.086-.247.137-.572.5-.572a.266.266,0,0,1,.186.062,1.228,1.228,0,0,1,.53,1.1c0,.17-.018.357-.018.558a4.239,4.239,0,0,0,.034.449,1.775,1.775,0,0,1,.051.294c0,.171-.085.372-.085.605,0,.6.188,1.176.188,1.781,0,.371-.307.743-.426,1.084a4.935,4.935,0,0,1-.274.851,4.721,4.721,0,0,1-2.555,2.556Zm1.567-11.384a3.43,3.43,0,0,1-.357-1.208c0-.386.971-.557,1.295-.557.358,0,.58.015.75.309.119.2.324.155.324.481a3.961,3.961,0,0,1-.733,1.718c-.085.14-.136.28-.222.419-.034.062-.153.062-.222.062-.085,0-.391-.062-.426-.124C944.527,930.456,944.579,930.085,944.408,929.7Z" fill="#231f20"/><path d="M943.028,944.134a3.069,3.069,0,0,1,.545-.063,3.986,3.986,0,0,1,.75.093,1.819,1.819,0,0,1,.579.295c.171.093.393.139.563.232.119.078.681.48.7.6a1.533,1.533,0,0,1,.017.279c0,1.1-1.193,1.626-1.841,2.338-.119.14-.477.419-.511.573a1.6,1.6,0,0,1-.153.481c-.137.278-.546.681-.546.991,0,.294.427.759.427,1.177a.461.461,0,0,1-.052.217.6.6,0,0,1,.034.17.16.16,0,0,1-.153.17c-.341,0-.6-.263-.9-.263-.068,0-.187.093-.306.093-.034,0-.069,0-.085-.031a.949.949,0,0,0-.205-.015.837.837,0,0,0-.682.4c-.187.248-.409.5-.613.744-.119.139-.359.17-.478.325-.136.17-.2.341-.391.558-.086.108-.171.217-.274.325a9.171,9.171,0,0,1-1.244.991,2.931,2.931,0,0,1-.817.371c-.086.032-.188.032-.274.063-.135.046-.357.371-.545.464a2.234,2.234,0,0,1-.835.232.418.418,0,0,1-.136-.015c-.46-.155-1.244-.123-1.517-.527-.1-.138-.29-.325-.29-.5a.409.409,0,0,1,.188-.309c.05-.047.971-.264,1.125-.326.221-.078.681-.387.784-.419a13.781,13.781,0,0,0,4.022-2.57c.255-.232.426-.527.664-.774a7.9,7.9,0,0,0,.784-.682,10.99,10.99,0,0,0,.87-1.285c.255-.5.647-.465.886-.775.136-.17.119-.34.2-.511a6.71,6.71,0,0,1,.615-.9,1.047,1.047,0,0,0,.255-.572c0-.356-.426-.419-.733-.419-.171,0-.358.016-.528.016-.205,0-.393-.046-.6-.046-.238,0-.426.154-.631.154a.662.662,0,0,1-.665-.635.356.356,0,0,1,.324-.386Zm-4.619.7c.563,0,1.073-.185,1.636-.185.187,0,.58.031.58.278,0,.31-.512.681-.784.821-.256.124-.427.31-.7.418a6.376,6.376,0,0,0-.972.558.933.933,0,0,0-.307.171,2.547,2.547,0,0,1-.988.185.475.475,0,0,1-.153-.015c-.273-.109-.6-.124-.6-.465,0-.387.1-.357.341-.7a1.08,1.08,0,0,0,.085-.248c.119-.309.341-.79.75-.821Zm5.965,7.884a1.909,1.909,0,0,1-.272-.233,1.278,1.278,0,0,1-.239-.588c0-.17.136-.248.307-.248.29,0,.562.248.818.356.154.062.324.031.477.093a3.183,3.183,0,0,1,.528.248,6.306,6.306,0,0,1,1.5.867,4.042,4.042,0,0,1,.631.774c.188.357.443.5.443.93,0,.341-.136.883-.614.883a2.706,2.706,0,0,1-1.5-.883c-.1-.124-.137-.279-.239-.4a10.4,10.4,0,0,0-.733-.789c-.255-.28-.6-.465-.869-.729Z" fill="#231f20"/><path d="M918.5,924.384a30.046,30.046,0,0,1,3.341-.542c.357,0,.716.077,1.073.077a2.746,2.746,0,0,0,.341-.077.574.574,0,0,0,.1-.2c0-.853-1.023-1.627-1.023-2.091,0-.217.357-.279.545-.279a3.08,3.08,0,0,1,.972.325.569.569,0,0,1,.239.341c.1.4.613,1.424.613,1.7a.5.5,0,0,1-.034.154c-.256.728-.153.7-.835,1.162-.477.341-.7.913-1.6.913-.41,0-.785-.217-1.194-.217a8.2,8.2,0,0,0-2.283.4,2.628,2.628,0,0,1-.665.232,3.485,3.485,0,0,1-1.057-.171c-.221-.077-.341-.712-.426-.929a1.138,1.138,0,0,1-.085-.4,12.063,12.063,0,0,1,1.227-2.927,10.787,10.787,0,0,0,.869-1.393,1.6,1.6,0,0,0-.409-.636,6.123,6.123,0,0,0-.682-.217,1.777,1.777,0,0,1-.613-1.269.586.586,0,0,1,.068-.3c.188-.356,1.227-1.223,1.585-1.657.358-.418.835-1.317,1.3-1.564.069-.325.035-.961.41-1.084a1.11,1.11,0,0,1,.391-.108c.409,0,1.534.34,1.534.789a2.682,2.682,0,0,1-.784,1.1,6.278,6.278,0,0,0-.936.388c-.393.294-1.825,1.8-1.825,2.215,0,.046.017.077.017.124.171.108.154.2.239.355a5.374,5.374,0,0,0,.648.589.856.856,0,0,0,.358.047h.188c.255,0,.46-.232.766-.232.324,0,.409.17.409.433a1.832,1.832,0,0,1-.205.465,4.627,4.627,0,0,1-.681.991c-.8.883-2.608,1.952-2.608,3.205,0,.047.034.109.034.156a.407.407,0,0,0,.256.061c.1,0,.222-.014.307-.014Zm2.847-5.7c0-.512,1.329-2.339,1.908-2.355.273.217,1.04.666,1.04,1.007a.772.772,0,0,1-.171.573,2.722,2.722,0,0,1-.851.356c-.12.031-.206.139-.307.186a9.8,9.8,0,0,1-1.3.527.341.341,0,0,1-.256-.156A.143.143,0,0,1,921.343,918.685Zm7.636-3.176c-.768,0-1.535.155-2.3.155a3.061,3.061,0,0,0-1.279.4c-.936,0-1.107-.309-1.107-1.176,0-.558.631-.45,1.04-.558a3.035,3.035,0,0,1,.357-.077l2.131-.14h.085a5.549,5.549,0,0,1,.7.077c1.226.124,2.079-.046,2.675,1.162a.552.552,0,0,1,.051.155c0,.248-.409.326-.631.326-.426,0-.511-.326-.954-.326Zm1.363,3.639c0-.123-.051-.247-.051-.371v-1.6c0-.233.136-1.037.477-1.053.324.17.58,1.239.58,1.58,0,.511-.1,1.037-.1,1.548,0,.2.068.388.068.589,0,.263-.085.542-.085.8,0,.45.051.914.051,1.363,0,.263-.051.511-.051.774,0,.187.12.372.12.558,0,.356-.256.65-.29.991-.171,1.316-1.04,1.8-2.165,2.463a.808.808,0,0,1-.426.077c-.665,0-1.978-.4-1.978-1.146a.472.472,0,0,1,.188-.31,1.185,1.185,0,0,1,.937-.278c.137,0,.256.046.393.046,1.073-.65,1.125.123,1.96-1.378.119-.217.29-.883.375-.992Z" fill="#231f20"/><path d="M917.422,939.036c-.545,0-.75-.743-.75-1.131a.584.584,0,0,1,.58-.51,5.241,5.241,0,0,1,1.193.263c.154.046.188.217.188.341A2.712,2.712,0,0,1,917.422,939.036Zm12.988-1.626c.409,0,1.039.031,1.039.387,0,.744-.988,1.115-1.67,1.115-.546,0-2.369-.356-3.016-.465a3.052,3.052,0,0,0-.444-.138.282.282,0,0,0-.187.077.53.53,0,0,0,.153.372c.119.138.307.217.426.355a3.8,3.8,0,0,1,.58.9c0,.015-.034.078-.034.092a.481.481,0,0,1-.375.156c-.7,0-1.4-.605-2.028-.852a.649.649,0,0,0-.085.357c0,.108.016.231.016.355,0,.372-.153,2.355-.665,2.355-.561,0-.494-2.184-.511-2.587l-.375-.356c-.272.217-.665.233-.937.434-.426.294-.579.851-1.006,1.161a7.127,7.127,0,0,1-3.545,1.224c-.324,0-.818-.2-.818-.542a.781.781,0,0,1,.494-.635c.307-.124.648-.078.955-.171.46-.139.92-.278,1.363-.434.188-.061.392-.077.579-.154a4.4,4.4,0,0,0,1.125-.991,1.786,1.786,0,0,0,.478-1.038,1.84,1.84,0,0,1-1.329.139c-.427-.078-1.091-.062-1.091-.62a.442.442,0,0,1,.341-.371,14.266,14.266,0,0,1,3.341-.465.88.88,0,0,0,.375-.619c0-.589-.512-.666-.9-.976a3.493,3.493,0,0,1-.511-1.611c0-.309.05-.6.068-.914s.034-2.183.528-2.183c.426,0,.426,1.038,1.159,1.038.035,0,.085-.016.12-.016a.42.42,0,0,1,.323-.093c.171,0,.358.031.477.031.631,0,.734-.7,1.023-.7.494,0,.512,1.053.6,1.363a.959.959,0,0,1,.051.31c0,.154-.067.325-.067.48,0,.2.085.4.085.6a2.86,2.86,0,0,1-.1.526c-.17.822-.51.713-1.073,1.193a2.729,2.729,0,0,0-.614.945c.034.247.187.635.528.635,1.364,0,2.728.217,4.091.341.068,0,.137.015.205.015.221,0,.426-.031.647-.031Zm-13.141-2.973c0-.775.9-1.007,1.227-1.626-.682-.868-1.244-.063-1.244-1.8a.744.744,0,0,1,.153-.418l1.517-1.7a.44.44,0,0,1,.324-.14,6.022,6.022,0,0,1,1.142.264c.171.046.221.185.306.309,0,.047.018.078.018.124a.292.292,0,0,1-.1.217c-.63.526-1.107-.046-1.96,1.007-.136.17-.29.294-.29.526a.679.679,0,0,0,.069.264c.477.124.511.48,1.142.48.239-.108.255-.34.255-.6v-.17c0-.311.034-.573.461-.573h.562c.392,0,.648.79.648,1.068,0,.357-.29.9-.75.9-.58.821-1.79,1.023-2.3,1.875.1.232.324.262.563.262a3.008,3.008,0,0,0,1.226-.278c0-.155-.016-.278-.016-.4,0-.341.085-.542.681-.542.273,0,.7.727.7.944a.4.4,0,0,1-.051.2c-.409.914-.665.821-1.6,1.084a5.149,5.149,0,0,1-1.022.325c-.136,0-.307-.046-.443-.061-1.159-.109-1.21-.388-1.21-1.24Zm8.76-4.539c0,.28-.2.326-.46.326-.2,0-.409-.109-.579-.109-.511,0-1.023.093-1.534.093-.222,0-.409-.17-.647-.17-.052,0-.154,0-.154-.062,0-1.1,1.414-.279,1.414-1.518a.319.319,0,0,1,.341-.356.369.369,0,0,1,.188.046c.409.217.511.294.511.6,0,.062-.017.155-.017.248C925.433,929.217,926.029,929.465,926.029,929.9Zm-.631,3.748c0-.464-.238-1.13-.851-1.13-.716,0-1.5.3-1.5,1.053s.119,1.146,1.022,1.146c.41,0,1.176-.124,1.3-.542a1.045,1.045,0,0,0,.033-.31Zm4.825.388c0-.295-.29-.557-.29-.8,0-.31.358-.388.63-.388.6,0,1.091,1.286,1.091,1.735a.521.521,0,0,1-.171.4,8.686,8.686,0,0,1-2.641.882c-.716,0-1.551-.061-1.551-.9a5.8,5.8,0,0,1,.954-2.586c-.272-.279-.7-.542-.7-.945a2.541,2.541,0,0,1,1.311-2.277,1.674,1.674,0,0,1,1.125-.449.356.356,0,0,1,.205.372c0,.867-1.6.511-1.6,1.6a.257.257,0,0,0,.153.264c.137.061.274.092.409.154.239.124.426.356.716.4.972-.232.2-1.456.955-1.456.426,0,.716.526.716.852,0,.6-1.262,1.688-1.841,1.688a.985.985,0,0,1-.358-.124c-.613.14-.853.991-1.142,1.441.119.5,1.006.5,1.432.5a1.007,1.007,0,0,0,.562-.186A.513.513,0,0,0,930.223,934.034Zm.256,8.363c-.563,0-2.4-1.286-2.4-1.8a.279.279,0,0,1,.255-.264,9.331,9.331,0,0,1,3.29.806.935.935,0,0,1,.341.573c0,.309-.733.712-1.04.712a.414.414,0,0,1-.238-.046A.944.944,0,0,1,930.479,942.4Z" fill="#231f20"/><path d="M930.1,953.363c.033-.542.187-1.068.187-1.61,0-.729-.068-2.571-.717-3.051-.1-.078-.187-.108-.187-.248,0-.124.068-.325.239-.325.357-.512.1-1.673.613-1.673.273,0,.426.294.546.465a3.049,3.049,0,0,1,.409.65,5.545,5.545,0,0,1,.324,1.967c0,.5.119.991.119,1.486,0,1.1-.222,2.2-.222,3.285,0,.108.068.216.068.34a1.157,1.157,0,0,1-.034.247c-.221,1.007-.289.542-.869,1.163a5.2,5.2,0,0,0-.443.851c-.324.527-.92.418-1.466.527a4.352,4.352,0,0,1-.767.092c-1.6,0-3.17-.294-4.772-.294-.341,0-.664.124-.988.124-.12,0-.256-.031-.375-.031a11.057,11.057,0,0,0-2.676.31.82.82,0,0,1-.188.031c-.034,0-.085-.016-.119-.016-1.466-.262-1.807-2.059-1.807-3.174,0-.481.051-.945.068-1.425a16.58,16.58,0,0,1,.29-3.563,1.086,1.086,0,0,1-.051-.4,21.175,21.175,0,0,1,.477-2.091c.051-.14.239-.465.426-.465.358,0,.426.325.426.589,0,.217-.051.418-.068.635l-.358,7.326c.188.263.341.82.767.82,1.381,0,2.762-.294,4.142-.294h1.79q1.3,0,2.607.046c.409.016.818.109,1.228.109a1.955,1.955,0,0,0,1.244-.418Zm-3.018-5.544c.546.093,1.705.109,2.1.45a2.166,2.166,0,0,1-.035.339c-.1.589-1.925.063-2.25.961a1.679,1.679,0,0,0-.067.573c0,.449-.222.759-.222,1.115,0,.186.051.356.051.542,0,1.193-1.006,2.85-2.472,2.85-.647,0-1.414-.2-1.414-.914a.514.514,0,0,1,.239-.51,2.162,2.162,0,0,1,.562-.124,3.777,3.777,0,0,0,1.5-.775c.511-.449.529-1.084.835-1.627a2.122,2.122,0,0,0-1.891-1.439,1.081,1.081,0,0,1-.921-.93c0-.79,1.517,0,2.165-1.1a4.647,4.647,0,0,0,.357-.805c0-1.022-.375-.651-1.022-1.037l-4.4.108a2.381,2.381,0,0,1-1.022.263c-.256,0-.8-.046-.8-.371,0-.528,1.312-.976,1.772-1.084.392-.094.785-.047,1.176-.11a11.465,11.465,0,0,1,1.926-.185c.137,0,.256.031.393.031,1.772.077,3.681-.108,5.351.558a.712.712,0,0,1,.359.6c0,.187-.529.542-.716.542-.512,0-1.006-.185-1.5-.185-.546,0-.478.9-.546,1.223Zm-5.88.123c.392,0,.767.047,1.159.047.2,0,.444.156.444.357,0,.588-2.438.883-2.95,1.052-.068.016-.068.032-.135.032a.307.307,0,0,1-.188-.093.723.723,0,0,1-.034-.186.388.388,0,0,1,.017-.139,1.549,1.549,0,0,1-.017-.28c0-.774.988-.79,1.636-.79Zm-.954,4.988c-.443,0-.648-.45-.648-.79,0-1.069,1.415-1.5,2.369-1.672.034,0,.068-.016.1-.016a.361.361,0,0,1,.341.387c0,.65-.9,1.054-1.329,1.472C920.831,952.543,920.678,952.93,920.252,952.93Z" fill="#231f20"/></g></g></svg>
