<svg xmlns="http://www.w3.org/2000/svg" xmlns:xlink="http://www.w3.org/1999/xlink" width="1000" height="992" viewBox="0 0 1000 992"><g id="Artboard"><image id="Cover" width="1000" height="992" xlink:href="../../../../Covers/(TF10.5).png"/><rect id="Page" width="1000" height="992" fill="#fff"/><rect id="Tint" width="1000" height="992" fill="#58595b"/></g><g id="Outline"><g id="ORIGINAL_SOUND_TRACK" data-name="ORIGINAL SOUND TRACK"><path id="ORIGINAL" d="M556.725,860.187a4.01,4.01,0,0,0-.939.112l-.586.142a4,4,0,0,0-3,3.18c-.039.215-.1.519-.213.94l-.019-2.866-.057-4.283.1-5.177a4,4,0,0,0,3.216-2.631l.12-.34a4,4,0,0,0-3.715-5.478H551.6c-.048,0-.1,0-.145,0l-2.6.093-2.609.088-1.733-.085-1.93-.095c-.066,0-.131-.005-.2-.005a4,4,0,0,0-3.972,4.47l.058.487a4,4,0,0,0,3.172,3.45q.021.941.044,1.752c.047,1.4.07,3,.07,4.776V861.7l-.07,2.842-.025,1.023c-.2-.526-.443-1.182-.737-2-.873-2.453-1.846-5.3-2.889-8.447-.74-2.337-.965-3.04-1.048-3.29-.055-.185-.111-.374-.168-.569a4.006,4.006,0,0,0,1.243-2.176l.081-.393a4,4,0,0,0-3.871-4.964H534.2q-.081,0-.162.006l-3.622.178-3.835-.18c-.063,0-.125,0-.188,0a3.912,3.912,0,0,0-3.553,2.2,3.979,3.979,0,0,0-3.518-2.139H519.3c-.052,0-.1,0-.155,0l-1.763.062-1.736.059-1.943-.059-2.178-.063-.115,0a4,4,0,0,0-3.894,4.913l.114.488a4,4,0,0,0,3.427,3.059c.02.8.032,1.712.036,2.73l-3.184-4.457c-.636-.884-1.281-1.8-1.924-2.744-.566-.838-1.1-1.626-1.58-2.345a4,4,0,0,0-3.321-1.77c-.057,0-.114,0-.171,0l-5.884.252c-.113,0-.219.037-.33.051a3.953,3.953,0,0,0-1.125-.181h-.019l-.112,0-2.3.062-2.371.061-2.075-.061-1.961-.062-.127,0a3.912,3.912,0,0,1-4.616-2.7h-.041l-.153,0a3.932,3.932,0,0,0-.86.127l-.443.1a4,4,0,0,0-2.756,2.333,33.139,33.139,0,0,0-3.457-.18c-.585,0-1.2.025-1.838.076-.605.048-1.258.119-1.942.212-.077.01-.154.023-.231.038a15.368,15.368,0,0,0-6.6,2.973,3.987,3.987,0,0,0-3.852-2.985h-.006l-.125,0-2.3.062-2.371.061-2.075-.061-1.961-.062-.127,0a3.975,3.975,0,0,0-3.891,3.108,7.786,7.786,0,0,0-.618-.585A8.078,8.078,0,0,0,440.9,844.5c-.51-.129-.835-.212-.979-.252a4.024,4.024,0,0,0-.433-.107,15.058,15.058,0,0,0-2.737-.258l-4.142-.094h-5.447a4,4,0,0,0-2.988,1.341,3.959,3.959,0,0,0-.714,1.2,14.119,14.119,0,0,0-4.4-2.235,17.832,17.832,0,0,0-5.19-.727l-.12,0-.987.03a13.672,13.672,0,0,0-4.225.687,15.128,15.128,0,0,0-3.823,1.879,16.106,16.106,0,0,0-5.181,5.731,16.53,16.53,0,0,0-1.526,3.934,17.135,17.135,0,0,0-.535,4.29,15.338,15.338,0,0,0,.555,4.019,14.985,14.985,0,0,0,.611,1.866,12.213,12.213,0,0,0,.962,1.939,16.043,16.043,0,0,0,2.548,3.271c.036.036.073.07.11.1,2.779,2.541,6.488,3.829,11.026,3.829a14.486,14.486,0,0,0,3.806-.525,17.13,17.13,0,0,0,3.353-1.225,15.778,15.778,0,0,0,2.816-1.82,3.968,3.968,0,0,0,3.9,3.162h.108l4.572-.123,2.046.059,1.973.063.128,0a4,4,0,0,0,4-3.815l1.366,1.645c.354.436.659.795.933,1.1a8.661,8.661,0,0,0,.979.943,4,4,0,0,0,2.957.86l1.257-.142a3.967,3.967,0,0,0,1.678-.593l4.938-.118,1.845.059,1.74.063.145,0a4,4,0,0,0,3.2-1.6,3.953,3.953,0,0,0,.581-1.112,16.1,16.1,0,0,0,6.318,2.765l.156.03a26.95,26.95,0,0,0,4.516.371,36.264,36.264,0,0,0,8.646-1.154,2.617,2.617,0,0,1,3.38.7h.1l5.13-.123,1.845.059,1.739.063.145,0a3.653,3.653,0,0,1,1.63,0l.13,0,1.956-.063,1.957-.059,2.011.059,1.974.063.128,0a4,4,0,0,0,3.976-4.434l-.057-.519a4,4,0,0,0-3.53-3.54q-.022-.655-.049-1.415-.038-1.189-.073-2.371l1.145,1.547,4.025,5.522,4.041,5.619a3.994,3.994,0,0,0,6.747-.408c.065-.013.131-.02.2-.036.088-.008.239-.021.477-.036.547-.036,1.29-.054,2.217-.055l3.3.123c.049,0,.1,0,.149,0a4,4,0,0,0,3.073-1.439,4.052,4.052,0,0,0,.469-.7,3.89,3.89,0,0,0,.337.534A4,4,0,0,0,533,874.535c.04,0,.08,0,.121,0l4.018-.121,4.3.2c.061,0,.122,0,.183,0a4.009,4.009,0,0,0,.768-.078l.138,0,1.7-.063,1.652-.058,4.546.123.182,0a4,4,0,0,0,2.713,3.62l.557.188a4,4,0,0,0,5.283-3.788,6.08,6.08,0,0,1,.034-.678l.187-1.573.059-.49.565-3.862c.057-.292.195-.945.41-1.96.015-.069.028-.138.039-.208,0-.029.033-.2.137-.6a4,4,0,0,0-3.874-5ZM494.5,852.315l-.057,2.95-.143,6.1-.069,1.818c-.021-1.276-.046-2.737-.075-4.4l.111-6.534C494.349,852.27,494.424,852.3,494.5,852.315Zm-22.919,5.7a4,4,0,0,0-.673,3.579l.171.582a4,4,0,0,0,2.849,2.744l-.015,1.136q-.316.021-.654.021a6.667,6.667,0,0,1-1.913-.252c-.041-.013-.083-.025-.124-.036a6.123,6.123,0,0,1-1.6-.686,8.633,8.633,0,0,1-1.941-1.734l-.042-.05a7.608,7.608,0,0,1-1.343-2.385l-.023-.064a8.354,8.354,0,0,1-.536-3.047,5.207,5.207,0,0,1,.458-2.151l.027-.064a4.942,4.942,0,0,1,2.8-2.821,4.8,4.8,0,0,1,1.9-.391,9.882,9.882,0,0,1,2.069.2,15.235,15.235,0,0,1,1.957.677l.04.356.083.782a4,4,0,0,0,.862,2.086l-1.052-.035-.132,0A4,4,0,0,0,471.585,858.017Zm12.3-5.839q.012.568.024,1.188c.011,1.067.012,2.135.016,3.2a4,4,0,0,0-.882-.105H483l-.1,0-.063,0a4,4,0,0,0,.679-2.754c0-.007,0-.065,0-.132,0-.227,0-.47-.028-.725,0-.254.009-.525.014-.79C483.629,852.108,483.752,852.15,483.88,852.178Zm-35.751,0q.012.568.024,1.188c.018,1.831.028,3.677.028,5.5,0,1.835-.019,3.954-.057,6.3,0,.282-.009.544-.013.8-.2-.295-.332-.489-.4-.6l-.069-.105c-.3-.434-.654-.994-1.069-1.663l-2.223-3.7-.245-.455a16.433,16.433,0,0,0,1.072-1.338l.036-.051a9.849,9.849,0,0,0,1.889-5.7c0-.193-.015-.386-.029-.579A4,4,0,0,0,448.129,852.178Zm-36.844.508c.068-.016.136-.033.2-.053.191-.055.312-.081.376-.093h.779a5.229,5.229,0,0,1,2.877.827,7.486,7.486,0,0,1,2.409,2.38,5.982,5.982,0,0,1,.92,2.54l.077,1.622a8.641,8.641,0,0,1-.215,1.953,6.221,6.221,0,0,1-.556,1.52,4.171,4.171,0,0,1-1.711,1.708,5.219,5.219,0,0,1-2.3.671l-1.076-.11a6.072,6.072,0,0,1-1.445-.556,6.636,6.636,0,0,1-.837-.547c-.044-.032-.087-.064-.132-.1a5.621,5.621,0,0,1-.749-.622,7.6,7.6,0,0,1-1.426-1.961l-.029-.055a8.019,8.019,0,0,1-.839-2.5l-.088-.837-.061-.583a5.712,5.712,0,0,1,.124-1.011c.009-.043.018-.086.025-.13a6.949,6.949,0,0,1,.355-1.238l.021-.057a4.5,4.5,0,0,1,1.182-1.764A4.764,4.764,0,0,1,411.285,852.686Zm111.51-2.678a4,4,0,0,0,.905,1.226l0,0-2.477,7.221-.952,2.68.057-2.99.184-5.468q0-.068,0-.135c0-.164,0-.331.008-.5A4,4,0,0,0,522.795,850.008Zm6.694,18.452a4,4,0,0,0-1.242-1.61c.084-.331.178-.7.284-1.1.172-.659.32-1.212.445-1.676q.584-.027,1.255-.063l.835,2.606A4,4,0,0,0,529.489,868.46Z" fill="#fff"/><path id="SOUND" d="M686.548,851.753a11.535,11.535,0,0,0-3.446-4.485,12.581,12.581,0,0,0-3.614-2.106,16.549,16.549,0,0,0-1.779-.614c-.057-.016-.114-.031-.172-.045-.54-.126-1.164-.244-1.855-.351a25.408,25.408,0,0,0-4.239-.366h-.066l-7.5.125c-.125,0-.529-.01-1.819-.06-1.211-.046-1.945-.066-2.384-.066-.053,0-.1.015-.157.017s-.111-.017-.169-.017h-.014c-.052,0-.1,0-.154,0l-1.763.062-1.737.059-1.942-.059-2.179-.063-.115,0a4,4,0,0,0-3.894,4.913l.114.488a4,4,0,0,0,3.427,3.059c.02.8.032,1.712.036,2.73l-3.184-4.457c-.635-.884-1.28-1.8-1.924-2.744-.566-.838-1.1-1.626-1.58-2.345a4,4,0,0,0-3.32-1.77c-.057,0-.115,0-.172,0l-5.884.252a3.909,3.909,0,0,0-.471.073,3.958,3.958,0,0,0-1.192-.2h-.053l-.113,0-1.821.062-1.739.059-1.854-.059-1.9-.063-.131,0a4,4,0,0,0-3.225,1.633c-.022.031-.044.061-.065.092a3.993,3.993,0,0,0-3.284-1.725h-.064l-.078,0-2.155.062-2.143.06-1.748-.059-1.842-.063-.135,0a4,4,0,0,0-2.942,1.29,3.953,3.953,0,0,0-.693,1.1,14.112,14.112,0,0,0-4.18-2.083,17.854,17.854,0,0,0-5.191-.727l-.12,0-.988.03a13.677,13.677,0,0,0-4.225.687,15.155,15.155,0,0,0-3.822,1.879,16.573,16.573,0,0,0-1.927,1.56c.059-.531.119-1.062.19-1.583a4,4,0,0,0-4.943-4.417l-.557.141a4,4,0,0,0-2.424,1.777q-.577-.045-1.167-.044a10.514,10.514,0,0,0-4.5,1.022,9.525,9.525,0,0,0-3.881,3.327,9.206,9.206,0,0,0-1.535,5.2,9.91,9.91,0,0,0,2.45,6.406,4,4,0,0,0-3.348,3.87l-.084,4.369-.261,3.538-.2,2.217a4,4,0,0,0,5.267,4.142l.557-.188A4,4,0,0,0,575,874.9q.492.032.992.032a11.857,11.857,0,0,0,3.873-.642,11.592,11.592,0,0,0,3.442-1.929,9.948,9.948,0,0,0,2.092-2.352c.3.346.6.685.924,1q.054.054.111.105c2.779,2.541,6.488,3.829,11.025,3.829a14.526,14.526,0,0,0,3.806-.524,17.1,17.1,0,0,0,3.355-1.227,15.741,15.741,0,0,0,2.841-1.839,13.469,13.469,0,0,0,2.28-2.394c.354-.477.675-.971.98-1.472a13.475,13.475,0,0,0,.945,1.931l.044.072a11.439,11.439,0,0,0,4.348,4.1c.047.025.1.05.144.073a13.053,13.053,0,0,0,5.746,1.281,12.4,12.4,0,0,0,9.367-3.694,3.949,3.949,0,0,0,3.916,3.286l.13,0,1.956-.063,1.956-.059,2.011.059,1.974.063.128,0a4,4,0,0,0,3.976-4.434l-.057-.519a4,4,0,0,0-3.53-3.54q-.021-.655-.048-1.415-.037-1.188-.073-2.37L644.8,863.8l4.024,5.522,4.041,5.619a3.994,3.994,0,0,0,6.751-.415c.019,0,.037.006.056.006h.044l4.571-.051,4.873-.075a14,14,0,0,0,2.485-.224c.694-.1,1.5-.251,2.412-.45l.057-.013a19.534,19.534,0,0,0,5-1.939,16.775,16.775,0,0,0,4.547-3.767,17.279,17.279,0,0,0,3.953-11.5,11.249,11.249,0,0,0-.261-2.352A12.958,12.958,0,0,0,686.548,851.753Zm-9.279,7.07a6.194,6.194,0,0,1-1.149,3.584,6.776,6.776,0,0,1-3.261,2.4,12.59,12.59,0,0,1-3.459.687h-.052l-.018-1.553-.057-2.744-.057-2.216c0-1.128.039-3.015.112-5.612l.018-.636c.291.016.592.038.9.068l.056,0c.637.052,1.21.114,1.7.184a8.98,8.98,0,0,1,2.254.636c.038.019.077.037.115.054a4.681,4.681,0,0,1,1.992,1.559,5.533,5.533,0,0,1,.854,2.607Zm-81.807-6.137c.068-.016.135-.033.2-.052.192-.056.314-.082.378-.094h.778a5.225,5.225,0,0,1,2.877.827,7.476,7.476,0,0,1,2.409,2.38,5.963,5.963,0,0,1,.921,2.539l.076,1.622a8.574,8.574,0,0,1-.215,1.954,6.116,6.116,0,0,1-.555,1.52,4.225,4.225,0,0,1-1.711,1.708,5.22,5.22,0,0,1-2.3.671l-1.075-.11a6.094,6.094,0,0,1-1.445-.555,6.759,6.759,0,0,1-.837-.548l-.131-.1a5.59,5.59,0,0,1-.751-.622,7.616,7.616,0,0,1-1.425-1.961l-.03-.056a8.025,8.025,0,0,1-.838-2.5l-.088-.838-.061-.582a5.628,5.628,0,0,1,.124-1.013c.009-.042.017-.084.025-.127a6.866,6.866,0,0,1,.355-1.238l.021-.057a4.492,4.492,0,0,1,1.181-1.764A4.768,4.768,0,0,1,595.462,852.686Zm-18.154,12.9a.754.754,0,0,1-.019.2.72.72,0,0,1-.158.187,1.168,1.168,0,0,1-.437.1c-.082-.031-.168-.064-.252-.09a.591.591,0,0,1-.175-.089c-.047-.034-.1-.067-.144-.1a.993.993,0,0,1-.242-.222c-.018-.326-.038-.891-.042-1.83l.8.612a3.116,3.116,0,0,1,.576.732A1.068,1.068,0,0,1,577.308,865.586ZM622.5,850.275a4.006,4.006,0,0,0,2.636,1.912l.07,5.3V862.1c0,3.792-1.111,3.792-2.4,3.792a2.924,2.924,0,0,1-1.323-.3l-.106-.05a2.365,2.365,0,0,1-.689-.915l-.041-.076a5.318,5.318,0,0,1-.545-1.487c-.009-.045-.02-.089-.031-.133a9.788,9.788,0,0,1-.235-2.335l-.056-5.205.027-1.706.028-1.486A4,4,0,0,0,622.5,850.275Z" fill="#fff"/><path id="TRACK" d="M811.422,869.084c-1.317-1.3-4.113-4.53-10.028-12.49L803.1,855l1.952-1.7q.3-.23.834-.659l.056-.046.175-.145.021,0,.054-.01.929-.189a4,4,0,0,0,2.942-2.5l.131-.343a4,4,0,0,0-3.67-5.567h-.062c-.069,0-.137,0-.205.008l-3.184.175-3.561-.178c-.067,0-.133,0-.2,0a3.994,3.994,0,0,1-4.532,0h-.056c-.048,0-.095,0-.142,0l-4.416.18-2.394-.107a3.992,3.992,0,0,0-5.16-2.681l-.585.2a4,4,0,0,0-2.35,2.18c-.774-.063-1.572-.094-2.389-.094a17.656,17.656,0,0,0-6.606,1.079,15.417,15.417,0,0,0-4.324,2.551l-.053.044a16.283,16.283,0,0,0-3.216,3.751,14.527,14.527,0,0,0-1.132,2.228,15.342,15.342,0,0,0-.66,1.837c-.715-2.259-.938-2.953-1.019-3.2-.055-.185-.111-.374-.168-.569a4.006,4.006,0,0,0,1.243-2.176l.081-.393a4,4,0,0,0-3.871-4.964h-.077q-.081,0-.162.006l-3.622.178-3.835-.18c-.063,0-.125,0-.188,0a4,4,0,0,0-4,4v.549a4,4,0,0,0,1.31,2.961l0,0-2.477,7.221-2.374,6.68-.02.055q-.441-.654-1.025-1.6l-2.224-3.7-.246-.456A16.607,16.607,0,0,0,739.7,858.1l.035-.049a9.848,9.848,0,0,0,1.891-5.7,8.454,8.454,0,0,0-.634-3.179c-.018-.044-.036-.088-.056-.131a7.6,7.6,0,0,0-2.054-2.738,8.089,8.089,0,0,0-3.458-1.811q-.761-.192-.977-.251a4.063,4.063,0,0,0-.435-.108,15.064,15.064,0,0,0-2.736-.258l-4.142-.094h-3.886a3.979,3.979,0,0,0-3.526-2.152h0a5.16,5.16,0,0,0-2.4.574,4,4,0,0,0-1.682,1.656c-.994.036-2.193.084-3.607.146-1.376.06-2.576.091-3.568.091-1.456,0-3.409-.062-5.813-.183a4,4,0,0,0-2.974-2.233l-.585-.094a3.946,3.946,0,0,0-.64-.052,4,4,0,0,0-4,4v.864c0,1.536-.12,3.795-.358,6.715a4,4,0,0,0,5.442,4.051l.485-.19a4,4,0,0,0,2.483-3.023l.152-.848q.466-.051.867-.09l.027,5.143c0,.961-.019,2.83-.057,5.69q-.017,1.191-.028,2.17l-.179.02a4,4,0,0,0-3.36,2.717l-.172.519a4,4,0,0,0,3.8,5.258h.1l2.428-.064,2.611-.06,2.694.061,2.354.063h.107a3.956,3.956,0,0,0,3.922-3.295,3.946,3.946,0,0,0,3.917,3.295h.108l4.573-.123,2.044.059,1.974.063.128,0a4,4,0,0,0,4-3.815l1.382,1.664c.324.4.642.774.914,1.074a8.808,8.808,0,0,0,.988.95,4,4,0,0,0,2.5.881,3.957,3.957,0,0,0,.448-.025l1.256-.142a3.979,3.979,0,0,0,1.79-.671c.519-.027,1.175-.041,1.979-.042l3.3.123c.049,0,.1,0,.149,0a4,4,0,0,0,3.073-1.439,4.052,4.052,0,0,0,.469-.7,3.89,3.89,0,0,0,.337.534,4,4,0,0,0,3.205,1.607c.04,0,.08,0,.121,0l4.018-.121,4.3.2c.061,0,.122,0,.183,0a4,4,0,0,0,2.9-1.244,3.846,3.846,0,0,0,.275-.36,17.086,17.086,0,0,0,8.467,2.045,21.071,21.071,0,0,0,5.412-.709c.592-.147,1.117-.3,1.6-.461a4,4,0,0,0,2.376.792l.1,0,5.291-.137,2.107.074,1.456.061c.056,0,.112,0,.168,0a4,4,0,0,0,3.978-4.423L799,869.72q-.018-.173-.051-.342c1.044,1.139,2.107,2.254,3.175,3.33a36.573,36.573,0,0,0,2.793,2.6,3.991,3.991,0,0,0,3.324.794l1.2-.252a4,4,0,0,0,1.986-6.763Zm-15.846-2.9c0-.181,0-.361-.008-.542l.607.673A4.09,4.09,0,0,0,795.576,866.182Zm-11.022-2.161h-.047a3.982,3.982,0,0,0-2.193.681,3.925,3.925,0,0,1-.854.391,14.925,14.925,0,0,1-1.815.486,4.773,4.773,0,0,1-.692.1c-.072,0-.145.01-.217.018a6.559,6.559,0,0,1-.686.039,7.091,7.091,0,0,1-1.013-.077c-.511-.073-.8-.124-.966-.156a6.6,6.6,0,0,1-1.717-.657,5.234,5.234,0,0,1-.735-.522l-.071-.058c-.287-.231-.556-.464-.8-.693a7.929,7.929,0,0,1-1.133-1.827l-.031-.066a9.035,9.035,0,0,1-.7-2.394l-.139-1.441a6.177,6.177,0,0,1,.116-1.084,7.143,7.143,0,0,1,.346-1.1,5.752,5.752,0,0,1,1.247-1.8,5.251,5.251,0,0,1,1.688-1.1c.024-.009.049-.019.073-.03a5.269,5.269,0,0,1,1.769-.192,8.987,8.987,0,0,1,1.442.1,7.9,7.9,0,0,1,1.244.313l.044.015c.016.431.025.958.025,1.6a4,4,0,0,0,2.587,3.742l.5.189a3.956,3.956,0,0,0,3.5-.339l-.065,5.927A4.084,4.084,0,0,0,784.554,864.021Zm-66.661,5.135-.115.518c-.012.055-.007.111-.017.166-.016-.09-.012-.181-.034-.27l-.129-.518a4,4,0,0,0-3.452-3.012l-.256-.028-.116-7.476.056-3.217.029-2.074,0-.238.062.006.315.046-.009.363a4,4,0,0,0,2.859,3.933l.53.157a4,4,0,0,0,3.352-.5c.009,1.446.013,3,.013,4.679s-.008,3.177-.025,4.417A4,4,0,0,0,717.893,869.156Zm34.89-.7a4,4,0,0,0-1.242-1.61c.084-.331.178-.7.284-1.1.172-.659.319-1.212.445-1.676q.583-.027,1.255-.063l.834,2.606A4,4,0,0,0,752.783,868.46Z" fill="#fff"/></g></g><g id="Text"><path d="M237.911,733.146a3.024,3.024,0,0,1,1.879,2.583,3.439,3.439,0,0,1-.88,2.583,57.491,57.491,0,0,0,8.631,14.209,37.2,37.2,0,0,0,14.737,11.154v3.287c-2.348,1.879-3.757,5.871-4.169,11.859a30.562,30.562,0,0,1-4.344-3.875v2.936H239.32v20.2h6.636l3.934-9.158,5.93,9.158v3.288h-16.5v25.127H250.3l4.169-10.1,6.4,10.1v3.288H210.9l-.7-3.288h20.845V801.365H216.128l-.646-3.288h15.56v-20.2h-12.39l-.645-3.053a64.2,64.2,0,0,1-8.279,8.571l-.94-2.7a97.907,97.907,0,0,0,12.8-24.187,193.094,193.094,0,0,0,8.1-27.711C235.152,731.737,237.911,733.146,237.911,733.146Zm6.694,41.566,3.053-7.75a40.568,40.568,0,0,1-2.407-4.462,110.036,110.036,0,0,1-8.514-22.426,126.937,126.937,0,0,1-11.449,24.775,82.675,82.675,0,0,1-7.164,9.863Z" fill="#000000"/><path d="M332.437,734.438c1.292.587,1.938,1.291,1.938,2.231a4.792,4.792,0,0,1-1.82,3.64c-.059,4.931-.177,9.628-.353,14.325q2.907,23.775,7.633,38.394c3.406,10.569,8.631,18.435,15.677,23.367l-.235,3.757c-3.111,1.644-5.049,5.989-5.754,13.268a87.4,87.4,0,0,1-13.5-30.528c-1.762-7.632-3.347-19.256-4.639-34.755-.234,2.7-.47,5.4-.7,7.984-1,12.094-3.23,22.309-6.694,30.763q-6.165,14.09-19.141,26.066l-.94-2.23a104.385,104.385,0,0,0,11.215-21.957c3.581-8.337,6.048-19.609,7.339-33.7.94-10.45,1.409-24.658,1.409-42.5C329.56,733.851,332.437,734.438,332.437,734.438Z" fill="#000000"/><path d="M422.265,739.722a2.623,2.623,0,0,1,1.057,2q0,1.761-2.114,1.761c-3.347,6.458-5.989,10.8-7.985,13.034v.821h2.29l2.759-6.458,4.58,6.458v3.171h-9.629v3.874a16.641,16.641,0,0,1,6.165,4.109,9.427,9.427,0,0,1,2.29,6.224,20.62,20.62,0,0,1-1,6.692c-.529,1.409-1.175,2-2,2-1.644,0-2.583-2.23-2.7-6.809a20.491,20.491,0,0,0-1.467-6.811,24.776,24.776,0,0,0-1.292-2.348V783.4l-7.105,2.349V773.89a52.667,52.667,0,0,1-8.514,13.62l-.7-1.291a139.87,139.87,0,0,0,6.577-25.714H396.9l-.645-3.171h9.864V729.271c4.932,1.41,7.4,2,7.4,2a1.96,1.96,0,0,1,1.762,2.113,3.71,3.71,0,0,1-2.055,3.288v15.146c1.292-5.4,2.465-11.389,3.4-17.964C420.386,737.843,422.265,739.722,422.265,739.722Zm.352,58.825v3.171h-10.04q-.177,3.17-.529,5.988c3.288,1.644,5.637,3.523,7.046,5.753a15,15,0,0,1,1.7,7.163c-.587,4.461-1.879,6.81-3.934,6.81-2,0-2.994-2.349-2.994-6.81a16.9,16.9,0,0,0-2.349-8.572,37.254,37.254,0,0,1-3.464,11.155A38.632,38.632,0,0,1,397.135,835.3l-.7-1.879a55.553,55.553,0,0,0,5.284-10.567c1.644-3.993,2.819-9.394,3.465-16.2q.176-2.289.352-4.931h-8.162l-.7-3.171h8.983c.118-3.64.235-7.749.235-12.328,4.7,1.174,7.046,1.643,7.046,1.643a2.315,2.315,0,0,1,1.644,2,3.2,3.2,0,0,1-1.585,2.7q-.089,3.171-.176,5.988h2.231l2.994-6.81ZM404.063,741.6a12.878,12.878,0,0,1,1.116,4.7c-.235,5.871-1.468,8.688-3.7,8.688-1.585,0-2.407-1.76-2.524-5.518a23.213,23.213,0,0,1,.117-2.465c.059-1.058.117-1.762.117-2.114a42.375,42.375,0,0,0-1.35-9.159l.7-.939A35.315,35.315,0,0,1,404.063,741.6Zm44.917-3.993v3.17H440L434.3,756.4h5.989l2.055-6.458,5.636,6.927a6.314,6.314,0,0,1,1.468,3.641c0,1.057-.645,2.23-1.82,3.64v48.61l-5.695,1.879a13.439,13.439,0,0,1,4.932,2.934,14.116,14.116,0,0,1,3.053,9.394c-.235,4.579-1.174,6.928-2.76,6.928-1,0-1.82-1.057-2.524-2.936-2.349-7.045-5.461-12.094-9.4-14.912l.235-2.817a45.281,45.281,0,0,1,4.815.821v-2.583h-9.219v2.7l-.293.117c2.759,3.053,4.168,4.462,4.168,4.462a3.249,3.249,0,0,1,1.175,2.348c0,.939-.764,1.292-2.29,1.292-7.4,6.575-13.211,10.8-17.438,12.916l-.236-1.879a87.027,87.027,0,0,0,10.922-18.2l-3.347.821V749.467l7.633,6.928h.881V740.778H423.5l-.646-3.17h18.319l3-6.927Zm-8.689,35.225V759.565h-9.219v13.268Zm0,17.5V776.121h-9.219v14.207Zm0,17.848V793.5h-9.219v14.678Z" fill="#000000"/><path d="M526.229,771.113c-.841.749-1.263,1.217-1.31,1.5l-3.839,16.382q-8.145,29.208-25.139,41.565l-.7-2.247q14.466-17.975,21.488-51.674c1.451-6.928,2.2-11.327,2.2-13.107a8.754,8.754,0,0,0-1.076-4.587,29.175,29.175,0,0,0-2.388-2.339l.7-2.248c2.809.749,5.431,2.9,7.864,6.553,2.154,3.277,3.278,5.805,3.278,7.677A3.05,3.05,0,0,1,526.229,771.113Z" fill="#000000"/><path d="M617.045,740.778v3.17H595.966v18.787c0,4.11-.117,7.985-.235,11.507H605.6l3.875-9.158,5.989,9.158v3.17H596.554c2.23,10.45,5.107,18.9,8.748,25.48,4.227,7.631,8.69,12.8,13.387,15.381v3.17c-3.17,2.232-5.049,6.106-5.754,11.977-4.815-5.753-8.69-13.033-11.684-21.957-2.7-7.4-4.757-16.673-6.166-27.71-.293,3.287-.646,6.341-1.115,9.158-1.821,10.686-4.7,19.257-8.69,25.832-3.993,6.106-9.924,11.272-17.732,15.616l-.705-2.818a73.975,73.975,0,0,0,17.438-31.468,116.2,116.2,0,0,0,3.054-22.661H570.953l-.645-3.17h17.144c.117-3.522.236-7.4.236-11.507V743.948H567.782l-.7-3.17H607.65l3.7-8.688Z" fill="#000000"/><path d="M712.04,795.377v3.17H689.845a35.041,35.041,0,0,0,8.22,9.159,40.435,40.435,0,0,0,14.209,7.4v3.17c-2.231,1.879-3.522,5.636-3.933,11.507a36.473,36.473,0,0,1-12.272-12.563,72.51,72.51,0,0,1-6.753-13.033v28.3l-7.808,2.349V808.41c-6.342,10.1-13.8,17.378-22.488,22.31l-.236-2.349c6.4-7.28,12.33-17.26,17.85-29.824H660.429l-.7-3.17h21.784V784.81c5.518,1.409,8.337,2.113,8.337,2.113a2.4,2.4,0,0,1,2,2.466,4.311,4.311,0,0,1-2.526,3.639v2.349h13.975l3.464-7.867Zm-21.49-64.931a1.3,1.3,0,0,1,.587,1.174,3.542,3.542,0,0,1-1.821,2.7c-.939,2.583-2.054,5.284-3.346,8.337h3.346l2.056-7.4,5.637,6.928a6.315,6.315,0,0,1,1.468,3.639c0,1.057-.647,2.232-1.821,3.64V783.4l-7.34,2.349V781.64h-8.044v2.7l-6.869,2.348V770.367l-9.16,14.912c-.176,2.819-.587,4.11-1.174,4.11-.352,0-.763-.587-1.116-1.879,0,0-1.174-4.227-3.464-12.8,5.52-3.288,10.451-6.341,14.914-9.394V735.729l6.576,6.928h1l.234-14.677C687.731,729.624,690.55,730.446,690.55,730.446ZM669.412,742.54c2.407,3.053,3.641,7.279,3.641,12.445-.353,5.167-1.645,7.75-3.935,7.75-1.526,0-2.524-1.643-2.994-5.048-.587-7.4-2-12.916-4.345-16.439l.47-2.349C664.715,738.9,667.122,740.191,669.412,742.54Zm19.9,17.025V745.827h-8.044v13.738Zm0,18.787V762.735h-8.044v15.617Zm7.927-17.378-.47-1.878a119.783,119.783,0,0,0,8.044-22.427c4.052,5.166,6.107,7.749,6.107,7.749a3.752,3.752,0,0,1,.764,2.349c0,1.056-.353,1.643-.94,1.761a2.225,2.225,0,0,1-1.351-.469C705.581,754.047,701.529,758.391,697.243,760.974Zm9.219,5.871c2.76,2.7,4.169,6.341,4.169,11.037-.294,5.636-1.586,8.337-3.876,8.337-1.7,0-2.76-1.644-3.229-5.049-.822-6.811-2.759-11.859-5.93-15.147l.645-2.348A12.824,12.824,0,0,1,706.462,766.845Z" fill="#000000"/><path d="M768.282,731.737a2.585,2.585,0,0,1,.236,3.875,17.1,17.1,0,0,1,3.992,2.466c2.7,2.818,4.11,6.693,4.11,11.389-.293,4.7-1.35,6.928-3.229,6.928-1.468,0-2.408-1.291-2.76-4.11-.7-5.4-2.113-9.628-4.286-12.8-2.76,8.923-5.343,16.321-7.75,21.956h7.691l2.76-6.458,4.58,6.458v3.171H767.4v15.147h.705l3-6.928,4.58,6.928v3.17H767.4v22.192q1.763-7.926,3-17.613c3.641,3.992,5.46,5.871,5.46,5.871a2.956,2.956,0,0,1,1,2c0,.939-.646,1.409-1.878,1.409-3.054,6.811-5.579,11.741-7.576,14.56v4.579c1.586-.235,3.171-.353,4.757-.587q-.528-1.761-1.057-3.875c4.874-3.053,9.218-5.988,13.093-8.806l.236,1.408-8.28,16.557c-.117,2.465-.469,3.64-.939,3.64-.353,0-.7-.47-1-1.645,0,0-.411-1.408-1.175-4.226l-14.8,11.389c-.47,1.761-.881,2.7-1.35,2.7s-1-1.291-1.585-3.639c0,0-1-3.875-3-11.507,2.642-.235,5.285-.47,7.985-.7v-33.7h-6.635l-.7-3.17H760.3V764.614h-3.053a56.579,56.579,0,0,1-4.052,7.749l-.645-1.291c2.818-10.333,5.4-24.892,7.75-43.561C765.582,730.328,768.282,731.737,768.282,731.737Zm-9.394,67.045a26.8,26.8,0,0,1,1,6.693c-.235,4.931-1.35,7.28-3.229,7.28q-2.2,0-2.29-4.579c0-.94,0-2.232.117-4.111.059-1.643.118-2.817.118-3.287a68.261,68.261,0,0,0-1.174-10.92l.7-.939A52.127,52.127,0,0,1,758.888,798.782Zm41.16-61.291a7.6,7.6,0,0,1,1.585,4.227c0,.939-.7,2.23-2.113,3.639v23.249l2.29-5.4,4.638,6.928v3.17H793.354v.117a105.179,105.179,0,0,0,3.17,16.791l3-13.15c4.11,4.93,6.165,7.279,6.165,7.279a3.546,3.546,0,0,1,.763,1.879c0,.821-.7,1.291-2.114,1.291l-6.4,7.045c0,.118.058.118.058.118a39.31,39.31,0,0,0,8.865,14.442l-.234,2.7q-3.524,1.761-4.58,10.568a65.3,65.3,0,0,1-6.869-20.078c-.7-3.523-1.351-7.632-1.821-12.094v30.411c0,4.461-.939,7.983-2.7,10.449s-3.757,3.758-6.048,3.758c-.939,0-1.409-1.526-1.409-4.462a12.264,12.264,0,0,0-1.526-6.692,6.388,6.388,0,0,0-3.23-2.232v-2.7h7.34V773.3H773.626l-.7-3.17h19.024V755.455H777.267l-.647-3.17h15.325V740.309H776.62l-.7-3.17H791.3l2.76-7.868Zm-16.969,49.784a22.384,22.384,0,0,1,1.115,7.163c-.587,4.7-1.879,6.927-3.933,6.927-1.879,0-2.76-2.23-2.76-6.927a46.632,46.632,0,0,0-1.351-11.977l.705-1.761A14.794,14.794,0,0,1,783.079,787.275Z" fill="#000000"/><path d="M222.016,848.169v-.779a1.6,1.6,0,0,1,.065-.673,1.851,1.851,0,0,1,.29-.568l.289-.283a.959.959,0,0,1,.419-.212.981.981,0,0,1,.419.142c.128.07.225.142.354.212a3.026,3.026,0,0,1,.321.319,1.487,1.487,0,0,1,.194.248,1.123,1.123,0,0,1,.064.319l-.032,1.345,9.047.142a.93.93,0,0,1,.354.213,1.165,1.165,0,0,1,.1.46l-.354.992a.333.333,0,0,1-.225.283.432.432,0,0,1-.354.07c-1.417-.176-2.865-.318-4.282-.424s-2.833-.177-4.25-.177v2.443l4.314.035a3.228,3.228,0,0,0,.58-.035,1.889,1.889,0,0,0,.579-.213c.065,0,.161-.035.258-.035a2.338,2.338,0,0,0,.257.107l1.095.6c.065.07.1.142.161.212a2.412,2.412,0,0,1,.1.283,1.277,1.277,0,0,1-.1.532,1.219,1.219,0,0,1-.29.5,2.526,2.526,0,0,0-.322.744,2.079,2.079,0,0,0-.128.778c-.033,1.063-.1,2.09-.161,3.117-.1,1.027-.226,2.054-.419,3.046a.75.75,0,0,1-.128.212c-.065.071-.129.142-.194.142l-.515.141a.379.379,0,0,1-.193-.035.269.269,0,0,1-.161-.035.676.676,0,0,1-.226-.425,1.421,1.421,0,0,1-.064-.5l-3.7-.106a33.029,33.029,0,0,0,3.735,3.435,26.621,26.621,0,0,0,4.282,2.763,2.258,2.258,0,0,0,1.063.353,2.389,2.389,0,0,0,1.127-.035l2.7-.5a.5.5,0,0,1,.322.107.381.381,0,0,1,.161.318l-3.7,3.648a.608.608,0,0,1-.451.212.565.565,0,0,1-.483-.105,34.858,34.858,0,0,1-4.958-3.755,49.9,49.9,0,0,1-4.443-4.427l.064,8.429a1.606,1.606,0,0,1-.1.567,2,2,0,0,1-.258.532c-.161.141-.354.318-.548.459a5.26,5.26,0,0,1-.675.249h-.226a.3.3,0,0,1-.193-.142l-.354-.531a.787.787,0,0,1-.129-.39.971.971,0,0,1-.065-.425v-9.491a31.737,31.737,0,0,1-4.249,4.533,29.031,29.031,0,0,1-4.991,3.613.822.822,0,0,1-.451.141.639.639,0,0,1-.45-.141c-.451-.213-.9-.425-1.352-.6-.483-.142-.966-.318-1.417-.46-.29-.071-.547-.142-.805-.213a6.227,6.227,0,0,1-.772-.248.323.323,0,0,1-.258-.142.546.546,0,0,1-.194-.283l-.064-.283a1.626,1.626,0,0,1,.451-.354,1.73,1.73,0,0,1,.58-.142,8.077,8.077,0,0,0,1.32,0,8.566,8.566,0,0,0,1.319-.106,6.987,6.987,0,0,0,1.642-.425,6.522,6.522,0,0,0,1.546-.815A43.93,43.93,0,0,0,217.509,864c1.159-.921,2.318-1.877,3.445-2.9a10.876,10.876,0,0,0-2.157.248,9.751,9.751,0,0,0-2.061.744.383.383,0,0,1-.386.035.475.475,0,0,1-.258-.248.712.712,0,0,1-.258-.425.9.9,0,0,1-.031-.5c.064-.991.128-1.982.16-2.974.033-.957.033-1.949.033-2.94l-.58-.744a2.071,2.071,0,0,1-.386-.815,1.876,1.876,0,0,1-.065-.956.4.4,0,0,1,.258-.353.494.494,0,0,1,.386-.036,2.246,2.246,0,0,0,.483.071.971.971,0,0,0,.451,0l5.441.035.064-2.443c-1.094.07-2.189.141-3.251.212-1.095.106-2.19.213-3.252.283-.322.071-.612.143-.869.213-.29.141-.548.248-.8.354-.065.071-.1.106-.161.106s-.129,0-.161-.07a.115.115,0,0,1-.129-.107c-.032-.035-.032-.07-.032-.142l-.225-1.593a.239.239,0,0,1,0-.212.637.637,0,0,1,.064-.178l.354-.39a.483.483,0,0,1,.257-.141h.258Zm-4.121,7.436,4.153.037-.064-1.913h-4.121Zm0,4h4.121l.032-2.195h-4.185Zm6.6-3.93,4.442.035V853.8l-4.442-.036Zm0,3.93,4.475.037-.033-2.2-4.442-.035Z" fill="#000000"/><path d="M247.613,866.337a7.462,7.462,0,0,0,2.543-1.346,30.377,30.377,0,0,0,4.315-4.746,31.836,31.836,0,0,0,3.316-5.631.793.793,0,0,0,.129-.389.673.673,0,0,0-.129-.355l-.387-.743a29.737,29.737,0,0,0-4.346,0,40.4,40.4,0,0,0-4.282.637c-.676.142-1.32.284-1.964.354a11.8,11.8,0,0,1-1.932.177.865.865,0,0,1-.451-.106.728.728,0,0,1-.321-.319,1.871,1.871,0,0,1-.322-.743,2.486,2.486,0,0,1-.032-.851.715.715,0,0,1,.063-.318.845.845,0,0,1,.194-.318l.258-.355a.831.831,0,0,1,.321-.248,1.45,1.45,0,0,1,.387-.035c2.092-.142,4.217-.248,6.375-.283,2.125,0,4.25,0,6.406.035v-.708l-.192-.744a3.372,3.372,0,0,0-.258-.46,1.777,1.777,0,0,0-.354-.355,1.076,1.076,0,0,1-.419-.637,1.16,1.16,0,0,1-.032-.744l.966-.6a1.229,1.229,0,0,1,.612-.177,1.706,1.706,0,0,1,.579.142l.9.5a1.075,1.075,0,0,1,.321.354,2.245,2.245,0,0,0,.129.5,12.619,12.619,0,0,0-.1,1.523c-.065.5-.129.992-.193,1.452,2.124,0,4.314,0,6.5-.035,2.157,0,4.347-.071,6.536-.177a.506.506,0,0,1,.386.177.985.985,0,0,1,.064.425,4.378,4.378,0,0,1-.354,1.169,5.612,5.612,0,0,1-.644,1.062.613.613,0,0,1-.321.283.678.678,0,0,1-.451.036q-2.994-.265-5.892-.425c-1.964-.071-3.928-.142-5.859-.142a2.478,2.478,0,0,1,.354.85,2.289,2.289,0,0,1-.194.957l3.8,1.77a1.379,1.379,0,0,0,.451.177.95.95,0,0,0,.451.106.926.926,0,0,1,.322.142,1.817,1.817,0,0,1,.257.213l.58.885a2.279,2.279,0,0,1,.161.425,1.065,1.065,0,0,1-.129.46,39.268,39.268,0,0,1-2.608,7.083,35.465,35.465,0,0,1-3.927,6.34,1.631,1.631,0,0,1-.516.319,1.09,1.09,0,0,1-.579-.035,11.553,11.553,0,0,1-3.381-1.488l.322-.815a1.016,1.016,0,0,1,.258-.39,1.418,1.418,0,0,1,.45-.177l1.224-.141a1.692,1.692,0,0,0,.869-.283,1.982,1.982,0,0,0,.676-.638,26.124,26.124,0,0,0,2.833-4.64,28.682,28.682,0,0,0,1.965-5.1l-4.508-2.161a49.711,49.711,0,0,1-3.7,6.375,46.877,46.877,0,0,1-4.637,5.631,1.335,1.335,0,0,1-.676.39.979.979,0,0,1-.773,0,7.482,7.482,0,0,1-2.156-.708,8.276,8.276,0,0,1-1.965-1.24.441.441,0,0,1-.225-.39.518.518,0,0,1,.161-.39A6.717,6.717,0,0,0,247.613,866.337Z" fill="#000000"/><path d="M280,863.149a1.73,1.73,0,0,1,.58.142.6.6,0,0,0,.161.142,1.789,1.789,0,0,1,.1.248c.064.212.1.5.16.779a6.275,6.275,0,0,0,.129.814,13.085,13.085,0,0,1-.386,3.188,11.112,11.112,0,0,1-1.32,2.9.331.331,0,0,1-.225.106A.224.224,0,0,1,279,871.4l-.354-.106a.3.3,0,0,1-.193-.283.351.351,0,0,1,0-.355q.241-1.062.483-2.231c.129-.708.29-1.451.419-2.231a2.818,2.818,0,0,0-.032-.461,1.412,1.412,0,0,0-.161-.389l-.226-.283a.344.344,0,0,1-.193-.319.418.418,0,0,1,0-.389l.29-.886c0-.071.064-.107.129-.177a.346.346,0,0,1,.257-.106A2.8,2.8,0,0,1,280,863.149Zm4.412-17.247a1.219,1.219,0,0,1,.515.071,4.819,4.819,0,0,0,.547.354,6.245,6.245,0,0,1,.451.46,1.4,1.4,0,0,1,.129.319,1.348,1.348,0,0,1,.032.319,13.86,13.86,0,0,1,1.578,1.842,14.14,14.14,0,0,1,1.19,2.195,1.847,1.847,0,0,1,0,1.027,1.31,1.31,0,0,1-.611.78,9.611,9.611,0,0,1-1.481.566,6.089,6.089,0,0,1-1.578.248,21.947,21.947,0,0,1,1.707,2.3,27.592,27.592,0,0,1,1.319,2.586,1.505,1.505,0,0,1,.033.991,1.66,1.66,0,0,1-.612.814,7.966,7.966,0,0,1-4.025.85,8.452,8.452,0,0,1-4.024-1.026l-.386-.78a.816.816,0,0,1-.032-.5.883.883,0,0,1,.161-.46,17.644,17.644,0,0,1,1.867-2.586,20.409,20.409,0,0,1,2.254-2.23,5.277,5.277,0,0,1-1.675-.071,7.888,7.888,0,0,1-1.609-.5.723.723,0,0,1-.322-.318.65.65,0,0,1-.194-.46,1.469,1.469,0,0,1-.032-.744,1.77,1.77,0,0,1,.258-.638,31.078,31.078,0,0,1,1.867-2.762,25.54,25.54,0,0,1,2.222-2.444A.921.921,0,0,1,284.414,845.9Zm-1.481,11.722a9.783,9.783,0,0,0-1.192,1.913,5.985,5.985,0,0,0,2.383.248,6.4,6.4,0,0,0,2.318-.673,8.052,8.052,0,0,0-.805-1.7,9.074,9.074,0,0,0-1.191-1.346A9.439,9.439,0,0,0,282.933,857.624Zm.354-7.4a9.192,9.192,0,0,0-1.16,1.629,5.128,5.128,0,0,0,1.8.319,5.725,5.725,0,0,0,1.867-.213l.773-.5a6.991,6.991,0,0,0-.773-1.452,7.414,7.414,0,0,0-1.1-1.2A11.215,11.215,0,0,0,283.287,850.223Zm.708,12.36a1.873,1.873,0,0,1,.74.177c.065.106.129.213.194.318a1.755,1.755,0,0,1,.032.39c-.032,1.1-.1,2.2-.193,3.259-.129,1.132-.322,2.2-.516,3.222a.909.909,0,0,1-.225.355.385.385,0,0,1-.386.035.318.318,0,0,1-.225-.142.637.637,0,0,1-.162-.248,1.113,1.113,0,0,1-.193-.5,1.325,1.325,0,0,1-.064-.531,17.51,17.51,0,0,1-.064-2.267c.032-.779.1-1.522.192-2.3a2.9,2.9,0,0,1-.128-.567,4.8,4.8,0,0,1-.064-.673.4.4,0,0,1,.1-.248.447.447,0,0,1,.225-.213A2.342,2.342,0,0,1,284,862.583Zm11.719-15.619a.337.337,0,0,1,.226.106,1.4,1.4,0,0,1,.354.425,1.616,1.616,0,0,1,.225.567,32.157,32.157,0,0,1,.419,4.6,37.007,37.007,0,0,1-.29,4.64c-.065,1.133-.193,2.231-.354,3.294-.129,1.132-.258,2.23-.451,3.293a17.622,17.622,0,0,1-.579,2.656,15.418,15.418,0,0,1-1,2.514l-1.321,1.205a1.289,1.289,0,0,1-.612.141,1.207,1.207,0,0,1-.611-.141,14.013,14.013,0,0,1-1.513-.956c-.515-.355-1.03-.708-1.481-1.063l.161,1.665-.515,1.274c-.033.072-.065.142-.129.142a.131.131,0,0,1-.161,0,.319.319,0,0,1-.226-.142.616.616,0,0,1-.16-.248,16.343,16.343,0,0,1-.548-2.266,14.333,14.333,0,0,1-.225-2.337,4.11,4.11,0,0,0-.1-.886c-.064-.283-.129-.6-.193-.886l-.354-.991a.476.476,0,0,1,.032-.354.292.292,0,0,1,.226-.212c.225-.071.45-.142.708-.213a2.178,2.178,0,0,1,.676,0,.713.713,0,0,1,.289.248.457.457,0,0,1,.1.318c0,.78.065,1.559.129,2.3.064.779.129,1.558.258,2.3a1.814,1.814,0,0,1,.515-.283,3.036,3.036,0,0,1,.611-.142,1.7,1.7,0,0,0,.58.106,3.555,3.555,0,0,0,.644.071,1.505,1.505,0,0,0,.837-.283,2.267,2.267,0,0,0,.676-.6,13.322,13.322,0,0,0,1.224-2.338,14.647,14.647,0,0,0,.708-2.585,11.192,11.192,0,0,0-2.221.425c-.741.248-1.45.5-2.158.779q-.194.213-.386.106a.386.386,0,0,1-.322-.177,1.838,1.838,0,0,1-.322-.921,2.58,2.58,0,0,1,0-.991.823.823,0,0,1,.225-.39.786.786,0,0,1,.355-.283c.837-.071,1.673-.142,2.543-.142.837,0,1.674,0,2.511.036l.194-2.833a13.139,13.139,0,0,0-1.707,0,12.6,12.6,0,0,0-1.674.283,1.226,1.226,0,0,1-.58.177,1.8,1.8,0,0,1-.612.071.347.347,0,0,1-.321-.071.53.53,0,0,1-.258-.284,2.154,2.154,0,0,1-.161-1.558.441.441,0,0,1,.193-.354,1.183,1.183,0,0,1,.355-.178,18.429,18.429,0,0,1,2.414-.141,17.614,17.614,0,0,1,2.351.283v-2.691l-4.218.141a1.363,1.363,0,0,1-.612-.921,1.711,1.711,0,0,1,.032-1.132.785.785,0,0,1,.225-.32,1.121,1.121,0,0,1,.387-.07l4.25.283v-1.346a2.744,2.744,0,0,1-.387-.672,4.773,4.773,0,0,1-.354-.708.8.8,0,0,1,0-.39.472.472,0,0,1,.258-.248,2.5,2.5,0,0,0,.515-.283,2.128,2.128,0,0,0,.483-.355A.438.438,0,0,1,295.714,846.964Zm6.246-.106.193.212a.947.947,0,0,1,.033.284c-.064.212-.129.389-.161.531a1.683,1.683,0,0,0,0,.567v2.125c.837,0,1.642,0,2.479.07a15.307,15.307,0,0,1,2.479.425c.032,0,.064.036.129.072l.1.106v.212c0,.071-.032.106-.032.142a2.873,2.873,0,0,1-.483.744,3.337,3.337,0,0,1-.644.566c-.708.107-1.384.177-2.06.213a13.58,13.58,0,0,1-2.061.035l.1,2.692c.676,0,1.352.035,2.06.071.676.07,1.385.141,2.093.212a2.855,2.855,0,0,0,.322.213.484.484,0,0,1-.032.849,4.2,4.2,0,0,1-.386.39,1.734,1.734,0,0,1-.355.178.643.643,0,0,1-.354.07,13.836,13.836,0,0,1-1.706.142,8.778,8.778,0,0,1-1.674-.036v3.223c1.223.035,2.446.035,3.67.035s2.479,0,3.7-.07a.894.894,0,0,1,.323.07,1.072,1.072,0,0,1,.257.283.164.164,0,0,1-.032.107l-.065.141c-.128.178-.289.355-.418.532a6.181,6.181,0,0,1-.451.5.821.821,0,0,1-.418.283,1.257,1.257,0,0,1-.483.142,30.667,30.667,0,0,1-3.091.248c-1.03.071-2.029.106-3.059.106.032,1.346,0,2.656-.064,4a39.025,39.025,0,0,1-.386,3.931,2,2,0,0,1-.162.531,1.381,1.381,0,0,1-.321.425l-1.1.957a2.929,2.929,0,0,1-.612-.673,1.764,1.764,0,0,1-.226-.921c0-2.408.065-4.816.194-7.261q.1-3.559.289-7.224l.258-6.659c0-.211-.032-.424-.032-.637-.032-.212-.064-.46-.1-.673a5.324,5.324,0,0,1-.193-1.026,4.217,4.217,0,0,1,.033-1.1.731.731,0,0,1,.193-.5,1.416,1.416,0,0,1,.386-.39c.1-.036.225-.071.354-.106a.789.789,0,0,1,.386.106Z" fill="#000000"/><path d="M316.385,849.939a1.006,1.006,0,0,1,.386-.141c.934-.071,1.868-.142,2.833-.213.934-.035,1.868-.07,2.834-.07l-.033-.815a.929.929,0,0,0,0-.426c-.064-.141-.128-.283-.193-.424a.322.322,0,0,1-.161-.284.443.443,0,0,1-.032-.354,1.275,1.275,0,0,1,.322-.743,1.5,1.5,0,0,1,.579-.531,1.466,1.466,0,0,1,.387-.072,3.256,3.256,0,0,1,.451.142,3.627,3.627,0,0,1,.483.283l.386.426a3.877,3.877,0,0,1,.064.566,2.355,2.355,0,0,1-.064.531,1.657,1.657,0,0,0-.065.39,1.467,1.467,0,0,0-.032.354l.032,1.062c.645.036,1.321.071,1.964.142s1.321.142,1.965.213c.1.035.193.071.321.106.065.07.162.142.226.212l.322.461a.346.346,0,0,1,.032.177.548.548,0,0,1-.064.213l-.741,1.062a.282.282,0,0,1-.225.106.319.319,0,0,1-.258,0c-.58-.071-1.159-.141-1.706-.212-.58-.036-1.127-.072-1.707-.072l3.252,4.145.064.353v.248a.352.352,0,0,1-.16.213.638.638,0,0,1-.354.071.473.473,0,0,1-.323-.142l-2.608-1.239v3.86c0,.212-.032.425-.032.638a2.167,2.167,0,0,1-.193.6,4.1,4.1,0,0,1-.322.673,1.954,1.954,0,0,1-.483.567c-.064.106-.129.141-.193.141a.177.177,0,0,1-.193-.141,1.013,1.013,0,0,1-.418-.5,1.654,1.654,0,0,1-.226-.673l-.064-6.447a16.191,16.191,0,0,1-1.578,2.621,17.929,17.929,0,0,1-2,2.232,2.84,2.84,0,0,1-1.159.531,2.162,2.162,0,0,1-1.256-.141l-2.125-1.205.483-.709a3.156,3.156,0,0,0,1.481-.248,4.775,4.775,0,0,0,1.32-.814,10.868,10.868,0,0,0,1.932-2.019,10.68,10.68,0,0,0,1.417-2.478c-.773.07-1.514.141-2.222.247-.74.142-1.481.284-2.189.461a.306.306,0,0,1-.29.07A.369.369,0,0,1,316,852.7l-.58-1.027a.285.285,0,0,1-.032-.283.517.517,0,0,1,.064-.284l.644-.885A.791.791,0,0,1,316.385,849.939ZM318.9,862.76a.072.072,0,0,1,0-.107.14.14,0,0,1,.032-.106.393.393,0,0,1,.1-.07,1.412,1.412,0,0,1,.451-.248c.128-.036.289-.072.482-.142h.194a.77.77,0,0,1,.225.142,2.406,2.406,0,0,1,.322.318,2.257,2.257,0,0,0,.258.319,2.628,2.628,0,0,1,.128.354v.389c-.386,1.524-.74,3.046-1.127,4.534-.418,1.487-.836,3.01-1.223,4.5a1.942,1.942,0,0,1-.161.389,1.245,1.245,0,0,1-.322.283.717.717,0,0,1-.257.036.3.3,0,0,1-.194-.142,4.943,4.943,0,0,1-.676-.779,4.323,4.323,0,0,1-.579-.92.564.564,0,0,1-.1-.355,1.9,1.9,0,0,1,.032-.424c.451-1.134.9-2.3,1.32-3.471.387-1.169.773-2.338,1.159-3.471a1.171,1.171,0,0,0,.1-.461,1.052,1.052,0,0,0-.1-.46C318.928,862.83,318.9,862.8,318.9,862.76Zm7.341-.673a2.014,2.014,0,0,1,.547.283l.515.673a.982.982,0,0,0,.065.248v.248l-.709,3.789a18.757,18.757,0,0,0,8.854,2.9,18.366,18.366,0,0,0,9.176-1.628,1.335,1.335,0,0,1,.419.353,1.319,1.319,0,0,1,.193.5,1.47,1.47,0,0,1-.032.39.42.42,0,0,1-.29.248,13.38,13.38,0,0,1-3.058,1.877A14.677,14.677,0,0,1,338.5,873a7.539,7.539,0,0,1-1.77.212,6.9,6.9,0,0,1-1.739-.212c-1.642-.461-3.252-.921-4.862-1.487-1.609-.531-3.219-1.1-4.764-1.7a.409.409,0,0,1-.258-.213.38.38,0,0,1-.129-.283l-.128-.6a1.541,1.541,0,0,1-.548-.673,1.738,1.738,0,0,1-.161-.921,9.094,9.094,0,0,1,.226-1.558,8.177,8.177,0,0,1,.354-1.488,1.965,1.965,0,0,0,.064-.461c-.032-.105-.064-.248-.1-.389a.206.206,0,0,1-.064-.177.389.389,0,0,1,.032-.318,1.164,1.164,0,0,1,.386-.425,1.439,1.439,0,0,1,.58-.213A.9.9,0,0,1,326.237,862.087Zm4.539-14.981a.562.562,0,0,1,.258-.071l7.437.319.644-.354a.462.462,0,0,1,.258-.071,1.118,1.118,0,0,1,.322.035l1.255.638c.065.071.161.141.226.212a1.13,1.13,0,0,1,.064.319c0,.213-.032.389-.032.531-.064.213-.129.39-.193.566a1.54,1.54,0,0,0-.1.532,1.931,1.931,0,0,0-.064.6l-.032,8.607a2.292,2.292,0,0,1-.129.708,1.2,1.2,0,0,1-.419.566l-.934.6a2.011,2.011,0,0,0-.45-.285,1.518,1.518,0,0,0-.548-.105l-4.539-.283a7.239,7.239,0,0,0-.9.035,8.55,8.55,0,0,0-.933.177,6.414,6.414,0,0,0-.773.248,7.152,7.152,0,0,1-.805.283.576.576,0,0,1-.386-.142.605.605,0,0,1-.258-.318.793.793,0,0,1-.129-.39.559.559,0,0,1,.065-.389c.29-1.559.515-3.117.708-4.746.129-1.594.193-3.188.193-4.817a3.833,3.833,0,0,0-.064-.6c-.064-.178-.161-.355-.226-.532l-.289-.637a.372.372,0,0,1-.032-.32.339.339,0,0,1,.1-.247l.483-.5A1.378,1.378,0,0,1,330.776,847.106Zm.773,15.3a.521.521,0,0,1,.193-.105h.773a1.86,1.86,0,0,1,.708.177c.129.07.258.176.387.248a4.749,4.749,0,0,1,.161.5c0,.177.032.354.032.5v.461c-.193.636-.386,1.274-.58,1.877q-.386.954-.676,1.805c-.032.072-.064.142-.1.142a.224.224,0,0,1-.194.071c-.064,0-.1,0-.129-.071-.064,0-.1-.07-.128-.142l-.161-.283a.464.464,0,0,1-.129-.318.617.617,0,0,1-.1-.32V866.2a5.788,5.788,0,0,1,.032-.744,3.482,3.482,0,0,0-.1-.814,3.413,3.413,0,0,0-.354-.708.462.462,0,0,1-.1-.32.362.362,0,0,1,.065-.248,1.38,1.38,0,0,1,.064-.388.594.594,0,0,1,.161-.39C331.42,862.547,331.485,862.477,331.549,862.405Zm1-3.824,6.118.106-.033-2.2-6.085.035Zm.065-7.437,6.053-.178-.033-1.841-5.988.105Zm0,3.753,6.02-.141.033-2.16-6.053.141Zm4.121,7.4h.193l1.835.5c.065,0,.1.035.129.106a.468.468,0,0,0,.1.142l.033.461a4.257,4.257,0,0,0-.162.46,1.528,1.528,0,0,0,0,.531,8.9,8.9,0,0,1,.1,1.311,5.8,5.8,0,0,1-.161,1.31,3.315,3.315,0,0,1-.257.6,3.967,3.967,0,0,1-.354.566c-.129.071-.258.107-.355.036a.369.369,0,0,1-.257-.283,9.034,9.034,0,0,1-.29-1.275,9.256,9.256,0,0,1-.193-1.311c-.032-.141-.065-.318-.129-.531a2.915,2.915,0,0,1-.257-.425l-.355-.6a.37.37,0,0,1-.1-.284.366.366,0,0,1,.064-.248l.29-.884A.229.229,0,0,1,336.733,862.3Z" fill="#000000"/><path d="M365.2,846.964c2.8,0,5.6.178,8.435.461a.692.692,0,0,1,.258.177.416.416,0,0,1,0,.283c-.065.284-.129.531-.194.744a4.244,4.244,0,0,1-.354.673,1.317,1.317,0,0,1-.354.248.583.583,0,0,1-.419.035c-1.319-.177-2.672-.283-4.024-.355q-2.028-.053-4.057,0a3.954,3.954,0,0,1,.837,1.1,4.3,4.3,0,0,1,.323,1.416c.032.567.032,1.1.032,1.665-.032.567-.065,1.1-.129,1.664,1.32,0,2.64.036,3.992.107,1.288.071,2.608.176,3.96.354.032.107.064.212.1.319v.319l-.419,1.487a.639.639,0,0,1-.225.283.346.346,0,0,1-.322.071,2.5,2.5,0,0,1-.74-.106,5.308,5.308,0,0,1-.741-.071c-1.03-.213-2.028-.355-3.026-.5a30.858,30.858,0,0,0-3.124-.177,39.271,39.271,0,0,0,10.689,10.943,4.045,4.045,0,0,0,1.546.532,4.134,4.134,0,0,0,1.61-.071,5.8,5.8,0,0,1,1.127-.106c.386,0,.772,0,1.159.035a2.279,2.279,0,0,1-.194.673.946.946,0,0,1-.482.425l-3.413,2.3a2.034,2.034,0,0,1-1.256.39,1.886,1.886,0,0,1-1.224-.39,39.667,39.667,0,0,1-5.376-5.772,45.2,45.2,0,0,1-4.411-6.658,27.781,27.781,0,0,1-2.7,5.419,24.993,24.993,0,0,1-3.9,4.5,4.1,4.1,0,0,1-.9.673,6.85,6.85,0,0,1-1,.531,1.636,1.636,0,0,1-.708.177,1.764,1.764,0,0,1-.74-.035,18.988,18.988,0,0,1-2.448-.921,17.07,17.07,0,0,1-2.35-1.2.236.236,0,0,1-.129-.178.288.288,0,0,1-.032-.177.315.315,0,0,1,.1-.212.174.174,0,0,1,.161-.106,2.345,2.345,0,0,1,.708-.213,2.77,2.77,0,0,1,.741.141,6.448,6.448,0,0,0,2.028.072,6.714,6.714,0,0,0,2-.532,13.6,13.6,0,0,0,4.7-4.108,15.127,15.127,0,0,0,2.575-6.056c-1.062.071-2.125.177-3.187.284-1.1.141-2.157.318-3.22.531a.829.829,0,0,1-.579.035.757.757,0,0,1-.483-.318l-.258-.957a1.087,1.087,0,0,1,.226-.921,1.058,1.058,0,0,1,.772-.5c1.16-.107,2.351-.178,3.542-.248l3.509-.107.194-2.09-.9-1.062a.383.383,0,0,1-.161-.319.525.525,0,0,1,0-.318c.1-.319.226-.673.354-1.027a4.8,4.8,0,0,1,.451-.921,30.6,30.6,0,0,0-3.155.248c-1.062.141-2.093.283-3.123.425a.328.328,0,0,1-.322-.036.407.407,0,0,1-.258-.212,2.765,2.765,0,0,1-.129-.921,4.846,4.846,0,0,1,.1-.956,1.163,1.163,0,0,1,.194-.284.568.568,0,0,1,.289-.141A84.354,84.354,0,0,1,365.2,846.964Z" fill="#000000"/><g id="ORIGINAL_SOUND_TRACK-2" data-name="ORIGINAL SOUND TRACK"><path d="M412.829,847.394l1.042-.032a13.791,13.791,0,0,1,4.014.55,10.064,10.064,0,0,1,3.184,1.618,9.7,9.7,0,0,1,2.285,2.341,10.4,10.4,0,0,1,1.357,2.969,12.705,12.705,0,0,1,.457,3.44,13.477,13.477,0,0,1-.7,4.305,14.728,14.728,0,0,1-2.114,3.991,9.479,9.479,0,0,1-1.6,1.681,11.5,11.5,0,0,1-2.085,1.351,13.077,13.077,0,0,1-2.6.943,10.515,10.515,0,0,1-2.785.392q-5.285,0-8.327-2.781a12.039,12.039,0,0,1-1.928-2.481,8.386,8.386,0,0,1-.671-1.352,12.841,12.841,0,0,1-.886-4.414,13.03,13.03,0,0,1,.415-3.315,12.4,12.4,0,0,1,1.171-3.017,12.08,12.08,0,0,1,3.913-4.32,11.1,11.1,0,0,1,2.814-1.382A9.692,9.692,0,0,1,412.829,847.394Zm-2.457,1.4a8.693,8.693,0,0,0-3.9,1.947,8.5,8.5,0,0,0-2.243,3.347,10.874,10.874,0,0,0-.556,1.964,9.692,9.692,0,0,0-.215,2.026l.086.818.1.958a12.136,12.136,0,0,0,1.286,3.865,11.458,11.458,0,0,0,2.156,2.953,9.543,9.543,0,0,0,1.286,1.068,10.726,10.726,0,0,0,1.385.9,9.918,9.918,0,0,0,2.685.974l1.528.157a9.072,9.072,0,0,0,4.328-1.131,8.2,8.2,0,0,0,3.356-3.315,10.067,10.067,0,0,0,.943-2.513,12.7,12.7,0,0,0,.328-2.986l-.086-1.806a9.948,9.948,0,0,0-1.528-4.4,11.479,11.479,0,0,0-3.656-3.629,9.2,9.2,0,0,0-5.013-1.445h-.986A6.141,6.141,0,0,0,410.372,848.792Z" fill="#000000"/><path d="M432.689,860.04q0,.8-.028,2c-.019.8-.029,1.325-.029,1.587l.172,5.986,1.671.22,1.4.189.114.518L434,870.472l-2.156-.063-4.685.126.114-.518a19,19,0,0,0,3.071-.409q.029-1.225.086-3.22.029-1.965.028-4.7,0-3.8-.028-6.849-.057-3.063-.086-6.19l-1.171-.157-1.957-.22-.057-.487h5.356l4.185.1a10.971,10.971,0,0,1,2.042.188q.086.032,1.171.306a4.1,4.1,0,0,1,1.814.951,3.613,3.613,0,0,1,1.028,1.351,4.45,4.45,0,0,1,.343,1.68,5.92,5.92,0,0,1-1.171,3.41A12.224,12.224,0,0,1,439.1,858.6l1.771,3.283,2.285,3.8q.672,1.083,1.172,1.822.327.519,1.113,1.618a14.758,14.758,0,0,0,1.586,2.026l-1.257.142a5.006,5.006,0,0,1-.528-.518c-.22-.242-.486-.555-.8-.943l-2.428-2.923-2.914-3.754-2.528-3.3-1.2.063-.929.063-.728.031Zm0-.832a11.384,11.384,0,0,0,4.914-.738,4.913,4.913,0,0,0,2.142-1.87,6.324,6.324,0,0,0,.957-2.734,4.414,4.414,0,0,0-1.228-3.315,6.792,6.792,0,0,0-3.042-1.6,16.78,16.78,0,0,0-1.814-.392,16.333,16.333,0,0,0-1.814-.094l-.057,3.6-.029,3.157Z" fill="#000000"/><path d="M449,848.273l-.129-.487,1.971.063,2.185.063,2.486-.063,2.313-.063-.171.487a2.842,2.842,0,0,0-.393.032c-.148.021-.535.084-1.164.188l-1.514.22-.171,10.07q.171,9.882.171,10.825,1.371.251,3.071.409l.171.518-1.757-.063-1.956-.063-5.242.126.129-.518,3.07-.409q0-.817.058-4.383t.057-6.363q0-2.75-.029-5.577-.057-2.829-.086-4.572Z" fill="#000000"/><path d="M474.749,860.465l1.9.062,2,.063,2.157-.063,2.228-.062-.185.581a8.96,8.96,0,0,0-1.343.157q-.315.063-1.171.22l-.143,4.085.086,4.445a32.109,32.109,0,0,1-7.684,1.037,22.77,22.77,0,0,1-3.842-.314,12,12,0,0,1-4.97-2.2,10.516,10.516,0,0,1-3.071-3.771,11.023,11.023,0,0,1-.871-2.246,7.5,7.5,0,0,1-.329-2.216l-.028-.816a12.4,12.4,0,0,1,1.057-4.886,11.473,11.473,0,0,1,8.512-6.818q.928-.126,1.721-.189t1.521-.063a28.662,28.662,0,0,1,6.641.77l.257-1.587.243-1.445.528-.126q-.3,3.221-.385,4.894t-.086,3.15a1.839,1.839,0,0,1,.029.455,5.317,5.317,0,0,0,.028.613l-.5-.2-.085-.8-.086-.769-.085-.738-.086-.8a6.1,6.1,0,0,0-.857-.605,10.387,10.387,0,0,0-1.2-.621,19.223,19.223,0,0,0-2.713-.942,13.78,13.78,0,0,0-3.014-.315,8.814,8.814,0,0,0-3.457.707,8.931,8.931,0,0,0-4.927,4.95,9.217,9.217,0,0,0-.8,3.77,12.425,12.425,0,0,0,.8,4.478,11.541,11.541,0,0,0,2.071,3.629,12.721,12.721,0,0,0,2.885,2.56,10.178,10.178,0,0,0,2.7,1.163,10.546,10.546,0,0,0,3.071.424,10.78,10.78,0,0,0,4.613-.927l.058-4.289-.058-3.44-1.142-.157-1.129-.158-.685-.062Z" fill="#000000"/><path d="M484.747,848.273l-.129-.487,1.971.063,2.185.063,2.486-.063,2.313-.063-.17.487a2.869,2.869,0,0,0-.4.032c-.146.021-.535.084-1.163.188l-1.514.22-.171,10.07q.171,9.882.171,10.825,1.371.251,3.072.409l.17.518-1.756-.063-1.957-.063-5.242.126.129-.518,3.07-.409q0-.817.058-4.383t.057-6.363q0-2.75-.029-5.577-.057-2.829-.086-4.572Z" fill="#000000"/><path d="M495.2,870.535l.114-.518,1.257-.22,1.285-.189c0-.021.043-.345.129-.974a14.738,14.738,0,0,0,.113-1.838l.2-5.311.144-6.142.128-6.567q-.1-.031-.585-.126-.529-.063-.972-.126l-1.7-.126-.114-.486,5.884-.252q.727,1.085,1.6,2.373,1,1.461,1.97,2.812l4.3,6.017,4.1,5.593,2.071,2.922-.029-11.61q0-2.483-.057-4.242-.087-1.745-.229-2.812-1.342-.284-1.614-.315a11.035,11.035,0,0,0-1.671-.125l-.114-.487,2.171.063,2.071.063,1.87-.063,1.786-.063-.114.487-2.4.44c-.058.408-.114.969-.172,1.682a20.844,20.844,0,0,0-.114,2.152l-.186,5.5-.157,8.248-.086,6.315-4.056-5.639-4.042-5.546-4.327-5.845-4.242-5.671q0,4.383.085,7.823.086,3.474.2,7.04.129,3.613.129,4.838a33.413,33.413,0,0,0,3.471.409l.056.518-1.984-.063-2.129-.063-2.085.063Z" fill="#000000"/><path d="M518.835,870.613l.057-.6,1.285-.158,1.243-.251q.086-.172,1.184-3.095l2.4-6.755,2.484-7.243,1.3-3.865a19.5,19.5,0,0,0-2.4-.377v-.549l4.027.188,3.842-.188-.113.549a9.81,9.81,0,0,0-2.229.377q.7,2.514,1.257,4.383.057.159,1.056,3.316,1.587,4.791,2.928,8.561a36.381,36.381,0,0,0,1.9,4.7l1.2.22,1.313.189.058.6-4.456-.2-4.17.126.171-.518a9.294,9.294,0,0,0,1.528-.126,10.793,10.793,0,0,0,1.457-.283l-.957-3.189-1.328-4.148-.814-2.419q-.03,0-2.9.157-2.9.156-4.184.157a46.175,46.175,0,0,0-1.315,4.571,34.64,34.64,0,0,0-1.085,4.871,13.086,13.086,0,0,0,2.228.409l.115.518-3.371-.126q-1.572,0-2.542.063A5.365,5.365,0,0,0,518.835,870.613Zm7.5-11.626,2.827.033,2.643.031,1.056.031L531.3,854.2l-1.615-5.027a13.615,13.615,0,0,0-.927,2.419l-1.586,4.635Z" fill="#000000"/><path d="M555.111,868.084a30.234,30.234,0,0,0,1.029-3.755l.586-.141c-.106.409-.177.733-.215.974q-.37,1.743-.443,2.121l-.586,4.006q-.2,1.665-.256,2.152a10.224,10.224,0,0,0-.058,1.116l-.557-.189a14.475,14.475,0,0,0,.115-1.508q.029-.9.028-2.247l-4.213-.078-4.67-.126-1.785.063-1.7.063.114-.518,1.4-.158q.772-.093,1.143-.157a2.148,2.148,0,0,0,.528-.094l.058-2.546.058-2.418.071-2.891v-3.032q0-2.766-.071-4.886t-.116-5.122q-.4-.094-1.113-.189t-2.014-.251l-.057-.487,1.928.1,1.9.094,2.784-.094,2.629-.1-.172.487-1.585.189-1.786.251-.057,2.608-.114,6.08.058,4.321L548,865.9l.028,2.734.057,1.037a20.3,20.3,0,0,0,4.6-.424A4.8,4.8,0,0,0,555.111,868.084Z" fill="#000000"/><path d="M582.507,853.929l-.643-.189v-.8c0-.367-.009-.722-.028-1.068-.038-.346-.066-.592-.086-.738a2.675,2.675,0,0,0-.671-1.289,4.23,4.23,0,0,0-3.484-1.6,5.83,5.83,0,0,0-.936.063,4.871,4.871,0,0,0-.993.314,3.328,3.328,0,0,0-1.171.943,3.127,3.127,0,0,0-.672,1.476,3.537,3.537,0,0,1-.056.77,3.391,3.391,0,0,0,.328,1.445,7.136,7.136,0,0,0,.372.676,3.512,3.512,0,0,0,.528.581c.161.168.386.372.671.613q.3.252.857.644,2.013,1.351,3.3,2.373a11,11,0,0,1,2.285,2.671,7.186,7.186,0,0,1,.957,3.675,5.374,5.374,0,0,1-.171,1.383,7.172,7.172,0,0,1-.5,1.351,6.113,6.113,0,0,1-1.6,2.027,7.506,7.506,0,0,1-2.229,1.257,7.836,7.836,0,0,1-2.57.424,10.767,10.767,0,0,1-4.1-.785l-.643,3.361-.557.188.2-2.246.271-3.676.086-4.478.586.188a14.841,14.841,0,0,0,.2,3.425,5.248,5.248,0,0,0,1.9,2.247,4.576,4.576,0,0,0,1.329.66,3.966,3.966,0,0,0,1.427.267,5.22,5.22,0,0,0,2.285-.55,4.458,4.458,0,0,0,1.686-1.6,4.2,4.2,0,0,0,.643-2.341,4.859,4.859,0,0,0-.671-2.568,6.907,6.907,0,0,0-1.5-1.784l-2.328-1.775a21.727,21.727,0,0,1-2.128-1.634,6.574,6.574,0,0,1-2.529-4.886,5.231,5.231,0,0,1,.858-2.969,5.521,5.521,0,0,1,2.257-1.933,6.519,6.519,0,0,1,2.8-.643,10.444,10.444,0,0,1,2.286.243,5.119,5.119,0,0,1,1.756.7l.529-2.8.556-.141q-.3,2.2-.47,4.478Q582.507,852.17,582.507,853.929Z" fill="#000000"/><path d="M597.005,847.394l1.043-.032a13.791,13.791,0,0,1,4.014.55,10.085,10.085,0,0,1,3.184,1.618,9.734,9.734,0,0,1,2.285,2.341,10.4,10.4,0,0,1,1.357,2.969,12.745,12.745,0,0,1,.457,3.44,13.5,13.5,0,0,1-.7,4.305,14.7,14.7,0,0,1-2.115,3.991,9.438,9.438,0,0,1-1.6,1.681,11.532,11.532,0,0,1-2.085,1.351,13.063,13.063,0,0,1-2.6.943,10.509,10.509,0,0,1-2.785.392q-5.284,0-8.326-2.781a12.074,12.074,0,0,1-1.928-2.481,8.316,8.316,0,0,1-.672-1.352,11.449,11.449,0,0,1-.471-1.445,11.3,11.3,0,0,1-.414-2.969,13.075,13.075,0,0,1,.414-3.315,12.438,12.438,0,0,1,1.171-3.017,12.089,12.089,0,0,1,3.913-4.32,11.113,11.113,0,0,1,2.814-1.382A9.7,9.7,0,0,1,597.005,847.394Zm-2.456,1.4a8.7,8.7,0,0,0-3.9,1.947,8.5,8.5,0,0,0-2.242,3.347,10.793,10.793,0,0,0-.556,1.964,9.692,9.692,0,0,0-.215,2.026l.086.818.1.958a12.16,12.16,0,0,0,1.285,3.865,11.484,11.484,0,0,0,2.157,2.953,9.481,9.481,0,0,0,1.286,1.068,10.658,10.658,0,0,0,1.385.9,9.906,9.906,0,0,0,2.685.974l1.527.157a9.076,9.076,0,0,0,4.329-1.131,8.2,8.2,0,0,0,3.356-3.315,10.065,10.065,0,0,0,.942-2.513,12.649,12.649,0,0,0,.329-2.986l-.085-1.806a9.962,9.962,0,0,0-1.529-4.4,11.489,11.489,0,0,0-3.656-3.629,9.2,9.2,0,0,0-5.014-1.445h-.985A6.141,6.141,0,0,0,594.549,848.792Z" fill="#000000"/><path d="M613.438,848.776l-1.157-.283-1.171-.22-.056-.487,1.842.063,1.871.063,2.27-.063,2.172-.063-.172.487a12.617,12.617,0,0,0-1.335.158q-.508.093-1.735.345L615.9,850.3l-.057,1.791-.028,1.523-.029,1.76.057,5.216a13.642,13.642,0,0,0,.357,3.315,9.278,9.278,0,0,0,.971,2.608,5.729,5.729,0,0,0,2.571,2.671,6.947,6.947,0,0,0,3.071.707q6.4,0,6.4-7.792v-4.635l-.114-8.688a23.759,23.759,0,0,0-3.128-.5l-.171-.487,1.9.063,1.986.063,1.871-.063,1.842-.063-.171.487-1,.22-1.086.283q-.057.456-.085,2.105-.057,1.635-.058,3.566l.029,7.18a10.553,10.553,0,0,1-.585,3.629,9.694,9.694,0,0,1-1.757,2.97,8.427,8.427,0,0,1-6.727,2.717,9.04,9.04,0,0,1-4-.88,7.448,7.448,0,0,1-2.842-2.686,8.687,8.687,0,0,1-.927-2.121,11.929,11.929,0,0,1-.487-2.483q-.141-1.443-.142-3.236v-8.53A15.946,15.946,0,0,0,613.438,848.776Z" fill="#000000"/><path d="M635.234,870.535l.115-.518,1.256-.22,1.286-.189c0-.021.043-.345.129-.974a14.738,14.738,0,0,0,.113-1.838l.2-5.311.144-6.142.127-6.567q-.1-.031-.584-.126-.529-.063-.972-.126l-1.7-.126-.115-.486,5.884-.252q.729,1.085,1.6,2.373,1,1.461,1.97,2.812l4.3,6.017,4.1,5.593,2.071,2.922-.029-11.61q0-2.483-.057-4.242-.086-1.745-.228-2.812-1.344-.284-1.615-.315a11.022,11.022,0,0,0-1.67-.125l-.115-.487,2.171.063,2.072.063,1.87-.063,1.786-.063-.114.487-2.4.44c-.058.408-.114.969-.172,1.682a20.844,20.844,0,0,0-.114,2.152l-.186,5.5-.157,8.248-.086,6.315-4.055-5.639-4.042-5.546-4.328-5.845-4.242-5.671q0,4.383.086,7.823.086,3.474.2,7.04.129,3.613.129,4.838a33.457,33.457,0,0,0,3.471.409l.057.518-1.985-.063-2.129-.063-2.085.063Z" fill="#000000"/><path d="M662.816,848.713q-.942-.22-1.67-.346a11.563,11.563,0,0,0-1.4-.094l-.072-.487c.39,0,1.134.022,2.228.063q1.615.063,2,.063l7.541-.126a21.345,21.345,0,0,1,3.6.315q.913.139,1.585.3a13.205,13.205,0,0,1,1.4.488,8.516,8.516,0,0,1,2.542,1.479,7.585,7.585,0,0,1,2.314,2.989,8.955,8.955,0,0,1,.556,1.653,7.131,7.131,0,0,1,.172,1.51,13.313,13.313,0,0,1-2.985,8.889,12.734,12.734,0,0,1-3.456,2.88,15.44,15.44,0,0,1-3.971,1.542q-1.284.284-2.2.408a9.841,9.841,0,0,1-1.871.173l-4.885.075-4.57.051.129-.487a10.276,10.276,0,0,0,1.628-.126,7.441,7.441,0,0,0,1.385-.282q.173-1.071.172-11.549l-.029-4.154-.057-3.289A13.787,13.787,0,0,0,662.816,848.713Zm2.628.205q0,.313-.114,4.342t-.114,5.775l.057,2.249.057,2.707.028,2.454.086,2.471q.858.2,1.615.33a13.264,13.264,0,0,0,2.341.252,16.834,16.834,0,0,0,4.743-.9,10.8,10.8,0,0,0,5.255-3.9,10.162,10.162,0,0,0,1.872-5.964l-.058-1.179a9.562,9.562,0,0,0-1.571-4.611,8.636,8.636,0,0,0-3.627-2.91,13.084,13.084,0,0,0-3.371-.991q-.871-.126-2.014-.221t-2.171-.11A20.6,20.6,0,0,0,665.444,848.918Z" fill="#000000"/><path d="M698.077,853.442q.37-4.557.371-7.039v-.864l.585.1a9.383,9.383,0,0,0,.187,2.152q.813,0,2.6.1,4.158.219,6.642.22,1.57,0,3.742-.1,5.055-.22,6.484-.22l.214-.769.257-1.257a1.2,1.2,0,0,1,.558-.126q-.058.345-.172,1.115-.243,1.713-.386,3.284l-.4,3.645-.529-.157.029-1.195.028-1.288V849.97a4.968,4.968,0,0,0-1.757-.613q-1.228-.189-2.113-.314a15.171,15.171,0,0,0-1.629-.1l-2.842-.094-.056,2.122-.03,2.214-.028,2.059-.058,3.283.172,11.076,3.771.409.129.518-2.371-.063-2.786-.063-2.713.063-2.428.063.172-.518,3.713-.409q0-1.429.056-5.7.057-4.242.058-5.765l-.028-5.4-.086-3.881q-1.9,0-2.878.063t-2.678.252a6.606,6.606,0,0,0-2.728.8l-.586,3.283Z" fill="#000000"/><path d="M727.212,860.04q0,.8-.028,2c-.02.8-.03,1.325-.03,1.587l.172,5.986,1.671.22,1.4.189.115.518-1.986-.063-2.156-.063-4.684.126.114-.518a18.978,18.978,0,0,0,3.07-.409q.03-1.225.086-3.22.03-1.965.029-4.7,0-3.8-.029-6.849-.057-3.063-.086-6.19l-1.171-.157-1.956-.22-.057-.487h5.356l4.185.1a10.979,10.979,0,0,1,2.042.188c.056.021.447.123,1.17.306a4.1,4.1,0,0,1,1.815.951,3.634,3.634,0,0,1,1.028,1.351,4.45,4.45,0,0,1,.343,1.68,5.915,5.915,0,0,1-1.172,3.41,12.239,12.239,0,0,1-2.827,2.828l1.771,3.283,2.285,3.8q.67,1.083,1.171,1.822.329.519,1.114,1.618a14.855,14.855,0,0,0,1.585,2.026l-1.256.142a5,5,0,0,1-.529-.518c-.219-.242-.486-.555-.8-.943l-2.428-2.923-2.913-3.754-2.528-3.3-1.2.063-.927.063-.729.031Zm0-.832a11.379,11.379,0,0,0,4.913-.738,4.915,4.915,0,0,0,2.143-1.87,6.337,6.337,0,0,0,.957-2.734A4.414,4.414,0,0,0,734,850.551a6.792,6.792,0,0,0-3.042-1.6,16.678,16.678,0,0,0-1.814-.392,16.32,16.32,0,0,0-1.814-.094l-.056,3.6-.03,3.157Z" fill="#000000"/><path d="M742.129,870.613l.057-.6,1.285-.158,1.243-.251q.085-.172,1.184-3.095l2.4-6.755,2.484-7.243,1.3-3.865a19.5,19.5,0,0,0-2.4-.377v-.549l4.027.188,3.842-.188-.114.549a9.812,9.812,0,0,0-2.228.377q.7,2.514,1.257,4.383.057.159,1.056,3.316,1.587,4.791,2.928,8.561a36.228,36.228,0,0,0,1.9,4.7l1.2.22,1.313.189.058.6-4.456-.2-4.17.126.171-.518a9.294,9.294,0,0,0,1.528-.126,10.793,10.793,0,0,0,1.457-.283l-.957-3.189-1.328-4.148-.814-2.419q-.03,0-2.9.157-2.9.156-4.184.157a46.175,46.175,0,0,0-1.315,4.571,34.479,34.479,0,0,0-1.085,4.871,13.069,13.069,0,0,0,2.228.409l.115.518-3.371-.126q-1.572,0-2.542.063A5.365,5.365,0,0,0,742.129,870.613Zm7.5-11.626,2.827.033,2.643.031,1.056.031L754.6,854.2l-1.615-5.027a13.615,13.615,0,0,0-.927,2.419l-1.586,4.635Z" fill="#000000"/><path d="M783.233,854.762l-.5-.189a28.221,28.221,0,0,0-.172-3.629,4.811,4.811,0,0,0-2.613-1.775,11.9,11.9,0,0,0-1.878-.472,12.947,12.947,0,0,0-2.092-.157,8.805,8.805,0,0,0-3.314.5,9.261,9.261,0,0,0-2.985,1.933,9.781,9.781,0,0,0-2.157,3.11,11.233,11.233,0,0,0-.585,1.87,10.235,10.235,0,0,0-.2,2.058l.171,1.775a13.062,13.062,0,0,0,1.057,3.6,11.963,11.963,0,0,0,1.871,2.937q.556.536,1.2,1.053a9.155,9.155,0,0,0,1.285.911,10.53,10.53,0,0,0,2.871,1.115c.305.064.731.134,1.279.213a11.184,11.184,0,0,0,1.578.117,10.43,10.43,0,0,0,1.113-.062,9.011,9.011,0,0,0,1.286-.173,18.836,18.836,0,0,0,2.285-.612,7.781,7.781,0,0,0,1.814-.865l-.114,1.069a12.061,12.061,0,0,1-1.5.769,14.1,14.1,0,0,1-1.956.613,17.023,17.023,0,0,1-4.414.582,11.913,11.913,0,0,1-9.541-4.023,10.885,10.885,0,0,1-2.456-7.116,12.2,12.2,0,0,1,.5-3.535,11.153,11.153,0,0,1,.585-1.65,10.461,10.461,0,0,1,.843-1.666,12.234,12.234,0,0,1,2.428-2.827,11.386,11.386,0,0,1,3.228-1.9,13.918,13.918,0,0,1,5.141-.8,21.717,21.717,0,0,1,5.5.644l.172-.927.157-.612.113-.582.116-.832.585-.205q-.313,2.4-.486,4.7Q783.235,852.028,783.233,854.762Z" fill="#000000"/><path d="M791.533,860.1q0,2.779.029,5.058t.084,4.571l.915.158,1.171.126,1.286.126.056.533-1.484-.063-2.229-.078-5.413.141.114-.533a25.036,25.036,0,0,0,3.071-.472l.115-5.373.071-6.535q0-3-.071-4.792t-.115-4.117l-3.127-.518-.058-.487,4.214.188,4.612-.188-.114.549-3.014.378q-.027,1.617-.056,4.132-.057,2.5-.057,5.954l2.784-2.545,2.886-2.671q.828-.738,1.385-1.289c.561-.575.972-.994,1.228-1.256a23.1,23.1,0,0,0,2.014-2.247q-.815-.265-1.257-.361a5.984,5.984,0,0,0-1.142-.1l-.115-.549,3.771.188,3.428-.188-.186.487-.929.188-1,.189q-.429.33-1.014.817-.586.471-.857.675l-2.1,1.823-2.4,2.231-1.985,1.822q9.126,12.459,12.568,15.852l-1.2.252q-.841-.676-2.456-2.294-1.7-1.713-3.328-3.5l-3.814-4.227-3.656-4.273A22.432,22.432,0,0,0,791.533,860.1Z" fill="#000000"/></g><path d="M336.97,953.1l.237,3.522h-.237a4.433,4.433,0,0,0-1.353-2.277,3.3,3.3,0,0,0-2.109-.7,3.267,3.267,0,0,0-3.175,2.193,7.442,7.442,0,0,0-.478,2.85,6.045,6.045,0,0,0,.452,2.438,3.377,3.377,0,0,0,1.356,1.582,3.91,3.91,0,0,0,2.067.55,3.582,3.582,0,0,0,1.78-.432,5.861,5.861,0,0,0,1.7-1.716l.237.154a5.44,5.44,0,0,1-1.819,2.024,4.6,4.6,0,0,1-2.468.643,4.671,4.671,0,0,1-3.989-1.911,5.463,5.463,0,0,1-1.055-3.347,5.943,5.943,0,0,1,.7-2.851,5.021,5.021,0,0,1,1.914-2.013,5.175,5.175,0,0,1,2.663-.714,4.876,4.876,0,0,1,2.216.55,1.2,1.2,0,0,0,.459.167.5.5,0,0,0,.359-.144,1.208,1.208,0,0,0,.283-.573Z" fill="#000000"/><path d="M341.539,956.488a3.1,3.1,0,0,1,2.552,1.207,3.712,3.712,0,0,1,.818,2.369,4.462,4.462,0,0,1-.451,1.9,3.2,3.2,0,0,1-3,1.94,2.964,2.964,0,0,1-2.514-1.261,3.9,3.9,0,0,1-.787-2.383,4.233,4.233,0,0,1,.477-1.915,3.27,3.27,0,0,1,1.257-1.406A3.228,3.228,0,0,1,341.539,956.488Zm-.237.5a1.591,1.591,0,0,0-.814.241,1.694,1.694,0,0,0-.661.844,4.065,4.065,0,0,0-.252,1.551,5.391,5.391,0,0,0,.608,2.637,1.808,1.808,0,0,0,1.6,1.108,1.493,1.493,0,0,0,1.222-.611,3.478,3.478,0,0,0,.482-2.1,4.788,4.788,0,0,0-.8-2.934A1.652,1.652,0,0,0,341.3,956.985Z" fill="#000000"/><path d="M345.233,957.39l2.155-.871h.29v1.635a3.977,3.977,0,0,1,1.089-1.295,2.018,2.018,0,0,1,1.15-.371,2.219,2.219,0,0,1,1.758.825,3.906,3.906,0,0,1,.863,2.629,4.383,4.383,0,0,1-1.039,3,2.751,2.751,0,0,1-2.155.97,2.716,2.716,0,0,1-.978-.16,2.273,2.273,0,0,1-.688-.459v2.132a2.862,2.862,0,0,0,.088.914.649.649,0,0,0,.306.309,1.863,1.863,0,0,0,.79.115v.282h-3.668v-.282h.192a1.4,1.4,0,0,0,.718-.16.555.555,0,0,0,.225-.272,3.224,3.224,0,0,0,.081-.951v-6.618a3.642,3.642,0,0,0-.061-.863.524.524,0,0,0-.195-.276.646.646,0,0,0-.363-.092,1.374,1.374,0,0,0-.467.108Zm2.445,1.215v2.614a5.579,5.579,0,0,0,.069,1.115,1.42,1.42,0,0,0,.524.779,1.611,1.611,0,0,0,1.05.337,1.507,1.507,0,0,0,1.238-.6,3.445,3.445,0,0,0,.619-2.194,3.827,3.827,0,0,0-.7-2.468,1.462,1.462,0,0,0-1.162-.6,1.586,1.586,0,0,0-.726.182A4.28,4.28,0,0,0,347.678,958.605Z" fill="#000000"/><path d="M352.961,956.694h3.263v.284h-.16a.771.771,0,0,0-.516.148.476.476,0,0,0-.172.371,2.1,2.1,0,0,0,.252.825l1.705,3.531,1.566-3.867a1.618,1.618,0,0,0,.13-.619.329.329,0,0,0-.054-.206.4.4,0,0,0-.191-.134,1.449,1.449,0,0,0-.458-.049v-.284H360.6v.284a1.071,1.071,0,0,0-.436.122,1.269,1.269,0,0,0-.336.343,4.917,4.917,0,0,0-.26.589l-2.85,6.985a3.627,3.627,0,0,1-1.081,1.536,2.132,2.132,0,0,1-1.288.519,1.069,1.069,0,0,1-.741-.26.781.781,0,0,1-.291-.6.672.672,0,0,1,.211-.516.813.813,0,0,1,.576-.194,2.054,2.054,0,0,1,.688.168,1.646,1.646,0,0,0,.382.114.8.8,0,0,0,.5-.237,2.475,2.475,0,0,0,.546-.917l.5-1.215-2.514-5.28a4.276,4.276,0,0,0-.367-.588,1.75,1.75,0,0,0-.313-.36,1.712,1.712,0,0,0-.566-.213Z" fill="#000000"/><path d="M363.419,956.488v1.574q.879-1.573,1.8-1.574a.978.978,0,0,1,.695.256.786.786,0,0,1,.275.593.7.7,0,0,1-.2.5.635.635,0,0,1-.474.206,1.008,1.008,0,0,1-.6-.264.987.987,0,0,0-.493-.263.454.454,0,0,0-.3.153,3.7,3.7,0,0,0-.711,1.031v3.355a2.092,2.092,0,0,0,.145.879.8.8,0,0,0,.352.343,1.539,1.539,0,0,0,.726.138v.275h-3.584v-.275a1.488,1.488,0,0,0,.8-.168.651.651,0,0,0,.267-.39,3.856,3.856,0,0,0,.039-.741v-2.713a11.26,11.26,0,0,0-.05-1.455.568.568,0,0,0-.184-.341.514.514,0,0,0-.332-.106,1.52,1.52,0,0,0-.535.114l-.077-.275,2.117-.856Z" fill="#000000"/><path d="M368.794,956.488v5.624a2.556,2.556,0,0,0,.1.875.661.661,0,0,0,.282.325,1.505,1.505,0,0,0,.684.107v.275h-3.4v-.275a1.593,1.593,0,0,0,.688-.1.677.677,0,0,0,.278-.329,2.46,2.46,0,0,0,.1-.879v-2.7a9.7,9.7,0,0,0-.068-1.475.6.6,0,0,0-.168-.339.471.471,0,0,0-.314-.1,1.533,1.533,0,0,0-.519.114l-.107-.275,2.109-.856Zm-.634-3.66a.772.772,0,0,1,.772.772.76.76,0,0,1-.226.55.736.736,0,0,1-.546.229.776.776,0,1,1,0-1.551Z" fill="#000000"/><path d="M372.24,961.142a2.3,2.3,0,0,1-.986-.875,2.333,2.333,0,0,1-.344-1.242,2.39,2.39,0,0,1,.783-1.788,2.785,2.785,0,0,1,2.006-.749,3.047,3.047,0,0,1,1.735.49h1.483a1.96,1.96,0,0,1,.381.018.133.133,0,0,1,.077.066.467.467,0,0,1,.046.244.671.671,0,0,1-.039.275.164.164,0,0,1-.08.062,1.8,1.8,0,0,1-.385.022h-.91a2.358,2.358,0,0,1-.321,3.08,2.838,2.838,0,0,1-2.01.7,3.867,3.867,0,0,1-1.062-.153,1.985,1.985,0,0,0-.454.508.814.814,0,0,0-.119.371.352.352,0,0,0,.126.252.916.916,0,0,0,.493.176c.143.02.5.038,1.07.053q1.573.039,2.04.108a1.912,1.912,0,0,1,1.135.526,1.44,1.44,0,0,1,.424,1.055,2.209,2.209,0,0,1-.81,1.62,4.367,4.367,0,0,1-3.11,1.116,4.452,4.452,0,0,1-2.492-.665c-.381-.255-.572-.519-.572-.8a.879.879,0,0,1,.084-.367,4.269,4.269,0,0,1,.534-.787q.054-.067.78-.825a2.393,2.393,0,0,1-.562-.424.628.628,0,0,1-.164-.424,1.258,1.258,0,0,1,.218-.627A5.014,5.014,0,0,1,372.24,961.142Zm-.077,2.552a3.777,3.777,0,0,0-.542.726,1.316,1.316,0,0,0-.183.619.772.772,0,0,0,.442.642,4.224,4.224,0,0,0,2.209.474,3.421,3.421,0,0,0,2.029-.485,1.336,1.336,0,0,0,.653-1.036.58.58,0,0,0-.39-.566,5.158,5.158,0,0,0-1.574-.2A24.9,24.9,0,0,1,372.163,963.694Zm1.406-6.839a1.193,1.193,0,0,0-.947.451,2.1,2.1,0,0,0-.382,1.383,2.983,2.983,0,0,0,.519,1.873,1.233,1.233,0,0,0,1.009.5,1.2,1.2,0,0,0,.955-.435,2.065,2.065,0,0,0,.375-1.367,3.06,3.06,0,0,0-.528-1.9A1.209,1.209,0,0,0,373.569,956.855Z" fill="#000000"/><path d="M380.044,952.828v5.12a5.9,5.9,0,0,1,1.346-1.2,2.1,2.1,0,0,1,.993-.264,1.633,1.633,0,0,1,1.024.329,1.938,1.938,0,0,1,.634,1.032,7.283,7.283,0,0,1,.146,1.788v2.475a2.593,2.593,0,0,0,.106.909.592.592,0,0,0,.26.291,1.453,1.453,0,0,0,.673.107v.275h-3.439v-.275h.16a1.156,1.156,0,0,0,.68-.148.794.794,0,0,0,.268-.44,6.136,6.136,0,0,0,.023-.719v-2.475a5.942,5.942,0,0,0-.119-1.506,1.013,1.013,0,0,0-.378-.538,1.073,1.073,0,0,0-.627-.18,1.773,1.773,0,0,0-.779.2,3.745,3.745,0,0,0-.971.8v3.7a2.856,2.856,0,0,0,.081.895.652.652,0,0,0,.3.294,1.7,1.7,0,0,0,.753.118v.275h-3.469v-.275a1.545,1.545,0,0,0,.733-.145.542.542,0,0,0,.245-.291,2.641,2.641,0,0,0,.091-.871v-6.335a10.611,10.611,0,0,0-.057-1.474.652.652,0,0,0-.176-.374.474.474,0,0,0-.317-.1,1.874,1.874,0,0,0-.519.122l-.108-.267,2.094-.856Z" fill="#000000"/><path d="M387.8,954.4v2.3h1.636v.535H387.8v4.54a1.525,1.525,0,0,0,.2.917.618.618,0,0,0,.5.237.88.88,0,0,0,.489-.157,1.011,1.011,0,0,0,.367-.462h.3a2.4,2.4,0,0,1-.757,1.127,1.632,1.632,0,0,1-1.008.378,1.354,1.354,0,0,1-.688-.195,1.183,1.183,0,0,1-.5-.557,2.938,2.938,0,0,1-.16-1.12v-4.708h-1.108v-.251a2.917,2.917,0,0,0,.86-.57,4.584,4.584,0,0,0,.783-.951,8.554,8.554,0,0,0,.488-1.062Z" fill="#000000"/><path d="M400.933,961.7l-.725,1.994h-6.114v-.283a27.636,27.636,0,0,0,3.8-4.018,5.09,5.09,0,0,0,1.1-2.851,2.256,2.256,0,0,0-.6-1.62,1.926,1.926,0,0,0-1.445-.635,2.262,2.262,0,0,0-1.371.447,2.589,2.589,0,0,0-.9,1.311h-.283a3.56,3.56,0,0,1,.982-2.17,2.743,2.743,0,0,1,1.976-.757,2.923,2.923,0,0,1,2.1.811,2.56,2.56,0,0,1,.844,1.91,3.692,3.692,0,0,1-.367,1.574,10.372,10.372,0,0,1-1.834,2.621q-1.9,2.079-2.376,2.506h2.705a7.226,7.226,0,0,0,1.157-.061,1.53,1.53,0,0,0,.6-.248,1.626,1.626,0,0,0,.465-.531Z" fill="#000000"/><path d="M401.945,958.574a7.893,7.893,0,0,1,.535-3.053,4.268,4.268,0,0,1,1.421-1.906,2.4,2.4,0,0,1,1.421-.5,2.7,2.7,0,0,1,2.14,1.215,6.432,6.432,0,0,1,1.184,4.081,8.059,8.059,0,0,1-.519,3.065,4.068,4.068,0,0,1-1.326,1.83,2.716,2.716,0,0,1-1.555.569,2.86,2.86,0,0,1-2.468-1.75A7.123,7.123,0,0,1,401.945,958.574Zm1.5.192a9.739,9.739,0,0,0,.527,3.492q.435,1.139,1.3,1.138a1.359,1.359,0,0,0,.856-.371,2.357,2.357,0,0,0,.672-1.241,15.065,15.065,0,0,0,.352-3.706,10.17,10.17,0,0,0-.367-2.958,2.615,2.615,0,0,0-.711-1.245,1.169,1.169,0,0,0-.756-.252,1.2,1.2,0,0,0-.925.466,3.9,3.9,0,0,0-.749,1.994A18.609,18.609,0,0,0,403.443,958.766Z" fill="#000000"/><path d="M409.879,958.574a7.893,7.893,0,0,1,.536-3.053,4.274,4.274,0,0,1,1.42-1.906,2.4,2.4,0,0,1,1.422-.5,2.7,2.7,0,0,1,2.139,1.215,6.427,6.427,0,0,1,1.185,4.081,8.059,8.059,0,0,1-.519,3.065,4.068,4.068,0,0,1-1.326,1.83,2.718,2.718,0,0,1-1.555.569,2.861,2.861,0,0,1-2.469-1.75A7.123,7.123,0,0,1,409.879,958.574Zm1.5.192a9.761,9.761,0,0,0,.527,3.492q.437,1.139,1.3,1.138a1.359,1.359,0,0,0,.856-.371,2.363,2.363,0,0,0,.672-1.241,15.123,15.123,0,0,0,.351-3.706,10.173,10.173,0,0,0-.366-2.958,2.632,2.632,0,0,0-.711-1.245,1.169,1.169,0,0,0-.756-.252,1.2,1.2,0,0,0-.925.466,3.889,3.889,0,0,0-.749,1.994A18.47,18.47,0,0,0,411.377,958.766Z" fill="#000000"/><path d="M419.782,958.476a7.167,7.167,0,0,1-1.586-1.621,2.492,2.492,0,0,1-.355-1.268,2.3,2.3,0,0,1,.78-1.739,3.313,3.313,0,0,1,4.087-.049,2.032,2.032,0,0,1,.765,1.551,2.1,2.1,0,0,1-.413,1.184,5.979,5.979,0,0,1-1.719,1.421,9.785,9.785,0,0,1,1.781,1.636,2.711,2.711,0,0,1,.58,1.642,2.467,2.467,0,0,1-.833,1.87,3.082,3.082,0,0,1-2.185.775,2.927,2.927,0,0,1-2.3-.925,2.292,2.292,0,0,1-.195-2.984A6.694,6.694,0,0,1,419.782,958.476Zm.359.29a3.579,3.579,0,0,0-.94,1.165,3.1,3.1,0,0,0-.305,1.364,2.254,2.254,0,0,0,.538,1.578,1.771,1.771,0,0,0,1.372.592,1.853,1.853,0,0,0,1.322-.466,1.494,1.494,0,0,0,.5-1.131,1.736,1.736,0,0,0-.291-.986A10.918,10.918,0,0,0,420.141,958.766Zm.841-1.109a5.422,5.422,0,0,0,1.161-1.3,2.335,2.335,0,0,0,.245-1.081,1.705,1.705,0,0,0-.451-1.256,1.652,1.652,0,0,0-1.23-.455,1.8,1.8,0,0,0-1.269.451,1.391,1.391,0,0,0-.489,1.054,1.743,1.743,0,0,0,.2.794,2.842,2.842,0,0,0,.578.757Z" fill="#000000"/><path d="M438.667,952.116q.362.062.361.361V953.5q.6,0,1.862.12a.386.386,0,0,1,.36.42.42.42,0,0,1-.48.36q-1.2-.12-1.742-.12v1.562q1.8,0,3.783.18.78.121.24.6a1.578,1.578,0,0,1-1.321.3,23.931,23.931,0,0,0-5.044-.421v1.081q1.32,0,3.483.12,1.14.24.361.9v2.582q.54,1.26-.721.661a39.131,39.131,0,0,0-6.846,0q-1.26.6-.72-.661v-2.943l-.181-.66.181-.18.66.3q1.86-.12,3.062-.12V956.5q-3.242.062-6,.36a.419.419,0,0,1-.48-.36.385.385,0,0,1,.36-.42q2.042-.18,3.784-.24v-1.562a15.277,15.277,0,0,0-1.742.12c-.28,0-.441-.12-.48-.36a.385.385,0,0,1,.36-.42,17.223,17.223,0,0,1,1.862-.12v-1.021q0-.3.36-.361.36.062.36.361v.961h3.963v-.961Q438.307,952.177,438.667,952.116Zm-8.286,11.77.06-.24a9.677,9.677,0,0,0,4.143-1.622l.241.181a7.684,7.684,0,0,1-2.4,2.161A1.645,1.645,0,0,1,430.381,963.886Zm5.584-4.623v-1.022q-1.14,0-3,.12v1.022Q434.825,959.263,435.965,959.263Zm-3,.78v1.141q1.861-.12,3-.121v-1.14Q434.825,959.923,432.963,960.043Zm1.381-5.824v1.56h3.963v-1.56Zm2.342,4.022v1.022q1.14,0,3.123.12v-1.022Q437.886,958.243,436.686,958.241Zm3.123,1.8q-1.923-.12-3.123-.12v1.14q1.14,0,3.123.121Zm-2.042,1.981a12.913,12.913,0,0,0,4.624,1.562l.06.24a1.915,1.915,0,0,1-2.342.54,13.853,13.853,0,0,1-2.522-2.041Z" fill="#000000"/><path d="M450.9,953.5l1.021,1.32a48.074,48.074,0,0,1,4.984.181q.66.121.12.66a1.313,1.313,0,0,1-1.2.3,15.849,15.849,0,0,0-3.3-.481,8.105,8.105,0,0,0,6.6,2.163l.12.239q-.841,1.383-1.622,1.2a10.994,10.994,0,0,1-6-3.6q-2.283,0-4.564.18v1.983a25.452,25.452,0,0,1,5.164-.421c.481.081.58.28.3.6a1.033,1.033,0,0,1-1.022.42,9.923,9.923,0,0,0-3.242.061,10.216,10.216,0,0,0-3.062.961q-1.082.3-.241-1.2l1.381-.3v-4.023l-.36-.781.181-.18.961.54a37.97,37.97,0,0,0,5.944-1.2q1.5.963.54,1.142Zm-3.843.3v1.261q2.1-.181,4.144-.18l-.841-1.321Zm1.2,5.4a38.288,38.288,0,0,1,7.146-.059q1.262.18.48.961v2.942q.662,1.56-.9.721a45.221,45.221,0,0,0-6.606,0q-1.622.718-.72-.721v-3.183l-.3-.781.181-.18Zm.12,1.8a48.27,48.27,0,0,1,6.785,0v-1.141a48.014,48.014,0,0,0-6.785,0Zm5.584.66a20.486,20.486,0,0,0-5.584,0v1.382a47.969,47.969,0,0,1,6.785,0v-1.5C455.007,961.745,454.607,961.784,453.966,961.664Z" fill="#000000"/><path d="M471.561,960.224a11.448,11.448,0,0,1-4.684,3.182,1.707,1.707,0,0,1-1.981-.36v-.24a13.063,13.063,0,0,0,5.7-2.943,8,8,0,0,0,2.342-4.744,29.171,29.171,0,0,0-10.268.36.492.492,0,0,1-.6-.42c-.041-.32.12-.52.48-.6a40.823,40.823,0,0,1,10.868-.12q1.021.3.3,1.02A9.875,9.875,0,0,1,471.561,960.224Z" fill="#000000"/><path d="M478.237,953.858l.18-.18.84.48a44.077,44.077,0,0,1,9.188,0c.76.12.88.442.36.961l-.18,6.785q.84,1.5-.9.782a35.25,35.25,0,0,0-8.226,0q-1.563.72-.9-.782v-6.966Zm9.607,8.046.181-6.966a39.194,39.194,0,0,0-8.648,0V961.9A37.575,37.575,0,0,1,487.844,961.9Z" fill="#000000"/><path d="M505.99,958.662a20.9,20.9,0,0,1-4.8,2.942,26.636,26.636,0,0,1-6.126,1.982c-.24.04-.5-.12-.78-.481-.2-.4-.142-.62.179-.66a26.905,26.905,0,0,0,6.366-1.681,31.376,31.376,0,0,0,4.924-2.462Q506.17,958.244,505.99,958.662Zm-8.107-3.6-.12.24-2.822-.72q-.24-.12.059-.721.3-.54.542-.42Z" fill="#000000"/><path d="M516.209,958.121a6.286,6.286,0,0,1-.781,3.423,6.424,6.424,0,0,1-2.462,2.1,1.435,1.435,0,0,1-1.8-.42l.061-.241a6.064,6.064,0,0,0,3.362-1.8,4.739,4.739,0,0,0,.841-3.063V956.98a25.085,25.085,0,0,0-5.765.6c-.32,0-.5-.14-.54-.42s.1-.46.42-.541a37.532,37.532,0,0,1,11.59,0q.72.122.36.661a1.268,1.268,0,0,1-1.081.361,15.188,15.188,0,0,0-4.2-.662Zm2.7-4.623q.78.12.3.6a1,1,0,0,1-.961.36,15.609,15.609,0,0,0-6.605-.061q-.422,0-.481-.36c-.04-.279.1-.44.421-.48A34.5,34.5,0,0,1,518.911,953.5Z" fill="#000000"/><path d="M528.005,959.562a1.479,1.479,0,0,1-1.741-.54l.06-.24a14.025,14.025,0,0,0,8.527-3.723c.4-.08.541.081.42.48a14.251,14.251,0,0,1-3.243,2.523v5.284q0,.72-.36.72t-.36-.72v-4.985A24.9,24.9,0,0,1,528.005,959.562Z" fill="#000000"/><path d="M553,954.1q.721.18.721.6,0,.242-.481.421a17.76,17.76,0,0,1-3,2.642l-.18-.18a31.329,31.329,0,0,0,2.1-2.763,27.169,27.169,0,0,0-10.628.061q-.481.06-.541-.36a.5.5,0,0,1,.421-.6A36.1,36.1,0,0,1,553,954.1Zm-6.184.78q.418,0,.419.54v1.622a8.177,8.177,0,0,1-.84,4.083,6.037,6.037,0,0,1-2.762,2.522,1.318,1.318,0,0,1-1.8-.48l.061-.24a5.279,5.279,0,0,0,3.722-2.162,6.922,6.922,0,0,0,.841-3.723v-1.622Q546.45,954.879,546.811,954.879Z" fill="#000000"/><path d="M570.626,952.537c.24.08.36.221.36.42v3.123a42.929,42.929,0,0,1,4.744.18q.841.062.3.661a1.042,1.042,0,0,1-1.26.24,7.619,7.619,0,0,0-1.682-.24q-.9-.06-2.1-.061v5.164a37.147,37.147,0,0,1,6.666.541q.66.181,0,.721a1.51,1.51,0,0,1-1.441.3,15.147,15.147,0,0,0-5.225-.78,33.017,33.017,0,0,0-6.245.6.459.459,0,1,1-.179-.9,35.946,35.946,0,0,1,5.644-.481v-9.067Q570.206,952.6,570.626,952.537Z" fill="#000000"/><path d="M581.746,957.521v.24l-2.162.36c-.16.041-.24-.18-.24-.66s.08-.7.24-.66Zm-1.2,5.705c-.36-.361-.481-.6-.36-.721l2.1-1.5.181.18-1.261,2.342C581.125,963.646,580.905,963.547,580.545,963.226Zm2.282-8.948-2.042-.66c-.12-.08-.08-.3.12-.661.241-.4.421-.54.541-.42l1.5,1.5Zm3.483-1.922-.3,1.022a37.98,37.98,0,0,1,7.086.06c.4.041.48.22.24.541a.963.963,0,0,1-1.022.36,24.383,24.383,0,0,0-6.544-.24,12.911,12.911,0,0,1-1.682,2.822,1.51,1.51,0,0,1-2.041.24v-.24a8.7,8.7,0,0,0,3.782-4.744C586.109,951.856,586.27,951.917,586.31,952.356Zm5.884,8.228a8.292,8.292,0,0,1-.179,1.741l.78.12a.775.775,0,0,1,.721.721q.12.54-.481.36a8.109,8.109,0,0,0-1.321-.36,3.973,3.973,0,0,1-.9,1.08q-.6.48-1.321-.42l.061-.24a2.86,2.86,0,0,0,1.2-.66,21.725,21.725,0,0,0-5.585.12q-1.5.6-.66-.721a28.793,28.793,0,0,0,.72-2.942q-.662.12-2.162.42a.392.392,0,0,1-.48-.3.42.42,0,0,1,.36-.481q1.56-.24,2.4-.36l.3-2.4-.24-.781.18-.18.541.3a33.905,33.905,0,0,1,5.7,0q1.022.18.36.9v2.1a12.235,12.235,0,0,1,1.562.12c.32.041.46.14.421.3a.92.92,0,0,1-1.142.6l-.841-.181Zm-6.245-1.262q-.24,1.321-.66,3a18.293,18.293,0,0,1,2.462-.18,23.367,23.367,0,0,0,.36-2.943Q587.269,959.2,585.949,959.322Zm2.223-.841.119-2.341a10.4,10.4,0,0,0-1.921.18l-.3,2.282Q587.331,958.482,588.172,958.481Zm.66.721a26.2,26.2,0,0,1-.36,2.943q1.74,0,2.7.06a4.476,4.476,0,0,0,.3-1.621v-1.262A20.916,20.916,0,0,0,588.832,959.2Zm2.642-.66V956.32a17.415,17.415,0,0,0-2.462-.18l-.12,2.341C589.933,958.481,590.793,958.5,591.474,958.542Z" fill="#000000"/><path d="M608.6,954.1q.72.18.72.6,0,.242-.48.421a17.76,17.76,0,0,1-3,2.642l-.181-.18a31.582,31.582,0,0,0,2.1-2.763,27.169,27.169,0,0,0-10.628.061q-.481.06-.541-.36a.5.5,0,0,1,.421-.6A36.1,36.1,0,0,1,608.6,954.1Zm-6.185.78c.279,0,.42.18.42.54v1.622a8.165,8.165,0,0,1-.841,4.083,6.027,6.027,0,0,1-2.762,2.522,1.317,1.317,0,0,1-1.8-.48l.06-.24a5.282,5.282,0,0,0,3.723-2.162,6.931,6.931,0,0,0,.841-3.723v-1.622Q602.053,954.879,602.413,954.879Z" fill="#000000"/><path d="M614.192,953.077c.241,0,.361.181.361.541v5.164l1.922-1.381.179.18a18.394,18.394,0,0,1-1.8,2.042c-.281.28-.521.381-.721.3q-.36-.12-.361-.9v-5.4C613.771,953.258,613.912,953.077,614.192,953.077Zm8.287-.24c.241,0,.361.181.361.541v3.482a7.675,7.675,0,0,1-1.2,4.624,6.3,6.3,0,0,1-4.084,2.283,1.372,1.372,0,0,1-1.742-.841l.061-.24a6.571,6.571,0,0,0,4.863-1.5q1.322-1.32,1.322-4.324v-3.482C622.059,953.018,622.2,952.837,622.479,952.837Z" fill="#000000"/><path d="M629.414,963.406a1.434,1.434,0,0,1-1.861-.36l.059-.24a14.05,14.05,0,0,0,5.465-3.423,15.019,15.019,0,0,0,2.943-4.8,18.106,18.106,0,0,0-6.546.119.441.441,0,0,1-.54-.359c-.04-.32.08-.5.36-.541a24.567,24.567,0,0,1,7.266,0c.44.081.661.24.661.48,0,.2-.141.361-.421.481a17.978,17.978,0,0,1-2.642,4.563,15.558,15.558,0,0,0,6.185,3.364l.06.24a1.884,1.884,0,0,1-2.042.54A24.311,24.311,0,0,1,633.8,959.8,15.559,15.559,0,0,1,629.414,963.406Z" fill="#000000"/><path d="M648.493,961.845a9.789,9.789,0,0,0-1.381-2.283l.181-.179a10.262,10.262,0,0,1,1.921,1.8,3.46,3.46,0,0,1,.9,1.8q-.242,1.442-.9.541l-.36-.781a8,8,0,0,0-5.945.481q-.842.42-.48-1.261l.841-.12,2.582-3.423-2.462-1.261-.061-.24,2.523-4.5c.08-.12.259-.039.54.24s.4.461.36.54l-2.462,3.423,1.981,1.2,1.442-2.162q.18-.239.6.24c.28.282.361.5.241.662l-4.564,5.223A15.386,15.386,0,0,1,648.493,961.845Zm7.807-7.567c.36.12.56.281.6.481s-.1.4-.42.6a28.993,28.993,0,0,1-.48,5.4q-.54,2.761-1.321,3.182a4.321,4.321,0,0,1-3.3-.12v-.24a6.321,6.321,0,0,0,2.822-.841q.78-.6,1.2-3.362a30.191,30.191,0,0,0,.3-4.384,20.636,20.636,0,0,0-6.845-.9.384.384,0,0,1-.42-.361c.039-.28.179-.421.42-.421A24.7,24.7,0,0,1,656.3,954.278Z" fill="#000000"/><path d="M660.831,955.479l1.141-1.38c.079-.12.279-.061.6.179q.36.3.18.481l-2.882,2.7a12.656,12.656,0,0,1,2.462,0,11.4,11.4,0,0,0-.661-1.081l.181-.18q1.56.961,1.561,1.741-.242,1.442-.841.121a6.835,6.835,0,0,0-3.483.48q-1.022.48-.481-.961l.481-.06,1.382-1.561-1.382-.9v-.241l1.742-2.462c.079-.12.279-.079.6.121s.4.38.24.541l-1.741,1.741Zm4.023,4.985a16.085,16.085,0,0,1-4.324,3.242q-1.442.78-2.1-.42l.059-.24a15.991,15.991,0,0,0,6.125-2.822Zm.661-2.223q.36.062.36.361v.661q.84,0,2.521.059,1.682.18,2.042.24c.481.082.581.281.3.6a1.48,1.48,0,0,1-1.26.3,13.509,13.509,0,0,0-3.6-.481v3.9q0,.66-.36.72-.361-.06-.361-.72v-3.9a23.067,23.067,0,0,0-4.5.54c-.321.04-.5-.059-.54-.3-.081-.281.039-.46.361-.541a31.057,31.057,0,0,1,4.683-.42V958.6Q665.154,958.3,665.515,958.241Zm-1.022-.059q-1.322.54-.72-.661V954.1l-.3-.841.18-.181.6.3.721-.061v-1.14c0-.159.24-.181.72-.061q.662.121.481.361l-.6.84a9.692,9.692,0,0,1,1.262.061q1.14.18.479.841v3.3q.6,1.2-.719.661A6.186,6.186,0,0,0,664.493,958.182Zm0-4.144v1.321a6.186,6.186,0,0,1,2.1,0v-1.321A6.186,6.186,0,0,0,664.493,954.038Zm2.1,1.982a6.136,6.136,0,0,0-2.1,0v1.5a6.186,6.186,0,0,1,2.1,0Zm-.241,4.143a12.693,12.693,0,0,0,6.366,2.462l.12.24a2.01,2.01,0,0,1-2.463.661,15.44,15.44,0,0,1-4.263-3.123Zm3.483-4.744,1.02-1.261c.121-.12.321-.059.6.181.28.2.34.359.181.479l-2.823,2.643a11.449,11.449,0,0,1,2.642-.06q-.18-.36-.721-1.2l.181-.18q1.68,1.022,1.561,1.981-.3,1.442-.84.061a6.508,6.508,0,0,0-3.3.36q-1.082.48-.6-.841l.3-.06,1.442-1.622-1.5-.9v-.24l1.681-2.462c.12-.159.339-.12.66.12.321.2.4.381.241.54l-1.742,1.741Z" fill="#000000"/><path d="M687.245,963.105q.721,1.381-.781.721a57.625,57.625,0,0,0-10.508,0q-1.5.662-.781-.721v-9.427l-.24-.721.18-.18.66.241a74.042,74.042,0,0,1,11.169,0q1.2.24.3.9Zm-11.289-9.367v9.367a57.625,57.625,0,0,1,10.508,0v-9.367A57.625,57.625,0,0,0,675.956,953.738Zm7.266,6.245q0,1.382-.361,1.681a2.584,2.584,0,0,1-1.321.36,7.155,7.155,0,0,1-1.861,0v-.24a10.447,10.447,0,0,0,2.342-.9.992.992,0,0,0,.48-.9v-2.942a32.219,32.219,0,0,0-5.164.42.472.472,0,0,1-.481-.36c-.04-.2.06-.34.3-.42a34.6,34.6,0,0,1,5.345-.361v-1.981q0-.3.36-.36.361.06.361.36v1.981a19.865,19.865,0,0,1,2.221.18q.721.18.361.6a.9.9,0,0,1-.841.3,7.487,7.487,0,0,0-1.741-.3Zm-3.243-1.321-1.622,1.982q-.24.24-.66-.3c-.28-.321-.321-.541-.12-.661l2.222-1.2Z" fill="#000000"/></g></svg>
