<svg xmlns="http://www.w3.org/2000/svg" width="1000" height="992" viewBox="0 0 1000 992"><g id="Artboard"><rect id="Tint" width="1000" height="992" fill="#58595b"/></g><g id="Outline"><g id="暗黒能楽集_東方心綺楼_ORIGINAL_SOUNDTRACK_Copyright_2013_黄昏フロンティア_上海アリス幻樂団" data-name="暗黒能楽集 東方心綺楼 ORIGINAL SOUNDTRACK Copyright 2013 黄昏フロンティア＆上海アリス幻樂団"><path id="暗" d="M288.138,765.285c0,.439-.042,1.971-.079,3.323-.047,1.726-.092,3.357-.092,4.034,0,1.52.548,6.48,7.593,6.48,5.973,0,9.473-1.722,10.606-5.247,1.162,1.133,3.058,1.911,6.074,1.911,3.63,0,6-.88,7.544-2.034-.036,1.371-.076,2.808-.107,3.926-.035,1.281-.06,2.209-.06,2.32,0,4.554,2.643,7.165,7.251,7.165.055,0,5.631-.068,8.82-1.587l.068-.033a6.068,6.068,0,0,0,3.353-3.77h6.71c.554,2.66,2.195,5.047,7.054,5.047a24.363,24.363,0,0,0,6.092-.907l.268-.068c5.722-1.5,6.45-4.966,6.45-7.815,0-1.08-.075-4.14-.148-7.1-.053-2.178-.109-4.43-.109-4.961V755.247c1.934-1.264,3.508-2.849,3.508-5.616a6.41,6.41,0,0,0-2.81-5.154l-1.887-1.368h2.151c6.331,0,6.652-4.543,6.652-5.454a6.306,6.306,0,0,0-2.114-4.711l-5.962-6.046c-.029-.033-.058-.066-.088-.1a5.334,5.334,0,0,0,1.833-4.114c0-.16-.006-.334-.024-.517a5.507,5.507,0,0,0,4.473-5.386,6.8,6.8,0,0,0-2.284-4.8c-.075-.074-.152-.146-.232-.214l-7.014-5.987q-.094-.081-.195-.156c-.085-.065-.168-.13-.251-.2a6.769,6.769,0,0,0-4.289-1.718,5.222,5.222,0,0,0-2.444.583c-.15-1.416-1.047-4.67-6.092-5.1l-13.322-1.281a3.792,3.792,0,0,0-.383-.019,4,4,0,0,0-3.986,4.332c.065.782.255,3.387.312,7.729H326.44c-.44,0-1.11,0-1.81,0a7.353,7.353,0,0,0-1.649-1.623l-6.564-4.859c-.054-.039-.108-.077-.163-.114l-.143-.1a6.207,6.207,0,0,0-3.614-1.259,5.64,5.64,0,0,0-4.682,2.579l-1.775,2.383h-2.126l-10.532-4.548a4,4,0,0,0-5.579,3.9l.065,1.114c.145,2.437.27,4.541.27,9.35Zm34.518-34.644v-2.756c.2.777.414,1.682.67,2.769C323.116,730.651,322.9,730.647,322.656,730.641Zm17.677-8.233H342.5c-.19,1.039-.4,2.035-.611,2.98A11.591,11.591,0,0,0,340.333,722.408Zm-.826,33.4v-.383h6.029v.383Zm6.029,12.533v.982h-6.029v-.982Z" fill="#fff"/><path id="黒" d="M369.982,753.084a4,4,0,0,0-.632,3.714l1.711,5.133a4,4,0,0,0,3.793,2.735,3.873,3.873,0,0,0,.4-.02,52.174,52.174,0,0,1,5.733-.322,30.217,30.217,0,0,1-2.53,2.491c-5.15,4.427-7.517,6.462-7.517,10.958,0,4.978,4.651,8.876,10.587,8.876,2.836,0,11.5-1.142,13.076-14.685.237,1.053.486,2.3.785,3.895l.027.137c.9,4.593,1.924,9.8,8.952,9.8a10.9,10.9,0,0,0,10.8-8.294c1.873,5.313,3.415,8.209,8.873,8.209a10.565,10.565,0,0,0,10.586-10.758c0-.109,0-.218,0-.326q.345.757.689,1.592c2.628,6.484,3.951,9.748,9.857,9.748a10.861,10.861,0,0,0,10.758-11.185,13.869,13.869,0,0,0-5.143-10.457h.288c6.548,0,6.737-5.126,6.737-5.711a6.881,6.881,0,0,0-2.479-4.978l-4.124-3.72a5.593,5.593,0,0,0,1.214-3.533,6.912,6.912,0,0,0-1.782-4.443,3.981,3.981,0,0,0-.387-.4l-2.186-1.983a7.593,7.593,0,0,0,1.532-4.976c0-.942-.081-3.462-.167-6.129-.082-2.54-.175-5.418-.175-6.36v-5.85c2.416-1.8,3.849-3.605,3.849-6.126a6.354,6.354,0,0,0-3.318-5.466l-7.06-4.959a7.7,7.7,0,0,0-4.571-1.787,6.305,6.305,0,0,0-4.982,2.567l-.057.068-.058.072-2.135,2.682H395.452L383.406,698.6a4,4,0,0,0-5.447,3.9l0,.071c.167,3.907.25,5.868.25,11.991v12.232c0,.253-.036,1.469-.078,2.987-.08,2.853-.178,6.4-.178,7.534a8.331,8.331,0,0,0,.295,2.272,4,4,0,0,0-2.332,4.923l1.625,5.133a4,4,0,0,0,1.722,2.2c-2.108-.054-3.927-.169-5.846-.3-.092-.007-.184-.01-.275-.01A4,4,0,0,0,369.982,753.084Zm28.035-25.245V727.8h5.772v.041Zm25.491,0V727.8h5.943v.041Z" fill="#fff"/><path id="能楽集" d="M458.205,731.863a7.176,7.176,0,0,0,2.465,4.376c0,.507,0,1.012,0,1.587v28.229c0,.934-.042,3.762-.082,6.5-.044,2.941-.089,5.982-.089,7.1,0,4.7,2.555,7.08,7.593,7.08,3.02,0,12.212,0,12.212-8.362,0-.193,0-.457,0-.779a20.7,20.7,0,0,1,.47,5.158l0,.172a4,4,0,0,0,4,3.9l.162,0c9.29-.376,13.67-2.771,15.563-6.547,1.844,3.232,5.536,4.925,12.589,4.925h13.259c3.289,0,7.017,0,10.2-1.163a10.882,10.882,0,0,0,3.73-2.246l.846,1.438a4,4,0,0,0,4.533,1.821,78.947,78.947,0,0,0,28.5-14.553c-.025,1.8-.063,4.248-.092,6.114-.029,1.9-.052,3.4-.052,3.563,0,5.639,3.943,6.823,7.251,6.823,3.126,0,12.639,0,12.639-8.02,0-1.04-.045-3.8-.089-6.467-.018-1.1-.036-2.21-.051-3.183a64.823,64.823,0,0,0,22.718,14.991,4,4,0,0,0,5.359-2.745l.019-.076c.451-1.8,1.822-7.283,5.065-8.989a4,4,0,0,0,2.132-3.342l.085-1.711a4,4,0,0,0-3.427-4.157,93.123,93.123,0,0,1-15.842-3.674H621.64a6.732,6.732,0,0,0,4.8-1.679l.731,2.194a4,4,0,0,0,3.793,2.735c.124,0,.25-.006.376-.017a52.306,52.306,0,0,1,6.3-.325h7.759c-3.547,3.63-8.893,8.039-18.649,14.677a4,4,0,0,0-1.284,5.18l.77,1.454a4,4,0,0,0,4.439,2.023A81.721,81.721,0,0,0,660.141,772.4c-.016.908-.047,2.206-.075,3.4-.043,1.858-.085,3.613-.085,4.291,0,4.471,2.641,6.737,7.85,6.737,10.164,0,12.3-4.687,12.3-8.619,0-.665-.044-2.239-.09-3.906-.025-.915-.053-1.911-.069-2.624,6.579,6.426,14.882,11.564,21.253,13.666a4,4,0,0,0,5.183-3.055c1.2-6.349,4.5-7.918,5.742-8.509a4,4,0,0,0,2.283-3.612V768.45a4,4,0,0,0-3.726-3.99,65.075,65.075,0,0,1-12.025-1.933h9.1c4.394,0,6.4-2.96,6.4-5.711a6.946,6.946,0,0,0-2.363-4.951l-2.081-1.888a6.081,6.081,0,0,0,1.193-3.511,6.657,6.657,0,0,0-2.417-4.925l-2.644-2.479a5.893,5.893,0,0,0,.614-2.69,7.025,7.025,0,0,0-2.2-4.8c-.053-.052-.106-.1-.162-.153l-.352-.315a5.737,5.737,0,0,0,2.541-4.744,6.618,6.618,0,0,0-1.572-4.1c3.735-.417,5.421-3.046,5.421-5.654a7.345,7.345,0,0,0-2.292-4.889c-.036-.037-.074-.072-.112-.108l-7.383-6.789a6.331,6.331,0,0,0-4.477-2.051,5.683,5.683,0,0,0-4.6,2.511c-.34-1.532-1.532-3.8-5.545-4.428L670.371,698.3a3.948,3.948,0,0,0-.658-.055,4,4,0,0,0-4,3.853c-.047,1.281-.557,4.764-1.063,7.781h-.55a5.212,5.212,0,0,0,.885-3.1c0-1.534-.633-4.282-4.864-5.47l-13.317-3.927a4,4,0,0,0-5.012,2.867c-3.067,12.268-12.156,25.347-15.922,30.4a3.984,3.984,0,0,0-.738,2.96c-1.394-3.14-4.444-6.194-10.47-8.318,1.811-.873,3.6-1.821,5.48-2.888a7.452,7.452,0,0,0,1.666.18,5.413,5.413,0,0,0,5.71-5.2,7.029,7.029,0,0,0-2.54-4.967l-9.252-9.166a4,4,0,0,0-6.492,1.267,45.3,45.3,0,0,1-3.47,6.317,8.435,8.435,0,0,0-1.137-.9l-5.487-4.157a8.218,8.218,0,0,0-2.655-1.5c-.272-1.721-1.487-3.971-5.821-4.62l-13.085-1.967A4,4,0,0,0,573,701.95a36.849,36.849,0,0,1,.089,4.241l-4.969-1.6a4,4,0,0,0-5.188,4.353c.008.056.015.113.022.169-4.944-3.6-11.844-5.156-15.7-5.776a4,4,0,0,0-4.082,1.921l-.856,1.454a4,4,0,0,0,.241,4.419l.073.1c3.35,4.492,4.736,6.352,6.514,10.217,1.369,3.011,2.393,5.263,3.753,6.75-3.3.878-6.627,1.673-9.532,2.18a3.964,3.964,0,0,0-.709.2,7.666,7.666,0,0,0-2.84-4.63c-.376-.278-1.1-.812-1.5-1.144-.086-.538-.236-1.632-.485-3.85a5.169,5.169,0,0,0,4.322-5.027,7.6,7.6,0,0,0-2.179-4.773l-.238-.293c-.022-.028-.046-.057-.069-.084l-7.528-8.9a4,4,0,0,0-2.923-1.414c-.043,0-.087,0-.13,0a4,4,0,0,0-2.879,1.223,45.4,45.4,0,0,1-5.28,4.608,5.241,5.241,0,0,0,.183-1.4,5.055,5.055,0,0,0-3.2-4.765,10.532,10.532,0,0,0-3.081-.665l-11.857-1.45a4,4,0,0,0-4.474,4.269c.287,3.847.33,6.824.33,8.256v1.225a39.618,39.618,0,0,0-6.82-4.346,6.185,6.185,0,0,0,.193-1.584,5.276,5.276,0,0,0-3-4.786,10.493,10.493,0,0,0-3.048-.866l-14.086-2.561a4,4,0,0,0-4.708,3.682,70.492,70.492,0,0,1-2.169,13.872c-2.3-.1-4.863-.259-5.337-.31a3.988,3.988,0,0,0-4.38,4.85Zm22.14-1.287q2.229-.741,4.513-1.576l-1.248,1.576Zm3.132-15.726.292-.315c.055.1.108.2.159.3Zm98.964,19.4v-.811h3.548v.811Zm0-13.259v-.383h3.548V721Zm22.623,18.032c.348.437.857,1.089,1.354,1.726.689.883,1.286,1.645,1.8,2.3l-2.871,4.116h-3.026c1.565-1.075,2.783-2.833,2.783-5.923C605.109,740.836,605.09,740.014,605.064,739.027ZM526.69,765.818h-8.4v-1.951c3.853-.624,7.478-1.41,10.526-2.156a25.032,25.032,0,0,1-1.348,4.086C527.3,765.809,527.058,765.818,526.69,765.818ZM520.9,746.8a5.414,5.414,0,0,0,.38-2.045,6.1,6.1,0,0,0-.087-1.047h3.234A37.324,37.324,0,0,1,520.9,746.8Zm19.9,20.438c-.259-.247-.876-.836-1.169-1.157-.128-.914-.395-3.5-.581-5.465a5.1,5.1,0,0,0,2.616-3.1,3.991,3.991,0,0,0,3.671,2.449q.173,0,.348-.015l.424-.037a59.225,59.225,0,0,1,5.988-.29h8.247a88.4,88.4,0,0,1-16.967,15.462c.036-.4.061-.817.061-1.242A8.568,8.568,0,0,0,540.8,767.238Zm23.276-20.067h-6.491a12.376,12.376,0,0,0,.254-1.489c1.382-1.193,3.283-2.849,5.278-4.676-.008.327-.015.628-.021.892-.018.808-.03,1.355-.03,1.4A7.266,7.266,0,0,0,564.074,747.171ZM526.6,724.329l-.252,0h-8.061v-.879c3.316-.489,6.347-1.073,9.123-1.69A24.851,24.851,0,0,1,526.6,724.329ZM546.629,747c-.934-.052-1.812-.111-2.65-.167-.089-.006-.179-.009-.268-.009a3.991,3.991,0,0,0-3.972,4.408l-.114-.13-6.65-7.76a17.7,17.7,0,0,0,2.913-.691,10.023,10.023,0,0,0,5.748-4.484Zm79.723-11.043,1.283,1.2a4,4,0,0,0,4.8.5c1.309-.79,2.433-1.49,3.428-2.134V738c0,.793-.091,3.267-.171,5.449-.088,2.378-.17,4.625-.17,5.5a9.4,9.4,0,0,0,.062,1.105c-2.32-.056-4.281-.186-6.062-.305q-.134-.009-.267-.009a3.981,3.981,0,0,0-2.246.72,8.677,8.677,0,0,0-1.083-1.345l-.05-.049-2.992-2.889a10.04,10.04,0,0,0,3.272-7.663,12.41,12.41,0,0,0-.46-3.38A3.97,3.97,0,0,0,626.352,735.961Z" fill="#fff"/><path id="東方心綺楼" d="M333.542,931.181a5.658,5.658,0,0,0,2.776.744,6.173,6.173,0,0,0,.826-.056c1.287,2.674,4.046,3.16,5.879,3.16h4.528a12.955,12.955,0,0,0,3.744-.4,6.4,6.4,0,0,0,2.062-1.036,3.963,3.963,0,0,0,.937.671l.387.2a4.006,4.006,0,0,0,2.534.355,5.154,5.154,0,0,0,3.14.931,7.244,7.244,0,0,0,2.677-.5,5.157,5.157,0,0,0,2.165-1.565q.237.021.483.021a7.308,7.308,0,0,0,1.909-.234,4,4,0,0,0,3.632,2.325l.134,0a8.031,8.031,0,0,0,5.566-1.956,4.8,4.8,0,0,0,4.042,1.958,7.838,7.838,0,0,0,1.586-.169,3.987,3.987,0,0,0,1.345.234c.1,0,.2,0,.294-.011a23.592,23.592,0,0,0,7.707-1.681,5.709,5.709,0,0,0,3.816,1.411,5.311,5.311,0,0,0,5.38-5.358,5.793,5.793,0,0,0-.728-2.819,4.365,4.365,0,0,0,1.612-3.369,4.569,4.569,0,0,0-.828-2.608,4,4,0,0,0,.914-2.545v-.409a4,4,0,0,0-.121-.978,4.286,4.286,0,0,0,.143-1.092,4.569,4.569,0,0,0-.831-2.612,3.879,3.879,0,0,0,.033-.471,4.511,4.511,0,0,0-2.977-4.184l-.049-.019-2.716-1.056a3.992,3.992,0,0,0-2.258-.189q-.194-.035-.4-.057l-.06-.006-3.062-.3c-.131-.013-.262-.019-.392-.019a4,4,0,0,0-2.235.682q-.526-.146-1.093-.25a4.059,4.059,0,0,0-.726-.066,3.992,3.992,0,0,0-1.04.138,6.59,6.59,0,0,0-.885-.17l-.055-.007-2.824-.324a4.132,4.132,0,0,0-.457-.026,3.869,3.869,0,0,0-3.5,2.107,4.518,4.518,0,0,0-3.053-1.2c-.066,0-.131,0-.2.005a5.992,5.992,0,0,0-2.025-.58l-2.988-.347a4,4,0,0,0-3.635,1.538,6.167,6.167,0,0,0-.715-.327l-.05-.019-3.148-1.164a40.308,40.308,0,0,0-7.439,4.9l-.237.366a3.972,3.972,0,0,0-.581,1.516c-.581-2.312-2.8-5.883-10.927-6.561-.112-.01-.223-.014-.334-.014a4,4,0,0,0-3.813,2.8l-.129.411a3.991,3.991,0,0,0,.114,2.721,3.862,3.862,0,0,0-.322.393,5.124,5.124,0,0,0-.756-.945c-.04-.04-.081-.079-.122-.117l-2.393-2.2-.038-.034a4.583,4.583,0,0,0-3.122-1.257,4.4,4.4,0,0,0-1.557.293,4.625,4.625,0,0,0-3.475-1.938l-3.433-.342c-.132-.013-.265-.019-.4-.019a4,4,0,0,0-3.993,4.234v.014h-2.174c-.166,0-.3-.008-.45-.011a4.829,4.829,0,0,0-.676-.657l-2.143-1.857a4.62,4.62,0,0,0-3.088-1.206,4.349,4.349,0,0,0-2.472.773,4.822,4.822,0,0,0-2.323-.875l-3.419-.371a4.168,4.168,0,0,0-.432-.023,4,4,0,0,0-3.708,2.5h-2.674c-.717,0-1.286-.035-1.9-.077-.091-.007-.183-.01-.274-.01a4,4,0,0,0-3.795,5.265l.431,1.294a4,4,0,0,0,1.692,2.138V921.8c0,.18-.01.69-.02,1.207-.012.6-.023,1.2-.023,1.423a5.053,5.053,0,0,0,.52,2.292q-.534.4-1.116.8l-.1.069a4,4,0,0,0-1.3,5.075l.194.387a3.995,3.995,0,0,0,4.7,2.05,27.318,27.318,0,0,0,4.081-1.535,4.658,4.658,0,0,0,4.217,2.214c2.9,0,4.462-1,5.291-2.141a20.391,20.391,0,0,0,2.168,1.085,4,4,0,0,0,2.522.209,4,4,0,0,0,4.129.584,22.968,22.968,0,0,0,5.317-3.125,4,4,0,0,0,3.942,3.324C329.692,935.72,332.179,933.984,333.542,931.181Zm-18.771-7.062a4.047,4.047,0,0,0-.666-.339c0-.311-.011-.82-.019-1.337-.011-.645-.022-1.3-.022-1.547v-.019c.067,0,.133,0,.2-.01a11.009,11.009,0,0,1,1.316-.067h.243A11.618,11.618,0,0,1,314.771,924.119Z" fill="#fff"/><path id="ORIGINAL" d="M497.029,909.156h-5.175a4,4,0,0,0-3.41,1.908l-.31-.391A4,4,0,0,0,485,909.156h-5.153a3.662,3.662,0,0,1-1.465,0h-7.568a3.978,3.978,0,0,0-2.748,1.106,3.862,3.862,0,0,1-.406-.115,15.389,15.389,0,0,0-6.307-1.336,13.171,13.171,0,0,0-7.289,2.083,4,4,0,0,0-3.3-1.738H443.2a3.977,3.977,0,0,0-3.149,1.561,10.474,10.474,0,0,0-5.8-1.539H426.3a3.993,3.993,0,0,0-3.3,1.742,13.116,13.116,0,0,0-7.262-2.109,12.678,12.678,0,1,0,0,25.356,13.1,13.1,0,0,0,7.248-2.1,3.993,3.993,0,0,0,3.313,1.759h7.051a4,4,0,0,1,4.182,0h4.657a2.531,2.531,0,0,1,1.011,0h7.568a3.988,3.988,0,0,0,3.267-1.7,13.741,13.741,0,0,0,7.274,2.048,13.471,13.471,0,0,0,6.111-1.44l.1-.043.048-.021a3.738,3.738,0,0,1,.4-.04,3.984,3.984,0,0,0,2.851,1.2h7.568a3.662,3.662,0,0,1,1.465,0h5.175a4,4,0,0,0,4-4v-.076l2.027,2.56a4,4,0,0,0,3.136,1.516H495a3.988,3.988,0,0,1,3.059,0h4.678a4,4,0,0,1,4.829,0h7.223a2.586,2.586,0,0,1,1.032,0h12.16a4,4,0,0,0,3.892-3.075l1.035-4.355a4,4,0,0,0-3.891-4.925h-1.143A4,4,0,0,0,525,922.689v-5.181a4,4,0,0,0,2-3.468v-.884a4,4,0,0,0-4-4h-7.18a4,4,0,0,0-4,4v.884c0,.124.014.244.025.366l-1.14-3.027a4,4,0,0,0-3.743-2.59h-1.337a4,4,0,0,0-3.746,2.6l-.853,2.279v-.51A4,4,0,0,0,497.029,909.156Zm-35.176,8.776a3.932,3.932,0,0,0-.628.147A1.474,1.474,0,0,1,461.853,917.932ZM441.4,922.96l-.042-.059c.015-.015.027-.032.042-.048Zm-25.834-5.006c1.51,0,1.627,2.846,1.627,3.718,0,.56-.066,3.352-1.368,3.352-1.2,0-1.52-2.324-1.52-3.7C414.3,919.341,414.821,917.954,415.563,917.954ZM499,919.082V917.52a3.993,3.993,0,0,0,.813-.612Zm14.826-1.574v2.155L512.6,916.4A4.034,4.034,0,0,0,513.828,917.508Z" fill="#fff"/><path id="SOUNDTRACK" d="M711.159,924.751l-3.679-5.009,1.623-1.7h.305a4,4,0,0,0,4-4v-.884a4,4,0,0,0-4-4h-5.757a4.019,4.019,0,0,1-2.436,0h-7.18a3.961,3.961,0,0,0-2.467.874,14.042,14.042,0,0,0-5.917-1.219,12.1,12.1,0,0,0-11.87,8.333l-2.172-5.765a4,4,0,0,0-3.743-2.59H666.53a4,4,0,0,0-3.746,2.6l-4.632,12.376-.623-.862a8,8,0,0,0,2.266-5.6c0-3.91-2.932-8.118-9.368-8.118h-7.956a3.655,3.655,0,0,1-2.283-.022H626.627a4,4,0,0,0-3.55,2.176,13.95,13.95,0,0,0-8.025-2.176h-8.086a3.416,3.416,0,0,1-1.376,0h-5.175a4,4,0,0,0-3.41,1.909l-.311-.392a4,4,0,0,0-3.135-1.517h-5.154a3.476,3.476,0,0,1-1.4,0h-5.195a4,4,0,0,1-4.982,0h-7.18a4,4,0,0,0-3.31,1.756,13.118,13.118,0,0,0-7.25-2.1,12.893,12.893,0,0,0-8.338,2.925,4,4,0,0,0-3.222-2.219,1.047,1.047,0,0,1-.176-.025l-.171-.048a13.576,13.576,0,0,0-3.982-.655c-5.378,0-9.282,3.732-9.282,8.873a8.426,8.426,0,0,0,1.383,4.749,4,4,0,0,0-1.783,3.621l.237,3.321a4,4,0,0,0,2.723,3.508l.05.017c.467.156,1.086.361,1.39.475l.084.03a13.928,13.928,0,0,0,4.595.784,9.427,9.427,0,0,0,7.691-3.345,13.22,13.22,0,0,0,18.719-1.147c1.72,2.849,5,4.492,9.4,4.492a11.794,11.794,0,0,0,6.835-1.925,3.982,3.982,0,0,0,3.166,1.58h5.175a4,4,0,0,0,4-4v-.076l2.027,2.56a4,4,0,0,0,3.136,1.516h.819a3.882,3.882,0,0,1,3.4,0h8.086a16.227,16.227,0,0,0,7.04-1.575,11.412,11.412,0,0,0,3.554-3.142v.717a4,4,0,0,0,4,4h7.524a3.942,3.942,0,0,1,5.3,0h7.05a4,4,0,0,1,4.183,0h4.657c.1,0,.2-.022.3-.03.1.008.2.03.3.03h4.679a4,4,0,0,1,4.83,0h7.222a3.974,3.974,0,0,0,3.092-1.49,13.362,13.362,0,0,0,6.952,1.835,14.978,14.978,0,0,0,5.174-.891c.1-.037.384-.145.719-.276a3.963,3.963,0,0,0,2.4.822h7.18a4,4,0,0,1,4.786,0h4.528a4,4,0,0,0,4-4V928.7A4,4,0,0,0,711.159,924.751Zm-152.242-6.8c1.51,0,1.627,2.846,1.627,3.718,0,.56-.066,3.352-1.368,3.352-1.2,0-1.52-2.324-1.52-3.7C557.656,919.341,558.175,917.954,558.917,917.954Zm57.719,3.567c0,1.621-.185,2.415-.5,2.805v-5.647C616.451,919.074,616.636,919.879,616.636,921.521Zm22.356,3.856v-4.348a3.936,3.936,0,0,0,.636.051h.848v4.412a.788.788,0,0,1-1.484-.115Zm47.263-.331c-.456,0-1.843,0-1.843-3.61,0-.035.019-3.5,1.67-3.5.954.023,1.049.5,1.1.761a2.728,2.728,0,0,1,.341,5.266C687.343,924.63,687.068,925.046,686.255,925.046Zm-106.439-7.538v6.881a2.846,2.846,0,0,1-.03.445,3.41,3.41,0,0,1-.713.062c-.089,0-.165,0-.228-.009-.02-.191-.02-.412-.02-.52v-6.859a4.013,4.013,0,0,0,.5-.338A4.078,4.078,0,0,0,579.816,917.508Zm48.007,6.146v1.723a3.974,3.974,0,0,0-.443.267A12.908,12.908,0,0,0,627.823,923.654Z" fill="#fff"/><path id="Copyright_2013_黄昏フロンティア_上海アリス幻樂団" data-name="Copyright 2013 黄昏フロンティア＆上海アリス幻樂団" d="M679.321,954.47a4.432,4.432,0,0,0-1.877-3.6l-1.3-1h0a4.526,4.526,0,0,0-2.762-.977,4.274,4.274,0,0,0-2.688.957h-5.158l-1.522-.6a3.944,3.944,0,0,0-3.621.381l-1.748-.6a3.994,3.994,0,0,0-2.949.14l-.029,0-2.15-.368a3.953,3.953,0,0,0-.675-.058,4,4,0,0,0-1.963.515l-.607-.234a3.994,3.994,0,0,0-4.167.812,4.465,4.465,0,0,0-2.187-.592,4.144,4.144,0,0,0-2.728.986h-1.721a5.927,5.927,0,0,0-.719-.328l-.109-.041-2.386-.854a3.995,3.995,0,0,0-5.328,3.453,6.215,6.215,0,0,0-4.251-2.1,4.717,4.717,0,0,0-2.249.619c-.573.074-1.51.18-2.249.254a4.034,4.034,0,0,0-2.163-.635,3.938,3.938,0,0,0-1,.131l-.28.074a4,4,0,0,0-1.429.733,6.9,6.9,0,0,0-4.614-1.883,5.884,5.884,0,0,0-3.407,1.086,6.211,6.211,0,0,0-2.012-.364,5.639,5.639,0,0,0-2.786.745,4.877,4.877,0,0,0-2.677-.834,6.2,6.2,0,0,0-1.872.353l-.12.036c-.962.116-4.086.425-5.7.562a4.025,4.025,0,0,0-2.3-.728,3.925,3.925,0,0,0-1,.13l-.28.073c-.013,0-.026.01-.04.013l-.325-.28c-.054-.046-.109-.091-.166-.135a4.417,4.417,0,0,0-2.754-1,4.18,4.18,0,0,0-1.69.355,5.346,5.346,0,0,0-1.133-.4l-2.156-.539a4.042,4.042,0,0,0-.969-.119,4.011,4.011,0,0,0-2.611.97,11.39,11.39,0,0,0-2.066-.476,4.119,4.119,0,0,0-.552-.038,3.993,3.993,0,0,0-3.543,2.169,4.4,4.4,0,0,0-3.45-2.178l-2.451-.25c-.136-.013-.271-.02-.4-.02a4,4,0,0,0-3.981,4.387,12.913,12.913,0,0,1,.054,1.38v2.406a4,4,0,0,0-3.671-2.416h-.668a6.413,6.413,0,0,0-6.385-4.845,6.831,6.831,0,0,0-5.407,2.567,5.372,5.372,0,0,0-3.987-1.978,6.245,6.245,0,0,0-1.872.352l-.12.037c-.962.116-4.086.425-5.7.562a4.031,4.031,0,0,0-2.3-.728,3.951,3.951,0,0,0-1,.129l-.28.073a3.988,3.988,0,0,0-2.408,1.811,5.94,5.94,0,0,0-2.367-.527,5.777,5.777,0,0,0-2,.373,4,4,0,0,0-2.545,2.927l-.06.281c-.027.13-.048.26-.063.389-.239.222-.479.428-.719.627a20.374,20.374,0,0,0-7.128-6.335,5.712,5.712,0,0,0-1.684.248l-.06.016c-.493.09-2.037.221-2.939.273a4.053,4.053,0,0,0-1.519-.3,3.961,3.961,0,0,0-1.357.239l-.28.1a2.019,2.019,0,0,1-2.29,1.2,4,4,0,0,0-3.134,1.512c-.067.084-.135.168-.2.251-1.331-1.767-3.768-2.961-6.991-3.315a4,4,0,0,0-3.25,1.134,4.974,4.974,0,0,0-2.031-.481,5.838,5.838,0,0,0-2.056.446c-.76.093-2.819.285-4.013.391a6.044,6.044,0,0,0-2.295-.454,5.849,5.849,0,0,0-1.555.208,5.2,5.2,0,0,0-3.23-1.253,5.253,5.253,0,0,0-1.821.37c-1,.086-3.559.284-4.939.377a3.988,3.988,0,0,0-2.908-.5l-.28.06c-.1.02-.186.051-.279.078a4.592,4.592,0,0,0-.727-.544c-.041-.024-.081-.048-.123-.07l-2.252-1.238a4,4,0,0,0-3.582-.135,3.619,3.619,0,0,1-.632.217,33.979,33.979,0,0,1-4.16.868l-1.51-.469a3.943,3.943,0,0,0-3.384.5,4.273,4.273,0,0,0-2.353-.733,4.844,4.844,0,0,0-1.117-.244l-2.241-.248a4.068,4.068,0,0,0-.44-.024,3.985,3.985,0,0,0-1.491.289c-.047-.006-.093-.012-.141-.016l-2.225-.248a3.882,3.882,0,0,0-.443-.025,135.06,135.06,0,0,0-6.016,3.214,7.457,7.457,0,0,0-5.527-2.257,8.264,8.264,0,0,0-4.254,1.114c-.065-.061-.115-.134-.184-.191a4,4,0,0,0-3.29-.855l-3.71.692a3.978,3.978,0,0,0-.948.319,7.257,7.257,0,0,0-7.729.072,7.516,7.516,0,0,0-4.062-1.151,7.817,7.817,0,0,0-6.379,3.232,3.99,3.99,0,0,0-3.575-2.23h-.928a4,4,0,0,0-3.738,2.59c-.1-.024-.2-.063-.3-.083a4,4,0,0,0-4-3.862,3.922,3.922,0,0,0-.69.06l-2.945.515a3.988,3.988,0,0,0-3.218,3.171q-.173-.006-.318-.006c-.217,0-.429.012-.64.028a5.219,5.219,0,0,0-9.9-.028h0a3.9,3.9,0,0,0-.7.063l-1.347.241a4.028,4.028,0,0,0-.672-.068h-2.872a4.037,4.037,0,0,1-1.619,0h-3.976a4,4,0,0,0-.909.113,7.475,7.475,0,0,0-2.242-.335,7.879,7.879,0,0,0-1.383.12,4.026,4.026,0,0,0-.973-.12,3.974,3.974,0,0,0-.686.06l-2.96.515c-.043.008-.081.026-.123.034a8.307,8.307,0,0,0-3.2-.623,8.723,8.723,0,0,0-.963.057,3.993,3.993,0,0,0-2.925-2.371,1.68,1.68,0,0,1-.269-.069,11.2,11.2,0,0,0-4.721-1,9.6,9.6,0,0,0-9.861,9.993c0,5.806,4.079,9.861,9.92,9.861a11.473,11.473,0,0,0,3.97-.687c.1-.035.465-.177.85-.328a8.18,8.18,0,0,0,3.964,1.013,3.986,3.986,0,0,0,3.952,3.521h4.152a3.974,3.974,0,0,0,2.684-1.052,4.9,4.9,0,0,0,3.03,1.037c1.721,0,4.042-.715,5.773-3.9a3.982,3.982,0,0,0,1.059.159h4.123a3.706,3.706,0,0,1,1.84,0h.577c.932,2.068,3.131,3.713,6.814,3.74h.122c3.372,0,6.1-1.459,7.441-3.741h.8a4.046,4.046,0,0,1,1.149,0h3.99a4.034,4.034,0,0,0,.751-.075,6.4,6.4,0,0,0,1.988.311,6.968,6.968,0,0,0,3.771-1.089,3.96,3.96,0,0,0,2.442.853h6.891a3.981,3.981,0,0,0,1.86-.466,7.262,7.262,0,0,0,6.444-.106,3.961,3.961,0,0,0,2.032.572h5.478a3.975,3.975,0,0,0,1.384-.26,9.421,9.421,0,0,0,3.092.5,9.97,9.97,0,0,0,5.324-1.46,3.984,3.984,0,0,0,4.163,2.479,21.846,21.846,0,0,0,5.979-1.448,4.236,4.236,0,0,0,1.371-.269c.172.1.348.215.561.358l.127.084a6.039,6.039,0,0,0,3.678,1.375,4.909,4.909,0,0,0,2.634-.775,5.043,5.043,0,0,0,2.711.745,5.967,5.967,0,0,0,3.184-.809h1.25a4.9,4.9,0,0,0,2.781.824,5.356,5.356,0,0,0,4.734-2.218,3.973,3.973,0,0,0,3.975,1.261,14.7,14.7,0,0,0,7.785-4.525c.176-.2.339-.4.5-.611a5.429,5.429,0,0,0,5.091,4.4,4.671,4.671,0,0,0,3-1.047c.517-.025.79-.028,1.309-.028.746,0,1.163.014,1.631.055a8.727,8.727,0,0,0,.917.063,4.9,4.9,0,0,0,2.37-.617,5.863,5.863,0,0,0,4.226,2.119,4.886,4.886,0,0,0,2.654-.82,4.078,4.078,0,0,0,.4-.292l.074-.061c.078-.065.222-.188.333-.276a36.309,36.309,0,0,0,4.63-3.391,3.987,3.987,0,0,0,.242,2.933l.132.264a4,4,0,0,0,3.579,2.217,3.956,3.956,0,0,0,.828-.087c4.846-1.023,7.06-3.856,8.065-6.421a4.091,4.091,0,0,0,.142.426l.117.266a4,4,0,0,0,3.659,2.386,3.93,3.93,0,0,0,.68-.059,5.005,5.005,0,0,0,4.7,3.578,4.608,4.608,0,0,0,4.538-3.643,3.952,3.952,0,0,0,.639,1.689l.161.236A4,4,0,0,0,534.7,970a11.075,11.075,0,0,0,7.389-7.659l.017-.061c.012-.045.027-.1.042-.161q.619-.339,1.266-.745l.06-.039a7.32,7.32,0,0,0-.109,1.247,6.964,6.964,0,0,0,7.254,6.975,9.251,9.251,0,0,0,3.174-.55,3.994,3.994,0,0,0,1.553.314H558.7c.072,0,.139-.017.21-.021a3.978,3.978,0,0,0,2.1.61,3.835,3.835,0,0,0,.4-.02,6.3,6.3,0,0,1,.767-.038h12.059a4.632,4.632,0,0,0,.743-.071,4.954,4.954,0,0,0,2.335.586,5.33,5.33,0,0,0,3.525-1.327c.09-.008.18-.017.27-.029a4,4,0,0,0,3.084,1.605c.141,0,.277.006.409.006a6.5,6.5,0,0,0,5.235-2.069,3.992,3.992,0,0,0,4.5,1.447,11.072,11.072,0,0,0,7.388-7.66c.017-.061.036-.136.057-.22q.621-.339,1.268-.746c.036-.022.1-.062.16-.1a5.889,5.889,0,0,0,1.705,3,4,4,0,0,0-.007,3.269l.118.265a4,4,0,0,0,4.527,2.279,12.744,12.744,0,0,0,5.231-2.335,3.977,3.977,0,0,0,4.159,1.625,16.175,16.175,0,0,0,5.849-2.5,4.694,4.694,0,0,0,4.149,2.359,4.785,4.785,0,0,0,1.887-.39,4.407,4.407,0,0,0,2.5.8,4.332,4.332,0,0,0,3.057-1.288,4.634,4.634,0,0,0,1.515.5,4.006,4.006,0,0,0,3.322,1.778c.046,0,.091,0,.136,0a9.4,9.4,0,0,0,3.78-.836,3.96,3.96,0,0,0,2.7.363,17.8,17.8,0,0,0,2.361-.7,4.565,4.565,0,0,0,3.26,1.224,5.876,5.876,0,0,0,3.82-1.168q.618.273,1.278.5a3.934,3.934,0,0,0,2.4.05,4.825,4.825,0,0,0,2.216.533,6.083,6.083,0,0,0,3.718-1.061h3.277a4.744,4.744,0,0,0,2.974,1.016c4.1,0,5.56-2.591,5.56-4.81,0-.18-.016-.677-.033-1.162-.012-.337-.024-.667-.026-.807v-6.938A4.19,4.19,0,0,0,679.321,954.47Zm-117.036,6.617h-.078l-.1,0a4.022,4.022,0,0,0,.18-.367ZM333.192,959.6c0-.05,0-.1,0-.145.067.1.138.193.213.284-.071.1-.137.206-.2.314C333.2,959.912,333.192,959.761,333.192,959.6Zm197.593,3.243a3.983,3.983,0,0,0-1.294,1.832c0-.271-.013-.6-.021-.952-.015-.586-.031-1.194-.031-1.414,0-.148,0-.459,0-.7l.1-.091c.032-.028.064-.056.1-.085l.058-.055a7.088,7.088,0,0,0,.986-.793,5.591,5.591,0,0,0,1.4.674A4.62,4.62,0,0,1,530.785,962.838Z" fill="#fff"/></g></g><g id="Text"><g id="暗黒能楽集_東方心綺楼_ORIGINAL_SOUNDTRACK_Copyright_2013_黄昏フロンティア_上海アリス幻樂団-2" data-name="暗黒能楽集 東方心綺楼 ORIGINAL SOUNDTRACK Copyright 2013 黄昏フロンティア＆上海アリス幻樂団"><g id="暗黒能楽集"><path d="M351.76,713.96l3.508-5.047c.427-.6.855-1.2,1.625-1.2a3.717,3.717,0,0,1,2.138,1.112l7.014,5.987a3.252,3.252,0,0,1,1.113,1.968c0,1.54-1.8,1.625-2.738,1.625H351.333l9.238,2.482c.855.256,2.138.683,2.138,1.8,0,1.454-1.283,1.625-3.935,1.967a85.308,85.308,0,0,1-10.093,10.008h6.5l3.592-4.961c.428-.513.77-.941,1.54-.941a2.235,2.235,0,0,1,1.711.855l6.074,6.159a2.385,2.385,0,0,1,.941,1.882c0,1.368-1.455,1.454-2.652,1.454H324.644a59.552,59.552,0,0,0-5.988.257v22.326c0,1.113.171,5.817,0,6.843-.513,2.823-4.02,3.251-6.416,3.251-3.763,0-3.763-1.283-3.763-2.48v-4.192h-5.9v5.9c0,1.711,0,4.106-7.014,4.106-3.165,0-3.593-1.2-3.593-2.48,0-1.2.171-6.33.171-7.357v-48.5c0-5.645-.171-7.7-.342-10.692l11.291,4.876h4.962l2.994-4.021a1.783,1.783,0,0,1,1.454-.941,2.8,2.8,0,0,1,1.54.684l6.587,4.876a2.29,2.29,0,0,1,1.111,1.625,1.031,1.031,0,0,1-.171.685c.941.085,3.422.085,4.876.085h8.554v-1.454c0-4.875-.171-8.554-.342-10.607L348,703.183c1.026.085,2.48.341,2.48,1.625,0,1.112-.256,1.283-3.25,2.395v6.757Zm-49.186,1.455v19.76h5.9v-19.76Zm0,24.293v20.958h5.9V739.708Zm26.432-5.047a9.58,9.58,0,0,1-1.454-3.507c-1.625-6.928-1.882-8.041-4.277-12.146l.428-.514c-1.454.086-2.224.086-4.7.257l-.342-1.2V734.49c3.935.171,4.448.171,6.159.171Zm20.017,12.318,2.994-4.363c.6-.855,1.2-1.368,1.967-1.368a3.488,3.488,0,0,1,2.053.856l7.785,5.645a2.457,2.457,0,0,1,1.112,1.882c0,1.2-.77,1.8-3.508,3.336v13c0,1.283.257,10.179.257,12.061,0,1.8-.171,3.08-3.422,3.935a21.477,21.477,0,0,1-5.388.855c-3.337,0-3.337-1.2-3.337-5.047H335.507c0,2.567,0,3.422-1.539,4.192-1.8.855-5.646,1.2-7.1,1.2-2.652,0-3.251-1.026-3.251-3.165,0-.343.257-8.81.257-10.521v-16c0-3.849,0-6.159-.257-11.89l13.174,5.389Zm-21.984-28.571c3.849,1.369,11.462,4.534,11.462,10.694a6.114,6.114,0,0,1-2.994,5.559h7.87a76.4,76.4,0,0,0,3.764-16.253Zm8.468,33.02v8.383h14.029v-8.383Zm0,12.916v8.982h14.029v-8.982Z" fill="#000000"/><path d="M452.7,756.646a3.077,3.077,0,0,1,1.112,1.966c0,1.711-1.882,1.711-2.737,1.711H381.528a56.261,56.261,0,0,0-6.672.343l-1.711-5.133c2.48.171,5.132.342,8.64.342h26v-7.784H388.115a58.288,58.288,0,0,0-6.758.343l-1.625-5.133c2.395.171,5.132.342,8.554.342h19.5v-7.357H394.017c-.085,1.2-.171,2.225-2.309,2.909a31.676,31.676,0,0,1-6.5.941c-3.251,0-3.251-1.8-3.251-2.823,0-1.71.256-9.922.256-10.521V714.56c0-6.246-.085-8.212-.256-12.233l12.745,4.961h38.152l3.335-4.191a2.488,2.488,0,0,1,1.968-1.2,4.356,4.356,0,0,1,2.224,1.027l7.185,5.047a2.723,2.723,0,0,1,1.54,2.138c0,.77-.256,1.711-3.849,4.021v7.955c0,1.968.342,10.692.342,12.489,0,2.395-.684,3.336-4.448,4.106l6.415,5.816a3.184,3.184,0,0,1,.856,1.883c0,1.454-1.283,1.71-2.481,1.71h-2.994a7.267,7.267,0,0,1,1.027.684ZM390,760.751a21.888,21.888,0,0,1,.855,6.673c0,9.751-3.422,15.225-9.324,15.225-3.336,0-6.587-1.966-6.587-4.876,0-2.651,1.284-3.763,6.159-7.955a30.421,30.421,0,0,0,7.271-9.238Zm4.02-49.015v7.614h13.772v-7.614Zm0,12.062v8.041h13.772V723.8Zm2.481,37.039c5.731,1.968,14.969,6.929,14.969,13.943,0,5.389-4.448,7.014-7.1,7.014-3.764,0-4.107-1.882-5.048-6.672a45.873,45.873,0,0,0-3.934-13Zm17.193.171c6.929,1.54,16.937,6.416,16.937,13.943a6.548,6.548,0,0,1-6.586,6.758c-3.25,0-3.593-1.112-5.817-7.613-2.566-7.7-4.363-10.18-5.389-11.634Zm19.76-41.658v-7.614H419.508v7.614Zm0,12.489V723.8H419.508v8.041Zm1.968,7.1c-1.8-.427-1.882-1.454-1.882-2.652H419.508v7.357h12.66Zm5.132,10.094a2.457,2.457,0,0,1,.941-.941H419.508v7.784h16.6Zm-8.212,11.976c4.363.684,11.976,3.593,14.713,5.474,3.422,2.4,4.876,5.475,4.876,8.3a6.876,6.876,0,0,1-6.758,7.185c-3.165,0-3.592-.941-6.159-7.271a43.082,43.082,0,0,0-7.527-12.232Z" fill="#000000"/><path d="M488.8,730.47c.684-.856,1.112-1.027,1.71-1.027a3.112,3.112,0,0,1,2.054.856l7.271,5.9a2.8,2.8,0,0,1,1.282,1.967c0,1.112-.855,1.8-3.592,3.593v19.845c0,1.882.256,10.265.256,11.976,0,4.534-.341,8.726-13,9.238-.171-6.586-.171-8.981-7.271-12.146v-1.711l5.817.086c2.738,0,3.079-.171,3.079-2.653v-5.217H476.136V765.8c0,2.054.171,10.778.171,12.575,0,1.539,0,4.362-8.212,4.362-3.336,0-3.593-1.026-3.593-3.08,0-2.137.171-11.633.171-13.6V737.826c0-1.625,0-2.737-.085-4.876a1.654,1.654,0,0,1-.856.257c-.684,0-1.2-.342-1.625-2.224l-2.737-12.147c.684.086,6.5.428,8.81.428a73.639,73.639,0,0,0,3.165-17.707l14.114,2.566c1.541.257,2.738.514,2.738,1.711,0,1.369-1.283,1.454-3.764,1.711-2.48,3.165-3.25,4.02-10.692,11.634,1.8-.086,13-.428,15.824-.514a25.76,25.76,0,0,0-3.25-7.7l1.283-1.2c5.389,2.309,14.542,7.613,14.542,14.969a6.468,6.468,0,0,1-6.587,6.33,3.886,3.886,0,0,1-4.02-3.079c-.257-.855-.855-4.705-1.027-5.56a168.261,168.261,0,0,1-23.181,7.87l9.837,4.277h8.383Zm-2.4,8.553H476.136v6.587H486.4Zm0,11.036H476.136v6.671H486.4Zm27.887-24.636c0,1.8,0,2.908,3.25,2.908h8.811c3.336,0,3.763-.855,5.645-8.3H533.7c.086.77.6,5.646.856,6.33.342.855.6,1.112,2.908,2.823a4.675,4.675,0,0,1,1.455,3.763c0,6.758-7.186,6.758-12.917,6.758H513.089c-9.837,0-10.265-2.48-10.265-9.923V710.539c0-2.139-.086-5.133-.342-8.555l11.89,1.454c1.625.172,2.737.343,2.737,1.456,0,.854-.855,1.368-2.822,2.052V715.5c4.192-2.566,10.179-6.244,14.8-11.034l7.527,8.895c.685.856,1.54,1.8,1.54,2.567a1.217,1.217,0,0,1-1.283,1.112,7.819,7.819,0,0,1-2.908-1.026,132.333,132.333,0,0,1-19.674,3.934Zm0,41.487c0,1.8,0,2.908,3.25,2.908h9.153c3.764,0,4.448-.769,6.672-9.752l1.625.086c.086.942.6,6.33.771,7.015.256.94.513,1.283,2.309,2.994a4.655,4.655,0,0,1,1.369,3.678c0,7.356-7.015,7.356-13.088,7.356H513.089c-9.238,0-10.265-2.566-10.265-9.923V750.229c0-1.966-.086-5.131-.342-8.553l11.89,1.368c1.454.172,2.908.428,2.908,1.711,0,1.2-1.368,1.8-2.993,2.395v8.725c4.533-2.651,10.265-6.073,14.627-11.12l7.7,8.982a3.782,3.782,0,0,1,1.284,2.224,1.152,1.152,0,0,1-1.2,1.2,6.949,6.949,0,0,1-2.823-.94,135.012,135.012,0,0,1-19.588,4.191Z" fill="#000000"/><path d="M590.246,712.164,592.983,709a2.317,2.317,0,0,1,1.625-1.026,3.52,3.52,0,0,1,2.054.94l5.646,4.277c1.026.685,1.283,1.2,1.283,1.8,0,.77-.514,1.454-2.653,2.909v6.244c2.653-3.25,9.154-11.462,11.976-18.049l9.238,9.152c.685.685,1.369,1.369,1.369,2.139s-.855,1.2-1.71,1.2a10.089,10.089,0,0,1-2.31-.428,86.053,86.053,0,0,1-18.22,8.126l-.343-.513v.941c9.5.77,21.214,3.422,21.214,11.8,0,3.934-2.822,6.073-5.474,6.073a5.049,5.049,0,0,1-1.539-.257,3.975,3.975,0,0,0,.512.428l7.443,7.185a3.491,3.491,0,0,1,1.026,1.968c0,1.454-1.283,1.711-2.48,1.711H592.3c4.106,3.079,15.568,9.152,32.847,11.633l-.084,1.711c-4.876,2.566-6.5,9.238-7.1,11.634-15.91-6.33-24.978-17.023-28.229-23.439v9.5c0,1.8.172,10.351.172,12.319,0,2.052-.941,4.02-8.639,4.02-3.165,0-3.251-1.2-3.251-2.823,0-.428.171-10.692.171-11.976v-6.928c-9.068,9.751-20.873,16.338-33.618,19.93l-.855-1.454c15.825-10.949,21.9-20.187,24.465-24.122H552.1a66.3,66.3,0,0,0-6.758.342l-1.625-5.133c2.566.172,5.218.343,8.554.343h25.919c0-2.908-.085-4.448-.257-7.015-1.8,1.968-6.586,1.968-7.014,1.968-3.593,0-3.85-1.283-3.85-2.823,0-.171.171-7.186.171-8.554v-3.508c-3.848,4.449-10.778,10.351-13.258,12.49-.171,2.737-.171,3.763-1.711,3.763-.77,0-1.027-.342-1.539-1.368l-6.673-11.805c7.356-1.283,17.108-4.277,23.181-6.159V716.7a66.849,66.849,0,0,0-.341-8.3l9.836,3.165a56.365,56.365,0,0,0,.257-9.922l13.088,1.967c1.711.256,2.481.684,2.481,1.539,0,1.37-1.027,1.54-3.85,1.882a71.568,71.568,0,0,1-5.132,5.133Zm-43.626-4.876c4.79.771,18.135,3.764,18.135,12.318a6.466,6.466,0,0,1-6.33,6.758c-2.652,0-3.079-.941-5.646-6.587-1.967-4.277-3.507-6.33-7.014-11.035Zm65.354,37.382c.855-1.369,1.454-1.2,1.966-1.027-1.026-.941-5.217-6.5-6.158-7.613a57.211,57.211,0,0,0-6.844-6.673v4.705c0,1.027.171,6.074.171,7.186,0,2.053-.6,2.737-2.908,3.422a17.958,17.958,0,0,1-4.961.769c-3.08,0-3.165-1.369-3.251-2.737H578.355a2.447,2.447,0,0,1-.341,1.2l11.89,1.2c1.539.171,2.481.512,2.481,1.625,0,.855-.514,1.368-2.653,2.309v2.139h17.707Zm-33.533-28.058V725h11.548v-8.383Zm11.548,12.831H578.441v8.811h11.548Z" fill="#000000"/><path d="M694.349,728.074c.256.257.427.343.6.514l6.5,5.816a3.292,3.292,0,0,1,1.028,1.968c0,1.711-1.37,1.711-3.508,1.711l6.844,6.415a2.775,2.775,0,0,1,1.111,1.968c0,1.711-1.8,1.711-2.566,1.711h-2.566l7.356,6.672a3.041,3.041,0,0,1,1.027,1.967c0,1.54-1.625,1.711-2.4,1.711H678.951c8.383,4.7,17.793,8.982,31.48,9.923v1.711c-1.8.855-6.416,3.25-7.955,11.377-8.041-2.652-20.7-11.377-26.519-21.129v10.436c0,1.112.172,6.159.172,7.356,0,1.454,0,4.619-8.3,4.619-2.908,0-3.85-.512-3.85-2.737,0-1.282.172-7.271.172-8.64v-7.612c-13.6,12.916-29.6,17.023-34.387,18.134L629,780.511c16.6-11.291,20.958-16.509,24.893-21.984H637.635a56.086,56.086,0,0,0-6.672.342l-1.711-5.132c2.566.171,5.218.342,8.64.342h26.175c0-3.507-.086-4.79-.171-5.9H651.664c-.086,1.454-.257,3.507-7.613,3.507-4.192,0-4.533-1.027-4.533-2.738,0-1.625.341-9.238.341-10.949V727.646a69.771,69.771,0,0,1-9.5,6.587l-1.283-1.2c6.5-8.725,13.857-20.872,16.6-31.821l13.345,3.934c1.54.428,1.967.942,1.967,1.626,0,1.284-.941,1.454-3.508,1.8-1.454,2.053-2.223,3.079-3.934,5.3H668c.514-2.652,1.626-9.324,1.711-11.634l15.4,2.567c1.113.171,2.31.512,2.31,1.625,0,1.283-1.026,1.369-3.593,1.54a55.761,55.761,0,0,1-8.041,5.9h14.542l4.021-5.988c.513-.77,1.026-1.112,1.54-1.112a2.6,2.6,0,0,1,1.711.941l7.441,6.844a3.79,3.79,0,0,1,1.112,2.052c0,1.54-1.454,1.711-2.48,1.711h-9.238l6.842,6.073a3.291,3.291,0,0,1,1.027,1.968c0,1.71-1.625,1.71-2.481,1.71Zm-28.742-4.447v-5.3H651.664v5.3Zm-13.943,4.447v5.561h13.943v-5.561Zm13.943,10.009H651.664v5.646h13.943Zm10.35,16H693.75l3.935-5.9H677.754a1.289,1.289,0,0,1,1.026,1.2c0,1.026-1.2,1.454-2.823,2.054Zm11.292-30.452,3.764-5.3H677.5v5.3Zm-9.752,4.447v5.561h9.923l3.507-5.047a2.631,2.631,0,0,0,.427-.514Zm0,15.655h13.857l3.936-5.646H677.5Z" fill="#000000"/></g><g id="東方心綺楼_ORIGINAL_SOUNDTRACK_Copyright_2013_黄昏フロンティア_上海アリス幻樂団" data-name="東方心綺楼 ORIGINAL SOUNDTRACK Copyright 2013 黄昏フロンティア＆上海アリス幻樂団"><path d="M312.673,927.946a4.187,4.187,0,0,0-2.091,3.105,14.058,14.058,0,0,1-6.857-5.972v1.466c0,.646.043,3.515.043,4.1,0,.539,0,1.142-2.221,1.142-.819,0-.862-.28-.862-.776,0-.474.043-3.924.043-4.031v-.539a20.345,20.345,0,0,1-8.6,4.829l-.193-.388c1.056-.733,4.959-3.385,7.028-6.641h-1.574c-.021.281-.043.582-.625.755a6.289,6.289,0,0,1-1.553.215c-.8,0-.862-.345-.862-.776,0-.41.043-2.243.043-2.63V918.33c0-.905-.021-1.94-.086-2.716l3.342,1.272h3.083v-1.811h-6.554c-.475,0-.949.022-1.682.086l-.431-1.294c.625.043,1.315.087,2.177.087h6.49a20.088,20.088,0,0,0-.107-2.5l3.384.367c.367.043.539.129.539.367,0,.28-.237.387-.819.625v1.143h3.967l1.164-1.725c.13-.172.238-.281.41-.281a.653.653,0,0,1,.453.216l2.264,1.962a.731.731,0,0,1,.323.539c0,.41-.5.41-.69.41h-7.891v1.811h3.148l.733-.927c.129-.151.237-.323.453-.323a1.158,1.158,0,0,1,.5.215l2,1.466c.3.238.366.367.366.518,0,.258-.151.431-.862.884V920.9c0,.5.043,2.652.043,3.105,0,.431-.043.755-.862.97a5.536,5.536,0,0,1-1.38.173c-.82,0-.82-.345-.82-.906h-2.932a17.647,17.647,0,0,0,8.56,3.278Zm-11.945-9.939h-3.342v1.983h3.342Zm0,3.1h-3.342v2.006h3.342Zm3-1.121h3.32v-1.983h-3.32Zm0,3.127h3.32v-2.006h-3.32Z" fill="#000000"/><path d="M328.021,920.228l.8-1.186c.108-.151.281-.366.453-.366a1.046,1.046,0,0,1,.582.28l1.9,1.4c.41.3.561.474.561.711,0,.152,0,.389-1.035.928-.56,8.624-1.919,9.724-6.36,9.724.086-2.071-.755-2.7-2.652-3.429l.065-.409c.56.021,3.061.151,3.579.151,1.1,0,1.488-.388,1.832-1.833a25.225,25.225,0,0,0,.561-4.851h-5.347c-.647,3.45-2.048,7.547-8.883,10.5l-.259-.345c3.859-3.751,6.167-6.253,6.36-14.7H315.58a14.766,14.766,0,0,0-1.7.086l-.41-1.294c.6.044,1.294.087,2.156.087h6.253v-1.66c0-1.1-.022-1.489-.086-2.588l3.471.345c.3.022.582.129.582.41s-.281.387-.841.6v2.89h3.946l1.315-1.962a.484.484,0,0,1,.388-.28c.129,0,.237.042.453.236l2.393,2.2a.816.816,0,0,1,.28.518c0,.41-.452.41-.625.41h-9.767a27.56,27.56,0,0,1-.259,3.428Z" fill="#000000"/><path d="M338.237,919.149a13.1,13.1,0,0,1,.69,4.227c0,2.35-.733,4.549-2.609,4.549a1.325,1.325,0,0,1-1.4-1.272c0-.583.172-.906.754-1.811a15.125,15.125,0,0,0,2.135-5.693Zm5.627-2.458c.238.023.518.109.518.389,0,.259-.216.409-.8.6v9.486c0,.5,0,.819.862.819H347.4c1.229,0,1.294-.3,2.092-4.225h.431c.064.474.3,2.608.41,3.04s.15.474.883,1.337a1.477,1.477,0,0,1,.324.991c0,1.9-2.372,1.9-3.989,1.9h-4.528c-2.587,0-2.587-1.293-2.587-2.738v-9.379c0-.884-.021-1.466-.108-2.587Zm-2.63-5.023c5.174.432,7.46,2.221,7.46,4.1a1.587,1.587,0,0,1-1.488,1.746c-.754,0-1.013-.323-1.94-1.552a16.16,16.16,0,0,0-4.162-3.881Zm8.171,7.029c.69.259,5.736,2.824,5.736,5.993,0,1.316-.777,2.157-1.768,2.157-.863,0-1.143-.6-1.423-1.618A22.167,22.167,0,0,0,349.1,919Z" fill="#000000"/><path d="M372.407,920.357l.345-.453c-.345-.064-.517-.237-.905-.883a13.89,13.89,0,0,0-1.919-2.588,7.785,7.785,0,0,1-5.39,3.709l-.216-.388a7.571,7.571,0,0,0,3.3-4.55h-1.38a17.486,17.486,0,0,0-1.768.086l-.41-1.293c.755.065,1.294.086,2.178.086h1.574a9.827,9.827,0,0,0,.064-1.294c0-.431-.021-.97-.043-1.38l2.976.346c.539.064.819.107.819.452,0,.3-.28.453-.819.582a9.519,9.519,0,0,1-.13,1.294h1.445l.97-1.466a.473.473,0,0,1,.41-.259.562.562,0,0,1,.431.215l1.854,1.769a.69.69,0,0,1,.28.474c0,.388-.517.388-.69.388H370.4c-.065.173-.108.3-.194.582,1.768.194,4.441.971,4.441,2.588a1.3,1.3,0,0,1-.215.754l1.7,1.423a.623.623,0,0,1,.28.474c0,.454-.517.454-.732.454h-1.014v5.109c0,.389.043,2.135.043,2.5,0,1.962-.927,2.609-3.493,2.695a2.931,2.931,0,0,0-1.25-2.867,2.886,2.886,0,0,1-.776.107c-.6,0-.647-.215-.647-.539v-.56h-1.359v.755c0,.452,0,1.013-1.509,1.013-.539,0-.733-.194-.733-.539,0-.258.043-1.38.043-1.617V924.26c0-1.164-.064-1.919-.086-2.2a1.293,1.293,0,0,1-1.229,1.1c-.539,0-.647-.517-.69-.776-.043-.173-.151-.9-.194-1.057-.3.152-.41.194-.668.323v1.79l.172-.215c.776.453,2.544,1.833,2.544,3.579a1.293,1.293,0,0,1-1.207,1.38c-.561,0-.582-.281-.69-1.122-.259-2.113-.388-2.543-.819-3.277v5.067c0,.3.043,1.552.043,1.811,0,.388-.022.625-.625.862a3.223,3.223,0,0,1-1.186.216c-.733,0-.906-.13-.906-.646,0-.346.065-1.9.065-2.221V925.3h-.13a15.074,15.074,0,0,1-2.91,5.584l-.388-.194a26.026,26.026,0,0,0,1.25-6.706c-.215,0-.3-.085-.409-.474l-.841-3.04c1.315.064,1.983.064,2.716.064a15.391,15.391,0,0,0,1.1-1.767,1.276,1.276,0,0,1-.992.453c-.56,0-.625-.152-1.121-1.6a9.965,9.965,0,0,0-1.358-2.717l.237-.366a7.951,7.951,0,0,1,1.875.711,16.77,16.77,0,0,0,.82-4.031l3.148,1.164c.56.216.56.388.56.517,0,.367-.431.41-.991.431a16.461,16.461,0,0,1-2.588,2.523,1.88,1.88,0,0,1,.777,2.22,34.481,34.481,0,0,0,1.832-3.945l2.63,1.553c.5.3.518.473.518.56,0,.366-.367.366-1.057.345a15.72,15.72,0,0,1-1.94,2.135,5.871,5.871,0,0,1,2.2,1.595,11.04,11.04,0,0,0,1.229.043Zm-12.915,4.162v-1.833c-.6.237-.97.388-1.768.646a1.53,1.53,0,0,1-.129.453Zm.6-4.011c.345,0,2.092-.065,2.48-.086a7.107,7.107,0,0,0-.647-1.38A22.8,22.8,0,0,1,360.1,920.508Zm7.158,2.588h1.164l.647-.82c.151-.172.259-.237.367-.237a.811.811,0,0,1,.453.216L371.2,923.4c.043.043.258.238.258.431,0,.173-.064.3-.711.712v2.587c0,.173.043.992.022,1.164.927.044,1.034-.021,1.034-.689v-6.123h-6.877a1.486,1.486,0,0,1-.022.539Zm1.294,1.121h-1.359V926.8h1.359Z" fill="#000000"/><path d="M391.485,921.78c.453.151.5.281.5.388,0,.323-.475.367-.884.346-.065.129-.367.668-.431.775h3.859l.884-1.207c.151-.194.258-.237.388-.237a.641.641,0,0,1,.453.216l1.487,1.487a.753.753,0,0,1,.238.474c0,.367-.41.388-.69.388h-2.717l1.078.367c.5.172.6.3.6.474,0,.346-.583.389-.841.389a13.026,13.026,0,0,1-1.272,1.876c1.121.323,2.954,1.185,2.954,2.694a1.306,1.306,0,0,1-1.38,1.358c-.669,0-.819-.107-2.178-1.228-.647-.539-1.013-.777-1.272-.971-2.156,1.6-5.131,2.242-8.365,2.48l-.151-.41a17.279,17.279,0,0,0,6.381-3.363c-.754-.367-1.056-.517-1.789-.819-.6,1.034-.733,1.25-1.617,1.25-.992,0-1.919-.474-1.919-.9,0-.195.043-.259.453-.841.819-1.186,1.164-1.79,1.488-2.351a18.85,18.85,0,0,0-2.07.087l-.41-1.272c-.668.021-.755-.41-.841-.863a7.458,7.458,0,0,0-.6-2.306v6.209c0,.69.065,3.73.065,4.355,0,.561-.151.755-.539.9a4.161,4.161,0,0,1-1.38.259c-.862,0-.862-.28-.862-.927,0-.194.043-3.04.043-3.622V924a18.316,18.316,0,0,1-2.458,3.3l-.366-.238a40.3,40.3,0,0,0,2.716-9.551h-.388a16.4,16.4,0,0,0-1.768.087l-.366-1.294c.625.043,1.293.086,2.177.086h.453v-2.35c0-1.358-.021-1.617-.086-2.588l2.824.324c.345.043.733.086.733.41,0,.344-.431.453-.8.539v3.665h.173l.561-.906c.107-.172.194-.3.387-.3s.3.129.54.409c.431.022,1.272.065,2.285.065h2.7V914.04a21.163,21.163,0,0,0-.086-2.565l3.062.3c.193.022.668.065.668.367s-.28.387-.776.582v2.932h.3a17.536,17.536,0,0,0,1.467-3.881l2.717,1.056c.215.087.474.237.474.475,0,.3-.389.323-1.035.323a18.107,18.107,0,0,1-2.738,2.027h1.7l.625-.885c.108-.171.216-.3.431-.3a.588.588,0,0,1,.432.237l1.142,1.208a.717.717,0,0,1,.238.474c0,.388-.475.388-.647.388h-4.722a13.351,13.351,0,0,0,5.347,1.682v.409a3.609,3.609,0,0,0-1.682,2.415,8.024,8.024,0,0,1-4.032-3.514c0,.41.044,2.393.044,2.458,0,.453,0,1.121-2.114,1.142Zm-8.668-2.932a4.116,4.116,0,0,1,2.114,1.531,15.8,15.8,0,0,0,3.1-3.6H386.72c-.453,0-.776.022-1.207.043a.481.481,0,0,1,.086.281c0,.387-.367.409-.6.409h-2.178Zm6.684,2.286a1.494,1.494,0,0,1-.086-.626c0-.28.022-1.639.043-1.941a14.748,14.748,0,0,1-4.2,2.5,1.754,1.754,0,0,1,.129.712,1.34,1.34,0,0,1-1.013,1.423c1.164.065,1.466.086,2.221.086h.8a13.367,13.367,0,0,0,1.143-2.479Zm-4.183-9.293c.583.107,3.407.732,3.407,2.349a1.429,1.429,0,0,1-1.488,1.4c-.711,0-.841-.323-1.207-1.358a6.963,6.963,0,0,0-1.013-2.048Zm4.7,12.569-1.337,2.265c.8.064,1.272.107,2.523.28a7.876,7.876,0,0,0,1.466-2.545Z" fill="#000000"/><path d="M424.532,921.479a8.787,8.787,0,1,1-8.8-8.668A8.428,8.428,0,0,1,424.532,921.479Zm-14.23-.152c0,5.024,2.35,7.7,5.52,7.7,2.717,0,5.368-2.047,5.368-7.352,0-4.117-1.66-7.718-5.627-7.718C413.45,913.954,410.3,915.506,410.3,921.327Z" fill="#000000"/><path d="M439.708,927.45a2.882,2.882,0,0,0,2.48,1.251v1.121H437.53l-5.606-8.3h-.452v6.059c0,.733.043,1.38,1.207,1.38h.669v.862H426.3v-.862h.8c1.143,0,1.207-.6,1.207-1.38V915.42c0-.755-.043-1.38-1.207-1.38h-.8v-.862h7.956c4.29,0,5.369,2.414,5.369,4.118,0,1.4-.777,3.751-4.248,4.161Zm-6.4-7.05a2.779,2.779,0,0,0,2.976-3.061c0-1.984-1.014-3.04-2.976-3.04h-1.832v6.1Z" fill="#000000"/><path d="M450.766,913.156v.884h-.97c-1.143,0-1.229.561-1.229,1.358V927.58c0,.776.086,1.358,1.229,1.358h.97v.884H443.2v-.884h.97c1.208,0,1.229-.668,1.229-1.358V915.4c0-.69-.043-1.358-1.229-1.358h-.97v-.884Z" fill="#000000"/><path d="M462.45,921.888h7.287v1.121c-1.013,0-1.423.194-1.423,1.445v4.14a5.979,5.979,0,0,0-2.414.43,9.823,9.823,0,0,1-4.593,1.143c-4.355,0-8.732-2.651-8.732-8.6a8.37,8.37,0,0,1,8.776-8.753,11.673,11.673,0,0,1,4.894,1.078,9.088,9.088,0,0,0,1.487.388l.41,3.558-1.164.086a5.013,5.013,0,0,0-5.089-3.989c-4.441,0-5.972,4.075-5.972,7.913,0,2.479.6,7.2,5.649,7.2a4.6,4.6,0,0,0,3.148-.991,2.32,2.32,0,0,0,.453-1.424v-2.177c0-.776-.173-1.445-1.4-1.445H462.45Z" fill="#000000"/><path d="M478.38,913.156v.884h-.97c-1.143,0-1.229.561-1.229,1.358V927.58c0,.776.086,1.358,1.229,1.358h.97v.884h-7.568v-.884h.971c1.207,0,1.229-.668,1.229-1.358V915.4c0-.69-.043-1.358-1.229-1.358h-.971v-.884Z" fill="#000000"/><path d="M485,913.156l8.861,11.19V915.4c0-.69-.021-1.358-1.229-1.358h-.776v-.884h5.175v.884h-.8c-1.164,0-1.229.6-1.229,1.358v14.424h-.819l-11.169-14.1V927.58c0,.776.065,1.358,1.208,1.358h.8v.884h-5.175v-.884h.8c1.143,0,1.207-.582,1.207-1.358V915.4c0-.754-.043-1.358-1.207-1.358h-.8v-.884Z" fill="#000000"/><path d="M502.631,924.065l-1.4,3.752a1.887,1.887,0,0,0-.107.561c0,.56.668.56,1.617.56v.884h-4.678v-.884c.819,0,1.53,0,1.918-1.056l5.649-15.093h1.337l5.562,14.77c.475,1.271,1.1,1.379,2.264,1.379v.884h-7.223v-.884c1.38,0,1.812,0,1.812-.625a4.411,4.411,0,0,0-.173-.733l-1.294-3.515Zm4.873-1.121-2.2-5.972-2.243,5.972Z" fill="#000000"/><path d="M523.391,928.7a4.188,4.188,0,0,0,4.485-3.234h1.143l-1.036,4.355h-12.16v-.884h.8c1.143,0,1.207-.582,1.207-1.358V915.4c0-.754-.043-1.358-1.207-1.358h-.8v-.884H523v.884h-.8c-1.185,0-1.207.647-1.207,1.358v13.3Z" fill="#000000"/><path d="M537.509,925.747h1.208a4.019,4.019,0,0,0,4.139,3.277c2.2,0,3.407-1.315,3.407-2.867,0-1.962-1.337-2.479-4.377-3.666-1.832-.711-3.967-1.9-3.967-4.829,0-3.32,2.652-4.873,5.282-4.873a10.3,10.3,0,0,1,3.019.539,4.923,4.923,0,0,0,.948.173l.237,2.76-1.164.086a3.167,3.167,0,0,0-3.256-2.415c-1.81,0-3.1,1.121-3.1,2.652,0,1.682,1.1,2.092,3.493,2.976,2.2.8,4.916,1.876,4.916,5.455,0,2.263-1.315,5.152-5.692,5.152a9.966,9.966,0,0,1-3.278-.561c-.344-.128-1.056-.366-1.574-.539Z" fill="#000000"/><path d="M567.886,921.479a8.787,8.787,0,1,1-8.8-8.668A8.428,8.428,0,0,1,567.886,921.479Zm-14.23-.152c0,5.024,2.35,7.7,5.52,7.7,2.717,0,5.368-2.047,5.368-7.352,0-4.117-1.66-7.718-5.627-7.718C556.8,913.954,553.656,915.506,553.656,921.327Z" fill="#000000"/><path d="M576.83,913.156v.884h-.8c-1.186,0-1.208.647-1.208,1.358v8.969c0,1.014,0,4.529,4.248,4.529,3.364,0,4.743-1.769,4.743-4.507V915.4c0-.754-.043-1.358-1.208-1.358h-.8v-.884h5.195v.884h-.8c-1.143,0-1.207.582-1.207,1.358v9.164c0,5.153-4.786,5.605-6.6,5.605-3.147,0-6.748-1.057-6.748-5.713V915.4c0-.754-.043-1.358-1.208-1.358h-.8v-.884Z" fill="#000000"/><path d="M593.559,913.156l8.861,11.19V915.4c0-.69-.022-1.358-1.229-1.358h-.776v-.884h5.175v.884h-.8c-1.164,0-1.23.6-1.23,1.358v14.424h-.819l-11.168-14.1V927.58c0,.776.065,1.358,1.207,1.358h.8v.884h-5.175v-.884h.8c1.144,0,1.208-.582,1.208-1.358V915.4c0-.754-.043-1.358-1.208-1.358h-.8v-.884Z" fill="#000000"/><path d="M615.052,913.156c7.546,0,8.926,5.024,8.926,8.365,0,4.528-2.5,6.49-3.817,7.223a12.4,12.4,0,0,1-5.109,1.078h-8.086v-.884h.8c1.143,0,1.208-.582,1.208-1.358V915.4c0-.754-.065-1.358-1.208-1.358h-.8v-.884Zm-2.911,1.143v14.4h2.8c4.938,0,5.693-4.032,5.693-7.18,0-3.255-.777-7.222-5.693-7.222Z" fill="#000000"/><path d="M640.188,913.156l.583,3.924h-1.143a3.33,3.33,0,0,0-3.342-2.781h-1.294V927.58c0,.755.043,1.358,1.207,1.358h.971v.884h-7.524v-.884h.969c1.1,0,1.208-.517,1.208-1.358V914.3h-1.294a3.329,3.329,0,0,0-3.341,2.781h-1.143l.582-3.924Z" fill="#000000"/><path d="M655.882,927.45a2.882,2.882,0,0,0,2.479,1.251v1.121H653.7l-5.606-8.3h-.452v6.059c0,.733.042,1.38,1.207,1.38h.668v.862h-7.05v-.862h.8c1.142,0,1.207-.6,1.207-1.38V915.42c0-.755-.043-1.38-1.207-1.38h-.8v-.862h7.956c4.29,0,5.368,2.414,5.368,4.118,0,1.4-.776,3.751-4.247,4.161Zm-6.4-7.05a2.779,2.779,0,0,0,2.975-3.061c0-1.984-1.014-3.04-2.975-3.04h-1.832v6.1Z" fill="#000000"/><path d="M663.533,924.065l-1.4,3.752a1.85,1.85,0,0,0-.109.561c0,.56.669.56,1.618.56v.884h-4.679v-.884c.819,0,1.531,0,1.919-1.056l5.649-15.093h1.336l5.564,14.77c.473,1.271,1.1,1.379,2.263,1.379v.884h-7.222v-.884c1.38,0,1.81,0,1.81-.625a4.3,4.3,0,0,0-.172-.733l-1.294-3.515Zm4.872-1.121-2.2-5.972-2.242,5.972Z" fill="#000000"/><path d="M692.271,917.812l-1.165.109a4.987,4.987,0,0,0-5.024-3.989c-3.686,0-5.67,3.385-5.67,7.5,0,4.527,1.984,7.61,5.843,7.61a5.135,5.135,0,0,0,5.132-4.053l1.185.108-.539,3.449c-.41.151-2.135.841-2.5.971a10.949,10.949,0,0,1-3.8.646c-5.346,0-8.667-3.428-8.667-8.581,0-4.636,2.91-8.775,8.581-8.775a10.777,10.777,0,0,1,4.808,1.078,8.013,8.013,0,0,0,1.4.388Z" fill="#000000"/><path d="M707.941,927.127a3.042,3.042,0,0,0,2.588,1.574v1.121H706l-5.886-8.15-.9.971v4.937c0,.733.021,1.358,1.207,1.358h.8v.884h-7.18v-.884h.8c1.143,0,1.207-.582,1.207-1.358V915.4c0-.754-.043-1.358-1.207-1.358h-.8v-.884h7.18v.884h-.8c-1.186,0-1.207.647-1.207,1.358v5.563l5.433-5.714c.453-.5.56-.625.56-.884,0-.323-.474-.323-.668-.323h-.884v-.884h5.757v.884h-.56a3.261,3.261,0,0,0-2.588,1.186l-3.989,4.182Z" fill="#000000"/><path d="M337.291,957.12l-.8.074a3.406,3.406,0,0,0-3.431-2.724c-2.518,0-3.873,2.312-3.873,5.125,0,3.092,1.355,5.2,3.991,5.2a3.507,3.507,0,0,0,3.5-2.768l.809.074-.368,2.355c-.28.1-1.458.574-1.708.663a7.472,7.472,0,0,1-2.591.442,5.512,5.512,0,0,1-5.92-5.861c0-3.166,1.988-5.993,5.861-5.993a7.374,7.374,0,0,1,3.283.736,5.438,5.438,0,0,0,.957.266Z" fill="#000000"/><path d="M341.649,957.091a4.236,4.236,0,1,1-4.078,4.241A4.013,4.013,0,0,1,341.649,957.091Zm-1.442,6.833a1.663,1.663,0,0,0,1.487.868c1.737,0,1.943-2.062,1.943-3.3,0-1.414-.265-3.638-2.032-3.638-1.9,0-1.943,2.415-1.943,3.52A6.149,6.149,0,0,0,340.207,963.924Z" fill="#000000"/><path d="M348.614,967.517c0,.529.044.971.854.971h.25v.589h-4.152v-.589c.825,0,1.075-.118,1.075-.971V958.77c0-.177,0-.619-.5-.619a1.878,1.878,0,0,0-.412.059l-.074-.589,2.96-.516v1.017a2.967,2.967,0,0,1,2.356-1.017c2.548,0,3.3,2.284,3.3,4.183,0,2.871-1.576,4.27-3.623,4.27a3.08,3.08,0,0,1-2.032-.648Zm0-3.873a1.864,1.864,0,0,0,1.767,1.148c1,0,1.811-.56,1.811-3.181,0-1.354-.265-3.43-1.958-3.43a1.82,1.82,0,0,0-1.62,1.06Z" fill="#000000"/><path d="M360.585,958.726a1.66,1.66,0,0,0,.118-.487c0-.323-.471-.323-.662-.323h-.325v-.589h2.872v.589a.994.994,0,0,0-1.134.751l-3.4,7.848c-.574,1.339-1.355,2.547-2.621,2.547-.722,0-.84-.5-.84-.707,0-.751.81-.765,1.252-.765.559,0,.9.014,1.5-1.4l.5-1.178-2.62-6.375a1,1,0,0,0-1.105-.722v-.589H358.1v.589h-.236c-.191,0-.6,0-.6.323a1.445,1.445,0,0,0,.148.516l1.531,3.769Z" fill="#000000"/><path d="M365.312,963.762c0,.868.265.971,1.075.971v.589h-4.123v-.589c.81,0,1.075-.1,1.075-.971V958.77c0-.221-.015-.619-.5-.619a2.135,2.135,0,0,0-.427.044l-.059-.574,2.96-.53v.928a2.941,2.941,0,0,1,2.1-.928c.943,0,1.282.545,1.282,1a.97.97,0,0,1-.987.957c-.383,0-.486-.089-.957-.574a.542.542,0,0,0-.4-.163,1.31,1.31,0,0,0-1.045.854Z" fill="#000000"/><path d="M371.275,963.762c0,.868.265.971,1.075.971v.589h-4.123v-.589c.81,0,1.075-.1,1.075-.971V958.77c0-.163,0-.633-.486-.633a2.649,2.649,0,0,0-.442.058l-.059-.589,2.96-.515Zm.25-8.968a1.259,1.259,0,1,1-2.518,0,1.242,1.242,0,0,1,1.252-1.252A1.273,1.273,0,0,1,371.525,954.794Z" fill="#000000"/><path d="M372.276,966.868a2.226,2.226,0,0,1,1.6-2,1.122,1.122,0,0,1-.81-1.031c0-.854.869-1.384,1.429-1.723a2.48,2.48,0,0,1-1.679-2.4c0-1.693,1.413-2.621,3.033-2.621a3.642,3.642,0,0,1,1.915.5,3.209,3.209,0,0,1,1.869-.78.843.843,0,0,1,.913.838.744.744,0,0,1-.751.751.924.924,0,0,1-.618-.25c-.162-.118-.236-.176-.368-.176a.619.619,0,0,0-.427.176,2.378,2.378,0,0,1,.53,1.576c0,1.678-1.414,2.7-3.269,2.621-.457.206-.883.471-.883.78,0,.339.5.353,1.325.383,1.752.045,4.005.118,4.005,2.415,0,2.047-2.032,3.166-4.447,3.136C373.689,969.048,372.276,968.385,372.276,966.868Zm1.516-.147c0,.781.722,1.532,2.121,1.532,1.325,0,2.518-.678,2.518-1.841,0-1.016-.972-1.148-1.532-1.208-.25-.029-1.575-.1-1.869-.132A1.969,1.969,0,0,0,373.792,966.721Zm3.24-6.92c0-.4,0-1.974-1.163-1.974-.736,0-1.163.693-1.163,1.826,0,.368,0,1.958,1.163,1.958C376.561,961.611,377.032,960.964,377.032,959.8Z" fill="#000000"/><path d="M383.025,958.313a3.362,3.362,0,0,1,2.636-1.222,2.165,2.165,0,0,1,2.385,2.415v4.256c0,.868.25.971,1.075.971v.589h-3.99v-.589c.765,0,.942-.191.942-.971v-4.109c0-.264,0-1.4-1.178-1.4a1.946,1.946,0,0,0-1.87,1.428v4.079c0,.8.191.971.957.971v.589h-3.99v-.589c.81,0,1.075-.1,1.075-.971v-8.747c0-.162-.015-.619-.5-.619a2.161,2.161,0,0,0-.427.059l-.059-.589,2.945-.515Z" fill="#000000"/><path d="M391.992,954.706v2.621H394.1v.766h-2.106v5.345c0,.191,0,.913.737.913a1.424,1.424,0,0,0,1.074-.6l.53.574a3.107,3.107,0,0,1-2.473,1.237A1.77,1.77,0,0,1,390,963.511v-5.418H388.93v-.6c.5-.073,1.884-.235,2.134-2.782Z" fill="#000000"/><path d="M403.33,963.35c1.222,0,1.4-.62,1.546-1.164l.78.088-.692,3.048h-6.891V964.07c2.93-2.782,3.549-3.386,4.182-4.343a4.884,4.884,0,0,0,.766-2.577c0-.8-.3-2.327-1.812-2.327s-2.179,1.547-2.355,1.945l-.678-.354a3.912,3.912,0,0,1,3.77-2.71,3.111,3.111,0,0,1,3.327,3.255c0,2.193-1.56,3.4-3.7,5.035A13.781,13.781,0,0,0,400,963.35Z" fill="#000000"/><path d="M409.926,953.7c1.958,0,4.02,1.708,4.02,5.935.014,4.285-2.106,5.919-4.02,5.919s-4-1.664-4-5.919C405.921,955.251,408.1,953.7,409.926,953.7Zm-.015,11.088c.781,0,1.753-.133,1.753-5.168,0-4.918-.928-5.139-1.723-5.139-.913,0-1.208.515-1.443,1.472a14.4,14.4,0,0,0-.31,3.667C408.188,964.571,409.146,964.792,409.911,964.792Z" fill="#000000"/><path d="M419.129,963.688c0,.78.177,1.031.986,1.031h.663v.6H415.3v-.6h.678c.869,0,.986-.324.986-1.031V954.75l-1.487.265-.059-.619,3.711-.692Z" fill="#000000"/><path d="M424.4,958.888h.486c.942,0,2.488-.177,2.488-2.209,0-1.134-.515-2.018-1.8-2.018a2.953,2.953,0,0,0-2.5,1.591l-.634-.457a3.994,3.994,0,0,1,3.682-2.091c2.238,0,3.416,1.458,3.416,2.872a2.324,2.324,0,0,1-1.664,2.237,3.169,3.169,0,0,1,2.253,3.079c0,2.429-2.5,3.666-4.874,3.666-1.531,0-3.092-.531-3.092-1.664a.956.956,0,0,1,1-.957c.81,0,1.016.648,1.134,1.031.147.427.294.824,1.163.824a2.317,2.317,0,0,0,2.4-2.592c0-2.341-1.929-2.532-2.93-2.532h-.53Z" fill="#000000"/><path d="M442.04,958.726h2.046l.575-.81c.117-.177.191-.206.294-.206.074,0,.133,0,.324.146l1.3.943c.176.133.279.222.279.4,0,.133-.043.295-.632.649V961.2c0,.339.044,1.841.044,2.135,0,.457-.1.663-1.193.781.559.073,2.356.309,2.356,1.575a.983.983,0,0,1-.972.987c-.412,0-.53-.088-1.576-.781a16.766,16.766,0,0,0-3.268-1.678l.058-.28c.56,0,1.414-.014,2.666.088-.088-.073-.148-.162-.148-.47h-5.742l2.135,1.089c.074.044.25.147.25.28a.212.212,0,0,1-.235.206,3.981,3.981,0,0,1-.545-.059,18.069,18.069,0,0,1-5.772,1.532l-.1-.281c1.281-.633,3.372-1.648,4.152-2.767h-.368c0,.279-.059.691-1.3.691-.633,0-.751-.117-.751-.515,0-.236.03-1.237.03-1.443V959.3c0-.722-.015-1-.045-1.384l2.209.81h2v-1.178h-4.506c-.206,0-.53.014-1.148.073l-.3-.9a13.862,13.862,0,0,0,1.487.074h2.076v-1.546h-1.487c-.368,0-.692.015-1.148.044l-.295-.869c.456.029.9.044,1.473.044h1.457c-.029-.972-.029-1.089-.058-1.723l2.252.251c.163.015.383.044.383.25,0,.177-.059.206-.574.427v.8h2.3c0-.117,0-.839-.059-1.723l2.268.251c.162.015.368.044.368.25,0,.162-.059.191-.56.427v.8h.707l.736-1.016c.089-.133.162-.191.251-.191a.556.556,0,0,1,.294.162l1.237,1.178a.709.709,0,0,1,.177.368c0,.28-.28.28-.4.28h-3V956.8h1.208l.75-1.046c.1-.132.148-.206.251-.206a.486.486,0,0,1,.294.177l1.252,1.192c.015.03.191.191.191.368,0,.266-.28.266-.412.266H442.04Zm-1.929.765h-2.15v1.223h2.15Zm0,2h-2.15v1.3h2.15Zm1.929-6.243h-2.3V956.8h2.3Zm0,5.463h2.149v-1.223H442.04Zm0,2.076h2.149v-1.3H442.04Z" fill="#000000"/><path d="M459.65,955.869l.678-.986a.3.3,0,0,1,.25-.162.585.585,0,0,1,.324.132l1.576,1.164a.385.385,0,0,1,.191.323c0,.295-.354.295-.442.295h-3.961a3.962,3.962,0,0,0,2.518,1.781c.457,0,.825-.5,1.443-1.311l.265.1c-.014.133-.206,1.4-.206,1.458,0,.132.015.177.265.5a.665.665,0,0,1,.147.442,1.044,1.044,0,0,1-1.177,1.031,4.038,4.038,0,0,1-.781-.074c.3.221.339.265.339.413,0,.118-.059.264-.619.588V964.7c0,.206.03,1.074.03,1.266,0,.648-1.016.692-1.473.692-.618,0-.618-.162-.618-.824h-5.257c0,.339,0,.809-1.34.809-.721,0-.721-.25-.721-.486,0-.1.029-1.251.029-1.486v-4.418c-.265.058-.427.089-.618.133-.045.22-.1.53-.354.53-.162,0-.236-.133-.309-.295l-1.016-2.164h1.561v-3.372c0-1.046-.044-1.5-.059-1.768l2.371.737a40.673,40.673,0,0,0,5.565-1.105,7.526,7.526,0,0,0,1.208-.427l2.253,1.238c.074.044.206.146.206.25,0,.073-.074.206-.294.206a2.911,2.911,0,0,1-.516-.1c-.736.088-1.723.221-3.431.338a5.462,5.462,0,0,0,.251,1.414Zm-.942,3.99a5.536,5.536,0,0,1-1.634-1.281,44.545,44.545,0,0,1-4.86,1.4l1.119.4h4.948Zm-2.945-3.99a8.728,8.728,0,0,1-.147-1.31c-.884.029-1.1.044-3.093.073v1.237Zm-3.24,2.532c1.355-.044,1.65-.058,4.241-.176a6.048,6.048,0,0,1-.809-1.59h-3.432Zm.619,2.74v1.546H458.4v-1.546Zm0,2.326v1.605H458.4v-1.605Z" fill="#000000"/><path d="M465.879,954.646c.191.325.427.634,1.281.634.633,0,6.42-.457,6.552-.486.163-.029.854-.309,1-.309.589,0,1.605,1.163,1.605,1.619,0,.192-.089.236-.442.472a1.15,1.15,0,0,0-.368.633,17.758,17.758,0,0,1-2.989,5.315,10.641,10.641,0,0,1-5.758,3.3l-.132-.251a14.2,14.2,0,0,0,5.978-6.655,10.912,10.912,0,0,0,.854-2.488c0-.133-.118-.148-.221-.148a41.627,41.627,0,0,0-4.962.618c-.236.045-1.207.339-1.414.339-.692,0-1.443-1.148-1.443-1.8a2.08,2.08,0,0,1,.177-.736Z" fill="#000000"/><path d="M478.483,955.811a1.97,1.97,0,0,1,1.016-.281,2.275,2.275,0,0,1,1.031.265c.456.222.5.251.692.251.088,0,4.932-.427,5.507-.545.162-.029.942-.354,1.134-.354.486,0,1.619.9,1.619,1.444,0,.177-.118.308-.279.485a1.27,1.27,0,0,0-.325.751c-.279,1.531-.588,3.078-.9,4.61.692.308.766.736.766.927,0,.236-.147.648-.78.648-.074,0-.251-.015-.53-.044-.648-.059-1.208-.074-2.018-.074-1.06,0-1.281.015-3.534.147-.044.545-.265.928-.78.928-.854,0-1.222-1.34-1.252-1.59-.015-.118,0-.678,0-.811a49.247,49.247,0,0,0-.427-5.124c-.147-.927-.471-1.177-.971-1.354Zm7.671,6.522c.354-2.355.693-4.859.693-5.168,0-.177-.118-.206-.339-.206-.751,0-4.594.5-4.653.5a1.336,1.336,0,0,1-.486-.1c.28,3.7.353,4.668.427,5.257C482.518,962.568,482.871,962.539,486.154,962.333Z" fill="#000000"/><path d="M492.707,954.47c1.075.118,4.564.765,4.564,2.768,0,.649-.353,1.252-.927,1.252-.515,0-.81-.442-1.075-.869a9.985,9.985,0,0,0-2.709-2.9Zm.221,7.937a1.632,1.632,0,0,0,1.134.633c1.016,0,6.051-2.769,9.409-6.994l.25.147c-1.738,4.521-4.52,6.331-7.981,8.584-.117.074-.589.472-.677.545a.955.955,0,0,1-.5.192,2.689,2.689,0,0,1-1.958-2.371,6.324,6.324,0,0,1,.044-.648Z" fill="#000000"/><path d="M506.475,965.823a7.524,7.524,0,0,0,3.327-3.681,6.9,6.9,0,0,0,.545-2.327,1.3,1.3,0,0,0-.147-.663,19.79,19.79,0,0,0-1.973.339c-.28.059-1.458.4-1.708.4a1.768,1.768,0,0,1-1.355-1.576,3.372,3.372,0,0,1,.073-.633l.281-.088a1.092,1.092,0,0,0,1.059.559c.472,0,5.714-.6,6.788-.663a9.751,9.751,0,0,0,1.458-.161,3.807,3.807,0,0,1,.589-.059c.618,0,1.752.6,1.752,1.281,0,.339-.279.618-.795.618-.044,0-.972-.1-1.074-.117a18.49,18.49,0,0,0-2.136-.1c-.559,0-.765.015-1.045.03.221.147.456.295.456.53a6.3,6.3,0,0,1-.279.736c-.045.177-.222.957-.266,1.119a6.474,6.474,0,0,1-5.419,4.727Zm.942-11.323c.147.161.294.323.957.323a35.015,35.015,0,0,0,4.446-.412,2.353,2.353,0,0,1,.782-.147c.794,0,1.619.471,1.619,1.09,0,.544-.456.544-1.856.559a28.03,28.03,0,0,0-2.959.191c-.3.044-1.591.266-1.855.266a1.5,1.5,0,0,1-1.444-1.414,2.8,2.8,0,0,1,.03-.353Z" fill="#000000"/><path d="M519.3,962.392a25.077,25.077,0,0,0,5.639-4.241c.28-.28.972-1,.972-1.266s-.324-.4-.486-.471l.059-.28a1.923,1.923,0,0,1,.633-.132c.766,0,1.914.81,1.914,1.428,0,.25-.162.353-.662.692a3.178,3.178,0,0,0-.457.383c-.589.516-.751.647-1.766,1.458.147.117.4.294.4.574,0,.088-.059.442-.074.529-.03.222-.03.958-.03,1.238,0,.456.06,2.459.06,2.856,0,.25,0,1.017-.707,1.017-.751,0-1.017-1.061-1.017-1.458,0-.133.06-.722.075-.84a13.113,13.113,0,0,0,.058-1.457c0-.413,0-1.075-.029-1.576a14.28,14.28,0,0,1-4.462,1.811Z" fill="#000000"/><path d="M533.273,965.97a8.459,8.459,0,0,0,2.959-4.417,9.9,9.9,0,0,0,.383-2.371c0-.5-.177-.721-.839-.987l.03-.279a2.7,2.7,0,0,1,1.133-.28,2.249,2.249,0,0,1,1.708.751,11.08,11.08,0,0,0,2.18-2.047c.029-.044.132-.162.132-.221s-.088-.058-.117-.058a53.5,53.5,0,0,0-5.875.942,15.045,15.045,0,0,1-1.444.471,2.144,2.144,0,0,1-1.737-2.032,3.721,3.721,0,0,1,.117-.854l.281-.073a1.541,1.541,0,0,0,1.458.795c.691,0,6.6-.589,7.288-.693.206-.029,1.046-.324,1.237-.324.706,0,1.648,1.355,1.648,1.87,0,.354-.206.442-.794.678-.03.014-1.458.971-1.738,1.148a14.719,14.719,0,0,1-2.621,1.355c-.058.295-.339,1.6-.412,1.87a7.079,7.079,0,0,1-4.815,4.992Z" fill="#000000"/><path d="M556.715,963.585a2.49,2.49,0,0,0,1.987.957v.78h-3.357l-1.06-1.237a5.237,5.237,0,0,1-3.667,1.473,2.982,2.982,0,0,1-3.254-2.975c0-1.325.737-2.429,2.563-3.562a3.7,3.7,0,0,1-1.208-2.592,2.709,2.709,0,0,1,2.842-2.725,2.363,2.363,0,0,1,2.547,2.268c0,1.31-1.089,1.988-1.884,2.474l2.96,3.386a6.542,6.542,0,0,0,1.074-2.37c0-.235-.177-.31-.618-.31h-.575v-.6h3.549v.6H558a.915.915,0,0,0-.928.663,12.9,12.9,0,0,1-1.355,2.622Zm-6.288-3.976a2.286,2.286,0,0,0-1.222,1.826,2.974,2.974,0,0,0,2.607,2.9,3.071,3.071,0,0,0,1.943-.869Zm2.194-3.711c0-1.03-.618-1.413-1.222-1.413a1.077,1.077,0,0,0-1.1,1.075c0,.751.471,1.266,1.369,2.252A2.35,2.35,0,0,0,552.621,955.9Z" fill="#000000"/><path d="M570.7,957.887l.883-1.325c.074-.119.147-.192.266-.192a.468.468,0,0,1,.323.161L573.824,958a.531.531,0,0,1,.192.368c0,.221-.236.28-.412.28h-5.125v6.435h2.886l.884-1.325a.34.34,0,0,1,.265-.192c.118,0,.191.074.309.162l1.65,1.487a.48.48,0,0,1,.191.353c0,.281-.324.281-.428.281H562.177a10.079,10.079,0,0,0-1.163.058l-.294-.884c.426.031.9.06,1.487.06h4.078V954.559a16.477,16.477,0,0,0-.073-1.767l2.459.25c.294.029.383.133.383.265,0,.206-.177.265-.575.412v4.168Z" fill="#000000"/><path d="M575.43,956.429c2.738.294,2.738,1.619,2.738,1.841a1.173,1.173,0,0,1-1.03,1.251c-.428,0-.516-.236-.781-.943a6.789,6.789,0,0,0-1.045-1.885Zm10.366.441.456-.647c.118-.162.206-.281.339-.281.088,0,.147.015.441.236l1.194.927a.434.434,0,0,1,.206.339c0,.236-.192.368-.59.634-.015.9-.03,1.178-.073,1.8h.058l.413-.81c.088-.162.132-.22.221-.22s.132.044.25.22l.648.943a.646.646,0,0,1,.132.353c0,.28-.264.28-.4.28h-1.355c-.089,1.369-.1,1.516-.162,2.415h.073l.472-.928c.073-.133.118-.235.25-.235s.191.073.28.22l.662,1.016a.827.827,0,0,1,.148.4c0,.3-.265.3-.427.3H587.5c-.221,2.033-.663,2.871-3.2,2.8-.03-1.192-.472-1.414-1.65-1.914l.029-.295c1.621.089,1.768.089,1.974.089.56,0,.706-.191.839-.678h-3.946c-.1.957-.148,1.252-1.444,1.252-.559,0-.632-.176-.632-.442,0-.1.088-.677.118-.854.073-.486.382-2.695.456-3.136-.383,0-.751.044-.928.058l-.309-.883c.575.044.781.044,1.34.059.073-.722.088-.9.25-2.459a11.481,11.481,0,0,1-.986.736l-.191-.206c-.163.618-.914,3.328-1.061,3.887a4.918,4.918,0,0,0-.147.913c0,.31.044.413.4,1.252a2.562,2.562,0,0,1,.251,1.016,1.359,1.359,0,0,1-1.355,1.355c-.677,0-.825-.4-.825-.8,0-.235.074-1.251.074-1.457,0-1.031-.309-1.428-.987-1.708l.015-.3c.545,0,.854-.014,1.164-.515a41.061,41.061,0,0,0,2.724-6.2l.28.089c-.133.825-.354,1.723-.53,2.445a17.32,17.32,0,0,0,2.061-5.316l2.179.544c.383.089.486.177.486.324,0,.251-.25.281-.589.325-.251.441-.368.632-.559.913h3.372l.8-1.208c.1-.147.191-.192.264-.192.1,0,.177.06.31.162l1.59,1.37a.493.493,0,0,1,.176.338c0,.295-.293.295-.412.295h-6.64a11.033,11.033,0,0,1-.855,1l1,.383Zm-9.734-3.8c1.061.148,3.063.618,3.063,2a1.2,1.2,0,0,1-1.06,1.266c-.442,0-.544-.236-.854-1.016a5.485,5.485,0,0,0-1.267-1.988Zm5.582,9.984h1.074l.251-2.415h-1.061Zm.529-5.419c-.029.324-.132,1.664-.192,2.238h1.061c.1-1.236.118-1.575.147-2.238Zm3.461,5.419c.073-.751.1-.972.177-2.415h-1.12l-.235,2.415Zm-.751-5.419c-.015.634-.029.986-.133,2.238h1.1c.044-.736.044-.9.074-2.238Z" fill="#000000"/><path d="M592.907,965.97a8.457,8.457,0,0,0,2.96-4.417,10.008,10.008,0,0,0,.383-2.371c0-.5-.177-.721-.84-.987l.029-.279a2.717,2.717,0,0,1,1.135-.28,2.251,2.251,0,0,1,1.708.751,11.107,11.107,0,0,0,2.179-2.047c.029-.044.133-.162.133-.221s-.089-.058-.118-.058A53.5,53.5,0,0,0,594.6,957a14.955,14.955,0,0,1-1.444.471,2.145,2.145,0,0,1-1.737-2.032,3.712,3.712,0,0,1,.118-.854l.279-.073a1.543,1.543,0,0,0,1.458.795c.693,0,6.6-.589,7.289-.693.207-.029,1.045-.324,1.237-.324.707,0,1.649,1.355,1.649,1.87,0,.354-.206.442-.8.678-.029.014-1.458.971-1.737,1.148a14.754,14.754,0,0,1-2.621,1.355c-.06.295-.339,1.6-.413,1.87a7.075,7.075,0,0,1-4.815,4.992Z" fill="#000000"/><path d="M606.263,954.721a1.767,1.767,0,0,1,1-.339c.663,0,1.928.618,1.928,1.207a1.867,1.867,0,0,1-.131.559,2.763,2.763,0,0,0-.06.678c0,.516.06,2.738.06,3.195,0,.5,0,1.5-.884,1.5s-1.149-1.3-1.149-1.708a5.193,5.193,0,0,1,.088-.81c.03-.25.03-.927.03-1.207,0-2.43,0-2.518-.913-2.8Zm5.153-.589a2.026,2.026,0,0,1,1.267-.472c.765,0,2.046.589,2.046,1.208,0,.192-.22,1.016-.236,1.193-.029.485-.029,2.635-.044,3.062-.117,3.607-1.09,6.008-5.771,7.054l-.118-.266c3.917-2.223,3.917-4.255,3.917-10.145,0-.972,0-1.105-1.061-1.34Z" fill="#000000"/><path d="M617.954,965.2a16.789,16.789,0,0,0,7.215-7.833,5.888,5.888,0,0,0,.412-1.017c0-.029-.044-.043-.073-.043-.089,0-2.032.294-3.225.588a13.175,13.175,0,0,1-1.37.443c-.677,0-1.369-1.194-1.369-1.8a2.279,2.279,0,0,1,.206-.868l.28-.074a1.1,1.1,0,0,0,1.193.721c.618,0,4.152-.4,4.447-.486a10.144,10.144,0,0,1,1-.471c.516,0,1.737,1.03,1.737,1.517,0,.177-.058.206-.441.5a8.046,8.046,0,0,0-.884,1.516,22.9,22.9,0,0,1-1.413,2.37c1.914.855,4.24,2.18,4.24,3.814a1.058,1.058,0,0,1-.972,1.149c-.515,0-.648-.236-1.089-1.06a13.455,13.455,0,0,0-2.592-3.314,11.518,11.518,0,0,1-7.2,4.61Z" fill="#000000"/><path d="M636.919,960.39c1.679.632,2.915,1.87,2.915,3.151a1.977,1.977,0,0,1-.088.589c1.517.1,1.737.117,1.929.117.634,0,.9-.177,1.075-1.413a61.933,61.933,0,0,0,.31-7.834h-3.623a10.054,10.054,0,0,0-1.193.06l-.279-.884c.427.029.883.058,1.472.058h3.5l.648-.765c.147-.177.191-.221.324-.221a.778.778,0,0,1,.4.191l1.281.987c.133.1.235.191.235.353s-.1.295-.6.575c-.074,4.77-.133,7.451-.5,8.967-.53,2.194-2.223,2.268-3.5,2.312a1.966,1.966,0,0,0-1.635-2.2,1.062,1.062,0,0,1-.928.472c-.456,0-.6-.191-.721-.6-.059-.177-.206-1-.25-1.164a29.127,29.127,0,0,1-4.02,1.884c-.074.443-.1.619-.339.619-.162,0-.264-.1-.4-.457l-.884-2.282c.854,0,1.34-.029,1.693-.058.987-1.708,1.1-1.9,1.664-3.019a1.309,1.309,0,0,1-.707.235c-.559,0-.676-.324-.957-1.075a8.122,8.122,0,0,0-1.4-2.444l.162-.25a8.592,8.592,0,0,1,1.486.5,20.837,20.837,0,0,0,.913-4.021l2.386.855c.31.118.442.162.442.324,0,.279-.413.294-.692.294a19.134,19.134,0,0,1-2.459,2.856,2.358,2.358,0,0,1,1.311,1.65,21.654,21.654,0,0,0,1.045-2.842l2.105,1.207c.427.251.472.28.472.413,0,.279-.354.279-.457.279a1.6,1.6,0,0,1-.25-.029,50.1,50.1,0,0,1-4.123,5.007c1.722-.1,2.09-.133,2.856-.222a9.772,9.772,0,0,0-.809-1.958Z" fill="#000000"/><path d="M652.866,961.465a12.879,12.879,0,0,0-.045-1.325,2.1,2.1,0,0,1-.574.073.936.936,0,0,0-1.192.427c-.456,0-.487-.236-.589-1.193-.766.442-1.929,1.031-2.224,1.178-.029.177-.073.456-.264.456-.148,0-.221-.191-.266-.323l-.618-1.841c.383.015.986.015,1.31.015.206-.369.516-1,.678-1.355a.9.9,0,0,1-.472.148c-.426,0-.47-.177-.736-1a6.175,6.175,0,0,0-.736-1.532l.191-.235a4.682,4.682,0,0,1,1.031.368,14.637,14.637,0,0,0,.471-2.562l1.914.736c.236.089.368.148.368.31,0,.235-.25.235-.662.25a11.931,11.931,0,0,1-1.56,1.59,1.531,1.531,0,0,1,.6.987,18.722,18.722,0,0,0,.662-1.885l1.576.766c0-.074,0-.766-.059-1.561l1.134.471c.014-.339.059-1.193.03-1.679l2.149.368c.31.06.383.133.383.251,0,.192-.058.206-.618.294a13.6,13.6,0,0,1-.957,1h.721l.471-.515c.074-.088.118-.147.236-.147a.528.528,0,0,1,.309.162l.824.722a.417.417,0,0,1,.192.427,3.441,3.441,0,0,1,.4.162,16.513,16.513,0,0,0,.4-2.651l1.929.662c.28.1.338.163.338.3,0,.236-.161.236-.6.25a10.275,10.275,0,0,1-1.546,1.723,1.853,1.853,0,0,1,.618.8,17.447,17.447,0,0,0,.634-1.767l1.723.913c.235.119.308.177.308.294,0,.207-.117.207-.574.222a17.271,17.271,0,0,1-1.192,1.325c1.545.751,1.722,1.517,1.722,1.973a.945.945,0,0,1-.971,1c-.5,0-.516-.221-.619-1.1-.3.147-1.752.839-2.076,1.016-.044.221-.089.427-.265.427-.132,0-.192-.177-.236-.324l-.456-1.428c.029.662.029.736-.1.839a2.023,2.023,0,0,1-1.06.251c-.5,0-.5-.148-.5-.531h-1.075c-.015.192-.029.31-.324.427l1.944.221c.162.014.383.045.383.221s-.162.265-.457.368v.575h3.033l.722-1.031a.357.357,0,0,1,.265-.192.487.487,0,0,1,.309.162l1.37,1.207a.511.511,0,0,1,.191.325c0,.294-.28.294-.471.294H655.34a12.829,12.829,0,0,0,5.683,1.694l-.014.294c-.28.162-.855.515-1.163,2a9.363,9.363,0,0,1-4.963-3.7v2.018c0,.191.03,1.148.03,1.369,0,.339,0,.766-1.458.766-.472,0-.6-.1-.6-.471,0-.221.014-1.31.014-1.576v-1.4a12.967,12.967,0,0,1-5.89,3.019l-.147-.25a16.58,16.58,0,0,0,4.4-3.77h-2.8a10.957,10.957,0,0,0-1.149.059l-.294-.884c.427.03.9.06,1.487.06Zm-2.71-3.623c-.162.162-.589.619-1.059,1.06.308-.014.514-.029,1.265-.058C650.348,958.755,650.245,958.181,650.156,957.842Zm1.576-1.767a.593.593,0,0,1-.176.015,17.261,17.261,0,0,1-1.179,1.5,2.939,2.939,0,0,1,1.355,1.192Zm1.605-.648v1.31h1.075v-1.31Zm1.075,2.077h-1.075v1.384h1.075Zm1.65,1.354h.9c.266-.515.472-.9.56-1.075a.762.762,0,0,1-.207.029c-.382,0-.4-.1-.588-.9a4.044,4.044,0,0,0-.486-1.295l-.176.1Zm1.516-.014c.1,0,1.236-.06,1.428-.074-.044-.265-.073-.339-.25-1.016C658.4,958.107,657.946,958.549,657.578,958.844Z" fill="#000000"/><path d="M664.778,953.852h7.716l.574-.751c.132-.163.221-.206.309-.206a.593.593,0,0,1,.324.147l1.34,1.03c.177.133.28.237.28.4,0,.236-.074.28-.677.677v8.629c0,.28.058,1.65.058,1.958,0,.339,0,.81-1.56.81-.575,0-.575-.235-.575-.677v-.339h-7.878v.281c0,.352,0,.78-1.516.78-.5,0-.6-.177-.6-.56,0-.251.044-1.458.044-1.737v-9.483a16.3,16.3,0,0,0-.058-1.826Zm-.089,3.3c.413.03.928.059,1.355.059h2.739v-.869c0-.8-.014-1.178-.044-1.487l2.135.191c.1.016.31.045.31.207s-.251.279-.457.353v1.6h.294l.471-.78c.074-.118.133-.162.206-.162.089,0,.133.058.207.147l.662.868v-2.665h-7.878Zm7.878.8a1.125,1.125,0,0,1-.206.03h-1.634v3.166c0,.235.044,1.31.044,1.56,0,1.444-.663,1.694-2.621,1.767-.014-.943-.236-1.31-1.443-1.8v-.3l1.575.03c.428.015.5-.1.5-.383v-4.049h-2.739a9.514,9.514,0,0,0-1.192.058l-.163-.485v7.215h7.878Zm-6.935.545c1.252.309,2.415,1.031,2.415,2.062a1.056,1.056,0,0,1-1.03,1.119c-.56,0-.634-.28-.782-.9a8.938,8.938,0,0,0-.809-2.061Z" fill="#000000"/></g></g><g id="心綺楼"><path d="M314.33,835.256a62.022,62.022,0,0,1,4.625,23.605c0,13.128-4.914,25.412-17.488,25.412-3.469,0-9.395-1.806-9.395-7.105,0-3.252,1.157-5.059,5.059-10.117,3.469-4.576,11.707-16.62,14.308-31.8Zm37.723-13.731c1.59.121,3.468.6,3.468,2.168,0,1.446-1.445,2.288-5.347,3.372v52.994c0,2.769,0,4.576,5.781,4.576h19.8c8.238,0,8.672-1.686,14.019-23.606h2.891c.434,2.65,2.023,14.573,2.746,16.982s1.012,2.649,5.926,7.467a7.4,7.4,0,0,1,2.168,5.54c0,10.6-15.9,10.6-26.738,10.6H346.416c-17.344,0-17.344-7.225-17.344-15.295v-52.39a135.952,135.952,0,0,0-.722-14.452ZM334.42,793.464c34.687,2.408,50.008,12.4,50.008,22.883a9.56,9.56,0,0,1-9.973,9.756c-5.059,0-6.793-1.807-13.008-8.672-6.5-6.986-16.043-15.658-27.894-21.679ZM389.2,832.727c4.625,1.445,38.446,15.777,38.446,33.481,0,7.347-5.2,12.044-11.852,12.044-5.781,0-7.66-3.372-9.539-9.033a114.671,114.671,0,0,0-19.078-34.807Z" fill="#000000"/><path d="M542.692,842l2.313-2.529c-2.313-.362-3.469-1.325-6.07-4.938-5.059-6.985-5.926-7.708-12.864-14.453-6.648,11.2-21.246,17.825-36.133,20.716l-1.445-2.168c10.117-6.023,18.789-13.489,22.113-25.412h-9.25c-2.313,0-5.348,0-11.852.481l-2.746-7.226c5.059.361,8.672.481,14.6.481h10.551a45.6,45.6,0,0,0,.434-7.225c0-2.41-.145-5.42-.289-7.708L532,793.945c3.613.362,5.492.6,5.492,2.53,0,1.686-1.879,2.529-5.492,3.252a44.249,44.249,0,0,1-.867,7.225h9.683l6.5-8.189a3.326,3.326,0,0,1,2.746-1.446,4.08,4.08,0,0,1,2.891,1.2l12.43,9.876c.578.362,1.879,1.446,1.879,2.651,0,2.168-3.469,2.168-4.625,2.168H529.251c-.434.963-.723,1.685-1.3,3.251,11.852,1.084,29.774,5.42,29.774,14.453a6.466,6.466,0,0,1-1.446,4.215l11.418,7.949a3.454,3.454,0,0,1,1.879,2.649c0,2.53-3.469,2.53-4.914,2.53h-6.793v28.544c0,2.168.289,11.922.289,13.97,0,10.96-6.215,14.574-23.414,15.055,0-5.661-.289-11.683-8.383-16.019a22.748,22.748,0,0,1-5.2.6c-4.047,0-4.336-1.2-4.336-3.011v-3.132h-9.105v4.216c0,2.529,0,5.66-10.118,5.66-3.613,0-4.914-1.084-4.914-3.01,0-1.446.289-7.708.289-9.034V863.8a121.754,121.754,0,0,0-.578-12.284c-1.012,4.937-6.215,6.142-8.238,6.142-3.614,0-4.336-2.89-4.625-4.336-.289-.964-1.012-5.058-1.3-5.9-2.023.843-2.746,1.084-4.481,1.807v10l1.157-1.2c5.2,2.528,17.054,10.236,17.054,19.992,0,4.938-4.336,7.708-8.093,7.708s-3.9-1.566-4.625-6.263c-1.735-11.8-2.6-14.212-5.493-18.307v28.3c0,1.687.29,8.672.29,10.117,0,2.168-.145,3.493-4.192,4.818a25.572,25.572,0,0,1-7.949,1.2c-4.914,0-6.07-.723-6.07-3.613,0-1.927.433-10.6.433-12.4V869.58H455.4a79.758,79.758,0,0,1-19.512,31.193l-2.6-1.084a124.059,124.059,0,0,0,8.383-37.456c-1.446,0-2.024-.481-2.747-2.649L433.282,842.6c8.816.361,13.3.361,18.211.361,2.168-2.409,3.468-4.216,7.371-9.876a9.328,9.328,0,0,1-6.649,2.529c-3.757,0-4.191-.844-7.515-8.913-3.614-8.431-6.071-11.441-9.106-15.175l1.59-2.048a60.348,60.348,0,0,1,12.574,3.975c4.481-12.887,5.2-18.185,5.492-22.521l21.1,6.5c3.758,1.205,3.758,2.167,3.758,2.89,0,2.048-2.891,2.289-6.649,2.409a104.186,104.186,0,0,1-17.343,14.091c2.89,2.048,5.925,4.216,5.925,8.913a9.184,9.184,0,0,1-.722,3.492c1.879-2.89,9.25-14.693,12.285-22.04l17.633,8.672c3.324,1.686,3.469,2.65,3.469,3.131,0,2.048-2.458,2.048-7.083,1.928-7.082,7.347-9.828,9.514-13.007,11.923,3.035,1.2,10.261,3.974,14.742,8.912.433.121,4.191.241,8.238.241Zm-86.574,23.244V855.007c-4.047,1.325-6.5,2.168-11.852,3.613a7.649,7.649,0,0,1-.867,2.529Zm4.047-22.4c2.312,0,14.019-.362,16.621-.482-.868-2.288-1.735-3.733-4.336-7.708C469.125,837.062,466.668,838.868,460.165,842.843ZM508.149,857.3h7.8l4.336-4.577a3.663,3.663,0,0,1,2.457-1.324,5.943,5.943,0,0,1,3.035,1.2l8.817,6.382c.289.242,1.734,1.326,1.734,2.41,0,.963-.434,1.685-4.77,3.974v14.452c0,.964.29,5.54.145,6.5,6.215.241,6.938-.121,6.938-3.854v-34.2H492.54a6.879,6.879,0,0,1-.145,3.01Zm8.672,6.263h-9.105v14.452h9.105Z" fill="#000000"/><path d="M666.413,849.949c3.035.843,3.324,1.566,3.324,2.168,0,1.806-3.179,2.047-5.925,1.927-.434.723-2.458,3.733-2.891,4.336h25.871l5.926-6.745a3.25,3.25,0,0,1,2.6-1.324,4.708,4.708,0,0,1,3.035,1.2l9.973,8.31a4.045,4.045,0,0,1,1.59,2.65c0,2.046-2.746,2.168-4.625,2.168H687.081l7.227,2.046c3.324.964,4.046,1.687,4.046,2.65,0,1.928-3.9,2.168-5.636,2.168a73.506,73.506,0,0,1-8.528,10.478c7.516,1.807,19.8,6.624,19.8,15.055,0,3.975-3.179,7.588-9.25,7.588-4.48,0-5.492-.6-14.6-6.865-4.336-3.011-6.793-4.336-8.528-5.42-14.453,8.912-34.4,12.525-56.078,13.85l-1.012-2.288c9.4-2.529,27.606-7.467,42.782-18.789-5.059-2.047-7.082-2.889-12-4.576-4.047,5.781-4.915,6.985-10.84,6.985-6.649,0-12.864-2.649-12.864-5.058,0-1.084.289-1.446,3.036-4.7a161.884,161.884,0,0,0,9.972-13.127c-5.347,0-6.648,0-13.875.481L618,858.019c-4.48.12-5.058-2.29-5.637-4.819-1.589-7.467-2.023-9.393-4.046-12.887V875c0,3.854.433,20.836.433,24.328,0,3.132-1.012,4.216-3.613,5.059a32.805,32.805,0,0,1-9.25,1.445c-5.781,0-5.781-1.565-5.781-5.179,0-1.084.289-16.982.289-20.233V862.354c-3.469,5.058-11.707,14.814-16.477,18.427l-2.457-1.325c11.563-22.04,16.043-42.635,18.211-53.353h-2.6c-3.179,0-5.058,0-11.851.481l-2.457-7.227c4.191.242,8.672.483,14.6.483h3.036V806.712a132.734,132.734,0,0,0-.578-14.453l18.933,1.806c2.313.242,4.914.483,4.914,2.289,0,1.927-2.89,2.529-5.347,3.011V819.84h1.156l3.758-5.059c.722-.964,1.3-1.686,2.6-1.686s2.024.722,3.613,2.288c2.891.121,8.528.361,15.321.361h18.066v-9.032c0-7.347,0-9.635-.578-14.332l20.523,1.685c1.3.122,4.481.362,4.481,2.048s-1.879,2.168-5.2,3.252v16.379h2.023c1.012-1.445,8.239-13.971,9.828-21.679l18.211,5.9c1.446.482,3.18,1.325,3.18,2.65,0,1.686-2.6,1.807-6.938,1.807A122.843,122.843,0,0,1,680,815.744h11.418l4.191-4.937a3.343,3.343,0,0,1,2.891-1.687,4.184,4.184,0,0,1,2.891,1.325l7.66,6.744a3.823,3.823,0,0,1,1.59,2.651c0,2.167-3.18,2.167-4.336,2.167H674.651c5.782,3.012,18.211,7.708,35.844,9.394v2.288c-6.937,2.53-10.406,10.118-11.273,13.49-17.055-5.66-24.86-16.38-27.028-19.631,0,2.288.289,13.368.289,13.729,0,2.53,0,6.263-14.164,6.383Zm-58.1-16.38c3.9,1.084,10.261,3.614,14.164,8.551,14.019-10.839,19.078-17.584,20.812-20.113h-8.816c-3.035,0-5.2.121-8.094.241a2.349,2.349,0,0,1,.578,1.565c0,2.168-2.457,2.29-4.047,2.29h-14.6Zm44.8,12.767a7.019,7.019,0,0,1-.578-3.493c0-1.566.145-9.154.289-10.839a104.854,104.854,0,0,1-28.183,13.971,8.287,8.287,0,0,1,.867,3.974c0,5.9-4.914,7.587-6.793,7.948,7.8.362,9.828.483,14.886.483h5.348c5.2-8.069,6.07-10,7.66-13.851Zm-28.039-51.909c3.9.6,22.836,4.094,22.836,13.128,0,4.938-5.059,7.828-9.973,7.828-4.769,0-5.636-1.806-8.093-7.587-2.6-5.9-3.469-7.468-6.793-11.442Zm31.508,70.216-8.961,12.645c5.348.361,8.527.6,16.91,1.566a43.087,43.087,0,0,0,9.828-14.211Z" fill="#000000"/></g></g></svg>
