<svg xmlns="http://www.w3.org/2000/svg" width="1000" height="992" viewBox="0 0 1000 992"><g id="Artboard"><rect id="Tint" width="1000" height="992" fill="#58595b"/></g><g id="Outline"><g id="心綺楼"><g id="心"><path d="M331.741,799.318c9.282,4.716,18.286,11.721,26.76,20.819,6.2,6.842,9.029,9.966,15.954,9.966a13.562,13.562,0,0,0,13.973-13.756c0-4.97-2.463-12.135-14.2-18.041-9.311-4.686-22.612-7.658-39.533-8.833q-.139-.009-.279-.009a4,4,0,0,0-3.738,2.582l-.868,2.288A4,4,0,0,0,331.741,799.318Z" fill="#fff"/><path d="M314.33,831.256h-2.891a4,4,0,0,0-3.942,3.324c-2.434,14.2-10.289,25.748-13.554,30.054-3.958,5.131-5.871,7.82-5.871,12.534,0,7.213,6.9,11.105,13.395,11.105,13.254,0,21.488-11.27,21.488-29.412a66.306,66.306,0,0,0-4.9-25.073A4,4,0,0,0,314.33,831.256Z" fill="#fff"/><path d="M403.782,882.272c-4.13-4.047-4.13-4.047-4.539-5.41-.444-1.482-1.536-9.022-2.06-12.646-.25-1.725-.447-3.087-.569-3.833a4,4,0,0,0-3.948-3.354h-2.891a4,4,0,0,0-3.886,3.052c-2.479,10.163-3.975,16.3-5.512,18.986-.688,1.2-.9,1.568-4.621,1.568h-19.8a14.032,14.032,0,0,1-1.78-.094c0-.165,0-.333,0-.482V830c2.66-1.017,5.347-2.756,5.347-6.305,0-.937-.345-5.637-7.164-6.156l-23.663-2.044c-.115-.01-.23-.014-.345-.014a4,4,0,0,0-3.982,4.367,132.437,132.437,0,0,1,.7,14.085v52.39c0,8.143,0,19.295,21.344,19.295h30.352c5.611,0,12.594,0,18.4-1.443,10.2-2.535,12.339-8.553,12.339-13.155a11.267,11.267,0,0,0-3.379-8.408Z" fill="#fff"/><path d="M412.362,840.034a108.933,108.933,0,0,0-21.972-11.125,4,4,0,0,0-3.753.744l-2.023,1.686a4,4,0,0,0-.569,5.565,110.645,110.645,0,0,1,18.412,33.58c1.46,4.4,3.906,11.768,13.334,11.768,9.185,0,15.852-6.747,15.852-16.044C431.643,857.305,425.156,848.5,412.362,840.034Z" fill="#fff"/></g><path id="綺" d="M564.661,852.263c8.046,0,8.914-4.566,8.914-6.53,0-2.336-1.219-4.339-3.624-5.953l-8.594-5.984a11.107,11.107,0,0,0,.367-2.876c0-6.633-5.712-10.935-12.48-13.7h13.394c7.784,0,8.625-4.314,8.625-6.168,0-3.191-2.581-5.245-3.526-5.89l-12.261-9.741a7.94,7.94,0,0,0-5.413-2.1,7.284,7.284,0,0,0-5.808,2.873c-.024.028-.047.056-.07.085l-5.3,6.677h-3.1l0-.047c2.7-.877,5.705-2.614,5.705-6.43a5.771,5.771,0,0,0-3.984-5.6,20.47,20.47,0,0,0-5.11-.914l-19.959-1.928c-.128-.012-.257-.018-.384-.018a4,4,0,0,0-3.992,4.252c.178,2.828.281,5.545.281,7.456,0,1.215-.021,2.278-.064,3.225h-6.921c-5.84,0-9.318-.114-14.313-.471-.1-.007-.19-.01-.285-.01a4,4,0,0,0-3.918,4.806l-2.849-1.4a5.826,5.826,0,0,0,4.119-5.548c0-4.057-3.305-5.663-6.537-6.7l-21.144-6.517a4,4,0,0,0-5.17,3.556c-.233,3.5-.751,7.754-3.939,17.509a62.886,62.886,0,0,0-9.32-2.611,3.992,3.992,0,0,0-3.976,1.463l-1.589,2.047a4,4,0,0,0,.055,4.977c3,3.687,5.146,6.328,8.522,14.2,2.475,6.01,3.87,9.386,7.14,10.707-3.832-.014-7.945-.077-14.706-.354l-.165,0a4,4,0,0,0-3.8,5.26l5.637,16.981a8.6,8.6,0,0,0,2.345,3.959,120.132,120.132,0,0,1-7.908,33.422,4,4,0,0,0,2.184,5.157l2.6,1.084a4,4,0,0,0,4.327-.824,80.613,80.613,0,0,0,13.59-17.526v3.457c0,.806-.11,3.493-.208,5.864-.116,2.818-.225,5.479-.225,6.541,0,7.613,6.8,7.613,10.07,7.613a29.523,29.523,0,0,0,9.214-1.41c5.745-1.881,6.927-4.8,6.927-8.612,0-.762-.065-2.659-.139-4.856-.07-2.087-.151-4.453-.151-5.261v-2.015c1.206,1.377,3.082,2.282,6.118,2.282a12.4,12.4,0,0,0,4.88-1.03c-.038,1.077-.064,1.965-.064,2.45,0,1.644.643,7.01,8.914,7.01,9.9,0,14.118-2.889,14.118-9.66v-.216h1.14c.337,4.077,3.125,6.143,8.3,6.143a25.472,25.472,0,0,0,4.5-.386c4.72,2.987,5.083,6.532,5.083,11.8a4,4,0,0,0,4,4l.112,0c13.209-.369,27.3-2.177,27.3-19.053,0-1.058-.069-3.9-.142-6.911-.072-2.954-.147-6.009-.147-7.059V852.263ZM536.52,838H511.23a46.088,46.088,0,0,0,15.413-11.782,64.172,64.172,0,0,1,9.052,10.661Q536.119,837.47,536.52,838Zm-49.556,23.322a14.406,14.406,0,0,0,1.975-.606q.027,1.182.033,2.5C488.316,862.551,487.642,861.919,486.964,861.322Zm11.459-44.083c1.151-.023,2.081-.023,2.933-.023h3.493c-3.162,6.569-8.794,12.129-17.623,17.506a44,44,0,0,0-5-2.913c1.842-1.64,4.037-3.75,7.058-6.849q.413.006.8.006a14.29,14.29,0,0,0,4.834-.613A5.549,5.549,0,0,0,498.708,819,5.416,5.416,0,0,0,498.423,817.239Zm-34.949.8c-.245-.318-.5-.621-.764-.909.747-.535,1.483-1.075,2.216-1.626C464.444,816.363,463.956,817.213,463.474,818.043Zm71.172,34.22v1.814l-2.507-1.814ZM508.888,853.3l-2.7-1.033h9.027l-.979,1.033Zm3.933,14.263v6.452h-1.105v-6.452Z" fill="#fff"/><path id="楼" d="M710.876,827.42c-3.731-.357-7.177-.846-10.333-1.413H706.3c7.735,0,8.336-4.72,8.336-6.167a7.559,7.559,0,0,0-2.983-5.685l-7.011-6.172c4.3-1.06,4.646-4.356,4.646-5.366,0-1.67-.768-4.727-5.913-6.444l-18.245-5.913a4,4,0,0,0-5.04,2.578,6.61,6.61,0,0,0-3.309-2.125,16.94,16.94,0,0,0-3.525-.62l-.117-.01-20.567-1.69c-.109-.009-.218-.013-.327-.013a4,4,0,0,0-3.97,4.489,63.025,63.025,0,0,1,.514,7.169c-5.888-6.371-18.462-8.847-23.106-9.564a3.917,3.917,0,0,0-.61-.047,4,4,0,0,0-2.759,1.1l-2.023,1.927a4,4,0,0,0-.309,5.463c2.956,3.534,3.654,4.712,6.19,10.464.334.786.656,1.543.981,2.263-2.386-.059-4.437-.134-6.035-.2a7.445,7.445,0,0,0-5.295-2.354,6.319,6.319,0,0,0-3.515,1v-7.6c2.614-.867,5.347-2.533,5.347-6.141,0-5.382-5.878-5.994-8.388-6.255l-.111-.012-18.969-1.81c-.126-.012-.253-.018-.38-.018a4,4,0,0,0-3.987,4.319l.057.706a126.368,126.368,0,0,1,.509,13.428v9.126c-5.163-.023-9.141-.229-13.4-.474-.077,0-.154-.007-.231-.007a4,4,0,0,0-3.786,5.288l2.457,7.227a4,4,0,0,0,3.785,2.712c.094,0,.189,0,.285-.01,4.9-.347,7.135-.439,9.241-.463A185.75,185.75,0,0,1,567.914,877.6a4,4,0,0,0,1.643,5.379l2.457,1.325a4,4,0,0,0,4.314-.332,77.469,77.469,0,0,0,10.062-10.083v6.533c0,2.028-.116,9.161-.2,14.369-.056,3.471-.088,5.455-.088,5.864,0,2.253,0,4.581,1.685,6.548,1.982,2.312,5.063,2.631,8.1,2.631a36.936,36.936,0,0,0,10.516-1.651,9.5,9.5,0,0,0,4.443-2.721l.027.063,1.012,2.288a4,4,0,0,0,3.657,2.382c.081,0,.163,0,.245-.007,24.787-1.515,42.621-5.718,55.812-13.185,1.5.9,3.5,2.123,6.268,4.047,9.125,6.276,11.02,7.58,16.879,7.58,8.7,0,13.25-5.83,13.25-11.588,0-9.183-9.479-14.412-16.623-17.047,1.061-1.276,2.2-2.749,3.509-4.586,6.7-.654,7.477-4.38,7.477-6.068a6.01,6.01,0,0,0-.039-.7h2.977c7.5,0,8.625-3.865,8.625-6.168a7.738,7.738,0,0,0-3.033-5.726l-8.518-7.1a4,4,0,0,0,.73-1.476c.594-2.311,3.328-8.744,8.769-10.727a4,4,0,0,0,2.63-3.759V831.4A4,4,0,0,0,710.876,827.42Zm-64.048,57.89c.694.25,1.337.487,1.964.724-1.745,1.063-3.511,2.052-5.282,2.976A19.654,19.654,0,0,0,646.828,885.31Zm29.6-46.589,0-.2a56.83,56.83,0,0,0,14.253,9.539,10.326,10.326,0,0,0-.88.845c-.028.029-.055.059-.081.089l-4.731,5.385H673.257a5.49,5.49,0,0,0,.48-2.263,4.927,4.927,0,0,0-1.1-3.2c2.652-1.676,3.849-4.174,3.849-7.643C676.483,841.171,676.46,840.163,676.425,838.721Zm-8.657,29.922a39.511,39.511,0,0,1-4.707,6.018c-3.388-.38-5.892-.633-8.086-.828l3.678-5.19Zm-19.184-29.1c-.009.491-.017.956-.024,1.377l-.877-.244a4.029,4.029,0,0,0-.8-.137Q647.74,840.048,648.584,839.542Zm-19.136,9a113.039,113.039,0,0,0,13.66-5.944,3.849,3.849,0,0,0-.193.4c-1.3,3.143-2,4.848-6.151,11.376H633.6c-1.883,0-3.332-.017-4.832-.058a12.629,12.629,0,0,0,.739-4.373Q629.511,849.226,629.448,848.544Zm-6.59-11.816a32.757,32.757,0,0,0-10.546-6.075v-.55h10.6c5,0,6.909-2.156,7.628-4.024,1.237-.043,2.489-.072,3.935-.072h.3A123.461,123.461,0,0,1,622.858,836.728Zm53.192-33.037v-1.456c.281-.108.561-.221.836-.342C676.613,802.5,676.333,803.1,676.05,803.691Zm-63.738,56.934a8.315,8.315,0,0,0,2.847,1.15l1.851,4.791a4,4,0,0,0,3.73,2.558c.088,0,.178,0,.267-.009,2.474-.165,4.238-.272,5.708-.342-1.34,1.757-2.987,3.834-5.151,6.443-3.033,3.592-3.956,4.685-3.956,7.251,0,6.248,9.862,9.058,16.864,9.058a20.453,20.453,0,0,0,4.984-.513,155.456,155.456,0,0,1-25.969,9.031,4,4,0,0,0-.774.3q.032-.49.032-1.012c0-1.745-.1-6.6-.21-11.731-.11-5.243-.223-10.665-.223-12.6Z" fill="#fff"/></g></g><g id="Text"><g id="暗黒能楽集_東方心綺楼_ORIGINAL_SOUNDTRACK_Copyright_2013_黄昏フロンティア_上海アリス幻樂団" data-name="暗黒能楽集 東方心綺楼 ORIGINAL SOUNDTRACK Copyright 2013 黄昏フロンティア＆上海アリス幻樂団"><g id="暗黒能楽集"><path d="M351.76,713.96l3.508-5.047c.427-.6.855-1.2,1.625-1.2a3.717,3.717,0,0,1,2.138,1.112l7.014,5.987a3.252,3.252,0,0,1,1.113,1.968c0,1.54-1.8,1.625-2.738,1.625H351.333l9.238,2.482c.855.256,2.138.683,2.138,1.8,0,1.454-1.283,1.625-3.935,1.967a85.308,85.308,0,0,1-10.093,10.008h6.5l3.592-4.961c.428-.513.77-.941,1.54-.941a2.235,2.235,0,0,1,1.711.855l6.074,6.159a2.385,2.385,0,0,1,.941,1.882c0,1.368-1.455,1.454-2.652,1.454H324.644a59.552,59.552,0,0,0-5.988.257v22.326c0,1.113.171,5.817,0,6.843-.513,2.823-4.02,3.251-6.416,3.251-3.763,0-3.763-1.283-3.763-2.48v-4.192h-5.9v5.9c0,1.711,0,4.106-7.014,4.106-3.165,0-3.593-1.2-3.593-2.48,0-1.2.171-6.33.171-7.357v-48.5c0-5.645-.171-7.7-.342-10.692l11.291,4.876h4.962l2.994-4.021a1.783,1.783,0,0,1,1.454-.941,2.8,2.8,0,0,1,1.54.684l6.587,4.876a2.29,2.29,0,0,1,1.111,1.625,1.031,1.031,0,0,1-.171.685c.941.085,3.422.085,4.876.085h8.554v-1.454c0-4.875-.171-8.554-.342-10.607L348,703.183c1.026.085,2.48.341,2.48,1.625,0,1.112-.256,1.283-3.25,2.395v6.757Zm-49.186,1.455v19.76h5.9v-19.76Zm0,24.293v20.958h5.9V739.708Zm26.432-5.047a9.58,9.58,0,0,1-1.454-3.507c-1.625-6.928-1.882-8.041-4.277-12.146l.428-.514c-1.454.086-2.224.086-4.7.257l-.342-1.2V734.49c3.935.171,4.448.171,6.159.171Zm20.017,12.318,2.994-4.363c.6-.855,1.2-1.368,1.967-1.368a3.488,3.488,0,0,1,2.053.856l7.785,5.645a2.457,2.457,0,0,1,1.112,1.882c0,1.2-.77,1.8-3.508,3.336v13c0,1.283.257,10.179.257,12.061,0,1.8-.171,3.08-3.422,3.935a21.477,21.477,0,0,1-5.388.855c-3.337,0-3.337-1.2-3.337-5.047H335.507c0,2.567,0,3.422-1.539,4.192-1.8.855-5.646,1.2-7.1,1.2-2.652,0-3.251-1.026-3.251-3.165,0-.343.257-8.81.257-10.521v-16c0-3.849,0-6.159-.257-11.89l13.174,5.389Zm-21.984-28.571c3.849,1.369,11.462,4.534,11.462,10.694a6.114,6.114,0,0,1-2.994,5.559h7.87a76.4,76.4,0,0,0,3.764-16.253Zm8.468,33.02v8.383h14.029v-8.383Zm0,12.916v8.982h14.029v-8.982Z" fill="#000000"/><path d="M452.7,756.646a3.077,3.077,0,0,1,1.112,1.966c0,1.711-1.882,1.711-2.737,1.711H381.528a56.261,56.261,0,0,0-6.672.343l-1.711-5.133c2.48.171,5.132.342,8.64.342h26v-7.784H388.115a58.288,58.288,0,0,0-6.758.343l-1.625-5.133c2.395.171,5.132.342,8.554.342h19.5v-7.357H394.017c-.085,1.2-.171,2.225-2.309,2.909a31.676,31.676,0,0,1-6.5.941c-3.251,0-3.251-1.8-3.251-2.823,0-1.71.256-9.922.256-10.521V714.56c0-6.246-.085-8.212-.256-12.233l12.745,4.961h38.152l3.335-4.191a2.488,2.488,0,0,1,1.968-1.2,4.356,4.356,0,0,1,2.224,1.027l7.185,5.047a2.723,2.723,0,0,1,1.54,2.138c0,.77-.256,1.711-3.849,4.021v7.955c0,1.968.342,10.692.342,12.489,0,2.395-.684,3.336-4.448,4.106l6.415,5.816a3.184,3.184,0,0,1,.856,1.883c0,1.454-1.283,1.71-2.481,1.71h-2.994a7.267,7.267,0,0,1,1.027.684ZM390,760.751a21.888,21.888,0,0,1,.855,6.673c0,9.751-3.422,15.225-9.324,15.225-3.336,0-6.587-1.966-6.587-4.876,0-2.651,1.284-3.763,6.159-7.955a30.421,30.421,0,0,0,7.271-9.238Zm4.02-49.015v7.614h13.772v-7.614Zm0,12.062v8.041h13.772V723.8Zm2.481,37.039c5.731,1.968,14.969,6.929,14.969,13.943,0,5.389-4.448,7.014-7.1,7.014-3.764,0-4.107-1.882-5.048-6.672a45.873,45.873,0,0,0-3.934-13Zm17.193.171c6.929,1.54,16.937,6.416,16.937,13.943a6.548,6.548,0,0,1-6.586,6.758c-3.25,0-3.593-1.112-5.817-7.613-2.566-7.7-4.363-10.18-5.389-11.634Zm19.76-41.658v-7.614H419.508v7.614Zm0,12.489V723.8H419.508v8.041Zm1.968,7.1c-1.8-.427-1.882-1.454-1.882-2.652H419.508v7.357h12.66Zm5.132,10.094a2.457,2.457,0,0,1,.941-.941H419.508v7.784h16.6Zm-8.212,11.976c4.363.684,11.976,3.593,14.713,5.474,3.422,2.4,4.876,5.475,4.876,8.3a6.876,6.876,0,0,1-6.758,7.185c-3.165,0-3.592-.941-6.159-7.271a43.082,43.082,0,0,0-7.527-12.232Z" fill="#000000"/><path d="M488.8,730.47c.684-.856,1.112-1.027,1.71-1.027a3.112,3.112,0,0,1,2.054.856l7.271,5.9a2.8,2.8,0,0,1,1.282,1.967c0,1.112-.855,1.8-3.592,3.593v19.845c0,1.882.256,10.265.256,11.976,0,4.534-.341,8.726-13,9.238-.171-6.586-.171-8.981-7.271-12.146v-1.711l5.817.086c2.738,0,3.079-.171,3.079-2.653v-5.217H476.136V765.8c0,2.054.171,10.778.171,12.575,0,1.539,0,4.362-8.212,4.362-3.336,0-3.593-1.026-3.593-3.08,0-2.137.171-11.633.171-13.6V737.826c0-1.625,0-2.737-.085-4.876a1.654,1.654,0,0,1-.856.257c-.684,0-1.2-.342-1.625-2.224l-2.737-12.147c.684.086,6.5.428,8.81.428a73.639,73.639,0,0,0,3.165-17.707l14.114,2.566c1.541.257,2.738.514,2.738,1.711,0,1.369-1.283,1.454-3.764,1.711-2.48,3.165-3.25,4.02-10.692,11.634,1.8-.086,13-.428,15.824-.514a25.76,25.76,0,0,0-3.25-7.7l1.283-1.2c5.389,2.309,14.542,7.613,14.542,14.969a6.468,6.468,0,0,1-6.587,6.33,3.886,3.886,0,0,1-4.02-3.079c-.257-.855-.855-4.705-1.027-5.56a168.261,168.261,0,0,1-23.181,7.87l9.837,4.277h8.383Zm-2.4,8.553H476.136v6.587H486.4Zm0,11.036H476.136v6.671H486.4Zm27.887-24.636c0,1.8,0,2.908,3.25,2.908h8.811c3.336,0,3.763-.855,5.645-8.3H533.7c.086.77.6,5.646.856,6.33.342.855.6,1.112,2.908,2.823a4.675,4.675,0,0,1,1.455,3.763c0,6.758-7.186,6.758-12.917,6.758H513.089c-9.837,0-10.265-2.48-10.265-9.923V710.539c0-2.139-.086-5.133-.342-8.555l11.89,1.454c1.625.172,2.737.343,2.737,1.456,0,.854-.855,1.368-2.822,2.052V715.5c4.192-2.566,10.179-6.244,14.8-11.034l7.527,8.895c.685.856,1.54,1.8,1.54,2.567a1.217,1.217,0,0,1-1.283,1.112,7.819,7.819,0,0,1-2.908-1.026,132.333,132.333,0,0,1-19.674,3.934Zm0,41.487c0,1.8,0,2.908,3.25,2.908h9.153c3.764,0,4.448-.769,6.672-9.752l1.625.086c.086.942.6,6.33.771,7.015.256.94.513,1.283,2.309,2.994a4.655,4.655,0,0,1,1.369,3.678c0,7.356-7.015,7.356-13.088,7.356H513.089c-9.238,0-10.265-2.566-10.265-9.923V750.229c0-1.966-.086-5.131-.342-8.553l11.89,1.368c1.454.172,2.908.428,2.908,1.711,0,1.2-1.368,1.8-2.993,2.395v8.725c4.533-2.651,10.265-6.073,14.627-11.12l7.7,8.982a3.782,3.782,0,0,1,1.284,2.224,1.152,1.152,0,0,1-1.2,1.2,6.949,6.949,0,0,1-2.823-.94,135.012,135.012,0,0,1-19.588,4.191Z" fill="#000000"/><path d="M590.246,712.164,592.983,709a2.317,2.317,0,0,1,1.625-1.026,3.52,3.52,0,0,1,2.054.94l5.646,4.277c1.026.685,1.283,1.2,1.283,1.8,0,.77-.514,1.454-2.653,2.909v6.244c2.653-3.25,9.154-11.462,11.976-18.049l9.238,9.152c.685.685,1.369,1.369,1.369,2.139s-.855,1.2-1.71,1.2a10.089,10.089,0,0,1-2.31-.428,86.053,86.053,0,0,1-18.22,8.126l-.343-.513v.941c9.5.77,21.214,3.422,21.214,11.8,0,3.934-2.822,6.073-5.474,6.073a5.049,5.049,0,0,1-1.539-.257,3.975,3.975,0,0,0,.512.428l7.443,7.185a3.491,3.491,0,0,1,1.026,1.968c0,1.454-1.283,1.711-2.48,1.711H592.3c4.106,3.079,15.568,9.152,32.847,11.633l-.084,1.711c-4.876,2.566-6.5,9.238-7.1,11.634-15.91-6.33-24.978-17.023-28.229-23.439v9.5c0,1.8.172,10.351.172,12.319,0,2.052-.941,4.02-8.639,4.02-3.165,0-3.251-1.2-3.251-2.823,0-.428.171-10.692.171-11.976v-6.928c-9.068,9.751-20.873,16.338-33.618,19.93l-.855-1.454c15.825-10.949,21.9-20.187,24.465-24.122H552.1a66.3,66.3,0,0,0-6.758.342l-1.625-5.133c2.566.172,5.218.343,8.554.343h25.919c0-2.908-.085-4.448-.257-7.015-1.8,1.968-6.586,1.968-7.014,1.968-3.593,0-3.85-1.283-3.85-2.823,0-.171.171-7.186.171-8.554v-3.508c-3.848,4.449-10.778,10.351-13.258,12.49-.171,2.737-.171,3.763-1.711,3.763-.77,0-1.027-.342-1.539-1.368l-6.673-11.805c7.356-1.283,17.108-4.277,23.181-6.159V716.7a66.849,66.849,0,0,0-.341-8.3l9.836,3.165a56.365,56.365,0,0,0,.257-9.922l13.088,1.967c1.711.256,2.481.684,2.481,1.539,0,1.37-1.027,1.54-3.85,1.882a71.568,71.568,0,0,1-5.132,5.133Zm-43.626-4.876c4.79.771,18.135,3.764,18.135,12.318a6.466,6.466,0,0,1-6.33,6.758c-2.652,0-3.079-.941-5.646-6.587-1.967-4.277-3.507-6.33-7.014-11.035Zm65.354,37.382c.855-1.369,1.454-1.2,1.966-1.027-1.026-.941-5.217-6.5-6.158-7.613a57.211,57.211,0,0,0-6.844-6.673v4.705c0,1.027.171,6.074.171,7.186,0,2.053-.6,2.737-2.908,3.422a17.958,17.958,0,0,1-4.961.769c-3.08,0-3.165-1.369-3.251-2.737H578.355a2.447,2.447,0,0,1-.341,1.2l11.89,1.2c1.539.171,2.481.512,2.481,1.625,0,.855-.514,1.368-2.653,2.309v2.139h17.707Zm-33.533-28.058V725h11.548v-8.383Zm11.548,12.831H578.441v8.811h11.548Z" fill="#000000"/><path d="M694.349,728.074c.256.257.427.343.6.514l6.5,5.816a3.292,3.292,0,0,1,1.028,1.968c0,1.711-1.37,1.711-3.508,1.711l6.844,6.415a2.775,2.775,0,0,1,1.111,1.968c0,1.711-1.8,1.711-2.566,1.711h-2.566l7.356,6.672a3.041,3.041,0,0,1,1.027,1.967c0,1.54-1.625,1.711-2.4,1.711H678.951c8.383,4.7,17.793,8.982,31.48,9.923v1.711c-1.8.855-6.416,3.25-7.955,11.377-8.041-2.652-20.7-11.377-26.519-21.129v10.436c0,1.112.172,6.159.172,7.356,0,1.454,0,4.619-8.3,4.619-2.908,0-3.85-.512-3.85-2.737,0-1.282.172-7.271.172-8.64v-7.612c-13.6,12.916-29.6,17.023-34.387,18.134L629,780.511c16.6-11.291,20.958-16.509,24.893-21.984H637.635a56.086,56.086,0,0,0-6.672.342l-1.711-5.132c2.566.171,5.218.342,8.64.342h26.175c0-3.507-.086-4.79-.171-5.9H651.664c-.086,1.454-.257,3.507-7.613,3.507-4.192,0-4.533-1.027-4.533-2.738,0-1.625.341-9.238.341-10.949V727.646a69.771,69.771,0,0,1-9.5,6.587l-1.283-1.2c6.5-8.725,13.857-20.872,16.6-31.821l13.345,3.934c1.54.428,1.967.942,1.967,1.626,0,1.284-.941,1.454-3.508,1.8-1.454,2.053-2.223,3.079-3.934,5.3H668c.514-2.652,1.626-9.324,1.711-11.634l15.4,2.567c1.113.171,2.31.512,2.31,1.625,0,1.283-1.026,1.369-3.593,1.54a55.761,55.761,0,0,1-8.041,5.9h14.542l4.021-5.988c.513-.77,1.026-1.112,1.54-1.112a2.6,2.6,0,0,1,1.711.941l7.441,6.844a3.79,3.79,0,0,1,1.112,2.052c0,1.54-1.454,1.711-2.48,1.711h-9.238l6.842,6.073a3.291,3.291,0,0,1,1.027,1.968c0,1.71-1.625,1.71-2.481,1.71Zm-28.742-4.447v-5.3H651.664v5.3Zm-13.943,4.447v5.561h13.943v-5.561Zm13.943,10.009H651.664v5.646h13.943Zm10.35,16H693.75l3.935-5.9H677.754a1.289,1.289,0,0,1,1.026,1.2c0,1.026-1.2,1.454-2.823,2.054Zm11.292-30.452,3.764-5.3H677.5v5.3Zm-9.752,4.447v5.561h9.923l3.507-5.047a2.631,2.631,0,0,0,.427-.514Zm0,15.655h13.857l3.936-5.646H677.5Z" fill="#000000"/></g><g id="東方心綺楼_ORIGINAL_SOUNDTRACK_Copyright_2013_黄昏フロンティア_上海アリス幻樂団" data-name="東方心綺楼 ORIGINAL SOUNDTRACK Copyright 2013 黄昏フロンティア＆上海アリス幻樂団"><path d="M312.673,927.946a4.187,4.187,0,0,0-2.091,3.105,14.058,14.058,0,0,1-6.857-5.972v1.466c0,.646.043,3.515.043,4.1,0,.539,0,1.142-2.221,1.142-.819,0-.862-.28-.862-.776,0-.474.043-3.924.043-4.031v-.539a20.345,20.345,0,0,1-8.6,4.829l-.193-.388c1.056-.733,4.959-3.385,7.028-6.641h-1.574c-.021.281-.043.582-.625.755a6.289,6.289,0,0,1-1.553.215c-.8,0-.862-.345-.862-.776,0-.41.043-2.243.043-2.63V918.33c0-.905-.021-1.94-.086-2.716l3.342,1.272h3.083v-1.811h-6.554c-.475,0-.949.022-1.682.086l-.431-1.294c.625.043,1.315.087,2.177.087h6.49a20.088,20.088,0,0,0-.107-2.5l3.384.367c.367.043.539.129.539.367,0,.28-.237.387-.819.625v1.143h3.967l1.164-1.725c.13-.172.238-.281.41-.281a.653.653,0,0,1,.453.216l2.264,1.962a.731.731,0,0,1,.323.539c0,.41-.5.41-.69.41h-7.891v1.811h3.148l.733-.927c.129-.151.237-.323.453-.323a1.158,1.158,0,0,1,.5.215l2,1.466c.3.238.366.367.366.518,0,.258-.151.431-.862.884V920.9c0,.5.043,2.652.043,3.105,0,.431-.043.755-.862.97a5.536,5.536,0,0,1-1.38.173c-.82,0-.82-.345-.82-.906h-2.932a17.647,17.647,0,0,0,8.56,3.278Zm-11.945-9.939h-3.342v1.983h3.342Zm0,3.1h-3.342v2.006h3.342Zm3-1.121h3.32v-1.983h-3.32Zm0,3.127h3.32v-2.006h-3.32Z" fill="#000000"/><path d="M328.021,920.228l.8-1.186c.108-.151.281-.366.453-.366a1.046,1.046,0,0,1,.582.28l1.9,1.4c.41.3.561.474.561.711,0,.152,0,.389-1.035.928-.56,8.624-1.919,9.724-6.36,9.724.086-2.071-.755-2.7-2.652-3.429l.065-.409c.56.021,3.061.151,3.579.151,1.1,0,1.488-.388,1.832-1.833a25.225,25.225,0,0,0,.561-4.851h-5.347c-.647,3.45-2.048,7.547-8.883,10.5l-.259-.345c3.859-3.751,6.167-6.253,6.36-14.7H315.58a14.766,14.766,0,0,0-1.7.086l-.41-1.294c.6.044,1.294.087,2.156.087h6.253v-1.66c0-1.1-.022-1.489-.086-2.588l3.471.345c.3.022.582.129.582.41s-.281.387-.841.6v2.89h3.946l1.315-1.962a.484.484,0,0,1,.388-.28c.129,0,.237.042.453.236l2.393,2.2a.816.816,0,0,1,.28.518c0,.41-.452.41-.625.41h-9.767a27.56,27.56,0,0,1-.259,3.428Z" fill="#000000"/><path d="M338.237,919.149a13.1,13.1,0,0,1,.69,4.227c0,2.35-.733,4.549-2.609,4.549a1.325,1.325,0,0,1-1.4-1.272c0-.583.172-.906.754-1.811a15.125,15.125,0,0,0,2.135-5.693Zm5.627-2.458c.238.023.518.109.518.389,0,.259-.216.409-.8.6v9.486c0,.5,0,.819.862.819H347.4c1.229,0,1.294-.3,2.092-4.225h.431c.064.474.3,2.608.41,3.04s.15.474.883,1.337a1.477,1.477,0,0,1,.324.991c0,1.9-2.372,1.9-3.989,1.9h-4.528c-2.587,0-2.587-1.293-2.587-2.738v-9.379c0-.884-.021-1.466-.108-2.587Zm-2.63-5.023c5.174.432,7.46,2.221,7.46,4.1a1.587,1.587,0,0,1-1.488,1.746c-.754,0-1.013-.323-1.94-1.552a16.16,16.16,0,0,0-4.162-3.881Zm8.171,7.029c.69.259,5.736,2.824,5.736,5.993,0,1.316-.777,2.157-1.768,2.157-.863,0-1.143-.6-1.423-1.618A22.167,22.167,0,0,0,349.1,919Z" fill="#000000"/><path d="M372.407,920.357l.345-.453c-.345-.064-.517-.237-.905-.883a13.89,13.89,0,0,0-1.919-2.588,7.785,7.785,0,0,1-5.39,3.709l-.216-.388a7.571,7.571,0,0,0,3.3-4.55h-1.38a17.486,17.486,0,0,0-1.768.086l-.41-1.293c.755.065,1.294.086,2.178.086h1.574a9.827,9.827,0,0,0,.064-1.294c0-.431-.021-.97-.043-1.38l2.976.346c.539.064.819.107.819.452,0,.3-.28.453-.819.582a9.519,9.519,0,0,1-.13,1.294h1.445l.97-1.466a.473.473,0,0,1,.41-.259.562.562,0,0,1,.431.215l1.854,1.769a.69.69,0,0,1,.28.474c0,.388-.517.388-.69.388H370.4c-.065.173-.108.3-.194.582,1.768.194,4.441.971,4.441,2.588a1.3,1.3,0,0,1-.215.754l1.7,1.423a.623.623,0,0,1,.28.474c0,.454-.517.454-.732.454h-1.014v5.109c0,.389.043,2.135.043,2.5,0,1.962-.927,2.609-3.493,2.695a2.931,2.931,0,0,0-1.25-2.867,2.886,2.886,0,0,1-.776.107c-.6,0-.647-.215-.647-.539v-.56h-1.359v.755c0,.452,0,1.013-1.509,1.013-.539,0-.733-.194-.733-.539,0-.258.043-1.38.043-1.617V924.26c0-1.164-.064-1.919-.086-2.2a1.293,1.293,0,0,1-1.229,1.1c-.539,0-.647-.517-.69-.776-.043-.173-.151-.9-.194-1.057-.3.152-.41.194-.668.323v1.79l.172-.215c.776.453,2.544,1.833,2.544,3.579a1.293,1.293,0,0,1-1.207,1.38c-.561,0-.582-.281-.69-1.122-.259-2.113-.388-2.543-.819-3.277v5.067c0,.3.043,1.552.043,1.811,0,.388-.022.625-.625.862a3.223,3.223,0,0,1-1.186.216c-.733,0-.906-.13-.906-.646,0-.346.065-1.9.065-2.221V925.3h-.13a15.074,15.074,0,0,1-2.91,5.584l-.388-.194a26.026,26.026,0,0,0,1.25-6.706c-.215,0-.3-.085-.409-.474l-.841-3.04c1.315.064,1.983.064,2.716.064a15.391,15.391,0,0,0,1.1-1.767,1.276,1.276,0,0,1-.992.453c-.56,0-.625-.152-1.121-1.6a9.965,9.965,0,0,0-1.358-2.717l.237-.366a7.951,7.951,0,0,1,1.875.711,16.77,16.77,0,0,0,.82-4.031l3.148,1.164c.56.216.56.388.56.517,0,.367-.431.41-.991.431a16.461,16.461,0,0,1-2.588,2.523,1.88,1.88,0,0,1,.777,2.22,34.481,34.481,0,0,0,1.832-3.945l2.63,1.553c.5.3.518.473.518.56,0,.366-.367.366-1.057.345a15.72,15.72,0,0,1-1.94,2.135,5.871,5.871,0,0,1,2.2,1.595,11.04,11.04,0,0,0,1.229.043Zm-12.915,4.162v-1.833c-.6.237-.97.388-1.768.646a1.53,1.53,0,0,1-.129.453Zm.6-4.011c.345,0,2.092-.065,2.48-.086a7.107,7.107,0,0,0-.647-1.38A22.8,22.8,0,0,1,360.1,920.508Zm7.158,2.588h1.164l.647-.82c.151-.172.259-.237.367-.237a.811.811,0,0,1,.453.216L371.2,923.4c.043.043.258.238.258.431,0,.173-.064.3-.711.712v2.587c0,.173.043.992.022,1.164.927.044,1.034-.021,1.034-.689v-6.123h-6.877a1.486,1.486,0,0,1-.022.539Zm1.294,1.121h-1.359V926.8h1.359Z" fill="#000000"/><path d="M391.485,921.78c.453.151.5.281.5.388,0,.323-.475.367-.884.346-.065.129-.367.668-.431.775h3.859l.884-1.207c.151-.194.258-.237.388-.237a.641.641,0,0,1,.453.216l1.487,1.487a.753.753,0,0,1,.238.474c0,.367-.41.388-.69.388h-2.717l1.078.367c.5.172.6.3.6.474,0,.346-.583.389-.841.389a13.026,13.026,0,0,1-1.272,1.876c1.121.323,2.954,1.185,2.954,2.694a1.306,1.306,0,0,1-1.38,1.358c-.669,0-.819-.107-2.178-1.228-.647-.539-1.013-.777-1.272-.971-2.156,1.6-5.131,2.242-8.365,2.48l-.151-.41a17.279,17.279,0,0,0,6.381-3.363c-.754-.367-1.056-.517-1.789-.819-.6,1.034-.733,1.25-1.617,1.25-.992,0-1.919-.474-1.919-.9,0-.195.043-.259.453-.841.819-1.186,1.164-1.79,1.488-2.351a18.85,18.85,0,0,0-2.07.087l-.41-1.272c-.668.021-.755-.41-.841-.863a7.458,7.458,0,0,0-.6-2.306v6.209c0,.69.065,3.73.065,4.355,0,.561-.151.755-.539.9a4.161,4.161,0,0,1-1.38.259c-.862,0-.862-.28-.862-.927,0-.194.043-3.04.043-3.622V924a18.316,18.316,0,0,1-2.458,3.3l-.366-.238a40.3,40.3,0,0,0,2.716-9.551h-.388a16.4,16.4,0,0,0-1.768.087l-.366-1.294c.625.043,1.293.086,2.177.086h.453v-2.35c0-1.358-.021-1.617-.086-2.588l2.824.324c.345.043.733.086.733.41,0,.344-.431.453-.8.539v3.665h.173l.561-.906c.107-.172.194-.3.387-.3s.3.129.54.409c.431.022,1.272.065,2.285.065h2.7V914.04a21.163,21.163,0,0,0-.086-2.565l3.062.3c.193.022.668.065.668.367s-.28.387-.776.582v2.932h.3a17.536,17.536,0,0,0,1.467-3.881l2.717,1.056c.215.087.474.237.474.475,0,.3-.389.323-1.035.323a18.107,18.107,0,0,1-2.738,2.027h1.7l.625-.885c.108-.171.216-.3.431-.3a.588.588,0,0,1,.432.237l1.142,1.208a.717.717,0,0,1,.238.474c0,.388-.475.388-.647.388h-4.722a13.351,13.351,0,0,0,5.347,1.682v.409a3.609,3.609,0,0,0-1.682,2.415,8.024,8.024,0,0,1-4.032-3.514c0,.41.044,2.393.044,2.458,0,.453,0,1.121-2.114,1.142Zm-8.668-2.932a4.116,4.116,0,0,1,2.114,1.531,15.8,15.8,0,0,0,3.1-3.6H386.72c-.453,0-.776.022-1.207.043a.481.481,0,0,1,.086.281c0,.387-.367.409-.6.409h-2.178Zm6.684,2.286a1.494,1.494,0,0,1-.086-.626c0-.28.022-1.639.043-1.941a14.748,14.748,0,0,1-4.2,2.5,1.754,1.754,0,0,1,.129.712,1.34,1.34,0,0,1-1.013,1.423c1.164.065,1.466.086,2.221.086h.8a13.367,13.367,0,0,0,1.143-2.479Zm-4.183-9.293c.583.107,3.407.732,3.407,2.349a1.429,1.429,0,0,1-1.488,1.4c-.711,0-.841-.323-1.207-1.358a6.963,6.963,0,0,0-1.013-2.048Zm4.7,12.569-1.337,2.265c.8.064,1.272.107,2.523.28a7.876,7.876,0,0,0,1.466-2.545Z" fill="#000000"/><path d="M424.532,921.479a8.787,8.787,0,1,1-8.8-8.668A8.428,8.428,0,0,1,424.532,921.479Zm-14.23-.152c0,5.024,2.35,7.7,5.52,7.7,2.717,0,5.368-2.047,5.368-7.352,0-4.117-1.66-7.718-5.627-7.718C413.45,913.954,410.3,915.506,410.3,921.327Z" fill="#000000"/><path d="M439.708,927.45a2.882,2.882,0,0,0,2.48,1.251v1.121H437.53l-5.606-8.3h-.452v6.059c0,.733.043,1.38,1.207,1.38h.669v.862H426.3v-.862h.8c1.143,0,1.207-.6,1.207-1.38V915.42c0-.755-.043-1.38-1.207-1.38h-.8v-.862h7.956c4.29,0,5.369,2.414,5.369,4.118,0,1.4-.777,3.751-4.248,4.161Zm-6.4-7.05a2.779,2.779,0,0,0,2.976-3.061c0-1.984-1.014-3.04-2.976-3.04h-1.832v6.1Z" fill="#000000"/><path d="M450.766,913.156v.884h-.97c-1.143,0-1.229.561-1.229,1.358V927.58c0,.776.086,1.358,1.229,1.358h.97v.884H443.2v-.884h.97c1.208,0,1.229-.668,1.229-1.358V915.4c0-.69-.043-1.358-1.229-1.358h-.97v-.884Z" fill="#000000"/><path d="M462.45,921.888h7.287v1.121c-1.013,0-1.423.194-1.423,1.445v4.14a5.979,5.979,0,0,0-2.414.43,9.823,9.823,0,0,1-4.593,1.143c-4.355,0-8.732-2.651-8.732-8.6a8.37,8.37,0,0,1,8.776-8.753,11.673,11.673,0,0,1,4.894,1.078,9.088,9.088,0,0,0,1.487.388l.41,3.558-1.164.086a5.013,5.013,0,0,0-5.089-3.989c-4.441,0-5.972,4.075-5.972,7.913,0,2.479.6,7.2,5.649,7.2a4.6,4.6,0,0,0,3.148-.991,2.32,2.32,0,0,0,.453-1.424v-2.177c0-.776-.173-1.445-1.4-1.445H462.45Z" fill="#000000"/><path d="M478.38,913.156v.884h-.97c-1.143,0-1.229.561-1.229,1.358V927.58c0,.776.086,1.358,1.229,1.358h.97v.884h-7.568v-.884h.971c1.207,0,1.229-.668,1.229-1.358V915.4c0-.69-.043-1.358-1.229-1.358h-.971v-.884Z" fill="#000000"/><path d="M485,913.156l8.861,11.19V915.4c0-.69-.021-1.358-1.229-1.358h-.776v-.884h5.175v.884h-.8c-1.164,0-1.229.6-1.229,1.358v14.424h-.819l-11.169-14.1V927.58c0,.776.065,1.358,1.208,1.358h.8v.884h-5.175v-.884h.8c1.143,0,1.207-.582,1.207-1.358V915.4c0-.754-.043-1.358-1.207-1.358h-.8v-.884Z" fill="#000000"/><path d="M502.631,924.065l-1.4,3.752a1.887,1.887,0,0,0-.107.561c0,.56.668.56,1.617.56v.884h-4.678v-.884c.819,0,1.53,0,1.918-1.056l5.649-15.093h1.337l5.562,14.77c.475,1.271,1.1,1.379,2.264,1.379v.884h-7.223v-.884c1.38,0,1.812,0,1.812-.625a4.411,4.411,0,0,0-.173-.733l-1.294-3.515Zm4.873-1.121-2.2-5.972-2.243,5.972Z" fill="#000000"/><path d="M523.391,928.7a4.188,4.188,0,0,0,4.485-3.234h1.143l-1.036,4.355h-12.16v-.884h.8c1.143,0,1.207-.582,1.207-1.358V915.4c0-.754-.043-1.358-1.207-1.358h-.8v-.884H523v.884h-.8c-1.185,0-1.207.647-1.207,1.358v13.3Z" fill="#000000"/><path d="M537.509,925.747h1.208a4.019,4.019,0,0,0,4.139,3.277c2.2,0,3.407-1.315,3.407-2.867,0-1.962-1.337-2.479-4.377-3.666-1.832-.711-3.967-1.9-3.967-4.829,0-3.32,2.652-4.873,5.282-4.873a10.3,10.3,0,0,1,3.019.539,4.923,4.923,0,0,0,.948.173l.237,2.76-1.164.086a3.167,3.167,0,0,0-3.256-2.415c-1.81,0-3.1,1.121-3.1,2.652,0,1.682,1.1,2.092,3.493,2.976,2.2.8,4.916,1.876,4.916,5.455,0,2.263-1.315,5.152-5.692,5.152a9.966,9.966,0,0,1-3.278-.561c-.344-.128-1.056-.366-1.574-.539Z" fill="#000000"/><path d="M567.886,921.479a8.787,8.787,0,1,1-8.8-8.668A8.428,8.428,0,0,1,567.886,921.479Zm-14.23-.152c0,5.024,2.35,7.7,5.52,7.7,2.717,0,5.368-2.047,5.368-7.352,0-4.117-1.66-7.718-5.627-7.718C556.8,913.954,553.656,915.506,553.656,921.327Z" fill="#000000"/><path d="M576.83,913.156v.884h-.8c-1.186,0-1.208.647-1.208,1.358v8.969c0,1.014,0,4.529,4.248,4.529,3.364,0,4.743-1.769,4.743-4.507V915.4c0-.754-.043-1.358-1.208-1.358h-.8v-.884h5.195v.884h-.8c-1.143,0-1.207.582-1.207,1.358v9.164c0,5.153-4.786,5.605-6.6,5.605-3.147,0-6.748-1.057-6.748-5.713V915.4c0-.754-.043-1.358-1.208-1.358h-.8v-.884Z" fill="#000000"/><path d="M593.559,913.156l8.861,11.19V915.4c0-.69-.022-1.358-1.229-1.358h-.776v-.884h5.175v.884h-.8c-1.164,0-1.23.6-1.23,1.358v14.424h-.819l-11.168-14.1V927.58c0,.776.065,1.358,1.207,1.358h.8v.884h-5.175v-.884h.8c1.144,0,1.208-.582,1.208-1.358V915.4c0-.754-.043-1.358-1.208-1.358h-.8v-.884Z" fill="#000000"/><path d="M615.052,913.156c7.546,0,8.926,5.024,8.926,8.365,0,4.528-2.5,6.49-3.817,7.223a12.4,12.4,0,0,1-5.109,1.078h-8.086v-.884h.8c1.143,0,1.208-.582,1.208-1.358V915.4c0-.754-.065-1.358-1.208-1.358h-.8v-.884Zm-2.911,1.143v14.4h2.8c4.938,0,5.693-4.032,5.693-7.18,0-3.255-.777-7.222-5.693-7.222Z" fill="#000000"/><path d="M640.188,913.156l.583,3.924h-1.143a3.33,3.33,0,0,0-3.342-2.781h-1.294V927.58c0,.755.043,1.358,1.207,1.358h.971v.884h-7.524v-.884h.969c1.1,0,1.208-.517,1.208-1.358V914.3h-1.294a3.329,3.329,0,0,0-3.341,2.781h-1.143l.582-3.924Z" fill="#000000"/><path d="M655.882,927.45a2.882,2.882,0,0,0,2.479,1.251v1.121H653.7l-5.606-8.3h-.452v6.059c0,.733.042,1.38,1.207,1.38h.668v.862h-7.05v-.862h.8c1.142,0,1.207-.6,1.207-1.38V915.42c0-.755-.043-1.38-1.207-1.38h-.8v-.862h7.956c4.29,0,5.368,2.414,5.368,4.118,0,1.4-.776,3.751-4.247,4.161Zm-6.4-7.05a2.779,2.779,0,0,0,2.975-3.061c0-1.984-1.014-3.04-2.975-3.04h-1.832v6.1Z" fill="#000000"/><path d="M663.533,924.065l-1.4,3.752a1.85,1.85,0,0,0-.109.561c0,.56.669.56,1.618.56v.884h-4.679v-.884c.819,0,1.531,0,1.919-1.056l5.649-15.093h1.336l5.564,14.77c.473,1.271,1.1,1.379,2.263,1.379v.884h-7.222v-.884c1.38,0,1.81,0,1.81-.625a4.3,4.3,0,0,0-.172-.733l-1.294-3.515Zm4.872-1.121-2.2-5.972-2.242,5.972Z" fill="#000000"/><path d="M692.271,917.812l-1.165.109a4.987,4.987,0,0,0-5.024-3.989c-3.686,0-5.67,3.385-5.67,7.5,0,4.527,1.984,7.61,5.843,7.61a5.135,5.135,0,0,0,5.132-4.053l1.185.108-.539,3.449c-.41.151-2.135.841-2.5.971a10.949,10.949,0,0,1-3.8.646c-5.346,0-8.667-3.428-8.667-8.581,0-4.636,2.91-8.775,8.581-8.775a10.777,10.777,0,0,1,4.808,1.078,8.013,8.013,0,0,0,1.4.388Z" fill="#000000"/><path d="M707.941,927.127a3.042,3.042,0,0,0,2.588,1.574v1.121H706l-5.886-8.15-.9.971v4.937c0,.733.021,1.358,1.207,1.358h.8v.884h-7.18v-.884h.8c1.143,0,1.207-.582,1.207-1.358V915.4c0-.754-.043-1.358-1.207-1.358h-.8v-.884h7.18v.884h-.8c-1.186,0-1.207.647-1.207,1.358v5.563l5.433-5.714c.453-.5.56-.625.56-.884,0-.323-.474-.323-.668-.323h-.884v-.884h5.757v.884h-.56a3.261,3.261,0,0,0-2.588,1.186l-3.989,4.182Z" fill="#000000"/><path d="M337.291,957.12l-.8.074a3.406,3.406,0,0,0-3.431-2.724c-2.518,0-3.873,2.312-3.873,5.125,0,3.092,1.355,5.2,3.991,5.2a3.507,3.507,0,0,0,3.5-2.768l.809.074-.368,2.355c-.28.1-1.458.574-1.708.663a7.472,7.472,0,0,1-2.591.442,5.512,5.512,0,0,1-5.92-5.861c0-3.166,1.988-5.993,5.861-5.993a7.374,7.374,0,0,1,3.283.736,5.438,5.438,0,0,0,.957.266Z" fill="#000000"/><path d="M341.649,957.091a4.236,4.236,0,1,1-4.078,4.241A4.013,4.013,0,0,1,341.649,957.091Zm-1.442,6.833a1.663,1.663,0,0,0,1.487.868c1.737,0,1.943-2.062,1.943-3.3,0-1.414-.265-3.638-2.032-3.638-1.9,0-1.943,2.415-1.943,3.52A6.149,6.149,0,0,0,340.207,963.924Z" fill="#000000"/><path d="M348.614,967.517c0,.529.044.971.854.971h.25v.589h-4.152v-.589c.825,0,1.075-.118,1.075-.971V958.77c0-.177,0-.619-.5-.619a1.878,1.878,0,0,0-.412.059l-.074-.589,2.96-.516v1.017a2.967,2.967,0,0,1,2.356-1.017c2.548,0,3.3,2.284,3.3,4.183,0,2.871-1.576,4.27-3.623,4.27a3.08,3.08,0,0,1-2.032-.648Zm0-3.873a1.864,1.864,0,0,0,1.767,1.148c1,0,1.811-.56,1.811-3.181,0-1.354-.265-3.43-1.958-3.43a1.82,1.82,0,0,0-1.62,1.06Z" fill="#000000"/><path d="M360.585,958.726a1.66,1.66,0,0,0,.118-.487c0-.323-.471-.323-.662-.323h-.325v-.589h2.872v.589a.994.994,0,0,0-1.134.751l-3.4,7.848c-.574,1.339-1.355,2.547-2.621,2.547-.722,0-.84-.5-.84-.707,0-.751.81-.765,1.252-.765.559,0,.9.014,1.5-1.4l.5-1.178-2.62-6.375a1,1,0,0,0-1.105-.722v-.589H358.1v.589h-.236c-.191,0-.6,0-.6.323a1.445,1.445,0,0,0,.148.516l1.531,3.769Z" fill="#000000"/><path d="M365.312,963.762c0,.868.265.971,1.075.971v.589h-4.123v-.589c.81,0,1.075-.1,1.075-.971V958.77c0-.221-.015-.619-.5-.619a2.135,2.135,0,0,0-.427.044l-.059-.574,2.96-.53v.928a2.941,2.941,0,0,1,2.1-.928c.943,0,1.282.545,1.282,1a.97.97,0,0,1-.987.957c-.383,0-.486-.089-.957-.574a.542.542,0,0,0-.4-.163,1.31,1.31,0,0,0-1.045.854Z" fill="#000000"/><path d="M371.275,963.762c0,.868.265.971,1.075.971v.589h-4.123v-.589c.81,0,1.075-.1,1.075-.971V958.77c0-.163,0-.633-.486-.633a2.649,2.649,0,0,0-.442.058l-.059-.589,2.96-.515Zm.25-8.968a1.259,1.259,0,1,1-2.518,0,1.242,1.242,0,0,1,1.252-1.252A1.273,1.273,0,0,1,371.525,954.794Z" fill="#000000"/><path d="M372.276,966.868a2.226,2.226,0,0,1,1.6-2,1.122,1.122,0,0,1-.81-1.031c0-.854.869-1.384,1.429-1.723a2.48,2.48,0,0,1-1.679-2.4c0-1.693,1.413-2.621,3.033-2.621a3.642,3.642,0,0,1,1.915.5,3.209,3.209,0,0,1,1.869-.78.843.843,0,0,1,.913.838.744.744,0,0,1-.751.751.924.924,0,0,1-.618-.25c-.162-.118-.236-.176-.368-.176a.619.619,0,0,0-.427.176,2.378,2.378,0,0,1,.53,1.576c0,1.678-1.414,2.7-3.269,2.621-.457.206-.883.471-.883.78,0,.339.5.353,1.325.383,1.752.045,4.005.118,4.005,2.415,0,2.047-2.032,3.166-4.447,3.136C373.689,969.048,372.276,968.385,372.276,966.868Zm1.516-.147c0,.781.722,1.532,2.121,1.532,1.325,0,2.518-.678,2.518-1.841,0-1.016-.972-1.148-1.532-1.208-.25-.029-1.575-.1-1.869-.132A1.969,1.969,0,0,0,373.792,966.721Zm3.24-6.92c0-.4,0-1.974-1.163-1.974-.736,0-1.163.693-1.163,1.826,0,.368,0,1.958,1.163,1.958C376.561,961.611,377.032,960.964,377.032,959.8Z" fill="#000000"/><path d="M383.025,958.313a3.362,3.362,0,0,1,2.636-1.222,2.165,2.165,0,0,1,2.385,2.415v4.256c0,.868.25.971,1.075.971v.589h-3.99v-.589c.765,0,.942-.191.942-.971v-4.109c0-.264,0-1.4-1.178-1.4a1.946,1.946,0,0,0-1.87,1.428v4.079c0,.8.191.971.957.971v.589h-3.99v-.589c.81,0,1.075-.1,1.075-.971v-8.747c0-.162-.015-.619-.5-.619a2.161,2.161,0,0,0-.427.059l-.059-.589,2.945-.515Z" fill="#000000"/><path d="M391.992,954.706v2.621H394.1v.766h-2.106v5.345c0,.191,0,.913.737.913a1.424,1.424,0,0,0,1.074-.6l.53.574a3.107,3.107,0,0,1-2.473,1.237A1.77,1.77,0,0,1,390,963.511v-5.418H388.93v-.6c.5-.073,1.884-.235,2.134-2.782Z" fill="#000000"/><path d="M403.33,963.35c1.222,0,1.4-.62,1.546-1.164l.78.088-.692,3.048h-6.891V964.07c2.93-2.782,3.549-3.386,4.182-4.343a4.884,4.884,0,0,0,.766-2.577c0-.8-.3-2.327-1.812-2.327s-2.179,1.547-2.355,1.945l-.678-.354a3.912,3.912,0,0,1,3.77-2.71,3.111,3.111,0,0,1,3.327,3.255c0,2.193-1.56,3.4-3.7,5.035A13.781,13.781,0,0,0,400,963.35Z" fill="#000000"/><path d="M409.926,953.7c1.958,0,4.02,1.708,4.02,5.935.014,4.285-2.106,5.919-4.02,5.919s-4-1.664-4-5.919C405.921,955.251,408.1,953.7,409.926,953.7Zm-.015,11.088c.781,0,1.753-.133,1.753-5.168,0-4.918-.928-5.139-1.723-5.139-.913,0-1.208.515-1.443,1.472a14.4,14.4,0,0,0-.31,3.667C408.188,964.571,409.146,964.792,409.911,964.792Z" fill="#000000"/><path d="M419.129,963.688c0,.78.177,1.031.986,1.031h.663v.6H415.3v-.6h.678c.869,0,.986-.324.986-1.031V954.75l-1.487.265-.059-.619,3.711-.692Z" fill="#000000"/><path d="M424.4,958.888h.486c.942,0,2.488-.177,2.488-2.209,0-1.134-.515-2.018-1.8-2.018a2.953,2.953,0,0,0-2.5,1.591l-.634-.457a3.994,3.994,0,0,1,3.682-2.091c2.238,0,3.416,1.458,3.416,2.872a2.324,2.324,0,0,1-1.664,2.237,3.169,3.169,0,0,1,2.253,3.079c0,2.429-2.5,3.666-4.874,3.666-1.531,0-3.092-.531-3.092-1.664a.956.956,0,0,1,1-.957c.81,0,1.016.648,1.134,1.031.147.427.294.824,1.163.824a2.317,2.317,0,0,0,2.4-2.592c0-2.341-1.929-2.532-2.93-2.532h-.53Z" fill="#000000"/><path d="M442.04,958.726h2.046l.575-.81c.117-.177.191-.206.294-.206.074,0,.133,0,.324.146l1.3.943c.176.133.279.222.279.4,0,.133-.043.295-.632.649V961.2c0,.339.044,1.841.044,2.135,0,.457-.1.663-1.193.781.559.073,2.356.309,2.356,1.575a.983.983,0,0,1-.972.987c-.412,0-.53-.088-1.576-.781a16.766,16.766,0,0,0-3.268-1.678l.058-.28c.56,0,1.414-.014,2.666.088-.088-.073-.148-.162-.148-.47h-5.742l2.135,1.089c.074.044.25.147.25.28a.212.212,0,0,1-.235.206,3.981,3.981,0,0,1-.545-.059,18.069,18.069,0,0,1-5.772,1.532l-.1-.281c1.281-.633,3.372-1.648,4.152-2.767h-.368c0,.279-.059.691-1.3.691-.633,0-.751-.117-.751-.515,0-.236.03-1.237.03-1.443V959.3c0-.722-.015-1-.045-1.384l2.209.81h2v-1.178h-4.506c-.206,0-.53.014-1.148.073l-.3-.9a13.862,13.862,0,0,0,1.487.074h2.076v-1.546h-1.487c-.368,0-.692.015-1.148.044l-.295-.869c.456.029.9.044,1.473.044h1.457c-.029-.972-.029-1.089-.058-1.723l2.252.251c.163.015.383.044.383.25,0,.177-.059.206-.574.427v.8h2.3c0-.117,0-.839-.059-1.723l2.268.251c.162.015.368.044.368.25,0,.162-.059.191-.56.427v.8h.707l.736-1.016c.089-.133.162-.191.251-.191a.556.556,0,0,1,.294.162l1.237,1.178a.709.709,0,0,1,.177.368c0,.28-.28.28-.4.28h-3V956.8h1.208l.75-1.046c.1-.132.148-.206.251-.206a.486.486,0,0,1,.294.177l1.252,1.192c.015.03.191.191.191.368,0,.266-.28.266-.412.266H442.04Zm-1.929.765h-2.15v1.223h2.15Zm0,2h-2.15v1.3h2.15Zm1.929-6.243h-2.3V956.8h2.3Zm0,5.463h2.149v-1.223H442.04Zm0,2.076h2.149v-1.3H442.04Z" fill="#000000"/><path d="M459.65,955.869l.678-.986a.3.3,0,0,1,.25-.162.585.585,0,0,1,.324.132l1.576,1.164a.385.385,0,0,1,.191.323c0,.295-.354.295-.442.295h-3.961a3.962,3.962,0,0,0,2.518,1.781c.457,0,.825-.5,1.443-1.311l.265.1c-.014.133-.206,1.4-.206,1.458,0,.132.015.177.265.5a.665.665,0,0,1,.147.442,1.044,1.044,0,0,1-1.177,1.031,4.038,4.038,0,0,1-.781-.074c.3.221.339.265.339.413,0,.118-.059.264-.619.588V964.7c0,.206.03,1.074.03,1.266,0,.648-1.016.692-1.473.692-.618,0-.618-.162-.618-.824h-5.257c0,.339,0,.809-1.34.809-.721,0-.721-.25-.721-.486,0-.1.029-1.251.029-1.486v-4.418c-.265.058-.427.089-.618.133-.045.22-.1.53-.354.53-.162,0-.236-.133-.309-.295l-1.016-2.164h1.561v-3.372c0-1.046-.044-1.5-.059-1.768l2.371.737a40.673,40.673,0,0,0,5.565-1.105,7.526,7.526,0,0,0,1.208-.427l2.253,1.238c.074.044.206.146.206.25,0,.073-.074.206-.294.206a2.911,2.911,0,0,1-.516-.1c-.736.088-1.723.221-3.431.338a5.462,5.462,0,0,0,.251,1.414Zm-.942,3.99a5.536,5.536,0,0,1-1.634-1.281,44.545,44.545,0,0,1-4.86,1.4l1.119.4h4.948Zm-2.945-3.99a8.728,8.728,0,0,1-.147-1.31c-.884.029-1.1.044-3.093.073v1.237Zm-3.24,2.532c1.355-.044,1.65-.058,4.241-.176a6.048,6.048,0,0,1-.809-1.59h-3.432Zm.619,2.74v1.546H458.4v-1.546Zm0,2.326v1.605H458.4v-1.605Z" fill="#000000"/><path d="M465.879,954.646c.191.325.427.634,1.281.634.633,0,6.42-.457,6.552-.486.163-.029.854-.309,1-.309.589,0,1.605,1.163,1.605,1.619,0,.192-.089.236-.442.472a1.15,1.15,0,0,0-.368.633,17.758,17.758,0,0,1-2.989,5.315,10.641,10.641,0,0,1-5.758,3.3l-.132-.251a14.2,14.2,0,0,0,5.978-6.655,10.912,10.912,0,0,0,.854-2.488c0-.133-.118-.148-.221-.148a41.627,41.627,0,0,0-4.962.618c-.236.045-1.207.339-1.414.339-.692,0-1.443-1.148-1.443-1.8a2.08,2.08,0,0,1,.177-.736Z" fill="#000000"/><path d="M478.483,955.811a1.97,1.97,0,0,1,1.016-.281,2.275,2.275,0,0,1,1.031.265c.456.222.5.251.692.251.088,0,4.932-.427,5.507-.545.162-.029.942-.354,1.134-.354.486,0,1.619.9,1.619,1.444,0,.177-.118.308-.279.485a1.27,1.27,0,0,0-.325.751c-.279,1.531-.588,3.078-.9,4.61.692.308.766.736.766.927,0,.236-.147.648-.78.648-.074,0-.251-.015-.53-.044-.648-.059-1.208-.074-2.018-.074-1.06,0-1.281.015-3.534.147-.044.545-.265.928-.78.928-.854,0-1.222-1.34-1.252-1.59-.015-.118,0-.678,0-.811a49.247,49.247,0,0,0-.427-5.124c-.147-.927-.471-1.177-.971-1.354Zm7.671,6.522c.354-2.355.693-4.859.693-5.168,0-.177-.118-.206-.339-.206-.751,0-4.594.5-4.653.5a1.336,1.336,0,0,1-.486-.1c.28,3.7.353,4.668.427,5.257C482.518,962.568,482.871,962.539,486.154,962.333Z" fill="#000000"/><path d="M492.707,954.47c1.075.118,4.564.765,4.564,2.768,0,.649-.353,1.252-.927,1.252-.515,0-.81-.442-1.075-.869a9.985,9.985,0,0,0-2.709-2.9Zm.221,7.937a1.632,1.632,0,0,0,1.134.633c1.016,0,6.051-2.769,9.409-6.994l.25.147c-1.738,4.521-4.52,6.331-7.981,8.584-.117.074-.589.472-.677.545a.955.955,0,0,1-.5.192,2.689,2.689,0,0,1-1.958-2.371,6.324,6.324,0,0,1,.044-.648Z" fill="#000000"/><path d="M506.475,965.823a7.524,7.524,0,0,0,3.327-3.681,6.9,6.9,0,0,0,.545-2.327,1.3,1.3,0,0,0-.147-.663,19.79,19.79,0,0,0-1.973.339c-.28.059-1.458.4-1.708.4a1.768,1.768,0,0,1-1.355-1.576,3.372,3.372,0,0,1,.073-.633l.281-.088a1.092,1.092,0,0,0,1.059.559c.472,0,5.714-.6,6.788-.663a9.751,9.751,0,0,0,1.458-.161,3.807,3.807,0,0,1,.589-.059c.618,0,1.752.6,1.752,1.281,0,.339-.279.618-.795.618-.044,0-.972-.1-1.074-.117a18.49,18.49,0,0,0-2.136-.1c-.559,0-.765.015-1.045.03.221.147.456.295.456.53a6.3,6.3,0,0,1-.279.736c-.045.177-.222.957-.266,1.119a6.474,6.474,0,0,1-5.419,4.727Zm.942-11.323c.147.161.294.323.957.323a35.015,35.015,0,0,0,4.446-.412,2.353,2.353,0,0,1,.782-.147c.794,0,1.619.471,1.619,1.09,0,.544-.456.544-1.856.559a28.03,28.03,0,0,0-2.959.191c-.3.044-1.591.266-1.855.266a1.5,1.5,0,0,1-1.444-1.414,2.8,2.8,0,0,1,.03-.353Z" fill="#000000"/><path d="M519.3,962.392a25.077,25.077,0,0,0,5.639-4.241c.28-.28.972-1,.972-1.266s-.324-.4-.486-.471l.059-.28a1.923,1.923,0,0,1,.633-.132c.766,0,1.914.81,1.914,1.428,0,.25-.162.353-.662.692a3.178,3.178,0,0,0-.457.383c-.589.516-.751.647-1.766,1.458.147.117.4.294.4.574,0,.088-.059.442-.074.529-.03.222-.03.958-.03,1.238,0,.456.06,2.459.06,2.856,0,.25,0,1.017-.707,1.017-.751,0-1.017-1.061-1.017-1.458,0-.133.06-.722.075-.84a13.113,13.113,0,0,0,.058-1.457c0-.413,0-1.075-.029-1.576a14.28,14.28,0,0,1-4.462,1.811Z" fill="#000000"/><path d="M533.273,965.97a8.459,8.459,0,0,0,2.959-4.417,9.9,9.9,0,0,0,.383-2.371c0-.5-.177-.721-.839-.987l.03-.279a2.7,2.7,0,0,1,1.133-.28,2.249,2.249,0,0,1,1.708.751,11.08,11.08,0,0,0,2.18-2.047c.029-.044.132-.162.132-.221s-.088-.058-.117-.058a53.5,53.5,0,0,0-5.875.942,15.045,15.045,0,0,1-1.444.471,2.144,2.144,0,0,1-1.737-2.032,3.721,3.721,0,0,1,.117-.854l.281-.073a1.541,1.541,0,0,0,1.458.795c.691,0,6.6-.589,7.288-.693.206-.029,1.046-.324,1.237-.324.706,0,1.648,1.355,1.648,1.87,0,.354-.206.442-.794.678-.03.014-1.458.971-1.738,1.148a14.719,14.719,0,0,1-2.621,1.355c-.058.295-.339,1.6-.412,1.87a7.079,7.079,0,0,1-4.815,4.992Z" fill="#000000"/><path d="M556.715,963.585a2.49,2.49,0,0,0,1.987.957v.78h-3.357l-1.06-1.237a5.237,5.237,0,0,1-3.667,1.473,2.982,2.982,0,0,1-3.254-2.975c0-1.325.737-2.429,2.563-3.562a3.7,3.7,0,0,1-1.208-2.592,2.709,2.709,0,0,1,2.842-2.725,2.363,2.363,0,0,1,2.547,2.268c0,1.31-1.089,1.988-1.884,2.474l2.96,3.386a6.542,6.542,0,0,0,1.074-2.37c0-.235-.177-.31-.618-.31h-.575v-.6h3.549v.6H558a.915.915,0,0,0-.928.663,12.9,12.9,0,0,1-1.355,2.622Zm-6.288-3.976a2.286,2.286,0,0,0-1.222,1.826,2.974,2.974,0,0,0,2.607,2.9,3.071,3.071,0,0,0,1.943-.869Zm2.194-3.711c0-1.03-.618-1.413-1.222-1.413a1.077,1.077,0,0,0-1.1,1.075c0,.751.471,1.266,1.369,2.252A2.35,2.35,0,0,0,552.621,955.9Z" fill="#000000"/><path d="M570.7,957.887l.883-1.325c.074-.119.147-.192.266-.192a.468.468,0,0,1,.323.161L573.824,958a.531.531,0,0,1,.192.368c0,.221-.236.28-.412.28h-5.125v6.435h2.886l.884-1.325a.34.34,0,0,1,.265-.192c.118,0,.191.074.309.162l1.65,1.487a.48.48,0,0,1,.191.353c0,.281-.324.281-.428.281H562.177a10.079,10.079,0,0,0-1.163.058l-.294-.884c.426.031.9.06,1.487.06h4.078V954.559a16.477,16.477,0,0,0-.073-1.767l2.459.25c.294.029.383.133.383.265,0,.206-.177.265-.575.412v4.168Z" fill="#000000"/><path d="M575.43,956.429c2.738.294,2.738,1.619,2.738,1.841a1.173,1.173,0,0,1-1.03,1.251c-.428,0-.516-.236-.781-.943a6.789,6.789,0,0,0-1.045-1.885Zm10.366.441.456-.647c.118-.162.206-.281.339-.281.088,0,.147.015.441.236l1.194.927a.434.434,0,0,1,.206.339c0,.236-.192.368-.59.634-.015.9-.03,1.178-.073,1.8h.058l.413-.81c.088-.162.132-.22.221-.22s.132.044.25.22l.648.943a.646.646,0,0,1,.132.353c0,.28-.264.28-.4.28h-1.355c-.089,1.369-.1,1.516-.162,2.415h.073l.472-.928c.073-.133.118-.235.25-.235s.191.073.28.22l.662,1.016a.827.827,0,0,1,.148.4c0,.3-.265.3-.427.3H587.5c-.221,2.033-.663,2.871-3.2,2.8-.03-1.192-.472-1.414-1.65-1.914l.029-.295c1.621.089,1.768.089,1.974.089.56,0,.706-.191.839-.678h-3.946c-.1.957-.148,1.252-1.444,1.252-.559,0-.632-.176-.632-.442,0-.1.088-.677.118-.854.073-.486.382-2.695.456-3.136-.383,0-.751.044-.928.058l-.309-.883c.575.044.781.044,1.34.059.073-.722.088-.9.25-2.459a11.481,11.481,0,0,1-.986.736l-.191-.206c-.163.618-.914,3.328-1.061,3.887a4.918,4.918,0,0,0-.147.913c0,.31.044.413.4,1.252a2.562,2.562,0,0,1,.251,1.016,1.359,1.359,0,0,1-1.355,1.355c-.677,0-.825-.4-.825-.8,0-.235.074-1.251.074-1.457,0-1.031-.309-1.428-.987-1.708l.015-.3c.545,0,.854-.014,1.164-.515a41.061,41.061,0,0,0,2.724-6.2l.28.089c-.133.825-.354,1.723-.53,2.445a17.32,17.32,0,0,0,2.061-5.316l2.179.544c.383.089.486.177.486.324,0,.251-.25.281-.589.325-.251.441-.368.632-.559.913h3.372l.8-1.208c.1-.147.191-.192.264-.192.1,0,.177.06.31.162l1.59,1.37a.493.493,0,0,1,.176.338c0,.295-.293.295-.412.295h-6.64a11.033,11.033,0,0,1-.855,1l1,.383Zm-9.734-3.8c1.061.148,3.063.618,3.063,2a1.2,1.2,0,0,1-1.06,1.266c-.442,0-.544-.236-.854-1.016a5.485,5.485,0,0,0-1.267-1.988Zm5.582,9.984h1.074l.251-2.415h-1.061Zm.529-5.419c-.029.324-.132,1.664-.192,2.238h1.061c.1-1.236.118-1.575.147-2.238Zm3.461,5.419c.073-.751.1-.972.177-2.415h-1.12l-.235,2.415Zm-.751-5.419c-.015.634-.029.986-.133,2.238h1.1c.044-.736.044-.9.074-2.238Z" fill="#000000"/><path d="M592.907,965.97a8.457,8.457,0,0,0,2.96-4.417,10.008,10.008,0,0,0,.383-2.371c0-.5-.177-.721-.84-.987l.029-.279a2.717,2.717,0,0,1,1.135-.28,2.251,2.251,0,0,1,1.708.751,11.107,11.107,0,0,0,2.179-2.047c.029-.044.133-.162.133-.221s-.089-.058-.118-.058A53.5,53.5,0,0,0,594.6,957a14.955,14.955,0,0,1-1.444.471,2.145,2.145,0,0,1-1.737-2.032,3.712,3.712,0,0,1,.118-.854l.279-.073a1.543,1.543,0,0,0,1.458.795c.693,0,6.6-.589,7.289-.693.207-.029,1.045-.324,1.237-.324.707,0,1.649,1.355,1.649,1.87,0,.354-.206.442-.8.678-.029.014-1.458.971-1.737,1.148a14.754,14.754,0,0,1-2.621,1.355c-.06.295-.339,1.6-.413,1.87a7.075,7.075,0,0,1-4.815,4.992Z" fill="#000000"/><path d="M606.263,954.721a1.767,1.767,0,0,1,1-.339c.663,0,1.928.618,1.928,1.207a1.867,1.867,0,0,1-.131.559,2.763,2.763,0,0,0-.06.678c0,.516.06,2.738.06,3.195,0,.5,0,1.5-.884,1.5s-1.149-1.3-1.149-1.708a5.193,5.193,0,0,1,.088-.81c.03-.25.03-.927.03-1.207,0-2.43,0-2.518-.913-2.8Zm5.153-.589a2.026,2.026,0,0,1,1.267-.472c.765,0,2.046.589,2.046,1.208,0,.192-.22,1.016-.236,1.193-.029.485-.029,2.635-.044,3.062-.117,3.607-1.09,6.008-5.771,7.054l-.118-.266c3.917-2.223,3.917-4.255,3.917-10.145,0-.972,0-1.105-1.061-1.34Z" fill="#000000"/><path d="M617.954,965.2a16.789,16.789,0,0,0,7.215-7.833,5.888,5.888,0,0,0,.412-1.017c0-.029-.044-.043-.073-.043-.089,0-2.032.294-3.225.588a13.175,13.175,0,0,1-1.37.443c-.677,0-1.369-1.194-1.369-1.8a2.279,2.279,0,0,1,.206-.868l.28-.074a1.1,1.1,0,0,0,1.193.721c.618,0,4.152-.4,4.447-.486a10.144,10.144,0,0,1,1-.471c.516,0,1.737,1.03,1.737,1.517,0,.177-.058.206-.441.5a8.046,8.046,0,0,0-.884,1.516,22.9,22.9,0,0,1-1.413,2.37c1.914.855,4.24,2.18,4.24,3.814a1.058,1.058,0,0,1-.972,1.149c-.515,0-.648-.236-1.089-1.06a13.455,13.455,0,0,0-2.592-3.314,11.518,11.518,0,0,1-7.2,4.61Z" fill="#000000"/><path d="M636.919,960.39c1.679.632,2.915,1.87,2.915,3.151a1.977,1.977,0,0,1-.088.589c1.517.1,1.737.117,1.929.117.634,0,.9-.177,1.075-1.413a61.933,61.933,0,0,0,.31-7.834h-3.623a10.054,10.054,0,0,0-1.193.06l-.279-.884c.427.029.883.058,1.472.058h3.5l.648-.765c.147-.177.191-.221.324-.221a.778.778,0,0,1,.4.191l1.281.987c.133.1.235.191.235.353s-.1.295-.6.575c-.074,4.77-.133,7.451-.5,8.967-.53,2.194-2.223,2.268-3.5,2.312a1.966,1.966,0,0,0-1.635-2.2,1.062,1.062,0,0,1-.928.472c-.456,0-.6-.191-.721-.6-.059-.177-.206-1-.25-1.164a29.127,29.127,0,0,1-4.02,1.884c-.074.443-.1.619-.339.619-.162,0-.264-.1-.4-.457l-.884-2.282c.854,0,1.34-.029,1.693-.058.987-1.708,1.1-1.9,1.664-3.019a1.309,1.309,0,0,1-.707.235c-.559,0-.676-.324-.957-1.075a8.122,8.122,0,0,0-1.4-2.444l.162-.25a8.592,8.592,0,0,1,1.486.5,20.837,20.837,0,0,0,.913-4.021l2.386.855c.31.118.442.162.442.324,0,.279-.413.294-.692.294a19.134,19.134,0,0,1-2.459,2.856,2.358,2.358,0,0,1,1.311,1.65,21.654,21.654,0,0,0,1.045-2.842l2.105,1.207c.427.251.472.28.472.413,0,.279-.354.279-.457.279a1.6,1.6,0,0,1-.25-.029,50.1,50.1,0,0,1-4.123,5.007c1.722-.1,2.09-.133,2.856-.222a9.772,9.772,0,0,0-.809-1.958Z" fill="#000000"/><path d="M652.866,961.465a12.879,12.879,0,0,0-.045-1.325,2.1,2.1,0,0,1-.574.073.936.936,0,0,0-1.192.427c-.456,0-.487-.236-.589-1.193-.766.442-1.929,1.031-2.224,1.178-.029.177-.073.456-.264.456-.148,0-.221-.191-.266-.323l-.618-1.841c.383.015.986.015,1.31.015.206-.369.516-1,.678-1.355a.9.9,0,0,1-.472.148c-.426,0-.47-.177-.736-1a6.175,6.175,0,0,0-.736-1.532l.191-.235a4.682,4.682,0,0,1,1.031.368,14.637,14.637,0,0,0,.471-2.562l1.914.736c.236.089.368.148.368.31,0,.235-.25.235-.662.25a11.931,11.931,0,0,1-1.56,1.59,1.531,1.531,0,0,1,.6.987,18.722,18.722,0,0,0,.662-1.885l1.576.766c0-.074,0-.766-.059-1.561l1.134.471c.014-.339.059-1.193.03-1.679l2.149.368c.31.06.383.133.383.251,0,.192-.058.206-.618.294a13.6,13.6,0,0,1-.957,1h.721l.471-.515c.074-.088.118-.147.236-.147a.528.528,0,0,1,.309.162l.824.722a.417.417,0,0,1,.192.427,3.441,3.441,0,0,1,.4.162,16.513,16.513,0,0,0,.4-2.651l1.929.662c.28.1.338.163.338.3,0,.236-.161.236-.6.25a10.275,10.275,0,0,1-1.546,1.723,1.853,1.853,0,0,1,.618.8,17.447,17.447,0,0,0,.634-1.767l1.723.913c.235.119.308.177.308.294,0,.207-.117.207-.574.222a17.271,17.271,0,0,1-1.192,1.325c1.545.751,1.722,1.517,1.722,1.973a.945.945,0,0,1-.971,1c-.5,0-.516-.221-.619-1.1-.3.147-1.752.839-2.076,1.016-.044.221-.089.427-.265.427-.132,0-.192-.177-.236-.324l-.456-1.428c.029.662.029.736-.1.839a2.023,2.023,0,0,1-1.06.251c-.5,0-.5-.148-.5-.531h-1.075c-.015.192-.029.31-.324.427l1.944.221c.162.014.383.045.383.221s-.162.265-.457.368v.575h3.033l.722-1.031a.357.357,0,0,1,.265-.192.487.487,0,0,1,.309.162l1.37,1.207a.511.511,0,0,1,.191.325c0,.294-.28.294-.471.294H655.34a12.829,12.829,0,0,0,5.683,1.694l-.014.294c-.28.162-.855.515-1.163,2a9.363,9.363,0,0,1-4.963-3.7v2.018c0,.191.03,1.148.03,1.369,0,.339,0,.766-1.458.766-.472,0-.6-.1-.6-.471,0-.221.014-1.31.014-1.576v-1.4a12.967,12.967,0,0,1-5.89,3.019l-.147-.25a16.58,16.58,0,0,0,4.4-3.77h-2.8a10.957,10.957,0,0,0-1.149.059l-.294-.884c.427.03.9.06,1.487.06Zm-2.71-3.623c-.162.162-.589.619-1.059,1.06.308-.014.514-.029,1.265-.058C650.348,958.755,650.245,958.181,650.156,957.842Zm1.576-1.767a.593.593,0,0,1-.176.015,17.261,17.261,0,0,1-1.179,1.5,2.939,2.939,0,0,1,1.355,1.192Zm1.605-.648v1.31h1.075v-1.31Zm1.075,2.077h-1.075v1.384h1.075Zm1.65,1.354h.9c.266-.515.472-.9.56-1.075a.762.762,0,0,1-.207.029c-.382,0-.4-.1-.588-.9a4.044,4.044,0,0,0-.486-1.295l-.176.1Zm1.516-.014c.1,0,1.236-.06,1.428-.074-.044-.265-.073-.339-.25-1.016C658.4,958.107,657.946,958.549,657.578,958.844Z" fill="#000000"/><path d="M664.778,953.852h7.716l.574-.751c.132-.163.221-.206.309-.206a.593.593,0,0,1,.324.147l1.34,1.03c.177.133.28.237.28.4,0,.236-.074.28-.677.677v8.629c0,.28.058,1.65.058,1.958,0,.339,0,.81-1.56.81-.575,0-.575-.235-.575-.677v-.339h-7.878v.281c0,.352,0,.78-1.516.78-.5,0-.6-.177-.6-.56,0-.251.044-1.458.044-1.737v-9.483a16.3,16.3,0,0,0-.058-1.826Zm-.089,3.3c.413.03.928.059,1.355.059h2.739v-.869c0-.8-.014-1.178-.044-1.487l2.135.191c.1.016.31.045.31.207s-.251.279-.457.353v1.6h.294l.471-.78c.074-.118.133-.162.206-.162.089,0,.133.058.207.147l.662.868v-2.665h-7.878Zm7.878.8a1.125,1.125,0,0,1-.206.03h-1.634v3.166c0,.235.044,1.31.044,1.56,0,1.444-.663,1.694-2.621,1.767-.014-.943-.236-1.31-1.443-1.8v-.3l1.575.03c.428.015.5-.1.5-.383v-4.049h-2.739a9.514,9.514,0,0,0-1.192.058l-.163-.485v7.215h7.878Zm-6.935.545c1.252.309,2.415,1.031,2.415,2.062a1.056,1.056,0,0,1-1.03,1.119c-.56,0-.634-.28-.782-.9a8.938,8.938,0,0,0-.809-2.061Z" fill="#000000"/></g></g><g id="心綺楼-2" data-name="心綺楼"><path d="M314.33,835.256a62.022,62.022,0,0,1,4.625,23.605c0,13.128-4.914,25.412-17.488,25.412-3.469,0-9.395-1.806-9.395-7.105,0-3.252,1.157-5.059,5.059-10.117,3.469-4.576,11.707-16.62,14.308-31.8Zm37.723-13.731c1.59.121,3.468.6,3.468,2.168,0,1.446-1.445,2.288-5.347,3.372v52.994c0,2.769,0,4.576,5.781,4.576h19.8c8.238,0,8.672-1.686,14.019-23.606h2.891c.434,2.65,2.023,14.573,2.746,16.982s1.012,2.649,5.926,7.467a7.4,7.4,0,0,1,2.168,5.54c0,10.6-15.9,10.6-26.738,10.6H346.416c-17.344,0-17.344-7.225-17.344-15.295v-52.39a135.952,135.952,0,0,0-.722-14.452ZM334.42,793.464c34.687,2.408,50.008,12.4,50.008,22.883a9.56,9.56,0,0,1-9.973,9.756c-5.059,0-6.793-1.807-13.008-8.672-6.5-6.986-16.043-15.658-27.894-21.679ZM389.2,832.727c4.625,1.445,38.446,15.777,38.446,33.481,0,7.347-5.2,12.044-11.852,12.044-5.781,0-7.66-3.372-9.539-9.033a114.671,114.671,0,0,0-19.078-34.807Z" fill="#000000"/><path d="M542.692,842l2.313-2.529c-2.313-.362-3.469-1.325-6.07-4.938-5.059-6.985-5.926-7.708-12.864-14.453-6.648,11.2-21.246,17.825-36.133,20.716l-1.445-2.168c10.117-6.023,18.789-13.489,22.113-25.412h-9.25c-2.313,0-5.348,0-11.852.481l-2.746-7.226c5.059.361,8.672.481,14.6.481h10.551a45.6,45.6,0,0,0,.434-7.225c0-2.41-.145-5.42-.289-7.708L532,793.945c3.613.362,5.492.6,5.492,2.53,0,1.686-1.879,2.529-5.492,3.252a44.249,44.249,0,0,1-.867,7.225h9.683l6.5-8.189a3.326,3.326,0,0,1,2.746-1.446,4.08,4.08,0,0,1,2.891,1.2l12.43,9.876c.578.362,1.879,1.446,1.879,2.651,0,2.168-3.469,2.168-4.625,2.168H529.251c-.434.963-.723,1.685-1.3,3.251,11.852,1.084,29.774,5.42,29.774,14.453a6.466,6.466,0,0,1-1.446,4.215l11.418,7.949a3.454,3.454,0,0,1,1.879,2.649c0,2.53-3.469,2.53-4.914,2.53h-6.793v28.544c0,2.168.289,11.922.289,13.97,0,10.96-6.215,14.574-23.414,15.055,0-5.661-.289-11.683-8.383-16.019a22.748,22.748,0,0,1-5.2.6c-4.047,0-4.336-1.2-4.336-3.011v-3.132h-9.105v4.216c0,2.529,0,5.66-10.118,5.66-3.613,0-4.914-1.084-4.914-3.01,0-1.446.289-7.708.289-9.034V863.8a121.754,121.754,0,0,0-.578-12.284c-1.012,4.937-6.215,6.142-8.238,6.142-3.614,0-4.336-2.89-4.625-4.336-.289-.964-1.012-5.058-1.3-5.9-2.023.843-2.746,1.084-4.481,1.807v10l1.157-1.2c5.2,2.528,17.054,10.236,17.054,19.992,0,4.938-4.336,7.708-8.093,7.708s-3.9-1.566-4.625-6.263c-1.735-11.8-2.6-14.212-5.493-18.307v28.3c0,1.687.29,8.672.29,10.117,0,2.168-.145,3.493-4.192,4.818a25.572,25.572,0,0,1-7.949,1.2c-4.914,0-6.07-.723-6.07-3.613,0-1.927.433-10.6.433-12.4V869.58H455.4a79.758,79.758,0,0,1-19.512,31.193l-2.6-1.084a124.059,124.059,0,0,0,8.383-37.456c-1.446,0-2.024-.481-2.747-2.649L433.282,842.6c8.816.361,13.3.361,18.211.361,2.168-2.409,3.468-4.216,7.371-9.876a9.328,9.328,0,0,1-6.649,2.529c-3.757,0-4.191-.844-7.515-8.913-3.614-8.431-6.071-11.441-9.106-15.175l1.59-2.048a60.348,60.348,0,0,1,12.574,3.975c4.481-12.887,5.2-18.185,5.492-22.521l21.1,6.5c3.758,1.205,3.758,2.167,3.758,2.89,0,2.048-2.891,2.289-6.649,2.409a104.186,104.186,0,0,1-17.343,14.091c2.89,2.048,5.925,4.216,5.925,8.913a9.184,9.184,0,0,1-.722,3.492c1.879-2.89,9.25-14.693,12.285-22.04l17.633,8.672c3.324,1.686,3.469,2.65,3.469,3.131,0,2.048-2.458,2.048-7.083,1.928-7.082,7.347-9.828,9.514-13.007,11.923,3.035,1.2,10.261,3.974,14.742,8.912.433.121,4.191.241,8.238.241Zm-86.574,23.244V855.007c-4.047,1.325-6.5,2.168-11.852,3.613a7.649,7.649,0,0,1-.867,2.529Zm4.047-22.4c2.312,0,14.019-.362,16.621-.482-.868-2.288-1.735-3.733-4.336-7.708C469.125,837.062,466.668,838.868,460.165,842.843ZM508.149,857.3h7.8l4.336-4.577a3.663,3.663,0,0,1,2.457-1.324,5.943,5.943,0,0,1,3.035,1.2l8.817,6.382c.289.242,1.734,1.326,1.734,2.41,0,.963-.434,1.685-4.77,3.974v14.452c0,.964.29,5.54.145,6.5,6.215.241,6.938-.121,6.938-3.854v-34.2H492.54a6.879,6.879,0,0,1-.145,3.01Zm8.672,6.263h-9.105v14.452h9.105Z" fill="#000000"/><path d="M666.413,849.949c3.035.843,3.324,1.566,3.324,2.168,0,1.806-3.179,2.047-5.925,1.927-.434.723-2.458,3.733-2.891,4.336h25.871l5.926-6.745a3.25,3.25,0,0,1,2.6-1.324,4.708,4.708,0,0,1,3.035,1.2l9.973,8.31a4.045,4.045,0,0,1,1.59,2.65c0,2.046-2.746,2.168-4.625,2.168H687.081l7.227,2.046c3.324.964,4.046,1.687,4.046,2.65,0,1.928-3.9,2.168-5.636,2.168a73.506,73.506,0,0,1-8.528,10.478c7.516,1.807,19.8,6.624,19.8,15.055,0,3.975-3.179,7.588-9.25,7.588-4.48,0-5.492-.6-14.6-6.865-4.336-3.011-6.793-4.336-8.528-5.42-14.453,8.912-34.4,12.525-56.078,13.85l-1.012-2.288c9.4-2.529,27.606-7.467,42.782-18.789-5.059-2.047-7.082-2.889-12-4.576-4.047,5.781-4.915,6.985-10.84,6.985-6.649,0-12.864-2.649-12.864-5.058,0-1.084.289-1.446,3.036-4.7a161.884,161.884,0,0,0,9.972-13.127c-5.347,0-6.648,0-13.875.481L618,858.019c-4.48.12-5.058-2.29-5.637-4.819-1.589-7.467-2.023-9.393-4.046-12.887V875c0,3.854.433,20.836.433,24.328,0,3.132-1.012,4.216-3.613,5.059a32.805,32.805,0,0,1-9.25,1.445c-5.781,0-5.781-1.565-5.781-5.179,0-1.084.289-16.982.289-20.233V862.354c-3.469,5.058-11.707,14.814-16.477,18.427l-2.457-1.325c11.563-22.04,16.043-42.635,18.211-53.353h-2.6c-3.179,0-5.058,0-11.851.481l-2.457-7.227c4.191.242,8.672.483,14.6.483h3.036V806.712a132.734,132.734,0,0,0-.578-14.453l18.933,1.806c2.313.242,4.914.483,4.914,2.289,0,1.927-2.89,2.529-5.347,3.011V819.84h1.156l3.758-5.059c.722-.964,1.3-1.686,2.6-1.686s2.024.722,3.613,2.288c2.891.121,8.528.361,15.321.361h18.066v-9.032c0-7.347,0-9.635-.578-14.332l20.523,1.685c1.3.122,4.481.362,4.481,2.048s-1.879,2.168-5.2,3.252v16.379h2.023c1.012-1.445,8.239-13.971,9.828-21.679l18.211,5.9c1.446.482,3.18,1.325,3.18,2.65,0,1.686-2.6,1.807-6.938,1.807A122.843,122.843,0,0,1,680,815.744h11.418l4.191-4.937a3.343,3.343,0,0,1,2.891-1.687,4.184,4.184,0,0,1,2.891,1.325l7.66,6.744a3.823,3.823,0,0,1,1.59,2.651c0,2.167-3.18,2.167-4.336,2.167H674.651c5.782,3.012,18.211,7.708,35.844,9.394v2.288c-6.937,2.53-10.406,10.118-11.273,13.49-17.055-5.66-24.86-16.38-27.028-19.631,0,2.288.289,13.368.289,13.729,0,2.53,0,6.263-14.164,6.383Zm-58.1-16.38c3.9,1.084,10.261,3.614,14.164,8.551,14.019-10.839,19.078-17.584,20.812-20.113h-8.816c-3.035,0-5.2.121-8.094.241a2.349,2.349,0,0,1,.578,1.565c0,2.168-2.457,2.29-4.047,2.29h-14.6Zm44.8,12.767a7.019,7.019,0,0,1-.578-3.493c0-1.566.145-9.154.289-10.839a104.854,104.854,0,0,1-28.183,13.971,8.287,8.287,0,0,1,.867,3.974c0,5.9-4.914,7.587-6.793,7.948,7.8.362,9.828.483,14.886.483h5.348c5.2-8.069,6.07-10,7.66-13.851Zm-28.039-51.909c3.9.6,22.836,4.094,22.836,13.128,0,4.938-5.059,7.828-9.973,7.828-4.769,0-5.636-1.806-8.093-7.587-2.6-5.9-3.469-7.468-6.793-11.442Zm31.508,70.216-8.961,12.645c5.348.361,8.527.6,16.91,1.566a43.087,43.087,0,0,0,9.828-14.211Z" fill="#000000"/></g></g></svg>
