<svg xmlns="http://www.w3.org/2000/svg" width="1000" height="988" viewBox="0 0 1000 988"><g id="Artboard"><rect id="Tint" width="1000" height="988" fill="#58595b"/></g><g id="Outline"><g id="ZUN_s_Music_Collection_vol.3" data-name="ZUN’s Music Collection vol.3"><path d="M508.933,760.126a2,2,0,0,1-.895-.211l-.162-.081a2,2,0,0,1-.974-1.075l-.034-.09a8.015,8.015,0,0,0-1.494-.126h-6.386a2.407,2.407,0,0,1-1.953-.881,2.293,2.293,0,0,1-.421-1.956,1.994,1.994,0,0,1,.321-.712l7.282-10.19a4.616,4.616,0,0,0-2.434,1.281c-.031.031-.063.061-.1.091a3.583,3.583,0,0,0-.453.55,2.977,2.977,0,0,1-1.679,1.326,1.973,1.973,0,0,1-.484.059,2.212,2.212,0,0,1-1.793-.921,2.311,2.311,0,0,1-.307-2.078c.015-.044.031-.088.049-.131l1.806-4.363a1.994,1.994,0,0,1,.534-.743l.163-.142a1.978,1.978,0,0,1,.41-.276,2.354,2.354,0,0,1,.981-.235,2.267,2.267,0,0,1,1.6.689,2.09,2.09,0,0,1,.21.25c.221.027.415.048.569.06.191.013.407.014.637.014h6.623a2.439,2.439,0,0,1,2.466,2.407,1.991,1.991,0,0,1-.373,1.163l-7.337,10.271a3.786,3.786,0,0,0,3.333-1.618c.126-.154.242-.29.345-.4a4.141,4.141,0,0,0,.226-.349,2.654,2.654,0,0,1,2.233-1.549,2.211,2.211,0,0,1,2.223,2.346,2.005,2.005,0,0,1-.187.844l-2.577,5.54a2.006,2.006,0,0,1-.4.571,2.376,2.376,0,0,1-1.086.6A1.988,1.988,0,0,1,508.933,760.126Z" fill="#fff"/><path d="M500.913,741.221a.276.276,0,0,1,.186.1,1.345,1.345,0,0,0,.994.772c.427.06.792.1,1.055.121.285.02.61.02.955.02h6.453a.434.434,0,0,1,.466.407l-9.6,13.434h3.866a6.061,6.061,0,0,0,5.2-2.7c.406-.487.69-1.218.954-1.218.183,0,.223.122.223.346l-2.577,5.54a.406.406,0,0,1-.162.081l-.162-.081-.164-.427c-.162-.324-.243-1.034-3.206-1.075h-6.413c-.324,0-.487-.122-.426-.386l9.6-13.434H505.1a6.68,6.68,0,0,0-4.728,1.948c-.65.568-.974,1.359-1.3,1.44a.257.257,0,0,1-.2-.365l1.806-4.363.162-.142a.174.174,0,0,1,.078-.02m0-4a4.184,4.184,0,0,0-1.885.452,3.976,3.976,0,0,0-.819.552l-.163.141a4,4,0,0,0-1.069,1.487l-1.806,4.363c-.036.086-.069.174-.1.262a4.319,4.319,0,0,0,.581,3.882,4.225,4.225,0,0,0,2.4,1.626l-2.747,3.846a3.984,3.984,0,0,0-.642,1.423,4.282,4.282,0,0,0,.8,3.652,4.388,4.388,0,0,0,3.519,1.636h6.384l.28.007a4,4,0,0,0,1.33,1.073l.162.081a4,4,0,0,0,2.77.3,4.343,4.343,0,0,0,2.009-1.131,3.979,3.979,0,0,0,.8-1.141l2.578-5.54a4.01,4.01,0,0,0,.373-1.687,4.194,4.194,0,0,0-3.7-4.315l2.3-3.223a4,4,0,0,0,.745-2.325,4.442,4.442,0,0,0-4.466-4.407H504.1c-.161,0-.325,0-.46,0a4.215,4.215,0,0,0-2.73-1.012Z" fill="#fff"/><path d="M519.793,758.888c-7.053,0-7.6-4.654-7.6-6.079v-6.9a10.207,10.207,0,0,0-.043-1.11,2.427,2.427,0,0,1-2.487-1.851,1.99,1.99,0,0,1-.047-.428,2.271,2.271,0,0,1,.667-1.618,2.006,2.006,0,0,1,.67-.442l.2-.081a2,2,0,0,1,.744-.144h7.226a2.387,2.387,0,0,1,1.518.531,1.97,1.97,0,0,1,.578-.328l.222-.082a2.005,2.005,0,0,1,.685-.121h5.094a2.328,2.328,0,0,1,2.295,1.76,1.988,1.988,0,0,1,.055.764,2.279,2.279,0,0,1-2.139,1.986,2.188,2.188,0,0,0-.129.29,4.375,4.375,0,0,0-.152,1.117V752.2a6.6,6.6,0,0,1-1.621,4.823,6.026,6.026,0,0,1-2.486,1.408,11.482,11.482,0,0,1-1.733.359A10.042,10.042,0,0,1,519.793,758.888Zm-.937-4.811a3.109,3.109,0,0,0,1.526.242c1.889,0,2.222-.618,2.222-1.916v-6.251a2.916,2.916,0,0,0-.221-1.352l-.029-.019a2.71,2.71,0,0,1-1.714-.581,3.163,3.163,0,0,1-2.043.6,6.46,6.46,0,0,0-.031.719v7.752a1.033,1.033,0,0,0,.291.8Z" fill="#fff"/><path d="M527.221,742.235a.332.332,0,0,1,.365.285c-.02.162-.2.244-.507.244a1.709,1.709,0,0,0-1.015.486,3.211,3.211,0,0,0-.669,1.178,6.4,6.4,0,0,0-.244,1.724V752.2a4.518,4.518,0,0,1-1.035,3.409,3.924,3.924,0,0,1-1.6.893,9.3,9.3,0,0,1-1.461.305,8.148,8.148,0,0,1-1.259.081c-3.714,0-5.6-1.482-5.6-4.079v-6.9c0-1.765-.163-2.294-.73-2.761a1.659,1.659,0,0,0-1.1-.344c-.467,0-.71-.1-.75-.284a.263.263,0,0,1,.081-.2l.2-.081h7.226a.307.307,0,0,1,.345.285c-.061.182-.365.284-.873.284a2.356,2.356,0,0,0-1.38.385,3.014,3.014,0,0,0-.65,2.334v7.752a3.036,3.036,0,0,0,.853,2.193,4.14,4.14,0,0,0,2.963.851c2.942,0,4.222-1.461,4.222-3.916v-6.251a4.019,4.019,0,0,0-.792-2.78,2.164,2.164,0,0,0-1.34-.589c-.385,0-.609-.081-.65-.263a.264.264,0,0,1,.082-.2l.223-.081h5.094m0-4h-5.094a3.987,3.987,0,0,0-1.368.242l-.1.035a4.374,4.374,0,0,0-1.537-.277H511.9a3.992,3.992,0,0,0-1.488.288l-.2.081a4,4,0,0,0-1.34.884,4.257,4.257,0,0,0-1.253,3.032,3.973,3.973,0,0,0,.093.856,4.3,4.3,0,0,0,2.484,3v6.43c0,3.727,2.515,8.079,9.6,8.079a12.279,12.279,0,0,0,1.778-.114,13.511,13.511,0,0,0,2.009-.417,7.971,7.971,0,0,0,3.232-1.792l.133-.127a8.444,8.444,0,0,0,2.206-6.238v-5.872a4.253,4.253,0,0,0,2.406-3.33,4,4,0,0,0-.111-1.528,4.336,4.336,0,0,0-4.225-3.235Zm-6.655,8.256.038-.013v5.836l-.038,0v-5.825Z" fill="#fff"/><path d="M540.233,758.949a1.993,1.993,0,0,1-.4-.04,2.378,2.378,0,0,1-1.309-.759l-.131-.132a2.076,2.076,0,0,1-.247-.3L533.1,750.2v2.423a4.938,4.938,0,0,0,.175,1.316.284.284,0,0,0,.035.072l.037.023a2.371,2.371,0,0,1,2.52,2.06,2,2,0,0,1-.159,1.034,2.278,2.278,0,0,1-2.153,1.412h-5.3a2.231,2.231,0,0,1-2.426-2.224,1.853,1.853,0,0,1,.013-.223,2.369,2.369,0,0,1,2.42-2.057,2.6,2.6,0,0,0,.106-.33,4.253,4.253,0,0,0,.16-.8v-8.128a2.523,2.523,0,0,1-2.63-1.736,2,2,0,0,1-.069-.522,2.275,2.275,0,0,1,.655-1.607,2.006,2.006,0,0,1,.744-.476l.224-.082a1.983,1.983,0,0,1,.682-.12h4.809a2.023,2.023,0,0,1,.439.049,2.462,2.462,0,0,1,1.8,1.557l.1.3.535.8a2.025,2.025,0,0,1-.044-.418,2.2,2.2,0,0,1,.959-1.859,1.928,1.928,0,0,1,.441-.224l.223-.082a1.988,1.988,0,0,1,.682-.12h5.378a2.385,2.385,0,0,1,1.678.688,2.028,2.028,0,0,1,.414.6l.081.183a2.009,2.009,0,0,1,.159,1.035,2.338,2.338,0,0,1-2.426,2.036,4.518,4.518,0,0,0-.281,1.556v6.732a2.229,2.229,0,0,1,1.441,2.117,2.334,2.334,0,0,1-1.323,2,4.515,4.515,0,0,0-.924.687c-.025.025-.365.324-.365.324a2.656,2.656,0,0,1-1.2.694A2,2,0,0,1,540.233,758.949ZM538.538,747v-1.087c0-.047,0-.094,0-.14a1.606,1.606,0,0,0-.272-.989,2.782,2.782,0,0,1-1.529-.468Z" fill="#fff"/><path d="M543.461,742.235a.387.387,0,0,1,.264.1l.081.183c-.021.182-.244.263-.629.263a1.762,1.762,0,0,0-1.259.569,5.029,5.029,0,0,0-.832,2.983v7.874a2.443,2.443,0,0,0,1.076.69c.243,0,.365.1.365.285s-.73.365-1.644,1.257l-.324.285a.768.768,0,0,1-.326.223.361.361,0,0,1-.222-.142l-.2-.2L531.1,743.636v8.99a6.823,6.823,0,0,0,.222,1.745,2.5,2.5,0,0,0,.569,1.076,2.157,2.157,0,0,0,1.339.588c.426,0,.629.1.65.284a.3.3,0,0,1-.325.224h-5.3c-.324,0-.426-.041-.426-.224.02-.182.224-.284.609-.284a.877.877,0,0,0,.1.006,1.928,1.928,0,0,0,1.155-.533,3.228,3.228,0,0,0,.609-1.3,5.746,5.746,0,0,0,.223-1.3v-9.457a2.012,2.012,0,0,0-1.481-.67h-.183c-.73,0-.974-.04-1.035-.263a.263.263,0,0,1,.081-.2l.224-.081h4.809a.471.471,0,0,1,.365.3l.163.487,7.062,10.553v-7.671c.1-1.441-.771-3.126-2.11-3.126-.386,0-.61-.081-.65-.263a.217.217,0,0,1,.081-.2l.224-.081h5.378m0-4h-5.378a3.985,3.985,0,0,0-1.363.24l-.224.081a3.948,3.948,0,0,0-.88.449c-.04.027-.079.054-.117.082a4.53,4.53,0,0,0-1.674-.754,3.983,3.983,0,0,0-.877-.1h-4.809a3.985,3.985,0,0,0-1.363.24l-.224.081a4,4,0,0,0-1.488.955,4.264,4.264,0,0,0-1.23,3.009,4.01,4.01,0,0,0,.139,1.045,4.086,4.086,0,0,0,2.56,2.834v5.983a4.283,4.283,0,0,0-2.674,3.491,3.909,3.909,0,0,0-.025.446,4.233,4.233,0,0,0,4.426,4.224h5.3a4.242,4.242,0,0,0,3.184-1.372c.075.091.155.178.238.261l.1.1a4.4,4.4,0,0,0,2.356,1.338,4.025,4.025,0,0,0,1.77-.039,4.645,4.645,0,0,0,2.058-1.155l.257-.226c.054-.047.107-.1.158-.146a2.623,2.623,0,0,1,.551-.4,4.213,4.213,0,0,0,.858-6.926v-5.535a4.261,4.261,0,0,0,2.695-3.476,4,4,0,0,0-.319-2.069l-.081-.183a4.015,4.015,0,0,0-.828-1.206,4.4,4.4,0,0,0-3.092-1.273Z" fill="#fff"/><path d="M545.981,749.938a1.946,1.946,0,0,1-.395-.04l-.2-.041a2,2,0,0,1-1.019-.545,2.187,2.187,0,0,1-.667-1.577c0-.045,0-.089,0-.134a3.172,3.172,0,0,1,.608-1.624,3.126,3.126,0,0,1-1.5-2.808,3.414,3.414,0,0,1,3.134-3.349,2.01,2.01,0,0,1,.205-.01,3.321,3.321,0,0,1,2.928,1.519,6.032,6.032,0,0,1,.72,1.535,4.957,4.957,0,0,1,.2,1.442,6.389,6.389,0,0,1-1.243,3.748,3.513,3.513,0,0,1-2.434,1.857A1.932,1.932,0,0,1,545.981,749.938Z" fill="#fff"/><path d="M546.144,741.81a1.35,1.35,0,0,1,1.238.587,4.12,4.12,0,0,1,.487,1.016,3.067,3.067,0,0,1,.121.893,4.485,4.485,0,0,1-.933,2.678,1.715,1.715,0,0,1-1.076.954l-.2-.041a.21.21,0,0,1-.081-.162c.021-.3.2-.608.751-1.238a2.755,2.755,0,0,0,.528-1.6l-.04-.366a.271.271,0,0,0-.164-.223l-.384.06-.386.041a1.1,1.1,0,0,1-1.2-1.238,1.438,1.438,0,0,1,1.339-1.359m0-4c-.137,0-.273.007-.408.02a5.41,5.41,0,0,0-4.931,5.339,5.31,5.31,0,0,0,1.08,3.274,4.88,4.88,0,0,0-.179,1.024c-.006.089-.009.179-.009.268a4.209,4.209,0,0,0,1.253,2.991,4,4,0,0,0,2.037,1.092l.2.041a4.021,4.021,0,0,0,1.456.024,5.484,5.484,0,0,0,3.824-2.812,8.38,8.38,0,0,0,1.52-4.765,7.049,7.049,0,0,0-.286-2.03,8.063,8.063,0,0,0-.938-2.012,5.328,5.328,0,0,0-4.622-2.454Z" fill="#fff"/><path d="M551.321,759.233a2.009,2.009,0,0,1-.9-.213l-.122-.062a2,2,0,0,1-.762-.674l-.081-.121a1.987,1.987,0,0,1-.241-.5l-1.259-3.9a2.007,2.007,0,0,1,.073-1.423s.114-.254.131-.288a2.14,2.14,0,0,1,.153-.252,4.808,4.808,0,0,1-.291-1.717c0-2.864,2.386-4.944,5.673-4.944a7.325,7.325,0,0,1,1.379.118,2.25,2.25,0,0,1,.615-.341,2.005,2.005,0,0,1,.685-.121,2.275,2.275,0,0,1,1.806.925,2.02,2.02,0,0,1,.292.555,3.312,3.312,0,0,1,.117.428l.9,2.585a2.259,2.259,0,0,1,.087,1.509,4.395,4.395,0,0,1,.93,2.878,4.45,4.45,0,0,1-1.535,3.531,6.756,6.756,0,0,1-2.143,1.3,6.407,6.407,0,0,1-2.2.353,8.864,8.864,0,0,1-1.825-.195,2.5,2.5,0,0,1-.992.5A2,2,0,0,1,551.321,759.233Z" fill="#fff"/><path d="M556.374,746.8a.276.276,0,0,1,.2.122.9.9,0,0,1,.061.264l1,2.861a.239.239,0,0,1,.019.2c-.019.06-.06.081-.162.081-.324,0-.386-.649-1.116-1.461a3.161,3.161,0,0,0-2.517-1.259c-1.3,0-2.029.67-2.029,1.563a1.241,1.241,0,0,0,.994,1.319,15.645,15.645,0,0,0,2.334.427,5.926,5.926,0,0,1,2.334.71,2.135,2.135,0,0,1,1.015,2.05,2.5,2.5,0,0,1-.832,2.008,4.818,4.818,0,0,1-1.5.934,4.477,4.477,0,0,1-1.542.243,6.946,6.946,0,0,1-1.461-.162,5.455,5.455,0,0,0-.832-.1.8.8,0,0,0-.649.3.53.53,0,0,1-.366.325l-.122-.061-.081-.121-1.259-3.9.081-.183a.259.259,0,0,1,.184-.1q.243.03.426.669a3.05,3.05,0,0,0,.751,1.259,9.4,9.4,0,0,0,.872.832,3.585,3.585,0,0,0,2.354.811c1.38,0,2.192-.791,2.192-1.846a1.406,1.406,0,0,0-.121-.67c-.081-.3-.467-.853-1.827-1.035l-2.111-.325a4.65,4.65,0,0,1-1.888-.71,1.976,1.976,0,0,1-.75-1.765c0-1.705,1.461-2.944,3.673-2.944a5.064,5.064,0,0,1,1.1.1l.751.1c.487,0,.609-.467.832-.548m0-4a3.986,3.986,0,0,0-1.368.241c-.123.045-.24.094-.351.146-.3-.028-.626-.043-.96-.043-4.374,0-7.673,2.985-7.673,6.944a7.275,7.275,0,0,0,.152,1.508,4,4,0,0,0-.121,2.786l1.259,3.9a4,4,0,0,0,.482,1l.081.121a3.991,3.991,0,0,0,1.524,1.347l.122.061a4,4,0,0,0,2.782.306,4.507,4.507,0,0,0,.918-.341,9.96,9.96,0,0,0,1.408.1,8.494,8.494,0,0,0,2.881-.474,8.726,8.726,0,0,0,2.757-1.658,6.5,6.5,0,0,0,2.238-5.053,6.711,6.711,0,0,0-.841-3.353,4.285,4.285,0,0,0-.3-1.734l-.844-2.428c-.048-.206-.1-.382-.152-.526a3.991,3.991,0,0,0-.584-1.111,4.286,4.286,0,0,0-3.408-1.728Z" fill="#fff"/><path d="M573.993,758.543a2.206,2.206,0,0,1-2.41-1.981,2.109,2.109,0,0,1-1.02.276,2.018,2.018,0,0,1-.547-.076l-.018,0a1.887,1.887,0,0,1-.053.192,2.263,2.263,0,0,1-2.243,1.594h-5.257A2.237,2.237,0,0,1,560,756.319a1.853,1.853,0,0,1,.013-.223,2.385,2.385,0,0,1,2.464-2.058,4.664,4.664,0,0,0,.222-1.7v-6.961a6.073,6.073,0,0,0-.023-.607,2.41,2.41,0,0,1-2.363-1.836,1.976,1.976,0,0,1-.049-.439,2.247,2.247,0,0,1,.668-1.6,2,2,0,0,1,.9-.518l.3-.081a2,2,0,0,1,.515-.068h4.161a2.587,2.587,0,0,1,.969.185l.116.043a2,2,0,0,1,1.114,1.031l2.566,5.52,2.766-5.459a2.006,2.006,0,0,1,.37-.51,2.526,2.526,0,0,1,1.209-.692l.33-.073a2.067,2.067,0,0,1,.423-.045h4.282a2.328,2.328,0,0,1,2.334,1.752,2,2,0,0,1,.024.971,2.47,2.47,0,0,1-2.61,1.843,11.555,11.555,0,0,0-.082,1.656v5.885a12.251,12.251,0,0,0,.082,1.675c2.621.056,2.7,2.052,2.7,2.283a2.2,2.2,0,0,1-1.245,2,1.966,1.966,0,0,1-.544.175l-.243.041a2.069,2.069,0,0,1-.333.028Zm-6.453-4.5c.126,0,.247.016.362.032l-.622-1.346A3.567,3.567,0,0,0,567.54,754.038Z" fill="#fff"/><path d="M580.954,742.235c.243,0,.345.062.406.285-.041.182-.325.284-.832.284a1.59,1.59,0,0,0-1.725,1.258,11.358,11.358,0,0,0-.183,2.395v5.885c0,1.279.061,2.618.548,3.186a2.317,2.317,0,0,0,1.421.488c.548,0,.811.1.811.284a.2.2,0,0,1-.122.2l-.243.041h-7.042c-.406,0-.426-.061-.426-.243.04-.183.3-.265.791-.265a2.237,2.237,0,0,0,1.36-.486,2.412,2.412,0,0,0,.447-1l.081-.893v-10.39l-4.444,8.706c.486.3,1.034.345,1.054.588a2.05,2.05,0,0,1-.751.569,3.083,3.083,0,0,0-1.075,1.035c-.263.426-.406.629-.426.649s-.02.02-.041.02c-.06-.02-.1-.02-.122-.04l-5.174-11.2v8.625c0,2.434.73,3.814,2.13,3.814.386,0,.61.1.65.284-.061.183-.122.224-.345.224h-5.257c-.324,0-.446-.061-.446-.224.021-.182.224-.284.629-.284a1.96,1.96,0,0,0,1.238-.507,4.653,4.653,0,0,0,.832-3.186v-6.961c0-1.237-.162-1.785-.73-2.252a1.55,1.55,0,0,0-1.035-.346c-.406,0-.629-.1-.67-.284a.247.247,0,0,1,.082-.183l.3-.081h4.161a.549.549,0,0,1,.223.041l.162.061,4.3,9.254,4.627-9.132a.535.535,0,0,1,.264-.162l.284-.062h4.282m0-4h-4.282a4.023,4.023,0,0,0-.847.091l-.284.061-.091.021a4.506,4.506,0,0,0-2.154,1.223,4,4,0,0,0-.74,1.02l-.9,1.785-.831-1.786a4,4,0,0,0-2.227-2.06l-.1-.036a4.572,4.572,0,0,0-1.688-.319h-4.161a3.987,3.987,0,0,0-1.031.136l-.3.081a4.007,4.007,0,0,0-1.8,1.036,4.234,4.234,0,0,0-1.253,3.011,3.982,3.982,0,0,0,.1.877,4.334,4.334,0,0,0,2.338,2.918v6.093a4.283,4.283,0,0,0-2.674,3.486,3.909,3.909,0,0,0-.025.446,4.243,4.243,0,0,0,4.446,4.224H567.7a4.3,4.3,0,0,0,3.086-1.23,4.4,4.4,0,0,0,3.205,1.23h7.042a4.018,4.018,0,0,0,.666-.056l.243-.041a4.016,4.016,0,0,0,1.089-.349,4.2,4.2,0,0,0,2.367-3.8,4.261,4.261,0,0,0-2.78-3.942V746.43a4.3,4.3,0,0,0,2.643-3.034,4,4,0,0,0-.047-1.942,4.314,4.314,0,0,0-4.262-3.219Z" fill="#fff"/><path d="M585.545,758.867A3.922,3.922,0,0,1,581.6,754.8v-3.857a1.963,1.963,0,0,1-.422-.092,2.2,2.2,0,0,1-1.546-2.1c0-.058,0-.116.008-.174.044-.51.4-2.171,3.047-2.171a6.451,6.451,0,0,0,1.677-.872,2,2,0,0,1,1.063-.305,1.972,1.972,0,0,1,.438.048l.183.041a2,2,0,0,1,1.01.573c.048.049.122.138.171.2a2,2,0,0,1,.295.481,4.852,4.852,0,0,1,1.333-.167c.015,0,.4-.016,1.521-.808a1.99,1.99,0,0,1,1.157-.369,1.938,1.938,0,0,1,.363.033l.222.041a2,2,0,0,1,1.231.758l.061.081a1.991,1.991,0,0,1,.407,1.209v6.782a2.485,2.485,0,0,1,1.767,1.547,2,2,0,0,1,.064,1.15A2.283,2.283,0,0,1,595,757.95a1.987,1.987,0,0,1-.983.512l-.2.041a2,2,0,0,1-.395.04h-3.328a2.357,2.357,0,0,1-1.537-.537l-.125.062A6.644,6.644,0,0,1,585.545,758.867Zm2.143-5.387.038-.02v-2.513l-.038,0Z" fill="#fff"/><path d="M591.532,747.228l.223.041.061.081V754.7c.081.791.386,1.2.934,1.258s.872.183.953.406a.27.27,0,0,1-.081.142l-.2.041h-3.328c-.243,0-.365-.122-.365-.426v-.954a9.228,9.228,0,0,0-1.1.568l-1.1.548a4.657,4.657,0,0,1-1.989.588A1.92,1.92,0,0,1,583.6,754.8V750.09c0-.325-.02-.427-.345-.813-.142-.2-.487-.3-.994-.3l-.446-.021c-.123-.041-.183-.1-.183-.2.019-.224.385-.345,1.055-.345a6.1,6.1,0,0,0,2.74-1.177l.182.041c.02.02.061.081.082.1v7.2a1.565,1.565,0,0,0,.284.913,1.276,1.276,0,0,0,.994.346,2.686,2.686,0,0,0,1.3-.386c.466-.263.791-.426.954-.527a4.617,4.617,0,0,0,.507-.346v-4.5a1,1,0,0,0-.3-.811c-.143-.184-.508-.284-1.056-.284l-.487-.021a.2.2,0,0,1-.122-.2c.02-.224.386-.345,1.1-.345a5.034,5.034,0,0,0,2.678-1.177m0-4a4,4,0,0,0-2.314.737,6.234,6.234,0,0,1-.706.447l-.1,0a3.989,3.989,0,0,0-1.928-1.051l-.183-.041a4,4,0,0,0-3,.514,10.044,10.044,0,0,1-1.012.576c-4.187.2-4.607,3.59-4.642,3.987q-.015.174-.015.348A4.144,4.144,0,0,0,579.6,752.3v2.5a5.945,5.945,0,0,0,5.948,6.069,7.68,7.68,0,0,0,2.92-.63,4.4,4.4,0,0,0,1.626.306h3.328a4.052,4.052,0,0,0,.792-.079l.2-.041a4,4,0,0,0,1.967-1.024,4.285,4.285,0,0,0,1.211-2.1,4,4,0,0,0-.128-2.3,4.335,4.335,0,0,0-1.648-2.116V747.35a4,4,0,0,0-.813-2.419l-.062-.081a4,4,0,0,0-2.462-1.515l-.222-.041a3.942,3.942,0,0,0-.725-.066Z" fill="#fff"/><path d="M595.736,759.233a2.009,2.009,0,0,1-.9-.213l-.122-.062a2,2,0,0,1-.762-.674l-.081-.121a2.022,2.022,0,0,1-.241-.5l-1.259-3.9a2.007,2.007,0,0,1,.073-1.423s.114-.254.131-.288a2.02,2.02,0,0,1,.154-.252,4.786,4.786,0,0,1-.291-1.717c0-2.864,2.385-4.944,5.672-4.944a7.325,7.325,0,0,1,1.379.118,2.25,2.25,0,0,1,.615-.341,2.005,2.005,0,0,1,.685-.121,2.275,2.275,0,0,1,1.806.925,2,2,0,0,1,.3.569,3.393,3.393,0,0,1,.113.413l.9,2.586a2.259,2.259,0,0,1,.087,1.509,4.395,4.395,0,0,1,.93,2.878,4.45,4.45,0,0,1-1.535,3.531,6.756,6.756,0,0,1-2.143,1.3,6.407,6.407,0,0,1-2.2.353,8.87,8.87,0,0,1-1.825-.195,2.5,2.5,0,0,1-.992.5A2,2,0,0,1,595.736,759.233Z" fill="#fff"/><path d="M600.789,746.8a.276.276,0,0,1,.2.122.933.933,0,0,1,.061.264l1,2.861a.239.239,0,0,1,.019.2c-.019.06-.06.081-.162.081-.324,0-.385-.649-1.116-1.461a3.161,3.161,0,0,0-2.517-1.259c-1.3,0-2.029.67-2.029,1.563a1.241,1.241,0,0,0,.994,1.319,15.645,15.645,0,0,0,2.334.427,5.926,5.926,0,0,1,2.334.71,2.135,2.135,0,0,1,1.015,2.05,2.5,2.5,0,0,1-.832,2.008,4.818,4.818,0,0,1-1.5.934,4.477,4.477,0,0,1-1.542.243,6.946,6.946,0,0,1-1.461-.162,5.455,5.455,0,0,0-.832-.1.8.8,0,0,0-.649.3.528.528,0,0,1-.366.325l-.122-.061-.081-.121-1.259-3.9.081-.183a.261.261,0,0,1,.183-.1q.245.03.427.669a3.05,3.05,0,0,0,.751,1.259,9.4,9.4,0,0,0,.872.832,3.585,3.585,0,0,0,2.354.811c1.38,0,2.192-.791,2.192-1.846a1.406,1.406,0,0,0-.121-.67c-.081-.3-.467-.853-1.827-1.035l-2.111-.325a4.64,4.64,0,0,1-1.887-.71,1.973,1.973,0,0,1-.75-1.765c0-1.705,1.46-2.944,3.672-2.944a5.064,5.064,0,0,1,1.1.1l.751.1c.487,0,.609-.467.832-.548m0-4a3.986,3.986,0,0,0-1.368.241c-.123.045-.24.094-.351.146-.305-.028-.626-.043-.96-.043-4.374,0-7.672,2.985-7.672,6.944a7.278,7.278,0,0,0,.151,1.508,4,4,0,0,0-.121,2.786l1.259,3.9a4,4,0,0,0,.482,1l.081.121a4,4,0,0,0,1.524,1.347l.122.061a4,4,0,0,0,2.782.306,4.507,4.507,0,0,0,.918-.341,9.96,9.96,0,0,0,1.408.1,8.5,8.5,0,0,0,2.882-.474,8.733,8.733,0,0,0,2.756-1.658,6.5,6.5,0,0,0,2.238-5.053,6.711,6.711,0,0,0-.841-3.353,4.285,4.285,0,0,0-.3-1.734l-.846-2.435c-.045-.191-.1-.356-.141-.492a3.985,3.985,0,0,0-.593-1.138,4.286,4.286,0,0,0-3.408-1.728Z" fill="#fff"/><path d="M603.856,758.543a2.21,2.21,0,0,1-1.65-.662,1.976,1.976,0,0,1-.386-.582l-.061-.142a2,2,0,0,1,.006-1.608,2.592,2.592,0,0,1,1.715-1.4v-3.2a1.976,1.976,0,0,1-.77-.211,2.248,2.248,0,0,1-1.219-2.028,1.912,1.912,0,0,1,.016-.251,2.357,2.357,0,0,1,1.99-1.958,3.4,3.4,0,0,1-.22-1.221,3.279,3.279,0,1,1,6.557.021,3.24,3.24,0,0,1-.35,1.469,1.984,1.984,0,0,1,.086.581v6.782a2.4,2.4,0,0,1,1.745,1.557,1.988,1.988,0,0,1,.1.63,2.173,2.173,0,0,1-.99,1.859,2.02,2.02,0,0,1-.783.3l-.264.041a2.118,2.118,0,0,1-.308.023Z" fill="#fff"/><path d="M606.556,744a1.3,1.3,0,0,1,1.278,1.3,1.251,1.251,0,0,1-1.258,1.259,1.231,1.231,0,0,1-1.3-1.28A1.342,1.342,0,0,1,606.556,744m.751,3.227.182.041.081.081v7.367c.081.751.386,1.177.934,1.237s.852.183.913.365a.2.2,0,0,1-.081.183l-.264.041h-5.216a.374.374,0,0,1-.2-.041l-.061-.142c.081-.182.386-.325.933-.406.548-.06.873-.446.954-1.156v-4.567c0-.649-.223-1.257-1.339-1.257l-.528-.021a.247.247,0,0,1-.122-.244c.021-.162.447-.324,1.1-.324a6.259,6.259,0,0,0,2.72-1.157M606.556,740a5.35,5.35,0,0,0-5.279,5.278v.032a4.189,4.189,0,0,0-1.754,2.9,4,4,0,0,0-.032.5,4.249,4.249,0,0,0,1.989,3.629v.558a4.321,4.321,0,0,0-1.543,1.841,4,4,0,0,0-.013,3.217l.062.142a4.015,4.015,0,0,0,.771,1.164,4.223,4.223,0,0,0,3.1,1.283h5.216a3.953,3.953,0,0,0,.615-.048l.264-.041a4,4,0,0,0,1.566-.6,4.2,4.2,0,0,0,1.9-3.536,4.022,4.022,0,0,0-.2-1.259,4.25,4.25,0,0,0-1.644-2.18v-5.53c0-.12,0-.239-.016-.357a5.218,5.218,0,0,0,.28-1.693,5.3,5.3,0,0,0-5.278-5.3Z" fill="#fff"/><path d="M614.391,758.867a6.472,6.472,0,0,1-5.215-2.339,7.131,7.131,0,0,1,.252-8.788,8.483,8.483,0,0,1,2.622-2.012,6.92,6.92,0,0,1,2.848-.582c3.842,0,5.592,2.131,5.592,4.112a3.115,3.115,0,0,1-3.3,3.136,1.883,1.883,0,0,1-.26-.018,3.164,3.164,0,0,1-2.76-2.311,2.822,2.822,0,0,0-.276,1.262,3.647,3.647,0,0,0,.588,2.054.972.972,0,0,0,.963.492,1.581,1.581,0,0,0,.9-.165,4.887,4.887,0,0,1,1.81-1.313,1.986,1.986,0,0,1,.639-.105,2.164,2.164,0,0,1,2.136,2.692,3.858,3.858,0,0,1-1.761,2.231c-.323.237-.661.464-.979.668A7.739,7.739,0,0,1,614.391,758.867Z" fill="#fff"/><path d="M614.9,747.146c2.273,0,3.592.975,3.592,2.112,0,.71-.508,1.136-1.3,1.136a1.211,1.211,0,0,1-1.157-1.36,1.234,1.234,0,0,0-1.258-1.38c-1.725,0-2.881,1.542-2.881,3.673a5.649,5.649,0,0,0,.913,3.146,2.953,2.953,0,0,0,2.638,1.4,3.145,3.145,0,0,0,2.314-.751,3.751,3.751,0,0,1,1.035-.832c.162,0,.223.081.183.264-.082.325-.326.568-.975,1.035-.305.223-.608.427-.893.609a5.8,5.8,0,0,1-2.719.669,4.481,4.481,0,0,1-3.735-1.683,5.187,5.187,0,0,1,.224-6.069,6.713,6.713,0,0,1,1.988-1.562,4.963,4.963,0,0,1,2.03-.407m0-4a8.913,8.913,0,0,0-3.665.756,10.385,10.385,0,0,0-3.254,2.459,9.117,9.117,0,0,0-.329,11.461l.045.051a8.408,8.408,0,0,0,6.7,2.994,9.738,9.738,0,0,0,4.757-1.226c.042-.025.084-.051.125-.078.407-.261.766-.507,1.1-.75a5.761,5.761,0,0,0,2.486-3.281c.01-.04.02-.081.029-.122a4.221,4.221,0,0,0-.811-3.57q-.076-.095-.156-.183a5.179,5.179,0,0,0,.572-2.4c0-3.037-2.607-6.112-7.592-6.112Z" fill="#fff"/><path d="M630.041,758.949c-2.787,0-4.925-.753-6.353-2.237a11.463,11.463,0,0,1-2.508-3.573,9.713,9.713,0,0,1-.648-3.638c0-5.435,4.026-9.691,9.164-9.691a8.224,8.224,0,0,1,1.789.173l.257.047a2.451,2.451,0,0,1,1.409-.8,2,2,0,0,1,1.693.475c.475.425.774.993,1.6,3.039l.929,2.455a1.989,1.989,0,0,1,.07,1.187l-.04.162a2,2,0,0,1-1.318,1.421l-.122.04a2,2,0,0,1-.623.1c-.04,0-.08,0-.12,0a3.237,3.237,0,0,1-2.342-1.655c-.073-.1-.144-.2-.21-.281l-.1-.121c-.154-.189-.345-.424-.575-.684a4.226,4.226,0,0,0-.945-.714,2.146,2.146,0,0,0-1.168-.3c-.68,0-2.749,0-2.749,5.368a7.3,7.3,0,0,0,.8,3.727c.239.413.742.989,2.214.989a3.382,3.382,0,0,0,2.675-1.109,2.943,2.943,0,0,0,.539-.742,2.852,2.852,0,0,1,1.958-1.856,2.005,2.005,0,0,1,.429-.046,2.187,2.187,0,0,1,1.7.767,2.251,2.251,0,0,1,.523,1.06,2.013,2.013,0,0,1,.04.395,5.019,5.019,0,0,1-1.451,3.119,8.115,8.115,0,0,1-2.938,2.267A9.212,9.212,0,0,1,630.041,758.949Z" fill="#fff"/><path d="M633.512,741.2a10.532,10.532,0,0,1,1.075,2.294l.913,2.415-.04.162-.122.04c-.324-.019-.772-.77-1.116-1.2-.183-.223-.426-.527-.731-.872a6.158,6.158,0,0,0-1.4-1.1,4.142,4.142,0,0,0-2.212-.589c-3.187,0-4.749,2.679-4.749,7.368a9.188,9.188,0,0,0,1.056,4.708,4.222,4.222,0,0,0,3.957,2.008,5.369,5.369,0,0,0,4.1-1.705,5.038,5.038,0,0,0,.954-1.359c.183-.426.366-.649.548-.689.1,0,.162.019.183.081.02,0,.06.04.081.141a3.493,3.493,0,0,1-.994,1.847,6.079,6.079,0,0,1-2.193,1.705,7.253,7.253,0,0,1-2.78.487c-2.232,0-3.876-.548-4.911-1.624a9.658,9.658,0,0,1-2.09-2.922,7.763,7.763,0,0,1-.508-2.9c0-4.444,3.227-7.691,7.164-7.691a6.624,6.624,0,0,1,1.542.162,8.9,8.9,0,0,0,1.116.162c.467-.04.711-.2.751-.467a.5.5,0,0,1,.407-.467m0-4a4.007,4.007,0,0,0-.722.066,4.511,4.511,0,0,0-1.621.636,10.255,10.255,0,0,0-1.473-.092c-6.26,0-11.164,5.135-11.164,11.691a11.671,11.671,0,0,0,.789,4.375,13.327,13.327,0,0,0,2.927,4.223c1.819,1.891,4.441,2.85,7.793,2.85a11.13,11.13,0,0,0,4.3-.786l.08-.033a10.062,10.062,0,0,0,3.65-2.79l.032-.039a7.019,7.019,0,0,0,1.908-4.391,4.034,4.034,0,0,0-.079-.791,4.271,4.271,0,0,0-.97-1.979,1.577,1.577,0,0,1,.384-3.11l.04-.162a4,4,0,0,0-.141-2.373l-.914-2.415c-.01-.027-.02-.054-.031-.08-.844-2.1-1.272-3.025-2.121-3.783a4,4,0,0,0-2.664-1.017Zm-3.785,9.166a1.225,1.225,0,0,1,.152-.009.6.6,0,0,1,.15.013,3.3,3.3,0,0,1,.5.353c.179.205.353.419.493.591l.112.137c.029.036.079.108.132.181a6.522,6.522,0,0,0,1.959,1.908,5.34,5.34,0,0,0-1.666,2.182,3.073,3.073,0,0,1-.21.255,1.408,1.408,0,0,1-1.229.464,1.891,1.891,0,0,1-.49-.054,5.316,5.316,0,0,1-.5-2.662c0-2.35.47-3.178.6-3.359Z" fill="#fff"/><path d="M641.978,758.867a7.211,7.211,0,0,1-5.554-2.33,6.116,6.116,0,0,1-1.661-4.519,5.911,5.911,0,0,1,1.8-4.639,9.042,9.042,0,0,1,2.71-1.744,7.33,7.33,0,0,1,2.68-.489,6.9,6.9,0,0,1,4.66,1.486,6.646,6.646,0,0,1,2.637,5.507,6.042,6.042,0,0,1-1.524,4.152,7.417,7.417,0,0,1-2.708,2.045A8.1,8.1,0,0,1,641.978,758.867Zm0-9.213c-.814,0-.9,1.653-.9,2.364,0,2.383.653,2.383,1,2.383s.361-.046.436-.2a5.1,5.1,0,0,0,.425-2.227C642.94,749.654,642.314,749.654,641.978,749.654Z" fill="#fff"/><path d="M641.958,747.146a4.964,4.964,0,0,1,3.349,1,5.415,5.415,0,0,1,1.542,1.886,5.312,5.312,0,0,1,.406,2.111,4.077,4.077,0,0,1-1.016,2.821,5.533,5.533,0,0,1-1.968,1.522,6.1,6.1,0,0,1-2.293.385,5.247,5.247,0,0,1-4.161-1.764,4.189,4.189,0,0,1-1.054-3.085,4.021,4.021,0,0,1,1.135-3.146,7.159,7.159,0,0,1,2.071-1.36,5.418,5.418,0,0,1,1.989-.366m.121,9.255a2.274,2.274,0,0,0,2.233-1.319,7.013,7.013,0,0,0,.628-3.105c0-3.146-1.156-4.323-2.962-4.323-1.786,0-2.9,1.461-2.9,4.364,0,2.678.832,4.383,3,4.383m-.121-13.255a9.485,9.485,0,0,0-3.4.623,10.8,10.8,0,0,0-3.28,2.083l-.038.033a7.838,7.838,0,0,0-2.475,6.133,8.055,8.055,0,0,0,2.224,5.911l.044.043a9.229,9.229,0,0,0,6.947,2.895,10.077,10.077,0,0,0,3.8-.678,9.369,9.369,0,0,0,3.45-2.568,8.093,8.093,0,0,0,2.029-5.482A8.636,8.636,0,0,0,647.9,745.1a8.833,8.833,0,0,0-5.946-1.954Z" fill="#fff"/><path d="M648.109,758.543a2.216,2.216,0,0,1-2.243-2.183,1.978,1.978,0,0,1,.12-.681,2.489,2.489,0,0,1,1.767-1.551v-8.8h-.015a1.962,1.962,0,0,1-.446-.09,2.231,2.231,0,0,1-1.507-1.838,1.992,1.992,0,0,1-.02-.288c0-.546.221-2.325,3.075-2.325a3.918,3.918,0,0,0,1.584-.8,2,2,0,0,1,1.136-.354,2.02,2.02,0,0,1,.386.038l.2.04a2,2,0,0,1,1.028.548l.081.081a2,2,0,0,1,.586,1.414V754.1a2.511,2.511,0,0,1,1.707,1.385,2,2,0,0,1,.18.83,2.195,2.195,0,0,1-2.426,2.224Z" fill="#fff"/><path d="M651.56,741.627l.2.04.081.081v12.928c.081.873.385,1.3.933,1.3s.853.122.954.344c0,.224-.082.224-.426.224h-5.2c-.182,0-.243-.122-.243-.183.081-.223.386-.344.934-.406s.852-.446.953-1.156V744.407c0-.467-.3-1.035-1.359-1.035l-.488-.041c-.06-.019-.121-.081-.141-.223,0-.223.365-.325,1.075-.325a5.317,5.317,0,0,0,2.72-1.156m0-4a4,4,0,0,0-2.273.708,5.48,5.48,0,0,1-.758.454c-4.709.167-4.764,4.146-4.764,4.319a3.938,3.938,0,0,0,.041.574,4.256,4.256,0,0,0,1.947,3.027v6.169A4.334,4.334,0,0,0,644.106,755a3.989,3.989,0,0,0-.24,1.363,4.218,4.218,0,0,0,4.243,4.183h5.2a4.185,4.185,0,0,0,4.426-4.224,4.013,4.013,0,0,0-.36-1.66,4.494,4.494,0,0,0-1.527-1.816V741.748a4,4,0,0,0-1.172-2.829l-.081-.081a3.994,3.994,0,0,0-2.055-1.095l-.2-.04a3.964,3.964,0,0,0-.773-.076Z" fill="#fff"/><path d="M654.118,758.543a2.216,2.216,0,0,1-2.243-2.183,1.978,1.978,0,0,1,.12-.681,2.486,2.486,0,0,1,1.768-1.552v-8.8h-.016a1.951,1.951,0,0,1-.446-.09,2.231,2.231,0,0,1-1.507-1.838,1.993,1.993,0,0,1-.021-.288c0-.546.222-2.325,3.076-2.325a3.918,3.918,0,0,0,1.584-.8,2,2,0,0,1,1.135-.354,2.023,2.023,0,0,1,.387.038l.2.04a2,2,0,0,1,1.028.548l.081.081a2,2,0,0,1,.586,1.414V754.1a2.514,2.514,0,0,1,1.707,1.385,2,2,0,0,1,.18.83,2.2,2.2,0,0,1-2.427,2.224Z" fill="#fff"/><path d="M657.568,741.627l.2.04.082.081v12.928c.081.873.385,1.3.933,1.3s.853.122.954.344c0,.224-.081.224-.427.224h-5.195c-.182,0-.243-.122-.243-.183.081-.223.386-.344.934-.406s.852-.446.954-1.156V744.407c0-.467-.305-1.035-1.361-1.035l-.487-.041c-.061-.019-.121-.081-.142-.223,0-.223.366-.325,1.076-.325a5.311,5.311,0,0,0,2.719-1.156m0-4a4,4,0,0,0-2.272.708,5.48,5.48,0,0,1-.758.454c-4.71.167-4.765,4.146-4.765,4.319a3.939,3.939,0,0,0,.042.574,4.252,4.252,0,0,0,1.948,3.027v6.168a4.346,4.346,0,0,0-1.649,2.12,4.012,4.012,0,0,0-.239,1.363,4.218,4.218,0,0,0,4.243,4.183h5.195a4.186,4.186,0,0,0,4.427-4.224,4.013,4.013,0,0,0-.36-1.66,4.494,4.494,0,0,0-1.527-1.816V741.748a4,4,0,0,0-1.172-2.829l-.081-.081a3.994,3.994,0,0,0-2.055-1.095l-.2-.04a3.974,3.974,0,0,0-.774-.076Z" fill="#fff"/><path d="M665.4,758.867a6.423,6.423,0,0,1-4.913-1.975,6.619,6.619,0,0,1-1.774-4.671,6.774,6.774,0,0,1,1.976-4.887,7.3,7.3,0,0,1,5.268-2.188h.155a5.9,5.9,0,0,1,2.637.576,5.137,5.137,0,0,1,1.8,1.326,2.178,2.178,0,0,1,1.625,2.128,2,2,0,0,1-.4,1.2,2.679,2.679,0,0,1-.839.721c-.079.048-.236.136-.319.174l-1.2.527-1.288.5c-.183.07-.412.177-.7.308l-1.738.771a1.488,1.488,0,0,0,.969.35c.835,0,.981-.2,1.122-.394a4.6,4.6,0,0,1,1.534-1.424,2,2,0,0,1,.895-.211,2.213,2.213,0,0,1,1.577.647,1.992,1.992,0,0,1,.548,1.027l.04.2a2.007,2.007,0,0,1,.038.387,4.07,4.07,0,0,1-1.825,3,9.263,9.263,0,0,1-2.567,1.466A7.348,7.348,0,0,1,665.4,758.867Z" fill="#fff"/><path d="M665.96,747.145h.113a3.952,3.952,0,0,1,1.786.366,3.289,3.289,0,0,1,1.218.893c.3.366.568.548.771.548.223,0,.325.081.325.223-.062.082-.1.1-.365.264l-1.2.528c-.528.2-.933.365-1.2.467s-.608.263-1.055.466l-3.491,1.542c.732,2.253,2.172,3.288,3.8,3.288a3.056,3.056,0,0,0,2.739-1.217,2.937,2.937,0,0,1,.812-.812.231.231,0,0,1,.163.061l.04.2c0,.386-.365.872-1.075,1.44a7.232,7.232,0,0,1-1.969,1.137,5.476,5.476,0,0,1-1.969.324,4.465,4.465,0,0,1-3.45-1.339,4.647,4.647,0,0,1-1.237-3.307,5.114,5.114,0,0,1,5.244-5.076m-3.235,4.873,2.232-.975,1.481-.649.833-.426a.807.807,0,0,0,.263-.264,1.527,1.527,0,0,0-.507-1.1,2.732,2.732,0,0,0-.893-.69,1.917,1.917,0,0,0-.832-.183,2.237,2.237,0,0,0-1.989.994,4.034,4.034,0,0,0-.649,2.212l.04.548.021.529m3.235-8.873h0a9.285,9.285,0,0,0-6.7,2.791,8.779,8.779,0,0,0-2.547,6.328,8.671,8.671,0,0,0,2.311,5.992,8.408,8.408,0,0,0,6.376,2.611,9.418,9.418,0,0,0,3.333-.563,11.227,11.227,0,0,0,3.046-1.729l.059-.046a6.032,6.032,0,0,0,2.575-4.563,4.021,4.021,0,0,0-.075-.774l-.041-.2a2.932,2.932,0,0,1-.127-3.813,4.173,4.173,0,0,0-2.489-3.838,7.341,7.341,0,0,0-2.128-1.449,7.962,7.962,0,0,0-3.483-.743Z" fill="#fff"/><path d="M675.573,758.867a6.474,6.474,0,0,1-5.215-2.339,7.134,7.134,0,0,1,.252-8.788,8.506,8.506,0,0,1,2.622-2.012,6.928,6.928,0,0,1,2.849-.582c3.842,0,5.592,2.131,5.592,4.112a3.115,3.115,0,0,1-3.3,3.136,1.9,1.9,0,0,1-.261-.018,3.164,3.164,0,0,1-2.759-2.311,2.824,2.824,0,0,0-.277,1.262,3.648,3.648,0,0,0,.589,2.054.969.969,0,0,0,.963.492,1.579,1.579,0,0,0,.9-.165,4.872,4.872,0,0,1,1.814-1.314,1.994,1.994,0,0,1,.636-.1,2.164,2.164,0,0,1,2.135,2.692,3.853,3.853,0,0,1-1.76,2.231c-.324.237-.662.464-.979.668A7.743,7.743,0,0,1,675.573,758.867Z" fill="#fff"/><path d="M676.081,747.146c2.273,0,3.592.975,3.592,2.112,0,.71-.508,1.136-1.3,1.136a1.211,1.211,0,0,1-1.157-1.36,1.234,1.234,0,0,0-1.258-1.38c-1.726,0-2.882,1.542-2.882,3.673a5.657,5.657,0,0,0,.913,3.146,2.954,2.954,0,0,0,2.639,1.4,3.141,3.141,0,0,0,2.313-.751,3.735,3.735,0,0,1,1.036-.832c.162,0,.222.081.182.264-.082.325-.325.568-.974,1.035-.305.223-.609.427-.893.609a5.8,5.8,0,0,1-2.72.669,4.479,4.479,0,0,1-3.734-1.683,5.189,5.189,0,0,1,.223-6.069,6.715,6.715,0,0,1,1.989-1.562,4.963,4.963,0,0,1,2.03-.407m0-4a8.913,8.913,0,0,0-3.665.756,10.385,10.385,0,0,0-3.254,2.459,9.119,9.119,0,0,0-.33,11.461l.046.051a8.4,8.4,0,0,0,6.695,2.994,9.735,9.735,0,0,0,4.757-1.226c.042-.025.084-.051.125-.078.408-.261.766-.507,1.1-.75a5.766,5.766,0,0,0,2.487-3.281c.01-.04.019-.081.028-.122a4.22,4.22,0,0,0-.81-3.57c-.051-.063-.1-.124-.157-.183a5.18,5.18,0,0,0,.573-2.4c0-3.037-2.608-6.112-7.592-6.112Z" fill="#fff"/><path d="M684.932,758.827c-4.719,0-5.085-3.441-5.085-4.5V750c-.065-.008-.128-.02-.192-.034l-.264-.061a1.968,1.968,0,0,1-.466-.169,2.225,2.225,0,0,1-1.153-1.586,2,2,0,0,1-.036-.378,2.369,2.369,0,0,1,2.669-2.324c.251,0,.319,0,.742-.5a.5.5,0,0,0,.12-.356c0-2.36,1.538-2.87,2.009-2.971a2.03,2.03,0,0,1,.417-.044,1.993,1.993,0,0,1,.63.1l.183.06a2.021,2.021,0,0,1,.8.5,2.249,2.249,0,0,1,.629,1.58v1.633h.841a2.287,2.287,0,0,1,1.637,3.922,1.987,1.987,0,0,1-.786.484,3.135,3.135,0,0,1-.993.163h-.7v3.5a2.649,2.649,0,0,1,.963-.748,2,2,0,0,1,1.3-.111,2.137,2.137,0,0,1,1.463,1.207,2.308,2.308,0,0,1,.209.975,4.125,4.125,0,0,1-2.962,3.681A5.814,5.814,0,0,1,684.932,758.827Z" fill="#fff"/><path d="M683.693,743.575l.183.061a.25.25,0,0,1,.061.182v3.633h2.841c.223,0,.325.122.325.284a.293.293,0,0,1-.1.224,1.16,1.16,0,0,1-.365.061h-2.7v6.108a2.558,2.558,0,0,0,.385,1.481,1.606,1.606,0,0,0,1.36.548c.792-.081,1.279-.345,1.462-.771a1.443,1.443,0,0,1,.568-.791c.081.02.121.06.121.081a.255.255,0,0,1,.041.162,2.162,2.162,0,0,1-1.6,1.786,3.855,3.855,0,0,1-1.339.2c-2.213,0-3.085-.892-3.085-2.5V748.02H680.1l-.265-.061a.259.259,0,0,1-.1-.184c0-.222.183-.324.669-.324a2.664,2.664,0,0,0,2.274-1.218,2.51,2.51,0,0,0,.588-1.643c0-.61.142-.954.426-1.015m0-4a3.969,3.969,0,0,0-.833.088,4.553,4.553,0,0,0-3.513,3.882,4.259,4.259,0,0,0-3.611,4.23,3.993,3.993,0,0,0,.072.756,4.22,4.22,0,0,0,2.039,2.9v2.9c0,3,1.855,6.5,7.085,6.5a7.807,7.807,0,0,0,2.62-.413,6.058,6.058,0,0,0,4.322-5.576,4.237,4.237,0,0,0-.771-2.468,4.163,4.163,0,0,0-1.548-1.333c.1-.079.187-.162.274-.249a4.294,4.294,0,0,0,1.274-3.053,16.74,16.74,0,0,1-4.364-6.893,4,4,0,0,0-1.6-1l-.183-.061a4.007,4.007,0,0,0-1.259-.2Z" fill="#fff"/><path d="M688.485,758.543a2.21,2.21,0,0,1-1.65-.662,1.976,1.976,0,0,1-.386-.582l-.061-.142a2,2,0,0,1,.006-1.608,2.592,2.592,0,0,1,1.715-1.4v-3.2a1.976,1.976,0,0,1-.77-.211,2.248,2.248,0,0,1-1.219-2.028,1.912,1.912,0,0,1,.016-.251,2.357,2.357,0,0,1,1.99-1.958,3.4,3.4,0,0,1-.22-1.221,3.279,3.279,0,1,1,6.557.021,3.24,3.24,0,0,1-.35,1.469,1.984,1.984,0,0,1,.086.581v6.782a2.4,2.4,0,0,1,1.745,1.557,1.988,1.988,0,0,1,.1.63,2.173,2.173,0,0,1-.99,1.859,2.019,2.019,0,0,1-.784.3l-.263.041a2.118,2.118,0,0,1-.308.023Z" fill="#fff"/><path d="M691.185,744a1.3,1.3,0,0,1,1.278,1.3,1.251,1.251,0,0,1-1.258,1.259,1.231,1.231,0,0,1-1.3-1.28A1.342,1.342,0,0,1,691.185,744m.751,3.227.182.041.081.081v7.367c.081.751.386,1.177.934,1.237s.852.183.913.365a.2.2,0,0,1-.081.183l-.264.041h-5.216a.374.374,0,0,1-.2-.041l-.061-.142c.081-.182.385-.325.933-.406.548-.06.873-.446.954-1.156v-4.567c0-.649-.223-1.257-1.339-1.257l-.528-.021a.247.247,0,0,1-.122-.244c.021-.162.446-.324,1.1-.324a6.259,6.259,0,0,0,2.72-1.157M691.185,740a5.349,5.349,0,0,0-5.279,5.278v.032a4.189,4.189,0,0,0-1.754,2.9,4,4,0,0,0-.032.5,4.246,4.246,0,0,0,1.989,3.629v.558a4.314,4.314,0,0,0-1.543,1.841,4,4,0,0,0-.013,3.217l.062.142a4,4,0,0,0,.771,1.164,4.223,4.223,0,0,0,3.1,1.283H693.7a3.953,3.953,0,0,0,.615-.048l.264-.041a4.008,4.008,0,0,0,1.566-.6,4.2,4.2,0,0,0,1.9-3.536,4.022,4.022,0,0,0-.2-1.259,4.25,4.25,0,0,0-1.644-2.18v-5.53c0-.12,0-.239-.016-.357a5.218,5.218,0,0,0,.28-1.693,5.3,5.3,0,0,0-5.278-5.3Z" fill="#fff"/><path d="M699.526,758.867a7.211,7.211,0,0,1-5.553-2.33,6.116,6.116,0,0,1-1.661-4.519,5.911,5.911,0,0,1,1.8-4.639,9.042,9.042,0,0,1,2.71-1.744,7.33,7.33,0,0,1,2.68-.489,6.9,6.9,0,0,1,4.66,1.486,6.654,6.654,0,0,1,2.637,5.507,6.042,6.042,0,0,1-1.524,4.152,7.417,7.417,0,0,1-2.708,2.045A8.1,8.1,0,0,1,699.526,758.867Zm0-9.213c-.813,0-.9,1.653-.9,2.364,0,2.383.652,2.383,1,2.383s.361-.046.435-.2a5.089,5.089,0,0,0,.426-2.227C700.489,749.654,699.863,749.654,699.526,749.654Z" fill="#fff"/><path d="M699.507,747.146a4.959,4.959,0,0,1,3.348,1,5.392,5.392,0,0,1,1.542,1.886,5.294,5.294,0,0,1,.407,2.111,4.077,4.077,0,0,1-1.016,2.821,5.533,5.533,0,0,1-1.968,1.522,6.1,6.1,0,0,1-2.294.385,5.246,5.246,0,0,1-4.16-1.764,4.189,4.189,0,0,1-1.054-3.085,4.021,4.021,0,0,1,1.135-3.146,7.159,7.159,0,0,1,2.071-1.36,5.414,5.414,0,0,1,1.989-.366m.121,9.255a2.272,2.272,0,0,0,2.232-1.319,7,7,0,0,0,.629-3.105c0-3.146-1.156-4.323-2.963-4.323-1.785,0-2.9,1.461-2.9,4.364,0,2.678.832,4.383,3,4.383m-.121-13.255a9.485,9.485,0,0,0-3.4.623,10.8,10.8,0,0,0-3.28,2.083l-.038.033a7.838,7.838,0,0,0-2.475,6.133,8.055,8.055,0,0,0,2.224,5.911l.044.043a9.228,9.228,0,0,0,6.946,2.895,10.079,10.079,0,0,0,3.8-.678,9.377,9.377,0,0,0,3.45-2.568,8.093,8.093,0,0,0,2.029-5.482,8.636,8.636,0,0,0-3.351-7.039,8.835,8.835,0,0,0-5.946-1.954Z" fill="#fff"/><path d="M712.092,758.543a2.424,2.424,0,0,1-.688-.094,2.709,2.709,0,0,1-.733.094H705.7a2.435,2.435,0,0,1-1.1-.252,2,2,0,0,1-.9-.9,2.379,2.379,0,0,1-.267-1.069,2,2,0,0,1,.18-.83,2.51,2.51,0,0,1,1.707-1.387v-3.2a2.162,2.162,0,0,1-1.983-2.059,1.974,1.974,0,0,1,.014-.441c.257-1.786,2.181-1.95,2.906-2.012a4.374,4.374,0,0,0,1.765-.832,2,2,0,0,1,1.1-.332,1.9,1.9,0,0,1,.36.033l.224.041a1.99,1.99,0,0,1,1.086.585l.077-.031a6.854,6.854,0,0,1,2.677-.628,3.8,3.8,0,0,1,3.989,3.867v5.035a2.6,2.6,0,0,1,1.709,1.4,2.007,2.007,0,0,1,.117,1.318,2.2,2.2,0,0,1-.621,1.1,1.987,1.987,0,0,1-1.046.524l-.243.041a2.069,2.069,0,0,1-.333.028Zm-.679-4.313.038-.014v-3.643l-.038.024Z" fill="#fff"/><path d="M713.553,747.228a1.814,1.814,0,0,1,1.989,1.867v5.581q.122,1.188.913,1.278c.548.062.873.183.975.406a.309.309,0,0,1-.062.142l-.243.041h-5.033a.3.3,0,0,1-.183-.041l-.041-.183c.062-.182.325-.284.772-.344.466-.061.73-.467.811-1.177v-5.459a1.07,1.07,0,0,0-1.217-1.137,2.829,2.829,0,0,0-1.421.426l-1.4.832v5.176q0,1.248.731,1.339c.487.06.771.2.852.385,0,.081-.02.122-.081.142a.456.456,0,0,1-.244.041H705.7a.443.443,0,0,1-.2-.041.47.47,0,0,1-.06-.183c.1-.222.425-.344.933-.344.548-.061.853-.447.954-1.177v-4.77c0-.222,0-.385-.345-.77a1.237,1.237,0,0,0-1-.305c-.487,0-.629,0-.649-.264q.03-.213,1.1-.3a6.294,6.294,0,0,0,2.7-1.157l.224.041c.019.02.04.1.06.122v1.521l1.035-.629a8.5,8.5,0,0,1,1.218-.589,4.806,4.806,0,0,1,1.887-.466m-4.424-4a4,4,0,0,0-2.206.663,4.835,4.835,0,0,1-.949.519c-3.584.349-4.421,2.468-4.6,3.71a3.984,3.984,0,0,0-.029.88,4.384,4.384,0,0,0,1.977,3.3v.553a4.357,4.357,0,0,0-1.527,1.807,4.013,4.013,0,0,0-.36,1.66,4.382,4.382,0,0,0,.474,1.954,4,4,0,0,0,1.8,1.806,4.41,4.41,0,0,0,1.993.464h4.972a5.072,5.072,0,0,0,.729-.052,4.648,4.648,0,0,0,.692.052h5.033a4,4,0,0,0,.665-.056l.244-.041a3.992,3.992,0,0,0,2.093-1.048,4.207,4.207,0,0,0,1.18-2.057,4,4,0,0,0-.235-2.635,4.359,4.359,0,0,0-1.53-1.82V749.1a5.8,5.8,0,0,0-5.989-5.867,8.238,8.238,0,0,0-2.5.419,3.981,3.981,0,0,0-.977-.313l-.223-.041a4.005,4.005,0,0,0-.722-.065Z" fill="#fff"/><path d="M725.594,759.018a2.164,2.164,0,0,1-1.381-.494,1.95,1.95,0,0,1-.275-.27,7.032,7.032,0,0,1-1-1.9l-1.159-2.743c-.342-.879-.7-1.731-1.156-2.734-.218-.492-.367-.782-.458-.943a2.379,2.379,0,0,1-2.25-1.847,2,2,0,0,1,.079-1.129,2.161,2.161,0,0,1,1.572-1.422,2.462,2.462,0,0,1,.566-.081h5.581a2.278,2.278,0,0,0,1.38,0h4.079a2,2,0,0,1,.786.161l.142.061a1.993,1.993,0,0,1,1.049,1.047l.062.142a1.987,1.987,0,0,1,.151,1.016,2.363,2.363,0,0,1-1.94,2.043,2.048,2.048,0,0,0-.228.245,9.568,9.568,0,0,0-.877,1.536l-.784,1.788-.25.581a2.234,2.234,0,0,1,.533,1.106,1.921,1.921,0,0,1,.028.331,2.217,2.217,0,0,1-1.933,2.174c-.01.014-.146.1-.364.3l-.337.341A2.249,2.249,0,0,1,725.594,759.018Z" fill="#fff"/><path d="M731.173,747.451l.141.061.062.142c-.021.183-.163.284-.447.325a1.483,1.483,0,0,0-.791.406,4.334,4.334,0,0,0-.548.589,11.6,11.6,0,0,0-1.1,1.907l-.792,1.807-.933,2.17a2.379,2.379,0,0,0,.71.407q.334.06.366.243c0,.1-.163.182-.467.244a3.132,3.132,0,0,0-1.178.75l-.405.406a.3.3,0,0,1-.2.11.191.191,0,0,1-.123-.049,8.153,8.153,0,0,1-.69-1.4l-1.157-2.739c-.386-.994-.791-1.928-1.177-2.78a6.362,6.362,0,0,0-.913-1.644,1.877,1.877,0,0,0-1.116-.467c-.325,0-.508-.1-.548-.284.061-.162.04-.142.264-.2h5.581a.235.235,0,0,1,.162.061l.061.182c-.082.183-.366.285-.873.285a.764.764,0,0,0-.852.69c.019.365,0,.365.649,1.928l.731,1.705.892,2.171.629-1.522.65-1.5.487-1.359a3.745,3.745,0,0,0,.224-1.1c-.062-.649-.346-.973-.812-.973q-.7-.091-.792-.366l.061-.142a.234.234,0,0,1,.163-.061h4.079m0-4h-4.079a4.356,4.356,0,0,1-1.38,0h-5.581a4,4,0,0,0-1.045.139,4.141,4.141,0,0,0-2.962,2.654,4.1,4.1,0,0,0-.164,2.267,4.282,4.282,0,0,0,2.828,3.16c.452,1,.8,1.816,1.1,2.6.014.037.029.073.044.11l1.158,2.739a8.8,8.8,0,0,0,1.309,2.414,4.04,4.04,0,0,0,.552.542,4.212,4.212,0,0,0,2.636.937,4.271,4.271,0,0,0,3.03-1.281l.251-.252a4.163,4.163,0,0,0,2.971-3.977,3.982,3.982,0,0,0-.056-.663,4.133,4.133,0,0,0-.263-.917l.632-1.441a6.785,6.785,0,0,1,.459-.845,4.315,4.315,0,0,0,2.734-3.541,4,4,0,0,0-.3-2.031l-.062-.143a4,4,0,0,0-2.1-2.093l-.142-.061a4.008,4.008,0,0,0-1.572-.322Z" fill="#fff"/><path d="M736.716,758.867a7.213,7.213,0,0,1-5.554-2.33,6.12,6.12,0,0,1-1.661-4.519,5.908,5.908,0,0,1,1.806-4.639,9.018,9.018,0,0,1,2.71-1.744,7.321,7.321,0,0,1,2.679-.489,6.893,6.893,0,0,1,4.66,1.486,6.646,6.646,0,0,1,2.637,5.507,6.046,6.046,0,0,1-1.523,4.152,7.433,7.433,0,0,1-2.708,2.045A8.108,8.108,0,0,1,736.716,758.867Zm0-9.213c-.814,0-.9,1.653-.9,2.364,0,2.383.653,2.383,1,2.383s.362-.046.436-.2a5.1,5.1,0,0,0,.426-2.227C737.679,749.654,737.053,749.654,736.716,749.654Z" fill="#fff"/><path d="M736.7,747.146a4.964,4.964,0,0,1,3.349,1,5.415,5.415,0,0,1,1.542,1.886,5.294,5.294,0,0,1,.406,2.111,4.081,4.081,0,0,1-1.015,2.821,5.541,5.541,0,0,1-1.968,1.522,6.1,6.1,0,0,1-2.294.385,5.245,5.245,0,0,1-4.16-1.764,4.189,4.189,0,0,1-1.055-3.085,4.022,4.022,0,0,1,1.136-3.146,7.157,7.157,0,0,1,2.07-1.36,5.418,5.418,0,0,1,1.989-.366m.121,9.255a2.273,2.273,0,0,0,2.233-1.319,7,7,0,0,0,.629-3.105c0-3.146-1.157-4.323-2.963-4.323-1.785,0-2.9,1.461-2.9,4.364,0,2.678.832,4.383,3,4.383m-.121-13.255a9.489,9.489,0,0,0-3.4.623,10.813,10.813,0,0,0-3.28,2.083l-.038.033a7.838,7.838,0,0,0-2.475,6.133,8.059,8.059,0,0,0,2.224,5.911l.044.043a9.231,9.231,0,0,0,6.947,2.895,10.077,10.077,0,0,0,3.8-.678,9.369,9.369,0,0,0,3.45-2.568,8.093,8.093,0,0,0,2.029-5.482,8.639,8.639,0,0,0-3.35-7.039,8.838,8.838,0,0,0-5.947-1.954Z" fill="#fff"/><path d="M742.868,758.543a2.216,2.216,0,0,1-2.243-2.183,1.978,1.978,0,0,1,.12-.681,2.486,2.486,0,0,1,1.768-1.552v-8.8H742.5a1.951,1.951,0,0,1-.446-.09,2.231,2.231,0,0,1-1.507-1.838,1.993,1.993,0,0,1-.021-.288c0-.546.222-2.325,3.076-2.325a3.918,3.918,0,0,0,1.584-.8,2,2,0,0,1,1.135-.354,2.023,2.023,0,0,1,.387.038l.2.04a2,2,0,0,1,1.028.548l.081.081a2,2,0,0,1,.586,1.414V754.1a2.514,2.514,0,0,1,1.707,1.385,2,2,0,0,1,.18.83,2.2,2.2,0,0,1-2.427,2.224Z" fill="#fff"/><path d="M746.318,741.627l.2.04.082.081v12.928c.081.873.385,1.3.933,1.3s.853.122.954.344c0,.224-.081.224-.427.224h-5.195c-.182,0-.243-.122-.243-.183.081-.223.386-.344.934-.406s.852-.446.954-1.156V744.407c0-.467-.305-1.035-1.361-1.035l-.487-.041c-.061-.019-.121-.081-.142-.223,0-.223.366-.325,1.076-.325a5.311,5.311,0,0,0,2.719-1.156m0-4a4,4,0,0,0-2.272.708,5.48,5.48,0,0,1-.758.454c-4.71.167-4.765,4.146-4.765,4.319a3.939,3.939,0,0,0,.042.574,4.252,4.252,0,0,0,1.948,3.027v6.168a4.346,4.346,0,0,0-1.649,2.12,4.012,4.012,0,0,0-.239,1.363,4.218,4.218,0,0,0,4.243,4.183h5.195a4.186,4.186,0,0,0,4.427-4.224,4.013,4.013,0,0,0-.36-1.66,4.494,4.494,0,0,0-1.527-1.816V741.748a4,4,0,0,0-1.172-2.829l-.081-.081a3.994,3.994,0,0,0-2.055-1.095l-.2-.04a3.974,3.974,0,0,0-.774-.076Z" fill="#fff"/><path d="M750.724,758.786a3.349,3.349,0,0,1-2.315-.919,1.973,1.973,0,0,1-.167-.175,3.272,3.272,0,1,1,5.739-2.143A3.251,3.251,0,0,1,750.724,758.786Z" fill="#fff"/><path d="M750.724,754.27a1.28,1.28,0,0,1,1.257,1.279,1.259,1.259,0,0,1-1.257,1.237,1.365,1.365,0,0,1-.954-.385,1.305,1.305,0,0,1-.345-.852,1.278,1.278,0,0,1,1.3-1.279m0-4a5.263,5.263,0,0,0-4.01,8.713,3.968,3.968,0,0,0,.335.351,5.393,5.393,0,0,0,3.675,1.452,5.258,5.258,0,0,0,0-10.516Z" fill="#fff"/><path d="M757.908,758.867A7.6,7.6,0,0,1,752.542,757a4.867,4.867,0,0,1-1.646-3.844,3.945,3.945,0,0,1,2.126-3.679c.034-.017.066-.034.1-.048a3.6,3.6,0,0,1,.434-.166c0-.036,0-.074,0-.115a3.827,3.827,0,0,1-2.055-3.542,4.679,4.679,0,0,1,1.79-3.8,8.265,8.265,0,0,1,2.657-1.481,8.44,8.44,0,0,1,2.707-.415,6.933,6.933,0,0,1,4.237,1.267,4.688,4.688,0,0,1,1.985,3.879,4.251,4.251,0,0,1-.8,2.489,6.063,6.063,0,0,1,1.435,2.17,6.593,6.593,0,0,1,.4,2.3,5.909,5.909,0,0,1-.65,2.747,8.37,8.37,0,0,1-2.159,2.525A7.7,7.7,0,0,1,757.908,758.867Zm.231-7.557a3.609,3.609,0,0,1,.348,1.54,3.941,3.941,0,0,1-.242,1.349,1.183,1.183,0,0,0,.526-.346,1.672,1.672,0,0,0,.506-1.165A1.231,1.231,0,0,0,758.139,751.31Zm-.245-6.748a3.381,3.381,0,0,1,.406,1.033,1.052,1.052,0,0,0,.064-.437C758.364,744.635,758.256,744.568,757.894,744.562Z" fill="#fff"/><path d="M758.659,741.911a4.966,4.966,0,0,1,3.044.872,2.7,2.7,0,0,1,1.178,2.274,2.434,2.434,0,0,1-1.056,1.968,4.856,4.856,0,0,1-2.516,1.1l.041.121.425-.04.67-.081a2.907,2.907,0,0,1,2.152.771,4.18,4.18,0,0,1,1.034,1.5,4.635,4.635,0,0,1,.284,1.624,3.907,3.907,0,0,1-.426,1.826,6.647,6.647,0,0,1-1.684,1.927,5.8,5.8,0,0,1-3.9,1.1,5.612,5.612,0,0,1-4.079-1.4,2.9,2.9,0,0,1-.933-2.314,1.935,1.935,0,0,1,1.055-1.908,1.876,1.876,0,0,1,.771-.162,1.583,1.583,0,0,1,1.3.588,1.891,1.891,0,0,1,.466,1.178,1.762,1.762,0,0,1-.283.973l-.325-.446a.669.669,0,0,0-.589-.284c-.486,0-.751.325-.751.873a2.019,2.019,0,0,0,.894,1.664,3.329,3.329,0,0,0,2.07.67,3.493,3.493,0,0,0,2.76-1.116,3.674,3.674,0,0,0,1.014-2.5,3.289,3.289,0,0,0-3.591-3.411,6.015,6.015,0,0,0-1.3.1l-.63.122-.142-.061-.06-.142c0-.162.243-.3.73-.426l1.664-.568c1.948-.894,2.415-1.928,2.415-3.146a2.383,2.383,0,0,0-2.578-2.6,2.654,2.654,0,0,0-2.009.73,1.7,1.7,0,0,0-.689,1.177.86.86,0,0,0,.629.771c.386.122.608.467.67,1.035a1.29,1.29,0,0,1-1.3,1.218,1.686,1.686,0,0,1-1.583-1.888,2.682,2.682,0,0,1,1.034-2.232,6.36,6.36,0,0,1,2.01-1.137,6.507,6.507,0,0,1,2.11-.324m0-4a10.488,10.488,0,0,0-3.357.524,10.232,10.232,0,0,0-3.249,1.8,6.706,6.706,0,0,0-2.548,5.365,6.379,6.379,0,0,1-.609,7.55,6.8,6.8,0,0,0,2.306,5.33l.052.045a10.937,10.937,0,0,0,13.19.248,10.281,10.281,0,0,0,2.621-3.141,7.884,7.884,0,0,0,.85-3.618,8.594,8.594,0,0,0-.53-3,7.217,7.217,0,0,0-.913-1.721,6.239,6.239,0,0,0,.409-2.235,6.7,6.7,0,0,0-2.791-5.484,8.887,8.887,0,0,0-5.431-1.662Zm-.829,15.377Z" fill="#fff"/></g></g><g id="Text"><path d="M501.424,756.076h3.815a6.062,6.062,0,0,0,5.256-2.7c.406-.487.69-1.218.954-1.218.183,0,.223.122.223.346l-2.577,5.54a.406.406,0,0,1-.162.081l-.162-.081-.164-.427c-.162-.324-.243-1.034-3.206-1.075h-6.413c-.324,0-.487-.122-.426-.386l9.6-13.434H505.1a6.68,6.68,0,0,0-4.728,1.948c-.65.568-.974,1.359-1.3,1.44a.257.257,0,0,1-.2-.365l1.806-4.363.162-.142c.082-.041.163-.02.264.081a1.345,1.345,0,0,0,.994.772c.427.06.792.1,1.055.121.285.02.61.02.955.02h6.453a.434.434,0,0,1,.466.407Z" fill="#231f20"/><path d="M516.566,753.275a3.036,3.036,0,0,0,.853,2.193,4.14,4.14,0,0,0,2.963.851c2.942,0,4.222-1.461,4.222-3.916v-6.251a4.019,4.019,0,0,0-.792-2.78,2.164,2.164,0,0,0-1.34-.589c-.385,0-.609-.081-.65-.263a.264.264,0,0,1,.082-.2l.223-.081h5.094a.332.332,0,0,1,.365.285c-.02.162-.2.244-.507.244a1.709,1.709,0,0,0-1.015.486,3.211,3.211,0,0,0-.669,1.178,6.4,6.4,0,0,0-.244,1.724V752.2a4.518,4.518,0,0,1-1.035,3.409,3.924,3.924,0,0,1-1.6.893,9.3,9.3,0,0,1-1.461.305,8.148,8.148,0,0,1-1.259.081c-3.714,0-5.6-1.482-5.6-4.079v-6.9c0-1.765-.163-2.294-.73-2.761a1.659,1.659,0,0,0-1.1-.344c-.467,0-.71-.1-.75-.284a.263.263,0,0,1,.081-.2l.2-.081h7.226a.307.307,0,0,1,.345.285c-.061.182-.365.284-.873.284a2.356,2.356,0,0,0-1.38.385,3.014,3.014,0,0,0-.65,2.334Z" fill="#231f20"/><path d="M540.538,745.909c.1-1.441-.771-3.126-2.11-3.126-.386,0-.61-.081-.65-.263a.217.217,0,0,1,.081-.2l.224-.081h5.378a.387.387,0,0,1,.264.1l.081.183c-.021.182-.244.263-.629.263a1.762,1.762,0,0,0-1.259.569,5.029,5.029,0,0,0-.832,2.983v7.874a2.443,2.443,0,0,0,1.076.69c.243,0,.365.1.365.285s-.73.365-1.644,1.257l-.324.285a.768.768,0,0,1-.326.223.361.361,0,0,1-.222-.142l-.2-.2L531.1,743.636v8.99a6.823,6.823,0,0,0,.222,1.745,2.5,2.5,0,0,0,.569,1.076,2.157,2.157,0,0,0,1.339.588c.426,0,.629.1.65.284a.3.3,0,0,1-.325.224h-5.3c-.324,0-.426-.041-.426-.224.02-.182.224-.284.609-.284a1.782,1.782,0,0,0,1.258-.527,3.228,3.228,0,0,0,.609-1.3,5.746,5.746,0,0,0,.223-1.3v-9.457a2.012,2.012,0,0,0-1.481-.67h-.183c-.73,0-.974-.04-1.035-.263a.263.263,0,0,1,.081-.2l.224-.081h4.809a.471.471,0,0,1,.365.3l.163.487,7.062,10.553Z" fill="#231f20"/><path d="M547.057,746.984a1.715,1.715,0,0,1-1.076.954l-.2-.041a.21.21,0,0,1-.081-.162c.021-.3.2-.608.751-1.238a2.755,2.755,0,0,0,.528-1.6l-.04-.366a.271.271,0,0,0-.164-.223l-.384.06-.386.041a1.1,1.1,0,0,1-1.2-1.238,1.438,1.438,0,0,1,1.339-1.359,1.35,1.35,0,0,1,1.238.587,4.12,4.12,0,0,1,.487,1.016,3.067,3.067,0,0,1,.121.893A4.485,4.485,0,0,1,547.057,746.984Z" fill="#231f20"/><path d="M557.633,750.049a.239.239,0,0,1,.019.2c-.019.06-.06.081-.162.081-.324,0-.386-.649-1.116-1.461a3.161,3.161,0,0,0-2.517-1.259c-1.3,0-2.029.67-2.029,1.563a1.241,1.241,0,0,0,.994,1.319,15.645,15.645,0,0,0,2.334.427,5.926,5.926,0,0,1,2.334.71,2.135,2.135,0,0,1,1.015,2.05,2.5,2.5,0,0,1-.832,2.008,4.818,4.818,0,0,1-1.5.934,4.477,4.477,0,0,1-1.542.243,6.946,6.946,0,0,1-1.461-.162,5.455,5.455,0,0,0-.832-.1.8.8,0,0,0-.649.3.53.53,0,0,1-.366.325l-.122-.061-.081-.121-1.259-3.9.081-.183a.259.259,0,0,1,.184-.1q.243.03.426.669a3.05,3.05,0,0,0,.751,1.259,9.4,9.4,0,0,0,.872.832,3.585,3.585,0,0,0,2.354.811c1.38,0,2.192-.791,2.192-1.846a1.406,1.406,0,0,0-.121-.67c-.081-.3-.467-.853-1.827-1.035l-2.111-.325a4.65,4.65,0,0,1-1.888-.71,1.976,1.976,0,0,1-.75-1.765c0-1.705,1.461-2.944,3.673-2.944a5.064,5.064,0,0,1,1.1.1l.751.1c.487,0,.609-.467.832-.548a.276.276,0,0,1,.2.122.9.9,0,0,1,.061.264Z" fill="#231f20"/><path d="M576.124,742.459a.535.535,0,0,1,.264-.162l.284-.062h4.282c.243,0,.345.062.406.285-.041.182-.325.284-.832.284a1.59,1.59,0,0,0-1.725,1.258,11.358,11.358,0,0,0-.183,2.395v5.885c0,1.279.061,2.618.548,3.186a2.317,2.317,0,0,0,1.421.488c.548,0,.811.1.811.284a.2.2,0,0,1-.122.2l-.243.041h-7.042c-.406,0-.426-.061-.426-.243.04-.183.3-.265.791-.265a2.237,2.237,0,0,0,1.36-.486,2.412,2.412,0,0,0,.447-1l.081-.893v-10.39l-4.444,8.706c.486.3,1.034.345,1.054.588a2.05,2.05,0,0,1-.751.569,3.083,3.083,0,0,0-1.075,1.035c-.263.426-.406.629-.426.649s-.02.02-.041.02c-.06-.02-.1-.02-.122-.04l-5.174-11.2v8.625c0,2.434.73,3.814,2.13,3.814.386,0,.61.1.65.284-.061.183-.122.224-.345.224h-5.257c-.324,0-.446-.061-.446-.224.021-.182.224-.284.629-.284a1.96,1.96,0,0,0,1.238-.507,4.653,4.653,0,0,0,.832-3.186v-6.961c0-1.237-.162-1.785-.73-2.252a1.55,1.55,0,0,0-1.035-.346c-.406,0-.629-.1-.67-.284a.247.247,0,0,1,.082-.183l.3-.081h4.161a.549.549,0,0,1,.223.041l.162.061,4.3,9.254Z" fill="#231f20"/><path d="M585.688,754.574a1.565,1.565,0,0,0,.284.913,1.276,1.276,0,0,0,.994.346,2.686,2.686,0,0,0,1.3-.386c.466-.263.791-.426.954-.527a4.617,4.617,0,0,0,.507-.346v-4.5a1,1,0,0,0-.3-.811c-.143-.184-.508-.284-1.056-.284l-.487-.021a.2.2,0,0,1-.122-.2c.02-.224.386-.345,1.1-.345a5.034,5.034,0,0,0,2.678-1.177l.223.041.061.081V754.7c.081.791.386,1.2.934,1.258s.872.183.953.406a.27.27,0,0,1-.081.142l-.2.041h-3.328c-.243,0-.365-.122-.365-.426v-.954a9.228,9.228,0,0,0-1.1.568l-1.1.548a4.657,4.657,0,0,1-1.989.588A1.92,1.92,0,0,1,583.6,754.8V750.09c0-.325-.02-.427-.345-.813-.142-.2-.487-.3-.994-.3l-.446-.021c-.123-.041-.183-.1-.183-.2.019-.224.385-.345,1.055-.345a6.1,6.1,0,0,0,2.74-1.177l.182.041c.02.02.061.081.082.1Z" fill="#231f20"/><path d="M602.048,750.049a.239.239,0,0,1,.019.2c-.019.06-.06.081-.162.081-.324,0-.385-.649-1.116-1.461a3.161,3.161,0,0,0-2.517-1.259c-1.3,0-2.029.67-2.029,1.563a1.241,1.241,0,0,0,.994,1.319,15.645,15.645,0,0,0,2.334.427,5.926,5.926,0,0,1,2.334.71,2.135,2.135,0,0,1,1.015,2.05,2.5,2.5,0,0,1-.832,2.008,4.818,4.818,0,0,1-1.5.934,4.477,4.477,0,0,1-1.542.243,6.946,6.946,0,0,1-1.461-.162,5.455,5.455,0,0,0-.832-.1.8.8,0,0,0-.649.3.528.528,0,0,1-.366.325l-.122-.061-.081-.121-1.259-3.9.081-.183a.261.261,0,0,1,.183-.1q.245.03.427.669a3.05,3.05,0,0,0,.751,1.259,9.4,9.4,0,0,0,.872.832,3.585,3.585,0,0,0,2.354.811c1.38,0,2.192-.791,2.192-1.846a1.406,1.406,0,0,0-.121-.67c-.081-.3-.467-.853-1.827-1.035l-2.111-.325a4.64,4.64,0,0,1-1.887-.71,1.973,1.973,0,0,1-.75-1.765c0-1.705,1.46-2.944,3.672-2.944a5.064,5.064,0,0,1,1.1.1l.751.1c.487,0,.609-.467.832-.548a.276.276,0,0,1,.2.122.933.933,0,0,1,.061.264Z" fill="#231f20"/><path d="M607.57,754.717c.081.751.386,1.177.934,1.237s.852.183.913.365a.2.2,0,0,1-.081.183l-.264.041h-5.216a.374.374,0,0,1-.2-.041l-.061-.142c.081-.182.386-.325.933-.406.548-.06.873-.446.954-1.156v-4.567c0-.649-.223-1.257-1.339-1.257l-.528-.021a.247.247,0,0,1-.122-.244c.021-.162.447-.324,1.1-.324a6.259,6.259,0,0,0,2.72-1.157l.182.041.081.081Zm-.994-8.158a1.231,1.231,0,0,1-1.3-1.28A1.342,1.342,0,0,1,606.556,744a1.3,1.3,0,0,1,1.278,1.3A1.251,1.251,0,0,1,606.576,746.559Z" fill="#231f20"/><path d="M612.808,754.473a2.953,2.953,0,0,0,2.638,1.4,3.145,3.145,0,0,0,2.314-.751,3.751,3.751,0,0,1,1.035-.832c.162,0,.223.081.183.264-.082.325-.326.568-.975,1.035-.305.223-.608.427-.893.609a5.8,5.8,0,0,1-2.719.669,4.481,4.481,0,0,1-3.735-1.683,5.187,5.187,0,0,1,.224-6.069,6.713,6.713,0,0,1,1.988-1.562,4.963,4.963,0,0,1,2.03-.407c2.273,0,3.592.975,3.592,2.112,0,.71-.508,1.136-1.3,1.136a1.211,1.211,0,0,1-1.157-1.36,1.234,1.234,0,0,0-1.258-1.38c-1.725,0-2.881,1.542-2.881,3.673A5.649,5.649,0,0,0,612.808,754.473Z" fill="#231f20"/><path d="M634.222,744.914c-.183-.223-.426-.527-.731-.872a6.158,6.158,0,0,0-1.4-1.1,4.142,4.142,0,0,0-2.212-.589c-3.187,0-4.749,2.679-4.749,7.368a9.188,9.188,0,0,0,1.056,4.708,4.222,4.222,0,0,0,3.957,2.008,5.369,5.369,0,0,0,4.1-1.705,5.038,5.038,0,0,0,.954-1.359c.183-.426.366-.649.548-.689.1,0,.162.019.183.081.02,0,.06.04.081.141a3.493,3.493,0,0,1-.994,1.847,6.079,6.079,0,0,1-2.193,1.705,7.253,7.253,0,0,1-2.78.487c-2.232,0-3.876-.548-4.911-1.624a9.658,9.658,0,0,1-2.09-2.922,7.763,7.763,0,0,1-.508-2.9c0-4.444,3.227-7.691,7.164-7.691a6.624,6.624,0,0,1,1.542.162,8.9,8.9,0,0,0,1.116.162c.467-.04.711-.2.751-.467a.5.5,0,0,1,.407-.467,10.532,10.532,0,0,1,1.075,2.294l.913,2.415-.04.162-.122.04C635.014,746.092,634.566,745.341,634.222,744.914Z" fill="#231f20"/><path d="M646.239,754.96a5.533,5.533,0,0,1-1.968,1.522,6.1,6.1,0,0,1-2.293.385,5.247,5.247,0,0,1-4.161-1.764,4.189,4.189,0,0,1-1.054-3.085,4.021,4.021,0,0,1,1.135-3.146,7.159,7.159,0,0,1,2.071-1.36,5.418,5.418,0,0,1,1.989-.366,4.964,4.964,0,0,1,3.349,1,5.415,5.415,0,0,1,1.542,1.886,5.312,5.312,0,0,1,.406,2.111A4.077,4.077,0,0,1,646.239,754.96Zm-4.261-7.306c-1.786,0-2.9,1.461-2.9,4.364,0,2.678.832,4.383,3,4.383a2.274,2.274,0,0,0,2.233-1.319,7.013,7.013,0,0,0,.628-3.105C644.94,748.831,643.784,747.654,641.978,747.654Z" fill="#231f20"/><path d="M651.844,754.676c.081.873.385,1.3.933,1.3s.853.122.954.344c0,.224-.082.224-.426.224h-5.2c-.182,0-.243-.122-.243-.183.081-.223.386-.344.934-.406s.852-.446.953-1.156V744.407c0-.467-.3-1.035-1.359-1.035l-.488-.041c-.06-.019-.121-.081-.141-.223,0-.223.365-.325,1.075-.325a5.317,5.317,0,0,0,2.72-1.156l.2.04.081.081Z" fill="#231f20"/><path d="M657.853,754.676c.081.873.385,1.3.933,1.3s.853.122.954.344c0,.224-.081.224-.427.224h-5.195c-.182,0-.243-.122-.243-.183.081-.223.386-.344.934-.406s.852-.446.954-1.156V744.407c0-.467-.305-1.035-1.361-1.035l-.487-.041c-.061-.019-.121-.081-.142-.223,0-.223.366-.325,1.076-.325a5.311,5.311,0,0,0,2.719-1.156l.2.04.082.081Z" fill="#231f20"/><path d="M666.662,755.731a3.056,3.056,0,0,0,2.739-1.217,2.937,2.937,0,0,1,.812-.812.231.231,0,0,1,.163.061l.04.2c0,.386-.365.872-1.075,1.44a7.232,7.232,0,0,1-1.969,1.137,5.476,5.476,0,0,1-1.969.324,4.465,4.465,0,0,1-3.45-1.339,4.647,4.647,0,0,1-1.237-3.307,5.12,5.12,0,0,1,5.357-5.075,3.952,3.952,0,0,1,1.786.366,3.289,3.289,0,0,1,1.218.893c.3.366.568.548.771.548.223,0,.325.081.325.223-.062.082-.1.1-.365.264l-1.2.528c-.528.2-.933.365-1.2.467s-.608.263-1.055.466l-3.491,1.542C663.6,754.7,665.038,755.731,666.662,755.731Zm-1.705-4.688,1.481-.649.833-.426a.807.807,0,0,0,.263-.264,1.527,1.527,0,0,0-.507-1.1,2.732,2.732,0,0,0-.893-.69,1.917,1.917,0,0,0-.832-.183,2.237,2.237,0,0,0-1.989.994,4.034,4.034,0,0,0-.649,2.212l.04.548.021.529Z" fill="#231f20"/><path d="M673.99,754.473a2.954,2.954,0,0,0,2.639,1.4,3.141,3.141,0,0,0,2.313-.751,3.735,3.735,0,0,1,1.036-.832c.162,0,.222.081.182.264-.082.325-.325.568-.974,1.035-.305.223-.609.427-.893.609a5.8,5.8,0,0,1-2.72.669,4.479,4.479,0,0,1-3.734-1.683,5.189,5.189,0,0,1,.223-6.069,6.715,6.715,0,0,1,1.989-1.562,4.963,4.963,0,0,1,2.03-.407c2.273,0,3.592.975,3.592,2.112,0,.71-.508,1.136-1.3,1.136a1.211,1.211,0,0,1-1.157-1.36,1.234,1.234,0,0,0-1.258-1.38c-1.726,0-2.882,1.542-2.882,3.673A5.657,5.657,0,0,0,673.99,754.473Z" fill="#231f20"/><path d="M687.1,747.735a.293.293,0,0,1-.1.224,1.16,1.16,0,0,1-.365.061h-2.7v6.108a2.558,2.558,0,0,0,.385,1.481,1.606,1.606,0,0,0,1.36.548c.792-.081,1.279-.345,1.462-.771a1.443,1.443,0,0,1,.568-.791c.081.02.121.06.121.081a.255.255,0,0,1,.041.162,2.162,2.162,0,0,1-1.6,1.786,3.855,3.855,0,0,1-1.339.2c-2.213,0-3.085-.892-3.085-2.5V748.02H680.1l-.265-.061a.259.259,0,0,1-.1-.184c0-.222.183-.324.669-.324a2.664,2.664,0,0,0,2.274-1.218,2.51,2.51,0,0,0,.588-1.643c0-.61.142-.954.426-1.015l.183.061a.25.25,0,0,1,.061.182v3.633h2.841C687,747.451,687.1,747.573,687.1,747.735Z" fill="#231f20"/><path d="M692.2,754.717c.081.751.386,1.177.934,1.237s.852.183.913.365a.2.2,0,0,1-.081.183l-.264.041h-5.216a.374.374,0,0,1-.2-.041l-.061-.142c.081-.182.385-.325.933-.406.548-.06.873-.446.954-1.156v-4.567c0-.649-.223-1.257-1.339-1.257l-.528-.021a.247.247,0,0,1-.122-.244c.021-.162.446-.324,1.1-.324a6.259,6.259,0,0,0,2.72-1.157l.182.041.081.081Zm-.994-8.158a1.231,1.231,0,0,1-1.3-1.28A1.342,1.342,0,0,1,691.185,744a1.3,1.3,0,0,1,1.278,1.3A1.251,1.251,0,0,1,691.205,746.559Z" fill="#231f20"/><path d="M703.788,754.96a5.533,5.533,0,0,1-1.968,1.522,6.1,6.1,0,0,1-2.294.385,5.246,5.246,0,0,1-4.16-1.764,4.189,4.189,0,0,1-1.054-3.085,4.021,4.021,0,0,1,1.135-3.146,7.159,7.159,0,0,1,2.071-1.36,5.414,5.414,0,0,1,1.989-.366,4.959,4.959,0,0,1,3.348,1,5.392,5.392,0,0,1,1.542,1.886,5.294,5.294,0,0,1,.407,2.111A4.077,4.077,0,0,1,703.788,754.96Zm-4.262-7.306c-1.785,0-2.9,1.461-2.9,4.364,0,2.678.832,4.383,3,4.383a2.272,2.272,0,0,0,2.232-1.319,7,7,0,0,0,.629-3.105C702.489,748.831,701.333,747.654,699.526,747.654Z" fill="#231f20"/><path d="M715.542,749.1v5.581q.122,1.188.913,1.278c.548.062.873.183.975.406a.309.309,0,0,1-.062.142l-.243.041h-5.033a.3.3,0,0,1-.183-.041l-.041-.183c.062-.182.325-.284.772-.344.466-.061.73-.467.811-1.177v-5.459a1.07,1.07,0,0,0-1.217-1.137,2.829,2.829,0,0,0-1.421.426l-1.4.832v5.176q0,1.248.731,1.339c.487.06.771.2.852.385,0,.081-.02.122-.081.142a.456.456,0,0,1-.244.041H705.7a.443.443,0,0,1-.2-.041.47.47,0,0,1-.06-.183c.1-.222.425-.344.933-.344.548-.061.853-.447.954-1.177v-4.77c0-.222,0-.385-.345-.77a1.237,1.237,0,0,0-1-.305c-.487,0-.629,0-.649-.264q.03-.213,1.1-.3a6.294,6.294,0,0,0,2.7-1.157l.224.041c.019.02.04.1.06.122v1.521l1.035-.629a8.5,8.5,0,0,1,1.218-.589,4.806,4.806,0,0,1,1.887-.466A1.814,1.814,0,0,1,715.542,749.1Z" fill="#231f20"/><path d="M724.861,750.6l.731,1.705.892,2.171.629-1.522.65-1.5.487-1.359a3.745,3.745,0,0,0,.224-1.1c-.062-.649-.346-.973-.812-.973q-.7-.091-.792-.366l.061-.142a.234.234,0,0,1,.163-.061h4.079l.141.061.062.142c-.021.183-.163.284-.447.325a1.483,1.483,0,0,0-.791.406,4.334,4.334,0,0,0-.548.589,11.6,11.6,0,0,0-1.1,1.907l-.792,1.807-.933,2.17a2.379,2.379,0,0,0,.71.407q.334.06.366.243c0,.1-.163.182-.467.244a3.132,3.132,0,0,0-1.178.75l-.405.406c-.122.122-.224.143-.325.061a8.153,8.153,0,0,1-.69-1.4l-1.157-2.739c-.386-.994-.791-1.928-1.177-2.78a6.362,6.362,0,0,0-.913-1.644,1.877,1.877,0,0,0-1.116-.467c-.325,0-.508-.1-.548-.284.061-.162.04-.142.264-.2h5.581a.235.235,0,0,1,.162.061l.061.182c-.082.183-.366.285-.873.285a.764.764,0,0,0-.852.69C724.231,749.034,724.212,749.034,724.861,750.6Z" fill="#231f20"/><path d="M740.978,754.96a5.541,5.541,0,0,1-1.968,1.522,6.1,6.1,0,0,1-2.294.385,5.245,5.245,0,0,1-4.16-1.764,4.189,4.189,0,0,1-1.055-3.085,4.022,4.022,0,0,1,1.136-3.146,7.157,7.157,0,0,1,2.07-1.36,5.418,5.418,0,0,1,1.989-.366,4.964,4.964,0,0,1,3.349,1,5.415,5.415,0,0,1,1.542,1.886,5.294,5.294,0,0,1,.406,2.111A4.081,4.081,0,0,1,740.978,754.96Zm-4.262-7.306c-1.785,0-2.9,1.461-2.9,4.364,0,2.678.832,4.383,3,4.383a2.273,2.273,0,0,0,2.233-1.319,7,7,0,0,0,.629-3.105C739.679,748.831,738.522,747.654,736.716,747.654Z" fill="#231f20"/><path d="M746.6,754.676c.081.873.385,1.3.933,1.3s.853.122.954.344c0,.224-.081.224-.427.224h-5.195c-.182,0-.243-.122-.243-.183.081-.223.386-.344.934-.406s.852-.446.954-1.156V744.407c0-.467-.305-1.035-1.361-1.035l-.487-.041c-.061-.019-.121-.081-.142-.223,0-.223.366-.325,1.076-.325a5.311,5.311,0,0,0,2.719-1.156l.2.04.082.081Z" fill="#231f20"/><path d="M750.724,756.786a1.365,1.365,0,0,1-.954-.385,1.305,1.305,0,0,1-.345-.852,1.278,1.278,0,1,1,2.556,0A1.259,1.259,0,0,1,750.724,756.786Z" fill="#231f20"/><path d="M761.825,747.025a4.856,4.856,0,0,1-2.516,1.1l.041.121.425-.04.67-.081a2.907,2.907,0,0,1,2.152.771,4.18,4.18,0,0,1,1.034,1.5,4.635,4.635,0,0,1,.284,1.624,3.907,3.907,0,0,1-.426,1.826,6.647,6.647,0,0,1-1.684,1.927,5.8,5.8,0,0,1-3.9,1.1,5.612,5.612,0,0,1-4.079-1.4,2.9,2.9,0,0,1-.933-2.314,1.935,1.935,0,0,1,1.055-1.908,1.876,1.876,0,0,1,.771-.162,1.583,1.583,0,0,1,1.3.588,1.891,1.891,0,0,1,.466,1.178,1.762,1.762,0,0,1-.283.973l-.325-.446a.669.669,0,0,0-.589-.284c-.486,0-.751.325-.751.873a2.019,2.019,0,0,0,.894,1.664,3.329,3.329,0,0,0,2.07.67,3.493,3.493,0,0,0,2.76-1.116,3.674,3.674,0,0,0,1.014-2.5,3.289,3.289,0,0,0-3.591-3.411,6.015,6.015,0,0,0-1.3.1l-.63.122-.142-.061-.06-.142c0-.162.243-.3.73-.426l1.664-.568c1.948-.894,2.415-1.928,2.415-3.146a2.383,2.383,0,0,0-2.578-2.6,2.654,2.654,0,0,0-2.009.73,1.7,1.7,0,0,0-.689,1.177.86.86,0,0,0,.629.771c.386.122.608.467.67,1.035a1.29,1.29,0,0,1-1.3,1.218,1.686,1.686,0,0,1-1.583-1.888,2.682,2.682,0,0,1,1.034-2.232,6.36,6.36,0,0,1,2.01-1.137,6.507,6.507,0,0,1,2.11-.324,4.966,4.966,0,0,1,3.044.872,2.7,2.7,0,0,1,1.178,2.274A2.434,2.434,0,0,1,761.825,747.025Z" fill="#231f20"/><path d="M590.8,771.064l4.509,3.638q.973.77.973,1.231,0,1.074-.973,1.075H584.861v2.05a.148.148,0,0,1-.05.1l1.024-.973,6.609,4q1.026.666,1.026,1.177a1.166,1.166,0,0,1-.871,1.077,1.761,1.761,0,0,0-.974.717v6.559q0,.768-1.076,1.024l5.277,4a2.391,2.391,0,0,1,.871,1.743c-.136.582-.633.888-1.485.922q-1.385.052-3.024.154l-5.584,2,1.126.718c.546.512.821.9.821,1.178q0,.564-.871,1.025l-1.384.563a40.591,40.591,0,0,1-12.655,9.633q-7.123,3.432-23.263,5.124l-.2-.974a53.866,53.866,0,0,0,14.346-5.892,2.608,2.608,0,0,1-.973-.769,5.075,5.075,0,0,1-.871-2.408,4.765,4.765,0,0,0-.615-2.306.506.506,0,0,0-.206-.307,9.376,9.376,0,0,1-.973.666,40.818,40.818,0,0,1-10.5,3.792l-.409-.615a36.936,36.936,0,0,0,6.046-6.3,33.449,33.449,0,0,0,3.381-5.739,15.755,15.755,0,0,0,.922-2.254h-4.2a3.866,3.866,0,0,1,.051.615q-.206,3.534-1.69,5.123a4.073,4.073,0,0,1-2.819,1.845,5.219,5.219,0,0,1-3.33-.974,4.018,4.018,0,0,1-1.179-2.767q0-1.792,3.33-3.176a5.954,5.954,0,0,0,3.332-3.228,3.188,3.188,0,0,1-.513.1q-1.436,0-1.435-2.05v-9.889a19.3,19.3,0,0,0-.41-3.894l10.4,3.535h19.83l2.152-1.9c-.172.034-.325.07-.461.1q-6.354.717-6.764.718-1.385,0-1.383-2.255v-1.589H568v2.05q0,.819-1.383,1.076-6.2.717-6.559.718-1.435,0-1.434-2.05v-1.794h-4.714a36.173,36.173,0,0,0-5.38.41l-.82-2.254a46.739,46.739,0,0,0,6.2.409h4.714v-1.485a14.983,14.983,0,0,0-.41-3.434l9.325.667q1.947.1,1.947.922a1.182,1.182,0,0,1-.718,1.127,1.091,1.091,0,0,0-.768.718v1.485h7.225v-1.485a14.572,14.572,0,0,0-.461-3.638l9.53.666q2,.1,2,.922a1.18,1.18,0,0,1-.769,1.127,1.245,1.245,0,0,0-.666.718v1.69h2.255Zm-5.021,24.185,1.793-2.1q-3.639.411-4,.41a1.285,1.285,0,0,1-1.332-1.178H560.677q0,.821-1.383,1.076-2.409.306-3.843.461c.17.479.308.922.409,1.332Zm-25.107-4.3h1.844v-7.584h-1.844Zm15.167,9.837,3.893-3.893,4.663,3.125,1.793-3.33h-21.98l7.07,1.127q1.024.411,1.026,1.127c0,.41-.326.684-.974.82q-.566.205-1.076.358c-.205.205-.41.428-.615.666Zm-10.2,3.639a5.787,5.787,0,0,1,2.665.974,3.645,3.645,0,0,1,1.947,3.074,45.905,45.905,0,0,0,5.38-6.3h-7.481A29.069,29.069,0,0,1,565.647,804.421Zm4.817-13.476h1.845v-7.584h-1.845Zm9.889,0H582.2v-7.584h-1.844Z" fill="#231f20"/><path d="M598.368,791.3a31.366,31.366,0,0,0,4,.358l3.382-2.818,5.328,3.587q1.231.615,1.23,1.127,0,.411-.666.973a.939.939,0,0,0-.615.718v10.862q0,2,2.664,3.433,2.871,1.077,16.4,1.076,5.122,0,17.677-1.28v.87a18.282,18.282,0,0,0-3.074,9.019h-11.12q-11.22,0-16.549-1.23-3.332-1.181-6.866-6.969c-.172-.41-.41-.615-.717-.615-.274,0-.53.189-.769.564a39.579,39.579,0,0,1-4.406,6.866,2,2,0,0,1-1.384,1.384q-1.075,0-1.435-1.692l-2.869-8.967,2.255-.256q1.845-.153,1.845-1.178V793.2q-1.743.105-3.485.359Zm2.46-17.831q6.505,0,8.5,1.691a4.859,4.859,0,0,1,.82,7.378,4.46,4.46,0,0,1-3.228,1.435,3.166,3.166,0,0,1-2.511-1.332,5.824,5.824,0,0,1-1.024-2.767,5.111,5.111,0,0,0-.717-2.613,7.782,7.782,0,0,0-2.307-2.716Zm19.675-2.409,7.993,1.282q1.64.308,1.64,1.127c0,.377-.274.666-.82.871a1.188,1.188,0,0,0-.871.615l-.154.769h3.023l3.894-4.3,6.61,4.15q.819.413.82.974,0,.411-.769.974a1.358,1.358,0,0,0-.666.871v3.74l3.074-3.945,2.563,3.228a3.245,3.245,0,0,1,.717,1.075q0,1.077-1.486,1.076h-8.608l5.585,3.331q.972.667.973,1.178a1.152,1.152,0,0,1-.666,1.076,1.4,1.4,0,0,0-.717.769v2.869a.837.837,0,0,1-.256.615l3.382,2.716q.972.769.973,1.179,0,.972-.871.973h-9.582v6h1.64l3.843-4.714,4.713,3.792q1.077.821,1.077,1.28,0,1.077-1.025,1.076H636.284v2.665q0,.768-1.434,1.025-5.945.821-6.4.819-1.385,0-1.383-2.049V805.7h-7.994a38.94,38.94,0,0,0-5.585.41l-.819-2.255q1.485.154,2.869.257v-5.687q-.872.153-1.793.307l-.871-2.254a37.94,37.94,0,0,0,5.585.41h8.557a9.845,9.845,0,0,0-.41-2.46l9.222.667q1.9.151,1.9.922a1.085,1.085,0,0,1-.359.871h1.179L641,793.865q-5.637.77-5.994.769a1.441,1.441,0,0,1-1.537-1.435h-9.736v1.23q0,.821-1.281,1.076-5.688.719-6.046.718-1.486,0-1.486-2V786.8a18.964,18.964,0,0,0-.256-3.126q-1.23.1-2.357.308l-.82-2.255a37.275,37.275,0,0,0,5.483.41h.819l1.333-4.919a26.672,26.672,0,0,0-4,.41l-.769-2.255a36.784,36.784,0,0,0,5.125.36l.41-1.589A13.668,13.668,0,0,0,620.5,771.064Zm12.3,15.372,3.023-2.87H616.455l8.557,2.87Zm-9.069,5.278h9.684v-3.843h-9.684Zm3.331,12.553v-6h-2.716v6Zm-.206-22.135h5.124v-4.919h-4.047Z" fill="#231f20"/><path d="M668.99,779.878q-1.588.205-3.126.409v7.02l2.869-3.33,4.151,3.279q1.024.769,1.025,1.229,0,.975-1.076.974h-6.969v3.279a13.641,13.641,0,0,1,4.971,2.408,5.405,5.405,0,0,1,2,4,5.773,5.773,0,0,1-.974,3.228,3.957,3.957,0,0,1-2.869,1.485q-2.2,0-3.074-4.149a.211.211,0,0,0-.052-.154v18.189q0,.871-1.28,1.127-5.944.769-6.047.77-1.64,0-1.64-2.05V805.7a51.677,51.677,0,0,1-6.762,4.3l-.41-.666a108.633,108.633,0,0,0,6.2-19.881h-.718a26.59,26.59,0,0,0-4.919.461l-.768-2.254a40.2,40.2,0,0,0,5.687.409h1.69v-6.712q-3.792.36-6.609.359l-.153-.615a58.12,58.12,0,0,0,11.272-8.249,10.175,10.175,0,0,0,1.844-2.2l7.584,7.584q.819.718.819,1.23-.153.768-1.281.768A6.074,6.074,0,0,1,668.99,779.878Zm25.568,16.345,4.253,4.048q.715.717.716,1.126a1.039,1.039,0,0,1-1.024,1.179l-5.79,1.179v13.834q0,.921-1.485,1.229-6.663.819-7.123.821-1.383,0-1.383-2.255V805.7l-11.478,2.255a24.217,24.217,0,0,0-2.92.769l-1.178-1.64q1.536-.2,2.869-.41l12.707-2.511v-29.41a16.984,16.984,0,0,0-.41-3.69l9.735.718q2.151.205,2.152,1.127a1.487,1.487,0,0,1-.718,1.332,1.377,1.377,0,0,0-.768.923v25.978Zm-23.109-4.714q6.3,0,8.148,1.69a5.066,5.066,0,0,1,.819,7.379,4.632,4.632,0,0,1-3.279,1.435,2.922,2.922,0,0,1-2.357-1.384,5.872,5.872,0,0,1-.923-2.818,5.593,5.593,0,0,0-.716-2.665,7.277,7.277,0,0,0-2.153-2.766Zm1.179-13.681q5.943,0,7.737,1.793a5.51,5.51,0,0,1,1.947,4.356,4.8,4.8,0,0,1-1.333,3.279,4.521,4.521,0,0,1-3.176,1.434,2.409,2.409,0,0,1-2.1-1.383,6.277,6.277,0,0,1-.922-2.92,6.42,6.42,0,0,0-.615-2.716,8.082,8.082,0,0,0-1.895-2.869Z" fill="#231f20"/><path d="M733.925,770.654l10.043,3.536q1.433.462,1.434,1.383,0,.615-1.128.718a2.156,2.156,0,0,0-1.127.513l-8.5,6.967h3.688l3.126-3.74,7.481,5.534a2.536,2.536,0,0,1,.921,1.844q-.2,1.026-1.537,1.076-1.434.1-3.125.205l-7.788,2.05-1.025-.615,2.255-4.97h-29a15.094,15.094,0,0,1,.1,1.64q-.2,3.588-1.742,5.124a4.331,4.331,0,0,1-2.972,1.844,5.007,5.007,0,0,1-3.279-.974,3.72,3.72,0,0,1-1.229-2.664q0-2.408,3.484-4.2a7.091,7.091,0,0,0,3.689-5.483h.973a20.064,20.064,0,0,1,.769,3.33h21.776q1.691-7.735,2.2-9.837A26.324,26.324,0,0,0,733.925,770.654Zm-23.98,19.266a39.716,39.716,0,0,0,5.74.41h11.067l3.638-3.689,7.941,5.534a1.851,1.851,0,0,1,.666,1.383.829.829,0,0,1-.871.769c-.547.034-.939.069-1.178.1l-7.737,3.382.819.1q1.846.154,1.845,1.025a1.454,1.454,0,0,1-.819,1.333,1.375,1.375,0,0,0-.871.921v.974h8.454l4.3-5.072,4.869,4.15q1.279.973,1.28,1.537,0,.871-1.28.871H730.185v8.2q0,3.073-1.538,4.355-2,1.639-9.888,3.024a12.5,12.5,0,0,0-2.05-4.869,9.04,9.04,0,0,0-3.945-2.51v-.871h6.353q1.281,0,1.281-.973v-6.354H708.46a47.293,47.293,0,0,0-6.149.41l-.82-2.254a69.052,69.052,0,0,0,6.969.358H720.4v-1.384a16.966,16.966,0,0,0-.41-3.688l4.1.307,3.382-5.687H715.685a26.865,26.865,0,0,0-4.971.461Zm-2.254-17.882q5.892,1.59,7.583,3.074a3.367,3.367,0,0,1,1.588,2.716,5.494,5.494,0,0,1-1.28,3.535A4.914,4.914,0,0,1,712,782.9a2.345,2.345,0,0,1-1.794-.973q-.768-.768-.922-3.74a9.3,9.3,0,0,0-2.2-5.278Zm11.836-1.384q5.943,1.743,7.686,3.331a3.9,3.9,0,0,1,1.588,3.023,5.379,5.379,0,0,1-1.383,3.638,5.1,5.1,0,0,1-3.792,1.64,2.245,2.245,0,0,1-1.69-1.025q-.769-.923-.872-4.048a10.932,10.932,0,0,0-2.152-5.79Z" fill="#231f20"/><path d="M795.065,780.441l4.817,4q1.077.819,1.076,1.383a.861.861,0,0,1-.974.974h-7.838v18.5q0,.872-1.435,1.178-6.3.873-6.713.871-1.64,0-1.639-2.306v-1.588H778.67v3.228q0,.871-1.537,1.127-6.252.768-6.712.768-1.385,0-1.384-2.254V786.8H765.5V814.31h21.98l4.458-5.585,5.38,4.458q1.231.972,1.23,1.537,0,.972-1.23.972H765.5v2.05q0,.871-1.486,1.127-6.252.769-6.712.77-1.385,0-1.384-2.255V786.9q-1.741.1-3.535.308l-.769-2.255q2.153.256,4.3.359v-9.171a16.352,16.352,0,0,0-.409-3.639l9.376.666q2.1.207,2.1.923a1.51,1.51,0,0,1-.768,1.383,1.427,1.427,0,0,0-.717.871v9.018h3.535V774.754a16.984,16.984,0,0,0-.41-3.69l9.428.666q2.049.154,2.049.974a1.465,1.465,0,0,1-.768,1.332,1.286,1.286,0,0,0-.666.923v10.4h3.689V774.754a16.984,16.984,0,0,0-.41-3.69l9.736.718q2.151.205,2.151,1.127a1.454,1.454,0,0,1-.819,1.332,1.533,1.533,0,0,0-.871.923v8.915Zm-12.706,21.572V786.8H778.67v15.218Z" fill="#231f20"/><path d="M809.174,770.654l7.583,3.331q1.434.667,1.434,1.383a.9.9,0,0,1-.666.82c-.546.069-.888.121-1.024.154a9.246,9.246,0,0,1-1.076.768l7.635,3.434q1.485.666,1.485,1.383a.924.924,0,0,1-.769.82c-.581.068-.939.12-1.076.153a80.923,80.923,0,0,1-11.426,8.916q2.768-.051,7.072-.205a10.418,10.418,0,0,0-1.436-3.126l.41-.614q5.176,1.793,6.661,3.586a5.294,5.294,0,0,1,.564.666,37.692,37.692,0,0,0-.41-4.714l10.3,3.331h4.047V776.547H827.773a25.872,25.872,0,0,0-4.868.461l-.819-2.254a40.2,40.2,0,0,0,5.687.41h10.042l3.485-3.945,7.173,4.3q1.076.718,1.076,1.282a1.479,1.479,0,0,1-.512,1.229,1.293,1.293,0,0,0-.513.769v14.552q0,.871-1.537,1.126-6.454.77-6.866.769-1.641,0-1.64-2.255v-.819h-4.713v15.576a1.564,1.564,0,0,0,.615,1.332q1.178.719,4.662.718l3.894-.1q2.051,0,2.562-1.128a20.9,20.9,0,0,0,1.179-5.533h.973q0,4.2.82,4.714a6.355,6.355,0,0,0,3.484,1.589q-.821,5.022-2.356,6.968-1.8,1.946-6.149,1.947l-4.407.153q-8.914,0-11.374-.717-3.126-.719-3.126-4.816v-2.613a3.844,3.844,0,0,1-2.921,1.332,2.63,2.63,0,0,1-1.946-1.025q-.924-.871-1.076-4.1a7.748,7.748,0,0,0-.206-1.281v12.4q0,.715-1.281.973-5.584.666-5.687.667-1.486,0-1.486-1.845v-7.635a14.008,14.008,0,0,1-1.742,2.563,19.743,19.743,0,0,1-5.38,4.662l-.41-.615q.666-3.179,1.127-6.713.411-3.483.565-6.25.1-1.845.1-2.87l.615.154a3.688,3.688,0,0,1-.307-.717l-2.1-8.454a24.627,24.627,0,0,0,4.509.41q1.28-1.846,2.511-3.69a4.54,4.54,0,0,1-1.537.256,2.227,2.227,0,0,1-1.691-1.076q-.77-.768-.871-3.791a10.079,10.079,0,0,0-2.152-5.431l.41-.564q1.947.564,3.382,1.127.972-2.817,1.69-5.585Q808.918,772.141,809.174,770.654ZM806,801.039l3.945,1.024v-3.689q-1.383.666-2.613,1.179a3.294,3.294,0,0,0-.768.923A2.191,2.191,0,0,1,806,801.039Zm6.2-17.575q.564-1.076,1.128-2.152a18.931,18.931,0,0,0,1.64-3.945,46.755,46.755,0,0,1-5.176,2.869,5.51,5.51,0,0,1,.923.717A4.348,4.348,0,0,1,812.2,783.464Zm12.349,21.059v-7.276a2.407,2.407,0,0,1-.358.461,4.191,4.191,0,0,1-3.177,1.435q-.77,0-1.487-1.076-.614-.871-.768-4v-.256a3.368,3.368,0,0,0-.359.206v6.814q4.2,1.589,5.636,3.125A7.211,7.211,0,0,1,824.545,804.523Z" fill="#231f20"/><path d="M648.526,830a5.967,5.967,0,0,0-2.047-.352,5.645,5.645,0,0,0-5.056,2.72,12.694,12.694,0,0,0-1.76,7.1c0,5.6,2.56,8.894,6.5,8.894a6.146,6.146,0,0,0,4.127-1.407,8.411,8.411,0,0,0,2.368-3.168l1.216.832a7.952,7.952,0,0,1-2.527,3.424,11.286,11.286,0,0,1-2.912,1.536,9.115,9.115,0,0,1-2.88.415,8.741,8.741,0,0,1-6.08-2.048,11.6,11.6,0,0,1-3.136-4.1,12.49,12.49,0,0,1-.8-4.7,9.981,9.981,0,0,1,2.048-6.719,11.525,11.525,0,0,1,3.968-3.232,10.46,10.46,0,0,1,4.351-.864,7.919,7.919,0,0,1,5.441,1.888,7.142,7.142,0,0,1,1.983,2.368l-1.216.864A6.348,6.348,0,0,0,648.526,830Z" fill="#231f20"/><path d="M658.019,841.549h5.152v-5.6h3.007v13.568h-3.007V842.7h-5.152v6.816h-3.008V827.342h3.008Z" fill="#231f20"/><path d="M676.987,840.045l1.184,4c.256.992.544,2.016.9,3.1.352,1.057.577,1.857.736,2.369h-3.072l-1.215-4.161h-5.088l-1.216,4.161H667.9l1.375-5.12,1.121-4.1c.352-1.313,1.087-3.809,1.568-4.1l.607-.48a1.979,1.979,0,0,1,.992-.256,3.019,3.019,0,0,1,1.856.672A12,12,0,0,1,676.987,840.045Zm-3.584-2.207-.16-.192-.287-.1a.621.621,0,0,0-.48.447l-1.76,6.208H675.2Z" fill="#231f20"/><path d="M691.045,835.949V848.94a.939.939,0,0,1-.992.993,1.217,1.217,0,0,1-.96-.416l-6.432-11.135-.128-.129-.16-.031-.16.063-.031.128v11.1h-1.313V838c0-1.407.609-2.527,2.017-2.527a1.97,1.97,0,0,1,1.151.351l.672.513a8.848,8.848,0,0,1,.928,1.247l1.12,1.984,1.28,2.336,1.279,2.272a.515.515,0,0,0,.257.1c.159-.128.159-.16.159-.192v-8.128Z" fill="#231f20"/><path d="M702.254,837.262a2.782,2.782,0,0,0-2.112-.672c-2.72,0-4.064,2.176-4.064,6.015a8.115,8.115,0,0,0,1.12,4.512,3.289,3.289,0,0,0,2.72,1.632,2.69,2.69,0,0,0,2.623-2.561V842.7h2.624v12.351h-2.624v-6.3a4.835,4.835,0,0,1-3.136,1.184,6.03,6.03,0,0,1-3.551-1.216,6.926,6.926,0,0,1-2.3-2.624,8.134,8.134,0,0,1-.608-3.328,6.868,6.868,0,0,1,1.28-4.383,7.678,7.678,0,0,1,2.528-2.273,6.556,6.556,0,0,1,2.88-.639,5.485,5.485,0,0,1,5.119,3.04l-1.12.607A4.6,4.6,0,0,0,702.254,837.262Z" fill="#231f20"/><path d="M709.8,837.485a1.031,1.031,0,0,0-.256.737v3.424h4.928v1.311h-4.928v4.384a.9.9,0,0,0,1.024.928h5.152v1.248h-7.3c-1.312,0-1.888-.705-1.888-2.08v-9.215a3,3,0,0,1,.448-1.729,1.739,1.739,0,0,1,1.344-.544h7.232v1.313h-4.928A1.347,1.347,0,0,0,709.8,837.485Z" fill="#231f20"/><path d="M726.145,840.045l1.183,4c.256.992.544,2.016.9,3.1.351,1.057.576,1.857.735,2.369h-3.071l-1.216-4.161h-5.088l-1.216,4.161h-1.311l1.375-5.12,1.12-4.1c.352-1.313,1.088-3.809,1.568-4.1l.608-.48a1.976,1.976,0,0,1,.992-.256,3.018,3.018,0,0,1,1.855.672A12.018,12.018,0,0,1,726.145,840.045Zm-3.584-2.207-.161-.192-.287-.1a.621.621,0,0,0-.48.447l-1.76,6.208h4.48Z" fill="#231f20"/><path d="M740.266,837.9a6.855,6.855,0,0,1,1.92,4.993,5.9,5.9,0,0,1-2.816,5.5,6.818,6.818,0,0,1-3.968,1.121h-5.5V827.342h3.008v8.607l.928-.031.96-.032A7.106,7.106,0,0,1,740.266,837.9Zm-6.175-.864-.513.032h-.672V848.4l.641.1,1.056.064a5.527,5.527,0,0,0,3.423-1.056c.736-.48,1.12-1.856,1.12-4.063C739.146,839.5,737.771,837.037,734.091,837.037Z" fill="#231f20"/><path d="M745.856,833.742a1.742,1.742,0,0,1-1.759-1.7,2.116,2.116,0,0,1,.448-1.216,1.933,1.933,0,0,1,1.311-.576,1.774,1.774,0,0,1,1.728,1.792A1.693,1.693,0,0,1,745.856,833.742Zm1.472,15.775H744.32V835.949h3.008Z" fill="#231f20"/><path d="M752.71,847.533c0,.512.352.863.992.863h1.344v1.121H751.59c-1.407,0-1.888-.609-1.888-1.984V827.342h3.008Z" fill="#231f20"/><path d="M757.846,833.742a1.743,1.743,0,0,1-1.76-1.7,2.116,2.116,0,0,1,.448-1.216,1.936,1.936,0,0,1,1.312-.576,1.774,1.774,0,0,1,1.727,1.792A1.693,1.693,0,0,1,757.846,833.742Zm1.471,15.775H756.31V835.949h3.007Z" fill="#231f20"/><path d="M767.1,849.517h-3.008V837.069h-2.912v-1.12h8.832v1.12H767.1Z" fill="#231f20"/><path d="M775.052,855.052h-1.44l2.335-5.535L770.6,835.949h3.167l3.777,9.6,4-9.6h1.376Z" fill="#231f20"/><path d="M799.562,847.885a5.775,5.775,0,0,1-4.735,2.048c-2.143,0-3.712-.609-5.727-2.785a6.766,6.766,0,0,1-1.472-4.735,6.959,6.959,0,0,1,1.151-4.031,5.872,5.872,0,0,1,5.312-2.912,7.046,7.046,0,0,1,5.024,2.08,7.18,7.18,0,0,1,2.144,5.439A7.523,7.523,0,0,1,799.562,847.885Zm-2.271-9.344a2.983,2.983,0,0,0-5.567-.256,9.146,9.146,0,0,0-.96,4.384,10.477,10.477,0,0,0,.863,4.352,3.088,3.088,0,0,0,2.912,1.919,2.907,2.907,0,0,0,2.624-1.727,9.2,9.2,0,0,0,.96-4.416A9.655,9.655,0,0,0,797.291,838.541Z" fill="#231f20"/><path d="M805.493,830.254v5.695h3.136v1.313h-3.136v12.255h-3.008V831.47c0-2.944.96-4.128,4.288-4.128h.672l1.088.032v1.216h-1.311C805.653,828.687,805.653,829.486,805.493,830.254Z" fill="#231f20"/><path d="M821.781,829.9a3.1,3.1,0,0,0-2.56,1.088,3.567,3.567,0,0,0-.864,2.3,3.068,3.068,0,0,0,1.376,2.752,18.838,18.838,0,0,0,3.2,1.632,10.606,10.606,0,0,1,3.328,1.951,5.24,5.24,0,0,1,1.5,4,5.714,5.714,0,0,1-2.048,4.7,7.5,7.5,0,0,1-4.96,1.663,7.011,7.011,0,0,1-3.84-1.023,8,8,0,0,1-2.367-2.241l1.5-1.119a4.579,4.579,0,0,0,4.224,2.783,3.238,3.238,0,0,0,2.528-1.055,3.694,3.694,0,0,0,1.088-2.88c0-1.792-.9-3.071-4.64-4.416a10.258,10.258,0,0,1-3.264-1.888,4.565,4.565,0,0,1-1.408-3.647,5.689,5.689,0,0,1,1.152-3.744,6.179,6.179,0,0,1,2.432-1.92,7.849,7.849,0,0,1,3.04-.512,6.245,6.245,0,0,1,4.031,1.216,5.807,5.807,0,0,1,1.952,2.464l-1.343.9A4.176,4.176,0,0,0,821.781,829.9Z" fill="#231f20"/><path d="M834.84,849.517h-3.008V837.069H828.92v-1.12h8.832v1.12H834.84Z" fill="#231f20"/><path d="M848.989,841.773a3.4,3.4,0,0,1-2.367,1.121l3.552,6.623h-3.616l-3.2-6.72a3.238,3.238,0,0,0,2.592-.863,3.316,3.316,0,0,0,.544-1.985c0-1.792-.735-2.687-2.527-2.912h-1.952v12.48h-3.008V835.949h5.983c3.04,0,4.672,1.664,4.672,3.68A3.62,3.62,0,0,1,848.989,841.773Z" fill="#231f20"/><path d="M859.834,840.045l1.184,4c.255.992.544,2.016.9,3.1.352,1.057.576,1.857.735,2.369h-3.071l-1.216-4.161h-5.088l-1.215,4.161h-1.312l1.375-5.12,1.12-4.1c.353-1.313,1.088-3.809,1.569-4.1l.607-.48a1.976,1.976,0,0,1,.992-.256,3.022,3.022,0,0,1,1.856.672A12.025,12.025,0,0,1,859.834,840.045Zm-3.584-2.207-.16-.192-.287-.1a.623.623,0,0,0-.481.447l-1.76,6.208h4.48Z" fill="#231f20"/><path d="M874.5,835.949V848.94a.939.939,0,0,1-.992.993,1.217,1.217,0,0,1-.96-.416l-6.432-11.135-.128-.129-.16-.031-.16.063-.031.128v11.1h-1.313V838c0-1.407.609-2.527,2.017-2.527a1.97,1.97,0,0,1,1.151.351l.672.513a8.848,8.848,0,0,1,.928,1.247l1.12,1.984,1.28,2.336,1.28,2.272a.5.5,0,0,0,.256.1c.16-.128.16-.16.16-.192v-8.128Z" fill="#231f20"/><path d="M885.741,837.262a2.782,2.782,0,0,0-2.112-.672c-2.72,0-4.064,2.176-4.064,6.015a8.106,8.106,0,0,0,1.121,4.512,3.287,3.287,0,0,0,2.719,1.632,2.689,2.689,0,0,0,2.623-2.561V842.7h2.624v12.351h-2.624v-6.3a4.834,4.834,0,0,1-3.135,1.184,6.033,6.033,0,0,1-3.552-1.216,6.934,6.934,0,0,1-2.3-2.624,8.135,8.135,0,0,1-.607-3.328,6.873,6.873,0,0,1,1.279-4.383,7.678,7.678,0,0,1,2.528-2.273,6.563,6.563,0,0,1,2.88-.639,5.482,5.482,0,0,1,5.119,3.04l-1.12.607A4.589,4.589,0,0,0,885.741,837.262Z" fill="#231f20"/><path d="M893.254,837.485a1.031,1.031,0,0,0-.256.737v3.424h4.928v1.311H893v4.384a.9.9,0,0,0,1.024.928h5.152v1.248h-7.3c-1.312,0-1.888-.705-1.888-2.08v-9.215a3,3,0,0,1,.448-1.729,1.739,1.739,0,0,1,1.344-.544h7.232v1.313h-4.928A1.348,1.348,0,0,0,893.254,837.485Z" fill="#231f20"/><path d="M919.014,830.8a10.82,10.82,0,0,1,3.584,4.032,11.535,11.535,0,0,1,.96,4.9c0,6.046-4.321,9.791-9.92,9.791h-8.064v-20.7h5.5C914.63,828.814,917.254,829.486,919.014,830.8Zm-1.056,2.559a8.192,8.192,0,0,0-2.977-2.4,8.384,8.384,0,0,0-3.359-.64h-2.24v17.759h3.04c4.479,0,7.04-2.848,7.04-8.7C919.462,836.525,918.949,834.51,917.958,833.357Z" fill="#231f20"/><path d="M935.371,841.773A3.4,3.4,0,0,1,933,842.894l3.551,6.623h-3.616l-3.2-6.72a3.238,3.238,0,0,0,2.592-.863,3.316,3.316,0,0,0,.544-1.985c0-1.792-.735-2.687-2.527-2.912H928.4v12.48h-3.008V835.949h5.983c3.04,0,4.672,1.664,4.672,3.68A3.627,3.627,0,0,1,935.371,841.773Z" fill="#231f20"/><path d="M941.2,837.485a1.031,1.031,0,0,0-.256.737v3.424h4.928v1.311h-4.928v4.384a.9.9,0,0,0,1.025.928h5.151v1.248h-7.3c-1.311,0-1.888-.705-1.888-2.08v-9.215a3,3,0,0,1,.449-1.729,1.735,1.735,0,0,1,1.343-.544h7.232v1.313h-4.928A1.35,1.35,0,0,0,941.2,837.485Z" fill="#231f20"/><path d="M957.548,840.045l1.183,4c.256.992.544,2.016.9,3.1.351,1.057.576,1.857.735,2.369h-3.071l-1.216-4.161h-5.088l-1.216,4.161h-1.311l1.375-5.12,1.12-4.1c.353-1.313,1.088-3.809,1.568-4.1l.608-.48a1.976,1.976,0,0,1,.992-.256,3.016,3.016,0,0,1,1.855.672A11.994,11.994,0,0,1,957.548,840.045Zm-3.584-2.207-.16-.192-.287-.1a.623.623,0,0,0-.481.447l-1.76,6.208h4.48Z" fill="#231f20"/><path d="M961.493,849.517V837.646a2.056,2.056,0,0,1,2.273-2.176,2.645,2.645,0,0,1,1.855.8,5.636,5.636,0,0,1,.481.992l.639,1.92.768,2.559.96,3.1.927-3.424.641-2.623c.416-1.536.735-2.4,1.151-2.689a1.841,1.841,0,0,1,.672-.479,4.274,4.274,0,0,1,1.12-.16,2.181,2.181,0,0,1,2.273,2.08v11.967h-2.912V837.934c-.032-.288-.193-.353-.288-.353l-.193.065-.159.192-3.072,11.039c-.224.735-.576,1.056-.992,1.056a.724.724,0,0,1-.64-.288,1.331,1.331,0,0,1-.384-.672l-3.3-11.039-.1-.161a.551.551,0,0,0-.16-.064l-.193.1-.063.223v11.488Z" fill="#231f20"/><g id="上海_アリス幻樂団" data-name="上海■アリス幻樂団"><path d="M972.171,921.791a1.327,1.327,0,0,1,.817.254.778.778,0,0,1,.356.714l-.063,2.308h3.2a3.827,3.827,0,0,1,1,.084c.155.08.232.255.232.527a1.44,1.44,0,0,1-.2.747.663.663,0,0,1-.54.271c-.175,0-.535-.016-1.08-.05q-.772-.016-1.4-.017-.494,0-1.281.017l-.092,3.31a54.469,54.469,0,0,1,6.405.73,3.5,3.5,0,0,1-.463,1.544.792.792,0,0,1-.664.493,4.945,4.945,0,0,1-1.189-.255,19.575,19.575,0,0,0-5.216-.746,15.251,15.251,0,0,0-5.092.814,3.384,3.384,0,0,1-1.035.255.816.816,0,0,1-.586-.323.914.914,0,0,1-.277-.611.977.977,0,0,1,.74-1.086,20.125,20.125,0,0,1,5.494-.815l-.062-7.2a.88.88,0,0,1,.278-.68A.9.9,0,0,1,972.171,921.791Z" fill="#231f20"/><path d="M965.627,943.308l2.593.067c.288.091.432.232.432.425,0,.294-.294.559-.88.8a17.237,17.237,0,0,1-2.1.628.819.819,0,0,1-.479-.272.77.77,0,0,1-.247-.543,1.669,1.669,0,0,1,.2-.765Q965.382,943.309,965.627,943.308Zm1.111-4.414q.4,0,1.143.763,1.188,1.206,1.187,1.478a.371.371,0,0,1-.416.424,2.2,2.2,0,0,1-.617-.119,7.608,7.608,0,0,0-1.467-.2q-.771-.084-.771-1.239a1.158,1.158,0,0,1,.293-.78A.938.938,0,0,1,966.738,938.894Zm1.1,7.69a.229.229,0,0,1,.263.254q0,.306-.232,2.326a.731.731,0,0,1-.834.73,1.113,1.113,0,0,1-.724-.238,1.03,1.03,0,0,1-.309-.763,1.161,1.161,0,0,1,.231-.544l1.266-1.544C967.628,946.657,967.741,946.584,967.834,946.584Zm3.72-4.771a.993.993,0,0,1,.6.17.2.2,0,0,1,.077.051q1-.067,2.578-.067,2.5,0,3.163.084c.206.023.308.108.308.255a2.083,2.083,0,0,1-.123.374,11.332,11.332,0,0,0-.463,1.952q.91.068,1.929.169a2.743,2.743,0,0,1-.354,1.273c-.175.3-.361.442-.556.442a3,3,0,0,1-.91-.238q-.2-.051-.387-.1c-.03.17-.057.345-.077.526s-.067.357-.108.527c.473.034.9.062,1.281.084.175.035.262.1.262.205a1.289,1.289,0,0,1-.2.747.652.652,0,0,1-.54.288q-.277,0-1.127-.069a3.881,3.881,0,0,1-.494,1.071c-.247.418-.529.628-.849.628a1.326,1.326,0,0,1-1.126-.816,2.761,2.761,0,0,0,.7-.984q-1.575-.051-3.827-.051a3.065,3.065,0,0,0-1.173.17,1.1,1.1,0,0,1-.386.119.59.59,0,0,1-.433-.187.491.491,0,0,1-.184-.424,1.954,1.954,0,0,1,.154-.561c.144-.441.287-.887.432-1.341-.134.035-.263.063-.386.085a3.743,3.743,0,0,1-.941.187.5.5,0,0,1-.37-.237.54.54,0,0,1-.186-.374.617.617,0,0,1,.494-.679,14.189,14.189,0,0,1,1.836-.391q.355-1.154.71-2.393A.621.621,0,0,1,971.554,941.813Zm-.387-3.106a2.208,2.208,0,0,1,1,.2.58.58,0,0,1,.293.475,1.128,1.128,0,0,1-.109.425q1.02-.1,2.794-.1a41.806,41.806,0,0,1,4.182.152,2.7,2.7,0,0,1-.277,1.205.436.436,0,0,1-.4.289q-.324,0-1.327-.068-1.605-.151-2.654-.152a20.382,20.382,0,0,0-2.47.136,6.436,6.436,0,0,1-.833.084.258.258,0,0,1-.093-.017.791.791,0,0,0-.123.136,2.978,2.978,0,0,1-1.96,1.239q-.417,0-.417-.288a.623.623,0,0,1,.2-.357,8.844,8.844,0,0,0,1.388-1.765,2.227,2.227,0,0,0,.386-1.053.991.991,0,0,0-.2-.492A2.98,2.98,0,0,1,971.167,938.707Zm1.513,8.42.308-1.409q-.818.033-1.574.119l-.37,1.222c0,.045.129.068.386.068Zm-.88-2.58c.453-.034.941-.057,1.467-.068l.293-1.291q-.756.018-1.374.051Zm3.735,2.631a.141.141,0,0,0,.015-.051q.186-.7.34-1.273a12.169,12.169,0,0,0-1.667-.153l-.309,1.443Q974.778,947.144,975.535,947.178Zm-.741-3.99-.309,1.291q.8,0,1.729.05a7.579,7.579,0,0,0,.2-1.154Q976.414,943.207,974.794,943.188Z" fill="#231f20"/><path d="M978.174,968H966.307V954.877h11.867Z" fill="#231f20"/><path d="M955.564,926.323a12.164,12.164,0,0,1-.154,2.309,3.733,3.733,0,0,1-.972,1.867,5.429,5.429,0,0,1-2.33,1.545,5.086,5.086,0,0,1-1.775.373q-1.281,0-1.28-1.069a2.843,2.843,0,0,1,1.064-2.41q.14.611.926.611a2.055,2.055,0,0,0,2.161-1.46,4.282,4.282,0,0,0,.2-1.069v-.765q0-.865.957-.865a1.849,1.849,0,0,1,.849.135A.841.841,0,0,1,955.564,926.323Zm5.633-2.359a.9.9,0,0,1-.324.695,7.183,7.183,0,0,0-.663.492,1.6,1.6,0,0,0-.51.425q-1.712,2.122-2.3,2.122-.709,0-.71-.645a6.381,6.381,0,0,1,.586-1.358,1.217,1.217,0,0,0,.109-.39c0-.294-.139-.442-.417-.442-.031,0-.35-.01-.956-.034s-.984-.051-1.127-.051a14.953,14.953,0,0,0-2.948.289c-.957.181-1.465.272-1.528.272a.907.907,0,0,1-.57-.221,1.087,1.087,0,0,1-.356-.815,1.125,1.125,0,0,1,.989-1.29,18.554,18.554,0,0,1,2.885-.221q3.333,0,5.632.221a6.409,6.409,0,0,1,1.7.323C961.027,923.482,961.2,923.692,961.2,923.964Z" fill="#231f20"/><path d="M959.3,940.455q0,.306-.154,2.462-.279,3.633-1.946,5.211a5.789,5.789,0,0,1-4.1,1.342,5.122,5.122,0,0,1-1.312-.119q-.819-.221-.818-.917a3.106,3.106,0,0,1,1.42-2.241,1.534,1.534,0,0,0,1.435.578,2.643,2.643,0,0,0,1.79-.816,4.755,4.755,0,0,0,1.266-3.581v-1.053q.015-.678.015-.8,0-.916,1.219-.917a1.525,1.525,0,0,1,.772.205A.746.746,0,0,1,959.3,940.455Zm-6.034-.084q0,.2-.016,1.459-.016,1.275-.016,1.715,0,1.749-1.188,1.749-.926,0-.926-1.239c0-.148-.016-.685-.046-1.614s-.031-1.567-.031-1.918q0-.88,1.157-.882Q953.265,939.641,953.266,940.371Z" fill="#231f20"/><path d="M960.657,965.418q-.741,1.069-1.434,1.069a1.43,1.43,0,0,1-.865-.526c-.124-.112-.33-.305-.618-.577q-.4-.39-.694-.645a14.493,14.493,0,0,0-2.469-1.646q-2.732,2.852-4.814,2.851-.819,0-.819-1.069a4.428,4.428,0,0,1,.88-2.173.808.808,0,0,0,.649.288,3.219,3.219,0,0,0,1.5-.525,7.263,7.263,0,0,0,1.558-1.121,12.2,12.2,0,0,0,.989-1.12,1.907,1.907,0,0,0,.416-.73c0-.182-.149-.272-.448-.272a18.128,18.128,0,0,0-2.684.17q-1.082.135-.988.135a.733.733,0,0,1-.479-.22,1.072,1.072,0,0,1-.339-.866.914.914,0,0,1,1.049-1.018l1.744-.034q1.8-.086,2.7-.085a6.565,6.565,0,0,1,2.5.289.655.655,0,0,1,.463.611.685.685,0,0,1-.262.509,3.768,3.768,0,0,0-.494.475q-.478.612-1.8,2.411a11.02,11.02,0,0,0,3.055,1.63q.664.254,2.006.662c.093.022.211.056.356.1h.015A2.808,2.808,0,0,1,960.657,965.418Z" fill="#231f20"/><path d="M935.378,921.672a.821.821,0,0,1,.663.255,1.1,1.1,0,0,1,.247.678,1.8,1.8,0,0,1-.571,1.155l-1.867,1.749c-.268.294-.4.48-.4.559q0,.255.525.561l.694.306q.957-.918,1.867-1.834a1.292,1.292,0,0,1,.819-.509.788.788,0,0,1,.493.22.847.847,0,0,1,.247.578,2.13,2.13,0,0,1-.71,1.46l-2.932,2.868,2.392.085c.082,0,.123-.062.123-.187a2.581,2.581,0,0,1-.617-.95q0-.476.432-.476.4,0,1.636,1.223,1.019.967,1.019,1.493,0,.747-.556.747a3.894,3.894,0,0,1-.649-.119,15.782,15.782,0,0,0-1.913-.085h-2.052a9.057,9.057,0,0,0-2.006.17,1.738,1.738,0,0,1-.463.17q-.942,0-.942-.679a1.889,1.889,0,0,1,.741-1.34q.88-.781,1.713-1.545a10.926,10.926,0,0,0-1.821-.883q-.695-.237-.694-.577,0-.323.617-1l2.608-3.089Q934.9,921.672,935.378,921.672Zm5.987.611a31.957,31.957,0,0,1,3.287.1c.32.068.479.192.479.374a.856.856,0,0,1-.109.3,2.121,2.121,0,0,0-.215.968l-.093,4.872a4.587,4.587,0,0,1-1.25,3.056,2.99,2.99,0,0,1-2.1.984,1.115,1.115,0,0,1-.848-.441,4.173,4.173,0,0,1-.756-1.663,5.288,5.288,0,0,0,2.484-.934,2.647,2.647,0,0,0,.849-2.173v-3.48c0-.147-.088-.221-.263-.221q-2.236,0-3.6.136a4.788,4.788,0,0,1-.971.153c-.155,0-.309-.107-.463-.323a1.1,1.1,0,0,1-.216-.713c0-.464.282-.769.849-.916A26.2,26.2,0,0,1,941.365,922.283Z" fill="#231f20"/><path d="M933.7,938.894a.561.561,0,0,1,.494.22.842.842,0,0,1,.186.527.808.808,0,0,1-.294.543l-.972.832c-.144.147-.215.237-.215.271s.077.091.231.136l.277.068.664-.662a.81.81,0,0,1,.509-.289c.32,0,.479.2.479.6a.745.745,0,0,1-.325.594l-1.651,1.443c0,.045.047.067.139.067h1.1c.093,0,.14-.022.14-.067a2.5,2.5,0,0,1-.2-.611q0-.255.324-.255.262,0,.787.628a1.729,1.729,0,0,1,.448.866c0,.362-.164.543-.494.543a2.173,2.173,0,0,1-.417-.068h-1.327a12.2,12.2,0,0,0-1.774.1,1.27,1.27,0,0,1-.371.1.373.373,0,0,1-.262-.12.368.368,0,0,1-.124-.3c0-.148.154-.357.463-.629l.85-.882a7.34,7.34,0,0,0-1.066-.459q-.37-.1-.37-.272c0-.113.123-.3.37-.56l1.59-1.765C933.237,939.092,933.511,938.894,933.7,938.894Zm4.445-.323a2.372,2.372,0,0,1,.911.119.288.288,0,0,1,.216.272,1.332,1.332,0,0,1-.155.559,10.7,10.7,0,0,1,1.636.17c.154.035.231.114.231.239q-.077.407-.184,1.205l.169-.187,1.574-1.647q.525-.543.8-.543a.586.586,0,0,1,.494.221.885.885,0,0,1,.185.526.773.773,0,0,1-.325.51l-1.064.746c-.145.125-.216.2-.216.238,0,.057.062.118.185.187l.294.152.555-.526a.822.822,0,0,1,.509-.272q.494,0,.494.6a.675.675,0,0,1-.355.559l-1.682,1.359q0,.051.123.051h.973c.134,0,.2-.017.2-.051a2.257,2.257,0,0,1-.2-.561c0-.169.107-.254.324-.254q.262,0,.74.611a1.538,1.538,0,0,1,.433.815c0,.362-.145.543-.433.543h-1.759a10.58,10.58,0,0,0-1.651.1,1.1,1.1,0,0,1-.37.1.441.441,0,0,1-.294-.153.372.372,0,0,1-.107-.255.511.511,0,0,1-.217.052,1.536,1.536,0,0,1-.246-.052c-.3-.033-.71-.056-1.236-.067l.093.05a1.148,1.148,0,0,1,.4.7q2.409.084,6,.543a2.98,2.98,0,0,1-.431,1.409c-.176.328-.386.492-.633.492a4.389,4.389,0,0,1-1.143-.272,17.962,17.962,0,0,0-3.811-.712l-.03,1.934a3.013,3.013,0,0,1-.325,1.511.839.839,0,0,1-.787.526,1.1,1.1,0,0,1-.8-.339q-.322-.255-.324-1.562v-2.088a18.457,18.457,0,0,0-4.228.628,4.167,4.167,0,0,1-1.08.221.589.589,0,0,1-.416-.238.6.6,0,0,1-.2-.424.756.756,0,0,1,.556-.832,19.637,19.637,0,0,1,5.386-.781,1.1,1.1,0,0,1,.308-.644,1.338,1.338,0,0,1,.155-.119,7.111,7.111,0,0,0-1.019.119.616.616,0,0,1-.2.085c-.195,0-.314-.182-.355-.544l-.325-3.463a.4.4,0,0,1,.294-.407,10.234,10.234,0,0,1,1.188-.17,1.793,1.793,0,0,0,.139-.527c0-.079-.067-.186-.2-.322A6,6,0,0,1,938.14,938.571Zm-2.948,8.488c.082,0,.124.045.124.135a2.439,2.439,0,0,1-.741,1.494,2.613,2.613,0,0,1-1.744,1q-.555,0-.555-.866a1.563,1.563,0,0,1,.262-1.018c.021.09.118.135.293.135a3.254,3.254,0,0,0,1.791-.678A1.328,1.328,0,0,1,935.192,947.059Zm1.992-5.721a7.213,7.213,0,0,1,.91-.051c.37,0,.746.018,1.127.051l.046-.594c0-.056-.037-.1-.109-.119a5.3,5.3,0,0,0-1.126-.085,2.439,2.439,0,0,0-.741.1c-.082.022-.123.056-.123.1Zm.231,1.579a3.959,3.959,0,0,1,.71-.068,4.914,4.914,0,0,1,.817.068c.114,0,.18-.068.2-.2l.03-.492c-.381-.034-.74-.051-1.08-.051s-.633.012-.88.034l.015.645C937.229,942.9,937.291,942.917,937.415,942.917Zm3.147.662c.073-.079.161-.176.263-.289l.987-.934a6.556,6.556,0,0,0-.91-.559.774.774,0,0,1-.17-.1C940.681,942.227,940.625,942.854,940.562,943.579Zm.417,3.548a1.9,1.9,0,0,1,.819.271,7.776,7.776,0,0,0,1.913.815,3.213,3.213,0,0,1-.556,1.239,1.082,1.082,0,0,1-.74.306q-.37,0-.834-.56a3.908,3.908,0,0,1-.786-1.868C940.8,947.194,940.856,947.127,940.979,947.127Z" fill="#231f20"/><path d="M938.14,956.218a38.962,38.962,0,0,1,5.957.305q.54.086.54.373-.309,2.327-.679,9.286c-.02.408-.149.611-.386.611a6.05,6.05,0,0,1-.678-.085q-1.56-.168-4.785-.17a48.559,48.559,0,0,0-5.108.2,3.261,3.261,0,0,1-.6.119c-.2,0-.314-.175-.354-.526l-.618-9.167q0-.492.725-.611A52.655,52.655,0,0,1,938.14,956.218Zm-4.506,8.759q1.266-.035,2.5-.051a.7.7,0,0,1-.139-.17,2.225,2.225,0,0,1-.324-1.273,4.774,4.774,0,0,0,2.176-.39.893.893,0,0,0,.478-.764V960.41a16.023,16.023,0,0,0-3.024.306,8.5,8.5,0,0,1-.926.119.569.569,0,0,1-.433-.2.91.91,0,0,1-.17-.543.736.736,0,0,1,.417-.7,18.172,18.172,0,0,1,4.136-.254v-.816a.78.78,0,0,1,.139-.475h-.324q-2.315,0-4.3.187-.757.067-.757.2l.371,6.6C933.449,964.932,933.511,964.977,933.634,964.977Zm3.472-4.091c.278,0,.416.164.416.492,0,.091-.123.271-.37.543a4.7,4.7,0,0,1-1.188.849,2.549,2.549,0,0,1-1.033.289.422.422,0,0,1-.479-.476,1.924,1.924,0,0,1,.355-1,.252.252,0,0,0,.247.118,2.226,2.226,0,0,0,.818-.186,3.724,3.724,0,0,0,.926-.527A.512.512,0,0,1,937.106,960.886Zm2.639-3.039a.459.459,0,0,1,.077.255,4.464,4.464,0,0,0-.061.611v.441q1.172.051,2.453.187a2.746,2.746,0,0,1-.293,1.273.536.536,0,0,1-.447.221,4.658,4.658,0,0,1-.8-.119c-.329-.079-.633-.142-.91-.187v1.987a2.2,2.2,0,0,1-.88,1.918,4.472,4.472,0,0,1-.942.475h4.275c.124,0,.19-.1.2-.289l.355-6.45c0-.091-.134-.153-.4-.187Q941.459,957.881,939.745,957.847Z" fill="#231f20"/></g></g></svg>
