<svg xmlns="http://www.w3.org/2000/svg" width="1000" height="988" viewBox="0 0 1000 988"><g id="Artboard"><rect id="Tint" width="1000" height="988" fill="#58595b"/></g><g id="Outline"><g id="Changeability_of_Strange_Dream" data-name="Changeability of Strange Dream"><path d="M645.551,852a10.733,10.733,0,0,1-7.414-2.558,13.539,13.539,0,0,1-3.657-4.835,14.369,14.369,0,0,1-.945-5.454,11.955,11.955,0,0,1,2.531-8.024,13.365,13.365,0,0,1,4.7-3.768,12.481,12.481,0,0,1,5.133-1.023,9.909,9.909,0,0,1,6.694,2.328,9.122,9.122,0,0,1,2.532,3.061,2,2,0,0,1-.643,2.5l-1.215.864a2.007,2.007,0,0,1-1.16.37,2,2,0,0,1-1.849-1.24,4.392,4.392,0,0,0-2.367-2.318,4.072,4.072,0,0,0-1.415-.25,3.67,3.67,0,0,0-3.378,1.809,10.859,10.859,0,0,0-1.438,6.015c0,1.617.324,6.894,4.5,6.894a4.171,4.171,0,0,0,2.829-.928,6.429,6.429,0,0,0,1.821-2.416,2,2,0,0,1,2.975-.881l1.216.832a2,2,0,0,1,.711,2.433,9.939,9.939,0,0,1-3.191,4.258,13.241,13.241,0,0,1-3.477,1.823A10.98,10.98,0,0,1,645.551,852Z" fill="#fff"/><path d="M645.9,828.334a7.919,7.919,0,0,1,5.441,1.888,7.142,7.142,0,0,1,1.983,2.368l-1.216.864A6.348,6.348,0,0,0,648.526,830a5.967,5.967,0,0,0-2.047-.352,5.645,5.645,0,0,0-5.056,2.72,12.694,12.694,0,0,0-1.76,7.1c0,5.6,2.56,8.894,6.5,8.894a6.146,6.146,0,0,0,4.127-1.407,8.411,8.411,0,0,0,2.368-3.168l1.216.832a7.952,7.952,0,0,1-2.527,3.424,11.286,11.286,0,0,1-2.912,1.536,9.115,9.115,0,0,1-2.88.415,8.741,8.741,0,0,1-6.08-2.048,11.6,11.6,0,0,1-3.136-4.1,12.49,12.49,0,0,1-.8-4.7,9.981,9.981,0,0,1,2.048-6.719,11.525,11.525,0,0,1,3.968-3.232,10.46,10.46,0,0,1,4.351-.864m0-4a14.522,14.522,0,0,0-5.956,1.2,15.293,15.293,0,0,0-5.395,4.287,13.871,13.871,0,0,0-3.016,9.328,16.279,16.279,0,0,0,1.092,6.2,15.491,15.491,0,0,0,4.175,5.575A12.672,12.672,0,0,0,645.551,854a12.952,12.952,0,0,0,4.141-.619,15.049,15.049,0,0,0,3.936-2.049l.069-.049a11.9,11.9,0,0,0,3.854-5.092,4,4,0,0,0-1.422-4.867l-1.216-.832a4,4,0,0,0-5.951,1.762,4.475,4.475,0,0,1-1.279,1.67,2.17,2.17,0,0,1-1.524.444c-2.253,0-2.5-3.423-2.5-4.894a8.972,8.972,0,0,1,1.1-4.9,1.71,1.71,0,0,1,1.719-.926,1.958,1.958,0,0,1,.665.106l.117.041a2.443,2.443,0,0,1,1.15,1.181,4,4,0,0,0,6.017,1.74l1.216-.864a4,4,0,0,0,1.286-5,11,11,0,0,0-3.047-3.723,11.941,11.941,0,0,0-7.981-2.8Z" fill="#fff"/><path d="M663.171,851.517a2,2,0,0,1-2-2V844.7h-1.152v4.816a2,2,0,0,1-2,2h-3.008a2,2,0,0,1-2-2V827.342a2,2,0,0,1,2-2h3.008a2,2,0,0,1,2,2v12.207h1.152v-3.6a2,2,0,0,1,2-2h3.007a2,2,0,0,1,2,2v13.568a2,2,0,0,1-2,2Z" fill="#fff"/><path d="M658.019,827.342v14.207h5.152v-5.6h3.007v13.568h-3.007V842.7h-5.152v6.816h-3.008V827.342h3.008m0-4h-3.008a4,4,0,0,0-4,4v22.175a4,4,0,0,0,4,4h3.008a4,4,0,0,1,5.152,0h3.007a4,4,0,0,0,4-4V835.949a4,4,0,0,0-4-4h-3.007a3.978,3.978,0,0,0-1.152.169v-4.776a4,4,0,0,0-4-4Z" fill="#fff"/><path d="M676.731,851.517a2,2,0,0,1-1.919-1.439l-.795-2.722h-2.09l-.8,2.722a2,2,0,0,1-1.92,1.439H667.9A2,2,0,0,1,665.969,849l1.375-5.119,1.123-4.105c1.052-3.916,1.7-4.769,2.335-5.2l.528-.418a1.944,1.944,0,0,1,.27-.179,3.992,3.992,0,0,1,1.963-.508,5,5,0,0,1,3.056,1.072,1.9,1.9,0,0,1,.214.186c.591.59,1.144,1.591,2.073,4.752l1.183,4c.295,1.138.577,2.115.881,3.054.252.756.443,1.394.591,1.888l.152.5a2,2,0,0,1-1.91,2.594Z" fill="#fff"/><path d="M673.563,835.47a3.019,3.019,0,0,1,1.856.672,12,12,0,0,1,1.568,3.9l1.184,4c.256.992.544,2.016.9,3.1.352,1.057.577,1.857.736,2.369h-3.072l-1.215-4.161h-5.088l-1.216,4.161H667.9l1.375-5.12,1.121-4.1c.352-1.313,1.087-3.809,1.568-4.1l.607-.48a1.979,1.979,0,0,1,.992-.256m-2.847,8.735H675.2l-1.792-6.367-.16-.192-.287-.1a.621.621,0,0,0-.48.447l-1.76,6.208m2.847-12.735a5.972,5.972,0,0,0-2.935.759,3.965,3.965,0,0,0-.538.359l-.488.386c-1.3.921-2.051,2.5-3.07,6.29l-1.115,4.078-1.38,5.137a4,4,0,0,0,3.863,5.038h1.312a4,4,0,0,0,3.76-2.635,4,4,0,0,0,3.759,2.635H679.8a4,4,0,0,0,3.819-5.189q-.065-.207-.145-.481c-.153-.51-.35-1.167-.614-1.961-.286-.883-.549-1.794-.819-2.84-.012-.046-.024-.091-.037-.136l-1.184-4c-.928-3.158-1.6-4.624-2.576-5.6a3.96,3.96,0,0,0-.427-.37,6.972,6.972,0,0,0-4.257-1.473Z" fill="#fff"/><path d="M690.053,851.933a3.22,3.22,0,0,1-2.374-1,1.966,1.966,0,0,1-.318-.414l-3.179-5.5v4.5a2,2,0,0,1-2,2h-1.313a2,2,0,0,1-2-2V838c0-2.708,1.614-4.527,4.017-4.527a3.929,3.929,0,0,1,2.224.664c.048.03.1.063.14.1l.672.513a2.056,2.056,0,0,1,.2.173,10.632,10.632,0,0,1,1.252,1.671l.359.638v-1.277a2,2,0,0,1,2-2h1.313a2,2,0,0,1,2,2V848.94A2.927,2.927,0,0,1,690.053,851.933Z" fill="#fff"/><path d="M682.886,835.47a1.97,1.97,0,0,1,1.151.351l.672.513a8.848,8.848,0,0,1,.928,1.247l1.12,1.984,1.28,2.336,1.279,2.272a.515.515,0,0,0,.257.1c.159-.128.159-.16.159-.192v-8.128h1.313V848.94a.939.939,0,0,1-.992.993,1.217,1.217,0,0,1-.96-.416l-6.432-11.135-.128-.129-.16-.031-.16.063-.031.128v11.1h-1.313V838c0-1.407.609-2.527,2.017-2.527m0-4c-3.487,0-6.017,2.745-6.017,6.527v11.52a4,4,0,0,0,4,4h1.313a4,4,0,0,0,3.456-1.985,3.986,3.986,0,0,0,.626.813,5.2,5.2,0,0,0,3.789,1.588,4.939,4.939,0,0,0,4.992-4.993V835.949a4,4,0,0,0-4-4h-1.313a3.986,3.986,0,0,0-2.745,1.091l-.523-.4c-.091-.069-.184-.134-.28-.195a5.981,5.981,0,0,0-3.3-.976Z" fill="#fff"/><path d="M702.541,857.052a2,2,0,0,1-2-2v-3.219a8.14,8.14,0,0,1-1.078.1h0a8.053,8.053,0,0,1-4.768-1.587,8.869,8.869,0,0,1-2.966-3.434,10.122,10.122,0,0,1-.783-4.146,8.821,8.821,0,0,1,1.713-5.626,9.548,9.548,0,0,1,3.2-2.819,8.611,8.611,0,0,1,3.775-.85,7.151,7.151,0,0,1,4.616,1.436,6.962,6.962,0,0,1,2.338,2.808,2,2,0,0,1-.882,2.554l-.8.433h.262a2,2,0,0,1,2,2v12.351a2,2,0,0,1-2,2Zm-2.4-18.462c-.565,0-2.064,0-2.064,4.015a6.184,6.184,0,0,0,.806,3.435c.5.709.875.709,1.034.709a.723.723,0,0,0,.623-.561V842.7a1.57,1.57,0,0,0,1.23-2.841c-.13-.328-.184-.464-.9-1.159-.021-.02-.043-.041-.063-.063,0,0,0,0-.009,0A4.07,4.07,0,0,0,700.142,838.59Z" fill="#fff"/><path d="M699.63,835.47a5.485,5.485,0,0,1,5.119,3.04l-1.12.607a4.6,4.6,0,0,0-1.375-1.855,2.782,2.782,0,0,0-2.112-.672c-2.72,0-4.064,2.176-4.064,6.015a8.115,8.115,0,0,0,1.12,4.512,3.289,3.289,0,0,0,2.72,1.632,2.69,2.69,0,0,0,2.623-2.561V842.7h2.624v12.351h-2.624v-6.3a4.835,4.835,0,0,1-3.136,1.184,6.03,6.03,0,0,1-3.551-1.216,6.926,6.926,0,0,1-2.3-2.624,8.134,8.134,0,0,1-.608-3.328,6.868,6.868,0,0,1,1.28-4.383,7.678,7.678,0,0,1,2.528-2.273,6.556,6.556,0,0,1,2.88-.639m0-4a10.55,10.55,0,0,0-4.615,1.035l-.054.027a11.49,11.49,0,0,0-3.891,3.386,10.771,10.771,0,0,0-2.128,6.847,12.093,12.093,0,0,0,.958,4.964,10.75,10.75,0,0,0,3.567,4.2l.062.045a10.111,10.111,0,0,0,5.012,1.922v1.158a4,4,0,0,0,4,4h2.624a4,4,0,0,0,4-4V842.7a8.5,8.5,0,0,1-.746-5.783,9.479,9.479,0,0,0-8.789-5.448Z" fill="#fff"/><path d="M708.424,851.517c-2.4,0-3.888-1.564-3.888-4.08v-9.215a4.945,4.945,0,0,1,.8-2.868,2.073,2.073,0,0,1,.166-.208,3.706,3.706,0,0,1,2.822-1.2h7.232a2,2,0,0,1,2,2v1.313a2,2,0,0,1-2,2h-4.016v.384h2.928a2,2,0,0,1,2,2v1.311a2,2,0,0,1-2,2h-2.928v1.312h4.176a2,2,0,0,1,2,2v1.248a2,2,0,0,1-2,2Z" fill="#fff"/><path d="M715.56,835.949v1.313h-4.928a1.347,1.347,0,0,0-.832.223,1.031,1.031,0,0,0-.256.737v3.424h4.928v1.311h-4.928v4.384a.9.9,0,0,0,1.024.928h5.152v1.248h-7.3c-1.312,0-1.888-.705-1.888-2.08v-9.215a3,3,0,0,1,.448-1.729,1.739,1.739,0,0,1,1.344-.544h7.232m0-4h-7.232a5.73,5.73,0,0,0-4.3,1.85,4.02,4.02,0,0,0-.332.417,6.888,6.888,0,0,0-1.16,4.006v9.215c0,3.636,2.366,6.08,5.888,6.08h7.3a4,4,0,0,0,4-4v-1.248a4,4,0,0,1-1.248-5.312v-1.311a4,4,0,0,1,1.088-4.384v-1.313a4,4,0,0,0-4-4Z" fill="#fff"/><path d="M725.889,851.517a2,2,0,0,1-1.92-1.439l-.8-2.722h-2.09l-.795,2.722a2,2,0,0,1-1.92,1.439h-1.311A2,2,0,0,1,715.126,849l1.375-5.119,1.123-4.105c1.052-3.916,1.7-4.769,2.335-5.2l.528-.418a1.944,1.944,0,0,1,.27-.179,3.993,3.993,0,0,1,1.964-.508,4.992,4.992,0,0,1,3.055,1.072,1.818,1.818,0,0,1,.214.186c.591.59,1.144,1.591,2.073,4.752l1.183,4c.3,1.138.577,2.115.881,3.054.252.756.443,1.394.591,1.888l.152.5a2,2,0,0,1-1.91,2.594Z" fill="#fff"/><path d="M722.721,835.47a3.018,3.018,0,0,1,1.855.672,12.018,12.018,0,0,1,1.569,3.9l1.183,4c.256.992.544,2.016.9,3.1.351,1.057.576,1.857.735,2.369h-3.071l-1.216-4.161h-5.088l-1.216,4.161h-1.311l1.375-5.12,1.12-4.1c.352-1.313,1.088-3.809,1.568-4.1l.608-.48a1.976,1.976,0,0,1,.992-.256m-2.848,8.735h4.48l-1.792-6.367-.161-.192-.287-.1a.621.621,0,0,0-.48.447l-1.76,6.208m2.848-12.735a5.976,5.976,0,0,0-2.936.759,3.965,3.965,0,0,0-.538.359l-.488.386c-1.3.921-2.051,2.5-3.069,6.29l-1.116,4.078-1.379,5.137a4,4,0,0,0,3.863,5.038h1.311a4,4,0,0,0,3.76-2.635,4,4,0,0,0,3.76,2.635h3.071a4,4,0,0,0,3.819-5.189c-.042-.138-.091-.3-.145-.481-.153-.51-.35-1.167-.614-1.961-.286-.883-.549-1.794-.819-2.84-.011-.046-.024-.091-.037-.136l-1.184-4c-.928-3.158-1.6-4.624-2.575-5.6a4.07,4.07,0,0,0-.428-.37,6.972,6.972,0,0,0-4.256-1.473Z" fill="#fff"/><path d="M729.9,851.517a2,2,0,0,1-2-2V827.342a2,2,0,0,1,2-2h3.008a2,2,0,0,1,2,2v6.546a9.008,9.008,0,0,1,6.825,2.652,8.786,8.786,0,0,1,2.455,6.354,7.906,7.906,0,0,1-3.663,7.136,8.75,8.75,0,0,1-5.121,1.487Zm5.008-4.963a3.471,3.471,0,0,0,1.919-.663,6.145,6.145,0,0,0,.321-2.453c0-3.337-1.019-4.162-2.24-4.349Z" fill="#fff"/><path d="M732.906,827.342v8.607l.928-.031.96-.032a7.106,7.106,0,0,1,5.472,2.015,6.855,6.855,0,0,1,1.92,4.993,5.9,5.9,0,0,1-2.816,5.5,6.818,6.818,0,0,1-3.968,1.121h-5.5V827.342h3.008m1.7,21.215a5.527,5.527,0,0,0,3.423-1.056c.736-.48,1.12-1.856,1.12-4.063,0-3.937-1.375-6.4-5.055-6.4l-.513.032h-.672V848.4l.641.1,1.056.064m-1.7-25.215H729.9a4,4,0,0,0-4,4v22.175a4,4,0,0,0,4,4h5.5a10.846,10.846,0,0,0,6.256-1.84,9.848,9.848,0,0,0,4.528-8.783,10.9,10.9,0,0,0-3.024-7.752,10.282,10.282,0,0,0-6.256-3.114v-4.686a4,4,0,0,0-4-4Z" fill="#fff"/><path d="M744.32,851.517a2,2,0,0,1-2-2V835.949a1.994,1.994,0,0,1,.68-1.5,3.647,3.647,0,0,1-.9-2.4,4.066,4.066,0,0,1,.8-2.355,2.3,2.3,0,0,1,.158-.2,3.9,3.9,0,0,1,2.588-1.227c.07-.007.14-.011.21-.011a3.764,3.764,0,0,1,3.728,3.792,3.681,3.681,0,0,1-.9,2.433,2,2,0,0,1,.643,1.47v13.568a2,2,0,0,1-2,2Z" fill="#fff"/><path d="M745.856,830.254a1.774,1.774,0,0,1,1.728,1.792,1.693,1.693,0,0,1-1.728,1.7,1.742,1.742,0,0,1-1.759-1.7,2.116,2.116,0,0,1,.448-1.216,1.933,1.933,0,0,1,1.311-.576m1.472,5.695v13.568H744.32V835.949h3.008m-1.472-9.695a3.958,3.958,0,0,0-.421.022,5.885,5.885,0,0,0-3.864,1.879,4.17,4.17,0,0,0-.315.4,6.077,6.077,0,0,0-1.159,3.493,5.609,5.609,0,0,0,.525,2.376,4,4,0,0,0-.3,1.527v13.568a4,4,0,0,0,4,4h3.008a4,4,0,0,0,4-4V835.949a4,4,0,0,0-.285-1.487,5.638,5.638,0,0,0,.541-2.416,5.766,5.766,0,0,0-5.728-5.792Z" fill="#fff"/><path d="M751.59,851.517c-2.471,0-3.888-1.453-3.888-3.984V827.342a2,2,0,0,1,2-2h3.008a2,2,0,0,1,2,2V846.4h.336a2,2,0,0,1,2,2v1.121a2,2,0,0,1-2,2Z" fill="#fff"/><path d="M752.71,827.342v20.191c0,.512.352.863.992.863h1.344v1.121H751.59c-1.407,0-1.888-.609-1.888-1.984V827.342h3.008m0-4H749.7a4,4,0,0,0-4,4v20.191c0,3.635,2.311,5.984,5.888,5.984h3.456a4,4,0,0,0,4-4V848.4a4,4,0,0,0-2.336-3.638V827.342a4,4,0,0,0-4-4Z" fill="#fff"/><path d="M756.31,851.517a2,2,0,0,1-2-2V835.949a1.993,1.993,0,0,1,.679-1.5,3.647,3.647,0,0,1-.9-2.4,4.068,4.068,0,0,1,.8-2.355,2.109,2.109,0,0,1,.157-.2,3.913,3.913,0,0,1,2.588-1.227c.07-.007.14-.011.211-.011a3.764,3.764,0,0,1,3.727,3.792,3.681,3.681,0,0,1-.9,2.433,2,2,0,0,1,.643,1.47v13.568a2,2,0,0,1-2,2Z" fill="#fff"/><path d="M757.846,830.254a1.774,1.774,0,0,1,1.727,1.792,1.693,1.693,0,0,1-1.727,1.7,1.743,1.743,0,0,1-1.76-1.7,2.116,2.116,0,0,1,.448-1.216,1.936,1.936,0,0,1,1.312-.576m1.471,5.695v13.568H756.31V835.949h3.007m-1.471-9.695a3.963,3.963,0,0,0-.422.022,5.885,5.885,0,0,0-3.864,1.879,4.007,4.007,0,0,0-.314.4,6.071,6.071,0,0,0-1.16,3.493,5.609,5.609,0,0,0,.525,2.376,4,4,0,0,0-.3,1.527v13.568a4,4,0,0,0,4,4h3.007a4,4,0,0,0,4-4V835.949a4,4,0,0,0-.285-1.487,5.638,5.638,0,0,0,.541-2.416,5.766,5.766,0,0,0-5.727-5.792Z" fill="#fff"/><path d="M764.089,851.517a2,2,0,0,1-2-2V839.069h-.912a2,2,0,0,1-2-2v-1.12a2,2,0,0,1,2-2h8.832a2,2,0,0,1,2,2v1.12a2,2,0,0,1-2,2H769.1v10.448a2,2,0,0,1-2,2Z" fill="#fff"/><path d="M770.009,835.949v1.12H767.1v12.448h-3.008V837.069h-2.912v-1.12h8.832m0-4h-8.832a4,4,0,0,0-4,4v1.12a4,4,0,0,0,2.912,3.851v8.6a4,4,0,0,0,4,4H767.1a4,4,0,0,0,4-4v-8.6a4,4,0,0,0,2.912-3.851v-1.12a4,4,0,0,0-4-4Z" fill="#fff"/><path d="M773.612,857.052a2,2,0,0,1-1.842-2.778l2.017-4.784-5.044-12.808a2,2,0,0,1,1.861-2.733h3.167a2,2,0,0,1,1.862,1.268l1.968,5,2.1-5.041a2,2,0,0,1,1.847-1.231h1.376a2,2,0,0,1,1.849,2.762l-7.871,19.1a2,2,0,0,1-1.849,1.239Z" fill="#fff"/><path d="M782.923,835.949l-7.871,19.1h-1.44l2.335-5.535L770.6,835.949h3.167l3.777,9.6,4-9.6h1.376m0-4h-1.376a4,4,0,0,0-3.693,2.462l-.2.481-.16-.407a4,4,0,0,0-3.723-2.536H770.6a4,4,0,0,0-3.721,5.466l4.745,12.05-1.7,4.032a4,4,0,0,0,3.685,5.555h1.44a4,4,0,0,0,3.7-2.476l7.871-19.1a4,4,0,0,0-3.7-5.524Zm0,8h0Z" fill="#fff"/><path d="M794.827,851.933c-2.856,0-4.941-.993-7.194-3.425a8.737,8.737,0,0,1-2-6.1,8.937,8.937,0,0,1,1.5-5.162,8.488,8.488,0,0,1,3.155-2.931,8.67,8.67,0,0,1,3.806-.85A9.024,9.024,0,0,1,800.5,836.1a9.129,9.129,0,0,1,2.762,6.885,9.5,9.5,0,0,1-2.146,6.158A7.781,7.781,0,0,1,794.827,851.933Zm-.384-13.44c-.2,0-.538,0-.98.779a7.222,7.222,0,0,0-.7,3.4,8.444,8.444,0,0,0,.687,3.531c.342.679.7.74,1.088.74.206,0,.487,0,.876-.7a7.3,7.3,0,0,0,.708-3.444,7.706,7.706,0,0,0-.647-3.416C795.064,838.493,794.69,838.493,794.443,838.493Z" fill="#fff"/><path d="M794.091,835.47a7.046,7.046,0,0,1,5.024,2.08,7.18,7.18,0,0,1,2.144,5.439,7.523,7.523,0,0,1-1.7,4.9,5.775,5.775,0,0,1-4.735,2.048c-2.143,0-3.712-.609-5.727-2.785a6.766,6.766,0,0,1-1.472-4.735,6.959,6.959,0,0,1,1.151-4.031,5.872,5.872,0,0,1,5.312-2.912m.448,13.47a2.907,2.907,0,0,0,2.624-1.727,9.2,9.2,0,0,0,.96-4.416,9.655,9.655,0,0,0-.832-4.256,2.983,2.983,0,0,0-5.567-.256,9.146,9.146,0,0,0-.96,4.384,10.477,10.477,0,0,0,.863,4.352,3.088,3.088,0,0,0,2.912,1.919m-.448-17.47a10.61,10.61,0,0,0-4.648,1.036l-.052.026a10.558,10.558,0,0,0-3.91,3.587,10.9,10.9,0,0,0-1.853,6.294,10.65,10.65,0,0,0,2.516,7.431c2.661,2.873,5.252,4.089,8.683,4.089a9.676,9.676,0,0,0,7.839-3.524,11.458,11.458,0,0,0,2.593-7.42,11.217,11.217,0,0,0-11.168-11.519Z" fill="#fff"/><path d="M802.485,851.517a2,2,0,0,1-2-2V831.47c0-4.181,2-6.128,6.288-6.128h.672l1.148.033a2,2,0,0,1,1.94,2v1.216a2,2,0,0,1-2,2h-1.04v3.359h1.136a2,2,0,0,1,2,2v1.313a2,2,0,0,1-2,2h-1.136v10.255a2,2,0,0,1-2,2Z" fill="#fff"/><path d="M807.445,827.342l1.088.032v1.216h-1.311c-1.569.1-1.569.9-1.729,1.664v5.695h3.136v1.313h-3.136v12.255h-3.008V831.47c0-2.944.96-4.128,4.288-4.128h.672m0-4h-.672c-5.422,0-8.288,2.81-8.288,8.128v18.047a4,4,0,0,0,4,4h3.008a4,4,0,0,0,4-4v-8.349a4,4,0,0,0,3.136-3.906v-1.313a4,4,0,0,1-.1-7.359v-1.216a4,4,0,0,0-3.881-4l-1.088-.032c-.04,0-.079,0-.119,0Z" fill="#fff"/><path d="M820.757,852a8.992,8.992,0,0,1-4.914-1.336,10.017,10.017,0,0,1-2.947-2.8,2,2,0,0,1,.459-2.728l1.5-1.119a2,2,0,0,1,2.991.723,2.528,2.528,0,0,0,2.428,1.664,1.242,1.242,0,0,0,1.047-.4,1.854,1.854,0,0,1,.133-.133c.119-.108.436-.4.436-1.4,0-.566,0-1.343-3.316-2.534a12.271,12.271,0,0,1-3.893-2.255,6.479,6.479,0,0,1-2.1-5.162,7.65,7.65,0,0,1,1.611-5.02,8.083,8.083,0,0,1,3.254-2.511,9.656,9.656,0,0,1,3.759-.645,8.189,8.189,0,0,1,5.286,1.659,7.7,7.7,0,0,1,2.587,3.366,2,2,0,0,1-.779,2.319l-1.344.9a2,2,0,0,1-2.976-.945c-.586-1.522-1.44-1.727-2.2-1.727-.719,0-.907.227-1.018.362a1.559,1.559,0,0,0-.406,1.03c0,.71.244.93.472,1.079a16.711,16.711,0,0,0,2.856,1.451,12.512,12.512,0,0,1,3.888,2.3,7.269,7.269,0,0,1,2.192,5.509,7.657,7.657,0,0,1-2.786,6.255A9.455,9.455,0,0,1,820.757,852Z" fill="#fff"/><path d="M821.205,828.334a6.245,6.245,0,0,1,4.031,1.216,5.807,5.807,0,0,1,1.952,2.464l-1.343.9a4.176,4.176,0,0,0-4.064-3.008,3.1,3.1,0,0,0-2.56,1.088,3.567,3.567,0,0,0-.864,2.3,3.068,3.068,0,0,0,1.376,2.752,18.838,18.838,0,0,0,3.2,1.632,10.606,10.606,0,0,1,3.328,1.951,5.24,5.24,0,0,1,1.5,4,5.714,5.714,0,0,1-2.048,4.7,7.5,7.5,0,0,1-4.96,1.663,7.011,7.011,0,0,1-3.84-1.023,8,8,0,0,1-2.367-2.241l1.5-1.119a4.579,4.579,0,0,0,4.224,2.783,3.238,3.238,0,0,0,2.528-1.055,3.694,3.694,0,0,0,1.088-2.88c0-1.792-.9-3.071-4.64-4.416a10.258,10.258,0,0,1-3.264-1.888,4.565,4.565,0,0,1-1.408-3.647,5.689,5.689,0,0,1,1.152-3.744,6.179,6.179,0,0,1,2.432-1.92,7.849,7.849,0,0,1,3.04-.512m0-4a11.7,11.7,0,0,0-4.539.8,10.037,10.037,0,0,0-4.006,3.068,9.594,9.594,0,0,0-2.079,6.3,8.417,8.417,0,0,0,2.8,6.677q.486.418,1.008.791a3.9,3.9,0,0,0-.721.427l-1.5,1.119a4,4,0,0,0-.92,5.456,12.012,12.012,0,0,0,3.528,3.367A10.961,10.961,0,0,0,820.757,854a11.415,11.415,0,0,0,7.52-2.589,9.629,9.629,0,0,0,3.488-7.778A9.114,9.114,0,0,0,829,836.71c-.036-.034-.073-.067-.11-.1-.2-.175-.408-.345-.619-.509l1.141-.761a4,4,0,0,0,1.56-4.636,9.655,9.655,0,0,0-3.221-4.269,10.132,10.132,0,0,0-6.542-2.1Z" fill="#fff"/><path d="M831.832,851.517a2,2,0,0,1-2-2V839.069h-.912a2,2,0,0,1-2-2v-1.12a2,2,0,0,1,2-2h8.832a2,2,0,0,1,2,2v1.12a2,2,0,0,1-2,2h-.912v10.448a2,2,0,0,1-2,2Z" fill="#fff"/><path d="M837.752,835.949v1.12H834.84v12.448h-3.008V837.069H828.92v-1.12h8.832m0-4H828.92a4,4,0,0,0-4,4v1.12a4,4,0,0,0,2.912,3.851v8.6a4,4,0,0,0,4,4h3.008a4,4,0,0,0,4-4v-8.6a4,4,0,0,0,2.912-3.851v-1.12a4,4,0,0,0-4-4Z" fill="#fff"/><path d="M846.558,851.517a2,2,0,0,1-1.806-1.14l-.738-1.551v.691a2,2,0,0,1-2,2h-3.008a2,2,0,0,1-2-2V835.949a2,2,0,0,1,2-2h5.983c4.584,0,6.672,2.945,6.672,5.68a5.638,5.638,0,0,1-1.033,3.291l-.068.093a4.485,4.485,0,0,1-1.081.976l2.458,4.582a2,2,0,0,1-1.763,2.946Zm-2.544-10.765a1.57,1.57,0,0,0,.373-.1,1.886,1.886,0,0,0,.106-.706,1.5,1.5,0,0,0-.11-.743h0a.958.958,0,0,0-.369-.135Z" fill="#fff"/><path d="M844.989,835.949c3.04,0,4.672,1.664,4.672,3.68a3.62,3.62,0,0,1-.672,2.144,3.4,3.4,0,0,1-2.367,1.121l3.552,6.623h-3.616l-3.2-6.72a3.238,3.238,0,0,0,2.592-.863,3.316,3.316,0,0,0,.544-1.985c0-1.792-.735-2.687-2.527-2.912h-1.952v12.48h-3.008V835.949h5.983m0-4h-5.983a4,4,0,0,0-4,4v13.568a4,4,0,0,0,4,4h3.008a4,4,0,0,1,4.544,0h3.616a4,4,0,0,0,3.525-5.891l-1.715-3.2c.051-.06.1-.119.145-.177s.094-.122.138-.185a7.6,7.6,0,0,0,1.394-4.438c0-3.816-2.979-7.68-8.672-7.68Z" fill="#fff"/><path d="M859.578,851.517a2,2,0,0,1-1.92-1.439l-.795-2.722h-2.09l-.794,2.722a2,2,0,0,1-1.92,1.439h-1.312A2,2,0,0,1,848.815,849l1.375-5.119,1.123-4.105c1.052-3.916,1.7-4.769,2.335-5.2l.529-.418a2,2,0,0,1,.269-.179,4,4,0,0,1,1.964-.508,5,5,0,0,1,3.056,1.072,2,2,0,0,1,.214.186c.591.59,1.143,1.591,2.073,4.752l1.183,4c.294,1.138.577,2.115.88,3.054.252.756.444,1.394.591,1.888l.153.5a2,2,0,0,1-1.911,2.594Z" fill="#fff"/><path d="M856.41,835.47a3.022,3.022,0,0,1,1.856.672,12.025,12.025,0,0,1,1.568,3.9l1.184,4c.255.992.544,2.016.9,3.1.352,1.057.576,1.857.735,2.369h-3.071l-1.216-4.161h-5.088l-1.215,4.161h-1.312l1.375-5.12,1.12-4.1c.353-1.313,1.088-3.809,1.569-4.1l.607-.48a1.976,1.976,0,0,1,.992-.256m-2.848,8.735h4.48l-1.792-6.367-.16-.192-.287-.1a.623.623,0,0,0-.481.447l-1.76,6.208m2.848-12.735a5.976,5.976,0,0,0-2.936.759,4.094,4.094,0,0,0-.538.359l-.487.386c-1.3.921-2.052,2.5-3.07,6.29l-1.115,4.078-1.38,5.137a4,4,0,0,0,3.863,5.038h1.312a4,4,0,0,1,7.519,0h3.071a4,4,0,0,0,3.82-5.189c-.043-.138-.091-.3-.146-.481-.152-.51-.349-1.167-.614-1.961-.285-.883-.549-1.794-.818-2.84-.012-.046-.024-.091-.038-.136l-1.183-4c-.929-3.158-1.6-4.624-2.576-5.6a3.96,3.96,0,0,0-.427-.37,6.972,6.972,0,0,0-4.257-1.473Z" fill="#fff"/><path d="M873.507,851.933a3.22,3.22,0,0,1-2.374-1,1.966,1.966,0,0,1-.318-.414l-3.179-5.5v4.5a2,2,0,0,1-2,2h-1.313a2,2,0,0,1-2-2V838c0-2.708,1.615-4.527,4.017-4.527a3.929,3.929,0,0,1,2.224.664c.048.03.1.063.14.1l.672.513a2.056,2.056,0,0,1,.2.173,10.632,10.632,0,0,1,1.252,1.671l.36.638v-1.277a2,2,0,0,1,2-2H874.5a2,2,0,0,1,2,2V848.94A2.927,2.927,0,0,1,873.507,851.933Z" fill="#fff"/><path d="M866.34,835.47a1.97,1.97,0,0,1,1.151.351l.672.513a8.848,8.848,0,0,1,.928,1.247l1.12,1.984,1.28,2.336,1.28,2.272a.5.5,0,0,0,.256.1c.16-.128.16-.16.16-.192v-8.128H874.5V848.94a.939.939,0,0,1-.992.993,1.217,1.217,0,0,1-.96-.416l-6.432-11.135-.128-.129-.16-.031-.16.063-.031.128v11.1h-1.313V838c0-1.407.609-2.527,2.017-2.527m0-4c-3.486,0-6.017,2.745-6.017,6.527v11.52a4,4,0,0,0,4,4h1.313a2.143,2.143,0,0,1,4.082-1.172,5.2,5.2,0,0,0,3.789,1.588,4.939,4.939,0,0,0,4.992-4.993V835.949a4,4,0,0,0-4-4h-1.312a3.987,3.987,0,0,0-2.746,1.091l-.523-.4c-.091-.069-.184-.134-.28-.195a5.981,5.981,0,0,0-3.3-.976Z" fill="#fff"/><path d="M886.028,857.052a2,2,0,0,1-2-2v-3.219a8.124,8.124,0,0,1-1.078.1h0a8.048,8.048,0,0,1-4.767-1.587,8.88,8.88,0,0,1-2.967-3.434,10.123,10.123,0,0,1-.782-4.146,8.815,8.815,0,0,1,1.713-5.626,9.539,9.539,0,0,1,3.2-2.819,8.6,8.6,0,0,1,3.774-.85,7.149,7.149,0,0,1,4.616,1.436,6.962,6.962,0,0,1,2.338,2.808,2,2,0,0,1-.882,2.554l-.8.433h.261a2,2,0,0,1,2,2v12.351a2,2,0,0,1-2,2Zm-2.4-18.462c-.565,0-2.064,0-2.064,4.015a6.184,6.184,0,0,0,.806,3.435c.5.709.875.709,1.034.709a.723.723,0,0,0,.623-.561V842.7a1.57,1.57,0,0,0,1.231-2.841c-.131-.328-.185-.464-.9-1.159-.022-.02-.043-.041-.064-.063,0,0,0,0-.009,0A4.07,4.07,0,0,0,883.629,838.59Z" fill="#fff"/><path d="M883.117,835.47a5.482,5.482,0,0,1,5.119,3.04l-1.12.607a4.589,4.589,0,0,0-1.375-1.855,2.782,2.782,0,0,0-2.112-.672c-2.72,0-4.064,2.176-4.064,6.015a8.106,8.106,0,0,0,1.121,4.512,3.287,3.287,0,0,0,2.719,1.632,2.689,2.689,0,0,0,2.623-2.561V842.7h2.624v12.351h-2.624v-6.3a4.834,4.834,0,0,1-3.135,1.184,6.033,6.033,0,0,1-3.552-1.216,6.934,6.934,0,0,1-2.3-2.624,8.135,8.135,0,0,1-.607-3.328,6.873,6.873,0,0,1,1.279-4.383,7.678,7.678,0,0,1,2.528-2.273,6.563,6.563,0,0,1,2.88-.639m0-4a10.553,10.553,0,0,0-4.615,1.035l-.054.027a11.478,11.478,0,0,0-3.89,3.386,10.771,10.771,0,0,0-2.128,6.847,12.093,12.093,0,0,0,.957,4.964,10.758,10.758,0,0,0,3.567,4.2l.062.045a10.111,10.111,0,0,0,5.012,1.922v1.158a4,4,0,0,0,4,4h2.624a4,4,0,0,0,4-4V842.7a8.516,8.516,0,0,1-.746-5.783,9.476,9.476,0,0,0-8.789-5.448Z" fill="#fff"/><path d="M891.878,851.517c-2.4,0-3.888-1.564-3.888-4.08v-9.215a4.945,4.945,0,0,1,.8-2.868,2.073,2.073,0,0,1,.166-.208,3.706,3.706,0,0,1,2.822-1.2h7.232a2,2,0,0,1,2,2v1.313a2,2,0,0,1-2,2H895v.384h2.928a2,2,0,0,1,2,2v1.311a2,2,0,0,1-2,2H895v1.312h4.176a2,2,0,0,1,2,2v1.248a2,2,0,0,1-2,2Z" fill="#fff"/><path d="M899.014,835.949v1.313h-4.928a1.348,1.348,0,0,0-.832.223,1.031,1.031,0,0,0-.256.737v3.424h4.928v1.311H893v4.384a.9.9,0,0,0,1.024.928h5.152v1.248h-7.3c-1.312,0-1.888-.705-1.888-2.08v-9.215a3,3,0,0,1,.448-1.729,1.739,1.739,0,0,1,1.344-.544h7.232m0-4h-7.232a5.73,5.73,0,0,0-4.3,1.85,4.02,4.02,0,0,0-.332.417,6.888,6.888,0,0,0-1.16,4.006v9.215c0,3.636,2.366,6.08,5.888,6.08h7.3a4,4,0,0,0,4-4v-1.248a4,4,0,0,1-1.248-5.312v-1.311a4,4,0,0,1,1.088-4.384v-1.313a4,4,0,0,0-4-4Z" fill="#fff"/><path d="M905.574,851.517a2,2,0,0,1-2-2v-20.7a2,2,0,0,1,2-2h5.5c4,0,6.983.779,9.131,2.38a12.587,12.587,0,0,1,4.218,4.827,13.518,13.518,0,0,1,1.131,5.705c0,6.942-4.9,11.791-11.92,11.791Zm6.848-5.44c2.164,0,5.04-.7,5.04-6.7,0-3.067-.639-4.269-1.021-4.711a6.359,6.359,0,0,0-2.233-1.859,6.462,6.462,0,0,0-2.586-.485h-.24v13.759Z" fill="#fff"/><path d="M911.078,828.814c3.552,0,6.176.672,7.936,1.984a10.82,10.82,0,0,1,3.584,4.032,11.535,11.535,0,0,1,.96,4.9c0,6.046-4.321,9.791-9.92,9.791h-8.064v-20.7h5.5m-1.7,19.263h3.04c4.479,0,7.04-2.848,7.04-8.7,0-2.848-.513-4.863-1.5-6.016a8.192,8.192,0,0,0-2.977-2.4,8.384,8.384,0,0,0-3.359-.64h-2.24v17.759m1.7-23.263h-5.5a4,4,0,0,0-4,4v20.7a4,4,0,0,0,4,4h8.064c8.065,0,13.92-5.8,13.92-13.791a15.546,15.546,0,0,0-1.318-6.549,14.53,14.53,0,0,0-4.835-5.586c-2.508-1.868-5.885-2.777-10.327-2.777Zm2.3,19.2v-9.391l.009,0a4.321,4.321,0,0,1,1.5,1.3l.033.039s.536.73.536,3.407c0,3.592-1.024,4.441-2.08,4.642Z" fill="#fff"/><path d="M932.939,851.517a2,2,0,0,1-1.8-1.14l-.738-1.551v.691a2,2,0,0,1-2,2h-3.008a2,2,0,0,1-2-2V835.949a2,2,0,0,1,2-2h5.983c4.584,0,6.672,2.945,6.672,5.68a5.638,5.638,0,0,1-1.033,3.291c-.023.031-.045.062-.069.093a4.446,4.446,0,0,1-1.081.976l2.457,4.582a2,2,0,0,1-1.762,2.946ZM930.4,840.752a1.57,1.57,0,0,0,.373-.1,1.907,1.907,0,0,0,.106-.706,1.5,1.5,0,0,0-.11-.743h0a.958.958,0,0,0-.369-.135Z" fill="#fff"/><path d="M931.371,835.949c3.04,0,4.672,1.664,4.672,3.68a3.627,3.627,0,0,1-.672,2.144A3.4,3.4,0,0,1,933,842.894l3.551,6.623h-3.616l-3.2-6.72a3.238,3.238,0,0,0,2.592-.863,3.316,3.316,0,0,0,.544-1.985c0-1.792-.735-2.687-2.527-2.912H928.4v12.48h-3.008V835.949h5.983m0-4h-5.983a4,4,0,0,0-4,4v13.568a4,4,0,0,0,4,4H928.4a4,4,0,0,1,4.543,0h3.616a4,4,0,0,0,3.525-5.89l-1.714-3.2c.05-.06.1-.119.145-.177s.093-.122.137-.185a7.6,7.6,0,0,0,1.395-4.438c0-3.816-2.979-7.68-8.672-7.68Z" fill="#fff"/><path d="M939.826,851.517c-2.4,0-3.888-1.564-3.888-4.08v-9.215a4.945,4.945,0,0,1,.8-2.868,2.225,2.225,0,0,1,.166-.208,3.707,3.707,0,0,1,2.822-1.2h7.232a2,2,0,0,1,2,2v1.313a2,2,0,0,1-2,2h-4.016v.384h2.928a2,2,0,0,1,2,2v1.311a2,2,0,0,1-2,2h-2.928v1.312h4.176a2,2,0,0,1,2,2v1.248a2,2,0,0,1-2,2Z" fill="#fff"/><path d="M946.962,835.949v1.313h-4.928a1.35,1.35,0,0,0-.832.223,1.031,1.031,0,0,0-.256.737v3.424h4.928v1.311h-4.928v4.384a.9.9,0,0,0,1.025.928h5.151v1.248h-7.3c-1.311,0-1.888-.705-1.888-2.08v-9.215a3,3,0,0,1,.449-1.729,1.735,1.735,0,0,1,1.343-.544h7.232m0-4H939.73a5.73,5.73,0,0,0-4.3,1.85,4.02,4.02,0,0,0-.332.417,6.9,6.9,0,0,0-1.16,4.006v9.215c0,3.636,2.367,6.08,5.888,6.08h7.3a4,4,0,0,0,4-4v-1.248a4,4,0,0,1-1.248-5.312v-1.311a4,4,0,0,1,1.088-4.384v-1.313a4,4,0,0,0-4-4Z" fill="#fff"/><path d="M957.292,851.517a2,2,0,0,1-1.92-1.439l-.795-2.722h-2.09l-.795,2.722a2,2,0,0,1-1.92,1.439h-1.311A2,2,0,0,1,946.529,849l1.375-5.119,1.123-4.105c1.052-3.916,1.7-4.769,2.335-5.2l.529-.418a1.934,1.934,0,0,1,.269-.179,4,4,0,0,1,1.964-.508,5,5,0,0,1,3.056,1.072,2,2,0,0,1,.214.186c.59.59,1.143,1.591,2.073,4.752l1.182,4c.295,1.138.578,2.115.881,3.054.252.756.444,1.394.591,1.888l.152.5a2,2,0,0,1-1.91,2.594Z" fill="#fff"/><path d="M954.124,835.47a3.016,3.016,0,0,1,1.855.672,11.994,11.994,0,0,1,1.569,3.9l1.183,4c.256.992.544,2.016.9,3.1.351,1.057.576,1.857.735,2.369h-3.071l-1.216-4.161h-5.088l-1.216,4.161h-1.311l1.375-5.12,1.12-4.1c.353-1.313,1.088-3.809,1.568-4.1l.608-.48a1.976,1.976,0,0,1,.992-.256m-2.848,8.735h4.48l-1.792-6.367-.16-.192-.287-.1a.623.623,0,0,0-.481.447l-1.76,6.208m2.848-12.735a5.976,5.976,0,0,0-2.936.759,4.094,4.094,0,0,0-.538.359l-.487.386c-1.3.921-2.052,2.5-3.07,6.29l-1.115,4.078-1.38,5.137a4,4,0,0,0,3.863,5.038h1.311a4,4,0,0,1,7.52,0h3.071a4,4,0,0,0,3.82-5.189c-.043-.138-.091-.3-.146-.481-.152-.51-.349-1.167-.614-1.961-.285-.883-.549-1.794-.818-2.84-.012-.046-.025-.091-.038-.136l-1.184-4c-.928-3.158-1.6-4.624-2.575-5.6a4.059,4.059,0,0,0-.427-.37,6.972,6.972,0,0,0-4.257-1.473Z" fill="#fff"/><path d="M967.637,851.933a2.735,2.735,0,0,1-2.115-.929,3.3,3.3,0,0,1-.738-1.2,2,2,0,0,1-1.978,1.708h-1.313a2,2,0,0,1-2-2V837.646a4.042,4.042,0,0,1,4.273-4.176,4.635,4.635,0,0,1,3.361,1.483c.033.038.065.078.1.118a6.314,6.314,0,0,1,.727,1.427c.018.044.034.087.049.132l.31.931a5.8,5.8,0,0,1,1.512-2.92,3.908,3.908,0,0,1,1.225-.838,2.1,2.1,0,0,1,.285-.1,6.279,6.279,0,0,1,1.649-.231,4.185,4.185,0,0,1,4.273,4.08v11.967a2,2,0,0,1-2,2h-2.912a2,2,0,0,1-1.962-1.611A2.965,2.965,0,0,1,967.637,851.933Z" fill="#fff"/><path d="M972.98,835.47a2.181,2.181,0,0,1,2.273,2.08v11.967h-2.912V837.934c-.032-.288-.193-.353-.288-.353l-.193.065-.159.192-3.072,11.039c-.224.735-.576,1.056-.992,1.056a.724.724,0,0,1-.64-.288,1.331,1.331,0,0,1-.384-.672l-3.3-11.039-.1-.161a.551.551,0,0,0-.16-.064l-.193.1-.063.223v11.488h-1.313V837.646a2.056,2.056,0,0,1,2.273-2.176,2.645,2.645,0,0,1,1.855.8,5.636,5.636,0,0,1,.481.992l.639,1.92.768,2.559.96,3.1.927-3.424.641-2.623c.416-1.536.735-2.4,1.151-2.689a1.841,1.841,0,0,1,.672-.479,4.274,4.274,0,0,1,1.12-.16m0-4a8.271,8.271,0,0,0-2.177.3,4.127,4.127,0,0,0-.571.2,5.914,5.914,0,0,0-1.779,1.2c-.047.041-.092.083-.136.126a6.659,6.659,0,0,0-4.551-1.836,6.021,6.021,0,0,0-6.273,6.176v11.871a4,4,0,0,0,4,4h1.313a3.979,3.979,0,0,0,1.95-.507,4.854,4.854,0,0,0,5.669.019,3.983,3.983,0,0,0,1.916.488h2.912a4,4,0,0,0,4-4V837.55a6.187,6.187,0,0,0-6.273-6.08Z" fill="#fff"/></g></g><g id="Text"><path d="M501.424,756.076h3.815a6.062,6.062,0,0,0,5.256-2.7c.406-.487.69-1.218.954-1.218.183,0,.223.122.223.346l-2.577,5.54a.406.406,0,0,1-.162.081l-.162-.081-.164-.427c-.162-.324-.243-1.034-3.206-1.075h-6.413c-.324,0-.487-.122-.426-.386l9.6-13.434H505.1a6.68,6.68,0,0,0-4.728,1.948c-.65.568-.974,1.359-1.3,1.44a.257.257,0,0,1-.2-.365l1.806-4.363.162-.142c.082-.041.163-.02.264.081a1.345,1.345,0,0,0,.994.772c.427.06.792.1,1.055.121.285.02.61.02.955.02h6.453a.434.434,0,0,1,.466.407Z" fill="#231f20"/><path d="M516.566,753.275a3.036,3.036,0,0,0,.853,2.193,4.14,4.14,0,0,0,2.963.851c2.942,0,4.222-1.461,4.222-3.916v-6.251a4.019,4.019,0,0,0-.792-2.78,2.164,2.164,0,0,0-1.34-.589c-.385,0-.609-.081-.65-.263a.264.264,0,0,1,.082-.2l.223-.081h5.094a.332.332,0,0,1,.365.285c-.02.162-.2.244-.507.244a1.709,1.709,0,0,0-1.015.486,3.211,3.211,0,0,0-.669,1.178,6.4,6.4,0,0,0-.244,1.724V752.2a4.518,4.518,0,0,1-1.035,3.409,3.924,3.924,0,0,1-1.6.893,9.3,9.3,0,0,1-1.461.305,8.148,8.148,0,0,1-1.259.081c-3.714,0-5.6-1.482-5.6-4.079v-6.9c0-1.765-.163-2.294-.73-2.761a1.659,1.659,0,0,0-1.1-.344c-.467,0-.71-.1-.75-.284a.263.263,0,0,1,.081-.2l.2-.081h7.226a.307.307,0,0,1,.345.285c-.061.182-.365.284-.873.284a2.356,2.356,0,0,0-1.38.385,3.014,3.014,0,0,0-.65,2.334Z" fill="#231f20"/><path d="M540.538,745.909c.1-1.441-.771-3.126-2.11-3.126-.386,0-.61-.081-.65-.263a.217.217,0,0,1,.081-.2l.224-.081h5.378a.387.387,0,0,1,.264.1l.081.183c-.021.182-.244.263-.629.263a1.762,1.762,0,0,0-1.259.569,5.029,5.029,0,0,0-.832,2.983v7.874a2.443,2.443,0,0,0,1.076.69c.243,0,.365.1.365.285s-.73.365-1.644,1.257l-.324.285a.768.768,0,0,1-.326.223.361.361,0,0,1-.222-.142l-.2-.2L531.1,743.636v8.99a6.823,6.823,0,0,0,.222,1.745,2.5,2.5,0,0,0,.569,1.076,2.157,2.157,0,0,0,1.339.588c.426,0,.629.1.65.284a.3.3,0,0,1-.325.224h-5.3c-.324,0-.426-.041-.426-.224.02-.182.224-.284.609-.284a1.782,1.782,0,0,0,1.258-.527,3.228,3.228,0,0,0,.609-1.3,5.746,5.746,0,0,0,.223-1.3v-9.457a2.012,2.012,0,0,0-1.481-.67h-.183c-.73,0-.974-.04-1.035-.263a.263.263,0,0,1,.081-.2l.224-.081h4.809a.471.471,0,0,1,.365.3l.163.487,7.062,10.553Z" fill="#231f20"/><path d="M547.057,746.984a1.715,1.715,0,0,1-1.076.954l-.2-.041a.21.21,0,0,1-.081-.162c.021-.3.2-.608.751-1.238a2.755,2.755,0,0,0,.528-1.6l-.04-.366a.271.271,0,0,0-.164-.223l-.384.06-.386.041a1.1,1.1,0,0,1-1.2-1.238,1.438,1.438,0,0,1,1.339-1.359,1.35,1.35,0,0,1,1.238.587,4.12,4.12,0,0,1,.487,1.016,3.067,3.067,0,0,1,.121.893A4.485,4.485,0,0,1,547.057,746.984Z" fill="#231f20"/><path d="M557.633,750.049a.239.239,0,0,1,.019.2c-.019.06-.06.081-.162.081-.324,0-.386-.649-1.116-1.461a3.161,3.161,0,0,0-2.517-1.259c-1.3,0-2.029.67-2.029,1.563a1.241,1.241,0,0,0,.994,1.319,15.645,15.645,0,0,0,2.334.427,5.926,5.926,0,0,1,2.334.71,2.135,2.135,0,0,1,1.015,2.05,2.5,2.5,0,0,1-.832,2.008,4.818,4.818,0,0,1-1.5.934,4.477,4.477,0,0,1-1.542.243,6.946,6.946,0,0,1-1.461-.162,5.455,5.455,0,0,0-.832-.1.8.8,0,0,0-.649.3.53.53,0,0,1-.366.325l-.122-.061-.081-.121-1.259-3.9.081-.183a.259.259,0,0,1,.184-.1q.243.03.426.669a3.05,3.05,0,0,0,.751,1.259,9.4,9.4,0,0,0,.872.832,3.585,3.585,0,0,0,2.354.811c1.38,0,2.192-.791,2.192-1.846a1.406,1.406,0,0,0-.121-.67c-.081-.3-.467-.853-1.827-1.035l-2.111-.325a4.65,4.65,0,0,1-1.888-.71,1.976,1.976,0,0,1-.75-1.765c0-1.705,1.461-2.944,3.673-2.944a5.064,5.064,0,0,1,1.1.1l.751.1c.487,0,.609-.467.832-.548a.276.276,0,0,1,.2.122.9.9,0,0,1,.061.264Z" fill="#231f20"/><path d="M576.124,742.459a.535.535,0,0,1,.264-.162l.284-.062h4.282c.243,0,.345.062.406.285-.041.182-.325.284-.832.284a1.59,1.59,0,0,0-1.725,1.258,11.358,11.358,0,0,0-.183,2.395v5.885c0,1.279.061,2.618.548,3.186a2.317,2.317,0,0,0,1.421.488c.548,0,.811.1.811.284a.2.2,0,0,1-.122.2l-.243.041h-7.042c-.406,0-.426-.061-.426-.243.04-.183.3-.265.791-.265a2.237,2.237,0,0,0,1.36-.486,2.412,2.412,0,0,0,.447-1l.081-.893v-10.39l-4.444,8.706c.486.3,1.034.345,1.054.588a2.05,2.05,0,0,1-.751.569,3.083,3.083,0,0,0-1.075,1.035c-.263.426-.406.629-.426.649s-.02.02-.041.02c-.06-.02-.1-.02-.122-.04l-5.174-11.2v8.625c0,2.434.73,3.814,2.13,3.814.386,0,.61.1.65.284-.061.183-.122.224-.345.224h-5.257c-.324,0-.446-.061-.446-.224.021-.182.224-.284.629-.284a1.96,1.96,0,0,0,1.238-.507,4.653,4.653,0,0,0,.832-3.186v-6.961c0-1.237-.162-1.785-.73-2.252a1.55,1.55,0,0,0-1.035-.346c-.406,0-.629-.1-.67-.284a.247.247,0,0,1,.082-.183l.3-.081h4.161a.549.549,0,0,1,.223.041l.162.061,4.3,9.254Z" fill="#231f20"/><path d="M585.688,754.574a1.565,1.565,0,0,0,.284.913,1.276,1.276,0,0,0,.994.346,2.686,2.686,0,0,0,1.3-.386c.466-.263.791-.426.954-.527a4.617,4.617,0,0,0,.507-.346v-4.5a1,1,0,0,0-.3-.811c-.143-.184-.508-.284-1.056-.284l-.487-.021a.2.2,0,0,1-.122-.2c.02-.224.386-.345,1.1-.345a5.034,5.034,0,0,0,2.678-1.177l.223.041.061.081V754.7c.081.791.386,1.2.934,1.258s.872.183.953.406a.27.27,0,0,1-.081.142l-.2.041h-3.328c-.243,0-.365-.122-.365-.426v-.954a9.228,9.228,0,0,0-1.1.568l-1.1.548a4.657,4.657,0,0,1-1.989.588A1.92,1.92,0,0,1,583.6,754.8V750.09c0-.325-.02-.427-.345-.813-.142-.2-.487-.3-.994-.3l-.446-.021c-.123-.041-.183-.1-.183-.2.019-.224.385-.345,1.055-.345a6.1,6.1,0,0,0,2.74-1.177l.182.041c.02.02.061.081.082.1Z" fill="#231f20"/><path d="M602.048,750.049a.239.239,0,0,1,.019.2c-.019.06-.06.081-.162.081-.324,0-.385-.649-1.116-1.461a3.161,3.161,0,0,0-2.517-1.259c-1.3,0-2.029.67-2.029,1.563a1.241,1.241,0,0,0,.994,1.319,15.645,15.645,0,0,0,2.334.427,5.926,5.926,0,0,1,2.334.71,2.135,2.135,0,0,1,1.015,2.05,2.5,2.5,0,0,1-.832,2.008,4.818,4.818,0,0,1-1.5.934,4.477,4.477,0,0,1-1.542.243,6.946,6.946,0,0,1-1.461-.162,5.455,5.455,0,0,0-.832-.1.8.8,0,0,0-.649.3.528.528,0,0,1-.366.325l-.122-.061-.081-.121-1.259-3.9.081-.183a.261.261,0,0,1,.183-.1q.245.03.427.669a3.05,3.05,0,0,0,.751,1.259,9.4,9.4,0,0,0,.872.832,3.585,3.585,0,0,0,2.354.811c1.38,0,2.192-.791,2.192-1.846a1.406,1.406,0,0,0-.121-.67c-.081-.3-.467-.853-1.827-1.035l-2.111-.325a4.64,4.64,0,0,1-1.887-.71,1.973,1.973,0,0,1-.75-1.765c0-1.705,1.46-2.944,3.672-2.944a5.064,5.064,0,0,1,1.1.1l.751.1c.487,0,.609-.467.832-.548a.276.276,0,0,1,.2.122.933.933,0,0,1,.061.264Z" fill="#231f20"/><path d="M607.57,754.717c.081.751.386,1.177.934,1.237s.852.183.913.365a.2.2,0,0,1-.081.183l-.264.041h-5.216a.374.374,0,0,1-.2-.041l-.061-.142c.081-.182.386-.325.933-.406.548-.06.873-.446.954-1.156v-4.567c0-.649-.223-1.257-1.339-1.257l-.528-.021a.247.247,0,0,1-.122-.244c.021-.162.447-.324,1.1-.324a6.259,6.259,0,0,0,2.72-1.157l.182.041.081.081Zm-.994-8.158a1.231,1.231,0,0,1-1.3-1.28A1.342,1.342,0,0,1,606.556,744a1.3,1.3,0,0,1,1.278,1.3A1.251,1.251,0,0,1,606.576,746.559Z" fill="#231f20"/><path d="M612.808,754.473a2.953,2.953,0,0,0,2.638,1.4,3.145,3.145,0,0,0,2.314-.751,3.751,3.751,0,0,1,1.035-.832c.162,0,.223.081.183.264-.082.325-.326.568-.975,1.035-.305.223-.608.427-.893.609a5.8,5.8,0,0,1-2.719.669,4.481,4.481,0,0,1-3.735-1.683,5.187,5.187,0,0,1,.224-6.069,6.713,6.713,0,0,1,1.988-1.562,4.963,4.963,0,0,1,2.03-.407c2.273,0,3.592.975,3.592,2.112,0,.71-.508,1.136-1.3,1.136a1.211,1.211,0,0,1-1.157-1.36,1.234,1.234,0,0,0-1.258-1.38c-1.725,0-2.881,1.542-2.881,3.673A5.649,5.649,0,0,0,612.808,754.473Z" fill="#231f20"/><path d="M634.222,744.914c-.183-.223-.426-.527-.731-.872a6.158,6.158,0,0,0-1.4-1.1,4.142,4.142,0,0,0-2.212-.589c-3.187,0-4.749,2.679-4.749,7.368a9.188,9.188,0,0,0,1.056,4.708,4.222,4.222,0,0,0,3.957,2.008,5.369,5.369,0,0,0,4.1-1.705,5.038,5.038,0,0,0,.954-1.359c.183-.426.366-.649.548-.689.1,0,.162.019.183.081.02,0,.06.04.081.141a3.493,3.493,0,0,1-.994,1.847,6.079,6.079,0,0,1-2.193,1.705,7.253,7.253,0,0,1-2.78.487c-2.232,0-3.876-.548-4.911-1.624a9.658,9.658,0,0,1-2.09-2.922,7.763,7.763,0,0,1-.508-2.9c0-4.444,3.227-7.691,7.164-7.691a6.624,6.624,0,0,1,1.542.162,8.9,8.9,0,0,0,1.116.162c.467-.04.711-.2.751-.467a.5.5,0,0,1,.407-.467,10.532,10.532,0,0,1,1.075,2.294l.913,2.415-.04.162-.122.04C635.014,746.092,634.566,745.341,634.222,744.914Z" fill="#231f20"/><path d="M646.239,754.96a5.533,5.533,0,0,1-1.968,1.522,6.1,6.1,0,0,1-2.293.385,5.247,5.247,0,0,1-4.161-1.764,4.189,4.189,0,0,1-1.054-3.085,4.021,4.021,0,0,1,1.135-3.146,7.159,7.159,0,0,1,2.071-1.36,5.418,5.418,0,0,1,1.989-.366,4.964,4.964,0,0,1,3.349,1,5.415,5.415,0,0,1,1.542,1.886,5.312,5.312,0,0,1,.406,2.111A4.077,4.077,0,0,1,646.239,754.96Zm-4.261-7.306c-1.786,0-2.9,1.461-2.9,4.364,0,2.678.832,4.383,3,4.383a2.274,2.274,0,0,0,2.233-1.319,7.013,7.013,0,0,0,.628-3.105C644.94,748.831,643.784,747.654,641.978,747.654Z" fill="#231f20"/><path d="M651.844,754.676c.081.873.385,1.3.933,1.3s.853.122.954.344c0,.224-.082.224-.426.224h-5.2c-.182,0-.243-.122-.243-.183.081-.223.386-.344.934-.406s.852-.446.953-1.156V744.407c0-.467-.3-1.035-1.359-1.035l-.488-.041c-.06-.019-.121-.081-.141-.223,0-.223.365-.325,1.075-.325a5.317,5.317,0,0,0,2.72-1.156l.2.04.081.081Z" fill="#231f20"/><path d="M657.853,754.676c.081.873.385,1.3.933,1.3s.853.122.954.344c0,.224-.081.224-.427.224h-5.195c-.182,0-.243-.122-.243-.183.081-.223.386-.344.934-.406s.852-.446.954-1.156V744.407c0-.467-.305-1.035-1.361-1.035l-.487-.041c-.061-.019-.121-.081-.142-.223,0-.223.366-.325,1.076-.325a5.311,5.311,0,0,0,2.719-1.156l.2.04.082.081Z" fill="#231f20"/><path d="M666.662,755.731a3.056,3.056,0,0,0,2.739-1.217,2.937,2.937,0,0,1,.812-.812.231.231,0,0,1,.163.061l.04.2c0,.386-.365.872-1.075,1.44a7.232,7.232,0,0,1-1.969,1.137,5.476,5.476,0,0,1-1.969.324,4.465,4.465,0,0,1-3.45-1.339,4.647,4.647,0,0,1-1.237-3.307,5.12,5.12,0,0,1,5.357-5.075,3.952,3.952,0,0,1,1.786.366,3.289,3.289,0,0,1,1.218.893c.3.366.568.548.771.548.223,0,.325.081.325.223-.062.082-.1.1-.365.264l-1.2.528c-.528.2-.933.365-1.2.467s-.608.263-1.055.466l-3.491,1.542C663.6,754.7,665.038,755.731,666.662,755.731Zm-1.705-4.688,1.481-.649.833-.426a.807.807,0,0,0,.263-.264,1.527,1.527,0,0,0-.507-1.1,2.732,2.732,0,0,0-.893-.69,1.917,1.917,0,0,0-.832-.183,2.237,2.237,0,0,0-1.989.994,4.034,4.034,0,0,0-.649,2.212l.04.548.021.529Z" fill="#231f20"/><path d="M673.99,754.473a2.954,2.954,0,0,0,2.639,1.4,3.141,3.141,0,0,0,2.313-.751,3.735,3.735,0,0,1,1.036-.832c.162,0,.222.081.182.264-.082.325-.325.568-.974,1.035-.305.223-.609.427-.893.609a5.8,5.8,0,0,1-2.72.669,4.479,4.479,0,0,1-3.734-1.683,5.189,5.189,0,0,1,.223-6.069,6.715,6.715,0,0,1,1.989-1.562,4.963,4.963,0,0,1,2.03-.407c2.273,0,3.592.975,3.592,2.112,0,.71-.508,1.136-1.3,1.136a1.211,1.211,0,0,1-1.157-1.36,1.234,1.234,0,0,0-1.258-1.38c-1.726,0-2.882,1.542-2.882,3.673A5.657,5.657,0,0,0,673.99,754.473Z" fill="#231f20"/><path d="M687.1,747.735a.293.293,0,0,1-.1.224,1.16,1.16,0,0,1-.365.061h-2.7v6.108a2.558,2.558,0,0,0,.385,1.481,1.606,1.606,0,0,0,1.36.548c.792-.081,1.279-.345,1.462-.771a1.443,1.443,0,0,1,.568-.791c.081.02.121.06.121.081a.255.255,0,0,1,.041.162,2.162,2.162,0,0,1-1.6,1.786,3.855,3.855,0,0,1-1.339.2c-2.213,0-3.085-.892-3.085-2.5V748.02H680.1l-.265-.061a.259.259,0,0,1-.1-.184c0-.222.183-.324.669-.324a2.664,2.664,0,0,0,2.274-1.218,2.51,2.51,0,0,0,.588-1.643c0-.61.142-.954.426-1.015l.183.061a.25.25,0,0,1,.061.182v3.633h2.841C687,747.451,687.1,747.573,687.1,747.735Z" fill="#231f20"/><path d="M692.2,754.717c.081.751.386,1.177.934,1.237s.852.183.913.365a.2.2,0,0,1-.081.183l-.264.041h-5.216a.374.374,0,0,1-.2-.041l-.061-.142c.081-.182.385-.325.933-.406.548-.06.873-.446.954-1.156v-4.567c0-.649-.223-1.257-1.339-1.257l-.528-.021a.247.247,0,0,1-.122-.244c.021-.162.446-.324,1.1-.324a6.259,6.259,0,0,0,2.72-1.157l.182.041.081.081Zm-.994-8.158a1.231,1.231,0,0,1-1.3-1.28A1.342,1.342,0,0,1,691.185,744a1.3,1.3,0,0,1,1.278,1.3A1.251,1.251,0,0,1,691.205,746.559Z" fill="#231f20"/><path d="M703.788,754.96a5.533,5.533,0,0,1-1.968,1.522,6.1,6.1,0,0,1-2.294.385,5.246,5.246,0,0,1-4.16-1.764,4.189,4.189,0,0,1-1.054-3.085,4.021,4.021,0,0,1,1.135-3.146,7.159,7.159,0,0,1,2.071-1.36,5.414,5.414,0,0,1,1.989-.366,4.959,4.959,0,0,1,3.348,1,5.392,5.392,0,0,1,1.542,1.886,5.294,5.294,0,0,1,.407,2.111A4.077,4.077,0,0,1,703.788,754.96Zm-4.262-7.306c-1.785,0-2.9,1.461-2.9,4.364,0,2.678.832,4.383,3,4.383a2.272,2.272,0,0,0,2.232-1.319,7,7,0,0,0,.629-3.105C702.489,748.831,701.333,747.654,699.526,747.654Z" fill="#231f20"/><path d="M715.542,749.1v5.581q.122,1.188.913,1.278c.548.062.873.183.975.406a.309.309,0,0,1-.062.142l-.243.041h-5.033a.3.3,0,0,1-.183-.041l-.041-.183c.062-.182.325-.284.772-.344.466-.061.73-.467.811-1.177v-5.459a1.07,1.07,0,0,0-1.217-1.137,2.829,2.829,0,0,0-1.421.426l-1.4.832v5.176q0,1.248.731,1.339c.487.06.771.2.852.385,0,.081-.02.122-.081.142a.456.456,0,0,1-.244.041H705.7a.443.443,0,0,1-.2-.041.47.47,0,0,1-.06-.183c.1-.222.425-.344.933-.344.548-.061.853-.447.954-1.177v-4.77c0-.222,0-.385-.345-.77a1.237,1.237,0,0,0-1-.305c-.487,0-.629,0-.649-.264q.03-.213,1.1-.3a6.294,6.294,0,0,0,2.7-1.157l.224.041c.019.02.04.1.06.122v1.521l1.035-.629a8.5,8.5,0,0,1,1.218-.589,4.806,4.806,0,0,1,1.887-.466A1.814,1.814,0,0,1,715.542,749.1Z" fill="#231f20"/><path d="M724.861,750.6l.731,1.705.892,2.171.629-1.522.65-1.5.487-1.359a3.745,3.745,0,0,0,.224-1.1c-.062-.649-.346-.973-.812-.973q-.7-.091-.792-.366l.061-.142a.234.234,0,0,1,.163-.061h4.079l.141.061.062.142c-.021.183-.163.284-.447.325a1.483,1.483,0,0,0-.791.406,4.334,4.334,0,0,0-.548.589,11.6,11.6,0,0,0-1.1,1.907l-.792,1.807-.933,2.17a2.379,2.379,0,0,0,.71.407q.334.06.366.243c0,.1-.163.182-.467.244a3.132,3.132,0,0,0-1.178.75l-.405.406c-.122.122-.224.143-.325.061a8.153,8.153,0,0,1-.69-1.4l-1.157-2.739c-.386-.994-.791-1.928-1.177-2.78a6.362,6.362,0,0,0-.913-1.644,1.877,1.877,0,0,0-1.116-.467c-.325,0-.508-.1-.548-.284.061-.162.04-.142.264-.2h5.581a.235.235,0,0,1,.162.061l.061.182c-.082.183-.366.285-.873.285a.764.764,0,0,0-.852.69C724.231,749.034,724.212,749.034,724.861,750.6Z" fill="#231f20"/><path d="M740.978,754.96a5.541,5.541,0,0,1-1.968,1.522,6.1,6.1,0,0,1-2.294.385,5.245,5.245,0,0,1-4.16-1.764,4.189,4.189,0,0,1-1.055-3.085,4.022,4.022,0,0,1,1.136-3.146,7.157,7.157,0,0,1,2.07-1.36,5.418,5.418,0,0,1,1.989-.366,4.964,4.964,0,0,1,3.349,1,5.415,5.415,0,0,1,1.542,1.886,5.294,5.294,0,0,1,.406,2.111A4.081,4.081,0,0,1,740.978,754.96Zm-4.262-7.306c-1.785,0-2.9,1.461-2.9,4.364,0,2.678.832,4.383,3,4.383a2.273,2.273,0,0,0,2.233-1.319,7,7,0,0,0,.629-3.105C739.679,748.831,738.522,747.654,736.716,747.654Z" fill="#231f20"/><path d="M746.6,754.676c.081.873.385,1.3.933,1.3s.853.122.954.344c0,.224-.081.224-.427.224h-5.195c-.182,0-.243-.122-.243-.183.081-.223.386-.344.934-.406s.852-.446.954-1.156V744.407c0-.467-.305-1.035-1.361-1.035l-.487-.041c-.061-.019-.121-.081-.142-.223,0-.223.366-.325,1.076-.325a5.311,5.311,0,0,0,2.719-1.156l.2.04.082.081Z" fill="#231f20"/><path d="M750.724,756.786a1.365,1.365,0,0,1-.954-.385,1.305,1.305,0,0,1-.345-.852,1.278,1.278,0,1,1,2.556,0A1.259,1.259,0,0,1,750.724,756.786Z" fill="#231f20"/><path d="M761.825,747.025a4.856,4.856,0,0,1-2.516,1.1l.041.121.425-.04.67-.081a2.907,2.907,0,0,1,2.152.771,4.18,4.18,0,0,1,1.034,1.5,4.635,4.635,0,0,1,.284,1.624,3.907,3.907,0,0,1-.426,1.826,6.647,6.647,0,0,1-1.684,1.927,5.8,5.8,0,0,1-3.9,1.1,5.612,5.612,0,0,1-4.079-1.4,2.9,2.9,0,0,1-.933-2.314,1.935,1.935,0,0,1,1.055-1.908,1.876,1.876,0,0,1,.771-.162,1.583,1.583,0,0,1,1.3.588,1.891,1.891,0,0,1,.466,1.178,1.762,1.762,0,0,1-.283.973l-.325-.446a.669.669,0,0,0-.589-.284c-.486,0-.751.325-.751.873a2.019,2.019,0,0,0,.894,1.664,3.329,3.329,0,0,0,2.07.67,3.493,3.493,0,0,0,2.76-1.116,3.674,3.674,0,0,0,1.014-2.5,3.289,3.289,0,0,0-3.591-3.411,6.015,6.015,0,0,0-1.3.1l-.63.122-.142-.061-.06-.142c0-.162.243-.3.73-.426l1.664-.568c1.948-.894,2.415-1.928,2.415-3.146a2.383,2.383,0,0,0-2.578-2.6,2.654,2.654,0,0,0-2.009.73,1.7,1.7,0,0,0-.689,1.177.86.86,0,0,0,.629.771c.386.122.608.467.67,1.035a1.29,1.29,0,0,1-1.3,1.218,1.686,1.686,0,0,1-1.583-1.888,2.682,2.682,0,0,1,1.034-2.232,6.36,6.36,0,0,1,2.01-1.137,6.507,6.507,0,0,1,2.11-.324,4.966,4.966,0,0,1,3.044.872,2.7,2.7,0,0,1,1.178,2.274A2.434,2.434,0,0,1,761.825,747.025Z" fill="#231f20"/><path d="M590.8,771.064l4.509,3.638q.973.77.973,1.231,0,1.074-.973,1.075H584.861v2.05a.148.148,0,0,1-.05.1l1.024-.973,6.609,4q1.026.666,1.026,1.177a1.166,1.166,0,0,1-.871,1.077,1.761,1.761,0,0,0-.974.717v6.559q0,.768-1.076,1.024l5.277,4a2.391,2.391,0,0,1,.871,1.743c-.136.582-.633.888-1.485.922q-1.385.052-3.024.154l-5.584,2,1.126.718c.546.512.821.9.821,1.178q0,.564-.871,1.025l-1.384.563a40.591,40.591,0,0,1-12.655,9.633q-7.123,3.432-23.263,5.124l-.2-.974a53.866,53.866,0,0,0,14.346-5.892,2.608,2.608,0,0,1-.973-.769,5.075,5.075,0,0,1-.871-2.408,4.765,4.765,0,0,0-.615-2.306.506.506,0,0,0-.206-.307,9.376,9.376,0,0,1-.973.666,40.818,40.818,0,0,1-10.5,3.792l-.409-.615a36.936,36.936,0,0,0,6.046-6.3,33.449,33.449,0,0,0,3.381-5.739,15.755,15.755,0,0,0,.922-2.254h-4.2a3.866,3.866,0,0,1,.051.615q-.206,3.534-1.69,5.123a4.073,4.073,0,0,1-2.819,1.845,5.219,5.219,0,0,1-3.33-.974,4.018,4.018,0,0,1-1.179-2.767q0-1.792,3.33-3.176a5.954,5.954,0,0,0,3.332-3.228,3.188,3.188,0,0,1-.513.1q-1.436,0-1.435-2.05v-9.889a19.3,19.3,0,0,0-.41-3.894l10.4,3.535h19.83l2.152-1.9c-.172.034-.325.07-.461.1q-6.354.717-6.764.718-1.385,0-1.383-2.255v-1.589H568v2.05q0,.819-1.383,1.076-6.2.717-6.559.718-1.435,0-1.434-2.05v-1.794h-4.714a36.173,36.173,0,0,0-5.38.41l-.82-2.254a46.739,46.739,0,0,0,6.2.409h4.714v-1.485a14.983,14.983,0,0,0-.41-3.434l9.325.667q1.947.1,1.947.922a1.182,1.182,0,0,1-.718,1.127,1.091,1.091,0,0,0-.768.718v1.485h7.225v-1.485a14.572,14.572,0,0,0-.461-3.638l9.53.666q2,.1,2,.922a1.18,1.18,0,0,1-.769,1.127,1.245,1.245,0,0,0-.666.718v1.69h2.255Zm-5.021,24.185,1.793-2.1q-3.639.411-4,.41a1.285,1.285,0,0,1-1.332-1.178H560.677q0,.821-1.383,1.076-2.409.306-3.843.461c.17.479.308.922.409,1.332Zm-25.107-4.3h1.844v-7.584h-1.844Zm15.167,9.837,3.893-3.893,4.663,3.125,1.793-3.33h-21.98l7.07,1.127q1.024.411,1.026,1.127c0,.41-.326.684-.974.82q-.566.205-1.076.358c-.205.205-.41.428-.615.666Zm-10.2,3.639a5.787,5.787,0,0,1,2.665.974,3.645,3.645,0,0,1,1.947,3.074,45.905,45.905,0,0,0,5.38-6.3h-7.481A29.069,29.069,0,0,1,565.647,804.421Zm4.817-13.476h1.845v-7.584h-1.845Zm9.889,0H582.2v-7.584h-1.844Z" fill="#231f20"/><path d="M598.368,791.3a31.366,31.366,0,0,0,4,.358l3.382-2.818,5.328,3.587q1.231.615,1.23,1.127,0,.411-.666.973a.939.939,0,0,0-.615.718v10.862q0,2,2.664,3.433,2.871,1.077,16.4,1.076,5.122,0,17.677-1.28v.87a18.282,18.282,0,0,0-3.074,9.019h-11.12q-11.22,0-16.549-1.23-3.332-1.181-6.866-6.969c-.172-.41-.41-.615-.717-.615-.274,0-.53.189-.769.564a39.579,39.579,0,0,1-4.406,6.866,2,2,0,0,1-1.384,1.384q-1.075,0-1.435-1.692l-2.869-8.967,2.255-.256q1.845-.153,1.845-1.178V793.2q-1.743.105-3.485.359Zm2.46-17.831q6.505,0,8.5,1.691a4.859,4.859,0,0,1,.82,7.378,4.46,4.46,0,0,1-3.228,1.435,3.166,3.166,0,0,1-2.511-1.332,5.824,5.824,0,0,1-1.024-2.767,5.111,5.111,0,0,0-.717-2.613,7.782,7.782,0,0,0-2.307-2.716Zm19.675-2.409,7.993,1.282q1.64.308,1.64,1.127c0,.377-.274.666-.82.871a1.188,1.188,0,0,0-.871.615l-.154.769h3.023l3.894-4.3,6.61,4.15q.819.413.82.974,0,.411-.769.974a1.358,1.358,0,0,0-.666.871v3.74l3.074-3.945,2.563,3.228a3.245,3.245,0,0,1,.717,1.075q0,1.077-1.486,1.076h-8.608l5.585,3.331q.972.667.973,1.178a1.152,1.152,0,0,1-.666,1.076,1.4,1.4,0,0,0-.717.769v2.869a.837.837,0,0,1-.256.615l3.382,2.716q.972.769.973,1.179,0,.972-.871.973h-9.582v6h1.64l3.843-4.714,4.713,3.792q1.077.821,1.077,1.28,0,1.077-1.025,1.076H636.284v2.665q0,.768-1.434,1.025-5.945.821-6.4.819-1.385,0-1.383-2.049V805.7h-7.994a38.94,38.94,0,0,0-5.585.41l-.819-2.255q1.485.154,2.869.257v-5.687q-.872.153-1.793.307l-.871-2.254a37.94,37.94,0,0,0,5.585.41h8.557a9.845,9.845,0,0,0-.41-2.46l9.222.667q1.9.151,1.9.922a1.085,1.085,0,0,1-.359.871h1.179L641,793.865q-5.637.77-5.994.769a1.441,1.441,0,0,1-1.537-1.435h-9.736v1.23q0,.821-1.281,1.076-5.688.719-6.046.718-1.486,0-1.486-2V786.8a18.964,18.964,0,0,0-.256-3.126q-1.23.1-2.357.308l-.82-2.255a37.275,37.275,0,0,0,5.483.41h.819l1.333-4.919a26.672,26.672,0,0,0-4,.41l-.769-2.255a36.784,36.784,0,0,0,5.125.36l.41-1.589A13.668,13.668,0,0,0,620.5,771.064Zm12.3,15.372,3.023-2.87H616.455l8.557,2.87Zm-9.069,5.278h9.684v-3.843h-9.684Zm3.331,12.553v-6h-2.716v6Zm-.206-22.135h5.124v-4.919h-4.047Z" fill="#231f20"/><path d="M668.99,779.878q-1.588.205-3.126.409v7.02l2.869-3.33,4.151,3.279q1.024.769,1.025,1.229,0,.975-1.076.974h-6.969v3.279a13.641,13.641,0,0,1,4.971,2.408,5.405,5.405,0,0,1,2,4,5.773,5.773,0,0,1-.974,3.228,3.957,3.957,0,0,1-2.869,1.485q-2.2,0-3.074-4.149a.211.211,0,0,0-.052-.154v18.189q0,.871-1.28,1.127-5.944.769-6.047.77-1.64,0-1.64-2.05V805.7a51.677,51.677,0,0,1-6.762,4.3l-.41-.666a108.633,108.633,0,0,0,6.2-19.881h-.718a26.59,26.59,0,0,0-4.919.461l-.768-2.254a40.2,40.2,0,0,0,5.687.409h1.69v-6.712q-3.792.36-6.609.359l-.153-.615a58.12,58.12,0,0,0,11.272-8.249,10.175,10.175,0,0,0,1.844-2.2l7.584,7.584q.819.718.819,1.23-.153.768-1.281.768A6.074,6.074,0,0,1,668.99,779.878Zm25.568,16.345,4.253,4.048q.715.717.716,1.126a1.039,1.039,0,0,1-1.024,1.179l-5.79,1.179v13.834q0,.921-1.485,1.229-6.663.819-7.123.821-1.383,0-1.383-2.255V805.7l-11.478,2.255a24.217,24.217,0,0,0-2.92.769l-1.178-1.64q1.536-.2,2.869-.41l12.707-2.511v-29.41a16.984,16.984,0,0,0-.41-3.69l9.735.718q2.151.205,2.152,1.127a1.487,1.487,0,0,1-.718,1.332,1.377,1.377,0,0,0-.768.923v25.978Zm-23.109-4.714q6.3,0,8.148,1.69a5.066,5.066,0,0,1,.819,7.379,4.632,4.632,0,0,1-3.279,1.435,2.922,2.922,0,0,1-2.357-1.384,5.872,5.872,0,0,1-.923-2.818,5.593,5.593,0,0,0-.716-2.665,7.277,7.277,0,0,0-2.153-2.766Zm1.179-13.681q5.943,0,7.737,1.793a5.51,5.51,0,0,1,1.947,4.356,4.8,4.8,0,0,1-1.333,3.279,4.521,4.521,0,0,1-3.176,1.434,2.409,2.409,0,0,1-2.1-1.383,6.277,6.277,0,0,1-.922-2.92,6.42,6.42,0,0,0-.615-2.716,8.082,8.082,0,0,0-1.895-2.869Z" fill="#231f20"/><path d="M733.925,770.654l10.043,3.536q1.433.462,1.434,1.383,0,.615-1.128.718a2.156,2.156,0,0,0-1.127.513l-8.5,6.967h3.688l3.126-3.74,7.481,5.534a2.536,2.536,0,0,1,.921,1.844q-.2,1.026-1.537,1.076-1.434.1-3.125.205l-7.788,2.05-1.025-.615,2.255-4.97h-29a15.094,15.094,0,0,1,.1,1.64q-.2,3.588-1.742,5.124a4.331,4.331,0,0,1-2.972,1.844,5.007,5.007,0,0,1-3.279-.974,3.72,3.72,0,0,1-1.229-2.664q0-2.408,3.484-4.2a7.091,7.091,0,0,0,3.689-5.483h.973a20.064,20.064,0,0,1,.769,3.33h21.776q1.691-7.735,2.2-9.837A26.324,26.324,0,0,0,733.925,770.654Zm-23.98,19.266a39.716,39.716,0,0,0,5.74.41h11.067l3.638-3.689,7.941,5.534a1.851,1.851,0,0,1,.666,1.383.829.829,0,0,1-.871.769c-.547.034-.939.069-1.178.1l-7.737,3.382.819.1q1.846.154,1.845,1.025a1.454,1.454,0,0,1-.819,1.333,1.375,1.375,0,0,0-.871.921v.974h8.454l4.3-5.072,4.869,4.15q1.279.973,1.28,1.537,0,.871-1.28.871H730.185v8.2q0,3.073-1.538,4.355-2,1.639-9.888,3.024a12.5,12.5,0,0,0-2.05-4.869,9.04,9.04,0,0,0-3.945-2.51v-.871h6.353q1.281,0,1.281-.973v-6.354H708.46a47.293,47.293,0,0,0-6.149.41l-.82-2.254a69.052,69.052,0,0,0,6.969.358H720.4v-1.384a16.966,16.966,0,0,0-.41-3.688l4.1.307,3.382-5.687H715.685a26.865,26.865,0,0,0-4.971.461Zm-2.254-17.882q5.892,1.59,7.583,3.074a3.367,3.367,0,0,1,1.588,2.716,5.494,5.494,0,0,1-1.28,3.535A4.914,4.914,0,0,1,712,782.9a2.345,2.345,0,0,1-1.794-.973q-.768-.768-.922-3.74a9.3,9.3,0,0,0-2.2-5.278Zm11.836-1.384q5.943,1.743,7.686,3.331a3.9,3.9,0,0,1,1.588,3.023,5.379,5.379,0,0,1-1.383,3.638,5.1,5.1,0,0,1-3.792,1.64,2.245,2.245,0,0,1-1.69-1.025q-.769-.923-.872-4.048a10.932,10.932,0,0,0-2.152-5.79Z" fill="#231f20"/><path d="M795.065,780.441l4.817,4q1.077.819,1.076,1.383a.861.861,0,0,1-.974.974h-7.838v18.5q0,.872-1.435,1.178-6.3.873-6.713.871-1.64,0-1.639-2.306v-1.588H778.67v3.228q0,.871-1.537,1.127-6.252.768-6.712.768-1.385,0-1.384-2.254V786.8H765.5V814.31h21.98l4.458-5.585,5.38,4.458q1.231.972,1.23,1.537,0,.972-1.23.972H765.5v2.05q0,.871-1.486,1.127-6.252.769-6.712.77-1.385,0-1.384-2.255V786.9q-1.741.1-3.535.308l-.769-2.255q2.153.256,4.3.359v-9.171a16.352,16.352,0,0,0-.409-3.639l9.376.666q2.1.207,2.1.923a1.51,1.51,0,0,1-.768,1.383,1.427,1.427,0,0,0-.717.871v9.018h3.535V774.754a16.984,16.984,0,0,0-.41-3.69l9.428.666q2.049.154,2.049.974a1.465,1.465,0,0,1-.768,1.332,1.286,1.286,0,0,0-.666.923v10.4h3.689V774.754a16.984,16.984,0,0,0-.41-3.69l9.736.718q2.151.205,2.151,1.127a1.454,1.454,0,0,1-.819,1.332,1.533,1.533,0,0,0-.871.923v8.915Zm-12.706,21.572V786.8H778.67v15.218Z" fill="#231f20"/><path d="M809.174,770.654l7.583,3.331q1.434.667,1.434,1.383a.9.9,0,0,1-.666.82c-.546.069-.888.121-1.024.154a9.246,9.246,0,0,1-1.076.768l7.635,3.434q1.485.666,1.485,1.383a.924.924,0,0,1-.769.82c-.581.068-.939.12-1.076.153a80.923,80.923,0,0,1-11.426,8.916q2.768-.051,7.072-.205a10.418,10.418,0,0,0-1.436-3.126l.41-.614q5.176,1.793,6.661,3.586a5.294,5.294,0,0,1,.564.666,37.692,37.692,0,0,0-.41-4.714l10.3,3.331h4.047V776.547H827.773a25.872,25.872,0,0,0-4.868.461l-.819-2.254a40.2,40.2,0,0,0,5.687.41h10.042l3.485-3.945,7.173,4.3q1.076.718,1.076,1.282a1.479,1.479,0,0,1-.512,1.229,1.293,1.293,0,0,0-.513.769v14.552q0,.871-1.537,1.126-6.454.77-6.866.769-1.641,0-1.64-2.255v-.819h-4.713v15.576a1.564,1.564,0,0,0,.615,1.332q1.178.719,4.662.718l3.894-.1q2.051,0,2.562-1.128a20.9,20.9,0,0,0,1.179-5.533h.973q0,4.2.82,4.714a6.355,6.355,0,0,0,3.484,1.589q-.821,5.022-2.356,6.968-1.8,1.946-6.149,1.947l-4.407.153q-8.914,0-11.374-.717-3.126-.719-3.126-4.816v-2.613a3.844,3.844,0,0,1-2.921,1.332,2.63,2.63,0,0,1-1.946-1.025q-.924-.871-1.076-4.1a7.748,7.748,0,0,0-.206-1.281v12.4q0,.715-1.281.973-5.584.666-5.687.667-1.486,0-1.486-1.845v-7.635a14.008,14.008,0,0,1-1.742,2.563,19.743,19.743,0,0,1-5.38,4.662l-.41-.615q.666-3.179,1.127-6.713.411-3.483.565-6.25.1-1.845.1-2.87l.615.154a3.688,3.688,0,0,1-.307-.717l-2.1-8.454a24.627,24.627,0,0,0,4.509.41q1.28-1.846,2.511-3.69a4.54,4.54,0,0,1-1.537.256,2.227,2.227,0,0,1-1.691-1.076q-.77-.768-.871-3.791a10.079,10.079,0,0,0-2.152-5.431l.41-.564q1.947.564,3.382,1.127.972-2.817,1.69-5.585Q808.918,772.141,809.174,770.654ZM806,801.039l3.945,1.024v-3.689q-1.383.666-2.613,1.179a3.294,3.294,0,0,0-.768.923A2.191,2.191,0,0,1,806,801.039Zm6.2-17.575q.564-1.076,1.128-2.152a18.931,18.931,0,0,0,1.64-3.945,46.755,46.755,0,0,1-5.176,2.869,5.51,5.51,0,0,1,.923.717A4.348,4.348,0,0,1,812.2,783.464Zm12.349,21.059v-7.276a2.407,2.407,0,0,1-.358.461,4.191,4.191,0,0,1-3.177,1.435q-.77,0-1.487-1.076-.614-.871-.768-4v-.256a3.368,3.368,0,0,0-.359.206v6.814q4.2,1.589,5.636,3.125A7.211,7.211,0,0,1,824.545,804.523Z" fill="#231f20"/><path d="M648.526,830a5.967,5.967,0,0,0-2.047-.352,5.645,5.645,0,0,0-5.056,2.72,12.694,12.694,0,0,0-1.76,7.1c0,5.6,2.56,8.894,6.5,8.894a6.146,6.146,0,0,0,4.127-1.407,8.411,8.411,0,0,0,2.368-3.168l1.216.832a7.952,7.952,0,0,1-2.527,3.424,11.286,11.286,0,0,1-2.912,1.536,9.115,9.115,0,0,1-2.88.415,8.741,8.741,0,0,1-6.08-2.048,11.6,11.6,0,0,1-3.136-4.1,12.49,12.49,0,0,1-.8-4.7,9.981,9.981,0,0,1,2.048-6.719,11.525,11.525,0,0,1,3.968-3.232,10.46,10.46,0,0,1,4.351-.864,7.919,7.919,0,0,1,5.441,1.888,7.142,7.142,0,0,1,1.983,2.368l-1.216.864A6.348,6.348,0,0,0,648.526,830Z" fill="#231f20"/><path d="M658.019,841.549h5.152v-5.6h3.007v13.568h-3.007V842.7h-5.152v6.816h-3.008V827.342h3.008Z" fill="#231f20"/><path d="M676.987,840.045l1.184,4c.256.992.544,2.016.9,3.1.352,1.057.577,1.857.736,2.369h-3.072l-1.215-4.161h-5.088l-1.216,4.161H667.9l1.375-5.12,1.121-4.1c.352-1.313,1.087-3.809,1.568-4.1l.607-.48a1.979,1.979,0,0,1,.992-.256,3.019,3.019,0,0,1,1.856.672A12,12,0,0,1,676.987,840.045Zm-3.584-2.207-.16-.192-.287-.1a.621.621,0,0,0-.48.447l-1.76,6.208H675.2Z" fill="#231f20"/><path d="M691.045,835.949V848.94a.939.939,0,0,1-.992.993,1.217,1.217,0,0,1-.96-.416l-6.432-11.135-.128-.129-.16-.031-.16.063-.031.128v11.1h-1.313V838c0-1.407.609-2.527,2.017-2.527a1.97,1.97,0,0,1,1.151.351l.672.513a8.848,8.848,0,0,1,.928,1.247l1.12,1.984,1.28,2.336,1.279,2.272a.515.515,0,0,0,.257.1c.159-.128.159-.16.159-.192v-8.128Z" fill="#231f20"/><path d="M702.254,837.262a2.782,2.782,0,0,0-2.112-.672c-2.72,0-4.064,2.176-4.064,6.015a8.115,8.115,0,0,0,1.12,4.512,3.289,3.289,0,0,0,2.72,1.632,2.69,2.69,0,0,0,2.623-2.561V842.7h2.624v12.351h-2.624v-6.3a4.835,4.835,0,0,1-3.136,1.184,6.03,6.03,0,0,1-3.551-1.216,6.926,6.926,0,0,1-2.3-2.624,8.134,8.134,0,0,1-.608-3.328,6.868,6.868,0,0,1,1.28-4.383,7.678,7.678,0,0,1,2.528-2.273,6.556,6.556,0,0,1,2.88-.639,5.485,5.485,0,0,1,5.119,3.04l-1.12.607A4.6,4.6,0,0,0,702.254,837.262Z" fill="#231f20"/><path d="M709.8,837.485a1.031,1.031,0,0,0-.256.737v3.424h4.928v1.311h-4.928v4.384a.9.9,0,0,0,1.024.928h5.152v1.248h-7.3c-1.312,0-1.888-.705-1.888-2.08v-9.215a3,3,0,0,1,.448-1.729,1.739,1.739,0,0,1,1.344-.544h7.232v1.313h-4.928A1.347,1.347,0,0,0,709.8,837.485Z" fill="#231f20"/><path d="M726.145,840.045l1.183,4c.256.992.544,2.016.9,3.1.351,1.057.576,1.857.735,2.369h-3.071l-1.216-4.161h-5.088l-1.216,4.161h-1.311l1.375-5.12,1.12-4.1c.352-1.313,1.088-3.809,1.568-4.1l.608-.48a1.976,1.976,0,0,1,.992-.256,3.018,3.018,0,0,1,1.855.672A12.018,12.018,0,0,1,726.145,840.045Zm-3.584-2.207-.161-.192-.287-.1a.621.621,0,0,0-.48.447l-1.76,6.208h4.48Z" fill="#231f20"/><path d="M740.266,837.9a6.855,6.855,0,0,1,1.92,4.993,5.9,5.9,0,0,1-2.816,5.5,6.818,6.818,0,0,1-3.968,1.121h-5.5V827.342h3.008v8.607l.928-.031.96-.032A7.106,7.106,0,0,1,740.266,837.9Zm-6.175-.864-.513.032h-.672V848.4l.641.1,1.056.064a5.527,5.527,0,0,0,3.423-1.056c.736-.48,1.12-1.856,1.12-4.063C739.146,839.5,737.771,837.037,734.091,837.037Z" fill="#231f20"/><path d="M745.856,833.742a1.742,1.742,0,0,1-1.759-1.7,2.116,2.116,0,0,1,.448-1.216,1.933,1.933,0,0,1,1.311-.576,1.774,1.774,0,0,1,1.728,1.792A1.693,1.693,0,0,1,745.856,833.742Zm1.472,15.775H744.32V835.949h3.008Z" fill="#231f20"/><path d="M752.71,847.533c0,.512.352.863.992.863h1.344v1.121H751.59c-1.407,0-1.888-.609-1.888-1.984V827.342h3.008Z" fill="#231f20"/><path d="M757.846,833.742a1.743,1.743,0,0,1-1.76-1.7,2.116,2.116,0,0,1,.448-1.216,1.936,1.936,0,0,1,1.312-.576,1.774,1.774,0,0,1,1.727,1.792A1.693,1.693,0,0,1,757.846,833.742Zm1.471,15.775H756.31V835.949h3.007Z" fill="#231f20"/><path d="M767.1,849.517h-3.008V837.069h-2.912v-1.12h8.832v1.12H767.1Z" fill="#231f20"/><path d="M775.052,855.052h-1.44l2.335-5.535L770.6,835.949h3.167l3.777,9.6,4-9.6h1.376Z" fill="#231f20"/><path d="M799.562,847.885a5.775,5.775,0,0,1-4.735,2.048c-2.143,0-3.712-.609-5.727-2.785a6.766,6.766,0,0,1-1.472-4.735,6.959,6.959,0,0,1,1.151-4.031,5.872,5.872,0,0,1,5.312-2.912,7.046,7.046,0,0,1,5.024,2.08,7.18,7.18,0,0,1,2.144,5.439A7.523,7.523,0,0,1,799.562,847.885Zm-2.271-9.344a2.983,2.983,0,0,0-5.567-.256,9.146,9.146,0,0,0-.96,4.384,10.477,10.477,0,0,0,.863,4.352,3.088,3.088,0,0,0,2.912,1.919,2.907,2.907,0,0,0,2.624-1.727,9.2,9.2,0,0,0,.96-4.416A9.655,9.655,0,0,0,797.291,838.541Z" fill="#231f20"/><path d="M805.493,830.254v5.695h3.136v1.313h-3.136v12.255h-3.008V831.47c0-2.944.96-4.128,4.288-4.128h.672l1.088.032v1.216h-1.311C805.653,828.687,805.653,829.486,805.493,830.254Z" fill="#231f20"/><path d="M821.781,829.9a3.1,3.1,0,0,0-2.56,1.088,3.567,3.567,0,0,0-.864,2.3,3.068,3.068,0,0,0,1.376,2.752,18.838,18.838,0,0,0,3.2,1.632,10.606,10.606,0,0,1,3.328,1.951,5.24,5.24,0,0,1,1.5,4,5.714,5.714,0,0,1-2.048,4.7,7.5,7.5,0,0,1-4.96,1.663,7.011,7.011,0,0,1-3.84-1.023,8,8,0,0,1-2.367-2.241l1.5-1.119a4.579,4.579,0,0,0,4.224,2.783,3.238,3.238,0,0,0,2.528-1.055,3.694,3.694,0,0,0,1.088-2.88c0-1.792-.9-3.071-4.64-4.416a10.258,10.258,0,0,1-3.264-1.888,4.565,4.565,0,0,1-1.408-3.647,5.689,5.689,0,0,1,1.152-3.744,6.179,6.179,0,0,1,2.432-1.92,7.849,7.849,0,0,1,3.04-.512,6.245,6.245,0,0,1,4.031,1.216,5.807,5.807,0,0,1,1.952,2.464l-1.343.9A4.176,4.176,0,0,0,821.781,829.9Z" fill="#231f20"/><path d="M834.84,849.517h-3.008V837.069H828.92v-1.12h8.832v1.12H834.84Z" fill="#231f20"/><path d="M848.989,841.773a3.4,3.4,0,0,1-2.367,1.121l3.552,6.623h-3.616l-3.2-6.72a3.238,3.238,0,0,0,2.592-.863,3.316,3.316,0,0,0,.544-1.985c0-1.792-.735-2.687-2.527-2.912h-1.952v12.48h-3.008V835.949h5.983c3.04,0,4.672,1.664,4.672,3.68A3.62,3.62,0,0,1,848.989,841.773Z" fill="#231f20"/><path d="M859.834,840.045l1.184,4c.255.992.544,2.016.9,3.1.352,1.057.576,1.857.735,2.369h-3.071l-1.216-4.161h-5.088l-1.215,4.161h-1.312l1.375-5.12,1.12-4.1c.353-1.313,1.088-3.809,1.569-4.1l.607-.48a1.976,1.976,0,0,1,.992-.256,3.022,3.022,0,0,1,1.856.672A12.025,12.025,0,0,1,859.834,840.045Zm-3.584-2.207-.16-.192-.287-.1a.623.623,0,0,0-.481.447l-1.76,6.208h4.48Z" fill="#231f20"/><path d="M874.5,835.949V848.94a.939.939,0,0,1-.992.993,1.217,1.217,0,0,1-.96-.416l-6.432-11.135-.128-.129-.16-.031-.16.063-.031.128v11.1h-1.313V838c0-1.407.609-2.527,2.017-2.527a1.97,1.97,0,0,1,1.151.351l.672.513a8.848,8.848,0,0,1,.928,1.247l1.12,1.984,1.28,2.336,1.28,2.272a.5.5,0,0,0,.256.1c.16-.128.16-.16.16-.192v-8.128Z" fill="#231f20"/><path d="M885.741,837.262a2.782,2.782,0,0,0-2.112-.672c-2.72,0-4.064,2.176-4.064,6.015a8.106,8.106,0,0,0,1.121,4.512,3.287,3.287,0,0,0,2.719,1.632,2.689,2.689,0,0,0,2.623-2.561V842.7h2.624v12.351h-2.624v-6.3a4.834,4.834,0,0,1-3.135,1.184,6.033,6.033,0,0,1-3.552-1.216,6.934,6.934,0,0,1-2.3-2.624,8.135,8.135,0,0,1-.607-3.328,6.873,6.873,0,0,1,1.279-4.383,7.678,7.678,0,0,1,2.528-2.273,6.563,6.563,0,0,1,2.88-.639,5.482,5.482,0,0,1,5.119,3.04l-1.12.607A4.589,4.589,0,0,0,885.741,837.262Z" fill="#231f20"/><path d="M893.254,837.485a1.031,1.031,0,0,0-.256.737v3.424h4.928v1.311H893v4.384a.9.9,0,0,0,1.024.928h5.152v1.248h-7.3c-1.312,0-1.888-.705-1.888-2.08v-9.215a3,3,0,0,1,.448-1.729,1.739,1.739,0,0,1,1.344-.544h7.232v1.313h-4.928A1.348,1.348,0,0,0,893.254,837.485Z" fill="#231f20"/><path d="M919.014,830.8a10.82,10.82,0,0,1,3.584,4.032,11.535,11.535,0,0,1,.96,4.9c0,6.046-4.321,9.791-9.92,9.791h-8.064v-20.7h5.5C914.63,828.814,917.254,829.486,919.014,830.8Zm-1.056,2.559a8.192,8.192,0,0,0-2.977-2.4,8.384,8.384,0,0,0-3.359-.64h-2.24v17.759h3.04c4.479,0,7.04-2.848,7.04-8.7C919.462,836.525,918.949,834.51,917.958,833.357Z" fill="#231f20"/><path d="M935.371,841.773A3.4,3.4,0,0,1,933,842.894l3.551,6.623h-3.616l-3.2-6.72a3.238,3.238,0,0,0,2.592-.863,3.316,3.316,0,0,0,.544-1.985c0-1.792-.735-2.687-2.527-2.912H928.4v12.48h-3.008V835.949h5.983c3.04,0,4.672,1.664,4.672,3.68A3.627,3.627,0,0,1,935.371,841.773Z" fill="#231f20"/><path d="M941.2,837.485a1.031,1.031,0,0,0-.256.737v3.424h4.928v1.311h-4.928v4.384a.9.9,0,0,0,1.025.928h5.151v1.248h-7.3c-1.311,0-1.888-.705-1.888-2.08v-9.215a3,3,0,0,1,.449-1.729,1.735,1.735,0,0,1,1.343-.544h7.232v1.313h-4.928A1.35,1.35,0,0,0,941.2,837.485Z" fill="#231f20"/><path d="M957.548,840.045l1.183,4c.256.992.544,2.016.9,3.1.351,1.057.576,1.857.735,2.369h-3.071l-1.216-4.161h-5.088l-1.216,4.161h-1.311l1.375-5.12,1.12-4.1c.353-1.313,1.088-3.809,1.568-4.1l.608-.48a1.976,1.976,0,0,1,.992-.256,3.016,3.016,0,0,1,1.855.672A11.994,11.994,0,0,1,957.548,840.045Zm-3.584-2.207-.16-.192-.287-.1a.623.623,0,0,0-.481.447l-1.76,6.208h4.48Z" fill="#231f20"/><path d="M961.493,849.517V837.646a2.056,2.056,0,0,1,2.273-2.176,2.645,2.645,0,0,1,1.855.8,5.636,5.636,0,0,1,.481.992l.639,1.92.768,2.559.96,3.1.927-3.424.641-2.623c.416-1.536.735-2.4,1.151-2.689a1.841,1.841,0,0,1,.672-.479,4.274,4.274,0,0,1,1.12-.16,2.181,2.181,0,0,1,2.273,2.08v11.967h-2.912V837.934c-.032-.288-.193-.353-.288-.353l-.193.065-.159.192-3.072,11.039c-.224.735-.576,1.056-.992,1.056a.724.724,0,0,1-.64-.288,1.331,1.331,0,0,1-.384-.672l-3.3-11.039-.1-.161a.551.551,0,0,0-.16-.064l-.193.1-.063.223v11.488Z" fill="#231f20"/><g id="_" data-name=""><path d="M972.171,921.791a1.327,1.327,0,0,1,.817.254.778.778,0,0,1,.356.714l-.063,2.308h3.2a3.827,3.827,0,0,1,1,.084c.155.08.232.255.232.527a1.44,1.44,0,0,1-.2.747.663.663,0,0,1-.54.271c-.175,0-.535-.016-1.08-.05q-.772-.016-1.4-.017-.494,0-1.281.017l-.092,3.31a54.469,54.469,0,0,1,6.405.73,3.5,3.5,0,0,1-.463,1.544.792.792,0,0,1-.664.493,4.945,4.945,0,0,1-1.189-.255,19.575,19.575,0,0,0-5.216-.746,15.251,15.251,0,0,0-5.092.814,3.384,3.384,0,0,1-1.035.255.816.816,0,0,1-.586-.323.914.914,0,0,1-.277-.611.977.977,0,0,1,.74-1.086,20.125,20.125,0,0,1,5.494-.815l-.062-7.2a.88.88,0,0,1,.278-.68A.9.9,0,0,1,972.171,921.791Z" fill="#231f20"/><path d="M965.627,943.308l2.593.067c.288.091.432.232.432.425,0,.294-.294.559-.88.8a17.237,17.237,0,0,1-2.1.628.819.819,0,0,1-.479-.272.77.77,0,0,1-.247-.543,1.669,1.669,0,0,1,.2-.765Q965.382,943.309,965.627,943.308Zm1.111-4.414q.4,0,1.143.763,1.188,1.206,1.187,1.478a.371.371,0,0,1-.416.424,2.2,2.2,0,0,1-.617-.119,7.608,7.608,0,0,0-1.467-.2q-.771-.084-.771-1.239a1.158,1.158,0,0,1,.293-.78A.938.938,0,0,1,966.738,938.894Zm1.1,7.69a.229.229,0,0,1,.263.254q0,.306-.232,2.326a.731.731,0,0,1-.834.73,1.113,1.113,0,0,1-.724-.238,1.03,1.03,0,0,1-.309-.763,1.161,1.161,0,0,1,.231-.544l1.266-1.544C967.628,946.657,967.741,946.584,967.834,946.584Zm3.72-4.771a.993.993,0,0,1,.6.17.2.2,0,0,1,.077.051q1-.067,2.578-.067,2.5,0,3.163.084c.206.023.308.108.308.255a2.083,2.083,0,0,1-.123.374,11.332,11.332,0,0,0-.463,1.952q.91.068,1.929.169a2.743,2.743,0,0,1-.354,1.273c-.175.3-.361.442-.556.442a3,3,0,0,1-.91-.238q-.2-.051-.387-.1c-.03.17-.057.345-.077.526s-.067.357-.108.527c.473.034.9.062,1.281.084.175.035.262.1.262.205a1.289,1.289,0,0,1-.2.747.652.652,0,0,1-.54.288q-.277,0-1.127-.069a3.881,3.881,0,0,1-.494,1.071c-.247.418-.529.628-.849.628a1.326,1.326,0,0,1-1.126-.816,2.761,2.761,0,0,0,.7-.984q-1.575-.051-3.827-.051a3.065,3.065,0,0,0-1.173.17,1.1,1.1,0,0,1-.386.119.59.59,0,0,1-.433-.187.491.491,0,0,1-.184-.424,1.954,1.954,0,0,1,.154-.561c.144-.441.287-.887.432-1.341-.134.035-.263.063-.386.085a3.743,3.743,0,0,1-.941.187.5.5,0,0,1-.37-.237.54.54,0,0,1-.186-.374.617.617,0,0,1,.494-.679,14.189,14.189,0,0,1,1.836-.391q.355-1.154.71-2.393A.621.621,0,0,1,971.554,941.813Zm-.387-3.106a2.208,2.208,0,0,1,1,.2.58.58,0,0,1,.293.475,1.128,1.128,0,0,1-.109.425q1.02-.1,2.794-.1a41.806,41.806,0,0,1,4.182.152,2.7,2.7,0,0,1-.277,1.205.436.436,0,0,1-.4.289q-.324,0-1.327-.068-1.605-.151-2.654-.152a20.382,20.382,0,0,0-2.47.136,6.436,6.436,0,0,1-.833.084.258.258,0,0,1-.093-.017.791.791,0,0,0-.123.136,2.978,2.978,0,0,1-1.96,1.239q-.417,0-.417-.288a.623.623,0,0,1,.2-.357,8.844,8.844,0,0,0,1.388-1.765,2.227,2.227,0,0,0,.386-1.053.991.991,0,0,0-.2-.492A2.98,2.98,0,0,1,971.167,938.707Zm1.513,8.42.308-1.409q-.818.033-1.574.119l-.37,1.222c0,.045.129.068.386.068Zm-.88-2.58c.453-.034.941-.057,1.467-.068l.293-1.291q-.756.018-1.374.051Zm3.735,2.631a.141.141,0,0,0,.015-.051q.186-.7.34-1.273a12.169,12.169,0,0,0-1.667-.153l-.309,1.443Q974.778,947.144,975.535,947.178Zm-.741-3.99-.309,1.291q.8,0,1.729.05a7.579,7.579,0,0,0,.2-1.154Q976.414,943.207,974.794,943.188Z" fill="#231f20"/><path d="M978.174,968H966.307V954.877h11.867Z" fill="#231f20"/><path d="M955.564,926.323a12.164,12.164,0,0,1-.154,2.309,3.733,3.733,0,0,1-.972,1.867,5.429,5.429,0,0,1-2.33,1.545,5.086,5.086,0,0,1-1.775.373q-1.281,0-1.28-1.069a2.843,2.843,0,0,1,1.064-2.41q.14.611.926.611a2.055,2.055,0,0,0,2.161-1.46,4.282,4.282,0,0,0,.2-1.069v-.765q0-.865.957-.865a1.849,1.849,0,0,1,.849.135A.841.841,0,0,1,955.564,926.323Zm5.633-2.359a.9.9,0,0,1-.324.695,7.183,7.183,0,0,0-.663.492,1.6,1.6,0,0,0-.51.425q-1.712,2.122-2.3,2.122-.709,0-.71-.645a6.381,6.381,0,0,1,.586-1.358,1.217,1.217,0,0,0,.109-.39c0-.294-.139-.442-.417-.442-.031,0-.35-.01-.956-.034s-.984-.051-1.127-.051a14.953,14.953,0,0,0-2.948.289c-.957.181-1.465.272-1.528.272a.907.907,0,0,1-.57-.221,1.087,1.087,0,0,1-.356-.815,1.125,1.125,0,0,1,.989-1.29,18.554,18.554,0,0,1,2.885-.221q3.333,0,5.632.221a6.409,6.409,0,0,1,1.7.323C961.027,923.482,961.2,923.692,961.2,923.964Z" fill="#231f20"/><path d="M959.3,940.455q0,.306-.154,2.462-.279,3.633-1.946,5.211a5.789,5.789,0,0,1-4.1,1.342,5.122,5.122,0,0,1-1.312-.119q-.819-.221-.818-.917a3.106,3.106,0,0,1,1.42-2.241,1.534,1.534,0,0,0,1.435.578,2.643,2.643,0,0,0,1.79-.816,4.755,4.755,0,0,0,1.266-3.581v-1.053q.015-.678.015-.8,0-.916,1.219-.917a1.525,1.525,0,0,1,.772.205A.746.746,0,0,1,959.3,940.455Zm-6.034-.084q0,.2-.016,1.459-.016,1.275-.016,1.715,0,1.749-1.188,1.749-.926,0-.926-1.239c0-.148-.016-.685-.046-1.614s-.031-1.567-.031-1.918q0-.88,1.157-.882Q953.265,939.641,953.266,940.371Z" fill="#231f20"/><path d="M960.657,965.418q-.741,1.069-1.434,1.069a1.43,1.43,0,0,1-.865-.526c-.124-.112-.33-.305-.618-.577q-.4-.39-.694-.645a14.493,14.493,0,0,0-2.469-1.646q-2.732,2.852-4.814,2.851-.819,0-.819-1.069a4.428,4.428,0,0,1,.88-2.173.808.808,0,0,0,.649.288,3.219,3.219,0,0,0,1.5-.525,7.263,7.263,0,0,0,1.558-1.121,12.2,12.2,0,0,0,.989-1.12,1.907,1.907,0,0,0,.416-.73c0-.182-.149-.272-.448-.272a18.128,18.128,0,0,0-2.684.17q-1.082.135-.988.135a.733.733,0,0,1-.479-.22,1.072,1.072,0,0,1-.339-.866.914.914,0,0,1,1.049-1.018l1.744-.034q1.8-.086,2.7-.085a6.565,6.565,0,0,1,2.5.289.655.655,0,0,1,.463.611.685.685,0,0,1-.262.509,3.768,3.768,0,0,0-.494.475q-.478.612-1.8,2.411a11.02,11.02,0,0,0,3.055,1.63q.664.254,2.006.662c.093.022.211.056.356.1h.015A2.808,2.808,0,0,1,960.657,965.418Z" fill="#231f20"/><path d="M935.378,921.672a.821.821,0,0,1,.663.255,1.1,1.1,0,0,1,.247.678,1.8,1.8,0,0,1-.571,1.155l-1.867,1.749c-.268.294-.4.48-.4.559q0,.255.525.561l.694.306q.957-.918,1.867-1.834a1.292,1.292,0,0,1,.819-.509.788.788,0,0,1,.493.22.847.847,0,0,1,.247.578,2.13,2.13,0,0,1-.71,1.46l-2.932,2.868,2.392.085c.082,0,.123-.062.123-.187a2.581,2.581,0,0,1-.617-.95q0-.476.432-.476.4,0,1.636,1.223,1.019.967,1.019,1.493,0,.747-.556.747a3.894,3.894,0,0,1-.649-.119,15.782,15.782,0,0,0-1.913-.085h-2.052a9.057,9.057,0,0,0-2.006.17,1.738,1.738,0,0,1-.463.17q-.942,0-.942-.679a1.889,1.889,0,0,1,.741-1.34q.88-.781,1.713-1.545a10.926,10.926,0,0,0-1.821-.883q-.695-.237-.694-.577,0-.323.617-1l2.608-3.089Q934.9,921.672,935.378,921.672Zm5.987.611a31.957,31.957,0,0,1,3.287.1c.32.068.479.192.479.374a.856.856,0,0,1-.109.3,2.121,2.121,0,0,0-.215.968l-.093,4.872a4.587,4.587,0,0,1-1.25,3.056,2.99,2.99,0,0,1-2.1.984,1.115,1.115,0,0,1-.848-.441,4.173,4.173,0,0,1-.756-1.663,5.288,5.288,0,0,0,2.484-.934,2.647,2.647,0,0,0,.849-2.173v-3.48c0-.147-.088-.221-.263-.221q-2.236,0-3.6.136a4.788,4.788,0,0,1-.971.153c-.155,0-.309-.107-.463-.323a1.1,1.1,0,0,1-.216-.713c0-.464.282-.769.849-.916A26.2,26.2,0,0,1,941.365,922.283Z" fill="#231f20"/><path d="M933.7,938.894a.561.561,0,0,1,.494.22.842.842,0,0,1,.186.527.808.808,0,0,1-.294.543l-.972.832c-.144.147-.215.237-.215.271s.077.091.231.136l.277.068.664-.662a.81.81,0,0,1,.509-.289c.32,0,.479.2.479.6a.745.745,0,0,1-.325.594l-1.651,1.443c0,.045.047.067.139.067h1.1c.093,0,.14-.022.14-.067a2.5,2.5,0,0,1-.2-.611q0-.255.324-.255.262,0,.787.628a1.729,1.729,0,0,1,.448.866c0,.362-.164.543-.494.543a2.173,2.173,0,0,1-.417-.068h-1.327a12.2,12.2,0,0,0-1.774.1,1.27,1.27,0,0,1-.371.1.373.373,0,0,1-.262-.12.368.368,0,0,1-.124-.3c0-.148.154-.357.463-.629l.85-.882a7.34,7.34,0,0,0-1.066-.459q-.37-.1-.37-.272c0-.113.123-.3.37-.56l1.59-1.765C933.237,939.092,933.511,938.894,933.7,938.894Zm4.445-.323a2.372,2.372,0,0,1,.911.119.288.288,0,0,1,.216.272,1.332,1.332,0,0,1-.155.559,10.7,10.7,0,0,1,1.636.17c.154.035.231.114.231.239q-.077.407-.184,1.205l.169-.187,1.574-1.647q.525-.543.8-.543a.586.586,0,0,1,.494.221.885.885,0,0,1,.185.526.773.773,0,0,1-.325.51l-1.064.746c-.145.125-.216.2-.216.238,0,.057.062.118.185.187l.294.152.555-.526a.822.822,0,0,1,.509-.272q.494,0,.494.6a.675.675,0,0,1-.355.559l-1.682,1.359q0,.051.123.051h.973c.134,0,.2-.017.2-.051a2.257,2.257,0,0,1-.2-.561c0-.169.107-.254.324-.254q.262,0,.74.611a1.538,1.538,0,0,1,.433.815c0,.362-.145.543-.433.543h-1.759a10.58,10.58,0,0,0-1.651.1,1.1,1.1,0,0,1-.37.1.441.441,0,0,1-.294-.153.372.372,0,0,1-.107-.255.511.511,0,0,1-.217.052,1.536,1.536,0,0,1-.246-.052c-.3-.033-.71-.056-1.236-.067l.093.05a1.148,1.148,0,0,1,.4.7q2.409.084,6,.543a2.98,2.98,0,0,1-.431,1.409c-.176.328-.386.492-.633.492a4.389,4.389,0,0,1-1.143-.272,17.962,17.962,0,0,0-3.811-.712l-.03,1.934a3.013,3.013,0,0,1-.325,1.511.839.839,0,0,1-.787.526,1.1,1.1,0,0,1-.8-.339q-.322-.255-.324-1.562v-2.088a18.457,18.457,0,0,0-4.228.628,4.167,4.167,0,0,1-1.08.221.589.589,0,0,1-.416-.238.6.6,0,0,1-.2-.424.756.756,0,0,1,.556-.832,19.637,19.637,0,0,1,5.386-.781,1.1,1.1,0,0,1,.308-.644,1.338,1.338,0,0,1,.155-.119,7.111,7.111,0,0,0-1.019.119.616.616,0,0,1-.2.085c-.195,0-.314-.182-.355-.544l-.325-3.463a.4.4,0,0,1,.294-.407,10.234,10.234,0,0,1,1.188-.17,1.793,1.793,0,0,0,.139-.527c0-.079-.067-.186-.2-.322A6,6,0,0,1,938.14,938.571Zm-2.948,8.488c.082,0,.124.045.124.135a2.439,2.439,0,0,1-.741,1.494,2.613,2.613,0,0,1-1.744,1q-.555,0-.555-.866a1.563,1.563,0,0,1,.262-1.018c.021.09.118.135.293.135a3.254,3.254,0,0,0,1.791-.678A1.328,1.328,0,0,1,935.192,947.059Zm1.992-5.721a7.213,7.213,0,0,1,.91-.051c.37,0,.746.018,1.127.051l.046-.594c0-.056-.037-.1-.109-.119a5.3,5.3,0,0,0-1.126-.085,2.439,2.439,0,0,0-.741.1c-.082.022-.123.056-.123.1Zm.231,1.579a3.959,3.959,0,0,1,.71-.068,4.914,4.914,0,0,1,.817.068c.114,0,.18-.068.2-.2l.03-.492c-.381-.034-.74-.051-1.08-.051s-.633.012-.88.034l.015.645C937.229,942.9,937.291,942.917,937.415,942.917Zm3.147.662c.073-.079.161-.176.263-.289l.987-.934a6.556,6.556,0,0,0-.91-.559.774.774,0,0,1-.17-.1C940.681,942.227,940.625,942.854,940.562,943.579Zm.417,3.548a1.9,1.9,0,0,1,.819.271,7.776,7.776,0,0,0,1.913.815,3.213,3.213,0,0,1-.556,1.239,1.082,1.082,0,0,1-.74.306q-.37,0-.834-.56a3.908,3.908,0,0,1-.786-1.868C940.8,947.194,940.856,947.127,940.979,947.127Z" fill="#231f20"/><path d="M938.14,956.218a38.962,38.962,0,0,1,5.957.305q.54.086.54.373-.309,2.327-.679,9.286c-.02.408-.149.611-.386.611a6.05,6.05,0,0,1-.678-.085q-1.56-.168-4.785-.17a48.559,48.559,0,0,0-5.108.2,3.261,3.261,0,0,1-.6.119c-.2,0-.314-.175-.354-.526l-.618-9.167q0-.492.725-.611A52.655,52.655,0,0,1,938.14,956.218Zm-4.506,8.759q1.266-.035,2.5-.051a.7.7,0,0,1-.139-.17,2.225,2.225,0,0,1-.324-1.273,4.774,4.774,0,0,0,2.176-.39.893.893,0,0,0,.478-.764V960.41a16.023,16.023,0,0,0-3.024.306,8.5,8.5,0,0,1-.926.119.569.569,0,0,1-.433-.2.91.91,0,0,1-.17-.543.736.736,0,0,1,.417-.7,18.172,18.172,0,0,1,4.136-.254v-.816a.78.78,0,0,1,.139-.475h-.324q-2.315,0-4.3.187-.757.067-.757.2l.371,6.6C933.449,964.932,933.511,964.977,933.634,964.977Zm3.472-4.091c.278,0,.416.164.416.492,0,.091-.123.271-.37.543a4.7,4.7,0,0,1-1.188.849,2.549,2.549,0,0,1-1.033.289.422.422,0,0,1-.479-.476,1.924,1.924,0,0,1,.355-1,.252.252,0,0,0,.247.118,2.226,2.226,0,0,0,.818-.186,3.724,3.724,0,0,0,.926-.527A.512.512,0,0,1,937.106,960.886Zm2.639-3.039a.459.459,0,0,1,.077.255,4.464,4.464,0,0,0-.061.611v.441q1.172.051,2.453.187a2.746,2.746,0,0,1-.293,1.273.536.536,0,0,1-.447.221,4.658,4.658,0,0,1-.8-.119c-.329-.079-.633-.142-.91-.187v1.987a2.2,2.2,0,0,1-.88,1.918,4.472,4.472,0,0,1-.942.475h4.275c.124,0,.19-.1.2-.289l.355-6.45c0-.091-.134-.153-.4-.187Q941.459,957.881,939.745,957.847Z" fill="#231f20"/></g></g></svg>
