<svg xmlns="http://www.w3.org/2000/svg" width="1000" height="988" viewBox="0 0 1000 988"><g id="Artboard"><rect id="Tint" width="1000" height="988" fill="#58595b"/></g><g id="Outline"><path id="弾幕アクションゲーム" d="M590.972,703.277c-.2-.7-.4-1.361-1.225-3.558-.83-2.178-1.42-3.512-2.053-4.913a4,4,0,0,0-4.894-2.153l-1.047.344c.447-1.129.968-2.454,1.258-3.233a4,4,0,0,0-2.253-5.106l-1.348-.543a4,4,0,0,0-5.065,1.906c-1.021,2.022-2.068,4.4-2.957,6.451-.1.217-.188.425-.278.631a3.984,3.984,0,0,0-3.4-2.116c-1.08-.029-2.18-.042-3.463-.042-2.734,0-6.609.1-9.652.264a5.492,5.492,0,0,0,.181-1.393,4.972,4.972,0,0,0-2.848-4.522,5.031,5.031,0,0,0-4.592-2.756,4.912,4.912,0,0,0-4.885,4.926c0,.108,0,.216.01.322l-.259.012a4,4,0,0,0-2.231-3.4l-1.228-.6a4,4,0,0,0-5.2,1.547c-1.153,1.939-2.065,3.7-2.956,5.556-.039-.012-.075-.032-.114-.043a4.005,4.005,0,0,0-3.076.446c-.9.542-1.833,1.1-2.8,1.667a4,4,0,0,0-1.159-3.163,38.177,38.177,0,0,0-6.065-4.851,4,4,0,0,0-4.974.769l-.985,1.086a4,4,0,0,0-.7,1.112c-2.227,0-9.409.205-11.183.448a8.66,8.66,0,0,1-4.572,3.627q-1.074.7-2.071,1.316a4,4,0,0,0,.492-1.348l.221-1.287a4,4,0,0,0-3.06-4.579,66.335,66.335,0,0,0-7.822-1.233c-.1-.008-.2-.012-.3-.012a3.992,3.992,0,0,0-3.262,1.708c-.386-.009-.775-.016-1.172-.016-.894,0-1.8.021-2.671.055a3.992,3.992,0,0,0-1.491-2.209l-1.006-.744a4,4,0,0,0-5.387.578l-.011.013c-.266.3-.415.472-1.606,1.778-.189.212-.39.444-.595.683a4,4,0,0,0-3.166-1.644c-.638-.009-1.286-.014-1.94-.014-6.435,0-12.45.411-14.737.588-.109.009-.211.039-.317.055a3.975,3.975,0,0,0-3.013-1.394h-1.584a3.993,3.993,0,0,0-3.222-1.63H435.93a4.005,4.005,0,0,1-3.882-.04h-1.367a4,4,0,0,0-3.51,2.081l-.959.063-.561.037a4.051,4.051,0,0,0-.609.1,3.984,3.984,0,0,0-1.131-1.234l-.945-.663a4,4,0,0,0-5.179.5c-.1.1-.2.208-.3.312a5.58,5.58,0,0,0-1.87-.311,4.773,4.773,0,0,0-1.987.451,5.147,5.147,0,0,0-1.647-.042,4,4,0,0,0-1.143-.206c-.435-.014-.964-.028-1.591-.028a44.577,44.577,0,0,0-5.218.315A4,4,0,0,0,400.5,687.9l-.02,1.227a2.7,2.7,0,0,1,.566,2.845,48.128,48.128,0,0,0-.958,6.689,4,4,0,0,0,1.023,2.989,4.075,4.075,0,0,0,.53.489c-.02.056-.04.112-.059.168l-.362,1.106a4,4,0,0,0,2.749,5.1,17.212,17.212,0,0,0,4.713.665,4,4,0,0,0,3.536-2.129,4,4,0,0,0,3.644,2.349h1.226a4,4,0,0,0,3.933-3.267l1.119-.078.587-.042c.058,0,.112-.021.17-.028l.086.074a3.994,3.994,0,0,0,2.61.968,4.056,4.056,0,0,0,.6-.045,4,4,0,0,0,3.54,2.137h1.187a4.042,4.042,0,0,0,.616-.047,3.989,3.989,0,0,0,1.918.489h1.287a4,4,0,0,0,1.739-.4c.37.023.778.036,1.23.036.114,0,.231,0,.352,0a4,4,0,0,0,3.609-2.412,3.947,3.947,0,0,0,3.456-.956,3.981,3.981,0,0,0,2.8,2.785l1.327.362a4,4,0,0,0,4.612-2.032,49.393,49.393,0,0,0,2.192-5.113c.04-.108.08-.217.118-.326a3.967,3.967,0,0,0,1.29-.727c.875-.735,1.607-1.365,2.363-2.118a3.967,3.967,0,0,0,.944.873l1.126.723a4,4,0,0,0,4.671-.249c-.68.9-1.277,1.692-1.54,2.053a4,4,0,0,0,.786,5.516l1.066.825a4,4,0,0,0,5.277-.335,66.093,66.093,0,0,0,6.22-7.652c.379-.55.752-1.126,1.122-1.723a3.991,3.991,0,0,0,1.467.714l.057.014-.856.36a4,4,0,0,0-2.063,5.41l.623,1.308a4,4,0,0,0,4.843,2.084,64.194,64.194,0,0,0,8.59-3.562,48.5,48.5,0,0,0,4.175-2.49v1.079a4,4,0,0,0,3.684,3.988c.923.073,1.635.073,2.106.073,1.421,0,2.178-.029,5.815-.165l3.183-.119q.111,0,.222-.015l.22-.02a3.97,3.97,0,0,0,.455-.084,4,4,0,0,0,3.96.787,54.432,54.432,0,0,0,9.233-4.082c1.194-.689,2.833-1.7,4.481-2.829a3.912,3.912,0,0,0,.489.282l1.207.543a4,4,0,0,0,5.087-1.616c.538-.913,1.066-1.846,1.592-2.817l.166,0c-.255.873-.579,1.919-.932,2.9-.933,2.46-1.051,2.787-1.209,3.239a4,4,0,0,0,2.475,5.106l1.287.442a4,4,0,0,0,4.777-1.805,30.277,30.277,0,0,0,3.468-9.492,3.987,3.987,0,0,0,3.68,2.845c.4.013.949.02,1.6.02,3.131,0,10.324-.172,13.325-.28a3.979,3.979,0,0,0-.781,3.25l.282,1.388a3.994,3.994,0,0,0,4.665,3.135c.39-.074,1.508-.27,2.678-.476,1.335-.236,2.736-.483,3.27-.584.947-.167,3.232-.636,5.157-1.06.135.288.215.454.219.463a3.995,3.995,0,0,0,5.015,1.991l1.327-.5A4,4,0,0,0,590.972,703.277ZM445.85,695c.612,0,1.32-.013,2.083-.033-.247.971-.561,2.058-.924,3.22V697.8A3.981,3.981,0,0,0,445.85,695Zm69.626.59c.765.6,1.448,1.116,1.873,1.411-.632.329-1.273.648-1.914.965C515.458,697.124,515.471,696.33,515.476,695.591Z" fill="#fff"/></g><g id="Text"><path d="M168.068,346.081l-1.816.091v-1.425l4.783-.414V359.67h-2.967Z" fill="#000000"/><path d="M188.285,351.53a5.7,5.7,0,0,0,1.4-3.035,2.455,2.455,0,0,0-1.679-2.277,3.5,3.5,0,0,0-1.1-.184c-1.77,0-2.644.989-2.644,2.99l.092.689h-1.725l-.092-.758a4.644,4.644,0,0,1,1.127-3.2,4.861,4.861,0,0,1,3.794-1.356,5.126,5.126,0,0,1,4.484,2.184,3.955,3.955,0,0,1,.713,2.369,8.066,8.066,0,0,1-1.978,4.461l-3.495,4.576h5.7v1.678H182.191Z" fill="#000000"/><path d="M201.649,358.59a1.574,1.574,0,0,1,1.633-1.334,1.534,1.534,0,0,1,1.61,1.334,1.235,1.235,0,0,1-.53.989,1.7,1.7,0,0,1-1.08.367A1.575,1.575,0,0,1,201.649,358.59Z" fill="#000000"/><path d="M220.162,349.76a3.047,3.047,0,0,1,2.024.689,2.312,2.312,0,0,1,.851,1.863,5.01,5.01,0,0,1-1.173,2.69l-3.38,4.668h-3.565l4.737-6.622a1.764,1.764,0,0,0,.414-.874c0-.483-.344-.736-1.034-.736h-3.887l3.726-5.082h-3.84v-1.678h8.393l-3.588,5.082Z" fill="#000000"/><path d="M237.771,359.67h-2.736V350.6h-2.112v-1.3h6.936v1.3h-2.088Z" fill="#000000"/><path d="M255.1,354.534h-3.384v5.136H249V342.509h2.713v10.465H255.1v-3.936h2.713V359.67H255.1Z" fill="#000000"/><path d="M287.1,359.67h-3.38V346.241l-2.967.023V344.77h9.313v1.448H287.1Z" fill="#000000"/><path d="M303.1,359.958a5.722,5.722,0,0,1-3.96-1.632,5.347,5.347,0,0,1,.912-8.593,5.822,5.822,0,0,1,2.688-.695,6.5,6.5,0,0,1,4.1,1.416,4.655,4.655,0,0,1,1.945,3.768c0,2.472-.961,4.153-2.857,5.089A6.231,6.231,0,0,1,303.1,359.958Zm0-9.672c-1.128,0-1.872.695-2.256,2.112a7.778,7.778,0,0,0-.361,1.824,5.03,5.03,0,0,0,1.345,3.864,1.822,1.822,0,0,0,1.272.576,2.2,2.2,0,0,0,2.064-1.536,6.435,6.435,0,0,0,.5-2.664,5.114,5.114,0,0,0-1.1-3.5A1.806,1.806,0,0,0,303.1,350.286Z" fill="#000000"/><path d="M321.768,359.958c-2.712,0-4.08-1.2-4.08-3.624V349.3h2.736v7.368a1.623,1.623,0,0,0,1.728,1.608q2.088,0,2.088-2.376v-6.6h1.56v7.128a3.164,3.164,0,0,1-1.944,3.12A5.142,5.142,0,0,1,321.768,359.958Z" fill="#000000"/><path d="M341.3,354.534h-3.385v5.136h-2.712V342.509h2.712v10.465H341.3v-3.936h2.712V359.67H341.3Z" fill="#000000"/><path d="M359.231,359.958a5.724,5.724,0,0,1-3.96-1.632,5.348,5.348,0,0,1,.913-8.593,5.816,5.816,0,0,1,2.688-.695,6.5,6.5,0,0,1,4.1,1.416,4.654,4.654,0,0,1,1.944,3.768c0,2.472-.96,4.153-2.856,5.089A6.232,6.232,0,0,1,359.231,359.958Zm0-9.672c-1.127,0-1.872.695-2.255,2.112a7.725,7.725,0,0,0-.361,1.824,5.03,5.03,0,0,0,1.344,3.864,1.825,1.825,0,0,0,1.272.576,2.2,2.2,0,0,0,2.065-1.536,6.435,6.435,0,0,0,.5-2.664,5.114,5.114,0,0,0-1.1-3.5A1.807,1.807,0,0,0,359.231,350.286Z" fill="#000000"/><path d="M377.9,359.958c-2.712,0-4.08-1.2-4.08-3.624V349.3h2.737v7.368a1.623,1.623,0,0,0,1.728,1.608q2.088,0,2.087-2.376v-6.6h1.561v7.128a3.164,3.164,0,0,1-1.944,3.12A5.147,5.147,0,0,1,377.9,359.958Z" fill="#000000"/><path d="M410.271,353.692h-2.023v5.978h-3.335v-14.9H411.4a4.27,4.27,0,0,1,4.323,2.667,5.575,5.575,0,0,1,.368,2.023,3.918,3.918,0,0,1-.529,2.231C414.755,353.025,413.007,353.692,410.271,353.692Zm-.943-7.7h-1.08v6.255h1.08c2.461,0,3.4-1.058,3.4-3.426a2.951,2.951,0,0,0-.367-1.449Q411.64,345.988,409.328,345.988Z" fill="#000000"/><path d="M426.357,354.174a5.332,5.332,0,0,1,.817.048,1.713,1.713,0,0,0,1.3-.552,2.053,2.053,0,0,0,.432-1.344,1.708,1.708,0,0,0-1.921-1.728h-.839v9.072h-2.713V349.3h4.681a3.833,3.833,0,0,1,2.5.792,2.69,2.69,0,0,1,1.032,2.232c0,1.128-.7,1.92-2.064,2.424l2.88,4.92h-3.192Z" fill="#000000"/><path d="M446.205,359.958a5.722,5.722,0,0,1-3.96-1.632,5.348,5.348,0,0,1,.912-8.593,5.822,5.822,0,0,1,2.688-.695,6.507,6.507,0,0,1,4.1,1.416,4.654,4.654,0,0,1,1.944,3.768c0,2.472-.96,4.153-2.856,5.089A6.238,6.238,0,0,1,446.205,359.958Zm0-9.672c-1.128,0-1.872.695-2.256,2.112a7.762,7.762,0,0,0-.36,1.824,5.03,5.03,0,0,0,1.344,3.864,1.823,1.823,0,0,0,1.272.576,2.205,2.205,0,0,0,2.065-1.536,6.452,6.452,0,0,0,.5-2.664,5.109,5.109,0,0,0-1.1-3.5A1.8,1.8,0,0,0,446.205,350.286Z" fill="#000000"/><path d="M460.965,363.351V362.1q1.944,0,2.16-.72a4.772,4.772,0,0,0,.12-1.176V348.158h2.736v12.264c0,2.089-1.224,3.1-3.648,2.977Zm3.6-16.994a1.668,1.668,0,1,1,0-3.336,1.687,1.687,0,0,1,1.752,1.68,1.574,1.574,0,0,1-.864,1.416A1.647,1.647,0,0,1,464.565,346.357Z" fill="#000000"/><path d="M474.285,357.7V351.39c0-1.345.552-2.088,2.208-2.088h5.16v1.3h-4.224a1.6,1.6,0,0,0-.384.024.345.345,0,0,0-.048.216v2.736h3.864v1.488H477v2.928a.313.313,0,0,0,.168.288.56.56,0,0,0,.408.144h4.392v1.248h-5.76A1.719,1.719,0,0,1,474.285,357.7Z" fill="#000000"/><path d="M490.484,357.174a5.747,5.747,0,0,1-.7-2.76,5.256,5.256,0,0,1,1.561-3.792,5.173,5.173,0,0,1,3.84-1.584,5.379,5.379,0,0,1,4.512,2.544l-1.44.672a3.161,3.161,0,0,0-2.832-1.921c-1.68,0-2.52,1.489-2.52,4.441a4.961,4.961,0,0,0,.6,2.568,2.352,2.352,0,0,0,2.208,1.32,2.151,2.151,0,0,0,1.632-.624l.576-.648.648-.864,1.3.5a5.323,5.323,0,0,1-9.385.144Z" fill="#000000"/><path d="M512.3,359.67h-2.737V350.6h-2.111v-1.3h6.937v1.3H512.3Z" fill="#000000"/><g id="東方非想天則"><path d="M305.716,523.608c-9.855,5.178-10.523,16.035-10.523,17.038-.167,2.5-.334,5.344-4.509,5.344-9.019,0-31.734-13.529-43.426-30.4-6.681-9.521-10.69-21.212-12.861-28.227h-.334v59.794c0,2.672-.167,4.008-3.173,4.176l-13.529.835c-3.007.167-3.507-.167-3.507-4.51V503.232c-25.054,26.556-50.775,36.745-66.81,42.089l-.5-.5c16.536-11.691,31.567-25.553,43.76-41.755a125.04,125.04,0,0,0,10.189-15.7H187.8v4.677c0,2-.167,4.342-3.507,4.51l-13.028.835c-4.176.334-4.176-.668-4.176-3.842v-62.3c4.844,1.169,18.372,4.509,23.884,6.346h22.883V419.22H151.387l-.835-2h63.3V397.173c4.342.167,19.708,1.169,22.38,1.5,2.506.167,3.007.5,3.007,1.169,0,1.5-2.84,2.172-5.178,2.673v14.7h35.91l9.854-12.861c1.5-1.837,1.5-2.171,2-2.171,1.169,0,19.207,13.695,19.207,15.7,0,1.336-1.169,1.336-2.171,1.336H234.063v18.372H258.95l5.344-7.181c2.339-3.007,3.007-3.007,3.675-3.007,2,0,20.043,12.193,20.043,15.032,0,2.672-5.512,5.011-6.514,5.345v42.09c0,3.006,0,4.509-3.842,4.843l-12.527,1c-4.342.334-4.342-1-4.342-4.008v-4.343H235.9c10.523,17.37,38.081,32.4,69.816,35.909Zm-91.862-62.465V439.6H187.8v21.546Zm0,24.385V463.147H187.8v22.381ZM234.063,439.6v21.546h26.724V439.6Zm0,23.55v22.381h26.724V463.147Z" fill="#000000"/><path d="M368.535,417.2c1.629-2.036,1.9-2.308,2.579-2.308s16.429,10.726,16.429,13.306c0,1.9-2.037,2.444-5.431,3.53-2.173,40.867-4.616,63.949-31.363,63.949-4.345,0-6.246-.543-6.246-3.8,0-7.874,0-10.726-10.455-16.7v-.543a144.339,144.339,0,0,0,14.935,1.358c7.2,0,10.319-1.63,12.492-12.763,1.764-9.64,2.986-27.018,3.122-37.609H337.85c-5.7,52.137-33.943,62.456-57.3,69.787l-.136-.271c8.146-4.073,19.008-12.627,26.883-25.118,7.2-11.541,13.985-28.513,13.985-70.873v-1.223H279.2l-.679-1.629H331.6V370.627c9.64.951,14.664,1.358,19.688,1.9.95.136,1.9.408,1.9,1.222,0,1.358-1.629,1.765-4.209,2.444v20.094H377.5l8.282-12.083c.679-.951,1.086-1.63,1.629-1.63.679,0,16.293,12.763,16.293,14.257,0,1.085-.815,1.085-1.63,1.085H339.343a226.608,226.608,0,0,1-1.221,26.069h25.253Z" fill="#000000"/><path d="M381.031,535.3H343.013l-.754-1.864h38.772V509.351H339.242l-.6-1.866h42.393V472.68c12.673,1.554,17.8,2.175,22.63,2.953.3,0,2.111.31,2.111,1.242,0,1.244-2.564,1.71-5.129,2.021v60.288c0,4.194,0,7.458-.3,13.051l13.729-2.02.151.467c-2.263,1.087-12.22,5.9-14.332,6.836-1.056,12.12-2.716,27.968-18.406,41.02-7.844,6.526-20.366,14.295-39.677,18.957l-.151-.467c33.492-18.956,36.962-41.175,38.32-49.721-11.315,5.593-22.932,10.566-34.548,15.072-1.81-4.2-6.94-17.4-8.147-20.666l43.751-6.525Zm69.85-27.969,8.146-12.9c.906-1.4,1.207-1.865,1.811-1.865.9,0,16.9,14.295,16.9,15.383s-.6,1.243-1.207,1.243H435.794v30.454h11.164l8.9-12.43c1.207-1.554,1.358-1.709,1.81-1.709.755,0,16.445,13.518,16.445,14.761,0,1.087-.453,1.243-1.056,1.243H435.794v32.94h15.087l9.5-13.362c1.207-1.709,1.358-1.864,1.81-1.864.906,0,17.2,14.605,17.2,15.848,0,1.088-.453,1.243-1.056,1.243H435.794v36.826c0,2.8,0,3.417-1.961,3.573l-14.332.932c-3.017.156-3.017-.622-3.017-3.419V472.991c1.207.155,21.12,2.02,22.78,2.486.3,0,1.509.466,1.509,1.243,0,1.243-.453,1.4-4.979,2.8V507.33Z" fill="#000000"/><path d="M460.189,443.177l-.641-1.425h23.339V419.864c12.951,1.036,16.285,1.3,17.824,1.554.385,0,1.154.259,1.154.777,0,1.036-2.564,1.555-3.847,1.943v17.614h2.821l4.873-7.512c.642-1.036,1.026-1.424,1.411-1.424s9.1,8.289,9.1,9.455c0,.906-.385.906-.9.906H498.018v5.828c13.721,6.606,16.926,12.045,16.926,17.873,0,4.4-2.307,8.678-7.95,8.678-3.462,0-4.873-.907-5-3.756-.513-11.915-.769-15.283-3.975-21.37v42.352c0,1.943,0,2.46-2.564,2.719l-9.746.777c-2.821.259-2.821,0-2.821-3.108V466.231c-8.848,11.915-20,19.039-25.262,22.406l-.129-.259c9.105-13.6,17.055-30.695,21.03-45.2Zm18.081,59.448c3.462,8.548,3.847,14.376,3.847,17.355,0,10.1-5.386,15.542-11.157,15.542-5.128,0-9.489-4.4-9.489-8.807,0-1.814.641-2.461,2.693-4.015,7.053-5.31,11.669-11.657,13.721-20.075Zm11.8-2.072c2.18.259,19.363,1.553,19.363,2.849,0,1.036-1.667,1.554-3.847,2.073v13.081c0,1.683,0,3.108.77,3.5,1.667.776,10.129.906,16.926.906,9.874,0,12.054-.519,13.85-2.2,2.435-2.331,3.847-4.792,9.1-14.895h.256c-.128,1.685-.385,8.938-.385,10.621,0,1.943,0,2.72,1.924,4.534,3.206,3.108,3.847,4.792,3.847,6.993,0,8.549-7.693,9.325-28.725,9.325-30.39,0-33.083-.389-33.083-16.318Zm19.363-4.275c4.873.389,24.364,2.331,24.364,14.247,0,5.181-4.616,8.678-9.1,8.678-3.718,0-3.974-1.555-5.385-5.958-.77-2.461-3.334-10.879-9.874-16.578Zm23.211-10.361v5.7c0,2.591,0,2.72-2.566,2.979l-10,.777c-2.821.259-2.821-.13-2.821-3.238v-66.96c12.567,2.461,13.977,2.72,17.056,3.5h19.363l4.359-6.216c1.283-1.814,1.411-1.943,2.052-1.943,1.283,0,14.747,10.749,14.747,12.433,0,1.3-3.334,2.72-4.872,3.367v56.081c0,1.943,0,2.849-2.181,2.979l-10.643.648c-2.822.129-2.822.129-2.822-3.108v-7Zm21.67-39.114V430.225h-21.67V446.8Zm0,18.133V448.228h-21.67v16.708Zm0,19.557v-18h-21.67v18Zm-2.307,15.671c17.7,5.828,25.006,13.34,25.006,22.536,0,5.31-3.078,10.362-9.874,10.362-4.361,0-5.258-1.037-5.643-4.145-1.282-11.786-4.1-19.558-9.746-28.364Z" fill="#000000"/><path d="M669.227,414.943l8.831-13.647c.481-.8,1.284-1.927,1.926-1.927,1.285,0,18.3,14.932,18.3,16.216s-1.124,1.285-2.087,1.285H637.438c6.1,37.89,43.509,55.39,71.446,60.849v.642a19.434,19.434,0,0,0-13.166,14.611c-.8,4.335-1.284,7.546-4.977,7.546-3.853,0-32.431-11.079-46.4-38.212-5.941-11.4-7.867-22.317-8.188-42.225a127.53,127.53,0,0,1-5.459,25.688C617.529,484.3,579.96,496.985,554.753,500.2l-.321-.481c56.354-22.317,59.885-65.666,61.331-82.845h-50.9l-.641-1.927h51.7c.161-5.3.321-10.276.321-15.574V368.382H557.482l-.8-1.766H674.686l9.312-13c.8-1.285,1.284-1.927,1.927-1.927,1.284,0,18.142,14.128,18.142,15.574,0,1.123-.963,1.123-2.088,1.123h-64.7v30.987a153.679,153.679,0,0,1-.642,15.574Z" fill="#000000"/><path d="M754.308,437.708l5.207-7.56c1.464-1.972,1.79-2.465,2.765-2.465s14.158,9.86,15.784,11.175c3.417,2.63,4.069,3.287,4.069,4.766,0,3.123-5.37,3.944-6.835,4.108V529.9c0,2.958,0,3.616-3.579,3.945l-13.018.985c-2.93.165-2.93-.493-2.93-3.286V527.6H730.55v4.272c0,2.958,0,3.451-3.9,3.78,2.929.986,20.828,7.067,20.828,8.709,0,.987-.489.987-5.369,1.316-12.693,12.982-23.758,22.513-44.26,30.566l-.326-.329a120.735,120.735,0,0,0,24.246-39.934l-7.486.494c-2.44.164-3.255-.494-3.255-3.287V432.778a198.832,198.832,0,0,1,23.27,4.93Zm-23.758,1.808v26.951h25.221V439.516Zm0,28.923V494.9h25.221V468.439Zm0,28.266v29.088h25.221V496.705Zm16.6,39.606c28.151,3.286,35.961,14.79,35.961,23.17,0,9.368-8.786,13.148-13.993,13.148-3.092,0-3.58-1.15-5.045-6.738-1.79-6.245-8.787-23.007-17.086-29.087Zm60.044.493c0,2.3,0,2.958-2.929,3.122l-13.993.986c-2.767.164-2.767-.657-2.767-2.958V441.816a201.076,201.076,0,0,1,21.153,2.3c2.93.493,3.255.493,3.255,1.315s-.488,1.315-4.719,2.136ZM841.362,560.8c0,6.573,0,18.076-21.153,18.076-4.557,0-5.207-1.314-5.207-5.094,0-5.588.162-6.245-.326-7.888-1.464-5.752-14.319-10.682-16.272-11.5V553.9c3.742.164,16.923.657,19.69.657,3.092,0,3.092-.657,3.092-4.766V426.533c2.928.164,25.383,1.808,25.383,3.779,0,1.151-3.58,1.973-5.207,2.466Z" fill="#000000"/></g><path d="M472.909,614.293c-10.907-1.281-16.782-2.344-22.563-3.375l-.469,3.25-4.781-1.25c.75-3.969,1.125-6.219,1.844-11.094l3.937.563-.437,3.687,1.125.156v-6.125l-4.5.657-1.656-4.25c2.75-.782,3.687-1.094,6-1.875v-.813l-3.969.563-1.906-4.282,5.875-1.031v-4.562l5.218.718.032,2.938,2.562-.469-.344-.906,12.688-1.781,3.812,4.062a31.033,31.033,0,0,1-2.406,9.156l1.906,1.813-1.625,7.406-10.25.375c6.188.625,10.282.813,12.75.938Zm-9.969-23.156-2.375.406.156.469-4.062,1.218v1.157l3.093-.688.782,2.344Zm-6.125,15.812c2,.25,2.312.281,3.656.438l-.625-8.438-3.031.438v1.468l2.281-.406,1.125,4.969-3.406.312Zm3.781-9.625.313,1.313,2.562-.282Zm4.813.781,3.093-.343-2.312-1.719Zm3.218,3.875-3.187.344.062,1.125,2.969-.281Zm-1.468-8.281,1.843-.625a13.8,13.8,0,0,0,1.032-3.156l-1.719.281Z" fill="#000000"/><path d="M505.188,599.637l-1.843,4-16.656,1.968-.25.719,15.718-1.906,4.094,2.844a21.25,21.25,0,0,1-3.969,7.687L489.1,611.137l7.313-1.594c2.093-.469,2.343-.531,3.093-1.844l-16.468,2.531-3.844-2,2.031-5.312,16.687-2.156.281-.719-15.843,2.187-1.844-3.343-3.093-2.25a37.364,37.364,0,0,0,3.843-1.563l-1.593-.437,1.093-3.032-1.375.282-2.218-4.25,5.312-.782.938-2.531,5.593.531-.5,1.157,3.25-.469,1.219,1.531L503,584.73l3.906,4.219c-1.437,1.5-2.25,2.281-3.656,3.594,1.875.719,3.812,1.281,4.562,1.5l-3.312,4.062c-1.25-.468-1.656-.625-2.969-1.156Zm-14.437-1.969-3.437-.938c-.656.532-1.344,1.032-2.063,1.532Zm-4.75-5.5a27.639,27.639,0,0,0,2.657-2.156l-2.125.437-.75,1.688Zm7.407,5.219-1.782-.844-.687,1.094ZM495,590.855l-.656-.718c-1.125,1.281-1.656,1.812-3,3.125l2.094.406-.656,1.062c.437-.218.75-.375,1.781-.968-1.188-.625-1.313-.688-1.969-1.032Zm2.313-.656c.749.375.843.438,1.749.875,1.188-.875,2.125-1.719,2.688-2.219Zm3.437,6.406-1.563-.656c-.375.313-.531.438-1.25.969Z" fill="#000000"/><path d="M524.22,611.168c-.157.687-.375,1.594-.563,2.344l-2.531-1L518.5,613.98l-.781-2.156-3.75,2.313c-.063-.469-.25-2.313-.313-2.969-1.594,1.219-1.812,1.375-3.844,2.781-.156-1.406-.375-5.187-.406-6.125l3.969.594c0-.25-.125-1.438-.125-1.719l-.969.594-3-3.875,3.344-6.313-3.688-2.343,6.219-10.438,5.094,2.594-.781,1.094,11.281-3.375,5.969,2.937-2.532,6.688,1.813-.719,2.906,5.469a62.935,62.935,0,0,1-3.687,7.562A46.1,46.1,0,0,0,539,609.23l-4,4.719c-1.594-1.187-2.125-1.625-3.031-2.375-.782,1.063-2.157,3.031-2.313,3.219Zm-5.657-6.25a12.719,12.719,0,0,0-.187-1.406l-4.906,3.062,2.875.469,3.218-1.781.375.968c.063-.312.375-1.656.438-1.937Zm-.812-5.063c-.125-.687-.156-.906-.375-1.906l-1.563,2.719Zm3.562-6.062-2.968-4.188-2.219,3.125,3.125,1.875-1.688,2.969,3.657.063.312,1.156c.531-2.719.563-3.031,1.063-5.531Zm6.094,13.406c-.969-1-1.781-1.969-1.875-2.094-.625,3.094-.656,3.282-1.125,5.25C525.845,608.949,526.313,608.418,527.407,607.2Zm2.281-6.156-2.156-3.656a40.012,40.012,0,0,0,2.5-7.188l-3.937,1.625,1.375.688c-.282,2.562-.375,3.156-.813,6.062a39.106,39.106,0,0,0,4,4.531c1.156-1.625,1.563-2.218,2.781-4.125Z" fill="#000000"/><path d="M558.781,599.293l8.844-1.313,2.125,5.75-9.969,1.219,1.407,7.938-6.938,1.187-1.219-8.5-8.562.938-3.5-4.969c3.875-.719,4.625-.875,11.156-2.281l-.469-3.282-7.437.844-2.969-5.187,9.625-1.188-.75-5.219,6.219.407.718,4.062,3.813-.469-.594-3.406,4.688,1.25-.781-2.312h4.218l2.063,5.687-3.844,1.594-.781-2.344-1.25,1.406,1.968,3.375c-4.031.969-4.437,1.063-8.281,2.063Z" fill="#000000"/><path d="M600.5,611.074l-25.5.875-3.438-5.906L598,604.012ZM597,593.887l-20.438,1.625-2.624-5.657,20.281-2.375Z" fill="#000000"/><path d="M605.374,613.293l-2.844-4.438,13.813-1.125.281-2.687-11.75.844-2.406-4.188,14.687-1.562.282-2.782-13.344,2.157-3.031-4.844,17.75-2.219L624,595.918l-2.312,17.187-3.313-.343Z" fill="#000000"/><path d="M625.592,610.605a100.471,100.471,0,0,0,4.219-21.312l5.968,1.656a134.188,134.188,0,0,1-3.125,21.656Zm19.25-6.875a55.546,55.546,0,0,0,8.312-7.375l2.188,7.75a103.114,103.114,0,0,1-12.469,9.282l-5.031-3.625.594-24,6.906,1.687Z" fill="#000000"/><path d="M676.342,593.73A72.457,72.457,0,0,1,667,611.574c-1.719-1.125-8.281-5.344-8.625-5.812-.469-.625-.687-3.063-.687-4.625,0-4.282,1.125-7.657,3.875-10.469a16.635,16.635,0,0,1,11.468-4.906,13.92,13.92,0,0,1,14.032,13.687c0,4.75-2.657,9.125-5.625,11.938-.782.718-1.407,1.218-3.625,3.031l-8.469-3.75c2.5-1,10.906-4.375,10.906-11.938,0-4.187-2.969-7.281-7.625-7.281-.406,0-.781.031-1.125.063Zm-12.281,6.844c0,.5,0,2.625,1.093,3.563a90.479,90.479,0,0,0,4.688-12.282C665.5,593.043,664.061,597.605,664.061,600.574Z" fill="#000000"/><path d="M700.216,587.855l1.531,4.625-10.719,1.313-1.625-4.125,3.938-.656.125-4.5,4.969.25.031,3.375Zm6.281,6.563,3.344-.625.031-1.719c-2.031,1.531-2.281,1.688-2.937,2.219-.188-.594-1.282-3.5-1.5-4.156-.594.656-1.063,1.062-3.438,3.218a29.666,29.666,0,0,0-1.469-8.593,57.141,57.141,0,0,1,7.282,2.218l-1,1.125,3.062.594.031-4.031,4.938.594.031,3.625,1.875-3.219L720,588.48l-2.781,3.844-2.313-.906.032,1.406,3.343-.625,1.438,5.406-4.156.532c.218.187,3,2.625,4.5,3.625l-2.594,5-2.344-2.469.063,3.094-5.407.468.032-3.156c-1.125,1.313-1.219,1.438-1.813,2.094l-1.031-.469-.563,1.031a110.246,110.246,0,0,0,13.563,1.532l-3,5.406a92.951,92.951,0,0,1-12.75-2.594l-1.5,2.625-2.656-1.937-.157,1.75-9.031.343-.406-10.281,3.875-.531-3.094-1.688,2.813-3.343-2.625.687-1.407-3.969,8.625-2.031.782,1.563,5.718-2.032ZM694.81,608.043v1.437l1.125-.125.031-1.406Zm4.843-4.5,2.375-4.063-2,.969-.843-1.75-1.438,1.563,2.281.687-1.937,2.438,2.594,1.718-.282,3.219,1.969-2.969Zm5.75-2.344.813.469c1.25-1.125,2.344-2.219,2.844-2.719l-2.438.313Z" fill="#000000"/><path d="M751.059,600.23c-3.094,1.032-4.594,1.563-7.344,2.625.219,1.219.281,1.875.406,3.157l-6,.875c-.031-.594-.062-.782-.094-1.407-2.406,1.219-3.031,2-3.031,2.188,0,.281.531.531,1.219.531a62.552,62.552,0,0,0,12.375-1.562l.937,6.468a75.616,75.616,0,0,1-11.156.875c-4.75,0-6.906-.437-8.125-1.218a5.955,5.955,0,0,1-2.437-4.532c0-3.187,4.156-5.718,6.812-7.281a7.789,7.789,0,0,0-6.281,2.875l-5.656-1.344,4.343-7.625-1.843.282-3.282-4.844,8.344-1.094,2.563-4.562,6.687,1.437-1.5,2.531,5.969-.593,2.75,4.687c-3.813.719-4.313.813-12.656,2.531l-.782,1.344a20.328,20.328,0,0,1,4.782-.844,3.6,3.6,0,0,1,3.312,1.782c.344-.125,3.469-1.594,6.625-2.594Z" fill="#000000"/><path d="M777.308,586.668l5.156,2.812-2,6.844L770,597.449v.875l7.969-1,4.844,2.875-2.282,7.594-12.593.219c9.218.625,10.25.687,15.5.875l-3.032,5.968c-8.562-1-9.781-1.187-20.781-2.937l-1.375,2.687-5.281-2.75c1.812-2.906,2.062-3.312,4.281-6.968l-2.781-1.469,3.062-4.781-2.343,1-2.375-4.657,8.937-3.156,2.625,3.156.063-6.843,3.812-.407,1.188-3.406,6.062.781-.844,1.844Zm-21.157,6.312a16.108,16.108,0,0,0-1.625-8.187,49.917,49.917,0,0,1,8.282,2.437A36.666,36.666,0,0,1,756.151,592.98Zm5.688,14.594c1.375.125,1.531.125,2.437.188l.094-10.594-3,3.875,2.813,2Zm8.062-4.937v1.093l5.75-.562.344-1.219Zm.188-10.75-.031,1.125,5.375-.782.281-.968Z" fill="#000000"/><path d="M803,590.855l5.094,5.688-6.469,5.312a2.587,2.587,0,0,1,2.344,2.875c.031,1.907.062,2.625,1.656,2.625.625,0,2.531-.062,5.688-2.031l1.5,7.438a25.245,25.245,0,0,1-6.75.968c-7.875,0-8.157-4.156-8.313-6.437l-7.219,6.687-6.093-3.437c5.687-4.906,9.468-8.344,15.25-14.063l-9.813,3.969-4.812-5.125,9.062-2.25a23.52,23.52,0,0,0-1.594-8.5,50.866,50.866,0,0,1,10.5,3.969l-4.781,3.5Z" fill="#000000"/><path d="M408.019,693.8a8.081,8.081,0,0,1-1.79.14c-.182,1.81-.4,3-.523,3.661.462-.021,1.327-.1,2.694-.1.825,0,1.227.021,1.71.04a42.935,42.935,0,0,1-1.428,7.643,13.15,13.15,0,0,1-3.66-.524l.362-1.105a13.177,13.177,0,0,1,2.232.16,36.753,36.753,0,0,1,.966-4.807c-1.348.061-2.8.1-4.5.061a43.9,43.9,0,0,1,.884-6.174,17.209,17.209,0,0,1,3.017-.121Zm.6.663a49.376,49.376,0,0,1,.6-5.39,41.905,41.905,0,0,1-4.746.121l.02-1.226a39.775,39.775,0,0,1,6.214-.262,39.5,39.5,0,0,1-.864,6.878Zm8.326-.543c.02.2.02.282.06,1.086.483-.02.825,0,1.327,0l.02.966c-.623.08-.9.1-1.287.14,0,.061.061,1.449.061,1.629.322,0,2.292-.08,2.474-.08-.081-1.991-.081-2.313-.041-4.465-2.594.2-3.3.221-5.933.242l-.02-1.248a57.579,57.579,0,0,1,7.321-.321c.06.824.16,2.252.16,4.022,0,1.287-.06,2.172-.08,2.836-1.77.18-2.876.261-3.841.322,0,.321.02,1.086.02,1.87,2.534-.04,3.017-.061,5.269-.04v1.146c-.885.06-2.936.221-5.289.322-.02.664-.061,2.473-.081,3.056h-1.226c-.081-1-.141-1.99-.181-3-1.569.061-4.022.061-5.39.04V701.26c2.011-.141,2.091-.141,5.35-.281,0-.283-.02-1.589-.041-1.851-2.091.08-3.318.08-4,.08-.06-.684-.161-1.95-.161-3.74,0-1.71.081-2.776.141-3.52h1.247c.08,1.107.161,2.193.181,3.3.845-.1,1.81-.16,2.655-.2.02-.523.04-.724.06-1.126Zm-3.158-4.947A1.033,1.033,0,0,1,412.745,690a1.15,1.15,0,0,1-1.147-1.1,1.073,1.073,0,0,1,1.086-1.026A1.127,1.127,0,0,1,413.79,688.972Zm-.764,7.32c0,.362,0,.845-.02,1.689.3-.019,2.152-.14,2.594-.18,0-.1.021-1.327.021-1.589C415.1,696.232,414.555,696.252,413.026,696.292Zm3.841-7.7A1.049,1.049,0,0,1,415.8,689.6a1.131,1.131,0,0,1-1.126-1.086,1.038,1.038,0,0,1,.946-1.006A1.123,1.123,0,0,1,416.867,688.59Zm.724,1.769a20.359,20.359,0,0,1,3.077-4.082l.945.663A26.723,26.723,0,0,1,418.5,691.1Z" fill="#000000"/><path d="M443.009,698.866q-2.112.121-4.223.182a28.348,28.348,0,0,1,4.4,2.835l-.724.985a30.568,30.568,0,0,1-4.606-3.056l.744-.745c-4.3.141-4.786.162-8.165.242-1.548,1.307-3.177,2.554-4.847,3.72l-.864-.744c1-.945,1.89-1.749,3.338-2.935-2.614.04-2.916.04-3.2.04v-1.067c2.292-.14,2.594-.16,4.806-.241.523-.4.966-.744,1.669-1.227h-2.755c-.04-.442-.1-1.266-.1-2.413a27.626,27.626,0,0,1,.14-2.957h1.288c.06,1.046.08,1.63.08,2.273,2.333-.141,3.258-.181,5.349-.181v.925c-2.433.182-4.384.222-5.349.222-.02.422-.02.543-.04.985,3.318-.181,5.772-.262,8.446-.3-.06-1.347-.04-2.092-.04-2.735-2.655.121-4.545.182-7.722.222l-.021-1.066a79.455,79.455,0,0,1,9.252-.3c.04.543.12,1.408.12,2.534,0,1.066-.06,1.911-.1,2.414-2.575.2-3.339.22-6.637.361-.523.463-.9.8-1.287,1.146,3.761-.14,5.028-.18,11.041-.18Zm-10.961-12.247c.04.644.08,1.166.08,1.85,1.851-.08,2.052-.08,3.7-.12a12.939,12.939,0,0,1,.1-1.69h1.307c.02.443.06.864.08,1.669,2.072-.04,2.413-.04,4.726-.04v1.147c-2.353.161-2.574.161-4.766.261-.02.523-.04.764-.08,1.086l-1.267.02c-.02-.342-.041-.5-.081-1.066-1.226.061-2.494.08-3.741.12-.02.3-.04.463-.08,1.027h-1.267c-.04-.362-.06-.543-.1-1.006-2.293.04-2.454.04-4.726.04l-.02-1.126c2.131-.141,2.352-.161,4.7-.262a15.287,15.287,0,0,1,.061-1.91Zm-2.313,18.5c-.04-.5-.1-1.388-.1-2.6,0-1.086.06-1.749.1-2.312h1.207c.04.624.08,1.226.08,2.192,0,1.166-.06,2.072-.1,2.715Zm5.008-5.591c.02.141.04.784.04.965.342-.019.825-.04,1.509-.04.744,0,1.207.021,1.729.04.021.443.081,1.228.081,2.253,0,1.106-.06,1.87-.1,2.453a14.224,14.224,0,0,1-2.755-.2l.121-1.146c.5-.02.8,0,1.266.02,0-1.146-.02-1.267.021-2.212-.423.02-1.388.061-1.83.08.02,1.268-.021,2.555-.081,3.821h-1.287a36.175,36.175,0,0,1-.121-3.781h-1.729l-.021-1.065c.463-.04.926-.1,1.79-.161,0-.242.021-.363.061-1.026Z" fill="#000000"/><path d="M453.947,696.775c1.569-1.71,2.051-2.213,3.7-4.244.563-.683,1.227-1.488,1.629-2.091-.764.06-4.123.242-4.806.261-.986.061-6.154.3-8.789.3v-1.388c4.424-.342,10.759-.643,16.31-.562a31.961,31.961,0,0,1-3.64,5.308,24.677,24.677,0,0,1-3.459,3.359Zm-.241-2.715a29.012,29.012,0,0,1-1.388,6.355,46.107,46.107,0,0,1-2.011,4.706l-1.328-.362A77.526,77.526,0,0,0,452.3,693.8Z" fill="#000000"/><path d="M471.441,687.6a93.139,93.139,0,0,1-7.381,9.292l-1.126-.724c.7-1.067,3.821-5.209,5.832-7.462,1.247-1.367,1.388-1.528,1.67-1.85Zm-3.177,16.813c.643-.885,3.619-4.786,4.223-5.591a67.419,67.419,0,0,0,4.364-6.757c-2.272.16-3.741.221-5.33.261l-1.81.081c-.06,0-.281-.02-.381-.02v-1.328a76.468,76.468,0,0,1,9.954-.5,50.331,50.331,0,0,1-4.223,7.622,62.567,62.567,0,0,1-5.731,7.059Z" fill="#000000"/><path d="M497.905,696.554a60.7,60.7,0,0,1-7.6,4.926,59.86,59.86,0,0,1-7.964,3.3l-.624-1.307a86.709,86.709,0,0,0,15.426-8.125Zm-9.472-.121a42.516,42.516,0,0,1-6.5-.9l.3-1.287c2.012.181,2.313.2,3.942.462a24.881,24.881,0,0,1,2.494.5Zm1-5.149a45.679,45.679,0,0,1-7.32-1.105l.3-1.327a62.032,62.032,0,0,1,7.24,1.145Z" fill="#000000"/><path d="M510.976,703.392c-6.517.241-7.18.281-8.85.281-.422,0-1.025,0-1.79-.061v-1.287c1.911-.14,6.295-.361,8.125-.361.584,0,.966.019,1.348.04,0-2.092.06-5.973.121-8.588-1.287.021-7.02.322-8.186.322-.723,0-1.207-.02-1.669-.06V692.33c1.609-.221,10.035-.462,11.3-.4.08,1.127.1,1.77.1,3.1,0,2.514-.122,5.631-.283,8.346Zm-1.83-5.471a45.6,45.6,0,0,1-5.752.242c-.745,0-1.248-.02-1.71-.041v-1.186a47.581,47.581,0,0,1,5.973-.3c.644,0,1.086.02,1.489.041Z" fill="#000000"/><path d="M530.119,695.89a63.831,63.831,0,0,1-6.878,4.605,50.5,50.5,0,0,1-8.567,3.781l-.524-1.266a147.919,147.919,0,0,0,15.305-8.286Zm-14.762-7.481a34.262,34.262,0,0,1,5.249,4.223l-.945,1.106c-.965-.664-3.882-2.976-5.289-4.243Z" fill="#000000"/><path d="M538.2,687.986c-.181.5-2.293,5.088-2.555,5.572-.824,1.608-1.689,3.2-2.614,4.765l-1.207-.543a94.594,94.594,0,0,1,5.149-10.4Zm11.825,5.069c-2.253.26-11.7.5-13.334.5v-1.329c3.138-.361,6.375-.482,8.367-.522.784-.02,4.263,0,4.967,0Zm-5.41,1.367a28.693,28.693,0,0,1-3.459,11.02L539.87,705c.141-.4.241-.684,1.187-3.177.723-2.011,1.327-4.223,1.568-5.148.322-1.268.463-1.771.664-2.454Zm3.862-6.717a.984.984,0,0,1-.906.965,1.206,1.206,0,0,1-1.126-1.206.888.888,0,0,1,.885-.926A1.072,1.072,0,0,1,548.478,687.705Zm2.293,2.111a1,1,0,0,1-1.086,1.107,1.106,1.106,0,0,1-1.046-1.086,1.04,1.04,0,0,1,1-1.086A1.142,1.142,0,0,1,550.771,689.816Z" fill="#000000"/><path d="M567.6,696.474c-.382.04-12.65.4-15.687.3v-1.368c2.635-.261,8.427-.462,12.328-.462,1.509,0,2.574.02,3.359.04Z" fill="#000000"/><path d="M579.263,688.368c-.323.865-.966,2.494-1.469,3.761-1.428,3.54-1.589,3.922-2.977,7.1-.2.462-1.045,2.494-1.226,2.9,1.247-.262,6.295-1.348,9.513-1.71l.241,1.327c-1.65.423-5.973,1.327-7.241,1.549-.944.181-5.127.9-5.972,1.065l-.281-1.387c.22-.06,1.226-.281,1.83-.422,1.87-4.887,2.392-6.275,3.379-8.487.9-2.091,1.91-4.364,2.855-6.235Zm4.786,8.085c.563,1.247,1.146,2.554,1.951,4.666.8,2.152.965,2.694,1.126,3.258l-1.327.5a58.267,58.267,0,0,1-3.158-7.964Z" fill="#000000"/><g id="for_Windows_2000_XP_DirectX9.0c_Copyright2009_黄昏フロンティア_上海アリス幻樂団" data-name="for Windows 2000/XP DirectX9.0c Copyright2009 黄昏フロンティア／上海アリス幻樂団"><path d="M392.06,725.49a.949.949,0,0,1-.982-.924,1.271,1.271,0,0,1,.073-.411,1.315,1.315,0,0,0,.088-.263c0-.118-.117-.118-.176-.118-.5,0-.557.705-.557,1.144V727.6h1.627v.38h-1.627v5.045c0,.557.322.792.88.792h.425v.381h-3.989v-.381h.25a.743.743,0,0,0,.806-.792v-5.045h-1.173v-.38h1.173v-1.378a2.584,2.584,0,0,1,2.625-2.861c1,0,1.554.47,1.554,1.174A.936.936,0,0,1,392.06,725.49Z" fill="#000000"/><path d="M395.623,734.347a3.5,3.5,0,1,1,2.844-3.447A3.184,3.184,0,0,1,395.623,734.347Zm0-6.467c-.895,0-.91,2.493-.91,3.02,0,.543.015,3.022.91,3.022.879,0,.909-2.435.909-3.022C396.532,730.388,396.517,727.88,395.623,727.88Z" fill="#000000"/><path d="M403.451,729.6c-.542,0-.748-.293-1.041-.7-.044-.059-.088-.118-.146-.118-.279,0-.763,1.247-.763,1.892V733.1a.635.635,0,0,0,.63.718h.528v.381H399.1v-.381h.22c.411,0,.572-.279.572-.689v-4.062c0-1.086-.4-1.086-.88-1.086v-.38l2.493-.132V729.1c.22-.543.66-1.628,1.818-1.628a1.049,1.049,0,0,1,1.129,1.085A.982.982,0,0,1,403.451,729.6Z" fill="#000000"/><path d="M421.544,725.358l-2.566,8.842h-.44l-2.141-7.259-2.1,7.259h-.44l-2.58-8.768c-.4-1.365-.69-1.526-1.408-1.555V723.5h4.253v.381c-.426.015-1.042.015-1.042.47a4.028,4.028,0,0,0,.162.835l1.627,5.733,1.335-4.633-.249-.85c-.411-1.379-.69-1.526-1.408-1.555V723.5H418.8v.381c-.425.015-1.041.015-1.041.47a3.84,3.84,0,0,0,.161.835l1.628,5.733,1.672-5.807a3.772,3.772,0,0,0,.132-.717c0-.5-.631-.5-1.364-.514V723.5h3.446v.381C422.5,723.892,421.955,723.965,421.544,725.358Z" fill="#000000"/><path d="M424.107,734.2v-.381c.235,0,.792,0,.792-.718v-4.4a.673.673,0,0,0-.66-.719h-.2v-.38l2.493-.132V733.1c0,.645.586.718.865.718v.381Zm1.569-8.622a1.114,1.114,0,0,1-1.114-1.114,1.107,1.107,0,1,1,1.114,1.114Z" fill="#000000"/><path d="M433.066,734.2v-4.575a1.109,1.109,0,0,0-1.041-1.217,1.081,1.081,0,0,0-.763.308c-.513.631-.645.777-.645,1.231V733.1a.645.645,0,0,0,.645.718h.206v.381h-3.256v-.381a.666.666,0,0,0,.778-.718v-4.063c0-1.056-.44-1.056-.924-1.056v-.38l2.551-.132v1.363a2.969,2.969,0,0,1,2.258-1.363,1.8,1.8,0,0,1,1.8,1.95V733.1c0,.718.572.718.821.718v.381Z" fill="#000000"/><path d="M440.426,734.2l-.191-.645a2.2,2.2,0,0,1-1.642.792c-1.716,0-2.361-1.877-2.361-3.416,0-2.288,1.319-3.461,2.434-3.461a2,2,0,0,1,1.6.924v-3.725c0-.66-.19-.777-.894-.792V723.5l2.522-.133v9.547c0,.865.4.909.777.909v.381Zm-.162-4.809c0-.279-.293-1.173-1-1.173-1.1,0-1.173,1.935-1.173,2.727,0,.953.117,2.654,1.158,2.654a1.167,1.167,0,0,0,1.012-.822Z" fill="#000000"/><path d="M446.128,734.347a3.5,3.5,0,1,1,2.845-3.447A3.184,3.184,0,0,1,446.128,734.347Zm0-6.467c-.894,0-.909,2.493-.909,3.02,0,.543.015,3.022.909,3.022s.91-2.435.91-3.022C447.038,730.388,447.023,727.88,446.128,727.88Z" fill="#000000"/><path d="M458.445,727.982a1,1,0,0,0-.909.734l-2,5.631h-.322l-1.305-4.164-1.467,4.164h-.322l-1.848-5.88c-.147-.485-.44-.485-.733-.485v-.38h2.83v.38c-.381,0-.4.294-.4.324a1.253,1.253,0,0,0,.059.366l.938,3.064.748-2.155-.352-1.114c-.147-.485-.425-.485-.719-.485v-.38h2.933v.38c-.176,0-.513,0-.513.324a1.542,1.542,0,0,0,.074.366l.923,3.064,1.085-3.093a1.044,1.044,0,0,0,.044-.308.341.341,0,0,0-.308-.353h-.528v-.38h2.376v.38Z" fill="#000000"/><path d="M462.387,734.347a3.35,3.35,0,0,1-1.525-.469.578.578,0,0,0-.279-.088c-.352,0-.44.264-.542.557h-.382v-2.625h.382a3.323,3.323,0,0,0,1.1,1.7,2.059,2.059,0,0,0,1.246.514.97.97,0,0,0,1.026-1c0-.645-.5-.894-1.715-1.276-.719-.234-2.039-.674-2.039-2.141a1.992,1.992,0,0,1,1.95-2.052,3.049,3.049,0,0,1,1.349.381.6.6,0,0,0,.265.073c.19,0,.293-.1.44-.454h.381v2.272h-.381a2.7,2.7,0,0,0-.88-1.451,1.739,1.739,0,0,0-1.144-.411c-.645,0-1.1.352-1.1.894s.425.807,1.774,1.233c.807.264,2.039.718,2.039,2.155A2.088,2.088,0,0,1,462.387,734.347Z" fill="#000000"/><path d="M474.453,729.229c-1.511,1.657-1.525,1.671-2.889,3.285h2.7a1.445,1.445,0,0,0,1.642-1h.367l-.425,2.683h-5.558v-.938c.587-.807,1.247-1.731,2.42-3.432,1.231-1.789,1.6-2.684,1.6-3.489a1.391,1.391,0,0,0-1.51-1.423,2.219,2.219,0,0,0-2.068,1.745l-.337-.132a4.89,4.89,0,0,1,.5-1.642,2.864,2.864,0,0,1,2.551-1.54,2.694,2.694,0,0,1,2.845,2.669C476.286,726.78,476.081,727.426,474.453,729.229Z" fill="#000000"/><path d="M480.61,734.347c-1.686,0-2.991-1.892-2.991-5.5,0-3.7,1.363-5.485,2.991-5.485,1.657,0,2.992,1.833,2.992,5.485C483.6,732.528,482.252,734.347,480.61,734.347Zm.4-10.309a.5.5,0,0,0-.4-.264c-.381,0-.586.631-.631.763a29.345,29.345,0,0,0-.366,4.854c0,.821.074,4.546,1,4.546.382,0,.572-.617.616-.763a18.644,18.644,0,0,0,.381-4.326C481.607,727.777,481.549,724.8,481.006,724.038Z" fill="#000000"/><path d="M487.94,734.347c-1.686,0-2.991-1.892-2.991-5.5,0-3.7,1.363-5.485,2.991-5.485,1.657,0,2.992,1.833,2.992,5.485C490.932,732.528,489.583,734.347,487.94,734.347Zm.4-10.309a.5.5,0,0,0-.4-.264c-.381,0-.586.631-.63.763a29.34,29.34,0,0,0-.367,4.854c0,.821.074,4.546,1,4.546.382,0,.572-.617.616-.763a18.62,18.62,0,0,0,.382-4.326C488.938,727.777,488.879,724.8,488.336,724.038Z" fill="#000000"/><path d="M495.271,734.347c-1.687,0-2.992-1.892-2.992-5.5,0-3.7,1.364-5.485,2.992-5.485,1.657,0,2.991,1.833,2.991,5.485C498.262,732.528,496.913,734.347,495.271,734.347Zm.4-10.309a.5.5,0,0,0-.4-.264c-.381,0-.586.631-.631.763a29.345,29.345,0,0,0-.366,4.854c0,.821.073,4.546,1,4.546.381,0,.572-.617.616-.763a18.7,18.7,0,0,0,.381-4.326C496.268,727.777,496.209,724.8,495.667,724.038Z" fill="#000000"/><path d="M500.285,734.347l-.88-.484,5.513-10.5.88.485Z" fill="#000000"/><path d="M512.189,734.2v-.381c.309,0,.939-.014.939-.5a1.2,1.2,0,0,0-.176-.483l-1.73-3.124-1.907,2.669a1.247,1.247,0,0,0-.234.719c0,.674.982.7,1.408.718v.381h-3.857v-.381c.968-.029,1.262-.058,2.039-1.159l2.346-3.313-2.479-4.473a1.719,1.719,0,0,0-1.627-1V723.5h4.575v.381c-.338.015-.967.029-.967.47a1.111,1.111,0,0,0,.146.41l1.583,2.845,1.8-2.552a1.086,1.086,0,0,0,.22-.571c0-.573-.835-.587-1.261-.6V723.5h3.475v.381a1.893,1.893,0,0,0-1.862,1.012l-2.17,3.079,2.712,4.869a1.653,1.653,0,0,0,1.6.982v.381Z" fill="#000000"/><path d="M525.386,728.159a4.111,4.111,0,0,1-3.154,1h-1.583v3.49c0,1.011.381,1.159,1.51,1.173v.381h-4.721v-.381c.879-.014,1.276-.162,1.276-1.173v-7.582c0-1.041-.25-1.172-1.276-1.187V723.5h5.352c1.8,0,3.329,1.056,3.329,2.757A2.706,2.706,0,0,1,525.386,728.159Zm-3.461-4.282c-1.085,0-1.276.293-1.276,1.187v3.725h1.5c1.554,0,1.818-1.466,1.818-2.434C523.963,724.742,523.538,723.877,521.925,723.877Z" fill="#000000"/><path d="M539.562,732.9a4.442,4.442,0,0,1-3.182,1.3h-4.487v-.381c.982-.014,1.261-.147,1.261-1.144v-7.654c0-1-.235-1.129-1.261-1.144V723.5h4.6c2.186,0,4.546,1.5,4.546,5.249C541.043,729.757,540.823,731.854,539.562,732.9Zm-3.241-9.019c-1.085,0-1.217.41-1.217,1.144v7.654c0,.777.323,1.144,1.1,1.144,2.185,0,2.684-2.39,2.684-4.957C538.888,725.681,538.433,723.877,536.321,723.877Z" fill="#000000"/><path d="M541.949,734.2v-.381c.236,0,.792,0,.792-.718v-4.4a.672.672,0,0,0-.659-.719h-.206v-.38l2.493-.132V733.1c0,.645.587.718.865.718v.381Zm1.57-8.622a1.114,1.114,0,0,1-1.115-1.114,1.107,1.107,0,1,1,1.115,1.114Z" fill="#000000"/><path d="M550.337,729.6c-.543,0-.748-.293-1.041-.7-.044-.059-.088-.118-.147-.118-.279,0-.762,1.247-.762,1.892V733.1a.635.635,0,0,0,.631.718h.527v.381h-3.564v-.381h.221c.41,0,.571-.279.571-.689v-4.062c0-1.086-.395-1.086-.879-1.086v-.38l2.493-.132V729.1c.219-.543.66-1.628,1.818-1.628a1.049,1.049,0,0,1,1.129,1.085A.982.982,0,0,1,550.337,729.6Z" fill="#000000"/><path d="M553.884,730.915a3.489,3.489,0,0,0,.631,2.215,1.508,1.508,0,0,0,1.041.454,2.435,2.435,0,0,0,1.672-1.026l.234.294a3.225,3.225,0,0,1-2.566,1.5,2.968,2.968,0,0,1-2.875-3.255c0-1.965,1.189-3.622,2.934-3.622a2.389,2.389,0,0,1,2.082,1.187,4.444,4.444,0,0,1,.659,2.258Zm1.1-3.035c-.982,0-1.056,1.672-1.086,2.654h2.04C555.923,729.288,555.908,727.88,554.984,727.88Z" fill="#000000"/><path d="M561.185,734.347c-1,0-2.713-.675-2.713-3.255,0-2.669,1.8-3.622,3.036-3.622a1.721,1.721,0,0,1,1.8,1.6.971.971,0,0,1-1.937.088,1.044,1.044,0,0,1,.353-.777c.1-.088.161-.147.161-.264,0-.177-.205-.235-.367-.235-1.144,0-1.188,2.185-1.188,3.006,0,.616,0,2.7,1.335,2.7a1.856,1.856,0,0,0,1.451-.968l.279.236A2.574,2.574,0,0,1,561.185,734.347Z" fill="#000000"/><path d="M566.756,734.347c-.939,0-1.613-.616-1.613-1.833v-4.532h-1.115v-.38a1.986,1.986,0,0,0,1.6-.968,3.6,3.6,0,0,0,.645-1.643h.5V727.6h1.7v.38h-1.7v4.855c0,.454.263.718.586.718.118,0,.616-.117.851-1.276h.381C568.4,733.145,568.135,734.347,566.756,734.347Z" fill="#000000"/><path d="M574.614,734.2v-.381c.309,0,.939-.014.939-.5a1.2,1.2,0,0,0-.176-.483l-1.731-3.124-1.906,2.669a1.247,1.247,0,0,0-.234.719c0,.674.982.7,1.407.718v.381h-3.856v-.381c.967-.029,1.261-.058,2.039-1.159l2.345-3.313-2.478-4.473a1.72,1.72,0,0,0-1.627-1V723.5h4.575v.381c-.338.015-.968.029-.968.47a1.11,1.11,0,0,0,.147.41l1.583,2.845,1.8-2.552a1.086,1.086,0,0,0,.22-.571c0-.573-.836-.587-1.261-.6V723.5h3.475v.381a1.893,1.893,0,0,0-1.862,1.012l-2.17,3.079,2.712,4.869a1.653,1.653,0,0,0,1.6.982v.381Z" fill="#000000"/><path d="M581.256,734.347l-.132-.352a4.738,4.738,0,0,0,2.815-3.71,1.817,1.817,0,0,1-1.011.249c-2.259,0-2.7-2.155-2.7-3.49,0-2.067,1.1-3.681,2.977-3.681,2.155,0,3.006,2.2,3.006,4.239A6.926,6.926,0,0,1,581.256,734.347Zm1.965-10.573c-.953,0-1,2.3-1,3.167s.044,3.168,1,3.168,1-2.3,1-3.168S584.174,723.774,583.221,723.774Z" fill="#000000"/><path d="M588.923,734.347a1.115,1.115,0,1,1,1.114-1.115A1.114,1.114,0,0,1,588.923,734.347Z" fill="#000000"/><path d="M594.627,734.347c-1.687,0-2.991-1.892-2.991-5.5,0-3.7,1.363-5.485,2.991-5.485,1.657,0,2.991,1.833,2.991,5.485C597.618,732.528,596.27,734.347,594.627,734.347Zm.4-10.309a.493.493,0,0,0-.4-.264c-.382,0-.587.631-.631.763a29.345,29.345,0,0,0-.366,4.854c0,.821.073,4.546,1,4.546.381,0,.572-.617.616-.763a18.644,18.644,0,0,0,.381-4.326C595.624,727.777,595.565,724.8,595.022,724.038Z" fill="#000000"/><path d="M601.37,734.347c-1,0-2.713-.675-2.713-3.255,0-2.669,1.8-3.622,3.036-3.622a1.721,1.721,0,0,1,1.8,1.6.97.97,0,0,1-1.936.088,1.046,1.046,0,0,1,.352-.777c.1-.088.161-.147.161-.264,0-.177-.2-.235-.366-.235-1.145,0-1.188,2.185-1.188,3.006,0,.616,0,2.7,1.334,2.7a1.857,1.857,0,0,0,1.452-.968l.279.236A2.575,2.575,0,0,1,601.37,734.347Z" fill="#000000"/><path d="M312.766,927.916a4.276,4.276,0,0,1-3.162,1.265c-3.02,0-5.5-2.248-5.5-6.481,0-4.2,2.6-6.674,5.585-6.674a5.029,5.029,0,0,1,2.213.509,1.885,1.885,0,0,0,.791.246c.579,0,.667-.492.72-.755h.457l.192,4.6h-.439a5.46,5.46,0,0,0-1.194-2.862,3.65,3.65,0,0,0-2.74-1.247,2.1,2.1,0,0,0-2.037,1.124c-.79,1.247-.966,3.3-.966,5.129,0,3.266.545,5.865,3.267,5.865a3.215,3.215,0,0,0,2.3-.913,4.5,4.5,0,0,0,1.369-2.845h.457A4.478,4.478,0,0,1,312.766,927.916Z" fill="#000000"/><path d="M318.454,929.181c-1.739,0-3.407-1.687-3.407-4.127,0-2.407,1.651-4.111,3.407-4.111,1.739,0,3.407,1.7,3.407,4.111C321.861,927.494,320.175,929.181,318.454,929.181Zm0-7.745c-1.071,0-1.089,2.985-1.089,3.618,0,.649.018,3.617,1.089,3.617,1.054,0,1.089-2.915,1.089-3.617C319.543,924.438,319.525,921.436,318.454,921.436Z" fill="#000000"/><path d="M327.34,929.181a2.6,2.6,0,0,1-1.985-1.072v2.407c0,.579.194.913.773.913h.3v.438h-3.846v-.438h.263c.369,0,.562-.211.562-.913v-7.763c0-.809-.211-1.194-.755-1.194h-.263V921.1l2.967-.159v.966a2.535,2.535,0,0,1,2-.966c1.4,0,2.968,1.37,2.968,4.058C330.326,927.389,329.132,929.181,327.34,929.181Zm-.685-7.43c-.193,0-.93.053-1.3,1.282v3.741c0,.51.545,1.564,1.318,1.564.562,0,1.335-.65,1.335-3.2C328.008,923.842,327.832,921.751,326.655,921.751Z" fill="#000000"/><path d="M338.7,921.559c-.527,0-.949.6-1.089.965l-3.056,7.57a2.786,2.786,0,0,1-2.248,1.773,1.335,1.335,0,0,1-1.37-1.3,1.164,1.164,0,0,1,1.177-1.176,1.065,1.065,0,0,1,.878.544c.281.421.334.492.527.492.263,0,.615-.545.738-.826l.368-.9-2.564-6.287c-.351-.86-.79-.86-1.071-.86V921.1h3.934v.457h-.351a.491.491,0,0,0-.474.473,1.221,1.221,0,0,0,.087.4l1.476,3.688,1.492-3.688a.858.858,0,0,0,.071-.4.444.444,0,0,0-.492-.473h-.545V921.1h2.916v.457Z" fill="#000000"/><path d="M345.076,923.49c-.65,0-.9-.351-1.247-.843-.053-.07-.106-.14-.176-.14-.334,0-.913,1.492-.913,2.265v2.916a.76.76,0,0,0,.755.86h.632v.457h-4.268v-.457h.264c.492,0,.685-.333.685-.825v-4.866c0-1.3-.475-1.3-1.054-1.3V921.1l2.986-.159v1.95c.263-.65.79-1.95,2.177-1.95a1.259,1.259,0,0,1,1.353,1.3A1.177,1.177,0,0,1,345.076,923.49Z" fill="#000000"/><path d="M347.059,929.005v-.457c.281,0,.948,0,.948-.86v-5.269a.8.8,0,0,0-.79-.86h-.246V921.1l2.986-.159v6.745c0,.772.7.86,1.036.86v.457Zm1.879-10.327a1.333,1.333,0,0,1-1.334-1.335,1.326,1.326,0,1,1,1.334,1.335Z" fill="#000000"/><path d="M359.546,922.84c-.615,0-.755-.386-.914-.79a.29.29,0,0,0-.228-.176c-.175,0-.334.193-.439.352a2.312,2.312,0,0,1,.351,1.317,2.687,2.687,0,0,1-2.9,2.617,2.9,2.9,0,0,1-1.071-.176,1.069,1.069,0,0,0-.439.738c0,.281.3.439,1.634.492,2.125.088,3.389.456,3.389,2.072,0,2.318-2.757,2.581-3.688,2.581-1.44,0-3.32-.456-3.32-1.879,0-.772.562-1.071,1.124-1.335a1.157,1.157,0,0,1-.667-1.089c0-.684.527-1.106,1.511-1.755a2.478,2.478,0,0,1-1.37-2.266,2.69,2.69,0,0,1,2.9-2.6,3.043,3.043,0,0,1,2.3.949,2.077,2.077,0,0,1,1.616-1.054,1.028,1.028,0,0,1,1.124,1.036A.918.918,0,0,1,359.546,922.84Zm-4.075,6.27a8.078,8.078,0,0,1-1.756-.211,1.485,1.485,0,0,0-.65,1.16c0,.965,1.159,1.317,2.125,1.317,1.282,0,2.336-.545,2.336-1.335C357.526,929.286,356.437,929.146,355.471,929.11Zm-.053-7.674c-.439,0-.913.579-.913,2.107s.457,2.125.913,2.125c.439,0,.914-.58.914-2.125S355.857,921.436,355.418,921.436Z" fill="#000000"/><path d="M366.569,929.005v-5.48a1.33,1.33,0,0,0-1.247-1.458,1.287,1.287,0,0,0-.913.37c-.615.754-.773.93-.773,1.475v3.776a.773.773,0,0,0,.773.86h.246v.457h-3.9v-.457a.8.8,0,0,0,.931-.86v-9.783c0-1.264-.527-1.264-1.107-1.264v-.457l3.056-.158v6.551a3.554,3.554,0,0,1,2.7-1.634,2.16,2.16,0,0,1,2.16,2.336v4.409c0,.86.685.86.984.86v.457Z" fill="#000000"/><path d="M373.541,929.181c-1.124,0-1.933-.739-1.933-2.2v-5.426h-1.334V921.1a2.377,2.377,0,0,0,1.914-1.16,4.291,4.291,0,0,0,.773-1.966h.6V921.1H375.6v.457h-2.037v5.812c0,.545.316.861.7.861.141,0,.738-.14,1.019-1.528h.457C375.507,927.74,375.191,929.181,373.541,929.181Z" fill="#000000"/><path d="M381.653,923.051c-1.809,1.985-1.826,2-3.46,3.934h3.232a1.732,1.732,0,0,0,1.967-1.194h.439l-.509,3.214h-6.656v-1.124c.7-.966,1.492-2.072,2.9-4.11,1.476-2.142,1.915-3.213,1.915-4.18a1.666,1.666,0,0,0-1.81-1.7,2.656,2.656,0,0,0-2.476,2.09l-.4-.159a5.883,5.883,0,0,1,.6-1.966,3.431,3.431,0,0,1,3.056-1.844,3.226,3.226,0,0,1,3.408,3.2C383.849,920.118,383.6,920.891,381.653,923.051Z" fill="#000000"/><path d="M389.028,929.181c-2.019,0-3.582-2.266-3.582-6.586,0-4.426,1.633-6.569,3.582-6.569,1.985,0,3.583,2.2,3.583,6.569C392.611,927,391,929.181,389.028,929.181Zm.474-12.347a.589.589,0,0,0-.474-.316c-.456,0-.7.754-.755.913a35.151,35.151,0,0,0-.439,5.813c0,.984.088,5.444,1.194,5.444.457,0,.685-.737.738-.913a22.29,22.29,0,0,0,.457-5.18C390.223,921.312,390.152,917.747,389.5,916.834Z" fill="#000000"/><path d="M397.808,929.181c-2.019,0-3.582-2.266-3.582-6.586,0-4.426,1.633-6.569,3.582-6.569,1.985,0,3.583,2.2,3.583,6.569C401.391,927,399.775,929.181,397.808,929.181Zm.474-12.347a.589.589,0,0,0-.474-.316c-.456,0-.7.754-.755.913a35.043,35.043,0,0,0-.439,5.813c0,.984.088,5.444,1.194,5.444.457,0,.685-.737.738-.913A22.314,22.314,0,0,0,399,922.6C399,921.312,398.932,917.747,398.282,916.834Z" fill="#000000"/><path d="M404.235,929.181l-.158-.422c1.9-.632,2.968-2.547,3.372-4.444a2.177,2.177,0,0,1-1.212.3c-2.7,0-3.231-2.582-3.231-4.179,0-2.477,1.317-4.409,3.565-4.409,2.582,0,3.6,2.634,3.6,5.076A8.3,8.3,0,0,1,404.235,929.181Zm2.353-12.663c-1.141,0-1.194,2.757-1.194,3.794s.053,3.792,1.194,3.792,1.195-2.756,1.195-3.792S407.73,916.518,406.588,916.518Z" fill="#000000"/><path d="M433.211,919.346h-6.129a.29.29,0,0,1,.035.157c0,.281-.176.334-.492.422v.9h2.582l.649-.86a.452.452,0,0,1,.405-.211.766.766,0,0,1,.545.3l1.036,1.018c.157.159.21.264.21.37,0,.21-.316.473-.527.649v4.408c0,.563-1.036.721-1.458.738,1.072.281,2.547.984,2.547,2.02a1.109,1.109,0,0,1-1.176,1.106c-.667,0-1.019-.421-1.687-1.211a6.939,6.939,0,0,0-2.037-1.458,4.962,4.962,0,0,0-1.422-.4v-.176a13.447,13.447,0,0,1,1.721-.087,8.11,8.11,0,0,1,1.3.07v-.334h-6.374l2.283,1.141a.188.188,0,0,1,.1.176c0,.281-.386.246-.825.211a14.668,14.668,0,0,1-6.656,2.108l-.071-.176a9.045,9.045,0,0,0,4.743-3.46h-.65c0,.3,0,.439-.439.632a2.226,2.226,0,0,1-1,.228c-.738,0-.738-.211-.738-.491v-7.184l2.212.878h2.653v-1.474h-6.832l-.211-.4h4.426v-2.265h-3.512l-.211-.387h3.723v-2l2.582.158c.175.018.263.123.263.246,0,.229-.211.3-.684.439v1.159h3.073v-1.967l2.476.106a.263.263,0,0,1,.281.263c0,.211-.123.247-.615.421v1.177h.65l.791-.948a.314.314,0,0,1,.28-.158c.071,0,.106,0,.317.14l1.212.825a.377.377,0,0,1,.14.3c0,.176-.158.229-.3.229h-3.091v2.265h1.406l.843-1c.087-.105.14-.175.281-.175.123,0,.175.052.315.158l1.212.895a.366.366,0,0,1,.158.3C433.527,919.275,433.369,919.346,433.211,919.346Zm-8.658,1.861h-2.687v2.354h2.687Zm0,2.757h-2.687v2.406h2.687Zm2.617-7.288H424.1v2.265h3.073Zm2.142,4.531h-2.687v2.354h2.687Zm0,2.757h-2.687v2.406h2.687Z" fill="#000000"/><path d="M450.017,924.509a5.387,5.387,0,0,1-1.616-.352c.193.158.281.229.281.44a.846.846,0,0,1-.4.6v4.093c0,.79-1.405.966-1.7.966-.632,0-.632-.281-.632-.737h-5.866c0,.333,0,.456-.545.631a2.428,2.428,0,0,1-.878.176c-.491,0-.807-.158-.807-.6v-6.164c-.158.07-.878.351-1.036.4-.036.053-.141.351-.176.387a.231.231,0,0,1-.211.123c-.141,0-.211-.159-.281-.3L435,921.733l2.266-.3v-6.113l2.265.9c3.988-.65,5.55-1.334,6.867-2.16l2.495,1.862a.293.293,0,0,1,.175.245.208.208,0,0,1-.228.211,2.465,2.465,0,0,1-.562-.141c-.422.035-2.283.176-2.652.211a.264.264,0,0,1,.053.176c0,.193-.158.369-.4.492a2.684,2.684,0,0,0,.282,1.281h2.423l.966-1.036a.342.342,0,0,1,.3-.158.507.507,0,0,1,.316.141l1.107.9a.423.423,0,0,1,.175.316c0,.175-.175.228-.3.228h-4.795a6.535,6.535,0,0,0,2.933,2.95,3.206,3.206,0,0,0,.791.264c.456,0,1.124-2.09,1.281-2.774l.176.035c-.035.456-.281,2.634-.281,2.862,0,.176.036.211.369.668a1,1,0,0,1,.193.632A1.067,1.067,0,0,1,450.017,924.509Zm-5.673-3.6c-2.617,1.142-2.915,1.265-5.743,2.371l1.528.58h5.813l.562-.668A7.019,7.019,0,0,1,444.344,920.908Zm-1.282-4.285c-1.177.035-2.354.053-3.531,0V918.4h3.829A10.4,10.4,0,0,1,443.062,916.623Zm.4,2.16h-3.935v2.354c.844-.088,4.023-.475,4.6-.6A8.687,8.687,0,0,1,443.466,918.783Zm2.476,5.462h-5.866v2.231h5.866Zm0,2.617h-5.866v2.248h5.866Z" fill="#000000"/><path d="M454.019,928.882a11.461,11.461,0,0,0,6.832-6.358,13.834,13.834,0,0,0,1.106-3.9c0-.123-.035-.158-.158-.158a52.714,52.714,0,0,0-5.831,1.054c-.088.035-.422.246-.492.263a1.018,1.018,0,0,1-.21.035c-.264,0-.37-.052-.756-.385a3.131,3.131,0,0,1-1.282-2.232.157.157,0,0,1,.158-.175c.088,0,.316.351.386.421a2.109,2.109,0,0,0,1.494.528,63.545,63.545,0,0,0,7.059-.843,6.831,6.831,0,0,1,.774-.422,3.64,3.64,0,0,1,1.861,1.791c0,.228-.07.264-.614.58-.528.281-.686.808-.9,1.545-1.3,4.427-4.32,8.29-9.43,8.378Z" fill="#000000"/><path d="M479.289,925.809c0,.351-.3.491-1,.508-3.372.088-3.758.123-7.253.37.088.895-.07,1.194-.474,1.194-.861,0-1.633-1.7-1.633-2.178,0-.105.1-.58.1-.684,0-2-.123-4.918-.668-6.078a3.109,3.109,0,0,0-.7-1.053c-.07-.071-.492-.387-.492-.475,0-.158.3-.158.4-.158a5.106,5.106,0,0,1,2.354.808,4.323,4.323,0,0,0,.473.071c.264,0,6.85-.686,7.184-.826a2.491,2.491,0,0,0,.457-.351.549.549,0,0,1,.386-.193c.474,0,2.177,1.264,2.177,1.931,0,.141-.174.317-.368.51a7.354,7.354,0,0,0-.983,2.774c-.229,1.054-.563,2.2-.791,3C478.639,925.071,479.289,925.369,479.289,925.809Zm-1.792-4.18c.035-.281.4-3.039.4-3.057,0-.123-.088-.158-.211-.158-.878,0-6.216.809-6.445.809-.088,0-.808-.457-.966-.528a2.622,2.622,0,0,1,.071.387c.262,3.284.28,3.653.561,6.287a1.173,1.173,0,0,0,.667.106c.633,0,2.582-.246,3.25-.334.28-.036,1.738-.158,2.072-.193C476.988,924.421,477.479,921.769,477.5,921.629Z" fill="#000000"/><path d="M486.224,916.922a2.233,2.233,0,0,1,1.159,1.738.912.912,0,0,1-.931.984,1.2,1.2,0,0,1-1.036-.79,4.6,4.6,0,0,0-2.477-2.67A6.665,6.665,0,0,1,486.224,916.922Zm9.15.386c-1.423,4.022-3.442,6.288-7.6,9.537-.159.123-1.124.93-1.177.983-.317.457-.352.51-.545.51-.614,0-2.564-1.669-2.564-2.565a.094.094,0,0,1,.106-.105,1.969,1.969,0,0,1,.4.264,1.241,1.241,0,0,0,.668.211,4.1,4.1,0,0,0,1.51-.475c3.741-1.844,6.621-4.953,9.045-8.36Z" fill="#000000"/><path d="M510.371,921.207c-.3,0-1.616-.07-1.88-.07-.544,0-1.756,0-2.739.07a.743.743,0,0,1,.176.352c0,.157-.369.42-.422.508a15.677,15.677,0,0,0-.491,1.95c-.528,1.862-1.827,5.093-6.113,5.655v-.193a6.782,6.782,0,0,0,3.934-4.163,12.213,12.213,0,0,0,.7-3.178,1.21,1.21,0,0,0-.228-.632,18.736,18.736,0,0,0-3.583.737,2.942,2.942,0,0,1-.7.264,3,3,0,0,1-1.9-2.3c0-.105.052-.141.1-.141s.211.141.3.229a1.49,1.49,0,0,0,1.089.421c.738,0,8.519-.808,9.748-1.124a5.112,5.112,0,0,1,.685-.228c.263,0,2,.421,2,1.51C511.056,921.137,510.862,921.207,510.371,921.207ZM507.49,917.8c-.491.053-4.636.527-4.987.579a5.456,5.456,0,0,1-.6.176,3.246,3.246,0,0,1-2.09-1.967.154.154,0,0,1,.159-.141,3.319,3.319,0,0,1,.6.317,3.265,3.265,0,0,0,1.37.211,16.75,16.75,0,0,0,4.3-.633c.528-.246.6-.316.9-.316.473,0,1.685.685,1.685,1.16C508.825,917.642,508.579,917.677,507.49,917.8Z" fill="#000000"/><path d="M519.325,928.338c0,.509-.017,1.387-.6,1.387-.475,0-.966-.913-.966-1.633a5.244,5.244,0,0,1,.193-1.142,4.755,4.755,0,0,0,.087-1.071c0-.6,0-2.055-.017-2.652a1.162,1.162,0,0,0-.158-.527,10.257,10.257,0,0,1-5.129,2.6l-.07-.106c3.284-1.773,6.727-5.882,6.727-6.8a.992.992,0,0,0-.334-.719,1.21,1.21,0,0,1,.474-.141c.668,0,1.949,1.423,1.949,1.9a.242.242,0,0,1-.088.174c-.086.071-.6.229-.684.317-.579.633-1.177,1.212-1.791,1.808.456.387.509.422.509.633l-.018.861Z" fill="#000000"/><path d="M525.4,929.356c2.161-.738,4.76-4.408,4.76-7.973a1.813,1.813,0,0,0-.439-1.441,1.171,1.171,0,0,1-.229-.316c0-.123.123-.263.457-.263a4.437,4.437,0,0,1,2.336.808c.211.1.229.123.264.123a10.953,10.953,0,0,0,1.808-2.389c0-.123-.123-.123-.175-.123a54.124,54.124,0,0,0-6.92,1.247,3.525,3.525,0,0,0-1.107.632.5.5,0,0,1-.333.123c-.72,0-1.862-1.65-1.862-2.283,0-.176.07-.667.228-.667.088,0,.352.3.422.334a2.282,2.282,0,0,0,1.388.438c1.071,0,5.76-.667,6.727-.772.3-.035,1.7-.141,1.861-.176.141-.017.3-.158.7-.457a.492.492,0,0,1,.334-.122c.527,0,2.16,1.334,2.16,2.16,0,.351-.228.368-.755.421a1.735,1.735,0,0,0-.878.387,31.345,31.345,0,0,1-3.723,2.389c-.352.21-.369.3-.528,1.176a8.453,8.453,0,0,1-2.388,5.111,6.606,6.606,0,0,1-4.022,1.792Z" fill="#000000"/><path d="M540.2,930.322l-.51-.51,15.158-15.472.508.51Z" fill="#000000"/><path d="M572.832,929.444H557.219l-.211-.386h6.323v-14.63l2.6.228c.158.018.457.053.457.368,0,.211-.088.317-.72.51v4.848h2.9l1.16-1.335a.32.32,0,0,1,.281-.176.422.422,0,0,1,.3.158l1.422,1.335c.105.106.158.158.158.228,0,.176-.194.176-.387.176h-5.83v8.29h3.863l1.3-1.494c.106-.123.158-.175.281-.175.088,0,.141,0,.317.158l1.633,1.458c.105.105.158.176.158.264C573.219,929.444,573.025,929.444,572.832,929.444Z" fill="#000000"/><path d="M576.325,921.436c-.79,0-.9-.651-.983-1.16a3.2,3.2,0,0,0-1.3-2.213l.088-.175c2.125,0,3.372,1.335,3.372,2.511C577.5,921.277,576.554,921.436,576.325,921.436Zm.878,3.46a2.369,2.369,0,0,0-.158.807,1.194,1.194,0,0,0,.158.6c.7,1.335.808,1.528.808,2.248a1.484,1.484,0,0,1-1.422,1.616c-.317,0-1.212-.141-1.212-.948a1.516,1.516,0,0,1,.088-.563,4.323,4.323,0,0,0,.35-1.3,1.9,1.9,0,0,0-1.457-1.844l.018-.194c1.176-.035,1.3-.262,1.967-1.492.316-.58.948-1.721,1.773-3.5.246-.51,1.564-3.337,1.652-3.53l.175.088Zm.527-7.237c-.914,0-1.037-.6-1.176-1.37a2.992,2.992,0,0,0-1.546-1.826l.053-.176a3.5,3.5,0,0,1,.737-.088c1.141,0,3.179.668,3.179,2.248A1.194,1.194,0,0,1,577.73,917.659Zm13.225,5.585h-2.019a29.075,29.075,0,0,1-.3,3.284l.719-.807a.381.381,0,0,1,.3-.159.483.483,0,0,1,.317.159l.878.93a.563.563,0,0,1,.175.317c0,.176-.14.246-.316.246h-2.195c-.369,1.738-.685,3.214-2.371,3.214-.562,0-.755-.106-.79-.44-.071-.86-.176-1.053-2.055-1.528l.053-.175c.227,0,1.4.035,1.668.035.4,0,.877,0,1.3-1.106h-4.531c-.246.878-.387,1.334-1.739,1.334-.544,0-.7-.263-.7-.527a13.6,13.6,0,0,1,.4-1.4,24,24,0,0,0,.667-3.372H578.38l-.211-.387h2.283c.106-1,.141-2.107.176-3.3a12.225,12.225,0,0,1-1.581,1.176l-.14-.123a15.085,15.085,0,0,0,2.353-6.234l2.652.614c.317.071.492.106.492.317,0,.246-.123.281-.633.439a6.7,6.7,0,0,1-.719,1.194h4.6l1.107-1.176c.088-.088.14-.159.28-.159a.458.458,0,0,1,.316.159l1.142,1.018a.5.5,0,0,1,.158.3c0,.192-.14.245-.3.245h-7.6a14.71,14.71,0,0,1-1.265,1.423l1.353.737h4.127l.791-.825a.481.481,0,0,1,.333-.123.572.572,0,0,1,.422.141l1.036.93a.4.4,0,0,1,.14.282c0,.246-.4.562-.6.7-.018.3-.1,1.7-.122,2.038l.737-.9a.351.351,0,0,1,.6.018l.791.949a.457.457,0,0,1,.158.316C591.254,923.191,591.078,923.244,590.955,923.244Zm-8.483,0a33.45,33.45,0,0,1-.615,3.583h1.212a33.225,33.225,0,0,0,.579-3.583Zm.263-3.354c-.035.615-.088,1.756-.211,2.967H583.7a27.88,27.88,0,0,0,.194-2.967Zm2.968,3.354c-.122.9-.4,2.828-.561,3.583h1.282a23.826,23.826,0,0,0,.473-3.583Zm.721-3.354c-.123.422-.317.439-.457.457-.071.878-.141,1.632-.229,2.51h1.195a26.907,26.907,0,0,0,.035-2.967Z" fill="#000000"/><path d="M593.675,929.356c2.16-.738,4.76-4.408,4.76-7.973a1.809,1.809,0,0,0-.44-1.441,1.166,1.166,0,0,1-.228-.316c0-.123.123-.263.457-.263a4.437,4.437,0,0,1,2.336.808c.211.1.228.123.263.123a10.957,10.957,0,0,0,1.809-2.389c0-.123-.123-.123-.176-.123a54.124,54.124,0,0,0-6.92,1.247,3.52,3.52,0,0,0-1.106.632.5.5,0,0,1-.333.123c-.721,0-1.863-1.65-1.863-2.283,0-.176.071-.667.229-.667.088,0,.351.3.422.334a2.281,2.281,0,0,0,1.387.438c1.072,0,5.76-.667,6.727-.772.3-.035,1.7-.141,1.861-.176.141-.017.3-.158.7-.457a.492.492,0,0,1,.334-.122c.528,0,2.161,1.334,2.161,2.16,0,.351-.229.368-.755.421a1.728,1.728,0,0,0-.878.387,31.419,31.419,0,0,1-3.724,2.389c-.351.21-.369.3-.527,1.176a8.449,8.449,0,0,1-2.389,5.111,6.606,6.606,0,0,1-4.021,1.792Z" fill="#000000"/><path d="M609.005,916.324c1,0,2.459.931,2.459,1.265,0,.053-.123.334-.141.4a5.383,5.383,0,0,0-.246,1.949c0,.3.035,1.652.035,1.932,0,2.3,0,2.7-.561,2.7-.7,0-1.37-1.388-1.37-1.739a3.373,3.373,0,0,1,.193-.825,10.147,10.147,0,0,0,.105-1.651c0-2.652-.246-3.109-.773-3.512-.07-.053-.421-.229-.438-.3C608.232,916.342,608.829,916.324,609.005,916.324Zm2.16,13.365c1.9-1.229,4.338-3.266,4.338-9.659a10.969,10.969,0,0,0-.474-3.776c-.175-.245-.281-.28-.756-.491-.052-.018-.157-.071-.157-.141,0-.141.509-.3.984-.3a4.321,4.321,0,0,1,2.283.878c.192.141.4.281.4.492a1.041,1.041,0,0,1-.246.544,1.072,1.072,0,0,0-.192.739c0,4.917-.317,6.181-.844,7.446a7.306,7.306,0,0,1-5.286,4.355Z" fill="#000000"/><path d="M620.084,928.426c3.9-1.37,6.429-4.093,8.554-9.151a4.913,4.913,0,0,0,.351-1.088c0-.088-.017-.141-.088-.141a32.348,32.348,0,0,0-4.145,1,4.078,4.078,0,0,0-.773.526.243.243,0,0,1-.158.053c-.579,0-1.738-1.65-1.738-2.528,0-.088.017-.211.123-.211.087,0,.192.088.351.228.527.474.615.562,1.176.562a37.028,37.028,0,0,0,5.867-1.054c.087-.053.369-.316.457-.352a.537.537,0,0,1,.262-.07c.457,0,.931.615,1.089.826.475.615.545.79.545,1,0,.282-.105.316-.895.615-.088.035-.176.07-.37.492a21.831,21.831,0,0,1-2.248,4.109,7.406,7.406,0,0,1,3.742,2.283,2.686,2.686,0,0,1,1.018,1.985.923.923,0,0,1-.913,1c-.615,0-.9-.6-1.106-1.072a9.09,9.09,0,0,0-3-3.828,11.116,11.116,0,0,1-8.1,4.952Z" fill="#000000"/><path d="M642.476,929.707c-1.124,0-1.124-.878-1.124-1.4a5.4,5.4,0,0,0-.123-1.282c-.738.4-2.758,1.439-4.374,2.16-.087.369-.123.508-.3.508-.141,0-.194-.087-.246-.192l-1.3-2.529c.316-.018,1.721-.141,2.02-.158a23.594,23.594,0,0,0,1.756-3.214,1.146,1.146,0,0,1-.561.14c-.827,0-.985-.492-1.142-1.212a5.4,5.4,0,0,0-2.195-3.46l.069-.175a5.821,5.821,0,0,1,2.23.7,17.145,17.145,0,0,0,1.335-5.269l2.916.984a.342.342,0,0,1,.281.334c0,.228-.087.228-.843.351a15.815,15.815,0,0,1-3.091,3.969,3.624,3.624,0,0,1,1.615,2.213,13.414,13.414,0,0,0,1.02-3.689l2.845,1.107a.293.293,0,0,1,.193.281c0,.3-.246.334-.808.387a27.351,27.351,0,0,1-2.406,3.74c1.37.6,3.425,2.512,3.425,4.269C643.67,929.181,643.2,929.707,642.476,929.707Zm-2.512-5.339a30.517,30.517,0,0,1-2.055,2.371c.491-.035,2.722-.228,3.179-.263A6.33,6.33,0,0,0,639.964,924.368Zm10.362-7.043c.035.7.07,1.546.07,3a24.878,24.878,0,0,1-1.018,8.219,2.89,2.89,0,0,1-2.74,1.722c-.3,0-.615,0-.615-.334,0-.071.036-.369.036-.439,0-.756-.229-.879-2.213-1.37v-.193c.35.017,1.949.158,2.265.158a1.33,1.33,0,0,0,1.176-.738c.686-1,.914-4.268.914-7.183,0-1.949-.053-2.881-.123-3.706H641.4l-.211-.386h6.639l.685-.791a.589.589,0,0,1,.492-.246.924.924,0,0,1,.457.141l1.263.861a.446.446,0,0,1,.229.386C650.958,916.623,650.853,916.852,650.326,917.325Z" fill="#000000"/><path d="M667.2,929.619a.373.373,0,0,1-.421.352c-.86,0-3.039-1.107-5.076-4.092V929.6c0,.509-1.036.755-1.474.755-.563,0-.563-.3-.563-.457v-3.09a13.763,13.763,0,0,1-7.078,3.213l-.088-.175a10.118,10.118,0,0,0,5.3-4.549h-5.059l-.211-.386h7.131V923.1l2.248.158c.141.017.334.088.334.263,0,.211-.228.334-.545.474v.914h4.285l.633-1.054a.331.331,0,0,1,.281-.193c.123,0,.193.07.316.176l1.089.913a.412.412,0,0,1,.175.316c0,.175-.158.228-.3.228h-5.972a7.078,7.078,0,0,0,3.337,1.845,16.147,16.147,0,0,0,2.932.579v.193A1.832,1.832,0,0,0,667.2,929.619Zm.9-11.205a14.147,14.147,0,0,1-1.564,1.722c.984.561,1.967,1.6,1.967,2.441a1.091,1.091,0,0,1-1.019,1.124.849.849,0,0,1-.842-.861c-.018-.105-.071-.614-.088-.72a21.849,21.849,0,0,1-2.125,1.37c-.053.123-.158.422-.44.422-.105,0-.158-.035-.246-.281l-.491-1.353c0,.3,0,.422-.369.562a3.814,3.814,0,0,1-1.107.264c-.4,0-.4-.3-.4-.632h-1.511c0,.895-1.51.807-1.6.807a.934.934,0,0,1-.861.528.7.7,0,0,1-.719-.668c-.018-.123-.071-.667-.088-.79-1.072.737-1.81,1.159-2.547,1.581-.035.262-.07.491-.281.491-.106,0-.176-.106-.228-.229l-.844-2.213,1.388-.052a17.174,17.174,0,0,0,1.019-1.809.838.838,0,0,1-.439.106c-.65,0-.721-.493-.808-1.019a3.231,3.231,0,0,0-1.195-2.178l.088-.158a5.694,5.694,0,0,1,1.687.509,18.164,18.164,0,0,0,.6-3.038l2.3.755c.106.035.229.14.229.246,0,.316-.563.387-.755.4a10.307,10.307,0,0,1-1.863,1.949,1.867,1.867,0,0,1,.791,1.054,16.17,16.17,0,0,0,.632-1.914l1.7.649v-1.7l1.668.615a10.1,10.1,0,0,0-.105-2.143l2.406.316c.158.018.3.036.3.194,0,.176-.07.192-.7.385a11.861,11.861,0,0,1-1.159,1.318h.755l.7-.7a.471.471,0,0,1,.351-.123.536.536,0,0,1,.264.07l1.018.7a.4.4,0,0,1,.123.317.565.565,0,0,1-.052.246,9.187,9.187,0,0,1,.895.315,13.7,13.7,0,0,0,.579-3.108l2.67.948a.235.235,0,0,1,.158.228c0,.282-.492.3-.72.317a19.64,19.64,0,0,1-2.09,1.914,1.506,1.506,0,0,1,.843.983,9.177,9.177,0,0,0,.527-1.685l2.072.966a.385.385,0,0,1,.211.281C668.781,918.432,668.43,918.414,668.1,918.414Zm-12.19,2.371-1.106,1.107c.246-.018,1.4-.071,1.669-.071A2.3,2.3,0,0,0,655.907,920.785Zm2.161-2.336a22.332,22.332,0,0,1-1.686,1.863,3.835,3.835,0,0,1,1.686,1.141Zm3.3-1.6h-1.511v2.388h1.511Zm0,2.774h-1.511v2.441h1.511Zm3.6.334c-.755,0-.843-.544-.913-.966a2.506,2.506,0,0,0-.808-1.6v4.268c.193-.018.614-.035.79-.053a10.207,10.207,0,0,0,1.247-1.7A.682.682,0,0,1,664.97,919.96Zm1.141.632a10.072,10.072,0,0,1-1.018.949c.193,0,1.124-.07,1.335-.088A2.385,2.385,0,0,0,666.111,920.592Z" fill="#000000"/><path d="M685.288,916.711v12.716c0,.843-1.634.895-1.773.895-.493,0-.51-.228-.51-.6V929.2h-9.817c0,.632,0,1.089-1.582,1.089-.631,0-.649-.316-.649-.685V914.217l2.564,1.124h9.484l.422-.614a.648.648,0,0,1,.561-.3.987.987,0,0,1,.545.211l1.177,1.141a.4.4,0,0,1,.1.3C685.814,916.236,685.763,916.307,685.288,916.711Zm-2.283-.983h-9.817v3.951h5.62v-3.39l2.406.316c.315.036.368.194.368.352,0,.3-.193.386-.649.509v2.213h.052l.632-.808c.106-.141.194-.228.317-.228.105,0,.14.035.369.193l.7.51Zm0,4.337h-2.072V926.7c0,1.564-1,1.756-2.161,1.756-.615,0-.72-.034-.755-.245,0-.088.017-.475.017-.563,0-.9-.421-1.071-2.3-1.527l.053-.176c.492.035,1.792.088,2.336.088.668,0,.686-.123.686-.492v-5.48h-5.62v8.747h9.817Zm-6.5,4.883c-1.107,0-1.142-.562-1.177-1.335a3.207,3.207,0,0,0-1.405-2.547l.053-.175c1.7.158,3.706.983,3.706,2.757A1.164,1.164,0,0,1,676.507,924.948Z" fill="#000000"/></g></g></svg>
