<svg xmlns="http://www.w3.org/2000/svg" width="1000" height="988" viewBox="0 0 1000 988"><g id="Artboard"><rect id="Page" width="1000" height="988" fill="#fff"/></g><g id="Text"><path d="M400.087,56.54h1.2v9.651h-1.2q0-2.562-6.576-2.9H367.377v.6A78.754,78.754,0,0,0,378.4,94.46q10.076,15.033,19.045,16.569,2.05,0,2.05-1.623.084-2.049,1.708-2.05,2.733,0,2.733,2.221,0,2.562-4.868,3.245-10.591,0-19.729-11.444-9.14-9.736-15.543-28.355-6.322,18.791-15.2,29.038-8.115,10.932-19.046,10.932-3.843-.427-3.843-3.5a1.99,1.99,0,0,1,2.221-2.049q2.133,0,2.135,1.537,0,2.051,1.708,2.05,7.431-.6,16.056-13.238,10.419-14.433,12.213-34.5H337.059q-5.894.342-6.662,3.331h-1.452V56.711H330.4q0,3.93,6.662,4.1H360.2V40.655q0-2.646-3.587-2.648V36.555H371.05a6.637,6.637,0,0,0-.171,1.452q-3.5,0-3.5,2.648V60.81H393.17Q400.088,60.81,400.087,56.54Z" fill="#231f20"/><path d="M481.052,74.817h.854v6.491h-.854q0-1.281-6.918-1.453h-18.96v26.732h25.2q7.513,0,7.515-3.074h.94v7.174h-.94q0-1.367-7.174-1.708H425.368q-6.663.169-7.346,2.05h-1.195V103.6h1.195q0,2.818,7.346,2.988H449.11V79.855H431.175q-6.49.174-7.174,1.453h-.854v-6.15H424q0,2.223,7.174,2.392h42.617Q481.05,77.55,481.052,74.817Zm-62-27.842H449.11V38.69q0-1.194-2.818-1.2V36.47H457.48v1.025q-2.562.171-2.562,1.2v8.285h31.515V61.494q0,1.793,1.879,1.793V64.4H480.54V49.281H462.946V64.91q1.108,4.527,7.345,4.526,4.1-.512,4.441-5.978c0-.227-.427-.342-1.281-.342a2.744,2.744,0,0,1-1.111-2.135,2.359,2.359,0,0,1,2.221-1.452q1.794.513,1.793,3.075,0,8.284-8.455,8.284-8.37,0-10.59-5.466V49.281H445.182Q442.62,70.206,427.161,70.8q-4.527,0-4.7-2.477.17-.853,1.452-1.2a1.866,1.866,0,0,1,1.452.683,2.42,2.42,0,0,0,2.049,1.708q9.651-.426,11.359-20.24H424.6V63.116h-7.687V62.091q2.135,0,2.135-2.049Z" fill="#231f20"/><path d="M578.928,40.313v6.918h-1.282q0-1.878-2.306-1.964H514.1V83.7q-.6,13.922-3.843,20.925-2.819,7.088-9.224,7.088-.855-.173-1.2-2.135a2.327,2.327,0,0,1,1.538-1.2,1.045,1.045,0,0,1,.939.6c0,.739.17,1.11.512,1.11q5.552-.94,5.894-22.034V42.96h32.965V37.58q0-1.108-2.39-1.11V35.359h10.59V36.47q-2.306.086-2.305,1.11v5.38H575.34q2.305,0,2.306-2.647ZM536.907,95.656q-4.1,16.225-18.447,16.227-4.017,0-4.527-1.879a1.573,1.573,0,0,1,1.11-1.708,2.294,2.294,0,0,1,1.879,1.11c0,.854.141,1.281.428,1.281q9.051,0,12.212-11.7,0-1.109-1.793-1.28v-.94A61.675,61.675,0,0,0,536.907,95.656ZM526.316,58.333q-2.306,13.41-9.564,13.409a1.717,1.717,0,0,1-1.623-.939,1.377,1.377,0,0,1,.683-1.367,1.549,1.549,0,0,1,1.11.513,1.157,1.157,0,0,0,.854.341q2.477-.169,3.587-10.078,0-.852-1.024-.939v-.854Q523.24,58.419,526.316,58.333ZM542.2,50.9h.6v4.868h-.6q0-.6-6.4-.683h-1.708V69.009q0,1.623,2.391,1.965v.939H527v-.939q2.306,0,2.306-2.136V55.088h-4.527q-5.977.087-6.576.939h-.682V51.16h.682q0,1.623,6.576,1.708h4.527V49.793q0-1.621-1.793-1.793V46.889h8.711V48a2.118,2.118,0,0,0-2.135,1.793v3.075h1.366Q542.2,52.868,542.2,50.9Zm-2.05,19.3a55.756,55.756,0,0,0,7.09.427,9.294,9.294,0,0,1-4.527,5.21h28.7V89.848q0,2.735-3.93,2.733H524.95q-3.416,0-3.416-2.477V75.842h18.192a7.419,7.419,0,0,0,1.281-3.5,1.184,1.184,0,0,0-.855-1.281Zm3.5,7.6H527v5.722h16.654ZM527,85.407V89.25q.17,1.88,3.331,1.879h13.323V85.407Zm12.981-25.792a2.237,2.237,0,0,1,2.478,2.476q0,2.649-2.478,2.648-2.22,0-2.476-2.562Q537.505,59.957,539.981,59.615Zm14.435-1.282q-2.649,9.993-11.1,9.993A1.589,1.589,0,0,1,541.86,67.3a1.3,1.3,0,0,1,.684-1.281,1.423,1.423,0,0,1,.939.512,1.383,1.383,0,0,0,.855.257q3.416-.086,5.039-6.491c0-.569-.457-.91-1.367-1.025v-.854Q551.256,58.419,554.416,58.333ZM549.8,95.314v1.025a1.282,1.282,0,0,0-1.11,1.367v11.273q.513,2.819,17.338,2.818,11.444-1.024,11.444-4.526c0-.854-.286-1.281-.854-1.281q-1.024-.171-1.195-1.708.424-1.622,1.793-1.623,2.22.172,2.22,3.758-.94,7.087-18.105,7.43-18.108,0-18.106-6.32V95.314Zm24.342-45.35H575v6.405h-.853q0-1.281-6.151-1.452h-6.148V69.009q0,1.623,2.306,1.965v.939h-9.394v-.939q2.305,0,2.3-2.136V54.917h-4.611q-5.892.087-6.576.94h-.769V50.9h.769q0,1.71,6.576,1.794h4.611v-2.9q0-1.621-1.962-1.793V46.889h8.8V48a2,2,0,0,0-2.05,1.793v2.9h5.892Q574.146,52.7,574.145,49.964Zm-8.627,33.564V77.806H548.863v5.722Zm-16.655,7.6h12.9q3.759,0,3.758-1.964V85.407H548.863Zm17.252,4.27h1.709q.768,5.724,4.953,6.833-.084,2.649-.256,5.722a8.63,8.63,0,0,1-4.7-4.7,128.925,128.925,0,0,1-12.9,3.758,3,3,0,0,0-1.11.6c-.228,0-.4-.256-.513-.768a44.106,44.106,0,0,0-1.2-4.441q4.7,0,6.407-8.541,2.988,1.281,5.806,2.477a1.523,1.523,0,0,1-.426.854q-.512-.169-1.111-.341-1.878,3.073-4.355,6.49a81.118,81.118,0,0,0,8.625-1.793A21.81,21.81,0,0,1,566.115,95.4Zm4.358-37.578v1.025c-.172,0-.287.256-.342.769q1.706,10.164,5.209,10.76a.528.528,0,0,0,.6-.6,1.194,1.194,0,0,1,1.025-1.367c.625,0,1,.371,1.109,1.11q0,2.136-3.416,2.478-5.979,0-10.078-14.178Z" fill="#231f20"/><path d="M599.936,76.183a15.252,15.252,0,0,1-8.711,3.588q-3.246,0-3.929-1.879a1.97,1.97,0,0,1,1.281-1.879,2.083,2.083,0,0,1,1.708,1.793q7,0,12.555-18.191a1.528,1.528,0,0,0-1.366-1.538V57.052q4.011,0,8.2-.17a48.559,48.559,0,0,1-4.526,12.9V98.816a.836.836,0,0,1,.341.512q.171,1.537.6,1.537Q613,99.329,614.455,66.7a1.585,1.585,0,0,0-1.537-1.793V63.628h6.661q-2.478,37.5-14.092,38.518h-.341v7.26q.17,3.33,3.331,3.331v1.2H596.69v-1.2q3.246,0,3.246-3.075Zm9.48-39.884q-4.442,19.133-16.654,20.156-3.246,0-4.014-1.965a1.893,1.893,0,0,1,1.452-1.879,2.174,2.174,0,0,1,1.622,1.708q5.807,0,10.334-15.116a1.528,1.528,0,0,0-1.451-1.623V36.47Q604.974,36.47,609.416,36.3Zm29.807,15.117h.768v5.978h-.768q0-1.108-6.577-1.2h-4.441v54.233q0,1.878,2.9,2.22v1.2H620.263v-1.2q2.9,0,2.9-2.391V56.2h-3.074q-6.236.087-6.918,1.2h-.769V51.757h.769q0,2.051,6.918,2.136h3.074V39.459q0-1.794-2.306-1.964V36.213h9.822v1.282a2.351,2.351,0,0,0-2.477,1.964V53.893h4.1Q639.223,53.893,639.223,51.416Zm-1.2,11.7V64.4a1.191,1.191,0,0,0-.939,1.281q1.363,34.932,7.259,34.931.683,0,.683-1.195a1.182,1.182,0,0,1,.854-1.282q1.109.429,1.11,1.282,0,2.733-3.587,2.732-9.566-2.306-11.7-39.03Zm-3.075-21.351q2.988.086,2.989,2.989,0,3.246-2.989,3.246-2.648,0-3.074-3.161Q631.878,42.108,634.952,41.765Zm30.575,20.924h1.111v8.37h-1.111q0-2.135-6.661-2.392h-1.538V106.5q0,5.894-8.626,6.064-7.772,0-7.771-3.5.082-1.11,1.623-1.537,1.536.171,1.537,1.537a2.047,2.047,0,0,0,1.964,2.136q5.125,0,5.466-4.783V68.667H649.13q-6.492.087-7.26,1.282H641.1V64.141h.768q0,2.136,7.26,2.221h9.479Q665.528,66.362,665.527,62.689Zm-1.964-23.572h.94v7.6h-.94q0-1.707-6.491-1.964h-6.149q-6.064.087-6.747,1.2h-.94V40.313h.94q0,2.049,6.747,2.135h5.893Q663.562,42.448,663.563,39.117Z" fill="#231f20"/><path d="M332.109,128.377l-.122,17.477v1.265a17.525,17.525,0,0,0,.2,2.777,4.284,4.284,0,0,0,.939,1.715H327.7c.858-.653,1.511-2.818,1.879-6.492a146.836,146.836,0,0,0,.653-16.374,4.925,4.925,0,0,0-.245-1.634,4.264,4.264,0,0,0-.939-1.143h5.308a2.8,2.8,0,0,1,.816.082,2.046,2.046,0,0,1,.45.653l8.615,19.314,9.514-19.151.572-.735a2.65,2.65,0,0,1,1.062-.163h4.573a5.639,5.639,0,0,0-.857,2.082,26.153,26.153,0,0,0-.246,4.165,132.491,132.491,0,0,0,.49,14.21c.327,2.532.9,4.247,1.756,5.186h-7.023a6.914,6.914,0,0,0,.98-2.123c.082-.49.163-1.1.245-1.879.041-.734.082-1.347.082-1.8l-.082-.244-.082-3.226-.244-13.965-11.924,23.806Z" fill="#231f20"/><path d="M376.2,151.2c-.041-.2-.123-.491-.163-.776a7.493,7.493,0,0,1-.2-1.675,6.346,6.346,0,0,1-2.49,2.491,7.147,7.147,0,0,1-3.553.858,6.943,6.943,0,0,1-4.206-1.266,3.506,3.506,0,0,1-1.755-2.94,3.455,3.455,0,0,1,1.47-2.736,26.405,26.405,0,0,1,6.369-2.94c2-.776,3.186-1.347,3.512-1.8a3.032,3.032,0,0,0,.694-2.205c0-2.45-1.225-3.635-4-3.635h-.735a5.55,5.55,0,0,0-1.1.287,2.656,2.656,0,0,0-1.061.776l-.491.857a2.623,2.623,0,0,1-2.286,1.8,2.245,2.245,0,0,1-1.307-.408,1.522,1.522,0,0,1-.49-1.1c0-1.021.858-1.838,2.532-2.491a16.342,16.342,0,0,1,6.492-1.021c4.288,0,5.921,1.1,5.921,3.879l-.122,2.9-.123,4.86a23.137,23.137,0,0,0,.367,4.613,3.013,3.013,0,0,0,1.266,2.083l-4.328.245A3.993,3.993,0,0,1,376.2,151.2Zm-7.146-6.452a2.971,2.971,0,0,0-1.347,2.409A2.106,2.106,0,0,0,368.77,149a4.433,4.433,0,0,0,2.653.734,4.074,4.074,0,0,0,3.267-1.265,5.559,5.559,0,0,0,1.062-3.675v-2.777C372.158,143.2,369.913,144.1,369.055,144.751Z" fill="#231f20"/><path d="M399.1,133.89a15.3,15.3,0,0,0,2.572-.2l.041.326.041.163-.041.164v.244l-1.062.327-1.8.082a4.6,4.6,0,0,1,1.1,1.388c.041.2.122.49.2.817a8.729,8.729,0,0,1,.082.939,4.925,4.925,0,0,1-1.878,3.838,10.965,10.965,0,0,1-5.227,2.124,14.134,14.134,0,0,0-3.226,1.51q-1.1.8-1.1,1.348c0,.612,1.879,1.347,5.6,2.164l.735.163c3.511.776,5.839,1.552,6.941,2.328a3.8,3.8,0,0,1,1.674,3.266,4.137,4.137,0,0,1-1.143,2.9,10.149,10.149,0,0,1-1.8,1.43,24.251,24.251,0,0,1-3.062,1.714l-.531.287a16.556,16.556,0,0,1-7.064,2.082,9.986,9.986,0,0,1-5.676-1.552,4.457,4.457,0,0,1-2.327-3.756c0-1.715,1.634-3.675,4.859-5.88l2.2-1.511c-3.307-.653-4.451-1.388-4.451-2.736q0-1.162,2.328-2.205a17.617,17.617,0,0,0,3.062-1.551,5.3,5.3,0,0,1-3.43-1.675,4.907,4.907,0,0,1,.98-7.553,10.652,10.652,0,0,1,6.125-1.593,10.335,10.335,0,0,1,1.8.122c.408.082.735.164.98.205a5.043,5.043,0,0,1,.9.326ZM386.936,153.9a3.728,3.728,0,0,0-1.348,2.655q0,1.836,2.2,3.062a10.9,10.9,0,0,0,5.431,1.225,7.586,7.586,0,0,0,4.736-1.551A4.434,4.434,0,0,0,400,155.735a3.036,3.036,0,0,0-1.674-2.818c-1.062-.653-3.349-1.306-6.9-1.959A21.211,21.211,0,0,0,386.936,153.9Zm5.757-19.436a3.151,3.151,0,0,0-2.532,1.021,3.779,3.779,0,0,0-.98,2.777,4.753,4.753,0,0,0,1.184,3.307,3.645,3.645,0,0,0,2.818,1.266,3.294,3.294,0,0,0,3.348-3.553C396.531,136.462,394.857,134.461,392.693,134.461Z" fill="#231f20"/><path d="M405.47,128.295l3.552-1.878,2,2.736-3.47,1.837Zm1.143,21.968a18.678,18.678,0,0,0,.245-3.756v-6.044a34.579,34.579,0,0,0-.245-5.226c-.164-.858-.408-1.347-.735-1.511l2.491-.122,2.164-.286c-.041.286-.082.776-.123,1.429s-.081,1.307-.081,1.96l-.041,7.595v2.286a20.625,20.625,0,0,0,.2,3.635,1.86,1.86,0,0,0,.776,1.388h-5.431A2.159,2.159,0,0,0,406.613,150.263Z" fill="#231f20"/><path d="M424.7,152.1a10.129,10.129,0,0,1-6.983-2.532,8.3,8.3,0,0,1-2.817-6.492,8.879,8.879,0,0,1,3.185-7.064,11.86,11.86,0,0,1,8.125-2.736l2.45.122,2.165.368-.164,4.206a5.39,5.39,0,0,0-1.837-2.491,4.92,4.92,0,0,0-2.859-.816,6.608,6.608,0,0,0-5.145,2.286,8.457,8.457,0,0,0-2,5.839,6.83,6.83,0,0,0,2,5.063,6.735,6.735,0,0,0,5.064,2.042,8.809,8.809,0,0,0,3.307-.613,5.876,5.876,0,0,0,2.45-1.633C431.641,150.427,428.905,152.1,424.7,152.1Z" fill="#231f20"/><path d="M446.174,151.2c-.041-.2-.122-.491-.163-.776a7.493,7.493,0,0,1-.2-1.675,6.354,6.354,0,0,1-2.491,2.491,7.147,7.147,0,0,1-3.553.858,6.938,6.938,0,0,1-4.2-1.266,3.507,3.507,0,0,1-1.756-2.94,3.46,3.46,0,0,1,1.469-2.736,26.452,26.452,0,0,1,6.371-2.94c2-.776,3.185-1.347,3.511-1.8a3.028,3.028,0,0,0,.694-2.205c0-2.45-1.224-3.635-4-3.635h-.735a5.567,5.567,0,0,0-1.1.287,2.649,2.649,0,0,0-1.061.776l-.49.857a2.625,2.625,0,0,1-2.287,1.8,2.243,2.243,0,0,1-1.307-.408,1.525,1.525,0,0,1-.489-1.1c0-1.021.857-1.838,2.531-2.491a16.349,16.349,0,0,1,6.492-1.021c4.288,0,5.921,1.1,5.921,3.879l-.122,2.9-.123,4.86a23.137,23.137,0,0,0,.367,4.613,3.013,3.013,0,0,0,1.267,2.083l-4.329.245A3.993,3.993,0,0,1,446.174,151.2Zm-7.146-6.452a2.971,2.971,0,0,0-1.347,2.409A2.106,2.106,0,0,0,438.743,149a4.435,4.435,0,0,0,2.653.734,4.074,4.074,0,0,0,3.267-1.265,5.559,5.559,0,0,0,1.062-3.675v-2.777C442.132,143.2,439.886,144.1,439.028,144.751Z" fill="#231f20"/><path d="M455.071,150.019a29.281,29.281,0,0,0,.245-4.656l-.041-3.429v-10.29a42.64,42.64,0,0,0-.245-5.717c-.163-.939-.408-1.51-.776-1.674l4.7-.694c-.041.2-.081,1.021-.122,2.531s-.082,2.492-.082,3.022l-.041,14.21v3.185c0,.9,0,1.674.041,2.286a9.383,9.383,0,0,0,.163,1.43,1.866,1.866,0,0,0,.776,1.388h-5.431A2.576,2.576,0,0,0,455.071,150.019Z" fill="#231f20"/><path d="M477.238,146.139c.776-1.224,1.552-2.45,2.246-3.675s1.43-2.694,2.287-4.41c.531-.939,1.1-2.164,1.8-3.675.695-1.469,1.184-2.613,1.552-3.429a15.131,15.131,0,0,0,1.307-3.757,1.878,1.878,0,0,0-.082-.571,1.081,1.081,0,0,0-.245-.654h5.88c2.328,6.492,4.492,12.005,6.574,16.455s3.8,7.514,5.227,9.188h-5.186l-4.819-11.066H482.669l-2,4.165c-1.306,2.736-1.96,4.655-1.96,5.676l.041.572.2.653h-6.085A36.005,36.005,0,0,0,477.238,146.139Zm15.8-7.145-4.451-10.331-5.145,10.331Z" fill="#231f20"/><path d="M506.592,149.814a4.765,4.765,0,0,0,1.674.613,7.91,7.91,0,0,0,2,.245,5.265,5.265,0,0,0,3.266-.98,2.868,2.868,0,0,0,1.307-2.409,2.927,2.927,0,0,0-.858-2,15.4,15.4,0,0,0-3.674-2.123,13.073,13.073,0,0,1-4.043-2.532,3.872,3.872,0,0,1-1.225-2.817,3.784,3.784,0,0,1,1.919-3.308,9.886,9.886,0,0,1,5.35-1.225h.9a11.821,11.821,0,0,1,1.226.122c.612.082,1.142.123,1.591.164.328.041.777.123,1.389.245l-.122,3.389a6,6,0,0,0-2.124-1.96,6.452,6.452,0,0,0-2.9-.612,4.694,4.694,0,0,0-2.614.694,2.066,2.066,0,0,0-1.02,1.837c0,1.266,1.592,2.695,4.776,4.247l.449.245a12.608,12.608,0,0,1,3.8,2.409,3.321,3.321,0,0,1,.98,2.45,4.682,4.682,0,0,1-2.491,3.92,10.855,10.855,0,0,1-6.084,1.674,13.9,13.9,0,0,1-4.287-.531c-1.143-.327-1.714-.776-1.714-1.307l.04-1.1a9.827,9.827,0,0,1,.245-1.96A5.883,5.883,0,0,0,506.592,149.814Z" fill="#231f20"/><path d="M521.247,135.155V133.89l2.327-.164.122-4.981,3.471-.858L527,133.726h3.838l.327.041.082.2c0,.327-.327.612-.98.9a10.006,10.006,0,0,1-2.9.285H527l-.245,10.535v.286c0,2.613.735,3.756,2.409,3.756a3.2,3.2,0,0,0,1.43-.285,5.63,5.63,0,0,0,1.428-.94l-.163,1.8a5.642,5.642,0,0,1-2.042,1.307,6.439,6.439,0,0,1-2.49.49c-2.654,0-4.043-1.8-4.043-5.022v-.368l.245-11.474Z" fill="#231f20"/><path d="M535.984,150.263a18.6,18.6,0,0,0,.245-3.756v-5.064a38.959,38.959,0,0,0-.245-5.634,2.561,2.561,0,0,0-.775-1.675l2.164-.367,1.47-.122c.49,0,.735.571.735,1.674l.041.775a9.551,9.551,0,0,1,2.327-2.164,5.278,5.278,0,0,1,2.7-.653,3.589,3.589,0,0,1,1.837.409,1.261,1.261,0,0,1,.735,1.1c0,.775-.612,1.225-1.878,1.225l-1.226-.082-1.306-.041a2.849,2.849,0,0,0-2.614,1.1c-.367.694-.571,2.409-.571,5.145v2.245l.081,2.818v1.756a9.024,9.024,0,0,0,.2,1.51,1.769,1.769,0,0,0,.736,1.144h-5.431A2.159,2.159,0,0,0,535.984,150.263Z" fill="#231f20"/><path d="M566.933,135.523a7.859,7.859,0,0,1,2.491,6.165A9.718,9.718,0,0,1,558.971,152.1c-6.166,0-9.76-3.308-9.76-9.024a9.074,9.074,0,0,1,2.981-7.1,11.008,11.008,0,0,1,7.677-2.7C562.891,133.277,565.259,134.012,566.933,135.523ZM554.6,136.666a6.872,6.872,0,0,0-1.144,2.328,10.9,10.9,0,0,0-.449,3.185c0,5.1,2.695,8.411,6.982,8.411a4.855,4.855,0,0,0,4.206-2,10.24,10.24,0,0,0,1.429-5.88,8.318,8.318,0,0,0-1.878-5.716,5.639,5.639,0,0,0-4.7-2.246A5.484,5.484,0,0,0,554.6,136.666Z" fill="#231f20"/><path d="M573.787,150.263a18.6,18.6,0,0,0,.245-3.756v-5.064a38.959,38.959,0,0,0-.245-5.634,2.561,2.561,0,0,0-.775-1.675l4.369-.408.122.94.123,1.061v.531a9.4,9.4,0,0,1,2.98-2.287,9.727,9.727,0,0,1,3.716-.694c2,0,3.39.572,4.165,1.674.776,1.143,1.185,3.593,1.185,7.391v5.226a13.822,13.822,0,0,0,.2,2.777,1.937,1.937,0,0,0,.775,1.266h-4.614l.164-4.573.04-5.39v-.981c0-2.2-.285-3.633-.9-4.246a4.438,4.438,0,0,0-3.185-.9,4.731,4.731,0,0,0-3.634,1.184c-.694.816-1.061,2.817-1.061,5.961v3.839a23.382,23.382,0,0,0,.2,3.8,1.99,1.99,0,0,0,.775,1.307h-5.43A2.159,2.159,0,0,0,573.787,150.263Z" fill="#231f20"/><path d="M611.757,135.523a7.855,7.855,0,0,1,2.491,6.165A9.717,9.717,0,0,1,603.795,152.1c-6.166,0-9.76-3.308-9.76-9.024a9.075,9.075,0,0,1,2.982-7.1,11.005,11.005,0,0,1,7.676-2.7C607.715,133.277,610.083,134.012,611.757,135.523Zm-12.331,1.143a6.89,6.89,0,0,0-1.144,2.328,10.9,10.9,0,0,0-.449,3.185c0,5.1,2.7,8.411,6.982,8.411a4.855,4.855,0,0,0,4.206-2,10.24,10.24,0,0,0,1.429-5.88,8.318,8.318,0,0,0-1.878-5.716,5.638,5.638,0,0,0-4.7-2.246A5.484,5.484,0,0,0,599.426,136.666Z" fill="#231f20"/><path d="M618.613,150.263a18.7,18.7,0,0,0,.244-3.756v-5.064a39.169,39.169,0,0,0-.244-5.634,2.566,2.566,0,0,0-.776-1.675l4.369-.408.122.9.123.857v.408a9.622,9.622,0,0,1,3.022-1.919,10.3,10.3,0,0,1,3.511-.694,5.82,5.82,0,0,1,2.94.735,5.3,5.3,0,0,1,1.8,2.164,11.193,11.193,0,0,1,3.185-2.2,8.736,8.736,0,0,1,3.307-.694,4.881,4.881,0,0,1,4.818,2.858,16.483,16.483,0,0,1,.327,2.042c0,.735,0,1.511.04,2.286s.041,1.552.082,2.287v4.818a13.328,13.328,0,0,0,.2,2.859,1.973,1.973,0,0,0,.776,1.184h-4.573l.163-3.961.082-6.043v-.531c0-2.491-.286-4.042-.9-4.655a3.389,3.389,0,0,0-2.858-.98h-.857a6.13,6.13,0,0,0-1.226.368,3.968,3.968,0,0,0-1.47,1.061,4.915,4.915,0,0,0-.775,1.838c-.041.857-.082,1.674-.123,2.531s-.081,1.47-.081,1.8v4.328c0,.613.04,1.143.081,1.675s.123.98.163,1.265a1.946,1.946,0,0,0,.776,1.307h-5.389a1.768,1.768,0,0,0,.734-1.266,16.194,16.194,0,0,0,.245-3.593V139.4a4.578,4.578,0,0,0-.857-3.063,3.922,3.922,0,0,0-2.9-.9,5.143,5.143,0,0,0-1.878.327,4.674,4.674,0,0,0-1.592,1.1,3.035,3.035,0,0,0-.735,1.674,22.5,22.5,0,0,0-.245,4.043v2.205l.081,2.572v.368a13.467,13.467,0,0,0,.164,2.654,1.893,1.893,0,0,0,.776,1.225h-5.431A2.164,2.164,0,0,0,618.613,150.263Z" fill="#231f20"/><path d="M659.848,144.3c.693-1.756,1.183-3.1,1.51-4.043q.675-2.02.98-3.184a7.766,7.766,0,0,0,.286-1.879,1.8,1.8,0,0,0-.122-.776,1.558,1.558,0,0,0-.327-.694h4.94q-1.469,1.47-4.654,8.575c-1.022,2.327-1.838,4.083-2.409,5.267-2.777,6-5.227,10.127-7.391,12.373a9.859,9.859,0,0,1-7.186,3.389,5.75,5.75,0,0,1-2.9-.654q-1.224-.55-1.224-1.347c0-.286.163-.449.489-.531a6.214,6.214,0,0,1,1.96-.163h1.184l.858.041a10.705,10.705,0,0,0,3.594-.409,4.965,4.965,0,0,0,2.041-1.347,20.732,20.732,0,0,0,1.592-1.92,15.153,15.153,0,0,0,1.225-1.918,7.067,7.067,0,0,0,1.02-3.308,24.588,24.588,0,0,0-1.142-4.573c-.776-2.532-1.8-5.267-2.982-8.166q-.489-1.287-.979-2.451c-.367-.734-.612-1.265-.816-1.633a2.743,2.743,0,0,0-1.185-1.143l3.267-.327h.449c.612,0,1.838,2.695,3.594,8.044l2.408,7.391C658.541,147.568,659.153,146.058,659.848,144.3Z" fill="#231f20"/><g id="Physicist_is_Magician" data-name="Physicist is Magician"><path d="M242.671,590.735a1.818,1.818,0,0,0-.49-1.533,1.96,1.96,0,0,1-.7-1.172,1.369,1.369,0,0,1,0-.339c.155-.85,1.184-1.533,2.979-2.04a12.692,12.692,0,0,1,3.815-.562,24.586,24.586,0,0,1,2.877.229c1.9.335,2.736,1.19,2.5,2.534a6.507,6.507,0,0,1-.171.65,4.1,4.1,0,0,1-2.034,2.187,15.392,15.392,0,0,1-3.094,1.264,21.052,21.052,0,0,0-2.762.978,3.652,3.652,0,0,0-1.829,2.73,16.341,16.341,0,0,0-.19,1.834c-.047.8-.078,1.374-.142,1.73a2.381,2.381,0,0,1-1.87,2.127c.009-.989.1-2.281.242-3.836.222-2.357.326-3.678.348-3.956A23.38,23.38,0,0,0,242.671,590.735Zm1.865-2.156a14.688,14.688,0,0,0,.144,2.517,12.474,12.474,0,0,0,4.148-.958,10.56,10.56,0,0,0,3.523-2.261,6.623,6.623,0,0,0-2.622-1.2,8.078,8.078,0,0,0-3.04.194C245.421,587.151,244.69,587.729,244.536,588.579Z" fill="#231f20"/><path d="M255.991,590.724a23.458,23.458,0,0,0-.078,6.095,6.845,6.845,0,0,1,4.734-1.214,3.168,3.168,0,0,1,2.583,2.48,8.7,8.7,0,0,1,.256,3.945c-.357,2.06-1.391,2.929-3.08,2.639a17.945,17.945,0,0,1,.556-1.884,17.489,17.489,0,0,0,.6-2.131c.286-1.647-.245-2.705-1.59-3.13a2.733,2.733,0,0,0-2.52.582,5.544,5.544,0,0,0-1.694,2.024c-.287.631-.526,1.453-.819,2.064a2,2,0,0,1-1.8.816,47.821,47.821,0,0,1,.914-9.826,11.866,11.866,0,0,1,.7-1.546c.072-.267.151-.54.2-.842a16.76,16.76,0,0,0,.135-2.692,16.264,16.264,0,0,1,.156-2.659,7.383,7.383,0,0,1,.44-1.536c-.525.247-.554.412-.059.5a2.194,2.194,0,0,0,.788.025A42.885,42.885,0,0,1,255.991,590.724Z" fill="#231f20"/><path d="M272.152,597.281a8.94,8.94,0,0,1,1.768.975,8.051,8.051,0,0,0-1.384,3.3,13.644,13.644,0,0,0-.1,3.091,10.817,10.817,0,0,1,2.611-.1,5.947,5.947,0,0,1,1.116.3,3.809,3.809,0,0,1-1.164,2.01,5.528,5.528,0,0,1-2.234.73c.566,1.875,1.118,3.781,1.666,5.674a13.361,13.361,0,0,1,.588,5.831,7.6,7.6,0,0,1-.841,2.432c-.9,1.6-2.053,2.286-3.421,2.059-1.76-.294-3.691-1.917-5.794-4.845a17.116,17.116,0,0,0-2.375-2.5,12.173,12.173,0,0,1-2.208-2.442,6.015,6.015,0,0,1-1.267-4.206c.216-1.234,1.17-2.116,2.879-2.586.569-.158,1.812-.4,3.716-.695a16.026,16.026,0,0,0,3.668-.934c.762-.325,1.157-.6,1.19-.788a1.188,1.188,0,0,0-.217-.574,10.663,10.663,0,0,1-.56-1.056,7.325,7.325,0,0,1-3.068.612c-.8-.136-1.26-.737-1.345-1.783a5.246,5.246,0,0,1,.052-1.291,5.16,5.16,0,0,1,2-3.335,9.685,9.685,0,0,1,.079,2.19c-.058,1.176-.052,1.969-.036,2.367a5.347,5.347,0,0,0,2.263-.747,4.049,4.049,0,0,0,1.135-1.985C271.244,597.781,271.682,597.2,272.152,597.281ZM260.183,610.2a3.2,3.2,0,0,0,.484,1.978,19,19,0,0,0,3.067,3.917c.439.442,1.639,1.607,3.613,3.466a6.457,6.457,0,0,0,3.218,1.81c1.59.266,2.53-.539,2.851-2.435.042-.247.064-.529.084-.833a10.776,10.776,0,0,0-.281-3.07c-.316-1.171-.474-1.757-.789-2.928-.226-.857-.416-1.7-.626-2.534a5.1,5.1,0,0,0-1.06-2.325,1.545,1.545,0,0,0-.9-.434,7.348,7.348,0,0,0-3.082.5c-1.686.535-2.649.793-2.913.833C261.61,608.411,260.379,609.075,260.183,610.2Z" fill="#231f20"/><path d="M278.475,602.8a1.534,1.534,0,0,1-1.381-1.1,1.679,1.679,0,0,1-.063-.8,1.527,1.527,0,0,1,1.261-1.09c.654-.169,1.451-.282,2.125-.47.728-.2,1.536-.477,2.275-.7a4.758,4.758,0,0,1,2.077-.2,3.237,3.237,0,0,1,1.869,1.067c-1.246.334-3.148.843-5.683,1.557a23.851,23.851,0,0,0,3.863,1.054,23.2,23.2,0,0,1,3.755,1.031c1.249.54,1.807,1.137,1.695,1.824-.094.578-.612,1.087-1.507,1.565a6.758,6.758,0,0,1-2.552.8c-.144,0-1.031.17-2.61.452a8.4,8.4,0,0,1-2.595.171,1.922,1.922,0,0,1-1.663-2.166,66.691,66.691,0,0,0,7.685-.836,11.047,11.047,0,0,0-3.4-1.314c-.467-.1-1.737-.339-3.814-.68C279.481,602.906,278.724,602.838,278.475,602.8Z" fill="#231f20"/><path d="M292.713,605.867a11.6,11.6,0,0,0,.07-2.02,6.534,6.534,0,0,1,.1-1.678c.159-.58.408-1.018.662-1.108a9.566,9.566,0,0,1,1.233-.256,15.454,15.454,0,0,0-.326,2.036c-.081.834-.132,2.236-.234,4.111-.052.319-.077.479-.129.8l.324.474-.067.414c-.115.714-.293,1.109-.509,1.216a12.537,12.537,0,0,1-1.388.119,17.744,17.744,0,0,1,.2-3.694Zm1.272-9.843-.139-.022a.584.584,0,0,0-.188-.059,1.668,1.668,0,0,0-.6.019,7.311,7.311,0,0,1-.123-1.882c.117-.727.176-1.09.293-1.816.306.387.659.781.922,1.135a2.019,2.019,0,0,1,.383,1.5,3.243,3.243,0,0,1-.13.458C294.19,595.8,294.068,596.037,293.985,596.024Z" fill="#231f20"/><path d="M305.214,611.968c-1.514-.233-2.271-.349-3.784-.584-.251-.039-.585-.091-1.061-.137l-1.03-.161a5.456,5.456,0,0,1-2.484-.868,2.524,2.524,0,0,1-.706-2.537,8.769,8.769,0,0,1,2.228-4.333,11.294,11.294,0,0,1,3.97-3.017c2.8-1.2,5.083-1.667,6.883-1.392,2.077.317,2.7,1.793,1.819,4.392a15.414,15.414,0,0,1-1.636-.249,8.867,8.867,0,0,0,.374-2.423,11.206,11.206,0,0,0-8.717,2.377c-1.933,1.645-2.982,3.031-3.171,4.214a1.723,1.723,0,0,0,.569,1.612,6,6,0,0,0,3.2,1.346,22.214,22.214,0,0,0,4.859.074c1.433-.107,2.884-.236,4.349-.324a4.4,4.4,0,0,1-.462,1.705,2.4,2.4,0,0,1-1.554.47A17.81,17.81,0,0,1,305.214,611.968Z" fill="#231f20"/><path d="M313.659,609.109a11.608,11.608,0,0,0,.054-2.02,6.567,6.567,0,0,1,.085-1.679c.154-.581.4-1.021.654-1.113a9.489,9.489,0,0,1,1.232-.266,15.429,15.429,0,0,0-.31,2.039c-.074.833-.114,2.236-.2,4.112l-.122.8.327.471-.063.414c-.11.716-.285,1.113-.5,1.221a12.321,12.321,0,0,1-1.388.13,17.661,17.661,0,0,1,.167-3.695Zm1.191-9.853-.139-.021a.556.556,0,0,0-.188-.057,1.688,1.688,0,0,0-.6.024,7.281,7.281,0,0,1-.138-1.881l.277-1.819c.31.385.666.776.933,1.128a2.015,2.015,0,0,1,.4,1.5,3.192,3.192,0,0,1-.127.46C315.055,599.034,314.934,599.269,314.85,599.256Z" fill="#231f20"/><path d="M319.224,609.18a1.541,1.541,0,0,1-1.4-1.081,1.7,1.7,0,0,1-.077-.8,1.534,1.534,0,0,1,1.247-1.109c.653-.18,1.451-.3,2.122-.5.724-.214,1.53-.5,2.268-.737a4.744,4.744,0,0,1,2.077-.23,3.256,3.256,0,0,1,1.891,1.035c-1.245.355-3.142.895-5.67,1.649a23.9,23.9,0,0,0,3.887.993,23.161,23.161,0,0,1,3.78.97c1.259.519,1.827,1.106,1.727,1.8-.085.579-.595,1.095-1.485,1.589a6.784,6.784,0,0,1-2.544.843c-.143.006-1.03.186-2.608.493a8.42,8.42,0,0,1-2.6.212,1.922,1.922,0,0,1-1.7-2.139,66.81,66.81,0,0,0,7.686-.96,11.116,11.116,0,0,0-3.427-1.258c-.47-.1-1.745-.312-3.831-.62C320.235,609.273,319.474,609.217,319.224,609.18Z" fill="#231f20"/><path d="M338.239,601.063a17.637,17.637,0,0,0,.141-1.781,16.77,16.77,0,0,1,.129-1.7,2.527,2.527,0,0,1,1.754-2.4,35.2,35.2,0,0,1-.332,5.328c-.128,1.131.141,1.959.658,2.146.494.179,1.161.252,1.667.43.6.21.864.908.768,1.991a3.77,3.77,0,0,0-3.016.678,7.631,7.631,0,0,0-1.292,3.279,11.3,11.3,0,0,0-.188,2.507,19.633,19.633,0,0,1-.093,2.435,2.88,2.88,0,0,1-2.079,2.578,14.852,14.852,0,0,1,.143-3.161c.083-.578.238-1.457.492-2.632s.405-2.025.488-2.605a13.273,13.273,0,0,0,.116-2.994,10.2,10.2,0,0,0-2.1.237,5.943,5.943,0,0,1-1.673.184c-.638-.091-1.02-.6-1.082-1.534,1.071-.156,2.163-.254,3.183-.447a2.48,2.48,0,0,0,2.142-1.7A7.813,7.813,0,0,0,338.239,601.063Z" fill="#231f20"/><path d="M356.087,615.128a11.64,11.64,0,0,0,.019-2.023,6.484,6.484,0,0,1,.059-1.678c.144-.584.383-1.028.636-1.124a9.5,9.5,0,0,1,1.23-.287,15.258,15.258,0,0,0-.276,2.044c-.06.835-.077,2.238-.131,4.115l-.109.8.335.466-.056.414c-.1.719-.267,1.117-.48,1.23a13.263,13.263,0,0,1-1.389.153,17.633,17.633,0,0,1,.106-3.7Zm1.029-9.872-.14-.018a.55.55,0,0,0-.19-.054,1.667,1.667,0,0,0-.6.033,7.249,7.249,0,0,1-.17-1.878c.1-.729.149-1.094.248-1.823.316.379.68.764.953,1.111a2.017,2.017,0,0,1,.422,1.49,3.165,3.165,0,0,1-.12.462C357.316,605.03,357.2,605.267,357.116,605.256Z" fill="#231f20"/><path d="M361.665,615.105a1.543,1.543,0,0,1-1.423-1.058,1.688,1.688,0,0,1-.09-.8,1.536,1.536,0,0,1,1.231-1.131c.65-.19,1.448-.329,2.116-.538.724-.226,1.527-.527,2.261-.774a4.759,4.759,0,0,1,2.079-.265,3.267,3.267,0,0,1,1.912,1c-1.242.374-3.134.947-5.655,1.742a23.943,23.943,0,0,0,3.912.928,23.092,23.092,0,0,1,3.8.908c1.272.5,1.851,1.076,1.761,1.768-.075.58-.578,1.1-1.461,1.612a6.823,6.823,0,0,1-2.535.886c-.144.01-1.03.2-2.605.536a8.435,8.435,0,0,1-2.6.256,1.923,1.923,0,0,1-1.742-2.11,67.015,67.015,0,0,0,7.686-1.088,11.162,11.162,0,0,0-3.454-1.2c-.473-.089-1.754-.281-3.851-.555C362.678,615.182,361.916,615.138,361.665,615.105Z" fill="#231f20"/><path d="M393.784,615.26a1.565,1.565,0,0,1,1.416,1.205,21.383,21.383,0,0,1,.339,2.369c2.54-1.022,3.909-1.537,4.055-1.576a12.522,12.522,0,0,1,4.18-.754l.374.436a1.946,1.946,0,0,0,.315.709,6.581,6.581,0,0,1,.355.6,6.2,6.2,0,0,1-.011,1.317,11.167,11.167,0,0,1-1.19,3.82,4.139,4.139,0,0,1-2.182,2.3,2.5,2.5,0,0,1,0-.5,13.976,13.976,0,0,1,.759-2.549,14.4,14.4,0,0,0,.811-2.769,1.8,1.8,0,0,0-.314-1.438,1.45,1.45,0,0,0-.942-.445,8.638,8.638,0,0,0-3.718,1.141,13.87,13.87,0,0,0-2.636,2.049,5.132,5.132,0,0,1-2.823,1.435c.071-.581.217-1.294.4-2.085s.309-1.368.35-1.7a6.269,6.269,0,0,0-.053-1.915,5.551,5.551,0,0,0-2.821,1.685c-.691.736-1.351,1.558-2.048,2.31a3.958,3.958,0,0,1-2.472,1.33,20.91,20.91,0,0,0,.062-2.323,18.821,18.821,0,0,1,.093-2.346A2.883,2.883,0,0,1,387.653,615c.142.691.3,1.665.487,2.95.751-.555,1.5-1.116,2.245-1.611a6.024,6.024,0,0,1,2.689-1.084A3.8,3.8,0,0,1,393.784,615.26Z" fill="#231f20"/><path d="M416.938,621.392a13.746,13.746,0,0,1,.122,3.21,4.075,4.075,0,0,1-1.63,3.074,3.491,3.491,0,0,0-2.5-1.789c-.254-.028-.712-.023-1.423-.016-.683.007-1.267-.013-1.732-.052-.192-.016-.595-.07-1.157-.1-.449-.025-.818-.063-1.072-.091a4.862,4.862,0,0,1-2.123-.605,1.991,1.991,0,0,1-.783-1.828,3.148,3.148,0,0,1,1.931-3.118,10.152,10.152,0,0,1,4.028-.418c2.274.1,3.651.152,4.052.111a3.65,3.65,0,0,0-1.235-2.631,7.807,7.807,0,0,0-2.659-1.332c-1-.316-2.056-.621-3.071-.933a9.275,9.275,0,0,1,4.077-.412,6.406,6.406,0,0,1,3.137,1.1,3.9,3.9,0,0,1,1.591,2.752C416.611,619.326,416.8,620.372,416.938,621.392Zm-7.574,2.531a15.585,15.585,0,0,0,4.866-.471,4.241,4.241,0,0,0-3.086-1.883,7.625,7.625,0,0,0-4.8,1.4A8.077,8.077,0,0,0,409.364,623.923Z" fill="#231f20"/><path d="M431.935,642.561a13.655,13.655,0,0,1-1.683-.34c-.806-.2-1.427-.314-1.849-.386-3.5-.446-5.638-1.373-6.429-2.746a4.742,4.742,0,0,1-.615-2.953,7.29,7.29,0,0,1,3.185-5.016c.436-.319,1.079-.784,1.845-1.46a2.775,2.775,0,0,0,1.043-1.461,12.891,12.891,0,0,0-.3-1.74c-.26-1.284-.839-1.965-1.767-2.063a11.835,11.835,0,0,0-1.773.066,15.684,15.684,0,0,1-2.9,0q-2.955-.317-2.768-1.98a3.322,3.322,0,0,1,.618-1.447q1.59-2.394,7.336-2.1c2.594.127,3.232,1.121,2.921,4a7.419,7.419,0,0,0,.376,4.157,1.946,1.946,0,0,0,1.566.808,12.076,12.076,0,0,0,1.422.033,12.372,12.372,0,0,1,1.534.044l.394.041a1.092,1.092,0,0,1,.389.908,2.263,2.263,0,0,1-.283.784c-.215.394-.325.638-.362.72a10.6,10.6,0,0,0-2.173-.755,5.56,5.56,0,0,0-1.084,0,9.966,9.966,0,0,0,1.658,3.168c1.293,1.785,2.01,2.838,2.182,3.107a5.582,5.582,0,0,1,.87,3.365,4.428,4.428,0,0,1-.448,1.525A2.7,2.7,0,0,1,431.935,642.561Zm-9.54-19.852c2.081.221,3.591-.321,4.5-1.627a8.89,8.89,0,0,0-1.8-.413,8.607,8.607,0,0,0-4.983,1.347A5.847,5.847,0,0,0,422.4,622.709Zm2.737,16.571a18.1,18.1,0,0,0,1.852.334c.11.04.7.192,1.75.49a12.3,12.3,0,0,0,2.015.431c1.728.178,2.715-.479,2.837-1.615s-.422-2.537-1.608-4.2c-1.119-1.566-2.1-2.485-2.907-2.709a6.763,6.763,0,0,0-.756-.134c-2.061-.215-3.246,1.23-3.586,4.3a14.928,14.928,0,0,0-.083,1.533C424.639,638.581,424.841,639.184,425.132,639.28Z" fill="#231f20"/><path d="M433.385,624.219a11.55,11.55,0,0,0-.042-2.022,6.474,6.474,0,0,1,.008-1.68,1.654,1.654,0,0,1,.6-1.142,9.5,9.5,0,0,1,1.227-.324,15.373,15.373,0,0,0-.216,2.051c-.035.837-.009,2.24-.008,4.117l-.085.8.352.456-.044.415c-.077.721-.234,1.126-.446,1.244a12.6,12.6,0,0,1-1.389.195,17.578,17.578,0,0,1,0-3.7Zm.734-9.9-.14-.015a.568.568,0,0,0-.193-.048,1.706,1.706,0,0,0-.6.052,7.288,7.288,0,0,1-.228-1.873c.078-.731.116-1.1.193-1.829.33.37.708.744.992,1.081a2.008,2.008,0,0,1,.467,1.478,3.215,3.215,0,0,1-.1.465C434.314,614.089,434.2,614.329,434.119,614.321Z" fill="#231f20"/><path d="M446.3,629.619c-1.536-.148-2.3-.223-3.838-.373-.255-.026-.593-.059-1.076-.079l-1.045-.1a5.5,5.5,0,0,1-2.546-.73,2.51,2.51,0,0,1-.849-2.494,8.729,8.729,0,0,1,2-4.449,11.32,11.32,0,0,1,3.825-3.232c2.75-1.354,5.021-1.946,6.846-1.771,2.107.2,2.817,1.64,2.074,4.285a15.7,15.7,0,0,1-1.661-.158,8.779,8.779,0,0,0,.242-2.441,11.35,11.35,0,0,0-8.636,2.857c-1.853,1.748-2.832,3.19-2.957,4.383a1.724,1.724,0,0,0,.661,1.578,6.093,6.093,0,0,0,3.3,1.167,22.6,22.6,0,0,0,4.893-.2c1.434-.186,2.888-.4,4.356-.564a4.352,4.352,0,0,1-.371,1.728,2.428,2.428,0,0,1-1.536.555A18.027,18.027,0,0,1,446.3,629.619Z" fill="#231f20"/><path d="M454.491,626.285a11.558,11.558,0,0,0-.058-2.021,6.449,6.449,0,0,1-.006-1.68c.123-.59.346-1.043.6-1.148a9.384,9.384,0,0,1,1.225-.333,15.164,15.164,0,0,0-.2,2.052c-.028.836.009,2.239.026,4.117-.032.321-.047.482-.079.8l.356.453-.041.417c-.07.721-.224,1.126-.435,1.246a12.512,12.512,0,0,1-1.389.207,17.505,17.505,0,0,1-.035-3.7Zm.655-9.9-.141-.014a.563.563,0,0,0-.193-.046,1.7,1.7,0,0,0-.6.056,7.239,7.239,0,0,1-.243-1.87c.072-.733.107-1.1.179-1.831.333.367.713.738,1,1.074a2.005,2.005,0,0,1,.481,1.472,3.039,3.039,0,0,1-.1.466C455.338,616.147,455.23,616.388,455.146,616.381Z" fill="#231f20"/><path d="M470.285,626.623a13.714,13.714,0,0,1,.188,3.206,4.076,4.076,0,0,1-1.57,3.108,3.5,3.5,0,0,0-2.548-1.736c-.254-.023-.713-.009-1.427.012-.683.021-1.27.014-1.737-.015-.192-.012-.6-.058-1.163-.078-.45-.016-.822-.045-1.076-.069a4.877,4.877,0,0,1-2.141-.56,1.984,1.984,0,0,1-.823-1.811,3.148,3.148,0,0,1,1.871-3.158,10.212,10.212,0,0,1,4.03-.5c2.283.049,3.664.074,4.065.026a3.642,3.642,0,0,0-1.293-2.605,7.824,7.824,0,0,0-2.693-1.276c-1.011-.3-2.075-.58-3.1-.869a9.338,9.338,0,0,1,4.08-.5,6.446,6.446,0,0,1,3.168,1.037,3.9,3.9,0,0,1,1.653,2.72C469.914,624.564,470.129,625.606,470.285,626.623Zm-7.543,2.687a15.623,15.623,0,0,0,4.869-.572,4.254,4.254,0,0,0-3.133-1.818,7.669,7.669,0,0,0-4.783,1.5A8.129,8.129,0,0,0,462.742,629.31Z" fill="#231f20"/><path d="M475.975,625.379a6.252,6.252,0,0,1,2.447-.659l.46-.381c.155.18.232.271.387.452l.4.033a2.84,2.84,0,0,1,.882.969,5.14,5.14,0,0,1,.6,1.224,9.236,9.236,0,0,1,.389,3.361,4.6,4.6,0,0,1-1.82,3.485,4.3,4.3,0,0,1-.168-1.972c.04-.445.2-1.55.235-2a3.693,3.693,0,0,0-.7-3.051,1.709,1.709,0,0,0-1.09-.539,3.66,3.66,0,0,0-2.458,1.078c-.218.206-1.028.975-2.4,2.284a5.023,5.023,0,0,1-1.984,1.423,36.618,36.618,0,0,1,.785-8.577,7.336,7.336,0,0,1,1.725,3.871C473.929,626.3,474.7,625.971,475.975,625.379Z" fill="#231f20"/></g><path d="M360.315,752.093c-1.941,1.819-3,2.816-3.187,2.949a10.452,10.452,0,0,1-3.378,2.09,3.17,3.17,0,0,1,1.232-3.151c.45-.421,1.163-1.013,2.118-1.755s1.668-1.334,2.1-1.737a11.618,11.618,0,0,0,3.048-4.162c-1.539-.209-2.666-.3-3.339-.326a6.737,6.737,0,0,0-3.095.713,21.6,21.6,0,0,1-.323-2.885,9.049,9.049,0,0,0-.637-2.973,7.83,7.83,0,0,0-1.4,1.084c-.368.346-.942.92-1.682,1.729s-1.273,1.387-1.661,1.751c-1.533,1.437-2.938,1.946-4.192,1.549a9.55,9.55,0,0,1,2.3-3c.388-.366,1.162-1.014,2.324-1.987a30.792,30.792,0,0,0,2.306-2.086,10.742,10.742,0,0,0,1.265-1.723,9.681,9.681,0,0,1,1.2-1.587,2.18,2.18,0,0,1,2.606-.291,7.048,7.048,0,0,0-.923,3.437,4.388,4.388,0,0,0,.867,3.219,3.873,3.873,0,0,0,3.041.951,33.5,33.5,0,0,0,3.782-.512,7.763,7.763,0,0,1,3.194-.076A43.589,43.589,0,0,1,360.315,752.093Z" fill="#231f20"/><path d="M368.456,765.2a14.342,14.342,0,0,1-2,2.532,4.12,4.12,0,0,1-3.233,1.3,3.455,3.455,0,0,0-.716-2.976c-.173-.185-.521-.473-1.061-.927-.521-.432-.924-.822-1.271-1.151-.134-.142-.4-.428-.805-.818-.328-.309-.577-.574-.749-.758a4.735,4.735,0,0,1-1.21-1.823,2.013,2.013,0,0,1,.6-1.9,3.172,3.172,0,0,1,3.486-1.156,10.187,10.187,0,0,1,3.316,2.267c1.654,1.561,2.656,2.465,2.985,2.693a3.737,3.737,0,0,0,.784-2.808,8.214,8.214,0,0,0-1.14-2.733c-.566-.89-1.15-1.8-1.717-2.691a9.064,9.064,0,0,1,3.355,2.309,6.366,6.366,0,0,1,1.651,2.867,3.863,3.863,0,0,1-.6,3.133C369.564,763.433,369.02,764.327,368.456,765.2Zm-7.357-2.933a15.286,15.286,0,0,0,3.973,2.765,4.189,4.189,0,0,0-1.1-3.425,7.444,7.444,0,0,0-4.534-2.008A7.969,7.969,0,0,0,361.1,762.267Z" fill="#231f20"/><path d="M365.567,790.605a12.613,12.613,0,0,1-1.027-1.34c-.474-.67-.854-1.159-1.121-1.483-2.315-2.592-3.3-4.666-2.99-6.222a4.85,4.85,0,0,1,1.473-2.647,7.312,7.312,0,0,1,5.666-1.779c.534.037,1.306.081,2.336.074a2.853,2.853,0,0,0,1.74-.438,12.769,12.769,0,0,0,.92-1.517c.651-1.149.662-2.039.029-2.715a11.313,11.313,0,0,0-1.373-1.094,15.58,15.58,0,0,1-2.178-1.875q-2.013-2.143-.786-3.295a3.343,3.343,0,0,1,1.411-.707c1.84-.536,4.125.509,6.9,3.136,1.864,1.784,1.688,2.948-.437,4.941a7.557,7.557,0,0,0-2.449,3.41,1.914,1.914,0,0,0,.641,1.626,11.592,11.592,0,0,0,1.039.944,12.086,12.086,0,0,1,1.117,1.027l.268.287a1.111,1.111,0,0,1-.307.942,2.242,2.242,0,0,1-.727.412c-.422.164-.663.275-.744.312a10.457,10.457,0,0,0-1.125-1.978,5.536,5.536,0,0,0-.811-.7,10.179,10.179,0,0,0-.845,3.481c-.21,2.193-.369,3.456-.419,3.772A5.71,5.71,0,0,1,370.2,790.3a4.509,4.509,0,0,1-1.336.868A2.647,2.647,0,0,1,365.567,790.605Zm-2.908-6.872c.4.469.78.957,1.161,1.446.056.1.4.587.983,1.5a12.6,12.6,0,0,0,1.216,1.625c1.169,1.246,2.334,1.383,3.171.6s1.359-2.2,1.564-4.23c.2-1.916.065-3.249-.388-3.938a7,7,0,0,0-.476-.589c-1.4-1.493-3.233-1.155-5.5.971a14.226,14.226,0,0,0-1.067,1.116C362.744,782.884,362.53,783.392,362.659,783.733Zm8.808-14.4c1.418,1.512,2.907,2.076,4.446,1.67a8.77,8.77,0,0,0-1.082-1.482,8.423,8.423,0,0,0-4.627-2.191A5.742,5.742,0,0,0,371.467,769.331Z" fill="#231f20"/><path d="M378.833,777.866a11.4,11.4,0,0,0,1.3-1.563,7.282,7.282,0,0,1,1.112-1.273,1.81,1.81,0,0,1,1.2-.476c.37.189.761.361,1.132.552-.285.229-.8.707-1.513,1.418q-.864.982-2.717,3.123l-.593.555-.038.574-.306.287c-.532.5-.915.705-1.151.657a12.646,12.646,0,0,1-1.166-.751,18.155,18.155,0,0,1,2.43-2.815Zm7.064-7.046-.095-.1a.579.579,0,0,0-.114-.162,1.664,1.664,0,0,0-.484-.352,7.3,7.3,0,0,1,1.061-1.571l1.349-1.265c0,.5.008.99.032,1.468a2.155,2.155,0,0,1-.62,1.427,3.521,3.521,0,0,1-.386.285C386.2,770.771,385.955,770.882,385.9,770.82Z" fill="#231f20"/><path d="M384.833,790.29l-2.606-2.781c-.173-.184-.4-.428-.748-.757L380.77,786a5.373,5.373,0,0,1-1.416-2.206,2.548,2.548,0,0,1,1.011-2.444,8.836,8.836,0,0,1,4.427-2.077,11.281,11.281,0,0,1,4.993.042c2.949.769,5.036,1.808,6.281,3.136,1.437,1.533,1.01,3.086-1.3,4.6a15.512,15.512,0,0,1-1.13-1.205,9,9,0,0,0,1.8-1.686,11.076,11.076,0,0,0-8.332-3.48c-2.541.115-4.22.576-5.1,1.4a1.748,1.748,0,0,0-.548,1.628,5.988,5.988,0,0,0,1.686,3.029,23.069,23.069,0,0,0,3.767,3.034c1.2.792,2.406,1.584,3.609,2.416a4.418,4.418,0,0,1-1.422,1.063c-.32.07-.809-.125-1.508-.584A18.032,18.032,0,0,1,384.833,790.29Z" fill="#231f20"/><path d="M393.07,793.056a11.565,11.565,0,0,0,1.3-1.565,7.187,7.187,0,0,1,1.111-1.272,1.792,1.792,0,0,1,1.2-.476c.37.19.761.361,1.132.551-.285.228-.8.708-1.513,1.418q-.864.984-2.717,3.123l-.593.557-.038.573-.307.287c-.531.5-.914.7-1.15.656a12.074,12.074,0,0,1-1.166-.751,18.01,18.01,0,0,1,2.43-2.814Zm7.066-7.047-.1-.1a.543.543,0,0,0-.114-.161,1.64,1.64,0,0,0-.485-.353,7.393,7.393,0,0,1,1.062-1.571l1.349-1.264c0,.5.008.991.032,1.467a2.148,2.148,0,0,1-.62,1.426,3.173,3.173,0,0,1-.386.286C400.434,785.959,400.193,786.069,400.136,786.009Z" fill="#231f20"/><path d="M404.75,803.917a14.414,14.414,0,0,1-2,2.531,4.12,4.12,0,0,1-3.234,1.3,3.461,3.461,0,0,0-.716-2.978c-.173-.183-.521-.472-1.06-.925-.521-.433-.925-.823-1.272-1.151-.134-.143-.4-.429-.805-.819-.327-.308-.577-.573-.749-.757A4.728,4.728,0,0,1,393.7,799.3a2.009,2.009,0,0,1,.6-1.9,3.172,3.172,0,0,1,3.486-1.157,10.178,10.178,0,0,1,3.316,2.268c1.654,1.56,2.656,2.465,2.985,2.693a3.732,3.732,0,0,0,.784-2.808,8.185,8.185,0,0,0-1.14-2.733c-.566-.89-1.15-1.8-1.717-2.691a9.07,9.07,0,0,1,3.355,2.307,6.379,6.379,0,0,1,1.652,2.869,3.865,3.865,0,0,1-.6,3.132C405.857,802.149,405.313,803.044,404.75,803.917Zm-7.358-2.934a15.252,15.252,0,0,0,3.974,2.765,4.191,4.191,0,0,0-1.1-3.425,7.462,7.462,0,0,0-4.534-2.01A7.954,7.954,0,0,0,397.392,800.983Z" fill="#231f20"/><path d="M409.716,806.675a6.065,6.065,0,0,1,2.243,1.123l.594.019-.019.594.268.286a2.534,2.534,0,0,1,0,1.308,4.469,4.469,0,0,1-.38,1.316,9.443,9.443,0,0,1-1.972,2.772,4.651,4.651,0,0,1-3.674,1.406,4.412,4.412,0,0,1,1.2-1.586c.327-.307,1.183-1.033,1.51-1.34a3.764,3.764,0,0,0,1.535-2.744,1.688,1.688,0,0,0-.439-1.124,3.577,3.577,0,0,0-2.53-.815c-.3.01-1.409.053-3.3.132a4.93,4.93,0,0,1-2.41-.238,37.309,37.309,0,0,1,6.316-5.92,7.434,7.434,0,0,1-1.32,4.041C407.6,806.012,408.381,806.274,409.716,806.675Z" fill="#231f20"/><path d="M652.346,797.945a1.9,1.9,0,0,0-1.327-.932,1.948,1.948,0,0,1-1.274-.517,1.466,1.466,0,0,1-.2-.275c-.4-.778-.016-1.95,1.141-3.453a11.808,11.808,0,0,1,2.718-2.776,21.426,21.426,0,0,1,2.452-1.565c1.726-.882,2.922-.7,3.548.524a6.475,6.475,0,0,1,.256.626,4.127,4.127,0,0,1-.3,3,16.281,16.281,0,0,1-1.71,2.892,18.94,18.94,0,0,0-1.615,2.464,3.685,3.685,0,0,0,.2,3.3c.192.376.523.9.969,1.588a14.455,14.455,0,0,1,.942,1.477,2.4,2.4,0,0,1-.191,2.842c-.6-.8-1.309-1.888-2.15-3.226-1.261-2.039-1.987-3.151-2.14-3.39C653.394,799.936,652.946,799.059,652.346,797.945Zm.178-2.867a14.878,14.878,0,0,0,1.65,1.935,12.389,12.389,0,0,0,2.739-3.29,10.5,10.5,0,0,0,1.451-3.959,6.622,6.622,0,0,0-2.836.627,8.154,8.154,0,0,0-2.322,2C652.36,793.4,652.128,794.3,652.524,795.078Z" fill="#231f20"/><path d="M663.514,789.6a24.243,24.243,0,0,0,3.634,4.96,6.832,6.832,0,0,1,3.062-3.832,3.167,3.167,0,0,1,3.574.448,8.743,8.743,0,0,1,2.588,3.034c.958,1.877.654,3.2-.873,3.979a18.837,18.837,0,0,1-.693-1.854,17.384,17.384,0,0,0-.809-2.081c-.766-1.5-1.826-2.034-3.168-1.571a2.752,2.752,0,0,0-1.668,1.987,6.268,6.268,0,0,0-.13,2.653c.206.715.389,1.443.6,2.157a2.025,2.025,0,0,1-.941,1.743,48.486,48.486,0,0,1-5.235-8.468,12.713,12.713,0,0,1-.378-1.669,8.536,8.536,0,0,0-.345-.8,15.072,15.072,0,0,0-1.527-2.25,18.279,18.279,0,0,1-1.488-2.238,7.418,7.418,0,0,1-.579-1.5c-.272.518-.2.668.256.438a2.219,2.219,0,0,0,.65-.458A41.872,41.872,0,0,1,663.514,789.6Z" fill="#231f20"/><path d="M679.351,785.58a8.886,8.886,0,0,1,2.009-.268,8.15,8.15,0,0,0,.87,3.5,13.881,13.881,0,0,0,1.781,2.563,10.641,10.641,0,0,1,2.036-1.638,5.927,5.927,0,0,1,1.077-.424,3.945,3.945,0,0,1,.27,2.324,5.691,5.691,0,0,1-1.355,1.922c1.581,1.181,3.149,2.4,4.743,3.607a13.809,13.809,0,0,1,3.97,4.381,7.707,7.707,0,0,1,.786,2.469c.241,1.834-.265,3.069-1.491,3.7-1.577.8-4.093.637-7.533-.481a17.268,17.268,0,0,0-3.4-.6,12.31,12.31,0,0,1-3.236-.653,6.128,6.128,0,0,1-3.553-2.636c-.575-1.127-.347-2.411.736-3.815.361-.468,1.209-1.4,2.554-2.786a15.671,15.671,0,0,0,2.377-2.947c.422-.721.569-1.174.481-1.35-.051-.1-.229-.2-.519-.336a11,11,0,0,1-1.085-.518,7.321,7.321,0,0,1-2.093,2.329,1.676,1.676,0,0,1-2.155-.636,5.133,5.133,0,0,1-.737-1.075,5.208,5.208,0,0,1-.408-3.894,9.908,9.908,0,0,1,1.383,1.724c.662.988,1.145,1.625,1.4,1.938a5.463,5.463,0,0,0,1.367-1.959,4.172,4.172,0,0,0-.283-2.287C678.919,786.526,678.925,785.8,679.351,785.58Zm-1.807,17.612a3.273,3.273,0,0,0,1.582,1.308,19.232,19.232,0,0,0,4.812,1.331c.617.1,2.278.321,4.97.651a6.384,6.384,0,0,0,3.655-.444c1.427-.727,1.694-1.936.813-3.664-.115-.226-.268-.463-.434-.726a11.272,11.272,0,0,0-2.068-2.321l-2.391-1.9c-.695-.56-1.353-1.109-2.024-1.681a5.426,5.426,0,0,0-2.247-1.252,1.547,1.547,0,0,0-.98.185,7.242,7.242,0,0,0-2.169,2.242c-1.031,1.44-1.641,2.226-1.828,2.415C677.6,800.892,677.021,802.166,677.544,803.192Z" fill="#231f20"/><path d="M688.4,786.121a1.542,1.542,0,0,1-1.773-.074,1.726,1.726,0,0,1-.533-.611c-.231-.452-.1-.994.364-1.638.485-.532.959-1.089,1.433-1.646.459-.644.957-1.277,1.417-1.922a4.925,4.925,0,0,1,1.559-1.394,3.243,3.243,0,0,1,2.149-.244c-.81,1.012-2.042,2.555-3.658,4.642A23.9,23.9,0,0,0,693.1,781.8a22.773,22.773,0,0,1,3.647-1.388c1.33-.3,2.136-.142,2.454.484a2.484,2.484,0,0,1-.283,2.164,6.634,6.634,0,0,1-1.579,2.162c-.112.089-.724.748-1.833,1.913a8.243,8.243,0,0,1-1.984,1.676,1.934,1.934,0,0,1-2.634-.772,67.662,67.662,0,0,0,5.689-5.237,10.958,10.958,0,0,0-3.524.946c-.439.193-1.6.755-3.481,1.712C689.271,785.61,688.62,786.006,688.4,786.121Z" fill="#231f20"/><path d="M696.783,771.461l-.125.063a.56.56,0,0,0-.188.065,1.665,1.665,0,0,0-.475.368,7.394,7.394,0,0,1-1.218-1.461l-.842-1.652c.478.135.957.269,1.423.379a2.151,2.151,0,0,1,1.2,1,3.132,3.132,0,0,1,.168.45C696.819,771.159,696.858,771.422,696.783,771.461Zm4.822,8.772a11.409,11.409,0,0,0-1.145-1.687,7.24,7.24,0,0,1-.916-1.426,1.8,1.8,0,0,1-.123-1.293c.286-.3.56-.633.847-.937.141.339.46.964.945,1.852q.707,1.107,2.253,3.489l.371.726.542.2.191.375c.332.652.423,1.078.312,1.293a12.445,12.445,0,0,1-1.049.914,18.1,18.1,0,0,1-2.035-3.127Z" fill="#231f20"/><path d="M715.224,777.926l-3.405,1.736c-.225.115-.526.269-.939.511l-.926.473a5.415,5.415,0,0,1-2.52.749,2.56,2.56,0,0,1-2.076-1.656,8.88,8.88,0,0,1-.767-4.846,11.3,11.3,0,0,1,1.431-4.8c1.563-2.627,3.146-4.35,4.774-5.18,1.878-.958,3.254-.114,4.067,2.532a15.713,15.713,0,0,1-1.476.753,9.09,9.09,0,0,0-1.124-2.2,11.12,11.12,0,0,0-5.676,7.061c-.6,2.48-.619,4.228-.07,5.305a1.753,1.753,0,0,0,1.416.982,6,6,0,0,0,3.387-.781,23.138,23.138,0,0,0,3.975-2.786c1.1-.939,2.2-1.878,3.334-2.8a4.416,4.416,0,0,1,.629,1.667c-.023.327-.346.744-.983,1.29A18.125,18.125,0,0,1,715.224,777.926Z" fill="#231f20"/><path d="M715.356,761.987l-.125.064a.547.547,0,0,0-.187.064,1.684,1.684,0,0,0-.475.368,7.259,7.259,0,0,1-1.218-1.46l-.844-1.653c.479.135.958.269,1.424.378a2.161,2.161,0,0,1,1.2,1,3.279,3.279,0,0,1,.166.451C715.392,761.686,715.432,761.949,715.356,761.987Zm4.823,8.773a11.462,11.462,0,0,0-1.145-1.688,7.161,7.161,0,0,1-.917-1.426,1.8,1.8,0,0,1-.123-1.292c.286-.305.56-.633.847-.938.14.338.461.964.945,1.854q.707,1.105,2.253,3.488l.37.725.542.2.192.375c.332.651.423,1.078.312,1.293a12.555,12.555,0,0,1-1.049.913,18.016,18.016,0,0,1-2.036-3.126Z" fill="#231f20"/><path d="M724.765,767.569a1.54,1.54,0,0,1-1.774-.074,1.706,1.706,0,0,1-.532-.611c-.23-.451-.1-.993.364-1.638.487-.531.959-1.089,1.432-1.644.46-.646.958-1.278,1.418-1.923a4.911,4.911,0,0,1,1.56-1.395,3.244,3.244,0,0,1,2.148-.244c-.81,1.013-2.042,2.556-3.659,4.643a23.859,23.859,0,0,0,3.747-1.438,23.073,23.073,0,0,1,3.647-1.388c1.33-.3,2.135-.142,2.455.484a2.488,2.488,0,0,1-.285,2.165,6.611,6.611,0,0,1-1.579,2.161c-.112.089-.723.748-1.832,1.913a8.173,8.173,0,0,1-1.985,1.676,1.933,1.933,0,0,1-2.633-.772,67.84,67.84,0,0,0,5.689-5.236,11.012,11.012,0,0,0-3.524.945c-.439.193-1.6.755-3.481,1.713C725.641,767.059,724.99,767.454,724.765,767.569Z" fill="#231f20"/><path d="M735.306,750.014a17.784,17.784,0,0,0-.918-1.551c-.446-.689-.727-1.177-.88-1.477a2.549,2.549,0,0,1,.052-2.992,37.192,37.192,0,0,1,2.815,4.591c.548,1.014,1.168,1.486,1.783,1.394.552-.219,1.077-.424,1.616-.6.653-.145,1.235.254,1.783,1.205-1.239.727-1.95,1.5-2.08,2.291a7.77,7.77,0,0,0,.844,3.45,11.042,11.042,0,0,0,1.3,2.177,21.783,21.783,0,0,1,1.337,2.064,2.9,2.9,0,0,1-.2,3.32,15.2,15.2,0,0,1-1.719-2.69c-.267-.525-.65-1.338-1.125-2.454s-.845-1.9-1.113-2.429a13.5,13.5,0,0,0-1.643-2.539,10.035,10.035,0,0,0-1.584,1.408,5.946,5.946,0,0,1-1.261,1.116c-.576.294-1.181.1-1.778-.64.787-.747,1.56-1.457,2.346-2.205a2.525,2.525,0,0,0,.77-2.634A8.071,8.071,0,0,0,735.306,750.014Z" fill="#231f20"/><path d="M362.946,958.78c1.516-1.724,2.868-3.357,4.057-4.873h-3.917a29.078,29.078,0,0,0-4.663.257,4.815,4.815,0,0,0-2.122.933l.4-2.192,1.562.047h7.9l3.637-.023.932-.024-.606.7c-5.758,6.249-9.349,10.352-11.424,13.034l3.823.093,1.656.024a20.235,20.235,0,0,0,4.686-.4,4.207,4.207,0,0,0,2.192-1.259l-.49,2.5H354.926Q360.836,961.194,362.946,958.78Z" fill="#231f20"/><path d="M385.169,965.448a5.428,5.428,0,0,1-2.332,1.8,8.409,8.409,0,0,1-3.334.63,6.079,6.079,0,0,1-4.149-1.189A4.594,4.594,0,0,1,374,962.978v-1.586l.023-1.12a57.382,57.382,0,0,0-.163-5.805,2.728,2.728,0,0,0-.536-1.515h3.707c-.28.209-.467.769-.559,1.7q-.141,1.434-.14,6.226c0,2.331.326,3.87.956,4.616a4.012,4.012,0,0,0,3.264,1.143,3.917,3.917,0,0,0,3.45-1.422c.677-.933,1-2.588,1-4.944q0-4.511-.14-5.735a2.545,2.545,0,0,0-.536-1.585h3.707a2.712,2.712,0,0,0-.559,1.562c-.024.42-.071,1.142-.094,2.145s-.047,2.215-.047,3.613.024,2.472.047,3.218.047,1.585.094,2.541a2.952,2.952,0,0,0,.559,1.563h-2.961Z" fill="#231f20"/><path d="M393.123,962.068a20.942,20.942,0,0,0,.233,3.731,3.976,3.976,0,0,0,.653,1.8h-3.148a4.952,4.952,0,0,0,.77-2.541,54.58,54.58,0,0,0,.256-6.132,24.5,24.5,0,0,0-.256-4.57,1.739,1.739,0,0,0-.77-1.4h2.845c.489,0,1.072.4,1.7,1.189l.373.489,2.378,3.008c2.5,3.194,4.477,5.642,5.969,7.368l.023-6.412c0-.933-.023-1.772-.047-2.494s-.07-1.26-.116-1.656a2.665,2.665,0,0,0-.536-1.492h2.564a.987.987,0,0,0-.326.559,4.471,4.471,0,0,0-.233,1.1q0,.21-.07,2.029c-.047,1.212-.07,2.354-.07,3.45v7.578h-1.749c-.63-.84-2.122-2.705-4.523-5.573l-6.016-7.414Z" fill="#231f20"/><path d="M412.082,953.208c.093.14.186.28.279.443a1.867,1.867,0,0,1,.233.886,2.244,2.244,0,0,1-.559,1.4,4.925,4.925,0,0,1-1.609,1.119l.257-.607a2.087,2.087,0,0,0,.116-.559,2.506,2.506,0,0,0-.047-.4c-.046-.139-.116-.3-.186-.467a2.826,2.826,0,0,0-.3-.489c-.14-.163-.3-.373-.49-.583l1.866-1.282C411.825,952.882,411.965,953.068,412.082,953.208Z" fill="#231f20"/><path d="M416.652,966.567a2.712,2.712,0,0,0,.956.351,4.525,4.525,0,0,0,1.143.14,3.006,3.006,0,0,0,1.865-.56,1.64,1.64,0,0,0,.746-1.376,1.677,1.677,0,0,0-.489-1.143,8.842,8.842,0,0,0-2.1-1.211,7.456,7.456,0,0,1-2.308-1.446,2.214,2.214,0,0,1-.7-1.609,2.164,2.164,0,0,1,1.1-1.889,5.646,5.646,0,0,1,3.055-.7h.513a6.569,6.569,0,0,1,.7.07c.35.046.653.07.909.093.187.024.443.07.793.141l-.07,1.934a3.433,3.433,0,0,0-1.212-1.119,3.693,3.693,0,0,0-1.656-.349,2.673,2.673,0,0,0-1.492.4,1.181,1.181,0,0,0-.583,1.049c0,.722.91,1.539,2.728,2.425l.257.14a7.207,7.207,0,0,1,2.168,1.375,1.9,1.9,0,0,1,.559,1.4,2.673,2.673,0,0,1-1.422,2.238,6.2,6.2,0,0,1-3.474.956,7.936,7.936,0,0,1-2.448-.3c-.653-.186-.979-.442-.979-.746l.023-.63a5.635,5.635,0,0,1,.14-1.119A3.354,3.354,0,0,0,416.652,966.567Z" fill="#231f20"/><path d="M434.911,954.327l-.07,9.98v.722a10.016,10.016,0,0,0,.117,1.585,2.444,2.444,0,0,0,.536.98h-3.1c.49-.373.863-1.609,1.073-3.707a83.92,83.92,0,0,0,.373-9.35,2.818,2.818,0,0,0-.14-.933,2.447,2.447,0,0,0-.536-.652h3.03a1.636,1.636,0,0,1,.467.046,1.2,1.2,0,0,1,.256.373l4.92,11.028,5.433-10.934.326-.42a1.5,1.5,0,0,1,.606-.093h2.611a3.225,3.225,0,0,0-.489,1.189,14.892,14.892,0,0,0-.14,2.378,75.774,75.774,0,0,0,.279,8.114,5.566,5.566,0,0,0,1,2.961h-4.01a3.967,3.967,0,0,0,.56-1.212c.046-.28.092-.63.139-1.073.024-.419.047-.77.047-1.026l-.047-.139-.047-1.843-.139-7.974L441.16,967.92Z" fill="#231f20"/><path d="M461.658,967.733l-.116-.023v-.187l-.094-1.678a4.156,4.156,0,0,1-1.562,1.492,4.364,4.364,0,0,1-2.075.537,4.32,4.32,0,0,1-1.865-.4,2.792,2.792,0,0,1-1.236-1.074,4.165,4.165,0,0,1-.443-1.212,18.228,18.228,0,0,1-.117-2.332v-.442l.047-3.754v-.4a.9.9,0,0,0-.14-.56.708.708,0,0,0-.419-.326l1.771-.234h.117l.07-.023a.679.679,0,0,1,.443.116,1.329,1.329,0,0,1,.116.677l-.046,5.315v.141a3.787,3.787,0,0,0,.583,2.378,2.968,2.968,0,0,0,4.057-.163,5.9,5.9,0,0,0,.629-3.241v-2.635a6.771,6.771,0,0,0-.14-1.655.913.913,0,0,0-.4-.676l2.658-.257c-.023.3-.07.677-.093,1.119s-.047.933-.047,1.445l-.023,3.662v1.282c0,.583,0,1.025.023,1.329a3.354,3.354,0,0,0,.117.793,1.321,1.321,0,0,0,.442.839l-2.121.139Z" fill="#231f20"/><path d="M467.14,966.567a2.7,2.7,0,0,0,.956.351,4.517,4.517,0,0,0,1.142.14,3.009,3.009,0,0,0,1.866-.56,1.64,1.64,0,0,0,.746-1.376,1.678,1.678,0,0,0-.49-1.143,8.842,8.842,0,0,0-2.1-1.211,7.469,7.469,0,0,1-2.308-1.446,2.214,2.214,0,0,1-.7-1.609,2.163,2.163,0,0,1,1.1-1.889,5.64,5.64,0,0,1,3.054-.7h.513a6.545,6.545,0,0,1,.7.07c.35.046.653.07.909.093.187.024.444.07.793.141l-.07,1.934a3.433,3.433,0,0,0-1.212-1.119,3.69,3.69,0,0,0-1.656-.349,2.676,2.676,0,0,0-1.492.4,1.18,1.18,0,0,0-.582,1.049c0,.722.909,1.539,2.727,2.425l.257.14a7.207,7.207,0,0,1,2.168,1.375,1.9,1.9,0,0,1,.56,1.4,2.676,2.676,0,0,1-1.422,2.238,6.2,6.2,0,0,1-3.474.956,7.943,7.943,0,0,1-2.449-.3c-.652-.186-.979-.442-.979-.746l.023-.63a5.635,5.635,0,0,1,.14-1.119A3.35,3.35,0,0,0,467.14,966.567Z" fill="#231f20"/><path d="M475.861,954.28l2.028-1.072,1.143,1.563-1.982,1.048Zm.653,12.544a10.684,10.684,0,0,0,.139-2.144v-3.451a19.8,19.8,0,0,0-.139-2.985c-.094-.489-.234-.769-.42-.862l1.422-.07,1.236-.164c-.023.164-.047.444-.07.817s-.047.746-.047,1.119l-.023,4.336v1.306a11.771,11.771,0,0,0,.117,2.075,1.063,1.063,0,0,0,.443.793h-3.1A1.242,1.242,0,0,0,476.514,966.824Z" fill="#231f20"/><path d="M486.843,967.874a5.784,5.784,0,0,1-3.987-1.446,4.738,4.738,0,0,1-1.608-3.707,5.069,5.069,0,0,1,1.818-4.033,6.771,6.771,0,0,1,4.64-1.563l1.4.07,1.236.21-.093,2.4a3.09,3.09,0,0,0-1.05-1.423,2.809,2.809,0,0,0-1.632-.466,3.77,3.77,0,0,0-2.938,1.306,4.826,4.826,0,0,0-1.142,3.334,3.9,3.9,0,0,0,1.142,2.89,3.847,3.847,0,0,0,2.892,1.166,5.039,5.039,0,0,0,1.888-.349,3.357,3.357,0,0,0,1.4-.933C490.807,966.918,489.245,967.874,486.843,967.874Z" fill="#231f20"/><path d="M512.7,956.076A3.832,3.832,0,0,0,511.1,954.3a5.035,5.035,0,0,0-2.565-.629,6.3,6.3,0,0,0-4.593,1.608,6.056,6.056,0,0,0-1.656,4.477A6.129,6.129,0,0,0,504.1,964.4a6.659,6.659,0,0,0,4.873,1.773,8.236,8.236,0,0,0,1.4-.094,6.318,6.318,0,0,0,1.282-.373,5.7,5.7,0,0,0,2.192-1.329,4.2,4.2,0,0,1-2.121,2.519,7.817,7.817,0,0,1-4.011.979,8.243,8.243,0,0,1-5.829-2.1,6.929,6.929,0,0,1-2.285-5.362,7.06,7.06,0,0,1,2.449-5.689,10.2,10.2,0,0,1,6.784-2.052c.42,0,1.072.047,1.981.14s1.61.14,2.053.14Z" fill="#231f20"/><path d="M525.623,958.407a4.489,4.489,0,0,1,1.423,3.521,5.549,5.549,0,0,1-5.969,5.946c-3.52,0-5.572-1.889-5.572-5.153a5.178,5.178,0,0,1,1.7-4.057,6.284,6.284,0,0,1,4.383-1.539A5.82,5.82,0,0,1,525.623,958.407Zm-7.041.654a3.929,3.929,0,0,0-.652,1.329,6.2,6.2,0,0,0-.257,1.818c0,2.914,1.539,4.8,3.987,4.8a2.773,2.773,0,0,0,2.4-1.143,5.849,5.849,0,0,0,.815-3.357,4.753,4.753,0,0,0-1.072-3.264,3.219,3.219,0,0,0-2.682-1.282A3.131,3.131,0,0,0,518.582,959.061Z" fill="#231f20"/><path d="M529.566,966.685a16.736,16.736,0,0,0,.14-2.659l-.023-1.958v-5.876a24.16,24.16,0,0,0-.14-3.263c-.094-.537-.233-.864-.443-.956l2.681-.4c-.023.116-.047.583-.07,1.445s-.046,1.423-.046,1.726l-.023,8.113v1.82c0,.512,0,.956.023,1.305a5.211,5.211,0,0,0,.093.816,1.066,1.066,0,0,0,.443.793h-3.1A1.477,1.477,0,0,0,529.566,966.685Z" fill="#231f20"/><path d="M535.162,966.685a16.736,16.736,0,0,0,.14-2.659l-.024-1.958v-5.876a24.39,24.39,0,0,0-.139-3.263c-.094-.537-.234-.864-.444-.956l2.682-.4c-.023.116-.047.583-.07,1.445s-.046,1.423-.046,1.726l-.024,8.113v1.82c0,.512,0,.956.024,1.305a5.092,5.092,0,0,0,.093.816,1.063,1.063,0,0,0,.443.793h-3.1A1.471,1.471,0,0,0,535.162,966.685Z" fill="#231f20"/><path d="M549.549,965.379c0,.606-.444,1.166-1.329,1.7a5.8,5.8,0,0,1-3.008.793,5.3,5.3,0,0,1-3.87-1.446,5.166,5.166,0,0,1-1.469-3.894,5.238,5.238,0,0,1,1.538-3.964,5.7,5.7,0,0,1,4.081-1.445c2.541,0,4.243,1.235,4.243,3.008,0,.373-.233.606-.722.722a25.8,25.8,0,0,1-4.1.187l-1.562-.023L542.3,961a2.712,2.712,0,0,0-.163.63l-.047.676c0,2.518,1.469,4.127,3.986,4.127a5.168,5.168,0,0,0,1.842-.3,6.419,6.419,0,0,0,1.633-1.026Zm-6.856-5.06.654.024,1.166.023h.373a10.128,10.128,0,0,0,2.191-.14.631.631,0,0,0,.42-.629,1.491,1.491,0,0,0-.653-1.19,2.446,2.446,0,0,0-1.585-.512,2.81,2.81,0,0,0-1.842.675,2.76,2.76,0,0,0-.979,1.749Z" fill="#231f20"/><path d="M557.035,967.874a5.78,5.78,0,0,1-3.987-1.446,4.739,4.739,0,0,1-1.609-3.707,5.067,5.067,0,0,1,1.819-4.033,6.77,6.77,0,0,1,4.639-1.563l1.4.07,1.235.21-.094,2.4a3.073,3.073,0,0,0-1.048-1.423,2.814,2.814,0,0,0-1.632-.466,3.767,3.767,0,0,0-2.938,1.306,4.826,4.826,0,0,0-1.142,3.334,3.9,3.9,0,0,0,1.142,2.89,3.842,3.842,0,0,0,2.891,1.166,5.044,5.044,0,0,0,1.889-.349,3.354,3.354,0,0,0,1.4-.933C561,966.918,559.437,967.874,557.035,967.874Z" fill="#231f20"/><path d="M562.353,958.2v-.722l1.329-.093.07-2.845,1.981-.489-.092,3.334h2.191l.187.023.046.116c0,.187-.186.35-.559.513a5.693,5.693,0,0,1-1.655.163h-.21l-.141,6.016v.163c0,1.492.42,2.145,1.376,2.145a1.815,1.815,0,0,0,.816-.163,3.188,3.188,0,0,0,.816-.537l-.093,1.027a3.225,3.225,0,0,1-1.166.746,3.691,3.691,0,0,1-1.422.28c-1.515,0-2.308-1.026-2.308-2.868v-.21l.139-6.552Z" fill="#231f20"/><path d="M570.119,954.28l2.028-1.072,1.142,1.563-1.981,1.048Zm.652,12.544a10.584,10.584,0,0,0,.14-2.144v-3.451a19.613,19.613,0,0,0-.14-2.985c-.093-.489-.233-.769-.419-.862l1.422-.07,1.236-.164c-.024.164-.047.444-.071.817s-.045.746-.045,1.119l-.024,4.336v1.306a11.808,11.808,0,0,0,.116,2.075,1.067,1.067,0,0,0,.444.793h-3.1A1.233,1.233,0,0,0,570.771,966.824Z" fill="#231f20"/><path d="M585.624,958.407a4.489,4.489,0,0,1,1.423,3.521,5.549,5.549,0,0,1-5.969,5.946c-3.52,0-5.572-1.889-5.572-5.153a5.181,5.181,0,0,1,1.7-4.057,6.288,6.288,0,0,1,4.384-1.539A5.822,5.822,0,0,1,585.624,958.407Zm-7.041.654a3.929,3.929,0,0,0-.652,1.329,6.229,6.229,0,0,0-.257,1.818c0,2.914,1.539,4.8,3.987,4.8a2.77,2.77,0,0,0,2.4-1.143,5.841,5.841,0,0,0,.816-3.357,4.753,4.753,0,0,0-1.072-3.264,3.218,3.218,0,0,0-2.681-1.282A3.132,3.132,0,0,0,578.583,959.061Z" fill="#231f20"/><path d="M589.544,966.824a10.661,10.661,0,0,0,.14-2.144v-2.892a22.376,22.376,0,0,0-.14-3.218,1.464,1.464,0,0,0-.443-.956l2.5-.232.07.536.069.606v.3a5.4,5.4,0,0,1,1.7-1.306,5.557,5.557,0,0,1,2.122-.4,2.717,2.717,0,0,1,2.378.956c.443.652.675,2.052.675,4.22v2.984a7.912,7.912,0,0,0,.117,1.586,1.109,1.109,0,0,0,.443.723h-2.634l.093-2.612.023-3.077v-.56a3.741,3.741,0,0,0-.512-2.424,2.528,2.528,0,0,0-1.82-.514,2.7,2.7,0,0,0-2.075.677c-.4.466-.605,1.608-.605,3.4v2.193a13.409,13.409,0,0,0,.116,2.168,1.139,1.139,0,0,0,.443.746h-3.1A1.233,1.233,0,0,0,589.544,966.824Z" fill="#231f20"/><path d="M608.922,960.2c-.817-1.8-1.4-2.7-1.749-2.774l2-.188h.233c.4,0,1.1,1.423,2.075,4.268l1.632,4.546c.77-1.795,1.423-3.451,2.006-4.966.21-.723.4-1.329.536-1.8a4.624,4.624,0,0,0,.163-1.073l-.07-.419-.187-.42h2.845a11.9,11.9,0,0,0-1.958,3.287c-.933,1.912-1.959,4.267-3.055,7.041h-1.609A79.122,79.122,0,0,0,608.922,960.2Z" fill="#231f20"/><path d="M628.882,958.407a4.489,4.489,0,0,1,1.423,3.521,5.55,5.55,0,0,1-5.969,5.946c-3.521,0-5.572-1.889-5.572-5.153a5.181,5.181,0,0,1,1.7-4.057,6.287,6.287,0,0,1,4.384-1.539A5.822,5.822,0,0,1,628.882,958.407Zm-7.041.654a3.948,3.948,0,0,0-.653,1.329,6.23,6.23,0,0,0-.256,1.818c0,2.914,1.539,4.8,3.987,4.8a2.77,2.77,0,0,0,2.4-1.143,5.849,5.849,0,0,0,.816-3.357,4.748,4.748,0,0,0-1.073-3.264,3.214,3.214,0,0,0-2.68-1.282A3.132,3.132,0,0,0,621.841,959.061Z" fill="#231f20"/><path d="M632.825,966.685a16.736,16.736,0,0,0,.14-2.659l-.024-1.958v-5.876a24.39,24.39,0,0,0-.139-3.263c-.093-.537-.234-.864-.444-.956l2.682-.4c-.023.116-.047.583-.07,1.445s-.046,1.423-.046,1.726l-.024,8.113v1.82c0,.512,0,.956.024,1.305a5.211,5.211,0,0,0,.093.816,1.066,1.066,0,0,0,.443.793h-3.1A1.466,1.466,0,0,0,632.825,966.685Z" fill="#231f20"/><path d="M638.49,966.382l2.193-1.119,1.375,1.468-2.076,1.143Z" fill="#231f20"/><path d="M649.848,953l2.1.023h.956a8.981,8.981,0,0,0,1.516-.092,2.456,2.456,0,0,0,1.282-.257l-.163.723-.419.862a6.6,6.6,0,0,1-1.26.164l-2.285.023-1.818-.023-1.025-.024-.583,2.728a17.59,17.59,0,0,1,5.246,2.937,4.429,4.429,0,0,1,1.655,3.265,4.092,4.092,0,0,1-1.539,3.194,5.578,5.578,0,0,1-3.847,1.353,5.449,5.449,0,0,1-2.984-.653,2.151,2.151,0,0,1-1.027-1.912,9.786,9.786,0,0,0,.84.536,3.362,3.362,0,0,0,.839.373,5.135,5.135,0,0,0,1.819.3,3.715,3.715,0,0,0,2.5-.885,3.132,3.132,0,0,0,.932-2.356c0-2.028-1.771-3.567-5.805-5.036l1.142-5.292Z" fill="#231f20"/><g id="_" data-name=""><path d="M938.662,906.837a1.327,1.327,0,0,1,.817.254.778.778,0,0,1,.356.714l-.063,2.308h3.2a3.831,3.831,0,0,1,1,.084c.154.08.231.255.231.527a1.44,1.44,0,0,1-.2.747.663.663,0,0,1-.54.271c-.175,0-.535-.016-1.08-.051q-.772-.015-1.4-.016c-.33,0-.756.006-1.282.016L939.6,915a54.424,54.424,0,0,1,6.4.729,3.49,3.49,0,0,1-.463,1.545.793.793,0,0,1-.664.493,4.945,4.945,0,0,1-1.189-.255,19.568,19.568,0,0,0-5.215-.746,15.253,15.253,0,0,0-5.093.814,3.385,3.385,0,0,1-1.034.255.816.816,0,0,1-.586-.323.913.913,0,0,1-.278-.611.978.978,0,0,1,.741-1.087,20.156,20.156,0,0,1,5.494-.814l-.063-7.2a.876.876,0,0,1,.279-.68A.9.9,0,0,1,938.662,906.837Z" fill="#231f20"/><path d="M932.118,928.354l2.593.067c.288.091.433.232.433.425,0,.294-.294.559-.88.8a17.372,17.372,0,0,1-2.1.627.812.812,0,0,1-.478-.271.769.769,0,0,1-.248-.543,1.658,1.658,0,0,1,.2-.765Q931.872,928.354,932.118,928.354Zm1.111-4.415q.4,0,1.143.764,1.188,1.206,1.188,1.478a.371.371,0,0,1-.416.423,2.226,2.226,0,0,1-.618-.118,7.609,7.609,0,0,0-1.466-.2q-.773-.084-.772-1.239a1.158,1.158,0,0,1,.293-.78A.941.941,0,0,1,933.229,923.939Zm1.1,7.691a.229.229,0,0,1,.263.254q0,.306-.232,2.326a.73.73,0,0,1-.834.729,1.112,1.112,0,0,1-.724-.237,1.03,1.03,0,0,1-.309-.764,1.152,1.152,0,0,1,.232-.543l1.265-1.544C934.119,931.7,934.232,931.63,934.325,931.63Zm3.72-4.771a.993.993,0,0,1,.6.17.212.212,0,0,1,.078.051q1-.068,2.577-.067,2.5,0,3.163.084c.206.023.308.108.308.255a2.083,2.083,0,0,1-.123.374,11.376,11.376,0,0,0-.462,1.952c.606.045,1.25.1,1.928.169a2.731,2.731,0,0,1-.354,1.273c-.175.295-.361.442-.556.442a3.04,3.04,0,0,1-.91-.238q-.2-.051-.387-.1-.045.255-.077.526c-.03.182-.066.356-.107.526.472.035.9.063,1.28.085.175.035.263.1.263.2a1.291,1.291,0,0,1-.2.748.652.652,0,0,1-.54.288q-.277,0-1.127-.069a3.9,3.9,0,0,1-.494,1.071q-.37.627-.848.628a1.324,1.324,0,0,1-1.126-.816,2.772,2.772,0,0,0,.694-.984q-1.575-.051-3.827-.051a3.065,3.065,0,0,0-1.173.17,1.1,1.1,0,0,1-.386.119.589.589,0,0,1-.432-.188.488.488,0,0,1-.185-.423,1.954,1.954,0,0,1,.154-.561c.144-.441.287-.888.432-1.341-.134.034-.263.063-.386.085a3.743,3.743,0,0,1-.941.187.5.5,0,0,1-.37-.238.54.54,0,0,1-.186-.374.616.616,0,0,1,.494-.678,14.226,14.226,0,0,1,1.836-.391q.357-1.154.71-2.393A.621.621,0,0,1,938.045,926.859Zm-.387-3.106a2.2,2.2,0,0,1,1,.2.58.58,0,0,1,.293.475,1.134,1.134,0,0,1-.108.424q1.018-.1,2.794-.1a41.783,41.783,0,0,1,4.181.152,2.7,2.7,0,0,1-.277,1.2.436.436,0,0,1-.4.289q-.325,0-1.328-.068-1.605-.153-2.654-.152a20.612,20.612,0,0,0-2.47.135,6.288,6.288,0,0,1-.833.085.249.249,0,0,1-.092-.017.716.716,0,0,0-.123.136,2.982,2.982,0,0,1-1.96,1.239c-.279,0-.417-.1-.417-.288a.62.62,0,0,1,.2-.357,8.844,8.844,0,0,0,1.388-1.765,2.227,2.227,0,0,0,.386-1.053.991.991,0,0,0-.2-.492A2.98,2.98,0,0,1,937.658,923.753Zm1.513,8.42.308-1.409c-.544.022-1.07.062-1.574.119l-.37,1.221c0,.046.129.069.386.069Zm-.88-2.58c.453-.034.941-.057,1.467-.069l.293-1.29q-.756.018-1.374.051Zm3.735,2.631a.141.141,0,0,0,.015-.051l.34-1.274a12.324,12.324,0,0,0-1.667-.152l-.309,1.442Q941.269,932.189,942.026,932.224Zm-.741-3.99-.308,1.29c.535,0,1.111.018,1.728.051a7.579,7.579,0,0,0,.2-1.154Q942.905,928.253,941.285,928.234Z" fill="#231f20"/><path d="M944.665,953.044H932.8V939.923h11.867Z" fill="#231f20"/><path d="M922.056,911.369a12.143,12.143,0,0,1-.155,2.309,3.732,3.732,0,0,1-.971,1.867,5.441,5.441,0,0,1-2.33,1.545,5.091,5.091,0,0,1-1.776.373q-1.279,0-1.28-1.069a2.846,2.846,0,0,1,1.064-2.411q.14.612.926.612a2.056,2.056,0,0,0,2.161-1.46,4.282,4.282,0,0,0,.2-1.07V911.3q0-.865.957-.865a1.831,1.831,0,0,1,.848.135A.84.84,0,0,1,922.056,911.369Zm5.632-2.359a.9.9,0,0,1-.324.7,7.32,7.32,0,0,0-.663.492,1.6,1.6,0,0,0-.51.425q-1.712,2.123-2.3,2.122-.711,0-.71-.645a6.3,6.3,0,0,1,.586-1.358,1.235,1.235,0,0,0,.108-.39c0-.294-.139-.442-.417-.442-.03,0-.35-.011-.956-.034s-.983-.051-1.127-.051a14.936,14.936,0,0,0-2.947.289q-1.435.271-1.529.272a.91.91,0,0,1-.57-.221,1.086,1.086,0,0,1-.355-.815,1.125,1.125,0,0,1,.988-1.29,18.558,18.558,0,0,1,2.886-.221q3.332,0,5.631.221a6.428,6.428,0,0,1,1.7.323C927.519,908.528,927.688,908.738,927.688,909.01Z" fill="#231f20"/><path d="M925.791,925.5q0,.306-.154,2.462-.279,3.633-1.946,5.211a5.789,5.789,0,0,1-4.1,1.342,5.066,5.066,0,0,1-1.312-.12q-.819-.219-.818-.917a3.11,3.11,0,0,1,1.42-2.24,1.535,1.535,0,0,0,1.435.577A2.643,2.643,0,0,0,922.1,931a4.758,4.758,0,0,0,1.265-3.581v-1.053c.01-.452.015-.719.015-.8q0-.917,1.22-.917a1.533,1.533,0,0,1,.771.2A.748.748,0,0,1,925.791,925.5Zm-6.034-.084q0,.2-.016,1.459c-.011.85-.015,1.421-.015,1.715q0,1.749-1.189,1.749-.926,0-.926-1.239c0-.148-.015-.685-.046-1.614s-.031-1.567-.031-1.918q0-.882,1.157-.882Q919.756,924.687,919.757,925.417Z" fill="#231f20"/><path d="M927.148,950.464q-.741,1.069-1.434,1.069a1.426,1.426,0,0,1-.864-.526c-.124-.112-.33-.3-.619-.577q-.4-.39-.694-.645a14.431,14.431,0,0,0-2.469-1.646q-2.732,2.851-4.814,2.851-.819,0-.818-1.069a4.434,4.434,0,0,1,.879-2.173.811.811,0,0,0,.649.288,3.215,3.215,0,0,0,1.5-.525,7.3,7.3,0,0,0,1.559-1.121,12.34,12.34,0,0,0,.988-1.12,1.915,1.915,0,0,0,.416-.73c0-.182-.149-.272-.447-.272a18.133,18.133,0,0,0-2.685.17q-1.082.135-.988.135a.733.733,0,0,1-.479-.22,1.075,1.075,0,0,1-.339-.866.914.914,0,0,1,1.049-1.018l1.744-.034q1.8-.085,2.7-.085a6.572,6.572,0,0,1,2.5.289.655.655,0,0,1,.462.611.687.687,0,0,1-.261.509,3.768,3.768,0,0,0-.494.475q-.48.612-1.806,2.411a11,11,0,0,0,3.056,1.629q.663.255,2,.663c.093.022.211.056.356.1h.015A2.808,2.808,0,0,1,927.148,950.464Z" fill="#231f20"/><path d="M901.869,906.718a.819.819,0,0,1,.663.255,1.1,1.1,0,0,1,.247.678,1.8,1.8,0,0,1-.571,1.155l-1.867,1.749c-.268.294-.4.48-.4.559q0,.255.525.561l.694.305q.957-.917,1.867-1.834a1.294,1.294,0,0,1,.819-.508.788.788,0,0,1,.493.22.845.845,0,0,1,.247.578,2.125,2.125,0,0,1-.71,1.46l-2.932,2.868,2.392.085c.082,0,.123-.062.123-.187a2.581,2.581,0,0,1-.617-.95q0-.476.432-.476.4,0,1.636,1.223,1.019.968,1.019,1.493,0,.747-.556.747a3.872,3.872,0,0,1-.648-.119,15.6,15.6,0,0,0-1.913-.085h-2.053a9.057,9.057,0,0,0-2.006.17,1.726,1.726,0,0,1-.463.17q-.942,0-.941-.679a1.891,1.891,0,0,1,.74-1.341q.88-.78,1.713-1.544a10.889,10.889,0,0,0-1.821-.883q-.693-.239-.694-.577,0-.323.617-1l2.608-3.089Q901.392,906.718,901.869,906.718Zm5.987.611a31.982,31.982,0,0,1,3.288.1c.319.068.478.192.478.374a.869.869,0,0,1-.108.3,2.109,2.109,0,0,0-.216.968l-.093,4.872a4.577,4.577,0,0,1-1.25,3.056,2.99,2.99,0,0,1-2.1.984,1.116,1.116,0,0,1-.848-.441,4.18,4.18,0,0,1-.756-1.663,5.28,5.28,0,0,0,2.484-.934,2.647,2.647,0,0,0,.849-2.173V909.3c0-.147-.088-.221-.263-.221q-2.236,0-3.6.136a4.88,4.88,0,0,1-.972.153c-.154,0-.309-.107-.463-.323a1.1,1.1,0,0,1-.216-.713c0-.464.282-.769.849-.916A25.932,25.932,0,0,1,907.856,907.329Z" fill="#231f20"/><path d="M900.187,923.939a.564.564,0,0,1,.494.221.84.84,0,0,1,.185.527.8.8,0,0,1-.294.542l-.971.833c-.145.147-.216.237-.216.271s.077.091.231.136l.278.068.664-.662a.806.806,0,0,1,.508-.289c.32,0,.479.2.479.6a.742.742,0,0,1-.324.593l-1.652,1.444c0,.045.047.067.139.067h1.1c.092,0,.139-.022.139-.067a2.541,2.541,0,0,1-.2-.612c0-.169.109-.254.324-.254.175,0,.438.21.788.627a1.739,1.739,0,0,1,.447.867q0,.543-.493.543a2.162,2.162,0,0,1-.417-.068h-1.328a12.059,12.059,0,0,0-1.774.1,1.258,1.258,0,0,1-.371.1.372.372,0,0,1-.262-.119.368.368,0,0,1-.124-.3c0-.148.155-.357.463-.629l.85-.882a7.34,7.34,0,0,0-1.066-.459c-.247-.068-.37-.158-.37-.272s.123-.3.37-.56l1.59-1.765Q899.909,923.94,900.187,923.939Zm4.444-.322a2.372,2.372,0,0,1,.911.119.287.287,0,0,1,.216.272,1.344,1.344,0,0,1-.154.559,10.7,10.7,0,0,1,1.635.17c.155.034.232.114.232.239q-.078.406-.185,1.205l.169-.187,1.574-1.647q.525-.543.8-.543a.588.588,0,0,1,.494.22.89.89,0,0,1,.185.527.775.775,0,0,1-.324.51l-1.065.746c-.144.125-.216.2-.216.238,0,.057.062.118.185.186l.294.153.555-.527a.827.827,0,0,1,.509-.271q.494,0,.494.6a.675.675,0,0,1-.355.559l-1.682,1.359c0,.034.041.05.123.05H910c.134,0,.2-.016.2-.05a2.271,2.271,0,0,1-.2-.561c0-.169.107-.254.324-.254q.262,0,.74.611a1.538,1.538,0,0,1,.433.815c0,.362-.145.543-.433.543h-1.758a10.731,10.731,0,0,0-1.652.1,1.08,1.08,0,0,1-.37.1.441.441,0,0,1-.294-.153.381.381,0,0,1-.107-.255.511.511,0,0,1-.217.052,1.582,1.582,0,0,1-.246-.052q-.448-.05-1.235-.068l.092.051a1.154,1.154,0,0,1,.4.7q2.407.084,6,.542a2.993,2.993,0,0,1-.432,1.41c-.176.328-.386.492-.633.492a4.376,4.376,0,0,1-1.142-.272,18.038,18.038,0,0,0-3.812-.713l-.03,1.935a3.024,3.024,0,0,1-.324,1.511.841.841,0,0,1-.788.526,1.094,1.094,0,0,1-.8-.339q-.324-.255-.325-1.562v-2.088a18.465,18.465,0,0,0-4.228.628,4.159,4.159,0,0,1-1.08.221.592.592,0,0,1-.416-.238.6.6,0,0,1-.2-.425.755.755,0,0,1,.555-.831,19.6,19.6,0,0,1,5.386-.781,1.1,1.1,0,0,1,.309-.644,1.368,1.368,0,0,1,.154-.12,7.261,7.261,0,0,0-1.019.12.608.608,0,0,1-.2.085c-.195,0-.314-.182-.355-.544l-.324-3.463a.4.4,0,0,1,.294-.408,10.434,10.434,0,0,1,1.187-.169,1.8,1.8,0,0,0,.14-.527c0-.079-.068-.186-.2-.322A6,6,0,0,1,904.631,923.617Zm-2.947,8.487c.082,0,.124.046.124.136a2.436,2.436,0,0,1-.742,1.494,2.611,2.611,0,0,1-1.744,1q-.555,0-.554-.866a1.563,1.563,0,0,1,.261-1.018c.021.09.118.135.293.135a3.254,3.254,0,0,0,1.791-.678A1.331,1.331,0,0,1,901.684,932.1Zm1.991-5.72a7.224,7.224,0,0,1,.91-.051c.37,0,.746.018,1.127.051l.046-.594c0-.057-.036-.1-.109-.119a5.3,5.3,0,0,0-1.126-.085,2.472,2.472,0,0,0-.741.1q-.123.035-.123.1Zm.231,1.579a3.968,3.968,0,0,1,.71-.068,4.926,4.926,0,0,1,.818.068c.113,0,.179-.068.2-.2l.03-.492c-.381-.035-.74-.051-1.08-.051s-.633.012-.88.034l.016.645C903.721,927.94,903.782,927.963,903.906,927.963Zm3.148.662.262-.289.988-.934a6.675,6.675,0,0,0-.91-.559.789.789,0,0,1-.17-.1Q907.146,927.538,907.054,928.625Zm.417,3.548a1.9,1.9,0,0,1,.818.271,7.814,7.814,0,0,0,1.913.815,3.2,3.2,0,0,1-.556,1.239,1.082,1.082,0,0,1-.74.306q-.37,0-.834-.56a3.912,3.912,0,0,1-.786-1.868C907.286,932.24,907.348,932.173,907.471,932.173Z" fill="#231f20"/><path d="M904.631,941.264a38.953,38.953,0,0,1,5.957.3q.54.086.54.373-.309,2.327-.679,9.286c-.02.408-.149.611-.386.611a6.078,6.078,0,0,1-.678-.085q-1.56-.168-4.784-.17a48.568,48.568,0,0,0-5.109.2,3.256,3.256,0,0,1-.6.119c-.2,0-.315-.176-.355-.526l-.618-9.167q0-.492.726-.611A52.624,52.624,0,0,1,904.631,941.264Zm-4.506,8.758q1.266-.033,2.5-.05a.7.7,0,0,1-.139-.17,2.233,2.233,0,0,1-.324-1.273,4.774,4.774,0,0,0,2.176-.39.893.893,0,0,0,.478-.764v-1.919a15.94,15.94,0,0,0-3.024.306,8.5,8.5,0,0,1-.926.119.571.571,0,0,1-.432-.2.9.9,0,0,1-.17-.543.735.735,0,0,1,.417-.7,18.161,18.161,0,0,1,4.135-.254v-.816a.78.78,0,0,1,.139-.475h-.324q-2.315,0-4.3.187-.757.067-.757.2l.371,6.6C899.94,949.978,900,950.022,900.125,950.022Zm3.473-4.09q.416,0,.416.492c0,.091-.123.271-.37.543a4.7,4.7,0,0,1-1.189.848,2.533,2.533,0,0,1-1.033.289.422.422,0,0,1-.479-.475,1.933,1.933,0,0,1,.355-1,.252.252,0,0,0,.247.118,2.222,2.222,0,0,0,.818-.186,3.706,3.706,0,0,0,.926-.527A.513.513,0,0,1,903.6,945.932Zm2.638-3.039a.458.458,0,0,1,.077.254,4.489,4.489,0,0,0-.061.612v.441q1.172.051,2.453.187a2.749,2.749,0,0,1-.293,1.273.536.536,0,0,1-.447.221,4.672,4.672,0,0,1-.8-.119c-.329-.079-.633-.142-.91-.187v1.987a2.2,2.2,0,0,1-.88,1.917,4.42,4.42,0,0,1-.941.476h4.274c.124,0,.191-.1.2-.289l.355-6.45c0-.091-.134-.154-.4-.187Q907.95,942.927,906.236,942.893Z" fill="#231f20"/></g></g></svg>
