<svg xmlns="http://www.w3.org/2000/svg" width="1000" height="988" viewBox="0 0 1000 988"><g id="Artboard"><rect id="Tint" width="1000" height="988" fill="#58595b"/></g><g id="Outline"><g id="弾幕アマノジャク"><path d="M87.887,519.06a2,2,0,0,1-1.955-1.578l-4.758-21.994a2,2,0,0,1,1.954-2.423h9.738v-16.3H82.494a2,2,0,0,1-2-2.117l1.9-32.463a2,2,0,0,1,2-1.883h8.152V427.274H83.128a2,2,0,0,1-2-2v-8.036a2,2,0,0,1,2-2h33.2a1.988,1.988,0,0,1,.947.238,2,2,0,0,1,1.485-.661H137.48a2,2,0,0,1,1.8,1.123,2.029,2.029,0,0,1,.265-.409,2,2,0,0,1,1.533-.714h12.478a2,2,0,0,1,1.971,1.665l1.067,6.279,1.462-6.39a2,2,0,0,1,1.95-1.554h22.312a2,2,0,0,1,1.934,2.51l-4.943,18.744h1.846a2,2,0,0,1,2,2v53.084a2,2,0,0,1-2,2H165.388v1.6h17.985a2,2,0,0,1,2,2V504.9a2,2,0,0,1-2,2H165.388v10.055a2,2,0,0,1-2,2H137.164a2,2,0,0,1-2-2V506.9H119.61a1.986,1.986,0,0,1-.961-.245V517.06a2,2,0,0,1-2,2Zm28.762-54.334a2,2,0,0,1,2,2V495a2,2,0,0,1,.961-.245h15.554v-1.6H121.3a2,2,0,0,1-2-2V438.069a1.7,1.7,0,0,0,.988-2.9l-1.958-10.087v25.25a2,2,0,0,1-2,2h-9.017l-.8,12.391Zm41.672,16.707v-11.65h-.759v11.65Zm-16.073,0v-11.65H141.6v11.65Zm16.073-23.263V447.789h-.759V458.17Zm-16.073,0V447.789H141.6V458.17Zm.461-22.1c-.035-.042-.068-.086-.1-.131-.03.043-.1.129-.1.131Z" fill="#fff"/><path d="M182.316,416.815h0m0,0-5.6,21.254h4.442v53.084H163.388v5.6h19.985V504.9H163.388v12.055H137.164V504.9H119.61v-8.142h17.554v-5.6H121.3V438.069H155.14l.74-3.277H144.248l-3.172-17.977h12.478l2.749,16.179,3.7-16.179h22.312M155.562,460.17h4.759V445.789h-4.759V460.17m-15.967,0h4.653V445.789H139.6V460.17m15.967,23.263h4.759v-15.65h-4.759v15.65m-15.967,0h4.653v-15.65H139.6v15.65m-2.115-66.618,3.49,17.977H122.253l-3.489-17.977H137.48m-21.148.423v33.1H105.44l-1.057,16.391h12.266V517.06H87.887l-4.759-21.995H94.866v-20.3H82.494L84.4,442.3H94.549V425.274H83.128v-8.036h33.2m65.989-4.423H160a4,4,0,0,0-3.225,1.633,4,4,0,0,0-3.225-1.633H141.076a4.006,4.006,0,0,0-1.8.426,4,4,0,0,0-1.8-.426H118.764a4,4,0,0,0-1.867.462,4.051,4.051,0,0,0-.565-.039h-33.2a4,4,0,0,0-4,4v8.036a4,4,0,0,0,4,4h7.421V438.3H84.4a4,4,0,0,0-3.993,3.766l-1.9,32.463a4,4,0,0,0,3.993,4.234h8.372v12.3H83.128a4,4,0,0,0-3.909,4.846l4.758,21.994a4,4,0,0,0,3.91,3.155h28.762a4,4,0,0,0,4-4V508.9h12.515v8.055a4,4,0,0,0,4,4h26.224a4,4,0,0,0,4-4V508.9h15.985a4,4,0,0,0,4-4v-8.142a4,4,0,0,0-2.664-3.772,3.976,3.976,0,0,0,.444-1.832V438.069a4,4,0,0,0-3.268-3.933l4.258-16.146a4,4,0,0,0-3.822-5.175Zm0,8h0Zm-73.125,33.52h7.141a4.032,4.032,0,0,0,.97-.118v8.562a4.024,4.024,0,0,0-.653-.053h-8l.542-8.391Z" fill="#fff"/><path d="M223.985,519.166a2,2,0,0,1-2-2V498.229H220.7v16.293a2,2,0,0,1-2,2h-24.85a2,2,0,0,1-2-2V489.038a2.031,2.031,0,0,1,.073-.538h-5.263a2,2,0,0,1-1.035-3.711l12.05-7.287h-10.7a2,2,0,0,1-2-2v-8.036a2,2,0,0,1,2-2h5.853a1.989,1.989,0,0,1-.557-1.383V433.522a2,2,0,0,1,2-2H203.9v-.969H188.35a2,2,0,0,1-2-2v-8.037a2,2,0,0,1,2-2H203.9v-3.287a2,2,0,0,1,2-2h27.916a2,2,0,0,1,2,2v3.287h3.72v-3.287a2,2,0,0,1,2-2h27.916a2,2,0,0,1,2,2v3.287H286.9a2,2,0,0,1,2,2v8.037a2,2,0,0,1-2,2H271.455v.969H281.4a2,2,0,0,1,2,2v30.561a1.993,1.993,0,0,1-.556,1.383h5.429a2,2,0,0,1,2,2V475.5a2,2,0,0,1-2,2h-10.8l12.049,7.287a2,2,0,0,1-1.034,3.711h-4.524a1.991,1.991,0,0,1,.074.538v24.744a2,2,0,0,1-2,2H257.188a2,2,0,0,1-1.89-1.345l-1.5-4.341v7.07a2,2,0,0,1-2,2Zm19.772-38.79-4.023-2.874h-4.3l-3.846,2.874Zm-4.218-48.854v-.969h-3.72v.969Z" fill="#fff"/><path d="M269.455,415.229v5.287H286.9v8.037H269.455v4.969H281.4v30.561H251.479v3.383h36.8V475.5H270.3l18.188,11H255.814l-2.961-2.115v4.653h29.186v24.744H257.188l-4.758-13.747h4.758v-3.806H251.8v20.937H223.985V496.229H218.7v18.293h-24.85V489.038h29.08v-4.759l-2.961,2.221H186.658l18.188-11H186.975v-8.036h35.847v-3.383H194.271V433.522H205.9v-4.969H188.35v-8.037H205.9v-5.287h27.916v5.287h7.72v-5.287h27.916m-35.636,18.293h7.72v-4.969h-7.72v4.969m-13.006,11.315h33.732v-3.278H220.813v3.278m0,11.314h33.732v-3.6H220.813v3.6m4.758,26.225H250l-9.623-6.874h-5.6l-9.2,6.874m43.884-71.147H241.539a4,4,0,0,0-3.86,2.946,4,4,0,0,0-3.86-2.946H205.9a4,4,0,0,0-4,4v1.287H188.35a4,4,0,0,0-4,4v8.037a4,4,0,0,0,4,4h2.04a4.018,4.018,0,0,0-.119.969v29.944h-3.3a4,4,0,0,0-4,4V475.5a4,4,0,0,0,4,4H190.5l-5.912,3.575a4,4,0,0,0,2.07,7.423h3.19v24.022a4,4,0,0,0,4,4H218.7a3.988,3.988,0,0,0,1.438-.266,4,4,0,0,0,3.849,2.91H251.8a4,4,0,0,0,3.984-3.64,3.977,3.977,0,0,0,1.408.256h24.851a4,4,0,0,0,4-4V490.5h2.45a4,4,0,0,0,2.069-7.423l-5.911-3.575h3.63a4,4,0,0,0,4-4v-8.036a4,4,0,0,0-4-4H285.4V433.522a3.969,3.969,0,0,0-.119-.969H286.9a4,4,0,0,0,4-4v-8.037a4,4,0,0,0-4-4H273.455v-1.287a4,4,0,0,0-4-4Z" fill="#fff"/><path d="M293.253,516.628a2,2,0,0,1-1.8-2.875L321.38,452.21a2,2,0,0,1,1.8-1.125h18.133l10.94-21.167H294.417a2,2,0,0,1-2-2v-8.671a2,2,0,0,1,2-2h96.966a2,2,0,0,1,2,2v7.3a2,2,0,0,1-.225.923l-18.082,34.789a2,2,0,0,1-1.775,1.078H356.068l-24.416,52.143a2,2,0,0,1-1.811,1.152Z" fill="#fff"/><path d="M391.383,419.247v7.3L373.3,461.333H354.8l-24.955,53.3H293.253l29.926-61.543H342.53l13.007-25.167h-61.12v-8.671h96.966m0-4H294.417a4,4,0,0,0-4,4v8.671a4,4,0,0,0,4,4h54.55L340.1,449.085H323.179a4,4,0,0,0-3.6,2.251l-29.926,61.543a4,4,0,0,0,3.6,5.749h36.588a4,4,0,0,0,3.622-2.3l23.877-50.991H373.3a4,4,0,0,0,3.549-2.155l18.083-34.79a4,4,0,0,0,.45-1.845v-7.3a4,4,0,0,0-4-4Z" fill="#fff"/><path d="M443.1,516.733a2,2,0,0,1-1.793-1.113l-28.657-57.947a2,2,0,0,1,1.793-2.887h30.187l12.845-24.868H399.215a2,2,0,0,1-2-2v-8.671a2,2,0,0,1,2-2h97.178a2,2,0,0,1,2,2v7.3a2,2,0,0,1-.219.91L478.3,466.367a2,2,0,0,1-1.781,1.09H456.536l23.974,46.357a2,2,0,0,1-1.776,2.919Z" fill="#fff"/><path d="M496.393,419.247v7.3l-19.879,38.914H453.25l25.484,49.276H443.1l-28.657-57.947h31.406l14.91-28.868H399.215v-8.671h97.178m0-4H399.215a4,4,0,0,0-4,4v8.671a4,4,0,0,0,4,4H454.19l-10.778,20.868h-28.97a4,4,0,0,0-3.586,5.773l28.657,57.948a4,4,0,0,0,3.586,2.226h35.635a4,4,0,0,0,3.553-5.837l-22.465-43.439h16.692a4,4,0,0,0,3.562-2.18l19.879-38.914a4,4,0,0,0,.438-1.82v-7.3a4,4,0,0,0-4-4Z" fill="#fff"/><path d="M513.849,517.791a2,2,0,0,1-1.175-.382l-8.883-6.45a2,2,0,0,1,.432-3.476l33.514-13.405,26.245-76.537a2,2,0,0,1,1.892-1.352h36.059a2,2,0,0,1,1.893,2.644l-24.639,72.435a2,2,0,0,1-1.156,1.215L514.586,517.65A2.006,2.006,0,0,1,513.849,517.791Z" fill="#fff"/><path d="M601.933,418.189l-24.639,72.435-63.445,25.167-8.883-6.45,34.366-13.747,26.542-77.4h36.059m0-4H565.874a4,4,0,0,0-3.784,2.7l-25.947,75.669L503.48,505.627a4,4,0,0,0-.864,6.951l8.882,6.45a4,4,0,0,0,3.826.481l63.445-25.167a4,4,0,0,0,2.312-2.43l24.639-72.434a4,4,0,0,0-3.787-5.289Zm0,8h0Z" fill="#fff"/><path d="M611.772,516.733a2,2,0,0,1-2-2v-9.411a2,2,0,0,1,1.972-2l6.731-.094,63.62-59.952a2,2,0,0,1,1.372-.545h5.8a2,2,0,0,1-1.142-1.807V414.806a2,2,0,0,1,2-2h7.825a2,2,0,0,1,2,2v26.118a2,2,0,0,1-1.142,1.807h2.619a2,2,0,0,1-1.142-1.807V414.806a2,2,0,0,1,2-2h7.825a2,2,0,0,1,2,2v26.118a2,2,0,0,1-2,2h-2.422a2,2,0,0,1,1.144,1.817L708.73,466a2,2,0,0,1-.638,1.455L655.643,516.2a2,2,0,0,1-1.362.535Zm-.21-70.108a2,2,0,0,1-2-2v-8.459a2,2,0,0,1,2-2h49.593a2,2,0,0,1,2,2v8.459a2,2,0,0,1-2,2Zm0-16.918a2,2,0,0,1-2-2v-8.46a2,2,0,0,1,2-2h49.593a2,2,0,0,1,2,2v8.46a2,2,0,0,1-2,2Z" fill="#fff"/><path d="M710.114,414.806v26.118h-7.825V414.806h7.825m-12.16,0v26.118h-7.825V414.806h7.825m-36.8,4.441v8.46H611.562v-8.46h49.593m0,16.919v8.459H611.562v-8.459h49.593m45.681,8.565-.106,21.255-52.449,48.747H611.772v-9.411l7.508-.105,64.187-60.486h23.369m3.278-33.925h-7.825a4.006,4.006,0,0,1-4.335,0h-7.825a4,4,0,0,0-4,4v25.925h-2.662a4,4,0,0,0-2.743,1.089l-63.055,59.419-5.953.084a4,4,0,0,0-3.944,4v9.411a4,4,0,0,0,4,4h42.509a4,4,0,0,0,2.723-1.07l52.45-48.747a4,4,0,0,0,1.276-2.91l.105-21.147a4,4,0,0,0,3.279-3.935V414.806a4,4,0,0,0-4-4Zm-3.278,37.925h0Zm-45.681-33.484H611.562a4,4,0,0,0-4,4v8.46a4,4,0,0,0,4,4h49.593a4,4,0,0,0,4-4v-8.46a4,4,0,0,0-4-4Zm0,16.919H611.562a4,4,0,0,0-4,4v8.459a4,4,0,0,0,4,4h49.593a4,4,0,0,0,4-4v-8.459a4,4,0,0,0-4-4Z" fill="#fff"/><path d="M737.509,518.108a2,2,0,0,1-1.991-1.81l-5.645-59.415h-5.688a2,2,0,0,1-2-2v-7.825a2,2,0,0,1,2-2h4.575l-.539-5.853a2,2,0,0,1,1.991-2.184h25.8a2,2,0,0,1,1.991,1.816l.573,6.221h44.28a2,2,0,0,1,2,2v6.133a2.016,2.016,0,0,1-.092.6l-13.325,42.192a2,2,0,0,1-1.9,1.4l-26.126.105c-.065,0-.13,0-.194-.009l1.657,18.451a2,2,0,0,1-1.992,2.178Zm25.166-26.721,11.5-34.5h-14.6Z" fill="#fff"/><path d="M756.014,439.021l.74,8.037h46.1v6.133l-13.324,42.192-26.118.105,13.535-40.605H757.389l5.5,61.225H737.509l-5.817-61.225h-7.507v-7.825h6.767l-.74-8.037h25.8m0-4h-25.8a4,4,0,0,0-3.983,4.367l.338,3.67h-2.382a4,4,0,0,0-4,4v7.825a4,4,0,0,0,4,4h3.869l5.473,57.6a4,4,0,0,0,3.982,3.621h25.378a4,4,0,0,0,3.984-4.357L765.41,499.48l24.14-.1a4,4,0,0,0,3.8-2.8L806.673,454.4a3.993,3.993,0,0,0,.185-1.2v-6.133a4,4,0,0,0-4-4H760.4l-.405-4.4a4,4,0,0,0-3.983-3.633Zm5.75,23.862H771.4l-7.592,22.776-2.045-22.776Z" fill="#fff"/><path d="M834.376,518.954a2,2,0,0,1-1.075-.313l-9.623-6.133a2,2,0,0,1,.344-3.549l42.69-16.745L881.14,429.5H864.062l-10.828,43.111a2,2,0,0,1-1.939,1.513h-33.31a2,2,0,0,1-1.929-2.525l14.381-52.872a2,2,0,0,1,1.929-1.475h86.5a2,2,0,0,1,1.954,2.426L905.38,490.416a2,2,0,0,1-1.227,1.436L835.1,518.817A2,2,0,0,1,834.376,518.954Z" fill="#fff"/><path d="M918.864,419.247l-15.438,70.742-69.05,26.965-9.623-6.133,43.672-17.131L883.652,427.5H862.5L851.3,472.119h-33.31l14.381-52.872h86.5m0-4h-86.5a4,4,0,0,0-3.86,2.95l-14.38,52.872a4,4,0,0,0,3.859,5.05H851.3a4,4,0,0,0,3.879-3.026l10.448-41.6h13.006L865,490.737,823.292,507.1a4,4,0,0,0-.689,7.1l9.623,6.132a4,4,0,0,0,3.605.353l69.05-26.965a4,4,0,0,0,2.453-2.873L922.772,420.1a4,4,0,0,0-3.908-4.853Zm0,8h0Z" fill="#fff"/></g></g><g id="Text"><path d="M333.171,382.328h-1.434l-.98-1.123,1.184-1.075h3.634Zm1.065,15.478-1.22,1.074-1.026-1.123.647-7.177,1.2-1.075,1,1.075Zm.782-9.375-1.191,1.074-1.031-1.123.5-5.81,2.464-2.2Z" fill="#231f20"/><path d="M343.064,381.205l1.221-1.075,1.037,1.075-.659,7.019L343.43,389.3l-.964-1.074Zm1.746,7.226h6.1l.977,1.074-1.184,1.123h-6.043l-1.025-1.123Zm6.1,2.393,1.172-1.074,1.038,1.074-.635,6.933-1.172,1.123-.977-1.074Zm.818-9.619,1.184-1.075,1.025,1.075-.634,7.019-1.172,1.074-1.013-1.074Z" fill="#231f20"/><path d="M361.315,396.732h2.2l-.207,2.148h-2.2Z" fill="#231f20"/><path d="M373.5,396.683h6.091l.976,1.074L379.4,398.88h-6.1l-.977-1.123Zm.72-8.3h6.054l1.026,1.123-1.209,1.123h-6.067L373,389.505Zm.72-8.252h6.079l1.025,1.123-1.22,1.075h-6.055l-1.025-1.075Zm5.334,10.694L381.5,389.7l1.026,1.123L382,396.476l-1.172,1.123-1.026-1.123Zm.745-8.252,1.172-1.123,1.025,1.123-.5,5.652L381.5,389.3l-1.025-1.074Z" fill="#231f20"/><path d="M391.3,380.13h8.85l1.025,1.075L400,382.328h-8.911l-1.025-1.123Zm2.392,10.547,1.233-1.123.977,1.123-.61,7.08-1.2,1.123-1.02-1.074Zm.733-8.044h2.209l-.537,5.8-1.172,1.123-1.025-1.123Z" fill="#231f20"/><path d="M409.05,390.824l1.172-1.123,1.013,1.123-.61,6.933-1.233,1.123-.989-1.123Zm.793-9.619,1.2-1.075,1.025,1.123-.623,6.971-1.171,1.074-1.038-1.074Zm1.807,7.226h6.042l1.026,1.074-1.219,1.123h-6.044l-1.05-1.123Zm6.042,2.393,1.184-1.074,1.014,1.074-.6,6.933-1.2,1.123-.976-1.074Zm.83-9.619,1.221-1.075.977,1.123-.623,6.971-1.172,1.074-1.025-1.074Z" fill="#231f20"/><path d="M440.45,380.13h8.85l1.025,1.075-1.172,1.123h-8.911l-1.025-1.123Zm2.392,10.547,1.233-1.123.977,1.123-.611,7.08-1.2,1.123-1.02-1.074Zm.733-8.044h2.209l-.537,5.8-1.172,1.123-1.025-1.123Z" fill="#231f20"/><path d="M458.152,390.628l1.221-1.123,1.025,1.123-.525,5.848-1.221,1.074-.976-1.074Zm.744-8.1,1.2-1.123,1.013,1.123-.513,5.859-1.22,1.123-1.026-1.074Zm1.172,14.16h6.055l1.025,1.074-1.232,1.123h-6.043l-1.025-1.123Zm1.4-16.553h6.1l.976,1.075-1.184,1.123h-6.042l-1.026-1.123Zm5.42,10.5,1.184-1.123,1.026,1.123-.55,5.848-1.184,1.074-1.013-1.074Zm.684-8.1,1.22-1.074,1.026,1.074-.525,5.908-1.221,1.074-.976-1.074Z" fill="#231f20"/><path d="M477.758,390.628l1.221-1.074.964,1.074-.464,5.848-1.221,1.074-.988-1.074Zm.842-9.423,1.2-1.075.977,1.123-.61,7.178-1.179,1.123-1.043-1.123Zm1.074,15.478h6.055l1.025,1.074-1.231,1.123h-6.032l-1.05-1.123Zm6.785-6.006,1.179-1.123,1.008,1.123-.488,5.8-1.2,1.123-1.02-1.123Zm.771-9.424,1.221-1.123,1.026,1.123-.623,7.178-1.221,1.123-1.025-1.123Z" fill="#231f20"/><path d="M497.462,390.824l1.172-1.123,1.013,1.123-.611,6.933L497.8,398.88l-.989-1.123Zm.793-9.619,1.2-1.075,1.026,1.123-.624,6.971-1.171,1.074-1.037-1.074Zm1.807,7.226H506.1l1.026,1.074-1.219,1.123h-6.045l-1.049-1.123Zm6.042,2.393,1.184-1.074,1.014,1.074-.6,6.933-1.2,1.123-.977-1.074Zm.831-9.619,1.22-1.075.977,1.123-.623,6.971-1.172,1.074-1.025-1.074Z" fill="#231f20"/><path d="M517.068,390.628l1.221-1.123,1.025,1.123-.525,5.848-1.221,1.074-.976-1.074Zm.744-8.1,1.2-1.123,1.012,1.123-.512,5.859-1.221,1.123-1.025-1.074Zm1.172,14.16h6.055l1.025,1.074-1.232,1.123h-6.043l-1.025-1.123Zm1.4-16.553h6.1l.977,1.075-1.184,1.123h-6.043l-1.025-1.123Zm5.42,10.5,1.183-1.123,1.026,1.123-.549,5.848-1.184,1.074-1.014-1.074Zm.683-8.1,1.221-1.074,1.025,1.074-.525,5.908-1.221,1.074-.976-1.074Z" fill="#231f20"/><path d="M536.675,390.628l1.221-1.074.964,1.074-.464,5.848-1.221,1.074-.988-1.074Zm.842-9.423,1.2-1.075.976,1.123-.611,7.178-1.178,1.123-1.043-1.123Zm1.074,15.478h6.055l1.025,1.074-1.231,1.123h-6.032l-1.05-1.123Zm6.785-6.006,1.179-1.123,1.008,1.123-.488,5.8-1.2,1.123-1.019-1.123Zm.771-9.424,1.221-1.123,1.026,1.123-.623,7.178-1.221,1.123-1.026-1.123Z" fill="#231f20"/><path d="M568.025,390.824,569.2,389.7l1.026,1.123-.611,6.933-1.19,1.123-1.031-1.074Zm.868-10.5,2.05,2.246-.476,5.652-1.221,1.074-1.025-1.074Zm8.507-.2.977,1.123-1.184,1.136H571.15l-2.05-2.259Zm-6.775,8.3h6.043l1.037,1.074-1.232,1.123h-6.055l-.977-1.123Zm6.775-5.859,1.172-1.062,1.026,1.062-.477,5.652-1.221,1.123-1.025-1.123Z" fill="#231f20"/><path d="M587.583,390.775l1.172-1.074,1.025,1.123-.61,6.933-1.191,1.123-1.031-1.074Zm.867-10.449,2.051,2.2-.477,5.652L588.8,389.3l-1.026-1.074Zm8.508-.2.977,1.123-1.184,1.136h-6.043l-2.051-2.259Zm-6.775,8.3h6.091l.989,1.074-1.233,1.123h-6.054L589,389.505Zm-.256,3.943.1-1.453h1.555l6.307,6.531-.135,1.428h-1.574Zm7.031-9.8,1.172-1.111,1.025,1.111-.476,5.652-1.221,1.123-1.025-1.123Z" fill="#231f20"/><path d="M607.092,390.628l1.22-1.123,1.026,1.123-.526,5.848-1.22,1.074-.977-1.074Zm.744-8.1,1.2-1.123,1.013,1.123-.513,5.859-1.221,1.123-1.025-1.074Zm1.172,14.16h6.054l1.026,1.074-1.233,1.123h-6.043l-1.025-1.123Zm1.4-16.553h6.1l.976,1.075-1.183,1.123h-6.043l-1.026-1.123Zm5.42,10.5,1.184-1.123,1.025,1.123-.549,5.848-1.183,1.074-1.014-1.074Zm.684-8.1,1.22-1.074,1.026,1.074-.526,5.908-1.22,1.074-.977-1.074Z" fill="#231f20"/><path d="M626.7,390.628l1.221-1.074.965,1.074-.465,5.848L627.2,397.55l-.988-1.074Zm1.916,6.055h6.055l1.025,1.074-1.23,1.123h-6.032l-1.05-1.123Zm6.785-6.055,1.179-1.074,1.009,1.074-.488,5.848-1.2,1.074-1.019-1.074Zm.772-9.375,1.221-1.123,1.025,1.123-.623,7.178-1.172,1.123-1.025-1.123Z" fill="#231f20"/><path d="M646.5,390.824l1.221-1.123,1.037,1.123-.476,5.652-2.454,2.148Zm1.893,5.859h6.127l.989,1.074-1.234,1.123h-8.252Zm-1.014-16.357,2,2.246-.488,5.652L647.72,389.3l-1.014-1.074Zm8.5-.2.977,1.123-1.184,1.136h-6.043l-2.051-2.259Zm-6.727,8.3H655.2l1.026,1.074L655,390.628h-6.043l-1.025-1.123Z" fill="#231f20"/><path d="M664.824,390.628l1.221-1.123,1.037,1.123-.537,5.848-1.221,1.074-.976-1.074Zm.744-8.1,1.149-1.123,1.037,1.123-.537,5.859-1.172,1.123-1.014-1.074Zm1.149,14.16H672.8l1.038,1.074L672.6,398.88h-6.055l-1.013-1.123Zm1.428-16.553h6.1l.977,1.075-1.233,1.123h-6.043l-.976-1.123Z" fill="#231f20"/><path d="M683.2,380.13h8.85l1.025,1.075-1.172,1.123h-8.91l-1.025-1.123Zm2.393,10.547,1.232-1.123.977,1.123-.61,7.08-1.2,1.123-1.02-1.074Zm.732-8.044h2.209l-.537,5.8-1.172,1.123-1.025-1.123Z" fill="#231f20"/><path d="M87.887,517.06l-4.759-21.995H94.866v-20.3H82.494L84.4,442.3H94.549V425.274H83.128v-8.036h33.2v33.1H105.44l-1.057,16.391h12.266V517.06Zm34.366-82.268-3.489-17.977H137.48l3.49,17.977ZM163.388,504.9v12.055H137.164V504.9H119.61v-8.142h17.554v-5.6H121.3V438.069H155.14l.74-3.277H144.248l-3.172-17.977h12.478l2.749,16.179,3.7-16.179h22.312l-5.6,21.254h4.442v53.084H163.388v5.6h19.985V504.9Zm-19.14-59.11H139.6V460.17h4.653Zm0,21.994H139.6v15.65h4.653Zm16.073-21.994h-4.759V460.17h4.759Zm0,21.994h-4.759v15.65h4.759Z" fill="#231f20"/><path d="M257.188,513.782l-4.758-13.747h4.758v-3.806H251.8v20.937H223.985V496.229H218.7v18.293h-24.85V489.038h29.08v-4.759l-2.961,2.221H186.658l18.188-11H186.975v-8.036h35.847v-3.383H194.271V433.522H205.9v-4.969H188.35v-8.037H205.9v-5.287h27.916v5.287h7.72v-5.287h27.916v5.287H286.9v8.037H269.455v4.969H281.4v30.561H251.479v3.383h36.8V475.5H270.3l18.188,11H255.814l-2.961-2.115v4.653h29.186v24.744Zm-2.643-72.223H220.813v3.278h33.732Zm0,11H220.813v3.6h33.732ZM240.375,475.5h-5.6l-9.2,6.874H250Zm1.164-46.949h-7.72v4.969h7.72Z" fill="#231f20"/><path d="M293.253,514.628l29.926-61.543H342.53l13.007-25.167h-61.12v-8.671h96.966v7.3L373.3,461.333H354.8l-24.955,53.3Z" fill="#231f20"/><path d="M443.1,514.733l-28.657-57.947h31.406l14.91-28.868H399.215v-8.671h97.178v7.3l-19.879,38.914H453.25l25.484,49.276Z" fill="#231f20"/><path d="M513.849,515.791l-8.883-6.45,34.366-13.747,26.542-77.4h36.059l-24.639,72.435Z" fill="#231f20"/><path d="M611.562,427.707v-8.46h49.593v8.46Zm0,16.918v-8.459h49.593v8.459Zm42.719,70.108H611.772v-9.411l7.508-.105,64.187-60.486h23.369l-.106,21.255Zm35.848-73.809V414.806h7.825v26.118Zm12.16,0V414.806h7.825v26.118Z" fill="#231f20"/><path d="M763.416,495.488l13.535-40.605H757.389l5.5,61.225H737.509l-5.817-61.225h-7.507v-7.825h6.767l-.74-8.037h25.8l.74,8.037h46.1v6.133l-13.324,42.192Z" fill="#231f20"/><path d="M834.376,516.954l-9.623-6.133,43.672-17.131L883.652,427.5H862.5L851.3,472.119h-33.31l14.381-52.872h86.5l-15.438,70.742Z" fill="#231f20"/><path d="M116.894,555.793l2.586-2.276,2.069,2.379L120.282,571l-2.613,2.276L115.5,571Zm1.732-19.863,2.483-2.38,2.173,2.38-1.319,15.208-2.483,2.379-2.172-2.276Z" fill="#231f20"/><path d="M142.364,570.769l-2.587,2.4-2.2-2.4,1.345-15.183,2.483-2.275,2.172,2.275Zm1.629-19.865-2.483,2.3-2.173-2.3,1.061-12.285,2.535-2.38,2.172,2.277Zm14.355-12.7h-12.8l-2.2-2.379,2.612-2.276h12.83l2.068,2.276Zm-4.914,10.656-2.5,2.277-2.211-2.38.936-9.906h4.677ZM160.649,571l-2.522,2.276L155.942,571l1.4-15.208,2.493-2.379,2.183,2.275Zm1.785-19.863-2.586,2.276-2.069-2.276,1.009-12.415,2.483-2.277,2.172,2.277Z" fill="#231f20"/><path d="M179.938,556.207l2.483-2.38,2.173,2.38L183.3,570.9l-2.523,2.38L178.593,571Zm1.837-22.243,4.345,4.759L185.111,550.7l-2.586,2.276-2.173-2.276Zm18.027-.414,2.069,2.38-2.509,2.405h-12.8l-4.346-4.785Zm-14.355,17.588h12.8l2.2,2.276-2.613,2.379H185.008l-2.07-2.379ZM199.8,538.723l2.483-2.25,2.173,2.25L203.449,550.7l-2.586,2.379L198.69,550.7Z" fill="#231f20"/><path d="M220.849,555.793l2.587-2.379,2.172,2.379L224.5,568.182l-2.586,2.276-2.07-2.276Zm1.578-17.174,2.534-2.38,2.147,2.38-1.086,12.415-2.586,2.38-2.173-2.276Zm2.483,30h12.828l2.173,2.275-2.612,2.38H224.5l-2.173-2.38Zm2.974-35.072h12.932l2.069,2.276-2.509,2.379h-12.8l-2.173-2.379Zm11.484,22.243,2.509-2.379,2.172,2.379-1.164,12.389-2.509,2.276-2.146-2.276Zm1.448-17.174,2.587-2.276,2.172,2.276-1.112,12.519-2.586,2.276-2.069-2.276Z" fill="#231f20"/><path d="M263.545,538.619l2.483-2.276,2.173,2.276L267.14,550.6l-2.586,2.379-2.2-2.276Zm2.483,30h12.828l2.173,2.275-2.612,2.38h-12.8l-2.2-2.38Zm1.449-17.588h12.906l2.069,2.38-2.483,2.379H267.037l-2.07-2.379ZM269,533.55h12.933L284,535.93l-2.56,2.275H268.588l-2.2-2.275Zm11.4,22.657,2.5-2.38,2.137,2.38-1.03,11.975-2.549,2.276-2.163-2.276Z" fill="#231f20"/><path d="M302.9,538.619l2.483-2.276,2.173,2.276L306.5,550.6l-2.587,2.379-2.2-2.276Zm2.483,30h12.829l2.173,2.275-2.613,2.38h-12.8l-2.2-2.38Zm1.449-17.588h12.906l2.069,2.38-2.483,2.379H306.4l-2.069-2.379Zm1.526-17.484h12.932l2.069,2.38-2.561,2.275H307.948l-2.2-2.275Zm11.4,22.657,2.5-2.38,2.136,2.38-1.029,11.975-2.55,2.276-2.162-2.276Z" fill="#231f20"/><path d="M339.677,555.793l2.586-2.276,2.07,2.379L343.065,571l-2.612,2.276L338.28,571Zm1.733-19.863,2.483-2.38,2.172,2.38-1.319,15.208-2.483,2.379-2.172-2.276Z" fill="#231f20"/><path d="M356.353,556.207l2.535-2.38,2.172,2.38-1.008,11.975-5.2,4.552Zm4.035,12.415h12.906l2.069,2.275-2.586,2.38H355.292Zm-2.069-34.658,4.319,4.759L361.5,550.7l-2.509,2.276-2.173-2.276Zm18-.414,2.069,2.38-2.483,2.405H363.078l-4.346-4.785Zm-14.406,17.588h12.828l2.173,2.276-2.608,2.379H361.526l-2.225-2.379Zm12.828,5.069,2.587-2.276,2.069,2.276-1.009,11.975-2.483,2.38-2.172-2.38Zm1.475-17.484,2.534-2.25,2.173,2.25L379.915,550.7l-2.586,2.379-2.173-2.379Z" fill="#231f20"/><path d="M397.781,555.793l2.613-2.276,2.147,2.276-1.165,12.286-5.043,4.655Zm4.035,12.726h12.8l2.173,2.391-2.535,2.264H396.721Zm-2.276-32.693,2.586-2.276,2.07,2.276-1.216,15.312-2.586,2.276-2.2-2.276Z" fill="#231f20"/><path d="M433.235,556.207l2.587-2.38,2.2,2.38-1.009,11.975-5.2,4.552Zm4.009,12.415h12.984l2.095,2.275-2.613,2.38H432.227ZM435.1,533.964l4.242,4.759L438.305,550.7l-2.483,2.276-2.147-2.276Zm18-.414,2.069,2.38-2.509,2.405h-12.8l-4.345-4.785Zm-14.251,17.588h12.828l2.173,2.276-2.612,2.379h-12.8l-2.173-2.379Z" fill="#231f20"/><path d="M497.16,538.619l2.482-2.276,2.171,2.276-1.06,11.976-2.586,2.379-2.2-2.276Zm2.482,30H512.47l2.174,2.275-2.614,2.38h-12.8l-2.2-2.38Zm1.449-17.588H514l2.068,2.38-2.482,2.379H500.652l-2.07-2.379Zm1.525-17.484h12.932l2.07,2.38-2.56,2.275H502.2L500,535.93Zm11.4,22.657,2.5-2.38,2.136,2.38-1.029,11.975-2.549,2.276-2.164-2.276Z" fill="#231f20"/><path d="M535.043,556.207l2.483-2.38,2.173,2.38-1.294,14.69-2.522,2.38L533.7,571Zm1.837-22.243,4.345,4.759L540.216,550.7l-2.586,2.276-2.173-2.276Zm18.027-.414,2.07,2.38-2.509,2.405h-12.8l-4.346-4.785Zm-14.354,17.588h12.8l2.2,2.276-2.613,2.379H540.112l-2.068-2.379Zm14.354-12.415,2.483-2.25,2.172,2.25L558.554,550.7l-2.586,2.379-2.173-2.379Z" fill="#231f20"/><path d="M576.265,556.207l2.587-2.38,2.2,2.38-1.009,11.975-5.2,4.552Zm4.008,12.415h12.985l2.095,2.275-2.613,2.38H575.256Zm-2.146-34.658,4.242,4.759L581.334,550.7l-2.482,2.276-2.147-2.276Zm18-.414,2.069,2.38-2.509,2.405h-12.8l-4.345-4.785Zm-14.251,17.588h12.828l2.173,2.276-2.612,2.379h-12.8l-2.173-2.379Z" fill="#231f20"/><path d="M615.081,555.793l2.612-2.276,2.147,2.276-1.164,12.286-5.043,4.655Zm4.035,12.726h12.8l2.173,2.391-2.535,2.264H614.021Zm-2.276-32.693,2.587-2.276,2.068,2.276-1.215,15.312-2.587,2.276-2.2-2.276Z" fill="#231f20"/><path d="M650.948,555.793l2.613-2.276,2.146,2.276-1.164,12.286-5.043,4.655Zm4.035,12.726h12.8l2.173,2.391-2.535,2.264H649.888Zm-2.276-32.693,2.587-2.276,2.068,2.276-1.215,15.312-2.586,2.276-2.2-2.276Z" fill="#231f20"/><path d="M710.656,555.793l2.587-2.379,2.2,2.379L714.3,568.182l-2.587,2.276-2.07-2.276Zm1.578-17.174,2.431-2.38,2.2,2.38-1.138,12.415-2.483,2.38-2.146-2.276Zm2.431,30h12.881l2.2,2.275-2.612,2.38H714.3l-2.148-2.38Zm3.026-35.072h12.933l2.069,2.276-2.612,2.379h-12.8l-2.068-2.379Z" fill="#231f20"/><path d="M748.955,556.1l2.587-2.277,2.069,2.277L752.317,570.9l-2.522,2.38-2.185-2.38Zm1.475-17.485,2.535-2.38,2.172,2.38L754.128,550.6l-2.586,2.379-2.173-2.379Zm4.035,12.415h12.906l2.1,2.38-2.612,2.379h-12.83l-2.068-2.379Zm1.525-17.484h12.829l2.173,2.38-2.612,2.275h-12.8L753.4,535.93Zm11.278,22.657,2.612-2.38,2.173,2.38-1.4,14.69-2.43,2.38L766.077,571Zm1.551-17.588,2.586-2.276,2.07,2.276L772.466,550.7l-2.483,2.276-2.172-2.276Z" fill="#231f20"/><path d="M789.97,556.1l2.483-2.277,2.173,2.38-1.294,14.69-2.522,2.38L788.625,571Zm1.837-22.14,4.344,4.655L795.143,550.6l-2.586,2.379-2.173-2.276Zm18.027-.414,2.069,2.38-2.508,2.405h-12.8l-4.346-4.785Zm-14.355,17.588h12.907l2.094,2.276-2.612,2.379H795.039l-2.068-2.379Zm-.542,8.353.206-3.077h3.294L811.8,570.252l-.285,3.025h-3.336Zm14.9-20.768,2.482-2.354,2.173,2.354L813.48,550.7l-2.585,2.379-2.173-2.379Z" fill="#231f20"/><path d="M830.984,555.689l2.587-2.275,2.173,2.379-1.112,12.389-5.1,4.552Zm4.01,12.933h12.88l2.069,2.275-2.483,2.38H829.977Zm-2.173-34.658,4.345,4.759-1.009,12.311-2.586,2.38-2.173-2.276Zm18.028-.414,2.172,2.38-2.612,2.405h-12.8l-4.242-4.785ZM849.3,555.689l2.612-2.275,2.173,2.275-1.164,12.493-2.509,2.38-2.147-2.38Zm1.552-16.966,2.482-2.25,2.173,2.25L854.5,550.8l-2.586,2.509L849.84,550.8Z" fill="#231f20"/><path d="M540.1,897.913a.794.794,0,0,1-.168.672.549.549,0,0,1-.484.188c-.356,0-.588-.1-.692-.314a2.087,2.087,0,0,1-.252-.9l.168-2.583-.084-.882-.127-.966c0-.776.295-1.155.861-1.155s.862.4.862,1.2v.566l.041.484.043.4.041.315a2.975,2.975,0,0,0,1.47,1.785,4.294,4.294,0,0,0,2.268.629,4.366,4.366,0,0,0,2.5-.8,2.4,2.4,0,0,0,1.029-2.121,2.325,2.325,0,0,0-1.931-2.33l-2.352-.442a6.388,6.388,0,0,1-3.779-1.8,3.028,3.028,0,0,1-.672-2.016,5.2,5.2,0,0,1,.818-2.478,4.414,4.414,0,0,1,2.562-1.637,6.253,6.253,0,0,1,1.532-.189c1.7,0,2.9.441,3.57,1.344,0-.756.209-1.135.609-1.135.567,0,.819.316.776.946l-.084,1.091-.1,1.071a6.423,6.423,0,0,1,.188,1.763q0,1.073-.818,1.072c-.567,0-.862-.294-.862-.9l.084-.86a2.665,2.665,0,0,0-.964-2.2,3.651,3.651,0,0,0-2.352-.715,3.106,3.106,0,0,0-2.647,1.155,2.758,2.758,0,0,0-.5,1.428c0,1.028.609,1.722,1.847,2.1a11.866,11.866,0,0,0,1.764.4c.189.021.483.063.924.125.063.022.379.084.945.211a8.094,8.094,0,0,1,.777.23c.147.063.42.19.8.378a3.307,3.307,0,0,1,1.68,3.171,4.142,4.142,0,0,1-2.5,3.968,5.988,5.988,0,0,1-2.666.608,5.334,5.334,0,0,1-4.115-1.552l-.043.041Z" fill="#231f20"/><path d="M557.233,887.311a4.036,4.036,0,0,1,3.506,1.574,3.276,3.276,0,0,1,.567,1.973v4.976a2.231,2.231,0,0,0,.168,1.008.6.6,0,0,0,.483.295l.4-.064.293-.042.252-.021a.565.565,0,0,1,.694.588c0,.547-.294.819-.862.819l-.986-.084a10.929,10.929,0,0,0-1.3-.084l-1.028.084-1.029.084c-.651,0-.987-.252-.987-.776q0-.63.693-.631a2.09,2.09,0,0,1,.819.127.729.729,0,0,0,.65-.336,2.287,2.287,0,0,0,.147-1.008V891.8c0-2.036-.818-3.065-2.436-3.065-2.162,0-3.232,1.071-3.232,3.233v3.906a3.621,3.621,0,0,0,.1.881.543.543,0,0,0,.546.379,2.321,2.321,0,0,1,.778-.127c.545,0,.818.189.818.588,0,.567-.294.861-.9.861l-1.114-.1-1.133-.105a6.818,6.818,0,0,0-1.008.105l-1.05.1c-.65,0-.966-.252-.966-.777a.607.607,0,0,1,.693-.672l.231.021.294.042.378.064a.65.65,0,0,0,.546-.252A1.918,1.918,0,0,0,552.4,896v-9.574c0-.924-.252-1.385-.734-1.385l-.861.125a.685.685,0,0,1-.693-.776.653.653,0,0,1,.252-.484,1.071,1.071,0,0,1,.609-.209,3.2,3.2,0,0,1,.735.105l.692.084.484-.084a2.8,2.8,0,0,1,.546-.105c.4,0,.609.273.609.819v4.136A3.543,3.543,0,0,1,557.233,887.311Z" fill="#231f20"/><path d="M564.794,890.082a4.689,4.689,0,0,1,2.709-2.52,5.169,5.169,0,0,1,1.764-.294,4.837,4.837,0,0,1,3.863,1.575,6,6,0,0,1,1.3,4.031c0,2.436-.861,4.179-2.582,5.207a4.829,4.829,0,0,1-2.5.692,5.164,5.164,0,0,1-2.6-.671,4.425,4.425,0,0,1-1.848-1.973,6.733,6.733,0,0,1-.651-3.108l.021-.714A5.672,5.672,0,0,1,564.794,890.082Zm6.109,6.823c1.2-.672,1.807-1.952,1.807-3.863,0-2.079-.609-3.443-1.807-4.052a3.2,3.2,0,0,0-1.384-.295,3.082,3.082,0,0,0-3.108,1.869,5.541,5.541,0,0,0-.463,2.31l.043.042a5.85,5.85,0,0,0,.693,2.981,2.714,2.714,0,0,0,2.5,1.449A3.439,3.439,0,0,0,570.9,896.905Z" fill="#231f20"/><path d="M576.26,890.082a4.693,4.693,0,0,1,2.708-2.52,5.176,5.176,0,0,1,1.763-.294,4.837,4.837,0,0,1,3.864,1.575,6,6,0,0,1,1.3,4.031c0,2.436-.861,4.179-2.583,5.207a4.819,4.819,0,0,1-2.5.692,5.171,5.171,0,0,1-2.6-.671,4.43,4.43,0,0,1-1.848-1.973,6.72,6.72,0,0,1-.65-3.108l.021-.714A5.655,5.655,0,0,1,576.26,890.082Zm6.11,6.823c1.2-.672,1.8-1.952,1.8-3.863,0-2.079-.609-3.443-1.8-4.052a3.206,3.206,0,0,0-1.387-.295,3.084,3.084,0,0,0-3.107,1.869,5.556,5.556,0,0,0-.461,2.31l.041.042a5.86,5.86,0,0,0,.693,2.981,2.714,2.714,0,0,0,2.5,1.449A3.447,3.447,0,0,0,582.37,896.905Z" fill="#231f20"/><path d="M590.2,887.541h2.415c.567,0,.861.252.861.734,0,.526-.336.778-.988.778h-2.2c-.231,0-.336.105-.336.294v5.459a3.658,3.658,0,0,0,.252,1.553,1.327,1.327,0,0,0,1.3.694,1.244,1.244,0,0,0,1.26-.694,3.9,3.9,0,0,0,.21-1.553v-.652c0-.776.272-1.154.8-1.154q.819,0,.819,1.2c0,1.952-.441,3.212-1.322,3.821a3.52,3.52,0,0,1-2.058.525c-1.911,0-2.856-1.176-2.856-3.527v-5.333c0-.42-.188-.63-.545-.63h-.442c-.65,0-.986-.252-.986-.735a.789.789,0,0,1,.777-.777h.861c.231,0,.335-.168.335-.482v-2.1a.923.923,0,0,1,.21-.631.946.946,0,0,1,.567-.23.893.893,0,0,1,.588.189.927.927,0,0,1,.231.629v2.352C589.951,887.457,590.035,887.541,590.2,887.541Z" fill="#231f20"/><path d="M597.386,889.367a.6.6,0,0,0-.652-.42l-.86.084a.712.712,0,0,1-.715-.84.767.767,0,0,1,.8-.65c.336,0,1.176.252,1.512.252l.524-.105.5-.105c.378,0,.567.294.567.9v7.789c0,.5.189.8.567.862l.734-.127c.526,0,.8.231.8.715s-.336.734-1.029.734l-1.974-.21a6.364,6.364,0,0,0-1.008.105l-1.05.1c-.629,0-.945-.273-.945-.818,0-.42.232-.631.715-.631a2.391,2.391,0,0,1,.818.127c.526,0,.778-.442.778-1.344V890.25A2.779,2.779,0,0,0,597.386,889.367Zm.44-5.311a1.113,1.113,0,0,1,1.28,1.239,1.176,1.176,0,0,1-1.238,1.176,1.209,1.209,0,0,1-.042-2.415Z" fill="#231f20"/><path d="M608.786,887.268a5.328,5.328,0,0,1,2.731.819q1.258.725,1.259,3.023v4.683c0,.86.209,1.322.609,1.385a3.419,3.419,0,0,1,.944-.125c.483,0,.735.23.735.672,0,.482-.315.734-.944.734l-1.051-.1-1.07-.105h-.693c-.231.042-.42.063-.545.084l-1.072.084c-.545.063-.819-.168-.819-.651s.232-.713.693-.713h.294a1.624,1.624,0,0,1,.441.084h.127l.084.041c.314,0,.5-.209.588-.651a8.358,8.358,0,0,0,.041-.986v-4.305a2.229,2.229,0,0,0-1.26-2.225,3.323,3.323,0,0,0-1.448-.316,2.713,2.713,0,0,0-2.52,1.324,4.522,4.522,0,0,0-.483,2.288v3.486c0,.9.295,1.344.9,1.344l.252-.043.356-.041c.484,0,.736.23.736.672,0,.482-.294.734-.9.734l-1.008-.1-1.071-.105a7.992,7.992,0,0,0-1.175.105l-1.114.1q-.882,0-.881-.818c0-.42.231-.631.713-.631a3.071,3.071,0,0,1,.9.168.576.576,0,0,0,.588-.545,4.122,4.122,0,0,0,.063-.924v-5.586c0-.818-.211-1.217-.651-1.217l-.861.125c-.525,0-.777-.23-.777-.672a.94.94,0,0,1,.189-.5.973.973,0,0,1,.545-.314c.232,0,.946.252,1.3.252l1.154-.21c.315,0,.483.252.483.735v.5A4.336,4.336,0,0,1,608.786,887.268Z" fill="#231f20"/><path d="M616.2,895.834a1.953,1.953,0,0,1-.545-1.322,2.058,2.058,0,0,1,1.721-2.037,3.223,3.223,0,0,1-.566-1.805,3.031,3.031,0,0,1,.566-1.743,4.055,4.055,0,0,1,3.486-1.659,11.808,11.808,0,0,1,1.2.105,1.879,1.879,0,0,1,.713-1.574,2.732,2.732,0,0,1,1.7-.5,3.063,3.063,0,0,1,1.112.209,1.677,1.677,0,0,1,1.26,1.639.966.966,0,0,1-.294.8,2.4,2.4,0,0,1-.862.463.806.806,0,0,1-.314-1.554,1.043,1.043,0,0,0-.9-.42,1.019,1.019,0,0,0-.82.379,1.455,1.455,0,0,0-.336,1.07,3.552,3.552,0,0,1,1.638,2.939,3.36,3.36,0,0,1-2.394,3.254,4.238,4.238,0,0,1-1.616.316c-.357-.042-.861-.126-1.554-.232l-.545-.209-.547-.189-.441-.063a.458.458,0,0,0-.44.209l-.211.778c0,.693.861,1.029,2.583,1.029a5.955,5.955,0,0,1,.651-.043h.293c2.373,0,3.991.567,4.83,1.68a2.772,2.772,0,0,1,.545,1.679,2.819,2.819,0,0,1-1.888,2.688,8.555,8.555,0,0,1-3.487.631,6.415,6.415,0,0,1-4.429-1.3,2.946,2.946,0,0,1-.9-1.973,2.377,2.377,0,0,1,2.016-2.415v-.084A2.431,2.431,0,0,1,616.2,895.834Zm.967,3.15c0,.777.524,1.365,1.6,1.743a5.257,5.257,0,0,0,1.8.273c2.541,0,3.823-.651,3.823-1.975,0-1.259-1.156-1.888-3.444-1.888C618.427,897.137,617.167,897.745,617.167,898.984Zm3.611-6.026a2.822,2.822,0,0,0,1.743-.524,1.9,1.9,0,0,0,.8-1.576,1.94,1.94,0,0,0-1.28-1.952,3.165,3.165,0,0,0-1.219-.252,2.454,2.454,0,0,0-1.595.545,1.918,1.918,0,0,0-.693,1.512A2.15,2.15,0,0,0,620.778,892.958Z" fill="#231f20"/><path d="M646.46,897.283l.021.358c.041.692-.231,1.028-.819,1.028-.4,0-.63-.231-.735-.714l.084-1.26c-.84,1.386-2.393,2.078-4.64,2.078a5.132,5.132,0,0,1-4.22-2.246,8.475,8.475,0,0,1-1.595-5.291,10.224,10.224,0,0,1,.608-3.485,6.963,6.963,0,0,1,1.932-2.9,4.787,4.787,0,0,1,3-1.282l.944-.041a4.813,4.813,0,0,1,3.8,1.637l.043-.041v-.42c-.043-.127-.064-.211-.084-.273.041-.42.188-.672.461-.778h.252a.7.7,0,0,1,.777.82l-.021.692-.063.8-.084.84.042.336.126,1.763c.062.651-.21.987-.818.987-.568,0-.862-.294-.862-.9v-.631a3.033,3.033,0,0,0-1.847-2.96,4.312,4.312,0,0,0-1.89-.4,3.744,3.744,0,0,0-3.423,2.016,8.441,8.441,0,0,0-.965,4.3,8.166,8.166,0,0,0,.588,3.15,4.418,4.418,0,0,0,2.036,2.393,4.268,4.268,0,0,0,1.974.526,3.505,3.505,0,0,0,2.477-.967,3.41,3.41,0,0,0,.988-2.729l-.022-.567a.915.915,0,0,0-.986-.9l-.631.063-.44.064c-.525,0-.777-.274-.777-.82,0-.483.293-.714.861-.714l1.239.126q1.227.126,1.385.126l1.281-.146,1.386-.106a.766.766,0,0,1,.63.231.666.666,0,0,1,.23.483.715.715,0,0,1-.65.82,2.728,2.728,0,0,0-.778-.127c-.482,0-.756.357-.818,1.071l-.063.84-.063.714.126,2.078Z" fill="#231f20"/><path d="M652.257,889.787a.842.842,0,0,1,.357.8,1.069,1.069,0,0,1-1.154.986l-.252-.042a1.171,1.171,0,0,1-.756-.5,1.315,1.315,0,0,1-.315-.86,3.011,3.011,0,0,1,2.183-2.562,4.21,4.21,0,0,1,1.806-.357l.441.021c1.785.084,2.918.714,3.38,1.869a4.164,4.164,0,0,1,.357,2.057l-.125,4.388c-.022,1.051.23,1.659.776,1.848.524-.125.776-.629.776-1.512v-.734c0-.651.232-.987.672-.987.484,0,.736.231.736.693v1.973c-.126,1.218-.861,1.826-2.226,1.826a2.643,2.643,0,0,1-1.386-.377,1.391,1.391,0,0,1-.776-1.134,3.606,3.606,0,0,1-3.4,1.6,4.857,4.857,0,0,1-2.246-.524,2.611,2.611,0,0,1-1.512-1.638l-.19-.986a2.963,2.963,0,0,1,2.016-2.919,6.72,6.72,0,0,1,1.512-.356l1.806-.232a3,3,0,0,0,1.2-.315,1.326,1.326,0,0,0,.651-1.217,1.745,1.745,0,0,0-1.2-1.659,2.618,2.618,0,0,0-1.05-.232,3.4,3.4,0,0,0-1.848.484.716.716,0,0,0-.378.5Zm2.751,3.717-1.848.294a3.189,3.189,0,0,0-1.344.462,1.792,1.792,0,0,0-.651,1.238c0,1.239.735,1.848,2.227,1.848a4.628,4.628,0,0,0,1.847-.441,2.487,2.487,0,0,0,1.217-1.911c.022-.188.064-.608.084-1.217l.043-.945A2.876,2.876,0,0,1,655.008,893.5Z" fill="#231f20"/><path d="M667.985,887.311a3.167,3.167,0,0,1,3.024,1.511,3.4,3.4,0,0,1,1.574-1.176,5.236,5.236,0,0,1,1.953-.378,3.541,3.541,0,0,1,3.338,1.659,4.054,4.054,0,0,1,.525,2.183V896c0,.715.231,1.092.694,1.135a3.121,3.121,0,0,1,.9-.127.584.584,0,0,1,.651.672c0,.525-.315.777-.945.777l-2.12-.21a6.83,6.83,0,0,0-1.008.105l-1.135.1c-.65,0-.986-.252-.986-.734a.641.641,0,0,1,.735-.715,1.981,1.981,0,0,1,.861.127c.482,0,.714-.379.714-1.135V891.93c0-2.163-.82-3.235-2.478-3.235a2.23,2.23,0,0,0-1.994,1.008,3.958,3.958,0,0,0-.588,2.268v3.99c0,.776.231,1.176.672,1.176a4.62,4.62,0,0,1,.86-.084c.484,0,.736.209.736.629,0,.525-.316.777-.946.777l-1.049-.1-1.092-.105a7.163,7.163,0,0,0-1.071.105l-1.092.1c-.629,0-.945-.294-.945-.861.042-.4.294-.588.736-.588.524,0,.818.043.9.127.441-.043.65-.4.65-1.092V891.11a2.116,2.116,0,0,0-2.372-2.415,2.289,2.289,0,0,0-2.079,1.092,4.312,4.312,0,0,0-.588,2.395v3.611c0,.86.211,1.322.61,1.385a2.308,2.308,0,0,1,.9-.168.71.71,0,0,1,.547.211.824.824,0,0,1,.188.545c0,.463-.335.693-1.007.693l-1.576-.21h-.482c.042,0-.336.042-1.113.126l-1.071.126c-.609,0-.923-.252-.923-.776a.64.64,0,0,1,.734-.715,2.4,2.4,0,0,1,.819.127.67.67,0,0,0,.693-.631,8.49,8.49,0,0,0,.043-1.049v-5.418a2.245,2.245,0,0,0-.127-.86.584.584,0,0,0-.567-.273,3.154,3.154,0,0,0-.9.147c-.441,0-.672-.252-.672-.778a.792.792,0,0,1,.756-.734c.188,0,.818.252,1.049.252l.715-.105.692-.105c.315,0,.483.42.483,1.239A3.528,3.528,0,0,1,667.985,887.311Z" fill="#231f20"/><path d="M683.064,893.714a3.482,3.482,0,0,0,.988,2.54,3.216,3.216,0,0,0,2.435,1.135,2.9,2.9,0,0,0,2.96-2.415.7.7,0,0,1,.736-.63.809.809,0,0,1,.588.21.913.913,0,0,1,.23.651,3.007,3.007,0,0,1-1.658,2.666,6,6,0,0,1-3.213.9,4.329,4.329,0,0,1-4.073-2.6,7.209,7.209,0,0,1-.693-3.3,6.276,6.276,0,0,1,.693-2.96,4.252,4.252,0,0,1,2.141-2.1,5.365,5.365,0,0,1,2.121-.546,4.852,4.852,0,0,1,4.892,5.039,1.708,1.708,0,0,1-.105.735c-.105.147-.315.21-.671.21h-7.35Zm5.439-4.3a3.183,3.183,0,0,0-2.143-.715,2.929,2.929,0,0,0-2.56,1.408,2.779,2.779,0,0,0-.5,1.616h6.193A2.894,2.894,0,0,0,688.5,889.41Z" fill="#231f20"/><path d="M706.205,888.57c0,.525-.294.777-.9.777h-1.385c-.231,0-.357.1-.379.294v6.32c0,.65.252.986.777,1.049l.9-.041c.4-.022.609.188.609.629a.877.877,0,0,1-.23.651,1.2,1.2,0,0,1-.694.168l-.924-.084c-.609-.063-.965-.084-1.091-.084l-.8.042-1.092.042c-.944.021-1.428-.21-1.428-.735.042-.293.1-.483.21-.545a.59.59,0,0,1,.442-.148l.986.105a.732.732,0,0,0,.5-.252,1.39,1.39,0,0,0,.146-.8l.043-6.11c0-.336-.147-.5-.42-.5h-1.007c-.547,0-.82-.252-.82-.736,0-.545.252-.818.736-.818h1.132c.252,0,.379-.147.379-.462,0-2.54,1.2-3.8,3.569-3.8a4.064,4.064,0,0,1,1.953.441,1.749,1.749,0,0,1,1.008,1.6q0,.914-1.071,1.072a.972.972,0,0,1-.987-.9,2.1,2.1,0,0,1,.21-.567c-.168-.23-.525-.336-1.07-.336a1.7,1.7,0,0,0-1.512.756,2.882,2.882,0,0,0-.463,1.723c0,.314.064.46.211.482H705.3C705.911,887.793,706.205,888.045,706.205,888.57Z" fill="#231f20"/><path d="M708.978,890.082a4.686,4.686,0,0,1,2.709-2.52,5.167,5.167,0,0,1,1.763-.294,4.837,4.837,0,0,1,3.863,1.575,6,6,0,0,1,1.3,4.031c0,2.436-.86,4.179-2.582,5.207a4.823,4.823,0,0,1-2.5.692,5.161,5.161,0,0,1-2.6-.671,4.419,4.419,0,0,1-1.848-1.973,6.708,6.708,0,0,1-.651-3.108l.02-.714A5.691,5.691,0,0,1,708.978,890.082Zm6.109,6.823c1.2-.672,1.807-1.952,1.807-3.863,0-2.079-.61-3.443-1.807-4.052a3.2,3.2,0,0,0-1.385-.295,3.081,3.081,0,0,0-3.107,1.869,5.525,5.525,0,0,0-.463,2.31l.043.042a5.85,5.85,0,0,0,.692,2.981,2.716,2.716,0,0,0,2.5,1.449A3.445,3.445,0,0,0,715.087,896.905Z" fill="#231f20"/><path d="M728.212,890a1.212,1.212,0,0,0-.65-1.071,2.394,2.394,0,0,0-1.282-.357c-1.721,0-2.582,1.281-2.582,3.821V895.1a5.1,5.1,0,0,0,.147,1.6.538.538,0,0,0,.546.442,3.209,3.209,0,0,1,.944-.127.657.657,0,0,1,.735.715c.021.42-.483.734-.9.734l-.986-.1c-.315-.042-.567-.084-.756-.105h-.462a6.9,6.9,0,0,0-.987.105l-1.113.1q-1.071,0-1.071-.818c0-.358.42-.631.777-.631a2.4,2.4,0,0,1,.819.127.632.632,0,0,0,.631-.358A2.257,2.257,0,0,0,722.1,896v-5.711c0-.965-.232-1.428-.715-1.385l-.293.021-.316.042-.483.062c-.525,0-.776-.23-.776-.672a.871.871,0,0,1,.86-.818l.631.126a6.367,6.367,0,0,0,.672.126l.608-.105.588-.105c.378,0,.567.42.567,1.239a3.487,3.487,0,0,1,3-1.554,3.325,3.325,0,0,1,2.918,1.386,2.848,2.848,0,0,1,.484,1.6c0,1.2-.441,1.91-1.324,2.1l-.356.084a1.331,1.331,0,0,1-1.239-.988.926.926,0,0,1,.861-.944l.168.02.126.021A1.221,1.221,0,0,0,728.212,890Z" fill="#231f20"/><path d="M745.181,897.262c-.19.9-.588,1.365-1.219,1.365a1.232,1.232,0,0,1-1.364-.986l-2.751-11.57a1.052,1.052,0,0,0-1.176-.819l-.713.084a.723.723,0,0,1-.819-.818c0-.483.4-.714,1.2-.714a12.271,12.271,0,0,1,1.387.1l1.112.148,1.512-.105c.147-.021.42-.043.819-.084a5.729,5.729,0,0,1,.672-.021c.734,0,1.092.252,1.092.756,0,.482-.295.734-.9.734l-.567-.063-.44-.062h-.378c-.567,0-.862.272-.862.818l.084.336,1.975,9.91,2.2-11.064c.188-1.008.63-1.512,1.28-1.512.967,0,1.533.4,1.68,1.217l2.121,11.569,2.058-10.372c.02-.65-.294-.966-.945-.9L751,885.3a.92.92,0,0,1-.588-.168.67.67,0,0,1-.188-.525c0-.5.377-.756,1.112-.756.064,0,.524.042,1.344.126l1.239.126a9.71,9.71,0,0,0,1.3-.126,10.268,10.268,0,0,1,1.323-.126c.714,0,1.071.273,1.071.8a.566.566,0,0,1-.211.5,1.469,1.469,0,0,1-.566.148l-.65-.043a.93.93,0,0,0-1.072.777l-2.667,11.36c-.188.86-.65,1.28-1.364,1.28a1.2,1.2,0,0,1-.966-.546,2.492,2.492,0,0,1-.462-1.07l-2.141-11.318Z" fill="#231f20"/><path d="M760.175,889.367a.6.6,0,0,0-.651-.42l-.861.084a.711.711,0,0,1-.713-.84.766.766,0,0,1,.8-.65c.336,0,1.176.252,1.512.252l.525-.105.5-.105c.378,0,.566.294.566.9v7.789c0,.5.19.8.568.862l.735-.127c.525,0,.8.231.8.715s-.336.734-1.028.734l-1.974-.21a6.353,6.353,0,0,0-1.008.105l-1.049.1q-.945,0-.945-.818c0-.42.231-.631.713-.631a2.392,2.392,0,0,1,.819.127c.525,0,.777-.442.777-1.344V890.25A2.749,2.749,0,0,0,760.175,889.367Zm.441-5.311A1.114,1.114,0,0,1,761.9,885.3a1.177,1.177,0,0,1-1.239,1.176,1.209,1.209,0,0,1-.042-2.415Z" fill="#231f20"/><path d="M771.577,887.268a5.324,5.324,0,0,1,2.729.819q1.26.725,1.259,3.023v4.683c0,.86.211,1.322.61,1.385a3.426,3.426,0,0,1,.945-.125c.483,0,.734.23.734.672,0,.482-.314.734-.945.734l-1.049-.1-1.071-.105H774.1c-.232.042-.42.063-.547.084l-1.071.084c-.545.063-.818-.168-.818-.651s.231-.713.693-.713h.293a1.642,1.642,0,0,1,.442.084h.125l.084.041c.315,0,.5-.209.588-.651a7.968,7.968,0,0,0,.043-.986v-4.305a2.229,2.229,0,0,0-1.26-2.225,3.327,3.327,0,0,0-1.449-.316,2.715,2.715,0,0,0-2.52,1.324,4.533,4.533,0,0,0-.482,2.288v3.486c0,.9.293,1.344.9,1.344l.252-.043.357-.041c.483,0,.735.23.735.672,0,.482-.294.734-.9.734l-1.008-.1-1.072-.105a8.013,8.013,0,0,0-1.175.105l-1.113.1q-.882,0-.882-.818c0-.42.231-.631.714-.631a3.07,3.07,0,0,1,.9.168.576.576,0,0,0,.588-.545,4.144,4.144,0,0,0,.062-.924v-5.586c0-.818-.209-1.217-.65-1.217l-.862.125c-.524,0-.776-.23-.776-.672a.954.954,0,0,1,.188-.5.975.975,0,0,1,.547-.314c.231,0,.945.252,1.3.252l1.155-.21c.316,0,.484.252.484.735v.5A4.334,4.334,0,0,1,771.577,887.268Z" fill="#231f20"/><path d="M786.172,886.471c.02-.715-.084-1.156-.294-1.344a.431.431,0,0,0-.315-.084,2.261,2.261,0,0,0-.861.125c-.546,0-.818-.252-.818-.734a.744.744,0,0,1,.734-.735h.442a2.622,2.622,0,0,1,.377.105l.651.084.126.042.546-.126c.336-.064.546-.105.608-.105.295,0,.442.293.442.861v11.19c0,.924.21,1.407.609,1.471a.494.494,0,0,1,.168-.022c.1-.042.188-.084.252-.1l.44-.084c.525,0,.777.231.777.715s-.209.734-.651.734l-.672-.1c-.4-.063-.629-.105-.671-.105a1.782,1.782,0,0,0-.546.105l-.525.1a.618.618,0,0,1-.547-.23,1.9,1.9,0,0,1-.188-.631l.042-.336a3.83,3.83,0,0,1-3.4,1.511,4.488,4.488,0,0,1-2.415-.692,5.074,5.074,0,0,1-2.162-3.233,5.966,5.966,0,0,1-.189-1.512v-.252l-.021-.252a3.6,3.6,0,0,1-.02-.42,5.7,5.7,0,0,1,.776-2.793,4.26,4.26,0,0,1,3.947-2.351,5.084,5.084,0,0,1,1.912.336,2.294,2.294,0,0,1,1.406,1.218Zm-5.607,9.426a2.979,2.979,0,0,0,5.061.084,6.751,6.751,0,0,0,.546-3.023c0-2.835-1.071-4.263-3.192-4.263a2.759,2.759,0,0,0-1.553.484,3.923,3.923,0,0,0-1.49,2.456,4.762,4.762,0,0,0-.127,1.113.392.392,0,0,1,.043.21A5.6,5.6,0,0,0,780.565,895.9Z" fill="#231f20"/><path d="M791.149,890.082a4.692,4.692,0,0,1,2.709-2.52,5.178,5.178,0,0,1,1.764-.294,4.837,4.837,0,0,1,3.863,1.575,6,6,0,0,1,1.3,4.031c0,2.436-.86,4.179-2.582,5.207a4.823,4.823,0,0,1-2.5.692,5.161,5.161,0,0,1-2.6-.671,4.419,4.419,0,0,1-1.848-1.973,6.708,6.708,0,0,1-.651-3.108l.02-.714A5.708,5.708,0,0,1,791.149,890.082Zm6.11,6.823c1.2-.672,1.806-1.952,1.806-3.863,0-2.079-.609-3.443-1.806-4.052a3.2,3.2,0,0,0-1.385-.295,3.081,3.081,0,0,0-3.107,1.869,5.525,5.525,0,0,0-.463,2.31l.043.042a5.85,5.85,0,0,0,.692,2.981,2.715,2.715,0,0,0,2.5,1.449A3.445,3.445,0,0,0,797.259,896.905Z" fill="#231f20"/><path d="M806.751,898.689c-.692,0-1.2-.524-1.469-1.552l-1.974-7.454a1.859,1.859,0,0,0-.209-.609.488.488,0,0,0-.442-.168l-.21.021-.231.042-.336.062a.985.985,0,0,1-.567-.252.648.648,0,0,1-.251-.545c0-.441.377-.651,1.113-.651.146,0,.566.042,1.26.105l.944.105,2.183-.21c.546,0,.82.21.82.651,0,.545-.295.819-.861.819a3.4,3.4,0,0,0-.9-.147c-.4,0-.609.231-.609.693l.042.252.02.188,1.68,7.1,1.764-7.916c.252-1.155.756-1.722,1.491-1.722a1.26,1.26,0,0,1,1.071.5,3.4,3.4,0,0,1,.4,1.176l1.679,7.958,1.68-6.887.084-.693c0-.442-.19-.651-.566-.651l-.588.063-.4.062c-.524,0-.776-.272-.776-.84,0-.4.377-.608,1.112-.608a7.406,7.406,0,0,1,1.176.105l1.028.105a7.092,7.092,0,0,0,1.03-.105l.945-.147c.65,0,.986.23.986.693a.756.756,0,0,1-.672.8l-.378-.062-.483-.063c-.356,0-.672.525-.944,1.553l-1.785,6.678a2.907,2.907,0,0,1-.483,1.133,1.252,1.252,0,0,1-1.008.419,1.15,1.15,0,0,1-1.008-.5,5.67,5.67,0,0,1-.545-1.575l-1.554-7.432-1.722,7.726C808.011,898.1,807.507,898.689,806.751,898.689Z" fill="#231f20"/><path d="M825.987,887.793c0-.441.252-.65.777-.65.44,0,.63.252.608.776l-.041.651-.063.609.02.21.084,1.406c.022.588-.188.883-.65.883a.6.6,0,0,1-.567-.295,1.772,1.772,0,0,1-.189-.8,1.745,1.745,0,0,0-.106-.693c-.02-.147-.146-.294-.4-.483a2.681,2.681,0,0,0-1.932-.715,2.358,2.358,0,0,0-2.015.967,1.564,1.564,0,0,0-.378.965,1.287,1.287,0,0,0,.84,1.135,7.328,7.328,0,0,0,1.847.461c1.2.189,1.89.315,2.036.336a3.5,3.5,0,0,1,1.512.861c.42.273.631.882.631,1.869a3.149,3.149,0,0,1-2.247,3.065,5.805,5.805,0,0,1-2.142.419,4.441,4.441,0,0,1-3.045-1.048l.064.4q0,.819-.756.818c-.524,0-.776-.4-.776-1.175l.146-.924.063-.651-.084-.566-.125-.777a.27.27,0,0,0-.043-.168c0-.546.252-.819.735-.819a.573.573,0,0,1,.588.336,6.1,6.1,0,0,1,.168.987,2.98,2.98,0,0,0,.188.923,3.554,3.554,0,0,0,2.247,1.134,5.56,5.56,0,0,0,.9.105,5.348,5.348,0,0,0,1.72-.5,1.429,1.429,0,0,0,.672-1.3,1.518,1.518,0,0,0-1.28-1.533,11.487,11.487,0,0,0-1.176-.231l-1.2-.168a4.287,4.287,0,0,1-2.709-1.343,2.108,2.108,0,0,1-.5-1.576l.042-.524a2.632,2.632,0,0,1,.8-1.639,3.828,3.828,0,0,1,1.574-.965,5.326,5.326,0,0,1,1.659-.294,3.7,3.7,0,0,1,2.54.735Z" fill="#231f20"/><path d="M845.685,887.457a3.918,3.918,0,0,1-2.624-1.008,3.588,3.588,0,0,0-2.205-1.029c-.819,0-1.239.631-1.239,1.891a5.86,5.86,0,0,0,.126,1.007,5.67,5.67,0,0,1,.126.987.792.792,0,0,1-.9.9c-.525,0-.777-.272-.777-.818a7.641,7.641,0,0,1,.105-1.218l.105-1.28-.105-1.24-.105-.965c0-.778.273-1.155.82-1.155.4,0,.566.293.524.861l-.063.735.043.02a2.261,2.261,0,0,1,1.994-1.448,2.806,2.806,0,0,1,1.218.252,6.231,6.231,0,0,1,.776.441,6.97,6.97,0,0,1,.588.42c.211.147.609.419,1.176.819a3.376,3.376,0,0,0,.966.4.884.884,0,0,1,.293.042,1.724,1.724,0,0,0,.8-.231.731.731,0,0,0,.336-.461c-.609,0-.945-.252-1.029-.777a1.106,1.106,0,0,1,1.154-1.03,1.188,1.188,0,0,1,1.071.672,2.927,2.927,0,0,1,.294,1.323,4.554,4.554,0,0,1-.441,2.058,6.666,6.666,0,0,1-1.28,1.658l-1.7,1.659a7.242,7.242,0,0,0-1.912,5.439v.84c0,1.008-.378,1.511-1.112,1.511q-1.072,0-1.071-1.827a9.444,9.444,0,0,1,1.616-5.585,9.261,9.261,0,0,1,1.428-1.574l1.386-1.219.567-.524a8.147,8.147,0,0,0,.63-.608,1.035,1.035,0,0,0,.272-.547l-.041-.041A2.152,2.152,0,0,1,845.685,887.457Z" fill="#231f20"/><path d="M858.326,882.46l.5-.042c.273-.022.4.062.4.252v.126L852.8,899.488a.492.492,0,0,1-.5.315h-.651c-.23,0-.378-.084-.42-.231l.042-.084,6.572-16.86C857.864,882.544,858.011,882.48,858.326,882.46Z" fill="#231f20"/><path d="M863.136,888.927a3.486,3.486,0,0,1-.377-.924,2.853,2.853,0,0,1-.064-.672,3.515,3.515,0,0,1,2.163-3.191,5.6,5.6,0,0,1,2.666-.609c2.038,0,3.422.609,4.158,1.805a3.383,3.383,0,0,1,.524,1.848,3.085,3.085,0,0,1-2.225,2.982,4.493,4.493,0,0,1,2.792,2.2,3.25,3.25,0,0,1,.378,1.532,4.4,4.4,0,0,1-2.855,4.284,6.814,6.814,0,0,1-2.856.587c-2.373,0-4.073-.8-5.081-2.372a4.11,4.11,0,0,1-.692-2.2,3.892,3.892,0,0,1,.881-2.478,5.141,5.141,0,0,1,2.142-1.553A4.59,4.59,0,0,1,863.136,888.927Zm1.617,7.474a4.4,4.4,0,0,0,2.813.861,3.76,3.76,0,0,0,2.583-.9,3.092,3.092,0,0,0,1.113-2.457,2.413,2.413,0,0,0-.652-1.679,3.43,3.43,0,0,0-1.552-.965,6.386,6.386,0,0,0-1.975-.274,3.865,3.865,0,0,0-2.309.778,2.445,2.445,0,0,0-1.2,2.015A3.207,3.207,0,0,0,864.753,896.4Zm.756-7.516a3.824,3.824,0,0,0,1.973.462,3.391,3.391,0,0,0,1.953-.525,1.916,1.916,0,0,0,.923-1.679,1.722,1.722,0,0,0-.964-1.6,3.676,3.676,0,0,0-1.912-.463,3.978,3.978,0,0,0-1.407.252,1.991,1.991,0,0,0-1.553,1.891A1.813,1.813,0,0,0,865.509,888.885Z" fill="#231f20"/><path d="M882.9,882.46l.5-.042c.273-.022.4.062.4.252v.126l-6.426,16.692a.492.492,0,0,1-.5.315h-.65c-.231,0-.378-.084-.42-.231l.042-.084,6.571-16.86C882.435,882.544,882.581,882.48,882.9,882.46Z" fill="#231f20"/><path d="M895.79,886.975a3.229,3.229,0,0,0,.168-.862c0-.63-.295-.924-.9-.861l-.988.084a.772.772,0,0,1-.86-.776c0-.484.356-.714,1.071-.714a3.9,3.9,0,0,1,.525.021c.126.021.356.041.692.084l1.2.105.946-.084c.629-.064,1.008-.084,1.154-.084.693,0,1.029.272,1.029.8,0,.357-.211.587-.631.65-.062-.063-.252-.084-.566-.084-.273,0-.441.189-.525.567L894.026,897.6a2.333,2.333,0,0,0-.147.336.966.966,0,0,1-.336.42,1.105,1.105,0,0,1-.819.273,1.318,1.318,0,0,1-1.407-.9l-4.093-11.486a1.49,1.49,0,0,0-.484-.8.763.763,0,0,0-.672-.23l-.315.02-.357.042-.461.063a.694.694,0,0,1-.315-1.3,2.058,2.058,0,0,1,.924-.189,10.747,10.747,0,0,1,1.448.105l1.386.105,1.05-.105,1.323-.147c.818,0,1.238.272,1.238.8,0,.419-.294.671-.861.734a5.371,5.371,0,0,0-1.028-.084.752.752,0,0,0-.82.735l.084.378,3.36,10.246Z" fill="#231f20"/><path d="M902.384,889.367a.6.6,0,0,0-.651-.42l-.861.084a.711.711,0,0,1-.713-.84.766.766,0,0,1,.8-.65c.336,0,1.176.252,1.512.252l.525-.105.5-.105c.378,0,.566.294.566.9v7.789c0,.5.19.8.568.862l.735-.127c.525,0,.8.231.8.715s-.336.734-1.028.734l-1.974-.21a6.353,6.353,0,0,0-1.008.105l-1.049.1q-.945,0-.945-.818c0-.42.231-.631.713-.631a2.392,2.392,0,0,1,.819.127c.525,0,.777-.442.777-1.344V890.25A2.749,2.749,0,0,0,902.384,889.367Zm.441-5.311a1.114,1.114,0,0,1,1.281,1.239,1.177,1.177,0,0,1-1.239,1.176,1.209,1.209,0,0,1-.042-2.415Z" fill="#231f20"/><path d="M914.1,887.793c0-.441.251-.65.776-.65.44,0,.63.252.608.776l-.041.651-.063.609.02.21.084,1.406c.022.588-.188.883-.65.883a.6.6,0,0,1-.566-.295,1.77,1.77,0,0,1-.19-.8,1.752,1.752,0,0,0-.105-.693c-.021-.147-.147-.294-.4-.483a2.681,2.681,0,0,0-1.931-.715,2.358,2.358,0,0,0-2.016.967,1.564,1.564,0,0,0-.378.965,1.287,1.287,0,0,0,.84,1.135,7.34,7.34,0,0,0,1.847.461c1.2.189,1.89.315,2.037.336a3.5,3.5,0,0,1,1.511.861c.42.273.631.882.631,1.869a3.149,3.149,0,0,1-2.247,3.065,5.8,5.8,0,0,1-2.142.419,4.436,4.436,0,0,1-3.044-1.048l.063.4q0,.819-.756.818c-.524,0-.776-.4-.776-1.175l.146-.924.063-.651-.084-.566-.125-.777a.27.27,0,0,0-.043-.168c0-.546.252-.819.735-.819a.573.573,0,0,1,.588.336,5.881,5.881,0,0,1,.168.987,2.973,2.973,0,0,0,.189.923,3.548,3.548,0,0,0,2.247,1.134,5.538,5.538,0,0,0,.9.105,5.361,5.361,0,0,0,1.721-.5,1.431,1.431,0,0,0,.672-1.3,1.518,1.518,0,0,0-1.281-1.533,11.487,11.487,0,0,0-1.176-.231l-1.2-.168a4.29,4.29,0,0,1-2.709-1.343,2.108,2.108,0,0,1-.5-1.576l.042-.524a2.637,2.637,0,0,1,.8-1.639,3.834,3.834,0,0,1,1.574-.965,5.332,5.332,0,0,1,1.66-.294,3.706,3.706,0,0,1,2.54.735Z" fill="#231f20"/><path d="M921.032,887.541h2.414c.568,0,.862.252.862.734,0,.526-.336.778-.987.778h-2.205c-.23,0-.336.105-.336.294v5.459a3.658,3.658,0,0,0,.252,1.553,1.326,1.326,0,0,0,1.3.694,1.244,1.244,0,0,0,1.26-.694,3.88,3.88,0,0,0,.21-1.553v-.652c0-.776.273-1.154.8-1.154q.818,0,.819,1.2c0,1.952-.442,3.212-1.323,3.821a3.517,3.517,0,0,1-2.058.525c-1.91,0-2.855-1.176-2.855-3.527v-5.333c0-.42-.19-.63-.546-.63H918.2c-.651,0-.987-.252-.987-.735a.788.788,0,0,1,.776-.777h.862c.23,0,.336-.168.336-.482v-2.1a.913.913,0,0,1,.21-.631.939.939,0,0,1,.567-.23.9.9,0,0,1,.588.189.931.931,0,0,1,.23.629v2.352C920.78,887.457,920.864,887.541,921.032,887.541Z" fill="#231f20"/><path d="M928.948,889.787a.84.84,0,0,1,.358.8,1.069,1.069,0,0,1-1.155.986l-.252-.042a1.166,1.166,0,0,1-.755-.5,1.316,1.316,0,0,1-.316-.86,3.012,3.012,0,0,1,2.184-2.562,4.2,4.2,0,0,1,1.805-.357l.442.021c1.784.084,2.918.714,3.38,1.869a4.165,4.165,0,0,1,.356,2.057l-.125,4.388c-.021,1.051.231,1.659.776,1.848.525-.125.777-.629.777-1.512v-.734c0-.651.231-.987.672-.987.483,0,.735.231.735.693v1.973c-.126,1.218-.86,1.826-2.226,1.826a2.642,2.642,0,0,1-1.385-.377,1.39,1.39,0,0,1-.777-1.134,3.6,3.6,0,0,1-3.4,1.6,4.857,4.857,0,0,1-2.246-.524,2.617,2.617,0,0,1-1.512-1.638l-.189-.986a2.963,2.963,0,0,1,2.015-2.919,6.72,6.72,0,0,1,1.512-.356l1.807-.232a2.992,2.992,0,0,0,1.2-.315,1.326,1.326,0,0,0,.651-1.217,1.745,1.745,0,0,0-1.2-1.659,2.614,2.614,0,0,0-1.05-.232,3.4,3.4,0,0,0-1.847.484.711.711,0,0,0-.378.5ZM931.7,893.5l-1.847.294a3.178,3.178,0,0,0-1.344.462,1.789,1.789,0,0,0-.652,1.238c0,1.239.736,1.848,2.227,1.848a4.632,4.632,0,0,0,1.848-.441,2.489,2.489,0,0,0,1.216-1.911c.022-.188.064-.608.084-1.217l.043-.945A2.873,2.873,0,0,1,931.7,893.5Z" fill="#231f20"/><g id="上海_アリス幻樂団" data-name="上海■アリス幻樂団"><path d="M950.14,934.589c-.406.03-.86.118-1.249.118a2.067,2.067,0,0,1-.308-.029,2.732,2.732,0,0,1-1.963-1.579,4.171,4.171,0,0,1,1.281-.325c1.282-.207,2.774-.265,4.267-.442-.065-1.461-.2-3.335-.2-5.135a17.9,17.9,0,0,1,.243-3.335,2.24,2.24,0,0,1,.357-1.106,1.961,1.961,0,0,1,.746.191,2.357,2.357,0,0,1,1.168,1.476,4.307,4.307,0,0,1,.049.649c0,.546-.082,1.107-.082,1.667,0,.193.017.369.033.561.876-.015,1.655-.561,2.676-.561h.032a2.419,2.419,0,0,1,1.379.473c.26.162.746.531.746.944,0,.03-.015.073-.015.1-.066.3-.795.487-1.119.576a10.3,10.3,0,0,1-1.379.221h-.228a6.386,6.386,0,0,1-2.141-.517c-.065,1.2-.048,2.45-.146,3.6.827-.03,1.784-.089,2.709-.089a7.256,7.256,0,0,1,3.553.635,1.3,1.3,0,0,1,.68.871c0,.531-.7.826-1.379.826-.437,0-.891-.089-1.345-.1-.779-.044-1.573-.058-2.368-.058a43.139,43.139,0,0,0-4.672.235Z" fill="#231f20"/><path d="M950.124,942.655c0,.546-.616.93-1.266.93a1.3,1.3,0,0,1-.421-.06,4.56,4.56,0,0,1-1.167-.648,4.136,4.136,0,0,1-.91-.8,3.077,3.077,0,0,1,1.882-.635,1.9,1.9,0,0,1,.292.015c.746.074,1.558.546,1.59,1.151Zm6.7,7.614c-.7,0-1.021-.856-1.735-.915.2-.192.471-.325.6-.576-1.3-.117-2.547-.191-3.228-.811a1.9,1.9,0,0,1-.633-.959.962.962,0,0,1-.016-.206,9.535,9.535,0,0,1,.113-.974,2.223,2.223,0,0,1-.308.015,1.43,1.43,0,0,1-1.217-.531,1.871,1.871,0,0,0-.145.782c0,.25.032.515.032.766a2.026,2.026,0,0,1-.016.311,3.511,3.511,0,0,1-1.054,2.183,1.008,1.008,0,0,1-.552.177,2,2,0,0,1-.925-.295c-.194-.118-.584-.383-.633-.62a.49.49,0,0,1-.015-.147,1.917,1.917,0,0,1,.518-1.018,7.965,7.965,0,0,1,2.6-2.42c-.065-.133-.211-.3-.211-.458,0-.014.017-.044.017-.058.064-.222.746-.369,1.07-.428.373-.089.859-.133,1.184-.192.162-.546.259-1.166.47-1.682a2.282,2.282,0,0,1,.909-1.3c.292.029.519.295.81.325.13,0,.439-.1.633-.133a10.847,10.847,0,0,1,2.385-.443,3.2,3.2,0,0,1,.746.074,2.919,2.919,0,0,1,1.752,1.431,1.132,1.132,0,0,1,.064.4,6.106,6.106,0,0,1-.13.915,2.379,2.379,0,0,1,1.315.517,1.121,1.121,0,0,1,.4.768.592.592,0,0,1-.146.368,1.473,1.473,0,0,1-1.022.265c-.292,0-.6-.029-.859-.044-.13.561-.292,1.092-.439,1.609a1.32,1.32,0,0,1,.779,1.328c0,.059-.016.133-.016.206a4.055,4.055,0,0,1-1.509.369,5.85,5.85,0,0,1-.665.812,1.953,1.953,0,0,1-.859.59Zm-8.71-12.792c1.168,0,2.579.6,2.774,1.592a.621.621,0,0,1,.016.163,1,1,0,0,1-1.006.959.965.965,0,0,1-.292-.045c-1.038-.309-1.573-1.785-1.848-2.655A3.027,3.027,0,0,1,948.112,937.477Zm6.57,1.372a20.682,20.682,0,0,1,3.325-.517,2.874,2.874,0,0,1,1.752.487.779.779,0,0,1,.292.619.617.617,0,0,1-.292.546,4.246,4.246,0,0,1-1.234.266c-.891.089-1.767.133-2.708.207-.34.029-.7.059-1.022.059a1.368,1.368,0,0,1-1.054-.325c-.487.472-1.265.694-1.7,1.225a2.879,2.879,0,0,1-.1-.738,6.5,6.5,0,0,1,.584-2.317,6.271,6.271,0,0,1,.99-1.726c.065-.088.324-.324.422-.324h.016a1.7,1.7,0,0,1,.989.4,1.426,1.426,0,0,1,.6.915v.059c-.016.221-.308.442-.422.59Zm.048,6.683c-.389.015-.567.045-.989.074a1.254,1.254,0,0,0-.179.635v.059a1.451,1.451,0,0,0,.892.354,5.185,5.185,0,0,0,.276-1.077Zm.308-2.553a.644.644,0,0,0-.048-.25,3.427,3.427,0,0,0-.6.177c-.081.251-.162.517-.227.782a7.082,7.082,0,0,0,.811-.074C954.974,943.438,955.038,943.187,955.038,942.979Zm2.466,2.333a7.072,7.072,0,0,0-.989.073,13.1,13.1,0,0,1-.649,1.475c.21,0,.438.015.649.015a1.485,1.485,0,0,0,.454-.044A4.89,4.89,0,0,0,957.5,945.312Zm.438-3.026c-.146-.015-.308-.029-.455-.029a4.669,4.669,0,0,0-1.411.222c.439.087.779.324.779.751a1.225,1.225,0,0,1-.048.326,7.36,7.36,0,0,0,1.021-.075,4.992,4.992,0,0,0,.114-1.032Z" fill="#231f20"/><path d="M950.772,963.839c-.388,0-1.021.044-1.622.044a2.686,2.686,0,0,1-1.573-.28,2.145,2.145,0,0,1-.243-1.269c0-.531.049-1.106.049-1.5v-8c0-.634.064-1.092.778-1.18a8.819,8.819,0,0,1,1.119-.059c.7,0,1.444.045,2.109.045h6.375c.437,0,.94-.031,1.426-.031a2.331,2.331,0,0,1,1.477.3,1.646,1.646,0,0,1,.179.974v9.649c0,.546-.034,1-.39,1.225a2.822,2.822,0,0,1-.908.089Z" fill="#231f20"/><path d="M935.148,927.625a8.829,8.829,0,0,1-1,.251h-.115a2.726,2.726,0,0,1-1.07-.3,2.525,2.525,0,0,1-1.313-1.225,2.788,2.788,0,0,1,.81-.442,24.051,24.051,0,0,1,3.163-.9,27.787,27.787,0,0,1,4.769-.826,4.274,4.274,0,0,1,.438-.015,4.393,4.393,0,0,1,2.806.8,2.212,2.212,0,0,1,1.038,1.564v.1a2.822,2.822,0,0,1-.859,1.328,9.8,9.8,0,0,1-2.515,1.977c-.486.266-.827.428-.989.5a3.7,3.7,0,0,1-1.119.31,11.959,11.959,0,0,1-.811,3.659,2.33,2.33,0,0,1-.6.856,1.633,1.633,0,0,1-.842.163,4.963,4.963,0,0,0-1.9.353c.309-.649.6-1.254.844-1.874a11.694,11.694,0,0,0,.616-2.021,11.033,11.033,0,0,0,.179-2.14,11.2,11.2,0,0,0-.228-2.4Zm6.131-1.019c-.308-.029-.5-.044-.7-.044a9.243,9.243,0,0,0-2.547.428,5.151,5.151,0,0,1,.844,1.048,2.747,2.747,0,0,1,.13,1v.266A5.9,5.9,0,0,0,941.279,926.606Z" fill="#231f20"/><path d="M936.511,943.658a4.566,4.566,0,0,1-.147,1.077,2.133,2.133,0,0,1-.341.635c-.194.236-.356.369-.518.384h-.066a1.277,1.277,0,0,1-.7-.34,3.075,3.075,0,0,1-.746-2.36,19.712,19.712,0,0,1,.324-3.276,4.7,4.7,0,0,1,.163-.767,1,1,0,0,1,.291-.575,2.111,2.111,0,0,1,1.121.619,1.977,1.977,0,0,1,.616,1.018,6.34,6.34,0,0,1,.064.9v.25Zm3.114-4.205a3.588,3.588,0,0,1,.275-1.578l.049-.074a2.608,2.608,0,0,1,1.233.487,1.657,1.657,0,0,1,.746.856,5.736,5.736,0,0,1,.1,1.446c0,1.932-.016,3.186-.048,3.748a12.466,12.466,0,0,1-.584,3.334,4.551,4.551,0,0,1-.487,1.062,2.627,2.627,0,0,1-.6.723,1.764,1.764,0,0,1-.941.3h-.292c-.26,0-.567,0-.973.015-.227.058-.584.132-1.038.206a8.729,8.729,0,0,0,2.482-5.076c.032-.369.064-.841.064-1.4v-.384c0-.928.017-1.534.017-1.814Z" fill="#231f20"/><path d="M939.024,960.327c-1.216,1.372-1.556,1.889-2.238,2.715a3.5,3.5,0,0,1-.4.428,1.857,1.857,0,0,1-.439.325,1.582,1.582,0,0,1-.55.133,1,1,0,0,1-.228.014,6.7,6.7,0,0,1-.989-.088,6.747,6.747,0,0,0-.925-.1c-.064,0-.113.015-.178.015a1.786,1.786,0,0,0-.5.089l.016-.015,1.59-1.667a48.2,48.2,0,0,0,5.547-6.714,4.248,4.248,0,0,0-1.249.147c-.7.192-1.248.384-2.286.738-.228.074-.552.163-.991.265h-.064a2.829,2.829,0,0,1-1.362-.413,5.653,5.653,0,0,1-.731-.413,1.462,1.462,0,0,1-.422-.516,6.888,6.888,0,0,1,1.752-.841c.52-.177,1.2-.4,2.061-.65,1-.28,1.718-.486,2.157-.589a16.568,16.568,0,0,1,2.222-.4,2.118,2.118,0,0,1,.308-.015,2.356,2.356,0,0,1,1.427.472,1.324,1.324,0,0,1,.682,1.033v.03a2.946,2.946,0,0,1-.649,1.224c-.276.4-.957,1.388-1.541,2.125a13.9,13.9,0,0,0-.892,1.225c.5.3,1.119.62,2.011,1.166.616.4,1.022.708,1.249.885a2.444,2.444,0,0,1,.487.576,4.91,4.91,0,0,1,.308.59,2.638,2.638,0,0,1,.243,1.151,1.254,1.254,0,0,1-.47,1.165,3.788,3.788,0,0,1-1.541-.708,9.85,9.85,0,0,1-1.2-1.092Z" fill="#231f20"/><path d="M921.763,928.2a2.586,2.586,0,0,1-.617,1.063c-.259.353-.5.708-.73.959a6,6,0,0,1,2.255,1.224,1.7,1.7,0,0,1,.5,1.21,1.438,1.438,0,0,1-1.1,1.49,2.948,2.948,0,0,1-1.135-1.328,18.763,18.763,0,0,1-3.65,1.918,2.479,2.479,0,0,1-.584.193,1.444,1.444,0,0,1-.746-.384,2.248,2.248,0,0,1-.778-1.667,4.553,4.553,0,0,0,.94-.222,31.864,31.864,0,0,0,2.06-2.671,14.185,14.185,0,0,1-2.19.193h-.162a2.007,2.007,0,0,1-.989-1.86v-.207a.77.77,0,0,1,.275-.044c.243,0,.535.059.763.059a.654.654,0,0,0,.178-.015,2.829,2.829,0,0,0,.519-.633c1.087-1.521,2.206-3.365,3.244-4.8A2.093,2.093,0,0,1,921,924.01a.735.735,0,0,1,.033.265,2.371,2.371,0,0,1-.438,1.107c-.535.944-1.33,1.859-1.866,2.7.163,0,.292-.015.438-.015h.114c.5-.5.779-1.2,1.363-1.608a2.014,2.014,0,0,1,1.119,1.608ZM920,930.856a12.538,12.538,0,0,1-.876,1.107,11.6,11.6,0,0,0,1.216-.384A2.549,2.549,0,0,0,920,930.856Zm6.066,4.707c-.438,0-.909-.516-1.086-.782-.471-.664-.584-1.49-1.087-2.036l.7.221a2.934,2.934,0,0,0,.729.207h.049c.13-.015.26-.207.358-.34a8.06,8.06,0,0,0,1.038-2.449,9.995,9.995,0,0,0,.584-2.877,1.825,1.825,0,0,0-.162-.738,2.217,2.217,0,0,0-.7-.1,6.822,6.822,0,0,0-2.4.664,2.831,2.831,0,0,1-.859.28h-.081c-.812,0-1.412-.811-1.817-1.225a5.186,5.186,0,0,1,1.93-1.047,8.877,8.877,0,0,1,3.146-.724c.13,0,.292,0,.439.015a2.953,2.953,0,0,1,2.757,2.479c.016.177.033.354.033.532a10.375,10.375,0,0,1-.228,1.874,15.538,15.538,0,0,1-1.265,4.012,4.471,4.471,0,0,1-1.1,1.536,2.8,2.8,0,0,1-.908.5Z" fill="#231f20"/><path d="M920.806,948.794c.567,0,.632-.443.632-.96v-.295c-.827.487-1.67,1.388-2.66,1.9a2.73,2.73,0,0,1-1.135.4h-.081c-.762,0-.958-.605-1.7-.605h-.032c1.1-.885,2.547-1.461,3.731-2.272h-.033c-.454,0-1.022.236-1.541.236h-.048a2.12,2.12,0,0,1-.795-.221,2.217,2.217,0,0,1-.973-.827,5.511,5.511,0,0,1,2.319-.664c.876-.133,1.768-.324,2.742-.427.081-.133.064-.37.145-.5a.394.394,0,0,0-.34-.163.6.6,0,0,0-.373.133c-.373-.118-.519-.457-.665-.8-.163.222-.244.606-.568.664-.032,0-.065.015-.1.015-.244,0-.422-.222-.6-.369a21.435,21.435,0,0,1-2.173.842,1.569,1.569,0,0,1-.924-1.373c.535-.015.632-.413.876-.679h-.13c-.908,0-.99-.914-1.087-1.711,1.087-.989,1.687-2.42,2.66-3.5a1.593,1.593,0,0,1,.827,1.357,1.52,1.52,0,0,1-.032.266,1.424,1.424,0,0,1-.357.517c-.357.442-.811,1.017-1.135,1.445h.016c.178,0,.276-.147.373-.251.308-.295.584-.634.892-.959a1.241,1.241,0,0,1,.73,1.033v.1c-.033.3-.341.471-.471.693a2.124,2.124,0,0,1,.86.575c-.032-.339-.065-.722-.065-1.092a3.516,3.516,0,0,1,.162-1.15A1.427,1.427,0,0,1,920.9,941.4a2.653,2.653,0,0,1,1.135-.427.972.972,0,0,1,.471.117.913.913,0,0,1,.437.591v.014c-.015.162-.292.369-.437.443a9.818,9.818,0,0,1-1.363.472,4.11,4.11,0,0,0,.13.664,7.32,7.32,0,0,0,1.346-.354,5.352,5.352,0,0,0,.552-2.626,1.557,1.557,0,0,0-.357-.045,2.5,2.5,0,0,0-.7.147,2.54,2.54,0,0,1-.665.237h-.016c-.227,0-.908-.413-.941-.65,0-.118.13-.265.2-.353a4.384,4.384,0,0,1,2.369-.842,1.407,1.407,0,0,1,.454.06,2.314,2.314,0,0,1,1.379,1.313c.908-.827,1.443-1.992,2.416-2.745a1.674,1.674,0,0,1,.681,1.255,1.108,1.108,0,0,1-.049.324c-.081.28-.421.546-.648.812a3.056,3.056,0,0,0-.584.84.944.944,0,0,0,.535-.4c.162-.147.292-.339.438-.486a1.341,1.341,0,0,1,.584,1.179.768.768,0,0,1-.276.664c.519.311,1.249.753,1.363,1.476,0,.045.016.1.016.147a1.252,1.252,0,0,1-.308.827,1,1,0,0,1-.568.281c-.032,0-.049-.016-.081-.016-.292-.058-.357-.486-.486-.752-.39.088-.746.295-1.168.428a3.386,3.386,0,0,1-1.087.28.815.815,0,0,1-.454-.132,1.634,1.634,0,0,1-.569-1.151,2.125,2.125,0,0,0,1.217-1.033c-.211.015-.4.029-.633.029-.129-.1-.292-.177-.339-.354a10.868,10.868,0,0,1-.5,1.624,2.367,2.367,0,0,1-.942,1.21.63.63,0,0,0-.4-.133,1.012,1.012,0,0,0-.438.1,1.5,1.5,0,0,1,.438.444c.827-.06,1.85-.222,2.79-.222a3.42,3.42,0,0,1,1.671.339,1.206,1.206,0,0,1,.681.975,12.811,12.811,0,0,1-3.456.427,10.115,10.115,0,0,0,1.2.664c.827.428,1.654.856,2.546,1.24a2.507,2.507,0,0,1,1.135.722c-.859,0-1.07.812-1.93.812-.065,0-.114-.015-.178-.015a3.777,3.777,0,0,1-1.249-.472c-1.1-.56-2.109-1.446-3.1-2.066,0,.429.049.915.049,1.373,0,.812-.145,1.52-.925,1.7-.859-.191-.908-1.121-1.492-1.563Zm-3.05-5.755a1.087,1.087,0,0,0,.584-.251c-.065-.059-.016-.222-.1-.266a1.805,1.805,0,0,1-.308.295c-.065.06-.179.148-.179.207Zm4.38-6.521c.373,0,.778.737.778,1.341a.863.863,0,0,1-.049.3c-.6.767-2.205.738-2.757,1.491a1.873,1.873,0,0,1-.032-.295,3.213,3.213,0,0,1,.584-1.58,2.473,2.473,0,0,1,1.427-1.253Zm5.352,5.488c-.13.222-.422.413-.486.605a5.581,5.581,0,0,1,.6-.132A2.023,2.023,0,0,0,927.488,942.006Z" fill="#231f20"/><path d="M926.97,964.4c-.309-.014-.552-.457-.746-.649a7.936,7.936,0,0,0-.714-.679,41.761,41.761,0,0,1-4.2.473c-.373.029-.779.073-1.152.073a3.174,3.174,0,0,1-.373-.014c-.925-.074-1.33-.62-1.914-1.048a1.1,1.1,0,0,1,.016.236.954.954,0,0,1-.211.635h-.081c-1.67,0-1.833-1.476-1.979-3.114-.049-.664-.081-1.342-.081-1.992a13.51,13.51,0,0,1,.649-4.456c.114-.28.34-.855.568-.87h.016c.276,0,.5.561.616.781a2.841,2.841,0,0,1,.389,1v.089c0,.1-.016.221-.016.324,0,1.284-.081,2.642-.081,3.984a18.809,18.809,0,0,0,.2,2.907c1.9-.059,3.536-.4,5.417-.62a10.659,10.659,0,0,1,1.168-.073,2.168,2.168,0,0,1,1.443.383,17.469,17.469,0,0,0,.326-4.161c.047-.693.081-1.431.081-2.183,0-.369-.017-.753-.034-1.122-.032-.885-.081-1.431-1-1.535a2.283,2.283,0,0,0-.309-.014,7.572,7.572,0,0,0-1.33.147,23.288,23.288,0,0,0-3.2.93,2.817,2.817,0,0,1-.649.206h-.114a3.122,3.122,0,0,1-1.151-.339,1.776,1.776,0,0,1-.941-.56,2.914,2.914,0,0,1,1.411-.827,16.388,16.388,0,0,1,5.385-1.284c.13,0,.275-.014.4-.014a4.547,4.547,0,0,1,2.3.5,3.807,3.807,0,0,1,.827.752,2.738,2.738,0,0,1,.6.944,2.71,2.71,0,0,1,.049.649v.708c.048.826.065,1.668.065,2.509,0,1.446-.065,2.892-.162,4.279a4.532,4.532,0,0,1-.535,2.494,1.734,1.734,0,0,1-.925.545Zm-4.169-2.906c-.113,0-.341-.192-.438-.265-.211-.222-.357-.591-.568-.872a5.1,5.1,0,0,0-.519-.6c-.033-.045-.1-.074-.1-.133v-.029a1.089,1.089,0,0,0,.227.029,1.807,1.807,0,0,0,.535-.089,12.5,12.5,0,0,0,.081-1.593c0-.369,0-.767-.016-1.136a9.218,9.218,0,0,0-1.281.206,6.456,6.456,0,0,1-1.185.265h-.016c-.665,0-1.232-.693-1.46-1.165a5.711,5.711,0,0,1,1.833-.782,15.921,15.921,0,0,1,2.06-.457,2.922,2.922,0,0,1,.309-1.388,2.041,2.041,0,0,1,1.573.916.877.877,0,0,1,.032.294h.032c.827,0,1.882.458,1.882,1.137v.044c-.032.737-1.217.62-1.865.782-.017.177-.032.368-.032.576,0,.708.113,1.548.113,2.3a1.97,1.97,0,0,1-.616,1.756,1.206,1.206,0,0,1-.535.207Zm-2.53-1.608c-.374,0-.7-.384-.876-.606a4.323,4.323,0,0,1-.633-1.475c.1,0,.2-.015.276-.015a2.365,2.365,0,0,1,1.93.8c0,.089.016.162.016.251,0,.56-.211,1.033-.665,1.048Z" fill="#231f20"/></g></g></svg>
