<svg xmlns="http://www.w3.org/2000/svg" width="1000" height="988" viewBox="0 0 1000 988"><g id="Artboard"><rect id="Page" width="1000" height="988" fill="#fff"/></g><g id="Text"><g id="_16th_Touhou_Project_Shooting_Game_for_Windows_7_8_10" data-name="16th Touhou Project Shooting Game for Windows 7/8/10"><path d="M340.726,316.55V314h2.322V300.224l-4.757,2.747v-3.215l6.414-3.341h2.96V314h2.251v2.549Z" fill="#000000"/><path d="M368.969,296.415a7.336,7.336,0,0,1,4.234,1.076,3.435,3.435,0,0,1,1.544,2.931v1.388H370.1v-1.218a1.688,1.688,0,0,0-.417-1.211,1.934,1.934,0,0,0-1.393-.4h-5.23a2.176,2.176,0,0,0-1.371.368,1.174,1.174,0,0,0-.255.467,3.827,3.827,0,0,0-.17.779v4.389h7.717a7.458,7.458,0,0,1,4.234,1.062,3.427,3.427,0,0,1,1.53,2.96v3.512a3.438,3.438,0,0,1-1.544,2.931,7.119,7.119,0,0,1-4.234,1.1h-6.613a7.025,7.025,0,0,1-4.2-1.1,3.391,3.391,0,0,1-1.544-2.931V300.422a3.452,3.452,0,0,1,1.516-2.931,7.544,7.544,0,0,1,4.233-1.076Zm-5.9,17.728h5.24a1.944,1.944,0,0,0,1.4-.411,1.672,1.672,0,0,0,.4-1.246v-3.455a1.734,1.734,0,0,0-.4-1.246,2.058,2.058,0,0,0-1.4-.4h-7.038v5.1a1.668,1.668,0,0,0,.4,1.246A1.942,1.942,0,0,0,363.064,314.143Z" fill="#000000"/><path d="M382.975,314h3.059v2.549h-2.79a6.844,6.844,0,0,1-3.512-.75,2.515,2.515,0,0,1-1.189-2.238v-7.618h-2.294v-2.619h2.294v-3.739h4.432v3.739h3.059v2.619h-3.059Z" fill="#000000"/><path d="M387.365,314h2.323V298.978h-2.323v-2.563h6.67v6.9h6.188a6.79,6.79,0,0,1,3.5.764,2.515,2.515,0,0,1,1.19,2.237V314h2.435v2.549h-6.882V305.888h-6.428V314h2.35v2.549h-9.02Z" fill="#000000"/><path d="M436.1,313.732v2.818H425.635v-2.818h2.789V299.247h-4.772v2.832h-4.474v-5.664h23.364v5.664h-4.475v-2.832h-4.786v14.485Z" fill="#000000"/><path d="M448.243,316.55a5.352,5.352,0,0,1-2.945-.665,2.044,2.044,0,0,1-1.062-1.858v-8.139a2.133,2.133,0,0,1,1.019-1.9,5.515,5.515,0,0,1,2.988-.662H454.8a5.612,5.612,0,0,1,2.988.661,2.135,2.135,0,0,1,1.02,1.9v8.138a2.1,2.1,0,0,1-1.02,1.858,5.581,5.581,0,0,1-2.988.666Zm.439-2.549h5.749v-8.113h-5.749Z" fill="#000000"/><path d="M478.316,303.325V314h2.323v2.549H467.8a6.837,6.837,0,0,1-3.511-.75,2.516,2.516,0,0,1-1.19-2.238v-7.674H460.63v-2.563h6.9V314h6.443v-8.113h-2.35v-2.563Z" fill="#000000"/><path d="M481.769,314h2.322V298.978h-2.322v-2.563h6.669v6.9h6.189a6.788,6.788,0,0,1,3.5.764,2.515,2.515,0,0,1,1.189,2.237V314h2.435v2.549h-6.88V305.888h-6.43V314h2.352v2.549h-9.021Z" fill="#000000"/><path d="M507.637,316.55a5.354,5.354,0,0,1-2.946-.665,2.042,2.042,0,0,1-1.062-1.858v-8.139a2.133,2.133,0,0,1,1.019-1.9,5.516,5.516,0,0,1,2.989-.662h6.555a5.614,5.614,0,0,1,2.988.661,2.136,2.136,0,0,1,1.019,1.9v8.138a2.1,2.1,0,0,1-1.019,1.858,5.583,5.583,0,0,1-2.988.666Zm.438-2.549h5.749v-8.113h-5.749Z" fill="#000000"/><path d="M537.71,303.325V314h2.322v2.549H527.189a6.837,6.837,0,0,1-3.511-.75,2.516,2.516,0,0,1-1.19-2.238v-7.674h-2.465v-2.563h6.9V314h6.443v-8.113h-2.351v-2.563Z" fill="#000000"/><path d="M566.726,296.415a6.421,6.421,0,0,1,3.824,1.019,3.132,3.132,0,0,1,1.387,2.634v3.483a3.53,3.53,0,0,1-1.622,3.024,7.442,7.442,0,0,1-4.353,1.139h-6.868v6.018h2.846v2.818H551.7v-2.818h2.563V299.247H551.7v-2.832Zm-7.632,8.623h6.174a2.131,2.131,0,0,0,1.374-.382,1.564,1.564,0,0,0,.438-1.275v-2.52a1.462,1.462,0,0,0-.411-1.218,2.121,2.121,0,0,0-1.4-.4h-6.174Z" fill="#000000"/><path d="M573.828,314h2.352v-8.113h-2.352v-2.563H584.01a6.837,6.837,0,0,1,3.511.75,2.515,2.515,0,0,1,1.19,2.237v2.323h-4.333v-2.747H580.47V314h2.322v2.549h-8.964Z" fill="#000000"/><path d="M594.681,316.55a5.354,5.354,0,0,1-2.946-.665,2.042,2.042,0,0,1-1.062-1.858v-8.139a2.133,2.133,0,0,1,1.019-1.9,5.516,5.516,0,0,1,2.989-.662h6.555a5.614,5.614,0,0,1,2.988.661,2.136,2.136,0,0,1,1.019,1.9v8.138a2.1,2.1,0,0,1-1.019,1.858,5.583,5.583,0,0,1-2.988.666Zm.438-2.549h5.749v-8.113h-5.749Z" fill="#000000"/><path d="M609.471,305.888h-2.293v-2.563h6.64v16.128a2.012,2.012,0,0,1-1.006,1.8,5.577,5.577,0,0,1-2.987.666h-2.647v-2.563h2.293Zm-.637-5.962a1.443,1.443,0,0,1,.723-1.133,2.937,2.937,0,0,1,1.713-.481,3.063,3.063,0,0,1,1.685.481,1.3,1.3,0,0,1,.75,1.133,1.337,1.337,0,0,1-.693,1.147,2.89,2.89,0,0,1-1.742.468,2.971,2.971,0,0,1-1.743-.468A1.384,1.384,0,0,1,608.834,299.926Z" fill="#000000"/><path d="M621.771,316.55a5.354,5.354,0,0,1-2.946-.665,2.018,2.018,0,0,1-1.062-1.829v-8.168a2.133,2.133,0,0,1,1.019-1.9,5.516,5.516,0,0,1,2.989-.662h6.555a5.608,5.608,0,0,1,2.987.661,2.135,2.135,0,0,1,1.02,1.9v5.1H622.209V314h5.749v-1.543h4.375v1.6a2.09,2.09,0,0,1-.99,1.827,5.432,5.432,0,0,1-3.017.665Zm.438-10.662v2.832h5.749v-2.832Z" fill="#000000"/><path d="M639.284,316.55a5.35,5.35,0,0,1-2.945-.665,2.019,2.019,0,0,1-1.063-1.829v-8.168a2.132,2.132,0,0,1,1.02-1.9,5.515,5.515,0,0,1,2.988-.662H649.55v4.743h-4.319v-2.18h-5.508V314h5.508v-2.209h4.319v4.758Z" fill="#000000"/><path d="M657.732,314h3.059v2.549H658a6.844,6.844,0,0,1-3.512-.75,2.515,2.515,0,0,1-1.189-2.238v-7.618h-2.293v-2.619H653.3v-3.739h4.432v3.739h3.059v2.619h-3.059Z" fill="#000000"/><path d="M247.792,923.2a1.812,1.812,0,0,0,1.28-.4,1.439,1.439,0,0,0,.405-1.123v-2.378a1.554,1.554,0,0,0-.405-1.149,1.935,1.935,0,0,0-1.28-.366h-5.721a5.982,5.982,0,0,1-3.514-.914,2.826,2.826,0,0,1-1.306-2.469v-3.8a2.912,2.912,0,0,1,1.28-2.456,6.26,6.26,0,0,1,3.54-.914H253.5l-.014,4.976h-4.362v-2.364h-5.747a1.847,1.847,0,0,0-1.28.365,1.345,1.345,0,0,0-.405,1.123V913.5a1.453,1.453,0,0,0,.431,1.15,1.864,1.864,0,0,0,1.254.365h5.695a6.382,6.382,0,0,1,3.566.888,2.878,2.878,0,0,1,1.306,2.482v4.049a2.845,2.845,0,0,1-1.28,2.429,6.011,6.011,0,0,1-3.592.941H236.951v-5.46h4.558v2.86Z" fill="#000000"/><path d="M255.526,923.447h2.142V909.59h-2.142v-2.364h6.153v6.36h5.707a6.26,6.26,0,0,1,3.226.706,2.32,2.32,0,0,1,1.1,2.063v7.092h2.246V925.8h-6.348v-9.835h-5.929v7.483h2.168V925.8h-8.321Z" fill="#000000"/><path d="M279.173,925.8a4.93,4.93,0,0,1-2.716-.614,1.883,1.883,0,0,1-.98-1.713v-7.508a1.969,1.969,0,0,1,.94-1.754,5.093,5.093,0,0,1,2.756-.61h6.048a5.173,5.173,0,0,1,2.756.61,1.966,1.966,0,0,1,.94,1.754v7.507a1.941,1.941,0,0,1-.94,1.714,5.152,5.152,0,0,1-2.756.614Zm.4-2.352h5.3v-7.483h-5.3Z" fill="#000000"/><path d="M294.847,925.8a4.934,4.934,0,0,1-2.717-.614,1.883,1.883,0,0,1-.98-1.713v-7.508a1.967,1.967,0,0,1,.941-1.754,5.091,5.091,0,0,1,2.756-.61h6.047a5.173,5.173,0,0,1,2.756.61,1.967,1.967,0,0,1,.941,1.754v7.507a1.942,1.942,0,0,1-.941,1.714,5.152,5.152,0,0,1-2.756.614Zm.4-2.352h5.3v-7.483h-5.3Z" fill="#000000"/><path d="M312.632,923.447h2.822V925.8H312.88a6.3,6.3,0,0,1-3.239-.693,2.32,2.32,0,0,1-1.1-2.063v-7.027h-2.116V913.6h2.116v-3.449h4.088V913.6h2.822v2.416h-2.822Z" fill="#000000"/><path d="M322.725,923.447h2.168V925.8H316.6v-2.352h2.168v-7.483H316.6V913.6h6.126Zm-4.572-12.982a1.337,1.337,0,0,1,.64-1.045,2.951,2.951,0,0,1,1.606-.444,3,3,0,0,1,1.581.418,1.3,1.3,0,0,1,.666,1.071,1.191,1.191,0,0,1-.64,1.057,2.661,2.661,0,0,1-1.607.431,2.752,2.752,0,0,1-1.541-.4A1.478,1.478,0,0,1,318.153,910.465Z" fill="#000000"/><path d="M325.747,923.447h2.168v-7.483h-2.168V913.6h11.834a6.5,6.5,0,0,1,3.265.692,2.344,2.344,0,0,1,1.058,2.063v7.092h2.312V925.8h-6.4v-9.835h-5.943v7.483h2.142V925.8h-8.268Z" fill="#000000"/><path d="M349.341,925.8a5,5,0,0,1-2.73-.614,1.868,1.868,0,0,1-.966-1.688v-7.533a1.966,1.966,0,0,1,.94-1.754,5.093,5.093,0,0,1,2.756-.61h11.913v2.364h-1.88V928.5a1.866,1.866,0,0,1-.928,1.648,5.265,5.265,0,0,1-2.756.6h-5.617a5.168,5.168,0,0,1-2.73-.584,1.828,1.828,0,0,1-.967-1.684V927.1h4.089v1.4h4.819v-2.7Zm.4-2.352h5.538v-7.483h-5.538Z" fill="#000000"/><path d="M389.673,907.226l-.013,5.655h-4.01v-3.043h-6.87a1.847,1.847,0,0,0-1.28.365,1.345,1.345,0,0,0-.4,1.123v10.346a1.458,1.458,0,0,0,.424,1.155,1.864,1.864,0,0,0,1.261.372h6.87v-5.446h-4.571v-2.6h8.855V925.8h-12.46a5.991,5.991,0,0,1-3.514-.914,2.787,2.787,0,0,1-1.319-2.456V910.6a2.9,2.9,0,0,1,1.293-2.456,6.26,6.26,0,0,1,3.54-.914Z" fill="#000000"/><path d="M392.746,915.964a2.014,2.014,0,0,1,.965-1.78,3.939,3.939,0,0,1,1.176-.429,7.88,7.88,0,0,1,1.659-.155H402.7a5.173,5.173,0,0,1,2.756.61,1.967,1.967,0,0,1,.941,1.754v7.483h2.272V925.8H396.141a5,5,0,0,1-2.729-.614,1.864,1.864,0,0,1-.967-1.685v-2.194a1.849,1.849,0,0,1,.914-1.685,5.423,5.423,0,0,1,2.782-.562h6.178v-3.095h-5.473v1.64h-4.1Zm3.774,7.483h5.773v-2.324H396.52Z" fill="#000000"/><path d="M409.578,923.447h2.168v-7.483h-2.168V913.6H431.73a6.045,6.045,0,0,1,3.239.717,2.3,2.3,0,0,1,1.1,2.038v7.092h1.685V925.8h-5.786v-9.835h-6.06v7.483h2.246V925.8H421.8v-9.835h-6.009v7.483h2.078V925.8h-8.294Z" fill="#000000"/><path d="M443.638,925.8a4.936,4.936,0,0,1-2.717-.614,1.863,1.863,0,0,1-.98-1.688v-7.533a1.967,1.967,0,0,1,.941-1.754,5.091,5.091,0,0,1,2.756-.61h6.047a5.176,5.176,0,0,1,2.756.61,1.966,1.966,0,0,1,.94,1.754v4.7h-9.339v2.781h5.3v-1.423h4.036V923.5a1.926,1.926,0,0,1-.914,1.685,5,5,0,0,1-2.782.614Zm.4-9.835v2.612h5.3v-2.612Z" fill="#000000"/><path d="M464.57,923.447h2.1v-7.483h-2.1V913.6h2.1v-3.645a2.285,2.285,0,0,1,1.1-2.024,6.217,6.217,0,0,1,3.239-.705h2.547v2.416H470.67V913.6h2.4v2.364h-2.4v7.483h2.156V925.8H464.57Z" fill="#000000"/><path d="M478.366,925.8a4.932,4.932,0,0,1-2.717-.614,1.884,1.884,0,0,1-.981-1.713v-7.508a1.968,1.968,0,0,1,.942-1.754,5.091,5.091,0,0,1,2.756-.61h6.047a5.169,5.169,0,0,1,2.755.61,1.967,1.967,0,0,1,.941,1.754v7.507a1.942,1.942,0,0,1-.941,1.714,5.148,5.148,0,0,1-2.755.614Zm.4-2.352h5.3v-7.483h-5.3Z" fill="#000000"/><path d="M490.292,923.447h2.168v-7.483h-2.168V913.6h9.392a6.3,6.3,0,0,1,3.239.692,2.32,2.32,0,0,1,1.1,2.063V918.5h-4v-2.533h-3.605v7.483h2.142V925.8h-8.268Z" fill="#000000"/><path d="M522.062,925.8l-5.12-15.961h-2.351v-2.612h6.126l3.931,13.858,4.82-13.858h4.7l5.407,13.858,3.265-13.858h5.943v2.612H546.4L541.981,925.8h-4.114l-6.152-14.9-5.46,14.9Z" fill="#000000"/><path d="M555.219,923.447h2.168V925.8h-8.294v-2.352h2.168v-7.483h-2.168V913.6h6.126Zm-4.573-12.982a1.339,1.339,0,0,1,.641-1.045,2.952,2.952,0,0,1,1.607-.444,2.994,2.994,0,0,1,1.58.418,1.3,1.3,0,0,1,.667,1.071,1.192,1.192,0,0,1-.641,1.057,2.662,2.662,0,0,1-1.606.431,2.747,2.747,0,0,1-1.541-.4A1.483,1.483,0,0,1,550.646,910.465Z" fill="#000000"/><path d="M558.51,923.447h2.168v-7.483H558.51V913.6h11.834a6.491,6.491,0,0,1,3.264.692,2.343,2.343,0,0,1,1.059,2.063v7.092h2.312V925.8h-6.4v-9.835h-5.942v7.483h2.141V925.8H558.51Z" fill="#000000"/><path d="M591.789,923.447h2.116V925.8H582.489a6.071,6.071,0,0,1-3.213-.693,2.28,2.28,0,0,1-1.136-2.063v-6.688a2.268,2.268,0,0,1,1.124-2.063,6.065,6.065,0,0,1,3.213-.692h5.211v-4.01h-2.364v-2.364h6.465Zm-9.548,0h5.447v-7.483h-5.447Z" fill="#000000"/><path d="M598.96,925.8a4.934,4.934,0,0,1-2.717-.614,1.883,1.883,0,0,1-.98-1.713v-7.508a1.967,1.967,0,0,1,.941-1.754,5.091,5.091,0,0,1,2.756-.61h6.047a5.176,5.176,0,0,1,2.756.61,1.966,1.966,0,0,1,.94,1.754v7.507a1.941,1.941,0,0,1-.94,1.714,5.155,5.155,0,0,1-2.756.614Zm.4-2.352h5.3v-7.483h-5.3Z" fill="#000000"/><path d="M615.259,925.8l-2.808-9.835H610.3V913.6h5.838l1.933,9.417,3.553-9.417h4.01l3.592,9.417L631.3,913.6h5.642v2.364h-2.1l-2.86,9.835h-4.82l-3.7-8.8-3.553,8.8Z" fill="#000000"/><path d="M648.028,915.964h-5.3v2.481h5.656a5.339,5.339,0,0,1,2.756.588,1.941,1.941,0,0,1,.926,1.711V923.5a1.926,1.926,0,0,1-.914,1.685,5,5,0,0,1-2.782.614H638.65V922.05h3.671v1.4h5.707v-2.729h-5.746a4.959,4.959,0,0,1-2.684-.609,1.968,1.968,0,0,1-.948-1.761v-2.384a1.974,1.974,0,0,1,.98-1.78,5.226,5.226,0,0,1,2.717-.584h9.3l-.012,3.466h-3.606Z" fill="#000000"/><path d="M665.732,925.8l10.241-16.209h-8.347v2h-4.153v-4.362h17.254v1.867L670.265,925.8Z" fill="#000000"/><path d="M694.29,907.226l-12.121,21.068h-2.795l12.16-21.068Z" fill="#000000"/><path d="M711.765,913.521a2.2,2.2,0,0,1-.705,1.79,4.855,4.855,0,0,1-2.352.887,4.782,4.782,0,0,1,2.345.876,2.268,2.268,0,0,1,.712,1.816v3.186a3.24,3.24,0,0,1-1.424,2.731,6.876,6.876,0,0,1-3.879.992h-6.1a6.484,6.484,0,0,1-3.88-1.019,3.127,3.127,0,0,1-1.423-2.7V918.89a2.322,2.322,0,0,1,.679-1.816,5.312,5.312,0,0,1,2.377-.876,4.813,4.813,0,0,1-2.377-.914,2.2,2.2,0,0,1-.679-1.763v-2.6a3.184,3.184,0,0,1,1.4-2.7,6.969,6.969,0,0,1,3.9-.992h6.1a6.652,6.652,0,0,1,3.879.992,3.17,3.17,0,0,1,1.424,2.7Zm-4.258.026v-2.469a1.418,1.418,0,0,0-.431-1.123,1.864,1.864,0,0,0-1.254-.365H701a1.818,1.818,0,0,0-1.28.365,1.52,1.52,0,0,0-.4,1.123v2.469a1.44,1.44,0,0,0,.431,1.176,1.876,1.876,0,0,0,1.254.352h4.82a1.8,1.8,0,0,0,1.28-.379A1.4,1.4,0,0,0,707.507,913.547Zm0,8.5v-3.187a1.553,1.553,0,0,0-.4-1.149,1.966,1.966,0,0,0-1.28-.366H701a1.813,1.813,0,0,0-1.28.366,1.553,1.553,0,0,0-.4,1.149v3.187a1.379,1.379,0,0,0,.4,1.149,1.855,1.855,0,0,0,1.28.354h4.82a1.863,1.863,0,0,0,1.28-.379A1.417,1.417,0,0,0,707.507,922.05Z" fill="#000000"/><path d="M725.512,907.226l-12.121,21.068H710.6l12.16-21.068Z" fill="#000000"/><path d="M730.836,925.8v-2.352h2.143V910.739l-4.389,2.533v-2.964l5.916-3.082h2.73v16.221h2.076V925.8Z" fill="#000000"/><path d="M762.166,922.076a3.24,3.24,0,0,1-1.424,2.731,6.876,6.876,0,0,1-3.879.992h-6.1a6.48,6.48,0,0,1-3.88-1.019,3.128,3.128,0,0,1-1.424-2.7V910.922a3.187,3.187,0,0,1,1.4-2.7,6.97,6.97,0,0,1,3.906-.992h6.1a6.648,6.648,0,0,1,3.879.992,3.17,3.17,0,0,1,1.424,2.7Zm-4.258-.026V911.078a1.417,1.417,0,0,0-.43-1.123,1.868,1.868,0,0,0-1.254-.365H751.4a1.82,1.82,0,0,0-1.28.365,1.524,1.524,0,0,0-.4,1.123V922.05a1.417,1.417,0,0,0,.43,1.176,1.876,1.876,0,0,0,1.254.352h4.821a1.8,1.8,0,0,0,1.279-.379A1.379,1.379,0,0,0,757.908,922.05Z" fill="#000000"/></g><g id="Hidden_Star_in_Four_Seasons" data-name="Hidden Star in Four Seasons"><path d="M198.176,391.816v8.291a1.421,1.421,0,1,1-2.842,0V380.654a1.421,1.421,0,1,1,2.842,0v8.291h8.379v-8.291a1.421,1.421,0,1,1,2.842,0v19.453a1.421,1.421,0,1,1-2.842,0v-8.291Z" fill="#000000"/><path d="M224.252,398.789H226.3a3.294,3.294,0,0,1,1.377.264,1.3,1.3,0,0,1-.117,2.168,2.439,2.439,0,0,1-1.26.322H219.36a2.045,2.045,0,0,1-1.465-.381,1.257,1.257,0,0,1-.41-1c0-.908.615-1.377,1.875-1.377h2.168v-9.961H219.36c-1.406,0-1.875-.557-1.875-1.377,0-.908.615-1.377,1.875-1.377h2.871c1.611,0,2.021.264,2.021,1.9Zm-4.13-18.281a1.147,1.147,0,0,1,1.289-1.289h1.552a1.147,1.147,0,0,1,1.289,1.289v1.318a1.2,1.2,0,0,1-1.289,1.289h-1.552a1.139,1.139,0,0,1-1.289-1.289Z" fill="#000000"/><path d="M244.088,386.074a3.747,3.747,0,0,1,2.725,1.524l.439.468v-5.8a2.584,2.584,0,0,1,.323-1.377,1.116,1.116,0,0,1,1.084-.5,1.077,1.077,0,0,1,1.025.5,2.585,2.585,0,0,1,.322,1.377v17.343c0,1.289-.439,1.934-1.347,1.934a1.088,1.088,0,0,1-1.055-.557,2.106,2.106,0,0,1-.352-1.289v-.176l-.585.616a4.475,4.475,0,0,1-2.637,1.406h-2.637l-.615-.088a3.3,3.3,0,0,1-1.7-.879l-.938-.82a4.118,4.118,0,0,1-1.523-3.194v-5.537a3.466,3.466,0,0,1,1.523-3.164l.938-.82a6.864,6.864,0,0,1,1.142-.762,4.435,4.435,0,0,1,1.465-.2Zm-4.746,9.4.059,1.406a1.058,1.058,0,0,0,.381.7l.82.644.527.352a.8.8,0,0,0,.5.2h1.934a2.219,2.219,0,0,0,1.348-.7l2.138-1.875a.843.843,0,0,0,.205-.674V392.08a.893.893,0,0,0-.205-.586l-.234-.322-.352-.322-1.552-1.348a2.236,2.236,0,0,0-1.348-.674h-1.934l-.439.088-.586.439-.82.674a1.1,1.1,0,0,0-.352.762l-.088,1.348Z" fill="#000000"/><path d="M264.569,386.074a3.747,3.747,0,0,1,2.724,1.524l.44.468v-5.8a2.585,2.585,0,0,1,.322-1.377,1.118,1.118,0,0,1,1.084-.5,1.078,1.078,0,0,1,1.026.5,2.585,2.585,0,0,1,.322,1.377v17.343c0,1.289-.44,1.934-1.348,1.934a1.089,1.089,0,0,1-1.055-.557,2.106,2.106,0,0,1-.351-1.289v-.176l-.586.616a4.475,4.475,0,0,1-2.637,1.406h-2.636l-.616-.088a3.3,3.3,0,0,1-1.7-.879l-.937-.82a4.116,4.116,0,0,1-1.524-3.194v-5.537a3.465,3.465,0,0,1,1.524-3.164l.937-.82a6.838,6.838,0,0,1,1.143-.762,4.435,4.435,0,0,1,1.465-.2Zm-4.746,9.4.058,1.406a1.067,1.067,0,0,0,.381.7l.821.644.527.352a.793.793,0,0,0,.5.2h1.934a2.217,2.217,0,0,0,1.347-.7l2.139-1.875a.847.847,0,0,0,.2-.674V392.08a.9.9,0,0,0-.2-.586l-.235-.322-.351-.322-1.553-1.348a2.236,2.236,0,0,0-1.347-.674h-1.934l-.44.088-.585.439-.821.674a1.1,1.1,0,0,0-.351.762l-.088,1.348Z" fill="#000000"/><path d="M282.237,401.543a2.838,2.838,0,0,1-1.231-.176,3.828,3.828,0,0,1-.849-.556l-1.172-1.055a10.074,10.074,0,0,1-1.055-1.143,4.032,4.032,0,0,1-.351-1.963v-5.3a5.659,5.659,0,0,1,.2-1.846,3.767,3.767,0,0,1,1.142-1.465l.967-.82a5.636,5.636,0,0,1,1.436-.938,4.832,4.832,0,0,1,1.582-.2h2.49a5.024,5.024,0,0,1,1.523.147l.762.322.762.527,1.113.879A3.271,3.271,0,0,1,290.7,389.5a6.478,6.478,0,0,1,.263,2.051v2.2a2.877,2.877,0,0,1-.322,1.611,2.046,2.046,0,0,1-1.553.44H280.3v.908a1.336,1.336,0,0,0,.44.82l.644.733a2.4,2.4,0,0,0,1.817.527h5.888c1.26,0,1.875.469,1.875,1.377,0,.967-.732,1.377-1.875,1.377Zm-1.934-8.5h7.91v-1.67l-.029-.791a.893.893,0,0,0-.322-.5l-1.026-.908q-.176-.353-1.318-.352H283.2l-.616.029a1.189,1.189,0,0,0-.761.293l-.938.674a1.081,1.081,0,0,0-.469.557l-.117.7Z" fill="#000000"/><path d="M300.784,391.641v8a3.631,3.631,0,0,1-.235,1.377,1.189,1.189,0,0,1-1.113.527c-.967,0-1.377-.82-1.377-1.9V388.1a3.584,3.584,0,0,1,.264-1.494,1.157,1.157,0,0,1,1.113-.528,1.053,1.053,0,0,1,1.084.557,2.96,2.96,0,0,1,.234.674,5.3,5.3,0,0,1,.03.761v.323l2.226-1.407a8.851,8.851,0,0,1,1.26-.7,2.9,2.9,0,0,1,1.113-.2h1.992a4.482,4.482,0,0,1,.733.03,2.5,2.5,0,0,1,.586.175c.146.059.351.147.644.293.03.03.264.2.674.557a2.982,2.982,0,0,1,.967,1.435,13.915,13.915,0,0,1,.176,2.227l.293,8.672a2.531,2.531,0,0,1-.352,1.67,1.085,1.085,0,0,1-.967.41,1.034,1.034,0,0,1-1.054-.557,2.707,2.707,0,0,1-.352-1.318l-.293-8.5a4.359,4.359,0,0,0-.322-1.846c-.2-.322-.733-.5-1.524-.5h-.908a1.522,1.522,0,0,0-.849.264Z" fill="#000000"/><path d="M340.218,446.9a7.9,7.9,0,0,1,.82,1.29,2.893,2.893,0,0,1,.176,1.084,3.076,3.076,0,0,1-1.026,2.431,3.884,3.884,0,0,1-2.578.82h-6.269a4.211,4.211,0,0,1-2.168-.439,3.924,3.924,0,0,1-.7-.439,3.571,3.571,0,0,1-1.319-2.7c0-1.084.557-1.728,1.5-1.728a1.4,1.4,0,0,1,1.347,1.494.823.823,0,0,0,.322.762,1.7,1.7,0,0,0,.909.175l6.767-.029c.235-.029.352-.117.381-.322a.611.611,0,0,0-.205-.381l-.322-.44L327.3,434.563a4.262,4.262,0,0,1-.147-1.113,2.981,2.981,0,0,1,2.344-3.164l1.524-.088h6a3.3,3.3,0,0,1,2.784.938,5.869,5.869,0,0,1,1.025,1.26,3.524,3.524,0,0,1,.234.556,2.948,2.948,0,0,1,.147.908q0,1.671-1.494,1.67a1.367,1.367,0,0,1-1-.381,1.4,1.4,0,0,1-.352-.966,1.1,1.1,0,0,0-.322-.909,2.1,2.1,0,0,0-1.084-.2l-6.651.03c-.2,0-.322.117-.322.351.029.088.029.147.059.176l.117.234.234.381Z" fill="#000000"/><path d="M353.433,447.337a3.719,3.719,0,0,0,.293,1.9c.175.352.7.528,1.552.528h1.377c1.26,0,1.612-.118,1.963-1.377a1.285,1.285,0,0,1,1.348-.938,1.307,1.307,0,0,1,1.377,1.377,3.188,3.188,0,0,1-.381,1.436c-.088.146-.147.293-.2.38a7.494,7.494,0,0,1-.645.821,2.8,2.8,0,0,1-1.318.761,6.907,6.907,0,0,1-2.168.293h-1.377a4.332,4.332,0,0,1-3.457-1.376,4.872,4.872,0,0,1-.879-1.465,6.8,6.8,0,0,1-.2-1.875v-8h-.879a2.01,2.01,0,0,1-1.435-.381,1.191,1.191,0,0,1-.44-1c0-.791.469-1.377,1.875-1.377h.879v-2.813c0-1.26.469-1.9,1.377-1.9,1.025,0,1.348.557,1.348,1.875v2.842h4.6c1.26,0,1.905.468,1.905,1.377,0,.673-.645,1.377-1.905,1.377h-4.6Z" fill="#000000"/><path d="M373.005,439.808a1.881,1.881,0,0,1-1.406-.381,1.136,1.136,0,0,1-.469-1c0-.909.615-1.377,1.875-1.377h3.75a6.766,6.766,0,0,1,1.963.205,2.994,2.994,0,0,1,1.553,1,4.411,4.411,0,0,1,1.025,1.494,6.334,6.334,0,0,1,.234,1.816l.293,9.346a1.615,1.615,0,0,1-.322,1.113,1.01,1.01,0,0,1-.967.5,1.484,1.484,0,0,1-1.406-1.376l-1.875.966-.762.352-.908.058h-2.637a6.859,6.859,0,0,1-1.582-.146l-.82-.352-.908-.673a3.4,3.4,0,0,1-.908-1.26,5.8,5.8,0,0,1-.293-1.934v-1.2a3.928,3.928,0,0,1,1.318-3.047,4.127,4.127,0,0,1,3.193-1.055h5.86v-.644c0-1.055-.147-1.7-.469-1.963a2.855,2.855,0,0,0-1.9-.439Zm-.029,5.8c-1.2,0-1.817.411-1.817,1.2v1.845c0,.733.586,1.114,1.787,1.114h2.989l3.017-1.582v-.616a2.257,2.257,0,0,0-.381-1.552,2.4,2.4,0,0,0-1.552-.411Z" fill="#000000"/><path d="M388.915,439.075a3.591,3.591,0,0,1,.264-1.494,1.157,1.157,0,0,1,1.113-.527,1.188,1.188,0,0,1,1.26,1.025,3.741,3.741,0,0,1,.088.82v1.114l2.138-1.787a3.66,3.66,0,0,1,2.432-1.172h2.168a3.9,3.9,0,0,1,3.662,2.549,4.745,4.745,0,0,1,.264,1.669q0,1.935-1.319,1.934a1.1,1.1,0,0,1-1.025-.527,1.821,1.821,0,0,1-.41-1.172l-.029-.7a1.224,1.224,0,0,0-.293-.528.794.794,0,0,0-.674-.439l-.938-.029h-.791a1.571,1.571,0,0,0-.615.146l-.762.5-3.808,3.194v6.972a3.624,3.624,0,0,1-.235,1.377,1.187,1.187,0,0,1-1.113.527c-.967,0-1.377-.82-1.377-1.9Z" fill="#000000"/><path d="M535.7,466.732h2.051a3.3,3.3,0,0,1,1.377.264,1.3,1.3,0,0,1-.117,2.168,2.439,2.439,0,0,1-1.26.322H530.8a2.045,2.045,0,0,1-1.465-.381,1.257,1.257,0,0,1-.41-1c0-.908.615-1.377,1.875-1.377h2.168v-9.961H530.8c-1.407,0-1.875-.557-1.875-1.377,0-.908.615-1.377,1.875-1.377h2.871c1.611,0,2.021.264,2.021,1.9Zm-4.131-18.281a1.148,1.148,0,0,1,1.29-1.289h1.552a1.147,1.147,0,0,1,1.289,1.289v1.318a1.224,1.224,0,0,1-.674,1.172,1.208,1.208,0,0,1-.615.117h-1.552a1.14,1.14,0,0,1-1.29-1.289Z" fill="#000000"/><path d="M550.785,459.583v8a3.643,3.643,0,0,1-.234,1.376,1.188,1.188,0,0,1-1.113.528c-.967,0-1.377-.82-1.377-1.9V456.039a3.594,3.594,0,0,1,.263-1.5,1.16,1.16,0,0,1,1.114-.527,1.052,1.052,0,0,1,1.083.557,3.006,3.006,0,0,1,.235.674,5.483,5.483,0,0,1,.029.761v.323l2.227-1.407a8.887,8.887,0,0,1,1.259-.7,2.9,2.9,0,0,1,1.114-.2h1.992a4.614,4.614,0,0,1,.732.029,2.521,2.521,0,0,1,.586.176c.147.059.352.147.645.293.029.029.264.205.674.557a2.98,2.98,0,0,1,.966,1.435,13.794,13.794,0,0,1,.176,2.227l.293,8.672a2.533,2.533,0,0,1-.351,1.67,1.085,1.085,0,0,1-.967.41,1.036,1.036,0,0,1-1.055-.557,2.71,2.71,0,0,1-.351-1.318l-.293-8.5a4.371,4.371,0,0,0-.323-1.846c-.205-.322-.732-.5-1.523-.5h-.908a1.527,1.527,0,0,0-.85.264Z" fill="#000000"/><path d="M630.905,412.942h12.627a1.261,1.261,0,0,1,1.436,1.435,1.324,1.324,0,0,1-1.436,1.436h-9.785v4.4h6.973a1.436,1.436,0,1,1,0,2.871h-6.973v10.752a1.421,1.421,0,1,1-2.842,0Z" fill="#000000"/><path d="M652.147,424.924a4.458,4.458,0,0,1,.323-1.992,2.984,2.984,0,0,1,1.084-1.289l1.289-1.025c.117-.088.293-.176.527-.323a5.094,5.094,0,0,1,2.373-.5h2.168a5.915,5.915,0,0,1,2.11.323,8.916,8.916,0,0,1,1.757,1.23,5.619,5.619,0,0,1,1.407,1.524,4.607,4.607,0,0,1,.351,2.05v5.215a4.862,4.862,0,0,1-.322,1.963,6.04,6.04,0,0,1-1.553,1.7,7.092,7.092,0,0,1-1.7,1.143,5.565,5.565,0,0,1-2.051.322h-2.168a5.614,5.614,0,0,1-2.021-.322,7.212,7.212,0,0,1-1.729-1.143,6.823,6.823,0,0,1-1.347-1.435,3.539,3.539,0,0,1-.44-1.2l-.059-1.026Zm2.725,5.215a1.2,1.2,0,0,0,.205.733,2.7,2.7,0,0,0,.586.7l.586.5.527.322.967.117h2.168a2.177,2.177,0,0,0,1.055-.2,4.125,4.125,0,0,0,.849-.615,2.663,2.663,0,0,0,.967-1.553v-5.215a1.277,1.277,0,0,0-.146-.674l-.352-.468a2.035,2.035,0,0,0-.41-.44l-.527-.381-.616-.322a2.64,2.64,0,0,0-.82-.088h-2.168a2.493,2.493,0,0,0-.937.147,1.146,1.146,0,0,0-.5.263,1.219,1.219,0,0,0-.44.323l-.469.5-.38.5a2.3,2.3,0,0,0-.147.644Z" fill="#000000"/><path d="M686.017,433.215a3.754,3.754,0,0,1-.235,1.494c-.117.381-.469.557-1.084.557q-1.405,0-1.406-1.933v-.469l-2.227,1.494-1.23.644a2.311,2.311,0,0,1-1.113.264H676.7a3.987,3.987,0,0,1-1.26-.234,5.81,5.81,0,0,1-1.347-.85,3.08,3.08,0,0,1-.879-1.26l-.235-1.142-.058-1.26-.293-8.672a3.108,3.108,0,0,1,.293-1.494,1.106,1.106,0,0,1,1.084-.557,1.25,1.25,0,0,1,1.084.5,3.909,3.909,0,0,1,.234,1.377l.381,9.493a2.039,2.039,0,0,0,.176.7,1.027,1.027,0,0,0,.615.468l.615.176H678.4a1.362,1.362,0,0,0,.85-.293l4.014-2.519v-8.028a2.587,2.587,0,0,1,.322-1.377,1.119,1.119,0,0,1,1.084-.5,1.077,1.077,0,0,1,1.025.5,2.586,2.586,0,0,1,.323,1.377Z" fill="#000000"/><path d="M693.108,421.819a3.591,3.591,0,0,1,.264-1.494,1.158,1.158,0,0,1,1.113-.528,1.189,1.189,0,0,1,1.26,1.026,3.675,3.675,0,0,1,.088.82v1.113l2.139-1.787A3.661,3.661,0,0,1,700.4,419.8h2.168a3.9,3.9,0,0,1,3.662,2.549,4.755,4.755,0,0,1,.264,1.67q0,1.933-1.318,1.934a1.1,1.1,0,0,1-1.026-.528,1.825,1.825,0,0,1-.41-1.172l-.029-.7a1.205,1.205,0,0,0-.293-.527.792.792,0,0,0-.674-.439l-.937-.03h-.791a1.573,1.573,0,0,0-.616.147l-.761.5-3.809,3.193v6.973a3.652,3.652,0,0,1-.234,1.377,1.19,1.19,0,0,1-1.114.527c-.966,0-1.377-.82-1.377-1.9Z" fill="#000000"/><path d="M736.628,480.754a7.892,7.892,0,0,1,.82,1.289,2.9,2.9,0,0,1,.176,1.084,3.08,3.08,0,0,1-1.025,2.432,3.893,3.893,0,0,1-2.578.82h-6.27a4.21,4.21,0,0,1-2.168-.44,3.9,3.9,0,0,1-.7-.439,3.567,3.567,0,0,1-1.318-2.695c0-1.084.556-1.729,1.494-1.729a1.4,1.4,0,0,1,1.347,1.494.822.822,0,0,0,.323.762,1.694,1.694,0,0,0,.908.176l6.767-.029c.235-.03.352-.118.381-.323a.614.614,0,0,0-.205-.381l-.322-.439L723.708,468.42a4.263,4.263,0,0,1-.146-1.113,2.981,2.981,0,0,1,2.343-3.164l1.524-.088h6.006a3.3,3.3,0,0,1,2.783.937,5.869,5.869,0,0,1,1.025,1.26,3.492,3.492,0,0,1,.235.557,2.973,2.973,0,0,1,.146.908q0,1.669-1.494,1.67a1.367,1.367,0,0,1-1-.381,1.4,1.4,0,0,1-.352-.967,1.092,1.092,0,0,0-.322-.908,2.083,2.083,0,0,0-1.084-.2l-6.65.029c-.205,0-.323.117-.323.352.03.088.03.146.059.175l.117.235.234.381Z" fill="#000000"/><path d="M749.315,486.379a2.832,2.832,0,0,1-1.23-.176,3.826,3.826,0,0,1-.85-.557l-1.172-1.054a10.071,10.071,0,0,1-1.054-1.143,4.018,4.018,0,0,1-.352-1.963v-5.3a5.687,5.687,0,0,1,.2-1.846,3.781,3.781,0,0,1,1.143-1.465l.967-.82a5.65,5.65,0,0,1,1.435-.938,4.836,4.836,0,0,1,1.582-.2h2.49a5.028,5.028,0,0,1,1.524.147l.762.322.761.527,1.114.879a3.276,3.276,0,0,1,1.142,1.553,6.445,6.445,0,0,1,.264,2.051v2.2a2.877,2.877,0,0,1-.322,1.611,2.046,2.046,0,0,1-1.553.44h-8.789v.908a1.333,1.333,0,0,0,.439.82l.645.733a2.4,2.4,0,0,0,1.816.527h5.889c1.26,0,1.875.469,1.875,1.377,0,.967-.733,1.377-1.875,1.377Zm-1.933-8.5h7.91v-1.67l-.029-.791a.9.9,0,0,0-.323-.5l-1.025-.908q-.175-.353-1.318-.352h-2.315l-.615.029a1.192,1.192,0,0,0-.762.293l-.937.674a1.076,1.076,0,0,0-.469.557l-.117.7Z" fill="#000000"/><path d="M769.708,473.664a1.877,1.877,0,0,1-1.406-.381,1.133,1.133,0,0,1-.469-1c0-.908.615-1.377,1.875-1.377h3.75a6.8,6.8,0,0,1,1.963.2,3,3,0,0,1,1.553,1A4.4,4.4,0,0,1,778,473.605a6.306,6.306,0,0,1,.234,1.817l.293,9.346a1.617,1.617,0,0,1-.322,1.113,1.012,1.012,0,0,1-.967.5A1.485,1.485,0,0,1,775.831,485l-1.875.967-.762.351-.908.059h-2.637a6.848,6.848,0,0,1-1.582-.147l-.82-.351-.908-.674a3.41,3.41,0,0,1-.908-1.26,5.821,5.821,0,0,1-.293-1.933v-1.2a3.926,3.926,0,0,1,1.318-3.046,4.125,4.125,0,0,1,3.193-1.055h5.86v-.645c0-1.054-.147-1.7-.469-1.962a2.852,2.852,0,0,0-1.9-.44Zm-.029,5.8c-1.2,0-1.817.41-1.817,1.2v1.846c0,.732.586,1.113,1.787,1.113h2.989l3.017-1.582v-.615a2.26,2.26,0,0,0-.381-1.553,2.4,2.4,0,0,0-1.552-.41Z" fill="#000000"/><path d="M789.954,473.664c-.791,0-1.2.264-1.2.762a.621.621,0,0,0,.176.469l.556.351,6.827,3.135a4.927,4.927,0,0,1,2.05,1.523,3.983,3.983,0,0,1,.645,2.373,3.856,3.856,0,0,1-1.26,3.106,4.85,4.85,0,0,1-3.252,1h-4.219a5.809,5.809,0,0,1-3.31-.762c-.264-.205-.44-.381-.557-.469l-.439-.439a1.09,1.09,0,0,1-.352-.791,1.358,1.358,0,0,1,.44-1,1.455,1.455,0,0,1,1.963,0,4.386,4.386,0,0,0,1,.586l1.259.117h4.1c1.26,0,1.875-.5,1.875-1.523a.818.818,0,0,0-.41-.762,3.452,3.452,0,0,0-.967-.615l-6.475-2.959c-1.64-.733-2.373-1.641-2.373-3.37a3.324,3.324,0,0,1,1.114-2.548,3.971,3.971,0,0,1,2.636-.938h4.659a8.12,8.12,0,0,1,1.816.176,2.234,2.234,0,0,1,1.377.732l.937.85a1.3,1.3,0,0,1,.118.732,1.388,1.388,0,0,1-2.373.967,5.237,5.237,0,0,0-.85-.615,4.912,4.912,0,0,0-1.025-.088Z" fill="#000000"/><path d="M806.1,476.037a4.459,4.459,0,0,1,.322-1.992,2.984,2.984,0,0,1,1.084-1.289l1.289-1.026c.117-.087.293-.175.527-.322a5.1,5.1,0,0,1,2.373-.5h2.168a5.917,5.917,0,0,1,2.11.322,8.975,8.975,0,0,1,1.757,1.231,5.616,5.616,0,0,1,1.407,1.523,4.615,4.615,0,0,1,.351,2.051v5.215a4.866,4.866,0,0,1-.322,1.963,6.04,6.04,0,0,1-1.553,1.7,7.072,7.072,0,0,1-1.7,1.143,5.565,5.565,0,0,1-2.051.322h-2.168a5.614,5.614,0,0,1-2.021-.322,7.212,7.212,0,0,1-1.729-1.143,6.823,6.823,0,0,1-1.347-1.435,3.544,3.544,0,0,1-.44-1.2l-.058-1.025Zm2.724,5.215a1.2,1.2,0,0,0,.205.732,2.709,2.709,0,0,0,.586.7l.586.5.528.322.966.117h2.168a2.188,2.188,0,0,0,1.055-.2,4.191,4.191,0,0,0,.85-.615,2.661,2.661,0,0,0,.966-1.553v-5.215a1.277,1.277,0,0,0-.146-.674l-.352-.468a2.012,2.012,0,0,0-.41-.44l-.527-.381-.615-.322a2.62,2.62,0,0,0-.821-.088h-2.168a2.493,2.493,0,0,0-.937.147,1.146,1.146,0,0,0-.5.263,1.237,1.237,0,0,0-.44.322l-.468.5-.381.5a2.339,2.339,0,0,0-.147.644Z" fill="#000000"/><path d="M829.3,476.477v8a3.631,3.631,0,0,1-.235,1.377,1.189,1.189,0,0,1-1.113.527c-.967,0-1.377-.82-1.377-1.9V472.932a3.584,3.584,0,0,1,.264-1.494,1.157,1.157,0,0,1,1.113-.528,1.053,1.053,0,0,1,1.084.557,2.96,2.96,0,0,1,.234.674,5.3,5.3,0,0,1,.03.761v.323l2.226-1.407a8.851,8.851,0,0,1,1.26-.7,2.9,2.9,0,0,1,1.113-.2H835.9a4.628,4.628,0,0,1,.732.029,2.521,2.521,0,0,1,.586.176c.146.059.351.147.644.293.03.03.264.2.674.557a2.982,2.982,0,0,1,.967,1.435,13.794,13.794,0,0,1,.176,2.227l.293,8.672a2.533,2.533,0,0,1-.352,1.67,1.085,1.085,0,0,1-.967.41,1.034,1.034,0,0,1-1.054-.557,2.707,2.707,0,0,1-.352-1.318l-.293-8.5a4.359,4.359,0,0,0-.322-1.846c-.205-.322-.732-.5-1.524-.5H834.2a1.522,1.522,0,0,0-.849.264Z" fill="#000000"/><path d="M851.4,473.664c-.792,0-1.2.264-1.2.762a.621.621,0,0,0,.176.469l.557.351,6.826,3.135A4.925,4.925,0,0,1,859.8,479.9a3.99,3.99,0,0,1,.644,2.373,3.856,3.856,0,0,1-1.26,3.106,4.849,4.849,0,0,1-3.251,1h-4.219a5.813,5.813,0,0,1-3.311-.762c-.263-.205-.439-.381-.556-.469l-.44-.439a1.093,1.093,0,0,1-.351-.791,1.357,1.357,0,0,1,.439-1,1.455,1.455,0,0,1,1.963,0,4.407,4.407,0,0,0,1,.586l1.26.117h4.1c1.26,0,1.875-.5,1.875-1.523a.816.816,0,0,0-.41-.762,3.437,3.437,0,0,0-.967-.615l-6.474-2.959c-1.641-.733-2.373-1.641-2.373-3.37a3.327,3.327,0,0,1,1.113-2.548,3.972,3.972,0,0,1,2.637-.938h4.658a8.12,8.12,0,0,1,1.816.176,2.231,2.231,0,0,1,1.377.732l.938.85a1.3,1.3,0,0,1,.117.732,1.388,1.388,0,0,1-2.373.967,5.192,5.192,0,0,0-.85-.615,4.905,4.905,0,0,0-1.025-.088Z" fill="#000000"/></g><g id="東方天空璋"><path d="M292.689,509.47l-13.907-6.235-13.308-7.913-12.468-9.83-1.439,29.133-11.629,3.6.479-31.77-10.549,8.512L218,502.756l-15.106,7.432L188.985,502.4l19.423-7.672,13.787-7.793,12.948-9.112-27.814.959,1.2-24.337-.239-18.822h32.25l.479-6.954-22.659-.6-17.623.96L196.3,417.036l21.1.839,23.139-.24.959-11.989,11.749,3.837.479,7.673,23.258.12,22.06-.6-4.676,10.67-18.1.48-23.018.479v6.235l34.288.479v19.422l.36,22.419L259.959,478.3l13.548,9.111,12.708,6.354,19.3,6.714ZM241.257,460.8l-21.58-.719-.24,8.512,21.7.24Zm-.6-15.945-20.62.24.12,7.313,21.22.479ZM275.545,460.8l-22.539-.6-.839,8.512,24.337-.36Zm-.24-17.5-22.179,1.2-.36,7.793,23.379-.12Z" fill="#000000"/><path d="M368.392,574.207,353.885,559.94l18.943-.24,2.757-2.877,3-16.425.839-17.024-33.928-.359-5.035,15.825-10.071,19.9-11.51,14.746-15.7-3.356L318.4,554.665l9.231-17.384,6.594-19.542,2.878-21.1-29.013.479-4.916-12.348,23.5.839,23.619-.24.838-21.34,12.589,4.076.24,17.384,23.258.36,26.375-1.2-4.8,12.829L382.418,497l-33.329.36-1.438,14.267,20.141.239,24.7-1.2-.719,18.223-2.638,26.376-2.877,13.787Z" fill="#000000"/><path d="M581.97,604.029l-32.292-22.673-27.253-26.794-22.9-35.041-17.635,31.834-28.856,33.207-29.085,21.757-27.483-11.45,36.414-23.589,29.315-30.918,19.695-36.642-66.873-2.748,9.848-19.467,61.377-2.29,2.29-39.621-68.248-2.061-8.7-23.36,51.758,1.832,70.079-1.374,62.294.458-10.535,21.3L553.8,438.22l-41.91-.687L510.744,479.9l76.722-1.146-9.848,23.36H513.951l22.673,34.353,32.063,30.918,39.849,21.069Z" fill="#000000"/><path d="M670.091,552.333l-23.618.36-21.94-.719-23.138.12-4.437-12.229,23.738.959,21.1-.479-.24-17.145-29.733-.719-4.555-9.951,26.5-1.079,28.293.72,31.291-.84L688.313,523.2l-33.329-.6-.838,17.383,19.421.959,23.378-1.2,5.276,12.948Zm1.438-47.6L661.1,503.9l-7.194-4.076-.359-16.664.239-9.591-11.389.6-2.637,8.631-7.913,14.627-10.43,10.19-14.866-4.2,14.387-11.27,6.593-9.471,3.117-9.111-17.624,1.558-1.318,16.065-11.869-3.836V463.137l41.6-.72,1.2-12.468,11.989-3.357L655.1,462.3l21.46.48,22.419-.36.6,21.94-11.989,3.476,4.076,6.355-5.994,8.272Zm15.465-29.851-21.22-.719-.24,15.705,1.44,2.877,6.593.48,5.515-2.158,3.477-10.79,4.316,6.594Z" fill="#000000"/><path d="M786.779,589.736l.36,16.545-13.548,3.357.72-19.661-30.931-.839-2.4-8.752-12.228,4.2-15.705,4.557-7.194-11.749,15.585-3.118.121-23.738-12.948-.6,1.558-10.311,11.39-.839,1.2-18.582-11.749-1.319-2.158-10.67,34.767-.959,3.237,10.91-13.187,1.8V538.9l11.389-.6-2.159,9.95-9.35,2.158-.84,20.861,13.308-4.916-1.559,12.708,30.093-.359-.12-5.515-24.1.48.839-34.768,29.133,1.079,29.612-.839.12,34.887-23.5-.6-.239,4.916,31.889.718,3,9.711Zm-6.234-53.949-35.607-.359-4.077-9.831,22.9.6-5.875-9.831-8.273-.359-3.236-10.191,18.1.24,9.832-.12.479-6.954L785.7,496.1l.36,9.591,30.332-.719-3.6,11.03-8.513-.6-5.035,10.071,20.981-.719-3,10.67Zm17.743,11.15-35.967.959-.959,4.8,36.806.36Zm.72,12.587-37.405.361.359,5.394,15.705.361,20.741-.481Zm-7.194-43.878-22.179-.12,4.436,10.91,14.746.719Z" fill="#000000"/></g><g id="上海_アリス幻樂団" data-name="上海■アリス幻樂団"><path d="M959.848,923.338a1.559,1.559,0,0,1,.841.217.634.634,0,0,1,.366.606l-.064,1.965h3.289a4.643,4.643,0,0,1,1.032.072.432.432,0,0,1,.239.448,1.077,1.077,0,0,1-.206.635.74.74,0,0,1-.557.232q-.27,0-1.112-.044c-.53-.009-1.012-.015-1.446-.015-.338,0-.778.006-1.318.015l-.1,2.816q2.637.087,6.593.621a2.6,2.6,0,0,1-.476,1.315.822.822,0,0,1-.683.419,6.082,6.082,0,0,1-1.224-.217,24.056,24.056,0,0,0-5.37-.636,18.757,18.757,0,0,0-5.242.693,4.087,4.087,0,0,1-1.064.217.9.9,0,0,1-.605-.274.726.726,0,0,1-.285-.52.858.858,0,0,1,.762-.924,24.775,24.775,0,0,1,5.656-.694l-.064-6.124a.689.689,0,0,1,.287-.577A1.032,1.032,0,0,1,959.848,923.338Z" fill="#000000"/><path d="M953.111,941.527l2.669.058c.3.077.445.2.445.361q0,.375-.906.679a20.73,20.73,0,0,1-2.161.534.9.9,0,0,1-.492-.231.609.609,0,0,1-.254-.462,1.226,1.226,0,0,1,.206-.65A.66.66,0,0,1,953.111,941.527Zm1.144-3.755a2.192,2.192,0,0,1,1.176.65q1.222,1.024,1.223,1.257c0,.24-.143.361-.429.361a2.692,2.692,0,0,1-.635-.1,9.369,9.369,0,0,0-1.51-.172q-.793-.073-.794-1.055a.891.891,0,0,1,.3-.664A1.045,1.045,0,0,1,954.255,937.772Zm1.128,6.542c.179,0,.27.073.27.217q0,.261-.238,1.979-.064.621-.858.621a1.318,1.318,0,0,1-.747-.2.806.806,0,0,1-.318-.65.9.9,0,0,1,.238-.463l1.3-1.313A.584.584,0,0,1,955.383,944.314Zm3.829-4.058a1.191,1.191,0,0,1,.619.144.213.213,0,0,1,.08.044q1.034-.058,2.652-.058,2.576,0,3.258.072c.211.02.318.092.318.217a1.535,1.535,0,0,1-.127.318,8.158,8.158,0,0,0-.477,1.66q.938.058,1.986.145a2.046,2.046,0,0,1-.366,1.084.736.736,0,0,1-.572.375,3.7,3.7,0,0,1-.937-.2c-.137-.03-.27-.058-.4-.087-.032.144-.059.294-.079.448s-.069.3-.111.447q.729.045,1.318.073c.18.029.27.086.27.173a.95.95,0,0,1-.207.635.718.718,0,0,1-.555.246q-.288,0-1.16-.057a3.13,3.13,0,0,1-.509.91,1.079,1.079,0,0,1-.873.534,1.384,1.384,0,0,1-1.16-.693,2.421,2.421,0,0,0,.714-.838q-1.62-.045-3.94-.043a3.776,3.776,0,0,0-1.207.144,1.273,1.273,0,0,1-.4.1.675.675,0,0,1-.445-.159.392.392,0,0,1-.19-.361,1.449,1.449,0,0,1,.158-.476q.222-.564.445-1.142c-.137.029-.27.053-.4.072a4.5,4.5,0,0,1-.969.16.54.54,0,0,1-.382-.2.432.432,0,0,1-.19-.318.548.548,0,0,1,.509-.577,16.946,16.946,0,0,1,1.89-.332q.364-.982.731-2.037C958.6,940.4,958.83,940.256,959.212,940.256Zm-.4-2.643a2.7,2.7,0,0,1,1.034.173c.2.116.3.251.3.4a.839.839,0,0,1-.111.362q1.048-.087,2.875-.087,2.892,0,4.306.131a1.993,1.993,0,0,1-.286,1.025.453.453,0,0,1-.413.245q-.333,0-1.367-.057-1.651-.13-2.732-.13-1.4,0-2.542.115a7.672,7.672,0,0,1-.858.072.341.341,0,0,1-.095-.014.664.664,0,0,0-.127.116,3.231,3.231,0,0,1-2.018,1.053c-.286,0-.429-.081-.429-.245q0-.115.207-.3a7.9,7.9,0,0,0,1.429-1.5,1.694,1.694,0,0,0,.4-.9.777.777,0,0,0-.207-.419A3.8,3.8,0,0,1,958.814,937.613Zm1.557,7.164.318-1.2c-.561.02-1.1.053-1.621.1l-.38,1.039c0,.039.131.058.4.058Zm-.9-2.2q.7-.043,1.51-.059l.3-1.1q-.779.015-1.414.044Zm3.845,2.238a.1.1,0,0,0,.015-.043q.192-.593.35-1.084a15.381,15.381,0,0,0-1.716-.13l-.317,1.228C962.235,944.791,962.792,944.8,963.311,944.82Zm-.763-3.394-.318,1.1q.826,0,1.78.044a5.551,5.551,0,0,0,.206-.982Q964.216,941.441,962.548,941.426Z" fill="#000000"/><path d="M966.027,962.416H953.81V951.252h12.217Z" fill="#000000"/><path d="M944.4,927.194a8.526,8.526,0,0,1-.159,1.965,3.039,3.039,0,0,1-1,1.589,5.782,5.782,0,0,1-2.4,1.314,6.228,6.228,0,0,1-1.827.318q-1.318,0-1.319-.91a2.273,2.273,0,0,1,1.1-2.051c.1.347.413.519.953.519a2.137,2.137,0,0,0,2.225-1.242,3.1,3.1,0,0,0,.207-.909v-.65q0-.736.984-.737a2.226,2.226,0,0,1,.874.116A.676.676,0,0,1,944.4,927.194Zm5.8-2.007a.72.72,0,0,1-.333.592,7.029,7.029,0,0,0-.683.419,1.557,1.557,0,0,0-.525.361q-1.764,1.806-2.367,1.805c-.487,0-.73-.182-.73-.549a4.928,4.928,0,0,1,.6-1.155.913.913,0,0,0,.111-.332c0-.25-.143-.376-.428-.376-.033,0-.361-.009-.986-.028s-1.011-.044-1.16-.044a18.442,18.442,0,0,0-3.034.246q-1.477.231-1.573.23a1.061,1.061,0,0,1-.588-.187.861.861,0,0,1-.365-.693,1.016,1.016,0,0,1,1.016-1.1,23.1,23.1,0,0,1,2.972-.188q3.431,0,5.8.188a7.926,7.926,0,0,1,1.747.274C950.022,924.777,950.2,924.956,950.2,925.187Z" fill="#000000"/><path d="M948.243,939.1q0,.26-.159,2.094a6.044,6.044,0,0,1-2,4.434,6.8,6.8,0,0,1-4.227,1.142,6.338,6.338,0,0,1-1.35-.1q-.843-.187-.842-.78,0-.924,1.462-1.907a1.737,1.737,0,0,0,1.478.492,3.009,3.009,0,0,0,1.842-.694,3.669,3.669,0,0,0,1.3-3.048v-.895q.016-.577.016-.679,0-.779,1.255-.779a1.837,1.837,0,0,1,.794.173C948.1,938.7,948.243,938.879,948.243,939.1Zm-6.212-.073c0,.117-.006.531-.015,1.243s-.016,1.208-.016,1.458q0,1.489-1.224,1.488-.952,0-.953-1.054,0-.187-.048-1.372-.031-1.185-.032-1.633,0-.75,1.193-.751Q942.031,938.407,942.031,939.028Z" fill="#000000"/><path d="M949.642,960.221a2.064,2.064,0,0,1-1.478.91,1.57,1.57,0,0,1-.89-.448c-.127-.1-.338-.26-.635-.492-.276-.22-.514-.4-.715-.548a15.706,15.706,0,0,0-2.542-1.4q-2.812,2.426-4.957,2.426-.843,0-.842-.909a3.424,3.424,0,0,1,.905-1.849.923.923,0,0,0,.667.245,3.8,3.8,0,0,0,1.542-.447,7.642,7.642,0,0,0,1.605-.954,11.22,11.22,0,0,0,1.016-.953q.429-.477.429-.621c0-.154-.153-.231-.461-.231a22.354,22.354,0,0,0-2.764.145q-1.113.115-1.017.115a.906.906,0,0,1-.842-.925q0-.865,1.08-.866l1.8-.029q1.859-.072,2.78-.073a8.1,8.1,0,0,1,2.574.246c.318.116.476.29.476.52a.56.56,0,0,1-.269.434,3.692,3.692,0,0,0-.509.4q-.492.521-1.859,2.051a12.252,12.252,0,0,0,3.146,1.386q.682.217,2.065.564c.1.019.217.048.366.087h.015A2.221,2.221,0,0,1,949.642,960.221Z" fill="#000000"/><path d="M925.263,923.237a.947.947,0,0,1,.683.217.844.844,0,0,1,.254.577,1.448,1.448,0,0,1-.588.983L923.69,926.5q-.413.376-.413.477,0,.216.54.476l.715.261q.984-.782,1.923-1.561a1.4,1.4,0,0,1,.842-.432.9.9,0,0,1,.508.187.665.665,0,0,1,.255.491,1.707,1.707,0,0,1-.732,1.243l-3.018,2.44,2.462.072c.085,0,.127-.052.127-.159q-.635-.635-.635-.808,0-.4.445-.4a4.121,4.121,0,0,1,1.684,1.04q1.048.823,1.048,1.271,0,.636-.572.635a4.883,4.883,0,0,1-.667-.1,19.032,19.032,0,0,0-1.97-.072h-2.113a11.08,11.08,0,0,0-2.065.144,2.047,2.047,0,0,1-.477.145c-.646,0-.969-.194-.969-.578a1.546,1.546,0,0,1,.763-1.141q.906-.664,1.763-1.315a12.463,12.463,0,0,0-1.874-.75q-.716-.2-.715-.492,0-.273.635-.852l2.685-2.629A2.534,2.534,0,0,1,925.263,923.237Zm6.165.52q2.6,0,3.384.087c.328.057.492.164.492.317a.651.651,0,0,1-.112.261,1.537,1.537,0,0,0-.221.823l-.1,4.145a3.579,3.579,0,0,1-1.287,2.6,3.385,3.385,0,0,1-2.16.838,1.245,1.245,0,0,1-.874-.375,3.308,3.308,0,0,1-.779-1.416,6.125,6.125,0,0,0,2.558-.794,2.076,2.076,0,0,0,.874-1.848v-2.961c0-.125-.091-.188-.27-.188q-2.306,0-3.7.115a6,6,0,0,1-1,.13.656.656,0,0,1-.476-.274.837.837,0,0,1-.223-.607c0-.394.291-.655.874-.78Q928.853,923.757,931.428,923.757Z" fill="#000000"/><path d="M923.531,937.772a.631.631,0,0,1,.509.188.638.638,0,0,1,.19.447.655.655,0,0,1-.3.463l-1,.707c-.149.125-.223.2-.223.232s.079.077.238.115l.286.057.684-.562a.886.886,0,0,1,.524-.246.442.442,0,0,1,.493.506.612.612,0,0,1-.334.5l-1.7,1.228c0,.038.047.058.143.058h1.128c.095,0,.143-.02.143-.058a1.859,1.859,0,0,1-.206-.52c0-.145.111-.217.333-.217.18,0,.45.179.81.534q.462.492.461.737,0,.462-.509.462a2.664,2.664,0,0,1-.428-.057H923.4a14.944,14.944,0,0,0-1.827.087,1.5,1.5,0,0,1-.381.085.429.429,0,0,1-.27-.1.294.294,0,0,1-.127-.26c0-.125.159-.3.476-.535l.874-.751a8.28,8.28,0,0,0-1.1-.39q-.381-.086-.381-.231t.381-.477l1.636-1.5A1.578,1.578,0,0,1,923.531,937.772Zm4.575-.274a2.89,2.89,0,0,1,.938.1c.148.047.223.125.223.231a.982.982,0,0,1-.16.477,13.012,13.012,0,0,1,1.685.144c.159.028.238.1.238.2-.052.231-.117.573-.19,1.026.053-.048.111-.1.175-.159l1.62-1.4a1.563,1.563,0,0,1,.826-.462.663.663,0,0,1,.509.188.674.674,0,0,1,.19.448q0,.188-.334.434l-1.1.634c-.148.107-.222.174-.222.2,0,.049.063.1.19.16l.3.13.572-.448a.918.918,0,0,1,.525-.231.447.447,0,0,1,.507.506c0,.182-.121.342-.365.476l-1.731,1.156c0,.029.042.043.127.043h1c.137,0,.207-.014.207-.043a1.694,1.694,0,0,1-.207-.477c0-.145.111-.217.334-.217q.268,0,.762.521c.3.3.445.529.445.692,0,.309-.149.463-.445.463h-1.811a13.151,13.151,0,0,0-1.7.086,1.282,1.282,0,0,1-.381.087.484.484,0,0,1-.3-.13.3.3,0,0,1-.111-.217.61.61,0,0,1-.223.044,1.875,1.875,0,0,1-.254-.044c-.307-.028-.731-.048-1.271-.057.042.019.074.034.1.042a.963.963,0,0,1,.414.593q2.478.072,6.179.462a2.227,2.227,0,0,1-.444,1.2.775.775,0,0,1-.652.419,5.307,5.307,0,0,1-1.175-.231,22.133,22.133,0,0,0-3.925-.607l-.031,1.647a2.2,2.2,0,0,1-.334,1.285.885.885,0,0,1-.81.448,1.251,1.251,0,0,1-.826-.289c-.223-.144-.334-.588-.334-1.329v-1.776a22.637,22.637,0,0,0-4.354.534,5.072,5.072,0,0,1-1.111.187.649.649,0,0,1-.43-.2.481.481,0,0,1-.206-.36.661.661,0,0,1,.572-.708,24.155,24.155,0,0,1,5.545-.664.876.876,0,0,1,.318-.549,1.392,1.392,0,0,1,.158-.1,8.707,8.707,0,0,0-1.048.1.7.7,0,0,1-.207.072q-.3,0-.365-.463l-.334-2.946a.352.352,0,0,1,.3-.347q.6-.1,1.223-.144a1.3,1.3,0,0,0,.143-.447c0-.068-.068-.159-.206-.275A7.452,7.452,0,0,1,928.106,937.5Zm-3.034,7.221c.085,0,.127.039.127.116a1.953,1.953,0,0,1-.762,1.27,2.88,2.88,0,0,1-1.795.853c-.381,0-.573-.246-.573-.736a1.165,1.165,0,0,1,.271-.868c.021.078.121.116.3.116a3.812,3.812,0,0,0,1.842-.577A1.576,1.576,0,0,1,925.072,944.719Zm2.05-4.867a8.764,8.764,0,0,1,.938-.043q.57,0,1.159.043l.048-.5c0-.049-.038-.082-.112-.1a6.633,6.633,0,0,0-1.159-.072,3.033,3.033,0,0,0-.763.087c-.085.019-.127.048-.127.087Zm.238,1.343a4.815,4.815,0,0,1,.731-.057,6,6,0,0,1,.842.057.19.19,0,0,0,.207-.174l.031-.418q-.588-.043-1.111-.043c-.35,0-.652.009-.907.029l.017.549C927.17,941.176,927.233,941.2,927.36,941.2Zm3.242.563.269-.245,1.017-.794a7.12,7.12,0,0,0-.937-.477.886.886,0,0,1-.175-.087C930.723,940.607,930.665,941.143,930.6,941.758Zm.428,3.019a2.24,2.24,0,0,1,.842.231,9,9,0,0,0,1.971.693,2.581,2.581,0,0,1-.572,1.055,1.257,1.257,0,0,1-.763.26,1.325,1.325,0,0,1-.859-.477,3.026,3.026,0,0,1-.809-1.589C930.84,944.835,930.9,944.777,931.03,944.777Z" fill="#000000"/><path d="M928.106,952.393a48.564,48.564,0,0,1,6.133.259q.556.073.557.319-.318,1.977-.7,7.9-.033.52-.4.52c-.095,0-.328-.025-.7-.073q-1.6-.143-4.925-.144-3.4,0-5.259.174a3.948,3.948,0,0,1-.619.1c-.2,0-.323-.149-.366-.447l-.635-7.8q0-.418.746-.519Q924.995,952.393,928.106,952.393Zm-4.638,7.452q1.3-.029,2.574-.043a.62.62,0,0,1-.144-.145,1.649,1.649,0,0,1-.334-1.083,5.806,5.806,0,0,0,2.241-.332.758.758,0,0,0,.493-.65V955.96a19.671,19.671,0,0,0-3.114.26q-.764.1-.954.1a.637.637,0,0,1-.445-.174.688.688,0,0,1-.175-.461.622.622,0,0,1,.43-.592,22.485,22.485,0,0,1,4.258-.217v-.693a.588.588,0,0,1,.142-.4h-.334q-2.38,0-4.431.159c-.52.039-.779.1-.779.173l.381,5.618C923.277,959.807,923.341,959.845,923.468,959.845Zm3.574-3.481a.376.376,0,0,1,.43.419c0,.077-.127.232-.382.462a4.946,4.946,0,0,1-1.223.723,3.071,3.071,0,0,1-1.064.245q-.493,0-.493-.4a1.468,1.468,0,0,1,.365-.852.281.281,0,0,0,.255.1,2.676,2.676,0,0,0,.841-.16,4.065,4.065,0,0,0,.954-.447A.606.606,0,0,1,927.042,956.364Zm2.717-2.585a.347.347,0,0,1,.08.217,3.108,3.108,0,0,0-.064.52v.376q1.208.042,2.526.158a2.008,2.008,0,0,1-.3,1.083.6.6,0,0,1-.46.188,5.749,5.749,0,0,1-.826-.1c-.34-.068-.651-.12-.938-.158v1.689a1.767,1.767,0,0,1-.906,1.632,4.9,4.9,0,0,1-.969.4h4.4c.128,0,.2-.081.207-.245l.365-5.488c0-.077-.138-.13-.413-.159Q931.523,953.808,929.759,953.779Z" fill="#000000"/></g></g></svg>
