<svg xmlns="http://www.w3.org/2000/svg" width="1000" height="988" viewBox="0 0 1000 988"><g id="Artboard"><rect id="Tint" width="1000" height="988" fill="#58595b"/></g><g id="Outline"><g id="Legacy_of_Lunatic_Kingdom" data-name="Legacy of Lunatic Kingdom"><polygon points="264.964 512.2 264.969 512.201 264.969 512.197 264.964 512.2" fill="none"/><path d="M531.109,506.325c0,.455,0,.934,0,1.421,0,1.878.026,3.235.062,4.213a9.1,9.1,0,0,1,1.57.3V506.1a6.305,6.305,0,0,1-1.615.221Z" fill="none"/><path d="M384.7,506.208v5.914l.37-.011c.351-.01.681-.019.973-.019h.185c-.012-1.257-.012-2.6-.012-3.683v-2.2Z" fill="none"/><path d="M277.835,512.05l.171-.01c.239-.014.47-.025.674-.025h.8v-5.729h-1.642c-.017,1.577,0,3.552.009,5.294,0,.044,0,.089,0,.133C277.84,511.8,277.837,511.915,277.835,512.05Z" fill="none"/><path d="M335.193,505.835c-.046.018-.093.034-.14.05a9.35,9.35,0,0,1-2.787.479h-6.882v5.689h9.066a7.489,7.489,0,0,1,1.926.236v-6.948C336.069,505.486,335.688,505.65,335.193,505.835Z" fill="none"/><rect x="301.984" y="506.364" width="1.633" height="5.688" fill="none"/><path d="M647.394,512.05l.171-.01c.239-.014.471-.025.674-.025h.8v-5.729H647.4c-.018,1.577,0,3.552.007,5.294,0,.044,0,.087,0,.13C647.4,511.794,647.4,511.914,647.394,512.05Z" fill="none"/><rect x="671.075" y="506.364" width="1.673" height="5.688" fill="none"/><path d="M601.1,502.052a4.008,4.008,0,0,1,1.4-3.043l.018-.015a4.172,4.172,0,0,1-1.07-2.792v-.45l-3.548,3.67c-.693.745-1.414,1.484-2.113,2.2-.357.366-.715.733-1.1,1.127l-1.165,1.187,1.738,1.62c.558.533,1.153,1.071,1.782,1.64.324.293.647.585.964.876l2.769,2.534.038.036.279.262Z" fill="none"/><rect x="506.381" y="506.364" width="1.633" height="5.688" fill="none"/><path d="M695.06,506.208v5.914l.371-.011c.351-.01.681-.019.972-.019h.186c-.013-1.257-.013-2.6-.013-3.683v-2.2Z" fill="none"/><path d="M359.222,496.784a9.736,9.736,0,0,0-1.885.215,9.109,9.109,0,0,0-3.627,1.356l-.224.155a4.394,4.394,0,0,0-2.328,3.737v9.768h-.485c-.206,0-.406,0-.605.01-.127,0-.253.007-.38.007h-.026a3.527,3.527,0,0,1-.449-.192V509c.039-1.67.039-3.343.039-4.961v-2.28a4.36,4.36,0,0,0-2.073-4.152,3.572,3.572,0,0,0-.33-.186,6.563,6.563,0,0,0-3.04-.658c-.056,0-.112,0-.167,0a8.663,8.663,0,0,0-4.224,1.209c-.138.081-.294.158-.409.217-.087.044-.179.092-.275.144-1.318-1.567-3.461-1.573-4.362-1.573H323.49a12.082,12.082,0,0,0-4.308.807,13.174,13.174,0,0,0-4.268,2.514c-.1-.139-.2-.277-.312-.415-.016-.021-.033-.042-.05-.062a8.044,8.044,0,0,0-5.325-2.718,10.658,10.658,0,0,0-1.921-.126h-7.294a12.535,12.535,0,0,0-6.963,2.132l-.059.04a11.989,11.989,0,0,0-1.829,1.583,8.984,8.984,0,0,0-7.762-3.755h-6.747c-.136,0-.272,0-.407,0-.175,0-.349,0-.519,0a10.047,10.047,0,0,0-1.435.089,12.558,12.558,0,0,0-6.9,3.181,8.544,8.544,0,0,0-1.04-1.328c-.018-.02-.037-.039-.056-.058a7.614,7.614,0,0,0-5.576-1.888c-.257,0-.509.006-.75.014h-7.842c-3.228.055-7.4,1.542-9.431,4.739-.031.049-.06.1-.089.148a9.554,9.554,0,0,0-1.16,4.963v4.134c0,.09-.008.223-.015.356-.01.217-.019.433-.022.6,0,.059-.007.136-.01.227h-8.488V490.468a4,4,0,0,0-2.072-3.5,5.339,5.339,0,0,0-2.669-.61c-.053,0-5.251.031-7.266,2.7a4.274,4.274,0,0,0-.868,2.888V513.6a8.183,8.183,0,0,0,1.518,4.522c.026.038.053.075.08.112a8.948,8.948,0,0,0,5.046,3.172,3.975,3.975,0,0,0,.8.127,19.686,19.686,0,0,0,2.169.084h10.062a9.17,9.17,0,0,0,2.8-.513l.164-.051a4.076,4.076,0,0,0,.622-.249,16.018,16.018,0,0,0,1.444-.807c.04.031.072.062.113.093l.08.057c2.089,1.47,4.557,1.47,6.359,1.47h8.541c1.742,0,4.375,0,6.63-1.711a4.54,4.54,0,0,0,.847-.837,9.651,9.651,0,0,0,1.921,1.489c.079.046.159.09.24.131a11.776,11.776,0,0,0,5.3.928h4.7v.191h-6.3a8.149,8.149,0,0,0-2.28.33,4.015,4.015,0,0,0-.9.267l-.07.03c-.348.149-.932.4-1.474.693a4.93,4.93,0,0,0-2.45,2.606,3.971,3.971,0,0,0-.093,2.748c.65,1.942,2.323,2.927,4.971,2.927l.3,0h10.024c5.515,0,11.1-2.82,11.1-8.212v-3.276a8.8,8.8,0,0,0,5.632,1.7h5.714c.148.011.3.016.445.016a6.841,6.841,0,0,0,2.351-.425,8.428,8.428,0,0,0,2.645.37,4.091,4.091,0,0,0,.442-.024,12.136,12.136,0,0,0,2.025-.4l.1-.028a3.874,3.874,0,0,0,.391-.127,8.2,8.2,0,0,0,2.176-1.084l.092-.07c.265-.212.473-.385.609-.5a9.293,9.293,0,0,0,4.412,2.105,10.8,10.8,0,0,0,2.193.165h10.726a7.821,7.821,0,0,0,2.075-.3l.106-.027.126-.025a4,4,0,0,0,.771-.238c.1-.037.227-.072.351-.109a6.7,6.7,0,0,0,3.045-1.707c.06.062.114.123.177.184q.063.061.129.12c2.1,1.862,4.814,2.1,6.947,2.1,2.212,0,3.891,0,5.165,0v.117h-2.435c-.06,0-.142-.007-.234-.011-.278-.014-.6-.028-.936-.028-.267,0-.549-.009-.84-.018-.388-.011-.788-.022-1.188-.022a17.954,17.954,0,0,0-2.849.173,8.781,8.781,0,0,0-2.372.726l-.072.032-.213.1c-1.2.535-3.412,1.517-3.521,4.1a4.159,4.159,0,0,0,1,2.933c1.423,1.658,3.579,1.658,4.738,1.658.543,0,1.089-.022,1.48-.039h5.594c.158,0,.324.009.489.016.283.012.566.023.837.023h1.326a16.584,16.584,0,0,0,5.245-.712c5.938-1.942,6.828-5.533,6.828-7.5v-21.88A4.551,4.551,0,0,0,359.222,496.784Zm-55.6,9.58v5.689h-1.634v-5.689Zm30.832,5.689h-9.066v-5.689h6.882a9.35,9.35,0,0,0,2.787-.479c.047-.016.094-.032.14-.05.5-.185.876-.349,1.183-.494v6.948A7.489,7.489,0,0,0,334.45,512.053Zm-56.615-5.767h1.642v5.729h-.8c-.2,0-.435.011-.674.025l-.171.01c0-.135,0-.254.007-.337,0-.044,0-.089,0-.133C277.832,509.838,277.818,507.863,277.835,506.286ZM264.964,512.2l0,0v0Z" fill="#fff"/><path d="M412.292,486.312c-.078,0-.156,0-.234.007-.284.017-.6.033-.945.05-3.168.157-5.736.341-7.556,1.135l-.057.025c-2.179.99-4.323,2.2-5.307,4.33a6.559,6.559,0,0,0-.621,3.437c.007.188.023.345.034.458v2.081a6.359,6.359,0,0,0-1.006.593l-.085.064c-.084.065-.155.139-.233.207-2.236-1.909-4.989-1.934-7.038-1.934h-3.081a47.938,47.938,0,0,0-5.144.154c-1.4.191-4.87.889-7.008,3.248a8.394,8.394,0,0,0-2.184,6.55V512.9a8.152,8.152,0,0,0,3.14,6.983c.047.039.1.076.145.112a9.647,9.647,0,0,0,5.785,1.623h7.723a11.762,11.762,0,0,0,7.524-2.34A8.283,8.283,0,0,0,397.7,517.6a4.922,4.922,0,0,0,1.79,2.966c.048.037.1.073.145.108a5.234,5.234,0,0,0,3.088.944,9.428,9.428,0,0,0,2.572-.423c.064-.017.127-.037.19-.057a9.7,9.7,0,0,0,3.7-2.009l.093-.09a5.254,5.254,0,0,0,1.282-4.246c-.007-.152-.02-.284-.032-.387v-8.285a7.65,7.65,0,0,0,3.65-1.741l.044-.04a4.259,4.259,0,0,0,1.153-4.7,4.829,4.829,0,0,0-4.791-2.876h-.056v-.486c0-.069,0-.14,0-.212a10.337,10.337,0,0,0,3.493-.5l.157-.059.056-.023c.3-.118.919-.366,1.515-.668,3.7-1.874,2.92-4.873,2.727-5.455C417.449,486.312,414.221,486.312,412.292,486.312Zm-26.061,25.78h-.185c-.292,0-.622.009-.973.019l-.37.011v-5.914h1.516v2.2C386.219,509.488,386.219,510.835,386.231,512.092Z" fill="#fff"/><path d="M564.858,512.053h-9.065v-5.689h6.882a9.4,9.4,0,0,0,2.786-.478q.072-.024.144-.051a8.683,8.683,0,0,0,2.244-1.1l.034-.024c2.708-1.863,2.314-4.126,2.018-5.012-.023-.069-.048-.137-.074-.2-1.077-2.725-3.96-2.725-5.046-2.725H553.9a12.07,12.07,0,0,0-4.308.807,13.453,13.453,0,0,0-4.121,2.384,3.8,3.8,0,0,0-1-1.877l.058-.05a4.007,4.007,0,0,0,1.4-3.037v-2.379c0-1.261-.531-4.195-5.444-4.195a3.818,3.818,0,0,0-.465.028,12.859,12.859,0,0,0-2.246.454,3.956,3.956,0,0,0-.423.154c-.135.057-.27.112-.4.163a6.023,6.023,0,0,0-1.93,1.1c-.3.265-.528.462-.538.47a4,4,0,0,0-1.394,3.035v2.38a4.2,4.2,0,0,0,.277,1.493,7.712,7.712,0,0,0-2.162-.733c.018-1.12.018-2.351.018-3.725v-.293a5.749,5.749,0,0,0-1.719-4.368q-.093-.093-.192-.18a8.981,8.981,0,0,0-3.025-1.57c-.071-.026-.143-.05-.216-.071a8.721,8.721,0,0,0-2.526-.439,5.078,5.078,0,0,0-3.089.99c-.064.048-.127.1-.187.149-1.294,1.1-1.922,2.782-1.922,5.158,0,.4-.011.928-.02,1.431-.01.487-.018.958-.019,1.309-.018.565-.028,1.161-.033,1.841a4.542,4.542,0,0,0-1.335.765,9.119,9.119,0,0,0-3.318-1.068,10.675,10.675,0,0,0-1.922-.126h-7.293a12.536,12.536,0,0,0-6.964,2.132l-.058.04a12.266,12.266,0,0,0-1.611,1.352,8.8,8.8,0,0,0-6.216-3.379,23.724,23.724,0,0,0-2.662-.106h-4.29c-1.28,0-2.113,0-2.681.05a12.946,12.946,0,0,0-7.162,2.623c-.023.019-.044.039-.067.059a4.952,4.952,0,0,0-2.259-2.269,5.809,5.809,0,0,0-2.728-.5h-.274a3.988,3.988,0,0,0-.587.043,8.989,8.989,0,0,0-4.794,1.933,5.009,5.009,0,0,0-1.739,3.779v9.611c-.75,0-1.335-.007-1.789-.016v-11c0-1.387-.6-3.793-4.612-4.318-.121-.015-.243-.026-.365-.03s-.232-.007-.347-.007h0a9.574,9.574,0,0,0-4.245,1.01c-.068.034-.134.07-.2.107-1.244.712-3.1,1.777-3.1,4.213v4.134c0,.028,0,.056,0,.084.034,1.595.037,3.822.038,5.628h-8.107V490.468a4,4,0,0,0-2.072-3.5,5.339,5.339,0,0,0-2.669-.61c-.052,0-5.249.031-7.265,2.7a4.272,4.272,0,0,0-.869,2.889V513.6a8.169,8.169,0,0,0,1.517,4.52c.027.039.054.077.082.114a8.942,8.942,0,0,0,5.045,3.172,3.975,3.975,0,0,0,.8.127,19.686,19.686,0,0,0,2.169.084h10.063a9.143,9.143,0,0,0,2.8-.514l.163-.051a3.989,3.989,0,0,0,.62-.248c.329-.164.719-.36,1.217-.662a10.008,10.008,0,0,0,5.727,1.475h2.964c4.664,0,9.279-.361,12.2-2.617.54,1.142,1.71,2.286,4.219,2.555.036,0,.072.008.108.01q.318.025.624.025a9.056,9.056,0,0,0,3.683-.839,5.946,5.946,0,0,0,3.045-2.124,3.984,3.984,0,0,0,.467-.954,6.4,6.4,0,0,0,.283-2.528v-8.816h1.737c-.006.217-.015.431-.022.591,0,.056,0,.111,0,.167,0,.1-.008.2-.014.3-.014.25-.025.5-.025.749v9.088a4,4,0,0,0,1.171,2.828,5.811,5.811,0,0,0,4.232,1.561l.138,0a9.119,9.119,0,0,0,4.936-1.519,6.227,6.227,0,0,0,1.154-.961c.261.258.523.5.774.7a8.739,8.739,0,0,0,5.751,1.778h5.714c.148.011.3.016.445.016a6.836,6.836,0,0,0,2.351-.425,8.421,8.421,0,0,0,2.644.37,4.064,4.064,0,0,0,.442-.024,12.136,12.136,0,0,0,2.021-.4l.1-.028a3.94,3.94,0,0,0,.394-.129,8.3,8.3,0,0,0,2.171-1.079l.1-.076c.452-.361.769-.633.769-.633a4.017,4.017,0,0,0,.977-1.277,12.928,12.928,0,0,0,4.061,2.507l.5.206a9.956,9.956,0,0,0,4.808.97h1.639a10.229,10.229,0,0,0,3.781-.512,7.78,7.78,0,0,0,2.887.473c.083,0,.166,0,.249-.008a8.2,8.2,0,0,0,2.763-.569l.2-.08a6.922,6.922,0,0,0,2.239-1.2c.074-.064.145-.132.213-.2.232-.19.375-.314.375-.314a3.958,3.958,0,0,0,.516-.552,8.594,8.594,0,0,0,5.056,2.8,10.817,10.817,0,0,0,2.193.165h10.726a7.87,7.87,0,0,0,2.074-.3l.106-.028.126-.025a4.028,4.028,0,0,0,.774-.238c.1-.038.226-.072.35-.11,1.009-.306,4.08-1.238,4.08-4.471C570.185,516.264,570.124,512.053,564.858,512.053Zm-32.119.208a9.1,9.1,0,0,0-1.57-.3c-.036-.978-.062-2.335-.062-4.213,0-.487,0-.966,0-1.421h.015a6.305,6.305,0,0,0,1.615-.221Zm-24.725-5.9v5.689h-1.633v-5.689Z" fill="#fff"/><path d="M740.078,502.88q-.014-.073-.03-.147c-.706-3.133-3.72-5.5-7.509-5.9a12.374,12.374,0,0,0-1.445-.074c-.194,0-.388,0-.578,0-.143,0-.283,0-.416,0h-1.716c-.18,0-.367,0-.556-.008-.249,0-.5-.01-.75-.01-.3,0-.606.007-.894.025-.065,0-.129.01-.193.017a15.585,15.585,0,0,0-2.676.515,11.349,11.349,0,0,0-3.9-.539H718.4c-.21,0-.424,0-.638-.008-.262,0-.525-.01-.783-.01-.315,0-.623.007-.92.025a12.633,12.633,0,0,0-7.554,2.818l-.066.06c-.152.144-.309.3-.468.459a8.484,8.484,0,0,0-.922-1.065c-2.3-2.279-5.273-2.279-7.446-2.279h-3.081a47.938,47.938,0,0,0-5.144.154,13.417,13.417,0,0,0-5.793,2.185v-8.441c0-2.105-1.6-4.37-5.1-4.37a6.415,6.415,0,0,0-1.118.091,10.576,10.576,0,0,0-5.6,2.663,4.134,4.134,0,0,0-1.02,2.742v4.976h-3.371a12.706,12.706,0,0,0-3.413.459c-.074.02-.147.043-.219.068a13.05,13.05,0,0,0-5.231,2.926,9.094,9.094,0,0,0-7.556-3.453h-6.747c-.136,0-.272,0-.407,0-.175,0-.349,0-.519,0a10.055,10.055,0,0,0-1.435.089,12.415,12.415,0,0,0-7.077,3.365,8.827,8.827,0,0,0-6.153-3.3,23.689,23.689,0,0,0-2.661-.106h-4.29c-1.28,0-2.113,0-2.681.05a12.946,12.946,0,0,0-7.162,2.623c-.034.028-.066.058-.1.087a3.726,3.726,0,0,0-.891-1.485l.058-.05a4.007,4.007,0,0,0,1.4-3.037v-2.379c0-1.261-.53-4.195-5.443-4.195a3.822,3.822,0,0,0-.466.028,12.859,12.859,0,0,0-2.246.454,3.956,3.956,0,0,0-.423.154c-.135.057-.269.112-.4.163-.245.1-.491.206-.738.323a4.447,4.447,0,0,0-2.395-2.722,5.3,5.3,0,0,0-2.319-.507,6.928,6.928,0,0,0-1.605.195,8.15,8.15,0,0,0-4.564,2.07l-.043.044-1.248,1.287-1.248,1.287-.54.556v-1.2a4,4,0,0,0-1.851-3.373,5.8,5.8,0,0,0-3.172-.869c-2.131,0-5.942,1.18-7.257,3.313a4.011,4.011,0,0,0-.592,2.259c.036.9.036,1.8.036,2.766,0,2.027,0,4.8.039,6.825,0,2.369,0,5.592.039,7.95v8a4.208,4.208,0,0,0,4.263,4.159c.468.036.932.036,1.181.036.083,0,.166,0,.25-.008a8.1,8.1,0,0,0,2.823-.6,9.513,9.513,0,0,0,2.215-1.155,5.032,5.032,0,0,0,1.965-2.481l.036.031c.5.451,1.016.913,1.587,1.438l.1.092.81.694c.09.1.181.2.329.345a4.11,4.11,0,0,0,.43.372,6.231,6.231,0,0,0,3.78,1.2,6.832,6.832,0,0,0,1.316-.126,8.86,8.86,0,0,0,2.681-.895l.582-.324a5.823,5.823,0,0,0,4.3,1.375c.083,0,.167,0,.25-.008a8.2,8.2,0,0,0,2.762-.569l.2-.08a7.886,7.886,0,0,0,2-1.018,5.309,5.309,0,0,0,3.637,1.652c.036,0,.072.008.108.01q.318.025.625.025a9.06,9.06,0,0,0,3.684-.84,5.927,5.927,0,0,0,3.056-2.142,4.023,4.023,0,0,0,.454-.935,6.4,6.4,0,0,0,.283-2.528v-8.816h1.737c-.006.217-.015.431-.021.591,0,.056,0,.111,0,.167,0,.1-.008.2-.013.3-.014.25-.026.5-.026.749v9.088a4,4,0,0,0,1.172,2.828,5.811,5.811,0,0,0,4.232,1.561l.138,0a9.122,9.122,0,0,0,4.936-1.519,6.225,6.225,0,0,0,1.184-1,9.724,9.724,0,0,0,1.893,1.458c.078.046.158.089.239.13a11.761,11.761,0,0,0,5.3.929h4.7v.191h-6.3a8.147,8.147,0,0,0-2.279.33,3.977,3.977,0,0,0-.9.267l-.07.03c-.349.149-.932.4-1.475.693a4.93,4.93,0,0,0-2.45,2.606,3.971,3.971,0,0,0-.093,2.748c.65,1.942,2.323,2.927,4.971,2.927l.3,0h10.024c5.515,0,11.1-2.82,11.1-8.212v-2.984a10.912,10.912,0,0,0,2.26,1.019c.042.014.084.026.127.039a10.972,10.972,0,0,0,3.012.349h7.371a12.246,12.246,0,0,0,5.454-1.241,12.609,12.609,0,0,0,3.418-2.434,8.682,8.682,0,0,0,1.811,1.941c.047.038.095.074.144.11a9.639,9.639,0,0,0,5.786,1.624h7.723a11.983,11.983,0,0,0,7.254-2.142,4.98,4.98,0,0,0,3.979,2.119l.107.011c.212.016.419.024.624.024a8.935,8.935,0,0,0,3.825-.924l.144-.065a8.76,8.76,0,0,0,1.841-1.034,4.959,4.959,0,0,0,2.353,1.655,5.029,5.029,0,0,0,1.941.356,8.413,8.413,0,0,0,1.048-.07,9.048,9.048,0,0,0,5.672-2.705c.043-.051.085-.1.125-.155a4.957,4.957,0,0,0,3.041,2.63,6.293,6.293,0,0,0,1.928.3,8.225,8.225,0,0,0,3.124-.668,8.375,8.375,0,0,0,2.26-1.171,4.146,4.146,0,0,0,.342-.306,5.2,5.2,0,0,0,1.637-4.039v-8.576c0-.041.007-.127.012-.212.011-.191.021-.381.025-.54A15.623,15.623,0,0,0,740.078,502.88Zm-43.489,9.212H696.4c-.291,0-.621.009-.972.019l-.371.011v-5.914h1.516v2.2C696.576,509.488,696.576,510.835,696.589,512.092Zm-23.841-5.728v5.689h-1.673v-5.689Zm-25.353-.078h1.641v5.729h-.8c-.2,0-.435.011-.674.025l-.171.01c0-.136,0-.256.007-.34,0-.043,0-.086,0-.13C647.391,509.838,647.377,507.863,647.4,506.286Zm-46.608,4.32-2.769-2.534c-.317-.291-.64-.583-.964-.876-.629-.569-1.224-1.107-1.782-1.64l-1.738-1.62,1.165-1.187c.381-.394.739-.761,1.1-1.127.7-.716,1.42-1.455,2.113-2.2l3.548-3.67v.45a4.172,4.172,0,0,0,1.07,2.792l-.018.015a4.008,4.008,0,0,0-1.4,3.043V510.9l-.279-.262Z" fill="#fff"/></g></g><g id="Text"><g id="東方紺珠伝"><path d="M889.471,294.3c-35.112-12.154-65.63-33.76-88.047-64.549v76.7H768.475v-66.17c-26.469,23.767-56.448,39.432-101.551,54.826l-3.781-9.182c37.811-21.337,59.418-38.892,80.753-66.44H691.771V121.451h76.7V96.063h-97.5V86.34h97.5V63.653h32.949V86.34h97.229v9.723H801.424v25.388h77.514V219.49h-74c31.87,22.146,63.469,32.679,101.28,38.621Zm-121-163.129H724.721v32.95h43.754Zm0,42.673H724.721v35.921h43.754Zm77.512-42.673H801.424v32.95h44.563Zm0,42.673H801.424v35.921h44.563Z" fill="#000000"/><path d="M839.673,402.538c8.692,1.765,15.076,2.716,19.694,2.716,11.273,0,12.767-5.3,14.261-15.755,1.9-13.174,3.395-29.473,3.395-40.746H839.945c-2.988,25.263-15.619,52.834-47.537,64.514l-2.037-4.074c23.089-14.94,31.781-39.524,31.781-73.885V320.639H788.334v-5.025h52.29V291.167h18.2v24.447H910.57v5.025H840.76v14.669c0,2.716-.136,5.568-.272,8.42h55.55a405.326,405.326,0,0,1-4.074,46.45c-2.31,14.4-5.161,23.225-21.324,23.225-7.2,0-17.249-1.765-30.967-5.7Z" fill="#000000"/><path d="M802.8,583.594V535.362a198.06,198.06,0,0,1-22.033,39.383l-3.818-2.6a221.657,221.657,0,0,0,7.808-48.058l18.043,4.858V514.2q-11.19,3.384-22.9,6.246l-3.644-22.034c6.072.348,11.971.521,17.869.695a167.081,167.081,0,0,0,10.931-16.309,243.582,243.582,0,0,0-27.586-14.053L789.089,450.7c2.256,2.776,4.338,5.725,6.42,8.675a203.789,203.789,0,0,0,5.552-31.749l21.512,5.9a187.157,187.157,0,0,1-23.942,30.362,165.989,165.989,0,0,1,9.022,14.746,136.038,136.038,0,0,0,12.838-29.146l18.564,13.185c-13.7,16.135-22.38,24.289-38.515,36.607h5.2c7.113,0,12.665-.173,20.819-.52a97.665,97.665,0,0,0-3.123-12.318l3.47-2.429a185.574,185.574,0,0,1,21.166,25.85l-17.7,10.063c-.868-5.552-1.735-10.063-2.777-15.268a19.541,19.541,0,0,1-5.725,2.776v76.164Zm27.412-21.687a303.353,303.353,0,0,0-5.031-35.046l4.337-2.776a140.03,140.03,0,0,1,18.737,28.974Zm67.142,21.687V570.755H871.5v12.839H851.026V460.24H836.973V454h14.053V427.624H871.5V454h25.851V427.624H917.82V454h14.574v6.245H917.82V583.594Zm0-123.354H871.5v45.629h25.851Zm0,51.874H871.5v52.569h25.851Z" fill="#000000"/><path d="M802.181,667.4c-12.223,8.193-28.339,16.655-42.442,22.967l-2.955-17.863c4.7-.537,9.536-1.074,14.371-1.881v-34.92H758.4V630.87h12.759V600.517H757.188v-4.835H799.36v4.835H786.332V630.87h10.879v4.835H786.332v31.966c5.372-1.209,10.61-2.687,15.849-4.164Zm30.085,36.8v-50.23c-9.8,16.116-20.415,28.2-38.01,39.755l-2.417-3.358c13.968-15.445,22.7-30.353,28.876-49.694H799.494V635.84h32.772v-23.1H818.7a105.376,105.376,0,0,1-13.565,20.012l-3.089-2.283a136.639,136.639,0,0,0,6.984-41.1l17.729,3.761a88.471,88.471,0,0,1-5.641,14.773h11.148V583.46h15.445V607.9h22.43v4.836h-22.43v23.1h27.8v4.835H849.322c7.79,16.386,17.192,24.578,29.28,32.368l-8.865,19.475c-11.684-12.894-17.863-26.728-22.026-44.053V704.2Z" fill="#000000"/><path d="M624.241,830.157v-94.57c-5.151,6.623-10.855,13.246-17.111,20.238l-3.68-3.864c17.848-27.781,25.944-55.012,31.095-87.21l23.366,7.359a251.853,251.853,0,0,1-13.431,31.647v126.4Zm119.409-4.6c-2.391-9.016-4.784-17.48-7.359-25.391a699.579,699.579,0,0,1-79.853,21.895l-4.783-26.5h20.607c9.015-19.319,12.511-36.246,15.823-58.876h-37.35v-7.544H767.752v7.544H717.34c-9.568,23-20.423,41.213-36.246,58.692,19.135-.552,34.774-1.472,52.621-2.944a291.451,291.451,0,0,0-11.776-29.99l4.968-3.5c13.432,12.879,30.174,33.67,42.5,51.333ZM663.614,690.693v-7.359h91.994v7.359Z" fill="#000000"/></g><path d="M227.707,517.535a5.044,5.044,0,0,1-2.847-1.677,4.233,4.233,0,0,1-.819-2.262v-21.88c-.234-.819,4.095-1.677,4.875-1.248V512.66a3.61,3.61,0,0,0,.78,2.3,2.83,2.83,0,0,0,1.17.976h10.921c.351,0,1.286,0,1.364.194.039.078-.116.2-.273.312a11.43,11.43,0,0,1-1.364.781,6.413,6.413,0,0,1-1.8.389H229.657a14.417,14.417,0,0,1-1.872-.078Z" fill="#000000"/><path d="M245.49,514.376a13.78,13.78,0,0,1-.078-2.535c0-.273.039-.819.039-1.092v-4.134a5.662,5.662,0,0,1,.624-2.964c1.092-1.716,3.822-2.847,6.124-2.886h7.839c1.17-.039,2.691-.039,3.432.7a4.592,4.592,0,0,1,1.287,3,5.715,5.715,0,0,1-1.092,3.627,6.659,6.659,0,0,1-3.588,1.794,17.923,17.923,0,0,1-3.276.156c-.312,0-.78-.039-1.053-.039h-4.135c-.585,0-1.364-.2-.858-.585h-.039a5.514,5.514,0,0,1,1.521-.741,7.717,7.717,0,0,1,2.223-.234h4.954l.273-.819a6.821,6.821,0,0,0,.234-1.755,7.158,7.158,0,0,0-.234-1.794,3.552,3.552,0,0,0-.663-1.443,1.157,1.157,0,0,0-.936-.312h-7.176l-.351.39-.234,3.2v5.616a5.872,5.872,0,0,0,.351,2.964,2.6,2.6,0,0,0,2.261,1.522h10.648c.819.038.78.467.468.7-1.131.858-2.652.9-4.212.9H251.3c-1.444,0-3,0-4.057-.741A3.933,3.933,0,0,1,245.49,514.376Z" fill="#000000"/><path d="M281.215,527.4h-9.828c-.585,0-1.6.039-1.678-.194h.04c-.118-.312,1.287-.9,1.833-1.132a.054.054,0,0,0,.078,0,5.1,5.1,0,0,1,1.521-.272H283.4a3.581,3.581,0,0,1,.078-1.4V505.757c0-1.95-.936-3.471-2.5-3.471H274.2c-.39.624-.39,3.666-.351,9.321-.039,1.482-.039,3,.858,3.745h-.039a4.315,4.315,0,0,0,3.081.7c.312,0,.663-.038.936-.038h2.535c.585,0,2.028-.039,1.833.428-.429.781-2.379,1.17-3.51,1.17H274.78a8.525,8.525,0,0,1-3.51-.507,4.24,4.24,0,0,1-2.3-3.237v-8.346c0-2.691,3.12-4.291,5.889-4.719a13.472,13.472,0,0,1,1.794-.039H283.4c2.691,0,4.914,1.326,4.914,3.705v18.72C288.313,526.271,284.023,527.4,281.215,527.4Z" fill="#000000"/><path d="M306.682,516.755a8.119,8.119,0,0,1-1.327.585,3.011,3.011,0,0,1-1.521.273h-5.889a5.018,5.018,0,0,1-3.2-.858,4.079,4.079,0,0,1-1.6-2.262,10.283,10.283,0,0,1-.039-1.559v-7.1a6.455,6.455,0,0,1,.117-1.248,5.191,5.191,0,0,1,2.067-2.379,8.462,8.462,0,0,1,4.719-1.443h7.294a6.921,6.921,0,0,1,1.287.078,4.282,4.282,0,0,1,2.886,1.326,3.885,3.885,0,0,1,1.014,2.223V516.17s-.273.234-.663.546a7.767,7.767,0,0,1-1.209.547,8.62,8.62,0,0,1-1.521.311c-.2,0-1.482,0-1.482-.195V505.6a3.447,3.447,0,0,0-.663-2.3,4.437,4.437,0,0,0-1.054-.858l-.234-.078h-7.1l-.195.39a3.276,3.276,0,0,0-.39,1.521v8.541a3.447,3.447,0,0,0,.663,2.3,3.3,3.3,0,0,0,1.365.9l.078.038h5.889c.469,0,1.17,0,1.249.156C307.267,516.287,306.8,516.639,306.682,516.755Z" fill="#000000"/><path d="M333.592,517.379a5.426,5.426,0,0,1-1.326.234H321.54a7.572,7.572,0,0,1-1.365-.078,4.712,4.712,0,0,1-2.847-1.482,3.7,3.7,0,0,1-.819-2.067V506.3a4.838,4.838,0,0,1,.507-2.535,7.074,7.074,0,0,1,3.588-2.457,8.092,8.092,0,0,1,2.886-.546h10.882c.39,0,1.248,0,1.326.195.039.117-.469.429-.624.546a7.29,7.29,0,0,1-1.287.585,5.312,5.312,0,0,1-1.521.273h-10.18s-.039-.039-.351.39a2.9,2.9,0,0,0-.351,1.521v8.659a2.976,2.976,0,0,0,1.638,3c.117.039.273.078.273.078a.811.811,0,0,0,.195.038h10.96c.429,0,1.326.039,1.326.39,0,.39-1.365.624-1.989.9Z" fill="#000000"/><path d="M355.938,526.856a12.9,12.9,0,0,1-3.978.507h-1.326c-.429,0-.9-.039-1.326-.039h-5.655c-.936.039-3.237.156-3.159-.35,0-.157.936-.546,1.365-.742a5.085,5.085,0,0,1,1.482-.467,15.092,15.092,0,0,1,2.184-.118c.7,0,1.4.04,2.028.04.468,0,.9.039,1.17.039h4.758a11.129,11.129,0,0,0,1.4-.039,3.417,3.417,0,0,0,.273-1.755v-6.241c0-.117.039-.078-9.165-.078-1.6,0-3.237-.156-4.29-1.092a4.6,4.6,0,0,1-1.327-3.861v-9.828a1.283,1.283,0,0,1,.2-.936c.039-.04.546-.273.936-.507a4.736,4.736,0,0,1,2.3-.624,2.673,2.673,0,0,1,1.248.234c.312.195.195.39.195.585v2.457c0,1.638,0,3.275-.039,4.914v2.769a12.34,12.34,0,0,0,.078,1.716c.351,1.288,2.808,2.457,3.9,2.575.507.038.975,0,1.482,0h4.485V502.247a8.4,8.4,0,0,1,.858-.624,6.035,6.035,0,0,1,2.106-.7c.78-.156,1.911-.313,1.911.35v21.88C360.033,525.062,357.966,526.193,355.938,526.856Z" fill="#000000"/><path d="M393.573,516.209a7.9,7.9,0,0,1-4.953,1.4H380.9a6,6,0,0,1-3.432-.858,4.173,4.173,0,0,1-1.638-3.86v-6.241a4.59,4.59,0,0,1,1.131-3.783,7.936,7.936,0,0,1,4.6-1.989c.857-.117,3.393-.117,4.6-.117h3.081c1.794,0,3.51,0,4.641,1.131a4.336,4.336,0,0,1,1.209,3.744v6.552C395.094,513.557,395.133,514.922,393.573,516.209Zm-3.315-2.5c-.039-1.56-.039-3.744-.039-5.3v-2.847a4.306,4.306,0,0,0-.351-2.028c-.9-1.365-2.184-1.365-3.393-1.326h-5.187A2.721,2.721,0,0,0,380.7,504v8.385a4.85,4.85,0,0,0,.273,2.106c.39.859.857,1.4,1.287,1.522a10.82,10.82,0,0,0,1.833.116c.7,0,1.4-.039,1.95-.039h3.822a.879.879,0,0,0,.195-.468,10.159,10.159,0,0,0,.156-1.092A5.76,5.76,0,0,0,390.258,513.713Z" fill="#000000"/><path d="M412.683,491.794a6.91,6.91,0,0,1-2.3.273h-2.73c-.117,0-.312-.039-.467-.039a.488.488,0,0,0-.43.118c-.273.233-.312,1.091-.312,1.988,0,.39,0,.858.039,1.21a7.622,7.622,0,0,1,.04.935v4.174c0,.429-.781.351,4.056.312.585,0,1.4.195.936.624-1.054.936-2.692.975-4.252.975h-.74V514.61c0,.118.039.273.039.429a2.063,2.063,0,0,1-.118,1.17,6.016,6.016,0,0,1-2.223,1.131c-.7.195-1.716.469-2.262.078-.546-.429-.39-1.521-.351-2.106V502.871c.039-.273,0-.429.195-.507h-.078c-1.17.039-3.783.078-2.769-.7a7.777,7.777,0,0,1,1.95-.78,3.13,3.13,0,0,1,1.092-.117c-.273-.118-.351-1.482-.39-2.184v-2.965c0-.155-.039-.35-.039-.546a2.627,2.627,0,0,1,.234-1.482c.429-1.014,2.067-1.833,3.354-2.418,1.521-.663,5.149-.741,7.137-.858,1.209,0,2.3.078,2.38.312C414.789,490.975,413.073,491.638,412.683,491.794Z" fill="#000000"/><path d="M432.376,517.535a5.044,5.044,0,0,1-2.847-1.677,4.233,4.233,0,0,1-.819-2.262v-21.88c-.234-.819,4.1-1.677,4.875-1.248V512.66a3.616,3.616,0,0,0,.78,2.3,2.838,2.838,0,0,0,1.171.976h10.92c.351,0,1.287,0,1.365.194.039.078-.117.2-.273.312a11.352,11.352,0,0,1-1.365.781,6.4,6.4,0,0,1-1.794.389H434.326a14.417,14.417,0,0,1-1.872-.078Z" fill="#000000"/><path d="M451.369,516.794a4.186,4.186,0,0,1-1.677-3.9v-.313c0-1.872,0-4.524-.039-6.357v-4.134c0-.117.546-.429,1.092-.741a5.551,5.551,0,0,1,2.652-.585c.9.117,1.131.195,1.131.351v10.959a7.233,7.233,0,0,0,.118,1.911,2.839,2.839,0,0,0,1.521,1.951,28.211,28.211,0,0,0,4.329.194h3.275a.29.29,0,0,1,.04-.116,4.174,4.174,0,0,0,.351-.937,5.9,5.9,0,0,0,.155-2.067V502.52a1.03,1.03,0,0,1,.43-.819,5.72,5.72,0,0,1,2.691-.936h.273a3.079,3.079,0,0,1,.936.078.755.755,0,0,1,.507.78v8.58c0,.312.039.663.039,1.014a6.176,6.176,0,0,1-.819,3.861c-1.6,2.3-6.591,2.535-10.492,2.535h-2.964A6.308,6.308,0,0,1,451.369,516.794Z" fill="#000000"/><path d="M488.225,507.083a9.262,9.262,0,0,0-.118-2.613,3.34,3.34,0,0,0-1.091-1.872,3.392,3.392,0,0,0-1.561-.273H479.02c0,.039,0,.039-.078.117a8.31,8.31,0,0,1-.312.9,7.5,7.5,0,0,0-.117,2.145v9.868a2.5,2.5,0,0,1-.078,1.052,6.165,6.165,0,0,1-1.287.663,4.942,4.942,0,0,1-2.418.507c-1.092-.117-1.092-.273-1.092-.624v-4.6c0-1.833,0-3.666.039-5.538v-.585a5.5,5.5,0,0,1,.156-1.911,6.613,6.613,0,0,1,1.482-1.755,9.15,9.15,0,0,1,4.914-1.716c.429-.039,1.443-.039,2.379-.039h4.29a20.1,20.1,0,0,1,2.185.078c1.95.234,3.587,1.248,3.86,2.652a5.62,5.62,0,0,1,.118,1.95v10.492c0,.233,0,.389-.664.818a5.2,5.2,0,0,1-2.808.819,2,2,0,0,1-1.4-.389v-9.088C488.186,507.785,488.225,507.434,488.225,507.083Z" fill="#000000"/><path d="M511.078,516.755a8.053,8.053,0,0,1-1.326.585,3.016,3.016,0,0,1-1.521.273h-5.889a5.018,5.018,0,0,1-3.2-.858,4.087,4.087,0,0,1-1.6-2.262,10.415,10.415,0,0,1-.039-1.559v-7.1a6.376,6.376,0,0,1,.118-1.248,5.188,5.188,0,0,1,2.066-2.379,8.466,8.466,0,0,1,4.72-1.443H511.7a6.921,6.921,0,0,1,1.287.078,4.282,4.282,0,0,1,2.886,1.326,3.887,3.887,0,0,1,1.015,2.223V516.17s-.274.234-.663.546a7.859,7.859,0,0,1-1.209.547,8.654,8.654,0,0,1-1.522.311c-.195,0-1.482,0-1.482-.195V505.6a3.447,3.447,0,0,0-.663-2.3,4.459,4.459,0,0,0-1.053-.858l-.234-.078h-7.1l-.195.39a3.276,3.276,0,0,0-.39,1.521v8.541a3.441,3.441,0,0,0,.663,2.3,3.3,3.3,0,0,0,1.365.9l.078.038h5.889c.468,0,1.17,0,1.248.156C511.663,516.287,511.2,516.639,511.078,516.755Z" fill="#000000"/><path d="M531.476,517.613h-1.639a5.738,5.738,0,0,1-3.081-.585l-.663-.273c-1.287-.546-2.886-1.364-3.315-2.34-.468-.9-.507-5.3-.507-8.385v-3.12c0-.234,0-.507.234-.585a2.531,2.531,0,0,1-.819-.078,6.033,6.033,0,0,1-1.99-.78c-1.013-.78,1.561-.741,2.731-.7h.039c-.2-.039-.156-.234-.2-.468v-.313c0-2.066,0-3.392.039-4.562,0-.7.039-1.989.039-2.809,0-.273,0-1.676.506-2.106.469-.351,1.288-.156,2.068.078a6.182,6.182,0,0,1,1.755.819,1.856,1.856,0,0,1,.546,1.6v.234c0,1.794,0,3.316-.039,4.642,0,.741-.039,2.262-.039,2.886h1.014c1.482,0,3,0,3.94.858.467.429-.391.7-.976.7h-4.1c.078.039.117.117.117.429v1.014c-.039.975-.039,2.419-.039,3.978,0,3.549.078,7.645.585,8.073a.487.487,0,0,0,.429.118c.156,0,.351-.04.468-.04h1.053a6.822,6.822,0,0,1,2.262.273c.39.156,2.068.78,1.95,1.131C533.776,517.535,532.685,517.613,531.476,517.613Z" fill="#000000"/><path d="M540.25,500.687c.39,0,1.325,0,1.325.195V516.17s-.272.234-.662.546h.039a8.053,8.053,0,0,1-1.326.585,4.569,4.569,0,0,1-1.482.273c-.313,0-1.4,0-1.4-.195V502.052s.274-.234.663-.546a5.173,5.173,0,0,1,1.327-.546h-.04a4.088,4.088,0,0,1,1.522-.273Zm1.014-5.148a5.456,5.456,0,0,1-1.287.546,4.969,4.969,0,0,1-1.248.272c-.351.118-1.638.235-1.638-.155v-2.38s.272-.234.624-.546a7.837,7.837,0,0,1,1.209-.546,9.037,9.037,0,0,1,1.559-.312c.2,0,1.444,0,1.444.195v2.379S541.653,495.227,541.264,495.539Z" fill="#000000"/><path d="M564,517.379a5.436,5.436,0,0,1-1.326.234H551.949a7.578,7.578,0,0,1-1.365-.078,4.712,4.712,0,0,1-2.847-1.482,3.7,3.7,0,0,1-.819-2.067V506.3a4.838,4.838,0,0,1,.507-2.535,7.073,7.073,0,0,1,3.589-2.457,8.087,8.087,0,0,1,2.885-.546h10.882c.39,0,1.248,0,1.325.195.04.117-.467.429-.624.546a7.232,7.232,0,0,1-1.286.585,5.312,5.312,0,0,1-1.521.273H552.5s-.039-.039-.35.39a2.892,2.892,0,0,0-.352,1.521v8.659a2.974,2.974,0,0,0,1.639,3c.117.039.272.078.272.078a.811.811,0,0,0,.2.038h10.959c.43,0,1.327.039,1.327.39,0,.39-1.366.624-1.989.9Z" fill="#000000"/><path d="M600.66,515.976a.3.3,0,0,1,.078.467l-1.053.585a5.38,5.38,0,0,1-1.521.468,2.6,2.6,0,0,1-1.911-.35,7.028,7.028,0,0,0-.546-.546l-.819-.7c-1.444-1.326-2.535-2.262-3.94-3.588l-2.807-2.535c-.937-.858-.507-.507-1.444-1.365,0,1.443,0,3.432.039,4.836v2.925c0,.078-.311.312-.624.546a11.469,11.469,0,0,1-1.326.624,4.551,4.551,0,0,1-1.481.273c-.391,0-1.444,0-1.444-.2v-8.034c-.039-2.34-.039-5.577-.039-7.956-.039-1.99-.039-4.758-.039-6.786,0-.975,0-1.951-.039-2.926.313-.507,3.589-1.989,4.875-1.17v4.837c0,1.053.039,2.105.039,3.159v3.042l.43-.429,1.716-1.795,2.613-2.69,2.613-2.691,1.248-1.288,1.248-1.287a4.744,4.744,0,0,1,2.536-.975,2.161,2.161,0,0,1,1.4,0c.858.39-.312.975-.9,1.521l-4.563,4.72c-1.014,1.092-2.107,2.184-3.159,3.276l-2.107,2.145a23.466,23.466,0,0,0-1.833,2.067l4.6,4.29c.9.858,1.872,1.716,2.808,2.574l2.769,2.535Z" fill="#000000"/><path d="M608.615,500.687c.39,0,1.325,0,1.325.195V516.17s-.272.234-.662.546h.039a8.053,8.053,0,0,1-1.326.585,4.563,4.563,0,0,1-1.482.273c-.313,0-1.4,0-1.4-.195V502.052s.274-.234.664-.546a5.162,5.162,0,0,1,1.326-.546h-.039a4.078,4.078,0,0,1,1.521-.273Zm1.014-5.148a5.437,5.437,0,0,1-1.287.546,4.959,4.959,0,0,1-1.248.272c-.351.118-1.638.235-1.638-.155v-2.38s.273-.234.624-.546a7.837,7.837,0,0,1,1.209-.546,9.071,9.071,0,0,1,1.56-.312c.195,0,1.443,0,1.443.195v2.379S610.019,495.227,609.629,495.539Z" fill="#000000"/><path d="M629.285,507.083a9.265,9.265,0,0,0-.117-2.613,3.335,3.335,0,0,0-1.092-1.872,3.39,3.39,0,0,0-1.56-.273h-6.435c0,.039,0,.039-.078.117a8.2,8.2,0,0,1-.313.9,7.5,7.5,0,0,0-.117,2.145v9.868a2.5,2.5,0,0,1-.078,1.052,6.124,6.124,0,0,1-1.286.663,4.943,4.943,0,0,1-2.419.507c-1.092-.117-1.092-.273-1.092-.624v-4.6c0-1.833,0-3.666.039-5.538v-.585a5.483,5.483,0,0,1,.157-1.911,6.613,6.613,0,0,1,1.482-1.755,9.15,9.15,0,0,1,4.914-1.716c.429-.039,1.442-.039,2.379-.039h4.29a20.076,20.076,0,0,1,2.184.078c1.95.234,3.588,1.248,3.861,2.652a5.643,5.643,0,0,1,.117,1.95v10.492c0,.233,0,.389-.663.818a5.2,5.2,0,0,1-2.808.819,2,2,0,0,1-1.4-.389v-9.088C629.246,507.785,629.285,507.434,629.285,507.083Z" fill="#000000"/><path d="M650.774,527.4h-9.829c-.585,0-1.6.039-1.676-.194h.039c-.118-.312,1.287-.9,1.833-1.132a.054.054,0,0,0,.078,0,5.091,5.091,0,0,1,1.52-.272h10.219a3.581,3.581,0,0,1,.078-1.4V505.757c0-1.95-.935-3.471-2.5-3.471h-6.786c-.39.624-.39,3.666-.352,9.321-.038,1.482-.038,3,.859,3.745h-.039a4.314,4.314,0,0,0,3.081.7c.312,0,.663-.038.936-.038h2.535c.585,0,2.028-.039,1.833.428-.429.781-2.379,1.17-3.51,1.17h-4.758a8.525,8.525,0,0,1-3.51-.507,4.244,4.244,0,0,1-2.3-3.237v-8.346c0-2.691,3.12-4.291,5.89-4.719a13.472,13.472,0,0,1,1.794-.039h6.747c2.691,0,4.914,1.326,4.914,3.705v18.72C657.872,526.271,653.582,527.4,650.774,527.4Z" fill="#000000"/><path d="M663.1,503.378h-.039c.741-1.053,2.379-1.755,3.978-2.3a8.7,8.7,0,0,1,2.34-.312h5.655c.351,0,1.287,0,1.365.195.04.078-.429.39-.663.546a10.481,10.481,0,0,1-1.326.585,4.3,4.3,0,0,1-1.443.273h-5.3l-.195.39a5.934,5.934,0,0,0-.391,1.521v8.541a3.945,3.945,0,0,0,.663,2.3,3.475,3.475,0,0,0,1.015.82,5.945,5.945,0,0,1,.741.116h6.63l.039-.038a.763.763,0,0,0,.195-.352,5.932,5.932,0,0,0,.39-1.52V491.755c-.039-.273,2.418-1.443,3.2-1.4.351-.117,1.638-.078,1.638.312v22.114a4.581,4.581,0,0,1-.351,1.521,6.136,6.136,0,0,1-2.925,2.5,8.322,8.322,0,0,1-3.666.819h-7.371a7.206,7.206,0,0,1-1.912-.2,4.62,4.62,0,0,1-2.5-1.6,3.665,3.665,0,0,1-.624-1.872V505.6A3.913,3.913,0,0,1,663.1,503.378Z" fill="#000000"/><path d="M703.931,516.209a7.9,7.9,0,0,1-4.953,1.4h-7.723a6,6,0,0,1-3.432-.858,4.173,4.173,0,0,1-1.638-3.86v-6.241a4.586,4.586,0,0,1,1.13-3.783,7.936,7.936,0,0,1,4.6-1.989c.858-.117,3.394-.117,4.6-.117H699.6c1.794,0,3.509,0,4.64,1.131a4.336,4.336,0,0,1,1.209,3.744v6.552C705.451,513.557,705.49,514.922,703.931,516.209Zm-3.316-2.5c-.039-1.56-.039-3.744-.039-5.3v-2.847a4.319,4.319,0,0,0-.35-2.028c-.9-1.365-2.185-1.365-3.394-1.326h-5.187A2.721,2.721,0,0,0,691.06,504v8.385a4.85,4.85,0,0,0,.273,2.106c.39.859.858,1.4,1.287,1.522a10.828,10.828,0,0,0,1.833.116c.7,0,1.4-.039,1.95-.039h3.823a.88.88,0,0,0,.194-.468,10.159,10.159,0,0,0,.156-1.092A5.76,5.76,0,0,0,700.615,513.713Z" fill="#000000"/><path d="M736.262,505.952c0,.235-.039.663-.039.9v8.736a1.235,1.235,0,0,1-.468,1.054,6.487,6.487,0,0,1-1.248.585,3.514,3.514,0,0,1-2.379.272c-.858-.233-.819-1.287-.78-1.911,0-.194.039-.312.039-.39v-8.19c0-1.716-.039-3.549-1.131-4.251a3.649,3.649,0,0,0-1.911-.429h-2.964a4.135,4.135,0,0,0-.507,1.131,6.6,6.6,0,0,0-.156,2.028v10.1a1.253,1.253,0,0,1,0,.663,5.267,5.267,0,0,1-3.12,1.326,2.16,2.16,0,0,1-1.015-.039c-.74-.234-.7-.429-.7-.585v-11c0-1.716-.624-3.472-1.989-3.588a15.647,15.647,0,0,0-1.912-.039h-.936a4.227,4.227,0,0,0-.507,1.131,6.252,6.252,0,0,0-.156,2.145v9.127a8.148,8.148,0,0,1-.039,1.676c0,.117-.819.468-1.248.663a4.772,4.772,0,0,1-2.457.546c-1.092-.117-1.092-.273-1.092-.624V506.537a6.835,6.835,0,0,1,.195-2.106,5.128,5.128,0,0,1,1.444-1.872,8.58,8.58,0,0,1,5.108-1.794c.663-.039,1.4,0,2.106,0h1.014a7.02,7.02,0,0,1,2.77.39,5.478,5.478,0,0,1,.935.507l.624-.273a9.775,9.775,0,0,1,2.692-.624c.624-.039,1.326,0,1.95,0H730.1a16.931,16.931,0,0,1,1.989.039c1.911.2,3.7,1.248,4.057,2.808A11.7,11.7,0,0,1,736.262,505.952Z" fill="#000000"/><g id="_15th_Touhou_Project_Shooting_Game_for_Windows_7_Vista_8" data-name="15th Touhou Project Shooting Game for Windows 7/Vista/8"><path d="M385.724,912.476l-4.5.056-.2-1.189,3.087-.227.042-.878.057-2.194V897.183c-.028-.2-.062-.727-.1-1.586h-2.917v-1.09l6.669-.836L387.735,899l.127,12.121,2.365.24v1.176Z" fill="#000000"/><path d="M400.283,912.844a10.288,10.288,0,0,1-4.178-.793l.567-1.175a10.172,10.172,0,0,0,3.115.608,6.591,6.591,0,0,0,3.88-1.132,3.956,3.956,0,0,0,1.8-3.384q0-4.05-6.754-4.051h-.751l-.849.043q0-1.2.113-2.563.128-1.5.128-2.082a32.92,32.92,0,0,1,.509-4.291l3.625.114h4.305a5.756,5.756,0,0,0,1.473-.109q.127-.041.141-.5l1.232-.123-.042,1.586-.184,1.729-.836.013h-.651l-2.974-.013-5.027-.227q-.042.481-.113,1.458-.029.58-.028.623v1.544l.042.354h.793q9.318,0,9.318,5.89a5.56,5.56,0,0,1-2.875,4.942A10.609,10.609,0,0,1,400.283,912.844Z" fill="#000000"/><path d="M419.7,912.349a7.171,7.171,0,0,1-2.18.4,2.98,2.98,0,0,1-2.535-.977,6.382,6.382,0,0,1-.708-3.6v-6.414h-1.473l-.382-.6,4.46-4.686.765.339v3.357h4.63l-.41,1.373h-4.22v5.934a6.508,6.508,0,0,0,.382,2.832,1.3,1.3,0,0,0,1.176.5q.084,0,.977-.185.425-.141,2.166-.933v1.429A13.842,13.842,0,0,1,419.7,912.349Z" fill="#000000"/><path d="M438.405,912.476h-3.229l-1.982.07v-1.2l2.011-.17.127-1.813.057-2.633q.07-3.245-.611-4.135a2.642,2.642,0,0,0-2.213-.793,7.959,7.959,0,0,0-3.945,1.1l.071,7.392.057.878,2.081.17v1.2l-2.11-.07h-3.526l-2.095.07v-1.2l2.081-.17.1-.977V893.2a1.654,1.654,0,0,1-.028-.3l-2.436.015.255-1.192,2.592-.21,3.1-.383-.071,3.8-.071,6.528a12.955,12.955,0,0,1,5.508-1.628,4.244,4.244,0,0,1,3.739,1.557,6.917,6.917,0,0,1,.878,4.008q0,1.586-.085,4.786l-.043.991,1.784.17v1.2Z" fill="#000000"/><path d="M471.16,897.706c-.066-.48-.193-1.185-.382-2.109q-.1-.426-.269-.95a1.027,1.027,0,0,0-.467-.226,16.633,16.633,0,0,0-2.209-.1h-4.659l.113,16.766,3.115.283v1.161H455.938v-1.161l3.087-.283v-.468q0-.126.036-.438a4.85,4.85,0,0,0,.035-.51v-15.35h-5.353a7.308,7.308,0,0,0-1.218.072q-.552.041-1,.99-.213.455-.963,2.322h-1.388l.751-2.945.708-2.534H451.9q0,.609.255.679a8.614,8.614,0,0,0,2,.142H468.13a10.063,10.063,0,0,0,2.266-.156.67.67,0,0,0,.453-.665h1.359l.212,4.871c-.056,0-.075,0-.056-.015l-.227.623Z" fill="#000000"/><path d="M479.959,912.844a8.165,8.165,0,0,1-5.3-1.714,5.826,5.826,0,0,1-2.251-4.772,5.917,5.917,0,0,1,2.138-4.679,7.97,7.97,0,0,1,5.409-1.848,8.17,8.17,0,0,1,5.31,1.741,5.855,5.855,0,0,1,2.266,4.786,5.791,5.791,0,0,1-2.337,4.815A8.285,8.285,0,0,1,479.959,912.844Zm2.818-10.507a3.63,3.63,0,0,0-5.9.439,7.228,7.228,0,0,0-.765,3.539,7.147,7.147,0,0,0,.765,3.527,3.579,3.579,0,0,0,6.16,0,7.1,7.1,0,0,0,.779-3.527A6.573,6.573,0,0,0,482.777,902.337Z" fill="#000000"/><path d="M502.779,912.786l-2.463.313v-1.558a18.256,18.256,0,0,1-6.075,1.274,3.535,3.535,0,0,1-3.1-1.246,5.735,5.735,0,0,1-.722-3.257v-6.725l-3.158-.088,2.719-1.215h2.167l1.769-.184-.113,3.922v3.611a4.083,4.083,0,0,0,.609,2.677,3.067,3.067,0,0,0,2.237.636,10.725,10.725,0,0,0,3.668-.819l-.043-8.54-2.067-.073v-1.23l5.622-.184-.156,3.76v6.273l.085,1.106,1.741.086V912.5Z" fill="#000000"/><path d="M521.594,912.476h-3.229l-1.982.07v-1.2l2.011-.17.127-1.813.056-2.633q.072-3.245-.609-4.135a2.646,2.646,0,0,0-2.214-.793,7.955,7.955,0,0,0-3.944,1.1l.07,7.392.057.878,2.082.17v1.2l-2.111-.07h-3.526l-2.1.07v-1.2l2.082-.17.1-.977V893.2a1.576,1.576,0,0,1-.03-.3l-2.435.015.256-1.192,2.591-.21,3.1-.383-.07,3.8-.07,6.528a12.944,12.944,0,0,1,5.507-1.628,4.244,4.244,0,0,1,3.739,1.557,6.924,6.924,0,0,1,.878,4.008q0,1.586-.085,4.786l-.043.991,1.785.17v1.2Z" fill="#000000"/><path d="M532.768,912.844a8.165,8.165,0,0,1-5.3-1.714,5.826,5.826,0,0,1-2.251-4.772,5.916,5.916,0,0,1,2.137-4.679,7.974,7.974,0,0,1,5.41-1.848,8.17,8.17,0,0,1,5.31,1.741,5.855,5.855,0,0,1,2.266,4.786,5.793,5.793,0,0,1-2.337,4.815A8.287,8.287,0,0,1,532.768,912.844Zm2.818-10.507a3.63,3.63,0,0,0-5.9.439,7.228,7.228,0,0,0-.765,3.539,7.147,7.147,0,0,0,.765,3.527,3.578,3.578,0,0,0,6.159,0,7.1,7.1,0,0,0,.779-3.527A6.581,6.581,0,0,0,535.586,902.337Z" fill="#000000"/><path d="M555.732,912.786l-2.462.313v-1.558a18.266,18.266,0,0,1-6.076,1.274,3.532,3.532,0,0,1-3.1-1.246,5.718,5.718,0,0,1-.723-3.257v-6.725l-3.158-.088,2.719-1.215H545.1l1.77-.184-.113,3.922v3.611a4.084,4.084,0,0,0,.608,2.677,3.072,3.072,0,0,0,2.238.636,10.73,10.73,0,0,0,3.668-.819l-.043-8.54-2.068-.073v-1.23l5.622-.184-.156,3.76v6.273l.085,1.106,1.741.086V912.5Z" fill="#000000"/><path d="M575.756,903.909v4.445a11.016,11.016,0,0,1,.1,1.318c.03.453.043.9.043,1.331l3.186.326v1.2h-9.812v-1.2l2.293-.24v-.1l.114-2.646V897.165l-.114-2.73-2.293-.241v-1.273l2.025.057,1.7.056,3.3-.056q2.733-.058,2.506-.057a11.211,11.211,0,0,1,6.132,1.475,4.676,4.676,0,0,1,2.364,4.068q0,3.175-3.412,4.58a15.251,15.251,0,0,1-6.2.922Zm.1-9.685-.1,1.373v7.108l.736.042h.978q5.563.158,5.564-4.375a3.676,3.676,0,0,0-1.784-3.358,6.886,6.886,0,0,0-3.979-.847Z" fill="#000000"/><path d="M599.3,902.634a1.893,1.893,0,0,1-1.26.539,2.638,2.638,0,0,1-1.2-.433,2.714,2.714,0,0,0-1.02-.431,1.632,1.632,0,0,0-1.288.707,3.082,3.082,0,0,0-.623,1.993v5.542l.071.65,2.69.155v1.19l-2.266-.07h-3.809l-2.293.07v-1.19l2.138-.168.084-1.146v-6.986a10.016,10.016,0,0,0-.083-1.486l-2.139-.1.112-1.189,5.5-.255V901.9q1.826-1.91,3.186-1.911a3.8,3.8,0,0,1,1.812.538c.708.4,1.063.75,1.063,1.063A1.6,1.6,0,0,1,599.3,902.634Z" fill="#000000"/><path d="M607.793,912.844a8.167,8.167,0,0,1-5.3-1.714,5.826,5.826,0,0,1-2.251-4.772,5.914,5.914,0,0,1,2.138-4.679,7.971,7.971,0,0,1,5.409-1.848,8.175,8.175,0,0,1,5.311,1.741,5.857,5.857,0,0,1,2.265,4.786,5.791,5.791,0,0,1-2.337,4.815A8.283,8.283,0,0,1,607.793,912.844Zm2.818-10.507a3.63,3.63,0,0,0-5.9.439,7.228,7.228,0,0,0-.765,3.539,7.147,7.147,0,0,0,.765,3.527,3.578,3.578,0,0,0,6.159,0,7.085,7.085,0,0,0,.78-3.527A6.573,6.573,0,0,0,610.611,902.337Z" fill="#000000"/><path d="M621.876,903.611v8.964a16.65,16.65,0,0,1-.213,3.115,5.321,5.321,0,0,1-1.4,2.761,7.613,7.613,0,0,1-2.351,1.614,6.533,6.533,0,0,1-2.69.595q-1.715,0-1.714-.878a1.559,1.559,0,0,1,.559-1.139,1.7,1.7,0,0,1,1.183-.532,4.3,4.3,0,0,1,1.211.262,4.291,4.291,0,0,0,1.2.263q.75,0,.892-1.6,0-.326-.027-2.024v-1.6l-.086-11.966-2.223-.1.184-1.232,2.79-.113,2.817-.17Zm-.184-7.646a3.275,3.275,0,0,1-1.713.425,2.718,2.718,0,0,1-1.332-.327,1.448,1.448,0,0,1-.609-1.046,1.528,1.528,0,0,1,.751-1.36,2.839,2.839,0,0,1,1.571-.411,2.716,2.716,0,0,1,1.431.368,1.4,1.4,0,0,1,.608,1.076A1.57,1.57,0,0,1,621.692,895.965Z" fill="#000000"/><path d="M628.516,905.537a5.442,5.442,0,0,0,1.289,4.248,4.846,4.846,0,0,0,3.568,1.288,6.576,6.576,0,0,0,4.347-1.883l1.019.723a8.73,8.73,0,0,1-6.528,2.959,7.56,7.56,0,0,1-5.1-1.7,5.84,5.84,0,0,1-2.066-4.688,6.172,6.172,0,0,1,2.1-4.856,7.6,7.6,0,0,1,5.224-1.8,6.705,6.705,0,0,1,4.121,1.2,4.284,4.284,0,0,1,1.77,3.639v.269l-.057.6Zm6.542-1.118.028-.2q0-3.2-2.932-3.2-2.859,0-3.468,3.4Z" fill="#000000"/><path d="M651.411,911.45a8.964,8.964,0,0,1-9.87-.236,5.55,5.55,0,0,1-2.138-4.608,6.063,6.063,0,0,1,2.216-4.834,8.367,8.367,0,0,1,5.614-1.884,7.784,7.784,0,0,1,3.838.835,2.71,2.71,0,0,1,1.6,2.407,1.327,1.327,0,0,1-.708,1.1,2.406,2.406,0,0,1-1.331.425.705.705,0,0,1-.736-.637,5.468,5.468,0,0,1-.057-1.048,2.021,2.021,0,0,0-.58-1.515,3.25,3.25,0,0,0-1.941-.481,3.979,3.979,0,0,0-3.3,1.474,5.359,5.359,0,0,0-1.062,3.418,5.041,5.041,0,0,0,1.261,3.615,4.8,4.8,0,0,0,3.681,1.391,6.851,6.851,0,0,0,4.234-1.529l.849.838A13.642,13.642,0,0,1,651.411,911.45Z" fill="#000000"/><path d="M661.4,912.349a7.182,7.182,0,0,1-2.181.4,2.977,2.977,0,0,1-2.534-.977,6.371,6.371,0,0,1-.709-3.6v-6.414H654.5l-.382-.6,4.46-4.686.766.339v3.357h4.63l-.411,1.373h-4.219v5.934a6.508,6.508,0,0,0,.382,2.832,1.3,1.3,0,0,0,1.174.5q.086,0,.978-.185.425-.141,2.167-.933v1.429A13.9,13.9,0,0,1,661.4,912.349Z" fill="#000000"/><path d="M297.012,947.288a8.409,8.409,0,0,1-5.063,1.448,18.2,18.2,0,0,1-6.383-1.23v-.628q0-.206-.077-1.41-.026-.667-.2-2.525h1.359q.141,1.077.666,3.435a11.517,11.517,0,0,0,4.614,1.141,4.92,4.92,0,0,0,2.628-.641,2.6,2.6,0,0,0,.487-4.051,17,17,0,0,0-4.434-2.268,14.511,14.511,0,0,1-3.641-1.922A4.107,4.107,0,0,1,285.4,935.3a4.387,4.387,0,0,1,1.154-3.037,5.935,5.935,0,0,1,2.859-1.693,9.709,9.709,0,0,1,2.742-.345,11.787,11.787,0,0,1,4.794.935l.09-.475h1.307l-.038,1.526v3.524H297l-.09-1.525-.1-1.153a6.123,6.123,0,0,0-4.409-1.679q-3.858,0-3.858,2.679,0,1.9,2.64,3.076l2.73,1.205q.82.332,2.423,1.14,2.679,1.667,2.679,4.064A4.433,4.433,0,0,1,297.012,947.288Z" fill="#000000"/><path d="M314.316,948.263h-2.923l-1.794.063v-1.089l1.82-.154.115-1.641.051-2.383q.065-2.936-.552-3.744a2.4,2.4,0,0,0-2-.717,7.2,7.2,0,0,0-3.57,1l.064,6.69.051.795,1.884.154v1.089l-1.91-.063h-3.191l-1.9.063v-1.089l1.884-.154.09-.885V930.817a1.5,1.5,0,0,1-.026-.268l-2.2.013.231-1.08,2.345-.19,2.807-.346-.064,3.436-.064,5.908a11.742,11.742,0,0,1,4.986-1.474,3.841,3.841,0,0,1,3.384,1.411,6.271,6.271,0,0,1,.8,3.627q0,1.436-.078,4.332l-.038.9,1.615.154v1.089Z" fill="#000000"/><path d="M324.377,948.6a7.392,7.392,0,0,1-4.793-1.551,5.274,5.274,0,0,1-2.038-4.319,5.359,5.359,0,0,1,1.935-4.237,7.22,7.22,0,0,1,4.9-1.673,7.4,7.4,0,0,1,4.807,1.577,5.3,5.3,0,0,1,2.051,4.333,5.24,5.24,0,0,1-2.115,4.357A7.5,7.5,0,0,1,324.377,948.6Zm2.551-9.511a3.285,3.285,0,0,0-5.345.4,6.556,6.556,0,0,0-.692,3.205,6.475,6.475,0,0,0,.692,3.191,3.239,3.239,0,0,0,5.576,0,6.428,6.428,0,0,0,.7-3.191A5.95,5.95,0,0,0,326.928,939.085Z" fill="#000000"/><path d="M339.5,948.6a7.392,7.392,0,0,1-4.793-1.551,5.274,5.274,0,0,1-2.038-4.319,5.359,5.359,0,0,1,1.935-4.237,7.22,7.22,0,0,1,4.9-1.673,7.4,7.4,0,0,1,4.807,1.577,5.3,5.3,0,0,1,2.051,4.333,5.243,5.243,0,0,1-2.115,4.357A7.5,7.5,0,0,1,339.5,948.6Zm2.551-9.511a3.285,3.285,0,0,0-5.345.4,6.556,6.556,0,0,0-.692,3.205,6.475,6.475,0,0,0,.692,3.191,3.238,3.238,0,0,0,5.575,0,6.417,6.417,0,0,0,.7-3.191A5.957,5.957,0,0,0,342.046,939.085Z" fill="#000000"/><path d="M354.008,948.146a6.443,6.443,0,0,1-1.974.36,2.694,2.694,0,0,1-2.294-.885,5.761,5.761,0,0,1-.641-3.255V938.56h-1.333l-.346-.539,4.037-4.243.692.308v3.038h4.192l-.372,1.243h-3.82v5.37a5.9,5.9,0,0,0,.346,2.564,1.176,1.176,0,0,0,1.064.449q.076,0,.884-.167.385-.127,1.962-.846v1.3A12.419,12.419,0,0,1,354.008,948.146Z" fill="#000000"/><path d="M364.771,948.186a.681.681,0,0,1-.628.345,2.118,2.118,0,0,1-.6-.128,2.077,2.077,0,0,0-.583-.128l-1.628-.026a8.1,8.1,0,0,0-2.128.142,2.8,2.8,0,0,1-.679.14.7.7,0,0,1-.679-.41c-.009-.051-.022-.141-.039-.268a1.231,1.231,0,0,1-.013-.129q0-.705.731-.705a2.59,2.59,0,0,1,.545.089,2.474,2.474,0,0,0,.557.09c.18,0,.269-.1.269-.295a4.624,4.624,0,0,0-.076-.666v-7.049a2.932,2.932,0,0,1,.038-.4,2.907,2.907,0,0,0,.038-.379.493.493,0,0,0-.051-.243.323.323,0,0,0-.192-.064,2.2,2.2,0,0,0-.6.122,2.205,2.205,0,0,1-.583.122.62.62,0,0,1-.628-.41c-.009-.035-.022-.124-.039-.27-.008-.059-.013-.1-.013-.115q0-.846.987-.846a4.774,4.774,0,0,1,.962.115l.461.078a1.073,1.073,0,0,0,.179.038,3.223,3.223,0,0,0,.827-.161,3.256,3.256,0,0,1,.827-.16,1.17,1.17,0,0,1,.763.269.858.858,0,0,1,.326.692,1.627,1.627,0,0,1-.134.526,1.618,1.618,0,0,0-.135.487v8.421c0,.145.068.218.2.218a2.174,2.174,0,0,0,.551-.1,2.209,2.209,0,0,1,.538-.1q.735,0,.734.782A.79.79,0,0,1,364.771,948.186Zm-2.134-13.965a2.641,2.641,0,0,1-1.493.429,2.011,2.011,0,0,1-1.192-.32,1.118,1.118,0,0,1-.59-.91,1.369,1.369,0,0,1,.68-1.218,2.918,2.918,0,0,1,2.7-.077,1.168,1.168,0,0,1,.538.987A1.288,1.288,0,0,1,362.637,934.221Z" fill="#000000"/><path d="M379.505,948.263H376.57l-1.757.063v-1.063l1.782-.167.18-1.692a21.308,21.308,0,0,0,.1-2.179,7.04,7.04,0,0,0-.628-3.665,2.349,2.349,0,0,0-2.038-.745,7.55,7.55,0,0,0-3.512.975v6.729l.077.589,1.871.155v1.063l-1.858-.063H367.6l-1.922.063v-1.063l1.884-.155.077-1.038v-6.305a9.259,9.259,0,0,0-.063-1.372l-2.027-.09.167-1.076,2.449-.09,2.537-.18V938.5a11.413,11.413,0,0,1,4.935-1.423,3.871,3.871,0,0,1,3.525,1.513,6.569,6.569,0,0,1,.717,3.474q0,.447-.025,1.166-.039.962-.039,1.167-.038.909-.089,2.729l1.576.142v1.063Z" fill="#000000"/><path d="M387.163,948.954l.243.231h-1.153a5.663,5.663,0,0,1-1.4-.2,2.477,2.477,0,0,1-.731-2.084.873.873,0,0,1,.436-.793,4.152,4.152,0,0,1,.923-.333l1.538-.41a5.12,5.12,0,0,1-2.4-1.483,3.789,3.789,0,0,1-.974-2.571,3.964,3.964,0,0,1,1.641-3.237,6.312,6.312,0,0,1,4.011-1.253A6.776,6.776,0,0,1,393.136,938a8.458,8.458,0,0,1,2.487-.423h.653l.192,1.641h-1.153q-.18,0-1.115.128a5,5,0,0,1,.384,1.859,3.78,3.78,0,0,1-1.358,3.05,8.342,8.342,0,0,1-3.141,1.448l-4.191,1.142c-.308.068-.461.137-.461.2q0,.384,1.576.435,1.692.039,3.384.078a19.207,19.207,0,0,1,3.345.41q2.924.664,2.923,3.127a3.838,3.838,0,0,1-2.18,3.333,10.462,10.462,0,0,1-5.421,1.268,8.883,8.883,0,0,1-4.268-.884,2.836,2.836,0,0,1-1.718-2.551q0-2.6,4.268-3.525Zm5.806,1.32a12.245,12.245,0,0,0-4.435-.576,4.38,4.38,0,0,0-2.307.589,2.072,2.072,0,0,0,.372,3.846,6.665,6.665,0,0,0,2.653.487,7.087,7.087,0,0,0,3.615-.82,2.272,2.272,0,0,0,1.333-1.923A1.7,1.7,0,0,0,392.969,950.274Zm-3.909-12.407a2.4,2.4,0,0,0-1.974.91,3.223,3.223,0,0,0-.667,2.077,4.365,4.365,0,0,0,.885,2.781,2.432,2.432,0,0,0,1.948,1.1,2.31,2.31,0,0,0,1.827-.973,3.955,3.955,0,0,0,.788-2.564Q391.867,937.869,389.06,937.867Z" fill="#000000"/><path d="M425.179,942.479l-.4.039V946.6a16.277,16.277,0,0,1-8.037,2.136,14.087,14.087,0,0,1-7.921-2.089,7.866,7.866,0,0,1-3.691-6.959A8.413,8.413,0,0,1,407.17,934a10.954,10.954,0,0,1,5.32-3.242,14.3,14.3,0,0,1,4.178-.577,13.709,13.709,0,0,1,6.422,1.41l.038-.705h1.4l.077,5.947h-1.346l-.307-3.2a7.416,7.416,0,0,0-5.858-2.243,7.757,7.757,0,0,0-5.857,2.153,7.968,7.968,0,0,0-2.013,5.768,8.07,8.07,0,0,0,2.212,5.985,8.259,8.259,0,0,0,6.107,2.205q2.7,0,3.486-.935l.09-.411.051-1.089v-2.512l-1.294-.1-2.051-.217v-1.141h.5l3.845.076h1.5l2.743-.076v1.126Z" fill="#000000"/><path d="M437.978,948.146l-1.385.642h-.423a2.827,2.827,0,0,1-1.461-1.385,8.609,8.609,0,0,1-4.153,1.09,4.173,4.173,0,0,1-2.4-.667,2.339,2.339,0,0,1-1.128-2.038q0-3.126,7.626-3.96l.09-2a1.8,1.8,0,0,0-.519-1.435,2.564,2.564,0,0,0-1.686-.449,3.315,3.315,0,0,0-1.5.283.928.928,0,0,0-.435.371,1.619,1.619,0,0,0-.026.564l.051.2v.243a1.1,1.1,0,0,1-.448,1.013l-.833.372a2.689,2.689,0,0,1-.718.166.721.721,0,0,1-.577-.346l-.154-.64a2.792,2.792,0,0,1,1.538-2.475,7.284,7.284,0,0,1,3.768-.858,5.139,5.139,0,0,1,3.4.935,3.959,3.959,0,0,1,1.141,3.154v.41l-.18,4.7q0,.731.411.73a6.861,6.861,0,0,0,1.346-.589l.64.91Zm-8.126-2.754q0,1.563,2.048,1.563a3.912,3.912,0,0,0,1.341-.192,4.6,4.6,0,0,0,1.353-.488v-2.063l.064-1.371a14.136,14.136,0,0,0-2.938.589Q429.851,944.084,429.852,945.392Z" fill="#000000"/><path d="M462.138,948.263h-2.986l-1.756.063v-1.063l1.82-.18a12.354,12.354,0,0,0,.09-1.4q.012-.538.038-1.077c.017-.555.026-1.047.026-1.473a7.571,7.571,0,0,0-.513-3.564,2.051,2.051,0,0,0-1.8-.667,7.55,7.55,0,0,0-3.14.91q.141,1.668.141,1.859v5.434l1.666.155v1.063l-1.812-.063h-2.942l-1.757.063v-1.063l1.731-.155.038-1.155q.192-5.365-.474-6.354a2.113,2.113,0,0,0-1.859-.694,6.983,6.983,0,0,0-3.037.885v6.729l.076.589,1.872.155v1.063l-1.858-.063h-3.192l-1.923.063v-1.063l1.885-.155.076-1.038v-6.626l-.076-1.051-2.013-.09.167-1.087,2.627-.116,2.359-.143V938.5a10.692,10.692,0,0,1,4.563-1.384,3.7,3.7,0,0,1,3.332,1.6,11.6,11.6,0,0,1,5.037-1.6,3.289,3.289,0,0,1,3.038,1.423,9.65,9.65,0,0,1,.833,4.73q0-.462-.1,3.857l1.589.142v1.063Z" fill="#000000"/><path d="M468.509,941.981a4.933,4.933,0,0,0,1.166,3.846,4.394,4.394,0,0,0,3.23,1.166,5.952,5.952,0,0,0,3.935-1.705l.923.654a7.9,7.9,0,0,1-5.909,2.679,6.84,6.84,0,0,1-4.614-1.538,5.284,5.284,0,0,1-1.871-4.242,5.59,5.59,0,0,1,1.9-4.4A6.884,6.884,0,0,1,472,936.816a6.08,6.08,0,0,1,3.73,1.089,3.88,3.88,0,0,1,1.6,3.3v.243l-.051.538Zm5.922-1.012.025-.179q0-2.9-2.653-2.9-2.589,0-3.14,3.076Z" fill="#000000"/><path d="M495.208,933a.718.718,0,0,1-.564-.295,1.44,1.44,0,0,1-.128-.628v-.307a2.858,2.858,0,0,0-.18-1.193,1.008,1.008,0,0,0-1-.512,1.609,1.609,0,0,0-1.551.807,10.028,10.028,0,0,0-.487,3.947v1.731l.077.743h4.884v1.257h-4.884l.064,8.511,1.333.05,1.833.116v1.1l-4.255-.063h-1.923l-2.179.063v-1.1l2.013-.141q0-1.05.089-2.525v-6.011h-2.1V937.29H488.3v-.448q-.065-.962-.064-1.679a7.286,7.286,0,0,1,.7-3.653,5.243,5.243,0,0,1,4.819-2.576,4.334,4.334,0,0,1,2.243.538,2.037,2.037,0,0,1,1.09,1.858,1.5,1.5,0,0,1-.635,1.135A1.964,1.964,0,0,1,495.208,933Z" fill="#000000"/><path d="M502.744,948.6a7.4,7.4,0,0,1-4.794-1.551,5.274,5.274,0,0,1-2.038-4.319,5.356,5.356,0,0,1,1.936-4.237,7.22,7.22,0,0,1,4.9-1.673,7.4,7.4,0,0,1,4.807,1.577,5.3,5.3,0,0,1,2.051,4.333,5.241,5.241,0,0,1-2.116,4.357A7.5,7.5,0,0,1,502.744,948.6Zm2.551-9.511a3.286,3.286,0,0,0-5.346.4,6.556,6.556,0,0,0-.692,3.205,6.475,6.475,0,0,0,.692,3.191,3.239,3.239,0,0,0,5.576,0,6.417,6.417,0,0,0,.705-3.191A5.957,5.957,0,0,0,505.3,939.085Z" fill="#000000"/><path d="M520.727,939.354a1.713,1.713,0,0,1-1.141.487,2.383,2.383,0,0,1-1.09-.391,2.446,2.446,0,0,0-.923-.39,1.478,1.478,0,0,0-1.166.639,2.8,2.8,0,0,0-.563,1.805v5.017l.063.587,2.436.142v1.076l-2.051-.063h-3.448l-2.076.063V947.25l1.935-.154.077-1.037v-6.324a9.16,9.16,0,0,0-.075-1.344l-1.937-.089.1-1.075,4.974-.231v1.692q1.651-1.731,2.884-1.731a3.447,3.447,0,0,1,1.64.487q.962.54.961.961A1.441,1.441,0,0,1,520.727,939.354Z" fill="#000000"/><path d="M558.151,931.92q-.256.488-1.717,3.833l-4.767,10.792-.281.268-.475.757-.691,1.243h-1.013L544.3,936.426l-5.911,12.387H537.36l-6.922-16.893-1.819-.256v-1.1l2.679.14h1.423l4.229-.14v1.1l-2.448.22.423,1.436.359,1.061,3.95,10.183,4.332-9.816-1.126-2.827-2.182-.257v-1.1l4.319.14h1.576l3.012-.14v1.1l-2.679.231q.308,1.028.975,3.056l3.679,9.735,5.075-12.791-2.846-.231-.038-1.1,3.307.14,3.05-.14v1.1Z" fill="#000000"/><path d="M567.055,948.186a.681.681,0,0,1-.628.345,2.118,2.118,0,0,1-.6-.128,2.077,2.077,0,0,0-.583-.128l-1.628-.026a8.1,8.1,0,0,0-2.128.142,2.8,2.8,0,0,1-.68.14.7.7,0,0,1-.678-.41c-.009-.051-.022-.141-.039-.268a1.231,1.231,0,0,1-.013-.129.635.635,0,0,1,.73-.705,2.561,2.561,0,0,1,.545.089,2.5,2.5,0,0,0,.558.09c.18,0,.27-.1.27-.295a4.706,4.706,0,0,0-.078-.666v-7.049a2.966,2.966,0,0,1,.039-.4,2.957,2.957,0,0,0,.039-.379.493.493,0,0,0-.052-.243.324.324,0,0,0-.193-.064,2.2,2.2,0,0,0-.6.122,2.205,2.205,0,0,1-.583.122.62.62,0,0,1-.628-.41c-.009-.035-.022-.124-.039-.27-.008-.059-.013-.1-.013-.115q0-.846.987-.846a4.757,4.757,0,0,1,.961.115l.462.078a1.073,1.073,0,0,0,.179.038,3.223,3.223,0,0,0,.827-.161,3.256,3.256,0,0,1,.827-.16,1.17,1.17,0,0,1,.763.269.856.856,0,0,1,.326.692,1.609,1.609,0,0,1-.135.526,1.626,1.626,0,0,0-.133.487v8.421c0,.145.067.218.2.218a2.175,2.175,0,0,0,.55-.1,2.207,2.207,0,0,1,.539-.1q.734,0,.733.782A.79.79,0,0,1,567.055,948.186Zm-2.134-13.965a2.643,2.643,0,0,1-1.493.429,2.016,2.016,0,0,1-1.193-.32,1.117,1.117,0,0,1-.589-.91,1.37,1.37,0,0,1,.679-1.218,2.574,2.574,0,0,1,1.423-.372,2.54,2.54,0,0,1,1.281.295,1.166,1.166,0,0,1,.539.987A1.285,1.285,0,0,1,564.921,934.221Z" fill="#000000"/><path d="M581.92,948.263h-2.935l-1.756.063v-1.063l1.782-.167.179-1.692a21.291,21.291,0,0,0,.1-2.179,7.027,7.027,0,0,0-.629-3.665,2.347,2.347,0,0,0-2.037-.745,7.554,7.554,0,0,0-3.513.975v6.729l.077.589,1.871.155v1.063l-1.858-.063h-3.191l-1.923.063v-1.063l1.885-.155.076-1.038v-6.305a9.259,9.259,0,0,0-.063-1.372l-2.026-.09.167-1.076,2.448-.09,2.537-.18V938.5a11.417,11.417,0,0,1,4.935-1.423,3.87,3.87,0,0,1,3.525,1.513,6.56,6.56,0,0,1,.717,3.474q0,.447-.025,1.166-.039.962-.038,1.167-.04.909-.09,2.729l1.577.142v1.063Z" fill="#000000"/><path d="M595.663,948.673v-1.244a11.287,11.287,0,0,1-4.48,1.012,5.433,5.433,0,0,1-5.723-5.665,5.487,5.487,0,0,1,2.038-4.434,7.125,7.125,0,0,1,4.717-1.59,11.481,11.481,0,0,1,2.013.18q.486.115,1.435.448v-4.742l-.052-.936v-1.256l-2.639-.051.166-1.141,2.961-.051,2.653-.116-.052,3.6.052,14.317,1.589.077v1.09Zm0-9.7a4.765,4.765,0,0,0-2.974-1.141,3.9,3.9,0,0,0-3.088,1.218,4.58,4.58,0,0,0-1,3.127,5.32,5.32,0,0,0,.987,3.358,3.809,3.809,0,0,0,3.2,1.423,6.2,6.2,0,0,0,2.871-.82Z" fill="#000000"/><path d="M608.339,948.6a7.392,7.392,0,0,1-4.793-1.551,5.274,5.274,0,0,1-2.038-4.319,5.356,5.356,0,0,1,1.935-4.237,7.22,7.22,0,0,1,4.9-1.673,7.4,7.4,0,0,1,4.807,1.577,5.3,5.3,0,0,1,2.05,4.333,5.242,5.242,0,0,1-2.114,4.357A7.5,7.5,0,0,1,608.339,948.6Zm2.551-9.511a3.285,3.285,0,0,0-5.345.4,6.556,6.556,0,0,0-.692,3.205,6.475,6.475,0,0,0,.692,3.191,3.239,3.239,0,0,0,5.576,0,6.417,6.417,0,0,0,.7-3.191A5.95,5.95,0,0,0,610.89,939.085Z" fill="#000000"/><path d="M635.64,938.315l-4.218,8.527-.257.256-.333.589-.41.947h-.987l-3.262-8.078-3.392,6.55a1.439,1.439,0,0,0-.31.543l-.53.985H621L616.684,938.3l-1.411-.179v-1.039h.437l3.96.064,2.076-.064v1.039l-1.756.166.039.129a2.207,2.207,0,0,0,.1.333l.346.948,2.1,5.389,3.022-6.121-.273-.664-1.849-.18.039-1.039,2.229.064h2.41l2.231-.064v1.039l-1.885.166.115.449.347.936,2,5.267,3.076-6.665-1.691-.153v-1.039l1.563.064h1.513l1.551-.064v1.039Z" fill="#000000"/><path d="M645.382,947.616a6.028,6.028,0,0,1-3.564,1,7.793,7.793,0,0,1-3.153-.628q-1.59-.68-1.589-1.41a1.134,1.134,0,0,1,.486-.781,1.728,1.728,0,0,1,.873-.372c.221-.009.55.214.987.666a6.4,6.4,0,0,0,1.179,1.025,2.941,2.941,0,0,0,1.525.372,2.5,2.5,0,0,0,1.448-.4,1.4,1.4,0,0,0,.641-1.23q0-1.1-3.127-2.227-3.538-1.294-3.538-3.418a2.746,2.746,0,0,1,1.435-2.381,6.429,6.429,0,0,1,3.538-.884,5.833,5.833,0,0,1,2.6.511q1.155.548,1.153,1.454,0,.817-1.473.816a.8.8,0,0,1-.77-.585,1.666,1.666,0,0,0-.551-.89,2.56,2.56,0,0,0-1.255-.229,2.952,2.952,0,0,0-1.4.307,1.2,1.2,0,0,0-.718,1.1q0,.73,1.461,1.524.564.306,2.205.972a8.222,8.222,0,0,1,2.076,1.1,2.45,2.45,0,0,1,.95,1.972A3.063,3.063,0,0,1,645.382,947.616Z" fill="#000000"/><path d="M666.765,938.342l-.372.576-.09.218a20.843,20.843,0,0,0-3.2,9.177h-2.487a31.664,31.664,0,0,1,1.066-4.612,13.945,13.945,0,0,1,.949-1.679q.282-.447,1.874-2.843,1.9-2.862,3.433-5.349h-6.872a4.443,4.443,0,0,0-1.783.192l-.192.513-.308,1.564-1.269-.167.231-2.487q.155-1.628.321-2.512h1.115q0,.513.076.551a1.419,1.419,0,0,0,.628.078H670.02v.41Q670.02,933.214,666.765,938.342Z" fill="#000000"/><path d="M671.365,950.762h-2.412l9.766-20.56h2.455Z" fill="#000000"/><path d="M697.851,931.92q-.129.231-1.078,2.294l-.256.564-4.934,11.216a1.782,1.782,0,0,1-.475.692l-.563.884-.628,1.243h-1.154L682.148,934q-.345-.781-.96-2.062l-1.872-.244v-1.127l2.744.14h2.934l2.794-.14v1.127l-2.409.218.013.065a16.382,16.382,0,0,0,.666,1.972l4.613,11.1,5.423-13.122-2.9-.231.038-1.127,3.423.14,3.051-.14v1.127Z" fill="#000000"/><path d="M706.828,948.186a.681.681,0,0,1-.628.345,2.111,2.111,0,0,1-.6-.128,2.07,2.07,0,0,0-.583-.128l-1.628-.026a8.081,8.081,0,0,0-2.127.142,2.813,2.813,0,0,1-.68.14.7.7,0,0,1-.68-.41c-.008-.051-.02-.141-.038-.268a1,1,0,0,1-.013-.129q0-.705.731-.705a2.571,2.571,0,0,1,.545.089,2.483,2.483,0,0,0,.557.09c.18,0,.269-.1.269-.295a4.624,4.624,0,0,0-.076-.666v-7.049a3.1,3.1,0,0,1,.038-.4,3.1,3.1,0,0,0,.038-.379.493.493,0,0,0-.051-.243.321.321,0,0,0-.192-.064,2.21,2.21,0,0,0-.6.122,2.205,2.205,0,0,1-.583.122.623.623,0,0,1-.629-.41c-.008-.035-.02-.124-.038-.27a.977.977,0,0,1-.013-.115q0-.846.988-.846a4.765,4.765,0,0,1,.961.115l.462.078a1.039,1.039,0,0,0,.178.038,3.215,3.215,0,0,0,.827-.161,3.263,3.263,0,0,1,.827-.16,1.162,1.162,0,0,1,.762.269.857.857,0,0,1,.328.692,1.609,1.609,0,0,1-.135.526,1.618,1.618,0,0,0-.135.487v8.421c0,.145.067.218.2.218a2.175,2.175,0,0,0,.55-.1,2.209,2.209,0,0,1,.538-.1q.735,0,.734.782A.79.79,0,0,1,706.828,948.186Zm-2.134-13.965a2.638,2.638,0,0,1-1.493.429,2.013,2.013,0,0,1-1.192-.32,1.118,1.118,0,0,1-.59-.91,1.371,1.371,0,0,1,.68-1.218,2.918,2.918,0,0,1,2.7-.077,1.169,1.169,0,0,1,.539.987A1.289,1.289,0,0,1,704.694,934.221Z" fill="#000000"/><path d="M716.256,947.616a6.028,6.028,0,0,1-3.564,1,7.793,7.793,0,0,1-3.153-.628q-1.59-.68-1.589-1.41a1.132,1.132,0,0,1,.487-.781,1.722,1.722,0,0,1,.872-.372c.221-.009.55.214.987.666a6.4,6.4,0,0,0,1.179,1.025,2.941,2.941,0,0,0,1.525.372,2.5,2.5,0,0,0,1.448-.4,1.4,1.4,0,0,0,.641-1.23q0-1.1-3.127-2.227-3.537-1.294-3.538-3.418a2.746,2.746,0,0,1,1.435-2.381,6.429,6.429,0,0,1,3.538-.884,5.833,5.833,0,0,1,2.6.511q1.155.548,1.153,1.454,0,.817-1.473.816a.8.8,0,0,1-.77-.585,1.666,1.666,0,0,0-.551-.89,2.56,2.56,0,0,0-1.255-.229,2.952,2.952,0,0,0-1.4.307,1.2,1.2,0,0,0-.718,1.1q0,.73,1.461,1.524.564.306,2.205.972a8.222,8.222,0,0,1,2.076,1.1,2.45,2.45,0,0,1,.95,1.972A3.063,3.063,0,0,1,716.256,947.616Z" fill="#000000"/><path d="M726,948.146a6.443,6.443,0,0,1-1.974.36,2.7,2.7,0,0,1-2.295-.885,5.78,5.78,0,0,1-.64-3.255V938.56h-1.333l-.346-.539,4.037-4.243.693.308v3.038h4.191l-.372,1.243h-3.819v5.37a5.907,5.907,0,0,0,.345,2.564,1.178,1.178,0,0,0,1.065.449c.051,0,.345-.056.884-.167q.384-.127,1.96-.846v1.3A12.44,12.44,0,0,1,726,948.146Z" fill="#000000"/><path d="M740.33,948.146l-1.385.642h-.423a2.825,2.825,0,0,1-1.46-1.385,8.616,8.616,0,0,1-4.154,1.09,4.177,4.177,0,0,1-2.4-.667,2.339,2.339,0,0,1-1.128-2.038q0-3.126,7.626-3.96l.09-2a1.8,1.8,0,0,0-.519-1.435,2.561,2.561,0,0,0-1.685-.449,3.309,3.309,0,0,0-1.5.283.926.926,0,0,0-.436.371,1.645,1.645,0,0,0-.026.564l.051.2v.243a1.1,1.1,0,0,1-.448,1.013L731.7,941a2.676,2.676,0,0,1-.717.166.721.721,0,0,1-.577-.346l-.154-.64a2.792,2.792,0,0,1,1.538-2.475,7.286,7.286,0,0,1,3.769-.858,5.14,5.14,0,0,1,3.4.935,3.959,3.959,0,0,1,1.141,3.154v.41l-.179,4.7c0,.487.136.73.41.73a6.834,6.834,0,0,0,1.346-.589l.64.91Zm-8.127-2.754q0,1.563,2.05,1.563a3.906,3.906,0,0,0,1.34-.192,4.6,4.6,0,0,0,1.353-.488v-2.063l.064-1.371a14.15,14.15,0,0,0-2.938.589Q732.2,944.084,732.2,945.392Z" fill="#000000"/><path d="M742.762,950.762H740.35l9.765-20.56h2.455Z" fill="#000000"/><path d="M763.564,947.243a8.822,8.822,0,0,1-8.933.315,3.932,3.932,0,0,1-2.1-3.526q0-2.793,3.82-4.306-3.218-1.41-3.217-4a3.814,3.814,0,0,1,1.743-3.192,6.9,6.9,0,0,1,4.229-1.256,7.045,7.045,0,0,1,3.755.974,3.54,3.54,0,0,1,1.9,3.179q0,2.448-3.2,3.858,3.884,1.538,3.884,4.357A4.267,4.267,0,0,1,763.564,947.243Zm-5.677-6.978q-2.82,1.115-2.821,3.627a3.37,3.37,0,0,0,1.122,2.6,3.94,3.94,0,0,0,2.762,1.026,3.507,3.507,0,0,0,2.4-.916,2.883,2.883,0,0,0,1.032-2.237,3.289,3.289,0,0,0-1.474-2.769A10.438,10.438,0,0,0,757.887,940.265Zm1.09-7.858a3.317,3.317,0,0,0-2.1.68,2.281,2.281,0,0,0-.936,1.884,3.026,3.026,0,0,0,1.256,2.473,9.424,9.424,0,0,0,2.641,1.308q2.6-1.179,2.6-3.448a2.577,2.577,0,0,0-1.051-2.192A3.939,3.939,0,0,0,758.977,932.407Z" fill="#000000"/></g><g id="上海_アリス幻樂団" data-name="上海■アリス幻樂団"><path d="M943.316,905.342a1.561,1.561,0,0,1,.842.217.635.635,0,0,1,.365.606l-.063,1.965h3.289a4.649,4.649,0,0,1,1.032.072.433.433,0,0,1,.239.447,1.072,1.072,0,0,1-.207.636.741.741,0,0,1-.556.232q-.27,0-1.112-.044c-.53-.009-1.012-.015-1.446-.015-.339,0-.778.006-1.318.015l-.1,2.816q2.637.087,6.593.621a2.594,2.594,0,0,1-.477,1.315.82.82,0,0,1-.682.419,6.071,6.071,0,0,1-1.224-.217,24.056,24.056,0,0,0-5.37-.636,18.72,18.72,0,0,0-5.242.693,4.092,4.092,0,0,1-1.065.217.9.9,0,0,1-.6-.274.723.723,0,0,1-.285-.52.859.859,0,0,1,.761-.925,24.8,24.8,0,0,1,5.657-.693l-.064-6.124a.689.689,0,0,1,.286-.577A1.032,1.032,0,0,1,943.316,905.342Z" fill="#000000"/><path d="M936.58,923.531l2.669.058q.444.115.444.361,0,.375-.9.679a20.8,20.8,0,0,1-2.161.534.9.9,0,0,1-.492-.231.609.609,0,0,1-.254-.462,1.226,1.226,0,0,1,.206-.65A.66.66,0,0,1,936.58,923.531Zm1.144-3.755a2.186,2.186,0,0,1,1.175.65q1.224,1.024,1.224,1.257c0,.24-.144.361-.43.361a2.685,2.685,0,0,1-.634-.1,9.369,9.369,0,0,0-1.51-.172q-.793-.073-.794-1.055a.888.888,0,0,1,.3-.664A1.043,1.043,0,0,1,937.724,919.776Zm1.128,6.542c.179,0,.27.073.27.217q0,.261-.238,1.979-.064.621-.859.621a1.32,1.32,0,0,1-.747-.2.805.805,0,0,1-.317-.65.9.9,0,0,1,.238-.463l1.3-1.313A.584.584,0,0,1,938.852,926.318Zm3.829-4.058a1.191,1.191,0,0,1,.619.144.221.221,0,0,1,.08.044q1.032-.058,2.652-.058,2.576,0,3.258.072c.211.019.317.092.317.217a1.558,1.558,0,0,1-.127.318,8.258,8.258,0,0,0-.476,1.66q.938.058,1.985.145a2.036,2.036,0,0,1-.365,1.084.737.737,0,0,1-.572.375,3.689,3.689,0,0,1-.937-.2c-.137-.03-.27-.058-.4-.087-.032.144-.059.294-.079.448s-.07.3-.112.447c.487.029.927.054,1.319.072.179.03.27.087.27.174a.95.95,0,0,1-.207.635.718.718,0,0,1-.555.246q-.288,0-1.161-.057a3.106,3.106,0,0,1-.508.91,1.079,1.079,0,0,1-.873.534,1.387,1.387,0,0,1-1.161-.693,2.413,2.413,0,0,0,.715-.838q-1.62-.045-3.94-.043a3.743,3.743,0,0,0-1.207.144,1.277,1.277,0,0,1-.4.1.672.672,0,0,1-.444-.159.392.392,0,0,1-.19-.361,1.425,1.425,0,0,1,.158-.476q.222-.564.445-1.142c-.138.029-.27.053-.4.072a4.5,4.5,0,0,1-.969.16.54.54,0,0,1-.382-.2.433.433,0,0,1-.19-.318.548.548,0,0,1,.508-.577,17.007,17.007,0,0,1,1.891-.332q.365-.982.73-2.037C942.066,922.4,942.3,922.26,942.681,922.26Zm-.4-2.643a2.7,2.7,0,0,1,1.033.173q.3.174.3.4a.839.839,0,0,1-.111.362q1.049-.087,2.875-.087,2.892,0,4.306.131a1.993,1.993,0,0,1-.287,1.025.451.451,0,0,1-.413.245q-.332,0-1.366-.058-1.652-.129-2.732-.129-1.4,0-2.542.115a7.672,7.672,0,0,1-.858.072.309.309,0,0,1-.1-.015.7.7,0,0,0-.127.117,3.231,3.231,0,0,1-2.018,1.053c-.286,0-.43-.081-.43-.245,0-.077.07-.178.207-.3a7.869,7.869,0,0,0,1.43-1.5,1.691,1.691,0,0,0,.4-.9.77.77,0,0,0-.207-.419A3.826,3.826,0,0,1,942.283,919.617Zm1.557,7.164.318-1.2c-.561.02-1.1.053-1.621.1l-.381,1.039c0,.039.132.058.4.058Zm-.905-2.195q.7-.043,1.509-.059l.3-1.1q-.779.014-1.414.044Zm3.844,2.238a.1.1,0,0,0,.016-.043q.192-.592.35-1.084a15.4,15.4,0,0,0-1.716-.13l-.318,1.228C945.7,926.8,946.261,926.805,946.779,926.824Zm-.762-3.394-.318,1.1q.827,0,1.78.044a5.551,5.551,0,0,0,.206-.982Q947.685,923.445,946.017,923.43Z" fill="#000000"/><path d="M949.5,944.42H937.278V933.256H949.5Z" fill="#000000"/><path d="M927.867,909.2a8.584,8.584,0,0,1-.159,1.965,3.039,3.039,0,0,1-1,1.589,5.782,5.782,0,0,1-2.4,1.313,6.205,6.205,0,0,1-1.828.319q-1.317,0-1.318-.91a2.271,2.271,0,0,1,1.1-2.051c.1.347.413.519.953.519a2.138,2.138,0,0,0,2.225-1.242,3.1,3.1,0,0,0,.207-.909v-.65q0-.738.984-.737a2.226,2.226,0,0,1,.874.116A.676.676,0,0,1,927.867,909.2Zm5.8-2.008a.72.72,0,0,1-.333.593,7.166,7.166,0,0,0-.684.419,1.555,1.555,0,0,0-.524.36q-1.764,1.808-2.367,1.806c-.487,0-.731-.182-.731-.549a4.955,4.955,0,0,1,.6-1.155.918.918,0,0,0,.111-.332c0-.25-.143-.376-.429-.376q-.048,0-.985-.028-.937-.045-1.16-.044a18.442,18.442,0,0,0-3.034.246q-1.479.231-1.573.23a1.058,1.058,0,0,1-.588-.187.861.861,0,0,1-.366-.694,1.015,1.015,0,0,1,1.017-1.1,23.1,23.1,0,0,1,2.972-.188q3.431,0,5.8.188a7.949,7.949,0,0,1,1.747.274C933.491,906.781,933.666,906.96,933.666,907.19Z" fill="#000000"/><path d="M931.712,921.1q0,.261-.159,2.095a6.052,6.052,0,0,1-2,4.434,6.8,6.8,0,0,1-4.227,1.141,6.354,6.354,0,0,1-1.35-.1q-.843-.187-.842-.78,0-.924,1.462-1.907a1.737,1.737,0,0,0,1.477.492,3.012,3.012,0,0,0,1.843-.694,3.669,3.669,0,0,0,1.3-3.048v-.895c.011-.385.015-.612.015-.679q0-.779,1.255-.779a1.827,1.827,0,0,1,.795.173Q931.712,920.772,931.712,921.1Zm-6.212-.072q0,.174-.016,1.242-.015,1.084-.015,1.459,0,1.49-1.224,1.488-.954,0-.953-1.054c0-.125-.017-.583-.048-1.372s-.032-1.334-.032-1.633q0-.75,1.192-.751Q925.5,920.411,925.5,921.032Z" fill="#000000"/><path d="M933.11,942.225a2.063,2.063,0,0,1-1.477.91,1.567,1.567,0,0,1-.89-.448q-.191-.144-.636-.492c-.275-.22-.513-.4-.714-.549a15.8,15.8,0,0,0-2.542-1.4q-2.812,2.426-4.957,2.426-.843,0-.842-.909a3.424,3.424,0,0,1,.9-1.849.923.923,0,0,0,.667.245,3.807,3.807,0,0,0,1.542-.447,7.642,7.642,0,0,0,1.6-.954,11.355,11.355,0,0,0,1.016-.953q.429-.477.429-.621,0-.231-.461-.231a22.354,22.354,0,0,0-2.764.145q-1.113.115-1.017.115a.9.9,0,0,1-.842-.925q0-.865,1.08-.866l1.8-.029q1.858-.072,2.78-.073a8.085,8.085,0,0,1,2.573.246c.319.116.477.289.477.52a.559.559,0,0,1-.27.434,3.562,3.562,0,0,0-.508.4q-.493.52-1.859,2.051a12.252,12.252,0,0,0,3.146,1.386q.683.217,2.065.564c.1.019.217.048.365.087h.016A2.224,2.224,0,0,1,933.11,942.225Z" fill="#000000"/><path d="M908.731,905.241a.944.944,0,0,1,.684.217.844.844,0,0,1,.254.577,1.448,1.448,0,0,1-.588.983l-1.922,1.487q-.413.376-.413.476,0,.217.54.477l.715.261q.984-.782,1.923-1.561a1.4,1.4,0,0,1,.842-.432.9.9,0,0,1,.507.187.663.663,0,0,1,.255.491,1.7,1.7,0,0,1-.731,1.242l-3.019,2.441,2.463.072c.085,0,.127-.053.127-.159q-.636-.635-.636-.809,0-.4.446-.4a4.114,4.114,0,0,1,1.683,1.04q1.05.823,1.049,1.271,0,.635-.572.635a4.883,4.883,0,0,1-.667-.1,19.032,19.032,0,0,0-1.97-.072h-2.113a11.1,11.1,0,0,0-2.066.144,2.045,2.045,0,0,1-.476.145c-.647,0-.969-.194-.969-.579a1.547,1.547,0,0,1,.763-1.14q.9-.664,1.763-1.315a12.589,12.589,0,0,0-1.874-.751q-.716-.2-.715-.491c0-.182.211-.467.634-.852l2.686-2.629A2.532,2.532,0,0,1,908.731,905.241Zm6.165.52q2.606,0,3.384.087c.328.057.492.164.492.317a.66.66,0,0,1-.111.261,1.535,1.535,0,0,0-.222.823l-.095,4.145a3.583,3.583,0,0,1-1.287,2.6,3.387,3.387,0,0,1-2.161.838,1.248,1.248,0,0,1-.874-.375,3.319,3.319,0,0,1-.778-1.416,6.13,6.13,0,0,0,2.558-.794,2.076,2.076,0,0,0,.874-1.849v-2.96c0-.125-.091-.188-.271-.188q-2.3,0-3.7.115a6,6,0,0,1-1,.13.656.656,0,0,1-.476-.274.838.838,0,0,1-.223-.607c0-.394.291-.655.874-.78Q912.322,905.761,914.9,905.761Z" fill="#000000"/><path d="M907,919.776a.649.649,0,0,1,.7.635.654.654,0,0,1-.3.463l-1,.707q-.222.188-.222.231c0,.039.079.078.238.116l.286.057.684-.562a.886.886,0,0,1,.523-.246.442.442,0,0,1,.493.506.61.61,0,0,1-.334.5l-1.7,1.228c0,.038.048.058.144.058h1.128c.094,0,.142-.02.142-.058a1.894,1.894,0,0,1-.206-.52c0-.145.112-.217.333-.217.181,0,.45.178.811.534.307.328.461.573.461.737q0,.462-.509.462a2.591,2.591,0,0,1-.429-.058h-1.366a15.138,15.138,0,0,0-1.827.087,1.478,1.478,0,0,1-.381.086.425.425,0,0,1-.27-.1.294.294,0,0,1-.127-.26c0-.125.159-.3.476-.535l.874-.751a8.286,8.286,0,0,0-1.1-.39c-.253-.057-.38-.135-.38-.231s.127-.255.38-.477l1.637-1.5A1.575,1.575,0,0,1,907,919.776Zm4.575-.274a2.89,2.89,0,0,1,.938.1c.148.047.222.125.222.231a.979.979,0,0,1-.159.477,13.012,13.012,0,0,1,1.685.144c.159.028.238.1.238.2-.053.231-.117.572-.19,1.026l.174-.16,1.621-1.4a1.552,1.552,0,0,1,.826-.462.662.662,0,0,1,.508.188.675.675,0,0,1,.191.448q0,.188-.334.433l-1.1.635c-.148.107-.222.174-.222.2,0,.049.063.1.19.16l.3.129.572-.447a.919.919,0,0,1,.524-.231.448.448,0,0,1,.508.506c0,.182-.121.341-.365.476l-1.731,1.155c0,.03.042.043.127.043h1c.138,0,.208-.013.208-.043a1.7,1.7,0,0,1-.208-.476c0-.145.112-.217.334-.217q.27,0,.763.521c.3.3.445.529.445.692,0,.309-.149.463-.445.463H916.39a13.168,13.168,0,0,0-1.7.086,1.3,1.3,0,0,1-.38.087.482.482,0,0,1-.3-.13.29.29,0,0,1-.111-.217.614.614,0,0,1-.223.044,1.875,1.875,0,0,1-.254-.044c-.308-.028-.731-.048-1.272-.058.042.02.075.035.1.043a.957.957,0,0,1,.413.593q2.48.072,6.18.462a2.238,2.238,0,0,1-.444,1.2.775.775,0,0,1-.652.419,5.323,5.323,0,0,1-1.176-.231,22.122,22.122,0,0,0-3.924-.607l-.032,1.647a2.2,2.2,0,0,1-.334,1.285.883.883,0,0,1-.809.448,1.25,1.25,0,0,1-.826-.289c-.223-.144-.334-.588-.334-1.329v-1.776a22.637,22.637,0,0,0-4.354.534,5.072,5.072,0,0,1-1.111.187.649.649,0,0,1-.43-.2.478.478,0,0,1-.206-.36.661.661,0,0,1,.571-.708,24.107,24.107,0,0,1,5.545-.664.882.882,0,0,1,.319-.549,1.456,1.456,0,0,1,.158-.1,8.894,8.894,0,0,0-1.048.1.7.7,0,0,1-.207.072q-.3,0-.365-.463l-.334-2.946a.351.351,0,0,1,.3-.347q.6-.1,1.223-.144a1.3,1.3,0,0,0,.143-.447c0-.068-.069-.16-.206-.275A7.452,7.452,0,0,1,911.575,919.5Zm-3.034,7.221c.085,0,.127.039.127.116a1.951,1.951,0,0,1-.763,1.27,2.877,2.877,0,0,1-1.795.853q-.571,0-.572-.736a1.165,1.165,0,0,1,.271-.868c.021.078.121.116.3.116a3.807,3.807,0,0,0,1.843-.578A1.585,1.585,0,0,1,908.541,926.723Zm2.05-4.868a9.014,9.014,0,0,1,.937-.043q.572,0,1.16.043l.047-.5c0-.049-.037-.082-.111-.1a6.633,6.633,0,0,0-1.159-.072,3.033,3.033,0,0,0-.763.087c-.085.019-.127.048-.127.087Zm.238,1.344a4.815,4.815,0,0,1,.731-.057,5.98,5.98,0,0,1,.841.057.189.189,0,0,0,.207-.174l.032-.419c-.392-.028-.762-.043-1.112-.043s-.651.01-.906.03l.017.549C910.639,923.18,910.7,923.2,910.829,923.2Zm3.241.563.27-.245,1.016-.794a7.054,7.054,0,0,0-.936-.477.886.886,0,0,1-.175-.087C914.191,922.611,914.134,923.146,914.07,923.762Zm.429,3.019a2.24,2.24,0,0,1,.842.231,9.055,9.055,0,0,0,1.971.693,2.571,2.571,0,0,1-.573,1.055,1.252,1.252,0,0,1-.762.26,1.325,1.325,0,0,1-.859-.477,3.026,3.026,0,0,1-.809-1.589C914.309,926.839,914.372,926.781,914.5,926.781Z" fill="#000000"/><path d="M911.575,934.4a48.509,48.509,0,0,1,6.133.26q.557.074.557.319-.318,1.977-.7,7.9c-.021.347-.154.52-.4.52-.1,0-.328-.025-.7-.073q-1.605-.143-4.925-.144-3.4,0-5.259.174a3.948,3.948,0,0,1-.619.1c-.2,0-.323-.149-.366-.447l-.635-7.8q0-.418.746-.519Q908.462,934.4,911.575,934.4Zm-4.638,7.453q1.3-.029,2.574-.043a.62.62,0,0,1-.144-.145,1.649,1.649,0,0,1-.334-1.083,5.816,5.816,0,0,0,2.24-.332.759.759,0,0,0,.494-.65v-1.632a19.7,19.7,0,0,0-3.115.26q-.762.1-.953.1a.636.636,0,0,1-.445-.174.688.688,0,0,1-.175-.462.621.621,0,0,1,.43-.591,22.47,22.47,0,0,1,4.258-.217v-.693a.582.582,0,0,1,.142-.4h-.334q-2.382,0-4.431.158-.78.058-.78.174l.382,5.618C906.746,941.811,906.81,941.849,906.937,941.849Zm3.574-3.481a.375.375,0,0,1,.429.419c0,.077-.127.232-.381.462a4.964,4.964,0,0,1-1.223.723,3.071,3.071,0,0,1-1.065.245q-.493,0-.493-.4a1.462,1.462,0,0,1,.366-.851.279.279,0,0,0,.254.1,2.676,2.676,0,0,0,.842-.16,4.055,4.055,0,0,0,.953-.447A.6.6,0,0,1,910.511,938.368Zm2.717-2.585a.347.347,0,0,1,.08.217,3.1,3.1,0,0,0-.064.52v.376q1.207.042,2.526.158a2.017,2.017,0,0,1-.3,1.083.6.6,0,0,1-.46.188,5.749,5.749,0,0,1-.826-.1c-.34-.068-.652-.12-.938-.159v1.69a1.768,1.768,0,0,1-.906,1.632,4.9,4.9,0,0,1-.969.4h4.4c.127,0,.2-.081.207-.245l.365-5.488c0-.078-.138-.13-.413-.16Q914.992,935.813,913.228,935.783Z" fill="#000000"/></g></g></svg>
