<svg xmlns="http://www.w3.org/2000/svg" width="1000" height="988" viewBox="0 0 1000 988"><g id="Artboard"><rect id="Tint" width="1000" height="988" fill="#58595b"/></g><g id="Overlap"><g id="蓬莱人形"><g id="蓬"><path d="M744.656,140.513h13.272v1.917q.587,5.9,2.949,5.9,2.064,0,2.359-5.9v-1.917H808.8v.59q.587,5.9,2.949,5.9,2.064,0,2.359-5.9v-.59H826.2q2.949,0,2.949-2.359,0-2.064-3.539-2.36h-11.8q-.441-2.948-2.359-2.949-1.475,0-2.212,2.949H763.089q-.443-3.39-2.507-3.391-1.625,0-2.359,3.391H745.836q-4.13.3-4.129,2.36Q741.707,140.515,744.656,140.513Z"/><path d="M748.2,152.458a4.347,4.347,0,0,0-2.654-2.065q-2.36.3-2.359,1.77a6.79,6.79,0,0,0,.589,2.359l10.765,10.027a3.979,3.979,0,0,0,3.539,2.36q1.77,0,2.36-2.36,0-.885-2.065-3.539Z"/><path d="M828.267,177.083a2.114,2.114,0,0,0-.885-1.622,196.325,196.325,0,0,0-29.935-13.124q1.03-.735,2.212-1.474,6.045-3.684,11.65-6.488,4.424-2.506,4.423-3.392,0-2.655-5.308-2.654h-17.99a19.142,19.142,0,0,0,1.622-2.36,2.006,2.006,0,0,0,.59-1.474q0-.885-1.77-.885-12.387,11.945-24.184,18.285-1.475.591-1.474,1.475c0,.589.391.884,1.179.884a46.1,46.1,0,0,0,12.24-4.866q3.539,1.918,7.225,3.834a53.509,53.509,0,0,0-5.013,3.244,97.019,97.019,0,0,0-17.4,17.4c0,1.378.392,2.064,1.18,2.064q1.327,0,2.359-2.507a206.334,206.334,0,0,1,23.447-17.842,221,221,0,0,0,34.5,12.976A1.33,1.33,0,0,0,828.267,177.083Zm-35.981-16.515q-4.278-1.622-8.995-2.949a37.548,37.548,0,0,0,6.341-5.6,6.028,6.028,0,0,0,2.8.443h11.354c.885,0,1.327.2,1.327.589Q799.217,156.145,792.286,160.568Z"/><path d="M737.726,267.035a47.372,47.372,0,0,0,14.746-20.055,40.693,40.693,0,0,0,10.617,11.944,26.6,26.6,0,0,0,17.695,6.636l44.238-.59q6.339-.3,6.341-2.359-.443-2.067-6.93-2.065l-43.944-.3q-14.452,0-26.395-17.99a70.324,70.324,0,0,0,2.507-18.285V175.609q0-3.242-3.539-3.244h-11.8q-2.655,0-2.655,2.064t2.655,2.065h7.373q2.064,0,2.064,1.769v46.3q0,13.569-3.981,23.151a65.9,65.9,0,0,1-8.7,17.253c-.789.2-1.18.59-1.18,1.18A.782.782,0,0,0,737.726,267.035Z"/><path d="M823.7,201.267q0-1.77-3.1-2.064H799.807q-.149-4.425-.3-8.553h16.663q2.654,0,2.654-2.065,0-1.768-3.1-2.064H799.364q-.3-3.39-.442-6.488h13.566q2.655,0,2.655-2.212,0-1.621-3.1-1.917H798.479q-.147-2.064-.442-4.424-.59-2.213-1.18-2.212c-.589,0-1.083.885-1.474,2.654q-.149,1.77-.3,3.982H782.259q-3.54.3-3.539,1.917,0,2.211,2.654,2.212H794.94q-.147,2.8-.294,6.488H776.655q-3.538.3-3.539,2.064,0,2.067,2.655,2.065H794.5q-.149,3.687-.147,8.553H770.462q-3.539.3-3.539,2.064,0,2.067,2.654,2.065h24.774q-.149,5.015-.148,11.059,0,32.444,1.77,40.4.587,2.949,1.179,3.245.885,0,1.475-2.95,1.327-5.01,1.327-40.7,0-5.751-.147-11.059h21.234Q823.7,203.332,823.7,201.267Z"/></g><g id="莱"><path d="M815.743,289.091q0,2.51,2.8,2.507H833v1.179q.588,5.9,2.8,5.9t2.507-5.9V291.6h41.289v1.769q.586,5.9,3.1,5.9,2.064,0,2.36-5.9V291.6h17.843q2.8,0,2.8-2.507,0-1.622-3.391-2.212H885.05v-.59q-.3-4.717-2.654-4.719-2.212,0-2.8,4.719v.59H838.305v-.59q-.3-5.308-2.8-5.309-1.917,0-2.507,5.309v.59H819.872Q815.743,287.47,815.743,289.091Z"/><path d="M824.9,410.243A4.046,4.046,0,0,1,824,408.57l-.054-.2a4.006,4.006,0,0,1-.134-1.028c0-1.4.623-3.3,3.581-4.431l.16-.066a23.806,23.806,0,0,1,4.843-1.5c.1-.022.209-.031.314-.052.544-.764,1.086-1.532,1.617-2.343q5.9-8.993,8.553-27.87,1.77-13.416,6.046-22.267,3.538-7.222,8.553-10.617-.149,9.291-.148,20.055,0,35.079,1,50.349c.182-.086.358-.168.6-.28a4,4,0,0,1,1.684-.372,4.059,4.059,0,0,1,.632.05l.3.048a4.019,4.019,0,0,1,.881.257q.8-14.205.8-50.052,0-10.026-.148-19.465a31.5,31.5,0,0,1,9.438,10.617q5.16,8.849,6.93,22.857,2.655,18.877,7.816,27.28c.454.779.919,1.515,1.385,2.251a6.1,6.1,0,0,1,1.213-.265l.27-.033c.062-.007.125-.013.188-.018.1-.014.218-.038.34-.061l.094-.018c.186-.035.374-.078.576-.134.081-.022.163-.041.245-.058l1.083-.224a3.939,3.939,0,0,1,.809-.083c.133,0,.266.018.4.031-.927-1.766-1.811-3.592-2.621-5.517q-3.394-8.847-5.308-23.151-3.837-14.6-8.406-22.267-4.721-8.4-12.386-11.8h36.57q2.8,0,2.8-2.359,0-2.5-3.392-2.507H862.931q-.443-15.186-1.18-26.985h27.87q2.655,0,2.654-1.77,0-2.505-3.244-2.507H861.456q-.149-2.211-.442-4.718-.591-2.358-1.033-2.36c-.589,0-1.083.788-1.474,2.36q-.148,2.508-.295,4.718H830.637q-3.687,0-3.687,2.507,0,1.77,2.654,1.77h28.46q-.3,11.208-.589,26.985h-37.75q-3.982,0-3.982,2.507,0,2.361,2.654,2.359h34.949q-6.05,3.395-9.733,11.207-3.981,7.079-7.373,21.677-2.211,14.157-6.046,23.151a58.817,58.817,0,0,1-10.241,16.079,8.626,8.626,0,0,1,3.349,1.36C823.842,411.219,824.371,410.729,824.9,410.243Z"/><path d="M831.816,331.117c.59,0,1.081-.391,1.475-1.179q4.866-4.126,4.866-9,0-6.486-7.078-9.88h-1.032c-.3,0-.443.2-.443.59q3.834,3.395,3.834,6.489a27.283,27.283,0,0,1-2.506,11.8C830.932,330.726,831.227,331.117,831.816,331.117Z"/><path d="M886.524,309.735c-.589,0-1.083.443-1.474,1.327q-5.308,2.8-5.309,7.668,0,5.9,4.571,8.7c.59.788,1.082,1.179,1.475,1.179s.59-.391.59-1.179a31.03,31.03,0,0,1-1.475-9.29,11.745,11.745,0,0,1,2.507-7.079Q887.409,309.736,886.524,309.735Z"/></g><g id="人"><path d="M702.9,411.311a4,4,0,0,1-.776,3.319l-.063.08a3.841,3.841,0,0,1-.6.609,30.288,30.288,0,0,0-.211,4.277c0,.256,0,.512.007.768a9.014,9.014,0,0,1,5.657-1.888h.049a12.89,12.89,0,0,1,2.446.283c.158.032.3.072.444.108q-1.213-5.361-2.315-11,1.471-17.1,1.475-39.667-.442-5.16-1.475-5.161-.591,0-1.032,1.77a429.3,429.3,0,0,1-4.412,44.52,4.058,4.058,0,0,1,.719,1.579Z"/><path d="M702.006,437.43a15.273,15.273,0,0,1-1.866-.32,5.12,5.12,0,0,1-1.057-.389l-.473.111a9.609,9.609,0,0,0-.971.388c-.234.112-.446.2-.606.261l-.117.046a4.657,4.657,0,0,1-1.194.387c-.61,1.993-1.237,3.935-1.895,5.783q-7.079,27.87-30.819,60.312c0,.785.147,1.179.442,1.179s.737-.394,1.327-1.179q25.216-23.74,36.718-63.113c.382-1.069.744-2.215,1.1-3.4-.148-.014-.3-.028-.432-.045Z"/><path d="M710.8,436.6a12.2,12.2,0,0,1-1.562.5,142.552,142.552,0,0,0,7,22.672q12.681,31.851,33.474,44.828a3.4,3.4,0,0,0,1.769,1.032c.2,0,.295-.346.295-1.032a148.017,148.017,0,0,1-18.137-23.742Q726.858,469.061,721.7,458a233.572,233.572,0,0,1-7.875-23.44A8.12,8.12,0,0,1,710.8,436.6Z"/></g><g id="形"><path d="M793.172,547.741h-8.11q-.442-11.8-1.18-20.644h6.636q3.1,0,3.1-3.1,0-2.213-3.686-2.212H751.735q-4.424,0-4.423,2.212,0,3.1,3.1,3.1h7.521a48.849,48.849,0,0,0-.885,5.161l-.148,15.483h-8.257q-4.722,0-4.719,2.212,0,3.1,3.392,3.1H756.9l-.147,30.672q-.149,32.442-6.636,47.63A62.374,62.374,0,0,1,735.367,652c0,.885.244,1.327.737,1.327A8.075,8.075,0,0,0,737.579,652q10.175-6.49,16.958-18.875,7.521-12.239,7.521-49.4l-.148-30.672h18.433q-.148,15.189-.295,37.16,0,48.81,1.622,60.606.588,3.1,1.327,3.1.885,0,1.327-3.1,1.473-6.933,1.475-60.606,0-21.38-.59-37.16h8.7q3.391,0,3.392-3.1Q797.3,547.742,793.172,547.741Zm-12.682,0H761.91V531.668a34.475,34.475,0,0,0-.737-4.571H781.08Q780.783,534.765,780.49,547.741Z"/><path d="M823.844,519.871a6.534,6.534,0,0,0,1.032-2.359q0-1.621-1.77-1.622-.739,0-2.654,1.622-14.156,13.569-19.907,23.741,0,1.625,1.475,1.622a3.6,3.6,0,0,0,2.654-1.032A162.389,162.389,0,0,0,823.844,519.871Z"/><path d="M810.425,573.694q0-10.175,3.686-15.336a91.085,91.085,0,0,1,10.912-12.976,4.045,4.045,0,0,0,1.033-1.917q0-1.179-1.622-1.18a60.326,60.326,0,0,0-14.747,13.567,28.058,28.058,0,0,0-5.013,15.483q0,28.167,7.668,50.137,7.519,20.055,20.644,32.441a2.853,2.853,0,0,0,2.065,1.18.523.523,0,0,0,.59-.59q-14.011-21.38-18.875-36.57A157.756,157.756,0,0,1,810.425,573.694Z"/></g></g></g><g id="Outline"><path id="ZUN_s_Music_Collection_vol.1" data-name="ZUN&apos;s Music Collection vol.1" d="M887.847,908.42,886,908.348c.048-2.449.146-4.956.293-7.491.173-2.988.395-6.184.662-9.532h1.509a4,4,0,0,0,2.7-1.045,4.436,4.436,0,0,0,1.5-3.292,4.56,4.56,0,0,0-1.108-2.936,4,4,0,0,0-3.04-1.463l-12.663-.168H875.8a5.964,5.964,0,0,0-3.136.773,4.4,4.4,0,0,0-1.991,2.519,4,4,0,0,0-2.065-2.5,8.59,8.59,0,0,0-3.9-.789c-.126,0-.251.006-.376.018l-3.539.336-1.389.133a4,4,0,0,0-3.492,2.975,4.514,4.514,0,0,0,.771,3.927,5,5,0,0,0,4.131,1.85l.025,2.39a11.187,11.187,0,0,0-2.668-.736,15.029,15.029,0,0,0-2.106-.207h-.9a15.067,15.067,0,0,0-5.554.947c-.11-.019-.215-.05-.328-.06-.939-.082-1.841-.14-2.682-.17s-1.881-.047-3.194-.047h-4.522a3.978,3.978,0,0,0-1.779.417c-.046-.042-.093-.083-.142-.125a4,4,0,0,0-2.535-.961l-10.05-.167h-.067a4,4,0,0,0-3.051,1.414,5.611,5.611,0,0,0-.822,1.3c-.187-.144-.359-.3-.561-.431a6.565,6.565,0,0,0-3.369-1.751,17.155,17.155,0,0,0-3.653-.362,14.186,14.186,0,0,0-5.371,1.017,5.286,5.286,0,0,0-1.818-.731,4.013,4.013,0,0,0-.818-.084c-1.41,0-2.93.059-4.518.178-.759.057-1.456.128-2.114.211a11.048,11.048,0,0,0-1.68-.384,15.008,15.008,0,0,0-2.105-.207h-.906a15.056,15.056,0,0,0-5.565.951c-.422.162-.825.342-1.219.531a4.957,4.957,0,0,0-.1-.689,4.66,4.66,0,0,0-2.665-3.224,6.324,6.324,0,0,0-3.967-.4,3.982,3.982,0,0,0-1.965-1.124,15.605,15.605,0,0,0-1.817-.331,19.582,19.582,0,0,0-1.963-.072l-.139,0-.407.014-1.515.053q-.341.012-.688.019a13.979,13.979,0,0,0,.083-1.578,7.473,7.473,0,0,0-.22-1.812,4,4,0,0,0-3.881-3.03h-1.038a4,4,0,0,0-2.932,1.279,8.372,8.372,0,0,0-2.064,5.249c0,.073-.011.139-.017.2-.229.06-.535.129-.936.2a16.256,16.256,0,0,0-3.028.7,4,4,0,0,0-2.536,3.089c-.2-.007-.4-.028-.614-.028a14.532,14.532,0,0,0-8.558,2.7q-.411-.346-.859-.657a10.343,10.343,0,0,0-3.575-1.588,16.01,16.01,0,0,0-3.824-.452,13.294,13.294,0,0,0-4.742.8l-.081.032c-.5.2-.963.421-1.417.65.1-2.884.156-5.512.156-7.8a4,4,0,0,0-2.214-3.579,8.594,8.594,0,0,0-3.9-.789c-.125,0-.251.006-.376.018l-2.789.265a10.163,10.163,0,0,0-2.462-.283c-.125,0-.251.006-.376.018l-3.538.336-1.39.133a4,4,0,0,0-3.492,2.975,4.514,4.514,0,0,0,.771,3.927,5,5,0,0,0,4.132,1.85l.028,2.7a11.348,11.348,0,0,0-3.342-1.045,15.008,15.008,0,0,0-2.105-.207h-.9a16.93,16.93,0,0,0-3.538.363c.027-.229.076-.566.167-1.057a16.15,16.15,0,0,0,.336-2.877,8.039,8.039,0,0,0-.76-3.5,4,4,0,0,0-4.15-2.237l-.736.1a4.06,4.06,0,0,0-.8.194c-.229-.142-.463-.273-.7-.391a11.148,11.148,0,0,0-3.052-1.016,17.28,17.28,0,0,0-3.083-.264,18.533,18.533,0,0,0-4.487.555,12.618,12.618,0,0,0-3.725,1.512,9.938,9.938,0,0,0-2.533,1.8l-.061.059-.731.732-.6.6a4,4,0,0,0-.451.539,24.835,24.835,0,0,0-3.111,6.015,20.585,20.585,0,0,0-.809,3.089,11.217,11.217,0,0,0-4.24-3.061,15.52,15.52,0,0,0-6.081-1.154,14.778,14.778,0,0,0-6.592,1.518c-.123.06-.238.133-.359.2a5.079,5.079,0,0,0-.135-.922,4.662,4.662,0,0,0-2.666-3.224,6.207,6.207,0,0,0-2.609-.55,5.169,5.169,0,0,0-4.307,2c-.069.092-.133.186-.194.283a5.39,5.39,0,0,0-.475.973,5.008,5.008,0,0,0-1.414.406q-.311-.1-.633-.18a16.233,16.233,0,0,0-4.065-.5,16.8,16.8,0,0,0-1.823.091c-.549.06-1.106.149-1.653.265l-.049.011a12.214,12.214,0,0,0-3.868,1.584,4,4,0,0,0-.51-.18,12.771,12.771,0,0,0-1.825-.358,19.409,19.409,0,0,0-2-.073c-.637,0-1.529.034-2.807.107-1.34.078-2.018.094-2.351.094a4.014,4.014,0,0,0-1.522.3,10.531,10.531,0,0,0-1.063.482,5,5,0,0,0-2.985-2.15,3.994,3.994,0,0,0-1.164-.174c-.375,0-.8.014-1.244.034l.041-.991a24.182,24.182,0,0,0,3.363-.174,4,4,0,0,0,3.339-3.672,4.369,4.369,0,0,0,.043-.576,4.307,4.307,0,0,0-2.928-4.094,3.99,3.99,0,0,0-1.273-.208h-8.342a4,4,0,0,0-3.584,2.223q-2.029,4.092-4.059,8.152c-.58,1.093-1.395,2.723-2.488,4.978q-1.176,2.391-1.823,3.7-.5-.93-1-1.858c-1.608-2.99-2.95-5.525-3.993-7.542-1.294-2.5-2.578-5.038-3.817-7.556a3.892,3.892,0,0,0-.361-.6,5.829,5.829,0,0,0-3.211-2.182,10.38,10.38,0,0,0-2.763-.326c-.592,0-1.409.036-2.5.11-1.3.088-1.623.091-1.655.091h-.289a4.059,4.059,0,0,0-.515-.033,4,4,0,0,0-4,4v.77a4,4,0,0,0,4,4h1.227q.024.279.039.54c.062,1.042.094,2.331.094,3.835,0,.975-.044,2.394-.13,4.218q-.135,2.841-.235,5.3-.042,1.022-.068,2.067a3.91,3.91,0,0,0-.586.093,5.723,5.723,0,0,0-.563-1.256,4,4,0,0,0,.736-2.2c.007-.124.044-.641.222-2.728.054-.616.082-1.308.082-2.047a12.56,12.56,0,0,0-.3-2.709,4,4,0,0,0-3.484-3.112,6.338,6.338,0,0,0-.667-.036,5.131,5.131,0,0,0-2.159.464q-.309-.1-.632-.18a16.233,16.233,0,0,0-4.065-.5,16.8,16.8,0,0,0-1.823.091c-.55.06-1.106.149-1.653.265l-.05.011a11.342,11.342,0,0,0-5.606,2.937c0-.248,0-.489,0-.736A15.712,15.712,0,0,0,564,893.8a6.294,6.294,0,0,0,2.751-5.066,6.587,6.587,0,0,0-.53-2.517,5.32,5.32,0,0,0-3.939-3.164,14.833,14.833,0,0,0-3.25-.3,4.011,4.011,0,0,0-1.011.13,7.753,7.753,0,0,0-1.142.393l-1.652.021c-1.658.022-3.353.033-5.038.033a4,4,0,0,0-4,4v.269a4.392,4.392,0,0,0,3.427,4.344,7.665,7.665,0,0,0,1.5.181c.1,1.139.183,2.251.241,3.327.059,1.1.107,2.167.144,3.208q-1.312-1.9-2.658-3.881l-.032-.046c-1.782-2.543-3.4-4.692-4.81-6.393l-1.011-1.548a12.605,12.605,0,0,0-3.738-3.822,4,4,0,0,0-2.125-.61H533.9c-1.024,0-1.885.012-2.561.037a19.888,19.888,0,0,0-2.451.26,3.983,3.983,0,0,0-2.4,1.391c-.768.01-1.512.025-2.2.052a31.381,31.381,0,0,0-3.288.289,4,4,0,0,0-3.359,3.25,6.131,6.131,0,0,0-.1,1.082,4.215,4.215,0,0,0,3.877,4.2,4.02,4.02,0,0,0,.425.023h.467l.117,8.362q-.312,1.7-.862,4.816a4.348,4.348,0,0,1-2.659,1.94,3.841,3.841,0,0,1-.845.226,13.3,13.3,0,0,1-1.579.072,12.844,12.844,0,0,1-2.291-.2,2.574,2.574,0,0,1-1.258-.552,4.422,4.422,0,0,1-.5-.661c-.109-.936-.189-1.825-.237-2.652-.062-1.086-.094-2.225-.094-3.382,0-.343.035-1.818.266-7.842.022-.588.041-1.172.056-1.748a5.87,5.87,0,0,0,1.119-.266,4.577,4.577,0,0,0,2.986-3.324,4,4,0,0,0-.155-2.265,4.553,4.553,0,0,0-3.483-2.88,9.527,9.527,0,0,0-1.874-.162h-.737c-.179,0-.239,0-1.864.118-.08.006-.277.016-.649.016h-1.407c-.193,0-.378,0-.568.007a4.01,4.01,0,0,0-1.039-.141H484.088a3.993,3.993,0,0,0-1.794.425l-.8.4a4,4,0,0,0-2.206,3.575v.405a5.541,5.541,0,0,0,.085.945c-.015.248-.048.648-.114,1.277a25.354,25.354,0,0,0-.173,2.555,14.42,14.42,0,0,0,.093,1.616,10.123,10.123,0,0,0,.389,1.86,4,4,0,0,0,1.777,2.251,4.413,4.413,0,0,0,2.256.611,5.147,5.147,0,0,0,1.395-.2h0a4,4,0,0,0,3.348-3.614l.252-2.99,5.675-.1q-.608.672-1.2,1.336c-2.232,2.482-4.436,4.985-6.548,7.434-1.1,1.257-3.222,3.759-6.3,7.419a4.248,4.248,0,0,0-.269.359c-.057.056-.142.136-.263.244a5.571,5.571,0,0,0-2.148,4.117,4.79,4.79,0,0,0,3.32,4.5,4,4,0,0,0,1.451.272h22.01a4,4,0,0,0,3.576-2.212c.171.106.331.228.509.325a16.722,16.722,0,0,0,3.54,1.394,15.693,15.693,0,0,0,4.152.561,13.781,13.781,0,0,0,2.542-.237,15.792,15.792,0,0,0,5.751-1.684,12.976,12.976,0,0,0,3.509-2.573,4.62,4.62,0,0,0,2.826,3.055,3.988,3.988,0,0,0,1.433.266c1.854,0,3.657-.029,5.359-.086,1.791-.059,3.373-.177,4.7-.349a4,4,0,0,0,3.486-3.967v-.335a4,4,0,0,0-1.18-2.837,5.114,5.114,0,0,0-2.705-1.4,8.012,8.012,0,0,0-1.032-.119c.006-1.272.014-2.528.025-3.761q.014-1.529.031-3.045,2.84,3.692,5.737,7.438c2.1,2.719,4.1,5.4,5.942,7.972a4,4,0,0,0,3.251,1.669c.158,0,.4-.006.712-.023a4.484,4.484,0,0,0,3.055-1.283c.034-.034.059-.076.091-.111a4,4,0,0,0,2.225,1.3,6.036,6.036,0,0,0,1.187.111,4.722,4.722,0,0,0,2.18-.525,19.056,19.056,0,0,0,4.52.525,14.283,14.283,0,0,0,4.055-.524,10.744,10.744,0,0,0,4.41-2.322,3.98,3.98,0,0,0,3.159,1.572h10.385a4,4,0,0,0,2.711-1.058l.435-.4a4,4,0,0,0,.871-1.16,20.9,20.9,0,0,0,1.619,2.191,4,4,0,0,0,3.04,1.4c.084,0,.168,0,.252-.008a4,4,0,0,0,3.091-1.8q.143-.216.288-.448a4.225,4.225,0,0,0,1.05,1.369l.248.215a4,4,0,0,0,2.61.969h9.547a3.994,3.994,0,0,0,1.689-.375l.5-.234a4.034,4.034,0,0,0,.619-.363,12.2,12.2,0,0,0,4.692.871,15.414,15.414,0,0,0,5.143-.914,4.007,4.007,0,0,0,2.663,1.015c.062,0,.124,0,.186,0l2.079-.1a6.091,6.091,0,0,0,1.118.1,4.763,4.763,0,0,0,1.41-.219l1.154-.053a4.056,4.056,0,0,0,.491-.069,19.42,19.42,0,0,0,3.645.341,14.715,14.715,0,0,0,3.619-.415,4,4,0,0,0,2.178.649h10.585a3.984,3.984,0,0,0,2.251-.7c.386.094.772.187,1.171.248a20.1,20.1,0,0,0,3.01.213,18.571,18.571,0,0,0,5.383-.742,4.257,4.257,0,0,0,.438-.162c1.358-.593,2.368-1.076,3.088-1.475,2.928-1.622,4.014-3.478,4.3-5.077a18.513,18.513,0,0,0,2.615,3.226,3.953,3.953,0,0,0,.359.312,18.673,18.673,0,0,0,4.827,2.759,19.922,19.922,0,0,0,7,1.159,12.293,12.293,0,0,0,7.05-2.119,15.135,15.135,0,0,0,4.479,1.808l.066.015a13,13,0,0,0,2.81.3,17.922,17.922,0,0,0,3.624-.367c.4-.083.8-.193,1.192-.3a3.989,3.989,0,0,0,1.232.417,23.865,23.865,0,0,0,3.466.251l.122,0,2.211-.068c.434-.012.871-.014,1.308-.019.657.054,1.319.089,1.986.089l.122,0,.552-.017c.03,0,.06,0,.089,0,.115.01.229.015.344.015a3.936,3.936,0,0,0,.574-.05l.652-.02c.692-.02,1.391-.031,2.089-.031.645,0,1.307.029,1.968.086.115.01.229.015.344.015a3.987,3.987,0,0,0,1.345-.234l.971-.346c.059-.021.109-.055.166-.079.326.111.659.216,1,.311.111.031.223.057.337.078a15.851,15.851,0,0,0,2.913.27,17.624,17.624,0,0,0,2.818-.22,12.852,12.852,0,0,0,2.723-.737,3.786,3.786,0,0,0,.366-.169,22.863,22.863,0,0,0,2.547-1.537,15.592,15.592,0,0,0,2.094,1.419,4.065,4.065,0,0,0,.415.2,12.92,12.92,0,0,0,3.012.83,20.093,20.093,0,0,0,3.01.213,18.571,18.571,0,0,0,5.383-.742,4.257,4.257,0,0,0,.438-.162c1.358-.593,2.368-1.076,3.087-1.475.132-.073.25-.147.374-.221a8.827,8.827,0,0,0,2.291,1.484,12.693,12.693,0,0,0,2.8.846,16.412,16.412,0,0,0,3.014.27,15.428,15.428,0,0,0,2.5-.188,4.209,4.209,0,0,0,.445-.1c.023-.007.045-.017.068-.024a3.985,3.985,0,0,0,1.983.546h10.585a3.976,3.976,0,0,0,2.2-.662c.142.038.276.082.421.117l.066.015a13,13,0,0,0,2.81.3,17.922,17.922,0,0,0,3.624-.367,19.148,19.148,0,0,0,3.1-.92c.046.008.087.026.133.033a3.949,3.949,0,0,0,.614.047h.088l9.182-.2a2.049,2.049,0,0,1,3.091.753,7.029,7.029,0,0,0,2.052.566,12.289,12.289,0,0,0,1.536.09c.137,0,.14,0,1.5-.074,1-.052,1.4-.06,1.544-.06h.469a4.018,4.018,0,0,0,.535.036,3.957,3.957,0,0,0,1.123-.163l.188.036a10.142,10.142,0,0,0,1.939.225,9.995,9.995,0,0,0,1.237-.066,4,4,0,0,0,2.869-1.812,4.924,4.924,0,0,0,.833-2.678,4.418,4.418,0,0,0-4.383-4.379c.016-.311.038-.714.071-1.235.084-1.381.124-2.463.124-3.311,0-.765-.029-1.411-.077-2a7.485,7.485,0,0,0,1.638.171h1.309c.727,1.2,1.39,2.408,1.98,3.618a51.22,51.22,0,0,1,2.033,4.769,23.4,23.4,0,0,0,.686,2.335,9.455,9.455,0,0,0,1.983,3.254,4.008,4.008,0,0,0,.847.677,4.429,4.429,0,0,0,3.749.433,4,4,0,0,0,2.818-1.97c.706-1.246,1.413-2.5,2.12-3.758.148.262.3.519.475.768a12.5,12.5,0,0,0,7.732,4.873l.067.015a12.98,12.98,0,0,0,2.809.3,17.932,17.932,0,0,0,3.625-.367c.254-.052.5-.127.75-.189a4.01,4.01,0,0,0,1,.305,23.889,23.889,0,0,0,3.467.251l.122,0,2.211-.068c.692-.02,1.39-.031,2.089-.031.645,0,1.307.029,1.968.086.114.01.229.015.343.015a3.986,3.986,0,0,0,1.028-.15c.1,0,.179.016.278.016.115,0,.229,0,.344-.015a6.876,6.876,0,0,0,1.894-.427,4.166,4.166,0,0,0,2.083.576h12.663a4,4,0,0,0,4-4v-.771A4,4,0,0,0,887.847,908.42Zm-129.208-1.781a11.406,11.406,0,0,1-1.158.754,5.756,5.756,0,0,1-2.783.722,4.022,4.022,0,0,0-.789.079,1.063,1.063,0,0,1-.216.022,2.932,2.932,0,0,1-1.042-.229c-.578-.225-1.13-.452-1.649-.678a1.476,1.476,0,0,1-.318-.421,2.983,2.983,0,0,1-.193-1.137,4.95,4.95,0,0,1,.06-.672c.028-.195.055-.378.083-.549a5.317,5.317,0,0,1,.937-1.389,3.9,3.9,0,0,1,2.226-.931c.081-.011.163-.02.245-.028a4.645,4.645,0,0,0,1.078,2.259c.178.212.422.473.8.85a3.968,3.968,0,0,0,.484.413A5.4,5.4,0,0,0,758.639,906.639Zm-62.895.759c-.1.1-.169.161-.2.184a4.855,4.855,0,0,1-3.156.9,5.423,5.423,0,0,1-2.79-.7,15.961,15.961,0,0,1-2.049-1.612,12.893,12.893,0,0,1-1.216-2.728,10.978,10.978,0,0,1-.464-3.2,10.143,10.143,0,0,1,.863-4.088,10.961,10.961,0,0,1,2.638-3.674,3.524,3.524,0,0,1,1.29-.723,6.955,6.955,0,0,1,2.3-.361h.491a3.894,3.894,0,0,1,2.086,1.083,6.166,6.166,0,0,1,.691,2.4,22.7,22.7,0,0,0,.939,4.377c.01.025.027.046.037.071a10.785,10.785,0,0,0-1.644,5.791A14.285,14.285,0,0,0,695.744,907.4Zm10.217-3.87a4.129,4.129,0,0,1,.536-.561,3.826,3.826,0,0,1,2.259-.87c.031,0,.226-.018.719-.018a5.5,5.5,0,0,1,1.926.288,2.516,2.516,0,0,1,.606.319,4.563,4.563,0,0,1,.6,2.229,2.777,2.777,0,0,1-.485,1.627,4.828,4.828,0,0,1-2.1,1.6,3.506,3.506,0,0,1-1.258.17,7.407,7.407,0,0,1-1.141-.083,4.992,4.992,0,0,1-1.462-.767c.012-.063.03-.125.038-.188a5.76,5.76,0,0,0,.268-1.626A4.664,4.664,0,0,0,705.961,903.528Zm64.694-1.979c0,.007.008.015.013.022a5.114,5.114,0,0,0,2.64,1.793,7.159,7.159,0,0,0,1.993.256h.018a4,4,0,0,0-.695.568,25.653,25.653,0,0,0-2.216,3.2.669.669,0,0,1-.193.2,3.771,3.771,0,0,1-.743.307,2.343,2.343,0,0,1-.66.087,1.337,1.337,0,0,1-.244-.016l-.079-.019c-.073-.016-.137-.033-.193-.049Zm24.8.818a2.516,2.516,0,0,1,.606.319,4.574,4.574,0,0,1,.6,2.229,2.777,2.777,0,0,1-.485,1.627,4.828,4.828,0,0,1-2.1,1.6,3.511,3.511,0,0,1-1.258.17,7.4,7.4,0,0,1-1.141-.083,3.678,3.678,0,0,1-1.856-1.176,3.144,3.144,0,0,1-.339-1.709q0-.245.014-.638c0-.041.008-.18.04-.5a4.948,4.948,0,0,1,1.008-1.24,3.826,3.826,0,0,1,2.259-.87c.03,0,.226-.018.718-.018A5.5,5.5,0,0,1,795.451,902.367Zm13.557,4.686a8.2,8.2,0,0,1,.455-2.7,3.475,3.475,0,0,1,1.812-1.753c.249-.021.555-.049.938-.089.856-.089,1.176-.1,1.254-.1a1.348,1.348,0,0,1,.259.023l.063.012.156.287v3.032c0,.916-.044,1.826-.13,2.7a6.774,6.774,0,0,0-1.585.525A4.648,4.648,0,0,0,809.008,907.053Zm42.13-2.343c0-.041.008-.18.04-.5a4.948,4.948,0,0,1,1.008-1.24,3.823,3.823,0,0,1,2.259-.87c.03,0,.226-.018.718-.018a5.494,5.494,0,0,1,1.926.288,2.524,2.524,0,0,1,.607.319,4.574,4.574,0,0,1,.6,2.229,2.771,2.771,0,0,1-.486,1.627,4.828,4.828,0,0,1-2.1,1.6,3.5,3.5,0,0,1-1.257.17,7.388,7.388,0,0,1-1.141-.083,3.687,3.687,0,0,1-1.857-1.176,3.158,3.158,0,0,1-.338-1.709C851.124,905.185,851.128,904.972,851.138,904.71Zm19.514-9.7c.085-2.33.139-4.489.159-6.449a4.609,4.609,0,0,0,.271.6,4,4,0,0,0,3.232,2.016c.891.055,1.858.106,2.884.154.015.474.028,1.266.028,2.587,0,1.412-.065,3.172-.193,5.23q-.2,3.24-.37,6.166c-.063,1.09-.108,2.184-.137,3.275-.3.028-.562.055-.807.082a4.028,4.028,0,0,0-.58-.659,6.375,6.375,0,0,0-4.331-1.612c-.167,0-.347.009-.547.024.02-.782.044-1.59.073-2.435Q870.484,899.538,870.652,895.014ZM676.47,904.875l.1-.115c.069-.083.121-.179.183-.267.043.2.094.39.145.585A3.881,3.881,0,0,0,676.47,904.875Zm-5.834,1.764a11.406,11.406,0,0,1-1.158.754,5.756,5.756,0,0,1-2.783.722,4,4,0,0,0-.788.079,1.08,1.08,0,0,1-.217.022,2.932,2.932,0,0,1-1.042-.229c-.578-.225-1.13-.452-1.649-.678a1.476,1.476,0,0,1-.318-.421,2.983,2.983,0,0,1-.193-1.137,4.95,4.95,0,0,1,.06-.672q.042-.292.083-.549a5.317,5.317,0,0,1,.937-1.389,3.9,3.9,0,0,1,2.226-.931c.081-.011.163-.02.245-.028a4.645,4.645,0,0,0,1.078,2.259c.178.212.422.473.8.85a3.968,3.968,0,0,0,.484.413A5.4,5.4,0,0,0,670.636,906.639Zm-26.859-4.393c.1.031.175.061.242.089.057.049.116.095.175.141l-1.817-.213a4.4,4.4,0,0,1,.8-.083A2.4,2.4,0,0,1,643.777,902.246Zm-16.845,1.374c.421,0,.93-.028,1.549-.085a12.79,12.79,0,0,1,.112,1.612,3.559,3.559,0,0,1-.249,1.467,2.535,2.535,0,0,1-.824.894,10.466,10.466,0,0,1-1.194.364,5.627,5.627,0,0,1-1.3.143c-.056,0-.135,0-.235-.01l-.278-.018c-.079-.023-.146-.045-.2-.066a6.016,6.016,0,0,1-.315-1.132,16.154,16.154,0,0,1-.195-2.68c0-.131,0-.4.025-.932.113.042.228.078.345.109a9.037,9.037,0,0,0,1.531.294C626.011,903.607,626.4,903.62,626.932,903.62Zm-19.623,5.16,0-.007q.344-.639.718-1.368-.037.657-.081,1.3C607.67,908.732,607.468,908.757,607.309,908.78ZM590.8,907.3v-2.829c.609,1.117,1.138,2.049,1.6,2.817l.1.19A15.627,15.627,0,0,0,590.8,907.3Zm-21.585-5.04a4.4,4.4,0,0,1,.8-.083,1.861,1.861,0,0,1,1,.232l.015.064Zm-68.4-4.144c.619-.673,1.227-1.322,1.828-1.958l.036,4.18a4,4,0,0,0-2.329,3.214l-.379,3.606-.105.988h-7.944q.863-.978,1.813-2.063C497.077,902.279,499.461,899.6,500.81,898.119Zm30.078,8.619a25.065,25.065,0,0,0,.639-4.639c.008.537.018,1.075.018,1.608,0,1.059-.022,2.151-.064,3.244,0,.065-.006.129-.008.193a4,4,0,0,0-.755.183C530.774,907.131,530.84,906.936,530.888,906.738Z" fill="#fff"/></g><g id="Text"><g id="Dolls_in_Pseudo_Paradise" data-name="Dolls in Pseudo Paradise"><path d="M651.033,419.744c.03-.948.03-2.764.06-5.382.024-1.5.036-2.253.061-3.756-.684.047-1.027.068-1.711.108l-.57.013-.18-.116a.6.6,0,0,1-.09-.285c-.023-.248.48-.418,1.44-.509l.271-.026c2.55-.228,4.682-.41,6.419-.492a37.617,37.617,0,0,1,4.86.006,11.148,11.148,0,0,1,7.587,3.339,12.2,12.2,0,0,1,2.846,8.492,9.068,9.068,0,0,1-3.061,7.378,10.708,10.708,0,0,1-6.029,2.656,13.853,13.853,0,0,1-2.789.046c-1.32-.1-1.98-.151-3.3-.258-.42-.041-1.091-.118-1.979-.171-.5-.029-1.333-.065-2.4-.165-.3-.028-1.528-.049-3.718-.055l-.539,0-.15-.106-.06-.218c0-.27.45-.427,1.319-.472l1.38-.1C650.834,425.724,650.9,423.865,651.033,419.744Zm2.459-.143c-.036,2.684-.054,3.838-.091,6.337a9.153,9.153,0,0,0,.149,1.9,1.758,1.758,0,0,0,.391.8,4.524,4.524,0,0,0,1.768.832,16.5,16.5,0,0,0,2.909.537c3.179.328,5.717-.167,7.588-1.413,1.946-1.3,2.94-2.819,2.941-6.223,0-6.58-3.535-11.049-9.564-11.67a15.336,15.336,0,0,0-3.3-.032,9.577,9.577,0,0,0-2.55.584C653.637,414.607,653.589,416.281,653.492,419.6Z" fill="#000000"/><path d="M685.84,427.807a4.573,4.573,0,0,1-1.89,3.816,7.012,7.012,0,0,1-4.77,1.3c-3.479-.173-5.668-2.219-5.667-5.452a6.114,6.114,0,0,1,1.681-4.263,5.335,5.335,0,0,1,4.738-1.856A6.279,6.279,0,0,1,685.84,427.807Zm-10.168-1.153a5.212,5.212,0,0,0,1.319,3.575,4.378,4.378,0,0,0,3.149,1.533,3.309,3.309,0,0,0,2.61-.867,2.981,2.981,0,0,0,.9-2.219c0-3.048-1.829-5.517-4.559-5.744C676.814,422.742,675.673,424.14,675.672,426.654Z" fill="#000000"/><path d="M688.2,418.026c0-1.338-.06-2.879-.18-4.681l-.03-.405c-.03-.3.18-.472.6-.567l.629-.124c.21-.029.78-.23,1.769-.535.36-.123.54-.185.9-.31a.581.581,0,0,1,.24.158l.09.417-.06.073a6.451,6.451,0,0,0-.989.974c-.454.542-.711,3.177-.69,6.338.008,1.342.035,2.7.03,4.01-.016,3.95-.06,4.739-.06,4.665v1.394a8.264,8.264,0,0,0,.149,2.092.667.667,0,0,0,.63.414,4.133,4.133,0,0,0,.84-.088l.48-.1c.24.1.33.194.33.377,0,.114-.3.264-.9.405l-1.05.241a10.54,10.54,0,0,0-1.74.646c-.21.106-.449.188-.69.293a.936.936,0,0,1-.27.1.513.513,0,0,1-.51-.4l.031-.112a17.154,17.154,0,0,0,.479-4.507C688.213,425.277,688.207,423.085,688.2,418.026Z" fill="#000000"/><path d="M694.973,418.315c0-1.348-.059-2.9-.18-4.726l-.03-.411c-.03-.3.18-.481.6-.583l.631-.134c.21-.033.779-.244,1.769-.566l.9-.326a.567.567,0,0,1,.239.157l.09.422-.059.075a6.451,6.451,0,0,0-.99,1c-.454.555-.709,3.225-.689,6.4.009,1.346.035,2.708.03,4.01-.014,3.94-.059,4.723-.059,4.649v1.38a7.95,7.95,0,0,0,.15,2.058.658.658,0,0,0,.63.4,4.371,4.371,0,0,0,.84-.1l.48-.105c.24.1.33.187.33.366,0,.112-.3.263-.9.409l-1.049.248a10.747,10.747,0,0,0-1.741.65c-.21.105-.45.188-.69.292a.982.982,0,0,1-.27.1.5.5,0,0,1-.509-.382l.029-.109a16.448,16.448,0,0,0,.48-4.424C694.992,425.591,694.986,423.406,694.973,418.315Z" fill="#000000"/><path d="M702.66,433.48a13.081,13.081,0,0,1-1.56-.253c-.344-.085-.45-.171-.45-1v-1.044a.544.544,0,0,1,.811-.379c.047.075.071.112.119.187v.161c0,1.1.96,1.677,2.761,1.688a8.3,8.3,0,0,0,3.03-.537c1.16-.444,1.74-1.022,1.74-1.79,0-.651-.511-.964-1.8-.969-.6,0-.9,0-1.5-.008-2.67-.018-3.96-.784-3.961-2.526a4.313,4.313,0,0,1,1.41-3.093,4.974,4.974,0,0,1,3.689-1.442,9.108,9.108,0,0,1,1.68.206c.886.177,1.351.366,1.351.664a2.748,2.748,0,0,1-.181,1.022c-.148.36-.269.523-.42.557l-.509-.161a7.085,7.085,0,0,0-2.791-.657c-1.529-.007-2.58.872-2.579,1.9,0,.775.631,1.258,1.86,1.442a10.373,10.373,0,0,0,1.68.11,6.69,6.69,0,0,1,3.541.769,2.06,2.06,0,0,1,.93,1.848c0,1.22-.755,2.118-2.219,2.714a11.623,11.623,0,0,1-4.38.706A19.249,19.249,0,0,1,702.66,433.48Z" fill="#000000"/><path d="M720.784,432.718c-.036.112-.054.169-.09.28-.03.065-.15.11-.33.156-.684.175-1.026.261-1.71.432-.121-.061-.181-.123-.181-.186-.024-.369-.036-.558-.06-.941,0-2.1,0-3.248,0-5.746a4.411,4.411,0,0,0-.241-1.85.924.924,0,0,0-.84-.381l-.42.106-.33.1a.538.538,0,0,1-.27-.219.738.738,0,0,1-.09-.352c0-.162.3-.33.869-.5l.99-.315c.961-.4,1.441-.6,2.4-1.009.33.122.48.283.48.478l-.03.391c0,.454-.029,1.331-.059,2.351-.024.666-.035.992-.059,1.63C720.8,429.569,720.8,430.684,720.784,432.718Zm.173-17.56a1.847,1.847,0,0,1-1.62,1.96,1.454,1.454,0,0,1-1.14-.526,2.166,2.166,0,0,1-.451-1.388,1.918,1.918,0,0,1,1.59-2.052A1.835,1.835,0,0,1,720.957,415.158Z" fill="#000000"/><path d="M725.232,427.746c0-2.364-.632-3.5-1.862-3.454l-.33.076-.27.041a.522.522,0,0,1-.24-.117c-.024-.138-.036-.207-.061-.346.031-.033.09-.067.121-.1a2.264,2.264,0,0,1,.42-.269l.66-.279c.21-.1.479-.243.78-.414.15-.1.449-.274.869-.581l.241-.171c.21-.008.483.212.87.644a4.191,4.191,0,0,1,.841,1.506,12.815,12.815,0,0,1,2.942-1.578,8.305,8.305,0,0,1,2.43-.658,2.464,2.464,0,0,1,2.372,1.144,6.685,6.685,0,0,1,.75,3.9c-.059,1.717-.089,2.519-.148,4.011a.332.332,0,0,0,.149.357.815.815,0,0,0,.451.092l.51-.135.51-.114a.445.445,0,0,1,.18.082c.036.107.054.16.09.265,0,.156-.269.3-.84.437-.27.055-.69.161-1.2.313-.576.206-.864.307-1.44.508-.324.123-.486.184-.81.305l-.27-.052-.09-.165.06-.15a11.891,11.891,0,0,0,.629-4.132c0-3.113-1.082-4.975-3.213-4.863a4.713,4.713,0,0,0-2.881,1.434c0,.316,0,.473,0,.783.012.385.018.574.03.949-.011,1.448-.017,2.135-.029,3.435-.036,1-.053,1.48-.089,2.394-.684.192-1.026.287-1.71.473l-.18.026a.457.457,0,0,1-.18-.079c-.024-.117-.036-.175-.061-.294C725.233,431.069,725.232,430.024,725.232,427.746Z" fill="#000000"/><path d="M750.257,431.453c-.212.036-.423.072-.575.081,0,0-.181.033-.515.122-1.242.28-2.665.7-4.331,1.195-.182.053-.273.079-.455.13l-.212-.054-.06-.147c.03-.044.109-.095.151-.159a2.159,2.159,0,0,1,.212-.229,1.39,1.39,0,0,0,.425-.557,13.5,13.5,0,0,0,.241-3.231c0-1.484,0-3,.03-4.508.023-2.979.035-4.621.059-8.227v-1.048a5.067,5.067,0,0,0-.121-.882c-.092-.454-.182-.75-.394-.737a3.743,3.743,0,0,0-1.544.6,4.5,4.5,0,0,1-1.119.536l-.182-.1-.06-.323c0-.329.362-.644,1.059-1.015l.272-.163a18.725,18.725,0,0,1,4.116-1.948,13.728,13.728,0,0,1,3.724-.772,7.945,7.945,0,0,1,5.361,1.39,6.207,6.207,0,0,1,2.334,5.221,7.437,7.437,0,0,1-2.724,6.087,11,11,0,0,1-6.268,2.313c-.7.057-1.03-.082-1.03-.445a.627.627,0,0,1,.09-.4l.394-.089.727-.059c3.634-.3,5.845-2.49,5.843-6.442a7.216,7.216,0,0,0-1.213-4.356,4.143,4.143,0,0,0-3.786-1.715c-1.453.09-2.634.79-2.845,1.561-.037.653-.055.974-.091,1.606-.03.7-.06,1.993-.09,3.746-.035,4.83-.053,6.914-.088,10.618a4.223,4.223,0,0,0,.212,1.777c.128.2.484.3,1,.267a5.983,5.983,0,0,0,1.15-.213,6.906,6.906,0,0,1,1.091-.237l.121.064c.024.094.036.141.061.235C751.227,431.16,750.894,431.321,750.257,431.453Z" fill="#000000"/><path d="M759.625,431.621a12.207,12.207,0,0,1-1.56-.178c-.342-.071-.45-.159-.45-1.078v-1.157c.059-.335.239-.529.509-.549a.419.419,0,0,1,.3.054l.12.2v.18c0,1.228.961,1.8,2.76,1.686a7.562,7.562,0,0,0,3.03-.835c1.158-.6,1.738-1.327,1.738-2.215,0-.752-.511-1.066-1.8-.958l-1.5.125c-2.67.222-3.96-.5-3.961-2.42a4.688,4.688,0,0,1,1.409-3.352,5.817,5.817,0,0,1,3.688-1.676,9.668,9.668,0,0,1,1.68.022c.887.075,1.349.2,1.349.474a2.4,2.4,0,0,1-.179.946c-.148.342-.27.5-.419.545l-.51-.1a7.225,7.225,0,0,0-2.79-.328c-1.53.145-2.579,1.053-2.578,2.192,0,.854.63,1.323,1.859,1.407a9.454,9.454,0,0,0,1.681-.04,5.682,5.682,0,0,1,3.54.544,2.257,2.257,0,0,1,.93,2.044,3.748,3.748,0,0,1-2.217,3.363,10.28,10.28,0,0,1-4.379,1.1A17.294,17.294,0,0,1,759.625,431.621Z" fill="#000000"/><path d="M776.153,428.906a6.041,6.041,0,0,0,2.19-.553,4.578,4.578,0,0,0,1.769-1.452l.36-.491a1.062,1.062,0,0,1,.51-.476.526.526,0,0,1,.27.092l.119.251a3.516,3.516,0,0,1-.6,1.264,17.981,17.981,0,0,1-1.558,2.06,2.831,2.831,0,0,1-1.29.931,10.252,10.252,0,0,1-2.221.3c-3.75.216-6.03-1.542-6.032-5.017a8.165,8.165,0,0,1,1.587-4.8,6.2,6.2,0,0,1,4.438-2.756,3.7,3.7,0,0,1,2.642.605,2.752,2.752,0,0,1,1.081,2.358c0,1.176-2.43,2.687-7.258,4.405A3.491,3.491,0,0,0,776.153,428.906Zm-.693-5.7a2.712,2.712,0,0,0,1.258-2.191,1.408,1.408,0,0,0-.481-1.106c-.149-.1-.269-.182-.359-.232a1.663,1.663,0,0,0-.84-.094,2.984,2.984,0,0,0-2.249,1.622,5.1,5.1,0,0,0-.749,2.671v.341l.03.366A8.271,8.271,0,0,0,775.46,423.207Z" fill="#000000"/><path d="M788.8,429.161a12.328,12.328,0,0,1-2.189,1.1,3.36,3.36,0,0,1-3.091-1.173,6.51,6.51,0,0,1-.963-4.077c.047-1.945.071-2.92.118-4.9-.048-.494-.073-.743-.121-1.242a.479.479,0,0,0,.12-.1,2.831,2.831,0,0,1,.39-.221l.69-.312c.816-.409,1.224-.613,2.039-1.023.33-.034.481.071.481.312a1.162,1.162,0,0,1-.33.545,2.307,2.307,0,0,0-.45.617,4.7,4.7,0,0,0-.509,1.635,23.244,23.244,0,0,0-.148,3.009c0,3.664.843,4.9,3,4.746a9.135,9.135,0,0,0,3.629-1.361c0-2.618,0-3.9,0-6.482,0-1.145-.24-1.811-.69-2a.132.132,0,0,1-.121-.108.583.583,0,0,1,.361-.577l.179-.079c.06-.036.51-.262,1.38-.742l.84-.446c.24-.025.691.32.691.56l-.03.123a9.979,9.979,0,0,0-.27,1.889c-.035,1.092-.053,1.638-.088,2.734-.011,1.483-.017,2.226-.028,3.728.037,1.228.055,1.845.092,3.095l.029.28c0,.22-.335.523-1.019.972a5.332,5.332,0,0,1-1.26.665l-.12-.118-.031-.434v-1.207c.011-.371.018-.556.029-.925C790.368,428.255,789.846,428.56,788.8,429.161Z" fill="#000000"/><path d="M804.468,427.053c-1.29,1.376-2.37,2.072-3.24,2.121a4.569,4.569,0,0,1-3.9-1.254,6.092,6.092,0,0,1-1.172-4.111,8.794,8.794,0,0,1,1.857-5.776,7.043,7.043,0,0,1,4.951-2.561l2.4.036c.011-1.17.017-1.75.028-2.9,0-1.379-.061-2.884-.212-4.512-.011-.137-.017-.206-.029-.343q-.045-.3.72-.481l.3-.078a7.954,7.954,0,0,0,.87-.259c.209-.07.51-.177.9-.343.432-.152.648-.228,1.081-.377.27.067.39.115.39.337,0,.084-.2.231-.57.485a2.012,2.012,0,0,0-.78.9,17.62,17.62,0,0,0-.389,4.637c0,1.492-.029,3.19-.059,5.195-.035,2.8-.052,4.231-.087,7.221,0,1.448.151,2.189.481,2.167a4.343,4.343,0,0,0,.96-.231l.66-.246a.982.982,0,0,1,.27.119.423.423,0,0,1,.09.3c0,.239-.269.462-.84.7l-.809.356a15.176,15.176,0,0,0-1.891,1l-.869.525a.478.478,0,0,1-.391-.184.494.494,0,0,1-.21-.33l.03-.239c.09-.852.15-1.354.15-1.554v-.166c-.012-.345-.019-.517-.031-.859Zm-.154-9.278a11.158,11.158,0,0,0-1.86-.184,8.72,8.72,0,0,0-.9.029c-2.521.248-3.421,1.29-3.42,4.375a5.819,5.819,0,0,0,.9,3.449,3.329,3.329,0,0,0,3.092,1.278c1.41-.1,2.67-.814,2.939-1.711a11.64,11.64,0,0,0,.18-1.821c.047-2.1.071-3.127.119-5.148C805.1,417.976,804.761,417.878,804.314,417.775Z" fill="#000000"/><path d="M823.247,420.306a9.07,9.07,0,0,1-1.889,5.643,6.267,6.267,0,0,1-4.77,2.6c-3.481.178-5.671-2.526-5.673-6.568a8.427,8.427,0,0,1,1.679-5.375,6.487,6.487,0,0,1,4.742-2.445C820.967,413.859,823.247,415.924,823.247,420.306Zm-10.171.241a7.356,7.356,0,0,0,1.321,4.419,3.548,3.548,0,0,0,3.151,1.706,3.239,3.239,0,0,0,2.61-1.638,5.96,5.96,0,0,0,.9-3.242c0-4.115-1.832-6.33-4.562-6.1C814.215,415.887,813.075,417.436,813.076,420.547Z" fill="#000000"/><path d="M836.177,426.3a3.921,3.921,0,0,1-.57.1,4.87,4.87,0,0,0-.509.172,32.95,32.95,0,0,0-4.289,1.835l-.45.214-.21-.108-.06-.268c.031-.078.109-.166.15-.276a3.311,3.311,0,0,1,.211-.392,2.658,2.658,0,0,0,.42-.929,33.663,33.663,0,0,0,.239-4.867c0-2.034,0-3.855.03-5.51.024-3.258.036-4.753.06-7.509v-.783a2.642,2.642,0,0,0-.12-.635c-.086-.3-.181-.521-.391-.512a4.678,4.678,0,0,0-1.529.423,5.789,5.789,0,0,1-1.111.389l-.18-.069-.06-.229c0-.231.36-.454,1.05-.71l.27-.112a19.891,19.891,0,0,1,4.082-1.257,20.631,20.631,0,0,1,3.691-.443,10.954,10.954,0,0,1,5.311.951,4.034,4.034,0,0,1,2.309,3.884,7.021,7.021,0,0,1-2.7,5.446,10.018,10.018,0,0,1-6.21,2.358c-.689.038-1.019-.137-1.019-.551a.75.75,0,0,1,.09-.449l.389-.086.72-.043a5.769,5.769,0,0,0,5.792-5.982,4.468,4.468,0,0,0-1.2-3.372,4.946,4.946,0,0,0-3.75-1.217c-1.441.04-2.612.477-2.822,1-.036.445-.054.671-.09,1.132-.03.513-.06,1.464-.09,2.96-.036,4.124-.054,6.429-.09,11.659a9.582,9.582,0,0,0,.21,2.654.93.93,0,0,0,.989.478,3.928,3.928,0,0,0,1.139-.271,4.41,4.41,0,0,1,1.08-.3l.119.106.06.37C837.136,425.879,836.806,426.118,836.177,426.3Z" fill="#000000"/><path d="M847.832,426.292a5.779,5.779,0,0,1-2.79.925,2.563,2.563,0,0,1-2.7-2.757,5.109,5.109,0,0,1,2.161-4.092,15.153,15.153,0,0,1,6.152-2.627v-.373c0-2.371-.837-3.388-2.518-3.312a7.861,7.861,0,0,0-1.711.309c-.384.111-.576.165-.96.287l-.09-.059c-.011-.077-.017-.106-.029-.175a1.844,1.844,0,0,1,1.41-1.8,9.249,9.249,0,0,1,2.522-.35,3.83,3.83,0,0,1,2.849.724c.6.575.869,1.7.807,3.555-.048,1.714-.073,2.594-.122,4.409a6.992,6.992,0,0,0,.358,2.61,2.628,2.628,0,0,0,1.138,1.438l.9.249a.469.469,0,0,1,.54.487c.013.292-.429.617-1.23.906a5.318,5.318,0,0,1-1.531.377c-1.41.027-2.249-.955-2.577-3.135A10.128,10.128,0,0,1,847.832,426.292Zm-.685-6.3a3.794,3.794,0,0,0-2.192,3.242,2.052,2.052,0,0,0,.509,1.421,1.6,1.6,0,0,0,1.289.523,3.482,3.482,0,0,0,2.972-1.938,7.736,7.736,0,0,0,.991-3.955v-.312c-.012-.138-.018-.207-.029-.345A12.127,12.127,0,0,0,847.147,420Z" fill="#000000"/><path d="M862.805,412.853a4.086,4.086,0,0,1,2.221-.967l.12.079.03.266c0,.6,0,.9,0,1.519a.7.7,0,0,1-.691.744l-.84.045a2.913,2.913,0,0,0-2.042.71,2.3,2.3,0,0,0-.451,1,10.088,10.088,0,0,0-.181,1.941c-.074,1.82-.11,2.751-.184,4.674-.031.887-.062,1.863-.122,2.9-.03.115-.342.383-.961.818a3.768,3.768,0,0,1-1.081.634l-.089-.038-.03-.273.03-.388c0-.542.039-1.867.093-3.812.036-1.284.061-2.327.062-3.071,0-.723,0-1.081,0-1.789,0-.875,0-1.306,0-2.159-.089-1.048-.388-1.567-.9-1.552a2.13,2.13,0,0,0-.51.048c-.114.04-.271.14-.481.246l-.6.251-.21-.127-.06-.4c0-.2.271-.348.781-.53.276-.1.414-.146.691-.242.39-.149.659-.238.81-.3,0,0,.45-.205,1.321-.63.432-.2.648-.306,1.079-.506l.3.048.119.159-.029.378c-.013.3-.019.455-.031.763s0,.413,0,.788c.012.24.018.361.03.6A8.251,8.251,0,0,1,862.805,412.853Z" fill="#000000"/><path d="M871.614,426.061a5.639,5.639,0,0,1-2.792.833,2.665,2.665,0,0,1-2.7-2.868,5.073,5.073,0,0,1,2.163-4.108,14.026,14.026,0,0,1,6.154-2.436V417.1c0-2.456-.837-3.548-2.518-3.558a8.046,8.046,0,0,0-1.711.212c-.384.086-.576.126-.96.235l-.09-.068c-.012-.081-.017-.1-.029-.167,0-.819.48-1.352,1.411-1.641a9.421,9.421,0,0,1,2.521-.221,4.065,4.065,0,0,1,2.85.836c.6.584.869,1.724.807,3.643-.049,1.772-.074,2.672-.123,4.514a7.218,7.218,0,0,0,.358,2.651,2.758,2.758,0,0,0,1.14,1.483l.9.283a.488.488,0,0,1,.54.5c.013.289-.428.593-1.23.85a5.291,5.291,0,0,1-1.531.318c-1.411-.022-2.25-1.017-2.579-3.225A9.574,9.574,0,0,1,871.614,426.061Zm-.685-6.416a3.71,3.71,0,0,0-2.193,3.23,2.164,2.164,0,0,0,.509,1.46,1.653,1.653,0,0,0,1.29.574,3.329,3.329,0,0,0,2.973-1.843,7.71,7.71,0,0,0,.992-3.987v-.321l-.029-.356A11.282,11.282,0,0,0,870.929,419.645Z" fill="#000000"/><path d="M888.9,425.023c-1.291,1.381-2.372,2.072-3.243,2.044a4.588,4.588,0,0,1-3.9-1.85,8.72,8.72,0,0,1-1.168-4.957c0-2.771.648-5.139,1.866-6.312a6.34,6.34,0,0,1,4.95-1.627c.961.146,1.441.221,2.4.375.012-1.046.018-1.562.03-2.58a37.677,37.677,0,0,0-.208-3.977l-.029-.3q-.045-.261.72-.341l.3-.036a8.067,8.067,0,0,0,.87-.136c.209-.039.51-.1.9-.208l1.08-.223c.27.088.39.144.39.344,0,.075-.2.186-.57.372a1.6,1.6,0,0,0-.781.713,13.517,13.517,0,0,0-.391,4.083c0,1.335-.031,2.533-.062,4.759-.038,3.111-.057,4.7-.1,7.965,0,1.586.15,2.407.48,2.424a3.9,3.9,0,0,0,.96-.134l.661-.183a1.128,1.128,0,0,1,.269.16.522.522,0,0,1,.09.333c0,.255-.27.459-.84.651l-.81.291a11.935,11.935,0,0,0-1.892.883c-.348.195-.522.293-.87.491a.511.511,0,0,1-.39-.24.618.618,0,0,1-.21-.384l.03-.261c.091-.933.151-1.483.152-1.7v-.185c-.012-.384-.018-.575-.03-.956C889.292,424.6,889.159,424.739,888.9,425.023Zm-.145-10.41a9.245,9.245,0,0,0-1.859-.467c-.3-.043-.6-.085-.9-.1-2.52-.123-3.421.847-3.423,4.389a8.155,8.155,0,0,0,.9,4.1,3.583,3.583,0,0,0,3.09,1.842c1.41.055,2.671-.587,2.941-1.55a13.931,13.931,0,0,0,.182-2c.049-2.336.074-3.479.123-5.732C889.53,414.969,889.2,414.8,888.75,414.613Z" fill="#000000"/><path d="M899.692,426.657c-.036.184-.054.276-.091.461-.029.107-.149.171-.33.233-.684.233-1.026.352-1.71.593a.491.491,0,0,1-.18-.338c-.024-.643-.035-.963-.059-1.6,0-3.48,0-5.163,0-8.473a7.25,7.25,0,0,0-.239-2.41.9.9,0,0,0-.84-.447l-.42.047-.33.054a.542.542,0,0,1-.36-.52c0-.136.3-.249.87-.337l.99-.16c.96-.231,1.44-.345,2.4-.569.33.139.48.29.48.453l-.03.325c0,.382-.031,1.037-.06,2.323-.025.838-.037,1.259-.062,2.106C899.711,421.629,899.705,423.271,899.692,426.657Zm.186-18.859a1.406,1.406,0,0,1-1.621,1.264,1.886,1.886,0,0,1-1.139-.478,1.331,1.331,0,0,1,1.14-2.3A1.645,1.645,0,0,1,899.878,407.8Z" fill="#000000"/><path d="M903.817,428a9.744,9.744,0,0,1-1.56-.5c-.341-.154-.45-.32-.45-1.627v-1.619c.059-.45.24-.679.51-.656a.388.388,0,0,1,.3.129l.12.289v.244a2.625,2.625,0,0,0,2.76,2.8,5.674,5.674,0,0,0,3.03-.613,2.709,2.709,0,0,0,1.74-2.5c0-.937-.51-1.429-1.8-1.571-.6-.066-.9-.1-1.5-.161-2.668-.281-3.958-1.5-3.958-3.838a4.081,4.081,0,0,1,1.41-3.426,4.992,4.992,0,0,1,3.69-.768,10.827,10.827,0,0,1,1.679.39c.889.269,1.35.5,1.35.751a1.91,1.91,0,0,1-.18.849c-.148.289-.27.414-.42.42l-.51-.215a8.329,8.329,0,0,0-2.789-.941c-1.53-.2-2.58.437-2.58,1.776,0,1,.629,1.714,1.86,2.091a8.629,8.629,0,0,0,1.679.333,5.9,5.9,0,0,1,3.539,1.47,3.569,3.569,0,0,1,.929,2.647,4.037,4.037,0,0,1-2.219,3.781,7.9,7.9,0,0,1-4.38.79A12.841,12.841,0,0,1,903.817,428Z" fill="#000000"/><path d="M920.344,427.427a5.289,5.289,0,0,0,2.188-.158,3.6,3.6,0,0,0,1.769-1.155l.36-.428a.76.76,0,0,1,.51-.369.686.686,0,0,1,.269.162l.12.289a2.92,2.92,0,0,1-.6,1.168,17.292,17.292,0,0,1-1.559,1.855,2.317,2.317,0,0,1-1.29.777,9.28,9.28,0,0,1-2.218-.046c-3.748-.381-6.027-3.018-6.027-7.087a7.827,7.827,0,0,1,1.59-5.007,4.277,4.277,0,0,1,4.437-1.46,4.783,4.783,0,0,1,2.638,1.342,3.689,3.689,0,0,1,1.08,2.693c0,1.211-2.428,2-7.256,2.8C916.626,425.407,918.155,427.16,920.344,427.427Zm-.69-6.455a2.137,2.137,0,0,0,1.26-1.978,1.875,1.875,0,0,0-.48-1.265c-.15-.145-.269-.255-.36-.33a2.225,2.225,0,0,0-3.088.669,4.884,4.884,0,0,0-.75,2.736v.384l.03.42A6.745,6.745,0,0,0,919.654,420.972Z" fill="#000000"/></g><path d="M483.552,911.48a1.01,1.01,0,0,0,.57.485,4.7,4.7,0,0,0,1.608.184h16.784l1-.536.8-7.638.636-.235q.135,1.575.151,2.161t.017,1.223a20.829,20.829,0,0,1-.8,6h-22.01c-.514-.2-.771-.458-.771-.771q0-.4.821-1.141a3.972,3.972,0,0,0,.922-1.006q4.621-5.5,6.264-7.38,3.182-3.69,6.5-7.379,3.181-3.555,6.734-7.313.234-.369-.2-.536-1.239-.2-1.675-.269l-15.545.269-.468.235-.537,6.364a2.3,2.3,0,0,0-.452.1.685.685,0,0,1-.519,0,6.1,6.1,0,0,1-.235-1.127,10.2,10.2,0,0,1-.067-1.161q0-.707.151-2.137t.151-2.035a2.772,2.772,0,0,1-.1-.6v-.405l.8-.4h20.671l.469.134a.479.479,0,0,1,.368.468v.5q-3.551,3.346-7.739,7.9-2.078,2.275-7.136,8.029Q486.03,908.805,483.552,911.48Z" fill="#000000"/><path d="M527.975,890.039a23.59,23.59,0,0,0-.286,2.379q-.082,1.206-.084,2.78v4.054a27.922,27.922,0,0,1-.6,6.532,12.722,12.722,0,0,1-1.572,3.685,8.569,8.569,0,0,1-2.877,2.245,11.766,11.766,0,0,1-4.482,1.272,9.692,9.692,0,0,1-1.973.2,11.66,11.66,0,0,1-3.094-.418,12.672,12.672,0,0,1-2.693-1.054,6.612,6.612,0,0,1-2.608-2.644q-.5-.836-.97-1.706l-.168-19.3a4.3,4.3,0,0,0-2.328-.468q-1.891-.067-1.892-.8.77-.115,1.792-.176t2.227-.058h1.407q.57,0,.939-.027,1.473-.107,1.574-.107h.737a5.732,5.732,0,0,1,1.089.084.628.628,0,0,1,.519.351.564.564,0,0,1-.4.419,2.925,2.925,0,0,1-.938.118h-.871a4.346,4.346,0,0,0-1.34.167l-.6.234q0,2.477-.1,5.119-.27,7.026-.269,8,0,1.874.1,3.614t.369,3.78a10.473,10.473,0,0,0,1.608,2.208,6.447,6.447,0,0,0,3.25,1.573,16.7,16.7,0,0,0,3.047.267,17.454,17.454,0,0,0,2.061-.1,7.607,7.607,0,0,0,1.726-.437q3.986-1.443,5.158-4.569.671-3.8,1.006-5.61l-.168-11.927a1.853,1.853,0,0,0-1.156-.621,10.849,10.849,0,0,0-1.994-.151h-1.272c-.2-.022-.3-.094-.3-.219a2.157,2.157,0,0,1,.033-.374,27.481,27.481,0,0,1,2.864-.25q1.592-.062,3.468-.062h4.59a.376.376,0,0,1,.3.368.454.454,0,0,1-.134.335,2.113,2.113,0,0,1-.686.168q-.385.035-.956.034h-1.239a8.8,8.8,0,0,0-1.356.084.579.579,0,0,0-.52.653Z" fill="#000000"/><path d="M556.549,888.2q0,4.1.034,8.273t.083,8.338q.051,4.161.051,8.255a.7.7,0,0,1-.436.117c-.223.011-.391.017-.5.017q-2.814-3.926-6.029-8.088t-6.365-8.254q-3.72-4.832-6.164-8.222h-.269q0,3.458-.05,7.113t-.084,7.381q-.033,3.723-.033,7.515a1.481,1.481,0,0,0,.637.268,5.111,5.111,0,0,0,.9.068q.3,0,.972-.034c.446-.022.77-.034.972-.034a4.666,4.666,0,0,1,.836.068,1.106,1.106,0,0,1,.6.3v.335q-1.809.235-4.322.319t-5.226.083a.568.568,0,0,1-.435-.536.409.409,0,0,1,.267-.369,13.461,13.461,0,0,0,2.094-.133,1.669,1.669,0,0,0,1.156-.6q.166-1.539.235-3.266t.067-3.4q0-2.613-.117-5.243t-.235-5.729q-.118-3.1-.118-4.874a1.172,1.172,0,0,0-.7-.425,5.383,5.383,0,0,0-1.206-.111c-.38,0-.766.008-1.155.023s-.766.03-1.123.045a2.572,2.572,0,0,1-1.072-.165.541.541,0,0,1-.268-.631,15.329,15.329,0,0,1,1.943-.208q.9-.035,2.412-.035h3.216a8.577,8.577,0,0,1,2.513,2.617l1.139,1.744q2.076,2.482,4.756,6.307,2.212,3.253,4.456,6.474,2.714,3.893,4.858,6.476h.5l.268-1.34q0-4.725-.05-7.5t-.218-5.9q-.168-3.115-.57-6.532a1.481,1.481,0,0,0-1.105-.5q-.771-.066-1.541-.066h-.4a5.8,5.8,0,0,1-1.19-.084.419.419,0,0,1-.351-.452v-.269q2.526,0,5.09-.033l5.092-.067a.292.292,0,0,1,.168.259.275.275,0,0,1-.167.227,14.613,14.613,0,0,1-1.808.179A7.906,7.906,0,0,0,556.549,888.2Z" fill="#000000"/><path d="M558.794,892.091c-.224-.156-.335-.3-.335-.438s.356-.481,1.071-1.041q.537-.4.536-.74a.606.606,0,0,0-.1-.3,13.3,13.3,0,0,0-1.441-.638,1.848,1.848,0,0,1-1.038-.773q0-1.01,1.541-1.411a11.11,11.11,0,0,1,2.362.2,1.448,1.448,0,0,1,1.123.774,2.731,2.731,0,0,1,.234,1.007,2.479,2.479,0,0,1-1.173,1.882A12.447,12.447,0,0,1,558.794,892.091Z" fill="#000000"/><path d="M572.7,912.82a10.443,10.443,0,0,1-2.948.368,14.129,14.129,0,0,1-5.327-.972.674.674,0,0,0-.7.486.656.656,0,0,1-.67.486,2.03,2.03,0,0,1-.4-.034,3.938,3.938,0,0,1-.3-1.206,14.392,14.392,0,0,1-.068-1.44V909.1c0-.269-.011-.564-.033-.888a5.1,5.1,0,0,0-.134-.888,2.538,2.538,0,0,1,.536-.335l.871.2a8.572,8.572,0,0,0,.737,2.832,4.545,4.545,0,0,0,3.183,2.024,5.588,5.588,0,0,0,1.021.135q.62.033.721.033a13.079,13.079,0,0,0,1.541-.084,12.265,12.265,0,0,0,1.507-.284,10.14,10.14,0,0,0,1.943-1.106,1.859,1.859,0,0,0,.871-1.44,1.34,1.34,0,0,0-.134-.6q-1.038-1-4.59-1.222a13.526,13.526,0,0,1-4.69-.821,7.032,7.032,0,0,1-2.746-1.91,3.774,3.774,0,0,1-.939-2.445,4.24,4.24,0,0,1,1.373-2.982,7.359,7.359,0,0,1,3.753-1.942,12.592,12.592,0,0,1,1.256-.2,12.921,12.921,0,0,1,1.391-.068,12.2,12.2,0,0,1,3.064.377,6.6,6.6,0,0,1,2.4,1.1c.268-.066.452-.307.553-.72s.462-.586,1.088-.519a8.475,8.475,0,0,1,.2,1.843q0,.938-.068,1.708-.234,2.748-.234,2.948a.856.856,0,0,1-.67.2h-.5q-.4-1.566-.771-3.131a4.321,4.321,0,0,0-3.014-2.5,6.288,6.288,0,0,0-1.742-.232,8.732,8.732,0,0,0-1.86.216,14.668,14.668,0,0,0-1.892.552,4.493,4.493,0,0,0-1.743,1.572,3.852,3.852,0,0,0-.535,2,3.814,3.814,0,0,0,.067.8,6.66,6.66,0,0,0,.268.835q.6,1.5,3.853,2.006,2.846.336,5.728.669,2.914.569,2.914,2.306a4.043,4.043,0,0,1-1.222,2.189A6.72,6.72,0,0,1,572.7,912.82Z" fill="#000000"/><path d="M614.169,889.436l-.939,22.143c-.044.178.04.335.252.474a3.123,3.123,0,0,0,.854.36,4.155,4.155,0,0,0,.67.037h1.575a6.163,6.163,0,0,1,.938.06.612.612,0,0,1,.5.443l-.5.235h-9.547l-.236-.2c-.111-.1-.089-.173.068-.232q.367-.067,1.926-.186t1.959-.655q.336-3.265.453-6.967t.117-8.177v-5.184c.179-.021.268-.078.268-.168,0-.045-.073-.129-.217-.252s-.218-.23-.218-.32a54.721,54.721,0,0,0-3.015,5.226q-.67,1.307-2.613,5.427-1.508,3.216-2.68,5.394l-1.608,3.014q-.973,1.809-1.742,2.982a22.247,22.247,0,0,1-2.446-3.685q-1.072-1.943-2.11-3.886-1.073-1.775-2.78-5.025-2.112-4.02-2.714-5.092a54.5,54.5,0,0,0-3.082-4.925l-.5.771v19.329q.335.8,2.58.871a12.536,12.536,0,0,1,2.813.269l-.435.4H581.372v-.6l2.211-.134q1.208-.168,1.508-.8,0-2.513.1-4.958t.235-5.275q.133-2.832.134-4.406,0-2.379-.1-4.07a36.338,36.338,0,0,0-.469-3.869,3.062,3.062,0,0,0-1.105-.335,9.495,9.495,0,0,0-1.34-.1H580.2v-.77a1.915,1.915,0,0,0,.368.033H581q.435,0,1.926-.1t2.228-.1a6.584,6.584,0,0,1,1.708.184,1.846,1.846,0,0,1,1.038.686q1.876,3.813,3.853,7.627,1.575,3.045,4.02,7.594,2.044,3.814,4.155,7.56a2.857,2.857,0,0,0,.435.235.318.318,0,0,0,.335-.068q1.171-2.01,2.612-4.824.537-1.071,2.413-4.891,1.608-3.317,2.445-4.89,2.043-4.088,4.087-8.208H620.6a.286.286,0,0,1,.2.3,1.9,1.9,0,0,0-.033.3q-.6.1-3.686.134T614.169,889.436Z" fill="#000000"/><path d="M638.59,912.92l-5.762.268a2.844,2.844,0,0,1-.4-1.19,2.577,2.577,0,0,0-.4-1.155,16.765,16.765,0,0,1-3.047,1.507,11.429,11.429,0,0,1-3.954.737,6.9,6.9,0,0,1-4.992-1.742,5.919,5.919,0,0,1-1.591-2.5,10.781,10.781,0,0,1-.418-3.166q0-.771.1-2.279t.1-2.277q0-.671-.034-1.206a6.014,6.014,0,0,0-.167-1.072,1.738,1.738,0,0,0-.837-.487,4.523,4.523,0,0,0-1.206-.15c-.291,0-.811.016-1.558.051s-1.146.049-1.19.049h-.8v-.669q2.277-.236,3.384-.335,2.142-.2,3.45-.2c.513.157.77.335.77.537q0,1.071-.066,2.378-.168,3.249-.168,4.087a20.012,20.012,0,0,0,.252,3.35,10.5,10.5,0,0,0,.988,2.948,3.329,3.329,0,0,0,1.088.9,6.651,6.651,0,0,0,1.726.636c.268.023.5.039.7.05s.356.017.468.017a9.561,9.561,0,0,0,2.228-.251,14.708,14.708,0,0,0,2.127-.687,6.713,6.713,0,0,0,2.58-2.747,7.356,7.356,0,0,0,.636-3.183,17.453,17.453,0,0,0-.2-2.529q-.2-1.356-.37-2.663a3.489,3.489,0,0,0-1.021-.419,5.268,5.268,0,0,0-1.155-.117q-.436,0-1.408.1t-1.507.1c-.4,0-.7-.009-.888-.025a5.61,5.61,0,0,1-.855-.176q-.2-.256.135-.477.134-.072.67-.294.837,0,2.579-.1t2.579-.1c.738,0,1.262.017,1.576.051a8.907,8.907,0,0,1,1.239.251v13.065a3.914,3.914,0,0,0,1.155.268q.687.067,1.424.067.771,0,1.592.017a7.517,7.517,0,0,1,1.424.15c.088.134.066.235-.068.3A6.612,6.612,0,0,0,638.59,912.92Z" fill="#000000"/><path d="M645.859,912.82a10.443,10.443,0,0,1-2.948.368,14.129,14.129,0,0,1-5.327-.972.675.675,0,0,0-.7.486.656.656,0,0,1-.67.486,2.03,2.03,0,0,1-.4-.034,3.938,3.938,0,0,1-.3-1.206,14.392,14.392,0,0,1-.068-1.44V909.1c0-.269-.011-.564-.033-.888a5.1,5.1,0,0,0-.134-.888,2.538,2.538,0,0,1,.536-.335l.871.2a8.6,8.6,0,0,0,.737,2.832,4.545,4.545,0,0,0,3.183,2.024,5.588,5.588,0,0,0,1.021.135q.62.033.721.033a13.079,13.079,0,0,0,1.541-.084,12.2,12.2,0,0,0,1.507-.284,10.14,10.14,0,0,0,1.943-1.106,1.859,1.859,0,0,0,.871-1.44,1.34,1.34,0,0,0-.134-.6q-1.038-1-4.59-1.222a13.526,13.526,0,0,1-4.69-.821,7.032,7.032,0,0,1-2.746-1.91,3.774,3.774,0,0,1-.939-2.445,4.238,4.238,0,0,1,1.374-2.982,7.359,7.359,0,0,1,3.752-1.942,12.592,12.592,0,0,1,1.256-.2,12.921,12.921,0,0,1,1.391-.068,12.2,12.2,0,0,1,3.064.377,6.6,6.6,0,0,1,2.4,1.1c.268-.066.452-.307.553-.72s.463-.586,1.088-.519a8.475,8.475,0,0,1,.2,1.843q0,.938-.068,1.708-.234,2.748-.234,2.948a.856.856,0,0,1-.67.2h-.5q-.4-1.566-.77-3.131a4.325,4.325,0,0,0-3.015-2.5,6.288,6.288,0,0,0-1.742-.232,8.739,8.739,0,0,0-1.86.216,14.668,14.668,0,0,0-1.892.552,4.482,4.482,0,0,0-1.742,1.572,4.212,4.212,0,0,0-.469,2.807,6.66,6.66,0,0,0,.268.835q.6,1.5,3.853,2.006,2.846.336,5.728.669,2.914.569,2.914,2.306a4.043,4.043,0,0,1-1.222,2.189A6.72,6.72,0,0,1,645.859,912.82Z" fill="#000000"/><path d="M648.708,913.422a.748.748,0,0,1-.27-.5q0-.435,1.977-.62t2.278-.754V900.022a2.186,2.186,0,0,0-.887-.453,5.233,5.233,0,0,0-1.19-.117q-.6,0-1.608.084c-.67.056-1.038.084-1.106.084a3.29,3.29,0,0,1-.887-.1,1.121,1.121,0,0,1-.586-.4,8.507,8.507,0,0,1,2.714-.569q2.845-.268,3.082-.3a12.246,12.246,0,0,1,1.59.084,1.538,1.538,0,0,1,.888.352l-.2,13.365a1.51,1.51,0,0,0,.821.369,6.551,6.551,0,0,0,1.189.1h1.306a4.075,4.075,0,0,1,1.089.113.463.463,0,0,1,.386.468v.323Zm5.627-17.387a2.127,2.127,0,0,1-1.173-.3.872.872,0,0,1-.469-.737.927.927,0,0,1,.167-.469,1.307,1.307,0,0,1,1.106-.4,2.23,2.23,0,0,1,.938.185.641.641,0,0,1,.436.485.877.877,0,0,1-.084.77A1.351,1.351,0,0,1,654.335,896.035Z" fill="#000000"/><path d="M669.945,912.618a14.5,14.5,0,0,1-4.22.57,16.111,16.111,0,0,1-2.413-.168,8.869,8.869,0,0,1-2.077-.57,9.143,9.143,0,0,1-3.45-3.1,7.239,7.239,0,0,1-1.105-3.87,7.686,7.686,0,0,1,.434-2.529,9.58,9.58,0,0,1,1.24-2.395,10.781,10.781,0,0,1,7.973-3.451,11.516,11.516,0,0,1,4.523.838,7.2,7.2,0,0,1,2.814,2.043,1.126,1.126,0,0,1,.368.8,1.677,1.677,0,0,1-.168.7,7.836,7.836,0,0,1-.368.7.822.822,0,0,1-.368.269q-.2.068-1.374.267a1.683,1.683,0,0,1-1-.267q-.4-.4-.586-.62a.635.635,0,0,1-.184-.385c0-.2.345-.514,1.039-.939.356-.222.535-.413.535-.569q0-.2-.335-.5a6.852,6.852,0,0,0-4.489-1.306,11.589,11.589,0,0,0-1.474.1,7.794,7.794,0,0,0-4.422,1.977,10.14,10.14,0,0,0-2.043,3.048c-.067.358-.135.771-.2,1.24a8.759,8.759,0,0,0-.1,1.24,6.906,6.906,0,0,0,.5,2.68,6.02,6.02,0,0,0,1.81,2.278q1.106.5,2.4,1.005a6.858,6.858,0,0,0,2.5.5,5.039,5.039,0,0,0,1-.1,9.767,9.767,0,0,0,4.691-1.206,25.326,25.326,0,0,0,3.283-2.311H675q.166,1.34-2.312,2.714Q671.788,911.813,669.945,912.618Z" fill="#000000"/><path d="M693.73,913.188a15.88,15.88,0,0,1-5.594-.9,14.632,14.632,0,0,1-3.785-2.178,13.308,13.308,0,0,1-3.049-4.388,12.8,12.8,0,0,1-.972-4.958,15.763,15.763,0,0,1,.9-5.209,20.726,20.726,0,0,1,2.614-5.042l1.34-1.34A5.7,5.7,0,0,1,686.9,888a8.339,8.339,0,0,1,2.748-1.139,14.45,14.45,0,0,1,3.516-.435,13.121,13.121,0,0,1,2.362.2,7.219,7.219,0,0,1,1.994.663,4.932,4.932,0,0,1,1.273.93q1.674,1.626,1.775,1.692a1.94,1.94,0,0,0,.369-.971,2.414,2.414,0,0,1,.4-1.073l.736-.1a4.063,4.063,0,0,1,.369,1.775,12.936,12.936,0,0,1-.268,2.145,12.979,12.979,0,0,0-.268,2.177,10.3,10.3,0,0,0,.117,1.324,10.778,10.778,0,0,1,.118,1.088,3.116,3.116,0,0,1-.118.938,2.553,2.553,0,0,1-.519.838l-.6-.234a24.147,24.147,0,0,1-.72-3.561,9.563,9.563,0,0,0-1.457-4.195,7.755,7.755,0,0,0-4.657-2.63,4.967,4.967,0,0,0-.6-.033h-.5a10.868,10.868,0,0,0-3.618.586,7.3,7.3,0,0,0-2.714,1.587,15.03,15.03,0,0,0-3.567,5,14.2,14.2,0,0,0-1.19,5.671,14.886,14.886,0,0,0,.637,4.366,17.268,17.268,0,0,0,1.942,4.166,22.771,22.771,0,0,0,3.15,2.475,9.4,9.4,0,0,0,4.79,1.238,8.73,8.73,0,0,0,5.662-1.784,15.777,15.777,0,0,0,2.847-3.5l.771-2.154a1.25,1.25,0,0,1,.569.118.49.49,0,0,1,.235.487,2.424,2.424,0,0,1-.118.538,2.422,2.422,0,0,0-.117.573,12.82,12.82,0,0,1-2.646,4.137A8.058,8.058,0,0,1,693.73,913.188Z" fill="#000000"/><path d="M713.562,912.12a15.052,15.052,0,0,1-2.613.784,13.819,13.819,0,0,1-2.814.284,8.942,8.942,0,0,1-1.943-.2,8.613,8.613,0,0,1-5.36-3.236,8.042,8.042,0,0,1-1.272-4.637,6.874,6.874,0,0,1,1.373-4.171,9.709,9.709,0,0,1,4.455-3.169,11.086,11.086,0,0,1,4.087-.667h.9a14.2,14.2,0,0,1,1.541.167,7.478,7.478,0,0,1,2.345.768,18.048,18.048,0,0,1,1.976,1.267,7.614,7.614,0,0,1,2.312,5.338Q718.554,908.984,713.562,912.12ZM708.4,898.112a7.8,7.8,0,0,0-4.489,1.8,9.574,9.574,0,0,0-2.311,3.067q-.135,1.1-.151,1.584c-.012.323-.016.584-.016.784a7.007,7.007,0,0,0,.97,3.868,7.522,7.522,0,0,0,4.222,2.9,10.917,10.917,0,0,0,2.143.2,7.241,7.241,0,0,0,2.848-.5,8.686,8.686,0,0,0,3.819-3.034,6.745,6.745,0,0,0,1.172-3.867,8.7,8.7,0,0,0-1.44-4.735,5.969,5.969,0,0,0-2.345-1.551,9.38,9.38,0,0,0-3.35-.55C709.006,898.079,708.648,898.091,708.4,898.112Z" fill="#000000"/><path d="M724.383,913.188q-1.173-.1-2.312-.1-1.106,0-2.211.033l-2.211.068a19.626,19.626,0,0,1-2.881-.209.341.341,0,0,1-.167-.312.744.744,0,0,0-.034-.277,2.466,2.466,0,0,1,.7-.139q.435-.034.837-.035h.771a6.054,6.054,0,0,0,1.122-.083,1.583,1.583,0,0,0,.754-.385,13.356,13.356,0,0,0,.9-4.31q.168-2.571.268-3.541l-.167-16a1.109,1.109,0,0,0-.6-.3,5.594,5.594,0,0,0-.971-.068c-.247,0-.636.023-1.172.068s-.916.066-1.14.066q-1.305,0-1.105-.77,2.444-.234,4.924-.469a4.845,4.845,0,0,1,2.111.368q0,3.545-.167,8.076t-.319,9q-.15,4.465-.151,7.743a5.679,5.679,0,0,0,2.245.484q1.742.15,1.943.753Z" fill="#000000"/><path d="M730.01,913.188q-1.173-.1-2.312-.1-1.106,0-2.211.033l-2.211.068a19.626,19.626,0,0,1-2.881-.209.341.341,0,0,1-.167-.312.744.744,0,0,0-.034-.277,2.466,2.466,0,0,1,.7-.139q.436-.034.838-.035h.771a6.054,6.054,0,0,0,1.122-.083,1.583,1.583,0,0,0,.754-.385,13.356,13.356,0,0,0,.9-4.31q.167-2.571.268-3.541l-.167-16a1.112,1.112,0,0,0-.6-.3,5.594,5.594,0,0,0-.971-.068c-.247,0-.636.023-1.172.068s-.916.066-1.14.066q-1.305,0-1.105-.77,2.444-.234,4.924-.469a4.848,4.848,0,0,1,2.111.368q0,3.545-.167,8.076t-.319,9q-.15,4.465-.151,7.743a5.679,5.679,0,0,0,2.245.484q1.741.15,1.942.753Z" fill="#000000"/><path d="M740.8,912.518a8.907,8.907,0,0,1-1.876.5,13.632,13.632,0,0,1-2.178.168,11.8,11.8,0,0,1-2.178-.2,9.822,9.822,0,0,1-4.958-2.881,6.187,6.187,0,0,1-1.574-4.187,6.275,6.275,0,0,1,.1-1.106,8.584,8.584,0,0,1,1.541-3.986,10.439,10.439,0,0,1,4.522-3.182,9.287,9.287,0,0,1,3.317-.537,11.974,11.974,0,0,1,2.864.335,6.329,6.329,0,0,1,2.227.972,7.005,7.005,0,0,1,1.927,1.96,4.233,4.233,0,0,1,.753,2.328,4.37,4.37,0,0,1-.1.9l-1.006.57H730.713a4.516,4.516,0,0,0-.8,2.546,4.945,4.945,0,0,0,2.68,4.288,6.7,6.7,0,0,0,2.128.8,12.216,12.216,0,0,0,2.562.268,14.976,14.976,0,0,0,1.742-.1,7.541,7.541,0,0,0,4.121-2.344,16.752,16.752,0,0,0,2.044-3.317.567.567,0,0,1,.752.352,3.789,3.789,0,0,0,.218.519,5.758,5.758,0,0,1-1.876,2.948A15.45,15.45,0,0,1,740.8,912.518Zm1-12.8a6.064,6.064,0,0,0-1.977-1.122,7.6,7.6,0,0,0-2.579-.419h-.871c-.269.067-.458.113-.57.135q-4.555,1.63-4.824,4.722h6.4q2.211,0,3.115-.051t2.714-.217a4.1,4.1,0,0,0-.318-1.641A4.029,4.029,0,0,0,741.8,899.721Z" fill="#000000"/><path d="M757.948,912.618a14.5,14.5,0,0,1-4.22.57,16.1,16.1,0,0,1-2.413-.168,8.869,8.869,0,0,1-2.077-.57,9.143,9.143,0,0,1-3.45-3.1,7.239,7.239,0,0,1-1.105-3.87,7.686,7.686,0,0,1,.434-2.529,9.58,9.58,0,0,1,1.24-2.395,10.781,10.781,0,0,1,7.973-3.451,11.516,11.516,0,0,1,4.523.838,7.2,7.2,0,0,1,2.814,2.043,1.126,1.126,0,0,1,.368.8,1.693,1.693,0,0,1-.168.7,7.836,7.836,0,0,1-.368.7.822.822,0,0,1-.368.269q-.2.068-1.374.267a1.683,1.683,0,0,1-1-.267q-.4-.4-.586-.62a.638.638,0,0,1-.185-.385q0-.3,1.04-.939c.356-.222.535-.413.535-.569q0-.2-.335-.5a6.852,6.852,0,0,0-4.489-1.306,11.577,11.577,0,0,0-1.474.1,7.794,7.794,0,0,0-4.422,1.977,10.122,10.122,0,0,0-2.043,3.048c-.067.358-.135.771-.2,1.24a8.759,8.759,0,0,0-.1,1.24,6.906,6.906,0,0,0,.5,2.68,6.02,6.02,0,0,0,1.81,2.278q1.106.5,2.395,1.005a6.858,6.858,0,0,0,2.5.5,5.039,5.039,0,0,0,1-.1,9.767,9.767,0,0,0,4.691-1.206,25.326,25.326,0,0,0,3.283-2.311h.335q.167,1.34-2.312,2.714Q759.791,911.813,757.948,912.618Z" fill="#000000"/><path d="M772.955,913.054a11.329,11.329,0,0,1-1.842.134,12.353,12.353,0,0,1-2.278-.2,8.633,8.633,0,0,1-1.909-.569,4.575,4.575,0,0,1-2.78-3.853q-.135-1.307-.236-2.613,0-1.037.5-5.058a26.555,26.555,0,0,0,.234-3.216q0-1.106-.049-1.558t-.218-1.256a1.662,1.662,0,0,0-.821-.3,9.631,9.631,0,0,0-1.223-.068q-.4,0-.8.018c-.268.01-.536.016-.8.016a3.729,3.729,0,0,1-1.442-.175.744.744,0,0,1-.4-.562,15.729,15.729,0,0,1,2.311-.5q2.679-.468,3.4-1.323a4.756,4.756,0,0,0,.853-2.73,4.5,4.5,0,0,1,1.006-2.814H767.5a3.473,3.473,0,0,1,.1.842,9.81,9.81,0,0,1-.068,1.212q-.234,1.92-.234,2.122a5.457,5.457,0,0,0,.084,1.094,4.128,4.128,0,0,0,.351.926,14.726,14.726,0,0,0,2.68.236q.972,0,1.927-.034l1.926-.066q1.072,0,1.541.05a12.162,12.162,0,0,1,1.34.251q0,.276-.4.507a1.85,1.85,0,0,1-.938.23h-.5q-.57.1-3.937.185t-4.338.887l-.8,14.238a4.549,4.549,0,0,0,1.072,1.641,5.646,5.646,0,0,0,3.518,1.239,6.34,6.34,0,0,0,1.792-.251,7.777,7.777,0,0,0,1.625-.686,4.635,4.635,0,0,0,1.507-1.441q1.742-2.613,1.776-2.647a1.862,1.862,0,0,1,.887.151.5.5,0,0,1,.251.453,1.879,1.879,0,0,1-.117.485,1.883,1.883,0,0,0-.117.486,6.488,6.488,0,0,1-1.876,2.613A9.089,9.089,0,0,1,772.955,913.054Z" fill="#000000"/><path d="M776.106,913.422a.751.751,0,0,1-.269-.5q0-.435,1.976-.62t2.279-.754V900.022a2.2,2.2,0,0,0-.888-.453,5.223,5.223,0,0,0-1.189-.117q-.6,0-1.609.084t-1.1.084a3.293,3.293,0,0,1-.888-.1,1.125,1.125,0,0,1-.586-.4,8.513,8.513,0,0,1,2.714-.569q2.845-.268,3.082-.3a12.252,12.252,0,0,1,1.591.084,1.541,1.541,0,0,1,.888.352l-.2,13.365a1.514,1.514,0,0,0,.822.369,6.54,6.54,0,0,0,1.188.1h1.307a4.075,4.075,0,0,1,1.089.113.463.463,0,0,1,.385.468v.323Zm5.627-17.387a2.124,2.124,0,0,1-1.172-.3.87.87,0,0,1-.469-.737.918.918,0,0,1,.167-.469,1.3,1.3,0,0,1,1.105-.4,2.235,2.235,0,0,1,.939.185.64.64,0,0,1,.435.485.873.873,0,0,1-.084.77A1.348,1.348,0,0,1,781.733,896.035Z" fill="#000000"/><path d="M797.612,912.12A15.052,15.052,0,0,1,795,912.9a13.819,13.819,0,0,1-2.814.284,8.942,8.942,0,0,1-1.943-.2,8.613,8.613,0,0,1-5.36-3.236,8.043,8.043,0,0,1-1.273-4.637,6.874,6.874,0,0,1,1.373-4.171,9.712,9.712,0,0,1,4.456-3.169,11.085,11.085,0,0,1,4.086-.667h.906a14.228,14.228,0,0,1,1.541.167,7.464,7.464,0,0,1,2.344.768,17.936,17.936,0,0,1,1.977,1.267,7.614,7.614,0,0,1,2.312,5.338Q802.6,908.984,797.612,912.12Zm-5.159-14.008a7.8,7.8,0,0,0-4.489,1.8,9.576,9.576,0,0,0-2.312,3.067c-.09.734-.139,1.262-.15,1.584s-.017.584-.017.784a7.007,7.007,0,0,0,.971,3.868,7.519,7.519,0,0,0,4.222,2.9,10.917,10.917,0,0,0,2.143.2,7.241,7.241,0,0,0,2.848-.5,8.686,8.686,0,0,0,3.819-3.034,6.745,6.745,0,0,0,1.172-3.867,8.7,8.7,0,0,0-1.44-4.735,5.969,5.969,0,0,0-2.345-1.551,9.382,9.382,0,0,0-3.351-.55C793.056,898.079,792.7,898.091,792.453,898.112Z" fill="#000000"/><path d="M819.654,913.087a3.878,3.878,0,0,0-.536-.033h-.469q-.5,0-1.758.066t-1.29.068a8.441,8.441,0,0,1-1.056-.061,3.041,3.041,0,0,1-.888-.241q.2-.469,1.793-.6t1.86-.706a15.614,15.614,0,0,0,.485-2.7q.152-1.529.15-3.105v-4.063q-.506-.906-1.009-1.848a3.607,3.607,0,0,0-2.425-1.342,5.266,5.266,0,0,0-1.044-.1q-.54,0-1.667.117t-1.5.117a7.858,7.858,0,0,0-4.513,4.121,14.242,14.242,0,0,0-.808,5.427v2.479a1.386,1.386,0,0,0,.625.2,6.34,6.34,0,0,0,.929.067h1.115q1.317,0,1.318.452a.793.793,0,0,1-.134.385l-9.182.2q-.433-.066-.433-.636a6.523,6.523,0,0,1,1.927-.335q1.557-.133,1.892-.67,0-1.373.436-7.069.2-2.613.2-4.321a3.04,3.04,0,0,0-1.056-.419,7.186,7.186,0,0,0-1.39-.117c-.357,0-.905.023-1.641.067s-1.285.067-1.642.067c-.268-.022-.468-.033-.6-.033h-.368c-.134,0-.2-.056-.2-.168a2.17,2.17,0,0,1,.034-.368,29.194,29.194,0,0,1,3.819-.5q2.244-.168,4.221-.167a.955.955,0,0,1,.643.351,1.19,1.19,0,0,1,.161.653v.6a.837.837,0,0,0,.436.8,8.078,8.078,0,0,1,2.864-1.876,10.168,10.168,0,0,1,3.9-.738,13.106,13.106,0,0,1,2.8.269,2.246,2.246,0,0,1,1.592.937,4.051,4.051,0,0,1,2.144,2.413,11.45,11.45,0,0,1,.268,2.981q0,1.14-.117,3.065t-.117,2.462a15.188,15.188,0,0,0,.234,2.747,1.313,1.313,0,0,0,.536.185,6.8,6.8,0,0,0,.938.05h1.541c.781,0,1.173.138,1.173.416a1.046,1.046,0,0,1-.2.521,6.1,6.1,0,0,1-.738.035,6.605,6.605,0,0,1-1.172-.151,6.673,6.673,0,0,0-1.105-.151A2.446,2.446,0,0,0,819.654,913.087Z" fill="#000000"/><path d="M844.109,899.922a63.6,63.6,0,0,1-3.283,6.565q-1.842,3.285-3.685,6.533a1.3,1.3,0,0,0-.418.088,1.389,1.389,0,0,1-.319.088.6.6,0,0,1-.3-.1,5.5,5.5,0,0,1-1.139-1.911q-.168-.435-.6-2.112a54.968,54.968,0,0,0-2.26-5.33,49.486,49.486,0,0,0-2.965-5.228,1.269,1.269,0,0,0-.838-.487,6.532,6.532,0,0,0-1.474-.15h-1.608q-1.206,0-1.206-.389a1.025,1.025,0,0,1,.3-.549l10.049.167a2.51,2.51,0,0,1,.352.352q.117.152-.15.218-.2.369-1.223.369a6.276,6.276,0,0,0-1.391.1v1.608q2.413,5.231,4.824,10.461l.771-.4q1.709-3.016,2.78-5.2a35.732,35.732,0,0,0,2.211-5.33,2.214,2.214,0,0,0-1.34-.6,13.768,13.768,0,0,0-2.311-.167v-.738h4.522q1.876,0,3.049.044t2.479.158v.636a16.96,16.96,0,0,1-2.663.2Q844.108,898.883,844.109,899.922Z" fill="#000000"/><path d="M859.251,912.12a15.052,15.052,0,0,1-2.613.784,13.828,13.828,0,0,1-2.815.284,8.932,8.932,0,0,1-1.942-.2,8.613,8.613,0,0,1-5.36-3.236,8.043,8.043,0,0,1-1.273-4.637,6.874,6.874,0,0,1,1.373-4.171,9.709,9.709,0,0,1,4.455-3.169,11.09,11.09,0,0,1,4.087-.667h.9a14.2,14.2,0,0,1,1.541.167,7.461,7.461,0,0,1,2.345.768,18.033,18.033,0,0,1,1.977,1.267,7.612,7.612,0,0,1,2.311,5.338Q864.242,908.984,859.251,912.12Zm-5.159-14.008a7.8,7.8,0,0,0-4.489,1.8,9.561,9.561,0,0,0-2.312,3.067q-.135,1.1-.15,1.584c-.012.323-.017.584-.017.784a7,7,0,0,0,.971,3.868,7.52,7.52,0,0,0,4.221,2.9,10.92,10.92,0,0,0,2.144.2,7.248,7.248,0,0,0,2.848-.5,8.691,8.691,0,0,0,3.819-3.034,6.752,6.752,0,0,0,1.172-3.867,8.7,8.7,0,0,0-1.441-4.735,5.958,5.958,0,0,0-2.344-1.551,9.382,9.382,0,0,0-3.351-.55C854.694,898.079,854.337,898.091,854.092,898.112Z" fill="#000000"/><path d="M869.4,913.188q-1.173-.1-2.311-.1-1.106,0-2.211.033l-2.211.068a19.65,19.65,0,0,1-2.882-.209.343.343,0,0,1-.167-.312.773.773,0,0,0-.033-.277,2.466,2.466,0,0,1,.7-.139q.435-.034.838-.035h.77a6.073,6.073,0,0,0,1.123-.083,1.575,1.575,0,0,0,.753-.385,13.354,13.354,0,0,0,.9-4.31q.166-2.571.267-3.541l-.167-16a1.106,1.106,0,0,0-.6-.3,5.606,5.606,0,0,0-.972-.068q-.369,0-1.172.068c-.536.045-.916.066-1.139.066q-1.307,0-1.106-.77,2.445-.234,4.925-.469a4.841,4.841,0,0,1,2.11.368q0,3.545-.167,8.076t-.318,9q-.151,4.465-.151,7.743a5.679,5.679,0,0,0,2.245.484q1.742.15,1.942.753Z" fill="#000000"/><path d="M870.707,913.054a3.023,3.023,0,0,1-2.646-1,1.239,1.239,0,0,1,.62-1.056,2.915,2.915,0,0,1,1.239-.5,7.787,7.787,0,0,1,.888-.084,2.37,2.37,0,0,1,1.674.6,1.654,1.654,0,0,1-1.775,2.044Z" fill="#000000"/><path d="M883.2,888.131q-.57,6.71-.9,12.5t-.335,11.221l.569.369,5.159.2v.771H875.028a.206.206,0,0,1-.167-.084.537.537,0,0,1-.1-.218,15.651,15.651,0,0,1,2.847-.368q2.445-.2,2.881-1.173,0-2.88.167-5.8t.369-6.148q.2-3.233.2-5.477,0-2.279-.05-3.2t-.218-2.664a5.494,5.494,0,0,0-2.813-.686q-1.944-.084-3.585-.185a.367.367,0,0,1,.15-.561,2.189,2.189,0,0,1,1.089-.209l12.663.168a.713.713,0,0,1,.2.4.5.5,0,0,1-.2.337h-2.345a7.717,7.717,0,0,0-2.11.186A1.46,1.46,0,0,0,883.2,888.131Z" fill="#000000"/></g></svg>
