<svg xmlns="http://www.w3.org/2000/svg" width="1000" height="988" viewBox="0 0 1000 988"><g id="Artboard"><rect id="Page" width="1000" height="988" fill="#fff"/></g><g id="Back_Text" data-name="Back Text"><path d="M741.265,172.365h11.8q3.538,0,3.539,3.244v48.367a70.324,70.324,0,0,1-2.507,18.285q11.944,17.989,26.395,17.99l43.944.3q6.488,0,6.93,2.065,0,2.063-6.341,2.359l-44.238.59a26.6,26.6,0,0,1-17.695-6.636,40.693,40.693,0,0,1-10.617-11.944,47.372,47.372,0,0,1-14.746,20.055.782.782,0,0,1-.885-.885c0-.59.391-.984,1.18-1.18a65.9,65.9,0,0,0,8.7-17.253q3.981-9.584,3.981-23.151v-46.3q0-1.77-2.064-1.769h-7.373q-2.655,0-2.655-2.065T741.265,172.365Zm4.571-36.571h12.387q.737-3.39,2.359-3.391,2.064,0,2.507,3.391h46.155q.736-2.948,2.212-2.949,1.914,0,2.359,2.949h11.8q3.54.3,3.539,2.36,0,2.361-2.949,2.359H814.11v.59q-.3,5.9-2.359,5.9-2.36,0-2.949-5.9v-.59H763.236v1.917q-.3,5.9-2.359,5.9-2.36,0-2.949-5.9v-1.917H744.656q-2.952,0-2.949-2.359Q741.707,136.09,745.836,135.794Zm-.295,14.6a4.347,4.347,0,0,1,2.654,2.065l10.175,8.552q2.064,2.655,2.065,3.539-.591,2.361-2.36,2.36a3.979,3.979,0,0,1-3.539-2.36l-10.765-10.027a6.79,6.79,0,0,1-.589-2.359Q743.182,150.69,745.541,150.393Zm35.1,9a46.1,46.1,0,0,1-12.24,4.866c-.788,0-1.179-.295-1.179-.884s.491-1.081,1.474-1.475q11.8-6.339,24.184-18.285,1.77,0,1.77.885a2.006,2.006,0,0,1-.59,1.474,19.142,19.142,0,0,1-1.622,2.36h17.99q5.308,0,5.308,2.654,0,.885-4.423,3.392-5.607,2.8-11.65,6.488-1.182.739-2.212,1.474a196.325,196.325,0,0,1,29.935,13.124,2.114,2.114,0,0,1,.885,1.622,1.33,1.33,0,0,1-1.328,1.475,221,221,0,0,1-34.5-12.976,206.334,206.334,0,0,0-23.447,17.842q-1.032,2.51-2.359,2.507c-.788,0-1.18-.686-1.18-2.064a97.019,97.019,0,0,1,17.4-17.4,53.509,53.509,0,0,1,5.013-3.244Q784.175,161.308,780.637,159.388Zm1.622,16.516h12.829q.145-2.212.3-3.982c.391-1.769.885-2.654,1.474-2.654q.588,0,1.18,2.212.294,2.361.442,4.424h13.567q3.1.3,3.1,1.917,0,2.211-2.655,2.212H798.922q.145,3.1.442,6.488h16.368q3.1.3,3.1,2.064,0,2.067-2.654,2.065H799.512q.144,4.129.3,8.553H820.6q3.1.3,3.1,2.064,0,2.067-2.654,2.065H799.807q.144,5.309.147,11.059,0,35.688-1.327,40.7-.591,2.949-1.475,2.95-.59-.3-1.179-3.245-1.77-7.962-1.77-40.4,0-6.045.148-11.059H769.577q-2.654,0-2.654-2.065,0-1.77,3.539-2.064h23.889q0-4.868.147-8.553H775.771q-2.655,0-2.655-2.065,0-1.768,3.539-2.064h17.991q.144-3.684.294-6.488H781.374q-2.655,0-2.654-2.212Q778.72,176.2,782.259,175.9Zm7.373-23.889a37.548,37.548,0,0,1-6.341,5.6q4.719,1.326,8.995,2.949,6.93-4.424,12.829-7.521c0-.391-.442-.589-1.327-.589H792.434A6.028,6.028,0,0,1,789.632,152.015Z" fill="#231f20"/><path d="M861.751,306.344q.736,11.8,1.18,26.985h38.192q3.391,0,3.392,2.507,0,2.361-2.8,2.359h-36.57q7.665,3.395,12.386,11.8,4.569,7.67,8.406,22.267,1.914,14.3,5.308,23.151,5.9,14.011,15.926,22.414,0,1.179-.885,1.18a2.391,2.391,0,0,1-2.654-1.917q-9.145-5.163-16.368-17.548-5.164-8.4-7.816-27.28-1.769-14.009-6.93-22.857a31.5,31.5,0,0,0-9.438-10.617q.145,9.439.148,19.465,0,51.171-1.622,58.247-.591,3.1-1.328,3.1-.589,0-1.179-3.1-1.77-11.651-1.77-58.247,0-10.763.148-20.055-5.015,3.395-8.553,10.617-4.28,8.849-6.046,22.267-2.655,18.877-8.553,27.87-8.11,12.387-18.285,17.548a2.618,2.618,0,0,1-2.8,1.917q-.885,0-.884-1.327,11.354-8.112,17.842-22.857,3.834-8.993,6.046-23.151,3.391-14.6,7.373-21.677,3.684-7.814,9.733-11.207H818.4q-2.654,0-2.654-2.359,0-2.5,3.982-2.507h37.75q.294-15.777.589-26.985H829.6q-2.654,0-2.654-1.77,0-2.505,3.687-2.507h27.575q.145-2.211.295-4.718c.391-1.572.885-2.36,1.474-2.36q.442,0,1.033,2.36.294,2.508.442,4.718h27.575q3.242,0,3.244,2.507,0,1.77-2.654,1.77ZM838.305,291.6v1.179q-.3,5.9-2.507,5.9t-2.8-5.9V291.6H818.545q-2.8,0-2.8-2.507,0-1.622,4.129-2.212H833v-.59q.588-5.308,2.507-5.309,2.506,0,2.8,5.309v.59h41.289v-.59q.586-4.717,2.8-4.719,2.357,0,2.654,4.719v.59H902.3q3.39.591,3.391,2.212,0,2.51-2.8,2.507H885.05v1.769q-.3,5.9-2.36,5.9-2.508,0-3.1-5.9V291.6Zm-8.258,19.464h1.032q7.079,3.394,7.078,9.88,0,4.868-4.866,9c-.394.788-.885,1.179-1.475,1.179s-.884-.391-.884-1.179a27.283,27.283,0,0,0,2.506-11.8q0-3.1-3.834-6.489C829.6,311.261,829.752,311.062,830.047,311.062Zm56.477-1.327q.885,0,.885,1.327a11.745,11.745,0,0,0-2.507,7.079,31.03,31.03,0,0,0,1.475,9.29c0,.788-.2,1.179-.59,1.179s-.885-.391-1.475-1.179q-4.571-2.8-4.571-8.7,0-4.866,5.309-7.668C885.441,310.178,885.935,309.735,886.524,309.735Z" fill="#231f20"/><path d="M706.214,419.661A107.987,107.987,0,0,1,701.5,440.9q-11.5,39.372-36.718,63.113-.884,1.177-1.327,1.179c-.3,0-.442-.394-.442-1.179q23.74-32.439,30.819-60.312,10.027-28.164,12.682-78.891.442-1.77,1.032-1.77,1.03,0,1.475,5.161,0,22.562-1.475,39.667,5.6,28.755,14.156,50.137,5.162,11.06,11.945,22.856A148.017,148.017,0,0,0,751.779,504.6c0,.686-.1,1.032-.295,1.032a3.4,3.4,0,0,1-1.769-1.032q-20.791-12.979-33.474-44.828A157.533,157.533,0,0,1,706.214,419.661Z" fill="#231f20"/><path d="M783.882,527.1q.737,8.847,1.18,20.644h8.11q4.126,0,4.129,2.212,0,3.1-3.392,3.1h-8.7q.588,15.78.59,37.16,0,53.676-1.475,60.606-.442,3.1-1.327,3.1-.739,0-1.327-3.1-1.625-11.8-1.622-60.606.145-21.972.295-37.16H761.91l.148,30.672q0,37.159-7.521,49.4Q747.754,645.508,737.579,652a8.075,8.075,0,0,1-1.475,1.327c-.493,0-.737-.442-.737-1.327a62.374,62.374,0,0,0,14.746-20.644q6.487-15.186,6.636-47.63l.147-30.672h-9.584q-3.394,0-3.392-3.1,0-2.211,4.719-2.212H756.9l.148-15.483a48.849,48.849,0,0,1,.885-5.161h-7.521q-3.1,0-3.1-3.1,0-2.213,4.423-2.212h38.193q3.684,0,3.686,2.212,0,3.1-3.1,3.1Zm-22.709,0a34.475,34.475,0,0,1,.737,4.571v16.073h18.58q.3-12.974.59-20.644Zm61.933-11.207q1.77,0,1.77,1.622a6.534,6.534,0,0,1-1.032,2.359,162.389,162.389,0,0,1-19.17,21.972,3.6,3.6,0,0,1-2.654,1.032q-1.476,0-1.475-1.622,5.751-10.174,19.907-23.741Q822.368,515.891,823.106,515.89Zm2.95,27.575a4.045,4.045,0,0,1-1.033,1.917,91.085,91.085,0,0,0-10.912,12.976q-3.687,5.165-3.686,15.336a157.756,157.756,0,0,0,6.341,44.239q4.866,15.189,18.875,36.57a.523.523,0,0,1-.59.59,2.853,2.853,0,0,1-2.065-1.18q-13.126-12.387-20.644-32.441-7.669-21.972-7.668-50.137a28.052,28.052,0,0,1,5.014-15.483,60.3,60.3,0,0,1,14.746-13.567Q826.055,542.285,826.056,543.465Z" fill="#231f20"/></g><g id="Front_Outline" data-name="Front Outline"><g id="Dolls_in_Pseudo_Paradise" data-name="Dolls in Pseudo Paradise"><path d="M694.959,435.985a2.5,2.5,0,0,1-2.341-1.69,2,2,0,0,1-.056-1.209l.031-.114a14.625,14.625,0,0,0,.411-3.9c-.012-3.471-.019-5.656-.03-10.749,0-1.307-.058-2.81-.177-4.6l-.028-.389a2.506,2.506,0,0,1,2.124-2.681s.757-.161.8-.168.257-.091.565-.195l.889-.3.836-.3a2.009,2.009,0,0,1,1.328-.014,2.565,2.565,0,0,1,1.179.832,1.992,1.992,0,0,1,.371.8l.089.419a2,2,0,0,1-.4,1.676,2.942,2.942,0,0,1-.394.4,4.275,4.275,0,0,0-.538.532,24.241,24.241,0,0,0-.363,5.271l.014,1.465c.009.865.019,1.727.016,2.563-.007,1.906-.021,3.078-.034,3.775,0,.2-.008.443-.032.705,0,.054.007.108.007.163,0,0,0,1.556,0,1.637l.1,0a1.993,1.993,0,0,1,.734.139,2.329,2.329,0,0,1,1.6,2.226c0,1.763-1.827,2.207-2.427,2.352l-1.052.248a10.126,10.126,0,0,0-1.407.539c-.089.046-.28.125-.478.2l-.222.091a2.542,2.542,0,0,1-.86.259C695.14,435.979,695.027,435.985,694.959,435.985Z" fill="#fff"/><path d="M698.662,411.569a.567.567,0,0,1,.239.157l.09.422-.059.075a6.451,6.451,0,0,0-.99,1c-.454.555-.709,3.225-.689,6.4.009,1.346.035,2.708.03,4.01-.014,3.779-.056,4.653-.059,4.653v1.376a7.95,7.95,0,0,0,.15,2.058.658.658,0,0,0,.63.4h.039a4.526,4.526,0,0,0,.8-.1l.48-.105c.24.1.33.187.33.366,0,.112-.3.263-.9.409l-1.049.248a10.747,10.747,0,0,0-1.741.65c-.21.105-.45.188-.69.292a.982.982,0,0,1-.27.1l-.045,0a.514.514,0,0,1-.464-.384l.029-.109a16.448,16.448,0,0,0,.48-4.424c-.012-3.477-.018-5.662-.031-10.753,0-1.348-.059-2.9-.18-4.726l-.03-.411c-.03-.3.18-.481.6-.583l.631-.134c.21-.033.779-.244,1.769-.566l.9-.326m0-4a4,4,0,0,0-1.369.241l-.832.3c-.328.107-.61.2-.849.282-.2.069-.365.124-.485.161l-.595.127-.11.025a4.539,4.539,0,0,0-3.647,4.783l.019.249.01.144c.113,1.718.169,3.177.169,4.432.013,5.1.019,7.289.031,10.767a12.923,12.923,0,0,1-.327,3.315l-.017.06-.029.107a4,4,0,0,0,.111,2.422,4.486,4.486,0,0,0,4.217,3c.132,0,.311-.009.443-.022a4.49,4.49,0,0,0,1.514-.436l.117-.046c.16-.065.372-.149.606-.261a9.609,9.609,0,0,1,.971-.388l1.067-.251c3.593-.872,3.977-3.3,3.977-4.3a4.331,4.331,0,0,0-2.43-3.891v-.019c0-.049,0-.1.007-.149,0-.152.011-.4.018-.771.013-.7.027-1.884.034-3.8,0-.845-.007-1.714-.016-2.588-.005-.487-.011-.975-.014-1.462a30.288,30.288,0,0,1,.211-4.277,3.841,3.841,0,0,0,.6-.609l.063-.08a4,4,0,0,0,.776-3.319l-.087-.406a4.067,4.067,0,0,0-.732-1.6,4.538,4.538,0,0,0-2.126-1.518,4,4,0,0,0-1.3-.216Z" fill="#fff"/><path d="M704.9,435.6a21.208,21.208,0,0,1-2.494-.137l-.161-.02a13.3,13.3,0,0,1-1.627-.276,2.654,2.654,0,0,1-1.97-2.94v-1.043a2.053,2.053,0,0,1,.04-.4,2.514,2.514,0,0,1,1.541-1.887,4.616,4.616,0,0,1-.381-1.888,6.273,6.273,0,0,1,1.989-4.5,6.976,6.976,0,0,1,5.079-2.034,11.064,11.064,0,0,1,2.1.244c.732.147,2.959.592,2.959,2.626a4.723,4.723,0,0,1-.332,1.784,3.332,3.332,0,0,1-.71,1.13,5.628,5.628,0,0,1,.721.388,4.037,4.037,0,0,1,1.852,3.533c0,1.177-.448,3.338-3.465,4.566a13.5,13.5,0,0,1-5.066.854Z" fill="#fff"/><path d="M706.917,422.476h.031a9.108,9.108,0,0,1,1.68.206c.886.177,1.351.366,1.351.664a2.748,2.748,0,0,1-.181,1.022c-.148.36-.269.523-.42.557l-.509-.161a7.085,7.085,0,0,0-2.791-.657h-.017c-1.52,0-2.563.876-2.562,1.9,0,.775.631,1.258,1.86,1.442a10.373,10.373,0,0,0,1.68.11,6.69,6.69,0,0,1,3.541.769,2.06,2.06,0,0,1,.93,1.848c0,1.22-.755,2.118-2.219,2.714a11.539,11.539,0,0,1-4.309.706h-.071a19.249,19.249,0,0,1-2.251-.121,13.081,13.081,0,0,1-1.56-.253c-.344-.085-.45-.171-.45-1v-1.044a.493.493,0,0,1,.5-.453h.011a.49.49,0,0,1,.3.074c.047.075.071.112.119.187v.161c0,1.1.96,1.677,2.761,1.688h.057a8.286,8.286,0,0,0,2.973-.537c1.16-.444,1.74-1.022,1.74-1.79,0-.651-.511-.964-1.8-.969-.6,0-.9,0-1.5-.008-2.67-.018-3.96-.784-3.961-2.526a4.313,4.313,0,0,1,1.41-3.093,4.969,4.969,0,0,1,3.658-1.442m0-4a8.934,8.934,0,0,0-6.5,2.626,8.267,8.267,0,0,0-2.57,5.91,6.844,6.844,0,0,0,.087,1.069,4.611,4.611,0,0,0-1.206,2.306,4.02,4.02,0,0,0-.08.8v1.044c0,3.5,2.187,4.56,3.49,4.882a15.273,15.273,0,0,0,1.866.32l.153.019a23.434,23.434,0,0,0,2.736.151h.087a15.459,15.459,0,0,0,5.817-1c4.254-1.732,4.712-5.067,4.711-6.42a6.115,6.115,0,0,0-1.913-4.55,6.861,6.861,0,0,0,.382-2.285c0-1.371-.594-3.791-4.567-4.586a12.89,12.89,0,0,0-2.446-.283Zm.56,15.076Z" fill="#fff"/><path d="M816.266,430.558c-4.395,0-7.348-3.446-7.351-8.575a10.349,10.349,0,0,1,2.114-6.621,8.534,8.534,0,0,1,6.141-3.194c.288-.023.571-.035.846-.035,4.461,0,7.231,3.131,7.231,8.173a11.094,11.094,0,0,1-2.308,6.867,8.287,8.287,0,0,1-6.25,3.374C816.547,430.554,816.405,430.558,816.266,430.558Zm.4-12.871c-.671.057-1.59.134-1.589,2.859a5.407,5.407,0,0,0,.939,3.246c.644.886,1.124.886,1.329.886a1.263,1.263,0,0,0,1.127-.72,3.955,3.955,0,0,0,.587-2.166c0-.965-.159-4.115-2.178-4.115C816.81,417.677,816.738,417.681,816.665,417.687Z" fill="#fff"/><path d="M818.015,414.133c3.234,0,5.232,2.071,5.232,6.173a9.07,9.07,0,0,1-1.889,5.643,6.267,6.267,0,0,1-4.77,2.6c-.108,0-.216.008-.322.008-3.293,0-5.349-2.66-5.351-6.576a8.427,8.427,0,0,1,1.679-5.375,6.487,6.487,0,0,1,4.742-2.445c.232-.02.459-.029.679-.029m-.672,12.545c.068,0,.136,0,.205-.006a3.239,3.239,0,0,0,2.61-1.638,5.96,5.96,0,0,0,.9-3.242c0-3.919-1.662-6.115-4.178-6.115-.126,0-.254.006-.384.017-2.281.193-3.421,1.742-3.42,4.853a7.356,7.356,0,0,0,1.321,4.419,3.6,3.6,0,0,0,2.946,1.712m.673-16.545h0c-.33,0-.671.014-1.012.042a10.488,10.488,0,0,0-7.54,3.943,12.3,12.3,0,0,0-2.548,7.865c0,6.226,3.847,10.575,9.351,10.575.174,0,.35,0,.528-.014a10.231,10.231,0,0,0,7.726-4.146,13.078,13.078,0,0,0,2.727-8.093c0-6.179-3.624-10.172-9.231-10.172Zm-.789,9.152Z" fill="#fff"/><path d="M830.359,430.614a2,2,0,0,1-.919-.224l-.2-.1a2.007,2.007,0,0,1-1.042-1.339l-.063-.282a2.005,2.005,0,0,1,.088-1.147,2.568,2.568,0,0,1,.209-.416c.062-.138.151-.3.255-.483.021-.034.076-.126.1-.159a1.08,1.08,0,0,0,.128-.23,31.046,31.046,0,0,0,.195-4.459c0-2.046,0-3.879.031-5.545.022-2.977.034-4.481.054-6.845a3.334,3.334,0,0,1-1.047.251l-.1,0a2,2,0,0,1-.716-.133l-.172-.065a2,2,0,0,1-1.224-1.356l-.061-.227a2,2,0,0,1-.067-.517c0-1.708,1.708-2.345,2.351-2.584l.211-.088A21.607,21.607,0,0,1,832.8,403.3a22.781,22.781,0,0,1,4.048-.484c.184,0,.367-.007.546-.007a12.429,12.429,0,0,1,5.739,1.182,6.025,6.025,0,0,1,3.386,5.66,9.008,9.008,0,0,1-3.387,6.951,11.972,11.972,0,0,1-7.415,2.849l-.158.006c-.007.914-.014,1.918-.022,3.062,0,.333,0,.61.01.843a4.677,4.677,0,0,1,1.325-.3l.083,0a2,2,0,0,1,1.328.505,2.458,2.458,0,0,1,.764,1.275l.061.374a1.947,1.947,0,0,1,.027.323c0,.6-.237,2.066-2.421,2.677-.037.011-.074.02-.112.028-.19.042-.391.086-.6.114l-.3.109a30.6,30.6,0,0,0-4.015,1.725l-.47.224A2.014,2.014,0,0,1,830.359,430.614Zm5.355-22.572c-.027.464-.057,1.39-.085,2.846-.011,1.276-.021,2.377-.029,3.447l.073,0a3.772,3.772,0,0,0,3.907-3.986c0-1.361-.446-1.8-.594-1.938a2.91,2.91,0,0,0-2.115-.655l-.184,0a4.807,4.807,0,0,0-.959.117Z" fill="#fff"/><path d="M837.4,404.811a10.457,10.457,0,0,1,4.817.957,4.034,4.034,0,0,1,2.309,3.884,7.021,7.021,0,0,1-2.7,5.446,10.018,10.018,0,0,1-6.21,2.358c-.061,0-.119,0-.175,0-.57,0-.844-.179-.844-.556a.75.75,0,0,1,.09-.449l.389-.086.72-.043a5.769,5.769,0,0,0,5.792-5.982,4.468,4.468,0,0,0-1.2-3.372,4.825,4.825,0,0,0-3.509-1.221c-.08,0-.16,0-.241,0-1.441.04-2.612.477-2.822,1-.036.445-.054.671-.09,1.132-.03.513-.06,1.464-.09,2.96-.036,4.124-.054,6.429-.09,11.659a9.582,9.582,0,0,0,.21,2.654.9.9,0,0,0,.91.479h.079a3.928,3.928,0,0,0,1.139-.271,4.41,4.41,0,0,1,1.08-.3l.119.106.06.37c0,.336-.33.575-.959.752a3.921,3.921,0,0,1-.57.1,4.87,4.87,0,0,0-.509.172,32.95,32.95,0,0,0-4.289,1.835l-.45.214-.21-.108-.06-.268c.031-.078.109-.166.15-.276a3.311,3.311,0,0,1,.211-.392,2.658,2.658,0,0,0,.42-.929,33.663,33.663,0,0,0,.239-4.867c0-2.034,0-3.855.03-5.51.024-3.258.036-4.753.06-7.509v-.783a2.642,2.642,0,0,0-.12-.635c-.084-.3-.177-.512-.378-.512h-.013a4.678,4.678,0,0,0-1.529.423,5.789,5.789,0,0,1-1.111.389l-.18-.069-.06-.229c0-.231.36-.454,1.05-.71l.27-.112a19.891,19.891,0,0,1,4.082-1.257,20.631,20.631,0,0,1,3.691-.443c.167,0,.332-.006.494-.006m0-4c-.2,0-.395,0-.6.008a24.7,24.7,0,0,0-4.407.525,23.806,23.806,0,0,0-4.843,1.5l-.16.066c-2.958,1.128-3.581,3.029-3.581,4.431a4.006,4.006,0,0,0,.134,1.028l.054.2a4.036,4.036,0,0,0,2.452,2.738l.179.068a3.918,3.918,0,0,0,.548.164c-.011,1.361-.021,2.7-.036,4.694-.03,1.651-.03,3.54-.03,5.54,0,2.173-.079,3.3-.131,3.81l-.017.029c-.088.151-.2.339-.307.567a4.425,4.425,0,0,0-.3.62,4,4,0,0,0-.172,2.309l.018.079.041.183a4,4,0,0,0,2.083,2.7l.2.1a4,4,0,0,0,3.548.055l.07-.034.379-.18a31.267,31.267,0,0,1,3.783-1.635c.067-.021.133-.044.2-.069.19-.033.36-.07.5-.1.076-.016.167-.039.241-.059a4.815,4.815,0,0,0,3.881-4.6,3.965,3.965,0,0,0-.052-.643l-.061-.376a4,4,0,0,0-1.28-2.333l-.111-.1a4.059,4.059,0,0,0-1.67-.9,13.419,13.419,0,0,0,6.487-3.086,10.93,10.93,0,0,0,4.072-8.457,8.014,8.014,0,0,0-4.464-7.435,14.179,14.179,0,0,0-6.662-1.408Z" fill="#fff"/><path d="M858.622,429.211a2.009,2.009,0,0,1-.773-.155l.773-1.845-.816,1.826a2.075,2.075,0,0,1-1.262-1.651l-.029-.272a1.843,1.843,0,0,1-.006-.364l.024-.318c0-.515.032-1.566.073-3.061l.021-.726c.035-1.262.061-2.285.061-3.016l0-3.016a1.966,1.966,0,0,1-.488.061,1.993,1.993,0,0,1-1.035-.289l-.21-.127a2,2,0,0,1-.943-1.418l-.043-.282a3.218,3.218,0,0,1-.039-.415c.007-1.654,1.589-2.219,2.108-2.4l.706-.247c.189-.073.388-.145.544-.2l.156-.057c.15-.069.559-.261,1.212-.58l1.113-.522a2,2,0,0,1,.843-.186,2.046,2.046,0,0,1,.322.026l.3.048a2,2,0,0,1,1.2.675,5.2,5.2,0,0,1,2.572-.81h.017a2.007,2.007,0,0,1,1.079.316l.138.09a2.028,2.028,0,0,1,.89,1.436l.032.284a2.009,2.009,0,0,1,.012.219v1.522a2.7,2.7,0,0,1-2.515,2.733l-.906.05a2.922,2.922,0,0,0-.631.087c-.012.04-.025.088-.041.144a9.259,9.259,0,0,0-.113,1.48l-.2,5.019c-.028.81-.058,1.687-.112,2.609a2.022,2.022,0,0,1-.063.394c-.216.819-.86,1.323-1.745,1.945a3.924,3.924,0,0,1-2.207,1Z" fill="#fff"/><path d="M865.026,411.886l.12.079.03.266c0,.6,0,.9,0,1.519a.7.7,0,0,1-.691.744l-.84.045a2.913,2.913,0,0,0-2.042.71,2.3,2.3,0,0,0-.451,1,10.088,10.088,0,0,0-.181,1.941c-.074,1.82-.11,2.751-.184,4.674-.031.887-.062,1.863-.122,2.9-.03.115-.342.383-.961.818a3.768,3.768,0,0,1-1.081.634l-.089-.038-.03-.273.03-.388c0-.542.039-1.867.093-3.812.036-1.284.061-2.327.062-3.071,0-.723,0-1.081,0-1.789,0-.875,0-1.306,0-2.159-.088-1.033-.38-1.553-.877-1.553h-.021a2.13,2.13,0,0,0-.51.048c-.114.04-.271.14-.481.246l-.6.251-.21-.127-.06-.4c0-.2.271-.348.781-.53.276-.1.414-.146.691-.242.39-.149.659-.238.81-.3,0,0,.45-.205,1.321-.63.432-.2.648-.306,1.079-.506l.3.048.119.159-.029.378c-.013.3-.019.455-.031.763s0,.413,0,.788c.012.24.018.361.03.6a8.251,8.251,0,0,1,1.8-1.833,4.086,4.086,0,0,1,2.221-.967m0-4h-.036a6.5,6.5,0,0,0-2.367.492,4.01,4.01,0,0,0-1.075-.333l-.3-.048a4.059,4.059,0,0,0-.632-.05,4,4,0,0,0-1.684.372c-.442.2-.662.308-1.1.517l-.046.022c-.55.269-.92.443-1.1.528l-.06.022c-.155.055-.351.125-.587.215l-.646.226c-3,1.073-3.452,3.155-3.453,4.3a3.982,3.982,0,0,0,.046.607l.06.39a4,4,0,0,0,1.893,2.828l.2.122a4,4,0,0,0,.555.279v1.25c0,.674-.024,1.633-.061,2.963l-.013.5c-.044,1.574-.075,2.662-.08,3.259l-.019.244a3.936,3.936,0,0,0,.012.752l.009.08.021.191a4,4,0,0,0,2.428,3.252l.047.02a4.222,4.222,0,0,0,1.6.329h.041A5.778,5.778,0,0,0,862,429.85a5.557,5.557,0,0,0,2.529-3.072,3.949,3.949,0,0,0,.125-.786c.056-.966.088-1.882.118-2.725l.009-.268c.071-1.863.108-2.794.178-4.533a4.669,4.669,0,0,0,4.213-4.713v-1.519a3.944,3.944,0,0,0-.025-.448l-.018-.16-.012-.108a4,4,0,0,0-1.782-2.9l-.122-.081a4.014,4.014,0,0,0-2.191-.653Z" fill="#fff"/><path d="M889.933,430.047a2.47,2.47,0,0,1-1.786-.874,2.621,2.621,0,0,1-.454-.626,4.292,4.292,0,0,1-1.991.521l-.112,0a6.531,6.531,0,0,1-5.482-2.711,10.611,10.611,0,0,1-1.522-6.1c0-3.459.881-6.212,2.476-7.75a8.109,8.109,0,0,1,5.839-2.2q.3,0,.6.016a1.859,1.859,0,0,1,.2.02l.128.019,0-.27a35.54,35.54,0,0,0-.2-3.744l-.028-.288a2.17,2.17,0,0,1,.425-1.551,2.839,2.839,0,0,1,2.079-1s.342-.041.382-.043a4.93,4.93,0,0,0,.541-.09c.259-.048.5-.1.823-.187.04-.01.08-.02.121-.028l1.083-.224a1.958,1.958,0,0,1,.4-.042,2,2,0,0,1,.618.1,2.3,2.3,0,0,1,1.772,2.246,2.364,2.364,0,0,1-1.561,2.1,17.494,17.494,0,0,0-.182,3.065c0,.906-.013,1.752-.032,2.892l-.029,1.894s-.1,8.018-.1,8.047c.033,0,.067,0,.1,0a1.987,1.987,0,0,1,.667.115,2.824,2.824,0,0,1,.737.4,2.3,2.3,0,0,1,.955,1.98c0,.674-.286,1.9-2.2,2.546l-.769.277a10.113,10.113,0,0,0-1.6.75l-.842.476a2.069,2.069,0,0,1-1,.267ZM885.6,416.036a1.618,1.618,0,0,0-.714.093c0,.006-.314.369-.316,2.307a6.3,6.3,0,0,0,.625,3.085,1.6,1.6,0,0,0,1.443.854h.009a1.9,1.9,0,0,0,.931-.193c.036-.274.079-.724.105-1.435l.093-4.361a10.9,10.9,0,0,0-1.229-.271c-.174-.024-.411-.06-.65-.072C885.79,416.039,885.691,416.036,885.6,416.036Z" fill="#fff"/><path d="M893.465,404.9c.27.088.39.144.39.344,0,.075-.2.186-.57.372a1.6,1.6,0,0,0-.781.713,13.517,13.517,0,0,0-.391,4.083c0,1.335-.031,2.533-.062,4.759-.038,3.111-.057,4.7-.1,7.965,0,1.586.15,2.407.48,2.424h.067a4.354,4.354,0,0,0,.893-.135l.661-.183a1.128,1.128,0,0,1,.269.16.522.522,0,0,1,.09.333c0,.255-.27.459-.84.651l-.81.291a11.935,11.935,0,0,0-1.892.883c-.348.195-.522.293-.87.491a.511.511,0,0,1-.39-.24.618.618,0,0,1-.21-.384l.03-.261c.091-.933.151-1.483.152-1.7v-.185c-.012-.384-.018-.575-.03-.956-.264.28-.4.421-.661.705-1.266,1.355-2.33,2.045-3.192,2.045h-.051a4.588,4.588,0,0,1-3.9-1.85,8.72,8.72,0,0,1-1.168-4.957c0-2.771.648-5.139,1.866-6.312a6.152,6.152,0,0,1,4.45-1.64c.164,0,.331,0,.5.013.961.146,1.441.221,2.4.375.012-1.046.018-1.562.03-2.58a37.677,37.677,0,0,0-.208-3.977l-.029-.3q-.045-.261.72-.341l.3-.036a8.067,8.067,0,0,0,.87-.136c.209-.039.51-.1.9-.208l1.08-.223m-6.741,19.48a2.742,2.742,0,0,0,2.772-1.553,13.931,13.931,0,0,0,.182-2c.049-2.336.074-3.479.123-5.732-.271-.119-.6-.285-1.051-.475a9.245,9.245,0,0,0-1.859-.467c-.3-.043-.6-.085-.9-.1-.136-.007-.268-.01-.395-.01-2.22,0-3.026,1.049-3.028,4.4a8.155,8.155,0,0,0,.9,4.1,3.583,3.583,0,0,0,3.09,1.842l.169,0m6.741-23.48a3.939,3.939,0,0,0-.809.083l-1.083.224c-.082.017-.164.036-.245.058-.2.056-.39.1-.576.134l-.094.018c-.122.023-.237.047-.34.061-.063,0-.126.011-.188.018l-.27.033a4.736,4.736,0,0,0-3.423,1.777,4.175,4.175,0,0,0-.819,2.967l.011.112.014.145q.1.923.144,1.832a9.948,9.948,0,0,0-6.111,2.709c-1.99,1.917-3.088,5.181-3.091,9.19a12.536,12.536,0,0,0,1.879,7.237,8.455,8.455,0,0,0,7.061,3.571c.059,0,.118,0,.178,0a5.863,5.863,0,0,0,1.353-.159,4.407,4.407,0,0,0,2.8,1.137l.149,0a3.994,3.994,0,0,0,1.978-.523c.34-.193.51-.289.85-.48a8.053,8.053,0,0,1,1.221-.583l.077-.027.768-.277a4.663,4.663,0,0,0,3.518-4.424,4.465,4.465,0,0,0-.969-2.837,3.981,3.981,0,0,0-.825-.773,5.007,5.007,0,0,0-.649-.4l.078-6.5c.01-.754.021-1.394.03-1.961.018-1.113.031-1.949.032-2.845,0-.862.025-1.471.054-1.892a3.967,3.967,0,0,0,1.688-3.278,4.31,4.31,0,0,0-3.155-4.148,3.967,3.967,0,0,0-1.235-.2Z" fill="#fff"/><path d="M897.561,429.944a2,2,0,0,1-1.394-.565,2.473,2.473,0,0,1-.786-1.773l-.058-1.526,0-8.546c0-.3,0-.555-.013-.764a2,2,0,0,1-.633-.166,2.541,2.541,0,0,1-1.543-2.346c0-.875.445-1.987,2.565-2.313l.9-.146c.916-.221,1.4-.335,2.337-.555a2.022,2.022,0,0,1,.457-.053,2,2,0,0,1,.779.159,2.468,2.468,0,0,1,1.7,2.295c0,.06,0,.12-.008.18l-.023.243c0,.208-.01.482-.022.86l-.1,3.529-.032,8.207a1.9,1.9,0,0,1-.037.377l-.091.461c-.009.05-.021.1-.035.15a2.319,2.319,0,0,1-1.618,1.594c-.67.229-1.009.346-1.685.585A2.02,2.02,0,0,1,897.561,429.944Zm.835-18.877c-.1,0-.194,0-.292-.011a3.871,3.871,0,0,1-2.359-1.018,3.318,3.318,0,0,1,2.4-5.761c.082,0,.165,0,.248.009a3.633,3.633,0,0,1,3.487,3.512A3.384,3.384,0,0,1,898.4,411.067Z" fill="#fff"/><path d="M898.142,406.277c.039,0,.077,0,.116,0a1.645,1.645,0,0,1,1.62,1.517,1.381,1.381,0,0,1-1.481,1.269c-.046,0-.093,0-.14,0a1.886,1.886,0,0,1-1.139-.478,1.409,1.409,0,0,1-.45-1.018,1.388,1.388,0,0,1,1.474-1.289m1.254,6.915c.33.139.48.29.48.453l-.03.325c0,.382-.031,1.037-.06,2.323-.025.838-.037,1.259-.062,2.106-.013,3.23-.019,4.872-.032,8.258-.036.184-.054.276-.091.461-.029.107-.149.171-.33.233-.684.233-1.026.352-1.71.593a.491.491,0,0,1-.18-.338c-.024-.643-.035-.963-.059-1.6,0-3.48,0-5.163,0-8.473a7.25,7.25,0,0,0-.239-2.41.9.9,0,0,0-.84-.447l-.42.047-.33.054a.542.542,0,0,1-.36-.52c0-.136.3-.249.87-.337l.99-.16c.96-.231,1.44-.345,2.4-.569m-1.254-10.915h0a5.3,5.3,0,0,0-4.59,8.234,4.159,4.159,0,0,0-2.416,3.745,4.626,4.626,0,0,0,.713,2.453,4.514,4.514,0,0,0,1.476,1.439l0,7.857c0,.05,0,.1,0,.149l.058,1.567a4.46,4.46,0,0,0,1.39,3.092,4,4,0,0,0,4.118.9c.669-.236,1-.352,1.673-.581a4.291,4.291,0,0,0,2.892-2.95c.027-.1.051-.2.07-.3l.083-.42a4.365,4.365,0,0,0,.083-.8l.032-8.208,0-.1.057-1.951c.014-.624.028-1.083.039-1.44.01-.333.018-.59.021-.793l0-.046.011-.113c.011-.124.017-.248.017-.373a4.4,4.4,0,0,0-1.022-2.783,5.111,5.111,0,0,0,1.024-3.062,5.637,5.637,0,0,0-5.356-5.51c-.127-.008-.254-.013-.38-.013Z" fill="#fff"/><path d="M906.856,430.358c-.3,0-.614-.011-.931-.034a14.825,14.825,0,0,1-2.615-.392l-.143-.037a10.485,10.485,0,0,1-1.732-.57c-1.629-.733-1.628-2.3-1.627-3.451v-1.618a1.925,1.925,0,0,1,.017-.263,2.559,2.559,0,0,1,2.052-2.359,6.71,6.71,0,0,1,1.359-8.291,6.536,6.536,0,0,1,3.957-1.217,9.089,9.089,0,0,1,1.171.078,12.527,12.527,0,0,1,2,.459c.9.272,2.77.838,2.77,2.665a3.874,3.874,0,0,1-.4,1.758,2.666,2.666,0,0,1-1.4,1.361,6.439,6.439,0,0,1,1.8,1.241,5.5,5.5,0,0,1,1.523,4.07,6.057,6.057,0,0,1-3.262,5.536A9.375,9.375,0,0,1,906.856,430.358Zm-2.133-6.584a2.19,2.19,0,0,1,.014.244v.244c0,.475,0,.737.913.807.094.008.189.011.283.011a3.739,3.739,0,0,0,1.692-.414,1.97,1.97,0,0,0,.476-.314l-1.342-.144A9.164,9.164,0,0,1,904.723,423.774Z" fill="#fff"/><path d="M907.193,414.126a7.323,7.323,0,0,1,.916.061,10.827,10.827,0,0,1,1.679.39c.889.269,1.35.5,1.35.751a1.91,1.91,0,0,1-.18.849c-.148.289-.27.414-.42.42l-.51-.215a8.329,8.329,0,0,0-2.789-.941,4.256,4.256,0,0,0-.529-.035c-1.238,0-2.051.632-2.051,1.811,0,1,.629,1.714,1.86,2.091a8.629,8.629,0,0,0,1.679.333,5.9,5.9,0,0,1,3.539,1.47,3.569,3.569,0,0,1,.929,2.647,4.037,4.037,0,0,1-2.219,3.781,7.428,7.428,0,0,1-3.59.819c-.257,0-.521-.01-.79-.029a12.841,12.841,0,0,1-2.25-.332,9.744,9.744,0,0,1-1.56-.5c-.341-.154-.45-.32-.45-1.627v-1.619c.057-.43.224-.658.474-.658l.036,0a.388.388,0,0,1,.3.129l.12.289v.244a2.625,2.625,0,0,0,2.76,2.8c.146.011.292.017.437.017a5.7,5.7,0,0,0,2.593-.63,2.709,2.709,0,0,0,1.74-2.5c0-.937-.51-1.429-1.8-1.571-.6-.066-.9-.1-1.5-.161-2.668-.281-3.958-1.5-3.958-3.838a4.081,4.081,0,0,1,1.41-3.426,4.583,4.583,0,0,1,2.774-.829m0-4a8.605,8.605,0,0,0-5.139,1.6,7.95,7.95,0,0,0-3.045,6.65,8.852,8.852,0,0,0,.309,2.378,4.78,4.78,0,0,0-1.476,2.972,4,4,0,0,0-.034.525v1.619c0,1.2,0,4.01,2.807,5.275a12.374,12.374,0,0,0,2.054.682l.133.035a16.8,16.8,0,0,0,2.982.453c.362.026.723.039,1.074.039a11.357,11.357,0,0,0,5.507-1.308,7.983,7.983,0,0,0,4.3-7.291,7.447,7.447,0,0,0-2.116-5.492l-.114-.111.081-.153a5.878,5.878,0,0,0,.621-2.675c0-2.2-1.41-3.737-4.19-4.579a14.339,14.339,0,0,0-2.329-.529,11.253,11.253,0,0,0-1.426-.094Z" fill="#fff"/></g></g><g id="Front_Text" data-name="Front Text"><g id="Dolls_in_Pseudo_Paradise-2" data-name="Dolls in Pseudo Paradise"><path d="M651.033,419.744c.03-.948.03-2.764.06-5.382.024-1.5.036-2.253.061-3.756-.684.047-1.027.068-1.711.108l-.57.013-.18-.116a.6.6,0,0,1-.09-.285c-.023-.248.48-.418,1.44-.509l.271-.026c2.55-.228,4.682-.41,6.419-.492a37.617,37.617,0,0,1,4.86.006,11.148,11.148,0,0,1,7.587,3.339,12.2,12.2,0,0,1,2.846,8.492,9.068,9.068,0,0,1-3.061,7.378,10.708,10.708,0,0,1-6.029,2.656,13.853,13.853,0,0,1-2.789.046c-1.32-.1-1.98-.151-3.3-.258-.42-.041-1.091-.118-1.979-.171-.5-.029-1.333-.065-2.4-.165-.3-.028-1.528-.049-3.718-.055l-.539,0-.15-.106-.06-.218c0-.27.45-.427,1.319-.472l1.38-.1C650.834,425.724,650.9,423.865,651.033,419.744Zm2.459-.143c-.036,2.684-.054,3.838-.091,6.337a9.153,9.153,0,0,0,.149,1.9,1.758,1.758,0,0,0,.391.8,4.524,4.524,0,0,0,1.768.832,16.5,16.5,0,0,0,2.909.537c3.179.328,5.717-.167,7.588-1.413,1.946-1.3,2.94-2.819,2.941-6.223,0-6.58-3.535-11.049-9.564-11.67a15.336,15.336,0,0,0-3.3-.032,9.577,9.577,0,0,0-2.55.584C653.637,414.607,653.589,416.281,653.492,419.6Z" fill="#231f20"/><path d="M685.84,427.807a4.573,4.573,0,0,1-1.89,3.816,7.012,7.012,0,0,1-4.77,1.3c-3.479-.173-5.668-2.219-5.667-5.452a6.114,6.114,0,0,1,1.681-4.263,5.335,5.335,0,0,1,4.738-1.856A6.279,6.279,0,0,1,685.84,427.807Zm-10.168-1.153a5.212,5.212,0,0,0,1.319,3.575,4.378,4.378,0,0,0,3.149,1.533,3.309,3.309,0,0,0,2.61-.867,2.981,2.981,0,0,0,.9-2.219c0-3.048-1.829-5.517-4.559-5.744C676.814,422.742,675.673,424.14,675.672,426.654Z" fill="#231f20"/><path d="M688.2,418.026c0-1.338-.06-2.879-.18-4.681l-.03-.405c-.03-.3.18-.472.6-.567l.629-.124c.21-.029.78-.23,1.769-.535.36-.123.54-.185.9-.31a.581.581,0,0,1,.24.158l.09.417-.06.073a6.451,6.451,0,0,0-.989.974c-.454.542-.711,3.177-.69,6.338.008,1.342.035,2.7.03,4.01-.016,3.95-.06,4.739-.06,4.665v1.394a8.264,8.264,0,0,0,.149,2.092.667.667,0,0,0,.63.414,4.133,4.133,0,0,0,.84-.088l.48-.1c.24.1.33.194.33.377,0,.114-.3.264-.9.405l-1.05.241a10.54,10.54,0,0,0-1.74.646c-.21.106-.449.188-.69.293a.936.936,0,0,1-.27.1.513.513,0,0,1-.51-.4l.031-.112a17.154,17.154,0,0,0,.479-4.507C688.213,425.277,688.207,423.085,688.2,418.026Z" fill="#231f20"/><path d="M694.973,418.315c0-1.348-.059-2.9-.18-4.726l-.03-.411c-.03-.3.18-.481.6-.583l.631-.134c.21-.033.779-.244,1.769-.566l.9-.326a.567.567,0,0,1,.239.157l.09.422-.059.075a6.451,6.451,0,0,0-.99,1c-.454.555-.709,3.225-.689,6.4.009,1.346.035,2.708.03,4.01-.014,3.94-.059,4.723-.059,4.649v1.38a7.95,7.95,0,0,0,.15,2.058.658.658,0,0,0,.63.4,4.371,4.371,0,0,0,.84-.1l.48-.105c.24.1.33.187.33.366,0,.112-.3.263-.9.409l-1.049.248a10.747,10.747,0,0,0-1.741.65c-.21.105-.45.188-.69.292a.982.982,0,0,1-.27.1.5.5,0,0,1-.509-.382l.029-.109a16.448,16.448,0,0,0,.48-4.424C694.992,425.591,694.986,423.406,694.973,418.315Z" fill="#231f20"/><path d="M702.66,433.48a13.081,13.081,0,0,1-1.56-.253c-.344-.085-.45-.171-.45-1v-1.044a.544.544,0,0,1,.811-.379c.047.075.071.112.119.187v.161c0,1.1.96,1.677,2.761,1.688a8.3,8.3,0,0,0,3.03-.537c1.16-.444,1.74-1.022,1.74-1.79,0-.651-.511-.964-1.8-.969-.6,0-.9,0-1.5-.008-2.67-.018-3.96-.784-3.961-2.526a4.313,4.313,0,0,1,1.41-3.093,4.974,4.974,0,0,1,3.689-1.442,9.108,9.108,0,0,1,1.68.206c.886.177,1.351.366,1.351.664a2.748,2.748,0,0,1-.181,1.022c-.148.36-.269.523-.42.557l-.509-.161a7.085,7.085,0,0,0-2.791-.657c-1.529-.007-2.58.872-2.579,1.9,0,.775.631,1.258,1.86,1.442a10.373,10.373,0,0,0,1.68.11,6.69,6.69,0,0,1,3.541.769,2.06,2.06,0,0,1,.93,1.848c0,1.22-.755,2.118-2.219,2.714a11.623,11.623,0,0,1-4.38.706A19.249,19.249,0,0,1,702.66,433.48Z" fill="#231f20"/><path d="M720.784,432.718c-.036.112-.054.169-.09.28-.03.065-.15.11-.33.156-.684.175-1.026.261-1.71.432-.121-.061-.181-.123-.181-.186-.024-.369-.036-.558-.06-.941,0-2.1,0-3.248,0-5.746a4.411,4.411,0,0,0-.241-1.85.924.924,0,0,0-.84-.381l-.42.106-.33.1a.538.538,0,0,1-.27-.219.738.738,0,0,1-.09-.352c0-.162.3-.33.869-.5l.99-.315c.961-.4,1.441-.6,2.4-1.009.33.122.48.283.48.478l-.03.391c0,.454-.029,1.331-.059,2.351-.024.666-.035.992-.059,1.63C720.8,429.569,720.8,430.684,720.784,432.718Zm.173-17.56a1.847,1.847,0,0,1-1.62,1.96,1.454,1.454,0,0,1-1.14-.526,2.166,2.166,0,0,1-.451-1.388,1.918,1.918,0,0,1,1.59-2.052A1.835,1.835,0,0,1,720.957,415.158Z" fill="#231f20"/><path d="M725.232,427.746c0-2.364-.632-3.5-1.862-3.454l-.33.076-.27.041a.522.522,0,0,1-.24-.117c-.024-.138-.036-.207-.061-.346.031-.033.09-.067.121-.1a2.264,2.264,0,0,1,.42-.269l.66-.279c.21-.1.479-.243.78-.414.15-.1.449-.274.869-.581l.241-.171c.21-.008.483.212.87.644a4.191,4.191,0,0,1,.841,1.506,12.815,12.815,0,0,1,2.942-1.578,8.305,8.305,0,0,1,2.43-.658,2.464,2.464,0,0,1,2.372,1.144,6.685,6.685,0,0,1,.75,3.9c-.059,1.717-.089,2.519-.148,4.011a.332.332,0,0,0,.149.357.815.815,0,0,0,.451.092l.51-.135.51-.114a.445.445,0,0,1,.18.082c.036.107.054.16.09.265,0,.156-.269.3-.84.437-.27.055-.69.161-1.2.313-.576.206-.864.307-1.44.508-.324.123-.486.184-.81.305l-.27-.052-.09-.165.06-.15a11.891,11.891,0,0,0,.629-4.132c0-3.113-1.082-4.975-3.213-4.863a4.713,4.713,0,0,0-2.881,1.434c0,.316,0,.473,0,.783.012.385.018.574.03.949-.011,1.448-.017,2.135-.029,3.435-.036,1-.053,1.48-.089,2.394-.684.192-1.026.287-1.71.473l-.18.026a.457.457,0,0,1-.18-.079c-.024-.117-.036-.175-.061-.294C725.233,431.069,725.232,430.024,725.232,427.746Z" fill="#231f20"/><path d="M750.257,431.453c-.212.036-.423.072-.575.081,0,0-.181.033-.515.122-1.242.28-2.665.7-4.331,1.195-.182.053-.273.079-.455.13l-.212-.054-.06-.147c.03-.044.109-.095.151-.159a2.159,2.159,0,0,1,.212-.229,1.39,1.39,0,0,0,.425-.557,13.5,13.5,0,0,0,.241-3.231c0-1.484,0-3,.03-4.508.023-2.979.035-4.621.059-8.227v-1.048a5.067,5.067,0,0,0-.121-.882c-.092-.454-.182-.75-.394-.737a3.743,3.743,0,0,0-1.544.6,4.5,4.5,0,0,1-1.119.536l-.182-.1-.06-.323c0-.329.362-.644,1.059-1.015l.272-.163a18.725,18.725,0,0,1,4.116-1.948,13.728,13.728,0,0,1,3.724-.772,7.945,7.945,0,0,1,5.361,1.39,6.207,6.207,0,0,1,2.334,5.221,7.437,7.437,0,0,1-2.724,6.087,11,11,0,0,1-6.268,2.313c-.7.057-1.03-.082-1.03-.445a.627.627,0,0,1,.09-.4l.394-.089.727-.059c3.634-.3,5.845-2.49,5.843-6.442a7.216,7.216,0,0,0-1.213-4.356,4.143,4.143,0,0,0-3.786-1.715c-1.453.09-2.634.79-2.845,1.561-.037.653-.055.974-.091,1.606-.03.7-.06,1.993-.09,3.746-.035,4.83-.053,6.914-.088,10.618a4.223,4.223,0,0,0,.212,1.777c.128.2.484.3,1,.267a5.983,5.983,0,0,0,1.15-.213,6.906,6.906,0,0,1,1.091-.237l.121.064c.024.094.036.141.061.235C751.227,431.16,750.894,431.321,750.257,431.453Z" fill="#231f20"/><path d="M759.625,431.621a12.207,12.207,0,0,1-1.56-.178c-.342-.071-.45-.159-.45-1.078v-1.157c.059-.335.239-.529.509-.549a.419.419,0,0,1,.3.054l.12.2v.18c0,1.228.961,1.8,2.76,1.686a7.562,7.562,0,0,0,3.03-.835c1.158-.6,1.738-1.327,1.738-2.215,0-.752-.511-1.066-1.8-.958l-1.5.125c-2.67.222-3.96-.5-3.961-2.42a4.688,4.688,0,0,1,1.409-3.352,5.817,5.817,0,0,1,3.688-1.676,9.668,9.668,0,0,1,1.68.022c.887.075,1.349.2,1.349.474a2.4,2.4,0,0,1-.179.946c-.148.342-.27.5-.419.545l-.51-.1a7.225,7.225,0,0,0-2.79-.328c-1.53.145-2.579,1.053-2.578,2.192,0,.854.63,1.323,1.859,1.407a9.454,9.454,0,0,0,1.681-.04,5.682,5.682,0,0,1,3.54.544,2.257,2.257,0,0,1,.93,2.044,3.748,3.748,0,0,1-2.217,3.363,10.28,10.28,0,0,1-4.379,1.1A17.294,17.294,0,0,1,759.625,431.621Z" fill="#231f20"/><path d="M776.153,428.906a6.041,6.041,0,0,0,2.19-.553,4.578,4.578,0,0,0,1.769-1.452l.36-.491a1.062,1.062,0,0,1,.51-.476.526.526,0,0,1,.27.092l.119.251a3.516,3.516,0,0,1-.6,1.264,17.981,17.981,0,0,1-1.558,2.06,2.831,2.831,0,0,1-1.29.931,10.252,10.252,0,0,1-2.221.3c-3.75.216-6.03-1.542-6.032-5.017a8.165,8.165,0,0,1,1.587-4.8,6.2,6.2,0,0,1,4.438-2.756,3.7,3.7,0,0,1,2.642.605,2.752,2.752,0,0,1,1.081,2.358c0,1.176-2.43,2.687-7.258,4.405A3.491,3.491,0,0,0,776.153,428.906Zm-.693-5.7a2.712,2.712,0,0,0,1.258-2.191,1.408,1.408,0,0,0-.481-1.106c-.149-.1-.269-.182-.359-.232a1.663,1.663,0,0,0-.84-.094,2.984,2.984,0,0,0-2.249,1.622,5.1,5.1,0,0,0-.749,2.671v.341l.03.366A8.271,8.271,0,0,0,775.46,423.207Z" fill="#231f20"/><path d="M788.8,429.161a12.328,12.328,0,0,1-2.189,1.1,3.36,3.36,0,0,1-3.091-1.173,6.51,6.51,0,0,1-.963-4.077c.047-1.945.071-2.92.118-4.9-.048-.494-.073-.743-.121-1.242a.479.479,0,0,0,.12-.1,2.831,2.831,0,0,1,.39-.221l.69-.312c.816-.409,1.224-.613,2.039-1.023.33-.034.481.071.481.312a1.162,1.162,0,0,1-.33.545,2.307,2.307,0,0,0-.45.617,4.7,4.7,0,0,0-.509,1.635,23.244,23.244,0,0,0-.148,3.009c0,3.664.843,4.9,3,4.746a9.135,9.135,0,0,0,3.629-1.361c0-2.618,0-3.9,0-6.482,0-1.145-.24-1.811-.69-2a.132.132,0,0,1-.121-.108.583.583,0,0,1,.361-.577l.179-.079c.06-.036.51-.262,1.38-.742l.84-.446c.24-.025.691.32.691.56l-.03.123a9.979,9.979,0,0,0-.27,1.889c-.035,1.092-.053,1.638-.088,2.734-.011,1.483-.017,2.226-.028,3.728.037,1.228.055,1.845.092,3.095l.029.28c0,.22-.335.523-1.019.972a5.332,5.332,0,0,1-1.26.665l-.12-.118-.031-.434v-1.207c.011-.371.018-.556.029-.925C790.368,428.255,789.846,428.56,788.8,429.161Z" fill="#231f20"/><path d="M804.468,427.053c-1.29,1.376-2.37,2.072-3.24,2.121a4.569,4.569,0,0,1-3.9-1.254,6.092,6.092,0,0,1-1.172-4.111,8.794,8.794,0,0,1,1.857-5.776,7.043,7.043,0,0,1,4.951-2.561l2.4.036c.011-1.17.017-1.75.028-2.9,0-1.379-.061-2.884-.212-4.512-.011-.137-.017-.206-.029-.343q-.045-.3.72-.481l.3-.078a7.954,7.954,0,0,0,.87-.259c.209-.07.51-.177.9-.343.432-.152.648-.228,1.081-.377.27.067.39.115.39.337,0,.084-.2.231-.57.485a2.012,2.012,0,0,0-.78.9,17.62,17.62,0,0,0-.389,4.637c0,1.492-.029,3.19-.059,5.195-.035,2.8-.052,4.231-.087,7.221,0,1.448.151,2.189.481,2.167a4.343,4.343,0,0,0,.96-.231l.66-.246a.982.982,0,0,1,.27.119.423.423,0,0,1,.09.3c0,.239-.269.462-.84.7l-.809.356a15.176,15.176,0,0,0-1.891,1l-.869.525a.478.478,0,0,1-.391-.184.494.494,0,0,1-.21-.33l.03-.239c.09-.852.15-1.354.15-1.554v-.166c-.012-.345-.019-.517-.031-.859Zm-.154-9.278a11.158,11.158,0,0,0-1.86-.184,8.72,8.72,0,0,0-.9.029c-2.521.248-3.421,1.29-3.42,4.375a5.819,5.819,0,0,0,.9,3.449,3.329,3.329,0,0,0,3.092,1.278c1.41-.1,2.67-.814,2.939-1.711a11.64,11.64,0,0,0,.18-1.821c.047-2.1.071-3.127.119-5.148C805.1,417.976,804.761,417.878,804.314,417.775Z" fill="#231f20"/><path d="M823.247,420.306a9.07,9.07,0,0,1-1.889,5.643,6.267,6.267,0,0,1-4.77,2.6c-3.481.178-5.671-2.526-5.673-6.568a8.427,8.427,0,0,1,1.679-5.375,6.487,6.487,0,0,1,4.742-2.445C820.967,413.859,823.247,415.924,823.247,420.306Zm-10.171.241a7.356,7.356,0,0,0,1.321,4.419,3.548,3.548,0,0,0,3.151,1.706,3.239,3.239,0,0,0,2.61-1.638,5.96,5.96,0,0,0,.9-3.242c0-4.115-1.832-6.33-4.562-6.1C814.215,415.887,813.075,417.436,813.076,420.547Z" fill="#231f20"/><path d="M836.177,426.3a3.921,3.921,0,0,1-.57.1,4.87,4.87,0,0,0-.509.172,32.95,32.95,0,0,0-4.289,1.835l-.45.214-.21-.108-.06-.268c.031-.078.109-.166.15-.276a3.311,3.311,0,0,1,.211-.392,2.658,2.658,0,0,0,.42-.929,33.663,33.663,0,0,0,.239-4.867c0-2.034,0-3.855.03-5.51.024-3.258.036-4.753.06-7.509v-.783a2.642,2.642,0,0,0-.12-.635c-.086-.3-.181-.521-.391-.512a4.678,4.678,0,0,0-1.529.423,5.789,5.789,0,0,1-1.111.389l-.18-.069-.06-.229c0-.231.36-.454,1.05-.71l.27-.112a19.891,19.891,0,0,1,4.082-1.257,20.631,20.631,0,0,1,3.691-.443,10.954,10.954,0,0,1,5.311.951,4.034,4.034,0,0,1,2.309,3.884,7.021,7.021,0,0,1-2.7,5.446,10.018,10.018,0,0,1-6.21,2.358c-.689.038-1.019-.137-1.019-.551a.75.75,0,0,1,.09-.449l.389-.086.72-.043a5.769,5.769,0,0,0,5.792-5.982,4.468,4.468,0,0,0-1.2-3.372,4.946,4.946,0,0,0-3.75-1.217c-1.441.04-2.612.477-2.822,1-.036.445-.054.671-.09,1.132-.03.513-.06,1.464-.09,2.96-.036,4.124-.054,6.429-.09,11.659a9.582,9.582,0,0,0,.21,2.654.93.93,0,0,0,.989.478,3.928,3.928,0,0,0,1.139-.271,4.41,4.41,0,0,1,1.08-.3l.119.106.06.37C837.136,425.879,836.806,426.118,836.177,426.3Z" fill="#231f20"/><path d="M847.832,426.292a5.779,5.779,0,0,1-2.79.925,2.563,2.563,0,0,1-2.7-2.757,5.109,5.109,0,0,1,2.161-4.092,15.153,15.153,0,0,1,6.152-2.627v-.373c0-2.371-.837-3.388-2.518-3.312a7.861,7.861,0,0,0-1.711.309c-.384.111-.576.165-.96.287l-.09-.059c-.011-.077-.017-.106-.029-.175a1.844,1.844,0,0,1,1.41-1.8,9.249,9.249,0,0,1,2.522-.35,3.83,3.83,0,0,1,2.849.724c.6.575.869,1.7.807,3.555-.048,1.714-.073,2.594-.122,4.409a6.992,6.992,0,0,0,.358,2.61,2.628,2.628,0,0,0,1.138,1.438l.9.249a.469.469,0,0,1,.54.487c.013.292-.429.617-1.23.906a5.318,5.318,0,0,1-1.531.377c-1.41.027-2.249-.955-2.577-3.135A10.128,10.128,0,0,1,847.832,426.292Zm-.685-6.3a3.794,3.794,0,0,0-2.192,3.242,2.052,2.052,0,0,0,.509,1.421,1.6,1.6,0,0,0,1.289.523,3.482,3.482,0,0,0,2.972-1.938,7.736,7.736,0,0,0,.991-3.955v-.312c-.012-.138-.018-.207-.029-.345A12.127,12.127,0,0,0,847.147,420Z" fill="#231f20"/><path d="M862.805,412.853a4.086,4.086,0,0,1,2.221-.967l.12.079.03.266c0,.6,0,.9,0,1.519a.7.7,0,0,1-.691.744l-.84.045a2.913,2.913,0,0,0-2.042.71,2.3,2.3,0,0,0-.451,1,10.088,10.088,0,0,0-.181,1.941c-.074,1.82-.11,2.751-.184,4.674-.031.887-.062,1.863-.122,2.9-.03.115-.342.383-.961.818a3.768,3.768,0,0,1-1.081.634l-.089-.038-.03-.273.03-.388c0-.542.039-1.867.093-3.812.036-1.284.061-2.327.062-3.071,0-.723,0-1.081,0-1.789,0-.875,0-1.306,0-2.159-.089-1.048-.388-1.567-.9-1.552a2.13,2.13,0,0,0-.51.048c-.114.04-.271.14-.481.246l-.6.251-.21-.127-.06-.4c0-.2.271-.348.781-.53.276-.1.414-.146.691-.242.39-.149.659-.238.81-.3,0,0,.45-.205,1.321-.63.432-.2.648-.306,1.079-.506l.3.048.119.159-.029.378c-.013.3-.019.455-.031.763s0,.413,0,.788c.012.24.018.361.03.6A8.251,8.251,0,0,1,862.805,412.853Z" fill="#231f20"/><path d="M871.614,426.061a5.639,5.639,0,0,1-2.792.833,2.665,2.665,0,0,1-2.7-2.868,5.073,5.073,0,0,1,2.163-4.108,14.026,14.026,0,0,1,6.154-2.436V417.1c0-2.456-.837-3.548-2.518-3.558a8.046,8.046,0,0,0-1.711.212c-.384.086-.576.126-.96.235l-.09-.068c-.012-.081-.017-.1-.029-.167,0-.819.48-1.352,1.411-1.641a9.421,9.421,0,0,1,2.521-.221,4.065,4.065,0,0,1,2.85.836c.6.584.869,1.724.807,3.643-.049,1.772-.074,2.672-.123,4.514a7.218,7.218,0,0,0,.358,2.651,2.758,2.758,0,0,0,1.14,1.483l.9.283a.488.488,0,0,1,.54.5c.013.289-.428.593-1.23.85a5.291,5.291,0,0,1-1.531.318c-1.411-.022-2.25-1.017-2.579-3.225A9.574,9.574,0,0,1,871.614,426.061Zm-.685-6.416a3.71,3.71,0,0,0-2.193,3.23,2.164,2.164,0,0,0,.509,1.46,1.653,1.653,0,0,0,1.29.574,3.329,3.329,0,0,0,2.973-1.843,7.71,7.71,0,0,0,.992-3.987v-.321l-.029-.356A11.282,11.282,0,0,0,870.929,419.645Z" fill="#231f20"/><path d="M888.9,425.023c-1.291,1.381-2.372,2.072-3.243,2.044a4.588,4.588,0,0,1-3.9-1.85,8.72,8.72,0,0,1-1.168-4.957c0-2.771.648-5.139,1.866-6.312a6.34,6.34,0,0,1,4.95-1.627c.961.146,1.441.221,2.4.375.012-1.046.018-1.562.03-2.58a37.677,37.677,0,0,0-.208-3.977l-.029-.3q-.045-.261.72-.341l.3-.036a8.067,8.067,0,0,0,.87-.136c.209-.039.51-.1.9-.208l1.08-.223c.27.088.39.144.39.344,0,.075-.2.186-.57.372a1.6,1.6,0,0,0-.781.713,13.517,13.517,0,0,0-.391,4.083c0,1.335-.031,2.533-.062,4.759-.038,3.111-.057,4.7-.1,7.965,0,1.586.15,2.407.48,2.424a3.9,3.9,0,0,0,.96-.134l.661-.183a1.128,1.128,0,0,1,.269.16.522.522,0,0,1,.09.333c0,.255-.27.459-.84.651l-.81.291a11.935,11.935,0,0,0-1.892.883c-.348.195-.522.293-.87.491a.511.511,0,0,1-.39-.24.618.618,0,0,1-.21-.384l.03-.261c.091-.933.151-1.483.152-1.7v-.185c-.012-.384-.018-.575-.03-.956C889.292,424.6,889.159,424.739,888.9,425.023Zm-.145-10.41a9.245,9.245,0,0,0-1.859-.467c-.3-.043-.6-.085-.9-.1-2.52-.123-3.421.847-3.423,4.389a8.155,8.155,0,0,0,.9,4.1,3.583,3.583,0,0,0,3.09,1.842c1.41.055,2.671-.587,2.941-1.55a13.931,13.931,0,0,0,.182-2c.049-2.336.074-3.479.123-5.732C889.53,414.969,889.2,414.8,888.75,414.613Z" fill="#231f20"/><path d="M899.692,426.657c-.036.184-.054.276-.091.461-.029.107-.149.171-.33.233-.684.233-1.026.352-1.71.593a.491.491,0,0,1-.18-.338c-.024-.643-.035-.963-.059-1.6,0-3.48,0-5.163,0-8.473a7.25,7.25,0,0,0-.239-2.41.9.9,0,0,0-.84-.447l-.42.047-.33.054a.542.542,0,0,1-.36-.52c0-.136.3-.249.87-.337l.99-.16c.96-.231,1.44-.345,2.4-.569.33.139.48.29.48.453l-.03.325c0,.382-.031,1.037-.06,2.323-.025.838-.037,1.259-.062,2.106C899.711,421.629,899.705,423.271,899.692,426.657Zm.186-18.859a1.406,1.406,0,0,1-1.621,1.264,1.886,1.886,0,0,1-1.139-.478,1.331,1.331,0,0,1,1.14-2.3A1.645,1.645,0,0,1,899.878,407.8Z" fill="#231f20"/><path d="M903.817,428a9.744,9.744,0,0,1-1.56-.5c-.341-.154-.45-.32-.45-1.627v-1.619c.059-.45.24-.679.51-.656a.388.388,0,0,1,.3.129l.12.289v.244a2.625,2.625,0,0,0,2.76,2.8,5.674,5.674,0,0,0,3.03-.613,2.709,2.709,0,0,0,1.74-2.5c0-.937-.51-1.429-1.8-1.571-.6-.066-.9-.1-1.5-.161-2.668-.281-3.958-1.5-3.958-3.838a4.081,4.081,0,0,1,1.41-3.426,4.992,4.992,0,0,1,3.69-.768,10.827,10.827,0,0,1,1.679.39c.889.269,1.35.5,1.35.751a1.91,1.91,0,0,1-.18.849c-.148.289-.27.414-.42.42l-.51-.215a8.329,8.329,0,0,0-2.789-.941c-1.53-.2-2.58.437-2.58,1.776,0,1,.629,1.714,1.86,2.091a8.629,8.629,0,0,0,1.679.333,5.9,5.9,0,0,1,3.539,1.47,3.569,3.569,0,0,1,.929,2.647,4.037,4.037,0,0,1-2.219,3.781,7.9,7.9,0,0,1-4.38.79A12.841,12.841,0,0,1,903.817,428Z" fill="#231f20"/><path d="M920.344,427.427a5.289,5.289,0,0,0,2.188-.158,3.6,3.6,0,0,0,1.769-1.155l.36-.428a.76.76,0,0,1,.51-.369.686.686,0,0,1,.269.162l.12.289a2.92,2.92,0,0,1-.6,1.168,17.292,17.292,0,0,1-1.559,1.855,2.317,2.317,0,0,1-1.29.777,9.28,9.28,0,0,1-2.218-.046c-3.748-.381-6.027-3.018-6.027-7.087a7.827,7.827,0,0,1,1.59-5.007,4.277,4.277,0,0,1,4.437-1.46,4.783,4.783,0,0,1,2.638,1.342,3.689,3.689,0,0,1,1.08,2.693c0,1.211-2.428,2-7.256,2.8C916.626,425.407,918.155,427.16,920.344,427.427Zm-.69-6.455a2.137,2.137,0,0,0,1.26-1.978,1.875,1.875,0,0,0-.48-1.265c-.15-.145-.269-.255-.36-.33a2.225,2.225,0,0,0-3.088.669,4.884,4.884,0,0,0-.75,2.736v.384l.03.42A6.745,6.745,0,0,0,919.654,420.972Z" fill="#231f20"/></g><path d="M483.552,911.48a1.01,1.01,0,0,0,.57.485,4.7,4.7,0,0,0,1.608.184h16.784l1-.536.8-7.638.636-.235q.135,1.575.151,2.161t.017,1.223a20.829,20.829,0,0,1-.8,6h-22.01c-.514-.2-.771-.458-.771-.771q0-.4.821-1.141a3.972,3.972,0,0,0,.922-1.006q4.621-5.5,6.264-7.38,3.182-3.69,6.5-7.379,3.181-3.555,6.734-7.313.234-.369-.2-.536-1.239-.2-1.675-.269l-15.545.269-.468.235-.537,6.364a2.3,2.3,0,0,0-.452.1.685.685,0,0,1-.519,0,6.1,6.1,0,0,1-.235-1.127,10.2,10.2,0,0,1-.067-1.161q0-.707.151-2.137t.151-2.035a2.772,2.772,0,0,1-.1-.6v-.405l.8-.4h20.671l.469.134a.479.479,0,0,1,.368.468v.5q-3.551,3.346-7.739,7.9-2.078,2.275-7.136,8.029Q486.03,908.805,483.552,911.48Z" fill="#231f20"/><path d="M527.975,890.039a23.59,23.59,0,0,0-.286,2.379q-.082,1.206-.084,2.78v4.054a27.922,27.922,0,0,1-.6,6.532,12.722,12.722,0,0,1-1.572,3.685,8.569,8.569,0,0,1-2.877,2.245,11.766,11.766,0,0,1-4.482,1.272,9.692,9.692,0,0,1-1.973.2,11.66,11.66,0,0,1-3.094-.418,12.672,12.672,0,0,1-2.693-1.054,6.612,6.612,0,0,1-2.608-2.644q-.5-.836-.97-1.706l-.168-19.3a4.3,4.3,0,0,0-2.328-.468q-1.891-.067-1.892-.8.77-.115,1.792-.176t2.227-.058h1.407q.57,0,.939-.027,1.473-.107,1.574-.107h.737a5.732,5.732,0,0,1,1.089.084.628.628,0,0,1,.519.351.564.564,0,0,1-.4.419,2.925,2.925,0,0,1-.938.118h-.871a4.346,4.346,0,0,0-1.34.167l-.6.234q0,2.477-.1,5.119-.27,7.026-.269,8,0,1.874.1,3.614t.369,3.78a10.473,10.473,0,0,0,1.608,2.208,6.447,6.447,0,0,0,3.25,1.573,16.7,16.7,0,0,0,3.047.267,17.454,17.454,0,0,0,2.061-.1,7.607,7.607,0,0,0,1.726-.437q3.986-1.443,5.158-4.569.671-3.8,1.006-5.61l-.168-11.927a1.853,1.853,0,0,0-1.156-.621,10.849,10.849,0,0,0-1.994-.151h-1.272c-.2-.022-.3-.094-.3-.219a2.157,2.157,0,0,1,.033-.374,27.481,27.481,0,0,1,2.864-.25q1.592-.062,3.468-.062h4.59a.376.376,0,0,1,.3.368.454.454,0,0,1-.134.335,2.113,2.113,0,0,1-.686.168q-.385.035-.956.034h-1.239a8.8,8.8,0,0,0-1.356.084.579.579,0,0,0-.52.653Z" fill="#231f20"/><path d="M556.549,888.2q0,4.1.034,8.273t.083,8.338q.051,4.161.051,8.255a.7.7,0,0,1-.436.117c-.223.011-.391.017-.5.017q-2.814-3.926-6.029-8.088t-6.365-8.254q-3.72-4.832-6.164-8.222h-.269q0,3.458-.05,7.113t-.084,7.381q-.033,3.723-.033,7.515a1.481,1.481,0,0,0,.637.268,5.111,5.111,0,0,0,.9.068q.3,0,.972-.034c.446-.022.77-.034.972-.034a4.666,4.666,0,0,1,.836.068,1.106,1.106,0,0,1,.6.3v.335q-1.809.235-4.322.319t-5.226.083a.568.568,0,0,1-.435-.536.409.409,0,0,1,.267-.369,13.461,13.461,0,0,0,2.094-.133,1.669,1.669,0,0,0,1.156-.6q.166-1.539.235-3.266t.067-3.4q0-2.613-.117-5.243t-.235-5.729q-.118-3.1-.118-4.874a1.172,1.172,0,0,0-.7-.425,5.383,5.383,0,0,0-1.206-.111c-.38,0-.766.008-1.155.023s-.766.03-1.123.045a2.572,2.572,0,0,1-1.072-.165.541.541,0,0,1-.268-.631,15.329,15.329,0,0,1,1.943-.208q.9-.035,2.412-.035h3.216a8.577,8.577,0,0,1,2.513,2.617l1.139,1.744q2.076,2.482,4.756,6.307,2.212,3.253,4.456,6.474,2.714,3.893,4.858,6.476h.5l.268-1.34q0-4.725-.05-7.5t-.218-5.9q-.168-3.115-.57-6.532a1.481,1.481,0,0,0-1.105-.5q-.771-.066-1.541-.066h-.4a5.8,5.8,0,0,1-1.19-.084.419.419,0,0,1-.351-.452v-.269q2.526,0,5.09-.033l5.092-.067a.292.292,0,0,1,.168.259.275.275,0,0,1-.167.227,14.613,14.613,0,0,1-1.808.179A7.906,7.906,0,0,0,556.549,888.2Z" fill="#231f20"/><path d="M558.794,892.091c-.224-.156-.335-.3-.335-.438s.356-.481,1.071-1.041q.537-.4.536-.74a.606.606,0,0,0-.1-.3,13.3,13.3,0,0,0-1.441-.638,1.848,1.848,0,0,1-1.038-.773q0-1.01,1.541-1.411a11.11,11.11,0,0,1,2.362.2,1.448,1.448,0,0,1,1.123.774,2.731,2.731,0,0,1,.234,1.007,2.479,2.479,0,0,1-1.173,1.882A12.447,12.447,0,0,1,558.794,892.091Z" fill="#231f20"/><path d="M572.7,912.82a10.443,10.443,0,0,1-2.948.368,14.129,14.129,0,0,1-5.327-.972.674.674,0,0,0-.7.486.656.656,0,0,1-.67.486,2.03,2.03,0,0,1-.4-.034,3.938,3.938,0,0,1-.3-1.206,14.392,14.392,0,0,1-.068-1.44V909.1c0-.269-.011-.564-.033-.888a5.1,5.1,0,0,0-.134-.888,2.538,2.538,0,0,1,.536-.335l.871.2a8.572,8.572,0,0,0,.737,2.832,4.545,4.545,0,0,0,3.183,2.024,5.588,5.588,0,0,0,1.021.135q.62.033.721.033a13.079,13.079,0,0,0,1.541-.084,12.265,12.265,0,0,0,1.507-.284,10.14,10.14,0,0,0,1.943-1.106,1.859,1.859,0,0,0,.871-1.44,1.34,1.34,0,0,0-.134-.6q-1.038-1-4.59-1.222a13.526,13.526,0,0,1-4.69-.821,7.032,7.032,0,0,1-2.746-1.91,3.774,3.774,0,0,1-.939-2.445,4.24,4.24,0,0,1,1.373-2.982,7.359,7.359,0,0,1,3.753-1.942,12.592,12.592,0,0,1,1.256-.2,12.921,12.921,0,0,1,1.391-.068,12.2,12.2,0,0,1,3.064.377,6.6,6.6,0,0,1,2.4,1.1c.268-.066.452-.307.553-.72s.462-.586,1.088-.519a8.475,8.475,0,0,1,.2,1.843q0,.938-.068,1.708-.234,2.748-.234,2.948a.856.856,0,0,1-.67.2h-.5q-.4-1.566-.771-3.131a4.321,4.321,0,0,0-3.014-2.5,6.288,6.288,0,0,0-1.742-.232,8.732,8.732,0,0,0-1.86.216,14.668,14.668,0,0,0-1.892.552,4.493,4.493,0,0,0-1.743,1.572,3.852,3.852,0,0,0-.535,2,3.814,3.814,0,0,0,.067.8,6.66,6.66,0,0,0,.268.835q.6,1.5,3.853,2.006,2.846.336,5.728.669,2.914.569,2.914,2.306a4.043,4.043,0,0,1-1.222,2.189A6.72,6.72,0,0,1,572.7,912.82Z" fill="#231f20"/><path d="M614.169,889.436l-.939,22.143c-.044.178.04.335.252.474a3.123,3.123,0,0,0,.854.36,4.155,4.155,0,0,0,.67.037h1.575a6.163,6.163,0,0,1,.938.06.612.612,0,0,1,.5.443l-.5.235h-9.547l-.236-.2c-.111-.1-.089-.173.068-.232q.367-.067,1.926-.186t1.959-.655q.336-3.265.453-6.967t.117-8.177v-5.184c.179-.021.268-.078.268-.168,0-.045-.073-.129-.217-.252s-.218-.23-.218-.32a54.721,54.721,0,0,0-3.015,5.226q-.67,1.307-2.613,5.427-1.508,3.216-2.68,5.394l-1.608,3.014q-.973,1.809-1.742,2.982a22.247,22.247,0,0,1-2.446-3.685q-1.072-1.943-2.11-3.886-1.073-1.775-2.78-5.025-2.112-4.02-2.714-5.092a54.5,54.5,0,0,0-3.082-4.925l-.5.771v19.329q.335.8,2.58.871a12.536,12.536,0,0,1,2.813.269l-.435.4H581.372v-.6l2.211-.134q1.208-.168,1.508-.8,0-2.513.1-4.958t.235-5.275q.133-2.832.134-4.406,0-2.379-.1-4.07a36.338,36.338,0,0,0-.469-3.869,3.062,3.062,0,0,0-1.105-.335,9.495,9.495,0,0,0-1.34-.1H580.2v-.77a1.915,1.915,0,0,0,.368.033H581q.435,0,1.926-.1t2.228-.1a6.584,6.584,0,0,1,1.708.184,1.846,1.846,0,0,1,1.038.686q1.876,3.813,3.853,7.627,1.575,3.045,4.02,7.594,2.044,3.814,4.155,7.56a2.857,2.857,0,0,0,.435.235.318.318,0,0,0,.335-.068q1.171-2.01,2.612-4.824.537-1.071,2.413-4.891,1.608-3.317,2.445-4.89,2.043-4.088,4.087-8.208H620.6a.286.286,0,0,1,.2.3,1.9,1.9,0,0,0-.033.3q-.6.1-3.686.134T614.169,889.436Z" fill="#231f20"/><path d="M638.59,912.92l-5.762.268a2.844,2.844,0,0,1-.4-1.19,2.577,2.577,0,0,0-.4-1.155,16.765,16.765,0,0,1-3.047,1.507,11.429,11.429,0,0,1-3.954.737,6.9,6.9,0,0,1-4.992-1.742,5.919,5.919,0,0,1-1.591-2.5,10.781,10.781,0,0,1-.418-3.166q0-.771.1-2.279t.1-2.277q0-.671-.034-1.206a6.014,6.014,0,0,0-.167-1.072,1.738,1.738,0,0,0-.837-.487,4.523,4.523,0,0,0-1.206-.15c-.291,0-.811.016-1.558.051s-1.146.049-1.19.049h-.8v-.669q2.277-.236,3.384-.335,2.142-.2,3.45-.2c.513.157.77.335.77.537q0,1.071-.066,2.378-.168,3.249-.168,4.087a20.012,20.012,0,0,0,.252,3.35,10.5,10.5,0,0,0,.988,2.948,3.329,3.329,0,0,0,1.088.9,6.651,6.651,0,0,0,1.726.636c.268.023.5.039.7.05s.356.017.468.017a9.561,9.561,0,0,0,2.228-.251,14.708,14.708,0,0,0,2.127-.687,6.713,6.713,0,0,0,2.58-2.747,7.356,7.356,0,0,0,.636-3.183,17.453,17.453,0,0,0-.2-2.529q-.2-1.356-.37-2.663a3.489,3.489,0,0,0-1.021-.419,5.268,5.268,0,0,0-1.155-.117q-.436,0-1.408.1t-1.507.1c-.4,0-.7-.009-.888-.025a5.61,5.61,0,0,1-.855-.176q-.2-.256.135-.477.134-.072.67-.294.837,0,2.579-.1t2.579-.1c.738,0,1.262.017,1.576.051a8.907,8.907,0,0,1,1.239.251v13.065a3.914,3.914,0,0,0,1.155.268q.687.067,1.424.067.771,0,1.592.017a7.517,7.517,0,0,1,1.424.15c.088.134.066.235-.068.3A6.612,6.612,0,0,0,638.59,912.92Z" fill="#231f20"/><path d="M645.859,912.82a10.443,10.443,0,0,1-2.948.368,14.129,14.129,0,0,1-5.327-.972.675.675,0,0,0-.7.486.656.656,0,0,1-.67.486,2.03,2.03,0,0,1-.4-.034,3.938,3.938,0,0,1-.3-1.206,14.392,14.392,0,0,1-.068-1.44V909.1c0-.269-.011-.564-.033-.888a5.1,5.1,0,0,0-.134-.888,2.538,2.538,0,0,1,.536-.335l.871.2a8.6,8.6,0,0,0,.737,2.832,4.545,4.545,0,0,0,3.183,2.024,5.588,5.588,0,0,0,1.021.135q.62.033.721.033a13.079,13.079,0,0,0,1.541-.084,12.2,12.2,0,0,0,1.507-.284,10.14,10.14,0,0,0,1.943-1.106,1.859,1.859,0,0,0,.871-1.44,1.34,1.34,0,0,0-.134-.6q-1.038-1-4.59-1.222a13.526,13.526,0,0,1-4.69-.821,7.032,7.032,0,0,1-2.746-1.91,3.774,3.774,0,0,1-.939-2.445,4.238,4.238,0,0,1,1.374-2.982,7.359,7.359,0,0,1,3.752-1.942,12.592,12.592,0,0,1,1.256-.2,12.921,12.921,0,0,1,1.391-.068,12.2,12.2,0,0,1,3.064.377,6.6,6.6,0,0,1,2.4,1.1c.268-.066.452-.307.553-.72s.463-.586,1.088-.519a8.475,8.475,0,0,1,.2,1.843q0,.938-.068,1.708-.234,2.748-.234,2.948a.856.856,0,0,1-.67.2h-.5q-.4-1.566-.77-3.131a4.325,4.325,0,0,0-3.015-2.5,6.288,6.288,0,0,0-1.742-.232,8.739,8.739,0,0,0-1.86.216,14.668,14.668,0,0,0-1.892.552,4.482,4.482,0,0,0-1.742,1.572,4.212,4.212,0,0,0-.469,2.807,6.66,6.66,0,0,0,.268.835q.6,1.5,3.853,2.006,2.846.336,5.728.669,2.914.569,2.914,2.306a4.043,4.043,0,0,1-1.222,2.189A6.72,6.72,0,0,1,645.859,912.82Z" fill="#231f20"/><path d="M648.708,913.422a.748.748,0,0,1-.27-.5q0-.435,1.977-.62t2.278-.754V900.022a2.186,2.186,0,0,0-.887-.453,5.233,5.233,0,0,0-1.19-.117q-.6,0-1.608.084c-.67.056-1.038.084-1.106.084a3.29,3.29,0,0,1-.887-.1,1.121,1.121,0,0,1-.586-.4,8.507,8.507,0,0,1,2.714-.569q2.845-.268,3.082-.3a12.246,12.246,0,0,1,1.59.084,1.538,1.538,0,0,1,.888.352l-.2,13.365a1.51,1.51,0,0,0,.821.369,6.551,6.551,0,0,0,1.189.1h1.306a4.075,4.075,0,0,1,1.089.113.463.463,0,0,1,.386.468v.323Zm5.627-17.387a2.127,2.127,0,0,1-1.173-.3.872.872,0,0,1-.469-.737.927.927,0,0,1,.167-.469,1.307,1.307,0,0,1,1.106-.4,2.23,2.23,0,0,1,.938.185.641.641,0,0,1,.436.485.877.877,0,0,1-.084.77A1.351,1.351,0,0,1,654.335,896.035Z" fill="#231f20"/><path d="M669.945,912.618a14.5,14.5,0,0,1-4.22.57,16.111,16.111,0,0,1-2.413-.168,8.869,8.869,0,0,1-2.077-.57,9.143,9.143,0,0,1-3.45-3.1,7.239,7.239,0,0,1-1.105-3.87,7.686,7.686,0,0,1,.434-2.529,9.58,9.58,0,0,1,1.24-2.395,10.781,10.781,0,0,1,7.973-3.451,11.516,11.516,0,0,1,4.523.838,7.2,7.2,0,0,1,2.814,2.043,1.126,1.126,0,0,1,.368.8,1.677,1.677,0,0,1-.168.7,7.836,7.836,0,0,1-.368.7.822.822,0,0,1-.368.269q-.2.068-1.374.267a1.683,1.683,0,0,1-1-.267q-.4-.4-.586-.62a.635.635,0,0,1-.184-.385c0-.2.345-.514,1.039-.939.356-.222.535-.413.535-.569q0-.2-.335-.5a6.852,6.852,0,0,0-4.489-1.306,11.589,11.589,0,0,0-1.474.1,7.794,7.794,0,0,0-4.422,1.977,10.14,10.14,0,0,0-2.043,3.048c-.067.358-.135.771-.2,1.24a8.759,8.759,0,0,0-.1,1.24,6.906,6.906,0,0,0,.5,2.68,6.02,6.02,0,0,0,1.81,2.278q1.106.5,2.4,1.005a6.858,6.858,0,0,0,2.5.5,5.039,5.039,0,0,0,1-.1,9.767,9.767,0,0,0,4.691-1.206,25.326,25.326,0,0,0,3.283-2.311H675q.166,1.34-2.312,2.714Q671.788,911.813,669.945,912.618Z" fill="#231f20"/><path d="M693.73,913.188a15.88,15.88,0,0,1-5.594-.9,14.632,14.632,0,0,1-3.785-2.178,13.308,13.308,0,0,1-3.049-4.388,12.8,12.8,0,0,1-.972-4.958,15.763,15.763,0,0,1,.9-5.209,20.726,20.726,0,0,1,2.614-5.042l1.34-1.34A5.7,5.7,0,0,1,686.9,888a8.339,8.339,0,0,1,2.748-1.139,14.45,14.45,0,0,1,3.516-.435,13.121,13.121,0,0,1,2.362.2,7.219,7.219,0,0,1,1.994.663,4.932,4.932,0,0,1,1.273.93q1.674,1.626,1.775,1.692a1.94,1.94,0,0,0,.369-.971,2.414,2.414,0,0,1,.4-1.073l.736-.1a4.063,4.063,0,0,1,.369,1.775,12.936,12.936,0,0,1-.268,2.145,12.979,12.979,0,0,0-.268,2.177,10.3,10.3,0,0,0,.117,1.324,10.778,10.778,0,0,1,.118,1.088,3.116,3.116,0,0,1-.118.938,2.553,2.553,0,0,1-.519.838l-.6-.234a24.147,24.147,0,0,1-.72-3.561,9.563,9.563,0,0,0-1.457-4.195,7.755,7.755,0,0,0-4.657-2.63,4.967,4.967,0,0,0-.6-.033h-.5a10.868,10.868,0,0,0-3.618.586,7.3,7.3,0,0,0-2.714,1.587,15.03,15.03,0,0,0-3.567,5,14.2,14.2,0,0,0-1.19,5.671,14.886,14.886,0,0,0,.637,4.366,17.268,17.268,0,0,0,1.942,4.166,22.771,22.771,0,0,0,3.15,2.475,9.4,9.4,0,0,0,4.79,1.238,8.73,8.73,0,0,0,5.662-1.784,15.777,15.777,0,0,0,2.847-3.5l.771-2.154a1.25,1.25,0,0,1,.569.118.49.49,0,0,1,.235.487,2.424,2.424,0,0,1-.118.538,2.422,2.422,0,0,0-.117.573,12.82,12.82,0,0,1-2.646,4.137A8.058,8.058,0,0,1,693.73,913.188Z" fill="#231f20"/><path d="M713.562,912.12a15.052,15.052,0,0,1-2.613.784,13.819,13.819,0,0,1-2.814.284,8.942,8.942,0,0,1-1.943-.2,8.613,8.613,0,0,1-5.36-3.236,8.042,8.042,0,0,1-1.272-4.637,6.874,6.874,0,0,1,1.373-4.171,9.709,9.709,0,0,1,4.455-3.169,11.086,11.086,0,0,1,4.087-.667h.9a14.2,14.2,0,0,1,1.541.167,7.478,7.478,0,0,1,2.345.768,18.048,18.048,0,0,1,1.976,1.267,7.614,7.614,0,0,1,2.312,5.338Q718.554,908.984,713.562,912.12ZM708.4,898.112a7.8,7.8,0,0,0-4.489,1.8,9.574,9.574,0,0,0-2.311,3.067q-.135,1.1-.151,1.584c-.012.323-.016.584-.016.784a7.007,7.007,0,0,0,.97,3.868,7.522,7.522,0,0,0,4.222,2.9,10.917,10.917,0,0,0,2.143.2,7.241,7.241,0,0,0,2.848-.5,8.686,8.686,0,0,0,3.819-3.034,6.745,6.745,0,0,0,1.172-3.867,8.7,8.7,0,0,0-1.44-4.735,5.969,5.969,0,0,0-2.345-1.551,9.38,9.38,0,0,0-3.35-.55C709.006,898.079,708.648,898.091,708.4,898.112Z" fill="#231f20"/><path d="M724.383,913.188q-1.173-.1-2.312-.1-1.106,0-2.211.033l-2.211.068a19.626,19.626,0,0,1-2.881-.209.341.341,0,0,1-.167-.312.744.744,0,0,0-.034-.277,2.466,2.466,0,0,1,.7-.139q.435-.034.837-.035h.771a6.054,6.054,0,0,0,1.122-.083,1.583,1.583,0,0,0,.754-.385,13.356,13.356,0,0,0,.9-4.31q.168-2.571.268-3.541l-.167-16a1.109,1.109,0,0,0-.6-.3,5.594,5.594,0,0,0-.971-.068c-.247,0-.636.023-1.172.068s-.916.066-1.14.066q-1.305,0-1.105-.77,2.444-.234,4.924-.469a4.845,4.845,0,0,1,2.111.368q0,3.545-.167,8.076t-.319,9q-.15,4.465-.151,7.743a5.679,5.679,0,0,0,2.245.484q1.742.15,1.943.753Z" fill="#231f20"/><path d="M730.01,913.188q-1.173-.1-2.312-.1-1.106,0-2.211.033l-2.211.068a19.626,19.626,0,0,1-2.881-.209.341.341,0,0,1-.167-.312.744.744,0,0,0-.034-.277,2.466,2.466,0,0,1,.7-.139q.436-.034.838-.035h.771a6.054,6.054,0,0,0,1.122-.083,1.583,1.583,0,0,0,.754-.385,13.356,13.356,0,0,0,.9-4.31q.167-2.571.268-3.541l-.167-16a1.112,1.112,0,0,0-.6-.3,5.594,5.594,0,0,0-.971-.068c-.247,0-.636.023-1.172.068s-.916.066-1.14.066q-1.305,0-1.105-.77,2.444-.234,4.924-.469a4.848,4.848,0,0,1,2.111.368q0,3.545-.167,8.076t-.319,9q-.15,4.465-.151,7.743a5.679,5.679,0,0,0,2.245.484q1.741.15,1.942.753Z" fill="#231f20"/><path d="M740.8,912.518a8.907,8.907,0,0,1-1.876.5,13.632,13.632,0,0,1-2.178.168,11.8,11.8,0,0,1-2.178-.2,9.822,9.822,0,0,1-4.958-2.881,6.187,6.187,0,0,1-1.574-4.187,6.275,6.275,0,0,1,.1-1.106,8.584,8.584,0,0,1,1.541-3.986,10.439,10.439,0,0,1,4.522-3.182,9.287,9.287,0,0,1,3.317-.537,11.974,11.974,0,0,1,2.864.335,6.329,6.329,0,0,1,2.227.972,7.005,7.005,0,0,1,1.927,1.96,4.233,4.233,0,0,1,.753,2.328,4.37,4.37,0,0,1-.1.9l-1.006.57H730.713a4.516,4.516,0,0,0-.8,2.546,4.945,4.945,0,0,0,2.68,4.288,6.7,6.7,0,0,0,2.128.8,12.216,12.216,0,0,0,2.562.268,14.976,14.976,0,0,0,1.742-.1,7.541,7.541,0,0,0,4.121-2.344,16.752,16.752,0,0,0,2.044-3.317.567.567,0,0,1,.752.352,3.789,3.789,0,0,0,.218.519,5.758,5.758,0,0,1-1.876,2.948A15.45,15.45,0,0,1,740.8,912.518Zm1-12.8a6.064,6.064,0,0,0-1.977-1.122,7.6,7.6,0,0,0-2.579-.419h-.871c-.269.067-.458.113-.57.135q-4.555,1.63-4.824,4.722h6.4q2.211,0,3.115-.051t2.714-.217a4.1,4.1,0,0,0-.318-1.641A4.029,4.029,0,0,0,741.8,899.721Z" fill="#231f20"/><path d="M757.948,912.618a14.5,14.5,0,0,1-4.22.57,16.1,16.1,0,0,1-2.413-.168,8.869,8.869,0,0,1-2.077-.57,9.143,9.143,0,0,1-3.45-3.1,7.239,7.239,0,0,1-1.105-3.87,7.686,7.686,0,0,1,.434-2.529,9.58,9.58,0,0,1,1.24-2.395,10.781,10.781,0,0,1,7.973-3.451,11.516,11.516,0,0,1,4.523.838,7.2,7.2,0,0,1,2.814,2.043,1.126,1.126,0,0,1,.368.8,1.693,1.693,0,0,1-.168.7,7.836,7.836,0,0,1-.368.7.822.822,0,0,1-.368.269q-.2.068-1.374.267a1.683,1.683,0,0,1-1-.267q-.4-.4-.586-.62a.638.638,0,0,1-.185-.385q0-.3,1.04-.939c.356-.222.535-.413.535-.569q0-.2-.335-.5a6.852,6.852,0,0,0-4.489-1.306,11.577,11.577,0,0,0-1.474.1,7.794,7.794,0,0,0-4.422,1.977,10.122,10.122,0,0,0-2.043,3.048c-.067.358-.135.771-.2,1.24a8.759,8.759,0,0,0-.1,1.24,6.906,6.906,0,0,0,.5,2.68,6.02,6.02,0,0,0,1.81,2.278q1.106.5,2.395,1.005a6.858,6.858,0,0,0,2.5.5,5.039,5.039,0,0,0,1-.1,9.767,9.767,0,0,0,4.691-1.206,25.326,25.326,0,0,0,3.283-2.311h.335q.167,1.34-2.312,2.714Q759.791,911.813,757.948,912.618Z" fill="#231f20"/><path d="M772.955,913.054a11.329,11.329,0,0,1-1.842.134,12.353,12.353,0,0,1-2.278-.2,8.633,8.633,0,0,1-1.909-.569,4.575,4.575,0,0,1-2.78-3.853q-.135-1.307-.236-2.613,0-1.037.5-5.058a26.555,26.555,0,0,0,.234-3.216q0-1.106-.049-1.558t-.218-1.256a1.662,1.662,0,0,0-.821-.3,9.631,9.631,0,0,0-1.223-.068q-.4,0-.8.018c-.268.01-.536.016-.8.016a3.729,3.729,0,0,1-1.442-.175.744.744,0,0,1-.4-.562,15.729,15.729,0,0,1,2.311-.5q2.679-.468,3.4-1.323a4.756,4.756,0,0,0,.853-2.73,4.5,4.5,0,0,1,1.006-2.814H767.5a3.473,3.473,0,0,1,.1.842,9.81,9.81,0,0,1-.068,1.212q-.234,1.92-.234,2.122a5.457,5.457,0,0,0,.084,1.094,4.128,4.128,0,0,0,.351.926,14.726,14.726,0,0,0,2.68.236q.972,0,1.927-.034l1.926-.066q1.072,0,1.541.05a12.162,12.162,0,0,1,1.34.251q0,.276-.4.507a1.85,1.85,0,0,1-.938.23h-.5q-.57.1-3.937.185t-4.338.887l-.8,14.238a4.549,4.549,0,0,0,1.072,1.641,5.646,5.646,0,0,0,3.518,1.239,6.34,6.34,0,0,0,1.792-.251,7.777,7.777,0,0,0,1.625-.686,4.635,4.635,0,0,0,1.507-1.441q1.742-2.613,1.776-2.647a1.862,1.862,0,0,1,.887.151.5.5,0,0,1,.251.453,1.879,1.879,0,0,1-.117.485,1.883,1.883,0,0,0-.117.486,6.488,6.488,0,0,1-1.876,2.613A9.089,9.089,0,0,1,772.955,913.054Z" fill="#231f20"/><path d="M776.106,913.422a.751.751,0,0,1-.269-.5q0-.435,1.976-.62t2.279-.754V900.022a2.2,2.2,0,0,0-.888-.453,5.223,5.223,0,0,0-1.189-.117q-.6,0-1.609.084t-1.1.084a3.293,3.293,0,0,1-.888-.1,1.125,1.125,0,0,1-.586-.4,8.513,8.513,0,0,1,2.714-.569q2.845-.268,3.082-.3a12.252,12.252,0,0,1,1.591.084,1.541,1.541,0,0,1,.888.352l-.2,13.365a1.514,1.514,0,0,0,.822.369,6.54,6.54,0,0,0,1.188.1h1.307a4.075,4.075,0,0,1,1.089.113.463.463,0,0,1,.385.468v.323Zm5.627-17.387a2.124,2.124,0,0,1-1.172-.3.87.87,0,0,1-.469-.737.918.918,0,0,1,.167-.469,1.3,1.3,0,0,1,1.105-.4,2.235,2.235,0,0,1,.939.185.64.64,0,0,1,.435.485.873.873,0,0,1-.084.77A1.348,1.348,0,0,1,781.733,896.035Z" fill="#231f20"/><path d="M797.612,912.12A15.052,15.052,0,0,1,795,912.9a13.819,13.819,0,0,1-2.814.284,8.942,8.942,0,0,1-1.943-.2,8.613,8.613,0,0,1-5.36-3.236,8.043,8.043,0,0,1-1.273-4.637,6.874,6.874,0,0,1,1.373-4.171,9.712,9.712,0,0,1,4.456-3.169,11.085,11.085,0,0,1,4.086-.667h.906a14.228,14.228,0,0,1,1.541.167,7.464,7.464,0,0,1,2.344.768,17.936,17.936,0,0,1,1.977,1.267,7.614,7.614,0,0,1,2.312,5.338Q802.6,908.984,797.612,912.12Zm-5.159-14.008a7.8,7.8,0,0,0-4.489,1.8,9.576,9.576,0,0,0-2.312,3.067c-.09.734-.139,1.262-.15,1.584s-.017.584-.017.784a7.007,7.007,0,0,0,.971,3.868,7.519,7.519,0,0,0,4.222,2.9,10.917,10.917,0,0,0,2.143.2,7.241,7.241,0,0,0,2.848-.5,8.686,8.686,0,0,0,3.819-3.034,6.745,6.745,0,0,0,1.172-3.867,8.7,8.7,0,0,0-1.44-4.735,5.969,5.969,0,0,0-2.345-1.551,9.382,9.382,0,0,0-3.351-.55C793.056,898.079,792.7,898.091,792.453,898.112Z" fill="#231f20"/><path d="M819.654,913.087a3.878,3.878,0,0,0-.536-.033h-.469q-.5,0-1.758.066t-1.29.068a8.441,8.441,0,0,1-1.056-.061,3.041,3.041,0,0,1-.888-.241q.2-.469,1.793-.6t1.86-.706a15.614,15.614,0,0,0,.485-2.7q.152-1.529.15-3.105v-4.063q-.506-.906-1.009-1.848a3.607,3.607,0,0,0-2.425-1.342,5.266,5.266,0,0,0-1.044-.1q-.54,0-1.667.117t-1.5.117a7.858,7.858,0,0,0-4.513,4.121,14.242,14.242,0,0,0-.808,5.427v2.479a1.386,1.386,0,0,0,.625.2,6.34,6.34,0,0,0,.929.067h1.115q1.317,0,1.318.452a.793.793,0,0,1-.134.385l-9.182.2q-.433-.066-.433-.636a6.523,6.523,0,0,1,1.927-.335q1.557-.133,1.892-.67,0-1.373.436-7.069.2-2.613.2-4.321a3.04,3.04,0,0,0-1.056-.419,7.186,7.186,0,0,0-1.39-.117c-.357,0-.905.023-1.641.067s-1.285.067-1.642.067c-.268-.022-.468-.033-.6-.033h-.368c-.134,0-.2-.056-.2-.168a2.17,2.17,0,0,1,.034-.368,29.194,29.194,0,0,1,3.819-.5q2.244-.168,4.221-.167a.955.955,0,0,1,.643.351,1.19,1.19,0,0,1,.161.653v.6a.837.837,0,0,0,.436.8,8.078,8.078,0,0,1,2.864-1.876,10.168,10.168,0,0,1,3.9-.738,13.106,13.106,0,0,1,2.8.269,2.246,2.246,0,0,1,1.592.937,4.051,4.051,0,0,1,2.144,2.413,11.45,11.45,0,0,1,.268,2.981q0,1.14-.117,3.065t-.117,2.462a15.188,15.188,0,0,0,.234,2.747,1.313,1.313,0,0,0,.536.185,6.8,6.8,0,0,0,.938.05h1.541c.781,0,1.173.138,1.173.416a1.046,1.046,0,0,1-.2.521,6.1,6.1,0,0,1-.738.035,6.605,6.605,0,0,1-1.172-.151,6.673,6.673,0,0,0-1.105-.151A2.446,2.446,0,0,0,819.654,913.087Z" fill="#231f20"/><path d="M844.109,899.922a63.6,63.6,0,0,1-3.283,6.565q-1.842,3.285-3.685,6.533a1.3,1.3,0,0,0-.418.088,1.389,1.389,0,0,1-.319.088.6.6,0,0,1-.3-.1,5.5,5.5,0,0,1-1.139-1.911q-.168-.435-.6-2.112a54.968,54.968,0,0,0-2.26-5.33,49.486,49.486,0,0,0-2.965-5.228,1.269,1.269,0,0,0-.838-.487,6.532,6.532,0,0,0-1.474-.15h-1.608q-1.206,0-1.206-.389a1.025,1.025,0,0,1,.3-.549l10.049.167a2.51,2.51,0,0,1,.352.352q.117.152-.15.218-.2.369-1.223.369a6.276,6.276,0,0,0-1.391.1v1.608q2.413,5.231,4.824,10.461l.771-.4q1.709-3.016,2.78-5.2a35.732,35.732,0,0,0,2.211-5.33,2.214,2.214,0,0,0-1.34-.6,13.768,13.768,0,0,0-2.311-.167v-.738h4.522q1.876,0,3.049.044t2.479.158v.636a16.96,16.96,0,0,1-2.663.2Q844.108,898.883,844.109,899.922Z" fill="#231f20"/><path d="M859.251,912.12a15.052,15.052,0,0,1-2.613.784,13.828,13.828,0,0,1-2.815.284,8.932,8.932,0,0,1-1.942-.2,8.613,8.613,0,0,1-5.36-3.236,8.043,8.043,0,0,1-1.273-4.637,6.874,6.874,0,0,1,1.373-4.171,9.709,9.709,0,0,1,4.455-3.169,11.09,11.09,0,0,1,4.087-.667h.9a14.2,14.2,0,0,1,1.541.167,7.461,7.461,0,0,1,2.345.768,18.033,18.033,0,0,1,1.977,1.267,7.612,7.612,0,0,1,2.311,5.338Q864.242,908.984,859.251,912.12Zm-5.159-14.008a7.8,7.8,0,0,0-4.489,1.8,9.561,9.561,0,0,0-2.312,3.067q-.135,1.1-.15,1.584c-.012.323-.017.584-.017.784a7,7,0,0,0,.971,3.868,7.52,7.52,0,0,0,4.221,2.9,10.92,10.92,0,0,0,2.144.2,7.248,7.248,0,0,0,2.848-.5,8.691,8.691,0,0,0,3.819-3.034,6.752,6.752,0,0,0,1.172-3.867,8.7,8.7,0,0,0-1.441-4.735,5.958,5.958,0,0,0-2.344-1.551,9.382,9.382,0,0,0-3.351-.55C854.694,898.079,854.337,898.091,854.092,898.112Z" fill="#231f20"/><path d="M869.4,913.188q-1.173-.1-2.311-.1-1.106,0-2.211.033l-2.211.068a19.65,19.65,0,0,1-2.882-.209.343.343,0,0,1-.167-.312.773.773,0,0,0-.033-.277,2.466,2.466,0,0,1,.7-.139q.435-.034.838-.035h.77a6.073,6.073,0,0,0,1.123-.083,1.575,1.575,0,0,0,.753-.385,13.354,13.354,0,0,0,.9-4.31q.166-2.571.267-3.541l-.167-16a1.106,1.106,0,0,0-.6-.3,5.606,5.606,0,0,0-.972-.068q-.369,0-1.172.068c-.536.045-.916.066-1.139.066q-1.307,0-1.106-.77,2.445-.234,4.925-.469a4.841,4.841,0,0,1,2.11.368q0,3.545-.167,8.076t-.318,9q-.151,4.465-.151,7.743a5.679,5.679,0,0,0,2.245.484q1.742.15,1.942.753Z" fill="#231f20"/><path d="M870.707,913.054a3.023,3.023,0,0,1-2.646-1,1.239,1.239,0,0,1,.62-1.056,2.915,2.915,0,0,1,1.239-.5,7.787,7.787,0,0,1,.888-.084,2.37,2.37,0,0,1,1.674.6,1.654,1.654,0,0,1-1.775,2.044Z" fill="#231f20"/><path d="M883.2,888.131q-.57,6.71-.9,12.5t-.335,11.221l.569.369,5.159.2v.771H875.028a.206.206,0,0,1-.167-.084.537.537,0,0,1-.1-.218,15.651,15.651,0,0,1,2.847-.368q2.445-.2,2.881-1.173,0-2.88.167-5.8t.369-6.148q.2-3.233.2-5.477,0-2.279-.05-3.2t-.218-2.664a5.494,5.494,0,0,0-2.813-.686q-1.944-.084-3.585-.185a.367.367,0,0,1,.15-.561,2.189,2.189,0,0,1,1.089-.209l12.663.168a.713.713,0,0,1,.2.4.5.5,0,0,1-.2.337h-2.345a7.717,7.717,0,0,0-2.11.186A1.46,1.46,0,0,0,883.2,888.131Z" fill="#231f20"/></g></svg>
