<svg xmlns="http://www.w3.org/2000/svg" width="1000" height="988" viewBox="0 0 1000 988"><g id="Artboard"><rect id="Tint" width="1000" height="988" fill="#58595b"/></g><g id="Back_Text" data-name="Back Text"><path d="M741.265,172.365h11.8q3.538,0,3.539,3.244v48.367a70.324,70.324,0,0,1-2.507,18.285q11.944,17.989,26.395,17.99l43.944.3q6.488,0,6.93,2.065,0,2.063-6.341,2.359l-44.238.59a26.6,26.6,0,0,1-17.695-6.636,40.693,40.693,0,0,1-10.617-11.944,47.372,47.372,0,0,1-14.746,20.055.782.782,0,0,1-.885-.885c0-.59.391-.984,1.18-1.18a65.9,65.9,0,0,0,8.7-17.253q3.981-9.584,3.981-23.151v-46.3q0-1.77-2.064-1.769h-7.373q-2.655,0-2.655-2.065T741.265,172.365Zm4.571-36.571h12.387q.737-3.39,2.359-3.391,2.064,0,2.507,3.391h46.155q.736-2.948,2.212-2.949,1.914,0,2.359,2.949h11.8q3.54.3,3.539,2.36,0,2.361-2.949,2.359H814.11v.59q-.3,5.9-2.359,5.9-2.36,0-2.949-5.9v-.59H763.236v1.917q-.3,5.9-2.359,5.9-2.36,0-2.949-5.9v-1.917H744.656q-2.952,0-2.949-2.359Q741.707,136.09,745.836,135.794Zm-.295,14.6a4.347,4.347,0,0,1,2.654,2.065l10.175,8.552q2.064,2.655,2.065,3.539-.591,2.361-2.36,2.36a3.979,3.979,0,0,1-3.539-2.36l-10.765-10.027a6.79,6.79,0,0,1-.589-2.359Q743.182,150.69,745.541,150.393Zm35.1,9a46.1,46.1,0,0,1-12.24,4.866c-.788,0-1.179-.295-1.179-.884s.491-1.081,1.474-1.475q11.8-6.339,24.184-18.285,1.77,0,1.77.885a2.006,2.006,0,0,1-.59,1.474,19.142,19.142,0,0,1-1.622,2.36h17.99q5.308,0,5.308,2.654,0,.885-4.423,3.392-5.607,2.8-11.65,6.488-1.182.739-2.212,1.474a196.325,196.325,0,0,1,29.935,13.124,2.114,2.114,0,0,1,.885,1.622,1.33,1.33,0,0,1-1.328,1.475,221,221,0,0,1-34.5-12.976,206.334,206.334,0,0,0-23.447,17.842q-1.032,2.51-2.359,2.507c-.788,0-1.18-.686-1.18-2.064a97.019,97.019,0,0,1,17.4-17.4,53.509,53.509,0,0,1,5.013-3.244Q784.175,161.308,780.637,159.388Zm1.622,16.516h12.829q.145-2.212.3-3.982c.391-1.769.885-2.654,1.474-2.654q.588,0,1.18,2.212.294,2.361.442,4.424h13.567q3.1.3,3.1,1.917,0,2.211-2.655,2.212H798.922q.145,3.1.442,6.488h16.368q3.1.3,3.1,2.064,0,2.067-2.654,2.065H799.512q.144,4.129.3,8.553H820.6q3.1.3,3.1,2.064,0,2.067-2.654,2.065H799.807q.144,5.309.147,11.059,0,35.688-1.327,40.7-.591,2.949-1.475,2.95-.59-.3-1.179-3.245-1.77-7.962-1.77-40.4,0-6.045.148-11.059H769.577q-2.654,0-2.654-2.065,0-1.77,3.539-2.064h23.889q0-4.868.147-8.553H775.771q-2.655,0-2.655-2.065,0-1.768,3.539-2.064h17.991q.144-3.684.294-6.488H781.374q-2.655,0-2.654-2.212Q778.72,176.2,782.259,175.9Zm7.373-23.889a37.548,37.548,0,0,1-6.341,5.6q4.719,1.326,8.995,2.949,6.93-4.424,12.829-7.521c0-.391-.442-.589-1.327-.589H792.434A6.028,6.028,0,0,1,789.632,152.015Z" fill="#231f20"/><path d="M861.751,306.344q.736,11.8,1.18,26.985h38.192q3.391,0,3.392,2.507,0,2.361-2.8,2.359h-36.57q7.665,3.395,12.386,11.8,4.569,7.67,8.406,22.267,1.914,14.3,5.308,23.151,5.9,14.011,15.926,22.414,0,1.179-.885,1.18a2.391,2.391,0,0,1-2.654-1.917q-9.145-5.163-16.368-17.548-5.164-8.4-7.816-27.28-1.769-14.009-6.93-22.857a31.5,31.5,0,0,0-9.438-10.617q.145,9.439.148,19.465,0,51.171-1.622,58.247-.591,3.1-1.328,3.1-.589,0-1.179-3.1-1.77-11.651-1.77-58.247,0-10.763.148-20.055-5.015,3.395-8.553,10.617-4.28,8.849-6.046,22.267-2.655,18.877-8.553,27.87-8.11,12.387-18.285,17.548a2.618,2.618,0,0,1-2.8,1.917q-.885,0-.884-1.327,11.354-8.112,17.842-22.857,3.834-8.993,6.046-23.151,3.391-14.6,7.373-21.677,3.684-7.814,9.733-11.207H818.4q-2.654,0-2.654-2.359,0-2.5,3.982-2.507h37.75q.294-15.777.589-26.985H829.6q-2.654,0-2.654-1.77,0-2.505,3.687-2.507h27.575q.145-2.211.295-4.718c.391-1.572.885-2.36,1.474-2.36q.442,0,1.033,2.36.294,2.508.442,4.718h27.575q3.242,0,3.244,2.507,0,1.77-2.654,1.77ZM838.305,291.6v1.179q-.3,5.9-2.507,5.9t-2.8-5.9V291.6H818.545q-2.8,0-2.8-2.507,0-1.622,4.129-2.212H833v-.59q.588-5.308,2.507-5.309,2.506,0,2.8,5.309v.59h41.289v-.59q.586-4.717,2.8-4.719,2.357,0,2.654,4.719v.59H902.3q3.39.591,3.391,2.212,0,2.51-2.8,2.507H885.05v1.769q-.3,5.9-2.36,5.9-2.508,0-3.1-5.9V291.6Zm-8.258,19.464h1.032q7.079,3.394,7.078,9.88,0,4.868-4.866,9c-.394.788-.885,1.179-1.475,1.179s-.884-.391-.884-1.179a27.283,27.283,0,0,0,2.506-11.8q0-3.1-3.834-6.489C829.6,311.261,829.752,311.062,830.047,311.062Zm56.477-1.327q.885,0,.885,1.327a11.745,11.745,0,0,0-2.507,7.079,31.03,31.03,0,0,0,1.475,9.29c0,.788-.2,1.179-.59,1.179s-.885-.391-1.475-1.179q-4.571-2.8-4.571-8.7,0-4.866,5.309-7.668C885.441,310.178,885.935,309.735,886.524,309.735Z" fill="#231f20"/><path d="M706.214,419.661A107.987,107.987,0,0,1,701.5,440.9q-11.5,39.372-36.718,63.113-.884,1.177-1.327,1.179c-.3,0-.442-.394-.442-1.179q23.74-32.439,30.819-60.312,10.027-28.164,12.682-78.891.442-1.77,1.032-1.77,1.03,0,1.475,5.161,0,22.562-1.475,39.667,5.6,28.755,14.156,50.137,5.162,11.06,11.945,22.856A148.017,148.017,0,0,0,751.779,504.6c0,.686-.1,1.032-.295,1.032a3.4,3.4,0,0,1-1.769-1.032q-20.791-12.979-33.474-44.828A157.533,157.533,0,0,1,706.214,419.661Z" fill="#231f20"/><path d="M783.882,527.1q.737,8.847,1.18,20.644h8.11q4.126,0,4.129,2.212,0,3.1-3.392,3.1h-8.7q.588,15.78.59,37.16,0,53.676-1.475,60.606-.442,3.1-1.327,3.1-.739,0-1.327-3.1-1.625-11.8-1.622-60.606.145-21.972.295-37.16H761.91l.148,30.672q0,37.159-7.521,49.4Q747.754,645.508,737.579,652a8.075,8.075,0,0,1-1.475,1.327c-.493,0-.737-.442-.737-1.327a62.374,62.374,0,0,0,14.746-20.644q6.487-15.186,6.636-47.63l.147-30.672h-9.584q-3.394,0-3.392-3.1,0-2.211,4.719-2.212H756.9l.148-15.483a48.849,48.849,0,0,1,.885-5.161h-7.521q-3.1,0-3.1-3.1,0-2.213,4.423-2.212h38.193q3.684,0,3.686,2.212,0,3.1-3.1,3.1Zm-22.709,0a34.475,34.475,0,0,1,.737,4.571v16.073h18.58q.3-12.974.59-20.644Zm61.933-11.207q1.77,0,1.77,1.622a6.534,6.534,0,0,1-1.032,2.359,162.389,162.389,0,0,1-19.17,21.972,3.6,3.6,0,0,1-2.654,1.032q-1.476,0-1.475-1.622,5.751-10.174,19.907-23.741Q822.368,515.891,823.106,515.89Zm2.95,27.575a4.045,4.045,0,0,1-1.033,1.917,91.085,91.085,0,0,0-10.912,12.976q-3.687,5.165-3.686,15.336a157.756,157.756,0,0,0,6.341,44.239q4.866,15.189,18.875,36.57a.523.523,0,0,1-.59.59,2.853,2.853,0,0,1-2.065-1.18q-13.126-12.387-20.644-32.441-7.669-21.972-7.668-50.137a28.052,28.052,0,0,1,5.014-15.483,60.3,60.3,0,0,1,14.746-13.567Q826.055,542.285,826.056,543.465Z" fill="#231f20"/></g><g id="Front_Outline" data-name="Front Outline"><g id="Dolls_in_Pseudo_Paradise" data-name="Dolls in Pseudo Paradise"><path d="M694.959,435.985a2.5,2.5,0,0,1-2.341-1.69,2,2,0,0,1-.056-1.209l.031-.114a14.625,14.625,0,0,0,.411-3.9c-.012-3.471-.019-5.656-.03-10.749,0-1.307-.058-2.81-.177-4.6l-.028-.389a2.506,2.506,0,0,1,2.124-2.681s.757-.161.8-.168.257-.091.565-.195l.889-.3.836-.3a2.009,2.009,0,0,1,1.328-.014,2.565,2.565,0,0,1,1.179.832,1.992,1.992,0,0,1,.371.8l.089.419a2,2,0,0,1-.4,1.676,2.942,2.942,0,0,1-.394.4,4.275,4.275,0,0,0-.538.532,24.241,24.241,0,0,0-.363,5.271l.014,1.465c.009.865.019,1.727.016,2.563-.007,1.906-.021,3.078-.034,3.775,0,.2-.008.443-.032.705,0,.054.007.108.007.163,0,0,0,1.556,0,1.637l.1,0a1.993,1.993,0,0,1,.734.139,2.329,2.329,0,0,1,1.6,2.226c0,1.763-1.827,2.207-2.427,2.352l-1.052.248a10.126,10.126,0,0,0-1.407.539c-.089.046-.28.125-.478.2l-.222.091a2.542,2.542,0,0,1-.86.259C695.14,435.979,695.027,435.985,694.959,435.985Z" fill="#58595b"/><path d="M698.662,411.569a.567.567,0,0,1,.239.157l.09.422-.059.075a6.451,6.451,0,0,0-.99,1c-.454.555-.709,3.225-.689,6.4.009,1.346.035,2.708.03,4.01-.014,3.779-.056,4.653-.059,4.653v1.376a7.95,7.95,0,0,0,.15,2.058.658.658,0,0,0,.63.4h.039a4.526,4.526,0,0,0,.8-.1l.48-.105c.24.1.33.187.33.366,0,.112-.3.263-.9.409l-1.049.248a10.747,10.747,0,0,0-1.741.65c-.21.105-.45.188-.69.292a.982.982,0,0,1-.27.1l-.045,0a.514.514,0,0,1-.464-.384l.029-.109a16.448,16.448,0,0,0,.48-4.424c-.012-3.477-.018-5.662-.031-10.753,0-1.348-.059-2.9-.18-4.726l-.03-.411c-.03-.3.18-.481.6-.583l.631-.134c.21-.033.779-.244,1.769-.566l.9-.326m0-4a4,4,0,0,0-1.369.241l-.832.3c-.328.107-.61.2-.849.282-.2.069-.365.124-.485.161l-.595.127-.11.025a4.539,4.539,0,0,0-3.647,4.783l.019.249.01.144c.113,1.718.169,3.177.169,4.432.013,5.1.019,7.289.031,10.767a12.923,12.923,0,0,1-.327,3.315l-.017.06-.029.107a4,4,0,0,0,.111,2.422,4.486,4.486,0,0,0,4.217,3c.132,0,.311-.009.443-.022a4.49,4.49,0,0,0,1.514-.436l.117-.046c.16-.065.372-.149.606-.261a9.609,9.609,0,0,1,.971-.388l1.067-.251c3.593-.872,3.977-3.3,3.977-4.3a4.331,4.331,0,0,0-2.43-3.891v-.019c0-.049,0-.1.007-.149,0-.152.011-.4.018-.771.013-.7.027-1.884.034-3.8,0-.845-.007-1.714-.016-2.588-.005-.487-.011-.975-.014-1.462a30.288,30.288,0,0,1,.211-4.277,3.841,3.841,0,0,0,.6-.609l.063-.08a4,4,0,0,0,.776-3.319l-.087-.406a4.067,4.067,0,0,0-.732-1.6,4.538,4.538,0,0,0-2.126-1.518,4,4,0,0,0-1.3-.216Z" fill="#58595b"/><path d="M704.9,435.6a21.208,21.208,0,0,1-2.494-.137l-.161-.02a13.3,13.3,0,0,1-1.627-.276,2.654,2.654,0,0,1-1.97-2.94v-1.043a2.053,2.053,0,0,1,.04-.4,2.514,2.514,0,0,1,1.541-1.887,4.616,4.616,0,0,1-.381-1.888,6.273,6.273,0,0,1,1.989-4.5,6.976,6.976,0,0,1,5.079-2.034,11.064,11.064,0,0,1,2.1.244c.732.147,2.959.592,2.959,2.626a4.723,4.723,0,0,1-.332,1.784,3.332,3.332,0,0,1-.71,1.13,5.628,5.628,0,0,1,.721.388,4.037,4.037,0,0,1,1.852,3.533c0,1.177-.448,3.338-3.465,4.566a13.5,13.5,0,0,1-5.066.854Z" fill="#58595b"/><path d="M706.917,422.476h.031a9.108,9.108,0,0,1,1.68.206c.886.177,1.351.366,1.351.664a2.748,2.748,0,0,1-.181,1.022c-.148.36-.269.523-.42.557l-.509-.161a7.085,7.085,0,0,0-2.791-.657h-.017c-1.52,0-2.563.876-2.562,1.9,0,.775.631,1.258,1.86,1.442a10.373,10.373,0,0,0,1.68.11,6.69,6.69,0,0,1,3.541.769,2.06,2.06,0,0,1,.93,1.848c0,1.22-.755,2.118-2.219,2.714a11.539,11.539,0,0,1-4.309.706h-.071a19.249,19.249,0,0,1-2.251-.121,13.081,13.081,0,0,1-1.56-.253c-.344-.085-.45-.171-.45-1v-1.044a.493.493,0,0,1,.5-.453h.011a.49.49,0,0,1,.3.074c.047.075.071.112.119.187v.161c0,1.1.96,1.677,2.761,1.688h.057a8.286,8.286,0,0,0,2.973-.537c1.16-.444,1.74-1.022,1.74-1.79,0-.651-.511-.964-1.8-.969-.6,0-.9,0-1.5-.008-2.67-.018-3.96-.784-3.961-2.526a4.313,4.313,0,0,1,1.41-3.093,4.969,4.969,0,0,1,3.658-1.442m0-4a8.934,8.934,0,0,0-6.5,2.626,8.267,8.267,0,0,0-2.57,5.91,6.844,6.844,0,0,0,.087,1.069,4.611,4.611,0,0,0-1.206,2.306,4.02,4.02,0,0,0-.08.8v1.044c0,3.5,2.187,4.56,3.49,4.882a15.273,15.273,0,0,0,1.866.32l.153.019a23.434,23.434,0,0,0,2.736.151h.087a15.459,15.459,0,0,0,5.817-1c4.254-1.732,4.712-5.067,4.711-6.42a6.115,6.115,0,0,0-1.913-4.55,6.861,6.861,0,0,0,.382-2.285c0-1.371-.594-3.791-4.567-4.586a12.89,12.89,0,0,0-2.446-.283Zm.56,15.076Z" fill="#58595b"/><path d="M816.266,430.558c-4.395,0-7.348-3.446-7.351-8.575a10.349,10.349,0,0,1,2.114-6.621,8.534,8.534,0,0,1,6.141-3.194c.288-.023.571-.035.846-.035,4.461,0,7.231,3.131,7.231,8.173a11.094,11.094,0,0,1-2.308,6.867,8.287,8.287,0,0,1-6.25,3.374C816.547,430.554,816.405,430.558,816.266,430.558Zm.4-12.871c-.671.057-1.59.134-1.589,2.859a5.407,5.407,0,0,0,.939,3.246c.644.886,1.124.886,1.329.886a1.263,1.263,0,0,0,1.127-.72,3.955,3.955,0,0,0,.587-2.166c0-.965-.159-4.115-2.178-4.115C816.81,417.677,816.738,417.681,816.665,417.687Z" fill="#58595b"/><path d="M818.015,414.133c3.234,0,5.232,2.071,5.232,6.173a9.07,9.07,0,0,1-1.889,5.643,6.267,6.267,0,0,1-4.77,2.6c-.108,0-.216.008-.322.008-3.293,0-5.349-2.66-5.351-6.576a8.427,8.427,0,0,1,1.679-5.375,6.487,6.487,0,0,1,4.742-2.445c.232-.02.459-.029.679-.029m-.672,12.545c.068,0,.136,0,.205-.006a3.239,3.239,0,0,0,2.61-1.638,5.96,5.96,0,0,0,.9-3.242c0-3.919-1.662-6.115-4.178-6.115-.126,0-.254.006-.384.017-2.281.193-3.421,1.742-3.42,4.853a7.356,7.356,0,0,0,1.321,4.419,3.6,3.6,0,0,0,2.946,1.712m.673-16.545h0c-.33,0-.671.014-1.012.042a10.488,10.488,0,0,0-7.54,3.943,12.3,12.3,0,0,0-2.548,7.865c0,6.226,3.847,10.575,9.351,10.575.174,0,.35,0,.528-.014a10.231,10.231,0,0,0,7.726-4.146,13.078,13.078,0,0,0,2.727-8.093c0-6.179-3.624-10.172-9.231-10.172Zm-.789,9.152Z" fill="#58595b"/><path d="M830.359,430.614a2,2,0,0,1-.919-.224l-.2-.1a2.007,2.007,0,0,1-1.042-1.339l-.063-.282a2.005,2.005,0,0,1,.088-1.147,2.568,2.568,0,0,1,.209-.416c.062-.138.151-.3.255-.483.021-.034.076-.126.1-.159a1.08,1.08,0,0,0,.128-.23,31.046,31.046,0,0,0,.195-4.459c0-2.046,0-3.879.031-5.545.022-2.977.034-4.481.054-6.845a3.334,3.334,0,0,1-1.047.251l-.1,0a2,2,0,0,1-.716-.133l-.172-.065a2,2,0,0,1-1.224-1.356l-.061-.227a2,2,0,0,1-.067-.517c0-1.708,1.708-2.345,2.351-2.584l.211-.088A21.607,21.607,0,0,1,832.8,403.3a22.781,22.781,0,0,1,4.048-.484c.184,0,.367-.007.546-.007a12.429,12.429,0,0,1,5.739,1.182,6.025,6.025,0,0,1,3.386,5.66,9.008,9.008,0,0,1-3.387,6.951,11.972,11.972,0,0,1-7.415,2.849l-.158.006c-.007.914-.014,1.918-.022,3.062,0,.333,0,.61.01.843a4.677,4.677,0,0,1,1.325-.3l.083,0a2,2,0,0,1,1.328.505,2.458,2.458,0,0,1,.764,1.275l.061.374a1.947,1.947,0,0,1,.027.323c0,.6-.237,2.066-2.421,2.677-.037.011-.074.02-.112.028-.19.042-.391.086-.6.114l-.3.109a30.6,30.6,0,0,0-4.015,1.725l-.47.224A2.014,2.014,0,0,1,830.359,430.614Zm5.355-22.572c-.027.464-.057,1.39-.085,2.846-.011,1.276-.021,2.377-.029,3.447l.073,0a3.772,3.772,0,0,0,3.907-3.986c0-1.361-.446-1.8-.594-1.938a2.91,2.91,0,0,0-2.115-.655l-.184,0a4.807,4.807,0,0,0-.959.117Z" fill="#58595b"/><path d="M837.4,404.811a10.457,10.457,0,0,1,4.817.957,4.034,4.034,0,0,1,2.309,3.884,7.021,7.021,0,0,1-2.7,5.446,10.018,10.018,0,0,1-6.21,2.358c-.061,0-.119,0-.175,0-.57,0-.844-.179-.844-.556a.75.75,0,0,1,.09-.449l.389-.086.72-.043a5.769,5.769,0,0,0,5.792-5.982,4.468,4.468,0,0,0-1.2-3.372,4.825,4.825,0,0,0-3.509-1.221c-.08,0-.16,0-.241,0-1.441.04-2.612.477-2.822,1-.036.445-.054.671-.09,1.132-.03.513-.06,1.464-.09,2.96-.036,4.124-.054,6.429-.09,11.659a9.582,9.582,0,0,0,.21,2.654.9.9,0,0,0,.91.479h.079a3.928,3.928,0,0,0,1.139-.271,4.41,4.41,0,0,1,1.08-.3l.119.106.06.37c0,.336-.33.575-.959.752a3.921,3.921,0,0,1-.57.1,4.87,4.87,0,0,0-.509.172,32.95,32.95,0,0,0-4.289,1.835l-.45.214-.21-.108-.06-.268c.031-.078.109-.166.15-.276a3.311,3.311,0,0,1,.211-.392,2.658,2.658,0,0,0,.42-.929,33.663,33.663,0,0,0,.239-4.867c0-2.034,0-3.855.03-5.51.024-3.258.036-4.753.06-7.509v-.783a2.642,2.642,0,0,0-.12-.635c-.084-.3-.177-.512-.378-.512h-.013a4.678,4.678,0,0,0-1.529.423,5.789,5.789,0,0,1-1.111.389l-.18-.069-.06-.229c0-.231.36-.454,1.05-.71l.27-.112a19.891,19.891,0,0,1,4.082-1.257,20.631,20.631,0,0,1,3.691-.443c.167,0,.332-.006.494-.006m0-4c-.2,0-.395,0-.6.008a24.7,24.7,0,0,0-4.407.525,23.806,23.806,0,0,0-4.843,1.5l-.16.066c-2.958,1.128-3.581,3.029-3.581,4.431a4.006,4.006,0,0,0,.134,1.028l.054.2a4.036,4.036,0,0,0,2.452,2.738l.179.068a3.918,3.918,0,0,0,.548.164c-.011,1.361-.021,2.7-.036,4.694-.03,1.651-.03,3.54-.03,5.54,0,2.173-.079,3.3-.131,3.81l-.017.029c-.088.151-.2.339-.307.567a4.425,4.425,0,0,0-.3.62,4,4,0,0,0-.172,2.309l.018.079.041.183a4,4,0,0,0,2.083,2.7l.2.1a4,4,0,0,0,3.548.055l.07-.034.379-.18a31.267,31.267,0,0,1,3.783-1.635c.067-.021.133-.044.2-.069.19-.033.36-.07.5-.1.076-.016.167-.039.241-.059a4.815,4.815,0,0,0,3.881-4.6,3.965,3.965,0,0,0-.052-.643l-.061-.376a4,4,0,0,0-1.28-2.333l-.111-.1a4.059,4.059,0,0,0-1.67-.9,13.419,13.419,0,0,0,6.487-3.086,10.93,10.93,0,0,0,4.072-8.457,8.014,8.014,0,0,0-4.464-7.435,14.179,14.179,0,0,0-6.662-1.408Z" fill="#58595b"/><path d="M858.622,429.211a2.009,2.009,0,0,1-.773-.155l.773-1.845-.816,1.826a2.075,2.075,0,0,1-1.262-1.651l-.029-.272a1.843,1.843,0,0,1-.006-.364l.024-.318c0-.515.032-1.566.073-3.061l.021-.726c.035-1.262.061-2.285.061-3.016l0-3.016a1.966,1.966,0,0,1-.488.061,1.993,1.993,0,0,1-1.035-.289l-.21-.127a2,2,0,0,1-.943-1.418l-.043-.282a3.218,3.218,0,0,1-.039-.415c.007-1.654,1.589-2.219,2.108-2.4l.706-.247c.189-.073.388-.145.544-.2l.156-.057c.15-.069.559-.261,1.212-.58l1.113-.522a2,2,0,0,1,.843-.186,2.046,2.046,0,0,1,.322.026l.3.048a2,2,0,0,1,1.2.675,5.2,5.2,0,0,1,2.572-.81h.017a2.007,2.007,0,0,1,1.079.316l.138.09a2.028,2.028,0,0,1,.89,1.436l.032.284a2.009,2.009,0,0,1,.012.219v1.522a2.7,2.7,0,0,1-2.515,2.733l-.906.05a2.922,2.922,0,0,0-.631.087c-.012.04-.025.088-.041.144a9.259,9.259,0,0,0-.113,1.48l-.2,5.019c-.028.81-.058,1.687-.112,2.609a2.022,2.022,0,0,1-.063.394c-.216.819-.86,1.323-1.745,1.945a3.924,3.924,0,0,1-2.207,1Z" fill="#58595b"/><path d="M865.026,411.886l.12.079.03.266c0,.6,0,.9,0,1.519a.7.7,0,0,1-.691.744l-.84.045a2.913,2.913,0,0,0-2.042.71,2.3,2.3,0,0,0-.451,1,10.088,10.088,0,0,0-.181,1.941c-.074,1.82-.11,2.751-.184,4.674-.031.887-.062,1.863-.122,2.9-.03.115-.342.383-.961.818a3.768,3.768,0,0,1-1.081.634l-.089-.038-.03-.273.03-.388c0-.542.039-1.867.093-3.812.036-1.284.061-2.327.062-3.071,0-.723,0-1.081,0-1.789,0-.875,0-1.306,0-2.159-.088-1.033-.38-1.553-.877-1.553h-.021a2.13,2.13,0,0,0-.51.048c-.114.04-.271.14-.481.246l-.6.251-.21-.127-.06-.4c0-.2.271-.348.781-.53.276-.1.414-.146.691-.242.39-.149.659-.238.81-.3,0,0,.45-.205,1.321-.63.432-.2.648-.306,1.079-.506l.3.048.119.159-.029.378c-.013.3-.019.455-.031.763s0,.413,0,.788c.012.24.018.361.03.6a8.251,8.251,0,0,1,1.8-1.833,4.086,4.086,0,0,1,2.221-.967m0-4h-.036a6.5,6.5,0,0,0-2.367.492,4.01,4.01,0,0,0-1.075-.333l-.3-.048a4.059,4.059,0,0,0-.632-.05,4,4,0,0,0-1.684.372c-.442.2-.662.308-1.1.517l-.046.022c-.55.269-.92.443-1.1.528l-.06.022c-.155.055-.351.125-.587.215l-.646.226c-3,1.073-3.452,3.155-3.453,4.3a3.982,3.982,0,0,0,.046.607l.06.39a4,4,0,0,0,1.893,2.828l.2.122a4,4,0,0,0,.555.279v1.25c0,.674-.024,1.633-.061,2.963l-.013.5c-.044,1.574-.075,2.662-.08,3.259l-.019.244a3.936,3.936,0,0,0,.012.752l.009.08.021.191a4,4,0,0,0,2.428,3.252l.047.02a4.222,4.222,0,0,0,1.6.329h.041A5.778,5.778,0,0,0,862,429.85a5.557,5.557,0,0,0,2.529-3.072,3.949,3.949,0,0,0,.125-.786c.056-.966.088-1.882.118-2.725l.009-.268c.071-1.863.108-2.794.178-4.533a4.669,4.669,0,0,0,4.213-4.713v-1.519a3.944,3.944,0,0,0-.025-.448l-.018-.16-.012-.108a4,4,0,0,0-1.782-2.9l-.122-.081a4.014,4.014,0,0,0-2.191-.653Z" fill="#58595b"/><path d="M889.933,430.047a2.47,2.47,0,0,1-1.786-.874,2.621,2.621,0,0,1-.454-.626,4.292,4.292,0,0,1-1.991.521l-.112,0a6.531,6.531,0,0,1-5.482-2.711,10.611,10.611,0,0,1-1.522-6.1c0-3.459.881-6.212,2.476-7.75a8.109,8.109,0,0,1,5.839-2.2q.3,0,.6.016a1.859,1.859,0,0,1,.2.02l.128.019,0-.27a35.54,35.54,0,0,0-.2-3.744l-.028-.288a2.17,2.17,0,0,1,.425-1.551,2.839,2.839,0,0,1,2.079-1s.342-.041.382-.043a4.93,4.93,0,0,0,.541-.09c.259-.048.5-.1.823-.187.04-.01.081-.02.121-.028l1.083-.224a1.958,1.958,0,0,1,.4-.042,2,2,0,0,1,.618.1,2.3,2.3,0,0,1,1.772,2.246,2.364,2.364,0,0,1-1.561,2.1,17.494,17.494,0,0,0-.182,3.065c0,.906-.013,1.752-.032,2.892l-.029,1.894s-.1,8.018-.1,8.047c.033,0,.067,0,.1,0a1.987,1.987,0,0,1,.667.115,2.824,2.824,0,0,1,.737.4,2.3,2.3,0,0,1,.955,1.98c0,.674-.286,1.9-2.2,2.546l-.769.277a10.113,10.113,0,0,0-1.6.75l-.842.476a2.069,2.069,0,0,1-1,.267ZM885.6,416.036a1.618,1.618,0,0,0-.714.093c0,.006-.314.369-.316,2.307a6.3,6.3,0,0,0,.625,3.085,1.6,1.6,0,0,0,1.443.854h.009a1.9,1.9,0,0,0,.931-.193c.036-.274.079-.724.105-1.435l.093-4.361a10.9,10.9,0,0,0-1.229-.271c-.174-.024-.411-.06-.65-.072C885.79,416.039,885.691,416.036,885.6,416.036Z" fill="#58595b"/><path d="M893.465,404.9c.27.088.39.144.39.344,0,.075-.2.186-.57.372a1.6,1.6,0,0,0-.781.713,13.517,13.517,0,0,0-.391,4.083c0,1.335-.031,2.533-.062,4.759-.038,3.111-.057,4.7-.1,7.965,0,1.586.15,2.407.48,2.424h.067a4.354,4.354,0,0,0,.893-.135l.661-.183a1.128,1.128,0,0,1,.269.16.522.522,0,0,1,.09.333c0,.255-.27.459-.84.651l-.81.291a11.935,11.935,0,0,0-1.892.883c-.348.195-.522.293-.87.491a.511.511,0,0,1-.39-.24.618.618,0,0,1-.21-.384l.03-.261c.091-.933.151-1.483.152-1.7v-.185c-.012-.384-.018-.575-.03-.956-.264.28-.4.421-.661.705-1.266,1.355-2.33,2.045-3.192,2.045h-.051a4.588,4.588,0,0,1-3.9-1.85,8.72,8.72,0,0,1-1.168-4.957c0-2.771.648-5.139,1.866-6.312a6.152,6.152,0,0,1,4.45-1.64c.164,0,.331,0,.5.013.961.146,1.441.221,2.4.375.012-1.046.018-1.562.03-2.58a37.677,37.677,0,0,0-.208-3.977l-.029-.3q-.045-.261.72-.341l.3-.036a8.067,8.067,0,0,0,.87-.136c.209-.039.51-.1.9-.208l1.08-.223m-6.741,19.48a2.742,2.742,0,0,0,2.772-1.553,13.931,13.931,0,0,0,.182-2c.049-2.336.074-3.479.123-5.732-.271-.119-.6-.285-1.051-.475a9.245,9.245,0,0,0-1.859-.467c-.3-.043-.6-.085-.9-.1-.136-.007-.268-.01-.395-.01-2.22,0-3.026,1.049-3.028,4.4a8.155,8.155,0,0,0,.9,4.1,3.583,3.583,0,0,0,3.09,1.842l.169,0m6.741-23.48a3.939,3.939,0,0,0-.809.083l-1.083.224c-.082.017-.164.036-.245.058-.2.056-.39.1-.576.134l-.094.018c-.122.023-.237.047-.34.061-.063,0-.126.011-.188.018l-.27.033a4.732,4.732,0,0,0-3.422,1.777,4.171,4.171,0,0,0-.82,2.967l.011.112.014.145q.1.923.144,1.832a9.948,9.948,0,0,0-6.111,2.709c-1.99,1.917-3.088,5.181-3.091,9.19a12.536,12.536,0,0,0,1.879,7.237,8.455,8.455,0,0,0,7.061,3.571c.059,0,.118,0,.178,0a5.863,5.863,0,0,0,1.353-.159,4.407,4.407,0,0,0,2.8,1.137l.149,0a3.994,3.994,0,0,0,1.978-.523c.34-.193.51-.289.85-.48a8.053,8.053,0,0,1,1.221-.583l.077-.027.768-.277a4.663,4.663,0,0,0,3.518-4.424,4.465,4.465,0,0,0-.969-2.837,3.981,3.981,0,0,0-.825-.773,5.007,5.007,0,0,0-.649-.4l.078-6.5c.01-.754.021-1.394.03-1.961.018-1.113.031-1.949.032-2.845,0-.862.025-1.471.054-1.892a3.967,3.967,0,0,0,1.688-3.278,4.31,4.31,0,0,0-3.155-4.148,3.967,3.967,0,0,0-1.235-.2Z" fill="#58595b"/><path d="M897.561,429.944a2,2,0,0,1-1.394-.565,2.473,2.473,0,0,1-.786-1.773l-.058-1.526,0-8.546c0-.3,0-.555-.013-.764a2,2,0,0,1-.633-.166,2.541,2.541,0,0,1-1.543-2.346c0-.875.445-1.987,2.565-2.313l.9-.146c.916-.221,1.4-.335,2.337-.555a2.022,2.022,0,0,1,.457-.053,2,2,0,0,1,.779.159,2.468,2.468,0,0,1,1.7,2.295c0,.06,0,.12-.008.18l-.023.243c0,.208-.01.482-.022.86l-.1,3.529-.032,8.207a1.9,1.9,0,0,1-.037.377l-.091.461c-.009.05-.021.1-.035.15a2.319,2.319,0,0,1-1.618,1.594c-.67.229-1.009.346-1.685.585A2.02,2.02,0,0,1,897.561,429.944Zm.835-18.877c-.1,0-.194,0-.292-.011a3.871,3.871,0,0,1-2.359-1.018,3.318,3.318,0,0,1,2.4-5.761c.082,0,.165,0,.248.009a3.633,3.633,0,0,1,3.487,3.512A3.384,3.384,0,0,1,898.4,411.067Z" fill="#58595b"/><path d="M898.142,406.277c.039,0,.077,0,.116,0a1.645,1.645,0,0,1,1.62,1.517,1.381,1.381,0,0,1-1.481,1.269c-.046,0-.093,0-.14,0a1.886,1.886,0,0,1-1.139-.478,1.409,1.409,0,0,1-.45-1.018,1.388,1.388,0,0,1,1.474-1.289m1.254,6.915c.33.139.48.29.48.453l-.03.325c0,.382-.031,1.037-.06,2.323-.025.838-.037,1.259-.062,2.106-.013,3.23-.019,4.872-.032,8.258-.036.184-.054.276-.091.461-.029.107-.149.171-.33.233-.684.233-1.026.352-1.71.593a.491.491,0,0,1-.18-.338c-.024-.643-.035-.963-.059-1.6,0-3.48,0-5.163,0-8.473a7.25,7.25,0,0,0-.239-2.41.9.9,0,0,0-.84-.447l-.42.047-.33.054a.542.542,0,0,1-.36-.52c0-.136.3-.249.87-.337l.99-.16c.96-.231,1.44-.345,2.4-.569m-1.254-10.915h0a5.3,5.3,0,0,0-4.59,8.234,4.159,4.159,0,0,0-2.416,3.745,4.626,4.626,0,0,0,.713,2.453,4.514,4.514,0,0,0,1.476,1.439l0,7.857c0,.05,0,.1,0,.149l.058,1.567a4.46,4.46,0,0,0,1.39,3.092,4,4,0,0,0,4.118.9c.669-.236,1-.352,1.673-.581a4.291,4.291,0,0,0,2.892-2.95c.027-.1.051-.2.07-.3l.083-.42a4.365,4.365,0,0,0,.083-.8l.032-8.208,0-.1.057-1.951c.014-.624.028-1.083.039-1.44.01-.333.018-.59.021-.793l0-.046.011-.113c.011-.124.017-.248.017-.373a4.4,4.4,0,0,0-1.022-2.783,5.111,5.111,0,0,0,1.024-3.062,5.637,5.637,0,0,0-5.356-5.51c-.127-.008-.254-.013-.38-.013Z" fill="#58595b"/><path d="M906.856,430.358c-.3,0-.614-.011-.931-.034a14.825,14.825,0,0,1-2.615-.392l-.143-.037a10.485,10.485,0,0,1-1.732-.57c-1.629-.733-1.628-2.3-1.627-3.451v-1.618a1.925,1.925,0,0,1,.017-.263,2.559,2.559,0,0,1,2.052-2.359,6.71,6.71,0,0,1,1.359-8.291,6.536,6.536,0,0,1,3.957-1.217,9.089,9.089,0,0,1,1.171.078,12.527,12.527,0,0,1,2,.459c.9.272,2.77.838,2.77,2.665a3.874,3.874,0,0,1-.4,1.758,2.666,2.666,0,0,1-1.4,1.361,6.439,6.439,0,0,1,1.8,1.241,5.5,5.5,0,0,1,1.523,4.07,6.057,6.057,0,0,1-3.262,5.536A9.375,9.375,0,0,1,906.856,430.358Zm-2.133-6.584a2.19,2.19,0,0,1,.014.244v.244c0,.475,0,.737.913.807.094.008.189.011.283.011a3.739,3.739,0,0,0,1.692-.414,1.97,1.97,0,0,0,.476-.314l-1.342-.144A9.164,9.164,0,0,1,904.723,423.774Z" fill="#58595b"/><path d="M907.193,414.126a7.323,7.323,0,0,1,.916.061,10.827,10.827,0,0,1,1.679.39c.889.269,1.35.5,1.35.751a1.91,1.91,0,0,1-.18.849c-.148.289-.27.414-.42.42l-.51-.215a8.329,8.329,0,0,0-2.789-.941,4.256,4.256,0,0,0-.529-.035c-1.238,0-2.051.632-2.051,1.811,0,1,.629,1.714,1.86,2.091a8.629,8.629,0,0,0,1.679.333,5.9,5.9,0,0,1,3.539,1.47,3.569,3.569,0,0,1,.929,2.647,4.037,4.037,0,0,1-2.219,3.781,7.428,7.428,0,0,1-3.59.819c-.257,0-.521-.01-.79-.029a12.841,12.841,0,0,1-2.25-.332,9.744,9.744,0,0,1-1.56-.5c-.341-.154-.45-.32-.45-1.627v-1.619c.057-.43.224-.658.474-.658l.036,0a.388.388,0,0,1,.3.129l.12.289v.244a2.625,2.625,0,0,0,2.76,2.8c.146.011.292.017.437.017a5.7,5.7,0,0,0,2.593-.63,2.709,2.709,0,0,0,1.74-2.5c0-.937-.51-1.429-1.8-1.571-.6-.066-.9-.1-1.5-.161-2.668-.281-3.958-1.5-3.958-3.838a4.081,4.081,0,0,1,1.41-3.426,4.583,4.583,0,0,1,2.774-.829m0-4a8.605,8.605,0,0,0-5.139,1.6,7.95,7.95,0,0,0-3.045,6.65,8.852,8.852,0,0,0,.309,2.378,4.78,4.78,0,0,0-1.476,2.972,4,4,0,0,0-.034.525v1.619c0,1.2,0,4.01,2.807,5.275a12.374,12.374,0,0,0,2.054.682l.133.035a16.8,16.8,0,0,0,2.982.453c.362.026.723.039,1.074.039a11.357,11.357,0,0,0,5.507-1.308,7.983,7.983,0,0,0,4.3-7.291,7.447,7.447,0,0,0-2.116-5.492l-.114-.111.081-.153a5.878,5.878,0,0,0,.621-2.675c0-2.2-1.41-3.737-4.19-4.579a14.339,14.339,0,0,0-2.329-.529,11.253,11.253,0,0,0-1.426-.094Z" fill="#58595b"/></g><g id="ZUN_Collection_de_Musique_1" data-name="ZUN Collection de Musique 1"><path d="M84.259,925.6l-7.779-.06c-1.363,0-2.713.028-4.121.059H71.142a2,2,0,0,1-2-2v-.838a2,2,0,0,1,.419-1.225L81.3,906.365H78.559l-1.975.059c-.2,0-.364,0-.5.012a7.573,7.573,0,0,0-.13,1.4,2,2,0,0,1-2,2h-.868a2,2,0,0,1-2-2.091l.03-.658,0-3L71.1,904a3.888,3.888,0,0,1-.048-.529l-.027-.5a2,2,0,0,1,2-2.1l3.445.06,6.741.059c1.388,0,2.766-.025,4.286-.052l.356-.007s1.444-.06,1.472-.06a2,2,0,0,1,2,2v1.017a2,2,0,0,1-.423,1.229l-11.777,15.1h3.448c.31,0,.73,0,1.373-.028.723-.032,1.26-.032,1.671-.032a4.8,4.8,0,0,0,.559-.029c.012-.061.026-.132.04-.214l.228-1.807a2,2,0,0,1,1.984-1.748H89.3a2,2,0,0,1,2,2.083l-.089,2.154-.119,2.242v.294l.025.346a2,2,0,0,1-1.994,2.145Z" fill="#fff"/><path d="M89.326,902.87v1.017L75.03,922.22h7.537c.329,0,.777,0,1.465-.03s1.2-.03,1.586-.03a3.418,3.418,0,0,0,2-.448,2.709,2.709,0,0,0,.568-1.466l.24-1.884H89.3l-.089,2.154-.121,2.272v.419l.031.419-4.846-.03-7.775-.06c-1.406,0-2.782.029-4.217.06H71.142v-.838l14.236-18.393H78.559l-2.033.06a3.924,3.924,0,0,0-1.974.329,7.026,7.026,0,0,0-.6,3.081h-.868l.03-.658v-3.231c-.03-.239-.06-.388-.06-.478l-.03-.6,3.41.06,6.759.059c1.525,0,3.02-.029,4.7-.059l1.436-.06m-.03,15.492h0m.025-19.492c-.055,0-.111,0-.166,0l-1.389.057-.309.006c-1.549.028-2.887.052-4.267.052l-6.724-.059-3.375-.059h-.07a4,4,0,0,0-3.995,4.2l.028.552a5.445,5.445,0,0,0,.057.6v2.862l-.025.568a4,4,0,0,0,4,4.181h.868a4,4,0,0,0,.622-.048l-6.6,8.522a4,4,0,0,0-.837,2.449v.838a4,4,0,0,0,4,4h1.221c1.452-.031,2.783-.059,4.133-.059l7.745.06,4.851.03h.025a4,4,0,0,0,3.989-4.288l-.02-.275v-.169l.115-2.167.085-2.052c.008-.1.012-.208.012-.313a4,4,0,0,0-4-4h-.872a4,4,0,0,0-3.968,3.5l-.041.316c-.174,0-.362.011-.564.02-.241.011-.449.017-.63.02l9.254-11.868a4,4,0,0,0,.846-2.459V902.87a4,4,0,0,0-4-4Z" fill="#fff"/><path d="M100.83,926.015c-3.444,0-5.135-.741-6.224-1.386a6.233,6.233,0,0,1-3.042-3.873,13.6,13.6,0,0,1-.481-4.189V905.813c-.186-.011-.388-.016-.662-.016a2,2,0,0,1-2-2v-.927a2,2,0,0,1,2-2l4.009.118,4.126-.118a2,2,0,0,1,2,2v.927a2,2,0,0,1-1.872,2l-.857.055-.052.741v10.427c0,2.186.924,2.524,1.318,2.668a7.539,7.539,0,0,0,2.663.476,5.148,5.148,0,0,0,3.431-.94c.032-.032.064-.062.1-.091.27-.235.722-1.1.722-4.206v-8.146l-.072-.912-.929-.075a2,2,0,0,1-1.84-1.993v-.927a2,2,0,0,1,2-2c.027,0,1.519.062,1.519.062l1.863.056,2.065-.057s1.525-.061,1.551-.061a2,2,0,0,1,2,2v.927a2,2,0,0,1-2,2,3.673,3.673,0,0,0-.527.037l-.209.022c-.018.176-.035.408-.047.706-.03.418-.028.732-.028,1.124v7.177c0,3.6-.408,6.395-2.4,8.339C107.279,924.993,104.371,926.015,100.83,926.015Z" fill="#fff"/><path d="M112.164,902.87v.927a11.681,11.681,0,0,0-1.406.12,1.574,1.574,0,0,0-.9.358,4.058,4.058,0,0,0-.478,2.213c-.03.39-.03.748-.03,1.2v7.177c0,3.618-.478,5.622-1.794,6.908-1.347,1.436-3.709,2.244-6.729,2.244-3.081,0-4.4-.628-5.2-1.107a4.278,4.278,0,0,1-2.153-2.752,11.871,11.871,0,0,1-.389-3.589V905.293c0-.568-.06-1.257-.987-1.376a9.545,9.545,0,0,0-1.675-.12v-.927l4.008.119,4.127-.119v.927l-1.405.09a1.347,1.347,0,0,0-.987.3,1.992,1.992,0,0,0-.3,1.077l-.09,1.256v10.5c0,2.183.748,3.858,2.632,4.546a9.562,9.562,0,0,0,3.349.6q3.321,0,4.846-1.525c.957-.837,1.405-2.483,1.405-5.712V906.7l-.09-1.136a3.171,3.171,0,0,0-.3-1.256,1.931,1.931,0,0,0-.957-.389l-1.5-.12v-.927l1.436.06,1.943.059,2.124-.059,1.5-.06m-7-4a4,4,0,0,0-2.769,1.114,3.932,3.932,0,0,0-.536.633,3.934,3.934,0,0,0-.518-.616,4,4,0,0,0-2.787-1.131l-.115,0-4.01.116-3.891-.116-.119,0a4,4,0,0,0-4,4v.927a4,4,0,0,0,2.662,3.771v9a15.319,15.319,0,0,0,.572,4.788,8.278,8.278,0,0,0,3.91,4.982c1.33.788,3.336,1.678,7.265,1.678,4.121,0,7.434-1.191,9.587-3.445,2.579-2.572,2.936-6.184,2.936-9.707v-7.246a4,4,0,0,0,2.811-3.82v-.927a4,4,0,0,0-4-4q-.079,0-.159,0l-1.495.06-1.959.055-1.827-.056-1.392-.058c-.056,0-.111,0-.166,0Zm-5.391,8.737a4,4,0,0,0,2.086-1.556,4.009,4.009,0,0,0,2.146,1.575v7.3a10.611,10.611,0,0,1-.255,2.9,3.915,3.915,0,0,1-2,.339,5.46,5.46,0,0,1-1.895-.328,3.046,3.046,0,0,1-.086-.816v-9.409Z" fill="#fff"/><path d="M133.24,926.044a2.054,2.054,0,0,1-.413-.043l-2.123-.448a2,2,0,0,1-1.142-.7L118.97,911.776v7.035c.014.562.03,1.22.054,1.745l.681.024a2,2,0,0,1,1.927,2V923.6a2,2,0,0,1-2,2l-1.39-.032-2.077-.028-2.068.029-1.164.031a2,2,0,0,1-2-2v-1.047a2,2,0,0,1,2-2c.249,0,.45-.006.612-.015.012-.124.02-.27.02-.437l.06-2.035.03-5.542.051-6.612a5.571,5.571,0,0,1-.92-.083,2,2,0,0,1-1.644-1.968v-.987a2,2,0,0,1,2-2l.856.032,1.544.028,1.755-.03.87-.03a2,2,0,0,1,1.627.838l1.047,1.466,1.669,2.193c1.692,2.175,2.694,3.463,4,5l3.654,4.5v-7.538s-.059-1.417-.059-1.432c-.168,0-.367-.007-.6-.007a2,2,0,0,1-2-2V902.87a2,2,0,0,1,2-2l.856.032,2.636.028,2.527-.03s.619-.03.651-.03a2,2,0,0,1,2,2v1.017a2,2,0,0,1-1.9,2l-.685.033a7.88,7.88,0,0,0-.044.9l-.06,2.443v14.724a2,2,0,0,1-1.517,1.941l-.239.059A1.978,1.978,0,0,1,133.24,926.044Z" fill="#fff"/><path d="M136.171,902.87v1.017l-1.226.059a1.412,1.412,0,0,0-.9.3,4.6,4.6,0,0,0-.508,2.571l-.06,2.393v14.774l-.239.06-2.123-.448L116.97,906.13v12.681c.09,3.678.12,3.558,1.017,3.709l1.645.059V923.6l-1.345-.031-2.094-.029-2.124.029-1.136.031v-1.047c1.346,0,2-.15,2.213-.419a4.123,4.123,0,0,0,.419-2.033l.06-1.974.03-5.593.059-7.716c-.9-1.226-1.585-.778-2.572-.957v-.987l.778.03,1.585.03,1.825-.03.837-.03,1.046,1.466,1.705,2.242c1.675,2.153,2.722,3.5,4.068,5.085l3.888,4.785,3.29,3.948v-13.07l-.06-1.466a3.324,3.324,0,0,0-.3-1.614c-.119-.239-.628-.359-2.3-.359V902.87l.778.03,2.692.03,2.572-.03.628-.03m-18-4c-.048,0-.1,0-.145,0l-.8.029-1.715.027-1.475-.027-.737-.029q-.078,0-.156,0a4,4,0,0,0-4,4v.987a4,4,0,0,0,2.551,3.729l-.038,4.913-.03,5.553-.022.723a4,4,0,0,0-2.67,3.774V923.6a4,4,0,0,0,4,4l.107,0,1.109-.029,2.044-.029,2.038.029,1.311.03h.09a4,4,0,0,0,4-4v-1.017a4,4,0,0,0-2.661-3.77v-1.385l7.038,8.689a4,4,0,0,0,2.282,1.4l2.123.449a4.046,4.046,0,0,0,.827.086,3.993,3.993,0,0,0,.966-.119l.24-.059a4,4,0,0,0,3.033-3.882V909.26l.04-1.606a4,4,0,0,0,2.652-3.767V902.87a4,4,0,0,0-4-4c-.064,0-.128,0-.193,0l-.554.026-2.454.028-2.591-.028-.722-.028q-.078,0-.156,0a4,4,0,0,0-4,4v1.017a4,4,0,0,0,2.663,3.77v1.574l-.074-.09c-.018-.023-.037-.045-.055-.067-1.279-1.5-2.271-2.781-3.914-4.894l-.045-.058-1.642-2.159-1.012-1.418a4,4,0,0,0-3.255-1.675Z" fill="#fff"/><path d="M154.047,926.015a17.9,17.9,0,0,1-7.552-1.478,9.443,9.443,0,0,1-3.189-2.9,12.8,12.8,0,0,1-2.594-8.331,12.335,12.335,0,0,1,3.739-9.382c2.428-2.322,5.741-3.5,9.836-3.5a18.91,18.91,0,0,1,7.655,1.34,2,2,0,0,1,1.17,2.425,17.974,17.974,0,0,0-.552,2.559l-.085,1.557a2,2,0,0,1-2,1.89H159.7a2,2,0,0,1-2-1.877l-.093-1.492a8.246,8.246,0,0,0-4.406-1.209,4.82,4.82,0,0,0-3.934,1.768,7.736,7.736,0,0,0-1.567,5.088,8.314,8.314,0,0,0,2.088,6.245,7.434,7.434,0,0,0,5.3,2.132,8.623,8.623,0,0,0,4.724-1.289,2,2,0,0,1,2.031-.145l.3.149a2,2,0,0,1,.868,2.738l-.838,1.555a1.993,1.993,0,0,1-1.021.911A17.918,17.918,0,0,1,154.047,926.015Z" fill="#fff"/><path d="M154.287,902.422a16.975,16.975,0,0,1,6.908,1.195,20.183,20.183,0,0,0-.628,2.932l-.089,1.644H159.7l-.15-2.422a9.826,9.826,0,0,0-6.25-2.154,6.889,6.889,0,0,0-5.563,2.483,9.741,9.741,0,0,0-2.033,6.371c-.15,7.566,5.173,10.377,9.39,10.377a10.528,10.528,0,0,0,5.862-1.645l.3.15-.838,1.555a16.031,16.031,0,0,1-6.37,1.107,15.822,15.822,0,0,1-6.7-1.286,7.776,7.776,0,0,1-2.452-2.3,10.836,10.836,0,0,1-2.184-7.118,10.4,10.4,0,0,1,3.111-7.926c2.064-1.974,4.875-2.96,8.464-2.96m0-4c-4.627,0-8.405,1.369-11.229,4.069a14.434,14.434,0,0,0-4.346,10.817,14.764,14.764,0,0,0,2.949,9.471c.018.024.036.049.055.073a11.31,11.31,0,0,0,3.843,3.454l.082.04a22.405,22.405,0,0,0,16.255.279,4,4,0,0,0,2.043-1.82l.838-1.556a4,4,0,0,0-1.735-5.475l-.3-.15a4,4,0,0,0-4.063.29,6.673,6.673,0,0,1-3.586.934,5.5,5.5,0,0,1-3.874-1.532,6.38,6.38,0,0,1-1.517-4.766c0-.027,0-.053,0-.079a5.848,5.848,0,0,1,1.129-3.839,2.843,2.843,0,0,1,2.38-1.014,7.6,7.6,0,0,1,2.471.445l.023.377a4,4,0,0,0,3.993,3.753h.778a4,4,0,0,0,3.994-3.781l.08-1.464a15.869,15.869,0,0,1,.478-2.191,4,4,0,0,0-2.341-4.85,20.992,20.992,0,0,0-8.4-1.485Z" fill="#fff"/><path d="M168.521,925.955a7.959,7.959,0,0,1-6.733-3.313,8.792,8.792,0,0,1-1.757-5.835,9.283,9.283,0,0,1,3.048-7.165c1.364-1.448,3.554-2.193,6.489-2.193a8.148,8.148,0,0,1,6.312,2.649,9.014,9.014,0,0,1,2.267,6.26,9.992,9.992,0,0,1-.733,4.027,9.669,9.669,0,0,1-2.717,3.567A8.988,8.988,0,0,1,168.521,925.955Zm.539-13.488c-.571,0-2.307,0-2.307,3.263a8.5,8.5,0,0,0,.9,4.233,1.726,1.726,0,0,0,1.648,1c.795,0,2.127,0,2.127-3.533C171.426,915.033,170.8,912.467,169.06,912.467Z" fill="#fff"/><path d="M169.568,909.449a6.114,6.114,0,0,1,4.815,1.975,7.071,7.071,0,0,1,1.764,4.934,8.1,8.1,0,0,1-.568,3.23,7.885,7.885,0,0,1-2.213,2.871,7.062,7.062,0,0,1-4.845,1.5c-2.063,0-3.439-.509-5.2-2.6a6.926,6.926,0,0,1-1.286-4.546,7.36,7.36,0,0,1,2.483-5.772c.986-1.047,2.691-1.586,5.054-1.586m-.269,13.519c2.512,0,4.127-1.556,4.127-5.533,0-4.426-1.7-6.968-4.366-6.968s-4.307,1.884-4.307,5.263a10.362,10.362,0,0,0,1.166,5.234,3.725,3.725,0,0,0,3.38,2m.269-17.519c-3.492,0-6.164.948-7.942,2.818a11.386,11.386,0,0,0-3.595,8.54,10.674,10.674,0,0,0,2.207,7.1c2.429,2.884,4.823,4.05,8.283,4.05a10.91,10.91,0,0,0,7.508-2.511,11.693,11.693,0,0,0,3.25-4.336,11.97,11.97,0,0,0,.868-4.75,11.122,11.122,0,0,0-2.8-7.623,10.073,10.073,0,0,0-7.777-3.286Zm-.265,13.365a7.112,7.112,0,0,1-.55-3.084,3.432,3.432,0,0,1,.167-1.206,6.444,6.444,0,0,1,.506,2.911,6.369,6.369,0,0,1-.123,1.379Z" fill="#fff"/><path d="M176.173,925.6a2,2,0,0,1-2-2v-.808a2,2,0,0,1,2-2c.1,0,.19,0,.271,0l0-14.923c-.091,0-.191,0-.3,0a2,2,0,0,1-2-2v-.807a2,2,0,0,1,2-2,5.893,5.893,0,0,0,1.241-.231l.462-.107a17.29,17.29,0,0,0,1.838-.516l.392-.127a2,2,0,0,1,1.336.039l.539.209a2,2,0,0,1,1.275,1.941l-.121,3.14s0,15.308,0,15.388l.242,0a2,2,0,0,1,2,2v.808a2,2,0,0,1-2,2l-1.133-.032-2.627-.028-2.467.029Z" fill="#fff"/><path d="M180.689,901.973l.539.209-.12,3.14v15.194c0,1.2.06,1.614.449,2a3.479,3.479,0,0,0,1.794.268v.808l-1.077-.031-2.661-.029-2.512.029-.928.031v-.808A4.32,4.32,0,0,0,178,922.52a1.249,1.249,0,0,0,.448-1.108V905.621a2.169,2.169,0,0,0-.328-1.435,3.475,3.475,0,0,0-1.974-.329v-.807a9.6,9.6,0,0,0,2.153-.39,22.308,22.308,0,0,0,2.392-.687m0-4a4.009,4.009,0,0,0-1.225.192l-.4.13a15.243,15.243,0,0,1-1.664.467l-.47.11c-.335.078-.715.167-.821.18a3.967,3.967,0,0,0-3.964,4v.807a4,4,0,0,0,2.3,3.624v11.7a4,4,0,0,0-2.273,3.608v.808a4,4,0,0,0,4,4l.131,0,.886-.029,2.424-.029,2.582.029,1.043.029.112,0a4,4,0,0,0,4-4v-.808a4,4,0,0,0-2.243-3.594V905.4l.117-3.064a4,4,0,0,0-2.55-3.882l-.539-.209a3.981,3.981,0,0,0-1.447-.271Z" fill="#fff"/><path d="M183.833,925.6a2,2,0,0,1-2-2v-.808a2,2,0,0,1,2-2c.1,0,.19,0,.271,0l0-14.923c-.09,0-.191,0-.3,0a2,2,0,0,1-2-2v-.807a2,2,0,0,1,2-2,5.893,5.893,0,0,0,1.241-.231l.462-.107a17.29,17.29,0,0,0,1.838-.516l.392-.127a2,2,0,0,1,1.336.039l.539.209a2,2,0,0,1,1.275,1.941l-.12,3.14s0,15.308,0,15.388l.241,0a2,2,0,0,1,2,2v.808a2,2,0,0,1-2,2l-1.133-.032-2.627-.028-2.467.029Z" fill="#fff"/><path d="M188.35,901.973l.538.209-.12,3.14v15.194c0,1.2.06,1.614.449,2a3.479,3.479,0,0,0,1.794.268v.808l-1.076-.031-2.662-.029-2.512.029-.928.031v-.808a4.32,4.32,0,0,0,1.825-.268,1.249,1.249,0,0,0,.448-1.108V905.621a2.169,2.169,0,0,0-.328-1.435,3.475,3.475,0,0,0-1.974-.329v-.807a9.586,9.586,0,0,0,2.153-.39,22.334,22.334,0,0,0,2.393-.687m0-4a4.01,4.01,0,0,0-1.226.192l-.4.13a15.282,15.282,0,0,1-1.663.467l-.471.11c-.335.078-.715.167-.821.18a3.968,3.968,0,0,0-3.964,4v.807a4,4,0,0,0,2.3,3.624v11.7a4,4,0,0,0-2.273,3.608v.808a4,4,0,0,0,4,4l.131,0,.886-.029,2.424-.029,2.582.029,1.043.029.112,0a4,4,0,0,0,4-4v-.808a4,4,0,0,0-2.243-3.594V905.4l.117-3.064a4,4,0,0,0-2.55-3.882l-.538-.209a3.988,3.988,0,0,0-1.447-.271Z" fill="#fff"/><path d="M197.643,926.015a8.122,8.122,0,0,1-5.732-1.856,9.11,9.11,0,0,1-2.319-3.44,12.67,12.67,0,0,1-.528-3.7c0-2.886.728-5.09,2.163-6.551a9.828,9.828,0,0,1,2.808-2.045,8.275,8.275,0,0,1,3.818-.971c2.338,0,4.031.6,5.176,1.838a9.032,9.032,0,0,1,1.9,2.8,7.454,7.454,0,0,1,.519,2.895,1.971,1.971,0,0,1-.038.391,3.276,3.276,0,0,1-1.606,1.975c-.039.027-.079.052-.12.076a10.053,10.053,0,0,1-1.618.784,5.29,5.29,0,0,1-1.788.3H196a2.652,2.652,0,0,0,.643,1.08,3.239,3.239,0,0,0,2.286.871,4.193,4.193,0,0,0,2.14-.482,2.834,2.834,0,0,0,.5-.336,2,2,0,0,1,2.45-.037l.239.179a2,2,0,0,1,.522,2.615l-.208.353-.147.4a1.988,1.988,0,0,1-.752.963,11.094,11.094,0,0,1-2.767,1.441c-.055.018-.112.035-.168.048l-.1.024A11.991,11.991,0,0,1,197.643,926.015Zm.488-12.584.608-.01a1.057,1.057,0,0,0-.109-.368,1.749,1.749,0,0,0-.568-.48,1.919,1.919,0,0,0-.628-.106c-.879,0-1.1.323-1.215.5a2.517,2.517,0,0,0-.2.426Z" fill="#fff"/><path d="M197.853,909.449a4.846,4.846,0,0,1,3.708,1.2,7.22,7.22,0,0,1,1.5,2.153,5.581,5.581,0,0,1,.388,2.183c-.029.15-.3.389-.778.718a8.131,8.131,0,0,1-1.285.628,3.3,3.3,0,0,1-1.107.18h-6.549a6.018,6.018,0,0,0,1.524,4.515,5.28,5.28,0,0,0,3.679,1.436,6.162,6.162,0,0,0,3.081-.718,4.685,4.685,0,0,0,.807-.538l.24.18-.3.508-.209.568a9.159,9.159,0,0,1-2.273,1.2,10.227,10.227,0,0,1-2.632.36,6.247,6.247,0,0,1-4.366-1.317,7.122,7.122,0,0,1-1.795-2.632,10.593,10.593,0,0,1-.418-3.05c0-2.363.538-4.1,1.615-5.174a7.835,7.835,0,0,1,2.273-1.645,6.243,6.243,0,0,1,2.9-.748m.239,5.982,1.825-.03.867-.03v-1.315a3.321,3.321,0,0,0-.718-2.393,3.391,3.391,0,0,0-1.286-.957,3.991,3.991,0,0,0-1.346-.239,3.22,3.22,0,0,0-2.871,1.375,6.489,6.489,0,0,0-.837,3.47l1.345.059,3.021.06m-.239-9.982a10.269,10.269,0,0,0-4.734,1.193,11.827,11.827,0,0,0-3.344,2.447c-1.8,1.847-2.711,4.513-2.711,7.927a14.635,14.635,0,0,0,.587,4.2c.016.052.033.1.05.155a10.959,10.959,0,0,0,2.747,4.156l.1.093a10.029,10.029,0,0,0,7.1,2.395,13.937,13.937,0,0,0,3.459-.445l.1-.023q.169-.041.336-.1a13.176,13.176,0,0,0,3.261-1.685,4,4,0,0,0,1.5-1.927l.084-.229.116-.2a4,4,0,0,0-.777-5.01,4.65,4.65,0,0,0,1.642-2.64,4.018,4.018,0,0,0,.077-.782,9.572,9.572,0,0,0-.68-3.685,11.068,11.068,0,0,0-2.269-3.37,8.645,8.645,0,0,0-6.643-2.478Z" fill="#fff"/><path d="M211.029,925.955a8.026,8.026,0,0,1-6.5-2.63,9.5,9.5,0,0,1-2.053-6.189c0-1,.149-4.377,2.049-6.345a11.231,11.231,0,0,1,3.319-2.374,8.79,8.79,0,0,1,4.408-.968h.318a7.669,7.669,0,0,1,2.343.314,5.832,5.832,0,0,1,2.045.878,2,2,0,0,1,.811,1.837l-.418,3.8a2,2,0,0,1-1.988,1.782h-.748a2,2,0,0,1-2-2v-.5c-.012-.066-.046-.275-.052-.315a4.069,4.069,0,0,0-1.456-.323c-1.534.143-2.055.246-2.119,2.863,0,2.1.365,3.12,1.5,4.155a2.424,2.424,0,0,0,1.674.586,5.465,5.465,0,0,0,2.511-.7,2,2,0,0,1,2.256.276l.269.239a2,2,0,0,1,.406,2.493l-.688,1.2a2,2,0,0,1-.731.734,10.307,10.307,0,0,1-5.088,1.2Z" fill="#fff"/><path d="M212.573,909.448a5.788,5.788,0,0,1,1.806.24,4.169,4.169,0,0,1,1.406.569l-.419,3.8h-.748v-.689a2.937,2.937,0,0,0-.478-1.465,5.082,5.082,0,0,0-3.111-.987c-2.6.239-3.947,1.106-4.037,4.815,0,2.542.478,4.157,2.153,5.682a4.437,4.437,0,0,0,3.021,1.108,7.573,7.573,0,0,0,3.439-.928l.27.239-.688,1.2a8.392,8.392,0,0,1-4.158.928,6.091,6.091,0,0,1-4.964-1.914,7.546,7.546,0,0,1-1.586-4.905c0-1.794.449-3.918,1.526-4.994a9.391,9.391,0,0,1,2.811-1.975,6.922,6.922,0,0,1,3.439-.718h.318m0-4h-.318a10.729,10.729,0,0,0-5.4,1.23,13.3,13.3,0,0,0-3.806,2.762c-2.319,2.438-2.573,6.18-2.573,7.695a11.439,11.439,0,0,0,2.484,7.43l.035.043c1.859,2.22,4.561,3.346,8.031,3.346l.143,0a12.2,12.2,0,0,0,6.019-1.464,3.993,3.993,0,0,0,1.463-1.468l.688-1.2a4,4,0,0,0-.812-4.985l-.27-.24a2.143,2.143,0,1,1,1.082-4.106l.419-3.8a4,4,0,0,0-1.624-3.674,7.727,7.727,0,0,0-2.686-1.187,9.7,9.7,0,0,0-2.878-.386Zm-1.581,10.332v-.032a4,4,0,0,0,2.88,2.238c-.042.02-.084.041-.125.063a3.478,3.478,0,0,1-1.582.471.468.468,0,0,1-.373-.107c-.48-.439-.8-.782-.8-2.633Z" fill="#fff"/><path d="M221.775,925.955a5,5,0,0,1-4.048-1.526q-.039-.048-.075-.1a7.058,7.058,0,0,1-1.017-4.267v-6.074h-.093a2,2,0,0,1-2-2v-.449a2,2,0,0,1,1.24-1.851l.963-.394-.02-2.386-.053-.608a2,2,0,0,1,1.107-1.967l2.423-1.2a2,2,0,0,1,2,.13l.358.239a2,2,0,0,1,.882,1.832l-.113,1.343q0,.137-.015.393c-.012.262-.028.642-.044,1.151,0,0-.013.384-.014.4l.6-.041,1.1-.113a1.726,1.726,0,0,1,.2-.011,2,2,0,0,1,1.99,2.2l-.15,1.526a2,2,0,0,1-1.99,1.8h-1.828v5.088a5.924,5.924,0,0,0,.078,1.245l.645-.059.754-.134a1.9,1.9,0,0,1,.352-.031,2,2,0,0,1,1.837,1.211l.179.419a2,2,0,0,1-.656,2.4l-.9.657c-.054.04-.11.076-.167.11l-1.017.6a1.988,1.988,0,0,1-.744.258l-.658.09-.9.1A1.9,1.9,0,0,1,221.775,925.955Z" fill="#fff"/><path d="M221.087,904.934l.359.239-.119,1.4c0,.151-.031.658-.06,1.586s-.06,1.734-.06,2.542c1.2,0,2.333-.09,2.781-.12l1.167-.119-.15,1.525h-3.828v7.088a4.834,4.834,0,0,0,.508,2.661c.21.389.718.6,1.5.6l.986-.09.838-.149.18.419-.9.657-1.016.6-.659.09-.837.09a3.155,3.155,0,0,1-2.512-.808,5.437,5.437,0,0,1-.628-3.081v-8.074h-2.093v-.449l1.166-.479,1.046-.538-.029-3.709-.06-.687,2.422-1.2m4.068,5.533h0m-4.073-9.533a4,4,0,0,0-1.771.413l-2.422,1.2a4,4,0,0,0-2.214,3.935l.046.53.008.967a4,4,0,0,0-2.192,3.568v.449a4,4,0,0,0,2.093,3.517v4.557a8.877,8.877,0,0,0,1.407,5.453c.047.065.1.128.149.19a6.884,6.884,0,0,0,5.584,2.246,4.072,4.072,0,0,0,.427-.023l.837-.09c.038,0,.076-.008.114-.014l.659-.089a4.008,4.008,0,0,0,1.488-.517l1.017-.6a3.91,3.91,0,0,0,.333-.22l.9-.657a4,4,0,0,0,1.313-4.8l-.18-.419a4,4,0,0,0-3.5-2.42v-2.115a4,4,0,0,0,3.809-3.606l.135-1.373a4.059,4.059,0,0,0,.036-.543,4,4,0,0,0-3.807-4l.082-.96a4,4,0,0,0-1.765-3.665l-.359-.239a3.994,3.994,0,0,0-2.221-.673Z" fill="#fff"/><path d="M231.034,925.565l-2.295-.029-1.918.029-1.2.031a2,2,0,0,1-2-2v-.808a2,2,0,0,1,2-2c.1,0,.191,0,.272,0v-7.242h-.3a2,2,0,0,1-2-2v-.837a2,2,0,0,1,1.616-1.963c.258-.051.516-.094.779-.138a12.874,12.874,0,0,0,1.886-.417,3.656,3.656,0,1,1,4.773-3.434,3.456,3.456,0,0,1-1.594,2.974l.188.075a2,2,0,0,1,1.257,1.856v11.125c.1,0,.208,0,.332,0a2,2,0,0,1,2,2v.808a2,2,0,0,1-2,2Z" fill="#fff"/><path d="M229,903.05a1.691,1.691,0,0,1,1.645,1.7A1.63,1.63,0,0,1,229,906.369a1.679,1.679,0,0,1-1.675-1.615,1.642,1.642,0,0,1,1.675-1.7m1.047,6.429.449.18v10.916c0,1.076.059,1.526.418,1.914.209.209.837.3,1.914.3v.808l-1.764-.031-2.3-.029-1.974.029-1.166.031v-.808a3.474,3.474,0,0,0,1.854-.3,1.9,1.9,0,0,0,.418-1.466v-7.985a1.425,1.425,0,0,0-.358-1.166,1.987,1.987,0,0,0-1.346-.329h-.6v-.837a15.321,15.321,0,0,0,4.456-1.227M229,899.05a5.629,5.629,0,0,0-5.675,5.7,5.535,5.535,0,0,0,.522,2.352,4,4,0,0,0-2.256,3.6v.837a4,4,0,0,0,2.3,3.623v4.013a4,4,0,0,0-2.272,3.609v.808a4,4,0,0,0,4,4l.1,0,1.167-.03,1.874-.028,2.248.029,1.746.03h.069a4,4,0,0,0,4-4v-.808a4,4,0,0,0-2.332-3.637v-9.492a3.99,3.99,0,0,0-.592-2.093,5.564,5.564,0,0,0,.741-2.812,5.681,5.681,0,0,0-5.645-5.7Z" fill="#fff"/><path d="M239.26,925.955a7.96,7.96,0,0,1-6.733-3.313,8.792,8.792,0,0,1-1.756-5.835,9.285,9.285,0,0,1,3.047-7.165c1.365-1.448,3.555-2.193,6.489-2.193a8.148,8.148,0,0,1,6.312,2.649,9.015,9.015,0,0,1,2.268,6.26,9.991,9.991,0,0,1-.734,4.027,9.676,9.676,0,0,1-2.716,3.567A8.992,8.992,0,0,1,239.26,925.955Zm.539-13.488c-.57,0-2.307,0-2.307,3.263a8.5,8.5,0,0,0,.9,4.233,1.727,1.727,0,0,0,1.648,1c.795,0,2.127,0,2.127-3.533C242.165,915.033,241.543,912.467,239.8,912.467Z" fill="#fff"/><path d="M240.307,909.449a6.113,6.113,0,0,1,4.815,1.975,7.067,7.067,0,0,1,1.765,4.934,8.083,8.083,0,0,1-.569,3.23,7.885,7.885,0,0,1-2.213,2.871,7.061,7.061,0,0,1-4.845,1.5c-2.063,0-3.439-.509-5.2-2.6a6.92,6.92,0,0,1-1.286-4.546,7.358,7.358,0,0,1,2.482-5.772c.987-1.047,2.691-1.586,5.054-1.586m-.269,13.519c2.512,0,4.127-1.556,4.127-5.533,0-4.426-1.7-6.968-4.366-6.968s-4.307,1.884-4.307,5.263a10.351,10.351,0,0,0,1.167,5.234,3.723,3.723,0,0,0,3.379,2m.269-17.519c-3.492,0-6.164.948-7.942,2.818a11.389,11.389,0,0,0-3.594,8.54,10.674,10.674,0,0,0,2.206,7.1c2.43,2.884,4.823,4.05,8.283,4.05a10.91,10.91,0,0,0,7.508-2.511,11.707,11.707,0,0,0,3.251-4.336,11.97,11.97,0,0,0,.868-4.75,11.118,11.118,0,0,0-2.8-7.623,10.073,10.073,0,0,0-7.777-3.286Zm-.265,13.365a7.112,7.112,0,0,1-.55-3.084,3.432,3.432,0,0,1,.167-1.206,6.444,6.444,0,0,1,.506,2.911,6.369,6.369,0,0,1-.123,1.379Z" fill="#fff"/><path d="M262.728,925.6l-1.575-.062-.605,0a3.414,3.414,0,0,0-.582.034,1.941,1.941,0,0,1-.348.031h-.659a2,2,0,0,1-1.993-2.166l.09-1.076.053-.771v-6.9a1.2,1.2,0,0,0-.32-.969,1.844,1.844,0,0,0-1.149-.352,1.418,1.418,0,0,0-.765.211c-.039.023-.079.044-.12.064-.674.33-.674.547-.674.776v6.371c.084,0,.174,0,.273,0a2,2,0,0,1,2,2v.808a2,2,0,0,1-2,2l-4.209-.118-1.643.057s-1.264.061-1.3.061a2,2,0,0,1-2-2v-.808a2,2,0,0,1,2-2h.2c.035,0,.071-.008.107-.012v-7.233h-.333a2,2,0,0,1-2-2v-.808a2,2,0,0,1,1.607-1.961c.442-.088.761-.128,1.018-.159l.111-.013a6.681,6.681,0,0,0,1.013-.258,1.8,1.8,0,0,1,.192-.048,7.765,7.765,0,0,0,1.741-.545,2,2,0,0,1,1.319-.122l.359.09a1.989,1.989,0,0,1,1.057.666c.051-.031.1-.059.15-.086a6.362,6.362,0,0,1,3.273-.73,6.832,6.832,0,0,1,4.557,1.559c1.4,1.108,2.108,2.917,2.108,5.376v6.281q.1,0,.213,0a2,2,0,0,1,2,2v.808a2,2,0,0,1-2,2Z" fill="#fff"/><path d="M257.016,909.569a4.863,4.863,0,0,1,3.289,1.107c.927.718,1.376,2,1.376,3.828v6.759a1.578,1.578,0,0,0,.389,1.167,3.142,3.142,0,0,0,1.824.358v.808h-1.166l-1.5-.06c-.24,0-.467,0-.684,0a5.252,5.252,0,0,0-.93.065h-.659l.09-1.076.06-.869v-6.967a3.162,3.162,0,0,0-1.047-2.513,3.815,3.815,0,0,0-2.422-.808,3.42,3.42,0,0,0-1.765.479,2.714,2.714,0,0,0-1.794,2.572V921.5c0,.568.12.9.389,1.047a4.721,4.721,0,0,0,1.884.239v.808l-2.034-.06-2.183-.059-1.705.059-1.226.06v-.808h.359a1.064,1.064,0,0,1,.256-.025c.171,0,.367.02.563.02.561,0,1.125-.161,1.125-1.4V912.59c0-.688-.269-1.047-.838-1.047h-1.5v-.808c.449-.089.748-.119.987-.149a8.639,8.639,0,0,0,1.346-.329,9.765,9.765,0,0,0,2.183-.688l.359.09-.03.9-.03,1.673a18.3,18.3,0,0,1,2.722-2.182,4.551,4.551,0,0,1,2.3-.479m-5.324-4a4,4,0,0,0-1.667.364,5.737,5.737,0,0,1-1.3.4c-.13.026-.258.059-.384.1a6.694,6.694,0,0,1-.712.191l-.068.008c-.256.031-.643.078-1.171.183a4,4,0,0,0-3.214,3.922v.808a4,4,0,0,0,2.333,3.637v3.985a4,4,0,0,0-2.3,3.623v.808a4,4,0,0,0,4,4c.065,0,.129,0,.194,0l1.2-.058,1.553-.055,2.059.057,2.026.059.117,0a4,4,0,0,0,2.3-.73,4,4,0,0,0,2.3.73h.659a4.064,4.064,0,0,0,.7-.061h0c.011,0,.077,0,.233,0l.282,0,.306,0,1.433.058q.079,0,.159,0h1.166a4,4,0,0,0,4-4v-.808a4,4,0,0,0-2.213-3.579v-4.7c0-3.089-.956-5.417-2.841-6.923a8.892,8.892,0,0,0-5.824-2.012,9.334,9.334,0,0,0-3.2.5,3.956,3.956,0,0,0-.8-.292l-.359-.09a3.989,3.989,0,0,0-.97-.12Z" fill="#fff"/><path d="M276.09,925.9c-4.375,0-7.8-3.743-7.8-8.52a9.745,9.745,0,0,1,1.87-6.06,10.864,10.864,0,0,1,3.146-2.435,8.288,8.288,0,0,1,4.252-1.37,11.058,11.058,0,0,1,1.708.133v-1.9l-.363,0a2,2,0,0,1-2-2v-.867a2,2,0,0,1,2-2,11.256,11.256,0,0,0,2.08-.364,13.509,13.509,0,0,0,1.844-.522,2.006,2.006,0,0,1,1.857.23l.3.209a2,2,0,0,1,.855,1.639v18.656c.114.006.262.011.453.011a2,2,0,0,1,2,2v.867a2,2,0,0,1-2,2c-.037,0-2.2-.117-2.2-.117s-2.8.117-2.829.117a2,2,0,0,1-1.384-.557,2.223,2.223,0,0,1-.162-.174l-.1.085a2,2,0,0,1-.714.383l-1.107.329c-.051.016-.1.028-.155.04l-.19.04A5.231,5.231,0,0,1,276.09,925.9Zm.838-13.16a1.886,1.886,0,0,0-1.41.773,4.106,4.106,0,0,0-.777,2.791,3.83,3.83,0,0,0,.833,2.727,2.105,2.105,0,0,0,1.593.865c1.372,0,2.1-.632,2.1-1.829v-4.393a3.93,3.93,0,0,0-.653-.409q-.047-.024-.093-.051A3.106,3.106,0,0,0,276.928,912.735Z" fill="#fff"/><path d="M283.537,901.854l.3.208v18.9c0,1.435.419,1.4,1.137,1.644a5.3,5.3,0,0,0,1.316.121v.867l-1.077-.06-1.107-.059-1.435.059-1.406.06v-2.632l-2.931,2.452-1.106.329a3.952,3.952,0,0,1-1.137.15c-3.02,0-5.8-2.573-5.8-6.52a7.744,7.744,0,0,1,1.436-4.815,9.224,9.224,0,0,1,2.572-1.944,6.483,6.483,0,0,1,3.26-1.106,7.333,7.333,0,0,1,3.708.9v-5.921c0-.628-.568-.748-2.363-.748v-.867a13.252,13.252,0,0,0,2.543-.419,15.388,15.388,0,0,0,2.093-.6m-6.37,20.037a3.734,3.734,0,0,0,4.1-3.829v-5.083a3.836,3.836,0,0,0-1.734-1.5,5.091,5.091,0,0,0-2.6-.748,3.894,3.894,0,0,0-2.871,1.407,5.917,5.917,0,0,0-1.316,4.157,5.713,5.713,0,0,0,1.375,4.1,4.153,4.153,0,0,0,3.051,1.5m6.37-24.037a3.991,3.991,0,0,0-1.424.262,11.526,11.526,0,0,1-1.519.426l-.075.018a10.146,10.146,0,0,1-1.635.31,3.986,3.986,0,0,0-3.983,4v.867a3.989,3.989,0,0,0,.562,2.046,11.938,11.938,0,0,0-3.2,1.388,12.467,12.467,0,0,0-3.677,2.907,11.736,11.736,0,0,0-2.3,7.3c0,5.9,4.306,10.52,9.8,10.52a7.16,7.16,0,0,0,1.783-.2l.181-.038c.105-.023.21-.049.312-.08l1.107-.329.1-.03a4.013,4.013,0,0,0,1.693.376c.056,0,.113,0,.169,0l1.406-.059,1.242-.052.916.049,1.071.06c.073,0,.147.006.221.006a4,4,0,0,0,4-4v-.867a4,4,0,0,0-2.453-3.69V902.062a4,4,0,0,0-1.71-3.279l-.3-.209a4,4,0,0,0-2.29-.72Zm-6.273,20.019a1.971,1.971,0,0,1-.232-.216,2.48,2.48,0,0,1-.291-1.358,2.753,2.753,0,0,1,.242-1.431c.044-.047.082-.084.114-.112a1.124,1.124,0,0,1,.167.056v3.061Z" fill="#fff"/><path d="M293.083,926.015a8.123,8.123,0,0,1-5.733-1.856,9.121,9.121,0,0,1-2.319-3.44,12.67,12.67,0,0,1-.528-3.7c0-2.886.728-5.09,2.164-6.551a9.828,9.828,0,0,1,2.808-2.045,8.274,8.274,0,0,1,3.817-.971c2.338,0,4.032.6,5.176,1.838a9.015,9.015,0,0,1,1.9,2.8,7.435,7.435,0,0,1,.52,2.895,1.972,1.972,0,0,1-.039.391,3.273,3.273,0,0,1-1.606,1.975c-.039.027-.079.052-.119.076a10.093,10.093,0,0,1-1.618.784,5.291,5.291,0,0,1-1.789.3h-4.275a2.664,2.664,0,0,0,.644,1.08,3.237,3.237,0,0,0,2.286.871,4.192,4.192,0,0,0,2.139-.482,2.834,2.834,0,0,0,.5-.336,2,2,0,0,1,2.45-.037l.239.179a2,2,0,0,1,.522,2.615l-.207.353-.147.4a1.994,1.994,0,0,1-.752.963,11.1,11.1,0,0,1-2.768,1.441c-.055.018-.111.035-.168.048l-.1.024A12,12,0,0,1,293.083,926.015Zm.488-12.584.607-.01a1.076,1.076,0,0,0-.108-.368,1.733,1.733,0,0,0-.569-.48,1.913,1.913,0,0,0-.627-.106c-.879,0-1.1.323-1.216.5a2.6,2.6,0,0,0-.205.426Z" fill="#fff"/><path d="M293.292,909.449a4.843,4.843,0,0,1,3.708,1.2,7.183,7.183,0,0,1,1.5,2.153,5.581,5.581,0,0,1,.389,2.183c-.03.15-.3.389-.778.718a8.093,8.093,0,0,1-1.286.628,3.291,3.291,0,0,1-1.107.18h-6.549a6.014,6.014,0,0,0,1.525,4.515,5.279,5.279,0,0,0,3.679,1.436,6.161,6.161,0,0,0,3.08-.718,4.689,4.689,0,0,0,.808-.538l.239.18-.3.508-.209.568a9.165,9.165,0,0,1-2.274,1.2,10.218,10.218,0,0,1-2.631.36,6.251,6.251,0,0,1-4.367-1.317,7.118,7.118,0,0,1-1.794-2.632,10.592,10.592,0,0,1-.419-3.05c0-2.363.539-4.1,1.615-5.174a7.849,7.849,0,0,1,2.273-1.645,6.246,6.246,0,0,1,2.9-.748m.239,5.982,1.825-.03.867-.03v-1.315a3.316,3.316,0,0,0-.718-2.393,3.376,3.376,0,0,0-1.286-.957,3.99,3.99,0,0,0-1.345-.239A3.22,3.22,0,0,0,290,911.842a6.489,6.489,0,0,0-.837,3.47l1.346.059,3.02.06m-.239-9.982a10.272,10.272,0,0,0-4.734,1.193,11.821,11.821,0,0,0-3.343,2.447c-1.8,1.847-2.712,4.513-2.712,7.927a14.6,14.6,0,0,0,.588,4.2c.015.052.032.1.05.155a10.948,10.948,0,0,0,2.747,4.156l.1.093a10.032,10.032,0,0,0,7.1,2.395,13.927,13.927,0,0,0,3.458-.445l.1-.023c.114-.027.226-.059.337-.1a13.15,13.15,0,0,0,3.26-1.685,3.992,3.992,0,0,0,1.5-1.927l.084-.229.116-.2a4,4,0,0,0-.777-5.01,4.651,4.651,0,0,0,1.643-2.64,4.018,4.018,0,0,0,.077-.782,9.554,9.554,0,0,0-.681-3.685,11.068,11.068,0,0,0-2.269-3.37,8.644,8.644,0,0,0-6.643-2.478Z" fill="#fff"/><path d="M317.482,925.835a2,2,0,0,1-1.815-1.161l-1.825-3.948-2.266-4.8-.363-.743.015,3.171s.03,2.217.032,2.28l.955.069a2,2,0,0,1,1.854,2v.9a2,2,0,0,1-2,2h-1.017l-2.238-.061-1.147,0a11.825,11.825,0,0,0-1.281.05,1.905,1.905,0,0,1-.239.015H305.1a2,2,0,0,1-2-2v-.9a2,2,0,0,1,2-2,4.255,4.255,0,0,0,.513-.028c0-.031.121-1.631.121-1.631l.118-4.676.085-8.442c-.225-.025-.525-.048-.924-.066A2,2,0,0,1,303.1,903.8l.03-.987a2,2,0,0,1,2-1.939l.965.031,1.7.029,1.91-.03.958-.03a2,2,0,0,1,1.874,1.3c.331.89.71,1.738,1.337,3.143l.2.446,2.133,4.471,2.209,4.416,4.229-8.872,1.617-3.708a2,2,0,0,1,1.833-1.2l1.049.031,1.736.029,2-.03.806-.03a2,2,0,0,1,2,2v.927a2,2,0,0,1-2,2l-.337,0c-.1,0-.222,0-.428.022l-.017.31v13.022l.072,1.41.891.054a2,2,0,0,1,1.879,2v.988a2,2,0,0,1-2,2h-.9l-3.148-.06-1.622,0a12.257,12.257,0,0,0-1.317.044,1.915,1.915,0,0,1-.283.021H323.7a2,2,0,0,1-2-2v-.988a2,2,0,0,1,2-2h.572l.029-.4v-5.287l-.41.863-2.267,4.862-1.744,3.993a2,2,0,0,1-1.833,1.2Z" fill="#fff"/><path d="M331.688,902.87v.927c-.118,0-.221,0-.338,0a8.623,8.623,0,0,0-1.158.093,2.244,2.244,0,0,0-.986.3,1.671,1.671,0,0,0-.24.807l-.06,1.077V919.2l.09,1.765a2.911,2.911,0,0,0,.3,1.256,2.283,2.283,0,0,0,.987.3l1.466.088v.988h-.9l-3.11-.06c-.638,0-1.189,0-1.661,0a12.444,12.444,0,0,0-1.6.065H323.7v-.988h.538c.239,0,.658-.059.807-.059.778,0,1.167-.329,1.167-1.017l.089-1.256V906.07l-1.914,4.008-2.3,4.845-2.273,4.875-1.764,4.037h-.568l-1.824-3.948-2.274-4.815-2.332-4.785L309.2,906.31v5.532l.03,6.52.029,2.093a2.852,2.852,0,0,0,.359,1.765,3.117,3.117,0,0,0,1.226.388l1.227.09v.9h-1.017l-2.183-.06c-.422,0-.824,0-1.2,0a13.06,13.06,0,0,0-1.519.065H305.1v-.9a3.7,3.7,0,0,0,2.184-.538,2.41,2.41,0,0,0,.328-1.435l.12-1.585.12-4.726.089-8.972-.089-.628c-.03-.6-.718-.868-2.752-.957l.03-.987.9.03,1.735.03,1.974-.03.927-.03c.389,1.047.837,2.033,1.585,3.708L314.4,911.1l2.244,4.485,1.824,3.739c.448-1.047.987-2.243,1.7-3.709l2.154-4.515,2.123-4.456,1.645-3.769.987.03,1.765.03,2.063-.03.778-.03m-21.024-4-.131,0-.892.029-1.875.028-1.637-.027-.864-.03-.135,0a4,4,0,0,0-4,3.877l-.03.988a4,4,0,0,0,2.817,3.945l-.067,6.663-.116,4.594A4,4,0,0,0,301.1,922.7v.9a4,4,0,0,0,4,4h1.047a4,4,0,0,0,.477-.029,10.391,10.391,0,0,1,1.042-.036l.545,0,.594,0,2.138.058.109,0h1.017a3.983,3.983,0,0,0,2.576-.941,4,4,0,0,0,2.837,1.18h.568A4,4,0,0,0,321,926.541,3.986,3.986,0,0,0,323.7,927.6h.777a3.984,3.984,0,0,0,.567-.041c.086-.01.341-.024,1.032-.024l.688,0,.928,0,3.078.059h.975a4,4,0,0,0,4-4v-.988a4,4,0,0,0-2.842-3.829V907.608a4,4,0,0,0,2.782-3.811v-.927a4,4,0,0,0-4-4q-.078,0-.156,0l-.728.028-1.952.028-1.676-.028-.958-.029-.124,0a4,4,0,0,0-3.665,2.4l-1.618,3.708-2.095,4.4-.343.719L318,909.34,315.88,904.9l-.179-.4c-.611-1.368-.98-2.194-1.288-3.023a4,4,0,0,0-3.749-2.608Z" fill="#fff"/><path d="M337.525,925.955c-3.874,0-6.008-2.091-6.008-5.889v-6.529c-.145-.008-.3-.019-.449-.037a2,2,0,0,1-1.764-1.986v-.808a2,2,0,0,1,1.846-1.994,11.7,11.7,0,0,0,3.929-1.034,1.975,1.975,0,0,1,.8-.168,2,2,0,0,1,.946.238l.389.209a2,2,0,0,1,1.052,1.861l-.178,3.482v5.959a3.725,3.725,0,0,0,.055.714,2.1,2.1,0,0,0,.3.176l0,0c.025,0,.143.013.393.013a2.1,2.1,0,0,0,2.067-1.195v-5.451h-.542a2,2,0,0,1-2-2v-.808a2,2,0,0,1,2-2,4.78,4.78,0,0,0,.646-.045,11.168,11.168,0,0,0,1.273-.28,13.759,13.759,0,0,0,2.192-.72,2.017,2.017,0,0,1,.764-.151,1.993,1.993,0,0,1,.717.133l.389.149a2,2,0,0,1,1.278,2.01l-.09,1.256-.056,1.432v8.292q.157.006.363.006a2,2,0,0,1,2,2v.808a2,2,0,0,1-2,2l-.883-.032-1.488-.028-1.541.029-.963.031a2,2,0,0,1-1.391-.563c-.025-.025-.051-.051-.075-.077-.146.09-.285.167-.419.233A6.982,6.982,0,0,1,337.525,925.955Z" fill="#fff"/><path d="M345.241,909.51l.389.149-.09,1.256-.06,1.5v8.734a1.791,1.791,0,0,0,.359,1.286,3.331,3.331,0,0,0,2,.358v.808l-.807-.031-1.526-.029-1.615.029-.927.031V921.2a15.146,15.146,0,0,1-2.811,2.213,5.076,5.076,0,0,1-2.632.539c-2.632,0-4.008-1.107-4.008-3.889v-7.087c0-1.794-.957-1.316-2.213-1.465v-.808a13.781,13.781,0,0,0,4.576-1.2l.389.209-.09,1.795-.09,1.734v6.011a2.714,2.714,0,0,0,.628,2.153,4.385,4.385,0,0,0,1.077.629,3.375,3.375,0,0,0,1.047.119,4.165,4.165,0,0,0,4.067-2.722V912.8c0-.867-.329-1.285-1.2-1.285h-1.346v-.808a7.039,7.039,0,0,0,.9-.06,13.419,13.419,0,0,0,1.526-.33,15.541,15.541,0,0,0,2.452-.806m0-4a4,4,0,0,0-1.528.3,11.559,11.559,0,0,1-1.821.605l-.11.027c-.729.19-1.015.231-1.017.232a3.206,3.206,0,0,1-.4.029,4,4,0,0,0-1.253.2,3.972,3.972,0,0,0-.951-.711l-.39-.209a4,4,0,0,0-3.5-.141,9.756,9.756,0,0,1-3.28.873,4,4,0,0,0-3.693,3.988v.808a4,4,0,0,0,2.213,3.579v4.973c0,4.866,3.069,7.889,8.008,7.889a9.6,9.6,0,0,0,3.855-.688,4,4,0,0,0,1.588.329l.131,0,.9-.03,1.511-.027,1.414.027.771.029q.075,0,.15,0a4,4,0,0,0,4-4v-.808a4,4,0,0,0-2.363-3.65V912.49l.054-1.352.086-1.193a4,4,0,0,0-2.556-4.02l-.39-.149a3.977,3.977,0,0,0-1.433-.266Z" fill="#fff"/><path d="M352.974,925.955a15.683,15.683,0,0,1-2.5-.205l-1.92-.37a2,2,0,0,1-1.56-2.449,8.376,8.376,0,0,0,.179-1.519l.092-2.236a2,2,0,0,1,1.133-1.721,5.313,5.313,0,0,1-1.315-3.789,6.032,6.032,0,0,1,1.733-4.2,6.909,6.909,0,0,1,5.292-1.953,9.943,9.943,0,0,1,2.219.2,14.363,14.363,0,0,1,2.033.535,2,2,0,0,1,1.363,2.026l-.09,1.405-.026,1.965a1.985,1.985,0,0,1-.588,1.386,4.7,4.7,0,0,1,1.785,3.968,6.351,6.351,0,0,1-3,5.654A7.99,7.99,0,0,1,352.974,925.955Zm-.46-5.118a3.335,3.335,0,0,0,1.058.19c.52,0,1.14-.13,1.14-.751,0-.06,0-.113,0-.157a9.05,9.05,0,0,0-.982-.347,13.5,13.5,0,0,0-1.542-.336l-.142-.032v.134a3.94,3.94,0,0,0,.079,1.017c.006.03.012.06.017.091C352.207,920.687,352.324,920.75,352.514,920.837Zm.426-8.1a11.365,11.365,0,0,0,1.981.609v-.205c-.006-.032-.047-.24-.064-.31a3.138,3.138,0,0,0-1.405-.368c-.052,0-.512.008-.512.272Z" fill="#fff"/><path d="M354.11,909.51a8.064,8.064,0,0,1,1.795.149,12.709,12.709,0,0,1,1.824.479l-.09,1.4-.03,2.063h-.688v-.687a2.847,2.847,0,0,0-.568-1.466,4.708,4.708,0,0,0-2.9-.986,2.334,2.334,0,0,0-2.512,2.272,1.785,1.785,0,0,0,1.106,1.795,13.764,13.764,0,0,0,2.752.837,7.772,7.772,0,0,1,2.811,1.107,2.728,2.728,0,0,1,1.2,2.512,4.374,4.374,0,0,1-2.183,4.037,6.1,6.1,0,0,1-3.649.928,13.664,13.664,0,0,1-2.183-.18l-1.855-.359a10.181,10.181,0,0,0,.239-2l.09-2.153h.777a6.812,6.812,0,0,0,.121,1.705c.119.867.538,1.256,1.614,1.734a5.412,5.412,0,0,0,1.8.329c1.914,0,3.14-1.166,3.14-2.751,0-.957-.269-1.555-.837-1.825a10.637,10.637,0,0,0-1.585-.6,14.386,14.386,0,0,0-1.765-.389,6.742,6.742,0,0,1-2.243-1.017,3.089,3.089,0,0,1-1.2-2.782,4.044,4.044,0,0,1,1.2-2.841,5.025,5.025,0,0,1,3.828-1.315m-4.068,9.749h.005m4.063-13.749a8.811,8.811,0,0,0-6.755,2.589,8.214,8.214,0,0,0-1.52,9.1,3.979,3.979,0,0,0-.566,1.893l-.09,2.153c0,.056,0,.112,0,.167a6.791,6.791,0,0,1-.121,1.038,4,4,0,0,0,3.121,4.893l1.855.359c.043.009.087.017.131.024a17.744,17.744,0,0,0,2.813.229,9.891,9.891,0,0,0,5.994-1.687,8.344,8.344,0,0,0,3.838-7.278,6.978,6.978,0,0,0-1.342-4.312,3.985,3.985,0,0,0,.145-1.014l.028-1.965.084-1.306a4,4,0,0,0-2.726-4.05,16.406,16.406,0,0,0-2.222-.589l-.053-.011a11.794,11.794,0,0,0-2.61-.233Z" fill="#fff"/><path d="M364.468,925.565l-2.294-.029-1.918.029-1.2.031a2,2,0,0,1-2-2v-.808a2,2,0,0,1,2-2q.15,0,.273,0v-7.242h-.3a2,2,0,0,1-2-2v-.837a2,2,0,0,1,1.616-1.963c.258-.051.516-.094.779-.138a12.874,12.874,0,0,0,1.886-.417,3.656,3.656,0,1,1,4.773-3.434,3.456,3.456,0,0,1-1.594,2.974l.188.075a2,2,0,0,1,1.257,1.856s0,11.062,0,11.125c.1,0,.208,0,.331,0a2,2,0,0,1,2,2v.808a2,2,0,0,1-2,2Z" fill="#fff"/><path d="M362.439,903.05a1.691,1.691,0,0,1,1.645,1.7,1.63,1.63,0,0,1-1.645,1.615,1.679,1.679,0,0,1-1.675-1.615,1.642,1.642,0,0,1,1.675-1.7m1.047,6.429.449.18v10.916c0,1.076.059,1.526.418,1.914.209.209.837.3,1.914.3v.808l-1.765-.031-2.3-.029-1.974.029-1.166.031v-.808a3.471,3.471,0,0,0,1.854-.3,1.9,1.9,0,0,0,.419-1.466v-7.985a1.425,1.425,0,0,0-.359-1.166,1.986,1.986,0,0,0-1.346-.329h-.6v-.837a15.321,15.321,0,0,0,4.456-1.227m-1.047-10.429a5.629,5.629,0,0,0-5.675,5.7,5.535,5.535,0,0,0,.522,2.352,4,4,0,0,0-2.256,3.6v.837a4,4,0,0,0,2.3,3.623v4.013a4,4,0,0,0-2.273,3.609v.808a4,4,0,0,0,4,4l.1,0,1.167-.03,1.874-.028,2.248.029,1.746.03h.069a4,4,0,0,0,4-4v-.808a4,4,0,0,0-2.332-3.637v-9.492a3.99,3.99,0,0,0-.592-2.093,5.564,5.564,0,0,0,.741-2.812,5.681,5.681,0,0,0-5.645-5.7Z" fill="#fff"/><path d="M374.161,933.79a2,2,0,0,1-2-2v-.867a2,2,0,0,1,1.875-2l.779-.049.008-.113v-3.671l-.327.2a2,2,0,0,1-.77.279l-.628.09-1.03.125a1.933,1.933,0,0,1-.24.015,6.666,6.666,0,0,1-4.913-1.842,9.531,9.531,0,0,1-2.166-3.232c-.012-.033-.024-.066-.034-.1a11.874,11.874,0,0,1-.509-3.526,9.272,9.272,0,0,1,2.319-6.289,11.016,11.016,0,0,1,5.467-3.019,9.35,9.35,0,0,1,2.139-.228,8.845,8.845,0,0,1,3.269.585l.424.141.4-.289a2,2,0,0,1,2.064-.165l.538.269a2,2,0,0,1,1.025,2.349,14.123,14.123,0,0,0-.429,2.527c0,.588-.033,1.253-.094,2.084-.015.423-.033.8-.045,1.038l-.011.223v12.424l.008.112.714.064a2,2,0,0,1,1.82,1.992v.867a2,2,0,0,1-2,2c-.039,0-1.643-.094-1.643-.094l-2.24-.025-2.462.028-1.165.086C374.258,933.788,374.209,933.79,374.161,933.79Zm-1.107-21.055a1.63,1.63,0,0,0-.733.169,1.963,1.963,0,0,1-.219.088c-.394.131-1.414.981-1.414,3.307a4.99,4.99,0,0,0,.83,2.9,1.717,1.717,0,0,0,1.536.874,2.465,2.465,0,0,0,1.828-.694v-6.164A4.365,4.365,0,0,0,373.054,912.735Z" fill="#fff"/><path d="M374.131,909.569a6.794,6.794,0,0,1,2.542.449l1.346.449a1.472,1.472,0,0,0,.628-.3l.748-.538.538.269a16.5,16.5,0,0,0-.509,2.991c0,.568-.029,1.226-.089,2.034-.03.807-.06,1.286-.06,1.376v12.53l.06.808a1.622,1.622,0,0,0,.3.9,1.834,1.834,0,0,0,.867.27l1.316.119v.867l-1.525-.09-2.333-.029-2.572.029-1.226.09v-.867l1.435-.09a1.735,1.735,0,0,0,.9-.269,2.126,2.126,0,0,0,.269-.807l.06-.928V921.5l-3.38,2.094-.628.09-.987.119a4.728,4.728,0,0,1-3.5-1.256,7.47,7.47,0,0,1-1.7-2.512,9.878,9.878,0,0,1-.419-2.932,7.269,7.269,0,0,1,1.734-4.875,8.982,8.982,0,0,1,4.486-2.481,7.441,7.441,0,0,1,1.7-.18m-1.077,12.5a4.626,4.626,0,0,0,3.828-1.914v-7.985a6.165,6.165,0,0,0-3.828-1.436,3.61,3.61,0,0,0-1.585.36c-1.166.388-2.781,1.943-2.781,5.2a7.017,7.017,0,0,0,1.166,4.007,3.748,3.748,0,0,0,3.2,1.764m1.077-16.5a11.483,11.483,0,0,0-2.6.281,12.981,12.981,0,0,0-6.421,3.551,11.2,11.2,0,0,0-2.906,7.7,13.854,13.854,0,0,0,.6,4.119c.021.068.044.136.069.2a11.25,11.25,0,0,0,2.578,3.9l.048.049a8.591,8.591,0,0,0,6.156,2.427,4,4,0,0,0-1.5,3.12v.867a4,4,0,0,0,4,4c.1,0,.195,0,.293-.011l1.1-.08,2.4-.028,2.193.028,1.433.084c.078,0,.157.007.235.007a4,4,0,0,0,4-4v-.867a4,4,0,0,0-2.542-3.726v-10.83l.008-.16c.011-.234.029-.592.047-1.064.057-.8.088-1.459.093-2.051a12.006,12.006,0,0,1,.35-2.073,4,4,0,0,0-2.05-4.7l-.538-.269a4,4,0,0,0-3.642.031,10.977,10.977,0,0,0-3.412-.514Zm-1.249,11.936a3.4,3.4,0,0,1-.194-1.206,3.557,3.557,0,0,1,.194-1.275v2.481Z" fill="#fff"/><path d="M387.245,925.955c-3.874,0-6.008-2.091-6.008-5.889v-6.529c-.146-.008-.3-.019-.449-.037a2,2,0,0,1-1.764-1.986v-.808a2,2,0,0,1,1.846-1.994,11.688,11.688,0,0,0,3.928-1.034,2,2,0,0,1,1.748.07l.389.209a2,2,0,0,1,1.051,1.861l-.177,3.482v5.959a3.725,3.725,0,0,0,.055.714,2.1,2.1,0,0,0,.3.176l0,0c.026,0,.144.013.394.013a2.1,2.1,0,0,0,2.067-1.195v-5.451h-.542a2,2,0,0,1-2-2v-.808a2,2,0,0,1,2-2,4.793,4.793,0,0,0,.646-.045,11.222,11.222,0,0,0,1.273-.28,13.759,13.759,0,0,0,2.192-.72,2.015,2.015,0,0,1,.763-.151,1.989,1.989,0,0,1,.717.133l.389.149a2,2,0,0,1,1.279,2.01l-.09,1.256-.057,1.432,0,8.292c.105,0,.226.006.362.006a2,2,0,0,1,2,2v.808a2,2,0,0,1-2,2l-.882-.032-1.489-.028-1.54.029-.963.031a2,2,0,0,1-1.391-.563c-.026-.025-.051-.051-.075-.077-.146.09-.285.167-.419.233A6.982,6.982,0,0,1,387.245,925.955Z" fill="#fff"/><path d="M394.96,909.51l.39.149-.09,1.256-.06,1.5v8.734a1.791,1.791,0,0,0,.359,1.286,3.327,3.327,0,0,0,2,.358v.808l-.807-.031-1.525-.029-1.615.029-.927.031V921.2a15.146,15.146,0,0,1-2.812,2.213,5.072,5.072,0,0,1-2.631.539c-2.632,0-4.008-1.107-4.008-3.889v-7.087c0-1.794-.957-1.316-2.213-1.465v-.808a13.787,13.787,0,0,0,4.576-1.2l.389.209-.09,1.795-.09,1.734v6.011a2.714,2.714,0,0,0,.628,2.153,4.385,4.385,0,0,0,1.077.629,3.375,3.375,0,0,0,1.047.119,4.166,4.166,0,0,0,4.067-2.722V912.8c0-.867-.329-1.285-1.2-1.285h-1.346v-.808a7.039,7.039,0,0,0,.9-.06,13.374,13.374,0,0,0,1.525-.33,15.508,15.508,0,0,0,2.452-.806m0-4a4,4,0,0,0-1.527.3,11.593,11.593,0,0,1-1.821.605l-.11.027c-.729.19-1.015.231-1.018.232a3.175,3.175,0,0,1-.4.029,3.991,3.991,0,0,0-1.253.2,3.978,3.978,0,0,0-.952-.711l-.389-.209a4,4,0,0,0-3.5-.141,9.761,9.761,0,0,1-3.28.873,4,4,0,0,0-3.693,3.988v.808a4,4,0,0,0,2.213,3.579v4.973c0,4.866,3.068,7.889,8.008,7.889a9.6,9.6,0,0,0,3.855-.688,4,4,0,0,0,1.588.329l.131,0,.9-.03,1.511-.027,1.414.027.771.029q.075,0,.15,0a4,4,0,0,0,4-4v-.808a4,4,0,0,0-2.362-3.65V912.49l.054-1.352.085-1.193a4,4,0,0,0-2.556-4.02l-.389-.149a3.986,3.986,0,0,0-1.434-.266Z" fill="#fff"/><path d="M404.356,926.015a8.12,8.12,0,0,1-5.732-1.856,9.11,9.11,0,0,1-2.319-3.44,12.67,12.67,0,0,1-.528-3.7c0-2.886.728-5.09,2.163-6.551a9.828,9.828,0,0,1,2.808-2.045,8.274,8.274,0,0,1,3.817-.971c2.339,0,4.032.6,5.177,1.838a9.05,9.05,0,0,1,1.9,2.8,7.454,7.454,0,0,1,.519,2.895,1.971,1.971,0,0,1-.038.391,3.276,3.276,0,0,1-1.606,1.975c-.039.027-.079.052-.12.076a10.053,10.053,0,0,1-1.618.784,5.29,5.29,0,0,1-1.788.3h-4.276a2.664,2.664,0,0,0,.644,1.08,3.237,3.237,0,0,0,2.286.871,4.2,4.2,0,0,0,2.14-.482,2.834,2.834,0,0,0,.5-.336,2,2,0,0,1,2.449-.037l.24.179a2,2,0,0,1,.522,2.615l-.208.353-.147.4a1.994,1.994,0,0,1-.752.963,11.094,11.094,0,0,1-2.767,1.441c-.056.018-.112.035-.168.048l-.1.024A11.991,11.991,0,0,1,404.356,926.015Zm.488-12.584.608-.01a1.057,1.057,0,0,0-.109-.368,1.749,1.749,0,0,0-.568-.48,1.919,1.919,0,0,0-.628-.106c-.879,0-1.1.323-1.215.5a2.517,2.517,0,0,0-.205.426Z" fill="#fff"/><path d="M404.565,909.449a4.847,4.847,0,0,1,3.709,1.2,7.22,7.22,0,0,1,1.5,2.153,5.581,5.581,0,0,1,.388,2.183c-.03.15-.3.389-.778.718a8.131,8.131,0,0,1-1.285.628,3.3,3.3,0,0,1-1.107.18h-6.55a6.018,6.018,0,0,0,1.525,4.515,5.28,5.28,0,0,0,3.679,1.436,6.162,6.162,0,0,0,3.081-.718,4.685,4.685,0,0,0,.807-.538l.24.18-.3.508-.209.568a9.176,9.176,0,0,1-2.273,1.2,10.227,10.227,0,0,1-2.632.36,6.247,6.247,0,0,1-4.366-1.317,7.122,7.122,0,0,1-1.8-2.632,10.593,10.593,0,0,1-.418-3.05c0-2.363.538-4.1,1.615-5.174a7.835,7.835,0,0,1,2.273-1.645,6.239,6.239,0,0,1,2.9-.748m.24,5.982,1.824-.03.868-.03v-1.315a3.321,3.321,0,0,0-.718-2.393,3.391,3.391,0,0,0-1.286-.957,4,4,0,0,0-1.346-.239,3.22,3.22,0,0,0-2.871,1.375,6.489,6.489,0,0,0-.838,3.47l1.346.059,3.021.06m-.24-9.982a10.268,10.268,0,0,0-4.733,1.193,11.827,11.827,0,0,0-3.344,2.447c-1.8,1.847-2.711,4.513-2.711,7.927a14.6,14.6,0,0,0,.587,4.2c.016.052.032.1.05.155a10.959,10.959,0,0,0,2.747,4.156l.1.093a10.029,10.029,0,0,0,7.1,2.395,13.937,13.937,0,0,0,3.459-.445l.1-.023q.169-.041.336-.1a13.176,13.176,0,0,0,3.261-1.685,4,4,0,0,0,1.5-1.927l.084-.229.115-.2a4,4,0,0,0-.776-5.01,4.65,4.65,0,0,0,1.642-2.64,4.018,4.018,0,0,0,.077-.782,9.554,9.554,0,0,0-.681-3.685,11.031,11.031,0,0,0-2.269-3.37,8.642,8.642,0,0,0-6.643-2.478Z" fill="#fff"/><path d="M422.455,925.536l-2.349.029-1.489.031a2,2,0,0,1-2-2v-.957a2,2,0,0,1,2-2h.947c.174-.027.359-.049.545-.072a14.431,14.431,0,0,0,.1-1.756V908.046c-.055.022-.11.047-.165.069a12.341,12.341,0,0,0-1.419.678,2,2,0,0,1-2.99-1.823l.059-1.428a2,2,0,0,1,1.407-1.831l.584-.179c.51-.154.952-.288,1.211-.4.311-.137.659-.265,1.048-.4.235-.085.487-.177.76-.284.468-.2.983-.4,1.5-.6.845-.331,1.642-.645,2.5-1.048a2,2,0,0,1,2.85,1.811v.628a2,2,0,0,1-.716,1.534l0,14.436.02,1.37q.49.043,1.336.071a2,2,0,0,1,1.934,2v.957a2,2,0,0,1-2,2Z" fill="#fff"/><path d="M425.555,902.6v.628a2.881,2.881,0,0,0-.508.539,1.187,1.187,0,0,0-.21.717V919.2l.03,2.064c.09,1.106.539,1.286,3.26,1.376v.957l-2.631-.031-3.021-.029-2.393.029-1.465.031v-.957h1.106a6.453,6.453,0,0,0,1.944-.389c.329-.27.539-1.765.539-3.439V907.146l-.03-1.016-.03-1.017-2.273.9a21.178,21.178,0,0,0-2.243,1.047l.03-.688.029-.748c.868-.268,1.526-.448,2-.657s1.047-.39,1.735-.658c1.346-.569,2.662-1.017,4.127-1.705m0-4a4,4,0,0,0-1.7.379c-.8.376-1.567.677-2.38,1-.518.2-1.031.4-1.547.622-.239.092-.461.172-.668.247-.381.139-.775.281-1.173.456-.145.063-.61.2-.984.317l-.595.182a4,4,0,0,0-2.814,3.662l-.03.748-.029.674a4,4,0,0,0,4.572,4.131v7.645a4,4,0,0,0-3.589,3.979v.957a4,4,0,0,0,4,4h.082l1.466-.03,2.315-.029,2.977.029,2.624.03h.046a4,4,0,0,0,4-4v-.957a4,4,0,0,0-3.29-3.937V905.515a4,4,0,0,0,.718-2.286V902.6a4,4,0,0,0-4-4Z" fill="#fff"/></g></g><g id="Front_Text" data-name="Front Text"><g id="Dolls_in_Pseudo_Paradise-2" data-name="Dolls in Pseudo Paradise"><path d="M651.033,419.744c.03-.948.03-2.764.06-5.382.024-1.5.036-2.253.061-3.756-.684.047-1.027.068-1.711.108l-.57.013-.18-.116a.6.6,0,0,1-.09-.285c-.023-.248.48-.418,1.44-.509l.271-.026c2.55-.228,4.682-.41,6.419-.492a37.617,37.617,0,0,1,4.86.006,11.148,11.148,0,0,1,7.587,3.339,12.2,12.2,0,0,1,2.846,8.492,9.068,9.068,0,0,1-3.061,7.378,10.708,10.708,0,0,1-6.029,2.656,13.853,13.853,0,0,1-2.789.046c-1.32-.1-1.98-.151-3.3-.258-.42-.041-1.091-.118-1.979-.171-.5-.029-1.333-.065-2.4-.165-.3-.028-1.528-.049-3.718-.055l-.539,0-.15-.106-.06-.218c0-.27.45-.427,1.319-.472l1.38-.1C650.834,425.724,650.9,423.865,651.033,419.744Zm2.459-.143c-.036,2.684-.054,3.838-.091,6.337a9.153,9.153,0,0,0,.149,1.9,1.758,1.758,0,0,0,.391.8,4.524,4.524,0,0,0,1.768.832,16.5,16.5,0,0,0,2.909.537c3.179.328,5.717-.167,7.588-1.413,1.946-1.3,2.94-2.819,2.941-6.223,0-6.58-3.535-11.049-9.564-11.67a15.336,15.336,0,0,0-3.3-.032,9.577,9.577,0,0,0-2.55.584C653.637,414.607,653.589,416.281,653.492,419.6Z" fill="#231f20"/><path d="M685.84,427.807a4.573,4.573,0,0,1-1.89,3.816,7.012,7.012,0,0,1-4.77,1.3c-3.479-.173-5.668-2.219-5.667-5.452a6.114,6.114,0,0,1,1.681-4.263,5.335,5.335,0,0,1,4.738-1.856A6.279,6.279,0,0,1,685.84,427.807Zm-10.168-1.153a5.212,5.212,0,0,0,1.319,3.575,4.378,4.378,0,0,0,3.149,1.533,3.309,3.309,0,0,0,2.61-.867,2.981,2.981,0,0,0,.9-2.219c0-3.048-1.829-5.517-4.559-5.744C676.814,422.742,675.673,424.14,675.672,426.654Z" fill="#231f20"/><path d="M688.2,418.026c0-1.338-.06-2.879-.18-4.681l-.03-.405c-.03-.3.18-.472.6-.567l.629-.124c.21-.029.78-.23,1.769-.535.36-.123.54-.185.9-.31a.581.581,0,0,1,.24.158l.09.417-.06.073a6.451,6.451,0,0,0-.989.974c-.454.542-.711,3.177-.69,6.338.008,1.342.035,2.7.03,4.01-.016,3.95-.06,4.739-.06,4.665v1.394a8.264,8.264,0,0,0,.149,2.092.667.667,0,0,0,.63.414,4.133,4.133,0,0,0,.84-.088l.48-.1c.24.1.33.194.33.377,0,.114-.3.264-.9.405l-1.05.241a10.54,10.54,0,0,0-1.74.646c-.21.106-.449.188-.69.293a.936.936,0,0,1-.27.1.513.513,0,0,1-.51-.4l.031-.112a17.154,17.154,0,0,0,.479-4.507C688.213,425.277,688.207,423.085,688.2,418.026Z" fill="#231f20"/><path d="M694.973,418.315c0-1.348-.059-2.9-.18-4.726l-.03-.411c-.03-.3.18-.481.6-.583l.631-.134c.21-.033.779-.244,1.769-.566l.9-.326a.567.567,0,0,1,.239.157l.09.422-.059.075a6.451,6.451,0,0,0-.99,1c-.454.555-.709,3.225-.689,6.4.009,1.346.035,2.708.03,4.01-.014,3.94-.059,4.723-.059,4.649v1.38a7.95,7.95,0,0,0,.15,2.058.658.658,0,0,0,.63.4,4.371,4.371,0,0,0,.84-.1l.48-.105c.24.1.33.187.33.366,0,.112-.3.263-.9.409l-1.049.248a10.747,10.747,0,0,0-1.741.65c-.21.105-.45.188-.69.292a.982.982,0,0,1-.27.1.5.5,0,0,1-.509-.382l.029-.109a16.448,16.448,0,0,0,.48-4.424C694.992,425.591,694.986,423.406,694.973,418.315Z" fill="#231f20"/><path d="M702.66,433.48a13.081,13.081,0,0,1-1.56-.253c-.344-.085-.45-.171-.45-1v-1.044a.544.544,0,0,1,.811-.379c.047.075.071.112.119.187v.161c0,1.1.96,1.677,2.761,1.688a8.3,8.3,0,0,0,3.03-.537c1.16-.444,1.74-1.022,1.74-1.79,0-.651-.511-.964-1.8-.969-.6,0-.9,0-1.5-.008-2.67-.018-3.96-.784-3.961-2.526a4.313,4.313,0,0,1,1.41-3.093,4.974,4.974,0,0,1,3.689-1.442,9.108,9.108,0,0,1,1.68.206c.886.177,1.351.366,1.351.664a2.748,2.748,0,0,1-.181,1.022c-.148.36-.269.523-.42.557l-.509-.161a7.085,7.085,0,0,0-2.791-.657c-1.529-.007-2.58.872-2.579,1.9,0,.775.631,1.258,1.86,1.442a10.373,10.373,0,0,0,1.68.11,6.69,6.69,0,0,1,3.541.769,2.06,2.06,0,0,1,.93,1.848c0,1.22-.755,2.118-2.219,2.714a11.623,11.623,0,0,1-4.38.706A19.249,19.249,0,0,1,702.66,433.48Z" fill="#231f20"/><path d="M720.784,432.718c-.036.112-.054.169-.09.28-.03.065-.15.11-.33.156-.684.175-1.026.261-1.71.432-.121-.061-.181-.123-.181-.186-.024-.369-.036-.558-.06-.941,0-2.1,0-3.248,0-5.746a4.411,4.411,0,0,0-.241-1.85.924.924,0,0,0-.84-.381l-.42.106-.33.1a.538.538,0,0,1-.27-.219.738.738,0,0,1-.09-.352c0-.162.3-.33.869-.5l.99-.315c.961-.4,1.441-.6,2.4-1.009.33.122.48.283.48.478l-.03.391c0,.454-.029,1.331-.059,2.351-.024.666-.035.992-.059,1.63C720.8,429.569,720.8,430.684,720.784,432.718Zm.173-17.56a1.847,1.847,0,0,1-1.62,1.96,1.454,1.454,0,0,1-1.14-.526,2.166,2.166,0,0,1-.451-1.388,1.918,1.918,0,0,1,1.59-2.052A1.835,1.835,0,0,1,720.957,415.158Z" fill="#231f20"/><path d="M725.232,427.746c0-2.364-.632-3.5-1.862-3.454l-.33.076-.27.041a.522.522,0,0,1-.24-.117c-.024-.138-.036-.207-.061-.346.031-.033.09-.067.121-.1a2.264,2.264,0,0,1,.42-.269l.66-.279c.21-.1.479-.243.78-.414.15-.1.449-.274.869-.581l.241-.171c.21-.008.483.212.87.644a4.191,4.191,0,0,1,.841,1.506,12.815,12.815,0,0,1,2.942-1.578,8.305,8.305,0,0,1,2.43-.658,2.464,2.464,0,0,1,2.372,1.144,6.685,6.685,0,0,1,.75,3.9c-.059,1.717-.089,2.519-.148,4.011a.332.332,0,0,0,.149.357.815.815,0,0,0,.451.092l.51-.135.51-.114a.445.445,0,0,1,.18.082c.036.107.054.16.09.265,0,.156-.269.3-.84.437-.27.055-.69.161-1.2.313-.576.206-.864.307-1.44.508-.324.123-.486.184-.81.305l-.27-.052-.09-.165.06-.15a11.891,11.891,0,0,0,.629-4.132c0-3.113-1.082-4.975-3.213-4.863a4.713,4.713,0,0,0-2.881,1.434c0,.316,0,.473,0,.783.012.385.018.574.03.949-.011,1.448-.017,2.135-.029,3.435-.036,1-.053,1.48-.089,2.394-.684.192-1.026.287-1.71.473l-.18.026a.457.457,0,0,1-.18-.079c-.024-.117-.036-.175-.061-.294C725.233,431.069,725.232,430.024,725.232,427.746Z" fill="#231f20"/><path d="M750.257,431.453c-.212.036-.423.072-.575.081,0,0-.181.033-.515.122-1.242.28-2.665.7-4.331,1.195-.182.053-.273.079-.455.13l-.212-.054-.06-.147c.03-.044.109-.095.151-.159a2.159,2.159,0,0,1,.212-.229,1.39,1.39,0,0,0,.425-.557,13.5,13.5,0,0,0,.241-3.231c0-1.484,0-3,.03-4.508.023-2.979.035-4.621.059-8.227v-1.048a5.067,5.067,0,0,0-.121-.882c-.092-.454-.182-.75-.394-.737a3.743,3.743,0,0,0-1.544.6,4.5,4.5,0,0,1-1.119.536l-.182-.1-.06-.323c0-.329.362-.644,1.059-1.015l.272-.163a18.725,18.725,0,0,1,4.116-1.948,13.728,13.728,0,0,1,3.724-.772,7.945,7.945,0,0,1,5.361,1.39,6.207,6.207,0,0,1,2.334,5.221,7.437,7.437,0,0,1-2.724,6.087,11,11,0,0,1-6.268,2.313c-.7.057-1.03-.082-1.03-.445a.627.627,0,0,1,.09-.4l.394-.089.727-.059c3.634-.3,5.845-2.49,5.843-6.442a7.216,7.216,0,0,0-1.213-4.356,4.143,4.143,0,0,0-3.786-1.715c-1.453.09-2.634.79-2.845,1.561-.037.653-.055.974-.091,1.606-.03.7-.06,1.993-.09,3.746-.035,4.83-.053,6.914-.088,10.618a4.223,4.223,0,0,0,.212,1.777c.128.2.484.3,1,.267a5.983,5.983,0,0,0,1.15-.213,6.906,6.906,0,0,1,1.091-.237l.121.064c.024.094.036.141.061.235C751.227,431.16,750.894,431.321,750.257,431.453Z" fill="#231f20"/><path d="M759.625,431.621a12.207,12.207,0,0,1-1.56-.178c-.342-.071-.45-.159-.45-1.078v-1.157c.059-.335.239-.529.509-.549a.419.419,0,0,1,.3.054l.12.2v.18c0,1.228.961,1.8,2.76,1.686a7.562,7.562,0,0,0,3.03-.835c1.158-.6,1.738-1.327,1.738-2.215,0-.752-.511-1.066-1.8-.958l-1.5.125c-2.67.222-3.96-.5-3.961-2.42a4.688,4.688,0,0,1,1.409-3.352,5.817,5.817,0,0,1,3.688-1.676,9.668,9.668,0,0,1,1.68.022c.887.075,1.349.2,1.349.474a2.4,2.4,0,0,1-.179.946c-.148.342-.27.5-.419.545l-.51-.1a7.225,7.225,0,0,0-2.79-.328c-1.53.145-2.579,1.053-2.578,2.192,0,.854.63,1.323,1.859,1.407a9.454,9.454,0,0,0,1.681-.04,5.682,5.682,0,0,1,3.54.544,2.257,2.257,0,0,1,.93,2.044,3.748,3.748,0,0,1-2.217,3.363,10.28,10.28,0,0,1-4.379,1.1A17.294,17.294,0,0,1,759.625,431.621Z" fill="#231f20"/><path d="M776.153,428.906a6.041,6.041,0,0,0,2.19-.553,4.578,4.578,0,0,0,1.769-1.452l.36-.491a1.062,1.062,0,0,1,.51-.476.526.526,0,0,1,.27.092l.119.251a3.516,3.516,0,0,1-.6,1.264,17.981,17.981,0,0,1-1.558,2.06,2.831,2.831,0,0,1-1.29.931,10.252,10.252,0,0,1-2.221.3c-3.75.216-6.03-1.542-6.032-5.017a8.165,8.165,0,0,1,1.587-4.8,6.2,6.2,0,0,1,4.438-2.756,3.7,3.7,0,0,1,2.642.605,2.752,2.752,0,0,1,1.081,2.358c0,1.176-2.43,2.687-7.258,4.405A3.491,3.491,0,0,0,776.153,428.906Zm-.693-5.7a2.712,2.712,0,0,0,1.258-2.191,1.408,1.408,0,0,0-.481-1.106c-.149-.1-.269-.182-.359-.232a1.663,1.663,0,0,0-.84-.094,2.984,2.984,0,0,0-2.249,1.622,5.1,5.1,0,0,0-.749,2.671v.341l.03.366A8.271,8.271,0,0,0,775.46,423.207Z" fill="#231f20"/><path d="M788.8,429.161a12.328,12.328,0,0,1-2.189,1.1,3.36,3.36,0,0,1-3.091-1.173,6.51,6.51,0,0,1-.963-4.077c.047-1.945.071-2.92.118-4.9-.048-.494-.073-.743-.121-1.242a.479.479,0,0,0,.12-.1,2.831,2.831,0,0,1,.39-.221l.69-.312c.816-.409,1.224-.613,2.039-1.023.33-.034.481.071.481.312a1.162,1.162,0,0,1-.33.545,2.307,2.307,0,0,0-.45.617,4.7,4.7,0,0,0-.509,1.635,23.244,23.244,0,0,0-.148,3.009c0,3.664.843,4.9,3,4.746a9.135,9.135,0,0,0,3.629-1.361c0-2.618,0-3.9,0-6.482,0-1.145-.24-1.811-.69-2a.132.132,0,0,1-.121-.108.583.583,0,0,1,.361-.577l.179-.079c.06-.036.51-.262,1.38-.742l.84-.446c.24-.025.691.32.691.56l-.03.123a9.979,9.979,0,0,0-.27,1.889c-.035,1.092-.053,1.638-.088,2.734-.011,1.483-.017,2.226-.028,3.728.037,1.228.055,1.845.092,3.095l.029.28c0,.22-.335.523-1.019.972a5.332,5.332,0,0,1-1.26.665l-.12-.118-.031-.434v-1.207c.011-.371.018-.556.029-.925C790.368,428.255,789.846,428.56,788.8,429.161Z" fill="#231f20"/><path d="M804.468,427.053c-1.29,1.376-2.37,2.072-3.24,2.121a4.569,4.569,0,0,1-3.9-1.254,6.092,6.092,0,0,1-1.172-4.111,8.794,8.794,0,0,1,1.857-5.776,7.043,7.043,0,0,1,4.951-2.561l2.4.036c.011-1.17.017-1.75.028-2.9,0-1.379-.061-2.884-.212-4.512-.011-.137-.017-.206-.029-.343q-.045-.3.72-.481l.3-.078a7.954,7.954,0,0,0,.87-.259c.209-.07.51-.177.9-.343.432-.152.648-.228,1.081-.377.27.067.39.115.39.337,0,.084-.2.231-.57.485a2.012,2.012,0,0,0-.78.9,17.62,17.62,0,0,0-.389,4.637c0,1.492-.029,3.19-.059,5.195-.035,2.8-.052,4.231-.087,7.221,0,1.448.151,2.189.481,2.167a4.343,4.343,0,0,0,.96-.231l.66-.246a.982.982,0,0,1,.27.119.423.423,0,0,1,.09.3c0,.239-.269.462-.84.7l-.809.356a15.176,15.176,0,0,0-1.891,1l-.869.525a.478.478,0,0,1-.391-.184.494.494,0,0,1-.21-.33l.03-.239c.09-.852.15-1.354.15-1.554v-.166c-.012-.345-.019-.517-.031-.859Zm-.154-9.278a11.158,11.158,0,0,0-1.86-.184,8.72,8.72,0,0,0-.9.029c-2.521.248-3.421,1.29-3.42,4.375a5.819,5.819,0,0,0,.9,3.449,3.329,3.329,0,0,0,3.092,1.278c1.41-.1,2.67-.814,2.939-1.711a11.64,11.64,0,0,0,.18-1.821c.047-2.1.071-3.127.119-5.148C805.1,417.976,804.761,417.878,804.314,417.775Z" fill="#231f20"/><path d="M823.247,420.306a9.07,9.07,0,0,1-1.889,5.643,6.267,6.267,0,0,1-4.77,2.6c-3.481.178-5.671-2.526-5.673-6.568a8.427,8.427,0,0,1,1.679-5.375,6.487,6.487,0,0,1,4.742-2.445C820.967,413.859,823.247,415.924,823.247,420.306Zm-10.171.241a7.356,7.356,0,0,0,1.321,4.419,3.548,3.548,0,0,0,3.151,1.706,3.239,3.239,0,0,0,2.61-1.638,5.96,5.96,0,0,0,.9-3.242c0-4.115-1.832-6.33-4.562-6.1C814.215,415.887,813.075,417.436,813.076,420.547Z" fill="#231f20"/><path d="M836.177,426.3a3.921,3.921,0,0,1-.57.1,4.87,4.87,0,0,0-.509.172,32.95,32.95,0,0,0-4.289,1.835l-.45.214-.21-.108-.06-.268c.031-.078.109-.166.15-.276a3.311,3.311,0,0,1,.211-.392,2.658,2.658,0,0,0,.42-.929,33.663,33.663,0,0,0,.239-4.867c0-2.034,0-3.855.03-5.51.024-3.258.036-4.753.06-7.509v-.783a2.642,2.642,0,0,0-.12-.635c-.086-.3-.181-.521-.391-.512a4.678,4.678,0,0,0-1.529.423,5.789,5.789,0,0,1-1.111.389l-.18-.069-.06-.229c0-.231.36-.454,1.05-.71l.27-.112a19.891,19.891,0,0,1,4.082-1.257,20.631,20.631,0,0,1,3.691-.443,10.954,10.954,0,0,1,5.311.951,4.034,4.034,0,0,1,2.309,3.884,7.021,7.021,0,0,1-2.7,5.446,10.018,10.018,0,0,1-6.21,2.358c-.689.038-1.019-.137-1.019-.551a.75.75,0,0,1,.09-.449l.389-.086.72-.043a5.769,5.769,0,0,0,5.792-5.982,4.468,4.468,0,0,0-1.2-3.372,4.946,4.946,0,0,0-3.75-1.217c-1.441.04-2.612.477-2.822,1-.036.445-.054.671-.09,1.132-.03.513-.06,1.464-.09,2.96-.036,4.124-.054,6.429-.09,11.659a9.582,9.582,0,0,0,.21,2.654.93.93,0,0,0,.989.478,3.928,3.928,0,0,0,1.139-.271,4.41,4.41,0,0,1,1.08-.3l.119.106.06.37C837.136,425.879,836.806,426.118,836.177,426.3Z" fill="#231f20"/><path d="M847.832,426.292a5.779,5.779,0,0,1-2.79.925,2.563,2.563,0,0,1-2.7-2.757,5.109,5.109,0,0,1,2.161-4.092,15.153,15.153,0,0,1,6.152-2.627v-.373c0-2.371-.837-3.388-2.518-3.312a7.861,7.861,0,0,0-1.711.309c-.384.111-.576.165-.96.287l-.09-.059c-.011-.077-.017-.106-.029-.175a1.844,1.844,0,0,1,1.41-1.8,9.249,9.249,0,0,1,2.522-.35,3.83,3.83,0,0,1,2.849.724c.6.575.869,1.7.807,3.555-.048,1.714-.073,2.594-.122,4.409a6.992,6.992,0,0,0,.358,2.61,2.628,2.628,0,0,0,1.138,1.438l.9.249a.469.469,0,0,1,.54.487c.013.292-.429.617-1.23.906a5.318,5.318,0,0,1-1.531.377c-1.41.027-2.249-.955-2.577-3.135A10.128,10.128,0,0,1,847.832,426.292Zm-.685-6.3a3.794,3.794,0,0,0-2.192,3.242,2.052,2.052,0,0,0,.509,1.421,1.6,1.6,0,0,0,1.289.523,3.482,3.482,0,0,0,2.972-1.938,7.736,7.736,0,0,0,.991-3.955v-.312c-.012-.138-.018-.207-.029-.345A12.127,12.127,0,0,0,847.147,420Z" fill="#231f20"/><path d="M862.805,412.853a4.086,4.086,0,0,1,2.221-.967l.12.079.03.266c0,.6,0,.9,0,1.519a.7.7,0,0,1-.691.744l-.84.045a2.913,2.913,0,0,0-2.042.71,2.3,2.3,0,0,0-.451,1,10.088,10.088,0,0,0-.181,1.941c-.074,1.82-.11,2.751-.184,4.674-.031.887-.062,1.863-.122,2.9-.03.115-.342.383-.961.818a3.768,3.768,0,0,1-1.081.634l-.089-.038-.03-.273.03-.388c0-.542.039-1.867.093-3.812.036-1.284.061-2.327.062-3.071,0-.723,0-1.081,0-1.789,0-.875,0-1.306,0-2.159-.089-1.048-.388-1.567-.9-1.552a2.13,2.13,0,0,0-.51.048c-.114.04-.271.14-.481.246l-.6.251-.21-.127-.06-.4c0-.2.271-.348.781-.53.276-.1.414-.146.691-.242.39-.149.659-.238.81-.3,0,0,.45-.205,1.321-.63.432-.2.648-.306,1.079-.506l.3.048.119.159-.029.378c-.013.3-.019.455-.031.763s0,.413,0,.788c.012.24.018.361.03.6A8.251,8.251,0,0,1,862.805,412.853Z" fill="#231f20"/><path d="M871.614,426.061a5.639,5.639,0,0,1-2.792.833,2.665,2.665,0,0,1-2.7-2.868,5.073,5.073,0,0,1,2.163-4.108,14.026,14.026,0,0,1,6.154-2.436V417.1c0-2.456-.837-3.548-2.518-3.558a8.046,8.046,0,0,0-1.711.212c-.384.086-.576.126-.96.235l-.09-.068c-.012-.081-.017-.1-.029-.167,0-.819.48-1.352,1.411-1.641a9.421,9.421,0,0,1,2.521-.221,4.065,4.065,0,0,1,2.85.836c.6.584.869,1.724.807,3.643-.049,1.772-.074,2.672-.123,4.514a7.218,7.218,0,0,0,.358,2.651,2.758,2.758,0,0,0,1.14,1.483l.9.283a.488.488,0,0,1,.54.5c.013.289-.428.593-1.23.85a5.291,5.291,0,0,1-1.531.318c-1.411-.022-2.25-1.017-2.579-3.225A9.574,9.574,0,0,1,871.614,426.061Zm-.685-6.416a3.71,3.71,0,0,0-2.193,3.23,2.164,2.164,0,0,0,.509,1.46,1.653,1.653,0,0,0,1.29.574,3.329,3.329,0,0,0,2.973-1.843,7.71,7.71,0,0,0,.992-3.987v-.321l-.029-.356A11.282,11.282,0,0,0,870.929,419.645Z" fill="#231f20"/><path d="M888.9,425.023c-1.291,1.381-2.372,2.072-3.243,2.044a4.588,4.588,0,0,1-3.9-1.85,8.72,8.72,0,0,1-1.168-4.957c0-2.771.648-5.139,1.866-6.312a6.34,6.34,0,0,1,4.95-1.627c.961.146,1.441.221,2.4.375.012-1.046.018-1.562.03-2.58a37.677,37.677,0,0,0-.208-3.977l-.029-.3q-.045-.261.72-.341l.3-.036a8.067,8.067,0,0,0,.87-.136c.209-.039.51-.1.9-.208l1.08-.223c.27.088.39.144.39.344,0,.075-.2.186-.57.372a1.6,1.6,0,0,0-.781.713,13.517,13.517,0,0,0-.391,4.083c0,1.335-.031,2.533-.062,4.759-.038,3.111-.057,4.7-.1,7.965,0,1.586.15,2.407.48,2.424a3.9,3.9,0,0,0,.96-.134l.661-.183a1.128,1.128,0,0,1,.269.16.522.522,0,0,1,.09.333c0,.255-.27.459-.84.651l-.81.291a11.935,11.935,0,0,0-1.892.883c-.348.195-.522.293-.87.491a.511.511,0,0,1-.39-.24.618.618,0,0,1-.21-.384l.03-.261c.091-.933.151-1.483.152-1.7v-.185c-.012-.384-.018-.575-.03-.956C889.292,424.6,889.159,424.739,888.9,425.023Zm-.145-10.41a9.245,9.245,0,0,0-1.859-.467c-.3-.043-.6-.085-.9-.1-2.52-.123-3.421.847-3.423,4.389a8.155,8.155,0,0,0,.9,4.1,3.583,3.583,0,0,0,3.09,1.842c1.41.055,2.671-.587,2.941-1.55a13.931,13.931,0,0,0,.182-2c.049-2.336.074-3.479.123-5.732C889.53,414.969,889.2,414.8,888.75,414.613Z" fill="#231f20"/><path d="M899.692,426.657c-.036.184-.054.276-.091.461-.029.107-.149.171-.33.233-.684.233-1.026.352-1.71.593a.491.491,0,0,1-.18-.338c-.024-.643-.035-.963-.059-1.6,0-3.48,0-5.163,0-8.473a7.25,7.25,0,0,0-.239-2.41.9.9,0,0,0-.84-.447l-.42.047-.33.054a.542.542,0,0,1-.36-.52c0-.136.3-.249.87-.337l.99-.16c.96-.231,1.44-.345,2.4-.569.33.139.48.29.48.453l-.03.325c0,.382-.031,1.037-.06,2.323-.025.838-.037,1.259-.062,2.106C899.711,421.629,899.705,423.271,899.692,426.657Zm.186-18.859a1.406,1.406,0,0,1-1.621,1.264,1.886,1.886,0,0,1-1.139-.478,1.331,1.331,0,0,1,1.14-2.3A1.645,1.645,0,0,1,899.878,407.8Z" fill="#231f20"/><path d="M903.817,428a9.744,9.744,0,0,1-1.56-.5c-.341-.154-.45-.32-.45-1.627v-1.619c.059-.45.24-.679.51-.656a.388.388,0,0,1,.3.129l.12.289v.244a2.625,2.625,0,0,0,2.76,2.8,5.674,5.674,0,0,0,3.03-.613,2.709,2.709,0,0,0,1.74-2.5c0-.937-.51-1.429-1.8-1.571-.6-.066-.9-.1-1.5-.161-2.668-.281-3.958-1.5-3.958-3.838a4.081,4.081,0,0,1,1.41-3.426,4.992,4.992,0,0,1,3.69-.768,10.827,10.827,0,0,1,1.679.39c.889.269,1.35.5,1.35.751a1.91,1.91,0,0,1-.18.849c-.148.289-.27.414-.42.42l-.51-.215a8.329,8.329,0,0,0-2.789-.941c-1.53-.2-2.58.437-2.58,1.776,0,1,.629,1.714,1.86,2.091a8.629,8.629,0,0,0,1.679.333,5.9,5.9,0,0,1,3.539,1.47,3.569,3.569,0,0,1,.929,2.647,4.037,4.037,0,0,1-2.219,3.781,7.9,7.9,0,0,1-4.38.79A12.841,12.841,0,0,1,903.817,428Z" fill="#231f20"/><path d="M920.344,427.427a5.289,5.289,0,0,0,2.188-.158,3.6,3.6,0,0,0,1.769-1.155l.36-.428a.76.76,0,0,1,.51-.369.686.686,0,0,1,.269.162l.12.289a2.92,2.92,0,0,1-.6,1.168,17.292,17.292,0,0,1-1.559,1.855,2.317,2.317,0,0,1-1.29.777,9.28,9.28,0,0,1-2.218-.046c-3.748-.381-6.027-3.018-6.027-7.087a7.827,7.827,0,0,1,1.59-5.007,4.277,4.277,0,0,1,4.437-1.46,4.783,4.783,0,0,1,2.638,1.342,3.689,3.689,0,0,1,1.08,2.693c0,1.211-2.428,2-7.256,2.8C916.626,425.407,918.155,427.16,920.344,427.427Zm-.69-6.455a2.137,2.137,0,0,0,1.26-1.978,1.875,1.875,0,0,0-.48-1.265c-.15-.145-.269-.255-.36-.33a2.225,2.225,0,0,0-3.088.669,4.884,4.884,0,0,0-.75,2.736v.384l.03.42A6.745,6.745,0,0,0,919.654,420.972Z" fill="#231f20"/></g><path d="M73.116,904.635v-.689c-.03-.239-.06-.388-.06-.478l-.03-.6,3.41.06,6.759.059c1.525,0,3.02-.029,4.7-.059l1.436-.06v1.017L75.03,922.22h7.537c.329,0,.777,0,1.465-.03s1.2-.03,1.586-.03a3.418,3.418,0,0,0,2-.448,2.709,2.709,0,0,0,.568-1.466l.24-1.884H89.3l-.089,2.154-.121,2.272v.419l.031.419-4.846-.03-7.775-.06c-1.406,0-2.782.029-4.217.06H71.142v-.838l14.236-18.393H78.559l-2.033.06a3.924,3.924,0,0,0-1.974.329,7.026,7.026,0,0,0-.6,3.081h-.868l.03-.658v-2.542Z" fill="#231f20"/><path d="M108.007,914.923V906.7l-.09-1.136a3.171,3.171,0,0,0-.3-1.256,1.931,1.931,0,0,0-.957-.389l-1.5-.12v-.927l1.436.06,1.943.059,2.124-.059,1.5-.06v.927a11.681,11.681,0,0,0-1.406.12,1.574,1.574,0,0,0-.9.358,4.058,4.058,0,0,0-.478,2.213c-.03.39-.03.748-.03,1.2v7.177c0,3.618-.478,5.622-1.794,6.908-1.347,1.436-3.709,2.244-6.729,2.244-3.081,0-4.4-.628-5.2-1.107a4.278,4.278,0,0,1-2.153-2.752,11.871,11.871,0,0,1-.389-3.589V905.293c0-.568-.06-1.257-.987-1.376a9.545,9.545,0,0,0-1.675-.12v-.927l4.008.119,4.127-.119v.927l-1.405.09a1.347,1.347,0,0,0-.987.3,1.992,1.992,0,0,0-.3,1.077l-.09,1.256v10.5c0,2.183.748,3.858,2.632,4.546a9.562,9.562,0,0,0,3.349.6q3.321,0,4.846-1.525C107.559,919.8,108.007,918.152,108.007,914.923Z" fill="#231f20"/><path d="M117.33,902.9l.837-.03,1.046,1.466,1.705,2.242c1.675,2.153,2.722,3.5,4.068,5.085l3.888,4.785,3.29,3.948v-13.07l-.06-1.466a3.324,3.324,0,0,0-.3-1.614c-.119-.239-.628-.359-2.3-.359V902.87l.778.03,2.692.03,2.572-.03.628-.03v1.017l-1.226.059a1.412,1.412,0,0,0-.9.3,4.6,4.6,0,0,0-.508,2.571l-.06,2.393v14.774l-.239.06-2.123-.448L116.97,906.13v12.681c.09,3.678.12,3.558,1.017,3.709l1.645.059V923.6l-1.345-.031-2.094-.029-2.124.029-1.136.031v-1.047c1.346,0,2-.15,2.213-.419a4.123,4.123,0,0,0,.419-2.033l.06-1.974.03-5.593.059-7.716c-.9-1.226-1.585-.778-2.572-.957v-.987l.778.03,1.585.03Z" fill="#231f20"/><path d="M159.7,908.193l-.15-2.422a9.826,9.826,0,0,0-6.25-2.154,6.889,6.889,0,0,0-5.563,2.483,9.741,9.741,0,0,0-2.033,6.371c-.15,7.566,5.173,10.377,9.39,10.377a10.528,10.528,0,0,0,5.862-1.645l.3.15-.838,1.555a16.031,16.031,0,0,1-6.37,1.107,15.822,15.822,0,0,1-6.7-1.286,7.776,7.776,0,0,1-2.452-2.3,10.836,10.836,0,0,1-2.184-7.118,10.4,10.4,0,0,1,3.111-7.926c2.064-1.974,4.875-2.96,8.464-2.96a16.975,16.975,0,0,1,6.908,1.195,20.183,20.183,0,0,0-.628,2.932l-.089,1.644Z" fill="#231f20"/><path d="M174.383,911.424a7.071,7.071,0,0,1,1.764,4.934,8.1,8.1,0,0,1-.568,3.23,7.885,7.885,0,0,1-2.213,2.871,7.062,7.062,0,0,1-4.845,1.5c-2.063,0-3.439-.509-5.2-2.6a6.926,6.926,0,0,1-1.286-4.546,7.36,7.36,0,0,1,2.483-5.772c.986-1.047,2.691-1.586,5.054-1.586A6.114,6.114,0,0,1,174.383,911.424Zm-9.63,4.306a10.362,10.362,0,0,0,1.166,5.234,3.725,3.725,0,0,0,3.38,2c2.512,0,4.127-1.556,4.127-5.533,0-4.426-1.7-6.968-4.366-6.968S164.753,912.351,164.753,915.73Z" fill="#231f20"/><path d="M176.144,903.05a9.6,9.6,0,0,0,2.153-.39,22.308,22.308,0,0,0,2.392-.687l.539.209-.12,3.14v15.194c0,1.2.06,1.614.449,2a3.479,3.479,0,0,0,1.794.268v.808l-1.077-.031-2.661-.029-2.512.029-.928.031v-.808A4.32,4.32,0,0,0,178,922.52a1.249,1.249,0,0,0,.448-1.108V905.621a2.169,2.169,0,0,0-.328-1.435,3.475,3.475,0,0,0-1.974-.329Z" fill="#231f20"/><path d="M183.8,903.05a9.586,9.586,0,0,0,2.153-.39,22.334,22.334,0,0,0,2.393-.687l.538.209-.12,3.14v15.194c0,1.2.06,1.614.449,2a3.479,3.479,0,0,0,1.794.268v.808l-1.076-.031-2.662-.029-2.512.029-.928.031v-.808a4.32,4.32,0,0,0,1.825-.268,1.249,1.249,0,0,0,.448-1.108V905.621a2.169,2.169,0,0,0-.328-1.435,3.475,3.475,0,0,0-1.974-.329Z" fill="#231f20"/><path d="M194.952,910.2a6.243,6.243,0,0,1,2.9-.748,4.846,4.846,0,0,1,3.708,1.2,7.22,7.22,0,0,1,1.5,2.153,5.581,5.581,0,0,1,.388,2.183c-.029.15-.3.389-.778.718a8.131,8.131,0,0,1-1.285.628,3.3,3.3,0,0,1-1.107.18h-6.549a6.018,6.018,0,0,0,1.524,4.515,5.28,5.28,0,0,0,3.679,1.436,6.162,6.162,0,0,0,3.081-.718,4.685,4.685,0,0,0,.807-.538l.24.18-.3.508-.209.568a9.159,9.159,0,0,1-2.273,1.2,10.227,10.227,0,0,1-2.632.36,6.247,6.247,0,0,1-4.366-1.317,7.122,7.122,0,0,1-1.795-2.632,10.593,10.593,0,0,1-.418-3.05c0-2.363.538-4.1,1.615-5.174A7.835,7.835,0,0,1,194.952,910.2Zm-.389,1.645a6.489,6.489,0,0,0-.837,3.47l1.345.059,3.021.06,1.825-.03.867-.03v-1.315a3.321,3.321,0,0,0-.718-2.393,3.391,3.391,0,0,0-1.286-.957,3.991,3.991,0,0,0-1.346-.239A3.22,3.22,0,0,0,194.563,911.842Z" fill="#231f20"/><path d="M214.618,913.367a2.937,2.937,0,0,0-.478-1.465,5.082,5.082,0,0,0-3.111-.987c-2.6.239-3.947,1.106-4.037,4.815,0,2.542.478,4.157,2.153,5.682a4.437,4.437,0,0,0,3.021,1.108,7.573,7.573,0,0,0,3.439-.928l.27.239-.688,1.2a8.392,8.392,0,0,1-4.158.928,6.091,6.091,0,0,1-4.964-1.914,7.546,7.546,0,0,1-1.586-4.905c0-1.794.449-3.918,1.526-4.994a9.391,9.391,0,0,1,2.811-1.975,6.922,6.922,0,0,1,3.439-.718,6.5,6.5,0,0,1,2.124.239,4.169,4.169,0,0,1,1.406.569l-.419,3.8h-.748Z" fill="#231f20"/><path d="M218.725,906.817l-.06-.687,2.422-1.2.359.239-.119,1.4c0,.151-.031.658-.06,1.586s-.06,1.734-.06,2.542c1.2,0,2.333-.09,2.781-.12l1.167-.119-.15,1.525h-3.828v7.088a4.834,4.834,0,0,0,.508,2.661c.21.389.718.6,1.5.6l.986-.09.838-.149.18.419-.9.657-1.016.6-.659.09-.837.09a3.155,3.155,0,0,1-2.512-.808,5.437,5.437,0,0,1-.628-3.081v-8.074h-2.093v-.449l1.166-.479,1.046-.538Z" fill="#231f20"/><path d="M225.6,910.706a15.321,15.321,0,0,0,4.456-1.227l.449.18v10.916c0,1.076.059,1.526.418,1.914.209.209.837.3,1.914.3v.808l-1.764-.031-2.3-.029-1.974.029-1.166.031v-.808a3.474,3.474,0,0,0,1.854-.3,1.9,1.9,0,0,0,.418-1.466v-7.985a1.425,1.425,0,0,0-.358-1.166,1.987,1.987,0,0,0-1.346-.329h-.6Zm5.054-5.952A1.63,1.63,0,0,1,229,906.369a1.679,1.679,0,0,1-1.675-1.615,1.642,1.642,0,0,1,1.675-1.7A1.691,1.691,0,0,1,230.649,904.754Z" fill="#231f20"/><path d="M245.122,911.424a7.067,7.067,0,0,1,1.765,4.934,8.083,8.083,0,0,1-.569,3.23,7.885,7.885,0,0,1-2.213,2.871,7.061,7.061,0,0,1-4.845,1.5c-2.063,0-3.439-.509-5.2-2.6a6.92,6.92,0,0,1-1.286-4.546,7.358,7.358,0,0,1,2.482-5.772c.987-1.047,2.691-1.586,5.054-1.586A6.113,6.113,0,0,1,245.122,911.424Zm-9.63,4.306a10.351,10.351,0,0,0,1.167,5.234,3.723,3.723,0,0,0,3.379,2c2.512,0,4.127-1.556,4.127-5.533,0-4.426-1.7-6.968-4.366-6.968S235.492,912.351,235.492,915.73Z" fill="#231f20"/><path d="M251.991,912.23a18.3,18.3,0,0,1,2.722-2.182,4.551,4.551,0,0,1,2.3-.479,4.863,4.863,0,0,1,3.289,1.107c.927.718,1.376,2,1.376,3.828v6.759a1.578,1.578,0,0,0,.389,1.167,3.142,3.142,0,0,0,1.824.358v.808h-1.166l-1.5-.06a9.324,9.324,0,0,0-1.614.06h-.659l.09-1.076.06-.869v-6.967a3.162,3.162,0,0,0-1.047-2.513,3.815,3.815,0,0,0-2.422-.808,3.42,3.42,0,0,0-1.765.479,2.714,2.714,0,0,0-1.794,2.572V921.5c0,.568.12.9.389,1.047a4.721,4.721,0,0,0,1.884.239v.808l-2.034-.06-2.183-.059-1.705.059-1.226.06v-.808h.359c.6-.149,1.944.509,1.944-1.4V912.59c0-.688-.269-1.047-.838-1.047h-1.5v-.808c.449-.089.748-.119.987-.149a8.639,8.639,0,0,0,1.346-.329,9.765,9.765,0,0,0,2.183-.688l.359.09-.03.9Z" fill="#231f20"/><path d="M278.9,902.87a13.252,13.252,0,0,0,2.543-.419,15.388,15.388,0,0,0,2.093-.6l.3.208v18.9c0,1.435.419,1.4,1.137,1.644a5.3,5.3,0,0,0,1.316.121v.867l-1.077-.06-1.107-.059-1.435.059-1.406.06v-2.632l-2.931,2.452-1.106.329a3.952,3.952,0,0,1-1.137.15c-3.02,0-5.8-2.573-5.8-6.52a7.744,7.744,0,0,1,1.436-4.815,9.224,9.224,0,0,1,2.572-1.944,6.483,6.483,0,0,1,3.26-1.106,7.333,7.333,0,0,1,3.708.9v-5.921c0-.628-.568-.748-2.363-.748Zm-4.844,9.272a5.917,5.917,0,0,0-1.316,4.157,5.713,5.713,0,0,0,1.375,4.1,4.153,4.153,0,0,0,3.051,1.5,3.734,3.734,0,0,0,4.1-3.829v-5.083a3.836,3.836,0,0,0-1.734-1.5,5.091,5.091,0,0,0-2.6-.748A3.894,3.894,0,0,0,274.057,912.142Z" fill="#231f20"/><path d="M290.391,910.2a6.246,6.246,0,0,1,2.9-.748,4.843,4.843,0,0,1,3.708,1.2,7.183,7.183,0,0,1,1.5,2.153,5.581,5.581,0,0,1,.389,2.183c-.03.15-.3.389-.778.718a8.093,8.093,0,0,1-1.286.628,3.291,3.291,0,0,1-1.107.18h-6.549a6.014,6.014,0,0,0,1.525,4.515,5.279,5.279,0,0,0,3.679,1.436,6.161,6.161,0,0,0,3.08-.718,4.689,4.689,0,0,0,.808-.538l.239.18-.3.508-.209.568a9.165,9.165,0,0,1-2.274,1.2,10.218,10.218,0,0,1-2.631.36,6.251,6.251,0,0,1-4.367-1.317,7.118,7.118,0,0,1-1.794-2.632,10.592,10.592,0,0,1-.419-3.05c0-2.363.539-4.1,1.615-5.174A7.849,7.849,0,0,1,290.391,910.2ZM290,911.842a6.489,6.489,0,0,0-.837,3.47l1.346.059,3.02.06,1.825-.03.867-.03v-1.315a3.316,3.316,0,0,0-.718-2.393,3.376,3.376,0,0,0-1.286-.957,3.99,3.99,0,0,0-1.345-.239A3.22,3.22,0,0,0,290,911.842Z" fill="#231f20"/><path d="M306.027,902.9l1.735.03,1.974-.03.927-.03c.389,1.047.837,2.033,1.585,3.708L314.4,911.1l2.244,4.485,1.824,3.739c.448-1.047.987-2.243,1.7-3.709l2.154-4.515,2.123-4.456,1.645-3.769.987.03,1.765.03,2.063-.03.778-.03v.927a8.134,8.134,0,0,0-1.5.09,2.244,2.244,0,0,0-.986.3,1.671,1.671,0,0,0-.24.807l-.06,1.077V919.2l.09,1.765a2.911,2.911,0,0,0,.3,1.256,2.283,2.283,0,0,0,.987.3l1.466.088v.988h-.9l-3.11-.06a31.368,31.368,0,0,0-3.26.06H323.7v-.988h.538c.239,0,.658-.059.807-.059.778,0,1.167-.329,1.167-1.017l.089-1.256V906.07l-1.914,4.008-2.3,4.845-2.273,4.875-1.764,4.037h-.568l-1.824-3.948-2.274-4.815-2.332-4.785L309.2,906.31v5.532l.03,6.52.029,2.093a2.852,2.852,0,0,0,.359,1.765,3.117,3.117,0,0,0,1.226.388l1.227.09v.9h-1.017l-2.183-.06a25.435,25.435,0,0,0-2.722.06H305.1v-.9a3.7,3.7,0,0,0,2.184-.538,2.41,2.41,0,0,0,.328-1.435l.12-1.585.12-4.726.089-8.972-.089-.628c-.03-.6-.718-.868-2.752-.957l.03-.987Z" fill="#231f20"/><path d="M345.63,909.659l-.09,1.256-.06,1.5v8.734a1.791,1.791,0,0,0,.359,1.286,3.331,3.331,0,0,0,2,.358v.808l-.807-.031-1.526-.029-1.615.029-.927.031V921.2a15.146,15.146,0,0,1-2.811,2.213,5.076,5.076,0,0,1-2.632.539c-2.632,0-4.008-1.107-4.008-3.889v-7.087c0-1.794-.957-1.316-2.213-1.465v-.808a13.781,13.781,0,0,0,4.576-1.2l.389.209-.09,1.795-.09,1.734v6.011a2.714,2.714,0,0,0,.628,2.153,4.385,4.385,0,0,0,1.077.629,3.375,3.375,0,0,0,1.047.119,4.165,4.165,0,0,0,4.067-2.722V912.8c0-.867-.329-1.285-1.2-1.285h-1.346v-.808a7.039,7.039,0,0,0,.9-.06,13.419,13.419,0,0,0,1.526-.33,15.541,15.541,0,0,0,2.452-.806Z" fill="#231f20"/><path d="M355.905,909.659a12.709,12.709,0,0,1,1.824.479l-.09,1.4-.03,2.063h-.688v-.687a2.847,2.847,0,0,0-.568-1.466,4.708,4.708,0,0,0-2.9-.986,2.334,2.334,0,0,0-2.512,2.272,1.785,1.785,0,0,0,1.106,1.795,13.764,13.764,0,0,0,2.752.837,7.772,7.772,0,0,1,2.811,1.107,2.728,2.728,0,0,1,1.2,2.512,4.374,4.374,0,0,1-2.183,4.037,6.1,6.1,0,0,1-3.649.928,13.664,13.664,0,0,1-2.183-.18l-1.855-.359a10.181,10.181,0,0,0,.239-2l.09-2.153h.777a6.812,6.812,0,0,0,.121,1.705c.119.867.538,1.256,1.614,1.734a5.412,5.412,0,0,0,1.8.329c1.914,0,3.14-1.166,3.14-2.751,0-.957-.269-1.555-.837-1.825a10.637,10.637,0,0,0-1.585-.6,14.386,14.386,0,0,0-1.765-.389,6.742,6.742,0,0,1-2.243-1.017,3.089,3.089,0,0,1-1.2-2.782,4.044,4.044,0,0,1,1.2-2.841,5.025,5.025,0,0,1,3.828-1.315A8.064,8.064,0,0,1,355.905,909.659Z" fill="#231f20"/><path d="M359.03,910.706a15.321,15.321,0,0,0,4.456-1.227l.449.18v10.916c0,1.076.059,1.526.418,1.914.209.209.837.3,1.914.3v.808l-1.765-.031-2.3-.029-1.974.029-1.166.031v-.808a3.471,3.471,0,0,0,1.854-.3,1.9,1.9,0,0,0,.419-1.466v-7.985a1.425,1.425,0,0,0-.359-1.166,1.986,1.986,0,0,0-1.346-.329h-.6Zm5.054-5.952a1.63,1.63,0,0,1-1.645,1.615,1.679,1.679,0,0,1-1.675-1.615,1.642,1.642,0,0,1,1.675-1.7A1.691,1.691,0,0,1,364.084,904.754Z" fill="#231f20"/><path d="M379.275,928.829l.06.808a1.622,1.622,0,0,0,.3.9,1.834,1.834,0,0,0,.867.27l1.316.119v.867l-1.525-.09-2.333-.029-2.572.029-1.226.09v-.867l1.435-.09a1.735,1.735,0,0,0,.9-.269,2.126,2.126,0,0,0,.269-.807l.06-.928V921.5l-3.38,2.094-.628.09-.987.119a4.728,4.728,0,0,1-3.5-1.256,7.47,7.47,0,0,1-1.7-2.512,9.878,9.878,0,0,1-.419-2.932,7.269,7.269,0,0,1,1.734-4.875,8.982,8.982,0,0,1,4.486-2.481,7.441,7.441,0,0,1,1.7-.18,6.794,6.794,0,0,1,2.542.449l1.346.449a1.472,1.472,0,0,0,.628-.3l.748-.538.538.269a16.5,16.5,0,0,0-.509,2.991c0,.568-.029,1.226-.089,2.034-.03.807-.06,1.286-.06,1.376ZM371.469,911.1c-1.166.388-2.781,1.943-2.781,5.2a7.017,7.017,0,0,0,1.166,4.007,3.748,3.748,0,0,0,3.2,1.764,4.626,4.626,0,0,0,3.828-1.914v-7.985a6.165,6.165,0,0,0-3.828-1.436A3.61,3.61,0,0,0,371.469,911.1Z" fill="#231f20"/><path d="M395.35,909.659l-.09,1.256-.06,1.5v8.734a1.791,1.791,0,0,0,.359,1.286,3.327,3.327,0,0,0,2,.358v.808l-.807-.031-1.525-.029-1.615.029-.927.031V921.2a15.146,15.146,0,0,1-2.812,2.213,5.072,5.072,0,0,1-2.631.539c-2.632,0-4.008-1.107-4.008-3.889v-7.087c0-1.794-.957-1.316-2.213-1.465v-.808a13.787,13.787,0,0,0,4.576-1.2l.389.209-.09,1.795-.09,1.734v6.011a2.714,2.714,0,0,0,.628,2.153,4.385,4.385,0,0,0,1.077.629,3.375,3.375,0,0,0,1.047.119,4.166,4.166,0,0,0,4.067-2.722V912.8c0-.867-.329-1.285-1.2-1.285h-1.346v-.808a7.039,7.039,0,0,0,.9-.06,13.374,13.374,0,0,0,1.525-.33,15.508,15.508,0,0,0,2.452-.806Z" fill="#231f20"/><path d="M401.665,910.2a6.239,6.239,0,0,1,2.9-.748,4.847,4.847,0,0,1,3.709,1.2,7.22,7.22,0,0,1,1.5,2.153,5.581,5.581,0,0,1,.388,2.183c-.03.15-.3.389-.778.718a8.131,8.131,0,0,1-1.285.628,3.3,3.3,0,0,1-1.107.18h-6.55a6.018,6.018,0,0,0,1.525,4.515,5.28,5.28,0,0,0,3.679,1.436,6.162,6.162,0,0,0,3.081-.718,4.685,4.685,0,0,0,.807-.538l.24.18-.3.508-.209.568a9.176,9.176,0,0,1-2.273,1.2,10.227,10.227,0,0,1-2.632.36,6.247,6.247,0,0,1-4.366-1.317,7.122,7.122,0,0,1-1.8-2.632,10.593,10.593,0,0,1-.418-3.05c0-2.363.538-4.1,1.615-5.174A7.835,7.835,0,0,1,401.665,910.2Zm-.389,1.645a6.489,6.489,0,0,0-.838,3.47l1.346.059,3.021.06,1.824-.03.868-.03v-1.315a3.321,3.321,0,0,0-.718-2.393,3.391,3.391,0,0,0-1.286-.957,4,4,0,0,0-1.346-.239A3.22,3.22,0,0,0,401.276,911.842Z" fill="#231f20"/><path d="M417.689,905.621c.868-.268,1.526-.448,2-.657s1.047-.39,1.735-.658c1.346-.569,2.662-1.017,4.127-1.705v.628a2.881,2.881,0,0,0-.508.539,1.187,1.187,0,0,0-.21.717V919.2l.03,2.064c.09,1.106.539,1.286,3.26,1.376v.957l-2.631-.031-3.021-.029-2.393.029-1.465.031v-.957h1.106a6.453,6.453,0,0,0,1.944-.389c.329-.27.539-1.765.539-3.439V907.146l-.03-1.016-.03-1.017-2.273.9a21.178,21.178,0,0,0-2.243,1.047l.03-.688Z" fill="#231f20"/></g></svg>
