<svg xmlns="http://www.w3.org/2000/svg" width="1000" height="988" viewBox="0 0 1000 988"><g id="Artboard"><rect id="Tint" width="1000" height="988" fill="#58595b"/></g><g id="Back_Text" data-name="Back Text"><path d="M741.265,172.365h11.8q3.538,0,3.539,3.244v48.367a70.324,70.324,0,0,1-2.507,18.285q11.944,17.989,26.395,17.99l43.944.3q6.488,0,6.93,2.065,0,2.063-6.341,2.359l-44.238.59a26.6,26.6,0,0,1-17.695-6.636,40.693,40.693,0,0,1-10.617-11.944,47.372,47.372,0,0,1-14.746,20.055.782.782,0,0,1-.885-.885c0-.59.391-.984,1.18-1.18a65.9,65.9,0,0,0,8.7-17.253q3.981-9.584,3.981-23.151v-46.3q0-1.77-2.064-1.769h-7.373q-2.655,0-2.655-2.065T741.265,172.365Zm4.571-36.571h12.387q.737-3.39,2.359-3.391,2.064,0,2.507,3.391h46.155q.736-2.948,2.212-2.949,1.914,0,2.359,2.949h11.8q3.54.3,3.539,2.36,0,2.361-2.949,2.359H814.11v.59q-.3,5.9-2.359,5.9-2.36,0-2.949-5.9v-.59H763.236v1.917q-.3,5.9-2.359,5.9-2.36,0-2.949-5.9v-1.917H744.656q-2.952,0-2.949-2.359Q741.707,136.09,745.836,135.794Zm-.295,14.6a4.347,4.347,0,0,1,2.654,2.065l10.175,8.552q2.064,2.655,2.065,3.539-.591,2.361-2.36,2.36a3.979,3.979,0,0,1-3.539-2.36l-10.765-10.027a6.79,6.79,0,0,1-.589-2.359Q743.182,150.69,745.541,150.393Zm35.1,9a46.1,46.1,0,0,1-12.24,4.866c-.788,0-1.179-.295-1.179-.884s.491-1.081,1.474-1.475q11.8-6.339,24.184-18.285,1.77,0,1.77.885a2.006,2.006,0,0,1-.59,1.474,19.142,19.142,0,0,1-1.622,2.36h17.99q5.308,0,5.308,2.654,0,.885-4.423,3.392-5.607,2.8-11.65,6.488-1.182.739-2.212,1.474a196.325,196.325,0,0,1,29.935,13.124,2.114,2.114,0,0,1,.885,1.622,1.33,1.33,0,0,1-1.328,1.475,221,221,0,0,1-34.5-12.976,206.334,206.334,0,0,0-23.447,17.842q-1.032,2.51-2.359,2.507c-.788,0-1.18-.686-1.18-2.064a97.019,97.019,0,0,1,17.4-17.4,53.509,53.509,0,0,1,5.013-3.244Q784.175,161.308,780.637,159.388Zm1.622,16.516h12.829q.145-2.212.3-3.982c.391-1.769.885-2.654,1.474-2.654q.588,0,1.18,2.212.294,2.361.442,4.424h13.567q3.1.3,3.1,1.917,0,2.211-2.655,2.212H798.922q.145,3.1.442,6.488h16.368q3.1.3,3.1,2.064,0,2.067-2.654,2.065H799.512q.144,4.129.3,8.553H820.6q3.1.3,3.1,2.064,0,2.067-2.654,2.065H799.807q.144,5.309.147,11.059,0,35.688-1.327,40.7-.591,2.949-1.475,2.95-.59-.3-1.179-3.245-1.77-7.962-1.77-40.4,0-6.045.148-11.059H769.577q-2.654,0-2.654-2.065,0-1.77,3.539-2.064h23.889q0-4.868.147-8.553H775.771q-2.655,0-2.655-2.065,0-1.768,3.539-2.064h17.991q.144-3.684.294-6.488H781.374q-2.655,0-2.654-2.212Q778.72,176.2,782.259,175.9Zm7.373-23.889a37.548,37.548,0,0,1-6.341,5.6q4.719,1.326,8.995,2.949,6.93-4.424,12.829-7.521c0-.391-.442-.589-1.327-.589H792.434A6.028,6.028,0,0,1,789.632,152.015Z" fill="#231f20"/><path d="M861.751,306.344q.736,11.8,1.18,26.985h38.192q3.391,0,3.392,2.507,0,2.361-2.8,2.359h-36.57q7.665,3.395,12.386,11.8,4.569,7.67,8.406,22.267,1.914,14.3,5.308,23.151,5.9,14.011,15.926,22.414,0,1.179-.885,1.18a2.391,2.391,0,0,1-2.654-1.917q-9.145-5.163-16.368-17.548-5.164-8.4-7.816-27.28-1.769-14.009-6.93-22.857a31.5,31.5,0,0,0-9.438-10.617q.145,9.439.148,19.465,0,51.171-1.622,58.247-.591,3.1-1.328,3.1-.589,0-1.179-3.1-1.77-11.651-1.77-58.247,0-10.763.148-20.055-5.015,3.395-8.553,10.617-4.28,8.849-6.046,22.267-2.655,18.877-8.553,27.87-8.11,12.387-18.285,17.548a2.618,2.618,0,0,1-2.8,1.917q-.885,0-.884-1.327,11.354-8.112,17.842-22.857,3.834-8.993,6.046-23.151,3.391-14.6,7.373-21.677,3.684-7.814,9.733-11.207H818.4q-2.654,0-2.654-2.359,0-2.5,3.982-2.507h37.75q.294-15.777.589-26.985H829.6q-2.654,0-2.654-1.77,0-2.505,3.687-2.507h27.575q.145-2.211.295-4.718c.391-1.572.885-2.36,1.474-2.36q.442,0,1.033,2.36.294,2.508.442,4.718h27.575q3.242,0,3.244,2.507,0,1.77-2.654,1.77ZM838.305,291.6v1.179q-.3,5.9-2.507,5.9t-2.8-5.9V291.6H818.545q-2.8,0-2.8-2.507,0-1.622,4.129-2.212H833v-.59q.588-5.308,2.507-5.309,2.506,0,2.8,5.309v.59h41.289v-.59q.586-4.717,2.8-4.719,2.357,0,2.654,4.719v.59H902.3q3.39.591,3.391,2.212,0,2.51-2.8,2.507H885.05v1.769q-.3,5.9-2.36,5.9-2.508,0-3.1-5.9V291.6Zm-8.258,19.464h1.032q7.079,3.394,7.078,9.88,0,4.868-4.866,9c-.394.788-.885,1.179-1.475,1.179s-.884-.391-.884-1.179a27.283,27.283,0,0,0,2.506-11.8q0-3.1-3.834-6.489C829.6,311.261,829.752,311.062,830.047,311.062Zm56.477-1.327q.885,0,.885,1.327a11.745,11.745,0,0,0-2.507,7.079,31.03,31.03,0,0,0,1.475,9.29c0,.788-.2,1.179-.59,1.179s-.885-.391-1.475-1.179q-4.571-2.8-4.571-8.7,0-4.866,5.309-7.668C885.441,310.178,885.935,309.735,886.524,309.735Z" fill="#231f20"/><path d="M706.214,419.661A107.987,107.987,0,0,1,701.5,440.9q-11.5,39.372-36.718,63.113-.884,1.177-1.327,1.179c-.3,0-.442-.394-.442-1.179q23.74-32.439,30.819-60.312,10.027-28.164,12.682-78.891.442-1.77,1.032-1.77,1.03,0,1.475,5.161,0,22.562-1.475,39.667,5.6,28.755,14.156,50.137,5.162,11.06,11.945,22.856A148.017,148.017,0,0,0,751.779,504.6c0,.686-.1,1.032-.295,1.032a3.4,3.4,0,0,1-1.769-1.032q-20.791-12.979-33.474-44.828A157.533,157.533,0,0,1,706.214,419.661Z" fill="#231f20"/><path d="M783.882,527.1q.737,8.847,1.18,20.644h8.11q4.126,0,4.129,2.212,0,3.1-3.392,3.1h-8.7q.588,15.78.59,37.16,0,53.676-1.475,60.606-.442,3.1-1.327,3.1-.739,0-1.327-3.1-1.625-11.8-1.622-60.606.145-21.972.295-37.16H761.91l.148,30.672q0,37.159-7.521,49.4Q747.754,645.508,737.579,652a8.075,8.075,0,0,1-1.475,1.327c-.493,0-.737-.442-.737-1.327a62.374,62.374,0,0,0,14.746-20.644q6.487-15.186,6.636-47.63l.147-30.672h-9.584q-3.394,0-3.392-3.1,0-2.211,4.719-2.212H756.9l.148-15.483a48.849,48.849,0,0,1,.885-5.161h-7.521q-3.1,0-3.1-3.1,0-2.213,4.423-2.212h38.193q3.684,0,3.686,2.212,0,3.1-3.1,3.1Zm-22.709,0a34.475,34.475,0,0,1,.737,4.571v16.073h18.58q.3-12.974.59-20.644Zm61.933-11.207q1.77,0,1.77,1.622a6.534,6.534,0,0,1-1.032,2.359,162.389,162.389,0,0,1-19.17,21.972,3.6,3.6,0,0,1-2.654,1.032q-1.476,0-1.475-1.622,5.751-10.174,19.907-23.741Q822.368,515.891,823.106,515.89Zm2.95,27.575a4.045,4.045,0,0,1-1.033,1.917,91.085,91.085,0,0,0-10.912,12.976q-3.687,5.165-3.686,15.336a157.756,157.756,0,0,0,6.341,44.239q4.866,15.189,18.875,36.57a.523.523,0,0,1-.59.59,2.853,2.853,0,0,1-2.065-1.18q-13.126-12.387-20.644-32.441-7.669-21.972-7.668-50.137a28.052,28.052,0,0,1,5.014-15.483,60.3,60.3,0,0,1,14.746-13.567Q826.055,542.285,826.056,543.465Z" fill="#231f20"/></g><g id="Front_Outline" data-name="Front Outline"><g id="Dolls_in_Pseudo_Paradise" data-name="Dolls in Pseudo Paradise"><path d="M661.457,433.263q-.683,0-1.44-.052c-1.344-.1-2.006-.152-3.331-.259l-.292-.03c-.4-.04-.95-.1-1.642-.138l-.307-.017c-.524-.029-1.263-.07-2.163-.154-.041,0-.539-.037-3.536-.046l-.538,0a1.992,1.992,0,0,1-1.152-.369l-.162-.115a2,2,0,0,1-.756-1.082l-.061-.217a2.017,2.017,0,0,1-.074-.541c0-.81.372-2.158,2.76-2.432l.038-1.126c.076-2.244.137-4.037.232-7,.019-.581.026-1.494.035-2.724l.025-2.616.026-1.618-.246,0a2,2,0,0,1-1.088-.322l-.181-.117a1.983,1.983,0,0,1-.408-.351,2.551,2.551,0,0,1-.583-1.418c-.1-1.081.377-2.422,3.241-2.693l.271-.026c2.855-.256,4.832-.419,6.514-.5,1.1-.052,2.033-.078,2.84-.078.87,0,1.619.029,2.29.088a13.166,13.166,0,0,1,8.885,3.981,14.246,14.246,0,0,1,3.372,9.843,11.039,11.039,0,0,1-3.7,8.842,12.7,12.7,0,0,1-7.122,3.173A12.293,12.293,0,0,1,661.457,433.263Zm-5.981-6a5.843,5.843,0,0,0,.8.29,14.482,14.482,0,0,0,2.545.464,15.9,15.9,0,0,0,1.636.088,8.276,8.276,0,0,0,4.639-1.175c1.2-.8,2.048-1.593,2.048-4.56,0-5.642-2.829-9.17-7.768-9.679a16.923,16.923,0,0,0-1.72-.1,10.014,10.014,0,0,0-1.143.061q-.448.053-.825.121l-.2,6.888-.09,6.308A8.407,8.407,0,0,0,655.476,427.258Z" fill="#fff"/><path d="M659.477,409.224c.775,0,1.481.024,2.116.081a11.148,11.148,0,0,1,7.587,3.339,12.2,12.2,0,0,1,2.846,8.492,9.068,9.068,0,0,1-3.061,7.378,10.708,10.708,0,0,1-6.029,2.656,10.506,10.506,0,0,1-1.478.093c-.414,0-.851-.017-1.311-.047-1.32-.1-1.98-.151-3.3-.258-.42-.041-1.091-.118-1.979-.171-.5-.029-1.333-.065-2.4-.165-.3-.028-1.528-.049-3.718-.055l-.539,0-.15-.106-.06-.218c0-.27.45-.427,1.319-.472l1.38-.1c.132-3.942.2-5.8.331-9.922.03-.948.03-2.764.06-5.382.024-1.5.036-2.253.061-3.756-.684.047-1.027.068-1.711.108l-.57.013-.18-.116a.6.6,0,0,1-.09-.285c-.023-.248.48-.418,1.44-.509l.271-.026c2.55-.228,4.682-.41,6.419-.492,1-.047,1.91-.075,2.744-.075m.982,20.876a10.181,10.181,0,0,0,5.747-1.511c1.946-1.3,2.94-2.819,2.941-6.223,0-6.58-3.535-11.049-9.564-11.67a18.85,18.85,0,0,0-1.922-.107,11.929,11.929,0,0,0-1.377.075,9.577,9.577,0,0,0-2.55.584c-.1,3.359-.145,5.033-.242,8.353-.036,2.684-.054,3.838-.091,6.337a9.153,9.153,0,0,0,.149,1.9,1.758,1.758,0,0,0,.391.8,4.524,4.524,0,0,0,1.768.832,16.5,16.5,0,0,0,2.909.537,17.946,17.946,0,0,0,1.841.1m-.982-24.876c-.838,0-1.8.026-2.933.08-1.891.089-4.195.289-6.587.5l-.3.029c-5.185.492-5.106,4.139-5.038,4.865a4.517,4.517,0,0,0,1.073,2.556,4.029,4.029,0,0,0,.828.713l.174.113a4.1,4.1,0,0,0,.4.226c-.011,1.02-.018,1.9-.024,2.668-.01,1.189-.016,2.074-.034,2.639-.09,2.8-.15,4.551-.22,6.623a4.352,4.352,0,0,0-2.812,4,4.007,4.007,0,0,0,.146,1.073l.062.222a4,4,0,0,0,1.522,2.175l.156.111a4,4,0,0,0,2.314.744l.539,0c2.805.008,3.35.038,3.4.041.895.085,1.674.127,2.189.156l.3.016c.647.039,1.177.093,1.564.133l.26.026.067.006c1.329.108,1.994.16,3.324.259.611.041,1.125.059,1.61.059a14.422,14.422,0,0,0,2.04-.133,14.632,14.632,0,0,0,8.194-3.69,13.027,13.027,0,0,0,4.334-10.3,16.2,16.2,0,0,0-3.9-11.195,15.1,15.1,0,0,0-10.183-4.622c-.731-.064-1.538-.1-2.469-.1Zm-1.838,9.365h.022a14.878,14.878,0,0,1,1.512.086c4.939.509,5.975,4.462,5.974,7.689,0,2.126-.387,2.383-1.157,2.9a6.359,6.359,0,0,1-3.531.84,14.155,14.155,0,0,1-1.43-.077,15.168,15.168,0,0,1-1.625-.251l.022-1.483c.022-1.479.038-2.625.065-4.6l.148-5.1Z" fill="#fff"/><path d="M679.687,434.939c-.2,0-.4,0-.606-.015-4.6-.228-7.568-3.153-7.567-7.45a8.123,8.123,0,0,1,2.154-5.556,7.239,7.239,0,0,1,5.691-2.585c.24,0,.482.01.731.029a8.283,8.283,0,0,1,7.75,8.446,6.6,6.6,0,0,1-2.67,5.4A8.761,8.761,0,0,1,679.687,434.939Zm-1-10.024c-.454,0-1.019,0-1.02,1.74a3.225,3.225,0,0,0,.813,2.244,2.382,2.382,0,0,0,1.763.866l.161,0a1.222,1.222,0,0,0,.94-.3.989.989,0,0,0,.3-.792c0-2.075-1.119-3.617-2.724-3.751C678.846,424.918,678.768,424.915,678.692,424.915Z" fill="#fff"/><path d="M679.36,421.333c.187,0,.378.008.572.023a6.279,6.279,0,0,1,5.908,6.451,4.573,4.573,0,0,1-1.89,3.816,6.8,6.8,0,0,1-4.262,1.317c-.167,0-.336,0-.508-.013-3.479-.173-5.668-2.219-5.667-5.452a6.114,6.114,0,0,1,1.681-4.263,5.228,5.228,0,0,1,4.166-1.879m1.049,10.436a3.213,3.213,0,0,0,2.341-.874,2.981,2.981,0,0,0,.9-2.219c0-3.048-1.829-5.517-4.559-5.744-.137-.011-.27-.017-.4-.017-2.013,0-3.02,1.377-3.021,3.739a5.212,5.212,0,0,0,1.319,3.575,4.378,4.378,0,0,0,3.149,1.533c.091,0,.181.007.269.007m-1.049-14.436h0a9.182,9.182,0,0,0-7.216,3.29,10.187,10.187,0,0,0-2.631,6.85c0,5.37,3.8,9.167,9.468,9.449.24.012.475.018.707.018a10.71,10.71,0,0,0,6.7-2.147,8.533,8.533,0,0,0,3.451-6.985,10.246,10.246,0,0,0-9.594-10.44c-.3-.023-.6-.035-.886-.035Z" fill="#fff"/><path d="M688.184,435.818a2.508,2.508,0,0,1-2.354-1.728,2,2,0,0,1-.041-1.216c0-.008.025-.094.028-.1a15.289,15.289,0,0,0,.408-3.972c-.012-3.516-.018-5.709-.029-10.768,0-1.286-.057-2.774-.175-4.553l-.03-.395a2.513,2.513,0,0,1,2.157-2.661l.676-.134c.04-.008.08-.015.12-.02s.257-.088.566-.187l.885-.278.834-.289a2.008,2.008,0,0,1,1.314,0,2.582,2.582,0,0,1,1.146.8,2,2,0,0,1,.39.822l.092.425a2,2,0,0,1-.4,1.664l-.072.088a2.231,2.231,0,0,1-.347.333,4.025,4.025,0,0,0-.523.5,23.874,23.874,0,0,0-.358,5.2l.013,1.451c.01.869.02,1.736.017,2.579-.008,1.909-.022,3.085-.034,3.784,0,.2-.008.444-.033.707,0,.055.007.11.007.167,0,0,0,1.615,0,1.714l.1,0a2,2,0,0,1,.766.152,2.349,2.349,0,0,1,1.564,2.225c0,1.18-.822,1.971-2.443,2.352l-1.061.244a10,10,0,0,0-1.345.51c-.16.078-.331.149-.508.22l-.222.091a2.5,2.5,0,0,1-.892.263C688.344,435.813,688.244,435.818,688.184,435.818Z" fill="#fff"/><path d="M691.884,411.4a.581.581,0,0,1,.24.158l.09.417-.06.073a6.451,6.451,0,0,0-.989.974c-.454.542-.711,3.177-.69,6.338.008,1.342.035,2.7.03,4.01-.015,3.788-.056,4.669-.06,4.669v1.39a8.264,8.264,0,0,0,.149,2.092.667.667,0,0,0,.63.414h.065a4.6,4.6,0,0,0,.775-.089l.48-.1c.24.1.33.194.33.377,0,.114-.3.264-.9.405l-1.05.241a10.54,10.54,0,0,0-1.74.646c-.21.106-.449.188-.69.293a.936.936,0,0,1-.27.1.275.275,0,0,1-.04,0,.527.527,0,0,1-.47-.4l.031-.112a17.154,17.154,0,0,0,.479-4.507c-.011-3.522-.017-5.714-.028-10.773,0-1.338-.06-2.879-.18-4.681l-.03-.405c-.03-.3.18-.472.6-.567l.629-.124c.21-.029.78-.23,1.769-.535.36-.123.54-.185.9-.31m0-4a3.974,3.974,0,0,0-1.31.221l-.832.286c-.32.1-.6.187-.831.262-.212.068-.377.122-.5.158l-.6.118-.108.022A4.51,4.51,0,0,0,684,413.249l.028.385c.114,1.711.17,3.155.17,4.392.011,5.069.017,7.263.028,10.786a13.572,13.572,0,0,1-.334,3.424l-.022.083-.016.057a4,4,0,0,0,.1,2.386,4.485,4.485,0,0,0,4.237,3.056c.121,0,.283-.007.4-.018a4.5,4.5,0,0,0,1.553-.441l.116-.046c.16-.065.37-.149.6-.261a9.22,9.22,0,0,1,.948-.378l1.06-.242c3.617-.849,4-3.293,4-4.3a4.358,4.358,0,0,0-2.429-3.9v-.1c0-.049,0-.1.007-.149,0-.153.011-.4.018-.774.013-.7.027-1.89.035-3.813,0-.849-.007-1.721-.017-2.6q-.008-.727-.014-1.453a30.228,30.228,0,0,1,.2-4.184,3.746,3.746,0,0,0,.558-.554l.06-.073a4,4,0,0,0,.828-3.394l-.089-.414a4.01,4.01,0,0,0-.768-1.633,4.572,4.572,0,0,0-2.071-1.462,4.012,4.012,0,0,0-1.312-.221Z" fill="#fff"/><path d="M694.959,435.985a2.5,2.5,0,0,1-2.341-1.69,2,2,0,0,1-.056-1.209l.031-.114a14.625,14.625,0,0,0,.411-3.9c-.012-3.471-.019-5.656-.03-10.749,0-1.307-.058-2.81-.177-4.6l-.028-.389a2.506,2.506,0,0,1,2.124-2.681s.757-.161.8-.168.257-.091.565-.195l.889-.3.836-.3a2.009,2.009,0,0,1,1.328-.014,2.565,2.565,0,0,1,1.179.832,1.992,1.992,0,0,1,.371.8l.089.419a2,2,0,0,1-.4,1.676,2.942,2.942,0,0,1-.394.4,4.275,4.275,0,0,0-.538.532,24.241,24.241,0,0,0-.363,5.271l.014,1.465c.009.865.019,1.727.016,2.563-.007,1.906-.021,3.078-.034,3.775,0,.2-.008.443-.032.705,0,.054.007.108.007.163,0,0,0,1.556,0,1.637l.1,0a1.993,1.993,0,0,1,.734.139,2.329,2.329,0,0,1,1.6,2.226c0,1.763-1.827,2.207-2.427,2.352l-1.052.248a10.126,10.126,0,0,0-1.407.539c-.089.046-.28.125-.478.2l-.222.091a2.542,2.542,0,0,1-.86.259C695.14,435.979,695.027,435.985,694.959,435.985Z" fill="#fff"/><path d="M698.662,411.569a.567.567,0,0,1,.239.157l.09.422-.059.075a6.451,6.451,0,0,0-.99,1c-.454.555-.709,3.225-.689,6.4.009,1.346.035,2.708.03,4.01-.014,3.779-.056,4.653-.059,4.653v1.376a7.95,7.95,0,0,0,.15,2.058.658.658,0,0,0,.63.4h.039a4.526,4.526,0,0,0,.8-.1l.48-.105c.24.1.33.187.33.366,0,.112-.3.263-.9.409l-1.049.248a10.747,10.747,0,0,0-1.741.65c-.21.105-.45.188-.69.292a.982.982,0,0,1-.27.1l-.045,0a.514.514,0,0,1-.464-.384l.029-.109a16.448,16.448,0,0,0,.48-4.424c-.012-3.477-.018-5.662-.031-10.753,0-1.348-.059-2.9-.18-4.726l-.03-.411c-.03-.3.18-.481.6-.583l.631-.134c.21-.033.779-.244,1.769-.566l.9-.326m0-4a4,4,0,0,0-1.369.241l-.832.3c-.328.107-.61.2-.849.282-.2.069-.365.124-.485.161l-.595.127-.11.025a4.539,4.539,0,0,0-3.647,4.783l.019.249.01.144c.113,1.718.169,3.177.169,4.432.013,5.1.019,7.289.031,10.767a12.923,12.923,0,0,1-.327,3.315l-.017.06-.029.107a4,4,0,0,0,.111,2.422,4.486,4.486,0,0,0,4.217,3c.132,0,.311-.009.443-.022a4.49,4.49,0,0,0,1.514-.436l.117-.046c.16-.065.372-.149.606-.261a9.609,9.609,0,0,1,.971-.388l1.067-.251c3.593-.872,3.977-3.3,3.977-4.3a4.331,4.331,0,0,0-2.43-3.891v-.019c0-.049,0-.1.007-.149,0-.152.011-.4.018-.771.013-.7.027-1.884.034-3.8,0-.845-.007-1.714-.016-2.588-.005-.487-.011-.975-.014-1.462a30.288,30.288,0,0,1,.211-4.277,3.841,3.841,0,0,0,.6-.609l.063-.08a4,4,0,0,0,.776-3.319l-.087-.406a4.067,4.067,0,0,0-.732-1.6,4.538,4.538,0,0,0-2.126-1.518,4,4,0,0,0-1.3-.216Z" fill="#fff"/><path d="M704.9,435.6a21.208,21.208,0,0,1-2.494-.137l-.161-.02a13.3,13.3,0,0,1-1.627-.276,2.654,2.654,0,0,1-1.97-2.94v-1.043a2.053,2.053,0,0,1,.04-.4,2.514,2.514,0,0,1,1.541-1.887,4.616,4.616,0,0,1-.381-1.888,6.273,6.273,0,0,1,1.989-4.5,6.976,6.976,0,0,1,5.079-2.034,11.064,11.064,0,0,1,2.1.244c.732.147,2.959.592,2.959,2.626a4.723,4.723,0,0,1-.332,1.784,3.332,3.332,0,0,1-.71,1.13,5.628,5.628,0,0,1,.721.388,4.037,4.037,0,0,1,1.852,3.533c0,1.177-.448,3.338-3.465,4.566a13.5,13.5,0,0,1-5.066.854Z" fill="#fff"/><path d="M706.917,422.476h.031a9.108,9.108,0,0,1,1.68.206c.886.177,1.351.366,1.351.664a2.748,2.748,0,0,1-.181,1.022c-.148.36-.269.523-.42.557l-.509-.161a7.085,7.085,0,0,0-2.791-.657h-.017c-1.52,0-2.563.876-2.562,1.9,0,.775.631,1.258,1.86,1.442a10.373,10.373,0,0,0,1.68.11,6.69,6.69,0,0,1,3.541.769,2.06,2.06,0,0,1,.93,1.848c0,1.22-.755,2.118-2.219,2.714a11.539,11.539,0,0,1-4.309.706h-.071a19.249,19.249,0,0,1-2.251-.121,13.081,13.081,0,0,1-1.56-.253c-.344-.085-.45-.171-.45-1v-1.044a.493.493,0,0,1,.5-.453h.011a.49.49,0,0,1,.3.074c.047.075.071.112.119.187v.161c0,1.1.96,1.677,2.761,1.688h.057a8.286,8.286,0,0,0,2.973-.537c1.16-.444,1.74-1.022,1.74-1.79,0-.651-.511-.964-1.8-.969-.6,0-.9,0-1.5-.008-2.67-.018-3.96-.784-3.961-2.526a4.313,4.313,0,0,1,1.41-3.093,4.969,4.969,0,0,1,3.658-1.442m0-4a8.934,8.934,0,0,0-6.5,2.626,8.267,8.267,0,0,0-2.57,5.91,6.844,6.844,0,0,0,.087,1.069,4.611,4.611,0,0,0-1.206,2.306,4.02,4.02,0,0,0-.08.8v1.044c0,3.5,2.187,4.56,3.49,4.882a15.273,15.273,0,0,0,1.866.32l.153.019a23.434,23.434,0,0,0,2.736.151h.087a15.459,15.459,0,0,0,5.817-1c4.254-1.732,4.712-5.067,4.711-6.42a6.115,6.115,0,0,0-1.913-4.55,6.861,6.861,0,0,0,.382-2.285c0-1.371-.594-3.791-4.567-4.586a12.89,12.89,0,0,0-2.446-.283Zm.56,15.076Z" fill="#fff"/><path d="M718.653,435.586a2,2,0,0,1-.9-.214,2.215,2.215,0,0,1-1.278-1.871l-.058-.919c0-.04,0-.081,0-.122l0-5.775a1.979,1.979,0,0,1-.583-.14,2.55,2.55,0,0,1-1.242-1.057,2.729,2.729,0,0,1-.366-1.367c0-1.139.767-1.952,2.282-2.417l.888-.283c.9-.376,1.381-.577,2.308-.971a2.01,2.01,0,0,1,1.479-.033,2.493,2.493,0,0,1,1.783,2.353c0,.054,0,.108-.007.162l-.023.309c0,.384-.021,1-.042,1.734l-.077,2.244-.028,5.51a1.962,1.962,0,0,1-.091.584l-.09.288a2.181,2.181,0,0,1-.1.247,2.361,2.361,0,0,1-1.641,1.242l-1.726.436A1.994,1.994,0,0,1,718.653,435.586Zm.662-16.468a3.452,3.452,0,0,1-2.652-1.243,4.151,4.151,0,0,1-.917-2.671,3.872,3.872,0,0,1,3.562-4.053h0a3.788,3.788,0,0,1,3.648,4,3.832,3.832,0,0,1-3.589,3.961Z" fill="#fff"/><path d="M719.354,413.151a2.026,2.026,0,0,1-.017,3.967h-.022a1.455,1.455,0,0,1-1.118-.526,2.166,2.166,0,0,1-.451-1.388,1.918,1.918,0,0,1,1.59-2.052h.018m1.126,9.141c.33.122.48.283.48.478l-.03.391c0,.454-.029,1.331-.059,2.351-.024.666-.035.992-.059,1.63-.011,2.427-.017,3.542-.028,5.576-.036.112-.054.169-.09.28-.03.065-.15.11-.33.156-.684.175-1.026.261-1.71.432-.121-.061-.181-.123-.181-.186-.024-.369-.036-.558-.06-.941,0-2.1,0-3.248,0-5.746a4.411,4.411,0,0,0-.241-1.85.912.912,0,0,0-.806-.382h-.034l-.42.106-.33.1a.538.538,0,0,1-.27-.219.738.738,0,0,1-.09-.352c0-.162.3-.33.869-.5l.99-.315c.961-.4,1.441-.6,2.4-1.009m-1.126-13.141h-.074a5.87,5.87,0,0,0-5.534,6.053,6.155,6.155,0,0,0,1.384,3.955,5.467,5.467,0,0,0,.666.669c-3.223,1.027-3.576,3.341-3.576,4.293a4.755,4.755,0,0,0,.642,2.379,4.534,4.534,0,0,0,1.549,1.563l0,4.4c0,.083,0,.166.008.248l.058.912a4.233,4.233,0,0,0,2.378,3.539,4,4,0,0,0,2.766.307c.693-.173,1.039-.261,1.732-.438a4.276,4.276,0,0,0,2.96-2.331,3.984,3.984,0,0,0,.187-.476l.094-.292a4.037,4.037,0,0,0,.188-1.19c.011-2.018.017-3.131.028-5.516l.056-1.57.016-.533c.022-.742.04-1.378.045-1.794l.019-.251c.008-.1.012-.205.012-.307a4.407,4.407,0,0,0-1.646-3.42,6.122,6.122,0,0,0,1.643-4.192,5.824,5.824,0,0,0-5.6-6.006Z" fill="#fff"/><path d="M725.474,435.346a1.967,1.967,0,0,1-.405-.041,2.492,2.492,0,0,1-.922-.4,2,2,0,0,1-.811-1.229l-.062-.3a2.009,2.009,0,0,1-.041-.4l0-5.227a6.007,6.007,0,0,0-.123-1.367l-.036.006a2.037,2.037,0,0,1-.3.023,2.011,2.011,0,0,1-.437-.048,2.5,2.5,0,0,1-1.24-.678,2,2,0,0,1-.532-1.042l-.061-.349a2,2,0,0,1,.5-1.7,3.028,3.028,0,0,1,.277-.251c.038-.034.078-.065.119-.1a3.758,3.758,0,0,1,.892-.529l.544-.232c.164-.082.364-.185.586-.31l.135-.088c.139-.087.336-.211.583-.392l.259-.185a2.009,2.009,0,0,1,1.088-.371h0a3.293,3.293,0,0,1,2.431,1.307c.021.023.042.047.062.071a15.909,15.909,0,0,1,1.5-.668,9.978,9.978,0,0,1,3.063-.8c.1,0,.2-.007.293-.007a4.422,4.422,0,0,1,3.869,2.077,8.639,8.639,0,0,1,1.059,5.085c-.031.883-.054,1.525-.077,2.151a2.441,2.441,0,0,1,.888.4,2.007,2.007,0,0,1,.738.992l.087.26a1.971,1.971,0,0,1,.108.645c0,.83-.413,1.918-2.38,2.383-.274.058-.62.145-1.039.269-.548.2-.839.3-1.4.5l-.769.29a2,2,0,0,1-.7.126,2.04,2.04,0,0,1-.381-.036l-.273-.053a2,2,0,0,1-1.37-1l-.061-.114a2.141,2.141,0,0,1-.138-1.74l.069-.171a9.995,9.995,0,0,0,.483-3.384c0-.479-.051-2.868-1.034-2.868a2.186,2.186,0,0,0-1.054.393l.024.71-.028,3.521-.091,2.453a2,2,0,0,1-1.458,1.849c-.69.193-1.035.289-1.725.477a2.145,2.145,0,0,1-.241.05l-.183.026A2.054,2.054,0,0,1,725.474,435.346Z" fill="#fff"/><path d="M732.834,422.041a2.423,2.423,0,0,1,2.181,1.149,6.685,6.685,0,0,1,.75,3.9c-.059,1.717-.089,2.519-.148,4.011a.332.332,0,0,0,.149.357.781.781,0,0,0,.4.093h.053l.51-.135.51-.114a.445.445,0,0,1,.18.082c.036.107.054.16.09.265,0,.156-.269.3-.84.437-.27.055-.69.161-1.2.313-.576.206-.864.307-1.44.508-.324.123-.486.184-.81.305l-.27-.052-.09-.165.06-.15a11.891,11.891,0,0,0,.629-4.132c0-3.024-1.022-4.868-3.034-4.868-.059,0-.118,0-.179,0a4.713,4.713,0,0,0-2.881,1.434c0,.316,0,.473,0,.783.012.385.018.574.03.949-.011,1.448-.017,2.135-.029,3.435-.036,1-.053,1.48-.089,2.394-.684.192-1.026.287-1.71.473l-.18.026a.457.457,0,0,1-.18-.079c-.024-.117-.036-.175-.061-.294,0-1.9,0-2.949,0-5.227,0-2.318-.607-3.455-1.789-3.455h-.073l-.33.076-.27.041a.522.522,0,0,1-.24-.117c-.024-.138-.036-.207-.061-.346.031-.033.09-.067.121-.1a2.264,2.264,0,0,1,.42-.269l.66-.279c.21-.1.479-.243.78-.414.15-.1.449-.274.869-.581l.241-.171h.01c.209,0,.479.219.86.644a4.191,4.191,0,0,1,.841,1.506,12.815,12.815,0,0,1,2.942-1.578,8.305,8.305,0,0,1,2.43-.658c.065,0,.129,0,.191,0m0-4c-.129,0-.261,0-.395.01a11.664,11.664,0,0,0-3.694.932c-.125.049-.246.1-.364.146a4.58,4.58,0,0,0-2.811-1c-.048,0-.107,0-.155,0a4,4,0,0,0-2.178.74l-.155.111-.082.058-.043.031c-.2.146-.359.245-.471.316l-.113.072c-.138.077-.266.143-.377.2l-.517.219a5.8,5.8,0,0,0-1.271.751c-.062.046-.121.093-.18.142a4.179,4.179,0,0,0-.512.474,4,4,0,0,0-.987,3.387l.062.351a4,4,0,0,0,1.065,2.088,4.433,4.433,0,0,0,1.576,1.036v4.865a4.09,4.09,0,0,0,.082.8l.063.3a4,4,0,0,0,1.631,2.469,4.458,4.458,0,0,0,1.668.716,4.035,4.035,0,0,0,.8.08,3.979,3.979,0,0,0,.566-.04l.116-.017.066-.009a4.055,4.055,0,0,0,.485-.1c.694-.189,1.042-.285,1.736-.48a2.225,2.225,0,0,1,3.74.389l.274.054a4.009,4.009,0,0,0,2.158-.181l.774-.291c.521-.181.812-.284,1.316-.464.363-.106.64-.174.773-.2.037-.007.073-.015.109-.024,3.639-.86,3.92-3.532,3.92-4.33a3.994,3.994,0,0,0-.213-1.288l-.087-.255a4,4,0,0,0-1.475-1.983c.009-.262.019-.544.03-.856a10.42,10.42,0,0,0-1.369-6.221,6.444,6.444,0,0,0-5.559-3.006Z" fill="#fff"/><path d="M744.381,434.981a2.03,2.03,0,0,1-.5-.062l.5-1.938-.556,1.923-.161-.042a2,2,0,0,1-1.34-1.165l-.074-.179a2,2,0,0,1,.2-1.855,2.625,2.625,0,0,1,.308-.362c.073-.088.158-.182.253-.278l.02-.02a18.681,18.681,0,0,0,.106-2.4c0-1.5,0-3.021.03-4.548.023-2.9.035-4.541.058-8.024a2.657,2.657,0,0,1-1.059.3c-.039,0-.079,0-.118,0a2,2,0,0,1-.942-.235l-.2-.108a2,2,0,0,1-1-1.383l-.061-.326a1.987,1.987,0,0,1-.034-.369c0-1.649,1.539-2.471,2.118-2.78l.179-.111A20.541,20.541,0,0,1,746.6,408.9a15.775,15.775,0,0,1,4.268-.879q.393-.023.77-.022a9.566,9.566,0,0,1,5.908,1.813,8.159,8.159,0,0,1,3.129,6.816,9.419,9.419,0,0,1-3.451,7.631,12.982,12.982,0,0,1-7.379,2.763c-.08.007-.158.012-.233.015,0,.59-.01,1.206-.017,1.873a7.122,7.122,0,0,1,1.323-.259c.043,0,.086,0,.129,0a2,2,0,0,1,.936.233,2.316,2.316,0,0,1,1.122,1.329l.059.233a2,2,0,0,1,.065.5c0,.884-.446,2.028-2.566,2.466-.264.046-.492.081-.678.1-.061.014-.164.038-.3.075-1.252.284-2.655.7-4.279,1.18l-.476.137A2.031,2.031,0,0,1,744.381,434.981Zm5.387-20.178c-.029.664-.059,1.937-.087,3.665-.011,1.384-.019,2.541-.028,3.577l.045,0c2.7-.222,4.008-1.676,4.007-4.448a5.331,5.331,0,0,0-.817-3.162,2.11,2.11,0,0,0-1.842-.921c-.071,0-.144,0-.217.007a2.537,2.537,0,0,0-1,.257Z" fill="#fff"/><path d="M751.634,410a7.638,7.638,0,0,1,4.705,1.409,6.207,6.207,0,0,1,2.334,5.221,7.437,7.437,0,0,1-2.724,6.087,11,11,0,0,1-6.268,2.313c-.1.008-.193.012-.278.012-.508,0-.752-.146-.752-.457a.627.627,0,0,1,.09-.4l.394-.089.727-.059c3.634-.3,5.845-2.49,5.843-6.442a7.216,7.216,0,0,0-1.213-4.356,4.1,4.1,0,0,0-3.445-1.726c-.112,0-.225,0-.341.011-1.453.09-2.634.79-2.845,1.561-.037.653-.055.974-.091,1.606-.03.7-.06,1.993-.09,3.746-.035,4.83-.053,6.914-.088,10.618a4.223,4.223,0,0,0,.212,1.777c.113.175.4.273.817.273.059,0,.119,0,.183-.006a5.983,5.983,0,0,0,1.15-.213,6.906,6.906,0,0,1,1.091-.237l.121.064c.024.094.036.141.061.235,0,.214-.333.375-.97.507-.212.036-.423.072-.575.081,0,0-.181.033-.515.122-1.242.28-2.665.7-4.331,1.195-.182.053-.273.079-.455.13l-.212-.054-.06-.147c.03-.044.109-.095.151-.159a2.159,2.159,0,0,1,.212-.229,1.39,1.39,0,0,0,.425-.557,13.5,13.5,0,0,0,.241-3.231c0-1.484,0-3,.03-4.508.023-2.979.035-4.621.059-8.227v-1.048a5.067,5.067,0,0,0-.121-.882c-.09-.445-.178-.738-.381-.738h-.013a3.743,3.743,0,0,0-1.544.6,4.5,4.5,0,0,1-1.119.536l-.182-.1-.06-.323c0-.329.362-.644,1.059-1.015l.272-.163a18.725,18.725,0,0,1,4.116-1.948,13.728,13.728,0,0,1,3.724-.772q.335-.019.656-.019m0-4q-.432,0-.88.025a17.784,17.784,0,0,0-4.811.987,22.59,22.59,0,0,0-4.921,2.332l-.136.081c-2.043,1.119-3.079,2.63-3.079,4.492a4.006,4.006,0,0,0,.067.733l.062.327a4,4,0,0,0,2.026,2.781l.158.085a4.179,4.179,0,0,0,1.091.4c-.014,2.108-.025,3.589-.043,5.82-.03,1.509-.03,3.05-.03,4.54,0,.7-.017,1.2-.037,1.538a4.242,4.242,0,0,0-.3.394,4,4,0,0,0-.39,3.761l.064.155a4,4,0,0,0,2.71,2.352l.053.013.158.04a4,4,0,0,0,2.085-.029l.466-.133c1.626-.482,2.994-.887,4.1-1.137q.075-.016.15-.036l.127-.033c.212-.027.412-.06.6-.091.047-.008.1-.018.145-.028,3.862-.8,4.162-3.588,4.162-4.425a4.009,4.009,0,0,0-.128-1l-.059-.23a4.019,4.019,0,0,0-.795-1.558,13.53,13.53,0,0,0,4.249-2.355,11.477,11.477,0,0,0,4.179-9.175,10.217,10.217,0,0,0-3.924-8.411A11.517,11.517,0,0,0,751.634,406Zm.052,12.131q.008-.417.015-.79c0,.082,0,.166,0,.255,0,.192-.006.37-.019.535Z" fill="#fff"/><path d="M760.62,433.655c-.461,0-.845-.016-1.151-.04l-.163-.012a12.618,12.618,0,0,1-1.643-.2,2.69,2.69,0,0,1-2.048-3.037v-1.157a1.964,1.964,0,0,1,.032-.35,2.576,2.576,0,0,1,1.741-2.082,4.845,4.845,0,0,1-.575-2.3,6.654,6.654,0,0,1,1.985-4.759,7.848,7.848,0,0,1,4.922-2.261c.255-.024.53-.036.822-.036.379,0,.788.02,1.216.056,2.11.179,3.181,1.009,3.181,2.467a4.424,4.424,0,0,1-.343,1.74,3.2,3.2,0,0,1-.922,1.274,5.045,5.045,0,0,1,.945.469,4.18,4.18,0,0,1,1.854,3.727,5.743,5.743,0,0,1-3.255,5.118,12.245,12.245,0,0,1-5.23,1.345C761.473,433.643,761.017,433.655,760.62,433.655Z" fill="#fff"/><path d="M764.541,419.418c.326,0,.678.018,1.047.049.887.075,1.349.2,1.35.474a2.423,2.423,0,0,1-.18.946c-.148.342-.27.5-.419.545l-.51-.1a7.61,7.61,0,0,0-2.218-.355c-.192,0-.382.009-.572.027-1.53.145-2.579,1.053-2.578,2.192,0,.854.63,1.323,1.859,1.407.159.015.332.022.519.022.344,0,.734-.023,1.162-.062q.516-.046.975-.047a4.746,4.746,0,0,1,2.565.591,2.257,2.257,0,0,1,.93,2.044,3.748,3.748,0,0,1-2.217,3.363,10.28,10.28,0,0,1-4.379,1.1c-.473.027-.893.038-1.257.038-.4,0-.729-.013-.993-.034a12.207,12.207,0,0,1-1.56-.178c-.342-.071-.45-.159-.45-1.078v-1.157c.059-.335.239-.529.509-.549a.728.728,0,0,1,.078,0,.349.349,0,0,1,.222.058l.12.2v.18c0,1.126.809,1.7,2.332,1.7.137,0,.28,0,.428-.014a7.562,7.562,0,0,0,3.03-.835c1.158-.6,1.738-1.327,1.738-2.215,0-.656-.389-.979-1.343-.979-.14,0-.293.007-.458.021l-1.5.125c-.31.026-.6.039-.874.039-2.078,0-3.086-.759-3.087-2.459a4.688,4.688,0,0,1,1.409-3.352,5.817,5.817,0,0,1,3.688-1.676c.2-.019.408-.027.633-.027m0-4c-.356,0-.7.015-1.011.045a9.822,9.822,0,0,0-6.155,2.846,8.729,8.729,0,0,0-2.564,6.166,7.153,7.153,0,0,0,.16,1.5,4.747,4.747,0,0,0-1.295,2.534,4.011,4.011,0,0,0-.061.7v1.158c0,3.693,2.284,4.714,3.644,4.994a14.382,14.382,0,0,0,1.9.237l.16.011c.39.031.829.046,1.3.046s.963-.015,1.481-.044a14.213,14.213,0,0,0,6.08-1.589,7.758,7.758,0,0,0,4.292-6.872,6.388,6.388,0,0,0-1.987-4.806,6.458,6.458,0,0,0,.454-2.4c0-.946-.364-4.064-5.013-4.458-.5-.043-.956-.063-1.384-.063Z" fill="#fff"/><path d="M775.1,432.846c-4.579,0-7.426-2.695-7.428-7.034a10.21,10.21,0,0,1,1.961-5.97,8.159,8.159,0,0,1,5.862-3.581,7.276,7.276,0,0,1,.739-.038,5.448,5.448,0,0,1,3.283,1.017,4.754,4.754,0,0,1,1.9,3.974c0,2.018-1.92,3.67-6.529,5.515a1.873,1.873,0,0,0,.9.19s.15,0,.226-.008a4.08,4.08,0,0,0,1.472-.364,2.591,2.591,0,0,0,1.017-.831l.33-.45a2.9,2.9,0,0,1,1.618-1.26,2,2,0,0,1,.532-.072c.072,0,.143,0,.213.011a2.5,2.5,0,0,1,1.371.573,2.011,2.011,0,0,1,.492.646l.127.269a1.983,1.983,0,0,1,.187.844,4.436,4.436,0,0,1-.9,2.316,19.833,19.833,0,0,1-1.735,2.3,4.771,4.771,0,0,1-2.191,1.537,11.541,11.541,0,0,1-2.731.393C775.573,432.839,775.333,432.846,775.1,432.846Z" fill="#fff"/><path d="M776.233,418.223a3.478,3.478,0,0,1,2.105.633,2.752,2.752,0,0,1,1.081,2.358c0,1.176-2.43,2.687-7.258,4.405a3.455,3.455,0,0,0,3.625,3.3c.12,0,.242,0,.367-.013a6.041,6.041,0,0,0,2.19-.553,4.578,4.578,0,0,0,1.769-1.452l.36-.491a1.062,1.062,0,0,1,.51-.476.526.526,0,0,1,.27.092l.119.251a3.516,3.516,0,0,1-.6,1.264,17.981,17.981,0,0,1-1.558,2.06,2.831,2.831,0,0,1-1.29.931,10.252,10.252,0,0,1-2.221.3c-.2.012-.407.018-.6.018-3.389,0-5.426-1.751-5.428-5.035a8.165,8.165,0,0,1,1.587-4.8,6.2,6.2,0,0,1,4.438-2.756,5.254,5.254,0,0,1,.537-.028m-4.163,6.361a8.271,8.271,0,0,0,3.39-1.377,2.712,2.712,0,0,0,1.258-2.191,1.408,1.408,0,0,0-.481-1.106c-.149-.1-.269-.182-.359-.232a1.407,1.407,0,0,0-.588-.108,2.439,2.439,0,0,0-.252.014,2.984,2.984,0,0,0-2.249,1.622,5.1,5.1,0,0,0-.749,2.671v.341l.03.366m4.163-10.361a9.415,9.415,0,0,0-.941.048,10.235,10.235,0,0,0-7.285,4.406,12.191,12.191,0,0,0-2.336,7.136c0,5.4,3.792,9.033,9.428,9.033q.408,0,.834-.024a12.478,12.478,0,0,0,3.237-.489,6.791,6.791,0,0,0,3.119-2.174,21.485,21.485,0,0,0,1.885-2.513,6.321,6.321,0,0,0,1.2-3.371,3.992,3.992,0,0,0-.387-1.715l-.052-.109-.067-.143a4,4,0,0,0-1-1.308,4.272,4.272,0,0,0-.622-.446,5.152,5.152,0,0,0,.173-1.342,6.712,6.712,0,0,0-2.727-5.59,7.51,7.51,0,0,0-4.459-1.4Z" fill="#fff"/><path d="M791.534,432.324a2,2,0,0,1-1.407-.579l1.407-1.421-1.46,1.369a2.33,2.33,0,0,1-.477-.685c-1.9,1.057-2.333,1.219-2.869,1.249-.161.009-.317.014-.469.014a5.143,5.143,0,0,1-4.332-1.978,8.346,8.346,0,0,1-1.367-5.315l.115-4.792-.11-1.12a2,2,0,0,1,.762-1.773c.042-.038.085-.075.127-.107a4.148,4.148,0,0,1,.7-.417c.028-.014.778-.354.778-.354l1.967-.989a1.993,1.993,0,0,1,.692-.2,3.053,3.053,0,0,1,.319-.017,2.294,2.294,0,0,1,2.368,2.309,2.906,2.906,0,0,1-.869,1.92c-.035.037-.075.078-.11.122s-.045.087-.069.13a2.674,2.674,0,0,0-.261.923,20.338,20.338,0,0,0-.128,2.72c0,2.151.332,2.669.387,2.741h0a2.27,2.27,0,0,0,.273.018c.063,0,.13,0,.2-.007a5.287,5.287,0,0,0,1.771-.571l0-5.276a3.912,3.912,0,0,0-.026-.485,2.135,2.135,0,0,1-.758-1.3,2.576,2.576,0,0,1,1.467-2.71l.166-.074.117-.062c.2-.107.593-.312,1.177-.633l.866-.461a2,2,0,0,1,.737-.224c.067-.007.16-.012.227-.012a2.76,2.76,0,0,1,2.666,2.562,1.982,1.982,0,0,1-.064.5,8.089,8.089,0,0,0-.237,1.6l-.088,2.706-.027,3.679.088,2.947.022.206a1.881,1.881,0,0,1,.01.2c.006,1.387-1.2,2.179-1.92,2.652a6.948,6.948,0,0,1-1.807.916A2.041,2.041,0,0,1,791.534,432.324Z" fill="#fff"/><path d="M793.442,416.277c.246,0,.666.329.666.561l-.03.123a9.979,9.979,0,0,0-.27,1.889c-.035,1.092-.053,1.638-.088,2.734-.011,1.483-.017,2.226-.028,3.728.037,1.228.055,1.845.092,3.095l.029.28c0,.22-.335.523-1.019.972a5.332,5.332,0,0,1-1.26.665l-.12-.118-.031-.434v-1.207c.011-.371.018-.556.029-.925-1.044.615-1.566.92-2.61,1.521a12.328,12.328,0,0,1-2.189,1.1c-.121.007-.238.011-.353.011a3.208,3.208,0,0,1-2.738-1.184,6.51,6.51,0,0,1-.963-4.077c.047-1.945.071-2.92.118-4.9-.048-.494-.073-.743-.121-1.242a.479.479,0,0,0,.12-.1,2.831,2.831,0,0,1,.39-.221l.69-.312c.816-.409,1.224-.613,2.039-1.023q.062-.006.114-.006c.251,0,.367.106.367.318a1.162,1.162,0,0,1-.33.545,2.307,2.307,0,0,0-.45.617,4.7,4.7,0,0,0-.509,1.635,23.244,23.244,0,0,0-.148,3.009c0,3.466.755,4.758,2.664,4.758q.163,0,.339-.012a9.135,9.135,0,0,0,3.629-1.361c0-2.618,0-3.9,0-6.482,0-1.145-.24-1.811-.69-2h0a.134.134,0,0,1-.117-.108.583.583,0,0,1,.361-.577l.179-.079c.06-.036.51-.262,1.38-.742l.84-.446h.025m0-4c-.136,0-.3.008-.432.022a3.985,3.985,0,0,0-1.47.447l-.7.373-.139.074-.051.028c-.562.309-.939.507-1.138.612l-.062.033-.032.014c-.043.018-.086.038-.128.058a4.86,4.86,0,0,0-.524.294,4.4,4.4,0,0,0-2.855-1.025,5.189,5.189,0,0,0-.525.027,3.994,3.994,0,0,0-1.384.405l-1.966.986-.615.278c-.054.024-.107.05-.159.076a6.166,6.166,0,0,0-1.028.624q-.107.083-.207.171a4,4,0,0,0-1.45,3.484l.1,1-.109,4.535,0,.12a10.263,10.263,0,0,0,1.771,6.587,7.209,7.209,0,0,0,5.928,2.77c.188,0,.382-.006.58-.017a5.4,5.4,0,0,0,2.3-.727,4,4,0,0,0,3.494.643A8.745,8.745,0,0,0,794.987,433c.846-.555,2.827-1.854,2.826-4.319a3.846,3.846,0,0,0-.022-.415l-.009-.086,0-.045-.084-2.871.026-3.6v-.012l.086-2.639a6.006,6.006,0,0,1,.159-1.1l.029-.119a3.976,3.976,0,0,0,.115-.953,4.742,4.742,0,0,0-4.666-4.559Z" fill="#fff"/><path d="M805.556,431.681a2.424,2.424,0,0,1-1.7-.693,2.471,2.471,0,0,1-.433-.476,4.707,4.707,0,0,1-2.079.659q-.317.018-.615.018a6.208,6.208,0,0,1-4.9-1.947,8.013,8.013,0,0,1-1.671-5.432,10.76,10.76,0,0,1,2.314-7.049,9,9,0,0,1,6.3-3.28c.064-.006.129-.009.194-.009l.421.007.009-.892c0-1.4-.069-2.855-.2-4.309l-.031-.356h0c-.044-.54.037-2.07,2.248-2.6l.26-.069c.044-.011.088-.022.133-.03a4.531,4.531,0,0,0,.52-.162c.264-.087.513-.176.835-.314.04-.017.081-.032.122-.047l1.09-.38a2.009,2.009,0,0,1,1.135-.052,2.3,2.3,0,0,1,1.91,2.279,2.6,2.6,0,0,1-1.449,2.141c-.023.016-.04.029-.055.041a19.328,19.328,0,0,0-.235,3.841c0,1.319-.022,2.8-.048,4.511l-.1,7.6c.032,0,.066,0,.1,0a2.033,2.033,0,0,1,.418.044,2.761,2.761,0,0,1,.791.309,2.336,2.336,0,0,1,.509.385,2.374,2.374,0,0,1,.642,1.682c0,1.112-.694,1.968-2.063,2.545l-.779.343a13.283,13.283,0,0,0-1.668.883l-.865.522a1.989,1.989,0,0,1-.93.285C805.649,431.679,805.59,431.681,805.556,431.681Zm-3.25-12.09a5.417,5.417,0,0,0-.555.019c-1.34.132-1.618.16-1.617,2.384a4.049,4.049,0,0,0,.517,2.271,1.229,1.229,0,0,0,1.127.469c.069,0,.139,0,.21-.007a2.279,2.279,0,0,0,1.164-.376,12.375,12.375,0,0,0,.1-1.239l.079-3.463c-.227-.021-.537-.042-.956-.059Z" fill="#fff"/><path d="M809.023,406.213c.27.067.39.115.39.337,0,.084-.2.231-.57.485a2.012,2.012,0,0,0-.78.9,17.62,17.62,0,0,0-.389,4.637c0,1.492-.029,3.19-.059,5.195-.035,2.8-.052,4.231-.087,7.221,0,1.428.147,2.168.467,2.168h.014a4.343,4.343,0,0,0,.96-.231l.66-.246a.982.982,0,0,1,.27.119.423.423,0,0,1,.09.3c0,.239-.269.462-.84.7l-.809.356a15.176,15.176,0,0,0-1.891,1l-.869.525h-.025a.488.488,0,0,1-.366-.185.494.494,0,0,1-.21-.33l.03-.239c.09-.852.15-1.354.15-1.554v-.166c-.012-.345-.019-.517-.031-.859l-.66.7c-1.29,1.376-2.37,2.072-3.24,2.121-.172.01-.34.015-.5.015a4.29,4.29,0,0,1-3.4-1.269,6.092,6.092,0,0,1-1.172-4.111,8.794,8.794,0,0,1,1.857-5.776,7.043,7.043,0,0,1,4.951-2.561l2.4.036c.011-1.17.017-1.75.028-2.9,0-1.379-.061-2.884-.212-4.512-.011-.137-.017-.206-.029-.343q-.045-.3.72-.481l.3-.078a7.954,7.954,0,0,0,.87-.259c.209-.07.51-.177.9-.343.432-.152.648-.228,1.081-.377m-7.244,20.521c.114,0,.23,0,.349-.012,1.41-.1,2.67-.814,2.939-1.711a11.64,11.64,0,0,0,.18-1.821c.047-2.1.071-3.127.119-5.148-.271-.066-.605-.164-1.052-.267a11.158,11.158,0,0,0-1.86-.184h-.149c-.25,0-.5,0-.751.029-2.521.248-3.421,1.29-3.42,4.375a5.819,5.819,0,0,0,.9,3.449,3.229,3.229,0,0,0,2.743,1.29m7.244-24.521a3.984,3.984,0,0,0-1.309.22c-.439.152-.659.229-1.1.384-.083.029-.164.06-.244.094-.208.089-.4.163-.588.225l-.106.035c-.115.038-.223.077-.32.105-.065.013-.129.028-.193.045l-.269.07a4.416,4.416,0,0,0-3.728,4.7h0l.024.28.006.065q.152,1.635.186,3.229a10.955,10.955,0,0,0-6.457,3.824,12.7,12.7,0,0,0-2.77,8.322,9.918,9.918,0,0,0,2.169,6.752,8.14,8.14,0,0,0,6.4,2.626q.356,0,.73-.021a6.2,6.2,0,0,0,1.556-.292,4.409,4.409,0,0,0,2.544.805c.069,0,.162,0,.231-.006a4,4,0,0,0,1.861-.57l.875-.53a11.622,11.622,0,0,1,1.361-.728l.066-.028.786-.346c2.831-1.207,3.254-3.257,3.254-4.375a4.4,4.4,0,0,0-1.194-3.059,4.031,4.031,0,0,0-.992-.759c-.074-.041-.159-.087-.253-.134.021-1.837.038-3.179.065-5.328l.013-.835c.025-1.665.047-3.1.046-4.411,0-1.366.048-2.216.1-2.728a4.162,4.162,0,0,0,1.642-3.3,4.3,4.3,0,0,0-3.43-4.217,4,4,0,0,0-.96-.117Z" fill="#fff"/><path d="M816.266,430.558c-4.395,0-7.348-3.446-7.351-8.575a10.349,10.349,0,0,1,2.114-6.621,8.534,8.534,0,0,1,6.141-3.194c.288-.023.571-.035.846-.035,4.461,0,7.231,3.131,7.231,8.173a11.094,11.094,0,0,1-2.308,6.867,8.287,8.287,0,0,1-6.25,3.374C816.547,430.554,816.405,430.558,816.266,430.558Zm.4-12.871c-.671.057-1.59.134-1.589,2.859a5.407,5.407,0,0,0,.939,3.246c.644.886,1.124.886,1.329.886a1.263,1.263,0,0,0,1.127-.72,3.955,3.955,0,0,0,.587-2.166c0-.965-.159-4.115-2.178-4.115C816.81,417.677,816.738,417.681,816.665,417.687Z" fill="#fff"/><path d="M818.015,414.133c3.234,0,5.232,2.071,5.232,6.173a9.07,9.07,0,0,1-1.889,5.643,6.267,6.267,0,0,1-4.77,2.6c-.108,0-.216.008-.322.008-3.293,0-5.349-2.66-5.351-6.576a8.427,8.427,0,0,1,1.679-5.375,6.487,6.487,0,0,1,4.742-2.445c.232-.02.459-.029.679-.029m-.672,12.545c.068,0,.136,0,.205-.006a3.239,3.239,0,0,0,2.61-1.638,5.96,5.96,0,0,0,.9-3.242c0-3.919-1.662-6.115-4.178-6.115-.126,0-.254.006-.384.017-2.281.193-3.421,1.742-3.42,4.853a7.356,7.356,0,0,0,1.321,4.419,3.6,3.6,0,0,0,2.946,1.712m.673-16.545h0c-.33,0-.671.014-1.012.042a10.488,10.488,0,0,0-7.54,3.943,12.3,12.3,0,0,0-2.548,7.865c0,6.226,3.847,10.575,9.351,10.575.174,0,.35,0,.528-.014a10.231,10.231,0,0,0,7.726-4.146,13.078,13.078,0,0,0,2.727-8.093c0-6.179-3.624-10.172-9.231-10.172Zm-.789,9.152Z" fill="#fff"/><path d="M830.359,430.614a2,2,0,0,1-.919-.224l-.2-.1a2.007,2.007,0,0,1-1.042-1.339l-.063-.282a2.005,2.005,0,0,1,.088-1.147,2.568,2.568,0,0,1,.209-.416c.062-.138.151-.3.255-.483.021-.034.076-.126.1-.159a1.08,1.08,0,0,0,.128-.23,31.046,31.046,0,0,0,.195-4.459c0-2.046,0-3.879.031-5.545.022-2.977.034-4.481.054-6.845a3.334,3.334,0,0,1-1.047.251l-.1,0a2,2,0,0,1-.716-.133l-.172-.065a2,2,0,0,1-1.224-1.356l-.061-.227a2,2,0,0,1-.067-.517c0-1.708,1.708-2.345,2.351-2.584l.211-.088A21.607,21.607,0,0,1,832.8,403.3a22.781,22.781,0,0,1,4.048-.484c.184,0,.367-.007.546-.007a12.429,12.429,0,0,1,5.739,1.182,6.025,6.025,0,0,1,3.386,5.66,9.008,9.008,0,0,1-3.387,6.951,11.972,11.972,0,0,1-7.415,2.849l-.158.006c-.007.914-.014,1.918-.022,3.062,0,.333,0,.61.01.843a4.677,4.677,0,0,1,1.325-.3l.083,0a2,2,0,0,1,1.328.505,2.458,2.458,0,0,1,.764,1.275l.061.374a1.947,1.947,0,0,1,.027.323c0,.6-.237,2.066-2.421,2.677-.037.011-.074.02-.112.028-.19.042-.391.086-.6.114l-.3.109a30.6,30.6,0,0,0-4.015,1.725l-.47.224A2.014,2.014,0,0,1,830.359,430.614Zm5.355-22.572c-.027.464-.057,1.39-.085,2.846-.011,1.276-.021,2.377-.029,3.447l.073,0a3.772,3.772,0,0,0,3.907-3.986c0-1.361-.446-1.8-.594-1.938a2.91,2.91,0,0,0-2.115-.655l-.184,0a4.807,4.807,0,0,0-.959.117Z" fill="#fff"/><path d="M837.4,404.811a10.457,10.457,0,0,1,4.817.957,4.034,4.034,0,0,1,2.309,3.884,7.021,7.021,0,0,1-2.7,5.446,10.018,10.018,0,0,1-6.21,2.358c-.061,0-.119,0-.175,0-.57,0-.844-.179-.844-.556a.75.75,0,0,1,.09-.449l.389-.086.72-.043a5.769,5.769,0,0,0,5.792-5.982,4.468,4.468,0,0,0-1.2-3.372,4.825,4.825,0,0,0-3.509-1.221c-.08,0-.16,0-.241,0-1.441.04-2.612.477-2.822,1-.036.445-.054.671-.09,1.132-.03.513-.06,1.464-.09,2.96-.036,4.124-.054,6.429-.09,11.659a9.582,9.582,0,0,0,.21,2.654.9.9,0,0,0,.91.479h.079a3.928,3.928,0,0,0,1.139-.271,4.41,4.41,0,0,1,1.08-.3l.119.106.06.37c0,.336-.33.575-.959.752a3.921,3.921,0,0,1-.57.1,4.87,4.87,0,0,0-.509.172,32.95,32.95,0,0,0-4.289,1.835l-.45.214-.21-.108-.06-.268c.031-.078.109-.166.15-.276a3.311,3.311,0,0,1,.211-.392,2.658,2.658,0,0,0,.42-.929,33.663,33.663,0,0,0,.239-4.867c0-2.034,0-3.855.03-5.51.024-3.258.036-4.753.06-7.509v-.783a2.642,2.642,0,0,0-.12-.635c-.084-.3-.177-.512-.378-.512h-.013a4.678,4.678,0,0,0-1.529.423,5.789,5.789,0,0,1-1.111.389l-.18-.069-.06-.229c0-.231.36-.454,1.05-.71l.27-.112a19.891,19.891,0,0,1,4.082-1.257,20.631,20.631,0,0,1,3.691-.443c.167,0,.332-.006.494-.006m0-4c-.2,0-.395,0-.6.008a24.7,24.7,0,0,0-4.407.525,23.806,23.806,0,0,0-4.843,1.5l-.16.066c-2.958,1.128-3.581,3.029-3.581,4.431a4.006,4.006,0,0,0,.134,1.028l.054.2a4.036,4.036,0,0,0,2.452,2.738l.179.068a3.918,3.918,0,0,0,.548.164c-.011,1.361-.021,2.7-.036,4.694-.03,1.651-.03,3.54-.03,5.54,0,2.173-.079,3.3-.131,3.81l-.017.029c-.088.151-.2.339-.307.567a4.425,4.425,0,0,0-.3.62,4,4,0,0,0-.172,2.309l.018.079.041.183a4,4,0,0,0,2.083,2.7l.2.1a4,4,0,0,0,3.548.055l.07-.034.379-.18a31.267,31.267,0,0,1,3.783-1.635c.067-.021.133-.044.2-.069.19-.033.36-.07.5-.1.076-.016.167-.039.241-.059a4.815,4.815,0,0,0,3.881-4.6,3.965,3.965,0,0,0-.052-.643l-.061-.376a4,4,0,0,0-1.28-2.333l-.111-.1a4.059,4.059,0,0,0-1.67-.9,13.419,13.419,0,0,0,6.487-3.086,10.93,10.93,0,0,0,4.072-8.457,8.014,8.014,0,0,0-4.464-7.435,14.179,14.179,0,0,0-6.662-1.408Z" fill="#fff"/><path d="M844.949,429.218a4.522,4.522,0,0,1-3.333-1.394,4.85,4.85,0,0,1-1.27-3.365,7.113,7.113,0,0,1,2.916-5.657,15.489,15.489,0,0,1,5.273-2.578.982.982,0,0,0-.065-.169s-.092,0-.16,0a5.922,5.922,0,0,0-1.346.24l-.115.034c-.282.081-.459.132-.776.233a2,2,0,0,1-1.729-.253,2.243,2.243,0,0,1-.941-1.409l-.024-.143a1.987,1.987,0,0,1-.028-.336,3.828,3.828,0,0,1,2.714-3.673,10.791,10.791,0,0,1,3.14-.474c.145,0,.284-.008.421-.008a5.359,5.359,0,0,1,3.89,1.288c1.365,1.309,1.477,3.394,1.422,5.065l-.123,4.4a5.071,5.071,0,0,0,.238,1.872,1.109,1.109,0,0,0,.153.294l.376.1a2.438,2.438,0,0,1,2.168,2.377c.038.874-.373,2.086-2.55,2.87a6.9,6.9,0,0,1-2.168.5h0a4.078,4.078,0,0,1-3.351-1.575,9.074,9.074,0,0,1-.813.554,7.736,7.736,0,0,1-3.764,1.212Zm3.227-7.508c-1.09.654-1.207,1.185-1.219,1.445a1.682,1.682,0,0,0,1.044-.926,4.856,4.856,0,0,0,.291-.587Z" fill="#fff"/><path d="M849.627,412.264a3.531,3.531,0,0,1,2.5.73c.6.575.869,1.7.807,3.555-.048,1.714-.073,2.594-.122,4.409a6.992,6.992,0,0,0,.358,2.61,2.628,2.628,0,0,0,1.138,1.438l.9.249h.017a.466.466,0,0,1,.523.487c.013.292-.429.617-1.23.906a5.318,5.318,0,0,1-1.531.377h-.056c-1.376,0-2.2-.985-2.521-3.136a10.128,10.128,0,0,1-2.582,2.4,5.779,5.779,0,0,1-2.79.925h-.092a2.561,2.561,0,0,1-2.605-2.758,5.109,5.109,0,0,1,2.161-4.092,15.153,15.153,0,0,1,6.152-2.627v-.373c0-2.289-.781-3.316-2.348-3.316-.056,0-.112,0-.17,0a7.861,7.861,0,0,0-1.711.309c-.384.111-.576.165-.96.287l-.09-.059c-.011-.077-.017-.106-.029-.175a1.844,1.844,0,0,1,1.41-1.8,9.249,9.249,0,0,1,2.522-.35q.177-.006.345-.006m-2.935,12.918h.061a3.482,3.482,0,0,0,2.972-1.938,7.736,7.736,0,0,0,.991-3.955v-.312c-.012-.138-.018-.207-.029-.345A12.127,12.127,0,0,0,847.147,420a3.794,3.794,0,0,0-2.192,3.242,2.052,2.052,0,0,0,.509,1.421,1.592,1.592,0,0,0,1.228.524m2.935-16.918c-.161,0-.326,0-.5.009a12.632,12.632,0,0,0-3.7.574l-.064.023a5.809,5.809,0,0,0-4.019,5.546,3.964,3.964,0,0,0,.057.671l.012.075a4.139,4.139,0,0,0,.822,1.9c-.076.057-.15.115-.223.173a9.007,9.007,0,0,0-3.673,7.223,6.844,6.844,0,0,0,1.818,4.739,6.5,6.5,0,0,0,4.787,2.02l.208,0a9.482,9.482,0,0,0,4.3-1.247,6.3,6.3,0,0,0,3.473,1.058l.134,0a8.7,8.7,0,0,0,2.81-.613c3.625-1.308,3.914-3.821,3.869-4.842a4.437,4.437,0,0,0-2.93-4.04c-.007-.129-.009-.277,0-.447.049-1.829.074-2.707.123-4.419.063-1.9-.078-4.676-2.036-6.555a7.332,7.332,0,0,0-5.274-1.844Z" fill="#fff"/><path d="M858.622,429.211a2.009,2.009,0,0,1-.773-.155l.773-1.845-.816,1.826a2.075,2.075,0,0,1-1.262-1.651l-.029-.272a1.843,1.843,0,0,1-.006-.364l.024-.318c0-.515.032-1.566.073-3.061l.021-.726c.035-1.262.061-2.285.061-3.016l0-3.016a1.966,1.966,0,0,1-.488.061,1.993,1.993,0,0,1-1.035-.289l-.21-.127a2,2,0,0,1-.943-1.418l-.043-.282a3.218,3.218,0,0,1-.039-.415c.007-1.654,1.589-2.219,2.108-2.4l.706-.247c.189-.073.388-.145.544-.2l.156-.057c.15-.069.559-.261,1.212-.58l1.113-.522a2,2,0,0,1,.843-.186,2.046,2.046,0,0,1,.322.026l.3.048a2,2,0,0,1,1.2.675,5.2,5.2,0,0,1,2.572-.81h.017a2.007,2.007,0,0,1,1.079.316l.138.09a2.028,2.028,0,0,1,.89,1.436l.032.284a2.009,2.009,0,0,1,.012.219v1.522a2.7,2.7,0,0,1-2.515,2.733l-.906.05a2.922,2.922,0,0,0-.631.087c-.012.04-.025.088-.041.144a9.259,9.259,0,0,0-.113,1.48l-.2,5.019c-.028.81-.058,1.687-.112,2.609a2.022,2.022,0,0,1-.063.394c-.216.819-.86,1.323-1.745,1.945a3.924,3.924,0,0,1-2.207,1Z" fill="#fff"/><path d="M865.026,411.886l.12.079.03.266c0,.6,0,.9,0,1.519a.7.7,0,0,1-.691.744l-.84.045a2.913,2.913,0,0,0-2.042.71,2.3,2.3,0,0,0-.451,1,10.088,10.088,0,0,0-.181,1.941c-.074,1.82-.11,2.751-.184,4.674-.031.887-.062,1.863-.122,2.9-.03.115-.342.383-.961.818a3.768,3.768,0,0,1-1.081.634l-.089-.038-.03-.273.03-.388c0-.542.039-1.867.093-3.812.036-1.284.061-2.327.062-3.071,0-.723,0-1.081,0-1.789,0-.875,0-1.306,0-2.159-.088-1.033-.38-1.553-.877-1.553h-.021a2.13,2.13,0,0,0-.51.048c-.114.04-.271.14-.481.246l-.6.251-.21-.127-.06-.4c0-.2.271-.348.781-.53.276-.1.414-.146.691-.242.39-.149.659-.238.81-.3,0,0,.45-.205,1.321-.63.432-.2.648-.306,1.079-.506l.3.048.119.159-.029.378c-.013.3-.019.455-.031.763s0,.413,0,.788c.012.24.018.361.03.6a8.251,8.251,0,0,1,1.8-1.833,4.086,4.086,0,0,1,2.221-.967m0-4h-.036a6.5,6.5,0,0,0-2.367.492,4.01,4.01,0,0,0-1.075-.333l-.3-.048a4.059,4.059,0,0,0-.632-.05,4,4,0,0,0-1.684.372c-.442.2-.662.308-1.1.517l-.046.022c-.55.269-.92.443-1.1.528l-.06.022c-.155.055-.351.125-.587.215l-.646.226c-3,1.073-3.452,3.155-3.453,4.3a3.982,3.982,0,0,0,.046.607l.06.39a4,4,0,0,0,1.893,2.828l.2.122a4,4,0,0,0,.555.279v1.25c0,.674-.024,1.633-.061,2.963l-.013.5c-.044,1.574-.075,2.662-.08,3.259l-.019.244a3.936,3.936,0,0,0,.012.752l.009.08.021.191a4,4,0,0,0,2.428,3.252l.047.02a4.222,4.222,0,0,0,1.6.329h.041A5.778,5.778,0,0,0,862,429.85a5.557,5.557,0,0,0,2.529-3.072,3.949,3.949,0,0,0,.125-.786c.056-.966.088-1.882.118-2.725l.009-.268c.071-1.863.108-2.794.178-4.533a4.669,4.669,0,0,0,4.213-4.713v-1.519a3.944,3.944,0,0,0-.025-.448l-.018-.16-.012-.108a4,4,0,0,0-1.782-2.9l-.122-.081a4.014,4.014,0,0,0-2.191-.653Z" fill="#fff"/><path d="M876.743,428.97a4.089,4.089,0,0,1-3.33-1.7,8.427,8.427,0,0,1-.81.525,7.636,7.636,0,0,1-3.767,1.094,4.689,4.689,0,0,1-4.711-4.87,7.071,7.071,0,0,1,2.935-5.685,14.457,14.457,0,0,1,5.263-2.439.914.914,0,0,0-.137-.338h0a1.633,1.633,0,0,0-.272-.024h0a6.24,6.24,0,0,0-1.279.167l-.131.029c-.252.057-.415.093-.7.175a2,2,0,0,1-1.755-.329,2.273,2.273,0,0,1-.862-1.378c0-.009-.017-.091-.019-.1a2.119,2.119,0,0,1-.031-.355,3.633,3.633,0,0,1,2.819-3.549,10.5,10.5,0,0,1,2.887-.312h.247a5.87,5.87,0,0,1,4.225,1.4c1.355,1.322,1.465,3.441,1.41,5.14l-.122,4.5a5.278,5.278,0,0,0,.241,1.924,1.16,1.16,0,0,0,.189.352l.377.119a2.472,2.472,0,0,1,2.128,2.388c.04.9-.383,2.122-2.618,2.839a7.015,7.015,0,0,1-2.115.413h-.059Zm-4.816-7.591c-1.191.683-1.192,1.275-1.192,1.5v.024c.271-.029.646-.174,1.055-.859a4.407,4.407,0,0,0,.369-.791C872.08,421.292,872,421.335,871.927,421.379Z" fill="#fff"/><path d="M872.842,411.887h.224a4.065,4.065,0,0,1,2.85.836c.6.584.869,1.724.807,3.643-.049,1.772-.074,2.672-.123,4.514a7.218,7.218,0,0,0,.358,2.651,2.758,2.758,0,0,0,1.14,1.483l.9.283a.488.488,0,0,1,.54.5c.013.289-.428.593-1.23.85a5.445,5.445,0,0,1-1.5.318h-.026c-1.411-.022-2.25-1.017-2.579-3.225a9.574,9.574,0,0,1-2.583,2.316,5.651,5.651,0,0,1-2.778.833h-.014a2.665,2.665,0,0,1-2.7-2.868,5.073,5.073,0,0,1,2.163-4.108,14.026,14.026,0,0,1,6.154-2.436V417.1c0-2.456-.837-3.548-2.518-3.558H871.9a8.1,8.1,0,0,0-1.683.212c-.384.086-.576.126-.96.235l-.09-.068c-.012-.081-.017-.1-.029-.167,0-.819.48-1.352,1.411-1.641a8.817,8.817,0,0,1,2.3-.222m-2.281,13.023a3.335,3.335,0,0,0,2.947-1.844,7.71,7.71,0,0,0,.992-3.987v-.321l-.029-.356a11.282,11.282,0,0,0-3.543,1.243,3.71,3.71,0,0,0-2.193,3.23,2.164,2.164,0,0,0,.509,1.46,1.653,1.653,0,0,0,1.29.574h.026m2.281-17.023a12.234,12.234,0,0,0-3.417.382l-.065.02a5.658,5.658,0,0,0-4.226,5.458,4.026,4.026,0,0,0,.061.7l.014.074a4.007,4.007,0,0,0,.927,2.009c-.1.075-.2.152-.3.23a9,9,0,0,0-3.706,7.261,6.64,6.64,0,0,0,6.684,6.871,9.41,9.41,0,0,0,4.326-1.109,6.374,6.374,0,0,0,3.577,1.185h.09a8.858,8.858,0,0,0,2.725-.509c3.754-1.2,4.052-3.78,4.007-4.833a4.481,4.481,0,0,0-2.923-4.041A5.246,5.246,0,0,1,880.6,421l.123-4.526c.063-1.926-.078-4.729-2.012-6.617a7.845,7.845,0,0,0-5.6-1.972Z" fill="#fff"/><path d="M889.933,430.047a2.47,2.47,0,0,1-1.786-.874,2.621,2.621,0,0,1-.454-.626,4.292,4.292,0,0,1-1.991.521l-.112,0a6.531,6.531,0,0,1-5.482-2.711,10.611,10.611,0,0,1-1.522-6.1c0-3.459.881-6.212,2.476-7.75a8.109,8.109,0,0,1,5.839-2.2q.3,0,.6.016a1.859,1.859,0,0,1,.2.02l.128.019,0-.27a35.54,35.54,0,0,0-.2-3.744l-.028-.288a2.17,2.17,0,0,1,.425-1.551,2.839,2.839,0,0,1,2.079-1s.342-.041.382-.043a4.93,4.93,0,0,0,.541-.09c.259-.048.5-.1.823-.187.04-.01.081-.02.121-.028l1.083-.224a1.958,1.958,0,0,1,.4-.042,2,2,0,0,1,.618.1,2.3,2.3,0,0,1,1.772,2.246,2.364,2.364,0,0,1-1.561,2.1,17.494,17.494,0,0,0-.182,3.065c0,.906-.013,1.752-.032,2.892l-.029,1.894s-.1,8.018-.1,8.047c.033,0,.067,0,.1,0a1.987,1.987,0,0,1,.667.115,2.824,2.824,0,0,1,.737.4,2.3,2.3,0,0,1,.955,1.98c0,.674-.286,1.9-2.2,2.546l-.769.277a10.113,10.113,0,0,0-1.6.75l-.842.476a2.069,2.069,0,0,1-1,.267ZM885.6,416.036a1.618,1.618,0,0,0-.714.093c0,.006-.314.369-.316,2.307a6.3,6.3,0,0,0,.625,3.085,1.6,1.6,0,0,0,1.443.854h.009a1.9,1.9,0,0,0,.931-.193c.036-.274.079-.724.105-1.435l.093-4.361a10.9,10.9,0,0,0-1.229-.271c-.174-.024-.411-.06-.65-.072C885.79,416.039,885.691,416.036,885.6,416.036Z" fill="#fff"/><path d="M893.465,404.9c.27.088.39.144.39.344,0,.075-.2.186-.57.372a1.6,1.6,0,0,0-.781.713,13.517,13.517,0,0,0-.391,4.083c0,1.335-.031,2.533-.062,4.759-.038,3.111-.057,4.7-.1,7.965,0,1.586.15,2.407.48,2.424h.067a4.354,4.354,0,0,0,.893-.135l.661-.183a1.128,1.128,0,0,1,.269.16.522.522,0,0,1,.09.333c0,.255-.27.459-.84.651l-.81.291a11.935,11.935,0,0,0-1.892.883c-.348.195-.522.293-.87.491a.511.511,0,0,1-.39-.24.618.618,0,0,1-.21-.384l.03-.261c.091-.933.151-1.483.152-1.7v-.185c-.012-.384-.018-.575-.03-.956-.264.28-.4.421-.661.705-1.266,1.355-2.33,2.045-3.192,2.045h-.051a4.588,4.588,0,0,1-3.9-1.85,8.72,8.72,0,0,1-1.168-4.957c0-2.771.648-5.139,1.866-6.312a6.152,6.152,0,0,1,4.45-1.64c.164,0,.331,0,.5.013.961.146,1.441.221,2.4.375.012-1.046.018-1.562.03-2.58a37.677,37.677,0,0,0-.208-3.977l-.029-.3q-.045-.261.72-.341l.3-.036a8.067,8.067,0,0,0,.87-.136c.209-.039.51-.1.9-.208l1.08-.223m-6.741,19.48a2.742,2.742,0,0,0,2.772-1.553,13.931,13.931,0,0,0,.182-2c.049-2.336.074-3.479.123-5.732-.271-.119-.6-.285-1.051-.475a9.245,9.245,0,0,0-1.859-.467c-.3-.043-.6-.085-.9-.1-.136-.007-.268-.01-.395-.01-2.22,0-3.026,1.049-3.028,4.4a8.155,8.155,0,0,0,.9,4.1,3.583,3.583,0,0,0,3.09,1.842l.169,0m6.741-23.48a3.939,3.939,0,0,0-.809.083l-1.083.224c-.082.017-.164.036-.245.058-.2.056-.39.1-.576.134l-.094.018c-.122.023-.237.047-.34.061-.063,0-.126.011-.188.018l-.27.033a4.732,4.732,0,0,0-3.422,1.777,4.171,4.171,0,0,0-.82,2.967l.011.112.014.145q.1.923.144,1.832a9.948,9.948,0,0,0-6.111,2.709c-1.99,1.917-3.088,5.181-3.091,9.19a12.536,12.536,0,0,0,1.879,7.237,8.455,8.455,0,0,0,7.061,3.571c.059,0,.118,0,.178,0a5.863,5.863,0,0,0,1.353-.159,4.407,4.407,0,0,0,2.8,1.137l.149,0a3.994,3.994,0,0,0,1.978-.523c.34-.193.51-.289.85-.48a8.053,8.053,0,0,1,1.221-.583l.077-.027.768-.277a4.663,4.663,0,0,0,3.518-4.424,4.465,4.465,0,0,0-.969-2.837,3.981,3.981,0,0,0-.825-.773,5.007,5.007,0,0,0-.649-.4l.078-6.5c.01-.754.021-1.394.03-1.961.018-1.113.031-1.949.032-2.845,0-.862.025-1.471.054-1.892a3.967,3.967,0,0,0,1.688-3.278,4.31,4.31,0,0,0-3.155-4.148,3.967,3.967,0,0,0-1.235-.2Z" fill="#fff"/><path d="M897.561,429.944a2,2,0,0,1-1.394-.565,2.473,2.473,0,0,1-.786-1.773l-.058-1.526,0-8.546c0-.3,0-.555-.013-.764a2,2,0,0,1-.633-.166,2.541,2.541,0,0,1-1.543-2.346c0-.875.445-1.987,2.565-2.313l.9-.146c.916-.221,1.4-.335,2.337-.555a2.022,2.022,0,0,1,.457-.053,2,2,0,0,1,.779.159,2.468,2.468,0,0,1,1.7,2.295c0,.06,0,.12-.008.18l-.023.243c0,.208-.01.482-.022.86l-.1,3.529-.032,8.207a1.9,1.9,0,0,1-.037.377l-.091.461c-.009.05-.021.1-.035.15a2.319,2.319,0,0,1-1.618,1.594c-.67.229-1.009.346-1.685.585A2.02,2.02,0,0,1,897.561,429.944Zm.835-18.877c-.1,0-.194,0-.292-.011a3.871,3.871,0,0,1-2.359-1.018,3.318,3.318,0,0,1,2.4-5.761c.082,0,.165,0,.248.009a3.633,3.633,0,0,1,3.487,3.512A3.384,3.384,0,0,1,898.4,411.067Z" fill="#fff"/><path d="M898.142,406.277c.039,0,.077,0,.116,0a1.645,1.645,0,0,1,1.62,1.517,1.381,1.381,0,0,1-1.481,1.269c-.046,0-.093,0-.14,0a1.886,1.886,0,0,1-1.139-.478,1.409,1.409,0,0,1-.45-1.018,1.388,1.388,0,0,1,1.474-1.289m1.254,6.915c.33.139.48.29.48.453l-.03.325c0,.382-.031,1.037-.06,2.323-.025.838-.037,1.259-.062,2.106-.013,3.23-.019,4.872-.032,8.258-.036.184-.054.276-.091.461-.029.107-.149.171-.33.233-.684.233-1.026.352-1.71.593a.491.491,0,0,1-.18-.338c-.024-.643-.035-.963-.059-1.6,0-3.48,0-5.163,0-8.473a7.25,7.25,0,0,0-.239-2.41.9.9,0,0,0-.84-.447l-.42.047-.33.054a.542.542,0,0,1-.36-.52c0-.136.3-.249.87-.337l.99-.16c.96-.231,1.44-.345,2.4-.569m-1.254-10.915h0a5.3,5.3,0,0,0-4.59,8.234,4.159,4.159,0,0,0-2.416,3.745,4.626,4.626,0,0,0,.713,2.453,4.514,4.514,0,0,0,1.476,1.439l0,7.857c0,.05,0,.1,0,.149l.058,1.567a4.46,4.46,0,0,0,1.39,3.092,4,4,0,0,0,4.118.9c.669-.236,1-.352,1.673-.581a4.291,4.291,0,0,0,2.892-2.95c.027-.1.051-.2.07-.3l.083-.42a4.365,4.365,0,0,0,.083-.8l.032-8.208,0-.1.057-1.951c.014-.624.028-1.083.039-1.44.01-.333.018-.59.021-.793l0-.046.011-.113c.011-.124.017-.248.017-.373a4.4,4.4,0,0,0-1.022-2.783,5.111,5.111,0,0,0,1.024-3.062,5.637,5.637,0,0,0-5.356-5.51c-.127-.008-.254-.013-.38-.013Z" fill="#fff"/><path d="M906.856,430.358c-.3,0-.614-.011-.931-.034a14.825,14.825,0,0,1-2.615-.392l-.143-.037a10.485,10.485,0,0,1-1.732-.57c-1.629-.733-1.628-2.3-1.627-3.451v-1.618a1.925,1.925,0,0,1,.017-.263,2.559,2.559,0,0,1,2.052-2.359,6.71,6.71,0,0,1,1.359-8.291,6.536,6.536,0,0,1,3.957-1.217,9.089,9.089,0,0,1,1.171.078,12.527,12.527,0,0,1,2,.459c.9.272,2.77.838,2.77,2.665a3.874,3.874,0,0,1-.4,1.758,2.666,2.666,0,0,1-1.4,1.361,6.439,6.439,0,0,1,1.8,1.241,5.5,5.5,0,0,1,1.523,4.07,6.057,6.057,0,0,1-3.262,5.536A9.375,9.375,0,0,1,906.856,430.358Zm-2.133-6.584a2.19,2.19,0,0,1,.014.244v.244c0,.475,0,.737.913.807.094.008.189.011.283.011a3.739,3.739,0,0,0,1.692-.414,1.97,1.97,0,0,0,.476-.314l-1.342-.144A9.164,9.164,0,0,1,904.723,423.774Z" fill="#fff"/><path d="M907.193,414.126a7.323,7.323,0,0,1,.916.061,10.827,10.827,0,0,1,1.679.39c.889.269,1.35.5,1.35.751a1.91,1.91,0,0,1-.18.849c-.148.289-.27.414-.42.42l-.51-.215a8.329,8.329,0,0,0-2.789-.941,4.256,4.256,0,0,0-.529-.035c-1.238,0-2.051.632-2.051,1.811,0,1,.629,1.714,1.86,2.091a8.629,8.629,0,0,0,1.679.333,5.9,5.9,0,0,1,3.539,1.47,3.569,3.569,0,0,1,.929,2.647,4.037,4.037,0,0,1-2.219,3.781,7.428,7.428,0,0,1-3.59.819c-.257,0-.521-.01-.79-.029a12.841,12.841,0,0,1-2.25-.332,9.744,9.744,0,0,1-1.56-.5c-.341-.154-.45-.32-.45-1.627v-1.619c.057-.43.224-.658.474-.658l.036,0a.388.388,0,0,1,.3.129l.12.289v.244a2.625,2.625,0,0,0,2.76,2.8c.146.011.292.017.437.017a5.7,5.7,0,0,0,2.593-.63,2.709,2.709,0,0,0,1.74-2.5c0-.937-.51-1.429-1.8-1.571-.6-.066-.9-.1-1.5-.161-2.668-.281-3.958-1.5-3.958-3.838a4.081,4.081,0,0,1,1.41-3.426,4.583,4.583,0,0,1,2.774-.829m0-4a8.605,8.605,0,0,0-5.139,1.6,7.95,7.95,0,0,0-3.045,6.65,8.852,8.852,0,0,0,.309,2.378,4.78,4.78,0,0,0-1.476,2.972,4,4,0,0,0-.034.525v1.619c0,1.2,0,4.01,2.807,5.275a12.374,12.374,0,0,0,2.054.682l.133.035a16.8,16.8,0,0,0,2.982.453c.362.026.723.039,1.074.039a11.357,11.357,0,0,0,5.507-1.308,7.983,7.983,0,0,0,4.3-7.291,7.447,7.447,0,0,0-2.116-5.492l-.114-.111.081-.153a5.878,5.878,0,0,0,.621-2.675c0-2.2-1.41-3.737-4.19-4.579a14.339,14.339,0,0,0-2.329-.529,11.253,11.253,0,0,0-1.426-.094Z" fill="#fff"/><path d="M921.424,431.615c-.48,0-1.063-.035-1.734-.1-4.825-.491-7.823-3.969-7.823-9.076a9.831,9.831,0,0,1,2.033-6.264,6.044,6.044,0,0,1,4.852-2.312,8.477,8.477,0,0,1,1.5.14,6.777,6.777,0,0,1,3.706,1.9,5.7,5.7,0,0,1,1.658,4.1c0,2.569-2.869,3.625-6.694,4.377a2.226,2.226,0,0,0,1.669,1.061,4.054,4.054,0,0,0,.507.033h0a2.923,2.923,0,0,0,.856-.119,1.61,1.61,0,0,0,.819-.525l.328-.391a2.638,2.638,0,0,1,2-1.121l.078,0a2.012,2.012,0,0,1,.682.12,2.69,2.69,0,0,1,1.094.728,1.98,1.98,0,0,1,.34.548l.12.288a1.987,1.987,0,0,1,.154.768,4.14,4.14,0,0,1-.951,2.3,18.54,18.54,0,0,1-1.744,2.086,4.285,4.285,0,0,1-2.385,1.381A5.832,5.832,0,0,1,921.424,431.615Zm-2.667-12.59c0,.014-.045.058-.1.14-.021.033-.042.066-.061.1.044-.02.087-.041.128-.063a.557.557,0,0,0,.185-.132l.018-.015-.009-.008-.042-.009A.7.7,0,0,0,918.757,419.025Z" fill="#fff"/><path d="M918.752,415.86a6.533,6.533,0,0,1,1.142.108,4.783,4.783,0,0,1,2.638,1.342,3.689,3.689,0,0,1,1.08,2.693c0,1.211-2.428,2-7.256,2.8.27,2.6,1.8,4.355,3.988,4.622a6.258,6.258,0,0,0,.748.047,4.941,4.941,0,0,0,1.44-.2,3.6,3.6,0,0,0,1.769-1.155l.36-.428a.76.76,0,0,1,.51-.369.686.686,0,0,1,.269.162l.12.289a2.92,2.92,0,0,1-.6,1.168,17.292,17.292,0,0,1-1.559,1.855,2.317,2.317,0,0,1-1.29.777,3.907,3.907,0,0,1-.688.047c-.4,0-.91-.03-1.53-.093-3.748-.381-6.027-3.018-6.027-7.087a7.827,7.827,0,0,1,1.59-5.007,4.012,4.012,0,0,1,3.295-1.568m-2.129,5.754a6.453,6.453,0,0,0,3.031-.642,2.137,2.137,0,0,0,1.26-1.978,1.875,1.875,0,0,0-.48-1.265c-.15-.145-.269-.255-.36-.33a2.054,2.054,0,0,0-.84-.328,2.683,2.683,0,0,0-.479-.046,2.034,2.034,0,0,0-1.769,1.043,4.884,4.884,0,0,0-.75,2.736v.384l.03.42q.182.006.357.006m2.129-9.754a7.982,7.982,0,0,0-6.409,3.057,11.81,11.81,0,0,0-2.476,7.518c0,6.127,3.776,10.471,9.622,11.067.738.075,1.389.113,1.935.113a7.728,7.728,0,0,0,1.428-.116,6.33,6.33,0,0,0,3.51-2.018,20.181,20.181,0,0,0,1.9-2.284,5.992,5.992,0,0,0,1.3-3.429,3.99,3.99,0,0,0-.308-1.54l-.087-.208-.032-.078a3.976,3.976,0,0,0-.681-1.094,4.5,4.5,0,0,0-1.185-.957,5.046,5.046,0,0,0,.345-1.888,7.665,7.665,0,0,0-2.238-5.509,8.746,8.746,0,0,0-4.775-2.463,10.442,10.442,0,0,0-1.847-.171Z" fill="#fff"/></g></g><g id="Front_Text" data-name="Front Text"><g id="Dolls_in_Pseudo_Paradise-2" data-name="Dolls in Pseudo Paradise"><path d="M651.033,419.744c.03-.948.03-2.764.06-5.382.024-1.5.036-2.253.061-3.756-.684.047-1.027.068-1.711.108l-.57.013-.18-.116a.6.6,0,0,1-.09-.285c-.023-.248.48-.418,1.44-.509l.271-.026c2.55-.228,4.682-.41,6.419-.492a37.617,37.617,0,0,1,4.86.006,11.148,11.148,0,0,1,7.587,3.339,12.2,12.2,0,0,1,2.846,8.492,9.068,9.068,0,0,1-3.061,7.378,10.708,10.708,0,0,1-6.029,2.656,13.853,13.853,0,0,1-2.789.046c-1.32-.1-1.98-.151-3.3-.258-.42-.041-1.091-.118-1.979-.171-.5-.029-1.333-.065-2.4-.165-.3-.028-1.528-.049-3.718-.055l-.539,0-.15-.106-.06-.218c0-.27.45-.427,1.319-.472l1.38-.1C650.834,425.724,650.9,423.865,651.033,419.744Zm2.459-.143c-.036,2.684-.054,3.838-.091,6.337a9.153,9.153,0,0,0,.149,1.9,1.758,1.758,0,0,0,.391.8,4.524,4.524,0,0,0,1.768.832,16.5,16.5,0,0,0,2.909.537c3.179.328,5.717-.167,7.588-1.413,1.946-1.3,2.94-2.819,2.941-6.223,0-6.58-3.535-11.049-9.564-11.67a15.336,15.336,0,0,0-3.3-.032,9.577,9.577,0,0,0-2.55.584C653.637,414.607,653.589,416.281,653.492,419.6Z" fill="#231f20"/><path d="M685.84,427.807a4.573,4.573,0,0,1-1.89,3.816,7.012,7.012,0,0,1-4.77,1.3c-3.479-.173-5.668-2.219-5.667-5.452a6.114,6.114,0,0,1,1.681-4.263,5.335,5.335,0,0,1,4.738-1.856A6.279,6.279,0,0,1,685.84,427.807Zm-10.168-1.153a5.212,5.212,0,0,0,1.319,3.575,4.378,4.378,0,0,0,3.149,1.533,3.309,3.309,0,0,0,2.61-.867,2.981,2.981,0,0,0,.9-2.219c0-3.048-1.829-5.517-4.559-5.744C676.814,422.742,675.673,424.14,675.672,426.654Z" fill="#231f20"/><path d="M688.2,418.026c0-1.338-.06-2.879-.18-4.681l-.03-.405c-.03-.3.18-.472.6-.567l.629-.124c.21-.029.78-.23,1.769-.535.36-.123.54-.185.9-.31a.581.581,0,0,1,.24.158l.09.417-.06.073a6.451,6.451,0,0,0-.989.974c-.454.542-.711,3.177-.69,6.338.008,1.342.035,2.7.03,4.01-.016,3.95-.06,4.739-.06,4.665v1.394a8.264,8.264,0,0,0,.149,2.092.667.667,0,0,0,.63.414,4.133,4.133,0,0,0,.84-.088l.48-.1c.24.1.33.194.33.377,0,.114-.3.264-.9.405l-1.05.241a10.54,10.54,0,0,0-1.74.646c-.21.106-.449.188-.69.293a.936.936,0,0,1-.27.1.513.513,0,0,1-.51-.4l.031-.112a17.154,17.154,0,0,0,.479-4.507C688.213,425.277,688.207,423.085,688.2,418.026Z" fill="#231f20"/><path d="M694.973,418.315c0-1.348-.059-2.9-.18-4.726l-.03-.411c-.03-.3.18-.481.6-.583l.631-.134c.21-.033.779-.244,1.769-.566l.9-.326a.567.567,0,0,1,.239.157l.09.422-.059.075a6.451,6.451,0,0,0-.99,1c-.454.555-.709,3.225-.689,6.4.009,1.346.035,2.708.03,4.01-.014,3.94-.059,4.723-.059,4.649v1.38a7.95,7.95,0,0,0,.15,2.058.658.658,0,0,0,.63.4,4.371,4.371,0,0,0,.84-.1l.48-.105c.24.1.33.187.33.366,0,.112-.3.263-.9.409l-1.049.248a10.747,10.747,0,0,0-1.741.65c-.21.105-.45.188-.69.292a.982.982,0,0,1-.27.1.5.5,0,0,1-.509-.382l.029-.109a16.448,16.448,0,0,0,.48-4.424C694.992,425.591,694.986,423.406,694.973,418.315Z" fill="#231f20"/><path d="M702.66,433.48a13.081,13.081,0,0,1-1.56-.253c-.344-.085-.45-.171-.45-1v-1.044a.544.544,0,0,1,.811-.379c.047.075.071.112.119.187v.161c0,1.1.96,1.677,2.761,1.688a8.3,8.3,0,0,0,3.03-.537c1.16-.444,1.74-1.022,1.74-1.79,0-.651-.511-.964-1.8-.969-.6,0-.9,0-1.5-.008-2.67-.018-3.96-.784-3.961-2.526a4.313,4.313,0,0,1,1.41-3.093,4.974,4.974,0,0,1,3.689-1.442,9.108,9.108,0,0,1,1.68.206c.886.177,1.351.366,1.351.664a2.748,2.748,0,0,1-.181,1.022c-.148.36-.269.523-.42.557l-.509-.161a7.085,7.085,0,0,0-2.791-.657c-1.529-.007-2.58.872-2.579,1.9,0,.775.631,1.258,1.86,1.442a10.373,10.373,0,0,0,1.68.11,6.69,6.69,0,0,1,3.541.769,2.06,2.06,0,0,1,.93,1.848c0,1.22-.755,2.118-2.219,2.714a11.623,11.623,0,0,1-4.38.706A19.249,19.249,0,0,1,702.66,433.48Z" fill="#231f20"/><path d="M720.784,432.718c-.036.112-.054.169-.09.28-.03.065-.15.11-.33.156-.684.175-1.026.261-1.71.432-.121-.061-.181-.123-.181-.186-.024-.369-.036-.558-.06-.941,0-2.1,0-3.248,0-5.746a4.411,4.411,0,0,0-.241-1.85.924.924,0,0,0-.84-.381l-.42.106-.33.1a.538.538,0,0,1-.27-.219.738.738,0,0,1-.09-.352c0-.162.3-.33.869-.5l.99-.315c.961-.4,1.441-.6,2.4-1.009.33.122.48.283.48.478l-.03.391c0,.454-.029,1.331-.059,2.351-.024.666-.035.992-.059,1.63C720.8,429.569,720.8,430.684,720.784,432.718Zm.173-17.56a1.847,1.847,0,0,1-1.62,1.96,1.454,1.454,0,0,1-1.14-.526,2.166,2.166,0,0,1-.451-1.388,1.918,1.918,0,0,1,1.59-2.052A1.835,1.835,0,0,1,720.957,415.158Z" fill="#231f20"/><path d="M725.232,427.746c0-2.364-.632-3.5-1.862-3.454l-.33.076-.27.041a.522.522,0,0,1-.24-.117c-.024-.138-.036-.207-.061-.346.031-.033.09-.067.121-.1a2.264,2.264,0,0,1,.42-.269l.66-.279c.21-.1.479-.243.78-.414.15-.1.449-.274.869-.581l.241-.171c.21-.008.483.212.87.644a4.191,4.191,0,0,1,.841,1.506,12.815,12.815,0,0,1,2.942-1.578,8.305,8.305,0,0,1,2.43-.658,2.464,2.464,0,0,1,2.372,1.144,6.685,6.685,0,0,1,.75,3.9c-.059,1.717-.089,2.519-.148,4.011a.332.332,0,0,0,.149.357.815.815,0,0,0,.451.092l.51-.135.51-.114a.445.445,0,0,1,.18.082c.036.107.054.16.09.265,0,.156-.269.3-.84.437-.27.055-.69.161-1.2.313-.576.206-.864.307-1.44.508-.324.123-.486.184-.81.305l-.27-.052-.09-.165.06-.15a11.891,11.891,0,0,0,.629-4.132c0-3.113-1.082-4.975-3.213-4.863a4.713,4.713,0,0,0-2.881,1.434c0,.316,0,.473,0,.783.012.385.018.574.03.949-.011,1.448-.017,2.135-.029,3.435-.036,1-.053,1.48-.089,2.394-.684.192-1.026.287-1.71.473l-.18.026a.457.457,0,0,1-.18-.079c-.024-.117-.036-.175-.061-.294C725.233,431.069,725.232,430.024,725.232,427.746Z" fill="#231f20"/><path d="M750.257,431.453c-.212.036-.423.072-.575.081,0,0-.181.033-.515.122-1.242.28-2.665.7-4.331,1.195-.182.053-.273.079-.455.13l-.212-.054-.06-.147c.03-.044.109-.095.151-.159a2.159,2.159,0,0,1,.212-.229,1.39,1.39,0,0,0,.425-.557,13.5,13.5,0,0,0,.241-3.231c0-1.484,0-3,.03-4.508.023-2.979.035-4.621.059-8.227v-1.048a5.067,5.067,0,0,0-.121-.882c-.092-.454-.182-.75-.394-.737a3.743,3.743,0,0,0-1.544.6,4.5,4.5,0,0,1-1.119.536l-.182-.1-.06-.323c0-.329.362-.644,1.059-1.015l.272-.163a18.725,18.725,0,0,1,4.116-1.948,13.728,13.728,0,0,1,3.724-.772,7.945,7.945,0,0,1,5.361,1.39,6.207,6.207,0,0,1,2.334,5.221,7.437,7.437,0,0,1-2.724,6.087,11,11,0,0,1-6.268,2.313c-.7.057-1.03-.082-1.03-.445a.627.627,0,0,1,.09-.4l.394-.089.727-.059c3.634-.3,5.845-2.49,5.843-6.442a7.216,7.216,0,0,0-1.213-4.356,4.143,4.143,0,0,0-3.786-1.715c-1.453.09-2.634.79-2.845,1.561-.037.653-.055.974-.091,1.606-.03.7-.06,1.993-.09,3.746-.035,4.83-.053,6.914-.088,10.618a4.223,4.223,0,0,0,.212,1.777c.128.2.484.3,1,.267a5.983,5.983,0,0,0,1.15-.213,6.906,6.906,0,0,1,1.091-.237l.121.064c.024.094.036.141.061.235C751.227,431.16,750.894,431.321,750.257,431.453Z" fill="#231f20"/><path d="M759.625,431.621a12.207,12.207,0,0,1-1.56-.178c-.342-.071-.45-.159-.45-1.078v-1.157c.059-.335.239-.529.509-.549a.419.419,0,0,1,.3.054l.12.2v.18c0,1.228.961,1.8,2.76,1.686a7.562,7.562,0,0,0,3.03-.835c1.158-.6,1.738-1.327,1.738-2.215,0-.752-.511-1.066-1.8-.958l-1.5.125c-2.67.222-3.96-.5-3.961-2.42a4.688,4.688,0,0,1,1.409-3.352,5.817,5.817,0,0,1,3.688-1.676,9.668,9.668,0,0,1,1.68.022c.887.075,1.349.2,1.349.474a2.4,2.4,0,0,1-.179.946c-.148.342-.27.5-.419.545l-.51-.1a7.225,7.225,0,0,0-2.79-.328c-1.53.145-2.579,1.053-2.578,2.192,0,.854.63,1.323,1.859,1.407a9.454,9.454,0,0,0,1.681-.04,5.682,5.682,0,0,1,3.54.544,2.257,2.257,0,0,1,.93,2.044,3.748,3.748,0,0,1-2.217,3.363,10.28,10.28,0,0,1-4.379,1.1A17.294,17.294,0,0,1,759.625,431.621Z" fill="#231f20"/><path d="M776.153,428.906a6.041,6.041,0,0,0,2.19-.553,4.578,4.578,0,0,0,1.769-1.452l.36-.491a1.062,1.062,0,0,1,.51-.476.526.526,0,0,1,.27.092l.119.251a3.516,3.516,0,0,1-.6,1.264,17.981,17.981,0,0,1-1.558,2.06,2.831,2.831,0,0,1-1.29.931,10.252,10.252,0,0,1-2.221.3c-3.75.216-6.03-1.542-6.032-5.017a8.165,8.165,0,0,1,1.587-4.8,6.2,6.2,0,0,1,4.438-2.756,3.7,3.7,0,0,1,2.642.605,2.752,2.752,0,0,1,1.081,2.358c0,1.176-2.43,2.687-7.258,4.405A3.491,3.491,0,0,0,776.153,428.906Zm-.693-5.7a2.712,2.712,0,0,0,1.258-2.191,1.408,1.408,0,0,0-.481-1.106c-.149-.1-.269-.182-.359-.232a1.663,1.663,0,0,0-.84-.094,2.984,2.984,0,0,0-2.249,1.622,5.1,5.1,0,0,0-.749,2.671v.341l.03.366A8.271,8.271,0,0,0,775.46,423.207Z" fill="#231f20"/><path d="M788.8,429.161a12.328,12.328,0,0,1-2.189,1.1,3.36,3.36,0,0,1-3.091-1.173,6.51,6.51,0,0,1-.963-4.077c.047-1.945.071-2.92.118-4.9-.048-.494-.073-.743-.121-1.242a.479.479,0,0,0,.12-.1,2.831,2.831,0,0,1,.39-.221l.69-.312c.816-.409,1.224-.613,2.039-1.023.33-.034.481.071.481.312a1.162,1.162,0,0,1-.33.545,2.307,2.307,0,0,0-.45.617,4.7,4.7,0,0,0-.509,1.635,23.244,23.244,0,0,0-.148,3.009c0,3.664.843,4.9,3,4.746a9.135,9.135,0,0,0,3.629-1.361c0-2.618,0-3.9,0-6.482,0-1.145-.24-1.811-.69-2a.132.132,0,0,1-.121-.108.583.583,0,0,1,.361-.577l.179-.079c.06-.036.51-.262,1.38-.742l.84-.446c.24-.025.691.32.691.56l-.03.123a9.979,9.979,0,0,0-.27,1.889c-.035,1.092-.053,1.638-.088,2.734-.011,1.483-.017,2.226-.028,3.728.037,1.228.055,1.845.092,3.095l.029.28c0,.22-.335.523-1.019.972a5.332,5.332,0,0,1-1.26.665l-.12-.118-.031-.434v-1.207c.011-.371.018-.556.029-.925C790.368,428.255,789.846,428.56,788.8,429.161Z" fill="#231f20"/><path d="M804.468,427.053c-1.29,1.376-2.37,2.072-3.24,2.121a4.569,4.569,0,0,1-3.9-1.254,6.092,6.092,0,0,1-1.172-4.111,8.794,8.794,0,0,1,1.857-5.776,7.043,7.043,0,0,1,4.951-2.561l2.4.036c.011-1.17.017-1.75.028-2.9,0-1.379-.061-2.884-.212-4.512-.011-.137-.017-.206-.029-.343q-.045-.3.72-.481l.3-.078a7.954,7.954,0,0,0,.87-.259c.209-.07.51-.177.9-.343.432-.152.648-.228,1.081-.377.27.067.39.115.39.337,0,.084-.2.231-.57.485a2.012,2.012,0,0,0-.78.9,17.62,17.62,0,0,0-.389,4.637c0,1.492-.029,3.19-.059,5.195-.035,2.8-.052,4.231-.087,7.221,0,1.448.151,2.189.481,2.167a4.343,4.343,0,0,0,.96-.231l.66-.246a.982.982,0,0,1,.27.119.423.423,0,0,1,.09.3c0,.239-.269.462-.84.7l-.809.356a15.176,15.176,0,0,0-1.891,1l-.869.525a.478.478,0,0,1-.391-.184.494.494,0,0,1-.21-.33l.03-.239c.09-.852.15-1.354.15-1.554v-.166c-.012-.345-.019-.517-.031-.859Zm-.154-9.278a11.158,11.158,0,0,0-1.86-.184,8.72,8.72,0,0,0-.9.029c-2.521.248-3.421,1.29-3.42,4.375a5.819,5.819,0,0,0,.9,3.449,3.329,3.329,0,0,0,3.092,1.278c1.41-.1,2.67-.814,2.939-1.711a11.64,11.64,0,0,0,.18-1.821c.047-2.1.071-3.127.119-5.148C805.1,417.976,804.761,417.878,804.314,417.775Z" fill="#231f20"/><path d="M823.247,420.306a9.07,9.07,0,0,1-1.889,5.643,6.267,6.267,0,0,1-4.77,2.6c-3.481.178-5.671-2.526-5.673-6.568a8.427,8.427,0,0,1,1.679-5.375,6.487,6.487,0,0,1,4.742-2.445C820.967,413.859,823.247,415.924,823.247,420.306Zm-10.171.241a7.356,7.356,0,0,0,1.321,4.419,3.548,3.548,0,0,0,3.151,1.706,3.239,3.239,0,0,0,2.61-1.638,5.96,5.96,0,0,0,.9-3.242c0-4.115-1.832-6.33-4.562-6.1C814.215,415.887,813.075,417.436,813.076,420.547Z" fill="#231f20"/><path d="M836.177,426.3a3.921,3.921,0,0,1-.57.1,4.87,4.87,0,0,0-.509.172,32.95,32.95,0,0,0-4.289,1.835l-.45.214-.21-.108-.06-.268c.031-.078.109-.166.15-.276a3.311,3.311,0,0,1,.211-.392,2.658,2.658,0,0,0,.42-.929,33.663,33.663,0,0,0,.239-4.867c0-2.034,0-3.855.03-5.51.024-3.258.036-4.753.06-7.509v-.783a2.642,2.642,0,0,0-.12-.635c-.086-.3-.181-.521-.391-.512a4.678,4.678,0,0,0-1.529.423,5.789,5.789,0,0,1-1.111.389l-.18-.069-.06-.229c0-.231.36-.454,1.05-.71l.27-.112a19.891,19.891,0,0,1,4.082-1.257,20.631,20.631,0,0,1,3.691-.443,10.954,10.954,0,0,1,5.311.951,4.034,4.034,0,0,1,2.309,3.884,7.021,7.021,0,0,1-2.7,5.446,10.018,10.018,0,0,1-6.21,2.358c-.689.038-1.019-.137-1.019-.551a.75.75,0,0,1,.09-.449l.389-.086.72-.043a5.769,5.769,0,0,0,5.792-5.982,4.468,4.468,0,0,0-1.2-3.372,4.946,4.946,0,0,0-3.75-1.217c-1.441.04-2.612.477-2.822,1-.036.445-.054.671-.09,1.132-.03.513-.06,1.464-.09,2.96-.036,4.124-.054,6.429-.09,11.659a9.582,9.582,0,0,0,.21,2.654.93.93,0,0,0,.989.478,3.928,3.928,0,0,0,1.139-.271,4.41,4.41,0,0,1,1.08-.3l.119.106.06.37C837.136,425.879,836.806,426.118,836.177,426.3Z" fill="#231f20"/><path d="M847.832,426.292a5.779,5.779,0,0,1-2.79.925,2.563,2.563,0,0,1-2.7-2.757,5.109,5.109,0,0,1,2.161-4.092,15.153,15.153,0,0,1,6.152-2.627v-.373c0-2.371-.837-3.388-2.518-3.312a7.861,7.861,0,0,0-1.711.309c-.384.111-.576.165-.96.287l-.09-.059c-.011-.077-.017-.106-.029-.175a1.844,1.844,0,0,1,1.41-1.8,9.249,9.249,0,0,1,2.522-.35,3.83,3.83,0,0,1,2.849.724c.6.575.869,1.7.807,3.555-.048,1.714-.073,2.594-.122,4.409a6.992,6.992,0,0,0,.358,2.61,2.628,2.628,0,0,0,1.138,1.438l.9.249a.469.469,0,0,1,.54.487c.013.292-.429.617-1.23.906a5.318,5.318,0,0,1-1.531.377c-1.41.027-2.249-.955-2.577-3.135A10.128,10.128,0,0,1,847.832,426.292Zm-.685-6.3a3.794,3.794,0,0,0-2.192,3.242,2.052,2.052,0,0,0,.509,1.421,1.6,1.6,0,0,0,1.289.523,3.482,3.482,0,0,0,2.972-1.938,7.736,7.736,0,0,0,.991-3.955v-.312c-.012-.138-.018-.207-.029-.345A12.127,12.127,0,0,0,847.147,420Z" fill="#231f20"/><path d="M862.805,412.853a4.086,4.086,0,0,1,2.221-.967l.12.079.03.266c0,.6,0,.9,0,1.519a.7.7,0,0,1-.691.744l-.84.045a2.913,2.913,0,0,0-2.042.71,2.3,2.3,0,0,0-.451,1,10.088,10.088,0,0,0-.181,1.941c-.074,1.82-.11,2.751-.184,4.674-.031.887-.062,1.863-.122,2.9-.03.115-.342.383-.961.818a3.768,3.768,0,0,1-1.081.634l-.089-.038-.03-.273.03-.388c0-.542.039-1.867.093-3.812.036-1.284.061-2.327.062-3.071,0-.723,0-1.081,0-1.789,0-.875,0-1.306,0-2.159-.089-1.048-.388-1.567-.9-1.552a2.13,2.13,0,0,0-.51.048c-.114.04-.271.14-.481.246l-.6.251-.21-.127-.06-.4c0-.2.271-.348.781-.53.276-.1.414-.146.691-.242.39-.149.659-.238.81-.3,0,0,.45-.205,1.321-.63.432-.2.648-.306,1.079-.506l.3.048.119.159-.029.378c-.013.3-.019.455-.031.763s0,.413,0,.788c.012.24.018.361.03.6A8.251,8.251,0,0,1,862.805,412.853Z" fill="#231f20"/><path d="M871.614,426.061a5.639,5.639,0,0,1-2.792.833,2.665,2.665,0,0,1-2.7-2.868,5.073,5.073,0,0,1,2.163-4.108,14.026,14.026,0,0,1,6.154-2.436V417.1c0-2.456-.837-3.548-2.518-3.558a8.046,8.046,0,0,0-1.711.212c-.384.086-.576.126-.96.235l-.09-.068c-.012-.081-.017-.1-.029-.167,0-.819.48-1.352,1.411-1.641a9.421,9.421,0,0,1,2.521-.221,4.065,4.065,0,0,1,2.85.836c.6.584.869,1.724.807,3.643-.049,1.772-.074,2.672-.123,4.514a7.218,7.218,0,0,0,.358,2.651,2.758,2.758,0,0,0,1.14,1.483l.9.283a.488.488,0,0,1,.54.5c.013.289-.428.593-1.23.85a5.291,5.291,0,0,1-1.531.318c-1.411-.022-2.25-1.017-2.579-3.225A9.574,9.574,0,0,1,871.614,426.061Zm-.685-6.416a3.71,3.71,0,0,0-2.193,3.23,2.164,2.164,0,0,0,.509,1.46,1.653,1.653,0,0,0,1.29.574,3.329,3.329,0,0,0,2.973-1.843,7.71,7.71,0,0,0,.992-3.987v-.321l-.029-.356A11.282,11.282,0,0,0,870.929,419.645Z" fill="#231f20"/><path d="M888.9,425.023c-1.291,1.381-2.372,2.072-3.243,2.044a4.588,4.588,0,0,1-3.9-1.85,8.72,8.72,0,0,1-1.168-4.957c0-2.771.648-5.139,1.866-6.312a6.34,6.34,0,0,1,4.95-1.627c.961.146,1.441.221,2.4.375.012-1.046.018-1.562.03-2.58a37.677,37.677,0,0,0-.208-3.977l-.029-.3q-.045-.261.72-.341l.3-.036a8.067,8.067,0,0,0,.87-.136c.209-.039.51-.1.9-.208l1.08-.223c.27.088.39.144.39.344,0,.075-.2.186-.57.372a1.6,1.6,0,0,0-.781.713,13.517,13.517,0,0,0-.391,4.083c0,1.335-.031,2.533-.062,4.759-.038,3.111-.057,4.7-.1,7.965,0,1.586.15,2.407.48,2.424a3.9,3.9,0,0,0,.96-.134l.661-.183a1.128,1.128,0,0,1,.269.16.522.522,0,0,1,.09.333c0,.255-.27.459-.84.651l-.81.291a11.935,11.935,0,0,0-1.892.883c-.348.195-.522.293-.87.491a.511.511,0,0,1-.39-.24.618.618,0,0,1-.21-.384l.03-.261c.091-.933.151-1.483.152-1.7v-.185c-.012-.384-.018-.575-.03-.956C889.292,424.6,889.159,424.739,888.9,425.023Zm-.145-10.41a9.245,9.245,0,0,0-1.859-.467c-.3-.043-.6-.085-.9-.1-2.52-.123-3.421.847-3.423,4.389a8.155,8.155,0,0,0,.9,4.1,3.583,3.583,0,0,0,3.09,1.842c1.41.055,2.671-.587,2.941-1.55a13.931,13.931,0,0,0,.182-2c.049-2.336.074-3.479.123-5.732C889.53,414.969,889.2,414.8,888.75,414.613Z" fill="#231f20"/><path d="M899.692,426.657c-.036.184-.054.276-.091.461-.029.107-.149.171-.33.233-.684.233-1.026.352-1.71.593a.491.491,0,0,1-.18-.338c-.024-.643-.035-.963-.059-1.6,0-3.48,0-5.163,0-8.473a7.25,7.25,0,0,0-.239-2.41.9.9,0,0,0-.84-.447l-.42.047-.33.054a.542.542,0,0,1-.36-.52c0-.136.3-.249.87-.337l.99-.16c.96-.231,1.44-.345,2.4-.569.33.139.48.29.48.453l-.03.325c0,.382-.031,1.037-.06,2.323-.025.838-.037,1.259-.062,2.106C899.711,421.629,899.705,423.271,899.692,426.657Zm.186-18.859a1.406,1.406,0,0,1-1.621,1.264,1.886,1.886,0,0,1-1.139-.478,1.331,1.331,0,0,1,1.14-2.3A1.645,1.645,0,0,1,899.878,407.8Z" fill="#231f20"/><path d="M903.817,428a9.744,9.744,0,0,1-1.56-.5c-.341-.154-.45-.32-.45-1.627v-1.619c.059-.45.24-.679.51-.656a.388.388,0,0,1,.3.129l.12.289v.244a2.625,2.625,0,0,0,2.76,2.8,5.674,5.674,0,0,0,3.03-.613,2.709,2.709,0,0,0,1.74-2.5c0-.937-.51-1.429-1.8-1.571-.6-.066-.9-.1-1.5-.161-2.668-.281-3.958-1.5-3.958-3.838a4.081,4.081,0,0,1,1.41-3.426,4.992,4.992,0,0,1,3.69-.768,10.827,10.827,0,0,1,1.679.39c.889.269,1.35.5,1.35.751a1.91,1.91,0,0,1-.18.849c-.148.289-.27.414-.42.42l-.51-.215a8.329,8.329,0,0,0-2.789-.941c-1.53-.2-2.58.437-2.58,1.776,0,1,.629,1.714,1.86,2.091a8.629,8.629,0,0,0,1.679.333,5.9,5.9,0,0,1,3.539,1.47,3.569,3.569,0,0,1,.929,2.647,4.037,4.037,0,0,1-2.219,3.781,7.9,7.9,0,0,1-4.38.79A12.841,12.841,0,0,1,903.817,428Z" fill="#231f20"/><path d="M920.344,427.427a5.289,5.289,0,0,0,2.188-.158,3.6,3.6,0,0,0,1.769-1.155l.36-.428a.76.76,0,0,1,.51-.369.686.686,0,0,1,.269.162l.12.289a2.92,2.92,0,0,1-.6,1.168,17.292,17.292,0,0,1-1.559,1.855,2.317,2.317,0,0,1-1.29.777,9.28,9.28,0,0,1-2.218-.046c-3.748-.381-6.027-3.018-6.027-7.087a7.827,7.827,0,0,1,1.59-5.007,4.277,4.277,0,0,1,4.437-1.46,4.783,4.783,0,0,1,2.638,1.342,3.689,3.689,0,0,1,1.08,2.693c0,1.211-2.428,2-7.256,2.8C916.626,425.407,918.155,427.16,920.344,427.427Zm-.69-6.455a2.137,2.137,0,0,0,1.26-1.978,1.875,1.875,0,0,0-.48-1.265c-.15-.145-.269-.255-.36-.33a2.225,2.225,0,0,0-3.088.669,4.884,4.884,0,0,0-.75,2.736v.384l.03.42A6.745,6.745,0,0,0,919.654,420.972Z" fill="#231f20"/></g><path d="M73.116,904.635v-.689c-.03-.239-.06-.388-.06-.478l-.03-.6,3.41.06,6.759.059c1.525,0,3.02-.029,4.7-.059l1.436-.06v1.017L75.03,922.22h7.537c.329,0,.777,0,1.465-.03s1.2-.03,1.586-.03a3.418,3.418,0,0,0,2-.448,2.709,2.709,0,0,0,.568-1.466l.24-1.884H89.3l-.089,2.154-.121,2.272v.419l.031.419-4.846-.03-7.775-.06c-1.406,0-2.782.029-4.217.06H71.142v-.838l14.236-18.393H78.559l-2.033.06a3.924,3.924,0,0,0-1.974.329,7.026,7.026,0,0,0-.6,3.081h-.868l.03-.658v-2.542Z" fill="#231f20"/><path d="M108.007,914.923V906.7l-.09-1.136a3.171,3.171,0,0,0-.3-1.256,1.931,1.931,0,0,0-.957-.389l-1.5-.12v-.927l1.436.06,1.943.059,2.124-.059,1.5-.06v.927a11.681,11.681,0,0,0-1.406.12,1.574,1.574,0,0,0-.9.358,4.058,4.058,0,0,0-.478,2.213c-.03.39-.03.748-.03,1.2v7.177c0,3.618-.478,5.622-1.794,6.908-1.347,1.436-3.709,2.244-6.729,2.244-3.081,0-4.4-.628-5.2-1.107a4.278,4.278,0,0,1-2.153-2.752,11.871,11.871,0,0,1-.389-3.589V905.293c0-.568-.06-1.257-.987-1.376a9.545,9.545,0,0,0-1.675-.12v-.927l4.008.119,4.127-.119v.927l-1.405.09a1.347,1.347,0,0,0-.987.3,1.992,1.992,0,0,0-.3,1.077l-.09,1.256v10.5c0,2.183.748,3.858,2.632,4.546a9.562,9.562,0,0,0,3.349.6q3.321,0,4.846-1.525C107.559,919.8,108.007,918.152,108.007,914.923Z" fill="#231f20"/><path d="M117.33,902.9l.837-.03,1.046,1.466,1.705,2.242c1.675,2.153,2.722,3.5,4.068,5.085l3.888,4.785,3.29,3.948v-13.07l-.06-1.466a3.324,3.324,0,0,0-.3-1.614c-.119-.239-.628-.359-2.3-.359V902.87l.778.03,2.692.03,2.572-.03.628-.03v1.017l-1.226.059a1.412,1.412,0,0,0-.9.3,4.6,4.6,0,0,0-.508,2.571l-.06,2.393v14.774l-.239.06-2.123-.448L116.97,906.13v12.681c.09,3.678.12,3.558,1.017,3.709l1.645.059V923.6l-1.345-.031-2.094-.029-2.124.029-1.136.031v-1.047c1.346,0,2-.15,2.213-.419a4.123,4.123,0,0,0,.419-2.033l.06-1.974.03-5.593.059-7.716c-.9-1.226-1.585-.778-2.572-.957v-.987l.778.03,1.585.03Z" fill="#231f20"/><path d="M159.7,908.193l-.15-2.422a9.826,9.826,0,0,0-6.25-2.154,6.889,6.889,0,0,0-5.563,2.483,9.741,9.741,0,0,0-2.033,6.371c-.15,7.566,5.173,10.377,9.39,10.377a10.528,10.528,0,0,0,5.862-1.645l.3.15-.838,1.555a16.031,16.031,0,0,1-6.37,1.107,15.822,15.822,0,0,1-6.7-1.286,7.776,7.776,0,0,1-2.452-2.3,10.836,10.836,0,0,1-2.184-7.118,10.4,10.4,0,0,1,3.111-7.926c2.064-1.974,4.875-2.96,8.464-2.96a16.975,16.975,0,0,1,6.908,1.195,20.183,20.183,0,0,0-.628,2.932l-.089,1.644Z" fill="#231f20"/><path d="M174.383,911.424a7.071,7.071,0,0,1,1.764,4.934,8.1,8.1,0,0,1-.568,3.23,7.885,7.885,0,0,1-2.213,2.871,7.062,7.062,0,0,1-4.845,1.5c-2.063,0-3.439-.509-5.2-2.6a6.926,6.926,0,0,1-1.286-4.546,7.36,7.36,0,0,1,2.483-5.772c.986-1.047,2.691-1.586,5.054-1.586A6.114,6.114,0,0,1,174.383,911.424Zm-9.63,4.306a10.362,10.362,0,0,0,1.166,5.234,3.725,3.725,0,0,0,3.38,2c2.512,0,4.127-1.556,4.127-5.533,0-4.426-1.7-6.968-4.366-6.968S164.753,912.351,164.753,915.73Z" fill="#231f20"/><path d="M176.144,903.05a9.6,9.6,0,0,0,2.153-.39,22.308,22.308,0,0,0,2.392-.687l.539.209-.12,3.14v15.194c0,1.2.06,1.614.449,2a3.479,3.479,0,0,0,1.794.268v.808l-1.077-.031-2.661-.029-2.512.029-.928.031v-.808A4.32,4.32,0,0,0,178,922.52a1.249,1.249,0,0,0,.448-1.108V905.621a2.169,2.169,0,0,0-.328-1.435,3.475,3.475,0,0,0-1.974-.329Z" fill="#231f20"/><path d="M183.8,903.05a9.586,9.586,0,0,0,2.153-.39,22.334,22.334,0,0,0,2.393-.687l.538.209-.12,3.14v15.194c0,1.2.06,1.614.449,2a3.479,3.479,0,0,0,1.794.268v.808l-1.076-.031-2.662-.029-2.512.029-.928.031v-.808a4.32,4.32,0,0,0,1.825-.268,1.249,1.249,0,0,0,.448-1.108V905.621a2.169,2.169,0,0,0-.328-1.435,3.475,3.475,0,0,0-1.974-.329Z" fill="#231f20"/><path d="M194.952,910.2a6.243,6.243,0,0,1,2.9-.748,4.846,4.846,0,0,1,3.708,1.2,7.22,7.22,0,0,1,1.5,2.153,5.581,5.581,0,0,1,.388,2.183c-.029.15-.3.389-.778.718a8.131,8.131,0,0,1-1.285.628,3.3,3.3,0,0,1-1.107.18h-6.549a6.018,6.018,0,0,0,1.524,4.515,5.28,5.28,0,0,0,3.679,1.436,6.162,6.162,0,0,0,3.081-.718,4.685,4.685,0,0,0,.807-.538l.24.18-.3.508-.209.568a9.159,9.159,0,0,1-2.273,1.2,10.227,10.227,0,0,1-2.632.36,6.247,6.247,0,0,1-4.366-1.317,7.122,7.122,0,0,1-1.795-2.632,10.593,10.593,0,0,1-.418-3.05c0-2.363.538-4.1,1.615-5.174A7.835,7.835,0,0,1,194.952,910.2Zm-.389,1.645a6.489,6.489,0,0,0-.837,3.47l1.345.059,3.021.06,1.825-.03.867-.03v-1.315a3.321,3.321,0,0,0-.718-2.393,3.391,3.391,0,0,0-1.286-.957,3.991,3.991,0,0,0-1.346-.239A3.22,3.22,0,0,0,194.563,911.842Z" fill="#231f20"/><path d="M214.618,913.367a2.937,2.937,0,0,0-.478-1.465,5.082,5.082,0,0,0-3.111-.987c-2.6.239-3.947,1.106-4.037,4.815,0,2.542.478,4.157,2.153,5.682a4.437,4.437,0,0,0,3.021,1.108,7.573,7.573,0,0,0,3.439-.928l.27.239-.688,1.2a8.392,8.392,0,0,1-4.158.928,6.091,6.091,0,0,1-4.964-1.914,7.546,7.546,0,0,1-1.586-4.905c0-1.794.449-3.918,1.526-4.994a9.391,9.391,0,0,1,2.811-1.975,6.922,6.922,0,0,1,3.439-.718,6.5,6.5,0,0,1,2.124.239,4.169,4.169,0,0,1,1.406.569l-.419,3.8h-.748Z" fill="#231f20"/><path d="M218.725,906.817l-.06-.687,2.422-1.2.359.239-.119,1.4c0,.151-.031.658-.06,1.586s-.06,1.734-.06,2.542c1.2,0,2.333-.09,2.781-.12l1.167-.119-.15,1.525h-3.828v7.088a4.834,4.834,0,0,0,.508,2.661c.21.389.718.6,1.5.6l.986-.09.838-.149.18.419-.9.657-1.016.6-.659.09-.837.09a3.155,3.155,0,0,1-2.512-.808,5.437,5.437,0,0,1-.628-3.081v-8.074h-2.093v-.449l1.166-.479,1.046-.538Z" fill="#231f20"/><path d="M225.6,910.706a15.321,15.321,0,0,0,4.456-1.227l.449.18v10.916c0,1.076.059,1.526.418,1.914.209.209.837.3,1.914.3v.808l-1.764-.031-2.3-.029-1.974.029-1.166.031v-.808a3.474,3.474,0,0,0,1.854-.3,1.9,1.9,0,0,0,.418-1.466v-7.985a1.425,1.425,0,0,0-.358-1.166,1.987,1.987,0,0,0-1.346-.329h-.6Zm5.054-5.952A1.63,1.63,0,0,1,229,906.369a1.679,1.679,0,0,1-1.675-1.615,1.642,1.642,0,0,1,1.675-1.7A1.691,1.691,0,0,1,230.649,904.754Z" fill="#231f20"/><path d="M245.122,911.424a7.067,7.067,0,0,1,1.765,4.934,8.083,8.083,0,0,1-.569,3.23,7.885,7.885,0,0,1-2.213,2.871,7.061,7.061,0,0,1-4.845,1.5c-2.063,0-3.439-.509-5.2-2.6a6.92,6.92,0,0,1-1.286-4.546,7.358,7.358,0,0,1,2.482-5.772c.987-1.047,2.691-1.586,5.054-1.586A6.113,6.113,0,0,1,245.122,911.424Zm-9.63,4.306a10.351,10.351,0,0,0,1.167,5.234,3.723,3.723,0,0,0,3.379,2c2.512,0,4.127-1.556,4.127-5.533,0-4.426-1.7-6.968-4.366-6.968S235.492,912.351,235.492,915.73Z" fill="#231f20"/><path d="M251.991,912.23a18.3,18.3,0,0,1,2.722-2.182,4.551,4.551,0,0,1,2.3-.479,4.863,4.863,0,0,1,3.289,1.107c.927.718,1.376,2,1.376,3.828v6.759a1.578,1.578,0,0,0,.389,1.167,3.142,3.142,0,0,0,1.824.358v.808h-1.166l-1.5-.06a9.324,9.324,0,0,0-1.614.06h-.659l.09-1.076.06-.869v-6.967a3.162,3.162,0,0,0-1.047-2.513,3.815,3.815,0,0,0-2.422-.808,3.42,3.42,0,0,0-1.765.479,2.714,2.714,0,0,0-1.794,2.572V921.5c0,.568.12.9.389,1.047a4.721,4.721,0,0,0,1.884.239v.808l-2.034-.06-2.183-.059-1.705.059-1.226.06v-.808h.359c.6-.149,1.944.509,1.944-1.4V912.59c0-.688-.269-1.047-.838-1.047h-1.5v-.808c.449-.089.748-.119.987-.149a8.639,8.639,0,0,0,1.346-.329,9.765,9.765,0,0,0,2.183-.688l.359.09-.03.9Z" fill="#231f20"/><path d="M278.9,902.87a13.252,13.252,0,0,0,2.543-.419,15.388,15.388,0,0,0,2.093-.6l.3.208v18.9c0,1.435.419,1.4,1.137,1.644a5.3,5.3,0,0,0,1.316.121v.867l-1.077-.06-1.107-.059-1.435.059-1.406.06v-2.632l-2.931,2.452-1.106.329a3.952,3.952,0,0,1-1.137.15c-3.02,0-5.8-2.573-5.8-6.52a7.744,7.744,0,0,1,1.436-4.815,9.224,9.224,0,0,1,2.572-1.944,6.483,6.483,0,0,1,3.26-1.106,7.333,7.333,0,0,1,3.708.9v-5.921c0-.628-.568-.748-2.363-.748Zm-4.844,9.272a5.917,5.917,0,0,0-1.316,4.157,5.713,5.713,0,0,0,1.375,4.1,4.153,4.153,0,0,0,3.051,1.5,3.734,3.734,0,0,0,4.1-3.829v-5.083a3.836,3.836,0,0,0-1.734-1.5,5.091,5.091,0,0,0-2.6-.748A3.894,3.894,0,0,0,274.057,912.142Z" fill="#231f20"/><path d="M290.391,910.2a6.246,6.246,0,0,1,2.9-.748,4.843,4.843,0,0,1,3.708,1.2,7.183,7.183,0,0,1,1.5,2.153,5.581,5.581,0,0,1,.389,2.183c-.03.15-.3.389-.778.718a8.093,8.093,0,0,1-1.286.628,3.291,3.291,0,0,1-1.107.18h-6.549a6.014,6.014,0,0,0,1.525,4.515,5.279,5.279,0,0,0,3.679,1.436,6.161,6.161,0,0,0,3.08-.718,4.689,4.689,0,0,0,.808-.538l.239.18-.3.508-.209.568a9.165,9.165,0,0,1-2.274,1.2,10.218,10.218,0,0,1-2.631.36,6.251,6.251,0,0,1-4.367-1.317,7.118,7.118,0,0,1-1.794-2.632,10.592,10.592,0,0,1-.419-3.05c0-2.363.539-4.1,1.615-5.174A7.849,7.849,0,0,1,290.391,910.2ZM290,911.842a6.489,6.489,0,0,0-.837,3.47l1.346.059,3.02.06,1.825-.03.867-.03v-1.315a3.316,3.316,0,0,0-.718-2.393,3.376,3.376,0,0,0-1.286-.957,3.99,3.99,0,0,0-1.345-.239A3.22,3.22,0,0,0,290,911.842Z" fill="#231f20"/><path d="M306.027,902.9l1.735.03,1.974-.03.927-.03c.389,1.047.837,2.033,1.585,3.708L314.4,911.1l2.244,4.485,1.824,3.739c.448-1.047.987-2.243,1.7-3.709l2.154-4.515,2.123-4.456,1.645-3.769.987.03,1.765.03,2.063-.03.778-.03v.927a8.134,8.134,0,0,0-1.5.09,2.244,2.244,0,0,0-.986.3,1.671,1.671,0,0,0-.24.807l-.06,1.077V919.2l.09,1.765a2.911,2.911,0,0,0,.3,1.256,2.283,2.283,0,0,0,.987.3l1.466.088v.988h-.9l-3.11-.06a31.368,31.368,0,0,0-3.26.06H323.7v-.988h.538c.239,0,.658-.059.807-.059.778,0,1.167-.329,1.167-1.017l.089-1.256V906.07l-1.914,4.008-2.3,4.845-2.273,4.875-1.764,4.037h-.568l-1.824-3.948-2.274-4.815-2.332-4.785L309.2,906.31v5.532l.03,6.52.029,2.093a2.852,2.852,0,0,0,.359,1.765,3.117,3.117,0,0,0,1.226.388l1.227.09v.9h-1.017l-2.183-.06a25.435,25.435,0,0,0-2.722.06H305.1v-.9a3.7,3.7,0,0,0,2.184-.538,2.41,2.41,0,0,0,.328-1.435l.12-1.585.12-4.726.089-8.972-.089-.628c-.03-.6-.718-.868-2.752-.957l.03-.987Z" fill="#231f20"/><path d="M345.63,909.659l-.09,1.256-.06,1.5v8.734a1.791,1.791,0,0,0,.359,1.286,3.331,3.331,0,0,0,2,.358v.808l-.807-.031-1.526-.029-1.615.029-.927.031V921.2a15.146,15.146,0,0,1-2.811,2.213,5.076,5.076,0,0,1-2.632.539c-2.632,0-4.008-1.107-4.008-3.889v-7.087c0-1.794-.957-1.316-2.213-1.465v-.808a13.781,13.781,0,0,0,4.576-1.2l.389.209-.09,1.795-.09,1.734v6.011a2.714,2.714,0,0,0,.628,2.153,4.385,4.385,0,0,0,1.077.629,3.375,3.375,0,0,0,1.047.119,4.165,4.165,0,0,0,4.067-2.722V912.8c0-.867-.329-1.285-1.2-1.285h-1.346v-.808a7.039,7.039,0,0,0,.9-.06,13.419,13.419,0,0,0,1.526-.33,15.541,15.541,0,0,0,2.452-.806Z" fill="#231f20"/><path d="M355.905,909.659a12.709,12.709,0,0,1,1.824.479l-.09,1.4-.03,2.063h-.688v-.687a2.847,2.847,0,0,0-.568-1.466,4.708,4.708,0,0,0-2.9-.986,2.334,2.334,0,0,0-2.512,2.272,1.785,1.785,0,0,0,1.106,1.795,13.764,13.764,0,0,0,2.752.837,7.772,7.772,0,0,1,2.811,1.107,2.728,2.728,0,0,1,1.2,2.512,4.374,4.374,0,0,1-2.183,4.037,6.1,6.1,0,0,1-3.649.928,13.664,13.664,0,0,1-2.183-.18l-1.855-.359a10.181,10.181,0,0,0,.239-2l.09-2.153h.777a6.812,6.812,0,0,0,.121,1.705c.119.867.538,1.256,1.614,1.734a5.412,5.412,0,0,0,1.8.329c1.914,0,3.14-1.166,3.14-2.751,0-.957-.269-1.555-.837-1.825a10.637,10.637,0,0,0-1.585-.6,14.386,14.386,0,0,0-1.765-.389,6.742,6.742,0,0,1-2.243-1.017,3.089,3.089,0,0,1-1.2-2.782,4.044,4.044,0,0,1,1.2-2.841,5.025,5.025,0,0,1,3.828-1.315A8.064,8.064,0,0,1,355.905,909.659Z" fill="#231f20"/><path d="M359.03,910.706a15.321,15.321,0,0,0,4.456-1.227l.449.18v10.916c0,1.076.059,1.526.418,1.914.209.209.837.3,1.914.3v.808l-1.765-.031-2.3-.029-1.974.029-1.166.031v-.808a3.471,3.471,0,0,0,1.854-.3,1.9,1.9,0,0,0,.419-1.466v-7.985a1.425,1.425,0,0,0-.359-1.166,1.986,1.986,0,0,0-1.346-.329h-.6Zm5.054-5.952a1.63,1.63,0,0,1-1.645,1.615,1.679,1.679,0,0,1-1.675-1.615,1.642,1.642,0,0,1,1.675-1.7A1.691,1.691,0,0,1,364.084,904.754Z" fill="#231f20"/><path d="M379.275,928.829l.06.808a1.622,1.622,0,0,0,.3.9,1.834,1.834,0,0,0,.867.27l1.316.119v.867l-1.525-.09-2.333-.029-2.572.029-1.226.09v-.867l1.435-.09a1.735,1.735,0,0,0,.9-.269,2.126,2.126,0,0,0,.269-.807l.06-.928V921.5l-3.38,2.094-.628.09-.987.119a4.728,4.728,0,0,1-3.5-1.256,7.47,7.47,0,0,1-1.7-2.512,9.878,9.878,0,0,1-.419-2.932,7.269,7.269,0,0,1,1.734-4.875,8.982,8.982,0,0,1,4.486-2.481,7.441,7.441,0,0,1,1.7-.18,6.794,6.794,0,0,1,2.542.449l1.346.449a1.472,1.472,0,0,0,.628-.3l.748-.538.538.269a16.5,16.5,0,0,0-.509,2.991c0,.568-.029,1.226-.089,2.034-.03.807-.06,1.286-.06,1.376ZM371.469,911.1c-1.166.388-2.781,1.943-2.781,5.2a7.017,7.017,0,0,0,1.166,4.007,3.748,3.748,0,0,0,3.2,1.764,4.626,4.626,0,0,0,3.828-1.914v-7.985a6.165,6.165,0,0,0-3.828-1.436A3.61,3.61,0,0,0,371.469,911.1Z" fill="#231f20"/><path d="M395.35,909.659l-.09,1.256-.06,1.5v8.734a1.791,1.791,0,0,0,.359,1.286,3.327,3.327,0,0,0,2,.358v.808l-.807-.031-1.525-.029-1.615.029-.927.031V921.2a15.146,15.146,0,0,1-2.812,2.213,5.072,5.072,0,0,1-2.631.539c-2.632,0-4.008-1.107-4.008-3.889v-7.087c0-1.794-.957-1.316-2.213-1.465v-.808a13.787,13.787,0,0,0,4.576-1.2l.389.209-.09,1.795-.09,1.734v6.011a2.714,2.714,0,0,0,.628,2.153,4.385,4.385,0,0,0,1.077.629,3.375,3.375,0,0,0,1.047.119,4.166,4.166,0,0,0,4.067-2.722V912.8c0-.867-.329-1.285-1.2-1.285h-1.346v-.808a7.039,7.039,0,0,0,.9-.06,13.374,13.374,0,0,0,1.525-.33,15.508,15.508,0,0,0,2.452-.806Z" fill="#231f20"/><path d="M401.665,910.2a6.239,6.239,0,0,1,2.9-.748,4.847,4.847,0,0,1,3.709,1.2,7.22,7.22,0,0,1,1.5,2.153,5.581,5.581,0,0,1,.388,2.183c-.03.15-.3.389-.778.718a8.131,8.131,0,0,1-1.285.628,3.3,3.3,0,0,1-1.107.18h-6.55a6.018,6.018,0,0,0,1.525,4.515,5.28,5.28,0,0,0,3.679,1.436,6.162,6.162,0,0,0,3.081-.718,4.685,4.685,0,0,0,.807-.538l.24.18-.3.508-.209.568a9.176,9.176,0,0,1-2.273,1.2,10.227,10.227,0,0,1-2.632.36,6.247,6.247,0,0,1-4.366-1.317,7.122,7.122,0,0,1-1.8-2.632,10.593,10.593,0,0,1-.418-3.05c0-2.363.538-4.1,1.615-5.174A7.835,7.835,0,0,1,401.665,910.2Zm-.389,1.645a6.489,6.489,0,0,0-.838,3.47l1.346.059,3.021.06,1.824-.03.868-.03v-1.315a3.321,3.321,0,0,0-.718-2.393,3.391,3.391,0,0,0-1.286-.957,4,4,0,0,0-1.346-.239A3.22,3.22,0,0,0,401.276,911.842Z" fill="#231f20"/><path d="M417.689,905.621c.868-.268,1.526-.448,2-.657s1.047-.39,1.735-.658c1.346-.569,2.662-1.017,4.127-1.705v.628a2.881,2.881,0,0,0-.508.539,1.187,1.187,0,0,0-.21.717V919.2l.03,2.064c.09,1.106.539,1.286,3.26,1.376v.957l-2.631-.031-3.021-.029-2.393.029-1.465.031v-.957h1.106a6.453,6.453,0,0,0,1.944-.389c.329-.27.539-1.765.539-3.439V907.146l-.03-1.016-.03-1.017-2.273.9a21.178,21.178,0,0,0-2.243,1.047l.03-.688Z" fill="#231f20"/></g></svg>
