<svg xmlns="http://www.w3.org/2000/svg" width="1000" height="988" viewBox="0 0 1000 988"><g id="Artboard"><rect id="Page" width="1000" height="988" fill="#fff"/></g><g id="Text"><g id="蓬莱人形"><g id="蓬"><path d="M744.656,140.513h13.272v1.917q.587,5.9,2.949,5.9,2.064,0,2.359-5.9v-1.917H808.8v.59q.587,5.9,2.949,5.9,2.064,0,2.359-5.9v-.59H826.2q2.949,0,2.949-2.359,0-2.064-3.539-2.36h-11.8q-.441-2.948-2.359-2.949-1.475,0-2.212,2.949H763.089q-.443-3.39-2.507-3.391-1.625,0-2.359,3.391H745.836q-4.13.3-4.129,2.36Q741.707,140.515,744.656,140.513Z"/><path d="M748.2,152.458a4.347,4.347,0,0,0-2.654-2.065q-2.36.3-2.359,1.77a6.79,6.79,0,0,0,.589,2.359l10.765,10.027a3.979,3.979,0,0,0,3.539,2.36q1.77,0,2.36-2.36,0-.885-2.065-3.539Z"/><path d="M828.267,177.083a2.114,2.114,0,0,0-.885-1.622,196.325,196.325,0,0,0-29.935-13.124q1.03-.735,2.212-1.474,6.045-3.684,11.65-6.488,4.424-2.506,4.423-3.392,0-2.655-5.308-2.654h-17.99a19.142,19.142,0,0,0,1.622-2.36,2.006,2.006,0,0,0,.59-1.474q0-.885-1.77-.885-12.387,11.945-24.184,18.285-1.475.591-1.474,1.475c0,.589.391.884,1.179.884a46.1,46.1,0,0,0,12.24-4.866q3.539,1.918,7.225,3.834a53.509,53.509,0,0,0-5.013,3.244,97.019,97.019,0,0,0-17.4,17.4c0,1.378.392,2.064,1.18,2.064q1.327,0,2.359-2.507a206.334,206.334,0,0,1,23.447-17.842,221,221,0,0,0,34.5,12.976A1.33,1.33,0,0,0,828.267,177.083Zm-35.981-16.515q-4.278-1.622-8.995-2.949a37.548,37.548,0,0,0,6.341-5.6,6.028,6.028,0,0,0,2.8.443h11.354c.885,0,1.327.2,1.327.589Q799.217,156.145,792.286,160.568Z"/><path d="M737.726,267.035a47.372,47.372,0,0,0,14.746-20.055,40.693,40.693,0,0,0,10.617,11.944,26.6,26.6,0,0,0,17.695,6.636l44.238-.59q6.339-.3,6.341-2.359-.443-2.067-6.93-2.065l-43.944-.3q-14.452,0-26.395-17.99a70.324,70.324,0,0,0,2.507-18.285V175.609q0-3.242-3.539-3.244h-11.8q-2.655,0-2.655,2.064t2.655,2.065h7.373q2.064,0,2.064,1.769v46.3q0,13.569-3.981,23.151a65.9,65.9,0,0,1-8.7,17.253c-.789.2-1.18.59-1.18,1.18A.782.782,0,0,0,737.726,267.035Z"/><path d="M823.7,201.267q0-1.77-3.1-2.064H799.807q-.149-4.425-.3-8.553h16.663q2.654,0,2.654-2.065,0-1.768-3.1-2.064H799.364q-.3-3.39-.442-6.488h13.566q2.655,0,2.655-2.212,0-1.621-3.1-1.917H798.479q-.147-2.064-.442-4.424-.59-2.213-1.18-2.212c-.589,0-1.083.885-1.474,2.654q-.149,1.77-.3,3.982H782.259q-3.54.3-3.539,1.917,0,2.211,2.654,2.212H794.94q-.147,2.8-.294,6.488H776.655q-3.538.3-3.539,2.064,0,2.067,2.655,2.065H794.5q-.149,3.687-.147,8.553H770.462q-3.539.3-3.539,2.064,0,2.067,2.654,2.065h24.774q-.149,5.015-.148,11.059,0,32.444,1.77,40.4.587,2.949,1.179,3.245.885,0,1.475-2.95,1.327-5.01,1.327-40.7,0-5.751-.147-11.059h21.234Q823.7,203.332,823.7,201.267Z"/></g><g id="莱"><path d="M815.743,289.091q0,2.51,2.8,2.507H833v1.179q.588,5.9,2.8,5.9t2.507-5.9V291.6h41.289v1.769q.586,5.9,3.1,5.9,2.064,0,2.36-5.9V291.6h17.843q2.8,0,2.8-2.507,0-1.622-3.391-2.212H885.05v-.59q-.3-4.717-2.654-4.719-2.212,0-2.8,4.719v.59H838.305v-.59q-.3-5.308-2.8-5.309-1.917,0-2.507,5.309v.59H819.872Q815.743,287.47,815.743,289.091Z"/><path d="M824.9,410.243A4.046,4.046,0,0,1,824,408.57l-.054-.2a4.006,4.006,0,0,1-.134-1.028c0-1.4.623-3.3,3.581-4.431l.16-.066a23.806,23.806,0,0,1,4.843-1.5c.1-.022.209-.031.314-.052.544-.764,1.086-1.532,1.617-2.343q5.9-8.993,8.553-27.87,1.77-13.416,6.046-22.267,3.538-7.222,8.553-10.617-.149,9.291-.148,20.055,0,35.079,1,50.349c.182-.086.358-.168.6-.28a4,4,0,0,1,1.684-.372,4.059,4.059,0,0,1,.632.05l.3.048a4.019,4.019,0,0,1,.881.257q.8-14.205.8-50.052,0-10.026-.148-19.465a31.5,31.5,0,0,1,9.438,10.617q5.16,8.849,6.93,22.857,2.655,18.877,7.816,27.28c.454.779.919,1.515,1.385,2.251a6.1,6.1,0,0,1,1.213-.265l.27-.033c.062-.007.125-.013.188-.018.1-.014.218-.038.34-.061l.094-.018c.186-.035.374-.078.576-.134.081-.022.163-.041.245-.058l1.083-.224a3.939,3.939,0,0,1,.809-.083c.133,0,.266.018.4.031-.927-1.766-1.811-3.592-2.621-5.517q-3.394-8.847-5.308-23.151-3.837-14.6-8.406-22.267-4.721-8.4-12.386-11.8h36.57q2.8,0,2.8-2.359,0-2.5-3.392-2.507H862.931q-.443-15.186-1.18-26.985h27.87q2.655,0,2.654-1.77,0-2.505-3.244-2.507H861.456q-.149-2.211-.442-4.718-.591-2.358-1.033-2.36c-.589,0-1.083.788-1.474,2.36q-.148,2.508-.295,4.718H830.637q-3.687,0-3.687,2.507,0,1.77,2.654,1.77h28.46q-.3,11.208-.589,26.985h-37.75q-3.982,0-3.982,2.507,0,2.361,2.654,2.359h34.949q-6.05,3.395-9.733,11.207-3.981,7.079-7.373,21.677-2.211,14.157-6.046,23.151a58.817,58.817,0,0,1-10.241,16.079,8.626,8.626,0,0,1,3.349,1.36C823.842,411.219,824.371,410.729,824.9,410.243Z"/><path d="M831.816,331.117c.59,0,1.081-.391,1.475-1.179q4.866-4.126,4.866-9,0-6.486-7.078-9.88h-1.032c-.3,0-.443.2-.443.59q3.834,3.395,3.834,6.489a27.283,27.283,0,0,1-2.506,11.8C830.932,330.726,831.227,331.117,831.816,331.117Z"/><path d="M886.524,309.735c-.589,0-1.083.443-1.474,1.327q-5.308,2.8-5.309,7.668,0,5.9,4.571,8.7c.59.788,1.082,1.179,1.475,1.179s.59-.391.59-1.179a31.03,31.03,0,0,1-1.475-9.29,11.745,11.745,0,0,1,2.507-7.079Q887.409,309.736,886.524,309.735Z"/></g><g id="人"><path d="M702.9,411.311a4,4,0,0,1-.776,3.319l-.063.08a3.841,3.841,0,0,1-.6.609,30.288,30.288,0,0,0-.211,4.277c0,.256,0,.512.007.768a9.014,9.014,0,0,1,5.657-1.888h.049a12.89,12.89,0,0,1,2.446.283c.158.032.3.072.444.108q-1.213-5.361-2.315-11,1.471-17.1,1.475-39.667-.442-5.16-1.475-5.161-.591,0-1.032,1.77a429.3,429.3,0,0,1-4.412,44.52,4.058,4.058,0,0,1,.719,1.579Z"/><path d="M702.006,437.43a15.273,15.273,0,0,1-1.866-.32,5.12,5.12,0,0,1-1.057-.389l-.473.111a9.609,9.609,0,0,0-.971.388c-.234.112-.446.2-.606.261l-.117.046a4.657,4.657,0,0,1-1.194.387c-.61,1.993-1.237,3.935-1.895,5.783q-7.079,27.87-30.819,60.312c0,.785.147,1.179.442,1.179s.737-.394,1.327-1.179q25.216-23.74,36.718-63.113c.382-1.069.744-2.215,1.1-3.4-.148-.014-.3-.028-.432-.045Z"/><path d="M710.8,436.6a12.2,12.2,0,0,1-1.562.5,142.552,142.552,0,0,0,7,22.672q12.681,31.851,33.474,44.828a3.4,3.4,0,0,0,1.769,1.032c.2,0,.295-.346.295-1.032a148.017,148.017,0,0,1-18.137-23.742Q726.858,469.061,721.7,458a233.572,233.572,0,0,1-7.875-23.44A8.12,8.12,0,0,1,710.8,436.6Z"/></g><g id="形"><path d="M793.172,547.741h-8.11q-.442-11.8-1.18-20.644h6.636q3.1,0,3.1-3.1,0-2.213-3.686-2.212H751.735q-4.424,0-4.423,2.212,0,3.1,3.1,3.1h7.521a48.849,48.849,0,0,0-.885,5.161l-.148,15.483h-8.257q-4.722,0-4.719,2.212,0,3.1,3.392,3.1H756.9l-.147,30.672q-.149,32.442-6.636,47.63A62.374,62.374,0,0,1,735.367,652c0,.885.244,1.327.737,1.327A8.075,8.075,0,0,0,737.579,652q10.175-6.49,16.958-18.875,7.521-12.239,7.521-49.4l-.148-30.672h18.433q-.148,15.189-.295,37.16,0,48.81,1.622,60.606.588,3.1,1.327,3.1.885,0,1.327-3.1,1.473-6.933,1.475-60.606,0-21.38-.59-37.16h8.7q3.391,0,3.392-3.1Q797.3,547.742,793.172,547.741Zm-12.682,0H761.91V531.668a34.475,34.475,0,0,0-.737-4.571H781.08Q780.783,534.765,780.49,547.741Z"/><path d="M823.844,519.871a6.534,6.534,0,0,0,1.032-2.359q0-1.621-1.77-1.622-.739,0-2.654,1.622-14.156,13.569-19.907,23.741,0,1.625,1.475,1.622a3.6,3.6,0,0,0,2.654-1.032A162.389,162.389,0,0,0,823.844,519.871Z"/><path d="M810.425,573.694q0-10.175,3.686-15.336a91.085,91.085,0,0,1,10.912-12.976,4.045,4.045,0,0,0,1.033-1.917q0-1.179-1.622-1.18a60.326,60.326,0,0,0-14.747,13.567,28.058,28.058,0,0,0-5.013,15.483q0,28.167,7.668,50.137,7.519,20.055,20.644,32.441a2.853,2.853,0,0,0,2.065,1.18.523.523,0,0,0,.59-.59q-14.011-21.38-18.875-36.57A157.756,157.756,0,0,1,810.425,573.694Z"/></g></g><g id="Dolls_in_Pseudo_Paradise" data-name="Dolls in Pseudo Paradise"><path d="M651.033,419.744c.03-.948.03-2.764.06-5.382.024-1.5.036-2.253.061-3.756-.684.047-1.027.068-1.711.108l-.57.013-.18-.116a.6.6,0,0,1-.09-.285c-.023-.248.48-.418,1.44-.509l.271-.026c2.55-.228,4.682-.41,6.419-.492a37.617,37.617,0,0,1,4.86.006,11.148,11.148,0,0,1,7.587,3.339,12.2,12.2,0,0,1,2.846,8.492,9.068,9.068,0,0,1-3.061,7.378,10.708,10.708,0,0,1-6.029,2.656,13.853,13.853,0,0,1-2.789.046c-1.32-.1-1.98-.151-3.3-.258-.42-.041-1.091-.118-1.979-.171-.5-.029-1.333-.065-2.4-.165-.3-.028-1.528-.049-3.718-.055l-.539,0-.15-.106-.06-.218c0-.27.45-.427,1.319-.472l1.38-.1C650.834,425.724,650.9,423.865,651.033,419.744Zm2.459-.143c-.036,2.684-.054,3.838-.091,6.337a9.153,9.153,0,0,0,.149,1.9,1.758,1.758,0,0,0,.391.8,4.524,4.524,0,0,0,1.768.832,16.5,16.5,0,0,0,2.909.537c3.179.328,5.717-.167,7.588-1.413,1.946-1.3,2.94-2.819,2.941-6.223,0-6.58-3.535-11.049-9.564-11.67a15.336,15.336,0,0,0-3.3-.032,9.577,9.577,0,0,0-2.55.584C653.637,414.607,653.589,416.281,653.492,419.6Z" fill="#000000"/><path d="M685.84,427.807a4.573,4.573,0,0,1-1.89,3.816,7.012,7.012,0,0,1-4.77,1.3c-3.479-.173-5.668-2.219-5.667-5.452a6.114,6.114,0,0,1,1.681-4.263,5.335,5.335,0,0,1,4.738-1.856A6.279,6.279,0,0,1,685.84,427.807Zm-10.168-1.153a5.212,5.212,0,0,0,1.319,3.575,4.378,4.378,0,0,0,3.149,1.533,3.309,3.309,0,0,0,2.61-.867,2.981,2.981,0,0,0,.9-2.219c0-3.048-1.829-5.517-4.559-5.744C676.814,422.742,675.673,424.14,675.672,426.654Z" fill="#000000"/><path d="M688.2,418.026c0-1.338-.06-2.879-.18-4.681l-.03-.405c-.03-.3.18-.472.6-.567l.629-.124c.21-.029.78-.23,1.769-.535.36-.123.54-.185.9-.31a.581.581,0,0,1,.24.158l.09.417-.06.073a6.451,6.451,0,0,0-.989.974c-.454.542-.711,3.177-.69,6.338.008,1.342.035,2.7.03,4.01-.016,3.95-.06,4.739-.06,4.665v1.394a8.264,8.264,0,0,0,.149,2.092.667.667,0,0,0,.63.414,4.133,4.133,0,0,0,.84-.088l.48-.1c.24.1.33.194.33.377,0,.114-.3.264-.9.405l-1.05.241a10.54,10.54,0,0,0-1.74.646c-.21.106-.449.188-.69.293a.936.936,0,0,1-.27.1.513.513,0,0,1-.51-.4l.031-.112a17.154,17.154,0,0,0,.479-4.507C688.213,425.277,688.207,423.085,688.2,418.026Z" fill="#000000"/><path d="M694.973,418.315c0-1.348-.059-2.9-.18-4.726l-.03-.411c-.03-.3.18-.481.6-.583l.631-.134c.21-.033.779-.244,1.769-.566l.9-.326a.567.567,0,0,1,.239.157l.09.422-.059.075a6.451,6.451,0,0,0-.99,1c-.454.555-.709,3.225-.689,6.4.009,1.346.035,2.708.03,4.01-.014,3.94-.059,4.723-.059,4.649v1.38a7.95,7.95,0,0,0,.15,2.058.658.658,0,0,0,.63.4,4.371,4.371,0,0,0,.84-.1l.48-.105c.24.1.33.187.33.366,0,.112-.3.263-.9.409l-1.049.248a10.747,10.747,0,0,0-1.741.65c-.21.105-.45.188-.69.292a.982.982,0,0,1-.27.1.5.5,0,0,1-.509-.382l.029-.109a16.448,16.448,0,0,0,.48-4.424C694.992,425.591,694.986,423.406,694.973,418.315Z" fill="#000000"/><path d="M702.66,433.48a13.081,13.081,0,0,1-1.56-.253c-.344-.085-.45-.171-.45-1v-1.044a.544.544,0,0,1,.811-.379c.047.075.071.112.119.187v.161c0,1.1.96,1.677,2.761,1.688a8.3,8.3,0,0,0,3.03-.537c1.16-.444,1.74-1.022,1.74-1.79,0-.651-.511-.964-1.8-.969-.6,0-.9,0-1.5-.008-2.67-.018-3.96-.784-3.961-2.526a4.313,4.313,0,0,1,1.41-3.093,4.974,4.974,0,0,1,3.689-1.442,9.108,9.108,0,0,1,1.68.206c.886.177,1.351.366,1.351.664a2.748,2.748,0,0,1-.181,1.022c-.148.36-.269.523-.42.557l-.509-.161a7.085,7.085,0,0,0-2.791-.657c-1.529-.007-2.58.872-2.579,1.9,0,.775.631,1.258,1.86,1.442a10.373,10.373,0,0,0,1.68.11,6.69,6.69,0,0,1,3.541.769,2.06,2.06,0,0,1,.93,1.848c0,1.22-.755,2.118-2.219,2.714a11.623,11.623,0,0,1-4.38.706A19.249,19.249,0,0,1,702.66,433.48Z" fill="#000000"/><path d="M720.784,432.718c-.036.112-.054.169-.09.28-.03.065-.15.11-.33.156-.684.175-1.026.261-1.71.432-.121-.061-.181-.123-.181-.186-.024-.369-.036-.558-.06-.941,0-2.1,0-3.248,0-5.746a4.411,4.411,0,0,0-.241-1.85.924.924,0,0,0-.84-.381l-.42.106-.33.1a.538.538,0,0,1-.27-.219.738.738,0,0,1-.09-.352c0-.162.3-.33.869-.5l.99-.315c.961-.4,1.441-.6,2.4-1.009.33.122.48.283.48.478l-.03.391c0,.454-.029,1.331-.059,2.351-.024.666-.035.992-.059,1.63C720.8,429.569,720.8,430.684,720.784,432.718Zm.173-17.56a1.847,1.847,0,0,1-1.62,1.96,1.454,1.454,0,0,1-1.14-.526,2.166,2.166,0,0,1-.451-1.388,1.918,1.918,0,0,1,1.59-2.052A1.835,1.835,0,0,1,720.957,415.158Z" fill="#000000"/><path d="M725.232,427.746c0-2.364-.632-3.5-1.862-3.454l-.33.076-.27.041a.522.522,0,0,1-.24-.117c-.024-.138-.036-.207-.061-.346.031-.033.09-.067.121-.1a2.264,2.264,0,0,1,.42-.269l.66-.279c.21-.1.479-.243.78-.414.15-.1.449-.274.869-.581l.241-.171c.21-.008.483.212.87.644a4.191,4.191,0,0,1,.841,1.506,12.815,12.815,0,0,1,2.942-1.578,8.305,8.305,0,0,1,2.43-.658,2.464,2.464,0,0,1,2.372,1.144,6.685,6.685,0,0,1,.75,3.9c-.059,1.717-.089,2.519-.148,4.011a.332.332,0,0,0,.149.357.815.815,0,0,0,.451.092l.51-.135.51-.114a.445.445,0,0,1,.18.082c.036.107.054.16.09.265,0,.156-.269.3-.84.437-.27.055-.69.161-1.2.313-.576.206-.864.307-1.44.508-.324.123-.486.184-.81.305l-.27-.052-.09-.165.06-.15a11.891,11.891,0,0,0,.629-4.132c0-3.113-1.082-4.975-3.213-4.863a4.713,4.713,0,0,0-2.881,1.434c0,.316,0,.473,0,.783.012.385.018.574.03.949-.011,1.448-.017,2.135-.029,3.435-.036,1-.053,1.48-.089,2.394-.684.192-1.026.287-1.71.473l-.18.026a.457.457,0,0,1-.18-.079c-.024-.117-.036-.175-.061-.294C725.233,431.069,725.232,430.024,725.232,427.746Z" fill="#000000"/><path d="M750.257,431.453c-.212.036-.423.072-.575.081,0,0-.181.033-.515.122-1.242.28-2.665.7-4.331,1.195-.182.053-.273.079-.455.13l-.212-.054-.06-.147c.03-.044.109-.095.151-.159a2.159,2.159,0,0,1,.212-.229,1.39,1.39,0,0,0,.425-.557,13.5,13.5,0,0,0,.241-3.231c0-1.484,0-3,.03-4.508.023-2.979.035-4.621.059-8.227v-1.048a5.067,5.067,0,0,0-.121-.882c-.092-.454-.182-.75-.394-.737a3.743,3.743,0,0,0-1.544.6,4.5,4.5,0,0,1-1.119.536l-.182-.1-.06-.323c0-.329.362-.644,1.059-1.015l.272-.163a18.725,18.725,0,0,1,4.116-1.948,13.728,13.728,0,0,1,3.724-.772,7.945,7.945,0,0,1,5.361,1.39,6.207,6.207,0,0,1,2.334,5.221,7.437,7.437,0,0,1-2.724,6.087,11,11,0,0,1-6.268,2.313c-.7.057-1.03-.082-1.03-.445a.627.627,0,0,1,.09-.4l.394-.089.727-.059c3.634-.3,5.845-2.49,5.843-6.442a7.216,7.216,0,0,0-1.213-4.356,4.143,4.143,0,0,0-3.786-1.715c-1.453.09-2.634.79-2.845,1.561-.037.653-.055.974-.091,1.606-.03.7-.06,1.993-.09,3.746-.035,4.83-.053,6.914-.088,10.618a4.223,4.223,0,0,0,.212,1.777c.128.2.484.3,1,.267a5.983,5.983,0,0,0,1.15-.213,6.906,6.906,0,0,1,1.091-.237l.121.064c.024.094.036.141.061.235C751.227,431.16,750.894,431.321,750.257,431.453Z" fill="#000000"/><path d="M759.625,431.621a12.207,12.207,0,0,1-1.56-.178c-.342-.071-.45-.159-.45-1.078v-1.157c.059-.335.239-.529.509-.549a.419.419,0,0,1,.3.054l.12.2v.18c0,1.228.961,1.8,2.76,1.686a7.562,7.562,0,0,0,3.03-.835c1.158-.6,1.738-1.327,1.738-2.215,0-.752-.511-1.066-1.8-.958l-1.5.125c-2.67.222-3.96-.5-3.961-2.42a4.688,4.688,0,0,1,1.409-3.352,5.817,5.817,0,0,1,3.688-1.676,9.668,9.668,0,0,1,1.68.022c.887.075,1.349.2,1.349.474a2.4,2.4,0,0,1-.179.946c-.148.342-.27.5-.419.545l-.51-.1a7.225,7.225,0,0,0-2.79-.328c-1.53.145-2.579,1.053-2.578,2.192,0,.854.63,1.323,1.859,1.407a9.454,9.454,0,0,0,1.681-.04,5.682,5.682,0,0,1,3.54.544,2.257,2.257,0,0,1,.93,2.044,3.748,3.748,0,0,1-2.217,3.363,10.28,10.28,0,0,1-4.379,1.1A17.294,17.294,0,0,1,759.625,431.621Z" fill="#000000"/><path d="M776.153,428.906a6.041,6.041,0,0,0,2.19-.553,4.578,4.578,0,0,0,1.769-1.452l.36-.491a1.062,1.062,0,0,1,.51-.476.526.526,0,0,1,.27.092l.119.251a3.516,3.516,0,0,1-.6,1.264,17.981,17.981,0,0,1-1.558,2.06,2.831,2.831,0,0,1-1.29.931,10.252,10.252,0,0,1-2.221.3c-3.75.216-6.03-1.542-6.032-5.017a8.165,8.165,0,0,1,1.587-4.8,6.2,6.2,0,0,1,4.438-2.756,3.7,3.7,0,0,1,2.642.605,2.752,2.752,0,0,1,1.081,2.358c0,1.176-2.43,2.687-7.258,4.405A3.491,3.491,0,0,0,776.153,428.906Zm-.693-5.7a2.712,2.712,0,0,0,1.258-2.191,1.408,1.408,0,0,0-.481-1.106c-.149-.1-.269-.182-.359-.232a1.663,1.663,0,0,0-.84-.094,2.984,2.984,0,0,0-2.249,1.622,5.1,5.1,0,0,0-.749,2.671v.341l.03.366A8.271,8.271,0,0,0,775.46,423.207Z" fill="#000000"/><path d="M788.8,429.161a12.328,12.328,0,0,1-2.189,1.1,3.36,3.36,0,0,1-3.091-1.173,6.51,6.51,0,0,1-.963-4.077c.047-1.945.071-2.92.118-4.9-.048-.494-.073-.743-.121-1.242a.479.479,0,0,0,.12-.1,2.831,2.831,0,0,1,.39-.221l.69-.312c.816-.409,1.224-.613,2.039-1.023.33-.034.481.071.481.312a1.162,1.162,0,0,1-.33.545,2.307,2.307,0,0,0-.45.617,4.7,4.7,0,0,0-.509,1.635,23.244,23.244,0,0,0-.148,3.009c0,3.664.843,4.9,3,4.746a9.135,9.135,0,0,0,3.629-1.361c0-2.618,0-3.9,0-6.482,0-1.145-.24-1.811-.69-2a.132.132,0,0,1-.121-.108.583.583,0,0,1,.361-.577l.179-.079c.06-.036.51-.262,1.38-.742l.84-.446c.24-.025.691.32.691.56l-.03.123a9.979,9.979,0,0,0-.27,1.889c-.035,1.092-.053,1.638-.088,2.734-.011,1.483-.017,2.226-.028,3.728.037,1.228.055,1.845.092,3.095l.029.28c0,.22-.335.523-1.019.972a5.332,5.332,0,0,1-1.26.665l-.12-.118-.031-.434v-1.207c.011-.371.018-.556.029-.925C790.368,428.255,789.846,428.56,788.8,429.161Z" fill="#000000"/><path d="M804.468,427.053c-1.29,1.376-2.37,2.072-3.24,2.121a4.569,4.569,0,0,1-3.9-1.254,6.092,6.092,0,0,1-1.172-4.111,8.794,8.794,0,0,1,1.857-5.776,7.043,7.043,0,0,1,4.951-2.561l2.4.036c.011-1.17.017-1.75.028-2.9,0-1.379-.061-2.884-.212-4.512-.011-.137-.017-.206-.029-.343q-.045-.3.72-.481l.3-.078a7.954,7.954,0,0,0,.87-.259c.209-.07.51-.177.9-.343.432-.152.648-.228,1.081-.377.27.067.39.115.39.337,0,.084-.2.231-.57.485a2.012,2.012,0,0,0-.78.9,17.62,17.62,0,0,0-.389,4.637c0,1.492-.029,3.19-.059,5.195-.035,2.8-.052,4.231-.087,7.221,0,1.448.151,2.189.481,2.167a4.343,4.343,0,0,0,.96-.231l.66-.246a.982.982,0,0,1,.27.119.423.423,0,0,1,.09.3c0,.239-.269.462-.84.7l-.809.356a15.176,15.176,0,0,0-1.891,1l-.869.525a.478.478,0,0,1-.391-.184.494.494,0,0,1-.21-.33l.03-.239c.09-.852.15-1.354.15-1.554v-.166c-.012-.345-.019-.517-.031-.859Zm-.154-9.278a11.158,11.158,0,0,0-1.86-.184,8.72,8.72,0,0,0-.9.029c-2.521.248-3.421,1.29-3.42,4.375a5.819,5.819,0,0,0,.9,3.449,3.329,3.329,0,0,0,3.092,1.278c1.41-.1,2.67-.814,2.939-1.711a11.64,11.64,0,0,0,.18-1.821c.047-2.1.071-3.127.119-5.148C805.1,417.976,804.761,417.878,804.314,417.775Z" fill="#000000"/><path d="M823.247,420.306a9.07,9.07,0,0,1-1.889,5.643,6.267,6.267,0,0,1-4.77,2.6c-3.481.178-5.671-2.526-5.673-6.568a8.427,8.427,0,0,1,1.679-5.375,6.487,6.487,0,0,1,4.742-2.445C820.967,413.859,823.247,415.924,823.247,420.306Zm-10.171.241a7.356,7.356,0,0,0,1.321,4.419,3.548,3.548,0,0,0,3.151,1.706,3.239,3.239,0,0,0,2.61-1.638,5.96,5.96,0,0,0,.9-3.242c0-4.115-1.832-6.33-4.562-6.1C814.215,415.887,813.075,417.436,813.076,420.547Z" fill="#000000"/><path d="M836.177,426.3a3.921,3.921,0,0,1-.57.1,4.87,4.87,0,0,0-.509.172,32.95,32.95,0,0,0-4.289,1.835l-.45.214-.21-.108-.06-.268c.031-.078.109-.166.15-.276a3.311,3.311,0,0,1,.211-.392,2.658,2.658,0,0,0,.42-.929,33.663,33.663,0,0,0,.239-4.867c0-2.034,0-3.855.03-5.51.024-3.258.036-4.753.06-7.509v-.783a2.642,2.642,0,0,0-.12-.635c-.086-.3-.181-.521-.391-.512a4.678,4.678,0,0,0-1.529.423,5.789,5.789,0,0,1-1.111.389l-.18-.069-.06-.229c0-.231.36-.454,1.05-.71l.27-.112a19.891,19.891,0,0,1,4.082-1.257,20.631,20.631,0,0,1,3.691-.443,10.954,10.954,0,0,1,5.311.951,4.034,4.034,0,0,1,2.309,3.884,7.021,7.021,0,0,1-2.7,5.446,10.018,10.018,0,0,1-6.21,2.358c-.689.038-1.019-.137-1.019-.551a.75.75,0,0,1,.09-.449l.389-.086.72-.043a5.769,5.769,0,0,0,5.792-5.982,4.468,4.468,0,0,0-1.2-3.372,4.946,4.946,0,0,0-3.75-1.217c-1.441.04-2.612.477-2.822,1-.036.445-.054.671-.09,1.132-.03.513-.06,1.464-.09,2.96-.036,4.124-.054,6.429-.09,11.659a9.582,9.582,0,0,0,.21,2.654.93.93,0,0,0,.989.478,3.928,3.928,0,0,0,1.139-.271,4.41,4.41,0,0,1,1.08-.3l.119.106.06.37C837.136,425.879,836.806,426.118,836.177,426.3Z" fill="#000000"/><path d="M847.832,426.292a5.779,5.779,0,0,1-2.79.925,2.563,2.563,0,0,1-2.7-2.757,5.109,5.109,0,0,1,2.161-4.092,15.153,15.153,0,0,1,6.152-2.627v-.373c0-2.371-.837-3.388-2.518-3.312a7.861,7.861,0,0,0-1.711.309c-.384.111-.576.165-.96.287l-.09-.059c-.011-.077-.017-.106-.029-.175a1.844,1.844,0,0,1,1.41-1.8,9.249,9.249,0,0,1,2.522-.35,3.83,3.83,0,0,1,2.849.724c.6.575.869,1.7.807,3.555-.048,1.714-.073,2.594-.122,4.409a6.992,6.992,0,0,0,.358,2.61,2.628,2.628,0,0,0,1.138,1.438l.9.249a.469.469,0,0,1,.54.487c.013.292-.429.617-1.23.906a5.318,5.318,0,0,1-1.531.377c-1.41.027-2.249-.955-2.577-3.135A10.128,10.128,0,0,1,847.832,426.292Zm-.685-6.3a3.794,3.794,0,0,0-2.192,3.242,2.052,2.052,0,0,0,.509,1.421,1.6,1.6,0,0,0,1.289.523,3.482,3.482,0,0,0,2.972-1.938,7.736,7.736,0,0,0,.991-3.955v-.312c-.012-.138-.018-.207-.029-.345A12.127,12.127,0,0,0,847.147,420Z" fill="#000000"/><path d="M862.805,412.853a4.086,4.086,0,0,1,2.221-.967l.12.079.03.266c0,.6,0,.9,0,1.519a.7.7,0,0,1-.691.744l-.84.045a2.913,2.913,0,0,0-2.042.71,2.3,2.3,0,0,0-.451,1,10.088,10.088,0,0,0-.181,1.941c-.074,1.82-.11,2.751-.184,4.674-.031.887-.062,1.863-.122,2.9-.03.115-.342.383-.961.818a3.768,3.768,0,0,1-1.081.634l-.089-.038-.03-.273.03-.388c0-.542.039-1.867.093-3.812.036-1.284.061-2.327.062-3.071,0-.723,0-1.081,0-1.789,0-.875,0-1.306,0-2.159-.089-1.048-.388-1.567-.9-1.552a2.13,2.13,0,0,0-.51.048c-.114.04-.271.14-.481.246l-.6.251-.21-.127-.06-.4c0-.2.271-.348.781-.53.276-.1.414-.146.691-.242.39-.149.659-.238.81-.3,0,0,.45-.205,1.321-.63.432-.2.648-.306,1.079-.506l.3.048.119.159-.029.378c-.013.3-.019.455-.031.763s0,.413,0,.788c.012.24.018.361.03.6A8.251,8.251,0,0,1,862.805,412.853Z" fill="#000000"/><path d="M871.614,426.061a5.639,5.639,0,0,1-2.792.833,2.665,2.665,0,0,1-2.7-2.868,5.073,5.073,0,0,1,2.163-4.108,14.026,14.026,0,0,1,6.154-2.436V417.1c0-2.456-.837-3.548-2.518-3.558a8.046,8.046,0,0,0-1.711.212c-.384.086-.576.126-.96.235l-.09-.068c-.012-.081-.017-.1-.029-.167,0-.819.48-1.352,1.411-1.641a9.421,9.421,0,0,1,2.521-.221,4.065,4.065,0,0,1,2.85.836c.6.584.869,1.724.807,3.643-.049,1.772-.074,2.672-.123,4.514a7.218,7.218,0,0,0,.358,2.651,2.758,2.758,0,0,0,1.14,1.483l.9.283a.488.488,0,0,1,.54.5c.013.289-.428.593-1.23.85a5.291,5.291,0,0,1-1.531.318c-1.411-.022-2.25-1.017-2.579-3.225A9.574,9.574,0,0,1,871.614,426.061Zm-.685-6.416a3.71,3.71,0,0,0-2.193,3.23,2.164,2.164,0,0,0,.509,1.46,1.653,1.653,0,0,0,1.29.574,3.329,3.329,0,0,0,2.973-1.843,7.71,7.71,0,0,0,.992-3.987v-.321l-.029-.356A11.282,11.282,0,0,0,870.929,419.645Z" fill="#000000"/><path d="M888.9,425.023c-1.291,1.381-2.372,2.072-3.243,2.044a4.588,4.588,0,0,1-3.9-1.85,8.72,8.72,0,0,1-1.168-4.957c0-2.771.648-5.139,1.866-6.312a6.34,6.34,0,0,1,4.95-1.627c.961.146,1.441.221,2.4.375.012-1.046.018-1.562.03-2.58a37.677,37.677,0,0,0-.208-3.977l-.029-.3q-.045-.261.72-.341l.3-.036a8.067,8.067,0,0,0,.87-.136c.209-.039.51-.1.9-.208l1.08-.223c.27.088.39.144.39.344,0,.075-.2.186-.57.372a1.6,1.6,0,0,0-.781.713,13.517,13.517,0,0,0-.391,4.083c0,1.335-.031,2.533-.062,4.759-.038,3.111-.057,4.7-.1,7.965,0,1.586.15,2.407.48,2.424a3.9,3.9,0,0,0,.96-.134l.661-.183a1.128,1.128,0,0,1,.269.16.522.522,0,0,1,.09.333c0,.255-.27.459-.84.651l-.81.291a11.935,11.935,0,0,0-1.892.883c-.348.195-.522.293-.87.491a.511.511,0,0,1-.39-.24.618.618,0,0,1-.21-.384l.03-.261c.091-.933.151-1.483.152-1.7v-.185c-.012-.384-.018-.575-.03-.956C889.292,424.6,889.159,424.739,888.9,425.023Zm-.145-10.41a9.245,9.245,0,0,0-1.859-.467c-.3-.043-.6-.085-.9-.1-2.52-.123-3.421.847-3.423,4.389a8.155,8.155,0,0,0,.9,4.1,3.583,3.583,0,0,0,3.09,1.842c1.41.055,2.671-.587,2.941-1.55a13.931,13.931,0,0,0,.182-2c.049-2.336.074-3.479.123-5.732C889.53,414.969,889.2,414.8,888.75,414.613Z" fill="#000000"/><path d="M899.692,426.657c-.036.184-.054.276-.091.461-.029.107-.149.171-.33.233-.684.233-1.026.352-1.71.593a.491.491,0,0,1-.18-.338c-.024-.643-.035-.963-.059-1.6,0-3.48,0-5.163,0-8.473a7.25,7.25,0,0,0-.239-2.41.9.9,0,0,0-.84-.447l-.42.047-.33.054a.542.542,0,0,1-.36-.52c0-.136.3-.249.87-.337l.99-.16c.96-.231,1.44-.345,2.4-.569.33.139.48.29.48.453l-.03.325c0,.382-.031,1.037-.06,2.323-.025.838-.037,1.259-.062,2.106C899.711,421.629,899.705,423.271,899.692,426.657Zm.186-18.859a1.406,1.406,0,0,1-1.621,1.264,1.886,1.886,0,0,1-1.139-.478,1.331,1.331,0,0,1,1.14-2.3A1.645,1.645,0,0,1,899.878,407.8Z" fill="#000000"/><path d="M903.817,428a9.744,9.744,0,0,1-1.56-.5c-.341-.154-.45-.32-.45-1.627v-1.619c.059-.45.24-.679.51-.656a.388.388,0,0,1,.3.129l.12.289v.244a2.625,2.625,0,0,0,2.76,2.8,5.674,5.674,0,0,0,3.03-.613,2.709,2.709,0,0,0,1.74-2.5c0-.937-.51-1.429-1.8-1.571-.6-.066-.9-.1-1.5-.161-2.668-.281-3.958-1.5-3.958-3.838a4.081,4.081,0,0,1,1.41-3.426,4.992,4.992,0,0,1,3.69-.768,10.827,10.827,0,0,1,1.679.39c.889.269,1.35.5,1.35.751a1.91,1.91,0,0,1-.18.849c-.148.289-.27.414-.42.42l-.51-.215a8.329,8.329,0,0,0-2.789-.941c-1.53-.2-2.58.437-2.58,1.776,0,1,.629,1.714,1.86,2.091a8.629,8.629,0,0,0,1.679.333,5.9,5.9,0,0,1,3.539,1.47,3.569,3.569,0,0,1,.929,2.647,4.037,4.037,0,0,1-2.219,3.781,7.9,7.9,0,0,1-4.38.79A12.841,12.841,0,0,1,903.817,428Z" fill="#000000"/><path d="M920.344,427.427a5.289,5.289,0,0,0,2.188-.158,3.6,3.6,0,0,0,1.769-1.155l.36-.428a.76.76,0,0,1,.51-.369.686.686,0,0,1,.269.162l.12.289a2.92,2.92,0,0,1-.6,1.168,17.292,17.292,0,0,1-1.559,1.855,2.317,2.317,0,0,1-1.29.777,9.28,9.28,0,0,1-2.218-.046c-3.748-.381-6.027-3.018-6.027-7.087a7.827,7.827,0,0,1,1.59-5.007,4.277,4.277,0,0,1,4.437-1.46,4.783,4.783,0,0,1,2.638,1.342,3.689,3.689,0,0,1,1.08,2.693c0,1.211-2.428,2-7.256,2.8C916.626,425.407,918.155,427.16,920.344,427.427Zm-.69-6.455a2.137,2.137,0,0,0,1.26-1.978,1.875,1.875,0,0,0-.48-1.265c-.15-.145-.269-.255-.36-.33a2.225,2.225,0,0,0-3.088.669,4.884,4.884,0,0,0-.75,2.736v.384l.03.42A6.745,6.745,0,0,0,919.654,420.972Z" fill="#000000"/></g><path d="M73.116,904.635v-.689c-.03-.239-.06-.388-.06-.478l-.03-.6,3.41.06,6.759.059c1.525,0,3.02-.029,4.7-.059l1.436-.06v1.017L75.03,922.22h7.537c.329,0,.777,0,1.465-.03s1.2-.03,1.586-.03a3.418,3.418,0,0,0,2-.448,2.709,2.709,0,0,0,.568-1.466l.24-1.884H89.3l-.089,2.154-.121,2.272v.419l.031.419-4.846-.03-7.775-.06c-1.406,0-2.782.029-4.217.06H71.142v-.838l14.236-18.393H78.559l-2.033.06a3.924,3.924,0,0,0-1.974.329,7.026,7.026,0,0,0-.6,3.081h-.868l.03-.658v-2.542Z" fill="#000000"/><path d="M108.007,914.923V906.7l-.09-1.136a3.171,3.171,0,0,0-.3-1.256,1.931,1.931,0,0,0-.957-.389l-1.5-.12v-.927l1.436.06,1.943.059,2.124-.059,1.5-.06v.927a11.681,11.681,0,0,0-1.406.12,1.574,1.574,0,0,0-.9.358,4.058,4.058,0,0,0-.478,2.213c-.03.39-.03.748-.03,1.2v7.177c0,3.618-.478,5.622-1.794,6.908-1.347,1.436-3.709,2.244-6.729,2.244-3.081,0-4.4-.628-5.2-1.107a4.278,4.278,0,0,1-2.153-2.752,11.871,11.871,0,0,1-.389-3.589V905.293c0-.568-.06-1.257-.987-1.376a9.545,9.545,0,0,0-1.675-.12v-.927l4.008.119,4.127-.119v.927l-1.405.09a1.347,1.347,0,0,0-.987.3,1.992,1.992,0,0,0-.3,1.077l-.09,1.256v10.5c0,2.183.748,3.858,2.632,4.546a9.562,9.562,0,0,0,3.349.6q3.321,0,4.846-1.525C107.559,919.8,108.007,918.152,108.007,914.923Z" fill="#000000"/><path d="M117.33,902.9l.837-.03,1.046,1.466,1.705,2.242c1.675,2.153,2.722,3.5,4.068,5.085l3.888,4.785,3.29,3.948v-13.07l-.06-1.466a3.324,3.324,0,0,0-.3-1.614c-.119-.239-.628-.359-2.3-.359V902.87l.778.03,2.692.03,2.572-.03.628-.03v1.017l-1.226.059a1.412,1.412,0,0,0-.9.3,4.6,4.6,0,0,0-.508,2.571l-.06,2.393v14.774l-.239.06-2.123-.448L116.97,906.13v12.681c.09,3.678.12,3.558,1.017,3.709l1.645.059V923.6l-1.345-.031-2.094-.029-2.124.029-1.136.031v-1.047c1.346,0,2-.15,2.213-.419a4.123,4.123,0,0,0,.419-2.033l.06-1.974.03-5.593.059-7.716c-.9-1.226-1.585-.778-2.572-.957v-.987l.778.03,1.585.03Z" fill="#000000"/><path d="M159.7,908.193l-.15-2.422a9.826,9.826,0,0,0-6.25-2.154,6.889,6.889,0,0,0-5.563,2.483,9.741,9.741,0,0,0-2.033,6.371c-.15,7.566,5.173,10.377,9.39,10.377a10.528,10.528,0,0,0,5.862-1.645l.3.15-.838,1.555a16.031,16.031,0,0,1-6.37,1.107,15.822,15.822,0,0,1-6.7-1.286,7.776,7.776,0,0,1-2.452-2.3,10.836,10.836,0,0,1-2.184-7.118,10.4,10.4,0,0,1,3.111-7.926c2.064-1.974,4.875-2.96,8.464-2.96a16.975,16.975,0,0,1,6.908,1.195,20.183,20.183,0,0,0-.628,2.932l-.089,1.644Z" fill="#000000"/><path d="M174.383,911.424a7.071,7.071,0,0,1,1.764,4.934,8.1,8.1,0,0,1-.568,3.23,7.885,7.885,0,0,1-2.213,2.871,7.062,7.062,0,0,1-4.845,1.5c-2.063,0-3.439-.509-5.2-2.6a6.926,6.926,0,0,1-1.286-4.546,7.36,7.36,0,0,1,2.483-5.772c.986-1.047,2.691-1.586,5.054-1.586A6.114,6.114,0,0,1,174.383,911.424Zm-9.63,4.306a10.362,10.362,0,0,0,1.166,5.234,3.725,3.725,0,0,0,3.38,2c2.512,0,4.127-1.556,4.127-5.533,0-4.426-1.7-6.968-4.366-6.968S164.753,912.351,164.753,915.73Z" fill="#000000"/><path d="M176.144,903.05a9.6,9.6,0,0,0,2.153-.39,22.308,22.308,0,0,0,2.392-.687l.539.209-.12,3.14v15.194c0,1.2.06,1.614.449,2a3.479,3.479,0,0,0,1.794.268v.808l-1.077-.031-2.661-.029-2.512.029-.928.031v-.808A4.32,4.32,0,0,0,178,922.52a1.249,1.249,0,0,0,.448-1.108V905.621a2.169,2.169,0,0,0-.328-1.435,3.475,3.475,0,0,0-1.974-.329Z" fill="#000000"/><path d="M183.8,903.05a9.586,9.586,0,0,0,2.153-.39,22.334,22.334,0,0,0,2.393-.687l.538.209-.12,3.14v15.194c0,1.2.06,1.614.449,2a3.479,3.479,0,0,0,1.794.268v.808l-1.076-.031-2.662-.029-2.512.029-.928.031v-.808a4.32,4.32,0,0,0,1.825-.268,1.249,1.249,0,0,0,.448-1.108V905.621a2.169,2.169,0,0,0-.328-1.435,3.475,3.475,0,0,0-1.974-.329Z" fill="#000000"/><path d="M194.952,910.2a6.243,6.243,0,0,1,2.9-.748,4.846,4.846,0,0,1,3.708,1.2,7.22,7.22,0,0,1,1.5,2.153,5.581,5.581,0,0,1,.388,2.183c-.029.15-.3.389-.778.718a8.131,8.131,0,0,1-1.285.628,3.3,3.3,0,0,1-1.107.18h-6.549a6.018,6.018,0,0,0,1.524,4.515,5.28,5.28,0,0,0,3.679,1.436,6.162,6.162,0,0,0,3.081-.718,4.685,4.685,0,0,0,.807-.538l.24.18-.3.508-.209.568a9.159,9.159,0,0,1-2.273,1.2,10.227,10.227,0,0,1-2.632.36,6.247,6.247,0,0,1-4.366-1.317,7.122,7.122,0,0,1-1.795-2.632,10.593,10.593,0,0,1-.418-3.05c0-2.363.538-4.1,1.615-5.174A7.835,7.835,0,0,1,194.952,910.2Zm-.389,1.645a6.489,6.489,0,0,0-.837,3.47l1.345.059,3.021.06,1.825-.03.867-.03v-1.315a3.321,3.321,0,0,0-.718-2.393,3.391,3.391,0,0,0-1.286-.957,3.991,3.991,0,0,0-1.346-.239A3.22,3.22,0,0,0,194.563,911.842Z" fill="#000000"/><path d="M214.618,913.367a2.937,2.937,0,0,0-.478-1.465,5.082,5.082,0,0,0-3.111-.987c-2.6.239-3.947,1.106-4.037,4.815,0,2.542.478,4.157,2.153,5.682a4.437,4.437,0,0,0,3.021,1.108,7.573,7.573,0,0,0,3.439-.928l.27.239-.688,1.2a8.392,8.392,0,0,1-4.158.928,6.091,6.091,0,0,1-4.964-1.914,7.546,7.546,0,0,1-1.586-4.905c0-1.794.449-3.918,1.526-4.994a9.391,9.391,0,0,1,2.811-1.975,6.922,6.922,0,0,1,3.439-.718,6.5,6.5,0,0,1,2.124.239,4.169,4.169,0,0,1,1.406.569l-.419,3.8h-.748Z" fill="#000000"/><path d="M218.725,906.817l-.06-.687,2.422-1.2.359.239-.119,1.4c0,.151-.031.658-.06,1.586s-.06,1.734-.06,2.542c1.2,0,2.333-.09,2.781-.12l1.167-.119-.15,1.525h-3.828v7.088a4.834,4.834,0,0,0,.508,2.661c.21.389.718.6,1.5.6l.986-.09.838-.149.18.419-.9.657-1.016.6-.659.09-.837.09a3.155,3.155,0,0,1-2.512-.808,5.437,5.437,0,0,1-.628-3.081v-8.074h-2.093v-.449l1.166-.479,1.046-.538Z" fill="#000000"/><path d="M225.6,910.706a15.321,15.321,0,0,0,4.456-1.227l.449.18v10.916c0,1.076.059,1.526.418,1.914.209.209.837.3,1.914.3v.808l-1.764-.031-2.3-.029-1.974.029-1.166.031v-.808a3.474,3.474,0,0,0,1.854-.3,1.9,1.9,0,0,0,.418-1.466v-7.985a1.425,1.425,0,0,0-.358-1.166,1.987,1.987,0,0,0-1.346-.329h-.6Zm5.054-5.952A1.63,1.63,0,0,1,229,906.369a1.679,1.679,0,0,1-1.675-1.615,1.642,1.642,0,0,1,1.675-1.7A1.691,1.691,0,0,1,230.649,904.754Z" fill="#000000"/><path d="M245.122,911.424a7.067,7.067,0,0,1,1.765,4.934,8.083,8.083,0,0,1-.569,3.23,7.885,7.885,0,0,1-2.213,2.871,7.061,7.061,0,0,1-4.845,1.5c-2.063,0-3.439-.509-5.2-2.6a6.92,6.92,0,0,1-1.286-4.546,7.358,7.358,0,0,1,2.482-5.772c.987-1.047,2.691-1.586,5.054-1.586A6.113,6.113,0,0,1,245.122,911.424Zm-9.63,4.306a10.351,10.351,0,0,0,1.167,5.234,3.723,3.723,0,0,0,3.379,2c2.512,0,4.127-1.556,4.127-5.533,0-4.426-1.7-6.968-4.366-6.968S235.492,912.351,235.492,915.73Z" fill="#000000"/><path d="M251.991,912.23a18.3,18.3,0,0,1,2.722-2.182,4.551,4.551,0,0,1,2.3-.479,4.863,4.863,0,0,1,3.289,1.107c.927.718,1.376,2,1.376,3.828v6.759a1.578,1.578,0,0,0,.389,1.167,3.142,3.142,0,0,0,1.824.358v.808h-1.166l-1.5-.06a9.324,9.324,0,0,0-1.614.06h-.659l.09-1.076.06-.869v-6.967a3.162,3.162,0,0,0-1.047-2.513,3.815,3.815,0,0,0-2.422-.808,3.42,3.42,0,0,0-1.765.479,2.714,2.714,0,0,0-1.794,2.572V921.5c0,.568.12.9.389,1.047a4.721,4.721,0,0,0,1.884.239v.808l-2.034-.06-2.183-.059-1.705.059-1.226.06v-.808h.359c.6-.149,1.944.509,1.944-1.4V912.59c0-.688-.269-1.047-.838-1.047h-1.5v-.808c.449-.089.748-.119.987-.149a8.639,8.639,0,0,0,1.346-.329,9.765,9.765,0,0,0,2.183-.688l.359.09-.03.9Z" fill="#000000"/><path d="M278.9,902.87a13.252,13.252,0,0,0,2.543-.419,15.388,15.388,0,0,0,2.093-.6l.3.208v18.9c0,1.435.419,1.4,1.137,1.644a5.3,5.3,0,0,0,1.316.121v.867l-1.077-.06-1.107-.059-1.435.059-1.406.06v-2.632l-2.931,2.452-1.106.329a3.952,3.952,0,0,1-1.137.15c-3.02,0-5.8-2.573-5.8-6.52a7.744,7.744,0,0,1,1.436-4.815,9.224,9.224,0,0,1,2.572-1.944,6.483,6.483,0,0,1,3.26-1.106,7.333,7.333,0,0,1,3.708.9v-5.921c0-.628-.568-.748-2.363-.748Zm-4.844,9.272a5.917,5.917,0,0,0-1.316,4.157,5.713,5.713,0,0,0,1.375,4.1,4.153,4.153,0,0,0,3.051,1.5,3.734,3.734,0,0,0,4.1-3.829v-5.083a3.836,3.836,0,0,0-1.734-1.5,5.091,5.091,0,0,0-2.6-.748A3.894,3.894,0,0,0,274.057,912.142Z" fill="#000000"/><path d="M290.391,910.2a6.246,6.246,0,0,1,2.9-.748,4.843,4.843,0,0,1,3.708,1.2,7.183,7.183,0,0,1,1.5,2.153,5.581,5.581,0,0,1,.389,2.183c-.03.15-.3.389-.778.718a8.093,8.093,0,0,1-1.286.628,3.291,3.291,0,0,1-1.107.18h-6.549a6.014,6.014,0,0,0,1.525,4.515,5.279,5.279,0,0,0,3.679,1.436,6.161,6.161,0,0,0,3.08-.718,4.689,4.689,0,0,0,.808-.538l.239.18-.3.508-.209.568a9.165,9.165,0,0,1-2.274,1.2,10.218,10.218,0,0,1-2.631.36,6.251,6.251,0,0,1-4.367-1.317,7.118,7.118,0,0,1-1.794-2.632,10.592,10.592,0,0,1-.419-3.05c0-2.363.539-4.1,1.615-5.174A7.849,7.849,0,0,1,290.391,910.2ZM290,911.842a6.489,6.489,0,0,0-.837,3.47l1.346.059,3.02.06,1.825-.03.867-.03v-1.315a3.316,3.316,0,0,0-.718-2.393,3.376,3.376,0,0,0-1.286-.957,3.99,3.99,0,0,0-1.345-.239A3.22,3.22,0,0,0,290,911.842Z" fill="#000000"/><path d="M306.027,902.9l1.735.03,1.974-.03.927-.03c.389,1.047.837,2.033,1.585,3.708L314.4,911.1l2.244,4.485,1.824,3.739c.448-1.047.987-2.243,1.7-3.709l2.154-4.515,2.123-4.456,1.645-3.769.987.03,1.765.03,2.063-.03.778-.03v.927a8.134,8.134,0,0,0-1.5.09,2.244,2.244,0,0,0-.986.3,1.671,1.671,0,0,0-.24.807l-.06,1.077V919.2l.09,1.765a2.911,2.911,0,0,0,.3,1.256,2.283,2.283,0,0,0,.987.3l1.466.088v.988h-.9l-3.11-.06a31.368,31.368,0,0,0-3.26.06H323.7v-.988h.538c.239,0,.658-.059.807-.059.778,0,1.167-.329,1.167-1.017l.089-1.256V906.07l-1.914,4.008-2.3,4.845-2.273,4.875-1.764,4.037h-.568l-1.824-3.948-2.274-4.815-2.332-4.785L309.2,906.31v5.532l.03,6.52.029,2.093a2.852,2.852,0,0,0,.359,1.765,3.117,3.117,0,0,0,1.226.388l1.227.09v.9h-1.017l-2.183-.06a25.435,25.435,0,0,0-2.722.06H305.1v-.9a3.7,3.7,0,0,0,2.184-.538,2.41,2.41,0,0,0,.328-1.435l.12-1.585.12-4.726.089-8.972-.089-.628c-.03-.6-.718-.868-2.752-.957l.03-.987Z" fill="#000000"/><path d="M345.63,909.659l-.09,1.256-.06,1.5v8.734a1.791,1.791,0,0,0,.359,1.286,3.331,3.331,0,0,0,2,.358v.808l-.807-.031-1.526-.029-1.615.029-.927.031V921.2a15.146,15.146,0,0,1-2.811,2.213,5.076,5.076,0,0,1-2.632.539c-2.632,0-4.008-1.107-4.008-3.889v-7.087c0-1.794-.957-1.316-2.213-1.465v-.808a13.781,13.781,0,0,0,4.576-1.2l.389.209-.09,1.795-.09,1.734v6.011a2.714,2.714,0,0,0,.628,2.153,4.385,4.385,0,0,0,1.077.629,3.375,3.375,0,0,0,1.047.119,4.165,4.165,0,0,0,4.067-2.722V912.8c0-.867-.329-1.285-1.2-1.285h-1.346v-.808a7.039,7.039,0,0,0,.9-.06,13.419,13.419,0,0,0,1.526-.33,15.541,15.541,0,0,0,2.452-.806Z" fill="#000000"/><path d="M355.905,909.659a12.709,12.709,0,0,1,1.824.479l-.09,1.4-.03,2.063h-.688v-.687a2.847,2.847,0,0,0-.568-1.466,4.708,4.708,0,0,0-2.9-.986,2.334,2.334,0,0,0-2.512,2.272,1.785,1.785,0,0,0,1.106,1.795,13.764,13.764,0,0,0,2.752.837,7.772,7.772,0,0,1,2.811,1.107,2.728,2.728,0,0,1,1.2,2.512,4.374,4.374,0,0,1-2.183,4.037,6.1,6.1,0,0,1-3.649.928,13.664,13.664,0,0,1-2.183-.18l-1.855-.359a10.181,10.181,0,0,0,.239-2l.09-2.153h.777a6.812,6.812,0,0,0,.121,1.705c.119.867.538,1.256,1.614,1.734a5.412,5.412,0,0,0,1.8.329c1.914,0,3.14-1.166,3.14-2.751,0-.957-.269-1.555-.837-1.825a10.637,10.637,0,0,0-1.585-.6,14.386,14.386,0,0,0-1.765-.389,6.742,6.742,0,0,1-2.243-1.017,3.089,3.089,0,0,1-1.2-2.782,4.044,4.044,0,0,1,1.2-2.841,5.025,5.025,0,0,1,3.828-1.315A8.064,8.064,0,0,1,355.905,909.659Z" fill="#000000"/><path d="M359.03,910.706a15.321,15.321,0,0,0,4.456-1.227l.449.18v10.916c0,1.076.059,1.526.418,1.914.209.209.837.3,1.914.3v.808l-1.765-.031-2.3-.029-1.974.029-1.166.031v-.808a3.471,3.471,0,0,0,1.854-.3,1.9,1.9,0,0,0,.419-1.466v-7.985a1.425,1.425,0,0,0-.359-1.166,1.986,1.986,0,0,0-1.346-.329h-.6Zm5.054-5.952a1.63,1.63,0,0,1-1.645,1.615,1.679,1.679,0,0,1-1.675-1.615,1.642,1.642,0,0,1,1.675-1.7A1.691,1.691,0,0,1,364.084,904.754Z" fill="#000000"/><path d="M379.275,928.829l.06.808a1.622,1.622,0,0,0,.3.9,1.834,1.834,0,0,0,.867.27l1.316.119v.867l-1.525-.09-2.333-.029-2.572.029-1.226.09v-.867l1.435-.09a1.735,1.735,0,0,0,.9-.269,2.126,2.126,0,0,0,.269-.807l.06-.928V921.5l-3.38,2.094-.628.09-.987.119a4.728,4.728,0,0,1-3.5-1.256,7.47,7.47,0,0,1-1.7-2.512,9.878,9.878,0,0,1-.419-2.932,7.269,7.269,0,0,1,1.734-4.875,8.982,8.982,0,0,1,4.486-2.481,7.441,7.441,0,0,1,1.7-.18,6.794,6.794,0,0,1,2.542.449l1.346.449a1.472,1.472,0,0,0,.628-.3l.748-.538.538.269a16.5,16.5,0,0,0-.509,2.991c0,.568-.029,1.226-.089,2.034-.03.807-.06,1.286-.06,1.376ZM371.469,911.1c-1.166.388-2.781,1.943-2.781,5.2a7.017,7.017,0,0,0,1.166,4.007,3.748,3.748,0,0,0,3.2,1.764,4.626,4.626,0,0,0,3.828-1.914v-7.985a6.165,6.165,0,0,0-3.828-1.436A3.61,3.61,0,0,0,371.469,911.1Z" fill="#000000"/><path d="M395.35,909.659l-.09,1.256-.06,1.5v8.734a1.791,1.791,0,0,0,.359,1.286,3.327,3.327,0,0,0,2,.358v.808l-.807-.031-1.525-.029-1.615.029-.927.031V921.2a15.146,15.146,0,0,1-2.812,2.213,5.072,5.072,0,0,1-2.631.539c-2.632,0-4.008-1.107-4.008-3.889v-7.087c0-1.794-.957-1.316-2.213-1.465v-.808a13.787,13.787,0,0,0,4.576-1.2l.389.209-.09,1.795-.09,1.734v6.011a2.714,2.714,0,0,0,.628,2.153,4.385,4.385,0,0,0,1.077.629,3.375,3.375,0,0,0,1.047.119,4.166,4.166,0,0,0,4.067-2.722V912.8c0-.867-.329-1.285-1.2-1.285h-1.346v-.808a7.039,7.039,0,0,0,.9-.06,13.374,13.374,0,0,0,1.525-.33,15.508,15.508,0,0,0,2.452-.806Z" fill="#000000"/><path d="M401.665,910.2a6.239,6.239,0,0,1,2.9-.748,4.847,4.847,0,0,1,3.709,1.2,7.22,7.22,0,0,1,1.5,2.153,5.581,5.581,0,0,1,.388,2.183c-.03.15-.3.389-.778.718a8.131,8.131,0,0,1-1.285.628,3.3,3.3,0,0,1-1.107.18h-6.55a6.018,6.018,0,0,0,1.525,4.515,5.28,5.28,0,0,0,3.679,1.436,6.162,6.162,0,0,0,3.081-.718,4.685,4.685,0,0,0,.807-.538l.24.18-.3.508-.209.568a9.176,9.176,0,0,1-2.273,1.2,10.227,10.227,0,0,1-2.632.36,6.247,6.247,0,0,1-4.366-1.317,7.122,7.122,0,0,1-1.8-2.632,10.593,10.593,0,0,1-.418-3.05c0-2.363.538-4.1,1.615-5.174A7.835,7.835,0,0,1,401.665,910.2Zm-.389,1.645a6.489,6.489,0,0,0-.838,3.47l1.346.059,3.021.06,1.824-.03.868-.03v-1.315a3.321,3.321,0,0,0-.718-2.393,3.391,3.391,0,0,0-1.286-.957,4,4,0,0,0-1.346-.239A3.22,3.22,0,0,0,401.276,911.842Z" fill="#000000"/><path d="M417.689,905.621c.868-.268,1.526-.448,2-.657s1.047-.39,1.735-.658c1.346-.569,2.662-1.017,4.127-1.705v.628a2.881,2.881,0,0,0-.508.539,1.187,1.187,0,0,0-.21.717V919.2l.03,2.064c.09,1.106.539,1.286,3.26,1.376v.957l-2.631-.031-3.021-.029-2.393.029-1.465.031v-.957h1.106a6.453,6.453,0,0,0,1.944-.389c.329-.27.539-1.765.539-3.439V907.146l-.03-1.016-.03-1.017-2.273.9a21.178,21.178,0,0,0-2.243,1.047l.03-.688Z" fill="#000000"/></g></svg>
