<svg xmlns="http://www.w3.org/2000/svg" width="1000" height="988" viewBox="0 0 1000 988"><g id="Artboard"><rect id="Tint" width="1000" height="988" fill="#58595b"/></g><g id="Text"><path d="M411.91,333.491v-1.249q.073-.968.916-.967a.848.848,0,0,1,.952.967v5.639a2.007,2.007,0,0,1-2.234,2.216,30.4,30.4,0,0,1-3.113.161q-.915.162-.915,3.1a.7.7,0,0,0,.476.443q2.6-.16,3.991-.161,1.722.162,1.722,5.035,0,3.666-.953,4.351a9.248,9.248,0,0,0-1.464.927,12.4,12.4,0,0,0-1.355,1.49,14.99,14.99,0,0,0-1.941,4.673,22.892,22.892,0,0,0-.44,2.417q-.11,1.288-.183,2.215-.11,1.006-.952,1.007-.805,0-.806-1.168a25.352,25.352,0,0,1,.44-4.149,19.325,19.325,0,0,1,1.355-4.713,11.621,11.621,0,0,1,1.611-2.377,9.4,9.4,0,0,1,1.648-1.45q1.1-.483,1.1-2.941,0-3.545-.843-3.544a32.871,32.871,0,0,0-3.991.483q-1.394,0-1.392-1.571.073-6,2.673-6h2.454q1.318,0,1.318-1.128l-.036-1.934a48.311,48.311,0,0,0-6.519.685q-.843,0-.915-1.128,0-.643.842-.806Q405.94,333.651,411.91,333.491Zm9.522,4.713q2.013.12,3.772.282,2.087.323,2.087,1.49a22.208,22.208,0,0,1,.147,4.149,14.772,14.772,0,0,1-.257,3.384q0,2.619-4.98,2.78.036,1.289.036,2.377,2.161,0,5.127.2,1.025.16,1.026.805,0,1.128-1.026,1.128-2.233,0-5.127-.161.073,7.573.147,10.111,0,1.168-1.026,1.168-.805,0-.805-1.329.036-1.41.036-9.95-2.307,0-5.2.161a.941.941,0,0,1-1.062-.967q0-.644.842-.966a52.785,52.785,0,0,1,5.457-.2v-2.377q-4.5,0-5.017-2.78a22.34,22.34,0,0,1-.22-3.021v-4.512a2.621,2.621,0,0,1,1.8-1.49A25.625,25.625,0,0,1,421.432,338.2Zm-5.53-6.486q.33,0,1.648,2.095a7.018,7.018,0,0,1,1.245,2.618.679.679,0,0,1-.769.766q-.4,0-.916-.927-1.245-1.773-2.05-2.779a.659.659,0,0,1-.257-.6Q414.876,331.718,415.9,331.718Zm1.172,11.763h3.552V340.1q-3.406,0-3.406,1.007A19.227,19.227,0,0,0,417.074,343.481Zm3.552,5.035v-3.263H417.11a9.943,9.943,0,0,0,.33,1.934Q417.659,348.356,420.626,348.516Zm-.513-17.241q.4,0,1.721,2.055a6.475,6.475,0,0,1,1.319,2.618.678.678,0,0,1-.769.765q-.4,0-.952-.926-1.319-1.773-2.088-2.74a.666.666,0,0,1-.293-.644Q419.125,331.275,420.113,331.275Zm2.051,8.822q0,1.773.037,3.384l3.662-.121q-.037-1.49-.11-2.417Q425.753,340.258,422.164,340.1Zm3.7,5.035-3.662.121v3.263q2.82-.161,3.186-1.168A4.773,4.773,0,0,0,425.863,345.132Zm-1.245-14.018q.364,0,1.684,2.054a6.483,6.483,0,0,1,1.319,2.619q0,.765-.806.765-.44,0-.916-.967-1.317-1.772-2.05-2.7a.666.666,0,0,1-.293-.644Q423.628,331.114,424.618,331.114Z" fill="#000000"/><path d="M453.2,336.431q4.029.122,4.981.282,2.746.162,2.746,4.391,0,2.861-1.611,3.384a20.283,20.283,0,0,1-5.164.644v.766q5.017,0,9.888.362.843,0,.842.766,0,1.168-.732,1.168-1.868,0-4.761-.161-2.637-.161-5.163-.161.549.927,4.1,1.933,4.286.927,4.285,5a53.643,53.643,0,0,0,1.172,9.185q0,.966-.769.967a.939.939,0,0,1-1.062-.806,50.346,50.346,0,0,1-1.209-9.708q0-2.256-3.039-3.183a37.082,37.082,0,0,1-4.541-1.973,18.8,18.8,0,0,1-4.725,2.135,4.091,4.091,0,0,0-3.222,3.544q-.33,7.413-1.355,9.185-.147.6-.989.6-.7,0-.7-.765a31.191,31.191,0,0,0,1.172-8.379q0-4.35,5.017-5.962,3.369-.846,3.845-1.772h-4.834q-3.7.16-4.8.161c-.439,0-.684-.336-.732-1.007q0-.765,1.208-.927,4.65,0,9.229-.2v-.766q-4.469-.161-5.164-.644-1.613-.685-1.721-3.384,0-3.384,2.27-4.229A24.471,24.471,0,0,1,453.2,336.431Zm-5.127-1.007v.363q0,.765-.805.765-.587,0-.806-.967v-.161a3.875,3.875,0,0,1-4.028-3.706q.145-.925.915-.926.732,0,.806.926a2.24,2.24,0,0,0,2.27,1.934l-.036-2.86q0-.685.805-.846.952,0,.952.846l-.073,2.86a2.429,2.429,0,0,0,2.088-1.773,1.488,1.488,0,0,1,.842-.926.95.95,0,0,1,1.062,1.088Q451.442,334.941,448.074,335.424Zm4.431,18.531h-1.757a1.574,1.574,0,0,0-1.026,1.49V357.5q0,5.478-.952,7.774-.073.483-.732.483-.954,0-.953-.805a20.237,20.237,0,0,0,1.026-7.452,19.686,19.686,0,0,0-.183-3.384,1.962,1.962,0,0,1,1.538-1.934,29.964,29.964,0,0,1,3.039-.121v-1.49a.978.978,0,0,1,.733-.766.814.814,0,0,1,.915.927v1.329q1.978.122,3.04.282a1.928,1.928,0,0,1,1.391,1.934,37.3,37.3,0,0,1-.183,3.746,29.672,29.672,0,0,0,.257,4.189,7.728,7.728,0,0,0,.549,2.216,2.32,2.32,0,0,1,.22.846q-.11.643-.879.644a.888.888,0,0,1-.916-.805q-.805-1.45-.805-7.09.036-1.611.036-2.578a1.173,1.173,0,0,0-1.062-1.329,7.349,7.349,0,0,0-1.648-.161q0,9.868.074,11.48a.891.891,0,0,1-.989.927q-.513,0-.733-.766Zm6.519-13.979q-.184-1.651-1.025-1.651a27.687,27.687,0,0,0-4.8-.283q-2.856.162-4.687.444-.916,0-1.245,1.49Zm-11.755,1.773q.219.805.659.966.585.645,5.383.645a18.645,18.645,0,0,0,4.688-.322q.988-.161,1.1-1.612Zm12.78-6.325v.161q0,.968-.732.967-.66,0-.879-.967v-.322a4.012,4.012,0,0,1-4.028-3.545q.183-.925.879-.926.768,0,.842.926a2.509,2.509,0,0,0,2.307,1.934l-.037-2.7q0-.685.843-.846.879,0,.879.846l-.037,2.7a2.505,2.505,0,0,0,2.2-1.934q.33-.765.806-.765a.967.967,0,0,1,1.1,1.088Q463.564,335.1,460.049,335.424Z" fill="#000000"/><path d="M481.968,335.585l4.284-1.571v-1.772q.147-.846.806-.846,1.026,0,1.025.846v10.634q-.219,3.384-2.16,4.311a9.144,9.144,0,0,1-3.772,1.772q-.22,14.865-1.282,17.121a.873.873,0,0,1-.952.644q-.733,0-.806-1.128,0-.323.33-2.256.366-2.295.586-5.156.257-4.673.33-14.542a69.722,69.722,0,0,0-.477-10.474q.183-1.127.953-1.127,1.024,0,1.025,1.289Q481.894,334.5,481.968,335.585Zm.183,5.358,4.1-1.289v-3.706l-4.174,1.611Q482.15,339.17,482.151,340.943Zm0,5.8q.513-.161,1.208-.323,2.894-1.167,2.893-3.706v-1.128l-4.065,1.289v.927Q482.187,345.254,482.151,346.744Zm3.589,3.988a.908.908,0,0,1-1.026-.927c0-.348.269-.631.806-.846q1.355-.161,4.321-.282,1.832,0,4.541.121.952.162.952,1.007a.83.83,0,0,1-.952.927H493.8q.038,1.773.074,3.706H494.9q.988.2.989,1.007,0,.966-.916.967a5.13,5.13,0,0,1-1.025-.2q.147,4.392.513,8.218,0,1.168-.733,1.168-.879,0-1.136-1.168-.219-3.544-.329-8.218h-4.1q-.183,7.936-1.1,8.9a.8.8,0,0,1-.842.644c-.439,0-.684-.336-.732-1.007a7.318,7.318,0,0,1,.256-1.087,12.441,12.441,0,0,0,.512-2.619q.147-1.611.22-4.632a4.59,4.59,0,0,0-1.574.161q-.771,0-.843-1.128,0-.805,1.208-.806a3.82,3.82,0,0,1,1.246-.2,4.758,4.758,0,0,1,.036-.483,15.5,15.5,0,0,0-.182-3.062v-.161Zm2.417,3.545h4.065q-.037-1.773-.037-3.545a15.205,15.205,0,0,0-2.27-.161h-1.832a1.416,1.416,0,0,1,.038.322q.035,1.451.036,3.223Zm9.448-5.922a8.928,8.928,0,0,1-4.248-1.611,4.519,4.519,0,0,1-1.941-4.029q0-5.317.074-10.473a1.12,1.12,0,0,1,.915-1.128q.953.282.952.927-.036,1.007-.037,1.772l4.651,2.457q.109-1.45.293-2.94.147-1.29,1.062-1.289c.634,0,.953.376.953,1.127a78.31,78.31,0,0,0-.879,11.32q0,10.313.4,15.952.513,4.311.549,5.317a.912.912,0,0,1-.732.967,1.348,1.348,0,0,1-1.135-.806A159.423,159.423,0,0,1,497.605,348.355Zm-.037-5.317-4.32-1.934q-.039.645-.038,1.249a3.417,3.417,0,0,0,1.758,3.062q.916.483,1.795.845a4.3,4.3,0,0,0,.805.484v-3.706Zm.221-4.834-4.5-2.417q0,1.611-.036,3.182l4.394,2.135Q497.678,339.654,497.789,338.2Z" fill="#000000"/><path d="M522.49,346.744q.037,11.923.22,17.845,0,1.329-.989,1.329-.843,0-.915-2.094v-14.18q-1.5,2.256-2.564,3.706-1.171,1.45-1.684,1.45a1.078,1.078,0,0,1-.843-1.128,1.929,1.929,0,0,1,.623-1.168,23.439,23.439,0,0,0,2.051-2.538q2.452-3.705,2.453-4.713,0-1.449-2.673-3.061-1.318-.765-1.318-1.45.293-.927.989-.927a5.35,5.35,0,0,1,2.93,1.611Q523,343.359,523,345.132A3.849,3.849,0,0,1,522.49,346.744Zm-.879-8.863v.927q0,1.006-.841,1.007-.624,0-.843-1.007l-.036-.927q-3.37-.483-3.883-4.713c.1-.617.379-.926.843-.926.415,0,.646.309.7.926q.364,2.779,2.344,3.1l-.037-4.552q0-.443.841-.765.99,0,.99.765l-.074,4.552a3.533,3.533,0,0,0,2.16-2.94q.294-.766.77-.766a.815.815,0,0,1,.916.927Q524.869,337.4,521.611,337.881Zm6.958,8.218q4.248,0,4.468-1.289.549-.684.549-3.867a.856.856,0,0,1,.769-.967q.843,0,.916.967l-.22,3.384q0,3.544-6.482,3.545,0,.643.036,1.249a2.978,2.978,0,0,0,1.429,2.779,17.788,17.788,0,0,1,3.882,1.933,6.332,6.332,0,0,1,2.527,3.384,19.253,19.253,0,0,1,1.172,7.372q0,1.007-.916,1.007-.805,0-.916-1.007a20.854,20.854,0,0,0-1.281-7.211,5.388,5.388,0,0,0-3.553-2.94,6.721,6.721,0,0,1-3.076-1.934,4.792,4.792,0,0,1-1.025-3.383q0-4.634-.147-8.863.111-.925.879-.926.879,0,.916.926Q528.534,343.038,528.569,346.1Zm5.054-8.218v.605q0,1.006-.806,1.007-.694,0-.915-1.007v-.605q-3.224-.483-3.7-4.713.147-.926.77-.926.695,0,.768.926.33,2.619,2.124,3.1l-.037-4.391q0-.483.916-.765.952,0,.952.765l-.073,4.391q1.684-.483,2.124-2.94.293-.766.7-.766.988,0,.989.927Q536.81,337.4,533.623,337.881Z" fill="#000000"/><path d="M563.562,361.367q6,0,9.667.2,1.135.161,1.136,1.088c0,.778-.343,1.168-1.025,1.168q-.771,0-3.59-.323h-5.566q-2.966,0-6.335.323a29.122,29.122,0,0,0-4.066.161q-.842,0-.951-1.329,0-.765,1.355-.927Zm.878-27.192h.074a50.129,50.129,0,0,1,6.665.323q2.747.443,2.747,2.054a15.5,15.5,0,0,1-.221,2.618q0,3.183.147,5.64a21.113,21.113,0,0,0,.256,3.062,9.818,9.818,0,0,1,.111,1.087c-.1.457-.428.685-.99.685a.939.939,0,0,1-.989-.846,82.531,82.531,0,0,1-.329-9.628q.074-.966.073-1.611,0-1.127-2.38-1.128a35.913,35.913,0,0,0-5.42-.322q-3.624,0-6.335.161-2.528.282-2.527,1.289v1.773a56.116,56.116,0,0,1-.55,9.627.707.707,0,0,1-.805.685q-1.062,0-1.063-.967a47.135,47.135,0,0,0,.66-9.345,9.7,9.7,0,0,0-.256-2.9q.11-1.611,3.04-2.095,2.341-.161,6.152-.161a7.743,7.743,0,0,0-.953-2.457,1.422,1.422,0,0,1,1.025-1.088,1.76,1.76,0,0,1,.879.645,3.676,3.676,0,0,1,1.026,2.538A1.6,1.6,0,0,1,564.44,334.175Zm-.768,10.474a20.415,20.415,0,0,1,4.467.483q2.416.122,2.418,6.123,0,5.157-1.465,5.8-1.284,1.128-5.42,1.128-4.727,0-5.348-.967-1.392-1.329-1.5-5.962,0-4.833,2.015-5.84A11.266,11.266,0,0,1,563.672,344.649Zm-.074-5.156q3.479,0,5.676.161a1.022,1.022,0,0,1,.99,1.088q0,1.007-.916,1.007-.477,0-2.2-.162h-3.369q-1.758,0-3.662.162a13.786,13.786,0,0,0-2.381.121c-.511,0-.793-.376-.842-1.128q0-.927,1.246-.927Q560.559,339.655,563.6,339.493Zm5.09,10.8q-.109-3.264-.878-3.263a13.668,13.668,0,0,0-8.057.322q-.915,0-1.172,3.223ZM558.654,352.5a6.645,6.645,0,0,0,.549,2.3q.513,1.249,4.469,1.249,3.368,0,4.1-.6.805-.322.915-3.263Z" fill="#000000"/><path d="M600.422,337.72q6.261,0,10.18.161a1.037,1.037,0,0,1,1.025,1.088q0,1.008-.951,1.007-.807,0-3.773-.161h-5.786q-3.148,0-6.665.161-3.4.122-4.248.121t-.915-1.128q0-.925,1.318-.927Q594.964,337.883,600.422,337.72Zm-.514-5q3.112,0,5.055.161a1.056,1.056,0,0,1,1.025,1.128q0,.807-.953.806-.4,0-1.94-.161h-3.076q-1.575,0-3.3.161-1.684.12-2.161.121-.734,0-.806-.927,0-.966,1.246-.967Q597.161,332.886,599.908,332.725Zm.184,14.623q3.222,0,5.2.161a1.106,1.106,0,0,1,1.025,1.168.848.848,0,0,1-.952.967q-.4,0-2.013-.161H600.2q-1.575,0-3.332.161a9.184,9.184,0,0,0-2.234.161q-.734,0-.8-1.128,0-.806,1.244-.967Q597.272,347.509,600.092,347.348Zm-.037-4.633q3.222,0,5.2.161.987.162.988.927,0,1.008-.916,1.007c-.268,0-.928-.054-1.976-.161H600.2q-1.575,0-3.369.161a8.948,8.948,0,0,0-2.2.161q-.7,0-.769-1.168,0-.765,1.172-.765Q597.272,342.877,600.055,342.715Zm-3.479,11.24,7.251-.122c.025-.537.036-1.087.036-1.651a1.043,1.043,0,0,1,1.136-.927,1.108,1.108,0,0,1,.989,1.249,28.193,28.193,0,0,1-.55,6.607q-.4,4.712-5.2,4.874-4.98,0-5.31-5a56.2,56.2,0,0,1-.329-6.808q.256-.927.952-.927a.907.907,0,0,1,1.025.927Zm7.178,1.772-7.141.322q.072,1.451.147,2.457.108,3.384,3.4,3.545,3.15,0,3.405-3.384Q603.682,357.5,603.754,355.727Z" fill="#000000"/><g id="touhou_kaeiduka" data-name="touhou kaeiduka"><path d="M206.027,373.882c0-.264-.016-.633-.064-1.125-.048-.51-.064-.861-.064-1.072a1.629,1.629,0,0,1,.8-1.653,25.434,25.434,0,0,1,.24,3.358c.015.72.207,1.16.542,1.283.336.035.656.07.975.123.368.105.559.492.591,1.178a2.039,2.039,0,0,0-1.645.685,5.259,5.259,0,0,0-.463,2.162,7.535,7.535,0,0,0,.095,1.582,14.979,14.979,0,0,1,.144,1.53,1.844,1.844,0,0,1-.959,1.793,10.42,10.42,0,0,1-.176-1.987c0-.369.017-.931.064-1.687s.064-1.3.064-1.67A9.363,9.363,0,0,0,206,376.5a5.3,5.3,0,0,0-1.166.334,3.1,3.1,0,0,1-.927.264c-.367,0-.623-.282-.735-.862.591-.193,1.166-.369,1.757-.562A1.533,1.533,0,0,0,206,374.427C206.011,374.269,206.027,374.075,206.027,373.882Z" fill="#000000"/><path d="M218.377,379.665a1.368,1.368,0,0,1,.384.984,1.9,1.9,0,0,1-1.358,1.793,15.458,15.458,0,0,1-5.56,1.5c-1.55,0-2.732-.651-2.732-1.653a2.878,2.878,0,0,1,.767-1.74,5,5,0,0,1,1.422-1.213,5.774,5.774,0,0,1,2.684-.615,25.081,25.081,0,0,1,3.179.369A2.1,2.1,0,0,1,218.377,379.665Zm-5.4,3.164a8.47,8.47,0,0,0,5.368-1.933,5.546,5.546,0,0,0-3.547-1.125,5.951,5.951,0,0,0-2.684.6,4.4,4.4,0,0,0-2,1.811A5.952,5.952,0,0,0,212.978,382.829Z" fill="#000000"/><path d="M223.412,382.038a2.2,2.2,0,0,0,.7-1.142,2.946,2.946,0,0,0,.048-.528,3.8,3.8,0,0,0-.112-.861,3.793,3.793,0,0,1-.112-.686c0-.369.288-.615.879-.773.08.685.176,1.353.256,2.021a17.856,17.856,0,0,1,.144,2.022,7.469,7.469,0,0,1-.16,1.635c-.176-.036-.448-.106-.847-.211a2.873,2.873,0,0,0-.687-.106,8.123,8.123,0,0,0-1.342.194,4.466,4.466,0,0,1-1.358.123c-1.1-.088-1.661-.774-1.661-2.039a7.012,7.012,0,0,1,.479-2.356,6.53,6.53,0,0,1,.352,1.494,4.486,4.486,0,0,0,.383,1.354,1.253,1.253,0,0,0,1.166.615,3.429,3.429,0,0,0,.687-.088A2.462,2.462,0,0,0,223.412,382.038Z" fill="#000000"/><path d="M354.015,375.534a16.535,16.535,0,0,0,.56,3.8,3.723,3.723,0,0,1,2.54-1.266,1.808,1.808,0,0,1,1.693,1.266,5.911,5.911,0,0,1,.527,2.426c0,1.318-.5,1.969-1.469,1.969,0-.211.048-.616.128-1.231a12.076,12.076,0,0,0,.128-1.389c0-1.054-.4-1.652-1.2-1.775a1.5,1.5,0,0,0-1.358.633,4.034,4.034,0,0,0-.751,1.441c-.079.457-.176.914-.255,1.371a1.165,1.165,0,0,1-.927.7,33.305,33.305,0,0,1-.464-6.2,8.5,8.5,0,0,1,.241-1.037c.015-.175.032-.351.032-.545a10.43,10.43,0,0,0-.192-1.687,12.572,12.572,0,0,1-.176-1.67,5.117,5.117,0,0,1,.1-1c-.271.211-.271.316.017.316a1.148,1.148,0,0,0,.447-.07A28.613,28.613,0,0,1,354.015,375.534Z" fill="#000000"/><path d="M368.6,379.665a1.368,1.368,0,0,1,.384.984,1.9,1.9,0,0,1-1.359,1.793,15.454,15.454,0,0,1-5.559,1.5c-1.55,0-2.732-.651-2.732-1.653a2.873,2.873,0,0,1,.767-1.74,4.989,4.989,0,0,1,1.422-1.213,5.77,5.77,0,0,1,2.683-.615,25.07,25.07,0,0,1,3.18.369A2.1,2.1,0,0,1,368.6,379.665Zm-5.4,3.164a8.47,8.47,0,0,0,5.367-1.933,5.543,5.543,0,0,0-3.546-1.125,5.956,5.956,0,0,0-2.685.6,4.408,4.408,0,0,0-2,1.811A5.959,5.959,0,0,0,363.2,382.829Z" fill="#000000"/><path d="M373.638,382.038a2.2,2.2,0,0,0,.7-1.142,2.859,2.859,0,0,0,.049-.528,3.8,3.8,0,0,0-.112-.861,3.757,3.757,0,0,1-.111-.686c0-.369.287-.615.877-.773.081.685.176,1.353.256,2.021a17.625,17.625,0,0,1,.144,2.022,7.471,7.471,0,0,1-.159,1.635c-.176-.036-.448-.106-.847-.211a2.873,2.873,0,0,0-.687-.106,8.123,8.123,0,0,0-1.342.194,4.475,4.475,0,0,1-1.359.123c-1.1-.088-1.661-.774-1.661-2.039a7.015,7.015,0,0,1,.48-2.356,6.488,6.488,0,0,1,.351,1.494,4.516,4.516,0,0,0,.383,1.354,1.254,1.254,0,0,0,1.167.615,3.447,3.447,0,0,0,.687-.088A2.471,2.471,0,0,0,373.638,382.038Z" fill="#000000"/><path d="M496.572,374.919c-.08-.686-.113-1.195-.128-1.529a4.215,4.215,0,0,1,.015-.756,1.61,1.61,0,0,1,.464-.528,33.485,33.485,0,0,1,.463,3.657,32.959,32.959,0,0,0,.464,3.568c.543-.51,1.086-1,1.629-1.512a3.429,3.429,0,0,1,1.9-.808,3.788,3.788,0,0,1-1.2,1.722,17.1,17.1,0,0,0-1.613,1.635,13.037,13.037,0,0,0,3.754,1.037c.975.158,1.263.369,1.263.985a5.424,5.424,0,0,1-.1.826,20.69,20.69,0,0,1-2.173-.633,7.743,7.743,0,0,0-2.285-.4h-.7a.927.927,0,0,0-.479.843c0,.334-.24.563-.7.7a40.45,40.45,0,0,1-.464-7.225A13.219,13.219,0,0,0,496.572,374.919Z" fill="#000000"/><path d="M510.888,380.456a9.95,9.95,0,0,1,.271,2,2.724,2.724,0,0,1-.719,2.039,1.93,1.93,0,0,0-1.517-.949c-.144,0-.4.035-.8.088s-.7.07-.975.088c-.111,0-.335,0-.655.017-.255.018-.463.018-.606.018a2.5,2.5,0,0,1-1.231-.229,1.288,1.288,0,0,1-.559-1.09,2.059,2.059,0,0,1,.879-2.091,5.351,5.351,0,0,1,2.236-.545c1.295-.088,2.061-.159,2.285-.211a2.39,2.39,0,0,0-.863-1.565,4.446,4.446,0,0,0-1.581-.65c-.591-.123-1.2-.246-1.789-.369a4.78,4.78,0,0,1,2.268-.545,3.373,3.373,0,0,1,1.837.474,2.417,2.417,0,0,1,1.07,1.618C510.584,379.19,510.744,379.823,510.888,380.456Zm-4.09,2.109a8.041,8.041,0,0,0,2.7-.632,2.309,2.309,0,0,0-1.853-.967,4.052,4.052,0,0,0-2.6,1.213A4.192,4.192,0,0,0,506.8,382.565Z" fill="#000000"/><path d="M641.54,383.726a2.255,2.255,0,0,1-2.509-1.793,3.546,3.546,0,0,1-.095-.809,4.982,4.982,0,0,1,1.662-3.533,6.085,6.085,0,0,1,3.37-1.863,11.8,11.8,0,0,1,1.582-.141c1.47,0,2.205.457,2.188,1.389a2.106,2.106,0,0,1-.015.3,1.723,1.723,0,0,1-.943,1.3,5.321,5.321,0,0,1-1.71.51c-.527.088-1.053.158-1.581.246a4.282,4.282,0,0,1-.927.07h-.59a3.06,3.06,0,0,0-1.391.229,1.334,1.334,0,0,0-.606,1.266q0,1.581,1.676,1.582a18.366,18.366,0,0,0,2.078-.3,16.768,16.768,0,0,0,1.677-.492,4.946,4.946,0,0,1,1.566-.334,2.532,2.532,0,0,1,.511.052,2.32,2.32,0,0,1-1.6,1.494,19.056,19.056,0,0,1-2.4.58A10.625,10.625,0,0,1,641.54,383.726Zm1.837-5.52a4.1,4.1,0,0,0,3.18-1.195,5.584,5.584,0,0,0-1.342-.176,5.726,5.726,0,0,0-3.132,1.213A5.075,5.075,0,0,0,643.377,378.206Z" fill="#000000"/><path d="M648.859,374.884h-.08a.28.28,0,0,0-.112-.018.866.866,0,0,0-.335.071,5,5,0,0,1-.24-1.161v-1.16c.208.211.416.422.623.615a1.42,1.42,0,0,1,.351.9,2.14,2.14,0,0,1-.031.3C648.955,374.726,648.907,374.884,648.859,374.884Zm.176,6.258a7.84,7.84,0,0,0-.144-1.266,5.021,5.021,0,0,1-.1-1.055,1.194,1.194,0,0,1,.271-.756c.224-.087.448-.193.671-.281-.015.229-.015.668,0,1.3q.073.818.241,2.584v.51l.223.263v.264c0,.457-.064.721-.176.809a6.544,6.544,0,0,1-.766.211,12.3,12.3,0,0,1-.224-2.321Z" fill="#000000"/><path d="M780.676,383.726c-1.294-.036-1.934-.51-1.934-1.442a2.813,2.813,0,0,1,1.215-2.162,10.576,10.576,0,0,1,5.176-2.338c.751-.123,1.135-.4,1.135-.879a5.509,5.509,0,0,0-.1-.738c-.048-.369-.079-.7-.1-.967-.015-.228-.031-.633-.063-1.195-.033-.492-.048-.861-.048-1.125a2.215,2.215,0,0,1,.575-1.811,36.974,36.974,0,0,1,.7,7.489c0,.369-.08,1.037-.08,1.248a1.106,1.106,0,0,0,.463,1.037.764.764,0,0,1,.319.562.9.9,0,0,1-.3.686,1.488,1.488,0,0,0-.4.615,9.349,9.349,0,0,1-.224,1.529,3.1,3.1,0,0,1-.974-.527,1.378,1.378,0,0,0-.847-.281,3.24,3.24,0,0,0-.527.052A22.9,22.9,0,0,1,780.676,383.726Zm5.416-3.586c0-.827-.321-1.231-.944-1.231a5.925,5.925,0,0,0-1.2.176,6.983,6.983,0,0,0-2.476,1.107,4.72,4.72,0,0,0-1.742,1.987,10.28,10.28,0,0,0,3.163.509c2.013,0,3.068-.685,3.179-2.056C786.092,380.438,786.092,380.28,786.092,380.14Z" fill="#000000"/><path d="M792.548,382.038a2.2,2.2,0,0,0,.7-1.142,2.948,2.948,0,0,0,.049-.528,3.8,3.8,0,0,0-.112-.861,3.7,3.7,0,0,1-.112-.686c0-.369.287-.615.878-.773.08.685.176,1.353.256,2.021a17.625,17.625,0,0,1,.144,2.022,7.408,7.408,0,0,1-.16,1.635c-.175-.036-.447-.106-.846-.211a2.881,2.881,0,0,0-.688-.106,8.137,8.137,0,0,0-1.342.194,4.466,4.466,0,0,1-1.358.123c-1.1-.088-1.661-.774-1.661-2.039a7.036,7.036,0,0,1,.479-2.356,6.476,6.476,0,0,1,.352,1.494,4.486,4.486,0,0,0,.383,1.354,1.254,1.254,0,0,0,1.167.615,3.438,3.438,0,0,0,.686-.088A2.474,2.474,0,0,0,792.548,382.038Z" fill="#000000"/><path d="M794.674,374.919c-.08-.686-.112-1.195-.128-1.529a4.057,4.057,0,0,1,.016-.756,1.591,1.591,0,0,1,.463-.528,33.485,33.485,0,0,1,.463,3.657,32.959,32.959,0,0,0,.464,3.568c.543-.51,1.086-1,1.629-1.512a3.429,3.429,0,0,1,1.9-.808,3.777,3.777,0,0,1-1.2,1.722,17.1,17.1,0,0,0-1.613,1.635,13.047,13.047,0,0,0,3.754,1.037c.974.158,1.263.369,1.263.985a5.558,5.558,0,0,1-.1.826,20.618,20.618,0,0,1-2.173-.633,7.743,7.743,0,0,0-2.285-.4h-.7a.927.927,0,0,0-.479.843c0,.334-.24.563-.7.7a40.45,40.45,0,0,1-.464-7.225A13.219,13.219,0,0,0,794.674,374.919Z" fill="#000000"/><path d="M808.99,380.456a9.89,9.89,0,0,1,.272,2,2.728,2.728,0,0,1-.719,2.039,1.933,1.933,0,0,0-1.518-.949c-.143,0-.4.035-.8.088s-.7.07-.975.088c-.111,0-.335,0-.655.017-.255.018-.463.018-.607.018a2.491,2.491,0,0,1-1.23-.229,1.289,1.289,0,0,1-.56-1.09,2.061,2.061,0,0,1,.879-2.091,5.356,5.356,0,0,1,2.237-.545c1.294-.088,2.061-.159,2.285-.211a2.4,2.4,0,0,0-.864-1.565,4.438,4.438,0,0,0-1.581-.65c-.591-.123-1.2-.246-1.789-.369a4.781,4.781,0,0,1,2.269-.545,3.376,3.376,0,0,1,1.837.474,2.424,2.424,0,0,1,1.07,1.618C808.687,379.19,808.847,379.823,808.99,380.456Zm-4.09,2.109a8.046,8.046,0,0,0,2.7-.632,2.31,2.31,0,0,0-1.854-.967,4.052,4.052,0,0,0-2.6,1.213A4.19,4.19,0,0,0,804.9,382.565Z" fill="#000000"/></g><path d="M228.254,409.5a21.652,21.652,0,0,1,4.559.855q3.847,1.425,3.848,2.564a3.516,3.516,0,0,1-.571,2,3.019,3.019,0,0,1-2.137,1.567q-8.976,2-18.38,3.563-.287,4.989-.284,11.113a206.272,206.272,0,0,0,21.656-4.132,11.418,11.418,0,0,1,3.278-.427q1.422,0,6.7,2.279,7.978,3.563,7.979,5.842,0,.572-1.14,1.567a15.364,15.364,0,0,0-4.844,7.409A194.343,194.343,0,0,1,238.37,468.2a10.583,10.583,0,0,1-3.847.57,2.723,2.723,0,0,1-2.137-1.425c-.095-.189-.192-.378-.285-.57q-8.549.144-16.528.855v1.282a20.736,20.736,0,0,1,5.7,4.132,126.959,126.959,0,0,0,21.658,15.531q11.253,6.981,37.044,15.1v1q0,1-2.992,1.14a148.5,148.5,0,0,1-24.791,2.422q-4.561,0-5.7-1.139-10.26-7.98-25.5-26.075-2.281-2.277-5.272-5.272.428,16.53,1.139,37.615,0,6.412-2.421,8.977-2,3.56-3.848,3.561-2,0-4.417-6.411a18.119,18.119,0,0,1-.712-4.417,24.714,24.714,0,0,1,.712-6.7,28.211,28.211,0,0,0,.855-7.267q1-8.832,1.283-25.362-1.282,1.71-2.138,2.993-4.418,5.272-10.115,11.256a103.189,103.189,0,0,1-16.671,13.393,91.887,91.887,0,0,1-15.53,7.409q-6.983,2.565-7.979,2.564h-1.14a167.413,167.413,0,0,0,15.958-11.4,195.349,195.349,0,0,0,21.229-17.525q7.551-8.122,10.117-12.4a9.694,9.694,0,0,0,1.852-2.85,100.439,100.439,0,0,1-10.971,1.425,1.517,1.517,0,0,1-.855-.285q-.57,3.137-2.707,3.135-1.569,0-2.707-2.138a6.98,6.98,0,0,1-1.14-3.134q-2.851-4.842-4.559-16.528a34.229,34.229,0,0,0-4.417-11.113,9.849,9.849,0,0,0-4.845-5.272q0-1.849,2.422-1.852a23.435,23.435,0,0,1,6.412,1.14,6.392,6.392,0,0,1,1.14.57q15.244-1.567,27.214-3.135,0-6.124-.285-10.829a49.705,49.705,0,0,1-8.406,1q-8.837,0-11.684-2.565-1.853-1.422-1.852-1.995c0-.378.331-.57,1-.57a160.031,160.031,0,0,0,20.66-2.279q-.571-12.4-1.995-13.963a28.974,28.974,0,0,0-1.852-5.272,3.783,3.783,0,0,1-.712-1.852q0-2.423,2.137-2.423a24.8,24.8,0,0,1,9.4,1.853q4.842,1.569,4.844,5.129a3.975,3.975,0,0,1-1,2.707,20.03,20.03,0,0,0-2.28,7.409A22.5,22.5,0,0,0,216,413.2a70.906,70.906,0,0,0,9.546-2.993A5.006,5.006,0,0,1,228.254,409.5ZM191.779,465.92a124.344,124.344,0,0,0,14.818-1.852q.994-.139,2-.285.283-5.414.285-11.256-4.847.428-6.412.428a24.378,24.378,0,0,1-6.7-.855q-2.282-.429-2.28-1,0-1.422,1-1.709,7.407-.712,14.391-1.71V436.569q-11.829,1.426-23.652,2.993Zm23.367-30.063v10.686a30.99,30.99,0,0,0,3.419-.712,18.314,18.314,0,0,1,3.42-.428q7.978,0,7.979,3.562,0,.714-1.71.855-6.838,1.143-12.965,1.852,0,5.274.142,11.114,4.986-.855,8.691-1.852a11.217,11.217,0,0,1,3.562-.571,7.958,7.958,0,0,1,5.129,1.71,8.51,8.51,0,0,0,1.14-2.28,89.367,89.367,0,0,0,3.562-16.1,36.414,36.414,0,0,0,.855-7.266q0-2.277-3.277-2.28-3.847,0-11.826.855Q219.133,435.429,215.146,435.857Z" fill="#000000"/><path d="M401.368,433.435q-19.378,0-37.9,1-2.424.144-4.559.285a20.178,20.178,0,0,1,4.7,2.422q4.274,2,4.274,4.987,0,.716-1.425,2.137-3.135,4.275-4.987,6.839,6.124,1.569,21.087,2.422,3.848,0,8.122,3.848,3.418,2.85,3.419,4.559a2.725,2.725,0,0,1-1.425,2.137q-3.135,3.707-3.561,6.269-5.558,19.95-9.405,30.206-3.562,8.265-8.833,12.681-4.845,3.987-8.691,3.99-3.136,0-3.7-1.425a31.006,31.006,0,0,0-1.425-7.267,27.447,27.447,0,0,0-5.984-9.261,5.672,5.672,0,0,1-.855-2.422.5.5,0,0,1,.571-.57q8.975,5.7,12.538,5.7a3.483,3.483,0,0,0,3.134-1.994q2.137-1.284,4.559-5.985a48.147,48.147,0,0,0,6.84-14.818,43.511,43.511,0,0,0,2.564-14.248h-10.4a63.241,63.241,0,0,1-11.4-8.122c-.192-.189-.286-.331-.286-.427a124.9,124.9,0,0,1-17.667,26.359,77.676,77.676,0,0,1-28.923,20.517q-7.837,3.847-9.974,3.848c-.381,0-.57-.237-.57-.713a215.382,215.382,0,0,0,29.921-24.507,103.95,103.95,0,0,0,17.81-24.792q5.128-9.26,5.129-16.67l-1.14-4.559a.579.579,0,0,1,.143-.428q-10.259,1-20.944,2.992-7.695,1.854-18.951,5.13-1.853.428-1.852.712-1.71,0-5.984-2.422-3.564-2.7-3.562-3.277a1.008,1.008,0,0,1,1.14-1.14q3.987-.427,10.116-.855,58.986-7.266,79.077-10.971a120.136,120.136,0,0,1,14.96-1.14q1.139,0,6.7,2.138,5.271,3.135,5.273,5.129,0,2.993-3.278,2.992a63.869,63.869,0,0,1-6.553-.57A49.987,49.987,0,0,0,401.368,433.435Zm-53-35.193a40.957,40.957,0,0,1,12.111,2.422q7.407,2.565,9.546,4.844a8.225,8.225,0,0,1,2.279,5.842q0,5.7-4.416,5.7-4.845,0-12.111-7.551-8.548-8.262-8.549-10.116Q347.225,398.386,348.365,398.242Z" fill="#000000"/><path d="M476.028,437q2.849,0,7.266,3.134,3.559,2.709,3.562,5.272,0,1.282-1.994,2.849a5.086,5.086,0,0,0-2.707,2.28q-4.419,6.7-8.406,11.684,5.7,5.416,5.7,8.406a22.94,22.94,0,0,1-.428,3.42q-.571,3.563-.57,3.989l-1.14,31.916a16.606,16.606,0,0,1-1.282,5.984q-1.283,4.273-2.279,4.274-2.709,0-5.415-8.121a9.744,9.744,0,0,1-.855-3.277q0-3.132,3.847-16.67,1.423-4.7,1.424-16.528a33.492,33.492,0,0,0-1.424-10.259q-3.42,4.134-6.411,7.409-10.546,9.975-19.378,14.818-4.561,2.993-5.984,2.992c-.381,0-.57-.378-.57-1.139a223.294,223.294,0,0,0,22.8-23.225,106.248,106.248,0,0,0,10.544-17.382q1.993-5.413,1.994-7.267l-.569-3.562Q473.749,437,476.028,437Zm-1.14-38.185q6.84,0,8.264,1.425,3.7,1,3.7,2.992,0,3.846.428,10.971,3.276-.427,5.841-.713,11.4-1.566,22.8-3.419.284-.855.428-1.425a38.684,38.684,0,0,0,1.851-9.831q0-1-2.279-4.56,0-1.709,2.992-1.709a17.712,17.712,0,0,1,7.979,2q3.847,1.853,3.847,4.274a10.7,10.7,0,0,1-1.425,3.562q-2,3.564-3.277,5.7,3.418-.567,6.839-1.14a63.822,63.822,0,0,1,9.262-.712,21.432,21.432,0,0,1,8.548,2q3.989,2,3.99,5.271,0,2.993-2.707,2.992-16.243,0-30.919.713a148.625,148.625,0,0,1-10.828,15.958,4.988,4.988,0,0,1-3.278,1.567c-.475,0-.712-.189-.712-.57a172.306,172.306,0,0,0,7.267-16.528q-12.112.715-23.368,1.995-1.14.144-2.422.285.285,5.272,1,11.256,0,2.993-1.282,2.992-3.846,0-4.417-3.419-1.281-5.557-2.422-9.974-8.692,1.282-18.094,2.992a47.408,47.408,0,0,1-6.412,1.14,18.762,18.762,0,0,1-7.124-1.852q-3.707-1.71-3.7-2.707,0-1.14,1.283-1.14,17.808-1.851,32.485-3.847-2.993-9.4-5.984-12.823a5.1,5.1,0,0,1-.855-1.568Q472.181,398.812,474.888,398.812ZM534.16,445.4q2.565,0,8.977,2.422,6.552,3.848,6.553,6.269,0,1.571-3.7,2.707a48.508,48.508,0,0,0-9.119,5.272q-17.811,12.968-28.068,17.668-.144,3.563-.143,6.7a23.444,23.444,0,0,0,1.425,8.691,11.829,11.829,0,0,0,5.414,5.984q4.844,2.991,16.528,2.992,10.686,0,15.531-5.272,5.128-4.842,10.4-22.654.139-.568,1.282-.57c.189,0,.331.191.427.57q1.994,18.807,4.417,25.219a2.973,2.973,0,0,1,.285,1.709,4.866,4.866,0,0,1-1.71,3.7q-4.417,4.275-12.395,5.985a53.554,53.554,0,0,1-15.531,2.279A50.138,50.138,0,0,1,513.5,510.8a22.311,22.311,0,0,1-9.689-8.121q-2-4.131-2-15.1.569-26.358.571-38.612a8,8,0,0,0-.856-4.275,3.2,3.2,0,0,1-.855-2.564,1.512,1.512,0,0,1,1.711-1.71q2.7,0,6.126,2.565,3.987,2.563,3.989,5.414a16.617,16.617,0,0,1-.712,4.7,108.1,108.1,0,0,0-2.279,15.245q-.428,4.419-.713,8.977a80.844,80.844,0,0,0,7.266-6.27A70.49,70.49,0,0,0,528.6,457.372q3.42-3.848,3.419-5.7a6.768,6.768,0,0,0-.285-1.852,19.865,19.865,0,0,1-.285-2.565Q531.453,445.405,534.16,445.4Z" fill="#000000"/><path d="M593,418.759a12.241,12.241,0,0,1,4.987,1.425,6.567,6.567,0,0,1,1.568.855q3.13-.567,7.124-1.71a36.339,36.339,0,0,0,8.548-3.135,5.406,5.406,0,0,1,1.71-.284q1.283,0,6.126,2.707,5.841,3.418,5.842,4.7a2.42,2.42,0,0,1-.428,1.14q-3.562,11.113-3.561,16.1,0,9.831.854,22.512,3.134-.285,6.982-.571,4.131-.426,7.837-.712-3.562-22.366-4.988-25.931a9.332,9.332,0,0,0-2.279-2.85,6.235,6.235,0,0,1-1.139-1.852c0-.663.569-1,1.709-1a12.086,12.086,0,0,1,5.7,1.425,8.533,8.533,0,0,1,2.992,1.567,24.116,24.116,0,0,0,2.992-.57q6.411-1.282,11.683-2.138v-5.7q0-7.122-.855-17.24-.287-5.556-2-7.836a9.675,9.675,0,0,1-1-3.277q0-1.71,2.137-1.71a16.393,16.393,0,0,1,7.837,1.567q4.7,1.426,4.7,4.274a5.2,5.2,0,0,1-1.282,2.85q-1.428,2.709-1.425,7.837-.144,8.691-.571,18.095,2.85-.569,5.415-.855a30.855,30.855,0,0,0,9.545-2.28,16.745,16.745,0,0,1,2-.142q.711,0,8.121,3.419,7.407,3.564,7.409,5.272a4.01,4.01,0,0,1-1.425,2.707,23.538,23.538,0,0,0-5.842,8.121,66.255,66.255,0,0,0-4.274,10.972q2.849-.429,4.987-.713,6.552-.567,11.113-.57.995,0,5.7,1.852,4.414,2.709,4.417,4.275,0,2.28-2.707,2.28a43.114,43.114,0,0,1-5.415-.57,45.994,45.994,0,0,0-6.554-.571q-13.965,0-27.357.571-2.563.144-4.986.427a21.027,21.027,0,0,1,4.844,5.129,132.713,132.713,0,0,0,17.668,19.663q9.117,8.548,30.206,18.808v1.139q0,.711-2.565,1a155.049,155.049,0,0,1-21.372,1.71q-3.42,0-4.417-1.282-8.264-9.689-20.517-32.058a73.414,73.414,0,0,0-5.985-9.119q-1.14-1.422-2.136-2.565-.572,2.425-1.14,4.987a128.9,128.9,0,0,1-5.984,15.388,50.474,50.474,0,0,1-8.977,12.111q-6.555,6.127-18.38,11.256a18.955,18.955,0,0,1-5.414,1.282c-.762,0-1.14-.191-1.14-.57q11.114-7.694,15.816-12.4a44.822,44.822,0,0,0,9.546-11.4,62.339,62.339,0,0,0,8.121-18.808,19.343,19.343,0,0,0,.855-3.134l-6.269.855q-5.556,1-13.678,2.849-1.283.288-1.283.428-1.569,0-5.272-1.853-1-.711-1.567-1.139v.57q.568,12.966.57,16.812a25.3,25.3,0,0,1-2.707,10.829q-3.137,5.556-5.13,5.557-.426,0-1-2.422a91.582,91.582,0,0,0-4.417-10.544,48.16,48.16,0,0,0-6.553.712,58.324,58.324,0,0,1-6.27.855v1.283a9.994,9.994,0,0,1-1.567,3.846q-1.569,1.854-2.565,1.853-2,0-3.277-4.7a20.962,20.962,0,0,1-1.14-5.557v-1.71q1-9.831,1.14-15.388.568-12.394.57-30.775-.714-12.252-2.707-15.816a8.4,8.4,0,0,1-.285-1.425Q590.582,418.762,593,418.759Zm7.124,65.114a27.32,27.32,0,0,0,3.562-.855,46.7,46.7,0,0,0,7.267-1.852,2.742,2.742,0,0,1,1.425-.428,7.194,7.194,0,0,1,4.844,1.71l.142.285a7.221,7.221,0,0,0,.285-2q.428-8.549.428-30.776,0-12.679-.57-20.944-.572-4.131-2.28-4.987a6.118,6.118,0,0,0-3.419-.713h-1.14a84.276,84.276,0,0,0-9.831,1.853,2.288,2.288,0,0,1-1,.285h-.428q-.144,3.135-.143,7.979.141,10.118.143,18.665a40.027,40.027,0,0,0,4.844-1.852,10.04,10.04,0,0,1,2.849-.855q7.98.287,7.98,4.131,0,1-1.853,1.14-2,.288-5.556.57a20.424,20.424,0,0,1-3.99.428q-2.708,0-4.274-.143Q599.7,472.19,600.128,483.873Zm46.021-22.655q4.558-.426,8.692-.855a89.183,89.183,0,0,0,1.139-9.973q.857-6.7,1.14-15.815-6.555,1.142-13.392,2.991Q643.728,443.124,646.149,461.218Zm18.238-28.068q-.572,7.266-1.283,14.39-.428,6.272-1.282,12.111,8.406-.855,14.676-1.852a67.083,67.083,0,0,0,2.137-10.544,72.779,72.779,0,0,0,1-11.968q0-2.849-4.133-2.992a88.863,88.863,0,0,0-10.686.855Z" fill="#000000"/><path d="M767.828,432.865a21.439,21.439,0,0,1,4.275.712q3.846,1.571,3.846,2.85a2.459,2.459,0,0,1-.569,1.567,2.278,2.278,0,0,1-1.853,1.14,72.818,72.818,0,0,1-9.831,2.992q-.287,10.4-.285,23.794,3.134-1.422,6.412-2.992,4.842-1.994,6.126-1.994c.379,0,.571.334.571,1q0,.572-1.568,1.71-5.7,4.273-17.667,12.11-6.557,4.275-15.531,11.114-1.141,1.283-1.709,1.282-2.137,0-6.7-3.562-3.707-3.56-3.7-4.987,0-1.566,1.71-1.567a19.781,19.781,0,0,0,5.7-1.71q7.264-2.421,18.237-7.124.284-14.389.428-25.076a35.212,35.212,0,0,1-7.837,1.282q-8.121,0-10.686-1.852-1.854-1-1.852-1.425a1.007,1.007,0,0,1,1.139-1.14A103.969,103.969,0,0,0,756,437.709q.141-5.413.143-9.4,0-12.68-.855-16.1a25.937,25.937,0,0,0-3.42-6.412,11.182,11.182,0,0,1-1.567-4.274q0-2.138,2.707-2.137a16.216,16.216,0,0,1,7.979,2.137q5.7,2.565,5.7,4.7-.143,1.71-.142,3.7-1.71,5.13-2.565,24.792a10.512,10.512,0,0,0,1.853-1.14A3.018,3.018,0,0,1,767.828,432.865Zm51.436-11.4a20.084,20.084,0,0,1,4.274.855q3.559,1.426,3.562,2.565a3.261,3.261,0,0,1-.427,1.71,2.53,2.53,0,0,1-1.71,1.139q-6.84,1.426-14.248,2.28c-1.236.192-2.279.334-3.135.427q3.7,1.426,3.7,3.7,0,.716-1.283,1.282a39.52,39.52,0,0,0-6.411,5.415q-1.854,1.853-3.42,3.134h.142a26.2,26.2,0,0,1,8.977,6.412,26.6,26.6,0,0,1,5.984,9.4q2.279-2.277,3.847-4.131a46.7,46.7,0,0,0,7.694-10.117q2.137-2.7,2.137-3.989a4.716,4.716,0,0,0-.428-1.852,14.229,14.229,0,0,1-.284-2.28q0-1.566,2.992-1.567,2.277,0,7.979,2.137,6.124,3.706,6.127,5.7,0,1.283-2.566,2a32.457,32.457,0,0,0-6.838,3.847q-12.255,8.836-19.948,12.253a1.532,1.532,0,0,1,.285.855q1.139.287,2.138.57a13.631,13.631,0,0,1,5.414,3.277,93.832,93.832,0,0,0,14.818,10.544q7.7,4.562,25.5,9.973v1.14q0,.855-2.85,1.14a168.937,168.937,0,0,1-23.366,1.852q-2.425,0-2.992-.855-5.7-5.412-14.106-17.952-1.143-1.566-2.707-3.42a74.242,74.242,0,0,1,1.567,15.388q0,20.518-4.844,27.215-4.7,6.267-8.692,6.268a2.942,2.942,0,0,1-2.849-2.137q-2.282-4.7-10.828-13.108,0-.569,1.71-.57,0,.427,2.136,1.425a17.01,17.01,0,0,0,7.409,1.282q2.7,0,3.847-4.132a73.4,73.4,0,0,0,3.7-24.364v-.57a77.224,77.224,0,0,1-10.4,12.4,63.412,63.412,0,0,1-14.248,10.971,74.166,74.166,0,0,1-15.816,6.269v-1.14q3.847-2.421,7.409-5.129a118.415,118.415,0,0,0,13.963-12.111,102.713,102.713,0,0,0,14.96-18.523,27.41,27.41,0,0,0,2.85-4.987q-.286-1.139-.569-2.137-.857-2.421-1.71-4.417c-.192.192-.285.334-.285.428a99.153,99.153,0,0,1-15.246,14.105,67.886,67.886,0,0,1-12.253,7.979,66.052,66.052,0,0,1-8.976,3.7,11.7,11.7,0,0,1-2.422.712c-.477,0-.713-.189-.713-.57q4.844-3.132,10.687-7.551a101.838,101.838,0,0,0,13.677-12.538,108.242,108.242,0,0,0,7.552-9.547,6.292,6.292,0,0,0,1.282-3.562l-.57-2.137v-.142c-.854-.663-1.759-1.329-2.707-2a46.887,46.887,0,0,1-7.409,5.272,44.045,44.045,0,0,1-8.692,3.989,5.628,5.628,0,0,1-2.421.713q-.571,0-.571-.428a109.633,109.633,0,0,0,11.115-9.689q6.978-6.411,9.831-11.683a4.091,4.091,0,0,0,1.424-3.134q-6.411-.285-8.406-1.853-2-1.281-2-1.709a1.007,1.007,0,0,1,1.14-1.14,141.909,141.909,0,0,0,17.1-1.71,59.767,59.767,0,0,0,8.692-2.422A3.259,3.259,0,0,1,819.264,421.466ZM785.5,402.089q1.85,0,3.7,3.99a1.128,1.128,0,0,1,.143.427q17.81-1,47.3-5.985h2.422q2.423,0,8.834,4.417,7.266,6.84,7.267,8.549,0,2.853-5.13,2.85-7.838,0-19.947,3.99a.5.5,0,0,1-.57-.571q0-.567,3.277-5.984,2.993-4.558,2.992-5.984,0-.284-.854-.712a11.881,11.881,0,0,0-3.135-.428,134.959,134.959,0,0,0-18.238,1.283q-7.554.853-19.662,3.277a15.68,15.68,0,0,1-2.707.712h-.57v.57a25.875,25.875,0,0,1-1.71,7.694q-2.137,5.416-3.989,7.409-1.283,1.425-2.137,1.425-1.854,0-3.705-2.28a7.771,7.771,0,0,1-1-3.989,8.3,8.3,0,0,1,.712-3.705q2.421-3.7,5.556-15.245Q784.64,402.089,785.5,402.089Z" fill="#000000"/><path d="M228.812,559.785a22.131,22.131,0,0,1-7.648,2.351V575.2a1.827,1.827,0,0,1,.237.418l.143.574q0,1.881-2.28,1.881-1.853,0-1.853-1.724a1.841,1.841,0,0,1,.523-1.254V553.62a1.445,1.445,0,0,1-1.14-1.619,2.358,2.358,0,0,1,1.14-1.986v-2.3a1.808,1.808,0,0,1,.57-2.4,2.341,2.341,0,0,1,1.187-.366,1.715,1.715,0,0,1,1.948,1.933l-.238.993a.207.207,0,0,0-.047.157q6.412-3.292,11.115-3.292,6.7,0,6.7,5.016c0,1.829-1.14,3.762-3.468,5.694A31.8,31.8,0,0,1,228.812,559.785Zm4.464-11.6c-3.752,0-7.79,1.306-12.112,3.866v6.687q3.348-.156,8.978-3.448a21.217,21.217,0,0,0,3.277-2.352c1.663-1.305,2.47-2.35,2.47-3.082a1.413,1.413,0,0,0-.57-1.149A2.926,2.926,0,0,0,233.276,548.187Z" fill="#000000"/><path d="M256.789,578.071c-1.283,0-1.9-.522-1.9-1.619a2.4,2.4,0,0,1,.284-1.254V559.576c0-.47.048-.993-.855-.993-2.042,0-4.654,2.038-7.932,6.113-.142.209-.428.523-.76.941V575.3a2.124,2.124,0,0,1,.285.941,1.77,1.77,0,0,1-.618,1.306,3.126,3.126,0,0,1-1.377.418,2.165,2.165,0,0,1-1.283-.314,1.3,1.3,0,0,1-.475-1.1,2.64,2.64,0,0,1,.19-1.1V547.194l-.285-.993a1.9,1.9,0,0,1,2.138-2.141,2.317,2.317,0,0,1,1.14.418,1.664,1.664,0,0,1,.665,1.305,3.15,3.15,0,0,1-.38,1.411v13.375c3.42-3.71,6.65-5.539,9.738-5.539a3.091,3.091,0,0,1,1.994.627c.618.627.951,1.987,1.093,4.128.048.575.048,1.411.048,2.508V575.3a1.66,1.66,0,0,1,.189.836,2.2,2.2,0,0,1-.475,1.254A1.866,1.866,0,0,1,256.789,578.071Z" fill="#000000"/><path d="M280.111,578.124c-1.14,0-1.71-.523-1.71-1.62.048-.209.19-.523.333-.941v-2.612a23.339,23.339,0,0,1-5.985,3.971,16.042,16.042,0,0,1-6.84,1.776,4.161,4.161,0,0,1-2.613-.836,3.079,3.079,0,0,1-1.235-2.455c0-2.769,1.567-5.539,4.75-8.2a18.794,18.794,0,0,1,11.923-4.232v-3.448a1.775,1.775,0,0,0-.285-1.045,1.257,1.257,0,0,0-.855-.314,12.217,12.217,0,0,0-6.555,1.986,9.745,9.745,0,0,0-2.328,1.933q-.143,1.568-2,1.567a2.482,2.482,0,0,1-1.947-1.88,2.278,2.278,0,0,1,1.71-2.195,15.758,15.758,0,0,1,11.447-4.806,4.3,4.3,0,0,1,4.18,4.545v16.2a2.15,2.15,0,0,1,.19.993,1.375,1.375,0,0,1-.76,1.2A2.469,2.469,0,0,1,280.111,578.124Zm-9.785-9.248c-1.093.783-1.758,1.307-2,1.463a21.2,21.2,0,0,0-1.71,1.933,5.229,5.229,0,0,0-1.283,2.665c0,.209.475.313,1.378.313,1.188,0,2.9-.627,5.178-1.829a22.363,22.363,0,0,0,4.7-2.978q2.138-1.8,2.138-2.821v-1.254Q273.39,566.448,270.326,568.876Z" fill="#000000"/><path d="M300.536,576.19l.142-.627V558.636c0-.157-.142-.209-.474-.209-.808,0-3.848,2.4-9.073,7.158v9.978a1.433,1.433,0,0,1,.19.836c0,1.1-.665,1.672-2,1.672-1.235,0-1.853-.522-1.853-1.515a1.758,1.758,0,0,1,.38-1.045v-9.038a2.744,2.744,0,0,1-.617-1.15,11.238,11.238,0,0,1,.617-1.724v-6.426a2.356,2.356,0,0,1-.19-1.1c0-.887,1.14-1.723,2.043-1.723,1.187,0,1.805.522,1.805,1.62a2.2,2.2,0,0,1-.38,1.148v3.867c4.987-4.441,8.17-6.635,9.547-6.635A3.293,3.293,0,0,1,304,557.538V575.3a1.61,1.61,0,0,1,.19.888c0,1.2-.522,1.881-1.9,1.881C301.106,578.071,300.536,577.444,300.536,576.19Z" fill="#000000"/><path d="M320.343,576.138c-2.185,1.568-3.943,2.351-5.225,2.351a3.321,3.321,0,0,1-1.9-.574,2.549,2.549,0,0,1-.855-2.195V558.427l-3.373.47-.19.1-.57.209a1.711,1.711,0,0,1-1.377-.679,2.5,2.5,0,0,1-.428-1.3c0-1.307.618-1.987,1.853-1.987l.522.106.048.1,3.515-.574V550.8a2.574,2.574,0,0,1-.19-.836c0-.941.712-1.411,2.185-1.411,1.093,0,1.615.366,1.615,1.15a2.323,2.323,0,0,1-.238.992V554.3l7.316-1.254a1.276,1.276,0,0,1,1.139.574,1.627,1.627,0,0,1,.523,1.2q0,2.116-1.425,2.038l-.522-.051-7.031,1.045v16.718l2.661-1.463a13.476,13.476,0,0,0,2.9-1.986,15.233,15.233,0,0,0,2.8-3.135c.047-1.1.57-1.619,1.52-1.619,1.235,0,1.852.732,1.852,2.246,0,.68-.807,1.829-2.47,3.5A35,35,0,0,1,320.343,576.138Z" fill="#000000"/><path d="M345.708,578.124c-1.141,0-1.71-.523-1.71-1.62.047-.209.19-.523.332-.941v-2.612a23.339,23.339,0,0,1-5.985,3.971,16.042,16.042,0,0,1-6.84,1.776,4.161,4.161,0,0,1-2.613-.836,3.079,3.079,0,0,1-1.235-2.455c0-2.769,1.568-5.539,4.75-8.2a18.8,18.8,0,0,1,11.923-4.232v-3.448a1.775,1.775,0,0,0-.285-1.045,1.255,1.255,0,0,0-.855-.314,12.222,12.222,0,0,0-6.555,1.986,9.745,9.745,0,0,0-2.328,1.933q-.143,1.568-2,1.567a2.483,2.483,0,0,1-1.947-1.88,2.279,2.279,0,0,1,1.71-2.195,15.76,15.76,0,0,1,11.447-4.806,4.3,4.3,0,0,1,4.181,4.545v16.2a2.163,2.163,0,0,1,.19.993,1.376,1.376,0,0,1-.761,1.2A2.468,2.468,0,0,1,345.708,578.124Zm-9.786-9.248c-1.092.783-1.757,1.307-2,1.463a21.2,21.2,0,0,0-1.71,1.933,5.225,5.225,0,0,0-1.282,2.665c0,.209.475.313,1.377.313,1.188,0,2.9-.627,5.178-1.829a22.363,22.363,0,0,0,4.7-2.978q2.138-1.8,2.138-2.821v-1.254Q338.987,566.448,335.922,568.876Z" fill="#000000"/><path d="M364.754,576.765a12.51,12.51,0,0,1-5.462,1.62,8.023,8.023,0,0,1-4.465-1.306c-1.473-.889-2.185-1.881-2.185-2.978,0-1.725.617-2.613,1.9-2.613,1,0,1.473.523,1.473,1.568a4.291,4.291,0,0,1-.048.783,4.509,4.509,0,0,0,3.325,1.1,9.465,9.465,0,0,0,6.033-2.456c2.232-1.829,3.325-3.867,3.325-6.166,0-.992-.57-1.514-1.71-1.514q-1.142,0-5.13,2.194c-.333.156-.951.471-1.9.941a11.03,11.03,0,0,1-4.085,1.358,3.2,3.2,0,0,1-2.66-1.358,5.433,5.433,0,0,1-.855-3.135c0-4.075,2.375-7.054,7.172-8.935a18.89,18.89,0,0,1,7.125-1.41,5.066,5.066,0,0,1,1.995.418,1.693,1.693,0,0,1,1.188,1.567q0,1.881-1.71,1.881a2.346,2.346,0,0,1-1.14-.313.75.75,0,0,0-.476-.156c-4.417,0-7.647,1.2-9.642,3.6a5.328,5.328,0,0,0-1.33,3.448c0,.574.142.889.427.889a5.976,5.976,0,0,0,2.565-.836c.761-.366,1.52-.784,2.233-1.2,2.992-1.568,5.13-2.351,6.318-2.351a4.974,4.974,0,0,1,3.277,1.306,4.592,4.592,0,0,1,1.615,3.813,9.763,9.763,0,0,1-1.52,5.487A13.95,13.95,0,0,1,364.754,576.765Z" fill="#000000"/><path d="M400.189,576.974a3.487,3.487,0,0,1-.1-.784,1.364,1.364,0,0,1,.238-.783v-16.3c0-.261.047-.418.142-.418a3.893,3.893,0,0,0-1.9.731c-.761.471-2.091,1.516-4.038,3.083l-3.372,2.612v10.293l-.1,1.463a1.471,1.471,0,0,1-.9,1.1l-1.045.1c-1.188-.156-1.758-.783-1.758-1.776a2.318,2.318,0,0,1,.523-1.254V558.583c0-.156-.142-.261-.381-.261-.617,0-2.612,1.411-6.032,4.284-.854.68-1.615,1.307-2.232,1.881v10.606a2.085,2.085,0,0,1,.285,1.1,1.637,1.637,0,0,1-1.806,1.881,1.8,1.8,0,0,1-2.042-2.037l.19-.68.095-.365v-17.4a3.745,3.745,0,0,1-.285-1.41c0-1.2.76-1.829,2.28-1.829,1.045,0,1.568.784,1.568,2.3l-.285.679v2.613c4.655-3.71,7.884-5.59,9.642-5.59,1.093,0,1.758.836,2.09,2.456a22.055,22.055,0,0,1,.191,3.656v.262c5.319-4.233,8.644-6.374,10.022-6.374a2.507,2.507,0,0,1,1.758.887,3.49,3.49,0,0,1,.76,2.3V575.2a1.844,1.844,0,0,1,.285,1.1,1.948,1.948,0,0,1-2.186,1.776A1.512,1.512,0,0,1,400.189,576.974Z" fill="#000000"/><path d="M425.221,578.124c-1.139,0-1.71-.523-1.71-1.62.048-.209.191-.523.333-.941v-2.612a23.339,23.339,0,0,1-5.985,3.971,16.042,16.042,0,0,1-6.84,1.776,4.158,4.158,0,0,1-2.612-.836,3.08,3.08,0,0,1-1.236-2.455c0-2.769,1.568-5.539,4.75-8.2a18.8,18.8,0,0,1,11.923-4.232v-3.448a1.768,1.768,0,0,0-.285-1.045,1.254,1.254,0,0,0-.855-.314,12.222,12.222,0,0,0-6.555,1.986,9.738,9.738,0,0,0-2.327,1.933q-.144,1.568-2,1.567a2.486,2.486,0,0,1-1.949-1.88,2.28,2.28,0,0,1,1.711-2.195,15.76,15.76,0,0,1,11.448-4.806,4.3,4.3,0,0,1,4.179,4.545v16.2a2.15,2.15,0,0,1,.191.993,1.377,1.377,0,0,1-.76,1.2A2.472,2.472,0,0,1,425.221,578.124Zm-9.785-9.248c-1.092.783-1.757,1.307-1.994,1.463a21.206,21.206,0,0,0-1.711,1.933,5.225,5.225,0,0,0-1.282,2.665c0,.209.475.313,1.378.313,1.187,0,2.9-.627,5.177-1.829a22.374,22.374,0,0,0,4.7-2.978q2.136-1.8,2.137-2.821v-1.254Q418.5,566.448,415.436,568.876Z" fill="#000000"/><path d="M440.374,588.625a9.7,9.7,0,0,1-5.891-1.672c-.808-.888-1.234-1.515-1.234-1.985q0-2.352,1.709-2.352a1.347,1.347,0,0,1,1,.524,1.952,1.952,0,0,1,.379.783,5.191,5.191,0,0,0,3.706,1.306q5.7,0,5.7-7.68v-8.935c-2.327,4.285-4.941,7.315-7.742,9.092a7.12,7.12,0,0,1-3.659,1.357,3.09,3.09,0,0,1-2.849-1.775,7.431,7.431,0,0,1-.808-3.553,21.069,21.069,0,0,1,4.037-11.808q4.419-6.584,10.973-6.582a16.912,16.912,0,0,1,2.091.1,2.021,2.021,0,0,1,1.045.889,5.087,5.087,0,0,1,.189,1.672v20.533a10.285,10.285,0,0,1-1.473,5.643C445.693,587.162,443.271,588.625,440.374,588.625Zm-6.366-14.315q0,1.254.428,1.253c.9,0,2.232-.888,3.989-2.716a29.7,29.7,0,0,0,4.609-6.479,19.139,19.139,0,0,0,2.422-7.576,10.063,10.063,0,0,0-4.845,2.038A17.283,17.283,0,0,0,434.008,574.31Z" fill="#000000"/><path d="M466.925,576.138a11.614,11.614,0,0,1-7.267,2.56c-2.233,0-3.99-1.149-5.367-3.5a9.529,9.529,0,0,1-1.14-4.859,17.553,17.553,0,0,1,3.229-10.5,10.728,10.728,0,0,1,9.12-4.963,6.448,6.448,0,0,1,6.081,3.971,12.693,12.693,0,0,1,1.14,5.747,14.3,14.3,0,0,1-1,5.173A14.005,14.005,0,0,1,466.925,576.138Zm-9.12-12.225a14.309,14.309,0,0,0-1.377,6.112,8.1,8.1,0,0,0,.95,3.867,3.04,3.04,0,0,0,2.85,1.358,7.462,7.462,0,0,0,4.607-1.724,10.642,10.642,0,0,0,3.231-3.867,11.132,11.132,0,0,0,1.282-5.224q0-6.27-4.133-6.27C462.175,558.165,459.706,560.1,457.805,563.913Z" fill="#000000"/><path d="M480.51,576.19c0,1.254-.807,1.881-2.375,1.881-1.234,0-1.852-.574-1.852-1.776a1.47,1.47,0,0,1,.475-1.149l-.19-18.391c0-.992.665-1.463,2.043-1.463,1.092,0,1.614.418,1.614,1.307a2.222,2.222,0,0,1-.189.939v2.717l2.422-1.828,3.467-2.2a5.221,5.221,0,0,1,2.375-.887c1.758,0,2.614,1.932,2.614,5.746q0,1.254-1.71,1.254c-1.141,0-1.711-.47-1.711-1.358a2.64,2.64,0,0,1,.19-1.1l-.142-.732a16.589,16.589,0,0,0-2.708,1.62c-1.283.888-2.232,1.567-2.755,1.985-.618.575-1.329,1.15-2.042,1.829v10.449a1.607,1.607,0,0,1,.332.313,5.677,5.677,0,0,1,.142.627l-.094-.1Z" fill="#000000"/><path d="M494.712,578.071a1.512,1.512,0,0,1-1.33-.679,2.169,2.169,0,0,1-.522-1.463,1.95,1.95,0,0,1,.475-1.2V558.322a1.4,1.4,0,0,1-.285-.887c0-1.672.712-2.508,2.185-2.508a1.439,1.439,0,0,1,1.283.836,1.826,1.826,0,0,1,.475,1.3,3.512,3.512,0,0,1-.38,1.2v16.561a1.834,1.834,0,0,1-.285,2.717A2.931,2.931,0,0,1,494.712,578.071ZM495,552.94a1.955,1.955,0,0,1-1.948-1.984c0-3.135.808-4.7,2.47-4.7,1.282,0,1.947.732,1.947,2.247a6.568,6.568,0,0,1-.617,3.135A1.9,1.9,0,0,1,495,552.94Z" fill="#000000"/><path d="M518.177,578.124c-1.14,0-1.71-.523-1.71-1.62.048-.209.19-.523.333-.941v-2.612a23.327,23.327,0,0,1-5.986,3.971,16.034,16.034,0,0,1-6.839,1.776,4.161,4.161,0,0,1-2.613-.836,3.082,3.082,0,0,1-1.235-2.455c0-2.769,1.567-5.539,4.75-8.2a18.794,18.794,0,0,1,11.923-4.232v-3.448a1.775,1.775,0,0,0-.285-1.045,1.258,1.258,0,0,0-.856-.314,12.225,12.225,0,0,0-6.555,1.986,9.758,9.758,0,0,0-2.327,1.933q-.142,1.568-2,1.567a2.484,2.484,0,0,1-1.948-1.88,2.28,2.28,0,0,1,1.711-2.195,15.757,15.757,0,0,1,11.447-4.806,4.3,4.3,0,0,1,4.18,4.545v16.2a2.163,2.163,0,0,1,.19.993,1.376,1.376,0,0,1-.759,1.2A2.472,2.472,0,0,1,518.177,578.124Zm-9.785-9.248c-1.092.783-1.757,1.307-2,1.463a21.2,21.2,0,0,0-1.71,1.933,5.229,5.229,0,0,0-1.283,2.665c0,.209.476.313,1.378.313,1.188,0,2.9-.627,5.178-1.829a22.39,22.39,0,0,0,4.7-2.978q2.137-1.8,2.138-2.821v-1.254Q511.456,566.448,508.392,568.876Z" fill="#000000"/><path d="M549.432,576.138a11.619,11.619,0,0,1-7.268,2.56c-2.232,0-3.989-1.149-5.367-3.5a9.529,9.529,0,0,1-1.14-4.859,17.547,17.547,0,0,1,3.23-10.5,10.727,10.727,0,0,1,9.12-4.963,6.446,6.446,0,0,1,6.08,3.971,12.679,12.679,0,0,1,1.141,5.747,14.276,14.276,0,0,1-1,5.173A14.01,14.01,0,0,1,549.432,576.138Zm-9.12-12.225a14.294,14.294,0,0,0-1.377,6.112,8.1,8.1,0,0,0,.95,3.867,3.038,3.038,0,0,0,2.849,1.358,7.465,7.465,0,0,0,4.608-1.724,10.63,10.63,0,0,0,3.23-3.867,11.12,11.12,0,0,0,1.282-5.224q0-6.27-4.132-6.27C544.682,558.165,542.212,560.1,540.312,563.913Z" fill="#000000"/><path d="M570.569,557.9l-6.554,1.463v15.987a2.774,2.774,0,0,1,.237.993c0,1.15-.617,1.724-1.8,1.724a1.875,1.875,0,0,1-1.9-1.828l.1-.366.047-.261v-15.57l-2.422.471a1.539,1.539,0,0,1-.9.365,1.211,1.211,0,0,1-1.282-.783,3.883,3.883,0,0,1-.237-1.411c0-1.2.712-1.777,2.09-1.671l2.754-.418a42.287,42.287,0,0,1,.332-6.166c.381-2.717,1.093-4.6,2.186-5.59a5.037,5.037,0,0,1,3.705-1.307,6.88,6.88,0,0,1,4.56,1.986,3.409,3.409,0,0,1,1.092,1.985,2.5,2.5,0,0,1-.427,1.463,1.656,1.656,0,0,1-1.33.627,1.405,1.405,0,0,1-1.568-1.41,3.59,3.59,0,0,0-2.66-1.15c-.949,0-1.614.679-1.947,2.038a32.222,32.222,0,0,0-.617,6.739l5.747-1.3a6.833,6.833,0,0,1,.713-.575h.285a1.949,1.949,0,0,1,1.8,2.038c0,1.41-.474,2.141-1.376,2.141A1.07,1.07,0,0,1,570.569,557.9Z" fill="#000000"/><path d="M601.586,544.32a1.986,1.986,0,0,1,.76-.157c1.472,0,2.185.627,2.185,1.829a4.328,4.328,0,0,1-.285,1.672,1.847,1.847,0,0,1-1.663.679,2.663,2.663,0,0,1-1.425-.365l-12.3,2.089v8.778l11.686-1.777a2.446,2.446,0,0,1,1.615-.469,2.2,2.2,0,0,1,1,.836,2.808,2.808,0,0,1,.38,1.1c0,1.568-.617,2.351-1.8,2.351a2.03,2.03,0,0,1-1.093-.261l-11.781,1.829v12.225a2.437,2.437,0,0,1,.571,1.568,1.666,1.666,0,0,1-.808,1.358,2.74,2.74,0,0,1-1.519.47c-1.473,0-2.186-.627-2.186-1.933a2.365,2.365,0,0,1,.713-1.776V562.4a1.825,1.825,0,0,1-.713-1.515,1.858,1.858,0,0,1,.713-1.567v-8.986a2.374,2.374,0,0,1-.1-3.083,3.807,3.807,0,0,1,.524-1.724,2.14,2.14,0,0,1,1.519-.575,1.361,1.361,0,0,1,1.568,1.411Z" fill="#000000"/><path d="M610.849,578.071a2.025,2.025,0,0,1-2.09-2.037,1.791,1.791,0,0,1,.19-.836V547.56a2.682,2.682,0,0,1-.285-1.254,2.582,2.582,0,0,1,.475-1.777,3.1,3.1,0,0,1,1.663-.366,2.151,2.151,0,0,1,1.234.366,1.378,1.378,0,0,1,.808,1.359,3.063,3.063,0,0,1-.617,1.881v27.272a1.62,1.62,0,0,1,.617,1.306,3.112,3.112,0,0,1-.617,1.2A1.775,1.775,0,0,1,610.849,578.071Z" fill="#000000"/><path d="M630.085,576.138a11.615,11.615,0,0,1-7.268,2.56c-2.232,0-3.989-1.149-5.367-3.5a9.529,9.529,0,0,1-1.139-4.859,17.546,17.546,0,0,1,3.229-10.5,10.727,10.727,0,0,1,9.12-4.963,6.446,6.446,0,0,1,6.08,3.971,12.679,12.679,0,0,1,1.141,5.747,14.3,14.3,0,0,1-1,5.173A14.005,14.005,0,0,1,630.085,576.138Zm-9.12-12.225a14.294,14.294,0,0,0-1.377,6.112,8.1,8.1,0,0,0,.95,3.867,3.04,3.04,0,0,0,2.85,1.358A7.465,7.465,0,0,0,628,573.526a10.642,10.642,0,0,0,3.231-3.867,11.132,11.132,0,0,0,1.282-5.224q0-6.27-4.133-6.27C625.335,558.165,622.865,560.1,620.965,563.913Z" fill="#000000"/><path d="M659.346,567.778c-2.138,3.815-3.183,6.741-3.183,8.883,0,.992-.57,1.515-1.71,1.515-1.378,0-2.043-.627-2.09-1.933l-3.088-12.7-4.892,12.173c-.048,1.62-.665,2.456-1.9,2.456a1.684,1.684,0,0,1-1.519-.679,3.4,3.4,0,0,1-.428-1.986l-2.565-17.293a1.987,1.987,0,0,1-.427-1.359,1.945,1.945,0,0,1,1.9-2.089c1.284,0,1.9.678,1.9,1.985a4.48,4.48,0,0,1-.143.574l1.8,12.905,4.7-11.651a4.265,4.265,0,0,1-.333-1.463c0-1.148.713-1.724,2.186-1.724,1.234,0,1.852,1.1,1.852,3.344l2.944,12.173c.524-1.2,2.091-4.545,4.8-9.978a7.3,7.3,0,0,0,.665-2.717,2.358,2.358,0,0,1-.189-1.1,1.586,1.586,0,0,1,.807-1.306,2.879,2.879,0,0,1,1.472-.418,1.591,1.591,0,0,1,1.758,1.515,2.5,2.5,0,0,1-.522,1.62C662.86,560.569,661.578,563.651,659.346,567.778Z" fill="#000000"/><path d="M674.07,565.376l-6.128,1.41a12.305,12.305,0,0,0-.759,4.024,5.864,5.864,0,0,0,.665,3.291,3.454,3.454,0,0,0,2.9,1.045c3.088,0,5.7-1.725,7.743-5.172l-.048-.367c0-1.2.618-1.776,1.853-1.776,1.093,0,1.71.68,1.947,2.037a12.414,12.414,0,0,1-2.564,3.762,18.418,18.418,0,0,1-3.373,3.031,10.624,10.624,0,0,1-5.843,1.933,6.015,6.015,0,0,1-4.893-2.09,8,8,0,0,1-1.614-5.276A18.421,18.421,0,0,1,666,562.815a15.91,15.91,0,0,1,5.558-6.425,7.258,7.258,0,0,1,3.847-1.36c3.088,0,5.178,1.307,6.271,3.867a6.536,6.536,0,0,1,.617,2.56c-.1.836-.95,1.62-2.517,2.3A33.083,33.083,0,0,1,674.07,565.376Zm-4.275-2.4,5.368-1.306c.523-.157,1.235-.366,2.233-.627.285-.052.617-.1.95-.157.237-.052.332-.052.332-.1a1.85,1.85,0,0,0-.617-1.2,2.876,2.876,0,0,0-2.281-1.1C673.833,558.479,671.838,559.994,669.8,562.972Z" fill="#000000"/><path d="M689.744,576.19c0,1.254-.807,1.881-2.375,1.881-1.234,0-1.852-.574-1.852-1.776a1.47,1.47,0,0,1,.475-1.149l-.19-18.391c0-.992.665-1.463,2.043-1.463,1.092,0,1.614.418,1.614,1.307a2.222,2.222,0,0,1-.189.939v2.717l2.422-1.828,3.467-2.2a5.221,5.221,0,0,1,2.375-.887c1.758,0,2.613,1.932,2.613,5.746q0,1.254-1.709,1.254c-1.141,0-1.711-.47-1.711-1.358a2.624,2.624,0,0,1,.19-1.1l-.143-.732a16.646,16.646,0,0,0-2.707,1.62c-1.283.888-2.232,1.567-2.755,1.985-.618.575-1.33,1.15-2.042,1.829v10.449a1.607,1.607,0,0,1,.332.313,5.918,5.918,0,0,1,.142.627l-.1-.1Z" fill="#000000"/><path d="M727.128,561.248a80.273,80.273,0,0,0-3.564,7.472,18.843,18.843,0,0,0-1.71,6.687c0,1.828-.711,2.769-2.184,2.769a1.793,1.793,0,0,1-1.282-.47,1.592,1.592,0,0,1-.618-1.254l.19-2.142c0-2.3-1.093-7.106-3.325-14.368-.9-2.978-1.662-5.748-2.375-8.307a20.839,20.839,0,0,1-.76-5.016c0-1.1.617-1.672,1.853-1.672,1.091,0,1.662.993,1.662,2.978,0,.888.855,4.337,2.565,10.4.712,2.3,1.662,5.8,2.85,10.449a103.706,103.706,0,0,1,5.89-12.643q1.852-3.056,4.56-8.464l.808-1.567a1.409,1.409,0,0,1,1.139-.732c1.283,0,1.9.679,1.9,1.986,0,.47-1.093,2.56-3.278,6.374C728.6,558.688,727.175,561.2,727.128,561.248Z" fill="#000000"/><path d="M738.051,578.071a1.511,1.511,0,0,1-1.33-.679,2.169,2.169,0,0,1-.523-1.463,1.952,1.952,0,0,1,.476-1.2V558.322a1.391,1.391,0,0,1-.285-.887c0-1.672.712-2.508,2.184-2.508a1.438,1.438,0,0,1,1.283.836,1.826,1.826,0,0,1,.475,1.3,3.512,3.512,0,0,1-.38,1.2v16.561a1.832,1.832,0,0,1-.285,2.717A2.928,2.928,0,0,1,738.051,578.071Zm.285-25.131a1.954,1.954,0,0,1-1.947-1.984c0-3.135.807-4.7,2.469-4.7,1.283,0,1.948.732,1.948,2.247a6.567,6.567,0,0,1-.618,3.135A1.9,1.9,0,0,1,738.336,552.94Z" fill="#000000"/><path d="M754.153,565.376l-6.128,1.41a12.305,12.305,0,0,0-.759,4.024,5.864,5.864,0,0,0,.665,3.291,3.454,3.454,0,0,0,2.9,1.045c3.088,0,5.7-1.725,7.743-5.172l-.048-.367c0-1.2.618-1.776,1.853-1.776,1.093,0,1.71.68,1.947,2.037a12.414,12.414,0,0,1-2.564,3.762,18.418,18.418,0,0,1-3.373,3.031,10.624,10.624,0,0,1-5.843,1.933,6.015,6.015,0,0,1-4.893-2.09,8,8,0,0,1-1.614-5.276,18.421,18.421,0,0,1,2.042-8.413,15.91,15.91,0,0,1,5.558-6.425,7.258,7.258,0,0,1,3.847-1.36c3.088,0,5.178,1.307,6.271,3.867a6.536,6.536,0,0,1,.617,2.56c-.1.836-.95,1.62-2.517,2.3A33.083,33.083,0,0,1,754.153,565.376Zm-4.275-2.4,5.368-1.306c.523-.157,1.234-.366,2.233-.627.285-.052.617-.1.95-.157.237-.052.332-.052.332-.1a1.85,1.85,0,0,0-.617-1.2,2.876,2.876,0,0,0-2.281-1.1C753.916,558.479,751.921,559.994,749.878,562.972Z" fill="#000000"/><path d="M785.5,567.778c-2.138,3.815-3.183,6.741-3.183,8.883,0,.992-.57,1.515-1.71,1.515-1.378,0-2.043-.627-2.09-1.933l-3.087-12.7-4.893,12.173c-.048,1.62-.665,2.456-1.9,2.456a1.684,1.684,0,0,1-1.52-.679,3.4,3.4,0,0,1-.428-1.986l-2.565-17.293a1.987,1.987,0,0,1-.427-1.359,1.945,1.945,0,0,1,1.9-2.089c1.283,0,1.9.678,1.9,1.985a4.48,4.48,0,0,1-.143.574l1.805,12.905,4.7-11.651a4.265,4.265,0,0,1-.333-1.463c0-1.148.713-1.724,2.186-1.724,1.234,0,1.852,1.1,1.852,3.344l2.945,12.173c.523-1.2,2.09-4.545,4.8-9.978a7.3,7.3,0,0,0,.666-2.717,2.344,2.344,0,0,1-.19-1.1,1.586,1.586,0,0,1,.807-1.306,2.879,2.879,0,0,1,1.472-.418,1.59,1.59,0,0,1,1.758,1.515,2.5,2.5,0,0,1-.522,1.62C789.019,560.569,787.736,563.651,785.5,567.778Z" fill="#000000"/><path d="M385.177,957.342a36.669,36.669,0,0,0,4.651-4.256,26.817,26.817,0,0,0,1.9-2.21c.483-.614,1.079-1.433,1.748-2.374-.335.205-.6.409-.818.532a5.708,5.708,0,0,1-2.976.7,6.865,6.865,0,0,1-5.357-2.414A8.735,8.735,0,0,1,382.2,941.3a9.565,9.565,0,0,1,2.307-6.467,7.258,7.258,0,0,1,11.2-.04,9.573,9.573,0,0,1,2.27,6.507c0,5.524-3.572,11.377-10.714,17.433Zm.968-20.79a6.345,6.345,0,0,0-1.6,4.461,6.65,6.65,0,0,0,1.674,4.543,5.049,5.049,0,0,0,4.018,1.882,4.81,4.81,0,0,0,3.682-1.841,6.285,6.285,0,0,0,1.6-4.3,6.963,6.963,0,0,0-1.562-4.584,4.77,4.77,0,0,0-3.8-1.923A5.081,5.081,0,0,0,386.145,936.552Z" fill="#000000"/><path d="M404.819,943.223h3.348v2.415h-3.348v6.548c0,3.11.446,3.8,2.083,3.8h.484l.52-.041.372-.041-.111,2.5-.447.041-.743.041c-1.749,0-2.939-.368-3.535-1.1q-.893-1.044-.893-4.788v-6.957h-1.3l.148-2.415h1.153v-4.542l2.27-1.188Z" fill="#000000"/><path d="M413.449,945.31a4.541,4.541,0,0,1,1.786-1.76,4.593,4.593,0,0,1,2.344-.613,3.7,3.7,0,0,1,3.2,1.472,8.24,8.24,0,0,1,1,4.584v9.167l-2.306.368v-9.167a5.24,5.24,0,0,0-.707-3.028,2.4,2.4,0,0,0-2.083-.982,2.748,2.748,0,0,0-2.307,1.228,5.113,5.113,0,0,0-.93,3.233v8.348l-2.269.368v-29.1l2.269-.369Z" fill="#000000"/><path d="M450.277,929.473l.186,2.619H443.32V958.16l-2.492.368V932.092h-7.4l.632-2.619Z" fill="#000000"/><path d="M463.705,945.064a8.386,8.386,0,0,1,2.084,5.648,8.059,8.059,0,0,1-2.084,5.606,6.534,6.534,0,0,1-5.059,2.333,6.8,6.8,0,0,1-5.059-2.292,8.813,8.813,0,0,1,.037-11.336,6.65,6.65,0,0,1,10.081.041Zm-8.407,1.719a5.805,5.805,0,0,0-1.413,3.929,5.89,5.89,0,0,0,1.376,3.929,4.429,4.429,0,0,0,6.807,0,6.044,6.044,0,0,0,1.377-3.929,5.9,5.9,0,0,0-1.377-3.929,4.289,4.289,0,0,0-3.384-1.637A4.24,4.24,0,0,0,455.3,946.783Z" fill="#000000"/><path d="M470.848,951.9a6.013,6.013,0,0,0,.669,3.193,2.265,2.265,0,0,0,2.045,1.064,3.04,3.04,0,0,0,2.457-1.187,5.327,5.327,0,0,0,.929-3.274v-8.266l2.27-.409V958l-2.27.369v-2.129a5.9,5.9,0,0,1-1.823,1.719,4.437,4.437,0,0,1-2.344.655,3.586,3.586,0,0,1-3.2-1.514,7.818,7.818,0,0,1-1.078-4.542v-9.126l2.344-.409Z" fill="#000000"/><path d="M485.393,945.31a4.532,4.532,0,0,1,1.785-1.76,4.594,4.594,0,0,1,2.343-.613,3.7,3.7,0,0,1,3.2,1.472,8.231,8.231,0,0,1,1,4.584v9.167l-2.307.368v-9.167a5.24,5.24,0,0,0-.707-3.028,2.4,2.4,0,0,0-2.083-.982,2.751,2.751,0,0,0-2.307,1.228,5.113,5.113,0,0,0-.929,3.233v8.348l-2.27.368v-29.1l2.27-.369Z" fill="#000000"/><path d="M508.68,945.064a8.386,8.386,0,0,1,2.084,5.648,8.059,8.059,0,0,1-2.084,5.606,6.534,6.534,0,0,1-5.059,2.333,6.8,6.8,0,0,1-5.059-2.292,8.813,8.813,0,0,1,.037-11.336,6.65,6.65,0,0,1,10.081.041Zm-8.408,1.719a5.81,5.81,0,0,0-1.413,3.929,5.9,5.9,0,0,0,1.376,3.929,4.43,4.43,0,0,0,6.808,0,6.044,6.044,0,0,0,1.377-3.929,5.9,5.9,0,0,0-1.377-3.929,4.291,4.291,0,0,0-3.385-1.637A4.24,4.24,0,0,0,500.272,946.783Z" fill="#000000"/><path d="M515.822,951.9a6.023,6.023,0,0,0,.669,3.193,2.267,2.267,0,0,0,2.046,1.064,3.038,3.038,0,0,0,2.456-1.187,5.321,5.321,0,0,0,.93-3.274v-8.266l2.269-.409V958l-2.269.369v-2.129a5.911,5.911,0,0,1-1.823,1.719,4.442,4.442,0,0,1-2.344.655,3.586,3.586,0,0,1-3.2-1.514,7.818,7.818,0,0,1-1.078-4.542v-9.126l2.343-.409Z" fill="#000000"/><path d="M542.94,929.473a9.507,9.507,0,0,1,7.068,2.578,9.64,9.64,0,0,1,2.567,7.039,9.143,9.143,0,0,1-2.716,7,10.3,10.3,0,0,1-7.365,2.578h-.744l-.6-.041v9.535l-2.529.368V929.473Zm-1,16.615.595.041a7.73,7.73,0,0,0,5.543-1.842,6.983,6.983,0,0,0,1.9-5.238,7.124,7.124,0,0,0-1.823-5.2,6.918,6.918,0,0,0-5.208-1.883h-1.786v14.078Z" fill="#000000"/><path d="M561.651,945.679h-.52c-1.935,0-3.088,1.677-3.088,4.583v7.9l-2.27.368V943.51l2.27-.369v2.333a5.232,5.232,0,0,1,1.6-1.842,3.378,3.378,0,0,1,2.008-.654Z" fill="#000000"/><path d="M575.117,945.064a8.386,8.386,0,0,1,2.084,5.648,8.059,8.059,0,0,1-2.084,5.606,6.534,6.534,0,0,1-5.058,2.333,6.8,6.8,0,0,1-5.06-2.292,8.813,8.813,0,0,1,.037-11.336,6.65,6.65,0,0,1,10.081.041Zm-8.407,1.719a5.805,5.805,0,0,0-1.413,3.929,5.89,5.89,0,0,0,1.376,3.929,4.429,4.429,0,0,0,6.807,0,6.044,6.044,0,0,0,1.377-3.929,5.9,5.9,0,0,0-1.377-3.929,4.289,4.289,0,0,0-3.384-1.637A4.24,4.24,0,0,0,566.71,946.783Z" fill="#000000"/><path d="M582.52,958.037c0,2.537-.3,4.3-.893,5.238a4.107,4.107,0,0,1-3.236,1.719l.037-2.5a1.657,1.657,0,0,0,1.413-.941,8.983,8.983,0,0,0,.409-3.479v-14.65l2.27-.409Zm.707-20.83-1.861,2.046-1.785-2.046,1.785-2Z" fill="#000000"/><path d="M588.546,953.454a5.655,5.655,0,0,0,1.674,2,4.265,4.265,0,0,0,2.306.7,4.648,4.648,0,0,0,2.27-.45,3.159,3.159,0,0,0,.744-.369,10.873,10.873,0,0,0,1.265-.94l.557,2.291a7.32,7.32,0,0,1-2.231,1.473,7.4,7.4,0,0,1-2.642.491,5.931,5.931,0,0,1-4.761-2.374,8.326,8.326,0,0,1-2.009-5.606,8.072,8.072,0,0,1,2.046-5.648,6.274,6.274,0,0,1,4.873-2.251,6.132,6.132,0,0,1,3.237.942,8.8,8.8,0,0,1,2.641,2.865Zm5.654-8.184a4.515,4.515,0,0,0-1.674-.329,4.389,4.389,0,0,0-3.347,1.556,5.631,5.631,0,0,0-1.414,3.847l.111,1.145.037.123,7.664-5.361A5.457,5.457,0,0,0,594.2,945.27Z" fill="#000000"/><path d="M610.309,946.374a6.81,6.81,0,0,0-3.609-1.228,4.291,4.291,0,0,0-3.386,1.637,5.93,5.93,0,0,0-1.413,3.929,5.64,5.64,0,0,0,1.413,3.847,4.319,4.319,0,0,0,3.386,1.6,4.54,4.54,0,0,0,1.9-.409,2.725,2.725,0,0,0,.93-.41,6.073,6.073,0,0,0,.967-.7l.707,2.292a9.576,9.576,0,0,1-2.157,1.227,6.359,6.359,0,0,1-2.381.491,6.8,6.8,0,0,1-5.059-2.292,8.348,8.348,0,0,1-2.046-5.647,8.068,8.068,0,0,1,2.046-5.648,6.63,6.63,0,0,1,5.059-2.292,9.688,9.688,0,0,1,2.306.329,7.783,7.783,0,0,1,2.158,1.063Z" fill="#000000"/><path d="M616.371,943.223h3.349v2.415h-3.349v6.548c0,3.11.447,3.8,2.084,3.8h.483l.521-.041.372-.041-.111,2.5-.447.041-.744.041c-1.749,0-2.939-.368-3.534-1.1q-.894-1.044-.892-4.788v-6.957h-1.3l.149-2.415H614.1v-4.542l2.268-1.188Z" fill="#000000"/><path d="M858.972,967.168l-2.347-8.314h1.292l1.055,4.192,1.087-4.192H861.3Z" fill="#000000"/><path d="M865.1,966.613q-1.7,0-1.7-1.3V965h-1.07l-.724-.8H863.4v-5.352h3.575v.832h-2.33v4.52h2.33v.8h-2.33v.468c0,.207.157.311.457.311h1.873v.831Z" fill="#000000"/><path d="M872.06,966.613V965.4c0-.225-.095-.346-.268-.381a1.061,1.061,0,0,0-.269-.017h-1.054v1.61h-1.244V965h-1.071l-.724-.8h1.8v-5.7a4.522,4.522,0,0,1,1.055.26,5.9,5.9,0,0,1,1.952,1.039,2.771,2.771,0,0,1,1.055,2.182,2.737,2.737,0,0,1-1.26,2.217,1.486,1.486,0,0,1,.993.294,1.216,1.216,0,0,1,.267.9v1.212Zm-.789-6.165a5.941,5.941,0,0,0-.8-.572v4.33a6.729,6.729,0,0,0,.787-.519,2.094,2.094,0,0,0,.8-1.611A2.24,2.24,0,0,0,871.271,960.448Z" fill="#000000"/><path d="M881.6,966.613V955.6h-1.45l3.386-2.5v13.509Z" fill="#000000"/><path d="M887.354,966.613v-1.4h1.889v1.4Z" fill="#000000"/><path d="M897.1,966.3a3.716,3.716,0,0,1-2.268.658,3.885,3.885,0,0,1-2.268-.624,1.95,1.95,0,0,1-.881-1.662v-9.093a1.937,1.937,0,0,1,.9-1.628,3.759,3.759,0,0,1,2.252-.641,4.171,4.171,0,0,1,2.047.5A1.948,1.948,0,0,1,898,955.581v9.093A1.962,1.962,0,0,1,897.1,966.3Zm-.993-10.357a1.083,1.083,0,0,0-.331-.935,1.329,1.329,0,0,0-.944-.26,1.066,1.066,0,0,0-1.213,1.2v8.348c0,.8.425,1.194,1.26,1.194a1.071,1.071,0,0,0,1.228-1.194Z" fill="#000000"/><path d="M906.362,966.3a3.715,3.715,0,0,1-2.267.658,3.88,3.88,0,0,1-2.268-.624,1.951,1.951,0,0,1-.882-1.662v-9.093a1.938,1.938,0,0,1,.9-1.628,3.755,3.755,0,0,1,2.252-.641,4.171,4.171,0,0,1,2.047.5,1.948,1.948,0,0,1,1.118,1.767v9.093A1.963,1.963,0,0,1,906.362,966.3Zm-.992-10.357a1.083,1.083,0,0,0-.331-.935,1.329,1.329,0,0,0-.944-.26,1.066,1.066,0,0,0-1.213,1.2v8.348c0,.8.426,1.194,1.26,1.194a1.071,1.071,0,0,0,1.228-1.194Z" fill="#000000"/><g id="_" data-name=""><path d="M971.941,921.8a1.32,1.32,0,0,1,.814.253.773.773,0,0,1,.353.71l-.061,2.3h3.178a3.74,3.74,0,0,1,1,.084c.154.079.23.254.23.523a1.429,1.429,0,0,1-.2.743.659.659,0,0,1-.537.271q-.262,0-1.075-.051-.768-.016-1.4-.017-.492,0-1.274.017l-.092,3.294a54,54,0,0,1,6.372.727,3.454,3.454,0,0,1-.461,1.537.786.786,0,0,1-.66.489,4.912,4.912,0,0,1-1.183-.253,19.416,19.416,0,0,0-5.189-.743,15.163,15.163,0,0,0-5.068.81,3.358,3.358,0,0,1-1.028.253.811.811,0,0,1-.584-.32.912.912,0,0,1-.276-.608.974.974,0,0,1,.737-1.082,20.058,20.058,0,0,1,5.466-.81l-.062-7.161a.871.871,0,0,1,.278-.676A.9.9,0,0,1,971.941,921.8Z" fill="#000000"/><path d="M965.431,943.377l2.579.067q.431.135.43.422,0,.439-.876.794a17.2,17.2,0,0,1-2.087.625.811.811,0,0,1-.476-.27.768.768,0,0,1-.246-.54,1.655,1.655,0,0,1,.2-.76C965.108,943.489,965.267,943.377,965.431,943.377Zm1.1-4.392q.4,0,1.136.76,1.182,1.2,1.182,1.47a.369.369,0,0,1-.414.422,2.2,2.2,0,0,1-.614-.118,7.536,7.536,0,0,0-1.459-.2q-.768-.084-.767-1.233a1.15,1.15,0,0,1,.291-.777A.935.935,0,0,1,966.536,938.985Zm1.09,7.652a.228.228,0,0,1,.262.253q0,.3-.231,2.314a.727.727,0,0,1-.829.727,1.1,1.1,0,0,1-.722-.238,1.023,1.023,0,0,1-.307-.759,1.154,1.154,0,0,1,.23-.54l1.259-1.538C967.421,946.71,967.534,946.637,967.626,946.637Zm3.7-4.746a.988.988,0,0,1,.6.169.187.187,0,0,1,.076.05q1-.067,2.564-.068,2.488,0,3.149.085c.2.022.306.107.306.253a2.063,2.063,0,0,1-.123.372,11.293,11.293,0,0,0-.46,1.942q.906.068,1.919.169A2.721,2.721,0,0,1,979,946.13q-.261.44-.553.439a3.009,3.009,0,0,1-.9-.237c-.134-.033-.262-.067-.385-.1-.03.169-.056.344-.076.524s-.066.354-.107.523q.705.051,1.274.085c.174.033.261.1.261.2a1.279,1.279,0,0,1-.2.744.648.648,0,0,1-.538.287c-.183,0-.557-.023-1.12-.068a3.864,3.864,0,0,1-.492,1.065,1.03,1.03,0,0,1-.844.625,1.32,1.32,0,0,1-1.121-.812,2.742,2.742,0,0,0,.691-.979q-1.566-.049-3.808-.051a3.064,3.064,0,0,0-1.167.169,1.071,1.071,0,0,1-.384.118.582.582,0,0,1-.429-.185.489.489,0,0,1-.185-.422,1.964,1.964,0,0,1,.153-.558q.216-.659.43-1.334c-.133.033-.261.062-.384.084a3.694,3.694,0,0,1-.936.186.5.5,0,0,1-.368-.237.536.536,0,0,1-.185-.371.614.614,0,0,1,.491-.676,14,14,0,0,1,1.827-.388q.354-1.149.707-2.382A.617.617,0,0,1,971.327,941.891Zm-.385-3.091a2.2,2.2,0,0,1,1,.2.574.574,0,0,1,.291.473,1.136,1.136,0,0,1-.107.422q1.014-.1,2.779-.1a41.363,41.363,0,0,1,4.161.152,2.684,2.684,0,0,1-.276,1.2.434.434,0,0,1-.4.288q-.323,0-1.321-.068-1.6-.151-2.64-.152a20.375,20.375,0,0,0-2.457.135,6.439,6.439,0,0,1-.829.085.243.243,0,0,1-.092-.018.716.716,0,0,0-.123.136,2.964,2.964,0,0,1-1.95,1.232c-.277,0-.416-.095-.416-.287a.612.612,0,0,1,.2-.354,8.83,8.83,0,0,0,1.382-1.757,2.217,2.217,0,0,0,.383-1.047.985.985,0,0,0-.2-.49A2.954,2.954,0,0,1,970.942,938.8Zm1.5,8.377.308-1.4q-.815.035-1.567.119l-.368,1.215c0,.045.128.068.384.068Zm-.875-2.568q.675-.049,1.459-.067l.292-1.283q-.753.016-1.367.051Zm3.716,2.619a.133.133,0,0,0,.016-.051q.185-.692.338-1.267a12.238,12.238,0,0,0-1.659-.152l-.307,1.436Q974.536,947.194,975.288,947.228Zm-.736-3.969-.308,1.283q.8,0,1.72.051a7.616,7.616,0,0,0,.2-1.149Q976.163,943.276,974.552,943.259Z" fill="#000000"/><path d="M977.914,968.117H966.106V955.061h11.808Z" fill="#000000"/><path d="M955.386,926.305a12.018,12.018,0,0,1-.155,2.3,3.708,3.708,0,0,1-.966,1.857A5.413,5.413,0,0,1,951.946,932a5.056,5.056,0,0,1-1.766.372q-1.275,0-1.275-1.064a2.835,2.835,0,0,1,1.06-2.4c.093.406.4.609.922.609a2.044,2.044,0,0,0,2.149-1.453,4.242,4.242,0,0,0,.2-1.064v-.761q0-.861.953-.861a1.824,1.824,0,0,1,.844.136A.834.834,0,0,1,955.386,926.305Zm5.6-2.348a.893.893,0,0,1-.322.692,6.957,6.957,0,0,0-.661.49,1.524,1.524,0,0,0-.506.423q-1.705,2.111-2.288,2.111-.708,0-.707-.643a6.253,6.253,0,0,1,.584-1.35,1.257,1.257,0,0,0,.107-.389c0-.293-.137-.439-.414-.439q-.047,0-.952-.034c-.6-.034-.977-.05-1.121-.05a14.8,14.8,0,0,0-2.933.287q-1.428.269-1.52.269a.9.9,0,0,1-.569-.219,1.083,1.083,0,0,1-.352-.811,1.119,1.119,0,0,1,.982-1.283,18.4,18.4,0,0,1,2.871-.22q3.317,0,5.605.22a6.41,6.41,0,0,1,1.689.321Q960.99,923.553,960.99,923.957Z" fill="#000000"/><path d="M959.1,940.539q0,.3-.154,2.449-.276,3.615-1.935,5.186a5.763,5.763,0,0,1-4.084,1.334,5.089,5.089,0,0,1-1.306-.118q-.813-.22-.813-.912a3.087,3.087,0,0,1,1.413-2.23,1.524,1.524,0,0,0,1.427.574,2.634,2.634,0,0,0,1.782-.81,4.735,4.735,0,0,0,1.258-3.565V941.4c.01-.45.016-.714.016-.794q0-.91,1.213-.912a1.521,1.521,0,0,1,.768.2A.744.744,0,0,1,959.1,940.539Zm-6-.084q0,.2-.016,1.452-.015,1.267-.016,1.706,0,1.74-1.181,1.74-.921,0-.922-1.233c0-.146-.015-.682-.046-1.6s-.03-1.56-.03-1.91q0-.878,1.151-.877Q953.1,939.729,953.1,940.455Z" fill="#000000"/><path d="M960.452,965.55q-.736,1.065-1.428,1.064a1.427,1.427,0,0,1-.859-.523c-.123-.112-.328-.305-.614-.574q-.4-.39-.692-.643a14.477,14.477,0,0,0-2.457-1.638q-2.716,2.838-4.79,2.837-.815,0-.814-1.063a4.4,4.4,0,0,1,.876-2.162.806.806,0,0,0,.644.287,3.2,3.2,0,0,0,1.49-.524,7.145,7.145,0,0,0,1.55-1.115,11.933,11.933,0,0,0,.983-1.114,1.9,1.9,0,0,0,.415-.727c0-.179-.149-.27-.445-.27a17.978,17.978,0,0,0-2.672.169c-.717.091-1.044.135-.983.135a.732.732,0,0,1-.476-.219,1.07,1.07,0,0,1-.338-.862.91.91,0,0,1,1.045-1.013l1.734-.034q1.8-.084,2.688-.084a6.538,6.538,0,0,1,2.487.287.651.651,0,0,1,.461.607.682.682,0,0,1-.261.507,3.7,3.7,0,0,0-.491.474q-.477.607-1.8,2.4a10.979,10.979,0,0,0,3.04,1.621q.66.253,2,.659c.092.023.21.056.354.1h.015A2.8,2.8,0,0,1,960.452,965.55Z" fill="#000000"/><path d="M935.268,921.677a.819.819,0,0,1,.66.253,1.093,1.093,0,0,1,.246.675,1.8,1.8,0,0,1-.569,1.149l-1.858,1.739c-.266.293-.4.48-.4.558,0,.169.173.354.521.557l.692.3q.951-.911,1.857-1.824a1.283,1.283,0,0,1,.814-.507.791.791,0,0,1,.492.22.846.846,0,0,1,.245.574,2.12,2.12,0,0,1-.706,1.453l-2.917,2.855,2.38.084c.081,0,.122-.062.122-.186a2.544,2.544,0,0,1-.614-.946q0-.472.43-.473.4,0,1.627,1.216,1.014.964,1.014,1.486,0,.744-.553.744a3.973,3.973,0,0,1-.645-.119,15.7,15.7,0,0,0-1.9-.084h-2.042a8.98,8.98,0,0,0-2,.169,1.693,1.693,0,0,1-.461.169q-.936,0-.936-.676a1.881,1.881,0,0,1,.737-1.334q.875-.777,1.7-1.537a11.068,11.068,0,0,0-1.812-.879q-.69-.236-.691-.574,0-.321.614-1l2.6-3.074Q934.792,921.677,935.268,921.677Zm5.958.607a31.654,31.654,0,0,1,3.27.1q.476.1.476.372a.882.882,0,0,1-.108.3,2.093,2.093,0,0,0-.215.962l-.091,4.848a4.56,4.56,0,0,1-1.245,3.04,2.974,2.974,0,0,1-2.087.98,1.114,1.114,0,0,1-.845-.44,4.152,4.152,0,0,1-.753-1.655,5.257,5.257,0,0,0,2.473-.929,2.637,2.637,0,0,0,.844-2.162v-3.462c0-.146-.087-.22-.261-.22q-2.227,0-3.578.135a4.823,4.823,0,0,1-.967.153c-.154,0-.307-.108-.46-.322a1.1,1.1,0,0,1-.216-.709c0-.462.282-.765.845-.912A25.7,25.7,0,0,1,941.226,922.284Z" fill="#000000"/><path d="M933.594,938.985a.559.559,0,0,1,.491.22.83.83,0,0,1,.185.524.8.8,0,0,1-.292.54l-.967.828q-.216.219-.216.27c0,.045.077.09.23.135l.277.067.66-.658a.8.8,0,0,1,.507-.287c.317,0,.476.2.476.591a.739.739,0,0,1-.322.591l-1.644,1.435c0,.046.046.069.139.069h1.09c.092,0,.139-.023.139-.069a2.472,2.472,0,0,1-.2-.607c0-.169.108-.254.323-.254q.261,0,.783.625a1.718,1.718,0,0,1,.445.861q0,.542-.491.541a2.117,2.117,0,0,1-.414-.067h-1.321a12.3,12.3,0,0,0-1.766.1,1.188,1.188,0,0,1-.368.1.412.412,0,0,1-.384-.422q0-.219.46-.625l.845-.879a7.378,7.378,0,0,0-1.06-.456q-.367-.1-.368-.269t.368-.558l1.582-1.757C933.139,939.183,933.409,938.985,933.594,938.985Zm4.422-.321a2.371,2.371,0,0,1,.906.118.287.287,0,0,1,.215.271,1.321,1.321,0,0,1-.154.557,10.5,10.5,0,0,1,1.628.169c.154.033.231.113.231.237q-.078.4-.185,1.2l.169-.186,1.567-1.638c.347-.361.614-.541.8-.541a.587.587,0,0,1,.492.219.88.88,0,0,1,.184.524.77.77,0,0,1-.322.507l-1.06.743c-.143.124-.214.2-.214.237,0,.056.061.118.184.186l.291.151.553-.523a.816.816,0,0,1,.507-.27c.328,0,.491.2.491.591a.671.671,0,0,1-.353.557l-1.673,1.351q0,.051.123.051h.966c.133,0,.2-.017.2-.051a2.263,2.263,0,0,1-.2-.557c0-.169.108-.254.323-.254.174,0,.42.2.737.609a1.529,1.529,0,0,1,.43.81c0,.361-.144.54-.43.54h-1.75a10.614,10.614,0,0,0-1.644.1,1.107,1.107,0,0,1-.368.1.434.434,0,0,1-.292-.153.372.372,0,0,1-.107-.253.5.5,0,0,1-.215.051,1.548,1.548,0,0,1-.246-.051q-.446-.051-1.228-.067l.092.051a1.144,1.144,0,0,1,.4.692q2.394.086,5.972.54a2.974,2.974,0,0,1-.429,1.4c-.175.326-.384.489-.63.489a4.344,4.344,0,0,1-1.136-.27,17.935,17.935,0,0,0-3.793-.71l-.03,1.926a2.994,2.994,0,0,1-.324,1.5.832.832,0,0,1-.783.523,1.092,1.092,0,0,1-.8-.337q-.321-.253-.322-1.554v-2.077a18.229,18.229,0,0,0-4.208.625,4.13,4.13,0,0,1-1.074.219.589.589,0,0,1-.415-.237.6.6,0,0,1-.2-.422.75.75,0,0,1,.552-.827,19.5,19.5,0,0,1,5.359-.777,1.1,1.1,0,0,1,.307-.642,1.239,1.239,0,0,1,.154-.118,7.03,7.03,0,0,0-1.014.118.588.588,0,0,1-.2.084q-.293,0-.354-.54l-.322-3.446a.4.4,0,0,1,.292-.406,10.574,10.574,0,0,1,1.182-.168,1.8,1.8,0,0,0,.138-.524.557.557,0,0,0-.2-.32A5.932,5.932,0,0,1,938.016,938.664Zm-2.933,8.445q.123,0,.123.135a2.426,2.426,0,0,1-.737,1.487,2.6,2.6,0,0,1-1.735,1c-.369,0-.552-.288-.552-.862a1.557,1.557,0,0,1,.26-1.013c.021.09.118.134.292.134a3.236,3.236,0,0,0,1.782-.675A1.323,1.323,0,0,1,935.083,947.109Zm1.981-5.692a7.186,7.186,0,0,1,.906-.05c.369,0,.742.017,1.121.05l.046-.591c0-.055-.036-.1-.108-.118a5.269,5.269,0,0,0-1.121-.084,2.439,2.439,0,0,0-.736.1c-.082.023-.123.056-.123.1Zm.23,1.571a3.923,3.923,0,0,1,.707-.067,4.865,4.865,0,0,1,.813.067c.113,0,.179-.067.2-.2l.03-.489q-.568-.051-1.075-.051c-.338,0-.629.012-.875.034l.015.642C937.11,942.966,937.172,942.988,937.294,942.988Zm3.133.658.261-.287.983-.928a6.686,6.686,0,0,0-.906-.558.766.766,0,0,1-.169-.1Q940.518,942.567,940.427,943.646Zm.415,3.531a1.892,1.892,0,0,1,.813.27,7.823,7.823,0,0,0,1.9.811,3.226,3.226,0,0,1-.553,1.233,1.087,1.087,0,0,1-.737.3q-.37,0-.83-.558a3.881,3.881,0,0,1-.783-1.857C940.657,947.244,940.719,947.177,940.842,947.177Z" fill="#000000"/><path d="M938.016,956.4a38.9,38.9,0,0,1,5.927.3c.359.057.537.181.537.372q-.308,2.315-.675,9.239c-.021.406-.149.608-.384.608a6.223,6.223,0,0,1-.676-.084q-1.551-.168-4.76-.169a48.46,48.46,0,0,0-5.082.2,3.2,3.2,0,0,1-.6.118c-.195,0-.313-.173-.353-.523l-.614-9.121q0-.489.722-.608A52.314,52.314,0,0,1,938.016,956.4Zm-4.484,8.714c.84-.021,1.669-.039,2.488-.049a.736.736,0,0,1-.138-.169,2.218,2.218,0,0,1-.322-1.268,4.741,4.741,0,0,0,2.165-.388.888.888,0,0,0,.475-.76v-1.909a15.9,15.9,0,0,0-3.01.3,8.263,8.263,0,0,1-.92.118.562.562,0,0,1-.43-.2.906.906,0,0,1-.169-.541.731.731,0,0,1,.414-.692,18.085,18.085,0,0,1,4.115-.253v-.811a.767.767,0,0,1,.139-.473h-.323q-2.3,0-4.284.186-.753.068-.753.2l.37,6.571C933.349,965.066,933.409,965.11,933.532,965.11Zm3.455-4.07q.416,0,.415.49c0,.09-.123.271-.369.54a4.656,4.656,0,0,1-1.182.845,2.554,2.554,0,0,1-1.029.287.419.419,0,0,1-.475-.473,1.926,1.926,0,0,1,.352-1,.249.249,0,0,0,.246.119,2.215,2.215,0,0,0,.814-.186,3.725,3.725,0,0,0,.922-.523A.5.5,0,0,1,936.987,961.04Zm2.626-3.023a.46.46,0,0,1,.076.254,4.4,4.4,0,0,0-.061.607v.439q1.167.053,2.441.186a2.74,2.74,0,0,1-.291,1.267.536.536,0,0,1-.445.219,4.6,4.6,0,0,1-.8-.118c-.327-.078-.63-.141-.906-.185v1.976a2.185,2.185,0,0,1-.875,1.908,4.334,4.334,0,0,1-.937.473h4.253c.123,0,.19-.1.2-.287l.353-6.418c0-.09-.134-.152-.4-.186Q941.317,958.05,939.613,958.017Z" fill="#000000"/></g></g><g id="Overlap"><g id="hantasma"><g id="h"><path d="M6.27,321.194a99.058,99.058,0,0,1,15.52-11.037,4,4,0,0,0-1.978-7.475h-.005A62.992,62.992,0,0,0,0,305.458V325.73a4,4,0,0,0,2.9-1.245C3.981,323.347,5.115,322.24,6.27,321.194Z" fill="#fff"/><path d="M15.152,532.914a4,4,0,0,0-.019-5.989l-1.59-1.4a4,4,0,0,0-5.056-.187L3.4,529.188c-.064.048-.127.1-.188.151a23.769,23.769,0,0,1-3.21,2.4v13.313a4,4,0,0,0,2.661-1.013Z" fill="#fff"/><path d="M18.95,439.191a13.214,13.214,0,0,1,2.252-2.029c.771.828,2.04,2.309,4.006,4.9.04.053.081.105.124.156,2.983,3.555,5.563,5.857,7.971,7.061v85.9c0,2.216-.97,4.582-3.053,7.445l-.07.1c-5.69,8.346-8.011,13.358-8.011,17.3,0,.121,0,.241.016.362.234,2.569,1.414,7.837,8.521,25.915a41.882,41.882,0,0,1,2.915,15.013,36.363,36.363,0,0,1-2.514,13.047l-1.171,2.254a4,4,0,0,0,3.549,5.844c5.232,0,10.274-2.2,14.988-6.538,5.091-3.936,7.78-8.984,7.78-14.607,0-5.184-3.46-11.3-11.219-19.837l-.066-.071c-6.105-6.395-9.073-12.13-9.073-17.533a14.923,14.923,0,0,1,3.167-9.635,17.365,17.365,0,0,1,8.417-5.375l19.366-4.54c.05-.012.1-.024.149-.038a14.17,14.17,0,0,0,4.261-2.275c.325-.225.662-.458,1.016-.692a4,4,0,0,0,.047-6.645l-6.588-4.486c-3.166-2.437-4.705-5.154-4.705-8.3V448.869a33.422,33.422,0,0,0,7.288-6.942c6.072-6.7,6.072-9.69,6.072-10.675a4,4,0,0,0-1.8-3.339L71,426.864a4,4,0,0,0-2.2-.662c-6.52,0-11.9-1.983-16.007-5.893-1.174-1.107-2.929-3.478-4.71-8.573a57.223,57.223,0,0,0-3.408-8.222,3.994,3.994,0,0,0-4.17-2.107c-3.909.614-6.656,3.21-8.383,5.11L0,441.845V458.09a4,4,0,0,0,2.96-1.31Z" fill="#fff"/></g><path id="a" d="M204.147,524.23a4,4,0,0,0-4.642-1.584l-5.09,1.75c-.087.03-.173.063-.257.1-4.17,1.763-6.668,2.483-8.621,2.483-1.659,0-5.543,0-5.543-9.647V442.053l12.964-9.3c.055-.04.108-.08.161-.122,10.36-8.253,15.186-14.918,15.186-20.974a4,4,0,0,0-.579-2.072l-.041-.1a9.657,9.657,0,0,0-2.743-4.061,4,4,0,0,0-.62-.42c-.128-.071-.274-.164-.444-.268a23.366,23.366,0,0,0-3.053-1.638,4,4,0,0,0-1.61-.338c-1.912,0-5.507.85-8.095,6.544-.035.078-.068.158-.1.238l-3.181,8.4c-.032.085-.061.17-.088.257-.8,2.647-1.494,4.084-2.313,4.806a3.735,3.735,0,0,0-.317.312,3.147,3.147,0,0,1-1.758.968,148.89,148.89,0,0,1-8.24-15.1q-.035-.071-.072-.138c-2.291-4.2-6.1-9.783-12.737-9.783a4,4,0,0,0-2.959,1.309l-20.171,22.188a37.375,37.375,0,0,1-15.029,7.9,43.044,43.044,0,0,0,3.033-14.448c0-4.808-1.277-8.55-3.9-11.439-.082-.09-.168-.176-.257-.258-2.787-2.555-6.907-3.85-12.246-3.85-5.85,0-10.229,1.813-13.016,5.39-2.426,3.114-3.708,7.352-3.708,12.256a38.72,38.72,0,0,0,10.265,26.835l19.3,21.227c-7.6,1.834-15.05,6.271-22.588,13.42A54.211,54.211,0,0,0,83.88,520.131c0,9.463,2.062,17.467,6.305,24.468.025.041.051.082.077.122a23.929,23.929,0,0,0,20.84,11.252c6.6,0,14.642-4.215,24.578-12.884l.046-.041a156.977,156.977,0,0,0,17.316-18c.321,4.6.815,9.624,1.485,15.155.011.086.024.172.04.258,2.329,12.38,6.755,18.657,13.156,18.657a4.053,4.053,0,0,0,.721-.065c2.436-.447,5.665-2.516,19.368-14.187a126.454,126.454,0,0,0,12.136-11.552l3.817-4.2A4,4,0,0,0,204.147,524.23Zm-88.7-2.72c-2.974-4.759-4.482-10.991-4.482-18.526a25.266,25.266,0,0,1,6.912-17.954c4.269-4.695,8.539-7.015,13.048-7.087l5.8.672.122.012,4.135.35c.113.01.226.014.339.014a4,4,0,0,0,3.42-6.073l-.637-1.05q-.031-.052-.066-.105l-1.59-2.449a4.01,4.01,0,0,0-.4-.512l-22.079-24.288a50.648,50.648,0,0,0,12.065-3.966,77.216,77.216,0,0,0,9.618-4.741c1.722-.947,3.316-1.873,4.857-2.768.821-.477,1.614-.937,2.375-1.37a6.932,6.932,0,0,1,2.336,1.733c.378.61,1.045,2.211,1.045,5.9v66.377A85.137,85.137,0,0,1,143.8,517.06c-6.919,7.3-13.219,11.318-17.744,11.318-4.722,0-8.048-2.108-10.469-6.635C115.54,521.664,115.5,521.586,115.448,521.51Z" fill="#fff"/><path id="n" d="M337.276,531.177h0a3.986,3.986,0,0,0-1.955.509,3.107,3.107,0,0,1-1.227.191h-5.725c-3.222,0-5.862-.773-7.634-2.235a3.982,3.982,0,0,0-.459-.327c-1.474-.9-2.222-3.285-2.222-7.085V444.381c2.967-1.269,6.3-3.7,10.212-7.434.033-.032.066-.065.1-.1,5.263-5.376,7.822-11.213,7.822-17.844a4,4,0,0,0-6.643-3l-1.232,1.084a16.334,16.334,0,0,1-7.259,1.418c-3.8,0-7.587-1.753-11.252-5.209-.033-.031-.067-.062-.1-.092l-1.594-1.4a117.682,117.682,0,0,0-9.6-7.986c-3.666-2.521-5.817-3.5-7.673-3.5a3.984,3.984,0,0,0-1,.127l-5.408,1.4a3.918,3.918,0,0,0-.7.254,19.752,19.752,0,0,0-6.343,4.776l-27.063,29.77a81.281,81.281,0,0,0-3.733-21.04c-.017-.048-.034-.1-.053-.143-1.325-3.4-5.356-13.745-14.861-13.745-5.745,0-11.643,4.662-18.559,14.673-.041.059-.08.119-.118.18l-7.952,12.947a4,4,0,0,0,.448,4.785,8.422,8.422,0,0,0,2.3,1.863,20.586,20.586,0,0,0,4.857,1.487l.916.222a27.166,27.166,0,0,1,5.56,2.911,6.068,6.068,0,0,1,2.354,3.183,3.932,3.932,0,0,0,.187.5,17.387,17.387,0,0,1,1.232,7.093v74.005c-3.392,1.142-6.884,3.753-10.73,7.984-5.267,5.793-7.72,10.762-7.72,15.638a4,4,0,0,0,5.612,3.661,17.827,17.827,0,0,1,4.976-1.448l.076-.012a61.71,61.71,0,0,1,9.241-.651,31,31,0,0,1,14.3,3.008,38.626,38.626,0,0,1,9.144,7.23,4,4,0,0,0,2.96,1.309h.015a4,4,0,0,0,2.965-1.331l20.677-23.1a4,4,0,0,0,.324-4.922l-.954-1.4a4,4,0,0,0-5.232-1.251l-3.181,1.749c-.23.127-.49.285-.79.47l-.1.062-5.92-4.428c-.1-.075-.2-.145-.31-.21a20.3,20.3,0,0,0-7.629-2.746V461.694c0-1.48,1.033-6.25,10.607-18.536,8.629-11.143,13.684-12.805,15.93-12.805s4.981,2.157,7.488,5.917a4.05,4.05,0,0,0,.3.4l5.386,6.22v76.541c0,13.395,2.442,24.217,7.259,32.165,3.925,6.477,7.854,9.626,12.01,9.626a3.974,3.974,0,0,0,.722-.066c2.6-.477,6.275-2.932,16.394-10.946.066-.052.13-.106.193-.163,1.331-1.2,2.683-2.362,3.989-3.487,2.065-1.779,4.019-3.461,5.806-5.193a28.564,28.564,0,0,0,3.471-3.434,4,4,0,0,0-2.895-6.756Z" fill="#fff"/><path id="t" d="M407.567,430.7c13.031,0,24.04-12.247,24.04-26.745a4,4,0,0,0-.025-.451l-.319-2.8a3.973,3.973,0,0,0-.146-.708l-.954-3.149a4,4,0,0,0-6.193-2.065l-6.308,4.624a24.391,24.391,0,0,1-9.141,1.6H397.57V319.279a3.981,3.981,0,0,0-.141-1.052l-.954-3.5a4,4,0,0,0-6.819-1.638c-.248.273-.521.538-.809.819a13.669,13.669,0,0,0-1.984,2.263c-1.041,1.225-2.4,3.279-4.539,6.522l-.636.964c-4.606,6.4-8.147,9.4-9.808,10.045-4.66,1.562-7.44,4.668-7.44,8.321a4.022,4.022,0,0,0,.132,1.018l3.5,13.3.016.06a49.306,49.306,0,0,1,1.761,12.919v31.832c-6.369.466-11.478,2.086-15.225,4.833-7.219,5.433-10.859,15.1-10.859,28.769a4,4,0,0,0,7.421,2.073c1.969-3.249,3.008-3.891,3.279-4.01a3.964,3.964,0,0,0,.475-.248c2.051-1.254,5.115-1.863,9.366-1.863h5.543v95.56c-2.311,1.058-5.645,3.139-10.846,7.144-7.471,5.754-11.1,10.8-11.1,15.416a4,4,0,0,0,5.2,3.816l4.454-1.4q.09-.029.177-.06c.487-.179,1.158-.383,2.086-.665.468-.142,1-.3,1.6-.491h5.752a17.678,17.678,0,0,1,11.195,3.686,46.582,46.582,0,0,1,8.442,8.62,4,4,0,0,0,3.047,1.684c.073,0,.147.007.22.007a4,4,0,0,0,2.993-1.347l24.812-27.993a4,4,0,0,0,.907-3.541,6.455,6.455,0,0,0-6.446-5.212,4,4,0,0,0-2.365.774l-2.863,2.1a12.639,12.639,0,0,1-1.674,1.06l-1.99-1a33.647,33.647,0,0,0-5.876-2.843V430.7Z" fill="#fff"/><path id="a-2" data-name="a" d="M550.232,524.23a4,4,0,0,0-4.642-1.584l-5.09,1.75q-.13.045-.258.1c-4.169,1.763-6.666,2.483-8.62,2.483-1.659,0-5.543,0-5.543-9.647V442.053l12.964-9.3c.054-.04.108-.08.16-.122,10.361-8.252,15.187-14.917,15.187-20.974a4,4,0,0,0-.579-2.073l-.041-.1a9.668,9.668,0,0,0-2.742-4.059,3.933,3.933,0,0,0-.622-.422c-.128-.071-.274-.163-.445-.269a23.6,23.6,0,0,0-3.051-1.636,4,4,0,0,0-1.61-.338c-1.912,0-5.507.85-8.095,6.544-.035.078-.068.158-.1.238l-3.181,8.4c-.032.084-.061.17-.087.256-.8,2.648-1.5,4.086-2.315,4.807a4.057,4.057,0,0,0-.317.312,3.136,3.136,0,0,1-1.757.968,148.8,148.8,0,0,1-8.24-15.1q-.034-.069-.072-.138c-2.29-4.2-6.1-9.783-12.737-9.783a4,4,0,0,0-2.959,1.309L485.27,422.756a37.369,37.369,0,0,1-15.029,7.9,43.019,43.019,0,0,0,3.033-14.448c0-4.807-1.276-8.549-3.9-11.439-.081-.09-.167-.176-.257-.258-2.786-2.555-6.907-3.85-12.246-3.85-5.849,0-10.228,1.813-13.016,5.389-2.426,3.114-3.707,7.352-3.707,12.257a38.719,38.719,0,0,0,10.264,26.835l19.3,21.227c-7.6,1.834-15.05,6.271-22.588,13.42a54.211,54.211,0,0,0-17.153,40.344c0,9.462,2.062,17.465,6.3,24.467q.037.063.078.123a23.929,23.929,0,0,0,20.84,11.252c6.6,0,14.642-4.215,24.578-12.884l.045-.04a156.909,156.909,0,0,0,17.317-18c.321,4.6.815,9.624,1.485,15.155.011.086.024.173.04.258,2.329,12.38,6.755,18.657,13.156,18.657a4.05,4.05,0,0,0,.72-.065c2.436-.446,5.666-2.516,19.369-14.187a126.47,126.47,0,0,0,12.136-11.552l3.817-4.2A4,4,0,0,0,550.232,524.23Zm-88.7-2.72c-2.974-4.759-4.482-10.991-4.482-18.526a25.263,25.263,0,0,1,6.913-17.954c4.267-4.695,8.537-7.015,13.047-7.087l5.8.672.122.012,4.136.35c.113.01.226.014.338.014a4,4,0,0,0,3.419-6.074l-.636-1.05-.066-.1-1.591-2.45a3.9,3.9,0,0,0-.394-.511L466.06,444.514a50.654,50.654,0,0,0,12.066-3.966,77.251,77.251,0,0,0,9.607-4.736c1.73-.951,3.323-1.876,4.863-2.771.823-.477,1.617-.939,2.379-1.372a6.935,6.935,0,0,1,2.337,1.733c.378.61,1.044,2.211,1.044,5.9v66.377a85.034,85.034,0,0,1-8.475,11.382c-6.917,7.3-13.219,11.319-17.744,11.319-4.722,0-8.049-2.108-10.469-6.634C461.626,521.664,461.58,521.586,461.533,521.51Z" fill="#fff"/><path id="s" d="M669.07,406.957h-.03l-.112,0a3.9,3.9,0,0,0-.449.037l-10.863,1.366a18.154,18.154,0,0,0-2.729.381c-.5.094-1.078.2-1.752.313h-9.542a32.976,32.976,0,0,1-22.681-8.338l-8.816-9.006a4,4,0,0,0-2.858-1.2q-.134,0-.267.009a4,4,0,0,0-2.939,1.6L591.65,411.378c-5.719,4.961-12.963,7.476-21.539,7.476h-6.362c-.133,0-.266.007-.4.02l-3.5.35a4,4,0,0,0-2.89,6.258l5.09,7.348c.032.047.065.093.1.138a7.3,7.3,0,0,1,1.733,3.532v39.486a4.16,4.16,0,0,1-1.745,1.449,4,4,0,0,0-.618.419c-3.6,2.968-5.272,5.5-5.272,7.984a4,4,0,0,0,.065.716c1.043,5.734,7.769,5.734,9.979,5.734.124,0,.249-.006.373-.017l14.951-1.4a4.069,4.069,0,0,0,.411-.06c1.45-.29,2.849-.518,4.177-.712L549.291,532.19a3.946,3.946,0,0,0-.471.661l-1.591,2.8a4,4,0,0,0,4.538,5.834l4.86-1.336,6.457-.969c6.776.067,14.225,2.463,22.146,7.127a155.764,155.764,0,0,1,22.3,16.353,4,4,0,0,0,5.368-.043l19.108-17.574c7.8-4.652,18.25-6.914,31.943-6.914a4.007,4.007,0,0,0,1.927-.494l1.272-.7a4,4,0,0,0,1.033-6.2l-7.463-8.21c-1.7-2.452-2.63-4.787-2.63-6.6V483.739a26.114,26.114,0,0,1,3.367-11.8c3.75-7.217,4.267-9.692,4.267-11.291a4,4,0,0,0-4-4c-.133,0-.265.007-.4.02l-3.5.349a4,4,0,0,0-1.328.372,46.165,46.165,0,0,1-19.587,4.858h-8.878L669.091,418.6l.047-.051c2.524-2.777,3.8-5.179,3.9-7.33.006-.086.009-.172.009-.259A4,4,0,0,0,669.07,406.957Zm-38.7,90.079v33.242a5.939,5.939,0,0,1-.393,2.619l-.079.013c-1.271-.389-6.092-2.308-24.322-11.131-7.732-3.7-14.378-5.648-19.239-5.648a37.477,37.477,0,0,0-6.986.664l24.077-27.656h17.9C628.83,489.139,630.367,492.3,630.367,497.036ZM591.606,451.2V435.1c0-5.353.4-7.364.681-8.117l10.57,4.085c6.589,3.24,12.588,4.883,17.832,4.883a77.948,77.948,0,0,0,8.153-.35,50.849,50.849,0,0,0,8.349-.7l-25.848,27.331c-10.14-.144-14.319-1.564-16.034-2.765-.077-.053-.156-.1-.237-.153C594.215,458.8,591.606,457.235,591.606,451.2Z" fill="#fff"/><path id="m" d="M867.221,533.276h-5.412c-4.553,0-7.846-.53-9.79-1.575-2.858-1.712-4.025-3.853-4.025-7.372V446.8c2.47-1.257,5.266-3.7,8.821-7.606,6.178-6.795,9.311-13.7,9.311-20.536a4,4,0,0,0-6.872-2.784,11.424,11.424,0,0,1-1.545,1,21.956,21.956,0,0,1-9.054,2.683c-2.385-.307-4.854-1.89-6.972-4.48l-.08-.094c-12.171-13.97-13.985-13.97-15.74-13.97-2.9,0-5.745,1.573-8.686,4.809l-32.449,35.694c-.766-12.894-3.089-22.76-6.935-29.408-4.275-7.267-10.638-11.1-18.413-11.1a12.675,12.675,0,0,0-9.322,4.459l-28.335,31.169a81.281,81.281,0,0,0-3.733-21.04c-.017-.048-.034-.1-.053-.143-1.325-3.4-5.356-13.745-14.861-13.745-5.745,0-11.643,4.662-18.559,14.673-.041.059-.08.119-.118.18l-7.953,12.947a4,4,0,0,0-.419,3.255c.928,3.06,3.144,3.623,7.166,4.644.516.131,1.1.278,1.752.447a27.3,27.3,0,0,1,5.588,2.922,6.066,6.066,0,0,1,2.352,3.182,4.207,4.207,0,0,0,.188.5,17.363,17.363,0,0,1,1.232,7.091v76.889l-3.616,1.193a4.142,4.142,0,0,0-.5.2c-10.072,4.924-14.967,10.105-14.967,15.84a4,4,0,0,0,5.832,3.556l.256-.042c.367-.061.809-.135,1.331-.242l4.666-.321a28.38,28.38,0,0,1,10.152,1.813c.094.037.189.071.285.1a11.152,11.152,0,0,1,3.744,1.72,4.036,4.036,0,0,0,.342.254c4.308,2.842,7.268,5.848,8.8,8.935a4,4,0,0,0,3.045,2.187,4.052,4.052,0,0,0,.538.036,4,4,0,0,0,2.979-1.331L738.82,538.2a4,4,0,0,0,.326-4.922l-.954-1.4a4,4,0,0,0-5.233-1.252l-3.182,1.75c-.228.126-.49.285-.792.471-.226.14-.464.287-.727.439a21.6,21.6,0,0,1-2.6-1.891,4.024,4.024,0,0,0-.441-.316l-3.194-1.976V454.493l23.135-25.449a2.188,2.188,0,0,1,1.812-.791c3.541,0,10.314,10.571,10.314,27.143v74.1a33.134,33.134,0,0,0-6.973,5.185c-4.857,4.453-7.023,8.061-7.023,11.7a4,4,0,0,0,4,4c.132,0,.265-.007.4-.02l6.794-.68c5.258.029,9.4,1.231,13.027,3.776,3.6,2.748,6.083,5.447,7.384,8.024a4,4,0,0,0,2.823,2.126,3.939,3.939,0,0,0,.748.071,4,4,0,0,0,2.657-1.011l23.222-20.644a4,4,0,0,0,.648-5.242l-.954-1.4a4,4,0,0,0-4.768-1.471l-2.5.983-3.984-2.679-.072-.047a32.258,32.258,0,0,0-7.7-3.828v-69.29l20.727-22.8,7.989,6.8c.05.043.1.084.153.124a26.584,26.584,0,0,0,6.392,3.875V521.53c0,13.395,2.443,24.218,7.259,32.166,3.927,6.477,7.855,9.625,12.01,9.625a4,4,0,0,0,2.236-.683l9.861-6.648c.081-.055.159-.112.236-.172,16.9-13.281,18.338-15.5,18.916-16.74a4,4,0,0,0-3.569-5.8Z" fill="#fff"/><path id="a-3" data-name="a" d="M991.59,522.428a4,4,0,0,0-1.3.218l-5.09,1.75c-.087.03-.173.063-.257.1-4.169,1.763-6.667,2.483-8.621,2.483-1.658,0-5.543,0-5.543-9.647V442.053l12.964-9.3c.054-.04.108-.08.16-.122,10.361-8.252,15.187-14.917,15.187-20.974a4,4,0,0,0-.579-2.073l-.041-.1a9.658,9.658,0,0,0-2.742-4.059,3.97,3.97,0,0,0-.621-.422c-.129-.071-.275-.163-.445-.269a23.7,23.7,0,0,0-3.052-1.636,4,4,0,0,0-1.61-.338c-1.912,0-5.506.85-8.1,6.544-.035.078-.068.158-.1.238l-3.181,8.4c-.031.084-.06.17-.087.256-.8,2.648-1.5,4.086-2.314,4.807a3.9,3.9,0,0,0-.318.312,3.136,3.136,0,0,1-1.756.968,148.807,148.807,0,0,1-8.241-15.1q-.035-.071-.072-.138c-2.29-4.2-6.1-9.783-12.736-9.783a4,4,0,0,0-2.96,1.309L929.97,422.756a37.362,37.362,0,0,1-15.029,7.9,43.024,43.024,0,0,0,3.034-14.448c0-4.807-1.277-8.549-3.9-11.439-.081-.09-.167-.176-.257-.258-2.786-2.555-6.906-3.85-12.246-3.85-5.849,0-10.228,1.813-13.016,5.389-2.425,3.114-3.707,7.352-3.707,12.257A38.715,38.715,0,0,0,895.11,445.14l19.3,21.227c-7.6,1.834-15.05,6.271-22.588,13.42a54.211,54.211,0,0,0-17.153,40.344c0,9.462,2.062,17.465,6.305,24.467.025.042.051.083.077.123a23.929,23.929,0,0,0,20.84,11.252c6.6,0,14.642-4.215,24.578-12.884l.046-.04a157.08,157.08,0,0,0,17.317-18c.321,4.6.814,9.624,1.484,15.155.011.086.024.173.04.258,2.329,12.38,6.756,18.657,13.156,18.657a4.042,4.042,0,0,0,.72-.065c2.437-.446,5.666-2.516,19.369-14.187a126.352,126.352,0,0,0,12.136-11.552l3.818-4.2a4,4,0,0,0-2.961-6.691Zm-85.357-.918c-2.974-4.759-4.482-10.991-4.482-18.526a25.267,25.267,0,0,1,6.913-17.954c4.268-4.695,8.537-7.015,13.047-7.087l5.8.672.122.012,4.136.35c.113.01.226.014.338.014a4,4,0,0,0,3.42-6.074l-.637-1.05c-.021-.035-.043-.07-.066-.1l-1.591-2.45a3.9,3.9,0,0,0-.394-.511L910.76,444.514a50.654,50.654,0,0,0,12.066-3.966,77.142,77.142,0,0,0,9.617-4.741c1.72-.946,3.313-1.871,4.853-2.766.823-.477,1.617-.939,2.379-1.372a6.925,6.925,0,0,1,2.337,1.733c.378.61,1.045,2.211,1.045,5.9v66.377a85.206,85.206,0,0,1-8.475,11.382c-6.918,7.3-13.22,11.319-17.745,11.319-4.722,0-8.049-2.108-10.469-6.634Q906.305,521.624,906.233,521.51Z" fill="#fff"/></g><g id="hantasma-2" data-name="hantasma"><g id="h-2" data-name="h"><path d="M3.584,318.229a102.645,102.645,0,0,1,16.223-11.547c-7.727,0-14.239.958-19.807,2.993V321.73C1.122,320.549,2.312,319.381,3.584,318.229Z" fill="#000000"/><path d="M10.9,528.528l-5.089,3.85C3.432,534.413,1.5,535.708,0,536.094v4.963l12.491-11.129Z" fill="#000000"/><path d="M22.034,432.652c.954.349,3.181,2.8,6.362,7,3.817,4.549,6.68,6.648,8.907,6.648v88.879c0,3.149-1.273,6.3-3.818,9.8-4.771,7-7.316,11.9-7.316,15.046.318,3.5,3.181,11.9,8.271,24.843a45.825,45.825,0,0,1,3.181,16.447,40.217,40.217,0,0,1-2.863,14.7l-1.273,2.449c4.136,0,8.271-1.749,12.407-5.6,4.135-3.148,6.361-7,6.361-11.546,0-4.2-3.5-9.8-10.179-17.146-6.68-7-10.179-13.646-10.179-20.295a18.841,18.841,0,0,1,4.135-12.247,21.424,21.424,0,0,1,10.5-6.648l19.405-4.549a17.47,17.47,0,0,0,4.135-2.449l-6.68-4.549c-4.136-3.15-6.362-7-6.362-11.548V446.3c1.909-.35,4.771-2.8,8.27-7,3.5-3.849,5.09-6.648,5.09-8.048l-1.591-1.05c-7.634,0-14-2.449-18.767-7-2.227-2.1-4.135-5.6-5.726-10.148a54.2,54.2,0,0,0-3.181-7.7c-2.227.35-4.136,1.75-6.044,3.85L0,447.791v6.3L15.99,436.5C18.217,434.051,20.443,432.652,22.034,432.652Z" fill="#000000"/></g><path id="a-4" data-name="a" d="M190.626,429.5c9.225-7.348,13.679-13.3,13.679-17.845-.319-.35-.637-2.1-1.909-3.15a27.582,27.582,0,0,0-3.181-1.749c-1.59,0-3.181,1.4-4.453,4.2l-3.181,8.4c-.955,3.149-1.909,5.249-3.5,6.648a8.207,8.207,0,0,1-6.362,2.45c-.955-.35-4.454-5.949-10.179-17.5-2.864-5.249-5.727-7.7-9.226-7.7l-20.358,22.394c-7.953,6.649-16.223,9.8-24.494,9.8l1.909-3.5q3.818-9.448,3.817-15.746c0-3.85-.954-6.649-2.863-8.748-1.909-1.75-5.089-2.8-9.543-2.8-4.771,0-7.952,1.4-9.861,3.848a15.983,15.983,0,0,0-2.863,9.8,34.75,34.75,0,0,0,9.225,24.144l24.494,26.944c-9.543,0-18.768,4.548-27.993,13.3a50.365,50.365,0,0,0-15.9,37.442c0,8.747,1.909,16.1,5.726,22.394a20.006,20.006,0,0,0,17.5,9.448c5.407,0,12.723-3.849,21.948-11.9,10.5-9.447,18.45-18.545,23.54-26.943a225.428,225.428,0,0,0,1.908,26.594c1.909,10.147,5.09,15.4,9.225,15.4,1.909-.35,7.634-4.9,17.5-13.3a121.945,121.945,0,0,0,11.769-11.2l3.818-4.2-5.09,1.75c-4.135,1.749-7.317,2.8-10.179,2.8-5.408,0-9.543-3.5-9.543-13.647V440Zm-34.355,77.332a90.659,90.659,0,0,1-9.542,12.946c-7.953,8.4-14.951,12.6-20.677,12.6-6.044,0-10.815-2.8-14-8.748-3.5-5.6-5.09-12.6-5.09-20.646a29.218,29.218,0,0,1,7.952-20.645q7.635-8.4,16.224-8.4l6.044.7,4.135.35-.636-1.05-1.591-2.449L113.646,443.5l-.636-1.749,1.272-.7q7.158,0,16.223-4.2a72.475,72.475,0,0,0,9.225-4.549c3.181-1.75,6.044-3.5,8.589-4.9a9.937,9.937,0,0,1,6.044,3.5q1.908,2.625,1.908,8.4Z" fill="#000000"/><path id="n-2" data-name="n" d="M328.364,535.877c-4.135,0-7.635-1.05-10.179-3.149-2.864-1.75-4.136-5.249-4.136-10.5V441.4q4.294-.525,11.452-7.348c4.453-4.549,6.68-9.447,6.68-15.046l-1.591,1.4a19.617,19.617,0,0,1-9.543,2.1c-4.771,0-9.543-2.1-14-6.3-4.772-4.2-8.271-7.349-10.816-9.1s-4.453-2.8-5.407-2.8l-5.408,1.4a15.978,15.978,0,0,0-5.089,3.849l-33.719,37.091c0-12.247-1.273-22.4-3.817-29.743-2.863-7.348-6.362-11.2-11.134-11.2-4.135,0-9.224,4.2-15.268,12.947L208.44,431.6a4.463,4.463,0,0,0,1.272,1.05,33.126,33.126,0,0,0,5.09,1.4,31.433,31.433,0,0,1,6.68,3.5A10.012,10.012,0,0,1,225.3,442.8a20.935,20.935,0,0,1,1.591,8.748v77.331c-3.5,0-7.317,2.45-11.77,7.349s-6.68,9.1-6.68,12.947a21.8,21.8,0,0,1,6.044-1.75,65.982,65.982,0,0,1,9.861-.7,34.926,34.926,0,0,1,16.223,3.5,42.57,42.57,0,0,1,10.179,8.047l20.677-23.094-.955-1.4-3.18,1.749a27.362,27.362,0,0,1-3.182,1.75l-7.952-5.948a17.8,17.8,0,0,0-9.543-2.45V461.694q0-6.3,11.451-20.994c7.317-9.448,13.679-14.347,19.086-14.347,3.5,0,7.317,2.45,10.816,7.7l6.362,7.348v78.032c0,12.6,2.227,22.744,6.68,30.092,3.181,5.249,6.044,7.7,8.589,7.7,1.908-.351,6.68-3.85,14.633-10.148,3.5-3.149,7-5.949,9.86-8.748a24.156,24.156,0,0,0,3.182-3.149,6.341,6.341,0,0,1-3.182.7Z" fill="#000000"/><path id="t-2" data-name="t" d="M426.335,398.01l-6.68,4.9a27.8,27.8,0,0,1-11.134,2.1H393.57V319.279l-.954-3.5a20.352,20.352,0,0,0-2.545,2.8,86.11,86.11,0,0,0-5.089,7.348c-4.772,6.648-8.907,10.5-11.77,11.547-3.181,1.049-4.772,2.8-4.772,4.549l3.5,13.3a52.976,52.976,0,0,1,1.909,14v35.691c-7.316,0-13.042,1.4-16.859,4.2-6.044,4.548-9.225,12.946-9.225,25.543,1.909-3.149,3.5-4.9,5.09-5.6,2.863-1.749,6.68-2.449,11.451-2.449h9.543V529.229q-2.863,0-12.406,7.347c-6.361,4.9-9.543,9.1-9.543,12.247l4.454-1.4c.954-.35,2.227-.7,4.453-1.4h6.362a21.676,21.676,0,0,1,13.679,4.549,51.061,51.061,0,0,1,9.224,9.448l24.812-27.994a2.465,2.465,0,0,0-2.545-2.1l-2.862,2.1c-1.909,1.4-3.5,2.1-4.454,2.1l-3.5-1.749c-3.5-2.1-6.362-3.149-7.953-3.149V426.7h14c10.5,0,20.04-10.147,20.04-22.745l-.318-2.8Z" fill="#000000"/><path id="a-5" data-name="a" d="M536.711,429.5c9.226-7.348,13.679-13.3,13.679-17.845-.319-.35-.637-2.1-1.909-3.15a27.582,27.582,0,0,0-3.181-1.749c-1.59,0-3.181,1.4-4.453,4.2l-3.181,8.4c-.955,3.149-1.909,5.249-3.5,6.648a8.2,8.2,0,0,1-6.361,2.45c-.954-.35-4.454-5.949-10.18-17.5-2.862-5.249-5.726-7.7-9.225-7.7l-20.358,22.394c-7.952,6.649-16.223,9.8-24.494,9.8l1.909-3.5q3.817-9.448,3.817-15.746c0-3.85-.955-6.649-2.863-8.748-1.908-1.75-5.09-2.8-9.543-2.8-4.771,0-7.952,1.4-9.861,3.848a15.983,15.983,0,0,0-2.862,9.8,34.749,34.749,0,0,0,9.224,24.144l24.493,26.944c-9.543,0-18.767,4.548-27.992,13.3a50.365,50.365,0,0,0-15.905,37.442c0,8.747,1.909,16.1,5.725,22.394a20.009,20.009,0,0,0,17.5,9.448c5.407,0,12.723-3.849,21.948-11.9,10.5-9.447,18.45-18.545,23.54-26.943a225.428,225.428,0,0,0,1.908,26.594c1.909,10.147,5.09,15.4,9.225,15.4,1.909-.35,7.634-4.9,17.5-13.3a121.945,121.945,0,0,0,11.769-11.2l3.818-4.2-5.09,1.75c-4.135,1.749-7.317,2.8-10.179,2.8-5.408,0-9.543-3.5-9.543-13.647V440Zm-34.355,77.332a90.5,90.5,0,0,1-9.543,12.946c-7.952,8.4-14.951,12.6-20.676,12.6-6.044,0-10.816-2.8-14-8.748-3.5-5.6-5.09-12.6-5.09-20.646A29.215,29.215,0,0,1,461,482.339q7.634-8.4,16.223-8.4l6.044.7,4.135.35-.636-1.05-1.591-2.449L459.731,443.5l-.636-1.749,1.272-.7q7.158,0,16.224-4.2a72.531,72.531,0,0,0,9.224-4.549c3.181-1.75,6.044-3.5,8.589-4.9a9.937,9.937,0,0,1,6.044,3.5q1.91,2.625,1.908,8.4Z" fill="#000000"/><path id="s-2" data-name="s" d="M653.453,413.056h-9.86a36.879,36.879,0,0,1-25.448-9.447l-8.908-9.1-14.632,19.595c-6.68,5.949-14.951,8.748-24.494,8.748h-6.362l-3.5.35,5.09,7.348a10.659,10.659,0,0,1,2.545,5.948v39.541c0,1.75-1.273,3.5-3.818,4.9-2.545,2.1-3.817,3.849-3.817,4.9.318,1.75,2.227,2.45,6.044,2.45l14.951-1.4c3.5-.7,6.68-1.05,9.225-1.4a33.458,33.458,0,0,1,5.407-.35L552.3,534.827l-1.591,2.8,5.09-1.4,7-1.05c7.316,0,15.587,2.449,24.494,7.7a159.091,159.091,0,0,1,22.9,16.8l19.4-17.846c8.589-5.249,20.041-7.7,34.355-7.7l1.273-.7-7.635-8.4c-2.227-3.149-3.5-6.3-3.5-9.1V483.739q0-6.3,3.817-13.647t3.817-9.447l-3.5.35a49.971,49.971,0,0,1-21.313,5.249H618.78l47.4-50.388c1.908-2.1,2.862-3.849,2.862-4.9l-11.133,1.4A43.893,43.893,0,0,0,653.453,413.056Zm-32.128,72.083c8.589,0,13.042,3.849,13.042,11.9v33.242c0,4.549-1.59,6.649-4.771,6.649q-1.909,0-25.766-11.548c-7.316-3.5-13.36-5.248-17.5-5.248a37.948,37.948,0,0,0-14.632,3.148l-6.044,3.15,35.946-41.29Zm-8.27-18.895c-9.862,0-16.541-1.05-20.04-3.5-3.5-2.1-5.409-5.948-5.409-11.547V435.1c0-10.147,1.273-12.247,5.09-12.247l11.77,4.549c6.362,3.149,11.769,4.549,16.223,4.549a73.84,73.84,0,0,0,7.953-.35,46.051,46.051,0,0,0,11.452-1.4,45.063,45.063,0,0,0,14-7.348Z" fill="#000000"/><path id="m-2" data-name="m" d="M861.809,537.276c-5.409,0-9.226-.7-11.771-2.1-4.135-2.449-6.044-5.948-6.044-10.848v-80.48c2.228,0,5.408-2.45,9.861-7.349,5.409-5.948,8.271-11.9,8.271-17.845a11.889,11.889,0,0,1-2.545,1.75,25.451,25.451,0,0,1-11.133,3.149c-3.5-.35-7-2.45-9.861-5.949-7.316-8.4-11.77-12.6-12.724-12.6-1.591,0-3.5,1.05-5.726,3.5l-39.126,43.04c0-17.146-2.227-29.743-6.68-37.441-3.5-5.948-8.589-9.1-14.951-9.1a8.648,8.648,0,0,0-6.362,3.15l-34.991,38.49c0-12.247-1.272-22.4-3.817-29.743-2.863-7.348-6.362-11.2-11.134-11.2-4.135,0-9.224,4.2-15.268,12.947L679.854,431.6c.319,1.05.956,1.05,6.363,2.449a31.433,31.433,0,0,1,6.68,3.5,10.012,10.012,0,0,1,3.817,5.249,20.919,20.919,0,0,1,1.591,8.748v79.781l-6.363,2.1c-8.588,4.2-12.723,8.4-12.723,12.246.318-.35,1.272-.35,2.863-.7l5.089-.35a32.241,32.241,0,0,1,11.77,2.1,14.584,14.584,0,0,1,5.089,2.45c4.772,3.148,8.271,6.648,10.18,10.5l21.631-24.145-.954-1.4-3.182,1.75a27.359,27.359,0,0,1-3.181,1.749c-.954,0-2.863-1.05-5.408-3.149l-5.089-3.149V452.947L742.2,426.353a6.184,6.184,0,0,1,4.772-2.1c7.316,0,14.314,14,14.314,31.143v76.982c-1.59,0-4.453,1.749-8.27,5.248s-5.726,6.3-5.726,8.748l7-.7c6.044,0,11.134,1.4,15.587,4.55q6.2,4.722,8.589,9.447l23.221-20.645-.954-1.4-4.454,1.75-5.725-3.85c-3.818-2.449-7-3.848-9.543-3.848V457.5L803.277,433a3.9,3.9,0,0,1,3.182-1.4l9.861,8.4c3.181,2.449,5.726,3.849,7.952,3.849V521.53c0,12.6,2.227,22.744,6.68,30.093,3.182,5.248,6.044,7.7,8.589,7.7l9.861-6.648c11.134-8.748,17.178-14,17.814-15.4h-5.407Z" fill="#000000"/><path id="a-6" data-name="a" d="M981.411,429.5c9.226-7.348,13.679-13.3,13.679-17.845-.319-.35-.637-2.1-1.908-3.15A27.71,27.71,0,0,0,990,406.758c-1.591,0-3.181,1.4-4.453,4.2l-3.181,8.4c-.955,3.149-1.909,5.249-3.5,6.648a8.2,8.2,0,0,1-6.361,2.45c-.954-.35-4.453-5.949-10.18-17.5-2.862-5.249-5.725-7.7-9.224-7.7l-20.359,22.394c-7.952,6.649-16.222,9.8-24.494,9.8l1.909-3.5q3.817-9.448,3.818-15.746c0-3.85-.955-6.649-2.864-8.748-1.908-1.75-5.09-2.8-9.543-2.8-4.771,0-7.952,1.4-9.861,3.848a15.983,15.983,0,0,0-2.862,9.8,34.749,34.749,0,0,0,9.224,24.144l24.493,26.944c-9.542,0-18.767,4.548-27.992,13.3a50.365,50.365,0,0,0-15.905,37.442c0,8.747,1.909,16.1,5.726,22.394a20.006,20.006,0,0,0,17.5,9.448c5.407,0,12.723-3.849,21.948-11.9,10.5-9.447,18.45-18.545,23.54-26.943a225.428,225.428,0,0,0,1.908,26.594c1.909,10.147,5.09,15.4,9.225,15.4,1.909-.35,7.635-4.9,17.5-13.3a121.825,121.825,0,0,0,11.769-11.2l3.818-4.2-5.09,1.75c-4.135,1.749-7.316,2.8-10.179,2.8-5.408,0-9.543-3.5-9.543-13.647V440Zm-34.354,77.332a90.578,90.578,0,0,1-9.543,12.946c-7.952,8.4-14.952,12.6-20.677,12.6-6.044,0-10.816-2.8-14-8.748-3.5-5.6-5.09-12.6-5.09-20.646a29.215,29.215,0,0,1,7.953-20.645q7.634-8.4,16.223-8.4l6.044.7,4.135.35-.636-1.05-1.591-2.449L904.432,443.5l-.637-1.749,1.272-.7q7.158,0,16.224-4.2a72.54,72.54,0,0,0,9.225-4.549c3.18-1.75,6.044-3.5,8.588-4.9a9.935,9.935,0,0,1,6.044,3.5q1.91,2.625,1.909,8.4Z" fill="#000000"/></g></g></svg>
