<svg xmlns="http://www.w3.org/2000/svg" width="1000" height="988" viewBox="0 0 1000 988"><g id="Artboard"><rect id="Tint" width="1000" height="988" fill="#58595b"/></g><g id="Overlap"><g id="幺樂団の歴史"><path id="幺" d="M293.229,503.247q-1.024-1.964-1.878-1.964a2.37,2.37,0,0,0-1.879.683,2.648,2.648,0,0,0-.513,1.452,3.251,3.251,0,0,0,.6,1.708,65.886,65.886,0,0,1,4.783,8.883q-.172,1.024-1.537,1.2-6.236.427-15.2.427-11.1,0-14.007-.257c-.628-.113-.94-.227-.94-.341a3.4,3.4,0,0,1,.769-2.221q12.468-13.152,24.683-25.451a3.8,3.8,0,0,0,1.452-3.075,2.316,2.316,0,0,0-.6-1.708,1.971,1.971,0,0,0-1.366-.683,4.01,4.01,0,0,0-2.477.768q-6.15,6.492-12.812,13.323a4.393,4.393,0,0,0-1.025-1.2,34.924,34.924,0,0,0-7.259-4.185q-3.5-1.536-3.5-1.879a2.937,2.937,0,0,1,1.623-2.477A81.9,81.9,0,0,0,276.4,472.074a8.427,8.427,0,0,0,2.221-5.21q0-2.82-2.306-2.819a3.535,3.535,0,0,0-2.819,1.879,75.58,75.58,0,0,1-12.726,15.544,27.712,27.712,0,0,1-6.234,5.21,3.955,3.955,0,0,0-1.88,2.99,2.689,2.689,0,0,0,2.477,2.818q4.356,1.2,12.982,6.235a12.538,12.538,0,0,0,1.2.512q-7,7.175-14.349,14.6a7.3,7.3,0,0,0-1.622,4.27q0,2.307,3.758,2.307a49.266,49.266,0,0,1,5.551-.342q7.6.342,14.6.342,8.113,0,15.716-.342a16.606,16.606,0,0,1,3.416.342q3.5,0,3.5-2.99a9.8,9.8,0,0,0-1.367-4.441Q295.621,507.091,293.229,503.247Z" transform="translate(0 0)"/><g id="樂"><path d="M333.63,478.138a28.684,28.684,0,0,1,6.833,3.245q-3.248,3.332-6.662,6.747a3.236,3.236,0,0,0-.769,1.879q0,1.794,2.819,1.794a26.029,26.029,0,0,1,4.1-.342,15.68,15.68,0,0,0,3.245.342,43.369,43.369,0,0,0,5.552-.342,8.119,8.119,0,0,1,2.391.342,2.152,2.152,0,0,0,2.477-2.391,4.777,4.777,0,0,0-.6-2.05q-1.2-2.564-2.05-4.356c-.285-.513-.542-.769-.768-.769a2.216,2.216,0,0,0-1.623.513,1.77,1.77,0,0,0-.513,1.11,2.455,2.455,0,0,0,.086.6,20.692,20.692,0,0,1,.939,2.477q-.086.94-.6,1.024a27.492,27.492,0,0,1-5.295.428,7.1,7.1,0,0,1-2.477-.257.909.909,0,0,1-.171-.512,1.158,1.158,0,0,1,.342-.854q4.782-5.208,9.4-10.164a1.62,1.62,0,0,0,.6-1.281,1.847,1.847,0,0,0-.512-1.366,1.8,1.8,0,0,0-1.282-.6,1.968,1.968,0,0,0-1.11.342q-2.307,2.392-4.954,5.039a11.238,11.238,0,0,0-2.562-1.793c-.8-.513-1.2-.825-1.2-.94a1.238,1.238,0,0,1,.6-1.024,35.922,35.922,0,0,0,6.235-6.235,3.307,3.307,0,0,0,1.025-2.221q0-2.477-2.135-2.477a1.9,1.9,0,0,0-1.452.854,36.9,36.9,0,0,1-6.833,7.772,12.13,12.13,0,0,1-3.331,2.562,1.87,1.87,0,0,0-.939,1.453A1.353,1.353,0,0,0,333.63,478.138Z" transform="translate(0 0)"/><path d="M358.313,493.169a9.516,9.516,0,0,1,2.221-.768,29.479,29.479,0,0,1,5.039-.256,39.586,39.586,0,0,1,6.833.683q1.963,0,1.964-2.477v-7.174q0-4.014.171-7.6a14.761,14.761,0,0,1,.427-3.672l.171-.6A1.888,1.888,0,0,0,373,469.169a11.046,11.046,0,0,1-2.733.428,11.309,11.309,0,0,0-2.819-.428h-1.537q.682-1.108,1.964-3.757a3.3,3.3,0,0,0,.427-1.367q0-2.39-2.733-2.391a2.152,2.152,0,0,0-2.477,2.391,17.765,17.765,0,0,1-.768,5.124c-.683-.055-1.253-.113-1.708-.17a16.329,16.329,0,0,0-2.307-.171q-2.049,0-2.049,2.135a82.246,82.246,0,0,1,.768,10.249,74.014,74.014,0,0,1-.768,9.822Q356.264,493.17,358.313,493.169Zm2.819-19.131q0-1.452,1.281-1.452a56.551,56.551,0,0,1,7.174.342c.455,0,.684.256.684.768v5.381h-8.2a7.4,7.4,0,0,0-1.025.086Q361.132,476.687,361.132,474.038Zm-.171,8.712a1.613,1.613,0,0,0,.513.085,50.13,50.13,0,0,1,8.8-.6v6.15a.906.906,0,0,1-1.025,1.025,22.686,22.686,0,0,0-3.673-.342,12.491,12.491,0,0,0-3.16.342q-1.623,0-1.622-1.367Q360.961,485.569,360.961,482.75Z" transform="translate(0 0)"/><path d="M378.385,478.052a35.845,35.845,0,0,1,6.832,2.99l.086.085q-3.417,3.417-7.089,7a3.23,3.23,0,0,0-.769,1.879q0,1.794,2.733,1.794a27.2,27.2,0,0,1,4.1-.342,14.919,14.919,0,0,0,3.075.342,50.353,50.353,0,0,0,5.893-.342,7.831,7.831,0,0,1,2.306.342,2.152,2.152,0,0,0,2.477-2.391,4.777,4.777,0,0,0-.6-2.05q-1.367-2.564-2.391-4.356-.429-.769-.769-.769a2.406,2.406,0,0,0-1.623.513,1.77,1.77,0,0,0-.513,1.11,1.359,1.359,0,0,0,.171.6,20.206,20.206,0,0,1,1.281,2.477q-.086.94-.6,1.024a31.452,31.452,0,0,1-5.637.428,5.591,5.591,0,0,1-2.221-.257.909.909,0,0,1-.171-.512,1.158,1.158,0,0,1,.342-.854q4.952-5.208,9.651-10.164a1.62,1.62,0,0,0,.6-1.281,2.068,2.068,0,0,0-.427-1.366,1.729,1.729,0,0,0-1.2-.6,2.112,2.112,0,0,0-1.2.342q-2.305,2.392-4.868,4.868a14.427,14.427,0,0,0-2.648-1.708q-1.281-.683-1.281-.854a1.238,1.238,0,0,1,.6-1.024A39.362,39.362,0,0,0,390,468.743a3.637,3.637,0,0,0,.854-2.221q0-2.477-2.135-2.477a1.635,1.635,0,0,0-1.281.854,39.012,39.012,0,0,1-6.32,7.772,12.177,12.177,0,0,1-3.075,2.562,1.87,1.87,0,0,0-.939,1.453Q377.1,477.8,378.385,478.052Z" transform="translate(0 0)"/><path d="M365.985,524.157q2.319-.635,2.321-5.451l-.427-13.494q0-1.282.086-2.818a97.794,97.794,0,0,1,13.494,1.11,69.438,69.438,0,0,1,15.716,4.014,10.343,10.343,0,0,0,3.245.6q1.365,0,2.733-2.135a10.331,10.331,0,0,0,1.367-5.039c0-.4-.256-.6-.769-.6a49.771,49.771,0,0,1-5.125.256,126.582,126.582,0,0,1-14.177-1.025,159.123,159.123,0,0,0-16.143-1.623v-.427q0-3.415-2.733-3.416-2.818,0-2.818,3.416v.427q-9.736.256-32.114,4.014a4.1,4.1,0,0,0-2.733,1.281,3.553,3.553,0,0,0-1.367,2.478q.257,2.562,3.075,2.732a9.078,9.078,0,0,0,2.9-.853,65.97,65.97,0,0,1,13.067-3.588,92.572,92.572,0,0,1,17.424-1.622q.084,1.366.085,2.818,0,4.868-.341,13.494a10.055,10.055,0,0,0,.7,4.3,3.686,3.686,0,0,1,2.532,1.148Z" transform="translate(0 0)"/><path d="M353.958,511.532q0-.939-1.025-.939a25.74,25.74,0,0,1-9.225,2.305,22.155,22.155,0,0,1-3.16-.341q-.941,0-.939,1.452a8.1,8.1,0,0,0,1.281,4.526,3.5,3.5,0,0,0,2.818,1.538q2.733,0,6.406-3.759Q353.957,512.813,353.958,511.532Z" transform="translate(0 0)"/><path d="M385.986,513.582a46.543,46.543,0,0,1-7-3.16,1.545,1.545,0,0,0-.427-.171.994.994,0,0,0-1.11,1.024,1.659,1.659,0,0,0,.342.855,67.109,67.109,0,0,0,5.893,7.345,1.617,1.617,0,0,0,1.281.6q1.878,0,5.124-1.965a3.744,3.744,0,0,0,1.709-2.818.831.831,0,0,0-.94-.939A19.365,19.365,0,0,1,385.986,513.582Z" transform="translate(0 0)"/></g><g id="団"><path d="M423.23,522.806q5.295-.512,8.968-.683,4.44-.257,20.755-.257,12.981,0,29.38.6,2.391,0,2.392-3.075-.342-13.581-.342-21.438,0-10.162.342-19.3a70.692,70.692,0,0,1,.769-9.481q.256-1.45.256-1.622,0-3.159-2.819-3.16a11.225,11.225,0,0,1-3.416.683q-12.728-.34-22.036-.341H430.063a17.173,17.173,0,0,1-3.929-.342,10.63,10.63,0,0,0-2.562-.342,2.492,2.492,0,0,0-2.819,2.819q.683,16.485.684,28.27,0,10.677-.684,24.939Q420.753,522.807,423.23,522.806Zm3.758-51.843q0-1.793,1.623-1.794,32.711,0,49.965.428,1.281,0,1.28,1.025-.342,13.921-.341,45.692,0,1.455-1.281,1.453-13.923-.341-25.281-.342-14.092,0-24.683.342-1.966,0-1.965-2.135Q426.987,494.622,426.988,470.963Z" transform="translate(0 0)"/><path d="M447.743,492.828q-11.958,5.722-11.957,6.49-.942.685-.94,3.076,0,1.709,3.075,1.708,1.281,0,10.249-8.541a3.385,3.385,0,0,0,.683-1.793Q448.853,492.829,447.743,492.828Z" transform="translate(0 0)"/><path d="M433.479,486.593a11.094,11.094,0,0,0,3.332-.683q4.269-1.281,15.459-1.282a53.1,53.1,0,0,1,7.516.513q.339,5.04.341,10.335a36.316,36.316,0,0,1-.512,7.515,4.38,4.38,0,0,1-2.306,2.819q-1.538,1.2-6.833,1.708-1.281.255-1.281,1.281a4.29,4.29,0,0,0,1.537,3.331,4.649,4.649,0,0,0,3.16,1.2,13.624,13.624,0,0,0,5.808-1.451q4.782-2.135,4.783-10.164,0-5.637-.171-15.629a10.655,10.655,0,0,1,1.623.512,11.68,11.68,0,0,0,3.672,1.025q1.878,0,3.929-2.562a7.75,7.75,0,0,0,1.88-4.527q0-.768-.94-.769a14.771,14.771,0,0,0-2.648.6,18.862,18.862,0,0,1-3.587.513,24.438,24.438,0,0,1-2.648-.171,12.255,12.255,0,0,1-1.366-.086q.084-1.794.256-3.758a8.288,8.288,0,0,0,.342-1.878,2.417,2.417,0,0,0-2.734-2.734q-2.647,0-2.647,3.417,0,1.281.085,4.612-4.611-.171-7.259-.171a134.36,134.36,0,0,0-16.143,1.11,3.964,3.964,0,0,0-1.623-.341,2.937,2.937,0,0,0-2.135,1.11,4.42,4.42,0,0,0-.939,2.647Q431.43,486.595,433.479,486.593Z" transform="translate(0 0)"/></g><path id="の" d="M521.108,513.411q3.077,0,7.944-5.978,8.115-10.249,12.982-32.883c.172,0,.6-.028,1.281-.085h1.368q12.637,0,17.679,8.541a15.489,15.489,0,0,1,2.477,8.028,16.493,16.493,0,0,1-3.074,9.566,23.044,23.044,0,0,1-7.26,6.747,35.945,35.945,0,0,1-12.641,3.928q-2.648.431-4.185.6-1.966.428-1.965,1.195,0,2.051,2.392,3.929a7.408,7.408,0,0,0,4.526,1.794q3.671,0,10.336-3.16,16.737-7.857,16.74-22.975a20.055,20.055,0,0,0-8.285-16.911q-7.6-5.637-18.449-5.637-17.6,0-26.221,10.164A23.414,23.414,0,0,0,511.2,495.39a28.1,28.1,0,0,0,2.391,11.017Q516.411,513.412,521.108,513.411Zm-.767-30.4q5.208-5.977,16.484-8.028-3.932,18.96-10.592,28.013-2.9,3.673-5.125,3.673-2.475,0-4.355-4.869a22.583,22.583,0,0,1-1.365-7.173Q515.388,489.071,520.341,483.006Z" transform="translate(0 0)"/><g id="歴"><path d="M589.1,510.251q2.732,2.306,4.953,2.306,1.452,0,4.014-2.819a34.35,34.35,0,0,0,5.979-11.444,43.368,43.368,0,0,0,1.452-9.139,5.622,5.622,0,0,0,.854,1.025,4.7,4.7,0,0,0,3.417,1.965,3.686,3.686,0,0,0,.853-.257,23.285,23.285,0,0,0,5.467-3.16,35.812,35.812,0,0,0,3.074-2.9q-.171,2.479-.256,5.637,0,4.785,2.05,4.783,2.819,0,2.818-4.783l-.255-6.32a29.467,29.467,0,0,1,3.757,2.135,2.1,2.1,0,0,0,.94.342q2.049,0,2.05-1.708,0-.77-3.076-2.819a24.836,24.836,0,0,0-3.416-1.879,1.433,1.433,0,0,0-.426.086v-1.88q1.108.087,2.05.086,2.475.256,3.074.256a3.586,3.586,0,0,0,2.648-1.025,3.652,3.652,0,0,0,.769-2.391q-.087-.682-.94-.683H623.6q.084-.6.17-1.282,0-3.074-2.476-3.074-2.392,0-2.392,3.074a10.544,10.544,0,0,0,.085,1.282h-6.832a4.943,4.943,0,0,0-2.648.6,2.763,2.763,0,0,0-1.111,1.88,2.3,2.3,0,0,0,2.307,2.391,6.906,6.906,0,0,0,1.794-.512,33.637,33.637,0,0,1,6.747-.6v1.538a2.537,2.537,0,0,1-.342.256,19.33,19.33,0,0,1-4.014,3.161,14.842,14.842,0,0,1-4.953,1.793,24.394,24.394,0,0,1-3.332.427,1.788,1.788,0,0,0-.939.256q.084-1.876.085-4.014l-.085-11.445v-1.452q1.109-.084,4.271-.512,6.148-.6,19.985-.6,9.138,0,16.826.256,7.43.855,9.481.854a4.068,4.068,0,0,0,3.074-1.366,5.125,5.125,0,0,0,1.025-3.16q-.086-.682-1.452-.683H606.946a7.521,7.521,0,0,0-1.623.17,3.751,3.751,0,0,0-2.733-.854q-2.478,0-2.477,2.819.682,8.8.684,13.921a48.44,48.44,0,0,1-1.709,14.007q-1.965,6.321-5.551,8.712a10.474,10.474,0,0,1-4.7,1.879,1.674,1.674,0,0,0-1.622,1.793Q587.217,508.63,589.1,510.251Z" transform="translate(0 0)"/><path d="M647.174,481.639v-1.11a11.733,11.733,0,0,1,.085-1.452q2.562,0,4.868.171a20.722,20.722,0,0,0,2.99.512,3.646,3.646,0,0,0,2.819-1.11,3.965,3.965,0,0,0,.939-2.648q-.087-.682-1.025-.683H647.516a5.647,5.647,0,0,1,.085-.94q0-3.074-2.306-3.074-2.478,0-2.478,3.074a5.736,5.736,0,0,0,.086.94h-4.441a4.931,4.931,0,0,0-2.648.6,2.542,2.542,0,0,0-1.11,1.879,2.195,2.195,0,0,0,2.306,2.306,9.046,9.046,0,0,0,1.879-.427,26.854,26.854,0,0,1,4.185-.512v2.476c-.057.058-.142.143-.257.257a14.579,14.579,0,0,1-3.587,3.928,14.017,14.017,0,0,1-4.355,2.306,14.928,14.928,0,0,1-2.989.6q-1.453.087-1.623.94a3.982,3.982,0,0,0,1.452,2.562,4.709,4.709,0,0,0,3.331,1.879,1.973,1.973,0,0,0,.768-.256,15.089,15.089,0,0,0,4.784-3.587,18.721,18.721,0,0,0,2.39-2.733q-.084,1.623-.171,3.5,0,4.869,2.136,4.868,2.646,0,2.648-4.868l-.256-5.722,1.793,1.2a106.786,106.786,0,0,1,8.114,7.6,4.741,4.741,0,0,0,3.075,1.11,8.384,8.384,0,0,0,4.7-1.537q2.476-1.452,2.477-2.989,0-1.026-1.452-1.025a30.041,30.041,0,0,1-3.843-.513q-2.564-.683-12.811-6.491A6.291,6.291,0,0,0,647.174,481.639Z" transform="translate(0 0)"/><path d="M606.2,521.7c.035.07.068.142.1.214a5.318,5.318,0,0,1,.323,1.086,102.761,102.761,0,0,1,10.918-3.012,92.059,92.059,0,0,1,14.092-.939,97.516,97.516,0,0,1,11.787.6A64.443,64.443,0,0,1,657,522.977a8.441,8.441,0,0,0,3.672.854q1.2,0,2.562-2.307a9.638,9.638,0,0,0,1.2-4.44c0-.739-.115-1.11-.342-1.11a22.035,22.035,0,0,1-3.758.34q-6.149,0-12.9-.511-6.663-.6-12.3-.684l.171-7.345h.086a6.977,6.977,0,0,0,1.451-.427,30.521,30.521,0,0,1,6.662-.512q2.477,0,4.612.085,2.049.257,2.563.256a3.58,3.58,0,0,0,2.647-1.025,4.114,4.114,0,0,0,.769-2.391c-.058-.455-.371-.684-.94-.684H636.668a8.416,8.416,0,0,0-1.2.086l.171-4.185a2.416,2.416,0,0,0-2.734-2.733,2.039,2.039,0,0,0-2.306,2.306l.342,16.484q-4.1.086-10.932.683a14.9,14.9,0,0,0,.341-3.5,86.824,86.824,0,0,0-.341-10.249q-.174-2.306-2.734-2.306-2.819,0-2.818,2.306a39.971,39.971,0,0,1,1.11,8.2,31.192,31.192,0,0,1-.426,5.125,4.786,4.786,0,0,0,.084.939q-4.953.686-11.359,1.538a4.627,4.627,0,0,0-2.733,1.2c-.135.118-.24.24-.355.361a6.475,6.475,0,0,1,1.379-.157A4.5,4.5,0,0,1,606.2,521.7Z" transform="translate(0 0)"/></g><path id="史" d="M737.7,519.167a4.459,4.459,0,0,1,3.845,2.178,3.915,3.915,0,0,1,.293.591,5.049,5.049,0,0,1,.248.881c.3.1.578.181.818.245a18.993,18.993,0,0,0,5.124.769,5.781,5.781,0,0,0,3.587-1.537q2.9-2.818,2.9-5.21a.982.982,0,0,0-1.11-1.11,72.388,72.388,0,0,1-13.665-2.05,218.893,218.893,0,0,1-24.684-7.859,37.172,37.172,0,0,0,2.392-12.212q8.114.086,17.936.939,2.307,0,2.306-2.989-.342-3.5-.342-5.552a60.461,60.461,0,0,1,.342-6.662,9.833,9.833,0,0,1,.769-3.331,2.674,2.674,0,0,0,.256-.6q0-2.733-2.648-2.733a10.761,10.761,0,0,1-3.416.768q-8.115-.341-14.008-.342h-.768q.084-4.012.086-7.942,0-2.307-2.734-2.307a2.163,2.163,0,0,0-2.476,2.307v7.942H701.142a12.944,12.944,0,0,1-3.843-.426,10.28,10.28,0,0,0-2.649-.342q-2.647,0-2.647,2.733a61.193,61.193,0,0,1,.684,8.285,68.565,68.565,0,0,1-.684,8.882,2.038,2.038,0,0,0,2.307,2.306,46.2,46.2,0,0,1,5.978-.683q2.732-.34,12.384-.341-.087,2.817-.256,4.7a25.481,25.481,0,0,1-1.794,5.892q-7.858-2.988-18.021-6.234a16.833,16.833,0,0,0-4.014-.939q-2.05.171-2.136,2.476,0,1.879,2.136,2.306a66.474,66.474,0,0,1,10.42,2.562q3.671,1.282,9.139,3.673a16.337,16.337,0,0,1-7.944,6.32q-4.784,2.136-17.765,2.135-1.709.257-1.708,1.452,0,2.906,1.2,4.015a6.016,6.016,0,0,0,3.929,1.024,38.859,38.859,0,0,0,11.957-2.22,26.18,26.18,0,0,0,13.836-8.8q.6-.769,1.282-1.794,4.611,1.965,10.42,4.612,6.711,3.042,11.279,4.97l.052-.025A7.146,7.146,0,0,1,737.7,519.167ZM717.882,477.54q8.114.085,13.666.256,1.45,0,1.451.939-.342,3.075-.341,9.993,0,1.283-1.452,1.281-7.261-.256-13.58-.341Q717.8,483.6,717.882,477.54Zm-5.124,12.128q-7.518,0-13.238.341-2.137,0-2.136-1.622a61.255,61.255,0,0,0,.683-9.31q0-1.622,1.793-1.623h12.9Z" transform="translate(0 0)"/></g><g id="_5" data-name="5"><path d="M806.374,417.55l-1.36-.63c-.84,0-1.828.84-3.21,2.73a8.5,8.5,0,0,1-3.185,3.781,34.807,34.807,0,0,1-3.519,2.1,6.536,6.536,0,0,1-3.089.841,28.237,28.237,0,0,1-8.622,1.259H739.07l-17.479,35.538a6.793,6.793,0,0,1,.377,2.243c0,1.3-.007,2.627-.022,3.967.514.007,1.057.018,1.594.029l12.8-26.233h41.588c5.672,0,9.562-.631,11.637-1.681a25.149,25.149,0,0,0,7.2-6.3c5.024-5.881,9.972-14.913,10.267-16.593Z" transform="translate(0 0)"/><path d="M708.174,499.182q.15-.618.275-1.264l.011-.131c-1.523.016-2.759.041-3.779.07l-.026.073C705.857,498.35,707.034,498.768,708.174,499.182Z" transform="translate(0 0)"/><path d="M728.781,481.721c-2.094-.051-4.421-.1-6.965-.132q-.039,2.077-.088,4.15c2.241.046,4.561.108,6.946.183C728.692,484.336,728.728,482.939,728.781,481.721Z" transform="translate(0 0)"/><path d="M742.042,478.049l-.03.06a9.253,9.253,0,0,0-.339,1.924,56.46,56.46,0,0,0-.318,6.218c0,1.213.106,2.911.312,5.038.307,0,.617-.016.922-.016,12.182,0,21.5,3.151,27.707,9.663s8.264,15.123,6.419,25.624a39.6,39.6,0,0,1-5.607,14.633,11.2,11.2,0,0,1,.355,2.783,12.167,12.167,0,0,1-.542,3.6A10.467,10.467,0,0,1,769.8,550.2a82.384,82.384,0,0,0,5.737-6.207,48.07,48.07,0,0,0,8.628-13.232,55.563,55.563,0,0,0,4.931-14.913c2.177-12.392-.5-22.264-8.164-30.036-7.7-7.561-18.8-11.342-32.873-11.342-1.867,0-3.655.063-5.41.154a8.5,8.5,0,0,1,.07,1.037A5.127,5.127,0,0,1,742.042,478.049Z" transform="translate(0 0)"/><path d="M754.238,556.449a40.432,40.432,0,0,1-19.321,4.768q-12.836,0-21.248-6.842l-.061.121a4.5,4.5,0,0,1-4.126,2.853c-1.295,0-3.091-.541-4.29-3.117-.016-.034-.031-.068-.046-.1l-4.058-9.4a3.835,3.835,0,0,1-.373-.145,4.622,4.622,0,0,1-2.736-3.1,4.009,4.009,0,0,1,0-1.947,4.473,4.473,0,0,1,1.192-2.1,4,4,0,0,1,2.167-1.117l.42-.07a4.076,4.076,0,0,1,.661-.055c.032,0,.065,0,.1,0a29.757,29.757,0,0,1,.13-10.062l.184-1.05.5-1.681-.014-.193a36.046,36.046,0,0,1-4.341,1.537c-1.053.345-2.082.647-3.094.918a42.676,42.676,0,0,0-4,11.544,8.606,8.606,0,0,1,1.625,1.221c.036.035.072.071.107.107a9.334,9.334,0,0,1,2.482,6.727v.455a4,4,0,0,0-.175,3.112,5.386,5.386,0,0,1-.706,2.564,9.888,9.888,0,0,1-1.009,1.568c-.021.027-.042.054-.064.08a11.285,11.285,0,0,1-.979,1.04,23.844,23.844,0,0,0,4.78,7.128c5.86,6.091,13.918,9.241,24.21,9.241a63.851,63.851,0,0,0,28.7-6.721,78.322,78.322,0,0,0,12.025-7.571,13.715,13.715,0,0,1-4.966.9A10.941,10.941,0,0,1,754.238,556.449Z" transform="translate(0 0)"/></g></g><g id="Outline"><path id="上海_アリス幻樂団" data-name="上海■アリス幻樂団" d="M552.512,623.364c.032-.042.063-.086.093-.13a5.2,5.2,0,0,0,.885-2.5,6.758,6.758,0,0,0,.869-3.069,3.986,3.986,0,0,0-.785-2.557,7.022,7.022,0,0,0,.492-2.394,3.994,3.994,0,0,0-2.657-3.918,5.042,5.042,0,0,0,1.845-1.87,7.474,7.474,0,0,0,.99-3.258,4,4,0,0,0-2.012-3.768,5.466,5.466,0,0,0,.217-1.53,4.48,4.48,0,0,0-2.389-4.077,4.065,4.065,0,0,0-.564-.24,5.931,5.931,0,0,0-1.7-.282,4.722,4.722,0,0,0-1.8-2.328,5.332,5.332,0,0,0-3.088-.96,4.963,4.963,0,0,0-5,4.968l.031,3.561a18.214,18.214,0,0,0-2.618.62,5.308,5.308,0,0,0-.611.231,4.838,4.838,0,0,0,1.229-3.207,4.672,4.672,0,0,0-2.922-4.3,9.626,9.626,0,0,0-2.9-.633c-1.665-.159-3.688-.24-6.019-.24a22.791,22.791,0,0,0-3.5.269,5.27,5.27,0,0,0-1.949.719,4.645,4.645,0,0,0-2.415-1.306c-.1-.022-.2-.04-.307-.054a30.6,30.6,0,0,0-3.817-.137,28.881,28.881,0,0,0-3.376.106,4.933,4.933,0,0,0-2.612-.717,6,6,0,0,0-4.363,2.362l-.052.06-2.564,3.038a5.464,5.464,0,0,0-1.6,3.633,4.365,4.365,0,0,0,.558,2.113,5.3,5.3,0,0,0-.5,2.233,4.657,4.657,0,0,0,4.265,4.614,6.765,6.765,0,0,0-1.207,1.077l-1.566,1.738a4.8,4.8,0,0,0-1.431,3.274,4.179,4.179,0,0,1,.123,2.241,4.529,4.529,0,0,0,.1.949,5.266,5.266,0,0,0-.161,1.308,4.589,4.589,0,0,0,1.291,3.17l.046.048a4.606,4.606,0,0,0,2.049,3.4,4.522,4.522,0,0,0-2.939,4.238c0,.09,0,.18.009.269l.618,9.167c0,.062.01.124.017.185a4.359,4.359,0,0,0,4.329,4.073,5.583,5.583,0,0,0,1.29-.17c1.045-.1,2.53-.154,4.42-.154,2.366,0,3.62.073,4.268.138a7.6,7.6,0,0,0,1.2.117,4.338,4.338,0,0,0,3.435-1.7,4.884,4.884,0,0,0,2.755.85,8.767,8.767,0,0,0,5.086-1.793l.105.1.038.036q.4.381.612.572a4.927,4.927,0,0,0,6.923.389,3.987,3.987,0,0,0,3.78,2.747h11.867a4,4,0,0,0,4-4V627.574a3.978,3.978,0,0,0-1.533-3.127A4.781,4.781,0,0,0,552.512,623.364Zm-19.467,4.21v2.221a4.67,4.67,0,0,0-2.572-3.1,9.3,9.3,0,0,0-4.247-.69l-.324,0a8.918,8.918,0,0,0,4.769-2.258,9.372,9.372,0,0,0,2.26-3.451h0a4.419,4.419,0,0,0-.2,1.294,5.024,5.024,0,0,0,1.3,3.373A3.966,3.966,0,0,0,533.045,627.574Zm-15.968-20.137a5.124,5.124,0,0,0,3.081,1.6,4.635,4.635,0,0,0-1.665,1.624,4.971,4.971,0,0,0-.68-1.328c-.025-.034-.05-.068-.076-.1a4.51,4.51,0,0,0-1.355-1.167c.207-.168.415-.348.621-.55Zm-.933,18a5.231,5.231,0,0,0,.427-.321,3.953,3.953,0,0,0,.475-.51,6.83,6.83,0,0,0,.961-1.777,4.972,4.972,0,0,0,3.432,3.065,6.541,6.541,0,0,0,1.093.205l-.324.007c-.1,0-.2.006-.294.011l-.133,0a5.116,5.116,0,0,0-3.181,1.063A4.422,4.422,0,0,0,516.144,625.442Zm16.913-17.579a5.08,5.08,0,0,0,1.239.976c-.093.08-.2.146-.283.234-.073.072-.142.146-.209.223a5.189,5.189,0,0,0-.7,1.07,5,5,0,0,0-1.395-1.269c-.034-.021-.069-.041-.1-.061a5.77,5.77,0,0,0-5.76.077,5.025,5.025,0,0,0-1.6-.627,9.4,9.4,0,0,0,3.884-2.6,7.823,7.823,0,0,0,1.182-1.652,6.511,6.511,0,0,0,2.891-1.907,5.411,5.411,0,0,0-.473,2.223A4.839,4.839,0,0,0,533.057,607.863Zm-.044,24.941c-.076-.023-.147-.042-.212-.06a4.534,4.534,0,0,0,.244-.756v.827C533.034,632.812,533.024,632.806,533.013,632.8Z" transform="translate(0 0)" fill="#fff"/></g><g id="Text"><path d="M269.361,446.818v-.011c-.008-.092-.016-.165-.023-.219a.848.848,0,0,0-.046-.208,3.7,3.7,0,0,0-.185-.391.764.764,0,0,1-.1-.15.466.466,0,0,1-.045-.069,1.905,1.905,0,0,1-.127-.242.209.209,0,0,1-.012-.15.134.134,0,0,1,.069-.115.383.383,0,0,1,.185-.07.479.479,0,0,1,.173.024,6.574,6.574,0,0,1,.691.253c.23.138.438.265.622.381a.574.574,0,0,1,.115.161.625.625,0,0,1,.035.207c.016.184.027.373.035.565v.277q-.012.195-.012.288l.761-.3a.287.287,0,0,1,.127-.035.663.663,0,0,1,.138.023q.31.128.645.288a4.658,4.658,0,0,1,.553.415c.016.016.023.027.023.035v.058a.062.062,0,0,1-.023.045l-.011.012a.087.087,0,0,1-.035.011l-2.155.473c-.007.115-.011.25-.011.4v.634c0,.054,0,.138.011.254,0,.176,0,.311.012.4a2.781,2.781,0,0,0,.023.38,2.975,2.975,0,0,1,.311.127l.3.115.277.127c.1.046.2.092.311.138a1.1,1.1,0,0,0,.381.173,1.423,1.423,0,0,0,.391.115.35.35,0,0,1,.138.047.443.443,0,0,1,.058.034.276.276,0,0,0,.069.034,2.262,2.262,0,0,1,.818,1.2.317.317,0,0,1,0,.173.507.507,0,0,1-.1.115l-.231.173a.273.273,0,0,1-.173.035.178.178,0,0,1-.161-.1,6.253,6.253,0,0,0-1.071-.9,5.782,5.782,0,0,0-1.268-.634,1.412,1.412,0,0,1-.081.691,1.6,1.6,0,0,1-.369.611,3.392,3.392,0,0,1-1.048.508,3.792,3.792,0,0,1-1.152.161.523.523,0,0,1-.185-.035.293.293,0,0,1-.161-.126,3.916,3.916,0,0,0-.311-.381c-.1-.076-.223-.177-.369-.3a2.134,2.134,0,0,1-.484-.345,1.571,1.571,0,0,1-.323-.484,2.323,2.323,0,0,1,.461-.7,2.36,2.36,0,0,1,.68-.438,4.127,4.127,0,0,1,1.037-.3,6.2,6.2,0,0,1,1.083-.023Zm-1.5,5.117a1.867,1.867,0,0,1,.345.184.231.231,0,0,0,.185.081.288.288,0,0,0,.2-.023,2.55,2.55,0,0,0,.4-.185,2.517,2.517,0,0,0,.357-.242.47.47,0,0,0,.185-.242.589.589,0,0,0,.092-.265,4.125,4.125,0,0,0-1.106.081,3.47,3.47,0,0,0-1.015.426C267.659,451.827,267.778,451.889,267.863,451.935Z" transform="translate(0 0)" fill="#000000"/><path d="M279.812,448.916a.461.461,0,0,0,.195-.058,3.18,3.18,0,0,0,.554-.254,5.17,5.17,0,0,0,.518-.333,3.783,3.783,0,0,1,.519-.3,3.16,3.16,0,0,1,.564-.185,2.324,2.324,0,0,1,.4-.034,3,3,0,0,1,.4.092,1.733,1.733,0,0,1,.449.277,2.157,2.157,0,0,1,.38.38,4.356,4.356,0,0,1,.231.449,2.6,2.6,0,0,1,.138.5,4.214,4.214,0,0,1-.023,1.163,4.891,4.891,0,0,1-.346,1.119,4.368,4.368,0,0,1-.38.622,2.392,2.392,0,0,1-.507.53,2.322,2.322,0,0,1-.576.369,3.045,3.045,0,0,1-.645.218,2.5,2.5,0,0,1-.277.07c-.1.023-.188.042-.265.057-.207.038-.4.069-.565.093-.092.015-.2.03-.322.045l-.323.035c-.1.007-.173.015-.219.023-.092.007-.173.015-.242.023a12.5,12.5,0,0,0,1.429-.887,12.123,12.123,0,0,0,1.325-1.06,3.05,3.05,0,0,0,.4-.484,2.066,2.066,0,0,0,.276-.565q.024-.081.069-.276v-.277l-.046-1.464a.048.048,0,0,1-.011-.034.179.179,0,0,1-.047-.035h-.045a.162.162,0,0,0-.035.023c-.092.062-.223.146-.392.254l-.265.2q-.323.207-.68.426a.518.518,0,0,1-.161.046.342.342,0,0,1-.2.012,4.1,4.1,0,0,1-.5-.1,4.288,4.288,0,0,1-.5-.161.584.584,0,0,1-.311-.2.757.757,0,0,1-.208-.334A.85.85,0,0,0,279.812,448.916Zm1.739-2.616a1.448,1.448,0,0,1,.116-.127c.038-.061.069-.108.092-.138a.065.065,0,0,0,.012-.046.192.192,0,0,0-.012-.047l-.011-.011a4.213,4.213,0,0,1-.565-.541l-.012-.012c-.215-.231-.4-.434-.542-.611.108.008.227.016.358.023l.357.035c.1.008.215.023.346.046l.334.069a1.068,1.068,0,0,1,.3.1c.03.015.072.039.126.069a1.421,1.421,0,0,0,.115.092c.131.108.223.189.277.242a3.083,3.083,0,0,1,.231.3.451.451,0,0,1,.057.161.331.331,0,0,1-.057.173.39.39,0,0,1-.07.115l-.057.058a.111.111,0,0,0-.035.023.248.248,0,0,1-.161.069.259.259,0,0,1-.173-.012.387.387,0,0,1-.173-.034.691.691,0,0,1-.161-.023,2.95,2.95,0,0,0-.3.011.94.94,0,0,0-.265.1,1.508,1.508,0,0,1-.15.092l-.069.035c-.038.023-.065.038-.081.046C281.417,446.5,281.475,446.408,281.551,446.3Z" transform="translate(0 0)" fill="#000000"/><path d="M358.545,446.15a.715.715,0,0,0,.093-.276.7.7,0,0,0-.057-.266.3.3,0,0,1-.036-.138.16.16,0,0,1,.07-.115.128.128,0,0,1,.069-.046.173.173,0,0,1,.069.011,2.258,2.258,0,0,1,.507.507,2.9,2.9,0,0,1,.334.634.4.4,0,0,1,.012.219.41.41,0,0,1-.092.184l-.565.8a3.207,3.207,0,0,1,.565.357,2.973,2.973,0,0,1,.414.53,3.464,3.464,0,0,1,.22.714,2.3,2.3,0,0,1,.022.726,7.447,7.447,0,0,1-.5,1.694,6.939,6.939,0,0,1-.933,1.475.72.72,0,0,1-.369.138.55.55,0,0,1-.38-.092,2.134,2.134,0,0,1-.749-.945,2.275,2.275,0,0,1-.219-1.175l-.818,1.291a.31.31,0,0,1-.265.161.273.273,0,0,1-.277-.127,1.282,1.282,0,0,1-.207-.426,1.742,1.742,0,0,1-.092-.473.706.706,0,0,1,.046-.253.528.528,0,0,1,.115-.208l1.371-1.924a.568.568,0,0,1-.392.069.576.576,0,0,1-.381-.172l-.886-.922a.1.1,0,0,1-.012-.047.035.035,0,0,1,.012-.023.037.037,0,0,1,.011-.023.049.049,0,0,1,.035-.011l.357-.035h.185c.091-.007.161-.011.207-.011.276-.07.568-.127.876-.173.284-.046.58-.092.886-.138Zm-1.013,5.036a2.289,2.289,0,0,0,.391.633.124.124,0,0,0,.093.035.2.2,0,0,0,.1-.035,3.588,3.588,0,0,0,.783-1.486,3.481,3.481,0,0,0,.069-1.683.086.086,0,0,0-.012-.034l-.011-.012-.011-.011a.123.123,0,0,0-.047-.023,1.085,1.085,0,0,1-.115-.011h-.195a.781.781,0,0,1-.1.011l-1.084,1.878A2.031,2.031,0,0,0,357.532,451.186Zm3.26-3.607c.093.039.163.069.208.092a6.164,6.164,0,0,1,1.1.807,6.1,6.1,0,0,1,.853,1.025,1.934,1.934,0,0,1,.23.715,2.087,2.087,0,0,1-.057.726.317.317,0,0,1-.116.161.213.213,0,0,1-.161.058.775.775,0,0,1-.323-.058.644.644,0,0,1-.265-.2,1.14,1.14,0,0,1-.276-.334,1.528,1.528,0,0,1-.2-.392,5.417,5.417,0,0,0-.4-1.175,4.913,4.913,0,0,0-.668-1.037.506.506,0,0,1-.092-.116.227.227,0,0,1-.069-.126.2.2,0,0,1-.011-.081.117.117,0,0,1,.022-.081A1.515,1.515,0,0,1,360.792,447.579Zm.922-1.2c.131.047.27.1.415.173a.121.121,0,0,0,.046.023l.047.047a.5.5,0,0,1,.058.068c.068.078.141.158.219.243a1.818,1.818,0,0,1,.161.288.52.52,0,0,1,.011.115.119.119,0,0,1-.046.1.4.4,0,0,1-.253.093.255.255,0,0,1-.219-.093c-.1-.1-.246-.257-.439-.472a.231.231,0,0,0-.046-.034l-.011-.012c-.2-.223-.346-.4-.438-.519-.008,0-.011-.007-.011-.023v-.046a.087.087,0,0,0,.035-.011h.022A1.958,1.958,0,0,1,361.714,446.38Zm1.073-.484a1.755,1.755,0,0,1,.588.438.177.177,0,0,1,.034.1.146.146,0,0,1-.046.1.435.435,0,0,1-.277.115.428.428,0,0,1-.311-.092q-.278-.231-.4-.357a3.439,3.439,0,0,1-.37-.415v-.058l.012-.011.012-.012h.046A1.9,1.9,0,0,1,362.787,445.9Z" transform="translate(0 0)" fill="#000000"/><path d="M370.437,447.083a16.34,16.34,0,0,1,2.039-1.429l-.092-.173a.148.148,0,0,1-.011-.126c.007-.039.038-.065.092-.081a.741.741,0,0,1,.15-.011l.138.069a3.278,3.278,0,0,1,.472.507,2.3,2.3,0,0,1,.346.588.318.318,0,0,1,0,.207.266.266,0,0,1-.115.15,16.377,16.377,0,0,0-2.155,1.233,16.126,16.126,0,0,0-1.889,1.567c.145.092.3.188.461.288l.518.334.519.335c.3.207.541.38.725.518q.4.276.726.53a2.213,2.213,0,0,1,.565.645,2.684,2.684,0,0,1,.288.819v.092a.209.209,0,0,1-.081.081.483.483,0,0,1-.2.091.522.522,0,0,1-.253-.011c-.077-.023-.146-.046-.208-.069a1.4,1.4,0,0,1-.219-.069.634.634,0,0,1-.218-.127,1.1,1.1,0,0,1-.162-.173,14.384,14.384,0,0,0-1.463-1.625,14.621,14.621,0,0,0-1.717-1.359.444.444,0,0,1-.081-.081.142.142,0,0,1-.046-.1,1.276,1.276,0,0,1-.034-.288,1.587,1.587,0,0,1,0-.276.361.361,0,0,1,.034-.162.917.917,0,0,1,.081-.138A16.832,16.832,0,0,1,370.437,447.083Z" transform="translate(0 0)" fill="#000000"/><path d="M443.5,446.334a1.834,1.834,0,0,0,.058-.426,1.859,1.859,0,0,0-.035-.4l-.092-.4a.046.046,0,0,1-.012-.035.125.125,0,0,1,.035-.023.031.031,0,0,1,.023-.012h.034l.4.334a3.577,3.577,0,0,1,.335.415.946.946,0,0,1,.161.381,1.506,1.506,0,0,1,.011.4.866.866,0,0,0-.023.115l-.034.115c-.024.069-.051.139-.081.208a3.15,3.15,0,0,1,.691.058,2.169,2.169,0,0,1,.634.253.949.949,0,0,1,.219.184,1.385,1.385,0,0,1,.1.265.337.337,0,0,1-.046.15.272.272,0,0,1-.137.092l-1.891.392-2.063,4.886a.272.272,0,0,1-.172.173.288.288,0,0,1-.253,0,.467.467,0,0,1-.243-.2.5.5,0,0,1-.092-.3c0-.038,0-.1-.011-.172s-.016-.123-.023-.162-.016-.1-.024-.173-.026-.126-.034-.173a.211.211,0,0,1,.023-.2.286.286,0,0,1,.173-.138l1.487-3.342a1.807,1.807,0,0,1-1.464-.967.355.355,0,0,0,.2.08.319.319,0,0,0,.207,0l1.6-.438Zm.887,5.682a.836.836,0,0,0,.6.218h.749a4.363,4.363,0,0,0,.761-.1h.149c.023,0,.065,0,.127.011a.081.081,0,0,0,.034.012,2.582,2.582,0,0,0,.266.08c.084.016.173.035.264.058s.181.069.312.115a.892.892,0,0,0,.219.081,2.137,2.137,0,0,1,.173.173.612.612,0,0,1,.08.219v.242a1.958,1.958,0,0,1-.08.207.25.25,0,0,1-.139.138.37.37,0,0,1-.15.081.2.2,0,0,1-.045.012q-.381.035-.8.034a3.775,3.775,0,0,1-.4-.023c-.091-.008-.234-.023-.425-.046a4.7,4.7,0,0,1-.785-.219,2.623,2.623,0,0,1-.737-.392,1.237,1.237,0,0,1-.461-.622,1.35,1.35,0,0,1-.08-.749A.843.843,0,0,0,444.387,452.016Zm-.161-2.812a.755.755,0,0,1,.2-.116,4.991,4.991,0,0,1,.714-.253c.169-.039.3-.065.381-.081.13-.03.257-.057.38-.08a1.57,1.57,0,0,0,.185-.047,1.158,1.158,0,0,0,.23-.068.372.372,0,0,1,.161-.047.435.435,0,0,1,.173.035l.7.323a.629.629,0,0,1,.219.172.5.5,0,0,1,.034.277.452.452,0,0,1-.022.127.065.065,0,0,0-.012.046c-.016.03-.031.057-.046.08a3.967,3.967,0,0,0-1.694.265,4.483,4.483,0,0,0-1.453.934q.151-.277.3-.507c.046-.077.127-.192.242-.346a1.385,1.385,0,0,0,.1-.138,4.111,4.111,0,0,1-.461-.184.466.466,0,0,1-.1-.058,2.255,2.255,0,0,1-.358-.162A.608.608,0,0,1,444.226,449.2Zm2.074-3.411q.209.091.3.126c.062.031.15.074.265.127a1.264,1.264,0,0,1,.138.069l.1.081c.046.039.077.065.092.081a.516.516,0,0,1,.173.346.033.033,0,0,1,.011.023c.024.076.038.13.046.161a.143.143,0,0,1-.034.081l-.023.034a.3.3,0,0,1-.035.046.139.139,0,0,1-.1.035.109.109,0,0,1-.081-.024.476.476,0,0,1-.195-.149.331.331,0,0,1-.151-.2c-.03-.053-.08-.134-.149-.242-.016-.023-.043-.058-.081-.1a1.076,1.076,0,0,0-.1-.092,1.436,1.436,0,0,1-.149-.219.9.9,0,0,1-.127-.219A.39.39,0,0,0,446.3,445.793Zm.9-.323a1.983,1.983,0,0,0,.219.081c.061.023.162.065.3.127a1.989,1.989,0,0,1,.242.08.225.225,0,0,1,.058.046.173.173,0,0,1,.024.07v.195a.046.046,0,0,1-.012.035c-.008.077-.012.131-.012.161a.205.205,0,0,1-.115.127.236.236,0,0,1-.195.011.354.354,0,0,1-.139-.1.28.28,0,0,1-.1-.15.71.71,0,0,0-.115-.208.877.877,0,0,0-.15-.161.655.655,0,0,1-.173-.207,1.778,1.778,0,0,1-.161-.219A2.985,2.985,0,0,0,447.2,445.47Z" transform="translate(0 0)" fill="#000000"/><path d="M456.336,445.551a2.262,2.262,0,0,1,.369.668,1.24,1.24,0,0,1,.035.3.683.683,0,0,1-.081.3q-.358.566-.68,1.13c-.1.192-.2.38-.312.564q-.16.3-.322.588a2.123,2.123,0,0,1,.265-.115l.1-.035a1.071,1.071,0,0,1,.151-.046,2.192,2.192,0,0,1,.276-.011,1.27,1.27,0,0,1,.231.034.03.03,0,0,0,.023.011,2.752,2.752,0,0,1,.311.173.847.847,0,0,0,.081.07c.076.069.133.119.172.15a1.527,1.527,0,0,1,.358.518,2.092,2.092,0,0,1,.115.622v.012c-.015.123-.023.207-.023.253-.016.108-.028.185-.034.231a3.586,3.586,0,0,0-.047.611,5.214,5.214,0,0,0,.035.6.064.064,0,0,0,.057.069.142.142,0,0,0,.1.034,1.02,1.02,0,0,0,.3-.023.614.614,0,0,0,.31-.126c.123-.1.216-.181.278-.242a1.774,1.774,0,0,0,.253-.265,9.843,9.843,0,0,0,.91-1.544,10.568,10.568,0,0,0,.645-1.706,6.963,6.963,0,0,1,.173,1.2,6.28,6.28,0,0,1-.058,1.187,3.136,3.136,0,0,1-.207.726,2.242,2.242,0,0,1-.172.358c-.039.076-.1.188-.185.334a2.4,2.4,0,0,1-.461.611,3.172,3.172,0,0,1-.61.5,1.731,1.731,0,0,1-.876.254,1.183,1.183,0,0,1-.576-.139,1.488,1.488,0,0,1-.5-.357,1.8,1.8,0,0,1-.276-.438,1.353,1.353,0,0,1-.127-.5c-.008-.153-.011-.307-.011-.461,0-.13.007-.28.023-.449a7,7,0,0,1,.093-.91,2.809,2.809,0,0,0,.022-.3,1.413,1.413,0,0,0-.022-.288v-.011a.189.189,0,0,1-.012-.046.193.193,0,0,1-.035-.046.518.518,0,0,0-.1-.081.319.319,0,0,0-.046-.035.32.32,0,0,1-.057-.023h-.058a.081.081,0,0,0-.034.012h-.012a7.64,7.64,0,0,0-.991.841,6.758,6.758,0,0,0-.807,1c-.085.116-.18.258-.288.427l-.254.461c-.038.053-.076.111-.115.173q-.323.541-.644,1.094a1.533,1.533,0,0,1-.646-.587,1.493,1.493,0,0,1-.266-.83.762.762,0,0,1,.036-.265c.014-.061.038-.139.069-.23a.15.15,0,0,1,.068-.093.233.233,0,0,1,.105-.046.226.226,0,0,0,.115-.046.26.26,0,0,0,.068-.08c.123-.231.258-.48.4-.749.138-.239.277-.48.415-.727s.288-.487.427-.726c.161-.268.31-.514.449-.737a2.123,2.123,0,0,0,.127-.219l.322-.507c.115-.2.215-.38.3-.542.115-.191.23-.407.345-.645q.15-.276.346-.657a.812.812,0,0,0,.07-.265,1.523,1.523,0,0,0,0-.253l-.024-.173v-.023l.012-.012.012-.011h.034A2.9,2.9,0,0,1,456.336,445.551Z" transform="translate(0 0)" fill="#000000"/><path d="M357.516,546.424l-.63,2.063-.8,2.973c.7,0,1.259.035,1.644.07.314.034.8.14,1.433.28.56.139.84.315.84.524l-.07.245-.455.07-1.538-.14a17.259,17.259,0,0,0-2.414-.14h-1.084a14.235,14.235,0,0,0-1.644.14l-1.539.14-.384-.07a.6.6,0,0,1-.1-.245c0-.175.21-.35.63-.489a21.029,21.029,0,0,1,2.657-.385l1.4-2.868,1.574-3.637,5.176-12.94-.944-2.133-.875-1.679,2.8-1.224c.105.384.21.8.315,1.224.21.735.49,1.609.839,2.588.455,1.224.875,2.273,1.225,3.147q.261.684.944,2.2l3.917,9.443,1.4,3.322,1.294,2.553c.524.07,1.049.14,1.5.175.874.105,1.783.314,1.783.7a.486.486,0,0,1-.14.245l-.419.07-.7-.07q-2.151-.21-4.092-.21-1.784,0-3.882.21l-.769.07-.42-.07a.6.6,0,0,1-.1-.245c0-.175.28-.35.8-.524a5.974,5.974,0,0,1,.8-.14,14.817,14.817,0,0,1,2.308-.21c-.175-.77-.385-1.469-.594-2.1-.21-.593-.525-1.468-.98-2.552l-.07-.246-.839-1.958H358.18Zm9.582-2.588L362.691,533.1l-4.2,10.736Z" transform="translate(0 0)" fill="#000000"/><path d="M380.666,549.642l.139,1.748c.455.105.909.174,1.364.28.42.1.664.175.769.21.385.1.56.245.56.42a.491.491,0,0,1-.14.244l-.42.07-1.224-.105-2.168-.105-2.168.105-1.224.105-.42-.07a.442.442,0,0,1-.14-.244c0-.175.175-.316.56-.42a2.577,2.577,0,0,1,.524-.14c.84-.176,1.364-.315,1.609-.35l.105-1.784.07-1.468-.1-21.159v-.7a2.125,2.125,0,0,0-.175-.63.52.52,0,0,0-.49-.279c-.454,0-1.294.63-1.608.63l-.21-.07-.07-.106a1.024,1.024,0,0,1,.28-.664,5.369,5.369,0,0,1,.944-.7l1.854-.944a3.238,3.238,0,0,1,1.329-.35.491.491,0,0,1,.419.279,2.04,2.04,0,0,1,.141.945l-.141,23.747Zm3.042-3.743.629.8a8.982,8.982,0,0,0,3.183-1.574A2.646,2.646,0,0,0,388.6,543.1a1.692,1.692,0,0,0-.629-1.365,2.932,2.932,0,0,0-1.784-.489,6.961,6.961,0,0,0-2.693.629l-1.574.63-.174-.07c-.036-.035-.036-.105-.07-.209a.408.408,0,0,1,.244-.385l1.085-.665a18.277,18.277,0,0,1,2.378-.909,10.244,10.244,0,0,1,2.028-.28,3.928,3.928,0,0,1,2.518.7,2.285,2.285,0,0,1,.944,1.958c0,1.785-1.748,3.148-5.91,4.687.8.909,1.259,1.4,1.329,1.5a20.394,20.394,0,0,0,1.749,1.749q1.206,1.048,1.679,1.049a1.2,1.2,0,0,0,.8-.454,2.172,2.172,0,0,1,.419-.316,2.119,2.119,0,0,1,.21-.139l.175.07.07.21c0,.279-.245.664-.769,1.188a2.44,2.44,0,0,1-1.539.7c-1.679,0-4.127-1.854-8.044-6.19Z" transform="translate(0 0)" fill="#000000"/><path d="M393.918,541.283l-1.678-.349c-.315-.176-.455-.316-.455-.42a.486.486,0,0,1,.14-.245l.42-.071.979.071,1.679.1,1.713-.1.98-.071.419.071a.438.438,0,0,1,.14.245c0,.139-.14.279-.454.42l-1.469.383,3.6,9.583a33.783,33.783,0,0,0,1.923-4.755,23.84,23.84,0,0,0,1.155-4.862,3.782,3.782,0,0,1-.735-.175,2.272,2.272,0,0,1-.735-.245c-.209-.105-.314-.21-.314-.349l.105-.245.419-.071.91.071,1.364.07,1.4-.07.874-.071.42.071a.434.434,0,0,1,.139.245c0,.1-.139.244-.419.384l-1.5.385c-.629,1.573-1.049,2.623-1.259,3.217-.455,1.085-.839,2.029-1.224,2.833-.385.84-.7,1.609-1.014,2.344-.385.734-.63,1.223-.77,1.469l-2.378,4.616-.07.139c-1.574,2.973-2.833,4.442-3.847,4.442a1.588,1.588,0,0,1-1.154-.489,1.662,1.662,0,0,1-.454-1.224,1.914,1.914,0,0,1,.419-1.294,1.434,1.434,0,0,1,1.049-.455,1.289,1.289,0,0,1,.91.245,1.843,1.843,0,0,1,.419.734c.665-.28,1.679-1.714,3.113-4.476Z" transform="translate(0 0)" fill="#000000"/><path d="M412.488,550.551a2.194,2.194,0,0,0,1.923.839,4.915,4.915,0,0,0,.805-.07,6.8,6.8,0,0,0,1.014-.28,12.669,12.669,0,0,0,2.378-1.049v-5.8l-.035-1.365-.175-1.259-1.923.106h-.21a.5.5,0,0,1-.315-.07l-.1-.21c0-.245.28-.385.875-.49l.8-.14a17.147,17.147,0,0,0,1.923-.594l1.014-.42a1.009,1.009,0,0,1,.28.245,1.7,1.7,0,0,1,.071.525v8.463l.069,1.4a4.534,4.534,0,0,0,.175,1.049l1.749.21h.174c.385.035.6.175.6.349a.336.336,0,0,1-.244.35,2.542,2.542,0,0,1-.875.105h-.524a11.371,11.371,0,0,0-1.294.036c-.245.034-.63.069-1.155.139l-.454.035c-.105,0-.175-.07-.28-.21a.872.872,0,0,1-.14-.594v-1.119c-3.078,1.574-4.721,2.168-5.735,2.168a2.821,2.821,0,0,1-2.449-.979,6.629,6.629,0,0,1-.734-3.567v-5.107a2.568,2.568,0,0,1-.07-.42l-.14-1.259-1.923.106h-.21a.5.5,0,0,1-.315-.07l-.1-.21c0-.245.28-.385.874-.49l.8-.14c.385-.105.665-.175.875-.244a7.014,7.014,0,0,0,1.014-.35l1.049-.42c.28.175.35.315.35.77v7.449A4.634,4.634,0,0,0,412.488,550.551Z" transform="translate(0 0)" fill="#000000"/><path d="M429.9,528.1a1.576,1.576,0,0,1,.455,1.294,3.232,3.232,0,0,1-.35,1.469,11.235,11.235,0,0,1-1.154,2.1c-.175.28-.42.6-.665.944-.279.385-.524.665-.7.874a2.4,2.4,0,0,1-.769.665l-.175-.1-.07-.21.839-1.819a7.405,7.405,0,0,0,.91-3.113,1.133,1.133,0,0,0-.315-.839.882.882,0,0,0-.77-.28h-.49l-.209-.035-.07-.244q0-.262.734-.736a2.729,2.729,0,0,1,1.434-.418A1.839,1.839,0,0,1,429.9,528.1Z" transform="translate(0 0)" fill="#000000"/><path d="M434.483,553.034l-.245.594a.429.429,0,0,1-.315.141l-.175-.071-.07-.245.175-1.049a8.628,8.628,0,0,0,.175-1.888l-.105-1.4-.07-.979.07-.315a.538.538,0,0,1,.21-.14c.245,0,.42.594.525,1.749l.07.734a7.61,7.61,0,0,0,1.923.98,5.957,5.957,0,0,0,2.133.384c1.819,0,3.043-.734,3.043-1.994,0-.909-.874-1.5-2.588-1.748l-1.189-.175a6.7,6.7,0,0,1-3.358-1.259,3.09,3.09,0,0,1-.944-2.448,3.6,3.6,0,0,1,1.259-2.833,4.635,4.635,0,0,1,3.253-1.084h.664a7.222,7.222,0,0,1,.945.105,8.957,8.957,0,0,1,1.818.524l.14-.454a1.808,1.808,0,0,1,.21-.6.431.431,0,0,1,.28-.174l.175.069.1.245-.175.944-.105,1.749.07,1.644v.21a.694.694,0,0,1-.07.314l-.21.1c-.21,0-.35-.454-.455-1.363l-.1-.735a8.4,8.4,0,0,0-.944-.665q-.577-.315-1.049-.524a5.654,5.654,0,0,0-2.134-.42,2.807,2.807,0,0,0-1.853.594,1.79,1.79,0,0,0-.734,1.469c0,.875.8,1.4,2.448,1.61l1.538.279c2.973.455,4.127,1.539,4.127,3.5a4,4,0,0,1-1.468,3.183,5.448,5.448,0,0,1-3.778,1.294l-1.294-.105-1.748-.35Z" transform="translate(0 0)" fill="#000000"/><path d="M455.045,528.378l.1-.245.42-.105,1.539.175a22.191,22.191,0,0,0,2.728.14h1.609c.49-.071.839-.1,1.049-.14l1.539-.175.42.105.105.245c0,.175-.246.35-.7.489a6.4,6.4,0,0,1-.944.175c-1.015.175-1.574.245-1.609.245l-.455,13.185-.035.665v.629c0,3.078.49,5.246,1.469,6.54s2.658,1.959,5.071,1.959a8.459,8.459,0,0,0,4.267-1.015,6.263,6.263,0,0,0,2.588-2.867,11.68,11.68,0,0,0,.7-2.8c.069-.56.139-1.225.174-1.959s.07-1.608.07-2.588v-3.5c0-.665,0-1.189-.035-1.609-.1-1.644-.14-2.553-.14-2.693,0-.559,0-1.014-.035-1.364s-.174-1.224-.419-2.588c-2.763-.28-3.463-.524-3.463-.909l.1-.245a1.067,1.067,0,0,1,.42-.105l1.259.14,2.413.1,2.378-.1,1.3-.14a.459.459,0,0,1,.349.105c.105.035.14.105.14.245s-.14.279-.455.42c-.384.1-1.119.279-2.273.489a30.948,30.948,0,0,0-.384,3.5q-.107,1.941-.105,3.568v.384l-.036.874-.174,3.848-.07.874a25.024,25.024,0,0,1-.28,3.917,10.707,10.707,0,0,1-.839,2.693,6.751,6.751,0,0,1-3.008,3.078,10.554,10.554,0,0,1-4.9,1.048,9.9,9.9,0,0,1-4.546-.978,6.6,6.6,0,0,1-2.937-2.658,8.125,8.125,0,0,1-.8-2.553,33.973,33.973,0,0,1-.28-5.211V529.287C455.814,529.007,455.045,528.763,455.045,528.378Z" transform="translate(0 0)" fill="#000000"/><path d="M486.413,549.711l.174,1.714c.525.105.98.175,1.364.245.385.1.7.175.945.245.245.105.35.21.35.385l-.1.244-.42.07-1.224-.105-2.168-.105-2.2.105-1.189.105-.455-.07a.628.628,0,0,1-.105-.244c0-.175.175-.316.56-.42a14.639,14.639,0,0,1,2.133-.455l.1-1.573v-5.666l-.035-1.365a4.916,4.916,0,0,0-.035-.7c-.035-.245-.07-.42-.1-.56l-1.959.106h-.175a.745.745,0,0,1-.349-.07l-.071-.21c0-.21.315-.385.909-.49l.805-.14q.473-.105.84-.209c.209-.07.559-.21,1.014-.385l1.014-.42a2.232,2.232,0,0,1,.315.21c.034.035.034.105.034.21V542.3c.455-.244,1.015-.525,1.714-.839a22.047,22.047,0,0,1,2.2-.979,7.519,7.519,0,0,1,2.169-.49,2.921,2.921,0,0,1,2.518.979,6.467,6.467,0,0,1,.7,3.5v3.672l.034,1.749.105,1.538a18.494,18.494,0,0,1,2.169.455c.315.1.49.245.49.42l-.1.244-.42.07-1.225-.105-2.167-.105-2.2.105-1.189.105-.42-.07a.449.449,0,0,1-.14-.244c0-.175.14-.316.385-.385s.63-.175,1.154-.28.91-.21,1.154-.245l.1-1.713.07-1.539V544.85a4.477,4.477,0,0,0-.594-2.588,2.31,2.31,0,0,0-1.924-.8,5.854,5.854,0,0,0-2.028.419,15.532,15.532,0,0,0-2.554,1.154v5.107Z" transform="translate(0 0)" fill="#000000"/><path d="M501.519,541.562l-1.434.071-.734.139v-1.293l.874.174,1.294.035h.769l-.07-7.309v-.21H504.7l-.279,4.2-.106,3.322H506l1.784-.035,1.294-.174-.035,1.293-1.05-.139L506,541.562h-1.679l-.174,5.561v.595a4.975,4.975,0,0,0,.489,2.623,1.611,1.611,0,0,0,1.574.769,3.039,3.039,0,0,0,1.889-.665l.979-.664.21.106.1.244c0,.385-.49.944-1.5,1.679a6.145,6.145,0,0,1-1.469.8,4.4,4.4,0,0,1-1.5.28,2.572,2.572,0,0,1-2.238-.979,6.165,6.165,0,0,1-.665-3.288v-.664l.21-6.4Z" transform="translate(0 0)" fill="#000000"/><path d="M522.887,550.865a7.966,7.966,0,0,1-5.631,2.1,6.175,6.175,0,0,1-4.372-1.539,5.346,5.346,0,0,1-1.644-4.092,6.785,6.785,0,0,1,2.309-5.315,8.507,8.507,0,0,1,5.841-2.064,5.651,5.651,0,0,1,4.231,1.573,5.968,5.968,0,0,1,1.539,4.267A6.619,6.619,0,0,1,522.887,550.865Zm-.175-4.336a7.236,7.236,0,0,0-1.119-4.3,3.618,3.618,0,0,0-3.114-1.5,4.381,4.381,0,0,0-3.532,1.5,5.9,5.9,0,0,0-1.328,3.986,6.739,6.739,0,0,0,1.259,4.337,3.886,3.886,0,0,0,3.252,1.574C521.068,552.125,522.712,549.991,522.712,546.529Z" transform="translate(0 0)" fill="#000000"/><path d="M532.362,550.551a2.194,2.194,0,0,0,1.924.839,4.9,4.9,0,0,0,.8-.07,6.769,6.769,0,0,0,1.014-.28,12.64,12.64,0,0,0,2.378-1.049v-5.8l-.035-1.365-.175-1.259-1.922.106h-.21a.508.508,0,0,1-.316-.07l-.1-.21c0-.245.279-.385.874-.49l.8-.14a17.161,17.161,0,0,0,1.924-.594l1.014-.42a1.041,1.041,0,0,1,.28.245,1.737,1.737,0,0,1,.07.525v8.463l.07,1.4a4.48,4.48,0,0,0,.175,1.049l1.749.21h.174c.385.035.595.175.595.349a.336.336,0,0,1-.245.35,2.536,2.536,0,0,1-.874.105H541.8a11.391,11.391,0,0,0-1.294.036c-.244.034-.629.069-1.155.139l-.454.035c-.105,0-.174-.07-.28-.21a.878.878,0,0,1-.14-.594v-1.119c-3.077,1.574-4.721,2.168-5.735,2.168a2.819,2.819,0,0,1-2.448-.979,6.628,6.628,0,0,1-.735-3.567v-5.107a2.568,2.568,0,0,1-.07-.42l-.14-1.259-1.923.106h-.21a.5.5,0,0,1-.315-.07l-.1-.21c0-.245.279-.385.874-.49l.8-.14c.385-.105.665-.175.874-.244a7.057,7.057,0,0,0,1.015-.35l1.049-.42c.279.175.35.315.35.77v7.449A4.643,4.643,0,0,0,532.362,550.551Z" transform="translate(0 0)" fill="#000000"/><path d="M553.169,541.353a5.127,5.127,0,0,0-2.134-.49,3.326,3.326,0,0,0-3.5,2.518,4.587,4.587,0,0,0-.314,1.749,6.268,6.268,0,0,0,1.5,4.3,4.549,4.549,0,0,0,3.636,1.783,4.472,4.472,0,0,0,1.679-.315,4.07,4.07,0,0,0,1.364-1.084l.385-.455c.21-.314.385-.489.524-.489l.175.07.071.209a1.463,1.463,0,0,1-.14.526,5.271,5.271,0,0,1-.35.629,5.329,5.329,0,0,0-.315.455,5.6,5.6,0,0,1-4.652,2.133,5.52,5.52,0,0,1-4.126-1.748,6.018,6.018,0,0,1-1.679-4.337,6.769,6.769,0,0,1,1.888-4.827,6.086,6.086,0,0,1,4.652-1.993,11.42,11.42,0,0,1,2.623.35,7.426,7.426,0,0,1,.874.279l.035-.245c.175-.839.385-1.259.56-1.259l.21.106.07.175-.035.524a18.6,18.6,0,0,0-.21,2.727v.735c0,.21.07.734.175,1.539l.035.35a.5.5,0,0,1-.071.315l-.21.1c-.174,0-.314-.21-.418-.594a15.571,15.571,0,0,1-.316-2.274A7.278,7.278,0,0,0,553.169,541.353Z" transform="translate(0 0)" fill="#000000"/><path d="M560.861,525.649a.574.574,0,0,0-.524-.279c-.525,0-1.329.63-1.644.63l-.174-.07-.071-.106a1.025,1.025,0,0,1,.281-.664,5.33,5.33,0,0,1,.944-.7l1.853-.944a3.246,3.246,0,0,1,1.329-.35.456.456,0,0,1,.42.244,3.143,3.143,0,0,1,.105.98l-.105,17.906c.454-.244,1.224-.6,2.239-1.084.734-.35,1.258-.595,1.643-.734a8.2,8.2,0,0,1,2.2-.49,2.975,2.975,0,0,1,2.484.945,6.446,6.446,0,0,1,.7,3.532v3.672l.035,1.749.105,1.538c.524.105.979.175,1.364.245.734.175,1.329.245,1.329.63a.483.483,0,0,1-.141.244l-.419.07-1.224-.105-2.168-.105-2.169.105-1.224.105-.42-.07a.445.445,0,0,1-.139-.244c0-.385.524-.42,1.539-.665.524-.105.909-.21,1.154-.245l.14-1.748.035-1.5V544.85a4.522,4.522,0,0,0-.6-2.622,2.246,2.246,0,0,0-1.924-.77,6.015,6.015,0,0,0-2.028.419,14.714,14.714,0,0,0-2.518,1.154v5.107l.035,1.573.14,1.679c.454.105.874.174,1.328.28.42.1.665.175.77.21.385.1.559.245.559.42a.492.492,0,0,1-.139.244l-.385.07-1.224-.105-2.169-.105-2.168.105-1.223.105-.42-.07a.44.44,0,0,1-.141-.244c0-.175.176-.316.561-.42a19.372,19.372,0,0,1,2.1-.49l.106-1.784.069-1.468-.1-21.159A5.22,5.22,0,0,0,560.861,525.649Z" transform="translate(0 0)" fill="#000000"/><path d="M580.585,549.677a4.293,4.293,0,0,0,3.428,1.538,3.651,3.651,0,0,0,3.008-1.4l.593-.7a1.907,1.907,0,0,1,.455-.455c.035-.035.071-.035.105-.07l.176.07.069.175a1.622,1.622,0,0,1-.245.7,5.846,5.846,0,0,1-.629.98,6.4,6.4,0,0,1-2.169,1.749,5.765,5.765,0,0,1-2.588.629,5.408,5.408,0,0,1-4.2-1.748,6.478,6.478,0,0,1-1.574-4.547,6.725,6.725,0,0,1,1.749-4.791,6.052,6.052,0,0,1,4.616-1.854,5.277,5.277,0,0,1,3.847,1.363,5.426,5.426,0,0,1,1.364,3.953v.455h-9.338A5.81,5.81,0,0,0,580.585,549.677Zm.7-4.652,2.694-.07a9.223,9.223,0,0,0,.979-.07,11.347,11.347,0,0,0,1.224-.175,4.67,4.67,0,0,0-.874-3.008,2.888,2.888,0,0,0-2.344-1.084,3.278,3.278,0,0,0-2.588,1.154,5.176,5.176,0,0,0-.77,1.434,4.974,4.974,0,0,0-.314,1.819Z" transform="translate(0 0)" fill="#000000"/><path d="M600.063,525.685a.467.467,0,0,0-.49-.315,1.671,1.671,0,0,0-.874.315,1.825,1.825,0,0,1-.734.315l-.21-.035-.105-.141a1.05,1.05,0,0,1,.315-.664,3.513,3.513,0,0,1,.979-.7,11.819,11.819,0,0,1,1.889-.944,3,3,0,0,1,1.329-.35.514.514,0,0,1,.454.314,2.264,2.264,0,0,1,.14.91l-.244,24.9a5.954,5.954,0,0,0,.1,1.434.58.58,0,0,0,.56.245,1.678,1.678,0,0,0,1.189-.63c.244-.245.419-.385.489-.454a2.09,2.09,0,0,1,.281-.141l.175.07.069.21c0,.419-.489,1.014-1.469,1.748a4.529,4.529,0,0,1-2.553,1.12,1.15,1.15,0,0,1-.839-.28,1.461,1.461,0,0,1-.21-.874l.035-1.085a6.921,6.921,0,0,1-4.931,2.239,4.092,4.092,0,0,1-3.288-1.574,6.353,6.353,0,0,1-1.329-4.2,8.214,8.214,0,0,1,1.539-5.176,4.965,4.965,0,0,1,4.127-1.958,5.421,5.421,0,0,1,1.889.35,11.29,11.29,0,0,1,1.993,1.084l-.1-14.444A3.525,3.525,0,0,0,600.063,525.685Zm-1.574,15.528a3.8,3.8,0,0,0-1.783-.489,2.748,2.748,0,0,0-2.483,1.5,7.464,7.464,0,0,0-.945,3.986,7.572,7.572,0,0,0,.91,4.057,2.92,2.92,0,0,0,2.623,1.434,3.181,3.181,0,0,0,1.818-.524,5.37,5.37,0,0,0,1.714-1.645v-6.784A7.051,7.051,0,0,0,598.489,541.213Z" transform="translate(0 0)" fill="#000000"/><path d="M618.632,553.244c-.07.279-.141.454-.245.489l-.245.105c-.105-.035-.175-.035-.21-.069l-.07-.21.07-.735a29.626,29.626,0,0,0,.455-5.281v-1.434c-.035-.315-.071-.559-.071-.734l-.1-1.294.07-.455a.262.262,0,0,1,.244-.175c.281,0,.6,1.4.98,4.232l.1.875a16.222,16.222,0,0,0,3.673,2.378,8.368,8.368,0,0,0,3.532.769,6.659,6.659,0,0,0,4.546-1.643,5.106,5.106,0,0,0,1.854-3.917,4.63,4.63,0,0,0-.279-1.54,2.361,2.361,0,0,0-.91-1.014c-.944-.664-2.833-1.189-5.595-1.573l-1.575-.246a8.341,8.341,0,0,1-4.791-1.993,5.4,5.4,0,0,1-1.643-4.162,7.616,7.616,0,0,1,2.343-5.77,8.275,8.275,0,0,1,5.945-2.2,11.653,11.653,0,0,1,2.938.384,16.113,16.113,0,0,1,3.008,1.049l.594-1.714c.105-.384.28-.559.49-.594l.21.07.034.245c-.034.385-.069.664-.1.839a25.185,25.185,0,0,0-.56,5.316l.035,1.049.036.7a.966.966,0,0,1-.106.455.438.438,0,0,1-.245.14q-.733,0-.734-3.672v-.139a10.716,10.716,0,0,0-3.007-2.064,9.14,9.14,0,0,0-3.568-.7,6.69,6.69,0,0,0-4.511,1.574,4.832,4.832,0,0,0-1.854,3.777,3.153,3.153,0,0,0,1.189,2.658c.8.594,2.693,1.119,5.666,1.644l1.223.21a16.7,16.7,0,0,1,4.3,1.119,3.581,3.581,0,0,1,1.854,1.748,6.278,6.278,0,0,1,.7,2.938,7.751,7.751,0,0,1-2.554,5.98,9.114,9.114,0,0,1-6.4,2.379,13.592,13.592,0,0,1-2.973-.385,16.974,16.974,0,0,1-3.183-1.085Z" transform="translate(0 0)" fill="#000000"/><path d="M646.363,541.353a5.126,5.126,0,0,0-2.133-.49,3.326,3.326,0,0,0-3.5,2.518,4.587,4.587,0,0,0-.314,1.749,6.268,6.268,0,0,0,1.5,4.3,4.549,4.549,0,0,0,3.637,1.783,4.471,4.471,0,0,0,1.678-.315,4.064,4.064,0,0,0,1.365-1.084l.384-.455c.21-.314.385-.489.525-.489l.175.07.07.209a1.442,1.442,0,0,1-.14.526,5.134,5.134,0,0,1-.35.629,5.329,5.329,0,0,0-.315.455,5.593,5.593,0,0,1-4.651,2.133,5.521,5.521,0,0,1-4.127-1.748,6.022,6.022,0,0,1-1.679-4.337,6.766,6.766,0,0,1,1.889-4.827,6.084,6.084,0,0,1,4.651-1.993,11.42,11.42,0,0,1,2.623.35,7.486,7.486,0,0,1,.874.279l.035-.245c.175-.839.385-1.259.56-1.259l.21.106.07.175-.035.524a18.6,18.6,0,0,0-.21,2.727v.735c0,.21.07.734.175,1.539l.035.35a.506.506,0,0,1-.07.315l-.21.1c-.175,0-.315-.21-.419-.594a15.571,15.571,0,0,1-.316-2.274A7.293,7.293,0,0,0,646.363,541.353Z" transform="translate(0 0)" fill="#000000"/><path d="M664.059,550.865a7.966,7.966,0,0,1-5.631,2.1,6.173,6.173,0,0,1-4.372-1.539,5.346,5.346,0,0,1-1.644-4.092,6.785,6.785,0,0,1,2.309-5.315,8.507,8.507,0,0,1,5.841-2.064,5.651,5.651,0,0,1,4.231,1.573,5.968,5.968,0,0,1,1.539,4.267A6.622,6.622,0,0,1,664.059,550.865Zm-.175-4.336a7.236,7.236,0,0,0-1.119-4.3,3.619,3.619,0,0,0-3.114-1.5,4.38,4.38,0,0,0-3.532,1.5,5.9,5.9,0,0,0-1.328,3.986,6.739,6.739,0,0,0,1.259,4.337,3.884,3.884,0,0,0,3.252,1.574C662.24,552.125,663.884,549.991,663.884,546.529Z" transform="translate(0 0)" fill="#000000"/><path d="M671.226,549.887l.035-1.749v-3.952l-.035-1.365-.14-1.259-2.028.106h-.175a.753.753,0,0,1-.35-.07l-.07-.21c0-.21.314-.385.909-.49l.805-.14a12.78,12.78,0,0,0,1.714-.525l1.013-.384a.338.338,0,0,1,.316.21,3.619,3.619,0,0,1,.175,1.014l.035,3.393a11.4,11.4,0,0,1,1.993-3.393,2.914,2.914,0,0,1,2.2-1.084,2.007,2.007,0,0,1,1.259.384,1.478,1.478,0,0,1,.455,1.119,1.549,1.549,0,0,1-.385,1.05,1.312,1.312,0,0,1-1.015.454,1.572,1.572,0,0,1-.978-.385,2.021,2.021,0,0,0-.84-.454c-.664,0-1.294.63-1.818,1.889a11.637,11.637,0,0,0-.84,4.722v2.657c.559,0,1.085.035,1.609.07.979.14,2.413.35,2.413.8a.491.491,0,0,1-.14.244l-.384.07-.525-.035c-1.33-.1-2.483-.175-3.462-.175-.6,0-1.155,0-1.749.035s-1.224.07-1.819.14l-.454.035-.455-.07a.612.612,0,0,1-.105-.244c0-.141.175-.28.525-.42a16.136,16.136,0,0,1,2.238-.455Z" transform="translate(0 0)" fill="#000000"/><path d="M684.1,549.677a4.292,4.292,0,0,0,3.427,1.538,3.648,3.648,0,0,0,3.008-1.4l.594-.7a1.871,1.871,0,0,1,.455-.455c.035-.035.07-.035.105-.07l.175.07.07.175a1.636,1.636,0,0,1-.245.7,5.846,5.846,0,0,1-.629.98,6.412,6.412,0,0,1-2.169,1.749,5.765,5.765,0,0,1-2.588.629,5.406,5.406,0,0,1-4.2-1.748,6.479,6.479,0,0,1-1.575-4.547,6.729,6.729,0,0,1,1.749-4.791,6.056,6.056,0,0,1,4.617-1.854,5.277,5.277,0,0,1,3.847,1.363,5.43,5.43,0,0,1,1.364,3.953v.455h-9.338A5.81,5.81,0,0,0,684.1,549.677Zm.7-4.652,2.693-.07a9.242,9.242,0,0,0,.98-.07,11.3,11.3,0,0,0,1.223-.175,4.664,4.664,0,0,0-.874-3.008,2.885,2.885,0,0,0-2.343-1.084,3.278,3.278,0,0,0-2.588,1.154,5.15,5.15,0,0,0-.77,1.434,4.974,4.974,0,0,0-.314,1.819Z" transform="translate(0 0)" fill="#000000"/><path d="M712.84,541.108a2.66,2.66,0,0,1-.7-.21c-.175-.105-.281-.21-.281-.384l.071-.245.42-.071.874.071,1.364.07,1.4-.07.909-.071.385.071a.435.435,0,0,1,.141.245c0,.1-.141.244-.42.384l-1.469.385-1.888,3.847-.875,1.783-2.623,5.562-.14.279c-.175.385-.35.6-.525.6-.21,0-.42-.281-.664-.805l-4.861-11.261-1.609-.349c-.315-.141-.454-.281-.49-.42a.493.493,0,0,1,.14-.245l.42-.071.979.071,1.714.1,1.679-.1.979-.071.419.071.071.245c0,.174-.141.314-.42.42l-1.364.383,3.847,9.3,2.064-5.316.7-1.958.524-2.064A6.081,6.081,0,0,1,712.84,541.108Z" transform="translate(0 0)" fill="#000000"/><path d="M729.312,550.865a7.966,7.966,0,0,1-5.631,2.1,6.173,6.173,0,0,1-4.372-1.539,5.346,5.346,0,0,1-1.644-4.092,6.785,6.785,0,0,1,2.309-5.315,8.506,8.506,0,0,1,5.84-2.064,5.652,5.652,0,0,1,4.232,1.573,5.968,5.968,0,0,1,1.539,4.267A6.622,6.622,0,0,1,729.312,550.865Zm-.175-4.336a7.236,7.236,0,0,0-1.119-4.3,3.619,3.619,0,0,0-3.114-1.5,4.379,4.379,0,0,0-3.532,1.5,5.9,5.9,0,0,0-1.329,3.986,6.739,6.739,0,0,0,1.26,4.337,3.883,3.883,0,0,0,3.252,1.574C727.493,552.125,729.137,549.991,729.137,546.529Z" transform="translate(0 0)" fill="#000000"/><path d="M738.192,547.229l.14,4.2a17.2,17.2,0,0,1,2.1.42c.314.1.489.28.524.455a.484.484,0,0,1-.14.244l-.384.07-1.224-.105-2.169-.105-2.168.105-1.224.105-.419-.07a.44.44,0,0,1-.141-.244c0-.28.315-.455,2.658-.91l.106-2.938.069-3.5-.105-17.976a5.285,5.285,0,0,0-.105-1.33.575.575,0,0,0-.524-.279c-.525,0-1.33.63-1.644.63l-.175-.07-.07-.106a1.024,1.024,0,0,1,.28-.664,5.347,5.347,0,0,1,.945-.7l1.853-.944a3.242,3.242,0,0,1,1.329-.35.456.456,0,0,1,.42.244,3.174,3.174,0,0,1,.1.98l-.1,20.564Z" transform="translate(0 0)" fill="#000000"/><path d="M744.731,552.369a1.684,1.684,0,0,1-.525-1.294,1.864,1.864,0,0,1,1.784-1.783,1.76,1.76,0,0,1,1.748,1.783,1.8,1.8,0,0,1-.489,1.294,1.772,1.772,0,0,1-2.518,0Z" transform="translate(0 0)" fill="#000000"/><path d="M754.662,537.926a16.6,16.6,0,0,1,2.2-.63,14.211,14.211,0,0,1,2.553-.21,8.783,8.783,0,0,1,5.806,1.889,6.246,6.246,0,0,1,2.238,5,8.2,8.2,0,0,1-.385,2.483,6.391,6.391,0,0,1-1.049,2.2,9.894,9.894,0,0,1-3.533,3.287,9.44,9.44,0,0,1-4.581,1.119,6.3,6.3,0,0,1-4.3-1.538,4.923,4.923,0,0,1-1.714-3.882,6.306,6.306,0,0,1,.35-2.1c.28-.595.56-.909.8-.909a.87.87,0,0,1,.245.174l.1.419-.035.281v.174a5.359,5.359,0,0,0,1.889,4.057,6.224,6.224,0,0,0,4.512,1.784A5.828,5.828,0,0,0,764,549.852a5.364,5.364,0,0,0,1.714-4.092,5.436,5.436,0,0,0-1.818-4.268,7.13,7.13,0,0,0-4.9-1.608,11.085,11.085,0,0,0-5.176,1.4l-.665.279-.209-.1a.4.4,0,0,1-.1-.28l.07-.385.21-.664,3.427-10.842h7.38a4.345,4.345,0,0,0,1.4-.21.962.962,0,0,0,.49-.139,4.694,4.694,0,0,0,.525-.35,1.12,1.12,0,0,0,.42-.63c.174-.314.314-.454.454-.454l.245.1.14.175a9.006,9.006,0,0,1-1.224,2.763,3.258,3.258,0,0,1-1.015,1.05,4.381,4.381,0,0,1-1.888.279h-6.925Z" transform="translate(0 0)" fill="#000000"/><g id="上海_アリス幻樂団-2" data-name="上海■アリス幻樂団"><path d="M542.909,594.488a1.33,1.33,0,0,1,.818.254.78.78,0,0,1,.355.714l-.062,2.309h3.2a3.786,3.786,0,0,1,1,.084q.231.12.231.526a1.44,1.44,0,0,1-.2.747.661.661,0,0,1-.54.272q-.262,0-1.08-.051c-.515-.011-.982-.017-1.4-.017q-.494,0-1.282.017l-.091,3.31a54.671,54.671,0,0,1,6.4.73,3.494,3.494,0,0,1-.463,1.545.792.792,0,0,1-.664.492,4.945,4.945,0,0,1-1.189-.255,19.568,19.568,0,0,0-5.215-.746,15.253,15.253,0,0,0-5.093.814,3.385,3.385,0,0,1-1.034.255.813.813,0,0,1-.586-.323.911.911,0,0,1-.278-.61.977.977,0,0,1,.741-1.087,20.113,20.113,0,0,1,5.494-.815l-.063-7.2a.877.877,0,0,1,.279-.68A.9.9,0,0,1,542.909,594.488Z" transform="translate(0 0)" fill="#000000"/><path d="M536.365,616.005l2.593.067c.288.091.433.233.433.425q0,.441-.88.8a17.279,17.279,0,0,1-2.1.628.815.815,0,0,1-.478-.272.77.77,0,0,1-.247-.543,1.649,1.649,0,0,1,.2-.764Q536.119,616.005,536.365,616.005Zm1.112-4.414q.4,0,1.142.763,1.188,1.206,1.188,1.478a.371.371,0,0,1-.416.424,2.226,2.226,0,0,1-.618-.118,7.445,7.445,0,0,0-1.466-.2q-.773-.086-.772-1.24a1.16,1.16,0,0,1,.293-.78A.94.94,0,0,1,537.477,611.591Zm1.1,7.69a.229.229,0,0,1,.263.254q0,.306-.231,2.326a.731.731,0,0,1-.834.73,1.113,1.113,0,0,1-.725-.237,1.032,1.032,0,0,1-.309-.764,1.155,1.155,0,0,1,.232-.544l1.265-1.544C538.366,619.354,538.479,619.281,538.572,619.281Zm3.72-4.77a.991.991,0,0,1,.6.17.2.2,0,0,1,.077.05q1-.066,2.577-.067,2.5,0,3.163.084.309.034.309.255a2.04,2.04,0,0,1-.124.374,11.376,11.376,0,0,0-.462,1.952c.606.045,1.25.1,1.928.169a2.728,2.728,0,0,1-.354,1.273c-.175.3-.361.442-.556.442a3.03,3.03,0,0,1-.91-.237l-.387-.1c-.03.17-.056.346-.077.526s-.066.357-.107.527c.472.034.9.062,1.28.085.175.034.263.1.263.2a1.285,1.285,0,0,1-.2.747.652.652,0,0,1-.54.288c-.185,0-.561-.022-1.127-.068a3.887,3.887,0,0,1-.494,1.07q-.371.627-.848.628a1.324,1.324,0,0,1-1.126-.816,2.763,2.763,0,0,0,.694-.984q-1.575-.051-3.827-.051a3.068,3.068,0,0,0-1.173.17,1.1,1.1,0,0,1-.386.119.588.588,0,0,1-.432-.187.491.491,0,0,1-.185-.424,1.954,1.954,0,0,1,.154-.561q.216-.661.432-1.34c-.134.034-.263.062-.386.085a3.73,3.73,0,0,1-.941.186.5.5,0,0,1-.37-.237.54.54,0,0,1-.186-.374.617.617,0,0,1,.494-.679,14.226,14.226,0,0,1,1.836-.391q.357-1.154.71-2.393A.621.621,0,0,1,542.292,614.511Zm-.387-3.107a2.215,2.215,0,0,1,1,.2.58.58,0,0,1,.293.475,1.143,1.143,0,0,1-.108.425q1.018-.1,2.794-.1a41.41,41.41,0,0,1,4.181.153,2.708,2.708,0,0,1-.277,1.205.437.437,0,0,1-.4.289q-.326,0-1.328-.069-1.6-.152-2.654-.152a20.394,20.394,0,0,0-2.47.136,6.467,6.467,0,0,1-.833.085.251.251,0,0,1-.092-.018.716.716,0,0,0-.123.136,2.982,2.982,0,0,1-1.96,1.239c-.279,0-.417-.1-.417-.288a.615.615,0,0,1,.2-.356A8.827,8.827,0,0,0,541.1,613a2.231,2.231,0,0,0,.385-1.053.991.991,0,0,0-.2-.492A2.98,2.98,0,0,1,541.905,611.4Zm1.513,8.42.309-1.409c-.545.023-1.071.063-1.575.119l-.37,1.222c0,.046.129.068.386.068Zm-.88-2.58c.453-.034.941-.056,1.467-.068l.293-1.29q-.756.017-1.374.051Zm3.735,2.631a.136.136,0,0,0,.015-.051l.34-1.273a12.169,12.169,0,0,0-1.667-.153l-.309,1.443Q545.518,619.841,546.273,619.875Zm-.741-3.989-.308,1.29q.8,0,1.728.051a7.6,7.6,0,0,0,.2-1.155Q547.152,615.9,545.532,615.886Z" transform="translate(0 0)" fill="#000000"/><path d="M548.912,640.7H537.045V627.574h11.867Z" transform="translate(0 0)" fill="#000000"/><path d="M526.3,599.021a12.131,12.131,0,0,1-.155,2.308,3.732,3.732,0,0,1-.971,1.867,5.435,5.435,0,0,1-2.33,1.545,5.087,5.087,0,0,1-1.776.373q-1.28,0-1.28-1.069a2.847,2.847,0,0,1,1.064-2.41q.139.611.926.611a2.054,2.054,0,0,0,2.161-1.46,4.275,4.275,0,0,0,.2-1.069v-.765q0-.865.957-.865a1.828,1.828,0,0,1,.848.136A.838.838,0,0,1,526.3,599.021Zm5.633-2.36a.894.894,0,0,1-.325.7,7.149,7.149,0,0,0-.663.493,1.581,1.581,0,0,0-.51.424q-1.712,2.122-2.3,2.123-.711,0-.71-.646a6.3,6.3,0,0,1,.586-1.357,1.246,1.246,0,0,0,.108-.391q0-.441-.417-.441c-.03,0-.35-.011-.956-.035s-.983-.05-1.127-.05a14.861,14.861,0,0,0-2.947.289q-1.435.27-1.529.271a.91.91,0,0,1-.57-.221,1.086,1.086,0,0,1-.355-.815,1.125,1.125,0,0,1,.988-1.29,18.558,18.558,0,0,1,2.886-.221q3.332,0,5.632.221a6.427,6.427,0,0,1,1.7.323C531.766,596.18,531.936,596.39,531.936,596.661Z" transform="translate(0 0)" fill="#000000"/><path d="M530.038,613.152q0,.306-.154,2.462-.279,3.633-1.946,5.211a5.784,5.784,0,0,1-4.1,1.342,5.127,5.127,0,0,1-1.312-.119q-.818-.221-.818-.917a3.106,3.106,0,0,1,1.42-2.24,1.538,1.538,0,0,0,1.436.577,2.644,2.644,0,0,0,1.79-.816,4.757,4.757,0,0,0,1.265-3.581v-1.052q.015-.679.015-.8,0-.918,1.22-.917a1.523,1.523,0,0,1,.771.2A.748.748,0,0,1,530.038,613.152ZM524,613.068q0,.2-.016,1.459-.015,1.275-.015,1.715,0,1.749-1.189,1.749-.925,0-.926-1.239,0-.222-.046-1.613-.03-1.392-.031-1.918,0-.882,1.157-.883Q524,612.338,524,613.068Z" transform="translate(0 0)" fill="#000000"/><path d="M531.4,638.115q-.743,1.069-1.435,1.07a1.424,1.424,0,0,1-.864-.527q-.186-.168-.618-.577-.4-.39-.7-.644a14.514,14.514,0,0,0-2.469-1.647q-2.732,2.852-4.814,2.852-.819,0-.818-1.07a4.438,4.438,0,0,1,.879-2.173.81.81,0,0,0,.649.289,3.2,3.2,0,0,0,1.5-.526,7.226,7.226,0,0,0,1.559-1.121,12.076,12.076,0,0,0,.988-1.12,1.9,1.9,0,0,0,.416-.73q0-.272-.447-.272a18.271,18.271,0,0,0-2.685.17q-1.082.136-.988.136a.737.737,0,0,1-.479-.221,1.073,1.073,0,0,1-.339-.865.914.914,0,0,1,1.049-1.019l1.744-.034q1.806-.086,2.7-.085a6.593,6.593,0,0,1,2.5.289.656.656,0,0,1,.462.611.684.684,0,0,1-.261.509,3.723,3.723,0,0,0-.494.476q-.48.611-1.806,2.41a11.027,11.027,0,0,0,3.056,1.63q.663.255,2,.662c.093.022.211.057.356.1h.016A2.817,2.817,0,0,1,531.4,638.115Z" transform="translate(0 0)" fill="#000000"/><path d="M506.116,594.369a.819.819,0,0,1,.663.255,1.1,1.1,0,0,1,.247.679,1.8,1.8,0,0,1-.571,1.154l-1.867,1.749c-.268.294-.4.481-.4.56,0,.17.174.356.524.56l.694.306q.957-.916,1.867-1.834a1.292,1.292,0,0,1,.819-.509.784.784,0,0,1,.493.221.843.843,0,0,1,.247.577,2.124,2.124,0,0,1-.71,1.46l-2.932,2.868,2.392.085c.082,0,.123-.062.123-.187a2.581,2.581,0,0,1-.617-.95q0-.476.433-.475.4,0,1.635,1.222,1.018.967,1.019,1.494,0,.747-.556.747a3.824,3.824,0,0,1-.648-.12,15.794,15.794,0,0,0-1.913-.085h-2.053a9.057,9.057,0,0,0-2.006.17,1.688,1.688,0,0,1-.463.17q-.942,0-.941-.678a1.888,1.888,0,0,1,.74-1.341q.881-.781,1.713-1.545a11.082,11.082,0,0,0-1.82-.883q-.695-.237-.695-.577,0-.322.617-1l2.608-3.089Q505.639,594.369,506.116,594.369Zm5.988.611a32.279,32.279,0,0,1,3.287.1c.319.068.478.192.478.374a.872.872,0,0,1-.108.3,2.1,2.1,0,0,0-.216.968l-.093,4.872a4.575,4.575,0,0,1-1.25,3.055,2.992,2.992,0,0,1-2.1.985,1.118,1.118,0,0,1-.849-.442,4.173,4.173,0,0,1-.756-1.663,5.28,5.28,0,0,0,2.484-.933,2.648,2.648,0,0,0,.849-2.173v-3.481c0-.146-.088-.22-.263-.22q-2.236,0-3.595.135a4.825,4.825,0,0,1-.972.154c-.154,0-.309-.108-.463-.324a1.108,1.108,0,0,1-.216-.713c0-.463.282-.769.849-.916A26.226,26.226,0,0,1,512.1,594.98Z" transform="translate(0 0)" fill="#000000"/><path d="M504.434,611.591a.562.562,0,0,1,.494.221.84.84,0,0,1,.185.526.8.8,0,0,1-.294.543l-.971.832c-.145.147-.216.237-.216.271s.077.091.231.136l.278.068.664-.662a.806.806,0,0,1,.508-.289c.32,0,.479.2.479.6a.742.742,0,0,1-.324.594l-1.652,1.443c0,.045.047.068.139.068h1.1c.093,0,.139-.023.139-.068a2.554,2.554,0,0,1-.2-.611c0-.17.109-.255.324-.255q.263,0,.788.628a1.741,1.741,0,0,1,.447.866q0,.543-.493.543a2.138,2.138,0,0,1-.417-.067h-1.327a12.238,12.238,0,0,0-1.775.1,1.238,1.238,0,0,1-.371.1.417.417,0,0,1-.386-.424c0-.148.155-.356.463-.629l.85-.882a7.34,7.34,0,0,0-1.066-.459c-.247-.067-.37-.158-.37-.271s.123-.3.37-.561l1.59-1.764Q504.156,611.591,504.434,611.591Zm4.444-.322a2.372,2.372,0,0,1,.911.119.285.285,0,0,1,.216.271,1.352,1.352,0,0,1-.154.56,10.567,10.567,0,0,1,1.635.17c.155.034.232.113.232.238q-.078.407-.185,1.205l.169-.186L513.276,612c.35-.361.618-.543.8-.543a.586.586,0,0,1,.494.221.887.887,0,0,1,.185.526.771.771,0,0,1-.324.51l-1.065.746c-.144.125-.216.2-.216.238,0,.057.062.118.185.187l.294.152.556-.526a.82.82,0,0,1,.508-.272c.329,0,.494.2.494.6a.678.678,0,0,1-.355.56l-1.682,1.358q0,.051.123.051h.973c.134,0,.2-.017.2-.051a2.257,2.257,0,0,1-.2-.561c0-.168.107-.253.324-.253q.263,0,.74.61a1.53,1.53,0,0,1,.433.815c0,.363-.144.543-.433.543h-1.758a10.586,10.586,0,0,0-1.652.1,1.1,1.1,0,0,1-.37.1.436.436,0,0,1-.294-.153.381.381,0,0,1-.107-.255.508.508,0,0,1-.217.052,1.582,1.582,0,0,1-.246-.052q-.448-.05-1.235-.067l.092.051a1.152,1.152,0,0,1,.4.7q2.408.086,6,.543a2.992,2.992,0,0,1-.432,1.409c-.176.328-.386.492-.633.492a4.413,4.413,0,0,1-1.142-.271,17.974,17.974,0,0,0-3.812-.713l-.03,1.934a3.024,3.024,0,0,1-.324,1.511.84.84,0,0,1-.787.527,1.1,1.1,0,0,1-.8-.339q-.324-.255-.324-1.563v-2.088a18.466,18.466,0,0,0-4.229.628,4.117,4.117,0,0,1-1.08.221.591.591,0,0,1-.416-.237.606.606,0,0,1-.2-.425.754.754,0,0,1,.555-.831,19.632,19.632,0,0,1,5.386-.782,1.1,1.1,0,0,1,.309-.644,1.33,1.33,0,0,1,.154-.119,7.1,7.1,0,0,0-1.018.119.6.6,0,0,1-.2.085c-.195,0-.314-.182-.355-.544l-.324-3.463a.4.4,0,0,1,.294-.407,10.436,10.436,0,0,1,1.187-.17,1.809,1.809,0,0,0,.14-.526c0-.08-.068-.187-.2-.323A5.983,5.983,0,0,1,508.878,611.269Zm-2.947,8.487c.082,0,.124.046.124.136a2.441,2.441,0,0,1-.742,1.494,2.611,2.611,0,0,1-1.744,1q-.555,0-.554-.867a1.569,1.569,0,0,1,.261-1.018c.021.091.119.136.293.136a3.256,3.256,0,0,0,1.791-.679A1.327,1.327,0,0,1,505.931,619.756Zm1.991-5.721a7.224,7.224,0,0,1,.91-.051c.37,0,.746.018,1.127.051l.046-.594c0-.056-.036-.1-.109-.119a5.359,5.359,0,0,0-1.125-.085,2.441,2.441,0,0,0-.742.1c-.082.022-.123.056-.123.1Zm.231,1.579a3.968,3.968,0,0,1,.71-.068,4.926,4.926,0,0,1,.818.068c.113,0,.179-.068.2-.2l.03-.492c-.381-.034-.74-.051-1.08-.051s-.633.012-.88.034l.016.645C507.968,615.592,508.029,615.614,508.153,615.614Zm3.148.662c.072-.079.16-.175.262-.289l.988-.933a6.7,6.7,0,0,0-.91-.56.79.79,0,0,1-.17-.1Q511.393,615.19,511.3,616.276Zm.417,3.548a1.89,1.89,0,0,1,.818.272,7.833,7.833,0,0,0,1.913.814,3.213,3.213,0,0,1-.555,1.239,1.081,1.081,0,0,1-.741.306q-.371,0-.834-.559a3.91,3.91,0,0,1-.786-1.869C511.533,619.892,511.6,619.824,511.718,619.824Z" transform="translate(0 0)" fill="#000000"/><path d="M508.878,628.915a38.916,38.916,0,0,1,5.957.306q.54.084.54.373-.309,2.326-.679,9.285c-.02.408-.149.611-.385.611a6.057,6.057,0,0,1-.679-.085q-1.56-.168-4.784-.17a48.858,48.858,0,0,0-5.109.2,3.2,3.2,0,0,1-.6.12c-.2,0-.315-.176-.355-.527l-.618-9.167q0-.492.726-.611A52.624,52.624,0,0,1,508.878,628.915Zm-4.506,8.759q1.266-.034,2.5-.051a.7.7,0,0,1-.139-.17,2.229,2.229,0,0,1-.324-1.272,4.767,4.767,0,0,0,2.176-.391.893.893,0,0,0,.478-.764v-1.919a16.023,16.023,0,0,0-3.024.306,8.5,8.5,0,0,1-.926.119.567.567,0,0,1-.432-.2.9.9,0,0,1-.17-.543.735.735,0,0,1,.417-.7,18.167,18.167,0,0,1,4.135-.254v-.815a.781.781,0,0,1,.139-.476h-.324q-2.315,0-4.305.187c-.5.045-.757.114-.757.2l.372,6.6C504.188,637.629,504.249,637.674,504.372,637.674Zm3.473-4.091q.415,0,.416.492,0,.137-.37.543a4.708,4.708,0,0,1-1.189.849,2.549,2.549,0,0,1-1.033.289.422.422,0,0,1-.479-.476,1.933,1.933,0,0,1,.355-1,.252.252,0,0,0,.247.118,2.222,2.222,0,0,0,.818-.186,3.738,3.738,0,0,0,.926-.526A.507.507,0,0,1,507.845,633.583Zm2.638-3.039a.46.46,0,0,1,.078.255,4.5,4.5,0,0,0-.062.611v.442q1.171.051,2.453.186a2.754,2.754,0,0,1-.293,1.274.537.537,0,0,1-.447.22,4.672,4.672,0,0,1-.8-.119c-.329-.079-.633-.142-.91-.186v1.986a2.2,2.2,0,0,1-.88,1.918,4.464,4.464,0,0,1-.941.475h4.274c.124,0,.191-.1.2-.289l.355-6.45q0-.137-.4-.186Q512.2,630.577,510.483,630.544Z" transform="translate(0 0)" fill="#000000"/></g><path d="M238.623,938.047q.345,0,.344,1.252c0,.187-.2.355-.594.5q-1.347.251-2.536.5-.469,7.042-.595,9.641,3.131-.312,5.823-.532a6.8,6.8,0,0,1,1.815-.219,7.739,7.739,0,0,0,.6,1.284,5.536,5.536,0,0,1,.657,1.816c-.063.4-.188.615-.376.657a7.436,7.436,0,0,1-1.346-.438,7.192,7.192,0,0,0-2.286-.439q-4.318,0-11.614.6a58.3,58.3,0,0,0-9.579,1.409q-.438,0-.971-2.38l.626-.25h1q3.162-.344,6.1-.594-.063-2.974-.094-9.111-1.377.252-2.912.564-.375,0-.719-.876a3.245,3.245,0,0,1-.282-1.283q0-.345.532-.345.908-.063,3.381-.314,0-1.815-.031-3.819,0-.375.657-.375,1.754,0,1.753.626-.093.971-.125,2.661v.689q2.347-.282,5.51-.626.061-2.162.094-4.6,0-.531.908-.531,2.221,0,2.222.782a9.886,9.886,0,0,0-.532,2.849c-.042.4-.074.794-.094,1.189Q237.245,938.2,238.623,938.047Zm-11.426,15.5c.354,0,.532.083.532.25q-1.754,2.16-2.348,3.068a7,7,0,0,1-.877,1.471,3.683,3.683,0,0,0-.657,1.222c-.084.354-.25.532-.5.532q-.6,0-1.315-1.065-1.065-1.126-1.064-1.565,0-.25.47-.376a7.387,7.387,0,0,0,1.564-.939A31.318,31.318,0,0,1,227.2,953.543Zm.532-2.88q2.722-.251,5.2-.5.219-3.162.408-9.423-1.879.282-3.444.438-.939.063-2.066.219,0,1.065-.031,2.035,1.376-.187,4.194-.658.345,0,.345,1.253c0,.188-.2.355-.595.5a15.337,15.337,0,0,1-2.5.5,10.523,10.523,0,0,0-1.439.251q-.032.876-.032,1.628,1.346-.156,4.226-.594.345,0,.345,1.251c0,.188-.2.356-.595.5a21.4,21.4,0,0,1-2.442.564,11.653,11.653,0,0,0-1.565.281Zm6.261,2.66a23.946,23.946,0,0,1,3.506,1.191,14.872,14.872,0,0,0,1.722.626q.407.314.407,2.316a4.035,4.035,0,0,1-.5,1.753q-.375.876-.751.877-.345,0-.783-.752a26.369,26.369,0,0,0-3.444-4.758q-.625-.5-.688-.783Q233.458,953.324,233.99,953.323Z" transform="translate(0 0)" fill="#000000"/><path d="M269.959,946.687q0,2.223-2.253,6.135-.564.972-.6,1a5.1,5.1,0,0,0-.156.752,1.245,1.245,0,0,1-.846,1.033A22,22,0,0,1,258,957.456q-.469.031-.47-.156t.407-.376a20.448,20.448,0,0,0,5.009-3.225,17.063,17.063,0,0,0,3.287-4.069,9.557,9.557,0,0,0,1.378-4.6,4.676,4.676,0,0,0-2.035-4.1,7.252,7.252,0,0,0-4.195-1.158,8.245,8.245,0,0,0-1.659.125l1.158,1.158c.229.209.345.386.345.532,0,.125-.168.355-.5.688q-.282.313-1.535,2.161-2.44,3.319-7.043,10.268a.829.829,0,0,1-.72.47q-.469,0-.814-.815-.877-2.034-2.317-5.634a7.424,7.424,0,0,1-.406-2.348,6.374,6.374,0,0,1,1.659-4.227,11.9,11.9,0,0,1,5.009-3.255,16.04,16.04,0,0,1,5.979-1.159q4.476,0,6.918,2.348A8.612,8.612,0,0,1,269.959,946.687Zm-11.488-6.668a15.2,15.2,0,0,0-7.889,3.913,3.181,3.181,0,0,0-1.252,2.411,2.831,2.831,0,0,0,.219,1.1,4.317,4.317,0,0,0,1.377,1.878,1.57,1.57,0,0,0,.939.439q.345,0,.939-.689a28.825,28.825,0,0,0,3.35-4.665A24.287,24.287,0,0,0,258.471,940.019Z" transform="translate(0 0)" fill="#000000"/><path d="M283.609,935.01a4.651,4.651,0,0,1,1.346.626c.543.355.814.563.814.627a1.458,1.458,0,0,1-.532.907,80.6,80.6,0,0,0-5.667,7.983l.658.219q1.752.878,1.878,1.409a53.043,53.043,0,0,0-1.377,8.671l.25,2.223q0,.657-1.377.657-1.408,0-1.5-.532,1.158-2.284,1.158-8.014a6.031,6.031,0,0,0-.688-2.848c-.063.208-.115.407-.157.594q-.093.5-1.189,1.252a6.465,6.465,0,0,1-3.851,1.158c-.584,0-.876-.134-.876-.406a23.6,23.6,0,0,0,5.759-6.2,41.7,41.7,0,0,0,4.509-7.795A.767.767,0,0,1,283.609,935.01Zm12.021,2.912q.626.156,1.252,3c-.021.25-.261.407-.72.469q-2.191.408-3.913.689a23.951,23.951,0,0,1-.908,3.632q.815-.126,1.722-.282a10.1,10.1,0,0,1,1.847-.376,5.839,5.839,0,0,1,2.254.877q1.346.627,1.346,1.22c0,.084-.125.231-.376.439a33.432,33.432,0,0,0-2.629,4.821.912.912,0,0,1-.063.344q1.753-.156,3.35-.313a5.449,5.449,0,0,1,1.377-.156,8.351,8.351,0,0,0,.533,1.252,5.341,5.341,0,0,1,.563,1.784c-.063.293-.178.459-.345.5a7.256,7.256,0,0,1-1.252-.345,6.243,6.243,0,0,0-2.128-.437q-3.162,0-8.453.344a58.4,58.4,0,0,0-6.981.688q-.408,0-.877-2l.533-.282h.876q1.535-.125,3.006-.25c.062-.125.146-.272.25-.439a18.116,18.116,0,0,0,1.816-4.727,19.8,19.8,0,0,0-2.724.939q-.627,0-.845-2.285,0-.594.5-.594l1.127.125q.564-.062,2.536-.344a17.555,17.555,0,0,0,.563-3.57v-.218a24.507,24.507,0,0,0-2.849.343q-.343,0-.6-1.47a8.813,8.813,0,0,0-.187-1.158.538.538,0,0,1,.532-.47,30.675,30.675,0,0,0,8.64-1.378A9.43,9.43,0,0,1,295.63,937.922Zm-6.762,15.37q1.659-.156,3.256-.281a10.193,10.193,0,0,0,1.409-3.82q0-1.628-1-1.628a12.2,12.2,0,0,0-1.722.219,41.765,41.765,0,0,1-1.816,5.166C288.951,953.073,288.91,953.188,288.868,953.292Z" transform="translate(0 0)" fill="#000000"/><path d="M334.637,938.422q-1,0-3.82.22-.032,1-.031,1.878a28.462,28.462,0,0,1,3.193-.25,7.413,7.413,0,0,1,3.35.719q.908.534.908,1.065a3.047,3.047,0,0,1-.251,1.252,23.5,23.5,0,0,0-1.471,4.351c-.209.857-.47,1.283-.783,1.283a4.5,4.5,0,0,1-.908-.187,2.91,2.91,0,0,0-1.189-.345,25.25,25.25,0,0,0-2.724.189,9.319,9.319,0,0,0,1.879,1.846,28.6,28.6,0,0,0,8.921,5.134q1.566.564,1.566,1.128,0,.625-2,.626a12.111,12.111,0,0,1-2.222-.313,11.264,11.264,0,0,0-3.256-.533q-.815,0-.908-.688a2.948,2.948,0,0,0-1.1-2,5.247,5.247,0,0,1-1.848-1.408,14.284,14.284,0,0,0-1.44-1.19q-.158,4.6-.156,7.012,0,.658.031,1.221a8.041,8.041,0,0,1,.125,1.284q-.063.375-1,.375-1.471,0-1.627-.532a.919.919,0,0,1,.187-.564,4.25,4.25,0,0,0,.063-.813l.031-8.265a49.378,49.378,0,0,0-5.071,4.164,1.872,1.872,0,0,0-.72.97q-.126.282-1.221.752a11.329,11.329,0,0,1-4.039.657q-.876,0-.876-.376a21.945,21.945,0,0,0,6.1-3.757,28.113,28.113,0,0,0,4.508-4.257,6.528,6.528,0,0,0-1.5.375,1.6,1.6,0,0,1-.752.22q-.281,0-.97-1.189a22.059,22.059,0,0,1-1.721-4.289,10.5,10.5,0,0,1-.408-1.879q0-.375.72-.375,3.475-.625,6.011-1.033v-1.942a24.947,24.947,0,0,0-4.633,1.191q-.345,0-.877-.752a5.2,5.2,0,0,1-.626-1.346q0-.408.658-.532a25.394,25.394,0,0,0,4.163-.533c.417-.042.856-.093,1.315-.156l.031-2.787a2.222,2.222,0,0,0-.25-1,.5.5,0,0,1,.25-.376,2.05,2.05,0,0,1,1.252-.282,4.659,4.659,0,0,1,1.409.282q.564.313.564.5a5.186,5.186,0,0,1-.157.971,11.6,11.6,0,0,0-.376,2.316,1.836,1.836,0,0,0,.345-.031,15.89,15.89,0,0,0,3.068-.407,5.22,5.22,0,0,1,1.252-.219q.564,0,1.252,2.379c-.042.25-.24.376-.594.376Zm-9.141,9.141a11.288,11.288,0,0,0,1.659-.187c.333-.042.678-.084,1.033-.126v-1.659q-.783.126-1.691.345-.345,0-.6-.626a2.881,2.881,0,0,1-.156-.909c0-.167.114-.25.344-.25q.533-.03,2.1-.219l.031-1.534q-1.1.158-2.348.313-1.284.251-1.284.6a21.609,21.609,0,0,0,.282,2.723C325.078,947.053,325.287,947.563,325.5,947.563Zm5.228-5.509c-.022.521-.032,1.044-.032,1.565q1.033-.156,2.286-.313.281,0,.281,1.22,0,.252-.657.408-1.1.219-1.973.376-.032.845-.031,1.628,1.69-.189,3.162-.251.343,0,.689-1.785a15.76,15.76,0,0,0,.313-2.848c0-.188-.262-.283-.783-.283A28.237,28.237,0,0,0,330.724,942.054Z" transform="translate(0 0)" fill="#000000"/><path d="M371.42,944.026q-2,0-8.421.469.939,1.065.939,1.441v.031a20.519,20.519,0,0,0,3.225,2.066q1.533.751,1.534,1.628a4.176,4.176,0,0,1-.313,1.158,9.78,9.78,0,0,0-1,1.535q-1.128,1.846-2,3.537-.063.093-2.348,3.255-.814,1.284-1.22,1.284-.314,0-1.1-.971a16.91,16.91,0,0,1-3.287-4.132c0-.27.2-.407.594-.407a9.954,9.954,0,0,0,2.536,1.378q1.158,0,2.943-2.975a8.875,8.875,0,0,0,1.534-3.662q0-.751-2.755-2.16a30.638,30.638,0,0,0-4.664,5.447,5.017,5.017,0,0,0-1.065,2.786,8.483,8.483,0,0,1-2.786,1.315,17.067,17.067,0,0,1-2.379.282q-1.126,0-1.127-.5,0-.377,1.5-1.409a27.107,27.107,0,0,0,5.947-5.729,14.491,14.491,0,0,0,2.567-4.915,44.27,44.27,0,0,0-8.358,1.66q-.406,0-.97-.909a5.683,5.683,0,0,1-.689-1.5q0-.343.783-.469a44.766,44.766,0,0,0,7.043-.971q3.318-.438,7.419-1.033a24.47,24.47,0,0,0,5.2-.689,7.155,7.155,0,0,1,2.1-.469q.782,0,1.784,3.412-.124.469-.876.469Zm-10.393-9.987q.438,0,.971.971a4.31,4.31,0,0,0,1,1.784,4.279,4.279,0,0,1,1.315,2.349.822.822,0,0,1-.344.751,2.686,2.686,0,0,1-1.158.251,3.5,3.5,0,0,1-2.067-.784q-.815-.594-.814-1.064a10.171,10.171,0,0,1,.5-3.443Q360.87,934.04,361.027,934.039Z" transform="translate(0 0)" fill="#000000"/><path d="M386.322,940.27a.253.253,0,0,1,.125.25.768.768,0,0,1-.125.344,10.593,10.593,0,0,0-.6,3.162.332.332,0,0,1-.376.375,3.805,3.805,0,0,1-1.722-.532q-.657-.438-.657-.72t2.88-2.567C386.061,940.374,386.217,940.27,386.322,940.27Zm13.4,8.8q.25.063.282.72a1.431,1.431,0,0,1-.626,1.127q-2.41.439-4.414.626a6.458,6.458,0,0,0-.063.971q-.063,2.1-.125,3.474a.2.2,0,0,0,.094-.093,11.159,11.159,0,0,0,2.5-3.82c.083-.333.25-.5.5-.5a3.322,3.322,0,0,1,1.127.345q.72.408.72.626c0,.125-.1.23-.313.313a6.3,6.3,0,0,0-.845.908q.407.219,1.064.657,1.221.627,1.221,1.284-.562,1.126-.845,1.127a1.34,1.34,0,0,1-1.127-.532q-.657-.659-1.252-1.19a4.951,4.951,0,0,1-1.5,1.315,8.514,8.514,0,0,1-1.346.532q-.032.408-.031.72,3.851-.282,6.918-.47a6.6,6.6,0,0,1,1.346-.125,9.657,9.657,0,0,0,.47,1.1,3.56,3.56,0,0,1,.532,1.534c-.063.292-.2.459-.407.5a6.1,6.1,0,0,1-1.1-.345,5.179,5.179,0,0,0-1.878-.407q-3.1,0-8.3.251a65,65,0,0,0-6.855.595q-.376,0-.783-1.847l.532-.126h.72q3.568-.25,6.668-.5v-6.1q-1.1.093-2.254.25c.25.25.376.438.376.563a.507.507,0,0,1-.282.47,2.552,2.552,0,0,0-.532.939q.438.188,1.283.595,1.284.563,1.284,1.158-.6,1.126-.908,1.127a1.456,1.456,0,0,1-1.127-.532q-.689-.564-1.346-1a13.323,13.323,0,0,1-1,1.346q-.846.907-1.377.908-1,0-1-.219a13.491,13.491,0,0,0,2.035-2.755,8.891,8.891,0,0,0,.97-2.348l-.5.063q-.219,0-.407-.846a6.336,6.336,0,0,1-.125-.751c0-.167.135-.251.407-.251a86.226,86.226,0,0,0,10.174-1.127C399.032,949.171,399.511,949.087,399.72,949.066Zm-14.243-3.538h.469a17.52,17.52,0,0,1,2.692-.5q.689-.093.72-.093a1.2,1.2,0,0,1,.751.438c.105.147.188.272.251.376a.912.912,0,0,1-.031-.22c0-.312.094-.469.281-.469h.5a24.258,24.258,0,0,1,2.755-.533q.72-.125.752-.125a1.485,1.485,0,0,1,.907.5l.063.063c.02-.292.1-.439.25-.439h.533a22.483,22.483,0,0,1,3.067-.5q.783-.095.814-.094a2.008,2.008,0,0,1,1.1.438,1.17,1.17,0,0,1,.532.815c0,.062-.083.167-.25.312a11.3,11.3,0,0,0-1.033,2.442c-.125.355-.241.553-.345.6a1.233,1.233,0,0,1-.657-.251,15.916,15.916,0,0,0-2.16.439,1.232,1.232,0,0,1-.344.093q-.408-.03-1-1.815-.187-.564-.313-.971a12.774,12.774,0,0,0-.752,2.285q-.156.564-.281.626a.829.829,0,0,1-.533-.25,9.056,9.056,0,0,0-2.16.5.968.968,0,0,1-.344.125q-.375-.03-.908-1.815-.219-.751-.375-1.221a.5.5,0,0,1-.126.188,16.883,16.883,0,0,0-.594,2.285,1.25,1.25,0,0,1-.22.563.96.96,0,0,1-.406-.125,8,8,0,0,0-2.067.5.714.714,0,0,1-.281.094q-.44-.03-1.034-1.784a7.933,7.933,0,0,1-.469-1.941C385.226,945.706,385.309,945.528,385.477,945.528Zm1.627,3.006a8.8,8.8,0,0,0,1.5-.376c.041-.02.083-.125.125-.313a6.979,6.979,0,0,0,.094-1.158c0-.417-.074-.626-.219-.626a4.331,4.331,0,0,0-1,.157q-.752.25-.751.469Q386.886,948.535,387.1,948.534Zm11.239-14.776q.375.093.407.877a1.726,1.726,0,0,1-.751,1.377q-1.535.407-2.88.626a1.54,1.54,0,0,0-.345.72c-.042.292-.084.575-.125.845a31.647,31.647,0,0,1,4.821-.438q3.945,0,5.259,2.1a9.417,9.417,0,0,1,.908,2.911c0,.356-.219.533-.658.533a3.982,3.982,0,0,1-.688-.125,7.819,7.819,0,0,0-1.315-.219,7.569,7.569,0,0,1-2.223-.532q0-.283.407-.595a2.151,2.151,0,0,0,1.315-1.91q0-.625-3-.626c-.355,0-.731.011-1.127.031a1.47,1.47,0,0,1-.282.532,10.741,10.741,0,0,0-.188,1.534q0,.533.6.533a1.329,1.329,0,0,0,.782-.345.677.677,0,0,1,.47-.281,1.06,1.06,0,0,1,.564.25q.469.47.469.751a.722.722,0,0,1-.469.689,5.058,5.058,0,0,1-2.348.438,1.687,1.687,0,0,1-1.346-.626,2.658,2.658,0,0,1-.344-1.5q0-.6.062-1.347a3.292,3.292,0,0,0,.031-.47q-.939.095-1.941.251a17.54,17.54,0,0,0-.188,2.034c0,.4.011.742.032,1.034a8.087,8.087,0,0,1,.094,1.127q-.063.219-.845.219-1.252,0-1.378-.469a.508.508,0,0,1,.188-.408,2.928,2.928,0,0,0,.063-.626v-2.567q-1.033.189-1.785.345v.345a15.229,15.229,0,0,0-.125,1.659.76.76,0,0,0,.188.375.654.654,0,0,1,.094.344c0,.25-.335.512-1,.783a5.437,5.437,0,0,1-2.035.752c-.167,0-.25-.052-.25-.158a2.508,2.508,0,0,1,.563-.751,5.275,5.275,0,0,0,1.033-1.628,8.338,8.338,0,0,0,.25-1.376,5.394,5.394,0,0,0-.751.281q-.469.47-.563.469-.376,0-.689-.594a2.213,2.213,0,0,1-.188-.782c0-.314.365-.543,1.1-.69q2.223-.531,4.164-.876v-1.565q-1.191.188-2.5.5-.345,0-.564-1.19a6.348,6.348,0,0,1-.218-1.033c0-.354.218-.532.657-.532a59.269,59.269,0,0,0,7.576-.783Q398.123,933.79,398.343,933.758Zm-6.23,14.181a11.312,11.312,0,0,0,1.5-.251c.062-.02.1-.135.125-.343a5.359,5.359,0,0,0,.125-1.159c0-.438-.125-.658-.375-.658a2.476,2.476,0,0,0-.845.189q-.659.25-.658.469Q391.988,947.94,392.113,947.939Zm5.385-.626q.282,0,1.5-.157c.125-.02.219-.125.282-.312a3.749,3.749,0,0,0,.188-1.19c0-.4-.115-.6-.345-.6a5.144,5.144,0,0,0-1.064.157c-.543.167-.814.312-.814.438Q397.278,947.315,397.5,947.313Z" transform="translate(0 0)" fill="#000000"/><path d="M418,935.417c.271.021.522.053.752.094a4.237,4.237,0,0,1,.751-.376,46.706,46.706,0,0,1,5.573-.751q2.535-.219,4.351-.219a8.672,8.672,0,0,1,3.82.626q.813.5.813.876c0,.063-.052.146-.156.251a2.664,2.664,0,0,0-.564,1.377q-.939,4.322-1.753,5.385a13.273,13.273,0,0,0-.751,1.69c-.084.334-.23.523-.439.564v.125a2.293,2.293,0,0,0-.688,1.253l1.189-.251a18.139,18.139,0,0,1,1.91-.407q.438.094,1,2.159-.063.252-.658.345-2.1.313-3.944.564-.376,1.941-.5,2.911,3.13-.312,5.791-.626a5.359,5.359,0,0,1,1.566-.219,8.16,8.16,0,0,0,.532,1.252,5.671,5.671,0,0,1,.564,1.753c-.063.313-.178.491-.345.532a7.308,7.308,0,0,1-1.252-.344,6.256,6.256,0,0,0-2.129-.438q-3.6,0-9.673.563-.783.063-1.5.125,1.846.564,1.91,1.346a15.381,15.381,0,0,1-2.411,2.223,4.752,4.752,0,0,0-1.033,1.378,3.878,3.878,0,0,1-2.285.782q-1.347.126-2.285.126c-.522,0-.783-.126-.783-.376a11.475,11.475,0,0,0,4.508-2.817,3.642,3.642,0,0,0,1.252-2.192.784.784,0,0,1,.063-.345,37.106,37.106,0,0,0-5.447.971q-.408,0-.846-2.254l.595-.125h.908q2.693-.282,5.2-.563a29.227,29.227,0,0,1-.47-2.944q-2.254.159-3.349.345-.282,0-.47-1.1a8.265,8.265,0,0,1-.188-.877.389.389,0,0,1,.407-.375q1.753-.03,3.381-.125-.063-.846-.157-1.785,0-.468.783-.469,1.846,0,1.847.6a6.619,6.619,0,0,1,.094,1.252.588.588,0,0,0,.031.188q1.91-.158,3.632-.376.063-.939.156-1.909,0-.533.877-.533a5.255,5.255,0,0,1,.845.063,7.969,7.969,0,0,0-1.189-.6l-.126-.062a.692.692,0,0,1-.282.125,22.6,22.6,0,0,0-5.791.845,2.376,2.376,0,0,1-.877.282.463.463,0,0,1-.406-.313,1.35,1.35,0,0,0-.533-.6,9.759,9.759,0,0,1-1.565-3.381,17.576,17.576,0,0,1-.845-3.976Q417.6,935.418,418,935.417Zm5.886,6.7q-.031-.719-.063-1.815a12.563,12.563,0,0,0-2.034.376q-.564,0-.658-1.253,0-.626.783-.876,1.032-.189,1.878-.314c0-.626-.011-1.3-.031-2.035a23.09,23.09,0,0,0-3.976,1.253,2.856,2.856,0,0,0-.031.406,9.415,9.415,0,0,0,.626,3.726q.406.971,1.033.971a7.467,7.467,0,0,0,1.314-.219Q423.324,942.21,423.888,942.116Zm-.25,10.049q1.439-.154,2.817-.312a20.754,20.754,0,0,0,.47-2.849q-1.879.188-3.35.281Q423.607,951.2,423.638,952.165Zm4.383-9.642a.507.507,0,0,0,.156.032q.876,0,1.471-1.441a10.93,10.93,0,0,0,1.033-4.069q-.063-1.252-2.5-1.252-.783,0-1.784.094-.031.375-.032,1.033c-.021.312-.031.615-.031.907q1.846-.281,1.972-.312.594.093.595,1.377,0,.594-.845.783a16.173,16.173,0,0,0-1.754.25q0,1.253-.031,1.879c.292-.021.553-.033.783-.033A.858.858,0,0,1,428.021,942.523Zm-.5,11.8q1.565.534,2.879.877a23.7,23.7,0,0,1,3.163,1.346,1.938,1.938,0,0,1,.25.908q-.407,3.1-1.252,3.1a.794.794,0,0,1-.658-.469,34.456,34.456,0,0,0-4.6-5.51C427.3,954.409,427.373,954.325,427.52,954.325Z" transform="translate(0 0)" fill="#000000"/><path d="M453.064,934.76a3.825,3.825,0,0,1,1.66.844q1.1.846,1.1,1.19,0,.282-.532.627a34.5,34.5,0,0,0-4.007,5.29,6.261,6.261,0,0,0-.908,1.378l.627.25q1.564.814,1.721,1.315a77.622,77.622,0,0,0-1.283,10.424l.25,2q0,.5-1.252.5-1.19,0-1.252-.376.876-2.785.876-9.673a6.113,6.113,0,0,0-.407-2.191,3,3,0,0,1-.782.845,7.468,7.468,0,0,1-2.567,1.565,12.48,12.48,0,0,0-2.1.783c-.188,0-.282-.073-.282-.22q0-.344.752-1.158a62.892,62.892,0,0,0,4.758-6.229,39.327,39.327,0,0,0,3.256-6.512Q452.845,934.76,453.064,934.76Zm14.526,12.553q-1.189,0-4.79.188c.209.187.314.334.314.438a4.726,4.726,0,0,0-1.659,1.91,29.89,29.89,0,0,1-2.1,2.973c0,.251.073.376.219.376a9.937,9.937,0,0,0,2.755-.657,4.3,4.3,0,0,1,2.755-1.847,2.972,2.972,0,0,1,2.6,1.66,7.639,7.639,0,0,1,1.189,3.724c-.042.314-.251.47-.626.47a6.407,6.407,0,0,1-2.349-.751q-1.471-.626-1.533-1a3.749,3.749,0,0,1,.814-.25q1.69-.438,1.69-.877,0-1.846-1.252-1.973a2.041,2.041,0,0,0-1.346.533q-.783.69-.783,1.1a3.73,3.73,0,0,0,.219,1.127c-.02.231-.177.387-.469.47a14.945,14.945,0,0,0-3.538.689,29.05,29.05,0,0,0-3.068,1.033,1.118,1.118,0,0,1-.688.313q-.252,0-.971-2.755a.767.767,0,0,1,.47-.751,3.763,3.763,0,0,0,1.847-1.816q1.5-2.6,2.16-3.913a37.291,37.291,0,0,0-4.477.688c-.188,0-.438-.228-.751-.688a5.463,5.463,0,0,1-.5-1.158q0-.282.469-.376a35.482,35.482,0,0,0,4.727-.564q2.192-.249,4.915-.563a18.926,18.926,0,0,0,3.476-.375,5.427,5.427,0,0,1,1.439-.283q.5,0,1.253,2.63c-.042.272-.251.407-.626.407Zm-.72-8.671q.282,0,.5,1.5c0,.626-.167,1.011-.5,1.158a47.075,47.075,0,0,1-6.136,1.345,2.254,2.254,0,0,1-.563-.093h-.752a11.232,11.232,0,0,0-1.346.218,5.282,5.282,0,0,1-1.346.376c-.187,0-.313-.25-.375-.751a4.5,4.5,0,0,0-.251-1.158,1.693,1.693,0,0,1-.282-.845.488.488,0,0,1,.282-.47l3.318.094a20.581,20.581,0,0,0,5.542-.939A11.143,11.143,0,0,1,466.87,938.642Z" transform="translate(0 0)" fill="#000000"/><path d="M534.564,944.809q-2.91,2.91-8.295,2.911a36.594,36.594,0,0,1-5.98-.782,33.041,33.041,0,0,0-4.633-.626,12.3,12.3,0,0,0-6.355,1.5l-1.408-.719a11.074,11.074,0,0,1,7.763-2.818,29.625,29.625,0,0,1,5.479.658,40.978,40.978,0,0,0,5.572.752,12.031,12.031,0,0,0,6.512-1.566Z" transform="translate(0 0)" fill="#000000"/><path d="M571.014,957.581l-2.6-.094q-.844-.03-2.159-.031-1.974,0-5.51.125v-1.252L563,956.2c.6-.02.949-.251,1.033-.689a60.1,60.1,0,0,0,.219-7.138v-.751q-1.44-.061-4.6-.063-4.728,0-5.6.032l-.845.031v1q0,3.882.125,6.167a2.009,2.009,0,0,0,.282,1.127,12.287,12.287,0,0,0,3.1.407v1.252l-2.755-.094q-.908-.03-2.16-.031-1.1,0-2.223.031l-3.1.094v-1.252l1-.062,1.252-.063c.563-.02.9-.22,1-.595a25.862,25.862,0,0,0,.218-4.446l-.062-11.677a2.349,2.349,0,0,0-.094-.813.761.761,0,0,0-.532-.5q-.157-.032-2.786-.219V936.7l.813.031q2.5.094,4.57.1,2.161,0,4.853-.126v1.253q-2.755,0-3.13.438t-.376,6.135v1.222c.208.021.48.042.814.063q.815.03,4.977.031,3.57,0,4.32-.031c.167,0,.481-.021.94-.063l.031-.689v-.876q0-5.417-.407-5.824a8.713,8.713,0,0,0-3.13-.406V936.7l.907.031q2.692.094,4.352.1,2.692,0,5.009-.126v1.253q-.783.032-1.6.094a3.1,3.1,0,0,0-1.565.344q-.25.252-.344,4.257l-.063,6.261a47.049,47.049,0,0,0,.25,6.606.7.7,0,0,0,.47.563q.125.033,2.849.251Z" transform="translate(0 0)" fill="#000000"/><path d="M581.157,957.55l-.657-.031-3.726-.063q.125,0-1.753.031l-2.692.063V956.3q1.064-.031,2.41-.094a.665.665,0,0,0,.564-.563,30.644,30.644,0,0,0,.187-4.54q0-.813-.062-2.5-.031-.876-.032-1.816a1.536,1.536,0,0,0-.218-1,1.811,1.811,0,0,0-1.033-.219c-.857-.021-1.461-.041-1.816-.063V944.37a17.76,17.76,0,0,0,5.572-1.283l.376.312q-.126,1.755-.157,3.445-.063,2.973-.062,4.851,0,4.008.313,4.289a14.725,14.725,0,0,0,2.786.314ZM578.809,938.3a2.381,2.381,0,0,1-.595,1.659,1.988,1.988,0,0,1-3.036-.031,2.43,2.43,0,0,1,0-3.256,1.9,1.9,0,0,1,1.5-.689,1.933,1.933,0,0,1,1.533.689A2.339,2.339,0,0,1,578.809,938.3Z" transform="translate(0 0)" fill="#000000"/><path d="M599.784,944.433a11.27,11.27,0,0,0-.751,1.158,2.983,2.983,0,0,0-.282.532h-2.63a4.149,4.149,0,0,1,.22,1.253,3.479,3.479,0,0,1-1.848,3.318,11.327,11.327,0,0,1-5.009.845q-.625,0-1.283-.062-1.126.594-1.127,1.127,0,.813,1.816.783l2.848-.033h.595c.293.022.543.033.752.033h1.6a4.288,4.288,0,0,1,3.193,1.032,3.926,3.926,0,0,1,1,2.85,4.259,4.259,0,0,1-2.566,4.163,15.964,15.964,0,0,1-6.668,1.064q-7.109,0-7.107-3.882a2.755,2.755,0,0,1,.532-1.784,4.092,4.092,0,0,1,1.315-.939l1.534-.845q-2.1-.158-2.1-1.284a1.718,1.718,0,0,1,1-1.471q.5-.25,1.315-.721a4.367,4.367,0,0,0,.5-.312,4.282,4.282,0,0,1-2.1-.752,3.009,3.009,0,0,1-1.314-2.535,4.078,4.078,0,0,1,1.909-3.632,9.073,9.073,0,0,1,5.135-1.252,8.3,8.3,0,0,1,4.726,1.189h2.129q1.1,0,2.348-.125Zm-3.318,13.9q0-2.128-1.158-2.723a6.7,6.7,0,0,0-2.568-.438l-1.628-.031h-3.443a5.41,5.41,0,0,0-1.878,1.064,2.817,2.817,0,0,0-.658,1.972q0,2.848,5.01,2.848Q596.464,961.024,596.466,958.332ZM593.555,947.6a2.914,2.914,0,0,0-.877-2.379,4.421,4.421,0,0,0-2.818-.69,4.274,4.274,0,0,0-2.817.815,2.523,2.523,0,0,0-.939,2.035v.219q0,2.6,3.85,2.6a4.379,4.379,0,0,0,2.567-.72A2.1,2.1,0,0,0,593.555,947.6Z" transform="translate(0 0)" fill="#000000"/><path d="M619.192,957.55q-1.5-.094-3.162-.094-1.283,0-2.535.094l-.187-.25a50.917,50.917,0,0,0,.312-5.73,17.137,17.137,0,0,0-.344-4.32,1.9,1.9,0,0,0-1.159-1.064,4.272,4.272,0,0,0-1.878-.438q-3.662,0-3.663,3.693,0,6.169.22,6.45t2.911.407v1.252q-1.408-.094-4.2-.094-2.566,0-4.6.094V956.3a7.733,7.733,0,0,0,2.755-.345,3.045,3.045,0,0,0,.251-1.659l.031-6.668q0-2.535-.094-7.889-.031-1.377-.282-1.6a7.847,7.847,0,0,0-2.661-.314v-1.064a14.247,14.247,0,0,0,5.322-1.252c.188-.041.292-.063.313-.063.146,0,.22.094.22.282v.125q-.033.124-.094,3.037-.064,2.474-.064,5.416v1.378l2.693-1.628.5-.408a3.755,3.755,0,0,1,2.347-.563q2.442,0,3.319,1.127a5.842,5.842,0,0,1,.908,3.694q0-.189-.031,1.878l-.032,3.381a17.913,17.913,0,0,0,.094,2.474.6.6,0,0,0,.439.5,18.488,18.488,0,0,0,2.347.157Z" transform="translate(0 0)" fill="#000000"/><path d="M629.086,957.55l-.783-.031-1.659-.032q-1.69-.03-1.785-.031-.344,0-2.034.031l-2.63.063V956.3q.751-.031,1.784-.063a1.886,1.886,0,0,0,.909-.188.729.729,0,0,0,.281-.564,38.822,38.822,0,0,0,.156-3.881q.031-3.381.031-3.851v-1.127c-.02-.521-.031-.9-.031-1.127v-5.979c0-.584-.011-.95-.031-1.1a.9.9,0,0,0-.657-.72q-.094,0-2.442-.062v-.877q1.126-.156,3.256-.533a6.647,6.647,0,0,0,1.127-.343q.876-.376,1.252-.533l.376.313-.031.689q-.1,2.16-.157,9.8l-.032,4.352a28.812,28.812,0,0,0,.22,5.353q.219.345,2.88.439Z" transform="translate(0 0)" fill="#000000"/><path d="M647.681,944.652a3.1,3.1,0,0,0-1.409.313,5.908,5.908,0,0,0-.751,1.315l-1.409,2.911-2.222,4.383-2,3.882a21.138,21.138,0,0,1-1.941,3.256,4.927,4.927,0,0,1-1.785,1.408,5.289,5.289,0,0,1-2.128.407,6.561,6.561,0,0,1-2.285-.469,17.164,17.164,0,0,0,.6-2.943l.406-.094a2.925,2.925,0,0,0,2.16.97,2.274,2.274,0,0,0,1.973-.97,6.894,6.894,0,0,0,1.189-2.285l-4.414-10.112q-.72-1.628-1.127-1.784-.126-.032-2.1-.188v-1.221l1,.032,1.565.031q1.6.031,2.1.031,1.283,0,3-.062l.877-.032v1.221a17.307,17.307,0,0,0-2,.157c-.418.084-.626.24-.626.469a4.429,4.429,0,0,0,.343,1.221l.533,1.283.658,1.628,2,4.383,1.784-3.506q1.941-3.851,1.941-5.04,0-.47-.782-.563-.6-.031-1.159-.032v-1.221q1.44.064,3.162.063,1.6,0,2.849-.063Z" transform="translate(0 0)" fill="#000000"/><path d="M680.9,957.456h-1.127q-2.692,0-3.6.063-.187,0-.876.062l-.532-.813q-.721-1.1-3.131-4.6-1.44-1.941-3.193-4.288a10.057,10.057,0,0,1-.689-.971,1.348,1.348,0,0,0,.219-.532,2.215,2.215,0,0,1,.345.031h.282q.188,0,.6-.031a5.689,5.689,0,0,0,1.69-.376,8.582,8.582,0,0,0,1.753-.845,3.591,3.591,0,0,0,1.628-3.006,3.154,3.154,0,0,0-1.753-2.879,7.945,7.945,0,0,0-3.977-.909q-1.253,0-2.535.126l-.031.845-.22,9.674q0,1.971.22,5.29c.02.313.052.657.094,1.033a.824.824,0,0,0,.156.5q.251.314,3.037.5v1.252q-.406-.03-1.064-.062-1.347-.063-1.159-.063h-.877l-4.069.031q-.376.032-1.722.063c-.209,0-.563.011-1.064.031v-1.252l.688-.062a11.568,11.568,0,0,0,1.722-.251.825.825,0,0,0,.657-.689q.095-.908.158-3.882.03-1.346.031-3.037v-.938l-.063-4.853q-.064-3.819-.407-4.226a7.787,7.787,0,0,0-2-.344q-.219-.032-.782-.094V936.7l1.127.063q1.69.095,3.036.094.564,0,2.912-.063l2.348-.063q1.19-.03,2.6-.031a9.122,9.122,0,0,1,4.226.721,3.966,3.966,0,0,1,2,3.662,4.85,4.85,0,0,1-2.035,4.07,11.4,11.4,0,0,1-3.537,1.659l4.664,6.637a9.988,9.988,0,0,0,2.16,2.6,6.573,6.573,0,0,0,2.1.282Z" transform="translate(0 0)" fill="#000000"/><path d="M695.39,948.847a10.711,10.711,0,0,1-.063,1.127l-1.878.5H691.79l-1.472.031-1-.031h-4.664a5.471,5.471,0,0,0,1.472,3.725,6.814,6.814,0,0,0,8.421.47l.47.407q-.189.345-.376.751l-.345.689a9.783,9.783,0,0,1-5.134,1.315,7.579,7.579,0,0,1-5.447-1.879,6.973,6.973,0,0,1-1.909-5.259,8.436,8.436,0,0,1,.938-4.289,4.076,4.076,0,0,1,1.316-1.283,16.059,16.059,0,0,1,2.973-1.6,6.375,6.375,0,0,1,2.443-.438,5.933,5.933,0,0,1,4.382,1.534A5.647,5.647,0,0,1,695.39,948.847Zm-2.849.062v-.72a3.289,3.289,0,0,0-1.127-2.629,4.172,4.172,0,0,0-2.755-.908q-3.788,0-4.1,4.257,1.564.126,4.1.126Q691.164,949.035,692.541,948.909Z" transform="translate(0 0)" fill="#000000"/><path d="M708.508,953.229a3.851,3.851,0,0,1-1.91,3.163,8.454,8.454,0,0,1-5.009,1.44,16.116,16.116,0,0,1-4.57-.783l-.22-.25a22.949,22.949,0,0,0,.22-3.35v-.72h1.345a5.1,5.1,0,0,0,.376,2.379,4.3,4.3,0,0,0,3.319,1.284,4.627,4.627,0,0,0,2.41-.564,1.769,1.769,0,0,0,.939-1.6,2.369,2.369,0,0,0-.688-1.846,6.644,6.644,0,0,0-2.5-1q-2.318-.564-2.567-.657a4.748,4.748,0,0,1-1.44-.6,2.786,2.786,0,0,1-1.346-2.349,4.081,4.081,0,0,1,1.691-3.474,7.745,7.745,0,0,1,4.664-1.221,12.272,12.272,0,0,1,4.351.72,25,25,0,0,0-.313,3.037l-.031.719h-1.19a4.135,4.135,0,0,0-.72-2.441,3.372,3.372,0,0,0-2.378-.6,3.982,3.982,0,0,0-2.192.564,1.6,1.6,0,0,0-.877,1.409,2.058,2.058,0,0,0,.908,1.941,9.821,9.821,0,0,0,3.162.845q.657.126,1.1.188Q708.509,950.13,708.508,953.229Z" transform="translate(0 0)" fill="#000000"/><path d="M726.7,948.252a5.794,5.794,0,0,1-.688,2.943,9.015,9.015,0,0,1-1.942,2.034l-.626.5-.782.6-.532.376-.657.47a4.9,4.9,0,0,1-3.006,1.064,7.849,7.849,0,0,1-3.412-.626q0,5.008.376,5.353a8.642,8.642,0,0,0,2.973.313V962.5q-1.471-.093-5.6-.094-2.1,0-3.475.094v-1.221q.72-.031,1.753-.062a3.166,3.166,0,0,0,.845-.126q.219-.094.282-.626.124-.939.188-2.285.03-1.314.031-4.226l-.031-6.637a4.12,4.12,0,0,0-.063-.876,1.059,1.059,0,0,0-.282-.751,1.046,1.046,0,0,0-.469-.158q-.282-.03-2.254-.031V944.37a23.088,23.088,0,0,0,5.353-1.221,1.214,1.214,0,0,1,.22-.062c.166,0,.25.125.25.376q0,.438-.032.845c-.02.271-.042.522-.062.751v.6l3.162-1.879a4.331,4.331,0,0,1,2.66-.626Q726.7,943.149,726.7,948.252Zm-2.755,1.565q0-2.973-1.628-3.725a8.81,8.81,0,0,0-3.38-.406,5.665,5.665,0,0,0-3.882,1.47V952.7a4.815,4.815,0,0,0,3.913,1.691,5.6,5.6,0,0,0,3.381-.939A4.236,4.236,0,0,0,723.94,949.817Z" transform="translate(0 0)" fill="#000000"/><path d="M743.131,950.1a7.741,7.741,0,0,1-2.067,5.728,7.858,7.858,0,0,1-5.759,2q-7.452,0-7.451-7.451,0-7.293,7.763-7.294,3.852,0,5.7,1.722Q743.131,946.5,743.131,950.1Zm-3.1,1.22q0-6.792-4.664-6.794a4.048,4.048,0,0,0-2.974,1.222,5.185,5.185,0,0,0-1.346,3.788,8.726,8.726,0,0,0,1.252,5.1,4,4,0,0,0,3.443,1.753,3.915,3.915,0,0,0,3.037-1.41A5.236,5.236,0,0,0,740.031,951.32Z" transform="translate(0 0)" fill="#000000"/><path d="M762.478,957.55l-.846-.031-2.16-.063c-.063,0-.324.011-.783.031q-.657.032-1,.032c-.356,0-.668.01-.94.031l-.187-.219a37.965,37.965,0,0,0,.407-5.761,19.652,19.652,0,0,0-.282-4.194,1.858,1.858,0,0,0-1.159-1.158,4.278,4.278,0,0,0-1.941-.47,4.561,4.561,0,0,0-2.535.751,2.023,2.023,0,0,0-1.127,1.753,4.3,4.3,0,0,0,.031.626v3.256q0,3.6.25,3.819a8.853,8.853,0,0,0,2.786.345v1.252l-1.1-.094h-5.009l-2.535.094V956.3a9.069,9.069,0,0,0,2.6-.282q.221-.156.251-1.5l.063-4.54a20.818,20.818,0,0,0-.188-4.257,1.479,1.479,0,0,0-.939-.189c-.857,0-1.451-.009-1.784-.031V944.37a15.777,15.777,0,0,0,5.165-1.221l.251-.062c.145,0,.218.115.218.344v.344a1.763,1.763,0,0,0-.031.345l-.031.939v.627l3.067-1.911a4.3,4.3,0,0,1,2.63-.688,3.84,3.84,0,0,1,3.037,1.283,5.465,5.465,0,0,1,1.065,3.757q0,.032-.032,1.377l-.063,3.788a12.561,12.561,0,0,0,.126,2.349c.062.292.292.459.688.5.355.043,1.034.094,2.036.157Z" transform="translate(0 0)" fill="#000000"/><path d="M775.188,953.229a3.85,3.85,0,0,1-1.911,3.163,8.448,8.448,0,0,1-5.008,1.44,16.128,16.128,0,0,1-4.571-.783l-.219-.25a22.959,22.959,0,0,0,.219-3.35v-.72h1.346a5.1,5.1,0,0,0,.376,2.379,4.3,4.3,0,0,0,3.318,1.284,4.625,4.625,0,0,0,2.41-.564,1.77,1.77,0,0,0,.94-1.6,2.37,2.37,0,0,0-.689-1.846,6.645,6.645,0,0,0-2.5-1q-2.317-.564-2.567-.657a4.748,4.748,0,0,1-1.44-.6,2.784,2.784,0,0,1-1.346-2.349,4.081,4.081,0,0,1,1.69-3.474,7.749,7.749,0,0,1,4.664-1.221,12.277,12.277,0,0,1,4.352.72,25,25,0,0,0-.313,3.037l-.032.719h-1.189a4.142,4.142,0,0,0-.72-2.441,3.375,3.375,0,0,0-2.379-.6,3.978,3.978,0,0,0-2.191.564,1.6,1.6,0,0,0-.877,1.409,2.058,2.058,0,0,0,.908,1.941,9.813,9.813,0,0,0,3.161.845q.659.126,1.1.188Q775.188,950.13,775.188,953.229Z" transform="translate(0 0)" fill="#000000"/><path d="M785.487,957.55l-.657-.031-3.726-.063q.126,0-1.752.031l-2.693.063V956.3q1.064-.031,2.41-.094a.665.665,0,0,0,.564-.563,30.644,30.644,0,0,0,.187-4.54q0-.813-.062-2.5-.032-.876-.031-1.816a1.535,1.535,0,0,0-.219-1,1.811,1.811,0,0,0-1.033-.219c-.857-.021-1.461-.041-1.816-.063V944.37a17.754,17.754,0,0,0,5.572-1.283l.376.312q-.126,1.755-.157,3.445-.063,2.973-.062,4.851,0,4.008.313,4.289a14.725,14.725,0,0,0,2.786.314ZM783.139,938.3a2.381,2.381,0,0,1-.6,1.659,1.988,1.988,0,0,1-3.036-.031,2.43,2.43,0,0,1,0-3.256,1.9,1.9,0,0,1,1.5-.689,1.933,1.933,0,0,1,1.533.689A2.339,2.339,0,0,1,783.139,938.3Z" transform="translate(0 0)" fill="#000000"/><path d="M803.644,944.652q-1.44.031-1.753.5-.25.345-1.535,2.974-.594,1.158-1.5,3.225-.5,1-1.221,2.629l-1.566,3.569h-2.128l-.313-.845-1.064-2.63-2.286-5.447A19.505,19.505,0,0,0,788.555,945a6.045,6.045,0,0,0-2.192-.344v-1.221h.971q.719,0,2,.032c.855.02,1.378.031,1.565.031q1.785,0,2.818-.031l1.033-.032v1.221q-2.63.031-2.63.564a3.353,3.353,0,0,0,.251,1l.814,2.159,2.411,5.917,2.379-5.321a17.645,17.645,0,0,0,1.408-3.757.414.414,0,0,0-.313-.439,15.772,15.772,0,0,0-1.721-.125v-1.221q1.6.064,3.318.063,1.658,0,2.974-.063Z" transform="translate(0 0)" fill="#000000"/><path d="M818.42,948.847a10.711,10.711,0,0,1-.063,1.127l-1.878.5H814.82l-1.471.031-1-.031h-4.664a5.471,5.471,0,0,0,1.471,3.725,6.814,6.814,0,0,0,8.421.47l.47.407q-.189.345-.376.751c-.125.25-.24.481-.345.689a9.783,9.783,0,0,1-5.134,1.315,7.581,7.581,0,0,1-5.447-1.879,6.977,6.977,0,0,1-1.909-5.259,8.436,8.436,0,0,1,.938-4.289,4.076,4.076,0,0,1,1.316-1.283,16.061,16.061,0,0,1,2.974-1.6,6.37,6.37,0,0,1,2.442-.438,5.937,5.937,0,0,1,4.383,1.534A5.65,5.65,0,0,1,818.42,948.847Zm-2.849.062v-.72a3.289,3.289,0,0,0-1.127-2.629,4.172,4.172,0,0,0-2.755-.908q-3.788,0-4.1,4.257,1.564.126,4.1.126Q814.194,949.035,815.571,948.909Z" transform="translate(0 0)" fill="#000000"/><path d="M840.615,944.339a5.384,5.384,0,0,1-.125.532q-.156.564-.344,1.441h-.626c-.272,0-.647-.021-1.127-.063-.481-.02-.845-.031-1.1-.031a14.946,14.946,0,0,0-1.722.094v1.565c-.02.437-.031.782-.031,1.032a51.454,51.454,0,0,0,.156,5.229q.189,1.345,2.16,1.345a7.252,7.252,0,0,0,1.722-.437l.251.595q-.845.908-1.848,2.034a14.3,14.3,0,0,1-1.909.157,3.534,3.534,0,0,1-2.347-.908,3.434,3.434,0,0,1-.909-2.63q0-.282.063-2.6l.062-2.316q.031-1.158.032-2.567v-.5l-.658-.032-2.066.032v-.721l2.724-1.252v-.908l-.063-1.5q-.03-.783-.031-1.409v-.408c-.021-.208-.031-.385-.031-.531a4.7,4.7,0,0,0,1.377-.627,10.631,10.631,0,0,1,1.346-.751l.439.314q-.314,2.442-.439,5.822.939.093,1.91.094c.1,0,.261-.01.469-.032.23-.02.4-.031.5-.031q.471-.03,1.253-.031Z" transform="translate(0 0)" fill="#000000"/><path d="M857.051,950.1a7.741,7.741,0,0,1-2.067,5.728,7.858,7.858,0,0,1-5.759,2q-7.452,0-7.452-7.451,0-7.293,7.764-7.294,3.851,0,5.7,1.722Q857.051,946.5,857.051,950.1Zm-3.1,1.22q0-6.792-4.664-6.794a4.052,4.052,0,0,0-2.975,1.222,5.188,5.188,0,0,0-1.345,3.788,8.726,8.726,0,0,0,1.252,5.1,4,4,0,0,0,3.443,1.753,3.915,3.915,0,0,0,3.037-1.41A5.236,5.236,0,0,0,853.951,951.32Z" transform="translate(0 0)" fill="#000000"/><path d="M886.571,941.271a6.046,6.046,0,0,1-2.066,4.665,7.585,7.585,0,0,1-5.2,1.815,8.451,8.451,0,0,1-1.878-.219,6.922,6.922,0,0,0-.533-1.033l.344-.345a8.1,8.1,0,0,0,1.158.126,5.663,5.663,0,0,0,3.632-1.1,3.462,3.462,0,0,0,1.252-2.818q0-2.692-1.69-3.569a8.654,8.654,0,0,0-3.663-.532,14.5,14.5,0,0,0-2.535.187l-.063.94q0,.031-.094,4.476-.032,1.536-.031,2.349,0,1.908.094,5.541l.062,2.629a3.593,3.593,0,0,0,.157,1.378q.156.28.783.375a12.283,12.283,0,0,0,1.69.094c.208.021.564.052,1.065.094v1.252q-2.442-.125-4.665-.125-1.473,0-2.568.031l-3.13.094v-1.252l1-.094a3.574,3.574,0,0,0,1.6-.376,1.755,1.755,0,0,0,.6-1.5l.093-3q.032-1,.032-3.664,0-6.76-.22-8.8-.063-.659-2.191-.845c-.167-.021-.469-.052-.908-.094V936.7l2.63.094c.564.021,1.116.032,1.659.032q1.785,0,3.537-.063l1.722-.063q.876-.03,1.441-.031a10.311,10.311,0,0,1,5.008.908A4.018,4.018,0,0,1,886.571,941.271Z" transform="translate(0 0)" fill="#000000"/><path d="M899.626,943.274a3.042,3.042,0,0,1-.094.658c0,.376-.011.8-.031,1.284l-.094,2.129-.689.187a2.082,2.082,0,0,0-1.909-1.033q-3.13,0-3.194,2.942l-.031,1.848.031,3.067a3.9,3.9,0,0,0,.156,1.41.956.956,0,0,0,.721.375,22.842,22.842,0,0,0,2.5.157v1.252l-.876-.031-1.754-.032q-1.784-.03-2.1-.031-.126,0-1.786.031l-2.6.063V956.3l1.659-.031q1.063-.032,1.189-.784a48.889,48.889,0,0,0,.157-5.165q0-4.2-.25-4.507a9.3,9.3,0,0,0-2.755-.314V944.37l.782-.094a16.524,16.524,0,0,0,4.477-1.127.5.5,0,0,1,.219-.062q.219,0,.219.407c0,.23-.011.6-.031,1.1-.022.479-.032.845-.032,1.1v1.032q.72-.625,2-1.847l.407-.47a3.978,3.978,0,0,1,1.189-1.033,3.2,3.2,0,0,1,1.472-.281A3.1,3.1,0,0,1,899.626,943.274Z" transform="translate(0 0)" fill="#000000"/><path d="M914.934,957.55l-1.66-.063q-.908-.03-1.345-.031-.471,0-1.6.094l-.156-.188.031-.626q0-.219.125-1.378l-4.57,2.317a8.921,8.921,0,0,1-1.534.157q-3.476,0-3.475-3.663a3.694,3.694,0,0,1,2.5-3.819,71.836,71.836,0,0,1,7.075-1.41,3.7,3.7,0,0,0-.688-2.848,4.332,4.332,0,0,0-2.474-.845,6.638,6.638,0,0,0-3.224.564l-.658,1.5-1.1-.282v-.187a3.317,3.317,0,0,0,.032-.47v-.188a3.292,3.292,0,0,1-.032-.469v-.6l.659-.376a24.453,24.453,0,0,1,2.347-1.221,7.206,7.206,0,0,1,2.567-.438,5.947,5.947,0,0,1,4.039,1.189,4.414,4.414,0,0,1,1.189,3.444q0,.783-.031,1.69l-.063,1.753c-.021.607-.031,1.347-.031,2.224a14.9,14.9,0,0,0,.094,2.222.608.608,0,0,0,.47.5,2.183,2.183,0,0,0,.594.126q.282,0,.908.063Zm-4.6-3.726v-3.6q-2.255.406-5.322,1.158a2.122,2.122,0,0,0-1.533,2.1q0,1.848,2,1.847a8.431,8.431,0,0,0,2.38-.532A12.4,12.4,0,0,0,910.332,953.824Z" transform="translate(0 0)" fill="#000000"/><path d="M932.621,944.652a3.1,3.1,0,0,0-1.408.313,5.935,5.935,0,0,0-.752,1.315l-1.408,2.911-2.223,4.383-2,3.882a21.152,21.152,0,0,1-1.94,3.256,4.936,4.936,0,0,1-1.785,1.408,5.289,5.289,0,0,1-2.128.407,6.552,6.552,0,0,1-2.285-.469,17.262,17.262,0,0,0,.594-2.943l.406-.094a2.926,2.926,0,0,0,2.161.97,2.273,2.273,0,0,0,1.972-.97,6.9,6.9,0,0,0,1.19-2.285L918.6,946.624q-.721-1.628-1.127-1.784c-.084-.021-.782-.083-2.1-.188v-1.221l1,.032,1.565.031c1.065.021,1.763.031,2.1.031q1.284,0,3-.062l.877-.032v1.221a17.307,17.307,0,0,0-2,.157c-.418.084-.626.24-.626.469a4.406,4.406,0,0,0,.344,1.221l.532,1.283.658,1.628,2,4.383,1.784-3.506q1.941-3.851,1.942-5.04,0-.47-.782-.563c-.4-.021-.784-.032-1.16-.032v-1.221q1.44.064,3.162.063,1.6,0,2.849-.063Z" transform="translate(0 0)" fill="#000000"/><path d="M947.4,948.847a10.7,10.7,0,0,1-.062,1.127l-1.878.5H943.8l-1.472.031-1-.031H936.66a5.466,5.466,0,0,0,1.472,3.725,6.814,6.814,0,0,0,8.421.47l.469.407q-.189.345-.376.751l-.344.689a9.783,9.783,0,0,1-5.134,1.315,7.579,7.579,0,0,1-5.447-1.879,6.973,6.973,0,0,1-1.909-5.259,8.436,8.436,0,0,1,.938-4.289,4.072,4.072,0,0,1,1.315-1.283,16.093,16.093,0,0,1,2.974-1.6,6.37,6.37,0,0,1,2.442-.438,5.934,5.934,0,0,1,4.383,1.534A5.646,5.646,0,0,1,947.4,948.847Zm-2.848.062v-.72a3.289,3.289,0,0,0-1.127-2.629,4.176,4.176,0,0,0-2.755-.908q-3.788,0-4.1,4.257,1.564.126,4.1.126Q943.172,949.035,944.549,948.909Z" transform="translate(0 0)" fill="#000000"/><path d="M960.7,943.274a3.042,3.042,0,0,1-.094.658c0,.376-.01.8-.031,1.284l-.094,2.129-.689.187a2.082,2.082,0,0,0-1.909-1.033q-3.13,0-3.194,2.942l-.031,1.848.031,3.067a3.872,3.872,0,0,0,.157,1.41.952.952,0,0,0,.72.375,22.842,22.842,0,0,0,2.5.157v1.252l-.876-.031-1.754-.032q-1.784-.03-2.1-.031-.126,0-1.785.031l-2.6.063V956.3l1.659-.031q1.064-.032,1.19-.784a49.3,49.3,0,0,0,.156-5.165q0-4.2-.25-4.507a9.3,9.3,0,0,0-2.755-.314V944.37l.782-.094a16.524,16.524,0,0,0,4.477-1.127.5.5,0,0,1,.219-.062q.219,0,.219.407c0,.23-.011.6-.031,1.1-.022.479-.031.845-.031,1.1v1.032q.719-.625,2-1.847l.406-.47a3.978,3.978,0,0,1,1.189-1.033,3.2,3.2,0,0,1,1.472-.281A3.1,3.1,0,0,1,960.7,943.274Z" transform="translate(0 0)" fill="#000000"/><path d="M973.382,953.229a3.851,3.851,0,0,1-1.91,3.163,8.454,8.454,0,0,1-5.009,1.44,16.116,16.116,0,0,1-4.57-.783l-.22-.25a22.949,22.949,0,0,0,.22-3.35v-.72h1.345a5.1,5.1,0,0,0,.376,2.379,4.3,4.3,0,0,0,3.319,1.284,4.627,4.627,0,0,0,2.41-.564,1.769,1.769,0,0,0,.939-1.6,2.369,2.369,0,0,0-.688-1.846,6.644,6.644,0,0,0-2.5-1q-2.318-.564-2.567-.657a4.759,4.759,0,0,1-1.44-.6,2.786,2.786,0,0,1-1.346-2.349,4.081,4.081,0,0,1,1.691-3.474,7.745,7.745,0,0,1,4.664-1.221,12.272,12.272,0,0,1,4.351.72,25,25,0,0,0-.313,3.037l-.031.719h-1.19a4.135,4.135,0,0,0-.72-2.441,3.372,3.372,0,0,0-2.378-.6,3.982,3.982,0,0,0-2.192.564,1.6,1.6,0,0,0-.877,1.409,2.058,2.058,0,0,0,.908,1.941,9.821,9.821,0,0,0,3.162.845q.657.126,1.095.188Q973.383,950.13,973.382,953.229Z" transform="translate(0 0)" fill="#000000"/></g></svg>
