<svg xmlns="http://www.w3.org/2000/svg" width="1000" height="988" viewBox="0 0 1000 988"><g id="Artboard"><rect id="Tint" width="1000" height="988" fill="#58595b"/></g><g id="Outline"><g id="Ghostly_Field_Club._ZUN_s_Music_Collection_Vol.2" data-name="Ghostly Field Club. ZUN’s Music Collection Vol.2"><path id="Ghostly" d="M549.663,678.067a15.029,15.029,0,0,0,2.868-.233c4.755-.814,7.059-2.948,8.146-5.136a11.493,11.493,0,0,0,3.118,3.126,13.4,13.4,0,0,0,14.91.758,8.666,8.666,0,0,0,3.445-3.443,8.694,8.694,0,0,0,.733,1.26c1.17,1.615,3.414,3.5,7.6,3.5.4,0,.815.01,1.237.02.5.011,1.017.022,1.544.022a16.871,16.871,0,0,0,5.488-.729,8.591,8.591,0,0,0,2.33-1.211,8.679,8.679,0,0,0,4.134,2.355,4,4,0,0,0,3.183-.5,3.953,3.953,0,0,0,.865-.781c-.016.079-.037.161-.051.238,0,.026-.009.052-.013.077a12.9,12.9,0,0,0-.222,2.619v.294a21.584,21.584,0,0,0,1.124,6.675,47.945,47.945,0,0,0,2.43,5.84c1.973,4.132,4.7,6.231,8.114,6.231,2.579,0,4.943-1.261,7.027-3.749a18.429,18.429,0,0,0,3.519-6.558,15.132,15.132,0,0,0,.784-5.153,40.225,40.225,0,0,0-1.052-7.767l-.216-1.035c-.286-1.372-.5-2.377-.594-2.92a45,45,0,0,0-2.48-8.149,24.486,24.486,0,0,0-1.431-3.363c-.647-1.259-2.116-4.117-5.155-4.117a4.366,4.366,0,0,0-1.715.351,6.083,6.083,0,0,0-3.95,5.977,14.516,14.516,0,0,0,.222,2.341c.016.1.03.19.042.274h-.192a4.17,4.17,0,0,1-.187-.915c-.156-1.448-.321-3.489-.489-6.046a3.942,3.942,0,0,0-5.409-3.455,14.035,14.035,0,0,0-.428-2.117c-1.165-4.11-4.084-6.467-8.012-6.467a4,4,0,0,0-3.949,4.637c.209,1.3.413,2.672.614,4.073a23.411,23.411,0,0,0-2.467-1.178l-.085-.033-.146-.055c-.293-.112-.731-.278-1.319-.473-.1-.51-.187-1.033-.276-1.546l-.058-.339a4,4,0,0,0-4.88-3.2c-1.436.346-3.605.87-4.62,2.9a3.97,3.97,0,0,0-.361,1.1l-.155.893c-.6.086-1.662.222-3.195.368a3.854,3.854,0,0,0-3.3,2.448,9.312,9.312,0,0,0-2.981-2.853,11.517,11.517,0,0,0-6.192-1.973,16.494,16.494,0,0,0-7.461,2.079,12.031,12.031,0,0,0-4.542,3.717,13.524,13.524,0,0,0-8.092-2.594,12.96,12.96,0,0,0-7.316,2.188c-3.346,2.184-4.927,4.57-5.613,6.675-.233-.331-.449-.678-.692-1-.045-.059-.091-.118-.139-.174-.073-.1-.27-.36-.554-.773q-.072-.106-.153-.207a5.547,5.547,0,0,0-3.045-2.131l-.4-.208c-.672-.351-1.107-.575-1.493-.736a4,4,0,0,0-1.536-.306,4.125,4.125,0,0,0-.508.032v-.119a23.437,23.437,0,0,0-.649-6.119,10.965,10.965,0,0,0-4.238-6.117,4,4,0,0,0-6.315,3.262c0,.169-.016,1.074-.125,5.246v.053l-.024,1.768c-.006.493-.013.963-.019,1.428a39.763,39.763,0,0,0-4.5-.442c-2.035-.11-4.847-.163-9.02-.171.412-.537.886-1.149,1.43-1.845a12.7,12.7,0,0,1,2.519-2.353c.281-.2.526-.352.736-.473a4,4,0,0,0,7.024.83,9.435,9.435,0,0,0,1.971-5.305c0-3.06-2.252-6.148-7.285-6.148a14.394,14.394,0,0,0-7.831,2.265,30.213,30.213,0,0,0-8.84,8.85c-2.944,4.391-4.434,8.627-4.434,12.6a12.273,12.273,0,0,0,.175,2.1,12.011,12.011,0,0,0,5.779,9.008,17.649,17.649,0,0,0,9.211,2.206,35.08,35.08,0,0,0,9.674-1.466,9.094,9.094,0,0,0,4.141-2.414c.018.123.034.252.053.374a4,4,0,0,0,3.952,3.38,3.944,3.944,0,0,0,.573-.041h.153c.6.042,1.124.042,1.633.042a4,4,0,0,0,3.946-3.344,14.546,14.546,0,0,1,.384-1.8c.115-.373.426-1.252.765-2.191.739.931,1.489,1.849,2.219,2.741q.581.711,1.164,1.428l.065.078c2.058,2.411,4.05,3.781,6.091,4.19a3.987,3.987,0,0,0,4.686-3.06A17.876,17.876,0,0,0,549.663,678.067Zm-3.235-12.753a4,4,0,0,0,.5-.426,4.671,4.671,0,0,0,.789-1.057c.27.163.589.374.958.647a7.72,7.72,0,0,1,1.98,1.855,6.941,6.941,0,0,1,.6,1.377,8.635,8.635,0,0,1-2.019.208,6.22,6.22,0,0,1-3.1-.713,2.208,2.208,0,0,1-1-.971Zm-44.89,1.825a5.642,5.642,0,0,0,1.4.143c.292,0,.621-.019,1.13-.05.22-.013.439-.028.594-.033a4.047,4.047,0,0,1,1.141.717,10.157,10.157,0,0,1-2.738.34,8.54,8.54,0,0,1-4.75-1.194,2.779,2.779,0,0,1-1.4-2.643c0-.07,0-.141,0-.213a3.236,3.236,0,0,0,.286.426A6.762,6.762,0,0,0,501.538,667.139Zm120.084,16.829a9.317,9.317,0,0,1-.762,3.751c-.039.089-.078.17-.114.241a6.362,6.362,0,0,1-1.867-4.919c0-1.8.56-3.95,2.112-4.755A25.664,25.664,0,0,1,621.622,683.968Zm-22.909-20.421c.015.259.046.5.075.711v.435c-.013.421-.031.843-.049,1.263-.007.173-.013.352-.02.527-.335-.028-.707-.04-1.155-.04a10.866,10.866,0,0,0-2.746.47,24.766,24.766,0,0,1-2.689.612c0-.036,0-.075,0-.115a15.714,15.714,0,0,1,.209-2.151c.142-.961.26-1.778.329-2.446,1.01-.124,2.422-.253,3.519-.349a3.988,3.988,0,0,0,2.282-.974C598.55,662.173,598.633,662.849,598.713,663.547Zm-17.213-.536c-.145.766-.253,1.534-.327,2.3A10.766,10.766,0,0,0,579.6,663.7a17.3,17.3,0,0,0-2.771-1.8,5.223,5.223,0,0,0,.527-1.119A5.527,5.527,0,0,0,581.5,663.011Z" transform="translate(0 0)" fill="#fff"/><path id="Field" d="M743.586,675.609a9.213,9.213,0,0,0,6.537,4.033,4.1,4.1,0,0,0,.455.026,4,4,0,0,0,4-4c0-1.257-.274-3.227-2.309-8.311a7.88,7.88,0,0,1-.64-2.938,98.336,98.336,0,0,0-2.509-22.87,4,4,0,0,0-3.889-3.079,3.9,3.9,0,0,0-.4.02c-1.834.184-3.694.557-4.871,2.027a4.1,4.1,0,0,0-.312.45c-.581.972-.777,2.1-.777,4.452a16.023,16.023,0,0,0,1.039,5.4,18.7,18.7,0,0,1,.824,2.614,35.5,35.5,0,0,1,.306,3.646,8.474,8.474,0,0,0-4.825-1.381,15.686,15.686,0,0,0-8.744,2.864,23.619,23.619,0,0,0-.685-5.918c-1.165-4.11-4.084-6.467-8.012-6.467a4,4,0,0,0-3.949,4.637c.618,3.833,1.2,8.115,1.727,12.73.015.259.046.5.075.711v.435c-.014.421-.031.843-.049,1.263-.029.7-.054,1.432-.066,2.163-1.217-.016-2.686-.052-4.467-.111a6.15,6.15,0,0,0,1.292-3.715c0-2.672-1.677-4.845-4.985-6.46a13.922,13.922,0,0,0-5.967-1.542,32.6,32.6,0,0,0-10.465,1.643c-6.625,2.233-8.511,6-8.9,8.827l0,.026c-.263.122-.527.248-.795.377s-.6.287-.932.438c.191-.512.437-1.153.756-1.949a9.341,9.341,0,0,0,.8-4.677,3.993,3.993,0,0,0-.739-1.865c3.529-1.187,4.308-3.364,4.308-5.055a7.4,7.4,0,0,0-2.04-4.639,4,4,0,0,0-2.895-1.463c-.067,0-.135,0-.2,0a4.043,4.043,0,0,0-.516.051,8.789,8.789,0,0,0,3.67-3.576,4,4,0,0,0-2.869-5.906c-.844-.132-1.6-.231-2.2-.285-.5-.046-1.4-.1-2.8-.1-1.739,0-5.52.354-11.559,1.081a57.28,57.28,0,0,1-5.991.435l-.236-.011c-.329-.017-.854-.043-1.573-.07l-1.058-.042c-.637-.027-1.112-.046-1.449-.046A9.307,9.307,0,0,0,649,641.012c-1.352.98-2.942,2.954-2.942,6.808,0,1.658-.11,5.651-.293,10.682-.086,2.519-.129,4.733-.129,6.592a74.9,74.9,0,0,0,.453,9.3,4,4,0,0,0,4.869,3.4c4.86-1.123,5.88-4.16,5.88-6.51a12.621,12.621,0,0,0-.193-1.763l-.059-.406a13,13,0,0,1-.127-1.707q0-.073,0-.147c-.014-.4-.034-.8-.054-1.2-.036-.726-.07-1.412-.07-2.069v-.039a14.7,14.7,0,0,1,2.024-.132,43.008,43.008,0,0,1,5.52.51l.059.008a57.736,57.736,0,0,0,6.3.536,4,4,0,0,0,1.259-.225,11.741,11.741,0,0,0-1.173,4.946,8.045,8.045,0,0,0,.852,3.743c1.589,3.245,4.576,4.89,8.879,4.89a30.111,30.111,0,0,0,6.856-1.033,3.974,3.974,0,0,0,1.954-1.118,31.429,31.429,0,0,0,5.887,1.192l.054.006c1.06.122,3.24.448,5.764.825l.079.012a57.3,57.3,0,0,0,7.253.538c4.748,0,8.411-.834,11.151-2.531a8.714,8.714,0,0,0,4,2.229,3.945,3.945,0,0,0,4.59-2.1,10.063,10.063,0,0,0,4.9,1.225c2.256,0,4.91-.829,8.114-2.533.4-.208,1.124-.585,1.909-.986A13.312,13.312,0,0,0,743.586,675.609Zm-8.723-9.831c.048-.019.095-.038.142-.059.076.041.169.094.281.163q.212.134.418.259a11.458,11.458,0,0,1-2.332.9A3.254,3.254,0,0,1,734.863,665.778Zm-56.413-16.66c-.055.055-.117.112-.181.172a6.254,6.254,0,0,0-2.342,4.6,11.2,11.2,0,0,0,.228,2.33,3.992,3.992,0,0,0,.775,1.758,4.077,4.077,0,0,0-.582.394,16.72,16.72,0,0,0-2.13,2.091c-.021-.28-.023-.652-.023-1.054,0-.137,0-.254,0-.354a4,4,0,0,0-3.042-4.466,28.89,28.89,0,0,0-7.152-.739,48.578,48.578,0,0,0-7.156.537,36.156,36.156,0,0,1-.387-4.7,19.143,19.143,0,0,1,2.065-.267c1.624-.007,3.649-.111,6.022-.309,2.93-.244,4.454-.281,5.1-.281.364,0,1.176.02,2.521.15,1.267.123,2.376.187,3.209.187a13.436,13.436,0,0,0,3.532-.424A3.921,3.921,0,0,0,678.45,649.118Z" transform="translate(0 0)" fill="#fff"/><path id="Club." d="M776.268,674.611a21.759,21.759,0,0,0,12.565,3.961c.409,0,.84-.027,1.386-.061l.491-.03a4,4,0,0,0,2.981-1.613,3.875,3.875,0,0,0,.208-.358,8.906,8.906,0,0,0,3.6,1.845,3.941,3.941,0,0,0,4.546-2.018,9.837,9.837,0,0,0,5.45,1.6,9.034,9.034,0,0,0,1.585-.1,10.612,10.612,0,0,0,4.658-1.87q.909-.662,1.891-1.409a12.237,12.237,0,0,1,1.461.756,12.236,12.236,0,0,0,6.161,1.988,4,4,0,0,0,1.639-.352,35.881,35.881,0,0,0,9.483,1.194,23.28,23.28,0,0,0,8.846-1.436,10.088,10.088,0,0,0,3.614-2.365,3.947,3.947,0,0,0,1.172.5,19.987,19.987,0,0,0,3.557.4c6.107,0,6.107-5.9,6.107-7.834a4.986,4.986,0,0,0-6.761-4.306c-.14.06-.334.147-.548.263a15.094,15.094,0,0,0-2.246,1.339c-.009-.024-.019-.048-.029-.073-1.151-2.727-3.4-4.967-6.88-6.849a23.5,23.5,0,0,0-7.763-2.588c-.38-.06-.688-.12-.934-.176-.047-.369-.1-.845-.16-1.452a36.732,36.732,0,0,0-.437-6.045c-1.056-6.342-4.433-7.292-6.352-7.292-.188,0-.378.01-.57.029-.06.007-.121.014-.181.023a5.21,5.21,0,0,0-4.672,5.22,4.015,4.015,0,0,0,.09.847c.113.518.236,1.036.36,1.553.078.328.157.656.232.984.056,1.8.409,5.048,1.123,10.376a43.7,43.7,0,0,1,.469,5.536c0,.44-.015.853-.036,1.256a4.425,4.425,0,0,1-1.274-1.065,26.6,26.6,0,0,1-.87-3.379,31.461,31.461,0,0,0-.894-3.808,4,4,0,0,0-4.88-2.585c-4.865,1.372-5.014,7.766-5.062,9.867-.052,2.269-.684,2.437-1.118,2.522l-.053.009a11.283,11.283,0,0,1-.141-1.975c0-.37.024-.908.053-1.53l.027-.614c.017-.388.035-.715.049-.984.018-.342.03-.611.036-.816,0-.075.006-.15.006-.226a4,4,0,0,0-3.983-4h-.133a4.005,4.005,0,0,0-1.467.323c-.27.111-.516.252-.77.384a22.605,22.605,0,0,0-.674-5.532c-1.039-3.663-3.476-5.922-6.774-6.372q-.224-.273-.475-.525a9.009,9.009,0,0,0-5.407-2.489c-.067-.008-.134-.015-.2-.02l-.057-.008-.307-.047a4.081,4.081,0,0,0-.564-.04h-1.01a17.536,17.536,0,0,0-12.6,5.088,16.592,16.592,0,0,0-5.345,12.267,14.867,14.867,0,0,0,.236,2.875A17.04,17.04,0,0,0,776.268,674.611Zm14.725-11.064c.015.259.046.5.074.711v.435c-.013.421-.031.843-.048,1.263-.038.912-.078,1.855-.078,2.8v.014a12.7,12.7,0,0,0-2.238-1.214c-.112-.047-.227-.089-.344-.127l-5.5-1.75a5.041,5.041,0,0,1-2.66-1.641,8.818,8.818,0,0,1-1.4-4.509,5.773,5.773,0,0,1,.146-1.313,5.493,5.493,0,0,1,1.62-2.157,4,4,0,0,0,1.683,2.753,7.873,7.873,0,0,0,4.852,1.6,8.1,8.1,0,0,0,3.416-.773C790.682,660.917,790.84,662.214,790.993,663.547Zm43.887,5.172a8.359,8.359,0,0,1-1.906-.165,3.778,3.778,0,0,1-.035-.554c0-.063,0-.126,0-.19-.037-.787-.038-1.614-.038-2.414a12.094,12.094,0,0,1,3.458,1.767,12.915,12.915,0,0,1,1.384,1.075A7.557,7.557,0,0,1,834.88,668.719Z" transform="translate(0 0)" fill="#fff"/><path id="ZUN_s" data-name="ZUN’s" d="M641.819,922.067a11.931,11.931,0,0,0-1.007-.728,5,5,0,0,0,.209-1.391c0-1.422-.561-3.473-3.229-5.172a8.992,8.992,0,0,0-4.847-1.526,10.849,10.849,0,0,0-3.726.732c.069-.223.138-.436.207-.676a4.435,4.435,0,0,1,.207-.472A6.381,6.381,0,0,0,630.4,910c0-.072,0-.145-.006-.217a6.442,6.442,0,0,0-5.991-5.9c-.137,0-.274.006-.41.018a6.077,6.077,0,0,0-4.339,2.14A6.653,6.653,0,0,0,618,909.713c-.03-.129-.052-.235-.066-.306l.032-.158a11.1,11.1,0,0,0,.339-2.37,5.7,5.7,0,0,0-2.556-4.837A5.524,5.524,0,0,0,612.62,901a4.581,4.581,0,0,0-4.534,4.928,19.829,19.829,0,0,0,.7,4.1c.135,1.054.48,3.188.96,5.947a31.521,31.521,0,0,1,.559,5.245c0,.17,0,.41.007.728a11.924,11.924,0,0,1-1.6-1.663,24.462,24.462,0,0,1-2.151-3.37c-.829-1.486-1.948-3.451-2.583-4.406a17.661,17.661,0,0,0-3.843-4.332,4,4,0,0,0-6.347,2.18,10.54,10.54,0,0,0-.344,3.077c0,.593.05,1.31.154,2.6.067.833.128,1.614.128,2.011,0,.06-.013.2-.021.347-.015.242-.025.464-.031.646-.048-.572-.094-1.145-.143-1.717q-.2-2.364-.392-4.737a4,4,0,0,0-3.987-3.682,4.119,4.119,0,0,0-.415.021,6.83,6.83,0,0,0-3.433,1.065,5.588,5.588,0,0,0-2.12,4.764c-.027.541-.029.733-.029,1.3,0,.018,0,.109.008.271.008.185.029.657.051,1.39l.024.805c.016.523.03.919.03,1.187s-.012.55-.035.82a4.584,4.584,0,0,1-.684.922q-.339.381-.663.681c0-.164-.006-.333-.006-.511,0-.311.045-1.218.1-2.366l.035-.7.008-.189c.025-.586.048-1.143.052-1.707.015-.169.03-.326.044-.476a21.413,21.413,0,0,0,.126-2.18c0-4.644-3.2-5.884-5.1-5.884a4.954,4.954,0,0,0-1.426.22,5.262,5.262,0,0,0-4.732-2.608,6.574,6.574,0,0,0-3.555,1.207c-.085.056-.151.1-.2.124-.4.09-.937.206-1.123.224-.265.017-.841.047-1.727.047s-2.205-.064-3.493-.134c-2.011-.13-4.725-.288-6.007-.288a6.169,6.169,0,0,0-6.5,6.53,13.285,13.285,0,0,0,1.265,5.1,4,4,0,0,0,4.417,2.252c-.834.73-1.63,1.385-2.369,1.951a13.366,13.366,0,0,0-2.4,2.124,5.652,5.652,0,0,0-1.361,3.639,5.514,5.514,0,0,0,5.882,5.377,20.178,20.178,0,0,0,5.013-.833,18.024,18.024,0,0,1,2.548-.179,28.735,28.735,0,0,1,3.776.275c1.183.17,2.542.4,4,.69.051.01.1.019.152.027a11.727,11.727,0,0,0,1.829.189,5.8,5.8,0,0,0,4.416-1.837,6.154,6.154,0,0,0,4.131,1.527c1.879,0,3.753-.811,5.9-2.554.469-.385.971-.816,1.513-1.3l.014.018a14.817,14.817,0,0,0,4.515,3.921,10.9,10.9,0,0,1,5.659.081,4,4,0,0,0,1.118-.159c3.5-1.019,4.569-3.129,4.779-4.953a22.6,22.6,0,0,0,2.04,1.679,16.641,16.641,0,0,0,6.833,2.98c.08.014.162.026.243.035l.163.019a6.947,6.947,0,0,0,.845.063,6.218,6.218,0,0,0,6.059-4.643,15.146,15.146,0,0,0,.527-4.558c0-1.274-.065-2.568-.166-3.858a3.891,3.891,0,0,0,3.125.657,4.038,4.038,0,0,0,.038.44,6.491,6.491,0,0,0,3.272,4.627,7.3,7.3,0,0,0,3.511,6.045,10.273,10.273,0,0,0,11.39.564,6.492,6.492,0,0,0,3.483-5.579A6.906,6.906,0,0,0,641.819,922.067Zm-83.337-5.212-.358.319c.051-.1.1-.2.149-.309Zm13.247,4.307a3.988,3.988,0,0,0-2.37.889,8.011,8.011,0,0,0-1.395,1.5q-.218-.015-.432-.015-.155,0-.309.012c-.211.016-.613.016-1.039.016-.261,0-.507,0-.677-.014l-.09-.006c.76-.609,1.687-1.332,2.771-2.159,1.442-1.081,2.6-2,3.55-2.813-.023.5-.024,1.084-.024,1.854C571.714,920.679,571.724,920.917,571.729,921.162Z" transform="translate(0 0)" fill="#fff"/><path id="Music" d="M731,925.007a3.779,3.779,0,0,0,.266-.463,4,4,0,0,0,.181-3.082,7.249,7.249,0,0,0-7.119-4.98A11.757,11.757,0,0,0,717.324,919a4.54,4.54,0,0,0,.661-2.336,6.337,6.337,0,0,0-1.663-3.938,4,4,0,0,0-2.893-1.462c-.068,0-.135,0-.2,0a4,4,0,0,0-2.823,1.166l-.091.087a5.519,5.519,0,0,0-1.985,4.04,8.86,8.86,0,0,0,.171,1.78,4.027,4.027,0,0,0,.143.57,12.729,12.729,0,0,0-1.029,1.058v-.008c0-1.422-.56-3.473-3.228-5.172a8.992,8.992,0,0,0-4.847-1.526,12.281,12.281,0,0,0-5.582,1.533,9.947,9.947,0,0,0-3.21,2.481,3.975,3.975,0,0,0-3.985-1.11,5.186,5.186,0,0,0-3.362,2.906,3.993,3.993,0,0,0-3.072-1.453h-.017l-.107,0a3.992,3.992,0,0,0-1.484.327c-.227.095-.436.215-.65.328v-.03a22.929,22.929,0,0,1,.3-2.538l.084-.569a31.634,31.634,0,0,0,.378-4.341,15.808,15.808,0,0,0-.378-3.521,4,4,0,0,0-4.954-2.981,7.245,7.245,0,0,0-4.815,4.592c-.045.112-.086.226-.122.341-.328,1.067-.666,2.169-.985,3.292a16.054,16.054,0,0,1-1.619,3.6c-.672.993-1.068,1.141-1.072,1.142l-.1.013a1.75,1.75,0,0,1-.3.031,6.121,6.121,0,0,1-2.283-.6h0a4.384,4.384,0,0,1-.609-1.793,18.091,18.091,0,0,0-1.255-4.522,4,4,0,0,0-5.809-1.612,7.574,7.574,0,0,0-3.344,6.769,31.8,31.8,0,0,0,.278,3.315l.006.051a9.561,9.561,0,0,1,.082,1.057c-.009.184-.05.9-.244,3.643-.062.881-.094,1.77-.094,2.642a19.625,19.625,0,0,0,.451,4.206,3.993,3.993,0,0,0,4.738,2.963c.317-.069.641-.13.969-.192s.66-.125.991-.194a4,4,0,0,0,3.184-3.916c0-.138,0-.5-.087-2.054l-.014-.471-.009-.285a16.057,16.057,0,0,0,2.659.233,11.246,11.246,0,0,0,4.825-1.032,20.489,20.489,0,0,0,1.214,4.075,9.873,9.873,0,0,0,5.914,5.683,4,4,0,0,0,4.593-1.54,8.233,8.233,0,0,0,1.839.207,7.133,7.133,0,0,0,1.276-.083,8.487,8.487,0,0,0,3.664-1.479c.163-.118.372-.271.627-.461.049.028.1.058.157.091a9.444,9.444,0,0,0,4.787,1.51,4,4,0,0,0,2.985-1.337c.021-.024.034-.052.055-.076.08.059.143.121.227.18a10.274,10.274,0,0,0,11.389.565,8.371,8.371,0,0,0,4.769,1.286,21.6,21.6,0,0,0,4.878-.724,3.976,3.976,0,0,0,1.312-.575c.185.056.362.115.56.165a38.35,38.35,0,0,0,5.845.974c2.238.221,4.15.329,5.845.329a4,4,0,0,0,3.81-5.217A5.876,5.876,0,0,0,731,925.007Z" transform="translate(0 0)" fill="#fff"/><path id="Collection" d="M869.681,926.587c-.166-.3-.31-.553-.429-.764-.1-.176-.178-.313-.233-.414a4.394,4.394,0,0,1-.291-.956l-.015-.076a16.465,16.465,0,0,0-1.332-4.233,7.964,7.964,0,0,0-4.212-3.8c-.533-.208-1.285-.5-2.295-.872a4,4,0,0,0-3.51.356,13.139,13.139,0,0,0-2.872,2.438,10.214,10.214,0,0,0-7.21-2.875,9.948,9.948,0,0,0-5.229,1.462c0-.063.009-.133.009-.189a6.338,6.338,0,0,0-1.664-3.938,4,4,0,0,0-2.893-1.462c-.068,0-.135,0-.2,0a4.005,4.005,0,0,0-2.824,1.166l-.091.087a5.519,5.519,0,0,0-1.985,4.04,8.8,8.8,0,0,0,.172,1.78c.006.037.019.072.027.109a3.994,3.994,0,0,0-1.888-2.33,16.988,16.988,0,0,0-1.911-.914l-.064-.025-.079-.03c-.058-.022-.126-.049-.206-.078l-.04-.236-.044-.254a4,4,0,0,0-4.877-3.2,5.446,5.446,0,0,0-3.967,2.643,3.92,3.92,0,0,0-.274.715q-.476.054-1.133.118a3.827,3.827,0,0,0-3.282,2.416,7.85,7.85,0,0,0-3.48-.776,13.278,13.278,0,0,0-9.875,5.343,6.818,6.818,0,0,0-3.8-3.841,10.6,10.6,0,0,0-4.565-1.164,23.109,23.109,0,0,0-7.409,1.166c-.271.091-.526.188-.777.286a13.516,13.516,0,0,0-.451-2.92,6.723,6.723,0,0,0-6.624-5.278,3.977,3.977,0,0,0-2.108.627,6.8,6.8,0,0,0-2.868-.627,4,4,0,0,0-3.949,4.637c.07.437.139.893.208,1.347a10.681,10.681,0,0,0-3.708-.671,10.2,10.2,0,0,0-3.052.461,7.193,7.193,0,0,0,.107-1.211,6.245,6.245,0,0,0-1.79-4.46,7.316,7.316,0,0,0-4.381-2.039c-.05-.007-.1-.012-.152-.016l-.2-.03a3.9,3.9,0,0,0-.571-.041h-.675a13.162,13.162,0,0,0-9.333,3.769,12.357,12.357,0,0,0-3.971,9.141,11.335,11.335,0,0,0,.178,2.157,12.827,12.827,0,0,0,5.585,8.348,15.825,15.825,0,0,0,9.142,2.883c.254,0,.591-.018,1.012-.044l.322-.02a4,4,0,0,0,2.979-1.614c.033-.045.053-.1.084-.145a13.25,13.25,0,0,0,6.174,1.485,11.39,11.39,0,0,0,2.152-.177,10.887,10.887,0,0,0,3.466-1.166,7.35,7.35,0,0,0,2.887,1.491,4,4,0,0,0,3.182-.5c.063-.04.113-.095.173-.138a7.736,7.736,0,0,0,1.621.637,3.882,3.882,0,0,0,4.072-1.31,26.593,26.593,0,0,0,3.411.623l.054.007c.667.076,2.05.283,3.8.544l.08.012a39.6,39.6,0,0,0,5.008.369,15.317,15.317,0,0,0,8.055-1.841,12.262,12.262,0,0,0,1.338.426,38.35,38.35,0,0,0,5.845.974c2.238.221,4.151.329,5.845.329a4,4,0,0,0,3.114-1.5,7.828,7.828,0,0,0,4.224,1.106c.258,0,.522.007.793.013.346.008.7.016,1.061.016a12.511,12.511,0,0,0,4.1-.562,7.423,7.423,0,0,0,.851-.356,8.49,8.49,0,0,0,4.464,1.114,21.6,21.6,0,0,0,4.878-.724,3.979,3.979,0,0,0,1.5-.718,13.273,13.273,0,0,0,5.881,1.33,11.375,11.375,0,0,0,2.152-.177,12.645,12.645,0,0,0,1.748-.435,3.933,3.933,0,0,0,.342.273,4,4,0,0,0,3.281.454,6.814,6.814,0,0,0,4.243-3.346,7.2,7.2,0,0,0,6.476,3.512,4,4,0,0,0,3.87-5.012A10.1,10.1,0,0,0,869.681,926.587ZM829.4,923.622a10.17,10.17,0,0,0-1.57.313c.011-.075.022-.149.032-.222.519-.05,1.019-.094,1.278-.117.1-.009.193-.034.289-.049C829.414,923.572,829.406,923.6,829.4,923.622Zm-76.635-.466a2.9,2.9,0,0,1-1.1-.576A4.738,4.738,0,0,1,751,920.8c.055.043.111.084.168.124a6.557,6.557,0,0,0,4,1.308c.116,0,.242-.008.366-.015a7.592,7.592,0,0,0-.344,1.709Zm79.957-4.258-.007.007c-.009-.055-.02-.109-.032-.163C832.693,918.793,832.7,918.847,832.717,918.9Z" transform="translate(0 0)" fill="#fff"/><path id="Vol.2" d="M943.11,922.751h0a31.79,31.79,0,0,0-3.775.283,23.76,23.76,0,0,1-2.492.223,5.745,5.745,0,0,1-1.064-.1l.913-.877q.8-.769,1.61-1.541c.026-.024.052-.05.077-.075a10.027,10.027,0,0,0,3.121-5.044,7.891,7.891,0,0,0,.157-1.521,6.329,6.329,0,0,0-4.98-6.208l-.07-.019a26.286,26.286,0,0,0-2.75-.5,7.152,7.152,0,0,0-1.231-.079,8.523,8.523,0,0,0-5.915,2.407,8.027,8.027,0,0,0-2.666,5.949,5.025,5.025,0,0,0,.234,1.687,3.994,3.994,0,0,0,1.928,2.273q-.421.49-.844.978c-.033.038-.065.076-.1.115-.375.466-.711.921-1.028,1.371a3.915,3.915,0,0,0-.446-.218,4,4,0,0,0-3.836-.386c-.176.075-.334.15-.481.23-.039.019-.068.038-.106.057-.019-.344-.031-.661-.031-.935a20.139,20.139,0,0,0-.523-5.468,6.723,6.723,0,0,0-6.624-5.278,4,4,0,0,0-3.949,4.637c.07.437.139.893.208,1.347a10.687,10.687,0,0,0-3.709-.671,10.036,10.036,0,0,0-4.107.866,6.426,6.426,0,0,1,.557-.966c.063-.044.158-.107.3-.2a4.671,4.671,0,0,0,2.417-4.023,5.432,5.432,0,0,0-1.151-3.243,5,5,0,0,0-4.086-2.19,5.811,5.811,0,0,0-4.453,2.276,8.708,8.708,0,0,0-1.683,2.876l-1.7,5.012q-.289.83-.563,1.557a36.615,36.615,0,0,0-1.191-3.579c-1.978-4.76-4.955-5.754-7.106-5.754a7.4,7.4,0,0,0-1.562.178,4,4,0,0,0-2.834,5.442c.447,1.075,1.246,2.818,2.443,5.329.831,1.732,1.61,3.411,2.321,5a47.455,47.455,0,0,1,1.857,4.761c1.3,4.249,3.969,4.885,5.448,4.885,3.137,0,4.834-2.807,5.391-3.73.205-.332.421-.723.646-1.152a10.09,10.09,0,0,0,2.92,2.947,13.218,13.218,0,0,0,7.6,2.329,11.375,11.375,0,0,0,2.152-.177,10.887,10.887,0,0,0,3.466-1.166,7.354,7.354,0,0,0,2.888,1.491,3.951,3.951,0,0,0,4.616-2.151,13.622,13.622,0,0,0,1.58.12,6.5,6.5,0,0,0,1.366-.144,4,4,0,0,0,5.631,1.243,19.6,19.6,0,0,0,2.134-1.847,15.337,15.337,0,0,0,3.172,1.259,18.709,18.709,0,0,0,4.449.5,13.252,13.252,0,0,0,4.759-.775,7.6,7.6,0,0,0,4.272-3.819,4,4,0,0,0-3.573-5.8Z" transform="translate(0 0)" fill="#fff"/></g></g><g id="Text"><g id="蓮台野夜行"><path d="M603.741,125.773a27.9,27.9,0,0,1-.434-4.559,5.876,5.876,0,0,1,1.954-4.126,8.084,8.084,0,0,1,5.211-1.736,9.357,9.357,0,0,1,5.645,1.736q2.819,1.523,2.822,4.126a15.19,15.19,0,0,1-.434,3.691q12.808,0,25.4-.869a34.47,34.47,0,0,1,8.25.869,6.321,6.321,0,0,1,3.257,4.125q0,4.558-7.165,4.559H617.637v7.817q16.283-1.085,28.008-1.086a17.766,17.766,0,0,1,8.033,1.954,5.433,5.433,0,0,1,3.257,4.994q0,1.74-3.039,3.691a14.3,14.3,0,0,0-3.257,3.474,37.643,37.643,0,0,0-1.52,8.684,48.993,48.993,0,0,0,.434,8.685,7.063,7.063,0,0,1-2.388,4.994,9.447,9.447,0,0,1-6.514,2.822h-5.862a27.87,27.87,0,0,0-6.73-.868h-9.988q0,3.476.217,7.6,9.333-.865,17.8-.869,13.458-.864,20.626,0t7.165,6.3q0,3.257-5.862,2.388-20.844.872-39.733,1.737.215,3.695.217,7.816,0,4.56-1.3,6.3,26.487,1.74,49.286,1.737a73.73,73.73,0,0,0,16.067-1.737,61.764,61.764,0,0,0,10.205-2.6h3.908q4.12,0,4.125,2.6,0,4.127-17.8,19.106-11.511,7.816-19.106,7.817t-17.369-4.56a92.5,92.5,0,0,0-13.028-4.125q-8.467-1.735-21.06-4.56-18.89-2.6-36.91-4.125-19.327-1.736-32.568-1.737-4.126,0-12.81,4.126-6.513,5.428-11.073,5.427-6.732-.864-8.684-10.422,1.955-7.815,6.73-10.421,6.513,0,12.159-5.211a41.793,41.793,0,0,0,10.421-9.553q3.909-5.424,7.817-5.428,7.6,0,7.6,4.56,0,3.257-8.033,6.947-6.732,5.862-6.947,8.685a3.3,3.3,0,0,1,1.954.869,27.683,27.683,0,0,0,6.731-.869q13.026,0,45.377,1.737,7.166.87,14.113,1.737v-.869a27.636,27.636,0,0,1-1.521-7.816V195.9q-20.409,1.955-34.521,3.691-7.166,1.74-8.033-4.559.432-5.863,8.684-6.731,14.331-.864,33.653-1.954v-6.731c-.434,0-.8.292-1.085.869a129.531,129.531,0,0,0-15.849.868,20.7,20.7,0,0,1-6.514,2.389q-7.6,0-7.6-6.079a22.193,22.193,0,0,0,1.519-7.6,24.84,24.84,0,0,0-2.388-10.421,11.2,11.2,0,0,0-3.691-3.691,6.125,6.125,0,0,1-2.388-3.257q0-3.69,3.474-6.948a9.052,9.052,0,0,1,6.947-3.474,34.933,34.933,0,0,1,6.949.869,17.718,17.718,0,0,0,7.816,0,92.161,92.161,0,0,0,12.158-.869q-.217-4.56-.434-7.816-14.548.87-22.581,1.737-6.95.651-9.335.651-5.649,0-5.645-3.257,0-2.818,3.69-5.427a34.9,34.9,0,0,1,10.205-1.52Q592.885,125.777,603.741,125.773Zm-54.5,38.213q3.258,0,3.257,3.257,0,2.823-4.776,5.427a65.764,65.764,0,0,1-8.685,6.08,13.336,13.336,0,0,1-7.816,2.6q-3.695,0-6.079-3.69a8.1,8.1,0,0,1-2.606-5.863,7.612,7.612,0,0,1,1.086-3.691q1.3-2.606,3.257-2.6a9.879,9.879,0,0,1,4.993,1.737A50.386,50.386,0,0,0,549.244,163.986Zm11.508-49.5q-17.373,1.74-28.66,2.6-7.6,0-7.6-6.3,1.084-3.257,5.211-5.862a87.658,87.658,0,0,1,12.376-.868h15.632q-.219-1.085-.434-2.823,1.516-7.816,8.25-8.685,7.6,1.74,7.6,6.3a5.529,5.529,0,0,1-1.3,2.388,7.1,7.1,0,0,0-.218,1.737q8.249,0,18.022-.869,16.5-.864,33-.868-.219-3.257-.651-5.863.865-4.559,7.6-6.079,3.471,0,4.56,1.52a3.384,3.384,0,0,1,2.171,3.474,33.424,33.424,0,0,1-1.52,6.08h18.889q13.891,0,13.895,5.427,0,5-5.861,4.994H633.7q-.217,2.825-.433,4.56-.438,4.126-6.3,4.993-3.909,0-3.909-4.993v-3.691q-15.418,0-34.086.868a157.828,157.828,0,0,1-17.8,1.086v3.473q-.22,6.083-4.343,6.08-3.694,0-4.994-6.08Q561.186,115.354,560.752,114.483Zm-24.1,14.547q3.69,0,6.731,4.559a52.579,52.579,0,0,0,6.731,4.126q3.039,2.605,3.039,4.559,0,1.74-2.387,1.737a65.034,65.034,0,0,0-10.205-.868h-9.553q-4.128,0-4.343-2.823a8.4,8.4,0,0,1,2.171-5.862Q533.176,129.033,536.651,129.03Zm69.478,27.791v-6.948q-7.383,1.089-15.415,2.823-5.429,0-5.428,3.257.432.87,1.086,2.6h1.736Q595.925,157.693,606.129,156.821Zm-18.021,11.29a15.051,15.051,0,0,1,.218,2.823q0,2.6,2.822,2.6a127.036,127.036,0,0,1,15.415-2.6q-.217-2.82-.216-6.08Q595.924,166.377,588.108,168.111Zm52.109-12.81q.432-1.734.868-3.474,0-2.818-4.776-2.822H617.637q0,3.695.217,6.948a59.813,59.813,0,0,1,8.9-.652q8.249-.864,12.375,0Zm-22.363,8.685v6.079h5.862a59.686,59.686,0,0,1,10.205.869q4.773,0,4.558-4.56a13.377,13.377,0,0,1,.435-3.257Q627.841,163.117,617.854,163.986Z" transform="translate(0 0)" fill="#000000"/><path d="M714.683,290.512h25.792q22.806,0,25.793-1.493c.451,0,.678-.181.678-.543a24.514,24.514,0,0,0-3.394-5.43q-1.087-1.629-2.308-3.394a4.1,4.1,0,0,1-1.9-3.122q0-2.307,4.615-2.851,2.579,0,3.4,1.765,1.9,2.716,3.8,5.43a54.99,54.99,0,0,0,4.073,4.751q4.2,3.939,3.665,6.516a3.706,3.706,0,0,1-2.715,3.8h-4.615a102.021,102.021,0,0,1-10.725,1.086,157.55,157.55,0,0,1-20.77,1.222q-9.094,0-16.153-.679a131.558,131.558,0,0,1-13.3-.543,8.7,8.7,0,0,0-2.986.543h-1.357q-3.125,0-3.8-7.059a10.213,10.213,0,0,1,1.086-4.344,13.432,13.432,0,0,1,3.529-4.208,59.58,59.58,0,0,0,14.66-10.86q6.518-5.971,10.182-8.824a5.669,5.669,0,0,1,4.208-2.036q.948,0,3.258,2.036a5.149,5.149,0,0,1,1.629,3.394q-.681,2.58-6.923,5.973Q726.22,277.617,719.026,284q-5.16,5.024-5.158,5.566C713.868,289.833,714.14,290.151,714.683,290.512Zm48.869,51.177q-1.9-.54-4.615-1.086a33.1,33.1,0,0,0-5.566-.543q-9.91,0-21.041.543-11.81,1.089-16.29,1.086-2.172.545-3.529.95a4.609,4.609,0,0,1-3.122,0,6.884,6.884,0,0,1-4.344-4.344,5.492,5.492,0,0,1,.271-2.579q.542-1.085,1.358-2.715a9.378,9.378,0,0,0,1.357-4.344,57.914,57.914,0,0,0,0-9.774,10.662,10.662,0,0,0-.814-3.258,6.43,6.43,0,0,1-.407-1.764,11.919,11.919,0,0,1,2.307-3.666,4.059,4.059,0,0,1,3.937-1.221,11.711,11.711,0,0,1,2.986.543,8.455,8.455,0,0,0,4.751,0q16.423-.541,41.539-1.086a14.778,14.778,0,0,0,4.073-.543,10.8,10.8,0,0,1,2.851-.408,6.609,6.609,0,0,1,6.108,4.887,7.135,7.135,0,0,1-.271,2.58,17.617,17.617,0,0,0-1.9,4.344,87.431,87.431,0,0,0-.543,9.366,17.363,17.363,0,0,0,.136,2.172,9.134,9.134,0,0,1,.815,2.715,4.356,4.356,0,0,1-.679,3.123,4.131,4.131,0,0,1-1.629,2.307A8.748,8.748,0,0,1,763.552,341.689ZM721.2,315.625q-3.937,1.089-3.936,4.208a54.3,54.3,0,0,1-.543,10.453q-.545,3.8,1.9,3.8,19-.54,42.625-1.086,2.307,0,2.987-2.715.134-6.516.272-12.489.54-2.169-3.123-2.85-10.588,0-20.362.678Z" transform="translate(0 0)" fill="#000000"/><path d="M709.708,445.436V428.544H704.62a46.891,46.891,0,0,0-10.378,2.443,24.07,24.07,0,0,1-7.326,1.628q-3.053,0-3.867-3.256a43.107,43.107,0,0,1,.61-6.512,66.513,66.513,0,0,0,.612-10.582,72.555,72.555,0,0,0-1.425-13.228,44.889,44.889,0,0,0-2.035-4.681,20.683,20.683,0,0,1-1.628-6.512,6.222,6.222,0,0,1,1.628-4.274,5.525,5.525,0,0,1,4.07-1.628h8.954q12.21-.81,21.571-.814,15.057,0,17.5-.61h4.071q2.031-.81,4.273-1.628a12.888,12.888,0,0,1,6.105,1.628q4.068,3.053,4.07,5.7a45.221,45.221,0,0,1-.814,9.768,61.116,61.116,0,0,0-2.442,8.141,97.634,97.634,0,0,0-1.831,17.094q-.206,7.326-5.9,8.14a19.955,19.955,0,0,1-6.715-1.832H720.29v2.646q-.205,8.142-.2,15.263a140.383,140.383,0,0,1,15.059-.814h8.75a7.472,7.472,0,0,1,3.46,5.087q0,4.884-7.733,4.884h-19.74v16.891q10.175-.811,20.35-1.628a48.79,48.79,0,0,1,9.769.814,7.557,7.557,0,0,1,4.069,5.9q0,4.885-8.547,4.885-16.689,0-31.746.814-16.484,1.631-24.828,2.441a39.029,39.029,0,0,1-7.936,1.425q-6.921,0-6.919-3.866,0-4.275,4.477-6.513a32.662,32.662,0,0,1,12.21-2.442q9.563-.81,18.926-1.831V455.407q-9.568.816-14.652,1.628a26.526,26.526,0,0,1-6.512,1.628q-6.1,0-6.106-4.07,0-3.458,4.071-5.7a37.882,37.882,0,0,1,10.785-1.628Q703.4,446.457,709.708,445.436Zm0-44.771V396.8a14.171,14.171,0,0,0-1.018-5.088q-.816-2.236-1.22-3.052a79.524,79.524,0,0,0-11.6.814q-2.242,0-2.442,3.052,0,3.464.2,9.972h.2Q700.551,401.481,709.708,400.665Zm-15.67,10.785q.2,4.074.407,8.954a4.376,4.376,0,0,0,2.035,1.629q6.51-.812,13.228-1.629V409.619Q700.75,410.435,694.038,411.45Zm26.862-3.459q-.2,5.9-.2,11.4h13.838a1.766,1.766,0,0,0,2.035-1.628q.612-3.862,1.221-10.582Q729.04,407.177,720.9,407.991Zm17.3-8.954q.2-3.864.407-8.954,0-1.422-4.68-2.239H721.511v.814q-.205,5.7-.407,11.193a37.367,37.367,0,0,0,7.733-.814Zm58.61-22.589A34.238,34.238,0,0,1,808,378.076q1.626.816,9.564.814a7.048,7.048,0,0,1,6.309,3.052q3.254,6.715,3.256,11.4,0,1.022-2.441,2.646a23.749,23.749,0,0,1-7.124.814q-3.462,1.632-7.936,3.867a63.182,63.182,0,0,1-9.361,6.512,33.4,33.4,0,0,1,5.087,3.256q3.254,1.832,2.849,5.088a28.59,28.59,0,0,1,6.513-.814q17.7.815,25.03,3.866,8.343,3.462,7.733,10.786-.814,5.495-2.645,6.308-1.63.816-3.256,1.832a13.836,13.836,0,0,0-4.273.814,86.7,86.7,0,0,1-18.723,6.309,80.2,80.2,0,0,1-12.21,3.459,117.717,117.717,0,0,1,.61,12.821q0,15.672-5.9,24.623-4.884,8.958-16.484,8.954a46.958,46.958,0,0,1-16.687-4.069q-9.158-3.459-9.158-7.327,0-3.458,4.273-3.459a38.769,38.769,0,0,0,17.1,3.459q14.242,0,14.448-27.676,0-13.02-1.22-18.926a46.439,46.439,0,0,0-1.425-5.494q-.814-1.628-1.831-3.46a2.774,2.774,0,0,0-2.035-.814,9.456,9.456,0,0,0-3.867.814,123.183,123.183,0,0,0-19.943,6.512q-8.142,4.274-10.582,4.274-3.463-.812-3.46-4.884.811-8.953,9.972-11.4,9.967-2.643,24.827-5.088,7.327-.811,14.042-1.424a54.183,54.183,0,0,0-6.309-3.256q-3.663-.812-7.123-1.832a21.444,21.444,0,0,0-5.9-.814q-4.884,0-4.884-3.867.81-5.9,7.122-6.715a18.71,18.71,0,0,1,5.7,1.628,27.3,27.3,0,0,1,6.309,2.645q3.663-3.458,8.751-8.14,5.7-4.273,5.7-6.512,0-2.442-11.6-3.256a50.644,50.644,0,0,0-13.432,1.628,61.145,61.145,0,0,0-11.8,4.68q-4.074,3.464-6.919,3.46-3.868,0-3.867-3.46.811-7.324,8.751-11.192,5.085-.81,11.6-2.442A77.905,77.905,0,0,1,796.808,376.448Zm8.343,64.307q4.068-1.627,10.99-4.274a27.928,27.928,0,0,0,8.75-3.866q3.864-2.442,3.867-5.088,0-3.052-14.449-3.866-8.347.815-16.688,1.424a33.113,33.113,0,0,1,4.885,8.344A22.258,22.258,0,0,1,805.151,440.755Z" transform="translate(0 0)" fill="#000000"/><path d="M806.157,574.8a11.476,11.476,0,0,1,.325,3.907q-.816,23.447-.813,46.73,0,10.584-4.233,10.583a4.936,4.936,0,0,1-3.094-3.419,15.564,15.564,0,0,1-1.14-6.514q0-22.14-.977-40.216,0-2.114-.163-4.559-11.073,6.514-14.491,6.513t-3.419-7.164a30.534,30.534,0,0,1,1.14-7.164,2.934,2.934,0,0,1,2.605-1.954,11.421,11.421,0,0,1,3.908.651q4.884-.648,28.981-12.374,5.373-4.068,7.164-4.07a1.872,1.872,0,0,1,2.117,2.116q-.976,3.747-10.584,11.561A32.464,32.464,0,0,1,806.157,574.8Zm34.029-30.611q21.163-.648,43.472-.651,11.559,0,11.561,4.4,0,4.071-5.048,4.07H874.215q-17.1,0-41.03.651-28.818,1.3-43.8,2.443-6.19,0-6.188-5.21a8.624,8.624,0,0,1,4.4-4.4,74.2,74.2,0,0,1,9.769-.651q9.928,0,36.634-.652v-2.767q0-1.791-3.257-3.094a3.9,3.9,0,0,1-2.116-3.419q.813-4.4,6.35-5.048a18.543,18.543,0,0,1,7.652,1.954q4.068,2.442,4.071,4.559a4.322,4.322,0,0,1-3.094,4.4Q842.14,542.078,840.186,544.19ZM865.1,558.519q6.02,0,8.792,3.093,1.464,1.3,2.442,5.373a13.9,13.9,0,0,0,3.907,5.862q6.023,2.442,6.025,7.815-.489,3.1-5.862,4.559a52.157,52.157,0,0,0-9.443,5.048q-4.723,4.069-9.118,7.164,12.046,7.166,21,12.537,13.836,7.165,32.075,7.164,2.277,0,2.279,1.791a2.747,2.747,0,0,1-1.139,2.116q-3.42,3.095-14.329,8.467a33.051,33.051,0,0,1-6.512,2.442,15.978,15.978,0,0,1-4.4.652,15,15,0,0,1-5.047-1.791,60.921,60.921,0,0,1-6.187-5.373q-5.86-5.046-10.908-10.258-6.027-5.209-14.166-11.886a94.847,94.847,0,0,1-20.027,13.188q-7.815,4.56-13.513,4.559a8.787,8.787,0,0,1-6.839-3.419,10.356,10.356,0,0,1-2.443-6.513q.649-2.443,4.072-2.442a10.292,10.292,0,0,0,5.21,1.3,27.3,27.3,0,0,0,11.071-2.606,76.379,76.379,0,0,0,14.491-7.815,22.243,22.243,0,0,0,1.954-1.465,45.106,45.106,0,0,0-10.421-5.7A26,26,0,0,0,827,589.617h-2.442a5.5,5.5,0,0,1-2.443.652q-3.908-.649-3.908-3.746,0-5.861,7.164-7.815a67.9,67.9,0,0,0,29.471-12.374,23.938,23.938,0,0,0,6.024-5.861A6.3,6.3,0,0,1,865.1,558.519ZM842.3,582.453a12.865,12.865,0,0,0-4.071,1.954q5.534,2.77,12.049,5.862a28.408,28.408,0,0,0,5.21,3.419,16.538,16.538,0,0,0,4.4-3.419,4.025,4.025,0,0,1-.977-1.791,14.828,14.828,0,0,0-3.582-4.071,7.137,7.137,0,0,0-3.257-2.442,4.2,4.2,0,0,1-2.441-3.257Q845.882,580.662,842.3,582.453Zm22.795,4.07q7.487-5.861,7.489-9.28,0-1.954-3.582-5.048-2.931-3.418-5.373-3.419-.978,0-5.536,4.071a15.3,15.3,0,0,0-1.953,1.3h.488a5.722,5.722,0,0,1,2.116,1.791,48.552,48.552,0,0,1,3.908,6.025A15.089,15.089,0,0,1,865.1,586.523Z" transform="translate(0 0)" fill="#000000"/><path d="M778.335,718.473a7.1,7.1,0,0,0,3.366-1.63q1.629-1.735,2.281-1.738,4.125.436,5.865,5.213.215,1.305-1.3,2.064a7.682,7.682,0,0,0-1.629,4.452q0,15.1-2.172,19.005a19.464,19.464,0,0,1-9.23,9.557q-6.084,3.583-11.295,3.583-2.826,0-2.932-3.583.758-3.91,2.389-5.539,1.629-1.735,2.28-1.737a10.453,10.453,0,0,0,5.974,0,9.2,9.2,0,0,0,6.95-5.756q2.388-4.778,2.389-16.4-.326-3.15-2.063-3.15-3.909,0-16.4,3.15-1.85,0-1.847-1.738a5.032,5.032,0,0,1,1.52-3.475q1.737-1.846,2.5-1.847a30.985,30.985,0,0,0,5.321.435A35.029,35.029,0,0,0,778.335,718.473Zm-7.928-20.744a40.833,40.833,0,0,1,4.779.435,38.53,38.53,0,0,0,7.276,1.194h4.126q2.172,0,2.173,1.3,0,1.848-5.322,3.475a29.226,29.226,0,0,1-10.425,1.846,6.659,6.659,0,0,1-4.67-1.412,2.973,2.973,0,0,1-1.629-2.5,5.468,5.468,0,0,1,1.3-3.475A4.844,4.844,0,0,1,770.407,697.729Zm49.2,24.653h-.761a35.664,35.664,0,0,0-16.724,4.018q-1.2.761-2.606,1.629a5.236,5.236,0,0,1-1.412.434q-2.282,0-2.281-2.932.653-5.212,4.779-7.058a62.746,62.746,0,0,0,6.407-.435,105.235,105.235,0,0,1,12.814-.761q11.946,0,25.2,1.2a64.685,64.685,0,0,0,11.185-1.2q2.5,0,2.5.761,0,1.3-2.281,3.584-1.954,1.629-4.452,3.909a6.959,6.959,0,0,1-4.67,2.064,13.331,13.331,0,0,1-4.778-1.629,32.317,32.317,0,0,0-11.837-3.15h-1.739c.072,0,.11.146.11.435a1.649,1.649,0,0,1-.435.977,1.567,1.567,0,0,0-.543,1.3q-.976,11.187-.977,30.734,0,6.625-3.15,6.624-3.367,0-3.366-6.624-.435-22.046-.434-28.67Q820.146,723.251,819.6,722.382Zm9.013-25.521a13.842,13.842,0,0,1,5.756.868,3.443,3.443,0,0,1,2.064,2.933q-.437,2.281-3.15,2.28-7.929-.432-16.833-.434-3.8.436-8.254.869a2.08,2.08,0,0,1-2.388-2.172,3.868,3.868,0,0,1,2.931-3.909Q817,696.863,828.616,696.861Z" transform="translate(0 0)" fill="#000000"/></g><g id="Rendaino_yakou" data-name="Rendaino yakou"><path id="R" d="M492.4,157.545c-.144-.018-.39-.131-.752-.577a22.614,22.614,0,0,0-1.84-1.962,2.371,2.371,0,0,0,1.416-.979,3.1,3.1,0,0,0,.715-1.895,2.885,2.885,0,0,0-.937-2.3,3.7,3.7,0,0,0-2.434-.788,18.588,18.588,0,0,0-2.952.17.885.885,0,0,0-.718.993.7.7,0,0,0,.765.765.275.275,0,0,0,.07-.01l.081-.024q.007.451.031,1.137c.021.649.033,1.139.033,1.469V156.8c0,.162-.012.412-.033.746s-.034.6-.034.781a1.016,1.016,0,0,0,.836,1.143.258.258,0,0,0,.114-.006.977.977,0,0,0,.525-.383,1.022,1.022,0,0,0,.254-.638c0-.336-.017-.767-.05-1.29q-.051-1.032-.067-1.3c-.014-.268-.025-.6-.033-.985.093.072.206.15.339.235a3.509,3.509,0,0,1,.893.637,10.642,10.642,0,0,1,1.39,2.656c.287.752.55,1.074.881,1.074a2.183,2.183,0,0,0,1.113-.566c.52-.393.779-.682.84-.938a.25.25,0,0,0-.094-.258A.8.8,0,0,0,492.4,157.545Zm-5.026-6.957a12.023,12.023,0,0,1,1.626-.149c.556,0,1.294.176,1.294,1.693a1.694,1.694,0,0,1-.383,1.11,1.791,1.791,0,0,1-1,.45c-.433.034-.867.073-1.308.118a1.175,1.175,0,0,0-.23.051c0-.245,0-.507,0-.783Z" transform="translate(0 0)"/><path id="e" d="M500.63,156.464a.579.579,0,0,0-.407.2,4.15,4.15,0,0,1-1.458.892,4.962,4.962,0,0,1-1.754.349,1.137,1.137,0,0,1-1.02-.771,3.415,3.415,0,0,1-.321-1.338l3.565-.03a.737.737,0,0,1,.166.028,1.6,1.6,0,0,0,.3.038.931.931,0,0,0,1-1.047,3.458,3.458,0,0,0-.855-2.336,2.8,2.8,0,0,0-2.234-1.035,3.024,3.024,0,0,0-2.524,1.262,4.4,4.4,0,0,0-.847,2.707,4.593,4.593,0,0,0,.849,2.876,3.234,3.234,0,0,0,2.7,1.209,4.693,4.693,0,0,0,1.7-.3,2.011,2.011,0,0,0,1.329-1.2,3.455,3.455,0,0,0,.194-.938C501.013,156.519,500.745,156.464,500.63,156.464Zm-3.154-3.568a1.18,1.18,0,0,1,1.014.519,2,2,0,0,1,.385.94h-3.028a2.223,2.223,0,0,1,.506-.931A1.416,1.416,0,0,1,497.476,152.9Z" transform="translate(0 0)"/><path id="n" d="M509.79,158.217a5.083,5.083,0,0,0-.456-.595,10.544,10.544,0,0,1-.114-2.22,4.589,4.589,0,0,0-.779-3.089,2.483,2.483,0,0,0-1.895-.9,2.812,2.812,0,0,0-1.4.38,2.707,2.707,0,0,0-.57.416c0-.043-.006-.07-.009-.089-.1-.615-.489-.707-.711-.707-.78,0-.864.454-.864.648v6.492c0,.825.546.914.781.914.574,0,.865-.542.865-1.612,0-.223-.012-.613-.034-1.176s-.049-.979-.049-1.264a3.448,3.448,0,0,1,.373-1.87,1.616,1.616,0,0,1,1.385-.835c.333,0,1.344,0,1.344,2.6,0,.263-.016.662-.049,1.192s-.067.959-.067,1.249c0,1.015.273,1.589.812,1.705a.243.243,0,0,0,.093,0,2.24,2.24,0,0,0,.777-.4c.443-.344.549-.511.592-.618A.245.245,0,0,0,509.79,158.217Z" transform="translate(0 0)"/><path id="d" d="M797.47,342.507a1.164,1.164,0,0,1-.225-.492,12.961,12.961,0,0,1-.157-2.576v-3.47c0-.073.011-.232.032-.478q.035-.412.034-.584a.794.794,0,0,0-.263-.6.842.842,0,0,0-.568-.248.81.81,0,0,0-.864.914v2.053a3.712,3.712,0,0,0-1.742-.46,3,3,0,0,0-2.564,1.32,4.8,4.8,0,0,0-.791,2.781,4.512,4.512,0,0,0,.775,2.666,2.825,2.825,0,0,0,2.447,1.287,2.458,2.458,0,0,0,1.471-.543,3.466,3.466,0,0,0,.681-.62c.029.11.062.225.1.344.067.2.272.819.735.819.261,0,.517-.2.8-.62a2.161,2.161,0,0,0,.442-.931.247.247,0,0,0-.025-.141A2.054,2.054,0,0,0,797.47,342.507Zm-3.853-4.3a2.815,2.815,0,0,1,1.842.808c0,.916.018,1.72.048,2.392-.419,1.2-1.038,1.779-1.89,1.779a1.387,1.387,0,0,1-1.29-.831,3.633,3.633,0,0,1-.386-1.725,3.227,3.227,0,0,1,.413-1.649A1.4,1.4,0,0,1,793.617,338.211Z" transform="translate(0 0)"/><path id="a" d="M806.064,342.614c-.126-.1-.42-.625-.42-3.275,0-.207.01-.524.033-.95.021-.448.033-.784.033-1.009a.749.749,0,0,0-.831-.814.736.736,0,0,0-.717.443,3.125,3.125,0,0,0-1.69-.443,3,3,0,0,0-2.613,1.369,4.881,4.881,0,0,0-.808,2.849,4.32,4.32,0,0,0,.8,2.657,2.949,2.949,0,0,0,2.49,1.179,2.561,2.561,0,0,0,1.459-.464,2.886,2.886,0,0,0,.611-.6c.146.5.42,1.06.951,1.06.287,0,.548-.209.795-.636a2.612,2.612,0,0,0,.348-.864.254.254,0,0,0-.085-.237A3.324,3.324,0,0,0,806.064,342.614Zm-3.592-4.436a2.194,2.194,0,0,1,1.658.823,16.393,16.393,0,0,1-.158,2.655c-.249,1.054-.773,1.567-1.6,1.567a1.421,1.421,0,0,1-1.3-.709,3.143,3.143,0,0,1-.4-1.647C800.68,339.058,801.266,338.178,802.472,338.178Z" transform="translate(0 0)"/><g id="i"><path d="M811.608,336a1.2,1.2,0,0,0,.8-.349,1.259,1.259,0,0,0,.3-.747,1.054,1.054,0,0,0-.306-.775,1.076,1.076,0,0,0-.791-.322.982.982,0,0,0-1.08,1.1,1.189,1.189,0,0,0,.317.784A1.137,1.137,0,0,0,811.608,336Z" transform="translate(0 0)"/><path d="M811.608,336.549a.779.779,0,0,0-.847.865v1c0,.289,0,.755.016,1.4q.033.924.034,1.386c0,.119-.006.3-.016.528-.024.286-.034.492-.034.617v1.146c0,.968.572,1.113.914,1.113a.768.768,0,0,0,.641-.41,1.42,1.42,0,0,0,.14-.6v-6.175A.78.78,0,0,0,811.608,336.549Z" transform="translate(0 0)"/></g><path id="n-2" data-name="n" d="M673.589,507.9a10.538,10.538,0,0,1-.114-2.219,4.587,4.587,0,0,0-.779-3.089,2.482,2.482,0,0,0-1.895-.9,2.809,2.809,0,0,0-1.4.38,2.675,2.675,0,0,0-.57.417c0-.044-.006-.07-.009-.09-.1-.615-.489-.707-.711-.707-.78,0-.864.453-.864.649v6.491c0,.825.546.914.781.914.574,0,.865-.542.865-1.611,0-.223-.012-.614-.034-1.177s-.049-.979-.049-1.264a3.451,3.451,0,0,1,.373-1.87,1.618,1.618,0,0,1,1.385-.835c.332,0,1.344,0,1.344,2.606,0,.262-.016.661-.049,1.191s-.067.96-.067,1.249c0,1.017.273,1.59.811,1.705a.246.246,0,0,0,.053.006.26.26,0,0,0,.04,0,2.215,2.215,0,0,0,.778-.4,1.806,1.806,0,0,0,.592-.619.244.244,0,0,0-.025-.234A5.083,5.083,0,0,0,673.589,507.9Z" transform="translate(0 0)"/><path id="o" d="M681.536,503.026a1.374,1.374,0,0,0-.416-.814,1.991,1.991,0,0,0-1.564-.516,3.207,3.207,0,0,0-2.579,1.132A4.074,4.074,0,0,0,676,505.6a4.7,4.7,0,0,0,.808,2.78,2.955,2.955,0,0,0,2.563,1.371,3.238,3.238,0,0,0,2.565-1.267,4.049,4.049,0,0,0,.989-2.685A3.162,3.162,0,0,0,681.536,503.026Zm-2.18.266a2.012,2.012,0,0,1,.79.209,3.989,3.989,0,0,0,.637.26,4.138,4.138,0,0,1,.548,1.7,3.693,3.693,0,0,1-.5,1.964,1.709,1.709,0,0,1-1.545.94,1.5,1.5,0,0,1-1.362-.874,3.411,3.411,0,0,1-.447-1.765,2.936,2.936,0,0,1,.458-1.707A1.565,1.565,0,0,1,679.356,503.292Z" transform="translate(0 0)"/><path id="y" d="M917.713,585.089c-.333,0-.757.173-.878.992a16.7,16.7,0,0,1-1.415,4.481c-.473-1.113-.872-2.114-1.188-2.976q-.334-1.035-.517-1.534c-.147-.413-.395-.963-.85-.963a.735.735,0,0,0-.831.781,3.641,3.641,0,0,0,.388,1.315l2.206,4.9a4.654,4.654,0,0,1-1.733,1.959c-.51.232-.728.439-.728.692s.211.5.686.8a2.671,2.671,0,0,0,.9.381l.039,0a.315.315,0,0,0,.052,0c.43-.091,1.087-.586,2.353-3.636.564-1.359,1.08-2.767,1.535-4.187a15.686,15.686,0,0,0,.693-2.35A.628.628,0,0,0,917.713,585.089Z" transform="translate(0 0)"/><path id="a-2" data-name="a" d="M927.625,591.406a3.223,3.223,0,0,0-.354-.269c-.125-.1-.42-.624-.42-3.275,0-.207.01-.524.033-.951.021-.447.033-.783.033-1.008a.749.749,0,0,0-.831-.814.737.737,0,0,0-.717.442,3.124,3.124,0,0,0-1.69-.442,3.005,3.005,0,0,0-2.613,1.368,4.886,4.886,0,0,0-.808,2.85,4.32,4.32,0,0,0,.8,2.657,2.949,2.949,0,0,0,2.49,1.179,2.577,2.577,0,0,0,1.459-.463,2.914,2.914,0,0,0,.611-.6c.146.5.42,1.06.951,1.06.287,0,.547-.209.795-.636a2.638,2.638,0,0,0,.348-.863A.255.255,0,0,0,927.625,591.406Zm-3.946-4.7a2.192,2.192,0,0,1,1.658.823,16.272,16.272,0,0,1-.158,2.655c-.25,1.054-.773,1.567-1.6,1.567a1.418,1.418,0,0,1-1.3-.71,3.146,3.146,0,0,1-.4-1.646C921.887,587.581,922.473,586.7,923.679,586.7Z" transform="translate(0 0)"/><path id="k" d="M794.752,779.7c-.24-.032-.724-.278-1.66-1.266a12.975,12.975,0,0,0-1.625-1.546l2.415-1.893a.908.908,0,0,0,.314-.46.252.252,0,0,0,0-.125c-.162-.665-.528-.8-.807-.8a.831.831,0,0,0-.566.3l-2.853,2.564v-2.71c0-.185.01-.474.032-.859q.051-.629.051-.917a.787.787,0,0,0-.848-.881c-.24,0-.8.089-.8.914v8.6c0,.946.605,1.047.864,1.047.292,0,.782-.14.782-1.08,0-.235-.012-.571-.034-1.015s-.049-.782-.049-1.01v-.5l.386-.287a2.576,2.576,0,0,1,1.2,1.022c.2.279.567.886,1.081,1.8.516.892.757,1.071.98,1.071s.5-.186.93-.627c.5-.531.6-.76.626-.9a.244.244,0,0,0,0-.123A.442.442,0,0,0,794.752,779.7Z" transform="translate(0 0)"/><path id="o-2" data-name="o" d="M802.7,774.935a1.374,1.374,0,0,0-.416-.815,1.99,1.99,0,0,0-1.564-.516,3.208,3.208,0,0,0-2.579,1.132,4.076,4.076,0,0,0-.975,2.771,4.7,4.7,0,0,0,.808,2.78,2.955,2.955,0,0,0,2.563,1.371,3.24,3.24,0,0,0,2.565-1.266,4.054,4.054,0,0,0,.989-2.686A3.16,3.16,0,0,0,802.7,774.935Zm-2.179.265a2.021,2.021,0,0,1,.79.209,3.855,3.855,0,0,0,.636.26,4.123,4.123,0,0,1,.548,1.705,3.691,3.691,0,0,1-.5,1.964,1.707,1.707,0,0,1-1.545.94,1.5,1.5,0,0,1-1.362-.874,3.407,3.407,0,0,1-.446-1.764,2.925,2.925,0,0,1,.458-1.707A1.562,1.562,0,0,1,800.519,775.2Z" transform="translate(0 0)"/><path id="u" d="M812.361,779.652a1.182,1.182,0,0,1-.34-.282,3.687,3.687,0,0,1-.173-1.4v-1.528c0-.193.022-.511.065-.921.045-.447.067-.781.067-1.021a.983.983,0,0,0-.169-.58.671.671,0,0,0-.6-.334.71.71,0,0,0-.765.781v3.337a3.382,3.382,0,0,1-.462,1.8,1.537,1.537,0,0,1-1.4.81c-.3,0-1.228,0-1.228-2.274V775.8c0-.131,0-.355.016-.662s.034-.529.034-.7c0-.255-.094-.848-.964-.848a.635.635,0,0,0-.665.715v4.134a3.674,3.674,0,0,0,.633,2.244,2.566,2.566,0,0,0,2.157.961,2.525,2.525,0,0,0,2.041-.978,2.075,2.075,0,0,0,.084.256,1.042,1.042,0,0,0,.808.719.247.247,0,0,0,.039,0,.215.215,0,0,0,.056-.007,1.638,1.638,0,0,0,.755-.621,1.5,1.5,0,0,0,.4-.834C812.761,779.89,812.456,779.709,812.361,779.652Z" transform="translate(0 0)"/></g><g id="Ghostly_Field_Club._ZUN_s_Music_Collection_Vol.2-2" data-name="Ghostly Field Club. ZUN’s Music Collection Vol.2"><path d="M501.594,674.024a13.759,13.759,0,0,1-7.163-1.642,8.034,8.034,0,0,1-3.875-6.194,8.261,8.261,0,0,1-.127-1.474c0-3.2,1.264-6.656,3.75-10.363a26.165,26.165,0,0,1,7.668-7.71A10.4,10.4,0,0,1,507.534,645c1.9,0,3.285.674,3.285,2.148a5.819,5.819,0,0,1-1.263,3.034c-.337-2.065-1.348-2.992-2.739-2.992a7.451,7.451,0,0,0-4.044,1.643,16.881,16.881,0,0,0-3.328,3.118c-2.275,2.906-3.708,4.845-4.3,5.772a13.014,13.014,0,0,0-2.232,6.7,6.766,6.766,0,0,0,3.2,5.982,12.376,12.376,0,0,0,6.951,1.855,12.543,12.543,0,0,0,5.9-1.307,2.7,2.7,0,0,0,1.727-2.4,4.533,4.533,0,0,0-1.769-3.2,7.913,7.913,0,0,0-3.538-2.107,2.825,2.825,0,0,0-.675-.042c-.379,0-1.39.085-1.77.085a1.688,1.688,0,0,1-.5-.043q-1.644-.315-2.023-1.01a16.807,16.807,0,0,1-.379-1.938c4.339,0,7.625.042,9.943.168a38.3,38.3,0,0,1,7.288,1.012c-.295,1.3-.464,2.021-.506,2.106a1.894,1.894,0,0,1-1.854.842c-.169,0-.927.042-1.137.042a4.383,4.383,0,0,0,.5-.126q1.137-.252,1.138-.379c0-.084-.59-.127-1.727-.127a9.68,9.68,0,0,0-1.559.085l-1.391.5c.506.885,1.012,1.727,1.517,2.612a6.6,6.6,0,0,1,.843,2.739c0,1.348-.885,2.317-2.949,2.949A30.924,30.924,0,0,1,501.594,674.024Z" transform="translate(0 0)" fill="#000000"/><path d="M524.723,662.4a7.921,7.921,0,0,1,1.811-.926c.5.21,1.854.968,2.36,1.178.168-.126.5.085.968.675.463.674.758,1.053.8,1.1a33.584,33.584,0,0,1,3.581,5.94c.843-.211,1.307.969,1.77,1.77.506-.168.969.969,1.179,2.949-1.052-.211-2.359-1.138-3.834-2.865-1.263-1.559-2.527-3.075-3.749-4.634-1.39-1.643-2.528-2.443-3.412-2.443-1.011,0-1.854.8-2.654,2.864-.675,1.854-1.1,3.033-1.265,3.581a18.684,18.684,0,0,0-.5,2.317c-.5,0-.968,0-1.474-.042a5.148,5.148,0,0,0-.885.042,80.369,80.369,0,0,1-.8-12.175c0-2.065.042-4.718.084-7.962.085-3.244.127-5.014.127-5.351a6.921,6.921,0,0,1,2.7,3.918,19.915,19.915,0,0,1,.5,5.056c0,.885-.043,1.811-.043,2.7,0,1.264,0,2.107.043,2.527s.168,1.012.337,1.812C523.838,663.113,524.638,662.439,524.723,662.4Z" transform="translate(0 0)" fill="#000000"/><path d="M557.584,668.675c0,2.822-1.77,4.55-5.772,5.223a11.147,11.147,0,0,1-2.149.169,13.9,13.9,0,0,1-8-2.444c-2.4-1.643-3.581-3.538-3.581-5.729,0-2.149,1.264-4.255,4.3-6.236a8.955,8.955,0,0,1,5.1-1.516,9.263,9.263,0,0,1,8.467,5.1A12.244,12.244,0,0,1,557.584,668.675Zm-16.136-4.719a1.911,1.911,0,0,0-.59,1.39,5.371,5.371,0,0,0,.253,1.432,6.047,6.047,0,0,0,3.076,3.918,10.2,10.2,0,0,0,5.055,1.222c2.191,0,4.508-.463,5.393-1.643a3.35,3.35,0,0,0,.716-2.106,8.214,8.214,0,0,0-1.18-3.75,11.3,11.3,0,0,0-3.117-3.159,8.269,8.269,0,0,0-4.508-1.981,1.991,1.991,0,0,0-2.023,1.644,2.53,2.53,0,0,1-.42,1.137Z" transform="translate(0 0)" fill="#000000"/><path d="M563.945,664.63c-4.718-1.348-5.308-2.78-5.561-4.213,0-1.349,1.179-2.612,3.539-3.834a12.7,12.7,0,0,1,5.645-1.643,7.574,7.574,0,0,1,4.044,1.348c1.391.885,2.065,1.77,2.065,2.7,0,.8-.632,1.433-1.938,1.9-.675-2.486-2.149-3.539-4.129-3.539a9.2,9.2,0,0,0-5.982,2.949c1.18.547,2.949,1.222,5.266,2.021,2.7.885,4.507,1.56,5.477,1.939a18.178,18.178,0,0,1,4.676,2.527,4.533,4.533,0,0,1,1.9,3.16c0,1.222-.758,2.318-2.275,3.2a9.419,9.419,0,0,1-4.929,1.348,9.534,9.534,0,0,1-5.645-1.937c-1.981-1.391-2.865-2.907-2.7-4.551,3.2,1.054,6.4,2.064,9.606,3.118a8.994,8.994,0,0,0,3.454-.759,8.379,8.379,0,0,0-3.876-3.159,52.023,52.023,0,0,0-5.013-1.6C566.347,665.3,565.167,664.967,563.945,664.63Z" transform="translate(0 0)" fill="#000000"/><path d="M587.327,652.749c.126-.252.759-.5,1.981-.8.168.969.337,1.98.546,2.949a2.812,2.812,0,0,0,1.855,1.854c.969.3,1.6.548,1.937.674a19.905,19.905,0,0,1,2.191,1.053c-2.4.21-4,.379-4.887.547-1.474.3-2.232,1.307-2.232,3.034-.043.589-.169,1.474-.337,2.612a19.218,19.218,0,0,0-.253,2.738c0,2.823,1.137,4.129,4.128,4.129a24.039,24.039,0,0,0,3.581-.758,7.92,7.92,0,0,1,1.727-.338,4.515,4.515,0,0,1,2.4.506,3.582,3.582,0,0,1-2.528,2.486,13.3,13.3,0,0,1-4.17.505c-.969,0-1.9-.042-2.781-.042-2.022,0-3.455-.589-4.34-1.811a7.563,7.563,0,0,1-1.1-4.382,21.214,21.214,0,0,1,.422-4.171c.084-.421.379-1.726.884-3.876a13.82,13.82,0,0,0-2.359-.379c-.969-.126-1.559-.168-1.811-.211-.969-.126-1.433-.294-1.475-.5a4.784,4.784,0,0,0-.295-1.263c1.77-.169,3.075-.338,3.876-.464q2.212-.38,2.654-1.9C587.074,654.224,587.2,653.466,587.327,652.749Z" transform="translate(0 0)" fill="#000000"/><path d="M605.906,664.419c.379,3.75.589,6.109.589,7.036a17.725,17.725,0,0,1-.252,3.033,4.4,4.4,0,0,1-2.949-2.19,8.053,8.053,0,0,1-.632-3.539c0-1.307.084-2.655.126-4V664c-.042-.337-.084-.59-.084-.759-.548-4.8-1.138-9.141-1.769-13.059,2.106,0,3.5,1.179,4.17,3.581a26.035,26.035,0,0,1,.548,6.53A40.365,40.365,0,0,0,605.906,664.419Z" transform="translate(0 0)" fill="#000000"/><path d="M619.05,668.085a3.059,3.059,0,0,0,.675-2.149,10.611,10.611,0,0,0-.169-1.685,10.6,10.6,0,0,1-.168-1.686,2.1,2.1,0,0,1,1.473-2.274c.422-.253,1.012.379,1.77,1.854a20.453,20.453,0,0,1,1.222,2.864,41.988,41.988,0,0,1,2.317,7.5c.127.717.422,2.106.843,4.129a37.412,37.412,0,0,1,.968,6.951,11.067,11.067,0,0,1-.589,3.918,14.412,14.412,0,0,1-2.781,5.224c-1.3,1.559-2.612,2.318-3.96,2.318-1.685,0-3.16-1.138-4.507-3.961a44.632,44.632,0,0,1-2.234-5.35,17.525,17.525,0,0,1-.927-5.435,9.772,9.772,0,0,1,.169-2.275c.337-1.853,1.643-3.455,3.876-4.76a21.918,21.918,0,0,1,6.235-2.318c-.379-.8-.8-1.558-1.18-2.359-2.063,1.264-3.285,1.98-3.665,2.191a8.818,8.818,0,0,1-4,1.18c-3.286.126-5.771-3.329-5.6-7.036a10.3,10.3,0,0,1,1.981-6.446c.168,2.57.337,4.676.5,6.235.338,2.991,1.727,4.466,4.171,4.466h.675A4.233,4.233,0,0,0,619.05,668.085Zm2.064,24.182c1.391,0,2.529-.969,3.413-2.95a13.349,13.349,0,0,0,1.095-5.349,29.467,29.467,0,0,0-1.18-8.3c-.463-1.559-1.01-2.148-1.853-2.148a9.676,9.676,0,0,0-2.907.968c-3.16,1.306-4.8,4.719-4.8,8.553,0,3.665,1.475,6.993,4.214,8.636A4.113,4.113,0,0,0,621.114,692.267Z" transform="translate(0 0)" fill="#000000"/><path d="M651.363,644.239a5.613,5.613,0,0,1,3.328-.759c.464,0,1.222.043,2.36.085s1.769.084,1.895.084a61.325,61.325,0,0,0,6.531-.463c5.94-.716,9.605-1.053,11.08-1.053,1.179,0,1.98.042,2.443.084s1.138.127,1.938.253a4.823,4.823,0,0,1-2.4,2.19,8.24,8.24,0,0,1-3.16.506c-.59,0-1.517-.042-2.822-.168s-2.276-.169-2.908-.169c-1.1,0-2.907.084-5.434.3s-4.466.295-5.857.295c-2.653.211-4.338.632-4.97,1.222a3.867,3.867,0,0,0-.927,2.949,46.588,46.588,0,0,0,1.18,9.478A45.33,45.33,0,0,1,664,657.847a24.882,24.882,0,0,1,6.235.632,5.418,5.418,0,0,0-.042.927c0,.5,0,1.011.042,1.475a55.168,55.168,0,0,1-5.813-.506,48.187,48.187,0,0,0-6.068-.548,17.39,17.39,0,0,0-4.127.464c-1.517.379-1.9,1.643-1.9,3.707,0,1.138.085,2.275.127,3.412a17.013,17.013,0,0,0,.168,2.276c.127.884.211,1.432.211,1.6,0,1.349-.59,2.107-2.78,2.612a70.462,70.462,0,0,1-.422-8.8q0-2.718.127-6.447c.21-5.771.295-9.352.295-10.827C650.058,646.093,650.479,644.871,651.363,644.239Z" transform="translate(0 0)" fill="#000000"/><path d="M680.222,672.045c1.306,0,3.033-.969,4.591-1.686.338-.126.633.253.843,1.1a14.743,14.743,0,0,1,.337,1.854,26.952,26.952,0,0,1-5.939.926c-2.529,0-4.34-.673-5.309-2.7a4.1,4.1,0,0,1-.422-1.937,8.947,8.947,0,0,1,1.518-4.593,13.944,13.944,0,0,1,3.033-3.538,5.64,5.64,0,0,1-.548,2.7,23.65,23.65,0,0,0-1.643,4.887,2.465,2.465,0,0,0,1.6,2.485A4.158,4.158,0,0,0,680.222,672.045Zm-.295-18.158c0-.8.843-1.433,1.348-1.938a4.12,4.12,0,0,1,1.137,2.107c0,.632-.758,1.094-2.316,1.474A7.4,7.4,0,0,1,679.927,653.887Z" transform="translate(0 0)" fill="#000000"/><path d="M689.912,672.213a4.174,4.174,0,0,1-2.991-4.044,3.671,3.671,0,0,1,.042-.759c.3-2.485,2.359-4.381,6.235-5.687a28.532,28.532,0,0,1,9.184-1.432,10.053,10.053,0,0,1,4.213,1.137c1.812.884,2.739,1.811,2.739,2.865a2.668,2.668,0,0,1-1.012,1.895,11.2,11.2,0,0,1-7.2,2.487c-2.738,0-5.014-1.012-5.855-3.076a29.414,29.414,0,0,1,4.044.422,19.548,19.548,0,0,0,2.19.209,6.032,6.032,0,0,0,5.014-2.4c-.843-.421-1.685-.842-2.528-1.306a5.528,5.528,0,0,0-2.359-.5,6.886,6.886,0,0,0-1.012.042,26.153,26.153,0,0,0-4.8.758,10.342,10.342,0,0,0-4.086,2.191,3.907,3.907,0,0,0-1.686,2.7c0,1.138,1.012,2.065,3.075,2.781a19.574,19.574,0,0,0,5.1,1.053c4.424,0,8.553.253,13.608.464,2.528.084,4.508.126,5.983.126-2.234,1.811-5.688,2.528-9.9,2.528a53.618,53.618,0,0,1-6.741-.506c-2.822-.422-4.8-.716-5.9-.842A25.516,25.516,0,0,1,689.912,672.213Z" transform="translate(0 0)" fill="#000000"/><path d="M723.742,664.419c.379,3.75.589,6.109.589,7.036a17.725,17.725,0,0,1-.252,3.033,4.393,4.393,0,0,1-2.949-2.19,8.053,8.053,0,0,1-.632-3.539c0-1.307.084-2.655.126-4V664c-.042-.337-.084-.59-.084-.759-.548-4.8-1.138-9.141-1.769-13.059,2.106,0,3.5,1.179,4.17,3.581a26.035,26.035,0,0,1,.548,6.53A40.365,40.365,0,0,0,723.742,664.419Z" transform="translate(0 0)" fill="#000000"/><path d="M729.219,667.41c0,2.654,1.263,3.75,3.286,3.75a13.644,13.644,0,0,0,6.319-2.148,18.5,18.5,0,0,0,4.634-3.413c1.138-1.222,1.6-3.96,1.6-7.2a40.765,40.765,0,0,0-.38-5.6,21.287,21.287,0,0,0-1.011-3.329,12.014,12.014,0,0,1-.8-4.044,7.408,7.408,0,0,1,.211-2.4,4.166,4.166,0,0,1,2.149-.548,94.743,94.743,0,0,1,2.4,21.949,11.742,11.742,0,0,0,.927,4.424q2.022,5.055,2.022,6.825a5.266,5.266,0,0,1-3.749-2.4,18.818,18.818,0,0,1-2.191-4.677,51.14,51.14,0,0,0-5.856,2.823,14.356,14.356,0,0,1-6.235,2.065,6.223,6.223,0,0,1-5.1-2.529,5.43,5.43,0,0,1-1.432-3.581c0-1.979,1.179-3.749,3.539-5.392a11.726,11.726,0,0,1,6.656-2.275c2.233,0,3.792,1.053,3.792,3.2,0,.169-.042.464-.085.927a15.6,15.6,0,0,1-2.527-1.348,4.615,4.615,0,0,0-2.276-.842,4.135,4.135,0,0,0-1.726.421C731.156,662.944,729.219,665.178,729.219,667.41Z" transform="translate(0 0)" fill="#000000"/><path d="M772.486,660.5a12.662,12.662,0,0,1,4.129-9.395,13.617,13.617,0,0,1,9.817-3.96h1.01c.295.042.506.084.632.084a5.085,5.085,0,0,1,3.075,1.348,3.335,3.335,0,0,1,.928,2.444,5.437,5.437,0,0,1-1.516,3.666,4.539,4.539,0,0,1-3.456,1.727,3.974,3.974,0,0,1-2.57-.885c3.371-1.516,5.183-2.738,5.183-4.129a1.955,1.955,0,0,0-.422-1.221,3.437,3.437,0,0,0-3.033-1.559c-2.065,0-4.381,1.053-6.951,3.2-2.486,2.065-3.876,3.876-4.255,5.478a9.773,9.773,0,0,0-.253,2.232,12.725,12.725,0,0,0,2.022,6.656,8.892,8.892,0,0,0,4.761,3.287l5.56,1.769c1.9.8,2.992,1.854,3.329,3.244-.716.042-1.264.084-1.643.084a17.708,17.708,0,0,1-10.28-3.244,13.159,13.159,0,0,1-5.9-8.679A11.05,11.05,0,0,1,772.486,660.5Z" transform="translate(0 0)" fill="#000000"/><path d="M798.186,664.419c.378,3.75.588,6.109.588,7.036a17.725,17.725,0,0,1-.252,3.033,4.4,4.4,0,0,1-2.949-2.19,8.053,8.053,0,0,1-.632-3.539c0-1.307.084-2.655.126-4V664c-.042-.337-.084-.59-.084-.759-.547-4.8-1.137-9.141-1.769-13.059,2.106,0,3.5,1.179,4.171,3.581a26.035,26.035,0,0,1,.548,6.53A40.365,40.365,0,0,0,798.186,664.419Z" transform="translate(0 0)" fill="#000000"/><path d="M813.394,665.178c.085-3.665.8-5.73,2.148-6.11a28.78,28.78,0,0,1,.759,3.286,30.886,30.886,0,0,0,1.053,4.045,7.16,7.16,0,0,0,3.286,3.287,4.915,4.915,0,0,1,2.612,3.623,8.623,8.623,0,0,1-4.129-1.433,8.453,8.453,0,0,0-3.623-1.433,3.173,3.173,0,0,0-1.727.506c-1.1.843-1.9,1.433-2.359,1.77a6.682,6.682,0,0,1-2.991,1.179,5.7,5.7,0,0,1-.927.042,5.965,5.965,0,0,1-4.719-2.232,7.739,7.739,0,0,1-1.9-5.1,5.316,5.316,0,0,1,3.37-5.139c0,.295-.042.883-.085,1.853s-.084,1.727-.084,2.317a10.46,10.46,0,0,0,.632,4.129,3.1,3.1,0,0,0,3.033,1.9,7.159,7.159,0,0,0,1.265-.127C811.835,670.991,813.31,668.843,813.394,665.178Z" transform="translate(0 0)" fill="#000000"/><path d="M824.137,645.5q0-1.074,1.263-1.264c1.222-.126,2.107,1.18,2.57,3.96a33.783,33.783,0,0,1,.38,5.562,15.24,15.24,0,0,0,.631,3.876c.421.674,1.728,1.179,3.876,1.516A19.377,19.377,0,0,1,839.3,661.3c2.57,1.39,4.3,2.991,5.1,4.886a7.4,7.4,0,0,1,.59,2.655q0,2.843-3.286,4.171a19.679,19.679,0,0,1-7.33,1.137,28.75,28.75,0,0,1-9.563-1.432,17.326,17.326,0,0,0,1.6-7.92,47.118,47.118,0,0,0-.5-6.068c-.717-5.349-1.095-8.8-1.095-10.321C824.6,647.441,824.347,646.472,824.137,645.5Zm6.361,26.289a7.789,7.789,0,0,0,4.382.927,11.233,11.233,0,0,0,4.718-.927c1.727-.759,2.57-1.812,2.57-3.2v-.674c-.084-.253-.127-.421-.169-.506-.337-1.053-1.475-2.232-3.37-3.538a15.484,15.484,0,0,0-4.929-2.4,8.069,8.069,0,0,0-2.064-.295,2.357,2.357,0,0,0-2.276,1.221,7.349,7.349,0,0,0-.463,2.992c0,.841,0,1.726.042,2.611C828.939,669.812,829.444,671.076,830.5,671.792Z" transform="translate(0 0)" fill="#000000"/><path d="M851.563,671.244a16.414,16.414,0,0,1-2.654-.3,4.858,4.858,0,0,1,1.1-2.612,8.793,8.793,0,0,1,2.486-1.559c-.295.127-.422.211-.422.337,0,.337,1.222.295,1.6.295C853.67,670.486,853.248,671.244,851.563,671.244Z" transform="translate(0 0)" fill="#000000"/><path d="M560.675,911.18c1.546.084,2.782.14,3.71.14.9,0,1.574-.028,2-.056a14.742,14.742,0,0,0,1.968-.366,4.094,4.094,0,0,0,1.264-.618,2.781,2.781,0,0,1,1.377-.562c1.013,0,1.407.477,1.407,1.18a3.871,3.871,0,0,1-.76,1.968,7.7,7.7,0,0,1-1.321,1.6,49.6,49.6,0,0,1-4.553,3.738q-3.2,2.445-4.638,3.71a21.1,21.1,0,0,0-3.879,4.441,11.117,11.117,0,0,0,3.6.843c1.518.141,2.951.253,4.329.337.337.028.675.028,1.012.028.534,0,.983,0,1.348-.028a3.489,3.489,0,0,1,1.069.2,1.851,1.851,0,0,0,.5.113c.451,0,1.012-.31,1.771-1.462a4.943,4.943,0,0,1,1.013-1.237,8.311,8.311,0,0,1,1.039,3.317c0,.983-.533,1.574-1.8,1.574a8.9,8.9,0,0,1-1.208-.141c-1.856-.365-3.261-.589-4.244-.73a32.912,32.912,0,0,0-4.3-.31,22.025,22.025,0,0,0-3.345.253,17.925,17.925,0,0,1-4.216.759c-1.321,0-1.882-.7-1.882-1.377a1.687,1.687,0,0,1,.449-1.1,12.1,12.1,0,0,1,1.743-1.489c.955-.73,1.967-1.574,3.007-2.5s2.052-1.827,3.036-2.7c1.518-1.35,2.529-2.249,3.035-2.671l2.951-2.445a17.217,17.217,0,0,0,2.586-2.7,17.114,17.114,0,0,0-3.766-.366c-.787,0-1.771.029-2.923.113q-3.921.253-4.807.253a2.1,2.1,0,0,0-2.276,1.461,4.264,4.264,0,0,1-1.687,2.5,9.292,9.292,0,0,1-.9-3.428,2.215,2.215,0,0,1,2.5-2.53C555.7,910.9,557.611,910.982,560.675,911.18Z" transform="translate(0 0)" fill="#000000"/><path d="M575.714,920.427c0-.816,0-1.434.028-1.856s.141-1.77.337-4.1a6.226,6.226,0,0,1,.113-1.546.958.958,0,0,1,.955-.816c.816,0,1.1.76,1.1,1.884,0,.871-.085,1.489-.169,2.474,0,.59-.028,1.208-.056,1.883-.084,1.715-.141,2.782-.141,3.26a13.69,13.69,0,0,0,.562,4.272c.422,1.321.9,1.715,1.6,1.715a3.742,3.742,0,0,0,1.63-.563c.506-.308.9-.534,1.152-.674a10.232,10.232,0,0,0,2.7-2.249,6.113,6.113,0,0,0,1.659-2.894,13.808,13.808,0,0,0,.084-1.519c0-.421-.028-1.124-.056-2.107s-.057-1.518-.057-1.546c0-.534,0-.646.029-1.181,0-.871.14-1.4.45-1.63a3.975,3.975,0,0,1,1.517-.337c.253,3.176.535,6.324.788,9.5a38.779,38.779,0,0,0,2.7,4.384,4.767,4.767,0,0,1,.955,2.643,5.072,5.072,0,0,1-.084.871,10.886,10.886,0,0,1-3.261-2.867,17.123,17.123,0,0,1-2.276-3.851c-2.024,1.968-3.655,3.457-4.919,4.5a5.957,5.957,0,0,1-3.373,1.658c-.984,0-1.742-.477-2.417-1.8A15.6,15.6,0,0,1,575.714,920.427Z" transform="translate(0 0)" fill="#000000"/><path d="M608.235,925.4a9.862,9.862,0,0,0,3.289,1.743,3.406,3.406,0,0,0,.955.168,1.535,1.535,0,0,0,1.546-1.1,7.226,7.226,0,0,0,.337-2.5c0-.281,0-.7-.027-1.265-.028-.59-.028-.983-.028-1.236a35.13,35.13,0,0,0-.619-5.931c-.562-3.232-.872-5.228-.956-5.959a21.714,21.714,0,0,1-.646-3.4c0-.619.169-.928.534-.928a1.946,1.946,0,0,1,1.687,1.883,8.629,8.629,0,0,1-.253,1.546,5.546,5.546,0,0,0-.141.9,7.713,7.713,0,0,0,.31,1.771c.139.591.308,1.209.477,1.8a71.608,71.608,0,0,1,1.181,11.467,11.958,11.958,0,0,1-.338,3.345,2.28,2.28,0,0,1-2.248,1.856c-.112,0-.31-.029-.563-.057a12.576,12.576,0,0,1-5.171-2.276,23.02,23.02,0,0,1-4.216-4.1,49.546,49.546,0,0,1-3.288-4.694,19.789,19.789,0,0,0-.844,3.289,19.312,19.312,0,0,0-.337,3.428,9.763,9.763,0,0,0,.169,1.6,9.343,9.343,0,0,1,.168,1.292c0,.9-.394,1.4-1.94,1.855,0-1.1.057-2.838.2-5.227s.2-4.189.2-5.453c0-.253.057-.928.057-1.181,0-.534-.057-1.293-.141-2.333s-.141-1.8-.141-2.276a6.651,6.651,0,0,1,.225-2.108,13.921,13.921,0,0,1,2.979,3.4c.394.591,1.209,1.967,2.417,4.132a28.691,28.691,0,0,0,2.531,3.934A15.412,15.412,0,0,0,608.235,925.4Z" transform="translate(0 0)" fill="#000000"/><path d="M622.6,914.271a1.351,1.351,0,0,0,.619-.984,1.405,1.405,0,0,0-.31-.759c-.562-.758-.843-1.18-.871-1.208a2.138,2.138,0,0,1-.112-.758,2.683,2.683,0,0,1,.7-1.856,2.147,2.147,0,0,1,1.631-.815c.843-.141,2.079,1.068,2.136,2.108a2.564,2.564,0,0,1-.337,1.04,8.085,8.085,0,0,0-.451,1.067,14.829,14.829,0,0,1-1.152,3.092,4.431,4.431,0,0,1-2.417,2.052,5.508,5.508,0,0,0-.45-.7,1.435,1.435,0,0,1-.337-.9C621.28,915.451,621.729,914.974,622.6,914.271Z" transform="translate(0 0)" fill="#000000"/><path d="M630.528,923.715c-3.148-.9-3.542-1.855-3.711-2.811,0-.9.787-1.742,2.362-2.557a8.471,8.471,0,0,1,3.766-1.1,5.07,5.07,0,0,1,2.7.9c.927.591,1.377,1.181,1.377,1.8,0,.534-.422.956-1.293,1.266a2.732,2.732,0,0,0-2.754-2.361,6.145,6.145,0,0,0-3.992,1.967c.787.366,1.967.815,3.513,1.349,1.8.591,3.008,1.04,3.654,1.293a12.17,12.17,0,0,1,3.12,1.686,3.024,3.024,0,0,1,1.265,2.109,2.549,2.549,0,0,1-1.518,2.136,6.289,6.289,0,0,1-3.288.9A6.363,6.363,0,0,1,631.961,929c-1.32-.928-1.911-1.939-1.8-3.035,2.137.7,4.273,1.377,6.409,2.079a5.992,5.992,0,0,0,2.3-.506,5.6,5.6,0,0,0-2.586-2.107,35.006,35.006,0,0,0-3.345-1.069C632.13,924.165,631.343,923.939,630.528,923.715Z" transform="translate(0 0)" fill="#000000"/><path d="M664.483,921.3a5.732,5.732,0,0,0,.955-.084c1.434-.2,2.7-1.181,3.852-2.9a19.961,19.961,0,0,0,2.107-4.637c.31-1.1.647-2.193.984-3.288a3.446,3.446,0,0,1,2.165-2.249,11.935,11.935,0,0,1,.28,2.642,28.14,28.14,0,0,1-.337,3.766,29.633,29.633,0,0,0-.422,3.682,24.161,24.161,0,0,0,.422,4.1c.141.815.31,1.6.45,2.417a31.716,31.716,0,0,0,1.714,4.1,6.409,6.409,0,0,1,.675,2.615,5.972,5.972,0,0,1-3.541-3.514,24.15,24.15,0,0,1-1.378-5.649,35.735,35.735,0,0,0-1.012-5.06,10.347,10.347,0,0,1-3.259,4.1,7.006,7.006,0,0,1-4.048,1.18,18.827,18.827,0,0,1-6.155-1.32,9.861,9.861,0,0,0-.535,3.6c0,.618.029,1.432.057,2.417.056.983.084,1.629.084,1.882-.675.141-1.35.253-2,.394a15.381,15.381,0,0,1-.338-3.261q0-1.179.084-2.36.253-3.585.254-3.879a13.013,13.013,0,0,0-.113-1.6q-.252-2.234-.253-2.866a3.684,3.684,0,0,1,1.546-3.43,15.429,15.429,0,0,1,.927,3.514c.478,2.614,1.491,4.189,3.035,4.778A9.8,9.8,0,0,0,664.483,921.3Zm7.252-3.935c.309,0,.478-.085.478-.281a1.071,1.071,0,0,0-.422-.618c.169-.141.337-.31.534-.479a1.148,1.148,0,0,1,.169-.14,8.971,8.971,0,0,0-.844.759c-.534.506-.787.787-.787.872.085,0,.085.027.534-.226C671.51,917.278,671.622,917.335,671.735,917.363Z" transform="translate(0 0)" fill="#000000"/><path d="M686.409,924.08c.057-2.445.534-3.822,1.434-4.075a19.607,19.607,0,0,1,.506,2.192,20.517,20.517,0,0,0,.7,2.7,4.781,4.781,0,0,0,2.192,2.192,3.28,3.28,0,0,1,1.743,2.417,5.769,5.769,0,0,1-2.755-.955,5.628,5.628,0,0,0-2.417-.956,2.116,2.116,0,0,0-1.152.337c-.73.562-1.265.956-1.574,1.18a4.44,4.44,0,0,1-2,.787,3.668,3.668,0,0,1-.618.029,3.983,3.983,0,0,1-3.149-1.49,5.16,5.16,0,0,1-1.264-3.4,3.547,3.547,0,0,1,2.248-3.429c0,.2-.028.59-.056,1.237S680.2,924,680.2,924.39a6.974,6.974,0,0,0,.422,2.754,2.066,2.066,0,0,0,2.024,1.265,4.679,4.679,0,0,0,.843-.085C685.369,927.959,686.353,926.525,686.409,924.08Z" transform="translate(0 0)" fill="#000000"/><path d="M697.12,923.715c-3.148-.9-3.542-1.855-3.711-2.811,0-.9.787-1.742,2.362-2.557a8.468,8.468,0,0,1,3.766-1.1,5.065,5.065,0,0,1,2.7.9c.928.591,1.377,1.181,1.377,1.8,0,.534-.422.956-1.293,1.266a2.731,2.731,0,0,0-2.754-2.361,6.145,6.145,0,0,0-3.991,1.967c.786.366,1.967.815,3.513,1.349,1.8.591,3.008,1.04,3.654,1.293a12.145,12.145,0,0,1,3.119,1.686,3.023,3.023,0,0,1,1.266,2.109,2.548,2.548,0,0,1-1.519,2.136,6.286,6.286,0,0,1-3.288.9A6.361,6.361,0,0,1,698.553,929c-1.321-.928-1.911-1.939-1.8-3.035,2.137.7,4.272,1.377,6.409,2.079a6,6,0,0,0,2.3-.506,5.6,5.6,0,0,0-2.586-2.107,35.006,35.006,0,0,0-3.345-1.069C698.722,924.165,697.935,923.939,697.12,923.715Z" transform="translate(0 0)" fill="#000000"/><path d="M712.523,928.662a9.074,9.074,0,0,0,3.064-1.125c.225-.084.422.169.562.732a9.876,9.876,0,0,1,.225,1.236,17.985,17.985,0,0,1-3.963.618c-1.686,0-2.894-.449-3.541-1.8a2.73,2.73,0,0,1-.281-1.293,5.968,5.968,0,0,1,1.012-3.063,9.321,9.321,0,0,1,2.023-2.361,3.75,3.75,0,0,1-.365,1.8,15.786,15.786,0,0,0-1.1,3.26,1.645,1.645,0,0,0,1.067,1.658A2.767,2.767,0,0,0,712.523,928.662Zm-.2-12.114c0-.534.562-.956.9-1.293a2.751,2.751,0,0,1,.758,1.4c0,.422-.506.731-1.546.984A4.977,4.977,0,0,1,712.327,916.548Z" transform="translate(0 0)" fill="#000000"/><path d="M716.966,926.244c0-1.265.815-2.557,2.445-3.822a8,8,0,0,1,4.919-1.94,3.241,3.241,0,0,1,3.345,2.305,9.224,9.224,0,0,0-.985.479,6.138,6.138,0,0,1-.589.308,2.571,2.571,0,0,0-2.474-1.546,5.037,5.037,0,0,0-3.092,1.153,3.132,3.132,0,0,0-1.489,2.333,1.247,1.247,0,0,0,.308.843,6.622,6.622,0,0,0,3.683,1.912,18.106,18.106,0,0,0,4.244.449c.365,0,1.208-.056,1.518-.056,1.04,0,1.63.309,2.052,1.63-1.659,0-3.457-.112-5.454-.31a34.522,34.522,0,0,1-5.255-.871C717.922,928.55,716.966,927.565,716.966,926.244Z" transform="translate(0 0)" fill="#000000"/><path d="M745.412,920.961a8.448,8.448,0,0,1,2.755-6.269,9.086,9.086,0,0,1,6.549-2.641h.675c.2.028.337.055.421.055a3.4,3.4,0,0,1,2.051.9,2.226,2.226,0,0,1,.619,1.631,3.624,3.624,0,0,1-1.011,2.445,3.026,3.026,0,0,1-2.306,1.152,2.647,2.647,0,0,1-1.714-.59c2.248-1.012,3.457-1.827,3.457-2.754a1.3,1.3,0,0,0-.281-.816,2.3,2.3,0,0,0-2.023-1.04,7.58,7.58,0,0,0-4.638,2.137c-1.658,1.377-2.586,2.586-2.839,3.653a6.577,6.577,0,0,0-.169,1.49,8.489,8.489,0,0,0,1.35,4.441,5.926,5.926,0,0,0,3.175,2.192l3.71,1.181a3.332,3.332,0,0,1,2.221,2.164c-.477.028-.843.057-1.1.057a11.822,11.822,0,0,1-6.857-2.165,8.784,8.784,0,0,1-3.936-5.79A7.442,7.442,0,0,1,745.412,920.961Z" transform="translate(0 0)" fill="#000000"/><path d="M772.172,926.413c0,1.883-1.181,3.035-3.851,3.485a7.437,7.437,0,0,1-1.433.113,9.272,9.272,0,0,1-5.34-1.63,4.624,4.624,0,0,1-2.39-3.822c0-1.434.844-2.839,2.867-4.161a5.978,5.978,0,0,1,3.4-1.011,6.183,6.183,0,0,1,5.649,3.4A8.164,8.164,0,0,1,772.172,926.413Zm-10.765-3.147a1.271,1.271,0,0,0-.393.926,3.539,3.539,0,0,0,.169.956,4.037,4.037,0,0,0,2.051,2.615,6.813,6.813,0,0,0,3.372.814c1.462,0,3.008-.308,3.6-1.1a2.23,2.23,0,0,0,.479-1.4,5.494,5.494,0,0,0-.787-2.5,7.555,7.555,0,0,0-2.081-2.107,5.512,5.512,0,0,0-3.007-1.321,1.326,1.326,0,0,0-1.349,1.1,1.7,1.7,0,0,1-.281.759Z" transform="translate(0 0)" fill="#000000"/><path d="M776.192,923.574c.253,2.5.394,4.075.394,4.7a11.833,11.833,0,0,1-.169,2.023,2.931,2.931,0,0,1-1.967-1.462,5.372,5.372,0,0,1-.422-2.36c0-.872.056-1.772.084-2.671v-.506c-.028-.225-.055-.394-.055-.506-.366-3.2-.759-6.1-1.181-8.713,1.4,0,2.333.787,2.782,2.39a17.373,17.373,0,0,1,.365,4.356A27.128,27.128,0,0,0,776.192,923.574Z" transform="translate(0 0)" fill="#000000"/><path d="M781.168,923.574c.253,2.5.394,4.075.394,4.7a11.833,11.833,0,0,1-.169,2.023,2.931,2.931,0,0,1-1.967-1.462,5.372,5.372,0,0,1-.422-2.36c0-.872.056-1.772.084-2.671v-.506c-.028-.225-.056-.394-.056-.506-.365-3.2-.759-6.1-1.18-8.713,1.4,0,2.333.787,2.782,2.39A17.373,17.373,0,0,1,781,920.82,27.128,27.128,0,0,0,781.168,923.574Z" transform="translate(0 0)" fill="#000000"/><path d="M784.794,928.774a2.785,2.785,0,0,1-2-2.7,2.447,2.447,0,0,1,.028-.506c.2-1.658,1.574-2.924,4.159-3.8a19.057,19.057,0,0,1,6.128-.955,6.709,6.709,0,0,1,2.811.759c1.209.59,1.827,1.208,1.827,1.911a1.785,1.785,0,0,1-.675,1.265,7.475,7.475,0,0,1-4.806,1.658c-1.827,0-3.345-.675-3.907-2.052a19.451,19.451,0,0,1,2.7.282,12.935,12.935,0,0,0,1.46.14,4.025,4.025,0,0,0,3.345-1.6c-.561-.282-1.124-.562-1.686-.871a3.679,3.679,0,0,0-1.574-.337,4.754,4.754,0,0,0-.674.027,17.339,17.339,0,0,0-3.2.507A6.874,6.874,0,0,0,786,923.968a2.6,2.6,0,0,0-1.124,1.8c0,.758.675,1.377,2.052,1.855a13.046,13.046,0,0,0,3.4.7c2.952,0,5.706.169,9.079.31,1.687.055,3.007.084,3.991.084-1.49,1.209-3.795,1.686-6.605,1.686a35.727,35.727,0,0,1-4.5-.337c-1.883-.281-3.2-.478-3.935-.562A17.057,17.057,0,0,1,784.794,928.774Z" transform="translate(0 0)" fill="#000000"/><path d="M803.993,926.244c0-1.265.816-2.557,2.445-3.822a8,8,0,0,1,4.919-1.94,3.24,3.24,0,0,1,3.345,2.305,9.145,9.145,0,0,0-.984.479,6.129,6.129,0,0,1-.59.308,2.571,2.571,0,0,0-2.474-1.546,5.037,5.037,0,0,0-3.092,1.153,3.132,3.132,0,0,0-1.489,2.333,1.248,1.248,0,0,0,.309.843,6.619,6.619,0,0,0,3.682,1.912,18.114,18.114,0,0,0,4.245.449c.365,0,1.208-.056,1.517-.056,1.04,0,1.63.309,2.052,1.63-1.658,0-3.457-.112-5.453-.31a34.558,34.558,0,0,1-5.256-.871C804.949,928.55,803.993,927.565,803.993,926.244Z" transform="translate(0 0)" fill="#000000"/><path d="M823.107,915.789c.084-.169.506-.338,1.322-.534.112.646.224,1.321.365,1.968a1.876,1.876,0,0,0,1.236,1.236c.647.2,1.069.365,1.293.45a13.1,13.1,0,0,1,1.462.7c-1.6.141-2.67.253-3.261.366A1.8,1.8,0,0,0,824.035,922c-.028.394-.112.984-.224,1.743a12.642,12.642,0,0,0-.169,1.827c0,1.883.758,2.754,2.754,2.754a15.778,15.778,0,0,0,2.389-.506,5.3,5.3,0,0,1,1.153-.224,3.007,3.007,0,0,1,1.6.337,2.388,2.388,0,0,1-1.686,1.658,8.87,8.87,0,0,1-2.783.338c-.646,0-1.264-.029-1.854-.029a3.313,3.313,0,0,1-2.9-1.209,5.041,5.041,0,0,1-.73-2.922,14.141,14.141,0,0,1,.281-2.783c.056-.281.253-1.152.59-2.586a9.163,9.163,0,0,0-1.574-.252c-.647-.084-1.04-.113-1.208-.141-.647-.084-.956-.2-.985-.337a3.17,3.17,0,0,0-.2-.844c1.181-.112,2.052-.224,2.586-.308a1.958,1.958,0,0,0,1.77-1.266C822.938,916.772,823.023,916.267,823.107,915.789Z" transform="translate(0 0)" fill="#000000"/><path d="M836.6,928.662a9.078,9.078,0,0,0,3.063-1.125c.226-.084.422.169.563.732a9.713,9.713,0,0,1,.224,1.236,17.976,17.976,0,0,1-3.963.618c-1.686,0-2.894-.449-3.541-1.8a2.73,2.73,0,0,1-.281-1.293,5.968,5.968,0,0,1,1.012-3.063,9.341,9.341,0,0,1,2.023-2.361,3.738,3.738,0,0,1-.365,1.8,15.786,15.786,0,0,0-1.1,3.26,1.646,1.646,0,0,0,1.068,1.658A2.764,2.764,0,0,0,836.6,928.662Zm-.2-12.114c0-.534.562-.956.9-1.293a2.747,2.747,0,0,1,.759,1.4c0,.422-.506.731-1.546.984A4.935,4.935,0,0,1,836.4,916.548Z" transform="translate(0 0)" fill="#000000"/><path d="M854.027,926.413c0,1.883-1.18,3.035-3.85,3.485a7.448,7.448,0,0,1-1.434.113,9.277,9.277,0,0,1-5.34-1.63,4.625,4.625,0,0,1-2.389-3.822c0-1.434.843-2.839,2.867-4.161a5.977,5.977,0,0,1,3.4-1.011,6.183,6.183,0,0,1,5.65,3.4A8.174,8.174,0,0,1,854.027,926.413Zm-10.764-3.147a1.272,1.272,0,0,0-.394.926,3.578,3.578,0,0,0,.169.956,4.035,4.035,0,0,0,2.052,2.615,6.813,6.813,0,0,0,3.372.814c1.462,0,3.008-.308,3.6-1.1a2.235,2.235,0,0,0,.478-1.4,5.481,5.481,0,0,0-.787-2.5,7.549,7.549,0,0,0-2.08-2.107,5.514,5.514,0,0,0-3.008-1.321,1.327,1.327,0,0,0-1.349,1.1,1.686,1.686,0,0,1-.281.759Z" transform="translate(0 0)" fill="#000000"/><path d="M864.794,925.177a8.5,8.5,0,0,0,.618,1.967c.112.225.394.7.815,1.461a6.207,6.207,0,0,1,.758,1.687,3.329,3.329,0,0,1-3.541-2.839q-1.011-4.341-1.6-5.059a2.46,2.46,0,0,0-1.772-1.124c-.674,0-1.264.5-1.8,1.49a7.62,7.62,0,0,0-.787,2.81,23.32,23.32,0,0,1-.365,2.98,2.7,2.7,0,0,1-2,1.742,14.543,14.543,0,0,1-.169-2.221,10.05,10.05,0,0,1,4.525-8.853c.984.365,1.715.646,2.221.844A4,4,0,0,1,863.838,922,13.284,13.284,0,0,1,864.794,925.177Z" transform="translate(0 0)" fill="#000000"/><path d="M897.23,910.533a2.07,2.07,0,0,1,1.434-.9,1.032,1.032,0,0,1,.844.534,1.628,1.628,0,0,1,.393.9c0,.2-.2.421-.562.647a5.34,5.34,0,0,0-1.04.786,10.737,10.737,0,0,0-2,3.964,27.162,27.162,0,0,1-.985,3.2c-.281.759-1.011,2.445-2.164,5.087a27.161,27.161,0,0,1-1.546,3.063c-.73,1.209-1.377,1.8-1.967,1.8-.647,0-1.18-.59-1.63-2.08a51.352,51.352,0,0,0-2.024-5.2c-.591-1.321-1.377-3.036-2.361-5.088q-1.728-3.626-2.36-5.144a3.468,3.468,0,0,1,.7-.084c1.377,0,2.5,1.1,3.4,3.261a33.459,33.459,0,0,1,1.068,3.233,30.225,30.225,0,0,0,1.433,3.963,38.3,38.3,0,0,0,2.108,3.878,23.27,23.27,0,0,0,2.67-4.384,45.068,45.068,0,0,0,1.968-4.891l1.687-4.976A4.766,4.766,0,0,1,897.23,910.533Z" transform="translate(0 0)" fill="#000000"/><path d="M911.482,926.413c0,1.883-1.18,3.035-3.85,3.485a7.448,7.448,0,0,1-1.434.113,9.277,9.277,0,0,1-5.34-1.63,4.625,4.625,0,0,1-2.389-3.822c0-1.434.843-2.839,2.867-4.161a5.977,5.977,0,0,1,3.4-1.011,6.183,6.183,0,0,1,5.65,3.4A8.174,8.174,0,0,1,911.482,926.413Zm-10.764-3.147a1.272,1.272,0,0,0-.394.926,3.578,3.578,0,0,0,.169.956,4.035,4.035,0,0,0,2.052,2.615,6.813,6.813,0,0,0,3.372.814c1.462,0,3.008-.308,3.6-1.1a2.235,2.235,0,0,0,.478-1.4,5.481,5.481,0,0,0-.787-2.5,7.549,7.549,0,0,0-2.08-2.107,5.514,5.514,0,0,0-3.008-1.321,1.325,1.325,0,0,0-1.348,1.1,1.684,1.684,0,0,1-.282.759Z" transform="translate(0 0)" fill="#000000"/><path d="M915.5,923.574c.253,2.5.393,4.075.393,4.7a11.834,11.834,0,0,1-.168,2.023,2.929,2.929,0,0,1-1.967-1.462,5.357,5.357,0,0,1-.422-2.36c0-.872.056-1.772.084-2.671v-.506c-.028-.225-.056-.394-.056-.506-.365-3.2-.759-6.1-1.18-8.713,1.4,0,2.333.787,2.782,2.39a17.373,17.373,0,0,1,.365,4.356A27.128,27.128,0,0,0,915.5,923.574Z" transform="translate(0 0)" fill="#000000"/><path d="M920.9,928.128a10.912,10.912,0,0,1-1.77-.2,3.241,3.241,0,0,1,.73-1.743,5.862,5.862,0,0,1,1.659-1.04c-.2.084-.282.141-.282.225,0,.225.816.2,1.069.2C922.306,927.622,922.024,928.128,920.9,928.128Z" transform="translate(0 0)" fill="#000000"/><path d="M935.573,911.741c1.377.394,2.079,1.181,2.079,2.362a3.843,3.843,0,0,1-.084.758,6.7,6.7,0,0,1-2.023,2.98c-1.1,1.04-2.164,2.08-3.261,3.12-1.152,1.18-1.715,2.164-1.715,2.951s.367,1.4,1.462,2.052a9.383,9.383,0,0,0,4.807,1.293,27.808,27.808,0,0,0,2.978-.253,28.474,28.474,0,0,1,3.289-.253,3.6,3.6,0,0,1-2.135,1.883,9.368,9.368,0,0,1-3.318.506,14.747,14.747,0,0,1-3.653-.422,29.454,29.454,0,0,1-2.755-1.181,4.137,4.137,0,0,0-1.574-.449c-.084,0-.225.028-.421.056a3.211,3.211,0,0,0-1.434.843c-1.321,1.208-2.051,1.855-2.136,1.911a5.189,5.189,0,0,1-.084-.927c0-1.546.927-3.457,2.783-5.762,1.489-1.715,2.951-3.457,4.44-5.172q1.054-1.139,1.6-1.854a3.775,3.775,0,0,0,1.1-2.024.945.945,0,0,0-.394-.787,3.607,3.607,0,0,0-2.052-.506,4.4,4.4,0,0,0-2.755,1.012,24.818,24.818,0,0,0-2.248,2.192,1.63,1.63,0,0,1-.028-.422,4.063,4.063,0,0,1,1.405-3.035,4.54,4.54,0,0,1,3.176-1.321,3.445,3.445,0,0,1,.591.028Q934.94,911.572,935.573,911.741Z" transform="translate(0 0)" fill="#000000"/></g></g></svg>
