<svg xmlns="http://www.w3.org/2000/svg" width="1000" height="988" viewBox="0 0 1000 988"><g id="Artboard"><rect id="Tint" width="1000" height="988" fill="#58595b"/></g><g id="Outline"><g id="Copyright2015_黄昏フロンティア_上海アリス幻樂団" data-name="Copyright2015 黄昏フロンティア＆上海アリス幻樂団"><path id="Copyright2015" d="M375.748,936.453c-.027-.046-.054-.091-.083-.135a1.753,1.753,0,0,1,.177-2.881V929.5a4,4,0,0,0-4-4h-5.817a6.887,6.887,0,0,0-3.3.916,3.967,3.967,0,0,0-2.4-.821H356.05a4,4,0,0,0-3.227,1.636l-1.252,1.709a6.7,6.7,0,0,0-2.791-1.508,5.527,5.527,0,0,0-2.848-1.949,5.379,5.379,0,0,0-1.573-.236,5.674,5.674,0,0,0-4.548,2.3,5.282,5.282,0,0,0-3.853-1.9h-3.775a4,4,0,0,0-3.455,1.984l-2,3.419a3.987,3.987,0,0,0-.331.751,3.978,3.978,0,0,0-2.745-1.1h-2.683a195,195,0,0,0-4.611,3.314,7.962,7.962,0,0,0-2.575-.729V929.9a4,4,0,0,0-4-4H306.3a4,4,0,0,0-4,4v2.032h-1.378a8.066,8.066,0,0,0-6.973-.076,5.577,5.577,0,0,0-10.766,2.034c0,.1.013.2.018.307-.169-.016-.339-.031-.512-.033a3.958,3.958,0,0,0-4.581-.061,4,4,0,0,0-2.422-.819h-2.018a4,4,0,0,0-3.42,1.926l-.626,1.03-.143-.36a4,4,0,0,0-3.718-2.524h-2.184a4.011,4.011,0,0,0-1.478.285,8.357,8.357,0,0,0-2.783-.766c-.243-.025-.522-.039-.8-.039h0a8.312,8.312,0,0,0-2.789.483,4.007,4.007,0,0,0-.916-.105h-3.705a3.987,3.987,0,0,0-2.4.806,8.95,8.95,0,0,0-7.681.222,3.971,3.971,0,0,0-1.135-2.66,12.134,12.134,0,0,0-8.715-3.64,12.311,12.311,0,0,0,0,24.621,12.2,12.2,0,0,0,7.577-2.617,9.11,9.11,0,0,0,6.34,2.593,8.965,8.965,0,0,0,2.889-.482v.874a4,4,0,0,0,4,4h2.826a4,4,0,0,0,4-4V950.6a8.5,8.5,0,0,0,2.385-.448l-.282.465a4,4,0,0,0,3.421,6.072h1.994a4,4,0,0,0,3.419-1.924l4.123-6.791v.465a4,4,0,0,0,4,4h2.469a4,4,0,0,0,3.682-2.435,4,4,0,0,0,3.681,2.435h2.345a8.315,8.315,0,0,0,15.659-.059,3.984,3.984,0,0,0,.591.059h3.491a3.981,3.981,0,0,0,1.648-.354,3.979,3.979,0,0,0,2.056.568h3.49a3.979,3.979,0,0,0,3.174-1.59c.046.01.088.028.135.036a3.994,3.994,0,0,0,3.271,1.7,6.818,6.818,0,0,0,3.826-1.169,4.016,4.016,0,0,0,1.138.172h1.414a4,4,0,0,0,2.171.64h5.532a3.987,3.987,0,0,0,3.088-1.477,11.14,11.14,0,0,0,3.446,1.782,6.4,6.4,0,0,0,2.011.342,4.951,4.951,0,0,0,3.709-1.6,3.979,3.979,0,0,0,2.924,1.287h5.319a4,4,0,0,0,3.337-1.794l2.234-3.382v.843a4,4,0,0,0,4,4h5.58a4,4,0,0,0,4-4v-8.832A4,4,0,0,0,375.748,936.453Z" fill="#fff"/><path id="黄昏フロンティ" d="M545.455,936.044a7.882,7.882,0,0,0-1.8-5.606c-.029-.031-.058-.062-.088-.092a4.5,4.5,0,0,0-3.236-1.4h0a4.572,4.572,0,0,0-3.387,1.58,17.745,17.745,0,0,1-4.256,2.875,4.36,4.36,0,0,1-1.619.274,7.615,7.615,0,0,1-1.881-.25,4.94,4.94,0,0,0-1.742-.336,4.28,4.28,0,0,0-4.154,3.33,4.007,4.007,0,0,0-1.425-1.765v-5.559a4,4,0,0,0-4-4H503.127a4,4,0,0,0-4,4v4.326l-1.675-1.183a4,4,0,0,0-5.219.524c-1.91,2.028-4.1,4.291-5.778,5.962l.707-2.12a4,4,0,0,0-2.534-5.061l-5.651-1.876a4,4,0,0,0-1.261-.205,3.9,3.9,0,0,0-.419.033,3.646,3.646,0,0,0-3.172-1.6H474.1l-20.039.118a3.965,3.965,0,0,0-1.619.359,4.912,4.912,0,0,0-3.563-1.428H431.857a4,4,0,0,0-3.984,3.64l-.286,3.162a5.516,5.516,0,0,0-2.227-.684,4.411,4.411,0,0,0-.956-1.539,9.072,9.072,0,0,0,.376-1.043l.022-.074c.032-.1.056-.177.078-.268a4.406,4.406,0,0,0-.437-3.854,5.03,5.03,0,0,0-3.84-2.094,26.494,26.494,0,0,0-2.768-.112c-.723,0-1.313.015-1.456.019a4.032,4.032,0,0,0-4.024,3.566,19.218,19.218,0,0,1-2.662.76,4.018,4.018,0,0,0-2.065,1.122c-.255.066-.5.134-.694.194-.065.02-.128.042-.191.065a4.737,4.737,0,0,0-1.8,1.191,5.685,5.685,0,0,0-2.382-3.035,6.045,6.045,0,0,0-5.809-4.078,6.369,6.369,0,0,0-2.255.392,5.39,5.39,0,0,0-2.208-.463,6.217,6.217,0,0,0-5.531,3.3,5.485,5.485,0,0,0-3.883,5.328,5.824,5.824,0,0,0,.675,2.778,5.192,5.192,0,0,0-.651,2.564,4.9,4.9,0,0,0,2.7,4.55,8.668,8.668,0,0,0-.251,1.366,6.053,6.053,0,0,0-3.111,5.077c0,2.438,1.586,5.393,6.053,5.7.348.023.7.034,1.06.034a9.511,9.511,0,0,0,4.746-1,6.982,6.982,0,0,0,2.614,1.08,13.653,13.653,0,0,0,2.827.29,6.8,6.8,0,0,0,5.058-1.709,5.066,5.066,0,0,0,1.226-2.045,4.837,4.837,0,0,0,3.181,1.4,4.549,4.549,0,0,0,3.81,2.012c.484.009,6.1.236,9.522.377l.165,0a4.773,4.773,0,0,0,3.265-1.215l1.757-.184a3.967,3.967,0,0,0,2.266-1.032,11.731,11.731,0,0,0,5.017.84c.083,0,.166,0,.249-.008,7.577-.473,12.51-2.767,15.036-6.984v2.113a4,4,0,0,0,4,4h19.089a3.988,3.988,0,0,0,3.933-3.376,9.433,9.433,0,0,0,1.836,2.009c.028.023.056.046.085.068a9.6,9.6,0,0,0,5.962,2.06,10.568,10.568,0,0,0,6.921-2.6c.068-.062,3.654-3.472,6.581-6.561.066.072.121.155.192.222a4.006,4.006,0,0,0-.6,2.111V950.1a4,4,0,0,0,4,4h7.146c4.487,0,7.167-3.856,7.41-7.483,0-.039,0-.078.007-.117l.043-1.138H519.6a3.983,3.983,0,0,0,3.421-1.954,4.4,4.4,0,0,0,3.47,3.191c.077.015.155.027.234.037.058.007.739.093,1.789.182a14.013,14.013,0,0,0-.3,2.4,4.332,4.332,0,0,0,4.332,4.521h2.35a4.532,4.532,0,0,0,4.616-4.445,16.258,16.258,0,0,1,.451-2.631c.126-.331.248-.665.358-1.012a23.029,23.029,0,0,0,4.749-2.638,4.346,4.346,0,0,0,1.732-3.078,4.583,4.583,0,0,0-1.266-3.525A2.247,2.247,0,0,1,545.455,936.044Zm-142.5,7.869a8.443,8.443,0,0,0-.205-1.516,5.621,5.621,0,0,0,1.284-1.028,6.622,6.622,0,0,0,1.1,1.135l0,.1c-.028.245-.145.873-.224,1.3-.094.5-.177.965-.248,1.4A5.415,5.415,0,0,0,402.951,943.913Z" fill="#fff"/><path id="ア" d="M569.114,936.721a5.844,5.844,0,0,0,.711-2.848c.014-.347.043-1.111.043-1.7a4.611,4.611,0,0,0-4.76-4.878c-1.426-.017-14.357-.166-14.933-.166a4.518,4.518,0,0,0-3.542,1.637,4.632,4.632,0,0,0-.872,3.938l.675,4.356h0c.14.883.946,4.038,5.345,4.253,0,.105,0,.206,0,.3a10.068,10.068,0,0,1-.833.864,4.509,4.509,0,0,0-2.814,3.281,4.642,4.642,0,0,0,2.113,4.817c.048.032.1.062.147.092l2.72,1.6a4.755,4.755,0,0,0,2.519.706,8.009,8.009,0,0,0,4.987-2.262,11.8,11.8,0,0,0,3.033-6.23,26.758,26.758,0,0,0,5.433-7.726Z" fill="#fff"/><path id="_上海アリス幻樂団" data-name="＆上海アリス幻樂団" d="M767.5,923.928c-4.342,0-8.282,1.793-11.74,5.289a4.1,4.1,0,0,0-3.977-3,4.308,4.308,0,0,0-1.223.178,4.439,4.439,0,0,0-.677-.052,4.278,4.278,0,0,0-.827.08,3.987,3.987,0,0,0-3.01-1.38h-.085c-.089,0-.177,0-.264.013a15.916,15.916,0,0,0-4.2.976,6.212,6.212,0,0,0-1.651.916,4.268,4.268,0,0,0-1.749-.372c-.139,0-.281.007-.424.02-.126,0-.308-.011-.5-.023a4.156,4.156,0,0,0-4.393,1.445,5.4,5.4,0,0,0-1.562-.246h-.062s-3.038.047-3.785.047a4.685,4.685,0,0,0-2.45.668l-6.025-.145h-.1a3.289,3.289,0,0,1-3.246-1.214,4,4,0,0,0-3.385,1.3c-1.188,1.322-3.3,3.644-3.927,4.253a8.292,8.292,0,0,0-1.759,2.486v-4.136a4,4,0,0,0-4-4h-2.921a4.1,4.1,0,0,1-1.069,0h-9.568a3.991,3.991,0,0,0-3.852,2.978,6.386,6.386,0,0,0-6.244-4.4,6.987,6.987,0,0,0-6.249,3.642,6.189,6.189,0,0,0-5.029-2.455,6.109,6.109,0,0,0-5.15,2.367,4.587,4.587,0,0,0-3.831-1.868c-1.427-.017-14.358-.166-14.934-.166a4.514,4.514,0,0,0-3.541,1.637,4.628,4.628,0,0,0-.873,3.938l.4,2.563-.064-.044a5.655,5.655,0,0,0-2.943-.974,4.137,4.137,0,0,0-1.057-3.887,4.179,4.179,0,0,0-3.2-1.508,4.1,4.1,0,0,0-1.393.243l-.043-.014c-.19-.061-.4-.129-.64-.2a4.338,4.338,0,0,0-2.46-2.724,4.676,4.676,0,0,0-1.944-.423,4.952,4.952,0,0,0-1.39.2c-.085.01-.2.02-.307.029a4.387,4.387,0,0,0-.843-.083,4.222,4.222,0,0,0-2.75,1.019c-.077.065-.151.134-.223.206a4.2,4.2,0,0,0-1.2,2.384,5.243,5.243,0,0,0-1.8-.32,4.987,4.987,0,0,0-2.2.506c-.036.017-.067.035-.1.052a3.979,3.979,0,0,0-1.756-.423c-.06,0-.121,0-.181,0-.928.042-2.063.089-2.281.092a4.464,4.464,0,0,0-1.986.447,29.043,29.043,0,0,0-1.254-2.761,4.543,4.543,0,0,0-4.087-2.667,4.479,4.479,0,0,0-4.053,2.7c-3.157,6.57-3.9,10.566-4.058,14.442l-1.832.023a1.992,1.992,0,0,1-2.431-2.821,4,4,0,0,0,1.4-2.105,9.725,9.725,0,0,0-1.386-8.532A8.055,8.055,0,0,0,584.679,925a8.961,8.961,0,0,0-6.515,3.23,16.837,16.837,0,0,0-7.472,5.924,14.168,14.168,0,0,0-.98,13.329A9.646,9.646,0,0,0,578,953.074c.421.027.827.04,1.222.04a15.592,15.592,0,0,0,5-.785,10.764,10.764,0,0,0,2.891.74c.113.009.227.014.34.014a4,4,0,0,0,2.443-.842,4,4,0,0,0,3.712,2.528H613.96a4,4,0,0,0,3.989-3.707l.148-2.006a4.923,4.923,0,0,0,.6-.138l.087-.028c.083-.028.2-.069.333-.12l.069-.025a4.984,4.984,0,0,0,1.043.111,4.3,4.3,0,0,0,2.42-.72c.051.043.1.086.155.127a4.339,4.339,0,0,0,1.508,2.83,3.954,3.954,0,0,0,.7.494c.34.188,1.24.686,4.353,1.057a5.879,5.879,0,0,0,.827.06,4.832,4.832,0,0,0,4.02-2.064c.067-.1.129-.194.188-.295a17.445,17.445,0,0,0,1.045-2.3,4.665,4.665,0,0,0,1.475-2.24c.379-.055.713-.109,1-.158a4.383,4.383,0,0,0,.515.03,4.18,4.18,0,0,0,4.133-4.99,6.779,6.779,0,0,0,2.66.626c0,.105,0,.206,0,.3a10.093,10.093,0,0,1-.833.865,4.511,4.511,0,0,0-2.814,3.281,4.642,4.642,0,0,0,2.113,4.817c.048.032.1.062.147.092l2.72,1.6a4.755,4.755,0,0,0,2.519.706,8.009,8.009,0,0,0,4.987-2.262,11.826,11.826,0,0,0,3.034-6.231,23.011,23.011,0,0,0,4.248-5.578v2.9a4.507,4.507,0,0,0,4.522,4.689c.129,0,.519,0,5.394-.288.083,0,.165-.009.246-.016v2.5a4.64,4.64,0,0,0,4.712,4.878,35.863,35.863,0,0,0,5.325-.773c.079-.014.158-.03.236-.049a4.84,4.84,0,0,0,2.517-1.458,3.986,3.986,0,0,0,2.351.785c.1,0,.2,0,.307-.012a82.207,82.207,0,0,0,9.577-1.066q.511-.111,1-.259a9.114,9.114,0,0,0,5.069,1.337h4.962a3.99,3.99,0,0,0,3.731-2.59,12.591,12.591,0,0,0,2.528-.547,4,4,0,0,0,4.883.779l.384-.214a6.373,6.373,0,0,0,.482.824,5.668,5.668,0,0,0,4.757,2.454,7.35,7.35,0,0,0,3.323-.837l.093-.049a12.169,12.169,0,0,0,4.449-4.713,3.949,3.949,0,0,0,.282.937l.238.523c.018.041.038.082.058.122a4.469,4.469,0,0,0,4.019,2.5,4.661,4.661,0,0,0,1.055-.122c.123-.028.245-.062.365-.1s.759-.245,1.62-.519a4,4,0,0,0,3.788,3.38l1.14.047.166,0a4,4,0,0,0,3.632-2.326,8.8,8.8,0,0,0,1.229.084,10.952,10.952,0,0,0,3.453-.583,4.413,4.413,0,0,0,.908,1.327,4.837,4.837,0,0,0,3.532,1.38h13.612a7.028,7.028,0,0,0,4.314,1.186c4.216,0,6.137-2.688,6.137-5.186V933.65C781.756,928.744,774.7,923.928,767.5,923.928Zm-61.084,16.191-.008.015,0-.027Zm-20.89-1.006v-.552a4.052,4.052,0,0,0,.32.456C685.736,939.04,685.633,939.081,685.526,939.113Zm-72.755,1.764-.239.438-1.109.019-.006-.089a11.7,11.7,0,0,0,1.2-.658C612.67,940.684,612.714,940.785,612.771,940.877Z" fill="#fff"/></g></g><g id="Text"><g id="東方深秘録"><path id="東" d="M213.256,565.478c1.491,0,2.556-.853,2.983-3.2a16.131,16.131,0,0,0,.213-3.2c0-1.917-.213-3.621-.213-5.112,0-4.048,1.917-7.67,15.765-13.422A3.125,3.125,0,0,0,233.921,538a2.414,2.414,0,0,0-2.556-2.344c-28.122-1.278-41.331-8.947-70.731-29.613-2.13-1.491-2.982-2.769-2.769-2.982.639-.852,1.917-1.066,3.621-1.066,3.622,0,8.948,1.279,13.635,1.279.853,0,1.491-.213,2.344-.213.426,0,.639.213.639.426,0,.852-.853,2.343-.853,3.2v.213c0,4.473,3.835,5.326,8.949,5.326a46.328,46.328,0,0,0,5.325-.213c6.6-.426,14.061-1.7,14.061-7.883v-.213c0-9.587-5.539-15.552-5.539-26.844,0-5.539,1.279-12.569,5.113-21.73,1.066-2.556,1.278-3.834,4.474-5.539,1.918-1.065,2.77-2.343,2.77-3.622s-1.066-2.556-2.343-3.621c-4.048-2.983-14.7-9.587-18.749-11.718a5.157,5.157,0,0,0-2.769-.852,2.735,2.735,0,0,0-2.13.852l-9.587,8.735c-.852.639-2.983.639-4.048,1.278a14.446,14.446,0,0,1-6.6,1.705c-4.473,0-7.669-2.131-12.356-2.131a13.8,13.8,0,0,0-4.048.426,4.14,4.14,0,0,1-1.491.214c-2.983,0-4.261-2.983-4.261-6.392,0-4.687,2.343-10.439,5.965-11.078a111.891,111.891,0,0,1,17.683-1.7c23.008,0,33.874,9.16,43.887,9.16,4.473,0,8.948-1.917,14.06-7.456.853-.852,2.344-2.557,2.344-3.835,0-.426,0-.852-.426-1.065A225.687,225.687,0,0,0,207.5,401.86a4.693,4.693,0,0,0-2.557-1.278,2.576,2.576,0,0,0-1.917,1.278l-11.718,14.061c-1.491,1.7-2.982,1.279-4.473,1.918a35.715,35.715,0,0,1-14.913,2.769c-7.67,0-15.34-1.7-21.944-2.769a1.088,1.088,0,0,1-.852-1.066c0-1.278,1.065-3.2,1.065-4.474,0-2.982,1.279-4.047,6.391-5.325,2.983-.64,4.261-2.344,4.261-3.835,0-1.7-1.491-3.409-4.687-4.048-10.439-2.131-23.008-3.622-32.382-4.687a10.461,10.461,0,0,0-2.343-.213c-1.066,0-1.492.426-1.492,1.278s.426,2.77.852,5.539c.213,2.557,4.474,7.457,4.474,11.718a5.612,5.612,0,0,1-3.2,5.113c-6.391,3.621-11.717,4.9-17.043,4.9-9.374,0-17.9-4.048-29.826-4.9-9.8-.639-18.961-.853-25.352-2.77a6,6,0,0,0-1.7-.213c-.639,0-.852.213-.852.639a4.158,4.158,0,0,0,.213,1.491,36.745,36.745,0,0,0,2.344,6.392,3.431,3.431,0,0,0,2.982,2.13c.427,0,.64-.213,1.065-.213,4.262-1.278,13-1.278,21.3-1.7h3.622c10.865,0,19.387,2.556,28.548,2.556a43.078,43.078,0,0,0,14.913-2.556,2.7,2.7,0,0,1,1.278-.213c2.769,0,4.261,3.409,4.261,7.456,0,3.835-1.492,8.1-5.114,10.013a11.447,11.447,0,0,1-5.539,1.705c-3.408,0-6.391-1.918-13.421-1.918a30.012,30.012,0,0,0-4.261.213H97.36c-10.652,0-18.108-7.243-26.2-9.587a3.625,3.625,0,0,0-1.491-.213c-1.492,0-2.769.64-2.769,1.918a4.429,4.429,0,0,0,1.491,2.769c5.539,5.752,7.243,13.209,7.243,21.517,0,14.914-5.539,33.235-6.818,51.344v.639c0,4.474,3.623,5.539,8.949,5.539a33.135,33.135,0,0,0,4.473-.212c8.735-.853,14.487-2.131,14.487-7.883v-.426c0-.64-.426-1.491-.426-2.131a1.627,1.627,0,0,1,.426-1.065,4.44,4.44,0,0,1,3.2-1.492c2.13,0,4.474,1.279,7.03,1.492,6.392.639,9.161,2.556,9.161,5.326,0,12.783-50.917,43.248-71.8,56.67a2.677,2.677,0,0,0-1.491,2.13c0,1.065,1.279,2.13,3.2,2.13,41.117,0,56.882-48.787,69.239-48.787,2.344,0,4.687,1.492,6.817,5.539a29.938,29.938,0,0,1,3.835,14.914c0,11.5-4.9,22.583-5.539,31.1v1.7c0,5.326,1.918,8.735,10.865,8.735.852,0,1.918-.213,2.983-.213,12.356-.852,16.617-2.13,16.617-9.373v-.64c-.426-14.487-13.209-38.135-13.209-53.9,0-7.458,2.983-13.422,11.931-15.34a5.013,5.013,0,0,1,1.7-.426c.214,0,.427.213.853.426,37.708,28.335,27.269,53.9,60.078,62.209A9.225,9.225,0,0,1,213.256,565.478ZM96.721,446.6a19.978,19.978,0,0,1,8.948-2.131c5.752,0,9.587,2.77,13.635,2.77a10.615,10.615,0,0,0,3.408-.639,7.357,7.357,0,0,1,2.557-.64c3.409,0,4.9,3.409,4.9,7.457,0,5.326-2.77,11.93-7.243,13.635a25.931,25.931,0,0,1-8.735,1.7c-5.326,0-8.522-2.131-13.635-2.131a15.194,15.194,0,0,0-4.261.427h-.852c-2.77,0-4.261-3.835-4.261-8.309C91.182,453.843,93.1,448.3,96.721,446.6Zm25.991,50.7a25.06,25.06,0,0,1-10.651,2.131A72.105,72.105,0,0,1,96.508,497.3c-4.26-.853-6.391-5.539-6.391-10.866,0-5.112,2.131-10.865,6.178-13.634a11.312,11.312,0,0,1,7.031-2.131c5.326,0,10.439,2.557,15.978,2.557a21.008,21.008,0,0,0,3.622-.426,5.9,5.9,0,0,1,1.917-.213c4.474,0,6.6,4.048,6.6,9.16C131.447,487.5,128.465,494.534,122.712,497.3Zm27.057-50.7a13.14,13.14,0,0,1,7.669-2.557c4.687,0,9.587,2.557,17.9,2.557h2.557c4.047,0,6.6,4.473,6.6,9.374,0,4.26-1.917,8.947-6.6,11.078a12.053,12.053,0,0,1-5.113,1.278c-4.474,0-8.309-2.983-14.487-2.983a24.184,24.184,0,0,0-8.735,1.705,6.219,6.219,0,0,1-1.917.426c-2.77,0-4.048-2.77-4.048-6.392C143.591,455.974,146.147,449.156,149.769,446.6Zm-.213,50.7h-1.278c-3.835,0-5.326-2.77-5.326-6.818,0-5.752,2.983-13.634,6.6-17.682a9.9,9.9,0,0,1,8.1-3.622c6.178,0,13.208,3.622,20.239,3.622,4.474,0,6.6,4.474,6.6,9.8,0,5.539-2.557,12.143-7.03,14.7a17.073,17.073,0,0,1-8.309,2.343c-5.113,0-9.8-2.556-16.4-2.556A17.224,17.224,0,0,0,149.556,497.3Z"/><path id="方" d="M338.182,498.771a2.945,2.945,0,0,0-2.042-1.02,2.059,2.059,0,0,0-1.532,1.02c-3.574,4.595-7.148,9.191-9.871,13.1-.85,1.191-2.212,1.02-3.573,1.531a28.689,28.689,0,0,1-9.871,1.7c-7.147,0-13.955-2.042-19.06-2.042a14.994,14.994,0,0,0-2.893.34c-.34,0-.681.17-1.022.17-1.7,0-2.212-1.361-2.212-3.233,0-4.425,3.063-12.253,3.234-15.487,0-2.382,1.361-2.893,4.084-3.573,2.383-.511,3.4-1.872,3.4-3.234s-1.192-2.723-3.745-3.233c-7.487-1.361-15.315-2.553-24-3.4-1.021,0-1.7-.17-2.212-.17-.681,0-1.022.17-1.022.851a30.524,30.524,0,0,0,.852,4.6c.51,2.723,3.914,10.721,3.914,17.529,0,3.744-.851,6.977-3.574,9.189a10.148,10.148,0,0,1-6.807,2.042c-6.127,0-14.125-2.722-22.124-2.722a25.5,25.5,0,0,0-6.3.68,26.953,26.953,0,0,1-6.126.681c-5.786,0-10.211-1.7-14.125-2.893a4.767,4.767,0,0,0-1.361-.171c-.511,0-.682.171-.682.511a3.311,3.311,0,0,0,.171,1.192,29.336,29.336,0,0,0,1.872,5.105,2.738,2.738,0,0,0,2.382,1.7c.341,0,.511-.171.851-.171,3.4-1.02,9.7.171,17.018-1.361a46.83,46.83,0,0,1,8.85-1.361A17.9,17.9,0,0,1,247.475,518c6.637,2.723,9.19,7.318,9.19,12.934,0,12.763-12.253,30.462-15.657,43.226-8.339,30.8-11.232,36.759-35.738,54.628a2.035,2.035,0,0,0-.851,1.532,1.5,1.5,0,0,0,1.362,1.532,1.25,1.25,0,0,0,1.021-.341c28.08-22.634,45.268-20.592,55.649-56.67a16.854,16.854,0,0,0,.51-5.276c0-2.382-.169-5.105-.169-7.488,0-4.425.68-8.339,4.594-9.189,8.85-2.043,15.146-2.724,19.741-2.724,9.871,0,12.083,3.4,17.87,3.4a17.814,17.814,0,0,0,4.764-.68,32.565,32.565,0,0,1,6.978-1.022c4.084,0,5.616,1.7,5.616,4.255,0,9.189-18.38,30.633-18.38,40.843v1.021a8.25,8.25,0,0,1,.171,2.042c0,5.106-3.574,5.447-8,5.447h-2.553a234.677,234.677,0,0,1-24-1.362h-.341a1.836,1.836,0,0,0-2.042,1.872,2.367,2.367,0,0,0,2.213,2.212c19.911,2.723,23.144,5.106,23.144,10.892,0,2.212-.511,5.105-.68,8.849v.34c0,1.533,1.021,3.4,2.722,3.4a3.272,3.272,0,0,0,2.042-.681c14.976-8.68,27.23-7.829,30.633-29.612a5.793,5.793,0,0,0,.17-1.7c0-3.744-1.531-8-1.531-13.955,0-5.786,1.361-13.1,6.467-22.974,1.7-3.234,1.361-4.936,4.084-6.3s3.744-2.723,3.744-4.254-1.362-3.063-2.893-4.085c-3.914-2.723-10.722-7.317-16-10.211a6.36,6.36,0,0,0-2.553-.851,2.709,2.709,0,0,0-1.7.851c-2.723,2.724-6.977,6.808-9.189,9.36-.851,1.022-2.043.681-3.234,1.022a33.849,33.849,0,0,1-6.467.851c-6.637,0-10.211-3.064-17.7-3.064a43.5,43.5,0,0,0-12.253,2.213,6.046,6.046,0,0,1-1.7.34c-3.4,0-4.764-4.084-4.764-9.19,0-9.019,4.254-21.1,9.189-21.443,4.255-.34,8.169-.34,11.913-.34,31.313,0,46.289,8.168,57.01,8.168,5.106,0,9.361-1.871,13.955-7.828.681-.851,2.383-1.531,2.383-2.553a2.487,2.487,0,0,0-.851-1.361C349.754,508.643,344.138,503.707,338.182,498.771Z"/><g id="深"><path d="M353.5,304.39c17.18,10.044,21.145,14.273,21.145,17.444,0,2.908-3.7,5.022-3.7,10.573a7.3,7.3,0,0,0,.265,2.379c1.586,8.193,6.872,11.365,12.951,11.365,8.722,0,18.5-7.136,18.5-16.916a16.462,16.462,0,0,0-2.115-8.193c-6.343-11.895-12.158-4.23-45.2-21.41a6.735,6.735,0,0,0-1.85-.528,1.872,1.872,0,0,0-1.85,2.114A3.74,3.74,0,0,0,353.5,304.39Z"/><path d="M340.022,357.781c13.215,11.1,16.652,16.387,16.652,20.352s-3.7,6.079-3.7,11.1v1.586c1.057,8.194,6.608,11.894,12.687,11.894,8.458,0,17.709-6.872,17.709-17.444a29.055,29.055,0,0,0-.529-4.758c-4.229-17.18-16.916-20.088-40.7-27.224a5.146,5.146,0,0,0-1.85-.265c-1.321,0-2.114.793-2.114,1.586A4.083,4.083,0,0,0,340.022,357.781Z"/><path d="M387.862,464.828c0-6.079,1.851-11.63,3.172-17.974,3.172-16.123,11.63-38.325,20.088-90.13v-1.057a2.975,2.975,0,0,0-2.643-3.172c-1.057,0-2.115.793-2.379,2.643-16.387,79.294-30.925,68.193-40.176,92.509-1.585,4.229-4.229,5.551-7.665,5.551-2.907,0-6.607-1.057-10.836-1.586h-.529c-2.115,0-3.172,1.322-3.172,2.643s1.057,2.643,2.908,3.436c19.823,6.872,25.374,15.6,25.374,24.317,0,11.894-9.78,24.053-9.78,32.511,0,4.493,2.379,7.929,10.308,10.043a20.5,20.5,0,0,0,4.229.529c9.251,0,20.088-7.4,20.088-23,0-5.815-1.586-12.687-5.022-20.881C388.92,474.607,387.862,469.585,387.862,464.828Z"/><path d="M419.051,353.288a22.435,22.435,0,0,0,9.515-1.85c6.608-3.437,8.194-8.194,8.194-13.216,0-3.965-1.057-8.194-1.057-11.894,0-3.436,1.057-6.344,4.758-7.93,7.929-3.7,16.651-4.757,25.638-4.757,20.616,0,42.819,6.608,58.149,6.608,4.229,0,8.193-.529,11.1-1.851a10.792,10.792,0,0,1,1.85-.528c1.058,0,1.586.793,1.586,1.85,0,5.022-7.137,18.238-9.779,24.317a4.883,4.883,0,0,0-.529,1.85,1.807,1.807,0,0,0,1.85,1.85,4.215,4.215,0,0,0,2.114-.793c19.824-13.744,24.053-16.123,28.811-16.123a15.19,15.19,0,0,1,3.172.264,15.121,15.121,0,0,0,3.171.265c5.815,0,8.194-2.379,8.194-5.287,0-2.114-1.586-5.021-3.965-7.4a254.82,254.82,0,0,0-22.467-17.709,5.809,5.809,0,0,0-3.171-1.586c-1.057,0-1.85.528-2.908,1.586l-7.665,8.193c-1.85,2.115-3.435,1.586-5.551,2.115a70.042,70.042,0,0,1-22.2,3.436c-17.444,0-31.982-6.079-49.162-6.079a66.636,66.636,0,0,0-19.559,2.643h-.529c-2.378,0-2.643-3.7-2.643-7.137v-3.7a2.489,2.489,0,0,0-2.643-2.643c-1.057,0-2.379.793-2.643,3.172-2.643,33.3-15.859,12.158-24.052,30.131a26.742,26.742,0,0,0-2.644,10.573C403.985,350.645,411.915,353.288,419.051,353.288Z"/><path d="M410.065,394.521a2.4,2.4,0,0,0-1.058,2.114c0,1.322.793,2.907,2.115,2.907.528,0,.793-.264,1.321-.528,47.048-35.682,58.149-17.973,64.757-51.806.793-3.7,2.114-5.021,5.551-5.814,3.964-1.058,5.55-2.908,5.55-4.758s-1.586-3.7-4.493-4.229c-8.194-1.85-24.581-5.286-31.453-6.344H450.5c-1.85,0-2.907.529-2.907,2.115a13.343,13.343,0,0,0,.529,2.379,36.8,36.8,0,0,1,1.85,11.63C449.976,360.16,436.232,377.6,410.065,394.521Z"/><path d="M490.68,372.318c0,7.665,5.815,13.744,14.273,13.744a19.761,19.761,0,0,0,5.286-.792,45.089,45.089,0,0,1,12.951-1.851c8.988,0,16.916,2.379,24.581,2.379a26.785,26.785,0,0,0,11.1-2.114c10.308-4.229,15.33-13.216,15.33-19.031,0-3.7-1.586-6.079-5.022-6.079h-1.322c-2.379.264-4.493.793-6.079.793-2.114,0-3.436-.793-3.436-3.436s1.057-6.872,3.7-13.744a6.731,6.731,0,0,0,.528-1.851,2.084,2.084,0,0,0-2.114-2.114,4.4,4.4,0,0,0-3.965,3.7c-3.7,14.8-5.551,15.859-12.951,18.766a13.244,13.244,0,0,1-3.172.529c-2.907,0-6.344-.793-10.044-.793a20.036,20.036,0,0,0-3.965.264,6.552,6.552,0,0,1-2.114.265c-4.229,0-5.551-3.436-5.551-7.4a23.455,23.455,0,0,1,1.586-7.929c1.321-3.172,1.586-3.172,5.286-4.758,2.908-1.322,4.23-2.907,4.23-4.493s-1.851-3.172-5.023-3.965c-8.986-1.85-22.466-3.965-30.4-5.022h-1.586c-1.85,0-2.907.529-2.907,2.115a7.1,7.1,0,0,0,1.057,3.436c3.7,7.665,5.022,13.744,5.022,18.5,0,7.665-3.172,11.894-4.229,15.33A14.678,14.678,0,0,0,490.68,372.318Z"/><path d="M503.1,515.312v-.793c-.793-23.26-13.745-55.77-13.745-74.8,0-9.515,3.172-15.594,12.423-15.859.793,0,1.322-.264,1.851-.264.264,0,.264,0,.528.264,38.854,49.427,22.467,63.435,48.634,81.144a4.3,4.3,0,0,0,2.379,1.058c1.586,0,2.378-2.115,2.907-4.494,3.436-14.273,5.815-23.788,15.33-28.281a3.435,3.435,0,0,0,2.114-3.172,2.849,2.849,0,0,0-2.642-2.907c-23-2.908-62.378-35.683-62.378-42.819v-.529c1.057-2.379,3.172-3.171,5.814-3.171,9.516,0,26.7,9.515,38.855,9.515,5.286,0,9.515-1.586,11.893-6.344.793-1.586,2.908-3.436,2.908-5.022a1.055,1.055,0,0,0-.529-1.057A267.428,267.428,0,0,0,544.6,396.9a5.821,5.821,0,0,0-3.172-1.586,3.2,3.2,0,0,0-2.378,1.586c-4.494,5.287-9.251,12.687-13.216,17.445-1.851,2.114-3.172,1.586-5.551,2.379a25.016,25.016,0,0,1-7.4,1.057,96.97,96.97,0,0,1-11.1-1.057c-.528,0-.793-.529-.793-1.322,0-1.85,1.058-4.757,1.058-6.343,0-3.965,2.907-5.815,6.872-6.872,2.643-.529,5.286-2.908,5.286-5.287,0-1.586-1.586-3.436-5.815-4.493-3.436-.793-32.775-5.022-37.268-5.815a12.991,12.991,0,0,0-2.908-.264c-1.585,0-2.378.528-2.378,1.85,0,1.586.528,3.436,1.321,6.608.529,2.907,3.7,9.251,3.7,15.33a11.35,11.35,0,0,1-1.85,6.608,8.768,8.768,0,0,1-7.929,4.229c-5.815,0-12.951-3.965-20.352-4.229-12.159-.529-23.524-1.057-31.453-3.436a7.425,7.425,0,0,0-2.115-.265c-.793,0-1.057.265-1.057.793a5.169,5.169,0,0,0,.264,1.851,45.535,45.535,0,0,0,2.908,7.929,4.256,4.256,0,0,0,3.7,2.643c.529,0,.793-.264,1.322-.264,5.286-1.586,16.123-1.85,26.431-2.115H447.6c5.551.265,7.665,2.908,7.665,6.608,0,15.33-37.268,53.127-53.655,68.721-1.058,1.058-1.586,1.851-1.586,2.644,0,1.057,1.321,2.114,3.171,2.114.529,0,1.058-.264,1.586-.264,30.132-5.551,35.947-59.471,56.563-59.471a16.846,16.846,0,0,1,7.93,2.379c7.4,4.493,10.043,11.366,10.043,19.3,0,16.916-11.894,38.59-12.686,50.484v2.114c0,6.344,2.114,9.251,13.215,9.251,1.586,0,3.436-.264,5.551-.264C499.138,526.677,503.1,523.77,503.1,515.312Z"/></g><g id="秘"><path d="M616.025,633.932c-.089-.429-.245-1.169-.462-2.105a5.453,5.453,0,0,1-.1-.622,4,4,0,0,1-.308-.753l-.244-.825a5.3,5.3,0,0,0-.6-1.112,12.349,12.349,0,0,1-1.524-3.055,8.249,8.249,0,0,1-.274-1.14,4,4,0,0,1,3.262-4.545,7.718,7.718,0,0,0,.854-.536,14.9,14.9,0,0,1,1.79-1.133c-1.537-26.554-5.1-69.074-5.1-88.793,0-6.834.427-10.892,1.5-10.892.64,0,1.921,2.562,3.63,8.33,2.35,8.33,6.835,14.524,6.835,22a17.983,17.983,0,0,1-.854,5.767,9.374,9.374,0,0,0-.427,2.135c0,3.632,3.2,5.34,7.048,5.34,5.34,0,11.748-3.631,11.748-10.892,0-11.108-19.224-14.525-23.923-29.69a13.147,13.147,0,0,1-.64-3.845,8.025,8.025,0,0,1,.213-2.135c.427-2.35,1.5-3.2,3.418-3.2,4.486,0,12.816,5.766,18.369,5.766a5.02,5.02,0,0,0,4.485-2.562c.642-1.069,1.923-1.709,1.923-2.778a3.034,3.034,0,0,0-.428-1.281,124.527,124.527,0,0,0-11.32-15.379,2.066,2.066,0,0,0-2.99,0l-7.476,12.389c-.641.854-1.709,1.067-2.99,1.281h-2.991c-5.98-.641-8.543-6.407-8.543-13.029,0-7.049,3.2-15.165,8.757-18.582,4.272-2.564,8.544-1.709,12.175-2.564a13.1,13.1,0,0,1,3.417-.64,18.2,18.2,0,0,1,4.485,1.068,10.757,10.757,0,0,0,2.564.427c1.922,0,2.99-1.068,2.99-2.563a5.96,5.96,0,0,0-1.922-3.845,182.878,182.878,0,0,0-19.009-16.66,3.477,3.477,0,0,0-1.923-.855c-1.069,0-1.709,1.068-2.35,1.709-10.466,9.612-27.126,18.369-47.417,25.2-1.709.427-2.563,1.495-2.563,2.35s.854,1.5,2.349,1.5h.427c5.34-.214,10.894-3.418,16.233-3.418a9.68,9.68,0,0,1,6.195,1.923c4.485,3.2,6.621,8.757,6.621,14.1s-2.136,10.68-6.407,13.884a10.81,10.81,0,0,1-7.049,2.35c-5.981,0-12.389-3.631-16.66-4.912a6.009,6.009,0,0,0-1.709-.214c-.641,0-.855.214-.855.64a4.16,4.16,0,0,0,.214,1.5,36.8,36.8,0,0,0,2.35,6.409,3.222,3.222,0,0,0,2.99,1.922,9.238,9.238,0,0,1,1.067-.214,44.426,44.426,0,0,1,13.67-1.922,37.745,37.745,0,0,1,4.913.214c8.116,1.067,11.321,5.126,11.321,11.32,0,18.368-29.262,53.825-38.02,69.2a2.3,2.3,0,0,0-.427,1.5.977.977,0,0,0,.855,1.068,3.414,3.414,0,0,0,1.708-.641c9.825-8.33,10.893-24.99,25.632-28.408a21.336,21.336,0,0,1,3.417-.427c5.553,0,7.475,3.845,7.475,9.825,0,14.738-11.534,41.864-11.961,55.107v.427c0,.379.02.733.051,1.073.244.135.49.263.727.425a9.714,9.714,0,0,1,3.635,4.633,21.8,21.8,0,0,0,5.2.49h2.777c4.715-.235,8.253-1.06,10.482-2.575A23.481,23.481,0,0,0,616.025,633.932Z"/><path d="M644.07,574.168c-2.776,0-5.766-1.067-9.184-1.281h-1.068c-5.553,0-7.689,3.631-7.689,8.33,0,8.116,6.621,19.223,14.1,19.223a8.955,8.955,0,0,0,3.2-.854c10.466-5.127,13.029-12.6,13.029-26.485,0-9.613-1.068-22.214-1.922-39.088-.214-2.35-1.5-3.631-2.777-3.631-.855,0-1.5.64-1.5,2.349v.641c.854,9.185,1.281,16.446,1.281,22.214C651.546,571.178,648.556,574.168,644.07,574.168Z"/><path d="M659.663,460.11c20.5,7.262,23.5,13.456,23.5,19.864,0,2.349-.428,4.7-.428,7.048v.214c0,4.912,3.2,7.049,7.049,7.049,6.621,0,15.593-5.981,15.379-14.525a14.079,14.079,0,0,0-1.709-6.835c-5.766-11.107-7.475,1.068-41.65-17.514a4.767,4.767,0,0,0-2.136-.641,2.077,2.077,0,0,0-2.136,2.35A3.119,3.119,0,0,0,659.663,460.11Z"/><path d="M668.727,599.2a18.864,18.864,0,0,1,5.931-5.26,11.743,11.743,0,0,1,5.6-1.5,10.383,10.383,0,0,1,3.967.793c.524.216,1.014.452,1.49.7-.079-.26-.162-.561-.253-.91a4,4,0,0,1-3.231-4.294,6.22,6.22,0,0,1,1.435-3.409,3.976,3.976,0,0,1,1.171-.96l.079-.043.065-.035a4.732,4.732,0,0,1,1.653-.519c.194-.123.391-.251.588-.379.253-.164.506-.328.754-.483a10.088,10.088,0,0,1,2.554-1.144,4.021,4.021,0,0,1,1.1-.158,9.889,9.889,0,0,1,2.23-1.385,8.342,8.342,0,0,1,2.617-.7c22.359-57.321,37.5-43.494,43.5-96.758.426-4.485,3.417-5.98,7.475-6.193,2.99-.214,4.486-1.5,4.486-3.2s-1.708-3.631-4.486-4.913a257.3,257.3,0,0,0-27.34-9.825,10.8,10.8,0,0,0-1.921-.427c-1.5,0-2.137.854-2.137,1.922a8,8,0,0,0,1.068,3.2c1.281,2.35,1.923,6.409,1.923,11.748,0,30.757-19.224,102.525-28.408,102.525a2.587,2.587,0,0,1-1.923-1.282,35.811,35.811,0,0,1-5.981-20.718c0-14.311,6.195-28.835,6.195-41.65v-2.564c0-2.776,2.563-4.271,5.767-4.913,2.991-.641,4.486-2.136,4.486-3.845s-1.709-3.417-4.913-4.057c-10.466-1.923-16.874-3.632-26.912-4.7-.855,0-1.5-.213-1.923-.213-1.282,0-1.709.427-1.709,1.5s.427,2.777.641,5.34c1.068,9.825,10.679,37.378,10.679,64.5,0,11.744-1.732,23.484-6.718,33.693a4.1,4.1,0,0,1,.236.767C668.618,599.363,668.666,599.277,668.727,599.2Z"/><path d="M736.77,609.625c-7.262-2.137-9.4-4.486-9.4-11.534,0-4.486.854-11.108,1.922-20.719v-.641c0-1.709-.641-2.349-1.709-2.349a2.9,2.9,0,0,0-2.35,2.349c-.664,3.3-1.288,6.254-1.882,8.929a15.178,15.178,0,0,1-1.53,10.212,13.022,13.022,0,0,1-1.613,2.2c-3.226,10.628-5.822,11.82-9.926,12.406-2.136.213-4.7.427-7.262.427-1.8,0-3.493-.108-5.084-.245a9.945,9.945,0,0,1-1.839,1.151c-.042.027-.089.06-.141.1a9.861,9.861,0,0,1-1.1.719,5.024,5.024,0,0,1-2.416.643,4.573,4.573,0,0,1-1.476-.244,8.947,8.947,0,0,1-1.177,1.23,39.546,39.546,0,0,1-6.271,4.555,13.452,13.452,0,0,1-6.48,1.578,18.13,18.13,0,0,1-3.658-.392,10.837,10.837,0,0,1-1.215-.335,11.4,11.4,0,0,1-1.278,3.073c-.123.206-.27.4-.4.606,5.968,2.613,7.2,8.32,17.8,11.913a28.21,28.21,0,0,0,8.33,1.281c7.263,0,14.1-2.563,20.719-2.563a18.011,18.011,0,0,1,5.767.854,16.345,16.345,0,0,0,5.339.855c9.185,0,12.816-8.544,12.816-16.02C741.255,614.751,739.547,610.479,736.77,609.625Z"/><path d="M740.1,554.455a3.987,3.987,0,0,1,.948.444c.116-.164.227-.331.36-.486a4.006,4.006,0,0,1,1.192-.941l.143-.074a4.765,4.765,0,0,1,1.662-.488c.2-.118.394-.241.592-.364.23-.143.46-.284.687-.42-3.814-4.31-8.455-10.64-13.828-20.89-.427-.64-.64-.854-1.068-.854-.854,0-1.922,1.922-1.922,3.417a3.081,3.081,0,0,0,.427,1.5c6.185,8.732,8.8,14.361,9.44,19.007.072,0,.143-.015.215-.015A3.987,3.987,0,0,1,740.1,554.455Z"/><path d="M757.487,570.4c-.356-.415-.557-.683-.7-.884a11.534,11.534,0,0,1-1.629-3.533,19.253,19.253,0,0,1-.488-4.98c-.4-.426-.84-.858-1.318-1.309-.041.083-.083.164-.124.255a2.957,2.957,0,0,0-.318,2.065c.186.575.406,1.271.625,2.073.2.718.455,1.76.813,3.277.308,1.3.551,2.279.724,2.893a19.175,19.175,0,0,0,.61,1.875,3.917,3.917,0,0,1,1.527,1.428c.032.052.054.108.084.162.038-.254.084-.5.117-.757a4.035,4.035,0,0,1-.166-.85A3.985,3.985,0,0,1,757.487,570.4Z"/><path d="M753.409,581.063a10.013,10.013,0,0,1-1.1.7,5.27,5.27,0,0,1-1.7.557,4.013,4.013,0,0,1-.5.281,6.314,6.314,0,0,1-2.7.646c-.116,0-.23,0-.342-.011-.254.1-.515.2-.76.291-.092.034-.163.065-.209.087a11.788,11.788,0,0,0-.947,1.088,9.833,9.833,0,0,1-2.981,2.766,4,4,0,0,1-5.76-2.582,8.09,8.09,0,0,1,.043-3.619l.16-.807c.074-.375.127-.636.155-.787a11.348,11.348,0,0,0-.113-4.174,16.782,16.782,0,0,1-.389-2.371,6.382,6.382,0,0,0-.235-1.094c-.012-.039-.026-.086-.042-.142a4.217,4.217,0,0,1-1.478-.569,57.781,57.781,0,0,0-2.012,6.48,21,21,0,0,0-.428,3.632,9.713,9.713,0,0,0,9.826,10.038c5.33,0,11.144-3.673,14.034-12.018a10.862,10.862,0,0,1-2.376,1.514C753.511,580.992,753.463,581.025,753.409,581.063Z"/></g><g id="録"><path d="M894.164,464.729c-16.156-5.111-25.224-12.859-25.224-19.288,0-10.88,14.178-6.265,17.8-12.529.824-1.484,1.484-1.814,2.308-1.814.66,0,1.319.33,2.308.33h.66c1.978,0,3.131-.824,3.131-2.143a4.277,4.277,0,0,0-1.977-2.968,160.152,160.152,0,0,0-15.5-9.726,3.936,3.936,0,0,0-1.978-.659c-1.154,0-1.319,1.153-1.484,2.143-.659,6.429.5,19.617-7.748,23.574h-.33c-2.8,0-7.583-17.475-11.045-28.355a10.069,10.069,0,0,1-.494-2.143.9.9,0,0,1,.494-.824,18.047,18.047,0,0,1,9.067-2.308c7.748,0,14.178,4.615,21.1,4.615a13.638,13.638,0,0,0,7.913-2.307,4.894,4.894,0,0,0,2.142-3.3c0-.165-.165-.329-.165-.494a136.837,136.837,0,0,0-9.726-14.343,2.557,2.557,0,0,0-1.813-1.154c-.66,0-1.154.5-1.649,1.154l-7.089,12.2c-.824,1.318-1.978,1.318-3.462,1.483H870.26a20,20,0,0,1-2.968.165c-3.462,0-4.78-1.154-4.78-2.967,0-5.77,11.7-17.969,12.528-24.234.165-1.649,1.979-2.308,5.275-4.121a3.182,3.182,0,0,0,1.979-2.8,3.918,3.918,0,0,0-1.648-2.8c-4.782-3.626-8.573-6.924-13.189-9.726a3.933,3.933,0,0,0-1.978-.659,2.482,2.482,0,0,0-1.814.659l-8.407,6.594c-.659.5-2.144.5-3.133.989a19.117,19.117,0,0,1-8.077,1.649c-4.616,0-8.9-1.319-14.508-1.649-7.583-.494-14.672-.659-19.618-2.143a4.628,4.628,0,0,0-1.318-.165c-.5,0-.66.165-.66.5a3.234,3.234,0,0,0,.164,1.154,28.563,28.563,0,0,0,1.814,4.946,2.656,2.656,0,0,0,2.308,1.648c.33,0,.5-.165.825-.165,3.3-.989,10.055-.989,16.485-1.319h1.979c6.1,0,10.715,1.154,15.991,1.154a25.412,25.412,0,0,0,8.242-1.154,10.838,10.838,0,0,1,1.813-.329,2.083,2.083,0,0,1,2.309,2.308c0,3.462-3.627,9.561-5.936,12.2a6.972,6.972,0,0,1-5.44,2.473c-3.791,0-8.242-2.308-13.023-2.473-7.583-.329-14.672-.66-19.618-2.143a4.638,4.638,0,0,0-1.319-.165c-.494,0-.659.165-.659.5a3.211,3.211,0,0,0,.165,1.153,28.321,28.321,0,0,0,1.813,4.946,2.655,2.655,0,0,0,2.308,1.649c.33,0,.494-.165.824-.165,3.3-.989,10.057-.989,16.486-1.319h1.484c4.121,0,7.253.659,10.715.659a22.546,22.546,0,0,0,5.605-.659,3.219,3.219,0,0,1,1.155-.165c1.318,0,1.978.99,1.978,2.473,0,3.792-3.3,10.386-5.935,13.518a8.965,8.965,0,0,1-7.254,3.133c-5.111,0-11.21-2.638-17.475-3.133-7.583-.494-14.672-.659-19.617-2.143a4.638,4.638,0,0,0-1.319-.165c-.5,0-.66.165-.66.5a3.216,3.216,0,0,0,.165,1.154,28.43,28.43,0,0,0,1.814,4.946,2.653,2.653,0,0,0,2.307,1.648c.331,0,.5-.164.825-.164,3.3-.99,10.056-1.155,16.485-1.319,2.309-.165,4.287-.33,6.1-.33a15.4,15.4,0,0,1,3.792.33c5.77.988,8.078,6.429,8.078,13.188A42.1,42.1,0,0,1,836.3,446.43c-7.748,10.716-26.212,11.87-31.653,13.353-2.472.66-3.131.989-3.131,1.814a7.438,7.438,0,0,0,.33,1.319c.659,1.978,2.967,4.286,2.967,6.923a3.6,3.6,0,0,1-.166,1.319c-.824,2.638-5.934,3.957-11.044,3.957a32.179,32.179,0,0,1-7.089-.824c-3.627-.99-5.111-10.222-5.111-20.442,0-11.7,1.979-24.564,4.946-25.883a6.285,6.285,0,0,1,2.8-.659c4.121,0,7.254,3.627,11.54,3.627,1.814,0,3.956-.825,6.594-2.968a2.9,2.9,0,0,0,1.485-2.143,1.422,1.422,0,0,0-.5-.989,105.73,105.73,0,0,0-10.385-10.551,2.685,2.685,0,0,0-1.484-.659,1.73,1.73,0,0,0-1.484.824l-6.1,8.078c-.659.824-1.483.824-2.472.989a7.192,7.192,0,0,0-.825.165c-2.472,0-3.627-2.638-3.627-5.77,0-4.286,1.814-9.4,4.617-11.705a3.93,3.93,0,0,1,2.307-.989c2.144,0,4.122,2.308,7.254,2.308a8.487,8.487,0,0,0,4.451-1.319c.825-.5,1.649-1.154,1.649-1.978a2.193,2.193,0,0,0-.494-1.154c-4.122-4.286-7.089-7.419-10.551-10.386a3.388,3.388,0,0,0-1.484-.824c-.5,0-.825.329-1.319.824-2.472,2.8-4.616,5.6-6.759,8.078-.824.989-1.649.659-2.8.989-3.3.989-6.43,2.143-9.233,2.143a7.192,7.192,0,0,1-5.44-2.143,5.406,5.406,0,0,1-1.978-4.121c0-7.584,18.793-15.5,23.574-27.037.5-1.154,7.749,7.254,7.749,19.453,0,3.3,3.626,5.111,7.418,5.111,4.287,0,8.9-2.308,8.9-7.419a11.192,11.192,0,0,0-.5-3.132c-2.473-8.243-15.331-3.792-21.6-16.816,0-.164-.165-.164-.165-.329s.33-.165.659-.165h2.473c2.143-.33,3.3-1.319,3.3-2.473,0-.989-.99-1.978-2.968-2.308-7.913-1.483-15.167-2.8-22.421-3.956a4.628,4.628,0,0,0-1.318-.165c-.99,0-.825.5-.99,2.638-1.154,13.188-8.243,36.268-18.3,52.094a2.652,2.652,0,0,0-.5,1.484,1.128,1.128,0,0,0,1.155,1.154,2.63,2.63,0,0,0,1.319-.5c3.626-2.8,4.945-7.583,10.056-9.067a19.921,19.921,0,0,1,5.11-.989,8.786,8.786,0,0,1,3.957.989c3.132,1.649,4.945,6.265,4.945,10.221,0,3.792-1.483,6.924-4.616,7.089h-.988c-6.924-1.154-13.025-.66-17.97-2.143a4.632,4.632,0,0,0-1.318-.165c-.5,0-.66.165-.66.5a3.211,3.211,0,0,0,.165,1.153,28.484,28.484,0,0,0,1.813,4.946,2.656,2.656,0,0,0,2.308,1.649c.33,0,.5-.165.824-.165,2.309-.66,5.771-3.132,9.563-3.132a8.863,8.863,0,0,1,5.275,1.813h.988c4.287,1.649,6.265,11.54,6.265,22.091,0,11.869-2.473,24.4-6.594,26.542a16.653,16.653,0,0,1-8.243,1.813c-2.967,0-5.935-.5-8.9-.5h-.66c-2.967.165-3.956,0-3.956.99a6.667,6.667,0,0,0,.494,1.978c2.144,6.594,4.122,11.7,6.924,18.794.659,1.648,1.649,2.472,2.473,2.472.989,0,1.978-.989,2.309-2.967.494-2.638.659-3.462,2.142-3.791,15.332-3.957,21.267-17.311,44.676-20.113h.165c2.309,0,1.484,4.946,2.309,6.594.989,2.308,2.307,3.3,3.3,3.3,1.319,0,2.308-1.649,2.308-4.781,0-1.648.66-3.626,1.814-4.286,12.529-7.583,5.275-20.112,20.112-22.915.33,0,.66-.165.989-.165,2.473,0,3.3,1.978,3.3,4.781,0,6.429-4.287,17.475-4.451,20.937,0,2.967-.33,4.121-3.627,4.121s-10.387-.165-14.178-.659H818c-.989,0-1.318.494-1.318,1.153A2.725,2.725,0,0,0,818,485.5c10.386,4.121,15.826,2.143,15.826,7.583,0,1.813-.659,4.286-1.813,8.243a5.078,5.078,0,0,0-.329,1.319c0,1.154.824,1.648,2.472,1.648a23.1,23.1,0,0,0,2.967-.329c13.519-2.144,19.618-6.595,19.618-14.178a22.949,22.949,0,0,0-.824-5.44,158.859,158.859,0,0,1-5.605-40.225c0-11.705,1.813-18.629,3.626-18.629.331,0,.825.5,1.155,1.154,17.8,36.1,3.956,39.071,28.355,62.811a1.262,1.262,0,0,0,.824.329,2.286,2.286,0,0,0,1.979-2.143c.988-12.859-1.154-18.629,8.407-19.618.659,0,.989-.659.989-1.319A2.073,2.073,0,0,0,894.164,464.729Z"/><path d="M753.377,463.081c0,2.143,2.8,3.461,6.1,3.461,4.286,0,9.066-2.143,9.066-8.078,0-9.4-8.077-9.4-15.661-23.574a1.026,1.026,0,0,0-.989-.66,1.454,1.454,0,0,0-1.319,1.484,1.775,1.775,0,0,0,.33,1.154c4.616,7.419,6.1,12.035,6.1,15.662,0,3.462-1.484,5.934-3.3,9.232A2.218,2.218,0,0,0,753.377,463.081Z"/><path d="M787.007,467.367a1.333,1.333,0,0,0,1.154,1.484,1,1,0,0,0,.989-.825c5.77-15,9.892-9.4,15.827-22.585.33-.824.824-1.319,2.8-1.319s2.967-.824,2.967-1.813a3.093,3.093,0,0,0-1.977-2.473c-5.441-2.473-9.4-4.287-14.013-6.1a5,5,0,0,0-1.814-.5c-.66,0-.989.5-.989,1.32,0,.329.165.988.165,1.483a40.726,40.726,0,0,1,.329,4.616c0,8.407-2.637,16.486-5.44,26.377Z"/><path d="M814.7,441.979c0,2.967,2.308,4.286,5.11,4.286,5.111,0,12.2-4.121,12.2-10.221a7.653,7.653,0,0,0-.659-3.132c-5.77-14.343-9.233-1.978-19.784-15.662a2.553,2.553,0,0,0-1.812-1.153,1.847,1.847,0,0,0-1.65,1.978,2.575,2.575,0,0,0,.99,1.978c6.264,4.946,7.913,7.748,7.913,10.716,0,2.637-1.319,5.44-2.143,9.891C814.868,441.154,814.7,441.484,814.7,441.979Z"/></g></g><g id="Urban_Legend_in_Limbo" data-name="Urban Legend in Limbo"><path d="M524.992,660.734c-.854.869-.937,1.237-.835,1.571a3.4,3.4,0,0,0,.886.88c-.043.044.088.2.366.468a2.894,2.894,0,0,1,.459.491c.307.545.67,1.185,1.124,1.935a20.289,20.289,0,0,1,2.193,4.894,24.811,24.811,0,0,1,.65,2.679,12.354,12.354,0,0,1-1.905,8.791,12.8,12.8,0,0,1-6.834,5.873,10.813,10.813,0,0,1-11.927-3.726,16.776,16.776,0,0,1-2.536-5.168,47.788,47.788,0,0,1-1.442-9.59,7.928,7.928,0,0,1-1.279-.134.837.837,0,0,1-.311-.1.933.933,0,0,0-.172-.287,2.8,2.8,0,0,1,.454-.17,7.165,7.165,0,0,1,2.362-.181c1.39.073,2.2.116,2.419.1a12.739,12.739,0,0,0,2.654.044,4.377,4.377,0,0,1,2.769.333c-.527.2-1.1.366-1.6.557-1.036.395-1.086,1.775-1.593,4.065a8.675,8.675,0,0,0,.306,4.124,9.28,9.28,0,0,0,3.165,4.75,6.418,6.418,0,0,0,5.341,1.4,9.2,9.2,0,0,0,1.091-.283,5.071,5.071,0,0,0,2.372-2.144,10.652,10.652,0,0,0,1.29-2.747,6.84,6.84,0,0,0,.32-2.986,31.907,31.907,0,0,0-.95-4.4A12,12,0,0,0,521.279,667q-.7-.781-1.272-.584a3.217,3.217,0,0,0-1.125,1.18,3.039,3.039,0,0,1-1.33,1.247,1.233,1.233,0,0,1-.287.069,1.766,1.766,0,0,1,.255-.91,4.213,4.213,0,0,1,.7-.662,4.427,4.427,0,0,0,.8-.954q.548-.826.7-1.007c.4-.447,1.305-1.42,2.692-2.832a27.093,27.093,0,0,0,2.6-2.926.277.277,0,0,0,.35.047A1.258,1.258,0,0,1,524.992,660.734Z" fill="#000000"/><path d="M544.421,658.332a1.994,1.994,0,0,1-.076,1.491c-.057.367-.248,1.372-.575,2.976a18.163,18.163,0,0,0-.4,3c-.515.053-.81-.093-.9-.377a7.989,7.989,0,0,0-.174-1.4c-.22-.569-.6-.777-1.124-.578a1.872,1.872,0,0,0-1.125,1.257,17.1,17.1,0,0,0-.857,7c.035.777.053,1.166.088,1.942a9.3,9.3,0,0,0,.31,2.115c.321,1.052.919,1.543,1.8,1.416a.984.984,0,0,1,1.2.746,5.953,5.953,0,0,1-.069,2.417.838.838,0,0,1-.518.677,2.825,2.825,0,0,1-1.039.074,4.551,4.551,0,0,0-1.03.012c-.933.146-2.325.347-4.188.654-.769.137-1.2.009-1.325-.4a3.7,3.7,0,0,1-.078-.71,12.738,12.738,0,0,1-.017-1.789.948.948,0,0,1,.628-.6c.2-.073.729-.179.929-.252a.837.837,0,0,0,.543-.968,39.774,39.774,0,0,0-.309-4.4c-.045-.242-.158-.921-.318-2.058a14.022,14.022,0,0,0-.452-2.124,6.82,6.82,0,0,0-.525-1.266,4.369,4.369,0,0,1-.912.677q-.528.193-.868-.741c-.144-.4-.226-1.29-.343-1.674a1.305,1.305,0,0,1,.029-1.1,10.091,10.091,0,0,1,.807-.837c.4-.41,1.036-1.1,1.867-1.945a3.371,3.371,0,0,1,.809-.644c.3-.112.622.112.967.7a4.267,4.267,0,0,0,1.017-1.066,5.2,5.2,0,0,1,.949-1.1,8,8,0,0,1,2.379-1.446,6.985,6.985,0,0,1,2.023-.231A1.086,1.086,0,0,1,544.421,658.332Zm-4.758,3.992a4.953,4.953,0,0,1,1.8-1.054c.665-.276.955-.622.822-1.059-.07-.23-.311-.371-.737-.4a2.013,2.013,0,0,0-.881.134c-1.077.409-1.994,1.612-2.736,3.578a1.042,1.042,0,0,1-.6.683,1.274,1.274,0,0,1-.978-.094,1.157,1.157,0,0,1-.478-.653c-.107-.271-.23-.571-.341-.845a12.709,12.709,0,0,0-1.179,1.178,1.453,1.453,0,0,0-.249,1.292,1.982,1.982,0,0,0,.232.486c.068-.053.247-.215.575-.5a2.1,2.1,0,0,1,.557-.376c.326-.12.594.125.751.724a18.227,18.227,0,0,1,.472,2.745q.232,2.277.324,2.715c.118.844.23,2.237.331,4.112a33.8,33.8,0,0,0,.406,4.075,4.1,4.1,0,0,1-.826.131,4.079,4.079,0,0,0-.9.159.584.584,0,0,0-.438.671.5.5,0,0,0,.666.441c.28-.071.608-.228.938-.314a7.542,7.542,0,0,1,1.383-.137,5.215,5.215,0,0,0,1.475-.2,1.314,1.314,0,0,0,.886-1.211c-.566.068-1.4.176-2.508.385a27.038,27.038,0,0,1-.343-4.325c-.04-2.042-.085-3.488-.187-4.282A11.031,11.031,0,0,1,539.663,662.324Z" fill="#000000"/><path d="M546.98,659.032c-.108-.446.22.631.993,3.18l1.718,5.667c.546,2.349.948,3.857,1.2,4.59.33.972.5,1.458.825,2.427a7.452,7.452,0,0,1,.494,2.43,1.682,1.682,0,0,1-1.01-1.2,11.27,11.27,0,0,1-.243-1.248,11.8,11.8,0,0,0-.242-1.249c-.825-2.7-1.237-4.063-2.062-6.783-.234-.773-.585-1.976-1-3.558-.419-1.61-.751-2.844-.993-3.641-.117-.386-.456-1.316-.573-1.7a3.981,3.981,0,0,1-.133-2.353,4.733,4.733,0,0,1,.551.156A11.086,11.086,0,0,0,546.98,659.032Zm4.235,6.984c-.842-2.782-1.264-4.177-2.107-6.953-.1-.334-.5-1.384-.637-1.82-.273-.9-.278-1.554.025-1.932a11.1,11.1,0,0,1,.869,2.213c.492,1.662.709,2.426.655,2.246.282.84.588,2,.955,3.428.418,1.63.76,2.788.955,3.432.133.437.293,1.106.486,1.968s.378,1.521.5,1.931a6.9,6.9,0,0,0,1.026,2.179c.333-.274.534-.439.558-.449a1.458,1.458,0,0,1,.536.018q.836.142,1.057.183a2.986,2.986,0,0,0,1.079-.113,6.714,6.714,0,0,0,2.662-1.581A4.324,4.324,0,0,0,561.276,668a4.186,4.186,0,0,0-.2-1.563,4.465,4.465,0,0,0-1.416-2.2,3.2,3.2,0,0,0-2.408-.792,7.52,7.52,0,0,0-1.915.564,3.246,3.246,0,0,0-1.039.616c-.125.136-.3.292-.535.529s-.235.324-.046.307c-.025.01-.082,0-.214.027l-.15.059-.228-.111A2.776,2.776,0,0,1,555.1,663.3a6.206,6.206,0,0,1,3.046-.412,4.447,4.447,0,0,1,3.58,3.29,4.64,4.64,0,0,1-.978,4.741,7.358,7.358,0,0,1-2.41,1.854,5.015,5.015,0,0,1-2.027.292,5.834,5.834,0,0,0-1.846.157c-.472.185-.6.581-.414,1.192a6.3,6.3,0,0,0,.637,1.262,2.579,2.579,0,0,1,.9-.783,7.109,7.109,0,0,1,1.082-.2,10.292,10.292,0,0,0,3.1-1.237A6.2,6.2,0,0,0,562.023,671a7.953,7.953,0,0,0,1.1-3.234,6.008,6.008,0,0,0-.261-2.23,6.333,6.333,0,0,0-2.915-3.671,5.415,5.415,0,0,0-4.571-.587,4.363,4.363,0,0,0-1.864,1.292,2.693,2.693,0,0,0-.523.755.988.988,0,0,1-.435.4,3.383,3.383,0,0,1-.413.105c.037-1.255.869-2.188,2.483-2.833a7.047,7.047,0,0,1,2.268-.506,6.542,6.542,0,0,1,4.1,1.235,6.366,6.366,0,0,1,2.517,3.457,6.7,6.7,0,0,1,.267,1.248,7.726,7.726,0,0,1-1.483,5.172,9.117,9.117,0,0,1-4.168,3.473,5.571,5.571,0,0,1-3.344.356,2.687,2.687,0,0,1-.576.939,3.3,3.3,0,0,1-.711-1.318c-.117-.382-.22-.917-.351-1.605-.147-.767-.251-1.277-.312-1.569C551.953,668.642,551.411,666.66,551.215,666.016Zm2.579,7.3.15-.058c.124-.049.165-.1.15-.146-.008-.025-.081-.082-.244-.161l-.1.212Z" fill="#000000"/><path d="M577.016,664.867a7.807,7.807,0,0,0-1.558,1.356c-.634.648-.952.972-1.587,1.618a4.081,4.081,0,0,1-1.258.789,6.153,6.153,0,0,1-4.329.291,5.468,5.468,0,0,1-2.559-2.017,3.641,3.641,0,0,1-.46-.965,7.007,7.007,0,0,1-.152-2.25,9.566,9.566,0,0,1,1.874-4.927c.251-.366,1.4-1.715,3.441-4.065a5.646,5.646,0,0,0,1.3-5.007,3.067,3.067,0,0,0-.987-1.523.832.832,0,0,0-.967-.166,4.258,4.258,0,0,0-1.464,1.4,5.767,5.767,0,0,0-1.392,3.488,3.034,3.034,0,0,1-1.771,2.512,1.341,1.341,0,0,1-1.535-.2,2.08,2.08,0,0,1-.47-.82,3.419,3.419,0,0,1,.028-1.748,9.811,9.811,0,0,1,2.087-3.762,9.453,9.453,0,0,1,3.478-2.651,4.962,4.962,0,0,1,4.2-.068c1.695.8,2.994,2.567,3.814,5.308.194.647.4,1.554.668,2.692.3,1.294.5,2.189.62,2.622a16.094,16.094,0,0,1,.333,2.216,12.8,12.8,0,0,0,.372,2.248,3.5,3.5,0,0,0,.679,1.326,1.4,1.4,0,0,0,1.39.466c.413-.1.917-.316,1.32-.4a.925.925,0,0,1,1.011.68c-.823.3-1.685.644-2.512.949a8.43,8.43,0,0,1-2.606.55A7.424,7.424,0,0,0,577.016,664.867Zm-6.8.832a3.882,3.882,0,0,0,2.3.532,6.318,6.318,0,0,0,1.617-.251,3.245,3.245,0,0,0,.913-.647,1.671,1.671,0,0,0,.588-1.807c-.085-.282-.441-1.064-.556-1.469-.2-.713-.424-1.458-.626-2.171a7.587,7.587,0,0,1-.318-2.164,12.788,12.788,0,0,0-.682-2.828c-.174-.563-.378-.8-.624-.7a3.67,3.67,0,0,0-.753.729,14.837,14.837,0,0,0-2.564,4.114,8.428,8.428,0,0,0-.7,4.762A2.778,2.778,0,0,0,570.22,665.7Z" fill="#000000"/><path d="M580.345,641.817a4.922,4.922,0,0,0,.758-.336c.494-.257,1.01-.552,1.5-.812a5.9,5.9,0,0,1,1.578-.56,2.841,2.841,0,0,0,.193.64c-.2.087-.911.29-1.2.421a1.45,1.45,0,0,0-.813,1.9,5.028,5.028,0,0,0,.646,1.229c.721-1.109,1.441-2.231,2.176-3.275a6.238,6.238,0,0,1,2.927-2.336,4.091,4.091,0,0,1,3.866.514,5.944,5.944,0,0,1,2.355,3.353,15.579,15.579,0,0,1,.5,3.248c.137,1.992.214,3.139.235,3.395,0,.088,0,.329-.018.683a1.926,1.926,0,0,0,.111.741,16.354,16.354,0,0,0,2.041,3.3,5.41,5.41,0,0,0,1.7,1.6,1.206,1.206,0,0,0,1.159-.013l1.116-.516a1.527,1.527,0,0,1-.3,1.463,7.44,7.44,0,0,1-1.3.718c-.356.17-1.062.6-1.329.724a1.423,1.423,0,0,1-1.655-.248c.31-.343.808-.8,1.484-1.4a12.557,12.557,0,0,0-1.337-1.675,21.158,21.158,0,0,1-1.4-1.632,8.117,8.117,0,0,1-1.12-2.358,15.958,15.958,0,0,1-.428-4.039,15.89,15.89,0,0,0-.42-4.017,3.951,3.951,0,0,0-2.47-2.714,3.848,3.848,0,0,0-3.061.134,6.9,6.9,0,0,0-3.374,3.617,6.321,6.321,0,0,0-.4,4.863c.2.581.412,1.2.62,1.894s.493,1.747.853,3.138.638,2.406.838,3.074a25.122,25.122,0,0,0,.848,2.443c.155.51.232.765.386,1.273a1.666,1.666,0,0,0,.378.7c.033.015.259.029.743.073.258.029.372.036.355.072a.525.525,0,0,0,.085.278,7.2,7.2,0,0,1-2.055,1.257,4.032,4.032,0,0,0-.743.385,7.127,7.127,0,0,1-.685.388c-.586.258-.949.074-1.109-.544a9.01,9.01,0,0,0,1.292-.311.981.981,0,0,0,.565-.507,1.539,1.539,0,0,0-.022-.71,6.478,6.478,0,0,0-.271-.89c-.19-.517-.256-.754-.24-.7-.023-.076-.235-.59-.634-1.547a5.686,5.686,0,0,1-.276-1.1c-.109-.617-.2-1.047-.257-1.227-1.184-4.409-2.177-7.428-2.628-8.792-.247-.751-.533-2.079-1.066-3.556-.191-.529-.556-.82-.9-.766-.45.073-1.009.243-1.5.37a1.981,1.981,0,0,1,.537-1.163l.146-.064C579.534,641.8,580.117,641.888,580.345,641.817Z" fill="#000000"/><path d="M624.365,627.175a24.04,24.04,0,0,1,1.063,8.675,10.674,10.674,0,0,0,2.807-.477c.6-.164,1.251-.283,1.834-.414a7.5,7.5,0,0,0,1.837-.685,3.57,3.57,0,0,0,.762-.59,3.813,3.813,0,0,1,.731-.6c.456-.23.764-.12.9.342a2.19,2.19,0,0,1-.021.952c-.053.288-.135.568-.194.832a4.277,4.277,0,0,0,.121,1.606,6.543,6.543,0,0,0,.335,1.11,3.243,3.243,0,0,1,.37.768,6.293,6.293,0,0,1,.011,1.032,10.635,10.635,0,0,0-1.556.614,10.253,10.253,0,0,1-1.557.611c-1.075.2-2.7.578-4.873,1.163-.791.306-1.335.518-1.648.672a5.64,5.64,0,0,0-1.989,1.647q-.11.186-.978,1.692a2.664,2.664,0,0,1-1.164,1.173,1.832,1.832,0,0,1-.417.176c-.4-.213-.6-3.84-.464-7.048a32.911,32.911,0,0,0-.334-7.3c-.093-.448-.255-1.22-.482-2.2-.092-.4.031-1.112-.022-1.293-.069-.233-.348-.245-.451-.312-.1-.331-.146-.5-.244-.827a8.752,8.752,0,0,0-1.08-2.152,8.764,8.764,0,0,1-1.05-2.032,4.5,4.5,0,0,1-.151-.594,3.342,3.342,0,0,0,1.034-.331,11.136,11.136,0,0,0,1.425-.871,12.361,12.361,0,0,1,1.32-.85,1.553,1.553,0,0,1,2.314.9A29.311,29.311,0,0,1,624.365,627.175Z" fill="#000000"/><path d="M647.625,633.473a10.737,10.737,0,0,1-7.49.671,5.956,5.956,0,0,1-4.638-4.474,10.066,10.066,0,0,1-.076-5,12.3,12.3,0,0,1,2.368-5,14.7,14.7,0,0,1,4.686-4.089,7.036,7.036,0,0,1,6.195-.452,9.754,9.754,0,0,1,4.97,3.935,2.372,2.372,0,0,1,.168.388c.173.592-.12,1.1-.912,1.522-.071.038-.664.294-1.78.731q-1.935.759-6.748,3.183a51.164,51.164,0,0,1-6.816,2.973,7.72,7.72,0,0,0,.22,1.224,3.934,3.934,0,0,0,1.453,2,6,6,0,0,0,6.029.908,29.461,29.461,0,0,0,3.375-1.364,10.643,10.643,0,0,0,1.676-1.084c.686-.544,2.149-1.915,4.347-4.131a3.764,3.764,0,0,1-1.4,4.022A35.038,35.038,0,0,1,647.625,633.473Zm-7.3-13.656a13.088,13.088,0,0,0-2.647,3.663,2.968,2.968,0,0,0-.332,1.9c.114.388.445.444.954.222.843-.368,2.191-.888,3.874-1.65.6-.274,1.712-.81,3.3-1.514,1.394-.617,2.5-1.13,3.291-1.546.144-.076.482-.258.993-.492a7.16,7.16,0,0,0,.889-.468,6.612,6.612,0,0,0,.811-.636,7.871,7.871,0,0,0-3.5-2.214,5.889,5.889,0,0,0-4.227.249A11.717,11.717,0,0,0,640.329,619.817Z" fill="#000000"/><path d="M664.175,609.321a3.838,3.838,0,0,1-1.294,2.213c-.352.26-.746.512-1.121.808a1.184,1.184,0,0,0-.58,1.055.686.686,0,0,0,.591.609,2.16,2.16,0,0,0,.792-.035c.605-.1,1.261-.227,1.895-.328a4.873,4.873,0,0,1,1.826,0,2.862,2.862,0,0,1,1.992,2.279,5.9,5.9,0,0,1-.827,4.769,13.672,13.672,0,0,1-3.376,3.708c-.136.1-.465.4-.961.858a3.035,3.035,0,0,1-1.2.64,15.093,15.093,0,0,1-2.454.535,2.251,2.251,0,0,1-2.038-.851,3.968,3.968,0,0,1-.475-1.029c-.46-1.538-.119-3.579,1.006-6.078.385-.768.887-1.987,1.539-3.646a1.956,1.956,0,0,0,.105-1.07,1.421,1.421,0,0,0-.945-.78,3.158,3.158,0,0,1-1.295-.743,6.121,6.121,0,0,1-1.059-2.116,7.544,7.544,0,0,1,.536-5.62,3.959,3.959,0,0,1,1.687-1.887c.84-.447,2.221-.487,4.162-.117a4.286,4.286,0,0,1,1.946-2.328c.029.188.054.554.117,1.048a1.87,1.87,0,0,0-1.259,1.466,4.9,4.9,0,0,0,.266,2.041c.132.451.2.677.329,1.13a9.616,9.616,0,0,1,.229.977A6.365,6.365,0,0,1,664.175,609.321Zm-4.709,11.756A3.345,3.345,0,0,0,660.757,623a2.329,2.329,0,0,0,2.244.168,6.7,6.7,0,0,0,.629-.307,4.088,4.088,0,0,0,2.212-4.949,4.763,4.763,0,0,0-1.877-2.633c-.538-.425-1.278-.209-1.936-.1a6.839,6.839,0,0,1-.8-.081,1.032,1.032,0,0,0-.594.049,1.779,1.779,0,0,0-.617.924A8.085,8.085,0,0,0,659.466,621.077Zm-1.247-11.5c.5,1.725,1.329,2.481,2.49,2.19a1.891,1.891,0,0,0,.5-.177,2.972,2.972,0,0,0,1.3-2.664,8.027,8.027,0,0,0-.414-3.137,4.481,4.481,0,0,0-1.182-1.76c-.663-.635-1.246-.83-1.749-.562s-.875,1.021-1.076,2.273a10.737,10.737,0,0,0-.123,2.605A6.412,6.412,0,0,0,658.219,609.578Z" fill="#000000"/><path d="M681.615,615.295a10.671,10.671,0,0,1-7.422.787,5.767,5.767,0,0,1-4.581-4.4,10.206,10.206,0,0,1-.064-5.007,12.662,12.662,0,0,1,2.356-5.05,14.96,14.96,0,0,1,4.654-4.169,6.91,6.91,0,0,1,6.145-.532,9.5,9.5,0,0,1,4.916,3.9,2.432,2.432,0,0,1,.165.388c.17.593-.123,1.108-.911,1.534-.07.039-.659.3-1.768.751q-1.922.779-6.7,3.267a52.387,52.387,0,0,1-6.756,3.078,7.767,7.767,0,0,0,.216,1.223,3.825,3.825,0,0,0,1.433,1.982,5.864,5.864,0,0,0,5.969.815,30.133,30.133,0,0,0,3.347-1.406,10.885,10.885,0,0,0,1.663-1.1c.683-.551,2.136-1.936,4.324-4.173a3.807,3.807,0,0,1-1.4,4.028A35.739,35.739,0,0,1,681.615,615.295Zm-7.2-13.566a13.421,13.421,0,0,0-2.631,3.714,3.044,3.044,0,0,0-.334,1.911c.112.388.439.439.944.208.835-.382,2.171-.924,3.84-1.711.6-.283,1.7-.835,3.275-1.56,1.383-.636,2.48-1.163,3.267-1.589.144-.078.48-.264.987-.5a7.4,7.4,0,0,0,.883-.478,6.794,6.794,0,0,0,.807-.646A7.639,7.639,0,0,0,682,598.888a5.771,5.771,0,0,0-4.192.3A11.872,11.872,0,0,0,674.42,601.729Z" fill="#000000"/><path d="M687.892,587.625a5.3,5.3,0,0,0,.741-.4c.482-.3.986-.638,1.469-.942a6.119,6.119,0,0,1,1.543-.69,2.687,2.687,0,0,0,.184.629c-.191.1-.89.365-1.177.521a1.6,1.6,0,0,0-.8,1.989,4.718,4.718,0,0,0,.622,1.2c.709-1.182,1.418-2.375,2.142-3.487a6.863,6.863,0,0,1,2.874-2.58,3.791,3.791,0,0,1,3.775.238,5.4,5.4,0,0,1,2.274,3.244,16.008,16.008,0,0,1,.454,3.276c.115,2.022.181,3.182.2,3.441,0,.09,0,.333-.023.7a1.948,1.948,0,0,0,.1.746,14.583,14.583,0,0,0,1.968,3.2,4.677,4.677,0,0,0,1.652,1.476,1.174,1.174,0,0,0,1.134-.1l1.1-.594a1.6,1.6,0,0,1-.3,1.473,8.181,8.181,0,0,1-1.281.81c-.349.2-1.042.678-1.3.821a1.344,1.344,0,0,1-1.617-.116c.306-.366.795-.86,1.459-1.507a11.518,11.518,0,0,0-1.3-1.577,18.159,18.159,0,0,1-1.359-1.543,7.6,7.6,0,0,1-1.075-2.312,16.43,16.43,0,0,1-.383-4.083,16.41,16.41,0,0,0-.374-4.063,3.537,3.537,0,0,0-2.391-2.586,3.7,3.7,0,0,0-2.992.358,7.717,7.717,0,0,0-3.318,3.918,6.84,6.84,0,0,0-.425,4.988c.194.579.393,1.19.591,1.889s.467,1.749.809,3.141.6,2.4.8,3.063a22.9,22.9,0,0,0,.811,2.4c.148.5.222.75.37,1.246a1.469,1.469,0,0,0,.365.665c.032.012.251.007.724.009.251.006.361,0,.345.04a.5.5,0,0,0,.082.27,7.954,7.954,0,0,1-2.008,1.432,4.487,4.487,0,0,0-.723.45,7.524,7.524,0,0,1-.668.448c-.571.311-.923.162-1.077-.44a9.588,9.588,0,0,0,1.257-.426,1.111,1.111,0,0,0,.553-.558,1.574,1.574,0,0,0-.019-.707,6.311,6.311,0,0,0-.26-.868c-.183-.5-.246-.737-.231-.687-.022-.074-.226-.573-.608-1.509a5.587,5.587,0,0,1-.263-1.092c-.1-.619-.192-1.048-.243-1.227-1.125-4.393-2.073-7.43-2.5-8.777-.237-.751-.5-2.075-1.016-3.533-.182-.52-.54-.784-.868-.7-.443.11-.984.328-1.46.5a2.23,2.23,0,0,1,.528-1.218l.143-.077C687.1,587.674,687.669,587.716,687.892,587.625Z" fill="#000000"/><path d="M717.71,581.347a15.873,15.873,0,0,1,1.332,3.305,12.028,12.028,0,0,1-.687,9.227,8.251,8.251,0,0,1-3.1,3.152,7.109,7.109,0,0,1-3.863.985,2.611,2.611,0,0,1-2.722-2.1,8.785,8.785,0,0,1,.866-5.45,12.035,12.035,0,0,1,3.37-4.649c1.053-.84,1.53-1.512,1.407-1.953a4.924,4.924,0,0,0-1.621-1.869,8.194,8.194,0,0,1-2.768-3.663,3.274,3.274,0,0,1,1.161-3.544,1.8,1.8,0,0,1,1.816.154,5.108,5.108,0,0,1,1.525,1.464C715.177,577.434,716.288,579.1,717.71,581.347Zm-5.122,11.422c.205.71.741.942,1.611.705a4.073,4.073,0,0,0,.515-.221,4.365,4.365,0,0,0,1.993-3.706,6.293,6.293,0,0,0-.147-1.395c-.16-.564-.473-.777-.944-.616-.695.238-1.6,1.342-2.694,3.318A2.522,2.522,0,0,0,712.588,592.769Z" fill="#000000"/><path d="M743.717,562.89c-.356.3-.72.607-1.094.925a3.175,3.175,0,0,0-.9,1.236,6.778,6.778,0,0,0-.432,2.831,24.112,24.112,0,0,0,.584,3.43,11.138,11.138,0,0,0,1.474,4.025,7.707,7.707,0,0,0,2.962,2.428A3.971,3.971,0,0,0,747.6,578a.791.791,0,0,1,.76.587,2.651,2.651,0,0,1,.06.387,2.238,2.238,0,0,1-1.145.266l-.406-.151a12.571,12.571,0,0,0-1.937.68,5,5,0,0,0-1.183.6,10.718,10.718,0,0,0-1.727,1.84,7.022,7.022,0,0,1-1.73,1.728,4.383,4.383,0,0,1,.077-1.867c.244-1.233.37-1.848.363-1.873a15.432,15.432,0,0,0-.226-5.764,15.161,15.161,0,0,1-.272-1.777,10.393,10.393,0,0,0-.38-1.787c-.046-.15-.2-.7-.425-1.647a4.832,4.832,0,0,0-.616-1.544.723.723,0,0,0-1.041-.282c-.192.1-.6.406-.771.5-.313.164-.538.046-.659-.393.742-.6,1.915-1.532,3.451-2.551a14.858,14.858,0,0,0,3.1-2.531c.5-.174.666-.083.723.122Zm-4.768-4.6c.2.44.3.662.492,1.109a.624.624,0,0,0,.941.283c.216-.112.447-.268.643-.363a.379.379,0,0,1,.553.288.477.477,0,0,1-.181.527c-.264.2-.405.327-.429.339a1.3,1.3,0,0,0-.221,1.074,2.733,2.733,0,0,0,.359.686c.243.367.358.487.329.385,0,0-.029.19-.057.586a6.078,6.078,0,0,1-.9-.147,1.382,1.382,0,0,0-.9.033c-.577.3-.915,1.062-1.031,2.331-.425-.042-.689-.2-.768-.479a6.222,6.222,0,0,1,.376-2.1c-.353-.077-.651-.154-.924-.241a.922.922,0,0,1-.359-.189c-.072-.121-.11-.289-.177-.428.62-.441,1.386-.966,1.479-1.5C738.315,559.707,738.2,558.761,738.949,558.286Z" fill="#000000"/><path d="M745.593,556.8a5.336,5.336,0,0,0,.748-.386c.488-.29,1-.617,1.484-.909a6.138,6.138,0,0,1,1.557-.657,2.626,2.626,0,0,0,.179.624c-.193.1-.9.346-1.188.5a1.564,1.564,0,0,0-.826,1.956,4.661,4.661,0,0,0,.612,1.2c.724-1.162,1.448-2.332,2.187-3.419a6.77,6.77,0,0,1,2.915-2.5,3.82,3.82,0,0,1,3.777.347,5.492,5.492,0,0,1,2.247,3.276,15.812,15.812,0,0,1,.425,3.254c.1,2,.151,3.152.167,3.408,0,.09-.008.33-.03.687a1.91,1.91,0,0,0,.1.74,14.437,14.437,0,0,0,1.945,3.207,4.758,4.758,0,0,0,1.644,1.491,1.2,1.2,0,0,0,1.139-.068l1.1-.552a1.516,1.516,0,0,1-.316,1.43,8.072,8.072,0,0,1-1.291.758c-.352.183-1.051.638-1.315.771a1.381,1.381,0,0,1-1.621-.149c.309-.351.8-.823,1.474-1.44a11.809,11.809,0,0,0-1.288-1.579,17.736,17.736,0,0,1-1.348-1.555,7.558,7.558,0,0,1-1.056-2.313,16.15,16.15,0,0,1-.346-4.051,16.086,16.086,0,0,0-.337-4.031,3.618,3.618,0,0,0-2.37-2.629,3.681,3.681,0,0,0-3,.271,7.554,7.554,0,0,0-3.376,3.819,6.728,6.728,0,0,0-.48,4.952c.188.58.381,1.193.572,1.893s.45,1.75.778,3.141.581,2.4.766,3.057a22.343,22.343,0,0,0,.792,2.389c.144.5.216.744.361,1.235a1.422,1.422,0,0,0,.361.659c.031.012.252.009.728.015.253.008.363.007.347.042a.474.474,0,0,0,.08.266,8.058,8.058,0,0,1-2.032,1.393,4.52,4.52,0,0,0-.731.438c-.322.223-.555.374-.676.437-.577.3-.929.154-1.079-.441a9.655,9.655,0,0,0,1.267-.411,1.1,1.1,0,0,0,.561-.545,1.53,1.53,0,0,0-.013-.7,5.871,5.871,0,0,0-.253-.86c-.18-.5-.241-.731-.226-.681-.022-.074-.221-.569-.6-1.5a5.455,5.455,0,0,1-.252-1.088c-.1-.615-.182-1.043-.232-1.222-1.083-4.384-2-7.434-2.412-8.783-.229-.751-.484-2.074-.983-3.527-.178-.519-.534-.786-.865-.709-.445.1-.99.311-1.469.474a2.17,2.17,0,0,1,.541-1.2l.144-.075C744.8,556.838,745.368,556.887,745.593,556.8Z" fill="#000000"/><path d="M789.572,541.3a23.256,23.256,0,0,1,.87,8.55,11.14,11.14,0,0,0,2.822-.412c.609-.148,1.261-.249,1.849-.362a7.786,7.786,0,0,0,1.861-.62,3.568,3.568,0,0,0,.779-.553,3.762,3.762,0,0,1,.75-.566c.463-.209.771-.092.9.361a2.052,2.052,0,0,1-.041.923c-.061.277-.149.546-.215.8a3.967,3.967,0,0,0,.088,1.551,5.95,5.95,0,0,0,.313,1.073,3.075,3.075,0,0,1,.357.741,5.713,5.713,0,0,1-.011.979,10.959,10.959,0,0,0-1.579.557,11.026,11.026,0,0,1-1.579.559c-1.084.172-2.726.518-4.914,1.066-.8.289-1.348.49-1.664.637a5.725,5.725,0,0,0-2.02,1.578c-.076.119-.412.661-1.009,1.621a2.726,2.726,0,0,1-1.183,1.127,1.843,1.843,0,0,1-.418.172c-.378-.2-.527-3.667-.329-6.809a32.165,32.165,0,0,0-.174-7.192c-.082-.444-.228-1.209-.432-2.175-.083-.394.055-1.1.006-1.274-.064-.231-.342-.245-.443-.313-.09-.327-.135-.49-.226-.815a8.26,8.26,0,0,0-1.031-2.116,8.453,8.453,0,0,1-1.007-1.978,4.136,4.136,0,0,1-.139-.573,3.536,3.536,0,0,0,1.037-.317,11.578,11.578,0,0,0,1.439-.833,12.439,12.439,0,0,1,1.335-.809,1.559,1.559,0,0,1,2.3.89A27.029,27.029,0,0,1,789.572,541.3Z" fill="#000000"/><path d="M806.754,532.758c-.363.273-.735.544-1.116.829a2.856,2.856,0,0,0-.92,1.144,6.166,6.166,0,0,0-.457,2.722,23.376,23.376,0,0,0,.571,3.368,11.106,11.106,0,0,0,1.469,3.994,8.313,8.313,0,0,0,2.989,2.523,4.348,4.348,0,0,0,1.307.3.848.848,0,0,1,.765.611,2.567,2.567,0,0,1,.057.376,2.321,2.321,0,0,1-1.165.189l-.411-.169a12.832,12.832,0,0,0-1.973.544,4.914,4.914,0,0,0-1.207.508,9.913,9.913,0,0,0-1.772,1.679,6.572,6.572,0,0,1-1.773,1.572,4.017,4.017,0,0,1,.1-1.795c.26-1.177.394-1.765.387-1.79a14.335,14.335,0,0,0-.182-5.6,14.373,14.373,0,0,1-.264-1.742,9.967,9.967,0,0,0-.374-1.759c-.045-.149-.2-.7-.42-1.627a4.864,4.864,0,0,0-.615-1.537.777.777,0,0,0-1.054-.336c-.195.087-.614.359-.785.436-.318.141-.546.013-.666-.42a41.673,41.673,0,0,1,3.518-2.273,13.925,13.925,0,0,0,3.161-2.264c.512-.138.677-.04.734.163Zm-4.8-4.743c.2.436.293.657.489,1.1a.668.668,0,0,0,.951.329c.22-.1.457-.233.654-.312a.4.4,0,0,1,.559.311.433.433,0,0,1-.188.5c-.268.177-.413.292-.437.3a1.173,1.173,0,0,0-.232,1.026,2.753,2.753,0,0,0,.359.687c.244.37.359.493.331.393,0,0-.031.182-.062.565a6.832,6.832,0,0,1-.907-.2,1.451,1.451,0,0,0-.915-.023c-.587.258-.936.974-1.062,2.2-.43-.066-.7-.233-.775-.511a5.625,5.625,0,0,1,.4-2.013c-.357-.1-.659-.186-.935-.288a.988.988,0,0,1-.362-.2c-.072-.121-.11-.287-.176-.425.632-.39,1.412-.857,1.511-1.36C801.3,529.351,801.192,528.43,801.954,528.015Z" fill="#000000"/><path d="M832.093,522.227l.191.093a3.671,3.671,0,0,1,1.865,1.036,15.626,15.626,0,0,1,3.4,4.172,14.02,14.02,0,0,0,4.457,5.25,4.956,4.956,0,0,0,2.617.572,4.307,4.307,0,0,1,2.435.49,4.32,4.32,0,0,1-1.153.807,2.714,2.714,0,0,1-1.2.1c-.882-.037-1.322-.056-2.2-.1a3.374,3.374,0,0,1-1.935-.8c-1.191-1.126-3.02-2.859-5.467-5.19a1.658,1.658,0,0,0-1.809-.442c-.945.376-1.57,1.309-1.893,2.821a10.182,10.182,0,0,1-2.609,5.445,3.169,3.169,0,0,1-.977.648c-1.189.487-2.516.02-3.948-1.441-.378-.463-.779-.93-1.167-1.409a3.177,3.177,0,0,0-1.423-1.056,1.135,1.135,0,0,0-.808-.034,3.742,3.742,0,0,0-.983,1.124,10.889,10.889,0,0,0-1.611,4.308,8.927,8.927,0,0,1-1.88,4.264c-.439.492-.91.978-1.355,1.436a5.838,5.838,0,0,1-1.7,1.307.908.908,0,0,1-1.29-.345,8.425,8.425,0,0,1,1.105-.673,6.1,6.1,0,0,0,1.217-.858,11.294,11.294,0,0,0,2.182-3.389,15.277,15.277,0,0,0,1.609-6.583,3.544,3.544,0,0,1,.225-1.18,7.016,7.016,0,0,0,.33-1.194,9.65,9.65,0,0,1,.4-2.331,3.038,3.038,0,0,1,1.685-1.862,1.744,1.744,0,0,1,1.25-.065,26.11,26.11,0,0,1,2.333,1.451c1.039.681,1.841.865,2.388.558a6.665,6.665,0,0,0,1.966-2.954,9.508,9.508,0,0,1,2.711-3.933,1.976,1.976,0,0,0,.713.08Z" fill="#000000"/><path d="M844.093,515.892c-.1-.433.2.6.905,3.113.625,2.23.938,3.361,1.563,5.589.482,2.31.844,3.767,1.074,4.472.3.935.454,1.4.757,2.309a6.487,6.487,0,0,1,.427,2.263,1.487,1.487,0,0,1-.974-1.1,9.558,9.558,0,0,1-.208-1.172,10.431,10.431,0,0,0-.208-1.188c-.749-2.579-1.124-3.923-1.874-6.606-.213-.763-.53-1.954-.9-3.514-.375-1.587-.674-2.8-.894-3.572-.107-.376-.42-1.278-.526-1.649a3.666,3.666,0,0,1-.071-2.253,4.729,4.729,0,0,1,.544.145A10.281,10.281,0,0,0,844.093,515.892Zm4.036,6.879c-.767-2.742-1.151-4.135-1.918-6.842-.093-.326-.467-1.346-.587-1.766-.249-.867-.236-1.492.076-1.852a9.912,9.912,0,0,1,.807,2.126c.446,1.609.643,2.364.594,2.188.259.822.534,1.966.862,3.372.375,1.607.685,2.749.863,3.383.121.43.263,1.088.433,1.93s.336,1.481.45,1.878a6.182,6.182,0,0,0,.965,2.091c.341-.263.545-.42.571-.43a1.506,1.506,0,0,1,.533.017q.832.134,1.053.172a3.213,3.213,0,0,0,1.084-.107,7.174,7.174,0,0,0,2.715-1.481,4.124,4.124,0,0,0,1.528-2.609,3.847,3.847,0,0,0-.153-1.5,4.324,4.324,0,0,0-1.363-2.163,3.276,3.276,0,0,0-2.4-.83,7.555,7.555,0,0,0-1.936.513,3.256,3.256,0,0,0-1.057.586c-.13.132-.31.281-.55.511s-.244.314-.055.3c-.025.009-.082,0-.215.024l-.15.056-.226-.112a2.777,2.777,0,0,1,2.028-2.067,6.318,6.318,0,0,1,3.069-.337,4.423,4.423,0,0,1,3.51,3.283,4.266,4.266,0,0,1-1.122,4.5,7.729,7.729,0,0,1-2.474,1.731,5.458,5.458,0,0,1-2.038.277,6.21,6.21,0,0,0-1.85.155c-.477.179-.617.556-.447,1.13a5.407,5.407,0,0,0,.6,1.17,2.7,2.7,0,0,1,.923-.739,7.658,7.658,0,0,1,1.086-.2,11.518,11.518,0,0,0,3.143-1.163,6.243,6.243,0,0,0,2.338-2.273,7.235,7.235,0,0,0,1.2-3.035,5.451,5.451,0,0,0-.2-2.14A6.244,6.244,0,0,0,857,518.872a5.541,5.541,0,0,0-4.578-.689,4.378,4.378,0,0,0-1.9,1.231,2.668,2.668,0,0,0-.543.734,1,1,0,0,1-.446.39,3.47,3.47,0,0,1-.415.1c.071-1.234.925-2.14,2.56-2.74a7.137,7.137,0,0,1,2.289-.444,6.683,6.683,0,0,1,4.089,1.321,6.428,6.428,0,0,1,2.673,4.629,6.99,6.99,0,0,1-1.649,4.857,9.581,9.581,0,0,1-4.287,3.214,6.133,6.133,0,0,1-3.355.368,2.6,2.6,0,0,1-.6.878,2.791,2.791,0,0,1-.672-1.215,14.619,14.619,0,0,1-.307-1.512c-.125-.728-.215-1.218-.269-1.5C848.8,525.382,848.307,523.406,848.129,522.771Zm2.379,7.082.15-.056c.125-.047.168-.091.154-.139-.007-.024-.079-.078-.24-.152l-.107.2Z" fill="#000000"/><path d="M869.893,507.192c1.367-1.465,2.092-2.24,2.155-2.314a7.336,7.336,0,0,1,2.679-1.653,6.777,6.777,0,0,1,2.6-.3,3.383,3.383,0,0,1,2.335.925,10.654,10.654,0,0,1,2.533,4.006,5.279,5.279,0,0,1,.21,2.134c-.066.732-.143,1.475-.222,2.184a15.106,15.106,0,0,1-4.65,9.46,19,19,0,0,1-6.508,3.9,8.591,8.591,0,0,1-6.015.2,4.892,4.892,0,0,1-2.987-3.457,14.96,14.96,0,0,1,2.579-11.569c.08-.11.462-.629,1.115-1.565a2.549,2.549,0,0,1,1.244-1.107,2.275,2.275,0,0,1,.7-.1,7.127,7.127,0,0,1-1.112,2.657,9.091,9.091,0,0,0-1.232,2.639,12.931,12.931,0,0,0-.114,5.922,6.18,6.18,0,0,0,.217.667,4.155,4.155,0,0,0,2.855,2.755,6.94,6.94,0,0,0,4.075-.308,11.824,11.824,0,0,0,3.57-1.944,9.681,9.681,0,0,0,3.015-4.462,8.789,8.789,0,0,0,.366-5.411,4.86,4.86,0,0,0-2.925-3.348,4.24,4.24,0,0,0-2.988-.01,9.873,9.873,0,0,0-3.151,1.868,6.028,6.028,0,0,0-1.339,2.161,4.713,4.713,0,0,1-1.341,2.063c-.362-.792.106-1.7.492-2.6A9.936,9.936,0,0,1,869.893,507.192Z" fill="#000000"/></g><path d="M237.042,934.386l-5.864,5.865,5.864,5.888a8.323,8.323,0,1,1,0-11.753Z" fill="#000000"/><path d="M245.1,937.259a5.649,5.649,0,1,1-5.318,5.65A5.491,5.491,0,0,1,245.1,937.259Zm2.565,5.912a2.571,2.571,0,1,0-5.1-.475,2.569,2.569,0,1,0,5.1.475Zm-2.3-2.85a2.631,2.631,0,0,1-.5,5.224,2.575,2.575,0,0,1-2.208-2.849A2.51,2.51,0,0,1,245.356,940.321Z" fill="#000000"/><path d="M263.072,942.149a4.739,4.739,0,0,1-5.033,4.441,4.433,4.433,0,0,1-3.229-1.876v8.215h-2.826V938.493l-.879-1.281h3.705v1.614a4.524,4.524,0,0,1,4.131-1.971A4.744,4.744,0,0,1,263.072,942.149Z" fill="#000000"/><path d="M275.683,937.282l-9.355,15.409h-1.994l3.538-5.84h-.523l-3.775-9.5h2.184l3.111,7.834,4.8-7.906Z" fill="#000000"/><path d="M282.6,938.161a2.615,2.615,0,0,1,2.588,2.611,2.7,2.7,0,0,1-.285,1.236,2.871,2.871,0,0,0-2.255-.974,2.842,2.842,0,0,0-2.3,1.045v6.362H277.87v-7.526h-1.519l3.988-3.514v2.066A2.588,2.588,0,0,1,282.6,938.161Z" fill="#000000"/><path d="M286.491,940.155v-.735l3.68-1.259v10.28H287.7v-8.286Zm2.256-4.7a1.567,1.567,0,1,1,1.59-1.566A1.565,1.565,0,0,1,288.747,935.454Z" fill="#000000"/><path d="M303.683,937.069h-2.826a3.962,3.962,0,0,1,.642,2.232,4.145,4.145,0,0,1-4.156,4.155h-.118a2.6,2.6,0,0,0-2.47,2.326,1.7,1.7,0,0,0,.143.689,4.241,4.241,0,0,1,2.968-1.187,4.287,4.287,0,1,1-3.823,2.279,2.847,2.847,0,0,1-.665-1.781,3.332,3.332,0,0,1,1.947-2.848,4.185,4.185,0,0,1,2.018-7.835,4.064,4.064,0,0,1,2.469.831h3.871Z" fill="#000000"/><path d="M312.945,937.235a4.034,4.034,0,0,1,4.037,4.036v7.384h-3.49v-8.926a2.015,2.015,0,0,0-.547-.1,1.641,1.641,0,0,0-1.638,1.638h-1.519v7.17H306.3V929.9h3.491v8.833A4,4,0,0,1,312.945,937.235Z" fill="#000000"/><path d="M326.387,946.02a2.823,2.823,0,0,1-2.825,2.778v-1.639h-2.588v-8h-1.852V936.9h1.852v-2.208h2.683V936.9h2.3v2.256h-2.3v6.862Z" fill="#000000"/><path d="M336.5,929.78l1.52,4.131-6.268,13.89h-3.229Zm-4.51,5.01v1.946h-1.805v-3.679l2-3.419h3.775l-2.066,4.012h-1.211Zm5.1,8.6,1.781.546-1.235,4.51h-5.532l2.113-4.724,2.232,1.519Z" fill="#000000"/><path d="M343.915,932.178s-1.473,2.612-1.473,8.073,3.087,6.054,3.087,6.054v-1.069c0-.522.118-.593.451-.593.594,0,2.089-1.258,2.089-5.223s-1.163-4.678-1.163-4.678-2.35,9.189-2.446,9.5c-.047.332-.166.4-.332.285a3.344,3.344,0,0,1-.427-.474.557.557,0,0,1-.119-.547s1.971-8.642,2.375-10.375c.166-.736.427-1.615.878-1.805.4-.189,2.041-.237,3.205,2.137,1.021,2.042,1.092,5.58.57,8.477-1.045,5.056-3.419,3.917-3.419,3.917v2.232c0,.712-.523,1.282-1.781.854-4.582-1.424-5.793-6.172-4.986-11.491.831-5.343,2.47-8.714,4.345-8.144s1.188,3.348,1.188,3.348Z" fill="#000000"/><path d="M360.324,944.714h.5l-2.683,4.06h-5.319v-4.06h3.229v-8.262h-2.991v-2.778l2.991-4.084h4.274Z" fill="#000000"/><path d="M372.293,938.47l-1.543,3.324h-5.888V929.78l2.54,3.585v5.105Zm-.451-5.033H368.59l-2.565-3.942h5.817Zm-.736,8.951,2.185-2.779v8.832h-5.58v-3.133l3.372.213Z" fill="#000000"/><path d="M391.2,948.441a1.291,1.291,0,0,1,1.115,1.283c0,.688-2.3.854-3.75.759-1.378-.094-2.328-.569-2.328-1.709,0-1.187,1.829-2.136,2.517-2.136C389.487,946.638,390.722,948.441,391.2,948.441Zm7.763-4.107c0,2.541-2.682,4.107-4.843,4.107-2.208,0-5.651-1.709-4.63-5.175a4.227,4.227,0,0,1,3.846-3.063.926.926,0,0,1,.784-.617c-1.116,0-2.184-.024-3.158-.048-3.157-.142-4.06-.76-4.06-1.757,0-1.377,1.971-1.543,2.612-1.543,0,0,.427,0,1.092-.024a3.5,3.5,0,0,1-1.14-2.4h-.474a.288.288,0,0,1-.309.286,1.579,1.579,0,0,1-1.805-1.663,1.612,1.612,0,0,1,1.781-1.615c.333,0,.356.167.356.167h.547c.356-1.662,1.021-3.181,2.73-3.181,1.424,0,1.591,1.685,1.543,3.181h.974c.071-1.615.237-3.11,1.946-3.11,1.259,0,2.185.76,2.422,3.134,1.377.023,2.042.854,2.042,1.59,0,.76-1.448,1.211-2.089,1.211h-.047a4.179,4.179,0,0,1-.855,2.327c3.11.047,3.253,1,3.253,1.638s-.428,1.14-1.473,1.472a38.646,38.646,0,0,1-5.888.333,1.136,1.136,0,0,1,.95.712C397.441,940.7,398.96,942.031,398.96,944.334Zm-6.078-2.065a2.223,2.223,0,0,0-1.567,1.424c.428-.071.974-.166,1.567-.237Zm-1.567,2.635a2.138,2.138,0,0,0,1.876,1.9,6.47,6.47,0,0,1-.261-1.71C392.384,945.022,391.814,944.976,391.315,944.9Zm1.52-8.714c.736,0,1.543-.023,2.351-.023a5.573,5.573,0,0,1-.5-2.351h-1.021A4.4,4.4,0,0,1,392.835,936.19Zm1.9,10.661a2.247,2.247,0,0,0,1.924-1.875c-.428.023-.927.046-1.52.118A7,7,0,0,1,394.734,946.851Zm.641-4.463c-.023.284-.023.617-.071,1.044a11.8,11.8,0,0,1,1.282.19A2.631,2.631,0,0,0,395.375,942.388Zm5.2,4.962c1.425,0,1.924,2.255,1.187,2.991-.712.713-3.062.594-4.226.333-1.235-.262-1.567-.665-1.567-1.282,0-.76.736-.689,1.71-.951C398.676,948.228,399.222,947.35,400.575,947.35Z" fill="#000000"/><path d="M410.909,938.8c-.76.95-1.709,1.472-2.706.95-1.021-.546-1.734-1.425-1.235-2.611a6.729,6.729,0,0,1,.831-1.473c.166-.285.332-1.021.047-1.306-.237-.237-.166-.64.285-.807.452-.142,1.591-.4,1.591-.4,0-.213.38-.38.926.262.475.475-.047.807-.57,1.614-.546.784-1.187,1.828-1,2.422.143.617,1.116-.547,2.089-.641s1.852-.807,2.541-.807c.641,0,.664.261.095.521A11.138,11.138,0,0,0,410.909,938.8ZM427.1,949.534l-3.395.356a5.09,5.09,0,0,0-5.461-5.485c-5.817,0-7.123,4.393-7.123,4.393l-1.258-.357s-1.14.38-1.4-.451c-.238-.926.664-4.368.664-5.27,0-.855.642-1.188,1.4-1.543a.822.822,0,0,1,1.283.4,5.169,5.169,0,0,1,.355,1.092,8.7,8.7,0,0,1,6.625-2.445c4.463.094,6.1,2.065,7.17,4.558A12.577,12.577,0,0,1,427.1,949.534ZM412.049,933.46c-.237.38-.617.095-.807-.118-.166-.167-.76-1-.76-1a18.111,18.111,0,0,0,5.057-1.8,3.1,3.1,0,0,0,1.306-1.733c0-.309-.855-.712-.38-.712a36.291,36.291,0,0,1,3.7.07c1.306.143.95.476.831,1a3.071,3.071,0,0,1-2.636,2.564C416.156,932.178,412.049,933.46,412.049,933.46Zm9.568,15.457a1.68,1.68,0,0,1,1.52,1.329c.166.428-.143.665-.641.665,0,0-9.212-.38-9.687-.38a.534.534,0,0,1-.5-.807l.712-1.235c.214-.356.736-.19,1.045.072C414.067,948.561,420.573,948.917,421.617,948.917Zm-3.4-16.335c1.116.047.95.309,1.14.522.19.19,1.5.759,1.947,1.021.4.237.545.594-.38,1.377a5.1,5.1,0,0,1-.784.428c1.211.664,2.493,1.234,3.467,1.732,1.448-1.448,2.92,0,2.73.713-.166.688-.119,1.377-.285,1.852-.166.5-1,.261-1.377-.119,0,0-5.081-1.781-7.337-3.561a8.761,8.761,0,0,1-2.848-.523l.712-.831a5.86,5.86,0,0,0,1.044.072A1.9,1.9,0,0,1,418.222,932.582Zm.166,13.106A2.632,2.632,0,0,1,421,947.706l-6.458-.5A5.573,5.573,0,0,1,418.388,945.688Zm.19-10.755c1.472-.523.57-1.188.166-1.188-.451,0-1.377.047-.688.689A2.63,2.63,0,0,0,418.578,934.933Z" fill="#000000"/><path d="M448.88,930.943c.808,0,.95.523.95,1s-1.211,8-2.683,11.4c-1.472,3.371-5.128,5.532-12.346,5.983a8.1,8.1,0,0,1-3.3-.451l-.213-5.27s6.363.854,10-1.5c1.709-1.306,2.588-3.61,3.039-5.889-3.158.167-11.159.57-11.99.57-1.069,0-.926-.854-.926-.854l.451-4.987Z" fill="#000000"/><path d="M454.086,932.012l20.039-.118-.95,16.547H454.086Zm13.272,9.687v-4.226h-7.193V941.7Z" fill="#000000"/><path d="M483.368,935.336l-.879,2.636-5.651-1.876.878-2.636Zm11.776.166,3.395,2.4c-.593,1.187-7.907,8.453-9.307,9.735a6.183,6.183,0,0,1-7.74.355c-3.277-2.706-1.235-6.624-1.235-6.624l2.114.831s-.357,1.948.806,2.636c.713.38,1.473.617,3.039-.451C487.807,943.29,495.144,935.5,495.144,935.5Z" fill="#000000"/><path d="M501.441,937.947H519.6v3.419h-6.766l-.19,4.987c-.1,1.424-1.116,3.751-3.419,3.751h-7.146v-3.728l3.134.048a1.764,1.764,0,0,0,1.519-1.876c0-.974.024-3.182.024-3.182h-5.319Zm16.43-8.855v6.647H503.127v-6.647Z" fill="#000000"/><path d="M542.476,938.992c.26.285.545.57.166.855a19.537,19.537,0,0,1-5.841,2.8,6.722,6.722,0,0,1-.594,2.66,18.66,18.66,0,0,0-.688,3.893c0,.4-.309.546-.618.546h-2.35c-.309,0-.332-.355-.332-.521a20.572,20.572,0,0,1,.783-3.942,16.137,16.137,0,0,0,.476-2.256,53,53,0,0,1-6.246-.356c-.379-.071-.379-.213-.379-.664s.142-2.8.285-4.417c.048-.664.333-.546.831-.356a10.206,10.206,0,0,0,6.2-.119,22.039,22.039,0,0,0,5.627-3.774c.355-.4.546-.571.949-.167a4.286,4.286,0,0,1,.713,2.921A4.834,4.834,0,0,0,542.476,938.992Z" fill="#000000"/><path d="M550.389,936.452l-.689-4.44c-.1-.451-.119-.878.475-.878.569,0,14.933.166,14.933.166.547,0,.76.213.76.878s-.047,1.685-.047,1.685a1.725,1.725,0,0,1-.285,1.07c-.38.735-3.656,7.027-6.055,7.455a2.239,2.239,0,0,1,.238,1.4A7.9,7.9,0,0,1,557.8,947.9c-.451.451-1.923,1.424-2.588.973l-2.777-1.639c-.547-.355-.523-.949.166-1.068a8.654,8.654,0,0,0,3.253-3.561c0-.522-.38-2.493.64-3.514s1.948,0,2.351.642a4.255,4.255,0,0,0,1.851-3.135c0-.356-.617-.024-1.448.119-.831.166-6.007.617-6.98.617S550.483,937.188,550.389,936.452Z" fill="#000000"/><path d="M585.984,941.177l2.731.783a9.476,9.476,0,0,1-2.279,4.369,13.616,13.616,0,0,0,2.279.973l-1.259,1.781a8.044,8.044,0,0,1-3.11-1.14,11.264,11.264,0,0,1-6.078,1.14c-6.7-.451-6.7-9.26-4.322-12.607a12.452,12.452,0,0,1,6.577-4.821A5.673,5.673,0,0,1,584.679,929c3.11,0,4.985,2.944,3.988,6.625-.712-1.069-3.49-2.138-6.292-1.781a10.846,10.846,0,0,0-.332,1.448c-.451,2.565-.57,6.244,1.923,9.07A10.425,10.425,0,0,0,585.984,941.177Zm-8.31-4.725c-3.323,4.274-1.733,9.5,2.826,9.5a4.227,4.227,0,0,0,1.258-.189,15.242,15.242,0,0,1-2.588-4.748,10.9,10.9,0,0,1-.214-5.818A7.183,7.183,0,0,0,577.674,936.452Zm7.811-6.268a2.086,2.086,0,0,0-1.946,1.139,11.613,11.613,0,0,1,3.608.737A1.839,1.839,0,0,0,585.485,930.184Z" fill="#000000"/><path d="M607.454,945.4l6.909-.118-.4,5.485H593.612v-5.176l5.745-.072c-.023-5.152-.118-8.713,3.705-16.667.261-.546.617-.618,1,.119a30.955,30.955,0,0,1,2.564,7.123,4.5,4.5,0,0,0,3.7-2.256c.237-.38.214-.427.523-.427.332,0,2.445-.1,2.445-.1s-.475,4.132-6.221,5.105A32.777,32.777,0,0,1,607.454,945.4Z" fill="#000000"/><path d="M616.459,938.8c-.1.048-.237.1-.309-.071l-.333-.855a.258.258,0,0,1,.072-.332c.166-.1,1-.428,1-.428a1.091,1.091,0,0,1,1.116.309c.5.451,1.33.19,1.614.142.262-.046.309-.046.38.072.1.166.451,1.211.451,1.211.072.19.025.285-.237.379a2.211,2.211,0,0,1-1.923,0c-.665-.4-.926-.617-1.306-.545C616.625,938.755,616.459,938.8,616.459,938.8Zm3.751,3.846c.237,0,.309.1.309.261v1.568c0,.285-.072.379-.286.379a8.956,8.956,0,0,1-.925-.189,4.9,4.9,0,0,0-1.781.427.622.622,0,0,1-.665-.143s-.783-.783-.949-.972a.47.47,0,0,1,.047-.594l1.021-1.876a.54.54,0,0,1,.546-.166l1.258.047c.357,0,.523.309.333.522,0,0-.854,1.022-1.093,1.282a3.835,3.835,0,0,0,1.211-.237A3.184,3.184,0,0,1,620.21,942.648Zm.76-7.027c0,.118,0,.19-.214.19,0,0-.523,0-1.044-.048a2.377,2.377,0,0,1-1.687-.712,1.484,1.484,0,0,0-1.211-.1c-.141.047-.237-.048-.379-.214l-.4-.617c-.071-.143-.094-.214,0-.333a4.313,4.313,0,0,1,.855-.5c.427-.214.926-.143,1.662.4a2.241,2.241,0,0,0,1.947.285c.166-.023.475-.094.475.214Zm17.665,5.722c.142.428-.38.4-.451.189a37.764,37.764,0,0,1-4.655.642c-.284.023-.546.047-.83.047a2.563,2.563,0,0,1-.095.759c.142-.023.213-.046.261-.046.309-.072.451,0,.451.26,0,0-.119.951-.167,1.259-.071.38-.189.546-.5.641a4.025,4.025,0,0,1-.474.142,15.957,15.957,0,0,1-1.236,3.111c-.166.237-.426.427-1.044.332a11.557,11.557,0,0,1-2.944-.593c-.19-.167-.214-.262-.1-.523a8.933,8.933,0,0,1,.5-1c.238-.4.4-.261.808-.1.285.071.427-.118.665-.332.071-.119.142-.238.213-.38-.309.023-.593.023-.783.023-1.116,0-2.968,0-3.585-1.519a5.993,5.993,0,0,1-.285-2.351,5.272,5.272,0,0,0-2.351.95c-.309.118-.475.047-.522-.094l-.57-1.022a.516.516,0,0,1,.1-.641,6.464,6.464,0,0,1,3.585-1.472,9.871,9.871,0,0,1,.476-1.923,1.134,1.134,0,0,1,1.234-.9h5.413c0-.1.356-.261.617.142a11.86,11.86,0,0,1,.357,3.49,13.35,13.35,0,0,0,2.089-.64,1.554,1.554,0,0,1,2.493-1.259A4.349,4.349,0,0,1,638.635,941.343Zm-16.312-6.672c-.19-.071-.214-.214-.214-.451s.784-1.615.926-2.446a6.189,6.189,0,0,0,.119-1.234c0-.356-.119-.451.024-.594.166-.142.356.047.688.047a9.452,9.452,0,0,0,1.5-.141,1.007,1.007,0,0,1,.831-.025c.332.119.261.285.19.523-.1.261-.926,2.469-.926,2.469-.071.166.143.19.214.119a3.643,3.643,0,0,1,1.757-.475c1.614,0,2.707.76,3.585.712.4,0,1.021-.047,1.187-.237.19-.19.261,0,.451.19.166.166.048.189-.071.355a2.062,2.062,0,0,0-.285,1.211c0,.476.048.571-.166.571a13.058,13.058,0,0,0-2.92-.475c-1.449,0-2.422.546-3.941.38A21.627,21.627,0,0,1,622.323,934.671Zm5.818,8.595v-1.211a12.023,12.023,0,0,1-1.4-.118,1.038,1.038,0,0,0,.238.783C627.19,942.934,627.19,943.076,628.141,943.266Zm0-2.849V939.04l-.927.1s-.1.427-.19.926C627.4,940.18,627.736,940.3,628.141,940.417Zm1.471,3.015c.048-.452.1-.855.143-1.258l-.926-.071-.071,1.282a1,1,0,0,1,.261.023C629.209,943.408,629.4,943.432,629.612,943.432Zm.261-2.66c.071-.711.071-1.257.071-1.4,0-.546-.023-.522-.237-.5l-.736.071-.071,1.686A5.958,5.958,0,0,0,629.873,940.772Z" fill="#000000"/><path d="M643.841,936.452l-.689-4.44c-.1-.451-.119-.878.475-.878.569,0,14.934.166,14.934.166.546,0,.759.213.759.878s-.047,1.685-.047,1.685a1.725,1.725,0,0,1-.285,1.07c-.38.735-3.656,7.027-6.054,7.455a2.246,2.246,0,0,1,.238,1.4,7.914,7.914,0,0,1-1.924,4.108c-.451.451-1.923,1.424-2.588.973l-2.777-1.639c-.547-.355-.523-.949.166-1.068A8.661,8.661,0,0,0,649.3,942.6c0-.522-.38-2.493.64-3.514s1.948,0,2.351.642a4.256,4.256,0,0,0,1.852-3.135c0-.356-.618-.024-1.449.119-.831.166-6.007.617-6.98.617S643.936,937.188,643.841,936.452Z" fill="#000000"/><path d="M671.1,940.227a.339.339,0,0,1,.356.379v1.283c0,.142-.023.332-.356.332,0,0-4.82.285-5.224.285-.427,0-.522-.332-.522-.689v-9.5c0-1.02.9-1.519,2.184-1.519a1.95,1.95,0,0,1,2.113,1.519l-.094,7.978S670.818,940.227,671.1,940.227Zm7.716-10.613c2.066,0,2.706,1.686,2.706,3.229v15.076c0,.642-.166.831-.664.95,0,0-4.036.712-4.63.712-.617,0-.712-.4-.712-.878V933.531C675.52,932.2,676.066,929.614,678.82,929.614Z" fill="#000000"/><path d="M703.043,944.548h4.535v3.538h-4.962a4.192,4.192,0,0,1-4.132-2.113,8.624,8.624,0,0,1-2.848,1.139c-1.259.38-8.975.974-8.975.974v-5.152a47.173,47.173,0,0,0,9.141-.9,4.934,4.934,0,0,0,3.751-4.867v-6.126h2.921v8.12a8.6,8.6,0,0,1-1.236,4.013A2.007,2.007,0,0,0,703.043,944.548Zm-4.559-13.51v5.414h-9.568v-5.414Z" fill="#000000"/><path d="M716.3,939.182l1.662-.166.262,6.411-1.449.806-.19-2.8c-3.514,1.828-6.672,2.778-7.17,1.544-.5-1.211.166-2.494,1-3.657.143-.19.357-.475.594-.784-.214-.5-.57-1.234-.9-1.971-.5-1.115,0-2.088.925-3.014.95-.927,4.108-4.441,4.108-4.441l1.021,1.757s-3.941,3.419-4.417,3.895a.941.941,0,0,0-.047,1.329c.143.237.38.688.546,1.045,1.045-1.188,2.137-2.4,2.137-2.4l1.211,1.069c-.831,1-1.306,2.161-1,2.707.285.38,1.234-.024,1.78-.285Zm14.911-7.408c.546,0,.949.19.949.737a63.432,63.432,0,0,1-2.445,10.589,9.864,9.864,0,0,1-3.87,5.295c-1.021.522-2.3.64-2.968-.333-.641-.926-.332-1.733.332-2.66l-1.686-1.448.855-1.329,1.757,1.258c.451-.9.9-1.9,1.306-2.872a24.189,24.189,0,0,0,1.211-5.937c-2.232.262-6.292.713-6.909.831-.9.166-.95-.142-.95-.783v-2.778l7.931.19c0-.38.118-.712.64-.712C728.122,931.822,731.209,931.774,731.209,931.774Z" fill="#000000"/><path d="M736.177,939.729l-.261-.262a27.732,27.732,0,0,0,1.234-2.8c-.712.19-1.471.428-1.59.451-.214.048-1.164.214-1.188-.451-.047-.664.309-.926.5-.949h.119c.19-1.022.593-3.538.641-3.847.071-.4.214-1.163.214-1.163.023-.309.26-.356.332-.19a17.168,17.168,0,0,0,1.8.071c.332-.047.332.1.238.333-.119.237-.855,1.186-.879,1.211a.436.436,0,0,1-.38.237c-.1.523-.712,2.683-.926,3.395l1.425-.238a1.856,1.856,0,0,0,.023-.64c-.094-.38.333-.451.38-.143l1.33.214c.214-.048.4.214.119.594-.166.213-1.044,1.5-1.757,2.563l1.235.262c.1-.4.284-.879.83-.831.428.023.523.569.5,1,0,0-.142,1.5-.19,1.71-.047.237-.261.284-.475.213l-1-.237s.119-.712.214-1.258l-1.211.332a.572.572,0,0,1-.57-.214c-.213.309-.356.522-.356.522C736.438,939.775,736.271,939.823,736.177,939.729Zm13.842,6.291a3.982,3.982,0,0,0,2.683-.832l.736,1.425c-1.424,1.093-4.725,1.686-6.007.285a5.5,5.5,0,0,1-1.235-2.991l-.522.024c0,.356,0,.665-.024.925a50.544,50.544,0,0,1-.712,5.105l-1.14-.047s-.024-1.733-.142-2.968c-.024-.308-.024-1-.024-1.8-1.78.546-6.458,2.042-6.672,2.113a.487.487,0,0,1-.593-.262l-.238-.522,6.363-2.517-4.748.071c.071-1.3.664-2.254,1.709-2.4a36.8,36.8,0,0,1,4.25-.333c.024-1.068.048-1.852.048-1.852h1.805s.023.784.071,1.805a44.211,44.211,0,0,1,4.867.142,2.689,2.689,0,0,1,2.208,2.446l-4.392.047C748.4,944.405,748.808,945.878,750.019,946.02Zm-3.823-7.194-3.893.1a8.015,8.015,0,0,1-1.4-4.582c.048-1.568.309-3.942,2-4.559a12.032,12.032,0,0,1,3.134-.736,8.521,8.521,0,0,1-.4,1.448,2.151,2.151,0,0,1-1.615,1.448.88.88,0,0,0-.4.214l-.071.357a17.912,17.912,0,0,1,1.8-.357,1.941,1.941,0,0,1,2.35,2.256A11.182,11.182,0,0,1,746.2,938.826Zm-3.181-4.512c-.143.1-.072.665-.072.665a8.293,8.293,0,0,0,2.517-.189c.024-.476.1-.736-.475-.808A4.281,4.281,0,0,0,743.015,934.314Zm1.543,3.135a1.13,1.13,0,0,0,.784-1.211l-2.28.19.167,1.068A3.459,3.459,0,0,0,744.558,937.449Zm8.619-1.068c.617.071.569.878.522,1.186a13.629,13.629,0,0,1-.474,2.374c-.167.4-.5.357-.785.262a6,6,0,0,1-.783-.237.436.436,0,0,1-.214-.523s.286-1.211.5-1.947a3.142,3.142,0,0,1-1.828.166,8.57,8.57,0,0,1-1.235,1.022c-.213.142-.237-.143-.237-.143a1.1,1.1,0,0,1-.261-.166.233.233,0,0,1,0-.38l.142-.142.238.213a12.241,12.241,0,0,0,1.733-2.9l-.879.189a.786.786,0,0,1-.807.191.774.774,0,0,1-.238-1.093.468.468,0,0,1,.5-.237,12.813,12.813,0,0,0,.665-3.514c-.047-.19-.1-.451.332-.332a3.813,3.813,0,0,0,1.568-.119c.213-.1.332,0,.284.189a4.1,4.1,0,0,1-.213.713.672.672,0,0,1-.642.356,23.826,23.826,0,0,1-1.091,2.755,9.723,9.723,0,0,1,1-.12c.166-.379.26-.617.26-.617.025-.071.143-.166.38-.166,0,0,.475,0,.831.024.357.048.428.094.214.617a9.126,9.126,0,0,1-1.709,2.8l1.329-.072A.875.875,0,0,1,753.177,936.381Z" fill="#000000"/><path d="M767.5,927.928c5.911,0,10.256,3.918,10.256,5.722v16.193c0,.783-.783,1.186-2.137,1.186-1.306,0-2.255-.141-2.255-1.186H757.693c-.9,0-.878-.5-.878-.926l.475-14.911c0-.546.1-.735.309-.926C758.24,932.439,761.611,927.928,767.5,927.928Zm-6.7,18.377,13.3.214s-.1-7.575-.1-9.26a6.413,6.413,0,0,0-6.363-5.817c-4.677,0-6.291,4.274-6.7,6.268A25.955,25.955,0,0,0,760.8,946.305Zm12.109-5.675c-.713.1-1.733.119-2.921.142l-.261,3.657h.214c.451,0,.309.4.095.618L769,946.091H767.31c-.214-.213-.12-1.662-.12-1.662h1.568l.332-3.657c-3.015-.023-6.268-.166-6.268-.166l-.119-2.4,6.554.1.451-5.509h.831l-.4,5.532,2.516.071Zm-9.354,4.63c-.476-.855.071-3.585.071-3.585H765.7l-.261,3.585Z" fill="#000000"/></g></svg>
