<svg xmlns="http://www.w3.org/2000/svg" width="1000" height="988" viewBox="0 0 1000 988"><g id="Artboard"><rect id="Page" width="1000" height="988" fill="#fff"/></g><g id="Back_Text" data-name="Back Text"><path d="M148.825,483.752H137.3l30.116,93.629,23.051-81.63a14.67,14.67,0,0,0,.743-4.732c0-4.225-2.788-7.267-13.384-7.267v-2.2h29.743v2.2h-10.41L166.3,595.126l-34.205-99.375c-1.673-5.408-3.346-8.788-5.391-9.971q-2.789-2.028-8.923-2.028v-2.2h31.045Z" fill="#231f20"/><path d="M212.686,582.75c0,2.256.3,3.609.794,4.062s1.886.631,3.971.631v1.173H204.545v-1.173h4.369V556.485l-3.972,4.062-.992-.813,9.53-9.838,1.191.722-1.985,1.9Zm-2.78-43.774a2.616,2.616,0,0,1,1.886.631c.5.271.695.722.695,1.535,0,1.083-.5,1.985-2.581,2.346-1.886,0-2.383-1.083-2.383-2.166A2.215,2.215,0,0,1,209.906,538.976Z" fill="#231f20"/><path d="M225.789,558.741a27.128,27.128,0,0,1,8.836-6.5,26.355,26.355,0,0,1,9.927-1.805c6.751,0,11.813,1.535,17.075,6.86,2.68,2.617,3.971,6.408,3.971,11.372,0,5.957-1.688,10.379-5.063,13.357A31.08,31.08,0,0,1,251.3,587.9a27.514,27.514,0,0,1-9.332,1.443c-6.453,0-10.821-1.443-16.48-6.588q-4.169-3.927-4.169-11.373C221.322,566.143,222.811,561.9,225.789,558.741ZM232.44,584.1a19.633,19.633,0,0,0,11.715,3.339c4.566,0,8.24-1.084,11.019-3.159a18.07,18.07,0,0,0,5.659-6.318,14.863,14.863,0,0,0,1.588-7.04,17.375,17.375,0,0,0-5.559-13.268,19.627,19.627,0,0,0-13.9-5.144,19.12,19.12,0,0,0-13.1,4.784,15.046,15.046,0,0,0-5.36,11.823C224.5,575.349,226.186,579.5,232.44,584.1Z" fill="#231f20"/><path d="M283.468,588.616H268.974v-1.173h5.162V531.574l-4.17,4.242-.992-.631,9.729-10.019.992.993-1.787,1.625v56.5c0,2.528.3,3.159,5.56,3.159Z" fill="#231f20"/><path d="M295.677,554.59c3.574-2.8,8.24-4.152,13.9-4.152,6.055,0,10.027,1.263,15.089,5.867,2.482,2.257,3.773,4.783,3.773,7.581H290.316l-.4,1.986-.4,3.61a16.117,16.117,0,0,0,5.857,12.726,20.517,20.517,0,0,0,13.8,4.964c5.559,0,9.927-1.354,13.005-4.062a24.2,24.2,0,0,0,6.452-8.664l1.39.271a17.41,17.41,0,0,1-5.46,8.123,25.123,25.123,0,0,1-8.041,5.144,27.018,27.018,0,0,1-8.935,1.354,23.73,23.73,0,0,1-14.792-4.6c-4.07-3.068-6.055-7.582-6.055-13.448C286.743,564.7,288.629,560.1,295.677,554.59Zm.3,2.527c-2.78,2.166-4.368,3.971-4.665,5.415h32.958c0-1.353-1.29-3.249-3.971-5.506-2.581-2.526-6.651-3.79-12.31-3.79C303.023,553.236,299.053,554.5,295.975,557.117Z" fill="#231f20"/><path d="M340.946,551.521h8.935v1.173h-8.935v26.355c0,4.784,2.879,9.387,8.34,9.387,2.879-.271,4.864-1.354,6.154-3.249,1.49-1.9,2.482-2.889,3.177-3.16.794,0,1.886.723,1.589,1.445a9.671,9.671,0,0,1-3.574,4.332,13.449,13.449,0,0,1-7.346,1.715c-8.042,0-12.112-5.686-12.112-13.268V552.694H333.4v-1.173h3.772v-17.78l3.772-3.791Z" fill="#231f20"/><path d="M411.75,484.34l12.084-3.042a67.751,67.751,0,0,1,16.545-1.86c17.66,0,32.16,5.24,43.314,15.718a49.652,49.652,0,0,1,16.916,38.2c0,9.294-1.858,17.576-5.576,24.674-3.532,7.1-10.6,14.366-21.007,21.8q-15.336,11.156-37.365,11.154a54.5,54.5,0,0,1-14.128-1.859l-10.783-3.211v2.7H392.789v-2.2H403.2V491.438c0-2.7-.743-4.732-2.23-5.915-1.488-1.014-4.276-1.521-8.18-1.521v-2.2H411.75Zm12.084,1.183a45.071,45.071,0,0,0-12.084,5.239v88.22c6.693,4.733,16.917,7.437,26.77,7.437,15.8,0,28.628-4.9,38.481-14.534,10.038-9.8,15.058-22.309,15.058-37.351.371-26.534-19.892-52.053-51.68-51.377A51.867,51.867,0,0,0,423.834,485.523Z" fill="#231f20"/><path d="M547.369,619.192c.207,2.272,1.032,3.393,2.508,3.393,1.5,0,2.33.147,2.507.472-.089.265-.118.324-.472.324H539.406c-.591,0-.708-.059-.708-.324.148-.3,1.032-.443,2.6-.443,1.5,0,2.389-1.15,2.625-3.48v-12c0-1.209-.59-1.593-2.124-1.593h-2.536a.654.654,0,0,1-.561-.206c-.089-.089-.089-.236.03-.413l.708-.147,1.74-.325a20.916,20.916,0,0,0,5.869-2.33.427.427,0,0,1,.384.148l.058.383-.058,1.032-.06.944Z" fill="#231f20"/><path d="M566.456,604.976c0-1.268-.826-1.976-2.508-2.123a3.448,3.448,0,0,0-2.742,1.238,7.167,7.167,0,0,0-1.74,2.654,21.188,21.188,0,0,0-.915,3.1,14.646,14.646,0,0,0-.3,3.067,6.151,6.151,0,0,1,5.515-3.451,7.018,7.018,0,0,1,5.31,2.1,6.675,6.675,0,0,1,1.976,4.748,6.153,6.153,0,0,1-1.8,4.838,10.993,10.993,0,0,1-3.186,2.182,8.518,8.518,0,0,1-3.1.531,7.172,7.172,0,0,1-6.4-3.245,11.957,11.957,0,0,1-1.947-6.577,13.217,13.217,0,0,1,2.655-8.229,8.483,8.483,0,0,1,6.843-3.687,7.5,7.5,0,0,1,4.571,1.415,2.531,2.531,0,0,1,1.327,2.213c0,.678-.5,1.327-1.592,1.327C567.1,606.863,566.456,606.186,566.456,604.976Zm-7.64,14.01a12.02,12.02,0,0,0,1,2.684,3.188,3.188,0,0,0,3.157,1.622c1.5,0,2.477-.5,3.509-2.389a8.882,8.882,0,0,0,.8-4.247c0-3.923-1.474-6.4-4.158-6.4a3.88,3.88,0,0,0-3.245,1.769,7.376,7.376,0,0,0-1.268,4.513A12.273,12.273,0,0,0,558.816,618.986Z" fill="#231f20"/><path d="M575.778,623.734a1.988,1.988,0,0,1-1.386-.559,1.9,1.9,0,0,1-.5-1.239,1.858,1.858,0,1,1,3.715,0A1.83,1.83,0,0,1,575.778,623.734Z" fill="#231f20"/><path d="M594.774,601.584c.148,0,.207.147.237.442a10.865,10.865,0,0,1-.561,1.859,8.387,8.387,0,0,1-.826,1.858c-.206.088-.353.117-1.5.117l-9.025-.029-.177,4.69a8.573,8.573,0,0,1,2.123-.738c.826-.177,1.445-.295,1.888-.353a12.251,12.251,0,0,1,1.592-.089,7.88,7.88,0,0,1,4.868,1.387,8.25,8.25,0,0,1,2.418,2.566,5.665,5.665,0,0,1,.649,2.772c0,4.395-3.717,7.787-8.819,7.787a8.634,8.634,0,0,1-5.4-1.5,4.7,4.7,0,0,1-1.947-3.805,2.7,2.7,0,0,1,.649-1.858,2.265,2.265,0,0,1,1.947-.856,2.626,2.626,0,0,1,2.772,2.684,1.559,1.559,0,0,1-.117.678,1.159,1.159,0,0,1-.266.5l-.354-.59a1.125,1.125,0,0,0-.944-.472c-.589,0-1,.649-1,1.268a2.229,2.229,0,0,0,.914,1.947,6.269,6.269,0,0,0,1.8.944,8.527,8.527,0,0,0,2,.236,4.8,4.8,0,0,0,3.894-1.652,5.773,5.773,0,0,0,1.387-3.746,4.355,4.355,0,0,0-1.475-3.421,5.865,5.865,0,0,0-4.248-1.416,8.627,8.627,0,0,0-3.657.649l-1.386.649c-.236,0-.384-.177-.384-.5l.236-2.508c.118-1.15.265-3.185.265-4.689a16.954,16.954,0,0,0-.177-2.891l-.176-1.121a.587.587,0,0,1,.5-.56c.236,0,.383.325.383.531l.06.442h9.055a3.448,3.448,0,0,0,1.563-.266,3.714,3.714,0,0,0,.737-.648A.985.985,0,0,1,594.774,601.584Z" fill="#231f20"/><path d="M607.725,610.58a.42.42,0,0,1-.148.324,1.665,1.665,0,0,1-.53.089h-3.923v8.878a3.712,3.712,0,0,0,.56,2.153,2.335,2.335,0,0,0,1.976.8c1.151-.118,1.859-.5,2.124-1.121a2.123,2.123,0,0,1,.825-1.15c.119.03.178.089.178.118a.386.386,0,0,1,.059.236,3.143,3.143,0,0,1-2.33,2.6,5.642,5.642,0,0,1-1.947.295c-3.215,0-4.483-1.3-4.483-3.628v-9.173h-2.537l-.383-.089a.363.363,0,0,1-.147-.265c0-.325.264-.472.972-.472a3.872,3.872,0,0,0,3.3-1.77,3.648,3.648,0,0,0,.855-2.389c0-.885.206-1.386.62-1.475l.265.089a.362.362,0,0,1,.089.266v5.279h4.129C607.577,610.167,607.725,610.344,607.725,610.58Z" fill="#231f20"/><path d="M614.6,612.291l1.592-.915,1.534-.8a7.414,7.414,0,0,1,2.92-.737,2.6,2.6,0,0,1,2.861,2.831v7.993c.118,1.269.59,1.888,1.387,1.888.737,0,1.179.177,1.356.5a.286.286,0,0,1-.118.265l-.354.059h-7.256c-.265-.029-.354-.089-.354-.324.089-.207.442-.384,1.121-.472.679-.118,1.062-.708,1.18-1.8V612.91a1.563,1.563,0,0,0-1.77-1.651,4.1,4.1,0,0,0-2.064.619l-2.035,1.18v7.609q0,1.682,1.061,1.858c.708.119,1.121.325,1.239.59l-.088.207-.237.059h-7.256c-.442,0-.5-.177-.5-.266.119-.324.561-.5,1.357-.59.8,0,1.239-.589,1.387-1.68v-15.1c0-.708-.414-1.5-1.977-1.5-.59,0-.914-.147-.914-.383.029-.207.56-.383,1.622-.472a9.787,9.787,0,0,0,3.923-1.681l.265.059.119.207Z" fill="#231f20"/><path d="M648.729,602.587c2.95,0,4.13-.177,4.69-1.358a.367.367,0,0,1,.266-.117.282.282,0,0,1,.265.177l2.537,6.076c0,.324-.089.531-.354.531-.3.03-1.74-2.537-3.716-3.658a4.8,4.8,0,0,0-2.891-.914c-1.74,0-2.3,1.121-2.3,3.569v10.53a20.382,20.382,0,0,0,.118,2.772,3.115,3.115,0,0,0,.648,1.682,3.453,3.453,0,0,0,2.065.767c.737,0,1.121.118,1.21.383,0,.236-.178.354-.443.354H640.471c-.472,0-.59-.059-.678-.324.059-.266.442-.413,1.18-.413a3.4,3.4,0,0,0,2.035-.738,4.363,4.363,0,0,0,.766-3.009V606.155c0-1.5-.413-2.831-2.212-2.831a5.275,5.275,0,0,0-2.655.708,7.953,7.953,0,0,0-1.828,1.327c-.384.384-.708.767-1,1.091a15.243,15.243,0,0,1-1.209,1.446.355.355,0,0,1-.354-.443l2.477-6.046.148-.207.207-.058c.235.058.471.324.737.766s1.564.679,3.863.679Z" fill="#231f20"/><path d="M670.707,621.08a8.066,8.066,0,0,1-2.861,2.212,8.859,8.859,0,0,1-3.333.561,7.621,7.621,0,0,1-6.047-2.566,6.083,6.083,0,0,1-1.533-4.483,5.85,5.85,0,0,1,1.651-4.573,10.416,10.416,0,0,1,3.009-1.975,7.836,7.836,0,0,1,2.89-.531,7.208,7.208,0,0,1,4.867,1.445,7.846,7.846,0,0,1,2.242,2.743,7.694,7.694,0,0,1,.59,3.067A5.926,5.926,0,0,1,670.707,621.08Zm-6.194-10.618c-2.6,0-4.218,2.124-4.218,6.342,0,3.893,1.209,6.371,4.365,6.371a3.3,3.3,0,0,0,3.244-1.918,10.178,10.178,0,0,0,.915-4.513C668.819,612.173,667.138,610.462,664.513,610.462Z" fill="#231f20"/><path d="M678.584,620.52a2.281,2.281,0,0,0,.413,1.327,1.858,1.858,0,0,0,1.445.5,3.9,3.9,0,0,0,1.888-.561c.679-.384,1.15-.619,1.386-.767a6.359,6.359,0,0,0,.737-.5v-6.548a1.459,1.459,0,0,0-.442-1.18c-.206-.266-.738-.413-1.533-.413l-.708-.029a.3.3,0,0,1-.177-.3c.029-.325.56-.5,1.593-.5a7.327,7.327,0,0,0,3.893-1.711l.324.058.088.119V620.7c.118,1.15.561,1.741,1.358,1.828s1.267.266,1.385.59a.411.411,0,0,1-.118.207l-.295.059h-4.837c-.353,0-.531-.177-.531-.619v-1.387a13.479,13.479,0,0,0-1.593.826l-1.591.8a6.8,6.8,0,0,1-2.891.856,2.791,2.791,0,0,1-2.832-3.008V614c0-.472-.029-.619-.5-1.18-.207-.3-.708-.442-1.445-.442l-.65-.029c-.177-.059-.265-.148-.265-.3.03-.325.56-.5,1.534-.5.943,0,2.241-.62,3.981-1.711l.266.058c.029.03.089.119.118.148Z" fill="#231f20"/><path d="M696.52,612.291l1.592-.915,1.534-.8a7.413,7.413,0,0,1,2.919-.737,2.6,2.6,0,0,1,2.862,2.831v7.993c.118,1.269.59,1.888,1.386,1.888.738,0,1.18.177,1.357.5a.286.286,0,0,1-.118.265l-.354.059h-7.256c-.265-.029-.354-.089-.354-.324.089-.207.442-.384,1.121-.472.679-.118,1.062-.708,1.18-1.8V612.91a1.564,1.564,0,0,0-1.77-1.651,4.1,4.1,0,0,0-2.064.619l-2.035,1.18v7.609q0,1.682,1.061,1.858c.708.119,1.121.325,1.239.59l-.089.207-.236.059h-7.256c-.442,0-.5-.177-.5-.266.118-.324.561-.5,1.357-.59.8,0,1.239-.589,1.386-1.68v-15.1c0-.708-.413-1.5-1.976-1.5-.59,0-.914-.147-.914-.383.029-.207.56-.383,1.622-.472a9.787,9.787,0,0,0,3.923-1.681l.265.059.119.207Z" fill="#231f20"/><path d="M722.537,621.08a8.066,8.066,0,0,1-2.861,2.212,8.859,8.859,0,0,1-3.333.561,7.621,7.621,0,0,1-6.047-2.566,6.083,6.083,0,0,1-1.533-4.483,5.85,5.85,0,0,1,1.651-4.573,10.416,10.416,0,0,1,3.009-1.975,7.836,7.836,0,0,1,2.89-.531,7.2,7.2,0,0,1,4.867,1.445,7.846,7.846,0,0,1,2.242,2.743,7.694,7.694,0,0,1,.59,3.067A5.926,5.926,0,0,1,722.537,621.08Zm-6.194-10.618c-2.6,0-4.218,2.124-4.218,6.342,0,3.893,1.209,6.371,4.365,6.371a3.3,3.3,0,0,0,3.244-1.918,10.178,10.178,0,0,0,.915-4.513C720.649,612.173,718.968,610.462,716.343,610.462Z" fill="#231f20"/><path d="M730.415,620.52a2.281,2.281,0,0,0,.413,1.327,1.858,1.858,0,0,0,1.445.5,3.9,3.9,0,0,0,1.888-.561c.678-.384,1.151-.619,1.386-.767a6.359,6.359,0,0,0,.737-.5v-6.548a1.459,1.459,0,0,0-.442-1.18c-.206-.266-.738-.413-1.533-.413l-.708-.029a.3.3,0,0,1-.177-.3c.029-.325.56-.5,1.593-.5a7.327,7.327,0,0,0,3.893-1.711l.324.058.088.119V620.7c.118,1.15.561,1.741,1.358,1.828s1.267.266,1.385.59a.4.4,0,0,1-.118.207l-.295.059h-4.837c-.353,0-.531-.177-.531-.619v-1.387a13.479,13.479,0,0,0-1.593.826l-1.591.8a6.8,6.8,0,0,1-2.891.856,2.791,2.791,0,0,1-2.832-3.008V614c0-.472-.029-.619-.5-1.18-.207-.3-.708-.442-1.445-.442l-.65-.029c-.177-.059-.265-.148-.265-.3.03-.325.56-.5,1.534-.5.943,0,2.241-.62,3.981-1.711l.266.058c.029.03.089.119.118.148Z" fill="#231f20"/><path d="M762.3,613.234l-2.212-.088-1.917-.118v4.808c0,.266,0,.619.029,1.121.029.472.029.767.029.914a3.606,3.606,0,0,0,.708,2.035,3.412,3.412,0,0,0,2.065.738c.679,0,1.062.147,1.15.413a.282.282,0,0,1-.176.265l-.414.059H751.331c-.354,0-.531-.089-.531-.354.058-.265.442-.383,1.15-.383a3.161,3.161,0,0,0,1.917-.62,5.352,5.352,0,0,0,.856-3.48V607.453c0-2.27-.295-2.978-1.121-3.6a2.536,2.536,0,0,0-1.681-.472c-.737,0-1.121-.148-1.18-.413a.29.29,0,0,1,.117-.265l.3-.118H763.04c4.69,0,7.227,2.123,7.227,5.221C770.267,611.022,767.376,613.234,762.3,613.234Zm-.5-9.969c-2.714,0-3.628.944-3.628,2.95v6.164l1.091.089,1.327.088c3.982,0,5.929-1.681,5.929-4.778C766.521,604.74,764.84,603.265,761.8,603.265Z" fill="#231f20"/><path d="M779.767,612.408a1.545,1.545,0,0,0-1.033-.59,1.991,1.991,0,0,0-1.12.532,6.926,6.926,0,0,0-1.15.973v7.285c.117,1.18.619,1.83,1.5,1.917s1.386.266,1.534.5a.381.381,0,0,1-.118.295l-.355.059h-7.875c-.383,0-.471-.206-.471-.324.118-.237.56-.413,1.356-.532.8-.087,1.239-.648,1.387-1.68v-6.932c0-.855-.5-1.563-1.947-1.563l-.678-.059a.427.427,0,0,1-.266-.354c.088-.236.737-.472,1.711-.472,1.091,0,2.241-.531,3.893-1.622a.428.428,0,0,1,.265.058l.06.148v2.359c.914-.707,1.18-.972,2.123-1.651a4.233,4.233,0,0,1,2.508-.944,1.9,1.9,0,0,1,1.975,1.858,1.406,1.406,0,0,1-.5,1.15,1.558,1.558,0,0,1-1.15.473A1.81,1.81,0,0,1,779.767,612.408Z" fill="#231f20"/><path d="M797.378,621.08a8.066,8.066,0,0,1-2.861,2.212,8.859,8.859,0,0,1-3.333.561,7.619,7.619,0,0,1-6.047-2.566A6.079,6.079,0,0,1,783.6,616.8a5.85,5.85,0,0,1,1.651-4.573,10.416,10.416,0,0,1,3.009-1.975,7.836,7.836,0,0,1,2.89-.531,7.208,7.208,0,0,1,4.867,1.445,7.846,7.846,0,0,1,2.242,2.743,7.694,7.694,0,0,1,.59,3.067A5.926,5.926,0,0,1,797.378,621.08Zm-6.194-10.618c-2.6,0-4.218,2.124-4.218,6.342,0,3.893,1.209,6.371,4.365,6.371a3.3,3.3,0,0,0,3.244-1.918,10.178,10.178,0,0,0,.915-4.513C795.49,612.173,793.809,610.462,791.184,610.462Z" fill="#231f20"/><path d="M805.756,622.968a7.065,7.065,0,0,1-2.271,5.663,5.445,5.445,0,0,1-4.041,1.357c-2.477,0-3.775-.944-3.775-2.213a1.483,1.483,0,0,1,1.651-1.5,1.922,1.922,0,0,1,1.741,1.475,1.7,1.7,0,0,0,1.328,1.5,2,2,0,0,0,1.651-1.15,8.094,8.094,0,0,0,.679-3.805V613.942c0-.8-.531-1.563-1.918-1.563l-.678-.029a.376.376,0,0,1-.3-.3c.029-.325.53-.472,1.475-.472.914,0,2.27-.59,4.07-1.74l.266.058.117.119Zm-1.444-14.1a1.788,1.788,0,0,1-1.888-1.858,1.95,1.95,0,0,1,1.857-1.859,1.854,1.854,0,0,1,1.859,1.888A1.766,1.766,0,0,1,804.312,608.869Z" fill="#231f20"/><path d="M817.614,622.2a4.443,4.443,0,0,0,3.983-1.769,4.24,4.24,0,0,1,1.179-1.18.338.338,0,0,1,.237.088l.058.295c0,.56-.531,1.268-1.563,2.094a10.512,10.512,0,0,1-2.861,1.652,7.986,7.986,0,0,1-2.861.472,6.491,6.491,0,0,1-5.015-1.947,6.757,6.757,0,0,1-1.8-4.807,7.44,7.44,0,0,1,7.787-7.374,5.709,5.709,0,0,1,2.594.531,4.746,4.746,0,0,1,1.771,1.3c.442.53.825.8,1.12.8.325,0,.473.118.473.324-.089.118-.148.147-.531.384l-1.741.766c-.766.3-1.356.531-1.74.679s-.885.384-1.534.679l-5.073,2.241C813.161,620.7,815.255,622.2,817.614,622.2Zm-2.477-6.813,2.153-.945,1.209-.619a1.167,1.167,0,0,0,.384-.383,2.221,2.221,0,0,0-.737-1.592,3.936,3.936,0,0,0-1.3-1,2.776,2.776,0,0,0-1.209-.266,3.246,3.246,0,0,0-2.891,1.445,5.862,5.862,0,0,0-.944,3.215l.059.8.03.768Z" fill="#231f20"/><path d="M828.353,620.372a4.289,4.289,0,0,0,3.835,2.035,4.569,4.569,0,0,0,3.362-1.091,5.437,5.437,0,0,1,1.5-1.21c.236,0,.324.119.265.384-.118.472-.471.826-1.416,1.5-.442.325-.884.62-1.3.886a8.408,8.408,0,0,1-3.952.973,6.5,6.5,0,0,1-5.426-2.449,7.53,7.53,0,0,1,.324-8.818,9.782,9.782,0,0,1,2.89-2.272,7.223,7.223,0,0,1,2.95-.589c3.3,0,5.22,1.416,5.22,3.067,0,1.032-.737,1.651-1.887,1.651a1.759,1.759,0,0,1-1.682-1.975,1.793,1.793,0,0,0-1.828-2.006c-2.507,0-4.189,2.241-4.189,5.339A8.208,8.208,0,0,0,828.353,620.372Z" fill="#231f20"/><path d="M847.851,610.58a.42.42,0,0,1-.148.324,1.665,1.665,0,0,1-.53.089H843.25v8.878a3.712,3.712,0,0,0,.56,2.153,2.335,2.335,0,0,0,1.976.8c1.151-.118,1.859-.5,2.124-1.121a2.123,2.123,0,0,1,.825-1.15c.119.03.178.089.178.118a.386.386,0,0,1,.059.236,3.143,3.143,0,0,1-2.33,2.6,5.642,5.642,0,0,1-1.947.295c-3.216,0-4.483-1.3-4.483-3.628v-9.173h-2.537l-.383-.089a.363.363,0,0,1-.147-.265c0-.325.264-.472.972-.472a3.872,3.872,0,0,0,3.3-1.77,3.648,3.648,0,0,0,.855-2.389c0-.885.206-1.386.62-1.475l.265.089a.362.362,0,0,1,.089.266v5.279h4.129C847.7,610.167,847.851,610.344,847.851,610.58Z" fill="#231f20"/><path d="M303.9,924.113c0,.243-.108.378-.3.378-.216,0-.459-.243-.7-.728a5.589,5.589,0,0,0-1.269-1.755,7.756,7.756,0,0,0-2.24-1.619,6.113,6.113,0,0,0-2.726-.621c-2.834,0-4.1,1.43-4.1,3.049a2.955,2.955,0,0,0,1.97,2.916,25.377,25.377,0,0,0,4.319,1.35,12.055,12.055,0,0,1,4.211,1.728,4.534,4.534,0,0,1,1.917,4.1,5.55,5.55,0,0,1-2.025,4.535,8,8,0,0,1-5.29,1.647,8.52,8.52,0,0,1-2.187-.216c-.945-.136-1.4-.217-1.646-.217-.675,0-1.053.217-1.134.621-.081.432-.189.675-.351.756l-.189-.081-.162-.135-2.564-6.235.027-.378a.436.436,0,0,1,.243-.107c.189.026.459.3.782.863a7.8,7.8,0,0,0,1.674,2.052,7.678,7.678,0,0,0,3.806,2.186,9.51,9.51,0,0,0,1.782.161c2.807,0,4.534-1.673,4.534-4.156a2.953,2.953,0,0,0-1.889-2.915,20.8,20.8,0,0,0-4.319-1.4,14.268,14.268,0,0,1-4.346-1.754,4.2,4.2,0,0,1-1.862-3.833,4.307,4.307,0,0,1,1.295-3.293,7.009,7.009,0,0,1,2.43-1.62,7.351,7.351,0,0,1,2.537-.406,12.929,12.929,0,0,1,1.917.162l1.592.163c.783,0,1.188-.216,1.188-.621,0-.351.216-.567.62-.621Z" fill="#231f20"/><path d="M311.244,928.324l1.458-.837,1.4-.728a6.787,6.787,0,0,1,2.673-.675,2.377,2.377,0,0,1,2.618,2.591v7.315c.108,1.161.54,1.728,1.269,1.728.675,0,1.08.162,1.242.459a.265.265,0,0,1-.109.243l-.323.054h-6.641c-.243-.028-.324-.081-.324-.3.081-.19.406-.351,1.026-.432.621-.108.972-.648,1.08-1.646v-7.207A1.43,1.43,0,0,0,315,927.38a3.757,3.757,0,0,0-1.89.566l-1.863,1.08v6.964q0,1.539.972,1.7c.648.109,1.026.3,1.134.54l-.081.19-.216.054h-6.64c-.405,0-.459-.162-.459-.244.108-.3.513-.459,1.241-.54.729,0,1.134-.539,1.269-1.538v-13.82c0-.647-.378-1.377-1.808-1.377-.54,0-.837-.135-.837-.351.027-.189.513-.35,1.484-.431a8.968,8.968,0,0,0,3.591-1.539l.242.054.108.189Z" fill="#231f20"/><path d="M335.056,936.368a7.4,7.4,0,0,1-2.618,2.025,8.139,8.139,0,0,1-3.051.512,6.973,6.973,0,0,1-5.533-2.347,5.569,5.569,0,0,1-1.4-4.1,5.346,5.346,0,0,1,1.512-4.183,9.52,9.52,0,0,1,2.753-1.809,7.2,7.2,0,0,1,2.645-.486,6.6,6.6,0,0,1,4.454,1.323,7.174,7.174,0,0,1,2.052,2.51,7.032,7.032,0,0,1,.54,2.807A5.421,5.421,0,0,1,335.056,936.368Zm-5.669-9.718c-2.375,0-3.86,1.945-3.86,5.8,0,3.564,1.107,5.831,4,5.831a3.025,3.025,0,0,0,2.97-1.755,9.32,9.32,0,0,0,.837-4.13C333.329,928.217,331.79,926.65,329.387,926.65Z" fill="#231f20"/><path d="M350.2,936.368a7.392,7.392,0,0,1-2.619,2.025,8.13,8.13,0,0,1-3.05.512A6.971,6.971,0,0,1,339,936.558a5.569,5.569,0,0,1-1.4-4.1,5.346,5.346,0,0,1,1.512-4.183,9.52,9.52,0,0,1,2.753-1.809,7.191,7.191,0,0,1,2.645-.486,6.6,6.6,0,0,1,4.454,1.323,7.174,7.174,0,0,1,2.052,2.51,7.032,7.032,0,0,1,.54,2.807A5.421,5.421,0,0,1,350.2,936.368Zm-5.669-9.718c-2.375,0-3.86,1.945-3.86,5.8,0,3.564,1.107,5.831,4,5.831a3.025,3.025,0,0,0,2.97-1.755,9.32,9.32,0,0,0,.836-4.13C348.475,928.217,346.937,926.65,344.534,926.65Z" fill="#231f20"/><path d="M361.57,926.759a.386.386,0,0,1-.134.3,1.567,1.567,0,0,1-.486.081h-3.591v8.125a3.388,3.388,0,0,0,.514,1.97,2.135,2.135,0,0,0,1.808.729c1.052-.108,1.7-.459,1.944-1.026a1.919,1.919,0,0,1,.755-1.052c.108.026.162.08.162.107a.354.354,0,0,1,.054.216,2.875,2.875,0,0,1-2.132,2.376,5.153,5.153,0,0,1-1.782.27c-2.942,0-4.1-1.188-4.1-3.321v-8.394h-2.321l-.351-.081a.343.343,0,0,1-.135-.244c0-.3.243-.431.891-.431a3.545,3.545,0,0,0,3.023-1.619,3.34,3.34,0,0,0,.783-2.187c0-.81.189-1.268.567-1.349l.242.081a.322.322,0,0,1,.081.242v4.832h3.78C361.436,926.381,361.57,926.543,361.57,926.759Z" fill="#231f20"/><path d="M367.943,936.044c.108,1,.513,1.565,1.242,1.646s1.133.244,1.214.487a.264.264,0,0,1-.107.243l-.352.054H363a.511.511,0,0,1-.27-.054l-.081-.19c.108-.243.514-.431,1.242-.54.729-.081,1.161-.593,1.269-1.538v-6.073c0-.864-.3-1.674-1.782-1.674l-.7-.027a.324.324,0,0,1-.161-.323c.026-.216.593-.433,1.457-.433a8.306,8.306,0,0,0,3.617-1.538l.243.054.108.108Zm-1.322-10.851a1.637,1.637,0,0,1-1.728-1.7,1.785,1.785,0,0,1,1.7-1.7,1.733,1.733,0,0,1,1.7,1.728A1.664,1.664,0,0,1,366.621,925.193Z" fill="#231f20"/><path d="M384.2,928.567v7.423q.162,1.58,1.215,1.7c.729.081,1.16.244,1.3.54a.44.44,0,0,1-.081.19l-.325.054h-6.694a.4.4,0,0,1-.243-.054l-.054-.243c.081-.243.432-.378,1.026-.459.621-.081.972-.621,1.08-1.566v-7.26a1.424,1.424,0,0,0-1.62-1.512,3.756,3.756,0,0,0-1.889.566l-1.863,1.107v6.884q0,1.659.972,1.781c.648.081,1.026.269,1.133.512,0,.109-.026.163-.107.19a.614.614,0,0,1-.324.054H371.1a.6.6,0,0,1-.271-.054.645.645,0,0,1-.081-.243c.136-.3.567-.459,1.242-.459.729-.081,1.134-.594,1.269-1.566v-6.343c0-.3,0-.513-.459-1.026a1.646,1.646,0,0,0-1.323-.4c-.648,0-.836,0-.863-.351q.041-.282,1.457-.405a8.363,8.363,0,0,0,3.591-1.538l.3.054c.027.027.054.134.081.162v2.024l1.377-.837a11.154,11.154,0,0,1,1.62-.782,6.353,6.353,0,0,1,2.51-.621A2.412,2.412,0,0,1,384.2,928.567Z" fill="#231f20"/><path d="M399.018,930.592a4.167,4.167,0,0,1-1.457,3.185,5.644,5.644,0,0,1-3.969,1.323h-.378a7.042,7.042,0,0,1-1.052-.081l-1.026-.109c-.891,0-1.593.324-1.593.892,0,.863,1,1.025,2.915,1.025h3.159c2.834,0,4.724,1.134,4.724,3.293a3.194,3.194,0,0,1-1.377,2.889,8.22,8.22,0,0,1-2.618,1.241,11.811,11.811,0,0,1-2.943.324,9.014,9.014,0,0,1-5.182-1.215,2.137,2.137,0,0,1-1.215-1.943,2.039,2.039,0,0,1,2.106-1.89l.486.028a.2.2,0,0,1,.215.161c-.026.136-.54.514-.647.864a3.856,3.856,0,0,0-.135.756c0,1.4,1.538,2.564,4.777,2.564a6.248,6.248,0,0,0,3.59-.809,2.242,2.242,0,0,0,1.134-1.755,1.391,1.391,0,0,0-1.188-1.565,16.676,16.676,0,0,0-2.159-.244c-.675-.027-1.35-.053-2.079-.053q-1.173,0-2.024-.081A12.015,12.015,0,0,1,389,938.96c-.836-.243-1.241-.892-1.241-2a2.715,2.715,0,0,1,2.7-2.51,4.114,4.114,0,0,1-.918-7.072,5.8,5.8,0,0,1,3.968-1.4,5.969,5.969,0,0,1,2.241.351,5.964,5.964,0,0,1,3.509-1.646c1.107,0,1.619.62,1.619,1.4a1.285,1.285,0,0,1-1.3,1.377,1.862,1.862,0,0,1-1.566-.811,1.442,1.442,0,0,0-.783-.566,1.038,1.038,0,0,0-.459.162l-.485.378A4.138,4.138,0,0,1,399.018,930.592Zm-8.314.107a6.118,6.118,0,0,0,.54,2.673,2.235,2.235,0,0,0,2.159,1.053c2.241,0,2.808-1.674,2.808-4.157,0-2.51-.837-3.618-2.672-3.618C391.487,926.65,390.7,928.3,390.7,930.7Z" fill="#231f20"/><path d="M425.828,923.061a11.307,11.307,0,0,0-1.026-1.215,7.144,7.144,0,0,0-3.32-2,6.392,6.392,0,0,0-1.647-.216c-4.076,0-6.208,3.536-6.208,9.69a12.6,12.6,0,0,0,1.4,6.424,5.077,5.077,0,0,0,4.778,2.592,5.262,5.262,0,0,0,2.538-.568,5.549,5.549,0,0,0,1.376-.917,3.144,3.144,0,0,0,.837-1.161,7.846,7.846,0,0,0,.378-2.861c-.027-2.052-.189-3.131-2.564-3.239-.729,0-1.107-.108-1.188-.323a.5.5,0,0,1,.108-.3l.3-.081h8.772c.4,0,.567.107.567.35-.027.243-.324.351-.89.351a2.654,2.654,0,0,0-1.512.54,1.68,1.68,0,0,0-.567,1.053,20.016,20.016,0,0,0-.108,2.78,13.137,13.137,0,0,0,.189,3l.189.647-.081.162-.216.028a8.543,8.543,0,0,0-1.268-.216,6.381,6.381,0,0,0-1.377.216l-1.674.486a9.8,9.8,0,0,1-1.052.27c-.486.107-.837.188-1.08.216a10.733,10.733,0,0,1-2.079.243,8.792,8.792,0,0,1-3.752-.756,12.039,12.039,0,0,1-3.563-3.024A9.31,9.31,0,0,1,410.172,929c0-2.888.675-5.048,2-6.478a11.883,11.883,0,0,1,3.725-2.862,9.639,9.639,0,0,1,3.779-.728,10.92,10.92,0,0,1,2.16.215l1.269.163c.728,0,1.106-.189,1.187-.567.081-.4.243-.621.513-.675a23.3,23.3,0,0,1,1.4,3.05l1.241,3.212-.054.216-.162.055C426.826,924.519,426.368,923.709,425.828,923.061Z" fill="#231f20"/><path d="M440.193,926.867a2.624,2.624,0,0,1,1.458,2.294v6.613c0,1.107.269,1.782,1,1.782a.9.9,0,0,0,.972-.594,1.035,1.035,0,0,1,.567-.729l.189.081a.62.62,0,0,1,.081.244,1.846,1.846,0,0,1-.621,1.322,3.371,3.371,0,0,1-1.161.782,3.529,3.529,0,0,1-1.268.217c-1.944,0-2.537-.972-2.537-2.835a5.149,5.149,0,0,1-4.778,2.861c-2.457,0-3.617-1.376-3.617-3.239,0-1.646.782-2.753,3.374-3.7a15.569,15.569,0,0,1,5.1-.7V929.4c0-1.7-.755-2.835-2.591-2.835a2.467,2.467,0,0,0-1.7.6c-.459.378-.675.7-.675.972l.135.4a1.861,1.861,0,0,1,.135.648,1.6,1.6,0,0,1-1.7,1.728,1.534,1.534,0,0,1-1.538-1.593,2.347,2.347,0,0,1,1.133-2.024,7.541,7.541,0,0,1,2.16-1.053,8.978,8.978,0,0,1,2.375-.27A6.57,6.57,0,0,1,440.193,926.867Zm-5.48,6.019a2.991,2.991,0,0,0-1.268,2.376,2.076,2.076,0,0,0,2.132,2.213A2.948,2.948,0,0,0,438.3,935.8a3.863,3.863,0,0,0,.647-2.187v-1.836A6.487,6.487,0,0,0,434.713,932.886Z" fill="#231f20"/><path d="M453.99,926.246a4.007,4.007,0,0,1,1.188-.189,2.316,2.316,0,0,1,2.591,2.214,21.064,21.064,0,0,1,4.238-2.025,3.712,3.712,0,0,1,1.16-.189,2.353,2.353,0,0,1,2.619,2.376v7.557c.108,1.053.512,1.647,1.241,1.728s1.161.243,1.269.512a.378.378,0,0,1-.108.19l-.351.054h-6.5c-.3,0-.351-.189-.351-.3.081-.243.432-.378,1.053-.459q.889-.163,1.052-1.619v-7.207a1.44,1.44,0,0,0-1.592-1.512,3.289,3.289,0,0,0-1.539.4c-.513.271-.864.459-1.106.594-.216.108-.567.324-1.053.621v7.045c0,.972.351,1.565,1.242,1.674.459.053.755.216.863.512a.371.371,0,0,1-.108.19l-.405.054H453.4c-.324,0-.405-.109-.405-.3.081-.216.432-.378,1.026-.487.621-.107.972-.62,1.08-1.538v-7.315c0-.837-.432-1.457-1.593-1.457a5.577,5.577,0,0,0-2.645.972c-.3.188-.648.4-1.053.674v6.911c0,1.052.351,1.619,1.242,1.808.458.081.755.242.864.485a.683.683,0,0,1-.136.19l-.4.054h-6.4a.594.594,0,0,1-.27-.054.45.45,0,0,1-.108-.243c.108-.243.513-.406,1.242-.487s1.134-.566,1.269-1.484v-6.451c0-.567-.405-1.377-1.782-1.377a2.791,2.791,0,0,1-.567-.054c-.162,0-.27-.107-.3-.324.027-.27.513-.4,1.431-.4a7.2,7.2,0,0,0,3.671-1.512l.216.027.081.108v2.1A13.744,13.744,0,0,1,453.99,926.246Z" fill="#231f20"/><path d="M476.238,937.394a4.062,4.062,0,0,0,3.644-1.62,3.936,3.936,0,0,1,1.08-1.08.311.311,0,0,1,.216.081l.054.271c0,.513-.486,1.16-1.431,1.916a9.633,9.633,0,0,1-2.618,1.512,7.3,7.3,0,0,1-2.619.431,5.936,5.936,0,0,1-4.588-1.781,6.181,6.181,0,0,1-1.647-4.4,6.81,6.81,0,0,1,7.126-6.749,5.247,5.247,0,0,1,2.376.486,4.376,4.376,0,0,1,1.619,1.187c.405.487.756.729,1.026.729.3,0,.432.108.432.3-.081.108-.135.136-.486.351l-1.592.7c-.7.27-1.242.486-1.593.621s-.81.35-1.4.621l-4.643,2.051C472.162,936.018,474.079,937.394,476.238,937.394Zm-2.267-6.236,1.97-.863,1.107-.567a1.076,1.076,0,0,0,.351-.351,2.03,2.03,0,0,0-.675-1.457,3.61,3.61,0,0,0-1.188-.918,2.549,2.549,0,0,0-1.106-.243,2.971,2.971,0,0,0-2.646,1.322,5.364,5.364,0,0,0-.864,2.942l.055.729.026.7Z" fill="#231f20"/><path d="M498.351,920.793a1.269,1.269,0,0,0-1.053-1.431c-.945-.026-2.268.892-2.348,3.591v1.538c0,.837-.028,1.458-.028,1.89H497.6a.263.263,0,0,1,.243.108l.054.27a1.075,1.075,0,0,1-.054.269l-.216.109h-2.7v8.881c.108,1,.594,1.565,1.431,1.646.864.081,1.35.27,1.485.513-.081.243-.162.3-.459.3h-7.315a1.023,1.023,0,0,1-.378-.054.627.627,0,0,1-.081-.243c.081-.243.513-.406,1.269-.487.729,0,1.16-.485,1.268-1.484v-9.069h-2.456a.331.331,0,0,1-.243-.109l-.108-.269a.411.411,0,0,1,.3-.378h1.943c.243,0,.432-.216.513-.621l.189-1.538a6.015,6.015,0,0,1,.378-1.944,5.554,5.554,0,0,1,5.507-3.59c1.862,0,3.374.836,3.374,2.16A1.361,1.361,0,0,1,500,922.2C498.971,922.089,498.432,921.63,498.351,920.793Z" fill="#231f20"/><path d="M511.634,936.368a7.4,7.4,0,0,1-2.618,2.025,8.142,8.142,0,0,1-3.051.512,6.975,6.975,0,0,1-5.534-2.347,5.569,5.569,0,0,1-1.4-4.1,5.349,5.349,0,0,1,1.512-4.183,9.522,9.522,0,0,1,2.754-1.809,7.191,7.191,0,0,1,2.645-.486,6.6,6.6,0,0,1,4.454,1.323,7.158,7.158,0,0,1,2.051,2.51,7.032,7.032,0,0,1,.54,2.807A5.425,5.425,0,0,1,511.634,936.368Zm-5.669-9.718c-2.375,0-3.86,1.945-3.86,5.8,0,3.564,1.107,5.831,4,5.831a3.025,3.025,0,0,0,2.969-1.755,9.32,9.32,0,0,0,.837-4.13C509.906,928.217,508.367,926.65,505.965,926.65Z" fill="#231f20"/><path d="M522.488,928.433a1.4,1.4,0,0,0-.944-.54,1.819,1.819,0,0,0-1.025.485,6.244,6.244,0,0,0-1.053.892v6.667c.107,1.079.566,1.672,1.376,1.753s1.269.244,1.4.459a.347.347,0,0,1-.108.271l-.325.054h-7.207c-.35,0-.431-.189-.431-.3.108-.216.513-.378,1.242-.487.729-.081,1.134-.593,1.269-1.538v-6.343c0-.783-.459-1.431-1.783-1.431l-.62-.054a.388.388,0,0,1-.243-.324c.081-.216.675-.432,1.565-.432a6.805,6.805,0,0,0,3.564-1.484.383.383,0,0,1,.242.054l.055.134v2.161c.837-.649,1.079-.891,1.943-1.512a3.876,3.876,0,0,1,2.294-.864,1.737,1.737,0,0,1,1.809,1.7,1.292,1.292,0,0,1-.459,1.053,1.43,1.43,0,0,1-1.053.431A1.658,1.658,0,0,1,522.488,928.433Z" fill="#231f20"/><path d="M538.77,923.816l.918,3.24,1.187,3.886,1.242,4.1,3.158-10.662c-.108-.433-.162-.675-.189-.73-.026-.081-.162-.459-.4-1.187a4.891,4.891,0,0,0-.918-1.674,2,2,0,0,0-1.269-.594c-.378-.053-.594-.188-.648-.378l.081-.269.3-.109h7.369c.3,0,.486.136.486.378-.081.243-.433.378-1.053.378-.593,0-.945.487-1.052,1.486a9.741,9.741,0,0,0,.35,2.185c.243.945.432,1.728.621,2.349.189.593.351,1.052.432,1.377l1.215,3.94,1.053,3.51c.215-.864.35-1.431.431-1.728s.216-.81.432-1.539l1-3.562a25.569,25.569,0,0,0,1.215-5.7c0-1.053-.19-1.376-.648-1.728a2.115,2.115,0,0,0-1.458-.594c-.513,0-.809-.135-.864-.4,0-.216.217-.352.459-.352h6.451a.409.409,0,0,1,.459.378c-.054.19-.485.378-1.268.568-.783.162-1.593,1.268-2.375,3.346L552,935.666c.621.73,1.377.811,1.458,1.242,0,.216-.27.378-.783.486a4.959,4.959,0,0,0-1.943,1.188l-.325.378a.544.544,0,0,1-.323.216.448.448,0,0,1-.324-.136l-.189-.323-4.049-13.335-3.078,10.339a2.222,2.222,0,0,0,.946.7c.35.108.512.27.512.486q0,.283-.809.486a5.071,5.071,0,0,0-1.862,1.188l-.352.351a1.226,1.226,0,0,1-.351.269.385.385,0,0,1-.269-.162l-.19-.188-4.939-16.466c-.513-1.431-1.134-2.132-1.809-2.132-.621,0-1-.136-1.133-.433a.426.426,0,0,1,.134-.269l.244-.109h7.476a.409.409,0,0,1,.459.378q-.121.285-1.053.406c-.62.053-.944.54-1.025,1.458A8.772,8.772,0,0,0,538.77,923.816Z" fill="#231f20"/><path d="M563.529,936.044c.108,1,.513,1.565,1.242,1.646s1.133.244,1.214.487a.264.264,0,0,1-.108.243l-.351.054h-6.937a.514.514,0,0,1-.27-.054l-.081-.19c.109-.243.513-.431,1.242-.54.729-.081,1.161-.593,1.269-1.538v-6.073c0-.864-.3-1.674-1.782-1.674l-.7-.027a.323.323,0,0,1-.162-.323c.027-.216.593-.433,1.457-.433a8.31,8.31,0,0,0,3.617-1.538l.243.054.108.108Zm-1.323-10.851a1.636,1.636,0,0,1-1.727-1.7,1.785,1.785,0,0,1,1.7-1.7,1.733,1.733,0,0,1,1.7,1.728A1.665,1.665,0,0,1,562.206,925.193Z" fill="#231f20"/><path d="M579.78,928.567v7.423q.164,1.58,1.215,1.7c.729.081,1.161.244,1.3.54a.416.416,0,0,1-.081.19l-.324.054h-6.695a.394.394,0,0,1-.242-.054l-.054-.243c.081-.243.432-.378,1.026-.459.62-.081.972-.621,1.079-1.566v-7.26a1.423,1.423,0,0,0-1.619-1.512,3.759,3.759,0,0,0-1.89.566l-1.862,1.107v6.884q0,1.659.972,1.781c.647.081,1.025.269,1.133.512,0,.109-.027.163-.108.19a.614.614,0,0,1-.324.054h-6.614a.592.592,0,0,1-.269-.054.627.627,0,0,1-.081-.243c.135-.3.567-.459,1.242-.459.729-.081,1.134-.594,1.269-1.566v-6.343c0-.3,0-.513-.459-1.026a1.649,1.649,0,0,0-1.324-.4c-.647,0-.836,0-.863-.351q.041-.282,1.458-.405a8.365,8.365,0,0,0,3.59-1.538l.3.054c.026.027.054.134.081.162v2.024l1.376-.837a11.2,11.2,0,0,1,1.62-.782,6.358,6.358,0,0,1,2.51-.621A2.412,2.412,0,0,1,579.78,928.567Z" fill="#231f20"/><path d="M595.872,936.044c.108,1.161.567,1.727,1.377,1.727q1.175,0,1.377.487l-.081.162-.216.054h-4.724a.512.512,0,0,1-.513-.513V936.5a4.48,4.48,0,0,1-4.238,2.4c-1.7,0-2.942-.485-4.642-2.347a6,6,0,0,1-1.269-4.077,6.286,6.286,0,0,1,1.133-4,6.746,6.746,0,0,1,2.295-1.97,6.47,6.47,0,0,1,2.672-.54,4.284,4.284,0,0,1,4.049,2.241v-5.885c-.108-.891-.539-1.35-1.322-1.35s-1.215-.134-1.323-.378c.027-.215.513-.377,1.457-.458a6.977,6.977,0,0,0,3.617-1.512l.244.054.107.108Zm-4.021-8.341a4.514,4.514,0,0,0-.837-.647,2.736,2.736,0,0,0-1.431-.351,2.843,2.843,0,0,0-2.7,1.7,9.562,9.562,0,0,0-.863,4.292,8.61,8.61,0,0,0,.809,3.833,2.7,2.7,0,0,0,2.618,1.647c2.375,0,3.7-2.24,3.7-5.4C593.146,929.647,592.606,928.352,591.851,927.7Z" fill="#231f20"/><path d="M611.775,936.368a7.381,7.381,0,0,1-2.618,2.025,8.135,8.135,0,0,1-3.051.512,6.971,6.971,0,0,1-5.533-2.347,5.569,5.569,0,0,1-1.4-4.1,5.349,5.349,0,0,1,1.511-4.183,9.522,9.522,0,0,1,2.754-1.809,7.187,7.187,0,0,1,2.645-.486,6.6,6.6,0,0,1,4.453,1.323,7.163,7.163,0,0,1,2.052,2.51,7.032,7.032,0,0,1,.54,2.807A5.421,5.421,0,0,1,611.775,936.368Zm-5.669-9.718c-2.375,0-3.859,1.945-3.859,5.8,0,3.564,1.107,5.831,3.994,5.831a3.025,3.025,0,0,0,2.97-1.755,9.334,9.334,0,0,0,.837-4.13C610.048,928.217,608.509,926.65,606.106,926.65Z" fill="#231f20"/><path d="M618.312,929.3l.809,2.024,1.025,2.322.865,2.132,2.159-5.75a6.524,6.524,0,0,0-1.322-2.375,2.319,2.319,0,0,0-1.134-.593c-.352,0-.54-.109-.54-.351,0-.216.188-.324.4-.324h6.829l.216.081a.33.33,0,0,1,.081.243c-.081.3-.459.432-1.107.432a1.006,1.006,0,0,0-1.107.863,7.861,7.861,0,0,0,.568,2.052c.134.3.269.647.459,1.052l.971,2.268,1.026,2.4.7-2.321.675-2.052.512-1.673a8.369,8.369,0,0,0,.216-1.133c0-1-.35-1.486-1.08-1.486-.62,0-1-.134-1.079-.4,0-.216.107-.324.432-.324h5.263a.33.33,0,0,1,.243.081l.054.243c0,.351-.864.459-1.377.782a5.061,5.061,0,0,0-.863.675,10.293,10.293,0,0,0-1.809,3.483l-.783,2.375-.7,2.213a1.99,1.99,0,0,0,.917.594c.216.027.351.108.378.3-.027.108-.27.216-.675.324a3.7,3.7,0,0,0-1.431.945l-.512.486a.868.868,0,0,1-.378.242l-.162-.081-.135-.188-3.428-8.125-2.079,5.506c.837.729,1.3.648,1.3.864,0,.351-.782.324-1.3.648a3.93,3.93,0,0,0-.836.648l-.54.512c-.162.19-.324.243-.459.162a7.306,7.306,0,0,1-1-1.943l-1.4-3.536-1.512-3.671a11.212,11.212,0,0,0-1.215-2.214c-.54-.432-.89-.647-1.187-.647s-.487-.135-.513-.406c.026-.215.107-.269.351-.269h6.424l.189.081.054.243c-.054.216-.351.351-.864.432a1.008,1.008,0,0,0-.918.89A4.462,4.462,0,0,0,618.312,929.3Z" fill="#231f20"/><path d="M644.635,929.836a.321.321,0,0,1,.026.269c-.026.082-.08.109-.216.109-.431,0-.512-.864-1.484-1.943a4.2,4.2,0,0,0-3.347-1.674c-1.727,0-2.7.89-2.7,2.078a1.65,1.65,0,0,0,1.322,1.755,20.855,20.855,0,0,0,3.105.567,7.914,7.914,0,0,1,3.1.944,2.842,2.842,0,0,1,1.35,2.727,3.325,3.325,0,0,1-1.107,2.672,6.428,6.428,0,0,1-2,1.242,5.943,5.943,0,0,1-2.051.323,9.275,9.275,0,0,1-1.944-.216,7.071,7.071,0,0,0-1.106-.134,1.063,1.063,0,0,0-.864.405.7.7,0,0,1-.486.432l-.162-.081-.108-.163-1.674-5.182.108-.243a.343.343,0,0,1,.243-.135q.324.041.567.891a4.06,4.06,0,0,0,1,1.673,12.3,12.3,0,0,0,1.16,1.107,4.774,4.774,0,0,0,3.132,1.08c1.835,0,2.915-1.053,2.915-2.456a1.874,1.874,0,0,0-.162-.892c-.108-.4-.621-1.134-2.43-1.376l-2.807-.432a6.17,6.17,0,0,1-2.51-.945,2.624,2.624,0,0,1-1-2.348c0-2.268,1.943-3.914,4.884-3.914a6.657,6.657,0,0,1,1.458.135l1,.135c.648,0,.81-.621,1.107-.728a.364.364,0,0,1,.269.161,1.2,1.2,0,0,1,.082.351Z" fill="#231f20"/><path d="M669.392,919.443l.324-.647a.625.625,0,0,1,.513-.351.218.218,0,0,1,.243.162l.053.27a10.266,10.266,0,0,1-.89,1.593c-.513.809-1,1.565-1.4,2.267-.4.675-.944,1.673-1.672,2.969a26.937,26.937,0,0,0-1.864,4.265,30.321,30.321,0,0,0-1.079,3.967,17.828,17.828,0,0,0-.27,3.159,3.122,3.122,0,0,1-.135,1.08c-.081.188-.351.3-.837.3h-2.348c-.621,0-.783-.244-.783-.675a8.449,8.449,0,0,1,.675-2.915,56.566,56.566,0,0,1,2.592-5.372,33.6,33.6,0,0,1,5.344-7.18h-7.882a3.967,3.967,0,0,0-3.455,1.377,3.025,3.025,0,0,1-.864.863c-.215,0-.324-.107-.324-.35a31.43,31.43,0,0,1,1.161-3.024,11.008,11.008,0,0,1,1.431-2.834c.3,0,.459.162.459.378a.756.756,0,0,0,.216.54,1.39,1.39,0,0,0,.809.161Z" fill="#231f20"/><path d="M671.986,940.984h-1.241l6.641-22.35h1.241Z" fill="#231f20"/><path d="M687.834,927.7a8.2,8.2,0,0,1,3.7,1.674,4.055,4.055,0,0,1,1.486,3.4,4.809,4.809,0,0,1-1.486,3.78,9.208,9.208,0,0,1-2.941,1.862,9.944,9.944,0,0,1-3.213.485,12.227,12.227,0,0,1-3.185-.378,9,9,0,0,1-2.835-1.484,4.175,4.175,0,0,1-1.484-3.564,4.034,4.034,0,0,1,1.4-3.1,6.53,6.53,0,0,1,3.509-1.62,8.053,8.053,0,0,1-2.942-1.781,3.31,3.31,0,0,1-.864-2.537,4.126,4.126,0,0,1,1.376-3.321,8.089,8.089,0,0,1,2.673-1.646,9.43,9.43,0,0,1,3-.459,6.835,6.835,0,0,1,4.481,1.349,4.063,4.063,0,0,1,1.62,3.24C692.126,925.518,690.668,926.921,687.834,927.7Zm-.027,3.024c-1.323-.622-3.24-1.107-4.617-1.674a5.046,5.046,0,0,0-1.835,7.343,5.029,5.029,0,0,0,1.835,1.484,6.131,6.131,0,0,0,2.214.378,4.581,4.581,0,0,0,3.536-1.323,4.348,4.348,0,0,0,1.242-3.078A3.372,3.372,0,0,0,687.807,930.727Zm1.592-5.021a4.344,4.344,0,0,0,.648-2.214c0-2.4-1.619-3.8-4.237-3.8a4.025,4.025,0,0,0-2.862,1.052,3.3,3.3,0,0,0-1.107,2.511A2.867,2.867,0,0,0,683.677,926a25.511,25.511,0,0,0,3.455,1.322A3.718,3.718,0,0,0,689.4,925.706Z" fill="#231f20"/><path d="M695.287,940.984h-1.241l6.641-22.35h1.241Z" fill="#231f20"/><path d="M710.892,934.641c.188,2.078.944,3.1,2.294,3.1,1.376,0,2.132.135,2.294.432-.081.243-.108.3-.432.3H703.6c-.541,0-.649-.054-.649-.3.136-.27.945-.406,2.376-.406,1.376,0,2.187-1.052,2.4-3.184V923.6c0-1.107-.54-1.458-1.943-1.458h-2.322a.6.6,0,0,1-.513-.189c-.081-.081-.081-.216.027-.378l.648-.135,1.593-.3a19.136,19.136,0,0,0,5.372-2.133.389.389,0,0,1,.35.134l.054.352-.054.944-.053.865Z" fill="#231f20"/><path d="M721.5,938.1a9.526,9.526,0,0,1-2.726-3.077,11.049,11.049,0,0,1-1.35-5.7,13.22,13.22,0,0,1,2-7.126,6.105,6.105,0,0,1,5.345-3.185,5.948,5.948,0,0,1,3.13.809,8.6,8.6,0,0,1,2.727,3.051,11.42,11.42,0,0,1,1.376,6.02c0,2.78-.513,4.912-1.565,6.37a10.143,10.143,0,0,1-2.888,2.915,6.058,6.058,0,0,1-2.97.728A5.819,5.819,0,0,1,721.5,938.1Zm-.054-15.062a20.949,20.949,0,0,0-.675,6.289,22.039,22.039,0,0,0,.729,6.02c.54,1.943,1.62,3.077,3.239,3.077,1.512,0,2.537-.891,3.32-3.726a21.567,21.567,0,0,0,.594-5.695,20.039,20.039,0,0,0-.837-6.5c-.621-1.862-1.673-2.942-3.1-2.942S722.34,920.334,721.449,923.034Z" fill="#231f20"/><g id="上海_アリス幻樂団" data-name="上海■アリス幻樂団"><path d="M958.83,923.356a1.574,1.574,0,0,1,.842.217.635.635,0,0,1,.365.607l-.063,1.965h3.289a4.655,4.655,0,0,1,1.032.072.431.431,0,0,1,.238.447,1.073,1.073,0,0,1-.206.636.74.74,0,0,1-.556.231c-.18,0-.551-.014-1.113-.044-.529-.008-1.012-.014-1.445-.014-.339,0-.778.006-1.318.014l-.1,2.817q2.637.086,6.593.621a2.6,2.6,0,0,1-.477,1.314.818.818,0,0,1-.683.419,6,6,0,0,1-1.223-.217,24.125,24.125,0,0,0-5.37-.635,18.722,18.722,0,0,0-5.243.693,4.087,4.087,0,0,1-1.064.217.9.9,0,0,1-.6-.275.721.721,0,0,1-.286-.519A.859.859,0,0,1,952.2,931a24.79,24.79,0,0,1,5.656-.693l-.063-6.124a.688.688,0,0,1,.286-.577A1.028,1.028,0,0,1,958.83,923.356Z" fill="#231f20"/><path d="M952.094,941.546l2.669.058q.444.115.444.361,0,.375-.9.679a20.868,20.868,0,0,1-2.161.534.9.9,0,0,1-.493-.232.61.61,0,0,1-.253-.462,1.223,1.223,0,0,1,.206-.649A.66.66,0,0,1,952.094,941.546Zm1.143-3.755a2.192,2.192,0,0,1,1.176.649q1.224,1.026,1.224,1.257c0,.241-.144.362-.43.362a2.753,2.753,0,0,1-.635-.1,9.341,9.341,0,0,0-1.51-.173q-.793-.073-.793-1.055a.892.892,0,0,1,.3-.664A1.051,1.051,0,0,1,953.237,937.791Zm1.128,6.542c.18,0,.271.072.271.217q0,.261-.239,1.978-.065.621-.858.621a1.31,1.31,0,0,1-.747-.2.8.8,0,0,1-.317-.649.9.9,0,0,1,.238-.463l1.3-1.314A.58.58,0,0,1,954.365,944.333Zm3.829-4.059a1.181,1.181,0,0,1,.619.145.2.2,0,0,1,.081.044q1.032-.058,2.652-.059,2.575,0,3.258.073c.211.019.317.091.317.216a1.532,1.532,0,0,1-.127.319,8.163,8.163,0,0,0-.476,1.66q.938.058,1.985.144a2.047,2.047,0,0,1-.365,1.084.738.738,0,0,1-.573.375,3.639,3.639,0,0,1-.936-.2c-.138-.029-.271-.057-.4-.087-.032.145-.058.294-.079.449s-.069.3-.111.447c.486.029.927.054,1.318.072.18.029.271.087.271.174a.95.95,0,0,1-.207.635.72.72,0,0,1-.556.246q-.286,0-1.16-.058a3.058,3.058,0,0,1-.509.91,1.078,1.078,0,0,1-.873.535,1.385,1.385,0,0,1-1.16-.694,2.414,2.414,0,0,0,.715-.838q-1.62-.043-3.941-.043a3.742,3.742,0,0,0-1.207.145,1.287,1.287,0,0,1-.4.1.667.667,0,0,1-.444-.159.39.39,0,0,1-.191-.36,1.46,1.46,0,0,1,.158-.477q.224-.564.446-1.141c-.138.029-.271.052-.4.072a4.545,4.545,0,0,1-.968.159.538.538,0,0,1-.382-.2.435.435,0,0,1-.191-.318.549.549,0,0,1,.509-.578,17.2,17.2,0,0,1,1.891-.332q.365-.982.73-2.037C957.58,940.414,957.812,940.274,958.194,940.274Zm-.4-2.642a2.676,2.676,0,0,1,1.033.173c.2.116.3.251.3.4a.832.832,0,0,1-.111.361q1.049-.086,2.875-.087,2.89,0,4.305.131a1.984,1.984,0,0,1-.286,1.026.452.452,0,0,1-.413.245q-.333,0-1.366-.058-1.653-.13-2.733-.13-1.4,0-2.542.115a7.7,7.7,0,0,1-.857.073.315.315,0,0,1-.1-.015.664.664,0,0,0-.127.116,3.229,3.229,0,0,1-2.017,1.054c-.286,0-.43-.081-.43-.245,0-.077.069-.179.207-.3a7.9,7.9,0,0,0,1.43-1.5,1.7,1.7,0,0,0,.4-.895.767.767,0,0,0-.207-.419A3.7,3.7,0,0,1,957.8,937.632Zm1.557,7.164.318-1.2q-.843.029-1.621.1l-.381,1.039c0,.039.132.059.4.059Zm-.906-2.2q.7-.045,1.51-.059l.3-1.1q-.78.015-1.414.044Zm3.845,2.238a.1.1,0,0,0,.016-.043c.128-.4.244-.756.349-1.084a15.363,15.363,0,0,0-1.716-.13l-.317,1.228Q961.515,944.81,962.293,944.839Zm-.763-3.4-.317,1.1q.827,0,1.779.044a5.489,5.489,0,0,0,.206-.982Q963.2,941.46,961.53,941.444Z" fill="#231f20"/><path d="M965.01,962.435H952.792V951.271H965.01Z" fill="#231f20"/><path d="M943.381,927.213a8.6,8.6,0,0,1-.159,1.965,3.059,3.059,0,0,1-1,1.589,5.791,5.791,0,0,1-2.4,1.313A6.19,6.19,0,0,1,938,932.4q-1.318,0-1.318-.91a2.27,2.27,0,0,1,1.1-2.05q.144.519.954.519a2.136,2.136,0,0,0,2.224-1.242,3.079,3.079,0,0,0,.207-.909v-.651q0-.736.985-.736a2.257,2.257,0,0,1,.874.115A.677.677,0,0,1,943.381,927.213Zm5.8-2.008a.723.723,0,0,1-.333.593,6.852,6.852,0,0,0-.684.419,1.541,1.541,0,0,0-.524.36q-1.764,1.806-2.368,1.806-.73,0-.73-.549a4.91,4.91,0,0,1,.6-1.155.924.924,0,0,0,.111-.332c0-.25-.144-.376-.429-.376-.032,0-.36-.009-.985-.029s-1.012-.044-1.16-.044a18.354,18.354,0,0,0-3.035.247q-1.478.231-1.573.23a1.071,1.071,0,0,1-.588-.187.863.863,0,0,1-.365-.694,1.016,1.016,0,0,1,1.017-1.1,23.1,23.1,0,0,1,2.971-.187q3.43,0,5.8.187a7.972,7.972,0,0,1,1.747.275C949.005,924.8,949.18,924.975,949.18,925.205Z" fill="#231f20"/><path d="M947.226,939.119q0,.261-.16,2.1a6.042,6.042,0,0,1-2,4.433,6.792,6.792,0,0,1-4.226,1.142,6.371,6.371,0,0,1-1.351-.1c-.561-.126-.842-.385-.842-.781q0-.923,1.462-1.906a1.741,1.741,0,0,0,1.478.491,3.012,3.012,0,0,0,1.843-.693,3.669,3.669,0,0,0,1.3-3.048v-.9c.011-.384.016-.611.016-.678q0-.78,1.255-.78a1.841,1.841,0,0,1,.8.173C947.083,938.715,947.226,938.9,947.226,939.119Zm-6.212-.072q0,.174-.016,1.242-.017,1.084-.016,1.459,0,1.488-1.223,1.487-.954,0-.953-1.053c0-.125-.017-.583-.048-1.372s-.032-1.334-.032-1.633q0-.75,1.192-.751Q941.013,938.426,941.014,939.047Z" fill="#231f20"/><path d="M948.624,960.239a2.061,2.061,0,0,1-1.478.91,1.559,1.559,0,0,1-.889-.448q-.19-.144-.636-.491-.413-.332-.715-.549a15.6,15.6,0,0,0-2.542-1.4q-2.812,2.426-4.957,2.426-.842,0-.842-.91a3.415,3.415,0,0,1,.906-1.848.922.922,0,0,0,.667.245,3.824,3.824,0,0,0,1.542-.447,7.619,7.619,0,0,0,1.6-.955,11.226,11.226,0,0,0,1.017-.953c.286-.317.428-.524.428-.621q0-.23-.46-.23a22.562,22.562,0,0,0-2.764.144q-1.113.115-1.018.116a.9.9,0,0,1-.841-.925q0-.865,1.08-.866l1.795-.03q1.86-.072,2.781-.072a8.09,8.09,0,0,1,2.573.246c.318.115.477.289.477.52a.557.557,0,0,1-.27.433,3.692,3.692,0,0,0-.509.4q-.492.52-1.858,2.051a12.243,12.243,0,0,0,3.145,1.387q.683.217,2.066.563c.095.02.217.048.365.087h.016A2.221,2.221,0,0,1,948.624,960.239Z" fill="#231f20"/><path d="M924.245,923.256a.946.946,0,0,1,.684.217.842.842,0,0,1,.254.577,1.448,1.448,0,0,1-.588.982l-1.922,1.488c-.276.251-.413.41-.413.476,0,.145.179.3.54.477l.715.26q.984-.78,1.923-1.56a1.4,1.4,0,0,1,.841-.433.9.9,0,0,1,.508.188.663.663,0,0,1,.255.491,1.7,1.7,0,0,1-.731,1.242l-3.019,2.441,2.463.072c.085,0,.127-.053.127-.159q-.636-.635-.636-.809c0-.269.149-.4.445-.4a4.1,4.1,0,0,1,1.684,1.04q1.048.823,1.049,1.27,0,.636-.572.636a4.762,4.762,0,0,1-.667-.1,19.338,19.338,0,0,0-1.97-.072H923.1a11.075,11.075,0,0,0-2.066.145,2.089,2.089,0,0,1-.476.144c-.647,0-.969-.193-.969-.578a1.543,1.543,0,0,1,.763-1.14q.9-.666,1.762-1.315a12.375,12.375,0,0,0-1.874-.751q-.714-.2-.715-.491t.635-.853l2.686-2.629A2.532,2.532,0,0,1,924.245,923.256Zm6.165.519q2.6,0,3.384.087.492.087.492.318a.657.657,0,0,1-.111.26,1.532,1.532,0,0,0-.222.824l-.1,4.144a3.581,3.581,0,0,1-1.287,2.6,3.388,3.388,0,0,1-2.16.838,1.248,1.248,0,0,1-.874-.375,3.311,3.311,0,0,1-.778-1.416,6.12,6.12,0,0,0,2.557-.794,2.078,2.078,0,0,0,.874-1.849v-2.961c0-.125-.09-.187-.27-.187q-2.3,0-3.7.115a6,6,0,0,1-1,.13.656.656,0,0,1-.477-.275.838.838,0,0,1-.222-.606q0-.593.874-.78Q927.836,923.776,930.41,923.775Z" fill="#231f20"/><path d="M922.514,937.791a.631.631,0,0,1,.508.188.638.638,0,0,1,.191.447.659.659,0,0,1-.3.463l-1,.707q-.222.188-.222.231c0,.038.079.077.238.115l.286.058.684-.562a.883.883,0,0,1,.523-.247.442.442,0,0,1,.493.506.607.607,0,0,1-.334.5l-1.7,1.229c0,.038.048.057.143.057h1.128c.1,0,.143-.019.143-.057a1.86,1.86,0,0,1-.206-.521c0-.144.111-.217.333-.217.181,0,.45.179.81.535q.462.492.461.737c0,.307-.169.462-.508.462a2.707,2.707,0,0,1-.429-.058h-1.366a14.933,14.933,0,0,0-1.827.087,1.478,1.478,0,0,1-.381.086.425.425,0,0,1-.271-.1.291.291,0,0,1-.127-.259q0-.187.477-.536l.874-.75a8.337,8.337,0,0,0-1.1-.39q-.381-.087-.381-.232t.381-.476l1.637-1.5A1.572,1.572,0,0,1,922.514,937.791Zm4.575-.274a2.919,2.919,0,0,1,.937.1c.149.048.223.125.223.232a.987.987,0,0,1-.159.476,12.954,12.954,0,0,1,1.684.145c.16.028.239.1.239.2q-.079.345-.191,1.025l.175-.159,1.62-1.4a1.559,1.559,0,0,1,.826-.462.662.662,0,0,1,.509.187.677.677,0,0,1,.191.449c0,.125-.112.269-.334.433l-1.1.635c-.149.106-.223.174-.223.2,0,.049.064.1.191.159l.3.13.573-.447a.921.921,0,0,1,.524-.232.448.448,0,0,1,.508.506c0,.183-.121.342-.365.477l-1.732,1.155c0,.029.042.043.127.043h1c.138,0,.207-.014.207-.043a1.741,1.741,0,0,1-.207-.476c0-.145.111-.217.334-.217q.27,0,.763.52c.3.3.444.53.444.693,0,.308-.148.463-.444.463H931.9a13.365,13.365,0,0,0-1.7.085,1.282,1.282,0,0,1-.381.087.482.482,0,0,1-.3-.13.292.292,0,0,1-.112-.216.605.605,0,0,1-.222.044,1.824,1.824,0,0,1-.254-.044q-.462-.043-1.272-.058c.042.02.074.034.1.043a.963.963,0,0,1,.413.593q2.478.072,6.18.462a2.239,2.239,0,0,1-.445,1.2.774.774,0,0,1-.651.419,5.272,5.272,0,0,1-1.176-.232,22.024,22.024,0,0,0-3.925-.606l-.031,1.646a2.2,2.2,0,0,1-.334,1.286.886.886,0,0,1-.809.448,1.259,1.259,0,0,1-.827-.289q-.333-.217-.334-1.329v-1.777a22.635,22.635,0,0,0-4.353.535,5.072,5.072,0,0,1-1.111.187.647.647,0,0,1-.43-.2.478.478,0,0,1-.206-.36.66.66,0,0,1,.571-.708,24.156,24.156,0,0,1,5.545-.665.88.88,0,0,1,.318-.548,1.414,1.414,0,0,1,.159-.1,8.872,8.872,0,0,0-1.048.1.744.744,0,0,1-.207.072q-.3,0-.366-.463l-.334-2.946a.352.352,0,0,1,.3-.347q.6-.1,1.224-.144a1.3,1.3,0,0,0,.142-.448c0-.067-.068-.159-.206-.274A7.472,7.472,0,0,1,927.089,937.517Zm-3.034,7.22c.085,0,.127.039.127.117a1.951,1.951,0,0,1-.763,1.27,2.883,2.883,0,0,1-1.795.853c-.381,0-.572-.247-.572-.737a1.168,1.168,0,0,1,.27-.867c.022.077.121.115.3.115a3.8,3.8,0,0,0,1.843-.577A1.591,1.591,0,0,1,924.055,944.737Zm2.049-4.867a9.048,9.048,0,0,1,.938-.043q.571,0,1.159.043l.048-.5c0-.049-.037-.082-.111-.1a6.609,6.609,0,0,0-1.159-.073,3.074,3.074,0,0,0-.763.087c-.085.02-.127.048-.127.087Zm.239,1.344a4.817,4.817,0,0,1,.73-.058,5.994,5.994,0,0,1,.842.058.19.19,0,0,0,.207-.174l.031-.419c-.391-.028-.761-.043-1.111-.043s-.651.01-.906.029l.016.549C926.152,941.194,926.216,941.214,926.343,941.214Zm3.241.562.27-.245,1.016-.794a6.973,6.973,0,0,0-.936-.476.976.976,0,0,1-.175-.087C929.705,940.626,929.647,941.161,929.584,941.776Zm.429,3.02a2.246,2.246,0,0,1,.841.23,9.036,9.036,0,0,0,1.971.694,2.565,2.565,0,0,1-.572,1.054,1.252,1.252,0,0,1-.763.26,1.319,1.319,0,0,1-.858-.476,3.029,3.029,0,0,1-.81-1.589C929.822,944.854,929.886,944.8,930.013,944.8Z" fill="#231f20"/><path d="M927.089,952.411a48.509,48.509,0,0,1,6.133.26c.371.049.556.154.556.318q-.318,1.978-.7,7.9c-.021.346-.154.519-.4.519-.1,0-.328-.024-.7-.072q-1.6-.144-4.924-.145-3.4,0-5.259.174a3.906,3.906,0,0,1-.619.1c-.2,0-.324-.15-.367-.447l-.634-7.8c0-.28.248-.452.746-.52Q923.976,952.412,927.089,952.411Zm-4.639,7.452q1.3-.027,2.574-.043a.651.651,0,0,1-.143-.144,1.646,1.646,0,0,1-.334-1.083,5.84,5.84,0,0,0,2.24-.332.76.76,0,0,0,.493-.651v-1.631a19.814,19.814,0,0,0-3.114.259c-.509.068-.826.1-.953.1a.64.64,0,0,1-.445-.174.685.685,0,0,1-.175-.462.622.622,0,0,1,.429-.592,22.619,22.619,0,0,1,4.258-.216V954.2a.58.58,0,0,1,.143-.4h-.334q-2.382,0-4.432.158-.779.058-.779.174l.382,5.618C922.26,959.825,922.323,959.863,922.45,959.863Zm3.574-3.48a.375.375,0,0,1,.43.419q0,.115-.382.462a4.955,4.955,0,0,1-1.222.722,3.076,3.076,0,0,1-1.065.245c-.329,0-.493-.134-.493-.4a1.466,1.466,0,0,1,.365-.851.281.281,0,0,0,.255.1,2.706,2.706,0,0,0,.842-.159,4.115,4.115,0,0,0,.953-.447A.6.6,0,0,1,926.024,956.383Zm2.717-2.585a.339.339,0,0,1,.08.217,3.073,3.073,0,0,0-.063.519v.376q1.206.042,2.525.158a2,2,0,0,1-.3,1.083.6.6,0,0,1-.46.189,5.662,5.662,0,0,1-.826-.1c-.34-.067-.651-.12-.937-.158v1.69a1.766,1.766,0,0,1-.906,1.631,4.984,4.984,0,0,1-.969.405h4.4c.128,0,.2-.081.207-.245l.365-5.489c0-.077-.137-.13-.413-.159Q930.5,953.826,928.741,953.8Z" fill="#231f20"/></g></g><g id="Mid_Outline" data-name="Mid Outline"><g id="秘封ナイトメアダイアリー"><path d="M394.692,485.966a2,2,0,0,1-1.988-1.784c-1.523-13.993-4.17-28.179-6.855-41.658a197.843,197.843,0,0,1-33.871,25.633,2,2,0,0,1-2.05.006c-3.416-2.026-5.124-3.037-8.541-5.057a2,2,0,0,1-.068-3.4c24.573-15.9,44.833-39.55,55.585-64.887a2,2,0,0,1,2.5-1.108c6.268,2.177,9.4,3.269,15.669,5.456a2,2,0,0,1,1.128,2.786A144.273,144.273,0,0,1,401.7,424.688c2.193,14.3,4.818,28.884,8.019,44.557l.03.147c.886,4.345,1.723,8.45,2.451,11.492a2,2,0,0,1-1.616,2.438c-6.225,1.041-9.337,1.564-15.562,2.616A1.981,1.981,0,0,1,394.692,485.966Z" fill="#fff"/><path d="M398.745,395.6c6.267,2.177,9.4,3.268,15.666,5.455A143.73,143.73,0,0,1,399.6,424.145c2.319,15.228,5.083,30.408,8.166,45.5.916,4.494,1.751,8.6,2.5,11.7-6.227,1.042-9.34,1.565-15.566,2.617-1.658-15.228-4.578-30.379-7.593-45.383a197.96,197.96,0,0,1-36.152,27.86c-3.417-2.026-5.125-3.038-8.543-5.059,24.25-15.69,45.015-39.1,56.34-65.785m0-4a4,4,0,0,0-3.683,2.438c-10.6,24.978-30.585,48.3-54.831,63.989a4,4,0,0,0,.138,6.8c3.415,2.02,5.123,3.031,8.538,5.056a4,4,0,0,0,4.1-.011,198.276,198.276,0,0,0,31.572-23.464c2.431,12.382,4.754,25.282,6.137,37.991a4,4,0,0,0,3.977,3.567,3.948,3.948,0,0,0,.666-.056c6.224-1.052,9.336-1.574,15.56-2.615a4,4,0,0,0,3.23-4.877c-.72-3.009-1.554-7.1-2.436-11.427l-.03-.145c-3.131-15.33-5.71-29.619-7.873-43.622a145.363,145.363,0,0,0,14.176-22.374,4,4,0,0,0-2.257-5.572c-6.268-2.188-9.4-3.28-15.671-5.457a3.987,3.987,0,0,0-1.312-.222Z" fill="#fff"/><path d="M411.16,587.13a2.012,2.012,0,0,1-.832-.181c-3.724-1.7-5.587-2.553-9.311-4.243a2,2,0,0,1-.077-3.605,103.068,103.068,0,0,0,39.426-34.894,87.911,87.911,0,0,0-15.946-2.874,2,2,0,0,1-1.775-2.591,92.263,92.263,0,0,1-14.08,15.85,2,2,0,0,1-1.912.414c-3.317-1.017-4.976-1.523-8.293-2.529a2,2,0,0,1-.892-3.268c12.281-13.362,21.4-32.686,25.673-54.408a2,2,0,0,1,1.961-1.613c.034,0,.069,0,.1,0,6.284.324,9.426.492,15.711.841a2,2,0,0,1,1.821,2.511c-.773,2.907-1.692,5.865-2.743,8.829,7.168-1.8,13.147-3.524,17.222-4.764l2.5-2.617a41.969,41.969,0,0,0-7.369-9.113,2,2,0,0,1,.349-3.317l5.1-2.652a2,2,0,0,1,1.832-.006c4,2.043,12.1,7.657,15.689,11.8a2,2,0,0,1-.387,2.963l-2.24,1.523c.887.245,1.817.5,2.987.824a2,2,0,0,1,1,3.21l-3.279,3.924a107.394,107.394,0,0,1-8.549,27.763,96.247,96.247,0,0,1,14.763,5.611,2,2,0,0,1,.826,2.887l-8.527,13.284a2,2,0,0,1-1.28.879,1.969,1.969,0,0,1-.4.041,2.006,2.006,0,0,1-1.12-.342,95.862,95.862,0,0,0-12.805-7.313,107.65,107.65,0,0,1-44.328,36.994A2.007,2.007,0,0,1,411.16,587.13Zm23.321-68.372A169.047,169.047,0,0,1,423.724,537.2l4.586-5.6a2,2,0,0,1,1.536-.733l1.207,0c5.911,0,11.214.24,16.155.734a98.082,98.082,0,0,0,5.914-17.951c-5.1,1.339-9.893,2.675-14.207,3.878C437.348,517.963,435.864,518.376,434.481,518.758Z" fill="#fff"/><path d="M458.724,484.682c3.843,1.964,11.739,7.464,15.087,11.331l-5.82,3.96c2.864.785,4.3,1.178,7.16,1.968l-3.635,4.351a104.076,104.076,0,0,1-9.509,29.912,93.815,93.815,0,0,1,16.757,6.125l-8.527,13.284a96.543,96.543,0,0,0-14.643-8.186,105.573,105.573,0,0,1-44.434,37.7c-3.727-1.7-5.59-2.554-9.317-4.245,16.817-8.515,31.794-21.782,41.65-37.879a92.522,92.522,0,0,0-18.939-3.668l5.3-6.471,1.193,0a156.33,156.33,0,0,1,17.381.875,100.364,100.364,0,0,0,7.324-22.84c-8.624,2.205-16.674,4.524-22.652,6.163-6.885,13.468-14.4,25.888-25.863,36.032-3.32-1.018-4.98-1.524-8.3-2.532,13.733-14.943,22.289-35.7,26.162-55.375,6.281.323,9.421.492,15.7.842a115.46,115.46,0,0,1-4,12.185c8.131-1.95,15.668-4.062,21.5-5.846l3.821-4,.234.057c-2.515-4.11-5.788-8.668-8.732-11.1l5.1-2.652m0-4a4,4,0,0,0-1.844.451l-5.1,2.653a4,4,0,0,0-.7,6.634,36.273,36.273,0,0,1,6.1,7.337l-1.041,1.089c-3.314,1-7.786,2.3-13.067,3.674q.882-2.749,1.6-5.464a4,4,0,0,0-3.644-5.021c-6.287-.35-9.431-.519-15.718-.842-.07,0-.139-.006-.208-.006a4,4,0,0,0-3.923,3.228c-4.2,21.367-13.148,40.346-25.182,53.441a4,4,0,0,0,1.783,6.534c3.316,1.006,4.973,1.512,8.289,2.528a3.995,3.995,0,0,0,3.822-.829,92.04,92.04,0,0,0,12.388-13.462,3.994,3.994,0,0,0,2.009.7,80.211,80.211,0,0,1,12.828,2.116,101.524,101.524,0,0,1-37.079,31.871,4,4,0,0,0,.154,7.211c3.722,1.69,5.583,2.538,9.306,4.241a4,4,0,0,0,3.313.006A109.87,109.87,0,0,0,456.984,552.5,94.525,94.525,0,0,1,468,558.927a4,4,0,0,0,5.606-1.153l8.527-13.284a4,4,0,0,0-1.652-5.775,99.049,99.049,0,0,0-12.853-5.061,109.968,109.968,0,0,0,7.668-25.644l.519-.621,2.408-2.883a4,4,0,0,0-1.2-6.1,4,4,0,0,0-.183-5.009c-3.743-4.324-12.149-10.158-16.291-12.274a3.986,3.986,0,0,0-1.82-.439Zm-22.867,39.77c1.145-.317,2.353-.654,3.615-1,3.37-.94,7.032-1.961,10.9-3a95.147,95.147,0,0,1-4.421,13.024c-4.522-.4-9.351-.6-14.663-.607,1.61-2.805,3.121-5.618,4.567-8.412Z" fill="#fff"/><path d="M478.042,498.134a2.008,2.008,0,0,1-1.738-1.009,46,46,0,0,0-10.1-12.524,2,2,0,0,1,.34-3.33l5.1-2.639a2,2,0,0,1,1.717-.057c2.767,1.2,11.543,5.657,15.445,10.178a2,2,0,0,1-.417,2.979l-9.252,6.074A2.011,2.011,0,0,1,478.042,498.134Z" fill="#fff"/><path d="M472.566,480.409c3.529,1.535,11.381,5.772,14.728,9.651-3.7,2.428-5.551,3.642-9.253,6.073a48.225,48.225,0,0,0-10.574-13.086c2.04-1.056,3.059-1.584,5.1-2.638m0-4a3.993,3.993,0,0,0-1.838.447l-5.1,2.639a4,4,0,0,0-.68,6.659,43.957,43.957,0,0,1,9.619,11.962,4,4,0,0,0,5.67,1.361c3.7-2.431,5.551-3.645,9.251-6.073a4,4,0,0,0,.834-5.958c-4.164-4.825-13.077-9.364-16.16-10.705a4,4,0,0,0-1.6-.332Z" fill="#fff"/><path d="M553.064,562.484a2,2,0,0,1-1.988-1.782c-1.522-13.886-4.169-27.943-6.852-41.3a196.139,196.139,0,0,1-33.881,25.439,2,2,0,0,1-2.033.006c-3.415-2-5.123-3-8.539-5a2,2,0,0,1-.07-3.413c24.557-15.712,44.814-39.2,55.576-64.439a2,2,0,0,1,2.481-1.109c6.268,2.12,9.4,3.185,15.671,5.321a2,2,0,0,1,1.14,2.793,143.424,143.424,0,0,1-14.491,22.65c2.193,14.179,4.817,28.651,8.018,44.21.9,4.371,1.743,8.5,2.479,11.561a2,2,0,0,1-1.617,2.44c-6.226,1.032-9.339,1.55-15.564,2.59A1.933,1.933,0,0,1,553.064,562.484Z" fill="#fff"/><path d="M557.118,472.786c6.266,2.12,9.4,3.184,15.666,5.32a142.855,142.855,0,0,1-14.813,23.006c2.32,15.114,5.084,30.18,8.166,45.157.915,4.463,1.751,8.537,2.494,11.625-6.226,1.033-9.34,1.551-15.566,2.591-1.657-15.1-4.577-30.129-7.593-45.006a196.1,196.1,0,0,1-36.15,27.643c-3.417-2-5.126-3-8.543-5,24.24-15.511,45.008-38.769,56.339-65.339m0-4a4,4,0,0,0-3.68,2.432c-10.609,24.878-30.589,48.037-54.815,63.539a4,4,0,0,0,.139,6.824c3.415,1.993,5.123,2.992,8.537,4.993a4,4,0,0,0,4.066-.013,196.6,196.6,0,0,0,31.591-23.29c2.429,12.261,4.749,25.038,6.133,37.651a4,4,0,0,0,3.976,3.564,3.96,3.96,0,0,0,.659-.055c6.225-1.04,9.337-1.557,15.562-2.59a4,4,0,0,0,3.234-4.882c-.73-3.033-1.572-7.142-2.464-11.492-3.131-15.215-5.709-29.39-7.87-43.272a144.522,144.522,0,0,0,14.17-22.288,4,4,0,0,0-2.282-5.586c-6.27-2.137-9.4-3.2-15.674-5.323a4.01,4.01,0,0,0-1.282-.212Z" fill="#fff"/></g></g><g id="Mid_Text" data-name="Mid Text"><g id="秘封ナイトメアダイアリー-2" data-name="秘封ナイトメアダイアリー"><g id="秘封"><path d="M154.4,430.076q-4.539-22.8-8.516-45.7A88.123,88.123,0,0,1,133.788,412c-2.962-1.195-4.441-1.789-7.4-2.964,6.575-16.381,10.022-34.128,11.055-51.73-5.849,1.035-8.772,1.569-14.6,2.693-2.278-3.51-3.416-5.262-5.69-8.757,8.209-1.641,12.327-2.4,20.571-3.852-1.1-5.384-1.654-8.075-2.756-13.457-6.108,1.879-12.093,3.659-17.976,5.23-1.651-2.987-2.475-4.479-4.124-7.457,14.533-6.156,28.416-12.917,40.933-22.674,5.258,5.132,7.889,7.706,13.149,12.854-5.263,2.419-11.113,4.806-17.291,7.019,1.3,6.356,1.954,9.535,3.258,15.892l2.51-.414c2.543-2.785,3.814-4.175,6.357-6.952,4.876,2.417,7.314,3.63,12.187,6.051-3.342,3.636-5.014,5.455-8.359,9.1-4.3.694-6.444,1.043-10.74,1.754.418,2.034.626,3.051,1.044,5.085,1.026-.905,1.538-1.358,2.564-2.261A80.223,80.223,0,0,1,174.51,369.27c-3.239,4.988-4.86,7.483-8.1,12.477a92.629,92.629,0,0,0-9.269-16.35q6.375,31.059,12.753,62.117C163.7,428.528,160.6,429.035,154.4,430.076Zm16-42.937c5.049-10.331,4.533-21.734,4.064-32.832,3.763-.186,5.643-.279,9.4-.469.25,1.22.375,1.83.626,3.049,2.652,12.853,4.347,26.442,2.354,39.513C180.273,392.706,176.982,390.847,170.4,387.139Zm71.646-11.333a77.265,77.265,0,0,0-12.47-25.147,175.616,175.616,0,0,1-17.467,41.581c.558,2.737.837,4.105,1.394,6.842.852,4.183,2.217,4.618,10.942,3.361,12.626-1.82,17.081-7.953,13.917-21.02l10.376-1.255a59.7,59.7,0,0,0,.946,6.79c1.357,6.72,3.714,12.088,6.921,15.342-5.414,10.051-18.869,11.509-28.614,13.438-8.746,1.731-24.416,3.594-28-7.762a132.162,132.162,0,0,1-19.05,17.206l-8.474-4.78a177.044,177.044,0,0,0,24.1-27.72q-6.155-30.021-12.315-60.042c6.234-1.008,9.347-1.515,15.559-2.566q4.158,21,8.313,42c8.592-21.274,9.756-44.586,10.144-67.218,7-.63,10.491-.941,17.465-1.56-.811,12.691-2.065,24.873-4.062,37.43,8.939,6.562,17.63,13.214,24.342,22.194Zm-35.872-41.312c-6.4-9.567-15.916-17.051-25.882-22.611,2.51-2.345,3.764-3.517,6.271-5.864,10.314,3.587,20.9,7.08,30.177,13C212.519,325.208,210.407,328.3,206.172,334.494Z" fill="#231f20"/><path d="M323.38,333.975c-19.223,3.168-38.413,6.53-57.616,9.822-2.326-3.642-3.488-5.462-5.813-9.105,10.528-1.8,15.793-2.707,26.386-4.535-1.153-5.678-1.73-8.517-2.882-14.195-7.5,1.293-11.231,1.934-18.694,3.214-2.336-3.692-3.5-5.538-5.838-9.231,8.994-1.541,13.492-2.312,22.526-3.868-1.4-6.895-2.1-10.343-3.493-17.239,6.384-1.1,9.582-1.65,16-2.762,1.4,6.893,2.107,10.338,3.513,17.231,2.437-.421,3.657-.63,6.1-1.044,2.674-2.921,4.012-4.379,6.688-7.294,4.844,2.651,7.267,3.982,12.116,6.642-3.276,3.638-4.913,5.457-8.187,9.1-5.883.981-8.823,1.473-14.7,2.482l2.895,14.2c3.991-.68,5.988-1.016,9.984-1.683,2.832-2.992,4.249-4.486,7.083-7.474,4.9,2.649,7.357,3.977,12.263,6.625Zm19.425,45.168c-20.357,10.347-41.72,18.536-63.128,26.407-3.942-5.407-5.909-8.112-9.842-13.522,9.286-2,18.536-4.365,27.695-6.879-1.426-7-2.14-10.491-3.565-17.485-8.132,1.409-12.178,2.106-20.253,3.5-2.328-3.64-3.492-5.46-5.818-9.1,9.6-1.648,14.411-2.475,24.085-4.15-1.114-5.474-1.671-8.211-2.784-13.685,6.406-1.107,9.625-1.674,16.057-2.763,1.118,5.477,1.676,8.216,2.794,13.694,3.439-.578,5.16-.865,8.6-1.437l6.669-7.4c4.859,2.711,7.29,4.068,12.152,6.774-3.288,3.591-4.932,5.385-8.219,8.972-6.889,1.14-10.332,1.706-17.212,2.859l3.21,15.729c9.074-2.661,18.212-5.583,27-9.078ZM388,376.232c.7,3.4,1.065,11.566-13.172,16.633-5.541-5.242-13.693-6.368-24.041-5.637-.6-2.939-.9-4.409-1.5-7.349,5.5-.548,9.549-1.133,12.6-1.68,7.636-1.368,8.371-2.708,7.854-5.235q-6.09-29.727-12.175-59.454-15.053,2.65-30.142,5.1l-6.048-9.23q17.092-2.832,34.169-5.751c-2.219-10.841-3.328-16.263-5.547-27.111,6.613-1.135,9.919-1.714,16.526-2.921,2.217,10.824,3.325,16.233,5.541,27.046l.554-.1c1.9-2.56,2.844-3.843,4.739-6.411,4.378,2.514,6.566,3.76,10.938,6.22-3.187,3.593-4.782,5.381-7.973,8.944-2.5.489-3.743.729-6.239,1.2q5.688,27.747,11.38,55.493c.952,3.795,1.428,5.692,2.38,9.485Zm-35.531-13.823a118.226,118.226,0,0,0-22.281-29.562c2.339-2.329,3.508-3.493,5.848-5.825a122.918,122.918,0,0,1,27.521,19.264C359.12,352.752,356.9,355.974,352.466,362.409Z" fill="#231f20"/></g><g id="ナイトメア"><path d="M325.3,441.5c-1.707.308-3.519.636-5.331.966-8.744,1.589-18.086,3.517-27.3,5.554,5.341,27.377-11.57,48.069-34.66,60.227-3.612-2.034-5.418-3.048-9.029-5.072,19.643-12.21,32.345-27.139,28.369-51.533-12.27,3.225-24.367,6.633-36.467,10.438-2.659-3.218-3.988-4.825-6.647-8.037,13.829-3.6,27.711-6.986,41.588-10.39-1.392-6.8-3.787-17.956-4.861-23.2,6.227-1.208,9.34-1.8,15.566-2.988,1.839,8.985,2.758,13.478,4.6,22.465,11.033-2.682,22.087-5.307,33.06-8.226C324.631,435.623,324.855,437.583,325.3,441.5Z" fill="#231f20"/><path d="M394.692,483.965c-1.656-15.227-4.577-30.379-7.593-45.382a197.941,197.941,0,0,1-36.15,27.859c-3.418-2.026-5.126-3.038-8.544-5.058,24.249-15.691,45.015-39.1,56.34-65.785,6.266,2.177,9.4,3.268,15.666,5.456A143.7,143.7,0,0,1,399.6,424.144c2.32,15.228,5.084,30.408,8.167,45.5.915,4.493,1.751,8.6,2.494,11.7C404.032,482.39,400.919,482.913,394.692,483.965Z" fill="#231f20"/><path d="M484.779,466.34c-2.337-19.575-6.068-39.072-10-58.372-2.114-10.359-4.134-19.226-5.555-24.045l15.645-2.148c1.492,11.1,3.54,22.123,5.533,33.142l2.61-5.577c13.02-.921,27.786-.533,40.172,4.146L527.954,429.5c-11.368-6.7-24.114-11.682-37.278-13.21q2.546,14.182,5.431,28.309c1.554,7.623,3.031,14.355,4.239,19.21Z" fill="#231f20"/><path d="M630.88,424.8c-4.221-3.908-11.052-8.172-18.7-12.11-10.164,16.119-24.662,30.337-41.817,38.9-3.567-1.708-5.35-2.563-8.917-4.274,15.626-10.819,29.19-23.446,38.054-40.535a118.44,118.44,0,0,0-23.145-7.508l4.73-6.551a193.711,193.711,0,0,1,23.255,4.243c4.1-10.622,7.791-21.1,9.964-32.318,6.893,1.115,10.34,1.668,17.233,2.763a261.927,261.927,0,0,1-12.7,33.528c8.133,2.531,15.452,5.388,20.493,8.437C635.949,415.545,634.259,418.63,630.88,424.8Z" fill="#231f20"/><path d="M745.8,350.58c-5.984,12.327-13.991,24.058-24.408,33.064-2.678-.727-4.017-1.092-6.694-1.824a61.472,61.472,0,0,1-30.671,54.726c-3.788-1.637-5.683-2.459-9.471-4.105,18.467-11.986,27.091-33.5,22.638-54.939-.418-2.042-.963-4.161-1.614-6.26,6.845-.972,10.267-1.465,17.112-2.468.345,1.145.584,2.311.822,3.477a66.569,66.569,0,0,1,1.079,7.973c5.9-7.438,10.539-17.626,12.923-26.779-19.565,5.047-39.072,10.688-58.132,17.416-3.24-3.732-4.86-5.6-8.1-9.336,23.588-5.477,47.141-11.263,70.431-17.9L734.2,340.6c6.508,2.293,9.762,3.432,16.271,5.692C748.6,348.008,747.667,348.865,745.8,350.58Z" fill="#231f20"/></g><g id="ダイアリー"><path d="M470.237,555.613a96.677,96.677,0,0,0-14.643-8.187,105.549,105.549,0,0,1-44.434,37.7c-3.727-1.7-5.59-2.554-9.317-4.245,16.816-8.515,31.794-21.781,41.649-37.879a92.652,92.652,0,0,0-18.938-3.668l5.3-6.47a159.809,159.809,0,0,1,18.574.871,100.421,100.421,0,0,0,7.324-22.839c-8.624,2.2-16.674,4.523-22.652,6.163-6.885,13.468-14.4,25.887-25.863,36.031-3.32-1.017-4.98-1.524-8.3-2.531,13.733-14.944,22.289-35.7,26.162-55.375,6.281.323,9.421.492,15.7.841a115.235,115.235,0,0,1-4,12.186c8.13-1.951,15.667-4.062,21.5-5.846l3.82-4,.234.057c-2.515-4.109-5.789-8.669-8.731-11.1l5.1-2.651c3.842,1.964,11.739,7.463,15.088,11.33l-5.822,3.959c2.865.785,4.3,1.179,7.161,1.97l-3.635,4.352a104.1,104.1,0,0,1-9.509,29.91,94.008,94.008,0,0,1,16.758,6.125C475.354,547.644,473.648,550.3,470.237,555.613Zm7.8-59.479a48.209,48.209,0,0,0-10.574-13.086l5.1-2.64c3.53,1.537,11.38,5.774,14.728,9.652C483.593,492.488,481.742,493.7,478.041,496.134Z" fill="#231f20"/><path d="M553.065,560.485c-1.656-15.1-4.576-30.129-7.593-45a196.122,196.122,0,0,1-36.151,27.643c-3.417-2-5.126-3-8.543-5,24.242-15.51,45.01-38.769,56.34-65.339,6.266,2.12,9.4,3.185,15.665,5.32a142.7,142.7,0,0,1-14.813,23.007c2.321,15.114,5.085,30.179,8.167,45.157.915,4.462,1.75,8.537,2.494,11.625C562.405,558.927,559.292,559.445,553.065,560.485Z" fill="#231f20"/><path d="M689.86,465.189c-5.967,12.138-13.983,23.667-24.409,32.394l-6.693-2.006a59.758,59.758,0,0,1-30.672,53.947c-3.788-1.718-5.682-2.577-9.471-4.292,18.6-11.672,27.061-33.072,22.638-54.385-.418-2.048-.962-4.177-1.613-6.287,6.844-.833,10.266-1.25,17.111-2.086.345,1.154.584,2.327.823,3.5a67.318,67.318,0,0,1,1.079,8c5.907-7.3,10.555-17.41,12.923-26.462-19.577,4.521-39.1,9.773-58.134,16.229-3.239-3.761-4.859-5.641-8.1-9.4,23.542-5.207,47.083-10.535,70.432-16.558l2.488-2.958c6.509,2.482,9.763,3.724,16.271,6.208C692.664,462.7,691.73,463.53,689.86,465.189Z" fill="#231f20"/><path d="M734.262,495.273c-.872-7.575-2.509-16.744-4.26-25.381-1.93-9.52-4.041-18.293-5.542-23.514,5.605-1.111,8.408-1.669,14.014-2.79,1.1,4.888,2.685,12.136,4.233,19.794,1.971,9.755,3.866,19.534,5.823,29.3C742.823,493.722,739.969,494.241,734.262,495.273Zm6.2,27.91c22.9-10.949,33.225-31.532,27.928-56.25-2.037-9.857-4.171-19.694-6.2-29.552,6.013-1.095,9.019-1.645,15.033-2.756,2,9.972,3.947,19.954,5.942,29.926,6.738,29.412-7.245,51.337-33.419,64.152Z" fill="#231f20"/><path d="M905.759,457.294c-5.564,1.088-11.234,2.185-16.992,3.385-19.451,4.2-38.651,8.928-57.723,14.629l-6.866-9.335c26.983-6.3,54.115-12.314,80.739-20.037C905.254,450.479,905.422,452.75,905.759,457.294Z" fill="#231f20"/></g></g></g><g id="Front_Outline" data-name="Front Outline"><g id="etector"><path d="M529.616,591.338a25.583,25.583,0,0,1-16-5.006c-4.546-3.427-6.851-8.489-6.851-15.045,0-7.8,2.629-12.748,9.7-18.273,3.877-3.035,8.967-4.576,15.13-4.576,6.948,0,11.249,1.671,16.434,6.387,2.938,2.67,4.427,5.719,4.427,9.061a2,2,0,0,1-2,2H513.982l-.058.292-.376,3.411a14.05,14.05,0,0,0,5.164,11.1,18.558,18.558,0,0,0,12.492,4.479c5.067,0,9-1.2,11.684-3.563A22.293,22.293,0,0,0,548.8,573.7a2,2,0,0,1,2.239-1.22l1.39.271a2,2,0,0,1,1.534,2.537,19.5,19.5,0,0,1-6.058,9.053,27.144,27.144,0,0,1-8.664,5.515A29.14,29.14,0,0,1,529.616,591.338Zm13.477-30.806a18.988,18.988,0,0,0-2.058-1.976c-.038-.032-.075-.066-.111-.1-2.182-2.137-5.854-3.22-10.911-3.22-4.518,0-8.023,1.114-10.716,3.4a27.579,27.579,0,0,0-2.209,1.891Z" fill="#fff"/><path d="M531.6,550.438c6.055,0,10.026,1.263,15.088,5.867,2.483,2.257,3.773,4.783,3.773,7.581H512.342l-.4,1.986-.4,3.61a16.114,16.114,0,0,0,5.857,12.726,20.513,20.513,0,0,0,13.8,4.964c5.56,0,9.928-1.354,13-4.062a24.2,24.2,0,0,0,6.453-8.664l1.39.271a17.425,17.425,0,0,1-5.46,8.123,25.145,25.145,0,0,1-8.041,5.144,27.018,27.018,0,0,1-8.935,1.354,23.73,23.73,0,0,1-14.792-4.6c-4.07-3.068-6.055-7.582-6.055-13.448,0-6.589,1.885-11.191,8.934-16.7,3.573-2.8,8.239-4.152,13.9-4.152m-18.267,12.094h32.959c0-1.353-1.291-3.249-3.971-5.506-2.581-2.526-6.651-3.79-12.31-3.79-4.964,0-8.935,1.264-12.012,3.881-2.78,2.166-4.368,3.971-4.666,5.415M531.6,546.438c-6.62,0-12.126,1.683-16.365,5-7.532,5.884-10.468,11.449-10.468,19.847,0,7.218,2.573,12.817,7.647,16.642a27.877,27.877,0,0,0,17.2,5.409,31.115,31.115,0,0,0,10.255-1.578l.07-.025a29.15,29.15,0,0,0,9.315-5.912,21.444,21.444,0,0,0,6.627-9.957,4,4,0,0,0-3.067-5.076l-1.39-.27a4,4,0,0,0-4.478,2.441,20.36,20.36,0,0,1-5.4,7.166c-2.311,2.021-5.789,3.045-10.34,3.045a16.611,16.611,0,0,1-11.186-3.993,12.146,12.146,0,0,1-4.469-9.489l.2-1.8h34.715a4,4,0,0,0,4-4c0-3.929-1.71-7.475-5.082-10.541-5.536-5.035-10.355-6.907-17.779-6.907Zm-8.438,12.094a16.316,16.316,0,0,1,6.849-1.3,18.03,18.03,0,0,1,7.508,1.3Z" fill="#fff"/><path d="M571.312,591.519c-8.574,0-14.113-5.994-14.113-15.268V554.694h-1.771a2,2,0,0,1-2-2v-1.173a2,2,0,0,1,2-2H557.2v-15.78a2,2,0,0,1,.582-1.411l3.773-3.791a2,2,0,0,1,3.418,1.411v19.571h6.934a2,2,0,0,1,2,2v1.173a2,2,0,0,1-2,2h-6.934v24.355c0,3.532,1.956,7.333,6.248,7.386a5.81,5.81,0,0,0,4.592-2.373,1.326,1.326,0,0,1,.082-.111c1.808-2.3,2.936-3.364,4.023-3.787a1.983,1.983,0,0,1,.726-.137,3.985,3.985,0,0,1,3.156,1.649,2.693,2.693,0,0,1,.281,2.558,11.669,11.669,0,0,1-4.281,5.212,1.7,1.7,0,0,1-.146.092A15.514,15.514,0,0,1,571.312,591.519Z" fill="#fff"/><path d="M562.972,529.95v21.571h8.934v1.173h-8.934v26.355c0,4.784,2.879,9.387,8.34,9.387,2.878-.271,4.864-1.354,6.154-3.249,1.489-1.9,2.482-2.889,3.177-3.16.794,0,1.886.723,1.588,1.445a9.665,9.665,0,0,1-3.574,4.332,13.445,13.445,0,0,1-7.345,1.715c-8.042,0-12.113-5.686-12.113-13.268V552.694h-3.771v-1.173H559.2v-17.78l3.773-3.791m0-4a4,4,0,0,0-2.837,1.179l-3.772,3.791a4,4,0,0,0-1.165,2.821v13.787a4,4,0,0,0-3.771,3.993v1.173a4,4,0,0,0,3.771,3.994v19.563c0,10.49,6.325,17.268,16.113,17.268a17.563,17.563,0,0,0,9.337-2.247c.1-.057.2-.118.291-.184a13.635,13.635,0,0,0,5-6.113,4.712,4.712,0,0,0-.477-4.411,5.926,5.926,0,0,0-4.818-2.537,4.012,4.012,0,0,0-1.453.273c-1.471.574-2.791,1.77-4.87,4.415-.056.072-.11.146-.161.221-.422.621-1.114,1.279-3.025,1.5-4.044-.134-4.162-4.841-4.162-5.384V556.694h4.934a4,4,0,0,0,4-4v-1.173a4,4,0,0,0-4-4h-4.934V529.95a4,4,0,0,0-4-4Z" fill="#fff"/></g></g><g id="Front_Text" data-name="Front Text"><path d="M517.7,554.59c3.573-2.8,8.239-4.152,13.9-4.152,6.055,0,10.026,1.263,15.088,5.867,2.483,2.257,3.773,4.783,3.773,7.581H512.342l-.4,1.986-.4,3.61a16.114,16.114,0,0,0,5.857,12.726,20.513,20.513,0,0,0,13.8,4.964c5.56,0,9.928-1.354,13-4.062a24.2,24.2,0,0,0,6.453-8.664l1.39.271a17.425,17.425,0,0,1-5.46,8.123,25.145,25.145,0,0,1-8.041,5.144,27.018,27.018,0,0,1-8.935,1.354,23.73,23.73,0,0,1-14.792-4.6c-4.07-3.068-6.055-7.582-6.055-13.448C508.769,564.7,510.654,560.1,517.7,554.59Zm.3,2.527c-2.78,2.166-4.368,3.971-4.666,5.415h32.959c0-1.353-1.291-3.249-3.971-5.506-2.581-2.526-6.651-3.79-12.31-3.79C525.049,553.236,521.078,554.5,518,557.117Z" fill="#231f20"/><path d="M562.972,551.521h8.934v1.173h-8.934v26.355c0,4.784,2.879,9.387,8.34,9.387,2.878-.271,4.864-1.354,6.154-3.249,1.489-1.9,2.482-2.889,3.177-3.16.794,0,1.886.723,1.588,1.445a9.665,9.665,0,0,1-3.574,4.332,13.445,13.445,0,0,1-7.345,1.715c-8.042,0-12.113-5.686-12.113-13.268V552.694h-3.771v-1.173H559.2v-17.78l3.773-3.791Z" fill="#231f20"/><path d="M593.449,554.59c3.573-2.8,8.239-4.152,13.9-4.152,6.055,0,10.026,1.263,15.089,5.867,2.482,2.257,3.772,4.783,3.772,7.581H588.088l-.4,1.986-.4,3.61a16.114,16.114,0,0,0,5.857,12.726,20.513,20.513,0,0,0,13.8,4.964c5.56,0,9.928-1.354,13-4.062a24.2,24.2,0,0,0,6.453-8.664l1.39.271a17.425,17.425,0,0,1-5.46,8.123,25.134,25.134,0,0,1-8.041,5.144,27.018,27.018,0,0,1-8.935,1.354,23.73,23.73,0,0,1-14.792-4.6c-4.07-3.068-6.055-7.582-6.055-13.448C584.515,564.7,586.4,560.1,593.449,554.59Zm.3,2.527c-2.78,2.166-4.368,3.971-4.666,5.415H622.04c0-1.353-1.291-3.249-3.971-5.506-2.581-2.526-6.651-3.79-12.31-3.79C600.795,553.236,596.824,554.5,593.747,557.117Z" fill="#231f20"/><path d="M665.621,567.857H664.43V557.478q0-1.489-2.383-2.978a16.933,16.933,0,0,0-4.368-1.986,13.32,13.32,0,0,0-4.367-.632c-4.468,0-8.141,1.264-10.822,3.7a22.912,22.912,0,0,0-5.46,6.679,17.089,17.089,0,0,0-1.389,6.859c0,5.234,1.29,9.115,3.97,11.643a25.5,25.5,0,0,0,7.347,5.144,20.339,20.339,0,0,0,7.147,1.264c4.467,0,8.737-1.354,13.9-6.047l1.191.9a31.315,31.315,0,0,1-6.949,5.145,22.925,22.925,0,0,1-10.126,2.166c-10.92,0-19.656-7.491-19.656-18.232,0-6.588,2.383-11.642,7.048-15.252a24.185,24.185,0,0,1,14.99-5.416,22.293,22.293,0,0,1,5.759.631,27.849,27.849,0,0,1,4.169.993v-3.7h1.191Z" fill="#231f20"/><path d="M680.61,551.521h8.935v1.173H680.61v26.355c0,4.784,2.879,9.387,8.34,9.387,2.879-.271,4.864-1.354,6.154-3.249,1.49-1.9,2.483-2.889,3.177-3.16.794,0,1.887.723,1.589,1.445A9.671,9.671,0,0,1,696.3,587.8a13.447,13.447,0,0,1-7.346,1.715c-8.042,0-12.112-5.686-12.112-13.268V552.694h-3.772v-1.173h3.772v-17.78l3.772-3.791Z" fill="#231f20"/><path d="M706.62,558.741a27.128,27.128,0,0,1,8.836-6.5,26.359,26.359,0,0,1,9.927-1.805c6.751,0,11.813,1.535,17.075,6.86,2.681,2.617,3.971,6.408,3.971,11.372,0,5.957-1.688,10.379-5.063,13.357a31.08,31.08,0,0,1-9.232,5.868,27.514,27.514,0,0,1-9.332,1.443c-6.452,0-10.821-1.443-16.48-6.588q-4.168-3.927-4.169-11.373C702.153,566.143,703.643,561.9,706.62,558.741Zm6.651,25.363a19.633,19.633,0,0,0,11.715,3.339c4.567,0,8.24-1.084,11.02-3.159a18.076,18.076,0,0,0,5.658-6.318,14.863,14.863,0,0,0,1.588-7.04,17.375,17.375,0,0,0-5.559-13.268,19.625,19.625,0,0,0-13.9-5.144,19.125,19.125,0,0,0-13.1,4.784,15.046,15.046,0,0,0-5.36,11.823C705.33,575.349,707.018,579.5,713.271,584.1Z" fill="#231f20"/><path d="M751.294,588.616v-1.353h4.368V556.124l-3.971,4.062-.993-.722,9.531-9.929.993.9-1.787,1.895v3.61a24.012,24.012,0,0,1,3.97-3.61,9.65,9.65,0,0,1,6.156-1.895,22.3,22.3,0,0,1,6.751,1.263v-3.339H777.5v14.983h-1.191v-4.423c0-2.888-3.079-6.408-7.744-6.408a8.978,8.978,0,0,0-5.957,2.346,7.879,7.879,0,0,0-3.176,5.326v24.1c0,2.8.7,2.979,4.765,2.979v1.353Z" fill="#231f20"/></g></svg>
