<svg xmlns="http://www.w3.org/2000/svg" width="710" height="1000" viewBox="0 0 710 1000"><g id="Artboard"><rect id="Tint" width="710" height="1000" fill="#58595b"/></g><g id="Outline"><g id="東方靈異伝"><path id="東" d="M207.888,778.282a5.014,5.014,0,0,0-1.33-.632,84.35,84.35,0,0,1-19.9-8.6l-.132-.08q-3.9-2.271-8.877-5.765a9.337,9.337,0,0,0,4.891-4.012,4.989,4.989,0,0,0,.553-1.1l5.59-15.722a9.041,9.041,0,0,1,.84-1.594,6.558,6.558,0,0,0-.982-10.665c-.08-.054-.162-.105-.245-.154-1.5-.882-2.77-1.572-3.854-2.11a7,7,0,0,0,1.606-1.686,5.014,5.014,0,0,0,.6-1.233,6.916,6.916,0,0,0-1.919-7.2,5.008,5.008,0,0,0-1.96-1.21,41.61,41.61,0,0,0-8.4-1.981,4.938,4.938,0,0,0-.557-.031,6.493,6.493,0,0,0-5.171,2.359l-.148.033a11.332,11.332,0,0,0-.125-5.281,5,5,0,0,0-1.466-2.209c-2.592-2.258-6.124-3.783-10.8-4.66a5.009,5.009,0,0,0-.923-.086,6,6,0,0,0-5.026,2.536c-1.29,1.863-1.411,4.229-.358,7.034a5.007,5.007,0,0,0,.681,1.242l1.341,1.789q.174,1.311.284,2.589c-6.033.949-10.529,1.518-13.4,1.695a4.984,4.984,0,0,0-1.929.518,5.5,5.5,0,0,0-3.052,4.069,5.659,5.659,0,0,0,1.774,5.015,4.955,4.955,0,0,0,.711.583h-.01a5.92,5.92,0,0,0-5.34,9.333,5.022,5.022,0,0,0,.741.951c.705.708,1.156,1.206,1.441,1.543q2.649,9.62,4.662,16.989a5.074,5.074,0,0,0,.35.916,11.055,11.055,0,0,0,3.806,4.567,77.759,77.759,0,0,1-18.3,14.854,5,5,0,0,0-2.455,3.373,6.067,6.067,0,0,0,1.093,5.268,5.4,5.4,0,0,0,4.2,1.975,6.366,6.366,0,0,0,2.847-.7,119.117,119.117,0,0,0,12.753-7.1,5.259,5.259,0,0,0-.189.8,5.659,5.659,0,0,0,1.772,5.014,4.945,4.945,0,0,0,.742.6c4.072,2.715,6.765,4.617,8,5.653.065.054.131.107.2.158a17.11,17.11,0,0,1,2.312,2.3c1.674,3.16,4.089,3.657,5.442,3.657a5.984,5.984,0,0,0,5.164-3.155,4.964,4.964,0,0,0,.416-.874,88.013,88.013,0,0,0,2.61-8.575,5,5,0,0,0,.132-1.631c-.278-3.306-.515-7.882-.709-13.675q5.088,5.691,11.075,12.9c1.372,1.922,4,4.083,8.909,4.083,3.6,0,9.408-.715,17.742-2.185a5,5,0,0,0,1.367-.452,5.852,5.852,0,0,0,3.556-4.928A5.647,5.647,0,0,0,207.888,778.282Zm-55.919,2.509c-1.241-.2-2.465-.447-3.653-.746a4.98,4.98,0,0,0-.77-.132q2.347-1.7,4.61-3.51C152.1,778.216,152.039,779.653,151.969,780.791Z" fill="#fff"/><path id="方" d="M296.882,726.062a5.06,5.06,0,0,0-.833-.762,25.2,25.2,0,0,0-11.8-4.429,5.07,5.07,0,0,0-.626-.039,5,5,0,0,0-2.248.533,21.69,21.69,0,0,0-3.671,2.482c-5.59.646-10.428,1.261-14.479,1.84q.349-1.628.665-3.3a11.25,11.25,0,0,0-.228-7.193,5,5,0,0,0-1.527-2.062c-3.069-2.451-7.223-3.989-12.348-4.571a8.547,8.547,0,0,0-1.106-.076h0a5.846,5.846,0,0,0-5.242,2.935c-1.162,2.1-.9,4.532.795,7.223a5,5,0,0,0,1.576,1.576c.8.5.843.813.862.962s.041.281.071.42c.424,1.98.925,4.147,1.5,6.478-6.537,1.145-15.169,2.963-25.772,5.43a5.434,5.434,0,0,0-5.2,4.162c-1.023,4.549,3.343,6.637,7.218,8.472a7.85,7.85,0,0,0,3.506.859,7.01,7.01,0,0,0,3.016-.682c5.065-1.369,10.226-2.594,15.416-3.66q-.7,1.6-1.14,2.639a106.325,106.325,0,0,1-14.394,23.767,110.837,110.837,0,0,1-9.351,10.026c-.053.05-.106.1-.158.152a5.4,5.4,0,0,0-1.469,6.1,5.276,5.276,0,0,0,5,3.222,8.556,8.556,0,0,0,1.692-.187,5,5,0,0,0,1.513-.571,65.3,65.3,0,0,0,17.431-14.742,111,111,0,0,0,14.437-20.066q2.229.3,4.476.632c-3.043,10.5-6.164,18.81-9.3,24.775a35.583,35.583,0,0,1-5.963-2.784,4.968,4.968,0,0,0-.928-.412,6.15,6.15,0,0,0-1.92-.318,5.368,5.368,0,0,0-4.271,2.067,5.881,5.881,0,0,0-.917,5.283,5.005,5.005,0,0,0,1.525,2.51,34.025,34.025,0,0,1,8.223,10.556c1.63,4.065,4.668,4.51,5.915,4.51a6.632,6.632,0,0,0,5.335-2.94,53.593,53.593,0,0,0,9.879-16.676,159.944,159.944,0,0,0,8.659-24.179c.016-.058.032-.117.047-.175.023-.094.048-.184.075-.269a6.976,6.976,0,0,0,2.573-4.115,6.789,6.789,0,0,0-1.478-5.549,5.254,5.254,0,0,0-.385-.432,50.113,50.113,0,0,0-4.741-4.32,5,5,0,0,0-3.008-1.006c-2.244,0-4.805-.077-7.657-.23,0-.1,0-.2-.006-.3,5.47-.555,12.05-.913,19.668-1.067a39.681,39.681,0,0,0,6.4-.42c.129-.022.257-.049.384-.08,3.307-.827,5.38-2.507,6.161-4.992C299.151,731.731,299.472,729.034,296.882,726.062Z" fill="#fff"/><path id="靈" d="M394.378,723.932c-3.439-4.315-6.562-6.518-9.812-6.928a5.022,5.022,0,0,0-.626-.039,21.027,21.027,0,0,0-4.762.774q-3.751.442-7.36.863c.027-.092.052-.186.075-.281.447-1.828.271-4.576-3.1-7.286a5.02,5.02,0,0,0-1.282-.747,20.78,20.78,0,0,0-7.715-1.478h0c-.647,0-1.307.03-1.962.089a5,5,0,0,0-3.094,1.448h0a7.721,7.721,0,0,1-.9.637,159.069,159.069,0,0,1-16.546,3.2c-4.715.489-5.673,3.5-5.865,4.786a5.323,5.323,0,0,0,2.011,5.049q-1.572.183-3.131.356a4.914,4.914,0,0,0-.77.148,4.944,4.944,0,0,0-.7-.733,7.345,7.345,0,0,0-4.716-2.047,5.361,5.361,0,0,0-4.207,2.012,6.752,6.752,0,0,0-1.006,5.8,8.931,8.931,0,0,1-1.931,2.742,5,5,0,0,0-1.057,1.8,16.894,16.894,0,0,0-.08,9.929,5.01,5.01,0,0,0,.346.908A6.905,6.905,0,0,0,322.1,749.1a5.873,5.873,0,0,0-.294.521,5.026,5.026,0,0,0-.37,1.007,6.822,6.822,0,0,0,2.474,7.11,44.349,44.349,0,0,1,2.658,5.46c.014.035.028.07.043.1a8.577,8.577,0,0,0,1.95,2.9,5.338,5.338,0,0,0,2.1,4.339,8.309,8.309,0,0,0,.231,1.37A78.126,78.126,0,0,1,322.4,782.06a5.014,5.014,0,0,0-.928,1.281,6.538,6.538,0,0,0-.733,2.593,5.221,5.221,0,0,0-2.352,2.86c-.366,1.1-.862,3.911,2.375,6.378a9.735,9.735,0,0,0,5.876,2.455h1.055a4.976,4.976,0,0,0,1.262-.162,118.878,118.878,0,0,1,17.2-3.031c9.194-.9,15.943-1.363,20.022-1.377q8.989.688,13.512,1.039c.129.01.258.015.386.015a5,5,0,0,0,1.929-.387c1.3-.542,5.248-2.194,5.7-6.17a6.426,6.426,0,0,0-2.96-6.026q-.183-.13-.376-.244a4.935,4.935,0,0,0-.024-.815c-.414-3.7-2.858-6.954-7.264-9.675a5.078,5.078,0,0,0-.659-.342l-.173-.073a7.1,7.1,0,0,0-.3-2.886,6.31,6.31,0,0,0,2.5-3.032,6.222,6.222,0,0,0,.356-3.075,7.718,7.718,0,0,0,4.337-4.139c.04-.08.078-.161.113-.243l2.86-6.578a5.963,5.963,0,0,0,2.6-5.077c-.154-4.284-4.557-6.157-7.3-7.112,3.379-1.417,4.993-2,5.756-2.245a23.7,23.7,0,0,1,3.454-.238,5.021,5.021,0,0,0,1.209-.148,6.45,6.45,0,0,0,4.978-4.477C397.473,728.732,396.656,726.311,394.378,723.932Zm-65.592,21.542a5.06,5.06,0,0,0,.564-.882c.034-.068.067-.136.1-.205a5.015,5.015,0,0,0,.8,1.252q.328.376.673.736c-.669.067-1.377.107-2.12.117q-.417-.063-.808-.09C328.345,746.027,328.61,745.7,328.786,745.474Z" fill="#fff"/><path id="異" d="M488.259,760.737c-4.328-2.161-6.685-2.984-8.346-3.242a6.316,6.316,0,0,0,1.612-4.242,7.183,7.183,0,0,0-3.994-6.491c-3.325-1.924-5.849-2.886-8.048-3.053a5.7,5.7,0,0,0-.928-.075,6.021,6.021,0,0,0-1.575.214c.084-.11.168-.224.252-.341.965-1.35,2.722-4.487,7.8-16.837,1.756-2.957,3.138-5.846,1.769-8.654a5.189,5.189,0,0,0-.335-.584c-3.039-4.554-6.229-7.283-9.752-8.342a5.009,5.009,0,0,0-2.812-.019l-2.18.623-31.159,5.081-4.384-.877c-.057-.012-.115-.022-.172-.031a8.734,8.734,0,0,0-1.429-.123,5.886,5.886,0,0,0-5,2.52,6.008,6.008,0,0,0-.424,5.813,5.012,5.012,0,0,0,1.1,1.666l.833.832,5.272,18.779a5,5,0,0,0,.342.885,11.141,11.141,0,0,0,1.76,2.555,7.521,7.521,0,0,0,1.341,4.453c-2.838.548-6.33,1.2-10.449,1.949a5.367,5.367,0,0,0-4.869,3.607c-.369,1.107-.869,3.948,2.441,6.428a4.989,4.989,0,0,0,1.028.594l2.461,1.055a5,5,0,0,0,1.97.4,4.944,4.944,0,0,0,.922-.086c2.358-.442,5.112-.934,8.334-1.489l.014.431L407.874,768a5.011,5.011,0,0,0-1.988.786,5.64,5.64,0,0,0-2.605,4.875c.04,1.488.684,3.621,3.532,5.324.107.064.218.124.33.18l3.515,1.758a5,5,0,0,0,3.294.415q6.425-1.391,11.9-2.453A77.636,77.636,0,0,1,415,788.145a4.963,4.963,0,0,0-.708.586c-2.652,2.638-2.451,5.026-1.816,6.564a5.26,5.26,0,0,0,4.983,3.235,8.817,8.817,0,0,0,2.429-.39c.141-.04.28-.087.417-.139,5.153-1.967,12.384-5.792,22.1-11.687,1.5-.507,4.227-1.715,5.153-4.665a6.238,6.238,0,0,0-1-5.571c-.078-.122-.155-.243-.233-.362q2.036-.192,3.875-.345a8.025,8.025,0,0,0,.958,2.253,5,5,0,0,0,.832,1.04c5.057,4.831,10.235,9.891,15.389,15.04a7.878,7.878,0,0,0,5.643,2.517c1.378,0,5.936-.549,6.727-7.608a5.166,5.166,0,0,0,.031-.556c0-4.97-1.433-8.366-4.261-10.108a29.635,29.635,0,0,0-5.557-3.222c3.988.088,8.11.328,12.3.717a18.4,18.4,0,0,0,2.675.212c5.094,0,7.217-2.723,8.029-4.345C494.465,768.279,494.146,763.692,488.259,760.737Zm-24.2-.373.1-.53q2.85-.1,5.847-.144C468.573,759.889,466.646,760.115,464.059,760.364Zm-14.578-12.472q-1.748.244-3.169.438a8.069,8.069,0,0,0-.627-1.04l3.17-.5A9.463,9.463,0,0,0,449.481,747.892Zm-.659,13.315-.077.8-2.023.184v-.736Q447.781,761.323,448.822,761.207Z" fill="#fff"/><path id="伝" d="M583.079,739.464a5.027,5.027,0,0,0-1.179-.683c-4.579-1.873-7.987-2.745-10.726-2.745h0a9.843,9.843,0,0,0-3.47.583,5,5,0,0,0-1.367.776l-.73.585c-13.007,2.1-26.353,4.325-39.738,6.614a11.546,11.546,0,0,0-1.148-3.761c-.069-.14-.145-.275-.227-.407,2.013-3.082,3.915-6.182,5.687-9.272,1.367,1.68,3.715,2.772,5.882,3.781a5.006,5.006,0,0,0,2.81.418c1.689-.239,3.967-.6,6.772-1.068,5.93-.909,11.944-1.6,17.874-2.062a5,5,0,0,0,2.263-.744c3.058-1.91,3.832-4.217,3.942-5.816a6.8,6.8,0,0,0-2.681-5.776,4.91,4.91,0,0,0-.816-.555,18.766,18.766,0,0,0-9.03-2.416h0c-.511,0-1.029.023-1.54.069a5,5,0,0,0-3.09,1.444c-.114.114-.414.4-1.09.962-5.279.977-10.788,1.979-16.765,3.047a8.634,8.634,0,0,0-2.725-5.292,17.641,17.641,0,0,0-8.993-5.272,6.553,6.553,0,0,0-1.848-.269h0a6.472,6.472,0,0,0-5.419,3.024,5.16,5.16,0,0,0-.307.529,6.538,6.538,0,0,0,.547,6.588,199.793,199.793,0,0,1-9.544,19.162A120.231,120.231,0,0,1,496.345,755.7a5.008,5.008,0,0,0-.779,1.313,5.782,5.782,0,0,0,.346,5.662,5.262,5.262,0,0,0,4.372,2.3,6.9,6.9,0,0,0,3.542-1.106,4.947,4.947,0,0,0,.768-.565q2.991-2.678,6.266-5.979c-.27,9.516-.87,16.457-1.793,20.711-.463,1.614-.82,2.924-1.06,3.9a5.013,5.013,0,0,0-.122,1.687,21.228,21.228,0,0,0,1.82,7.189,15.822,15.822,0,0,0,3.486,5,4.855,4.855,0,0,0,.531.462,6.728,6.728,0,0,0,4.057,1.4,7.13,7.13,0,0,0,5.66-2.967c1.692-2.129,2.507-5.1,2.507-9.107v-3.664a25.377,25.377,0,0,0,4.244,3.3,8.656,8.656,0,0,0,4.819,1.5,7.528,7.528,0,0,0,4.763-1.632c5.087-1.515,13.637-3.9,25.479-7.112.916,1.333,1.747,2.559,2.511,3.705.028.042.057.085.087.127a33.671,33.671,0,0,0,3.35,4.15,4.992,4.992,0,0,0,.746.614,6.72,6.72,0,0,0,7.415.175,7.8,7.8,0,0,0,3.889-7.137,5,5,0,0,0-.039-.624,26.238,26.238,0,0,0-5.6-13.008l-.034-.043c-1.033-1.286-3-3.068-14.514-9.346a4.966,4.966,0,0,0-.837-.362,6.336,6.336,0,0,0-2-.335,5.675,5.675,0,0,0-.927.076,6.554,6.554,0,0,0,.274-2.59c7.344-.5,14.189-.759,20.427-.759a5,5,0,0,0,2.425-.628c3.184-1.765,4.007-4.133,4.138-5.809C586.7,744.467,586.207,741.9,583.079,739.464Zm-33.231,28.108q2.6-2.818,5.072-5.64a6.732,6.732,0,0,0,.309,1.351,5.012,5.012,0,0,0,.773,1.452q.68.885,1.319,1.744Q553.78,767.025,549.848,767.572Zm-23.9-9.654a9.062,9.062,0,0,0,2.383.335,4.991,4.991,0,0,0,1.156-.136c2.9-.69,6.192-1.39,9.824-2.093-2.352,4.21-5.118,8.681-8.273,13.368a6.524,6.524,0,0,0-2.982-.749,5.681,5.681,0,0,0-2.108.406Z" fill="#fff"/></g></g><g id="Text"><path d="M163.615,713.176c.231.7.115,2.23-.351,4.57,0,.7-.121,2.461-.352,5.274q2.809-.346,7.383-1.407a5.483,5.483,0,0,0,2.109-1.406,1.417,1.417,0,0,1,1.406-.7,37.051,37.051,0,0,1,7.383,1.758,2.012,2.012,0,0,1,.7,2.109c-.473.7-1.527,1.176-3.164,1.406q-7.383.709-16.171,1.758v8.086l13.007-2.109,2.812-1.407q1.4-.346,7.383,3.165,2.109,1.407,0,3.164a13.739,13.739,0,0,0-1.758,3.163l-5.625,15.82q-1.409,2.109-2.812,2.109a3.838,3.838,0,0,1-2.461-1.406,6.757,6.757,0,0,0-2.109-.351,83.644,83.644,0,0,0-8.437,1.054v.352a200.835,200.835,0,0,0,21.444,15.116,88.9,88.9,0,0,0,21.093,9.141c.7.472.583.939-.351,1.406q-11.957,2.109-16.874,2.109-3.519,0-4.922-2.109-11.957-14.412-20.39-22.851.346,18.638,1.054,27.07a82.736,82.736,0,0,1-2.461,8.086q-1.055,1.754-2.109-.7a24.494,24.494,0,0,0-3.515-3.515q-2.109-1.764-8.438-5.977-.708-.7,0-1.054a46.884,46.884,0,0,0,5.625,1.054q2.809.7,3.867-1.054.7-4.219.7-19.687A113.081,113.081,0,0,1,127.054,786.3q-1.409.7-1.055-1.055,14.41-8.084,28.125-26.015l-6.329.7-1.406,2.109q-2.109.708-3.867-2.813Q140.413,751.5,137.6,741.3a21.306,21.306,0,0,0-2.461-2.813q-1.054-1.755,1.054-1.757a32.035,32.035,0,0,1,6.328,1.406l14.765-2.46V727.59q-7.037,1.054-13.359,2.461l-4.921-2.461q-.71-.7,0-1.055,5.619-.345,18.28-2.461a58.074,58.074,0,0,0-.7-8.789l-2.109-2.812c-.7-1.873-.473-2.813.7-2.813Q160.8,710.715,163.615,713.176ZM143.225,740.6l4.219,16.875,9.843-1.758v-8.086q-3.872.709-6.328,1.055l-3.867-1.407a.438.438,0,0,1,0-.7q5.274-.7,10.195-1.758v-6.679Zm19.336,3.164a12.759,12.759,0,0,0,3.867-1.055c.467-.23.933-.467,1.406-.7a7.542,7.542,0,0,1,4.57,1.758c.7.939.582,1.642-.351,2.109l-9.492,1.055v7.734L171,753.253a9.288,9.288,0,0,1,2.812.351l3.516-15.82c.231-1.637-.237-2.46-1.407-2.46l-13.358,2.11Z" fill="#231f20" stroke="#231f20" stroke-linecap="round" stroke-linejoin="round" stroke-width="2"/><path d="M259.013,717.043a6.487,6.487,0,0,1,0,4.219q-1.054,5.628-2.461,10.547,7.729-1.4,23.2-3.164a21.47,21.47,0,0,1,3.868-2.813,20.173,20.173,0,0,1,9.492,3.516q2.455,2.817-1.758,3.867a35.568,35.568,0,0,1-5.625.351q-17.585.354-27.772,2.11,2.811,2.817,3.163,4.218a11.276,11.276,0,0,1-2.108,4.57q8.784.709,14.764.7A47.076,47.076,0,0,1,278,749.034q1.4,1.764-1.055,3.164a7.685,7.685,0,0,0-1.055,2.461,153.45,153.45,0,0,1-8.437,23.554q-3.87,9.846-9.139,15.469-1.764,2.454-2.812-.352a38.7,38.7,0,0,0-9.493-12.305q-.354-1.4.7-1.054a36.462,36.462,0,0,0,9.141,3.867c.934.473,1.873,0,2.813-1.406q5.973-10.548,11.6-30.937c.231-1.17,0-1.873-.7-2.109q-6.328-1.054-12.3-1.758a108.55,108.55,0,0,1-15.468,22.147,60.05,60.05,0,0,1-16.172,13.711c-1.176.237-1.407,0-.7-.7a115.47,115.47,0,0,0,9.843-10.547,110.863,110.863,0,0,0,15.118-24.96q1.055-2.454,3.515-8.086c.231-1.636,0-2.576-.7-2.811q-11.957,2.107-23.555,5.272a2.3,2.3,0,0,1-2.461,0q-6.681-3.163-3.515-3.164,21.093-4.918,31.289-6.327-1.764-6.673-2.813-11.6a6.226,6.226,0,0,0-3.164-4.571q-1.763-2.81.7-2.461Q255.5,714.237,259.013,717.043Z" fill="#231f20" stroke="#231f20" stroke-linecap="round" stroke-linejoin="round" stroke-width="2"/><path d="M365.659,714.934q3.51,2.817-1.758,3.867-4.572.354-9.14.7a6.035,6.035,0,0,1,1.054,2.812v3.164q12.3-1.4,24.258-2.812a19.491,19.491,0,0,1,3.867-.7q2.81.354,6.679,5.273,2.809,2.818,0,3.516a28.19,28.19,0,0,0-4.569.351q-2.465.708-10.547,4.219c-1.176.236-1.406-.116-.7-1.054a72.1,72.1,0,0,0,6.679-7.735c0-.933-.472-1.285-1.406-1.055q-12.655,1.41-24.96,3.165V745.87a10.649,10.649,0,0,1,3.866-1.055q4.566,2.464,3.868,3.516-2.464,5.628-3.868,8.789-1.407,2.818-2.812,1.055a7.569,7.569,0,0,0-3.867.351q-.708,2.465-3.164,0a15.9,15.9,0,0,1-2.812-6.328l-1.055-1.758a3.37,3.37,0,0,1-1.055,2.461q-1.409,4.929-1.757,6.328-.355,2.464-3.165,1.407c-1.175.236-2.46.472-3.867.7l-1.054,1.406q-2.111,1.054-3.164-1.406a49.747,49.747,0,0,0-3.516-7.031q-1.762-1.056-1.406-2.461c.231-.467.934-.582,2.109-.352a27.684,27.684,0,0,0,4.57-.351,30.145,30.145,0,0,0,7.383-2.813,3,3,0,0,1,2.813,0,2.363,2.363,0,0,0,1.757.7c.231-.7.934-.933,2.11-.7a12.722,12.722,0,0,0,3.867-1.055q0-9.136-.352-17.928-13.71,2.109-21.093,3.164a9.083,9.083,0,0,1-2.813-.352q0,6.681-1.758,10.194c-.938,1.176-1.756,1.758-2.46,1.758s-1.291-.466-1.757-1.406a11.952,11.952,0,0,1,0-7.03q3.864-4.22,3.163-7.031-.708-3.165,1.758-1.055a8.958,8.958,0,0,1,1.054,2.109,9.014,9.014,0,0,0,4.219-.351q9.492-1.054,19.336-2.461v-4.219a4.966,4.966,0,0,0-.352-2.109q-3.163.354-7.382,1.054a6.006,6.006,0,0,1-2.461.352q-5.983-2.456-2.11-2.813a161.485,161.485,0,0,0,17.929-3.515,13.5,13.5,0,0,0,2.461-1.758A15.855,15.855,0,0,1,365.659,714.934Zm7.735,46.053q1.4,2.111-1.407,2.813a135.169,135.169,0,0,0-15.468,1.406q-.354,11.6-1.056,20.39,9.84-1.054,16.173-1.758a7.889,7.889,0,0,1,2.461-1.055,19.639,19.639,0,0,1,7.734,2.813q2.456,1.755-1.758,3.515-4.573-.354-13.711-1.054-6.327,0-20.741,1.406a123.177,123.177,0,0,0-17.93,3.164h-1.055a5.187,5.187,0,0,1-2.812-1.406q-1.409-1.054,0-1.055a238.146,238.146,0,0,1,27.422-4.219v-18.28q.345-1.757-1.055-1.406-6.329,1.407-11.25,2.109c-1.406-.231-2.582-.468-3.516-.7q-3.518-1.757-.351-1.758,18.274-3.511,30.585-5.976a3.367,3.367,0,0,1,2.461-1.055A15.7,15.7,0,0,1,373.394,760.987Zm-31.289,13.359a42.587,42.587,0,0,1-3.516,3.164,16.041,16.041,0,0,0,4.219.351,2.268,2.268,0,0,1,2.461,1.055q2.456,2.818,2.109,4.922-.354,1.409-2.812.7a22.841,22.841,0,0,1-7.031-5.625l-1.055.7a75.271,75.271,0,0,1-9.492,6.68c-1.175.467-1.527.23-1.055-.7a83.624,83.624,0,0,0,9.844-11.953,5.734,5.734,0,0,0,0-2.813q-.709-2.456,2.109-1.405Q343.16,771.188,342.105,774.346Zm-8.438-21.093a.982.982,0,0,0-.7,1.406l1.758,4.219h.7l3.516-1.406L340,752.55a1.382,1.382,0,0,0-1.407-1.055Zm10.547-7.031q-1.409,1.409-4.218.351a15.319,15.319,0,0,1-5.977-4.219q-.71-1.754,1.055-1.054a35.573,35.573,0,0,0,5.976.7Q344.215,742.357,344.214,746.222Zm-3.164-12.3a5.15,5.15,0,0,1,3.164,1.055,3.455,3.455,0,0,1,1.758,3.163q-.354,1.055-2.109,1.054-4.928-1.055-7.031-3.163-3.165-2.109-.352-2.109A14.878,14.878,0,0,0,341.05,733.918Zm10.2,21.8.7.7,4.218-1.055q.7-4.565,1.055-7.383a2.063,2.063,0,0,0-1.407-.351l-5.624,1.758Q350.892,752.9,351.246,755.714Zm19.687,14.765q-.71,1.054-2.11,2.812a32.229,32.229,0,0,1,5.625,1.758q4.565,2.819,4.922,5.976a1.627,1.627,0,0,1-1.758,1.055,4.176,4.176,0,0,1-3.515-1.055,83.737,83.737,0,0,1-6.328-7.031,53.379,53.379,0,0,1-10.547,9.492q-2.111.709-.7-.7,7.381-8.783,9.14-14.413a3.435,3.435,0,0,0-.7-1.758c-.473-1.406.352-1.758,2.461-1.054a19.79,19.79,0,0,1,2.461,1.054C371.284,768.49,371.636,769.775,370.933,770.479Zm-.7-39.725a4.287,4.287,0,0,1,2.461,2.812c0,1.407-1.175,2.11-3.515,2.11a20.394,20.394,0,0,1-8.789-2.813q-2.463-2.109,0-1.758a45.3,45.3,0,0,0,7.383-.7A10.46,10.46,0,0,1,370.229,730.754Zm-2.109,7.733c2.109.473,3.279,1.407,3.516,2.813-.237,1.176-1.291,1.758-3.164,1.758a10.34,10.34,0,0,1-8.438-3.868q-1.763-2.454,1.406-1.406A16.663,16.663,0,0,0,368.12,738.487Zm14.063,8.438-3.516,8.086q-1.408,2.819-3.516,1.054a8.727,8.727,0,0,0-4.218.352c0,.939-.588,1.527-1.758,1.758-1.176-.231-2.11-1.285-2.813-3.164q-1.762-6.328-2.461-8.086-1.409-2.455,2.461-.7,4.92-1.4,10.2-2.813a5.67,5.67,0,0,1,2.461-.7Q386.4,745.171,382.183,746.925Zm-13.711,1.054,1.757,6.68a32.739,32.739,0,0,0,4.922-1.406q1.054-3.864,2.461-7.734a2.056,2.056,0,0,0-1.406-.352l-7.734,2.109Z" fill="#231f20" stroke="#231f20" stroke-linecap="round" stroke-linejoin="round" stroke-width="2"/><path d="M462.111,748.331a3.566,3.566,0,0,0-.7,2.813,19.056,19.056,0,0,0,4.219-.7c1.637-1.406,2.691-1.988,3.164-1.757q2.109,0,6.328,2.461a2.263,2.263,0,0,1,1.406,2.109q0,1.408-2.109,1.406-7.737,0-14.414.352l-2.109,10.9q13.71-1.054,17.226-2.109a5.631,5.631,0,0,1,3.516-1.406q1.755,0,7.382,2.812,3.51,1.762,2.461,3.867t-5.625,1.406a168.648,168.648,0,0,0-21.445-.7q-5.628,0-16.522,1.055T412.9,776.455l-3.516-1.758c-1.176-.7-1.406-1.285-.7-1.758L436.8,768.37l-.352-10.547q-8.437,1.41-14.062,2.461l-2.461-1.055q-1.409-1.055,0-1.054,11.6-2.109,16.523-3.164a21.738,21.738,0,0,0-.351-3.164,4.535,4.535,0,0,0-1.758-2.813c-1.176-1.637-1.176-2.461,0-2.461a9.36,9.36,0,0,1,5.625,2.11q2.109,1.409,2.109,2.812l-.351,2.461q3.164-.345,13.007-1.758a8.221,8.221,0,0,0-1.055-7.031q-1.408-2.109,1.055-2.109Q462.811,745.521,462.111,748.331Zm-23.2,26.366a16.912,16.912,0,0,1,3.516,4.219c.933,1.176.23,2.109-2.11,2.813q-14.42,8.782-21.8,11.6-2.464.7-.7-1.055,7.73-5.272,16.874-15.468.7-.7-.351-2.813c-.236-.933.23-1.285,1.406-1.055A30.431,30.431,0,0,0,438.909,774.7Zm33.4-54.49c.23.473-.352,1.879-1.758,4.219q-5.628,13.71-7.383,16.171c-1.176,1.642-2.461,2.345-3.867,2.109q-1.41-.7-3.164-1.406a15.14,15.14,0,0,0-4.571,0l-13.358,2.109-1.758.7c-.472,1.176-1.054,1.528-1.758,1.055A6.687,6.687,0,0,1,431.175,742l-5.625-20.038-1.758-1.758c-.472-1.17,0-1.637,1.406-1.406l5.274,1.054,32.342-5.273,2.461-.7Q468.785,714.934,472.307,720.207Zm-40.078,2.461,1.758,8.086h2.11l8.437-2.109V723.02a2.528,2.528,0,0,0-1.406-2.461Zm5.977,10.2-3.867-.351,1.055,6.678.7,2.11,8.437-1.406v-8.085Zm3.516,34.8,11.6-1.055,1.055-10.9q-5.981.354-12.655,1.406Zm7.031-47.812,1.406,2.813-.351,4.57a4.421,4.421,0,0,0,2.108-1.054,3.035,3.035,0,0,1,2.109-1.055,11.211,11.211,0,0,1,3.868,1.758q2.109,2.819-1.407,3.164-3.163.354-7.03,1.054l-.352,7.734a40.97,40.97,0,0,1,6.328-1.055,11.667,11.667,0,0,1,3.515.7l4.922-18.632c0-1.169-.473-1.757-1.406-1.757Zm23.905,62.225q2.109,1.054,2.11,5.977-.355,3.164-1.758,3.164a3.043,3.043,0,0,1-2.11-1.055q-7.737-7.728-15.468-15.117c-.7-1.17-.472-1.406.7-.7Q469.845,779.619,472.658,782.08Z" fill="#231f20" stroke="#231f20" stroke-linecap="round" stroke-linejoin="round" stroke-width="2"/><path d="M528.329,720.559a3.874,3.874,0,0,1,1.406,2.461q0,1.409-2.109,2.46-4.219,7.738-9.492,15.468l2.109,2.11a6.28,6.28,0,0,1,.7,2.812V785.6q0,4.218-1.406,5.976t-2.812.7a10.689,10.689,0,0,1-2.461-3.515,16.3,16.3,0,0,1-1.406-5.625q.346-1.4,1.055-3.867,2.107-9.494,2.108-34.8a184.37,184.37,0,0,1-14.764,15.117c-1.176.7-1.528.473-1.055-.7a124.731,124.731,0,0,0,10.547-15.469A199.577,199.577,0,0,0,521.3,721.965a4.691,4.691,0,0,0-1.055-2.813,1.735,1.735,0,0,1-.351-1.757,1.427,1.427,0,0,1,1.757-.7A12.7,12.7,0,0,1,528.329,720.559ZM569.461,741.3q2.809-1.054,10.546,2.109,3.163,2.465,0,4.219-13.01,0-28.827,1.406a21.573,21.573,0,0,1,2.461,3.164q1.755,1.764.351,3.164-8.089,9.492-17.577,18.984,17.575-2.111,29.53-4.219-2.463-3.864-5.976-8.437c-.237-.7,0-.933.7-.7q11.6,6.329,13.008,8.086a21.208,21.208,0,0,1,4.569,10.546,2.84,2.84,0,0,1-1.4,2.813,1.749,1.749,0,0,1-2.11,0,29.536,29.536,0,0,1-2.812-3.516q-2.109-3.163-4.57-6.68-22.149,5.984-30.234,8.438a2.375,2.375,0,0,1-2.109,1.055,3.753,3.753,0,0,1-2.11-.7,18.815,18.815,0,0,1-4.57-3.867,8.6,8.6,0,0,1-1.055-2.109c0-1.406.582-1.758,1.758-1.055a8,8,0,0,0,2.813.7,2.86,2.86,0,0,0,2.109-.7,175.2,175.2,0,0,0,13.358-22.5,3.412,3.412,0,0,0-1.4-1.758q-10.2,1.764-17.578,3.516c-1.176,0-2.812-.7-4.922-2.109q-1.055-.7,0-1.055,22.494-3.864,44.3-7.383ZM556.1,721.965a13.423,13.423,0,0,1,7.734,1.758q2.109,1.763-.7,3.515-9.147.709-18.28,2.11-4.22.707-6.68,1.054-5.274-2.454-3.867-2.812,9.837-1.755,19.335-3.516A32.37,32.37,0,0,0,556.1,721.965Z" fill="#231f20" stroke="#231f20" stroke-linecap="round" stroke-linejoin="round" stroke-width="2"/><g id="平成_年_月_第一版第三刷" data-name="平成９年１２月 第一版第三刷"><path d="M215.38,826.6a4.525,4.525,0,0,1,1.513.279.885.885,0,0,1,.628.861q0,.884-1.117.931a4.733,4.733,0,0,0-2.373.907q-.721.535-1.35.954a1.579,1.579,0,0,1,1.187.675,3.344,3.344,0,0,1,.488,1.838q0,1.024-.023,2.211a11.357,11.357,0,0,0,.838-1.373,6.528,6.528,0,0,0,.931-2.886c0-.248.069-.372.209-.372a2.627,2.627,0,0,1,1.606.606,1.728,1.728,0,0,1,.814,1.326,2.191,2.191,0,0,1-.6,1.373,13.729,13.729,0,0,1-3.537,2.861q2.606-.186,3.258-.185a5.18,5.18,0,0,1,2.14.581q1.536.7,1.536,1.14,0,1.257-1.326,1.257a3.129,3.129,0,0,1-1.4-.535,8.506,8.506,0,0,0-3.816-.885h-.768q-.071,2.42-.233,5.306a16.091,16.091,0,0,1-.884,4.351q-.256.675-.512.675-.139,0-.186-.675-.07-.816-.093-9.494a10.271,10.271,0,0,0-1.117.233,27.761,27.761,0,0,0-4.584,1.931,4.953,4.953,0,0,1-2.118.722,2.491,2.491,0,0,1-1.442-.466c-.218-.171-.326-.3-.326-.372a.227.227,0,0,1,.209-.232,6.373,6.373,0,0,0,2.607-.722,30.437,30.437,0,0,1,4.095-1.652,13.5,13.5,0,0,1,2.676-.745v-3.979a9.529,9.529,0,0,0-.35-2.048q-1.07.7-2,1.188a.083.083,0,0,1-.093-.094,27.372,27.372,0,0,1,3.514-3.048,17.821,17.821,0,0,1-3.77.931,3.309,3.309,0,0,1-1.651-.419,1.451,1.451,0,0,1-.792-1c0-.186.07-.279.209-.279a4,4,0,0,0,1.118.186,10.141,10.141,0,0,0,3.466-.978A8.791,8.791,0,0,1,215.38,826.6Zm-8.307,7.1a4.242,4.242,0,0,1,2.025,1.188.739.739,0,0,0,.419.209q.162,0,.721-1.489c.077,0,.116.062.116.186a5.541,5.541,0,0,1-.977,3.327,1.79,1.79,0,0,1-1.373.862c-.171,0-.334-.2-.489-.582a5.318,5.318,0,0,1-.442-1.885,7.435,7.435,0,0,0-.256-1.629C206.817,833.756,206.9,833.693,207.073,833.693Z" fill="#231f20"/><path d="M229.24,833.392q.721,0,1.513,1.116a3.213,3.213,0,0,1,.7,1.955,14.015,14.015,0,0,1-1.071,4.84q-1.209,3.163-2.256,3.164c-.265,0-.4-.03-.4-.093a21.083,21.083,0,0,0,1.419-4.468,17.489,17.489,0,0,0,.349-3.443,11.98,11.98,0,0,0-.628-2.862C228.868,833.461,228.992,833.392,229.24,833.392Zm11.239-3.258q1.558.046,1.606,1.023,0,.232-.7.722a2.2,2.2,0,0,1-.373.3,8.2,8.2,0,0,0-1.466,1.256,2.471,2.471,0,0,1-.325.349q.651,1.722,1.419,3.42a5.412,5.412,0,0,0,.419-1.954.613.613,0,0,0-.117-.163.4.4,0,0,1-.069-.187c0-.185.178-.279.535-.279a1.365,1.365,0,0,1,.814.233c.264.171.4.333.4.489a8.649,8.649,0,0,1-.954,3.862q1.118,2.048,2.42,4,.93,1.466,1.326,1.466c.047,0,.1-.116.163-.35a21.015,21.015,0,0,0,.163-2.117c.031-.108.054-.163.07-.163.108,0,.233.14.372.419a5.843,5.843,0,0,1,.559,2.559,6.018,6.018,0,0,1-.187,1.723q-.186.512-.465.512a3.2,3.2,0,0,1-1.885-1.141,20.394,20.394,0,0,1-3.374-5.468q-1.4,1.979-2.652,1.978a1.153,1.153,0,0,1-.675-.209c-.125-.078-.187-.14-.187-.187a.728.728,0,0,1,.373-.651q1.14-.442,2.234-2.815l.046-.071q-.815-1.931-1.559-4.072-.79.769-1.535,1.467.815.394.814,1.791a7.489,7.489,0,0,1-.768,3.1,7.206,7.206,0,0,1-2.257,2.675,2.017,2.017,0,0,1-1.07.35q-.327,0-.7-.978a2.377,2.377,0,0,1-.233-.7c0-.093.131-.139.4-.139a1.774,1.774,0,0,0,1.048-.349,4.63,4.63,0,0,0,1.442-1.861,4.467,4.467,0,0,0,.582-1.746c0-.294-.093-.442-.279-.442a3,3,0,0,0-1.071.349q-.279.139-.465.21-.606.51-1.14.93a1.316,1.316,0,0,1-.884.372q-.279,0-.443-.372a1.328,1.328,0,0,1-.3-.861q0-.488,1.117-1.094a28.23,28.23,0,0,0,4.653-3.234,5.694,5.694,0,0,0,.7-.675q-.164-.512-.349-1.023a7.669,7.669,0,0,1-4.352,1.675q-1.443-.069-1.582-1.3,0-.4.209-.4a2.627,2.627,0,0,0,1.117.3,11.24,11.24,0,0,0,4-1.233c.093-.047.178-.085.255-.117q-.511-1.629-1.023-3.4a1,1,0,0,0-.628-.744c-.265-.063-.4-.124-.4-.187q.14-.394.465-.395a2.667,2.667,0,0,1,1.257.348,1.039,1.039,0,0,1,.814.978,13.107,13.107,0,0,0,.489,2.955A8.1,8.1,0,0,1,240.479,830.134Zm-1.931,1.721c.046.14.085.264.116.373a1.032,1.032,0,0,0,.093.186c.094-.155.171-.295.233-.419-.032-.108-.124-.163-.279-.163A.706.706,0,0,0,238.548,831.855Zm3.35-4.77a8.443,8.443,0,0,1,1.164.14,4.791,4.791,0,0,1,1.861.745,1.285,1.285,0,0,1,.582.884q-.022.675-.628.721a1.145,1.145,0,0,1-.931-.535,6.7,6.7,0,0,0-1.838-1.676c-.14-.093-.21-.163-.21-.209Z" fill="#231f20"/><path d="M261.611,838a11.677,11.677,0,0,1-1.071,5.4,4.693,4.693,0,0,1-4.421,2.63,5.408,5.408,0,0,1-3.769-1.28,3.852,3.852,0,0,1-1.443-2.7.843.843,0,0,1,.954-.954,1,1,0,0,1,.838.536q.255.441.511.931a3.084,3.084,0,0,0,2.909,1.558q2.977,0,3.3-5.491a5.686,5.686,0,0,1-3.374,1.7q-5.212,0-5.212-5.072a5.39,5.39,0,0,1,1.3-3.863,6.3,6.3,0,0,1,8.074.139Q261.612,833.253,261.611,838Zm-2.234-1.768a7.639,7.639,0,0,0-.582-3.048,2.872,2.872,0,0,0-2.746-1.28,2.924,2.924,0,0,0-2.4.861,4.183,4.183,0,0,0-.629,2.49q0,3.141,3.025,3.141A3.8,3.8,0,0,0,259.377,836.23Z" fill="#231f20"/><path d="M271.9,826.5q.394,0,1.256.907a2.972,2.972,0,0,1,.792,1.885,3.244,3.244,0,0,1-.535,1.582,3.972,3.972,0,0,0,2.117-.559,3.8,3.8,0,0,1,2.048-.628,1.558,1.558,0,0,1,.884.209,1.173,1.173,0,0,1,.419.909.946.946,0,0,1-.675.86,7.752,7.752,0,0,1-1.28.35,2.963,2.963,0,0,1,.209,1.093v.768h.279q1.024,0,1.024.744,0,.675-1.326,1.048-.022,1.7-.07,3.793a23.53,23.53,0,0,1,3.584-.4,6.841,6.841,0,0,1,2.443.373,1.047,1.047,0,0,1,.652.931q0,.93-.722.931a10.675,10.675,0,0,1-1.512-.3,21.016,21.016,0,0,0-2.536-.14q-1.049,0-1.955.047-.024,1.071-.093,2.21a26.262,26.262,0,0,1-.489,4.166c-.108.434-.21.652-.3.652-.233,0-.381-.218-.443-.652q-.138-.628-.186-6.283-1.443.139-2.722.372a20.456,20.456,0,0,0-4.956,1.955,2.366,2.366,0,0,1-1.28.419,1.239,1.239,0,0,1-.838-.442c-.248-.264-.372-.457-.372-.582,0-.155.131-.233.395-.233a7.5,7.5,0,0,0,2.7-.651,19.334,19.334,0,0,1,3-1.07,7.368,7.368,0,0,0,.279-1.118,6.72,6.72,0,0,0,.117-1.233,2.76,2.76,0,0,0-.722-1.21c0-.061.062-.093.186-.093a2.338,2.338,0,0,1,1.327.489q.629.4.628.814a3.814,3.814,0,0,1-.558,1.745,1.937,1.937,0,0,1-.163.279,7.747,7.747,0,0,1,.768-.185q1.163-.28,2.21-.489-.023-1.722-.023-3.77a12.974,12.974,0,0,1-1.792.187,2.152,2.152,0,0,1-1.07-.3c-.31-.233-.474-.411-.489-.535q0-.21.489-.256a9.631,9.631,0,0,0,2.234-.722,4.321,4.321,0,0,1,.628-.232v-1.024a6.7,6.7,0,0,0-.116-1.048,6.279,6.279,0,0,1-2.211-.464,1,1,0,0,1-.139-.093c-.125.155-.241.3-.35.441A9.887,9.887,0,0,1,268.483,835a.164.164,0,0,1-.186-.186,19.915,19.915,0,0,0,2.816-3.863,6.747,6.747,0,0,0,.907-3.211,2.7,2.7,0,0,0-.209-1.024C271.811,826.573,271.842,826.5,271.9,826.5Z" fill="#231f20"/><path d="M294.6,845.1a.8.8,0,0,1-.349.675,1.18,1.18,0,0,1-.791.279q-1.071,0-1.07-.954V834.741h-2.63a1.307,1.307,0,0,1-.838-.279.8.8,0,0,1-.349-.675q0-.7,1.094-.838a3.123,3.123,0,0,0,2.048-1.6q.93-1.328,1.885-1.326.418,0,.744.6a2.086,2.086,0,0,1,.256,1.024Z" fill="#231f20"/><path d="M309.051,844.677a.844.844,0,0,1-.954.954H300.6a3.353,3.353,0,0,1-1.559-.372,1.287,1.287,0,0,1-.768-1.164,3.728,3.728,0,0,1,1.28-2.536,22.169,22.169,0,0,1,2.979-2.351q1-.72,2.978-2.28a3.571,3.571,0,0,0,1.35-2.49,2.307,2.307,0,0,0-.954-1.978,3.932,3.932,0,0,0-2.141-.558,4.416,4.416,0,0,0-2.536.558,3.542,3.542,0,0,0-1.094,2.187,2.073,2.073,0,0,1-.233.746.7.7,0,0,1-.675.348.945.945,0,0,1-.7-.279.906.906,0,0,1-.257-.628,4.414,4.414,0,0,1,1.583-3.606,6.844,6.844,0,0,1,7.632-.14,3.926,3.926,0,0,1,1.559,3.35q0,2.492-3.932,5.236-1.048.675-2.909,2a5.014,5.014,0,0,0-1.885,2.048H308.1a.9.9,0,0,1,.7.279A.911.911,0,0,1,309.051,844.677Z" fill="#231f20"/><path d="M319.554,829.389q.093,0,.442.395a2.133,2.133,0,0,1,.861,1.373q-.024.652-.047,1.187a1.46,1.46,0,0,1,.14-.162,4.211,4.211,0,0,1,2.4-.932,1.148,1.148,0,0,1,1.233,1.3q0,.418-1.35,1.977a7.044,7.044,0,0,0-1.187,1.653.772.772,0,0,0,.233.6,8.5,8.5,0,0,0,1.373.07c.683.032,1.024.341,1.024.931a1.343,1.343,0,0,1-.489.861,18.817,18.817,0,0,1-2.792,1.954,1.063,1.063,0,0,1-.535.164.165.165,0,0,1-.187-.187,9.911,9.911,0,0,1,1.537-1.395c.34-.28.511-.466.511-.559q0-.256-.372-.3-1.49-.091-1.838-.558a.869.869,0,0,1-.186-.419,24.486,24.486,0,0,1-.954,4.375q-1.164,3.188-2.583,4.141a2.6,2.6,0,0,1-1.14.466c-.14,0-.21-.031-.21-.094a14.413,14.413,0,0,0,2.839-5.467,54.426,54.426,0,0,0,1.186-10.984C319.46,829.521,319.492,829.389,319.554,829.389Zm.977,6.376a8.086,8.086,0,0,1,.838-.908q1.348-1.255,1.349-1.559c0-.294-.132-.442-.4-.442a4.769,4.769,0,0,0-1.583.465Q320.647,834.625,320.531,835.765Zm6.282-8.61q.442,0,1.187,1.234a3.325,3.325,0,0,1,.675,1.489,6.26,6.26,0,0,1-.325.814,10.993,10.993,0,0,0-.373,2.025q-.139,1.907-.14,5.025v7.028a3.783,3.783,0,0,1-.558,2.14,1.166,1.166,0,0,1-.954.652,2.176,2.176,0,0,1-1.629-.884,23.445,23.445,0,0,0-3.4-2.839c0-.062.07-.093.209-.093a17.492,17.492,0,0,0,3.514,1.024q.512,0,.512-.791,0-9.053.139-10.634a11.947,11.947,0,0,0,.21-1.606,3.748,3.748,0,0,0-.372-1.839,1.307,1.307,0,0,0-1.14-.86,8.276,8.276,0,0,0-1.815.325,7.778,7.778,0,0,1-1.35.326c-.3,0-.442-.069-.442-.209q0-.139.605-.605a7.137,7.137,0,0,1,2.048-1.094A9.349,9.349,0,0,1,326.813,827.155Z" fill="#231f20"/><path d="M375.778,832.367q1.093,0,1.093,1.025-.024.6-1.372,1.884a.739.739,0,0,1,.093.372q0,.4-.675.628-.7.188-1.373.35v1.023a18.618,18.618,0,0,1,5.375-.977,6.593,6.593,0,0,1,2.467.349,1.143,1.143,0,0,1,.791,1.024q0,.721-2.117,2.443a6.821,6.821,0,0,1-2.514,1.559,1.41,1.41,0,0,1-1.116-.768c-.265-.279-.4-.48-.4-.6,0-.078.109-.14.325-.187a5.113,5.113,0,0,0,2.467-.814q1.024-.675,1.024-1.257a.434.434,0,0,0-.28-.441,3.223,3.223,0,0,0-1.186-.187,16.883,16.883,0,0,0-4.793.768l-.047.023v6.539a5.24,5.24,0,0,1-.349,2.187q-.279.629-.674.629-.513,0-1.513-2.048v-.093a.56.56,0,0,0,.4.256q.721,0,.722-1.117v-3.979a37.2,37.2,0,0,1-2.815,3.327,3.948,3.948,0,0,1-2.56,1.326c-.249,0-.373-.069-.373-.209a11.992,11.992,0,0,0,2.583-2.4,26.228,26.228,0,0,0,2.909-3.862,17.9,17.9,0,0,0-3.887,2,3.285,3.285,0,0,1-1.511.838c-.389,0-.582-.225-.582-.675a1.654,1.654,0,0,1,.419-.745,5.852,5.852,0,0,0,1.535-3.257q0-.3.954-.35.7.024.745.535a5.378,5.378,0,0,1-1.187,2.118q2.025-.884,3.77-1.512v-1.187l-.256.046a11.507,11.507,0,0,1-1.606.163c-.418,0-.628-.116-.628-.348q0-.186.466-.373,1.162-.4,2-.652a1.391,1.391,0,0,0-.3-.93.333.333,0,0,1-.209-.233,7.779,7.779,0,0,1-1.606.233q-.721-.048-.838-.4c0-.124.209-.232.628-.326A24.147,24.147,0,0,1,375.778,832.367Zm-6.539-5.468a4.306,4.306,0,0,0,.628.465,1.282,1.282,0,0,1,.7,1.094,2.475,2.475,0,0,1-.395,1.117.926.926,0,0,1,.838.744l1.117-.93v.093q-.653,1.326-1.21,2.49-.374.977-1.024.977-.536,0-.536-.861l.815-1.373a11.006,11.006,0,0,1-3.514,1.373q-.675,0-.675-.559c0-.154.187-.372.559-.651q2.49-2.535,2.49-3.677C369.03,827,369.1,826.9,369.239,826.9Zm3.188,7.447a1.281,1.281,0,0,1,.7.372,1.447,1.447,0,0,1,.326.581c.17-.046.318-.085.443-.116l1.21-1.49c0-.061-.063-.092-.187-.092Q373.474,834.066,372.427,834.346Zm2.769-8.657a1.876,1.876,0,0,1,1.024.442,1,1,0,0,1,.489.861,4.813,4.813,0,0,1-.978,1.769,8.508,8.508,0,0,1,2.072-.4c.635,0,.953.195.953.582a1.654,1.654,0,0,1-1.326,1.466q-1.4.675-3.444,1.675v-.069q1.093-.978,1.932-1.792h-1.257q-1.211,0-1.21-.931a2.411,2.411,0,0,1,.768-1.559A3.707,3.707,0,0,0,375.2,825.689Z" fill="#231f20"/><path d="M397.288,837.021a16.832,16.832,0,0,0-3.514.326,11.884,11.884,0,0,0-2.49.7,3.539,3.539,0,0,1-1.605.372,4.019,4.019,0,0,1-1.653-.279q-.791-.326-.791-.837c0-.171.063-.257.187-.257a14.122,14.122,0,0,0,3.606-.535,24.816,24.816,0,0,1,5.492-.837q4.421-.372,5.329-.513a8.073,8.073,0,0,1,1.21-.093,4.639,4.639,0,0,1,2.559.746,2.489,2.489,0,0,1,1.35,1.977.823.823,0,0,1-.931.931,2.946,2.946,0,0,1-1.326-.512,14.041,14.041,0,0,0-3-.791A24.511,24.511,0,0,0,397.288,837.021Z" fill="#231f20"/><path d="M411.944,830.994c.109,0,.311.149.606.443a3.819,3.819,0,0,1,1,1.489,7,7,0,0,1,.163,1.023q.534-.255,1.024-.511a7.572,7.572,0,0,0,1.791-4.677q0-.489.443-.489a2.358,2.358,0,0,1,1.349.349,1.421,1.421,0,0,1,.512,1.163,3.422,3.422,0,0,1-.441,1.4,5.667,5.667,0,0,1-1.072,1.21.63.63,0,0,1,.14-.024q1.211,0,1.21.931,0,.606-1.07,1.723a24.379,24.379,0,0,1-2.071,2.023c.233-.123.5-.256.791-.4a1.353,1.353,0,0,1,.652-.279,1.37,1.37,0,0,1,.838.4.942.942,0,0,1,.488.72V844.1a1.239,1.239,0,0,1-.256.791.641.641,0,0,1-.488.233.691.691,0,0,1-.49-.3.9.9,0,0,1-.185-.535q-.163-4.21-.163-5.119c0-.5-.063-.745-.187-.745a10.858,10.858,0,0,0-2.14.605,3.394,3.394,0,0,1-.628.209,37.487,37.487,0,0,1-.443,4.445,6.3,6.3,0,0,1-.6,1.931.938.938,0,0,1-.675.443q-.442,0-.442-.931a2.786,2.786,0,0,1,.163-1.117,7.313,7.313,0,0,0,.6-2.28,37.67,37.67,0,0,0,.256-4.678,31.8,31.8,0,0,0-.116-3.56,8.057,8.057,0,0,0-.582-1.675,2.346,2.346,0,0,1-.139-.721C411.782,831.025,411.836,830.994,411.944,830.994Zm1.862,6.7a10.422,10.422,0,0,0,1.3-1.722,5.542,5.542,0,0,0,.582-.977q0-.186-.093-.186a1.329,1.329,0,0,1-.768.348,3.963,3.963,0,0,1-1.047-.116q.022.861.023,1.908Zm11.751-7.912q.745,0,.745.443,0,1.094-1.722,1.652-.745.186-1.28.3-.164.7-.535,2.07l.139-.14a3.434,3.434,0,0,1,2.072-1.163q1.7,0,1.768,2.048a12.365,12.365,0,0,1-1.094,4.909,16.056,16.056,0,0,0,3.583,2.141,18.313,18.313,0,0,1,3.049,1.233c.527.265.791.535.791.815q0,.766-1.466.768a6.635,6.635,0,0,1-2.909-.605,7.966,7.966,0,0,1-3.3-2.373q-.28-.281-.513-.559-1.466,2.419-2.885,2.42a3,3,0,0,1-1.35-.232q-.069.3-.116.581a.8.8,0,0,1-.838.582q-.558-.071-.582-.838,2.282-7.586,3.327-11.5a5.675,5.675,0,0,1-.976.116,1.468,1.468,0,0,1-.769-.209c-.216-.14-.333-.248-.348-.326q0-.3.488-.4a8.547,8.547,0,0,0,2.188-1.023A4.292,4.292,0,0,1,425.557,829.784ZM420.74,843.1a8.1,8.1,0,0,0,2.909-3.073q-1-1.046-1.862-1.837Q421.3,840.419,420.74,843.1Zm1.3-6,2.164,1.745a9.924,9.924,0,0,0,.861-3.77c0-.433-.092-.651-.279-.651s-.6.279-1.186.838a2.435,2.435,0,0,1-.931.581.825.825,0,0,1-.3-.046Q422.183,836.417,422.043,837.091Z" fill="#231f20"/><path d="M450.382,832.367q1.092,0,1.093,1.025-.024.6-1.372,1.884a.749.749,0,0,1,.092.372q0,.4-.674.628c-.466.125-.923.242-1.374.35v1.023a18.618,18.618,0,0,1,5.375-.977,6.593,6.593,0,0,1,2.467.349,1.142,1.142,0,0,1,.791,1.024q0,.721-2.117,2.443a6.805,6.805,0,0,1-2.514,1.559,1.41,1.41,0,0,1-1.116-.768c-.264-.279-.4-.48-.4-.6,0-.078.108-.14.325-.187a5.116,5.116,0,0,0,2.467-.814q1.023-.675,1.023-1.257a.434.434,0,0,0-.279-.441,3.228,3.228,0,0,0-1.187-.187,16.894,16.894,0,0,0-4.793.768l-.047.023v6.539a5.258,5.258,0,0,1-.348,2.187c-.187.419-.411.629-.675.629q-.513,0-1.513-2.048v-.093a.564.564,0,0,0,.4.256c.48,0,.722-.373.722-1.117v-3.979a37.189,37.189,0,0,1-2.816,3.327,3.946,3.946,0,0,1-2.559,1.326c-.25,0-.374-.069-.374-.209a11.969,11.969,0,0,0,2.583-2.4,26.233,26.233,0,0,0,2.91-3.862,17.854,17.854,0,0,0-3.887,2,3.291,3.291,0,0,1-1.512.838q-.582,0-.582-.675a1.665,1.665,0,0,1,.419-.745,5.845,5.845,0,0,0,1.535-3.257c0-.2.319-.319.954-.35q.7.024.746.535a5.378,5.378,0,0,1-1.187,2.118q2.025-.884,3.77-1.512v-1.187l-.256.046a11.5,11.5,0,0,1-1.607.163c-.418,0-.628-.116-.628-.348,0-.124.156-.248.466-.373q1.162-.4,2-.652a1.386,1.386,0,0,0-.3-.93.336.336,0,0,1-.209-.233,7.762,7.762,0,0,1-1.6.233q-.723-.048-.838-.4c0-.124.209-.232.628-.326A24.124,24.124,0,0,1,450.382,832.367Zm-6.539-5.468a4.2,4.2,0,0,0,.628.465,1.282,1.282,0,0,1,.7,1.094,2.479,2.479,0,0,1-.4,1.117.924.924,0,0,1,.838.744l1.118-.93v.093q-.652,1.326-1.21,2.49-.374.977-1.025.977-.534,0-.535-.861l.814-1.373a11,11,0,0,1-3.513,1.373q-.675,0-.675-.559c0-.154.186-.372.559-.651q2.49-2.535,2.49-3.677C443.634,827,443.7,826.9,443.843,826.9Zm3.187,7.447a1.284,1.284,0,0,1,.7.372,1.459,1.459,0,0,1,.326.581c.17-.046.317-.085.442-.116l1.21-1.49c0-.061-.062-.092-.186-.092Q448.078,834.066,447.03,834.346Zm2.77-8.657a1.874,1.874,0,0,1,1.023.442,1,1,0,0,1,.489.861,4.82,4.82,0,0,1-.977,1.769,8.5,8.5,0,0,1,2.071-.4c.636,0,.953.195.953.582a1.654,1.654,0,0,1-1.326,1.466q-1.395.675-3.443,1.675v-.069q1.092-.978,1.931-1.792h-1.256q-1.21,0-1.21-.931a2.414,2.414,0,0,1,.767-1.559A3.709,3.709,0,0,0,449.8,825.689Z" fill="#231f20"/><path d="M472.158,843.188a15.609,15.609,0,0,0-3.815.418,10.882,10.882,0,0,0-2.654.861,3.37,3.37,0,0,1-1.768.489,3.611,3.611,0,0,1-1.606-.3q-.744-.324-.744-.814c0-.124.07-.187.209-.187a14.924,14.924,0,0,0,3.933-.628,25.65,25.65,0,0,1,6.026-1q4.8-.394,5.818-.582a7.712,7.712,0,0,1,1.349-.116,4.482,4.482,0,0,1,2.4.675q1.326.791,1.326,1.745,0,.93-.838.931a3.744,3.744,0,0,1-1.489-.443A18.85,18.85,0,0,0,477,843.56,30.91,30.91,0,0,0,472.158,843.188Zm3.933-13.613a5.146,5.146,0,0,1,1.629.279.883.883,0,0,1,.6.861q0,.978-1.117,1.024a2.84,2.84,0,0,0-1.35.443,21.044,21.044,0,0,1-2.374,1.3.082.082,0,0,1-.092-.092,16.061,16.061,0,0,1,1.3-1.49,27.5,27.5,0,0,1-5.561,1.3,3.537,3.537,0,0,1-1.722-.419,1.508,1.508,0,0,1-.814-1.047c0-.2.069-.3.209-.3a4.146,4.146,0,0,0,1.21.209,12.736,12.736,0,0,0,4.1-1.093A10.6,10.6,0,0,1,476.091,829.575Zm-2.885,6.166q2.442.024,2.442,1.653-.047.837-1.023.837a31.548,31.548,0,0,0-3.909.233,16.013,16.013,0,0,1-1.676.163,2.653,2.653,0,0,1-1.419-.372c-.372-.14-.582-.295-.628-.466,0-.093.054-.14.162-.14a6.7,6.7,0,0,0,2.746-.93A8.75,8.75,0,0,1,473.206,835.741Z" fill="#231f20"/><path d="M496.105,827.83a2.437,2.437,0,0,1,1.652.6,1.821,1.821,0,0,1,.675,1.256c0,.621-.162.986-.489,1.094a6.854,6.854,0,0,0-1.6,1.513.5.5,0,0,1,.14.372q0,.7-1.21,1.07c-.124.031-.242.063-.349.093a1.43,1.43,0,0,1,.418.931,2.286,2.286,0,0,1,.7-.256q2.49,0,2.607,2.164a12.67,12.67,0,0,1-.3,2.559,6.327,6.327,0,0,1-.838,2.048q-.348.606-.721.606a.928.928,0,0,1-.93-.862,2.643,2.643,0,0,1,.255-.767,8.88,8.88,0,0,0,.582-3.584q-.048-.488-.745-.488a2.816,2.816,0,0,0-.582.139c.016.744.032,1.428.047,2.048q.024,1.558.047,6.585-.093,1-.932,1.094-.6-.117-.627-1.28c0-.373.007-.713.023-1.024q0-.651.023-3.816.023-1.7.046-3.072a2.146,2.146,0,0,1-.581.186c-.651,0-1.024-.154-1.117-.465.047-.124.178-.21.4-.256a6.585,6.585,0,0,0,.977-.605,2.737,2.737,0,0,0,.325-.233V834.9a1.119,1.119,0,0,0-.348-.814,5.036,5.036,0,0,1-.582.047.953.953,0,0,1-.233-.024,9.485,9.485,0,0,1-.628,1.582,17.523,17.523,0,0,1-1.093,2.072.744.744,0,0,1,.139.046,1.861,1.861,0,0,1,.861,1.234,7.879,7.879,0,0,1,.373,1.977c0,1.009-.149,1.513-.443,1.513-.218,0-.419-.171-.605-.512a10.443,10.443,0,0,1-.489-2.374,2.67,2.67,0,0,0-.4-1q-.418.651-.861,1.256a7.261,7.261,0,0,1-2.35,2.281,2.256,2.256,0,0,1-1,.349c-.124,0-.186-.039-.186-.116a21.036,21.036,0,0,0,2.513-3.072,17.072,17.072,0,0,0,1.908-4,10.205,10.205,0,0,0,.605-3.164,3.784,3.784,0,0,0-.162-1.094c0-.187.053-.279.162-.279a1.711,1.711,0,0,1,1.164.6,2.415,2.415,0,0,1,.6,1.56,7.029,7.029,0,0,0,.838-.419,2.475,2.475,0,0,1,.884-.35l1.443-2.07a.226.226,0,0,0-.255-.256,19.441,19.441,0,0,0-3.933.7,3.187,3.187,0,0,1-.559.14c-.279,0-.426-.069-.442-.209q0-.21.489-.559a6.942,6.942,0,0,1,1.862-1.186A8.169,8.169,0,0,1,496.105,827.83Zm4.677,4.258q.186,0,.628,1.326a11.037,11.037,0,0,1,.582,3.352,2.449,2.449,0,0,1-.372,1.489.8.8,0,0,1-.651.372c-.544-.047-.83-.427-.862-1.141a12.03,12.03,0,0,1,.256-2.21,21.224,21.224,0,0,0,.3-2.722C500.682,832.243,500.72,832.088,500.782,832.088Zm4.84-4.653a1.089,1.089,0,0,1,.768.3,1.81,1.81,0,0,1,.536,1.3,6.35,6.35,0,0,1-.21,1.326q-.186,1.14-.279,2.536-.187,3.864-.186,6.074,0,1.605.3,6.539-.048,1.815-.489,1.838-.58,0-1.28-.908a3.107,3.107,0,0,1-.675-1.42c0-.17.032-.255.094-.255a1.419,1.419,0,0,0,.581.186c.063,0,.094-.179.094-.535q0-9.518.046-11.821.117-2.327.116-4.049l-.162-.907Q504.878,827.458,505.622,827.435Z" fill="#231f20"/></g></g></svg>
