<svg xmlns="http://www.w3.org/2000/svg" width="1000" height="988" viewBox="0 0 1000 988"><g id="Artboard"><rect id="Tint" width="1000" height="988" fill="#58595b"/></g><g id="Outline"><g id="上海_アリス幻樂団" data-name="上海■アリス幻樂団"><path d="M960.429,934.058a2.922,2.922,0,0,1-1.991-.814,2.7,2.7,0,0,1-.96-2.035,2.915,2.915,0,0,1,2.335-2.93,24.164,24.164,0,0,1,4.5-.7l-.047-4.621a2.762,2.762,0,0,1,1-2.159,3.076,3.076,0,0,1,2.1-.741,3.659,3.659,0,0,1,1.894.5,2.677,2.677,0,0,1,1.4,2.384l0,.1h1.448a6.125,6.125,0,0,1,1.645.152,2.1,2.1,0,0,1,.242.084,2.46,2.46,0,0,1,1.472,2.32,3.157,3.157,0,0,1-.591,1.839,2.159,2.159,0,0,1-.194.233,2.81,2.81,0,0,1-.366.317q.684.084,1.4.181a2,2,0,0,1,1.724,2.157,4.771,4.771,0,0,1-.875,2.393A2.811,2.811,0,0,1,974.213,934a7.822,7.822,0,0,1-1.789-.29,23.827,23.827,0,0,0-5.256-.62,18.149,18.149,0,0,0-5.044.661A5.9,5.9,0,0,1,960.429,934.058Z" fill="#fff"/><path d="M967.371,922.058a1.669,1.669,0,0,1,.9.232.679.679,0,0,1,.391.648l-.068,2.1h3.513a4.992,4.992,0,0,1,1.1.077.463.463,0,0,1,.255.479,1.143,1.143,0,0,1-.221.679.79.79,0,0,1-.6.247q-.288,0-1.187-.046c-.567-.01-1.081-.016-1.545-.016q-.543,0-1.409.016l-.1,3.008q2.817.094,7.045.665a2.788,2.788,0,0,1-.51,1.4.874.874,0,0,1-.729.447,6.459,6.459,0,0,1-1.308-.231,25.7,25.7,0,0,0-5.737-.679,20.037,20.037,0,0,0-5.6.74,4.4,4.4,0,0,1-1.137.232.971.971,0,0,1-.646-.293.776.776,0,0,1-.305-.556.917.917,0,0,1,.815-.987,26.5,26.5,0,0,1,6.043-.742l-.067-6.542a.739.739,0,0,1,.3-.618,1.112,1.112,0,0,1,.8-.262m0-4a5.037,5.037,0,0,0-3.4,1.22,4.734,4.734,0,0,0-1.706,3.66l.029,2.833a22.458,22.458,0,0,0-2.972.569,4.907,4.907,0,0,0-3.848,4.869,4.73,4.73,0,0,0,1.615,3.516,4.9,4.9,0,0,0,3.336,1.333,7.85,7.85,0,0,0,2.3-.4,16.1,16.1,0,0,1,4.443-.569,21.837,21.837,0,0,1,4.813.571,9.363,9.363,0,0,0,2.232.339,4.84,4.84,0,0,0,4.008-2.156,6.747,6.747,0,0,0,1.216-3.347,4,4,0,0,0-2.076-3.865,5.179,5.179,0,0,0,.105-1.036,4.429,4.429,0,0,0-2.689-4.16,3.962,3.962,0,0,0-.484-.169,7.431,7.431,0,0,0-2.016-.226,4.644,4.644,0,0,0-2.024-2.223,5.718,5.718,0,0,0-2.882-.756Z" fill="#fff"/><path d="M971.106,949.742a3.464,3.464,0,0,1-2.887-1.607c-.016-.023-.031-.045-.044-.068-.55,0-1.134-.006-1.754-.006a3.048,3.048,0,0,0-.637.043,3.042,3.042,0,0,1-1.078.218,2.776,2.776,0,0,1-.519-.048,2.84,2.84,0,0,1-2.468,1.206,3.358,3.358,0,0,1-1.914-.557c-.051-.034-.1-.07-.148-.109a2.854,2.854,0,0,1-1.076-2.245,2.677,2.677,0,0,1,.569-1.58,3.6,3.6,0,0,1-.671-.414c-.027-.02-.053-.043-.08-.065a2.635,2.635,0,0,1-.972-2.015,3.306,3.306,0,0,1,.518-1.745,2.22,2.22,0,0,1,.162-.226,3.159,3.159,0,0,1,.568-.536,3.484,3.484,0,0,1-.315-1.505,2.965,2.965,0,0,1,.943-2.156c.035-.034.072-.066.11-.1a3.09,3.09,0,0,1,1.983-.749,3.9,3.9,0,0,1,2.4,1.046,1.989,1.989,0,0,1,1.439-1.138,5.878,5.878,0,0,1,1.031-.077,4.858,4.858,0,0,1,1.875.339,2.086,2.086,0,0,1,.227.113,2.937,2.937,0,0,1,.622.477c.493-.012,1.043-.019,1.654-.019,2.133,0,3.7.048,4.783.146a2,2,0,0,1,1.816,2.089,4.109,4.109,0,0,1-.612,2.067,2.556,2.556,0,0,1-.358.456,2,2,0,0,1,1.291,1.975,4.145,4.145,0,0,1-.75,2.2c-.059.082-.12.16-.181.233a2.987,2.987,0,0,1-.692,1.9,2.8,2.8,0,0,1-2.122.972h-.093c-.037.049-.074.1-.112.144A3.087,3.087,0,0,1,971.106,949.742Z" fill="#fff"/><path d="M966.269,937.311a2.87,2.87,0,0,1,1.1.184.525.525,0,0,1,.323.433.9.9,0,0,1-.119.385q1.12-.092,3.072-.092,3.09,0,4.6.138a2.117,2.117,0,0,1-.306,1.1.481.481,0,0,1-.441.263c-.237,0-.725-.021-1.46-.062q-1.766-.139-2.92-.138-1.492,0-2.716.123a8.549,8.549,0,0,1-.916.077.329.329,0,0,1-.1-.016.728.728,0,0,0-.136.124,3.443,3.443,0,0,1-2.155,1.126q-.459,0-.459-.262c0-.083.073-.19.22-.324a8.407,8.407,0,0,0,1.529-1.605,1.814,1.814,0,0,0,.424-.956.823.823,0,0,0-.221-.449,4.077,4.077,0,0,1,.68-.045m-4.873.169a2.344,2.344,0,0,1,1.256.695q1.306,1.1,1.307,1.343c0,.256-.152.385-.458.385a2.9,2.9,0,0,1-.679-.108,10.126,10.126,0,0,0-1.613-.186q-.847-.075-.849-1.126a.956.956,0,0,1,.324-.71,1.122,1.122,0,0,1,.712-.293m5.3,2.655a1.269,1.269,0,0,1,.662.154.2.2,0,0,1,.085.046q1.1-.062,2.835-.062,2.75,0,3.48.078c.226.02.34.1.34.231a1.626,1.626,0,0,1-.136.34,8.8,8.8,0,0,0-.51,1.774q1,.061,2.122.155a2.169,2.169,0,0,1-.39,1.157.789.789,0,0,1-.611.4,3.914,3.914,0,0,1-1-.216c-.147-.031-.288-.061-.423-.092-.035.154-.063.313-.085.478s-.075.324-.12.479q.782.045,1.41.077c.192.03.288.093.288.184a1.02,1.02,0,0,1-.221.68.766.766,0,0,1-.594.262q-.306,0-1.239-.062a3.343,3.343,0,0,1-.543.973,1.149,1.149,0,0,1-.934.57,1.479,1.479,0,0,1-1.239-.74,2.582,2.582,0,0,0,.764-.9q-1.731-.045-4.21-.045a4.019,4.019,0,0,0-1.29.154,1.378,1.378,0,0,1-.425.107.715.715,0,0,1-.475-.169.421.421,0,0,1-.2-.385,1.553,1.553,0,0,1,.17-.51q.237-.6.476-1.219c-.148.03-.289.057-.425.077a4.887,4.887,0,0,1-1.035.17.574.574,0,0,1-.408-.217.458.458,0,0,1-.2-.339.585.585,0,0,1,.543-.617,18.454,18.454,0,0,1,2.02-.355q.39-1.049.78-2.176.136-.447.747-.447m5.127,2.469a5.936,5.936,0,0,0,.221-1.049q0-.156-1.783-.17l-.339,1.173c.588,0,1.222.014,1.9.046m-2.92-1.219q-.831.015-1.51.046l-.425,1.188q.747-.047,1.613-.061l.322-1.173m2.173,3.626a.119.119,0,0,0,.017-.046q.2-.633.374-1.157a16.112,16.112,0,0,0-1.834-.14l-.339,1.312q.951,0,1.782.031m-2.8-1.327q-.9.032-1.731.108l-.408,1.111c0,.041.141.062.425.062h1.375l.339-1.281m-8.1-2.192,2.851.063c.318.082.476.211.476.385q0,.4-.968.725a22.073,22.073,0,0,1-2.308.571.965.965,0,0,1-.527-.247.655.655,0,0,1-.271-.494,1.325,1.325,0,0,1,.22-.694.708.708,0,0,1,.527-.309m2.428,2.979q.288,0,.288.231,0,.279-.254,2.114-.069.664-.917.664a1.4,1.4,0,0,1-.8-.216.86.86,0,0,1-.34-.7.964.964,0,0,1,.255-.493l1.392-1.4a.62.62,0,0,1,.374-.2m3.667-11.16a7.936,7.936,0,0,0-1.382.107,4.027,4.027,0,0,0-1.4.538,4.934,4.934,0,0,0-2.086-.476,5.086,5.086,0,0,0-3.254,1.2c-.076.062-.15.128-.221.2a4.951,4.951,0,0,0-1.561,3.6,5.967,5.967,0,0,0,.073.937c-.067.09-.13.184-.189.28a5.328,5.328,0,0,0-.817,2.795,4.553,4.553,0,0,0,1.258,3.14,4.258,4.258,0,0,0-.1.934,4.883,4.883,0,0,0,1.813,3.8c.1.077.193.15.294.218a5.4,5.4,0,0,0,3.031.9,17.2,17.2,0,0,1,4.52-1.416c.044,0,.1,0,.182,0h.8a5.369,5.369,0,0,0,3.887,1.68,5.037,5.037,0,0,0,3.621-1.564,4.737,4.737,0,0,0,2.655-1.5c.031-.034.062-.069.092-.105a4.911,4.911,0,0,0,1.1-2.46,6.229,6.229,0,0,0,.987-3.06,3.99,3.99,0,0,0-.72-2.5,6.546,6.546,0,0,0,.4-2,4,4,0,0,0-3.632-4.177c-1.146-.105-2.77-.155-4.964-.155q-.507,0-.964.006c-.1-.069-.205-.134-.312-.2a4.1,4.1,0,0,0-.455-.226,6.834,6.834,0,0,0-2.647-.494Z" fill="#fff"/><rect x="958.921" y="949.883" width="17.054" height="15.929" rx="2" fill="#fff"/><path d="M973.975,951.883v11.929H960.921V951.883h13.054m0-4H960.921a4,4,0,0,0-4,4v11.929a4,4,0,0,0,4,4h13.054a4,4,0,0,0,4-4V951.883a4,4,0,0,0-4-4Z" fill="#fff"/><path d="M945.11,933.719c-2.355,0-3.409-1.493-3.409-2.973a4.436,4.436,0,0,1,2.031-3.835c-.09-.049-.178-.1-.265-.158a1.711,1.711,0,0,1-.14-.1,2.907,2.907,0,0,1-1.15-2.31,3.068,3.068,0,0,1,2.832-3.156,26.633,26.633,0,0,1,3.429-.217c2.489,0,4.627.069,6.354.206a9.884,9.884,0,0,1,2.37.4,2.6,2.6,0,0,1,1.9,2.459,2.739,2.739,0,0,1-1.174,2.245,1.891,1.891,0,0,1-.237.15,5.6,5.6,0,0,0-.538.331,2.13,2.13,0,0,1-.278.16l-.022.011c-1.805,1.844-2.835,2.5-3.927,2.5a3.592,3.592,0,0,1-.45-.027,5.332,5.332,0,0,1-1.494,2.079,8.119,8.119,0,0,1-3.323,1.819A8.5,8.5,0,0,1,945.11,933.719Z" fill="#fff"/><path d="M948.438,922.969q3.666,0,6.2.2a8.508,8.508,0,0,1,1.867.293c.373.135.56.324.56.571a.769.769,0,0,1-.357.633,7.659,7.659,0,0,0-.729.447,1.683,1.683,0,0,0-.561.386q-1.884,1.929-2.529,1.93-.781,0-.781-.587a5.254,5.254,0,0,1,.645-1.235.984.984,0,0,0,.119-.354c0-.268-.153-.4-.459-.4-.033,0-.385-.011-1.052-.032s-1.081-.046-1.239-.046a19.73,19.73,0,0,0-3.242.262q-1.58.248-1.681.247a1.128,1.128,0,0,1-.628-.2.92.92,0,0,1-.39-.741,1.085,1.085,0,0,1,1.086-1.173,24.59,24.59,0,0,1,3.175-.2m1.1,2.361a2.414,2.414,0,0,1,.934.123.725.725,0,0,1,.39.726,9.12,9.12,0,0,1-.17,2.1,3.256,3.256,0,0,1-1.069,1.7,6.2,6.2,0,0,1-2.564,1.4,6.629,6.629,0,0,1-1.952.34q-1.408,0-1.409-.973a2.428,2.428,0,0,1,1.172-2.191c.1.371.441.555,1.019.555a2.283,2.283,0,0,0,2.376-1.327,3.261,3.261,0,0,0,.22-.971v-.7q0-.787,1.053-.787m-1.1-6.361a28.747,28.747,0,0,0-3.69.233,5.036,5.036,0,0,0-4.571,5.14,4.854,4.854,0,0,0,.726,2.554,6.561,6.561,0,0,0-1.2,3.85,5.027,5.027,0,0,0,5.409,4.973,10.424,10.424,0,0,0,3.106-.51,10.177,10.177,0,0,0,4.1-2.27,7.634,7.634,0,0,0,1.352-1.577c1.513-.262,2.838-1.285,4.362-2.815.076-.045.15-.093.223-.143a3.371,3.371,0,0,1,.348-.214,3.927,3.927,0,0,0,.473-.3,4.758,4.758,0,0,0,1.991-3.858,4.582,4.582,0,0,0-3.2-4.333,11.543,11.543,0,0,0-2.9-.518c-1.785-.142-3.976-.213-6.518-.213Z" fill="#fff"/><path d="M948.148,949.1a8.316,8.316,0,0,1-1.919-.166,2.832,2.832,0,0,1-2.422-2.776,3.532,3.532,0,0,1,.714-2.094,3.311,3.311,0,0,1-.545-1.887c0-.134-.018-.6-.049-1.386-.025-.9-.035-1.5-.035-1.824,0-1.4,1.011-2.8,3.272-2.8,2.431,0,3.131,1.577,3.17,2.574.105-1.331,1.148-2.6,3.332-2.6a3.956,3.956,0,0,1,1.7.377,2.657,2.657,0,0,1,1.6,2.395c0,.176-.014.523-.178,2.411a8.382,8.382,0,0,1-2.9,6.139A9.19,9.19,0,0,1,948.148,949.1Z" fill="#fff"/><path d="M953.666,938.128a1.963,1.963,0,0,1,.849.185c.305.155.458.35.458.587q0,.278-.17,2.238a6.456,6.456,0,0,1-2.139,4.737,7.258,7.258,0,0,1-4.516,1.22,6.679,6.679,0,0,1-1.442-.109q-.9-.2-.9-.833,0-.987,1.561-2.037a1.856,1.856,0,0,0,1.578.525,3.218,3.218,0,0,0,1.97-.741,3.918,3.918,0,0,0,1.392-3.256v-.957c.011-.412.017-.653.017-.725q0-.834,1.341-.834m-6.5.031q1.172,0,1.172.663,0,.186-.018,1.328-.015,1.158-.016,1.559,0,1.59-1.308,1.589-1.019,0-1.018-1.126,0-.2-.051-1.467c-.023-.843-.033-1.425-.033-1.743q0-.8,1.272-.8m6.5-4.031a5.731,5.731,0,0,0-3.3.944,5.557,5.557,0,0,0-3.2-.913c-3.461,0-5.272,2.416-5.272,4.8,0,.338.01.955.034,1.85l0,.055c.029.726.046,1.167.048,1.322a5.627,5.627,0,0,0,.289,1.809,5.329,5.329,0,0,0-.458,2.155,4.825,4.825,0,0,0,3.988,4.728,10.115,10.115,0,0,0,2.353.214,11.115,11.115,0,0,0,6.963-2.056,10.29,10.29,0,0,0,3.675-7.534c.173-1.994.187-2.358.187-2.605a4.626,4.626,0,0,0-2.656-4.157l-.1-.047a5.943,5.943,0,0,0-2.556-.568Z" fill="#fff"/><path d="M954.888,964.438a3.486,3.486,0,0,1-2.228-.939c-.068-.049-.3-.23-.629-.484-.267-.215-.48-.38-.662-.512-.546-.349-.979-.607-1.321-.8a9.357,9.357,0,0,1-5.566,2.239,2.808,2.808,0,0,1-2.9-2.971,5.311,5.311,0,0,1,1.393-3.209,2.025,2.025,0,0,1,.613-.521,2.97,2.97,0,0,1,2.3-5.046v.036a10.061,10.061,0,0,1,1.012-.052l.874-.014c1.313-.052,2.328-.077,3-.077a9.064,9.064,0,0,1,3.5.406,2.518,2.518,0,0,1,.669,4.477c-.05.037-.1.071-.153.1s-.108.086-.187.156c-.032.036-.068.074-.105.114q.32.111.665.216.693.22,2.109.576c.034,0,.175.037.354.083a2.01,2.01,0,0,1,1.566,1.949,4.11,4.11,0,0,1-1.224,2.613A4.033,4.033,0,0,1,954.888,964.438Z" fill="#fff"/><path d="M950.78,954.09a8.665,8.665,0,0,1,2.75.262c.339.124.509.308.509.555a.594.594,0,0,1-.288.463,3.977,3.977,0,0,0-.544.433q-.527.555-1.985,2.191a13.113,13.113,0,0,0,3.36,1.482q.731.231,2.207.6c.1.021.232.052.391.093h.016a2.372,2.372,0,0,1-.729,1.3,2.2,2.2,0,0,1-1.579.972,1.668,1.668,0,0,1-.95-.478q-.2-.155-.679-.524-.442-.357-.765-.587a16.694,16.694,0,0,0-2.716-1.5q-3,2.592-5.3,2.592-.9,0-.9-.971A3.657,3.657,0,0,1,944.55,959a.983.983,0,0,0,.713.263,4.049,4.049,0,0,0,1.646-.479,8.145,8.145,0,0,0,1.715-1.018,11.976,11.976,0,0,0,1.087-1.019c.306-.34.458-.56.458-.664,0-.164-.164-.247-.492-.247a24.242,24.242,0,0,0-2.954.154q-1.185.125-1.087.124a.966.966,0,0,1-.9-.988q0-.926,1.155-.926l1.918-.03q1.986-.078,2.97-.077m-5.144,2.021h0m5.144-6.021c-.715,0-1.723.025-3.079.078l-.812.013-.8.012-.15,0h-.05a4.879,4.879,0,0,0-5.155,4.926,5.1,5.1,0,0,0,.337,1.841,6.925,6.925,0,0,0-1.492,4.009,4.828,4.828,0,0,0,4.9,4.971,10.408,10.408,0,0,0,5.649-1.858l.109.069c.148.109.318.242.511.4l.052.041q.437.339.658.509a5.415,5.415,0,0,0,3.427,1.336,7.007,7.007,0,0,0,6.308-6.268,4,4,0,0,0-3.213-3.923l-.141-.034a4.434,4.434,0,0,0,.2-1.306,4.542,4.542,0,0,0-3.021-4.269,11.171,11.171,0,0,0-4.238-.548Z" fill="#fff"/><path d="M937.007,934.2a3.314,3.314,0,0,1-2.31-.95c-.078-.07-.154-.147-.228-.228-.065,0-.13,0-.2,0a5.312,5.312,0,0,1-1.007-.128c-.28-.028-.811-.057-1.811-.057H929.2a11.348,11.348,0,0,0-1.678.092,2.983,2.983,0,0,1-1.039.216c-2.1,0-3.035-1.314-3.035-2.617a3.172,3.172,0,0,1,.856-2.121,2.286,2.286,0,0,1-.924-1.829,3.316,3.316,0,0,1,1.334-2.391l2.814-2.757a4.461,4.461,0,0,1,2.894-1.482,2.951,2.951,0,0,1,2.122.795c.026.026.092.1.1.1a4.162,4.162,0,0,1,.719-.221,23.962,23.962,0,0,1,3.646-.122,38.158,38.158,0,0,1,3.839.105c.041,0,.082.011.122.018a2.377,2.377,0,0,1,2.18,2.309,2.441,2.441,0,0,1-.358,1.228l-.1,4.4a5.894,5.894,0,0,1-2.069,4.247A5.629,5.629,0,0,1,937.007,934.2Zm-1.976-6.758a8.706,8.706,0,0,1,.807.707,2.981,2.981,0,0,0,1-.356c.03-.019.072-.1.072-.331v-1.346c-.6.014-1.144.035-1.617.066a3.578,3.578,0,0,1-.5,1.062C934.865,927.305,934.947,927.37,935.031,927.439Z" fill="#fff"/><path d="M930.42,921.95a1.009,1.009,0,0,1,.73.232.9.9,0,0,1,.272.617,1.55,1.55,0,0,1-.628,1.05l-2.055,1.589q-.441.4-.441.509c0,.155.192.324.577.509l.765.278q1.052-.833,2.053-1.667a1.5,1.5,0,0,1,.9-.463.972.972,0,0,1,.543.2.712.712,0,0,1,.271.525,1.819,1.819,0,0,1-.78,1.327l-3.226,2.608,2.631.077c.091,0,.137-.057.137-.17q-.679-.678-.68-.864c0-.287.158-.432.476-.432a4.4,4.4,0,0,1,1.8,1.111q1.119.879,1.12,1.358,0,.679-.612.679a5.212,5.212,0,0,1-.712-.108,20.47,20.47,0,0,0-2.106-.077H929.2a11.981,11.981,0,0,0-2.207.154,2.08,2.08,0,0,1-.51.154q-1.035,0-1.035-.617a1.653,1.653,0,0,1,.815-1.218q.967-.711,1.885-1.4a13.522,13.522,0,0,0-2-.8q-.765-.216-.765-.524,0-.293.68-.911l2.868-2.809a2.709,2.709,0,0,1,1.494-.91m6.587.556q2.783,0,3.615.093.527.091.526.339a.717.717,0,0,1-.119.278,1.644,1.644,0,0,0-.237.879l-.1,4.429a3.831,3.831,0,0,1-1.375,2.778,3.624,3.624,0,0,1-2.308.895,1.332,1.332,0,0,1-.934-.4,3.552,3.552,0,0,1-.832-1.513,6.564,6.564,0,0,0,2.733-.848,2.218,2.218,0,0,0,.933-1.976V924.3c0-.134-.1-.2-.288-.2q-2.46,0-3.955.124a6.374,6.374,0,0,1-1.069.138.7.7,0,0,1-.51-.293.9.9,0,0,1-.237-.648c0-.422.31-.7.933-.833q.476-.078,3.226-.077m-6.587-4.556a6.307,6.307,0,0,0-4.233,2l-.06.057-2.816,2.758a5.241,5.241,0,0,0-1.933,3.82,4.266,4.266,0,0,0,.483,1.958,4.975,4.975,0,0,0-.415,1.992,4.673,4.673,0,0,0,5.035,4.617,4.626,4.626,0,0,0,1.5-.26,11.923,11.923,0,0,1,1.219-.048h2.257c.873,0,1.323.023,1.536.04.253.047.465.081.654.1a5.316,5.316,0,0,0,3.362,1.214,7.636,7.636,0,0,0,4.827-1.788c.031-.024.061-.05.091-.076a7.813,7.813,0,0,0,2.758-5.565c0-.051,0-.1.006-.152l.091-3.958a4.285,4.285,0,0,0-3.467-6c-.08-.014-.162-.026-.243-.035a38.966,38.966,0,0,0-4.063-.118,26.076,26.076,0,0,0-3.872.129l-.065.012a5.081,5.081,0,0,0-2.65-.7Z" fill="#fff"/><path d="M933.34,949.681a3.34,3.34,0,0,1-2.086-.71,2.484,2.484,0,0,1-.714-.827,4.771,4.771,0,0,1-2.921,1.151,2.612,2.612,0,0,1-2.611-2.787v-.018a2.963,2.963,0,0,1-.554-.4,2.428,2.428,0,0,1-.872-1.862,2.873,2.873,0,0,1,.237-1.162,2.4,2.4,0,0,1-.169-.89,2.2,2.2,0,0,1,.192-.9,2.263,2.263,0,0,1-.327-1.136,2.718,2.718,0,0,1,1.09-2.016l1.712-1.572a3.421,3.421,0,0,1,2.252-1.067,2.691,2.691,0,0,1,1.878.706,2,2,0,0,1,1.314-.846,10,10,0,0,1,1.7-.153,4.755,4.755,0,0,1,1.686.228,2.393,2.393,0,0,1,1.074.753c.17.02.323.044.463.068a2.86,2.86,0,0,1,.328.083,3.4,3.4,0,0,1,2.17-.963,2.7,2.7,0,0,1,2,.836,2.749,2.749,0,0,1,.741,1.788,2.588,2.588,0,0,1,.476,1.538,2.46,2.46,0,0,1-.065.565,2.758,2.758,0,0,1,.677,1.733,2.8,2.8,0,0,1-.039.464,2,2,0,0,1,.238,1.1,4.377,4.377,0,0,1-.829,2.28,3.063,3.063,0,0,1-.883.875,4.711,4.711,0,0,1-1.069,1.916,2.034,2.034,0,0,1-.264.235,3.351,3.351,0,0,1-2.006.67,3.264,3.264,0,0,1-2.287-1.05A2.942,2.942,0,0,1,933.34,949.681Z" fill="#fff"/><path d="M933.459,937.187a3.1,3.1,0,0,1,1,.108c.158.052.238.134.238.247a1.058,1.058,0,0,1-.17.509,14.163,14.163,0,0,1,1.8.154c.17.031.255.1.255.217q-.086.369-.2,1.1l.187-.17,1.732-1.5a1.659,1.659,0,0,1,.883-.5.707.707,0,0,1,.543.2.721.721,0,0,1,.2.478c0,.134-.118.288-.357.463l-1.171.679q-.237.17-.237.216c0,.051.068.108.2.169l.324.139.61-.478a.982.982,0,0,1,.56-.246.478.478,0,0,1,.543.54c0,.195-.13.365-.39.508l-1.85,1.235c0,.031.045.047.136.047h1.069c.147,0,.221-.016.221-.047a1.839,1.839,0,0,1-.221-.509c0-.154.118-.231.357-.231.192,0,.464.184.814.555q.476.478.476.74,0,.495-.476.5H938.6a14.038,14.038,0,0,0-1.817.092,1.4,1.4,0,0,1-.408.092.516.516,0,0,1-.322-.139.308.308,0,0,1-.118-.231.664.664,0,0,1-.239.047,1.994,1.994,0,0,1-.271-.047c-.328-.03-.782-.051-1.359-.062.046.021.079.037.1.046a1.024,1.024,0,0,1,.441.633q2.648.078,6.6.494a2.4,2.4,0,0,1-.476,1.282.829.829,0,0,1-.7.447,5.658,5.658,0,0,1-1.256-.247,23.561,23.561,0,0,0-4.193-.649l-.034,1.76a2.35,2.35,0,0,1-.357,1.373.944.944,0,0,1-.865.479,1.341,1.341,0,0,1-.883-.309q-.356-.231-.356-1.42v-1.9a24.1,24.1,0,0,0-4.652.57,5.413,5.413,0,0,1-1.188.2.694.694,0,0,1-.458-.217.512.512,0,0,1-.221-.385.706.706,0,0,1,.611-.756,25.778,25.778,0,0,1,5.924-.71.943.943,0,0,1,.34-.586,1.8,1.8,0,0,1,.17-.109,9.521,9.521,0,0,0-1.12.109.768.768,0,0,1-.221.077q-.324,0-.39-.494l-.357-3.149a.375.375,0,0,1,.322-.37c.43-.072.867-.123,1.308-.154a1.417,1.417,0,0,0,.152-.478c0-.072-.074-.17-.22-.293a7.99,7.99,0,0,1,1.358-.124m-1.053,2.515a9.6,9.6,0,0,1,1-.046c.408,0,.822.016,1.239.046l.052-.54c0-.051-.04-.087-.119-.107a7.035,7.035,0,0,0-1.239-.077,3.291,3.291,0,0,0-.815.091c-.09.022-.135.052-.135.093l.016.54m3.718,2.037.288-.261,1.087-.85a7.659,7.659,0,0,0-1-.509.864.864,0,0,1-.186-.093q-.086.726-.187,1.713m-3.463-.6a5.23,5.23,0,0,1,.78-.062,6.534,6.534,0,0,1,.9.062.2.2,0,0,0,.22-.186l.034-.447q-.629-.046-1.189-.046t-.967.03l.017.587c0,.041.068.062.2.062m-4.092-3.658a.693.693,0,0,1,.747.679.7.7,0,0,1-.322.494l-1.069.756c-.159.134-.237.216-.237.247s.083.082.253.123l.306.062.731-.6a.945.945,0,0,1,.559-.261.471.471,0,0,1,.526.54.655.655,0,0,1-.356.54l-1.816,1.311c0,.041.05.062.153.062h1.205c.1,0,.152-.021.152-.062a1.994,1.994,0,0,1-.22-.556c0-.154.119-.231.356-.231.192,0,.482.19.866.571q.492.525.493.787c0,.33-.182.494-.543.494a2.838,2.838,0,0,1-.459-.062h-1.46a16.2,16.2,0,0,0-1.953.093,1.617,1.617,0,0,1-.407.093.457.457,0,0,1-.288-.109.311.311,0,0,1-.136-.277c0-.134.169-.324.509-.571l.934-.8a8.948,8.948,0,0,0-1.171-.416c-.272-.063-.407-.145-.407-.247s.135-.273.407-.51l1.748-1.6a1.683,1.683,0,0,1,.9-.541m1.648,7.423c.09,0,.136.041.136.123a2.094,2.094,0,0,1-.816,1.359,3.082,3.082,0,0,1-1.918.91q-.611,0-.611-.787a1.245,1.245,0,0,1,.289-.926c.022.082.13.123.322.123a4.059,4.059,0,0,0,1.969-.617,1.684,1.684,0,0,1,.629-.185m6.365.062a2.377,2.377,0,0,1,.9.247,9.708,9.708,0,0,0,2.106.74,2.741,2.741,0,0,1-.611,1.127,1.338,1.338,0,0,1-.815.277,1.408,1.408,0,0,1-.917-.508,3.242,3.242,0,0,1-.866-1.7c0-.124.068-.185.2-.185m-3.123-11.778a12.03,12.03,0,0,0-2.038.182,4.011,4.011,0,0,0-1.173.4,4.962,4.962,0,0,0-1.679-.285,5.442,5.442,0,0,0-3.589,1.58l-1.728,1.586a4.637,4.637,0,0,0-1.737,3.489,4.174,4.174,0,0,0,.2,1.273,4.274,4.274,0,0,0-.068.764,4.372,4.372,0,0,0,.081.836,4.952,4.952,0,0,0-.149,1.216,10.66,10.66,0,0,0,6.037,7.071,6.071,6.071,0,0,0,2.6-.6,5.324,5.324,0,0,0,3.121.987,5.012,5.012,0,0,0,2.742-.805,4.815,4.815,0,0,0,2.079.48,5.333,5.333,0,0,0,3.2-1.063,4.012,4.012,0,0,0,.53-.471,6.489,6.489,0,0,0,1.3-2.063,5.247,5.247,0,0,0,.835-.956,6.435,6.435,0,0,0,1.181-3.279,3.969,3.969,0,0,0-.2-1.559c0-.049,0-.1,0-.149a4.5,4.5,0,0,0-.612-2.249v-.049a4.673,4.673,0,0,0-.533-2.2,4.784,4.784,0,0,0-1.142-2.4c-.026-.03-.053-.06-.081-.089a4.679,4.679,0,0,0-3.465-1.471,4.822,4.822,0,0,0-2.38.663,4.543,4.543,0,0,0-.977-.485,6.685,6.685,0,0,0-2.364-.347Z" fill="#fff"/><path d="M927.144,964.777a2.39,2.39,0,0,1-2.371-2.192c0-.041-.01-.082-.013-.123l-.679-8.334c0-.054-.007-.108-.007-.162a2.605,2.605,0,0,1,2.529-2.537c2.313-.221,4.592-.327,6.856-.327a52.929,52.929,0,0,1,6.847.3,2.372,2.372,0,0,1,2.3,2.318,1.983,1.983,0,0,1-.025.317c-.216,1.341-.46,4.118-.726,8.253a2.42,2.42,0,0,1-2.42,2.427,9.743,9.743,0,0,1-1.006-.094c-1-.089-2.712-.138-5-.138s-4.073.056-5.322.167A4.783,4.783,0,0,1,927.144,964.777Z" fill="#fff"/><path d="M933.459,953.1a51.594,51.594,0,0,1,6.552.278c.4.052.594.164.594.339q-.339,2.115-.747,8.441c-.022.371-.164.556-.424.556q-.153,0-.746-.077-1.716-.155-5.263-.155-3.633,0-5.619.186a4.174,4.174,0,0,1-.662.107q-.322,0-.391-.477l-.679-8.334q0-.447.8-.556,3.26-.307,6.587-.308m3.666,4.2a6.006,6.006,0,0,1-.883-.109c-.362-.072-.695-.129-1-.17v1.806a1.888,1.888,0,0,1-.968,1.744,5.335,5.335,0,0,1-1.035.432h4.7c.136,0,.209-.087.221-.262l.39-5.864q0-.124-.442-.17-1-.092-2.885-.124a.371.371,0,0,1,.085.231,3.445,3.445,0,0,0-.068.556v.4q1.29.048,2.7.17a2.153,2.153,0,0,1-.323,1.158.642.642,0,0,1-.492.2m-3.31-2.717h-.356q-2.547,0-4.736.17-.832.061-.832.185l.407,6q0,.123.2.123,1.392-.03,2.75-.045a.7.7,0,0,1-.153-.155,1.76,1.76,0,0,1-.357-1.157,6.2,6.2,0,0,0,2.394-.355.808.808,0,0,0,.526-.695v-1.743a21.181,21.181,0,0,0-3.327.277q-.814.11-1.019.109a.686.686,0,0,1-.474-.186.73.73,0,0,1-.188-.494.666.666,0,0,1,.459-.633,24.139,24.139,0,0,1,4.549-.231v-.74a.623.623,0,0,1,.153-.433m-1.494,2.763a.4.4,0,0,1,.458.447c0,.083-.135.247-.407.494a5.271,5.271,0,0,1-1.307.772,3.309,3.309,0,0,1-1.137.262q-.527,0-.527-.432a1.56,1.56,0,0,1,.391-.91.3.3,0,0,0,.271.108,2.9,2.9,0,0,0,.9-.17,4.314,4.314,0,0,0,1.018-.479.652.652,0,0,1,.34-.092m1.138-8.244c-2.326,0-4.669.109-6.963.326-.054,0-.108.011-.162.019a4.57,4.57,0,0,0-4.26,4.519c0,.108,0,.216.013.325l.679,8.334c.007.082.016.164.028.246a4.382,4.382,0,0,0,4.35,3.906,6.2,6.2,0,0,0,1.242-.143c1.185-.1,2.878-.15,5.039-.15,2.178,0,3.8.045,4.831.132a9.115,9.115,0,0,0,1.178.1,4.407,4.407,0,0,0,4.417-4.314c.326-5.056.563-7.169.7-8.049a3.966,3.966,0,0,0,.05-.634,4.395,4.395,0,0,0-4.034-4.3,54.074,54.074,0,0,0-7.112-.317Z" fill="#fff"/></g></g><g id="Text"><path d="M484.822,65.216q6.1,2,10.545,3.22,5.994,1.555,5.994,3.107,0,1.444-3.441,1.776-2.775.445-3.33,1.222a143.646,143.646,0,0,1-6.882,17.981c.37.149.739.3,1.11.444q3.218.891,3.219,1.555a2.994,2.994,0,0,1-1.887,2.664,2.189,2.189,0,0,0-1.221,2.219v46.62q0,9.549.333,18.759,0,1.887-4.773,2.776a24.7,24.7,0,0,1-3.219.332q-3,0-3-2.775.442-10.547.444-21.2V108.062a112.67,112.67,0,0,1-12.543,15.318l-1.221-1.665a180.527,180.527,0,0,0,11.1-24.53Q481.048,84.42,484.822,65.216Zm16.095,8.1a123.389,123.389,0,0,0,13.653.777h29.415a45.022,45.022,0,0,0,3.22-3.33q2.331-2.331,3.441-2.33,1.665,0,5.772,3.551,4.772,3.663,4.772,4.885,0,1.331-2.331,2.552T556.307,82.2V97.3h.887q1-2.552,2.331-5.328,1.666-3.663,3.109-3.663,1.33,0,3.33,3.33,3.33,4.662,3.33,6.882,0,1.889-1.776,1.887H556.307v12.321q0,3.222.221,7.437.222,8.325.223,9.547,0,1.776-4.885,2.774a29.481,29.481,0,0,1-3,.223q-2.664,0-2.664-3v-4.885H527.669a82.366,82.366,0,0,1-2,9.657,52.1,52.1,0,0,1-10.323,19.2,57.547,57.547,0,0,1-17.983,14.207l-1.443-1.331a55.858,55.858,0,0,0,11.766-13.654,56.173,56.173,0,0,0,7.66-17.982q1.109-4.77,1.886-10.1h-5.216q-7.994,0-12.988.445l-1.665-4.441a102.029,102.029,0,0,0,14.653.888h5.549a183.946,183.946,0,0,0,1-19.98V100.4H507.134q-5.108,0-10.657.444l-1.887-4.44q8.325.89,12.544.888h11.432V77.315h-4q-7.325,0-11.877.444ZM529.334,100.4v1.332a149.249,149.249,0,0,1-1.222,19.98h18.094V100.4Zm0-23.088V97.3h16.872V77.315Z" fill="#231f20"/><path d="M464.953,248.255a143.17,143.17,0,0,0,18.648,1.332h10.1a6.916,6.916,0,0,1,.111-1.332q0-7.547-.444-12.543,4.771.666,9.324,1.665,6.549,1.222,6.549,2.442t-2,2.331q-2.442,1-2.441,2.109a53.059,53.059,0,0,1-.666,5.328h27.417v-5.328a36.606,36.606,0,0,0-.888-8.547q4.438.666,10.545,1.665,5.77.558,5.771,2,0,1.665-2.774,2.775A2.575,2.575,0,0,0,542.1,244.7v4.883h8.547q.332-.22,3.551-4.217,3.774-4.773,4.441-4.774,2,0,6.327,4.662,4.329,4.552,4.329,5.551,0,1.887-1.776,1.886H542.1V278q0,1.887-4.774,2.775a24.614,24.614,0,0,1-3.107.333q-3.108,0-3.109-1.886a24.826,24.826,0,0,0,.445-3.886V252.7H503.692q-1.556,8.326-4.218,12.432a29.013,29.013,0,0,1-10.323,10.212Q483.379,279,472.5,282l-1-1.776a55.34,55.34,0,0,0,12.321-7.993,27.948,27.948,0,0,0,7.548-10.434,35.777,35.777,0,0,0,2.109-9.1H481.714a107.611,107.611,0,0,0-15.1.888ZM472.5,182.1q4,.444,9.768,1.332,5.328.444,5.328,1.776,0,1.556-2.664,2.441a2.444,2.444,0,0,0-1.776,2.442v6.993h12.765v-10.1a32.737,32.737,0,0,0-.888-8.1q4.329.557,10.323,1.665,5.77.558,5.773,2t-2.886,2.442a2.489,2.489,0,0,0-2,2.442v44.289q0,2-4.551,2.887a25.2,25.2,0,0,1-3,.333q-2.775,0-2.775-1.777V214.511h-6.216a35.514,35.514,0,0,1-2,5.994,31.574,31.574,0,0,1-3.663,5.883,20.508,20.508,0,0,1-5.328,5,34.762,34.762,0,0,1-8.547,4.773l-.777-.777a53.933,53.933,0,0,0,5.439-6.438,35.23,35.23,0,0,0,3.552-6.66,44.281,44.281,0,0,0,2.109-7.77q-6.217.113-10.323.445l-1.665-4.44a102.186,102.186,0,0,0,14.652.887h12.765V200.3H483.157v2.11q0,1.776-4.329,2.441a20,20,0,0,1-2.886.334q-2.555,0-2.553-1.888V190.091A32.163,32.163,0,0,0,472.5,182.1Zm37.63,17.759a103.635,103.635,0,0,0,15.65.889h4.885v-5.329a130.848,130.848,0,0,0-.889-16.095q4.553.558,11.656,1.777,5.548.777,5.549,1.775,0,1.557-3,2.886-2.22.667-2.219,2.443v12.543h7.547a30.179,30.179,0,0,0,3.442-4q3.772-4.439,4.439-4.439,2,0,6.217,4.329,4.1,4.44,4.107,5.327a1.571,1.571,0,0,1-1.777,1.777H541.766v22.643h3.551a32.92,32.92,0,0,0,3.553-4.107q3.663-4.77,4.44-4.773,2,0,6.327,4.662,4.328,4.554,4.329,5.662,0,1.776-1.887,1.775H527.891q-9.657,0-13.764.444l-1.665-4.44a114.645,114.645,0,0,0,15.429.777h2.775V203.745h-4.885a117.4,117.4,0,0,0-13.763.554Z" fill="#231f20"/><path d="M464.953,312.524a89.618,89.618,0,0,0,15.429,1h13.431a48.308,48.308,0,0,0,3.33-4q3.44-4.437,4.218-4.44,1.553,0,4.551,3h10.1V300.2a32.731,32.731,0,0,0-.888-8.1q4.218.664,10.322,1.553,5.663.668,5.661,2.11,0,1.555-3,2.442a2.459,2.459,0,0,0-1.886,2.441v7.437h14.208V300.2a36.615,36.615,0,0,0-.888-8.548q4.438.667,10.656,1.554,5.77.666,5.772,2.109,0,1.666-2.886,2.664a2.611,2.611,0,0,0-2,2.664v7.437h2.664a31.094,31.094,0,0,0,2.441-2.664q3.219-4,4.219-4t5.772,4.552q3.106,2.775,3.108,3.551c0,1.111-.594,1.665-1.776,1.665H551.09v10.657q0,2-4.884,2.885a22.254,22.254,0,0,1-3.22.333q-3,0-3-1.775a29.014,29.014,0,0,0,.445-4v-8.1H526.226v11.1q0,2-4.551,2.887-2.223.224-3.109.221-2.554,0-2.552-1.665V311.192h-7.326q2.439,2.889,2.442,3.663,0,1.665-1.888,1.666h-28.86q-9.657,0-13.764.443Zm4,15.651a100.381,100.381,0,0,0,15.429.888h5.772a41.621,41.621,0,0,0,3-3.33q3.217-3.883,3.774-3.884,1.665,0,5.218,3.884,3.661,3.776,3.663,4.552a1.668,1.668,0,0,1-1.888,1.886H484.378q-9.657,0-13.764.444Zm.444-29.859a89.618,89.618,0,0,0,15.429,1h4.107a21.958,21.958,0,0,0,2.886-3.33q3.107-3.884,3.663-3.884,1.774,0,5.439,3.884,3.44,3.775,3.441,4.662a1.471,1.471,0,0,1-1.665,1.665H484.822q-9.657,0-13.764.444Zm0,44.955a100.346,100.346,0,0,0,15.429.889h4.107a37.128,37.128,0,0,0,2.886-3.442q3.107-3.663,3.663-3.662,1.774,0,5.439,3.662,3.44,3.888,3.441,4.662,0,1.89-1.665,1.888H484.822q-9.657,0-13.764.443Zm1.665,12.876a71.921,71.921,0,0,1,12.654,4.44h5.217a27.754,27.754,0,0,1,3.774-3.551,3.344,3.344,0,0,1,2.331-1.332q1.221,0,5.106,2.331,4.662,3.108,4.663,4.328t-2.221,2.554a3.454,3.454,0,0,0-1.665,2.774v10.1q0,4.442.444,12.1,0,1.886-4.884,2.775-2.109.221-3.108.222-2.775,0-2.775-3v-3.553h-8.325v4.885q0,1.886-4.551,2.775a22.228,22.228,0,0,1-3,.333q-3.221,0-3.219-3.108.443-4.887.444-9.768v-12.1A96.771,96.771,0,0,0,471.058,356.147Zm11.211,26.974h8.325V363.584h-8.325Zm19.092-48.4a101.517,101.517,0,0,0,15.54.887h6.661a128.108,128.108,0,0,0,3.551-12.32q5.33,1.443,10.212,2.885,4.773,1.557,4.774,3.33,0,1.445-2.664,1.888-2.665.557-3,1.22-.666,1.557-1.333,3h16.761q.442-.108,3.442-3.884,3.55-4.439,4.217-4.44,1.776,0,5.773,4.329t4,5.439a1.571,1.571,0,0,1-1.776,1.776H533.552a78.383,78.383,0,0,1-9.213,15.207l1.442.666h19.536q2.22-2.333,4.329-4.219a4.014,4.014,0,0,1,2.665-1.443q1.44,0,6.105,2.887,5.548,3.774,5.55,5.106t-3.33,2.775q-2.444,1.33-2.443,3v16.317q0,4.553.445,12.542,0,1.887-5.107,2.775a26.821,26.821,0,0,1-3.329.333q-2.775,0-2.775-3.108v-4.883H525.781v5.66q0,2-4.884,2.887a24.828,24.828,0,0,1-3.107.333q-3.663,0-3.663-3.22a98.812,98.812,0,0,0,1-14.208v-13.43q-5.44,5.439-11.988,10.878l-1.332-1.444a127.686,127.686,0,0,0,15.873-23.532,104.4,104.4,0,0,0,4.883-11.876H516.9q-9.768,0-13.763.443Zm24.42,48.839h21.646V357.923H525.781Z" fill="#231f20"/><path d="M469.393,413.423q5.438,1.224,9.879,2.11,3.44,1.11,3.441,2.331,0,1.33-2.109,2-1.888.446-1.887,1-.777,6.44-1.776,11.211h7.881V421.749a146.457,146.457,0,0,0-.777-15.984q4.216.332,10.545,1.332,4.439.666,4.44,1.886,0,1.557-2.553,2.442a2.462,2.462,0,0,0-1.887,2.443v18.2h3.663q1-2.106,2.109-4.328,1.666-3.332,2.776-3.33,1.33,0,3.773,3.108a21.513,21.513,0,0,1,3,5,12.647,12.647,0,0,0,.889-2.331,166.954,166.954,0,0,0,5.661-24.42q5.328,1.556,10.212,3.108,4.883,1.443,4.884,3.107t-2.776,2.109q-2.662.334-3,1a99.414,99.414,0,0,1-5.438,13.432H553.31q2.552-2.774,3.551-3.664,2-1.663,2.664-1.665,1.334,0,5.218,2.554,4.549,3.441,4.551,4.883,0,1.112-2.442,2.442c-1.038.519-1.554,1.038-1.554,1.555q-.225,29.082-2.11,46.73-2.44,15.763-5.438,20.091a16.714,16.714,0,0,1-11.988,6.993q-1.555,0-2.776-3.773-1.556-4.774-12.764-8.325l.444-1.665q10.431.89,14.208.887,3.883,0,5.772-6.548,1.44-5.772,2.775-20.979,1.663-20.423,1.665-36.409h-4.774a211.63,211.63,0,0,1-6.77,29.305q-3.888,12.432-8.437,19.647a61.329,61.329,0,0,1-11.876,13.652,71.225,71.225,0,0,1-19.315,11.544l-.443-1.332a99.815,99.815,0,0,0,15.651-14.318A62.136,62.136,0,0,0,529,474.7q3.217-6.214,6.216-18.092a225.573,225.573,0,0,0,5-24.976h-6.66q-5.552,18.427-10.1,27.417a77.351,77.351,0,0,1-10.322,15.763,61.858,61.858,0,0,1-12.766,11.432l-.444-1.331a98.317,98.317,0,0,0,13.543-21.978,158.332,158.332,0,0,0,10.434-31.3h-5.217a35.746,35.746,0,0,1-2.443,4A100.9,100.9,0,0,1,502.693,452.5l-1.332-1.332a141.13,141.13,0,0,0,7.771-16.539H494.59v25.529q7.881-2.106,15.1-4.55l.444.888a106.171,106.171,0,0,1-15.541,9.656V490.68q0,8.323.444,16.316,0,1.665-4.551,2.442a19.972,19.972,0,0,1-2.886.333q-3.221,0-3.219-2.775.443-8.881.444-16.316V470.588a93.821,93.821,0,0,1-9.1,3.109c-1.259.221-1.887.7-1.887,1.443a3.88,3.88,0,0,0-.333,1.11q-.333,1-1,1-1.888,0-4.329-6.216-.777-1.666-2.442-5.661,9.99-1.221,19.092-3.108V434.625h-8.436a42.355,42.355,0,0,1-1.776,6.66,55.789,55.789,0,0,1-8.436,13.875l-.888-1q1.554-6.436,2.442-11.877.666-4.331,1.11-10.657Q469.28,424.081,469.393,413.423Z" fill="#231f20"/><path d="M512.018,527.087q-14.433,1.889-26.752,2.441V533.3q0,2.554-.111,4.772h17.983a33.944,33.944,0,0,0,2.552-2.774q3.108-3.773,4-3.775,1.108,0,5.994,4.551,2.885,2.666,2.885,3.33,0,1.89-1.665,1.888H505.246v.443q0,9.436.556,15.1,0,1.777-5.218,2.774a24.389,24.389,0,0,1-3.219.333q-2.775,0-2.775-3.107.443-5.33.444-15.1v-.443h-10.1a61.04,61.04,0,0,1-1,6.993,27.726,27.726,0,0,1-6.105,10.767,47.486,47.486,0,0,1-10.323,7.881l-1.776-.778a39.468,39.468,0,0,0,7.437-12.21q2.331-6.88,2.331-20.645a59.3,59.3,0,0,0-.777-11.544,63.223,63.223,0,0,1,12.543,4.772,82.455,82.455,0,0,0,9.1-2.774,54.375,54.375,0,0,0,11.212-5.55q3.884,2.777,6.216,4.328,3.55,2.443,3.552,3.663a1.177,1.177,0,0,1-1.332,1.332Zm-6.772,84.8a75.629,75.629,0,0,1-17.871,7.769,109.438,109.438,0,0,1-19.869,3.775l-.444-2.22a81.586,81.586,0,0,0,17.427-7.771,56.346,56.346,0,0,0,13.764-10.433q5.661,2.444,8.436,4,4.439,2.331,4.441,3.885,0,1.443-2.331,1.443Zm51.948-84.8q-13.876,1.776-25.64,2.441V533.3q0,2.554-.222,4.772H553.31a29.612,29.612,0,0,0,2.442-2.441q3.218-3.664,4.218-3.663.888,0,5.55,4.217,2.885,2.556,2.885,3.219,0,1.89-1.442,1.888H550.646q0,9.655.444,15.54,0,1-1.777,1.775,1.11.779,2.443,1.665,5,4.11,5,5.44,0,1.11-2.554,2.553-2.329,1.776-2.331,3.218v10.99l.445,19.091q0,2-5.106,2.887a22.4,22.4,0,0,1-3.22.333q-2.663,0-2.664-3.22v-.443H494.146v1.887q0,1.889-4.551,2.774a26.253,26.253,0,0,1-2.886.223q-3.108,0-3.108-3,.442-4.884.444-9.769V570.6a98.264,98.264,0,0,0-.888-13.431,86.065,86.065,0,0,1,12.543,4.551h43.846a23.118,23.118,0,0,1,2.22-1.777q-2.223-.332-2.22-3.107.442-5.55.443-15.54H531a31.825,31.825,0,0,1-.889,4,22.527,22.527,0,0,1-6.327,8.657,48.443,48.443,0,0,1-10.545,6.439l-1.665-.888a31.046,31.046,0,0,0,6.883-9.657q2.439-5.548,2.441-16.539,0-8.1-.887-11.544a74.063,74.063,0,0,1,12.876,4.772,76.728,76.728,0,0,0,8.88-2.774,49.573,49.573,0,0,0,10.989-5.55q4,2.777,6.327,4.328,3.55,2.443,3.552,3.663c0,.889-.483,1.332-1.444,1.332Zm-63.048,46.064h47.175v-8.325H494.146Zm0,12.1h47.175v-8.88H494.146Zm0,12.876h47.175v-9.769H494.146ZM523.9,603.9a128.332,128.332,0,0,1,20.868,3.219,44.534,44.534,0,0,1,10.766,4.108q4.439,2.885,4.441,6.881a6.949,6.949,0,0,1-1.554,3.552,4.3,4.3,0,0,1-2.887,1.332,9.3,9.3,0,0,1-6.216-2.664,87.81,87.81,0,0,0-25.863-15.207Z" fill="#231f20"/><path d="M260.114,131.839h-1.566l-.124-.851a1.163,1.163,0,0,1-.262.688,1.109,1.109,0,0,1-.709.163h-3.112a1.372,1.372,0,0,1-1.174-.488,2.786,2.786,0,0,1-.365-1.629v-6.906a3.02,3.02,0,0,1,.277-1.469,1.352,1.352,0,0,1,1.27-.614h5.307l.13,1.357-.605-.207-.761-.026h-3.414q-.483,0-.484.77v7.258a1.09,1.09,0,0,0,.112.589.474.474,0,0,0,.372.2h2.861c.282,0,.424-.23.424-.691v-3.6h-1.945a2.62,2.62,0,0,0-1.167.19V125.21h4.935l-.1.778v5.186Z" fill="#231f20"/><path d="M265.063,125.141l-.6-.086-.572-.035h-.815q-.442,0-.442.667v4.361a8.935,8.935,0,0,0,.129,1.791h-1.754l.06-.406.035-.338v-1.047l-.095-6.376h1.469l.078.829a1.411,1.411,0,0,1,.259-.613.841.841,0,0,1,.622-.216h1.435l.493.9-.139.285-.069.207Z" fill="#231f20"/><path d="M272.278,131.839h-1.447l-.087-.7-.12.3a.63.63,0,0,1-.656.4h-2.792a1.184,1.184,0,0,1-1.078-.544,4.053,4.053,0,0,1-.319-1.945V128.2a2.883,2.883,0,0,1,.346-1.491,1.18,1.18,0,0,1,1.048-.454h3.065a.359.359,0,0,0,.321-.13.935.935,0,0,0,.086-.509v-.3q0-.588-.416-.631l-3.809.026a1.057,1.057,0,0,0-.191.043l-.3.1.087-1.184h4.727a1.211,1.211,0,0,1,1.2.682,3.5,3.5,0,0,1,.234,1.47Zm-1.633-1.8v-2.747h-2.911q-.451,0-.451.737v2.01a1.405,1.405,0,0,0,.095.606.4.4,0,0,0,.356.139h2.478C270.5,130.785,270.645,130.537,270.645,130.04Z" fill="#231f20"/><path d="M278.1,131.839h-2.7a.668.668,0,0,1-.423-.147.857.857,0,0,1-.3-.553l-.034,1.988a8.833,8.833,0,0,0,.112,1.789h-1.115a4.513,4.513,0,0,1-.45-.061,2.094,2.094,0,0,1-.077-.812v-8.591a12.405,12.405,0,0,0-.13-1.78h1.521l.1.761q.1-.761.7-.761h2.766a1.266,1.266,0,0,1,1.115.493,3.079,3.079,0,0,1,.319,1.659v3.846a3.313,3.313,0,0,1-.3,1.677A1.206,1.206,0,0,1,278.1,131.839Zm-.132-1.8v-4.6a1.258,1.258,0,0,0-.091-.589.375.375,0,0,0-.348-.147h-2.45q-.438,0-.438.736v4.6a1.2,1.2,0,0,0,.085.579c.052.11.169.165.353.165h2.45Q277.973,130.785,277.972,130.041Z" fill="#231f20"/><path d="M286.776,130.646l-.147,1.193h-4.917a1.214,1.214,0,0,1-1.08-.492,3.142,3.142,0,0,1-.32-1.677v-3.846a3.122,3.122,0,0,1,.328-1.655,1.19,1.19,0,0,1,1.072-.5h3.63a1.267,1.267,0,0,1,1.115.493,3.079,3.079,0,0,1,.319,1.659v2.558h-4.934v1.66a1.347,1.347,0,0,0,.1.6.4.4,0,0,0,.353.139h3.581A2.411,2.411,0,0,0,286.776,130.646Zm-1.529-3.3v-1.9a1.273,1.273,0,0,0-.091-.592.374.374,0,0,0-.348-.148h-2.519q-.447,0-.447.74v1.9Z" fill="#231f20"/><path d="M146.819,477.615h-3.693l.035,3.612c.011.058.02.117.026.177a1.173,1.173,0,0,0,.06.247h-1.988l.078-.372.043-.354v-.891l-.026-9.047-.1-.442h5.557a1.69,1.69,0,0,1,1.349.476,2.747,2.747,0,0,1,.406,1.737v2.636a3.059,3.059,0,0,1-.319,1.607A1.574,1.574,0,0,1,146.819,477.615Zm.067-2.126v-2.818a2.112,2.112,0,0,0-.121-.777.465.465,0,0,0-.44-.182h-3.2v4.736h3.2Q146.886,476.448,146.886,475.489Z" fill="#231f20"/><path d="M155.751,480.458l-.147,1.193h-4.917a1.217,1.217,0,0,1-1.081-.492,3.154,3.154,0,0,1-.319-1.677v-3.846a3.122,3.122,0,0,1,.328-1.655,1.19,1.19,0,0,1,1.072-.5h3.629a1.264,1.264,0,0,1,1.115.493,3.068,3.068,0,0,1,.32,1.659v2.558h-4.935v1.66a1.362,1.362,0,0,0,.095.6.4.4,0,0,0,.354.139h3.58A2.413,2.413,0,0,0,155.751,480.458Zm-1.53-3.3v-1.9a1.29,1.29,0,0,0-.09-.592.374.374,0,0,0-.348-.148h-2.52q-.447,0-.447.74v1.9Z" fill="#231f20"/><path d="M163.078,481.651H161.63l-.087-.7-.12.3a.629.629,0,0,1-.655.4h-2.793a1.184,1.184,0,0,1-1.078-.544,4.056,4.056,0,0,1-.318-1.945v-1.149a2.883,2.883,0,0,1,.346-1.491,1.178,1.178,0,0,1,1.048-.454h3.065a.357.357,0,0,0,.32-.13.926.926,0,0,0,.086-.509v-.3q0-.588-.415-.631l-3.81.026a1.037,1.037,0,0,0-.19.043l-.3.1.086-1.184h4.728a1.211,1.211,0,0,1,1.2.683,3.51,3.51,0,0,1,.233,1.469Zm-1.634-1.8v-2.747h-2.911c-.3,0-.45.246-.45.737v2.01a1.39,1.39,0,0,0,.095.606.4.4,0,0,0,.355.139h2.478Q161.445,480.6,161.444,479.852Z" fill="#231f20"/><path d="M169.67,480.458l-.121,1.193H165.3a1.166,1.166,0,0,1-1.175-.7,3.709,3.709,0,0,1-.217-1.469v-3.846a3.684,3.684,0,0,1,.217-1.461,1.168,1.168,0,0,1,1.175-.691h4.218l.12,1.184-.25-.086-.172-.018-.492-.043h-2.846q-.44,0-.44.736v4.6a1.2,1.2,0,0,0,.086.579q.078.165.354.165h2.9A2.307,2.307,0,0,0,169.67,480.458Z" fill="#231f20"/><path d="M176.971,481.651h-1.746l.069-.745.026-1.048v-4.6a1.346,1.346,0,0,0-.086-.554.329.329,0,0,0-.327-.182h-2.474c-.294,0-.44.246-.44.736v4.6a10.247,10.247,0,0,0,.112,1.793h-1.772l.066-.406a1.648,1.648,0,0,0,.038-.338l.026-1.046-.026-8.589a2.475,2.475,0,0,0-.038-.432l-.066-.295h1.66v3.544l.112-.251.112-.19.164-.129.267-.035h2.787a1.21,1.21,0,0,1,1.208.675,3.63,3.63,0,0,1,.224,1.479Z" fill="#231f20"/><path d="M746.478,826.242h-5.644l.069-.381.052-.336v-9.646a1.1,1.1,0,0,0-.034-.336,1.37,1.37,0,0,0-.087-.406h5.644a1.526,1.526,0,0,1,1.236.474,2.712,2.712,0,0,1,.371,1.66v1.686a2.014,2.014,0,0,1-.268,1.191,1.325,1.325,0,0,1-1.115.4,1.369,1.369,0,0,1,1.081.353,2.025,2.025,0,0,1,.3,1.28v1.892Q748.085,826.244,746.478,826.242Zm-.113-7.068v-2.035a2.088,2.088,0,0,0-.068-.672.423.423,0,0,0-.389-.164H742.7v3.681h3.216a.391.391,0,0,0,.371-.18A1.73,1.73,0,0,0,746.365,819.174Zm0,5.06v-2.3a2.029,2.029,0,0,0-.068-.659.423.423,0,0,0-.389-.165H742.7v3.967h3.216a.4.4,0,0,0,.371-.165A2.1,2.1,0,0,0,746.365,824.234Z" fill="#231f20"/><path d="M755.542,826.242h-1.448l-.086-.7-.121.3a.631.631,0,0,1-.656.4h-2.792a1.183,1.183,0,0,1-1.078-.545,4.054,4.054,0,0,1-.318-1.944V822.6a2.873,2.873,0,0,1,.346-1.491,1.181,1.181,0,0,1,1.048-.455H753.5a.359.359,0,0,0,.32-.129.926.926,0,0,0,.086-.509v-.3q0-.588-.415-.631l-3.809.025a1,1,0,0,0-.191.044l-.3.1.087-1.185H754a1.213,1.213,0,0,1,1.2.684,3.5,3.5,0,0,1,.233,1.469Zm-1.634-1.8V821.7H751c-.3,0-.45.245-.45.737v2.009a1.392,1.392,0,0,0,.1.607.4.4,0,0,0,.355.139h2.479Q753.908,825.188,753.908,824.442Z" fill="#231f20"/><path d="M767.173,826.242h-1.789a10.3,10.3,0,0,0,.13-1.793v-4.6a1.846,1.846,0,0,0-.044-.51.379.379,0,0,0-.4-.227h-2.132a.36.36,0,0,0-.381.235,1.783,1.783,0,0,0-.043.5l.086,6.394h-1.729l.035-.407.034-.338v-5.649a1.727,1.727,0,0,0-.064-.588c-.043-.1-.159-.149-.348-.149h-2.114q-.438,0-.438.737v4.6a10.216,10.216,0,0,0,.113,1.793h-1.773l.061-.406a1.791,1.791,0,0,0,.035-.338l.034-1.047-.034-5.633a2.674,2.674,0,0,0-.035-.431l-.061-.313h1.591l.034.727.121-.389.1-.19a.572.572,0,0,1,.371-.148h3.014a.884.884,0,0,1,.63.164,1.094,1.094,0,0,1,.267.632l.216-.561c.081-.157.269-.235.562-.235h2.159a1.473,1.473,0,0,1,1.281.524,3.229,3.229,0,0,1,.376,1.812v4.041A8.836,8.836,0,0,0,767.173,826.242Z" fill="#231f20"/><path d="M773.048,826.242h-2.766q-.579,0-.666-.752l-.129.752h-1.521a11.078,11.078,0,0,0,.13-1.8v-7.518a11.862,11.862,0,0,0-.13-1.789h1.659v3.646l.13-.285a.577.577,0,0,1,.63-.424h2.665a1.262,1.262,0,0,1,1.113.493,3.086,3.086,0,0,1,.319,1.66v3.845a3.234,3.234,0,0,1-.32,1.664A1.211,1.211,0,0,1,773.048,826.242Zm-.1-1.8v-4.6a1.253,1.253,0,0,0-.09-.588.374.374,0,0,0-.348-.149h-2.451q-.438,0-.438.737v4.6a1.193,1.193,0,0,0,.086.58c.052.11.169.165.352.165h2.451C772.807,825.188,772.952,824.939,772.952,824.443Z" fill="#231f20"/><path d="M780.322,826.242h-3.63a1.216,1.216,0,0,1-1.08-.492,3.16,3.16,0,0,1-.319-1.678v-3.845a3.122,3.122,0,0,1,.328-1.655,1.188,1.188,0,0,1,1.071-.5h3.63a1.267,1.267,0,0,1,1.116.493,3.1,3.1,0,0,1,.319,1.66v3.845a3.257,3.257,0,0,1-.319,1.664A1.214,1.214,0,0,1,780.322,826.242Zm-.094-1.8v-4.6a1.263,1.263,0,0,0-.091-.588.374.374,0,0,0-.348-.149H777.27c-.3,0-.448.246-.448.737v4.6a1.4,1.4,0,0,0,.1.606.4.4,0,0,0,.353.139h2.519C780.081,825.188,780.228,824.939,780.228,824.443Z" fill="#231f20"/><path d="M787.6,826.242h-3.63a1.214,1.214,0,0,1-1.08-.492,3.147,3.147,0,0,1-.321-1.678v-3.845a3.12,3.12,0,0,1,.329-1.655,1.188,1.188,0,0,1,1.072-.5h3.63a1.265,1.265,0,0,1,1.114.493,3.075,3.075,0,0,1,.32,1.66v3.845a3.234,3.234,0,0,1-.32,1.664A1.211,1.211,0,0,1,787.6,826.242Zm-.1-1.8v-4.6a1.253,1.253,0,0,0-.09-.588.376.376,0,0,0-.349-.149h-2.519c-.3,0-.446.246-.446.737v4.6a1.424,1.424,0,0,0,.093.606.4.4,0,0,0,.353.139h2.519C787.356,825.188,787.5,824.939,787.5,824.443Z" fill="#231f20"/><path d="M797.969,826.242h-4.611l-.13-1.193.251.109.269.036.764.036h2.9a.486.486,0,0,0,.373-.156,1.128,1.128,0,0,0,.1-.572v-.694a1.308,1.308,0,0,0-.1-.581.514.514,0,0,0-.371-.139h-2.817q-1.367,0-1.366-2.188v-.647q0-2.178,1.366-2.179h4.632l.147,1.185-.26-.087-.276-.061-.743-.025h-2.921a.357.357,0,0,0-.329.139.921.921,0,0,0-.113.544v.484a.88.88,0,0,0,.113.526.34.34,0,0,0,.329.157h2.748a1.265,1.265,0,0,1,1.1.466,2.364,2.364,0,0,1,.354,1.507v1.714Q799.373,826.243,797.969,826.242Z" fill="#231f20"/><path d="M806.77,826.242h-1.747l.07-.745.025-1.048v-4.6a1.346,1.346,0,0,0-.086-.554.329.329,0,0,0-.327-.183H802.23c-.292,0-.439.246-.439.737v4.6a10.239,10.239,0,0,0,.112,1.793h-1.771l.065-.406a1.579,1.579,0,0,0,.038-.338l.026-1.047-.026-8.588a2.388,2.388,0,0,0-.038-.432l-.065-.294h1.659v3.543l.112-.25.113-.192.164-.129.266-.035h2.787a1.21,1.21,0,0,1,1.208.676,3.616,3.616,0,0,1,.224,1.479Z" fill="#231f20"/><path d="M812.635,826.242h-3.63a1.215,1.215,0,0,1-1.08-.492,3.159,3.159,0,0,1-.32-1.678v-3.845a3.12,3.12,0,0,1,.329-1.655,1.186,1.186,0,0,1,1.071-.5h3.63a1.266,1.266,0,0,1,1.115.493,3.086,3.086,0,0,1,.319,1.66v3.845a3.246,3.246,0,0,1-.319,1.664A1.213,1.213,0,0,1,812.635,826.242Zm-.1-1.8v-4.6a1.25,1.25,0,0,0-.091-.588.372.372,0,0,0-.347-.149h-2.52q-.447,0-.447.737v4.6a1.405,1.405,0,0,0,.094.606.4.4,0,0,0,.353.139h2.52C812.394,825.188,812.54,824.939,812.54,824.443Z" fill="#231f20"/><path d="M819.91,826.242h-3.63a1.216,1.216,0,0,1-1.08-.492,3.16,3.16,0,0,1-.319-1.678v-3.845a3.122,3.122,0,0,1,.328-1.655,1.188,1.188,0,0,1,1.071-.5h3.63a1.264,1.264,0,0,1,1.115.493,3.084,3.084,0,0,1,.32,1.66v3.845a3.244,3.244,0,0,1-.32,1.664A1.213,1.213,0,0,1,819.91,826.242Zm-.095-1.8v-4.6a1.267,1.267,0,0,0-.09-.588.374.374,0,0,0-.348-.149h-2.52c-.3,0-.447.246-.447.737v4.6a1.387,1.387,0,0,0,.1.606.4.4,0,0,0,.352.139h2.52C819.669,825.188,819.815,824.939,819.815,824.443Z" fill="#231f20"/><path d="M827.159,825.006l-.1,1.236h-2.818a1.242,1.242,0,0,1-1.063-.5,3.453,3.453,0,0,1-.337-1.719v-4.935h-.968v-1.012h.968v-1.65l1.53-.32v1.97h2.4v1.012h-2.4v5.237q0,.8.517.865h1.094A2.7,2.7,0,0,0,827.159,825.006Z" fill="#231f20"/><path d="M587.115,905.979c1.517-1.726,2.87-3.359,4.06-4.875h-3.919a29.14,29.14,0,0,0-4.666.256,4.821,4.821,0,0,0-2.123.934l.4-2.193,1.563.046h7.909l3.64-.023.933-.023-.606.7c-5.763,6.252-9.356,10.358-11.433,13.041l3.826.094,1.658.023a20.208,20.208,0,0,0,4.689-.4,4.2,4.2,0,0,0,2.192-1.259l-.489,2.5H579.09Q585,908.394,587.115,905.979Z" fill="#231f20"/><path d="M609.349,912.652a5.427,5.427,0,0,1-2.333,1.8,8.422,8.422,0,0,1-3.336.63,6.088,6.088,0,0,1-4.154-1.19,4.6,4.6,0,0,1-1.353-3.709v-1.587l.023-1.12a57.441,57.441,0,0,0-.163-5.809,2.733,2.733,0,0,0-.536-1.517h3.709c-.279.21-.467.77-.56,1.7q-.139,1.434-.139,6.229c0,2.333.326,3.872.956,4.619a4.017,4.017,0,0,0,3.266,1.143,3.923,3.923,0,0,0,3.454-1.423c.675-.933,1-2.59,1-4.946q0-4.515-.14-5.74a2.544,2.544,0,0,0-.537-1.586h3.71a2.724,2.724,0,0,0-.561,1.563c-.023.42-.069,1.144-.093,2.146s-.046,2.217-.046,3.617.023,2.473.046,3.219.047,1.587.093,2.543a2.959,2.959,0,0,0,.561,1.564h-2.963Z" fill="#231f20"/><path d="M617.3,909.27a20.851,20.851,0,0,0,.233,3.732,3.989,3.989,0,0,0,.652,1.8h-3.149a4.956,4.956,0,0,0,.771-2.543,54.706,54.706,0,0,0,.255-6.136,24.577,24.577,0,0,0-.255-4.573,1.743,1.743,0,0,0-.771-1.4h2.847c.49,0,1.073.4,1.7,1.19l.373.49,2.38,3.01c2.5,3.2,4.479,5.645,5.972,7.372l.024-6.416c0-.933-.024-1.772-.047-2.5s-.07-1.26-.116-1.656a2.676,2.676,0,0,0-.537-1.494h2.566a1,1,0,0,0-.326.56,4.524,4.524,0,0,0-.234,1.1q0,.209-.07,2.029c-.047,1.214-.07,2.356-.07,3.453v7.583h-1.749c-.63-.84-2.123-2.707-4.527-5.576l-6.019-7.419Z" fill="#231f20"/><path d="M636.271,900.4c.093.141.187.281.281.444a1.868,1.868,0,0,1,.232.886,2.244,2.244,0,0,1-.559,1.4,4.885,4.885,0,0,1-1.61,1.119l.256-.607a2.023,2.023,0,0,0,.117-.559,2.519,2.519,0,0,0-.047-.4c-.046-.14-.116-.3-.186-.466a2.787,2.787,0,0,0-.3-.491c-.139-.163-.3-.373-.489-.583l1.866-1.283C636.015,900.077,636.154,900.264,636.271,900.4Z" fill="#231f20"/><path d="M652.509,913.772a2.692,2.692,0,0,0,.956.35,4.486,4.486,0,0,0,1.143.141,3.013,3.013,0,0,0,1.867-.561,1.637,1.637,0,0,0,.747-1.376,1.671,1.671,0,0,0-.491-1.143,8.737,8.737,0,0,0-2.1-1.213,7.469,7.469,0,0,1-2.31-1.448,2.206,2.206,0,0,1-.7-1.609,2.162,2.162,0,0,1,1.1-1.89,5.646,5.646,0,0,1,3.055-.7h.514a6.652,6.652,0,0,1,.7.071c.35.046.654.069.91.092.187.024.443.071.793.141l-.07,1.936a3.421,3.421,0,0,0-1.213-1.12,3.69,3.69,0,0,0-1.656-.349,2.674,2.674,0,0,0-1.493.4,1.179,1.179,0,0,0-.584,1.05c0,.723.91,1.54,2.73,2.426l.256.14a7.228,7.228,0,0,1,2.17,1.376,1.9,1.9,0,0,1,.561,1.4,2.674,2.674,0,0,1-1.424,2.239,6.2,6.2,0,0,1-3.476.957,7.945,7.945,0,0,1-2.45-.3c-.653-.186-.98-.443-.98-.746l.023-.63a5.572,5.572,0,0,1,.141-1.12A3.346,3.346,0,0,0,652.509,913.772Z" fill="#231f20"/><path d="M670.775,901.523l-.07,9.986v.723a10.053,10.053,0,0,0,.117,1.587,2.451,2.451,0,0,0,.536.98h-3.1c.489-.373.863-1.61,1.073-3.71a84.019,84.019,0,0,0,.373-9.356,2.808,2.808,0,0,0-.14-.932,2.441,2.441,0,0,0-.537-.654h3.034a1.672,1.672,0,0,1,.466.046,1.188,1.188,0,0,1,.256.374L677.7,911.6l5.437-10.943.326-.42a1.526,1.526,0,0,1,.606-.093h2.614a3.237,3.237,0,0,0-.49,1.19,15.041,15.041,0,0,0-.14,2.38,75.5,75.5,0,0,0,.28,8.119,5.553,5.553,0,0,0,1,2.963h-4.013a3.94,3.94,0,0,0,.56-1.213c.047-.28.093-.63.14-1.073.024-.42.046-.771.046-1.027l-.046-.14-.047-1.843-.139-7.98-6.813,13.6Z" fill="#231f20"/><path d="M697.535,914.938l-.117-.023v-.186l-.093-1.68a4.161,4.161,0,0,1-1.563,1.493,4.425,4.425,0,0,1-3.943.141,2.793,2.793,0,0,1-1.236-1.074,4.126,4.126,0,0,1-.443-1.213,18.049,18.049,0,0,1-.118-2.334v-.443l.047-3.756v-.4a.91.91,0,0,0-.139-.561.718.718,0,0,0-.42-.326l1.772-.233h.117l.07-.024a.67.67,0,0,1,.443.117,1.321,1.321,0,0,1,.117.676l-.047,5.32v.14a3.8,3.8,0,0,0,.583,2.38,2.971,2.971,0,0,0,4.06-.164,5.892,5.892,0,0,0,.63-3.242v-2.637a6.838,6.838,0,0,0-.14-1.656.913.913,0,0,0-.4-.677l2.659-.257c-.024.3-.069.677-.093,1.12s-.047.933-.047,1.447l-.023,3.663v1.283c0,.583,0,1.026.023,1.33a3.468,3.468,0,0,0,.116.793,1.327,1.327,0,0,0,.444.84l-2.123.139Z" fill="#231f20"/><path d="M703.018,913.772a2.685,2.685,0,0,0,.956.35,4.486,4.486,0,0,0,1.143.141,3.008,3.008,0,0,0,1.866-.561,1.634,1.634,0,0,0,.747-1.376,1.674,1.674,0,0,0-.49-1.143,8.737,8.737,0,0,0-2.1-1.213,7.456,7.456,0,0,1-2.31-1.448,2.206,2.206,0,0,1-.7-1.609,2.162,2.162,0,0,1,1.1-1.89,5.647,5.647,0,0,1,3.056-.7h.513a6.677,6.677,0,0,1,.7.071c.35.046.653.069.91.092.187.024.443.071.793.141l-.07,1.936a3.43,3.43,0,0,0-1.213-1.12,3.69,3.69,0,0,0-1.656-.349,2.672,2.672,0,0,0-1.493.4,1.179,1.179,0,0,0-.584,1.05c0,.723.91,1.54,2.73,2.426l.256.14a7.228,7.228,0,0,1,2.17,1.376,1.9,1.9,0,0,1,.56,1.4,2.673,2.673,0,0,1-1.423,2.239,6.2,6.2,0,0,1-3.476.957,7.945,7.945,0,0,1-2.45-.3c-.654-.186-.98-.443-.98-.746l.023-.63a5.635,5.635,0,0,1,.14-1.12A3.354,3.354,0,0,0,703.018,913.772Z" fill="#231f20"/><path d="M711.742,901.477l2.03-1.074,1.143,1.564-1.982,1.05Zm.654,12.552a10.708,10.708,0,0,0,.139-2.146V908.43a19.84,19.84,0,0,0-.139-2.987c-.093-.49-.234-.77-.42-.863l1.422-.07,1.238-.163c-.024.163-.047.443-.071.816s-.046.747-.046,1.12l-.024,4.34v1.306a11.808,11.808,0,0,0,.117,2.077,1.064,1.064,0,0,0,.444.793h-3.1A1.234,1.234,0,0,0,712.4,914.029Z" fill="#231f20"/><path d="M722.73,915.079a5.783,5.783,0,0,1-3.989-1.447,4.739,4.739,0,0,1-1.61-3.709,5.073,5.073,0,0,1,1.82-4.036,6.779,6.779,0,0,1,4.643-1.564l1.4.071,1.237.21-.093,2.4a3.088,3.088,0,0,0-1.05-1.424,2.815,2.815,0,0,0-1.633-.467,3.777,3.777,0,0,0-2.94,1.307,4.83,4.83,0,0,0-1.143,3.337,3.9,3.9,0,0,0,1.143,2.892,3.849,3.849,0,0,0,2.893,1.167,5.046,5.046,0,0,0,1.89-.35,3.351,3.351,0,0,0,1.4-.933C726.7,914.122,725.134,915.079,722.73,915.079Z" fill="#231f20"/><path d="M748.6,903.273a3.841,3.841,0,0,0-1.611-1.773,5.037,5.037,0,0,0-2.566-.63,6.307,6.307,0,0,0-4.6,1.61,6.059,6.059,0,0,0-1.656,4.48,6.134,6.134,0,0,0,1.819,4.643,6.674,6.674,0,0,0,4.876,1.773,8.166,8.166,0,0,0,1.4-.094,6.428,6.428,0,0,0,1.283-.373,5.713,5.713,0,0,0,2.192-1.33,4.2,4.2,0,0,1-2.123,2.52,7.807,7.807,0,0,1-4.013.98,8.245,8.245,0,0,1-5.832-2.1,6.932,6.932,0,0,1-2.287-5.366,7.069,7.069,0,0,1,2.45-5.693,10.219,10.219,0,0,1,6.789-2.053c.42,0,1.074.047,1.984.14s1.609.14,2.053.14Z" fill="#231f20"/><path d="M761.528,905.606a4.494,4.494,0,0,1,1.423,3.524,5.551,5.551,0,0,1-5.972,5.949c-3.523,0-5.577-1.89-5.577-5.156a5.19,5.19,0,0,1,1.7-4.06,6.3,6.3,0,0,1,4.387-1.54A5.824,5.824,0,0,1,761.528,905.606Zm-7.046.654a3.917,3.917,0,0,0-.653,1.33,6.231,6.231,0,0,0-.257,1.819c0,2.917,1.54,4.807,3.99,4.807a2.775,2.775,0,0,0,2.4-1.144,5.844,5.844,0,0,0,.816-3.359,4.752,4.752,0,0,0-1.073-3.267,3.221,3.221,0,0,0-2.683-1.283A3.134,3.134,0,0,0,754.482,906.26Z" fill="#231f20"/><path d="M765.47,913.889a16.769,16.769,0,0,0,.139-2.66l-.023-1.959v-5.88a24.2,24.2,0,0,0-.14-3.266c-.092-.537-.233-.863-.443-.957l2.684-.4c-.024.117-.047.583-.071,1.446s-.047,1.424-.047,1.726l-.023,8.119v1.821c0,.513,0,.956.023,1.306a5.328,5.328,0,0,0,.094.817,1.063,1.063,0,0,0,.443.793H765A1.472,1.472,0,0,0,765.47,913.889Z" fill="#231f20"/><path d="M771.069,913.889a16.611,16.611,0,0,0,.14-2.66l-.023-1.959v-5.88a24.2,24.2,0,0,0-.14-3.266c-.093-.537-.234-.863-.443-.957l2.683-.4c-.023.117-.047.583-.07,1.446s-.047,1.424-.047,1.726l-.023,8.119v1.821c0,.513,0,.956.023,1.306a5.2,5.2,0,0,0,.094.817,1.063,1.063,0,0,0,.443.793h-3.1A1.472,1.472,0,0,0,771.069,913.889Z" fill="#231f20"/><path d="M785.464,912.582c0,.607-.443,1.167-1.33,1.7a5.8,5.8,0,0,1-3.01.794,5.3,5.3,0,0,1-3.873-1.447,5.168,5.168,0,0,1-1.47-3.9,5.239,5.239,0,0,1,1.54-3.966,5.7,5.7,0,0,1,4.083-1.447c2.543,0,4.246,1.237,4.246,3.01,0,.373-.233.606-.723.724a25.983,25.983,0,0,1-4.106.186l-1.563-.023-1.05-.024a2.712,2.712,0,0,0-.163.63L778,909.5c0,2.519,1.47,4.129,3.989,4.129a5.174,5.174,0,0,0,1.843-.3,6.407,6.407,0,0,0,1.634-1.026Zm-6.86-5.062.654.023,1.166.023h.374a10.158,10.158,0,0,0,2.192-.139.63.63,0,0,0,.42-.63,1.494,1.494,0,0,0-.653-1.191,2.447,2.447,0,0,0-1.586-.512,2.8,2.8,0,0,0-1.843.676,2.758,2.758,0,0,0-.98,1.75Z" fill="#231f20"/><path d="M792.952,915.079a5.781,5.781,0,0,1-3.989-1.447,4.739,4.739,0,0,1-1.61-3.709,5.073,5.073,0,0,1,1.82-4.036,6.777,6.777,0,0,1,4.642-1.564l1.4.071,1.237.21-.094,2.4a3.079,3.079,0,0,0-1.049-1.424,2.817,2.817,0,0,0-1.633-.467,3.779,3.779,0,0,0-2.941,1.307,4.834,4.834,0,0,0-1.142,3.337,3.9,3.9,0,0,0,1.142,2.892,3.85,3.85,0,0,0,2.894,1.167,5.046,5.046,0,0,0,1.89-.35,3.357,3.357,0,0,0,1.4-.933C796.918,914.122,795.355,915.079,792.952,915.079Z" fill="#231f20"/><path d="M798.271,905.4v-.723l1.331-.093.069-2.847,1.983-.489-.093,3.336h2.193l.186.024.047.116c0,.186-.186.35-.559.513a5.7,5.7,0,0,1-1.657.163h-.21l-.14,6.02v.163c0,1.493.42,2.147,1.377,2.147a1.818,1.818,0,0,0,.816-.164,3.208,3.208,0,0,0,.817-.537l-.094,1.028a3.225,3.225,0,0,1-1.166.746,3.7,3.7,0,0,1-1.423.28c-1.517,0-2.31-1.026-2.31-2.87V912l.14-6.556Z" fill="#231f20"/><path d="M806.04,901.477l2.03-1.074,1.143,1.564-1.983,1.05Zm.653,12.552a10.608,10.608,0,0,0,.14-2.146V908.43a19.655,19.655,0,0,0-.14-2.987c-.092-.49-.233-.77-.42-.863l1.423-.07,1.238-.163c-.024.163-.047.443-.071.816s-.047.747-.047,1.12l-.023,4.34v1.306a11.808,11.808,0,0,0,.117,2.077,1.061,1.061,0,0,0,.444.793h-3.1A1.229,1.229,0,0,0,806.693,914.029Z" fill="#231f20"/><path d="M821.555,905.606a4.494,4.494,0,0,1,1.423,3.524,5.552,5.552,0,0,1-5.973,5.949c-3.523,0-5.576-1.89-5.576-5.156a5.187,5.187,0,0,1,1.7-4.06,6.293,6.293,0,0,1,4.387-1.54A5.826,5.826,0,0,1,821.555,905.606Zm-7.046.654a3.936,3.936,0,0,0-.654,1.33,6.232,6.232,0,0,0-.256,1.819c0,2.917,1.54,4.807,3.989,4.807a2.773,2.773,0,0,0,2.4-1.144,5.843,5.843,0,0,0,.817-3.359,4.752,4.752,0,0,0-1.074-3.267,3.219,3.219,0,0,0-2.682-1.283A3.131,3.131,0,0,0,814.509,906.26Z" fill="#231f20"/><path d="M825.474,914.029a10.708,10.708,0,0,0,.139-2.146v-2.894a22.429,22.429,0,0,0-.139-3.219,1.462,1.462,0,0,0-.444-.957l2.5-.233.071.536.07.608v.3a5.377,5.377,0,0,1,1.7-1.306,5.547,5.547,0,0,1,2.123-.4,2.717,2.717,0,0,1,2.38.957c.443.654.677,2.053.677,4.223v2.986a7.925,7.925,0,0,0,.116,1.586,1.109,1.109,0,0,0,.443.724h-2.636l.093-2.613.024-3.08v-.56a3.73,3.73,0,0,0-.514-2.426,2.53,2.53,0,0,0-1.819-.514,2.7,2.7,0,0,0-2.077.677c-.4.467-.607,1.61-.607,3.406v2.194a13.4,13.4,0,0,0,.117,2.17,1.139,1.139,0,0,0,.444.746h-3.1A1.234,1.234,0,0,0,825.474,914.029Z" fill="#231f20"/><path d="M844.86,907.4c-.816-1.8-1.4-2.707-1.75-2.776l2.007-.187h.234c.4,0,1.1,1.423,2.076,4.27l1.633,4.549c.77-1.8,1.423-3.453,2.006-4.969.21-.724.4-1.33.537-1.8a4.583,4.583,0,0,0,.164-1.073L851.7,905l-.186-.42h2.845a11.931,11.931,0,0,0-1.959,3.289c-.933,1.914-1.959,4.27-3.056,7.046h-1.611A79.226,79.226,0,0,0,844.86,907.4Z" fill="#231f20"/><path d="M864.831,905.606a4.494,4.494,0,0,1,1.423,3.524,5.551,5.551,0,0,1-5.973,5.949c-3.522,0-5.576-1.89-5.576-5.156a5.19,5.19,0,0,1,1.7-4.06,6.3,6.3,0,0,1,4.387-1.54A5.826,5.826,0,0,1,864.831,905.606Zm-7.046.654a3.917,3.917,0,0,0-.653,1.33,6.231,6.231,0,0,0-.257,1.819c0,2.917,1.54,4.807,3.989,4.807a2.776,2.776,0,0,0,2.4-1.144,5.844,5.844,0,0,0,.816-3.359,4.757,4.757,0,0,0-1.073-3.267,3.222,3.222,0,0,0-2.683-1.283A3.133,3.133,0,0,0,857.785,906.26Z" fill="#231f20"/><path d="M868.772,913.889a16.611,16.611,0,0,0,.14-2.66l-.023-1.959v-5.88a24.2,24.2,0,0,0-.14-3.266c-.093-.537-.233-.863-.443-.957l2.683-.4c-.023.117-.047.583-.07,1.446s-.047,1.424-.047,1.726l-.023,8.119v1.821c0,.513,0,.956.023,1.306a5.328,5.328,0,0,0,.094.817,1.063,1.063,0,0,0,.443.793h-3.1A1.472,1.472,0,0,0,868.772,913.889Z" fill="#231f20"/><path d="M874.4,913.586l2.192-1.12,1.377,1.47-2.076,1.143Z" fill="#231f20"/><path d="M889.449,898.833h-8.212v-1.546h10.024v1.546L884.136,914.8h-1.861Z" fill="#231f20"/><path d="M408.414,928.189a12.627,12.627,0,0,0,2.24.246c.175.035.526.069,1.015.174l1.19-.315.736-.069c.63,0,3.325,2.379,8.086,7.105,1.96,1.96,4.305,4.2,7.035,6.756,2.416,2.275,4.691,4.34,6.791,6.195V940.44q0-5.879-.21-7.56a10.932,10.932,0,0,0-.175-1.785,2.229,2.229,0,0,0-.525-1.12c-.491-.63-1.54-1.016-3.116-1.191v-.6l2.17.175,2.8.385,2.66-.35,1.96-.21v.6c-1.679.175-2.66.736-2.974,1.716a16.513,16.513,0,0,0-.665,5c0,.945,0,1.855-.036,2.8-.105,3.115-.174,4.97-.174,5.6l.139,10.221-1.435-.175L426.3,944.5c-1.365-1.295-2.59-2.485-3.745-3.57l-3.291-3.045c-.735-.7-1.75-1.611-3.045-2.766l-2.835-2.52v7.6c0,1.016.035,2.346.069,3.991l.106,3.465a12.241,12.241,0,0,0,.49,3.571,3.039,3.039,0,0,0,2.345,1.715,5.959,5.959,0,0,0,1.435.175v.6h-1.5c-.245-.035-.6-.07-.98-.14l-2.835-.421-2.871.386-2.065.175v-.6a3.306,3.306,0,0,0,3.185-1.54q.84-1.522.841-7.876v-8.471c0-2.8-.316-4.585-.946-5.321-.594-.734-1.855-1.12-3.711-1.12v-.6Z" fill="#231f20"/><path d="M445.725,943.556a.9.9,0,0,0-.946.525,3.071,3.071,0,0,0-.139,1.19,7.071,7.071,0,0,0,2.17,5.286,7.494,7.494,0,0,0,5.46,2.1,8.624,8.624,0,0,0,5.566-2l.385.56c-1.785,1.924-4.446,2.9-7.911,2.9-5.846,0-9.381-3.08-9.381-8.086a8.554,8.554,0,0,1,2.66-6.476,9.088,9.088,0,0,1,6.581-2.554,8.959,8.959,0,0,1,5.391,1.644,4.756,4.756,0,0,1,2.24,3.921l-.071.7-.035.14Zm8.365-1.5a3.785,3.785,0,0,0-1.365-2.941,5.02,5.02,0,0,0-6.651.071,5.015,5.015,0,0,0-1.365,3.465l8.3-.1C453.74,942.506,454.09,942.366,454.09,942.051Z" fill="#231f20"/><path d="M476.805,939.391a7.876,7.876,0,0,1-.315,12.461,11.26,11.26,0,0,1-6.966,2.205,10.939,10.939,0,0,1-7.211-2.485,7.656,7.656,0,0,1-2.94-6.091,7.519,7.519,0,0,1,3.221-6.335,11.377,11.377,0,0,1,6.965-2.17A10.9,10.9,0,0,1,476.805,939.391Zm-2.521.769a5.346,5.346,0,0,0-4.725-2.415,5.29,5.29,0,0,0-4.691,2.415,9.191,9.191,0,0,0-1.4,5.321,8.931,8.931,0,0,0,1.644,5.706,5.377,5.377,0,0,0,4.411,2.1,5.3,5.3,0,0,0,4.726-2.45,9.188,9.188,0,0,0,1.4-5.32A9.659,9.659,0,0,0,474.284,940.16Z" fill="#231f20"/><path d="M483.943,943.906h1.891l4.76-.07V946.6l-1.435-.036-3.325-.035-3.291.035-1.435.036v-2.766Z" fill="#231f20"/><path d="M497.7,933.16v4.726l5.216-.035v1.224l-5.216-.069-.07,7.875a10.512,10.512,0,0,0,.6,4.06,3.391,3.391,0,0,0,3.36,1.856,5.508,5.508,0,0,0,1.715-.28,8.359,8.359,0,0,0,2.1-1.05l.455.455a8.525,8.525,0,0,1-5.776,2.065c-2.135,0-3.64-.525-4.585-1.54-.945-1.051-1.4-2.9-1.4-5.531v-.56l.139-7.35h-3.5v-.771c3.221-.315,5.321-2.1,5.916-5.075Z" fill="#231f20"/><path d="M513.763,937.045l-.21,2.45-.14,3.221.385.035c1.261-3.745,3.081-5.461,5.5-5.461a4.019,4.019,0,0,1,1.75.386,1.505,1.505,0,0,1,.98,1.4c0,.736-.525,1.226-1.575,1.506a3.921,3.921,0,0,0-1.12-.841,2.491,2.491,0,0,0-1.19-.279c-1.576,0-2.731.979-3.431,2.975a13.811,13.811,0,0,0-.77,4.935c0,2.66.246,4.271.77,4.831.6.665,1.681.98,3.325.98v.525h-1.295c-.349-.035-.8-.105-1.4-.14a23.327,23.327,0,0,1-3.08-.35l-2.87.35-2.135.14v-.525a3.155,3.155,0,0,0,2.625-.911c.455-.629.7-2.309.7-5.04v-2.485c0-2.835-.21-4.516-.665-5.075s-1.365-.841-2.766-.841v-.524l2.311-.281,2.2-.105.875-.524,1.015-.491Z" fill="#231f20"/><path d="M538.019,947.581a9.506,9.506,0,0,0,.455,3.711,1.722,1.722,0,0,0,1.68.875,2.707,2.707,0,0,0,.665-.07l.665-.315.385.455a7.377,7.377,0,0,1-4.27,1.75c-1.645,0-2.731-1.085-2.731-3.081a8.6,8.6,0,0,1-6.93,3.151,6.639,6.639,0,0,1-3.43-.77,3.075,3.075,0,0,1-1.681-2.87q0-2.992,7.141-4.726l1.61-.384a6.508,6.508,0,0,0,2.556-.981,2.288,2.288,0,0,0,.524-1.715c0-3.395-.979-4.725-3.675-4.725a4.113,4.113,0,0,0-2.24.594,2.281,2.281,0,0,0-1.015,2l.105.875a1.188,1.188,0,0,0,.14.42,2.164,2.164,0,0,0,.174.419l-.909.281-.735.07a2.407,2.407,0,0,1-1.436-.42.851.851,0,0,1-.349-.49,1.655,1.655,0,0,1-.21-.63,3.185,3.185,0,0,1,2-2.73,9.934,9.934,0,0,1,5.04-1.156c4.306,0,6.476,2.205,6.476,6.581Zm-6.511-1.4c-3.465.875-5.18,2.064-5.18,3.57,0,1.854,1.3,2.94,3.5,2.94,2.941,0,4.83-1.715,4.83-4.656v-2.66Z" fill="#231f20"/><path d="M560.944,927.419l-.1,3.011-.035,3.045v12.986c0,2.695.14,4.27.455,4.761a1.7,1.7,0,0,0,1.855.84l1.575-.14.14.6-2.24.455-2.38.28-.945.42-1.295.49-.21-.07-.21-1.225-.07-1.365a8.017,8.017,0,0,1-2.975,1.89,11.01,11.01,0,0,1-3.851.665,8.675,8.675,0,0,1-5.986-2.1,7.392,7.392,0,0,1-2.485-5.775,7.969,7.969,0,0,1,3.326-6.581,11.18,11.18,0,0,1,7.14-2.38,13.987,13.987,0,0,1,2.206.175c.49.069,1.014.174,1.61.314a8.853,8.853,0,0,0,.91.351v-3.256c0-2.555-.245-4.13-.7-4.691-.455-.594-1.365-.875-2.8-.875h-.14v-.524l4.971-.386.98-.524,1.05-.491Zm-8.715,10.712c-3.921,0-6.266,2.555-6.266,6.51a8.661,8.661,0,0,0,1.89,5.741,5.913,5.913,0,0,0,4.69,2.275c2.485,0,4.1-.875,4.831-2.66v-9.731A6.559,6.559,0,0,0,552.229,938.131Z" fill="#231f20"/><path d="M573.229,936.976c-.036.665-.106,1.365-.141,2.1,0,.245,0,.6-.035.981l-.034,2.975v4.2c0,2.7.21,4.341.629,4.971a3.209,3.209,0,0,0,2.7.98v.525l-2.24-.175-2.8-.315-2.906.35-2.1.14v-.525a3.058,3.058,0,0,0,2.625-.945c.455-.665.7-2.31.7-4.97V944.4c0-2.555-.245-4.13-.7-4.725a3.151,3.151,0,0,0-2.625-.875v-.525l2.345-.246,2.275-.139,2.065-1.016Zm-.036-5.5a1.6,1.6,0,0,1-.8,1.366,2.713,2.713,0,0,1-1.576.49,2.418,2.418,0,0,1-1.54-.525,1.773,1.773,0,0,1-.7-1.4,1.724,1.724,0,0,1,.736-1.435,2.706,2.706,0,0,1,1.575-.491A2.082,2.082,0,0,1,573.193,931.479Z" fill="#231f20"/><path d="M583.412,933.16v4.726l5.216-.035v1.224l-5.216-.069-.07,7.875a10.512,10.512,0,0,0,.6,4.06,3.391,3.391,0,0,0,3.36,1.856,5.508,5.508,0,0,0,1.715-.28,8.359,8.359,0,0,0,2.1-1.05l.455.455a8.527,8.527,0,0,1-5.776,2.065c-2.135,0-3.64-.525-4.585-1.54-.945-1.051-1.4-2.9-1.4-5.531v-.56l.139-7.35h-3.5v-.771c3.221-.315,5.321-2.1,5.916-5.075Z" fill="#231f20"/><path d="M600.107,936.976c-.035.665-.105,1.365-.14,2.1,0,.245,0,.6-.035.981l-.035,2.975v4.2c0,2.7.21,4.341.63,4.971a3.209,3.209,0,0,0,2.7.98v.525l-2.241-.175-2.8-.315-2.906.35-2.1.14v-.525a3.058,3.058,0,0,0,2.625-.945c.455-.665.7-2.31.7-4.97V944.4c0-2.555-.245-4.13-.7-4.725a3.151,3.151,0,0,0-2.625-.875v-.525l2.344-.246,2.276-.139,2.065-1.016Zm-.035-5.5a1.6,1.6,0,0,1-.8,1.366,2.713,2.713,0,0,1-1.576.49,2.416,2.416,0,0,1-1.54-.525,1.773,1.773,0,0,1-.7-1.4,1.724,1.724,0,0,1,.736-1.435,2.706,2.706,0,0,1,1.575-.491A2.082,2.082,0,0,1,600.072,931.479Z" fill="#231f20"/><path d="M621.458,939.391a7.876,7.876,0,0,1-.314,12.461,11.262,11.262,0,0,1-6.966,2.205,10.937,10.937,0,0,1-7.211-2.485,7.654,7.654,0,0,1-2.941-6.091,7.519,7.519,0,0,1,3.221-6.335,11.38,11.38,0,0,1,6.966-2.17A10.9,10.9,0,0,1,621.458,939.391Zm-2.52.769a5.348,5.348,0,0,0-4.725-2.415,5.291,5.291,0,0,0-4.692,2.415,9.191,9.191,0,0,0-1.4,5.321,8.931,8.931,0,0,0,1.645,5.706,5.376,5.376,0,0,0,4.411,2.1,5.3,5.3,0,0,0,4.725-2.45,9.18,9.18,0,0,0,1.4-5.32A9.659,9.659,0,0,0,618.938,940.16Z" fill="#231f20"/><path d="M631.606,937.045a14.082,14.082,0,0,1-.21,2.416l-.035,1.609.14.035q1.944-3.99,7.246-3.99c2.415,0,4.131.7,5.075,2.1.806,1.155,1.191,3.045,1.191,5.636v2.064a20.441,20.441,0,0,0,.245,4.235,2.876,2.876,0,0,0,3.115,2.031v.525h-1.33c-.35-.035-.63-.105-.875-.14l-2.415-.315-1.3.315-1.051.175.141-2.065.069-2.906c.106-4.375-.245-7.21-.979-8.5-.665-1.156-1.856-1.715-3.641-1.715-3.36,0-5.32,2.17-5.32,5.775v2.9a18,18,0,0,0,.279,4.061c.386,1.26,1.4,1.89,3.011,1.89v.525l-1.785-.105L630,953.217l-3.29.385-1.82.105v-.525a3.194,3.194,0,0,0,2.73-.98c.455-.6.7-2.346.7-5.286v-2.17c0-2.835-.21-4.516-.665-5.075s-1.365-.841-2.765-.841v-.524l2.415-.245,2.2-.141.841-.489,1.049-.526Z" fill="#231f20"/><path d="M664.157,947.581a9.526,9.526,0,0,0,.455,3.711,1.724,1.724,0,0,0,1.681.875,2.72,2.72,0,0,0,.665-.07l.665-.315.385.455a7.379,7.379,0,0,1-4.271,1.75c-1.644,0-2.73-1.085-2.73-3.081a8.6,8.6,0,0,1-6.931,3.151,6.642,6.642,0,0,1-3.43-.77,3.074,3.074,0,0,1-1.68-2.87q0-2.992,7.14-4.726l1.611-.384a6.494,6.494,0,0,0,2.555-.981,2.284,2.284,0,0,0,.525-1.715c0-3.395-.98-4.725-3.675-4.725a4.113,4.113,0,0,0-2.24.594,2.282,2.282,0,0,0-1.016,2l.106.875a1.209,1.209,0,0,0,.139.42,2.169,2.169,0,0,0,.175.419l-.909.281-.735.07a2.407,2.407,0,0,1-1.436-.42.852.852,0,0,1-.35-.49,1.69,1.69,0,0,1-.21-.63,3.187,3.187,0,0,1,2-2.73,9.932,9.932,0,0,1,5.04-1.156c4.3,0,6.475,2.205,6.475,6.581Zm-6.511-1.4c-3.464.875-5.179,2.064-5.179,3.57,0,1.854,1.295,2.94,3.5,2.94,2.94,0,4.83-1.715,4.83-4.656v-2.66Z" fill="#231f20"/><path d="M674.552,927.419l-.14,3.081c-.035,1.015-.07,2.03-.07,2.975v14.072c0,2.45.245,3.99.735,4.655a3.054,3.054,0,0,0,2.625.98v.525l-1.82-.105-3.221-.385-2.729.315-2.346.175v-.525a3.124,3.124,0,0,0,2.695-.945c.455-.665.7-2.416.7-5.321V935.155c0-2.836-.245-4.551-.7-5.076a3.348,3.348,0,0,0-2.695-.84v-.524L670,928.47l2.311-.141.98-.524,1.05-.491Z" fill="#231f20"/><path d="M685.332,936.976c-.035.665-.105,1.365-.141,2.1,0,.245,0,.6-.035.981l-.034,2.975v4.2c0,2.7.21,4.341.63,4.971a3.205,3.205,0,0,0,2.7.98v.525l-2.24-.175-2.8-.315-2.9.35-2.1.14v-.525a3.058,3.058,0,0,0,2.625-.945c.455-.665.7-2.31.7-4.97V944.4c0-2.555-.246-4.13-.7-4.725a3.151,3.151,0,0,0-2.625-.875v-.525l2.345-.246,2.275-.139,2.066-1.016Zm-.035-5.5a1.6,1.6,0,0,1-.806,1.366,2.71,2.71,0,0,1-1.575.49,2.414,2.414,0,0,1-1.54-.525,1.773,1.773,0,0,1-.7-1.4,1.726,1.726,0,0,1,.735-1.435,2.708,2.708,0,0,1,1.575-.491A2.083,2.083,0,0,1,685.3,931.479Z" fill="#231f20"/><path d="M701.991,940.581l.14.875.035.455h-.77a5.585,5.585,0,0,0-1.47-2.94,4.032,4.032,0,0,0-3.01-1.191c-2.24,0-3.605,1.05-3.605,2.731a2.367,2.367,0,0,0,.8,1.785,12.316,12.316,0,0,0,3.325,1.785,20.168,20.168,0,0,1,3.606,1.75,3.964,3.964,0,0,1,1.716,3.325,4.151,4.151,0,0,1-2.731,3.816,10.526,10.526,0,0,1-4.9,1.085,12.765,12.765,0,0,1-2.976-.35c-1.5-.315-2.24-.77-2.24-1.4l.035-.245.245-.456-.385-1.714-.07-1.436h.77a5.162,5.162,0,0,0,5.32,4.761c2.24,0,3.921-1.295,3.921-3.01a2.942,2.942,0,0,0-1.436-2.485,15.616,15.616,0,0,0-2.764-1.33,14.671,14.671,0,0,1-4.271-2.276,3.46,3.46,0,0,1-1.051-2.555,3.915,3.915,0,0,1,2.417-3.606,9.5,9.5,0,0,1,4.48-.979,11.472,11.472,0,0,1,3.57.455c.98.314,1.47.665,1.47,1.085a1.448,1.448,0,0,1-.07.384l-.315.42Z" fill="#231f20"/><path d="M712.211,937.045a14.385,14.385,0,0,1-.21,2.24l-.07,1.506.245.069a7.278,7.278,0,0,1,6.511-3.674c3.255,0,5,1.189,5.845,3.955a7.315,7.315,0,0,1,6.9-3.955c3.115,0,5.041,1.4,5.741,4.165a16.386,16.386,0,0,1,.314,3.5v2.064a19.5,19.5,0,0,0,.246,4.235c.384,1.366,1.435,2.031,3.115,2.031v.525l-2.031-.105c-.455-.035-.875-.07-1.189-.105l-1.365-.245-.981.245-1.435.245.21-2.9c0-.316,0-.875.035-1.681.035-.769.035-1.33.035-1.715,0-3.57-.314-5.916-.945-7.07a3.5,3.5,0,0,0-3.395-1.716,4.39,4.39,0,0,0-3.85,1.821,7.421,7.421,0,0,0-1.121,4.27v2.8a14.67,14.67,0,0,0,.315,3.885,2.867,2.867,0,0,0,3.011,1.75v.525l-1.891-.105-3.01-.385-1.295.14-3.291.35v-.525a2.659,2.659,0,0,0,2.311-.945c.385-.631.559-2.31.559-5.041v-1.96c0-4.376-1.469-6.581-4.41-6.581a4.463,4.463,0,0,0-3.535,1.54,6.065,6.065,0,0,0-1.365,4.131v2.941c0,2.589.21,4.2.63,4.865a2.687,2.687,0,0,0,2.45,1.05v.525l-1.715-.105-3.045-.385-2.8.315-2.169.175v-.525c1.609,0,2.625-.63,3.009-1.89a17.957,17.957,0,0,0,.281-4.061v-2.8a16.569,16.569,0,0,0-.281-3.955c-.384-1.085-1.434-1.646-3.08-1.646v-.524l2.415-.281,2.205-.105,1.016-.56.875-.455Z" fill="#231f20"/><path d="M770.486,939.391a7.875,7.875,0,0,1-.314,12.461,11.262,11.262,0,0,1-6.966,2.205A10.937,10.937,0,0,1,756,951.572a7.653,7.653,0,0,1-2.94-6.091,7.521,7.521,0,0,1,3.22-6.335,11.379,11.379,0,0,1,6.965-2.17A10.9,10.9,0,0,1,770.486,939.391Zm-2.52.769a5.347,5.347,0,0,0-4.726-2.415,5.289,5.289,0,0,0-4.69,2.415,9.184,9.184,0,0,0-1.4,5.321,8.931,8.931,0,0,0,1.645,5.706,5.377,5.377,0,0,0,4.411,2.1,5.3,5.3,0,0,0,4.726-2.45,9.188,9.188,0,0,0,1.4-5.32A9.659,9.659,0,0,0,767.966,940.16Z" fill="#231f20"/><path d="M774.054,953.182a3.366,3.366,0,0,0,2.661-.98c.454-.6.665-2.275.665-4.971v-8.156h-2.7v-.84c1.679,0,2.589-.77,2.7-2.275l.069-1.05a8.59,8.59,0,0,1,2.905-5.426,8.485,8.485,0,0,1,5.742-2.1c1.82,0,3.255.8,3.255,1.889a1.293,1.293,0,0,1-.42.911,2.037,2.037,0,0,1-1.226.594,6.81,6.81,0,0,0-1.75-1.54,3.992,3.992,0,0,0-.665-.314,3.063,3.063,0,0,0-1.155-.21c-2.38,0-3.395,1.785-3.395,6.58v2.591l5.635-.035v1.295l-5.635-.071v8.156c0,2.766.244,4.446.77,5.04s1.54.911,3.08.911v.525l-2.17-.105-3.36-.385-2.906.35-2.1.14Z" fill="#231f20"/><path d="M804.4,928.364l3.465.385,3.5-.385,2.73-.175v.6c-1.645,0-2.73.386-3.325,1.155s-.875,2.661-.875,5.707v10.4a26.278,26.278,0,0,1-.736,7.246,9.047,9.047,0,0,1-2.345,3.92,15.818,15.818,0,0,1-1.19,1.051,11.133,11.133,0,0,1-1.54.91,15.772,15.772,0,0,1-3.6,1.365l-.281-.56a6.86,6.86,0,0,0,4.447-3.571c.8-1.68,1.224-5.39,1.224-11.166v-9.59c0-3.011-.28-4.9-.84-5.636-.6-.806-1.716-1.226-3.36-1.226v-.6Z" fill="#231f20"/><path d="M830.02,947.581a9.506,9.506,0,0,0,.455,3.711,1.722,1.722,0,0,0,1.68.875,2.714,2.714,0,0,0,.665-.07l.665-.315.385.455a7.377,7.377,0,0,1-4.27,1.75c-1.645,0-2.731-1.085-2.731-3.081a8.6,8.6,0,0,1-6.931,3.151,6.638,6.638,0,0,1-3.429-.77,3.075,3.075,0,0,1-1.681-2.87q0-2.992,7.141-4.726l1.61-.384a6.508,6.508,0,0,0,2.556-.981,2.288,2.288,0,0,0,.524-1.715c0-3.395-.979-4.725-3.675-4.725a4.113,4.113,0,0,0-2.24.594,2.281,2.281,0,0,0-1.015,2l.1.875a1.188,1.188,0,0,0,.14.42,2.164,2.164,0,0,0,.174.419l-.91.281-.734.07a2.407,2.407,0,0,1-1.436-.42.851.851,0,0,1-.349-.49,1.655,1.655,0,0,1-.21-.63,3.185,3.185,0,0,1,2-2.73,9.934,9.934,0,0,1,5.04-1.156c4.306,0,6.476,2.205,6.476,6.581Zm-6.511-1.4c-3.465.875-5.18,2.064-5.18,3.57,0,1.854,1.3,2.94,3.5,2.94,2.941,0,4.83-1.715,4.83-4.656v-2.66Z" fill="#231f20"/><path d="M840.1,937.045l-.21,2.03-.071,2.346.071.07a7.273,7.273,0,0,1,3.115-3.22,8.906,8.906,0,0,1,4.376-1.085,8.109,8.109,0,0,1,5.67,2.03,6.971,6.971,0,0,1,2.346,5.5,8.319,8.319,0,0,1-3.081,6.581,11.276,11.276,0,0,1-7.561,2.66,16.885,16.885,0,0,1-2.415-.21,10.073,10.073,0,0,1-2.205-.56v4.376c0,2.625.28,4.235.84,4.865.63.6,1.82.875,3.536.875v.525l-2.661-.105-3.4-.385-3.15.35a13.363,13.363,0,0,1-1.891.14V963.3c1.715,0,2.766-.665,3.15-1.96a23.962,23.962,0,0,0,.21-4.271V944.746a18.769,18.769,0,0,0-.245-4.131c-.384-1.189-1.434-1.785-3.115-1.785v-.524l2.45-.245,2.17-.141.666-.42,1.19-.6Zm5.251,16.067a5.754,5.754,0,0,0,4.515-1.925,7.128,7.128,0,0,0,1.715-4.936,8.831,8.831,0,0,0-1.4-5.146,5.265,5.265,0,0,0-4.62-2.344,5.13,5.13,0,0,0-3.991,1.679,6.083,6.083,0,0,0-1.435,4.166v6.441A7.21,7.21,0,0,0,845.35,953.112Z" fill="#231f20"/><path d="M872.3,947.581a9.506,9.506,0,0,0,.455,3.711,1.723,1.723,0,0,0,1.681.875,2.727,2.727,0,0,0,.665-.07l.665-.315.384.455a7.377,7.377,0,0,1-4.27,1.75c-1.645,0-2.731-1.085-2.731-3.081a8.6,8.6,0,0,1-6.93,3.151,6.639,6.639,0,0,1-3.43-.77,3.075,3.075,0,0,1-1.681-2.87q0-2.992,7.141-4.726l1.61-.384a6.5,6.5,0,0,0,2.556-.981,2.284,2.284,0,0,0,.524-1.715c0-3.395-.979-4.725-3.674-4.725a4.116,4.116,0,0,0-2.241.594,2.281,2.281,0,0,0-1.015,2l.105.875a1.208,1.208,0,0,0,.14.42,2.108,2.108,0,0,0,.175.419l-.91.281-.735.07a2.4,2.4,0,0,1-1.435-.42.848.848,0,0,1-.35-.49,1.673,1.673,0,0,1-.21-.63,3.185,3.185,0,0,1,2-2.73,9.934,9.934,0,0,1,5.04-1.156c4.306,0,6.476,2.205,6.476,6.581Zm-6.511-1.4c-3.465.875-5.18,2.064-5.18,3.57,0,1.854,1.3,2.94,3.5,2.94,2.941,0,4.83-1.715,4.83-4.656v-2.66Z" fill="#231f20"/><path d="M882.658,937.045a14.082,14.082,0,0,1-.21,2.416l-.035,1.609.14.035q1.944-3.99,7.246-3.99c2.415,0,4.131.7,5.075,2.1.806,1.155,1.19,3.045,1.19,5.636v2.064a20.413,20.413,0,0,0,.246,4.235,2.874,2.874,0,0,0,3.115,2.031v.525H898.1c-.35-.035-.63-.105-.875-.14l-2.415-.315-1.295.315-1.051.175.141-2.065.069-2.906c.105-4.375-.245-7.21-.98-8.5-.665-1.156-1.855-1.715-3.64-1.715-3.361,0-5.32,2.17-5.32,5.775v2.9a18,18,0,0,0,.279,4.061c.386,1.26,1.4,1.89,3.011,1.89v.525l-1.786-.105-3.185-.385-3.29.385-1.82.105v-.525a3.194,3.194,0,0,0,2.73-.98c.455-.6.7-2.346.7-5.286v-2.17c0-2.835-.21-4.516-.665-5.075s-1.365-.841-2.765-.841v-.524l2.415-.245,2.205-.141.84-.489,1.05-.526Z" fill="#231f20"/><path d="M905.653,950.837a1.7,1.7,0,0,1,.736,1.365,2.222,2.222,0,0,1-2.276,1.925,2.607,2.607,0,0,1-1.54-.49,1.775,1.775,0,0,1-.735-1.435,1.724,1.724,0,0,1,.63-1.33,2.378,2.378,0,0,1,1.645-.525A2.677,2.677,0,0,1,905.653,950.837Z" fill="#231f20"/><g id="上海_アリス幻樂団-2" data-name="上海■アリス幻樂団"><path d="M967.371,922.058a1.669,1.669,0,0,1,.9.232.679.679,0,0,1,.391.648l-.068,2.1h3.513a4.992,4.992,0,0,1,1.1.077.463.463,0,0,1,.255.479,1.143,1.143,0,0,1-.221.679.79.79,0,0,1-.6.247q-.288,0-1.187-.046c-.567-.01-1.081-.016-1.545-.016q-.543,0-1.409.016l-.1,3.008q2.817.094,7.045.665a2.788,2.788,0,0,1-.51,1.4.874.874,0,0,1-.729.447,6.459,6.459,0,0,1-1.308-.231,25.7,25.7,0,0,0-5.737-.679,20.037,20.037,0,0,0-5.6.74,4.4,4.4,0,0,1-1.137.232.971.971,0,0,1-.646-.293.776.776,0,0,1-.305-.556.917.917,0,0,1,.815-.987,26.5,26.5,0,0,1,6.043-.742l-.067-6.542a.739.739,0,0,1,.3-.618A1.112,1.112,0,0,1,967.371,922.058Z" fill="#231f20"/><path d="M960.174,941.492l2.851.063c.318.082.476.211.476.385q0,.4-.968.725a22.073,22.073,0,0,1-2.308.571.965.965,0,0,1-.527-.247.655.655,0,0,1-.271-.494,1.325,1.325,0,0,1,.22-.694A.708.708,0,0,1,960.174,941.492Zm1.222-4.012a2.344,2.344,0,0,1,1.256.695q1.306,1.1,1.307,1.343c0,.256-.152.385-.458.385a2.9,2.9,0,0,1-.679-.108,10.126,10.126,0,0,0-1.613-.186q-.847-.075-.849-1.126a.956.956,0,0,1,.324-.71A1.122,1.122,0,0,1,961.4,937.48Zm1.206,6.991q.288,0,.288.231,0,.279-.254,2.114-.069.664-.917.664a1.4,1.4,0,0,1-.8-.216.86.86,0,0,1-.34-.7.964.964,0,0,1,.255-.493l1.392-1.4A.62.62,0,0,1,962.6,944.471Zm4.09-4.336a1.269,1.269,0,0,1,.662.154.2.2,0,0,1,.085.046q1.1-.062,2.835-.062,2.75,0,3.48.078c.226.02.34.1.34.231a1.626,1.626,0,0,1-.136.34,8.8,8.8,0,0,0-.51,1.774q1,.061,2.122.155a2.169,2.169,0,0,1-.39,1.157.789.789,0,0,1-.611.4,3.914,3.914,0,0,1-1-.216c-.147-.031-.288-.061-.423-.092-.035.154-.063.313-.085.478s-.075.324-.12.479q.782.045,1.41.077c.192.03.288.093.288.184a1.02,1.02,0,0,1-.221.68.766.766,0,0,1-.594.262q-.306,0-1.239-.062a3.343,3.343,0,0,1-.543.973,1.149,1.149,0,0,1-.934.57,1.479,1.479,0,0,1-1.239-.74,2.582,2.582,0,0,0,.764-.9q-1.731-.045-4.21-.045a4.019,4.019,0,0,0-1.29.154,1.378,1.378,0,0,1-.425.107.715.715,0,0,1-.475-.169.421.421,0,0,1-.2-.385,1.553,1.553,0,0,1,.17-.51q.237-.6.476-1.219c-.148.03-.289.057-.425.077a4.887,4.887,0,0,1-1.035.17.574.574,0,0,1-.408-.217.458.458,0,0,1-.2-.339.585.585,0,0,1,.543-.617,18.454,18.454,0,0,1,2.02-.355q.39-1.049.78-2.176Q966.081,940.135,966.692,940.135Zm-.423-2.824a2.87,2.87,0,0,1,1.1.184.525.525,0,0,1,.323.433.9.9,0,0,1-.119.385q1.12-.092,3.072-.092,3.09,0,4.6.138a2.117,2.117,0,0,1-.306,1.1.481.481,0,0,1-.441.263c-.237,0-.725-.021-1.46-.062q-1.766-.139-2.92-.138-1.492,0-2.716.123a8.549,8.549,0,0,1-.916.077.329.329,0,0,1-.1-.016.728.728,0,0,0-.136.124,3.443,3.443,0,0,1-2.155,1.126q-.459,0-.459-.262c0-.083.073-.19.22-.324a8.407,8.407,0,0,0,1.529-1.605,1.814,1.814,0,0,0,.424-.956.823.823,0,0,0-.221-.449A4.077,4.077,0,0,1,966.269,937.311Zm1.663,7.654.339-1.281q-.9.032-1.731.108l-.408,1.111c0,.041.141.062.425.062Zm-.968-2.346q.747-.047,1.613-.061l.322-1.173q-.831.015-1.51.046Zm4.108,2.392a.119.119,0,0,0,.017-.046q.2-.633.374-1.157a16.112,16.112,0,0,0-1.834-.14l-.339,1.312Q970.241,944.98,971.072,945.011Zm-.815-3.626-.339,1.173c.588,0,1.222.014,1.9.046a5.936,5.936,0,0,0,.221-1.049Q972.04,941.4,970.257,941.385Z" fill="#231f20"/><path d="M973.975,963.812H960.921V951.883h13.054Z" fill="#231f20"/><path d="M950.865,926.179a9.12,9.12,0,0,1-.17,2.1,3.256,3.256,0,0,1-1.069,1.7,6.2,6.2,0,0,1-2.564,1.4,6.629,6.629,0,0,1-1.952.34q-1.408,0-1.409-.973a2.428,2.428,0,0,1,1.172-2.191c.1.371.441.555,1.019.555a2.283,2.283,0,0,0,2.376-1.327,3.261,3.261,0,0,0,.22-.971v-.7q0-.787,1.053-.787a2.414,2.414,0,0,1,.934.123A.725.725,0,0,1,950.865,926.179Zm6.2-2.146a.769.769,0,0,1-.357.633,7.659,7.659,0,0,0-.729.447,1.683,1.683,0,0,0-.561.386q-1.884,1.929-2.529,1.93-.781,0-.781-.587a5.254,5.254,0,0,1,.645-1.235.984.984,0,0,0,.119-.354c0-.268-.153-.4-.459-.4-.033,0-.385-.011-1.052-.032s-1.081-.046-1.239-.046a19.73,19.73,0,0,0-3.242.262q-1.58.248-1.681.247a1.128,1.128,0,0,1-.628-.2.92.92,0,0,1-.39-.741,1.085,1.085,0,0,1,1.086-1.173,24.59,24.59,0,0,1,3.175-.2q3.666,0,6.2.2a8.508,8.508,0,0,1,1.867.293C956.874,923.6,957.061,923.786,957.061,924.033Z" fill="#231f20"/><path d="M954.973,938.9q0,.278-.17,2.238a6.456,6.456,0,0,1-2.139,4.737,7.258,7.258,0,0,1-4.516,1.22,6.679,6.679,0,0,1-1.442-.109q-.9-.2-.9-.833,0-.987,1.561-2.037a1.856,1.856,0,0,0,1.578.525,3.218,3.218,0,0,0,1.97-.741,3.918,3.918,0,0,0,1.392-3.256v-.957c.011-.412.017-.653.017-.725q0-.834,1.341-.834a1.963,1.963,0,0,1,.849.185C954.82,938.468,954.973,938.663,954.973,938.9Zm-6.637-.078q0,.186-.018,1.328-.015,1.158-.016,1.559,0,1.59-1.308,1.589-1.019,0-1.018-1.126,0-.2-.051-1.467c-.023-.843-.033-1.425-.033-1.743q0-.8,1.272-.8Q948.336,938.159,948.336,938.822Z" fill="#231f20"/><path d="M956.467,961.466a2.2,2.2,0,0,1-1.579.972,1.668,1.668,0,0,1-.95-.478q-.2-.155-.679-.524-.442-.357-.765-.587a16.694,16.694,0,0,0-2.716-1.5q-3,2.592-5.3,2.592-.9,0-.9-.971A3.657,3.657,0,0,1,944.55,959a.983.983,0,0,0,.713.263,4.049,4.049,0,0,0,1.646-.479,8.145,8.145,0,0,0,1.715-1.018,11.976,11.976,0,0,0,1.087-1.019c.306-.34.458-.56.458-.664,0-.164-.164-.247-.492-.247a24.242,24.242,0,0,0-2.954.154c-.792.083-1.155.124-1.086.124a.966.966,0,0,1-.9-.988q0-.926,1.155-.926l1.918-.03q1.986-.078,2.97-.077a8.665,8.665,0,0,1,2.75.262c.339.124.509.308.509.555a.594.594,0,0,1-.288.463,3.977,3.977,0,0,0-.544.433q-.527.555-1.985,2.191a13.113,13.113,0,0,0,3.36,1.482q.731.231,2.207.6c.1.021.232.052.391.093h.016A2.372,2.372,0,0,1,956.467,961.466Z" fill="#231f20"/><path d="M930.42,921.95a1.009,1.009,0,0,1,.73.232.9.9,0,0,1,.272.617,1.55,1.55,0,0,1-.628,1.05l-2.055,1.589q-.441.4-.441.509c0,.155.192.324.577.509l.765.278q1.052-.833,2.053-1.667a1.5,1.5,0,0,1,.9-.463.972.972,0,0,1,.543.2.712.712,0,0,1,.271.525,1.819,1.819,0,0,1-.78,1.327l-3.226,2.608,2.631.077c.091,0,.137-.057.137-.17q-.679-.678-.68-.864c0-.287.158-.432.476-.432a4.4,4.4,0,0,1,1.8,1.111q1.119.879,1.12,1.358,0,.679-.612.679a5.212,5.212,0,0,1-.712-.108,20.47,20.47,0,0,0-2.106-.077H929.2a11.981,11.981,0,0,0-2.207.154,2.08,2.08,0,0,1-.51.154q-1.035,0-1.035-.617a1.653,1.653,0,0,1,.815-1.218q.967-.711,1.885-1.4a13.522,13.522,0,0,0-2-.8q-.765-.216-.765-.524,0-.293.68-.911l2.868-2.809A2.709,2.709,0,0,1,930.42,921.95Zm6.587.556q2.783,0,3.615.093.527.091.526.339a.717.717,0,0,1-.119.278,1.644,1.644,0,0,0-.237.879l-.1,4.429a3.831,3.831,0,0,1-1.375,2.778,3.624,3.624,0,0,1-2.308.895,1.332,1.332,0,0,1-.934-.4,3.552,3.552,0,0,1-.832-1.513,6.564,6.564,0,0,0,2.733-.848,2.218,2.218,0,0,0,.933-1.976V924.3c0-.134-.1-.2-.288-.2q-2.46,0-3.955.124a6.374,6.374,0,0,1-1.069.138.7.7,0,0,1-.51-.293.9.9,0,0,1-.237-.648c0-.422.31-.7.933-.833Q934.257,922.5,937.007,922.506Z" fill="#231f20"/><path d="M928.569,937.48a.693.693,0,0,1,.747.679.7.7,0,0,1-.322.494l-1.069.756c-.159.134-.237.216-.237.247s.083.082.253.123l.306.062.731-.6a.945.945,0,0,1,.559-.261.471.471,0,0,1,.526.54.655.655,0,0,1-.356.54l-1.816,1.311c0,.041.05.062.153.062h1.205c.1,0,.152-.021.152-.062a1.994,1.994,0,0,1-.22-.556c0-.154.119-.231.356-.231.192,0,.482.19.866.571q.492.525.493.787c0,.33-.182.494-.543.494a2.838,2.838,0,0,1-.459-.062h-1.46a16.2,16.2,0,0,0-1.953.093,1.617,1.617,0,0,1-.407.093.457.457,0,0,1-.288-.109.311.311,0,0,1-.136-.277c0-.134.169-.324.509-.571l.934-.8a8.948,8.948,0,0,0-1.171-.416c-.272-.063-.407-.145-.407-.247s.135-.273.407-.51l1.748-1.6A1.683,1.683,0,0,1,928.569,937.48Zm4.89-.293a3.1,3.1,0,0,1,1,.108c.158.052.238.134.238.247a1.058,1.058,0,0,1-.17.509,14.163,14.163,0,0,1,1.8.154c.17.031.255.1.255.217q-.086.369-.2,1.1l.187-.17,1.732-1.5a1.659,1.659,0,0,1,.883-.5.707.707,0,0,1,.543.2.721.721,0,0,1,.2.478c0,.134-.118.288-.357.463l-1.171.679q-.237.17-.237.216c0,.051.068.108.2.169l.324.139.61-.478a.982.982,0,0,1,.56-.246.478.478,0,0,1,.543.54c0,.195-.13.365-.39.508l-1.85,1.235c0,.031.045.047.136.047h1.069c.147,0,.221-.016.221-.047a1.839,1.839,0,0,1-.221-.509c0-.154.118-.231.357-.231.192,0,.464.184.814.555q.476.478.476.74,0,.495-.476.5H938.6a14.038,14.038,0,0,0-1.817.092,1.4,1.4,0,0,1-.408.092.516.516,0,0,1-.322-.139.308.308,0,0,1-.118-.231.664.664,0,0,1-.239.047,1.994,1.994,0,0,1-.271-.047c-.328-.03-.782-.051-1.359-.062.046.021.079.037.1.046a1.024,1.024,0,0,1,.441.633q2.648.078,6.6.494a2.4,2.4,0,0,1-.476,1.282.829.829,0,0,1-.7.447,5.658,5.658,0,0,1-1.256-.247,23.561,23.561,0,0,0-4.193-.649l-.034,1.76a2.35,2.35,0,0,1-.357,1.373.944.944,0,0,1-.865.479,1.341,1.341,0,0,1-.883-.309q-.356-.231-.356-1.42v-1.9a24.1,24.1,0,0,0-4.652.57,5.413,5.413,0,0,1-1.188.2.694.694,0,0,1-.458-.217.512.512,0,0,1-.221-.385.706.706,0,0,1,.611-.756,25.778,25.778,0,0,1,5.924-.71.943.943,0,0,1,.34-.586,1.8,1.8,0,0,1,.17-.109,9.521,9.521,0,0,0-1.12.109.768.768,0,0,1-.221.077q-.324,0-.39-.494l-.357-3.149a.375.375,0,0,1,.322-.37c.43-.072.867-.123,1.308-.154a1.417,1.417,0,0,0,.152-.478c0-.072-.074-.17-.22-.293A7.99,7.99,0,0,1,933.459,937.187Zm-3.242,7.716c.09,0,.136.041.136.123a2.094,2.094,0,0,1-.816,1.359,3.082,3.082,0,0,1-1.918.91q-.611,0-.611-.787a1.245,1.245,0,0,1,.289-.926c.022.082.13.123.322.123a4.059,4.059,0,0,0,1.969-.617A1.684,1.684,0,0,1,930.217,944.9Zm2.189-5.2a9.6,9.6,0,0,1,1-.046c.408,0,.822.016,1.239.046l.052-.54c0-.051-.04-.087-.119-.107a7.035,7.035,0,0,0-1.239-.077,3.291,3.291,0,0,0-.815.091c-.09.022-.135.052-.135.093Zm.255,1.436a5.23,5.23,0,0,1,.78-.062,6.534,6.534,0,0,1,.9.062.2.2,0,0,0,.22-.186l.034-.447q-.629-.046-1.189-.046t-.967.03l.017.587C932.457,941.117,932.525,941.138,932.661,941.138Zm3.463.6.288-.261,1.087-.85a7.659,7.659,0,0,0-1-.509.864.864,0,0,1-.186-.093Q936.226,940.752,936.124,941.739Zm.458,3.226a2.377,2.377,0,0,1,.9.247,9.708,9.708,0,0,0,2.106.74,2.741,2.741,0,0,1-.611,1.127,1.338,1.338,0,0,1-.815.277,1.408,1.408,0,0,1-.917-.508,3.242,3.242,0,0,1-.866-1.7C936.378,945.026,936.446,944.965,936.582,944.965Z" fill="#231f20"/><path d="M933.459,953.1a51.594,51.594,0,0,1,6.552.278c.4.052.594.164.594.339q-.339,2.115-.747,8.441c-.022.371-.164.556-.424.556q-.153,0-.746-.077-1.716-.155-5.263-.155-3.633,0-5.619.186a4.174,4.174,0,0,1-.662.107q-.322,0-.391-.477l-.679-8.334q0-.447.8-.556Q930.132,953.1,933.459,953.1Zm-4.957,7.962q1.392-.03,2.75-.045a.7.7,0,0,1-.153-.155,1.76,1.76,0,0,1-.357-1.157,6.2,6.2,0,0,0,2.394-.355.808.808,0,0,0,.526-.695v-1.743a21.181,21.181,0,0,0-3.327.277q-.814.11-1.019.109a.686.686,0,0,1-.474-.186.73.73,0,0,1-.188-.494.666.666,0,0,1,.459-.633,24.139,24.139,0,0,1,4.549-.231v-.74a.623.623,0,0,1,.153-.433h-.356q-2.547,0-4.736.17-.832.061-.832.185l.407,6Q928.3,961.064,928.5,961.064Zm3.819-3.718a.4.4,0,0,1,.458.447c0,.083-.135.247-.407.494a5.271,5.271,0,0,1-1.307.772,3.309,3.309,0,0,1-1.137.262q-.527,0-.527-.432a1.56,1.56,0,0,1,.391-.91.3.3,0,0,0,.271.108,2.9,2.9,0,0,0,.9-.17,4.314,4.314,0,0,0,1.018-.479A.652.652,0,0,1,932.321,957.346Zm2.9-2.763a.371.371,0,0,1,.085.231,3.445,3.445,0,0,0-.068.556v.4q1.29.048,2.7.17a2.153,2.153,0,0,1-.323,1.158.642.642,0,0,1-.492.2,6.006,6.006,0,0,1-.883-.109c-.362-.072-.695-.129-1-.17v1.806a1.888,1.888,0,0,1-.968,1.744,5.335,5.335,0,0,1-1.035.432h4.7c.136,0,.209-.087.221-.262l.39-5.864q0-.124-.442-.17Q937.109,954.615,935.224,954.583Z" fill="#231f20"/></g></g></svg>
