<svg xmlns="http://www.w3.org/2000/svg" width="1000" height="992" viewBox="0 0 1000 992"><g id="Artboard"><rect id="Tint" width="1000" height="992" fill="#58595b"/></g><g id="Text"><path d="M767.524,16.26l-.364.019v-.286l.959-.083v3.074h-.6Z" fill="#000000"/><path d="M771.572,17.353a1.147,1.147,0,0,0,.281-.609.493.493,0,0,0-.336-.456.7.7,0,0,0-.222-.037c-.355,0-.529.2-.529.6l.018.139h-.346l-.018-.153a.925.925,0,0,1,.226-.64.972.972,0,0,1,.76-.272,1.027,1.027,0,0,1,.9.438.8.8,0,0,1,.142.474,1.617,1.617,0,0,1-.4.894l-.7.917h1.142v.337h-2.142Z" fill="#000000"/><path d="M774.246,18.767a.316.316,0,0,1,.327-.267.308.308,0,0,1,.323.267.249.249,0,0,1-.106.2.342.342,0,0,1-.217.074A.315.315,0,0,1,774.246,18.767Z" fill="#000000"/><path d="M777.953,17a.611.611,0,0,1,.406.138.46.46,0,0,1,.17.373,1,1,0,0,1-.234.539l-.678.936H776.9l.95-1.327a.366.366,0,0,0,.083-.176c0-.1-.07-.147-.208-.147h-.779l.746-1.018h-.769v-.337h1.682L777.889,17Z" fill="#000000"/><path d="M781.479,18.984h-.548V17.167h-.424v-.26H781.9v.26h-.417Z" fill="#000000"/><path d="M784.946,17.955h-.676v1.029h-.544V15.547h.544v2.1h.676v-.789h.544v2.13h-.544Z" fill="#000000"/><path d="M791.354,18.984h-.677V16.293l-.6,0V16h1.866v.29h-.594Z" fill="#000000"/><path d="M794.556,19.042a1.147,1.147,0,0,1-.793-.327,1.071,1.071,0,0,1,.182-1.721,1.172,1.172,0,0,1,.538-.14,1.309,1.309,0,0,1,.823.284.934.934,0,0,1,.389.755,1.033,1.033,0,0,1-.572,1.019A1.238,1.238,0,0,1,794.556,19.042Zm0-1.938c-.226,0-.375.14-.452.423a1.568,1.568,0,0,0-.072.366,1.008,1.008,0,0,0,.269.774.366.366,0,0,0,.255.115.443.443,0,0,0,.414-.307,1.318,1.318,0,0,0,.1-.534,1.025,1.025,0,0,0-.221-.7A.364.364,0,0,0,794.556,17.1Z" fill="#000000"/><path d="M798.293,19.042c-.543,0-.816-.241-.816-.726V16.907h.547v1.476a.325.325,0,0,0,.346.322q.418,0,.418-.476V16.907h.313v1.428a.634.634,0,0,1-.389.625A1.03,1.03,0,0,1,798.293,19.042Z" fill="#000000"/><path d="M802.2,17.955h-.677v1.029h-.544V15.547h.544v2.1h.677v-.789h.544v2.13H802.2Z" fill="#000000"/><path d="M805.793,19.042a1.147,1.147,0,0,1-.793-.327,1.071,1.071,0,0,1,.183-1.721,1.166,1.166,0,0,1,.538-.14,1.307,1.307,0,0,1,.822.284.933.933,0,0,1,.39.755,1.034,1.034,0,0,1-.573,1.019A1.235,1.235,0,0,1,805.793,19.042Zm0-1.938c-.226,0-.375.14-.451.423a1.516,1.516,0,0,0-.072.366,1.007,1.007,0,0,0,.268.774.366.366,0,0,0,.255.115.443.443,0,0,0,.414-.307,1.318,1.318,0,0,0,.1-.534,1.025,1.025,0,0,0-.222-.7A.362.362,0,0,0,805.793,17.1Z" fill="#000000"/><path d="M809.531,19.042c-.543,0-.816-.241-.816-.726V16.907h.548v1.476a.325.325,0,0,0,.345.322c.28,0,.418-.159.418-.476V16.907h.313v1.428a.634.634,0,0,1-.389.625A1.03,1.03,0,0,1,809.531,19.042Z" fill="#000000"/><path d="M816.013,17.786h-.407v1.2h-.668V16h1.3a.855.855,0,0,1,.866.534,1.116,1.116,0,0,1,.075.406.792.792,0,0,1-.107.447C816.911,17.652,816.561,17.786,816.013,17.786Zm-.19-1.544h-.217V17.5h.217c.493,0,.683-.212.683-.687a.6.6,0,0,0-.074-.29A.622.622,0,0,0,815.823,16.242Z" fill="#000000"/><path d="M819.232,17.883a1.044,1.044,0,0,1,.164.01.343.343,0,0,0,.259-.111.408.408,0,0,0,.087-.269.342.342,0,0,0-.385-.346h-.168v1.817h-.543V16.907h.937a.768.768,0,0,1,.5.159.538.538,0,0,1,.207.447c0,.226-.14.384-.414.486l.577.985h-.64Z" fill="#000000"/><path d="M823.205,19.042a1.147,1.147,0,0,1-.793-.327,1.072,1.072,0,0,1,.183-1.721,1.166,1.166,0,0,1,.538-.14,1.307,1.307,0,0,1,.822.284.933.933,0,0,1,.39.755,1.034,1.034,0,0,1-.573,1.019A1.235,1.235,0,0,1,823.205,19.042Zm0-1.938c-.226,0-.375.14-.451.423a1.516,1.516,0,0,0-.072.366,1.007,1.007,0,0,0,.268.774.366.366,0,0,0,.255.115.443.443,0,0,0,.414-.307,1.3,1.3,0,0,0,.1-.534,1.025,1.025,0,0,0-.222-.7A.362.362,0,0,0,823.205,17.1Z" fill="#000000"/><path d="M826.16,19.721v-.25c.26,0,.4-.048.433-.144a1.046,1.046,0,0,0,.023-.236V16.678h.548v2.457c0,.418-.245.619-.73.595Zm.721-3.4a.334.334,0,1,1,0-.668.337.337,0,0,1,.35.336.315.315,0,0,1-.172.284A.329.329,0,0,1,826.881,16.318Z" fill="#000000"/><path d="M828.826,18.59V17.326c0-.269.112-.419.443-.419H830.3v.26h-.846a.314.314,0,0,0-.077,0,.067.067,0,0,0-.01.043v.548h.775v.3h-.775v.586a.063.063,0,0,0,.034.058.116.116,0,0,0,.082.029h.879v.25h-1.153A.344.344,0,0,1,828.826,18.59Z" fill="#000000"/><path d="M832.069,18.484a1.166,1.166,0,0,1-.139-.553,1.054,1.054,0,0,1,.312-.759,1.038,1.038,0,0,1,.77-.318,1.078,1.078,0,0,1,.9.51l-.288.135a.634.634,0,0,0-.567-.385c-.337,0-.5.3-.5.889a1,1,0,0,0,.12.515.472.472,0,0,0,.442.264.429.429,0,0,0,.327-.125l.116-.13.129-.173.259.1a1.066,1.066,0,0,1-1.879.029Z" fill="#000000"/><path d="M836.438,18.984h-.548V17.167h-.424v-.26h1.389v.26h-.417Z" fill="#000000"/><path d="M828.551,69.958c-2.184-.257-3.36-.47-4.518-.676l-.094.651-.957-.251c.151-.794.226-1.244.37-2.221l.788.113-.087.738.224.031V67.117l-.9.132-.332-.851c.551-.157.738-.219,1.2-.376V65.86l-.794.112-.382-.857,1.176-.206V64l1.045.143.007.589.513-.094-.07-.182,2.54-.356.764.813a6.244,6.244,0,0,1-.482,1.833l.381.362-.325,1.483-2.052.076c1.239.125,2.059.162,2.553.187Zm-2-4.636-.476.081.031.094-.812.244v.231l.619-.137.156.469Zm-1.226,3.165c.4.05.463.056.732.088l-.125-1.689-.607.087v.3l.456-.082.226.995-.682.062Zm.757-1.926.062.262.513-.056Zm.963.156.62-.069-.464-.344Zm.644.776-.637.069.012.225.594-.057Zm-.294-1.658.37-.126a2.774,2.774,0,0,0,.206-.631l-.344.056Z" fill="#000000"/><path d="M835.013,67.023l-.369.8-3.334.394-.051.144,3.147-.382.82.57a4.291,4.291,0,0,1-.795,1.539l-2.64-.763,1.464-.32c.419-.093.469-.106.619-.368l-3.3.506-.769-.4.406-1.064,3.341-.431.056-.145-3.172.438-.369-.669-.619-.45a7.521,7.521,0,0,0,.77-.313l-.32-.088.219-.606-.274.056-.445-.851,1.064-.156.187-.507,1.12.106-.1.232.65-.094.244.306,2.009-.469.781.845c-.287.3-.45.456-.731.719.375.144.763.257.913.3l-.663.814c-.25-.094-.331-.125-.594-.232Zm-2.891-.394-.687-.188c-.132.107-.27.207-.414.307Zm-.95-1.1a5.6,5.6,0,0,0,.531-.431l-.425.087-.15.338Zm1.482,1.045L832.3,66.4l-.138.219Zm.32-1.307-.132-.144c-.226.256-.331.362-.6.625l.419.082-.131.212c.087-.043.151-.075.357-.194l-.395-.206Zm.463-.132c.149.075.168.088.349.175.238-.175.426-.344.538-.444Zm.687,1.283-.312-.132c-.076.063-.107.088-.25.194Z" fill="#000000"/><path d="M838.822,69.332c-.031.138-.075.319-.112.469l-.507-.2-.525.294-.157-.432-.75.463c-.013-.093-.05-.463-.063-.594-.319.244-.363.275-.77.557-.031-.282-.075-1.039-.081-1.226l.794.118c0-.05-.024-.287-.024-.343l-.194.118-.6-.776.669-1.263-.737-.47,1.244-2.089,1.02.519-.157.219,2.259-.675,1.2.587-.507,1.339.363-.144.582,1.095a12.589,12.589,0,0,1-.739,1.514c.314.238.445.332.757.532l-.8.945c-.318-.238-.424-.326-.606-.476-.156.213-.432.607-.463.645Zm-1.132-1.251a2.45,2.45,0,0,0-.038-.282l-.982.613.576.094.645-.357.075.194c.012-.062.074-.331.087-.387Zm-.163-1.014c-.025-.137-.031-.181-.075-.381l-.312.544Zm.713-1.213-.594-.839-.444.626.626.375-.338.594.732.013.062.231c.107-.544.113-.606.213-1.107Zm1.221,2.683c-.194-.2-.357-.394-.376-.419-.125.619-.131.657-.225,1.051C839.147,68.888,839.241,68.781,839.461,68.537Zm.456-1.232-.432-.732a7.9,7.9,0,0,0,.5-1.439l-.788.325.275.138c-.056.513-.075.632-.162,1.214a7.879,7.879,0,0,0,.8.907c.232-.325.313-.445.557-.826Z" fill="#000000"/><path d="M845.742,66.955l1.771-.263.425,1.151-2,.244.282,1.589-1.389.238-.244-1.7-1.714.188-.7-1c.775-.144.926-.175,2.233-.457l-.094-.656-1.489.168-.6-1.038,1.927-.238-.149-1.045,1.244.082.144.813.763-.094-.118-.682.938.25-.157-.463h.845l.413,1.139-.77.319-.156-.469-.25.281.394.676c-.807.194-.888.213-1.657.413Z" fill="#000000"/><path d="M854.094,69.313l-5.105.175-.688-1.182,5.293-.407Zm-.7-3.441L849.3,66.2l-.526-1.133,4.061-.475Z" fill="#000000"/><path d="M855.07,69.757l-.569-.888,2.765-.225.056-.539-2.352.169-.482-.837,2.941-.313.055-.557L854.813,67l-.607-.97,3.554-.445,1.039.695-.463,3.441-.663-.069Z" fill="#000000"/><path d="M859.117,69.219a20.077,20.077,0,0,0,.845-4.266l1.194.331a26.841,26.841,0,0,1-.625,4.336Zm3.854-1.376a11.125,11.125,0,0,0,1.664-1.476l.438,1.551a20.618,20.618,0,0,1-2.5,1.858l-1.007-.726.119-4.8,1.383.337Z" fill="#000000"/><path d="M869.276,65.841a14.452,14.452,0,0,1-1.87,3.572c-.344-.225-1.658-1.07-1.726-1.163a2.379,2.379,0,0,1-.138-.926,2.808,2.808,0,0,1,.775-2.1,3.332,3.332,0,0,1,2.3-.982,2.787,2.787,0,0,1,2.809,2.74,3.434,3.434,0,0,1-1.126,2.389c-.156.145-.281.245-.726.607l-1.7-.75c.5-.2,2.184-.876,2.184-2.39a1.422,1.422,0,0,0-1.527-1.458c-.081,0-.156.007-.225.013Zm-2.459,1.37a1.021,1.021,0,0,0,.22.713,18.347,18.347,0,0,0,.939-2.458A1.752,1.752,0,0,0,866.817,67.211Z" fill="#000000"/><path d="M874.057,64.665l.306.926-2.145.263-.325-.826.788-.132.024-.9,1,.049.006.676Zm1.257,1.314.669-.125.007-.345c-.407.307-.457.338-.589.445-.037-.119-.255-.7-.3-.832-.12.131-.213.212-.689.644a5.915,5.915,0,0,0-.294-1.721,11.4,11.4,0,0,1,1.458.445l-.2.225.613.119.006-.807.988.119.007.725.375-.644.651.563-.557.77L877,65.378l.006.282.67-.126.288,1.083-.832.106c.043.038.6.526.9.726l-.519,1-.469-.494.013.619-1.083.094.007-.632c-.226.263-.245.288-.364.419l-.206-.094-.113.207a21.944,21.944,0,0,0,2.716.306l-.6,1.083a18.686,18.686,0,0,1-2.553-.52l-.3.526-.533-.388-.031.35L872.187,70l-.083-2.058.777-.106-.62-.338.563-.67-.525.138-.281-.794,1.726-.407.156.312,1.145-.406Zm-2.339,2.727v.288l.224-.025.007-.281Zm.969-.9.476-.813-.4.194-.169-.35-.289.312.458.138-.389.488.519.344-.056.645.394-.595Zm1.152-.469.162.094c.25-.225.47-.444.569-.544l-.488.062Z" fill="#000000"/><path d="M884.235,67.142c-.62.207-.92.313-1.47.526.044.244.056.375.081.632l-1.2.175c-.006-.119-.012-.157-.019-.282-.481.245-.606.4-.606.438,0,.057.106.106.244.106a12.542,12.542,0,0,0,2.476-.312l.189,1.3a15.159,15.159,0,0,1-2.234.175,3.21,3.21,0,0,1-1.627-.244,1.194,1.194,0,0,1-.488-.907c0-.639.832-1.145,1.364-1.458a1.56,1.56,0,0,0-1.257.576l-1.132-.269.869-1.527-.369.057-.657-.97,1.67-.219.513-.913,1.339.287-.3.507,1.194-.119.551.939c-.762.143-.863.162-2.533.506l-.157.269a4.062,4.062,0,0,1,.958-.169.721.721,0,0,1,.663.357c.068-.025.694-.319,1.326-.519Z" fill="#000000"/><path d="M889.49,64.427l1.032.563-.4,1.37-2.1.225v.176l1.6-.2.97.575-.457,1.52-2.521.044c1.846.125,2.052.138,3.1.175l-.607,1.195c-1.714-.2-1.958-.237-4.16-.588l-.275.538-1.058-.55c.363-.582.413-.664.858-1.4l-.557-.294.612-.957-.468.2-.476-.932,1.789-.632.525.632.013-1.37.764-.081.237-.682,1.214.156-.169.369Zm-4.235,1.264a3.234,3.234,0,0,0-.326-1.639,9.951,9.951,0,0,1,1.658.488A7.35,7.35,0,0,1,885.255,65.691Zm1.138,2.921c.275.026.306.026.488.038l.018-2.121-.6.776.563.4Zm1.614-.988v.219l1.151-.113.07-.244Zm.038-2.152-.007.225,1.076-.156.057-.194Z" fill="#000000"/><path d="M894.632,65.266l1.02,1.138-1.3,1.064a.517.517,0,0,1,.469.575c.006.382.013.526.332.526a2.137,2.137,0,0,0,1.139-.407l.3,1.489a5.073,5.073,0,0,1-1.352.194c-1.576,0-1.633-.832-1.664-1.289L892.136,69.9l-1.22-.688c1.139-.982,1.9-1.671,3.053-2.815l-1.964.794-.964-1.026,1.814-.451a4.662,4.662,0,0,0-.319-1.7,10.223,10.223,0,0,1,2.1.794l-.957.7Z" fill="#000000"/><g id="TASOFRO"><path d="M921.441,26.345V22.439h12.8v3.906H929.41V44.762h-3.192V26.345Z" fill="#000000"/><path d="M942.654,22.408l5.665,22.354h-3.1l-1.22-5.3h-5.768l-1.193,5.3h-2.947l5.589-22.354Zm-3.506,13.05h3.938l-2.032-8.573Z" fill="#000000"/><path d="M954.565,26.409a1.982,1.982,0,0,0-1.726.7,3.535,3.535,0,0,0-.54,2.223,3.077,3.077,0,0,0,.459,1.81,1.722,1.722,0,0,0,1.4.6h3.914a3.91,3.91,0,0,1,3.482,1.461,8.972,8.972,0,0,1,1.026,4.89,8.621,8.621,0,0,1-1.187,5.017,4.283,4.283,0,0,1-3.752,1.651h-7.883V40.793h7.424a2.286,2.286,0,0,0,1.808-.6,2.819,2.819,0,0,0,.513-1.936,3.393,3.393,0,0,0-.486-2,2.023,2.023,0,0,0-1.62-.571h-3.509a4.27,4.27,0,0,1-3.59-1.524,8.709,8.709,0,0,1-1.107-4.89,9.326,9.326,0,0,1,1.161-5.208,3.959,3.959,0,0,1,1.539-1.239,5.29,5.29,0,0,1,2.24-.412h7.774v4Z" fill="#000000"/><path d="M965.9,24.789a6.392,6.392,0,0,1,10.609.064c1.161,1.9,1.727,4.826,1.727,8.732,0,3.937-.566,6.859-1.727,8.764a6.363,6.363,0,0,1-10.662,0c-1.134-1.9-1.7-4.89-1.7-8.986C964.146,29.521,964.739,26.663,965.9,24.789Zm2.457,2.921a12.977,12.977,0,0,0-.971,5.685,14.606,14.606,0,0,0,.944,6,3.093,3.093,0,0,0,5.75.032A13.954,13.954,0,0,0,975,33.585a14.224,14.224,0,0,0-.917-5.875,3.1,3.1,0,0,0-5.723,0Z" fill="#000000"/><path d="M922.091,54.137a7.777,7.777,0,0,1,1.173-3.239,6.952,6.952,0,0,1,.978-1.111,5.66,5.66,0,0,1,1.23-.794,8.621,8.621,0,0,1,3.464-.635H933.6v3.906h-4.917a3.334,3.334,0,0,0-2.907,1.27,7.061,7.061,0,0,0-.949,4.159H933.6v3.874h-8.773v9.145h-3.074V60.456A42.764,42.764,0,0,1,922.091,54.137Z" fill="#000000"/><path d="M942.737,48.358a4.5,4.5,0,0,1,3.884,1.651,8.627,8.627,0,0,1,1.2,5.081,10.03,10.03,0,0,1-.755,4.16,3.63,3.63,0,0,1-2.207,2.127l3.661,9.335h-3.464l-3.213-8.764h-3.605v8.764h-3.073V48.358Zm-4.5,4v5.62h3.772a2.778,2.778,0,0,0,2.1-.667,3,3,0,0,0,.615-2.159,3.259,3.259,0,0,0-.586-2.159,1.666,1.666,0,0,0-.811-.476,4.875,4.875,0,0,0-1.313-.159Z" fill="#000000"/><path d="M950.508,50.739a6.391,6.391,0,0,1,10.608.064c1.161,1.905,1.728,4.826,1.728,8.732,0,3.938-.567,6.859-1.728,8.764a6.363,6.363,0,0,1-10.662,0c-1.134-1.905-1.7-4.89-1.7-8.986C948.754,55.471,949.348,52.613,950.508,50.739Zm2.457,2.922a12.955,12.955,0,0,0-.972,5.684,14.586,14.586,0,0,0,.945,6,3.093,3.093,0,0,0,5.75.032,13.957,13.957,0,0,0,.916-5.843,14.218,14.218,0,0,0-.916-5.874,3.1,3.1,0,0,0-5.723,0Z" fill="#000000"/></g><path d="M271.042,732.387c-11.286,14.14-23.857,24.135-39.862,32.5l-1.94-6.292A132.136,132.136,0,0,0,244.7,748.378a68.4,68.4,0,0,0-5.988-10.217l4.28-4.737a28.4,28.4,0,0,1,2.863,1.7c1.435-2.147,3.133-4.813,4.243-6.663h-7.557l-1.191,4.442h-7.189l-1.111,4.146a71.415,71.415,0,0,1,6.561,7.847l-7.5,9.625a81.316,81.316,0,0,0-1.467-8.514l-9.045,33.76H213.92l6.487-24.21c-2.735,3.554-5.251,6.294-6.57,7.774L212.65,756.3a118.194,118.194,0,0,0,13.7-23.395h-5.715l2.083-7.774h5.838l3.69-13.77h7.68l-3.689,13.77h.552l3.565-4.59a15.491,15.491,0,0,1,2.007,4.665l1.19-4.442H256.09l2.52-9.4h8.479l-2.519,9.4h6.7l4.055-4.813a16.832,16.832,0,0,1,4.831,6.737l-1.547,5.775h-18.68c-3.65,4.221-8.425,8.735-9.664,9.921,1.691,1.258,2.373,1.925,3.074,2.516a99.52,99.52,0,0,0,10.544-12.289Zm2.712,12.808a121.215,121.215,0,0,1-15.426,16.065,99.255,99.255,0,0,1,10.315,8.513l-9.23,10.144a101.371,101.371,0,0,0-6.944-13.993,116.176,116.176,0,0,1-24.827,13.77l-1.536-7.107c22.751-9.92,34.455-23.1,41.015-31.761Z" fill="#000000"/><path d="M270.239,774.142a70.349,70.349,0,0,0,11.616-13.771l5.511,2.369a97.891,97.891,0,0,1-11.219,17.1Zm50.372-62.781h7.8l-2.7,10.069h2.151l3.525-4.443c2.947,2.075,3.775,3.11,5.4,6.664L335.31,729.2h-2.458c-3.639,12.66-5.278,21.988-4.171,21.988.859,0,2.113-4.22,3.487-8.662l4.264,2.666c-1.9,5.7-5.147,15.769-11.169,15.769a4.025,4.025,0,0,1-1.744-.371c1.44,3.11,2.595,6.368,4.687,13.7l-9.682,5.4a107.206,107.206,0,0,0-1.579-16.583l5.626-3.11c-2.189-2.147-2.167-6.589-.879-13.918l-5.4,7.329a43.884,43.884,0,0,0-2.555-4,73.007,73.007,0,0,1-11.134,12.66l-3.113-4.665c1.116-1.183,1.806-1.924,2.779-3.034-6.97,1.7-19.014,4-26.358,5.034l1.306-7.625c2.272-.222,3.848-.371,9.312-.815l1.151-4.294h-7.742L281.4,741.2h7.742l1.349-5.034h6.39c-.209-.592-.3-1.183.358-3.627l.834-3.11h-3.257c-2.181,3.554-4.858,6.664-11.378,10.588l-2.188-4.221c4.112-2.961,5.429-4.664,6.561-6.367h-4.485l1.427-5.33h8.971l.913-3.406h-7.373l1.428-5.331h7.373l1.071-4h7.681l-1.071,4h2.4l3.183-3.849a11.71,11.71,0,0,1,3.918,5.331l-1.032,3.849h-3.625a11.915,11.915,0,0,1,3.957,5.183l1.19-4.442h4.178ZM287.328,779.62c2.177-8.81,2.651-10.808,3.726-16.657l6.443-1.11a153.633,153.633,0,0,1-1.188,16.583Zm23.758-44.864a22.95,22.95,0,0,1,2.246,1.48c.761-1.924.961-2.443,2.437-7.033h-3.994l-.059.222h-7.558l-.754,2.814c-.2.74-.4,1.48.709,1.48,1.843,0,1.843,0,2.68-2.665l4.661,1.185c-1.336,4.294-2.738,5.626-6.915,5.626h-1.967a12.515,12.515,0,0,1,3.464,4.96L305,746.675h-9.647l-.913,3.405c1.392-.146,8.369-.962,9.965-1.184l-1.151,4.294a67.767,67.767,0,0,0,6.412-9.254c-.805-.889-1.034-1.184-3.123-3.479Zm-14.261,6.44h2.335l2.982-3.331h-1.413a5.525,5.525,0,0,1-2.873-.518Zm10.78-20.507H302.32l-.913,3.406h3.318Zm-5.426,59.005a161.53,161.53,0,0,0,1.291-16.287l6.477-1.926a108.563,108.563,0,0,1,1.711,15.4Zm20.9-50.491a95.22,95.22,0,0,1-4.286,11.179c1.612,1.555,1.86,1.777,3.367,3.258.648-3.331,2.056-8.588,3.562-14.437Z" fill="#000000"/><path d="M347.839,761.334c-2.44,9.106,1.123,9.106,15.318,9.106,7.558,0,13.681-.148,26.089-.592l-3.795,8.661H357.185c-7.128,0-14.379,0-15.122-7.773a128.264,128.264,0,0,1-9.879,8.661l-1.007-9.772c2.02-.888,3.937-1.851,7.71-3.774l4.761-17.77h-5.776l2.1-7.847h5.838l3.812-4.368a19.23,19.23,0,0,1,5.144,7.4l-1.289,4.811H351.39Zm4.976-30.725c-2.9-8-4.355-10.808-5.457-12.659l5-4.887a59.846,59.846,0,0,1,8.663,9.4Zm37.988,20.36h-1.967l-4.384,16.361H376.28l.675-2.517H360.241l-.675,2.517h-8.173l6.983-26.059,7.685,2.739h16.222l3.917-4.072H354.309l1.964-7.33H372.8l1.865-6.958H367.6c-1.293,2.073-2.568,3.85-4.309,6.218l-5.3-2.443a118.378,118.378,0,0,0,8.655-17.4l7.835,1.258c-.562,1.185-.985,2.072-2.516,5.034h4.67l1.865-6.959h8.172L384.8,718.32H390.4l3.894-4.441a19.491,19.491,0,0,1,5.384,6.736l-1.349,5.035H382.84l-1.865,6.958h7.5l4.1-4.515a19.185,19.185,0,0,1,5.672,6.81l-1.349,5.035h-9.709a14.8,14.8,0,0,1,4.909,6.219Zm-26.853,0-1.845,6.885h16.714l1.845-6.885Z" fill="#000000"/><path d="M412.951,758.669a75.669,75.669,0,0,0-2.266-8.514l-7.935,29.614h-7.682l6.943-25.913c-2.4,2.074-4.168,3.406-6.182,4.961l-.616-7.108A85.659,85.659,0,0,0,414.2,730.388H402.647l2.063-7.7h5.653l3.035-11.327h7.682l-3.036,11.327h1.72l3.486-4.293a17.469,17.469,0,0,1,3.371,6l1.546-5.774,7.152,2.664H439.5l2.658-9.92H449.9l-2.658,9.92h4.3l3.956-4.441a17.079,17.079,0,0,1,5.344,6.885l-1.329,4.96h-1.9l-9.84,36.721h-7.5l.973-3.628h-4.855l-4.821,17.991h-7.742l4.821-17.991h-4.608l-.973,3.628H415.63l3.77-14.066Zm9.529-27.541a71.212,71.212,0,0,1-8.5,11.1,51.949,51.949,0,0,1,6.238,6.071l4.6-17.176Zm5.982,14.141-2.44,9.106h4.608l2.44-9.106Zm4.444-16.584-2.46,9.18h4.608l2.46-9.18Zm10.321,25.69,2.44-9.106h-4.855l-2.439,9.106Zm4.424-16.51,2.46-9.18h-4.855l-2.46,9.18Z" fill="#000000"/><path d="M57.048,969.772h-5.42l1.844-6.878a56.525,56.525,0,0,1-11.741,6.946,9.362,9.362,0,0,0-2.883-4.473,42.465,42.465,0,0,0,11.492-5.253H44.1l3.532-13.181h10.12l.3-1.118H45.014l1.225-4.574H59.273l.718-2.677,5.8.237c.412,0,.659.1.559.474-.127.475-.609.611-1.35.814l-.309,1.152H77.865l-1.225,4.574H63.468l-.3,1.118H73.424l-3.532,13.181h-6.1a22.008,22.008,0,0,0,8.5,4.88,28.443,28.443,0,0,0-5.127,4.54,25.081,25.081,0,0,1-8.235-6.776Zm-1.479-14.706H51.076l-.4,1.491h4.493Zm1.2-4.473H52.274l-.363,1.355H56.4Zm3.821,5.964h4.563l.4-1.491H60.989Zm1.235-4.609h4.563l.363-1.355H62.188Z" fill="#000000"/><path d="M93.03,943.172l1.217-4.54,6.316.237c.31,0,.625.1.535.441-.1.372-.644.61-.955.745l-.835,3.117h12.657l-1.417,5.286H95.593c-.468,1.491-.7,2.1-.843,2.508h11.388c-1.145,4.913-3.3,11.928-5.253,14.739-1.1,1.56-3.19,4.609-11.116,4.235a9.744,9.744,0,0,0-.9-5.861,29.921,29.921,0,0,0,3.886.475c2.436,0,3.724-.711,5.931-8.438H92.478A34.648,34.648,0,0,1,76.791,970.11a9.725,9.725,0,0,0-3.5-4.472,26.321,26.321,0,0,0,8.576-4.609c4.4-3.49,6.257-7.861,7.587-12.571h-10.5l1.416-5.286Z" fill="#000000"/><path d="M123.8,942.427l1.035-3.863,6.1.271c.171,0,.53.067.439.406s-.29.441-1.066.78l-3.922,14.638c-.137.509-.45,1.423-.6,1.863.972-.168,1.333-.236,2.021-.372a22.265,22.265,0,0,0-1.927,5.015c-.644.1-.825.136-2.432.373a22.309,22.309,0,0,1-10.917,8.742,10.267,10.267,0,0,0-3.019-4.1c3.743-1.423,5.223-2.337,6.641-3.659-.67.067-3.892.441-4.63.507a1.268,1.268,0,0,0-.28.407.728.728,0,0,1-.59.408c-.377,0-.336-.408-.315-.746l.4-5.083c1.184-.068,3.878-.136,8.825-.678.187-.44.358-.948.888-2.541h-7.066l1.262-4.71h7.1l.753-2.813h-8.267l1.3-4.845Zm8.9,20.67L130.9,969.84H125.03l8.362-31.208,6.17.27c.309,0,.426.2.372.408-.082.3-.411.507-1.039.676l-.654,2.441h8.575l-1.3,4.845h-8.576l-.753,2.813h7.237l-1.289,4.811H134.9l-.826,3.083h8.815l-1.371,5.118Z" fill="#000000"/><path d="M166.01,939.31h15.469l-5.139,19.178H164.609a27.345,27.345,0,0,1,1.526,2.371,35.889,35.889,0,0,0-4.874,3.084,19.9,19.9,0,0,0-1.813-3.218c-.167.237-.279.271-.959.508l-.6,2.236c-.346,1.288.048,1.355,1.077,1.355h3.5c1.681,0,2.075-.575,3.072-3.015a9.344,9.344,0,0,0,3.649,2c-.7-1.221-1-1.662-1.365-2.2l4.767-2.812a28.255,28.255,0,0,1,3.635,6.4,35.705,35.705,0,0,0-4.936,3.186,28.888,28.888,0,0,0-1.642-3.728c-1.98,4.574-4.471,4.779-6.426,4.779h-8.06c-2.608,0-4.2-.848-3.5-3.456l1.062-3.965c-.226.2-.407.236-.86.134a45.359,45.359,0,0,1-5.209,6.642,16.155,16.155,0,0,0-4.231-2.135,34.291,34.291,0,0,0,5.384-6.776l4.634,1.524c.281.1.315.1.4.17l.482-1.8,5.664.237c-.227-.305-.327-.441-.665-.847l2.858-1.83,1.615-6.031a39.524,39.524,0,0,0-3.445,3.9,8.642,8.642,0,0,1-1.626-2.508l-1.652,6.168h-5.214L152.429,953a27.186,27.186,0,0,1-4.283,4.2,9.633,9.633,0,0,0-2.335-3.829,36.116,36.116,0,0,0,7.407-6.777h-4.459l1.2-4.473h5.385l.944-3.524,5.77.1a.364.364,0,0,1,.388.475c-.155.576-1.058.746-1.307.78l-.581,2.168h3.773l-1.2,4.473H159.5a14.851,14.851,0,0,0,3.427,4.236Zm5.962,15.383.436-1.627h-4.664l-.436,1.627Zm1.325-4.947.436-1.626h-4.664l-.436,1.626Zm1.281-4.778.408-1.525h-4.664l-.408,1.525Z" fill="#000000"/><path d="M182.708,954.083l1.434-5.354H195.7l1.126-4.2h-12.8l1.434-5.353h31.626l-1.434,5.353H202.968l-1.126,4.2H213.3l-1.434,5.354H200.648a13.02,13.02,0,0,0,4.224,7.15,17.285,17.285,0,0,0,6.435,3.761c-3.619,2.371-4.793,4.066-5.381,4.981-2.773-1.05-8.213-4.812-10.06-10.335a31.945,31.945,0,0,1-16.129,10.268,9.67,9.67,0,0,0-2.318-5.05c11.017-2.066,15.27-8.979,16.231-10.775Z" fill="#000000"/><path d="M228.614,961.368a21.133,21.133,0,0,0,3.765,5.151,32.591,32.591,0,0,0-5.3,3.389,29.533,29.533,0,0,1-3.956-6.235,1.283,1.283,0,0,1-1.136.27,43.488,43.488,0,0,1-6.308,6.134,11.781,11.781,0,0,0-4.188-2.678,31.939,31.939,0,0,0,6.59-6.031H215.1l5.883-21.957h15.847l-5.883,21.957Zm-2.2,0h-6.209l2.816,1.526a.215.215,0,0,1,.152.2ZM222.259,955l-.472,1.763h4.837L227.1,955Zm1.462-5.456-.472,1.763h4.836l.473-1.763Zm5.881-3.9.463-1.729h-4.837l-.463,1.729Zm14.044-4.4c.4.034.485.237.439.406-.109.408-.653.644-1.032.78l-5.193,19.382h-5.454l5.6-20.908Zm7.72-2.44c.2,0,.53.068.43.44-.127.475-.808.713-1.144.814L243.806,965.6a5.29,5.29,0,0,1-2.3,3.456c-1.263.746-2.155.746-7.035.78a11.481,11.481,0,0,0-.179-5.862c.925.135,2.988.372,3.434.372.515,0,.791-.135,1.036-1.05l6.637-24.77Z" fill="#000000"/><path d="M274.44,969.839c-8.325,0-13.076-6.277-10.564-15.654,2.5-9.341,10.627-15.655,18.953-15.655,8.4,0,13.047,6.387,10.564,15.655S282.841,969.839,274.44,969.839Zm6.717-25.068c-5.979,0-8.708,6.94-9.371,9.414-.693,2.584-1.624,9.451,4.316,9.451,6.093,0,8.787-7.089,9.42-9.451S287.25,944.771,281.157,944.771Z" fill="#000000"/><path d="M320.31,964.817c-.337,1.256-.822,3.066.068,3.62l-.158.589h-7.749a6.474,6.474,0,0,1,.235-3.506l.8-2.992a3.955,3.955,0,0,0-.316-3.248c-.308-.37-.724-1.034-2.837-1.034h-6.525l-2.89,10.78h-7.453l7.954-29.683H317.5c7.082,0,8.76,3.84,7.613,8.122a11.526,11.526,0,0,1-3.194,5.28,10.615,10.615,0,0,1-4.415,2.362,4.216,4.216,0,0,1,2.745.961c1.643,1.476,1.4,3.766,1,5.28Zm-14.9-12.479h7.415a4.649,4.649,0,0,0,4.222-3.58c.584-2.18-.58-3.509-2.249-3.509h-7.489Z" fill="#000000"/><path d="M332.272,969.026h-7.833l7.955-29.683h7.833Z" fill="#000000"/><path d="M362.635,949.2c.214-3.765-2.521-4.429-4.565-4.429-5.789,0-8.433,5.205-9.679,9.857-.94,3.508-1.241,9.008,4.435,9.008a9.432,9.432,0,0,0,4.537-1.255,7.623,7.623,0,0,0,3.537-4.025h-5.449l1.415-5.279h12.791l-4.274,15.949H360.2l.481-3.064a14.462,14.462,0,0,1-10.2,3.877c-8.741,0-12.338-6.351-9.924-15.359,1.524-5.686,6.809-15.95,19.183-15.95,6.244,0,11.508,2.807,10.651,10.67Z" fill="#000000"/><path d="M378.626,969.026h-7.833l7.954-29.683h7.833Z" fill="#000000"/><path d="M404.169,969.026l-8.04-18.717-4.75,18.717h-7.568l7.954-29.683h7.3l8.305,18.719,4.751-18.719h7.568l-7.954,29.683Z" fill="#000000"/><path d="M425.244,964.228l-2.8,4.8h-7.871l18.664-29.683h7.985l2.755,29.683h-7.872l-.227-4.8Zm10.392-5.169-.563-11.742-6.816,11.742Z" fill="#000000"/><path d="M446.851,969.026l7.954-29.683h7.568L456,963.12h14.683l-1.582,5.906Z" fill="#000000"/><path d="M494.391,959.944c-.42,2.7.789,3.692,3.817,3.692,3.141,0,4.579-.849,5.083-2.732.4-1.477-.094-2.473-4.733-3.8-6.289-1.809-9.618-3.508-7.975-9.637,1.266-4.726,6.555-8.935,14.049-8.935,2.46,0,5.253.591,6.97,1.956,2.96,2.364,2.524,5.687,2.306,7.348H506.15c.426-2.437-1.071-3.063-3.228-3.063-1.324,0-3.778.257-4.341,2.362-.337,1.255,0,1.846,4.9,3.471,5.767,1.919,9.63,3.174,7.9,9.636-1.108,4.134-5.751,9.6-15.023,9.6-5.373,0-11.307-2.289-9.723-9.9Z" fill="#000000"/><path d="M526.817,969.839c-8.325,0-13.076-6.277-10.563-15.654,2.5-9.341,10.627-15.655,18.952-15.655,8.4,0,13.048,6.387,10.565,15.655S535.219,969.839,526.817,969.839Zm6.717-25.068c-5.978,0-8.708,6.94-9.371,9.414-.692,2.584-1.624,9.451,4.316,9.451,6.093,0,8.788-7.089,9.42-9.451S539.627,944.771,533.534,944.771Z" fill="#000000"/><path d="M581.5,939.343l-4.868,18.165c-2.443,9.119-9.4,12.331-17.381,12.331-5.827,0-13.337-1.92-10.547-12.331l4.868-18.165h7.569l-4.967,18.534c-1.167,4.356,2.062,5.722,4.9,5.722,2.2,0,6.624-1,7.891-5.722l4.967-18.534Z" fill="#000000"/><path d="M598.705,969.026l-8.04-18.717-4.751,18.717h-7.568l7.955-29.683h7.3l8.3,18.719,4.75-18.719h7.569l-7.954,29.683Z" fill="#000000"/><path d="M618.768,939.343h11.767c10.709,0,12.886,6.424,10.551,15.137-3.305,12.332-11.654,14.546-18.5,14.546h-11.77ZM620,963.12h4.844c6.054,0,8.2-8.013,8.489-9.083,1.236-4.615.614-8.788-3.7-8.788H624.79Z" fill="#000000"/><path d="M669.238,969.026H661.67l6.371-23.777H657.976l1.583-5.906h27.7l-1.583,5.906H675.609Z" fill="#000000"/><path d="M708.986,964.817c-.336,1.256-.82,3.066.07,3.62l-.16.589h-7.748a6.474,6.474,0,0,1,.235-3.506l.8-2.992a3.955,3.955,0,0,0-.316-3.248c-.307-.37-.723-1.034-2.837-1.034h-6.525l-2.889,10.78h-7.453l7.953-29.683h16.055c7.082,0,8.761,3.84,7.613,8.122a11.526,11.526,0,0,1-3.194,5.28,10.6,10.6,0,0,1-4.415,2.362,4.216,4.216,0,0,1,2.745.961c1.644,1.476,1.4,3.766,1,5.28Zm-14.9-12.479H701.5a4.65,4.65,0,0,0,4.223-3.58c.584-2.18-.581-3.509-2.249-3.509h-7.49Z" fill="#000000"/><path d="M721.217,964.228l-2.8,4.8h-7.871l18.664-29.683H737.2l2.754,29.683h-7.871l-.226-4.8Zm10.392-5.169-.563-11.742-6.816,11.742Z" fill="#000000"/><path d="M766.631,950.087c.435-4.025-1.451-5.316-3.987-5.316-5.373,0-7.712,5.906-8.781,9.893-.564,2.105-2.026,8.972,3.764,8.972,5,0,6.657-4.652,7.1-5.87h7.568a17.322,17.322,0,0,1-4.416,7.015,16.565,16.565,0,0,1-11.912,5.058c-8.363,0-12.436-6.129-9.952-15.4,2.443-9.118,9.713-15.912,18.379-15.912,4.843,0,11.354,2.252,9.807,11.557Z" fill="#000000"/><path d="M783.215,960.019l-2.414,9.007h-7.416l7.955-29.683h7.416l-3.206,11.962,14.923-11.962h9.2L795.5,950.419l7.139,18.607h-9.159l-4.969-13.143Z" fill="#000000"/><path d="M968.442,654.649a7.5,7.5,0,1,1,2.2,5.286A7.188,7.188,0,0,1,968.442,654.649Zm13.713,0a6.276,6.276,0,1,0-1.833,4.409A6,6,0,0,0,982.155,654.649Zm-3.835,1.218,1.219.358a3.406,3.406,0,0,1-1.293,2,3.755,3.755,0,0,1-2.293.719,3.687,3.687,0,0,1-2.889-1.174,4.667,4.667,0,0,1-1.055-3.235,4.04,4.04,0,0,1,1.1-2.958,3.893,3.893,0,0,1,2.908-1.114,3.749,3.749,0,0,1,2.165.6,3.034,3.034,0,0,1,1.2,1.729l-1.179.288a2.452,2.452,0,0,0-4.146-.654,3.564,3.564,0,0,0-.7,2.3,3.357,3.357,0,0,0,.684,2.234,2.348,2.348,0,0,0,1.893.807,2.38,2.38,0,0,0,1.5-.5A2.523,2.523,0,0,0,978.32,655.867Z" fill="#000000" stroke="#000000" stroke-miterlimit="10" stroke-width="0.1"/><path d="M974.091,665.241v1.129h3.531v-1.553h1.342q.564.071.07.424v1.129h3.46v1.342h-3.46V669.2h4.872v1.342h-7.272v.988h4.8v5.862h-2.9a12.143,12.143,0,0,0,5.084,1.836l-.636,1.482a10.942,10.942,0,0,1-5.578-2.26l.777-1.058h-4.873l.777,1.058c.235.284.117.4-.353.354a19.6,19.6,0,0,1-4.8,2.118l-.566-1.482a13.933,13.933,0,0,0,4.661-2.048h-2.824v-5.862h5.013v-.988h-7.414V669.2h4.872v-1.483h-3.46V666.37h3.46v-1.553h1.342Q974.584,664.888,974.091,665.241Zm1.13,8.686v-1.272h-3.6v1.272Zm0,1.129h-3.6v1.2h3.6Zm2.4-5.861v-1.483h-3.531V669.2Zm2.4,4.732v-1.272h-3.388v1.272Zm0,2.33v-1.2h-3.388v1.2Z" fill="#000000"/><path d="M976.562,690.4q-3.177.636-7.7,1.414c-.236.329-.378.377-.424.14l-.353-1.482q.916-.07,1.836-.212v-6.779l1.412.282a69.959,69.959,0,0,0,9.392-1.059l1.059,1.271q.282.354-.564.141-2.19.284-4.378.494a8.691,8.691,0,0,0,.423,1.836H983.2v1.13h-5.436a5.319,5.319,0,0,0,4.518,2.824c.283,0,.471-.516.566-1.552l1.341.494q-.212,2.613-1.695,2.612-3.813,0-6.214-4.378h-4.943v2.542q2.543-.423,5.085-.918Zm2.614,8.474v-.564h-7.2v.776h-1.412v-7.344h10.027v7.132Zm-7.839-12.428h4.519a6.326,6.326,0,0,1-.352-1.694q-2.049.142-4.167.212Zm7.839,7.98v-1.554h-7.2v1.554Zm0,2.754v-1.624h-7.2v1.624Z" fill="#000000"/><path d="M971.267,714.317q8.824-2.048,9.251-9.391H969.925v-1.554h10.733l.989-.212.777.706q-.284,9.393-9.886,12Z" fill="#000000"/><path d="M981.576,732.324h-1.624v-.777h-7.838v1.13H970.49V721.661h11.086Zm-9.462-9.109v6.779h7.838v-6.779Z" fill="#000000"/><path d="M983.694,743.41q-3.743,7.77-12.568,8.192-.354.916-.707.141l-.565-1.836q9.18-.212,12.358-7.555Zm-13.557-2.894,1.2-1.484a25.9,25.9,0,0,1,3.743,3.036l-1.342,1.342A29.408,29.408,0,0,0,970.137,740.516Z" fill="#000000"/><path d="M975.716,762.617h-7.062v-1.554H983.13v1.554h-5.79v.918a9.5,9.5,0,0,1-3.178,7.344l-1.412-1.059a7.574,7.574,0,0,0,2.966-6.285Zm-4.52-4.307v-1.554h9.392v1.554Z" fill="#000000"/><path d="M978.752,787.4H977.34v-6.566a29.532,29.532,0,0,1-4.661,2.754l-.989-1.2q6.708-3.247,9.18-7.133l1.2.918c.284.236.188.4-.282.5a23.084,23.084,0,0,1-3.036,3.036Z" fill="#000000"/><path d="M976.492,798.631a9.017,9.017,0,0,1-4.59,8.332l-1.2-1.342q4.166-2.259,4.166-6.355v-3.037h1.483c.423.048.47.212.141.5v1.836a18.546,18.546,0,0,0,3.884-3.743l-11.51.424-.141-1.624,12.851-.353.494-.142,1.06,1.272q.212.282-.354.211a30.815,30.815,0,0,1-5.084,5.155Z" fill="#000000"/><path d="M967.807,823.486,983.2,810.635l.778.918L968.583,824.4Z" fill="#000000"/><path d="M974.444,840.505v-12.5H976q.7.143.07.564v4.1h5.72v1.554h-5.72v6.285h7.344v1.553H968.089v-1.553Z" fill="#000000"/><path d="M967.736,860.135a17.211,17.211,0,0,0,2.472-5.014l1.2.918a16.64,16.64,0,0,1-2.048,4.873q.069.7-.353.353Zm2.613-6.708a14.444,14.444,0,0,0-2.542-1.766l.988-1.342a9.979,9.979,0,0,1,2.542,1.7Zm.706-4.238a17.808,17.808,0,0,0-2.613-1.906l1.13-1.342a14.608,14.608,0,0,1,2.683,1.836Zm11.087,1.06V854.2h1.836v1.342h-1.836L982,858.229h1.483v1.341H981.93l-.142,1.059a1,1,0,0,1-1.059.989h-1.907l-.282-1.342h1.554a.333.333,0,0,0,.352-.282l.072-.424h-6.427l-.141,1.059h-1.412l.565-5.084h-1.695V854.2h1.765l.212-3.46a12.672,12.672,0,0,1-1.13,1.13l-1.059-1.2a11.439,11.439,0,0,0,3.46-5.367l1.483.5q.353.142-.211.352l-.5,1.2h7.979V848.7H974.8a6.628,6.628,0,0,1-1.13,1.554Zm-5.226,5.3h-2.4l-.212,2.684h2.4Zm-2.118-3.954-.212,2.612h2.4l.071-2.612Zm3.53,3.954-.212,2.684h2.472l.141-2.684Zm.07-1.342h2.331v-2.612H978.47Z" fill="#000000"/><path d="M976.492,870.939a9.015,9.015,0,0,1-4.59,8.332l-1.2-1.341q4.166-2.259,4.166-6.356v-3.036h1.483q.635.072.141.494v1.836a18.519,18.519,0,0,0,3.884-3.742l-11.51.424-.141-1.624,12.851-.354.494-.141,1.06,1.271c.141.189.023.259-.354.212a30.772,30.772,0,0,1-5.084,5.154Z" fill="#000000"/><path d="M973.032,891.559h-1.624v-7.98h1.554q.705.071.07.565Zm7.274-1.554a7.89,7.89,0,0,1-4.944,7.626l-1.412-1.2q4.66-2.118,4.732-6.5v-7.062h1.482c.47.095.518.282.142.565Z" fill="#000000"/><path d="M983.06,913.236l-1.413,1.2a50.952,50.952,0,0,0-5.719-5.226,34.484,34.484,0,0,1-6.285,5.3l-1.342-1.2q7.483-4.874,9.6-9.746l-7.7.5-.212-1.7,8.191-.353.847-.212,1.13,1.13q.494.495-.282.635a42.435,42.435,0,0,1-2.825,4.308A56.853,56.853,0,0,1,983.06,913.236Z" fill="#000000"/><path d="M970.772,924.323q.847.636,1.766,1.412a26.8,26.8,0,0,0,2.33-4.166l1.412.918q.282.284-.212.353a69.226,69.226,0,0,1-5.084,7.767l3.954-.352a20.228,20.228,0,0,0-1.058-2.4l1.482-.565a20.268,20.268,0,0,1,1.907,4.942l-1.624.566-.283-1.272-6.5.778c-.141.328-.283.4-.424.212l-.494-1.908h1.271q1.624-2.187,2.471-3.53a28.933,28.933,0,0,0-3.671-2.754l.847-1.271.706.424a25.645,25.645,0,0,0,2.824-5.438l1.554.918c.188.19.117.307-.212.354A34.328,34.328,0,0,1,970.772,924.323ZM983.2,919.45l-.14,11.723q0,1.9-1.484,1.906H978.61l-.212-1.554h2.26q.849,0,.848-1.27l.141-9.251H975.5V919.45Z" fill="#000000"/><path d="M968.23,944.1l-.282-1.13h.847l1.13-1.694-2.048-1.7.565-.918.353.283,1.624-2.683.918.424c.329.236.283.377-.141.423l-1.7,2.471.989.778,1.342-2.331.847.424c.329.236.283.377-.141.423l-2.613,4.026,1.836-.212-.494-1.2.847-.282a11.319,11.319,0,0,1,1.13,2.754l-.989.353-.211-.777-3.319.565Q968.441,944.731,968.23,944.1Zm6.991,1.483V944.1h-.565v.353h-1.2v-6.709h1.554l.423-1.906,1.2.212q.635.143,0,.424l-.566,1.27h2.33v6.709h-1.2V944.1h-.564v1.483h6.99v1.342h-6a17.194,17.194,0,0,0,6.567,2.966l-.847,1.341a17.044,17.044,0,0,1-6.708-3.672v4.519h-1.413v-4.307a14.133,14.133,0,0,1-6.567,3.46l-.706-1.2a16.084,16.084,0,0,0,6.5-3.106H968.23v-1.342Zm1.977-5.225v-1.484h-2.542v1.484Zm0,2.612v-1.483h-2.542v1.483Zm1.906.918-.282-1.059h.354l1.27-1.836-1.836-1.483.494-.848.284.212,1.624-2.682.918.422c.328.237.282.378-.142.424l-1.624,2.331.918.706,1.342-2.119.847.424c.329.236.283.378-.141.424l-2.824,3.954,1.976-.212-.494-1.27.848-.283a15.63,15.63,0,0,1,1.13,2.754l-.99.353-.211-.706-2.965.494C979.41,944.307,979.246,944.307,979.1,943.883Z" fill="#000000"/><path d="M982.918,969.729h-1.412v-.707H970.278v.918h-1.412V954.759h14.052Zm-1.412-2.048V956.1H970.278v11.58Zm-2.9-2.048a1,1,0,0,1-1.13,1.13h-1.552l-.283-1.342h1.271a.249.249,0,0,0,.282-.282v-4.872h-6.143v-1.342H977.2v-2.118h1.342q.564.071.07.423v1.695h2.26v1.342h-2.26Zm-5.154-4.519a27.006,27.006,0,0,1,1.906,2.824l-1.271.777a24.1,24.1,0,0,0-1.836-2.824Z" fill="#000000"/></g><g id="Outline"><path id="東方非想天則" d="M901.487,28.639c-1.236-.141-2.57-.239-2.989-.262-.074,0-.149-.006-.223-.006a4,4,0,0,0-3.935,3.286c-.837-.1-1.761-.182-2.544-.219-3.566-2.837-4.378-2.837-5.314-2.837a4.489,4.489,0,0,0-3.689,2.006h-1.38c-.943-.246-2.379-.576-3.764-.811-.151-1.754-1.324-2.81-3.061-4.342-.3-.265-.579-.509-.841-.732h.671a4.229,4.229,0,0,0,4.418-4.225c0-2.06-1.382-3.233-3.132-4.718-1.859-1.577-2.9-2.4-4.5-2.4a4.3,4.3,0,0,0-3.7,2.139l-.61.852H845.322a4,4,0,0,0-3.643,5.65l.16.354a4,4,0,0,0,3.643,2.349h7.768v1.324h-6.417a3.981,3.981,0,0,0-3.508,2.08,5.084,5.084,0,0,0-.669.674h-1.343c-.467-.106-1.043-.218-2.486-.5l-.633-.124a4.026,4.026,0,0,0-1.547,0,4.259,4.259,0,0,0-2.063-.8c-.432-.061-1.076-.112-3.28-.289l-.438-.035c-.106-.008-.213-.012-.319-.012a4,4,0,0,0-4,4v.381h-.671a4,4,0,0,0-3.65,5.637l.128.285a4.011,4.011,0,0,0,.66,1.013c-.04-.013-.08-.031-.121-.042h0a29.855,29.855,0,0,0-4.44-.546c-.362-.036-.633-.062-.727-.073a3.939,3.939,0,0,0-2.535.528l-.047,0c-.334-.052-.678-.1-1.078-.155.068-.739.126-1.51.178-2.325a4.317,4.317,0,0,0,.659-5.119,4.164,4.164,0,0,0,3.788-4.19c0-2.056-1.387-3.231-2.994-4.591-1.778-1.507-2.671-2.263-4.266-2.263a4.09,4.09,0,0,0-2.968,1.258,4.261,4.261,0,0,0-3.69-3.227c-.046-.007-.093-.013-.14-.018-.573-.062-1.146-.116-1.879-.184-.571-.053-1.244-.116-2.1-.2-.131-.013-.262-.019-.392-.019a4,4,0,0,0-4,4v1.136h-6.625a3.984,3.984,0,0,0-3.987,3.773,4.223,4.223,0,0,0-4.111-3.277c-.918-.1-3.866-.283-4.7-.315-.051,0-.1,0-.155,0a4,4,0,0,0-4,4v.012h-8.671a4,4,0,0,0-3.69,5.546l.168.4a4,4,0,0,0,2.832,2.361V45.787a4.563,4.563,0,0,0,1.587,3.757,38.844,38.844,0,0,1-4.009,3.24,4,4,0,0,0-.512,6.1l.1.1a4,4,0,0,0,4.087.959,36.7,36.7,0,0,0,8.107-3.765v.439c0,3.875,2.834,4.909,4.508,4.909.125,0,.264,0,.417-.013l2.731-.169a4.5,4.5,0,0,0,4.359-4.2c2.526,1.879,5.307,3.138,7.363,3.138a4.8,4.8,0,0,0,4.893-4.8l.005-.07a.572.572,0,0,1,.03-.1,3.994,3.994,0,0,0,1.432-1.341,3.96,3.96,0,0,0,.259,1.288l.15.374a4.136,4.136,0,0,0,.258.526,4,4,0,0,0-1.445,4.659c.229.618,1.288,3.358,1.708,4.332a3.98,3.98,0,0,0,1.325,1.655c-.123.073-.249.146-.377.219a4,4,0,0,0-1.834,4.715l.03.094a4,4,0,0,0,4.743,2.653,23.319,23.319,0,0,0,9.562-4.609c.154-.128.3-.257.447-.388v.455A4.868,4.868,0,0,0,813.8,72.4a4.308,4.308,0,0,0,3.922,2.232c.1,0,.217,0,.34-.009l.053,0,2.868-.186.058,0a4.39,4.39,0,0,0,4.075-4.7V66.355h4.516a4.185,4.185,0,0,0,4.212-4.249c0-1.671-.87-2.7-2.247-3.983.069-.071.122-.157.186-.233a21.805,21.805,0,0,0,6.821.661,21.224,21.224,0,0,0,5.523-.437,6.6,6.6,0,0,0,1.555-.647,6.2,6.2,0,0,0,1.726.229,5.893,5.893,0,0,0,5.976-6.074,7.107,7.107,0,0,0-.475-2.564,20.466,20.466,0,0,0,7.693-5.586c3.542,5,9.227,7.71,11.564,7.71l.054,0v2.541a4.84,4.84,0,0,0,.728,2.657,20.784,20.784,0,0,1-2.393,3.207,4,4,0,0,0,.122,5.508l.065.066a4,4,0,0,0,4.3.9,25.175,25.175,0,0,0,7.92-4.8l.021.069c.294,1.121,1.18,4.284,4.866,4.284a7.073,7.073,0,0,0,5.315-2.487,4.649,4.649,0,0,0,4.914,3.737c2.476,0,8.235-.742,8.235-7.619V35.865a3.992,3.992,0,0,0,1.042-2.738C907.357,29.3,903.393,28.855,901.487,28.639Zm-36.026-2.593V24.722h1.1c-.108.144-.214.3-.317.465l-.556.859Zm6.76,11.294a13.842,13.842,0,0,1-4.4-2.908h4.4ZM796.335,47.948a17.083,17.083,0,0,0,1.7-1.041,4,4,0,0,0-.36,1.81A3.979,3.979,0,0,0,796.335,47.948Z" fill="#fff"/><g id="東方非想天則-2" data-name="東方非想天則"><path d="M795.075,51.8a4.146,4.146,0,0,0-2.106,3.41c-.033.5-.067,1.07-.9,1.07-1.805,0-6.351-2.708-8.692-6.084a20.837,20.837,0,0,1-2.574-5.651h-.067V56.518c0,.535-.034.8-.635.836l-2.708.167c-.6.034-.7-.033-.7-.9V47.726a31.161,31.161,0,0,1-13.373,8.424l-.1-.1a39.243,39.243,0,0,0,8.759-8.358,25.063,25.063,0,0,0,2.04-3.143h-2.541v.937c0,.4-.034.869-.7.9l-2.608.168c-.836.066-.836-.134-.836-.769V33.316c.969.234,3.677.9,4.78,1.271h4.581V30.909h-12.5l-.168-.4h12.671V26.5c.869.034,3.945.234,4.48.3.5.034.6.1.6.234,0,.3-.569.435-1.037.535v2.942h7.188l1.973-2.574c.3-.368.3-.435.4-.435.233,0,3.845,2.742,3.845,3.143,0,.267-.235.267-.435.267H780.733v3.678h4.982l1.069-1.438c.468-.6.6-.6.736-.6.4,0,4.011,2.441,4.011,3.009,0,.535-1.1,1-1.3,1.07v8.425c0,.6,0,.9-.769.97l-2.508.2c-.869.067-.869-.2-.869-.8v-.87H781.1c2.106,3.477,7.623,6.486,13.974,7.188ZM776.688,39.3V34.988h-5.215V39.3Zm0,4.881V39.7h-5.215v4.48Zm4.045-9.194V39.3h5.349V34.988Zm0,4.714v4.48h5.349V39.7Z" fill="#000000"/><path d="M807.653,30.5c.326-.407.38-.461.516-.461s3.289,2.146,3.289,2.663c0,.38-.408.489-1.087.706-.435,8.18-.925,12.8-6.278,12.8-.869,0-1.25-.108-1.25-.761,0-1.576,0-2.147-2.093-3.343V42a28.946,28.946,0,0,0,2.989.272c1.441,0,2.066-.327,2.5-2.555a55.879,55.879,0,0,0,.625-7.528h-5.353c-1.142,10.436-6.795,12.5-11.469,13.969l-.027-.054a14.325,14.325,0,0,0,5.38-5.028c1.441-2.31,2.8-5.707,2.8-14.186v-.244h-8.424l-.135-.327h10.625V21.182c1.929.19,2.935.272,3.941.38.19.028.38.082.38.245,0,.272-.326.353-.843.489v4.022h5.707L811.1,23.9c.136-.19.217-.326.327-.326a19.989,19.989,0,0,1,3.26,2.854c0,.218-.163.218-.326.218H801.811a45.058,45.058,0,0,1-.246,5.217h5.055Z" fill="#000000"/><path d="M810.156,54.141h-7.61l-.15-.373h7.76V48.945h-8.365l-.121-.373h8.486V41.6c2.536.311,3.563.435,4.53.591.06,0,.422.062.422.249,0,.249-.513.342-1.027.4V54.919c0,.84,0,1.493-.06,2.613l2.748-.4.03.093c-.452.218-2.445,1.182-2.868,1.369-.212,2.427-.544,5.6-3.685,8.214a19.2,19.2,0,0,1-7.941,3.8l-.031-.094c6.705-3.8,7.4-8.244,7.67-9.956-2.264,1.12-4.59,2.116-6.915,3.018-.362-.84-1.388-3.485-1.631-4.138l8.758-1.306Zm13.981-5.6,1.631-2.583c.181-.279.242-.373.362-.373a24.58,24.58,0,0,1,3.382,3.081c0,.217-.12.248-.241.248h-8.154v6.1h2.235l1.782-2.489c.241-.311.271-.342.362-.342a22.9,22.9,0,0,1,3.291,2.956c0,.217-.09.249-.211.249h-7.459v6.595h3.02l1.9-2.675c.242-.343.273-.373.363-.373a23.955,23.955,0,0,1,3.443,3.173c0,.218-.091.249-.212.249h-8.516v7.374c0,.56,0,.684-.392.715l-2.869.187c-.6.031-.6-.125-.6-.685V41.665c.242.031,4.227.4,4.56.5.06,0,.3.093.3.249,0,.249-.091.28-1,.56v5.569Z" fill="#000000"/><path d="M826,35.7l-.128-.285h4.671V31.038c2.592.207,3.26.259,3.567.311.077,0,.232.051.232.155,0,.208-.514.311-.771.389v3.526h.565l.975-1.5c.129-.207.205-.285.282-.285a10.593,10.593,0,0,1,1.823,1.892c0,.182-.077.182-.18.182h-3.465v1.167c2.746,1.322,3.388,2.411,3.388,3.577a1.562,1.562,0,0,1-1.591,1.737c-.693,0-.976-.181-1-.751-.1-2.386-.154-3.059-.8-4.278v8.477c0,.389,0,.493-.513.545l-1.951.155c-.564.052-.564,0-.564-.622V40.319a18.49,18.49,0,0,1-5.056,4.485l-.026-.052a33.122,33.122,0,0,0,4.209-9.048Zm3.619,11.9a9.122,9.122,0,0,1,.77,3.474c0,2.022-1.078,3.11-2.233,3.11a1.914,1.914,0,0,1-1.9-1.763c0-.363.128-.492.539-.8a6.926,6.926,0,0,0,2.746-4.018Zm2.361-.416c.437.053,3.875.312,3.875.571,0,.207-.333.311-.769.415v2.618c0,.337,0,.623.154.7a17.315,17.315,0,0,0,3.388.182c1.975,0,2.412-.1,2.771-.441a10.938,10.938,0,0,0,1.823-2.982h.051c-.026.338-.077,1.79-.077,2.126a.951.951,0,0,0,.385.908c.642.622.769.959.769,1.4,0,1.711-1.54,1.866-5.749,1.866-6.082,0-6.621-.077-6.621-3.266Zm3.875-.855c.976.078,4.877.467,4.877,2.852a1.8,1.8,0,0,1-1.822,1.737c-.744,0-.8-.311-1.078-1.193a7.286,7.286,0,0,0-1.977-3.318Zm4.646-2.074V45.4c0,.518,0,.544-.513.6l-2,.156c-.565.052-.565-.026-.565-.649V32.1c2.515.492,2.8.544,3.414.7h3.875l.873-1.244c.257-.363.282-.389.41-.389a11.82,11.82,0,0,1,2.952,2.489c0,.259-.668.544-.975.674V45.556c0,.388,0,.57-.437.6l-2.13.129c-.564.026-.564.026-.564-.622v-1.4Zm4.338-7.829V33.112h-4.338V36.43Zm0,3.63V36.715h-4.338V40.06Zm0,3.914v-3.6h-4.338v3.6Zm-.462,3.137c3.541,1.166,5,2.67,5,4.511a1.912,1.912,0,0,1-1.976,2.074c-.873,0-1.053-.208-1.13-.83a11.968,11.968,0,0,0-1.95-5.678Z" fill="#000000"/><path d="M867.859,30.046l1.769-2.733c.1-.161.257-.386.386-.386a22.1,22.1,0,0,1,3.665,3.247c0,.258-.226.258-.418.258H861.493c1.222,7.587,8.713,11.091,14.308,12.184v.129a3.891,3.891,0,0,0-2.637,2.926c-.161.868-.257,1.511-1,1.511-.771,0-6.494-2.219-9.291-7.652-1.189-2.282-1.575-4.469-1.64-8.455a25.639,25.639,0,0,1-1.092,5.144c-2.637,7.716-10.161,10.256-15.207,10.9l-.065-.1c11.284-4.469,11.992-13.149,12.281-16.589H846.962l-.129-.386h10.353c.032-1.061.064-2.058.064-3.119v-6.2H845.482l-.16-.353h23.63l1.865-2.605c.161-.257.257-.386.386-.386a19.836,19.836,0,0,1,3.633,3.119c0,.225-.193.225-.418.225H861.461v6.2a30.914,30.914,0,0,1-.128,3.119Z" fill="#000000"/><path d="M884.887,34.607l1.042-1.513c.293-.394.358-.493.553-.493a35.9,35.9,0,0,1,3.161,2.237c.684.526.814.658.814.954,0,.625-1.075.79-1.368.822V53.063c0,.593,0,.724-.717.79l-2.606.2c-.586.033-.586-.1-.586-.657V52.6h-5.05v.855c0,.592,0,.691-.781.757.586.2,4.17,1.414,4.17,1.743,0,.2-.1.2-1.076.264a23,23,0,0,1-8.861,6.119l-.065-.066a24.184,24.184,0,0,0,4.854-7.994l-1.5.1c-.488.033-.651-.1-.651-.658v-20.1a40.04,40.04,0,0,1,4.658.986Zm-4.757.363v5.4h5.05v-5.4Zm0,5.79v5.3h5.05v-5.3Zm0,5.658v5.823h5.05V46.418Zm3.323,7.929c5.636.657,7.2,2.96,7.2,4.638a2.739,2.739,0,0,1-2.8,2.632c-.62,0-.717-.23-1.01-1.349-.359-1.25-1.759-4.606-3.421-5.823Zm12.021.1c0,.461,0,.592-.586.625l-2.8.2c-.554.032-.554-.132-.554-.593V35.43a40.272,40.272,0,0,1,4.236.461c.586.1.651.1.651.263s-.1.263-.945.428Zm6.841,4.8c0,1.316,0,3.619-4.235,3.619-.912,0-1.042-.263-1.042-1.02a5.575,5.575,0,0,0-.065-1.579c-.293-1.151-2.868-2.138-3.258-2.3v-.1c.749.032,3.388.131,3.941.131.619,0,.619-.131.619-.954V32.371c.587.032,5.082.361,5.082.756,0,.23-.716.395-1.042.494Z" fill="#000000"/></g></g></svg>
