<svg xmlns="http://www.w3.org/2000/svg" width="1000" height="988" viewBox="0 0 1000 988"><g id="Artboard"><rect id="Page" width="1000" height="988" fill="#fff"/></g><g id="Back_Text" data-name="Back Text"><path d="M879.752,767.021l-28.939-.923-24.6.692-14.441.693c-3,0-4.81-.231-5.883-.693s-1.374-1.386-1.13-2.771c.284-1.617,5.362-5.543,15.507-12.01l20.1-13.164c22.351-15.475,40.233-30.487,53.373-44.807,12.91-14.319,20.454-27.021,22.4-38.107,1.664-9.47.043-17.323-4.947-23.1-5.221-5.773-12.818-8.545-23.21-8.545a48.963,48.963,0,0,0-25.007,6.929c-7.973,4.619-15.888,11.548-23.788,21.017l-4.56,6.236c-2.768,3.926-4.71,5.774-5.865,5.774-.652-.231-1.113-.231-1.3-.463l-.138-1.847c.325-1.848,1.777-4.85,4.545-8.776a69.273,69.273,0,0,1,9.855-12.7c8.945-10.162,18.137-17.784,28-22.634a65.231,65.231,0,0,1,30.168-7.39c25.174,0,38.432,15.243,34.211,39.262-2.6,14.782-13.292,30.949-31.811,48.271s-47.345,38.108-86.019,62.358c11.316,0,21.75-.23,31.8-.924,9.824-.692,18.953-1.385,27.429-2.309,16.029-1.848,27.33-4.388,34.135-7.621,4.542-12.7,7.579-20.786,9.03-23.789,1.222-3,2.389-4.388,3.082-4.388l1.032.692.138,1.848L918.9,737.458a249.282,249.282,0,0,0-5.73,24.713l-2.813,17.322-.133,2.078-.828,2.079a4.349,4.349,0,0,1-1.507.693c-.694,0-1.225-.924-2.014-3l-.048-11.548C897.482,768.638,888.3,767.021,879.752,767.021Z" fill="#231f20"/></g><g id="Mid_Outline" data-name="Mid Outline"><g id="幺樂団の歴史"><path d="M878.106,723.032a22.991,22.991,0,0,1-6.183-.92c-3.125-.845-10.269-3.8-21.82-9.039-3.61-1.643-6.944-3.126-9.939-4.419-.185.254-.364.493-.539.72a30.931,30.931,0,0,1-16.274,10.386,44.678,44.678,0,0,1-13.708,2.52c-2.525,0-4.366-.527-5.628-1.611-1.374-1.27-2.015-3.195-2.015-5.938,0-.712.259-3.077,3.584-3.576a2.109,2.109,0,0,1,.3-.022c9.2,0,15.51-.733,18.746-2.177a17.652,17.652,0,0,0,6.431-4.305c-2.96-1.255-5.506-2.256-7.59-2.983a71.369,71.369,0,0,0-11.135-2.736c-2.589-.515-4.032-2.156-4.032-4.514.1-2.772,1.665-4.509,4.184-4.72.056,0,.112-.007.167-.007.039,0,.078,0,.118,0a16.75,16.75,0,0,1,3.6.713,4.282,4.282,0,0,1-1.951-3.889,1.941,1.941,0,0,1,.018-.264,73.943,73.943,0,0,0,.734-9.517,65.721,65.721,0,0,0-.732-8.844,1.988,1.988,0,0,1-.02-.278c0-3.09,1.884-5.01,4.915-5.01a13.386,13.386,0,0,1,3.428.443c.041.011.082.023.122.037a12.135,12.135,0,0,0,3.6.367h10.79v-6.746a4.387,4.387,0,0,1,4.727-4.539c3.693,0,5.009,2.345,5.009,4.539s-.019,4.454-.057,6.749c4.075.022,8.883.147,14.317.375a10.077,10.077,0,0,0,3-.73,1.982,1.982,0,0,1,.677-.119c3.032,0,4.915,1.92,4.915,5.01a3.386,3.386,0,0,1-.494,1.555,8.605,8.605,0,0,0-.646,2.985,64.982,64.982,0,0,0-.364,7.121c0,1.437.123,3.429.366,5.919a1.819,1.819,0,0,1,.01.2c0,4.909-3.475,5.291-4.54,5.291-.057,0-.115,0-.172-.008-6.369-.553-12.314-.888-17.7-1a43.814,43.814,0,0,1-1.943,10.233,231.226,231.226,0,0,0,25.075,7.891,77.957,77.957,0,0,0,14.648,2.2h0a3.034,3.034,0,0,1,3.159,3.222c0,2.338-1.244,4.684-3.805,7.17-.041.04-.083.078-.127.114A8.3,8.3,0,0,1,878.106,723.032Zm-59.781-32c6.435,2.065,12.3,4.081,17.465,6a27.732,27.732,0,0,0,1.117-4.2c.073-.827.136-1.8.188-2.895-5.789.022-9.59.142-11.312.356a1.731,1.731,0,0,1-.178.015,48.871,48.871,0,0,0-6.316.724,2,2,0,0,1-.336.029C818.737,691.058,818.528,691.047,818.325,691.027Zm6.07-9.249c.067.007.147.011.242.013,3.71-.219,7.951-.343,12.63-.37v-9.454H825.091A70.079,70.079,0,0,1,824.4,681.778Zm22.286-.332c3.933.068,8.126.178,12.5.329.008-4.112.1-7.22.277-9.446-3.559-.1-7.768-.186-12.577-.245C846.827,675.21,846.762,678.345,846.681,681.446Z" fill="#fff"/><path d="M841.994,654.168q3.009,0,3.009,2.539,0,4.327-.094,8.746h.847q6.488,0,15.423.376a11.824,11.824,0,0,0,3.761-.847q2.914,0,2.915,3.01a2.893,2.893,0,0,1-.282.658,10.831,10.831,0,0,0-.846,3.668,66.589,66.589,0,0,0-.376,7.335q0,2.257.376,6.114,0,3.292-2.54,3.291-10.814-.939-19.749-1.035a40.951,40.951,0,0,1-2.632,13.449,240.823,240.823,0,0,0,27.178,8.651,79.567,79.567,0,0,0,15.047,2.258,1.082,1.082,0,0,1,1.223,1.223q0,2.632-3.2,5.736a6.36,6.36,0,0,1-3.95,1.692,20.937,20.937,0,0,1-5.642-.845q-4.515-1.223-21.536-8.935-6.4-2.913-11.473-5.078-.755,1.128-1.411,1.974a28.824,28.824,0,0,1-15.235,9.687,42.778,42.778,0,0,1-13.166,2.445,6.619,6.619,0,0,1-4.326-1.129q-1.319-1.22-1.317-4.42,0-1.315,1.881-1.6,14.293,0,19.561-2.351a17.981,17.981,0,0,0,8.746-6.96q-6.019-2.631-10.062-4.043a73.094,73.094,0,0,0-11.474-2.822q-2.352-.468-2.351-2.539.093-2.538,2.351-2.727a18.588,18.588,0,0,1,4.42,1.035q11.19,3.575,19.843,6.865a28.1,28.1,0,0,0,1.976-6.489q.188-2.067.282-5.172-10.629,0-13.637.376a50.577,50.577,0,0,0-6.583.752,2.244,2.244,0,0,1-2.539-2.539,75.488,75.488,0,0,0,.752-9.781,67.349,67.349,0,0,0-.752-9.122q0-3.009,2.915-3.01a11.352,11.352,0,0,1,2.916.376,14.211,14.211,0,0,0,4.232.471h12.79v-8.746a2.382,2.382,0,0,1,2.727-2.539m-17.305,29.623q6.3-.374,14.578-.376V669.967h-14.2q-1.976,0-1.975,1.787a67.453,67.453,0,0,1-.752,10.251q0,1.787,2.35,1.786m34.891,0q1.6,0,1.6-1.41,0-7.617.376-11,0-1.035-1.6-1.034-6.114-.187-15.047-.282-.095,6.678-.282,13.353,6.958.1,14.953.376m-17.586-33.623a6.367,6.367,0,0,0-6.725,6.394c0,.048,0,.1,0,.145v4.746h-8.79a10.453,10.453,0,0,1-2.963-.264c-.081-.027-.163-.052-.245-.073a15.4,15.4,0,0,0-3.94-.51c-4.136,0-6.915,2.817-6.915,7.01a3.976,3.976,0,0,0,.039.556,63.792,63.792,0,0,1,.713,8.566,71.883,71.883,0,0,1-.717,9.252,4.075,4.075,0,0,0-.035.529,7.994,7.994,0,0,0,.084,1.175c-.06,0-.12.006-.179.011a6.416,6.416,0,0,0-6.016,6.565c0,.05,0,.1,0,.148a6.434,6.434,0,0,0,5.57,6.462l.143.026a69.454,69.454,0,0,1,10.822,2.659c1.311.459,2.812,1.028,4.489,1.7a18.249,18.249,0,0,1-3.409,1.816c-.035.014-.069.029-.1.045-2.047.913-6.82,2-17.931,2a4.063,4.063,0,0,0-.594.044c-3.9.586-5.287,3.359-5.287,5.554,0,3.33.851,5.736,2.6,7.356.037.034.074.067.112.1,1.641,1.409,3.908,2.094,6.931,2.094a46.792,46.792,0,0,0,14.334-2.619,32.969,32.969,0,0,0,16.816-10.554c2.6,1.135,5.443,2.4,8.476,3.785,11.659,5.283,18.9,8.277,22.15,9.156a24.9,24.9,0,0,0,6.687.984,10.228,10.228,0,0,0,6.483-2.6c.087-.072.172-.148.253-.227,2.969-2.882,4.412-5.7,4.412-8.6a5.048,5.048,0,0,0-5.145-5.223,76.193,76.193,0,0,1-14.222-2.155,220.479,220.479,0,0,1-23.059-7.174,46.237,46.237,0,0,0,1.3-6.954c4.844.142,10.112.458,15.715.945.116.01.231.015.346.015,3.017,0,6.54-1.91,6.54-7.291,0-.13-.007-.26-.019-.389-.237-2.426-.357-4.352-.357-5.725a62.979,62.979,0,0,1,.351-6.893,9.847,9.847,0,0,1,.406-2.238l.041-.079a5.233,5.233,0,0,0,.706-2.451c0-4.193-2.778-7.01-6.915-7.01a3.983,3.983,0,0,0-1.354.237,8.883,8.883,0,0,1-2.356.609c-4.54-.19-8.647-.308-12.255-.354.018-1.615.028-3.209.028-4.767,0-3.255-2.167-6.539-7.009-6.539Zm-14.935,23.8h8.208v5.472c-3.076.037-5.95.118-8.592.241.2-1.86.329-3.77.384-5.713Zm21.671,5.518q.064-2.681.114-5.375c3.119.044,5.957.1,8.488.162-.073,1.531-.12,3.337-.141,5.436-2.915-.093-5.744-.168-8.461-.223Zm-20.748,12.636c1.442-.076,3.64-.143,6.99-.174q-.024.317-.049.608-.183.963-.422,1.87-3.108-1.134-6.519-2.3Z" fill="#fff"/></g></g><g id="Mid_Text" data-name="Mid Text"><path d="M350.521,636.157v-.012c-.009-.1-.018-.183-.026-.243a.865.865,0,0,0-.051-.229,4.171,4.171,0,0,0-.2-.434.807.807,0,0,1-.115-.165.491.491,0,0,1-.05-.077,2.173,2.173,0,0,1-.14-.268.223.223,0,0,1-.013-.165.15.15,0,0,1,.076-.127.437.437,0,0,1,.2-.077.548.548,0,0,1,.192.026,7.337,7.337,0,0,1,.764.28q.382.229.688.421a.7.7,0,0,1,.128.178.738.738,0,0,1,.038.229q.026.306.038.625v.306c-.008.144-.013.251-.013.318l.841-.331a.325.325,0,0,1,.141-.038.748.748,0,0,1,.152.025q.345.141.714.319a5.072,5.072,0,0,1,.612.459c.017.017.025.03.025.038v.063a.075.075,0,0,1-.025.052l-.013.013a.1.1,0,0,1-.038.012l-2.383.523c-.009.127-.013.276-.013.445v.7c0,.06,0,.154.013.281,0,.2,0,.344.013.446a3.211,3.211,0,0,0,.025.421,3.336,3.336,0,0,1,.344.14c.068.025.179.068.331.127l.307.14c.11.052.224.1.343.153a1.242,1.242,0,0,0,.421.192,1.6,1.6,0,0,0,.433.127.391.391,0,0,1,.153.051.422.422,0,0,1,.064.039.385.385,0,0,0,.076.038,3.5,3.5,0,0,1,.561.586,3.541,3.541,0,0,1,.344.739.364.364,0,0,1,0,.191.55.55,0,0,1-.115.127l-.255.192a.3.3,0,0,1-.191.038.2.2,0,0,1-.178-.114,6.86,6.86,0,0,0-1.185-1,6.382,6.382,0,0,0-1.4-.7,1.566,1.566,0,0,1-.089.765,1.786,1.786,0,0,1-.408.676,3.758,3.758,0,0,1-1.16.56,4.191,4.191,0,0,1-1.274.178.588.588,0,0,1-.2-.038.324.324,0,0,1-.179-.14,4.472,4.472,0,0,0-.343-.421q-.166-.128-.409-.331a2.358,2.358,0,0,1-.535-.383,1.739,1.739,0,0,1-.357-.535,2.2,2.2,0,0,1,1.262-1.261,4.569,4.569,0,0,1,1.147-.332,6.913,6.913,0,0,1,1.2-.025Zm-1.657,5.658a2.1,2.1,0,0,1,.382.2.256.256,0,0,0,.2.088.312.312,0,0,0,.217-.025,2.709,2.709,0,0,0,.446-.2,2.85,2.85,0,0,0,.395-.268.516.516,0,0,0,.2-.267.649.649,0,0,0,.1-.293,4.506,4.506,0,0,0-1.224.09,3.789,3.789,0,0,0-1.121.47C348.639,641.7,348.771,641.765,348.864,641.815Z" fill="#231f20"/><path d="M361.882,638.477a.513.513,0,0,0,.217-.064,3.587,3.587,0,0,0,.612-.28,5.764,5.764,0,0,0,.573-.37,4.317,4.317,0,0,1,.574-.331,3.515,3.515,0,0,1,.624-.2,2.508,2.508,0,0,1,.446-.039,3.66,3.66,0,0,1,.447.1,1.953,1.953,0,0,1,.5.307,2.476,2.476,0,0,1,.42.42,4.978,4.978,0,0,1,.255.5,2.932,2.932,0,0,1,.153.547,4.691,4.691,0,0,1-.026,1.288,5.429,5.429,0,0,1-.382,1.236,4.927,4.927,0,0,1-.42.688,2.632,2.632,0,0,1-.561.586,2.575,2.575,0,0,1-.638.409,3.393,3.393,0,0,1-.713.242,2.72,2.72,0,0,1-.306.076c-.111.025-.208.047-.293.063-.23.043-.438.078-.625.1-.1.017-.221.033-.357.051-.085.008-.2.021-.357.038-.11.009-.19.016-.242.025l-.267.026a13.874,13.874,0,0,0,1.58-.982,13.354,13.354,0,0,0,1.466-1.172,3.355,3.355,0,0,0,.446-.535,2.247,2.247,0,0,0,.306-.625c.017-.058.042-.161.076-.306v-.305l-.051-1.618a.057.057,0,0,1-.013-.039.187.187,0,0,1-.051-.039h-.05a.153.153,0,0,0-.039.026c-.1.068-.246.162-.433.28-.1.077-.2.15-.293.217q-.357.23-.752.472a.569.569,0,0,1-.179.05.36.36,0,0,1-.216.013,4.386,4.386,0,0,1-.548-.114,4.573,4.573,0,0,1-.548-.179.631.631,0,0,1-.344-.217.822.822,0,0,1-.23-.369A.873.873,0,0,0,361.882,638.477Zm1.925-2.893a1.642,1.642,0,0,1,.127-.141c.043-.067.077-.119.1-.152a.08.08,0,0,0,.013-.052.259.259,0,0,0-.013-.051l-.013-.012a4.777,4.777,0,0,1-.624-.6l-.013-.013c-.238-.254-.437-.48-.6-.675.119.008.251.017.4.025.084.009.216.022.395.038.11.009.237.026.382.052l.369.076a1.188,1.188,0,0,1,.332.114l.14.077a1.614,1.614,0,0,0,.127.1c.145.119.247.208.306.268a3.132,3.132,0,0,1,.255.331.508.508,0,0,1,.064.178.374.374,0,0,1-.064.192.447.447,0,0,1-.076.127l-.064.064a.119.119,0,0,0-.038.026.283.283,0,0,1-.179.076.293.293,0,0,1-.191-.013.433.433,0,0,1-.191-.038.8.8,0,0,1-.179-.025,2.92,2.92,0,0,0-.331.012,1.013,1.013,0,0,0-.293.115c-.076.05-.132.085-.166.1l-.076.038c-.043.026-.072.042-.089.051A3.2,3.2,0,0,1,363.807,635.584Z" fill="#231f20"/><path d="M448.762,635.418a.83.83,0,0,0,.1-.306.754.754,0,0,0-.064-.293.33.33,0,0,1-.038-.153.172.172,0,0,1,.076-.127c.009-.018.034-.034.077-.052a.182.182,0,0,1,.076.013,2.514,2.514,0,0,1,.561.562,3.259,3.259,0,0,1,.37.7.469.469,0,0,1,.013.242.451.451,0,0,1-.1.2l-.624.88a3.539,3.539,0,0,1,.624.394,3.459,3.459,0,0,1,.459.586,3.761,3.761,0,0,1,.242.791,2.585,2.585,0,0,1,.026.8,8.3,8.3,0,0,1-.548,1.873,7.676,7.676,0,0,1-1.032,1.631.793.793,0,0,1-.409.153.607.607,0,0,1-.42-.1,2.379,2.379,0,0,1-.829-1.045,2.533,2.533,0,0,1-.241-1.3l-.9,1.428a.339.339,0,0,1-.293.179.3.3,0,0,1-.306-.141,1.4,1.4,0,0,1-.229-.472,1.954,1.954,0,0,1-.1-.522.825.825,0,0,1,.052-.281.581.581,0,0,1,.127-.229l1.516-2.128a.764.764,0,0,1-.853-.114l-.982-1.02a.119.119,0,0,1-.012-.051.041.041,0,0,1,.012-.026.036.036,0,0,1,.013-.025.053.053,0,0,1,.038-.013l.4-.038h.2c.1-.009.179-.013.229-.013q.459-.114.969-.191.472-.077.982-.153Zm-1.121,5.569a2.569,2.569,0,0,0,.432.7.14.14,0,0,0,.1.039.222.222,0,0,0,.114-.039,3.97,3.97,0,0,0,.867-1.644,3.848,3.848,0,0,0,.076-1.86.094.094,0,0,0-.012-.038l-.013-.013-.013-.013a.132.132,0,0,0-.05-.025,1.148,1.148,0,0,1-.128-.013H448.8a.851.851,0,0,1-.114.013l-1.2,2.077A2.217,2.217,0,0,0,447.641,640.987ZM451.247,637c.1.043.179.077.23.1a6.862,6.862,0,0,1,1.211.891,6.77,6.77,0,0,1,.942,1.135,2.155,2.155,0,0,1,.255.79,2.312,2.312,0,0,1-.064.8.349.349,0,0,1-.127.178.244.244,0,0,1-.178.064.879.879,0,0,1-.358-.064.729.729,0,0,1-.293-.216,1.28,1.28,0,0,1-.305-.37,1.7,1.7,0,0,1-.217-.433,5.982,5.982,0,0,0-.447-1.3,5.484,5.484,0,0,0-.738-1.146.5.5,0,0,1-.1-.128.255.255,0,0,1-.077-.14.231.231,0,0,1-.012-.089.127.127,0,0,1,.025-.09A1.825,1.825,0,0,1,451.247,637Zm1.02-1.325c.144.051.3.115.459.191a.123.123,0,0,0,.05.026l.051.05a.483.483,0,0,1,.064.077c.077.086.157.174.242.267a1.977,1.977,0,0,1,.179.32.56.56,0,0,1,.012.126.135.135,0,0,1-.051.116.442.442,0,0,1-.28.1.285.285,0,0,1-.242-.1c-.11-.111-.272-.285-.484-.523a.511.511,0,0,0-.051-.039l-.013-.013q-.333-.369-.484-.573c-.009,0-.013-.008-.013-.025v-.051a.093.093,0,0,0,.038-.013h.026A2.186,2.186,0,0,1,452.267,635.673Zm1.185-.535a1.892,1.892,0,0,1,.65.484.188.188,0,0,1,.038.114.162.162,0,0,1-.051.116.478.478,0,0,1-.306.127.483.483,0,0,1-.345-.1c-.2-.17-.352-.3-.445-.4a3.616,3.616,0,0,1-.408-.458v-.064l.013-.013.012-.012h.051A2.056,2.056,0,0,1,453.452,635.138Z" fill="#231f20"/><path d="M461.717,636.45a18.056,18.056,0,0,1,2.256-1.58l-.1-.191a.175.175,0,0,1-.013-.14c.009-.043.043-.072.1-.09a.794.794,0,0,1,.165-.012c.051.025.1.05.153.077a3.6,3.6,0,0,1,.523.56,2.578,2.578,0,0,1,.382.65.358.358,0,0,1,0,.229.3.3,0,0,1-.127.166,18.174,18.174,0,0,0-2.383,1.363,17.945,17.945,0,0,0-2.091,1.734l.51.318q.281.179.574.37l.573.369q.5.345.8.574.446.306.8.587a2.442,2.442,0,0,1,.625.712,2.968,2.968,0,0,1,.318.906v.1a.222.222,0,0,1-.09.09.526.526,0,0,1-.216.1.589.589,0,0,1-.28-.013c-.086-.025-.162-.051-.229-.076a1.678,1.678,0,0,1-.243-.076.71.71,0,0,1-.242-.141,1.223,1.223,0,0,1-.178-.191,15.884,15.884,0,0,0-1.619-1.8,16.248,16.248,0,0,0-1.9-1.5.469.469,0,0,1-.089-.089.158.158,0,0,1-.051-.115,1.437,1.437,0,0,1-.038-.319,1.723,1.723,0,0,1,0-.3.406.406,0,0,1,.038-.179,1.14,1.14,0,0,1,.089-.152A18.6,18.6,0,0,1,461.717,636.45Z" fill="#231f20"/><path d="M542.323,635.622a2.048,2.048,0,0,0,.064-.472,2.1,2.1,0,0,0-.038-.446l-.1-.445a.053.053,0,0,1-.013-.039.164.164,0,0,1,.038-.026.042.042,0,0,1,.026-.012h.038q.23.192.446.37a3.736,3.736,0,0,1,.369.458,1.016,1.016,0,0,1,.179.421,1.668,1.668,0,0,1,.013.446.792.792,0,0,0-.026.127c-.017.059-.03.1-.038.128a2.258,2.258,0,0,1-.09.229,3.61,3.61,0,0,1,.766.064,2.421,2.421,0,0,1,.7.28.985.985,0,0,1,.242.2,1.632,1.632,0,0,1,.116.293.4.4,0,0,1-.052.166.3.3,0,0,1-.152.1l-2.09.433-2.281,5.4a.309.309,0,0,1-.192.191.326.326,0,0,1-.28,0,.512.512,0,0,1-.268-.217.547.547,0,0,1-.1-.331c0-.043,0-.106-.013-.191s-.017-.136-.025-.179-.017-.105-.026-.191-.029-.14-.038-.191a.238.238,0,0,1,.026-.217.315.315,0,0,1,.191-.153l1.643-3.695a2.005,2.005,0,0,1-1.618-1.071.392.392,0,0,0,.217.089.349.349,0,0,0,.23,0l1.771-.484Zm.982,6.283a.923.923,0,0,0,.663.241h.828a4.591,4.591,0,0,0,.841-.114h.166c.025,0,.072,0,.139.013a.1.1,0,0,0,.038.013,2.877,2.877,0,0,0,.294.088c.093.018.191.04.293.065.085.034.2.076.344.127a1.1,1.1,0,0,0,.242.09,2.032,2.032,0,0,1,.192.19.711.711,0,0,1,.089.242v.268a2.063,2.063,0,0,1-.089.229.268.268,0,0,1-.154.154.424.424,0,0,1-.165.089.231.231,0,0,1-.051.012c-.281.026-.574.038-.879.038a3.827,3.827,0,0,1-.447-.025q-.152-.012-.471-.051a5,5,0,0,1-.866-.242,2.856,2.856,0,0,1-.816-.434,1.353,1.353,0,0,1-.51-.687,1.51,1.51,0,0,1-.09-.829A.944.944,0,0,0,543.3,641.905Zm-.179-3.11a.861.861,0,0,1,.217-.127,5.366,5.366,0,0,1,.79-.28c.186-.043.327-.073.421-.09.144-.033.284-.064.421-.089a1.794,1.794,0,0,0,.2-.051,1.371,1.371,0,0,0,.255-.076.416.416,0,0,1,.178-.052.491.491,0,0,1,.192.038l.777.358a.681.681,0,0,1,.242.191.551.551,0,0,1,.038.306.436.436,0,0,1-.025.139.074.074,0,0,0-.013.052.88.88,0,0,1-.051.089,4.381,4.381,0,0,0-1.874.293,4.954,4.954,0,0,0-1.605,1.032c.11-.2.221-.39.331-.56.051-.085.141-.212.268-.383a1.842,1.842,0,0,0,.115-.152,4.539,4.539,0,0,1-.51-.2.51.51,0,0,1-.115-.064,2.673,2.673,0,0,1-.395-.179A.672.672,0,0,1,543.126,638.795Zm2.294-3.772c.153.068.264.115.332.14s.165.081.293.141a1.13,1.13,0,0,1,.152.076c.034.025.073.056.115.089s.085.072.1.09a.5.5,0,0,1,.153.215.528.528,0,0,1,.038.166.043.043,0,0,1,.013.026c.026.085.042.144.051.179a.156.156,0,0,1-.038.088l-.026.038a.391.391,0,0,1-.038.052.152.152,0,0,1-.115.038.125.125,0,0,1-.089-.025.556.556,0,0,1-.217-.166.369.369,0,0,1-.166-.217q-.05-.088-.165-.267a1.3,1.3,0,0,0-.089-.115.888.888,0,0,0-.115-.1,1.769,1.769,0,0,1-.166-.242,1.056,1.056,0,0,1-.139-.243A.393.393,0,0,0,545.42,635.023Zm.994-.357a2.355,2.355,0,0,0,.242.089c.069.026.179.073.331.141a2.627,2.627,0,0,1,.268.088.273.273,0,0,1,.064.052.2.2,0,0,1,.026.076v.217a.054.054,0,0,1-.013.038c-.009.085-.013.145-.013.179a.234.234,0,0,1-.128.14.264.264,0,0,1-.216.012.39.39,0,0,1-.153-.114.307.307,0,0,1-.115-.166.767.767,0,0,0-.127-.23.95.95,0,0,0-.166-.178.731.731,0,0,1-.191-.229,1.924,1.924,0,0,1-.178-.242A3.385,3.385,0,0,0,546.414,634.666Z" fill="#231f20"/><path d="M556.323,634.755a2.488,2.488,0,0,1,.407.739,1.3,1.3,0,0,1,.04.332.754.754,0,0,1-.09.331q-.4.624-.752,1.249c-.111.212-.225.421-.344.624q-.178.333-.356.651a2.1,2.1,0,0,1,.293-.128l.114-.038a1.113,1.113,0,0,1,.166-.051,2.36,2.36,0,0,1,.3-.013,1.446,1.446,0,0,1,.255.038.036.036,0,0,0,.026.013,2.862,2.862,0,0,1,.343.191c.018.017.047.043.09.077.085.077.149.131.192.166a1.7,1.7,0,0,1,.394.573,2.291,2.291,0,0,1,.128.688v.013a2.755,2.755,0,0,0-.026.28c-.017.119-.029.2-.038.255a4.124,4.124,0,0,0-.051.676,6.113,6.113,0,0,0,.038.662.072.072,0,0,0,.064.077.155.155,0,0,0,.115.038,1.168,1.168,0,0,0,.331-.025.693.693,0,0,0,.345-.141c.135-.11.237-.2.3-.267a1.857,1.857,0,0,0,.28-.293,10.851,10.851,0,0,0,1.007-1.708,11.819,11.819,0,0,0,.714-1.886,7.955,7.955,0,0,1,.191,1.325,6.987,6.987,0,0,1-.064,1.313,3.532,3.532,0,0,1-.229.8,2.383,2.383,0,0,1-.191.4q-.064.127-.2.369a2.659,2.659,0,0,1-.51.676,3.537,3.537,0,0,1-.675.548,1.434,1.434,0,0,1-.459.2,1.4,1.4,0,0,1-.51.076,1.318,1.318,0,0,1-.637-.152,1.659,1.659,0,0,1-.548-.4,1.96,1.96,0,0,1-.306-.484,1.48,1.48,0,0,1-.14-.548c-.009-.17-.013-.34-.013-.51,0-.144.008-.31.026-.5a7.908,7.908,0,0,1,.1-1.007,2.6,2.6,0,0,0,.026-.331,1.378,1.378,0,0,0-.026-.319v-.013a.209.209,0,0,1-.012-.051.194.194,0,0,1-.039-.05.547.547,0,0,0-.114-.089.285.285,0,0,0-.051-.038.515.515,0,0,1-.064-.027h-.064a.111.111,0,0,0-.038.013h-.012a8.414,8.414,0,0,0-1.1.931,7.46,7.46,0,0,0-.892,1.108c-.093.128-.2.285-.318.472l-.28.509c-.043.06-.085.124-.128.192q-.357.6-.714,1.211a1.7,1.7,0,0,1-.713-.651,1.643,1.643,0,0,1-.294-.917.854.854,0,0,1,.039-.293c.017-.068.042-.153.076-.254a.164.164,0,0,1,.077-.1.236.236,0,0,1,.115-.051.241.241,0,0,0,.127-.051.284.284,0,0,0,.076-.089q.2-.383.446-.829.23-.393.459-.8t.472-.8q.269-.447.5-.815a2.324,2.324,0,0,0,.14-.243l.357-.561c.127-.221.237-.42.331-.6q.19-.318.383-.714c.109-.2.237-.445.382-.726a.875.875,0,0,0,.076-.293,1.452,1.452,0,0,0,0-.28l-.026-.192v-.025l.013-.013.013-.013h.038A3.235,3.235,0,0,1,556.323,634.755Z" fill="#231f20"/><path d="M358.613,655.2q2.539,0,2.539,3.1a9.28,9.28,0,0,1-2.444,5.737A90.151,90.151,0,0,1,343,679.653a3.234,3.234,0,0,0-1.787,2.728q0,.376,3.856,2.069a38.4,38.4,0,0,1,7.994,4.608,4.869,4.869,0,0,1,1.128,1.316q7.335-7.523,14.107-14.67a4.414,4.414,0,0,1,2.727-.847,2.174,2.174,0,0,1,1.5.752,2.554,2.554,0,0,1,.658,1.881,4.186,4.186,0,0,1-1.6,3.386q-13.449,13.542-27.178,28.025a3.745,3.745,0,0,0-.847,2.445c0,.127.344.252,1.035.377q3.195.281,15.423.281,9.875,0,16.74-.47,1.5-.187,1.693-1.316a72.41,72.41,0,0,0-5.267-9.78,3.581,3.581,0,0,1-.658-1.881,2.917,2.917,0,0,1,.564-1.6,2.611,2.611,0,0,1,2.069-.752q.939,0,2.069,2.163,2.631,4.231,5.83,10.721a10.78,10.78,0,0,1,1.5,4.89q0,3.294-3.856,3.292a18.267,18.267,0,0,0-3.761-.376q-8.372.376-17.3.376-7.713,0-16.082-.376a54.228,54.228,0,0,0-6.112.376q-4.14,0-4.138-2.54a8.04,8.04,0,0,1,1.787-4.7q8.087-8.181,15.8-16.081a13.643,13.643,0,0,1-1.317-.564q-9.5-5.547-14.294-6.865a2.963,2.963,0,0,1-2.728-3.1q0-1.692,2.069-3.291a30.518,30.518,0,0,0,6.866-5.737,83.245,83.245,0,0,0,14.012-17.116Q356.92,655.2,358.613,655.2Z" fill="#231f20"/><path d="M453.69,692.537v-.47q0-3.759,3.1-3.761,3.009,0,3.009,3.761v.47a175.413,175.413,0,0,1,17.775,1.787,139.421,139.421,0,0,0,15.611,1.129,55.2,55.2,0,0,0,5.643-.282c.564,0,.846.221.846.658a11.379,11.379,0,0,1-1.5,5.549q-1.506,2.351-3.01,2.351a11.387,11.387,0,0,1-3.574-.659,76.5,76.5,0,0,0-17.3-4.42,107.83,107.83,0,0,0-14.859-1.222q-.095,1.693-.094,3.1l.47,14.859q0,6.114-3.385,6.113-2.729,0-2.728-6.113.375-9.5.377-14.859,0-1.6-.094-3.1a101.839,101.839,0,0,0-19.185,1.787,72.693,72.693,0,0,0-14.389,3.949,9.956,9.956,0,0,1-3.2.94q-3.1-.187-3.386-3.008a3.916,3.916,0,0,1,1.505-2.728,4.524,4.524,0,0,1,3.01-1.411Q442.968,692.82,453.69,692.537ZM434.13,655.2q2.349,0,2.351,2.728a3.642,3.642,0,0,1-1.129,2.445,39.533,39.533,0,0,1-6.865,6.865,1.368,1.368,0,0,0-.658,1.128q0,.19,1.317,1.035a12.389,12.389,0,0,1,2.821,1.975q2.913-2.913,5.454-5.549a2.168,2.168,0,0,1,1.223-.376,1.984,1.984,0,0,1,1.41.658,2.033,2.033,0,0,1,.565,1.5,1.783,1.783,0,0,1-.659,1.41q-5.077,5.457-10.344,11.192a1.272,1.272,0,0,0-.377.94,1,1,0,0,0,.189.565,7.848,7.848,0,0,0,2.727.282,30.264,30.264,0,0,0,5.83-.471q.566-.092.659-1.128a22.972,22.972,0,0,0-1.035-2.727,2.74,2.74,0,0,1-.094-.658,1.949,1.949,0,0,1,.565-1.223,2.442,2.442,0,0,1,1.786-.565q.375,0,.847.847.939,1.974,2.257,4.8a5.264,5.264,0,0,1,.658,2.257q0,2.634-2.727,2.634a8.942,8.942,0,0,0-2.633-.376,47.75,47.75,0,0,1-6.113.376,17.278,17.278,0,0,1-3.574-.376,28.653,28.653,0,0,0-4.514.376q-3.1,0-3.1-1.976a3.559,3.559,0,0,1,.846-2.068q3.761-3.76,7.336-7.43a31.6,31.6,0,0,0-7.524-3.573,1.49,1.49,0,0,1-1.317-1.6,2.057,2.057,0,0,1,1.035-1.6,13.365,13.365,0,0,0,3.667-2.821,40.626,40.626,0,0,0,7.524-8.558A2.093,2.093,0,0,1,434.13,655.2Zm-4.891,53.417a24.431,24.431,0,0,0,3.48.376q3.95,0,10.156-2.539,1.13,0,1.129,1.034,0,1.412-4.232,5.267-4.044,4.14-7.053,4.138a3.854,3.854,0,0,1-3.1-1.693,8.911,8.911,0,0,1-1.411-4.984Q428.205,708.619,429.239,708.619Zm27.555-56.05q3.009,0,3.009,2.633a3.647,3.647,0,0,1-.47,1.5q-1.41,2.916-2.163,4.138h1.693a12.469,12.469,0,0,1,3.1.47,12.2,12.2,0,0,0,3.01-.47,2.079,2.079,0,0,1,2.351,2.351l-.188.658a16.271,16.271,0,0,0-.471,4.044q-.189,3.949-.188,8.37v7.9q0,2.728-2.163,2.727a43.573,43.573,0,0,0-7.523-.752,32.37,32.37,0,0,0-5.548.282,10.416,10.416,0,0,0-2.446.846q-2.256,0-2.257-2.351a81.485,81.485,0,0,0,.847-10.815,90.541,90.541,0,0,0-.847-11.285q0-2.349,2.257-2.351a18.029,18.029,0,0,1,2.539.188q.753.095,1.881.188a19.528,19.528,0,0,0,.847-5.643Q454.067,652.571,456.794,652.569Zm0,30.188a25.078,25.078,0,0,1,4.044.376,1,1,0,0,0,1.128-1.128v-6.772a55.108,55.108,0,0,0-9.686.659,1.765,1.765,0,0,1-.564-.094q0,3.1-.188,5.831,0,1.5,1.786,1.5A13.806,13.806,0,0,1,456.794,682.757Zm-4.984-10.909a8.244,8.244,0,0,1,1.128-.094h9.028v-5.925q0-.846-.752-.847a62.491,62.491,0,0,0-7.9-.376c-.94,0-1.41.535-1.41,1.6Q451.9,669.121,451.81,671.848ZM482.28,655.2q2.349,0,2.351,2.728a4.008,4.008,0,0,1-.941,2.445,43.255,43.255,0,0,1-6.019,6.865,1.368,1.368,0,0,0-.658,1.128q0,.19,1.411.941a15.875,15.875,0,0,1,2.915,1.88q2.822-2.726,5.36-5.36a2.326,2.326,0,0,1,1.317-.376,1.9,1.9,0,0,1,1.316.658,2.275,2.275,0,0,1,.471,1.5,1.785,1.785,0,0,1-.658,1.41q-5.173,5.457-10.627,11.192a1.275,1.275,0,0,0-.376.94,1.009,1.009,0,0,0,.188.565,6.186,6.186,0,0,0,2.445.282,34.619,34.619,0,0,0,6.207-.471q.563-.092.659-1.128a22.429,22.429,0,0,0-1.412-2.727,1.517,1.517,0,0,1-.188-.658,1.952,1.952,0,0,1,.564-1.223,2.658,2.658,0,0,1,1.788-.565q.375,0,.845.847,1.131,1.974,2.635,4.8a5.264,5.264,0,0,1,.658,2.257q0,2.634-2.728,2.634a8.613,8.613,0,0,0-2.539-.376,55.454,55.454,0,0,1-6.489.376,16.418,16.418,0,0,1-3.385-.376,29.942,29.942,0,0,0-4.515.376q-3.01,0-3.009-1.976a3.559,3.559,0,0,1,.846-2.068q4.043-3.949,7.806-7.712l-.094-.094a39.461,39.461,0,0,0-7.524-3.292q-1.41-.281-1.41-1.5a2.056,2.056,0,0,1,1.034-1.6,13.426,13.426,0,0,0,3.386-2.821,42.961,42.961,0,0,0,6.959-8.558A1.8,1.8,0,0,1,482.28,655.2ZM471.088,706.08a1.673,1.673,0,0,1,.471.188,51.187,51.187,0,0,0,7.712,3.479,21.2,21.2,0,0,0,5.36.847.914.914,0,0,1,1.034,1.034,4.122,4.122,0,0,1-1.881,3.1q-3.574,2.166-5.642,2.164a1.78,1.78,0,0,1-1.411-.659q-1.317-1.128-6.489-8.088a1.82,1.82,0,0,1-.376-.94A1.1,1.1,0,0,1,471.088,706.08Z" fill="#231f20"/><path d="M520.367,655.2a11.753,11.753,0,0,1,2.821.376,18.857,18.857,0,0,0,4.327.377H557.7q10.249,0,24.264.376a12.347,12.347,0,0,0,3.762-.753q3.1,0,3.1,3.481c0,.126-.1.72-.282,1.786a78.014,78.014,0,0,0-.847,10.439q-.376,10.064-.376,21.253,0,8.655.376,23.606,0,3.384-2.633,3.384-18.057-.656-32.351-.658-17.964,0-22.852.282-4.045.191-9.875.753-2.728,0-2.727-3.009.751-15.705.753-27.461,0-12.978-.753-31.128Q517.264,655.2,520.367,655.2Zm32.351,58.777q12.507,0,27.837.376,1.41,0,1.411-1.6,0-34.984.376-50.314,0-1.128-1.411-1.128-19-.47-55.015-.47-1.787,0-1.787,1.975,0,26.052-.752,49.184,0,2.352,2.163,2.351Q537.2,713.98,552.718,713.979Zm-20.313-40.25a4.358,4.358,0,0,1,1.786.376,147.891,147.891,0,0,1,17.775-1.222q2.913,0,7.994.187-.1-3.668-.1-5.078,0-3.76,2.915-3.762a2.661,2.661,0,0,1,3.01,3.01,9.11,9.11,0,0,1-.376,2.069q-.189,2.164-.282,4.138a13.7,13.7,0,0,0,1.5.094,26.758,26.758,0,0,0,2.915.188,20.805,20.805,0,0,0,3.95-.564,16.3,16.3,0,0,1,2.915-.659q1.033,0,1.034.847a8.532,8.532,0,0,1-2.068,4.984q-2.257,2.822-4.326,2.821a12.835,12.835,0,0,1-4.044-1.129,11.894,11.894,0,0,0-1.787-.563q.188,11,.188,17.21,0,8.839-5.267,11.19a14.98,14.98,0,0,1-6.394,1.6,5.12,5.12,0,0,1-3.48-1.317,4.724,4.724,0,0,1-1.693-3.668q0-1.126,1.411-1.41,5.831-.564,7.524-1.881a4.817,4.817,0,0,0,2.539-3.1,40.036,40.036,0,0,0,.564-8.275q0-5.831-.377-11.38a58.528,58.528,0,0,0-8.275-.564q-12.321,0-17.022,1.41a12.178,12.178,0,0,1-3.668.752q-2.258,0-2.256-2.162a4.866,4.866,0,0,1,1.034-2.916A3.234,3.234,0,0,1,532.405,673.729ZM546.981,686.9q1.223,0,1.223,1.035a3.726,3.726,0,0,1-.752,1.974q-9.874,9.4-11.285,9.4-3.387,0-3.386-1.881,0-2.633,1.034-3.386Q533.815,693.2,546.981,686.9Z" fill="#231f20"/><path d="M681.274,686.707q0,16.645-18.431,25.3-7.337,3.48-11.38,3.48a8.155,8.155,0,0,1-4.984-1.975q-2.634-2.067-2.633-4.325c0-.565.719-1,2.163-1.318q1.692-.187,4.608-.658a39.544,39.544,0,0,0,13.918-4.326,25.324,25.324,0,0,0,7.993-7.429,18.143,18.143,0,0,0,3.386-10.533,17.063,17.063,0,0,0-2.726-8.84q-5.552-9.4-19.468-9.4h-1.5q-1.13.095-1.411.094-5.361,24.923-14.295,36.207-5.36,6.582-8.745,6.583-5.175,0-8.277-7.712a30.929,30.929,0,0,1-2.633-12.132,25.78,25.78,0,0,1,6.113-16.646q9.5-11.19,28.871-11.19,11.943,0,20.313,6.206Q681.273,674.953,681.274,686.707ZM645.068,667.24q-12.414,2.256-18.15,8.84-5.456,6.678-5.455,12.79a24.863,24.863,0,0,0,1.5,7.9q2.068,5.36,4.8,5.36,2.443,0,5.642-4.044Q640.742,688.119,645.068,667.24Z" fill="#231f20"/><path d="M722.277,655.955h57.178q1.5,0,1.6.752a5.644,5.644,0,0,1-1.128,3.48,4.481,4.481,0,0,1-3.386,1.5q-2.257,0-10.438-.94-8.465-.284-18.527-.282-15.236,0-22.007.658-3.478.471-4.7.564v1.6l.1,12.6q0,2.352-.1,4.42a1.976,1.976,0,0,1,1.035-.283,26.635,26.635,0,0,0,3.667-.469,16.368,16.368,0,0,0,5.455-1.975,21.255,21.255,0,0,0,4.42-3.48,2.7,2.7,0,0,0,.376-.282V672.13a37.056,37.056,0,0,0-7.429.658,7.534,7.534,0,0,1-1.975.565,2.531,2.531,0,0,1-2.539-2.633,3.038,3.038,0,0,1,1.223-2.07,5.439,5.439,0,0,1,2.915-.658h7.523a11.33,11.33,0,0,1-.094-1.41q0-3.387,2.633-3.386,2.728,0,2.728,3.386c-.064.5-.126.973-.189,1.41H748.7c.626,0,.972.251,1.034.752a4.022,4.022,0,0,1-.845,2.634,3.951,3.951,0,0,1-2.916,1.128q-.658,0-3.385-.281-1.038,0-2.258-.1V674.2a1.6,1.6,0,0,1,.471-.094,27.532,27.532,0,0,1,3.761,2.069q3.385,2.257,3.386,3.1,0,1.882-2.257,1.881a2.309,2.309,0,0,1-1.035-.376,32.418,32.418,0,0,0-4.138-2.351l.283,6.96q0,5.267-3.1,5.265-2.257,0-2.257-5.265.093-3.48.283-6.207a39.77,39.77,0,0,1-3.386,3.2,25.61,25.61,0,0,1-6.019,3.479,4.026,4.026,0,0,1-.94.283,5.177,5.177,0,0,1-3.762-2.164,6.172,6.172,0,0,1-.94-1.127,47.8,47.8,0,0,1-1.6,10.062,37.848,37.848,0,0,1-6.583,12.6q-2.821,3.1-4.42,3.1-2.448,0-5.455-2.539-2.07-1.785-2.068-3.386a1.843,1.843,0,0,1,1.786-1.975,11.544,11.544,0,0,0,5.173-2.069q3.949-2.631,6.112-9.592a53.348,53.348,0,0,0,1.881-15.423q0-5.643-.752-15.329,0-3.1,2.727-3.1a4.127,4.127,0,0,1,3.009.941A8.243,8.243,0,0,1,722.277,655.955Zm28.589,34.7a2.661,2.661,0,0,1,3.01,3.01l-.188,4.608A9.525,9.525,0,0,1,755,698.18h18.15c.626,0,.972.252,1.034.753a4.531,4.531,0,0,1-.845,2.632,3.947,3.947,0,0,1-2.916,1.129q-.564,0-2.821-.282-2.352-.091-5.079-.094a33.638,33.638,0,0,0-7.335.564,7.784,7.784,0,0,1-1.6.471h-.1l-.187,8.087q6.205.094,13.542.752,7.428.564,14.2.565a24.15,24.15,0,0,0,4.138-.376c.249,0,.376.408.376,1.223a10.618,10.618,0,0,1-1.316,4.889q-1.506,2.541-2.821,2.539a9.292,9.292,0,0,1-4.044-.94,70.894,70.894,0,0,0-14.953-3.667,107.212,107.212,0,0,0-12.978-.659,101.292,101.292,0,0,0-15.518,1.035,113.065,113.065,0,0,0-13.635,3.855,9.267,9.267,0,0,1-3.2.847,2.78,2.78,0,0,1-2.726-3.01,3.766,3.766,0,0,1,1.5-2.821,5.1,5.1,0,0,1,3.01-1.317q7.053-.939,12.507-1.692a5.268,5.268,0,0,1-.093-1.035,34.432,34.432,0,0,0,.469-5.643,43.991,43.991,0,0,0-1.222-9.028q0-2.538,3.1-2.539,2.822,0,3.01,2.539a95.287,95.287,0,0,1,.376,11.285,16.354,16.354,0,0,1-.376,3.857q7.522-.659,12.037-.753l-.376-18.151A2.245,2.245,0,0,1,750.866,690.656Zm6.113-23.04h4.89a6.286,6.286,0,0,1-.094-1.034q0-3.387,2.728-3.386,2.538,0,2.539,3.386a6.3,6.3,0,0,0-.1,1.034h11.38q1.034,0,1.128.752a4.369,4.369,0,0,1-1.034,2.916,4.011,4.011,0,0,1-3.1,1.222,22.729,22.729,0,0,1-3.291-.564q-2.539-.187-5.361-.188a13.053,13.053,0,0,0-.094,1.6v1.222a6.9,6.9,0,0,1,2.446,1.129q11.284,6.4,14.106,7.148a33.05,33.05,0,0,0,4.231.563q1.6,0,1.6,1.129,0,1.692-2.727,3.291a9.232,9.232,0,0,1-5.173,1.693,5.224,5.224,0,0,1-3.385-1.222,117.493,117.493,0,0,0-8.935-8.37l-1.974-1.317.282,6.3q0,5.361-2.916,5.36-2.351,0-2.351-5.36.093-2.067.189-3.856a20.652,20.652,0,0,1-2.634,3.009,16.565,16.565,0,0,1-5.267,3.95,2.15,2.15,0,0,1-.845.283,5.186,5.186,0,0,1-3.668-2.07,4.385,4.385,0,0,1-1.6-2.821q.188-.939,1.786-1.034a16.552,16.552,0,0,0,3.292-.658,15.454,15.454,0,0,0,4.8-2.539,16.1,16.1,0,0,0,3.95-4.327l.283-.282v-2.727a29.763,29.763,0,0,0-4.609.564,9.885,9.885,0,0,1-2.069.471,2.417,2.417,0,0,1-2.539-2.539,2.8,2.8,0,0,1,1.222-2.07A5.447,5.447,0,0,1,756.979,667.616Z" fill="#231f20"/><path d="M819.329,664.606a11.352,11.352,0,0,1,2.916.376,14.211,14.211,0,0,0,4.232.471h12.79v-8.746a2.382,2.382,0,0,1,2.727-2.539q3.009,0,3.009,2.539,0,4.327-.094,8.746h.847q6.488,0,15.423.376a11.824,11.824,0,0,0,3.761-.847q2.914,0,2.915,3.01a2.893,2.893,0,0,1-.282.658,10.831,10.831,0,0,0-.846,3.668,66.589,66.589,0,0,0-.376,7.335q0,2.257.376,6.114,0,3.292-2.539,3.291-10.815-.939-19.75-1.035a40.926,40.926,0,0,1-2.632,13.449,240.823,240.823,0,0,0,27.178,8.651,79.567,79.567,0,0,0,15.047,2.258,1.082,1.082,0,0,1,1.223,1.223q0,2.632-3.2,5.736a6.36,6.36,0,0,1-3.95,1.692,20.937,20.937,0,0,1-5.642-.845q-4.515-1.223-21.536-8.935-6.4-2.913-11.473-5.078-.755,1.128-1.411,1.974a28.824,28.824,0,0,1-15.235,9.687,42.778,42.778,0,0,1-13.166,2.445,6.619,6.619,0,0,1-4.326-1.129q-1.319-1.22-1.317-4.42,0-1.315,1.881-1.6,14.293,0,19.561-2.351a17.981,17.981,0,0,0,8.746-6.96q-6.019-2.631-10.062-4.043a73.094,73.094,0,0,0-11.474-2.822q-2.352-.468-2.351-2.539.093-2.538,2.351-2.727a18.588,18.588,0,0,1,4.42,1.035q11.19,3.575,19.843,6.865a28.1,28.1,0,0,0,1.976-6.489q.188-2.067.282-5.172-10.629,0-13.637.376a50.577,50.577,0,0,0-6.583.752,2.244,2.244,0,0,1-2.539-2.539,75.488,75.488,0,0,0,.752-9.781,67.349,67.349,0,0,0-.752-9.122Q816.414,664.607,819.329,664.606Zm19.938,18.809V669.967h-14.2q-1.976,0-1.975,1.787a67.453,67.453,0,0,1-.752,10.251q0,1.787,2.35,1.786Q830.991,683.418,839.267,683.415Zm5.642-13.353q-.095,6.678-.282,13.353,6.958.1,14.953.376,1.6,0,1.6-1.41,0-7.617.376-11,0-1.035-1.6-1.034Q853.842,670.157,844.909,670.062Z" fill="#231f20"/><g id="上海_アリス幻樂団" data-name="上海■アリス幻樂団"><path d="M131.655,847.48a1.33,1.33,0,0,1,.818.254.78.78,0,0,1,.355.714l-.062,2.309h3.2a3.786,3.786,0,0,1,1,.084q.231.12.231.526a1.435,1.435,0,0,1-.2.747.66.66,0,0,1-.54.272q-.263,0-1.08-.051c-.515-.011-.982-.017-1.4-.017q-.494,0-1.282.017l-.091,3.311a54.424,54.424,0,0,1,6.4.729,3.494,3.494,0,0,1-.463,1.545.791.791,0,0,1-.664.492,4.93,4.93,0,0,1-1.188-.255,19.58,19.58,0,0,0-5.216-.746,15.253,15.253,0,0,0-5.093.815,3.376,3.376,0,0,1-1.034.254.813.813,0,0,1-.586-.323.911.911,0,0,1-.278-.61.978.978,0,0,1,.741-1.087,20.117,20.117,0,0,1,5.494-.814l-.063-7.2a.873.873,0,0,1,.279-.679A.9.9,0,0,1,131.655,847.48Z" fill="#231f20"/><path d="M125.111,869l2.593.067c.288.091.433.233.433.425q0,.441-.88.8a17.279,17.279,0,0,1-2.1.628.818.818,0,0,1-.478-.271.772.772,0,0,1-.247-.543,1.656,1.656,0,0,1,.2-.765Q124.865,869,125.111,869Zm1.112-4.414q.4,0,1.142.764c.792.8,1.188,1.3,1.188,1.477a.371.371,0,0,1-.416.424,2.214,2.214,0,0,1-.617-.118,7.542,7.542,0,0,0-1.467-.2q-.773-.086-.772-1.239a1.162,1.162,0,0,1,.293-.781A.94.94,0,0,1,126.223,864.583Zm1.095,7.69a.229.229,0,0,1,.263.254q0,.306-.231,2.327a.731.731,0,0,1-.834.729,1.115,1.115,0,0,1-.725-.237,1.03,1.03,0,0,1-.309-.764,1.166,1.166,0,0,1,.232-.544l1.265-1.544C127.112,872.347,127.226,872.273,127.318,872.273Zm3.72-4.77a1,1,0,0,1,.6.17.2.2,0,0,1,.077.051q1-.068,2.577-.068,2.5,0,3.163.084.309.036.309.255a2.083,2.083,0,0,1-.123.374,11.257,11.257,0,0,0-.463,1.952c.606.045,1.25.1,1.928.169a2.732,2.732,0,0,1-.354,1.274c-.175.295-.36.441-.556.441a3.03,3.03,0,0,1-.91-.237c-.134-.034-.263-.069-.387-.1q-.045.255-.077.527t-.107.526c.472.034.9.062,1.28.085.175.034.263.1.263.2a1.293,1.293,0,0,1-.2.747.654.654,0,0,1-.54.288c-.186,0-.562-.022-1.127-.068a3.915,3.915,0,0,1-.5,1.07q-.37.627-.848.628a1.323,1.323,0,0,1-1.126-.815,2.777,2.777,0,0,0,.694-.985q-1.575-.051-3.827-.051a3.068,3.068,0,0,0-1.173.17,1.083,1.083,0,0,1-.386.12.589.589,0,0,1-.432-.188.49.49,0,0,1-.185-.424,1.929,1.929,0,0,1,.155-.56c.143-.442.287-.888.431-1.341-.134.034-.263.062-.386.085a3.722,3.722,0,0,1-.941.186.5.5,0,0,1-.37-.237.54.54,0,0,1-.186-.374.617.617,0,0,1,.494-.679,14.066,14.066,0,0,1,1.836-.39q.357-1.155.71-2.394A.621.621,0,0,1,131.038,867.5Zm-.387-3.107a2.2,2.2,0,0,1,1,.205.576.576,0,0,1,.293.474,1.143,1.143,0,0,1-.108.425q1.02-.1,2.794-.1a41.41,41.41,0,0,1,4.181.153,2.7,2.7,0,0,1-.277,1.2.436.436,0,0,1-.4.289q-.326,0-1.327-.068-1.606-.153-2.655-.153a20.365,20.365,0,0,0-2.469.136,6.319,6.319,0,0,1-.833.085.252.252,0,0,1-.093-.018.716.716,0,0,0-.123.136,2.98,2.98,0,0,1-1.96,1.239c-.279,0-.417-.1-.417-.288a.615.615,0,0,1,.2-.356,8.791,8.791,0,0,0,1.389-1.766,2.231,2.231,0,0,0,.385-1.053.991.991,0,0,0-.2-.492A2.986,2.986,0,0,1,130.651,864.4Zm1.513,8.42.309-1.409c-.545.023-1.071.063-1.575.119l-.37,1.222c0,.046.129.068.386.068Zm-.88-2.58q.68-.051,1.467-.068l.293-1.29c-.5.012-.962.028-1.374.051Zm3.736,2.631a.151.151,0,0,0,.014-.051q.186-.695.34-1.273a12,12,0,0,0-1.667-.152l-.309,1.442Q134.264,872.833,135.02,872.867Zm-.742-3.989-.308,1.29c.535,0,1.111.018,1.728.051a7.584,7.584,0,0,0,.2-1.155Q135.9,868.9,134.278,868.878Z" fill="#231f20"/><path d="M137.658,893.688H125.791V880.566h11.867Z" fill="#231f20"/><path d="M115.049,852.013a12.237,12.237,0,0,1-.154,2.308,3.741,3.741,0,0,1-.972,1.867,5.426,5.426,0,0,1-2.33,1.545,5.087,5.087,0,0,1-1.776.373q-1.279,0-1.28-1.069a2.846,2.846,0,0,1,1.065-2.41q.138.611.925.611a2.054,2.054,0,0,0,2.161-1.46,4.275,4.275,0,0,0,.2-1.069v-.765q0-.865.957-.865a1.828,1.828,0,0,1,.848.136A.839.839,0,0,1,115.049,852.013Zm5.633-2.36a.9.9,0,0,1-.325.7,6.961,6.961,0,0,0-.663.492,1.566,1.566,0,0,0-.509.425q-1.713,2.123-2.3,2.122-.711,0-.71-.646a6.3,6.3,0,0,1,.586-1.357,1.246,1.246,0,0,0,.108-.391q0-.441-.417-.441-.045,0-.956-.034c-.607-.035-.983-.051-1.127-.051a14.861,14.861,0,0,0-2.947.289q-1.436.272-1.528.271a.914.914,0,0,1-.571-.22,1.088,1.088,0,0,1-.355-.816,1.126,1.126,0,0,1,.988-1.29,18.691,18.691,0,0,1,2.886-.221q3.331,0,5.632.221a6.46,6.46,0,0,1,1.7.323C120.512,849.172,120.682,849.382,120.682,849.653Z" fill="#231f20"/><path d="M118.784,866.145q0,.306-.154,2.461-.279,3.633-1.945,5.211a5.787,5.787,0,0,1-4.105,1.342,5.113,5.113,0,0,1-1.311-.119q-.819-.219-.819-.917a3.106,3.106,0,0,1,1.42-2.24,1.535,1.535,0,0,0,1.436.577,2.647,2.647,0,0,0,1.79-.815,4.761,4.761,0,0,0,1.265-3.582v-1.052c.01-.452.015-.719.015-.8q0-.917,1.22-.917a1.523,1.523,0,0,1,.771.2A.746.746,0,0,1,118.784,866.145Zm-6.034-.084q0,.2-.016,1.459-.015,1.274-.015,1.714,0,1.749-1.189,1.749-.925,0-.926-1.239,0-.221-.045-1.613t-.032-1.918q0-.882,1.158-.883Q112.75,865.33,112.75,866.061Z" fill="#231f20"/><path d="M120.142,891.107q-.742,1.07-1.435,1.07a1.424,1.424,0,0,1-.864-.527q-.186-.168-.618-.577-.4-.39-.695-.644a14.556,14.556,0,0,0-2.468-1.647q-2.733,2.853-4.815,2.852-.819,0-.818-1.07a4.425,4.425,0,0,1,.88-2.172.809.809,0,0,0,.648.288,3.2,3.2,0,0,0,1.5-.526,7.2,7.2,0,0,0,1.559-1.121,12.076,12.076,0,0,0,.988-1.12,1.906,1.906,0,0,0,.416-.729c0-.182-.148-.273-.447-.273a18.271,18.271,0,0,0-2.685.17q-1.082.136-.988.136a.732.732,0,0,1-.479-.221,1.071,1.071,0,0,1-.338-.865.914.914,0,0,1,1.048-1.019l1.744-.034q1.806-.086,2.7-.085a6.593,6.593,0,0,1,2.5.289.657.657,0,0,1,.463.612.685.685,0,0,1-.262.508,3.723,3.723,0,0,0-.494.476q-.48.61-1.806,2.41a11.027,11.027,0,0,0,3.056,1.63q.663.255,2.006.662c.092.023.211.057.355.1h.016A2.818,2.818,0,0,1,120.142,891.107Z" fill="#231f20"/><path d="M94.862,847.361a.819.819,0,0,1,.663.255,1.1,1.1,0,0,1,.247.679,1.8,1.8,0,0,1-.571,1.154L93.334,851.2c-.268.294-.4.481-.4.56,0,.17.174.356.524.56l.694.306q.957-.917,1.868-1.834a1.288,1.288,0,0,1,.818-.509.784.784,0,0,1,.493.221.845.845,0,0,1,.247.577,2.124,2.124,0,0,1-.71,1.46l-2.931,2.868,2.391.085c.082,0,.123-.061.123-.186a2.581,2.581,0,0,1-.617-.951c0-.317.145-.475.433-.475q.4,0,1.635,1.223,1.019.966,1.019,1.493,0,.747-.556.747a3.89,3.89,0,0,1-.648-.119,15.587,15.587,0,0,0-1.913-.085H93.751a9,9,0,0,0-2.006.17,1.726,1.726,0,0,1-.463.17q-.942,0-.941-.679a1.888,1.888,0,0,1,.74-1.341q.88-.781,1.713-1.545a11.082,11.082,0,0,0-1.82-.883q-.695-.237-.7-.577,0-.322.617-1l2.608-3.089Q94.384,847.361,94.862,847.361Zm5.988.612a32.39,32.39,0,0,1,3.287.1c.319.069.478.193.478.374a.872.872,0,0,1-.108.305,2.1,2.1,0,0,0-.216.968l-.093,4.872a4.575,4.575,0,0,1-1.25,3.055,2.987,2.987,0,0,1-2.1.985,1.118,1.118,0,0,1-.849-.442,4.173,4.173,0,0,1-.756-1.663,5.28,5.28,0,0,0,2.484-.933,2.648,2.648,0,0,0,.849-2.173v-3.481c0-.146-.088-.22-.263-.22q-2.237,0-3.595.135a4.825,4.825,0,0,1-.972.154c-.154,0-.309-.108-.463-.323a1.11,1.11,0,0,1-.216-.713q0-.7.849-.916A25.956,25.956,0,0,1,100.85,847.973Z" fill="#231f20"/><path d="M93.18,864.583a.562.562,0,0,1,.494.221.84.84,0,0,1,.185.526.8.8,0,0,1-.294.543l-.971.832c-.145.148-.216.237-.216.272s.077.09.231.135l.278.069.664-.662a.8.8,0,0,1,.509-.29c.319,0,.478.2.478.595a.742.742,0,0,1-.324.594l-1.652,1.443c0,.045.047.068.139.068h1.1c.093,0,.14-.023.14-.068a2.528,2.528,0,0,1-.2-.611c0-.17.109-.255.325-.255q.261,0,.787.628a1.732,1.732,0,0,1,.447.866c0,.363-.164.543-.493.543a2.138,2.138,0,0,1-.417-.067H93.057a12.238,12.238,0,0,0-1.775.1,1.238,1.238,0,0,1-.371.1.417.417,0,0,1-.386-.424c0-.147.155-.356.463-.629l.85-.882a7.406,7.406,0,0,0-1.066-.459c-.247-.067-.37-.158-.37-.271s.123-.3.37-.561l1.59-1.764Q92.9,864.583,93.18,864.583Zm4.444-.322a2.372,2.372,0,0,1,.911.119.286.286,0,0,1,.216.271,1.348,1.348,0,0,1-.154.56,10.567,10.567,0,0,1,1.635.17c.155.034.232.113.232.238q-.078.408-.185,1.2l.169-.186,1.574-1.648c.35-.361.618-.543.8-.543a.586.586,0,0,1,.494.221.889.889,0,0,1,.185.526.771.771,0,0,1-.324.51l-1.065.746c-.144.125-.216.2-.216.238,0,.057.062.119.185.187l.294.152.556-.526a.82.82,0,0,1,.508-.272c.329,0,.5.2.5.595a.678.678,0,0,1-.356.56l-1.682,1.358q0,.051.123.051H103c.134,0,.2-.017.2-.051a2.3,2.3,0,0,1-.2-.56c0-.169.108-.254.324-.254.175,0,.421.2.741.61a1.536,1.536,0,0,1,.432.816c0,.362-.144.542-.432.542H102.3a10.72,10.72,0,0,0-1.652.1,1.1,1.1,0,0,1-.37.1.44.44,0,0,1-.294-.154.377.377,0,0,1-.107-.255.494.494,0,0,1-.217.052,1.462,1.462,0,0,1-.246-.052q-.449-.05-1.235-.067l.092.051a1.152,1.152,0,0,1,.4.7q2.407.086,6,.543a2.989,2.989,0,0,1-.432,1.409c-.176.328-.386.492-.633.492a4.37,4.37,0,0,1-1.142-.271,17.974,17.974,0,0,0-3.812-.713l-.03,1.935a3.012,3.012,0,0,1-.324,1.51.84.84,0,0,1-.787.527,1.1,1.1,0,0,1-.8-.339q-.324-.255-.324-1.563v-2.088a18.466,18.466,0,0,0-4.229.628,4.117,4.117,0,0,1-1.08.221.592.592,0,0,1-.416-.237.606.606,0,0,1-.2-.425.754.754,0,0,1,.556-.831,19.584,19.584,0,0,1,5.385-.781,1.106,1.106,0,0,1,.309-.645,1.33,1.33,0,0,1,.154-.119,7.242,7.242,0,0,0-1.018.119.6.6,0,0,1-.2.085c-.2,0-.314-.182-.355-.544l-.324-3.463a.4.4,0,0,1,.294-.407,10.436,10.436,0,0,1,1.187-.17,1.809,1.809,0,0,0,.14-.526.568.568,0,0,0-.2-.323A6.053,6.053,0,0,1,97.624,864.261Zm-2.947,8.487c.082,0,.124.046.124.136a2.444,2.444,0,0,1-.741,1.494,2.615,2.615,0,0,1-1.745,1q-.555,0-.554-.866a1.57,1.57,0,0,1,.261-1.019c.021.091.119.136.293.136a3.254,3.254,0,0,0,1.791-.679A1.331,1.331,0,0,1,94.677,872.748Zm1.991-5.721a7.254,7.254,0,0,1,.91-.05q.555,0,1.127.05l.046-.593c0-.057-.036-.1-.108-.12a5.377,5.377,0,0,0-1.126-.085,2.473,2.473,0,0,0-.742.1c-.082.022-.123.057-.123.1Zm.231,1.579a4.062,4.062,0,0,1,.71-.068,5.035,5.035,0,0,1,.818.068c.113,0,.179-.068.2-.2l.03-.492c-.381-.034-.74-.051-1.08-.051s-.633.012-.88.035l.016.644C96.714,868.584,96.775,868.606,96.9,868.606Zm3.148.663.263-.29.987-.933a6.635,6.635,0,0,0-.91-.56.79.79,0,0,1-.17-.1Q100.139,868.182,100.047,869.269Zm.417,3.547a1.89,1.89,0,0,1,.818.272,7.8,7.8,0,0,0,1.913.814,3.225,3.225,0,0,1-.555,1.24,1.085,1.085,0,0,1-.741.3q-.37,0-.834-.559a3.912,3.912,0,0,1-.786-1.868C100.279,872.884,100.341,872.816,100.464,872.816Z" fill="#231f20"/><path d="M97.624,881.907a38.916,38.916,0,0,1,5.957.306q.54.086.54.373-.309,2.326-.679,9.285c-.02.408-.149.611-.385.611a6.057,6.057,0,0,1-.679-.085q-1.56-.168-4.784-.169a48.581,48.581,0,0,0-5.109.2,3.241,3.241,0,0,1-.6.119c-.2,0-.315-.176-.355-.527l-.618-9.167q0-.492.726-.611A52.855,52.855,0,0,1,97.624,881.907Zm-4.506,8.759q1.266-.033,2.5-.051a.7.7,0,0,1-.139-.17,2.229,2.229,0,0,1-.324-1.272,4.754,4.754,0,0,0,2.176-.391.894.894,0,0,0,.479-.763V886.1a16.033,16.033,0,0,0-3.025.3,8.5,8.5,0,0,1-.926.119.567.567,0,0,1-.432-.2.9.9,0,0,1-.17-.543.736.736,0,0,1,.417-.7,18.172,18.172,0,0,1,4.136-.254v-.815a.781.781,0,0,1,.138-.476h-.324q-2.314,0-4.3.188-.758.067-.757.2l.372,6.6C92.934,890.621,93,890.666,93.118,890.666Zm3.473-4.091q.415,0,.416.492,0,.137-.37.543a4.683,4.683,0,0,1-1.189.849,2.549,2.549,0,0,1-1.033.289.421.421,0,0,1-.478-.476,1.937,1.937,0,0,1,.354-1,.251.251,0,0,0,.247.119,2.225,2.225,0,0,0,.818-.187,3.738,3.738,0,0,0,.926-.526A.509.509,0,0,1,96.591,886.575Zm2.638-3.039a.46.46,0,0,1,.078.255,4.517,4.517,0,0,0-.062.611v.442q1.171.051,2.453.186a2.754,2.754,0,0,1-.293,1.274.536.536,0,0,1-.447.22,4.672,4.672,0,0,1-.8-.119c-.329-.079-.633-.141-.91-.186v1.986a2.2,2.2,0,0,1-.88,1.918,4.467,4.467,0,0,1-.941.476H101.7c.124,0,.191-.1.2-.289l.355-6.451c0-.09-.134-.153-.4-.186C101.246,883.6,100.371,883.56,99.229,883.536Z" fill="#231f20"/></g><path d="M265.033,947.328l2.016.274q-1.264,5.5-10.317,6.592a8.045,8.045,0,0,0-1.639-3.86Q262.984,949.686,265.033,947.328Zm13.493-18.72v14.757h6.013v3.45H255.366v-3.45H260.8V928.608h-4.611v-3.381H260.8v-2.9h2.494v2.9h12.742v-3.143h2.493v3.143h4.817v3.381Zm-15.235,0v2.733h12.742v-2.733Zm0,9.053h12.742v-3.04H263.291Zm12.742,5.7V940.8H263.291v2.561Zm-1.435,3.861q1.2,1.741,9.872,2.733a10.57,10.57,0,0,0-1.058,4.372q-8.95-1.367-10.829-6.593Q273.608,947.465,274.6,947.226Z" fill="#231f20"/><path d="M318.938,937.8q0,6.8-3.45,10.077-3.109,2.938-10.077,3.792a19.06,19.06,0,0,0-.82-4.852,14.98,14.98,0,0,0,8.232-2.048,8.328,8.328,0,0,0,.854-13.63,11.942,11.942,0,0,0-7.207-2.084h-.752a2.687,2.687,0,0,0-.444.034h-.239a80.054,80.054,0,0,1-2.221,11.956q-2.562,8.882-6.251,8.882-2.9,0-4.543-3.485a14.369,14.369,0,0,1-1.264-6.046q0-8.336,5.192-12.469,3.757-3,10.112-3.006A12.4,12.4,0,0,1,318.938,937.8Zm-15.577-8.609a10.207,10.207,0,0,0-7.618,3.28,10.993,10.993,0,0,0-3.006,7.856,7.115,7.115,0,0,0,.923,3.553,3.274,3.274,0,0,0,2.9,1.879q1.776,0,3.621-3.655Q302.4,937.662,303.361,929.189Z" fill="#231f20"/><path d="M342.44,945.723q.068,1.605.137,3.245-4.168.854-8.438,1.639-4.1.855-8.266,1.5-.069-.511-.342-2.151-.307-1.5-.444-2.05,3.074-.444,8.506-.957Q338.068,946.408,342.44,945.723Zm3.587-10.932q.137,3.928.581,7.926a10.177,10.177,0,0,0,.683,2.459,8.683,8.683,0,0,0,1.23,1.913,4.439,4.439,0,0,0,3.108,1.64,1.053,1.053,0,0,0,1.025-.683,4.927,4.927,0,0,0,.444-1.64,21.664,21.664,0,0,0,.376-3.45q1.3.58,2.391,1.127a36.286,36.286,0,0,1-.581,5.158,11.03,11.03,0,0,1-1.161,3.587,1.749,1.749,0,0,1-1.469,1.093,6.649,6.649,0,0,1-3.314-.956,9.33,9.33,0,0,1-2.6-2.358,10.657,10.657,0,0,1-1.878-3.518,25.252,25.252,0,0,1-1.094-5.363q-.238-3.381-.376-6.935H325.155V931.1h18.139q-.1-4.647-.1-9.019h2.528q.067,2.6.2,9.019h8.438v3.688Zm-19.13,3.553h13.289v3.518H326.9Zm.342-13.8h13.6v3.28h-13.6Zm21.009-1.23a8.674,8.674,0,0,1,6.012,5.432l-4.68,1.23a9.91,9.91,0,0,0-2.733-5.432Z" fill="#231f20"/><path d="M387.36,928.745v1.811h9.019q1.912.273,2.016,1.5v10.9q0,1.264-1.811,1.4h-4.27q2.937,3.689,10.248,3.69a13.956,13.956,0,0,0-1.538,5.192q-5.943-1.64-8.369-4.134a14.166,14.166,0,0,1-2.733-4.748H387.36v9.975H384.8v-9.975h-2.322a12.669,12.669,0,0,1-2.733,4.885q-2.323,2.6-8.233,4.237a11.488,11.488,0,0,0-1.4-4.647q7.309,0,10.145-4.475h-4.919a1.558,1.558,0,0,1-1.606-1.4V931.922q.342-1.229,2.153-1.366H384.8v-1.811H372.3v-3.518h12.5v-3.143h2.562v3.143h12.81v3.518Zm-2.562,7.106v-2.016H377.01a.928.928,0,0,0-.752.513v1.5Zm-8.54,3v1.64a1,1,0,0,0,.923.444H384.8v-2.084Zm19.677-3v-1.367q0-.511-.854-.649H387.36v2.016Zm-8.575,3v2.084h7.652a.839.839,0,0,0,.923-.581v-1.5Z" fill="#231f20"/><path d="M422.751,926.319H435.8v3.792H418.173q-.035,2.085-.1,4.237h11.683q2.391,0,2.391,2.083v13.9a3.158,3.158,0,0,1-2.118,2.768,10.55,10.55,0,0,1-3.279.376q-2.085.134-3.314.135a18.287,18.287,0,0,0-.512-4.372q2.083.171,4.543.171,2.289,0,2.289-2.084V939.3q0-.957-1.3-.957H417.9q-.171,1.743-.546,3.963a11.907,11.907,0,0,1-1.674,5.021,20.709,20.709,0,0,1-6.73,6.593,13.011,13.011,0,0,0-2.7-4.68,20.043,20.043,0,0,0,6.594-4.885,6.35,6.35,0,0,0,1.708-3.142,11.719,11.719,0,0,0,.82-4.236q.2-3.415.273-6.867h-8.472v-3.792h12.947v-4.1h2.63Z" fill="#231f20"/><path d="M444.067,926.047v13.527q-.308,7.892-3.143,8.609l-.2-6.969q1.265-1.23,1.264-4.783V926.047Zm1.674-3.826H448.1v31.973h-2.357Zm6.114,13.356a31.556,31.556,0,0,0,7.618-1.5,22.209,22.209,0,0,1-2.254-2.869,18.862,18.862,0,0,1-1.5-3.518h-2.049v-3.724h16.158q1.092,0,1.093,1.913a14.233,14.233,0,0,1-5.192,8.472,7.661,7.661,0,0,1,1.468.443,22.71,22.71,0,0,0,5.842.684,8.4,8.4,0,0,0-1.4,2.186,11.831,11.831,0,0,0-.956,2.322,38.26,38.26,0,0,1-5.466-1.776,20.752,20.752,0,0,1-2.869-1.5,41.909,41.909,0,0,1-8.506,3.519,11.6,11.6,0,0,0-1.982-4.372v.273q0,3.723,1.64,4.816l-.171,6.388q-3.279-.648-3.621-8.335V925.876h2.152Zm9.121,10.282H454.52V942.17h6.456v-3.963H463.5v3.963h6.832v3.689H463.5v3.963h8.437v3.416H452.129v-3.416h8.847Zm-2.8-18.309a12.85,12.85,0,0,0,1.161,2.151,17.1,17.1,0,0,0,3.143,3.144A12.26,12.26,0,0,0,467.6,928.1q0-.409-.546-.409Z" fill="#231f20"/><path d="M481.506,932.469a34.383,34.383,0,0,0-4.748,1.366q-.238-1.913-.376-3.416,2.835-1.23,4.475-8.2,1.23.238,2.221.376a54.783,54.783,0,0,1-2.494,7.514,9.506,9.506,0,0,0,2.255-.273q.34-.786.649-1.742a32.874,32.874,0,0,0,1.127-3.553q1.128.274,2.323.547-.444,1.5-1.23,3.518a12.8,12.8,0,0,1-1.059,2.733,23.674,23.674,0,0,1-2.152,3.723q-.684.924-1.3,1.777,1.4-.273,2.7-.41c.388-.09.774-.193,1.162-.307q-.035-.546-.068-1.2-.138-1.365-.137-3.177h1.913a11.248,11.248,0,0,0,.615,4.373,4.949,4.949,0,0,0,.922,1.366v-1.776h18.344v3.45h-2.425v12.024a2.05,2.05,0,0,1-1.606,2.29,6.876,6.876,0,0,1-1.844.443,7.173,7.173,0,0,1-2.05.273,10.677,10.677,0,0,0-.683-3.86h-6.286a1.384,1.384,0,0,1-1.4-1.366v-6.8q.273-1.093,1.913-1.23h5.7q1.707.274,1.776,1.367v6.661a1.087,1.087,0,0,1-.717,1.127h1.127q1.673,0,1.673-1.264v-9.667H488.749q-.342,1.778-.65,3.553a3.437,3.437,0,0,1-1.64-1.366,13.68,13.68,0,0,0,.171,1.878,6.049,6.049,0,0,0,.82,2.733,7.866,7.866,0,0,0,1.5,1.5q-.409,2.356-.649,4.953a6.328,6.328,0,0,1-2.528-2.6,11.628,11.628,0,0,1-1.059-4.783q-.137-2.186-.136-4.235h1.571a11.145,11.145,0,0,1-.649-2.084,19.3,19.3,0,0,0-2.22.444v14.757H481.2V939.438q-2.289.41-4.646.785-.376-1.741-.785-3.519a5.606,5.606,0,0,0,3.45-1.366A18.61,18.61,0,0,0,481.506,932.469Zm-1.639,8.335q0,2.151-.1,4.372a13.413,13.413,0,0,1-.956,4.919,5.956,5.956,0,0,1-2.255,2.733q-.238-2.6-.683-4.919a5.594,5.594,0,0,0,1.23-1.5,6.34,6.34,0,0,0,.683-2.87,22.684,22.684,0,0,0,.136-2.732Zm18.651-12.059q1.3,2.6,7.31,2.6a7.216,7.216,0,0,0-1.058,4q-5.74-.853-7.96-4.646a10.888,10.888,0,0,1-6.695,4.885,7.165,7.165,0,0,0-1.811-3.826q5.3-.546,6.627-3.006h-6.046v-3.416h6.8q.067-1.23.068-2.869h2.323q0,1.639.034,2.869h7v3.416Zm-5.295,15.338a.86.86,0,0,0-.649.513v2.083a.889.889,0,0,0,.786.41h3.382q.682,0,.785-.546V944.6c0-.251-.238-.422-.717-.513Z" fill="#231f20"/><path d="M510.713,928.608h12.946v3.143H510.713ZM521.132,953.1h-7.584a1.362,1.362,0,0,1-1.366-1.265v-7.481q.238-1.128,1.844-1.263h6.9q1.6.136,1.674,1.366v7.276Q522.6,952.965,521.132,953.1Zm-8.848-19.54h10.009V936.3H512.284Zm0,4.645h10.009v2.87H512.284Zm.342-14.381h9.6v3.006h-9.6Zm2.356,22.409a.94.94,0,0,0-.648.58v2.734a.858.858,0,0,0,.751.41h4.749a.687.687,0,0,0,.751-.547v-2.6q0-.408-.683-.58Zm13.6-14.894q-4.27-.921-4.269-8.164h1.981q0,3.554,2.767,4.065l-.069,3.724a9.04,9.04,0,0,0,1.128-2.05q.648-.581.649-6.456h2.323a34.348,34.348,0,0,0,.239,6.012q.99,4.817,7.959,4.816a8.414,8.414,0,0,0-1.229,4.647,10.783,10.783,0,0,1-8.233-6.594,11.712,11.712,0,0,1-7,6.866,7.527,7.527,0,0,0-1.981-4.235A9.293,9.293,0,0,0,528.578,931.341Zm4.852,12.879q1.092,4.885,8.54,4.884a8.917,8.917,0,0,0-1.3,4.817,11.349,11.349,0,0,1-8.778-6.832,12.251,12.251,0,0,1-6.832,6.969,7.751,7.751,0,0,0-2.084-4.372q5.84-.957,7.173-5.227.615-.376.615-7.481h2.357Q533.122,943.538,533.43,944.22Zm-9.19-5.364h2.084q0,3.006,2.425,3.451l-.068,4.508Q524.241,945.963,524.24,938.856Zm13.459.137h2.221q-.138,6.865-4.851,7.822l-.239-4.235Q537.7,942.58,537.7,938.993Zm.445-15.816h2.118q-.205,7.071-4.988,8.164l-.239-4.236Q538.142,927.105,538.144,923.177Z" fill="#231f20"/><path d="M587.471,935.987q-2.836,6.149-7.925,6.149-2.016,0-6.832-2.153-4.817-2.116-6.593-2.117-3.313,0-6.252,3.211l-1.469-1.162a16.762,16.762,0,0,1,3.519-3.688,7.973,7.973,0,0,1,4.851-1.708q1.912,0,6.388,2.048,4.474,1.983,6.388,1.982a7.767,7.767,0,0,0,6.593-3.211Z" fill="#231f20"/><path d="M632.426,950.4h-8.745v-3.756h2.186q1.128,0,1.127-1.06v-16.26L618.933,950.4h-2.084l-7.959-21.076v16.26a.952.952,0,0,0,1.092,1.06H612.2V950.4h-8.745v-3.756h2.05q.99,0,.99-1.06V929.8q0-.75-.853-.751h-1.674v-3.792h5.875l8.1,21.282L626,925.261h5.876v3.792h-1.674q-.821,0-.82.751v15.782q0,1.059.956,1.06h2.084Z" fill="#231f20"/><path d="M660.334,935.406h-2.117a1.814,1.814,0,0,0-1.742.957l-9.7,17.387a3.294,3.294,0,0,1-2.219,1.64,28.628,28.628,0,0,1-3.348.1H640.18l-.274-3.791h4.271a1.75,1.75,0,0,0,1.4-.649,9.827,9.827,0,0,0,.855-1.435l-7.345-13.39a1.646,1.646,0,0,0-1.537-.821h-2.529v-3.792h10.112v3.792h-3.04q-.615,0-.615.308a.851.851,0,0,0,.136.342l6.15,11.135,6.08-10.862a1.354,1.354,0,0,0,.171-.581c0-.227-.194-.342-.58-.342h-2.9v-3.792h9.8Z" fill="#231f20"/><path d="M681.89,945.039q0,3.485-2.494,4.852-1.914,1.059-6.115,1.058a12.672,12.672,0,0,1-4.543-.615,8.038,8.038,0,0,1-3.45-2.869v3.108h-2.152v-6.9h2.152a3.68,3.68,0,0,0,2.288,2.938,19.908,19.908,0,0,0,5.466.478,24.4,24.4,0,0,0,4.987-.308,1.791,1.791,0,0,0,1.537-1.776q0-2.152-3.688-2.151h-6.115q-6.217,0-6.217-5.945a4.9,4.9,0,0,1,2.664-4.611,11.123,11.123,0,0,1,5.5-1.2q5.26,0,7.379,2.835v-2.324h2.118v6.764h-2.118a3.12,3.12,0,0,0-2.323-3.006,14.4,14.4,0,0,0-4.1-.41,28.686,28.686,0,0,0-4.953.273q-1.845.411-1.845,1.743a1.839,1.839,0,0,0,1.572,1.844,9.6,9.6,0,0,0,2.7.274h4.884Q681.89,939.1,681.89,945.039Z" fill="#231f20"/><path d="M698.184,946.064l-.2,4.27a12.629,12.629,0,0,1-4.133.615,4.007,4.007,0,0,1-2.767-.786,3.613,3.613,0,0,1-.786-2.664V935.133h-5.6v-3.519h2.324a3.207,3.207,0,0,0,3.074-2.254,14.656,14.656,0,0,0,.752-4.1h1.81v6.353h5.227v3.519H692.65v10.214q0,1.64,2.049,1.639A6.877,6.877,0,0,0,698.184,946.064Z" fill="#231f20"/><path d="M713.181,950.4H700.609v-3.756h4.51a.952.952,0,0,0,1.059-1.094V936.4a.891.891,0,0,0-1.025-.991H701.19v-3.792h5.91q1.435,0,1.435,1.265v12.673q0,1.093,1.23,1.094h3.416Zm-2.46-21.9h-8.164v-3.758h8.164Z" fill="#231f20"/><path d="M734.872,944.254a8.6,8.6,0,0,1-3.484,4.885,10.028,10.028,0,0,1-5.876,1.81,9.469,9.469,0,0,1-7.207-2.766,10.023,10.023,0,0,1-2.665-7.311,9.414,9.414,0,0,1,2.8-7.1,9.953,9.953,0,0,1,7.207-2.664,8.512,8.512,0,0,1,6.457,2.9v-2.494h2.152v7.208H732.72a5.666,5.666,0,0,0-3.348-3.177,14.018,14.018,0,0,0-4.235-.479q-7.242,0-7.242,6.047a5.082,5.082,0,0,0,2.391,4.577,9.384,9.384,0,0,0,5.226,1.3,18.188,18.188,0,0,0,4.236-.375,6.1,6.1,0,0,0,3.416-2.357Z" fill="#231f20"/><path d="M771.936,943.093q0,7.857-11.035,7.856a16.077,16.077,0,0,1-5.5-.649,9.889,9.889,0,0,1-4-3.519v3.929h-2.152v-7.925h2.152a5.08,5.08,0,0,0,3.69,3.792,22.572,22.572,0,0,0,5.295.409,22.908,22.908,0,0,0,6.866-.682,3.071,3.071,0,0,0,2.288-3.143q0-3.553-4.885-3.553h-7.208q-7.651,0-7.651-7.139a6.77,6.77,0,0,1,2.9-6.047,11.824,11.824,0,0,1,6.73-1.674q6.387,0,9.428,3.826v-3.347h2.118v8.5h-2.118a5.38,5.38,0,0,0-3.279-4.235,14.429,14.429,0,0,0-5.534-.82,22.8,22.8,0,0,0-5.466.41,3.011,3.011,0,0,0-2.392,3.177,2.953,2.953,0,0,0,1.708,3.006,15.551,15.551,0,0,0,4.954.512h4.954q4.063,0,5.977,1.606Q771.935,939.164,771.936,943.093Z" fill="#231f20"/><path d="M796.77,955.492H786.316V951.7h2.836q.888,0,.888-.923v-2.22q-1.912,2.391-6.251,2.391a8.093,8.093,0,0,1-6.593-2.937,11.717,11.717,0,0,1,0-14.006,8.135,8.135,0,0,1,6.593-2.9,7.87,7.87,0,0,1,6.251,2.493v-1.982h2.392v19.2a.785.785,0,0,0,.887.889h3.451Zm-6.73-9.5v-9.36a7.214,7.214,0,0,0-2.221-1.161,15.348,15.348,0,0,0-4.03-.411,7.168,7.168,0,0,0-4.714,1.469,5.463,5.463,0,0,0-1.913,4.476,5.586,5.586,0,0,0,1.879,4.543,7.16,7.16,0,0,0,4.748,1.434,38.214,38.214,0,0,0,4.03-.136A3.948,3.948,0,0,0,790.04,946Z" fill="#231f20"/><path d="M821.775,950.4h-5.124c-.8,0-1.2-.465-1.2-1.4v-1.811q-3.108,3.759-6.866,3.758a6.332,6.332,0,0,1-4.509-1.537,5.7,5.7,0,0,1-1.64-4.373V936.3q0-.889-.921-.889h-2.836v-3.792h4.578a1.86,1.86,0,0,1,1.229.308,1.36,1.36,0,0,1,.342,1.093v10.658q0,3.313,4.064,3.313,4.682,0,6.423-2.766v-7.993q0-.821-.923-.821h-2.9v-3.792h4.748a1.671,1.671,0,0,1,1.2.342,1.8,1.8,0,0,1,.273,1.161v12.469a.922.922,0,0,0,1.025,1.06h3.04Z" fill="#231f20"/><path d="M843.843,950.847h-.479a5.451,5.451,0,0,1-2.869-.854,3.137,3.137,0,0,1-1.708-2.733q-3.792,3.69-7.96,3.689-6.627,0-6.627-5.978,0-5.635,5.6-5.636,2.323.1,2.494.1h3.382a4.045,4.045,0,0,0,2.7-.923v-1.127q0-2.323-5.466-2.324-2.631,0-3.45.1a4.4,4.4,0,0,0-2.972,1.332h-1.674a7.428,7.428,0,0,1,3.006-4.235,9.925,9.925,0,0,1,5.227-1.161,10.7,10.7,0,0,1,5.466,1.092q2.22,1.4,2.22,4.885v8.3q0,1.674,2.083,1.674a3.262,3.262,0,0,0,1.026-.137Zm-5.466-5.671v-4.065a9.2,9.2,0,0,1-5.7,1.708l-3.04-.1q-3.177-.1-3.177,2.322a1.69,1.69,0,0,0,1.4,1.776,15.545,15.545,0,0,0,3.006.171Q835.85,946.986,838.377,945.176Z" fill="#231f20"/><path d="M862.631,935.1q-2.221-.206-3.62-.205a5.521,5.521,0,0,0-3.519,1.025,4.151,4.151,0,0,0-1.367,3.348v6.319q0,1.059,1.265,1.06h4.167V950.4H846.269v-3.756h4.474a.922.922,0,0,0,1.026-1.06v-9.155a.892.892,0,0,0-.992-1.025h-3.313v-3.792h5.329q1.4,0,1.4,1.265v2.459a6.81,6.81,0,0,1,2.153-3.314,6.326,6.326,0,0,1,3.792-.921q.546,0,2.493.068Z" fill="#231f20"/><path d="M883.4,941.487a16.06,16.06,0,0,1-.068,1.64H866.97a4.3,4.3,0,0,0,2.937,3.313,15.854,15.854,0,0,0,4.851.546q3.313,0,4.065-.1a3.574,3.574,0,0,0,2.6-1.332h1.845a6.951,6.951,0,0,1-3.348,4.3,11.3,11.3,0,0,1-5.431,1.093,9.7,9.7,0,0,1-7.173-2.562,9.409,9.409,0,0,1-2.6-7.071,10.965,10.965,0,0,1,2.323-7.242A8.481,8.481,0,0,1,873.9,931.1a8.938,8.938,0,0,1,7.174,2.9Q883.4,936.7,883.4,941.487Zm-2.288-1.844a3.869,3.869,0,0,0-2.255-3.622,9.627,9.627,0,0,0-4.474-.957q-7.414,0-7.413,4.579Z" fill="#231f20"/></g><g id="Front_Outline" data-name="Front Outline"><g id="Akyu_s_Untouched_Score_vol.2" data-name="Akyu’s Untouched Score vol.2"><path d="M440.666,754.664a2.045,2.045,0,0,1-.358-.032l-.424-.077a2,2,0,0,1-1.3-.856,2.431,2.431,0,0,1,1.606-3.817c.035-.012.07-.023.105-.032a16.43,16.43,0,0,1,2.142-.361l1.059-2.171,1.695-3.924,5.368-13.422-.673-1.523-.934-1.793a2,2,0,0,1,.972-2.756L453,722.552a2,2,0,0,1,2.73,1.306c.115.417.228.871.342,1.326.234.821.531,1.739.884,2.727.484,1.3.938,2.439,1.318,3.388.192.5.529,1.282,1.012,2.361l4.337,10.455,1.511,3.586.914,1.8c.174.019.343.036.5.049,1.008.118,3.814.454,3.814,2.764a2,2,0,0,1-.06.486,2.536,2.536,0,0,1-.689,1.207,2,2,0,0,1-1.076.55l-.462.077a2.022,2.022,0,0,1-.33.027,1.908,1.908,0,0,1-.2-.01l-.77-.077c-1.5-.146-2.948-.221-4.309-.221-1.244,0-2.616.075-4.077.221l-.866.079c-.06,0-.121.008-.181.008a2,2,0,0,1-.329-.027l-.463-.077a2,2,0,0,1-1.333-.861,2.578,2.578,0,0,1-.453-1.382c0-1.124.733-1.948,2.18-2.45a4.675,4.675,0,0,1,1-.215l.546-.084c-.24-.673-.553-1.526-.989-2.565a2.267,2.267,0,0,1-.078-.223l-.042-.148-.355-.829h-7.339l-.234.639-.677,2.221-.233.861c.333.06.731.146,1.259.263,2.173.543,2.49,1.817,2.49,2.53a2.018,2.018,0,0,1-.076.547l-.077.27a2,2,0,0,1-1.62,1.429l-.5.078a2.053,2.053,0,0,1-.3.023c-.06,0-.121,0-.181-.008l-1.8-.166a16.817,16.817,0,0,0-2.377-.134h-1.194a13.384,13.384,0,0,0-1.553.137l-1.772.163C440.787,754.661,440.727,754.664,440.666,754.664Zm14.47-13.709-1.826-4.45-1.74,4.45Z" fill="#fff"/><path d="M453.8,724.385c.116.424.231.886.347,1.347.231.81.539,1.773.925,2.852.5,1.349.963,2.5,1.348,3.468q.29.751,1.04,2.427l4.315,10.4,1.542,3.66,1.425,2.812c.578.078,1.156.155,1.657.193.963.115,1.965.347,1.965.77a.542.542,0,0,1-.154.27l-.463.077-.77-.077q-2.37-.231-4.508-.231-1.965,0-4.277.231l-.847.077-.463-.077a.662.662,0,0,1-.115-.27c0-.192.308-.384.886-.578a6.906,6.906,0,0,1,.886-.154,16.471,16.471,0,0,1,2.543-.231c-.192-.847-.424-1.618-.655-2.311-.231-.655-.578-1.618-1.079-2.814l-.077-.269-.924-2.157H448.294l-.732,2-.693,2.272-.886,3.275c.77,0,1.387.039,1.81.078.348.038.887.153,1.581.307q.924.232.924.578l-.077.27-.5.077-1.7-.154a19.1,19.1,0,0,0-2.659-.154h-1.194a15.833,15.833,0,0,0-1.811.154l-1.695.154-.424-.077a.669.669,0,0,1-.116-.27c0-.192.232-.384.694-.539a23.339,23.339,0,0,1,2.928-.424l1.542-3.159,1.733-4.007,5.7-14.255-1.04-2.351-.963-1.85,3.082-1.347m-5.163,18.57h9.478l-4.854-11.828-4.624,11.828m5.163-22.57a3.989,3.989,0,0,0-1.6.335l-3.083,1.347a4,4,0,0,0-1.945,5.513l.905,1.737.307.694L443.33,742.65l-1.675,3.873-.551,1.13a11.027,11.027,0,0,0-1.342.268c-.07.019-.14.04-.209.063a4.6,4.6,0,0,0-3.427,4.333,4.521,4.521,0,0,0,.792,2.5,4,4,0,0,0,2.608,1.71l.424.077a4,4,0,0,0,.716.065c.121,0,.242,0,.363-.016l1.695-.155c.051,0,.1-.01.153-.017.749-.1,1.189-.119,1.3-.12h1.194a15,15,0,0,1,2.1.114c.067.009.134.017.2.023l1.7.155c.12.011.241.016.362.016a4.01,4.01,0,0,0,.609-.047l.5-.077a4,4,0,0,0,2.724-1.741l.008.013a4,4,0,0,0,2.666,1.72l.462.077a3.934,3.934,0,0,0,.659.055c.121,0,.242,0,.362-.016l.848-.078q2.147-.215,3.914-.214c1.3,0,2.682.072,4.119.212l.761.076c.132.013.265.02.4.02a3.934,3.934,0,0,0,.659-.055l.462-.077a3.99,3.99,0,0,0,2.152-1.1,4.507,4.507,0,0,0,1.224-2.145,3.979,3.979,0,0,0,.12-.971c0-1.474-.666-3.993-5.02-4.677l-.4-.781-1.486-3.53-4.307-10.383c-.014-.035-.029-.07-.045-.1-.584-1.3-.843-1.93-.957-2.227l-.019-.048c-.39-.975-.826-2.066-1.3-3.352-.321-.9-.6-1.771-.819-2.52h0c-.117-.468-.234-.934-.351-1.363a4,4,0,0,0-3.859-2.946ZM451.135,747.8h4.539c.051.121.1.24.148.356a5.176,5.176,0,0,0-2.276,1.732,4.9,4.9,0,0,0-2.493-1.819l.082-.269Z" fill="#fff"/><path d="M716.192,754.934a3.191,3.191,0,0,1-2.338-.894,1.7,1.7,0,0,1-.116-.125,8.373,8.373,0,0,1-4.1,1.019,6.462,6.462,0,0,1-5.16-2.454,8.956,8.956,0,0,1-1.926-5.9,10.959,10.959,0,0,1,2.121-6.936,7.507,7.507,0,0,1,6.12-2.924,7.889,7.889,0,0,1,2.254.336l-.087-11.8a2.426,2.426,0,0,1-.51.055,1.962,1.962,0,0,1-.333-.029l-.231-.039a2,2,0,0,1-1.266-.769l-.115-.154a2,2,0,0,1-.4-1.2,3.065,3.065,0,0,1,.829-2.035,5.587,5.587,0,0,1,1.647-1.228,14.665,14.665,0,0,1,2.234-1.117,5.3,5.3,0,0,1,2.26-.548,2.565,2.565,0,0,1,2.29,1.452c.018.036.034.071.05.108a4.474,4.474,0,0,1,.315,1.788l-.256,26.132c.083-.037.169-.071.253-.1a2.01,2.01,0,0,1,1.36.041l.192.077a2,2,0,0,1,1.161,1.226l.078.232a2,2,0,0,1,.1.632c0,1.517-1.292,2.681-2.417,3.527A6.738,6.738,0,0,1,716.192,754.934Zm-5.125-13.408c-.312,0-.648.052-1.009.668a6.366,6.366,0,0,0-.766,3.381,6.557,6.557,0,0,0,.694,3.4,1.23,1.23,0,0,0,1.2.646,1.488,1.488,0,0,0,.891-.241,1.945,1.945,0,0,1,.176-.105,3,3,0,0,0,.824-.731v-5.976a4.624,4.624,0,0,0-.978-.738A2.273,2.273,0,0,0,711.067,741.526Z" fill="#fff"/><path d="M717.078,720.185a.57.57,0,0,1,.5.346,2.5,2.5,0,0,1,.154,1l-.269,27.433a6.551,6.551,0,0,0,.115,1.579.635.635,0,0,0,.616.269,1.848,1.848,0,0,0,1.311-.693c.269-.269.462-.424.539-.5a2.223,2.223,0,0,1,.309-.153l.192.076.077.231c0,.463-.54,1.118-1.618,1.927a5,5,0,0,1-2.813,1.233,1.27,1.27,0,0,1-.924-.308,1.608,1.608,0,0,1-.232-.964l.039-1.194c-1.888,1.734-3.468,2.466-5.432,2.466a4.5,4.5,0,0,1-3.622-1.734,7,7,0,0,1-1.464-4.623,9.048,9.048,0,0,1,1.695-5.7,5.467,5.467,0,0,1,4.546-2.158,5.979,5.979,0,0,1,2.081.386,12.464,12.464,0,0,1,2.2,1.194l-.116-15.912a3.9,3.9,0,0,0-.192-1.426.515.515,0,0,0-.539-.347,1.838,1.838,0,0,0-.964.347,2.014,2.014,0,0,1-.809.347l-.231-.039-.116-.154a1.156,1.156,0,0,1,.347-.732,3.884,3.884,0,0,1,1.078-.771,13.124,13.124,0,0,1,2.081-1.04,3.326,3.326,0,0,1,1.464-.385m-5.894,31.439a3.493,3.493,0,0,0,2-.578,5.907,5.907,0,0,0,1.888-1.811v-7.474a7.814,7.814,0,0,0-2.042-1.7,4.206,4.206,0,0,0-1.966-.539,3.03,3.03,0,0,0-2.735,1.657,8.241,8.241,0,0,0-1.04,4.392,8.343,8.343,0,0,0,1,4.469,3.217,3.217,0,0,0,2.89,1.58m5.894-35.439a7.182,7.182,0,0,0-3.052.71,17.117,17.117,0,0,0-2.473,1.239,7.3,7.3,0,0,0-2.15,1.662,5.031,5.031,0,0,0-1.3,3.317,4,4,0,0,0,.8,2.4l.115.153a4,4,0,0,0,1.953,1.4l.055,7.652c-.078,0-.157,0-.236,0a9.442,9.442,0,0,0-7.7,3.691,12.9,12.9,0,0,0-2.546,8.169,10.894,10.894,0,0,0,2.39,7.183,8.484,8.484,0,0,0,6.7,3.174,10.379,10.379,0,0,0,3.824-.7,5.481,5.481,0,0,0,2.725.7A8.708,8.708,0,0,0,721.4,754.9c1.383-1.039,3.219-2.7,3.219-5.128a3.989,3.989,0,0,0-.205-1.264l-.077-.232a4,4,0,0,0-2.323-2.454l-.192-.076c-.108-.043-.218-.081-.329-.114l.236-24.061a6.51,6.51,0,0,0-.476-2.614c-.031-.073-.065-.145-.1-.217a4.555,4.555,0,0,0-4.079-2.557Z" fill="#fff"/><path d="M809.768,754.934a8,8,0,0,1-6.1-2.581A9.124,9.124,0,0,1,801.41,746a9.348,9.348,0,0,1,2.472-6.65,8.616,8.616,0,0,1,6.541-2.67,7.807,7.807,0,0,1,5.624,2.06,7.99,7.99,0,0,1,2.116,5.8v.5a1.391,1.391,0,0,0-.413,2.493l.077.193a1.994,1.994,0,0,1,.144.744,3.641,3.641,0,0,1-.521,1.741,8.126,8.126,0,0,1-.861,1.334,9.071,9.071,0,0,1-3.107,2.5A8.264,8.264,0,0,1,809.768,754.934Zm-1.553-7.9a3.725,3.725,0,0,0,.64,1.048,2.748,2.748,0,0,0,2.261,1,1.993,1.993,0,0,0,1.735-.77l.631-.746a3.46,3.46,0,0,1,.47-.534Zm.451-5.095c-.075.1-.145.21-.208.316l2.732-.07a1.663,1.663,0,0,0-.2-.325,1.181,1.181,0,0,0-1.026-.451A1.622,1.622,0,0,0,808.666,741.94Z" fill="#fff"/><path d="M810.423,738.679a5.817,5.817,0,0,1,4.238,1.5,5.98,5.98,0,0,1,1.5,4.354v.5H805.876a6.394,6.394,0,0,0,1.465,4.355,4.725,4.725,0,0,0,3.775,1.7,4.022,4.022,0,0,0,3.314-1.542l.655-.771a2.05,2.05,0,0,1,.5-.5c.038-.039.076-.039.115-.077l.193.077.077.193a1.8,1.8,0,0,1-.27.77,6.44,6.44,0,0,1-.693,1.079,7.057,7.057,0,0,1-2.389,1.926,6.342,6.342,0,0,1-2.851.694,5.957,5.957,0,0,1-4.623-1.926A7.134,7.134,0,0,1,803.41,746a7.41,7.41,0,0,1,1.927-5.278,6.671,6.671,0,0,1,5.086-2.042m-4.508,5.586h2.2l2.966-.077a10.259,10.259,0,0,0,1.079-.077,12.48,12.48,0,0,0,1.349-.193,5.148,5.148,0,0,0-.963-3.314,3.18,3.18,0,0,0-2.582-1.194,3.609,3.609,0,0,0-2.851,1.272,5.671,5.671,0,0,0-.847,1.58,5.443,5.443,0,0,0-.347,2m4.508-9.586a10.683,10.683,0,0,0-8,3.3A11.435,11.435,0,0,0,799.41,746a11.06,11.06,0,0,0,2.775,7.7,9.948,9.948,0,0,0,7.583,3.235,10.3,10.3,0,0,0,4.61-1.1,11.005,11.005,0,0,0,3.725-2.984l.066-.084a10.5,10.5,0,0,0,1.073-1.667,5.563,5.563,0,0,0,.729-2.633,4,4,0,0,0-.288-1.489l-.009-.023a3.978,3.978,0,0,0,.489-1.918v-.5a9.894,9.894,0,0,0-2.619-7.127l-.11-.111a9.743,9.743,0,0,0-7.011-2.618Z" fill="#fff"/><path d="M835.31,755.435a2.971,2.971,0,0,1-2.545-2.041l-4.972-11.516-.77-.167a1.94,1.94,0,0,1-.382-.125,2.693,2.693,0,0,1-1.672-1.812,1.994,1.994,0,0,1,0-.959,2.522,2.522,0,0,1,.7-1.221,2,2,0,0,1,1.067-.541l.462-.077a1.915,1.915,0,0,1,.329-.028c.048,0,.1,0,.143,0l1.079.077,1.744.107,1.727-.108,1.059-.076c.048,0,.1,0,.143,0a1.915,1.915,0,0,1,.329.028l.463.077a2,2,0,0,1,1.594,1.422l.077.269a.155.155,0,1,0,.122,0l.077-.269a2,2,0,0,1,1.594-1.422l.463-.077a1.906,1.906,0,0,1,.329-.028c.053,0,.106,0,.16.007l.963.077,1.344.068,1.44-.072.948-.074c.051,0,.1-.006.154-.006a2.045,2.045,0,0,1,.358.032l.424.078a2,2,0,0,1,1.055.553,2.424,2.424,0,0,1,.74,1.684,2.453,2.453,0,0,1-1.568,2.213,2.075,2.075,0,0,1-.387.145l-.734.193-2.639,5.38-2.877,6.1-.174.35A2.567,2.567,0,0,1,835.31,755.435Zm.865-10.381.468-1.2.719-2.018.072-.282a1.818,1.818,0,0,1-.224-.115,2.46,2.46,0,0,1-1.267-1.872,2.411,2.411,0,0,1-1.273,1.85Z" fill="#fff"/><path d="M843.478,738.948l.423.077a.482.482,0,0,1,.154.27c0,.115-.154.269-.462.424l-1.618.424-2.081,4.238-.963,1.965-2.89,6.126-.154.308c-.193.424-.385.655-.577.655-.232,0-.463-.308-.733-.886l-5.355-12.406-1.773-.386c-.346-.153-.5-.308-.539-.462a.532.532,0,0,1,.154-.27l.462-.077,1.079.077,1.888.116,1.85-.116,1.078-.077.463.077.077.27c0,.192-.154.347-.463.462l-1.5.424,4.237,10.249,2.274-5.857.77-2.157.578-2.273a6.8,6.8,0,0,1-.847-.193,2.978,2.978,0,0,1-.771-.231c-.192-.115-.308-.232-.308-.424l.077-.27.463-.077.963.077,1.5.078,1.541-.078,1-.077m-10.057-4c-.1,0-.191,0-.286.01l-1.078.078-1.566.1-1.642-.1-1.037-.075c-.1-.006-.191-.01-.286-.01a3.943,3.943,0,0,0-.659.055l-.462.077a4,4,0,0,0-2.132,1.081,4.492,4.492,0,0,0-1.246,2.175,3.989,3.989,0,0,0,0,1.918,4.676,4.676,0,0,0,2.8,3.161,4.025,4.025,0,0,0,.529.191l4.545,10.528c.015.035.031.07.047.105,1.231,2.641,3.049,3.2,4.358,3.2a4.566,4.566,0,0,0,4.181-2.92l.128-.255c.013-.027.027-.054.04-.082l2.877-6.1.949-1.938,1.275-2.6a4.076,4.076,0,0,0,.622-.249,4.313,4.313,0,0,0,1.348-7.1,4,4,0,0,0-2.112-1.107l-.424-.077a4.006,4.006,0,0,0-.716-.065c-.1,0-.2,0-.308.012l-.948.073-1.285.064-1.243-.063-.906-.073c-.106-.008-.213-.013-.319-.013a3.931,3.931,0,0,0-.658.055l-.463.077a2.164,2.164,0,0,1-2.807,0l-.462-.077a3.931,3.931,0,0,0-.658-.055Z" fill="#fff"/><path d="M850.95,755.011a8.722,8.722,0,0,1-6.181-2.235,7.829,7.829,0,0,1-2.446-5.968,9.414,9.414,0,0,1,3.216-7.353,11.326,11.326,0,0,1,7.762-2.776,8.229,8.229,0,0,1,6.1,2.343,8.583,8.583,0,0,1,2.257,6.09,9.327,9.327,0,0,1-3.161,7.069A10.72,10.72,0,0,1,850.95,755.011Zm1.349-13.485a2.823,2.823,0,0,0-2.377.963,4.532,4.532,0,0,0-.979,3.086,5.594,5.594,0,0,0,.95,3.529,2.324,2.324,0,0,0,2.021.982c2.022,0,3.047-1.4,3.047-4.164a6.2,6.2,0,0,0-.853-3.566A1.968,1.968,0,0,0,852.3,741.526Z" fill="#fff"/><path d="M853.3,738.679a6.219,6.219,0,0,1,4.662,1.733,6.571,6.571,0,0,1,1.7,4.7,7.292,7.292,0,0,1-2.5,5.587,8.778,8.778,0,0,1-6.2,2.312,6.793,6.793,0,0,1-4.815-1.7,5.886,5.886,0,0,1-1.812-4.507,7.48,7.48,0,0,1,2.543-5.857,9.383,9.383,0,0,1,6.435-2.272m-1.387,13.407c3.236,0,5.047-2.35,5.047-6.164a7.975,7.975,0,0,0-1.233-4.739,3.984,3.984,0,0,0-3.429-1.657,4.828,4.828,0,0,0-3.892,1.657,6.5,6.5,0,0,0-1.464,4.392,7.433,7.433,0,0,0,1.387,4.778,4.281,4.281,0,0,0,3.584,1.733m1.387-17.407a13.446,13.446,0,0,0-9.087,3.278,11.486,11.486,0,0,0-3.891,8.851,9.885,9.885,0,0,0,3.079,7.429,10.8,10.8,0,0,0,7.548,2.774,12.842,12.842,0,0,0,8.909-3.366,11.273,11.273,0,0,0,3.8-8.533,10.5,10.5,0,0,0-2.774-7.432l-.045-.047a10.092,10.092,0,0,0-7.538-2.954Zm-1.387,13.407c-.281,0-.3-.019-.41-.168-.016-.021-.032-.042-.049-.062a3.9,3.9,0,0,1-.512-2.281,2.472,2.472,0,0,1,.494-1.781c.113-.131.231-.268.862-.268a1.287,1.287,0,0,1,.193.013,4.329,4.329,0,0,1,.469,2.383c0,2.164-.655,2.164-1.047,2.164Z" fill="#fff"/><path d="M861.93,754.626a2.01,2.01,0,0,1-.329-.027l-.463-.078a2,2,0,0,1-1.091-.564,2.428,2.428,0,0,1-.734-1.678c0-1.631,1.231-2.223,2.985-2.64l.059-1.669.077-3.823-.111-18.9a2.321,2.321,0,0,1-.509.057,1.985,1.985,0,0,1-.741-.143l-.193-.077a2,2,0,0,1-.921-.745l-.077-.115a2,2,0,0,1-.338-1.113,3.1,3.1,0,0,1,.77-2.01c.04-.047.081-.093.124-.136a8.137,8.137,0,0,1,1.406-1.06c.046-.028.093-.054.141-.079l2.042-1.04a5.6,5.6,0,0,1,2.371-.6,2.488,2.488,0,0,1,2.179,1.242,1.9,1.9,0,0,1,.142.286,4.9,4.9,0,0,1,.258,1.82l-.116,22.664.177,5.434a7.972,7.972,0,0,1,1,.251,2.734,2.734,0,0,1,1.9,2,2,2,0,0,1-.021.89,2.557,2.557,0,0,1-.659,1.17,2.016,2.016,0,0,1-1.075.574l-.424.077a2.057,2.057,0,0,1-.359.032c-.057,0-.114,0-.172-.008l-1.348-.116-2.216-.106-2.293.112-1.273.11C862.044,754.623,861.987,754.626,861.93,754.626Z" fill="#fff"/><path d="M866.4,720.185a.5.5,0,0,1,.463.269,3.456,3.456,0,0,1,.116,1.079l-.116,22.655.077,2.5.155,4.623a19.078,19.078,0,0,1,2.311.463c.347.116.539.308.578.5a.552.552,0,0,1-.154.27l-.424.077-1.348-.116-2.389-.115-2.389.115-1.348.116-.463-.077a.492.492,0,0,1-.154-.27c0-.308.347-.5,2.928-1l.115-3.236.078-3.853-.116-19.8a5.832,5.832,0,0,0-.115-1.465.635.635,0,0,0-.578-.308c-.578,0-1.464.694-1.811.694l-.193-.077-.077-.116a1.125,1.125,0,0,1,.309-.732,5.961,5.961,0,0,1,1.04-.771l2.042-1.04a3.6,3.6,0,0,1,1.463-.385m0-4a7.479,7.479,0,0,0-3.154.76l-.125.061-2.042,1.04q-.144.073-.282.159a9.739,9.739,0,0,0-1.771,1.347c-.087.087-.169.178-.248.272a5.1,5.1,0,0,0-1.232,3.289,4,4,0,0,0,.676,2.226l.077.115a4.011,4.011,0,0,0,1.842,1.49l.193.077h0l.1,17.138-.075,3.771-.008.232a4.181,4.181,0,0,0-3.037,4.117,4.44,4.44,0,0,0,1.313,3.086,4,4,0,0,0,2.183,1.129l.463.078a4.038,4.038,0,0,0,.658.054c.114,0,.229,0,.343-.015l1.273-.11,2.121-.1,2.121.1,1.273.11c.114.01.229.015.343.015a4.017,4.017,0,0,0,.717-.065l.423-.077a4,4,0,0,0,2.148-1.143,4.539,4.539,0,0,0,1.167-2.074,4.007,4.007,0,0,0,.044-1.78,4.668,4.668,0,0,0-2.915-3.386l-.052-1.542-.074-2.423.115-22.582a6.787,6.787,0,0,0-.4-2.582,4.018,4.018,0,0,0-.284-.573,4.506,4.506,0,0,0-3.895-2.214Z" fill="#fff"/><path d="M898.8,757.169a2.54,2.54,0,0,1-2.171-1.526,2.033,2.033,0,0,1-.222-.621l-.09-.5a20.842,20.842,0,0,0-2.718-.242l-4.859-.153-4.023.113-2.386.115a4.707,4.707,0,0,1-1.8-.256,2.435,2.435,0,0,1-1.528-2.32c0-1.209.8-2,3.067-3.628l2.944-2.179a39.126,39.126,0,0,0,7.175-7.059c1.472-2.029,2.225-3.772,2.225-5.165a3.166,3.166,0,0,0-.889-2.413,3.728,3.728,0,0,0-2.736-.865,5.165,5.165,0,0,0-2.885.836,9.8,9.8,0,0,0-2.724,2.864l-.541.973c-.3.572-1.055,1.992-2.557,1.992a1.967,1.967,0,0,1-.623-.1,2.076,2.076,0,0,1-1.04-.581,2.008,2.008,0,0,1-.509-.911l-.077-.309a2.037,2.037,0,0,1-.059-.485,5.154,5.154,0,0,1,.689-2.315,11.2,11.2,0,0,1,1.478-2.463,13.78,13.78,0,0,1,4.665-4.342,11.556,11.556,0,0,1,5.763-1.472c5.3,0,8.858,3.436,8.858,8.55,0,2.96-1.481,6.117-4.4,9.385a58.022,58.022,0,0,1-7.6,6.828c1.192-.091,2.2-.179,3.151-.284a22.711,22.711,0,0,0,3.925-.732c.369-1.973.536-2.673.644-3.041.491-1.994,1.781-2.212,2.318-2.212a2,2,0,0,1,1.027.285l.192.115a2,2,0,0,1,.914,1.23l.077.309a2.033,2.033,0,0,1,.046.721l-.27,2.273a36.314,36.314,0,0,0-.218,3.887l.037,2.766.029.251a2.051,2.051,0,0,1-.036.654l-.078.346a2,2,0,0,1-.839,1.228A2.364,2.364,0,0,1,898.8,757.169Z" fill="#fff"/><path d="M892.365,726.156c4.2,0,6.858,2.543,6.858,6.55,0,2.466-1.31,5.163-3.891,8.053s-6.781,6.357-12.522,10.4c1.888,0,3.622-.038,5.278-.153,1.618-.116,3.121-.232,4.508-.386a17.43,17.43,0,0,0,5.471-1.271c.385-2.12.656-3.468.809-3.968.116-.5.27-.733.386-.733l.192.116.077.308-.269,2.274a38.308,38.308,0,0,0-.232,4.122l.039,2.889.038.347-.077.347a.593.593,0,0,1-.231.116c-.115,0-.231-.154-.424-.5l-.347-1.927a34.645,34.645,0,0,0-4.43-.462l-4.855-.154-4.084.115-2.388.116a2.906,2.906,0,0,1-1-.116.436.436,0,0,1-.27-.462c0-.269.732-.924,2.234-2l2.967-2.2a41.067,41.067,0,0,0,7.591-7.474c1.733-2.389,2.619-4.508,2.619-6.357a5.138,5.138,0,0,0-1.5-3.853,5.775,5.775,0,0,0-4.123-1.425,7.148,7.148,0,0,0-3.969,1.155,11.772,11.772,0,0,0-3.351,3.506l-.578,1.041c-.347.654-.616.963-.809.963-.116-.038-.193-.038-.231-.077l-.077-.309a3.571,3.571,0,0,1,.5-1.464,9.051,9.051,0,0,1,1.271-2.119,11.91,11.91,0,0,1,4.007-3.775,9.624,9.624,0,0,1,4.816-1.234m0-4a13.577,13.577,0,0,0-6.751,1.733,15.69,15.69,0,0,0-5.281,4.887,13.236,13.236,0,0,0-1.685,2.8,7,7,0,0,0-.878,3.168,4.013,4.013,0,0,0,.119.97l.077.309a4.007,4.007,0,0,0,1.016,1.822,4.161,4.161,0,0,0,2,1.132,4.017,4.017,0,0,0,1.1.153c1.784,0,3.238-1.027,4.322-3.051l.484-.871a7.785,7.785,0,0,1,2.1-2.227,3.139,3.139,0,0,1,1.8-.516,1.966,1.966,0,0,1,1.375.332c.088.091.25.311.25.946,0,.436-.181,1.7-1.856,4.007a37.146,37.146,0,0,1-6.783,6.646l-2.895,2.143c-1.91,1.372-3.877,2.795-3.877,5.235a4.4,4.4,0,0,0,2.781,4.175,6.649,6.649,0,0,0,2.491.4c.064,0,.129,0,.194,0l2.348-.115,3.923-.11,4.735.15c.042,0,.084,0,.127,0,.351,0,.738.025,1.145.065.043.092.089.183.139.272a4.257,4.257,0,0,0,6.374,1.761,4.006,4.006,0,0,0,1.679-2.455l.077-.347a4.007,4.007,0,0,0,.071-1.306l-.017-.155-.036-2.671a34.53,34.53,0,0,1,.208-3.665l.265-2.233a3.974,3.974,0,0,0-.091-1.441l-.077-.308a4,4,0,0,0-1.825-2.462l-.193-.115a3.978,3.978,0,0,0-.937-.409,14.381,14.381,0,0,0,2.843-8.1c0-6.211-4.465-10.55-10.858-10.55Z" fill="#fff"/></g></g><g id="Front_Text" data-name="Front Text"><path d="M447.562,745.807l-.693,2.272-.886,3.275c.77,0,1.387.039,1.81.078.348.038.887.153,1.581.307q.924.232.924.578l-.077.27-.5.077-1.7-.154a19.1,19.1,0,0,0-2.659-.154h-1.194a15.833,15.833,0,0,0-1.811.154l-1.695.154-.424-.077a.669.669,0,0,1-.116-.27c0-.192.232-.384.694-.539a23.339,23.339,0,0,1,2.928-.424l1.542-3.159,1.733-4.007,5.7-14.255-1.04-2.351-.963-1.85,3.082-1.347c.116.424.231.886.347,1.347.231.81.539,1.773.925,2.852.5,1.349.963,2.5,1.348,3.468q.29.751,1.04,2.427l4.315,10.4,1.542,3.66,1.425,2.812c.578.078,1.156.155,1.657.193.963.115,1.965.347,1.965.77a.542.542,0,0,1-.154.27l-.463.077-.77-.077q-2.37-.231-4.508-.231-1.965,0-4.277.231l-.847.077-.463-.077a.662.662,0,0,1-.115-.27c0-.192.308-.384.886-.578a6.906,6.906,0,0,1,.886-.154,16.471,16.471,0,0,1,2.543-.231c-.192-.847-.424-1.618-.655-2.311-.231-.655-.578-1.618-1.079-2.814l-.077-.269-.924-2.157H448.294Zm10.557-2.852-4.854-11.828-4.624,11.828Z" fill="#231f20"/><path d="M473.066,749.351l.154,1.926c.5.116,1,.193,1.5.308.462.116.732.193.847.231.424.117.617.27.617.463a.544.544,0,0,1-.155.27l-.462.077-1.348-.116-2.389-.115-2.389.115-1.348.116-.463-.077a.492.492,0,0,1-.154-.27c0-.193.193-.346.617-.463a2.969,2.969,0,0,1,.577-.154c.925-.192,1.5-.347,1.773-.385l.116-1.965.077-1.618-.116-23.309v-.771a2.344,2.344,0,0,0-.193-.694.572.572,0,0,0-.539-.308c-.5,0-1.426.694-1.772.694l-.231-.077-.078-.116a1.125,1.125,0,0,1,.309-.732,5.961,5.961,0,0,1,1.04-.771l2.042-1.04a3.6,3.6,0,0,1,1.464-.385.544.544,0,0,1,.462.308,2.24,2.24,0,0,1,.154,1.04l-.154,26.161Zm3.351-4.122.694.885a9.907,9.907,0,0,0,3.506-1.733,2.914,2.914,0,0,0,1.195-2.235,1.859,1.859,0,0,0-.694-1.5,3.218,3.218,0,0,0-1.965-.54,7.636,7.636,0,0,0-2.966.694l-1.734.693-.193-.077c-.038-.039-.038-.116-.077-.231a.45.45,0,0,1,.27-.424l1.194-.732a20.348,20.348,0,0,1,2.62-1,11.342,11.342,0,0,1,2.235-.308,4.33,4.33,0,0,1,2.774.77,2.518,2.518,0,0,1,1.04,2.159c0,1.964-1.926,3.466-6.511,5.162.886,1,1.387,1.541,1.464,1.657a22.627,22.627,0,0,0,1.926,1.926q1.33,1.155,1.849,1.156a1.321,1.321,0,0,0,.887-.5,2.4,2.4,0,0,1,.462-.347,2.427,2.427,0,0,1,.232-.154l.192.077.077.232c0,.307-.269.731-.848,1.309a2.684,2.684,0,0,1-1.695.771c-1.849,0-4.546-2.042-8.861-6.82Z" fill="#231f20"/><path d="M487.666,740.143l-1.849-.386c-.347-.193-.5-.347-.5-.462a.532.532,0,0,1,.154-.27l.462-.077,1.079.077,1.849.116,1.889-.116,1.078-.077.463.077a.485.485,0,0,1,.153.27c0,.154-.153.309-.5.462l-1.618.424,3.968,10.557a37.217,37.217,0,0,0,2.119-5.24,26.281,26.281,0,0,0,1.272-5.355,4.165,4.165,0,0,1-.809-.193,2.5,2.5,0,0,1-.81-.27c-.231-.116-.347-.231-.347-.385l.116-.27.462-.077,1,.077,1.5.078,1.541-.078.963-.077.463.077a.485.485,0,0,1,.153.27c0,.115-.153.269-.462.424l-1.657.424c-.693,1.733-1.156,2.889-1.386,3.545-.5,1.194-.925,2.234-1.349,3.12-.424.924-.771,1.772-1.117,2.582-.424.808-.694,1.348-.848,1.618l-2.62,5.085-.077.154c-1.734,3.275-3.121,4.894-4.238,4.894a1.747,1.747,0,0,1-1.271-.539,1.834,1.834,0,0,1-.5-1.349,2.117,2.117,0,0,1,.462-1.426,1.579,1.579,0,0,1,1.156-.5,1.418,1.418,0,0,1,1,.27,2.047,2.047,0,0,1,.462.809c.732-.308,1.849-1.888,3.429-4.931Z" fill="#231f20"/><path d="M508.123,750.353a2.416,2.416,0,0,0,2.119.924,5.474,5.474,0,0,0,.886-.077,7.5,7.5,0,0,0,1.117-.308,13.968,13.968,0,0,0,2.62-1.156v-6.395l-.038-1.5-.193-1.387-2.119.115h-.231a.554.554,0,0,1-.346-.077l-.117-.231c0-.27.309-.424.964-.539l.886-.155a18.407,18.407,0,0,0,2.119-.655l1.117-.462a1.137,1.137,0,0,1,.309.27,1.9,1.9,0,0,1,.077.578v9.324l.076,1.541a5,5,0,0,0,.193,1.155l1.926.232h.194c.423.038.654.192.654.386a.37.37,0,0,1-.27.384,2.763,2.763,0,0,1-.962.116h-.579a12.739,12.739,0,0,0-1.425.039c-.27.038-.694.077-1.272.154l-.5.038c-.115,0-.192-.077-.307-.231a.957.957,0,0,1-.155-.655v-1.233c-3.39,1.734-5.2,2.389-6.318,2.389a3.1,3.1,0,0,1-2.7-1.079,7.3,7.3,0,0,1-.81-3.93V742.3a2.9,2.9,0,0,1-.076-.462l-.154-1.387-2.12.115h-.231a.56.56,0,0,1-.347-.077l-.115-.231c0-.27.308-.424.963-.539l.886-.155c.424-.115.732-.192.964-.269a7.736,7.736,0,0,0,1.117-.386l1.155-.462c.309.193.386.347.386.848V747.5A5.111,5.111,0,0,0,508.123,750.353Z" fill="#231f20"/><path d="M527.308,725.617a1.739,1.739,0,0,1,.5,1.426,3.558,3.558,0,0,1-.386,1.618,12.35,12.35,0,0,1-1.272,2.312c-.192.308-.462.655-.731,1.04-.309.424-.578.732-.771.964a2.622,2.622,0,0,1-.847.731l-.193-.115-.077-.232.925-2a8.167,8.167,0,0,0,1-3.429,1.248,1.248,0,0,0-.347-.925.971.971,0,0,0-.847-.308h-.539l-.232-.039-.077-.269q0-.289.81-.809a3,3,0,0,1,1.579-.463A2.032,2.032,0,0,1,527.308,725.617Z" fill="#231f20"/><path d="M532.354,753.088l-.27.655a.472.472,0,0,1-.347.154l-.192-.077-.077-.269.192-1.156a9.529,9.529,0,0,0,.193-2.081l-.116-1.542-.077-1.078.077-.346a.579.579,0,0,1,.232-.155c.269,0,.462.656.577,1.926l.077.81a8.457,8.457,0,0,0,2.119,1.079,6.557,6.557,0,0,0,2.351.424c2,0,3.351-.81,3.351-2.2,0-1-.963-1.657-2.85-1.926l-1.311-.193a7.366,7.366,0,0,1-3.7-1.387,3.4,3.4,0,0,1-1.04-2.7,3.959,3.959,0,0,1,1.387-3.121,5.1,5.1,0,0,1,3.583-1.194h.732a8.2,8.2,0,0,1,1.04.116,9.758,9.758,0,0,1,2,.577l.153-.5a1.97,1.97,0,0,1,.232-.654.479.479,0,0,1,.308-.193l.193.077.115.27-.192,1.04-.116,1.926.078,1.812v.23a.781.781,0,0,1-.078.348l-.231.115c-.232,0-.386-.5-.5-1.5l-.115-.809a9.329,9.329,0,0,0-1.041-.732q-.635-.348-1.156-.578a6.231,6.231,0,0,0-2.35-.462,3.089,3.089,0,0,0-2.042.655,1.973,1.973,0,0,0-.809,1.618c0,.963.886,1.541,2.7,1.772l1.695.308c3.275.5,4.547,1.7,4.547,3.853a4.4,4.4,0,0,1-1.618,3.507,6.005,6.005,0,0,1-4.162,1.425l-1.425-.116-1.927-.385Z" fill="#231f20"/><path d="M555.006,725.926l.115-.27.462-.116,1.7.192a24.194,24.194,0,0,0,3.006.155h1.773c.539-.077.923-.116,1.155-.155l1.7-.192.462.116.116.27c0,.192-.269.385-.77.539a7.356,7.356,0,0,1-1.04.192c-1.118.194-1.735.27-1.773.27l-.5,14.525-.039.733v.693c0,3.391.54,5.779,1.618,7.2s2.929,2.157,5.587,2.157a9.327,9.327,0,0,0,4.7-1.117,6.9,6.9,0,0,0,2.851-3.159,12.906,12.906,0,0,0,.771-3.082c.077-.617.154-1.349.192-2.158s.077-1.773.077-2.851V736.02c0-.732,0-1.31-.038-1.772-.116-1.811-.154-2.813-.154-2.967,0-.617,0-1.117-.039-1.5s-.193-1.348-.462-2.851c-3.044-.308-3.815-.577-3.815-1l.116-.27a1.2,1.2,0,0,1,.462-.116l1.387.154,2.658.116,2.621-.116,1.425-.154a.513.513,0,0,1,.386.116c.115.038.153.115.153.27s-.153.307-.5.462c-.423.115-1.233.308-2.5.539a34.388,34.388,0,0,0-.423,3.853q-.115,2.139-.116,3.93v.424l-.039.963-.192,4.238-.077.963a27.41,27.41,0,0,1-.309,4.315,11.7,11.7,0,0,1-.924,2.967,7.431,7.431,0,0,1-3.313,3.391,11.628,11.628,0,0,1-5.395,1.156,10.894,10.894,0,0,1-5.008-1.079,7.279,7.279,0,0,1-3.237-2.929,8.914,8.914,0,0,1-.885-2.812,37.352,37.352,0,0,1-.309-5.741V726.927C555.854,726.619,555.006,726.35,555.006,725.926Z" fill="#231f20"/><path d="M589.562,749.428l.193,1.887c.578.117,1.079.194,1.5.27.424.116.77.193,1.04.27.269.116.386.231.386.424l-.117.27-.462.077-1.348-.116-2.389-.115-2.427.115-1.31.116-.5-.077a.673.673,0,0,1-.115-.27c0-.193.192-.346.616-.463a16.57,16.57,0,0,1,2.35-.5l.116-1.733v-6.241l-.038-1.5a5.364,5.364,0,0,0-.039-.771c-.039-.269-.078-.463-.116-.616l-2.158.115h-.192a.833.833,0,0,1-.385-.077l-.077-.231c0-.231.346-.424,1-.539l.885-.155c.347-.077.656-.154.925-.231.232-.077.617-.23,1.117-.424l1.118-.462a2.32,2.32,0,0,1,.346.232c.039.038.039.115.039.23v2.351c.5-.27,1.118-.578,1.888-.925a24.605,24.605,0,0,1,2.427-1.079,8.274,8.274,0,0,1,2.39-.539A3.212,3.212,0,0,1,599,739.8a7.12,7.12,0,0,1,.77,3.852v4.046l.04,1.926.115,1.7a20.938,20.938,0,0,1,2.388.5c.347.117.539.27.539.463l-.115.27-.462.077-1.348-.116-2.389-.115-2.428.115-1.309.116-.463-.077a.492.492,0,0,1-.154-.27c0-.193.154-.346.423-.424s.695-.193,1.272-.308,1-.232,1.271-.27l.117-1.887.077-1.7v-3.622a4.927,4.927,0,0,0-.656-2.85,2.543,2.543,0,0,0-2.119-.887,6.415,6.415,0,0,0-2.234.463,16.917,16.917,0,0,0-2.813,1.271v5.625Z" fill="#231f20"/><path d="M606.205,740.451l-1.58.076-.81.155v-1.426l.964.193,1.426.038h.848l-.077-8.052V731.2h2.735l-.309,4.623-.115,3.66h1.85l1.965-.038,1.424-.193-.038,1.426-1.156-.155-2.2-.076h-1.85l-.192,6.126v.654a5.483,5.483,0,0,0,.539,2.89,1.771,1.771,0,0,0,1.733.848,3.344,3.344,0,0,0,2.081-.732l1.078-.732.232.115.115.271c0,.423-.539,1.04-1.656,1.848a6.728,6.728,0,0,1-1.618.887,4.871,4.871,0,0,1-1.658.308,2.835,2.835,0,0,1-2.465-1.079,6.8,6.8,0,0,1-.732-3.622V747.5l.232-7.05Z" fill="#231f20"/><path d="M629.744,750.7a8.778,8.778,0,0,1-6.2,2.312,6.793,6.793,0,0,1-4.815-1.7,5.886,5.886,0,0,1-1.812-4.507,7.48,7.48,0,0,1,2.543-5.857,9.381,9.381,0,0,1,6.435-2.272,6.22,6.22,0,0,1,4.662,1.733,6.571,6.571,0,0,1,1.7,4.7A7.3,7.3,0,0,1,629.744,750.7Zm-.192-4.777a7.967,7.967,0,0,0-1.234-4.739,3.981,3.981,0,0,0-3.428-1.657A4.826,4.826,0,0,0,621,741.183a6.5,6.5,0,0,0-1.464,4.392,7.433,7.433,0,0,0,1.387,4.778,4.281,4.281,0,0,0,3.584,1.733C627.741,752.086,629.552,749.736,629.552,745.922Z" fill="#231f20"/><path d="M640.183,750.353a2.416,2.416,0,0,0,2.119.924,5.474,5.474,0,0,0,.886-.077,7.471,7.471,0,0,0,1.118-.308,14.025,14.025,0,0,0,2.62-1.156v-6.395l-.039-1.5-.193-1.387-2.119.115h-.231a.56.56,0,0,1-.347-.077l-.115-.231c0-.27.308-.424.963-.539l.886-.155a18.481,18.481,0,0,0,2.12-.655l1.117-.462a1.12,1.12,0,0,1,.307.27,1.857,1.857,0,0,1,.078.578v9.324l.077,1.541a5,5,0,0,0,.193,1.155l1.926.232h.192c.424.038.655.192.655.386a.37.37,0,0,1-.269.384,2.766,2.766,0,0,1-.963.116h-.578a12.77,12.77,0,0,0-1.426.039c-.269.038-.693.077-1.271.154l-.5.038c-.116,0-.193-.077-.308-.231a.963.963,0,0,1-.154-.655v-1.233c-3.391,1.734-5.2,2.389-6.32,2.389a3.1,3.1,0,0,1-2.7-1.079,7.291,7.291,0,0,1-.809-3.93V742.3a2.827,2.827,0,0,1-.078-.462l-.153-1.387-2.119.115h-.231a.557.557,0,0,1-.347-.077l-.116-.231c0-.27.308-.424.964-.539l.885-.155c.424-.115.733-.192.964-.269a7.7,7.7,0,0,0,1.117-.386l1.156-.462c.308.193.385.347.385.848V747.5A5.119,5.119,0,0,0,640.183,750.353Z" fill="#231f20"/><path d="M663.105,740.22a5.65,5.65,0,0,0-2.349-.54,3.66,3.66,0,0,0-3.854,2.774,5.073,5.073,0,0,0-.346,1.927,6.9,6.9,0,0,0,1.657,4.738,5.01,5.01,0,0,0,4.007,1.966,4.935,4.935,0,0,0,1.849-.347,4.5,4.5,0,0,0,1.5-1.2l.424-.5c.232-.347.424-.54.578-.54l.193.077.077.232a1.575,1.575,0,0,1-.155.578,5.591,5.591,0,0,1-.384.693,5.839,5.839,0,0,0-.347.5,6.166,6.166,0,0,1-5.124,2.35,6.085,6.085,0,0,1-4.547-1.926,6.636,6.636,0,0,1-1.849-4.779,7.445,7.445,0,0,1,2.081-5.316,6.7,6.7,0,0,1,5.124-2.2,12.556,12.556,0,0,1,2.889.386,8.143,8.143,0,0,1,.963.307l.039-.269c.193-.925.424-1.387.616-1.387l.232.115.077.193-.039.578a20.528,20.528,0,0,0-.231,3.006v.808c0,.232.077.81.193,1.7l.038.386a.553.553,0,0,1-.077.347l-.231.115c-.193,0-.346-.231-.463-.655a17.258,17.258,0,0,1-.346-2.5A7.991,7.991,0,0,0,663.105,740.22Z" fill="#231f20"/><path d="M671.581,722.92a.636.636,0,0,0-.578-.308c-.578,0-1.464.694-1.811.694l-.193-.077-.077-.116a1.129,1.129,0,0,1,.308-.732,6.018,6.018,0,0,1,1.041-.771l2.041-1.04a3.61,3.61,0,0,1,1.464-.385.5.5,0,0,1,.463.269,3.464,3.464,0,0,1,.115,1.079l-.115,19.727c.5-.27,1.349-.656,2.466-1.195.809-.385,1.387-.655,1.811-.809a9.024,9.024,0,0,1,2.427-.539,3.276,3.276,0,0,1,2.736,1.04,7.1,7.1,0,0,1,.77,3.891v4.046l.038,1.926.117,1.7c.578.117,1.078.194,1.5.27.81.193,1.465.27,1.465.694a.552.552,0,0,1-.154.27l-.463.077-1.348-.116-2.389-.115-2.389.115-1.348.116-.462-.077a.489.489,0,0,1-.155-.27c0-.424.578-.463,1.7-.732.578-.115,1-.232,1.271-.27l.154-1.926.038-1.657v-3.622a4.989,4.989,0,0,0-.654-2.889,2.473,2.473,0,0,0-2.119-.848,6.583,6.583,0,0,0-2.234.463,15.961,15.961,0,0,0-2.775,1.271v5.625l.038,1.734.155,1.849c.5.116.963.193,1.464.308.462.116.732.193.847.231.424.117.617.27.617.463a.552.552,0,0,1-.154.27l-.424.077-1.348-.116-2.389-.115-2.389.115-1.348.116-.463-.077a.485.485,0,0,1-.154-.27c0-.193.193-.346.617-.463a22.009,22.009,0,0,1,2.311-.539l.115-1.965.078-1.618-.116-23.309A5.832,5.832,0,0,0,671.581,722.92Z" fill="#231f20"/><path d="M693.309,749.39a4.724,4.724,0,0,0,3.775,1.7,4.018,4.018,0,0,0,3.313-1.542l.656-.771a2.045,2.045,0,0,1,.5-.5c.039-.039.077-.039.116-.077l.192.077.077.193a1.81,1.81,0,0,1-.269.77,6.44,6.44,0,0,1-.693,1.079,7.057,7.057,0,0,1-2.389,1.926,6.343,6.343,0,0,1-2.852.694,5.96,5.96,0,0,1-4.623-1.926A7.138,7.138,0,0,1,689.378,746a7.41,7.41,0,0,1,1.927-5.278,6.67,6.67,0,0,1,5.086-2.042,5.817,5.817,0,0,1,4.238,1.5,5.98,5.98,0,0,1,1.5,4.354v.5H691.844A6.394,6.394,0,0,0,693.309,749.39Zm.77-5.125,2.966-.077a10.279,10.279,0,0,0,1.079-.077,12.48,12.48,0,0,0,1.349-.193,5.148,5.148,0,0,0-.963-3.314,3.182,3.182,0,0,0-2.582-1.194,3.607,3.607,0,0,0-2.851,1.272,5.674,5.674,0,0,0-.848,1.58,5.464,5.464,0,0,0-.346,2Z" fill="#231f20"/><path d="M714.767,722.959a.515.515,0,0,0-.539-.347,1.838,1.838,0,0,0-.964.347,2.014,2.014,0,0,1-.809.347l-.231-.039-.116-.154a1.156,1.156,0,0,1,.347-.732,3.884,3.884,0,0,1,1.078-.771,13.124,13.124,0,0,1,2.081-1.04,3.326,3.326,0,0,1,1.464-.385.57.57,0,0,1,.5.346,2.5,2.5,0,0,1,.154,1l-.269,27.433a6.551,6.551,0,0,0,.115,1.579.635.635,0,0,0,.616.269,1.848,1.848,0,0,0,1.311-.693c.269-.269.462-.424.539-.5a2.223,2.223,0,0,1,.309-.153l.192.076.077.231c0,.463-.54,1.118-1.618,1.927a5,5,0,0,1-2.813,1.233,1.27,1.27,0,0,1-.924-.308,1.608,1.608,0,0,1-.232-.964l.039-1.194c-1.888,1.734-3.468,2.466-5.432,2.466a4.5,4.5,0,0,1-3.622-1.734,7,7,0,0,1-1.464-4.623,9.048,9.048,0,0,1,1.695-5.7,5.467,5.467,0,0,1,4.546-2.158,5.979,5.979,0,0,1,2.081.386,12.464,12.464,0,0,1,2.2,1.194l-.116-15.912A3.9,3.9,0,0,0,714.767,722.959Zm-1.734,17.106a4.206,4.206,0,0,0-1.966-.539,3.03,3.03,0,0,0-2.735,1.657,8.241,8.241,0,0,0-1.04,4.392,8.343,8.343,0,0,0,1,4.469,3.217,3.217,0,0,0,2.89,1.58,3.493,3.493,0,0,0,2-.578,5.907,5.907,0,0,0,1.888-1.811v-7.474A7.8,7.8,0,0,0,713.033,740.065Z" fill="#231f20"/><path d="M735.223,753.319c-.077.309-.155.5-.27.539l-.27.117c-.116-.039-.193-.039-.231-.078l-.077-.231.077-.81a32.609,32.609,0,0,0,.5-5.817v-1.58c-.039-.347-.077-.616-.077-.809l-.116-1.425.077-.5a.29.29,0,0,1,.269-.193c.309,0,.656,1.541,1.08,4.662l.115.963a17.826,17.826,0,0,0,4.046,2.62,9.2,9.2,0,0,0,3.891.848,7.339,7.339,0,0,0,5.009-1.811,5.627,5.627,0,0,0,2.042-4.315,5.063,5.063,0,0,0-.309-1.7,2.592,2.592,0,0,0-1-1.117c-1.041-.733-3.121-1.311-6.165-1.735l-1.734-.269a9.178,9.178,0,0,1-5.278-2.2,5.943,5.943,0,0,1-1.811-4.584,8.393,8.393,0,0,1,2.581-6.357,9.122,9.122,0,0,1,6.55-2.428,12.881,12.881,0,0,1,3.236.424,17.712,17.712,0,0,1,3.314,1.156l.655-1.887c.115-.424.309-.618.539-.656l.232.077.039.27c-.039.424-.077.732-.116.925a27.746,27.746,0,0,0-.617,5.856l.038,1.156.039.77a1.078,1.078,0,0,1-.115.5.482.482,0,0,1-.27.154q-.808,0-.809-4.046v-.153a11.8,11.8,0,0,0-3.313-2.273,10.071,10.071,0,0,0-3.93-.771,7.375,7.375,0,0,0-4.971,1.734,5.327,5.327,0,0,0-2.042,4.161,3.474,3.474,0,0,0,1.311,2.928c.886.655,2.966,1.233,6.241,1.811l1.349.231a18.444,18.444,0,0,1,4.739,1.233,3.943,3.943,0,0,1,2.042,1.927,6.926,6.926,0,0,1,.77,3.236,8.54,8.54,0,0,1-2.812,6.588,10.045,10.045,0,0,1-7.051,2.62,14.959,14.959,0,0,1-3.275-.424,18.728,18.728,0,0,1-3.506-1.194Z" fill="#231f20"/><path d="M765.773,740.22a5.65,5.65,0,0,0-2.349-.54,3.66,3.66,0,0,0-3.854,2.774,5.073,5.073,0,0,0-.346,1.927,6.9,6.9,0,0,0,1.657,4.738,5.01,5.01,0,0,0,4.007,1.966,4.935,4.935,0,0,0,1.849-.347,4.5,4.5,0,0,0,1.5-1.2l.424-.5c.232-.347.424-.54.578-.54l.193.077.077.232a1.575,1.575,0,0,1-.155.578,5.591,5.591,0,0,1-.384.693,5.839,5.839,0,0,0-.347.5,6.166,6.166,0,0,1-5.124,2.35,6.085,6.085,0,0,1-4.547-1.926,6.637,6.637,0,0,1-1.85-4.779,7.446,7.446,0,0,1,2.082-5.316,6.7,6.7,0,0,1,5.124-2.2,12.556,12.556,0,0,1,2.889.386,8.143,8.143,0,0,1,.963.307l.039-.269c.193-.925.424-1.387.616-1.387l.232.115.077.193-.039.578a20.528,20.528,0,0,0-.231,3.006v.808c0,.232.077.81.193,1.7l.038.386a.553.553,0,0,1-.077.347l-.231.115c-.193,0-.346-.231-.463-.655a17.258,17.258,0,0,1-.346-2.5A7.991,7.991,0,0,0,765.773,740.22Z" fill="#231f20"/><path d="M785.267,750.7a8.782,8.782,0,0,1-6.2,2.312,6.794,6.794,0,0,1-4.815-1.7,5.889,5.889,0,0,1-1.811-4.507,7.479,7.479,0,0,1,2.542-5.857,9.383,9.383,0,0,1,6.435-2.272,6.219,6.219,0,0,1,4.662,1.733,6.571,6.571,0,0,1,1.695,4.7A7.294,7.294,0,0,1,785.267,750.7Zm-.193-4.777a7.975,7.975,0,0,0-1.233-4.739,3.984,3.984,0,0,0-3.429-1.657,4.824,4.824,0,0,0-3.891,1.657,6.5,6.5,0,0,0-1.464,4.392,7.439,7.439,0,0,0,1.386,4.778,4.281,4.281,0,0,0,3.584,1.733C783.264,752.086,785.074,749.736,785.074,745.922Z" fill="#231f20"/><path d="M793.164,749.62l.038-1.926v-4.353l-.038-1.5-.154-1.387-2.236.115h-.192a.836.836,0,0,1-.385-.077l-.077-.231c0-.231.347-.424,1-.539l.886-.155a14.079,14.079,0,0,0,1.888-.578l1.117-.424a.369.369,0,0,1,.346.232,3.872,3.872,0,0,1,.194,1.117l.038,3.737a12.566,12.566,0,0,1,2.2-3.737,3.216,3.216,0,0,1,2.428-1.194,2.2,2.2,0,0,1,1.387.424,1.629,1.629,0,0,1,.5,1.233,1.705,1.705,0,0,1-.424,1.155,1.443,1.443,0,0,1-1.117.5,1.737,1.737,0,0,1-1.08-.424,2.233,2.233,0,0,0-.924-.5c-.733,0-1.426.694-2,2.082a12.828,12.828,0,0,0-.924,5.2v2.927c.616,0,1.194.039,1.771.078,1.079.154,2.66.385,2.66.886a.559.559,0,0,1-.155.27l-.424.077-.578-.039c-1.464-.115-2.735-.192-3.814-.192-.654,0-1.272,0-1.926.038s-1.349.077-2,.154l-.5.039-.5-.077a.673.673,0,0,1-.115-.27c0-.154.192-.308.578-.463a18.3,18.3,0,0,1,2.466-.5Z" fill="#231f20"/><path d="M807.341,749.39a4.725,4.725,0,0,0,3.775,1.7,4.022,4.022,0,0,0,3.314-1.542l.655-.771a2.05,2.05,0,0,1,.5-.5c.038-.039.076-.039.115-.077l.193.077.077.193a1.8,1.8,0,0,1-.27.77,6.44,6.44,0,0,1-.693,1.079,7.057,7.057,0,0,1-2.389,1.926,6.342,6.342,0,0,1-2.851.694,5.957,5.957,0,0,1-4.623-1.926A7.134,7.134,0,0,1,803.41,746a7.41,7.41,0,0,1,1.927-5.278,6.671,6.671,0,0,1,5.086-2.042,5.817,5.817,0,0,1,4.238,1.5,5.98,5.98,0,0,1,1.5,4.354v.5H805.876A6.394,6.394,0,0,0,807.341,749.39Zm.77-5.125,2.966-.077a10.259,10.259,0,0,0,1.079-.077,12.48,12.48,0,0,0,1.349-.193,5.148,5.148,0,0,0-.963-3.314,3.18,3.18,0,0,0-2.582-1.194,3.609,3.609,0,0,0-2.851,1.272,5.671,5.671,0,0,0-.847,1.58,5.443,5.443,0,0,0-.347,2Z" fill="#231f20"/><path d="M839.008,739.95a2.978,2.978,0,0,1-.771-.231c-.192-.115-.308-.232-.308-.424l.077-.27.463-.077.963.077,1.5.078,1.541-.078,1-.077.423.077a.482.482,0,0,1,.154.27c0,.115-.154.269-.462.424l-1.618.424-2.081,4.238-.963,1.965-2.89,6.126-.154.308c-.193.424-.385.655-.577.655-.232,0-.463-.308-.733-.886l-5.355-12.406-1.773-.386c-.346-.153-.5-.308-.539-.462a.532.532,0,0,1,.154-.27l.462-.077,1.079.077,1.888.116,1.85-.116,1.078-.077.463.077.077.27c0,.192-.154.347-.463.462l-1.5.424,4.237,10.249,2.274-5.857.77-2.157.578-2.273A6.8,6.8,0,0,1,839.008,739.95Z" fill="#231f20"/><path d="M857.153,750.7a8.778,8.778,0,0,1-6.2,2.312,6.793,6.793,0,0,1-4.815-1.7,5.886,5.886,0,0,1-1.812-4.507,7.48,7.48,0,0,1,2.543-5.857,9.383,9.383,0,0,1,6.435-2.272,6.219,6.219,0,0,1,4.662,1.733,6.571,6.571,0,0,1,1.7,4.7A7.292,7.292,0,0,1,857.153,750.7Zm-.192-4.777a7.975,7.975,0,0,0-1.233-4.739,3.984,3.984,0,0,0-3.429-1.657,4.828,4.828,0,0,0-3.892,1.657,6.5,6.5,0,0,0-1.464,4.392,7.433,7.433,0,0,0,1.387,4.778,4.281,4.281,0,0,0,3.584,1.733C855.15,752.086,856.961,749.736,856.961,745.922Z" fill="#231f20"/><path d="M866.938,746.692l.155,4.623a19.078,19.078,0,0,1,2.311.463c.347.116.539.308.578.5a.552.552,0,0,1-.154.27l-.424.077-1.348-.116-2.389-.115-2.389.115-1.348.116-.463-.077a.492.492,0,0,1-.154-.27c0-.308.347-.5,2.928-1l.115-3.236.078-3.853-.116-19.8a5.832,5.832,0,0,0-.115-1.465.635.635,0,0,0-.578-.308c-.578,0-1.464.694-1.811.694l-.193-.077-.077-.116a1.125,1.125,0,0,1,.309-.732,5.961,5.961,0,0,1,1.04-.771l2.042-1.04a3.6,3.6,0,0,1,1.463-.385.5.5,0,0,1,.463.269,3.456,3.456,0,0,1,.116,1.079l-.116,22.655Z" fill="#231f20"/><path d="M874.142,752.356a1.858,1.858,0,0,1-.578-1.425,2.052,2.052,0,0,1,1.965-1.965,1.941,1.941,0,0,1,1.926,1.965,1.977,1.977,0,0,1-.539,1.425,1.953,1.953,0,0,1-2.774,0Z" fill="#231f20"/><path d="M893.6,752.279l-4.855-.154-4.084.115-2.388.116a2.906,2.906,0,0,1-1-.116.436.436,0,0,1-.27-.462c0-.269.732-.924,2.234-2l2.967-2.2a41.067,41.067,0,0,0,7.591-7.474c1.733-2.389,2.619-4.508,2.619-6.357a5.138,5.138,0,0,0-1.5-3.853,5.775,5.775,0,0,0-4.123-1.425,7.148,7.148,0,0,0-3.969,1.155,11.772,11.772,0,0,0-3.351,3.506l-.578,1.041c-.347.654-.616.963-.809.963-.116-.038-.193-.038-.231-.077l-.077-.309a3.571,3.571,0,0,1,.5-1.464,9.051,9.051,0,0,1,1.271-2.119,11.91,11.91,0,0,1,4.007-3.775,9.624,9.624,0,0,1,4.816-1.234c4.2,0,6.858,2.543,6.858,6.55,0,2.466-1.31,5.163-3.891,8.053s-6.781,6.357-12.522,10.4c1.888,0,3.622-.038,5.278-.153,1.618-.116,3.121-.232,4.508-.386a17.43,17.43,0,0,0,5.471-1.271c.385-2.12.656-3.468.809-3.968.116-.5.27-.733.386-.733l.192.116.077.308-.269,2.274a38.308,38.308,0,0,0-.232,4.122l.039,2.889.038.347-.077.347a.593.593,0,0,1-.231.116c-.115,0-.231-.154-.424-.5l-.347-1.927A34.645,34.645,0,0,0,893.6,752.279Z" fill="#231f20"/></g></svg>
